<?xml version="1.0" encoding="UTF-8"?> <svg xmlns="http://www.w3.org/2000/svg" id="Layer_1" data-name="Layer 1" viewBox="0 0 229.12 300"><defs><style> .cls-1 { fill: #00898e; } </style></defs><path class="cls-1" d="M35.44,222.53c0-37.5,23.49-63.05,49-80.77C68.41,123.63,52.75,97.67,52.75,74.59,52.75,33.79,82,0,135.58,0c60.16,0,82.83,30.5,82.83,70.47,0,32.14-23.91,54.8-52.75,75l34.61,43.27c7.42-10.31,9.07-31.73,7.84-42l56.45,7.42c-2.06,33-11.13,57.28-26.37,81.18l24.31,26.79L219.64,300l-19.37-21.84C184.2,291.35,152.06,300,123.21,300,63.46,300,35.44,273.63,35.44,222.53Zm64.29-2.89c0,19,10.3,27.2,30.9,27.2,12.36,0,26.79-3.3,35-9.48l-45.74-56C106.32,192.45,99.73,206.87,99.73,219.64ZM156.18,73.35c0-11.54-5.36-21.84-20.6-21.84-13.19,0-20.2,8.66-20.2,22.25,0,11.13,8.25,24.32,16.49,32.15C145.47,97.25,156.18,85.3,156.18,73.35Z" transform="translate(-35.44 0)"></path></svg> 