<?xml version="1.0" encoding="UTF-8"?> <svg xmlns="http://www.w3.org/2000/svg" viewBox="0 0 545.96 212.2"><defs><style> .cls-1 { fill: #818fc0; } .cls-2 { fill: #255398; } </style></defs><g id="Layer_4" data-name="Layer 4"><g><path class="cls-1" d="M253.51,157.76a62,62,0,0,1,19.17,11.58A34.08,34.08,0,0,1,275,159s-3.62-6.87-14.48-14.29a70.61,70.61,0,0,0-25.14-10.13,70.51,70.51,0,0,0-5.61,18.82s9.77-1.09,23.7,4.34Zm8.32-23.34c11,10.67,15,21.35,15,21.35a28.76,28.76,0,0,1,7.78-8.33s-4-12.66-10.67-22.25c-6.51-9.4-17.18-17.18-17.18-17.18A66.73,66.73,0,0,0,243,121.94S253.87,126.64,261.83,134.42Zm19.35-13.2a108.18,108.18,0,0,1,6.15,24.6,34.68,34.68,0,0,1,11.4-3.26,124,124,0,0,0-2.53-24.78,164.8,164.8,0,0,0-6.7-23.88,70.78,70.78,0,0,0-18.45,5.61s6.7,13,10.13,21.71Zm65.49,36.54a65.05,65.05,0,0,0-19.17,11.58A29.42,29.42,0,0,0,325.33,159s3.62-6.87,14.47-14.29a70.41,70.41,0,0,1,25-10.13,64.85,64.85,0,0,1,5.6,18.82s-9.77-1.09-23.7,4.34Zm-8.14-23.34c-11,10.67-15,21.35-15,21.35a26.85,26.85,0,0,0-8-8.33s4.16-12.66,10.68-22.25c6.69-9.4,17.36-17.18,17.36-17.18a71.44,71.44,0,0,1,13.75,13.93S346.5,126.64,338.53,134.42Zm-19.36-13.2a104,104,0,0,0-6.33,24.6,33.34,33.34,0,0,0-11.21-3.26A132,132,0,0,1,304,117.78a176.91,176.91,0,0,1,6.87-23.88,70.66,70.66,0,0,1,18.45,5.61s-6.69,13-10.13,21.71Z" transform="translate(-27.02 -93.9)"></path><path class="cls-2" d="M263.09,200.81a57.23,57.23,0,0,1,27.5-5.06,29.13,29.13,0,0,1-12.12-9.05s-12.3-1.45-21.7.36c-14.29,2.9-20.63,7.78-20.63,7.78a71.52,71.52,0,0,0,11,16.28,69,69,0,0,1,15.91-10.31Zm-10.67-20.62c14.11-.73,23.7,2.89,23.7,2.89a24.6,24.6,0,0,1-3.25-10.31s-11-6.33-21.35-7.6c-14.11-2-22.43.73-22.43.73a68.89,68.89,0,0,0,3.25,19.36A55.9,55.9,0,0,1,252.42,180.19Z" transform="translate(-27.02 -93.9)"></path><path class="cls-2" d="M300.18,211.48c19.9,0,28.76,17.37,28.76,17.37a73.74,73.74,0,0,0,17.19-10.67s-17-21.35-45.95-21.35-46,21.35-46,21.35a70.12,70.12,0,0,0,17.18,10.67s8.69-17.37,28.77-17.37Z" transform="translate(-27.02 -93.9)"></path><path class="cls-2" d="M337.08,200.81a57,57,0,0,0-27.49-5.06,29.63,29.63,0,0,0,12.3-9.05s12.3-1.45,21.71.36c14.28,2.9,20.62,7.78,20.62,7.78a71.85,71.85,0,0,1-11,16.28,73,73,0,0,0-16.1-10.31Zm10.68-20.62c-13.93-.73-23.52,2.89-23.52,2.89a27.66,27.66,0,0,0,3.25-10.31s11-6.33,21.35-7.6c14.11-2,22.43.73,22.43.73A75.66,75.66,0,0,1,368,185.26a56,56,0,0,0-20.25-5.07ZM40.05,277.51v-23.7H50.17c3.62,0,6.52.37,9.41,2.72A11.83,11.83,0,0,1,59.76,275c-2.89,2.34-6,2.52-9.59,2.52Zm0,5.24H50.72c5.24,0,9.59-.72,13.56-4.52a17,17,0,0,0-.9-26c-4-2.9-8.51-3.62-13.21-3.62H27v5.24h7.24v45.95H27V305H47.1v-5.25H40.05Zm35.63-.89c1.09-7.78,8.15-14.3,16.1-14.3a16.87,16.87,0,0,1,17,14.47l-33.11-.17Zm30.76,11.57A16.27,16.27,0,0,1,92,301.57a16.53,16.53,0,0,1-16.28-15.38h38v-1.62A21.43,21.43,0,0,0,92,262.86c-12.12,0-21.53,10.13-21.53,21.89a21.81,21.81,0,0,0,41.61,8.68h-5.61Zm22.25-21.52c2-5.79,7.41-8.14,13.38-8.33v4.89c-9.22.72-13.38,6.15-13.38,15v16.64h7.05V305H116.57v-4.89h7.05V268.47h-7.05v-4.89h12.12ZM162,270.82c2.54-5.25,8.15-8,13.93-8,4.52,0,11.58,2.53,14.29,8a23.46,23.46,0,0,1,2.35,10.85v18.45h6.88V305H180.24v-4.89h7V283.48c0-3.61-.18-7.23-2-10.49-2.35-3.8-6.87-5.06-10.85-5.06a13.29,13.29,0,0,0-9.77,4.34C162,275.52,162,279,162,282.94v17.18h6.87V305H149.67v-4.89h7.05V268.47h-7.05v-4.89H162v7.24ZM222.57,301A16.55,16.55,0,1,1,239,284.57,16.6,16.6,0,0,1,222.57,301Zm0,5.07a21.62,21.62,0,1,0-21.89-21.53A21.7,21.7,0,0,0,222.57,306.1Zm47.22-4.89a16.73,16.73,0,1,1,16.64-16.82A16.63,16.63,0,0,1,269.79,301.21Zm16.46,3.8h12.12v-4.89h-6.88V248.57h-12.3v4.89h7.06v19.71a19.18,19.18,0,0,0-17.19-10.31c-11.57,0-21.34,9.95-21.34,21.53a25.56,25.56,0,0,0,3.62,11.94,22.92,22.92,0,0,0,17.91,9.77,19.3,19.3,0,0,0,17-9.77V305ZM372,305H361L343.6,280.77h2.17c4.16,0,8.32,0,11.94-2.18A13.32,13.32,0,0,0,364,267.2a13,13,0,0,0-4.16-10.13c-3.44-3.07-7.06-3.26-11.22-3.26H337.44v45.95h6.88V305H324.6v-5.25h7.24V253.81H324.6v-5.24H349c5.42,0,9.94.54,14.47,4.16A18.53,18.53,0,0,1,369.82,267a17.1,17.1,0,0,1-17.18,17.36l11.93,15.38H372V305Zm16.46-4.89h7.05V305H376.16v-4.89h7.23V268.47h-7.06v-4.89h12.13Zm-5.07-51.55h5.07v8.14h-5.07Zm52.28,27.49h-4.88a16.78,16.78,0,0,0-14.29-7.95,16.36,16.36,0,0,0-16.28,16.46c0,9.4,7.41,16.46,16.82,16.46,6-.18,11.76-3.44,14.11-8.87l6-.18c-3.08,8.69-11.59,14.12-20.62,14.12A21.66,21.66,0,0,1,395,284.75a22.22,22.22,0,0,1,6.15-15.38,21.32,21.32,0,0,1,15.19-6.51,19.1,19.1,0,0,1,14.47,6.51v-5.78h4.89v12.47Zm25.69-8.13a16.55,16.55,0,1,1-16.82,16.64A16.75,16.75,0,0,1,461.36,267.93ZM477.82,305H490v-4.89h-6.88V268.47H490v-4.89H477.82v9.05c-3.79-6.33-9.58-9.77-17-9.77-7.6,0-14.65,3.8-18.09,9.77-1.63,3.08-3.44,5.79-3.44,11.94a21.9,21.9,0,0,0,3.26,11.94,21.43,21.43,0,0,0,18.27,9.59,19.12,19.12,0,0,0,17-9.59V305Zm29.85-33.1c1.81-5.79,7.42-8.14,13.21-8.33v4.89c-9.05.72-13.21,6.15-13.21,15v16.64h6.87V305H495.37v-4.89h7.06V268.47h-7.06v-4.89h12.3v8.33Zm36.72,29.3A16.73,16.73,0,1,1,561,284.39,16.64,16.64,0,0,1,544.39,301.21Zm16.47,3.8H573v-4.89h-6.87V248.57H553.8v4.89h7.06v19.71a19.17,19.17,0,0,0-17.19-10.31c-11.57,0-21.34,9.95-21.34,21.53A25.56,25.56,0,0,0,526,296.33a22.91,22.91,0,0,0,17.91,9.77,19.31,19.31,0,0,0,17-9.77V305Z" transform="translate(-27.02 -93.9)"></path></g></g></svg> 