<?xml version="1.0" encoding="UTF-8"?> <svg xmlns="http://www.w3.org/2000/svg" viewBox="0 0 566 75.57"><defs><style> .cls-1 { fill: #6673ff; } </style></defs><g id="Embroker"><g><path class="cls-1" d="M342.52,162.22c3.23.77,6.53,1.32,9.67,2.36,17.2,5.68,27.07,21.65,25.13,39.64-2,18.94-16.18,31-33.51,33.19a8.58,8.58,0,0,0-1.29.37h-9.24c-2.46-.54-4.95-1-7.37-1.64-31.12-8.74-33.77-44-18.7-60.79,6.6-7.35,14.93-11.31,24.58-12.73.51-.08,1-.27,1.49-.4Zm11.66,38v-1.61a16.16,16.16,0,0,0-21.63-15.13c-9.15,3.35-12.16,11.35-10.67,20.71a15.88,15.88,0,0,0,17.69,13.36C348.44,216.58,354.55,209.35,354.18,200.26Z" transform="translate(-17 -162.22)"></path><path class="cls-1" d="M81,163.42c6.9,0,13.66,0,20.41.06a2.83,2.83,0,0,1,1.8,1.23q8,11,15.84,22c.31.43.64.85,1.14,1.52.46-.59.86-1.07,1.23-1.57,5.25-7.27,10.52-14.53,15.73-21.83a3,3,0,0,1,2.8-1.44c6.48.07,13,0,19.56,0v73.06H137.05v-35.7l-.42-.17-16.42,20.57c-5.48-6.93-10.86-13.7-16.6-21v36.22H81Z" transform="translate(-17 -162.22)"></path><path class="cls-1" d="M215.7,199c5.76,2.49,9.69,6.4,11.15,12.35,2.26,9.15-.83,20.91-14,24.06a39.08,39.08,0,0,1-8.52,1.15c-12.12.12-24.24.05-36.35,0-.4,0-.79,0-1.3-.08v-73c.72,0,1.37-.08,2-.09,11,0,22.09-.11,33.14.07A39.51,39.51,0,0,1,212.08,165c8.61,2.5,13,8.68,13.29,17.65C225.6,190,222.5,195.37,215.7,199Zm-27.21,9.09v9.69c4.19,0,8.26.15,12.31-.05a4.59,4.59,0,0,0,4.64-4.8,4.8,4.8,0,0,0-4.74-4.79C196.7,207.92,192.69,208.06,188.49,208.06Zm0-16.89c4.1,0,8,.18,11.8-.06,2.45-.16,3.73-2,3.75-4.41s-1.14-4.16-3.55-4.34c-3.94-.28-7.93-.07-12-.07Z" transform="translate(-17 -162.22)"></path><path class="cls-1" d="M232.06,163.42h9.38c9.24,0,18.48-.11,27.71.08a27,27,0,0,1,16.61,5.67c6.16,4.85,8.7,11.48,9.26,19.07.78,10.47-3.29,18.45-12.37,24l14.92,24.32H286.22c-4.08,0-8.17-.06-12.25,0a2.47,2.47,0,0,1-2.52-1.43c-3.31-5.73-6.76-11.38-10-17.17-1-1.81-2.15-2.68-4.21-2.38a20.05,20.05,0,0,1-2.6,0v20.83h-22.6Zm22.72,34.27c4.26-.19,8.4-.16,12.49-.63,3.43-.4,5.26-2.93,5.35-6.47.11-4.18-1.51-7.12-5.07-7.51-4.19-.47-8.47-.11-12.77-.11Z" transform="translate(-17 -162.22)"></path><path class="cls-1" d="M17,163.51H73.87V183H39.7v6.88H73.84v19.14H71.43c-9.91,0-19.83,0-29.74,0-1.63,0-2.3.4-2.16,2.12s0,3.59,0,5.64H73.87v19.64H17Z" transform="translate(-17 -162.22)"></path><path class="cls-1" d="M517.38,163.49c.47,0,.8-.07,1.12-.07,11.92,0,23.84-.06,35.76.06a27.68,27.68,0,0,1,14.5,4.08,23.56,23.56,0,0,1,11,16.5c1.48,8,.76,15.67-4.74,22.15-2,2.31-4.47,4.16-6.88,6.37q7.13,11.55,14.83,24h-5.85c-6,0-11.92,0-17.88,0a2.48,2.48,0,0,1-2.51-1.45c-3.33-5.8-6.82-11.51-10.08-17.34-.95-1.7-2-2.47-3.92-2.19a21.25,21.25,0,0,1-2.79,0v20.82H517.38ZM540,197.69c4.32-.19,8.46-.16,12.54-.62,3.36-.39,5.22-2.85,5.41-6.23.22-3.87-1.33-7.15-4.43-7.6-4.43-.65-9-.56-13.52-.79Z" transform="translate(-17 -162.22)"></path><path class="cls-1" d="M405.67,193.34c6-9.4,12.09-18.78,18.05-28.23a3.28,3.28,0,0,1,3.21-1.73c8,.08,15.94,0,24.3,0-.49.8-.83,1.4-1.21,2-7,10.47-13.93,21-21,31.38a2.67,2.67,0,0,0,0,3.52q11.08,17.1,22.05,34.27c.36.55.69,1.12,1.17,1.89-.73.06-1.29.13-1.84.13-7.7,0-15.41,0-23.11,0a2.75,2.75,0,0,1-2.71-1.5q-8.88-14.21-17.87-28.36c-.37-.59-.79-1.15-1.5-2.17v31.87H382.15V163.59h23v29.68Z" transform="translate(-17 -162.22)"></path><path class="cls-1" d="M456.07,163.51h54.07V183H478.87v6.85h31.28V209H478.91v7.82h31.25v19.65H456.07Z" transform="translate(-17 -162.22)"></path></g></g></svg> 