<?xml version="1.0" encoding="UTF-8"?> <svg xmlns="http://www.w3.org/2000/svg" viewBox="0 0 443.22 144"><defs><style> .cls-1 { fill: #081a1c; } .cls-1, .cls-2 { fill-rule: evenodd; } .cls-2 { fill: #3dbb61; } </style></defs><g id="Alpha"><g id="Elements"><g id="Alpha-Logo"><g id="Group"><path id="Fill-1" class="cls-1" d="M265.48,217.13c-10,0-17.17-7.61-17.17-18.09,0-10.67,7.06-18.13,17.17-18.13,9.81,0,16.65,7.44,16.65,18.1,0,10.34-6.32,18.12-16.65,18.12m-2-47.67c-15.77,0-27.32,12.22-27.32,29.55,0,16.43,11.75,29.54,28.36,29.54,13,0,18.39-8.07,18.39-8.07s1.93,6.76,9.22,6.76h2.11V170.77H282.66v8.71s-4.8-10-19.13-10" transform="translate(-78.39 -128)"></path><path id="Fill-3" class="cls-1" d="M492.79,217.13c-10,0-17.16-7.61-17.16-18.09,0-10.67,7.06-18.13,17.17-18.13,9.8,0,16.65,7.44,16.65,18.1,0,10.34-6.33,18.12-16.66,18.12m-2-47.67c-15.76,0-27.31,12.22-27.31,29.55,0,16.43,11.74,29.54,28.36,29.54,13,0,18.39-8.07,18.39-8.07s1.92,6.76,9.22,6.76h2.11V170.77H510v8.71s-4.8-10-19.14-10" transform="translate(-78.39 -128)"></path><path id="Fill-5" class="cls-1" d="M427.56,180.91c8.21,0,14.39,5.64,14.39,15.83v30.5h12V196.17c0-18.19-12.56-26.69-23.92-26.69s-16.3,8.16-16.3,8.16V151.69h-12v75.55h12V196.08c0-9.07,5.57-15.17,13.84-15.17" transform="translate(-78.39 -128)"></path><polygon id="Fill-7" class="cls-1" points="230.03 99.24 241.71 99.24 241.71 23.69 230.03 23.69 230.03 99.24"></polygon><path id="Fill-9" class="cls-1" d="M363.06,180.91c10.11,0,17.17,7.46,17.17,18.13,0,10.48-7.21,18.09-17.15,18.09-11.22,0-16.67-8.46-16.67-18.12,0-10.66,6.84-18.1,16.65-18.1m1.11,47.64c16.47,0,28.16-13.43,28.16-29.54,0-16.62-10.84-29.55-27.59-29.55-14.22,0-18.86,10-18.86,10v-8.71H334.25v75.55h11.69V220.94s5.43,7.61,18.23,7.61" transform="translate(-78.39 -128)"></path><path id="Fill-10" class="cls-2" d="M172.48,232.28c-3.11-.55-4.66,2.58-5.68,6.54-2.31,8.93-6.62,12.81-11.68,16-8.23,5.22-15.39,5.57-27.89,3.67a3.78,3.78,0,0,0-4.23,1.62,3.87,3.87,0,0,0,1.07,4.87c5,4.57,20.42,11.65,36.39,2.69A31.06,31.06,0,0,0,176,243.93c.68-5.76.16-10.94-3.5-11.65" transform="translate(-78.39 -128)"></path><path id="Fill-11" class="cls-2" d="M142.67,200.5a4.51,4.51,0,0,1,5,0,3.58,3.58,0,0,0,2.31.9c1.14,0,1.7-1,1.69-2.18a6.56,6.56,0,0,0-13.11,0c0,1.22.62,2.17,1.77,2.16a3.64,3.64,0,0,0,2.3-.91" transform="translate(-78.39 -128)"></path><path id="Fill-12" class="cls-2" d="M198,191.35c-3.71-2.69-30-19.59-30-19.59-2.7-1.74-4.84-4-3.89-6.53,1.12-3,8-5.93,15.78-4.8,14.13,2.07,21.19,17.06,24.47,26A3.58,3.58,0,0,0,208,189c2.07-.16,3.14-1.55,3.53-3.52,1.88-9.42-2.25-31.27-24.4-38.16-8.72-2.71-20.41-2-28.68,3.31-9.55,6.13-17.06,10.85-22.52,14.23-4.77,3-8.52,5-10.57,2.16s-.9-15.18,8.91-21.32c7.93-5,15.8-6.22,28.62-4.78,2.89.35,5.92-4,1.86-6.91a35.21,35.21,0,0,0-37.43-1.22c-2.18,1.22-17.07,9.56-17.07,30.25v27.35c.06,6.13-.46,9.25-3.83,9.51-2.21.17-8.51-4-11.46-10.47a25.67,25.67,0,0,1-1.42-15.79c1.88-9.23,9.38-18.44,9.93-19.21,2.7-3.76-1.2-7-4.46-5.58a35,35,0,0,0-20.61,31.81c0,9.37,3.29,16.32,7.65,22.46a50.21,50.21,0,0,0,14.74,14.2c14.13,8.58,22.41,2.33,22.41-5.54,0,0,0-9.28,0-9.47a2.55,2.55,0,0,1,.94-2,3.81,3.81,0,0,1,4.27.21,3.6,3.6,0,0,0,2.31.9c1.14,0,1.7-1,1.69-2.18a6.41,6.41,0,0,0-6.57-6.38,7.33,7.33,0,0,0-1.06.09c4.07-12.87,12.32-18.51,19.16-19.77,15.35-2.84,27.8,11.46,24,25.47a37.42,37.42,0,0,1-4.11,9.76,9,9,0,1,0,16.94,3.32c-.18-5.29-1.76-8.64,1-10.44,2.4-1.56,5.85.63,8.23,2.72a22,22,0,0,1,7.16,15.54c.38,11.8-5.52,19.27-10,25.84-.74,1.08-1.91,2.71-.86,4.59,1.13,2.05,3.6,2.43,6.77.64,6.42-3.65,18.72-13.31,18.75-31.3,0-7.23-3-20.12-13.78-27.94" transform="translate(-78.39 -128)"></path><path id="Fill-13" class="cls-2" d="M130.81,241.5c-1-3-4.45-2.71-8.46-1.9a28.33,28.33,0,0,1-20-2.88C92,231.41,87.6,219.21,85.78,215c-1.43-3.33-6.55-3.24-7.11,1.89A32.63,32.63,0,0,0,93.94,247.7a31,31,0,0,0,28.27,2.4c5.39-2.13,9.7-5,8.6-8.6" transform="translate(-78.39 -128)"></path></g></g></g></g></svg> 