<?xml version="1.0" encoding="UTF-8"?> <svg xmlns="http://www.w3.org/2000/svg" viewBox="0 0 600 400"><defs><style> .cls-1 { fill: #f7a08b; } </style></defs><g id="Shapermint"><g><path d="M83.9,170.19s.93.54,2.47,1.58A28,28,0,0,1,89,173.91a37.3,37.3,0,0,1,3.09,3.22,36.4,36.4,0,0,1,3,4.38,26.54,26.54,0,0,1,1.37,2.6A23.52,23.52,0,0,1,97.7,187a25.49,25.49,0,0,1,1,3.07,26.6,26.6,0,0,1,.68,3.24c.19,1.1.27,2.22.37,3.34s.09,2.26.05,3.39a39.52,39.52,0,0,1-.82,6.64,38.7,38.7,0,0,1-1.85,6.13,41.32,41.32,0,0,1-2.55,5.34,42.3,42.3,0,0,1-2.91,4.36,35.32,35.32,0,0,1-5.35,5.65,18.44,18.44,0,0,1-2.4,1.74l1-2.75c.59-1.72,1.44-4.14,2.32-7,.46-1.41.88-3,1.32-4.56s.86-3.3,1.19-5c.19-.86.34-1.75.52-2.63l.2-1.35c.07-.45.15-.89.2-1.35.22-1.81.4-3.64.44-5.46.07-.92,0-1.83,0-2.73s0-1.81-.14-2.7a46.45,46.45,0,0,0-.68-5.25c-.14-.84-.31-1.68-.52-2.51s-.38-1.64-.61-2.42c-.41-1.58-1-3.05-1.39-4.45-.27-.69-.52-1.36-.76-2s-.47-1.25-.71-1.81c-.49-1.11-.84-2.14-1.25-3-.73-1.7-1.11-2.71-1.11-2.71Zm52,59.62s-.94-.54-2.47-1.58a26.8,26.8,0,0,1-2.64-2.14,35.85,35.85,0,0,1-3.09-3.22,34.25,34.25,0,0,1-3-4.38,22.83,22.83,0,0,1-1.37-2.6,22,22,0,0,1-1.19-2.86,25.49,25.49,0,0,1-1-3.07,26.6,26.6,0,0,1-.68-3.24c-.19-1.1-.28-2.22-.38-3.34s-.09-2.26,0-3.39a38.51,38.51,0,0,1,.82-6.64,37.68,37.68,0,0,1,1.85-6.13,40,40,0,0,1,2.55-5.34,40.72,40.72,0,0,1,2.9-4.36,35.25,35.25,0,0,1,5.36-5.65,18.44,18.44,0,0,1,2.4-1.74l-1,2.75c-.59,1.72-1.43,4.14-2.31,7-.46,1.41-.88,3-1.33,4.56s-.85,3.3-1.19,5c-.19.86-.33,1.75-.51,2.63l-.2,1.35c-.08.45-.16.89-.2,1.35-.22,1.81-.4,3.64-.45,5.46-.06.92,0,1.83,0,2.73s0,1.81.13,2.7a51.51,51.51,0,0,0,.68,5.25c.15.85.32,1.69.53,2.51s.37,1.64.61,2.42c.41,1.58.94,3.05,1.39,4.45.27.69.51,1.36.76,2s.46,1.25.71,1.81c.49,1.11.83,2.14,1.25,3C135.5,228.8,135.88,229.81,135.88,229.81Z"></path><path class="cls-1" d="M79.49,183.46a11,11,0,0,0,0,4.64A3.32,3.32,0,0,0,82,190.54c2.52.69,5.68.35,8.72-.07,6.14-.93,12.4-2.4,18.76-3.54a100.58,100.58,0,0,1,19.66-2.11,33,33,0,0,1,5.18.51,13.16,13.16,0,0,1,5.19,2,6,6,0,0,1,2.62,5.17,9.93,9.93,0,0,1-1.67,4.83,12.07,12.07,0,0,0-.08-4.66,3.59,3.59,0,0,0-2.43-2.63,11.36,11.36,0,0,0-4.07-.58,37.11,37.11,0,0,0-4.52.32c-6.13.78-12.39,2.22-18.73,3.36A113,113,0,0,1,91,195.44a34.79,34.79,0,0,1-5.15-.37,14.59,14.59,0,0,1-5.25-1.72,7.05,7.05,0,0,1-2.18-2.17,5,5,0,0,1-.7-2.9A9.4,9.4,0,0,1,79.49,183.46Zm0,16.67a11,11,0,0,0,0,4.63A3.35,3.35,0,0,0,82,207.21c2.52.69,5.68.34,8.72-.08,6.14-.92,12.4-2.39,18.76-3.54s12.86-2.22,19.66-2.1a30.8,30.8,0,0,1,5.18.51,13.14,13.14,0,0,1,5.19,2,6,6,0,0,1,2.62,5.17,9.93,9.93,0,0,1-1.67,4.83,12,12,0,0,0-.08-4.65,3.6,3.6,0,0,0-2.43-2.64,11.36,11.36,0,0,0-4.07-.58,37.11,37.11,0,0,0-4.52.32c-6.13.78-12.39,2.22-18.73,3.37A113.93,113.93,0,0,1,91,212.1a36.17,36.17,0,0,1-5.15-.36A14.81,14.81,0,0,1,80.6,210a6.94,6.94,0,0,1-2.18-2.17,4.94,4.94,0,0,1-.7-2.89A9.4,9.4,0,0,1,79.49,200.13Z"></path><path d="M71.14,175.71l-.81,1.3A28.31,28.31,0,0,0,56,173.17c-10,0-16.58,4.33-16.58,11,0,19.1,34.29,9.3,34.12,30.53,0,8.4-7.59,13.88-19.34,13.88a28.55,28.55,0,0,1-19.52-8l1.15-1.15C40.12,224,47.3,227,54.16,227c10.77,0,17.7-4.81,17.7-12.24.17-19.59-34.11-9.79-34.11-30.53,0-7.67,7.18-12.66,18.2-12.66A30,30,0,0,1,71.14,175.71Zm84.49,35.5-7.92,17.39h-2l26.13-57.06h1.79l26.45,57.06h-1.89l-8-17.39Zm17.14-37.79-16.41,36.17H189.5Zm58-1.88c13.88,0,21.79,6.78,21.79,18.54,0,12-7.91,18.93-21.79,18.93H213V228.6h-1.64V171.54ZM213,207.39h17.7c12.82,0,20.16-6.29,20.16-17.31,0-10.78-7.34-16.9-20.16-16.9H213Zm54-34.21V198.4h30.28V200H267.05V227h35.18v1.63H265.41V171.54h35.67v1.64Zm77.29,35.18,14.77,20.25h-2l-14.52-19.92c-1.64.16-3.35.32-5.22.32H319.62V228.6H318V171.54h19.35c13.88,0,21.79,6.78,21.79,18.54C359.12,199.87,353.81,206.32,344.34,208.36Zm-7-1c12.81,0,20.16-6.29,20.16-17.31,0-10.78-7.35-16.9-20.16-16.9H319.62v34.21ZM429,228.6l-.08-55.51-25.05,49.22h-.17l-25.14-49.22V228.6h-1.64V171.54h2.86l24.08,47.27,23.92-47.27h2.86V228.6Zm22.53,0V171.54h1.64V228.6Zm64.4,0-40.25-55.42V228.6H474V171.54h2.45L516.73,227V171.54h1.63V228.6Zm35.19-55.42V228.6h-1.64V173.18H529.88v-1.64H570.7v1.64Z"></path></g></g></svg> 