<?xml version="1.0" encoding="UTF-8"?> <svg xmlns="http://www.w3.org/2000/svg" viewBox="0 0 215.32 247.53"><defs><style> .cls-1 { fill-rule: evenodd; } .cls-2 { fill: #cb2026; } </style></defs><g id="Maxymiser"><g><g><g><path class="cls-1" d="M231.61,316.09h-5l0-13.09c0-2.72-1.21-4.09-3.65-4.09a4.22,4.22,0,0,0-3.41,1.53,7.09,7.09,0,0,0-1.29,4.6l0,11h-5.1l0-13.09c0-2.76-1.14-4.15-3.43-4.15a4.41,4.41,0,0,0-3.51,1.66,6.72,6.72,0,0,0-1.43,4.53l0,11h-4.95l.05-21,4.65,0v4.47q2.3-4.91,7.12-4.9t6.1,4.93q2.58-4.9,7.11-4.9a6.68,6.68,0,0,1,4.95,1.91,6.42,6.42,0,0,1,1.87,4.71l0,14.86Z" transform="translate(-199.81 -76.23)"></path><path class="cls-1" d="M255.58,316.15H251a16.68,16.68,0,0,1-.73-4.25A7.92,7.92,0,0,1,238,314.7a6.08,6.08,0,0,1-1.92-4.63q0-7.24,12.89-7.22l1.37,0v-1.58q0-3.27-4.5-3.28t-5,3.26l-4.09-.61a6.13,6.13,0,0,1,2.76-4.32q2.4-1.68,6.95-1.68a16,16,0,0,1,4,.42,6.21,6.21,0,0,1,2.63,1.38,5.34,5.34,0,0,1,1.48,2.1,12.81,12.81,0,0,1,.4,3.85l0,9.49a15.34,15.34,0,0,0,.62,4.25Zm-5.28-10.71q-9.31,0-9.33,4.37a3,3,0,0,0,.93,2.24,3.88,3.88,0,0,0,2.83.93,5,5,0,0,0,4.15-1.71,6,6,0,0,0,1.41-3.9v-1.93Z" transform="translate(-199.81 -76.23)"></path><polygon class="cls-1" points="77.05 239.96 71.57 239.95 67.08 232.28 62.13 239.93 58 239.92 65.1 229.11 59 218.9 64.5 218.91 67.98 225.1 71.97 218.92 76 218.93 69.98 228.04 77.05 239.96 77.05 239.96"></polygon><path class="cls-1" d="M295.68,295.21l-8.34,23.93a8.19,8.19,0,0,1-2.08,3.42,5.29,5.29,0,0,1-3.72,1.21c-.64,0-1.56-.06-2.76-.16v-3.76l2.29,0a4,4,0,0,0,2.24-.48,3.29,3.29,0,0,0,1.16-1.74,8.53,8.53,0,0,0,.42-1.46,9.49,9.49,0,0,0-.43-1.29l-7.27-19.75h5l5.13,13.88,4.49-13.86Z" transform="translate(-199.81 -76.23)"></path><path class="cls-1" d="M330.59,316.32h-5l0-13.1q0-4.08-3.66-4.09a4.18,4.18,0,0,0-3.4,1.54,7,7,0,0,0-1.29,4.59l0,11h-5.1l0-13.1c0-2.76-1.14-4.15-3.43-4.15a4.44,4.44,0,0,0-3.51,1.66,6.72,6.72,0,0,0-1.43,4.53l0,11h-5l.05-21h4.66v4.48q2.29-4.92,7.12-4.9c3.13,0,5.16,1.65,6.09,4.93q2.6-4.92,7.12-4.9a6.64,6.64,0,0,1,4.95,1.91,6.44,6.44,0,0,1,1.86,4.7l0,14.87Z" transform="translate(-199.81 -76.23)"></path><path class="cls-1" d="M341.19,292.86h-4.81l0-4.94h4.8v4.94Zm-.05,23.48h-4.81l.05-21h4.8l0,21Z" transform="translate(-199.81 -76.23)"></path><path class="cls-1" d="M344.33,311.52l4.51-.84c.68,1.71,2.2,2.56,4.54,2.57q4.47,0,4.48-2.59a1.66,1.66,0,0,0-.7-1.38,3.78,3.78,0,0,0-1.64-.73l-3.87-.74q-6.45-1.24-6.44-6.24a6.29,6.29,0,0,1,2.06-4.73c1.37-1.3,3.39-1.94,6.09-1.94q6.75,0,8.23,4.92l-4.28.84c-.44-1.58-1.72-2.38-3.83-2.38q-3.84,0-3.84,2.36c0,1.1,1,1.86,3.1,2.28l4.56.95q5.34,1.1,5.32,6a5.71,5.71,0,0,1-2.75,5.2,12,12,0,0,1-6.51,1.7,12.47,12.47,0,0,1-5.78-1.32,6.2,6.2,0,0,1-3.25-4Z" transform="translate(-199.81 -76.23)"></path><path class="cls-1" d="M380.05,309.73l4.34.59a9,9,0,0,1-3.3,4.7,9.91,9.91,0,0,1-6.14,1.84,9.22,9.22,0,0,1-7.12-3,11.28,11.28,0,0,1-2.67-7.95,11.55,11.55,0,0,1,2.73-7.89,9.31,9.31,0,0,1,7.39-3.11,8.51,8.51,0,0,1,7,3.1,12.16,12.16,0,0,1,2.47,7.92l0,.54-14.6,0a11.92,11.92,0,0,0,.4,3.44,4.62,4.62,0,0,0,1.63,2.25,5.18,5.18,0,0,0,7.87-2.44Zm-.28-6.29a5.26,5.26,0,0,0-1.38-3.71,4.71,4.71,0,0,0-6.67-.11,6,6,0,0,0-1.56,3.8l9.61,0Z" transform="translate(-199.81 -76.23)"></path><path class="cls-1" d="M393.93,316.46h-4.8l0-21h4.35v5a9,9,0,0,1,2.55-4.29,5.25,5.25,0,0,1,3.34-1.34l.63,0v5.1q-3.67,0-4.87,2.3a10,10,0,0,0-1.2,4.48l0,9.74Z" transform="translate(-199.81 -76.23)"></path></g><path d="M415.12,291a4.53,4.53,0,0,1-1.38,3.32,4.46,4.46,0,0,1-3.3,1.37,4.7,4.7,0,0,1-3.31-8,4.58,4.58,0,0,1,3.34-1.38,4.69,4.69,0,0,1,4.65,4.72Zm-.83,0a3.87,3.87,0,0,0-1.13-2.78,3.61,3.61,0,0,0-2.69-1.17,3.71,3.71,0,0,0-2.75,1.15,3.87,3.87,0,0,0-1.13,2.79,3.82,3.82,0,0,0,1.13,2.8,3.76,3.76,0,0,0,5.42,0A3.88,3.88,0,0,0,414.29,291Zm-1.5,2.71h-1.21l-.88-2.19h-1.3v2.19h-1.16v-5.41h2.52a2.2,2.2,0,0,1,1.53.46,1.53,1.53,0,0,1-.5,2.58Zm-3.39-3.05h1.2c.67,0,1-.26,1-.77s-.31-.74-.93-.74h-1.27Z" transform="translate(-199.81 -76.23)"></path></g><g><path class="cls-2" d="M199.87,274.59v1.69h2.67A5,5,0,0,1,199.87,274.59Z" transform="translate(-199.81 -76.23)"></path><path class="cls-2" d="M390.46,95.53c2.4-.21,6.69-.64,9.86.26l.05-19.11-200.06-.45-.3,137a17.34,17.34,0,0,1,3.37-2.93c3.05-1.82,7-1.58,6.71,2.79-.57,4.65-3.89,9.07-7.86,11.49a6.18,6.18,0,0,1-2.25.76v3.75a11.4,11.4,0,0,1,2.12-1.61c3.39-1.79,6.92-.57,6.94,3.58A13.81,13.81,0,0,1,201.92,242a5.53,5.53,0,0,1-2,.53v3.8a10.5,10.5,0,0,1,2-1.41c3.6-1.59,6.88.44,7.17,4.35a11.09,11.09,0,0,1-6.36,10.12,4.85,4.85,0,0,1-2.89.17v5.13a7.42,7.42,0,0,1,3.18-2.42c3.73-1.22,6.87,1.29,7.4,5,.29,3.79-1.79,7.89-5.57,9l7.06,0h6.57a10.33,10.33,0,0,1,2.68-1.21,9.1,9.1,0,0,1,7.09,1.23H234c1.51-3.44,5.3-5.83,8.85-6.87,4.75-1.15,11.58-.23,12.33,5.65a7.62,7.62,0,0,1,0,1.27l144.8.33.15-66.36c-2.91-.69-5.18-2.35-5.64-5.65-.08-4,2.38-7.25,5.68-9.74v-7.86c-3.81-.3-7.17-1.75-7.81-5.63-.21-4.71,3.55-8.18,7.85-10.53v-5.45c-4.63.19-9.43-.78-10.29-5.2-.33-5.32,5.28-8.72,10.33-10.63V146c-5,.65-11.82.55-12.95-4.34-.49-6,8.13-8.94,13-10.09v-2.72c-4.1.76-14.22,2.24-15.67-3.26-.57-5.54,8.81-7.81,12.79-8.55.81-.13,1.82-.27,2.92-.37v-2.5c-1.43.35-2.75.58-3.52.73-3.65.55-13.36,2-14.85-2.82-.62-4.8,8.64-6.41,11.93-6.91a41.21,41.21,0,0,1,6.47-.39v-2.89a39.09,39.09,0,0,1-7,1.53c-3.3.39-12.47,1.76-14-2.39C378.69,96.92,387.81,95.84,390.46,95.53Zm-12.66,5.71c.61,4.35-9.48,6.3-12.47,7s-13.4,2.86-14.13-1.66c.15-4.66,9.38-6.42,12.86-7.11C367.19,98.87,376.37,97.11,377.8,101.24Zm-42.24,68.08c4.48-1.36,16.24-3.88,17,3.45-.14,7.69-10.68,12.35-16.8,14.42-4.18,1.25-16.89,3.94-16.79-3.63S329.66,171.33,335.56,169.32ZM304.2,140.87c-2.44.85-14.12,4.39-13.28-1.27.9-5.88,9.92-9.53,14.74-11.3,2.48-.84,14-4.24,13.63,1.15C318.88,135.36,308.8,139.14,304.2,140.87Zm31.26,9.1c4.05-1.19,15.51-3.89,16.28,2.8-.18,7.11-10.64,11.29-16.22,13.16-3.67,1.12-16.32,4.12-16.11-2.9S330,151.79,335.46,150Zm-15.34-5.21c.3-6.36,10.43-10.1,15.4-11.68,3.56-1,14.72-3.8,15.45,2.18-.2,6.45-10.51,10.09-15.5,11.73C332.3,147.93,319.82,151.08,320.12,144.76ZM362.6,90.84c2.84-.43,11.42-2,12.85,1.47.6,3.56-9.25,5.08-11.65,5.54s-12.54,2.52-13.24-1.26C350.74,92.6,359.66,91.35,362.6,90.84Zm-27,39.67c-2.71.78-14.92,3.93-14.56-1.62.35-5.71,10.25-8.86,14.71-10.2,3.12-.86,13.84-3.6,14.55,1.62C350.07,126.05,339.94,129.14,335.56,130.51Zm.41-23.82c2.72-.69,13-3.33,13.67,1.15-.22,5-10.1,7.56-13.92,8.68-2.25.63-14.12,3.65-13.69-1.08C322.46,110.38,332,107.78,336,106.69Zm-37.42-3.56c1.2-4.2,9.24-6.32,12.88-7.45,1.5-.45,11.85-3.16,11.4-.14-.6,4-9.81,6.31-13.05,7.36C308.36,103.36,297.63,106.32,298.55,103.13Zm-2.63,10.09c1.13-4.77,9.53-7.36,13.54-8.71,1.76-.55,12.6-3.62,12.13.2-.54,4.61-10.1,7.4-13.74,8.67C306.15,113.92,295,117.23,295.92,113.22Zm-2.57,12.11c1-5.33,9.76-8.46,14.16-10,2.09-.68,13.32-4,12.9.65-.51,5.23-10.34,8.53-14.46,10C303.93,126.66,292.43,130.18,293.35,125.33Zm-27,12.3c1.68-5.44,8.82-8.86,13.65-10.94,1.86-.75,12.53-4.44,11.61.34-1.05,5.45-9.69,9.14-14.18,11.11C275.34,139,265.39,142.69,266.34,137.63Zm-3.35,15c1.49-5.9,8.82-9.77,13.93-12,2.28-.94,13-4.59,12.2.92-.9,6-9.68,10.13-14.56,12.27C272,154.84,262.18,158.31,263,152.63Zm23.9,5.62c-.73,6.44-9.57,11-14.81,13.28-3,1.23-12.65,4.23-12.05-1.94,1.27-6.32,8.69-10.58,14.09-13C276.88,155.5,287.6,152.13,286.89,158.25ZM238.43,166c1.46-5.64,7.57-9.71,12.43-12.24,2.37-1.13,11.2-4.54,10.41.93-1.45,5.81-8.24,10-13.23,12.57C245.56,168.38,237.5,171.39,238.43,166Zm-3.19,16.94c1.21-5.89,7.26-10.28,12.29-12.83,2.85-1.36,11.37-4.19,10.81,1.69-1.21,6.11-8,10.65-13.15,13.22C242.21,186.32,234.57,188.65,235.24,182.89Zm-21.11,11.69c1-5.25,5.63-9.59,10-12.21,2.76-1.51,9.23-3.52,8.61,1.79-1.11,5.47-6.25,10-10.9,12.63C219,198.31,213.55,199.59,214.13,194.58Zm-3.21,54c0-5,3.76-9.29,8.12-11.31,4-1.59,9.15-.79,9.4,4.33-.16,5.26-4.38,9.81-9.09,11.65C215.43,254.53,211.24,253.13,210.92,248.54Zm0-18.39c.31-5.21,4.41-9.62,8.84-11.94,3.67-1.71,9.19-1.79,9.13,3.52-.46,5.42-5.05,10.09-9.78,12.31C215.39,235.57,210.89,234.94,210.89,230.15Zm10,41.9c-4.05,1-8.07-.94-8.68-5.31-.32-4.73,3.13-8.75,7.37-10.35,4.22-1.35,9.1.15,9.62,5.06C229.29,266.41,225.42,270.67,220.84,272.05Zm-.89-57c-3.32,1.56-8.26,1.88-8-3.07.69-5.3,5.07-9.72,9.53-12.24,3.22-1.66,9.21-2.71,8.86,2.66C229.57,208,224.67,212.6,220,215.09Zm22.61,51c-4.5,1.13-10.51.2-11.09-5.35-.13-5.83,5.24-10.13,10.26-11.94,4.58-1.44,11.66-1.11,12.15,5C253.84,259.93,247.92,264.44,242.56,266.08ZM230.8,240.66c.21-6,5.8-10.58,10.94-12.75,4.3-1.58,11.68-2,11.89,4.25-.36,6.32-6.51,11.09-12,13.12C237.37,246.68,231.06,246.42,230.8,240.66Zm11-16.2c-3.92,1.49-10.62,2.06-10.57-3.82.56-6.1,6.34-10.75,11.53-13.13,3.87-1.63,11.63-2.87,11.57,3.4C253.71,217.27,247.31,222.13,241.85,224.46Zm1.22-20.28c-3.48,1.46-10.65,2.94-10.29-3,.92-6,6.87-10.65,12-13.15,3.38-1.52,11.53-3.62,11.17,2.52C255.05,196.91,248.44,201.67,243.07,204.18Zm25.35,30.13c-4.51,1.44-13.06,2.28-13.27-4.49.43-6.91,7.78-11.7,13.61-14,4.26-1.49,14.36-3,14.24,4.1S274.29,232.21,268.42,234.31Zm15.3-36.49c-.35,7-9.07,12.13-14.82,14.4-4.09,1.44-13,3.06-12.94-3.67.75-6.83,8.16-11.59,13.93-14C273.69,193.11,284.05,190.84,283.72,197.82Zm1.34-20.71c-.55,6.78-9.37,11.69-14.89,14-3.59,1.38-12.89,3.76-12.54-2.78,1-6.63,8.49-11.22,14.1-13.67C275,173.37,285.6,170.48,285.06,177.11Zm15.59,21.8c-4,1.32-15.45,3.77-15.09-3.53s9.86-12.19,15.74-14.41c3.95-1.34,15.87-4.06,15.73,3.24C316.91,191.69,306.59,196.74,300.65,198.91Zm.81-21.38c-3.48,1.19-15.11,4.17-14.55-2.74s10-11.48,15.55-13.61c3.43-1.21,15.31-4.29,15.08,2.48C317.31,170.7,307,175.43,301.46,177.53Zm1.21-19.43c-2.93,1-14.65,4.36-13.92-2s10-10.57,15.18-12.54c3-1,14.71-4.36,14.38,1.77C318,151.87,307.77,156.16,302.67,158.1Zm33.13,32.81c4.93-1.47,16.88-3.75,17.65,4.07-.16,8.14-10.76,13.13-17.31,15.31-4.61,1.37-17.3,3.65-17.33-4.29S329.55,193,335.8,190.91Zm.94,43.72c-4.95,1.41-17.56,3.28-17.7-4.86s10.76-13.36,17.19-15.49c5.25-1.54,17.34-3.54,18.11,4.64C354.19,227.33,343.57,232.46,336.74,234.63Zm51.2-73.8c.44,7.4-10.22,11.62-15.89,13.37-4.66,1.28-16.74,3.61-17.56-3.81.13-7.39,10.26-11.56,16.16-13.31C375.36,155.83,386.63,153.87,387.94,160.83Zm-2.51-18.76c.51,6.71-10,10.32-15.06,11.79-4.19,1.1-16,3.55-16.8-3.21.13-6.77,10.05-10.33,15.37-11.8C373.24,137.78,384.05,135.78,385.43,142.07Zm-2.58-16.15c.56,6-9.89,9-14.2,10.14-3.71.9-15.16,3.38-15.95-2.65.12-6.08,9.86-9,14.55-10.2C371.13,122.33,381.44,120.36,382.85,125.92Zm-2.56-13.54c.59,5.14-9.71,7.58-13.33,8.47-3.28.73-14.3,3.15-15-2.11.13-5.36,9.6-7.69,13.69-8.6C369.1,109.43,378.85,107.55,380.29,112.38Z" transform="translate(-199.81 -76.23)"></path></g></g></g></svg> 