<?xml version="1.0" encoding="UTF-8"?> <svg xmlns="http://www.w3.org/2000/svg" viewBox="0 0 402.82 57.78"><defs><style> .cls-1 { fill: #231f20; } </style></defs><g id="Everseen"><g><path class="cls-1" d="M125.64,228.72c-13.43,0-25.42-6.93-26.88-24.8-2.16-26.38,17.11-32.64,26.27-32.64,9.6,0,24.52,4.39,25.05,21.5.27,8.73-3.62,11.33-16.38,11.33H122.27c-2.5,0-4.4-.41-4.46-4.64s1.45-4.63,4.31-4.63h10.29c4.16,0,5.41-1.93,5.23-4.19-.33-4-3.81-9-12.42-9S109.82,188.78,111,203s10.85,15.29,14.59,15.29c4.77,0,9.63-1.17,13.58-6.38a2.18,2.18,0,0,1,3.11-.69l4.46,2.79a2.42,2.42,0,0,1,1,3.19C145.9,220.81,139.05,228.72,125.64,228.72Z" transform="translate(-98.59 -171.11)"></path><path class="cls-1" d="M160.66,173a1,1,0,0,1,.94.57l15.12,31.78,14.93-31.7a1.14,1.14,0,0,1,1-.65h10.65a1,1,0,0,1,.85.44,1,1,0,0,1,.06,1l-25,51.11a2.9,2.9,0,0,1-2.83,1.61,2.75,2.75,0,0,1-2.34-1.55l-25-51.1a1,1,0,0,1,.05-1,1.14,1.14,0,0,1,1-.54Z" transform="translate(-98.59 -171.11)"></path><path class="cls-1" d="M229.81,228.72c-13.42,0-25.42-6.93-26.88-24.8-2.15-26.38,17.12-32.64,26.28-32.64,9.6,0,24.51,4.39,25,21.5.27,8.73-3.62,11.33-16.38,11.33H226.45c-2.5,0-4.4-.41-4.46-4.64s1.45-4.63,4.31-4.63h10.29c4.16,0,5.41-1.93,5.23-4.19-.33-4-3.81-9-12.43-9S214,188.78,215.16,203s10.85,15.29,14.59,15.29c4.77,0,9.63-1.17,13.58-6.38a2.18,2.18,0,0,1,3.11-.69L250.9,214a2.43,2.43,0,0,1,1,3.19C250.08,220.81,243.23,228.72,229.81,228.72Z" transform="translate(-98.59 -171.11)"></path><path class="cls-1" d="M261.13,174.14a1.15,1.15,0,0,1,1.13-1.14h6.3c.68,0,1.39.77,1.91,1.42l2.85,3.88.48-.51a24,24,0,0,1,6.13-5,13.8,13.8,0,0,1,6.35-1.36,19.08,19.08,0,0,1,8.74,2.36,2.48,2.48,0,0,1,1.25,3.12l-2.95,6.81a2.19,2.19,0,0,1-3,1,12.24,12.24,0,0,0-6.5-2.08c-7.32,0-11,5.52-11,16.4V225a2.3,2.3,0,0,1-2.31,2.31h-7a2.33,2.33,0,0,1-2.33-2.31Z" transform="translate(-98.59 -171.11)"></path><path class="cls-1" d="M327.26,186.93a2.3,2.3,0,0,1-3.21-.69c-1.78-2.15-4.31-5-8.62-5s-5.94,2.83-6.12,4.68a5.32,5.32,0,0,0,2.58,5.41c2.38,1.52,7.18,3.57,12.49,6.23s10.25,7,9.34,16.18-7.76,15.18-19,15.18-16.93-9.12-17.82-10.42a2.19,2.19,0,0,1,.53-3.18c.88-.57,3.82-2.62,4.61-3.16a2.36,2.36,0,0,1,3.21.7c2.91,3.58,5.88,5.48,9.33,5.48s5.59-1.35,6.59-3.48a5.86,5.86,0,0,0-2.53-7.82c-3.65-2.11-8.49-4.1-12.69-6.47-4.61-2.6-8.52-6.76-7.39-15.49s7.48-13.94,18-13.94a17.36,17.36,0,0,1,15.73,9.32c1,1.78.59,2.63-.45,3.35C331.88,183.78,328.42,186.15,327.26,186.93Z" transform="translate(-98.59 -171.11)"></path><path class="cls-1" d="M366.14,228.72c-13.42,0-25.42-6.93-26.88-24.8-2.16-26.38,17.11-32.64,26.27-32.64,9.6,0,24.52,4.39,25.05,21.5.28,8.73-3.62,11.33-16.38,11.33H362.78c-2.51,0-4.4-.41-4.47-4.64s1.46-4.63,4.32-4.63h10.28c4.17,0,5.42-1.93,5.24-4.19-.34-4-3.82-9-12.43-9s-15.4,7.14-14.24,21.34,10.86,15.29,14.6,15.29c4.76,0,9.62-1.17,13.58-6.38a2.17,2.17,0,0,1,3.1-.69l4.47,2.79a2.44,2.44,0,0,1,1,3.19C386.4,220.81,379.56,228.72,366.14,228.72Z" transform="translate(-98.59 -171.11)"></path><path class="cls-1" d="M424,228.72c-13.42,0-25.42-6.93-26.88-24.8-2.16-26.38,17.11-32.64,26.27-32.64,9.6,0,24.52,4.39,25.05,21.5.27,8.73-3.62,11.33-16.38,11.33H420.64c-2.5,0-4.39-.41-4.46-4.64s1.45-4.63,4.31-4.63h10.29c4.17,0,5.42-1.93,5.23-4.19-.33-4-3.81-9-12.42-9s-15.4,7.14-14.24,21.34,10.86,15.29,14.6,15.29c4.76,0,9.62-1.17,13.57-6.38a2.18,2.18,0,0,1,3.11-.69l4.46,2.79a2.43,2.43,0,0,1,1,3.19C444.27,220.81,437.43,228.72,424,228.72Z" transform="translate(-98.59 -171.11)"></path><path class="cls-1" d="M501.35,225a2.29,2.29,0,0,1-2.3,2.31h-7a2.32,2.32,0,0,1-2.32-2.31V197c0-5.66-.78-9.5-2.39-11.71s-4.52-3.48-8.64-3.48c-4.44,0-7.65,1.51-9.53,4.47s-2.71,7.75-2.71,14.84L466.42,225a2.29,2.29,0,0,1-2.3,2.31h-7a2.32,2.32,0,0,1-2.32-2.31V174.13a1.15,1.15,0,0,1,1.13-1.13h6.31a2.62,2.62,0,0,1,1.91,1.41l2.88,4.06.49-.5c4.36-4.31,9.33-6.5,14.77-6.5,6.24,0,11.16,2,14.62,5.87,3,3.32,4.5,8.87,4.5,16.5Z" transform="translate(-98.59 -171.11)"></path></g></g></svg> 