<?xml version="1.0" encoding="UTF-8"?><svg id="Layer_1" xmlns="http://www.w3.org/2000/svg" width="934" height="324" viewBox="0 0 934 324"><defs><style>.cls-1{fill:#fff;}</style></defs><path class="cls-1" d="m19.26,149.38H0v-49.17h19.26v-22.94C19.26,26.46,45.89,3.52,96.26,3.52c15.16,0,31.55,2.45,43.43,6.55l-9.39,47.93c-6.15-1.64-17.21-2.46-24.18-2.46-18,0-24.58,8.2-24.58,24.59v20.07h45.46v49.17h-45.46v163.9H19.26v-163.89Z"/><path class="cls-1" d="m194.22,74.81c-20.9,0-36.47-10.24-36.47-33.19s15.57-34,36.47-34,37.29,10.66,37.29,34c0,22.95-16.39,33.19-37.29,33.19Zm31.55,25.4v213.07h-62.28V100.21h62.28Z"/><path class="cls-1" d="m247.89,100.21h66l38.93,133.17,37.28-133.17h65.56l-76.66,213.07h-54.9l-76.21-213.07Z"/><path class="cls-1" d="m559.71,317.38c-57,0-91.78-33.19-91.78-87.69v-45.48c0-54.49,34.82-88.09,91.78-88.09s92.19,33.6,92.19,88.09v42.62h-121.69v2.86c0,25.82,11.47,35.65,30.73,35.65,24.58,0,40.15-6.55,61.46-17.21l22.12,42.62c-24.58,16.8-50.39,26.63-84.81,26.63Zm29.91-130.71v-2c0-24.17-9-36.47-29.91-36.47-19.26,0-30.73,11.07-30.73,36.47v2h60.64Z"/></svg>