<?xml version="1.0" encoding="UTF-8"?><svg id="Layer_1" xmlns="http://www.w3.org/2000/svg" width="934" height="324" viewBox="0 0 934 324"><defs><style>.cls-1{fill:#fff;}</style></defs><path class="cls-1" d="m233.54,149.38h-19.26v-49.17h19.26v-22.94c0-50.81,26.63-73.75,77-73.75,15.16,0,31.55,2.45,43.43,6.55l-9.39,47.93c-6.15-1.64-17.21-2.46-24.18-2.46-18,0-24.58,8.2-24.58,24.59v20.07h45.48v49.17h-45.48v163.9h-62.28v-163.89Z"/><path class="cls-1" d="m364.66,183.8c0-54.49,34.83-87.68,91.78-87.68s92.19,33.19,92.19,87.68v45.89c.41,54.5-35.24,87.69-92.19,87.69s-91.78-33.19-91.78-87.69v-45.89Zm62.28,41.39c-.41,25.81,10.24,39.33,29.5,39.33s30.32-13.52,29.91-39.33v-36.88c0-25.81-10.65-39.34-29.91-39.34s-29.5,13.53-29.5,39.34v36.88Z"/><path class="cls-1" d="m653.12,317.38c-49.58,0-64.33-29.91-64.33-84.41V100.21h62.28v128.25c0,25.82,4.92,36.06,20.49,36.06,14.34,0,27-7.78,32.37-19.67V100.21h62.28v213.07h-54.5l-4.51-17.62c-14.75,13.52-36.87,21.72-54.08,21.72Z"/><path class="cls-1" d="m809.23,100.21h54.49l5.33,22.13c12.7-13.11,38.93-26.22,59.82-26.22l4.92,56.54c-24.17,0-47.12,7.79-62.28,20.08v140.54h-62.28V100.21Z"/></svg>