<?xml version="1.0" encoding="UTF-8"?><svg id="Layer_1" xmlns="http://www.w3.org/2000/svg" width="100" height="18.02" viewBox="0 0 100 18.02"><defs><style>.cls-1{fill:#231f20;}.cls-1,.cls-2{stroke-width:0px;}.cls-2{fill:#006a55;}</style></defs><path class="cls-2" d="m16.09,0h-7.07c-.94,0-1.7.76-1.7,1.7,0,0,0,0,0,0h0v12.28c0,.38-.3.68-.68.68h-2.83c-.37,0-.68-.3-.68-.68,0,0,0,0,0,0v-2.84c0-.37.3-.68.68-.68h2.98v-3.14H1.7C.76,7.32,0,8.09,0,9.02h0v7.07c0,.94.76,1.7,1.7,1.7,0,0,0,0,0,0h7.05c.95,0,1.71-.77,1.72-1.71V3.82c0-.38.3-.68.68-.68h2.84c.37,0,.68.3.68.68h0v2.83c0,.38-.3.68-.68.68h-2.99v3.14h5.1c.94,0,1.7-.76,1.7-1.7h0V1.7c0-.94-.76-1.7-1.7-1.7"/><path class="cls-1" d="m67.25,17.78h-1.51c0-1.19-.08-2.92-.25-5.18-.17-2.26-.25-3.61-.26-4.06h-.07c-.54,1.74-1.22,3.63-2.04,5.67-.82,2.04-1.23,3.23-1.23,3.57h-1.09c0-.38-.38-1.59-1.15-3.64-.77-2.05-1.25-3.43-1.45-4.12-.2-.7-.34-1.19-.42-1.48h-.09c-.02.73-.12,2.21-.32,4.44-.2,2.23-.29,3.83-.29,4.8h-1.38c0-.05.18-1.53.55-4.43s.55-4.91.55-6.03h2.11c0,.59.43,2.07,1.28,4.43.86,2.36,1.28,3.79,1.29,4.28h.08c0-.5.48-1.93,1.44-4.29s1.44-3.83,1.44-4.4h2.06c0,1.13.12,3.13.37,6.01.25,2.87.37,4.36.37,4.44"/><path class="cls-1" d="m74.8,17.78l-1.24.05c-.07-.24-.11-.49-.11-.74h-.08c-.73.61-1.65.93-2.59.9-.93,0-1.61-.22-2.02-.67-.41-.45-.63-1.35-.63-2.7,0-.19,0-.48.02-.86s.02-.64.02-.78c0-.79-.05-1.71-.14-2.78l1.49-.06c-.06,1.03-.09,1.91-.1,2.65,0,1.69.11,2.79.33,3.3s.71.77,1.47.77c.76.03,1.51-.2,2.12-.64,0-2.97-.03-4.98-.08-6.01h1.44c-.04,1.01-.06,2.33-.06,4.12,0,1.16.05,2.31.17,3.46"/><path class="cls-1" d="m80.34,16.68l-.1,1.04c-.38.15-.79.23-1.2.23-.96,0-1.62-.24-1.98-.73s-.53-1.37-.53-2.63v-3.32c-.3,0-.19.02-1.31.05l-.07-1.12c1.06,0,1.07.02,1.48.02,0-.32.03-.98.08-2.19l1.26-.13c-.09,1.13-.14,1.81-.14,2.3.52,0,1.3-.03,2.31-.08l-.06,1.2c-.96-.03-1.74-.05-2.33-.05v2.85c0,1.1.12,1.83.35,2.19s.66.54,1.3.53c.32-.02.63-.07.93-.16"/><path class="cls-1" d="m87.69,17.78l-1.24.05c-.07-.24-.1-.49-.11-.74h-.08c-.73.61-1.65.93-2.59.9-.93,0-1.61-.22-2.02-.67s-.63-1.35-.63-2.7c0-.19,0-.48.02-.86s.02-.64.02-.78c0-.79-.05-1.71-.14-2.78l1.49-.06c-.07,1.03-.1,1.91-.1,2.65,0,1.69.11,2.79.33,3.3.22.51.71.77,1.47.77.76.03,1.51-.2,2.12-.64,0-2.97-.03-4.98-.08-6.01l1.44-.06c-.04,1-.06,2.4-.06,4.18,0,1.16.06,2.31.18,3.46"/><path class="cls-1" d="m93.38,16.23c-.03-.81-.04-1.54-.04-2.19-.77-.02-1.54.06-2.29.23-.88.27-1.32.78-1.32,1.53,0,.73.51,1.09,1.54,1.09.88,0,1.59-.22,2.11-.66m1.42,1.56l-1.26.05c-.06-.24-.1-.49-.1-.75h-.08c-.66.6-1.56.9-2.69.9-.58.01-1.14-.18-1.59-.54-.46-.38-.7-.95-.67-1.54-.02-.8.38-1.55,1.04-1.99.7-.5,1.99-.76,3.88-.79.02-.15.03-.29.03-.44,0-.66-.18-1.1-.53-1.32-.49-.25-1.04-.37-1.59-.34-.84,0-1.67.1-2.48.31l.14-1.11c.9-.24,1.84-.36,2.77-.34.95,0,1.69.2,2.21.59.52.39.78,1.06.78,2.01,0,.25-.01.71-.04,1.37-.03.66-.04,1.1-.03,1.32,0,.87.06,1.74.22,2.6"/><path class="cls-1" d="m97.29,17.78h-1.54c.09-1.77.14-3.76.14-5.99.02-1.77-.06-3.54-.23-5.31l1.63-.08c-.1,1.46-.14,3.25-.14,5.39s.05,4.2.15,5.99"/><path class="cls-1" d="m99.13,16.57c0-.12-.07-.17-.23-.17-.05,0-.1,0-.14,0v.37h.08c.19,0,.28-.07.28-.2m.33.81h-.26c-.04-.13-.09-.26-.16-.38-.04-.05-.11-.08-.17-.07h-.1v.47h-.23c0-.18.01-.38.01-.6s0-.39-.01-.54h.42c.27,0,.4.09.4.27,0,.14-.09.27-.23.31h0c.07.02.12.07.15.14.07.13.13.27.18.41m.39-.54c0-.5-.41-.91-.91-.9s-.91.41-.9.91c0,.5.41.91.91.9.24,0,.47-.1.64-.27.17-.17.27-.4.27-.64m.17,0c0,.58-.47,1.06-1.05,1.07-.28,0-.56-.11-.76-.31-.21-.2-.32-.47-.31-.75.03-.59.53-1.05,1.12-1.02.55.03.99.47,1.02,1.02h0"/><path class="cls-1" d="m27.82,10.51c0-1.14-.76-1.72-2.28-1.72-.4,0-.81.04-1.2.12.06,1.01.09,2.16.09,3.44.14,0,.29.02.47.02,1.96,0,2.93-.62,2.93-1.86m2.07-.44c0,1.28-.48,2.22-1.43,2.84-.95.61-2.12.92-3.49.92-.18,0-.36,0-.54-.02,0,1.01.03,2.33.09,3.98h-2.26c.07-1.55.1-3.38.1-5.47,0-1.93-.03-3.59-.1-4.99h1.4c.2,0,.58,0,1.14-.02s1.05-.02,1.46-.02c.91-.03,1.81.22,2.58.7.7.47,1.05,1.16,1.05,2.1"/><path class="cls-1" d="m35.33,13.08c0-1.23-.52-1.85-1.57-1.85-1,0-1.59.64-1.78,1.91l3.35-.07Zm1.88.07c0,.27-.02.63-.05,1.07l-5.17.09c.06.58.34,1.12.78,1.51.48.42,1.11.63,1.75.6.87,0,1.73-.13,2.56-.36l-.16,1.56c-.89.29-1.82.43-2.75.4-1.38,0-2.44-.39-3.18-1.16-.72-.75-1.12-1.75-1.1-2.8-.02-1.08.35-2.14,1.05-2.97.7-.84,1.67-1.26,2.91-1.26,1.13,0,1.98.31,2.53.93.57.66.86,1.51.82,2.39"/><path class="cls-1" d="m45.41,17.78h-2.14c.12-1.35.18-2.72.18-4.11,0-.84-.12-1.4-.37-1.71-.29-.32-.71-.48-1.14-.45-.63,0-1.24.23-1.74.63.03,2.09.04,3.97.04,5.65h-2.07c.1-1.68.14-2.33.14-3.29,0-1.28-.1-3.16-.36-4.3l1.94-.21.14.85h.13c.7-.62,1.6-.95,2.53-.95.71-.04,1.41.17,1.99.59.5.39.74,1.11.74,2.15,0,.16,0,.36-.02.62s-.02.53-.02.8c0,.72.01,1.97.04,3.74"/><path class="cls-1" d="m53.6,17.78h-2.14c.12-1.35.18-2.72.18-4.11,0-.84-.12-1.4-.37-1.71-.29-.32-.71-.48-1.13-.45-.63,0-1.24.23-1.74.63.03,2.09.04,3.97.04,5.65h-2.07c.1-1.68.14-2.33.14-3.29,0-1.28-.1-3.16-.36-4.3l1.94-.21.14.85h.13c.7-.62,1.6-.95,2.53-.95.71-.03,1.41.17,1.98.59.5.39.74,1.11.74,2.15,0,.16,0,.36-.02.62s-.02.53-.02.8c0,.72.01,1.97.04,3.74"/></svg>