<?xml version="1.0" encoding="UTF-8"?><svg id="Layer_1" xmlns="http://www.w3.org/2000/svg" width="934" height="324" viewBox="0 0 934 324"><defs><style>.cls-1{fill:#fff;}</style></defs><path class="cls-1" d="m0,183.8c0-54.49,34.83-87.68,91.78-87.68s92.22,33.19,92.22,87.68v45.89c.4,54.5-35.24,87.69-92.2,87.69S0,284.19,0,229.69v-45.89Zm62.28,41.39c-.41,25.81,10.24,39.33,29.5,39.33s30.32-13.52,29.91-39.33v-36.88c0-25.81-10.69-39.31-29.91-39.31s-29.5,13.53-29.5,39.34v36.85Z"/><path class="cls-1" d="m225.36,100.21h54.5l4.5,17.62c12.3-12.29,34.42-21.71,54.09-21.71,50,0,67.61,29.5,67.61,77.44v139.72h-62.28v-134.39c0-19.26-6.15-27.87-23.77-27.87-11.47,0-23.76,7.38-32.37,17.62v144.64h-62.28V100.21Z"/><path class="cls-1" d="m539.23,317.38c-57,0-91.79-33.19-91.79-87.69v-45.48c0-54.49,34.83-88.09,91.79-88.09s92.19,33.6,92.19,88.09v42.62h-121.7v2.86c0,25.82,11.48,35.65,30.74,35.65,24.58,0,40.15-6.55,61.46-17.21l22.08,42.62c-24.54,16.8-50.36,26.63-84.77,26.63Zm29.91-130.71v-2c0-24.17-9-36.47-29.91-36.47-19.26,0-30.74,11.07-30.74,36.47v2h60.65Z"/></svg>