<?xml version="1.0" encoding="UTF-8"?><svg id="Layer_1" xmlns="http://www.w3.org/2000/svg" width="934" height="324" viewBox="0 0 934 324"><defs><style>.cls-1{fill:#fff;}</style></defs><path class="cls-1" d="m19.26,149.38H0v-49.17h22.54l9.83-40.56h49.17v40.56h51.63v49.17h-51.63v86.05c0,21.72,5.33,29.91,23.35,29.91,7.3-.14,14.57-.96,21.72-2.46l9,48.76c-14.61,3.57-29.57,5.49-44.61,5.74-54.49,0-71.7-22.95-71.7-77.44l-.04-90.56Z"/><path class="cls-1" d="m160.21,6h62.28v109.79c11.06-11.07,32-19.67,50.81-19.67,52,0,67.61,29.5,67.61,77.44v139.72h-62.28v-134.39c0-19.26-6.56-27.87-24.18-27.87-11.47,0-22.94,6.56-32,16v146.26h-62.24V6Z"/><path class="cls-1" d="m384.34,100.21h54.5l5.32,22.13c12.71-13.11,38.93-26.22,59.83-26.22l4.91,56.54c-24.17,0-47.12,7.79-62.28,20.08v140.54h-62.28V100.21Z"/><path class="cls-1" d="m616.26,317.38c-57,0-91.78-33.19-91.78-87.69v-45.48c0-54.49,34.82-88.09,91.78-88.09s92.19,33.6,92.19,88.09v42.62h-121.69v2.86c0,25.82,11.47,35.65,30.73,35.65,24.58,0,40.15-6.55,61.46-17.21l22.13,42.62c-24.59,16.8-50.4,26.63-84.82,26.63Zm29.91-130.71v-2c0-24.17-9-36.47-29.91-36.47-19.26,0-30.73,11.07-30.73,36.47v2h60.64Z"/><path class="cls-1" d="m838.75,317.38c-57,0-91.78-33.19-91.78-87.69v-45.48c0-54.49,34.83-88.09,91.78-88.09s92.19,33.6,92.19,88.09v42.62h-121.69v2.86c0,25.82,11.47,35.65,30.73,35.65,24.59,0,40.16-6.55,61.46-17.21l22.13,42.62c-24.57,16.8-50.4,26.63-84.82,26.63Zm29.91-130.71v-2c0-24.17-9-36.47-29.91-36.47-19.26,0-30.73,11.07-30.73,36.47v2h60.64Z"/></svg>