<?xml version="1.0" encoding="UTF-8"?><svg id="Layer_1" xmlns="http://www.w3.org/2000/svg" width="934" height="324" viewBox="0 0 934 324"><defs><style>.cls-1{fill:#fff;}</style></defs><path class="cls-1" d="m312.82,149.38h-19.26v-49.17h22.54l9.83-40.56h49.17v40.56h51.63v49.17h-51.63v86.05c0,21.72,5.33,29.91,23.36,29.91,7.3-.14,14.57-.96,21.71-2.46l9,48.76c-14.63,3.57-29.61,5.5-44.66,5.74-54.5,0-71.71-22.95-71.71-77.44l.02-90.56Z"/><path class="cls-1" d="m591.86,242.4l-26.23,70.88h-54.9l-70.48-213.07h66l33.19,133.17,26.56-73.75-18.4-59.42h66l29.09,133.17,31.56-133.17h65.55l-70.91,213.07h-54.89l-22.14-70.88Z"/><path class="cls-1" d="m750,183.8c0-54.49,34.83-87.68,91.78-87.68s92.22,33.19,92.22,87.68v45.89c.41,54.5-35.24,87.69-92.2,87.69s-91.8-33.19-91.8-87.69v-45.89Zm62.28,41.39c-.41,25.81,10.25,39.33,29.5,39.33s30.33-13.52,29.92-39.33v-36.88c0-25.81-10.66-39.34-29.92-39.34s-29.5,13.53-29.5,39.34v36.88Z"/></svg>