<?xml version="1.0" encoding="UTF-8"?> <svg xmlns="http://www.w3.org/2000/svg" id="Layer_1" data-name="Layer 1" viewBox="0 0 600 400"><defs><style> .cls-1 { fill: #fff; fill-rule: evenodd; } </style></defs><g><path class="cls-1" d="M144.75,229.93a18.69,18.69,0,0,1-18.69-18.69h37.38a18.68,18.68,0,0,1-18.69,18.69ZM103,188.16a11.53,11.53,0,0,0-11.55,11.53v0h23.08A11.54,11.54,0,0,0,103,188.16h0m83.64,0a11.55,11.55,0,0,0-11.54,11.54h23.08a11.54,11.54,0,0,0-11.54-11.54m-41.86-55a7.15,7.15,0,1,0,0-14.3h0a7.15,7.15,0,0,0,0,14.3"></path><path class="cls-1" d="M214,239.58a12.9,12.9,0,0,1-9,4.31c-14.43.67-36.58,1.47-60.18,1.47s-45.75-.8-60.17-1.47a12.93,12.93,0,0,1-12.3-13.76c.76-11.54,1.79-21.75,3-30.36C77.22,187,80.05,174,82.09,165.38a12.83,12.83,0,0,1,11.75-9.91c10.47-.65,27.79-1.43,50.91-1.43s40.45.78,50.91,1.43a12.83,12.83,0,0,1,11.75,9.91c2.05,8.64,4.88,21.61,6.76,34.39,1.27,8.61,2.3,18.82,3.06,30.36a12.85,12.85,0,0,1-3.25,9.45m11.61-41.5c-2-13.17-4.85-26.5-6.94-35.36A24.32,24.32,0,0,0,196.38,144c-10.63-.66-28.21-1.45-51.63-1.45s-41,.79-51.62,1.45a24.31,24.31,0,0,0-22.27,18.77c-2.1,8.86-5,22.18-6.94,35.36-1.32,8.92-2.38,19.44-3.16,31.3a24.45,24.45,0,0,0,23.28,26c14.55.69,36.89,1.5,60.71,1.5s46.17-.82,60.72-1.5a24.45,24.45,0,0,0,23.27-26c-.78-11.86-1.84-22.38-3.15-31.3m72.52,8.72c0-7.75-5.33-13.07-11.62-13.07s-11.63,5.32-11.63,13.07,5.33,13.08,11.62,13.08,11.63-5.33,11.63-13.08m13.56,0c0,14-10.66,24.7-22.77,24.7a18.06,18.06,0,0,1-14-6.78v5.81H261.78v-67.8h13.08v26.15a18.06,18.06,0,0,1,14-6.78c12.11,0,22.77,10.66,22.77,24.7m10.17,23.74h13.07V183.07H321.84Zm6.29-53.77a7.27,7.27,0,1,1,0-14.53c4.84,0,7.74,2.91,7.74,7.27s-2.9,7.27-7.75,7.27ZM353.8,169h11.63v15h9.68v11.62h-9.68v18.89a5.49,5.49,0,0,0,5.81,5.33,11.75,11.75,0,0,0,4.84-1v11.14a27.39,27.39,0,0,1-8.72,1.46c-9.68,0-15-5.33-15-16.48V195.66h-8.23V184h4.35c2.91,0,5.33-2.42,5.33-6.3Zm62,26.64a15.27,15.27,0,0,0-4.35-.48c-6.78,0-11.14,4.36-11.14,12.59v22.76H387.22V183.07H400.3v5.81a18,18,0,0,1,13.56-6.29h1.93Zm7.75,34.88h13.08V183.07H423.54Zm6.3-53.77a7.27,7.27,0,1,1,0-14.53c4.84,0,7.75,2.91,7.75,7.27s-2.91,7.27-7.75,7.27Zm46,20.34a10.47,10.47,0,0,0-7.75-3.87c-3.87,0-5.81,1.94-5.81,3.87,0,6.79,21.79,3.4,21.79,19.38,0,8.23-6.78,15-18.88,15-13.57,0-19.38-8.72-19.38-8.72l7.27-7.26s3.87,5.33,10.17,5.33c4.36,0,6.29-1.94,6.29-4.36,0-7.27-21.79-3.68-21.79-19.38,0-7.26,7.75-15,18.4-15,11.14,0,16.47,7.27,16.47,7.27l-6.78,7.74ZM504.42,202h21.8a10.53,10.53,0,0,0-10.66-8.72C509.75,193.24,505.88,197.11,504.42,202Zm0,9.2c1,4.85,5.33,9.2,12.6,9.2a16.44,16.44,0,0,0,12.59-5.81l6.78,8.72a28.41,28.41,0,0,1-20.34,8.23,24.7,24.7,0,1,1-.49-49.4c13.57,0,23.74,10.17,23.74,23.73a24,24,0,0,1-.49,5.33Z"></path></g></svg> 