<?xml version="1.0" encoding="UTF-8"?> <svg xmlns="http://www.w3.org/2000/svg" id="Layer_1" data-name="Layer 1" viewBox="0 0 299 50.04"><defs><style> .cls-1 { fill: #3a357e; } </style></defs><g><path class="cls-1" d="M44,13.08s0-.06,0-.09l-.06-.1a4.4,4.4,0,0,0-1.58-1.54L24.49,1.08a4.44,4.44,0,0,0-4.46,0L2.23,11.35A4.4,4.4,0,0,0,.65,12.89s0,.06-.06.09a.49.49,0,0,0,0,.11A4.43,4.43,0,0,0,0,15.23V35.78a4.48,4.48,0,0,0,2.23,3.87L20,49.92a4.44,4.44,0,0,0,4.46,0l17.8-10.27a4.48,4.48,0,0,0,2.23-3.87V15.23A4.25,4.25,0,0,0,44,13.08ZM21.56,3.68a1.46,1.46,0,0,1,1.46,0l17,9.83-7.57,4.38a12.67,12.67,0,0,0-20.36,0L4.51,13.51ZM32,25.5a9.74,9.74,0,0,1-8.22,9.6V26.37L31.32,22A10,10,0,0,1,32,25.5ZM13.2,22l7.56,4.37v8.73A9.75,9.75,0,0,1,13.21,22Zm9.06,1.76L14.71,19.4a9.69,9.69,0,0,1,13.63-1.47h0a9.73,9.73,0,0,1,1.47,1.47ZM3.74,37A1.45,1.45,0,0,1,3,35.78V16.12l7.58,4.36A12.75,12.75,0,0,0,20.77,38.14v8.74Zm37,0-17,9.83V38.11A12.72,12.72,0,0,0,34.89,24a12.94,12.94,0,0,0-.93-3.5l7.56-4.37V35.78A1.45,1.45,0,0,1,40.78,37Z" transform="translate(0 -0.48)"></path><path class="cls-1" d="M85.79,23.48c3.71-1.31,5.52-3.93,5.52-7.37,0-4.91-3.5-8.84-9.72-9.61a35.13,35.13,0,0,0-4.81-.22H61.33V44h15a45.27,45.27,0,0,0,5.58-.22c5.07-.6,10.8-4.1,10.8-11.14C92.72,28,90.54,24.85,85.79,23.48ZM71.16,13.93h4.42a16.76,16.76,0,0,1,2.46.16,3.14,3.14,0,0,1,3,3.44A3.15,3.15,0,0,1,78,21a16,16,0,0,1-2.4.17H71.16Zm7.75,22.31c-.71.06-1.58.06-2.45.06h-5.3V28.23h5c.87,0,1.75,0,2.46.06a3.86,3.86,0,0,1,3.82,4A3.82,3.82,0,0,1,78.91,36.24Z" transform="translate(0 -0.48)"></path><path class="cls-1" d="M106.81,36.15a17.12,17.12,0,0,1-.1-2.68V6.28H96.9V33.64c0,2.18,0,3.66.11,5.18.22,3.88,2.8,5.68,7.31,5.68,2.19,0,3.94-.11,5.74-.27V37.57C107.48,37.68,107,37.3,106.81,36.15Z" transform="translate(0 -0.48)"></path><path class="cls-1" d="M133,31.29c0,3.88-1.87,6.77-5,6.77s-4.42-1.64-4.75-4.42a38.1,38.1,0,0,1-.22-4V14.8H113.2v17a37.67,37.67,0,0,0,.28,5.52c.65,4,4.31,7.37,10.32,7.37a12.24,12.24,0,0,0,6.44-1.63h0s.76-.44,1-.64A16.92,16.92,0,0,0,133,41.09V44h9.81V14.8H133Z" transform="translate(0 -0.48)"></path><path class="cls-1" d="M162.61,14c-9.72,0-15.56,6.93-15.56,15.45,0,10.27,6.66,15.23,15,15.23,7.47,0,12.94-3.73,14.63-10.32H167c-.37,2.24-2.07,3.66-4.85,3.66s-4.92-1.35-5.41-6.23h20.31a26.86,26.86,0,0,0,.17-2.83C177.25,21.46,172.33,14,162.61,14ZM157.1,25.83c.66-3.61,2.46-5.14,5-5.14s4.32,1.7,4.86,5.14Z" transform="translate(0 -0.48)"></path><path class="cls-1" d="M195.1,38.06c-3.33,0-5.19-2.73-5.19-9,0-5.61,1.81-8.41,5.08-8.41,2.46,0,4.37,1.4,4.8,5.25h9.51C209,19.41,203.78,14,195.21,14s-15.36,5.62-15.36,15.66c0,9.61,6.33,15,14.69,15,7.91,0,13.75-3.93,14.84-11.47h-9.64C199.2,36.42,197.34,38.06,195.1,38.06Z" transform="translate(0 -0.48)"></path><path class="cls-1" d="M227.59,14C218,14,211.92,20,211.92,29.38S218,44.72,227.59,44.72s15.67-6,15.67-15.34S237.14,14,227.59,14Zm0,24c-3.5,0-5.61-2.89-5.61-8.68s2.13-8.68,5.61-8.68,5.6,2.84,5.6,8.68S231.08,38.06,227.59,38.06Z" transform="translate(0 -0.48)"></path><path class="cls-1" d="M259.52,16.5h0s-.66.57-.9.83a15.15,15.15,0,0,0-1.26,1.5v-4h-9.84V44h9.84V33.25c0-8.78,2.68-11.52,10.05-11v-8a12.92,12.92,0,0,0-2.24-.16A8.07,8.07,0,0,0,259.52,16.5Z" transform="translate(0 -0.48)"></path><path class="cls-1" d="M299,29c0-7.54-4.91-14.95-14.63-14.95S268.81,21,268.81,29.49c0,10.27,6.66,15.23,15,15.23,7.48,0,12.94-3.73,14.63-10.32h-9.66c-.38,2.24-2.07,3.66-4.86,3.66s-4.91-1.35-5.4-6.23h20.31A26.84,26.84,0,0,0,299,29Zm-20.16-3.17c.66-3.61,2.46-5.14,5-5.14s4.32,1.7,4.86,5.14Z" transform="translate(0 -0.48)"></path></g></svg> 