<?xml version="1.0" encoding="UTF-8"?> <svg xmlns="http://www.w3.org/2000/svg" id="Layer_1" data-name="Layer 1" viewBox="0 0 300 88.29"><defs><style> .cls-1 { fill: #fff; } </style></defs><g><rect class="cls-1" x="224.63" y="8.77" width="19.08" height="69.73"></rect><path class="cls-1" d="M194.82,132.39a26.54,26.54,0,1,0,26.87,26.54A26.72,26.72,0,0,0,194.82,132.39Zm0,34.19a7.65,7.65,0,1,1,7.42-7.65A7.54,7.54,0,0,1,194.82,166.58Z" transform="translate(0 -105.85)"></path><path class="cls-1" d="M280.88,114.62V157c0,8.12-4.39,9.56-7.56,9.56a7.38,7.38,0,0,1-7.28-7.65,7.23,7.23,0,0,1,7.28-7,7.36,7.36,0,0,1,4.67,1.63V132.81a31,31,0,0,0-4.67-.37,26.54,26.54,0,1,0,0,53.08c14.93,0,26.68-10.73,26.68-28.41V114.62Z" transform="translate(0 -105.85)"></path><path class="cls-1" d="M130.78,114.62V157c0,8.12,4.39,9.56,7.56,9.56a7.38,7.38,0,0,0,7.28-7.65,7.23,7.23,0,0,0-7.28-7,7.31,7.31,0,0,0-4.66,1.63V132.81a30.75,30.75,0,0,1,4.66-.37,26.54,26.54,0,1,1,0,53.08c-14.93,0-26.68-10.73-26.68-28.41V114.62Z" transform="translate(0 -105.85)"></path><path class="cls-1" d="M79.52,105.85H8.82A8.84,8.84,0,0,0,0,114.67v70.66a8.81,8.81,0,0,0,8.82,8.82H79.48a8.81,8.81,0,0,0,8.81-8.82V114.67A8.77,8.77,0,0,0,79.52,105.85ZM44.92,176.7c-11.24,0-20.11-8.07-20.11-21.41V123.34H39.23v31.95c0,6.11,3.31,7.19,5.69,7.19a5.52,5.52,0,0,0,5.45-5.74,5.42,5.42,0,0,0-5.45-5.27,5.49,5.49,0,0,0-3.5,1.26V137.06a20.85,20.85,0,0,1,3.5-.28,20,20,0,1,1,0,39.92Z" transform="translate(0 -105.85)"></path></g></svg> 