<?xml version="1.0" encoding="UTF-8"?> <svg xmlns="http://www.w3.org/2000/svg" id="Layer_1" data-name="Layer 1" viewBox="0 0 600 400"><defs><style> .cls-1 { fill: #fff; } </style></defs><g><rect class="cls-1" x="382.88" y="160.71" width="21.19" height="77.44"></rect><path class="cls-1" d="M349.78,180.45a29.47,29.47,0,1,0,29.83,29.47A29.67,29.67,0,0,0,349.78,180.45Zm0,38a8.5,8.5,0,1,1,8.23-8.49A8.38,8.38,0,0,1,349.78,218.41Z"></path><path class="cls-1" d="M445.34,160.71V207.8c0,9-4.86,10.61-8.39,10.61a8.19,8.19,0,0,1-8.08-8.49,8,8,0,0,1,8.08-7.77,8.11,8.11,0,0,1,5.18,1.81V180.91a33.64,33.64,0,0,0-5.18-.41,29.47,29.47,0,1,0,0,58.94c16.58,0,29.63-11.91,29.63-31.54V160.71Z"></path><path class="cls-1" d="M278.66,160.71V207.8c0,9,4.87,10.61,8.39,10.61a8.19,8.19,0,0,0,8.08-8.49,8,8,0,0,0-8.08-7.77,8.15,8.15,0,0,0-5.18,1.81V180.91a33.74,33.74,0,0,1,5.18-.41,29.47,29.47,0,1,1,0,58.94c-16.57,0-29.63-11.91-29.63-31.54V160.71Z"></path><path class="cls-1" d="M221.73,151H143.21a9.82,9.82,0,0,0-9.79,9.79v78.48a9.78,9.78,0,0,0,9.79,9.79h78.47a9.79,9.79,0,0,0,9.79-9.79V160.76A9.74,9.74,0,0,0,221.73,151ZM183.3,229.65c-12.48,0-22.33-9-22.33-23.77V170.4h16v35.48c0,6.78,3.68,8,6.32,8a6.13,6.13,0,0,0,6.06-6.38,6,6,0,0,0-6.06-5.85,6.15,6.15,0,0,0-3.89,1.4v-17.4a23.4,23.4,0,0,1,3.89-.31,22.17,22.17,0,1,1,0,44.33Z"></path></g></svg> 