<?xml version="1.0" encoding="UTF-8"?> <svg xmlns="http://www.w3.org/2000/svg" id="Layer_1" data-name="Layer 1" viewBox="0 0 600 400"><defs><style> .cls-1 { fill: #fff; } </style></defs><g><polygon class="cls-1" points="120.26 176.62 140.99 176.62 140.99 168.28 109.47 168.28 109.47 219.59 120.26 219.59 120.26 198.71 137.9 198.71 137.9 190.36 120.26 190.36 120.26 176.62"></polygon><path class="cls-1" d="M171.5,184.4A21.86,21.86,0,0,0,160.86,182a22.38,22.38,0,0,0-10.6,2.39,17.62,17.62,0,0,0-7.13,6.75,19.4,19.4,0,0,0-2.56,10.07,19.66,19.66,0,0,0,2.5,10,17.67,17.67,0,0,0,7.07,6.78,22.15,22.15,0,0,0,10.68,2.46,28.43,28.43,0,0,0,8.05-1,19.58,19.58,0,0,0,6-2.84,14.29,14.29,0,0,0,3.86-4,10.31,10.31,0,0,0,1.6-4.58H169.69a3.51,3.51,0,0,1-.63,1.5,4.93,4.93,0,0,1-1.51,1.4,8.91,8.91,0,0,1-2.56,1,15,15,0,0,1-3.72.4,10.57,10.57,0,0,1-5.58-1.36,8.29,8.29,0,0,1-3.38-3.86,11.67,11.67,0,0,1-.8-2.66h29.23a11.74,11.74,0,0,0,.1-1.18V201.5a20.89,20.89,0,0,0-2.43-10.25A17.25,17.25,0,0,0,171.5,184.4Zm-15.78,6.92A10.23,10.23,0,0,1,161,190a9.78,9.78,0,0,1,5,1.16,7.47,7.47,0,0,1,2.91,3,8.43,8.43,0,0,1,.92,3.05H151.61a11,11,0,0,1,.74-2.16A8.48,8.48,0,0,1,155.72,191.32Z"></path><path class="cls-1" d="M213.45,184.4A21.84,21.84,0,0,0,202.81,182a22.25,22.25,0,0,0-10.59,2.39A17.68,17.68,0,0,0,185,191.1a21.19,21.19,0,0,0,0,20.08,17.54,17.54,0,0,0,7.06,6.79,22.26,22.26,0,0,0,10.68,2.46,28.82,28.82,0,0,0,8.06-1.05,19.4,19.4,0,0,0,6-2.84,14.42,14.42,0,0,0,3.87-4,10.44,10.44,0,0,0,1.6-4.58H211.64a3.6,3.6,0,0,1-.62,1.5,5.18,5.18,0,0,1-1.51,1.4,9.14,9.14,0,0,1-2.56,1,15.06,15.06,0,0,1-3.73.39,10.47,10.47,0,0,1-5.58-1.35,8.42,8.42,0,0,1-3.37-3.88,12.36,12.36,0,0,1-.8-2.66H222.7a9.39,9.39,0,0,0,.1-1.18c0-.53,0-1.09,0-1.67a20.79,20.79,0,0,0-2.44-10.25A17.1,17.1,0,0,0,213.45,184.4Zm-15.77,6.92A10.23,10.23,0,0,1,203,190a9.78,9.78,0,0,1,5,1.16,7.45,7.45,0,0,1,2.9,3,8.19,8.19,0,0,1,.89,3.05h-18.2a11.69,11.69,0,0,1,.73-2.16A8.5,8.5,0,0,1,197.68,191.32Z"></path><path class="cls-1" d="M253,186.89a16.24,16.24,0,0,0-3.36-2.71,15.08,15.08,0,0,0-8-2.22,16.69,16.69,0,0,0-14.74,8.67A20.63,20.63,0,0,0,224.49,201a22.2,22.2,0,0,0,2.39,10.71,16.14,16.14,0,0,0,6.26,6.56,17,17,0,0,0,8.48,2.17,14.56,14.56,0,0,0,8.12-2.4,16.6,16.6,0,0,0,3.25-2.78v4.33h10.82V165.21H253ZM251.79,207a8.43,8.43,0,0,1-3.19,3,9,9,0,0,1-10.36-1.38c-1.76-1.65-2.63-4.2-2.63-7.68s.88-6,2.61-7.6A9.08,9.08,0,0,1,248.59,192a8.63,8.63,0,0,1,3.19,2.9,8,8,0,0,1,1.25,4.49v3A8.58,8.58,0,0,1,251.79,207Z"></path><path class="cls-1" d="M299.34,184.18A16.65,16.65,0,0,0,291,182a15.15,15.15,0,0,0-8,2.23,16.36,16.36,0,0,0-3.38,2.71V165.21H268.73v54.38h10.82v-4.38a17.09,17.09,0,0,0,3.38,2.85,14.63,14.63,0,0,0,8,2.33,17,17,0,0,0,8.5-2.21,16.35,16.35,0,0,0,6.26-6.54,22.19,22.19,0,0,0,2.39-10.7,20.63,20.63,0,0,0-2.39-10.36A16.49,16.49,0,0,0,299.34,184.18Zm-5,24.44A8.89,8.89,0,0,1,284,210a8.57,8.57,0,0,1-3.24-3,8.09,8.09,0,0,1-1.25-4.51v-3.19a7.93,7.93,0,0,1,1.25-4.49A8.61,8.61,0,0,1,284,192a9.1,9.1,0,0,1,10.37,1.35c1.74,1.6,2.61,4.13,2.61,7.61S296.13,207,294.35,208.62Z"></path><path class="cls-1" d="M347.74,216.45a11.37,11.37,0,0,1-.4-2.39c-.06-.87-.09-1.78-.09-2.72v-16a11.14,11.14,0,0,0-2.52-7.51,15.26,15.26,0,0,0-6.62-4.45,26.54,26.54,0,0,0-9.05-1.47,26,26,0,0,0-9.37,1.59,15,15,0,0,0-6.55,4.64,11.73,11.73,0,0,0-2.39,7.52h10.61a4.64,4.64,0,0,1,2-4.09,10.09,10.09,0,0,1,5.69-1.34,10.7,10.7,0,0,1,5.47,1.18,3.62,3.62,0,0,1,1.94,3.26h0c0,.79-.8,1.38-2.31,1.7s-4.35.68-8.41,1.08a32,32,0,0,0-7.73,1.72,13.71,13.71,0,0,0-5.73,3.77,9.44,9.44,0,0,0-2.16,6.38,9.77,9.77,0,0,0,1.78,5.92,11.11,11.11,0,0,0,4.92,3.72A18.94,18.94,0,0,0,324,220.3a22.92,22.92,0,0,0,6.43-.86,16.32,16.32,0,0,0,5.15-2.55,10.39,10.39,0,0,0,1.38-1.27,10.27,10.27,0,0,0,.38,1.19,7.82,7.82,0,0,0,.8,1.77,9,9,0,0,0,.74,1h10.61a6.34,6.34,0,0,1-.87-1.12A7.22,7.22,0,0,1,347.74,216.45Zm-12.53-8a8.09,8.09,0,0,1-3.59,2.9,12.31,12.31,0,0,1-4.79.93,8.31,8.31,0,0,1-4.45-1,3.19,3.19,0,0,1-1.5-2.87,3,3,0,0,1,1.76-2.87,16.41,16.41,0,0,1,5.31-1.2c2-.21,4-.49,6-.86.94-.16,1.81-.35,2.64-.56v.31a8.87,8.87,0,0,1-1.37,5.16Z"></path><path class="cls-1" d="M384.36,186.81a18.13,18.13,0,0,0-5.89-3.53,22.52,22.52,0,0,0-8.05-1.32,23,23,0,0,0-10.68,2.39,17.15,17.15,0,0,0-7.11,6.63,19.35,19.35,0,0,0-2.56,10,20,20,0,0,0,2.53,10.13,17.51,17.51,0,0,0,7.11,6.83,24.68,24.68,0,0,0,18.82,1.09,17.71,17.71,0,0,0,5.86-3.55,14.85,14.85,0,0,0,3.58-4.84,12.67,12.67,0,0,0,1.17-5.24H378.46a7.53,7.53,0,0,1-1,3.19,5.9,5.9,0,0,1-2.61,2.28,10,10,0,0,1-4.48.86,8.73,8.73,0,0,1-8.11-5A12.73,12.73,0,0,1,361,201a12.33,12.33,0,0,1,1.22-5.73,8.36,8.36,0,0,1,3.33-3.49,10.7,10.7,0,0,1,9-.37,7,7,0,0,1,2.63,2.11,6.79,6.79,0,0,1,1.24,2.78,1.37,1.37,0,0,1,.09.4,2.67,2.67,0,0,1,0,.4h10.67v-.28a12.05,12.05,0,0,0-1.22-5.18A15.57,15.57,0,0,0,384.36,186.81Z"></path><polygon class="cls-1" points="414.74 182.64 402.78 193.34 402.78 165.21 392.55 165.21 392.55 219.59 402.78 219.59 402.78 205.19 405.94 202.31 416.31 219.59 427.65 219.59 412.79 196.2 427.96 182.64 414.74 182.64"></polygon><polygon class="cls-1" points="453.92 168.28 443.1 168.28 443.1 219.59 473.01 219.59 473.01 210.78 453.92 210.78 453.92 168.28"></polygon><path class="cls-1" d="M505.47,184.4a24.21,24.21,0,0,0-21.08,0,17.7,17.7,0,0,0-7.12,6.74,20.84,20.84,0,0,0,0,20,18.12,18.12,0,0,0,7.12,6.8,23.74,23.74,0,0,0,21.08,0,18,18,0,0,0,7.11-6.8,20.83,20.83,0,0,0,0-20A17.63,17.63,0,0,0,505.47,184.4Zm-2.39,22.37a8.77,8.77,0,0,1-3.24,3.74,9.74,9.74,0,0,1-9.79,0,8.75,8.75,0,0,1-3.26-3.74,13.19,13.19,0,0,1-1.16-5.67,12.83,12.83,0,0,1,1.15-5.59,8.55,8.55,0,0,1,3.25-3.67,10,10,0,0,1,9.79,0,8.55,8.55,0,0,1,3.25,3.67,12.83,12.83,0,0,1,1.15,5.59,13.18,13.18,0,0,1-1.15,5.67Z"></path><path class="cls-1" d="M547.57,184.4a24.23,24.23,0,0,0-21.09,0,17.68,17.68,0,0,0-7.11,6.74,20.73,20.73,0,0,0,0,20,18.18,18.18,0,0,0,7.11,6.81,23.83,23.83,0,0,0,21.09,0,18.11,18.11,0,0,0,7.11-6.81,20.75,20.75,0,0,0,0-20A17.71,17.71,0,0,0,547.57,184.4Zm-2.4,22.37a8.75,8.75,0,0,1-3.23,3.74,9.75,9.75,0,0,1-9.8,0,8.79,8.79,0,0,1-3.25-3.74,13,13,0,0,1-1.16-5.67,12.83,12.83,0,0,1,1.15-5.59,8.51,8.51,0,0,1,3.26-3.67,10,10,0,0,1,9.79,0,8.59,8.59,0,0,1,3.24,3.67,14.47,14.47,0,0,1,0,11.26Z"></path><path class="cls-1" d="M591.22,184.15a16.73,16.73,0,0,0-8.38-2.19,15.15,15.15,0,0,0-8,2.23,16.45,16.45,0,0,0-3.38,2.73v-4.28H560.59v52.15h10.84V215.22a17.09,17.09,0,0,0,3.38,2.85,14.47,14.47,0,0,0,8,2.36,17,17,0,0,0,8.49-2.21,16.32,16.32,0,0,0,6.27-6.57A22.2,22.2,0,0,0,600,200.94a20.63,20.63,0,0,0-2.39-10.36A16.77,16.77,0,0,0,591.22,184.15Zm-5,24.47a8.89,8.89,0,0,1-10.31,1.4,8.57,8.57,0,0,1-3.24-3,8.09,8.09,0,0,1-1.25-4.51v-3.19a7.93,7.93,0,0,1,1.25-4.49,8.61,8.61,0,0,1,3.24-2.9,9.07,9.07,0,0,1,10.33,1.35c1.75,1.6,2.62,4.13,2.61,7.61S588,207,586.23,208.62Z"></path><polygon class="cls-1" points="7.73 168.17 2.51 210.62 1.88 215.78 0 231.1 8.5 231.1 13.59 225.65 19.32 219.49 19.33 219.49 26.22 212.09 26.2 212.09 32.94 204.84 65.7 204.84 66.61 197.45 39.83 197.45 46.57 190.2 75.37 190.2 76.28 182.81 20.43 182.81 19.52 190.2 37.06 190.2 30.32 197.45 18.64 197.45 17.73 204.84 23.44 204.84 8.68 220.71 9.28 215.78 9.91 210.62 14.22 175.56 84.27 175.56 79.79 212.09 31.18 212.09 24.28 219.49 86.28 219.49 92.58 168.17 7.73 168.17"></polygon></g></svg> 