<?xml version="1.0" encoding="UTF-8"?> <svg xmlns="http://www.w3.org/2000/svg" id="forbes-agency-council" viewBox="0 0 216 216"><defs><style> .cls-1, .cls-2 { fill: #fff; } .cls-1 { fill-rule: evenodd; } </style></defs><g><g><path class="cls-1" d="M117.62,103.55a5.45,5.45,0,0,0-2.73.68c0-2.43,0-4.64.07-5.39l-5.09.91v.45l.53.08c.69.15.91.53,1.06,1.45.16,1.83.08,11.56,0,13.16a20.2,20.2,0,0,0,4.27.53c4,0,6.46-2.51,6.46-6.47,0-3.12-2-5.4-4.57-5.4Zm-1.75,11a3.25,3.25,0,0,1-.91-.08c-.07-1.06-.15-5.55-.07-9.5a3.4,3.4,0,0,1,1.14-.23c1.67,0,2.58,2,2.58,4.41,0,3-1.14,5.4-2.74,5.4Z"></path><path class="cls-1" d="M90.7,99.14H77.32v.69l.76.07c1,.16,1.37.77,1.52,2.21a88.25,88.25,0,0,1,0,10c-.15,1.45-.53,2.13-1.52,2.21l-.76.15v.61h8.59v-.61l-.91-.15c-1-.08-1.37-.77-1.52-2.21-.07-1-.15-2.59-.15-4.56l1.83.08c1.14,0,1.67.91,1.9,2.2h.69v-5.4h-.69c-.23,1.29-.76,2.2-1.9,2.2l-1.83.08c0-2.58.08-5,.15-6.47h2.66c2.06,0,3.12,1.3,3.88,3.58l.76-.23-.08-4.48Z"></path><path class="cls-1" d="M95,103.39c3.8,0,5.7,2.59,5.7,6a5.68,5.68,0,0,1-5.93,6c-3.8,0-5.71-2.58-5.71-6a5.69,5.69,0,0,1,5.94-6Zm-.23.77c-1.68,0-2.13,2.28-2.13,5.25s.76,5.25,2.28,5.25c1.75,0,2.21-2.29,2.21-5.25s-.77-5.25-2.36-5.25Z"></path><path class="cls-1" d="M123.17,109.48c0-3.12,2-6.09,5.86-6.09,3.19,0,4.72,2.36,4.72,5.48h-7.08c-.07,2.81,1.3,4.86,4,4.86a3.92,3.92,0,0,0,2.59-.83l.3.38A5.73,5.73,0,0,1,129,115.4a5.64,5.64,0,0,1-5.85-5.92Zm3.5-1.45,3.58-.07c0-1.52-.23-3.8-1.52-3.8s-2,2.13-2.06,3.87Z"></path><path class="cls-1" d="M142.8,104a9.51,9.51,0,0,0-3.5-.61c-2.82,0-4.57,1.68-4.57,3.66s1.3,2.81,3.12,3.42,2.43,1.22,2.43,2.13a1.76,1.76,0,0,1-1.9,1.75c-1.45,0-2.51-.84-3.34-3.12l-.54.16.08,3.34a12,12,0,0,0,4,.69c3,0,4.87-1.52,4.87-3.88,0-1.59-.84-2.51-2.82-3.27-2.13-.83-2.89-1.37-2.89-2.36a1.59,1.59,0,0,1,1.6-1.67c1.37,0,2.28.83,3,2.89l.53-.15-.07-3Z"></path><path class="cls-1" d="M110.62,103.7c-1.29-.77-3.57-.38-4.79,2.35l.08-2.66-5.1,1v.46l.53.07c.69.08,1,.46,1.07,1.45a63.51,63.51,0,0,1,0,6.62c-.08.91-.38,1.37-1.07,1.44l-.53.08v.61h7.08v-.61l-.91-.08c-.76-.07-1-.53-1.07-1.44a54,54,0,0,1-.07-6.16c.38-.53,2-1,3.57,0l1.21-3.12Z"></path></g><g><path class="cls-2" d="M94.35,128.65l-.68-1.73H91.49l-.67,1.73h-.64l2.15-5.45h.53L95,128.65Zm-.88-2.29-.63-1.68a7.53,7.53,0,0,1-.25-.79c-.06.24-.13.5-.23.79l-.64,1.68Z"></path><path class="cls-2" d="M99.05,124.58V125l-.76.09a1.28,1.28,0,0,1,.19.35,1.3,1.3,0,0,1-.32,1.42,1.62,1.62,0,0,1-1.12.36,1.79,1.79,0,0,1-.34,0,.6.6,0,0,0-.39.53.24.24,0,0,0,.14.24.9.9,0,0,0,.46.08h.73a1.58,1.58,0,0,1,1,.28,1,1,0,0,1,.36.81,1.16,1.16,0,0,1-.55,1,2.86,2.86,0,0,1-1.58.36,2.13,2.13,0,0,1-1.23-.3,1,1,0,0,1-.2-1.48,1.29,1.29,0,0,1,.67-.37.68.68,0,0,1-.26-.22.59.59,0,0,1-.1-.34.65.65,0,0,1,.12-.39,1.16,1.16,0,0,1,.38-.33,1.05,1.05,0,0,1-.52-.44,1.31,1.31,0,0,1-.2-.71,1.33,1.33,0,0,1,.4-1,1.66,1.66,0,0,1,1.14-.36,2,2,0,0,1,.57.07h1.4Zm-3.25,4.76a.55.55,0,0,0,.28.5,1.61,1.61,0,0,0,.8.17,2.28,2.28,0,0,0,1.15-.23.7.7,0,0,0,.37-.63.5.5,0,0,0-.21-.46,1.49,1.49,0,0,0-.76-.13h-.75a1,1,0,0,0-.65.2A.74.74,0,0,0,95.8,129.34Zm.34-3.45a.8.8,0,0,0,.24.64,1,1,0,0,0,.67.22c.61,0,.91-.29.91-.88A.81.81,0,0,0,97,125a.9.9,0,0,0-.67.23A.94.94,0,0,0,96.14,125.89Z"></path><path class="cls-2" d="M101.67,128.73a1.86,1.86,0,0,1-1.43-.55,2.14,2.14,0,0,1-.53-1.53,2.32,2.32,0,0,1,.49-1.56,1.61,1.61,0,0,1,1.3-.58,1.54,1.54,0,0,1,1.21.5,2,2,0,0,1,.45,1.33v.4h-2.81a1.62,1.62,0,0,0,.36,1.09,1.31,1.31,0,0,0,1,.37,3.29,3.29,0,0,0,1.3-.27v.55a3.33,3.33,0,0,1-.61.2A4.58,4.58,0,0,1,101.67,128.73ZM101.5,125a1,1,0,0,0-.79.32,1.53,1.53,0,0,0-.34.88h2.13a1.31,1.31,0,0,0-.26-.89A.93.93,0,0,0,101.5,125Z"></path><path class="cls-2" d="M107.06,128.65V126a1.06,1.06,0,0,0-.22-.74,1,1,0,0,0-.71-.25,1.19,1.19,0,0,0-.94.35,1.79,1.79,0,0,0-.29,1.14v2.13h-.62v-4.07h.51l.1.56h0a1.24,1.24,0,0,1,.54-.47,1.73,1.73,0,0,1,.76-.17,1.31,1.31,0,0,1,1.48,1.49v2.66Z"></path><path class="cls-2" d="M110.63,128.73a1.73,1.73,0,0,1-1.37-.55,2.24,2.24,0,0,1-.48-1.54,2.32,2.32,0,0,1,.49-1.58,1.77,1.77,0,0,1,1.4-.56,2.3,2.3,0,0,1,.58.07,2.45,2.45,0,0,1,.47.14l-.19.53a3,3,0,0,0-.45-.14,2.37,2.37,0,0,0-.43,0c-.82,0-1.24.52-1.24,1.58a2,2,0,0,0,.3,1.16,1.09,1.09,0,0,0,.9.39,2.8,2.8,0,0,0,1-.21v.54A2.06,2.06,0,0,1,110.63,128.73Z"></path><path class="cls-2" d="M112,124.58h.66l.89,2.32a9.16,9.16,0,0,1,.37,1.15h0c0-.12.1-.34.21-.65s.44-1.25,1-2.82h.66l-1.75,4.64a2.31,2.31,0,0,1-.61,1,1.29,1.29,0,0,1-.85.29,2.67,2.67,0,0,1-.56-.06v-.5a2.13,2.13,0,0,0,.46,0,.94.94,0,0,0,.9-.71l.23-.58Z"></path><path class="cls-2" d="M93.26,132.47a1.77,1.77,0,0,0-1.41.6,2.38,2.38,0,0,0-.52,1.63,2.44,2.44,0,0,0,.5,1.64,1.76,1.76,0,0,0,1.42.59,4.73,4.73,0,0,0,1.3-.21v.56a4,4,0,0,1-1.39.21,2.4,2.4,0,0,1-1.86-.73,3,3,0,0,1-.65-2.07,3.25,3.25,0,0,1,.32-1.47,2.27,2.27,0,0,1,.91-1,2.7,2.7,0,0,1,1.39-.34,3.34,3.34,0,0,1,1.49.32l-.27.53A3.05,3.05,0,0,0,93.26,132.47Z"></path><path class="cls-2" d="M99.22,135.38a2.21,2.21,0,0,1-.51,1.55,1.76,1.76,0,0,1-1.38.56,1.8,1.8,0,0,1-1-.26,1.66,1.66,0,0,1-.65-.73,2.6,2.6,0,0,1-.23-1.12,2.28,2.28,0,0,1,.5-1.56,1.75,1.75,0,0,1,1.38-.55,1.73,1.73,0,0,1,1.36.57A2.22,2.22,0,0,1,99.22,135.38Zm-3.11,0a1.92,1.92,0,0,0,.31,1.19,1.1,1.1,0,0,0,.92.4,1.08,1.08,0,0,0,.92-.4,1.92,1.92,0,0,0,.31-1.19,1.89,1.89,0,0,0-.31-1.18,1.11,1.11,0,0,0-.93-.41,1.08,1.08,0,0,0-.91.4A1.9,1.9,0,0,0,96.11,135.38Z"></path><path class="cls-2" d="M100.94,133.35V136a1.11,1.11,0,0,0,.22.74,1,1,0,0,0,.71.24,1.16,1.16,0,0,0,.94-.35,1.79,1.79,0,0,0,.29-1.14v-2.14h.62v4.08h-.51l-.1-.55h0a1.22,1.22,0,0,1-.52.46,1.77,1.77,0,0,1-.77.16,1.6,1.6,0,0,1-1.12-.35,1.52,1.52,0,0,1-.37-1.12v-2.67Z"></path><path class="cls-2" d="M107.87,137.42v-2.63a1.06,1.06,0,0,0-.22-.74.92.92,0,0,0-.71-.25,1.17,1.17,0,0,0-.93.35,1.73,1.73,0,0,0-.3,1.14v2.13h-.61v-4.07h.5l.1.56h0a1.22,1.22,0,0,1,.53-.47,1.73,1.73,0,0,1,.76-.17,1.3,1.3,0,0,1,1.48,1.49v2.66Z"></path><path class="cls-2" d="M111.44,137.49a1.77,1.77,0,0,1-1.37-.54,2.27,2.27,0,0,1-.48-1.54,2.35,2.35,0,0,1,.49-1.59,1.79,1.79,0,0,1,1.4-.56,3.06,3.06,0,0,1,.59.07,2.32,2.32,0,0,1,.46.14l-.19.53a2,2,0,0,0-.45-.13,1.77,1.77,0,0,0-.43-.06c-.82,0-1.23.53-1.23,1.58a1.88,1.88,0,0,0,.3,1.16,1.06,1.06,0,0,0,.89.4,2.71,2.71,0,0,0,1-.22v.55A2.22,2.22,0,0,1,111.44,137.49Z"></path><path class="cls-2" d="M113.45,132.24a.38.38,0,0,1,.11-.3.34.34,0,0,1,.26-.1.35.35,0,0,1,.25.1.39.39,0,0,1,.11.3.4.4,0,0,1-.11.31.34.34,0,0,1-.25.11.35.35,0,0,1-.26-.11A.4.4,0,0,1,113.45,132.24Zm.67,5.18h-.62v-4.07h.62Z"></path><path class="cls-2" d="M116.1,137.42h-.61v-5.78h.61Z"></path></g><rect class="cls-2" x="79.31" y="122.05" width="0.99" height="16.12"></rect><g><path class="cls-2" d="M76.14,79a2.31,2.31,0,0,1,4.61,0,2.31,2.31,0,0,1-4.61,0Zm4,0a1.65,1.65,0,1,0-1.64,1.67A1.61,1.61,0,0,0,80.09,79Z"></path><path class="cls-2" d="M85.42,76.91v.37a.09.09,0,0,1-.1.1H83.19V79h1.88c.06,0,.09,0,.09.11v.37c0,.06,0,.11-.09.11H83.19v1.52a.1.1,0,0,1-.1.11h-.44a.1.1,0,0,1-.1-.11v-4.2a.1.1,0,0,1,.1-.11h2.67A.1.1,0,0,1,85.42,76.91Z"></path><path class="cls-2" d="M90,76.91v.37a.09.09,0,0,1-.1.1H87.76V79h1.88c.06,0,.09,0,.09.11v.37c0,.06,0,.11-.09.11H87.76v1.52c0,.07,0,.11-.1.11h-.44a.1.1,0,0,1-.1-.11v-4.2a.1.1,0,0,1,.1-.11h2.67C90,76.8,90,76.84,90,76.91Z"></path><path class="cls-2" d="M91.69,81.11v-4.2a.1.1,0,0,1,.1-.11h.44c.07,0,.1,0,.1.11v4.2c0,.07,0,.11-.1.11h-.44A.1.1,0,0,1,91.69,81.11Z"></path><path class="cls-2" d="M94.13,79a2.22,2.22,0,0,1,2.34-2.27,2.54,2.54,0,0,1,1.36.36.11.11,0,0,1,0,.15l-.19.33c0,.07-.09.07-.15,0a1.89,1.89,0,0,0-1-.26,1.66,1.66,0,1,0,0,3.32,2,2,0,0,0,1-.25.1.1,0,0,1,.15,0l.18.33a.11.11,0,0,1,0,.16,2.61,2.61,0,0,1-1.34.33A2.2,2.2,0,0,1,94.13,79Z"></path><path class="cls-2" d="M99.57,81.11v-4.2a.1.1,0,0,1,.1-.11h.44c.07,0,.1,0,.1.11v4.2c0,.07,0,.11-.1.11h-.44A.1.1,0,0,1,99.57,81.11Z"></path><path class="cls-2" d="M105.86,81.22h-.46a.14.14,0,0,1-.13-.09l-.34-.84h-2.12l-.35.84a.14.14,0,0,1-.12.09h-.46c-.08,0-.12,0-.09-.12l1.81-4.22a.14.14,0,0,1,.13-.08H104a.13.13,0,0,1,.13.08L106,81.1C106,81.17,105.94,81.22,105.86,81.22ZM103,79.73h1.68l-.83-2Z"></path><path class="cls-2" d="M110.44,80.75v.36a.1.1,0,0,1-.11.11h-2.71a.1.1,0,0,1-.11-.11v-4.2a.1.1,0,0,1,.11-.11h.44c.06,0,.09,0,.09.11v3.73h2.18C110.39,80.65,110.44,80.68,110.44,80.75Z"></path><path class="cls-2" d="M118.74,81.11c0,.08,0,.11-.1.11h-.43c-.07,0-.1,0-.1-.11l-.07-3-1.35,2.39a.13.13,0,0,1-.12.07h-.26a.14.14,0,0,1-.13-.08l-1.31-2.4-.07,3a.11.11,0,0,1-.12.11h-.42c-.07,0-.1,0-.1-.11l.15-4.2a.1.1,0,0,1,.11-.11h.24a.14.14,0,0,1,.12.08l1.65,3,1.71-3a.14.14,0,0,1,.13-.07h.22a.1.1,0,0,1,.11.11Z"></path><path class="cls-2" d="M123.7,80.75v.36a.1.1,0,0,1-.1.11h-2.74a.1.1,0,0,1-.1-.11v-4.2a.1.1,0,0,1,.1-.11h2.73a.1.1,0,0,1,.11.11v.36a.1.1,0,0,1-.11.1h-2.18v1.32h1.9c.07,0,.11,0,.11.1v.37c0,.07,0,.1-.11.1h-1.9v1.38h2.2A.1.1,0,0,1,123.7,80.75Z"></path><path class="cls-2" d="M130,81.11c0,.08,0,.11-.1.11h-.43c-.07,0-.1,0-.1-.11l-.08-3L128,80.53a.15.15,0,0,1-.13.07h-.26a.12.12,0,0,1-.12-.08l-1.31-2.4-.08,3a.1.1,0,0,1-.11.11h-.43c-.07,0-.1,0-.1-.11l.16-4.2a.1.1,0,0,1,.11-.11H126c.06,0,.09,0,.13.08l1.65,3,1.71-3a.12.12,0,0,1,.12-.07h.23c.07,0,.1,0,.1.11Z"></path><path class="cls-2" d="M135.34,80c0,.78-.54,1.26-1.61,1.26h-1.57a.1.1,0,0,1-.1-.11v-4.2a.1.1,0,0,1,.1-.11h1.44c1.13,0,1.6.49,1.6,1.16a1,1,0,0,1-.64,1A1.08,1.08,0,0,1,135.34,80Zm-1.76-2.61h-.89v1.36h1c.53,0,.84-.24.84-.64S134.26,77.35,133.58,77.35Zm1.11,2.57c0-.36-.28-.66-1-.66h-1v1.41h1C134.34,80.66,134.69,80.38,134.69,79.92Z"></path><path class="cls-2" d="M140.1,80.75v.36c0,.07,0,.11-.1.11h-2.73a.1.1,0,0,1-.11-.11v-4.2a.1.1,0,0,1,.11-.11H140a.1.1,0,0,1,.1.11v.36a.09.09,0,0,1-.1.1h-2.19v1.32h1.91c.07,0,.1,0,.1.1v.37c0,.07,0,.1-.1.1h-1.91v1.38H140A.1.1,0,0,1,140.1,80.75Z"></path><path class="cls-2" d="M145.13,81.22h-.53a.19.19,0,0,1-.14-.07l-.89-1.31h-1v1.26a.1.1,0,0,1-.1.11H142a.1.1,0,0,1-.11-.11v-4.2a.1.1,0,0,1,.11-.11h1.38c1,0,1.75.54,1.75,1.54a1.41,1.41,0,0,1-.92,1.36l1,1.39C145.25,81.17,145.22,81.22,145.13,81.22Zm-.65-2.88c0-.64-.46-1-1.1-1h-.81v1.91h.77C144,79.28,144.48,78.91,144.48,78.34Z"></path></g><path class="cls-2" d="M108,179.64a71.63,71.63,0,1,1,50.66-21A71.19,71.19,0,0,1,108,179.64Zm0-137.9a66.27,66.27,0,1,0,46.85,19.41A65.83,65.83,0,0,0,108,41.74Z"></path></g></svg> 