<?xml version="1.0" encoding="UTF-8"?> <svg xmlns="http://www.w3.org/2000/svg" id="Layer_1" data-name="Layer 1" viewBox="0 0 600 400"><defs><style> .cls-1 { fill: #fff; } </style></defs><g><g><path class="cls-1" d="M135,167.45h7.77v59H135Z"></path><path class="cls-1" d="M149.74,186.26h7.32v5.07l.11.11a20,20,0,0,1,14-6.08,14.14,14.14,0,0,1,10.7,4.39c2.25,2.48,3.38,5.63,3.38,11.83v24.78H177.9V203c0-4.17-.57-6.64-1.92-8.11-1.57-1.91-4.28-2.59-6.42-2.59-4.62,0-9.68,2.82-12.5,6.65v27.48h-7.32Z"></path><path class="cls-1" d="M212.48,185.36a23.05,23.05,0,0,1,9.57,2.14l.12-.12v-23.2h7.32v62.29h-7.32V224l-.12-.11a19.14,19.14,0,0,1-11.26,3.38c-10.81,0-19.6-7.89-19.6-20.28S199.86,185.36,212.48,185.36Zm-.56,35.48a19.35,19.35,0,0,0,10.47-3.38v-23a23,23,0,0,0-9.91-2.48c-8.45,0-13.74,6.42-13.74,14.65C198.62,214.64,203.69,220.84,211.92,220.84Z"></path><path class="cls-1" d="M240.19,167.45a5.17,5.17,0,0,1,5.18,5.18,5.18,5.18,0,1,1-5.18-5.18Zm-3.72,18.81h7.32v40.1h-7.32Z"></path><path class="cls-1" d="M255.28,234.36A23.84,23.84,0,0,0,268,238.52c7.66,0,12.84-4.62,12.84-12.16v-2.93l-.11-.11a19.58,19.58,0,0,1-10.93,3c-10.92,0-19.6-8.22-19.6-20.05,0-11.38,7.78-21.07,20.84-21.07a23.25,23.25,0,0,1,10.14,2.26l7.1-1.24V226c0,11.71-7.78,19-20.17,19A29.07,29.07,0,0,1,255.39,242v-7.65Zm15.55-14.31a17.17,17.17,0,0,0,10-3.27V194.71a20.2,20.2,0,0,0-10.14-2.82c-8.11,0-13.18,6.2-13.18,14C257.53,214,262.94,220.05,270.83,220.05Z"></path><path class="cls-1" d="M315.43,185.36c12.17,0,21.18,9.12,21.18,20.95s-9,20.95-21.18,20.95-21.17-9.12-21.17-20.95S303.38,185.36,315.43,185.36Zm0,35.25c8,0,13.86-6.19,13.86-14.3S323.43,192,315.43,192s-13.85,6.2-13.85,14.31S307.55,220.61,315.43,220.61Z"></path><path class="cls-1" d="M342.92,216.56a5.41,5.41,0,1,1-5.41,5.4A5.56,5.56,0,0,1,342.92,216.56Z"></path><path class="cls-1" d="M353.28,167.45H369.5c7.77,0,11.71,1.24,17.68,4.84,8.45,5.18,13.18,14.19,13.18,24.44,0,9.8-4.28,18.48-11.71,23.77-6.31,4.39-10.93,6-21.18,6h-14.3v-59Zm15.54,51.92c7.1,0,9.69-.9,14.42-3.94,5.63-3.6,9.58-10.25,9.58-18.58a21.82,21.82,0,0,0-9.47-18.48c-5.18-3.38-8.22-4.05-14.64-4.05h-7.66v44.94h7.77Z"></path><path class="cls-1" d="M410.61,208.45c1,7.88,7,12.28,14.87,12.28a23.5,23.5,0,0,0,13.86-5v7.77A28.74,28.74,0,0,1,425,227.26c-12.39,0-21.63-8.34-21.63-20.95s9.24-20.95,19.94-20.95c9.8,0,18.25,6.87,18.25,19.37a34.69,34.69,0,0,1-.23,3.72Zm.12-5.75h23.65c-.68-8-6.53-10.7-11.38-10.7C417.82,192,412.08,195.27,410.73,202.7Z"></path><path class="cls-1" d="M445.87,216.33a29.48,29.48,0,0,0,15.32,4.28c5.52,0,9.12-1.57,9.12-5.52,0-4.84-5.74-4.84-11.94-6-7.66-1.35-13.74-3.6-13.74-11.49.11-8.33,7.21-12.27,16.45-12.27,4.84,0,10.36,1,14.3,3.15v7.32a30.71,30.71,0,0,0-14.64-3.94c-5.18,0-8.68,1.58-8.68,5.18,0,4.62,5.75,4.62,11.61,5.63,7.66,1.36,14,3.38,14,11.72,0,9.23-8.33,12.84-16.89,12.84-5.18,0-10.82-1-15-3.27v-7.66Z"></path><path class="cls-1" d="M487.32,167.45a5.16,5.16,0,0,1,5.18,5.18,5.18,5.18,0,1,1-10.36,0A5.16,5.16,0,0,1,487.32,167.45Zm-3.72,18.81h7.33v40.1H483.6Z"></path><path class="cls-1" d="M502.53,234.36a23.84,23.84,0,0,0,12.73,4.16c7.65,0,12.84-4.62,12.84-12.16v-2.93l-.12-.11a19.52,19.52,0,0,1-10.92,3c-10.93,0-19.6-8.22-19.6-20.05,0-11.38,7.77-21.07,20.84-21.07a23.24,23.24,0,0,1,10.13,2.26l7.1-1.24V226c0,11.71-7.77,19-20.16,19A29,29,0,0,1,502.64,242v-7.65ZM518,220.05a17.12,17.12,0,0,0,10-3.27V194.71a20.16,20.16,0,0,0-10.13-2.82c-8.11,0-13.18,6.2-13.18,14C504.67,214,510.07,220.05,518,220.05Z"></path><path class="cls-1" d="M541.73,186.26h7.32v5.07l.11.11a20,20,0,0,1,14-6.08,14.14,14.14,0,0,1,10.7,4.39c2.25,2.48,3.38,5.63,3.38,11.83v24.78h-7.32V203c0-4.17-.57-6.64-1.92-8.11a8.43,8.43,0,0,0-6.42-2.59c-4.62,0-9.69,2.82-12.5,6.65v27.48h-7.32V186.26Z"></path></g><path class="cls-1" d="M69.31,153.59H41.94a19.06,19.06,0,0,0-19,18.93l-.12,54.85a19,19,0,0,0,18.93,19H69.2a46.41,46.41,0,0,0,.11-92.82ZM29.44,172.18A12.23,12.23,0,0,1,41.6,160.13H59v47.64a6.69,6.69,0,0,0-4.73,4.73H29.33Zm29.62,67.69H41.49a12.23,12.23,0,0,1-12-12.16V216H54.33a6.72,6.72,0,0,0,4.73,4.74Zm10.14,0H62.44V220.73A6.68,6.68,0,0,0,67.17,216h38.64A40,40,0,0,1,69.2,239.87Zm-2-27.25a6.7,6.7,0,0,0-4.73-4.74V160.24h6.87a39.85,39.85,0,0,1,39.76,39.87,42.64,42.64,0,0,1-1.91,12.51Z"></path></g></svg> 