<?xml version="1.0" encoding="UTF-8"?> <svg xmlns="http://www.w3.org/2000/svg" id="Layer_1" data-name="Layer 1" viewBox="0 0 600 400"><defs><style> .cls-1 { fill: #fff; } </style></defs><g><path class="cls-1" d="M117.45,226.25V173.13H126v53.12Zm21,0V171.11l33.71,32.46c.93.93,1.86,1.87,2.79,3s1.87,2.18,3,3.58v-37h7.93v55.3l-34.33-33.09a37.82,37.82,0,0,1-2.64-2.8,24.14,24.14,0,0,1-2.49-3.1v37h-7.92Zm59.8,0V173.13h29.67v7.3H206.77v13.2h21v7.61h-21v25Zm47.07-23.76v23.76h-8.08V173.13h12.12a38.19,38.19,0,0,1,8.23.62,12.12,12.12,0,0,1,5,2.33,12.33,12.33,0,0,1,3.89,5,15.6,15.6,0,0,1,1.4,6.68c0,4.19-1.09,7.61-3.11,9.94-2,2.49-5.13,3.88-9.17,4.35l18.33,24.23h-9.78l-17.71-23.76Zm.62-6.68h1.56c4.5,0,7.61-.47,9.16-1.56s2.18-2.95,2.18-5.59c0-2.95-.78-5-2.49-6.21-1.55-1.25-4.66-1.87-9-1.87h-1.55v15.23Zm68,30.44-6.06-13.67H286.77l-6.22,13.67h-9L297.33,171,323,226.25ZM290,205.44h14.76l-5.44-12.12c-.31-.78-.62-1.71-.93-2.64s-.62-2.18-1.09-3.42l-.93,3.26-.93,2.8L290,205.44Zm66.17-6.37h21.13v1.55c0,1.71.16,2.95.16,3.42,0,7.46-2.18,13.36-6.37,17.4s-10.26,6.21-18.18,6.21a34,34,0,0,1-11.65-1.86A24.78,24.78,0,0,1,326.53,211a32,32,0,0,1,0-22.37,27.12,27.12,0,0,1,6.06-9,25.62,25.62,0,0,1,9.17-5.75,29.18,29.18,0,0,1,11.18-2,25.79,25.79,0,0,1,11.19,2.33,26.89,26.89,0,0,1,8.85,7L366.61,186a21,21,0,0,0-6.06-4.66,17.51,17.51,0,0,0-7.61-1.55,19,19,0,0,0-14.13,5.59c-3.58,3.73-5.44,8.54-5.44,14.44,0,6.06,1.86,10.88,5.44,14.61s8.38,5.59,14.13,5.59c5,0,8.86-1.09,11.65-3.42a11.61,11.61,0,0,0,4.2-9.47v-.78H356.05v-7.3Zm30.45,27.18V173.13h8.7v53.12Zm18-10.56,6.84-3.26a9.6,9.6,0,0,0,3.57,5.43,11.26,11.26,0,0,0,6.68,1.87,8.24,8.24,0,0,0,6.06-2.18,7.26,7.26,0,0,0,2.33-5.74c0-3.11-2.65-5.91-7.77-8.39-.78-.31-1.24-.62-1.71-.78-5.9-2.8-9.79-5.44-11.65-7.77a12.43,12.43,0,0,1-2.95-8.54,13.71,13.71,0,0,1,4.35-10.56,16.71,16.71,0,0,1,11.49-4,19,19,0,0,1,9.79,2.33,11.84,11.84,0,0,1,5.44,6.52L430.46,184a10.39,10.39,0,0,0-3.58-3.73,8.28,8.28,0,0,0-4.35-1.09,8.12,8.12,0,0,0-5.59,1.87,6,6,0,0,0-2,4.81c0,3.27,2.95,6.22,9,9,.47.16.78.47,1.09.47,5.28,2.49,8.85,4.82,10.87,7.15a12.56,12.56,0,0,1,2.95,8.69c0,5-1.55,9-4.81,12s-7.46,4.5-12.89,4.5A19.39,19.39,0,0,1,410,224.54a15.88,15.88,0,0,1-5.28-8.85Zm61.05-35.26v45.82H457V180.43H442.88v-7.3H479.7v7.3Zm20.81,45.82V173.13h8.7v53.12ZM550.22,186a28.71,28.71,0,0,0-7.76-4.66,23.1,23.1,0,0,0-8.55-1.55c-5.75,0-10.56,1.86-14.13,5.59s-5.44,8.54-5.44,14.44c0,5.75,1.71,10.41,5.28,14.14A17.82,17.82,0,0,0,533,219.57a25,25,0,0,0,9-1.71,30.24,30.24,0,0,0,8.23-5v9.94a23,23,0,0,1-7.61,3.73,32.79,32.79,0,0,1-8.85,1.25,30.75,30.75,0,0,1-11.34-2,27.36,27.36,0,0,1-9.17-5.91,25.2,25.2,0,0,1-5.9-9,31.1,31.1,0,0,1,0-22.05,27.12,27.12,0,0,1,6.06-9,24.64,24.64,0,0,1,9-5.91,28.91,28.91,0,0,1,11-2,29.64,29.64,0,0,1,9,1.4,31.58,31.58,0,0,1,8.23,4.2l-.47,8.54ZM558,215.69l6.84-3.26a9.6,9.6,0,0,0,3.57,5.43,11.26,11.26,0,0,0,6.68,1.87,8.24,8.24,0,0,0,6.06-2.18,7.26,7.26,0,0,0,2.33-5.74c0-3.11-2.65-5.91-7.77-8.39-.78-.31-1.24-.62-1.71-.78-5.9-2.8-9.79-5.44-11.65-7.77a12.43,12.43,0,0,1-3-8.54,13.71,13.71,0,0,1,4.35-10.56,16.71,16.71,0,0,1,11.49-4,19,19,0,0,1,9.79,2.33,11.84,11.84,0,0,1,5.44,6.52L583.78,184a10.39,10.39,0,0,0-3.58-3.73,8.28,8.28,0,0,0-4.35-1.09,8.12,8.12,0,0,0-5.59,1.87,6,6,0,0,0-2,4.81c0,3.27,3,6.22,9,9,.47.16.78.47,1.09.47,5.28,2.49,8.85,4.82,10.87,7.15a12.56,12.56,0,0,1,2.95,8.69c0,5-1.55,9-4.81,12s-7.46,4.5-12.89,4.5a19.39,19.39,0,0,1-11.19-3.11,15.09,15.09,0,0,1-5.28-8.85Zm41.17-39.61a4.18,4.18,0,0,1-4.2,4.19,4.31,4.31,0,0,1-4.35-4.19,4.28,4.28,0,0,1,8.55,0Zm-7.62,0a3.19,3.19,0,0,0,3.27,3.26,3.06,3.06,0,0,0,3.1-3.26,3.32,3.32,0,0,0-3.26-3.42A3.4,3.4,0,0,0,591.54,176.08Zm2.64,2.17h-.93v-4.19c.31,0,.93-.16,1.56-.16a2.66,2.66,0,0,1,1.39.31,1.33,1.33,0,0,1,.47.94q0,.69-.93.93c.46.15.62.46.77,1.09s.16.93.32,1.08h-1.09c-.16-.15-.16-.46-.31-1.08,0-.47-.31-.63-.94-.63H594v1.71Zm0-2.33h.47c.47,0,.93-.15.93-.62,0-.31-.31-.62-.93-.62h-.47Z"></path><path class="cls-1" d="M14.15,159.15v81.7h89.16v-81.7ZM28,173H42.26v14.14H28Zm61.21,53.9H36.83A8.85,8.85,0,0,1,28,218V192.23H41.8v20.82H75.19V186.8H60.75v14.29H47.39V173H80.48a8.76,8.76,0,0,1,8.7,9Z"></path></g></svg> 