<?xml version="1.0" encoding="UTF-8"?> <svg xmlns="http://www.w3.org/2000/svg" id="iprn-product-of-the-year" viewBox="0 0 216 216"><defs><style> .cls-1 { fill: #fff; } </style></defs><g><rect class="cls-1" x="147.55" y="53.3" height="64.07" transform="translate(-17.14 129.27) rotate(-44.98)"></rect><path class="cls-1" d="M110.52,140.7h0l0,0a3.56,3.56,0,0,0-2.47-.92,3.5,3.5,0,0,0-2.46.92h0l0,0L92,154.2l11,11h10l11-11Zm1.28,4.6h.5v2.31h2.31v.5H112.3v2.31h-.5v-2.31h-2.31v-.5h2.31Zm-6.36,7.46v-.5h2.31V150h.5v2.3h2.31v.5h-2.31v2.31h-.5v-2.31Zm0-9.8h2.31v-2.31h.5V143h2.31v.5h-2.31v2.31h-.5v-2.31h-2.31Zm-4,4.65h2.31V145.3h.5v2.31h2.31v.5H104.2v2.31h-.5v-2.31h-2.31Zm-1.24,7.46h-.5v-2.31H97.34v-.5h2.31V150h.5v2.3h2.31v.5h-2.31Zm4,4.65h-.5v-2.3h-2.31v-.5h2.31v-2.31h.5v2.31h2.31v.5H104.2Zm6.36,2.35h-2.31v2.31h-.5v-2.31h-2.31v-.5h2.31v-2.31h.5v2.31h2.31Zm4-4.65H112.3v2.3h-.5v-2.3h-2.31v-.5h2.31v-2.31h.5v2.31h2.31Zm1.74-4.66v2.31h-.5v-2.31h-2.31v-.5h2.31V150h.5v2.3h2.31v.5Z"></path><g><path class="cls-1" d="M143.78,69.17l-.53.53.27.27a.36.36,0,0,0,.57,0c.16-.16.17-.35,0-.56Z"></path><path class="cls-1" d="M138.25,59.11c.17-.17.18-.35,0-.57l-.28-.27-.51.52.27.27C137.91,59.27,138.1,59.26,138.25,59.11Z"></path><path class="cls-1" d="M140.49,63.05a.73.73,0,0,0,1.08,0,.74.74,0,1,0-1-1A.73.73,0,0,0,140.49,63.05Z"></path><polygon class="cls-1" points="164.01 85.93 164.46 84.96 163.5 85.42 164.01 85.93"></polygon><path class="cls-1" d="M142.29,64.83a.71.71,0,0,0,1.11,0,.72.72,0,0,0,0-1.12l-.26-.25L142,64.58Z"></path><path class="cls-1" d="M139.83,60.68a.36.36,0,0,0,0-.56l-.27-.27-.54.53.27.27A.37.37,0,0,0,139.83,60.68Z"></path><path class="cls-1" d="M151.61,71.92a.73.73,0,0,0-1.08,0,.74.74,0,1,0,1,1A.73.73,0,0,0,151.61,71.92Z"></path><path class="cls-1" d="M179.4,93.53,139.31,53.42h-5.2l-8.38,8.38L171,107.12l8.38-8.39Zm-35.85-30a1,1,0,0,1,0,1.46,1,1,0,0,1-1.45,0l-.44-.44,1.41-1.41Zm-1.78-1.8a1,1,0,1,1-1.43,0A1,1,0,0,1,141.77,61.77Zm-2.29-2.26.46.46a.59.59,0,0,1,.08.9.58.58,0,0,1-.75.07l-.23.94-.22-.22.24-.91-.22-.22-.58.58-.19-.19Zm-1.57-1.57.46.45a.59.59,0,0,1,.07.9c-.21.22-.54.27-.89-.08l-.28-.27-.58.59-.19-.18ZM135.13,63l.81-1.46-1.48.8-.2-.21,1-1.8.2.19-.89,1.51,1.54-.86.2.21-.86,1.51L137,62l.2.2-1.82,1Zm1.22,1.22,1.41-1.41.18.19-1.41,1.41Zm1.82,1.83.39-1.87-1.13,1.13-.18-.19,1.41-1.41.19.18-.38,1.87,1.12-1.12.18.18-1.41,1.41ZM140,67.9l.38-1.86-1.12,1.12-.19-.18,1.42-1.42.18.19-.38,1.86,1.12-1.12.19.18-1.42,1.42Zm1.81,1.51-.15.15-.76-.76,1.41-1.41.76.76-.15.15-.58-.58-.47.48.52.51-.16.15-.51-.51-.49.48Zm2.47.78a.57.57,0,0,1-.74.07l-.24.94-.22-.22.24-.91-.22-.22-.58.58-.18-.19,1.41-1.41.45.46A.59.59,0,0,1,144.28,70.19ZM144,66.92a.7.7,0,0,1,0-1.07l.89-.89.18.19-.89.89a.46.46,0,0,0,0,.72.45.45,0,0,0,.71,0l.9-.89L146,66l-.89.89A.71.71,0,0,1,144,66.92Zm3.16.59a.79.79,0,0,0-1.12,1.12.63.63,0,0,0,.7.17L147,69a.93.93,0,0,1-1.08-.23,1,1,0,0,1,1.44-1.44.93.93,0,0,1,.23,1.08l-.22-.22A.63.63,0,0,0,147.2,67.51Zm2.19,2.21-.38-.39-1.26,1.26-.19-.18,1.26-1.26-.38-.39.15-.15.95,1Zm.94,3.48a1,1,0,1,1,1.43,0A1,1,0,0,1,150.33,73.2Zm3.42.88-.61-.62-.48.48.5.5-.15.15-.5-.5-.63.64-.19-.19,1.41-1.41.8.8Zm.61,3.12,1.26-1.26-.39-.38.15-.15,1,1-.15.15-.39-.38-1.26,1.26Zm2.1,2.1.64-.63-.72-.72-.64.64-.19-.19L157,77l.18.19-.62.61.72.72.62-.62.18.19-1.41,1.41Zm2.91.4-.57-.57-.47.47.51.51-.15.15-.51-.51-.49.48.58.58-.16.15-.76-.76,1.42-1.41.76.76Zm.9,3.41-.19-.18.53-.53.42-1.34.2.2-.36,1.06,1.06-.36.21.2-1.34.42Zm2,1.67-.15.15-.76-.76,1.41-1.41.76.75-.15.16-.57-.58-.48.47.52.52-.15.15-.52-.52-.48.49Zm1.48,1.78.2-.43-.62-.62-.42.2-.2-.19,1.91-.89.22.21-.9,1.91Zm2.76.76a.56.56,0,0,1-.74.07l-.24,1-.22-.22.24-.92-.22-.22-.58.58-.18-.19L165.94,86l.45.46A.59.59,0,0,1,166.47,87.32Z"></path><path class="cls-1" d="M166,86.3l-.53.53.27.27a.36.36,0,0,0,.57,0c.16-.16.17-.35,0-.56Z"></path></g><g><polygon class="cls-1" points="53.96 83.94 52.99 83.48 53.45 84.45 53.96 83.94"></polygon><polygon class="cls-1" points="58.1 79.8 57.13 79.34 57.59 80.31 58.1 79.8"></polygon><polygon class="cls-1" points="49.97 87.92 49.01 87.47 49.46 88.43 49.97 87.92"></polygon><polygon class="cls-1" points="42.79 95.1 41.83 94.65 42.28 95.61 42.79 95.1"></polygon><path class="cls-1" d="M58.75,77.56l-.28.27.54.54.27-.28a.36.36,0,0,0,0-.57C59.15,77.36,59,77.35,58.75,77.56Z"></path><path class="cls-1" d="M60.36,75.94l-.26.26,1.11,1.11.26-.26a.71.71,0,0,0,0-1.11A.72.72,0,0,0,60.36,75.94Z"></path><path class="cls-1" d="M81.89,53.42h-5.2L36.6,93.52v5.2L45,107.14,90.29,61.82Zm-38.47,42L43,95.2l-.61.62.2.42-.19.2-.9-1.91.22-.22,1.91.9Zm1.75-1.74-1.87-.38,1.12,1.12-.18.18-1.41-1.41L43,93l1.86.38-1.12-1.12.19-.19,1.41,1.41ZM47,91.83l-1.86-.38,1.12,1.12-.19.19-1.41-1.41.19-.19,1.86.38-1.12-1.12.18-.18,1.41,1.41Zm1.44-1.41a.71.71,0,0,1-1.07,0l-.89-.89.19-.19.89.9a.49.49,0,1,0,.69-.7l-.89-.89.19-.18.89.89A.7.7,0,0,1,48.43,90.42Zm2.17-2.2-.42-.2-.62.61.2.43-.19.2-.89-1.92.21-.21,1.91.9Zm.82-.82L50,86l.19-.18,1.26,1.26.49-.5.15.15Zm3.17-3.16-.43-.2-.61.61.2.43-.2.19-.89-1.91.21-.21,1.91.89Zm2-2-1.46-.81.8,1.48-.21.2-1.8-1,.19-.2,1.51.89-.86-1.54.21-.2,1.51.86-.88-1.5.2-.2,1,1.82Zm2.17-2.17-.43-.2-.61.62.2.43-.2.19-.89-1.91L57,79l1.91.9Zm1.56-1.56-.91-.24-.22.22.57.58-.18.18-1.41-1.41.45-.45a.6.6,0,0,1,.91-.08.57.57,0,0,1,.07.74l.94.24Zm1.33-1.33-.44.44-1.41-1.41.44-.44a1,1,0,0,1,1.46,0A1,1,0,0,1,61.62,77.2Zm1.85-1.82a.6.6,0,0,1-.87.09l.19-.19a.38.38,0,0,0,.53-.06.35.35,0,0,0,0-.52c-.38-.38-.9.63-1.43.1A.57.57,0,0,1,62,74a.6.6,0,0,1,.83-.11l-.2.2a.37.37,0,0,0-.48.07.33.33,0,0,0-.05.5c.37.36.9-.62,1.43-.1A.6.6,0,0,1,63.47,75.38Z"></path></g><path class="cls-1" d="M78.11,99.57l0,0Z"></path><path class="cls-1" d="M76.41,97.12l.08-.05Z"></path><g><path class="cls-1" d="M118.48,115.31c0-.25-.14-.42-.47-.42h-.44v.85H118C118.34,115.74,118.48,115.56,118.48,115.31Z"></path><path class="cls-1" d="M144.33,118.9a.89.89,0,1,0,.82.89A.82.82,0,0,0,144.33,118.9Z"></path><polygon class="cls-1" points="115.68 120.18 116.49 120.18 116.09 119.05 115.68 120.18"></polygon><path class="cls-1" d="M119,109.27c2.29,0,4.16-2.24,4.16-5s-1.87-5-4.16-5a4.39,4.39,0,0,0-4,3.71v2.57A4.38,4.38,0,0,0,119,109.27Z"></path><ellipse class="cls-1" cx="130.28" cy="115.77" rx="0.83" ry="0.89"></ellipse><polygon class="cls-1" points="123.16 116.16 123.97 116.16 123.57 115.03 123.16 116.16"></polygon><path class="cls-1" d="M142.39,114.89H142v.83h.43c.34,0,.48-.16.48-.41S142.73,114.89,142.39,114.89Z"></path><path class="cls-1" d="M122.88,118.9a.89.89,0,1,0,.83.89A.81.81,0,0,0,122.88,118.9Z"></path><path class="cls-1" d="M147.68,119.33c0-.25-.15-.42-.48-.42h-.43v.85h.43C147.53,119.76,147.68,119.58,147.68,119.33Z"></path><polygon class="cls-1" points="135.76 116.16 136.58 116.16 136.17 115.03 135.76 116.16"></polygon><path class="cls-1" d="M109.54,119.33c0-.25-.15-.42-.48-.42h-.43v.85h.43C109.39,119.76,109.54,119.58,109.54,119.33Z"></path><path class="cls-1" d="M113,50.82H103L39,114.9v10l40.32,40.32,25.34-25.34a5,5,0,0,1,6.74,0l25.34,25.34,40.3-40.3v-10ZM99,98.41l.1.12a1.51,1.51,0,0,0-2.59,1.54,15.1,15.1,0,0,0-20.72-4.51h0a1.52,1.52,0,0,0,.51-1.13,1.56,1.56,0,0,0-.18-.71L76,93.53a1.52,1.52,0,0,0-1.22-.61,1.44,1.44,0,0,0-.65.15A18.12,18.12,0,0,1,99,98.41Zm-13.21-.3h0a10.07,10.07,0,0,0-2.06-.21,10.43,10.43,0,0,0-5.55,1.61,1.51,1.51,0,0,0-.95-2.66,1.46,1.46,0,0,0-.75.21h0a13.37,13.37,0,0,1,7.25-2.14,13.69,13.69,0,0,1,2.65.26h-.13a1.5,1.5,0,0,0-.46,2.93Zm.13,0h0Zm-8.69,1.71a1.58,1.58,0,0,0,.68-.16,10.44,10.44,0,0,0-4.41,6.47,1.49,1.49,0,1,1-2.92-.62,13.44,13.44,0,0,1,5.77-8.4,1.5,1.5,0,0,0,.88,2.71Zm6.63.19a8,8,0,0,1,1.69.18A1.48,1.48,0,0,1,86.74,102,1.49,1.49,0,0,1,85,103.14a5.57,5.57,0,0,0-1.08-.11,5.33,5.33,0,1,0,2.73,9.9h0a1.52,1.52,0,0,0,.87,2.77,1.6,1.6,0,0,0,.39,0h0a8.32,8.32,0,1,1-4-15.61Zm4.43,5.36a1.49,1.49,0,1,1,2.48-1.67,8.32,8.32,0,0,1-2.15,11.44,1.54,1.54,0,0,0,.37-1,1.52,1.52,0,0,0-1.53-1.52,1.6,1.6,0,0,0-.72.18h0a5.33,5.33,0,0,0,1.55-7.43Zm0,10.06h0Zm-8.71,4.21a1.49,1.49,0,0,1,1.79-1.12,11,11,0,0,0,2.37.26,10.42,10.42,0,0,0,5.33-1.46,1.5,1.5,0,0,0-.52,1.14A1.52,1.52,0,0,0,90.09,120a1.46,1.46,0,0,0,.55-.11h0a13.34,13.34,0,0,1-6.88,1.91,14,14,0,0,1-3-.34A1.5,1.5,0,0,1,79.6,119.67Zm11.15.18.13-.08Zm-.08-2.76a1.4,1.4,0,0,0-.58-.12,1.53,1.53,0,0,0-.6.12h0a10.47,10.47,0,0,0,4.43-6.28.86.86,0,0,0,0,.23,1.5,1.5,0,0,0,2.9.55h0a13.49,13.49,0,0,1-5.69,8l0,0a1.5,1.5,0,0,0,.53-1.15A1.52,1.52,0,0,0,90.67,117.09Zm-1.4.12h0ZM96.9,111v0Zm0,0v0a1.5,1.5,0,0,0-2.93-.44,10.78,10.78,0,0,0,.24-2.22,10.47,10.47,0,0,0-8.14-10.2l.21,0a1.5,1.5,0,0,0,1.5-1.5,1.52,1.52,0,0,0-1-1.42A13.4,13.4,0,0,1,96.9,111.14S96.91,111.07,96.91,111Zm0,.25v0Zm-23-18a1.49,1.49,0,0,0-.53,1.14A1.52,1.52,0,0,0,74.81,96a1.6,1.6,0,0,0,.62-.13A15.11,15.11,0,0,0,71,116.29a1.51,1.51,0,0,0-2.7.9,1.44,1.44,0,0,0,.17.69,18.1,18.1,0,0,1,5.36-24.59Zm19.59,30.48a18.12,18.12,0,0,1-24.83-5.7h0a1.52,1.52,0,0,0,1.22.61,1.49,1.49,0,0,0,1.5-1.49,1.4,1.4,0,0,0-.18-.7l0,0a15.12,15.12,0,0,0,20.72,4.69h0a1.51,1.51,0,0,0,.86,2.73,1.53,1.53,0,0,0,.71-.18Zm.21-.13a1.53,1.53,0,0,0,.6-1.21,1.5,1.5,0,0,0-1.5-1.5,1.4,1.4,0,0,0-.7.18h0a15.13,15.13,0,0,0,4.73-20.71,1.49,1.49,0,0,0,1.15.54,1.51,1.51,0,0,0,1.51-1.52,1.62,1.62,0,0,0-.11-.58,18.13,18.13,0,0,1-5.68,24.8Zm56-9h.29v2h.79v.24h-1.08ZM107.86,95A1.12,1.12,0,1,1,109,96.11,1.13,1.13,0,0,1,107.86,95Zm.36,3.84a.78.78,0,1,1,1.52,0v10.89a.88.88,0,0,1-.79.93c-.44,0-.73-.42-.73-.93Zm.41,15.82v2.25h-.29v-2.25Zm.89,6.26L109,120h-.35v.91h-.29v-2.24h.72c.53,0,.78.29.78.66a.64.64,0,0,1-.54.65l.57.93Zm.54-4h-.29v-2.25h.29l1.18,1.78v-1.78h.29v2.25h-.29l-1.18-1.79Zm2.08,2h-.92v.75H112v.24h-.82v.77h.92v.24h-1.21v-2.24h1.21Zm.33-4v-.24H114v.24h-.61v2h-.29v-2Zm1.83,6h-1.08v-2.24h.29v2h.79Zm-.06-7.88a.85.85,0,0,1-.77-.93V98.78a.77.77,0,1,1,1.52,0v1.11a5.23,5.23,0,0,1,4-2c3.06,0,5.53,2.86,5.53,6.38s-2.47,6.37-5.53,6.37a5.23,5.23,0,0,1-4-2v3.44A.84.84,0,0,1,114.24,113Zm.75,1.62h1.21v.24h-.92v.75h.82v.24h-.82v.77h.92v.25H115Zm1.76,6.26-.18-.49h-1l-.18.49h-.31l.81-2.22h.34l.8,2.22Zm.82-4h-.29v-2.25H118c.52,0,.77.3.77.66a.63.63,0,0,1-.53.65l.56.94h-.35l-.53-.92h-.36Zm1.87,2h-.61v2h-.3v-2h-.61v-.24h1.52Zm1.29,2h-.29v-2.24h.29Zm.86-4h-.29l-1.18-1.79v1.79h-.29v-2.25h.29l1.18,1.78v-1.78h.29Zm1.29,4a1.15,1.15,0,1,1,1.13-1.15A1.11,1.11,0,0,1,122.88,120.94Zm1.36-4-.18-.5h-1l-.18.5h-.31l.81-2.23h.34l.81,2.23Zm2.56,4h-.3l-1.17-1.78v1.78H125v-2.24h.3l1.17,1.78v-1.78h.3Zm.08-6h-.61v2H126v-2h-.61v-.24h1.52Zm.3-4.24a.85.85,0,0,1-.78-.93V98.83a.85.85,0,0,1,.78-.93.86.86,0,0,1,.75.93V100a5.77,5.77,0,0,1,4.43-2.12c.21,0,.6,0,.6,0a.7.7,0,0,1,.62.69.69.69,0,0,1-.69.69h-.07s-.3,0-.46,0a4.68,4.68,0,0,0-4.43,3.76v6.68A.84.84,0,0,1,127.18,110.65Zm.66,4h.29v2.25h-.29Zm.81,6.29c-.45,0-.77-.25-.78-.62h.31a.42.42,0,0,0,.47.37c.28,0,.45-.16.45-.37,0-.61-1.22-.22-1.22-1.06,0-.37.3-.62.75-.62a.68.68,0,0,1,.74.58h-.32a.42.42,0,0,0-.44-.33c-.24,0-.43.12-.43.36,0,.58,1.21.22,1.21,1A.67.67,0,0,1,128.65,120.94Zm1.63-4a1.15,1.15,0,1,1,1.13-1.15A1.11,1.11,0,0,1,130.28,116.92Zm3.44,4h-.29l-1.18-1.78v1.78H132v-2.24h.29l1.18,1.78v-1.78h.29Zm.48-4h-.3l-1.17-1.79v1.79h-.3v-2.25h.3l1.17,1.78v-1.78h.3Zm1.87,2h-.92v.75H136v.24h-.82v.77h.92v.24h-1.21v-2.24h1.21Zm.59-2.51h-1l-.18.5h-.31l.81-2.23h.34l.81,2.23h-.31Zm1.87,2.51h-.61v2h-.29v-2H137v-.24h1.52Zm.69-2h-1.08v-2.25h.29v2h.79Zm2.48,4h-.33l-.52-1.8-.54,1.8H140l-.62-2.25h.31l.49,1.9.54-1.9H141l.51,1.9.49-1.9h.32Zm.69-5H142v.94h-.29v-2.25h.72c.53,0,.78.29.78.66S143,116,142.39,116Zm1.94,5a1.15,1.15,0,1,1,1.12-1.15A1.11,1.11,0,0,1,144.33,120.94Zm1.52-4.87a.85.85,0,1,1-1.69,0v-1.42h.3v1.42a.55.55,0,1,0,1.1,0v-1.42h.29Zm.51-6.29a.72.72,0,1,1-1.42,0v-5.07h0v-.36c0-2.78-1.82-5-4.18-5s-4,2.26-4,5v5.38a.78.78,0,1,1-1.53,0V98.83a.85.85,0,0,1,.77-.93.86.86,0,0,1,.76.93v1.09a5.21,5.21,0,0,1,4-2c3.07,0,5.6,2.6,5.6,6.44v.37h0Zm1.3,11.13-.54-.91h-.35v.91h-.29v-2.24h.72c.53,0,.78.29.78.66a.64.64,0,0,1-.54.65l.57.93Zm.16-4H147v-2.25h.81c.47,0,.71.26.71.57a.52.52,0,0,1-.4.52.56.56,0,0,1,.45.55C148.55,116.63,148.28,116.9,147.82,116.9Zm2.47,4-.93-1v1h-.29v-2.24h.29v1l.93-1h.37l-1,1.12,1,1.12Zm1.62-4h-.29v-2.25h.29Zm2.15-.24a.7.7,0,0,0,.69-.42h.35a1.05,1.05,0,0,1-1,.67,1.15,1.15,0,0,1,0-2.29,1.06,1.06,0,0,1,1,.68h-.35a.7.7,0,0,0-.69-.42.89.89,0,0,0,0,1.78Z"></path><path class="cls-1" d="M147.78,115.86h-.51v.79h.52c.29,0,.47-.14.47-.39S148.07,115.86,147.78,115.86Z"></path><path class="cls-1" d="M148.2,115.26c0-.22-.15-.37-.44-.37h-.49v.73h.5C148,115.62,148.2,115.49,148.2,115.26Z"></path></g></g></svg> 