<?xml version="1.0" encoding="UTF-8"?> <svg xmlns="http://www.w3.org/2000/svg" id="_2020-marcom-platinum-winner" data-name="2020-marcom-platinum-winner" viewBox="0 0 216 216"><defs><style> .cls-1 { fill: #fff; } </style></defs><g><polygon class="cls-1" points="95.57 115.65 95.54 115.65 94.45 120.73 96.66 120.2 95.57 115.65"></polygon><path class="cls-1" d="M116.59,77.13l-.69.16v2l.61-.15a1.21,1.21,0,0,0,1.1-1.28C117.6,77.21,117.25,77,116.59,77.13Z"></path><path class="cls-1" d="M81.23,120.41c0-1-.44-1.54-1.58-1.27l-1,.22v3.26l1-.24A1.88,1.88,0,0,0,81.23,120.41Z"></path><path class="cls-1" d="M86.27,89.92c1-.23,1.58-1,1.58-3.5,0-1.27,0-3.13-1.58-2.75s-1.57,2.46-1.57,3.5C84.7,89.74,85.29,90.16,86.27,89.92Z"></path><path class="cls-1" d="M127.34,73.78c-1.41.34-1.91,1.78-1.91,3.67s.41,3.11,1.91,2.76c1.32-.31,1.9-1.48,1.9-3.66C129.24,74.69,128.8,73.43,127.34,73.78Z"></path><path class="cls-1" d="M125.92,144.34l-.94.22v2.71l.83-.19a1.67,1.67,0,0,0,1.5-1.76C127.3,144.45,126.82,144.13,125.92,144.34Z"></path><path class="cls-1" d="M96,81.37c-1.57.37-1.57,2.46-1.57,3.5,0,2.59.58,3,1.57,2.75s1.57-1,1.57-3.5C97.56,82.85,97.56,81,96,81.37Z"></path><polygon class="cls-1" points="111.12 78.59 110.42 81.84 111.84 81.51 111.14 78.59 111.12 78.59"></polygon><path class="cls-1" d="M119.14,88,142,82.57h0V62.93h0L87.39,52.11l7.92,12.1-4,2.61c-.18-.23-.31-.43-.4-.56a21.15,21.15,0,0,1-1.34-2.87l-.06-.16A17.1,17.1,0,0,0,87,60.15c-.65-.72-1.2-1.35-1.38-1.59s-.6-.75-1-1.25c-.3-.33-.61-.7-.77-.91l-.06-.09,0-.11a7.11,7.11,0,0,1-.24-1,3.79,3.79,0,0,0-.63-1.59l-.06-.1,0-.11c0-.18-.06-.47-.08-.73s0-.42-.06-.48a3.1,3.1,0,0,0-.37-1.08l0-.09,0-.17a3.81,3.81,0,0,0-.13-.42.72.72,0,0,0-.11-.19l-.1-.16v-.2c0-1.07.12-4.66.29-5.85a4.62,4.62,0,0,1,.27-1l0,0,0-.05a1.17,1.17,0,0,0,.13-1l0-.06v-.1a1.59,1.59,0,0,0-.08-.35l-.06-.17,0-.19c0-.19.08-.36.1-.5a5.77,5.77,0,0,0-.13-1.73c0-.09-.07-.26-.12-.42v0a5.25,5.25,0,0,1-.17-.65h0v0a1.24,1.24,0,0,0-.54-1l-.14-.1-.07-.16a1.63,1.63,0,0,1-.09-.19,1.11,1.11,0,0,0-.89-.65h-.17l-.13-.08a1,1,0,0,0-.56-.15,1.42,1.42,0,0,0-.92.36,5.38,5.38,0,0,0-1,1.58l-.07.18,0,0a2.79,2.79,0,0,0-.28.91A10.43,10.43,0,0,1,76.94,40v0l0,0a1.91,1.91,0,0,0-.16,1l0,.22-.12.18a.94.94,0,0,0-.16.63v.15a1.28,1.28,0,0,0,.23.84.44.44,0,0,0,0,.09,2.79,2.79,0,0,1,.3.91c0,.26.08,1,.14,1.52l0,.34-.26.21a1.81,1.81,0,0,0-.59,1,8.68,8.68,0,0,0-.06,1.77V49l0,.1c0,.07-.06.18-.1.32a2.26,2.26,0,0,0,0,1.12l0,.14,0,.13s0,.08,0,.12h0A2,2,0,0,0,76.31,52l.06.16-.05.19a3.59,3.59,0,0,0,.46,2,7.81,7.81,0,0,0,1,1.58l.18.23,0,.27a1.23,1.23,0,0,0,0,.27,1.58,1.58,0,0,0,.18.73l0,.07,0,.09s.07.26.09.35v0h0c.07.62.45,1.67,1.4,1.67a2.09,2.09,0,0,0,.34,0l.43-.1.24.38c.49.78.92,1.54,1.29,2.26.77,1.54,1.43,2.68,2.17,4l.17.31c.28.48.55,1,.85,1.51a15.44,15.44,0,0,0,1.34,2L84.62,71.2l3.43.68q1.24,1.41,3,3.14l-16.94,4h0v0h0V98.71l.08,0L98,103.43c.32.68.77,1.55,1.15,2.29v0a3.53,3.53,0,0,1,.16.41v0a11.91,11.91,0,0,0,.91,2.23l-39.7,9.43v19.64l.05,0v.09l36.22,7.18L74,150.16v19.66l31.76,6.29c1.44,1.5,2.5,2.61,2.83,3a1.77,1.77,0,0,0,2.24.53l3.51-1.81,14.24,2.82-5-7.67c5.06-2.71,10.23-5.56,12.52-7.11.86-.58.63-1.21.59-1.34-.13-.38-1.44-4.37-2.93-8.91l8.24-2V134.09l.06,0H142v0l-.07,0-22-4.37a2.71,2.71,0,0,0,1.09-1.31,52.91,52.91,0,0,0,1.48-5.56l33.06-7.85V95.18ZM80.28,37.21a.78.78,0,0,0,0-.14l0-.19.07.17.12.28.09.21.22,0a.36.36,0,0,1,.13,0v0h0a5.23,5.23,0,0,0,.23,1,2.1,2.1,0,0,1,.09.33.61.61,0,0,1,0,.13v0h0a3.14,3.14,0,0,0,0,.53.57.57,0,0,1-.19.5.42.42,0,0,1-.25.09h-.06v0s-.07-.38-.14-.92a.74.74,0,0,1,.14-.54c.08-.15.13-.23,0-.4a2.08,2.08,0,0,0-.2-.21c-.22-.22-.35-.36-.32-.65C80.25,37.37,80.27,37.28,80.28,37.21Zm.12,3.62a.7.7,0,0,0,.67-.24.71.71,0,0,1,.18-.15l0,0,.11-.09,0,.13c-.07.31-.17.65-.18.69l-.05.21.16.15a.41.41,0,0,1,.11.21,1.13,1.13,0,0,1,0,.22h0V42h-.24l-1-.07h0v0a3.84,3.84,0,0,0-.27-.64c-.09-.18-.11-.29-.06-.36S80.07,40.83,80.4,40.83Zm-1.28-3s.11,0,.2,0a.88.88,0,0,1,.24.35.73.73,0,0,0,.23.32.31.31,0,0,0,.16.07c.14,0,.21.09.23.44a6.17,6.17,0,0,1,0,1v.06l-.07,0a1.46,1.46,0,0,1-.94-1.23c0-.23,0-.42,0-.57C79.08,38,79.06,37.91,79.12,37.86Zm-1,2.56a5.94,5.94,0,0,0,.36-1.33l0-.23.06.23c.06.27.33.46.54.61l.07.06c.29.22,0,.93,0,1a.57.57,0,0,1-.48.37.46.46,0,0,1-.27,0h0s-.11.09-.13.13l-.07.07,0-.09A1.43,1.43,0,0,1,78.11,40.42Zm-.24,1.79a.44.44,0,0,0,0-.3l0,0,0,0,0,0h0l.38-.12-.11-.32.05,0a2.33,2.33,0,0,1,.62-.1.16.16,0,0,1,.11.06.45.45,0,0,1,.1.33c0,.26-.15.29-.35.32a1.46,1.46,0,0,0-.35.1,2.36,2.36,0,0,0-.45.22l0,0-.05-.08Zm-.21,5.58a5.71,5.71,0,0,1,0-.58.71.71,0,0,1,.08-.18v0h0c.16,0,.21.15.27.36,0,.05,0,.1,0,.14l0,0,0,0s-.17.13-.37.26l-.08.05Zm-.11,1.63c.09-.3.11-.38.11-.38l0,0v-.05c0-.14,0-.31,0-.49v0h0a3,3,0,0,1,.57-.39l.06,0v.07a5.2,5.2,0,0,1,0,.52c0,.24-.14.38-.38.61l-.17.17a.31.31,0,0,1-.19.12l-.09,0Zm.1,1.12-.1-.2a1.64,1.64,0,0,1-.07-.24h0l0-.11c.15-.38.48-.44.78-.5l0,0v0a1.24,1.24,0,0,1,0,.43c0,.21-.15.29-.34.42a2.77,2.77,0,0,0-.25.19s0,0,0,0l0,0Zm.83,1.1a.45.45,0,0,1-.29.28L78,52a.75.75,0,0,1-.24.1h-.06l0-.24,0-.08v0c.06-.23.25-.34.65-.48h0l0,0A.43.43,0,0,1,78.48,51.64ZM78.71,47h0l0-.4s-.24-2.33-.26-2.79a3.1,3.1,0,0,0-.28-1l0,0,0,0,.14-.06a1.52,1.52,0,0,1,.35-.07c.32,0,.42.28.49.72l.3,5.1h-.1a5.19,5.19,0,0,0-.46-1.16A1.6,1.6,0,0,0,78.71,47Zm.86,9.27,0,.22h-.34l.15-.11v-.78l-.09-.1L79,55.21h0l0-.58a5.13,5.13,0,0,1,.17-.83,4.84,4.84,0,0,1,.48-.89l.1-.15Zm.48,1.36A1.12,1.12,0,0,1,80,58a.3.3,0,0,0,0,.08l-.06.14,0-.14a1,1,0,0,1,0-.29c0-.34,0-.94,0-.95v-.05l.32,0Zm.61-7.16h0c-.09.06-.2.19-.3.55a5,5,0,0,0,.24,2.06h0l0,3.4h-.81L80,42.89a.68.68,0,0,1,.56-.4h.14c.21,0,.39,0,.42.43h0a6.36,6.36,0,0,0-.16.75c-.24,1.58-.32,6.54-.32,6.74Zm.78,2a1,1,0,0,1-.69-.69,2,2,0,0,1,0-.89v0L81,50.8v.05L81,51a1.46,1.46,0,0,0,.2.56,2.28,2.28,0,0,1,.25.73,1.15,1.15,0,0,0,0,.14v.07Zm36.33,30.23a1.1,1.1,0,0,1-.19-.68l0-1.3c0-.53-.27-.8-.86-.66l-.78.19v2.89l-1.45.35V76.61l2.69-.63c1.19-.28,1.91.14,1.91,1.31a2,2,0,0,1-1.2,2v0c1-.11,1.14.37,1.16,1.82,0,.71,0,1.09.32,1.16v0Zm2.62,14a2.55,2.55,0,0,0,.25.75s0,0,0,.05c.44,1.4,1,3.55,1.41,4.85l0,.06.06.15c0,.09.09.22.14.36s.06.16.08.23l-.43.11c-.11-.33-.21-.6-.26-.75-.21-.54-1.83-5.1-2.33-6.28a12.13,12.13,0,0,1-.75-2.56,6.49,6.49,0,0,0-2-2.37,12.09,12.09,0,0,1-1.89-2.15.41.41,0,0,0-.06-.11l1.46-.35.17.28a9.88,9.88,0,0,0,1,1.62c.2.21.41.46.61.71a.88.88,0,0,0,.12.21,3.76,3.76,0,0,0,.25.31l.26.34c.05.07.08.14.11.18C118.77,92.68,119.78,95,120.39,96.71Zm-.63-3,.11.08a1.81,1.81,0,0,1,.38.31l.06.1a1.43,1.43,0,0,1,.19,1l0,.59-.08-.23c-.19-.47-.34-.87-.41-1.07a6.09,6.09,0,0,1-.19-.62Zm2,6.13.11.12a1.6,1.6,0,0,1,.53.74.81.81,0,0,1,0,.16v.06h0c-.23,0-.39,0-.45-.31,0-.11-.08-.34-.13-.6Zm-8.15,12.87h0v7.5l-2.08.5V110l2.62-.63,2.75,6.69h0v-7.35l2.08-.49v10.71l-2.59.62Zm4.88,16.55s.19.26-.26.48a6.8,6.8,0,0,1-1.35.48,1.05,1.05,0,0,1-.89-.28,1.73,1.73,0,0,0-1.1-.56c-.36,0,.8-4.12,1.08-5.08l.14,0ZM112,138.58c.07.25.24.56.45.51v-.59a2,2,0,0,1,0-1.26,4.55,4.55,0,0,1,.34-.72c0-.07.09-.17.16-.12s0,.21-.07.3a2.87,2.87,0,0,0-.32,1.4c.11.55.39,1.08.11,1.32s-.75-.1-.92-.49a1.56,1.56,0,0,1,0-1.35c.12-.25.27-.26.34-.2s0,.3,0,.37A1.87,1.87,0,0,0,112,138.58Zm-.72-2.53c.06.09.26-.12.33,0s0,.18-.26.36-.46.37-.62.14c-.3-.43.36-.83.36-.83s.21-.16.26,0S111.19,136,111.24,136.05Zm.59-.44c-.14-.11,0-.26.13-.36s.69-.78.69-.78.14-.26.29-.13-.06.36-.06.36l-.68.76C112.1,135.59,112,135.71,111.83,135.61Zm.46-2.1a9,9,0,0,1-1.44,1.81c-.31.26-.55.47-.66.33s.17-.23.41-.42a6.28,6.28,0,0,0,1.49-2,20.53,20.53,0,0,1,1.73-2.92c.3-.37.55-.53.68-.43s-.6.95-.88,1.35S112.64,132.94,112.29,133.51ZM98.22,144.39c.22-.53,1.92-4.54,2-4.63s.14-.16.23-.09l4.13,3.21ZM99,158.7l-2,.47v-9.38l2-.47Zm1.18-19.88c.08-.07.14,0,.14,0l4.81,3.91-.2.05L100.21,139S100.07,138.89,100.15,138.82Zm.3,10.15,2.3-.54,2.41,5.85h0v-6.42l1.83-.44v9.38l-2.27.54-2.43-6h0v6.56l-1.83.43ZM97.74,94.85c0-.15.05-.3.08-.42l0-.16V94.2l.07,0a.8.8,0,0,1,.17.21h0v0s-.08.81,1.15,2l.69.67c.82.79,1.26,1.22,1.63,1.51a1.26,1.26,0,0,1,.34,1.13c0,.14-.14.16-.19.16a.43.43,0,0,1-.28-.16c-.14-.14-.4-.35-.7-.6a8.23,8.23,0,0,1-2.39-2.55c-.12-.33-.22-.58-.32-.82a5.22,5.22,0,0,1-.31-.92h0ZM96,88c-1.46.35-2-.59-2-3s.63-3.6,2-3.93,2,.58,2,3S97.34,87.63,96,88Zm3.35-23.58-.12,0c-.19,0-.19,0-.51.22l-.07,0v-.09a3.21,3.21,0,0,1,0-.71,2.69,2.69,0,0,0,.13-.36v0l.1-.13a1.54,1.54,0,0,0,.18-.26,1.36,1.36,0,0,1,.19-.26,2.61,2.61,0,0,0,.51-.84l0-.11c0-.06,0-.12,0-.15h0a2,2,0,0,1-.39.14l-.08,0-.12,0,0-.09a1,1,0,0,1,.47-.53,3.85,3.85,0,0,1,.59-.33h0l.14,0,0,0h.22a4.32,4.32,0,0,1,1.61.39c.06,0,.06.08,0,.11s-.23.15-1.19.15c-.51,0-.51,0-.51.07a.51.51,0,0,1-.09.24,4.37,4.37,0,0,0-.26.56,2.91,2.91,0,0,1-.42.83.6.6,0,0,0-.16.57c0,.13.21.19.43.19s.41,0,.43.06,0,.07,0,.1a.28.28,0,0,0-.08.2,5,5,0,0,1-.13,1,.31.31,0,0,1,0,.2.21.21,0,0,1-.15.12,7.72,7.72,0,0,1-1.4.13H98.7l-.19,0h-.05v0a1.67,1.67,0,0,0,.06-.29h0a.85.85,0,0,0,.11-.14,2.86,2.86,0,0,1,.3-.41c.11-.13.22-.27.31-.4a.85.85,0,0,0,.09-.18A0,0,0,0,1,99.33,64.37ZM107,93.19s-.43-.23-.63-1.35a2.45,2.45,0,0,1,0-.83l1.29-.31c1.14.48,4.32,2,4.89,2.3s.93.56,1.18,1c.17.27.92,1.15,1.53,1.86.29.34.55.64.7.83.48.58.21.86.2.87l0,0,0,0a30.88,30.88,0,0,1-4.11-2A43.54,43.54,0,0,0,107,93.19Zm3.45,10.15s1.05.93,2.39,2.07l-1.78.42s0,0,0,0a5.77,5.77,0,0,1-.67-2.41v-.12ZM112.43,84l-.34-1.37-1.92.45-.33,1.53-1.52.36,1.91-7.3,1.8-.43,1.91,6.4ZM108.17,65.8c0,.07-.19.93-.31,1.62-.06.36-.12.73-.18,1s-.09.56-.12.9a11.55,11.55,0,0,0-.33,1.85l-.89.21c0-1.39.06-2.68.09-3a.65.65,0,0,0-.57-.76c-.28,0-1.12-.17-1.12-1,0-.34,0-.63,0-.84a1.38,1.38,0,0,1,0-.43v0a.11.11,0,0,1,.1-.09.85.85,0,0,1,.3.14,2.17,2.17,0,0,1,.33.19,1.85,1.85,0,0,0,.73.34.71.71,0,0,0,.31,0s0,0-.2-.12l-.19-.09a10.33,10.33,0,0,1-2.39-1.31,2,2,0,0,1-.38-1.64,1.52,1.52,0,0,0,.08-.49c0-.16,0-.31.15-.31l.11,0a2.46,2.46,0,0,0,.76.2h.06a1,1,0,0,0-.3-.25l0,0c-.38-.26-.5-.35-.48-.44s.09-.07.26,0a3,3,0,0,0,.54.08h0l-.09-.05-.38-.19c-.28-.13-.35-.16-.33-.23s.08-.06.15-.06a1.24,1.24,0,0,0,.46-.09h-.12l-1.63-.17h0a.46.46,0,0,1-.18-.24.59.59,0,0,1,.11-.44l0,0h0a4.8,4.8,0,0,1,.79-.08A6.39,6.39,0,0,1,104,60a4.82,4.82,0,0,1,1.2.25l.07,0,.55.14a3.36,3.36,0,0,1,.56.14l.12.05a1.79,1.79,0,0,1,.76.44,3.68,3.68,0,0,1,.43,1,5.44,5.44,0,0,1,.14.83V63l.11.1.12.12h0l0,.06c.23.23.73,1,.62,1.43A2.41,2.41,0,0,1,108.17,65.8Zm-8.25,4.46-.13-.05A2.56,2.56,0,0,0,99,70a.54.54,0,0,0-.31.07.13.13,0,0,1-.13,0l0,0v0c0-.15,0-.2,0-.21a1,1,0,0,0,0-.19h0c0-.16.12-.17.26-.18H99a2.69,2.69,0,0,0,.86-.21c.22-.1.17-.77.13-1.26,0-.1,0-.21,0-.31a2,2,0,0,1,.24-1.21c.15-.24.69-.26,1.13-.28h.35v.06a18.47,18.47,0,0,1-.17,2.24c-.11.5-.35,1.18-.6,1.91l-.18.49c-.27.79-.67,1.22-1.12,1.22H99.5c-.43-.07-.63-.49-.75-.81s-.07-.38-.09-.54h0v0c.06-.13.2-.16.4-.22l.1,0a.78.78,0,0,1,.22,0,1.67,1.67,0,0,1,.4.07,1.28,1.28,0,0,0,.34.07c.07,0,.12,0,.12,0S100.14,70.35,99.92,70.26Zm-1.17-3.64a.47.47,0,0,1,.19-.06.1.1,0,0,1,.11.11v.09a2.51,2.51,0,0,1,0,.63c0,.18-.13.28-.25.28a.39.39,0,0,1-.32-.26v-.7h0C98.51,66.62,98.61,66.62,98.75,66.62Zm2.63,19.94V79.71l2.16-.51,1,4.59h0l1-5.08,2.16-.51V85l-1.34.32V79.89h0l-1.28,5.77-1.14.27-1.28-5.17h0v5.46Zm4.54,4.56a2.4,2.4,0,0,0,.67,2.54c1,.83,3.26,2.77,3.41,3.47,0,.14.07.28.11.42a4,4,0,0,1-.06,2.86c-.58,1.58-.77,2.61-.25,3.86.21.53.45,1.12.66,1.72l-2.76.66a12.48,12.48,0,0,1-.84-2.8c-.38-2.44-1-4.85-1.38-6.45-.14-.56-.26-1-.34-1.4a9,9,0,0,0-.89-2,5.64,5.64,0,0,1-.88-2.24Zm3.92,19.28v10.72l-2.27.54V110.94Zm-.56,15.5a4,4,0,0,1,.15.74,7.77,7.77,0,0,1,.06,1l-4-.8Zm.77,3.79a16.64,16.64,0,0,0,.24-4l.34-.08c0,.2,0,.61.05,1.31a16.42,16.42,0,0,1-.56,4,11.08,11.08,0,0,0-.43,2.47,1,1,0,0,1-1,.95c-.49-.07,0-.84.4-1.68A17.87,17.87,0,0,0,110.05,129.69Zm-.19,8.27c0-.16-.14-.21-.3-.29s-.14-.32-.2-.46a.2.2,0,0,0-.35,0,1.29,1.29,0,0,0-.23.36c-.09.16-.07.26-.17.2s0-.34,0-.34a2.57,2.57,0,0,1,.24-.48c.08-.11.22-.3.45-.18s.2.39.25.57.08,0,.29.08.2.12.22.3a7.49,7.49,0,0,1,0,1.31c0,.25,0,.34-.13.34s-.07-.11-.07-.2S109.87,138.11,109.86,138Zm-1.09-2.35a.41.41,0,0,1-.13.49c-.13.13-.5.3-.55.72a6.2,6.2,0,0,0,0,1.06c0,.52-.11,1.05-.25,1s-.2-.69-.5-1.21-.83-.73-1-1.12.09-.73.23-1,.35-.45.53-.36.21,0,.21,0a.34.34,0,0,1,.1-.23c.11-.09.34-.11.68,0A1.39,1.39,0,0,1,108.77,135.61Zm-1.94,5.45c.07,0,.14.05.27.26a4.31,4.31,0,0,0,.83.76l-.34.08c-.08-.09-.34-.35-.49-.54S106.74,141.09,106.83,141.06Zm.07-1.21c-.11-.11-.24-.19-.16-.27s.23.12.23.12a13.82,13.82,0,0,0,1.33,1,7.46,7.46,0,0,0,2,.85l-.64.15a7.22,7.22,0,0,1-.83-.4A12.54,12.54,0,0,1,106.9,139.85Zm4.41-14.43,1.09-.26a1,1,0,0,1-.72.42A.49.49,0,0,1,111.31,125.42Zm6.22-21.12c-2.14-1.38-6.91-4.37-6.91-4.37s.15,0,.19-.72a3.27,3.27,0,0,0-.15-1.29l0-.11.12,0s3.45,1.41,4.3,1.72a6.5,6.5,0,0,1,2.09,1.38l.11.1a21.45,21.45,0,0,1,2.39,2.75Zm-1.11-15.67,1.46-.35A1.75,1.75,0,0,1,118,89c0,.23,0,.44-.06.62s-.06.61-.08.83v.13l-.09-.1a16.85,16.85,0,0,1-1.3-1.84S116.42,88.65,116.42,88.63Zm5.73-6.87c-1.56.37-2.2-.79-2.2-3s.64-3.7,2.32-4.09a1.51,1.51,0,0,1,2,1.6l-.43.1c0-.93-.52-1.63-1.57-1.39-1.44.34-1.91,1.73-1.91,3.65s.39,3.13,1.84,2.79a2.62,2.62,0,0,0,1.73-2.5l.43-.1A3,3,0,0,1,122.15,81.76Zm5.19-1.23c-1.39.33-2.34-.32-2.34-3s1-3.78,2.34-4.1,2.32.33,2.32,3C129.66,79.44,128.36,80.29,127.34,80.53Zm8.71-2.17-.42.1V72.12h0L133.53,79l-.42.1L131,73.21h0v6.34l-.42.1V72.79l.68-.16,2,5.68h0l2-6.63.7-.17v6.86ZM91.51,54.89,137.45,64l-29,6.88a14.09,14.09,0,0,1,.39-1.74c.1-.36.24-.76.35-1.12a11.43,11.43,0,0,0,.76-3.18,3.5,3.5,0,0,0-.91-2.17l-.12-.13,0-.17a3.82,3.82,0,0,0-.11-.55,5,5,0,0,0-.55-1.27,2.72,2.72,0,0,0-1.4-1l-.08,0a4.77,4.77,0,0,0-.76-.21h-.09l-.32-.08h0l-.09,0a5.66,5.66,0,0,0-1.45-.31,7.46,7.46,0,0,0-.84-.06,6.4,6.4,0,0,0-1.55.23,4.32,4.32,0,0,0-1.92.91l-.06.05-.07,0-.59.33A2.25,2.25,0,0,0,97.9,62c-.11.44-.37,1.28-.46,1.51a1.47,1.47,0,0,0-.08.28l-.44-.66Zm4.85,10.93.9-.59a3,3,0,0,1-.08.45,6.39,6.39,0,0,0-.07,1.74V68a6.87,6.87,0,0,0,.06,1.11v.11c0,.21,0,.42,0,.56v.08a1.82,1.82,0,0,0,0,.5l.11,1.13-1-.49a13.88,13.88,0,0,1-3.74-2.7Zm-5.69,4.09a5.37,5.37,0,0,0-.49-.85A15.9,15.9,0,0,0,87.86,67,7.52,7.52,0,0,1,86,64a54.27,54.27,0,0,0-3.87-6.32,2,2,0,0,1-.43-1.43.63.63,0,0,1,.24-.44.49.49,0,0,1,.55.08h0v0c.07.29.15.56.2.71A6.09,6.09,0,0,0,83.74,58c.36.42.73.84,1,1.15s.8,1,1.46,1.69a25.13,25.13,0,0,1,2.28,2.73l.07.16A22.2,22.2,0,0,0,90,66.82a15.37,15.37,0,0,0,6.19,5.29,9.21,9.21,0,0,1,2.17,1.19l-1.51.36a2.25,2.25,0,0,0-.68-.93l-.21-.13a.92.92,0,0,0-.44-.21c-.09,0-.18,0-.35.17a1.29,1.29,0,0,0-.33.65c-.11.33-.22.68-.52.78h-.09c-.39,0-1-.74-1.6-1.45a10.78,10.78,0,0,0-.83-.93A6.73,6.73,0,0,1,90.67,69.91Zm.48,12.6a2,2,0,0,0-1.5,2.1l-.43.1a2.5,2.5,0,0,1,2-2.53C91.93,82,93,82.12,93,83.56A3.29,3.29,0,0,1,91.72,86l-1,1A3.65,3.65,0,0,0,89.59,89l3.5-.82v.36l-3.92.93a3.78,3.78,0,0,1,1.25-2.67l1-1a3.11,3.11,0,0,0,1.17-2.12A1.07,1.07,0,0,0,91.15,82.51Zm-4.88.83c1.49-.35,2,.57,2,3s-.64,3.61-2,3.93-2-.6-2-3S84.9,83.67,86.27,83.34Zm-4.83,1.47a2,2,0,0,0-1.5,2.09l-.43.1a2.51,2.51,0,0,1,2-2.53c.73-.17,1.84-.06,1.84,1.39A3.29,3.29,0,0,1,82,88.26l-1,.95a3.62,3.62,0,0,0-1.18,2.07l3.5-.83v.36l-3.92.94a3.78,3.78,0,0,1,1.25-2.67l1-1A3.15,3.15,0,0,0,82.91,86,1.07,1.07,0,0,0,81.44,84.81ZM78.58,97.62l17.89-4.25.09.27.06.18-.05.19c0,.09,0,.2-.07.35a5.34,5.34,0,0,1-.24,1,3.88,3.88,0,0,0,0,2.56,11.4,11.4,0,0,0,.83,1.81l.1.19,0,.22a3.51,3.51,0,0,0,.08,1.22ZM98,97.23a4.2,4.2,0,0,1-.21-.63c0-.18,0-.23,0-.26l.06,0c.1,0,.27.24.4.44v0a13.67,13.67,0,0,0,2.31,3.57c.55.63.79,1,1,1.2a4.41,4.41,0,0,0,.45.52.69.69,0,0,1,.15.68.25.25,0,0,1-.23.18c-.11,0-.27-.07-.46-.39a8.73,8.73,0,0,0-1-1.27,9.86,9.86,0,0,1-2-2.8A9.82,9.82,0,0,0,98,97.23Zm.9,4.75a8.77,8.77,0,0,1-.32-1.22v-.06h.07a.34.34,0,0,1,.21.12s2,3.25,2.64,4.2l.42.6a9.39,9.39,0,0,1,1.29,2.1l-1.26.3-.08-.1a12.37,12.37,0,0,1-1.07-1.74,3.41,3.41,0,0,1-.13-.4,4,4,0,0,0-.27-.72C99.82,104,99,102.35,98.86,102Zm.41,10.93,7.21-1.71V113l-2.47.58v9l-2.27.54v-9l-2.46.58v-1.76Zm-5.12,1.21,2.81-.66,3,10-2.37.56-.52-2.14-3,.72L93.53,125l-2.37.56Zm-9.52,2.25,2.27-.54v8.94l4-1v1.77l-6.3,1.49Zm-8.21,1.94,4-.94c2.31-.55,3.1.87,3.1,2.48,0,2.21-1.44,3.56-3.59,4.07l-1.22.29v4.27l-2.27.54ZM64.89,136.44,101,127.88l8.35,1.65a31.45,31.45,0,0,1-1,3.57l-.15.45-.07.06a7.62,7.62,0,0,0-1.72,2.11l-5.5,2.27a2,2,0,0,0-1.23.95c-.08.17-.74,1.78-1.67,4.06ZM87.69,152l1.1,6.68h0L90,151.45l1.91-.45,1.16,6.65h0l1.09-7.19,1.91-.45-1.8,9.8-2.23.53L91,153.78h0l-1.11,7.06-2.22.52-1.8-9Zm-9.26,16.73,16.37-3.88c2.54,2.6,5.84,6,8.59,8.83Zm31,9.18c0,.4-.21.43-.37.29s-12.2-12.41-13.33-13.57l14.31-3.4C110,163,109.41,177.53,109.41,177.9Zm.65-.6.41-16.18.66-.16ZM115,154.92l-2.27.54-2.44-6h0V156l-1.83.44V147.1l2.29-.55,2.41,5.85h0V146l1.83-.43Zm-.08-20.31a16.62,16.62,0,0,1-2.47,1.73c-.07.06-.25.14-.3,0s.16-.19.16-.19.53-.31,1.21-.79a21.61,21.61,0,0,0,2.5-2.24c.33-.35.75-.82.72-.91s-.18-.12-.32-.16a.75.75,0,0,1-.43-.55c0-.27.53-.72.91-.68s.34.57.34.57l.1.05c.11.06.07.14-.09.57A13.77,13.77,0,0,1,114.87,134.61Zm1.46,10.61,5.52-1.31v1.54l-3.52.84v2.2l3.32-.78v1.54l-3.32.79v2.52l3.67-.87v1.55l-5.66,1.33Zm3-8.8s-.07-.1,0-.12.11,0,.13.08a2.06,2.06,0,0,1,.07,1.7,3.35,3.35,0,0,1-.74,1.41l-1,.25a4.43,4.43,0,0,0,1.69-2.29A1.27,1.27,0,0,0,119.36,136.42Zm5.06,41.42L117,176.38c1.47-.77,3.1-1.62,4.78-2.52Zm5.27-26.4-2.16.51a1.42,1.42,0,0,1-.25-.93l-.06-1.78c0-.73-.37-1.09-1.17-.9l-1.07.25v4l-2,.47v-9.38l3.68-.87c1.63-.39,2.63.19,2.63,1.79a2.71,2.71,0,0,1-1.64,2.7v0c1.35-.15,1.56.51,1.58,2.49,0,1,.07,1.48.45,1.57v.08Zm7.66-16.34-13.23,3.14-7.26-5c1-1.17,1-1.61,1-2Zm-16.6-8.17c-.28.21-.4.07-.67-.29s-1.31-1.84-2-2.83l.78-.19,1.75,2.52S121,126.71,120.75,126.93Zm3.32-9c-1.85.44-3.6.27-3.6-2.59v-7.48l2.27-.54v7.48c0,1.06.27,1.8,1.33,1.54s1.33-1.11,1.33-2.17v-7.48l2.28-.54v7.48A4.15,4.15,0,0,1,124.07,118Zm15.12-3.78-2.09.49v-8.55h0l-2,9-1.77.42-2-8.08h0v8.55l-2.08.5V105.84l3.38-.8,1.61,7.18h0l1.63-8,3.37-.8v10.71ZM123.5,102.89l-.06-.16-.09-.2.06-.21a4.07,4.07,0,0,0,.19-1.71A3,3,0,0,0,122.53,99l-.13-.11-.06-.17c0-.1-.07-.22-.1-.35-.11-.37-.31-.86-.48-1.3h0a2.77,2.77,0,0,1-.1-.26l-.06-.12v-.35c0-.25,0-.6,0-1a2.51,2.51,0,0,0-.37-1.64l0-.08c0-.1-.22-.4-1-.9l-.12-.08-.08-.12c-.1-.17-.19-.33-.26-.48a4,4,0,0,0-.47-.71h-.37l0-.67c0-.2,0-.48.07-.73L151.2,96.3Z"></path></g></svg> 