<?xml version="1.0" encoding="UTF-8"?> <svg xmlns="http://www.w3.org/2000/svg" id="_2020-marcom-gold-winner" data-name="2020-marcom-gold-winner" viewBox="0 0 216 216"><defs><style> .cls-1 { fill: #fff; } </style></defs><g><path class="cls-1" d="M119.15,88,142,82.57h0V62.94h0L87.39,52.12,95.32,64.2l-4,2.61a5,5,0,0,1-.39-.56,21.13,21.13,0,0,1-1.35-2.86l-.06-.16A17.56,17.56,0,0,0,87,60.14c-.65-.72-1.21-1.34-1.39-1.59s-.6-.74-1-1.24c-.29-.34-.61-.71-.76-.92l-.07-.08,0-.11a6.33,6.33,0,0,1-.23-1,4,4,0,0,0-.64-1.59l-.05-.1,0-.11c0-.18-.06-.47-.08-.73s0-.43-.06-.48a3,3,0,0,0-.37-1.09l0-.09,0-.16a2.51,2.51,0,0,0-.13-.43.64.64,0,0,0-.1-.18L81.86,50v-.19c0-1.07.12-4.66.29-5.85a4.62,4.62,0,0,1,.27-1l0-.06,0,0a1.17,1.17,0,0,0,.13-1l0-.06v-.1a2.41,2.41,0,0,0-.07-.35l-.07-.17,0-.19q.06-.29.09-.51a5.76,5.76,0,0,0-.12-1.72c0-.1-.08-.27-.13-.43h0a3.87,3.87,0,0,1-.16-.65v0h0a1.31,1.31,0,0,0-.55-1l-.14-.1-.07-.16-.09-.19a1.16,1.16,0,0,0-.89-.65h-.15l-.12-.09a1,1,0,0,0-.56-.14,1.47,1.47,0,0,0-.93.35,5.66,5.66,0,0,0-1,1.58c0,.07,0,.12-.07.18l0,0a2.79,2.79,0,0,0-.28.91A10.43,10.43,0,0,1,76.94,40v0a1.88,1.88,0,0,0-.15,1l0,.21-.12.19a.92.92,0,0,0-.15.63v.14a1.24,1.24,0,0,0,.22.84.37.37,0,0,0,.06.1,2.51,2.51,0,0,1,.29.9c0,.26.08,1,.14,1.53l0,.33-.26.22a1.82,1.82,0,0,0-.6,1,9.15,9.15,0,0,0,0,1.77V49l0,.1-.09.32a2.19,2.19,0,0,0,0,1.13l0,.13,0,.14a1,1,0,0,0,0,.12h0A2.06,2.06,0,0,0,76.32,52l.06.16,0,.18a3.56,3.56,0,0,0,.45,2,7.49,7.49,0,0,0,1,1.58l.17.23,0,.27a2.45,2.45,0,0,0,0,.27,1.47,1.47,0,0,0,.19.73l0,.07v.1s.07.26.09.35v0h0c.08.62.46,1.67,1.4,1.67a1.45,1.45,0,0,0,.35,0l.43-.1.24.38c.49.78.92,1.55,1.28,2.27.78,1.54,1.43,2.68,2.18,4l.17.3L85.15,68a17.14,17.14,0,0,0,1.33,2L84.63,71.2l3.43.68c.83,1,1.82,2,3,3.14l-17,4h0v0h0V98.71l.08,0L98,103.43c.32.67.77,1.55,1.15,2.29v0a3.53,3.53,0,0,1,.16.41v0a11.91,11.91,0,0,0,.91,2.23l-39.7,9.43v19.64l.05,0v.09l36.22,7.18L74,150.16h0V169.8h0l31.76,6.3c1.44,1.5,2.5,2.6,2.83,3a1.77,1.77,0,0,0,2.24.54l3.51-1.82,14.24,2.82-5-7.67c5.06-2.7,10.23-5.55,12.52-7.11.86-.57.63-1.2.59-1.33-.13-.38-1.44-4.37-2.93-8.91l8.24-2V134.09l.06,0-.06,0v0l-.07,0-22-4.37a2.81,2.81,0,0,0,1.09-1.31,52.39,52.39,0,0,0,1.48-5.57l33.06-7.85V95.19ZM80.3,37.2a.59.59,0,0,1,0-.14l0-.19.07.18c.07.15.12.28.12.28l.08.21.22,0s.1,0,.13,0h0v0a5.18,5.18,0,0,0,.24,1c0,.13.07.26.09.34a.44.44,0,0,1,0,.13h0v0a3.07,3.07,0,0,0,0,.53.58.58,0,0,1-.19.5.47.47,0,0,1-.25.09h0v0s-.07-.38-.14-.92a.79.79,0,0,1,.14-.55c.08-.14.13-.22,0-.4s-.14-.14-.19-.21c-.22-.21-.35-.35-.33-.64C80.27,37.37,80.28,37.29,80.3,37.2Zm.11,3.63a.7.7,0,0,0,.66-.24l.18-.15,0,0,.11-.08,0,.13c-.07.31-.17.65-.18.68l0,.22.16.15a.45.45,0,0,1,.11.21c0,.11,0,.18,0,.21h0V42h-.25l-1-.07h0v0a5.14,5.14,0,0,0-.26-.63c-.09-.19-.11-.29-.07-.37S80.08,40.83,80.41,40.83Zm-1.28-3s.1,0,.19,0a1.07,1.07,0,0,1,.25.36.7.7,0,0,0,.22.31.42.42,0,0,0,.17.08c.14,0,.2.08.22.43a5.65,5.65,0,0,1,0,1v.06l-.06,0a1.46,1.46,0,0,1-1-1.22c0-.23,0-.42,0-.58S79.08,37.92,79.13,37.86Zm-1,2.56a6.54,6.54,0,0,0,.37-1.33l0-.23,0,.23a1.3,1.3,0,0,0,.54.62l.07,0c.3.22,0,.93,0,1a.59.59,0,0,1-.48.38.51.51,0,0,1-.27,0h0s-.11.09-.14.13l-.06.07,0-.08A1.48,1.48,0,0,1,78.11,40.42Zm-.24,1.79a.39.39,0,0,0,0-.3v0l0,0h0l.39-.13-.11-.32h0a2.34,2.34,0,0,1,.61-.1.17.17,0,0,1,.12,0,.45.45,0,0,1,.1.33c0,.26-.15.29-.35.33a1.93,1.93,0,0,0-.81.32l0,0,0-.08Zm-.21,5.57c0-.28,0-.46,0-.57a.33.33,0,0,1,.08-.18v0h0c.16,0,.2.15.27.36,0,.05,0,.1,0,.14v0l0,0-.37.26-.08,0Zm-.1,1.63.11-.37,0,0v-.06c0-.14,0-.3,0-.48v0l0,0a3.88,3.88,0,0,1,.58-.39l.06,0v.07a4.87,4.87,0,0,1,0,.51c0,.25-.15.39-.38.62l-.17.17a.5.5,0,0,1-.19.12l-.09,0Zm.1,1.14-.1-.2s0-.1-.08-.24v0h0a.49.49,0,0,0,0-.11.89.89,0,0,1,.77-.5h0l0,0a1.51,1.51,0,0,1,0,.42c0,.21-.15.3-.34.42l-.26.19,0,0,0,0Zm.82,1.1a.45.45,0,0,1-.28.28L78,52a.79.79,0,0,1-.23.09h-.07l0-.25,0-.08v0c.06-.23.25-.33.65-.47l0,0,0,0A.5.5,0,0,1,78.48,51.65ZM78.72,47h0l0-.4s-.23-2.34-.26-2.79a3.36,3.36,0,0,0-.27-1l0,0,0,0a.75.75,0,0,1,.13-.06,1.32,1.32,0,0,1,.36-.08c.32,0,.42.28.48.72l.31,5.11h-.1a5.18,5.18,0,0,0-.46-1.17Zm.86,9.28,0,.22H79.2l.14-.12v-.77l-.09-.1L79,55.22v0l0-.58a5.08,5.08,0,0,1,.17-.82,4.51,4.51,0,0,1,.48-.89l.1-.16Zm.49,1.35A1,1,0,0,1,80,58a.79.79,0,0,1,0,.09l-.06.13,0-.13a1.9,1.9,0,0,1,0-.3c0-.33,0-.94,0-.94v-.06l.32,0Zm.6-7.17,0,0a.87.87,0,0,0-.29.54,4.69,4.69,0,0,0,.24,2.07h0l0,3.4h-.81l.24-13.65a.7.7,0,0,1,.55-.39h.15c.21,0,.38,0,.41.43h0a6.82,6.82,0,0,0-.16.75c-.24,1.58-.32,6.55-.32,6.75Zm.79,2a1,1,0,0,1-.7-.69,2.07,2.07,0,0,1,0-.88v0L81,50.8v.05a.42.42,0,0,1,0,.12,2,2,0,0,0,.2.56,2,2,0,0,1,.25.72s0,.08,0,.14v.07Zm36.33,30.24a1.05,1.05,0,0,1-.18-.68l0-1.3c0-.54-.27-.8-.86-.66l-.77.18v2.9l-1.46.34V76.62l2.69-.64c1.19-.28,1.92.14,1.92,1.31a2,2,0,0,1-1.21,2v0c1-.11,1.14.38,1.16,1.82,0,.72,0,1.09.33,1.16v.06Zm2.61,14a2.1,2.1,0,0,0,.25.75.09.09,0,0,1,0,0c.45,1.4,1,3.56,1.42,4.85l0,.07,0,.14.15.37c0,.08.06.16.08.23l-.44.1c-.1-.32-.2-.59-.26-.75-.2-.54-1.82-5.09-2.33-6.27a12.84,12.84,0,0,1-.74-2.57,6.56,6.56,0,0,0-1.95-2.36,12.5,12.5,0,0,1-1.89-2.16s0-.06-.06-.1l1.46-.35a3,3,0,0,0,.17.28,9.23,9.23,0,0,0,1,1.61c.2.22.41.47.61.72a.63.63,0,0,0,.12.21,3.76,3.76,0,0,0,.25.31,4.08,4.08,0,0,1,.25.33l.12.19C118.77,92.68,119.78,95,120.4,96.7Zm-.63-3,.11.07a2.64,2.64,0,0,1,.38.31l.06.11a1.38,1.38,0,0,1,.19,1l0,.59-.08-.22c-.19-.48-.35-.88-.42-1.08s-.11-.36-.18-.62Zm2.06,6.12.11.11a1.68,1.68,0,0,1,.52.75.7.7,0,0,1,0,.16v.06h-.06c-.23,0-.38,0-.45-.31,0-.12-.07-.35-.12-.61ZM112,138.58c.08.25.25.56.45.51v-.58a1.89,1.89,0,0,1,0-1.26,7.31,7.31,0,0,1,.33-.73c0-.07.09-.16.17-.12s0,.22-.07.3a2.8,2.8,0,0,0-.32,1.41c.1.54.38,1.08.11,1.31s-.76-.09-.92-.49a1.53,1.53,0,0,1,0-1.35c.12-.25.27-.26.34-.2s0,.3,0,.37A2.22,2.22,0,0,0,112,138.58Zm-.71-2.53c.06.09.25-.13.32,0s0,.17-.25.36-.46.37-.62.14c-.3-.43.35-.84.35-.84s.21-.16.27,0S111.19,136,111.25,136.05Zm.59-.44c-.14-.11,0-.25.12-.36s.7-.78.7-.78.14-.25.28-.13,0,.36,0,.36l-.68.76C112.1,135.59,112,135.71,111.84,135.61Zm.46-2.1a8.75,8.75,0,0,1-1.44,1.81c-.32.26-.55.47-.66.34s.16-.23.41-.43a6.31,6.31,0,0,0,1.49-2,19.61,19.61,0,0,1,1.73-2.92c.3-.37.55-.53.68-.42s-.61.94-.88,1.35S112.66,132.94,112.3,133.51ZM98.23,144.39c.23-.53,1.93-4.54,2-4.63s.14-.16.23-.09l4.14,3.21ZM99,158.7l-2,.47V149.8l2-.47Zm1.18-19.89c.07-.07.14,0,.14,0l4.8,3.91-.19,0L100.23,139S100.08,138.89,100.17,138.81Zm.3,10.17,2.29-.55,2.41,5.85h0v-6.42l1.82-.43v9.37l-2.26.54-2.44-6h0v6.56l-1.82.44ZM97.74,94.85c0-.15.06-.3.09-.42a.9.9,0,0,1,0-.16V94.2l.06,0a.87.87,0,0,1,.18.2v0s-.07.8,1.15,2l.7.66a21.57,21.57,0,0,0,1.63,1.52,1.25,1.25,0,0,1,.34,1.13.19.19,0,0,1-.19.15.43.43,0,0,1-.28-.15,7.75,7.75,0,0,0-.7-.6,8.14,8.14,0,0,1-2.39-2.56c-.12-.32-.23-.58-.32-.81a5.51,5.51,0,0,1-.31-.92h0ZM96,88c-1.45.34-2-.6-2-3s.63-3.6,2-3.92,2,.57,2,3S97.36,87.63,96,88Zm3.34-23.58h-.12a1.11,1.11,0,0,0-.51.23l-.08,0v-.09a2.54,2.54,0,0,1,.05-.7,3.66,3.66,0,0,0,.13-.37v0l.1-.12a1,1,0,0,0,.18-.26,1.66,1.66,0,0,1,.2-.26A2.56,2.56,0,0,0,99.8,62l0-.11c0-.06,0-.11,0-.15l0,0c-.09,0-.21.09-.39.14l-.08,0-.12,0,0-.09a1,1,0,0,1,.48-.53c.33-.2.51-.29.59-.33h0l.13,0,0,0h.21a4.17,4.17,0,0,1,1.62.38c.06,0,.06.09,0,.11s-.23.15-1.19.15c-.51,0-.51,0-.52.08a.43.43,0,0,1-.08.24,2.71,2.71,0,0,0-.26.56,3.28,3.28,0,0,1-.42.82.63.63,0,0,0-.17.57c.06.13.21.19.44.19s.41,0,.43.06,0,.07,0,.1a.36.36,0,0,0-.07.2,5,5,0,0,1-.13,1,.27.27,0,0,1,0,.2.26.26,0,0,1-.14.13,8.82,8.82,0,0,1-1.4.13H98.7a.54.54,0,0,1-.19,0h-.05l0-.06a1.5,1.5,0,0,0,.06-.29h0a.85.85,0,0,0,.1-.14,4,4,0,0,1,.31-.41,3.47,3.47,0,0,0,.3-.4.64.64,0,0,0,.09-.17S99.35,64.38,99.34,64.38Zm7.72,28.82s-.44-.23-.64-1.36a2.68,2.68,0,0,1,0-.83l1.28-.3c1.15.47,4.32,2,4.9,2.29a2.54,2.54,0,0,1,1.17,1c.18.27.93,1.16,1.54,1.86l.69.83c.49.58.21.87.2.87l0,0h0a33.6,33.6,0,0,1-4.12-2A41.72,41.72,0,0,0,107.06,93.2Zm3.44,10.14s1.06.93,2.4,2.07l-1.78.42,0,0a5.71,5.71,0,0,1-.66-2.41v-.12ZM112.44,84l-.34-1.37-1.91.46-.34,1.52-1.52.36,1.91-7.3,1.8-.43,1.91,6.4Zm-4.25-18.14a13.33,13.33,0,0,0-.32,1.61l-.17,1a7.83,7.83,0,0,0-.13.89,11.74,11.74,0,0,0-.33,1.85l-.89.21c0-1.39.06-2.68.09-3a.64.64,0,0,0-.56-.75c-.28,0-1.13-.18-1.13-1,0-.33,0-.62,0-.84a1.84,1.84,0,0,1,0-.43s0,0,0,0,0-.09.09-.09.12,0,.31.14l.33.2a1.72,1.72,0,0,0,.72.33c.21,0,.3,0,.31,0s0,0-.19-.11l-.2-.1a10.55,10.55,0,0,1-2.39-1.3,1.93,1.93,0,0,1-.37-1.64,1.52,1.52,0,0,0,.07-.49c0-.17,0-.32.15-.32a.19.19,0,0,1,.11,0,2.9,2.9,0,0,0,.76.19h.06a1.19,1.19,0,0,0-.29-.25l0,0c-.38-.26-.5-.35-.48-.43s.09-.07.26,0a3.46,3.46,0,0,0,.54.09h0l-.09-.06-.38-.19c-.27-.12-.34-.15-.33-.22s.09-.07.16-.07a1,1,0,0,0,.45-.09h-.12l-1.62-.17h0a.35.35,0,0,1-.18-.23.54.54,0,0,1,.11-.44v0h0a4.79,4.79,0,0,1,.79-.07,6.08,6.08,0,0,1,.68,0,5.35,5.35,0,0,1,1.2.25l.07,0,.56.14a5.11,5.11,0,0,1,.55.14l.13.06a1.6,1.6,0,0,1,.75.44,3.5,3.5,0,0,1,.44,1,5,5,0,0,1,.13.83V63l.12.1.12.12h0l0,.07c.23.23.73.95.62,1.42A2.72,2.72,0,0,1,108.19,65.81Zm-8.26,4.45-.13-.05A2.56,2.56,0,0,0,99,70a.66.66,0,0,0-.31.06s-.09,0-.13,0h0v0c0-.14,0-.19,0-.21v-.18h0c0-.16.13-.16.27-.17H99a2.66,2.66,0,0,0,.86-.2c.22-.1.17-.78.12-1.26a3,3,0,0,0,0-.31,1.93,1.93,0,0,1,.25-1.22c.14-.23.69-.25,1.13-.27h.35v0a16.48,16.48,0,0,1-.17,2.24c-.11.5-.35,1.18-.6,1.91-.06.16-.11.33-.17.49-.28.79-.68,1.23-1.13,1.23h-.11c-.43-.07-.63-.49-.74-.8s-.07-.39-.1-.54v0h0c.06-.13.2-.17.4-.23l.1,0a.91.91,0,0,1,.23,0,1.23,1.23,0,0,1,.39.07,1.43,1.43,0,0,0,.34.06c.07,0,.12,0,.12,0A.52.52,0,0,0,99.93,70.26Zm-1.17-3.64a.43.43,0,0,1,.19-.06.1.1,0,0,1,.11.11v.09a2.72,2.72,0,0,1,0,.63c0,.19-.12.28-.24.28a.37.37,0,0,1-.32-.25v-.16c0-.15,0-.33,0-.52v0l0,0C98.51,66.62,98.63,66.62,98.76,66.62Zm2.64,19.95V79.72l2.16-.51,1,4.59h0l1-5.08,2.16-.51v6.85l-1.34.32V79.9h0l-1.28,5.77L104,86l-1.29-5.17h0v5.47Zm4.53,4.56a2.4,2.4,0,0,0,.67,2.54c1.05.82,3.26,2.76,3.41,3.47a3.59,3.59,0,0,0,.11.41,4,4,0,0,1-.07,2.86c-.57,1.59-.77,2.61-.25,3.87.22.52.46,1.12.67,1.71l-2.76.66a11.7,11.7,0,0,1-.84-2.8c-.38-2.44-1-4.84-1.38-6.45-.14-.56-.26-1-.34-1.4a9.25,9.25,0,0,0-.9-2,5.62,5.62,0,0,1-.87-2.23Zm4.37,34.53.34-.09c0,.21,0,.61.06,1.32a16.9,16.9,0,0,1-.57,4,11.7,11.7,0,0,0-.43,2.47,1,1,0,0,1-1,.94c-.48-.07,0-.83.41-1.67a18.27,18.27,0,0,0,.94-3A16.06,16.06,0,0,0,110.3,125.66ZM109.87,138c0-.16-.14-.21-.31-.28s-.14-.32-.19-.46a.2.2,0,0,0-.35-.05,1.2,1.2,0,0,0-.23.37c-.09.16-.07.26-.17.19s0-.33,0-.33a2.57,2.57,0,0,1,.24-.49c.09-.1.23-.3.46-.17s.19.39.25.57.08,0,.29.08.2.12.22.29a8.74,8.74,0,0,1,0,1.32c0,.24,0,.34-.13.34s-.07-.11-.07-.2S109.88,138.12,109.87,138Zm-1.09-2.34c.11.16,0,.37-.13.5s-.49.3-.55.71a7.42,7.42,0,0,0,0,1.06c0,.52-.1,1.05-.25,1s-.2-.69-.5-1.21-.83-.73-1-1.12a1.1,1.1,0,0,1,.23-1c.08-.15.36-.45.53-.35s.21,0,.21,0a.32.32,0,0,1,.11-.23c.1-.09.33-.11.68,0A1.4,1.4,0,0,1,108.78,135.61Zm-2,5.45c.08,0,.14.06.28.26a4,4,0,0,0,.82.76l-.33.08a4.82,4.82,0,0,1-.49-.54C106.92,141.39,106.76,141.08,106.83,141.06Zm.07-1.22c-.11-.1-.23-.19-.15-.26s.22.12.22.12a15.51,15.51,0,0,0,1.34,1,7.46,7.46,0,0,0,2,.85l-.64.15c-.14-.06-.4-.17-.84-.4A13.5,13.5,0,0,1,106.9,139.84Zm4.42-14.42,1.09-.26a1.06,1.06,0,0,1-.73.42A.51.51,0,0,1,111.32,125.42Zm-2.19-3.36V110.27l2.51-.59v9.84l4.43-1v2Zm.36,5.55-4-.8,3.84-.91a7.43,7.43,0,0,1,.15.74C109.48,127,109.49,127.29,109.49,127.61ZM116,124.3l.14,0,2.37,5s.2.27-.25.49a7,7,0,0,1-1.35.48,1.1,1.1,0,0,1-.89-.29,1.71,1.71,0,0,0-1.1-.55C114.59,129.38,115.76,125.25,116,124.3Zm-5.4-24.37s.14,0,.19-.71a3.35,3.35,0,0,0-.15-1.3l0-.11.11,0s3.45,1.42,4.31,1.72a6.46,6.46,0,0,1,2.08,1.38l.11.1a22.13,22.13,0,0,1,2.4,2.75l-2.09.5C115.4,102.93,110.63,99.93,110.63,99.93Zm5.8-11.3,1.46-.35A2,2,0,0,1,118,89c0,.23,0,.44-.07.63s-.06.6-.07.82v.14l-.08-.11a16.81,16.81,0,0,1-1.31-1.84A.06.06,0,0,0,116.43,88.63Zm5.74-6.86c-1.57.37-2.21-.79-2.21-3s.64-3.7,2.32-4.09a1.5,1.5,0,0,1,2,1.6l-.42.1c0-.93-.52-1.63-1.58-1.39-1.43.34-1.91,1.73-1.91,3.65s.39,3.13,1.85,2.79a2.63,2.63,0,0,0,1.73-2.5l.42-.1A3,3,0,0,1,122.17,81.77Zm5.19-1.23c-1.38.33-2.34-.33-2.34-3s1-3.78,2.34-4.1,2.33.33,2.33,3C129.69,79.45,128.38,80.3,127.36,80.54Zm8.71-2.18-.42.1V72.13h0L133.56,79l-.43.09-2.07-5.84h0v6.33l-.43.1V72.8l.68-.16,2.06,5.67h0l2-6.63.7-.17v6.86ZM91.52,54.89,137.46,64l-29,6.88a16.77,16.77,0,0,1,.39-1.74c.1-.35.24-.76.36-1.12a11.68,11.68,0,0,0,.75-3.17,3.44,3.44,0,0,0-.91-2.17l-.11-.14,0-.17c0-.2-.07-.39-.11-.55a4.64,4.64,0,0,0-.56-1.27,2.72,2.72,0,0,0-1.4-1l-.07,0a6.41,6.41,0,0,0-.77-.21h-.08l-.32-.08h0l-.08,0a5.88,5.88,0,0,0-1.46-.31,7.46,7.46,0,0,0-.84-.06,6.46,6.46,0,0,0-1.55.23,4.31,4.31,0,0,0-1.92.92l0,0-.07,0c-.16.08-.36.2-.59.34A2.3,2.3,0,0,0,97.91,62c-.11.44-.36,1.29-.46,1.52a1.2,1.2,0,0,0-.08.27l-.43-.66Zm4.85,10.92.9-.59a2,2,0,0,1-.09.45,7,7,0,0,0-.07,1.75V68a6.19,6.19,0,0,0,.07,1.11v.12c0,.21,0,.42,0,.56v.08a1.82,1.82,0,0,0,0,.5l.11,1.13-1-.5a13.71,13.71,0,0,1-3.74-2.69Zm-5.69,4.1a4.92,4.92,0,0,0-.49-.84A15.35,15.35,0,0,0,87.88,67,7.49,7.49,0,0,1,86,64a55.29,55.29,0,0,0-3.87-6.33,2.06,2.06,0,0,1-.42-1.43.58.58,0,0,1,.24-.43c.14-.1.33-.07.55.07h0v0c.07.29.15.56.2.72A6.78,6.78,0,0,0,83.75,58c.37.42.74.84,1,1.15s.8,1,1.46,1.69a25.53,25.53,0,0,1,2.29,2.73l.07.17A20,20,0,0,0,90,66.82a15.16,15.16,0,0,0,6.18,5.29,9.13,9.13,0,0,1,2.18,1.2l-1.51.35a2.26,2.26,0,0,0-.69-.93l-.2-.12a1,1,0,0,0-.45-.21c-.08,0-.17,0-.34.17a1.26,1.26,0,0,0-.34.65c-.1.33-.22.68-.52.77,0,0-.05,0-.09,0-.38,0-1-.74-1.6-1.46a12.32,12.32,0,0,0-.83-.93A7.21,7.21,0,0,1,90.68,69.91Zm.49,12.61a2,2,0,0,0-1.5,2.09l-.43.1a2.51,2.51,0,0,1,2-2.53c.74-.17,1.84-.06,1.84,1.39A3.28,3.28,0,0,1,91.74,86l-.95.94A3.65,3.65,0,0,0,89.61,89l3.5-.82v.36l-3.92.93a3.78,3.78,0,0,1,1.25-2.66l1-1a3.09,3.09,0,0,0,1.17-2.12A1.06,1.06,0,0,0,91.17,82.52Zm-4.88.82c1.49-.35,2,.58,2,3s-.65,3.6-2,3.92-2-.59-2-3S84.92,83.67,86.29,83.34Zm-4.83,1.47a2,2,0,0,0-1.5,2.1l-.43.09a2.49,2.49,0,0,1,2-2.52c.73-.18,1.84-.07,1.84,1.38A3.27,3.27,0,0,1,82,88.26l-1,.95a3.65,3.65,0,0,0-1.18,2.07l3.5-.83v.37l-3.92.93a3.78,3.78,0,0,1,1.25-2.67l1-1A3.11,3.11,0,0,0,82.93,86,1.08,1.08,0,0,0,81.46,84.81ZM78.59,97.62l17.89-4.25.09.28.06.18,0,.18a2.15,2.15,0,0,0-.07.35,5.42,5.42,0,0,1-.24,1,3.82,3.82,0,0,0,0,2.56,12.09,12.09,0,0,0,.82,1.8l.1.19,0,.22a3.7,3.7,0,0,0,.07,1.22ZM98,97.23a3.19,3.19,0,0,1-.21-.62c0-.19,0-.23,0-.26a.07.07,0,0,1,.06,0c.09,0,.27.24.4.45h0a13.88,13.88,0,0,0,2.32,3.58c.54.62.79,1,1,1.19a3.67,3.67,0,0,0,.44.52.67.67,0,0,1,.16.68.26.26,0,0,1-.23.18c-.11,0-.27-.07-.46-.39a11,11,0,0,0-1-1.27,9.73,9.73,0,0,1-2-2.8A9.82,9.82,0,0,0,98,97.23Zm.89,4.75a11.49,11.49,0,0,1-.31-1.22v-.06h.07c.1,0,.19.11.2.12s2,3.26,2.64,4.21l.43.59a9.66,9.66,0,0,1,1.29,2.11l-1.26.3a.81.81,0,0,0-.09-.1,13.7,13.7,0,0,1-1.06-1.75,2.87,2.87,0,0,1-.13-.39,4.58,4.58,0,0,0-.27-.73C99.82,104,99,102.35,98.86,102Zm4.57,9.41c3.75-.88,4.22,1.54,4.22,5.13s-.47,6.23-4.22,7.12-4.23-1.54-4.23-5.12S99.67,112.28,103.43,111.39Zm-9.59,2.27c2.75-.65,3.86.42,3.86,2.82l-2.4.57c0-.88-.42-1.88-1.43-1.65-1.21.29-1.7,1.59-1.7,4.53s.28,4.56,1.72,4.22a2.36,2.36,0,0,0,1.54-2.25v-1.2l-1.65.39v-1.75l4-1v6.35l-1.84.44v-1.09h0A3.8,3.8,0,0,1,93.35,126c-3.08.73-3.69-1.31-3.69-5.38S90.64,114.42,93.84,113.66ZM64.9,136.44,101,127.88l8.35,1.65a32.4,32.4,0,0,1-1,3.57l-.15.45-.07.06a7.69,7.69,0,0,0-1.72,2.12c-2.88,1.19-5.37,2.22-5.5,2.26a1.92,1.92,0,0,0-1.23,1c-.08.17-.75,1.78-1.67,4.05ZM87.71,152l1.1,6.68h0L90,151.46l1.91-.45,1.16,6.65h0l1.09-7.2L96.1,150l-1.8,9.8-2.23.53L91,153.79h0l-1.1,7.06-2.23.53-1.8-9Zm-9.27,16.73,16.37-3.89,8.59,8.83Zm31,9.17c0,.4-.21.43-.37.3s-12.2-12.42-13.34-13.57L110,161.22C110,163,109.42,177.52,109.42,177.9Zm.65-.59.41-16.19.66-.15Zm4.9-22.38-2.27.53-2.44-6h0v6.57l-1.83.43V147.1l2.29-.54,2.41,5.85h0V146l1.83-.43Zm-.09-20.32a16.9,16.9,0,0,1-2.47,1.73c-.07,0-.25.14-.3,0s.16-.2.16-.2.53-.3,1.21-.78a21.82,21.82,0,0,0,2.51-2.24c.32-.36.75-.82.71-.91s-.17-.13-.32-.16a.79.79,0,0,1-.43-.55c0-.27.54-.72.91-.68s.34.56.34.56l.1.06c.11.06.07.14-.09.57A13.77,13.77,0,0,1,114.88,134.61Zm1.47,10.62,5.52-1.31v1.54l-3.52.84v2.2l3.32-.78v1.54l-3.32.79v2.52l3.67-.87v1.55l-5.66,1.33Zm3-8.81s-.07-.1,0-.12.1,0,.12.07a2.12,2.12,0,0,1,.08,1.71,3.62,3.62,0,0,1-.74,1.41l-1,.24a4.34,4.34,0,0,0,1.68-2.28A1.25,1.25,0,0,0,119.37,136.42Zm5.06,41.42-7.38-1.46,4.78-2.52Zm5.27-26.4-2.16.51a1.54,1.54,0,0,1-.25-.92l-.05-1.79c0-.73-.38-1.09-1.18-.9l-1.06.25v4l-2,.47v-9.38l3.68-.87c1.63-.38,2.63.19,2.63,1.79a2.73,2.73,0,0,1-1.64,2.71v0c1.36-.14,1.56.52,1.59,2.49,0,1,.07,1.48.44,1.57v.08Zm7.66-16.34-13.22,3.14-7.26-5c1-1.16,1-1.61,1-2Zm-16.59-8.18c-.29.21-.41.07-.68-.28s-1.3-1.84-2-2.84l.77-.18,1.75,2.52S121.05,126.71,120.77,126.92Zm.48-7.73-4,.93V108.34l4.11-1c3.48-.82,4.11,1.29,4.11,4.76C125.51,116.3,124.57,118.41,121.25,119.19Zm2.26-16.31a1.16,1.16,0,0,1-.06-.15l-.08-.2.06-.21a4.05,4.05,0,0,0,.18-1.71A3,3,0,0,0,122.55,99l-.14-.12,0-.17a3.44,3.44,0,0,1-.11-.34c-.11-.38-.31-.87-.48-1.3h0a2.6,2.6,0,0,1-.1-.25l0-.12v-.35c0-.26,0-.61,0-1a2.56,2.56,0,0,0-.36-1.65l0-.07a2.76,2.76,0,0,0-1-.9l-.13-.08-.07-.13c-.1-.17-.19-.32-.27-.47a4,4,0,0,0-.46-.71H119l0-.67c0-.2,0-.49.07-.74l32.14,6.38Z"></path><path class="cls-1" d="M116.61,77.14l-.68.16v2l.6-.15a1.21,1.21,0,0,0,1.1-1.28C117.62,77.21,117.27,77,116.61,77.14Z"></path><path class="cls-1" d="M125.94,144.34l-.94.23v2.71l.84-.2a1.67,1.67,0,0,0,1.49-1.76C127.32,144.46,126.84,144.13,125.94,144.34Z"></path><path class="cls-1" d="M103.42,121.89c1.48-.35,1.72-1.61,1.72-4.78s-.24-4.32-1.72-4-1.72,1.63-1.72,4.78S101.94,122.24,103.42,121.89Z"></path><path class="cls-1" d="M120.87,109.25l-1.07.25v8.28l1.12-.26c1.73-.41,2.08-1.53,2.08-4.74C123,110.11,122.78,108.8,120.87,109.25Z"></path><path class="cls-1" d="M96,81.38c-1.57.37-1.57,2.45-1.57,3.5,0,2.58.58,3,1.57,2.75s1.58-1,1.58-3.5C97.58,82.85,97.58,81,96,81.38Z"></path><path class="cls-1" d="M86.29,89.93c1-.23,1.58-1,1.58-3.5,0-1.27,0-3.13-1.58-2.75s-1.57,2.46-1.57,3.5C84.72,89.75,85.31,90.16,86.29,89.93Z"></path><path class="cls-1" d="M127.36,73.78c-1.41.34-1.91,1.79-1.91,3.67s.41,3.12,1.91,2.77c1.32-.32,1.91-1.49,1.9-3.66C129.26,74.7,128.82,73.44,127.36,73.78Z"></path><polygon class="cls-1" points="111.14 78.6 110.44 81.85 111.86 81.51 111.16 78.6 111.14 78.6"></polygon></g></svg> 