<?xml version="1.0" encoding="UTF-8"?> <svg xmlns="http://www.w3.org/2000/svg" id="Layer_1" data-name="Layer 1" viewBox="0 0 300 191.42"><defs><style> .cls-1 { fill: #fff; } </style></defs><g><g><path class="cls-1" d="M174.67,95.16a16.53,16.53,0,0,0-9,2.55C162.78,87.68,154,82,140.75,82h-21v7.31h21.56c11,0,17.51,6,17.51,16.4s-6.49,16.41-17.51,16.41h-.17l1.22-1.8c2.66-4,5.1-7.94,5.1-11.65,0-7.65-4.87-13.45-14.38-13.45-8.23,0-14.43,6.32-14.43,13.74h7.82c0-3.71,2.44-6.44,6.61-6.44,4.47,0,6.55,2.61,6.55,6.38,0,2.9-1.85,5.8-3.88,8.75l-3.13,4.53H119.77v7.3h7.88L113.91,149.6h32.93v-7.37H127.42l8.75-12.81h4.58c.76,0,1.51,0,2.26-.06l23,30h9.91l-7.59-9.85,14.43-21.1c3.71-5.22,8.06-10.9,8.06-17.45A15.75,15.75,0,0,0,174.67,95.16Zm-11.19,48.12-11.89-15.37A21.43,21.43,0,0,0,162,121a15.82,15.82,0,0,0,12.69,5.85h.41Zm11.19-23.65c-5,0-8.24-3.77-8.24-8.58a7.45,7.45,0,0,1,.06-1.16v-.24a8,8,0,0,1,8.12-7.18c5,0,8.23,3.76,8.23,8.58S179.65,119.63,174.67,119.63Z" transform="translate(0 -57.48)"></path><path class="cls-1" d="M150,57.48a61.63,61.63,0,1,0,61.62,61.57A61.7,61.7,0,0,0,150,57.48Zm0,115.94a54.32,54.32,0,1,1,54.32-54.32A54.36,54.36,0,0,1,150,173.42Z" transform="translate(0 -57.48)"></path></g><g><path class="cls-1" d="M20.46,230.76a9.82,9.82,0,0,0,0-14.38c-1.74-1.62-4.05-2.61-7.65-2.61H0V248.9H6.78V233.36H9.22L21.74,248.9h8.35L16.93,232.78A9,9,0,0,0,20.46,230.76Zm-4.63-4.47c-.58.64-1.45,1.05-3.42,1.05H6.78V219.8h5.63c2,0,2.84.46,3.42,1.1a4.22,4.22,0,0,1,1,2.73A4.28,4.28,0,0,1,15.83,226.29Z" transform="translate(0 -57.48)"></path><polygon class="cls-1" points="41.51 175.59 52.29 175.59 52.29 169.56 41.51 169.56 41.51 162.32 55.77 162.32 55.77 156.29 34.73 156.29 34.73 191.42 56.29 191.42 56.29 185.39 41.51 185.39 41.51 175.59"></polygon><polygon class="cls-1" points="65.16 191.42 71.94 191.42 71.94 175.59 82.72 175.59 82.72 169.56 71.94 169.56 71.94 162.32 86.2 162.32 86.2 156.29 65.16 156.29 65.16 191.42"></polygon><rect class="cls-1" x="93.33" y="156.29" width="6.78" height="35.13"></rect><polygon class="cls-1" points="134.15 179.19 114.55 156.29 109.8 156.29 109.8 191.42 116.58 191.42 116.58 168.52 136.17 191.42 140.93 191.42 140.93 156.29 134.15 156.29 134.15 179.19"></polygon><polygon class="cls-1" points="158.03 175.59 168.81 175.59 168.81 169.56 158.03 169.56 158.03 162.32 172.29 162.32 172.29 156.29 151.25 156.29 151.25 191.42 172.81 191.42 172.81 185.39 158.03 185.39 158.03 175.59"></polygon><path class="cls-1" d="M202.14,230.76a9.8,9.8,0,0,0,0-14.38c-1.73-1.62-4-2.61-7.65-2.61H181.68V248.9h6.78V233.36h2.44l12.46,15.54h8.41l-13.16-16.12A9.45,9.45,0,0,0,202.14,230.76Zm-4.69-4.47c-.58.64-1.45,1.05-3.42,1.05h-5.62V219.8H194c2,0,2.84.46,3.42,1.1a4.22,4.22,0,0,1,1,2.73A3.68,3.68,0,0,1,197.45,226.29Z" transform="translate(0 -57.48)"></path><polygon class="cls-1" points="225.85 168.64 218.09 156.29 210.38 156.29 222.44 175.54 222.44 191.42 229.22 191.42 229.22 175.54 241.22 156.29 233.51 156.29 225.85 168.64"></polygon><path class="cls-1" d="M264.46,233.89c2.44-3.19,3.83-5.92,3.83-10.26h0a11.27,11.27,0,0,0-11.48-11.08h-.23a11.4,11.4,0,0,0-11.48,11h6.78a4.82,4.82,0,0,1,9.63,0c0,1.85-.23,3.77-2.79,7L243.65,248.9h25.92v-6.14H257.1Z" transform="translate(0 -57.48)"></path><path class="cls-1" d="M287.13,212.55a12.55,12.55,0,0,0-12.46,12.58A12.16,12.16,0,0,0,287,237.48h.46l-6.67,11.42h7.48l8.29-14.2c1.86-3.19,3.48-6.32,3.48-9.86C300,217.31,293.68,212.55,287.13,212.55Zm.17,18.84a6.32,6.32,0,1,1,6.32-6.32A6.33,6.33,0,0,1,287.3,231.39Z" transform="translate(0 -57.48)"></path></g></g></svg> 