<?xml version="1.0" encoding="UTF-8"?> <svg xmlns="http://www.w3.org/2000/svg" id="Layer_1" data-name="Layer 1" viewBox="0 0 300 33.43"><defs><style> .cls-1 { fill: #3a357e; } </style></defs><g><path class="cls-1" d="M27.56.31s.53.31,1.39.89a14.8,14.8,0,0,1,1.47,1.2,21.7,21.7,0,0,1,1.74,1.8,20.53,20.53,0,0,1,1.7,2.45,14.3,14.3,0,0,1,.76,1.46,12.79,12.79,0,0,1,.67,1.6,15.66,15.66,0,0,1,.54,1.72,14.87,14.87,0,0,1,.38,1.81c.1.62.15,1.24.21,1.87s0,1.26,0,1.89A20.79,20.79,0,0,1,36,20.72a21.39,21.39,0,0,1-1,3.43,23.71,23.71,0,0,1-1.43,3,23,23,0,0,1-1.63,2.44,19.88,19.88,0,0,1-3,3.16,10.46,10.46,0,0,1-1.35,1s.2-.56.54-1.54.81-2.32,1.3-3.91c.26-.8.49-1.66.74-2.56s.48-1.84.67-2.82c.1-.49.18-1,.28-1.48l.12-.75c0-.25.08-.5.11-.75.12-1,.22-2,.25-3.06,0-.51,0-1,0-1.53s0-1-.08-1.51a27.76,27.76,0,0,0-.38-2.94c-.08-.47-.17-.94-.29-1.4s-.21-.92-.34-1.36c-.23-.88-.53-1.7-.78-2.49-.15-.38-.29-.76-.43-1.11s-.26-.69-.39-1c-.28-.62-.47-1.2-.7-1.67C27.78.88,27.56.31,27.56.31Zm29.1,33.38s-.53-.31-1.39-.89a14.8,14.8,0,0,1-1.47-1.2,20.18,20.18,0,0,1-1.73-1.8,19.45,19.45,0,0,1-1.71-2.45,14.3,14.3,0,0,1-.76-1.46,12.79,12.79,0,0,1-.67-1.6,13.74,13.74,0,0,1-.53-1.72A13.19,13.19,0,0,1,48,20.76c-.11-.62-.16-1.24-.22-1.87s0-1.26,0-1.89a21.74,21.74,0,0,1,.46-3.72,21.39,21.39,0,0,1,1-3.43,23.71,23.71,0,0,1,1.43-3,23,23,0,0,1,1.63-2.44,19.11,19.11,0,0,1,3-3.16,10.46,10.46,0,0,1,1.35-1s-.2.56-.54,1.54-.81,2.32-1.3,3.91c-.25.8-.49,1.66-.74,2.56s-.48,1.84-.67,2.82c-.1.49-.18,1-.28,1.48l-.12.75c0,.25-.08.5-.11.75-.12,1-.22,2-.25,3.06,0,.51,0,1,0,1.53s0,1,.08,1.51a27.76,27.76,0,0,0,.38,2.94c.08.48.17.94.29,1.4s.21.92.34,1.36c.23.88.53,1.7.78,2.49.15.38.29.76.43,1.11s.26.69.4,1c.27.62.46,1.2.69,1.67C56.44,33.12,56.66,33.69,56.66,33.69Z" transform="translate(0 -0.28)"></path><path class="cls-1" d="M25.1,7.75a6.12,6.12,0,0,0,0,2.59,1.88,1.88,0,0,0,1.39,1.37,13,13,0,0,0,4.88-.05c3.44-.51,6.94-1.33,10.51-2a55.82,55.82,0,0,1,11-1.17,18,18,0,0,1,2.89.28,7.52,7.52,0,0,1,2.91,1.14,3.37,3.37,0,0,1,1.47,2.89,5.67,5.67,0,0,1-.94,2.71,6.89,6.89,0,0,0,0-2.61,2,2,0,0,0-1.36-1.47,6.32,6.32,0,0,0-2.28-.33A22.14,22.14,0,0,0,53,11.3c-3.43.44-6.93,1.24-10.48,1.88a63.4,63.4,0,0,1-11,1.27,20.14,20.14,0,0,1-2.88-.21,8.06,8.06,0,0,1-2.94-1,4,4,0,0,1-1.22-1.22,2.8,2.8,0,0,1-.39-1.62A5.21,5.21,0,0,1,25.1,7.75Zm0,9.32a6.12,6.12,0,0,0,0,2.59A1.85,1.85,0,0,0,26.47,21a12.74,12.74,0,0,0,4.88,0c3.44-.52,6.94-1.34,10.51-2a56.58,56.58,0,0,1,11-1.18,18,18,0,0,1,2.89.29,7.22,7.22,0,0,1,2.91,1.14,3.34,3.34,0,0,1,1.47,2.89,5.59,5.59,0,0,1-.94,2.7,6.83,6.83,0,0,0,0-2.6,2,2,0,0,0-1.36-1.48,6.33,6.33,0,0,0-2.28-.32,20.08,20.08,0,0,0-2.53.18c-3.43.43-6.93,1.24-10.48,1.88a62.43,62.43,0,0,1-11,1.26,18.77,18.77,0,0,1-2.88-.2,8.28,8.28,0,0,1-2.94-1,3.81,3.81,0,0,1-1.22-1.21,2.84,2.84,0,0,1-.39-1.62A5.25,5.25,0,0,1,25.1,17.07Z" transform="translate(0 -0.28)"></path><path class="cls-1" d="M20.43,3.4,20,4.13a15.89,15.89,0,0,0-8-2.15C6.31,2,2.65,4.41,2.65,8.15c0,10.69,19.19,5.21,19.1,17.09,0,4.7-4.25,7.77-10.83,7.77A16,16,0,0,1,0,28.53l.64-.64a14.68,14.68,0,0,0,10.28,4.2c6,0,9.91-2.7,9.91-6.85.09-11-19.09-5.48-19.09-17.09,0-4.29,4-7.08,10.18-7.08A16.85,16.85,0,0,1,20.43,3.4ZM67.71,23.28,63.28,33h-1.1L76.8,1.07h1L92.61,33H91.55l-4.48-9.73ZM77.3,2.13,68.12,22.37H86.66Zm32.44-1.06c7.76,0,12.19,3.8,12.19,10.38S117.5,22,109.74,22H99.83V33h-.92V1.07ZM99.82,21.13h9.91c7.17,0,11.28-3.52,11.28-9.68S116.9,2,109.73,2H99.82ZM130.06,2V16.11H147V17H130.06V32.1h19.69V33h-20.6V1.07h20V2Zm43.26,19.69L181.59,33h-1.14l-8.13-11.15a26.61,26.61,0,0,1-2.92.18h-9.92V33h-.91V1.07H169.4c7.76,0,12.19,3.8,12.19,10.38C181.59,16.93,178.62,20.54,173.32,21.68Zm-3.92-.55c7.17,0,11.28-3.52,11.28-9.68S176.57,2,169.4,2h-9.92V21.13ZM220.69,33l0-31.07-14,27.55h-.1L192.46,1.94V33h-.91V1.07h1.6l13.47,26.45L220,1.07h1.6V33Zm12.61,0V1.07h.92V33Zm36.05,0L246.82,2V33h-.92V1.07h1.37l22.52,31v-31h.92V33ZM289,2V33h-.92V2h-11V1.07H300V2Z" transform="translate(0 -0.28)"></path></g></svg> 