<?xml version="1.0" encoding="UTF-8"?> <svg xmlns="http://www.w3.org/2000/svg" id="Layer_1" data-name="Layer 1" viewBox="0 0 300 51.43"><g><path d="M246.27,14.21a5,5,0,1,0-5-5A5,5,0,0,0,246.27,14.21Z" transform="translate(0 -4.29)"></path><path d="M105.88,45.23H99l.07-3.5C98.48,43.3,94.66,46,90.21,46c-7.52,0-13.6-6.57-13.6-14.66a14.64,14.64,0,1,1,29.27,0V45.23ZM91.3,23.31c-4,0-7.36,3.5-7.36,8.13a7.34,7.34,0,1,0,14.65,0C98.59,27,95.34,23.31,91.3,23.31Z" transform="translate(0 -4.29)"></path><path d="M237.28,45.2H230V28.64c0-1.6-.56-5.52-5.66-5.33a5.42,5.42,0,0,0-5.25,5.44V45.2h-7.29V28.64c0-1.57-.49-5.37-5.32-5.37A5.2,5.2,0,0,0,201,28.64V45.2h-7.29V29.12c0-7.16,5-12.56,12.84-12.56a11.4,11.4,0,0,1,9.06,4,11.85,11.85,0,0,1,9.06-4c8,0,12.65,5.18,12.65,12.56V45.2Z" transform="translate(0 -4.29)"></path><path d="M268.06,16.59c8,0,12.64,5.19,12.64,12.57V45.23h-7.28V29c0-1.6-.57-5.66-5.67-5.66-2.94,0-5.25,2.87-5.25,5.74V45.2h-7.28V29.12C255.22,22,260.28,16.59,268.06,16.59Z" transform="translate(0 -4.29)"></path><path d="M118,55.71V42.44A11.73,11.73,0,0,0,126.49,46C134,46,140,39.42,140,31.29a14.63,14.63,0,1,0-29.26,0V55.71ZM125.4,39.3c-4,0-7.36-3.54-7.36-8s3.32-8,7.36-8,7.29,3.43,7.29,8S129.44,39.3,125.4,39.3Z" transform="translate(0 -4.29)"></path><path d="M72.84,45.2H65.55V29c0-1.64-.53-5.7-5.25-5.7A5.5,5.5,0,0,0,54.75,29V45.2H47.46V6.49h7.29V20a8.67,8.67,0,0,1,6.91-3.36c7,0,11.22,5,11.22,12.38V45.2Z" transform="translate(0 -4.29)"></path><path d="M300,45.76c-9.18.85-14.73-4.11-14.73-11.79V10.14h7.29v7.27H300v6.72h-7.44v9.92c0,3.91,3,5.4,7.44,5.18Z" transform="translate(0 -4.29)"></path><path d="M172,34a24.28,24.28,0,0,0,.19-2.72c0-9.14-6.72-14.7-14-14.7A14.74,14.74,0,0,0,143.6,31.4c0,8.13,6.68,14.62,15.63,14.62,4.19,0,8.91-1.46,11.37-4.07l-3.55-5.18c-1.51,1.38-3.36,2.57-7.33,2.57-6.38,0-8.19-3.91-8.34-5.33Zm-20.69-5.3a6.56,6.56,0,0,1,6.65-5.4c4.6,0,6.76,3.09,7,5.48Z" transform="translate(0 -4.29)"></path><path d="M249.93,45.2h-7.29V17.41h7.29Z" transform="translate(0 -4.29)"></path><path d="M191.21,23.31c-4.64-.82-7.74,1.64-7.74,5.63V45.2h-7.28V28.94c0-8,5.58-13.54,15-12.42Z" transform="translate(0 -4.29)"></path><path d="M31,46.91c8,.3,12.31-4.44,12.31-10.92s-6.87-8.51-10.23-9.63C29,25,25.94,24.24,25.94,22c0-1.82,1.66-3,4.31-3a18.48,18.48,0,0,1,9,3l.23.15,3.21-5.67-.19-.11a23.05,23.05,0,0,0-12.05-3.69c-6.95,0-11.82,4.17-11.82,10.18,0,6.79,7,8.91,10.31,9.69C33,33.49,36,34.46,36,37c0,2-1.92,3.72-5,3.31-4.83-.74-13.37-6.15-19.52-6.15-5.4,0-9.33,2.35-11.52,6.71l6,3a4.88,4.88,0,0,1,4.76-3.05C17.14,40.8,23.3,46.61,31,46.91Z" transform="translate(0 -4.29)"></path></g></svg> 