<?xml version="1.0" encoding="UTF-8"?> <svg xmlns="http://www.w3.org/2000/svg" id="stevie-winner-2018" viewBox="0 0 216 216"><defs><style> .cls-1 { fill: #fff; } </style></defs><g><g><path class="cls-1" d="M85.75,83.76h5.84V91.4c-.39.12-.78.24-1.18.34a11.1,11.1,0,0,1-1.23.27c-.43.07-.87.12-1.34.16s-1,.06-1.49.06a8.07,8.07,0,0,1-2.93-.49,5.43,5.43,0,0,1-2.14-1.45A6.2,6.2,0,0,1,80,87.91a10.77,10.77,0,0,1-.45-3.27,9.1,9.1,0,0,1,.5-3.13,6.38,6.38,0,0,1,1.49-2.39,6.55,6.55,0,0,1,2.42-1.51,9.54,9.54,0,0,1,3.29-.53,11.12,11.12,0,0,1,2.31.25,11.58,11.58,0,0,1,2.06.66l-1,2.5A8.78,8.78,0,0,0,89,79.91a7.18,7.18,0,0,0-1.81-.23,4.56,4.56,0,0,0-1.85.36,4.1,4.1,0,0,0-1.41,1A4.41,4.41,0,0,0,83,82.64a6.36,6.36,0,0,0-.32,2.06,8.72,8.72,0,0,0,.22,2,4.27,4.27,0,0,0,.68,1.56,3.17,3.17,0,0,0,1.19,1,3.93,3.93,0,0,0,1.75.36,9,9,0,0,0,1.13-.06c.3,0,.59-.08.86-.14V86.36H85.75Z"></path><path class="cls-1" d="M108.7,84.64a11.6,11.6,0,0,1-.4,3.11,6.64,6.64,0,0,1-1.22,2.4A5.4,5.4,0,0,1,105,91.69a8.27,8.27,0,0,1-5.88,0,5.37,5.37,0,0,1-2-1.54,6.59,6.59,0,0,1-1.21-2.41,12.33,12.33,0,0,1,0-6.23,6.45,6.45,0,0,1,1.21-2.38,5.46,5.46,0,0,1,2.06-1.53,8.3,8.3,0,0,1,5.89,0,5.42,5.42,0,0,1,2,1.53,6.74,6.74,0,0,1,1.21,2.39A11.57,11.57,0,0,1,108.7,84.64Zm-10,0a9.51,9.51,0,0,0,.2,2.09,4.59,4.59,0,0,0,.62,1.56,3,3,0,0,0,1,1,3.12,3.12,0,0,0,1.51.34,3.21,3.21,0,0,0,1.54-.34,2.82,2.82,0,0,0,1-1,4.79,4.79,0,0,0,.6-1.56,11,11,0,0,0,0-4.17,4.85,4.85,0,0,0-.6-1.57,2.71,2.71,0,0,0-1-1,3.5,3.5,0,0,0-3,0,2.76,2.76,0,0,0-1.06,1,4.65,4.65,0,0,0-.62,1.57A9.48,9.48,0,0,0,98.7,84.64Z"></path><path class="cls-1" d="M112.77,92V77.29h3.13V89.45h5.36V92Z"></path><path class="cls-1" d="M136.26,84.52a9.52,9.52,0,0,1-.51,3.27,5.93,5.93,0,0,1-3.83,3.77,10,10,0,0,1-3.18.47h-3.89V77.29h4.32a8.7,8.7,0,0,1,2.93.47,6,6,0,0,1,2.23,1.37,6.07,6.07,0,0,1,1.43,2.27A9,9,0,0,1,136.26,84.52Zm-3.17.08a7.8,7.8,0,0,0-.25-2.12,4.08,4.08,0,0,0-.71-1.48,2.77,2.77,0,0,0-1.15-.86,4,4,0,0,0-1.56-.29H128v9.6h1.15a3.6,3.6,0,0,0,3-1.21A5.65,5.65,0,0,0,133.09,84.6Z"></path><path class="cls-1" d="M61.76,105.81a1.57,1.57,0,0,1-.61,1.31,2.5,2.5,0,0,1-1.62.49,5.1,5.1,0,0,1-1.87-.27v-.46a4.79,4.79,0,0,0,1.83.3,2.05,2.05,0,0,0,1.3-.37,1.27,1.27,0,0,0,.32-1.61,1.58,1.58,0,0,0-.52-.45,6.38,6.38,0,0,0-1.05-.44,3.6,3.6,0,0,1-1.41-.75,1.57,1.57,0,0,1-.38-1.09,1.48,1.48,0,0,1,.58-1.21,2.34,2.34,0,0,1,1.5-.47,4.53,4.53,0,0,1,1.76.35l-.17.4a4.09,4.09,0,0,0-1.58-.34,1.83,1.83,0,0,0-1.17.34,1.11,1.11,0,0,0-.44.92,1.22,1.22,0,0,0,.14.61,1.16,1.16,0,0,0,.43.42,5.44,5.44,0,0,0,1.05.45,5.69,5.69,0,0,1,1.16.52,1.72,1.72,0,0,1,.57.57A1.58,1.58,0,0,1,61.76,105.81Z"></path><path class="cls-1" d="M65.47,107.52H65v-6.2H62.84v-.43h4.78v.43H65.47Z"></path><path class="cls-1" d="M72.81,107.52H69.18v-6.63h3.63v.42H69.65v2.51h3v.43h-3v2.84h3.16Z"></path><path class="cls-1" d="M78.8,100.89h.51l-2.48,6.63h-.41L74,100.89h.49l1.67,4.51q.38,1,.51,1.53c.06-.22.18-.58.36-1.05Z"></path><path class="cls-1" d="M80.82,107.52v-6.63h.47v6.63Z"></path><path class="cls-1" d="M87.36,107.52H83.74v-6.63h3.62v.42H84.2v2.51h3v.43h-3v2.84h3.16Z"></path><path class="cls-1" d="M88.78,102.65a2,2,0,0,1,.28-1,2,2,0,0,1,.76-.76,2,2,0,0,1,1-.28,2.07,2.07,0,0,1,1,.28,2,2,0,0,1,.76.76,2,2,0,0,1,.28,1,2.06,2.06,0,0,1-.27,1,2.13,2.13,0,0,1-.75.77,2.1,2.1,0,0,1-1.07.29,2.1,2.1,0,0,1-1.81-1.06A2.06,2.06,0,0,1,88.78,102.65Zm.26,0a1.78,1.78,0,0,0,.91,1.58,1.83,1.83,0,0,0,2.74-1.58,1.78,1.78,0,0,0-.24-.9,1.7,1.7,0,0,0-.66-.67,1.79,1.79,0,0,0-1.84,0,1.87,1.87,0,0,0-.67.67A1.85,1.85,0,0,0,89,102.65Zm2.57-.52a.71.71,0,0,1-.11.39.7.7,0,0,1-.3.26l.65,1.09h-.33l-.59-1h-.46v1h-.28v-2.44h.58a1,1,0,0,1,.62.18A.61.61,0,0,1,91.61,102.13Zm-1.14.52h.31a.53.53,0,0,0,.39-.13.45.45,0,0,0,.15-.37c0-.32-.18-.48-.55-.48h-.3Z"></path><path class="cls-1" d="M101.68,107.52h-.38l-1.46-5.12c-.12-.42-.21-.76-.27-1q-.07.39-.21.9c-.09.35-.57,2.09-1.46,5.25h-.39l-1.82-6.63h.48l1.16,4.27c0,.17.09.33.13.48s.07.28.11.41.06.25.08.37,0,.24.07.36c.08-.41.23-1,.47-1.87l1.13-4h.51l1.33,4.61q.24.81.33,1.29.06-.33.15-.69c.07-.25.53-2,1.4-5.21h.47Z"></path><path class="cls-1" d="M105.26,107.52v-6.63h.46v6.63Z"></path><path class="cls-1" d="M113,107.52h-.47l-3.93-5.89h0q.06,1.05.06,1.59v4.3h-.45v-6.63h.47l3.92,5.88h0c0-.55,0-1.07,0-1.56v-4.32H113Z"></path><path class="cls-1" d="M120.27,107.52h-.46l-3.93-5.89h0q.06,1.05.06,1.59v4.3h-.45v-6.63h.46l3.93,5.88h0c0-.55-.05-1.07-.05-1.56v-4.32h.45Z"></path><path class="cls-1" d="M126.35,107.52h-3.62v-6.63h3.62v.42h-3.16v2.51h3v.43h-3v2.84h3.16Z"></path><path class="cls-1" d="M128.89,104.63v2.89h-.46v-6.63H130a3,3,0,0,1,1.82.45,1.61,1.61,0,0,1,.59,1.37,1.77,1.77,0,0,1-.35,1.13,2,2,0,0,1-1.07.66l1.8,3h-.55l-1.71-2.89Zm0-.4h1.27a2,2,0,0,0,1.3-.38,1.56,1.56,0,0,0,0-2.2,2.46,2.46,0,0,0-1.48-.35h-1.1Z"></path><path class="cls-1" d="M140.31,107.52h-4.15v-.4l1.77-1.84a15.27,15.27,0,0,0,1-1.18,3.11,3.11,0,0,0,.44-.78,2.29,2.29,0,0,0,.14-.78,1.28,1.28,0,0,0-.39-1,1.4,1.4,0,0,0-1-.37,2.55,2.55,0,0,0-1.59.6l-.24-.31a2.75,2.75,0,0,1,1.84-.7,1.9,1.9,0,0,1,1.36.46,1.68,1.68,0,0,1,.5,1.28,2.55,2.55,0,0,1-.34,1.27,7.23,7.23,0,0,1-1.21,1.52l-1.7,1.74v0h3.54Z"></path><path class="cls-1" d="M146.32,104.18a4.88,4.88,0,0,1-.54,2.59,1.92,1.92,0,0,1-3.19,0,4.94,4.94,0,0,1-.54-2.57,4.89,4.89,0,0,1,.53-2.56,1.75,1.75,0,0,1,1.59-.84,1.78,1.78,0,0,1,1.6.87A4.8,4.8,0,0,1,146.32,104.18Zm-3.78,0a4.9,4.9,0,0,0,.41,2.28,1.39,1.39,0,0,0,2.47,0,5.12,5.12,0,0,0,.39-2.26,5,5,0,0,0-.39-2.23,1.31,1.31,0,0,0-1.25-.76,1.28,1.28,0,0,0-1.24.76A5,5,0,0,0,142.54,104.18Z"></path><path class="cls-1" d="M150.5,107.52h-.44v-4.83c0-.44,0-.9.05-1.37a.86.86,0,0,1-.14.13l-1.4,1.1-.26-.32,1.8-1.34h.39Z"></path><path class="cls-1" d="M155.93,100.77a2.09,2.09,0,0,1,1.36.43,1.46,1.46,0,0,1,.51,1.17,1.34,1.34,0,0,1-.32.9,2.8,2.8,0,0,1-1,.72,3.13,3.13,0,0,1,1.22.78,1.57,1.57,0,0,1,.36,1,1.63,1.63,0,0,1-.58,1.31,2.26,2.26,0,0,1-1.54.49,2.28,2.28,0,0,1-1.54-.46,1.68,1.68,0,0,1-.53-1.33,1.54,1.54,0,0,1,.38-1,2.89,2.89,0,0,1,1.16-.76,2.87,2.87,0,0,1-1-.73,1.45,1.45,0,0,1-.3-.92,1.48,1.48,0,0,1,.24-.84A1.55,1.55,0,0,1,155,101,2.29,2.29,0,0,1,155.93,100.77Zm-1.63,5.12a1.17,1.17,0,0,0,.43,1,1.8,1.8,0,0,0,1.18.34,1.87,1.87,0,0,0,1.2-.36,1.23,1.23,0,0,0,.45-1,1.21,1.21,0,0,0-.35-.91,4.37,4.37,0,0,0-1.38-.74,3,3,0,0,0-1.18.72A1.4,1.4,0,0,0,154.3,105.89Zm1.62-4.71a1.59,1.59,0,0,0-1,.32,1.06,1.06,0,0,0-.38.86,1,1,0,0,0,.14.56,1.41,1.41,0,0,0,.41.44,4.93,4.93,0,0,0,.91.46,2.93,2.93,0,0,0,1.06-.63,1.2,1.2,0,0,0,.32-.83,1.07,1.07,0,0,0-.38-.86A1.62,1.62,0,0,0,155.92,101.18Z"></path></g><g><path class="cls-1" d="M141.81,135.21c-.37,0-.8-.08-.52-1s.77-.67,1.22-.71a45.22,45.22,0,0,0,16.25-3.65c8.38-3.57,19.23-10.94,24-27.8,9.11-32.27-20.2-48.53-20.5-48.7a.25.25,0,0,1-.11-.34.26.26,0,0,1,.35-.11,50.51,50.51,0,0,1,14,12.3c5.87,7.5,12.17,20.16,7.35,37.23s-16.05,25.4-24.55,29A48.29,48.29,0,0,1,141.81,135.21Z"></path><path class="cls-1" d="M156.29,140c.06-.17-1.33-.55-3.09-1.43s-3.73-1.83-3.54-2.19,4.47-.26,7.1.94,5.39,3.39,5.21,4.19-2.81,1.24-5,1.24a9.08,9.08,0,0,1-5.17-1.78c-1-.77-3.07-2.81-2.81-3.24s2.61,1.14,4.35,1.63S156.22,140.19,156.29,140Z"></path><path class="cls-1" d="M166.84,135a24.87,24.87,0,0,0-3-.76c-1.71-.49-3.62-1-3.5-1.34s4-.9,6.52-.27,5.33,2.09,5.29,2.8-2.34,1.5-4.29,1.83a8.52,8.52,0,0,1-4.9-.74c-1-.51-3.17-2-3-2.36s2.52.58,4.15.74S166.81,135.16,166.84,135Z"></path><path class="cls-1" d="M174.87,128.7a20.75,20.75,0,0,0-2.87-.26c-1.66-.19-3.5-.37-3.45-.71s3.51-1.47,5.95-1.28,5.25,1.14,5.34,1.82-1.9,1.77-3.64,2.39a7.83,7.83,0,0,1-4.63.06c-1-.32-3.24-1.34-3.16-1.75s2.42.15,3.94.05S174.87,128.85,174.87,128.7Z"></path><path class="cls-1" d="M180.93,121.66a24.11,24.11,0,0,0-2.71.22c-1.57.09-3.31.21-3.3-.11s3.08-1.88,5.38-2.08,5,.21,5.21.81-1.55,1.9-3.09,2.73a7.62,7.62,0,0,1-4.31.79c-1-.14-3.19-.71-3.16-1.1s2.27-.24,3.68-.57S181,121.8,180.93,121.66Z"></path><path class="cls-1" d="M185.29,114.71a17.44,17.44,0,0,0-2.43.48c-1.42.23-3,.52-3,.23s2.56-2,4.62-2.47,4.62-.32,4.84.22-1.15,1.92-2.44,2.84a6.77,6.77,0,0,1-3.82,1.16c-.93,0-3-.33-3-.69s2-.45,3.27-.9S185.33,114.84,185.29,114.71Z"></path><path class="cls-1" d="M188.09,107.77a15.6,15.6,0,0,0-2.18.67c-1.27.35-2.67.76-2.75.49s2.07-2.14,3.92-2.73,4.21-.72,4.49-.24-.79,1.9-1.85,2.87a6,6,0,0,1-3.36,1.44c-.85.07-2.81,0-2.88-.36s1.81-.61,2.89-1.15S188.14,107.88,188.09,107.77Z"></path><path class="cls-1" d="M189.65,101.1a16.27,16.27,0,0,0-2,.85c-1.15.45-2.41,1-2.51.74s1.71-2.21,3.36-2.94,3.85-1.1,4.17-.69-.55,1.85-1.43,2.87a5.6,5.6,0,0,1-3,1.68c-.79.15-2.62.25-2.73,0s1.63-.75,2.58-1.36S189.71,101.2,189.65,101.1Z"></path><path class="cls-1" d="M190.18,95.09a14,14,0,0,0-1.74.94c-1,.52-2.14,1.12-2.27.9s1.34-2.19,2.8-3,3.48-1.34,3.83-1-.29,1.76-1,2.78a5,5,0,0,1-2.59,1.8c-.72.21-2.43.46-2.56.19s1.43-.83,2.25-1.48S190.24,95.18,190.18,95.09Z"></path><path class="cls-1" d="M190.15,89.31c-.08-.07-.59.48-1.45,1.07s-1.8,1.27-2,1.09.8-2.14,2-3.06,3-1.63,3.42-1.35.1,1.61-.36,2.62a4.14,4.14,0,0,1-2.07,1.94c-.64.27-2.21.71-2.39.49s1.18-.93,1.82-1.61S190.23,89.38,190.15,89.31Z"></path><path class="cls-1" d="M189.37,84.55c-.08-.07-.57.47-1.39,1.06s-1.73,1.26-1.89,1.08.8-2.09,2-3,2.89-1.63,3.28-1.37.07,1.58-.38,2.56a4.14,4.14,0,0,1-2,1.92c-.62.28-2.12.73-2.29.51s1.14-.92,1.76-1.59S189.45,84.62,189.37,84.55Z"></path><path class="cls-1" d="M188.37,79.88c-.08-.06-.48.51-1.18,1.15s-1.47,1.38-1.63,1.23a5.73,5.73,0,0,1,1.53-3c1-1,2.5-1.86,2.88-1.65s.21,1.47-.11,2.45a4.1,4.1,0,0,1-1.66,2c-.54.33-1.87.91-2,.73s1-1,1.46-1.69S188.45,79.94,188.37,79.88Z"></path><path class="cls-1" d="M187,75.72c-.07-.06-.44.48-1.08,1.1s-1.35,1.32-1.48,1.19a5.55,5.55,0,0,1,1.42-2.89c.93-1,2.28-1.8,2.62-1.61s.16,1.39-.14,2.31a3.87,3.87,0,0,1-1.53,1.94c-.49.32-1.7.9-1.85.72s.88-1,1.34-1.61S187,75.77,187,75.72Z"></path><path class="cls-1" d="M185.33,72c-.07,0-.35.5-.89,1.16s-1.11,1.38-1.26,1.27a5.17,5.17,0,0,1,1-2.85c.76-1,1.94-1.94,2.28-1.8s.34,1.27.16,2.16a3.61,3.61,0,0,1-1.2,2c-.43.35-1.5,1-1.67.88s.71-1,1.07-1.66S185.4,72,185.33,72Z"></path><path class="cls-1" d="M183.66,68.54a10,10,0,0,0-.8,1.14c-.48.65-1,1.38-1.13,1.28a5.54,5.54,0,0,1,.9-2.81c.68-1,1.74-1.94,2.05-1.81s.28,1.23.12,2.11a3.76,3.76,0,0,1-1.09,2c-.38.36-1.34,1-1.49.91s.64-1,1-1.65S183.72,68.57,183.66,68.54Z"></path><path class="cls-1" d="M181.71,65.74c-.07,0-.3.51-.76,1.17s-.94,1.42-1.08,1.32a5.51,5.51,0,0,1,.8-2.84c.64-1,1.66-2,2-1.89s.33,1.22.21,2.1a3.8,3.8,0,0,1-1,2c-.36.37-1.3,1.09-1.46,1s.61-1,.91-1.68A3.69,3.69,0,0,0,181.71,65.74Z"></path><path class="cls-1" d="M179.84,63.08a13,13,0,0,0-.69,1.22c-.43.69-.88,1.46-1,1.37a5.52,5.52,0,0,1,.65-2.88c.6-1.06,1.57-2.08,1.89-2s.39,1.2.3,2.09a3.73,3.73,0,0,1-.91,2.05c-.35.39-1.25,1.15-1.41,1s.55-1,.82-1.72S179.91,63.12,179.84,63.08Z"></path><path class="cls-1" d="M177.74,60.84a12.69,12.69,0,0,0-.6,1.12c-.36.63-.75,1.34-.87,1.26a5.63,5.63,0,0,1,.58-2.65c.51-1,1.34-1.92,1.61-1.83s.32,1.1.24,1.92a3.57,3.57,0,0,1-.79,1.89c-.3.36-1.06,1.07-1.2,1s.48-.95.71-1.59S177.8,60.87,177.74,60.84Z"></path><path class="cls-1" d="M175.84,58.53a10,10,0,0,0-.5,1.12c-.31.63-.64,1.34-.76,1.27a5.46,5.46,0,0,1,.39-2.59c.43-1,1.17-1.93,1.43-1.86s.37,1,.34,1.83a3.45,3.45,0,0,1-.64,1.87c-.26.36-.95,1.1-1.09,1s.41-1,.59-1.58S175.9,58.56,175.84,58.53Z"></path><path class="cls-1" d="M173.79,56.94a10.48,10.48,0,0,0-.47,1.05c-.28.59-.59,1.25-.69,1.18a5,5,0,0,1,.36-2.41c.4-.91,1.08-1.81,1.31-1.74s.35,1,.32,1.71a3.39,3.39,0,0,1-.59,1.75c-.24.34-.88,1-1,.93s.37-.89.53-1.47A3.23,3.23,0,0,0,173.79,56.94Z"></path><path class="cls-1" d="M171.89,55.27a9.57,9.57,0,0,0-.44,1c-.27.6-.56,1.27-.67,1.2a5,5,0,0,1,.31-2.42c.38-.91,1-1.83,1.27-1.77s.37,1,.36,1.7a3.34,3.34,0,0,1-.55,1.77c-.23.34-.85,1-1,1s.35-.89.5-1.49S172,55.29,171.89,55.27Z"></path><path class="cls-1" d="M170,53.78a8.32,8.32,0,0,0-.4,1.07c-.25.61-.51,1.29-.62,1.23a5.1,5.1,0,0,1,.21-2.43c.33-.93,1-1.88,1.2-1.83s.4,1,.42,1.69a3.39,3.39,0,0,1-.47,1.79c-.22.35-.81,1.07-1,1s.32-.91.45-1.51A3.18,3.18,0,0,0,170,53.78Z"></path><path class="cls-1" d="M168.09,52.53a10.06,10.06,0,0,0-.3,1c-.2.59-.4,1.25-.51,1.19a5,5,0,0,1,.05-2.31c.26-.9.78-1.83,1-1.79s.43.87.5,1.57A3.38,3.38,0,0,1,168.5,54c-.19.34-.69,1.06-.82,1s.24-.88.32-1.45A2.87,2.87,0,0,0,168.09,52.53Z"></path><path class="cls-1" d="M166.23,51.55a8,8,0,0,0-.24,1c-.15.58-.31,1.23-.42,1.18a4.79,4.79,0,0,1-.07-2.23c.2-.88.65-1.8.87-1.78s.45.83.55,1.5a3.26,3.26,0,0,1-.23,1.67c-.16.34-.61,1.05-.73,1s.18-.85.23-1.41A3.06,3.06,0,0,0,166.23,51.55Z"></path><path class="cls-1" d="M164.45,50.57a7.78,7.78,0,0,0-.16,1c-.1.55-.21,1.17-.31,1.13a4.31,4.31,0,0,1-.22-2.09c.13-.84.49-1.73.7-1.73s.48.74.62,1.37A2.9,2.9,0,0,1,165,51.8c-.13.33-.5,1-.62,1s.11-.82.13-1.35A3,3,0,0,0,164.45,50.57Z"></path><path class="cls-1" d="M159.45,51.6c0,.07.44.23,1,.6s1.21.75,1.14.89a3.83,3.83,0,0,1-2.35-.47c-.87-.51-1.73-1.38-1.66-1.68s1-.44,1.68-.4a2.81,2.81,0,0,1,1.69.76c.32.31,1,1.12.88,1.28s-.86-.47-1.43-.69S159.48,51.54,159.45,51.6Z"></path><path class="cls-1" d="M152.1,125.24c-.15-.07-.62,1-1.57,2.4s-2,2.89-2.27,2.7.2-3.72,1.51-5.76,3.51-4.1,4.19-3.88.84,2.45.63,4.23a7.16,7.16,0,0,1-2.06,4.08c-.78.76-2.78,2.25-3.14,2s1.26-2,1.86-3.42S152.24,125.31,152.1,125.24Z"></path><path class="cls-1" d="M159.68,122.28a20.08,20.08,0,0,0-.76,2.54c-.48,1.45-1,3.07-1.31,3s-.78-3.34-.15-5.49,2-4.54,2.7-4.52,1.37,2,1.65,3.59a6.71,6.71,0,0,1-.77,4.15c-.49.87-1.87,2.71-2.25,2.57s.58-2.13.75-3.51S159.83,122.31,159.68,122.28Z"></path><path class="cls-1" d="M166.08,118.11a17.4,17.4,0,0,0-.16,2.55c-.14,1.47-.26,3.1-.57,3.07s-1.41-3-1.3-5.2.91-4.69,1.52-4.79,1.65,1.6,2.25,3.11a6.69,6.69,0,0,1,.17,4.09c-.27.91-1.14,2.92-1.51,2.86s.08-2.14,0-3.48S166.22,118.11,166.08,118.11Z"></path><path class="cls-1" d="M171,113.29a16.16,16.16,0,0,0,.35,2.28c.16,1.33.37,2.8.09,2.82s-1.81-2.45-2.12-4.39-.11-4.31.4-4.5,1.75,1.14,2.56,2.37a6.3,6.3,0,0,1,.93,3.6c-.06.86-.43,2.78-.77,2.79s-.34-1.9-.71-3.08S171.09,113.26,171,113.29Z"></path><path class="cls-1" d="M174.57,108.18a19.25,19.25,0,0,0,.67,2.06c.35,1.2.77,2.52.52,2.57s-2-2.07-2.58-3.81-.77-3.94-.34-4.17,1.74.88,2.66,1.93a6.17,6.17,0,0,1,1.4,3.21c.08.79,0,2.58-.26,2.63s-.6-1.72-1.12-2.75S174.68,108.14,174.57,108.18Z"></path><path class="cls-1" d="M176.94,103.33a15.64,15.64,0,0,0,1,1.84c.54,1.07,1.16,2.26.93,2.35a8.68,8.68,0,0,1-3.11-3.14c-.86-1.59-1.4-3.61-1-3.9s1.81.5,2.86,1.33a6,6,0,0,1,1.88,2.79c.21.74.48,2.45.2,2.55s-.86-1.52-1.53-2.41S177,103.28,176.94,103.33Z"></path><path class="cls-1" d="M178.57,98.34a15.22,15.22,0,0,0,1.25,1.54c.69.91,1.49,1.91,1.29,2a8.44,8.44,0,0,1-3.47-2.41c-1.09-1.33-2-3.12-1.67-3.45s1.79.18,2.92.78a5.63,5.63,0,0,1,2.25,2.28c.33.65.89,2.19.65,2.33s-1.08-1.27-1.86-2S178.64,98.27,178.57,98.34Z"></path><path class="cls-1" d="M179.48,93.73c-.06.07.57.53,1.29,1.3s1.55,1.61,1.38,1.75A7.36,7.36,0,0,1,178.74,95c-1.12-1.11-2.09-2.69-1.85-3s1.65-.08,2.74.33a4.93,4.93,0,0,1,2.28,1.87c.37.57,1,2,.82,2.13s-1.11-1.06-1.9-1.64S179.54,93.66,179.48,93.73Z"></path><path class="cls-1" d="M179.6,89.07a14.09,14.09,0,0,0,1.38,1c.78.6,1.66,1.25,1.53,1.42a6.49,6.49,0,0,1-3.39-1.13c-1.2-.86-2.32-2.19-2.16-2.58s1.5-.36,2.56-.16A4.46,4.46,0,0,1,181.88,89c.42.48,1.24,1.69,1.07,1.88s-1.17-.81-2-1.22S179.65,89,179.6,89.07Z"></path><path class="cls-1" d="M179.55,85.29A12.57,12.57,0,0,0,181,86c.81.43,1.72.89,1.63,1.05a6.34,6.34,0,0,1-3.32-.54c-1.24-.6-2.48-1.62-2.39-2s1.34-.52,2.36-.49a4.29,4.29,0,0,1,2.4.89c.46.37,1.4,1.33,1.27,1.52s-1.21-.56-2-.81S179.58,85.21,179.55,85.29Z"></path><path class="cls-1" d="M178.91,81.52a10.29,10.29,0,0,0,1.45.45c.83.28,1.76.58,1.69.74a6.36,6.36,0,0,1-3.23,0c-1.26-.38-2.57-1.15-2.53-1.49s1.2-.67,2.17-.77a4.31,4.31,0,0,1,2.4.48c.49.28,1.51,1,1.42,1.22s-1.23-.34-2-.46A4.31,4.31,0,0,0,178.91,81.52Z"></path><path class="cls-1" d="M178.07,78.09a13.71,13.71,0,0,0,1.44.28c.83.18,1.76.36,1.71.52a6.41,6.41,0,0,1-3.14.27c-1.26-.23-2.59-.82-2.58-1.14s1.11-.73,2.05-.92a4.24,4.24,0,0,1,2.37.22c.49.21,1.54.81,1.47,1s-1.22-.21-2-.24A4,4,0,0,0,178.07,78.09Z"></path><path class="cls-1" d="M177,74.93a10.73,10.73,0,0,0,1.34.24c.77.15,1.63.31,1.58.45a6.29,6.29,0,0,1-2.92.27c-1.16-.2-2.4-.71-2.39-1s1-.66,1.91-.83a4.17,4.17,0,0,1,2.21.18c.46.18,1.43.7,1.36.87s-1.14-.17-1.87-.2A4.41,4.41,0,0,0,177,74.93Z"></path><path class="cls-1" d="M175.76,72.14a13.53,13.53,0,0,0,1.36,0c.79,0,1.66.08,1.63.23a6.33,6.33,0,0,1-2.85.68c-1.18,0-2.48-.36-2.51-.64s.94-.8,1.77-1.11a4.11,4.11,0,0,1,2.21-.13c.48.11,1.52.49,1.47.66s-1.15,0-1.88.08A3.7,3.7,0,0,0,175.76,72.14Z"></path><path class="cls-1" d="M174.34,69.59a9,9,0,0,0,1.32,0c.76,0,1.61,0,1.6.14a5.73,5.73,0,0,1-2.69.85c-1.15,0-2.44-.24-2.5-.53s.83-.86,1.61-1.21a3.81,3.81,0,0,1,2.12-.26c.47.09,1.52.42,1.49.6s-1.11.06-1.81.18S174.34,69.52,174.34,69.59Z"></path><path class="cls-1" d="M173,67.29a7.54,7.54,0,0,0,1.24-.13c.71-.06,1.51-.14,1.51,0a5.27,5.27,0,0,1-2.45,1c-1.07.12-2.3,0-2.38-.3s.7-.88,1.4-1.27a3.44,3.44,0,0,1,2-.41c.45,0,1.46.28,1.45.45s-1,.14-1.68.31A3.41,3.41,0,0,0,173,67.29Z"></path><path class="cls-1" d="M171.4,65.25a11.3,11.3,0,0,0,1.21-.25c.71-.13,1.49-.28,1.5-.14a5.07,5.07,0,0,1-2.34,1.24c-1.05.22-2.29.19-2.39-.07s.61-.94,1.27-1.4a3.44,3.44,0,0,1,1.91-.59c.46,0,1.48.14,1.49.31s-1,.23-1.64.46S171.38,65.19,171.4,65.25Z"></path><path class="cls-1" d="M169.84,63.45A11.24,11.24,0,0,0,171,63.1c.64-.18,1.36-.4,1.38-.27a4.7,4.7,0,0,1-2.05,1.38c-.95.3-2.11.39-2.24.15s.47-.93,1-1.42a3.26,3.26,0,0,1,1.72-.73c.43,0,1.39,0,1.42.15s-.93.31-1.48.59S169.82,63.39,169.84,63.45Z"></path><path class="cls-1" d="M168.3,61.69a10.22,10.22,0,0,0,1-.45c.6-.24,1.27-.51,1.3-.39a5,5,0,0,1-1.87,1.51c-.89.39-2,.58-2.12.38s.4-.94.91-1.46a3.28,3.28,0,0,1,1.6-.87c.4-.08,1.31-.15,1.34,0s-.85.4-1.37.71S168.28,61.63,168.3,61.69Z"></path><path class="cls-1" d="M166.75,60.32a7.91,7.91,0,0,0,.88-.56c.5-.31,1.07-.67,1.1-.56a5,5,0,0,1-1.52,1.64c-.75.5-1.7.85-1.83.69s.28-.9.69-1.45a3.3,3.3,0,0,1,1.33-1c.34-.14,1.14-.35,1.18-.22s-.72.49-1.15.85S166.73,60.28,166.75,60.32Z"></path><path class="cls-1" d="M165.27,58.88a7.71,7.71,0,0,0,.81-.54c.47-.3,1-.64,1-.54a5.06,5.06,0,0,1-1.42,1.55c-.7.47-1.57.82-1.69.67s.27-.83.66-1.35a3.17,3.17,0,0,1,1.23-1c.32-.13,1.06-.35,1.09-.23s-.67.47-1.07.81S165.25,58.84,165.27,58.88Z"></path><path class="cls-1" d="M163.7,57.66a9.19,9.19,0,0,0,.81-.54c.47-.3,1-.64,1-.54a5,5,0,0,1-1.43,1.55c-.69.47-1.56.82-1.68.67s.27-.83.65-1.35a3.26,3.26,0,0,1,1.24-1c.32-.14,1.05-.35,1.09-.23s-.67.47-1.07.81S163.68,57.62,163.7,57.66Z"></path><path class="cls-1" d="M162.22,56.67a8.71,8.71,0,0,0,.77-.58c.46-.33,1-.7,1-.6a5,5,0,0,1-1.33,1.63c-.67.51-1.52.91-1.64.77s.22-.85.57-1.39a3.3,3.3,0,0,1,1.18-1c.31-.15,1-.41,1.07-.29s-.64.5-1,.87S162.2,56.63,162.22,56.67Z"></path><path class="cls-1" d="M160.7,55.63a8.59,8.59,0,0,0,.74-.63c.43-.35.91-.75.95-.66a4.94,4.94,0,0,1-1.23,1.71c-.63.55-1.46,1-1.59.86s.17-.86.49-1.41a3.22,3.22,0,0,1,1.11-1.13c.3-.17,1-.46,1.05-.35s-.61.54-1,.93A3.36,3.36,0,0,0,160.7,55.63Z"></path></g><g><path class="cls-1" d="M74.19,135.21c.37,0,.8-.08.52-1s-.77-.67-1.22-.71a45.22,45.22,0,0,1-16.25-3.65c-8.38-3.57-19.23-10.94-24-27.8-9.11-32.27,20.2-48.53,20.5-48.7a.25.25,0,0,0,.11-.34.26.26,0,0,0-.35-.11,50.51,50.51,0,0,0-14,12.3c-5.87,7.5-12.17,20.16-7.35,37.23s16,25.4,24.55,29A48.29,48.29,0,0,0,74.19,135.21Z"></path><path class="cls-1" d="M59.71,140c-.06-.17,1.33-.55,3.09-1.43s3.73-1.83,3.54-2.19-4.47-.26-7.1.94-5.39,3.39-5.21,4.19,2.81,1.24,5,1.24A9.08,9.08,0,0,0,64.17,141c1-.77,3.07-2.81,2.81-3.24s-2.61,1.14-4.35,1.63S59.78,140.19,59.71,140Z"></path><path class="cls-1" d="M49.16,135a24.87,24.87,0,0,1,3-.76c1.71-.49,3.62-1,3.5-1.34s-4-.9-6.52-.27-5.33,2.09-5.29,2.8,2.34,1.5,4.29,1.83a8.52,8.52,0,0,0,4.9-.74c1-.51,3.17-2,3-2.36s-2.52.58-4.15.74S49.19,135.16,49.16,135Z"></path><path class="cls-1" d="M41.13,128.7a20.75,20.75,0,0,1,2.87-.26c1.66-.19,3.5-.37,3.45-.71s-3.51-1.47-6-1.28-5.25,1.14-5.34,1.82,1.9,1.77,3.64,2.39a7.83,7.83,0,0,0,4.63.06c1-.32,3.24-1.34,3.16-1.75s-2.42.15-3.94.05S41.13,128.85,41.13,128.7Z"></path><path class="cls-1" d="M35.07,121.66a24.11,24.11,0,0,1,2.71.22c1.57.09,3.31.21,3.3-.11s-3.08-1.88-5.38-2.08-5.05.21-5.21.81,1.55,1.9,3.09,2.73a7.62,7.62,0,0,0,4.31.79c1-.14,3.19-.71,3.16-1.1s-2.27-.24-3.68-.57S35.05,121.8,35.07,121.66Z"></path><path class="cls-1" d="M30.71,114.71a17.44,17.44,0,0,1,2.43.48c1.42.23,3,.52,3,.23s-2.56-2-4.62-2.47-4.62-.32-4.84.22,1.15,1.92,2.44,2.84A6.77,6.77,0,0,0,33,117.17c.93,0,3-.33,3-.69s-2-.45-3.27-.9S30.67,114.84,30.71,114.71Z"></path><path class="cls-1" d="M27.91,107.77a15.6,15.6,0,0,1,2.18.67c1.27.35,2.67.76,2.75.49s-2.07-2.14-3.92-2.73-4.21-.72-4.49-.24.79,1.9,1.85,2.87a6,6,0,0,0,3.36,1.44c.85.07,2.81,0,2.88-.36s-1.81-.61-2.89-1.15S27.86,107.88,27.91,107.77Z"></path><path class="cls-1" d="M26.35,101.1a16.27,16.27,0,0,1,2,.85c1.15.45,2.41,1,2.51.74s-1.71-2.21-3.36-2.94-3.85-1.1-4.17-.69.55,1.85,1.43,2.87a5.6,5.6,0,0,0,3,1.68c.79.15,2.62.25,2.73,0s-1.63-.75-2.58-1.36S26.29,101.2,26.35,101.1Z"></path><path class="cls-1" d="M25.82,95.09a14,14,0,0,1,1.74.94c1,.52,2.14,1.12,2.27.9s-1.34-2.19-2.8-3-3.48-1.34-3.83-1,.29,1.76,1,2.78a5,5,0,0,0,2.59,1.8c.72.21,2.43.46,2.56.19s-1.43-.83-2.25-1.48S25.76,95.18,25.82,95.09Z"></path><path class="cls-1" d="M25.85,89.31c.08-.07.59.48,1.45,1.07s1.8,1.27,2,1.09-.8-2.14-2-3.06-3-1.63-3.42-1.35-.1,1.61.36,2.62a4.14,4.14,0,0,0,2.07,1.94c.64.27,2.21.71,2.39.49s-1.18-.93-1.82-1.61S25.77,89.38,25.85,89.31Z"></path><path class="cls-1" d="M26.63,84.55c.08-.07.57.47,1.39,1.06s1.73,1.26,1.89,1.08-.8-2.09-2-3-2.89-1.63-3.28-1.37-.07,1.58.38,2.56a4.14,4.14,0,0,0,2,1.92c.62.28,2.12.73,2.29.51s-1.14-.92-1.76-1.59S26.55,84.62,26.63,84.55Z"></path><path class="cls-1" d="M27.63,79.88c.08-.06.48.51,1.18,1.15s1.47,1.38,1.63,1.23a5.73,5.73,0,0,0-1.53-3c-1-1-2.5-1.86-2.88-1.65S25.82,79,26.14,80a4.1,4.1,0,0,0,1.66,2c.54.33,1.87.91,2.05.73s-1-1-1.46-1.69S27.55,79.94,27.63,79.88Z"></path><path class="cls-1" d="M29,75.72c.07-.06.44.48,1.08,1.1s1.35,1.32,1.48,1.19a5.55,5.55,0,0,0-1.42-2.89c-.93-1-2.28-1.8-2.62-1.61s-.16,1.39.14,2.31a3.87,3.87,0,0,0,1.53,1.94c.49.32,1.7.9,1.85.72s-.88-1-1.34-1.61S29,75.77,29,75.72Z"></path><path class="cls-1" d="M30.67,72c.07,0,.35.5.89,1.16s1.11,1.38,1.26,1.27a5.17,5.17,0,0,0-1-2.85c-.76-1-1.94-1.94-2.28-1.8s-.34,1.27-.16,2.16a3.61,3.61,0,0,0,1.2,2c.43.35,1.5,1,1.67.88s-.71-1-1.07-1.66S30.6,72,30.67,72Z"></path><path class="cls-1" d="M32.34,68.54a10,10,0,0,1,.8,1.14c.48.65,1,1.38,1.13,1.28a5.54,5.54,0,0,0-.9-2.81c-.68-1-1.74-1.94-2-1.81s-.28,1.23-.12,2.11a3.76,3.76,0,0,0,1.09,2c.38.36,1.34,1,1.49.91s-.64-1-1-1.65S32.28,68.57,32.34,68.54Z"></path><path class="cls-1" d="M34.29,65.74c.07,0,.3.51.76,1.17s.94,1.42,1.08,1.32a5.51,5.51,0,0,0-.8-2.84c-.64-1-1.66-2-2-1.89s-.33,1.22-.21,2.1a3.8,3.8,0,0,0,1,2c.36.37,1.3,1.09,1.46,1s-.61-1-.91-1.68A3.69,3.69,0,0,1,34.29,65.74Z"></path><path class="cls-1" d="M36.16,63.08a13,13,0,0,1,.69,1.22c.43.69.88,1.46,1,1.37a5.52,5.52,0,0,0-.65-2.88c-.6-1.06-1.57-2.08-1.89-2S34.94,62,35,62.9A3.73,3.73,0,0,0,35.94,65c.35.39,1.25,1.15,1.41,1s-.55-1-.82-1.72S36.09,63.12,36.16,63.08Z"></path><path class="cls-1" d="M38.26,60.84a12.69,12.69,0,0,1,.6,1.12c.36.63.75,1.34.87,1.26a5.63,5.63,0,0,0-.58-2.65c-.51-1-1.34-1.92-1.61-1.83s-.32,1.1-.24,1.92a3.57,3.57,0,0,0,.79,1.89c.3.36,1.06,1.07,1.2,1s-.48-.95-.71-1.59S38.2,60.87,38.26,60.84Z"></path><path class="cls-1" d="M40.16,58.53a10,10,0,0,1,.5,1.12c.31.63.64,1.34.76,1.27A5.46,5.46,0,0,0,41,58.33c-.43-1-1.17-1.93-1.43-1.86s-.37,1-.34,1.83a3.45,3.45,0,0,0,.64,1.87c.26.36,1,1.1,1.09,1s-.41-1-.59-1.58S40.1,58.56,40.16,58.53Z"></path><path class="cls-1" d="M42.21,56.94A10.48,10.48,0,0,1,42.68,58c.28.59.59,1.25.69,1.18A5,5,0,0,0,43,56.76c-.4-.91-1.08-1.81-1.31-1.74s-.35,1-.32,1.71A3.39,3.39,0,0,0,42,58.48c.24.34.88,1,1,.93s-.37-.89-.53-1.47A3.23,3.23,0,0,1,42.21,56.94Z"></path><path class="cls-1" d="M44.11,55.27a9.57,9.57,0,0,1,.44,1c.27.6.56,1.27.67,1.2a5,5,0,0,0-.31-2.42c-.38-.91-1-1.83-1.27-1.77s-.37,1-.36,1.7a3.34,3.34,0,0,0,.55,1.77c.23.34.85,1,1,1s-.35-.89-.5-1.49S44.05,55.29,44.11,55.27Z"></path><path class="cls-1" d="M46,53.78a8.32,8.32,0,0,1,.4,1.07c.25.61.51,1.29.62,1.23a5.1,5.1,0,0,0-.21-2.43c-.33-.93-1-1.88-1.2-1.83s-.4,1-.42,1.69a3.39,3.39,0,0,0,.47,1.79c.22.35.81,1.07.95,1s-.32-.91-.45-1.51A3.18,3.18,0,0,1,46,53.78Z"></path><path class="cls-1" d="M47.91,52.53a10.06,10.06,0,0,1,.3,1c.2.59.4,1.25.51,1.19a5,5,0,0,0,0-2.31c-.26-.9-.78-1.83-1-1.79s-.43.87-.5,1.57A3.38,3.38,0,0,0,47.5,54c.19.34.69,1.06.82,1s-.24-.88-.32-1.45A2.87,2.87,0,0,1,47.91,52.53Z"></path><path class="cls-1" d="M49.77,51.55a8,8,0,0,1,.24,1c.15.58.31,1.23.42,1.18a4.94,4.94,0,0,0,.07-2.23c-.2-.88-.65-1.8-.87-1.78s-.45.83-.55,1.5a3.26,3.26,0,0,0,.23,1.67c.16.34.61,1.05.73,1s-.18-.85-.23-1.41A3.06,3.06,0,0,1,49.77,51.55Z"></path><path class="cls-1" d="M51.55,50.57a7.78,7.78,0,0,1,.16,1c.1.55.21,1.17.31,1.13a4.31,4.31,0,0,0,.22-2.09c-.13-.84-.49-1.73-.7-1.73s-.48.74-.62,1.37A2.9,2.9,0,0,0,51,51.8c.13.33.5,1,.62,1s-.11-.82-.13-1.35A3,3,0,0,1,51.55,50.57Z"></path><path class="cls-1" d="M56.55,51.6c0,.07-.44.23-1,.6s-1.21.75-1.14.89a3.83,3.83,0,0,0,2.35-.47c.87-.51,1.73-1.38,1.66-1.68s-1-.44-1.68-.4A2.81,2.81,0,0,0,55,51.3c-.32.31-1,1.12-.88,1.28s.86-.47,1.43-.69S56.52,51.54,56.55,51.6Z"></path><path class="cls-1" d="M63.9,125.24c.15-.07.62,1,1.57,2.4s2,2.89,2.27,2.7-.2-3.72-1.51-5.76-3.51-4.1-4.19-3.88-.84,2.45-.63,4.23A7.16,7.16,0,0,0,63.47,129c.78.76,2.78,2.25,3.14,2s-1.26-2-1.86-3.42S63.76,125.31,63.9,125.24Z"></path><path class="cls-1" d="M56.32,122.28a20.08,20.08,0,0,1,.76,2.54c.48,1.45,1,3.07,1.31,3s.78-3.34.15-5.49-2-4.54-2.7-4.52-1.37,2-1.65,3.59a6.71,6.71,0,0,0,.77,4.15c.49.87,1.87,2.71,2.25,2.57s-.58-2.13-.75-3.51S56.17,122.31,56.32,122.28Z"></path><path class="cls-1" d="M49.92,118.11a17.4,17.4,0,0,1,.16,2.55c.14,1.47.26,3.1.57,3.07s1.41-3,1.3-5.2-.91-4.69-1.52-4.79-1.65,1.6-2.25,3.11a6.69,6.69,0,0,0-.17,4.09c.27.91,1.14,2.92,1.51,2.86s-.08-2.14,0-3.48S49.78,118.11,49.92,118.11Z"></path><path class="cls-1" d="M45,113.29a16.16,16.16,0,0,1-.35,2.28c-.16,1.33-.37,2.8-.09,2.82s1.81-2.45,2.12-4.39.11-4.31-.4-4.5-1.75,1.14-2.56,2.37a6.3,6.3,0,0,0-.93,3.6c.06.86.43,2.78.77,2.79s.34-1.9.71-3.08S44.91,113.26,45,113.29Z"></path><path class="cls-1" d="M41.43,108.18a19.25,19.25,0,0,1-.67,2.06c-.35,1.2-.77,2.52-.52,2.57s2-2.07,2.58-3.81.77-3.94.34-4.17-1.74.88-2.66,1.93A6.17,6.17,0,0,0,39.1,110c-.08.79,0,2.58.26,2.63s.6-1.72,1.12-2.75S41.32,108.14,41.43,108.18Z"></path><path class="cls-1" d="M39.06,103.33a15.64,15.64,0,0,1-1,1.84c-.54,1.07-1.16,2.26-.93,2.35a8.68,8.68,0,0,0,3.11-3.14c.86-1.59,1.4-3.61,1-3.9s-1.81.5-2.86,1.33a5.88,5.88,0,0,0-1.88,2.79c-.21.74-.48,2.45-.2,2.55s.86-1.52,1.53-2.41S39,103.28,39.06,103.33Z"></path><path class="cls-1" d="M37.43,98.34a15.22,15.22,0,0,1-1.25,1.54c-.69.91-1.49,1.91-1.29,2a8.44,8.44,0,0,0,3.47-2.41c1.09-1.33,2-3.12,1.67-3.45s-1.79.18-2.92.78a5.63,5.63,0,0,0-2.25,2.28c-.33.65-.89,2.19-.65,2.33s1.08-1.27,1.86-2S37.36,98.27,37.43,98.34Z"></path><path class="cls-1" d="M36.52,93.73c.06.07-.57.53-1.29,1.3s-1.55,1.61-1.38,1.75A7.36,7.36,0,0,0,37.26,95c1.12-1.11,2.09-2.69,1.85-3s-1.65-.08-2.74.33a4.93,4.93,0,0,0-2.28,1.87c-.37.57-1,2-.82,2.13s1.11-1.06,1.9-1.64S36.46,93.66,36.52,93.73Z"></path><path class="cls-1" d="M36.4,89.07a14.09,14.09,0,0,1-1.38,1c-.78.6-1.66,1.25-1.53,1.42a6.49,6.49,0,0,0,3.39-1.13c1.2-.86,2.32-2.19,2.16-2.58s-1.5-.36-2.56-.16A4.46,4.46,0,0,0,34.12,89c-.42.48-1.24,1.69-1.07,1.88s1.17-.81,2-1.22S36.35,89,36.4,89.07Z"></path><path class="cls-1" d="M36.45,85.29A12.57,12.57,0,0,1,35,86c-.81.43-1.72.89-1.63,1.05a6.34,6.34,0,0,0,3.32-.54c1.24-.6,2.48-1.62,2.39-2S37.76,84,36.74,84a4.29,4.29,0,0,0-2.4.89c-.46.37-1.4,1.33-1.27,1.52s1.21-.56,2-.81S36.42,85.21,36.45,85.29Z"></path><path class="cls-1" d="M37.09,81.52a10.29,10.29,0,0,1-1.45.45c-.83.28-1.76.58-1.69.74a6.36,6.36,0,0,0,3.23,0c1.26-.38,2.57-1.15,2.53-1.49s-1.2-.67-2.17-.77a4.31,4.31,0,0,0-2.4.48c-.49.28-1.51,1-1.42,1.22s1.23-.34,2-.46A4.31,4.31,0,0,1,37.09,81.52Z"></path><path class="cls-1" d="M37.93,78.09a13.71,13.71,0,0,1-1.44.28c-.83.18-1.76.36-1.71.52a6.41,6.41,0,0,0,3.14.27c1.26-.23,2.59-.82,2.58-1.14s-1.11-.73-2-.92a4.24,4.24,0,0,0-2.37.22c-.49.21-1.54.81-1.47,1s1.22-.21,2-.24A4,4,0,0,1,37.93,78.09Z"></path><path class="cls-1" d="M39,74.93a10.73,10.73,0,0,1-1.34.24c-.77.15-1.63.31-1.58.45a6.29,6.29,0,0,0,2.92.27c1.16-.2,2.4-.71,2.39-1s-1-.66-1.91-.83a4.17,4.17,0,0,0-2.21.18c-.46.18-1.43.7-1.36.87s1.14-.17,1.87-.2A4.41,4.41,0,0,1,39,74.93Z"></path><path class="cls-1" d="M40.24,72.14a13.53,13.53,0,0,1-1.36,0c-.79,0-1.66.08-1.63.23a6.33,6.33,0,0,0,2.85.68c1.18,0,2.48-.36,2.51-.64s-.94-.8-1.77-1.11a4.11,4.11,0,0,0-2.21-.13c-.48.11-1.52.49-1.47.66s1.15,0,1.88.08A3.7,3.7,0,0,1,40.24,72.14Z"></path><path class="cls-1" d="M41.66,69.59a9,9,0,0,1-1.32,0c-.76,0-1.61,0-1.6.14a5.73,5.73,0,0,0,2.69.85c1.15,0,2.44-.24,2.5-.53s-.83-.86-1.61-1.21a3.81,3.81,0,0,0-2.12-.26c-.47.09-1.52.42-1.49.6s1.11.06,1.81.18S41.66,69.52,41.66,69.59Z"></path><path class="cls-1" d="M43.05,67.29a7.54,7.54,0,0,1-1.24-.13c-.71-.06-1.51-.14-1.51,0a5.27,5.27,0,0,0,2.45,1c1.07.12,2.3,0,2.38-.3s-.7-.88-1.4-1.27a3.44,3.44,0,0,0-2-.41c-.45,0-1.46.28-1.45.45s1,.14,1.68.31A3.41,3.41,0,0,1,43.05,67.29Z"></path><path class="cls-1" d="M44.6,65.25A11.3,11.3,0,0,1,43.39,65c-.71-.13-1.49-.28-1.5-.14a5.08,5.08,0,0,0,2.33,1.24c1.06.22,2.3.19,2.4-.07s-.61-.94-1.27-1.4A3.44,3.44,0,0,0,43.44,64c-.46,0-1.48.14-1.49.31s1,.23,1.64.46S44.62,65.19,44.6,65.25Z"></path><path class="cls-1" d="M46.16,63.45a11.24,11.24,0,0,1-1.11-.35c-.64-.18-1.36-.4-1.38-.27a4.7,4.7,0,0,0,2,1.38c1,.3,2.11.39,2.24.15s-.47-.93-1-1.42a3.26,3.26,0,0,0-1.72-.73c-.43,0-1.39,0-1.42.15s.93.31,1.48.59S46.18,63.39,46.16,63.45Z"></path><path class="cls-1" d="M47.7,61.69a10.22,10.22,0,0,1-1-.45c-.6-.24-1.27-.51-1.3-.39a5,5,0,0,0,1.87,1.51c.89.39,2,.58,2.12.38s-.4-.94-.91-1.46a3.28,3.28,0,0,0-1.6-.87c-.4-.08-1.31-.15-1.34,0s.85.4,1.37.71S47.72,61.63,47.7,61.69Z"></path><path class="cls-1" d="M49.25,60.32a7.91,7.91,0,0,1-.88-.56c-.5-.31-1.07-.67-1.1-.56a5,5,0,0,0,1.52,1.64c.75.5,1.7.85,1.83.69s-.28-.9-.69-1.45a3.3,3.3,0,0,0-1.33-1c-.34-.14-1.14-.35-1.18-.22s.72.49,1.15.85S49.27,60.28,49.25,60.32Z"></path><path class="cls-1" d="M50.73,58.88a7.71,7.71,0,0,1-.81-.54c-.47-.3-1-.64-1-.54a5.06,5.06,0,0,0,1.42,1.55c.7.47,1.57.82,1.69.67s-.27-.83-.66-1.35a3.17,3.17,0,0,0-1.23-1c-.32-.13-1.06-.35-1.09-.23s.67.47,1.07.81S50.75,58.84,50.73,58.88Z"></path><path class="cls-1" d="M52.3,57.66a9.19,9.19,0,0,1-.81-.54c-.47-.3-1-.64-1-.54a5,5,0,0,0,1.43,1.55c.69.47,1.56.82,1.68.67s-.27-.83-.65-1.35a3.26,3.26,0,0,0-1.24-1c-.32-.14-1-.35-1.09-.23s.67.47,1.07.81S52.32,57.62,52.3,57.66Z"></path><path class="cls-1" d="M53.78,56.67a8.71,8.71,0,0,1-.77-.58c-.46-.33-1-.7-1-.6a5,5,0,0,0,1.33,1.63c.67.51,1.52.91,1.64.77s-.22-.85-.57-1.39a3.3,3.3,0,0,0-1.18-1c-.31-.15-1-.41-1.07-.29s.64.5,1,.87S53.8,56.63,53.78,56.67Z"></path><path class="cls-1" d="M55.3,55.63a8.59,8.59,0,0,1-.74-.63c-.43-.35-.91-.75-1-.66a4.94,4.94,0,0,0,1.23,1.71c.63.55,1.46,1,1.59.86s-.17-.86-.49-1.41a3.22,3.22,0,0,0-1.11-1.13c-.3-.17-1-.46-1-.35s.61.54,1,.93A3.36,3.36,0,0,1,55.3,55.63Z"></path></g><path class="cls-1" d="M104.17,134a11.18,11.18,0,0,0,.43,2.06,20.49,20.49,0,0,1,.69,3.24,6.05,6.05,0,0,0,.55,1.81l.54,1.25a5.76,5.76,0,0,0,.3.56c.15.29.63,0,.63,0v-.68a2.17,2.17,0,0,1-.31-1.13c0-1,.6-1.81,1.34-1.81s1.35.82,1.35,1.81a2.26,2.26,0,0,1-.31,1.13v.68s.49.26.63,0a4.72,4.72,0,0,0,.3-.56l.54-1.25a6.05,6.05,0,0,0,.55-1.81,20.49,20.49,0,0,1,.69-3.24,12.08,12.08,0,0,0,.43-2.06,2,2,0,0,1,.78-1.24h-9.9A2,2,0,0,1,104.17,134Z"></path><path class="cls-1" d="M121.37,149.55l5.5-7.42-18.62-24.79L89.8,142.13l5.46,7.37a27.32,27.32,0,0,0-6.72,8L97.15,163a15,15,0,0,1,4.2-5.22l7,9.43,6.91-9.33a15,15,0,0,1,4.16,5.13l8.72-5.46A26.62,26.62,0,0,0,121.37,149.55Zm-30.84-7.42,17.73-23.81,17.89,23.81-5.24,7.07c-.27-.2-.53-.44-.82-.63l4.78-6.44L108.27,120,91.82,142.13l4.73,6.38c-.29.19-.54.42-.82.63Zm23.61-8.6a10.63,10.63,0,0,0-.77,3.47,16.34,16.34,0,0,1-1,5.71c-.36.91-.74,1.9-1.07,2.76a25.3,25.3,0,0,0-3.08-.2,24.68,24.68,0,0,0-2.79.18c-.33-.85-.71-1.84-1.07-2.74a17.06,17.06,0,0,1-1-5.71,10.27,10.27,0,0,0-.77-3.47c-.12-.3-.9-1.16-.56-1.46.17-.15.41,0,.66.11l5.71-8.34,5.7,8.34c.25-.16.49-.26.66-.11C115,132.37,114.27,133.23,114.14,133.53Zm-5.8,32.64-6.51-8.78c.28-.19.55-.41.86-.58l4.23,5.72-.52-6.94a12.77,12.77,0,0,1,1.79-.13,13.66,13.66,0,0,1,2.07.17l-.51,6.89,4.16-5.61c.3.17.57.39.86.58Zm11.34-5a13,13,0,0,0-11.36-6.89h0a13.18,13.18,0,0,0-11.42,7l-.2.39-6.77-4.42.18-.31a21,21,0,0,1,36.55,0l.19.32-6.92,4.31Z"></path><path class="cls-1" d="M108.34,147a19.65,19.65,0,0,0-17.42,10l5.44,3.54a14,14,0,0,1,11.9-7h0a13.85,13.85,0,0,1,11.86,6.94l5.57-3.47A19.63,19.63,0,0,0,108.34,147ZM96.67,157.77l-.07-.06.07-.09a.33.33,0,0,0,.09-.31c0-.06-.09-.15-.24-.26l-1.92-1.61-.25.3a1.24,1.24,0,0,0-.19.28.42.42,0,0,0,0,.27.71.71,0,0,0,.21.31l-.06.06-.56-.52,1.71-2.06.62.46-.06.07a1,1,0,0,0-.27-.13.48.48,0,0,0-.29,0,.92.92,0,0,0-.26.21l-.3.36,1.93,1.6a.63.63,0,0,0,.33.19.34.34,0,0,0,.26-.15l.08-.08.06.06Zm2.9-2.84-.06-.08.1-.06a.38.38,0,0,0,.15-.28.7.7,0,0,0-.17-.33l-.61-.79-1.21.92.61.79a.88.88,0,0,0,.22.24.16.16,0,0,0,.14,0,.49.49,0,0,0,.21-.08l.09-.08.06.07-1.11.85-.06-.06L98,156a.34.34,0,0,0,.17-.27.69.69,0,0,0-.19-.34l-1.28-1.67a1,1,0,0,0-.23-.25.2.2,0,0,0-.14,0,.47.47,0,0,0-.22.09l-.09.07-.06-.07,1.12-.85.06.07-.1.07a.79.79,0,0,0-.14.17.29.29,0,0,0,0,.16,1.2,1.2,0,0,0,.18.27l.57.75,1.21-.92-.57-.75a1.09,1.09,0,0,0-.22-.24.22.22,0,0,0-.14,0,.5.5,0,0,0-.21.09l-.09.06-.06-.06,1.11-.86.06.07-.09.06a.45.45,0,0,0-.14.19.16.16,0,0,0,0,.15,1.19,1.19,0,0,0,.18.28l1.28,1.69a1.34,1.34,0,0,0,.23.24.28.28,0,0,0,.14,0,.4.4,0,0,0,.21-.09l.1-.07,0,.07Zm1.19-.83,0-.09.11,0a.55.55,0,0,0,.17-.14.21.21,0,0,0,0-.15,1.66,1.66,0,0,0-.1-.3l-.92-1.92a.85.85,0,0,0-.22-.33.44.44,0,0,0-.31,0l-.11.05,0-.08,2.28-1.09.35.63-.09.05a1,1,0,0,0-.26-.28.41.41,0,0,0-.23-.06,1.09,1.09,0,0,0-.32.12l-.82.39.56,1.17.65-.31c.16-.08.27-.15.3-.24a.56.56,0,0,0,0-.41l.08,0,.49,1-.08,0a1.07,1.07,0,0,0-.2-.25.26.26,0,0,0-.18-.06,1,1,0,0,0-.3.08l-.64.31.46,1a2.63,2.63,0,0,0,.13.24l.09,0a.46.46,0,0,0,.18-.06l.51-.24a1.46,1.46,0,0,0,.34-.21.49.49,0,0,0,.15-.24,1.83,1.83,0,0,0,.09-.54l.08,0,.1.86Zm5.74-2.16a1.08,1.08,0,0,1-.68.41,1.24,1.24,0,0,1-.27,0l-.32,0a1.83,1.83,0,0,0-.31,0,.11.11,0,0,0-.08,0,.26.26,0,0,0,0,.15l-.09,0-.2-1.1.09,0a1.68,1.68,0,0,0,.26.49.83.83,0,0,0,.38.22,1,1,0,0,0,.49,0,.66.66,0,0,0,.44-.24.52.52,0,0,0,.1-.41.51.51,0,0,0-.11-.22.65.65,0,0,0-.24-.19,4.85,4.85,0,0,0-.57-.21,4.49,4.49,0,0,1-.65-.26,1.09,1.09,0,0,1-.33-.26.81.81,0,0,1-.16-.35.79.79,0,0,1,.16-.64A1,1,0,0,1,105,149a1.4,1.4,0,0,1,.57,0,.54.54,0,0,0,.2,0,.11.11,0,0,0,.09-.06.26.26,0,0,0,0-.15l.09,0,.21,1.11-.09,0a1.34,1.34,0,0,0-.25-.48.77.77,0,0,0-.37-.24,1,1,0,0,0-.45,0,.62.62,0,0,0-.38.23.44.44,0,0,0-.1.37.35.35,0,0,0,.15.25,2.43,2.43,0,0,0,.79.34,5.9,5.9,0,0,1,.69.26,1,1,0,0,1,.31.26.86.86,0,0,1,.16.35A.81.81,0,0,1,106.5,151.94Zm3.27-2.41a.87.87,0,0,0-.08-.29.51.51,0,0,0-.2-.21.72.72,0,0,0-.32-.07h-.47v2.51a.71.71,0,0,0,.07.38.39.39,0,0,0,.28.09h.12v.1h-1.39v-.09h.12a.36.36,0,0,0,.3-.13.74.74,0,0,0,.06-.35V149h-.39a.82.82,0,0,0-.32,0,.51.51,0,0,0-.22.17.69.69,0,0,0-.1.35h-.1l0-.77h2.67l0,.77h-.1Zm3.18.52-.09,0a.88.88,0,0,0,0-.37.32.32,0,0,0-.15-.18,1,1,0,0,0-.32-.11l-.88-.18-.27,1.27.71.14a.65.65,0,0,0,.38,0,.55.55,0,0,0,.22-.36l.08,0-.22,1.12-.09,0V151a.31.31,0,0,0-.12-.16.92.92,0,0,0-.29-.11l-.71-.14-.21,1.06a.91.91,0,0,0,0,.26.19.19,0,0,0,0,.09.6.6,0,0,0,.18.06l.55.11a1.29,1.29,0,0,0,.4,0,.6.6,0,0,0,.27-.1,1.7,1.7,0,0,0,.39-.38l.09,0-.44.74-2.48-.5,0-.09.12,0a.41.41,0,0,0,.22,0,.25.25,0,0,0,.13-.09,2.83,2.83,0,0,0,.09-.31l.42-2.08a.76.76,0,0,0,0-.39.33.33,0,0,0-.27-.15l-.11,0v-.08l2.48.51Zm1,3.19,0-3.08a1.53,1.53,0,0,0,0-.3.4.4,0,0,0-.09-.17.69.69,0,0,0-.2-.14l0-.08,1.23.51,0,.09a.61.61,0,0,0-.3,0,.14.14,0,0,0-.11.1,1,1,0,0,0,0,.39l0,2.1,1.44-1.46a1.27,1.27,0,0,0,.26-.31.16.16,0,0,0,0-.15.44.44,0,0,0-.18-.18s0,0,0,0l0-.08.93.39,0,.08a.44.44,0,0,0-.28,0,.92.92,0,0,0-.35.25l-2.14,2.13Zm2.65,1.31-1.2-.72,0-.07.1.05a.3.3,0,0,0,.31.05c.06,0,.14-.12.24-.29l1.1-1.81a1.17,1.17,0,0,0,.14-.3.19.19,0,0,0,0-.14.49.49,0,0,0-.16-.16l-.1-.06.05-.08,1.21.73,0,.07-.1-.06a.37.37,0,0,0-.3,0c-.07,0-.14.12-.25.29l-1.1,1.81a1.35,1.35,0,0,0-.14.3.19.19,0,0,0,0,.14.44.44,0,0,0,.16.17l.1.06Zm.29.12.06-.07.09.08a.51.51,0,0,0,.21.1.22.22,0,0,0,.16,0,.86.86,0,0,0,.22-.22l1.39-1.62a.78.78,0,0,0,.21-.33.4.4,0,0,0-.16-.26l-.09-.08.06-.06,1.91,1.65-.44.56-.06-.06a1.27,1.27,0,0,0,.14-.34.42.42,0,0,0,0-.24,2,2,0,0,0-.23-.25l-.69-.59-.84,1,.55.47a.59.59,0,0,0,.34.18.51.51,0,0,0,.35-.21l.07.06-.75.87-.06-.06a1,1,0,0,0,.14-.28.29.29,0,0,0,0-.2.74.74,0,0,0-.2-.23l-.55-.47-.7.82a.72.72,0,0,0-.16.22.17.17,0,0,0,0,.1.41.41,0,0,0,.12.14l.43.36a1.44,1.44,0,0,0,.33.24.61.61,0,0,0,.28,0,2,2,0,0,0,.53-.14l.08.06-.75.44Zm5.78,1.28a.87.87,0,0,0,.07.19.24.24,0,0,0,.09.06.28.28,0,0,0,.16,0l.06.07-.9.69-.06-.07a1.23,1.23,0,0,0,.32-.44.81.81,0,0,0,.05-.44.89.89,0,0,0-.18-.41.6.6,0,0,0-.37-.24.43.43,0,0,0-.37.08.35.35,0,0,0-.15.25,2.5,2.5,0,0,0,0,.86,6.39,6.39,0,0,1,.08.73.87.87,0,0,1-.09.4.89.89,0,0,1-.24.3.84.84,0,0,1-.69.16,1,1,0,0,1-.67-.42l-.15-.23a2.38,2.38,0,0,1-.11-.3.91.91,0,0,0-.13-.28.16.16,0,0,0-.08-.06l-.15.05-.06-.06.9-.69.06.07a1.67,1.67,0,0,0-.32.46.76.76,0,0,0,0,.43.84.84,0,0,0,.2.45.64.64,0,0,0,.41.28.49.49,0,0,0,.41-.09.53.53,0,0,0,.16-.2.68.68,0,0,0,.06-.31c0-.07,0-.27-.07-.6a4.73,4.73,0,0,1-.07-.7,1,1,0,0,1,.09-.4.7.7,0,0,1,.24-.3.83.83,0,0,1,.65-.16,1,1,0,0,1,.62.39A2.09,2.09,0,0,1,122.72,156Z"></path></g></svg> 