<?xml version="1.0" encoding="UTF-8"?> <svg xmlns="http://www.w3.org/2000/svg" id="stevie-winner-2020" viewBox="0 0 216 216"><defs><style> .cls-1 { fill: #fff; } </style></defs><g><g><path class="cls-1" d="M85.75,83.76H91.6V91.4c-.39.13-.78.24-1.18.35s-.81.19-1.24.27-.87.12-1.34.16-1,.06-1.48.06a8.13,8.13,0,0,1-2.94-.49,5.39,5.39,0,0,1-2.14-1.45A6.55,6.55,0,0,1,80,87.92a10.8,10.8,0,0,1-.46-3.27A9.05,9.05,0,0,1,80,81.52a6.25,6.25,0,0,1,1.49-2.39,6.55,6.55,0,0,1,2.42-1.51,9.5,9.5,0,0,1,3.29-.53,10.39,10.39,0,0,1,2.3.25,10.7,10.7,0,0,1,2.07.65l-1,2.51A7.15,7.15,0,0,0,89,79.92a6.7,6.7,0,0,0-1.81-.23,4.52,4.52,0,0,0-1.85.36,4,4,0,0,0-1.41,1,4.4,4.4,0,0,0-.9,1.59,6.62,6.62,0,0,0-.31,2.07,8.31,8.31,0,0,0,.22,2,4.35,4.35,0,0,0,.68,1.56,3.19,3.19,0,0,0,1.19,1,3.81,3.81,0,0,0,1.76.37,8.77,8.77,0,0,0,1.12-.06l.86-.14V86.39H85.75Z"></path><path class="cls-1" d="M108.69,84.65a11.61,11.61,0,0,1-.39,3.11,6.8,6.8,0,0,1-1.22,2.4A5.48,5.48,0,0,1,105,91.7a8.13,8.13,0,0,1-5.88,0,5.48,5.48,0,0,1-2.06-1.54,6.59,6.59,0,0,1-1.21-2.41,12.33,12.33,0,0,1,0-6.23,6.5,6.5,0,0,1,1.21-2.39,5.56,5.56,0,0,1,2.06-1.53,7.54,7.54,0,0,1,3-.54,7.44,7.44,0,0,1,2.93.54,5.45,5.45,0,0,1,2,1.53,6.8,6.8,0,0,1,1.22,2.4A11.13,11.13,0,0,1,108.69,84.65Zm-10,0a10.13,10.13,0,0,0,.2,2.08,4.59,4.59,0,0,0,.62,1.56,3,3,0,0,0,1.06,1,3.24,3.24,0,0,0,1.51.34,3.33,3.33,0,0,0,1.54-.34,2.87,2.87,0,0,0,1-1,4.58,4.58,0,0,0,.61-1.56,11,11,0,0,0,0-4.17,4.72,4.72,0,0,0-.61-1.57,2.71,2.71,0,0,0-1-1,3,3,0,0,0-1.52-.35,3.16,3.16,0,0,0-1.52.35,2.79,2.79,0,0,0-1.07,1,5,5,0,0,0-.62,1.57A10.23,10.23,0,0,0,98.7,84.65Z"></path><path class="cls-1" d="M112.77,92V77.3h3.13V89.46h5.36V92h-8.49Z"></path><path class="cls-1" d="M136.26,84.52a9.62,9.62,0,0,1-.51,3.28,5.93,5.93,0,0,1-3.83,3.77,10,10,0,0,1-3.18.47h-3.88V77.3h4.31a8.6,8.6,0,0,1,2.92.46,5.87,5.87,0,0,1,3.67,3.65A8.94,8.94,0,0,1,136.26,84.52Zm-3.17.09a7.83,7.83,0,0,0-.25-2.13,4,4,0,0,0-.71-1.48,2.84,2.84,0,0,0-1.15-.86,4,4,0,0,0-1.56-.28H128v9.59h1.15a3.65,3.65,0,0,0,3-1.21A5.56,5.56,0,0,0,133.09,84.61Z"></path><path class="cls-1" d="M61.76,105.82a1.61,1.61,0,0,1-.61,1.31,2.52,2.52,0,0,1-1.62.48,5,5,0,0,1-1.86-.27v-.46a4.79,4.79,0,0,0,1.83.3,2.07,2.07,0,0,0,1.3-.38,1.2,1.2,0,0,0,.48-1,1.1,1.1,0,0,0-.16-.62,1.47,1.47,0,0,0-.52-.45,7.39,7.39,0,0,0-1.05-.44,3.47,3.47,0,0,1-1.4-.75,1.53,1.53,0,0,1-.4-1.08,1.51,1.51,0,0,1,.59-1.22,2.33,2.33,0,0,1,1.49-.47,4.28,4.28,0,0,1,1.75.36l-.16.4a3.94,3.94,0,0,0-1.58-.35,1.83,1.83,0,0,0-1.17.34,1.1,1.1,0,0,0-.43.92,1.23,1.23,0,0,0,.13.61,1.28,1.28,0,0,0,.44.42,7.11,7.11,0,0,0,1,.45,5.76,5.76,0,0,1,1.16.51,1.65,1.65,0,0,1,.57.58A1.74,1.74,0,0,1,61.76,105.82Z"></path><path class="cls-1" d="M65.47,107.52H65v-6.2H62.86v-.43h4.77v.43H65.48v6.2Z"></path><path class="cls-1" d="M72.81,107.52H69.19v-6.64h3.62v.42H69.64v2.51h3v.43h-3v2.84h3.17Z"></path><path class="cls-1" d="M78.8,100.89h.51l-2.48,6.64h-.41L74,100.89h.49l1.67,4.51c.25.68.42,1.19.51,1.54.06-.23.18-.58.36-1.06Z"></path><path class="cls-1" d="M80.82,107.52v-6.64h.47v6.64Z"></path><path class="cls-1" d="M87.37,107.52H83.75v-6.64h3.62v.42H84.2v2.51h3v.43h-3v2.84h3.17Z"></path><path class="cls-1" d="M88.78,102.66a2.08,2.08,0,0,1,1-1.8,1.93,1.93,0,0,1,1.05-.29,2,2,0,0,1,1,.28,2,2,0,0,1,.76.76,2,2,0,0,1-.74,2.83,2,2,0,0,1-1.06.3,2.07,2.07,0,0,1-2.09-2.08Zm.26,0a1.79,1.79,0,0,0,.24.91,1.92,1.92,0,0,0,.66.67,1.87,1.87,0,0,0,.92.25,1.83,1.83,0,0,0,.91-.25,2,2,0,0,0,.67-.67,1.8,1.8,0,0,0,.25-.91,1.76,1.76,0,0,0-.24-.9,1.8,1.8,0,0,0-.67-.67,1.68,1.68,0,0,0-.93-.26,1.73,1.73,0,0,0-.91.25,1.9,1.9,0,0,0-.68.67A2,2,0,0,0,89,102.66Zm2.57-.52a.7.7,0,0,1-.1.38.72.72,0,0,1-.31.26l.66,1.09h-.34l-.58-1h-.46v1h-.29v-2.44h.59a1,1,0,0,1,.61.17A.65.65,0,0,1,91.61,102.14Zm-1.14.52h.31a.56.56,0,0,0,.39-.13.48.48,0,0,0,.15-.38c0-.31-.19-.47-.55-.47h-.31v1Z"></path><path class="cls-1" d="M101.68,107.52h-.38l-1.45-5.12c-.13-.42-.22-.76-.28-1a8.79,8.79,0,0,1-.21.91c-.09.34-.58,2.08-1.46,5.24h-.39l-1.82-6.64h.49l1.16,4.28c0,.18.09.33.12.48s.08.29.11.42.06.25.08.37,0,.24.07.36a16.13,16.13,0,0,1,.47-1.87l1.13-4h.52l1.33,4.62c.16.53.26,1,.33,1.29q.06-.33.15-.69c.07-.25.53-2,1.4-5.22h.46Z"></path><path class="cls-1" d="M105.26,107.52v-6.64h.47v6.64Z"></path><path class="cls-1" d="M113,107.52h-.47l-3.93-5.89h0c0,.7.06,1.23.06,1.59v4.3h-.44v-6.64h.46l3.93,5.88h0c0-.55,0-1.06,0-1.55v-4.33H113v6.64Z"></path><path class="cls-1" d="M120.28,107.52h-.46l-3.93-5.89h0q.06,1.05.06,1.59v4.3h-.44v-6.64h.47l3.93,5.88h0c0-.55,0-1.06,0-1.55v-4.33h.45v6.64Z"></path><path class="cls-1" d="M126.35,107.52h-3.62v-6.64h3.62v.42h-3.16v2.51h3v.43h-3v2.84h3.16Z"></path><path class="cls-1" d="M128.9,104.64v2.89h-.47v-6.64H130a2.92,2.92,0,0,1,1.82.46,1.63,1.63,0,0,1,.59,1.37,1.78,1.78,0,0,1-.35,1.12,1.89,1.89,0,0,1-1.06.65l1.8,3h-.56l-1.71-2.89H128.9Zm0-.4h1.26a2,2,0,0,0,1.3-.38,1.32,1.32,0,0,0,.47-1.1,1.3,1.3,0,0,0-.46-1.11,2.48,2.48,0,0,0-1.48-.35H128.9Z"></path><path class="cls-1" d="M140.32,107.52h-4.15v-.4l1.76-1.84a15.27,15.27,0,0,0,1-1.18,3.35,3.35,0,0,0,.44-.79,2.21,2.21,0,0,0,.14-.78,1.27,1.27,0,0,0-.39-1,1.38,1.38,0,0,0-1-.37,2.53,2.53,0,0,0-1.59.6l-.24-.31a2.79,2.79,0,0,1,1.85-.7,1.94,1.94,0,0,1,1.36.46,1.68,1.68,0,0,1,.5,1.28,2.64,2.64,0,0,1-.33,1.27,8,8,0,0,1-1.23,1.52l-1.7,1.74v0h3.55v.44Z"></path><path class="cls-1" d="M146.32,104.19a5,5,0,0,1-.53,2.58,1.8,1.8,0,0,1-1.62.84,1.73,1.73,0,0,1-1.57-.86,6.47,6.47,0,0,1,0-5.13,1.74,1.74,0,0,1,1.59-.83,1.77,1.77,0,0,1,1.6.86A4.84,4.84,0,0,1,146.32,104.19Zm-3.77,0a5,5,0,0,0,.4,2.28,1.4,1.4,0,0,0,2.48,0,6.66,6.66,0,0,0,0-4.49,1.31,1.31,0,0,0-1.25-.76,1.28,1.28,0,0,0-1.24.76A4.9,4.9,0,0,0,142.55,104.19Z"></path><path class="cls-1" d="M152.07,107.52h-4.15v-.4l1.77-1.84a15.27,15.27,0,0,0,1-1.18,3.35,3.35,0,0,0,.44-.79,2.21,2.21,0,0,0,.14-.78,1.27,1.27,0,0,0-.39-1,1.42,1.42,0,0,0-1-.37,2.53,2.53,0,0,0-1.59.6l-.24-.31a2.77,2.77,0,0,1,1.84-.7,1.94,1.94,0,0,1,1.36.46,1.64,1.64,0,0,1,.5,1.28,2.64,2.64,0,0,1-.33,1.27,7.53,7.53,0,0,1-1.22,1.52l-1.7,1.74v0h3.54v.44Z"></path><path class="cls-1" d="M158.08,104.19a4.87,4.87,0,0,1-.53,2.58,1.79,1.79,0,0,1-1.61.84,1.76,1.76,0,0,1-1.58-.86,6.47,6.47,0,0,1,0-5.13,1.93,1.93,0,0,1,3.19,0A4.74,4.74,0,0,1,158.08,104.19Zm-3.78,0a4.8,4.8,0,0,0,.41,2.28,1.39,1.39,0,0,0,2.47,0,5,5,0,0,0,.39-2.25,5.09,5.09,0,0,0-.39-2.24,1.4,1.4,0,0,0-2.49,0A5,5,0,0,0,154.3,104.19Z"></path></g><g><path class="cls-1" d="M141.81,135.21c-.37,0-.8-.08-.52-1s.77-.66,1.22-.71a45,45,0,0,0,16.24-3.64c8.38-3.57,19.23-10.95,24-27.81,9.11-32.27-20.2-48.53-20.5-48.69a.28.28,0,0,1-.11-.35.26.26,0,0,1,.35-.11,50.51,50.51,0,0,1,14,12.3,40.49,40.49,0,0,1,7.35,37.23c-4.81,17.06-16,25.39-24.54,29A48.33,48.33,0,0,1,141.81,135.21Z"></path><path class="cls-1" d="M156.29,140c.07-.18-1.33-.56-3.09-1.44s-3.73-1.83-3.54-2.19,4.48-.25,7.11,1,5.38,3.39,5.21,4.19-2.8,1.24-5,1.24a9.1,9.1,0,0,1-5.17-1.77c-1-.78-3.06-2.81-2.81-3.24s2.62,1.13,4.36,1.62S156.23,140.18,156.29,140Z"></path><path class="cls-1" d="M166.84,135a22.25,22.25,0,0,0-3-.77c-1.71-.49-3.62-1-3.5-1.33s4-.91,6.52-.28,5.33,2.1,5.29,2.8-2.34,1.5-4.29,1.83a8.51,8.51,0,0,1-4.9-.74c-1-.51-3.16-1.94-3-2.36s2.52.58,4.16.74S166.82,135.16,166.84,135Z"></path><path class="cls-1" d="M174.87,128.69a21.92,21.92,0,0,0-2.88-.25c-1.65-.2-3.49-.38-3.44-.72s3.5-1.47,5.94-1.27,5.26,1.14,5.35,1.81-1.91,1.78-3.64,2.39a7.8,7.8,0,0,1-4.64.07c-1-.32-3.24-1.34-3.15-1.75s2.4.15,3.93.05S174.87,128.85,174.87,128.69Z"></path><path class="cls-1" d="M180.93,121.67a18.4,18.4,0,0,0-2.71.21c-1.57.08-3.3.21-3.29-.11s3.08-1.87,5.38-2.08,5,.21,5.21.8-1.55,1.91-3.09,2.74a7.71,7.71,0,0,1-4.31.79c-1-.14-3.19-.71-3.17-1.1s2.27-.24,3.68-.57A7.57,7.57,0,0,0,180.93,121.67Z"></path><path class="cls-1" d="M185.29,114.71a19.44,19.44,0,0,0-2.43.48c-1.41.23-3,.52-3,.23s2.56-2,4.62-2.47,4.62-.31,4.85.22-1.16,1.92-2.45,2.84a6.78,6.78,0,0,1-3.83,1.16c-.92,0-3-.33-3-.69s2-.45,3.27-.9S185.33,114.84,185.29,114.71Z"></path><path class="cls-1" d="M188.09,107.77a13.83,13.83,0,0,0-2.17.67c-1.27.36-2.68.76-2.75.5s2.07-2.15,3.91-2.73,4.21-.73,4.49-.25-.79,1.9-1.85,2.88a6,6,0,0,1-3.35,1.44c-.85.06-2.81,0-2.89-.37s1.81-.61,2.89-1.15S188.14,107.88,188.09,107.77Z"></path><path class="cls-1" d="M189.65,101.1a17.09,17.09,0,0,0-2,.84c-1.14.46-2.4,1-2.5.74s1.7-2.21,3.36-2.94,3.85-1.1,4.16-.69-.55,1.85-1.43,2.87a5.57,5.57,0,0,1-3,1.68c-.79.15-2.62.25-2.72,0s1.62-.75,2.57-1.36S189.71,101.2,189.65,101.1Z"></path><path class="cls-1" d="M190.18,95.08a13.4,13.4,0,0,0-1.74,1c-1,.51-2.14,1.11-2.27.9s1.34-2.2,2.8-3,3.48-1.34,3.82-1-.29,1.76-1,2.77a4.92,4.92,0,0,1-2.59,1.81c-.73.2-2.43.45-2.56.18s1.43-.83,2.25-1.47S190.24,95.17,190.18,95.08Z"></path><path class="cls-1" d="M190.15,89.31c-.08-.08-.59.47-1.44,1.07s-1.8,1.27-2,1.09.8-2.14,2-3,3-1.64,3.42-1.36.1,1.62-.36,2.61a4.22,4.22,0,0,1-2.08,2c-.64.27-2.21.71-2.39.48s1.18-.92,1.82-1.6S190.24,89.38,190.15,89.31Z"></path><path class="cls-1" d="M189.37,84.54c-.07-.07-.56.47-1.39,1.06s-1.73,1.26-1.89,1.08.79-2.1,2-3,2.9-1.64,3.28-1.37.08,1.57-.37,2.55a4.14,4.14,0,0,1-2,1.92c-.62.28-2.11.73-2.29.5s1.14-.91,1.76-1.58S189.45,84.62,189.37,84.54Z"></path><path class="cls-1" d="M188.38,79.87c-.08-.06-.49.51-1.18,1.16s-1.47,1.38-1.63,1.23a5.52,5.52,0,0,1,1.53-3c1-1,2.5-1.86,2.88-1.66s.21,1.47-.11,2.45a4,4,0,0,1-1.66,2c-.54.32-1.87.91-2.05.73s1-1,1.47-1.69S188.45,79.93,188.38,79.87Z"></path><path class="cls-1" d="M187,75.71c-.06,0-.44.48-1.08,1.11s-1.34,1.32-1.49,1.18a5.66,5.66,0,0,1,1.43-2.89c.93-1,2.28-1.79,2.61-1.6s.17,1.39-.14,2.31a4,4,0,0,1-1.53,1.94c-.49.32-1.69.89-1.85.73s.88-.95,1.35-1.62S187.05,75.77,187,75.71Z"></path><path class="cls-1" d="M185.34,72c-.08,0-.36.5-.89,1.15s-1.12,1.39-1.27,1.28a5.13,5.13,0,0,1,1-2.85c.76-1,2-1.93,2.29-1.79s.33,1.27.16,2.16a3.67,3.67,0,0,1-1.2,2c-.42.35-1.5,1-1.67.88s.71-1,1.07-1.66S185.4,72,185.34,72Z"></path><path class="cls-1" d="M183.67,68.53c-.07,0-.33.5-.8,1.15s-1,1.38-1.13,1.28a5.49,5.49,0,0,1,.9-2.81c.68-1,1.74-1.93,2-1.81s.28,1.23.12,2.11a3.76,3.76,0,0,1-1.08,2c-.39.35-1.35,1-1.5.9s.65-1,1-1.64A4,4,0,0,0,183.67,68.53Z"></path><path class="cls-1" d="M181.71,65.73a11.48,11.48,0,0,0-.75,1.18c-.46.68-1,1.42-1.08,1.32a5.48,5.48,0,0,1,.79-2.84c.64-1,1.67-2,2-1.88s.34,1.22.21,2.1a3.84,3.84,0,0,1-1,2c-.37.36-1.31,1.09-1.46,1s.6-1,.9-1.68S181.78,65.77,181.71,65.73Z"></path><path class="cls-1" d="M179.84,63.08a13,13,0,0,0-.69,1.22c-.43.69-.88,1.46-1,1.37a5.58,5.58,0,0,1,.66-2.88c.6-1,1.57-2.07,1.88-2s.4,1.2.31,2.09a3.73,3.73,0,0,1-.91,2c-.35.38-1.25,1.16-1.41,1s.55-1,.82-1.73S179.91,63.12,179.84,63.08Z"></path><path class="cls-1" d="M177.74,60.83a8.44,8.44,0,0,0-.6,1.12c-.36.64-.75,1.35-.87,1.27a5.61,5.61,0,0,1,.58-2.65c.51-1,1.34-1.91,1.61-1.82s.32,1.09.25,1.92a3.69,3.69,0,0,1-.79,1.89c-.3.36-1.07,1.06-1.21,1s.48-1,.72-1.59S177.8,60.87,177.74,60.83Z"></path><path class="cls-1" d="M175.84,58.53a9.22,9.22,0,0,0-.51,1.11c-.3.64-.64,1.35-.75,1.28a5.21,5.21,0,0,1,.39-2.59c.43-1,1.17-1.93,1.42-1.86s.37,1,.35,1.83a3.66,3.66,0,0,1-.64,1.87c-.27.36-1,1.09-1.09,1s.4-.95.58-1.57S175.9,58.56,175.84,58.53Z"></path><path class="cls-1" d="M173.79,56.94a10.89,10.89,0,0,0-.47,1c-.28.59-.59,1.26-.69,1.19a5,5,0,0,1,.36-2.42c.4-.9,1.08-1.81,1.31-1.74s.34,1,.32,1.71a3.49,3.49,0,0,1-.59,1.75c-.24.34-.88,1-1,.93s.38-.88.54-1.47S173.85,57,173.79,56.94Z"></path><path class="cls-1" d="M171.89,55.27a8.61,8.61,0,0,0-.44,1c-.27.6-.55,1.27-.67,1.21a5.08,5.08,0,0,1,.31-2.43c.37-.91,1-1.83,1.27-1.77s.36,1,.36,1.7a3.52,3.52,0,0,1-.55,1.77c-.23.34-.86,1-1,1s.35-.89.5-1.49S172,55.28,171.89,55.27Z"></path><path class="cls-1" d="M170,53.78a10.63,10.63,0,0,0-.4,1.07c-.24.61-.5,1.3-.61,1.23a5,5,0,0,1,.21-2.43c.34-.93.95-1.87,1.19-1.82s.41.94.43,1.68a3.29,3.29,0,0,1-.48,1.79c-.22.35-.81,1.07-.94,1s.32-.91.44-1.51A3.21,3.21,0,0,0,170,53.78Z"></path><path class="cls-1" d="M168.1,52.53a7.5,7.5,0,0,0-.31,1c-.19.59-.4,1.26-.51,1.2a5.08,5.08,0,0,1,.05-2.32c.26-.89.78-1.83,1-1.79s.43.87.5,1.57a3.32,3.32,0,0,1-.34,1.71c-.19.35-.69,1.06-.82,1s.24-.87.33-1.45A3.11,3.11,0,0,0,168.1,52.53Z"></path><path class="cls-1" d="M166.23,51.55a9.15,9.15,0,0,0-.24,1c-.15.58-.31,1.23-.42,1.18a4.85,4.85,0,0,1-.07-2.24c.2-.88.65-1.79.86-1.77s.46.82.56,1.49a3.24,3.24,0,0,1-.23,1.67c-.16.34-.6,1.06-.73,1s.19-.86.24-1.41A2.84,2.84,0,0,0,166.23,51.55Z"></path><path class="cls-1" d="M164.45,50.56a8.75,8.75,0,0,0-.16,1c-.1.55-.21,1.17-.31,1.14a4.5,4.5,0,0,1-.22-2.1c.13-.84.49-1.73.7-1.72s.48.73.62,1.36a2.9,2.9,0,0,1-.11,1.58c-.12.34-.49,1-.62,1s.12-.81.13-1.34A2.7,2.7,0,0,0,164.45,50.56Z"></path><path class="cls-1" d="M159.46,51.59c0,.07.43.24,1,.6s1.22.76,1.14.89a3.88,3.88,0,0,1-2.35-.46c-.87-.51-1.74-1.38-1.66-1.69s.95-.43,1.68-.41a2.73,2.73,0,0,1,1.68.77c.33.3,1,1.12.88,1.29s-.84-.48-1.42-.69S159.48,51.53,159.46,51.59Z"></path><path class="cls-1" d="M152.1,125.24c-.15-.07-.62,1-1.56,2.4s-2,2.89-2.28,2.7.2-3.72,1.5-5.76,3.52-4.09,4.2-3.87.84,2.44.63,4.23a7.26,7.26,0,0,1-2.07,4.08c-.78.75-2.77,2.24-3.13,2s1.25-2,1.85-3.42S152.24,125.3,152.1,125.24Z"></path><path class="cls-1" d="M159.68,122.28a19.57,19.57,0,0,0-.76,2.53c-.48,1.46-1,3.08-1.31,3s-.79-3.34-.16-5.49,2-4.54,2.7-4.52,1.37,2,1.65,3.59a6.73,6.73,0,0,1-.76,4.15c-.49.87-1.87,2.71-2.25,2.58s.58-2.14.75-3.52S159.83,122.3,159.68,122.28Z"></path><path class="cls-1" d="M166.08,118.11a17.4,17.4,0,0,0-.16,2.55c-.13,1.47-.26,3.11-.56,3.07s-1.42-3-1.3-5.2.91-4.69,1.51-4.79,1.66,1.6,2.25,3.11a6.74,6.74,0,0,1,.18,4.08c-.27.92-1.14,2.92-1.51,2.86s.08-2.13-.05-3.48S166.22,118.1,166.08,118.11Z"></path><path class="cls-1" d="M171,113.28a17.89,17.89,0,0,0,.35,2.29c.17,1.32.37,2.8.09,2.82s-1.81-2.46-2.12-4.39-.1-4.31.4-4.51,1.75,1.14,2.56,2.37a6.22,6.22,0,0,1,.93,3.6c-.06.86-.43,2.78-.76,2.79s-.34-1.91-.72-3.08S171.1,113.26,171,113.28Z"></path><path class="cls-1" d="M174.58,108.17a14.63,14.63,0,0,0,.66,2.06c.35,1.2.77,2.53.53,2.58s-2-2.08-2.6-3.82-.76-3.94-.34-4.16,1.75.88,2.67,1.92a6.29,6.29,0,0,1,1.4,3.21c.08.79,0,2.58-.26,2.63s-.6-1.71-1.12-2.75S174.69,108.14,174.58,108.17Z"></path><path class="cls-1" d="M176.94,103.33a16.62,16.62,0,0,0,1,1.84c.54,1.07,1.17,2.26.94,2.35a8.69,8.69,0,0,1-3.11-3.14c-.87-1.58-1.41-3.61-1-3.9s1.81.51,2.86,1.34a5.83,5.83,0,0,1,1.88,2.78c.22.73.48,2.45.21,2.55s-.86-1.52-1.53-2.41S177,103.27,176.94,103.33Z"></path><path class="cls-1" d="M178.56,98.34a16.84,16.84,0,0,0,1.26,1.54c.7.91,1.49,1.91,1.3,2a8.28,8.28,0,0,1-3.48-2.41c-1.09-1.33-1.95-3.11-1.66-3.45s1.79.18,2.92.78a5.69,5.69,0,0,1,2.25,2.28c.33.65.89,2.19.65,2.34s-1.08-1.28-1.86-2S178.65,98.27,178.56,98.34Z"></path><path class="cls-1" d="M179.49,93.73c-.07.07.56.53,1.29,1.29s1.55,1.62,1.38,1.76A7.31,7.31,0,0,1,178.75,95c-1.13-1.12-2.1-2.69-1.85-3s1.65-.08,2.74.33a5.09,5.09,0,0,1,2.28,1.86c.37.58,1,2,.82,2.13s-1.12-1.06-1.9-1.63S179.55,93.65,179.49,93.73Z"></path><path class="cls-1" d="M179.61,89.07c-.05.08.6.4,1.38,1s1.65,1.26,1.53,1.42a6.3,6.3,0,0,1-3.39-1.13c-1.2-.86-2.32-2.19-2.16-2.57s1.5-.37,2.55-.17A4.46,4.46,0,0,1,181.88,89c.42.49,1.24,1.69,1.07,1.88s-1.17-.81-2-1.22S179.65,89,179.61,89.07Z"></path><path class="cls-1" d="M179.55,85.29A15,15,0,0,0,181,86c.82.44,1.73.89,1.63,1.05a6.35,6.35,0,0,1-3.32-.54c-1.24-.6-2.48-1.63-2.39-2s1.34-.53,2.36-.49a4.37,4.37,0,0,1,2.4.88c.47.37,1.4,1.33,1.27,1.52s-1.21-.55-2-.8S179.59,85.21,179.55,85.29Z"></path><path class="cls-1" d="M178.91,81.52c0,.07.63.16,1.46.45s1.76.58,1.68.74a6.4,6.4,0,0,1-3.23,0c-1.26-.38-2.57-1.15-2.53-1.49s1.2-.67,2.18-.77a4.21,4.21,0,0,1,2.4.49c.49.27,1.51,1,1.41,1.22s-1.23-.35-2-.47S178.93,81.44,178.91,81.52Z"></path><path class="cls-1" d="M178.07,78.09a10.68,10.68,0,0,0,1.45.27c.83.18,1.75.37,1.7.52a6.39,6.39,0,0,1-3.14.27c-1.25-.23-2.59-.82-2.58-1.15s1.11-.73,2.05-.92a4.34,4.34,0,0,1,2.38.23c.5.2,1.54.8,1.47,1s-1.22-.21-2-.24S178.08,78,178.07,78.09Z"></path><path class="cls-1" d="M177,74.93a9.11,9.11,0,0,0,1.35.23c.77.15,1.63.32,1.58.46a6.22,6.22,0,0,1-2.93.26c-1.16-.19-2.4-.71-2.39-1s1-.66,1.91-.84a4.15,4.15,0,0,1,2.2.18c.46.18,1.43.71,1.36.87s-1.13-.17-1.87-.2A4.11,4.11,0,0,0,177,74.93Z"></path><path class="cls-1" d="M175.77,72.13a9.42,9.42,0,0,0,1.36,0c.78,0,1.66.08,1.63.23a6.38,6.38,0,0,1-2.85.68c-1.18,0-2.49-.36-2.51-.64s.94-.8,1.78-1.11a4.23,4.23,0,0,1,2.21-.14c.48.11,1.52.49,1.47.67s-1.15,0-1.88.07A3.65,3.65,0,0,0,175.77,72.13Z"></path><path class="cls-1" d="M174.34,69.59a12.83,12.83,0,0,0,1.32,0c.76,0,1.61,0,1.59.15a5.6,5.6,0,0,1-2.69.84c-1.15,0-2.43-.23-2.49-.52s.82-.86,1.6-1.21a3.83,3.83,0,0,1,2.12-.26c.47.09,1.52.42,1.49.61s-1.11,0-1.81.17A3.53,3.53,0,0,0,174.34,69.59Z"></path><path class="cls-1" d="M173,67.29a10.67,10.67,0,0,0,1.24-.14c.71-.05,1.51-.13,1.5,0a5.27,5.27,0,0,1-2.44,1c-1.07.12-2.3,0-2.39-.3s.7-.88,1.4-1.27a3.54,3.54,0,0,1,2-.41c.46,0,1.46.28,1.44.46s-1,.13-1.67.3S173,67.23,173,67.29Z"></path><path class="cls-1" d="M171.4,65.24a9.19,9.19,0,0,0,1.22-.25c.7-.12,1.48-.27,1.5-.13a5.4,5.4,0,0,1-2.34,1.24c-1.06.22-2.29.18-2.4-.08s.61-.93,1.27-1.39a3.45,3.45,0,0,1,1.92-.59c.45,0,1.48.14,1.48.31s-1,.24-1.63.47A3.78,3.78,0,0,0,171.4,65.24Z"></path><path class="cls-1" d="M169.84,63.44a8.71,8.71,0,0,0,1.11-.35c.65-.18,1.35-.4,1.38-.26a4.8,4.8,0,0,1-2.05,1.37c-.95.3-2.12.39-2.24.15s.47-.93,1-1.42a3.33,3.33,0,0,1,1.72-.74c.42,0,1.39,0,1.41.16s-.92.32-1.48.59A3.81,3.81,0,0,0,169.84,63.44Z"></path><path class="cls-1" d="M168.31,61.68a8.75,8.75,0,0,0,1-.44c.59-.24,1.26-.52,1.29-.39a4.91,4.91,0,0,1-1.87,1.5c-.89.39-2,.59-2.12.38s.4-.93.91-1.45a3.34,3.34,0,0,1,1.59-.87c.4-.08,1.33-.15,1.35,0s-.86.39-1.37.7S168.28,61.63,168.31,61.68Z"></path><path class="cls-1" d="M166.76,60.32a6.79,6.79,0,0,0,.87-.57c.51-.3,1.07-.66,1.11-.56a5.19,5.19,0,0,1-1.53,1.64c-.75.49-1.7.85-1.83.68s.28-.89.68-1.44a3.39,3.39,0,0,1,1.33-1c.35-.14,1.15-.35,1.19-.22s-.72.49-1.15.86S166.74,60.28,166.76,60.32Z"></path><path class="cls-1" d="M165.27,58.87a7.71,7.71,0,0,0,.81-.54c.47-.3,1-.64,1-.54a5,5,0,0,1-1.43,1.56c-.7.47-1.57.81-1.68.67s.27-.84.65-1.35a3.43,3.43,0,0,1,1.24-1c.32-.13,1.05-.34,1.09-.22s-.67.46-1.07.81A4,4,0,0,0,165.27,58.87Z"></path><path class="cls-1" d="M163.7,57.65a7.71,7.71,0,0,0,.81-.54c.47-.3,1-.64,1-.54a4.89,4.89,0,0,1-1.43,1.55c-.7.48-1.57.82-1.68.68s.27-.84.65-1.35a3.33,3.33,0,0,1,1.24-1c.32-.13,1.05-.35,1.09-.22s-.67.46-1.07.81A3.51,3.51,0,0,0,163.7,57.65Z"></path><path class="cls-1" d="M162.22,56.67a8.57,8.57,0,0,0,.78-.58c.45-.32.95-.69,1-.6a5.11,5.11,0,0,1-1.34,1.64c-.67.5-1.52.9-1.65.76s.23-.85.58-1.39a3.32,3.32,0,0,1,1.18-1c.3-.15,1-.41,1.07-.29s-.64.51-1,.87S162.2,56.63,162.22,56.67Z"></path><path class="cls-1" d="M160.7,55.62s.31-.27.74-.63.91-.75,1-.65a5.09,5.09,0,0,1-1.23,1.71c-.64.55-1.46,1-1.6.86s.17-.86.49-1.41a3.1,3.1,0,0,1,1.12-1.12c.3-.18,1-.47,1-.36s-.6.54-1,.93A3.7,3.7,0,0,0,160.7,55.62Z"></path></g><g><path class="cls-1" d="M74.19,135.21c.37,0,.8-.08.52-1s-.77-.66-1.22-.71a45,45,0,0,1-16.24-3.64C48.87,126.28,38,118.9,33.26,102c-9.11-32.28,20.2-48.53,20.5-48.7a.27.27,0,0,0,.11-.35.28.28,0,0,0-.35-.11,50.51,50.51,0,0,0-14,12.3,40.49,40.49,0,0,0-7.35,37.23c4.81,17.06,16,25.39,24.54,29A48.24,48.24,0,0,0,74.19,135.21Z"></path><path class="cls-1" d="M59.72,140c-.07-.18,1.32-.56,3.09-1.44s3.73-1.83,3.53-2.19-4.47-.25-7.1,1-5.38,3.39-5.22,4.19,2.81,1.24,5,1.24A9.1,9.1,0,0,0,64.17,141c1-.78,3.06-2.81,2.81-3.24s-2.62,1.13-4.36,1.62S59.77,140.18,59.72,140Z"></path><path class="cls-1" d="M49.16,135a22.25,22.25,0,0,1,3-.77c1.71-.49,3.62-1,3.5-1.33s-4-.91-6.52-.28-5.33,2.1-5.29,2.8,2.34,1.5,4.29,1.83a8.51,8.51,0,0,0,4.9-.74c1-.51,3.16-1.94,3-2.36s-2.52.58-4.15.74S49.19,135.16,49.16,135Z"></path><path class="cls-1" d="M41.13,128.69a21.92,21.92,0,0,1,2.88-.25c1.65-.2,3.49-.38,3.44-.72s-3.5-1.47-5.94-1.27-5.26,1.14-5.35,1.81,1.91,1.78,3.64,2.39a7.8,7.8,0,0,0,4.64.07c1-.32,3.24-1.34,3.16-1.75s-2.41.15-3.94.05S41.13,128.85,41.13,128.69Z"></path><path class="cls-1" d="M35.07,121.67a18.4,18.4,0,0,1,2.71.21c1.57.08,3.3.21,3.29-.11s-3.08-1.87-5.38-2.08-5,.21-5.21.8,1.55,1.91,3.09,2.74a7.71,7.71,0,0,0,4.31.79c1-.13,3.19-.71,3.17-1.1s-2.27-.24-3.68-.57A7.7,7.7,0,0,1,35.07,121.67Z"></path><path class="cls-1" d="M30.71,114.71a19.44,19.44,0,0,1,2.43.48c1.41.23,3,.52,3,.23s-2.56-2-4.62-2.47-4.62-.31-4.85.22,1.16,1.92,2.46,2.84A6.73,6.73,0,0,0,33,117.17c.92,0,3-.33,3-.69s-2-.45-3.27-.9S30.67,114.84,30.71,114.71Z"></path><path class="cls-1" d="M27.91,107.77a13.83,13.83,0,0,1,2.17.67c1.27.36,2.68.76,2.75.5s-2.07-2.15-3.91-2.73-4.21-.73-4.49-.25.79,1.9,1.85,2.88a6,6,0,0,0,3.36,1.44c.84.06,2.8,0,2.88-.37s-1.81-.61-2.89-1.15S27.86,107.88,27.91,107.77Z"></path><path class="cls-1" d="M26.35,101.1a17.09,17.09,0,0,1,2,.84c1.14.46,2.41,1,2.5.74s-1.7-2.21-3.36-2.94-3.85-1.1-4.16-.69.55,1.85,1.43,2.87a5.57,5.57,0,0,0,3,1.68c.79.15,2.62.25,2.72,0s-1.62-.75-2.57-1.36S26.29,101.2,26.35,101.1Z"></path><path class="cls-1" d="M25.82,95.08a13.4,13.4,0,0,1,1.74,1c1,.51,2.14,1.11,2.27.9s-1.34-2.2-2.8-3-3.48-1.34-3.82-1,.29,1.76,1,2.77a5,5,0,0,0,2.59,1.81c.73.2,2.43.45,2.56.18s-1.43-.83-2.25-1.47S25.76,95.17,25.82,95.08Z"></path><path class="cls-1" d="M25.85,89.31c.08-.08.59.47,1.44,1.07s1.81,1.27,2,1.09-.8-2.14-2-3-3-1.64-3.42-1.36-.1,1.62.36,2.61a4.22,4.22,0,0,0,2.08,2c.64.27,2.21.71,2.39.48s-1.18-.92-1.82-1.6S25.76,89.38,25.85,89.31Z"></path><path class="cls-1" d="M26.63,84.54c.07-.07.56.47,1.39,1.06s1.73,1.26,1.89,1.08-.79-2.1-2-3-2.9-1.64-3.28-1.37-.08,1.57.37,2.55a4.14,4.14,0,0,0,2,1.92c.62.28,2.11.73,2.29.5s-1.14-.91-1.76-1.58S26.55,84.62,26.63,84.54Z"></path><path class="cls-1" d="M27.63,79.87c.08-.06.49.51,1.18,1.16s1.47,1.38,1.63,1.23a5.52,5.52,0,0,0-1.53-3c-1-1-2.51-1.86-2.88-1.66S25.82,79,26.15,80a4,4,0,0,0,1.66,2c.54.32,1.87.91,2.05.73s-1-1-1.47-1.69S27.55,79.93,27.63,79.87Z"></path><path class="cls-1" d="M29,75.71c.07,0,.44.48,1.08,1.11S31.45,78.14,31.6,78a5.7,5.7,0,0,0-1.42-2.89c-.94-1-2.29-1.79-2.62-1.6s-.17,1.39.14,2.31a4,4,0,0,0,1.53,1.94c.49.32,1.69.89,1.85.73s-.88-.95-1.35-1.62S29,75.77,29,75.71Z"></path><path class="cls-1" d="M30.67,72c.08,0,.36.5.89,1.15s1.12,1.39,1.27,1.28a5.25,5.25,0,0,0-1-2.85c-.75-1-1.94-1.93-2.28-1.79s-.33,1.27-.17,2.16a3.74,3.74,0,0,0,1.21,2c.42.35,1.5,1,1.67.88s-.72-1-1.07-1.66S30.6,72,30.67,72Z"></path><path class="cls-1" d="M32.34,68.53c.07,0,.33.5.8,1.15s1,1.38,1.13,1.28a5.49,5.49,0,0,0-.9-2.81c-.68-1-1.74-1.93-2-1.81s-.28,1.23-.12,2.11a3.76,3.76,0,0,0,1.08,2c.39.35,1.35,1,1.5.9s-.65-1-1-1.64S32.28,68.57,32.34,68.53Z"></path><path class="cls-1" d="M34.3,65.73c.06,0,.29.51.75,1.18s1,1.42,1.08,1.32a5.59,5.59,0,0,0-.79-2.84c-.65-1-1.67-2-2-1.88s-.34,1.22-.21,2.1a3.84,3.84,0,0,0,1,2c.37.36,1.31,1.09,1.46,1s-.6-1-.9-1.68S34.23,65.77,34.3,65.73Z"></path><path class="cls-1" d="M36.16,63.08a13,13,0,0,1,.69,1.22c.43.69.88,1.46,1,1.37a5.69,5.69,0,0,0-.66-2.88c-.6-1-1.57-2.07-1.88-2S34.94,62,35,62.91a3.73,3.73,0,0,0,.91,2c.35.38,1.25,1.16,1.41,1s-.55-1-.82-1.73S36.09,63.12,36.16,63.08Z"></path><path class="cls-1" d="M38.26,60.83a8.44,8.44,0,0,1,.6,1.12c.35.64.75,1.35.87,1.27a5.69,5.69,0,0,0-.57-2.65c-.52-1-1.35-1.91-1.62-1.82s-.32,1.09-.25,1.92a3.69,3.69,0,0,0,.79,1.89c.3.36,1.07,1.06,1.21,1s-.48-1-.72-1.59S38.2,60.87,38.26,60.83Z"></path><path class="cls-1" d="M40.16,58.53a9.22,9.22,0,0,1,.51,1.11c.3.64.64,1.35.75,1.28A5.21,5.21,0,0,0,41,58.33c-.43-1-1.17-1.93-1.42-1.86s-.37,1-.35,1.83a3.66,3.66,0,0,0,.64,1.87c.27.36,1,1.09,1.09,1s-.4-.95-.58-1.57S40.1,58.56,40.16,58.53Z"></path><path class="cls-1" d="M42.21,56.94a10.89,10.89,0,0,1,.47,1c.28.59.59,1.26.7,1.19A5.21,5.21,0,0,0,43,56.75c-.4-.9-1.08-1.81-1.31-1.74s-.34,1-.32,1.71A3.49,3.49,0,0,0,42,58.47c.24.34.88,1,1,.93s-.38-.88-.54-1.47A3.26,3.26,0,0,1,42.21,56.94Z"></path><path class="cls-1" d="M44.11,55.27a8.61,8.61,0,0,1,.44,1c.27.6.55,1.27.67,1.21a5.08,5.08,0,0,0-.31-2.43c-.37-.91-1-1.83-1.27-1.77s-.36,1-.36,1.7a3.52,3.52,0,0,0,.55,1.77c.23.34.86,1,1,1s-.35-.89-.5-1.49A3.36,3.36,0,0,1,44.11,55.27Z"></path><path class="cls-1" d="M46,53.78a10.63,10.63,0,0,1,.4,1.07c.24.61.5,1.3.61,1.23a5.1,5.1,0,0,0-.21-2.43c-.34-.93-1-1.87-1.19-1.82s-.41.94-.44,1.68a3.38,3.38,0,0,0,.49,1.79c.22.36.81,1.07.93,1s-.31-.91-.44-1.51S46,53.8,46,53.78Z"></path><path class="cls-1" d="M47.91,52.53a7.5,7.5,0,0,1,.31,1c.19.59.4,1.26.5,1.2a4.89,4.89,0,0,0,0-2.32c-.26-.89-.79-1.83-1-1.79s-.43.87-.5,1.57a3.32,3.32,0,0,0,.34,1.71c.18.34.69,1.06.82,1s-.24-.87-.33-1.45A2.76,2.76,0,0,1,47.91,52.53Z"></path><path class="cls-1" d="M49.77,51.55a9.15,9.15,0,0,1,.24,1c.15.58.31,1.23.42,1.18a4.85,4.85,0,0,0,.07-2.24c-.2-.88-.65-1.79-.86-1.77s-.46.82-.56,1.49a3.24,3.24,0,0,0,.23,1.67c.16.34.6,1.06.73,1s-.19-.86-.24-1.41A3.22,3.22,0,0,1,49.77,51.55Z"></path><path class="cls-1" d="M51.55,50.56a8.75,8.75,0,0,1,.16,1c.11.55.21,1.17.31,1.14a4.5,4.5,0,0,0,.22-2.1c-.13-.84-.49-1.73-.7-1.72s-.48.73-.62,1.36A2.9,2.9,0,0,0,51,51.79c.12.34.49,1,.62,1s-.12-.81-.13-1.34A3.62,3.62,0,0,1,51.55,50.56Z"></path><path class="cls-1" d="M56.55,51.59c0,.07-.43.24-1,.6s-1.22.76-1.14.89a3.88,3.88,0,0,0,2.35-.46c.87-.51,1.73-1.38,1.66-1.69s-1-.43-1.68-.41a2.79,2.79,0,0,0-1.69.77c-.32.3-1,1.12-.88,1.29s.85-.48,1.42-.69S56.53,51.53,56.55,51.59Z"></path><path class="cls-1" d="M63.9,125.24c.15-.07.63,1,1.56,2.4s2,2.89,2.28,2.7-.2-3.72-1.5-5.76-3.52-4.09-4.2-3.87-.84,2.44-.63,4.23A7.26,7.26,0,0,0,63.48,129c.78.74,2.77,2.24,3.13,2s-1.25-2-1.85-3.42S63.76,125.3,63.9,125.24Z"></path><path class="cls-1" d="M56.32,122.28a19.57,19.57,0,0,1,.76,2.53c.48,1.46,1,3.08,1.31,3s.79-3.34.16-5.49-2-4.54-2.7-4.52-1.37,2-1.65,3.59a6.73,6.73,0,0,0,.76,4.15c.49.87,1.87,2.71,2.25,2.58s-.58-2.14-.75-3.52S56.17,122.3,56.32,122.28Z"></path><path class="cls-1" d="M49.92,118.11a17.4,17.4,0,0,1,.16,2.55c.13,1.47.26,3.11.56,3.07s1.42-3,1.3-5.2-.91-4.69-1.51-4.79-1.66,1.6-2.25,3.11a6.74,6.74,0,0,0-.18,4.08c.27.92,1.14,2.92,1.51,2.86s-.08-2.13.05-3.48S49.79,118.1,49.92,118.11Z"></path><path class="cls-1" d="M45,113.28a17.89,17.89,0,0,1-.35,2.29c-.17,1.32-.37,2.8-.09,2.82s1.81-2.46,2.12-4.39.1-4.31-.4-4.51-1.75,1.14-2.56,2.37a6.22,6.22,0,0,0-.93,3.6c.06.86.43,2.78.76,2.79s.34-1.91.72-3.08S44.91,113.26,45,113.28Z"></path><path class="cls-1" d="M41.42,108.17a14.63,14.63,0,0,1-.66,2.06c-.35,1.2-.77,2.53-.52,2.58s2-2.08,2.59-3.82.76-3.94.34-4.16-1.75.88-2.67,1.92A6.18,6.18,0,0,0,39.11,110c-.09.79,0,2.58.25,2.63s.6-1.71,1.12-2.75S41.32,108.14,41.42,108.17Z"></path><path class="cls-1" d="M39.06,103.33a16.62,16.62,0,0,1-1,1.84c-.54,1.07-1.17,2.26-.94,2.35a8.69,8.69,0,0,0,3.11-3.14c.87-1.58,1.41-3.61,1-3.9s-1.81.51-2.86,1.34a5.83,5.83,0,0,0-1.88,2.78c-.22.73-.48,2.45-.21,2.55s.86-1.52,1.53-2.41S39,103.27,39.06,103.33Z"></path><path class="cls-1" d="M37.44,98.34a16.84,16.84,0,0,1-1.26,1.54c-.7.91-1.49,1.91-1.29,2a8.33,8.33,0,0,0,3.47-2.41c1.09-1.33,2-3.11,1.66-3.45s-1.79.18-2.92.78a5.69,5.69,0,0,0-2.25,2.28c-.33.65-.89,2.19-.65,2.34s1.08-1.28,1.86-2S37.36,98.27,37.44,98.34Z"></path><path class="cls-1" d="M36.52,93.73c.07.07-.56.53-1.29,1.29s-1.55,1.62-1.38,1.76A7.31,7.31,0,0,0,37.26,95c1.13-1.12,2.09-2.69,1.85-3s-1.65-.08-2.74.33a5.09,5.09,0,0,0-2.28,1.86c-.37.58-1,2-.82,2.13s1.12-1.06,1.9-1.63S36.46,93.65,36.52,93.73Z"></path><path class="cls-1" d="M36.4,89.07c.05.08-.6.4-1.38,1s-1.65,1.26-1.53,1.42a6.32,6.32,0,0,0,3.39-1.13c1.2-.86,2.32-2.19,2.16-2.57s-1.5-.37-2.55-.17A4.42,4.42,0,0,0,34.13,89c-.42.49-1.24,1.69-1.07,1.88s1.17-.81,2-1.22S36.35,89,36.4,89.07Z"></path><path class="cls-1" d="M36.45,85.29A15,15,0,0,1,35,86c-.82.44-1.73.89-1.63,1.05a6.35,6.35,0,0,0,3.32-.54c1.24-.6,2.48-1.63,2.39-2S37.76,84,36.74,84a4.37,4.37,0,0,0-2.4.88c-.47.37-1.4,1.33-1.27,1.52s1.21-.55,2-.8S36.42,85.21,36.45,85.29Z"></path><path class="cls-1" d="M37.09,81.52a14.93,14.93,0,0,1-1.45.45c-.83.28-1.76.58-1.69.74a6.32,6.32,0,0,0,3.24,0c1.26-.38,2.57-1.15,2.53-1.49s-1.2-.67-2.18-.77a4.21,4.21,0,0,0-2.4.49c-.49.27-1.51,1-1.41,1.22s1.23-.35,2-.47S37.07,81.44,37.09,81.52Z"></path><path class="cls-1" d="M37.93,78.09a9.93,9.93,0,0,1-1.44.27c-.83.18-1.75.37-1.7.52a6.37,6.37,0,0,0,3.14.27c1.25-.23,2.59-.82,2.58-1.15s-1.11-.73-2-.92a4.34,4.34,0,0,0-2.38.23c-.5.2-1.54.8-1.47,1s1.22-.21,2-.24S37.92,78,37.93,78.09Z"></path><path class="cls-1" d="M39,74.93a9.11,9.11,0,0,1-1.35.23c-.77.15-1.62.32-1.58.46a6.22,6.22,0,0,0,2.93.26c1.16-.19,2.4-.71,2.39-1s-1.05-.66-1.91-.84a4.15,4.15,0,0,0-2.2.18c-.46.18-1.43.71-1.35.87s1.13-.17,1.86-.2A4.07,4.07,0,0,1,39,74.93Z"></path><path class="cls-1" d="M40.24,72.13a9.42,9.42,0,0,1-1.36,0c-.78,0-1.66.08-1.63.23a6.38,6.38,0,0,0,2.85.68c1.18,0,2.49-.36,2.51-.64s-.94-.8-1.78-1.11a4.23,4.23,0,0,0-2.21-.14c-.48.11-1.52.49-1.47.67s1.15,0,1.88.07A3.65,3.65,0,0,1,40.24,72.13Z"></path><path class="cls-1" d="M41.66,69.59a12.83,12.83,0,0,1-1.32,0c-.76,0-1.61,0-1.59.15a5.6,5.6,0,0,0,2.69.84c1.15,0,2.43-.23,2.49-.52s-.82-.86-1.6-1.21a3.83,3.83,0,0,0-2.12-.26c-.47.09-1.52.42-1.49.61s1.11,0,1.81.17S41.66,69.52,41.66,69.59Z"></path><path class="cls-1" d="M43.05,67.29a10.67,10.67,0,0,1-1.24-.14c-.71-.05-1.51-.13-1.5,0a5.27,5.27,0,0,0,2.44,1c1.07.12,2.3,0,2.39-.3s-.7-.88-1.4-1.27a3.54,3.54,0,0,0-2-.41c-.46,0-1.46.28-1.45.46s1,.13,1.68.3A3.58,3.58,0,0,1,43.05,67.29Z"></path><path class="cls-1" d="M44.6,65.24A9.19,9.19,0,0,1,43.38,65c-.7-.12-1.48-.27-1.5-.13a5.33,5.33,0,0,0,2.34,1.24c1.06.22,2.3.18,2.4-.08s-.61-.93-1.27-1.39A3.45,3.45,0,0,0,43.43,64c-.45,0-1.48.14-1.48.31s1,.24,1.63.47A3.6,3.6,0,0,1,44.6,65.24Z"></path><path class="cls-1" d="M46.16,63.44a8.71,8.71,0,0,1-1.11-.35c-.64-.18-1.35-.4-1.38-.26a4.8,4.8,0,0,0,2,1.37c1,.3,2.12.39,2.24.15s-.47-.93-1-1.42a3.33,3.33,0,0,0-1.72-.74c-.42,0-1.39,0-1.41.16s.92.32,1.48.59A3.81,3.81,0,0,1,46.16,63.44Z"></path><path class="cls-1" d="M47.7,61.68a8.75,8.75,0,0,1-1-.44c-.6-.24-1.26-.52-1.29-.39a4.74,4.74,0,0,0,1.87,1.5c.89.39,2,.59,2.11.38s-.39-.93-.9-1.45a3.32,3.32,0,0,0-1.6-.87c-.39-.08-1.32-.15-1.34,0s.85.39,1.37.7S47.72,61.63,47.7,61.68Z"></path><path class="cls-1" d="M49.25,60.32a6.79,6.79,0,0,1-.87-.57c-.51-.3-1.08-.66-1.11-.56a5.06,5.06,0,0,0,1.53,1.64c.75.49,1.69.85,1.83.68s-.28-.89-.68-1.44a3.39,3.39,0,0,0-1.33-1c-.35-.14-1.15-.35-1.19-.22s.72.49,1.15.86A4.29,4.29,0,0,1,49.25,60.32Z"></path><path class="cls-1" d="M50.73,58.87a7.71,7.71,0,0,1-.81-.54c-.47-.3-1-.64-1-.54a5,5,0,0,0,1.43,1.56c.7.47,1.57.81,1.68.67s-.27-.84-.65-1.35a3.43,3.43,0,0,0-1.24-1c-.32-.13-1-.34-1.09-.22s.68.46,1.07.81A3.51,3.51,0,0,1,50.73,58.87Z"></path><path class="cls-1" d="M52.31,57.65a7.71,7.71,0,0,1-.81-.54c-.47-.3-1-.64-1-.54a4.76,4.76,0,0,0,1.43,1.55c.69.48,1.57.82,1.67.68s-.26-.84-.64-1.35a3.49,3.49,0,0,0-1.24-1c-.32-.13-1.06-.35-1.09-.22s.67.46,1.06.81A4.42,4.42,0,0,1,52.31,57.65Z"></path><path class="cls-1" d="M53.78,56.67s-.32-.26-.77-.58-.95-.69-1-.6a5,5,0,0,0,1.34,1.64c.66.5,1.52.9,1.65.76s-.23-.85-.58-1.39a3.32,3.32,0,0,0-1.18-1c-.31-.15-1-.41-1.07-.29s.64.51,1,.87S53.81,56.63,53.78,56.67Z"></path><path class="cls-1" d="M55.3,55.62s-.31-.27-.74-.63-.91-.75-1-.65a5.09,5.09,0,0,0,1.23,1.71c.64.55,1.46,1,1.6.86s-.17-.86-.49-1.41a3.1,3.1,0,0,0-1.12-1.12c-.3-.18-1-.47-1-.36s.6.54,1,.93A3.25,3.25,0,0,1,55.3,55.62Z"></path></g><path class="cls-1" d="M104.17,134a11.18,11.18,0,0,0,.43,2.06,20.49,20.49,0,0,1,.69,3.24,6.05,6.05,0,0,0,.55,1.81l.54,1.25a5.76,5.76,0,0,0,.3.56c.15.29.63,0,.63,0v-.68a2.17,2.17,0,0,1-.31-1.13c0-1,.6-1.81,1.34-1.81s1.35.82,1.35,1.81a2.26,2.26,0,0,1-.31,1.13v.68s.49.26.63,0a4.72,4.72,0,0,0,.3-.56l.54-1.25a6.05,6.05,0,0,0,.55-1.81,20.49,20.49,0,0,1,.69-3.24,12.08,12.08,0,0,0,.43-2.06,2,2,0,0,1,.78-1.24h-9.9A2,2,0,0,1,104.17,134Z"></path><path class="cls-1" d="M121.37,149.55l5.5-7.42-18.62-24.79L89.8,142.13l5.46,7.37a27.32,27.32,0,0,0-6.72,8L97.15,163a15,15,0,0,1,4.2-5.22l7,9.43,6.91-9.33a15,15,0,0,1,4.16,5.13l8.72-5.46A26.62,26.62,0,0,0,121.37,149.55Zm-30.84-7.42,17.73-23.81,17.89,23.81-5.24,7.07c-.27-.2-.53-.44-.82-.63l4.78-6.44L108.27,120,91.82,142.13l4.73,6.38c-.29.19-.54.42-.82.63Zm23.61-8.6a10.63,10.63,0,0,0-.77,3.47,16.34,16.34,0,0,1-1,5.71c-.36.91-.74,1.9-1.07,2.76a25.3,25.3,0,0,0-3.08-.2,24.68,24.68,0,0,0-2.79.18c-.33-.85-.71-1.84-1.07-2.74a17.06,17.06,0,0,1-1-5.71,10.27,10.27,0,0,0-.77-3.47c-.12-.3-.9-1.16-.56-1.46.17-.15.41,0,.66.11l5.71-8.34,5.7,8.34c.25-.16.49-.26.66-.11C115,132.37,114.27,133.23,114.14,133.53Zm-5.8,32.64-6.51-8.78c.28-.19.55-.41.86-.58l4.23,5.72-.52-6.94a12.77,12.77,0,0,1,1.79-.13,13.66,13.66,0,0,1,2.07.17l-.51,6.89,4.16-5.61c.3.17.57.39.86.58Zm11.34-5a13,13,0,0,0-11.36-6.89h0a13.18,13.18,0,0,0-11.42,7l-.2.39-6.77-4.42.18-.31a21,21,0,0,1,36.55,0l.19.32-6.92,4.31Z"></path><path class="cls-1" d="M108.34,147a19.65,19.65,0,0,0-17.42,10l5.44,3.54a14,14,0,0,1,11.9-7h0a13.85,13.85,0,0,1,11.86,6.94l5.57-3.47A19.63,19.63,0,0,0,108.34,147ZM96.67,157.77l-.07-.06.07-.09a.33.33,0,0,0,.09-.31c0-.06-.09-.15-.24-.26l-1.92-1.61-.25.3a1.24,1.24,0,0,0-.19.28.42.42,0,0,0,0,.27.71.71,0,0,0,.21.31l-.06.06-.56-.52,1.71-2.06.62.46-.06.07a1,1,0,0,0-.27-.13.48.48,0,0,0-.29,0,.92.92,0,0,0-.26.21l-.3.36,1.93,1.6a.63.63,0,0,0,.33.19.34.34,0,0,0,.26-.15l.08-.08.06.06Zm2.9-2.84-.06-.08.1-.06a.38.38,0,0,0,.15-.28.7.7,0,0,0-.17-.33l-.61-.79-1.21.92.61.79a.88.88,0,0,0,.22.24.16.16,0,0,0,.14,0,.49.49,0,0,0,.21-.08l.09-.08.06.07-1.11.85-.06-.06L98,156a.34.34,0,0,0,.17-.27.69.69,0,0,0-.19-.34l-1.28-1.67a1,1,0,0,0-.23-.25.2.2,0,0,0-.14,0,.47.47,0,0,0-.22.09l-.09.07-.06-.07,1.12-.85.06.07-.1.07a.79.79,0,0,0-.14.17.29.29,0,0,0,0,.16,1.2,1.2,0,0,0,.18.27l.57.75,1.21-.92-.57-.75a1.09,1.09,0,0,0-.22-.24.22.22,0,0,0-.14,0,.5.5,0,0,0-.21.09l-.09.06-.06-.06,1.11-.86.06.07-.09.06a.45.45,0,0,0-.14.19.16.16,0,0,0,0,.15,1.19,1.19,0,0,0,.18.28l1.28,1.69a1.34,1.34,0,0,0,.23.24.28.28,0,0,0,.14,0,.4.4,0,0,0,.21-.09l.1-.07,0,.07Zm1.19-.83,0-.09.11,0a.55.55,0,0,0,.17-.14.21.21,0,0,0,0-.15,1.66,1.66,0,0,0-.1-.3l-.92-1.92a.85.85,0,0,0-.22-.33.44.44,0,0,0-.31,0l-.11.05,0-.08,2.28-1.09.35.63-.09.05a1,1,0,0,0-.26-.28.41.41,0,0,0-.23-.06,1.09,1.09,0,0,0-.32.12l-.82.39.56,1.17.65-.31c.16-.08.27-.15.3-.24a.56.56,0,0,0,0-.41l.08,0,.49,1-.08,0a1.07,1.07,0,0,0-.2-.25.26.26,0,0,0-.18-.06,1,1,0,0,0-.3.08l-.64.31.46,1a2.63,2.63,0,0,0,.13.24l.09,0a.46.46,0,0,0,.18-.06l.51-.24a1.46,1.46,0,0,0,.34-.21.49.49,0,0,0,.15-.24,1.83,1.83,0,0,0,.09-.54l.08,0,.1.86Zm5.74-2.16a1.08,1.08,0,0,1-.68.41,1.24,1.24,0,0,1-.27,0l-.32,0a1.83,1.83,0,0,0-.31,0,.11.11,0,0,0-.08,0,.26.26,0,0,0,0,.15l-.09,0-.2-1.1.09,0a1.68,1.68,0,0,0,.26.49.83.83,0,0,0,.38.22,1,1,0,0,0,.49,0,.66.66,0,0,0,.44-.24.52.52,0,0,0,.1-.41.51.51,0,0,0-.11-.22.65.65,0,0,0-.24-.19,4.85,4.85,0,0,0-.57-.21,4.49,4.49,0,0,1-.65-.26,1.09,1.09,0,0,1-.33-.26.81.81,0,0,1-.16-.35.79.79,0,0,1,.16-.64A1,1,0,0,1,105,149a1.4,1.4,0,0,1,.57,0,.54.54,0,0,0,.2,0,.11.11,0,0,0,.09-.06.26.26,0,0,0,0-.15l.09,0,.21,1.11-.09,0a1.34,1.34,0,0,0-.25-.48.77.77,0,0,0-.37-.24,1,1,0,0,0-.45,0,.62.62,0,0,0-.38.23.44.44,0,0,0-.1.37.35.35,0,0,0,.15.25,2.43,2.43,0,0,0,.79.34,5.9,5.9,0,0,1,.69.26,1,1,0,0,1,.31.26.86.86,0,0,1,.16.35A.81.81,0,0,1,106.5,151.94Zm3.27-2.41a.87.87,0,0,0-.08-.29.51.51,0,0,0-.2-.21.72.72,0,0,0-.32-.07h-.47v2.51a.71.71,0,0,0,.07.38.39.39,0,0,0,.28.09h.12v.1h-1.39v-.09h.12a.36.36,0,0,0,.3-.13.74.74,0,0,0,.06-.35V149h-.39a.82.82,0,0,0-.32,0,.51.51,0,0,0-.22.17.69.69,0,0,0-.1.35h-.1l0-.77h2.67l0,.77h-.1Zm3.18.52-.09,0a.88.88,0,0,0,0-.37.32.32,0,0,0-.15-.18,1,1,0,0,0-.32-.11l-.88-.18-.27,1.27.71.14a.65.65,0,0,0,.38,0,.55.55,0,0,0,.22-.36l.08,0-.22,1.12-.09,0V151a.31.31,0,0,0-.12-.16.92.92,0,0,0-.29-.11l-.71-.14-.21,1.06a.91.91,0,0,0,0,.26.19.19,0,0,0,0,.09.6.6,0,0,0,.18.06l.55.11a1.29,1.29,0,0,0,.4,0,.6.6,0,0,0,.27-.1,1.7,1.7,0,0,0,.39-.38l.09,0-.44.74-2.48-.5,0-.09.12,0a.41.41,0,0,0,.22,0,.25.25,0,0,0,.13-.09,2.83,2.83,0,0,0,.09-.31l.42-2.08a.76.76,0,0,0,0-.39.33.33,0,0,0-.27-.15l-.11,0v-.08l2.48.51Zm1,3.19,0-3.08a1.53,1.53,0,0,0,0-.3.4.4,0,0,0-.09-.17.69.69,0,0,0-.2-.14l0-.08,1.23.51,0,.09a.61.61,0,0,0-.3,0,.14.14,0,0,0-.11.1,1,1,0,0,0,0,.39l0,2.1,1.44-1.46a1.27,1.27,0,0,0,.26-.31.16.16,0,0,0,0-.15.44.44,0,0,0-.18-.18s0,0,0,0l0-.08.93.39,0,.08a.44.44,0,0,0-.28,0,.92.92,0,0,0-.35.25l-2.14,2.13Zm2.65,1.31-1.2-.72,0-.07.1.05a.3.3,0,0,0,.31.05c.06,0,.14-.12.24-.29l1.1-1.81a1.17,1.17,0,0,0,.14-.3.19.19,0,0,0,0-.14.49.49,0,0,0-.16-.16l-.1-.06.05-.08,1.21.73,0,.07-.1-.06a.37.37,0,0,0-.3,0c-.07,0-.14.12-.25.29l-1.1,1.81a1.35,1.35,0,0,0-.14.3.19.19,0,0,0,0,.14.44.44,0,0,0,.16.17l.1.06Zm.29.12.06-.07.09.08a.51.51,0,0,0,.21.1.22.22,0,0,0,.16,0,.86.86,0,0,0,.22-.22l1.39-1.62a.78.78,0,0,0,.21-.33.4.4,0,0,0-.16-.26l-.09-.08.06-.06,1.91,1.65-.44.56-.06-.06a1.27,1.27,0,0,0,.14-.34.42.42,0,0,0,0-.24,2,2,0,0,0-.23-.25l-.69-.59-.84,1,.55.47a.59.59,0,0,0,.34.18.51.51,0,0,0,.35-.21l.07.06-.75.87-.06-.06a1,1,0,0,0,.14-.28.29.29,0,0,0,0-.2.74.74,0,0,0-.2-.23l-.55-.47-.7.82a.72.72,0,0,0-.16.22.17.17,0,0,0,0,.1.41.41,0,0,0,.12.14l.43.36a1.44,1.44,0,0,0,.33.24.61.61,0,0,0,.28,0,2,2,0,0,0,.53-.14l.08.06-.75.44Zm5.78,1.28a.87.87,0,0,0,.07.19.24.24,0,0,0,.09.06.28.28,0,0,0,.16,0l.06.07-.9.69-.06-.07a1.23,1.23,0,0,0,.32-.44.81.81,0,0,0,.05-.44.89.89,0,0,0-.18-.41.6.6,0,0,0-.37-.24.43.43,0,0,0-.37.08.35.35,0,0,0-.15.25,2.5,2.5,0,0,0,0,.86,6.39,6.39,0,0,1,.08.73.87.87,0,0,1-.09.4.89.89,0,0,1-.24.3.84.84,0,0,1-.69.16,1,1,0,0,1-.67-.42l-.15-.23a2.38,2.38,0,0,1-.11-.3.91.91,0,0,0-.13-.28.16.16,0,0,0-.08-.06l-.15.05-.06-.06.9-.69.06.07a1.67,1.67,0,0,0-.32.46.76.76,0,0,0,0,.43.84.84,0,0,0,.2.45.64.64,0,0,0,.41.28.49.49,0,0,0,.41-.09.53.53,0,0,0,.16-.2.68.68,0,0,0,.06-.31c0-.07,0-.27-.07-.6a4.73,4.73,0,0,1-.07-.7,1,1,0,0,1,.09-.4.7.7,0,0,1,.24-.3.83.83,0,0,1,.65-.16,1,1,0,0,1,.62.39A2.09,2.09,0,0,1,122.72,156Z"></path></g></svg> 