<?xml version="1.0" encoding="UTF-8"?> <svg xmlns="http://www.w3.org/2000/svg" id="Layer_1" data-name="Layer 1" viewBox="0 0 158.95 103.14"><defs><style> .cls-1 { isolation: isolate; } .cls-2 { fill: #fff; } </style></defs><g><g id="twp_full"><g class="cls-1"><path class="cls-2" d="M100.8,28.09V43.32a9,9,0,0,0,4.2-5.23l.17.08C104.72,43.61,101,49,95.25,49S85.16,44.72,85.16,37.8c0-5.18,3.38-8.44,7.7-11.36a7.82,7.82,0,0,0-1.94-.25c-3,0-4.69,2-4.69,4.08H86a6.26,6.26,0,0,1,0-.86c0-3.67,1.94-8.12,6.63-8.12,3,0,5.31,2.76,8.81,2.76a4.19,4.19,0,0,0,3.83-2.18h.12C105.29,24.55,104.47,27.31,100.8,28.09ZM103,43.69c-2.06,2.18-4.28,4-7.17,4-5.35,0-9.46-4.2-9.46-10.3,0-3.58,1.48-5.51,3.12-7.78h-.16a11,11,0,0,0-3.75,8c0,6.75,4.24,10.91,9.8,10.91a9,9,0,0,0,7.7-4.86Zm1.64-20a5.52,5.52,0,0,1-5.18,3c-3,0-5.77-2.06-8.2-2.06A5,5,0,0,0,87,27.26l0,.09a5.22,5.22,0,0,1,3.91-1.57c3.21,0,5.27,2,8.53,2,3.45,0,5-2.27,5.31-4ZM93.23,26.56c-2.1,2.19-4,4.57-4,9.23A8.94,8.94,0,0,0,92,42.62l1.2-.62V31l-1.11.58-.21-.42L97.63,28C96.07,27.68,94.67,27,93.23,26.56Zm7.12,1.61a6.48,6.48,0,0,1-.9,0,7.39,7.39,0,0,1-1.65-.16v12L92.41,43a6.82,6.82,0,0,0,4.19,1.32,9.17,9.17,0,0,0,3.75-.78V28.17Zm-5.93,2.1-.78.45v11l.78-.42Zm23.68,1.56V46.08c0,4-3.5,6.63-7.41,7.41l-.09-.17a5.44,5.44,0,0,0,3.05-4.94V33.65l-2.22-2-.87.95V44.06l1.24,1.11v.09l-3.34,3.62-3.83-3.5v-.17l1.49-1.56V25.45l4.36-4.65.08,0v11L114.14,28l3.75,3.37.7-.74.33.29ZM106.57,45.3v-.09l.86-.86V24.75l-.86.91V43.94l-1.32,1.32v.08l3.21,2.88.58-.66ZM115,33l-2.68-2.31-.58.62,2.39,2.14V48.26a5.23,5.23,0,0,1-.57,2.59l0,0a3.74,3.74,0,0,0,1.4-3.3V33Zm9.67,7.12v2.1l4,3.13,2.3-2.47.33.33-5.35,5.72-5.44-4.36-.82.86-.33-.33,1-1V33.69L128.06,28l4.08,6.58Zm-3,3.62V33.27l-.87.62V44.14l5.11,4.16.65-.7Zm3.12-12.68-.08,0v8.44l3.67-2.67Zm1.07-.82-.74.53,3.63,5.81.74-.54Z" transform="translate(-26.39 -20.8)"></path></g></g><path class="cls-2" d="M93.89,114.92a5.2,5.2,0,0,0-2.92-2V121l-.08,0-1.65-1.49-4.77,4.41-.09,0V112.82a9.08,9.08,0,0,0-4.44,2.56l-.09,0c.29-3.17,1.86-5.52,4.53-6.43v-8h-.86a2.56,2.56,0,0,0-2.43,1.72H81a6,6,0,0,1-.21-1.89,3.45,3.45,0,0,1,3.38-3.54h.24V92.73l-1.69-1.52-.82.82-.29-.28,4.16-4.41,3.87,3.54v3.75l.91-1V88.91H91v4.32l5.47-5.89,4.66,4.24v17.91Zm-9.51-3.62A5.34,5.34,0,0,0,80.72,114l0,.08a7.83,7.83,0,0,1,3.62-1.77v-1ZM85.7,99.49H83.44a2,2,0,0,0-2.23,2.14l0,0a2.29,2.29,0,0,1,2-1.24h1.61v22.44l.86-.82Zm0-7.41-2.06-1.9-.66.7,1.86,1.65v4.65h.86v-5.1Zm4.82,2.34-.91,1v23.84l.91.82Zm5.39-.94-2.43-2.23L91,94v14.49a7,7,0,0,1,4.9,2.22l0,0ZM91,111.3v1.07a4.67,4.67,0,0,1,3,1.9l.94-.75A5.33,5.33,0,0,0,91,111.3Zm6.26-18.48-2.8-2.6-.66.7,2.59,2.39v19.14l.87-.65Zm18.24,5.47v11.53l-7,5.15-5.23-4-.62.7-.33-.33.74-.82V99.28l7.29-5.23,4.86,3.79L116,97l.33.32Zm-11.08,11.86V98.91l-.86.62V110.6l4.94,3.79.78-.58ZM111,99.65l-3.46-2.72,0,0v12.27l3.5,2.64V99.65Zm1.32-.74-3.83-3-.78.57,3.74,2.88v12.81l.87-.66V98.91ZM125,101.5h4.24v8.81l-6.55,4.61a4.76,4.76,0,0,0-3.62-1.68,5.16,5.16,0,0,0-3.54,1.52l-.21-.08,5.6-8.15h-3.46V98.87l6.88-4.78a3.61,3.61,0,0,0,2.51,1,4.66,4.66,0,0,0,2.92-.9l.17.08ZM120.41,112a5,5,0,0,0-3,1v.08a4.73,4.73,0,0,1,1.94-.37,4.8,4.8,0,0,1,3.42,1.61l.94-.7A4.08,4.08,0,0,0,120.41,112Zm4.4-6.91h-2.3l-4.82,7,0,.09a6.25,6.25,0,0,1,3.75-1.44,4.27,4.27,0,0,1,3.29,1.56l0,0v-7.12Zm-6,0V98.5l-.86.62V106h3.33l.66-.9Zm8.61-8.07a3.94,3.94,0,0,1-2.8.94,3.68,3.68,0,0,1-2.6-1.19l-.08,0v6h1.56l4-5.76Zm-2-.37a3,3,0,0,1-2.31-1.2l-1,.7a3.14,3.14,0,0,0,2.67,1.36,4.47,4.47,0,0,0,2.92-1.15l0-.13A6.34,6.34,0,0,1,125.43,96.69Zm.7,7.08h-2.68l-.61.86h2.43v8l.86-.62v-8.23Zm10,11.15-3.78-3-.79.86-.33-.32.91-1V97.1h-2.39l-.08-.08,1.44-2.15h1V92.12l4.36-4.66.09.09v7.32h3.29l.08.09-1.44,2.14h-1.93v12.47l2.26,1.73.86-.94.33.32Zm-2.67-23.5-.87.94v2.51h.87Zm0,19.68v-14h-.87v14.49l3.5,2.72.62-.66Z" transform="translate(-26.39 -20.8)"></path><g><path class="cls-2" d="M45.7,80.79,40,75.85l-4.37,4.94-5.92-5.11V67.61H28.53a1.83,1.83,0,0,0-1.81,1.44H26.6a6.57,6.57,0,0,1-.21-1.56c0-1.07.29-3.87,3.3-3.87V56.54c0-1.36-1.61-1.9-1.61-3.71,0-2.34,2.22-4.65,6.3-6.09l.16.12c-1.48.87-2.26,1.69-2.26,3.46,0,2.72,2.63,2,2.63,6.3v1.65l4.82-5.07,5.07,5,4.77-5,4.61,4.53V73ZM31,75V66.34H28.7a1.67,1.67,0,0,0-1.81,1.48l0,0a2,2,0,0,1,1.77-.7h1.44v8.32l5.43,4.69.62-.74Zm0-18.89c0-1.69-1.48-2.27-1.48-3.34A6.15,6.15,0,0,1,31,48.92l-.08,0a5.6,5.6,0,0,0-2.39,3.95c0,1.49,1.61,2.18,1.61,3.5v7.29H31Zm8.69,4.11-3.13-3-1.65,1.68V73.46l3.75,3.17,1-1.15ZM41,74.94V59.67l-3.5-3.46-.66.66L40.14,60V75.39l5.56,4.82.66-.62Zm8-15.23L46.4,57.24l-1.48,1.52V73.42L49,77l0,0Zm1.32-.58-3-2.92-.62.66,2.76,2.63V76.71l.86-.82Z" transform="translate(-26.39 -20.8)"></path><path class="cls-2" d="M67.81,80.79l-3.92-3.54-3.5,3.54L56.11,77l-.57.62-.33-.33L56,76.5v-11l7.74-5.6,4.45,3.46.78-.82.33.33-.91.94V75.19l2.18,2,.7-.75.33.29ZM57.27,76.22V65.1l-.87.62V76.63l4,3.54.66-.66Zm6.62-10.83-3.37-2.64-.13.09v12l2.8,2.43.7-.7Zm1.32,11.2V64.77l-3.5-2.84-.82.58,3.46,2.71V77l3.46,3.13.61-.66Zm14.58-9.22H84v8.81l-6.55,4.61a4.74,4.74,0,0,0-3.62-1.69,5.13,5.13,0,0,0-3.54,1.52l-.21-.08,5.6-8.15H72.25V64.73L79.13,60a3.61,3.61,0,0,0,2.51,1,4.66,4.66,0,0,0,2.92-.9l.17.08ZM75.18,77.9a5.06,5.06,0,0,0-3,1V79a4.63,4.63,0,0,1,5.35,1.23l1-.7A4.08,4.08,0,0,0,75.18,77.9ZM79.58,71H77.27l-4.81,7,0,.08a6.22,6.22,0,0,1,3.74-1.44,4.27,4.27,0,0,1,3.3,1.56l0,0Zm-6,0V64.36L72.7,65v6.91H76l.66-.9Zm8.6-8.07a3.87,3.87,0,0,1-2.8.95,3.65,3.65,0,0,1-2.59-1.2l-.08,0v6h1.56l4-5.76Zm-2-.37a3,3,0,0,1-2.31-1.2l-1,.7a3.17,3.17,0,0,0,2.68,1.36,4.41,4.41,0,0,0,2.92-1.15l0-.12A6.27,6.27,0,0,1,80.2,62.55Zm.7,7.08H78.22l-.62.86H80v8l.87-.62Zm17.33-5.89V78c0,4-3.5,6.63-7.41,7.41l-.08-.17a5.45,5.45,0,0,0,3-4.94V65.55l-2.22-2-.86.94V76l1.23,1.11v.08L88.6,80.79l-3.83-3.5v-.17l1.48-1.56V57.36l4.36-4.65.09,0v11l3.58-3.87L98,63.29l.69-.74.33.29ZM86.7,77.21v-.09l.87-.86V56.66l-.87.91V75.85l-1.31,1.31v.09l3.21,2.88.57-.66Zm8.4-12.32-2.67-2.3-.58.62,2.39,2.14V80.17a5.23,5.23,0,0,1-.58,2.59l0,0a3.71,3.71,0,0,0,1.4-3.29V64.89Zm10.62,15.9-3.54-3.26-.82.87-.33-.33,1-1V65.14l-1.73-1.64-.66.74-.33-.33,3.7-4,3.3,3,.82-.91.37.29-1,1.11v12l2,1.86.9-.95.33.33Zm-2.43-4V64.48l-2.14-2-.57.66,1.85,1.77V77.16l3.29,3,.62-.66Zm1.24-17.21-3.38-3.08,3.09-3.3,3.38,3.09Zm-2.1-3.74-.62.61,2.68,2.52.62-.7Z" transform="translate(-26.39 -20.8)"></path><path class="cls-2" d="M123.13,80.79l-3.58-3.26v-12l-2.18-2-1.16,1.23V75.89l1.28,1.19v.17l-3.37,3.54-3.83-3.5v-.13l1.48-1.56V65.22l-1.94-1.77-.78.87-.33-.33,3.75-4.08,3.74,3.34v.82l3.92-4.16,3.66,3.3.82-.87.37.33-1,1V75.48l1.85,1.72.9-1,.33.33Zm-10.87-3.58v-.09c0,.09.83-.82.83-.82V64.61l-2.35-2.14-.58.61,2.06,1.9V75.85L111,77.16v.09l3.17,2.88.65-.7Zm8.61-.33V64.81l-2.56-2.3-.65.7,2.34,2.1v12l3.09,2.88.66-.7ZM134.74,88.2c-1.36-1.48-2.3-2.1-3.58-2.1a10,10,0,0,0-4.53,1.4l-.12-.13,5.68-6.58-4-3.21-.78.82-.33-.29.91-1V65.47l7.82-5.6,4.36,3.46.75-.82.33.33-.87.94V77.86c0,2.15,1.19,2.06,1.19,3.67C141.53,83.38,138.86,85.11,134.74,88.2Zm-5.47-11.41V65.14l-.87.62v11.4l4.08,3.3.62-.74ZM132.15,85a6.54,6.54,0,0,0-3.75,1.19v.08a7.34,7.34,0,0,1,3-.66,4.55,4.55,0,0,1,3.41,1.94l.83-.66A4.8,4.8,0,0,0,132.15,85Zm5-4c-1-.65-1.28-1.35-1.28-3.12V77.2l-6.83,7.91,0,0a7.93,7.93,0,0,1,4.45-1.36,5.89,5.89,0,0,1,4,1.73,3,3,0,0,0,1.32-2.35C138.9,82.35,138.2,81.73,137.17,81.07Zm-1.28-15.68-3.41-2.68-.09.09V75.43L135,77.49l.86-1Zm2.52,15.11c-1.07-.82-1.2-1.52-1.2-3.29V64.69l-3.46-2.8-.78.54,3.38,2.67V77.78c0,1.77.08,2.27,1.19,3s1.77,1.36,1.77,2.3c0,.25,0,.66,0,.66l0,0a1.41,1.41,0,0,0,.45-1.07A2.72,2.72,0,0,0,138.41,80.5Zm9.88.29-3.79-3-.78.87-.33-.33.9-1V63h-2.38l-.09-.08,1.44-2.14h1V58l4.37-4.65.08.08v7.33H152l.09.08L150.67,63h-1.93V75.44L151,77.16l.87-.94.33.33Zm-2.68-23.51-.86.95v2.51h.86Zm0,19.68V63h-.86V77.45l3.5,2.72.61-.66Zm20-12.81V75.68l-7,5.15-5.23-4-.61.7-.33-.33.74-.83V65.14l7.29-5.23,4.85,3.79.79-.82.32.33ZM154.59,76V64.77l-.87.62V76.46l4.94,3.79.78-.57Zm6.62-10.5-3.45-2.71,0,0V75.1l3.5,2.64V65.51Zm1.32-.74-3.83-3-.78.57,3.75,2.89v12.8l.86-.66V64.77Zm18.86,16-3.58-3.26v-12l-2.19-2-1.15,1.23V75.89l1.28,1.19v.17l-3.38,3.54-3.83-3.5v-.13L170,75.6V65.22l-1.93-1.77-.78.87L167,64l3.74-4.08,3.75,3.34v.82l3.91-4.16,3.67,3.3.82-.87.37.33-1,1V75.48l1.85,1.72.91-1,.33.33Zm-10.87-3.58v-.09c0,.09.82-.82.82-.82V64.61L169,62.47l-.58.61,2.06,1.9V75.85l-1.28,1.31v.09l3.17,2.88.66-.7Zm8.6-.33V64.81l-2.55-2.3-.66.7,2.35,2.1v12l3.09,2.88.65-.7Z" transform="translate(-26.39 -20.8)"></path></g></g></svg> 