<?xml version="1.0" encoding="UTF-8"?> <svg xmlns="http://www.w3.org/2000/svg" id="Layer_1" width="600" height="400" viewBox="0 0 600 400"><defs><style>.cls-1{fill:#fff;}</style></defs><g id="Embroker"><g><path class="cls-1" d="M335.28,168.67c2.68,.64,5.42,1.09,8.02,1.96,14.26,4.71,22.45,17.96,20.84,32.87-1.66,15.71-13.42,25.71-27.79,27.53-.36,.07-.72,.18-1.07,.31h-7.66c-2.04-.45-4.11-.83-6.11-1.36-25.81-7.25-28.01-36.49-15.51-50.42,5.47-6.1,12.38-9.38,20.39-10.56,.42-.07,.83-.22,1.24-.33h7.66Zm9.67,31.51v-1.34c-.03-7.4-6.06-13.37-13.46-13.34-1.53,0-3.04,.27-4.47,.79-7.59,2.78-10.08,9.41-8.85,17.18,1.08,7.06,7.59,11.98,14.67,11.08,7.36-.8,12.42-6.8,12.12-14.34v-.03Z"></path><path class="cls-1" d="M118.39,169.66c5.72,0,11.33,0,16.93,.05,.61,.13,1.15,.49,1.49,1.02,4.42,6.08,8.8,12.16,13.14,18.25,.26,.36,.53,.7,.95,1.26,.38-.49,.71-.89,1.02-1.3,4.35-6.03,8.72-12.05,13.05-18.1,.49-.8,1.38-1.27,2.32-1.19,5.37,.06,10.78,0,16.22,0v60.59h-18.63v-29.61l-.35-.14-13.62,17.06c-4.54-5.75-9.01-11.36-13.77-17.42v30.04h-18.75v-60.5Z"></path><path class="cls-1" d="M230.1,199.17c4.78,2.07,8.04,5.31,9.25,10.24,1.87,7.59-.69,17.34-11.61,19.95-2.31,.58-4.68,.9-7.07,.95-10.05,.1-20.1,.04-30.15,0-.33,0-.66,0-1.08-.07v-60.54c.6,0,1.14-.07,1.66-.07,9.12,0,18.32-.09,27.48,.06,2.88,.05,5.74,.48,8.51,1.28,7.14,2.07,10.78,7.2,11.02,14.64,.19,6.1-2.38,10.55-8.02,13.56Zm-22.57,7.54v8.04c3.47,0,6.85,.12,10.21-.04,2.1,.03,3.83-1.66,3.85-3.76,0-.07,0-.15,0-.22,0-2.18-1.76-3.95-3.93-3.97-3.32-.18-6.64-.07-10.13-.07v.02Zm0-14.01c3.4,0,6.63,.15,9.79-.05,2.03-.13,3.09-1.66,3.11-3.66s-.95-3.45-2.94-3.6c-3.27-.23-6.58-.06-9.95-.06v7.36Z"></path><path class="cls-1" d="M243.67,169.66h7.78c7.66,0,15.33-.09,22.98,.07,4.99-.01,9.84,1.64,13.78,4.7,5.11,4.02,7.22,9.52,7.68,15.82,.65,8.68-2.73,15.3-10.26,19.9l12.37,20.17h-9.41c-3.38,0-6.78-.05-10.16,0-.88,.1-1.72-.38-2.09-1.19-2.75-4.75-5.61-9.44-8.29-14.24-.83-1.5-1.78-2.22-3.49-1.97-.72,.05-1.44,.05-2.16,0v17.28h-18.74l.02-60.53Zm18.84,28.42c3.53-.16,6.97-.13,10.36-.52,2.84-.33,4.36-2.43,4.44-5.37,.09-3.47-1.25-5.9-4.2-6.23-3.47-.39-7.02-.09-10.59-.09v12.21Z"></path><path class="cls-1" d="M65.31,169.74h47.16v16.16h-28.34v5.71h28.31v15.87h-26.66c-1.35,0-1.91,.33-1.79,1.76s0,2.98,0,4.68h28.48v16.29h-47.16v-60.47Z"></path><path class="cls-1" d="M480.29,169.72c.39,0,.66-.06,.93-.06,9.89,0,19.77-.05,29.66,.05,4.24,0,8.41,1.17,12.03,3.38,4.91,3,8.24,8,9.12,13.68,1.23,6.63,.63,13-3.93,18.37-1.66,1.92-3.71,3.45-5.71,5.28,3.94,6.39,8.04,13.02,12.3,19.9h-19.68c-.88,.09-1.72-.4-2.08-1.2-2.76-4.81-5.66-9.55-8.36-14.38-.79-1.41-1.66-2.05-3.25-1.82-.77,.05-1.54,.05-2.31,0v17.27h-18.71v-60.48Zm18.76,28.36c3.58-.16,7.02-.13,10.4-.51,2.79-.32,4.33-2.36,4.49-5.17,.18-3.21-1.1-5.93-3.67-6.3-3.67-.54-7.46-.46-11.21-.66v12.64Z"></path><path class="cls-1" d="M387.65,194.48c4.98-7.8,10.03-15.57,14.97-23.41,.52-.97,1.57-1.54,2.66-1.43,6.63,.07,13.22,0,20.15,0-.41,.66-.69,1.16-1,1.66-5.81,8.68-11.55,17.42-17.42,26.02-.73,.84-.73,2.08,0,2.92,6.13,9.45,12.22,18.93,18.29,28.42,.3,.46,.57,.93,.97,1.57-.61,.05-1.07,.11-1.53,.11h-19.17c-.93,.09-1.83-.41-2.25-1.24-4.91-7.86-9.85-15.7-14.82-23.52-.31-.49-.66-.95-1.24-1.8v26.43h-19.12v-60.39h19.07v24.61l.43,.06Z"></path><path class="cls-1" d="M429.45,169.74h44.84v16.16h-25.93v5.68h25.94v15.88h-25.91v6.49h25.92v16.3h-44.86v-60.51Z"></path></g></g></svg> 