<?xml version="1.0" encoding="UTF-8"?> <svg xmlns="http://www.w3.org/2000/svg" id="Layer_1" width="600" height="400" viewBox="0 0 600 400"><defs><style>.cls-1{fill:#fff;}</style></defs><path class="cls-1" d="M254.13,156.11c11.42,4.28,18.92,11.42,18.92,11.42,.18-3.39,1.07-6.96,2.32-10.18,0,0-3.57-6.78-14.28-14.1-11.6-7.85-24.81-9.99-24.81-9.99-2.68,5.71-4.46,11.96-5.53,18.56,0,0,9.64-1.07,23.38,4.28h0Zm8.21-23.02c10.89,10.53,14.81,21.06,14.81,21.06,1.98-3.23,4.59-6.02,7.68-8.21,0,0-3.93-12.49-10.53-21.95-6.43-9.28-16.95-16.95-16.95-16.95-5.18,3.92-9.82,8.57-13.56,13.74,0,0,10.71,4.64,18.56,12.32Zm19.09-13.03c4.82,12.49,6.07,24.27,6.07,24.27,3.53-1.71,7.34-2.8,11.24-3.21,0,0,.18-12.14-2.5-24.45-3.03-14.45-6.6-23.56-6.6-23.56-6.43,1.07-12.49,2.86-18.2,5.53,0,0,6.61,12.85,10,21.41h0Zm64.61,36.05c-11.24,4.28-18.91,11.42-18.91,11.42,0-3.39-.89-6.96-2.14-10.18,0,0,3.57-6.78,14.28-14.1,11.6-7.85,24.63-9.99,24.63-9.99,2.77,5.87,4.64,12.13,5.53,18.56,0,0-9.64-1.07-23.38,4.28h0Zm-8.03-23.02c-10.89,10.53-14.81,21.06-14.81,21.06-1.99-3.27-4.67-6.08-7.86-8.21,0,0,4.1-12.49,10.53-21.95,6.6-9.28,17.13-16.95,17.13-16.95,5.17,3.92,9.64,8.57,13.56,13.74,0,0-10.7,4.64-18.56,12.32Zm-19.1-13.03c-5,12.49-6.25,24.27-6.25,24.27-3.21-1.61-7.32-2.86-11.06-3.21,0,0-.18-12.14,2.32-24.45,3.21-14.45,6.78-23.56,6.78-23.56,6.43,1.07,12.49,2.86,18.2,5.53,0,0-6.6,12.85-9.99,21.41h0Z"></path><path class="cls-1" d="M263.59,198.58c13.56-6.42,27.13-5,27.13-5-4.82-1.96-8.92-5-11.96-8.93,0,0-12.14-1.43-21.41,.36-14.1,2.86-20.35,7.68-20.35,7.68,2.86,5.89,6.6,11.24,10.89,16.06,0,0,5.71-5.35,15.7-10.17h0Zm-10.53-20.35c13.92-.71,23.38,2.86,23.38,2.86-1.78-3.03-2.86-6.43-3.21-10.17,0,0-10.89-6.25-21.06-7.5-13.92-1.96-22.13,.71-22.13,.71,.15,6.49,1.24,12.92,3.21,19.1,0,0,8.92-4.46,19.81-5Z"></path><path class="cls-1" d="M300.18,209.11c19.63,0,28.38,17.13,28.38,17.13,6.11-2.71,11.81-6.26,16.95-10.53,0,0-16.77-21.06-45.33-21.06s-45.33,21.06-45.33,21.06c5.18,4.28,10.71,7.85,16.95,10.53,0,0,8.57-17.13,28.38-17.13h0Z"></path><path class="cls-1" d="M336.58,198.58c-13.38-6.42-27.13-5-27.13-5,4.82-1.96,9.1-5,12.14-8.93,0,0,12.14-1.43,21.42,.36,14.1,2.86,20.34,7.68,20.34,7.68-2.86,5.89-6.6,11.24-10.89,16.06,0,0-5.88-5.35-15.88-10.17h0Zm10.53-20.35c-13.74-.71-23.2,2.86-23.2,2.86,1.6-3.03,2.85-6.43,3.21-10.17,0,0,10.89-6.25,21.06-7.5,13.92-1.96,22.13,.71,22.13,.71-.18,6.6-1.43,13.03-3.22,19.1,0,0-8.92-4.46-19.98-5h0ZM43.54,274.25v-23.38h9.99c3.57,0,6.43,.36,9.28,2.68,2.68,2.14,4.46,5.53,4.46,8.93,0,3.75-1.43,6.78-4.28,9.29-2.86,2.32-5.89,2.49-9.46,2.49h-9.99Zm0,5.17h10.53c5.18,0,9.46-.71,13.38-4.46,3.57-3.39,5.53-7.68,5.53-12.49,0-5.17-2.5-10.17-6.43-13.2-3.92-2.86-8.39-3.57-13.03-3.57H30.69v5.17h7.14v45.33h-7.14v5.17h19.81v-5.17h-6.96v-16.78Zm35.16-.89c1.07-7.68,8.03-14.1,15.88-14.1,8.39,0,15.71,5.89,16.78,14.28l-32.66-.18h0Zm30.34,11.42c-3.03,5.18-8.21,8.03-14.28,8.03-8.39,0-15.53-6.78-16.06-15.17h37.48v-1.6c0-11.96-9.28-21.42-21.41-21.42s-21.24,10-21.24,21.6,9.64,21.06,21.42,21.06c8.57,0,16.06-4.82,19.63-12.49h-5.54s0,0,0,0Zm21.95-21.24c1.96-5.71,7.32-8.03,13.21-8.21v4.82c-9.1,.71-13.21,6.07-13.21,14.81v16.42h6.96v4.82h-18.91v-4.82h6.96v-31.23h-6.96v-4.82h11.96v8.21Zm32.84-1.07c2.5-5.18,8.03-7.86,13.74-7.86,4.46,0,11.42,2.49,14.1,7.86,1.07,1.96,2.32,5.71,2.32,10.71v18.2h6.78v4.82h-18.92v-4.82h6.96v-16.42c0-3.56-.18-7.14-1.96-10.35-2.32-3.75-6.78-5-10.71-5-3.57,0-7.32,1.61-9.64,4.28-2.68,3.21-2.68,6.6-2.68,10.53v16.95h6.78v4.82h-18.92v-4.82h6.96v-31.23h-6.96v-4.82h12.14v7.14h0Zm59.78,29.8c-9.28,0-16.42-7.5-16.42-16.42s7.32-16.24,16.42-16.24,16.24,7.5,16.24,16.42c0,8.92-7.32,16.24-16.24,16.24Zm0,5c11.96,0,21.41-9.64,21.41-21.6s-9.64-21.06-21.41-21.06-21.6,9.46-21.6,21.42c0,11.78,9.64,21.24,21.6,21.24Zm46.58-4.82c-8.93,0-16.6-7.32-16.6-16.42s7.32-16.6,16.6-16.6,16.42,7.32,16.42,16.42c0,9.1-7.14,16.6-16.42,16.6Zm16.24,3.74h11.96v-4.82h-6.78v-50.86h-12.14v4.82h6.96v19.45c-3.21-6.42-10-10.17-16.95-10.17-11.42,0-21.06,9.82-21.06,21.24,0,3.92,1.61,8.39,3.57,11.78,3.75,5.71,11.24,9.64,17.67,9.64,7.14,0,13.21-3.57,16.78-9.64v8.56h0Zm84.59,0h-10.89l-17.13-23.92h2.14c4.1,0,8.21,0,11.78-2.14,3.93-2.49,6.25-6.6,6.25-11.24,0-3.92-1.25-7.5-4.1-9.99-3.39-3.04-6.96-3.22-11.07-3.22h-11.07v45.33h6.79v5.17h-19.46v-5.17h7.14v-45.33h-7.14v-5.17h24.09c5.35,0,9.81,.53,14.28,4.1,4.1,3.57,6.25,8.56,6.25,14.1,0,9.46-7.32,17.13-16.95,17.13l11.78,15.17h7.32v5.17h0Zm16.24-4.81h6.96v4.82h-19.1v-4.82h7.14v-31.23h-6.96v-4.82h11.96v36.05Zm-5-50.86h5v8.03h-5v-8.03Zm51.58,27.12h-4.82c-2.86-4.82-8.39-7.85-14.1-7.85-8.93,0-16.06,7.32-16.06,16.24s7.32,16.24,16.6,16.24c5.89-.18,11.6-3.39,13.92-8.74l5.89-.18c-3.04,8.57-11.43,13.92-20.34,13.92-11.6,0-21.24-9.64-21.24-21.06,0-5.89,2.32-11.25,6.07-15.17,3.92-3.93,9.1-6.43,14.99-6.43s10.53,2.32,14.28,6.43v-5.71h4.82v12.31h0Zm25.34-8.03c8.93,0,16.24,7.32,16.24,16.24s-7.32,16.42-16.6,16.42-16.24-7.5-16.24-16.24c0-9.1,7.5-16.42,16.6-16.42Zm16.24,36.58h11.96v-4.82h-6.79v-31.23h6.79v-4.82h-11.96v8.93c-3.74-6.25-9.46-9.64-16.77-9.64s-14.45,3.75-17.85,9.64c-1.61,3.04-3.39,5.71-3.39,11.78-.18,4.46,1.25,8.39,3.21,11.78,3.74,5.89,10.53,9.46,18.03,9.46s13.2-3.39,16.77-9.46v8.38h0Zm29.45-32.66c1.78-5.71,7.32-8.03,13.03-8.21v4.82c-8.93,.71-13.03,6.07-13.03,14.81v16.42h6.78v4.82h-18.91v-4.82h6.96v-31.23h-6.96v-4.82h12.14v8.21h0Zm36.23,28.91c-8.93,0-16.6-7.32-16.6-16.42s7.32-16.6,16.6-16.6,16.42,7.32,16.42,16.42-7.14,16.6-16.42,16.6Zm16.24,3.74h11.96v-4.82h-6.78v-50.86h-12.14v4.82h6.96v19.45c-3.21-6.42-9.99-10.17-16.95-10.17-11.42,0-21.06,9.82-21.06,21.24,0,3.92,1.61,8.39,3.57,11.78,3.74,5.71,11.24,9.64,17.67,9.64,7.14,0,13.2-3.57,16.77-9.64v8.56h0Z"></path></svg> 