<?xml version="1.0" encoding="UTF-8"?> <svg xmlns="http://www.w3.org/2000/svg" id="Layer_1" width="600" height="400" viewBox="0 0 600 400"><defs><style>.cls-1{fill:#fff;}</style></defs><rect class="cls-1" x="23.75" y="208.5" width="38.2" height="38.2" transform="translate(-148.39 96.96) rotate(-45)"></rect><polygon class="cls-1" points="70.57 145.27 43.56 172.28 70.57 199.18 97.47 172.28 70.57 145.27"></polygon><polygon class="cls-1" points="98.17 226.9 125.18 199.89 98.17 172.99 71.27 199.89 98.17 226.9"></polygon><g><path class="cls-1" d="M247.31,183.62c1.03,1.83,2.41,3.21,4.12,4.24,1.83,1.03,3.89,1.49,6.3,1.49,1.95,0,3.78-.46,5.5-1.26,1.72-.8,3.21-2.06,4.35-3.55,1.26-1.49,2.18-3.21,2.86-5.27,.69-2.06,1.03-4.24,1.03-6.64s-.34-4.47-1.15-6.53c-.8-2.06-1.83-3.78-3.09-5.27-1.37-1.49-2.86-2.63-4.7-3.55-1.83-.8-3.78-1.26-5.96-1.26-2.41,0-4.58,.57-6.3,1.49-1.72,1.03-3.21,2.41-4.47,4.24v-5.15h-8.48v45.02h9.74v-17.98h.23Zm0-14.78c.69-1.37,1.6-2.41,2.86-3.21,1.26-.8,2.52-1.15,3.89-1.15,1.15,0,2.18,.23,3.09,.57,.92,.46,1.72,.92,2.41,1.72,.69,.69,1.15,1.6,1.6,2.63,.34,1.03,.57,2.06,.57,3.21s-.23,2.18-.57,3.21-.8,1.95-1.49,2.75c-.69,.8-1.37,1.37-2.29,1.83s-1.83,.69-2.86,.69c-1.49,0-2.86-.57-4.24-1.6-1.37-1.15-2.29-2.41-2.98-4.12v-6.53h0Z"></path><path class="cls-1" d="M286.94,169.65c.8-1.49,2.18-2.52,4.12-3.32,1.95-.69,4.01-1.15,6.41-1.15v-8.82c-.23,0-.46-.11-.57-.11h-1.03c-1.95,0-3.78,.69-5.5,1.95-1.72,1.26-3.09,2.86-4.24,5.04v-6.41h-8.93v31.96h9.74v-19.13h0Z"></path><path class="cls-1" d="M302.98,186.48c.92,.92,2.18,1.6,3.55,2.18,1.37,.46,2.86,.8,4.47,.8,2.18,0,4.24-.46,6.19-1.49,1.95-1.03,3.67-2.41,5.04-4.24l.23,1.49c.23,1.26,.8,2.29,1.72,2.98s2.29,1.03,4.12,1.03c.57,0,1.15,0,1.95-.11,.69-.11,1.49-.23,2.29-.46v-8.25c-.8-.11-1.26-.34-1.6-.69-.34-.34-.46-1.03-.46-2.06v-8.25c0-4.35-1.37-7.67-4.01-9.97-2.63-2.29-6.41-3.44-11.23-3.44-2.52,0-5.04,.34-7.22,1.03-2.29,.69-4.47,1.72-6.53,3.09l2.86,6.07c1.72-1.15,3.44-2.06,5.04-2.63s3.21-.92,5.04-.92c4.24,0,6.41,1.83,6.41,5.5v1.49c-.92-.46-2.06-.8-3.32-1.03-1.26-.23-2.52-.34-3.89-.34-2.06,0-3.89,.23-5.5,.8-1.72,.57-3.09,1.26-4.35,2.18s-2.18,2.06-2.86,3.32-1.03,2.75-1.03,4.35c0,1.49,.23,2.86,.8,4.01,.57,1.6,1.37,2.63,2.29,3.55Zm7.79-11.23c1.15-.8,2.63-1.26,4.47-1.26,.8,0,1.72,.11,2.75,.23,1.03,.23,1.95,.46,2.75,.8v3.09c0,.8-.46,1.6-1.37,2.29-.69,.57-1.49,1.15-2.52,1.49-1.03,.34-2.06,.57-3.09,.57-1.37,0-2.52-.34-3.44-1.15s-1.37-1.72-1.37-2.86c.11-1.37,.69-2.41,1.83-3.21Z"></path><polygon class="cls-1" points="495.87 156.82 485.45 156.82 474.68 170.1 474.68 144.33 464.94 144.33 464.94 188.77 474.68 188.77 474.68 179.5 478.12 175.95 486.48 188.77 496.79 188.77 484.3 170.56 495.87 156.82"></polygon><rect class="cls-1" x="500.57" y="156.82" width="9.74" height="31.96"></rect><path class="cls-1" d="M228.87,161.28c-1.49-1.49-3.21-2.75-5.38-3.67-2.06-.92-4.47-1.37-7.22-1.37s-5.15,.46-7.33,1.37-3.89,2.18-5.38,3.67-2.52,3.32-3.32,5.27c-.69,2.06-1.15,4.12-1.15,6.3s.34,4.24,1.15,6.3c.8,2.06,1.83,3.78,3.32,5.27,1.49,1.49,3.21,2.75,5.38,3.67s4.58,1.37,7.33,1.37,5.15-.46,7.33-1.37,3.89-2.06,5.38-3.67c1.49-1.49,2.52-3.32,3.32-5.27,.8-2.06,1.15-4.12,1.15-6.3s-.34-4.35-1.15-6.3c-.92-2.06-1.95-3.78-3.44-5.27Zm-6.07,14.89c-.34,1.03-.92,1.95-1.49,2.63-.69,.69-1.37,1.26-2.18,1.72s-1.83,.57-2.75,.57c-2.06,0-3.78-.8-5.15-2.29s-2.06-3.55-2.06-6.07c0-1.26,.23-2.29,.57-3.44,.34-1.03,.8-1.95,1.49-2.63,.69-.69,1.37-1.26,2.29-1.72s1.83-.57,2.86-.57c2.06,0,3.67,.8,5.04,2.29s2.06,3.55,2.06,6.07c-.23,1.37-.34,2.41-.69,3.44Z"></path><path class="cls-1" d="M576.62,156.82v5.27c-1.15-1.83-2.52-3.21-4.35-4.35-1.83-1.03-3.89-1.6-6.41-1.6-2.18,0-4.24,.46-6.07,1.26-1.83,.8-3.44,2.06-4.7,3.55-1.26,1.49-2.29,3.21-3.09,5.27-.69,2.06-1.15,4.24-1.15,6.53s.34,4.35,1.03,6.3,1.6,3.67,2.86,5.15,2.75,2.63,4.47,3.44,3.67,1.26,5.84,1.26c2.06,0,4.12-.46,5.96-1.37s3.21-2.29,4.24-4.01v3.09c0,1.49-.23,2.75-.69,3.89-.46,1.03-1.15,1.95-1.95,2.63s-1.72,1.15-2.86,1.49c-1.03,.34-2.18,.46-3.32,.46-1.95,0-3.89-.34-5.61-1.15s-3.21-1.83-4.35-3.21l-5.27,5.27c1.83,2.06,4.01,3.67,6.41,4.7,2.41,1.15,5.38,1.6,8.82,1.6,2.75,0,5.27-.34,7.45-1.15,2.29-.69,4.24-1.72,5.84-3.09s2.86-2.98,3.78-4.93c.92-1.95,1.37-4.12,1.37-6.53v-29.78s-8.25,0-8.25,0Zm-1.26,19.93c-.69,1.26-1.6,2.41-2.75,3.21-1.15,.8-2.52,1.26-4.01,1.26-1.15,0-2.06-.23-2.98-.57-.92-.34-1.72-.92-2.41-1.72-.69-.69-1.26-1.6-1.6-2.63s-.57-2.06-.57-3.21,.11-2.18,.46-3.21,.8-1.95,1.49-2.75c.69-.8,1.37-1.37,2.29-1.83s1.83-.69,2.86-.69c1.49,0,2.98,.46,4.24,1.49,1.37,1.03,2.29,2.29,2.98,4.01v6.64Z"></path><rect class="cls-1" x="500.68" y="144.33" width="9.74" height="8.82"></rect><path class="cls-1" d="M424.97,226.57c-1.49-1.49-3.21-2.75-5.38-3.67-2.06-.92-4.47-1.37-7.22-1.37s-5.15,.46-7.33,1.37c-2.18,.92-3.89,2.06-5.38,3.67-1.49,1.49-2.63,3.32-3.32,5.38-.8,2.06-1.15,4.24-1.15,6.53s.34,4.24,1.15,6.19c.8,1.95,1.95,3.67,3.32,5.15,1.49,1.49,3.32,2.75,5.38,3.55,2.18,.92,4.58,1.26,7.22,1.26,3.67,0,6.87-.8,9.51-2.41s4.58-3.67,5.84-6.19l-8.25-2.29c-.46,1.15-1.37,2.06-2.63,2.86-1.37,.69-2.63,1.03-4.12,1.03-1.83,0-3.44-.57-4.81-1.72-1.37-1.15-2.18-2.75-2.29-4.93h23.6c.11-.46,.11-.92,.23-1.49,0-.57,.11-1.15,.11-1.72,0-2.18-.34-4.24-1.15-6.3-.8-1.6-1.95-3.44-3.32-4.93Zm-19.7,8.71c.23-1.95,.92-3.55,2.18-4.81,1.26-1.15,2.86-1.83,4.7-1.83s3.44,.57,4.7,1.72,1.95,2.75,2.18,4.81h-13.75v.11Z"></path><path class="cls-1" d="M545.58,160.25c-.69-1.26-1.72-2.18-2.98-2.98-1.26-.69-2.98-1.15-5.04-1.15-2.86,0-5.27,.57-7.45,1.6s-3.78,2.52-5.04,4.47v-5.38h-8.82v31.96h9.74v-18.33c.23-.8,.69-1.6,1.15-2.29s1.03-1.26,1.72-1.83c.69-.46,1.37-.92,2.06-1.15,.69-.23,1.37-.46,2.06-.46,1.26,0,2.29,.46,3.09,1.49,.8,.92,1.15,2.52,1.15,4.58v17.98h9.74v-20.39c0-1.37-.11-2.75-.34-4.12,.11-1.49-.34-2.75-1.03-4.01Z"></path><path class="cls-1" d="M393.35,186.48c1.03,.92,2.18,1.6,3.55,2.18,1.37,.46,2.86,.8,4.47,.8,2.18,0,4.24-.46,6.3-1.49,1.95-1.03,3.67-2.41,5.04-4.24l.23,1.49c.23,1.26,.8,2.29,1.72,2.98s2.29,1.03,4.12,1.03c.57,0,1.26,0,1.95-.11s1.49-.23,2.29-.46v-8.25c-.8-.11-1.26-.34-1.6-.69-.34-.34-.46-1.03-.46-2.06v-8.25c0-4.35-1.37-7.67-4.01-9.97-2.63-2.29-6.41-3.44-11.23-3.44-2.52,0-4.93,.34-7.22,1.03-2.29,.69-4.47,1.72-6.53,3.09l2.86,6.07c1.72-1.15,3.44-2.06,5.04-2.63s3.21-.92,5.04-.92c4.24,0,6.41,1.83,6.41,5.5v1.49c-.92-.46-2.06-.8-3.32-1.03-1.26-.23-2.52-.34-3.89-.34-2.06,0-3.89,.23-5.5,.8-1.72,.57-3.09,1.26-4.35,2.18-1.26,.92-2.18,2.06-2.86,3.32s-1.03,2.75-1.03,4.35c0,1.49,.23,2.86,.8,4.01,.46,1.6,1.26,2.63,2.18,3.55Zm7.79-11.23c1.15-.8,2.63-1.26,4.47-1.26,.8,0,1.72,.11,2.75,.23,1.03,.23,1.95,.46,2.75,.8v3.09c0,.8-.46,1.6-1.37,2.29-.69,.57-1.49,1.15-2.41,1.49-1.03,.34-2.06,.57-3.09,.57-1.37,0-2.52-.34-3.44-1.15s-1.37-1.72-1.37-2.86c0-1.37,.57-2.41,1.72-3.21Z"></path><path class="cls-1" d="M457.15,160.25c-.69-1.26-1.6-2.18-2.98-2.98-1.26-.69-2.98-1.15-5.04-1.15-2.75,0-5.27,.57-7.45,1.6s-3.78,2.52-5.04,4.47v-5.38h-8.82v31.96h9.74v-18.33c.23-.8,.69-1.6,1.15-2.29s1.03-1.26,1.72-1.83c.69-.46,1.37-.92,2.06-1.15,.69-.23,1.37-.46,2.06-.46,1.26,0,2.29,.46,3.09,1.49,.8,.92,1.15,2.52,1.15,4.58v17.98h9.74v-20.39c0-1.37-.11-2.75-.34-4.12,.23-1.49-.23-2.75-1.03-4.01Z"></path><path class="cls-1" d="M275.49,246.62c-.8,0-1.49-.23-2.06-.69s-.8-1.26-.8-2.29v-11.8h6.64l-.23-7.56h-6.41v-9.39h-9.62v9.39h-13.06v-3.44c0-2.63,.8-4.47,3.67-4.47,1.37,0,3.78,.8,4.24,.92l1.6-6.87c-2.29-.92-5.84-1.83-7.9-1.83-1.72,0-3.21,.34-4.58,.92s-2.52,1.49-3.55,2.63c-1.03,1.15-1.72,2.52-2.29,4.12s-.8,3.89-.8,5.84v2.18h-4.58l.23,7.56h4.35v23.14h9.62v-23.14h13.06v15.23c0,4.12,1.95,8.48,9.05,8.48,3.55,0,8.13-2.18,9.62-3.21l-1.6-6.41c-.69,.34-2.98,.69-4.58,.69Z"></path><path class="cls-1" d="M392.09,221.76c-1.95,0-3.78,.69-5.5,1.95s-3.09,2.86-4.24,5.04v-6.53h-8.93v31.96h9.74v-19.13c.8-1.49,2.18-2.52,4.12-3.32,1.95-.69,4.01-1.15,6.41-1.15v-8.82c-.23,0-.34-.11-.57-.11h-1.03v.11Z"></path><path class="cls-1" d="M365.63,243.3v-8.25c0-4.35-1.37-7.67-4.01-9.97s-6.41-3.44-11.23-3.44c-2.52,0-4.93,.34-7.22,1.03s-4.47,1.72-6.53,3.09l2.86,6.07c1.72-1.15,3.44-2.06,5.04-2.63s3.21-.92,5.04-.92c4.24,0,6.41,1.83,6.41,5.5v1.49c-.92-.46-2.06-.8-3.32-1.03-1.26-.23-2.52-.34-3.89-.34-2.06,0-3.89,.23-5.5,.8s-3.09,1.26-4.35,2.18c-1.26,.92-2.18,2.06-2.86,3.32s-1.03,2.75-1.03,4.35c0,1.49,.34,2.86,.8,4.01,.57,1.26,1.37,2.29,2.29,3.21,1.03,.92,2.18,1.6,3.55,2.18,1.37,.46,2.86,.8,4.47,.8,2.18,0,4.24-.46,6.3-1.49,1.95-1.03,3.67-2.41,5.04-4.24l.23,1.49c.23,1.26,.8,2.29,1.72,2.98s2.29,1.03,4.12,1.03c.57,0,1.15,0,1.83-.11s1.49-.23,2.29-.46v-8.25c-.8-.11-1.26-.34-1.6-.69-.34-.11-.46-.8-.46-1.72Zm-9.85,.23c0,.8-.46,1.6-1.37,2.29-.69,.57-1.49,1.15-2.41,1.49-1.03,.34-2.06,.57-3.09,.57-1.37,0-2.52-.34-3.44-1.15s-1.37-1.72-1.37-2.86c0-1.26,.57-2.41,1.72-3.21,1.15-.8,2.63-1.26,4.47-1.26,.8,0,1.83,.11,2.75,.23,1.03,.23,1.95,.46,2.75,.8v3.09h0Z"></path><path class="cls-1" d="M194.28,170.33c-.34-.69-.8-1.37-1.49-2.06-.69-.69-1.26-1.26-1.83-1.6-.57-.46-1.26-.92-2.18-1.37-.92-.46-1.6-.92-2.18-1.15s-1.26-.57-2.29-1.03c-.92-.46-2.06-.92-3.32-1.49-1.26-.57-2.41-1.26-3.32-2.06-.92-.69-1.49-1.6-1.49-2.75s.34-1.95,.92-2.41c.69-.46,1.72-.69,2.98-.69,3.21,0,7.33,.46,12.14,1.37h.23l1.6-8.25-.11-.23c-2.52-.69-4.81-1.15-6.87-1.49-2.06-.34-4.01-.46-5.84-.46-4.81,0-8.71,1.15-11.34,3.44-2.63,2.29-4.01,5.38-4.01,9.16s1.49,6.87,4.24,9.05c1.15,.92,2.86,1.95,5.38,3.09,2.41,1.15,4.12,1.95,5.04,2.41,.46,.23,.92,.46,1.6,.8,.57,.34,1.03,.57,1.37,.8s.69,.57,1.15,1.03,.69,1.03,.69,1.83c0,1.83-.34,2.98-1.15,3.44s-1.72,.8-2.86,.8c-4.12,0-8.71-1.03-13.63-2.98l-.23-.11-.11,.34c-1.03,3.44-1.72,5.61-1.95,6.3-.23,.57-.34,.92-.46,1.26l-.11,.23,2.18,1.03c1.37,.69,3.32,1.26,5.73,1.95,2.52,.69,4.93,.92,7.22,.92,4.58,0,8.36-1.26,11.23-3.67,2.86-2.52,4.35-5.73,4.35-9.74,.11-2.06-.34-4.01-1.26-5.73Z"></path><path class="cls-1" d="M228.87,227.26c-1.49-1.49-3.21-2.75-5.38-3.67-2.06-.92-4.47-1.37-7.22-1.37s-5.15,.46-7.33,1.37c-2.18,.92-3.89,2.18-5.38,3.67-1.49,1.49-2.52,3.32-3.32,5.27-.69,2.06-1.15,4.12-1.15,6.3s.34,4.24,1.15,6.3,1.83,3.78,3.32,5.27c1.49,1.49,3.21,2.75,5.38,3.67,2.18,.92,4.58,1.37,7.33,1.37s5.15-.46,7.33-1.37c2.18-.92,3.89-2.06,5.38-3.67s2.52-3.32,3.32-5.27c.8-2.06,1.15-4.12,1.15-6.3s-.34-4.35-1.15-6.3c-.92-1.95-1.95-3.67-3.44-5.27Zm-6.07,15.01c-.34,1.03-.92,1.95-1.49,2.63-.69,.69-1.37,1.26-2.18,1.72s-1.83,.57-2.75,.57c-2.06,0-3.78-.8-5.15-2.29s-2.06-3.55-2.06-6.07c0-1.26,.23-2.29,.57-3.44,.34-1.03,.8-1.95,1.49-2.63,.69-.69,1.37-1.26,2.29-1.72s1.83-.57,2.86-.57c2.06,0,3.67,.8,5.04,2.29s2.06,3.55,2.06,6.07c-.23,1.26-.34,2.41-.69,3.44Z"></path><path class="cls-1" d="M194.28,236.43c-.34-.69-.8-1.37-1.49-2.06-.69-.69-1.26-1.26-1.83-1.6-.57-.46-1.26-.92-2.18-1.37s-1.6-.92-2.18-1.15-1.26-.57-2.29-1.03c-.92-.46-2.06-.92-3.32-1.49-1.26-.57-2.41-1.26-3.32-2.06-.92-.69-1.49-1.6-1.49-2.75s.34-1.95,.92-2.41c.69-.46,1.72-.69,2.98-.69,3.21,0,7.33,.46,12.14,1.37h.23l1.6-8.25-.23-.11c-2.52-.69-4.81-1.15-6.87-1.49-2.06-.34-4.01-.46-5.84-.46-4.81,0-8.71,1.15-11.34,3.44-2.63,2.29-4.01,5.38-4.01,9.16s1.49,6.87,4.24,9.05c1.15,.92,2.86,1.95,5.38,3.09,2.41,1.15,4.12,1.95,5.04,2.41l1.6,.8c.57,.34,1.03,.57,1.37,.8s.69,.57,1.15,1.03,.69,1.03,.69,1.83c0,1.83-.34,2.98-1.15,3.44s-1.72,.8-2.86,.8c-4.12,0-8.71-1.03-13.63-2.98l-.23-.11-.11,.34c-1.03,3.44-1.72,5.61-1.95,6.3-.23,.57-.34,.92-.46,1.26l-.11,.23,2.18,1.03c1.37,.69,3.32,1.26,5.73,1.95,2.52,.69,4.93,.92,7.22,.92,4.58,0,8.36-1.26,11.23-3.67,2.86-2.52,4.35-5.73,4.35-9.74,.23-2.18-.23-4.12-1.15-5.84Z"></path><polygon class="cls-1" points="317.07 245.36 314.09 236.65 319.24 223.48 311.57 223.48 308.82 231.96 306.07 223.48 298.4 223.48 303.55 236.65 300.57 245.36 291.87 222.34 282.7 222.34 295.88 254.29 303.89 254.29 308.82 241.12 313.75 254.29 321.76 254.29 334.94 222.34 325.66 222.34 317.07 245.36"></polygon><path class="cls-1" d="M385.91,175.72c0-4.35-2.06-7.45-6.3-9.16v-.46c1.49-.69,2.63-1.72,3.67-3.21,1.03-1.49,1.49-3.32,1.49-5.5,0-3.09-.69-5.5-2.18-7.45-.11-.11-.23-.23-.23-.34-.23-.23-.34-.46-.57-.69-.23-.23-.46-.46-.69-.69,0,0-.11,0-.11-.11-2.52-2.06-6.19-3.09-11.23-3.09-4.24,0-9.74,.23-16.15,.69l.34,22.91-.34,20.05c6.76,.69,12.26,1.03,16.61,.92,4.24,0,7.9-1.03,10.77-2.86,.69-.46,1.26-.92,1.72-1.49,2.06-2.06,3.21-5.27,3.21-9.51Zm-10.31,.23c0,2.18-.34,3.67-1.03,4.58-.69,.92-2.06,1.37-4.01,1.37s-4.81-.11-7.33-.34l-.11-11.23h6.41c2.06,0,3.55,.46,4.58,1.26,.92,.8,1.49,2.18,1.49,4.35Zm-1.95-14.2c-.69,.8-1.95,1.15-3.67,1.15h-6.99v-9.85l6.53-.23c1.83,0,3.21,.34,4.01,1.15,.8,.8,1.15,2.06,1.15,3.89-.11,1.83-.46,3.21-1.03,3.89Z"></path></g><polygon class="cls-1" points="98.17 228.31 84.37 214.45 71.27 227.61 98.17 254.62 125.19 227.61 112.03 214.45 98.17 228.31"></polygon><polygon class="cls-1" points="42.85 199.18 56.71 213.04 69.86 199.89 42.85 172.99 15.84 199.89 28.99 213.04 42.85 199.18"></polygon></svg> 