<?xml version="1.0" encoding="utf-8"?>
<!-- Generator: Adobe Illustrator 22.1.0, SVG Export Plug-In . SVG Version: 6.00 Build 0)  -->
<svg version="1.1" id="Layer_2_1_" xmlns="http://www.w3.org/2000/svg" xmlns:xlink="http://www.w3.org/1999/xlink" x="0px" y="0px"
	 viewBox="0 0 226.5 51" style="enable-background:new 0 0 226.5 51;" xml:space="preserve">
<style type="text/css">
	.st0{fill:#EF3A3C;}
</style>
<g>
	<path class="st0" d="M0.62,46.32h0.93c2.4,0,4.94-0.33,4.94-3.81V7.5c0-3.47-2.54-3.81-4.94-3.81H0.62v-2
		c4.08,0,12.02,0.27,17.63,0.27s15.56-0.27,20.1-0.27c-0.13,2.87-0.07,7.28,0.13,10.22l-2,0.53c-0.33-4.34-1.14-7.82-8.15-7.82
		H16.05v17.5H21c4.01,0,4.88-2.27,5.28-5.88h2c-0.13,2.61-0.2,5.21-0.2,7.82c0,2.54,0.07,5.08,0.2,7.62l-2,0.4
		c-0.4-4.01-0.6-6.61-5.21-6.61h-5.02v15.57c0,4.34,0.87,4.34,5.15,4.34c8.02,0,15.56-0.53,17.56-8.15l1.87,0.47
		c-0.87,3.54-1.67,7.08-2.27,10.62c-4.28,0-12.96-0.27-18.97-0.27S4.43,48.32,0.62,48.32C0.62,48.32,0.62,46.32,0.62,46.32z"/>
	<path d="M72.33,17.08c0,0-2.27-13.46-11.6-13.46c-10.2,0.01-14.48,8.36-14.48,20.05c0,11.16,1.32,22.72,13.08,22.72
		c6.66,0,11.38-7.54,13-14.22h1.83v12.92c0,0-9.59,4.24-15.31,4.24c-14,0-24.39-8.22-24.39-24.99c0-14.97,11.26-23.65,24.08-23.65
		c7.28,0,15.87,4.48,15.87,4.48l0.12,11.92L72.33,17.08z"/>
	<path d="M90.47,22.47c8.11,0,13.48,5.21,13.48,13.06c0,7.62-5.93,13.79-13.48,13.79c-7.89,0-13.37-5.72-13.37-13.45
		C77.09,28.3,82.63,22.47,90.47,22.47z M83.92,36.04c0,4.71,1.45,11.27,6.88,11.27c5.2,0,6.32-5.38,6.32-10.43
		c0-4.04-1.34-12.39-6.77-12.39C84.42,24.49,83.92,31.5,83.92,36.04z"/>
	<path d="M104.35,46.8h0.42c1.74,0,3.12,0,3.12-1.68V29.25c0-0.9-0.12-1.23-1.44-1.57c-0.72-0.17-1.38-0.39-2.1-0.56v-1.35
		c1.86-0.45,3.89-1.12,5.45-1.63c1.38-0.45,2.82-1.18,4.13-1.68l0.66,0.5v3.59c2.64-1.68,5.69-4.09,9.34-4.09
		c4.31,0,7.43,1.96,7.43,7.23v15.53c0,1.57,1.5,1.57,2.93,1.57h0.72v1.68c-2.28-0.11-4.49-0.22-6.77-0.22
		c-2.4,0-4.73,0.11-7.13,0.22V46.8h0.6c1.2,0,2.93,0,2.93-1.46V31.33c0-3.42-1.86-4.71-4.55-4.71c-1.98,0-4.19,1.12-5.51,1.91v16.93
		c0,1.35,1.38,1.35,2.88,1.35h0.9v1.68c-2.28-0.11-4.55-0.22-6.83-0.22c-2.46,0-4.85,0.11-7.19,0.22V46.8H104.35z"/>
	<path d="M149.63,26.45h-5.66v16.36c0,2.35,1.4,3.03,2.97,3.03c1.4,0,2.24-1.34,3.3-2.01l0.73,0.95c-2.07,2.69-5.42,4.54-8.61,4.54
		c-4.25,0-5.65-2.69-5.65-5.77V15.42h7.27v7.89h5.66v3.14H149.63z"/>
	<path d="M176.87,42.32c-2.66,3.92-7.18,7.01-12.76,7.01c-8.37,0-12.89-6.5-12.89-12.89c0-7.06,5.65-13.96,14.69-13.96
		c6.84,0,10.57,4.26,10.43,9.81l-0.8,0.62H157.6c0,5.72,3.12,11.38,10.3,11.38c3.19,0,5.78-1.01,7.91-3.03L176.87,42.32z
		 M165.31,31.22c3.59,0,4.12-0.06,4.12-2.07c0-2.13-1.66-4.65-4.65-4.65c-4.05,0-6.31,3.25-7.04,6.73L165.31,31.22L165.31,31.22z"/>
</g>
<path d="M177.1,46.8h0.42c1.74,0,3.12,0,3.12-1.68V29.25c0-0.9-0.12-1.23-1.44-1.57c-0.72-0.17-1.38-0.39-2.1-0.56v-1.35
	c1.86-0.45,3.89-1.12,5.45-1.63c1.38-0.45,2.82-1.18,4.13-1.68l0.66,0.5v3.59c2.64-1.68,5.69-4.09,9.34-4.09
	c4.31,0,7.43,1.96,7.43,7.23v15.53c0,1.57,1.5,1.57,2.93,1.57h0.72v1.68c-2.28-0.11-4.49-0.22-6.77-0.22c-2.4,0-4.73,0.11-7.13,0.22
	V46.8h0.6c1.2,0,2.93,0,2.93-1.46V31.33c0-3.42-1.86-4.71-4.55-4.71c-1.98,0-4.19,1.12-5.51,1.91v16.93c0,1.35,1.38,1.35,2.88,1.35
	h0.9v1.68c-2.28-0.11-4.55-0.22-6.83-0.22c-2.46,0-4.85,0.11-7.19,0.22V46.8H177.1z"/>
<path d="M221.8,26.45h-5.66v16.36c0,2.35,1.4,3.03,2.97,3.03c1.4,0,2.24-1.34,3.3-2.01l0.73,0.95c-2.07,2.69-5.42,4.54-8.61,4.54
	c-4.25,0-5.65-2.69-5.65-5.77V15.42h7.27v7.89h5.66v3.14H221.8z"/>
</svg>
