<?xml version="1.0" encoding="UTF-8"?> <!-- Generator: Adobe Illustrator 21.0.2, SVG Export Plug-In . SVG Version: 6.00 Build 0) --> <svg xmlns="http://www.w3.org/2000/svg" xmlns:xlink="http://www.w3.org/1999/xlink" version="1.1" id="Layer_1" x="0px" y="0px" viewBox="0 0 2500 2500" style="enable-background:new 0 0 2500 2500;" xml:space="preserve"> <style type="text/css"> .st0{fill:#CC0001;} .st1{fill:#FFFFFF;} </style> <path class="st0" d="M1250,2500c690.4,0,1249.9-559.5,1249.9-1249.9C2499.9,559.6,1940.3,0,1250,0C559.6,0,0.1,559.6,0.1,1250.1 C0.1,1940.5,559.6,2500,1250,2500"></path> <path class="st1" d="M778.4,1996.5h87.1V577.2h-87.1V1996.5z"></path> <path class="st1" d="M778.4,1996.5h87.1V577.2h-87.1V1996.5z M421.1,1094.3c1.5-90.5,156.6-93,156.6-4.4l1.4,76.9h118.5v-71 c7.7-237.7-399.6-237.3-396.5-5.9v409.1c-3.1,231.4,404.2,237.3,397,0v-85.8H577.7v91.7c0,88.9-154.8,90.3-156.4,0v-414.9 L421.1,1094.3 M1098.2,1001.8c0,0,20.7-30.7,74.9-60.7c68.7-38.1,136-0.2,126.3-4.4c54.2,23.9,74.7,82.1,78.5,147v484.2h76.3v88.9 h-196.1L1258,1078c0-84.4-142.4-81.8-143.8,4l0.2-4v578.8H938.4v-89.1l55.8,0.2v-542.3l-66.2-0.4v-88.5h169.7L1098.2,1001.8 M1986.4,1497c3.8,64.9,24.3,123.1,78.4,147.1c-10.1-4.7,26.4,13.5,64,13.2c19.8-0.5,115.4-0.4,115.4-0.4v-89c0,0-48.2-0.6-73.9-0.4 c-32.6,0.4-60.8-15.1-63.2-60.9l0.3-480.5l-0.3-0.9h115.7v-87.1h-116.1l0.7-1.4V750.3h-121.1L1986.4,1497 M1768.4,1413.1v91.7 c0,88.9-154.8,90.3-156.5,0v-190.9l254.4,0.2c12,0,22-9.8,22-22.1v-196.2c7.5-237.7-399.6-237.3-396.4-5.9V1499 c-3.2,231.4,404.2,237.3,396.8,0v-85.8L1768.4,1413.1L1768.4,1413.1L1768.4,1413.1z M1612,1089.3c2.1-88.8,156.5-88.1,156.5,0.6 l-0.4,133.8l-156.1,0.1L1612,1089.3"></path> </svg> 