<?xml version="1.0" encoding="UTF-8"?> <svg xmlns="http://www.w3.org/2000/svg" id="Layer_1" width="100" height="25.15" viewBox="0 0 100 25.15"><defs><style>.cls-1{fill:#6461ab;}.cls-1,.cls-2,.cls-3,.cls-4,.cls-5,.cls-6,.cls-7,.cls-8{stroke-width:0px;}.cls-2{fill:#12b24b;}.cls-3{fill:#1989ca;}.cls-4{fill:#cc1e4f;}.cls-5{fill:#f37124;}.cls-6{fill:#fff;}.cls-7{fill:#fbb715;}.cls-8{fill:#010101;}</style></defs><g id="g3142"><g id="g4401"><path id="path2986" class="cls-6" d="m21.33,3.26c-.66-1.66-2.29-3.44-5.32-3.2-3.86.42-5.08,4.12-4.49,6.32-1.54-1.03-4.16-1.5-6.44.45-2.95,2.95-1.38,6.93.25,7.89-1.78-.16-4.61,1.03-5.24,4.19-.66,3.91,2.32,6.2,5.24,6.2h32.29c3.37,0,5.24-2.91,5.03-5.65-.33-3.58-3.61-4.94-5.41-4.66,1.5-.84,3.49-4.75.45-7.82-2.41-2.29-5.48-1.45-6.56-.46.58-1.92-.37-5.86-4.28-6.48-.27-.03-.52-.04-.78-.04-2.99.03-4.33,2.2-4.75,3.26"></path><g id="g4393"><path id="path2988" class="cls-5" d="m5.62,7.47c-1.71,1.54-2.32,5.03.75,7.07l12.26,8.39-5.96-13.58c-1.24-3.2-4.64-3.91-7.05-1.87"></path><path id="path2990" class="cls-4" d="m16.16.87c-1.99.03-4.99,2.4-3.65,6.02l6.15,14.47,2.16-15.21c.51-3.79-2.37-5.53-4.66-5.27"></path><path id="path2992" class="cls-1" d="m21.78,5.56h1.17s.61,0,.7.3c-.46.37-1.71.42-1.54,2.41l1.96,13.09,6.11-14.5c1.24-3.23-1.38-5.95-3.7-6.02-.1-.01-.22-.01-.33-.01-2.1-.01-4.49,1.5-4.37,4.73"></path><path id="path2994" class="cls-3" d="m29.92,9.46l-5.78,13.42,12.25-8.43c2.83-1.99,2.37-5.2.79-6.77-.66-.75-1.89-1.32-3.17-1.32-1.51-.01-3.14.79-4.09,3.1"></path><path id="path2996" class="cls-2" d="m35.03,16.35l-11.52,8.03h14.17c2.91,0,4.78-2.99,3.94-5.74-.55-1.72-2.2-3.08-4.12-3.08-.78,0-1.63.24-2.47.79"></path><path id="path2998" class="cls-7" d="m5.29,24.38h13.96l-11.52-8.03c-2.65-1.69-5.65-.7-6.72,2.13-.91,3.23,1.36,5.9,4.28,5.9"></path></g></g><g id="g4411"><path id="path3000" class="cls-8" d="m71.58,14.98h3.98c.91.05,2.55.86,2.55,2.74,0,1.98-1.69,2.79-2.6,2.86h-3.93v-5.6m-.05-8.79h3.29c1.12.07,2.45.88,2.45,2.43s-1,2.5-2.31,2.69h-3.43v-5.12m-4.5-3.67v21.75h10.58c2.5,0,5.5-2.5,5.5-5.79s-2.24-5.1-3.67-5.79c0,0,2.6-1.5,2.48-4.76-.12-4.38-4.17-5.41-5.55-5.41h-9.34"></path><polygon id="polygon3002" class="cls-8" points="46.21 24.27 50.83 24.27 50.83 11.74 64.53 25.08 64.53 2.52 59.93 2.52 59.93 14.72 46.21 1.64 46.21 24.27"></polygon><path id="path3004" class="cls-8" d="m83.85,13.15c.12,6.89,5.07,12.01,11.44,12.01,1.5,0,3.1-.29,4.72-.91v-4.43c-1.29.79-2.72,1.17-4.12,1.17-3.86,0-7.48-2.84-7.34-8.03.26-4.19,3.69-7.1,7.41-7.1,1.36,0,2.76.38,4.05,1.24V2.78c-1.5-.62-3-.88-4.46-.88-6.34.02-11.58,5.38-11.7,11.24"></path></g></g></svg> 