<?xml version="1.0" encoding="UTF-8"?> <svg xmlns="http://www.w3.org/2000/svg" xmlns:xlink="http://www.w3.org/1999/xlink" id="Layer_3" width="100" height="100" viewBox="0 0 100 100"><defs><style>.cls-1{fill:url(#linear-gradient);}.cls-1,.cls-2,.cls-3,.cls-4{stroke-width:0px;}.cls-2{fill:url(#linear-gradient-2);}.cls-3{fill:#a60c31;}.cls-4{fill:#fff;}</style><linearGradient id="linear-gradient" x1="0" y1="50" x2="100" y2="50" gradientUnits="userSpaceOnUse"><stop offset="0" stop-color="#818181"></stop><stop offset=".1" stop-color="#5d5c5c"></stop><stop offset=".28" stop-color="#a1a1a1"></stop><stop offset=".44" stop-color="#5c5b5b"></stop><stop offset=".54" stop-color="#cacaca"></stop><stop offset=".69" stop-color="#403f3f"></stop><stop offset=".84" stop-color="#d1d1d1"></stop><stop offset="1" stop-color="#5a5a5a"></stop></linearGradient><linearGradient id="linear-gradient-2" x1="3.41" y1="50" x2="96.59" y2="50" gradientUnits="userSpaceOnUse"><stop offset="0" stop-color="#818181"></stop><stop offset=".07" stop-color="#5d5c5c"></stop><stop offset=".26" stop-color="#a1a1a1"></stop><stop offset=".43" stop-color="#5c5b5b"></stop><stop offset=".55" stop-color="#cacaca"></stop><stop offset=".7" stop-color="#403f3f"></stop><stop offset=".87" stop-color="#d1d1d1"></stop><stop offset="1" stop-color="#5a5a5a"></stop></linearGradient></defs><path class="cls-1" d="m97.36,2c.35,0,.64.29.64.64v94.73c0,.35-.29.64-.64.64H2.64c-.35,0-.64-.29-.64-.64V2.64c0-.35.29-.64.64-.64h94.73m0-2H2.64C1.18,0,0,1.18,0,2.64v94.73c0,1.46,1.18,2.64,2.64,2.64h94.73c1.46,0,2.64-1.18,2.64-2.64V2.64c0-1.46-1.18-2.64-2.64-2.64h0Z"></path><rect class="cls-2" x="3.41" y="3.41" width="93.19" height="93.19"></rect><rect class="cls-3" x="5.37" y="5.37" width="89.26" height="89.26"></rect><path class="cls-4" d="m78.55,15.02c-3.52,2.7-7.06,5.43-10.02,5.87-2.7.65-19.22,1.95-18.06-5.61-1.84.15-2.88,2.31-2.87,4.19.6,8.16,11.2,6.54,17.66,7.34-6.67,8.34-12.52,16.98-17.81,25.92-4.2.8-4.75-4.4-4.03-5.83,0,0-2.77.77-3.84,3.8-1.3,3.19.17,8.57,4.69,8.87-4.47,7.86-9.82,20.73-20.78,18.16-3.67-.76-7.96-6.97-5.74-10.66,1.36-1.89-.66-3.22-2.97-.41-5.69,6.28-.2,18.81,11.72,18.06,12.81.28,21.46-15.64,26.12-25.1l12.15-1.91-.78,9.91c-1.53,24.65,16.21,15.14,16.21,15.14,2.46-1.12,5.05-3.81,4.99-6.96-.13-1.06-.72-.65-1.3-.35-6.27,3.23-10.97,2.56-11.47-1.34-.56-4.36-.26-10.51-.05-12.85.07-.85.34-3.63.5-4.46,2.14-.45,4.99-1.49,4.99,2.22,1.09-.55,3.06-2.18,3.4-3.9,1.89-8.92-7.46-6.58-7.46-6.58,2.28-10.54,4.73-21.75,9.95-31.01l-5.2-2.5h0Zm-7.48,14.88c-2.04,6.49-3.69,13.86-5.28,20.42l-9.19,1.12c4.58-7.33,7.09-14.11,14.47-21.54h0Z"></path></svg> 