<?xml version="1.0" encoding="UTF-8"?> <svg xmlns="http://www.w3.org/2000/svg" id="Layer_3" width="100" height="100" viewBox="0 0 100 100"><defs><style>.cls-1{fill:#fff;stroke-width:0px;}</style></defs><path class="cls-1" d="m97.36,2c.35,0,.64.29.64.64v94.73c0,.35-.29.64-.64.64H2.64c-.35,0-.64-.29-.64-.64V2.64c0-.35.29-.64.64-.64h94.73m0-2H2.64C1.18,0,0,1.18,0,2.64v94.73c0,1.46,1.18,2.64,2.64,2.64h94.73c1.46,0,2.64-1.18,2.64-2.64V2.64c0-1.46-1.18-2.64-2.64-2.64h0Z"></path><path class="cls-1" d="m56.6,51.44l9.19-1.12c1.58-6.56,3.24-13.93,5.28-20.42h0c-7.38,7.43-9.89,14.21-14.47,21.54Z"></path><path class="cls-1" d="m3.41,3.41v93.19h93.19V3.41H3.41Zm76.79,79.34s-17.74,9.51-16.21-15.14l.78-9.91-12.15,1.91c-4.67,9.46-13.31,25.39-26.12,25.1-11.92.75-17.4-11.78-11.72-18.06,2.31-2.81,4.33-1.48,2.97.41-2.22,3.69,2.06,9.9,5.74,10.66,10.96,2.58,16.31-10.3,20.78-18.16-4.51-.3-5.98-5.68-4.69-8.87,1.07-3.03,3.84-3.8,3.84-3.8-.71,1.43-.16,6.63,4.03,5.83,5.29-8.94,11.14-17.58,17.81-25.92-6.46-.8-17.06.82-17.66-7.34-.01-1.87,1.03-4.04,2.87-4.19-1.16,7.56,15.35,6.26,18.06,5.61,2.96-.44,6.5-3.18,10.02-5.87h0s5.2,2.5,5.2,2.5c-5.22,9.26-7.67,20.47-9.95,31.01,0,0,9.35-2.34,7.46,6.58-.34,1.73-2.32,3.35-3.4,3.9,0-3.72-2.85-2.67-4.99-2.22-.17.84-.43,3.61-.5,4.46-.21,2.34-.51,8.49.05,12.85.5,3.9,5.2,4.58,11.47,1.34.59-.3,1.17-.71,1.3.35.07,3.15-2.52,5.84-4.99,6.96Z"></path></svg> 