<?xml version="1.0" encoding="UTF-8"?> <svg xmlns="http://www.w3.org/2000/svg" id="Layer_1" width="600" height="400" viewBox="0 0 600 400"><defs><style>.cls-1{fill:#fff;stroke-width:0px;}</style></defs><path class="cls-1" d="m361.6,234.15v-68.3c0-.95.77-1.72,1.72-1.72h36.03c13.66,0,20.65,8.71,20.65,18.29,0,6.94-3.38,12.19-8.07,14.84-1.21.68-1.16,2.4.07,3.02,5.52,2.79,9.39,8.97,9.39,16.13,0,10.86-7.1,19.47-20.87,19.47h-37.22c-.95,0-1.72-.77-1.72-1.72Zm42.81-49.05c0-4.41-3.23-7.53-8.39-7.53h-17.42c-.95,0-1.72.77-1.72,1.72v11.61c0,.95.77,1.72,1.72,1.72h17.42c5.16,0,8.39-2.9,8.39-7.53Zm1.4,29.15c0-4.52-3.23-8.18-9.14-8.18h-18.07c-.95,0-1.72.77-1.72,1.72v12.9c0,.95.77,1.72,1.72,1.72h18.07c5.7,0,9.14-3.01,9.14-8.18Z"></path><path class="cls-1" d="m439.51,234.15v-68.3c0-.95.77-1.72,1.72-1.72h11.83c.95,0,1.72.77,1.72,1.72v68.3c0,.95-.77,1.72-1.72,1.72h-11.83c-.95,0-1.72-.77-1.72-1.72Z"></path><path class="cls-1" d="m492.94,234.15v-54.86c0-.95-.77-1.72-1.72-1.72h-17.53c-.95,0-1.72-.77-1.72-1.72v-10c0-.95.77-1.72,1.72-1.72h53.78c.95,0,1.72.77,1.72,1.72v10c0,.95-.77,1.72-1.72,1.72h-17.42c-.95,0-1.72.77-1.72,1.72v54.86c0,.95-.77,1.72-1.72,1.72h-11.94c-.95,0-1.72-.77-1.72-1.72Z"></path><path class="cls-1" d="m541.46,224.55l6.37-9.07c.59-.85,1.79-.99,2.55-.29,5.05,4.66,12.38,8.42,21.41,8.42,8.5,0,12.48-3.76,12.48-7.96,0-12.48-41.31-3.76-41.31-30.77,0-11.94,10.33-21.84,27.22-21.84,10.77,0,19.82,3.07,26.77,8.95.69.58.78,1.62.24,2.34l-6.44,8.64c-.57.77-1.69.94-2.43.33-5.63-4.58-12.77-6.7-19.54-6.7s-10.11,2.8-10.11,7.1c0,11.29,41.2,3.66,41.2,30.44,0,13.12-9.47,23.02-28.72,23.02-13.16,0-22.75-4.16-29.48-10.38-.63-.58-.71-1.54-.22-2.24Z"></path><path class="cls-1" d="m328.95,234.75l-3.68-9.91c-.25-.68-.9-1.12-1.62-1.12h-28.37c-.72,0-1.36.45-1.62,1.12l-3.68,9.91c-.25.68-.9,1.12-1.62,1.12h-13.61c-1.21,0-2.04-1.21-1.61-2.34l26.32-68.3c.26-.67.9-1.1,1.61-1.1h16.78c.71,0,1.35.44,1.61,1.1l26.32,68.3c.44,1.13-.4,2.34-1.61,2.34h-13.61c-.72,0-1.36-.45-1.62-1.12Zm-21.1-50.88l-8.73,24.09c-.41,1.12.43,2.31,1.62,2.31h17.46c1.2,0,2.03-1.19,1.62-2.31l-8.73-24.09c-.55-1.52-2.69-1.52-3.24,0Z"></path><path class="cls-1" d="m155.35,235.17l-30.58-41.83c-.98-1.35-3.12-.65-3.12,1.02v39.79c0,.95-.77,1.72-1.72,1.72h-11.83c-.95,0-1.72-.77-1.72-1.72v-68.3c0-.95.77-1.72,1.72-1.72h13.11c.55,0,1.06.26,1.39.7l29.61,40.15c.99,1.34,3.11.64,3.11-1.02v-38.11c0-.95.77-1.72,1.72-1.72h11.83c.95,0,1.72.77,1.72,1.72v68.3c0,.95-.77,1.72-1.72,1.72h-12.14c-.55,0-1.07-.26-1.39-.71Z"></path><path class="cls-1" d="m68.69,234.15v-68.3c0-.95.77-1.72,1.72-1.72h11.83c.95,0,1.72.77,1.72,1.72v68.3c0,.95-.77,1.72-1.72,1.72h-11.83c-.95,0-1.72-.77-1.72-1.72Z"></path><path class="cls-1" d="m-.12,234.15v-68.3c0-.95.77-1.72,1.72-1.72h47.33c.95,0,1.72.77,1.72,1.72v10c0,.95-.77,1.72-1.72,1.72H16.87c-.95,0-1.72.77-1.72,1.72v11.61c0,.95.77,1.72,1.72,1.72h26.61c.95,0,1.72.77,1.72,1.72v10c0,.95-.77,1.72-1.72,1.72h-26.61c-.95,0-1.72.77-1.72,1.72v26.35c0,.95-.77,1.72-1.72,1.72H1.6c-.95,0-1.72-.77-1.72-1.72Z"></path><path class="cls-1" d="m583.39,158.88v-8.74h-3.26v-1.17h7.85v1.17h-3.28v8.74h-1.31Z"></path><path class="cls-1" d="m590.67,158.88v-9.91h1.97l2.34,7.02c.22.65.37,1.14.47,1.47.11-.36.29-.89.53-1.59l2.37-6.89h1.76v9.91h-1.26v-8.29l-2.88,8.29h-1.18l-2.87-8.44v8.44h-1.26Z"></path><path class="cls-1" d="m200.07,184.64h10.98v-18.04c0-5.22-4.23-9.46-9.46-9.46h-1.52c-5.22,0-9.46,4.23-9.46,9.46v23.03s2.63-4.99,9.46-4.99Z"></path><path class="cls-1" d="m190.61,205.83v22.39c0,5.22,4.23,9.46,9.46,9.46h1.52c5.22,0,9.46-4.23,9.46-9.46v-18.04h-10.98c-7.16,0-9.46-4.35-9.46-4.35Z"></path><path class="cls-1" d="m249.35,210.18h-10.98v18.04c0,5.22,4.23,9.46,9.46,9.46h1.52c5.22,0,9.46-4.23,9.46-9.46v-21.75s-2.74,3.71-9.46,3.71Z"></path><path class="cls-1" d="m249.35,157.14h-1.52c-5.22,0-9.46,4.23-9.46,9.46v18.04h10.98c6.51,0,9.46,4.99,9.46,4.99v-23.03c0-5.22-4.23-9.46-9.46-9.46Z"></path><rect class="cls-1" x="211.04" y="187.19" width="27.33" height="20.44"></rect><path class="cls-1" d="m249.35,187.19h-8.43v20.44h8.43c5.22,0,9.46-4.23,9.46-9.46v-1.52c0-5.22-4.23-9.46-9.46-9.46Z"></path><path class="cls-1" d="m200.07,187.19c-5.22,0-9.46,4.23-9.46,9.46v1.52c0,5.22,4.23,9.46,9.46,9.46h8.42v-20.44h-8.42Z"></path></svg> 