<?xml version="1.0" encoding="UTF-8"?> <svg xmlns="http://www.w3.org/2000/svg" id="iQ_Media" width="600" height="400" viewBox="0 0 600 400"><defs><style>.cls-1{fill:#222;}.cls-1,.cls-2{stroke-width:0px;}.cls-2{fill:#b3d235;}</style></defs><g id="Layer_1"><path class="cls-1" d="m260.4,172.7c2.9-1.8,6.1-2.6,9.7-2.6,1.3,0,2.7.2,4.1.4,1.4.3,2.8.9,4.2,1.6,1.4.8,2.6,1.9,3.8,3.2s2.2,3,2.9,5.1c1.7-3.3,3.9-5.9,6.8-7.7s6.3-2.6,10.3-2.6c6.2,0,10.8,1.9,13.9,5.6,3.1,3.7,4.6,8.6,4.6,14.6v29.9h-7v-27.1c0-5.2-.9-9.3-2.9-12.4-1.9-3.1-5.2-4.7-9.7-4.7-2.6,0-4.7.5-6.5,1.5s-3.2,2.4-4.3,4.1-1.9,3.6-2.3,5.8-.7,4.4-.7,6.6v26h-7.1v-28.4c0-2.4-.2-4.5-.5-6.5-.4-1.9-.9-3.6-1.9-4.9-.9-1.4-2.1-2.4-3.6-3.1-1.5-.7-3.5-1.1-5.9-1.1-1.7,0-3.3.4-5,1.2s-3.2,1.9-4.6,3.5c-1.4,1.5-2.5,3.6-3.3,6-.9,2.4-1.2,5.3-1.2,8.5v25h-7.1v-38.1c0-1.3,0-3-.1-5.1s-.2-3.9-.3-5.6h6.8c.2,1.3.2,2.8.3,4.4.1,1.6.1,2.9.1,3.9h.2c1.3-2.9,3.5-5.2,6.3-7Z"></path><path class="cls-1" d="m383.6,194.2v1.5c0,.5,0,1.2-.1,1.8h-40.5c.1,2.4.5,4.7,1.5,6.9.9,2.2,2.2,4,3.8,5.6,1.6,1.6,3.5,2.9,5.6,3.8,2.2.9,4.5,1.4,7,1.4,3.7,0,6.9-.9,9.5-2.6,2.7-1.7,4.7-3.6,6.1-5.9l5.3,4.2c-2.9,3.7-6.1,6.3-9.7,8-3.5,1.6-7.3,2.4-11.3,2.4-3.6,0-7-.6-10-1.9s-5.7-3.1-8-5.4c-2.2-2.3-4-5-5.3-8.1s-1.9-6.6-1.9-10.2.6-7.1,1.9-10.2c1.2-3.1,3-5.9,5.2-8.1,2.2-2.3,4.9-4.1,7.8-5.4,3-1.3,6.3-1.9,9.7-1.9,3.8,0,7.2.6,10.1,1.9,2.9,1.3,5.3,3,7.3,5.2,1.9,2.2,3.4,4.7,4.4,7.7,1.1,2.9,1.6,6,1.6,9.3Zm-7.2-2.2c-.2-4.6-1.7-8.4-4.4-11.4-2.7-3-6.6-4.6-11.7-4.6-2.4,0-4.6.5-6.6,1.3-2,.9-3.8,2.1-5.3,3.6s-2.8,3.2-3.6,5.1c-.9,1.9-1.4,3.9-1.5,6h33.1Z"></path><path class="cls-1" d="m439,211.9c-2.1,3.1-4.8,5.5-8.1,7.1s-6.8,2.4-10.4,2.4c-3.8,0-7.3-.7-10.4-2s-5.7-3.1-8-5.4c-2.2-2.3-3.9-5-5.1-8.1s-1.9-6.5-1.9-10.1.6-7,1.9-10.1c1.2-3.1,2.9-5.9,5.1-8.1,2.2-2.3,4.9-4.1,8-5.4s6.6-2,10.4-2c3.6,0,7,.9,10.4,2.5,3.3,1.6,6,4,8.1,7.3h.2v-38.6h7.1v78.8h-7.1v-8.2h-.2v-.1Zm-36.2-16.2c0,2.7.4,5.3,1.2,7.7.9,2.4,2,4.5,3.6,6.3,1.5,1.8,3.5,3.2,5.8,4.2s4.9,1.5,7.8,1.5c2.7,0,5.2-.5,7.5-1.5s4.3-2.4,6-4.1,2.9-3.8,3.9-6.2c.9-2.4,1.4-5,1.4-7.8s-.5-5.4-1.4-7.8c-.9-2.4-2.2-4.5-3.9-6.3s-3.6-3.2-6-4.2c-2.3-1-4.8-1.5-7.5-1.5-2.9,0-5.6.5-7.8,1.5-2.3,1-4.3,2.5-5.8,4.3s-2.8,3.9-3.6,6.3c-.8,2.3-1.2,4.9-1.2,7.6Z"></path><path class="cls-1" d="m473.4,151.7c0,1.8-.6,3.2-1.9,4.3-1.2,1.2-2.6,1.7-4.2,1.7-1.5,0-2.9-.5-4.2-1.7-1.2-1.2-1.9-2.6-1.9-4.3s.6-3.2,1.9-4.3c1.2-1.2,2.6-1.7,4.2-1.7,1.5,0,2.9.5,4.2,1.7,1.3,1,1.9,2.5,1.9,4.3Zm-2.5,68.4h-7.1v-48.8h7.1v48.8Z"></path><path class="cls-1" d="m520.6,188.5c0-4.2-1.1-7.3-3.3-9.4-2.2-2.1-5.5-3.1-9.7-3.1-2.9,0-5.6.5-8.1,1.5s-4.6,2.5-6.3,4.2l-3.9-4.7c2-2,4.6-3.7,8-5,3.3-1.3,7-2,11.2-2,2.6,0,5.1.4,7.4,1.1,2.3.7,4.3,1.9,6,3.3,1.7,1.5,3.1,3.3,4.1,5.6,1,2.2,1.5,4.9,1.5,7.8v21.4c0,1.9.1,3.8.2,5.9.2,2,.3,3.7.6,5.1h-6.3c-.2-1.2-.4-2.5-.5-3.9-.2-1.4-.2-2.8-.2-4.1h-.2c-2.2,3.2-4.7,5.6-7.6,7-2.8,1.4-6.2,2.2-10.2,2.2-1.9,0-3.8-.2-5.8-.8s-3.8-1.4-5.4-2.6c-1.6-1.2-3-2.7-4.1-4.6-1.1-1.9-1.6-4.2-1.6-6.9,0-3.8.9-6.7,2.9-9,1.9-2.2,4.5-3.9,7.7-4.9,3.2-1.1,6.9-1.8,11-2.1,4.2-.3,8.4-.5,12.9-.5v-1.5h-.3Zm-2.1,7.2c-2.9,0-5.9.2-8.8.4-2.9.2-5.6.7-8,1.5-2.4.7-4.3,1.8-5.9,3.2-1.5,1.4-2.3,3.2-2.3,5.6,0,1.7.3,3.2,1,4.4s1.5,2.2,2.6,2.9,2.3,1.2,3.7,1.5,2.7.5,4.1.5c2.5,0,4.7-.5,6.6-1.3,1.9-.9,3.6-2.1,4.9-3.6s2.3-3.2,3-5.2,1.1-4,1.1-6.2v-3.6h-2v-.1Z"></path><path class="cls-2" d="m183.6,192.1c0-3.5-.5-6.7-1.6-9.8s-2.7-5.7-4.8-8-4.6-4.1-7.5-5.5c-2.9-1.3-6.3-2-9.9-2s-7,.7-9.9,2-5.5,3.2-7.6,5.5-3.7,4.9-4.9,8c-1.2,3-1.7,6.3-1.7,9.8s.5,6.9,1.7,10,2.7,5.8,4.8,8,4.6,4,7.5,5.3,6.3,2,9.9,2,6.8-.6,9.7-2c2.9-1.3,5.5-3.1,7.6-5.3s3.7-4.9,4.9-8,1.8-6.4,1.8-10Z"></path><path class="cls-2" d="m217.5,140H85.3c-7.3,0-13.3,6-13.3,13.3v76.3c0,7.3,6,13.3,13.3,13.3h83.6c7.9,11.7,36.7,18.2,37.5,17,.7-1.1-8.6-4.7-11.3-15h22.5c6.1,0,11.1-4.9,11.1-11.1v-82.7c-.2-6.1-5.1-11.1-11.2-11.1Zm-101.3,85.4h-8.7v-43.5h8.7v43.5Zm-.3-55.2c-1.2,1-2.5,1.5-4,1.5s-2.9-.5-4-1.6-1.6-2.4-1.6-3.9c0-1.6.5-2.9,1.6-4s2.4-1.6,4-1.6c1.5,0,2.9.5,4,1.6,1.2,1.1,1.7,2.4,1.7,4s-.5,3-1.7,4Zm82.1,55.2h-38.3c-4.9,0-9.5-.8-13.6-2.4-4.1-1.6-7.7-3.8-10.7-6.7s-5.3-6.3-7-10.4c-1.6-4.1-2.5-8.7-2.5-13.8s.9-9.4,2.6-13.5c1.7-4.1,4.1-7.6,7-10.5,3-2.9,6.6-5.3,10.7-6.9,4.1-1.6,8.7-2.5,13.5-2.5s9.3.9,13.4,2.5c4.1,1.6,7.7,3.9,10.7,6.9,3,2.9,5.3,6.4,7,10.5s2.6,8.6,2.6,13.5c0,5.8-1.2,10.9-3.6,15.2-2.5,4.3-5.7,7.8-9.7,10.3v.2h17.9v7.6Z"></path><path class="cls-2" d="m169.4,215.5c-2.9,1.4-6.2,2-9.7,2s-7-.7-9.9-2-5.4-3.1-7.5-5.3-3.6-4.9-4.8-8-1.7-6.4-1.7-10,.5-6.8,1.7-9.8c1.2-3.1,2.8-5.7,4.9-8,2.1-2.3,4.6-4.2,7.6-5.5s6.3-2,9.9-2,7,.7,9.9,2c2.9,1.4,5.4,3.2,7.5,5.5s3.7,4.9,4.8,8,1.6,6.3,1.6,9.8-.6,6.9-1.8,10-2.8,5.8-4.9,8c-2.1,2.2-4.7,3.9-7.6,5.3Z"></path></g></svg> 