<?xml version="1.0" encoding="UTF-8"?> <svg xmlns="http://www.w3.org/2000/svg" id="Layer_1" width="600" height="400" viewBox="0 0 600 400"><defs><style>.cls-1,.cls-2,.cls-3,.cls-4,.cls-5,.cls-6,.cls-7,.cls-8{stroke-width:0px;}.cls-2{fill:#fab515;}.cls-3{fill:#6461aa;}.cls-4{fill:#0db04b;}.cls-5{fill:#1688c9;}.cls-6{fill:#cb1e4f;}.cls-7{fill:#fff;}.cls-8{fill:#f27123;}</style></defs><g id="g3142"><g id="g4401"><path id="path2986" class="cls-7" d="m193.91,165.54c-2.44-6.15-8.48-12.74-19.67-11.86-14.3,1.55-18.78,15.24-16.62,23.38-5.71-3.82-15.4-5.54-23.83,1.66-10.92,10.92-5.1,25.65.94,29.2-6.59-.61-17.07,3.82-19.39,15.51-2.44,14.46,8.59,22.94,19.39,22.94h119.46c12.47,0,19.39-10.75,18.62-20.89-1.22-13.24-13.35-18.28-20-17.23,5.54-3.1,12.91-17.56,1.66-28.92-8.92-8.48-20.28-5.37-24.27-1.72,2.16-7.09-1.39-21.66-15.85-23.99-1-.11-1.94-.17-2.88-.17-11.08.11-16.01,8.14-17.56,12.08"></path><g id="g4393"><path id="path2988" class="cls-8" d="m135.79,181.11c-6.32,5.71-8.59,18.62,2.77,26.15l45.38,31.03-22.05-50.25c-4.6-11.86-17.18-14.46-26.1-6.93"></path><path id="path2990" class="cls-6" d="m174.79,156.68c-7.37.11-18.45,8.87-13.52,22.27l22.77,53.52,7.98-56.29c1.88-14.02-8.75-20.45-17.23-19.5"></path><path id="path2992" class="cls-3" d="m195.57,174.02h4.32s2.27,0,2.6,1.11c-1.72,1.39-6.32,1.55-5.71,8.92l7.26,48.43,22.61-53.63c4.6-11.97-5.1-22-13.69-22.27-.39-.06-.83-.06-1.22-.06-7.76-.06-16.62,5.54-16.18,17.51"></path><path id="path2994" class="cls-5" d="m225.71,188.48l-21.39,49.64,45.32-31.19c10.47-7.37,8.75-19.23,2.94-25.04-2.44-2.77-6.98-4.88-11.75-4.88-5.6-.06-11.64,2.94-15.13,11.47"></path><path id="path2996" class="cls-4" d="m244.61,213.97l-42.61,29.7h52.42c10.75,0,17.67-11.08,14.57-21.22-2.05-6.37-8.14-11.41-15.24-11.41-2.88,0-6.04.89-9.14,2.94"></path><path id="path2998" class="cls-2" d="m134.57,243.67h51.64l-42.61-29.7c-9.81-6.26-20.89-2.6-24.88,7.87-3.38,11.97,5.04,21.83,15.85,21.83"></path></g></g><g id="g4411"><path id="path3000" class="cls-1" d="m379.84,208.89h14.72c3.35.18,9.43,3.17,9.43,10.14,0,7.32-6.26,10.31-9.61,10.58h-14.54v-20.72m-.18-32.53h12.16c4.14.26,9.08,3.26,9.08,8.99s-3.7,9.26-8.55,9.96h-12.69v-18.95m-16.66-13.57v80.48h39.14c9.26,0,20.36-9.26,20.36-21.42s-8.29-18.86-13.57-21.42c0,0,9.61-5.55,9.17-17.63-.44-16.22-15.43-20.01-20.54-20.01h-34.55"></path><polygon id="polygon3002" class="cls-1" points="285.96 243.27 303.06 243.27 303.06 196.91 353.75 246.27 353.75 162.79 336.73 162.79 336.73 207.92 285.96 159.53 285.96 243.27"></polygon><path id="path3004" class="cls-1" d="m425.23,202.11c.44,25.48,18.78,44.43,42.31,44.43,5.55,0,11.46-1.06,17.45-3.35v-16.4c-4.76,2.91-10.05,4.32-15.25,4.32-14.28,0-27.68-10.49-27.15-29.71.97-15.51,13.66-26.27,27.41-26.27,5.02,0,10.23,1.41,14.99,4.58v-15.95c-5.55-2.29-11.11-3.26-16.48-3.26-23.45.09-42.84,19.92-43.28,41.61"></path></g></g></svg> 