<?xml version="1.0" encoding="UTF-8"?> <svg xmlns="http://www.w3.org/2000/svg" id="Layer_2" width="100" height="12.72" viewBox="0 0 100 12.72"><defs><style>.cls-1,.cls-2,.cls-3,.cls-4,.cls-5,.cls-6{stroke-width:0px;}.cls-2{fill:#351764;}.cls-3{fill:#308300;}.cls-4{fill:#36c4bf;}.cls-5{fill:#ffae00;}.cls-6{fill:#ff1781;}</style></defs><path class="cls-5" d="m31.62,4.75h1.73V1.49c0-.82-.67-1.49-1.49-1.49h-.24c-.82,0-1.49.67-1.49,1.49v4.75c0-.82.67-1.49,1.49-1.49Z"></path><path class="cls-5" d="m30.12,6.48v4.75c0,.82.67,1.49,1.49,1.49h.24c.82,0,1.49-.67,1.49-1.49v-3.25h-1.73c-.82,0-1.49-.67-1.49-1.49Z"></path><path class="cls-6" d="m39.4,7.97h-1.73v3.25c0,.82.67,1.49,1.49,1.49h.24c.82,0,1.49-.67,1.49-1.49v-4.75c0,.82-.67,1.49-1.49,1.49Z"></path><path class="cls-6" d="m39.4,0h-.24c-.82,0-1.49.67-1.49,1.49v3.25h1.73c.82,0,1.49.67,1.49,1.49V1.49c0-.82-.67-1.49-1.49-1.49Z"></path><rect class="cls-4" x="33.35" y="4.75" width="4.32" height="3.23"></rect><path class="cls-2" d="m39.4,4.75h-1.73v3.23h1.73c.82,0,1.49-.67,1.49-1.49v-.24c0-.82-.67-1.49-1.49-1.49Z"></path><path class="cls-3" d="m31.62,4.75c-.82,0-1.49.67-1.49,1.49v.24c0,.82.67,1.49,1.49,1.49h1.73v-3.23h-1.73Z"></path><path class="cls-1" d="m57.13,12.16V1.38c0-.15.12-.27.27-.27h5.69c2.16,0,3.26,1.38,3.26,2.89,0,1.1-.53,1.93-1.27,2.34-.19.11-.18.38.01.48.87.44,1.48,1.42,1.48,2.55,0,1.72-1.12,3.08-3.3,3.08h-5.88c-.15,0-.27-.12-.27-.27Zm6.76-7.75c0-.7-.51-1.19-1.33-1.19h-2.75c-.15,0-.27.12-.27.27v1.83c0,.15.12.27.27.27h2.75c.82,0,1.33-.46,1.33-1.19Zm.22,4.6c0-.71-.51-1.29-1.44-1.29h-2.85c-.15,0-.27.12-.27.27v2.04c0,.15.12.27.27.27h2.85c.9,0,1.44-.48,1.44-1.29Z"></path><path class="cls-1" d="m69.43,12.16V1.38c0-.15.12-.27.27-.27h1.87c.15,0,.27.12.27.27v10.79c0,.15-.12.27-.27.27h-1.87c-.15,0-.27-.12-.27-.27Z"></path><path class="cls-1" d="m77.87,12.16V3.5c0-.15-.12-.27-.27-.27h-2.77c-.15,0-.27-.12-.27-.27v-1.58c0-.15.12-.27.27-.27h8.49c.15,0,.27.12.27.27v1.58c0,.15-.12.27-.27.27h-2.75c-.15,0-.27.12-.27.27v8.66c0,.15-.12.27-.27.27h-1.89c-.15,0-.27-.12-.27-.27Z"></path><path class="cls-1" d="m85.53,10.65l1.01-1.43c.09-.13.28-.16.4-.05.8.74,1.96,1.33,3.38,1.33,1.34,0,1.97-.59,1.97-1.26,0-1.97-6.52-.59-6.52-4.86,0-1.89,1.63-3.45,4.3-3.45,1.7,0,3.13.49,4.23,1.41.11.09.12.26.04.37l-1.02,1.36c-.09.12-.27.15-.38.05-.89-.72-2.02-1.06-3.09-1.06s-1.6.44-1.6,1.12c0,1.78,6.51.58,6.51,4.81,0,2.07-1.5,3.64-4.54,3.64-2.08,0-3.59-.66-4.66-1.64-.1-.09-.11-.24-.03-.35Z"></path><path class="cls-1" d="m51.97,12.26l-.58-1.56c-.04-.11-.14-.18-.26-.18h-4.48c-.11,0-.22.07-.26.18l-.58,1.56c-.04.11-.14.18-.26.18h-2.15c-.19,0-.32-.19-.25-.37l4.16-10.79c.04-.11.14-.17.25-.17h2.65c.11,0,.21.07.25.17l4.16,10.79c.07.18-.06.37-.25.37h-2.15c-.11,0-.22-.07-.26-.18Zm-3.33-8.04l-1.38,3.8c-.06.18.07.36.26.36h2.76c.19,0,.32-.19.26-.36l-1.38-3.8c-.09-.24-.43-.24-.51,0Z"></path><path class="cls-1" d="m24.55,12.32l-4.83-6.61c-.16-.21-.49-.1-.49.16v6.28c0,.15-.12.27-.27.27h-1.87c-.15,0-.27-.12-.27-.27V1.38c0-.15.12-.27.27-.27h2.07c.09,0,.17.04.22.11l4.68,6.34c.16.21.49.1.49-.16V1.38c0-.15.12-.27.27-.27h1.87c.15,0,.27.12.27.27v10.79c0,.15-.12.27-.27.27h-1.92c-.09,0-.17-.04-.22-.11Z"></path><path class="cls-1" d="m10.87,12.16V1.38c0-.15.12-.27.27-.27h1.87c.15,0,.27.12.27.27v10.79c0,.15-.12.27-.27.27h-1.87c-.15,0-.27-.12-.27-.27Z"></path><path class="cls-1" d="m0,12.16V1.38c0-.15.12-.27.27-.27h7.47c.15,0,.27.12.27.27v1.58c0,.15-.12.27-.27.27H2.68c-.15,0-.27.12-.27.27v1.83c0,.15.12.27.27.27h4.2c.15,0,.27.12.27.27v1.58c0,.15-.12.27-.27.27H2.68c-.15,0-.27.12-.27.27v4.16c0,.15-.12.27-.27.27H.27c-.15,0-.27-.12-.27-.27Z"></path><path class="cls-1" d="m96.38,4.15v-1.89h-.71v-.25h1.7v.25h-.71v1.89h-.28Z"></path><path class="cls-1" d="m97.95,4.15v-2.14h.43l.51,1.52c.05.14.08.25.1.32.02-.08.06-.19.11-.34l.51-1.49h.38v2.14h-.27v-1.79l-.62,1.79h-.26l-.62-1.82v1.82h-.27Z"></path></svg> 