<?xml version="1.0" encoding="UTF-8"?> <svg xmlns="http://www.w3.org/2000/svg" id="iQ_Media" width="600" height="400" viewBox="0 0 600 400"><defs><style>.cls-1{stroke-width:0px;}</style></defs><path class="cls-1" d="m122.56,166.16h57.96l-35.91,55.3h35.91v12.53h-59.46l35.66-55.3h-34.17v-12.53Z"></path><path class="cls-1" d="m224.31,166c10.33,0,18.91,3.33,25.72,9.98,6.84,6.65,10.26,15.03,10.26,25.1s-3.46,17.9-10.39,24.37-15.65,9.71-26.18,9.71-18.68-3.28-25.52-9.84c-6.84-6.56-10.26-14.75-10.26-24.6s3.44-18.2,10.35-24.81c6.93-6.61,15.6-9.91,26.02-9.91Zm-.73,12.09c-6.45,0-11.73,2.11-15.86,6.33s-6.2,9.61-6.2,16.15,2.11,11.79,6.33,15.88c4.22,4.11,9.66,6.15,16.29,6.15s11.98-2.09,16.18-6.22c4.2-4.15,6.31-9.48,6.31-15.97s-2.18-11.77-6.56-15.99-9.87-6.33-16.5-6.33Z"></path><path class="cls-1" d="m307.63,166c10.33,0,18.91,3.33,25.72,9.98,6.84,6.65,10.26,15.03,10.26,25.1s-3.46,17.9-10.39,24.37c-6.93,6.47-15.65,9.71-26.18,9.71s-18.68-3.28-25.52-9.84c-6.84-6.56-10.26-14.75-10.26-24.6s3.44-18.2,10.35-24.81c6.93-6.61,15.6-9.91,26.02-9.91Zm-.73,12.09c-6.45,0-11.73,2.11-15.86,6.33-4.13,4.22-6.2,9.61-6.2,16.15s2.11,11.79,6.33,15.88c4.22,4.11,9.66,6.15,16.29,6.15s11.98-2.09,16.18-6.22c4.2-4.15,6.31-9.48,6.31-15.97s-2.18-11.77-6.56-15.99c-4.36-4.22-9.87-6.33-16.5-6.33Z"></path><path class="cls-1" d="m398.57,166.16h14.55l-29.97,69h-4.54l-30.68-69h14.69l18.31,41.74,17.65-41.74Z"></path><path class="cls-1" d="m478.08,201.25h-47.71c.34,6.49,2.52,11.66,6.52,15.49,4.02,3.83,9.18,5.76,15.54,5.76,8.86,0,17-2.75,24.48-8.26v13.13c-4.13,2.75-8.21,4.73-12.28,5.9s-8.81,1.77-14.27,1.77c-7.48,0-13.52-1.56-18.13-4.64-4.61-3.1-8.33-7.27-11.11-12.51-2.78-5.23-4.18-11.29-4.18-18.17,0-10.33,2.94-18.72,8.77-25.17,5.85-6.47,13.45-9.71,22.79-9.71s16.18,3.14,21.52,9.43c5.37,6.29,8.03,14.73,8.03,25.29v1.7h.02Zm-47.41-8.03h34.14c-.34-5.37-1.95-9.48-4.8-12.39-2.85-2.89-6.68-4.36-11.5-4.36s-8.77,1.45-11.84,4.36c-3.07,2.91-5.09,7.04-6.01,12.39Z"></path><path class="cls-1" d="m478.44,174.22v-6.82h-2.59v-1.19h6.54v1.19h-2.62v6.82h-1.33Zm4.84,0v-8.01h1.97l2.02,6.4,1.95-6.4h1.93v8.01h-1.22v-6.72l-2.07,6.72h-1.22l-2.16-6.82v6.82h-1.22Z"></path></svg> 