<?xml version="1.0" encoding="UTF-8"?> <svg xmlns="http://www.w3.org/2000/svg" id="Layer_1" width="100" height="24.53" viewBox="0 0 100 24.53"><defs><style>.cls-1{fill:#fff;stroke-width:0px;}</style></defs><g id="g3142"><g id="g4401"><g id="g4393"><path id="path2988" class="cls-1" d="m4.86,6.7c-1.72,1.55-2.34,5.07.75,7.13l12.36,8.45-6.01-13.69c-1.25-3.23-4.68-3.94-7.11-1.89"></path><path id="path2990" class="cls-1" d="m15.48.05c-2.01.03-5.03,2.42-3.68,6.07l6.2,14.58,2.17-15.34C20.69,1.54,17.79-.21,15.48.05"></path><path id="path2992" class="cls-1" d="m21.14,4.77h1.18s.62,0,.71.3c-.47.38-1.72.42-1.55,2.43l1.98,13.19,6.16-14.61C30.87,2.82,28.22.09,25.88.02c-.11-.02-.23-.02-.33-.02-2.11-.02-4.53,1.51-4.41,4.77"></path><path id="path2994" class="cls-1" d="m29.36,8.71l-5.83,13.53,12.35-8.5c2.85-2.01,2.39-5.24.8-6.82-.66-.75-1.9-1.33-3.2-1.33-1.52-.02-3.17.8-4.12,3.12"></path><path id="path2996" class="cls-1" d="m34.5,15.65l-11.61,8.09h14.28c2.93,0,4.82-3.02,3.97-5.78-.56-1.74-2.22-3.11-4.15-3.11-.78,0-1.65.24-2.49.8"></path><path id="path2998" class="cls-1" d="m4.52,23.75h14.07L6.98,15.65c-2.67-1.71-5.69-.71-6.78,2.14-.92,3.26,1.37,5.95,4.32,5.95"></path></g></g><g id="g4411"><path id="path3000" class="cls-1" d="m71.35,14.27h4.01c.91.05,2.57.86,2.57,2.76,0,1.99-1.71,2.81-2.62,2.88h-3.96v-5.64m-.05-8.86h3.31c1.13.07,2.47.89,2.47,2.45s-1.01,2.52-2.33,2.71h-3.46v-5.16m-4.54-3.7v21.93h10.66c2.52,0,5.55-2.52,5.55-5.84s-2.26-5.14-3.7-5.84c0,0,2.62-1.51,2.5-4.8-.12-4.42-4.2-5.45-5.6-5.45h-9.41"></path><polygon id="polygon3002" class="cls-1" points="45.77 23.64 50.43 23.64 50.43 11.01 64.24 24.45 64.24 1.71 59.6 1.71 59.6 14.01 45.77 .82 45.77 23.64"></polygon><path id="path3004" class="cls-1" d="m83.72,12.42c.12,6.94,5.12,12.1,11.53,12.1,1.51,0,3.12-.29,4.76-.91v-4.47c-1.3.79-2.74,1.18-4.15,1.18-3.89,0-7.54-2.86-7.4-8.09.26-4.23,3.72-7.16,7.47-7.16,1.37,0,2.79.38,4.08,1.25V1.98c-1.51-.62-3.03-.89-4.49-.89-6.39.02-11.67,5.43-11.79,11.34"></path></g></g></svg> 