<?xml version="1.0" encoding="utf-8"?>
<!-- Generator: Adobe Illustrator 22.0.1, SVG Export Plug-In . SVG Version: 6.00 Build 0)  -->
<svg version="1.1" id="Layer_1" xmlns="http://www.w3.org/2000/svg" xmlns:xlink="http://www.w3.org/1999/xlink" x="0px" y="0px"
	 viewBox="0 0 868.3 191.9" style="enable-background:new 0 0 868.3 191.9;" xml:space="preserve">
<style type="text/css">
	.st0{fill:#0088CF;}
	.st1{fill:#05B8F1;}
	.st2{fill:#00A0E3;}
</style>
<title>Bluecore Logo</title>
<g>
	<g>
		<g>
			<path class="st0" d="M307.8,111.4c0,12.8-10.4,23.3-23.3,23.3h-43.9V57.2h38.8c12.9,0,23.3,10.5,23.3,23.4
				c0,4.5-1.3,8.8-3.7,12.6C304.5,97.6,307.8,104.3,307.8,111.4z M284.5,119.2c4.3,0.2,7.9-3.2,8-7.5c0.2-4.3-3.2-7.9-7.5-8
				c-0.2,0-0.4,0-0.6,0H256v15.5H284.5z M279.3,88.2c4.3,0,7.8-3.5,7.8-7.8c0-4.3-3.5-7.8-7.8-7.8h-23.3v15.5L279.3,88.2L279.3,88.2
				z"/>
			<path class="st0" d="M324.5,57.2h15.5v62h41.4v15.5h-56.9V57.2z"/>
			<path class="st0" d="M461.7,101.1c0,18.6-15,33.6-33.6,33.6c-18.6,0-33.6-15-33.6-33.6v-44H410v44c-0.2,10,7.7,18.3,17.7,18.5
				S446,112,446.2,102c0-0.3,0-0.6,0-0.9v-44h15.5L461.7,101.1L461.7,101.1z"/>
			<path class="st0" d="M483.1,57.2H540v15.5h-41.3v15.5h31v15.5h-31v15.5H540v15.5h-56.9V57.2z"/>
			<path class="st0" d="M595.1,57.2c12.2,0,23.6,5.7,30.9,15.4l1.6,2.1l-12.3,9.4l-1.6-2.1c-4.4-5.9-11.3-9.3-18.6-9.3
				c-12.9,0-23.3,10.4-23.3,23.3s10.4,23.3,23.3,23.3l0,0c7.3,0,14.2-3.4,18.6-9.3l1.6-2.1l12.3,9.4l-1.5,2
				c-12.9,17.1-37.2,20.4-54.3,7.5s-20.4-37.2-7.5-54.3C571.5,62.9,582.9,57.2,595.1,57.2z"/>
			<path class="st0" d="M678.8,134.7c-21.4,0-38.8-17.4-38.8-38.8s17.4-38.8,38.8-38.8c21.4,0,38.8,17.4,38.8,38.8c0,0,0,0,0,0
				C717.6,117.4,700.2,134.7,678.8,134.7z M655.5,95.9c0,12.9,10.4,23.3,23.3,23.3c12.9,0,23.3-10.4,23.3-23.3
				c0-12.9-10.4-23.3-23.3-23.3C665.9,72.7,655.5,83.1,655.5,95.9z"/>
			<path class="st0" d="M793.8,134.7h-18.5L761.7,114h-12.2v20.7H734V57.2h28.5c15.7,0,28.4,12.8,28.4,28.5
				c0,9.8-5.1,18.9-13.4,24.1L793.8,134.7z M762.4,98.5c7.1,0,12.9-5.8,12.9-12.9s-5.8-12.9-12.9-12.9h-12.9v25.8L762.4,98.5
				L762.4,98.5z"/>
			<path class="st0" d="M811.5,57.2h56.9v15.5H827v15.5h31v15.5h-31v15.5h41.4v15.5h-56.9V57.2z"/>
		</g>
		<path class="st0" d="M86.7,134.7c-21.4,0-38.8-17.4-38.8-38.8c0-6.8,1.8-13.5,5.2-19.4L3.6,48C1.4,51.6,0.2,55.7,0,59.9V132
			c0.2,4.2,1.4,8.3,3.6,11.9c2,3.7,5,6.8,8.6,9L74.6,189c3.7,2,7.9,3,12.1,2.9V134.7L86.7,134.7L86.7,134.7z"/>
		<path class="st1" d="M169.8,48l-49.5,28.6c10.7,18.5,4.3,42.3-14.2,53c-5.9,3.4-12.6,5.2-19.4,5.2v57.2c4.2,0.1,8.4-0.9,12.1-2.9
			l62.5-36c7.1-4.7,11.6-12.5,12.1-21V59.9C173.2,55.7,172,51.6,169.8,48z"/>
		<path class="st2" d="M86.7,57.2c13.8,0,26.6,7.4,33.6,19.4L169.8,48c-2-3.7-5-6.8-8.6-9L98.8,2.9c-3.7-2-7.9-3-12.1-2.9
			c-4.2-0.1-8.4,0.9-12.1,2.9L12.1,38.9c-3.6,2.2-6.5,5.3-8.6,9l49.5,28.6C60,64.6,72.8,57.2,86.7,57.2z"/>
		<path class="st2" d="M53.1,76.6c-10.7,18.5-4.3,42.3,14.2,53c5.9,3.4,12.6,5.2,19.4,5.2l0,0V96L53.1,76.6z"/>
		<path class="st0" d="M86.7,134.7c21.4,0,38.8-17.4,38.8-38.8c0-6.8-1.8-13.5-5.2-19.4L86.7,96V134.7L86.7,134.7z"/>
		<path class="st1" d="M86.7,57.2c-13.9,0-26.7,7.4-33.6,19.4L86.7,96l33.6-19.4C113.3,64.6,100.5,57.2,86.7,57.2z"/>
	</g>
</g>
</svg>
