<?xml version="1.0" encoding="utf-8"?>
<!-- Generator: Adobe Illustrator 22.1.0, SVG Export Plug-In . SVG Version: 6.00 Build 0)  -->
<svg version="1.1" id="Layer_2_1_" xmlns="http://www.w3.org/2000/svg" xmlns:xlink="http://www.w3.org/1999/xlink" x="0px" y="0px"
	 viewBox="0 0 221.61 65.48" style="enable-background:new 0 0 221.61 65.48;" xml:space="preserve">
<style type="text/css">
	.st0{fill:#FFFFFF;}
</style>
<path class="st0" d="M142.07,40.83c-3.63,0-6.68-1.54-8.65-4.36c-0.13-0.18-0.07-0.43,0.11-0.55l2.95-1.91
	c0.18-0.12,0.41-0.06,0.54,0.11c1.16,1.6,2.86,2.41,5.05,2.41c0.73,0,4.39-0.13,4.46-2.65c0.01-0.52-0.17-0.78-0.33-0.95
	c-0.45-0.46-1.36-0.75-2.39-0.75h-2.69c-2.63,0-4.74-0.75-6.11-2.16c-1.12-1.16-1.69-2.69-1.64-4.44c0.09-3.22,3.18-6.48,8.91-6.48
	c3.56,0,6.6,1.83,8.1,3.64c0.14,0.18,0.11,0.44-0.08,0.57l-2.86,2.06c-0.16,0.11-0.38,0.1-0.51-0.05c-0.71-0.76-2.43-1.93-4.66-1.93
	c-3.14,0-4.59,1.35-4.62,2.31c-0.02,0.86,0.32,1.21,0.43,1.32c0.53,0.55,1.64,0.86,3.04,0.86h2.69c2.24,0,4.18,0.73,5.47,2.05
	c1.05,1.08,1.59,2.49,1.54,4.06C150.69,38.73,146.33,40.83,142.07,40.83"/>
<path class="st0" d="M27.6,25.37c1.23-1.23,2.86-1.91,4.6-1.91c1.74,0,3.37,0.68,4.6,1.91s1.9,2.86,1.9,4.6s-0.68,3.37-1.9,4.6
	c-1.23,1.23-2.86,1.91-4.6,1.91c-1.73,0-3.37-0.68-4.6-1.91c-1.23-1.23-1.9-2.86-1.9-4.6C25.7,28.24,26.37,26.6,27.6,25.37
	 M26.66,54.15l-0.03-0.02c-0.73-0.7-1.2-1.63-1.33-2.63c-0.01-0.13-0.02-0.25-0.02-0.37c0-2.44,1.75-4.24,4.26-4.39
	c0.13-0.01,0.23-0.01,0.33-0.01l4.38-0.01c0.24,0,0.71,0,0.73,0.01c2.46,0.13,4.08,1.83,4.12,4.34c-0.06,1.47-0.83,2.82-2.07,3.61
	L37,54.7c-0.17,0.11-0.33,0.19-0.48,0.27c-1.21,0.63-2.74,0.98-4.32,0.98c-1.54,0-3.05-0.33-4.25-0.94L27.93,55
	c-0.45-0.21-0.86-0.48-1.22-0.81C26.7,54.18,26.68,54.16,26.66,54.15 M39.69,44.37c-0.58-0.43-1.2-0.77-1.86-1.02
	c-0.96-0.37-1.87-0.55-2.77-0.55c-0.06,0-6.2,0-6.4,0c-0.52-0.01-0.87-0.21-1.11-0.38c-0.31-0.21-0.53-0.59-0.62-0.85
	c-0.17-0.49-0.04-1.04,0.36-1.42l0.36-0.32c1.43,0.66,2.96,1,4.54,1c5.97,0,10.83-4.87,10.83-10.85s-4.86-10.85-10.83-10.85
	S21.36,24,21.36,29.98c0,2.64,0.96,5.18,2.7,7.16c0.01,0.01,0.01,0.01,0.02,0.02l0.01,0.01c0.1,0.13,0.12,0.32,0.05,0.49
	c-0.04,0.1-0.1,0.2-0.18,0.3c-0.94,1.24-1.24,2.67-0.92,4.37c0.14,0.76,0.47,1.45,1.05,2.16l0.18,0.23
	c-1.77,1.51-2.82,3.73-2.89,6.08v0.06c0,0.04,0,0.08,0,0.12c0,0.38,0.02,0.77,0.07,1.16c0.1,0.72,0.28,1.42,0.55,2.08
	c0.66,1.61,1.83,2.99,3.3,3.89c0.43,0.26,0.88,0.48,1.34,0.65c1.18,0.49,2.49,0.81,3.89,0.96c0.58,0.06,1.15,0.09,1.7,0.09
	c2.2,0,4.3-0.44,6.07-1.27c0.02-0.01,0.04-0.02,0.07-0.03l0.09-0.05c0.04-0.02,0.09-0.04,0.13-0.07c1.78-0.91,3.16-2.45,3.89-4.35
	c0.37-0.96,0.56-1.98,0.56-3.02C43.02,48.4,41.78,45.91,39.69,44.37"/>
<path class="st0" d="M186.02,19.12c-5.98,0-10.83,4.86-10.83,10.85s4.85,10.85,10.83,10.85s10.83-4.86,10.83-10.85
	S192,19.12,186.02,19.12 M186.02,23.36c3.64,0,6.6,2.97,6.6,6.61s-2.96,6.61-6.6,6.61s-6.6-2.96-6.6-6.61
	C179.42,26.33,182.38,23.36,186.02,23.36"/>
<path class="st0" d="M71.14,36.57c-3.63,0-6.58-2.96-6.58-6.59c0-3.64,2.95-6.6,6.58-6.6c3.63,0,6.59,2.96,6.59,6.6
	C77.72,33.61,74.77,36.57,71.14,36.57 M81.96,30.37c0-0.13,0.01-0.27,0.01-0.4c0-5.99-4.85-10.85-10.84-10.85
	c-5.98,0-10.83,4.86-10.83,10.85s4.85,10.85,10.83,10.85c2.4,0,4.62-0.78,6.41-2.11l0,0l0.01-0.01c0.02-0.01,0.04-0.02,0.06-0.02
	c0.07,0,0.12,0.05,0.12,0.12v0.01v1.71c0,0.16,0.13,0.3,0.3,0.3h3.64c0.16,0,0.3-0.13,0.3-0.3C81.97,40.53,81.96,30.39,81.96,30.37"
	/>
<path class="st0" d="M95.52,36.54c-3.63,0-6.58-2.95-6.58-6.58s2.95-6.58,6.58-6.58c3.63,0,6.57,2.95,6.57,6.58
	S99.14,36.54,95.52,36.54 M95.52,19.12c-5.98,0-10.82,4.85-10.82,10.83c0,0.13,0.01,0.27,0.01,0.4c0,0.02-0.01,0.04-0.01,0.06V50.2
	c0,0.16,0.13,0.3,0.3,0.3h3.63c0.16,0,0.3-0.13,0.3-0.3V38.8v-0.01v-0.01c0-0.07,0.05-0.12,0.12-0.12c0.02,0,0.04,0,0.06,0.02h0.01
	l0,0c1.79,1.32,4.01,2.1,6.4,2.1c5.97,0,10.82-4.85,10.82-10.83C106.34,23.97,101.49,19.12,95.52,19.12"/>
<path class="st0" d="M172.41,28.35c-0.12-5.12-4.29-9.23-9.43-9.23c-1.89,0-3.65,0.56-5.12,1.51V9.73c0-0.15-0.13-0.28-0.28-0.28
	h-3.75c-0.16,0-0.28,0.13-0.28,0.28v18.83l0,0v11.99c0,0.15,0.13,0.28,0.28,0.28h3.75c0.16,0,0.28-0.13,0.28-0.28V28.52
	c0.02-2.81,2.31-5.09,5.12-5.09s5.1,2.28,5.12,5.09v12.03c0,0.15,0.13,0.28,0.28,0.28h3.75c0.16,0,0.28-0.13,0.28-0.28V28.37
	C172.41,28.36,172.41,28.36,172.41,28.35"/>
<path class="st0" d="M55.51,19.14c-5.4,0-9.78,4.38-9.8,9.79v11.56c0,0.16,0.13,0.29,0.29,0.29h3.89c0.16,0,0.29-0.13,0.29-0.29
	V28.94c0.01-2.93,2.39-5.32,5.32-5.32c0.98,0,1.9,0.27,2.69,0.73c0.13,0.08,0.3,0.05,0.39-0.08l2.23-3.2
	c0.1-0.14,0.06-0.33-0.08-0.42C59.23,19.69,57.43,19.14,55.51,19.14"/>
<path class="st0" d="M214.54,38.91l-2.23-3.19c-0.09-0.13-0.26-0.16-0.39-0.08c-0.79,0.46-1.7,0.73-2.68,0.73
	c-2.92,0-5.3-2.38-5.3-5.3V23.4h7.69c0.16,0,0.29-0.13,0.29-0.29v-3.72c0-0.16-0.13-0.3-0.29-0.3h-7.69V9.74
	c0-0.16-0.13-0.29-0.29-0.29h-3.88c-0.16,0-0.29,0.13-0.29,0.29v21.33c0.01,5.39,4.38,9.76,9.77,9.76c1.92,0,3.71-0.55,5.22-1.51
	C214.6,39.23,214.64,39.04,214.54,38.91"/>
<path class="st0" d="M113.58,27.92c0.86-2.64,3.34-4.55,6.26-4.55s5.4,1.91,6.26,4.55C126.1,27.92,113.58,27.92,113.58,27.92z
	 M130.68,29.96c0-6.25-5.27-11.26-11.6-10.82c-5.34,0.37-9.67,4.7-10.04,10.05c-0.44,6.34,4.57,11.62,10.81,11.62
	c4.06,0,7.57-2.21,9.43-5.53l0,0c0.02-0.03,0.04-0.06,0.05-0.09c0.04-0.08,0.04-0.17-0.01-0.24c-0.04-0.07-0.12-0.12-0.21-0.12
	h-4.74c-0.06,0-0.12,0.02-0.16,0.06c-0.1,0.09-0.21,0.17-0.33,0.26l0,0c-1.12,0.87-2.51,1.4-4.03,1.4c-2.98,0-5.5-2-6.31-4.72h14.25
	h2.48c0.13,0,0.24-0.09,0.27-0.22c0.08-0.44,0.14-0.75,0.14-1.05c0-0.04,0.01-0.07,0.01-0.07
	C130.67,30.31,130.68,30.14,130.68,29.96"/>
<path class="st0" d="M21.37,12.6c0,3.6-2.91,6.52-6.51,6.52c-3.59,0-6.51-2.92-6.51-6.52s2.91-6.51,6.51-6.51
	C18.46,6.08,21.37,9,21.37,12.6"/>
</svg>
