<?xml version="1.0" encoding="utf-8"?>
<!-- Generator: Adobe Illustrator 22.1.0, SVG Export Plug-In . SVG Version: 6.00 Build 0)  -->
<svg version="1.1" xmlns="http://www.w3.org/2000/svg" xmlns:xlink="http://www.w3.org/1999/xlink" x="0px" y="0px"
	 viewBox="0 0 2000 1000" style="enable-background:new 0 0 2000 1000;" xml:space="preserve">
<style type="text/css">
	.st0{fill:#287A9A;}
	.st1{fill:#292663;}
	.st2{opacity:0.5;fill:#00A653;}
	.st3{fill:none;}
	.st4{fill:#323376;}
	.st5{fill:#008DD2;}
	.st6{fill:#ED1C24;}
	.st7{fill:#3FBAEB;}
	.st8{fill:#FFFFFF;}
	.st9{fill:#254DB0;}
	.st10{fill:#A7A9AC;}
	.st11{fill:#F13224;}
	.st12{fill:#FF6200;}
	.st13{fill:#546AB2;}
	.st14{fill:#F4F4F4;}
</style>
<g id="Water">
	<rect y="0" class="st0" width="2000" height="1000"/>
</g>
<g id="Ground_1_">
	<path class="st1" d="M333.95,0c-1.26,9.32-2.83,19.19-2.83,19.19l-7.25,3.75c0,0-60.25-10.25-102.75-17
		C210.54,4.26,197.35,2.18,183.5,0H85.64l-3.02,44.19l239.75,30.5l-2.75,37.25l39.25,5.75l5,2l2,5.75l-13,110.25l-11.5,2.75
		l-5.75,2.75l-7,48.25l-85-14l-151.25-16.5l-11,32.25l240.5,35.5l2,4l14,1.75v8.5l-2.5,11c0,0-4.5,6.75-4.25,7.75s-6,25.75-6,25.75
		l-5,6.75l-85-2l-69-8.5l-17.75-0.25l-1.5,4.5l-109-4.25l-1,6.75l55.5,4.75c0,0-2.5,11.75-1.5,12s32.25,1,32.25,1l0.5-2.75
		l23.5-0.75l-3.25,50c0,0-69.75-4.25-74-4.5s-4,8-4.5,12.25s-3.25,47.75-3.25,47.75l75.75,4.25c0,0-1.75,45-1.75,53.25
		s9,8.75,19.5,9.25s82.5,3,86,4s6,2.25,6,2.25l-6.25,92.25c0,0-50.5-3-56.5-3.25s-9,4.75-5.5,9.75s3.5,5,3.5,5l0.75,20.75
		c0,0-2.25,2.25-1.75,4s2.25,3.25,6.25,3.25s49.5,1.75,49.5,1.75l5.25-2L224.06,1000H2000V0H333.95z"/>
</g>
<g id="Grass">
	<polygon class="st2" points="1060,760.75 1160.75,815.75 1117.25,896.75 	"/>
	<polygon class="st2" points="995.33,627 963.33,554 950,576.33 905.33,627 	"/>
	<polygon class="st2" points="723.67,548 713.67,626.33 821.33,626.67 822,546.67 	"/>
	<polygon class="st2" points="774,777.33 693,778.33 687.33,831.33 708.67,855.67 	"/>
	<polygon class="st2" points="743.67,971.67 669,985.67 682,889.33 708.67,855.67 724.33,879 	"/>
	<polygon class="st2" points="241.31,681.52 187,678.44 190.25,684.75 190.25,705.08 240.02,706.83 	"/>
	<polygon class="st2" points="1770.67,255.67 1749.67,243.67 1729.33,281 1751.33,292.67 	"/>
	<polygon class="st2" points="1034.67,236 1068,253.33 1041.67,300.33 1044.67,302 1040.67,309.33 1005,290.33 	"/>
	<polygon class="st2" points="443.33,553 459.67,553 468.67,429.33 476.33,412 504.33,235.67 506.67,225 505.33,219.67 511,186.67 
		537,133.67 522.33,126 494.67,177.67 455,421 	"/>
	<polygon class="st2" points="415.67,162 439,181 466,172.67 472.67,168.67 497,125 427.67,84.33 	"/>
	<g>
		<polygon class="st2" points="581.4,0 559.89,0 571.67,7 568,46 549.33,12.67 545.33,20 554,37 543.33,57.33 575.33,75.33 
			584,54.67 584,25.67 589.33,17 585.33,13.67 		"/>
	</g>
</g>
<g id="Thin_Roads">
	<g>
		<path class="st3" d="M738.93,920.24c1.63,8.4,5.09,25,9.44,45.49l143.14-26.21l-15.29-72.29l-144.49,26.53
			C734.48,901.45,736.98,910.24,738.93,920.24z"/>
		<polygon class="st3" points="600.98,919.7 453,946.25 449.4,1000 561.2,1000 586.68,995.34 		"/>
		<path class="st3" d="M701.17,856.83c-5.34-5.33-10.57-13.16-14.14-19.02c-3.24,7.63-9.6,17.31-21,17.31
			c-0.81,0-1.64-0.05-2.49-0.15c-13.16-1.55-33.13-3.72-41.29-4.6l-11.24,59.4l65.29-11.71l1.41,7.88l-68.29,12.25l-14.3,75.6
			l145.38-26.62c-4.33-20.44-7.78-37-9.42-45.4C724.84,889.7,711.54,867.2,701.17,856.83z"/>
		<path class="st3" d="M624.15,772.46l68.88,0.54l163.99-0.98l0.27-62.28c-70.4-0.5-153.61-1.07-232.23-1.58
			C624.77,730.25,624.45,752.48,624.15,772.46z"/>
		<path class="st3" d="M627.89,546.26c16.03-0.31,31.63-0.61,46.53-0.89l-39.63-21.08C631.45,531.82,629.27,539.14,627.89,546.26z"
			/>
		<path class="st3" d="M626.65,554.28c-1.04,8.83-1.01,17.34-0.66,25.54c0.22,5.08,0.2,20.54,0.04,41.64
			c81.32,0.13,166.26,0.27,231.64,0.37l0.31-71.23l-11.68-6.58c-3.44,2.32-13.11,6.97-35.3,6.97
			C800.73,551,721.03,552.47,626.65,554.28z"/>
		<path class="st3" d="M693.02,781l-68.99-0.54c-0.44,29.47-0.82,52.95-0.97,61.96c8.15,0.88,28.2,3.06,41.41,4.61
			c13.1,1.56,17.57-19.6,17.61-19.82l2.22-10.95l5.23,9.87c0.09,0.17,8.83,16.58,17.29,25.04c3.86,3.86,14.23,15.58,22.89,37.27
			l-0.44-2.37l145.27-26.67l-16.79-79.37L693.02,781z"/>
		<path class="st3" d="M857.64,629.84c-65.39-0.1-150.34-0.24-231.67-0.37c-0.18,20.54-0.47,45.33-0.8,70.69
			c78.58,0.5,161.72,1.08,232.16,1.58L857.64,629.84z"/>
		<path class="st3" d="M750.02,973.55c1.78,8.39,3.68,17.29,5.64,26.45H904.3l-11.14-52.66L750.02,973.55z"/>
		<path class="st3" d="M1206.05,742.5l-183.67-104.81c-3.06-0.97-25.3-7.68-51.38-7.68c-7.02,0-47.83-0.06-105.36-0.15l-0.31,71.95
			c89.18,0.64,156.3,1.14,164.71,1.2l-0.06,8c-2.13-0.02-71.19-0.54-164.68-1.2l-0.27,61.83l188.84-16.72l1.07,0.59l444.2,244.5
			h172.51l-201.57-110.49L1206.05,742.5z"/>
		<polygon class="st3" points="1038.4,920.74 901.03,945.9 912.47,1000 1005.42,1000 1053.55,990.96 		"/>
		<path class="st3" d="M605.61,1000h141.87c-1.85-8.65-3.64-17.06-5.33-25L605.61,1000z"/>
		<polygon class="st3" points="865.85,779.59 882.42,857.95 1083.28,821.07 1084.72,828.93 1028.99,839.17 1044.59,911.48 
			1124.69,896.81 1310.52,1000 1482.54,1000 1052.14,763.09 		"/>
		<polygon class="st3" points="1046.27,919.3 1061.43,989.56 1152.37,975.05 1153.63,982.95 1063.12,997.39 1063.68,1000 
			1294.04,1000 1123.31,905.19 		"/>
		<polygon class="st3" points="1048.73,1000 1055.5,1000 1055.23,998.78 		"/>
		<polygon class="st3" points="1036.71,912.92 1021.12,840.61 884.08,865.78 899.37,938.07 		"/>
		<path class="st3" d="M466.24,629.21C391.71,629.08,339.21,629,336,629c-5.54,0-6.75,3.53-7.78,14.85
			c-0.08,0.85-0.16,1.7-0.24,2.55c-1.05,10.47-2.98,35.08-2.98,42.6c0,2.8,0.74,4.8,2.32,6.31c3.02,2.87,9.4,4.15,18.48,3.7
			c5.08-0.26,50.5-0.13,115.75,0.2L466.24,629.21z"/>
		<path class="st3" d="M616.02,780.39l-151.82-1.2l-4.31,64.34l155.18-1.5C615.21,833.12,615.58,809.75,616.02,780.39z"/>
		<path class="st3" d="M616.14,772.39c0.3-19.97,0.62-42.2,0.91-64.28c-53.64-0.34-104.84-0.65-148.03-0.87l-4.29,63.96
			L616.14,772.39z"/>
		<polygon class="st3" points="614.16,850.05 459.35,851.55 453.55,938.03 602.58,911.29 		"/>
		<path class="st3" d="M632.52,511.03c5.34-9.44,21.1-37.01,37.77-66.12l-144.91-78.49l-37,70.92l142.87,76
			C631.66,512.57,632.08,511.8,632.52,511.03z"/>
		<path class="st3" d="M638.31,517.1l49.57,26.37l-0.89,1.66C753.11,543.89,803,543,811,543c14.24,0,22.51-2.02,26.92-3.7
			l-160.62-90.54c-16.69,29.15-32.49,56.76-37.82,66.2C639.08,515.68,638.69,516.39,638.31,517.1z"/>
		<path class="st3" d="M627.7,520.52l-141.13-75.08l-6.95,103.7c45.74-0.9,94.45-1.85,140.08-2.73
			C621.18,538.07,623.67,529.45,627.7,520.52z"/>
		<path class="st3" d="M617.97,629.45c-26.95-0.04-53.43-0.09-78.56-0.13c-22.88-0.04-44.77-0.07-65.15-0.11l-4.69,70.02
			c43.12,0.22,94.16,0.53,147.6,0.87C617.49,674.74,617.79,649.96,617.97,629.45z"/>
		<path class="st3" d="M618.03,621.45c0.16-20.99,0.18-36.34-0.03-41.28c-0.36-8.27-0.4-16.84,0.56-25.74
			c-45.49,0.88-93.97,1.82-139.48,2.72l-4.3,64.07c20.23,0.03,41.95,0.07,64.63,0.11C564.57,621.37,591.06,621.41,618.03,621.45z"/>
		<polygon class="st4" points="2000,73.52 2000,64.36 1884.42,0 1867.98,0 		"/>
		<polygon class="st4" points="2000,290.39 2000,281.22 1497.78,0 1481.41,0 		"/>
		<polygon class="st4" points="2000,388.13 2000,378.98 1317.84,0 1301.36,0 		"/>
		<polygon class="st4" points="2000,481.63 2000,472.48 1147.62,0 1131.12,0 		"/>
		<polygon class="st4" points="2000,577.48 2000,568.32 981.02,0 964.6,0 		"/>
		<polygon class="st4" points="2000,672.11 2000,662.96 807.79,0 791.33,0 		"/>
		<polygon class="st4" points="2000,766.51 2000,757.35 640.47,0 624.04,0 		"/>
		<polygon class="st4" points="2000,858.61 2000,849.46 469.07,0 452.58,0 		"/>
		<polygon class="st4" points="407.06,78.5 2000,963.14 2000,953.99 410.94,71.5 		"/>
		<path class="st4" d="M1209.98,735.53l-184-105l-0.34-0.2l-0.38-0.12c-1-0.33-24.95-8.21-54.26-8.21
			c-7.01,0-47.81-0.06-105.33-0.15l0.29-66.74l68.07,38.37l3.93-6.97L681.28,441.82c22.27-38.87,44.78-78.12,45.19-78.83l-6.94-3.98
			c-0.41,0.71-22.97,40.04-45.26,78.96l-145.19-78.64l41.47-79.48l-7.09-3.7l-41.41,79.37l-107.14-58.03l-3.81,7.03l107.25,58.09
			l-37.03,70.97l-90.44-48.11l-3.76,7.06l91.71,48.79L471.6,549.3c-98.45,1.94-181.21,3.59-186.45,3.7L267,551.32L249.17,553
			c-4.3-0.06-69.76-1.01-78.36-1.33c-3.11-0.12-6.12-0.37-7.09-1.44c-0.65-0.71-1.36-2.68-1.06-8.01
			c0.21-3.79,1.03-15.94,2.06-31.31c2.27-33.87,5.39-80.27,5.61-90.15c0.22-9.57,2.69-9.53,7.62-9.44c0.47,0.01,0.93,0.02,1.38,0.02
			c5.73,0,14.39,0,37.78-0.67c24.17-0.69,60.65,0.45,83.62,3.96c8.29,1.27,11.86,3.48,12.4,4.99c0.39,1.08-0.75,2.66-1.05,2.99
			l-0.25,0.27l-0.19,0.3c-0.03,0.05-3.13,4.78-14.38,18.28c-6.53,7.84-9.09,14.85-7.6,20.83c1.11,4.46,4.48,8.05,9.49,10.1
			c7.97,3.26,26.98-2.39,30.71-3.55l-2.38-7.64c-7.9,2.46-21.41,5.37-25.29,3.78c-1.83-0.75-4.14-2.16-4.75-4.62
			c-0.82-3.28,1.31-8.17,5.98-13.78c10.29-12.35,13.96-17.58,14.77-18.79c1.05-1.23,4.3-5.6,2.52-10.76
			c-1.82-5.28-7.96-8.65-18.76-10.3c-23.44-3.58-60.53-4.75-85.05-4.04c-23.28,0.66-31.87,0.66-37.55,0.66
			c-0.41,0-0.82-0.01-1.24-0.01c-5.37-0.1-15.36-0.27-15.75,17.26c-0.22,9.71-3.46,57.9-5.6,89.8c-1.03,15.4-1.85,27.57-2.06,31.41
			c-0.38,6.87,0.56,11.01,3.14,13.84c3.11,3.42,7.79,3.86,12.71,4.05c8.94,0.33,75.91,1.29,78.76,1.34l0.22,0l17.51-1.65l17.85,1.65
			l0.23,0c2.04-0.04,85.81-1.72,185.98-3.69l-4.28,63.9C391.97,621.08,339.23,621,336,621c-13.74,0-14.9,12.79-15.75,22.12
			c-0.08,0.83-0.15,1.66-0.23,2.48c-1.04,10.37-3.02,35.34-3.02,43.4c0,5,1.62,9.07,4.81,12.1c4.78,4.55,12.75,6.47,24.39,5.89
			c4.93-0.25,49.98-0.12,114.81,0.21l-4.29,63.94L312.03,770l-0.06,8l144.22,1.14l-4.32,64.48L308.96,845l0.08,8l142.29-1.38
			l-5.89,87.86l-148.14,26.58l1.41,7.88l146.18-26.23l-3.51,52.29h8.02l3.6-53.75l147.99-26.55l-14.31,75.63L561.2,1000h44.41
			l136.54-25c1.69,7.94,3.48,16.36,5.33,25h8.18c-1.96-9.16-3.86-18.06-5.64-26.45l143.13-26.21L904.3,1000h8.18l-11.44-54.1
			l137.37-25.16l15.14,70.21l-48.13,9.04h43.31l6.5-1.22l0.26,1.22h8.18l-0.56-2.61l90.51-14.44l-1.26-7.9l-90.94,14.51
			l-15.15-70.26l77.04-14.11l170.73,94.81h16.48l-185.83-103.19l-80.1,14.67l-15.6-72.31l55.73-10.23l-1.45-7.87l-200.85,36.88
			l-16.58-78.36l186.29-16.49l430.4,236.91h16.59l-444.2-244.5l-1.07-0.59l-188.84,16.72l0.27-61.83
			c93.49,0.67,162.55,1.18,164.68,1.2l0.06-8c-8.41-0.06-75.53-0.57-164.71-1.2l0.31-71.95C923.17,629.94,963.98,630,971,630
			c26.08,0,48.32,6.71,51.38,7.68l183.67,104.81l264.02,147.01L1671.64,1000h16.64l-214.34-117.5L1209.98,735.53z M857.98,550.61
			l-0.31,71.23c-65.37-0.1-150.31-0.24-231.64-0.37c0.16-21.1,0.18-36.56-0.04-41.64c-0.36-8.2-0.38-16.71,0.66-25.54
			C721.03,552.47,800.73,551,811,551c22.2,0,31.87-4.66,35.3-6.97L857.98,550.61z M625.17,700.16c0.33-25.37,0.62-50.15,0.8-70.69
			c81.33,0.13,166.28,0.27,231.67,0.37l-0.31,71.9C786.89,701.24,703.75,700.66,625.17,700.16z M857.29,709.74l-0.27,62.28
			L693.03,773l-68.88-0.54c0.3-19.98,0.62-42.21,0.91-64.29C703.68,708.67,786.89,709.24,857.29,709.74z M627.89,546.26
			c1.38-7.12,3.56-14.44,6.9-21.97l39.63,21.08C659.52,545.65,643.92,545.95,627.89,546.26z M677.31,448.76l160.62,90.54
			c-4.41,1.68-12.68,3.7-26.92,3.7c-8,0-57.89,0.89-124.01,2.13l0.89-1.66l-49.57-26.37c0.38-0.71,0.77-1.42,1.17-2.13
			C644.82,505.52,660.61,477.91,677.31,448.76z M525.38,366.42l144.91,78.49c-16.67,29.11-32.44,56.68-37.77,66.12
			c-0.44,0.77-0.86,1.54-1.27,2.31l-142.87-76L525.38,366.42z M486.58,445.44l141.13,75.08c-4.03,8.93-6.52,17.56-8,25.9
			c-45.63,0.88-94.34,1.83-140.08,2.73L486.58,445.44z M479.09,557.15c45.51-0.89,93.99-1.84,139.48-2.72
			c-0.96,8.9-0.92,17.47-0.56,25.74c0.21,4.94,0.19,20.29,0.03,41.28c-26.97-0.04-53.46-0.09-78.61-0.13
			c-22.69-0.04-44.4-0.07-64.63-0.11L479.09,557.15z M474.26,629.22c20.38,0.03,42.27,0.07,65.15,0.11
			c25.13,0.04,51.6,0.08,78.56,0.13c-0.18,20.51-0.47,45.29-0.81,70.66c-53.44-0.34-104.48-0.64-147.6-0.87L474.26,629.22z
			 M469.02,707.24c43.19,0.22,94.39,0.53,148.03,0.87c-0.3,22.08-0.61,44.31-0.91,64.28l-151.41-1.19L469.02,707.24z M345.8,699
			c-9.07,0.45-15.46-0.83-18.48-3.7c-1.58-1.51-2.32-3.51-2.32-6.31c0-7.52,1.93-32.13,2.98-42.6c0.08-0.84,0.16-1.7,0.24-2.55
			c1.03-11.32,2.24-14.85,7.78-14.85c3.21,0,55.71,0.08,130.24,0.21l-4.69,69.99C396.3,698.87,350.88,698.75,345.8,699z
			 M464.2,779.2l151.82,1.2c-0.44,29.35-0.82,52.72-0.96,61.64l-155.18,1.5L464.2,779.2z M453.55,938.03l5.8-86.48l154.81-1.5
			l-11.59,61.24L453.55,938.03z M595.11,993.79l14.3-75.6l68.29-12.25l-1.41-7.88l-65.29,11.71l11.24-59.4
			c8.16,0.88,28.13,3.05,41.29,4.6c0.86,0.1,1.69,0.15,2.49,0.15c11.4,0,17.76-9.68,21-17.31c3.57,5.85,8.8,13.68,14.14,19.02
			c10.37,10.37,23.67,32.87,29.9,64.94c1.63,8.4,5.09,24.96,9.42,45.4L595.11,993.79z M1021.12,840.61l15.6,72.31l-137.34,25.15
			l-15.29-72.29L1021.12,840.61z M891.5,939.51l-143.14,26.21c-4.34-20.49-7.8-37.09-9.44-45.49c-1.94-9.99-4.45-18.79-7.21-26.49
			l144.49-26.53L891.5,939.51z M874.55,859.39l-145.27,26.67l0.44,2.37c-8.66-21.68-19.03-33.41-22.89-37.27
			c-8.46-8.46-17.21-24.88-17.29-25.04l-5.23-9.87l-2.22,10.95c-0.04,0.21-4.51,21.37-17.61,19.82
			c-13.21-1.55-33.26-3.73-41.41-4.61c0.15-9,0.53-32.49,0.97-61.96l68.99,0.54l164.74-0.98L874.55,859.39z"/>
	</g>
</g>
<g id="Thick_Roads_1_">
	<path class="st4" d="M282.67,1000l14.31-231.51l0.04-0.59l-9.05-105.63c-0.02-0.21-0.47-5.46-0.78-14.01l6.05-5.53
		c0.57,7.12,1.18,14.54,1.79,22.07c3.54,43.21,7.54,92.18,6.97,116.86L288.59,1000h16.03l13.37-217.51l0.01-0.3
		c0.61-25.48-3.45-75-7.02-118.7c-0.98-12.03-1.95-23.78-2.76-34.45l14.31-13.08l8.27-58.89l65.64-164.1l0.18-0.44l26.88-100.53
		l37.17-68.04l275.31,152.33l-13.89,91.64l-42.99,357.9l15.89,1.91l42.96-357.65l12.96-85.54l227.73,126l-23.27,42.14l-24.22,31.6
		c-6.85,7.97-225.54,262.25-241.2,280.51c-17.39,20.29-20.99,46.65-23.13,62.4l-0.05,0.39c-0.75,5.49-4.4,36.05-8.72,72.41h16.11
		c4.21-35.47,7.74-64.99,8.46-70.25l0.05-0.39c1.91-14,5.1-37.44,19.43-54.15c15.81-18.45,239.07-278.04,241.32-280.66l16.92-22.06
		l149.75,326.99L1066.46,1000h17.44l35.13-80.97l37.08,80.97h17.6l-45.95-100.33l129.29-235.07l251.11,138.94L1399.76,1000h18.27
		l104.12-188.71l285.68,158.07l-16.97,30.64h18.29l12.68-22.89l41.37,22.89h33.05l-66.66-36.88L2000,655.54v-33.02l-184.41,332.85
		l-285.71-158.08l368.64-668.13l101.47,56.5v-18.31l-93.74-52.2L1969.79,0h-18.27l-59.24,107.36L1699.46,0h-32.89l217.97,121.37
		l-368.66,668.17l-251.13-138.95L1622.58,0h-18.26l-353.56,642.84l-250.41-138.55L1278.83,0h-18.28l-274.2,496.54L753.49,367.69
		l12.23-74.32l30.54-66.01l-0.42-0.19L924.4,0h-18.39L711.17,344.28L468.32,209.91L482,184.88L584.52,0h-18.29l-98.24,177.16
		l-11.48,21.02l-21.86-23.98l-10.5-4.02l13.78-93.02L447.52,0h-16.12l-9.32,74.92l-13.25,89.42l-5.12-1.96
		c6.98-47.14,13.27-89.4,17.2-114.13c2.18-13.73,4.7-30.48,7.31-48.25h-16.17c-2.48,16.85-4.87,32.67-6.94,45.75
		c-4.76,30.01-12.99,85.65-21.7,144.57c-9.37,63.4-19.06,128.95-24.3,161.41c-8.18,50.74-31.44,95.91-53.94,139.58
		c-4.4,8.54-8.94,17.36-13.32,26.11c-27.7,55.4-20.15,142.62-19.82,146.26l8.95,104.41L266.64,1000H282.67z M992.62,518.29
		l250.43,138.57l-123.58,224.7L971.01,557.41L992.62,518.29z M745.87,315.47l-7.24,44l-13.45-7.44L745.87,315.47z M399.23,192.65
		c0.7-4.71,1.39-9.4,2.08-14.06l5.12,1.96l-4.32,29.17l-14.95,84.72c-0.37,1.69-3.65,16.42-8.6,36.56
		C384.02,295.51,391.73,243.4,399.23,192.65z M402.81,297.71l15.06-85.32l3.85-25.99l3.64,1.39l23.02,25.24l-39.86,72.97
		l-27.12,101.47l-4.16,10.4C390.92,351.66,402.12,300.86,402.81,297.71z M315.57,552.03l-0.36,0.9l-7.73,55.11l-0.7,0.64
		c-0.39-6.19-0.66-11.58-0.78-15.89c-0.75-27.84,19-72.11,36.98-109.26L315.57,552.03z M306.16,524.58
		c1.33-2.65,2.67-5.32,4.03-7.98c-11.81,27.87-20.75,55.34-20.18,76.62c0.2,7.3,0.82,17.45,1.68,29.26l-4.73,4.32
		C287.37,597.13,290.99,554.91,306.16,524.58z"/>
</g>
<g id="Subway">
	<g>
		<path class="st5" d="M997.91,633.58c-36.76-79.86-11.04-121.39,2.77-143.71c2.43-3.93,4.54-7.33,5.84-10.21
			c2.76-6.11,164.61-298.94,264.55-479.66h-2.29c-100.13,181.06-261.26,472.6-264.08,478.84c-1.25,2.77-3.32,6.11-5.72,9.98
			c-14.01,22.63-40.1,64.76-2.89,145.6c20.09,43.64,71.84,156.9,121.49,265.64l1.07-2.47C1069.24,789.35,1017.9,677,997.91,633.58z"
			/>
		<path class="st5" d="M1163.2,1000h2.2c-14.26-31.25-29.84-65.37-45.63-99.97l-1.07,2.47C1134.1,936.23,1149.27,969.47,1163.2,1000
			z"/>
		<path class="st6" d="M1118.7,902.5c-0.37-0.81-0.74-1.63-1.12-2.44l-43.29,99.94h2.18L1118.7,902.5z"/>
		<path class="st6" d="M1118.65,897.59c0.37,0.81,0.74,1.63,1.12,2.44l1.56-3.61L1614.02,0h-2.28l-492.2,895.54L1118.65,897.59z"/>
		<path class="st6" d="M1119.77,900.03c-0.37-0.81-0.74-1.63-1.12-2.44l-1.07,2.47c0.37,0.82,0.74,1.63,1.12,2.44L1119.77,900.03z"
			/>
		<polygon class="st6" points="1961.83,0 1959.55,0 1406.76,1000 1409.05,1000 		"/>
	</g>
	<rect x="954.67" y="497.33" class="st7" width="19.33" height="19.33"/>
	<g>
		<path class="st8" d="M959.26,501.14H961l3.33,6.18l3.32-6.18h1.76v11.73h-2.65l0.08-5.19l-1.93,3.57h-1.29l-1.83-3.38l0.08,5.01
			h-2.63V501.14z"/>
	</g>
	<g>
		<circle class="st9" cx="899.06" cy="514.32" r="8"/>
		<g>
			<path class="st8" d="M899.29,518.68c-1.62,0-2.81-1.04-2.81-2.67v-3.38c0-1.63,1.19-2.67,2.81-2.67c1.08,0,1.69,0.32,2.34,0.8
				l-0.53,0.89c-0.56-0.35-0.97-0.58-1.81-0.58c-0.92,0-1.55,0.65-1.55,1.72v3.06c0,1.1,0.64,1.73,1.55,1.73
				c0.84,0,1.25-0.23,1.81-0.58l0.53,0.89C900.99,518.36,900.37,518.68,899.29,518.68z"/>
		</g>
	</g>
	<g>
		<circle class="st9" cx="921.03" cy="514.32" r="8"/>
		<g>
			<path class="st8" d="M918.58,510.12h4.81v1.14h-3.56v2.42h2.97v1.12h-2.97v2.59h3.65v1.13h-4.89V510.12z"/>
		</g>
	</g>
	<g>
		<circle class="st10" cx="943" cy="514.32" r="8"/>
		<g>
			<path class="st8" d="M940.57,510.12h1.25v7.27h3.61v1.13h-4.86V510.12z"/>
		</g>
	</g>
	<g>
		<circle class="st9" cx="877.09" cy="514.32" r="8"/>
		<g>
			<path class="st8" d="M878.58,516.73h-2.93l-0.67,1.79h-1.37l3-7.38l-0.34-1.02h1.26l3.03,8.4h-1.38L878.58,516.73z M876.04,515.7
				h2.19l-1.04-3.05L876.04,515.7z"/>
		</g>
	</g>
	<g>
		<rect x="1390.28" y="329.47" class="st7" width="19.33" height="19.33"/>
		<g>
			<path class="st8" d="M1394.87,333.27h1.74l3.33,6.18l3.32-6.18h1.76V345h-2.65l0.08-5.19l-1.93,3.57h-1.29l-1.83-3.38l0.08,5.01
				h-2.63V333.27z"/>
		</g>
		<circle class="st11" cx="1378.36" cy="346.95" r="8"/>
		<g>
			<path class="st8" d="M1380.3,350.02v1.13h-3.5v-1.13h1.22v-5.78l-1.03,0.68l-0.58-0.9l1.79-1.27h1.06v7.27H1380.3z"/>
		</g>
	</g>
	<rect x="1231.08" y="618" class="st7" width="19.33" height="19.33"/>
	<g>
		<path class="st8" d="M1235.67,621.8h1.74l3.33,6.18l3.32-6.18h1.76v11.73h-2.65l0.08-5.19l-1.93,3.57h-1.29l-1.83-3.38l0.08,5.01
			h-2.63V621.8z"/>
	</g>
	<g>
		<circle class="st11" cx="1174.69" cy="635.41" r="8"/>
		<g>
			<path class="st8" d="M1176.63,638.48v1.13h-3.5v-1.13h1.22v-5.78l-1.03,0.68l-0.58-0.9l1.79-1.27h1.06v7.27H1176.63z"/>
		</g>
	</g>
	<g>
		<circle class="st11" cx="1196.79" cy="635.41" r="8"/>
		<g>
			<path class="st8" d="M1196.75,631.12c1.75,0,2.57,0.97,2.57,2.4c0,1.49-1.02,2.79-3.25,5.05h3.43v1.12h-5.42v-0.78
				c2.78-2.83,3.97-4.21,3.97-5.35c0-0.78-0.42-1.33-1.33-1.33c-0.85,0-1.4,0.26-1.98,0.62l-0.52-0.85
				C1194.9,631.5,1195.7,631.12,1196.75,631.12z"/>
		</g>
	</g>
	<g>
		<circle class="st11" cx="1218.89" cy="635.41" r="8"/>
		<g>
			<path class="st8" d="M1216.25,638.93l0.46-0.91c0.59,0.35,1.19,0.64,2.04,0.64c0.98,0,1.47-0.56,1.47-1.48
				c0-1.08-0.54-1.52-1.37-1.52h-0.88v-0.97h0.91c0.83,0,1.22-0.54,1.21-1.3c-0.01-0.72-0.38-1.26-1.26-1.26
				c-0.86,0-1.4,0.23-2,0.55l-0.41-0.85c0.68-0.47,1.42-0.79,2.47-0.79c1.7,0,2.43,1.01,2.43,2.3c0,0.62-0.26,1.32-0.84,1.76
				c0.6,0.3,1.03,1.2,1.03,1.93v0.23c0,1.45-0.9,2.51-2.7,2.51C1217.77,639.77,1216.93,639.42,1216.25,638.93z"/>
		</g>
		<polygon class="st3" points="1217.51,635.41 1220.26,635.41 1220.26,635.41 1217.51,635.41 		"/>
	</g>
	<rect x="1493.51" y="769.97" class="st7" width="19.33" height="19.33"/>
	<g>
		<path class="st8" d="M1498.1,773.77h1.74l3.33,6.18l3.32-6.18h1.76v11.73h-2.65l0.08-5.19l-1.93,3.57h-1.29l-1.83-3.38l0.08,5.01
			h-2.63V773.77z"/>
	</g>
	<g>
		<circle class="st12" cx="1459.97" cy="786.7" r="8"/>
		<g>
			<path class="st8" d="M1456.52,782.51h0.92l2.53,5.01l2.53-5.01h0.92v8.4h-1.25l0.05-5.41l-1.93,3.84h-0.7l-1.87-3.74l0.04,5.31
				h-1.25V782.51z"/>
		</g>
	</g>
	<g>
		<circle class="st10" cx="1482.01" cy="786.7" r="8"/>
		<g>
			<path class="st8" d="M1479.58,782.51h1.25v7.27h3.61v1.13h-4.86V782.51z"/>
		</g>
	</g>
	<g>
		<circle class="st12" cx="1437.94" cy="786.7" r="8"/>
		<g>
			<path class="st8" d="M1435.66,782.77h4.82v1.14h-3.57v2.71h2.97v1.13h-2.97v3.42h-1.25V782.77z"/>
		</g>
	</g>
</g>
<g id="Street_Names">
	<g>
		<path class="st13" d="M1077.07,314.16c-0.65-0.34-1.14-1.18-1.18-1.85c-0.63,0.29-1.44,0.24-2-0.06
			c-1.17-0.62-1.63-1.79-0.78-3.39c0.85-1.6,2.08-1.89,3.25-1.26c0.55,0.29,1.04,0.91,1.16,1.62c0.59-0.38,1.55-0.38,2.2-0.04
			l0.21,0.11c1.22,0.65,1.81,1.93,0.89,3.67s-2.32,1.96-3.54,1.31L1077.07,314.16z M1076.35,310.52c0.37-0.7,0.12-1.47-0.52-1.81
			c-0.62-0.33-1.34-0.21-1.8,0.65s-0.16,1.52,0.47,1.85c0.63,0.34,1.4,0.15,1.77-0.54L1076.35,310.52z M1077.85,313.11
			c0.68,0.36,1.46,0.3,1.98-0.67c0.52-0.97,0.13-1.65-0.54-2.02l-0.07-0.04c-0.75-0.4-1.58-0.19-1.96,0.52l-0.13,0.25
			c-0.37,0.7-0.09,1.52,0.66,1.92L1077.85,313.11z"/>
		<path class="st13" d="M1078.07,306.61l-0.47,0.89l-0.88-0.47l0.47-0.89l-1.05-0.56l0.56-1.05l1.05,0.56l0.57-1.08l0.88,0.47
			l-0.57,1.08l2.53,1.35c0.97,0.52,1.76,0.5,2.51,0.34l-0.63,1.19c-0.67,0.14-1.43,0.05-2.36-0.44L1078.07,306.61z"/>
		<path class="st13" d="M1085.18,302.46l-2.67-1.42c-0.83-0.44-1.33-0.38-1.71,0.34c-0.26,0.49-0.17,1.13,0.05,1.6l3.97,2.11
			l-0.56,1.06l-7.94-4.22l0.56-1.06l2.97,1.58c-0.18-0.57-0.17-1.23,0.12-1.78c0.68-1.28,1.66-1.44,2.96-0.75l2.53,1.35
			c0.25,0.14,0.4,0.05,0.5-0.14c0.05-0.1,0.09-0.21,0.11-0.34l0.84,0.44c-0.08,0.28-0.18,0.53-0.29,0.73
			C1086.29,302.56,1085.86,302.82,1085.18,302.46z"/>
		<path class="st13" d="M1088.95,293.49l-1.37,2.58l1.26,1.43l-0.64,1.21l-5.11-6.11l-1.06-0.18l0.59-1.11l8.84,1.26l-0.65,1.22
			L1088.95,293.49z M1086.85,295.25l1.03-1.94l-3.18-0.51L1086.85,295.25z"/>
		<path class="st13" d="M1085.75,290.04l0.59-1.11l4.96,0.87l-3.51-3.59l0.59-1.11l4.46,4.9l-0.54,1.02L1085.75,290.04z"/>
		<path class="st13" d="M1095.44,285.36c-0.73,1.37-2,1.77-3.38,1.04l-1.31-0.7c-1.37-0.73-1.75-2.02-1.03-3.39
			c0.73-1.37,2.01-1.76,3.37-1.03l0.98,0.52l-1.79,3.37l0.25,0.13c0.91,0.48,1.58,0.3,1.98-0.45c0.35-0.67,0.42-1.3,0.39-1.9
			l0.96-0.02C1095.97,283.63,1095.91,284.47,1095.44,285.36z M1092.75,282.45l-0.13-0.07c-0.9-0.48-1.58-0.32-1.98,0.43
			c-0.4,0.75-0.17,1.42,0.74,1.9l0.13,0.07L1092.75,282.45z"/>
	</g>
	<g>
		<path class="st13" d="M1338.12,455.73l-1.73,3.26l-0.99-0.52l2.4-4.51l0.67,0.36l5.29,6.32l-0.62,1.18L1338.12,455.73z"/>
		<path class="st13" d="M1341.06,454.54l-0.47,0.89l-0.88-0.47l0.47-0.89l-1.05-0.56l0.56-1.05l1.05,0.56l0.57-1.08l0.88,0.47
			l-0.57,1.08l2.53,1.35c0.97,0.52,1.76,0.5,2.51,0.34l-0.63,1.19c-0.67,0.14-1.43,0.05-2.36-0.44L1341.06,454.54z"/>
		<path class="st13" d="M1348.17,450.38l-2.67-1.42c-0.83-0.44-1.33-0.38-1.71,0.34c-0.26,0.49-0.17,1.13,0.05,1.6l3.97,2.11
			l-0.56,1.06l-7.94-4.22l0.56-1.06l2.98,1.58c-0.18-0.57-0.17-1.23,0.12-1.78c0.68-1.28,1.66-1.44,2.96-0.75l2.53,1.35
			c0.25,0.13,0.4,0.05,0.5-0.14c0.05-0.1,0.09-0.21,0.11-0.34l0.84,0.45c-0.08,0.28-0.18,0.53-0.29,0.73
			C1349.29,450.49,1348.85,450.74,1348.17,450.38z"/>
		<path class="st13" d="M1351.95,441.42l-1.37,2.58l1.26,1.43l-0.64,1.21l-5.11-6.11l-1.06-0.18l0.59-1.11l8.84,1.26l-0.65,1.22
			L1351.95,441.42z M1349.84,443.18l1.03-1.94l-3.18-0.51L1349.84,443.18z"/>
		<path class="st13" d="M1348.75,437.96l0.59-1.11l4.96,0.87l-3.51-3.59l0.59-1.11l4.46,4.9l-0.54,1.02L1348.75,437.96z"/>
		<path class="st13" d="M1358.43,433.29c-0.73,1.37-2,1.77-3.38,1.04l-1.31-0.7c-1.37-0.73-1.75-2.02-1.03-3.38
			c0.73-1.37,2.01-1.76,3.37-1.03l0.98,0.52l-1.79,3.37l0.25,0.13c0.91,0.48,1.58,0.3,1.98-0.45c0.36-0.67,0.42-1.3,0.39-1.9
			l0.96-0.02C1358.97,431.56,1358.91,432.4,1358.43,433.29z M1355.74,430.38l-0.13-0.07c-0.9-0.48-1.58-0.32-1.98,0.43
			c-0.4,0.75-0.17,1.42,0.74,1.9l0.13,0.07L1355.74,430.38z"/>
	</g>
	<g>
		<path class="st13" d="M1601.75,603.23c0.5-0.93,1.21-1.49,1.97-1.84l0.52,0.84c-0.59,0.35-1.08,0.7-1.49,1.46
			c-0.46,0.86-0.18,1.64,0.78,2.15l1.07,0.57c-0.08-0.52,0.07-1.23,0.37-1.8c0.67-1.25,1.77-1.85,3.23-1.07l0.33,0.17
			c1.46,0.78,1.68,2.17,0.94,3.58c-0.74,1.4-1.96,2.05-3.42,1.28l-3.23-1.72C1601.39,606.11,1600.98,604.68,1601.75,603.23z
			 M1606.47,607.41c0.96,0.51,1.6,0.16,2.02-0.62c0.42-0.78,0.3-1.54-0.68-2.06c-0.92-0.49-1.47-0.28-1.9,0.53
			c-0.3,0.57-0.41,1.2-0.31,1.7L1606.47,607.41z"/>
		<path class="st13" d="M1606.71,600.98l-0.47,0.89l-0.88-0.47l0.47-0.89l-1.05-0.56l0.56-1.05l1.05,0.56l0.57-1.08l0.88,0.47
			l-0.57,1.08l2.53,1.35c0.97,0.52,1.76,0.5,2.51,0.34l-0.63,1.19c-0.67,0.14-1.43,0.06-2.36-0.44L1606.71,600.98z"/>
		<path class="st13" d="M1613.82,596.83l-2.67-1.42c-0.83-0.44-1.33-0.38-1.71,0.34c-0.26,0.49-0.17,1.13,0.05,1.6l3.97,2.11
			l-0.56,1.06l-7.94-4.22l0.56-1.06l2.98,1.58c-0.18-0.57-0.17-1.23,0.12-1.78c0.68-1.28,1.66-1.44,2.96-0.75l2.53,1.35
			c0.25,0.14,0.4,0.05,0.5-0.14c0.05-0.1,0.09-0.21,0.11-0.34l0.84,0.45c-0.08,0.28-0.18,0.53-0.29,0.73
			C1614.94,596.93,1614.5,597.19,1613.82,596.83z"/>
		<path class="st13" d="M1617.6,587.87l-1.37,2.58l1.26,1.43l-0.64,1.21l-5.11-6.11l-1.06-0.18l0.59-1.11l8.84,1.26l-0.65,1.22
			L1617.6,587.87z M1615.49,589.63l1.03-1.94l-3.18-0.51L1615.49,589.63z"/>
		<path class="st13" d="M1614.4,584.41l0.59-1.11l4.96,0.87l-3.51-3.59l0.59-1.11l4.46,4.9l-0.54,1.02L1614.4,584.41z"/>
		<path class="st13" d="M1624.08,579.74c-0.73,1.37-2,1.77-3.38,1.04l-1.31-0.7c-1.37-0.73-1.75-2.02-1.03-3.38
			c0.73-1.37,2.01-1.76,3.37-1.03l0.98,0.52l-1.79,3.37l0.25,0.14c0.91,0.48,1.58,0.3,1.98-0.46c0.36-0.67,0.42-1.3,0.39-1.9
			l0.96-0.02C1624.62,578.01,1624.55,578.85,1624.08,579.74z M1621.39,576.82l-0.13-0.07c-0.9-0.48-1.58-0.32-1.98,0.43
			s-0.17,1.42,0.74,1.9l0.13,0.07L1621.39,576.82z"/>
	</g>
	<g>
		<path class="st13" d="M1900.95,771.44l1.93-3.63l0.97,0.52l-1.42,2.68l2.03,1.39c-0.02-0.4,0.08-0.87,0.31-1.3
			c0.7-1.32,1.83-1.78,3.33-0.99l0.36,0.19c1.28,0.68,1.73,2.02,0.9,3.56c-0.5,0.93-1.2,1.52-1.95,1.88l-0.59-0.83
			c0.58-0.36,1.13-0.77,1.54-1.53c0.43-0.82,0.21-1.56-0.54-1.96l-0.21-0.11c-0.99-0.52-1.58-0.23-1.97,0.5
			c-0.26,0.5-0.37,1.12-0.31,1.63l-0.9,0.43L1900.95,771.44z"/>
		<path class="st13" d="M1906.56,767.6l-0.47,0.89l-0.88-0.47l0.47-0.89l-1.05-0.56l0.56-1.05l1.05,0.56l0.57-1.08l0.88,0.47
			l-0.57,1.08l2.53,1.35c0.97,0.52,1.76,0.5,2.51,0.34l-0.63,1.19c-0.67,0.14-1.43,0.06-2.36-0.44L1906.56,767.6z"/>
		<path class="st13" d="M1913.67,763.45l-2.67-1.42c-0.83-0.44-1.33-0.38-1.71,0.34c-0.26,0.49-0.17,1.13,0.05,1.6l3.97,2.11
			l-0.56,1.06l-7.94-4.22l0.56-1.06l2.98,1.58c-0.18-0.57-0.17-1.23,0.12-1.78c0.68-1.28,1.66-1.44,2.96-0.75l2.53,1.35
			c0.25,0.14,0.39,0.05,0.5-0.14c0.05-0.1,0.09-0.21,0.11-0.34l0.84,0.45c-0.08,0.28-0.18,0.53-0.29,0.73
			C1914.78,763.55,1914.35,763.81,1913.67,763.45z"/>
		<path class="st13" d="M1917.44,754.49l-1.37,2.58l1.26,1.43l-0.64,1.21l-5.1-6.11l-1.06-0.18l0.59-1.11l8.84,1.26l-0.65,1.22
			L1917.44,754.49z M1915.34,756.25l1.03-1.94l-3.18-0.51L1915.34,756.25z"/>
		<path class="st13" d="M1914.24,751.03l0.59-1.11l4.96,0.87l-3.51-3.59l0.59-1.11l4.46,4.9l-0.54,1.02L1914.24,751.03z"/>
		<path class="st13" d="M1923.93,746.35c-0.73,1.37-2,1.77-3.38,1.04l-1.31-0.7c-1.37-0.73-1.75-2.02-1.03-3.38
			c0.73-1.37,2.01-1.76,3.37-1.03l0.98,0.52l-1.79,3.37l0.25,0.14c0.91,0.48,1.58,0.3,1.98-0.46c0.36-0.67,0.42-1.3,0.39-1.9
			l0.96-0.02C1924.47,744.63,1924.4,745.46,1923.93,746.35z M1921.24,743.44l-0.13-0.07c-0.9-0.48-1.58-0.32-1.98,0.43
			s-0.17,1.42,0.74,1.9l0.13,0.07L1921.24,743.44z"/>
	</g>
	<g>
		<path class="st13" d="M808.12,158.88c0.45-0.85,0.24-1.65-0.73-2.17l-1.03-0.55c0.03,0.53-0.17,1.14-0.47,1.71
			c-0.67,1.26-1.78,1.85-3.24,1.08l-0.31-0.16c-1.46-0.78-1.67-2.14-0.93-3.55s1.94-2.05,3.4-1.28l3.27,1.74
			c1.43,0.76,1.85,2.12,1.03,3.67c-0.51,0.95-1.14,1.51-1.92,1.89l-0.54-0.87C807.26,160.03,807.71,159.65,808.12,158.88z
			 M804.42,155.15c-0.97-0.52-1.61-0.17-2.02,0.61c-0.42,0.78-0.32,1.49,0.67,2.01c0.91,0.48,1.44,0.28,1.87-0.53
			c0.3-0.57,0.46-1.07,0.44-1.59L804.42,155.15z"/>
		<path class="st13" d="M806.36,153.02l-0.47,0.89l-0.88-0.47l0.47-0.89l-1.05-0.56l0.56-1.05l1.05,0.56l0.57-1.08l0.88,0.47
			l-0.57,1.08l2.53,1.35c0.97,0.52,1.76,0.5,2.51,0.34l-0.63,1.19c-0.67,0.14-1.43,0.06-2.36-0.44L806.36,153.02z"/>
		<path class="st13" d="M813.47,148.86l-2.67-1.42c-0.83-0.44-1.33-0.38-1.71,0.34c-0.26,0.49-0.17,1.13,0.05,1.6l3.97,2.11
			l-0.56,1.06l-7.94-4.22l0.56-1.06l2.98,1.58c-0.18-0.57-0.17-1.23,0.12-1.78c0.68-1.28,1.66-1.44,2.96-0.75l2.53,1.35
			c0.25,0.13,0.39,0.05,0.5-0.14c0.05-0.1,0.09-0.21,0.11-0.34l0.84,0.44c-0.08,0.28-0.18,0.53-0.29,0.73
			C814.59,148.96,814.15,149.22,813.47,148.86z"/>
		<path class="st13" d="M817.25,139.9l-1.37,2.58l1.26,1.43l-0.64,1.21l-5.11-6.11l-1.06-0.18l0.59-1.11l8.84,1.26l-0.65,1.22
			L817.25,139.9z M815.14,141.66l1.03-1.94l-3.18-0.51L815.14,141.66z"/>
		<path class="st13" d="M814.05,136.44l0.59-1.11l4.96,0.87l-3.51-3.59l0.59-1.11l4.46,4.9l-0.54,1.02L814.05,136.44z"/>
		<path class="st13" d="M823.73,131.77c-0.73,1.37-2,1.77-3.38,1.04l-1.31-0.7c-1.37-0.73-1.75-2.02-1.03-3.38
			c0.73-1.37,2.01-1.76,3.38-1.03l0.98,0.52l-1.79,3.37l0.25,0.13c0.91,0.48,1.58,0.3,1.98-0.45c0.36-0.67,0.42-1.3,0.39-1.9
			l0.96-0.02C824.27,130.04,824.2,130.88,823.73,131.77z M821.04,128.86l-0.13-0.07c-0.9-0.48-1.58-0.32-1.98,0.43
			s-0.17,1.42,0.74,1.9l0.13,0.07L821.04,128.86z"/>
	</g>
	<g>
		<path class="st13" d="M548.17,16.71l0.99,0.53l-1.64,3.09l-1-0.53l0.57-1.08l-5.1-2.71l0.12,1.23l-1.06,0.09l-0.29-2.17l0.5-0.93
			l6.42,3.41L548.17,16.71z"/>
		<path class="st13" d="M544.26,13.86c-1.45-0.77-1.83-2.2-1.08-3.61c0.75-1.41,2.15-1.9,3.6-1.13l3.03,1.61
			c1.45,0.77,1.83,2.21,1.08,3.62c-0.75,1.41-2.14,1.89-3.6,1.12L544.26,13.86z M547.73,14.32c0.99,0.52,1.75,0.28,2.16-0.49
			c0.42-0.78,0.18-1.54-0.81-2.06l-2.75-1.46c-0.97-0.52-1.74-0.3-2.16,0.48c-0.41,0.77-0.17,1.55,0.8,2.07L547.73,14.32z"/>
		<path class="st13" d="M548.1,8.09l-0.47,0.89l-0.88-0.47l0.47-0.89l-1.05-0.56l0.56-1.05l1.05,0.56l0.57-1.08l0.88,0.47
			l-0.57,1.08l2.53,1.35c0.97,0.52,1.76,0.5,2.51,0.34l-0.63,1.19c-0.67,0.14-1.43,0.06-2.36-0.44L548.1,8.09z"/>
		<path class="st13" d="M555.21,3.93l-2.67-1.42c-0.83-0.44-1.33-0.38-1.71,0.34c-0.26,0.49-0.17,1.13,0.04,1.6l3.97,2.11
			l-0.56,1.06l-7.94-4.22l0.56-1.06l2.97,1.58c-0.18-0.57-0.17-1.23,0.12-1.78c0.68-1.28,1.66-1.44,2.96-0.75l2.53,1.35
			c0.25,0.13,0.4,0.05,0.5-0.14c0.05-0.1,0.09-0.21,0.11-0.34l0.84,0.44c-0.08,0.28-0.19,0.53-0.29,0.73
			C556.32,4.04,555.89,4.29,555.21,3.93z"/>
	</g>
	<g>
		<path class="st13" d="M869.44,415.41l1.14,0.63l-1.81,6.84l4.71-5.24l1.12,0.62l-1.93,6.77l4.82-5.17l1.13,0.63l-6.17,6.18
			l-1.09-0.6l1.83-6.63l-4.62,5.09l-1.1-0.61L869.44,415.41z"/>
		<path class="st13" d="M880.86,430.04l-0.55,0.99l-3.06-1.7l0.55-0.99l1.07,0.59l2.8-5.06l-1.23,0.1l-0.07-1.07l2.18-0.25
			l0.92,0.51l-3.52,6.36L880.86,430.04z"/>
		<path class="st13" d="M881.8,429.15l5.44-3.88l1.17,0.65l-5.11,3.67l2.18,1.21l1.52-2.72l1.07,0.59l-1.51,2.73l0.71,0.39
			l-0.54,0.98l-0.71-0.4l-0.77,1.4l-1.08-0.6l0.77-1.4l-3.5-1.94L881.8,429.15z"/>
		<path class="st13" d="M889.53,430.14l-0.88-0.49l0.48-0.87l0.88,0.49l0.58-1.04l1.04,0.57l-0.58,1.04l1.07,0.59l-0.48,0.87
			l-1.07-0.59l-1.39,2.51c-0.53,0.96-0.53,1.75-0.38,2.5l-1.17-0.65c-0.13-0.68-0.03-1.43,0.48-2.35L889.53,430.14z"/>
		<path class="st13" d="M893.56,437.32l1.46-2.64c0.45-0.82,0.41-1.33-0.31-1.72c-0.48-0.27-1.13-0.19-1.6,0.02l-2.18,3.94
			l-1.05-0.58l4.36-7.87l1.05,0.58l-1.63,2.95c0.58-0.17,1.23-0.15,1.78,0.15c1.27,0.7,1.41,1.69,0.7,2.98l-1.39,2.51
			c-0.14,0.25-0.05,0.39,0.13,0.5c0.09,0.05,0.21,0.09,0.33,0.12l-0.46,0.83c-0.28-0.09-0.52-0.19-0.72-0.3
			C893.44,438.43,893.19,437.99,893.56,437.32z"/>
		<path class="st13" d="M900.54,441.11c0.96,0.53,1.78,0.37,2.15-0.3c0.42-0.77,0.09-1.39-0.79-2.07c-1.12-0.85-1.74-1.92-0.93-3.38
			c0.66-1.2,1.94-1.6,3.41-0.79c0.93,0.52,1.4,1.14,1.76,1.92l-0.91,0.54c-0.34-0.6-0.69-1.08-1.38-1.46
			c-0.85-0.47-1.47-0.24-1.8,0.35c-0.46,0.83-0.07,1.36,0.72,1.99c1.01,0.79,1.89,1.88,1.04,3.42c-0.7,1.27-2.1,1.74-3.8,0.8
			c-0.97-0.54-1.62-1.32-1.93-2.03l0.9-0.57C899.33,440.11,899.83,440.72,900.54,441.11z"/>
		<path class="st13" d="M906.41,439.48l-0.88-0.49l0.48-0.87l0.88,0.49l0.58-1.04l1.04,0.58l-0.58,1.04l1.07,0.59l-0.48,0.87
			l-1.07-0.59l-1.39,2.51c-0.53,0.96-0.53,1.75-0.38,2.5l-1.17-0.65c-0.13-0.68-0.03-1.43,0.48-2.35L906.41,439.48z"/>
	</g>
	<g>
		<path class="st13" d="M913.9,335.48l1.14,0.63l-1.81,6.84l4.71-5.24l1.12,0.62l-1.93,6.78l4.82-5.17l1.13,0.63l-6.17,6.18
			l-1.09-0.6l1.83-6.63l-4.62,5.1l-1.1-0.61L913.9,335.48z"/>
		<path class="st13" d="M925.32,350.11l-0.54,0.99l-3.06-1.7l0.55-0.99l1.07,0.59l2.8-5.06l-1.23,0.1l-0.07-1.07l2.18-0.25
			l0.92,0.51l-3.52,6.36L925.32,350.11z"/>
		<path class="st13" d="M930.03,344.41l3.6,1.99l-0.53,0.96l-2.66-1.47l-1.43,2.01c0.4-0.01,0.87,0.1,1.3,0.33
			c1.31,0.72,1.75,1.86,0.93,3.34l-0.2,0.36c-0.7,1.27-2.05,1.69-3.58,0.84c-0.92-0.51-1.5-1.23-1.85-1.98l0.84-0.58
			c0.35,0.59,0.75,1.14,1.51,1.56c0.81,0.45,1.55,0.24,1.96-0.5l0.12-0.21c0.54-0.98,0.25-1.57-0.47-1.97
			c-0.49-0.27-1.12-0.38-1.62-0.34l-0.42-0.9L930.03,344.41z"/>
		<path class="st13" d="M933.77,350.08l-0.88-0.49l0.48-0.87l0.88,0.49l0.57-1.04l1.04,0.58l-0.58,1.04l1.07,0.59l-0.48,0.87
			l-1.07-0.59l-1.39,2.51c-0.53,0.96-0.53,1.75-0.38,2.5l-1.17-0.65c-0.13-0.68-0.03-1.43,0.48-2.35L933.77,350.08z"/>
		<path class="st13" d="M937.8,357.26l1.46-2.64c0.45-0.82,0.4-1.33-0.31-1.72c-0.48-0.27-1.13-0.19-1.6,0.02l-2.18,3.93l-1.05-0.58
			l4.36-7.87l1.05,0.58l-1.63,2.95c0.58-0.18,1.24-0.15,1.78,0.15c1.27,0.7,1.41,1.69,0.7,2.98l-1.39,2.51
			c-0.14,0.25-0.05,0.39,0.13,0.5c0.09,0.05,0.21,0.09,0.33,0.12l-0.46,0.83c-0.28-0.09-0.52-0.19-0.72-0.3
			C937.68,358.37,937.43,357.93,937.8,357.26z"/>
		<path class="st13" d="M944.78,361.06c0.96,0.54,1.78,0.37,2.15-0.3c0.42-0.77,0.1-1.39-0.79-2.07c-1.12-0.85-1.73-1.92-0.93-3.38
			c0.66-1.2,1.94-1.6,3.41-0.79c0.93,0.52,1.4,1.14,1.76,1.92l-0.91,0.54c-0.34-0.6-0.69-1.08-1.38-1.46
			c-0.85-0.47-1.47-0.24-1.8,0.35c-0.46,0.83-0.07,1.36,0.72,1.99c1.01,0.79,1.89,1.88,1.04,3.42c-0.7,1.27-2.1,1.74-3.8,0.8
			c-0.96-0.53-1.61-1.32-1.93-2.03l0.9-0.57C943.57,360.06,944.07,360.66,944.78,361.06z"/>
		<path class="st13" d="M950.65,359.42l-0.88-0.49l0.48-0.87l0.88,0.49l0.57-1.04l1.04,0.58l-0.57,1.04l1.07,0.59l-0.48,0.87
			l-1.07-0.59l-1.39,2.51c-0.53,0.96-0.53,1.75-0.38,2.5l-1.18-0.65c-0.13-0.68-0.03-1.43,0.48-2.35L950.65,359.42z"/>
	</g>
	<g>
		<path class="st13" d="M957.65,255.45l1.14,0.63l-1.81,6.84l4.71-5.24l1.12,0.62l-1.93,6.77l4.82-5.17l1.13,0.63l-6.17,6.18
			l-1.09-0.6l1.83-6.63l-4.62,5.09l-1.1-0.61L957.65,255.45z"/>
		<path class="st13" d="M969.07,270.08l-0.55,0.99l-3.06-1.7l0.55-0.99l1.07,0.59l2.8-5.06l-1.23,0.1l-0.07-1.07l2.18-0.25
			l0.92,0.51l-3.52,6.36L969.07,270.08z"/>
		<path class="st13" d="M975.64,265.21c0.92,0.51,1.47,1.24,1.81,2l-0.85,0.5c-0.34-0.6-0.68-1.09-1.44-1.51
			c-0.85-0.47-1.64-0.21-2.17,0.75l-0.59,1.06c0.52-0.07,1.23,0.09,1.79,0.4c1.24,0.69,1.82,1.8,1.01,3.25l-0.18,0.32
			c-0.8,1.45-2.2,1.65-3.6,0.88c-1.38-0.77-2.02-2-1.22-3.44l1.77-3.2C972.77,264.8,974.2,264.42,975.64,265.21z M971.38,269.86
			c-0.53,0.95-0.19,1.6,0.59,2.03s1.53,0.33,2.07-0.65c0.5-0.91,0.3-1.46-0.5-1.9c-0.57-0.31-1.19-0.43-1.69-0.33L971.38,269.86z"/>
		<path class="st13" d="M977.8,270.21l-0.88-0.49l0.48-0.87l0.88,0.49l0.58-1.04l1.04,0.58l-0.58,1.04l1.07,0.59l-0.48,0.87
			l-1.07-0.59l-1.39,2.51c-0.53,0.96-0.53,1.75-0.38,2.5l-1.17-0.65c-0.13-0.68-0.03-1.43,0.48-2.35L977.8,270.21z"/>
		<path class="st13" d="M981.83,277.39l1.46-2.64c0.45-0.82,0.4-1.33-0.31-1.72c-0.48-0.27-1.13-0.19-1.6,0.02l-2.18,3.94
			l-1.05-0.58l4.36-7.87l1.05,0.58l-1.63,2.95c0.58-0.17,1.23-0.15,1.78,0.15c1.27,0.7,1.41,1.69,0.7,2.98l-1.39,2.51
			c-0.14,0.25-0.05,0.39,0.13,0.5c0.09,0.05,0.21,0.09,0.33,0.12l-0.46,0.83c-0.28-0.09-0.52-0.19-0.72-0.3
			C981.71,278.5,981.46,278.06,981.83,277.39z"/>
		<path class="st13" d="M988.81,281.18c0.96,0.53,1.78,0.37,2.15-0.3c0.42-0.77,0.1-1.39-0.79-2.07c-1.12-0.85-1.73-1.92-0.93-3.38
			c0.66-1.2,1.94-1.6,3.41-0.79c0.93,0.52,1.4,1.14,1.76,1.92l-0.91,0.54c-0.34-0.6-0.69-1.08-1.38-1.46
			c-0.85-0.47-1.47-0.24-1.8,0.35c-0.46,0.83-0.07,1.36,0.72,1.99c1.01,0.79,1.89,1.88,1.04,3.42c-0.7,1.27-2.1,1.74-3.8,0.8
			c-0.96-0.54-1.61-1.32-1.93-2.03l0.9-0.57C987.6,280.18,988.1,280.79,988.81,281.18z"/>
		<path class="st13" d="M994.68,279.55l-0.88-0.49l0.48-0.87l0.88,0.49l0.58-1.04l1.04,0.58l-0.58,1.04l1.07,0.59l-0.48,0.87
			l-1.07-0.59l-1.39,2.51c-0.53,0.96-0.53,1.75-0.38,2.5l-1.17-0.65c-0.13-0.68-0.03-1.43,0.48-2.35L994.68,279.55z"/>
	</g>
	<g>
		<path class="st13" d="M998.17,184.93l1.14,0.63l-1.81,6.84l4.71-5.24l1.12,0.62l-1.93,6.77l4.82-5.17l1.13,0.63l-6.18,6.18
			l-1.09-0.6l1.83-6.63l-4.61,5.09l-1.1-0.61L998.17,184.93z"/>
		<path class="st13" d="M1009.59,199.56l-0.55,0.99l-3.06-1.7l0.54-0.99l1.07,0.59l2.8-5.06l-1.23,0.1l-0.07-1.07l2.18-0.25
			l0.92,0.51l-3.52,6.36L1009.59,199.56z"/>
		<path class="st13" d="M1015.97,196.06l-3.23-1.79l0.54-0.98l4.47,2.47l-0.37,0.66l-6.41,5.19l-1.16-0.64L1015.97,196.06z"/>
		<path class="st13" d="M1017.12,199.02l-0.88-0.49l0.48-0.87l0.88,0.49l0.58-1.04l1.04,0.58l-0.58,1.04l1.07,0.59l-0.48,0.87
			l-1.07-0.59l-1.39,2.51c-0.53,0.96-0.53,1.75-0.38,2.5l-1.17-0.65c-0.13-0.68-0.03-1.43,0.48-2.35L1017.12,199.02z"/>
		<path class="st13" d="M1021.15,206.2l1.46-2.64c0.45-0.82,0.4-1.33-0.31-1.72c-0.48-0.27-1.13-0.19-1.6,0.02l-2.18,3.93
			l-1.05-0.58l4.36-7.87l1.05,0.58l-1.63,2.95c0.58-0.17,1.24-0.15,1.78,0.15c1.27,0.7,1.41,1.69,0.7,2.98l-1.39,2.51
			c-0.14,0.25-0.05,0.39,0.13,0.5c0.09,0.05,0.21,0.09,0.33,0.12l-0.46,0.83c-0.28-0.09-0.52-0.19-0.72-0.3
			C1021.03,207.31,1020.78,206.87,1021.15,206.2z"/>
		<path class="st13" d="M1028.13,210c0.97,0.54,1.78,0.37,2.16-0.3c0.42-0.77,0.1-1.39-0.79-2.07c-1.12-0.85-1.74-1.92-0.93-3.38
			c0.66-1.2,1.94-1.6,3.41-0.79c0.93,0.52,1.4,1.14,1.76,1.92l-0.91,0.54c-0.34-0.6-0.69-1.08-1.38-1.46
			c-0.85-0.47-1.47-0.24-1.8,0.35c-0.46,0.83-0.07,1.36,0.72,1.99c1.01,0.79,1.89,1.88,1.04,3.42c-0.7,1.27-2.1,1.74-3.8,0.8
			c-0.96-0.53-1.61-1.32-1.93-2.03l0.9-0.57C1026.91,209,1027.42,209.6,1028.13,210z"/>
		<path class="st13" d="M1034,208.36l-0.88-0.49l0.48-0.87l0.88,0.49l0.58-1.04l1.04,0.58l-0.58,1.04l1.07,0.59l-0.48,0.87
			l-1.07-0.59l-1.39,2.51c-0.53,0.96-0.53,1.75-0.38,2.5l-1.17-0.65c-0.13-0.68-0.03-1.43,0.48-2.35L1034,208.36z"/>
	</g>
	<g>
		<path class="st13" d="M1036.63,112.34l1.14,0.63l-1.81,6.84l4.71-5.24l1.12,0.62l-1.93,6.78l4.82-5.17l1.13,0.63l-6.17,6.18
			l-1.09-0.6l1.83-6.63l-4.62,5.1l-1.1-0.61L1036.63,112.34z"/>
		<path class="st13" d="M1048.05,126.97l-0.55,0.99l-3.06-1.7l0.55-0.99l1.07,0.59l2.8-5.06l-1.23,0.1l-0.07-1.07l2.18-0.25
			l0.92,0.51l-3.52,6.36L1048.05,126.97z"/>
		<path class="st13" d="M1049.29,126c0.35-0.64,1.2-1.12,1.87-1.15c-0.28-0.63-0.21-1.45,0.09-2c0.64-1.17,1.82-1.6,3.4-0.72
			s1.85,2.11,1.21,3.27c-0.3,0.54-0.92,1.02-1.64,1.13c0.37,0.6,0.36,1.56,0,2.2l-0.12,0.21c-0.67,1.21-1.96,1.78-3.68,0.83
			s-1.92-2.35-1.25-3.56L1049.29,126z M1050.32,126.81c-0.37,0.67-0.32,1.45,0.64,1.99c0.97,0.53,1.65,0.16,2.02-0.51l0.04-0.07
			c0.41-0.74,0.21-1.58-0.49-1.97l-0.25-0.14c-0.69-0.38-1.51-0.11-1.93,0.63L1050.32,126.81z M1052.94,125.35
			c0.69,0.38,1.47,0.14,1.82-0.49c0.34-0.62,0.23-1.34-0.62-1.81c-0.85-0.47-1.52-0.18-1.86,0.44c-0.35,0.63-0.17,1.4,0.51,1.78
			L1052.94,125.35z"/>
		<path class="st13" d="M1056.83,127.13l-0.88-0.49l0.48-0.87l0.88,0.49l0.58-1.04l1.04,0.57l-0.58,1.04l1.07,0.59l-0.48,0.87
			l-1.07-0.59l-1.39,2.51c-0.53,0.96-0.53,1.75-0.38,2.5l-1.17-0.65c-0.13-0.68-0.03-1.43,0.48-2.35L1056.83,127.13z"/>
		<path class="st13" d="M1060.86,134.31l1.46-2.64c0.45-0.82,0.4-1.33-0.31-1.72c-0.48-0.27-1.13-0.19-1.6,0.02l-2.18,3.94
			l-1.05-0.58l4.36-7.87l1.05,0.58l-1.63,2.95c0.58-0.17,1.24-0.15,1.78,0.15c1.27,0.7,1.41,1.69,0.7,2.98l-1.39,2.51
			c-0.14,0.25-0.05,0.39,0.13,0.5c0.09,0.05,0.21,0.09,0.33,0.12l-0.46,0.83c-0.28-0.09-0.52-0.19-0.72-0.3
			C1060.74,135.42,1060.49,134.98,1060.86,134.31z"/>
		<path class="st13" d="M1067.84,138.1c0.97,0.54,1.78,0.37,2.16-0.3c0.42-0.77,0.1-1.39-0.79-2.07c-1.12-0.85-1.73-1.92-0.93-3.38
			c0.66-1.2,1.94-1.6,3.41-0.79c0.93,0.52,1.4,1.14,1.76,1.92l-0.91,0.54c-0.34-0.6-0.69-1.08-1.38-1.46
			c-0.85-0.47-1.47-0.24-1.8,0.35c-0.46,0.83-0.07,1.36,0.72,1.99c1.01,0.79,1.89,1.88,1.04,3.41c-0.7,1.27-2.1,1.74-3.8,0.8
			c-0.96-0.54-1.61-1.32-1.93-2.03l0.9-0.57C1066.63,137.1,1067.13,137.71,1067.84,138.1z"/>
		<path class="st13" d="M1073.71,136.47l-0.88-0.49l0.48-0.87l0.88,0.49l0.58-1.04l1.04,0.58l-0.58,1.04l1.07,0.59l-0.48,0.87
			l-1.07-0.59l-1.39,2.51c-0.53,0.96-0.53,1.75-0.38,2.5l-1.17-0.65c-0.13-0.68-0.03-1.43,0.48-2.35L1073.71,136.47z"/>
	</g>
	<g>
		<path class="st13" d="M1076.98,39.47l1.14,0.63l-1.81,6.84l4.71-5.24l1.12,0.62l-1.93,6.78l4.82-5.17l1.13,0.63l-6.17,6.18
			l-1.09-0.6l1.83-6.63l-4.62,5.1l-1.1-0.61L1076.98,39.47z"/>
		<path class="st13" d="M1088.4,54.1l-0.54,0.99l-3.06-1.7l0.55-0.99l1.07,0.59l2.8-5.06l-1.23,0.1l-0.07-1.07l2.18-0.25l0.92,0.51
			l-3.52,6.36L1088.4,54.1z"/>
		<path class="st13" d="M1091.21,55.87c0.84,0.46,1.65,0.27,2.18-0.7l0.56-1.02c-0.53,0.02-1.14-0.19-1.7-0.5
			c-1.25-0.69-1.83-1.81-1.02-3.25l0.17-0.3c0.8-1.45,2.17-1.64,3.56-0.87c1.4,0.77,2.02,1.97,1.22,3.42l-1.79,3.24
			c-0.78,1.42-2.15,1.81-3.69,0.96c-0.94-0.52-1.49-1.17-1.86-1.95l0.88-0.53C1090.07,55,1090.45,55.45,1091.21,55.87z M1095,52.24
			c0.53-0.97,0.2-1.6-0.58-2.03s-1.48-0.34-2.02,0.63c-0.5,0.9-0.3,1.44,0.5,1.88c0.57,0.31,1.07,0.48,1.58,0.46L1095,52.24z"/>
		<path class="st13" d="M1097.11,54.22l-0.88-0.49l0.48-0.87l0.88,0.49l0.57-1.04l1.04,0.57l-0.57,1.04l1.07,0.59l-0.48,0.87
			l-1.07-0.59l-1.39,2.51c-0.53,0.96-0.53,1.75-0.38,2.5l-1.18-0.65c-0.13-0.68-0.03-1.43,0.48-2.35L1097.11,54.22z"/>
		<path class="st13" d="M1101.14,61.4l1.46-2.64c0.45-0.82,0.4-1.33-0.31-1.72c-0.48-0.27-1.13-0.19-1.6,0.02l-2.18,3.94l-1.05-0.58
			l4.36-7.87l1.05,0.58l-1.63,2.95c0.58-0.17,1.24-0.15,1.78,0.15c1.27,0.7,1.41,1.69,0.7,2.98l-1.39,2.51
			c-0.14,0.25-0.05,0.39,0.13,0.5c0.1,0.05,0.21,0.09,0.33,0.12l-0.46,0.83c-0.28-0.09-0.52-0.19-0.72-0.3
			C1101.02,62.51,1100.77,62.07,1101.14,61.4z"/>
		<path class="st13" d="M1108.12,65.19c0.96,0.54,1.78,0.37,2.15-0.3c0.42-0.77,0.1-1.38-0.79-2.07c-1.12-0.85-1.73-1.92-0.93-3.38
			c0.66-1.2,1.94-1.6,3.41-0.79c0.93,0.52,1.4,1.14,1.76,1.92l-0.91,0.54c-0.34-0.6-0.69-1.08-1.38-1.46
			c-0.85-0.47-1.47-0.24-1.8,0.35c-0.46,0.83-0.07,1.36,0.72,1.99c1.01,0.79,1.89,1.88,1.04,3.42c-0.7,1.27-2.1,1.74-3.8,0.8
			c-0.97-0.54-1.61-1.32-1.93-2.03l0.9-0.57C1106.9,64.19,1107.41,64.79,1108.12,65.19z"/>
		<path class="st13" d="M1113.99,63.56l-0.88-0.49l0.48-0.87l0.88,0.49l0.57-1.04l1.04,0.57l-0.57,1.04l1.07,0.59l-0.48,0.87
			l-1.07-0.59l-1.39,2.51c-0.53,0.96-0.53,1.75-0.38,2.5l-1.18-0.65c-0.13-0.68-0.03-1.43,0.48-2.35L1113.99,63.56z"/>
	</g>
	<g>
		<path class="st13" d="M820.52,503.8l1.14,0.63l-1.81,6.84l4.71-5.24l1.12,0.62l-1.93,6.77l4.82-5.17l1.13,0.63l-6.17,6.18
			l-1.09-0.6l1.83-6.63l-4.62,5.09l-1.1-0.61L820.52,503.8z"/>
		<path class="st13" d="M831.94,518.43l-0.55,0.99l-3.06-1.7l0.55-0.99l1.07,0.59l2.8-5.06l-1.23,0.1l-0.07-1.07l2.18-0.25
			l0.92,0.51l-3.52,6.36L831.94,518.43z"/>
		<path class="st13" d="M832.22,519.11l0.84-0.58c0.35,0.59,0.73,1.13,1.48,1.54c0.86,0.48,1.56,0.22,2-0.58
			c0.52-0.94,0.27-1.59-0.46-1.99l-0.76-0.42l0.47-0.85l0.8,0.44c0.72,0.4,1.33,0.12,1.69-0.55c0.34-0.64,0.27-1.29-0.49-1.71
			c-0.75-0.42-1.34-0.48-2.02-0.49l0.06-0.94c0.82-0.08,1.62-0.01,2.54,0.5c1.49,0.82,1.64,2.06,1.02,3.19
			c-0.3,0.55-0.87,1.03-1.59,1.14c0.38,0.55,0.32,1.55-0.03,2.19l-0.11,0.2c-0.7,1.27-2,1.76-3.57,0.89
			C833.15,520.58,832.58,519.87,832.22,519.11z"/>
		<path class="st13" d="M840.41,518.42l-0.88-0.49l0.48-0.87l0.88,0.49l0.58-1.04l1.04,0.58l-0.58,1.04l1.07,0.59l-0.48,0.87
			l-1.07-0.59l-1.39,2.51c-0.53,0.96-0.53,1.75-0.38,2.5l-1.17-0.65c-0.13-0.68-0.03-1.43,0.48-2.35L840.41,518.42z"/>
		<path class="st13" d="M844.44,525.6l1.46-2.64c0.45-0.82,0.41-1.33-0.31-1.72c-0.48-0.27-1.13-0.19-1.6,0.02l-2.18,3.93
			l-1.05-0.58l4.36-7.87l1.05,0.58l-1.63,2.95c0.58-0.17,1.23-0.15,1.78,0.15c1.27,0.7,1.41,1.69,0.7,2.98l-1.39,2.51
			c-0.14,0.25-0.05,0.39,0.13,0.5c0.09,0.05,0.21,0.09,0.33,0.12l-0.46,0.83c-0.28-0.09-0.52-0.19-0.72-0.3
			C844.32,526.71,844.07,526.27,844.44,525.6z"/>
		<path class="st13" d="M851.42,529.39c0.97,0.53,1.78,0.37,2.16-0.3c0.42-0.77,0.1-1.39-0.79-2.07c-1.12-0.85-1.73-1.92-0.93-3.38
			c0.66-1.2,1.94-1.6,3.41-0.79c0.93,0.52,1.4,1.14,1.76,1.92l-0.91,0.54c-0.34-0.6-0.69-1.08-1.38-1.46
			c-0.85-0.47-1.47-0.24-1.8,0.35c-0.46,0.83-0.07,1.36,0.72,1.99c1.01,0.79,1.89,1.88,1.04,3.42c-0.7,1.27-2.1,1.74-3.8,0.8
			c-0.97-0.53-1.62-1.32-1.93-2.03l0.9-0.57C850.21,528.39,850.71,529,851.42,529.39z"/>
		<path class="st13" d="M857.29,527.76l-0.88-0.49l0.48-0.87l0.88,0.49l0.58-1.04l1.04,0.58l-0.58,1.04l1.07,0.59l-0.48,0.87
			l-1.07-0.59l-1.39,2.51c-0.53,0.96-0.53,1.75-0.38,2.5l-1.17-0.65c-0.13-0.68-0.03-1.43,0.48-2.35L857.29,527.76z"/>
	</g>
	<g>
		<path class="st13" d="M928.79,636.26l1.25-0.01l0.04,3.49l3.13-0.04l-0.04-3.49l1.25-0.02l0.1,8.4l-1.25,0.01l-0.04-3.78
			l-3.13,0.04l0.04,3.78l-1.25,0.02L928.79,636.26z"/>
		<path class="st13" d="M935.91,640.71c-0.02-1.56,0.93-2.5,2.48-2.52c1.55-0.02,2.5,0.91,2.52,2.46l0.02,1.49
			c0.02,1.56-0.93,2.51-2.46,2.52c-1.55,0.02-2.52-0.91-2.54-2.46L935.91,640.71z M937.11,642.05c0.01,1.03,0.49,1.57,1.34,1.56
			c0.84-0.01,1.3-0.56,1.29-1.59l-0.01-1.22c-0.01-1.03-0.49-1.57-1.33-1.56c-0.85,0.01-1.31,0.56-1.3,1.59L937.11,642.05z"/>
		<path class="st13" d="M942.39,638.26l1.03-0.01l0.13,0.74c0.44-0.52,1.12-0.88,1.79-0.88l0.11,1.1c-0.74,0.01-1.41,0.38-1.84,0.91
			l0.05,4.37l-1.2,0.01L942.39,638.26z"/>
		<path class="st13" d="M949.89,643.75c-0.47,0.5-1.11,0.79-1.8,0.8c-1.38,0.02-2.07-0.89-2.09-2.43l-0.02-1.58
			c-0.02-1.56,0.84-2.44,2.25-2.46c0.59-0.01,1.17,0.15,1.64,0.4l0.16-0.3l0.86-0.01l0.06,4.92c0.01,0.55,0.38,0.51,0.71,0.4
			l0.01,0.95C950.68,644.65,950.08,644.45,949.89,643.75z M949.72,639.43c-0.4-0.21-0.88-0.31-1.36-0.31
			c-0.79,0.01-1.22,0.52-1.21,1.53l0.02,1.29c0.01,1.02,0.31,1.56,1.14,1.55c0.58-0.01,1.12-0.42,1.44-0.89L949.72,639.43z"/>
		<path class="st13" d="M952.58,639.13l-1.01,0.01l-0.01-1l1.01-0.01l-0.01-1.19l1.19-0.01l0.01,1.19l1.22-0.01l0.01,0.99
			l-1.22,0.02l0.03,2.87c0.01,1.1,0.41,1.78,0.9,2.36l-1.34,0.02c-0.45-0.52-0.73-1.23-0.75-2.28L952.58,639.13z"/>
		<path class="st13" d="M956.46,637.08c-0.47,0-0.79-0.24-0.8-0.73c-0.01-0.49,0.31-0.76,0.78-0.77c0.46-0.01,0.79,0.25,0.8,0.75
			S956.92,637.08,956.46,637.08z M957.08,638.08l0.07,6.24l-1.2,0.01l-0.07-6.24L957.08,638.08z"/>
		<path class="st13" d="M958.61,640.44c-0.02-1.56,0.93-2.5,2.48-2.52c1.55-0.02,2.5,0.91,2.52,2.46l0.02,1.49
			c0.02,1.56-0.93,2.51-2.46,2.53c-1.55,0.02-2.52-0.91-2.54-2.46L958.61,640.44z M959.82,641.78c0.01,1.03,0.49,1.57,1.34,1.55
			c0.84-0.01,1.3-0.55,1.29-1.59l-0.01-1.22c-0.01-1.03-0.49-1.57-1.33-1.56c-0.85,0.01-1.31,0.56-1.3,1.59L959.82,641.78z"/>
		<path class="st13" d="M970.36,643.19c1.1-0.01,1.73-0.56,1.72-1.33c-0.01-0.88-0.6-1.25-1.71-1.41c-1.39-0.19-2.46-0.81-2.48-2.48
			c-0.02-1.37,0.9-2.35,2.57-2.37c1.07-0.01,1.78,0.3,2.48,0.8l-0.53,0.92c-0.59-0.35-1.13-0.6-1.93-0.59
			c-0.97,0.01-1.4,0.52-1.39,1.19c0.01,0.95,0.61,1.22,1.61,1.37c1.27,0.19,2.58,0.7,2.6,2.45c0.02,1.45-0.96,2.55-2.91,2.58
			c-1.1,0.01-2.05-0.35-2.68-0.81l0.5-0.94C968.81,642.92,969.54,643.2,970.36,643.19z"/>
		<path class="st13" d="M974.65,638.87l-1.01,0.01l-0.01-1l1.01-0.01l-0.01-1.19l1.19-0.01l0.01,1.19l1.22-0.02l0.01,1l-1.22,0.01
			l0.03,2.87c0.01,1.1,0.41,1.78,0.9,2.36l-1.34,0.02c-0.45-0.52-0.73-1.23-0.75-2.28L974.65,638.87z"/>
	</g>
	<g>
		<path class="st13" d="M929.14,696.96c0.33-0.34,0.53-0.88,0.52-1.55l-0.09-7.82l1.25-0.01l0.09,7.92
			c0.01,1.07-0.41,1.84-1.05,2.29L929.14,696.96z"/>
		<path class="st13" d="M936.22,695.24c-0.47,0.5-1.11,0.79-1.8,0.8c-1.38,0.02-2.07-0.89-2.09-2.43l-0.02-1.58
			c-0.02-1.56,0.84-2.44,2.25-2.46c0.59-0.01,1.17,0.15,1.64,0.4l0.16-0.3l0.86-0.01l0.06,4.92c0.01,0.55,0.38,0.51,0.71,0.4
			l0.01,0.95C937.01,696.14,936.41,695.95,936.22,695.24z M936.05,690.93c-0.4-0.21-0.88-0.31-1.36-0.31
			c-0.79,0.01-1.22,0.52-1.21,1.53l0.02,1.3c0.01,1.02,0.31,1.56,1.14,1.55c0.58-0.01,1.12-0.42,1.44-0.89L936.05,690.93z"/>
		<path class="st13" d="M942.55,694.92l-0.04-2.99c-0.01-0.94-0.28-1.39-1.11-1.38c-0.55,0.01-1.09,0.42-1.39,0.84l0.05,4.46
			l-1.2,0.01l-0.07-6.24l1.03-0.01l0.12,0.67c0.42-0.44,1.06-0.8,1.71-0.81c1.43-0.02,2.04,0.8,2.05,2.28l0.03,2.83
			c0,0.29,0.15,0.37,0.36,0.37c0.11,0,0.23-0.03,0.35-0.06l0.01,0.95c-0.29,0.06-0.55,0.09-0.78,0.09
			C943,695.94,942.56,695.68,942.55,694.92z"/>
		<path class="st13" d="M947.77,695.88c-1.55,0.02-2.52-0.91-2.54-2.46l-0.02-1.49c-0.02-1.55,0.93-2.51,2.48-2.52
			c1.55-0.02,2.5,0.92,2.52,2.46l0.01,1.12l-3.81,0.04l0,0.29c0.01,1.03,0.5,1.53,1.35,1.52c0.76-0.01,1.34-0.26,1.85-0.57
			l0.48,0.83C949.55,695.53,948.78,695.87,947.77,695.88z M949.04,692.13l0-0.14c-0.01-1.02-0.47-1.54-1.33-1.53
			c-0.85,0.01-1.32,0.53-1.31,1.56l0,0.14L949.04,692.13z"/>
		<path class="st13" d="M956.94,694.68c1.1-0.01,1.73-0.56,1.72-1.33c-0.01-0.88-0.6-1.25-1.71-1.41c-1.39-0.19-2.46-0.81-2.48-2.48
			c-0.02-1.37,0.9-2.35,2.57-2.37c1.07-0.01,1.78,0.3,2.48,0.8l-0.53,0.92c-0.59-0.35-1.13-0.6-1.93-0.59
			c-0.97,0.01-1.4,0.52-1.39,1.19c0.01,0.95,0.61,1.21,1.61,1.37c1.27,0.19,2.58,0.7,2.6,2.45c0.02,1.45-0.96,2.55-2.91,2.58
			c-1.1,0.01-2.05-0.35-2.68-0.81l0.5-0.94C955.39,694.41,956.12,694.69,956.94,694.68z"/>
		<path class="st13" d="M961.24,690.36l-1.01,0.01l-0.01-1l1.01-0.01l-0.01-1.19l1.19-0.01l0.01,1.19l1.22-0.01l0.01,1l-1.22,0.01
			l0.03,2.87c0.01,1.1,0.41,1.78,0.9,2.36l-1.34,0.02c-0.45-0.52-0.73-1.23-0.75-2.28L961.24,690.36z"/>
	</g>
	<g>
		<path class="st13" d="M1330.09,786.26l1.14,0.63l-1.81,6.84l4.71-5.24l1.12,0.62l-1.93,6.77l4.82-5.17l1.13,0.63l-6.17,6.18
			l-1.09-0.6l1.83-6.63l-4.62,5.09l-1.1-0.61L1330.09,786.26z"/>
		<path class="st13" d="M1341.51,800.88l-0.55,0.99l-3.06-1.7l0.55-0.99l1.07,0.59l2.8-5.06l-1.23,0.1l-0.07-1.07l2.18-0.25
			l0.92,0.51l-3.52,6.36L1341.51,800.88z"/>
		<path class="st13" d="M1341.79,801.56l0.84-0.58c0.35,0.59,0.73,1.13,1.48,1.54c0.86,0.48,1.56,0.22,2-0.58
			c0.52-0.94,0.27-1.59-0.46-1.99l-0.77-0.42l0.47-0.85l0.8,0.44c0.72,0.4,1.33,0.12,1.69-0.55c0.34-0.64,0.27-1.29-0.49-1.71
			c-0.76-0.42-1.34-0.48-2.02-0.49l0.05-0.94c0.83-0.08,1.62-0.01,2.54,0.5c1.49,0.82,1.64,2.06,1.02,3.19
			c-0.3,0.55-0.87,1.03-1.59,1.14c0.38,0.55,0.32,1.55-0.03,2.19l-0.11,0.2c-0.7,1.27-2,1.76-3.58,0.89
			C1342.72,803.04,1342.15,802.32,1341.79,801.56z"/>
		<path class="st13" d="M1349.98,800.87l-0.88-0.49l0.48-0.87l0.88,0.49l0.57-1.04l1.04,0.58l-0.57,1.04l1.07,0.59l-0.48,0.87
			l-1.07-0.59l-1.39,2.51c-0.53,0.96-0.53,1.75-0.38,2.5l-1.18-0.65c-0.13-0.68-0.03-1.43,0.48-2.35L1349.98,800.87z"/>
		<path class="st13" d="M1354.01,808.05l1.46-2.64c0.45-0.82,0.4-1.33-0.31-1.72c-0.48-0.27-1.13-0.19-1.6,0.02l-2.18,3.93
			l-1.05-0.58l4.36-7.87l1.05,0.58l-1.63,2.95c0.58-0.17,1.24-0.15,1.78,0.15c1.27,0.7,1.41,1.69,0.7,2.98l-1.39,2.51
			c-0.14,0.25-0.05,0.39,0.13,0.5c0.09,0.05,0.21,0.09,0.33,0.12l-0.46,0.83c-0.28-0.09-0.52-0.19-0.72-0.3
			C1353.89,809.16,1353.64,808.72,1354.01,808.05z"/>
		<path class="st13" d="M1360.99,811.85c0.97,0.53,1.78,0.37,2.15-0.3c0.42-0.77,0.1-1.39-0.79-2.07c-1.12-0.85-1.74-1.92-0.93-3.38
			c0.66-1.2,1.94-1.6,3.41-0.79c0.93,0.52,1.4,1.14,1.76,1.92l-0.91,0.54c-0.34-0.6-0.69-1.08-1.38-1.46
			c-0.85-0.47-1.47-0.24-1.8,0.35c-0.46,0.83-0.07,1.36,0.72,1.99c1.01,0.79,1.89,1.88,1.04,3.42c-0.7,1.27-2.1,1.74-3.8,0.8
			c-0.97-0.53-1.61-1.32-1.93-2.03l0.9-0.57C1359.78,810.85,1360.28,811.45,1360.99,811.85z"/>
		<path class="st13" d="M1366.86,810.21l-0.88-0.49l0.48-0.87l0.88,0.49l0.58-1.04l1.04,0.58l-0.57,1.04l1.07,0.59l-0.48,0.87
			l-1.07-0.59l-1.39,2.51c-0.53,0.96-0.53,1.75-0.38,2.5l-1.18-0.65c-0.13-0.68-0.03-1.43,0.48-2.35L1366.86,810.21z"/>
	</g>
	<g>
		<path class="st13" d="M1037.61,666.99c0.53,1.12,0.52,1.92,0.35,2.73l-1.03-0.1c0.09-0.68,0.1-1.25-0.33-2.15
			c-0.4-0.85-1.25-1.17-2.23-0.71l-2.78,1.31c-1,0.47-1.32,1.23-0.93,2.06c0.28,0.59,0.82,1.03,1.49,1.16l1.47-0.7l-0.71-1.5
			l0.98-0.46l1.24,2.62l-4.19,1.98l-0.4-0.85l0.64-0.53c-0.65-0.25-1.28-0.72-1.64-1.48c-0.67-1.42-0.14-2.68,1.35-3.38l3.07-1.45
			C1035.45,664.86,1036.91,665.5,1037.61,666.99z"/>
		<path class="st13" d="M1037.32,671.82l0.44,0.93l-0.62,0.43c0.66,0.18,1.26,0.65,1.55,1.26l-0.96,0.56
			c-0.32-0.67-0.93-1.12-1.59-1.29l-3.95,1.87l-0.51-1.08L1037.32,671.82z"/>
		<path class="st13" d="M1034.18,680.04c-0.66-1.4-0.23-2.67,1.18-3.33l1.34-0.63c1.4-0.66,2.67-0.2,3.33,1.2s0.21,2.66-1.19,3.32
			l-1.01,0.48l-1.63-3.45l-0.26,0.12c-0.93,0.44-1.18,1.09-0.82,1.86c0.32,0.68,0.79,1.11,1.29,1.45l-0.56,0.78
			C1035.24,681.51,1034.61,680.96,1034.18,680.04z M1038.12,679.63l0.13-0.06c0.92-0.44,1.2-1.07,0.84-1.84
			c-0.36-0.77-1.04-0.98-1.97-0.54l-0.13,0.06L1038.12,679.63z"/>
		<path class="st13" d="M1036.92,685.85c-0.66-1.4-0.23-2.67,1.18-3.33l1.34-0.64c1.4-0.66,2.67-0.2,3.33,1.2
			c0.66,1.4,0.21,2.66-1.19,3.32l-1.01,0.48l-1.63-3.45l-0.26,0.12c-0.93,0.44-1.18,1.09-0.82,1.86c0.32,0.68,0.79,1.11,1.29,1.45
			l-0.56,0.78C1037.98,687.31,1037.35,686.76,1036.92,685.85z M1040.86,685.43l0.13-0.06c0.92-0.44,1.2-1.07,0.84-1.84
			c-0.36-0.77-1.04-0.98-1.97-0.54l-0.13,0.06L1040.86,685.43z"/>
		<path class="st13" d="M1041.13,692.34l2.7-1.28c0.85-0.4,1.15-0.83,0.79-1.58c-0.24-0.5-0.84-0.81-1.35-0.92l-4.03,1.91
			l-0.51-1.08l5.64-2.67l0.44,0.93l-0.56,0.38c0.57,0.2,1.17,0.63,1.45,1.21c0.61,1.29,0.12,2.19-1.22,2.82l-2.56,1.21
			c-0.26,0.12-0.27,0.29-0.18,0.48c0.05,0.1,0.12,0.2,0.2,0.29l-0.86,0.41c-0.18-0.24-0.31-0.46-0.41-0.67
			C1040.38,693.17,1040.44,692.67,1041.13,692.34z"/>
		<path class="st13" d="M1046.77,691.81l0.53,1.13l-3.75,3.1l4.79-0.9l0.53,1.13l-3.69,3.16l4.75-0.93l0.53,1.12l-6.43,0.99
			l-0.51-1.08l3.67-3.18l-4.76,0.87l-0.51-1.09L1046.77,691.81z"/>
		<path class="st13" d="M1051.34,701.48l-5.64,2.67l-0.51-1.08l5.64-2.67L1051.34,701.48z M1051.99,700.49
			c-0.2-0.42-0.11-0.82,0.33-1.03c0.44-0.21,0.82-0.03,1.02,0.39c0.2,0.41,0.1,0.83-0.34,1.04S1052.19,700.91,1051.99,700.49z"/>
		<path class="st13" d="M1048.27,707.39c0.32,0.68,0.72,0.99,1.22,1.32l-0.55,0.79c-0.62-0.33-1.21-0.78-1.64-1.69
			c-0.66-1.4-0.21-2.66,1.19-3.32l1.34-0.64c1.4-0.66,2.66-0.21,3.32,1.19c0.44,0.93,0.4,1.59,0.26,2.34l-0.96-0.09
			c0.07-0.63,0.1-1.05-0.24-1.77c-0.37-0.79-1.06-0.98-2-0.54l-1.08,0.51C1048.19,705.94,1047.9,706.6,1048.27,707.39z"/>
		<path class="st13" d="M1051.36,713.97l2.73-1.29c0.85-0.4,1.1-0.84,0.75-1.58c-0.24-0.5-0.81-0.81-1.31-0.92l-4.07,1.92
			l-0.51-1.08l8.13-3.85l0.51,1.08l-3.05,1.44c0.57,0.2,1.09,0.6,1.36,1.16c0.62,1.31,0.16,2.19-1.17,2.82l-2.59,1.22
			c-0.26,0.12-0.27,0.29-0.18,0.48c0.05,0.1,0.12,0.2,0.2,0.29l-0.86,0.4c-0.18-0.23-0.31-0.46-0.41-0.67
			C1050.61,714.8,1050.66,714.3,1051.36,713.97z"/>
		<path class="st13" d="M1056.29,722.35l-1.25-2.64l-1.9,0.16l-0.58-1.24l7.95-0.44l0.78-0.74l0.54,1.14l-6.29,6.33l-0.59-1.25
			L1056.29,722.35z M1056.13,719.61l0.94,1.98l2.31-2.24L1056.13,719.61z"/>
		<path class="st13" d="M1060.97,721.85l0.54,1.14l-3.66,3.45l4.98-0.67l0.54,1.14l-6.59,0.65l-0.49-1.04L1060.97,721.85z"/>
		<path class="st13" d="M1058.93,732.41c-0.66-1.4-0.23-2.67,1.18-3.33l1.34-0.63c1.4-0.66,2.67-0.2,3.33,1.2s0.21,2.66-1.19,3.32
			l-1.01,0.48l-1.63-3.45l-0.26,0.12c-0.93,0.44-1.18,1.09-0.82,1.86c0.32,0.68,0.79,1.11,1.29,1.45l-0.56,0.78
			C1060,733.87,1059.37,733.32,1058.93,732.41z M1062.88,731.99l0.13-0.06c0.92-0.44,1.2-1.07,0.84-1.84
			c-0.36-0.77-1.04-0.98-1.97-0.54l-0.13,0.06L1062.88,731.99z"/>
	</g>
	<g>
		<path class="st13" d="M689.56,612.26l0.15-1.24l3.47,0.41l0.37-3.11l-3.47-0.41l0.15-1.24l8.34,0.99l-0.15,1.24l-3.75-0.44
			l-0.37,3.11l3.75,0.44l-0.15,1.24L689.56,612.26z"/>
		<path class="st13" d="M696.55,605.94l-4.01-0.47l0.14-1.18l3.91,0.46c0.92,0.11,1.39-0.1,1.48-0.84c0.07-0.57-0.27-1.15-0.7-1.52
			l-4.39-0.52l0.14-1.19l4.88,0.58c0.55,0.06,0.55-0.29,0.49-0.64l0.94,0.11c0.1,1.03-0.18,1.59-0.9,1.68
			c0.43,0.53,0.65,1.19,0.56,1.88C698.92,605.58,698.08,606.12,696.55,605.94z"/>
		<path class="st13" d="M699.27,596c0.43,0.53,0.64,1.2,0.56,1.89c-0.16,1.37-1.15,1.94-2.68,1.76l-1.57-0.19
			c-1.55-0.18-2.33-1.03-2.17-2.43c0.07-0.6,0.27-1.13,0.51-1.54l-2.94-0.35l0.14-1.18l7.62,0.9c0.55,0.06,0.56-0.31,0.49-0.65
			l0.94,0.11C700.26,595.34,699.99,595.9,699.27,596z M694.97,595.61c-0.25,0.37-0.43,0.88-0.49,1.36
			c-0.09,0.79,0.36,1.23,1.36,1.34l1.29,0.15c1.01,0.12,1.58-0.1,1.68-0.94c0.07-0.57-0.27-1.17-0.7-1.54L694.97,595.61z"/>
		<path class="st13" d="M699.61,591.3c0.1-0.85-0.24-1.31-0.71-1.36c-0.56-0.07-0.8,0.34-1.06,1.24c-0.3,1.02-0.65,1.99-2.14,1.81
			c-1.04-0.12-1.7-0.91-1.52-2.43c0.12-0.98,0.49-1.58,1-2.15l0.76,0.55c-0.38,0.5-0.68,0.97-0.77,1.68
			c-0.09,0.79,0.21,1.11,0.65,1.16c0.67,0.08,0.82-0.43,1.05-1.24c0.29-1,0.66-1.98,2.13-1.81c1.06,0.11,1.78,1.07,1.6,2.62
			c-0.12,1-0.55,1.76-1.02,2.28l-0.78-0.55C699.2,592.63,699.52,592.05,699.61,591.3z"/>
		<path class="st13" d="M697.07,587.31c-1.55-0.18-2.37-1.25-2.18-2.78c0.18-1.54,1.22-2.37,2.77-2.19l1.48,0.18
			c1.55,0.18,2.36,1.24,2.18,2.77c-0.18,1.54-1.22,2.38-2.77,2.2L697.07,587.31z M698.56,586.29c1.02,0.12,1.62-0.28,1.71-1.12
			c0.1-0.83-0.38-1.36-1.41-1.48l-1.21-0.14c-1.02-0.12-1.62,0.28-1.71,1.11c-0.1,0.85,0.38,1.37,1.41,1.49L698.56,586.29z"/>
		<path class="st13" d="M701.2,577.53l-2.96-0.35c-0.93-0.11-1.41,0.1-1.51,0.92c-0.06,0.55,0.28,1.13,0.66,1.49l4.43,0.52
			l-0.14,1.19l-6.19-0.73l0.12-1.02l0.68-0.03c-0.38-0.47-0.66-1.15-0.58-1.8c0.17-1.42,1.06-1.91,2.52-1.74l2.81,0.33
			c0.29,0.03,0.39-0.1,0.41-0.31c0.01-0.11,0-0.23-0.02-0.35l0.94,0.11c0.03,0.29,0.02,0.56-0.01,0.78
			C702.27,577.22,701.96,577.62,701.2,577.53z"/>
		<path class="st13" d="M702.08,569.61c0.13-1.1-0.33-1.79-1.09-1.88c-0.87-0.1-1.32,0.44-1.62,1.51c-0.37,1.36-1.12,2.33-2.78,2.14
			c-1.36-0.16-2.21-1.19-2.02-2.86c0.13-1.06,0.53-1.72,1.11-2.36l0.84,0.64c-0.43,0.54-0.74,1.05-0.83,1.83
			c-0.11,0.96,0.34,1.45,1,1.53c0.94,0.11,1.29-0.45,1.57-1.42c0.35-1.24,1.03-2.46,2.77-2.26c1.44,0.17,2.41,1.29,2.18,3.22
			c-0.13,1.1-0.61,1.99-1.15,2.56l-0.87-0.62C701.61,571.11,701.98,570.42,702.08,569.61z"/>
		<path class="st13" d="M698.35,564.79l-0.12,1l-0.99-0.12l0.12-1l-1.18-0.14l0.14-1.18l1.18,0.14l0.14-1.22l0.99,0.12l-0.14,1.22
			l2.85,0.34c1.09,0.13,1.82-0.17,2.46-0.59l-0.16,1.33c-0.58,0.38-1.31,0.57-2.36,0.45L698.35,564.79z"/>
	</g>
	<g>
		<path class="st13" d="M1285.83,866.17l1.14,0.63l-1.81,6.84l4.71-5.24l1.12,0.62l-1.93,6.77l4.82-5.17l1.13,0.63l-6.17,6.18
			l-1.09-0.6l1.83-6.63l-4.62,5.09l-1.1-0.61L1285.83,866.17z"/>
		<path class="st13" d="M1297.25,880.79l-0.54,0.99l-3.06-1.7l0.55-0.99l1.07,0.59l2.8-5.06l-1.23,0.1l-0.07-1.07l2.18-0.25
			l0.92,0.51l-3.52,6.36L1297.25,880.79z"/>
		<path class="st13" d="M1303.79,875.92c1.53,0.85,1.78,2.09,1.08,3.34c-0.72,1.3-2.25,1.95-5.29,2.84l3,1.66l-0.54,0.98l-4.74-2.62
			l0.38-0.68c3.8-1.13,5.51-1.76,6.06-2.76c0.38-0.68,0.28-1.37-0.52-1.81c-0.74-0.41-1.35-0.45-2.03-0.41l-0.04-1
			C1301.99,875.35,1302.87,875.4,1303.79,875.92z"/>
		<path class="st13" d="M1305.83,880.85l-0.88-0.49l0.48-0.87l0.88,0.49l0.58-1.04l1.04,0.57l-0.58,1.04l1.07,0.59l-0.48,0.87
			l-1.07-0.59l-1.39,2.51c-0.53,0.96-0.53,1.75-0.38,2.5l-1.17-0.65c-0.13-0.68-0.03-1.43,0.48-2.35L1305.83,880.85z"/>
		<path class="st13" d="M1309.87,888.03l1.46-2.64c0.45-0.82,0.4-1.32-0.31-1.72c-0.48-0.27-1.13-0.19-1.6,0.02l-2.18,3.94
			l-1.05-0.58l4.36-7.87l1.05,0.58l-1.63,2.95c0.58-0.17,1.24-0.15,1.78,0.15c1.27,0.7,1.41,1.69,0.7,2.98l-1.39,2.51
			c-0.14,0.25-0.05,0.39,0.13,0.5c0.09,0.05,0.21,0.09,0.33,0.12l-0.46,0.83c-0.28-0.09-0.52-0.19-0.72-0.3
			C1309.75,889.14,1309.5,888.7,1309.87,888.03z"/>
		<path class="st13" d="M1316.85,891.82c0.96,0.53,1.78,0.37,2.15-0.3c0.42-0.77,0.1-1.39-0.79-2.07c-1.12-0.85-1.73-1.92-0.93-3.38
			c0.66-1.2,1.94-1.6,3.41-0.79c0.93,0.52,1.4,1.14,1.76,1.92l-0.91,0.54c-0.34-0.6-0.69-1.08-1.38-1.46
			c-0.85-0.47-1.47-0.24-1.8,0.35c-0.46,0.83-0.07,1.36,0.72,1.99c1.01,0.79,1.89,1.88,1.04,3.42c-0.7,1.27-2.1,1.74-3.8,0.8
			c-0.96-0.53-1.61-1.32-1.93-2.03l0.9-0.57C1315.63,890.82,1316.13,891.42,1316.85,891.82z"/>
		<path class="st13" d="M1322.72,890.19l-0.88-0.49l0.48-0.87l0.88,0.49l0.57-1.04l1.04,0.57l-0.57,1.04l1.07,0.59l-0.48,0.87
			l-1.07-0.59l-1.39,2.51c-0.53,0.96-0.53,1.75-0.38,2.5l-1.18-0.65c-0.13-0.68-0.03-1.43,0.48-2.35L1322.72,890.19z"/>
	</g>
	<g>
		<path class="st13" d="M1244.46,947.03l1.14,0.63l-1.81,6.84l4.71-5.24l1.12,0.62l-1.93,6.78l4.82-5.17l1.13,0.63l-6.17,6.18
			l-1.09-0.6l1.83-6.63l-4.62,5.1l-1.1-0.61L1244.46,947.03z"/>
		<path class="st13" d="M1255.88,961.65l-0.54,0.99l-3.06-1.7l0.55-0.99l1.07,0.59l2.8-5.06l-1.23,0.1l-0.07-1.07l2.18-0.25
			l0.92,0.51l-3.52,6.36L1255.88,961.65z"/>
		<path class="st13" d="M1259.19,963.48l-0.55,0.99l-3.06-1.7l0.55-0.99l1.07,0.59l2.8-5.06l-1.23,0.1l-0.07-1.07l2.18-0.25
			l0.92,0.51l-3.52,6.36L1259.19,963.48z"/>
		<path class="st13" d="M1261.98,960.33l-0.88-0.49l0.48-0.87l0.88,0.49l0.57-1.04l1.04,0.57l-0.57,1.04l1.07,0.59l-0.48,0.87
			l-1.07-0.59l-1.39,2.51c-0.53,0.96-0.53,1.75-0.38,2.5l-1.18-0.65c-0.13-0.68-0.03-1.43,0.48-2.35L1261.98,960.33z"/>
		<path class="st13" d="M1266.02,967.51l1.46-2.64c0.45-0.82,0.4-1.32-0.31-1.72c-0.48-0.27-1.13-0.19-1.6,0.02l-2.18,3.94
			l-1.05-0.58l4.36-7.87l1.05,0.58l-1.63,2.95c0.58-0.17,1.24-0.15,1.78,0.15c1.27,0.7,1.41,1.69,0.7,2.98l-1.39,2.51
			c-0.14,0.25-0.05,0.39,0.13,0.5c0.1,0.05,0.21,0.09,0.33,0.12l-0.46,0.83c-0.28-0.09-0.52-0.19-0.72-0.3
			C1265.89,968.62,1265.64,968.18,1266.02,967.51z"/>
		<path class="st13" d="M1273,971.3c0.96,0.53,1.78,0.37,2.15-0.3c0.42-0.77,0.1-1.38-0.79-2.07c-1.12-0.85-1.74-1.92-0.93-3.38
			c0.66-1.2,1.94-1.6,3.41-0.79c0.93,0.52,1.4,1.14,1.76,1.92l-0.91,0.54c-0.34-0.6-0.69-1.08-1.38-1.46
			c-0.85-0.47-1.47-0.24-1.8,0.35c-0.46,0.83-0.07,1.36,0.72,1.99c1.01,0.79,1.89,1.88,1.04,3.42c-0.7,1.27-2.1,1.74-3.8,0.8
			c-0.97-0.53-1.61-1.32-1.93-2.03l0.9-0.57C1271.78,970.3,1272.28,970.91,1273,971.3z"/>
		<path class="st13" d="M1278.87,969.67l-0.88-0.49l0.48-0.87l0.88,0.49l0.57-1.04l1.04,0.57l-0.57,1.04l1.07,0.59l-0.48,0.87
			l-1.07-0.59l-1.39,2.51c-0.53,0.96-0.53,1.75-0.38,2.5l-1.18-0.65c-0.13-0.68-0.03-1.43,0.48-2.35L1278.87,969.67z"/>
	</g>
	<g>
		<path class="st13" d="M336.7,439.76l0.51-1.2l6.99,1.11l-5.68-4.15l0.5-1.18l6.93,1.23l-5.63-4.28l0.51-1.19l6.77,5.52l-0.49,1.15
			l-6.78-1.16l5.53,4.08l-0.5,1.16L336.7,439.76z"/>
		<path class="st13" d="M349.84,430.68c-0.61,1.42-1.85,1.94-3.28,1.32l-1.37-0.58c-1.42-0.61-1.92-1.86-1.31-3.29
			s1.85-1.92,3.27-1.31l1.03,0.44l-1.5,3.51l0.27,0.11c0.95,0.41,1.6,0.16,1.93-0.62c0.3-0.69,0.31-1.33,0.22-1.93l0.96-0.1
			C350.23,428.92,350.24,429.76,349.84,430.68z M346.92,428.01l-0.13-0.06c-0.94-0.4-1.6-0.19-1.94,0.59
			c-0.33,0.78-0.05,1.43,0.9,1.83l0.13,0.06L346.92,428.01z"/>
		<path class="st13" d="M351.3,424.74c0.33-0.78,0.14-1.33-0.29-1.51c-0.52-0.22-0.86,0.1-1.37,0.89c-0.58,0.89-1.18,1.72-2.56,1.13
			c-0.96-0.41-1.38-1.36-0.78-2.76c0.39-0.9,0.92-1.38,1.57-1.78l0.57,0.74c-0.51,0.37-0.93,0.74-1.21,1.4
			c-0.31,0.73-0.12,1.12,0.29,1.3c0.62,0.26,0.91-0.18,1.36-0.89c0.56-0.88,1.19-1.71,2.56-1.13c0.99,0.41,1.41,1.53,0.79,2.96
			c-0.4,0.93-1.02,1.53-1.62,1.9l-0.59-0.75C350.54,425.9,351.01,425.44,351.3,424.74z"/>
		<path class="st13" d="M348.8,419.5l-0.4,0.93l-0.91-0.39l0.4-0.93l-1.09-0.47l0.47-1.09l1.09,0.47l0.48-1.12l0.91,0.39l-0.48,1.12
			l2.64,1.13c1.01,0.43,1.79,0.35,2.53,0.13l-0.53,1.24c-0.66,0.2-1.42,0.17-2.39-0.24L348.8,419.5z"/>
		<path class="st13" d="M356.08,413.35c0.43-1.01,0.19-1.81-0.52-2.11c-0.8-0.34-1.39,0.04-1.98,0.99c-0.73,1.2-1.73,1.92-3.27,1.26
			c-1.26-0.54-1.79-1.77-1.13-3.31c0.42-0.98,1-1.5,1.73-1.95l0.62,0.85c-0.56,0.4-1.01,0.8-1.32,1.52
			c-0.38,0.89-0.09,1.49,0.53,1.75c0.87,0.37,1.36-0.07,1.91-0.92c0.69-1.09,1.68-2.07,3.29-1.38c1.33,0.57,1.95,1.92,1.18,3.7
			c-0.43,1.01-1.15,1.74-1.82,2.13l-0.66-0.84C355.2,414.66,355.75,414.1,356.08,413.35z"/>
		<path class="st13" d="M353.86,407.68l-0.4,0.93l-0.91-0.39l0.4-0.93l-1.09-0.47l0.47-1.09l1.09,0.47l0.48-1.12l0.92,0.39
			l-0.48,1.12l2.64,1.13c1.01,0.43,1.79,0.35,2.53,0.13l-0.53,1.23c-0.66,0.2-1.42,0.18-2.39-0.24L353.86,407.68z"/>
	</g>
	<g>
		<path class="st13" d="M927.89,751.6l1.3-0.12l2.33,6.68l0.96-6.97l1.28-0.12l2.2,6.69l1.09-6.99l1.29-0.12l-1.65,8.58l-1.24,0.11
			l-2.2-6.52l-0.96,6.81l-1.25,0.11L927.89,751.6z"/>
		<path class="st13" d="M945.55,757.31l0.1,1.12l-3.49,0.31l-0.1-1.12l1.22-0.11l-0.52-5.76l-0.97,0.77l-0.65-0.84l1.67-1.43
			l1.05-0.09l0.65,7.24L945.55,757.31z"/>
		<path class="st13" d="M948.23,749.6c1.74-0.16,2.64,0.74,2.77,2.16c0.13,1.48-0.76,2.87-2.78,5.32l3.42-0.31l0.1,1.11l-5.4,0.49
			l-0.07-0.78c2.52-3.07,3.58-4.55,3.47-5.68c-0.07-0.78-0.54-1.29-1.45-1.21c-0.85,0.08-1.37,0.39-1.92,0.8l-0.59-0.8
			C946.42,750.13,947.18,749.69,948.23,749.6z"/>
		<path class="st13" d="M952.69,752.53l-1,0.09l-0.09-0.99l1-0.09l-0.11-1.18l1.18-0.11l0.11,1.18l1.22-0.11l0.09,0.99l-1.22,0.11
			l0.26,2.86c0.1,1.1,0.54,1.75,1.08,2.29l-1.34,0.12c-0.49-0.49-0.83-1.17-0.92-2.22L952.69,752.53z"/>
		<path class="st13" d="M960.05,756.22l-0.27-3.01c-0.08-0.93-0.41-1.32-1.22-1.25c-0.55,0.05-1.04,0.48-1.31,0.91l0.4,4.48
			l-1.19,0.11l-0.81-8.96l1.19-0.11l0.3,3.36c0.38-0.47,0.94-0.82,1.56-0.88c1.45-0.13,2.11,0.6,2.25,2.07l0.26,2.85
			c0.03,0.29,0.18,0.36,0.39,0.34c0.11-0.01,0.23-0.04,0.34-0.09l0.08,0.94c-0.28,0.09-0.54,0.13-0.77,0.15
			C960.57,757.21,960.12,756.98,960.05,756.22z"/>
		<path class="st13" d="M967.96,755.44c1.1-0.1,1.68-0.69,1.61-1.46c-0.08-0.87-0.7-1.2-1.81-1.27c-1.4-0.08-2.51-0.62-2.66-2.28
			c-0.12-1.36,0.71-2.41,2.38-2.56c1.06-0.1,1.8,0.16,2.54,0.6l-0.46,0.96c-0.62-0.31-1.18-0.51-1.97-0.44
			c-0.97,0.09-1.35,0.63-1.29,1.3c0.08,0.94,0.71,1.16,1.71,1.24c1.29,0.09,2.62,0.5,2.78,2.24c0.13,1.45-0.76,2.62-2.7,2.8
			c-1.1,0.1-2.08-0.19-2.74-0.6l0.43-0.98C966.39,755.29,967.15,755.52,967.96,755.44z"/>
		<path class="st13" d="M971.9,750.8l-1,0.09l-0.09-0.99l1-0.09l-0.11-1.18l1.18-0.11l0.11,1.18l1.22-0.11l0.09,0.99l-1.22,0.11
			l0.26,2.85c0.1,1.1,0.54,1.75,1.08,2.29l-1.34,0.12c-0.49-0.49-0.83-1.17-0.92-2.22L971.9,750.8z"/>
	</g>
	<g>
		<path class="st13" d="M941.5,832.13l2.83-0.52c1.62-0.3,2.62,0.17,2.89,1.61l0.07,0.37c0.09,0.47-0.09,1.2-0.59,1.62
			c0.62,0.11,1.23,0.7,1.37,1.47l0.12,0.62c0.22,1.19-0.61,2.25-2.31,2.56c-1.11,0.21-1.88,0.23-2.91,0.11L941.5,832.13z
			 M945.18,835.03c0.6-0.11,0.99-0.56,0.84-1.33l-0.02-0.09c-0.19-0.9-0.6-1.06-1.45-0.9l-1.63,0.3l0.44,2.36L945.18,835.03z
			 M945.65,838.76c0.94-0.19,1.39-0.73,1.27-1.38l-0.07-0.4c-0.13-0.71-0.64-1.08-1.33-0.95l-1.96,0.36l0.46,2.46
			C944.66,838.88,945.03,838.89,945.65,838.76z"/>
		<path class="st13" d="M953.46,837.78c-0.38,0.57-0.95,0.97-1.64,1.1c-1.36,0.25-2.2-0.52-2.48-2.04l-0.29-1.56
			c-0.28-1.53,0.41-2.55,1.8-2.81c0.58-0.11,1.17-0.05,1.68,0.12l0.11-0.33l0.85-0.16l0.9,4.83c0.1,0.54,0.46,0.44,0.77,0.27
			l0.17,0.93C954.4,838.53,953.77,838.44,953.46,837.78z M952.56,833.56c-0.43-0.14-0.92-0.16-1.39-0.07
			c-0.78,0.14-1.11,0.72-0.93,1.71l0.24,1.27c0.19,1,0.57,1.48,1.39,1.33c0.57-0.1,1.03-0.61,1.27-1.12L952.56,833.56z"/>
		<path class="st13" d="M959.65,836.38l-0.54-2.94c-0.17-0.92-0.51-1.32-1.33-1.17c-0.54,0.1-1,0.6-1.23,1.07l0.81,4.39l-1.18,0.22
			l-1.14-6.13l1.01-0.19l0.23,0.64c0.33-0.5,0.91-0.97,1.54-1.09c1.4-0.26,2.14,0.45,2.41,1.9l0.52,2.78
			c0.05,0.28,0.21,0.34,0.42,0.3c0.11-0.02,0.22-0.07,0.33-0.12l0.17,0.93c-0.27,0.11-0.53,0.18-0.75,0.22
			C960.26,837.31,959.79,837.13,959.65,836.38z"/>
		<path class="st13" d="M965.08,835.15l-1.12-1.39l-0.58,0.99l0.33,1.8l-1.18,0.22l-1.64-8.84l1.18-0.22l1.01,5.42l1.88-3.15
			l1.43-0.26l-1.79,2.98l1.67,2.01c0.42,0.52,0.86,0.39,1.19,0.23l0.16,0.95C966.5,836.27,965.97,836.25,965.08,835.15z"/>
		<path class="st13" d="M973.27,833.79c1.08-0.2,1.61-0.85,1.47-1.6c-0.16-0.86-0.81-1.13-1.92-1.1c-1.41,0.05-2.56-0.38-2.86-2.02
			c-0.25-1.34,0.48-2.47,2.13-2.77c1.05-0.2,1.81-0.01,2.58,0.36l-0.36,0.99c-0.64-0.25-1.22-0.4-2-0.25
			c-0.96,0.18-1.29,0.75-1.17,1.41c0.17,0.93,0.81,1.09,1.82,1.08c1.29-0.03,2.66,0.25,2.98,1.97c0.26,1.43-0.52,2.68-2.43,3.04
			c-1.08,0.2-2.08,0.01-2.78-0.34l0.34-1.01C971.69,833.79,972.46,833.94,973.27,833.79z"/>
		<path class="st13" d="M976.76,828.8l-0.99,0.18l-0.18-0.98l0.99-0.18l-0.22-1.17l1.17-0.22l0.22,1.17l1.2-0.22l0.18,0.98
			l-1.2,0.22l0.52,2.82c0.2,1.08,0.7,1.69,1.29,2.18l-1.32,0.25c-0.53-0.44-0.93-1.08-1.12-2.12L976.76,828.8z"/>
	</g>
	<g>
		<path class="st13" d="M955.42,913.25l1.29-0.24l2.95,6.43l0.31-7.03l1.26-0.23l2.82,6.46l0.44-7.06l1.27-0.24l-0.84,8.69
			l-1.23,0.23l-2.8-6.29l-0.33,6.87l-1.24,0.23L955.42,913.25z"/>
		<path class="st13" d="M973.53,917.29l0.21,1.11l-3.44,0.64l-0.21-1.11l1.2-0.22l-1.05-5.68l-0.89,0.86l-0.73-0.78l1.53-1.58
			l1.04-0.19l1.32,7.15L973.53,917.29z"/>
		<path class="st13" d="M977.25,916.6l0.21,1.11l-3.44,0.64l-0.21-1.11l1.2-0.22l-1.05-5.68l-0.89,0.86l-0.73-0.78l1.53-1.58
			l1.04-0.19l1.32,7.15L977.25,916.6z"/>
		<path class="st13" d="M977.4,912.39l-0.99,0.18l-0.18-0.98l0.99-0.18l-0.22-1.17l1.17-0.22l0.22,1.17l1.2-0.22l0.18,0.98
			l-1.2,0.22l0.52,2.82c0.2,1.08,0.7,1.69,1.29,2.18l-1.32,0.24c-0.53-0.44-0.93-1.08-1.12-2.12L977.4,912.39z"/>
		<path class="st13" d="M985.07,915.37l-0.55-2.97c-0.17-0.92-0.53-1.28-1.33-1.13c-0.54,0.1-0.99,0.57-1.22,1.03l0.82,4.42
			l-1.18,0.22l-1.64-8.84l1.18-0.22l0.61,3.31c0.33-0.5,0.86-0.9,1.47-1.02c1.43-0.26,2.16,0.41,2.43,1.86l0.52,2.82
			c0.05,0.28,0.21,0.34,0.42,0.3c0.11-0.02,0.22-0.07,0.33-0.12l0.17,0.93c-0.27,0.11-0.53,0.18-0.75,0.22
			C985.69,916.3,985.21,916.12,985.07,915.37z"/>
		<path class="st13" d="M992.88,913.86c1.08-0.2,1.61-0.85,1.47-1.6c-0.16-0.86-0.81-1.13-1.92-1.1c-1.41,0.05-2.56-0.38-2.86-2.02
			c-0.25-1.34,0.48-2.47,2.13-2.77c1.05-0.19,1.8-0.01,2.58,0.36l-0.36,0.99c-0.64-0.25-1.22-0.4-2-0.25
			c-0.96,0.18-1.29,0.75-1.17,1.41c0.17,0.93,0.81,1.09,1.82,1.08c1.29-0.03,2.66,0.25,2.98,1.97c0.26,1.43-0.52,2.68-2.43,3.04
			c-1.08,0.2-2.08,0.01-2.78-0.34l0.34-1.01C991.3,913.86,992.07,914.01,992.88,913.86z"/>
		<path class="st13" d="M996.37,908.87l-0.99,0.18l-0.18-0.98l0.99-0.18l-0.22-1.17l1.17-0.22l0.22,1.17l1.2-0.22l0.18,0.98
			l-1.2,0.22l0.52,2.82c0.2,1.08,0.7,1.69,1.29,2.17l-1.32,0.25c-0.53-0.44-0.93-1.08-1.12-2.12L996.37,908.87z"/>
	</g>
	<g>
		<path class="st13" d="M968.91,992.04l2.92-0.54c1.6-0.3,2.8,0.54,3.09,2.15l0.1,0.54c0.3,1.62-0.51,2.81-2.12,3.11
			c-0.61,0.11-1.16,0.14-1.75,0.04l0.5,2.72l-1.23,0.23L968.91,992.04z M972.71,996.21c0.88-0.16,1.27-0.85,1.07-1.93l-0.05-0.25
			c-0.2-1.08-0.79-1.57-1.69-1.41l-1.7,0.31l0.62,3.35C971.56,996.37,972.1,996.32,972.71,996.21z"/>
		<path class="st13" d="M979.69,998.71c-1.52,0.28-2.64-0.46-2.92-2l-0.27-1.46c-0.28-1.52,0.49-2.63,2.01-2.91
			c1.52-0.28,2.62,0.48,2.91,2l0.2,1.1l-3.75,0.7l0.05,0.28c0.19,1.01,0.75,1.42,1.59,1.27c0.74-0.14,1.28-0.48,1.73-0.88l0.61,0.74
			C981.37,998.05,980.68,998.53,979.69,998.71z M980.29,994.79l-0.03-0.14c-0.19-1-0.73-1.44-1.57-1.28
			c-0.84,0.15-1.21,0.75-1.03,1.76l0.03,0.14L980.29,994.79z"/>
		<path class="st13" d="M982.44,991.73l1.01-0.19l0.25,0.71c0.34-0.59,0.95-1.05,1.61-1.18l0.29,1.07
			c-0.73,0.13-1.33,0.61-1.65,1.21l0.79,4.29l-1.18,0.22L982.44,991.73z"/>
		<path class="st13" d="M986.32,991.02l1.01-0.19l0.25,0.71c0.34-0.59,0.95-1.05,1.61-1.18l0.29,1.07
			c-0.73,0.14-1.33,0.61-1.65,1.21l0.79,4.29l-1.18,0.22L986.32,991.02z"/>
		<path class="st13" d="M994.08,996.82c0.79-0.15,1.28-0.61,1.1-1.57l-0.14-0.75c-0.36,0.55-0.96,0.93-1.61,1.05
			c-1.32,0.25-2.07-0.31-2.34-1.77l-0.65-3.53l1.17-0.22l0.61,3.27c0.17,0.92,0.51,1.28,1.32,1.13c0.54-0.1,1.04-0.53,1.27-0.98
			l-0.72-3.88l1.17-0.22l1.08,5.8c0.27,1.46-0.52,2.39-1.98,2.66c-0.99,0.18-1.83,0.05-2.49-0.23l0.22-0.93
			C992.65,996.86,993.34,996.96,994.08,996.82z"/>
		<path class="st13" d="M1002.88,993.3c1.09-0.2,1.61-0.85,1.47-1.6c-0.16-0.86-0.81-1.13-1.92-1.09c-1.41,0.05-2.56-0.38-2.86-2.02
			c-0.25-1.34,0.48-2.47,2.13-2.77c1.05-0.19,1.81,0,2.58,0.36l-0.36,0.99c-0.64-0.25-1.22-0.4-2-0.25
			c-0.96,0.18-1.29,0.75-1.17,1.41c0.17,0.93,0.81,1.09,1.82,1.08c1.29-0.03,2.66,0.25,2.98,1.97c0.26,1.43-0.51,2.68-2.43,3.04
			c-1.08,0.2-2.08,0.01-2.78-0.34l0.34-1.01C1001.3,993.3,1002.08,993.45,1002.88,993.3z"/>
		<path class="st13" d="M1006.37,988.31l-0.99,0.18l-0.18-0.98l0.99-0.18l-0.22-1.17l1.17-0.22l0.22,1.17l1.2-0.22l0.18,0.98
			l-1.2,0.22l0.52,2.82c0.2,1.08,0.7,1.69,1.29,2.18l-1.32,0.24c-0.53-0.44-0.93-1.08-1.12-2.12L1006.37,988.31z"/>
	</g>
</g>
<g id="Location_Marker">
	<g>
		<path class="st8" d="M1047.23,466.65c-1.89,0-3.28-1.22-3.28-3.12l0-3.95c0-1.91,1.38-3.12,3.28-3.12c1.26,0,1.98,0.38,2.73,0.94
			l-0.62,1.04c-0.66-0.41-1.14-0.67-2.12-0.67c-1.08,0-1.81,0.76-1.8,2l0,3.57c0,1.29,0.74,2.02,1.81,2.02
			c0.98,0,1.46-0.27,2.12-0.67l0.62,1.04C1049.2,466.27,1048.49,466.65,1047.23,466.65z"/>
		<path class="st8" d="M1055.66,465.38l0-3.53c0-1.09-0.34-1.58-1.29-1.58c-0.64,0-1.26,0.45-1.62,0.93l0,5.25l-1.4,0l-0.01-10.51
			l1.4,0l0,3.94c0.49-0.5,1.18-0.85,1.9-0.86c1.69,0,2.4,0.92,2.4,2.65l0,3.35c0,0.34,0.17,0.43,0.42,0.43
			c0.13,0,0.27-0.03,0.41-0.07l0,1.11c-0.34,0.07-0.64,0.1-0.91,0.1C1056.16,466.59,1055.66,466.28,1055.66,465.38z"/>
		<path class="st8" d="M1063.31,465.67c-0.56,0.57-1.3,0.91-2.11,0.91c-1.61,0-2.41-1.06-2.41-2.87l0-1.85
			c0-1.82,1.01-2.84,2.66-2.85c0.69,0,1.36,0.2,1.91,0.49l0.2-0.35l1.01,0l0,5.74c0,0.64,0.43,0.6,0.83,0.48l0,1.11
			C1064.23,466.74,1063.52,466.5,1063.31,465.67z M1063.17,460.63c-0.46-0.25-1.02-0.38-1.58-0.38c-0.92,0-1.43,0.59-1.43,1.77
			l0,1.51c0,1.19,0.34,1.82,1.32,1.82c0.67,0,1.32-0.48,1.7-1.02L1063.17,460.63z"/>
		<path class="st8" d="M1070.71,465.37l0-3.49c0-1.09-0.31-1.62-1.28-1.62c-0.64,0-1.27,0.48-1.64,0.97l0,5.21l-1.4,0l0-7.28l1.2,0
			l0.13,0.79c0.49-0.5,1.25-0.93,2-0.93c1.67,0,2.37,0.96,2.37,2.69l0,3.31c0,0.34,0.17,0.43,0.42,0.43c0.13,0,0.27-0.03,0.41-0.07
			l0,1.11c-0.34,0.07-0.64,0.1-0.91,0.1C1071.21,466.58,1070.71,466.27,1070.71,465.37z"/>
		<path class="st8" d="M1078.24,465.37l0-3.49c0-1.09-0.31-1.62-1.28-1.62c-0.64,0-1.27,0.48-1.64,0.97l0,5.21h-1.4l0-7.28h1.2
			l0.13,0.79c0.49-0.51,1.25-0.93,2-0.93c1.67,0,2.37,0.97,2.37,2.69l0,3.31c0,0.34,0.17,0.43,0.42,0.43c0.13,0,0.27-0.03,0.41-0.07
			l0,1.11c-0.34,0.07-0.64,0.1-0.91,0.1C1078.74,466.57,1078.24,466.27,1078.24,465.37z"/>
		<path class="st8" d="M1084.31,466.57c-1.81,0-2.93-1.09-2.93-2.91l0-1.74c0-1.81,1.12-2.91,2.93-2.92c1.81,0,2.91,1.1,2.92,2.91
			l0,1.3l-4.45,0v0.34c0,1.2,0.56,1.79,1.56,1.79c0.88,0,1.57-0.28,2.17-0.65l0.55,0.98
			C1086.39,466.18,1085.49,466.57,1084.31,466.57z M1085.84,462.2v-0.17c0-1.19-0.53-1.81-1.53-1.81c-1,0-1.55,0.6-1.55,1.81v0.17
			L1085.84,462.2z"/>
		<path class="st8" d="M1088.95,465.36l-0.01-9.44l1.4,0l0.01,9.08c0,0.34,0.17,0.43,0.42,0.43c0.13,0,0.27-0.03,0.41-0.07
			l-0.01,1.11c-0.34,0.07-0.64,0.1-0.91,0.1C1089.46,466.57,1088.95,466.26,1088.95,465.36z"/>
		<path class="st8" d="M1098.44,464.67l2.35-8.06l1.53,0l-3.23,9.81l-1.32,0l-3.28-9.8l1.57,0L1098.44,464.67z"/>
		<path class="st8" d="M1106.41,456.61h1.08l2.96,5.85l2.95-5.86l1.08,0l0.01,9.81l-1.46,0l0.05-6.32l-2.25,4.48h-0.81l-2.19-4.37
			l0.05,6.21h-1.46L1106.41,456.61z"/>
		<path class="st8" d="M1119.11,466.55c-1.81,0-2.93-1.09-2.93-2.91l0-1.74c0-1.81,1.12-2.91,2.93-2.91c1.81,0,2.91,1.1,2.92,2.91
			l0,1.3l-4.45,0v0.34c0,1.2,0.56,1.79,1.56,1.79c0.88,0,1.57-0.28,2.17-0.65l0.55,0.98
			C1121.18,466.16,1120.28,466.55,1119.11,466.55z M1120.63,462.18v-0.17c0-1.19-0.53-1.81-1.53-1.81c-1,0-1.55,0.6-1.55,1.81v0.17
			L1120.63,462.18z"/>
		<path class="st8" d="M1128.21,465.63c-0.56,0.57-1.3,0.91-2.11,0.91c-1.61,0-2.41-1.06-2.41-2.87l0-1.85
			c0-1.82,0.87-2.84,2.52-2.85c0.7,0,1.34,0.15,1.86,0.38l0-3.46l1.39,0l0.01,8.96c0,0.64,0.43,0.6,0.83,0.48l0,1.11
			C1129.1,466.7,1128.42,466.46,1128.21,465.63z M1128.06,460.59c-0.46-0.24-1.08-0.38-1.64-0.38c-0.92,0-1.37,0.59-1.37,1.77
			l0,1.51c0,1.19,0.34,1.82,1.32,1.82c0.67,0,1.32-0.48,1.7-1.02L1128.06,460.59z"/>
		<path class="st8" d="M1131.97,457.94c-0.55,0-0.93-0.29-0.93-0.87s0.38-0.88,0.92-0.88c0.53,0,0.92,0.31,0.92,0.88
			S1132.5,457.94,1131.97,457.94z M1132.68,459.12l0,7.28l-1.4,0l0-7.28L1132.68,459.12z"/>
		<path class="st8" d="M1138.97,465.63c-0.56,0.58-1.3,0.91-2.11,0.91c-1.61,0-2.41-1.06-2.41-2.87l0-1.85
			c0-1.82,1.01-2.84,2.66-2.84c0.69,0,1.36,0.2,1.91,0.49l0.2-0.35h1.01l0,5.74c0,0.64,0.43,0.6,0.83,0.48l0,1.11
			C1139.88,466.69,1139.18,466.45,1138.97,465.63z M1138.83,460.58c-0.46-0.25-1.02-0.38-1.58-0.38c-0.92,0-1.43,0.59-1.43,1.77
			l0,1.51c0,1.19,0.34,1.82,1.32,1.82c0.67,0,1.32-0.48,1.7-1.02L1138.83,460.58z"/>
		<path class="st8" d="M1043.89,480.24c0-0.85,0.59-1.82,1.26-2.23c-0.64-0.49-1.04-1.36-1.04-2.1c0-1.55,0.95-2.66,3.07-2.66
			s3.08,1.1,3.08,2.66c0,0.73-0.36,1.57-1.04,2.09c0.71,0.41,1.25,1.39,1.25,2.24v0.28c0,1.61-0.99,2.93-3.29,2.93
			c-2.3,0-3.29-1.32-3.29-2.93V480.24z M1045.4,480.48c0,0.9,0.49,1.67,1.78,1.67s1.78-0.77,1.78-1.67v-0.1c0-1-0.67-1.74-1.61-1.74
			h-0.34c-0.92,0-1.61,0.74-1.61,1.74V480.48z M1047.25,477.51c0.92,0,1.58-0.69,1.58-1.53c0-0.83-0.52-1.5-1.65-1.5
			c-1.13,0-1.65,0.67-1.65,1.5c0,0.84,0.62,1.53,1.53,1.53H1047.25z"/>
		<path class="st8" d="M1051.95,476.34c0-1.92,1.26-3.1,3.12-3.1s3.14,1.17,3.14,3.09l0,4.01c0,1.92-1.27,3.1-3.14,3.1
			s-3.12-1.17-3.13-3.09L1051.95,476.34z M1053.38,480.17c0,1.3,0.67,1.96,1.7,1.96c1.04,0,1.68-0.66,1.68-1.96l0-3.64
			c0-1.29-0.65-1.96-1.68-1.96c-1.02,0-1.7,0.67-1.69,1.96L1053.38,480.17z"/>
		<path class="st8" d="M1062.84,480.23c0-0.85,0.59-1.82,1.26-2.23c-0.64-0.49-1.04-1.36-1.04-2.1c0-1.55,0.95-2.66,3.07-2.66
			s3.08,1.1,3.08,2.66c0,0.73-0.36,1.57-1.04,2.09c0.71,0.41,1.25,1.39,1.25,2.24v0.28c0,1.61-0.99,2.93-3.29,2.93
			c-2.3,0-3.29-1.32-3.29-2.93V480.23z M1064.36,480.47c0,0.9,0.49,1.67,1.78,1.67s1.78-0.77,1.78-1.67v-0.1
			c0-1-0.67-1.74-1.61-1.74h-0.34c-0.92,0-1.61,0.74-1.61,1.74V480.47z M1066.21,477.5c0.92,0,1.58-0.69,1.58-1.53
			c0-0.83-0.52-1.5-1.65-1.5s-1.65,0.67-1.65,1.5c0,0.84,0.62,1.53,1.53,1.53H1066.21z"/>
		<path class="st8" d="M1071.17,477.12l-1.18,0l0-1.16l1.18,0l0-1.39l1.39,0l0,1.39l1.43,0l0,1.16l-1.43,0l0,3.35
			c0,1.29,0.45,2.09,1.02,2.77l-1.57,0c-0.52-0.62-0.84-1.44-0.84-2.68L1071.17,477.12z"/>
		<path class="st8" d="M1079.35,482.17l0-3.53c0-1.09-0.34-1.58-1.29-1.58c-0.64,0-1.26,0.45-1.62,0.93l0,5.25l-1.4,0l-0.01-10.51
			l1.4,0l0,3.94c0.49-0.5,1.18-0.86,1.91-0.86c1.69,0,2.4,0.92,2.4,2.65l0,3.35c0,0.34,0.17,0.43,0.42,0.43
			c0.13,0,0.27-0.03,0.41-0.07v1.11c-0.34,0.07-0.64,0.1-0.91,0.1C1079.86,483.37,1079.35,483.07,1079.35,482.17z"/>
		<path class="st8" d="M1090.65,481.14l-3.42,0l-0.78,2.09l-1.6,0l3.5-8.62l-0.39-1.19l1.47,0l3.55,9.8l-1.61,0L1090.65,481.14z
			 M1087.68,479.94l2.56,0l-1.22-3.56L1087.68,479.94z"/>
		<path class="st8" d="M1092.45,475.94l1.47,0l1.82,5.59l1.78-5.59l1.47,0l-2.6,7.29h-1.34L1092.45,475.94z"/>
		<path class="st8" d="M1102.58,483.36c-1.81,0-2.93-1.09-2.93-2.91l0-1.74c0-1.81,1.12-2.91,2.93-2.92c1.81,0,2.91,1.1,2.92,2.91
			v1.3l-4.45,0l0,0.34c0,1.2,0.56,1.79,1.56,1.79c0.88,0,1.57-0.28,2.17-0.65l0.55,0.98
			C1104.65,482.97,1103.76,483.36,1102.58,483.36z M1104.1,478.99v-0.17c0-1.19-0.53-1.81-1.53-1.81c-1,0-1.55,0.6-1.55,1.81v0.17
			L1104.1,478.99z"/>
		<path class="st8" d="M1111.53,482.15l0-3.49c0-1.09-0.31-1.62-1.28-1.62c-0.64,0-1.27,0.48-1.64,0.97l0,5.21l-1.4,0l0-7.28l1.2,0
			l0.13,0.78c0.49-0.5,1.25-0.92,2-0.92c1.67,0,2.37,0.96,2.37,2.69l0,3.31c0,0.34,0.17,0.43,0.42,0.43c0.13,0,0.27-0.03,0.41-0.07
			v1.11c-0.34,0.07-0.64,0.1-0.91,0.1C1112.03,483.35,1111.53,483.05,1111.53,482.15z"/>
		<path class="st8" d="M1114.7,480.65l0-4.72l1.39,0l0,4.59c0,1.08,0.31,1.6,1.18,1.6c0.67,0,1.3-0.48,1.67-1.02l0-5.17l1.4,0
			l0,5.74c0,0.64,0.42,0.6,0.81,0.48v1.11c-1.18,0.25-1.86,0.02-2.07-0.81c-0.56,0.57-1.29,0.91-2.1,0.91
			C1115.45,483.35,1114.7,482.46,1114.7,480.65z"/>
		<path class="st8" d="M1124.99,483.35c-1.81,0-2.93-1.09-2.93-2.91l0-1.74c0-1.81,1.12-2.91,2.93-2.92c1.81,0,2.91,1.1,2.92,2.91
			v1.3l-4.45,0l0,0.34c0,1.2,0.56,1.79,1.56,1.79c0.88,0,1.57-0.28,2.17-0.65l0.55,0.98
			C1127.07,482.95,1126.17,483.34,1124.99,483.35z M1126.52,478.97v-0.17c0-1.19-0.53-1.81-1.53-1.81c-1,0-1.55,0.6-1.55,1.81v0.17
			L1126.52,478.97z"/>
		<path class="st8" d="M1129,483.96c0.27-0.17,0.57-0.42,0.62-0.73c-0.28-0.14-0.43-0.42-0.43-0.74c0-0.62,0.42-0.88,0.91-0.88
			c0.5,0,0.94,0.26,0.94,0.9c0,0.76-0.42,1.7-1.69,2.1L1129,483.96z"/>
		<path class="st8" d="M1138.5,482.06c1.29,0,2.03-0.63,2.03-1.53c0-1.02-0.69-1.47-1.98-1.67c-1.62-0.24-2.86-0.98-2.86-2.93
			c0-1.6,1.08-2.73,3.04-2.73c1.25,0,2.07,0.38,2.89,0.96l-0.63,1.06c-0.69-0.42-1.32-0.71-2.24-0.71c-1.13,0-1.64,0.59-1.64,1.37
			c0,1.11,0.7,1.43,1.86,1.62c1.49,0.24,3,0.85,3,2.9c0,1.7-1.16,2.97-3.43,2.97c-1.29,0-2.4-0.43-3.12-0.98l0.6-1.09
			C1136.7,481.73,1137.55,482.06,1138.5,482.06z"/>
		<path class="st8" d="M1143.4,480.63l0-4.72l1.39,0l0,4.59c0,1.08,0.31,1.6,1.18,1.6c0.67,0,1.3-0.48,1.67-1.02l0-5.17l1.4,0
			l0,5.74c0,0.64,0.42,0.6,0.81,0.48v1.11c-1.18,0.25-1.86,0.01-2.07-0.81c-0.56,0.57-1.29,0.91-2.1,0.91
			C1144.15,483.33,1143.4,482.44,1143.4,480.63z"/>
		<path class="st8" d="M1151.52,474.73c-0.55,0-0.92-0.29-0.92-0.87c0-0.57,0.38-0.88,0.92-0.88c0.53,0,0.92,0.31,0.92,0.88
			C1152.44,474.43,1152.05,474.73,1151.52,474.73z M1152.23,475.91l0,7.28l-1.4,0l0-7.28L1152.23,475.91z"/>
		<path class="st8" d="M1154.18,477.07l-1.18,0l0-1.16l1.18,0l0-1.39l1.39,0l0,1.39l1.43,0l0,1.16l-1.43,0l0,3.35
			c0,1.29,0.45,2.09,1.02,2.77l-1.57,0c-0.52-0.62-0.84-1.44-0.84-2.68L1154.18,477.07z"/>
		<path class="st8" d="M1160.9,483.32c-1.81,0-2.93-1.09-2.93-2.91l0-1.74c0-1.81,1.12-2.91,2.93-2.92c1.81,0,2.91,1.1,2.92,2.91
			v1.3l-4.45,0l0,0.34c0,1.2,0.56,1.79,1.56,1.79c0.88,0,1.57-0.28,2.17-0.65l0.55,0.98
			C1162.98,482.93,1162.08,483.32,1160.9,483.32z M1162.43,478.95v-0.17c0-1.19-0.53-1.81-1.53-1.81c-1,0-1.55,0.6-1.55,1.81v0.17
			L1162.43,478.95z"/>
		<path class="st8" d="M1171.71,473.18c2.04,0,3,1.13,3,2.8c0,1.74-1.19,3.26-3.79,5.9l4.01,0v1.3l-6.33,0v-0.91
			c3.25-3.31,4.63-4.92,4.63-6.25c0-0.91-0.49-1.55-1.56-1.55c-1,0-1.64,0.31-2.31,0.73l-0.6-0.99
			C1169.55,473.61,1170.47,473.18,1171.71,473.18z"/>
		<path class="st8" d="M1176.31,476.27c0-1.92,1.26-3.1,3.12-3.1c1.86,0,3.14,1.17,3.14,3.09l0,4.01c0,1.92-1.27,3.1-3.14,3.1
			c-1.86,0-3.12-1.18-3.13-3.09L1176.31,476.27z M1177.74,480.09c0,1.3,0.67,1.96,1.7,1.96c1.04,0,1.68-0.66,1.68-1.96l0-3.64
			c0-1.29-0.65-1.96-1.68-1.96c-1.02,0-1.7,0.67-1.69,1.96L1177.74,480.09z"/>
		<path class="st8" d="M1187.26,473.17c1.23,0,2.2,0.43,2.98,1.02l-0.59,0.99c-0.69-0.42-1.32-0.73-2.33-0.73
			c-1.13,0-1.79,0.72-1.79,1.99l0,1.42c0.49-0.37,1.3-0.6,2.06-0.6c1.65,0,2.87,0.81,2.87,2.74l0,0.43c0,1.93-1.32,2.93-3.18,2.93
			c-1.85,0-3.2-0.89-3.2-2.83l0-4.27C1184.1,474.37,1185.34,473.17,1187.26,473.17z M1185.54,480.33c0,1.28,0.71,1.74,1.75,1.74
			c1.04,0,1.75-0.53,1.75-1.84c0-1.22-0.52-1.67-1.58-1.67c-0.76,0-1.46,0.24-1.92,0.62L1185.54,480.33z"/>
		<path class="st8" d="M1044.04,490.25l1.37,0l4.02,6.92l-0.03-6.92h1.44l0.01,9.81h-1.39l-4.02-6.89l0.05,6.89l-1.44,0
			L1044.04,490.25z"/>
		<path class="st8" d="M1055.45,500.19c-1.81,0-2.93-1.09-2.93-2.91l0-1.74c0-1.81,1.12-2.91,2.93-2.92c1.81,0,2.91,1.1,2.92,2.91
			l0,1.3l-4.45,0v0.34c0,1.2,0.56,1.79,1.56,1.79c0.88,0,1.57-0.28,2.17-0.65l0.55,0.98
			C1057.53,499.79,1056.63,500.19,1055.45,500.19z M1056.98,495.82v-0.17c0-1.19-0.53-1.81-1.53-1.81c-1,0-1.55,0.6-1.55,1.81v0.17
			L1056.98,495.82z"/>
		<path class="st8" d="M1058.99,492.76l1.46,0l1.41,5.5l1.44-5.51l1.46,0l1.5,5.48l1.38-5.48l1.44,0l-2.15,7.29l-1.4,0l-1.53-5.46
			l-1.45,5.46l-1.4,0L1058.99,492.76z"/>
		<path class="st8" d="M1075.37,496.49l-2.99-6.26l1.61,0l2.12,4.73l2.08-4.74l1.61,0l-2.97,6.25l0,3.56h-1.47L1075.37,496.49z"/>
		<path class="st8" d="M1079.92,495.52c0-1.82,1.12-2.91,2.93-2.92c1.81,0,2.91,1.09,2.92,2.91l0,1.74c0,1.82-1.12,2.91-2.91,2.92
			c-1.81,0-2.93-1.09-2.93-2.91L1079.92,495.52z M1081.31,497.1c0,1.21,0.55,1.83,1.54,1.83c0.98,0,1.53-0.63,1.53-1.84l0-1.43
			c0-1.2-0.55-1.83-1.53-1.83c-1,0-1.54,0.63-1.54,1.84L1081.31,497.1z"/>
		<path class="st8" d="M1087.51,492.74l1.2,0l0.14,0.87c0.52-0.6,1.32-1.01,2.1-1.01l0.11,1.29c-0.87,0-1.65,0.42-2.16,1.04l0,5.1
			l-1.4,0L1087.51,492.74z"/>
		<path class="st8" d="M1095.39,498.71l-1-1.83l-0.88,1.01l0,2.14l-1.4,0l-0.01-10.51l1.4,0l0,6.44l2.83-3.22l1.7,0l-2.69,3.04
			l1.49,2.66c0.38,0.69,0.91,0.63,1.32,0.52l-0.01,1.12C1096.78,500.29,1096.18,500.16,1095.39,498.71z"/>
		<path class="st8" d="M1098.36,500.78c0.27-0.17,0.57-0.42,0.62-0.73c-0.28-0.14-0.43-0.42-0.43-0.74c0-0.62,0.42-0.88,0.91-0.88
			c0.5,0,0.94,0.26,0.94,0.9c0,0.76-0.42,1.69-1.69,2.1L1098.36,500.78z"/>
		<path class="st8" d="M1104.89,490.21h1.37l4.02,6.92l-0.03-6.92l1.44,0l0.01,9.81l-1.39,0l-4.02-6.89l0.05,6.89l-1.44,0
			L1104.89,490.21z"/>
		<path class="st8" d="M1115.57,496.47l-2.99-6.26l1.61,0l2.12,4.73l2.08-4.74l1.61,0l-2.97,6.25l0,3.56l-1.47,0L1115.57,496.47z"/>
		<path class="st8" d="M1127.63,498.69l0,1.32l-4.09,0l0-1.32l1.43,0l0-6.75l-1.21,0.8l-0.67-1.05l2.09-1.49l1.23,0l0,8.49
			L1127.63,498.69z"/>
		<path class="st8" d="M1128.43,493.1c0-1.92,1.26-3.1,3.12-3.1s3.14,1.17,3.14,3.09l0,4.01c0,1.92-1.27,3.1-3.14,3.1
			s-3.12-1.17-3.13-3.09L1128.43,493.1z M1129.86,496.92c0,1.3,0.67,1.96,1.7,1.96c1.04,0,1.68-0.66,1.68-1.96l0-3.64
			c0-1.29-0.65-1.96-1.68-1.96c-1.02,0-1.69,0.67-1.69,1.96L1129.86,496.92z"/>
		<path class="st8" d="M1136.21,493.09c0-1.92,1.26-3.1,3.12-3.1s3.14,1.17,3.14,3.09l0,4.01c0,1.92-1.27,3.1-3.14,3.1
			s-3.12-1.17-3.13-3.09L1136.21,493.09z M1137.64,496.92c0,1.3,0.67,1.96,1.7,1.96c1.04,0,1.68-0.66,1.68-1.96l0-3.64
			c0-1.29-0.65-1.96-1.68-1.96c-1.02,0-1.69,0.67-1.69,1.96L1137.64,496.92z"/>
		<path class="st8" d="M1147.22,498.68l0,1.32l-4.09,0l0-1.32l1.43,0l0-6.75l-1.21,0.8l-0.67-1.05l2.09-1.49l1.23,0l0,8.49
			L1147.22,498.68z"/>
		<path class="st8" d="M1151.63,498.67l0,1.32l-4.09,0l0-1.32l1.43,0l0-6.75l-1.21,0.8l-0.67-1.05l2.09-1.49l1.23,0l0,8.49H1151.63z
			"/>
	</g>
	<g>
		<path class="st14" d="M1013.62,461.64c-2.54,0-4.59,2.06-4.59,4.59c0,2.54,2.06,4.59,4.59,4.59c2.53,0,4.59-2.06,4.59-4.59
			C1018.21,463.69,1016.16,461.63,1013.62,461.64z"/>
		<path class="st14" d="M1013.62,447.86c-10.14,0.01-18.36,8.23-18.35,18.37c0,3.35,0.9,6.48,2.47,9.18l15.91,27.53l15.88-27.55
			c1.56-2.7,2.46-5.83,2.46-9.18C1031.98,456.08,1023.75,447.86,1013.62,447.86z M1020.05,466.22c0,3.54-2.88,6.43-6.42,6.43
			c-3.54,0-6.43-2.88-6.43-6.42c0-3.54,2.88-6.43,6.42-6.43C1017.17,459.8,1020.05,462.68,1020.05,466.22z"/>
	</g>
</g>
</svg>
