<?xml version="1.0" encoding="utf-8"?>
<!-- Generator: Adobe Illustrator 22.1.0, SVG Export Plug-In . SVG Version: 6.00 Build 0)  -->
<svg version="1.1" id="Layer_1" xmlns="http://www.w3.org/2000/svg" xmlns:xlink="http://www.w3.org/1999/xlink" x="0px" y="0px"
	 viewBox="0 0 290.5 276" style="enable-background:new 0 0 290.5 276;" xml:space="preserve">
<style type="text/css">
	.st0{fill:#FFFFFF;}
</style>
<g>
	<path class="st0" d="M138.8,266.9c-48.2,0-90.2-26.6-112.3-65.8l-5.5,1.1c22.7,41.7,67,70.1,117.8,70.1
		c69.1,0,126.2-52.5,133.3-119.8c-1.8,1-3.7,1.8-5.7,2.5C258.1,218.1,204.1,266.9,138.8,266.9z"/>
	<path class="st0" d="M10.1,138.2c0-71,57.7-128.7,128.7-128.7c53.9,0,100.2,33.3,119.3,80.4c1.5-0.9,3.1-1.7,4.7-2.4
		c-20-48.8-68.1-83.3-124-83.3c-73.9,0-134,60.1-134,134c0,10.6,1.2,20.9,3.6,30.8l2.8-14C10.5,149.5,10.1,143.9,10.1,138.2z"/>
	<path class="st0" d="M156.6,169.5h-0.1C156.5,169.5,156.5,169.5,156.6,169.5C156.5,169.5,156.6,169.5,156.6,169.5z"/>
	<path class="st0" d="M75.1,124.4c-0.2-0.1-0.4-0.1-0.6-0.2c0.9-4,2.2-7.8,3.9-11.5c3.4-2,6.6-4.3,10-5.5
		c7.2,3.7,12.1,10.4,14.9,17.3c0.4,1.1,0.7,2.3,1,3.5c1.2-1.4,2.6-2.8,4.1-4.1c5.5-4.8,12.3-8.2,18.6-9.4c-0.6-1.7-1.2-3.3-2-4.9
		c-4-8.4-8.2-15.5-14-22.8c0,0-0.1-0.2-0.2-0.6s-0.1-0.9-0.1-0.9s-0.3-3.6-0.4-5.4c7.8-3.7,16.4-6,25.5-6.3c3.2,6,6.2,12.4,5,19.5
		l-4.4-5.3l-6.3-9.4c-1.4,8.1,1.3,17.8,6.7,23.8c0.8,1,2.1,1.6,2.2,2.9c-1.3,3-2.7,5.7-4.1,8.5c5.4,0,9.4,1.7,12.1,4.9
		c0.7,0.8,1.2,1.7,1.6,2.6c2.1-2.9,4.8-5.7,7.8-8.2c0.7-0.6,1.4-1.1,2.2-1.6c-0.4-3.7-0.1-7.3,2.8-9.8c3.7-5.8,9.2-11,11.9-17.9
		c7.6,4.7,14.1,11,19.3,18.3l6.4-2.2l1.6-0.6c1.6-6.1,5.5-11.3,8-17.1c1.9-5.2,2.8-10.3,3.2-15.3c0-0.2-0.2-0.3-0.4-0.3
		c-0.6,0.2-0.9,0.5-1.2,0.7c-2.2,4.6-4.3,9.4-6.6,14c-2.7,5.5-4.9,11.1-7.6,16.4c-5.7-7.7-12.9-14.3-21.2-19.2
		c0.1-0.4,0.1-0.8,0.2-1.1c-0.3-2,1-4,0.9-5.7c-0.4,0-1-0.2-1.2,0.2c-0.1,0.6-0.4,1.2-0.8,2.1c-0.7,1-1.3,2-1.9,3
		c-10-5.3-21.4-8.4-33.4-8.4c-0.6,0-1.1,0-1.7,0c-0.9-1-1.9-1.9-3-2.7c-0.7-1-1.2-2.1-2-3.2c0-0.2-0.5-0.6-0.6-0.1
		c0,1.3,0.3,2.3,0.5,3.7c0.4,0.8,0.8,1.7,1.2,2.5c-8.1,0.6-15.8,2.6-22.9,5.7c0-0.3,0-0.6,0-0.8c0.3-10.9,4-21.9,5.1-32.5l-0.2-0.1
		l-0.3,0.1c-1.4,2.3-2.7,4.8-3.6,7.7c-2.6,9.4-5.6,19.6-7.6,28.9c-0.2,0.1-0.4,0.3-0.7,0.4c-3.7-3.7-7.3-6.4-11.3-8.9
		C88,67,83.8,63,78.9,63.8c5,4.5,11.2,9.7,16,15.6c0.8,0.7,1.6,1.4,2.3,2.2c-7.5,5.4-13.9,12.2-18.8,20c-9,0.4-14.6,8.8-22.8,11.3
		c-0.2,0-0.4,0.3-0.3,0.5c0.3,0.3,0.3,0.5,0.8,0.8c1.6,1.1,3.1,1.4,5,2c3.8,1.2,7.1,0.9,10.3,0c-0.7,2-1.3,4-1.8,6
		c-1.7-0.9-3.4-1.8-5.6-2.4c-4.2-1.5-8.8-1.5-12.9-2.6c-1.6-0.3-3.3-1.5-4.4-1c0.5,0.5,1.1,0.8,2,1.3c5.5,3.6,13.4,5.6,20.1,8.5
		c-0.2,1.2-0.4,2.4-0.6,3.6c2.7-1.9,5.7-3.4,8.8-4.5C76.3,124.8,75.7,124.6,75.1,124.4z M168.7,80.8c-4.1,4.6-9,9.7-13.8,13.4
		l-2.5-8.3c-0.3,0-0.4,0.1-0.5,0.2c-1.8,4.6-0.9,9.6-0.7,14.3c-0.3,0.6-0.6,1-1,1.3c-8.7-5.4-1.5-15.4-6-23.2
		c-0.8-1.6-1.8-3.3-3-4.9C151.1,74,160.4,76.5,168.7,80.8z M100.2,85.9c3.3,6.4,3,14.2,2.4,22.3c-0.5,0.8,0.2,1.8-0.3,2.5
		c-0.4-0.1-0.6-0.5-0.8-0.9c-4.6-4.7-9.9-7.8-17.1-7.8C88.7,95.7,94.1,90.3,100.2,85.9z"/>
	<path class="st0" d="M195.9,172c-1.2-1.4-2.5-2.5-3.8-3.5c-2,1.2-4.3,2.1-6.8,2.6c-1.4,0.3-2.6,0.4-3.7,0.4c-2.6,0-5-0.7-6.8-2.1
		c-4.4,3.5-9.6,5.9-14.1,6.8l0,0l0,0c-1.3,0.3-2.7,0.4-4.1,0.4c-5.6,0-10.7-2.1-14.2-5.9c-6.8,7.3-18,13.2-24.6,14.5
		c-1.6,0.3-3.3,0.5-5,0.5c-2.8,0-5.4-0.4-7.9-1.1c0.5,4,0.7,7.8,0.9,12c-4.1-2.4-8-5.2-11.4-8.4l-2.5,0.5l-3.8,0.8
		c5.3,5.4,13.3,10.3,18.3,13.4c5.2,3.3,21.3,8.1,31.1,7.8c0.4,0,0.9,0,1.3,0c5,0,9.9-0.5,14.6-1.5c2.9,5.1,5.7,10.4,5.8,16.9
		c0.3,0.7,0.4,1.6,1.2,1.5c0.5-6.9,2.1-14.1,0.9-20.6c0.5-0.2,1.1-0.4,1.6-0.6c3.4-1,9.7-3.8,12.3-5.5c2.8-1.7,9.5-7,13.5-11
		l4.8,1.3v-1c-1.1-0.5-2.1-1.2-3.1-1.9c3.2-3.4,6.1-7.1,8.6-11.1c1.5,0.2,3,0.5,4.5,1l0.5-0.9c-1.3-0.8-2.4-1.6-3.6-2.4
		c1.8-3.1,3.4-6.4,4.7-9.7c-1.7-0.6-3.3-1.5-4.6-2.7C199.1,165.8,197.6,168.9,195.9,172z M140.8,205.2l2-16.9L148,199
		c0,0.1,0.2,0.4,0.4,0.8c0.6,1.5,1.3,3,2.1,4.4C147.3,204.8,144.1,205.1,140.8,205.2z M176.3,193.5c0.1-2,0.1-4,1.2-6.5l5.2,1.4
		C180.7,190.2,178.5,191.9,176.3,193.5z M186.2,185c-2.4-2.1-4.8-4.4-7.1-6l1.8-6.8c3.4,0.8,6.2,3.5,10.4,3.9
		c0.6,0.1,1.2,0.2,1.8,0.3C191,179.5,188.7,182.3,186.2,185z"/>
</g>
<g>
	<path class="st0" d="M90.4,182.3L71.8,186c0,0,5.9-28.9,6.9-33.8c1.4-7-0.7-14.1-7.1-9.1c-3.5,2.7-4.6,7.2-5.4,11.1l-7,34.1
		l-18.3,3.5l6.8-33.4c1.6-7.7-0.5-14.8-7.1-9.7c-2.7,2.1-3.9,4.2-4.7,8l-7.7,37.6l-18.3,3.5l10.8-53.6l18.2-3.5l-0.6,3.3
		c8.1-7.3,27.3-12.7,27.9-1.5c3.1-7.7,18.6-14.2,25.9-10.8c4.4,2.1,7.3,6.6,6.2,12.2C97.2,148.8,90.4,182.3,90.4,182.3z"/>
	<path class="st0" d="M118.2,161c-0.2,1-0.4,1.8-0.6,2.6c-1.6,8,4.8,6,7,5.4c5.2-1.6,13.7-7.8,13.7-7.8l1.8,1.4
		c-3.8,7.2-16.6,14.9-23.7,16.3c-7.8,1.5-19.3-1.8-17.2-12.3c1-5,2.5-12,4.6-22.7c2-10.2,14.2-20,24.8-22
		c16.6-3.2,15.4,5.1,13.4,15.1C140,146.5,130,158.7,118.2,161z M131,128.9c-2.5,0.5-7.1,3.2-8.3,9.3c-1.5,6.9-2.2,10.9-3.2,15.9
		c6.3-1.2,12.9-5,14.5-13.2c0,0,0-0.2,0.6-3C135.2,134.7,135.8,128,131,128.9z"/>
	<path class="st0" d="M193.5,145.7c-1.1,5.4,2.5,3.6,2.9,1.8l1-0.1c-1.7,8-5,15.8-13.3,17.4c-6.4,1.2-6.8-1.7-7.2-8.5
		c-2.8,7-11.2,12.3-17.6,13.6c-7.8,1.5-15.8-3.5-14-12.3c1-5,2.3-11.5,4.5-22.2c1.2-5.5,5.3-11.7,11.1-16.5c8.5-7,18.7-4.9,21.2-3.2
		l0.4-2.4l18.8-6.5L193.5,145.7z M175,121.1c-2.5,0.5-4.9,3-6,8.3c-2.2,10.7-4.6,22.9-5.6,27.9c-0.8,4,1.5,4.3,3.6,3.9
		c3.1-0.6,6.9-4.8,7.8-8.9l4.6-22.6C180.6,123.2,178.3,120.4,175,121.1z"/>
	<path class="st0" d="M234.7,112.6c0,0-1.5-0.8-2.8-0.6l-6.6,1.3l-5.5,26.9c-1,5.1-1.5,8.7,5.4,7.4c2.8-0.5,5.3-3.3,7.8-6.1
		l-2.2,11.2c-3.2,3.1-7.2,5.7-11.2,6.5c-14.1,2.7-20.6-0.9-16.8-19.8l8.9-43.7l17.9-3.4l-2.5,12.3l6.5-1.2c1.5-0.3,3.5-2.1,3.5-2.1
		L234.7,112.6z"/>
	<path class="st0" d="M285.4,99c-1.7-0.9-3.4-1.5-5.9-1c-5.9,1.2-9.1,5.3-8.4,9.7c0.8,5,16.2,6.6,13,21.3
		c-2.3,10.4-13.6,19.4-26,21.8c-9.3,1.8-18.4-1.6-19.7-8l1.2-5.7c1.4,3.8,6,7,14.4,5.4c3.1-0.6,6.1-3.9,6.1-7.6
		c0-9.6-14.3-5.7-11-22c1.7-8.6,10.3-17.9,23.4-20.4c5.4-1,11.6,1.4,13.4,3.5L285.4,99z"/>
</g>
<g>
	<path class="st0" d="M21.6,114.8c-1.3-0.4-1.9,0-2.4,1.9l-1.5-0.4l2.6-9.5l1.5,0.4c-0.5,1.9-0.2,2.5,1.1,2.9l34.2,9.5
		c1.7,0.5,4.2,0.3,4.8-1.8c0.6-2.1-0.8-3.3-3.2-4l-34.2-9.5c-1.3-0.4-1.9,0-2.4,1.9l-1.5-0.4l2.2-7.9l1.5,0.4
		c-0.5,1.9-0.2,2.5,1.1,2.9l35.6,9.9c2.7,0.7,3.8,3.6,2.6,8c-1.2,4.3-3.5,6.5-6.4,5.7L21.6,114.8z"/>
	<path class="st0" d="M41,83.3c-4.8-2.5-8-2-9.2,0.2c-0.8,1.5,0.5,2.7,2,3.5s7.4,3,16.3,3.2c4.8,0.1,13,0.4,17.7,2.9
		c4.3,2.3,4.1,7,2.8,9.5c-1.2,2.2-2.3,3.3-3,3.9c-0.6,0.5-0.9,0.8-1,1.1c-0.3,0.5,0,1.2,0.5,1.7l-0.8,1.5L52,103.2l1.5-2.9l5.5,2.9
		c4,2.1,8.4,1.2,9.7-1.1c0.8-1.4,0-2.8-1.8-3.8c-3.8-2-12.3-2.9-17.4-3c-6.1-0.1-13.1-1.5-16.7-3.4c-4-2.1-4.2-6.1-2.6-9.1
		c0.8-1.4,1.7-2.5,2.2-2.8c0.4-0.3,0.8-0.6,1-1.1s0-1.1-0.3-1.6l0.8-1.5L47.5,83L46,85.9L41,83.3z"/>
	<path class="st0" d="M62.8,43.1l1,1.2c-1.2,1-1.8,2.2-0.8,3L81.3,64l0.2-0.1L68,43.2c-0.7-1.1-2.1-0.6-3.4,0.5l-1-1.2l6.6-5.7
		l1,1.2c-1.2,1-1.6,2-0.8,3l23.4,34.8l-2.7,2.3L71,60.1l-0.2,0.1l15.6,21.9l-2.7,2.3L52.1,56.7c-1-0.9-1.9-0.7-3.1,0.3l-1-1.2
		l6.9-5.9l1,1.2c-1.2,1.1-1.5,1.9-0.5,2.8L74,70.2l0.2-0.1L59.9,50c-0.7-1-1.9-0.8-3.3,0.4l-1-1.2L62.8,43.1z"/>
	<path class="st0" d="M98.3,72.8l-0.7-1.4c1.8-0.8,2-1.5,1.5-2.7L82.8,34c-0.6-1.2-1.2-1.4-3-0.6L79.1,32l15-7.1l6.5,13.7l-3,1.4
		l-3.3-6.9c-0.6-1.3-1.5-2.9-2.6-3.6s-2.9-0.4-3.9,0.1c-0.9,0.4-1.2,1.1-0.6,2.3l7.3,15.5c0.2,0.4,0.3,0.7,0.9,0.4
		c1.8-0.8,1.9-1.4,1.3-2.8l-1-2.2l2-1l4.8,10.2l-2,1l-1-2.2c-0.8-1.7-1.4-2.1-3.2-1.2c-0.6,0.3-0.5,0.5-0.2,1l7.5,16
		c0.6,1.2,1.2,1.4,2.2,1c1-0.5,2.4-1.6,2.6-2.9c0.2-1.3-0.5-3-1.1-4.3l-3.3-7.1l3-1.4l6.5,13.8L98.3,72.8z"/>
	<path class="st0" d="M112.8,65.9l-0.4-1.5c1.9-0.5,2.3-1,2-2.3l-8.9-37.2c-0.3-1.3-0.9-1.6-2.8-1.2l-0.4-1.5l9.6-2.3l0.4,1.5
		c-1.9,0.5-2.3,1-2,2.3l8.9,37.2c0.2,0.9,1.2,1.6,2.6,1.2c1.6-0.4,2.4-1.6,2.6-2.5c0.3-1.1,0.2-2.6,0-3.7l-1.9-8.1l3.2-0.8l3.5,14.9
		L112.8,65.9z"/>
	<path class="st0" d="M128.6,62.1v-1.6c1.9-0.1,2.4-0.5,2.4-1.9l-1.1-38.3c0-1.3-0.6-1.8-2.5-1.7V17l9.8-0.3v1.6
		c-1.9,0.1-2.4,0.5-2.4,1.9l1.1,38.3c0,1,0.9,1.8,2.3,1.7c1.6,0,2.6-1,3-1.9c0.5-1,0.8-2.5,0.7-3.6l-0.2-8.3l3.3-0.1l0.4,15.3
		L128.6,62.1z"/>
	<path class="st0" d="M144.6,61.4l0.3-1.5c1.9,0.4,2.5,0,2.8-1.3L155,21c0.3-1.3-0.2-1.9-2.1-2.2l0.3-1.5l8.3,1.6l0.8,24h0.2
		l3.8-19.7c0.3-1.3-0.2-1.9-2.1-2.2l0.3-1.5l8.1,1.6l-0.3,1.5c-1.9-0.4-2.5,0-2.8,1.3l-8,40.9l-2.7-0.5L157.6,26h-0.2l-6.5,33.3
		c-0.3,1.3,0.2,1.9,1.7,2.2l-0.3,1.5L144.6,61.4z"/>
	<path class="st0" d="M163.1,65.1l0.6-1.4c1.8,0.8,2.4,0.6,3-0.7l15.4-35c0.5-1.2,0.3-1.9-1.5-2.6l0.6-1.4l15.2,6.7l-6.1,13.9
		l-3-1.3l3.1-7c0.6-1.3,1.2-3.1,1-4.3c-0.2-1.3-1.6-2.4-2.7-2.9c-0.9-0.4-1.6-0.2-2.1,1l-6.9,15.7c-0.2,0.4-0.3,0.7,0.2,1
		c1.8,0.8,2.4,0.5,3-0.9l1-2.3l2.1,0.9l-4.5,10.3l-2.1-0.9l1-2.3c0.7-1.7,0.6-2.4-1.2-3.2c-0.6-0.2-0.7,0-0.9,0.5L171.2,65
		c-0.5,1.2-0.3,1.9,0.7,2.3c1,0.5,2.8,0.8,3.9,0c1.1-0.7,1.9-2.4,2.5-3.7l3.1-7.1l3,1.3l-6.2,14L163.1,65.1z"/>
	<path class="st0" d="M208.2,50.1c3.1-4.4,3.1-7.7,1-9.2c-1.4-1-2.8,0.2-3.7,1.5c-1,1.4-3.9,6.9-5.2,15.7
		c-0.7,4.8-2.1,12.9-5.1,17.2c-2.8,4-7.4,3.2-9.8,1.5c-2-1.4-3-2.7-3.4-3.5c-0.4-0.7-0.7-1-0.9-1.2c-0.5-0.4-1.1-0.2-1.7,0.3l-1.4-1
		l9.3-13.2l2.7,1.9l-3.6,5c-2.6,3.7-2.3,8.2-0.1,9.8c1.3,1,2.8,0.3,4-1.3c2.5-3.5,4.5-11.8,5.2-16.9c0.9-6,3.2-12.8,5.5-16.1
		c2.6-3.7,6.5-3.4,9.4-1.4c1.3,0.9,2.2,2,2.5,2.5c0.2,0.4,0.5,0.9,0.9,1.2s1.1,0.1,1.6-0.1l1.4,1l-9.1,12.8l-2.7-1.9L208.2,50.1z"/>
	<path class="st0" d="M224.7,65.6c3.9-3.7,4.5-6.9,2.8-8.8c-1.2-1.3-2.7-0.4-3.9,0.7c-1.3,1.2-5.2,6-8.2,14.4
		c-1.7,4.5-4.6,12.2-8.4,15.8c-3.5,3.3-7.9,1.7-9.9-0.4c-1.7-1.8-2.4-3.2-2.7-4.1c-0.3-0.7-0.5-1.1-0.7-1.3c-0.4-0.4-1.1-0.4-1.8,0
		l-1.2-1.3l11.8-11.1l2.2,2.4l-4.5,4.2c-3.3,3.1-3.9,7.6-2.1,9.5c1.1,1.2,2.6,0.9,4.1-0.5c3.1-2.9,6.7-10.7,8.4-15.5
		c2-5.7,5.7-11.9,8.6-14.7c3.3-3.1,7.1-2,9.5,0.5c1.1,1.2,1.8,2.4,2,3c0.2,0.4,0.3,1,0.7,1.3c0.4,0.4,1,0.3,1.6,0.2l1.2,1.3
		l-11.4,10.7l-2.2-2.4L224.7,65.6z"/>
</g>
<g>
	<path class="st0" d="M59.3,197.8c3.7-2.8,7.7-5.5,9.5-3.1s-1.8,5.5-5.4,8.4c-4.2,3.2-8.2,5.9-10,3.5
		C51.5,204.2,55.1,201,59.3,197.8z M62,201.3c6-4.6,6.4-5.7,6.1-6.2c-0.4-0.5-1.6-0.3-7.5,4.3c-6.5,5-7,6.1-6.6,6.6
		C54.3,206.5,55.5,206.3,62,201.3z"/>
	<path class="st0" d="M61.8,214.2c-0.4,0.4-0.4,0.7,0,1.3l-0.5,0.4l-1.8-1.9l0.4-0.3l-0.1-0.1c-0.4-0.1-0.9-0.3-1.4-0.8
		c-0.8-0.8-0.9-1.7,0.1-2.6l8.5-7.7c0.4-0.4,0.4-0.7,0-1.3l0.5-0.4l1.7,1.9l-9.3,8.5c-0.5,0.5-1,1-0.5,1.5c0.4,0.5,1.1,0.3,1.7-0.3
		l8.2-7.5c0.4-0.4,0.4-0.7-0.2-1.5l0.5-0.4l2,2.1L61.8,214.2z"/>
	<path class="st0" d="M65.1,217.5c-0.4,0.4-0.4,0.7,0.2,1.4l-0.4,0.5l-2.7-2.6l0.4-0.5c0.6,0.5,0.9,0.5,1.3,0.1l8.2-8.6
		c0.4-0.4,0.4-0.7-0.1-1.3l0.4-0.5l1.9,1.8l-0.3,0.3l0.1,0.1c0.6,0.2,1,0.4,1.3,0.7c0.6,0.5,0.9,1.4,0,2.2c-1,1.1-1.7,1.4-2.3,0.8
		c-0.4-0.4-0.3-0.9,0-1.3c0.3-0.3,0.7-0.4,1-0.4c0.4,0,0.6-0.1,0.8-0.3c0.2-0.2,0.2-0.4-0.1-0.7c-0.5-0.5-1.4-0.5-2.2,0.4
		L65.1,217.5z"/>
	<path class="st0" d="M81.5,217.2c0.5-0.6,1-1.3,0.2-1.9c-0.8-0.6-1.6,0-2,0.6s-0.5,1.1-0.5,1.5c0,0.2,0,0.5-0.3,0.9
		c-0.2,0.3-0.7,0.4-1.2,0c-0.5-0.3-0.6-1.1,0.5-2.4c1.3-1.7,2.6-2.1,4-1s1.4,2.2-0.3,4.5l-5.7,7.4c-0.3,0.5-0.3,0.9,0.2,1.3
		l-0.5,0.6l-0.5-0.4c-0.5-0.3-0.7-0.9-0.9-1.3c-0.7-0.2-1.3-0.4-1.8-0.7c-0.8-0.6-1.3-1.8,0.2-3.9c1.8-2.3,4.1-2.7,5.3-2.8
		c0.8-0.1,1.5-0.3,1.8-0.7L81.5,217.2z M79,220.3L79,220.3c-1.7,0.3-3,1-4.6,3c-1,1.4-1.4,2-0.8,2.4c0.4,0.3,1,0.4,1.2,0L79,220.3z"
		/>
	<path class="st0" d="M85.1,218.7c0.3-0.5,0.3-0.8-0.4-1.2L85,217l2.2,1.4l-0.2,0.3h0.1c0.3,0,0.7,0,1.2,0.3c1,0.7,1.5,1.7,0.2,3.6
		l-5.7,8.7c-0.3,0.5-0.3,0.8,0.4,1.2l-0.3,0.5l-2.7-1.8l0.3-0.5c0.4,0.2,0.7,0.1,1-0.3l5.9-9c0.5-0.7,1-1.5,0.4-1.9
		c-0.7-0.5-1.3,0.1-1.6,0.6l-6.1,9.3c-0.3,0.5-0.3,0.8,0.1,1.1l-0.3,0.5l-2.8-1.8l0.3-0.5c0.7,0.4,1,0.3,1.3-0.2L85.1,218.7z"/>
	<path class="st0" d="M86.8,233.7c-0.3,0.5-0.2,0.8,0.4,1.2l-0.3,0.5l-3.1-1.8l0.3-0.5c0.7,0.3,1,0.3,1.3-0.2l5.9-10.3
		c0.3-0.5,0.2-0.8-0.4-1.2l0.3-0.5l2.3,1.3L86.8,233.7z M94.9,219.9c-0.3,0.6-1,0.7-1.5,0.4s-0.7-0.9-0.4-1.5c0.4-0.7,1-0.8,1.5-0.6
		C95.1,218.6,95.3,219.2,94.9,219.9z"/>
	<path class="st0" d="M94.5,224.5c0.2-0.5,0.2-0.8-0.5-1.2l0.3-0.6l2.4,1.1l-0.2,0.4h0.1c0.4,0,0.8,0,1.3,0.2c0.4,0.2,0.9,0.6,1.1,1
		c0.5,0,1,0.1,1.6,0.3c0.9,0.4,1.7,1.5,0.8,3.3l-4.6,9.7c-0.2,0.5-0.2,0.8,0.5,1.2l-0.3,0.6l-3-1.5l0.3-0.6c0.4,0.1,0.7,0,0.9-0.5
		l4.6-9.7c0.4-0.8,0.8-1.6,0.2-1.9c-0.8-0.4-1.3,0.3-1.5,0.8l-4.8,10c-0.2,0.5-0.2,0.8,0.2,1l-0.3,0.6l-2.4-1.2l0.3-0.6
		c0.4,0.1,0.7,0,0.9-0.5L97,227c0.4-0.8,0.8-1.6,0.2-1.9c-0.7-0.4-1.2,0.3-1.5,0.8l-4.8,10c-0.2,0.5-0.2,0.8,0.2,1l-0.3,0.6
		l-2.9-1.4l0.3-0.6c0.7,0.3,1,0.2,1.2-0.3L94.5,224.5z"/>
	<path class="st0" d="M106.3,230.7c0.3-0.7,0.6-1.5-0.3-1.8s-1.5,0.4-1.8,1.1c-0.3,0.7-0.1,1.2,0,1.5c0.1,0.2,0.1,0.5,0,0.9
		s-0.6,0.6-1.1,0.4c-0.5-0.2-0.9-0.9-0.3-2.5c0.8-2,1.9-2.8,3.6-2.2c1.6,0.6,2,1.7,1,4.4l-3.3,8.7c-0.2,0.5,0,1,0.6,1.2l-0.3,0.7
		l-0.6-0.2c-0.5-0.2-1-0.6-1.2-1c-0.8,0-1.4,0-1.9-0.2c-1-0.4-1.8-1.3-0.9-3.8c1-2.7,3.1-3.8,4.3-4.2c0.8-0.3,1.3-0.7,1.5-1.2
		L106.3,230.7z M104.9,234.4L104.9,234.4c-1.6,0.8-2.6,1.9-3.5,4.2c-0.6,1.6-0.7,2.3-0.1,2.6c0.5,0.2,1,0.1,1.2-0.3L104.9,234.4z"/>
	<path class="st0" d="M108.4,242.9c-0.2,0.5,0,0.8,0.7,1.1l-0.2,0.6l-3.4-1.1l0.2-0.6c0.8,0.2,1,0,1.2-0.5l4.9-15.9
		c0.2-0.5,0-0.8-0.7-1.1l0.2-0.6l2.5,0.8L108.4,242.9z"/>
	<path class="st0" d="M111.7,240.1l1.1,0.3l-0.5,2c-0.3,1.3-0.1,2.3,0.6,2.5c0.6,0.1,0.8-0.2,0.9-0.6c0.2-0.9,0.1-3-0.4-6.5
		c-0.2-1.2-0.2-3.1,0.2-4.8c0.3-1.4,1.3-2,2.4-1.8c0.5,0.1,0.9,0.5,1.3,0.8l0.3-0.4l0.8,0.2l-1.3,5.1l-1.1-0.3l0.6-2.4
		c0.3-1.4,0.2-2-0.5-2.2c-0.6-0.2-0.9,0.3-1.1,0.9c-0.2,0.8-0.3,2.7,0.1,5c0.4,2.1,0.6,4.7,0.2,6.5c-0.3,1.1-1.2,1.5-2.2,1.3
		c-0.7-0.2-1.2-0.5-1.5-0.9l-0.5,0.4l-0.8-0.2L111.7,240.1z"/>
	<path class="st0" d="M128.2,241.1l-3.4-0.5c-0.7,5.1-0.9,6.4,0,6.5c1,0.1,1.4-0.7,1.7-2.5l0.2-1.6l1.2,0.2l-0.2,1.6
		c-0.3,2-1,3.4-3,3.1c-2-0.3-2.4-2.1-1.6-7.8c0.7-5.4,1.5-7.1,3.6-6.8c2,0.3,2.3,2.1,2,4L128.2,241.1z M124.9,239.8l1.8,0.2l0.5-3.5
		c0.1-0.9,0.3-2.4-0.6-2.5C125.7,233.9,125.5,235.4,124.9,239.8z"/>
	<path class="st0" d="M133.7,236.3c0-0.8,0.1-1.6-0.8-1.7c-1-0.1-1.3,0.8-1.4,1.6c0,0.7,0.2,1.2,0.4,1.5c0.2,0.2,0.3,0.5,0.2,0.9
		c0,0.4-0.4,0.7-1,0.7s-1.1-0.6-1-2.3c0.1-2.2,1-3.2,2.8-3.1c1.8,0.1,2.4,1.1,2.3,3.9l-0.6,9.3c0,0.6,0.3,0.9,0.9,1v0.8h-0.6
		c-0.6,0-1.1-0.3-1.4-0.6c-0.7,0.2-1.3,0.4-1.9,0.4c-1-0.1-2.1-0.8-2-3.4c0.2-2.9,1.9-4.5,2.9-5.3c0.6-0.5,1-1.1,1.1-1.6
		L133.7,236.3z M133.5,240.3L133.5,240.3c-1.3,1.2-2,2.5-2.1,5c-0.1,1.7,0,2.4,0.7,2.5c0.5,0,1-0.2,1-0.7L133.5,240.3z"/>
	<path class="st0" d="M137.6,235.4c0-0.5-0.6-0.7-1.2-0.8V234c1.1,0,1.5-0.5,1.5-1.3v-2.6h1.3v3.9h1.5v0.6c-0.9,0.1-1.5,0.3-1.5,0.8
		V247c0,0.6,0,1,0.3,1s0.3-0.4,0.3-1v-1.6h1.1v1.9c0,1-0.6,1.5-1.6,1.4c-1.3,0-1.9-0.5-1.9-1.7L137.6,235.4z"/>
	<path class="st0" d="M149.1,246.9c0.1,0.6,0.3,0.8,1.2,0.7l0.1,0.6l-3.7,0.4l-0.1-0.6c0.8-0.1,1-0.4,0.9-0.9l-1.1-11.8
		c-0.1-0.6-0.3-0.8-1.1-0.7l-0.1-0.6l2.6-0.2v0.4h0.1c0.6-0.3,0.9-0.5,1.4-0.5c0.8-0.1,1.6,0.2,1.7,1.5c0.1,1.5-0.1,2.2-0.9,2.3
		c-0.6,0.1-0.9-0.4-0.9-0.8c0-0.4,0.1-0.7,0.4-1c0.3-0.3,0.3-0.6,0.3-0.8c0-0.3-0.2-0.4-0.7-0.4c-0.7,0.1-1.3,0.7-1.2,1.9
		L149.1,246.9z"/>
	<path class="st0" d="M155.6,246.1c0.1,0.6,0.3,0.7,1.1,0.7l0.1,0.6l-3.6,0.5l-0.1-0.6c0.8-0.2,0.9-0.4,0.8-1l-1.7-11.7
		c-0.1-0.6-0.3-0.7-1.1-0.7l-0.1-0.6l2.6-0.4L155.6,246.1z M153.5,230.2c0.1,0.6-0.3,1.2-0.9,1.3c-0.6,0.1-1.1-0.3-1.2-1
		c-0.1-0.8,0.3-1.3,0.9-1.4C152.9,229.1,153.4,229.5,153.5,230.2z"/>
	<path class="st0" d="M162.8,247c1.9-0.4,2.8,0.1,3,1c0.1,0.7-0.6,1.4-2.2,1.8l-2.5,0.5c-1.3,0.3-2.3,0.1-2.4-0.6
		c-0.1-0.5,0.2-1,0.6-1.2c-0.6-0.2-0.9-0.5-1-0.9c-0.1-0.3,0.2-0.7,0.6-1.1c-0.4-0.4-1.2-1.3-2.3-6.6c-1.1-5.2-0.9-7.2,1.1-7.6
		c0.7-0.2,1.1-0.1,1.7,0.3c0.3-0.4,0.7-0.8,1.4-1c1.3-0.2,1.9,1,2.1,1.9c0.1,0.6,0,1.1-0.6,1.2c-0.6,0.1-0.9-0.2-1-0.6
		c-0.1-0.3,0-0.6,0-0.8c0.1-0.3,0-0.6,0-0.8s-0.3-0.3-0.6-0.2c-0.6,0.1-0.9,0.6-0.6,1.1c0.2,0.5,0.9,1.7,1.6,5.4
		c1.1,5.3,1,7.5-1,7.9c-0.5,0.1-0.9,0.1-1,0.1c-0.2,0.2-0.3,0.3-0.2,0.4c0.1,0.3,0.5,0.3,1.1,0.2L162.8,247z M158.2,239.5
		c1.1,5.3,1.5,6.6,2.3,6.4c0.7-0.2,0.6-1.5-0.5-6.8c-1-4.8-1.5-6.3-2.2-6.1C157,233.2,157.2,234.7,158.2,239.5z M161,248.4
		c-1.1,0.2-1.3,0.5-1.2,0.8s0.3,0.4,1.4,0.2l2.2-0.5c1.1-0.2,1.3-0.5,1.3-0.8c-0.1-0.3-0.6-0.4-1.5-0.2L161,248.4z"/>
	<path class="st0" d="M166.4,245.4l-0.2-0.6c0.7-0.3,0.9-0.5,0.7-1.1l-4.7-15.9c-0.2-0.5-0.4-0.7-1.2-0.5l-0.2-0.6l2.5-0.7l1.4,4.9
		h0.1c0.1-0.1,0.2-0.3,0.4-0.4c0.2-0.1,0.4-0.2,0.6-0.3c1.2-0.3,2.2-0.1,2.9,2.1l2.9,10c0.2,0.5,0.4,0.7,1.2,0.5l0.2,0.6l-3.1,0.9
		l-0.2-0.6c0.4-0.2,0.6-0.4,0.4-1l-3-10.3c-0.2-0.8-0.5-1.7-1.2-1.5c-0.8,0.2-0.8,1-0.6,1.6l3.1,10.7c0.2,0.5,0.4,0.7,0.9,0.6
		l0.2,0.6L166.4,245.4z"/>
	<path class="st0" d="M170.5,230.2c-0.2-0.5-0.8-0.5-1.4-0.3l-0.2-0.6c1.1-0.4,1.3-1,1-1.8l-0.9-2.4l1.3-0.5l1.3,3.7l1.4-0.5
		l0.2,0.6c-0.8,0.4-1.3,0.8-1.1,1.2l4,10.9c0.2,0.6,0.4,1,0.7,0.9s0.2-0.5,0-1.1l-0.5-1.5l1.1-0.4l0.6,1.8c0.3,0.9,0,1.6-1,1.9
		c-1.2,0.4-1.9,0.2-2.3-0.9L170.5,230.2z"/>
	<path class="st0" d="M181.9,234.6l1-0.5l0.9,1.9c0.6,1.2,1.3,1.8,2,1.5c0.6-0.3,0.5-0.7,0.3-1.1c-0.4-0.8-1.9-2.3-4.5-4.7
		c-0.9-0.8-2.1-2.2-2.9-3.8c-0.6-1.3-0.3-2.4,0.7-2.9c0.4-0.2,1-0.2,1.5-0.2v-0.5l0.7-0.4l2.3,4.8l-1,0.5l-1.1-2.2
		c-0.6-1.3-1.1-1.7-1.8-1.4c-0.6,0.3-0.5,0.8-0.2,1.4c0.4,0.8,1.4,2.2,3.3,3.8c1.6,1.4,3.5,3.2,4.3,4.9c0.5,1.1,0,2-0.8,2.4
		c-0.7,0.3-1.2,0.3-1.7,0.3l-0.1,0.6l-0.7,0.4L181.9,234.6z"/>
	<path class="st0" d="M191.3,226.8c2.9,5,3.2,6.8,1.5,7.8c-1.8,1-3.1-0.2-6-5.3c-2.7-4.7-3.1-6.6-1.3-7.6
		C187.2,220.8,188.6,222.1,191.3,226.8z M188.3,228.5c2.7,4.7,3.4,5.9,4.1,5.4c0.8-0.4,0.1-1.6-2.6-6.3c-2.4-4.3-3.2-5.6-4-5.2
		C185.1,222.9,185.8,224.3,188.3,228.5z"/>
	<path class="st0" d="M197.7,214.4c-0.7,0.5-0.6,0.8-0.4,1.3l7.8,13.5c0.4,0.7,0.2,1.6-0.7,2.2c-1,0.7-1.8,0.6-2.4-0.1
		c-0.6-0.8-0.8-1.6-0.3-2c0.4-0.3,0.9-0.1,1.1,0.3c0.2,0.2,0.3,0.5,0.3,0.7s0,0.4,0.2,0.6c0.1,0.2,0.3,0.3,0.6,0
		c0.4-0.3,0.5-0.8,0.2-1.2c-0.2-0.3-0.7-0.8-1-1.1l-9.5-10.2c-0.4-0.4-0.6-0.5-1.3,0l-0.4-0.5l2.6-1.9l0.4,0.5
		c-0.3,0.3-0.4,0.6,0,1.1l5.9,6.7h0.1l-4.5-7.7c-0.3-0.5-0.7-0.5-1.1-0.2l-0.4-0.5l2.4-1.8L197.7,214.4z"/>
	<path class="st0" d="M206.4,215.6c3.7,4.4,4.4,6.1,2.9,7.4c-1.6,1.3-3.1,0.3-6.9-4.1c-3.5-4.2-4.2-5.9-2.7-7.2
		C201.3,210.5,202.9,211.5,206.4,215.6z M203.7,217.9c3.5,4.2,4.4,5.1,5.1,4.6c0.7-0.6-0.2-1.6-3.7-5.7c-3.2-3.7-4.2-4.9-4.9-4.3
		C199.6,213,200.5,214.1,203.7,217.9z"/>
	<path class="st0" d="M216,214.8c0.4,0.4,0.7,0.4,1.3-0.1l0.4,0.4l-1.9,1.8l-0.3-0.4l-0.1,0.1c-0.1,0.5-0.3,1-0.7,1.4
		c-0.8,0.8-1.7,0.9-2.6,0l-8.1-8.2c-0.4-0.4-0.7-0.4-1.3,0.1l-0.4-0.4l1.8-1.8l8.9,9c0.5,0.5,1,0.9,1.5,0.4c0.4-0.4,0.3-1.1-0.3-1.7
		l-7.8-7.9c-0.4-0.4-0.7-0.4-1.5,0.3l-0.4-0.4l2.1-2L216,214.8z"/>
	<path class="st0" d="M221.4,202.9l2,1.6c1.4,1.1,1.5,2.3,0.4,3.6c-1.3,1.6-3,0.9-7.5-2.7c-4.3-3.4-5.3-5-4-6.6
		c1.1-1.4,2.3-1.4,4.1,0c1.4,1.1,1.4,1.9,1.1,2.3c-0.4,0.4-1,0.4-1.3,0.2s-0.3-0.4-0.4-0.7c-0.1-0.5-0.4-1.1-0.9-1.4
		c-0.6-0.5-1.5-0.6-2-0.1c-0.6,0.8,0.6,1.8,4.4,4.8c4.3,3.4,5.5,4,6,3.4s0-1.4-0.6-1.9l-2.1-1.7L221.4,202.9z"/>
	<path class="st0" d="M218.5,194.4c-0.6-0.4-1.3-0.9-1.9-0.1c-0.6,0.8,0,1.6,0.6,2s1.1,0.4,1.5,0.4c0.2,0,0.5,0,0.9,0.3
		c0.3,0.2,0.4,0.7,0.1,1.2c-0.3,0.5-1.1,0.6-2.4-0.4c-1.8-1.2-2.3-2.5-1.2-4c1-1.4,2.2-1.5,4.5,0.1l7.7,5.3c0.5,0.3,0.9,0.2,1.3-0.3
		l0.6,0.4l-0.3,0.5c-0.3,0.5-0.8,0.8-1.2,0.9c-0.2,0.7-0.3,1.3-0.7,1.8c-0.6,0.8-1.7,1.4-3.9-0.1c-2.4-1.7-2.9-4-3-5.2
		c-0.1-0.8-0.4-1.4-0.8-1.8L218.5,194.4z M221.8,196.7L221.8,196.7c0.4,1.7,1.2,3,3.2,4.4c1.4,1,2.1,1.3,2.5,0.7
		c0.3-0.4,0.3-1,0-1.2L221.8,196.7z"/>
	<path class="st0" d="M219.9,190.7c-0.5-0.3-0.8-0.2-1.2,0.4l-0.5-0.3l1.3-2.3l0.3,0.2v-0.1c0-0.3,0-0.7,0.2-1.2
		c0.6-1.1,1.6-1.6,3.6-0.4l9,5.3c0.5,0.3,0.8,0.2,1.2-0.4l0.5,0.3l-1.7,2.8l-0.5-0.3c0.2-0.4,0.1-0.7-0.4-1l-9.2-5.4
		c-0.8-0.4-1.6-0.9-1.9-0.3c-0.4,0.7,0.2,1.3,0.7,1.6l9.6,5.6c0.5,0.3,0.8,0.2,1.1-0.2l0.5,0.3l-1.7,2.9l-0.5-0.3
		c0.3-0.7,0.3-1-0.2-1.3L219.9,190.7z"/>
	<path class="st0" d="M225.3,180.6c-0.5-0.2-0.9,0.3-1.2,0.8l-0.6-0.3c0.5-1,0.2-1.6-0.6-1.9l-2.3-1.1l0.6-1.2l3.6,1.6l0.6-1.3
		l0.6,0.3c-0.3,0.9-0.3,1.5,0.1,1.7l10.6,4.8c0.6,0.3,0.9,0.4,1.1,0.1c0.1-0.3-0.2-0.5-0.8-0.7l-1.4-0.6l0.5-1l1.7,0.8
		c0.9,0.4,1.1,1.1,0.7,2c-0.5,1.2-1.2,1.5-2.3,1L225.3,180.6z"/>
	<path class="st0" d="M234.3,173.9c5.4,2.1,6.8,3.2,6.1,5.1c-0.7,1.9-2.6,1.8-8-0.2c-5.1-1.9-6.5-3.1-5.8-5
		C227.4,171.9,229.2,172,234.3,173.9z M233.1,177.2c5.1,1.9,6.3,2.4,6.6,1.6c0.3-0.8-0.9-1.3-6-3.2c-4.6-1.8-6-2.3-6.3-1.5
		C227,174.9,228.5,175.5,233.1,177.2z"/>
	<path class="st0" d="M236.5,166.9c5.5,1.7,7.1,2.7,6.5,4.7s-2.4,2-8,0.3c-5.2-1.6-6.8-2.6-6.2-4.6
		C229.4,165.4,231.3,165.4,236.5,166.9z M235.5,170.3c5.2,1.6,6.5,1.9,6.7,1.1c0.3-0.9-1-1.2-6.2-2.8c-4.7-1.4-6.2-1.8-6.4-1
		C229.3,168.4,230.8,168.9,235.5,170.3z"/>
	<path class="st0" d="M243.7,164.6c0.6,0.1,0.9,0.7,0.8,1.4c-0.2,0.6-0.7,1-1.3,0.9s-0.9-0.7-0.7-1.3
		C242.6,164.9,243.1,164.5,243.7,164.6z"/>
</g>
<g>
	<path class="st0" d="M253.5,158.9c2.3,0,4.2,1.8,4.2,4.1s-1.8,4.1-4.2,4.1c-2.3,0-4.2-1.8-4.2-4.1
		C249.3,160.7,251.1,158.9,253.5,158.9L253.5,158.9z M253.5,159.7c-1.8,0-3.1,1.5-3.1,3.3s1.3,3.3,3.2,3.3c1.8,0,3.1-1.4,3.1-3.3
		C256.6,161.2,255.3,159.7,253.5,159.7L253.5,159.7z M252.8,165.1h-0.9V161c0.4-0.1,0.9-0.1,1.6-0.1c0.8,0,1.1,0.1,1.4,0.3
		c0.2,0.2,0.4,0.5,0.4,0.9c0,0.5-0.3,0.8-0.8,1l0,0c0.4,0.1,0.6,0.4,0.7,1c0.1,0.6,0.2,0.9,0.3,1h-1c-0.1-0.2-0.2-0.5-0.3-1
		c-0.1-0.4-0.3-0.6-0.8-0.6H253v1.6L252.8,165.1L252.8,165.1z M252.9,162.8h0.4c0.5,0,0.9-0.2,0.9-0.6c0-0.4-0.3-0.6-0.9-0.6
		c-0.2,0-0.4,0-0.5,0v1.2L252.9,162.8L252.9,162.8z"/>
</g>
</svg>
