<?xml version="1.0" encoding="UTF-8"?> <svg xmlns="http://www.w3.org/2000/svg" id="Layer_1" data-name="Layer 1" viewBox="0 0 605.04 90"><defs><style> .cls-1 { fill: #0479c1; } .cls-2 { fill: #087bc2; } .cls-3 { fill: #0a7cc3; } .cls-4 { fill: #0b7cc3; } .cls-5 { fill: #0c7dc3; } .cls-6 { fill: #097cc3; } .cls-7 { fill: #097bc2; } .cls-8 { fill: #0d7ec4; } .cls-9 { fill: #067ac2; } .cls-10 { fill: #0e7ec4; } .cls-11 { fill: #0f7fc4; } .cls-12 { fill: #1582c5; } .cls-13 { fill: #1280c5; } </style></defs><title>marketingprofs-faux</title><g><path class="cls-1" d="M135.37,83.43c-4.57-.9-8.91-1.73-13.24-2.62-3.68-.76-7.35-1.62-11-2.36a2.71,2.71,0,0,0-1.88.31,33.53,33.53,0,0,1-13.23,5c-2.29.43-2.28.75-.61,2.66A69.1,69.1,0,0,0,100,91.62c1.82,1.69.35,2.49-.57,3.62-1.21,1.48-2.12,1-3.22-.15-1.57-1.72-3.3-3.29-4.89-5-1.08-1.15-1.9-.91-2.88.13-1.59,1.71-3.29,3.3-4.9,5-.92,1-1.67,1.44-2.86.26-1.94-1.9-2.29-2.66-1-4.11,1.9-2.1,4-4,5.94-6.07,1.52-1.57,1.55-1.73-.46-2.39-7.14-2.34-12-7.18-15.76-13.51A21.49,21.49,0,0,1,66,58.25c0-5-.77-10,.89-14.82.47-1.37-.29-2.08-1.61-2.47-2.5-.74-5-1.56-7.46-2.4a11.25,11.25,0,0,1-1.57-.83A13.67,13.67,0,0,1,58,36.88c2.49-.79,5-1.56,7.5-2.25,1.48-.4,1.37-.9.45-1.91-1.77-2-3.42-4-5.09-6.1a3.58,3.58,0,0,1-.38-1.13,5.81,5.81,0,0,1,1.43-.1A8.3,8.3,0,0,1,63.3,26c4.52,1.67,8.33,2.32,12.25-2.26C79,19.64,84.43,20.22,89.24,22a22.28,22.28,0,0,1,11.27,9.28c.65,1,.81,1.83-.77,1.94-.17,0-.33,0-.5,0-2.21-.11-4.48-.1-5.75,2.09s-.4,4.51.71,6.57a15.87,15.87,0,0,0,2.55,3.62c4.21,4.27,8.5,8.46,12.79,12.65.58.57,1.39.9,2,1.47,1.14,1.1,1.82.33,2.21-.6,1.17-2.71,2.21-5.46,3.29-8.2,2.33-5.94,4.75-11.84,6.92-17.84.5-1.4,1.08-1.84,2.41-1.84q9.5,0,19,0c1.35,0,1.81.34.88,1.64-3.84,5.36-7.59,10.78-11.47,16.11-4.07,5.61-8.25,11.14-12.37,16.72-1,1.4-1.5,2.56.26,4.06,4.56,3.86,8.91,8,13.34,12a7.6,7.6,0,0,1,.89,1.18Z" transform="translate(-39 -12.46)"></path><path class="cls-2" d="M203.94,42.62,189.17,75.75c-1.33,3-2.6,6-4,9-.82,1.71-1.91,1.83-2.72.32-.93-1.73-1.62-3.58-2.39-5.38l-13-30.26a19.61,19.61,0,0,0-1-2.23,1.42,1.42,0,0,0-.93-.59c-.2,0-.53.39-.65.67a4.11,4.11,0,0,0-.38,1.41c-.38,5.61-.69,11.23-1.1,16.83-.22,3-.6,5.89-.88,8.84a20.87,20.87,0,0,0-.06,2.5c.08,3.46,1.11,4.72,4.43,5.42.48.1,1.09-.12,1.47.1s1.16,1.06,1.06,1.24A3.9,3.9,0,0,1,167.51,85a2.24,2.24,0,0,1-1.47,0,26.69,26.69,0,0,0-13.2,0,2.48,2.48,0,0,1-1.48,0c-.49-.23-1.13-.73-1.18-1.18s.49-1.44.79-1.45c2.06-.08,4.39-.29,5.31-2.09A21.52,21.52,0,0,0,158,73.25c1.06-8.65,2-17.32,2.89-26,.29-3,.09-6,.16-9,.05-1.95-1.17-3.09-2.62-3.93-1-.56-2.22-.6-3.22-1.11-.54-.28-.81-1.08-1.21-1.64a16,16,0,0,1,1.9-1c.23-.09.6.24.92.25,3.14.15,6.29.49,9.41.34,3.36-.17,3.39-.39,4.76,2.49,1.27,2.67,2.46,5.36,3.62,8.08,3.87,9,7.7,18.08,11.6,27.09.23.54.91.88,1.38,1.32.16-.46.29-.94.49-1.38q6.65-15.06,13.31-30.13c.93-2.1,1.76-4.24,2.73-6.32.59-1.28,1.28-1.78,3.07-1.45,3.06.56,6.28.29,9.43.37a31,31,0,0,1,3.48.14c.28,0,.55.72.65,1.15,0,.18-.36.65-.59.68a30.44,30.44,0,0,0-3.47.29c-2.88.71-3.77,1.85-3.64,5,.09,2.29.64,4.55.8,6.84.45,6.61.78,13.22,1.22,19.83.25,3.78.69,7.56.95,11.34.29,4.24.83,4.92,5.1,5.85.32.07.82-.08,1,.09.37.44.85,1,.78,1.52A1.76,1.76,0,0,1,221.7,85a7.81,7.81,0,0,1-3-.06,36.74,36.74,0,0,0-14.25-.08,12.22,12.22,0,0,1-3.91,0c-.49-.08-1.06-.85-1.21-1.41-.07-.26.71-.94,1.21-1.12.76-.27,1.66-.14,2.42-.4,2.55-.86,3.17-1.5,3-4.36-.47-7.74-1.21-15.45-1.72-23.19C204,50.78,204,47.13,203.94,42.62Z" transform="translate(-39 -12.46)"></path><path class="cls-3" d="M493.14,57.89c0-6.33,0-12.66,0-19,0-4.28-.27-4.46-4.56-5.62-.51-.14-.9-.71-1.35-1.09.41-.49.75-1.28,1.25-1.4a7.94,7.94,0,0,1,3.42-.19,37.78,37.78,0,0,0,14.22,0C510,30,514,30.81,517.8,32c8.12,2.51,9.9,9.7,9,16.19-1.28,9.06-11.07,15.32-19.92,13.13-.32-.08-.59-.71-.7-1.13a.92.92,0,0,1,.51-.74c.78-.24,1.6-.34,2.4-.51,4.59-1,6.39-4.3,6.94-8.5a40.14,40.14,0,0,0,.12-6.49c-.23-6.56-5.22-10.75-11.6-9.7a2.35,2.35,0,0,0-1.39,1.53,12.32,12.32,0,0,0-.07,3V73.22a20.16,20.16,0,0,0,.1,3.48c.72,4.15,1.82,5,6.2,5.64.84.11,2.32.69,2.3,1-.06,1.34-1.1,1.88-2.44,1.79-.5,0-1,0-1.5,0-5.57-.66-11.13-1.1-16.71,0a5.43,5.43,0,0,1-2.86-.39c-.44-.18-.7-1-.85-1.61,0-.14.69-.59,1.11-.71,4.55-1.23,4.67-1.31,4.71-6C493.18,70.22,493.14,64.05,493.14,57.89Z" transform="translate(-39 -12.46)"></path><path class="cls-4" d="M464.76,73.37a14.22,14.22,0,0,0-3-.08A2.61,2.61,0,0,0,460,74.45c-.35,1-.48,2.38,1,2.92a9.35,9.35,0,0,0,3.28.87c2.79-.06,5.58-.34,8.37-.61a14.77,14.77,0,0,1,9,2c2.86,1.66,4,5.55,3.13,9.22a17.58,17.58,0,0,1-15.33,13.27c-4.74.52-9.57.66-14-1.77-3.9-2.12-5.31-4.94-4.25-9,.65-2.48,2.76-3.63,4.69-4.82,1.52-.94,2.34-1.37.08-2.39a8.06,8.06,0,0,1-2.61-2.27c-2-2.43-1.69-4.91.77-6.83.38-.3.86-.48,1.26-.77,2.5-1.78,2.52-1.82.35-3.91S451.41,66.21,451,63c-.59-5.25,1.7-8.93,5.95-11.64a16.44,16.44,0,0,1,15.07-1.63,28.74,28.74,0,0,0,10.61,1.64c1.26,0,2.22,0,2.28,1.78s-.7,2.37-2.34,2.22c-.5-.05-1,0-1.5,0-1.21,0-1.93-.27-1.44,1.77,1.35,5.57,0,10.49-5,14C471.65,73.16,468.29,73.58,464.76,73.37Zm4.41,12.95-.06-.46a73.1,73.1,0,0,0-7.7,1.45A5.62,5.62,0,0,0,457,93.09c.12,3,1.27,4.72,4.6,5.43a22.52,22.52,0,0,0,8.75.42c2.26-.43,4.32-2.24,6.29-3.67s1.72-3.92,1.27-6-2.5-2.56-4.25-2.92A23.89,23.89,0,0,0,469.17,86.32Zm-9.73-26A19.07,19.07,0,0,0,461.75,68c1.22,2.2,2.85,2.39,4.94,2.42,2.28,0,3.15-1.46,4-3.14,2.22-4.59.84-9.06-.93-13.26a4.67,4.67,0,0,0-8.43-.23C460.24,55.72,460,58.12,459.44,60.31Z" transform="translate(-39 -12.46)"></path><path class="cls-5" d="M303.88,46.64c0,6,0,12,0,18a5.93,5.93,0,0,0,.33,1.4,3.76,3.76,0,0,0,1.22-.53c3.22-3.14,6.4-6.32,9.6-9.48,1.41-1.39,1.56-2.49-.63-3.15a1.58,1.58,0,0,1-.84-.51,2,2,0,0,1-.47-1.28,1.42,1.42,0,0,1,1-.78,29.82,29.82,0,0,1,3,0c3.33,0,6.66,0,10,0a5.19,5.19,0,0,1,1.69.7c-.51.51-1,1.38-1.54,1.48-5.87,1-9.27,5.39-13.17,9.15-1.52,1.47-1.48,2.61-.14,4.23,3.56,4.34,6.87,8.89,10.46,13.2,1.12,1.34,2.89,2.12,4.28,3.26.52.43,1.18,1.15,1.15,1.7-.08,1.5-1.37,1.24-2.24,1a12.39,12.39,0,0,0-8.24,0,2,2,0,0,1-2.46-1c-2.86-4-5.91-7.95-8.93-11.88a17.16,17.16,0,0,0-2.33-2.56c-.86-.74-1.67-.28-1.7.72-.11,3.16-.09,6.33,0,9.49,0,1.91,1.31,2.41,3,2.6.41,0,.87,1.1.95,1.73,0,.26-.9.94-1.36.91-2.12-.13-4.23-.64-6.35-.64-2.28,0-4.56.47-6.85.61a5,5,0,0,1-2.3-.51,1.51,1.51,0,0,1-.67-1.2c0-.33.53-.79.91-.92C295,81.13,295,81.15,295,77.59c0-13.16,0-26.32,0-39.48,0-2.43.17-4.76-3.24-5.06-.56,0-1-1.14-1.54-1.75a9.87,9.87,0,0,1,1.86-1.42c2.86-1.2,5.75-2.35,8.66-3.42,2.09-.77,3.07-.07,3.08,2.2C303.9,34.65,303.88,40.64,303.88,46.64Z" transform="translate(-39 -12.46)"></path><path class="cls-1" d="M443.08,68.18c0,3.33,0,6.65,0,10s.08,3.3,3.35,4.18a5.36,5.36,0,0,1,1.42,1c-.44.37-.88,1-1.32,1q-7.49.12-15,0c-.46,0-.92-.68-1.38-1a5.4,5.4,0,0,1,1.41-1c3.21-.9,3.29-.87,3.31-3.72.05-5.49.1-11,0-16.46-.13-6.62-4.13-8.91-10.26-6.18A3.83,3.83,0,0,0,422,60.13c.12,6.15,0,12.31.06,18.46,0,3,.09,3,3.25,3.73.46.11,1.05.13,1.32.43a1.68,1.68,0,0,1,.23,1.34c-.1.37-.58.93-.88.92-5.11-.15-10.22-.37-15.32-.59a2,2,0,0,1-.94-.22,1.17,1.17,0,0,1-.51-.76c0-.26.22-.79.35-.79,5.7,0,4.29-4.17,4.34-7.41.06-5,0-10,0-15,0-2.22-.2-4-3-4.18-.64-.05-1.21-1-1.82-1.52a9.34,9.34,0,0,1,2.07-1.74c2.7-1.15,5.47-2.14,8.21-3.19,2-.78,2.43-.5,2.63,1.87,0,.5,0,1,0,1.5,0,.84.27,1.17,1.13.63,1.39-.88,2.89-1.59,4.22-2.54,2.44-1.75,5.14-2.05,8-1.9,4.34.23,7.36,3,7.57,7.51.18,3.82,0,7.65,0,11.47Z" transform="translate(-39 -12.46)"></path><path class="cls-6" d="M593,66.42a18.33,18.33,0,0,1-18.23,19.72c-10,.11-18-8.34-17.85-18.47.17-10.65,6.44-18.62,17.83-19C585.27,48.41,593.21,55.43,593,66.42Zm-8.75,3.7c-.56-3.94-.65-7.13-1.55-10.07A20.12,20.12,0,0,0,579,53.78a5.5,5.5,0,0,0-3.42-1.55,7.37,7.37,0,0,0-8.39,6,43.4,43.4,0,0,0-1,10.76c.2,3.7.84,7.49,2.95,10.76,2.73,4.24,10.32,4.88,12.47-.48A83.51,83.51,0,0,0,584.27,70.12Z" transform="translate(-39 -12.46)"></path><path class="cls-7" d="M253.06,66c0,2.66-.1,5.33,0,8a21.18,21.18,0,0,0,.84,4.81,3.08,3.08,0,0,0,1.56,1.47A12.88,12.88,0,0,0,258,81a15.86,15.86,0,0,1-1.61,2.39c-2.3,2.35-5.26,3.78-8.4,1.85a5.22,5.22,0,0,1-1.53-1.21c-.8-1.09-1.46-2.28-2.18-3.43a26.52,26.52,0,0,1-3,2.65c-2.92,1.93-6,3.53-9.68,2.68a8.61,8.61,0,0,1-6.49-7.23c-.41-3.76,1.52-6.53,4.53-8.2a56.74,56.74,0,0,1,10-4.14c6.89-2.25,5.65-1.91,4.39-8.83-.39-2.14-2.63-3.28-5.48-3.28s-3.85.68-4.7,3.18-1.44,5.07-4.89,5.3c-1.77.12-2.86-.39-2.82-2.18a5.77,5.77,0,0,1,2.6-5.08c4-2.31,7.89-5.09,12.21-6.31,5.84-1.64,12,1.7,12.08,7.84.06,3,0,6,0,9Zm-8.13,7.3c0-6-.17-6.16-5.39-4a14.74,14.74,0,0,0-3.81,2.15,5.89,5.89,0,0,0-1.06,7.18c1.25,1.9,4.11,2.26,6.66,1.07C244.33,78.29,245.41,76.08,244.93,73.34Z" transform="translate(-39 -12.46)"></path><path class="cls-3" d="M610,42.05c0,2.16,0,4.32,0,6.48,0,1.27.52,1.78,1.78,1.72s2.66.06,4,0c1.6-.1,2.39.32,2.39,2.16,0,2-1.12,2-2.55,2-1.77,0-4.23-.35-5.13.62s-.46,3.42-.47,5.21q-.06,9,0,18c0,3.61.31,3.85,3.92,4.12.5,0,1.1-.16,1.47.06a8.52,8.52,0,0,1,1.52,1.43c-.55.44-1.11,1.28-1.64,1.26-2-.07-3.9-.65-5.84-.61-3.78.07-7.55.43-11.32.67-1.05.07-2.17,0-2-1.37a2.22,2.22,0,0,1,1.47-1.37c3.43-.85,3.51-.8,3.53-4q.06-10.47,0-20.95c0-2.77-.06-2.77-2.94-3a7.77,7.77,0,0,1-1.46-.13,1,1,0,0,1-.53-.7c0-.27.14-.79.32-.84,4.86-1.26,4.51-5,4.73-8.91.45-8.12,7.29-16,13.46-17.87,2.32-.7,3.83.05,5.41,1.18,1.09.77,1.42,4.11.79,5.62-1,2.37-3.1,2.83-5,1.08-.12-.11-.22-.25-.33-.37-1-1.07-1.87-2.75-3.61-2s-2,2.44-2,4.16C610,37.73,610,39.89,610,42.05Z" transform="translate(-39 -12.46)"></path><path class="cls-4" d="M347.85,63.33c-2.16,0-4.33,0-6.49,0-3.63,0-3.52.05-3.51,3.44a13.13,13.13,0,0,0,2.84,7.75,10.57,10.57,0,0,0,12.47,3.34,21,21,0,0,1,2.6-1.38c1-.25,1.86-2.17,2.85-.62.36.57-.32,2.29-1,3-2.4,2.24-4.72,4.88-7.6,6.22-7.42,3.44-14.34-1.22-17-5.86A22,22,0,0,1,334.5,54.6c3-3.91,9.94-7.43,16.82-5.08,3.84,1.31,7.57,6.95,7.5,11.35a2.24,2.24,0,0,1-2.46,2.47ZM343,61.22h0c1.5,0,3,0,4.5,0a3.35,3.35,0,0,0,3.28-2.61c.68-2.61-2.18-6.16-4.88-6.41-3.25-.3-5.21.93-7,4.38-1.93,3.76-1.46,4.61,2.58,4.66Z" transform="translate(-39 -12.46)"></path><path class="cls-5" d="M622,79.45A7.39,7.39,0,0,1,622,78c.19-.89.48-1.76.72-2.64.58.65,1.19,1.27,1.72,2,1.2,1.55,2.15,3.37,3.6,4.63,2,1.71,6.23,1.11,7.56-.72s.8-5.41-1.28-7.17a44.11,44.11,0,0,0-4.11-2.7,62,62,0,0,1-5.26-3.62c-3.74-3.09-3.68-7.5-2.69-11.47,1-3.81,4-6,8.16-7.06s7.72.31,11.46,1.28c.38.1.93.61.94.94q.11,3.49,0,7c0,.3-.69.82-1,.81a2.15,2.15,0,0,1-1.59-.69c-.47-.83-.53-1.88-.94-2.75-1.53-3.23-4-4.38-7.26-3.48a4.7,4.7,0,0,0-2.16,7.3A18.47,18.47,0,0,0,634,62.89c2.07,1.33,4.36,2.33,6.38,3.72A8.18,8.18,0,0,1,644,73.32c.43,9-6.59,14.7-15.61,12.59-.48-.11-.9-.42-1.38-.54C622.08,84.16,622.08,84.16,622,79.45Z" transform="translate(-39 -12.46)"></path><path class="cls-5" d="M275,70.18c0,2.83,0,5.66,0,8.48.06,3.1.37,3.4,3.33,3.63a11.8,11.8,0,0,1,2.47.12,1.74,1.74,0,0,1,1,1.32c0,.46-.63,1.29-1,1.31-2,.12-4.1.43-6-.07a13.68,13.68,0,0,0-7.74,0c-1.48.43-3.26,0-4.86-.26-.4-.07-.75-1-.91-1.57,0-.16.62-.66,1-.78,3.75-1.1,3.77-1.08,3.78-4.77,0-6,0-12,0-18,0-2,0-3.71-2.76-3.6-.47,0-1.19-.94-1.37-1.57-.1-.36.54-1.23,1-1.42,3.33-1.31,6.68-2.58,10.09-3.7,1.64-.54,1.91.63,1.88,2a9.9,9.9,0,0,0,.32,1.91A10.92,10.92,0,0,0,276.88,52a11,11,0,0,1,6-3.11c2.49-.54,5.51,1.35,5.9,3.75s-1.82,5.48-4.36,5.48a6.25,6.25,0,0,1-3-1.24c-1.06-.68-1.67-2.1-3.37-1.38a4.86,4.86,0,0,0-3,3.67,18.83,18.83,0,0,0-.09,4C275,65.53,275,67.85,275,70.18Z" transform="translate(-39 -12.46)"></path><path class="cls-8" d="M541.88,69.83c0,2.66,0,5.32,0,8,0,4.09,0,4.09,4,4.49.33,0,.76-.11,1,0,.46.33,1.21,1,1.13,1.19-.28.61-.82,1.37-1.39,1.51a6.14,6.14,0,0,1-3-.08,18.38,18.38,0,0,0-9.26-.07,20.17,20.17,0,0,1-5.44.14c-.32,0-.73-1-.82-1.52a1.45,1.45,0,0,1,.7-1.11,3.7,3.7,0,0,1,1.47-.12c2.15-.06,2.76-1.3,2.74-3.28q-.09-9.48,0-19c0-2.29-.42-4-3.18-4-.28,0-.56-.32-.84-.5-1.11-.7-1.18-1.76,0-2.21,3.48-1.4,7-2.81,10.53-4,2.13-.71,2.5.73,2.4,2.49,0,.91.18,1.77,1.3.71a14.39,14.39,0,0,1,5.71-3.72c2.39-.75,3.82.33,5.32,1.5,1.06.83,1.12,4.29.38,5.64-1.38,2.5-3.83,3-6.23,1-1.16-.93-2.11-2.39-3.82-1.59a4.66,4.66,0,0,0-2.7,4.87c.13,3.17,0,6.34,0,9.5Z" transform="translate(-39 -12.46)"></path><path class="cls-9" d="M381,79.38a12.48,12.48,0,0,0,1.45-.22c.83-.19,1.84-1.55,2.36,0,.23.67-.43,1.87-1,2.54A11.23,11.23,0,0,1,372,85.43a4.62,4.62,0,0,1-3.44-3.17,25.7,25.7,0,0,1-1.28-6.7c-.17-6-.12-12,0-18,0-2.11-.1-3.7-2.86-3.26a1.41,1.41,0,0,1-1.19-.62,1.48,1.48,0,0,1,.35-1.32q5.28-4.89,10.66-9.67a1.52,1.52,0,0,1,1.31-.37c.31.17.47.84.49,1.3.06,1.33,0,2.66,0,4,.07,2.55.08,2.56,2.86,2.61a35.4,35.4,0,0,0,4,0c1.89-.18,2.14.8,2.16,2.38,0,1.78-1,1.74-2.26,1.78-2.12.07-4.24.22-6.36.34-.13,2.28-.36,4.57-.39,6.85-.06,4.5-.11,9,0,13.49C376.13,78.64,377.2,79.55,381,79.38Z" transform="translate(-39 -12.46)"></path><path class="cls-10" d="M402,65.25c0,4.32,0,8.64,0,13,0,3.31.07,3.26,3.33,4.15.6.16,1.05.89,1.57,1.36-.52.47-1,1.17-1.58,1.35a4.71,4.71,0,0,1-2.47,0,18.28,18.28,0,0,0-9.68,0,7.08,7.08,0,0,1-3,0,1.79,1.79,0,0,1-1.12-1.24c0-.46.54-1.41.84-1.4,3.18,0,3.25-2,3.23-4.38-.07-6.31,0-12.62,0-18.93,0-1.63-.11-2.91-2.3-3-.63,0-1.43-1.22-1.69-2-.1-.31,1-1.27,1.7-1.53,2.74-1,5.55-1.88,8.32-2.82,2.42-.82,2.77-.61,2.8,2.08C402,56.29,402,60.77,402,65.25Z" transform="translate(-39 -12.46)"></path><path class="cls-11" d="M397.42,38.28A4.4,4.4,0,0,1,393,33.47c.08-2.24,2.61-5,4.55-5,2.2,0,5.29,3,5.16,5A5.63,5.63,0,0,1,397.42,38.28Z" transform="translate(-39 -12.46)"></path><path class="cls-12" d="M50.49,34.94A7.7,7.7,0,0,1,52,37c.28.92.21,1.92-1.14,2.27A73.62,73.62,0,0,0,42,41.74c-1.65.65-2.18-.16-2.66-1.14-.56-1.14-.35-2.41,1-2.83C43.54,36.77,46.83,35.94,50.49,34.94Z" transform="translate(-39 -12.46)"></path><path class="cls-13" d="M57.16,22.51a8.06,8.06,0,0,1-1.68,1.57c-.48.25-1.52.27-1.78,0q-3.33-4-6.44-8.16c-.92-1.23,0-2.14.88-3,1.13-1,1.79-.16,2.42.6,1.79,2.17,3.57,4.35,5.3,6.57A16.8,16.8,0,0,1,57.16,22.51Z" transform="translate(-39 -12.46)"></path><path class="cls-12" d="M52.9,28.78c.06,2.09-.72,2.87-2.14,2.47-3.29-.93-6.56-1.94-9.75-3.16-.54-.2-.85-1.57-.88-2.41-.05-1.34,1-1.66,2.07-1.36,3.28.95,6.55,2,9.76,3.13C52.51,27.64,52.78,28.6,52.9,28.78Z" transform="translate(-39 -12.46)"></path></g></svg> 