<?xml version="1.0" encoding="utf-8"?>
<!-- Generator: Adobe Illustrator 21.1.0, SVG Export Plug-In . SVG Version: 6.00 Build 0)  -->
<svg version="1.1" id="Layer_1" xmlns="http://www.w3.org/2000/svg" xmlns:xlink="http://www.w3.org/1999/xlink" x="0px" y="0px"
	 viewBox="0 0 20.9 20.9" style="enable-background:new 0 0 20.9 20.9;" xml:space="preserve">
<style type="text/css">
	.st0{fill:#282660;}
	.st1{fill:url(#SVGID_1_);}
	.st2{fill:url(#SVGID_2_);}
	.st3{fill:url(#SVGID_3_);}
</style>
<g>
	<path class="st0" d="M0,0v20.9h20.9V0H0z"/>
</g>
<g>
	
		<linearGradient id="SVGID_1_" gradientUnits="userSpaceOnUse" x1="1.461081e-05" y1="-1534" x2="20.9339" y2="-1554.934" gradientTransform="matrix(1 0 0 -1 0 -1534)">
		<stop  offset="0" style="stop-color:#DFE445"/>
		<stop  offset="1" style="stop-color:#399EC7"/>
	</linearGradient>
	<path class="st1" d="M0,0v20.9h20.9V0H0z M12.4,15.6h-2c-0.5,0-0.8-0.1-0.9-0.2c-0.2-0.1-0.3-0.4-0.5-0.7l-2.1-4.1
		c-0.1,0-0.1,0-0.2,0c-0.1,0-0.1,0-0.2,0c-0.2,0-0.4,0-0.6,0c-0.2,0-0.4,0-0.6,0v3.6c0,0.3,0.1,0.6,0.2,0.7c0.1,0.1,0.4,0.3,0.8,0.3
		l0.8,0.1v0.2c-0.5,0-0.9,0-1.3,0c-0.4,0-0.8,0-1.3,0c-0.5,0-0.9,0-1.3,0c-0.4,0-0.9,0-1.3,0v-0.2l0.8-0.1C3,15.2,3.3,15.1,3.4,15
		c0.1-0.1,0.2-0.4,0.2-0.7V6.5c0-0.3-0.1-0.6-0.2-0.7C3.3,5.6,3,5.5,2.6,5.5L1.8,5.4V5.1h4.6c1.4,0,2.5,0.2,3.3,0.6
		c0.8,0.4,1.2,1.1,1.2,2.1c0,0.7-0.3,1.3-0.8,1.7c-0.5,0.4-1.1,0.7-1.7,0.8c0.1,0.1,0.2,0.3,0.3,0.4C8.8,11,8.9,11.2,9,11.4l1.4,2.5
		c0.2,0.4,0.4,0.7,0.6,0.9c0.2,0.2,0.4,0.3,0.8,0.4l0.6,0.1V15.6z M14.6,14.4c0.4,0.6,1,0.9,1.7,0.9c0.5,0,0.9-0.1,1.3-0.4
		c0.4-0.2,0.7-0.6,1-1.2l0.2,0.1c-0.3,0.6-0.7,1.1-1.2,1.5c-0.5,0.3-1.1,0.5-1.8,0.5c-0.9,0-1.7-0.3-2.4-1c-0.7-0.7-1.1-1.7-1.1-2.9
		c0-1.3,0.4-2.3,1.1-3c0.8-0.7,1.6-1,2.5-1c0.8,0,1.5,0.2,2,0.7c0.5,0.5,0.8,1.1,0.8,2c0,0.2,0,0.3,0,0.5c0,0.1,0,0.3-0.1,0.4H14
		c0,0.1,0,0.2,0,0.2c0,0.1,0,0.2,0,0.2C14,12.9,14.2,13.7,14.6,14.4z"/>
	
		<linearGradient id="SVGID_2_" gradientUnits="userSpaceOnUse" x1="2.8153" y1="-1531.1847" x2="23.7492" y2="-1552.1187" gradientTransform="matrix(1 0 0 -1 0 -1534)">
		<stop  offset="0" style="stop-color:#DFE445"/>
		<stop  offset="1" style="stop-color:#399EC7"/>
	</linearGradient>
	<path class="st2" d="M17.2,11c0.1-0.5,0.1-1.1,0-1.8c-0.1-0.7-0.5-1-1.2-1c-0.5,0-1,0.2-1.3,0.7c-0.3,0.5-0.5,1.3-0.6,2.3L17.2,11
		L17.2,11z"/>
	
		<linearGradient id="SVGID_3_" gradientUnits="userSpaceOnUse" x1="-0.6385" y1="-1534.6385" x2="20.2954" y2="-1555.5725" gradientTransform="matrix(1 0 0 -1 0 -1534)">
		<stop  offset="0" style="stop-color:#DFE445"/>
		<stop  offset="1" style="stop-color:#399EC7"/>
	</linearGradient>
	<path class="st3" d="M9,7.9c0-1-0.2-1.6-0.7-2c-0.4-0.4-1.1-0.5-2-0.5H5.3v5c0.2,0,0.4,0,0.6,0s0.4,0,0.6,0c0.8,0,1.5-0.2,1.9-0.6
		C8.8,9.4,9,8.8,9,7.9z"/>
</g>
</svg>
