<?xml version="1.0" encoding="utf-8"?>
<!-- Generator: Adobe Illustrator 21.1.0, SVG Export Plug-In . SVG Version: 6.00 Build 0)  -->
<svg version="1.1" id="Layer_1" xmlns="http://www.w3.org/2000/svg" xmlns:xlink="http://www.w3.org/1999/xlink" x="0px" y="0px"
	 viewBox="0 0 20.9 20.9" style="enable-background:new 0 0 20.9 20.9;" xml:space="preserve">
<style type="text/css">
	.st0{fill:#282660;}
	.st1{fill:url(#SVGID_1_);}
	.st2{fill:url(#SVGID_2_);}
</style>
<g>
	<path class="st0" d="M0,0v20.9h20.9V0H0z"/>
</g>
<g>
	
		<linearGradient id="SVGID_1_" gradientUnits="userSpaceOnUse" x1="3.1746" y1="-1530.8253" x2="24.0746" y2="-1551.7253" gradientTransform="matrix(1 0 0 -1 0 -1534)">
		<stop  offset="0" style="stop-color:#E79E2B"/>
		<stop  offset="1" style="stop-color:#C73392"/>
	</linearGradient>
	<path class="st1" d="M17.9,11c0.1-0.5,0.1-1.1,0-1.8c-0.1-0.7-0.5-1-1.2-1c-0.5,0-1,0.2-1.3,0.7c-0.3,0.5-0.5,1.3-0.6,2.3L17.9,11
		L17.9,11z"/>
	
		<linearGradient id="SVGID_2_" gradientUnits="userSpaceOnUse" x1="8.349027e-06" y1="-1534" x2="20.9" y2="-1554.9" gradientTransform="matrix(1 0 0 -1 0 -1534)">
		<stop  offset="0" style="stop-color:#E79E2B"/>
		<stop  offset="1" style="stop-color:#C73392"/>
	</linearGradient>
	<path class="st2" d="M0,0v20.9h20.9V0H0z M12.7,5.4l-0.6,0.1c-0.4,0.1-0.7,0.2-0.9,0.5C11.1,6.2,11,6.7,11,7.3v8.3h-1L3.7,6.4v7
		c0,0.7,0.1,1.1,0.2,1.4c0.2,0.3,0.5,0.4,0.9,0.5l0.6,0.1v0.2c-0.3,0-0.7,0-1,0s-0.6,0-1,0s-0.7,0-1,0c-0.3,0-0.6,0-1,0v-0.2
		l0.6-0.1c0.4-0.1,0.7-0.2,0.9-0.5c0.2-0.3,0.2-0.7,0.2-1.4V6.5c0-0.3-0.1-0.6-0.2-0.7C3.1,5.6,2.8,5.5,2.4,5.5L1.6,5.4V5.1H5
		l5.6,8.3V7.3c0-0.7-0.1-1.1-0.2-1.4c-0.2-0.3-0.5-0.4-0.9-0.5L8.8,5.4V5.1c0.3,0,0.7,0,1,0s0.6,0,1,0c0.3,0,0.7,0,1,0
		c0.3,0,0.6,0,1,0V5.4z M15.3,14.4c0.4,0.6,1,0.9,1.7,0.9c0.5,0,0.9-0.1,1.3-0.4c0.4-0.2,0.7-0.6,1-1.2l0.2,0.1
		c-0.3,0.6-0.7,1.1-1.2,1.5c-0.5,0.3-1.1,0.5-1.8,0.5c-0.9,0-1.7-0.3-2.4-1S13,13.2,13,11.9c0-1.3,0.4-2.3,1.1-3
		c0.8-0.7,1.6-1,2.5-1c0.8,0,1.5,0.2,2,0.7c0.5,0.5,0.8,1.1,0.8,2c0,0.2,0,0.3,0,0.5c0,0.1,0,0.3-0.1,0.4h-4.7c0,0.1,0,0.2,0,0.2
		c0,0.1,0,0.2,0,0.2C14.7,12.9,14.9,13.7,15.3,14.4z"/>
</g>
</svg>
