<?xml version="1.0" encoding="utf-8"?>
<!-- Generator: Adobe Illustrator 21.1.0, SVG Export Plug-In . SVG Version: 6.00 Build 0)  -->
<svg version="1.1" id="Layer_1" xmlns="http://www.w3.org/2000/svg" xmlns:xlink="http://www.w3.org/1999/xlink" x="0px" y="0px"
	 viewBox="0 0 20.9 20.9" style="enable-background:new 0 0 20.9 20.9;" xml:space="preserve">
<style type="text/css">
	.st0{fill:#282660;}
	.st1{fill:url(#SVGID_1_);}
	.st2{fill:url(#SVGID_2_);}
</style>
<g>
	<path class="st0" d="M0,0v20.9h20.9V0H0z"/>
</g>
<g>
	
		<linearGradient id="SVGID_1_" gradientUnits="userSpaceOnUse" x1="1.0547" y1="1554.9453" x2="21.9886" y2="1575.8792" gradientTransform="matrix(1 0 0 1 0 -1556)">
		<stop  offset="0" style="stop-color:#399EC7"/>
		<stop  offset="1" style="stop-color:#CC2A9A"/>
	</linearGradient>
	<path class="st1" d="M14,14c0,0.4,0.1,0.7,0.3,1c0.2,0.2,0.5,0.4,0.9,0.4c0.4,0,0.8-0.2,1.1-0.5c0.3-0.3,0.5-0.8,0.5-1.4l0-1.6
		c-0.9,0.1-1.6,0.3-2,0.6S14,13.2,14,14z"/>
	
		<linearGradient id="SVGID_2_" gradientUnits="userSpaceOnUse" x1="-6.957516e-07" y1="1556" x2="20.9339" y2="1576.9338" gradientTransform="matrix(1 0 0 1 0 -1556)">
		<stop  offset="0" style="stop-color:#399EC7"/>
		<stop  offset="1" style="stop-color:#CC2A9A"/>
	</linearGradient>
	<path class="st2" d="M0,0v20.9h20.9V0H0z M10.8,9.3h-0.3C10,7.6,9.4,6.5,8.9,6C8.3,5.4,7.7,5.1,7,5.1c-1,0-1.8,0.4-2.4,1.3
		s-0.9,2.2-0.9,4c0,1.7,0.3,2.9,0.8,3.9c0.6,0.9,1.4,1.4,2.4,1.4c0.8,0,1.5-0.3,2-0.9c0.5-0.6,1.1-1.6,1.5-3h0.3v4.1h-0.2L10,14.7
		c-0.4,0.4-0.8,0.7-1.3,0.9c-0.5,0.2-1.1,0.3-1.8,0.3c-1.3,0-2.5-0.5-3.5-1.4c-1.1-0.9-1.6-2.3-1.6-4.1c0-1.8,0.5-3.2,1.6-4.1
		s2.3-1.4,3.5-1.4c0.7,0,1.3,0.1,1.8,0.3C9.2,5.4,9.7,5.7,10,6.1L10.6,5h0.2V9.3z M19.4,15.4c-0.2,0.3-0.6,0.5-1,0.5
		c-0.4,0-0.8-0.1-1-0.4c-0.2-0.2-0.4-0.7-0.4-1.3c-0.2,0.5-0.5,0.9-0.9,1.2c-0.4,0.3-1,0.5-1.6,0.5c-0.7,0-1.2-0.2-1.5-0.5
		c-0.4-0.3-0.6-0.7-0.6-1.3c0-0.9,0.5-1.5,1.4-1.8s1.9-0.6,2.9-0.7l0-1.6c0-0.7-0.1-1.1-0.3-1.4c-0.2-0.3-0.6-0.4-1.1-0.4
		c-0.4,0-0.8,0.1-1,0.2c-0.3,0.2-0.4,0.3-0.4,0.5c0,0.2,0.1,0.4,0.4,0.5s0.4,0.3,0.4,0.7c0,0.3-0.1,0.5-0.3,0.6
		C14.2,10.9,14,11,13.7,11c-0.3,0-0.5-0.1-0.7-0.3c-0.2-0.2-0.3-0.5-0.3-0.8c0-0.5,0.3-1,0.8-1.4S14.6,8,15.4,8
		c0.9,0,1.6,0.2,2.1,0.6s0.8,1,0.8,1.9l0,4.1c0,0.3,0,0.5,0.1,0.7s0.2,0.2,0.4,0.2c0.2,0,0.4-0.1,0.5-0.3s0.2-0.6,0.2-1.2h0.2
		C19.7,14.5,19.6,15.1,19.4,15.4z"/>
</g>
</svg>
