<?xml version="1.0" encoding="utf-8"?>
<!-- Generator: Adobe Illustrator 21.1.0, SVG Export Plug-In . SVG Version: 6.00 Build 0)  -->
<svg version="1.1" id="Layer_1" xmlns="http://www.w3.org/2000/svg" xmlns:xlink="http://www.w3.org/1999/xlink" x="0px" y="0px"
	 viewBox="0 0 20.9 20.9" style="enable-background:new 0 0 20.9 20.9;" xml:space="preserve">
<style type="text/css">
	.st0{fill:#282660;}
	.st1{fill:url(#SVGID_1_);}
</style>
<g>
	<path class="st0" d="M0,0v20.9h20.9V0H0z"/>
</g>
<g>
	
		<linearGradient id="SVGID_1_" gradientUnits="userSpaceOnUse" x1="-4.744492e-06" y1="1956" x2="20.9" y2="1976.9" gradientTransform="matrix(1 0 0 1 0 -1956)">
		<stop  offset="0" style="stop-color:#399EC7"/>
		<stop  offset="1" style="stop-color:#158823"/>
	</linearGradient>
	<path class="st1" d="M0,0v20.9h20.9V0H0z M13.1,5.5l-0.8,0.1c-0.4,0.1-0.7,0.2-0.8,0.3s-0.2,0.4-0.2,0.7v7.7c0,0.3,0.1,0.6,0.2,0.7
		s0.4,0.3,0.8,0.3l0.8,0.1v0.2c-0.5,0-0.9,0-1.3,0s-0.9,0-1.3,0c-0.5,0-0.9,0-1.3,0c-0.4,0-0.9,0-1.3,0v-0.2l0.8-0.1
		c0.4-0.1,0.7-0.2,0.8-0.3c0.1-0.1,0.2-0.4,0.2-0.7V6.6c0-0.3-0.1-0.6-0.2-0.7C9.3,5.7,9.1,5.6,8.6,5.6L7.8,5.5V5.2
		c0.5,0,0.9,0,1.3,0c0.4,0,0.8,0,1.3,0c0.5,0,0.9,0,1.3,0s0.9,0,1.3,0V5.5z"/>
</g>
</svg>
