<?xml version="1.0" encoding="UTF-8"?> <svg xmlns="http://www.w3.org/2000/svg" id="Layer_1" data-name="Layer 1" viewBox="0 0 78.23 17.7"><defs><style> .cls-1 { fill: #231f20; } </style></defs><title>js-media-blog</title><g><path class="cls-1" d="M10,12.8A2.22,2.22,0,0,1,8.7,14.47a3.23,3.23,0,0,1-1.52.3,3.58,3.58,0,0,1-1-.15,2.58,2.58,0,0,1-.9-.47,2.28,2.28,0,0,1-.64-.82,2.73,2.73,0,0,1-.24-1.2v-.75h1.7v.39a3.36,3.36,0,0,0,.05.57,1.14,1.14,0,0,0,.17.45.87.87,0,0,0,.33.3,1.23,1.23,0,0,0,.55.1,1,1,0,0,0,.57-.13.75.75,0,0,0,.3-.34,1.35,1.35,0,0,0,.1-.46,3.77,3.77,0,0,0,0-.47V6H10v5.86A5.39,5.39,0,0,1,10,12.8Z" transform="translate(-4.36 -5.8)"></path><path class="cls-1" d="M12.83,12.46a1.42,1.42,0,0,0,.42.49,1.83,1.83,0,0,0,.6.27,2.84,2.84,0,0,0,.72.09,3.44,3.44,0,0,0,.54,0,2,2,0,0,0,.54-.16,1.14,1.14,0,0,0,.42-.33.84.84,0,0,0,.17-.53.75.75,0,0,0-.22-.57,1.92,1.92,0,0,0-.58-.36,6.68,6.68,0,0,0-.82-.25l-.92-.24a9.34,9.34,0,0,1-.94-.29,3.59,3.59,0,0,1-.82-.45,2.27,2.27,0,0,1-.58-.69,2.09,2.09,0,0,1-.22-1,2.19,2.19,0,0,1,.28-1.14,2.5,2.5,0,0,1,.74-.81,3,3,0,0,1,1-.48,4.2,4.2,0,0,1,1.15-.16A5.43,5.43,0,0,1,15.63,6a3.06,3.06,0,0,1,1.1.49,2.33,2.33,0,0,1,.76.86,2.58,2.58,0,0,1,.29,1.26H16a1.42,1.42,0,0,0-.16-.63,1,1,0,0,0-.37-.4,1.41,1.41,0,0,0-.52-.2,3.16,3.16,0,0,0-.64-.06,2.45,2.45,0,0,0-.46,0,1.36,1.36,0,0,0-.41.17,1.11,1.11,0,0,0-.31.3.81.81,0,0,0-.12.46.83.83,0,0,0,.1.41.8.8,0,0,0,.38.28,4.9,4.9,0,0,0,.78.27l1.3.33c.16,0,.38.09.67.18a3.21,3.21,0,0,1,.84.4,2.58,2.58,0,0,1,.73.74,2.13,2.13,0,0,1,.3,1.18,2.62,2.62,0,0,1-.22,1.09,2.4,2.4,0,0,1-.68.87,3,3,0,0,1-1.12.57,5.12,5.12,0,0,1-1.54.21,5.2,5.2,0,0,1-1.37-.18A3.45,3.45,0,0,1,12,14.05a2.76,2.76,0,0,1-.81-1,2.83,2.83,0,0,1-.29-1.37h1.83A1.61,1.61,0,0,0,12.83,12.46Z" transform="translate(-4.36 -5.8)"></path><path class="cls-1" d="M24.57,6l2,5.89h0L28.49,6h2.65v8.56H29.38V8.5h0l-2.1,6.07H25.8l-2.1-6h0v6H21.92V6Z" transform="translate(-4.36 -5.8)"></path><path class="cls-1" d="M34.14,13.09a1.58,1.58,0,0,0,1.11.37,1.55,1.55,0,0,0,.89-.26,1,1,0,0,0,.45-.55h1.5a2.86,2.86,0,0,1-1.1,1.6,3.27,3.27,0,0,1-1.8.48,3.65,3.65,0,0,1-1.32-.23,2.8,2.8,0,0,1-1-.67,3.07,3.07,0,0,1-.63-1A3.73,3.73,0,0,1,32,11.48a3.66,3.66,0,0,1,.23-1.3A3,3,0,0,1,33.9,8.45a3.37,3.37,0,0,1,1.29-.25,2.87,2.87,0,0,1,1.38.31,2.73,2.73,0,0,1,1,.82,3.2,3.2,0,0,1,.55,1.18,4.5,4.5,0,0,1,.12,1.38H33.72A1.79,1.79,0,0,0,34.14,13.09Zm1.93-3.27a1.2,1.2,0,0,0-.93-.33,1.53,1.53,0,0,0-.68.13A1.37,1.37,0,0,0,34,10a1.28,1.28,0,0,0-.23.43,2.45,2.45,0,0,0-.08.41H36.5A2,2,0,0,0,36.07,9.82Z" transform="translate(-4.36 -5.8)"></path><path class="cls-1" d="M43.31,13.78a1.76,1.76,0,0,1-.78.73,2.6,2.6,0,0,1-1.1.22,2.68,2.68,0,0,1-1.23-.27,2.47,2.47,0,0,1-.87-.73,3.36,3.36,0,0,1-.51-1.06,4.34,4.34,0,0,1-.18-1.25,4.07,4.07,0,0,1,.18-1.21,3.05,3.05,0,0,1,.51-1,2.5,2.5,0,0,1,2.06-1,2.38,2.38,0,0,1,1,.24,1.76,1.76,0,0,1,.79.69h0V6H45v8.56H43.34v-.79Zm-.07-3.06a1.77,1.77,0,0,0-.25-.63,1.35,1.35,0,0,0-.45-.44,1.31,1.31,0,0,0-.69-.16,1.41,1.41,0,0,0-.71.16,1.32,1.32,0,0,0-.46.45,1.77,1.77,0,0,0-.25.63,3,3,0,0,0-.08.74,3.53,3.53,0,0,0,.08.72,2.17,2.17,0,0,0,.27.64,1.44,1.44,0,0,0,.47.45,1.23,1.23,0,0,0,.68.18,1.37,1.37,0,0,0,.7-.17,1.21,1.21,0,0,0,.45-.45,2.12,2.12,0,0,0,.24-.64,3.67,3.67,0,0,0,.07-.75A3.48,3.48,0,0,0,43.24,10.72Z" transform="translate(-4.36 -5.8)"></path><path class="cls-1" d="M46,7.41V6h1.7v1.4Zm1.7,1v6.2H46V8.37Z" transform="translate(-4.36 -5.8)"></path><path class="cls-1" d="M48.66,10.28a2.14,2.14,0,0,1,.3-1,2.12,2.12,0,0,1,.67-.63,3.08,3.08,0,0,1,.92-.35,6,6,0,0,1,1-.1,6.16,6.16,0,0,1,1,.07,2.68,2.68,0,0,1,.87.26,1.61,1.61,0,0,1,.65.53,1.49,1.49,0,0,1,.25.91v3.22a7,7,0,0,0,.05.81,1.38,1.38,0,0,0,.17.57H52.79a2.45,2.45,0,0,1-.08-.29,2.91,2.91,0,0,1,0-.31,2.18,2.18,0,0,1-1,.59,3.92,3.92,0,0,1-1.13.17,3.07,3.07,0,0,1-.82-.11,2,2,0,0,1-.68-.33,1.71,1.71,0,0,1-.45-.58,2.08,2.08,0,0,1-.16-.83,1.75,1.75,0,0,1,.19-.87,1.4,1.4,0,0,1,.48-.54,2.06,2.06,0,0,1,.67-.31,6.85,6.85,0,0,1,.76-.16l.76-.1a3.94,3.94,0,0,0,.66-.11.94.94,0,0,0,.45-.21.45.45,0,0,0,.16-.4.93.93,0,0,0-.09-.44.72.72,0,0,0-.24-.25,1,1,0,0,0-.35-.12,2.77,2.77,0,0,0-.42,0,1.29,1.29,0,0,0-.8.22,1,1,0,0,0-.33.72Zm3.94,1.26a.87.87,0,0,1-.27.15l-.35.09-.39.06a2.9,2.9,0,0,0-.41.06,2.62,2.62,0,0,0-.38.09,1.09,1.09,0,0,0-.32.17.76.76,0,0,0-.22.25.82.82,0,0,0-.09.4.74.74,0,0,0,.09.38.62.62,0,0,0,.23.25,1,1,0,0,0,.33.13,2.6,2.6,0,0,0,.4,0,1.43,1.43,0,0,0,.78-.17,1.13,1.13,0,0,0,.41-.4,1.38,1.38,0,0,0,.16-.47,3.28,3.28,0,0,0,0-.39Z" transform="translate(-4.36 -5.8)"></path><path class="cls-1" d="M62.57,6a5.55,5.55,0,0,1,1.12.1,2.48,2.48,0,0,1,.86.36,1.61,1.61,0,0,1,.56.65,2.33,2.33,0,0,1,.2,1A1.86,1.86,0,0,1,65,9.21a2.09,2.09,0,0,1-.87.71,2,2,0,0,1,1.18.8,2.28,2.28,0,0,1,.39,1.37,2.32,2.32,0,0,1-.25,1.12,2.11,2.11,0,0,1-.67.78,3.12,3.12,0,0,1-1,.44,4.19,4.19,0,0,1-1.12.14H58.54V6Zm-.24,3.46a1.36,1.36,0,0,0,.83-.24.89.89,0,0,0,.32-.78,1,1,0,0,0-.1-.49.84.84,0,0,0-.29-.3,1.3,1.3,0,0,0-.42-.15,2.45,2.45,0,0,0-.48,0H60.42v2Zm.11,3.64a3.07,3.07,0,0,0,.53,0,1.57,1.57,0,0,0,.44-.18,1,1,0,0,0,.31-.35,1.22,1.22,0,0,0,.11-.55,1.1,1.1,0,0,0-.37-.94,1.58,1.58,0,0,0-1-.28H60.42v2.35Z" transform="translate(-4.36 -5.8)"></path><path class="cls-1" d="M68.26,6v8.56H66.55V6Z" transform="translate(-4.36 -5.8)"></path><path class="cls-1" d="M69.34,10.13a2.79,2.79,0,0,1,.65-1,2.73,2.73,0,0,1,1-.66,3.78,3.78,0,0,1,2.65,0,2.69,2.69,0,0,1,1,.66,2.79,2.79,0,0,1,.65,1,4,4,0,0,1,0,2.69,3,3,0,0,1-.65,1,2.79,2.79,0,0,1-1,.65,3.93,3.93,0,0,1-2.65,0,2.84,2.84,0,0,1-1-.65,3,3,0,0,1-.65-1,4,4,0,0,1,0-2.69Zm1.55,2.07a1.89,1.89,0,0,0,.24.64,1.32,1.32,0,0,0,.46.45,1.63,1.63,0,0,0,1.45,0,1.27,1.27,0,0,0,.47-.45,2.14,2.14,0,0,0,.25-.64,4.18,4.18,0,0,0,.07-.72,4.4,4.4,0,0,0-.07-.73,2,2,0,0,0-.25-.64A1.45,1.45,0,0,0,73,9.66a1.63,1.63,0,0,0-1.45,0,1.52,1.52,0,0,0-.46.45,1.81,1.81,0,0,0-.24.64,3.54,3.54,0,0,0-.07.73A3.38,3.38,0,0,0,70.89,12.2Z" transform="translate(-4.36 -5.8)"></path><path class="cls-1" d="M82.2,15a2.13,2.13,0,0,1-.44.89,2.75,2.75,0,0,1-1,.71,4.3,4.3,0,0,1-1.71.28,3.8,3.8,0,0,1-.93-.11,3.11,3.11,0,0,1-.86-.35,2.14,2.14,0,0,1-.65-.62,1.78,1.78,0,0,1-.29-.91H78a1,1,0,0,0,.47.67,1.71,1.71,0,0,0,.8.18,1.23,1.23,0,0,0,1-.43,1.68,1.68,0,0,0,.32-1.09v-.82h0a1.67,1.67,0,0,1-.78.73,2.5,2.5,0,0,1-1.08.23,2.79,2.79,0,0,1-1.2-.24,2.35,2.35,0,0,1-.82-.67,2.81,2.81,0,0,1-.48-1,4.72,4.72,0,0,1-.15-1.21,3.69,3.69,0,0,1,.18-1.15,2.82,2.82,0,0,1,.51-1,2.51,2.51,0,0,1,.83-.68,2.6,2.6,0,0,1,1.15-.25,2.44,2.44,0,0,1,1.07.23,1.79,1.79,0,0,1,.77.77h0V8.37H82.3v5.81A4.74,4.74,0,0,1,82.2,15ZM79.86,13a1.35,1.35,0,0,0,.46-.39,1.71,1.71,0,0,0,.27-.54,2.32,2.32,0,0,0,.09-.65,4.18,4.18,0,0,0-.07-.72,1.94,1.94,0,0,0-.24-.61,1.4,1.4,0,0,0-.45-.42,1.41,1.41,0,0,0-.69-.15,1.21,1.21,0,0,0-.62.14,1.34,1.34,0,0,0-.43.39,1.7,1.7,0,0,0-.26.56,3,3,0,0,0-.07.67,3.79,3.79,0,0,0,.06.67,1.91,1.91,0,0,0,.23.59,1.26,1.26,0,0,0,.43.43,1.2,1.2,0,0,0,.66.17A1.39,1.39,0,0,0,79.86,13Z" transform="translate(-4.36 -5.8)"></path><path class="cls-1" d="M7.54,19.73a1.48,1.48,0,0,0-1.44-.08,1.27,1.27,0,0,0-.45.38,1.8,1.8,0,0,0-.26.56,2.75,2.75,0,0,0-.08.65,3.1,3.1,0,0,0,.08.69,1.66,1.66,0,0,0,.26.57,1.35,1.35,0,0,0,.46.39,1.46,1.46,0,0,0,.66.14,1.35,1.35,0,0,0,.5-.09,1.08,1.08,0,0,0,.37-.26,1.14,1.14,0,0,0,.25-.39A1.66,1.66,0,0,0,8,21.8h.57A1.92,1.92,0,0,1,8,23.06a1.77,1.77,0,0,1-1.29.44,2,2,0,0,1-.87-.17,1.62,1.62,0,0,1-.62-.47,2,2,0,0,1-.37-.7,3.17,3.17,0,0,1-.12-.88,2.8,2.8,0,0,1,.13-.88,2.28,2.28,0,0,1,.39-.72,1.89,1.89,0,0,1,.63-.48A2.07,2.07,0,0,1,6.77,19a2.18,2.18,0,0,1,.63.09,1.71,1.71,0,0,1,.54.27,1.62,1.62,0,0,1,.39.43,1.69,1.69,0,0,1,.2.61H8A1.07,1.07,0,0,0,7.54,19.73Z" transform="translate(-4.36 -5.8)"></path><path class="cls-1" d="M9.12,21.22a1.4,1.4,0,0,1,.77-.86,1.59,1.59,0,0,1,.64-.12,1.6,1.6,0,0,1,.65.12,1.42,1.42,0,0,1,.48.35,1.4,1.4,0,0,1,.28.51,2.1,2.1,0,0,1,0,1.28,1.58,1.58,0,0,1-.28.51,1.27,1.27,0,0,1-.48.34,1.67,1.67,0,0,1-1.29,0A1.27,1.27,0,0,1,9.41,23a1.61,1.61,0,0,1-.29-.51,2.32,2.32,0,0,1,0-1.28Zm.52,1.14a1,1,0,0,0,.21.37.84.84,0,0,0,.31.22,1,1,0,0,0,.37.08,1,1,0,0,0,.38-.08.84.84,0,0,0,.31-.22,1,1,0,0,0,.2-.37,1.5,1.5,0,0,0,.08-.5,1.54,1.54,0,0,0-.08-.5.93.93,0,0,0-.51-.6,1,1,0,0,0-.38-.07.94.94,0,0,0-.37.07,1,1,0,0,0-.31.23,1,1,0,0,0-.21.37,1.55,1.55,0,0,0-.07.5A1.51,1.51,0,0,0,9.64,22.36Z" transform="translate(-4.36 -5.8)"></path><path class="cls-1" d="M13.12,20.31v.45h0a1.13,1.13,0,0,1,1-.52,1.15,1.15,0,0,1,.53.12.7.7,0,0,1,.33.4,1.18,1.18,0,0,1,.41-.39,1.16,1.16,0,0,1,.56-.13,1.42,1.42,0,0,1,.42.05.69.69,0,0,1,.32.16.71.71,0,0,1,.21.27,1.08,1.08,0,0,1,.08.42v2.27h-.51v-2a2.46,2.46,0,0,0,0-.28.67.67,0,0,0-.09-.21.47.47,0,0,0-.19-.15.67.67,0,0,0-.3,0,.8.8,0,0,0-.59.21.78.78,0,0,0-.22.58v1.93h-.51v-2a1.2,1.2,0,0,0,0-.28.63.63,0,0,0-.09-.22.37.37,0,0,0-.18-.14.59.59,0,0,0-.28,0,.74.74,0,0,0-.38.09.8.8,0,0,0-.26.21.87.87,0,0,0-.15.26.74.74,0,0,0,0,.23v1.93h-.51v-3.1Z" transform="translate(-4.36 -5.8)"></path><path class="cls-1" d="M18.24,20.31v.45h0a1.13,1.13,0,0,1,1-.52,1.11,1.11,0,0,1,.52.12.64.64,0,0,1,.33.4,1.27,1.27,0,0,1,.41-.39,1.2,1.2,0,0,1,.57-.13,1.42,1.42,0,0,1,.42.05.74.74,0,0,1,.32.16.71.71,0,0,1,.21.27,1.08,1.08,0,0,1,.08.42v2.27H21.6v-2a1.27,1.27,0,0,0,0-.28.4.4,0,0,0-.09-.21.38.38,0,0,0-.18-.15.67.67,0,0,0-.3,0,.84.84,0,0,0-.6.21.81.81,0,0,0-.21.58v1.93h-.51v-2a1.2,1.2,0,0,0,0-.28.63.63,0,0,0-.09-.22.49.49,0,0,0-.18-.14.59.59,0,0,0-.28,0,.8.8,0,0,0-.39.09.9.9,0,0,0-.4.47.74.74,0,0,0,0,.23v1.93h-.51v-3.1Z" transform="translate(-4.36 -5.8)"></path><path class="cls-1" d="M25,23.41v-.49h0a1,1,0,0,1-.41.42,1.27,1.27,0,0,1-.6.14,1.29,1.29,0,0,1-.51-.09.86.86,0,0,1-.33-.23.88.88,0,0,1-.17-.35,1.66,1.66,0,0,1-.05-.46v-2h.51v2.1a.61.61,0,0,0,.16.45A.62.62,0,0,0,24,23a1,1,0,0,0,.4-.07.86.86,0,0,0,.29-.21,1,1,0,0,0,.17-.3,1.6,1.6,0,0,0,.05-.39V20.31h.51v3.1Z" transform="translate(-4.36 -5.8)"></path><path class="cls-1" d="M26.69,20.31v.49h0a1.07,1.07,0,0,1,1-.56,1.24,1.24,0,0,1,.51.08.81.81,0,0,1,.33.23.87.87,0,0,1,.18.36,2.16,2.16,0,0,1,.05.46v2h-.51v-2.1a.65.65,0,0,0-.17-.46.61.61,0,0,0-.46-.16,1,1,0,0,0-.41.07A.8.8,0,0,0,27,21a.85.85,0,0,0-.17.31,1.23,1.23,0,0,0-.06.39v1.75h-.51v-3.1Z" transform="translate(-4.36 -5.8)"></path><path class="cls-1" d="M29.58,19.75v-.62h.51v.62Zm.51.56v3.1h-.51v-3.1Z" transform="translate(-4.36 -5.8)"></path><path class="cls-1" d="M32.73,20.85a.74.74,0,0,0-.51-.16.9.9,0,0,0-.46.1.79.79,0,0,0-.3.27,1,1,0,0,0-.16.38,2.31,2.31,0,0,0-.05.46,2,2,0,0,0,.05.42,1.46,1.46,0,0,0,.16.36.87.87,0,0,0,.28.26.93.93,0,0,0,.42.09.84.84,0,0,0,.59-.2.87.87,0,0,0,.26-.55h.52a1.37,1.37,0,0,1-.43.88,1.34,1.34,0,0,1-.94.32,1.52,1.52,0,0,1-.62-.12,1.09,1.09,0,0,1-.46-.32,1.62,1.62,0,0,1-.28-.5,2.2,2.2,0,0,1-.09-.64,2.27,2.27,0,0,1,.09-.65,1.36,1.36,0,0,1,.73-.89,1.64,1.64,0,0,1,.65-.12,1.93,1.93,0,0,1,.49.06,1.4,1.4,0,0,1,.41.19,1.07,1.07,0,0,1,.29.34,1.3,1.3,0,0,1,.14.47H33A.78.78,0,0,0,32.73,20.85Z" transform="translate(-4.36 -5.8)"></path><path class="cls-1" d="M36.85,23.4a.75.75,0,0,1-.37.08.41.41,0,0,1-.31-.12.46.46,0,0,1-.12-.36,1.14,1.14,0,0,1-.49.36,1.46,1.46,0,0,1-.6.12,1.75,1.75,0,0,1-.4-.05.91.91,0,0,1-.33-.15A.84.84,0,0,1,34,23a1,1,0,0,1-.08-.4.91.91,0,0,1,.09-.43.78.78,0,0,1,.24-.27,1,1,0,0,1,.34-.16,2.34,2.34,0,0,1,.38-.09l.4-.07a1.59,1.59,0,0,0,.34-.06.46.46,0,0,0,.22-.11A.27.27,0,0,0,36,21.2a.45.45,0,0,0-.07-.27.33.33,0,0,0-.16-.15.72.72,0,0,0-.22-.08h-.24a1.08,1.08,0,0,0-.54.12.53.53,0,0,0-.24.46h-.51a1.13,1.13,0,0,1,.12-.48,1,1,0,0,1,.29-.32,1.17,1.17,0,0,1,.41-.18,2,2,0,0,1,.5-.05,2.73,2.73,0,0,1,.41,0,1.13,1.13,0,0,1,.38.12.75.75,0,0,1,.27.26.82.82,0,0,1,.1.44v1.59a1.42,1.42,0,0,0,0,.26.13.13,0,0,0,.14.09l.16,0ZM36,21.81a.57.57,0,0,1-.25.1l-.33.06-.34,0a1.26,1.26,0,0,0-.31.09.58.58,0,0,0-.23.17.45.45,0,0,0-.09.3.41.41,0,0,0,.05.21.38.38,0,0,0,.14.14.37.37,0,0,0,.19.08.78.78,0,0,0,.22,0,1.4,1.4,0,0,0,.44-.07,1,1,0,0,0,.29-.18.69.69,0,0,0,.17-.22.74.74,0,0,0,.05-.23Z" transform="translate(-4.36 -5.8)"></path><path class="cls-1" d="M38.65,20.31v.45H38v1.92a.61.61,0,0,0,0,.15.14.14,0,0,0,.05.08l.12,0h.43v.45h-.39a1.65,1.65,0,0,1-.34,0,.54.54,0,0,1-.23-.1.37.37,0,0,1-.13-.2,1.53,1.53,0,0,1,0-.35v-2H37v-.45h.53v-.93H38v.93Z" transform="translate(-4.36 -5.8)"></path><path class="cls-1" d="M39.24,19.75v-.62h.51v.62Zm.51.56v3.1h-.51v-3.1Z" transform="translate(-4.36 -5.8)"></path><path class="cls-1" d="M40.47,21.22a1.4,1.4,0,0,1,.77-.86,1.59,1.59,0,0,1,.64-.12,1.6,1.6,0,0,1,.65.12,1.42,1.42,0,0,1,.48.35,1.4,1.4,0,0,1,.28.51,2.1,2.1,0,0,1,0,1.28A1.58,1.58,0,0,1,43,23a1.27,1.27,0,0,1-.48.34,1.67,1.67,0,0,1-1.29,0,1.27,1.27,0,0,1-.48-.34,1.61,1.61,0,0,1-.29-.51,2.32,2.32,0,0,1,0-1.28ZM41,22.36a1,1,0,0,0,.21.37.84.84,0,0,0,.31.22,1,1,0,0,0,.37.08,1,1,0,0,0,.38-.08.84.84,0,0,0,.31-.22,1,1,0,0,0,.2-.37,1.5,1.5,0,0,0,.08-.5,1.54,1.54,0,0,0-.08-.5.93.93,0,0,0-.51-.6,1,1,0,0,0-.38-.07.94.94,0,0,0-.37.07,1,1,0,0,0-.31.23,1,1,0,0,0-.21.37,1.55,1.55,0,0,0-.07.5A1.51,1.51,0,0,0,41,22.36Z" transform="translate(-4.36 -5.8)"></path><path class="cls-1" d="M44.47,20.31v.49h0a1.06,1.06,0,0,1,1-.56,1.3,1.3,0,0,1,.51.08.89.89,0,0,1,.33.23,1,1,0,0,1,.18.36,2.16,2.16,0,0,1,.05.46v2h-.51v-2.1a.65.65,0,0,0-.17-.46.63.63,0,0,0-.46-.16,1,1,0,0,0-.41.07.72.72,0,0,0-.28.2.73.73,0,0,0-.17.31,1.23,1.23,0,0,0-.06.39v1.75H44v-3.1Z" transform="translate(-4.36 -5.8)"></path><path class="cls-1" d="M47.71,22.72a.65.65,0,0,0,.19.18.79.79,0,0,0,.27.1,1.53,1.53,0,0,0,.3,0,1.1,1.1,0,0,0,.25,0A1,1,0,0,0,49,23a.49.49,0,0,0,.18-.14.38.38,0,0,0,.07-.24.34.34,0,0,0-.15-.3,1.42,1.42,0,0,0-.37-.17L48.21,22a2.34,2.34,0,0,1-.49-.14,1.16,1.16,0,0,1-.38-.26.7.7,0,0,1-.15-.47.72.72,0,0,1,.11-.4.81.81,0,0,1,.27-.28,1.11,1.11,0,0,1,.37-.15,1.44,1.44,0,0,1,.41-.05,2.49,2.49,0,0,1,.49,0,1,1,0,0,1,.39.16.72.72,0,0,1,.27.3,1,1,0,0,1,.12.47h-.51A.46.46,0,0,0,49,21a.52.52,0,0,0-.17-.16.92.92,0,0,0-.23-.09,1,1,0,0,0-.25,0h-.23a1,1,0,0,0-.21.07.4.4,0,0,0-.16.12.29.29,0,0,0-.06.19.27.27,0,0,0,.1.22.59.59,0,0,0,.23.14l.33.1.36.08.37.1a1.68,1.68,0,0,1,.33.16.75.75,0,0,1,.22.25.72.72,0,0,1,.09.37.84.84,0,0,1-.12.47.86.86,0,0,1-.3.3,1.23,1.23,0,0,1-.43.16,2.5,2.5,0,0,1-.47.05,2,2,0,0,1-.49-.06,1,1,0,0,1-.41-.18.89.89,0,0,1-.29-.32.94.94,0,0,1-.12-.49h.51A.65.65,0,0,0,47.71,22.72Z" transform="translate(-4.36 -5.8)"></path><path class="cls-1" d="M54.74,23.4a.74.74,0,0,1-.36.08.42.42,0,0,1-.32-.12.46.46,0,0,1-.12-.36,1.14,1.14,0,0,1-.49.36,1.46,1.46,0,0,1-.6.12,1.75,1.75,0,0,1-.4-.05.86.86,0,0,1-.32-.15.64.64,0,0,1-.22-.27.82.82,0,0,1-.09-.4.91.91,0,0,1,.1-.43.75.75,0,0,1,.23-.27,1,1,0,0,1,.34-.16,2.23,2.23,0,0,1,.39-.09l.39-.07a1.59,1.59,0,0,0,.34-.06.55.55,0,0,0,.23-.11.29.29,0,0,0,.08-.22.54.54,0,0,0-.06-.27.4.4,0,0,0-.17-.15.72.72,0,0,0-.22-.08h-.24a1.08,1.08,0,0,0-.54.12.52.52,0,0,0-.23.46h-.52a1,1,0,0,1,.13-.48.87.87,0,0,1,.28-.32,1.17,1.17,0,0,1,.41-.18,2,2,0,0,1,.5-.05,3,3,0,0,1,.42,0,1.15,1.15,0,0,1,.37.12.75.75,0,0,1,.27.26.82.82,0,0,1,.1.44v1.59a1.42,1.42,0,0,0,0,.26.14.14,0,0,0,.15.09l.15,0Zm-.83-1.59a.57.57,0,0,1-.25.1l-.33.06L53,22a1.26,1.26,0,0,0-.31.09.66.66,0,0,0-.23.17.45.45,0,0,0-.09.3.33.33,0,0,0,.06.21.29.29,0,0,0,.13.14.41.41,0,0,0,.19.08A.78.78,0,0,0,53,23,1.4,1.4,0,0,0,53.4,23a1,1,0,0,0,.29-.18.69.69,0,0,0,.17-.22.53.53,0,0,0,0-.23Z" transform="translate(-4.36 -5.8)"></path><path class="cls-1" d="M55.69,20.31v.49h0a1,1,0,0,1,1-.56,1.24,1.24,0,0,1,.51.08.81.81,0,0,1,.33.23.77.77,0,0,1,.18.36,1.66,1.66,0,0,1,.05.46v2h-.51v-2.1a.57.57,0,0,0-.63-.62,1,1,0,0,0-.4.07A.75.75,0,0,0,56,21a1,1,0,0,0-.17.31,1.23,1.23,0,0,0-.06.39v1.75h-.51v-3.1Z" transform="translate(-4.36 -5.8)"></path><path class="cls-1" d="M60.81,23.41V23h0a.7.7,0,0,1-.4.37,1.5,1.5,0,0,1-1.22,0,1.36,1.36,0,0,1-.44-.35,1.51,1.51,0,0,1-.27-.52,2.18,2.18,0,0,1,0-1.24,1.69,1.69,0,0,1,.26-.52,1.43,1.43,0,0,1,.45-.35,1.49,1.49,0,0,1,.62-.12,1.23,1.23,0,0,1,.26,0,1.38,1.38,0,0,1,.27.08,1.35,1.35,0,0,1,.26.15.66.66,0,0,1,.21.23h0V19.13h.51v4.28ZM59,22.31a1.4,1.4,0,0,0,.17.37.94.94,0,0,0,.3.26,1,1,0,0,0,.43.09.87.87,0,0,0,.44-.1,1,1,0,0,0,.3-.27,1.12,1.12,0,0,0,.16-.37,1.92,1.92,0,0,0,0-.87,1.26,1.26,0,0,0-.17-.37.91.91,0,0,0-.31-.27,1,1,0,0,0-.45-.09.81.81,0,0,0-.72.37,1.18,1.18,0,0,0-.16.38,2.2,2.2,0,0,0,0,.44A1.54,1.54,0,0,0,59,22.31Z" transform="translate(-4.36 -5.8)"></path><path class="cls-1" d="M66.45,19.73a1.35,1.35,0,0,0-.78-.23,1.33,1.33,0,0,0-.65.15,1.12,1.12,0,0,0-.45.38,1.82,1.82,0,0,0-.27.56,2.75,2.75,0,0,0-.08.65,3.1,3.1,0,0,0,.08.69,1.67,1.67,0,0,0,.27.57,1.23,1.23,0,0,0,.45.39,1.46,1.46,0,0,0,.66.14,1.31,1.31,0,0,0,.5-.09,1.12,1.12,0,0,0,.38-.26,1.3,1.3,0,0,0,.25-.39,1.64,1.64,0,0,0,.1-.49h.57a2,2,0,0,1-.55,1.26,1.81,1.81,0,0,1-1.3.44,2,2,0,0,1-.87-.17,1.7,1.7,0,0,1-.62-.47,2.23,2.23,0,0,1-.37-.7,3.17,3.17,0,0,1-.12-.88,2.8,2.8,0,0,1,.13-.88,2.28,2.28,0,0,1,.39-.72,1.83,1.83,0,0,1,.64-.48,2,2,0,0,1,.87-.18,2.18,2.18,0,0,1,.63.09,1.71,1.71,0,0,1,.54.27,1.62,1.62,0,0,1,.39.43,1.69,1.69,0,0,1,.2.61h-.57A1,1,0,0,0,66.45,19.73Z" transform="translate(-4.36 -5.8)"></path><path class="cls-1" d="M70.2,23.41v-.49h0a1,1,0,0,1-.41.42,1.25,1.25,0,0,1-.59.14,1.23,1.23,0,0,1-.51-.09.73.73,0,0,1-.33-.23.78.78,0,0,1-.18-.35,2.16,2.16,0,0,1,0-.46v-2h.51v2.1a.57.57,0,0,0,.17.45.58.58,0,0,0,.46.17,1,1,0,0,0,.4-.07.78.78,0,0,0,.29-.21,1,1,0,0,0,.17-.3,1.23,1.23,0,0,0,.06-.39V20.31h.51v3.1Z" transform="translate(-4.36 -5.8)"></path><path class="cls-1" d="M72,19.13v4.28h-.51V19.13Z" transform="translate(-4.36 -5.8)"></path><path class="cls-1" d="M74.1,20.31v.45h-.62v1.92a.61.61,0,0,0,0,.15.16.16,0,0,0,.06.08.23.23,0,0,0,.11,0h.43v.45h-.39a1.72,1.72,0,0,1-.34,0,.45.45,0,0,1-.22-.1.32.32,0,0,1-.13-.2,1.08,1.08,0,0,1,0-.35v-2h-.52v-.45H73v-.93h.51v.93Z" transform="translate(-4.36 -5.8)"></path><path class="cls-1" d="M76.75,23.41v-.49h0a1,1,0,0,1-.41.42,1.27,1.27,0,0,1-.6.14,1.29,1.29,0,0,1-.51-.09.86.86,0,0,1-.33-.23.88.88,0,0,1-.17-.35,1.66,1.66,0,0,1,0-.46v-2h.51v2.1a.61.61,0,0,0,.16.45.62.62,0,0,0,.47.17,1,1,0,0,0,.4-.07.78.78,0,0,0,.29-.21,1,1,0,0,0,.17-.3,1.23,1.23,0,0,0,0-.39V20.31h.51v3.1Z" transform="translate(-4.36 -5.8)"></path><path class="cls-1" d="M78.46,20.31V21h0a1.36,1.36,0,0,1,.45-.56,1.14,1.14,0,0,1,.69-.16v.54a1.41,1.41,0,0,0-.53.08.87.87,0,0,0-.34.24,1,1,0,0,0-.2.4,2.09,2.09,0,0,0-.06.53v1.38H78v-3.1Z" transform="translate(-4.36 -5.8)"></path><path class="cls-1" d="M82.09,23.21a1.4,1.4,0,0,1-.88.27,1.56,1.56,0,0,1-.64-.12,1.33,1.33,0,0,1-.74-.86,2.6,2.6,0,0,1-.11-.65,1.93,1.93,0,0,1,.11-.65,1.55,1.55,0,0,1,.31-.51,1.39,1.39,0,0,1,.46-.33,1.4,1.4,0,0,1,.58-.12,1.22,1.22,0,0,1,.69.17,1.39,1.39,0,0,1,.44.43,2,2,0,0,1,.23.58,3.07,3.07,0,0,1,0,.59H80.26a1.6,1.6,0,0,0,0,.39.92.92,0,0,0,.18.32.86.86,0,0,0,.3.23,1.19,1.19,0,0,0,.44.08.88.88,0,0,0,.53-.15.69.69,0,0,0,.27-.46h.51A1.25,1.25,0,0,1,82.09,23.21Zm-.12-2a.9.9,0,0,0-.47-.47,1.05,1.05,0,0,0-.7,0,.92.92,0,0,0-.28.19,1.34,1.34,0,0,0-.18.28,1.3,1.3,0,0,0-.08.34h1.79A1.3,1.3,0,0,0,82,21.22Z" transform="translate(-4.36 -5.8)"></path></g></svg> 