<?xml version="1.0" encoding="UTF-8"?> <svg xmlns="http://www.w3.org/2000/svg" id="Layer_1" width="600" height="400" viewBox="0 0 600 400"><defs><style>.cls-1{fill:#fff;}</style></defs><polygon class="cls-1" points="113.72 232.11 113.72 245.1 126.47 245.1 126.47 232.11 113.72 232.11"></polygon><polygon class="cls-1" points="75 245.1 100.73 245.1 100.73 232.11 87.99 232.11 87.99 167.89 100.73 167.89 100.73 232.11 113.72 232.11 113.72 167.89 126.47 167.89 126.47 232.11 139.46 232.11 139.46 167.89 152.2 167.89 152.2 232.11 139.46 232.11 139.46 245.1 165.19 245.1 165.19 154.9 75 154.9 75 245.1"></polygon><polygon class="cls-1" points="229.41 219.36 229.41 232.11 190.69 232.11 190.69 219.36 203.67 219.36 203.67 180.64 190.69 180.64 190.69 167.89 216.42 167.89 216.42 219.36 229.41 219.36"></polygon><polygon class="cls-1" points="377.32 180.64 377.32 167.89 416.05 167.89 416.05 180.64 377.32 180.64"></polygon><polygon class="cls-1" points="377.32 180.64 377.32 193.63 416.05 193.63 416.05 206.37 377.32 206.37 377.32 219.36 364.58 219.36 364.58 180.64 377.32 180.64"></polygon><polygon class="cls-1" points="377.32 232.11 377.32 219.36 416.05 219.36 416.05 232.11 377.32 232.11"></polygon><path class="cls-1" d="m255.14,154.9v89.95h89.95v-89.95h-89.95Zm70.71,38.72h-12.75v12.75h12.75v25.73h-12.75v-25.73h-19.48v-12.75h19.48v-12.75h-25.73v51.23h-12.75v-51.47h12.75v-12.75h25.73v12.75h12.75v12.99h0Z"></path><polygon class="cls-1" points="497.34 180.64 477.86 180.64 477.86 219.36 497.34 219.36 497.34 180.64"></polygon><path class="cls-1" d="m435.05,154.9v89.95h89.95v-89.95h-89.95Zm75.04,64.46h-12.75v12.75h-44.98v-12.75h12.75v-38.48h-12.75v-12.75h44.98v12.75h12.75v38.48h0Z"></path></svg> 