<?xml version="1.0" encoding="UTF-8"?> <svg xmlns="http://www.w3.org/2000/svg" id="Layer_1" width="600" height="400" viewBox="0 0 600 400"><defs><style>.cls-1{fill:#fff;}</style></defs><polygon class="cls-1" points="221.34 243.81 221.34 232.4 197.05 232.4 197.05 202.3 217.17 202.3 217.17 190.47 197.12 190.47 197.12 164.2 221.49 164.2 221.49 152.16 184.58 152.16 184.58 244.37 221.42 244.37 221.34 243.81"></polygon><path class="cls-1" d="m243.73,245.58c9.49,0,20.75-3.61,20.75-20.89v-16.5h-12.68v16.5c0,6.09-2.12,8.71-7.15,8.71-7.44,0-8.57-4.04-8.57-17.78v-41.65c0-9.35,4.04-10.62,8.5-10.62,2.41,0,4.39,1.06,5.31,2.9,1.06,2.05,1.13,4.25,1.13,16.86v3.33h12.61v-15.37c0-7.93-2.76-13.67-8.29-16.86-3.12-1.91-7.01-2.9-11.26-2.9-6.45,0-11.33,1.91-14.94,5.95l.07-.07c-.21.21-5.6,4.82-5.38,17.99-.07,0-.07,46.39-.07,46.39,0,8.64,1.2,13.1,4.46,17.21,3.82,4.53,9,6.8,15.51,6.8Z"></path><path class="cls-1" d="m329.43,202.73h3.75l15.52,41.36.14.35h13.32l-.28-.71-15.91-42.62c7.23-2.64,10.95-8.45,10.95-17.37v-13.32c0-12.04-6.8-18.2-20.26-18.2h-19.83v92.15h12.61v-41.65Zm14.59-17.49c0,3.61-1.2,5.81-7.15,5.81h-7.44v-27.13h7.79c4.32,0,6.8.35,6.8,8.07v13.24Z"></path><polygon class="cls-1" points="376.25 244.37 376.25 152.16 363.43 152.16 363.43 244.37 363.99 244.37 376.25 244.37"></polygon><polygon class="cls-1" points="465.85 152.3 465.85 152.23 453.03 152.23 452.88 152.58 441.76 185.53 430.64 152.58 430.5 152.23 380.28 152.23 380.28 164.27 395.16 164.27 395.16 244.52 407.77 244.52 407.77 164.27 421.49 164.27 435.46 203.51 435.46 244.44 447.93 244.44 447.93 203.93 466.55 153.01 466.84 152.3 465.85 152.3"></polygon><path class="cls-1" d="m156.47,245.72c22.74,0,22.74-18.91,22.74-26.06,0-14.45-5.17-19.76-15.51-30.39-14.45-14.73-15.87-18.2-15.87-26.7,0-10.06,3.33-11.97,9.07-11.97,8.15,0,8.78,5.17,8.78,12.4v11.55h12.11v-9.92c0-9.49,0-25.36-21.04-25.36s-21.25,18.34-21.25,24.44c0,14.87,6.73,21.6,17.92,32.79,10.98,10.77,13.53,14.31,13.53,24.44s-2.62,13.24-9.92,13.24c-2.9,0-6.94-.64-9.28-3.54-2.34-2.97-2.34-6.52-2.34-13.46v-10.55h-12.25v16.5c0,14.17,8.71,22.59,23.3,22.59Z"></path><path class="cls-1" d="m277.51,241.97c3.26,2.48,8,3.97,12.89,3.97,13.03,0,20.47-7.93,20.47-21.82v-71.96h-12.61v66.22c0,8.71-.28,11.05-1.42,12.54l-.07.07-.07.07c-1.56,2.34-4.53,2.69-6.16,2.69-7.51,0-8.07-4.67-8.07-11.83v-69.77h-12.47v68.77h.28c0,7.3,0,15.58,7.22,21.04Z"></path><path class="cls-1" d="m217.38,257.12c.85,0,1.98-.64,2.05-2.27-.07-1.27-.78-2.48-2.12-2.48-1.2,0-1.98.92-1.98,2.34,0,1.49.85,2.41,2.05,2.41Z"></path><path class="cls-1" d="m314.7,254.86c0-.64-.07-1.7-1.06-2.12-.35-.14-.57-.14-1.49-.21h-.71v4.46h.57c.99,0,1.35-.07,1.63-.14.5-.21,1.06-.64,1.06-1.98Z"></path><polygon class="cls-1" points="251.59 252.59 250.6 255.71 252.51 255.71 251.59 252.59"></polygon><path class="cls-1" d="m226.52,253.58c.14-.21.14-.71-.42-.92-.28-.14-.64-.14-1.42-.14h-.64v2.12h1.27c.28,0,1.2-.07,1.2-1.06Z"></path><path class="cls-1" d="m150.02,257.12c.85,0,1.98-.64,2.05-2.27-.07-1.27-.71-2.48-2.12-2.48-1.2,0-1.98.92-1.98,2.34,0,1.49.85,2.41,2.05,2.41Z"></path><path class="cls-1" d="m182.88,257.12c.85,0,1.98-.64,2.05-2.27-.07-1.27-.78-2.48-2.12-2.48-1.2,0-1.98.92-1.98,2.34,0,1.49.85,2.41,2.05,2.41Z"></path><path class="cls-1" d="m357.05,253.58c.14-.21.14-.71-.42-.92-.28-.14-.64-.14-1.42-.14h-.64v2.12h1.27c.28,0,1.2-.07,1.2-1.06Z"></path><path class="cls-1" d="m387.65,254.08c.35,0,.64,0,.92-.14.28-.14.5-.42.5-.71s-.14-.5-.42-.64-.42-.14-1.35-.14h-.85v1.7h.42c.35-.07.64-.07.78-.07Z"></path><path class="cls-1" d="m389.35,256.13c0-.14,0-.35-.14-.5-.28-.57-.99-.57-1.49-.57h-1.27v1.98h1.27c.78,0,.99,0,1.35-.21.21-.14.28-.35.28-.71Z"></path><polygon class="cls-1" points="324.19 252.59 323.2 255.71 325.11 255.71 324.19 252.59"></polygon><path class="cls-1" d="m133.52,260.74h313.56v-11.9H133.52v11.9Zm307.18-5.17c-.14-.07-.21-.07-.85-.21l-.85-.14c-.42-.07-.64-.14-.85-.21-.28-.14-1.2-.57-1.2-1.63,0-1.27,1.13-2.12,2.76-2.12,1.49,0,2.34.71,2.83,1.35l-1.06.78c-.21-.35-.71-.99-1.84-.99-.71,0-1.35.28-1.35.85s.64.71,1.27.78l.71.14c.92.21,2.27.57,2.27,1.98.14,1.56-1.35,2.2-2.9,2.2-.35,0-.85-.07-1.27-.14-.5-.14-1.27-.42-1.84-1.27l1.13-.78c.14.28.71.99,2.2.99.28,0,.5,0,.78-.14.5-.21.57-.57.57-.78,0-.42-.28-.57-.5-.64Zm-7.72,0c-.14-.07-.21-.07-.85-.21l-.85-.14c-.42-.07-.64-.14-.85-.21-.28-.14-1.2-.57-1.2-1.63,0-1.27,1.13-2.12,2.76-2.12,1.49,0,2.34.71,2.83,1.35l-1.06.78c-.21-.35-.71-.99-1.84-.99-.71,0-1.35.28-1.35.85s.64.71,1.27.78l.71.14c.92.21,2.27.57,2.27,1.98.07,1.56-1.42,2.2-2.9,2.2-.35,0-.85-.07-1.27-.14-.5-.14-1.27-.42-1.84-1.27l1.13-.78c.14.28.71.99,2.2.99.28,0,.5,0,.78-.14.5-.21.57-.57.57-.78,0-.42-.28-.57-.5-.64Zm-11.12-4.18h4.96v1.13h-3.68v1.56h3.4v1.06h-3.4v1.84h3.97v1.13h-5.24v-6.73Zm-8.22,0h1.2l3.12,4.75-.14-4.75h1.27v6.73h-1.2l-3.05-4.75.07,4.75h-1.27v-6.73Zm-4.25,0h1.27v6.73h-1.27v-6.73Zm-4.39,4.18c-.14-.07-.21-.07-.85-.21l-.85-.14c-.42-.07-.64-.14-.85-.21-.28-.14-1.2-.57-1.2-1.63,0-1.27,1.13-2.12,2.76-2.12,1.49,0,2.34.71,2.83,1.35l-1.06.78c-.21-.35-.71-.99-1.84-.99-.71,0-1.35.28-1.35.85s.64.71,1.27.78l.71.14c.92.21,2.27.57,2.27,1.98.07,1.56-1.42,2.2-2.9,2.2-.35,0-.85-.07-1.27-.14-.5-.14-1.27-.42-1.84-1.27l1.13-.78c.14.28.71.99,2.2.99.28,0,.5,0,.78-.14.5-.21.57-.57.57-.78,0-.42-.28-.57-.5-.64Zm-11.76-4.25h1.35v4.18c0,.28,0,.57.07.85.28.64.99.71,1.42.71.21,0,.71,0,1.13-.35.35-.35.35-.71.35-1.27v-4.11h1.35v4.32c0,.78,0,1.42-.78,1.98-.71.64-1.63.64-2.12.64-.42,0-.85-.07-1.27-.21-.85-.28-1.27-.85-1.42-1.35-.07-.28-.07-.5-.07-1.35v-4.04Zm-8.07.07h2.48c.92,0,1.2,0,1.49.14.71.21,1.2.78,1.2,1.56,0,.28-.07.64-.28.92-.21.28-.5.42-.85.5.78.14,1.49.71,1.49,1.77,0,.71-.35,1.42-1.2,1.7-.42.14-.78.14-1.56.14h-2.76v-6.73Zm-9-.14c1.49,0,2.55.85,2.97,1.98l-1.27.5c-.14-.35-.5-1.35-1.7-1.35-1.35,0-1.98,1.13-1.98,2.41.07,1.49.92,2.34,2.05,2.34.71,0,1.63-.35,1.7-1.56h-1.77v-1.13h2.97v3.68h-1.13v-.57c-.64.57-1.35.78-1.91.78-2.2,0-3.33-1.63-3.33-3.47,0-2.12,1.49-3.61,3.4-3.61Zm-10.84.14h1.2l3.12,4.75-.14-4.75h1.27v6.73h-1.2l-3.05-4.75.07,4.75h-1.27v-6.73Zm-4.25,0h1.27v6.73h-1.27v-6.73Zm-7.79,0h2.27c.92,0,1.56,0,2.2.5.42.35.78.85.78,1.63,0,1.27-.99,1.77-1.42,1.84l1.56,2.76h-1.49l-1.42-2.48h-1.2v2.48h-1.27v-6.73Zm-8.57-.07h1.35v4.18c0,.28,0,.57.07.85.28.64.99.71,1.42.71.21,0,.71,0,1.13-.35.35-.35.35-.71.35-1.27v-4.11h1.35v4.32c0,.78,0,1.42-.78,1.98-.71.64-1.63.64-2.12.64-.42,0-.85-.07-1.27-.21-.85-.28-1.27-.85-1.42-1.35-.07-.28-.07-.5-.07-1.35v-4.04Zm-4.32,4.25c-.14-.07-.21-.07-.85-.21l-.85-.14c-.42-.07-.64-.14-.85-.21-.28-.14-1.2-.57-1.2-1.63,0-1.27,1.13-2.12,2.76-2.12,1.49,0,2.34.71,2.83,1.35l-1.06.78c-.21-.35-.71-.99-1.84-.99-.71,0-1.35.28-1.35.85s.64.71,1.27.78l.71.14c.92.21,2.27.57,2.27,1.98.07,1.56-1.42,2.2-2.9,2.2-.35,0-.85-.07-1.27-.14-.5-.14-1.27-.42-1.84-1.27l1.13-.78c.14.28.71.99,2.2.99.28,0,.5,0,.78-.14.5-.21.57-.57.57-.78,0-.42-.28-.57-.5-.64Zm-7.79,0c-.14-.07-.21-.07-.85-.21l-.85-.14c-.42-.07-.64-.14-.85-.21-.28-.14-1.2-.57-1.2-1.63,0-1.27,1.13-2.12,2.76-2.12,1.49,0,2.34.71,2.83,1.35l-1.06.78c-.21-.35-.71-.99-1.84-.99-.71,0-1.35.28-1.35.85s.64.71,1.27.78l.71.14c.92.21,2.27.57,2.27,1.98.14,1.56-1.42,2.2-2.9,2.2-.35,0-.85-.07-1.27-.14-.5-.14-1.27-.42-1.84-1.27l1.13-.78c.14.28.71.99,2.2.99.28,0,.5,0,.78-.14.5-.21.57-.57.57-.78,0-.42-.28-.57-.5-.64Zm-9.28-4.18h1.49l2.41,6.73h-1.35l-.42-1.35h-2.62l-.42,1.35h-1.42l2.34-6.73Zm-13.17.07h2.55c.64,0,1.35,0,2.05.5,1.2.78,1.35,2.12,1.35,2.9,0,1.13-.42,2.34-1.42,2.9-.71.42-1.42.42-2.27.42h-2.27v-6.73Zm-8.22-.07h1.2l3.12,4.75-.14-4.75h1.27l-.07,6.73h-1.13l-3.05-4.75.07,4.75h-1.27v-6.73Zm-5.81,0h1.49l2.41,6.73h-1.35l-.42-1.35h-2.62l-.42,1.35h-1.42l2.34-6.73Zm-10.41-.14c1.49,0,2.55.85,2.97,1.98l-1.27.5c-.14-.35-.5-1.35-1.7-1.35-1.35,0-1.98,1.13-1.98,2.41,0,1.49.85,2.34,1.98,2.34.71,0,1.63-.35,1.7-1.56h-1.77v-1.13h2.97v3.68h-1.06v-.57c-.64.57-1.35.78-1.91.78-2.2,0-3.33-1.63-3.33-3.47,0-2.12,1.49-3.61,3.4-3.61Zm-10.98.14h1.2l3.12,4.75-.14-4.75h1.27l-.07,6.73h-1.13l-3.05-4.75.07,4.75h-1.27v-6.73Zm-4.25,0h1.27v6.73h-1.27v-6.73Zm-5.88,0h1.35v5.6h2.76v1.13s-4.11,0-4.11,0v-6.73Zm-8.15,0h2.48c.92,0,1.2,0,1.49.14.71.21,1.2.78,1.2,1.56,0,.28-.07.64-.28.92-.21.28-.5.42-.85.5.78.14,1.49.71,1.49,1.77.07.71-.35,1.42-1.2,1.7-.42.14-.78.14-1.56.14h-2.76v-6.73Zm-5.74.07h1.49l2.41,6.73-1.35-.07-.42-1.27h-2.62l-.42,1.35h-1.42l2.34-6.73Zm-9.42-.07h1.2l3.12,4.75-.14-4.75h1.27l-.07,6.73h-1.13l-3.05-4.75.07,4.75h-1.27v-6.73Zm-7.65,0h4.96v1.13h-3.68v1.56h3.4v1.06h-3.4v1.84h3.97v1.13h-5.24v-6.73Zm-10.91,0h2.27c.92,0,1.56,0,2.2.5.42.35.78.85.78,1.63,0,1.27-.99,1.77-1.42,1.84l1.56,2.76h-1.49l-1.42-2.48h-1.2v2.48h-1.27v-6.73Zm-5.38-.14c1.77,0,3.4,1.27,3.33,3.54-.07,1.91-1.27,3.54-3.4,3.54-.85,0-1.7-.21-2.41-1.06-.71-.78-.92-1.63-.92-2.48,0-2.05,1.42-3.54,3.4-3.54Zm-9.56.14h4.67l-.07,1.13h-3.33v1.7h2.9v1.06h-2.9v2.83h-1.27v-6.73Zm-7.58,4.18c-.14-.07-.21-.07-.85-.21l-.85-.14c-.42-.07-.64-.14-.85-.21-.28-.14-1.2-.57-1.2-1.63,0-1.27,1.13-2.12,2.76-2.12,1.49,0,2.34.71,2.83,1.35l-1.06.78c-.21-.35-.71-.99-1.84-.99-.71,0-1.35.28-1.35.85s.64.71,1.27.78l.71.14c.92.21,2.27.57,2.27,1.98.07,1.56-1.42,2.2-2.9,2.2-.35,0-.85-.07-1.27-.14-.5-.14-1.27-.42-1.84-1.27l1.13-.78c.14.28.71.99,2.2.99.28,0,.5,0,.78-.14.5-.21.57-.57.57-.78,0-.42-.28-.57-.5-.64Zm-11.9-4.18h1.2l3.12,4.75-.14-4.75h1.27l-.07,6.73h-1.13l-3.05-4.75.07,4.75h-1.27v-6.73Zm-5.45-.14c1.77,0,3.4,1.27,3.33,3.54-.07,1.91-1.27,3.54-3.4,3.54-.85,0-1.7-.21-2.41-1.06-.71-.78-.92-1.63-.92-2.48,0-2.05,1.42-3.54,3.4-3.54Zm-6.94.14h1.27v6.73h-1.27v-6.73Zm-7.08,0h5.17v1.13h-1.91v5.6h-1.35v-5.6h-1.91v-1.13Zm-7.51-.07h1.35v4.18c0,.28,0,.57.07.85.28.64.99.71,1.42.71.21,0,.71,0,1.13-.35.35-.35.35-.71.35-1.27v-4.11h1.35v4.32c0,.78,0,1.42-.78,1.98-.71.64-1.63.64-2.12.64-.42,0-.85-.07-1.27-.21-.85-.28-1.27-.85-1.42-1.35-.07-.28-.07-.5-.07-1.35v-4.04Zm-5.88.07h1.35v5.6h2.76s0,1.13,0,1.13h-4.11v-6.73Zm-5.45-.14c1.77,0,3.4,1.27,3.33,3.54-.07,1.91-1.27,3.54-3.4,3.54-.85,0-1.7-.21-2.41-1.06-.71-.78-.92-1.63-.92-2.48,0-2.05,1.42-3.54,3.4-3.54Zm-7.08,4.32c-.14-.07-.21-.07-.85-.21l-.85-.14c-.42-.07-.64-.14-.85-.21-.28-.14-1.2-.57-1.2-1.63,0-1.27,1.13-2.12,2.76-2.12,1.49,0,2.34.71,2.83,1.35l-1.06.78c-.21-.35-.71-.99-1.84-.99-.71,0-1.35.28-1.35.85s.64.71,1.27.78l.71.14c.92.21,2.27.57,2.27,1.98.07,1.56-1.42,2.2-2.9,2.2-.35,0-.85-.07-1.27-.14-.5-.14-1.27-.42-1.84-1.27l1.13-.78c.14.28.71.99,2.2.99.28,0,.5,0,.78-.14.5-.21.57-.57.57-.78,0-.42-.28-.57-.5-.64Z"></path><path class="cls-1" d="m259.03,254.08c.35,0,.64,0,.92-.14s.5-.42.5-.71-.14-.5-.42-.64c-.28-.14-.42-.14-1.35-.14h-.85v1.7h.42c.35-.07.64-.07.78-.07Z"></path><polygon class="cls-1" points="296.99 252.59 296 255.71 297.98 255.71 296.99 252.59"></polygon><path class="cls-1" d="m260.73,256.13c0-.14,0-.35-.14-.5-.28-.57-1.06-.57-1.49-.57h-1.27v1.98h1.27c.78,0,.99,0,1.35-.21.21-.14.28-.35.28-.71Z"></path></svg> 