<?xml version="1.0" encoding="UTF-8"?> <svg xmlns="http://www.w3.org/2000/svg" id="Layer_1" width="600" height="400" viewBox="0 0 600 400"><defs><style>.cls-1{fill:#fff;}</style></defs><path class="cls-1" d="m207.19,140.6c-.16-.16-.49-.33-.33-1.15l.49-1.64c.16-.33.98-.16,1.47-.16.16-.16,1.15-.33,1.31.16l.33,1.47c.16.82.16.98-.16,1.15-.16.16,0,.65.33.49h2.13c.49,0,.33-.49.16-.65-.33-.16-.33-.49-.49-.98l-2.46-8.83c-.16-.65-.49-1.15-.65-1.15-.49.16-1.15.33-1.15.65v.98l-2.46,8.34c-.33.82-.49.82-.65,1.15-.16.16-.16.65.16.65h1.64c.33,0,.49-.33.33-.49h0Zm.33-4.42l.82-2.46c.33-1.31.65-1.47.98.16l.49,2.29c.11.44-.22.65-.98.65-1.47,0-1.47-.16-1.31-.65h0Z"></path><path class="cls-1" d="m205.55,131.6v-1.8c0-.33,0-.49-1.47-.33-.98.16-1.64.16-2.29.16s-1.31,0-2.62-.16c-1.47-.16-1.47,0-1.47.33v1.8c0,.33,0,.82.33.82s.49-.33.65-.82c.65-1.47,1.15-1.64,1.47-1.64s.49.16.49.98v8.02c0,.82,0,.98-.33,1.15-.33.33-.33.65.16.65h2.29c.33,0,.49-.49.16-.65-.16-.16-.33-.33-.33-1.15v-8.02c0-.65.16-.98.49-.98.49,0,.98.16,1.47,1.64.16.49.33.82.65.82s.33-.49.33-.82h0Z"></path><path class="cls-1" d="m214.71,140.92c.16,0,.16-.16.82-.16s1.31.49,2.13.49c1.8,0,3.44-1.8,3.44-3.44s-.49-2.13-1.96-3.27c-1.64-1.15-2.95-1.47-2.95-2.95,0-.49.16-1.8,1.31-1.8s1.47,1.47,1.8,2.46c.33.82.82.49.82,0v-2.13c0-.33-.33-.49-.49-.33s-.82,0-.82,0c-.33-.33-.82-.33-1.64-.33-1.8,0-2.78,1.64-2.78,2.78,0,.98.49,1.96,2.29,3.27s2.29,1.8,2.29,2.95c0,.82-.33,2.29-1.64,2.29s-1.8-1.31-2.13-2.29c-.33-1.15-.98-1.15-.98-.16v1.96c0,.49.33.65.49.65h0Z"></path><path class="cls-1" d="m126.52,140.92h5.4c.33,0,.98.33.98-.33v-2.13c0-1.15-.65-1.47-.98,0-.33.98-.49,1.8-1.96,1.8h-.98c-.33,0-.49-.16-.49-.49-.16-.82-.16-2.29,0-3.93,0-.49.16-.49.65-.49.33,0,.49.16.65.49.16.49.98,1.15.98,0v-1.64c0-1.15-.82-.33-.98,0s-.33.33-.82.33-.65,0-.65-.49c0-.82,0-1.96.16-3.44,0-.33.16-.49.49-.49h.98c1.47,0,1.47.98,1.64,1.96.33.98.98.65.98,0v-2.13c0-.65-.65-.33-.98-.33h-5.07c-.33-.16-.49.33-.16.49.16.16.33.16.33,1.15v8.02c0,.82,0,.98-.33,1.15s-.33.49.16.49h0Z"></path><path class="cls-1" d="m121.45,130.12c.16-.33.16-.65-.16-.65h-1.64c-.33-.16-.49.33-.33.49s.49.16.33,1.15l-1.64,5.56c-.16.65-.65.98-.82,0l-1.15-5.56c-.16-.82,0-.98.16-1.15s.16-.49-.33-.49h-1.96c-.49-.16-.49.33-.16.49s.49.16.65,1.15l1.96,8.83c.16.82.33,1.31.82,1.31s.82-.49.98-1.15l2.62-8.83c.22-.65.44-1.04.65-1.15Z"></path><path class="cls-1" d="m164.8,140.6c-.16-.16-.16-.33-.49-.65-.16-.33-1.96-3.93-2.13-4.09-.11-.22-.16-.38-.16-.49,0-.16,0-.33.33-.49.98-.49,1.8-1.31,1.8-2.62,0-1.8-.98-2.78-3.93-2.78h-2.62c-.33,0-.82.33-.49.65.33.16.33.49.33.82v8.51c0,.82-.33.98-.49,1.15-.33.16-.16.49.16.49h1.15c.49,0,.82,0,.98.16.49,0,.65-.49.33-.65-.16-.33-.49-.33-.49-1.15v-3.93h.65c.33.33,2.46,4.9,2.62,5.23.16.33.33.33.33.33h1.64c.65,0,.65-.49.49-.49h0Zm-4.58-6.05c-.65,0-.82-.16-.82-.49v-3.11c0-.98.65-1.15,1.31-.98.49.16,1.47.33,1.47,2.29s-1.31,2.29-1.96,2.29Z"></path><path class="cls-1" d="m170.86,141.09h1.96c.33.16.49-.33.16-.49-.16-.16-.33-.33-.33-1.15v-8.02c0-.82,0-.98.33-1.15s.33-.49-.16-.49h-1.96c-.33-.16-.49.33-.16.49.16.16.33.16.33,1.15v8.02c0,.82,0,.98-.33,1.15s-.33.49.16.49Z"></path><path class="cls-1" d="m95.32,114.64v46.24h0c.24,50.89,25.49,95,71.31,124.17l.51.31.72-.31c45.72-29.07,71.07-73.18,71.31-124.17h.01v-46.24H95.32Zm104.05,66.79c.62,1.24,1.86,2.89,2.78,3.82.72.62.62,1.03.31,1.55-.21.51-1.03,1.34-1.34,1.55-.21.21-1.34.93-2.06-.51s-1.24-4.03-1.34-5.16c-.1-1.14-.83-.93-.93,0v1.76c0,1.14.31,2.69.93,4.13s.1,1.55-.31,1.76c-.31.21-.72.31-1.55.31-.72,0-1.14-.1-1.55-.31s-.93-.31-.31-1.76.93-2.99.93-4.13v-1.76c-.1-.93-.83-1.03-.93,0-.1,1.14-.62,3.71-1.34,5.16-.72,1.34-1.76.72-2.06.51-.21-.21-1.03-1.03-1.34-1.55-.21-.41-.41-.93.31-1.55.93-.93,2.17-2.58,2.78-3.82.62-1.14.1-1.76-.72-.51-.83,1.14-1.96,2.37-2.89,3.1-.41.41-.72.51-1.14,0-.41-.62-1.14-1.86-.93-3.1.21-1.34.72-1.24,1.24-1.24s1.96,0,2.99-.93c1.44-1.24,2.69-2.99,3.3-6.4.31-1.76,1.14-2.27,1.96-2.27s1.65.51,1.44,2.27c.62,3.51,1.34,4.75,2.78,6.09,1.03.93,2.48.83,3.3.93.51,0,1.14.31,1.34,1.55.21,1.34-.51,2.58-.93,3.1s-.62.41-1.14,0c-1.03-.72-2.06-1.86-2.89-3.1s-1.34-.72-.72.51h0Zm-8.98-8.57l1.44-.1c.93,0,.93.31.72,1.24-.31.93-.62,1.65-1.03,2.27h-.1c-.41.51-.62.21-.72-.31-.1-.51-.51-1.14-.72-1.86-.21-.62-.21-1.24.41-1.24h0Zm9.71,0l1.34.1c.62,0,.62.51.41,1.24-.21.62-.51,1.34-.62,1.86-.1.62-.31.83-.72.31h-.1c-.31-.62-.72-1.34-.93-2.27-.31-.93-.21-1.24.62-1.24h0Zm-4.75-8.88c0,4.24-2.99,7.64-7.23,7.64-1.55,0-2.37,0-3.61-.83.41.93.62,2.06.62,3.2,0,4.24-3.41,7.64-7.64,7.64-1.34,0-2.69-.41-3.82-1.03.83,1.24,1.24,2.58,1.24,4.13,0,4.24-3.41,7.64-7.64,7.64s-7.64-3.41-7.64-7.64c0-1.44.41-2.89,1.24-4.13-1.24.93-2.78,1.44-4.44,1.44-4.24,0-7.64-3.41-7.64-7.64,0-1.44.41-2.89,1.14-4.03-1.24.83-2.69,1.34-4.24,1.34-4.24,0-7.64-3.41-7.64-7.64,0-1.15.31-1.94.8-2.89h.33v-.31h55.02v.31h.3c.51.9.84,1.68.84,2.78h0Zm-24.98,45.93c.62,1.14,1.86,2.89,2.78,3.82.72.62.62,1.03.31,1.55-.21.51-1.03,1.34-1.34,1.55-.21.21-1.34.93-2.06-.51-.72-1.44-1.24-4.03-1.34-5.16-.1-1.14-.83-.93-.93,0v1.76c0,1.14.31,2.69.93,4.13s.1,1.55-.31,1.76c-.31.21-.72.31-1.55.31-.72,0-1.14-.1-1.55-.31s-.93-.31-.31-1.76c.51-1.44.93-2.99.93-4.13v-1.76c-.1-.93-.83-1.03-.93,0,0,1.14-.62,3.71-1.34,5.16-.72,1.34-1.76.72-2.06.51-.21-.21-1.03-1.03-1.34-1.55-.21-.41-.41-.93.31-1.55.93-.93,2.17-2.58,2.78-3.82.62-1.24.1-1.86-.72-.62-.83,1.14-1.96,2.37-2.89,3.1-.41.41-.72.51-1.14,0-.41-.62-1.14-1.86-.93-3.1.21-1.34.72-1.24,1.24-1.24s1.96,0,2.99-.93c1.44-1.34,2.69-2.99,3.3-6.4.31-1.76,1.14-2.27,1.96-2.27s1.65.51,1.44,2.27c.62,3.51,1.34,4.75,2.78,6.09,1.03.93,2.48.83,3.3.93.51,0,1.14.31,1.34,1.55.21,1.34-.51,2.58-.93,3.1-.41.51-.62.41-1.14,0-1.03-.72-2.06-1.86-2.89-3.1-.83-1.14-1.34-.62-.72.62h0Zm-8.98-8.67h1.44c.93,0,1.03.21.72,1.14s-.62,1.65-1.03,2.27h-.1c-.41.51-.62.21-.72-.31-.1-.51-.51-1.14-.72-1.86-.21-.62-.21-1.24.41-1.24h0Zm9.71,0h1.34c.62,0,.62.51.41,1.24-.21.62-.51,1.34-.62,1.86-.1.62-.31.83-.72.31h-.1c-.31-.62-.72-1.34-.93-2.27-.31-.83-.21-1.14.62-1.14h0Zm-30.04-19.3c.62,1.24,1.86,2.89,2.78,3.82.72.62.62,1.03.31,1.55-.21.51-1.03,1.34-1.34,1.55-.21.21-1.34.93-2.06-.51-.72-1.44-1.24-4.03-1.34-5.16-.1-1.14-.83-.93-.93,0v1.76c0,1.14.31,2.69.93,4.13s.1,1.55-.31,1.76c-.31.21-.72.31-1.55.31-.72,0-1.14-.1-1.55-.31s-.93-.31-.31-1.76.93-2.99.93-4.13v-1.76c-.1-.93-.83-1.03-.93,0,0,1.14-.62,3.71-1.34,5.16-.72,1.34-1.76.72-2.06.51-.21-.21-1.03-1.03-1.34-1.55-.21-.41-.41-.93.31-1.55.93-.93,2.17-2.58,2.78-3.82.62-1.14.1-1.76-.72-.51-.83,1.14-1.96,2.37-2.89,3.1-.41.41-.72.51-1.14,0-.41-.62-1.14-1.86-.93-3.1.21-1.34.72-1.24,1.24-1.24s1.96,0,2.99-.93c1.44-1.24,2.69-2.99,3.3-6.4.31-1.76,1.14-2.27,1.96-2.27s1.65.41,1.44,2.27c.62,3.51,1.34,4.75,2.78,6.09,1.03.93,2.48.83,3.3.93.51,0,1.14.31,1.34,1.55.21,1.34-.51,2.58-.93,3.1-.41.51-.62.41-1.14,0-1.03-.72-2.06-1.86-2.89-3.1s-1.34-.72-.72.51h0Zm-6.81-7.53c-.31.93-.62,1.65-1.03,2.27h-.1c-.41.51-.62.21-.72-.31-.1-.51-.51-1.14-.72-1.86-.21-.62-.21-1.24.41-1.24l1.44-.1c.93,0,1.03.31.72,1.24h0Zm7.53-1.14l1.34.1c.62,0,.62.51.41,1.24-.21.62-.51,1.34-.62,1.86-.1.62-.31.83-.72.31h-.1c-.31-.62-.72-1.34-.93-2.27-.31-.93-.21-1.24.62-1.24h0Zm64.93-24.32c0-1.31.98-2.29,2.29-2.29s2.29.98,2.29,2.29c0,.33,0,.49-.16.82v.16c-.33.82-1.15,1.31-1.96,1.31-.98,0-1.8-.49-2.13-1.31-.16-.33-.16-.49-.33-.98Zm20.78-24.7v4.58h2.13c.65,0,1.31.65,1.31,1.31s-.65,1.31-1.31,1.31h-2.13v10.96h2.13c.65,0,1.31.65,1.31,1.31s-.65,1.31-1.31,1.31h-2.13v4.91h-15.7c0-.33,0-.65.16-.98,0-.16-.16-.49-.16-.65h13.58v-22.25l-1.8-1.8h3.93,0Zm-4.9.16h.33l1.8,1.96v21.27l-2.13-1.96v-21.27Zm1.96,23.4h-12.93c-.33-.65-.98-1.15-1.64-1.47.33-.33.98-.49,1.8-.49h10.64l2.13,1.96Zm-27.81-23.56h7.69c2.13,0,3.93,1.31,4.42,3.27v.16h.65v-.16c.65-1.96,2.46-3.27,4.42-3.27h8.34v21.27h-10.47c-.98,0-1.96.33-2.29.82h-.65c-.33-.49-1.15-.82-2.29-.82h-9.82v-21.27Zm9.82,21.6c.82,0,1.47.16,1.8.49-.65.33-1.31.82-1.64,1.47h-12.27l2.13-1.96h9.98Zm-10.31-21.6v21.27l-2.13,1.96v-21.27l1.8-1.96h.33Zm-4.9,7.36v-.16h-1.96c-.44,0-.83-.19-1.1-.5-.13-.2-.21-.42-.21-.65,0-.65.65-1.31,1.31-1.31h2.13v-4.58h3.93l-1.8,1.8v22.25h12.93c-.16.16-.16.33-.16.65s0,.49.16.82h-15.05v-4.75h-.16v-.16h-1.96c-.44,0-.83-.19-1.1-.5-.13-.2-.21-.42-.21-.65,0-.65.65-1.31,1.31-1.31h2.13v-10.96h-.17Zm-10.47-7.36v4.58h2.13c.65,0,1.31.65,1.31,1.31s-.65,1.31-1.31,1.31h-2.13v10.96h2.13c.65,0,1.31.65,1.31,1.31s-.65,1.31-1.31,1.31h-2.13v4.9h-12.11c.16-.33.16-.65.16-.98,0-.16-.16-.49-.16-.65h9.98v-22.25l-1.8-1.8s3.93,0,3.93,0Zm2.43,7.33c-.1.02-.2.03-.31.03h0c.1,0,.2-.01.31-.03Zm-14.7,16.23c-.33-.65-.82-1.15-1.64-1.47.33-.33.98-.49,1.8-.49h7.03l2.13,1.96h-9.33Zm7.52-23.4h.33l1.8,1.96v21.27l-2.13-1.96v-21.27Zm-9.49,4.26c0-2.46,1.96-4.42,4.42-4.42h4.75v21.27h-6.87c-1,0-1.86.25-2.29.63v-17.48h0Zm1.8,20.29c0,.33,0,.49-.16.82v.16c-.33.82-1.15,1.31-1.96,1.31-.98,0-1.8-.49-2.13-1.31-.16-.33-.16-.65-.33-.98,0-1.31.98-2.29,2.29-2.29s2.29.98,2.29,2.29Zm-13.26-24.7h6.21c2.46,0,4.42,1.96,4.42,4.42v17.67c-.33-.49-1.15-.82-2.29-.82h-8.34v-21.27Zm8.34,21.6c.98,0,1.47.16,1.8.49-.65.33-1.31.82-1.64,1.47h-10.8l2.13-1.96h8.51Zm-8.83-21.6v21.27l-2.13,1.96v-21.27l1.8-1.96h.33Zm-6.71,7.36c-.65,0-1.31-.65-1.31-1.31s.65-1.31,1.31-1.31h2.13v-4.58h3.93l-1.8,1.8v22.25h11.45c-.16.16-.16.33-.16.65s0,.49.16.82h-13.58v-4.75h-2.13c-.65,0-1.31-.65-1.31-1.31s.65-1.31,1.31-1.31h2.13v-10.96h-2.13Zm-8.83-7.36v4.58h2.13c.65,0,1.31.65,1.31,1.31s-.65,1.31-1.31,1.31h-2.13v10.96h2.13c.65,0,1.31.65,1.31,1.31s-.65,1.31-1.31,1.31h-2.13v4.9h-13.44c.1-.28.19-.59.19-.82,0-.16-.16-.49-.16-.65h11.45v-22.25l-1.96-1.96s3.93,0,3.93,0Zm-4.42.16h.33l1.8,1.96v21.27l-2.13-1.96v-21.27Zm1.8,23.4h-10.8c-.33-.65-.98-1.15-1.64-1.47.33-.33.82-.49,1.8-.49h8.51l2.13,1.96Zm-13.26-19.14c0-.31.04-.61.09-.9.41-2.02,2.18-3.52,4.32-3.52h6.38v21.44h-8.34c-.98,0-1.96.33-2.29.82h-.16v-17.83h0Zm1.96,20.45c0,.28,0,.54-.1.82h-.06v.16c-.33.82-1.15,1.31-1.96,1.31-.2,0-.4-.03-.6-.09h-.02c-.59-.19-1.11-.61-1.35-1.22v-.16h-.39c-.1-.28-.1-.54-.1-.82,0-1.31.98-2.29,2.29-2.29s2.29.98,2.29,2.29Zm-12.93-24.87h6.05c2.46,0,4.42,1.96,4.42,4.42v17.67c-.39-.39-1.12-.65-2.13-.65h-8.34v-21.44Zm8.34,21.6c.82,0,1.47.16,1.8.49-.65.33-1.31.82-1.64,1.47h-10.8l2.13-1.96h8.51Zm-8.83-21.6v21.27l-2.13,1.96v-21.27l1.8-1.96h.33Zm-7.03,4.58h2.13v-4.58h4.26l-1.96,1.96v22.25h11.45c-.16.16-.16.33-.16.65,0,.23.08.54.19.82h-13.77v-4.91h-2.13c-.65,0-1.31-.65-1.31-1.31s.65-1.31,1.31-1.31h2.13v-10.96h-2.13c-.65,0-1.31-.65-1.31-1.31s.65-1.31,1.31-1.31h0Zm-1.63,1.06c.02.54.31,1.03.71,1.35-.43-.25-.72-.72-.72-1.27,0-.03,0-.05,0-.08Zm.36,31.31c2.44,1.64,4.11,4.79,4.11,7.74,0,1.24-.31,2.48-.93,3.51,1.03-.51,2.27-.93,3.61-.93,4.24,0,7.64,3.41,7.64,7.64,0,1.44-.31,2.78-1.03,3.92,1.14-.72,2.48-1.14,3.92-1.14,4.24,0,7.64,3.41,7.64,7.64,0,1.34-.31,2.58-.93,3.71,1.14-.72,2.58-1.14,4.03-1.14,4.24,0,7.64,3.41,7.64,7.64,0,1.24-.31,2.37-.83,3.41,1.03-.51,2.17-.83,3.41-.83,4.24,0,7.64,3.41,7.64,7.64s-3.41,7.64-7.64,7.64c-1.24,0-2.27-.21-3.3-.72.51,1.03.83,2.27.83,3.51,0,4.24-3.41,7.64-7.64,7.64-1.34,0-2.48-.31-3.61-.93.62,1.14,1.03,2.48,1.03,3.82,0,4.24-3.41,7.64-7.64,7.64-.15,0-.36-.02-.57-.05-15.27-22.66-23.41-48.94-23.59-77.36h6.21Zm38.48,78.14c.62,1.24,1.86,2.89,2.78,3.82.72.62.62,1.03.31,1.55-.21.51-1.03,1.34-1.34,1.55-.21.21-1.34.93-2.06-.51-.72-1.44-1.24-4.03-1.34-5.16-.1-1.14-.83-.93-.93,0v1.76c0,1.14.31,2.69.93,4.13s.1,1.55-.31,1.76c-.31.21-.72.31-1.55.31-.72,0-1.14-.1-1.55-.31s-.93-.31-.31-1.76c.62-1.44.93-2.99.93-4.13v-1.76c-.1-.93-.83-1.03-.93,0s-.62,3.71-1.34,5.16c-.72,1.34-1.76.72-2.06.51-.21-.21-1.03-1.03-1.34-1.55-.21-.41-.41-.93.31-1.55.93-.93,2.17-2.58,2.78-3.82.62-1.14.1-1.76-.72-.51-.93,1.14-1.96,2.37-2.89,3.1-.41.41-.72.51-1.14,0-.41-.62-1.14-1.86-.93-3.1.21-1.34.72-1.24,1.24-1.24s1.96,0,2.99-.93c1.44-1.24,2.69-2.99,3.3-6.4.31-1.76,1.14-2.27,1.96-2.27s1.65.41,1.44,2.27c.62,3.51,1.34,4.75,2.78,6.09,1.03.93,2.48.83,3.3.93.51,0,1.14.31,1.34,1.55.21,1.34-.51,2.58-.93,3.1-.41.51-.62.41-1.14,0-1.03-.72-2.06-1.86-2.89-3.1s-1.34-.72-.72.51h0Zm-8.98-8.67h1.44c.93,0,1.03.21.72,1.14s-.62,1.65-1.03,2.27h-.1c-.41.51-.62.21-.72-.31-.1-.51-.51-1.14-.72-1.86-.21-.62-.21-1.24.41-1.24h0Zm9.71,0h1.34c.62,0,.62.51.41,1.24-.21.62-.51,1.34-.62,1.86-.1.62-.31.83-.72.31h-.1c-.31-.62-.72-1.34-.93-2.27-.31-.83-.21-1.14.62-1.14h0Zm24.47,52.33c-10.78-6.9-20.38-14.66-28.77-23.13-.33-1-.54-2.05-.54-2.98,0-4.24,3.41-7.74,7.74-7.74,2.06,0,3.92.72,5.37,2.06-1.14-1.34-1.76-2.99-1.76-4.85,0-4.24,3.41-7.64,7.64-7.64,1.86,0,3.51.62,4.85,1.76-.83-1.24-1.34-2.78-1.34-4.33,0-3.92,2.99-7.53,6.81-7.53,6.71,0,8.25,3.71,8.25,7.64,0,1.65-.51,3.1-1.34,4.33,1.34-1.14,2.99-1.76,4.85-1.76,4.24,0,7.64,3.41,7.64,7.64,0,1.86-.62,3.51-1.76,4.85,1.44-1.34,2.78-1.44,4.85-1.44,4.24,0,7.74,3.41,7.74,7.74,0,.27-.04.54-.09.8-8.72,9.05-18.79,17.3-30.16,24.59h0Zm23.22-46.97c1.44-1.24,2.69-2.99,3.3-6.4.31-1.65,1.14-2.17,1.96-2.17.93,0,1.65.51,1.44,2.17.62,3.51,1.34,4.75,2.78,6.09,1.03.93,2.48.83,3.3.93.51,0,1.14.31,1.34,1.55.21,1.24-.51,2.58-.93,3.1-.42.51-.62.41-1.14,0-1.03-.72-2.06-1.86-2.89-3.1s-1.34-.72-.72.51c.62,1.14,1.86,2.89,2.78,3.82.72.62.62,1.03.31,1.55-.21.51-1.03,1.34-1.34,1.55-.21.21-1.34.93-2.06-.51s-1.24-4.03-1.34-5.16c-.1-1.14-.83-.93-.93,0v1.76c0,1.14.41,2.69.93,4.13.62,1.44.1,1.55-.31,1.76-.31.21-.72.31-1.55.31-.72,0-1.14-.1-1.55-.31s-.93-.31-.31-1.76c.51-1.44.93-2.89.93-4.13v-1.76c-.1-.93-.83-1.03-.93,0,0,1.14-.62,3.71-1.34,5.16-.72,1.34-1.76.72-2.06.51-.21-.21-1.03-1.03-1.34-1.55-.21-.41-.41-.93.31-1.55.93-.93,2.17-2.58,2.78-3.82.62-1.14.1-1.76-.72-.51-.93,1.14-1.96,2.37-2.89,3.1-.41.41-.72.51-1.14,0-.41-.62-1.14-1.86-.93-3.1.21-1.34.72-1.24,1.24-1.24.51.1,1.96,0,2.99-.93h0Zm-.41-5.78h1.44c.93,0,.93.21.72,1.14-.31.93-.62,1.65-1.03,2.27h-.1c-.41.51-.62.21-.72-.31s-.51-1.14-.72-1.86c-.21-.62-.21-1.24.41-1.24h0Zm9.71,0h1.34c.62,0,.62.51.41,1.24-.21.62-.51,1.34-.62,1.86-.1.62-.31.83-.72.31h-.1c-.31-.62-.72-1.34-.93-2.27-.31-.83-.21-1.14.62-1.14h0Zm14.24,7.53c-4.19-.04-8.15-2.82-8.15-7.01,0-1.34-.31-2.48.62-3.71-1.14.62-2.06.51-3.41.51-4.24,0-7.64-3.41-7.64-7.64,0-1.24.1-2.06.62-3.1-1.03.41-2.17.72-3.3.72-4.24,0-7.64-3.41-7.64-7.64s3.41-8.05,7.64-8.05c1.24,0,2.27,0,3.3.51-.62-1.03-.72-1.44-.72-2.69,0-4.24,3.41-8.46,7.64-8.46,1.55,0,2.69.31,3.82,1.03-.62-1.03-.72-1.34-.72-2.69,0-4.64,2.78-8.46,7.64-8.46,1.44,0,2.78.41,3.92,1.14-.62-1.14-1.03-2.48-1.03-3.92,0-4.24,3.41-7.64,7.64-7.64,1.03,0,2.17.31,3.1.72-.21-.83-.41-2.27-.41-3.1,0-2.87,1.38-5.63,3.71-7.12h6.51c-.23,28.1-8.21,54.1-23.13,76.58h0Z"></path><path class="cls-1" d="m351.51,126.14h12.59l3.92,13.83c1.44,4.96,2.27,8.36,2.27,8.36h.1s.72-3.41,2.27-8.36l4.44-13.73h11.66l-12.39,34.16h-12.9l-11.98-34.27Z"></path><path class="cls-1" d="m405.9,146.69h-1.55c-4.33,0-5.78,1.34-5.78,3.51,0,1.65,1.14,2.89,3.2,2.89s4.13-1.03,4.13-4.24v-2.17Zm11.56,2.48c0,1.65.41,2.48,1.65,2.48.72,0,1.44-.31,2.17-.62v8.46c-1.65,1.14-3.2,1.65-5.88,1.65-4.54,0-7.12-2.06-8.46-5.37-1.96,3.51-4.96,5.57-9.8,5.57-6.3,0-10.22-3.71-10.22-9.5,0-7.33,5.26-11.05,15.59-11.05h3.51v-2.27c0-2.27-.72-3.82-2.89-3.82s-2.99,1.24-3.2,4.03l-11.35-1.76c.62-7.02,6.09-11.45,14.97-11.45,9.8,0,14.04,4.33,14.04,11.77v11.87h-.12Z"></path><path class="cls-1" d="m446.57,139.67c-1.44-.51-2.17-.93-4.13-.93-2.78,0-6.19,1.14-6.19,7.23v14.45h-11.87v-34.27h10.22l1.14,8.46c.93-5.68,5.78-8.46,11.66-8.46l-.83,13.52h0Z"></path><path class="cls-1" d="m472.58,140.8c0-4.33-2.17-6.71-5.57-6.71s-6.4,2.58-6.4,9.39c0,5.57,2.37,8.57,6.3,8.57,2.99,0,5.78-2.27,5.78-6.91v-4.33h-.1Zm-.1-26.12h11.98v45.72h-10.84l-1.14-5.88c-1.24,4.54-5.37,6.81-10.53,6.81-7.95,0-13.73-6.19-13.73-17.34s5.47-18.58,15.07-18.58c4.33,0,7.84,1.96,8.98,5.26v-16h.21,0Z"></path><path class="cls-1" d="m260.37,242.27h4.64c4.24,0,6.09-1.65,6.09-4.85s-1.86-4.85-6.09-4.85h-4.64v9.71h0Zm12.39,23.84c-1.44-1.14-1.96-2.78-2.48-4.85l-1.34-5.37c-.72-3.1-1.96-3.71-4.85-3.71h-3.82v13.93h-11.98v-43.56h18.68c9.8,0,16.52,3.82,16.52,13.73,0,6.91-4.44,10.32-9.29,11.15,4.03.83,5.98,2.58,7.02,6.4l2.06,7.43c.51,1.96,1.14,3.41,2.69,4.96h-13.21v-.1h0Z"></path><path class="cls-1" d="m316.82,231.84h12.59l3.92,13.73c1.44,4.96,2.27,8.36,2.27,8.36h.1s.72-3.41,2.27-8.36l4.44-13.73h11.66l-12.39,34.16h-12.9l-11.98-34.16h0Z"></path><path class="cls-1" d="m368.54,266.11h-11.87v-34.27h11.87v34.27Zm-5.98-49.03c3.51,0,6.61,2.48,6.61,6.3s-2.99,6.3-6.61,6.3-6.61-2.48-6.61-6.3,3.1-6.3,6.61-6.3"></path><path class="cls-1" d="m393.51,245.26c0-2.99-1.03-5.57-4.33-5.57-2.89,0-4.75,2.37-5.06,5.57h9.39Zm1.14,8.46l9.91,3.1c-1.96,7.33-7.95,10.12-14.76,10.12-10.12,0-17.55-6.4-17.55-17.65s6.51-18.27,17.24-18.27c10.12,0,15.27,6.51,15.27,16,0,1.24,0,2.78-.1,4.33h-20.85c.21,4.24,2.27,6.51,5.88,6.51,2.48,0,4.13-1.14,4.96-4.13"></path><path class="cls-1" d="m436.77,231.84l2.48,11.87c1.24,6.09,1.96,10.73,1.96,10.73h.1s.72-4.54,2.17-10.53l2.78-12.08h11.56l-9.29,34.16h-13.42l-2.06-10.01c-1.03-5.06-1.86-10.94-1.86-10.94h-.1s-.83,5.88-1.86,10.94l-2.06,10.01h-13.32l-9.29-34.16h12.08l2.78,12.08c1.44,6.09,2.17,10.53,2.17,10.53h.1s.62-4.54,1.96-10.73l2.48-11.87h10.64Z"></path><path class="cls-1" d="m350.06,139.67c-1.44-.51-2.27-.93-4.13-.93-2.78,0-6.19,1.14-6.19,7.23v14.45h-11.98v-34.27h10.22l1.14,8.46c.93-5.68,5.78-8.46,11.66-8.46l-.72,13.52h0Z"></path><polygon class="cls-1" points="248.29 160.31 248.29 116.75 260.47 116.75 260.47 132.96 275.33 132.96 275.33 116.75 287.51 116.75 287.51 160.31 275.33 160.31 275.33 143.48 260.47 143.48 260.47 160.31 248.29 160.31"></polygon><path class="cls-1" d="m309.5,146.69h-1.55c-4.33,0-5.78,1.34-5.78,3.51,0,1.65,1.14,2.89,3.2,2.89s4.13-1.03,4.13-4.24v-2.17Zm11.45,2.48c0,1.65.41,2.48,1.65,2.48.72,0,1.44-.31,2.17-.62v8.46c-1.65,1.14-3.2,1.65-5.88,1.65-4.54,0-7.12-2.06-8.46-5.37-1.96,3.51-4.96,5.57-9.8,5.57-6.3,0-10.22-3.71-10.22-9.5,0-7.33,5.26-11.05,15.59-11.05h3.51v-2.27c0-2.27-.72-3.82-2.89-3.82s-2.99,1.24-3.2,4.03l-11.35-1.76c.62-7.02,6.09-11.45,14.97-11.45,9.8,0,14.04,4.33,14.04,11.77v11.87h-.12Z"></path><path class="cls-1" d="m306.4,245.26c0-2.99-1.03-5.57-4.33-5.57-2.89,0-4.75,2.37-5.06,5.57h9.39Zm1.24,8.46l9.91,3.1c-1.96,7.33-7.95,10.12-14.76,10.12-10.12,0-17.55-6.4-17.55-17.65s6.51-18.27,17.24-18.27c10.12,0,15.27,6.51,15.27,16,0,1.24,0,2.78-.1,4.33h-20.85c.21,4.24,2.27,6.51,5.88,6.51,2.37,0,4.13-1.14,4.96-4.13"></path><path class="cls-1" d="m260.26,203.25h6.3c2.99,0,4.75-1.34,4.75-3.82s-1.65-3.82-4.75-3.82h-6.3v7.64h0Zm0-15.48h4.64c3.1,0,5.06-1.14,5.06-4.13s-1.96-4.13-5.06-4.13h-4.64v8.25h0Zm23.43,13.73c0,7.02-4.85,11.77-15.48,11.77h-19.93v-43.66h19.4c9.29,0,14.25,4.24,14.25,11.35,0,5.06-2.99,8.67-7.64,9.8,6.09,1.34,9.39,5.47,9.39,10.73"></path><path class="cls-1" d="m307.33,206.86c-.93,4.54-4.44,7.23-10.32,7.23-6.19,0-10.53-3.82-10.53-11.87v-23.22h11.98v20.65c0,3.41.93,5.47,3.71,5.47,3.1,0,5.06-2.78,5.06-8.36v-17.75h11.98v34.16h-10.73l-1.14-6.3h0Z"></path><path class="cls-1" d="m331.38,201.5c.62,2.78,2.78,4.33,5.37,4.33,2.17,0,3.61-.72,3.61-2.17s-1.24-2.17-3.71-2.69l-4.54-.93c-6.19-1.34-9.5-4.54-9.5-10.12,0-8.25,7.12-11.56,14.76-11.56,8.25,0,13.21,3.41,14.35,9.8l-10.84,1.65c-.41-1.96-1.55-2.99-3.82-2.99-1.65,0-2.89.83-2.89,2.17s.93,1.96,2.78,2.27l4.54.83c7.53,1.24,10.73,5.37,10.73,11.15,0,8.05-7.02,11.15-15.48,11.15-7.74,0-12.9-2.78-14.86-8.88l9.5-4.03h0Z"></path><path class="cls-1" d="m367.51,213.16h-11.87v-34.16h11.87v34.16Zm-5.98-48.92c3.51,0,6.61,2.48,6.61,6.3s-2.99,6.3-6.61,6.3-6.61-2.48-6.61-6.3,3.1-6.3,6.61-6.3"></path><path class="cls-1" d="m384.54,185.6c1.76-5.06,5.78-7.43,10.84-7.43s10.01,3.1,10.01,10.94v24.05h-11.87v-19.4c0-3.51-1.03-5.57-4.03-5.57-2.58,0-4.85,1.55-4.85,6.81v18.27h-11.87v-34.27h10.73l1.03,6.61h0Z"></path><path class="cls-1" d="m429.85,192.41c0-2.99-1.03-5.57-4.33-5.57-2.89,0-4.75,2.37-5.06,5.57h9.39Zm1.24,8.46l9.91,3.1c-1.96,7.33-7.95,10.12-14.76,10.12-10.12,0-17.55-6.4-17.55-17.65s6.51-18.27,17.24-18.27c10.12,0,15.27,6.51,15.27,16,0,1.24,0,2.78-.1,4.33h-20.85c.21,4.24,2.27,6.51,5.88,6.51,2.37,0,4.13-1.14,4.96-4.13"></path><path class="cls-1" d="m452.14,201.5c.62,2.78,2.78,4.33,5.37,4.33,2.17,0,3.61-.72,3.61-2.17s-1.24-2.17-3.71-2.69l-4.54-.93c-6.19-1.34-9.5-4.54-9.5-10.12,0-8.25,7.12-11.56,14.76-11.56,8.25,0,13.21,3.41,14.35,9.8l-10.84,1.65c-.41-1.96-1.55-2.99-3.82-2.99-1.65,0-2.89.83-2.89,2.17s.93,1.96,2.78,2.27l4.54.83c7.53,1.24,10.73,5.37,10.73,11.15,0,8.05-7.02,11.15-15.48,11.15-7.74,0-12.9-2.78-14.86-8.88l9.5-4.03h0Z"></path><path class="cls-1" d="m483.84,201.5c.62,2.78,2.78,4.33,5.37,4.33,2.17,0,3.61-.72,3.61-2.17s-1.24-2.17-3.71-2.69l-4.54-.93c-6.19-1.34-9.5-4.54-9.5-10.12,0-8.25,7.12-11.56,14.76-11.56,8.25,0,13.21,3.41,14.35,9.8l-10.84,1.65c-.41-1.96-1.55-2.99-3.82-2.99-1.65,0-2.89.83-2.89,2.17s.93,1.96,2.78,2.27l4.54.83c7.53,1.24,10.73,5.37,10.73,11.15,0,8.05-7.02,11.15-15.48,11.15-7.74,0-12.9-2.78-14.86-8.88l9.5-4.03h0Z"></path></svg> 