<?xml version="1.0" encoding="UTF-8"?> <svg xmlns="http://www.w3.org/2000/svg" id="Layer_1" width="600" height="400" viewBox="0 0 600 400"><defs><style>.cls-1{fill:#fff;}</style></defs><path class="cls-1" d="m118.94,168.47c0-19.36-8.32-28-26.97-28h-20.79v56.42h20.79c18.9,0,26.97-8.5,26.97-28.43Zm-26.2,17.45h-7.59v-34.47h6.82c5.6,0,12.56,0,12.56,17.11,0,16.02-5.83,17.36-11.79,17.36Z"></path><rect class="cls-1" x="124.35" y="156.77" width="13.12" height="40.13"></rect><rect class="cls-1" x="124.35" y="140.47" width="13.12" height="13.3"></rect><path class="cls-1" d="m156.95,174.69h.06l16.12,22.21h17.21l-17.03-22.82c7.98-2.05,12.36-7.88,12.36-16.5,0-11.19-6.83-17.11-19.76-17.11h-22.94v56.42h13.97v-22.21Zm9.48-10.97h-9.48v-12.26h9.39c4.29,0,5.19,3.33,5.19,6.13,0,3.72-2,6.13-5.1,6.13Z"></path><polygon class="cls-1" points="233.57 185.92 206.79 185.92 206.79 173.23 229 173.23 229 162.25 206.79 162.25 206.79 151.45 232.8 151.45 232.8 140.47 192.81 140.47 192.81 196.89 233.57 196.89 233.57 185.92"></polygon><path class="cls-1" d="m262.39,198.61c6.95,0,11.54-1.11,16.28-2.77l.45-.16-4.27-11.8-.45.18c-.81.32-1.57.65-2.31.97-3.28,1.4-6.11,2.6-9.95,2.6-9.04,0-12.56-5.33-12.56-18.99,0-12.89,3.91-18.39,13.08-18.39,3.84,0,7.3,1.49,10.65,2.93l.94.4,4.28-11.81-.46-.15c-4.22-1.38-10.55-2.34-15.41-2.34-12.54,0-27.48,5.11-27.48,29.45,0,19.83,9.16,29.88,27.22,29.88Z"></path><polygon class="cls-1" points="296.97 196.89 311.03 196.89 311.03 151.53 325.7 151.53 325.7 140.47 282.31 140.47 282.31 151.53 296.97 151.53 296.97 196.89"></polygon><path class="cls-1" d="m512.9,212.32h10.66c1.59,0,2.3-.81,2.3-2.46s-.44-2.74-.9-3.58h-12.06v-3.48h15.54v2.05s-1.24.56-1.24.56c1.09,1.59,1.62,3.36,1.62,5.04,0,3.95-1.96,5.35-4.94,5.35h-10.97v-3.48Z"></path><path class="cls-1" d="m528.82,223.23c0,5.47-3.61,6.34-7.9,6.34-.53,0-1.03-.03-1.52-.06v-9.67c-2.33.06-3.85.9-3.85,4.07,0,1.96.34,3.57.93,4.94h-2.98c-.75-1.77-.96-3.79-.96-5.47,0-5.19,3.11-7.06,8.14-7.06s8.14,1.83,8.14,6.9Zm-6.99-3.39v6.22c2.11,0,3.98-.12,3.98-2.83,0-2.55-1.65-3.26-3.98-3.39Z"></path><path class="cls-1" d="m512.62,235.86v-2.95s15.82-4.07,15.82-4.07v3.54s-10.69,2.11-10.69,2.11l10.69,3.02v3.17s-10.69,3.02-10.69,3.02l10.69,2.11v3.54s-15.82-4.07-15.82-4.07v-2.95s11.72-3.23,11.72-3.23l-11.72-3.23Z"></path><path class="cls-1" d="m522.23,254.85c-.4,4.66-1.8,5.88-4.69,5.88-2.67,0-5.01-1.65-5.01-6.62,0-2.15.4-4.07.84-5.13h2.98c-.37,1.03-.87,2.67-.87,4.63,0,2.49.56,3.7,1.93,3.7,1.15,0,1.74-.5,1.93-2.58.4-4.69,1.87-5.84,4.54-5.84s4.94,1.74,4.94,6.31c0,2.11-.25,3.61-.78,4.82h-3.02c.5-1.34.87-2.8.87-4.76,0-1.83-.53-2.98-1.93-2.98-1.09,0-1.55.56-1.74,2.58Z"></path><polygon class="cls-1" points="101.24 239.68 91.03 202.59 71.18 202.59 71.18 259.01 82.96 259.01 82.96 219.85 94.41 259.01 107.23 259.01 118.75 219.83 118.75 259.01 130.91 259.01 130.91 202.59 111.81 202.59 101.24 239.68"></polygon><path class="cls-1" d="m156.08,202.59l-22.93,56.42h15.02l4.63-13.98h17.67l4.46,13.98h15.43l-21.28-56.42h-12.99Zm10.74,31.64h-10.11l5.24-15.58,4.87,15.58Z"></path><path class="cls-1" d="m235.51,219.7c0-11.19-6.83-17.11-19.76-17.11h-22.94v56.42h13.97v-22.21h.06l16.12,22.21h17.21l-17.03-22.82c7.98-2.05,12.36-7.88,12.36-16.5Zm-14.15,0c0,3.72-2,6.13-5.1,6.13h-9.48v-12.26h9.39c4.29,0,5.19,3.33,5.19,6.13Z"></path><polygon class="cls-1" points="294.15 258.67 268.74 229.03 290.21 202.59 274.25 202.59 256.42 224.22 256.42 202.59 242.44 202.59 242.44 259.01 256.42 259.01 256.42 235.31 276.25 258.84 276.39 259.01 294.15 259.01 294.44 259.01 294.15 258.67"></polygon><polygon class="cls-1" points="341.09 213.65 355.75 213.65 355.75 259.01 369.81 259.01 369.81 213.65 384.47 213.65 384.47 202.59 341.09 202.59 341.09 213.65"></polygon><rect class="cls-1" x="390.32" y="218.88" width="13.12" height="40.13"></rect><polygon class="cls-1" points="443.73 240.71 428.58 202.59 408.83 202.59 408.83 259.01 421.91 259.01 421.91 220.87 437.22 259.01 457.13 259.01 457.13 202.59 443.73 202.59 443.73 240.71"></polygon><path class="cls-1" d="m482.56,227.29v10.97h12.26v10.15c-2.18,1.27-3.62,1.34-7.25,1.34-9.47,0-12.99-5.15-12.99-18.99,0-16.17,6.53-18.39,13.59-18.39,3.28,0,6.34,1.36,9.3,2.67l1.52.67,4.29-11.85-.5-.13c-4.33-1.13-10.95-2.33-14.7-2.33-18,0-27.91,10.43-27.91,29.37,0,19.89,9.13,29.97,27.14,29.97,9.6,0,14.36-1.8,19.8-5.13l.23-.14v-28.17h-24.78Z"></path><polygon class="cls-1" points="337.02 248.29 310.24 248.29 310.24 235.6 332.45 235.6 332.45 224.63 310.24 224.63 310.24 213.82 336.25 213.82 336.25 202.85 296.26 202.85 296.26 259.27 337.02 259.27 337.02 248.29"></polygon><rect class="cls-1" x="390.32" y="202.59" width="13.12" height="13.3"></rect></svg> 