<?xml version="1.0" encoding="UTF-8"?> <svg xmlns="http://www.w3.org/2000/svg" id="Layer_1" width="600" height="400" viewBox="0 0 600 400"><defs><style>.cls-1{fill:#fff;}</style></defs><path class="cls-1" d="m84.28,184.97c1.98-.99,4.92-1.42,7.42-1.42h5.39v44.77c0,2.2-.56,4.92-2.29,6.38h25.15v-71.26h-35.67v21.52Zm100.55-15.14v58.49c0,2.2-.47,4.57-2.2,6.38h44.26v-22.21c-3.06,1.42-6.86,2.11-10.53,2.11h-9.58v-7.33h5.05c2.76,0,5.18.26,7.76,1.38v-19.2c-2.59,1.12-5.05,1.38-7.76,1.38h-5.05v-8.24h9.58c3.67,0,7.42.69,10.53,2.11v-21.27h-44.34c1.73,1.47,2.29,4.18,2.29,6.38Zm92.31,32.91l-7.29-20.1h10.96l7.29-19.2h-51.16c1.6,1.6,3.11,3.41,4.18,5.52l28.3,65.74h15.44l23.29-54.83v48.44c0,2.29-.56,4.92-2.29,6.38h44.34v-22.21c-3.02,1.42-6.86,3.02-10.53,3.02h-9.58v-8.24h5.05c2.76,0,5.18.26,7.76,1.38v-19.2c-2.59,1.12-5.05,1.38-7.76,1.38h-5.05v-7.29h9.58c3.67,0,7.46.69,10.53,2.11v-22.21h-58.49l-14.62,39.3h.04Zm-118.79-11.86h-11.86v-7.29h.91c2.5,0,5.39.39,7.29,1.42v-21.57h-31.06v71.3h25.1c-1.73-1.47-2.29-4.18-2.29-6.38v-20.1h11.86v20.1c0,2.2-.56,4.92-2.29,6.38h25.15v-71.3h-22.86v27.43h.04Zm240.83,11.69c3.8-4.18,6.13-9.71,6.13-15.31-.04-16.43-12.29-23.81-25.41-23.81h-28.3c1.68,1.47,2.29,4.14,2.29,6.34v58.53c0,2.2-.6,4.62-2.29,6.38h27.22c-1.73-1.81-2.11-4.31-2.11-6.38v-14.49c7.81,1.47,13.03,8.76,13.03,14.54,0,2.2-.52,4.57-2.2,6.38h27.18c-1.73-1.81-2.16-4.4-2.29-6.6-.91-12.6-5.26-21.44-13.24-25.58Zm-22.39-7.03v-12.98c3.67,0,8.33.99,8.33,6.47s-4.66,6.47-8.33,6.47v.04Zm128.41-12.9c3.67,0,7.42.69,10.53,2.11v-21.31h-44.34c1.73,1.47,2.29,4.18,2.29,6.38v58.49c0,2.2-.47,4.57-2.2,6.38h44.26v-22.21c-3.06,1.42-6.86,2.11-10.53,2.11h-9.58v-7.33h5.05c2.76,0,5.18.26,7.76,1.38v-19.2c-2.59,1.12-5.05,1.38-7.76,1.38h-5.05v-8.24h9.58v.04Zm-35.2,37.23v-29.03h-27.35c-1.38,0-3.02-.13-4.62-.65v17.73c1.6-.52,3.24-.65,4.62-.65h7.25v5.48c-.91.82-2.85,1.25-4.87,1.25-8.33,0-14.41-6.56-14.41-14.49s5.95-15.1,14.28-15.1c5.05,0,10.7,1.64,16.91,4.57v-25.54h-18.29c-19.71,0-35.46,15.27-35.46,35.93s15.83,37.18,36.36,37.18c11.3,0,21.87-4.62,27.35-10.22-1.12-2.03-1.81-4.01-1.81-6.43l.04-.04Z"></path></svg> 