<?xml version="1.0" encoding="UTF-8"?> <svg xmlns="http://www.w3.org/2000/svg" id="Layer_1" width="600" height="400" viewBox="0 0 600 400"><defs><style>.cls-1{fill:#fff;}</style></defs><path class="cls-1" d="m502.53,228.95v-5.85l1.52-1.54h5.77l1.52,1.54v5.85l-1.52,1.54h-5.77l-1.52-1.54Zm6.82.69l.99-.99v-5.3l-.99-.98h-4.83l-.98.98v5.3l.98.99h4.83Zm-4.81-1.81h.47v-3.67h-.47v-.81h3.6l.81.83v1.36l-.59.58.59.58v1.12h.49v.8h-1l-.45-.45v-1.27l-.38-.36h-1.61v1.28h.56v.8h-2.01v-.8Zm3.06-2.1l.38-.38v-.85l-.34-.34h-1.65v1.56h1.61Z"></path><polygon class="cls-1" points="87.5 220.14 87.5 212.63 110.83 212.63 110.83 215.37 112.51 217.05 151.83 217.05 153.16 215.72 153.16 207.86 152.27 206.97 97.75 206.97 87.86 197.08 87.86 180.72 99.07 169.51 165.79 169.51 176.13 179.84 176.13 187.36 152.8 187.36 152.8 184.44 151.12 182.76 112.51 182.76 111.18 184.08 111.18 191.68 112.07 192.56 166.59 192.56 176.49 202.47 176.49 219.25 165.26 230.48 97.84 230.48 87.5 220.14"></polygon><polygon class="cls-1" points="234.87 217.22 246.61 217.22 231.24 207.15 215.83 217.22 227.09 217.22 227.09 230.48 180.63 230.48 180.63 217.22 188.32 217.22 216.51 200.26 190.45 182.76 181.51 182.76 181.51 169.51 227.06 169.51 227.06 182.76 215.88 182.76 231.22 192.04 246.59 182.76 235.36 182.76 235.36 169.51 280.93 169.51 280.93 182.76 271.87 182.76 243.55 199.56 274.12 217.22 281.81 217.22 281.81 230.48 234.87 230.48 234.87 217.22"></polygon><polygon class="cls-1" points="285.96 220.14 285.96 212.63 309.29 212.63 309.29 215.37 310.97 217.05 350.29 217.05 351.62 215.72 351.62 207.86 350.73 206.97 296.21 206.97 286.31 197.08 286.31 180.72 297.54 169.51 364.26 169.51 374.59 179.84 374.59 187.36 351.27 187.36 351.27 184.44 349.58 182.76 310.97 182.76 309.64 184.08 309.64 191.68 310.53 192.56 365.05 192.56 374.95 202.47 374.95 219.25 363.73 230.48 296.3 230.48 285.96 220.14"></polygon><polygon class="cls-1" points="384.28 182.76 377.47 182.76 377.47 169.51 418.12 169.51 418.12 182.76 406.72 182.76 416.18 214.75 432 169.51 461.16 169.51 476.89 214.75 486.34 182.76 474.95 182.76 474.95 169.51 512.5 169.51 512.5 182.76 505.7 182.76 491.12 230.48 459.92 230.48 445.34 185.41 430.76 230.48 398.86 230.48 384.28 182.76"></polygon></svg> 