<?xml version="1.0" encoding="UTF-8"?> <svg xmlns="http://www.w3.org/2000/svg" id="Layer_2" width="1.39in" height=".35in" viewBox="0 0 100 25.44"><defs><style>.cls-1{fill:#fff;}</style></defs><path class="cls-1" d="m61.36,2.99s3.83-2.99,10.84-2.99,10.7,3.01,18.9,3.01c5.54,0,8.9-1.94,8.9-1.94,0,0-3.1,2.93-10.7,2.93-8.41,0-10.46-3.01-18.9-3.01-5.07,0-9.04,2-9.04,2Z"></path><path class="cls-1" d="m4.59,6.79H0v-1.62h11.12v1.62h-4.59v13.58h-1.95V6.79Z"></path><path class="cls-1" d="m22.94,5.95h1.9v12.28c0,.31.05.53.16.65.11.12.23.19.37.19h.17c.05,0,.14-.02.24-.05l.25,1.44c-.12.06-.27.11-.44.14-.17.03-.39.05-.65.05-.73,0-1.24-.22-1.55-.65-.31-.43-.46-1.07-.46-1.9V5.95Z"></path><path class="cls-1" d="m28.07,14.76c0-.93.14-1.76.43-2.49.29-.73.66-1.36,1.14-1.87.47-.51,1.01-.9,1.61-1.17.6-.27,1.23-.41,1.88-.41.71,0,1.35.12,1.91.37.56.25,1.03.6,1.41,1.07.38.46.67,1.02.87,1.67.2.65.3,1.38.3,2.18,0,.42-.02.76-.07,1.04h-7.6c.08,1.22.45,2.19,1.12,2.9.67.71,1.55,1.07,2.63,1.07.54,0,1.04-.08,1.49-.24.46-.16.89-.37,1.31-.64l.67,1.25c-.49.31-1.04.58-1.65.81-.6.23-1.29.35-2.06.35s-1.46-.14-2.12-.41c-.66-.27-1.23-.66-1.71-1.16-.49-.5-.87-1.12-1.15-1.84-.28-.73-.42-1.55-.42-2.48Zm7.88-.86c0-1.16-.24-2.04-.73-2.65-.49-.61-1.17-.92-2.05-.92-.4,0-.78.08-1.15.24-.36.16-.69.39-.98.7-.29.3-.54.67-.73,1.11-.19.44-.32.95-.38,1.52h6.02Z"></path><path class="cls-1" d="m40.4,9.1h1.58l.16,1.62h.07c.54-.54,1.11-.99,1.7-1.36.59-.36,1.29-.54,2.07-.54,1.19,0,2.06.37,2.61,1.11.55.74.82,1.84.82,3.29v7.14h-1.9v-6.88c0-1.07-.17-1.83-.51-2.31-.34-.47-.88-.71-1.62-.71-.59,0-1.1.15-1.55.44-.45.29-.96.73-1.53,1.3v8.16h-1.9v-11.26Z"></path><path class="cls-1" d="m53.24,10.66h-1.67v-1.44l1.76-.12.23-3.15h1.6v3.15h3.04v1.55h-3.04v6.26c0,.7.13,1.23.38,1.61.25.38.71.57,1.36.57.2,0,.42-.03.65-.09.23-.06.44-.13.63-.21l.37,1.44c-.31.11-.65.2-1.01.29-.36.08-.72.13-1.08.13-.6,0-1.11-.09-1.52-.28-.41-.19-.74-.44-1-.76-.25-.32-.44-.72-.54-1.18-.11-.46-.16-.97-.16-1.53v-6.23Z"></path><path class="cls-1" d="m62.25,17.61c.56.63,1.22,1.14,1.99,1.51.77.37,1.6.56,2.48.56,1.17,0,2.1-.28,2.78-.85.68-.56,1.02-1.3,1.02-2.21,0-.48-.07-.79-.22-1.12-.15-.32-.34-.61-.59-.85-.25-.24-.54-.45-.87-.63-.33-.18-.68-.35-1.05-.52l-2.32-1.04c-.34-.14-.69-.31-1.05-.51-.36-.2-.7-.45-1-.75-.3-.3-.55-.66-.75-1.07-.2-.41-.3-.9-.3-1.47s.11-1.06.34-1.52c.22-.46.53-.85.93-1.18.39-.33.86-.59,1.41-.78.55-.19,1.14-.28,1.77-.28,3.05,0,4.18,2.48,4.18,2.48,0,0-1.47-1.5-4.18-1.5-1.02,0-1.84.25-2.46.74-.62.49-.93,1.16-.93,1.99,0,.45.08.83.25,1.14.17.31.39.58.65.8.26.22.55.42.86.58.31.16.6.31.88.43l2.32,1.02c.43.19.84.39,1.23.63.39.23.73.5,1.02.81.29.31.53.68.71,1.1.18.43.27.84.27,1.43s-.12,1.13-.35,1.63c-.23.5-.56.93-.98,1.3-.43.36-.94.65-1.54.86-.6.21-1.27.31-2.02.31-1.11,0-2.1-.21-2.97-.64-.87-.42-1.6-.98-2.2-1.66l.7-.74Z"></path><path class="cls-1" d="m73.78,5.51h1.02v10.48h.05l5.49-6.74h1.18l-3.61,4.4,4.22,6.72h-1.14l-3.68-5.96-2.5,2.92v3.04h-1.02V5.51Z"></path><path class="cls-1" d="m86.31,23.66c.43-.58.83-1.26,1.11-2.11l.3-.97-4.56-11.33h1.11l2.69,7c.17.46.36.97.57,1.53.21.56.42,1.08.64,1.58h.09c.17-.49.34-1.02.52-1.58.18-.56.34-1.07.5-1.53l2.39-7h1.04l-4.4,12.51c-.15.46-.34.92-.57,1.36-.22.44-.49.83-.79,1.18-.3.35-.65.63-1.04.83-.39.21-.84.31-1.33.31-.65,0-1.33-.31-1.67-.46,0,0,2.1.44,3.41-1.32Z"></path><path class="cls-1" d="m18.06,9.13l-.24,1.05c-.03-.06-.8-1.41-3.08-1.41s-4.91,2.1-4.91,5.97,1.97,5.99,4.62,5.99,3.32-1.49,3.37-1.59v1.16s1.9,0,1.9,0v-11.16s-1.66,0-1.66,0Zm-3.13,9.83c-2.17,0-3.1-2.07-3.1-4.15s1.2-4.27,3.07-4.27c1.6,0,2.65,1.08,2.92,1.38v5.22c-.13.28-.91,1.82-2.88,1.82Z"></path></svg> 