<?xml version="1.0" encoding="UTF-8"?> <svg xmlns="http://www.w3.org/2000/svg" id="Layer_1" width="600" height="400" viewBox="0 0 600 400"><defs><style>.cls-1{fill:#fff;fill-rule:evenodd;}</style></defs><path class="cls-1" d="m507.01,190.15h0q-.17,0,0,0v-.17h0v-.17h-.34c-.17.17-.34.17-.34.34,0,0,0,.17-.17.17s-.34,0-.51.17c0,.17-.17.17-.34.34h-.34v.17h0l-.17.17h-.17q0,.17-.17.34h-.17v.17h-.17c0,.17-.17.34-.17.34h-.17c0,.17-.17.17-.17.34,0,0-.17,0-.17.17h-.17v.17h0l-.34.34h-.17c0,.17-.17.17-.17.34h-.17c0,.17,0,0-.17.17h0v.17h-.17v.17h0l-.17.17h-.17v.17h0c0,.17-.17.17-.17.34h.51v.17h-.17c0,.17-.17.17-.17.34h-.17c0,.34-.34.34-.34.51h-.17v.17h-.17v.17s-.17,0-.17.17v.17h-.17v.17h0v.17l-.17.17v.17c-.17,0-.17.17-.17.17h-.17c0,.17-.17.17-.17.34h0v.17h-.17c0,.17-.17.17-.17.34h-.17l-.17.17v.17s-.17,0-.17.17v.17h-.17v.17s-.17,0-.17.17v.17h-.17l-.17.17h.34v.17h-.17c-.17.17,0,.17-.17.17,0,.17-.17.34-.34.51h-.17c0,.17-.17.34-.34.51h-.17c0,.17-.17.17-.17.34v.17h-.17v.17l-.17.17v.17h-.17v.17h0v.17h0v.17h0l-.17.17h-.17v.17c-.17,0,0,.17-.17.17,0,0-.17,0-.17.17v.17h-.17v.17s-.17,0-.17.17v.17l-.17.17h-.17s0,.17-.17.17h.17l-.17.17v.17c-.17.17-.17,0-.17.17-.17,0-.17.17-.17.17-.17,0-.34.17-.34.34h-.17c-.17,0-.17.17-.34.17v.17h0s0,.17-.17.17h-.17c0,.17-.17.17-.34.34h-.17c0,.17-.17.17-.17.34h-.34v.17h0c0,.17-.17.17-.17.34h-.17c0,.34-.17.17-.34.34v.17h-.17l-.17.17h-.17q0,.17-.17.17h0v.17h-.34v.17h0c0,.17-.17.17-.17.34h-.17l-.17.17v.17h-.17l-.17.17h-.17s0,.17-.17.17h-.17s0,.17-.17.17h-.17l-.34.34h-.17s-.17,0-.17.17v.17s-.17,0-.17.17v.17h-.17s-.17,0-.17.17v.17h-.17l-.17.17c0,.17-.17.17-.34.34h-.17l-.17.17c-.17.17-.17,0-.34.17-.17,0-.34.17-.34.17v.17h-.17v.17h.69v.17h-.17v.17h-.17l-.17.17v.17l-.34.17c0,.17,0,0-.17.17h-.34v.17h-.34v.17c-.17,0-.34.17-.34.17,0,0,0,.17-.17.17h-.17s0,.17-.17.17h-.17v.17h-1.03v.17h.34s0,.17-.17.17h-.17v.17h-.69q-.17,0-.34.17h-.17c-.17,0-.34,0-.51.17h.34-1.03v-.17h-.69v-.17h-.17s0-.17-.17-.17h-.69q-.17,0-.34-.17v-.17h-.69c-.17,0-.34-.17-.51-.17v-.17q-.17,0-.34-.17h-.17v-.17h-.34v-.17h-.17v-.17h-.17l-.17-.17h-.34v-.17l-.17-.17v-.17h-.17s0-.17-.17-.17h-.17v-.17h-.17v-.17h-.17c-.17-.17-.34-.51-.51-.69h-.17l-.17-.17c0-.17-.17-.17-.17-.34h-.17v-1.54c-.34,0-.51-.34-.51-.51q-.17,0-.17-.17h-.17c0-.17-.17-.17-.17-.34h-.17v-.17h-.17v-.17h0v-.34h-.17v-.17h0v-.17h0v-.17h-.17v-.17h0q0-.17-.17-.17h-.17c0-.34-.17-.51-.34-.69,0,0-.17,0-.17-.17s-.17-.34-.17-.51h-.17c0-.17,0-.34-.17-.34h-.17c0-.17,0-.34-.17-.51h-.17c0-.17,0-.34-.17-.34h-.17c0-.17-.17-.34-.17-.51h0v-.17h0v-.17h-.17v-.17h0v-.17h0v-.34h0v-.17h0v-.17h0v-.17h0v-.17h-.17v-.17l-.17-.17h-.17.17l-.17-.17h0s0-.17-.17-.17v-.34h0v-.17h0v-.17h-.17c0-.34-.17-.69-.17-1.03h0v-.17h0v-.34h0v-.34h-.17v-.17h0v-.17h0v-.34h0v-.17h0v-.17h0v-.51h0q0-.17-.17-.34h0v-.51h0v-.34h0v-.34h0v-.17h0v-.34h0v-.17h0v-.51h0v-.17h0v-.17h0v-1.2h0v-.34h0v-.51h0v.17h0v-.17h0v-.86s-.17,0-.17-.17v-.34h0v-.86h0v-.69h0q0-.17-.17-.34v-.51h0v-.17h0v-1.03h0s0-.34,0-.34v-2.4h0v-.34h0v-.51h0v-.34h0v-.17h.17v-1.37h0v-.86h0v-.51h0v-.34h0v-.34h0v-.34h0v-.34h0c0-.17,0-.51.17-.51v-.86h0v-.51h.17v-.17h0v-.17h0v-.17h0v-.17h0v-.17h0v-.17h0v-.34h0v-.51h0v-.17h0v-.17h0v-.17h0v-.51h0v-.69h.17v-.34l.17-.17c.17,0,.34.17.51.17v.17h.51s0,.17.17.17h.17v.17h.17c.17,0,.34,0,.34.17v.17h.34c.34.17.51.17.86.34v.17c.17,0,.34.17.51.17v.17h.86v.17h.34l.17.17h.17v.17h.86c.17,0,.34.17.34.17v.17h.69v.17c.17,0,.34.17.34.17v.17h.69v.17h1.03q.17,0,.34.17h.17s0,.17.17.17h.34v.17h.69v.17c.17,0,.34,0,.51.17h.34l.17.17h2.57v.17h.34c.17.17.51,0,.86,0v.17h.17v.17h1.2c.17,0,.34.17.51.17h.86s0,.17.17.17h3.08c.34,0,.69,0,1.03-.17h0c.34,0,1.03,0,1.2-.17h2.06c.17,0,.34-.17.34-.17v-.17q.17,0,.17-.17h.51c0-.17.17-.17.17-.17,0,0,0-.17.17-.17h0v-.34s.17,0,.17-.17v-.17h0v-.51h0v-.17h0v-.34h0v-.34h0v-.17h0v-.34h0v-.51h0v-1.03h0v-.17h0v-.34h0v-.17h0v1.2h0v-.17h0v-.34h0v-.17h0v-.17h0v-.34h0v-.17h0v-.17h0v-.34h0v-.34h0v-.17h0v-.17h0v-.69h0v-.17h0v-.17h0v-.17h0v-.17h-.17c0-.51-.34-1.03-.34-1.71h-.17v-.34h0v-.17h-.17s0-.34-.17-.34h-.17v-.17h0v-.17h0v-.17h-.17v.17h-.17c0-.17,0-.34-.17-.34h-.17v-.17h0v-.17l-.17-.17v-.17h0v-.17h0v-.17l-.17-.17v-.17c-.17,0-.17-.17-.34-.17v-.17l-.17-.17v.51h0v-.17h-.17v-.17c-.17-.17-.34-.17-.34-.34v-.17h0c0-.17,0,0-.17-.17v-.17h-.17s0-.17-.17-.17h-.17v-.17h-.17v-.17h-.17s0-.17-.17-.17v-.17c-.17,0,0,0-.17-.17h-.17v-.17h-.17v-.17h-.17l-.17-.17v-.17c-.17,0-.17-.17-.34-.17v-.17s-.17-.17-.34-.17c-.17-.17-.34-.51-.69-.69v-.17h-.17v-.17c-.34,0-.17-.17-.34-.17h-.17s0-.17-.17-.17h-1.37v-.17c-.34-.17-.51-.51-.86-.69v-.17h-.34v-.17h-.51l-.17-.17h-.34s0-.17-.17-.17h-.17l-.34-.34h-.51v-.17h-.34v-.17l-.51-.34v-.17q-.17,0-.34-.17v-.17h-.34q-.17,0-.34-.17h-.34v-.17q-.17,0-.34-.17h0c-.17,0-.34,0-.51-.17h-.51c-.17,0-.34,0-.34-.17v-.17h-.17c-.17,0-.34,0-.51-.17h-1.2.69-.34c-.34-.17-.51.17-.86,0-.51-.17-1.2-.17-2.06-.17h-1.89,0l-.34-.17h-2.06q-.17,0-.34.17h-.17v.17h-1.54v.17h-.69v.17c-.17,0-.34.17-.51.17v.17h-.17s0,.17-.17.17-.17,0-.34.17c0,0,0,.17-.17.17h-.34v.34h-.17v.17h-.17v.17h.34s-.17.17-.34.17v.17h0v.17h-.17s0,.17-.17.17h-.17v.17h-.51s-.17.17-.17.34c0,0-.17,0-.17.17h-.17l-.34.34h-.17v.17h-.17v.17h0s0,.17-.17.17h-.17v.17h0c0,.17,0,0-.17.17h0v.17l-.17.17h-.17v.17q-.17,0-.17.17h-.17v.17c-.17,0-.17.17-.17.34h0v.17h0l-.17.17h-.17c0,.17-.17.34-.34.51-.17,0,0,0-.17.17h0v.17l-.17.17v.17l-.17.17v.17h0v.17h-.51.51s0-.17-.17-.17h-.34v-.17h-.51v-.17h-.34v-.17h-.17v-.17c-.34,0-.17-.17-.34-.17h.17v-.17h-.34v-.17h-.17s0-.17-.17-.17h-.17v-.17c-.17,0-.34-.17-.34-.17l-.17-.17h-.17v-.17h-.86v-.17h-.17s0-.17-.17-.17-.34-.17-.51-.17v-.17h-.17v-.17q-.17-.17-.51-.17c0-.34-.34-.17-.51-.34h-.51v-.17h-.51l-.17-.17h-.17v-.17h-.17v-.17h-.34l-.17-.17h-.69v-.17h-.17v-.17h.51v-.17q-.17,0-.34-.17v-.17q-.17,0-.34-.17v-.17h-.17s0-.17-.17-.17h-.51v-.17h-.34s0-.17-.17-.17h-.34v-.17h-.17l-.17-.17h-.17s0-.17-.17-.17h-.34v-.17h-.17s-.17-.17-.34-.17v-.17h-.51l-.17-.17c-.17,0-.34,0-.34-.17v-.17h-.17c-.17,0-.34-.17-.34-.17v-.17c-.17,0-.17-.17-.34-.17h-.17v-.17h-.17s0-.17-.17-.17h-.51s0-.17-.17-.17-.17,0-.34-.17v-.17c-.17,0-.34,0-.51-.17h-.17v-.17h-.17v-.17c-.17,0-.51-.17-.69-.17v-.17c-.34,0-.51-.51-.51-1.03h.17v-.17s-.17,0-.17-.17h0v-.17h0v-.51h0v-.17h-.17v-.51h0v-.17h0v-.34h0v-.17h0c0-.17,0-.51-.17-.69v-1.89h0v-.17h0v-.17h0v-1.03h0v-.17h0v-.51h0v-1.03h0v-.17h0v-.17h0v-.34h0v-.34h0v-.17h0c0-.17-.17-.69,0-.86h0v-.51h.17c0-1.03.17-1.71.17-2.74,0-.34.17-1.03,0-1.03h.17c0-.17,0-.34.17-.51v-.17h0v-.51h0v-.51h0v-.17h0v-.51h0v-.17h0v-.51h0v-.17h0v-.17h0v-.69h0v-.17h0v-.17h0v-.34h0v-.17h0v-.51h0v-.34h0v-.17h0v-.17h0v-.34h0v-.17h0v-.34h0v-.34h0v1.54h0v-.17h0v-.17h0v-.17h.17-.17v-.17h0v-.17h.17-.17.17v-.17h0v-.17h0v-.17h0v-.17h0v-.17h0v-.34h0v-.17h0v-.17h0v-.51h0v-.17h0v-.17h0v-.17h0v-.34h0v-.34h0v-.17h.17v-.17h0v-.17h0v-.34h0v-.51h0v-.17h0v.51h.17v-.51h.17c0-.17.17-.34.17-.69h.17c0-.34.34-.69.34-.86h.17v-.17h.17v-.17h.17v-.17h0v-.17h0v-.17h0v-.17h.17v-.17s.17,0,.17-.17,0-.17.17-.34h.17c0-.17.17-.17.17-.34h.17v-.17h.17s0-.17.17-.17q.34,0,.69.17h0c.17.17.34,0,.34.34h.17q.17,0,.17.17v.17h.17c.17.17.34.34.51.34v.17q.17,0,.17.17h.17s0,.17.17.17h.17v.17h.17v.17h.17v.17h.17v.17c.17,0,.17.17.34.17v.17q.17,0,.17.17h.17s0,.17.17.17h.17v.17h.17l.17.17v.17c.17,0,.17.17.34.17h.17s0,.17.17.17h.34v.17h0v.17q.17,0,.17.17h.17l.17.17v.17h.17c0,.17.17.17.17.34v.17c.17,0,.34.17.34.34v.17c.17,0,.17.17.34.34l.51.51v.17c.17,0,.17.17.34.34h0v.17s.17,0,.17.17h.17c0,.17.17.17.17.34v.17h.17v.17h0c.17.17.17,0,.17.17h.17l.17.17v.17s.17,0,.17.17v.17l.17.17v.17l.17.17v.17s.17,0,.17.17v.17h0l.17.17q0,.17.17.34h0v.17h.17v.17s.17,0,.17.17v.17l.17.17v.17h.17v.17l.17.17v.17s.17,0,.17.17v.17h.17v.17s.17,0,.17.17c.17.17.17.34.17.51h.17v.17l.17.17v.17h0v.17h0v.17s.17,0,.17.17v.17s.17,0,.17.17v.17h.17v.34s.17,0,.17.17v.17s.17,0,.17.17,0,.17.17.34q.17,0,.17.17h0v.17h0v.17h0v.34h.17v.17l.17.17v.17c0,.17.17.34.17.34.17,0,.34.34.34.51h.17q0,.17.17.34h.17v.51h0v.34h.17v.17h.17v.17h.17v-.34h.17c.17.34.34.69.34,1.2h.17v.34h-.34c0,.34,0,.69.17.86v.17h.17v-.17h0v-.17h0v.86h.17v.34h0v.17c0,.17.17.34.17.51s-.17.34-.17.69h.17v.17h0v.34h0c0,.51,0,1.03-.17,1.54h0v.86h0v.17h0v.17h0c0,.34,0,1.03.17,1.37v.51s.17.34,0,.51h0v.17h-.17c0,.17,0,.34-.17.51h0v.17h.17s0,.17-.17.17c0,.17.17.34.17.51h4.63c.17,0,.34.17.51.17v-.17s.17,0,.34-.17v-.17h0s.17,0,.17-.17h.17c0,.17-.17.34-.17.51h.17c0-.17.17-.17.17-.34v-.17h.17v-.17h.17l.17-.17v-.17h.17v-.17c.34,0,.51,0,.69-.17q.17,0,.17-.17v-.17q.17,0,.17-.17v-.17h0v-.17c0-.17,0-.34.17-.51h0v-.17h0v-.86h0v-.34s.17-.34,0-.34h0v-.17h0c0-.34,0-.69.17-1.03h.17v.17h.17v-.51h0v-.69h0v-.51h0v-1.2h0v-.17h-.17v-.34h0v-1.71h0v-.17h0v-.34h0v-.17h0v-.17h0v-.17h0v-.17h-.17q0-.17-.17-.34h0v-.34h0v-2.57h0c0-.17,0-.34-.17-.34,0-.17,0,0-.17-.17h.17l-.17-.17h0v-.17h0v-.17h0v-.17h0v-.17l-.17-.17v-.17h-.17s0-.17,0-.17h-.17c0-.17,0-.34-.17-.51h-.17v-.17h0v-.34h-.17v-.17l-.17-.17c0-.17-.17-.34-.17-.51h-.17q0-.17-.17-.17h0v-.17h0v-.17h-.17v-.17h0v-.17h-.17v-.17h0v-.17l-.17-.17h0s-.17,0-.17-.17v-.17h0v-.17h-.17v-.17h-.17v-.17c-.17,0-.17-.17-.34-.17v-.17h-.17v-.17h0s0-.17-.17-.17h-.17c0-.34-.17-.34-.34-.51h-.17v-.17h-.17c0-.17-.17-.17-.17-.34-.17,0,0,0-.17-.17h-.17v-.17h-.17v-.17h0v-.17h-.17v-.17h-.17v-.17s-.17,0-.17-.17v-.17l-.17-.17v-.17c-.17,0-.17-.17-.17-.17v-.17h-.17v-.17h0v-.17s-.17-.17-.34-.17c-.17-.17-.17-.51-.51-.51v-.17h2.74v-.17c-.17,0-.17-.17-.34-.34h-.17v-.17h-.17v-.17h0v-.17h0l-.17-.17h-.17v-.17h-.17l-.34-.34s0-.17-.17-.17v-.17c-.17,0,0,0-.17-.17h0v1.2h-.17v-.17c-.17-.17-.34-.17-.34-.34v-.17q-.17,0-.17-.17h-.17l-.17-.17v-.17c-.17-.17-.17,0-.34-.17h-.17c0-.17-.17-.17-.17-.17l-.17-.17v-.17h-.17v-.17h-.17v-.17h-.17l-.17-.17c0-.34-.34-.34-.51-.51h-.17c0-.17-.17-.17-.34-.34,0,0,0-.17-.17-.17h-.17s0-.17-.17-.17h-.17l-.17-.17v-.17s-.17,0-.17-.17v-.17h-.34v-.17h-.17v-.17h.17v-.17h0l-.17-.17h-.17s0-.17-.17-.17h-.17v-.17h-.17v-.17h-.17s0-.17-.17-.17c-.17-.17-.34-.17-.69-.34v-.17c-.17,0-.17-.17-.34-.17s-.34,0-.51-.17l-.17-.17q-.17,0-.34-.17s0-.17-.17-.17h-.34v-.17h-.86v-.17h-.69s0-.17-.17-.17h-.17q-.17-.17-.34-.17v-.17h-1.03v-.17h-.34v-.17q-.17-.17-.34-.17v-.17c-.17,0-.34-.17-.51-.17h-.17v-.17h-.17v-.17h-.69v-.17c-.17-.17-.34-.17-.51-.17v-.17h-.34v-.17h-.69.51s0-.17-.17-.17-.34,0-.69-.17v-.17h-.51s-.34,0-.34-.17h-4.28v.17h-1.37s0,.17-.17.17h-.51v.17h-.17l-.17.17h-.17l-.17.17h-.17c-.17.17-.17.34-.34.34h-.17v.17h-.17v.17h-.17q-.17,0-.17.17h-.17v.17s-.17,0-.17.17v.17h0v.17s-.17,0-.17.17v.17h0v.17h-.17v.17h0c0,.17,0,.34-.17.34,0,0-.17,0-.17.17s0,.17-.17.34h-.17v.17h0l-.17.17h-.17c0,.34-.17.51-.34.86v.17h-.17c0,.17,0,.34-.17.51h-.17v.17h0q0,.17-.17.34h0v.34h0v.17h0v.17h0v.17h0v.17h0v.17h-.17v.17h0v.17h0v.17h0v.17h0v.17h0v.17h0v.17h0v.34h0v.17h-.17v.17h0v.34h0v.17h0v.17h0v.17h0v.34h-.17v.34h-.17v.17h0v.17h0v.34h0v.17h0v.17h0v.17h0v.17h0v.86h0v.17h0v.17h0v.34h0v.17h0v.69h-.34v.17h0v.86h0v.17h0v.17h0v.34c0,.34-.17.51-.17.86h-.17c0,.51,0,1.03-.17,1.54-.17.34-.17.86-.17,1.54h-.17v.17h0v.17h0v.34h0v.17h0v.17h0v.34h0v.17h0v.34h0v.17h-.17v.34h0v.17c0,.17-.17.34-.17.51h-.17v.51h0v.51h0v.51h0v.34h0c0,.51,0,1.03-.17,1.54h0v.17h-.17v.17h0v.17h0v.34h0v.34c0,.51,0,.86-.17,1.37h0v.51h0v1.71h0v.34h0v.34h0v.17h0v.17h0v.34h0v.17h0v.17h0v.17h-.34v.17h-.69c-.17,0-.34,0-.51-.17h-1.37v-.17h-.34v-.17h-1.37s0-.17-.17-.17h-3.08c-.17,0-.34,0-.51-.17h-1.54v-.17h-.69.51-1.2v-.17h-1.2s0-.17-.17-.17h-1.37v-.17h-.17c-.34-.17-.34.17-.69.17h-1.37v-.17h-.34s0-.17-.17-.17h-.17,0-.17c-.17,0-.34-.17-.51-.17h-.17c-.17,0-.34-.17-.51-.17h-.86c-.17,0-.34-.17-.51-.17h-2.57c-.34,0-.51,0-.86.17h-.51s-.17,0-.17.17,0,.34-.17.51h0v.34l-.17.17v.34h0v.17h.17v.34h0c.17.34,0,1.03.17,1.2h0l.17.17.17.17h.17c.17,0,.34,0,.51-.17h2.23v.17h.51c.17,0,.34,0,.51-.17h2.4v.17h0v.17h4.11c.17,0,.34,0,.69.17h1.89v.17h2.23v.17h.34q.17,0,.34.17h.86s0,.17.17.17h1.2v.17h.17v.17c.17,0,.34,0,.34.17h.34v.17h.34v.17h.34v.17h.34c.17,0,.34,0,.51.17v.17h.69s0,.17.17.17h.69v.17h.34v.17h.51c.17,0,.17.17.34.17v2.57h0v1.37h0v.69h0v.69h0v.69h0v.69c0,.17.17.86,0,1.03v.86c0,.17-.17.51-.17.86h0v.34h0v.17h0v.34h0v.17c0,.17-.17.69-.17.86.17.34.17.69.17,1.03v.51c.17.51,0,1.2,0,1.71v.51h0v.51h0v.69h0s-.17.17,0,.34h0v.69h0v.51h0v1.03c0,.34.17.51.17.86v.51h0v.51c.17.51.17,1.2.17,1.71v1.03h0v.51h0v.17h0v1.03h.17v1.54h0v.17h0v.34h0v.17h0v.17h0v1.37h0v.34h.17v.17h0v.86h0v.17h0v.17h0v.17h0v.17h0v.86h0v.17h0v.34h0v.34h.17v.34h0v.34h0v.17h0v.34c.17.34.17.86.17,1.2h.17v.34h0v.34h0s-.17.34,0,.34h0v.17h0v.51c0,.17,0,.34.17.51h.17c0,.17,0,.34.17.34v.51h0v.17h0v.34h0v.17h0v.86h.17v.51h0v.17h0v.34h0v.86h0v.17h0v.17h0v.17h0v.17h0v.34h0v.34h0v.17h0v.17h0v.17h.17v.51h0v.17h0v.34h0v.17h0c0,.34,0,.69.17,1.03h.17c.17.17,0,.34.17.51h0v.17h.17v.34h0v.17h0v.34h.17v.17h.17v.51c0,.34.17.51.17.86h.17v.34h0v.17h0v.34h0v.17h0v.17h0v.17h0v.34h0v.17h0v.34h0v.17h0v.34h.17v.17h0v.17h0v.34s.17,0,.17.17v.34h.17v.17h0v.17h0v.17c0,.17.17.51.17.86h.17c.17.34.17.86.34,1.2h0v.17h0v.17h0c0,.34.17.51.17.86h0v.17h.17v.34c.17.34.17.51.17,1.03h.17c0,.17,0,.34.17.51h0v.17h.17v.17h0v.51h.17v.17h.17v.17h0c0,.17.17.51.17.69h.17v.17h0v.17h0v.34h0v.17h0v.17h0v.17h0v.17h.17v.17h0v.17h0v.17h0v.17h0v.17h0v.17h0v.17h.17v.17h0v.34h0v.17h0v.17h0v.17h0v.34h0v.17h.17c0,.17.17.51.17.69h.17v.34h0v.17h.17q0,.17.17.34h0v.17h.17c0,.17,0,.34.17.51l.17.17v.17h0v.17h.17v.17h0v.34l.17.17v.17h0v.17h.17v.17l.17.17v.17c0,.17.17.17.17.34h3.43l.17-.17h.17s0-.17.17-.17h.17v-.17h.51c.17,0,0,0,.17-.17h.17v-.17h0v-.17h.17v-.17h.34v-.17h0v-.34h0c0-.17.17,0,.17-.17h.17v-.51h0v-.17h0v-.17h0v-.17h0v-.17h0v-.17h0v-.17h0v-.17h0v-.69h0v-.17h0v-.34h0v-.17h-.17v.34h0v-.34h0v-.34h0v-.17h-.17v-.17l-.17-.17q.17,0,.34-.17v-.51h0v-.17h-.17v-.34h0v-.69h.17s.17-.34.17-.51h0v-.51h0v-.17h0v-.17h0v-.34h0v-.34s-.17,0-.17-.17h0v-.34h0v-.17h0v-.17h0v-.34h-.17v-.17h-.17v-.17h0v-.51c0-.17-.17-.51-.17-.86h-.17q0-.34-.17-.51v-.34h0v-.17h0v-.34h0v-.17h0v-.17h0v-.17h0v-.17h0v-.34h0v-.51h0v-.17h0c-.17-.34,0-.34-.17-.51v-.17h0v.17h0v.17h0v.34h0v.17h0v.17h.17-.17v.17h.17v.17h0v.17h0v.17h0v.17c0,.17.17.17.17.34h.17c0-.17,0-.51-.17-.69h-.17s0,0,0-.17h-.17v-.17h0v-.17h0v-.34h0v-.17h0v-.17h0v-.17h0v-.34h-.17c-.17-.51-.17-1.03-.34-1.37h-.17v-.17h0v-.69h0v-.17h0v-.17h0v-.51h0v-.17h0v-.17h0v-.17h0v-.34h-.17v-.17h0v-.34h0v-.17h0v-.17h0v-.17h0v-.17h0c0-.34,0-.51-.17-.86h0v-.17h0v-.34h0v-.34h-.17c0-.17,0,0,.17,0,0-.17,0,0-.17,0v-.17h0v-.17h0v-.34h0v-.17h0v-.17h0v-.34h-.17v-.17h0v-1.03h0v-.17h0v-.34h0v-.34h0v-.17h0v-.34h0v-.51h0v-.17h0v-.69h0v-.17h0v-.34h0v-.34h-.17c0-.17,0-.51-.17-.69v-.34h0q0,.17.17.17h.17v-.86h-.17v-.34h0v-.51h0v-.17h0v.34h0v-.17h0v-.17h0v-.17h0v-.34h0v-.17h0v-.69h0v-.34h0v-.34h0v-.34h-.17v-.34h0v-.17h0v-.17h0v-.17h0v-.17s-.17-.34,0-.51h0v-.17h0c0-.17.17-.51,0-.69h0v-.34h0v-.17h0v-.17h0v-.34h0v-.51h0v-.69h0v-1.2h0v-.17h0v-.17h0v-.17h0c0-.17.17-.69.17-.69h0v-.51h-.17v-.51h0v-.34h0v-.17h0v-.17h0v-.51h0v-.34h0v-1.54h0v-.86h-.17v-.17h.17v-.17h0v-.17h0v-.17h0v-.34h0v-.17h0v-1.89h0v-.34h0v-.34s.17-.34,0-.51h0v-.51h0v-.86h0v-.17h0v-.69h0c0-.17,0-.51.17-.69,0-.51,0-.86-.17-1.37h0v-.34h0v-1.03h0v-.17h0v-.17h.17v-.17h0v-3.26h0v-.69h0v-1.2h0v-.86h0v-.69h.34v.17c.17,0,.34.17.34.17h.17v.17h.17s0,.17.17.17h.51s0,.17.17.17h.17v.17h.69v.17h.69q.17,0,.34.17h.34v.17h.34v.17h.17c0,.17.17.17.17.34h.17s0,.17.17.17.34,0,.51.17h.17v.17h.17v.17h.17s0,.17.17.17h.17v.17c.17,0,.34.17.34.17v.17q.17,0,.17.17h.17v.17h.69s0,.17.17.17h1.03v.17h.17v.17h.17l.17.17q.17,0,.34.17v.17h.34s0,.17.17.17h.34l.17.17h.34v.17h.34s0,.17.17.17h.86q.17,0,.34.17h.34l.17.17h.17s0,.17.17.17h.17s0,.17.17.17h.17v.17h.17v.17h.34v.17h.17v.17h.17v.17h.34q.17,0,.34.17h.17s0,.17.17.17.34.17.51.17c0,0,0,.17.17.17h.17v.17h.51v.17h.51s0,.17.17.17h.17v.17l.17.17v.17h-.17v.17h0v.51h0v.17s-.17,0-.17.17h0v.34h.17-.17.17-.17v.34h0v.17h0v.34c-.17.34-.17.69-.17,1.2h-.17c0,.69,0,1.03-.17,1.54,0,.17,0,.51-.17.69,0,0-.17,0-.17.17v.34h.17v.34h0v.86h0v.17h.17c0,.17,0,0-.17,0v.17h0v.34h0v.34h0v1.03c0,.51,0,1.2-.17,1.71v.17h0v.86h0v.51h-.17.17-.17.17c0,.17,0,0-.17,0v.17h.17-.17.17-.17.17-.17.17-.17.17-.17.17-.17.17-.17.17-.17.17-.17.17-.17.17-.17.17-.17v.17h.17-.17.17-.17v.17h0v.34h0v.34h-.17v.51h.17v.69h0v1.2h0v1.03h0v.17h0v.69h0v1.71h0v.51h0v1.03h0v.17h0v.51h0v.86h0v.17h0v.17h0v.51h0v.69h0v.34h0v.17h0v.51h0v.17h0v.17h0v.51c0,.17.17.34.17.51h.17c0,.17,0,.34.17.51h0v.69h.17v.17h0v.17h0v.34h0v.51h0v.17h0v.34h0v.17h0v.17h.17v.51h0v.17h0v.17h.17v.17h0v.17h0v.17l.17.17c0,.34.17.86.17,1.2h.17c0,.17.17.34.17.51v.34h0v.34h.17v.17h0v.17h0v.17h0v.34h0v.17h0v.17h.17v.17h0v.17h0v.17s.17,0,.17.17v.17h.17v.34h.17v.17h0v.17h0v.34h0v.17h.17v.17h.17c0,.17.17.34.17.34h.17q0,.17.17.34h.17v.34h.17c0,.17.17.34.17.51h.17s0,.17.17.17c0,0,.17,0,.17.17s0,.17.17.34c0,0,.17,0,.17.17.17.17.17.34.17.51h.17v.17h.17l.17.51h.17q0,.17.17.17h.17q0,.17.17.34h.17v.17h0v.17h0l.17.17v.17h.17v.17l.17.17v.17l.17.17h.17l.34.34h.17v.17h.17s0,.17.17.17h0v.17h.17v.17h.17v.17q.17,0,.17.17h.17v.17h.17c0,.17.17.17.34.34l.17.17h.17c.17,0,.17.17.34.17v.17q.17,0,.34.17h.17s0,.17.17.17.17,0,.34.17v.17h.34l.17.17h.17c0,.17.17.17.17.34.34.17.51.51,1.03.51v.17h.17s0,.17.17.17h2.57v.17h.51v.17h1.54v.17h.17v.17h.51v.17h1.71v.17h1.03v-.17h1.89c.34,0,.34.17.69.17h.86c.17,0,.51,0,.69-.17h1.54c.51,0,.86-.17,1.37-.17h.86c.17,0,.34-.17.51-.17h0v-.86h.17v-.17h.34v-.17h.17v-.17h.34s0-.17.17-.17h.34v-.17h.17l.17-.17h.69c.17,0,.17-.17.34-.17,0-.17.34-.17.51-.34,0,0,0-.17.17-.17h.17s0-.17.17-.17h.17s0-.17.17-.17h.51s0-.17.17-.17h.34v-.17h.17v-.17h.17s0-.17.17-.17h.17s0-.17.17-.17c.17-.17.34,0,.34-.34.34,0,.34-.34.69-.34,0-.34.34-.34.51-.51l.17-.17h.17v-.17h.17v-.17h.17c0-.17.17-.17.17-.34h.17c0-.17,0,0,.17-.17h.17l.17-.17h0s0-.17.17-.17c0,0,.17,0,.17-.17v-.17h.17v-.17h.17v-.17h0v-.17h.17v-.17h0c0-.17,0,0,.17-.17h0q.17,0,.34-.17l.34-.34h.17c0-.17.17-.17.17-.34h.34v-.17h0v-.17h0v-.17h.17v-.17h.17v-.17h.17v-.17h.17v-.17c.17,0,0,0,.17-.17h.17c0-.17.17-.17.17-.51.17,0,.17-.17.34-.34h0v-.17h0v-.17h0v-.17h.17l.17-.17h0v-.17l.17-.17v-.17h0v-.17h0v-.17h0v-.51c.17,0,.17-.17.34-.34h0v-.17l.17-.17v-.17l.17-.17v-.34h0v-.17h.17s.17-.34.34-.51h.17c0-.17.17-.17.17-.51h.17c0-.17.17-.34.17-.34h.17v1.03h.17-.17.17c.17-.17.17-.34.34-.34h.17c0-.17.17-.17.17-.34v-.17h.17v-.17s.17,0,.17-.17v-.17h0v-.17h0v-.17c.17,0,0,0,.17-.17l.17-.17v-.17h.17v-.17h0v-.17c.17,0,.17-.17.34-.17v-.17h0v-.17h0c0-.17,0,0,.17-.17v-.17h.17v-.17c0-.17.17-.17.17-.34h.17v-.17h.17v-.51c0-.17-.17-.17-.17-.34h0v-.34h.17s0-.17.17-.34h.17v-.17h0v-.17h.17v-.17h.17v-.17h.17v-.17h.17v-.17s.17,0,.17-.17v-.17h0v-.17h0v-.17q.17,0,.17-.17v-.17h0c0-.17,0-.34-.17-.51,0-.17,0-.34.17-.51h0v-.17h0v-.17h0v-.17h0v-.17l.17-.17v-.17h0v-.17h0v-.51h0v-.17h0v-.34c.17-.34.17-.69.34-1.03v-.34h0v-.34h0c-5.49,1.03-5.49.86-5.49.69Zm-21.42-21.25h0c0,.34,0,.51.17.69h.17c-.17.17-.17,0-.17.17h0c-.17-.34-.17-.69-.17-.86h0Zm-16.28-1.89h0c.17,0,.17-.17.17-.17h.17v-.17h0v-.17h0v-.34h0v-.17h.17v-.17s.17,0,.17-.17,0-.17.17-.34c0,0,.17,0,.17-.17v-.17s.17,0,.17-.17v-.17h0v-.17l.34-.34v-.17l.17-.17v-.34h0v-.17h0v-.17h0v-.17h0v-.17h.17v-.17h0v-.17h.17v-.17c.17-.17.34-.34.51-.69.17,0,.17-.17.34-.17v-.17h.17v-.17c.17,0,.17-.17.17-.17h0v-.17h.17v-.17c.17,0,.17-.17.34-.17v-.17h.17s0-.17.17-.17c0,0,.17,0,.17-.17v-.17h-.17v-.17h.69s0-.17.17-.17h.51v-.17h.34v-.17h.51c.34-.17,1.2.17,1.37.17v.17h1.03s0,.17.17.17h.17v.17h.69s.17,0,.17.17v.17c.17,0,.34.17.34.17v.17h.17q.17,0,.34.17c.17,0,.17.17.34.34v.17q.17,0,.34.17v.17h0v.17h.17l.17.17h.17v.34h0l.17.17h.17c0,.17.17.17.17.34h.17c0,.17.34.34.51.51q0,.17.17.17v.17h0q0,.17.17.17,0,.17.17.17c0,.34.34.34.34.69h.17c0,.17,0,.34.17.51h.34v.17h0v.34c.34,0,.17-.17.34,0v.17q.17,0,.17.17h.17c0,.17.34.34.34.51h-.17v.17h-.17v.51s0,.34.17.34h.17v.34l.17.17v.17s.17,0,.17.17,0,.34.17.34h.17c0,.17.17.51.17.69h.17v.34h.17v.17h.17v-.34h0v.17h0v.17h0v.51h0v.51h0v.34h0v.17h0v1.89h-.17v.17q-.17,0-.17.17h-1.54s0-.17-.17-.17-.17,0-.34-.17v-.17h-.51v-.17h-.34c-.17,0-.17-.17-.34-.17v.34h-.51v-.17h-.17c-.17,0-.34,0-.34-.17h-.69c0-.17-.17-.17-.17-.34-.17,0-.34,0-.51-.17h-.69v-.17h-.17s0-.17-.17-.17-.34-.17-.51-.17v-.17h-.17v-.17h-.17v-.17h-.51c-.17,0-.34-.17-.51-.17v-.17h-.17c-.17,0-.17-.17-.34-.17v-.17c-.17,0-.34-.17-.51-.17h-.34v-.17h-.69v-.17h-1.89v-.17h-.17v-.17q-.17,0-.34-.17v-.17h-.17v-.17h-.51v-.17s-.17,0-.34-.17v-.17h-.51v-.17s-.17,0-.17-.17l-.17-.17h-.69v-.17h-.34v-.17h-.17v-.17c-.51,0-.51-.17-.86-.34,0,0,.17,0,.17-.17Zm-4.46-25.88q0,.17.17.17v.34h0c-.17-.17-.17-.34-.17-.51h0c-.17,0-.17-.17-.17-.17h0l.17.17h0Zm-2.23-5.48c-.17,0,0,0,0,0h0Zm-15.42,71.63s.17,0,0,0l.17.34h0l-.17-.34h0Zm-.17-.69c0,.17,0,.34.17.69h0c-.17-.34-.17-.51-.17-.69h0Zm-317.38-36.84h0c0-.17,0,0,.17-.17.34,0,.34-.17.69-.17v-.17c.51-.17,1.03-.17,1.71-.34h.86v-.17h.17s0-.17.17-.17h.34v-.17h.69l.17-.17h.17v-.17h.17v-.17h.34l.17-.17c0-.34-.17-.34-.34-.51h-.17v-.17h-.86v-.17c-.17,0-.34-.17-.51-.17h-4.8v.17h-2.06s0,.17-.17.17h-.51v-2.06h0v-.17h.17s.17-.51.17-.69h0v.34h0c-.17-.34,0-.51,0-.51h0v-.34h0v-.51h0v-1.37h0v-.86h0v-.51h0v-.51h0v-.51h0v-1.03h0v-.17h.17v-.17h0v-.69h0v-.17h0v-1.03h.17v-.34h-.17v-.17h0v-.69c0-.17-.17-.17-.17-.34h.17v-.51h0v-1.03h0v-.51h0v-.17h0v-.51h0v-.17h0v-.51h0c0-.17,0-.34-.17-.51h0v-.17h.34v-.17h.17v-.34h0v-.51h0v-.86h0v-1.89c0-.17,0-.34.17-.51h0v-.86h0v-.34h0c0-.17,0-.34.17-.51h0v-1.2h0v-.17h0v-.86h0v-.34c0-.34,0-.69.17-.86v-.51h0v-1.37h0v-.17h-.17.17v-.34h.17v-.51h-.17c0-.17,0-.34-.17-.51,0,0-.17,0-.17-.17s.17-.34.17-.51v-.34h0v-.34h0v-1.54h-.17v-.17h0v-1.54c0-.17,0-.51-.17-.69v-.51h.17v-.17h0l.17-.17h.17q0-.17.17-.17h.17v-.17h0c0-.17,0-.86-.17-1.03h-.17v-.17c-.17-.17-.34,0-.34,0h0l-.17-.17v-.17h0v-.34q-.17,0-.17.17c-.34,0-.34-.17-.51-.51-.17,0-.34-.17-.69-.17h-1.03v-.17h-.69v-.17h-.17v-.17h-.17v-.17h-1.03l-.17-.17c-.17,0-.34,0-.51-.17h-.51v-.17h-.86v-.17h-.69v-.17h-.69v.17h-.86s0,.17-.17.17c-.17.17-.34,0-.34.34-.17,0-.17.17-.17.17h-.17c0,.34-.17.51-.17.51,0,0-.17,0-.17.17v.34h0v.17h0q0,.17-.17.34h0v.17h-.17c0,.34-.17.69-.17,1.03h0v.17h0v.69h-.17v.17h0v.34h0v.17h0v.17h0v.51h0c0,.17,0,.34-.17.51h0v.86h0v.17h0v.17h0v.17h0v.69h0v.86h-.17v.69h0v.69h0v.34h0v.17h0v1.54c0,.34-.17.51-.17.86h-.17v.34h.17v.69h-.17v1.71c0,.34,0,.51.17.69h-.17.17-.17.17s0,.17-.17.17h.17-.17v.17h0c0,.17.17.34,0,.51v.17h0v.34h.17-.17v1.03c0,.17-.17.69,0,1.03h0v.69h0v1.03h0v.51h0v.34h0v.34h0v.17h0v.34h0v.17h0v.34h.17v1.03h0v.34h0v.17h0v.69h0v.51h0v.17h0v.86h0v1.54h0v.86h0v2.4c0,.51,0,.86.17,1.2v1.2h0v1.2h0v.17h.17-.17.17c0,.17,0,0-.17,0h0v.34h0v.17h0v.51c0,.17-.17.34,0,.34h0v.17h0v.34h0v.34h0v1.03h0v.17h0v1.03h0v.86l-.17.17h-.17c0,.17-.17.17-.34.17h-2.57v.17c-.34,0-.69.17-1.03.17-.17,0-.17.17-.51.17v.17h-1.89v.17h-1.2v.17h-.17v.17h-1.54v.17h-.17,0-.17c-.17,0-.51.17-.69.17h-.34v.17h-.51s0,.17-.17.17c-.34.17-.86.17-1.2.34v-.17h0v-1.71h0v-.17h0v-.34h0v-.51h-.34.17v-.17h-.17.17v-.17h0v-1.54h0v-.69h0v-.17h0v.17-.17h0v-.34h0v-.17h0v-.69h0v-.34h0v-.69h0v-.17h.17-.17v-.51h0v-.17h0v-.51h0v-.86h0v-.69h0v-1.03c-.17-.51,0-1.37-.17-1.89v-1.89h-.17c0-.17.17-.34.17-.51h0v-.34h0v-.17h0v-1.2h0v-.86h0v-.34h0v-1.03h0c0-.34,0-1.03-.17-1.2h.17v-.34h-.17v-.17h0v-1.03h0v-1.03h0v-.17h0v-.86h0v-1.2h0v-.86h-.17v-.17h0v-.69h0v-.17h0v-1.71h0v.17h0v-.86h0v-.17h0v-1.03h0v-.69h0c0-.17.17-.69,0-.86h0v-.17h0s0-.17.17-.17v-.34h0v-.17h0v-.17h0v-.34h0c0-.51,0-1.54-.17-2.23v-.51c0-.17-.17-.17-.17-.34h-.17v-.51h0v-.34s-.17,0-.17-.17v-.34h-.34q0-.17-.17-.17c0-.34,0-.17.17-.34h0v-.34h-.17v-.34h0q0-.17-.17-.17v-.17q-.17,0-.17-.17h-.17v-.17h-.17v-.17c-.17,0-.51-.17-.69-.17h0c-.17,0-.17-.17-.17-.17v-.17q-.17,0-.34-.17c0-.17-.17-.17-.17-.34h-.34v-.17c-.17,0-.34-.17-.34-.17h-.51l-.17-.17v-.17h-.51c-.17,0-.69,0-.86.17h-4.11v-.17h-.51v-.17h-.86v-.17h-.17s-.34-.17-.51,0l-.17.17h-.51v.17h-.34q0,.17-.17.17h-.17v.17h-.17v.17h0v.17h0v.17h0v.17h-.17c-.17.17-.17.34,0,.51h0v.17h0v.17h0v.34h0v.17h0c-.17.34,0,1.2,0,1.71v.51c0,.17-.17.51-.17.69h0v.17h0v.34h0v.51h0v.51h0v.17h0v.34h0v.17h.17-.17v.17h0v.17h0v.34h.17v.34h.17-.17v.51h0v.17h0v.17h0v.34h0v.51h0v.51h0v1.2h0v.17h0v.34h0v.17h0v2.06h.17v.34h0v.17h.17v.34h0v.34h0v.51h0v.17h0v.51c0,.34,0,.69.17,1.03v.69h0v.17h0v.86h.17v.17h-.17v.17h0v.51h0v.17h0v.17h0v.17h0v.17h.17v1.89h0v.34h0v.34h0v.69h0v.69h0v.17h0v.17h0v.51h.17v.51c0,.34,0,.69.17,1.03v.51h0v.51h0v.34h0v.51c0,.34,0,.69.17,1.03v1.03h0v.51h0v.51h0v.17h0v.17h0v.34h0v.34h0v.51h0v.17h0v.86h0v.34h0v.17h0v.17h0v.69h0v1.03h0v.86h.17v1.37h0v.34h0v.17h0v.17h0v.51h0v.17h0v.51h0v1.71h0v.34h0v.17h0v.17h0v.34h0v.34h.17v.34h0v.34h0v.34h0c.17.34,0,.69,0,1.03h0c0,.34-.17.69,0,.86v.34s-.17,0-.17.17v.17h-.17v.17l-.34.17v.17h-.17v.17s-.17,0-.17.17v.17s-.17,0-.17.17h-.34v.17h-.17s0,.17-.17.17h0v.17h-.17v.17h-.17c-.17,0,0,0-.17.17-.17,0-.17.17-.34.34v.69h0v1.2h.17v.17h-.17.17-.17s.17,0,.17.17v.17h.17s0,.17.17.17h.17v.17h.34l.17.17v.17h.17v.17h.51s0,.17.17.17h.86v.17h.34v.34h0v.34h0v1.89h.17v.17h0v.34c.17.51.17,1.2.17,1.71h.17c0,.69,0,1.37.17,2.23h0v.17h0v.69h0v.34h0v.51h0v.34h0v.51h0v.51h0v.34h0s-.17.34,0,.34h0v.17h0v.34h0s-.17.17,0,.17h.17v.34c.17.51.17,1.37.34,1.89v.86h0v.17h0v.34h0v.34h0v.34c0,.17,0,.51.17.69h0v.69h0v.34h0v1.03h0v.17h.17v.17h0v.17h0v.34h0v.17h0v.69h.17v.69c0,.17.17.34.17.69h.17c0,.17,0,.51.17.69v.51h0v.17h0v.34h0v.17h0v.34h0v.17h0v.34h.17v.51h0v.17h0v.17h0c0,.69.17,1.2.17,1.89h.17c0,.17,0,.34.17.34h0v.51h0v.17h0v.51h0v.17h0v.17h0v.17c-.17,0,0,0,.17,0h-.17.17-.17l.17.17v.34h0v.17h0v.51h.17v.17h0v.34h0v.34h.17v.34h0v.51h0v.17h0v.17h0v.17h0v.86h.17c.17.17,0,.51.17.69h.17v.17h0v.17h0v.51h0v.17h.17v.34h0v.17h0v.17h0v.17h0v.17h0v.17h0v.34h0v.17h0v.34h.17v.17h0v.51h0v.17h0v.17h0v.34h0v.17h0v.17h0v.17h0v.17h0v.17c.17.17.17.51.17.86h.17c0,.17,0,.34.17.51h.17c0,.34.17.69.17,1.03h.17v.17h0v.17h0v.17h0v.17h0v.17h0v.17h0v.17h.17v.34h0v.34h0v.17h.17v.17h0v.34h.17v.17h0v.17h0v.17h0v.17h0v.17h.17v.17s.17,0,.17.17v.34h.17c0,.17.17.34.17.69h.17c0,.17.17.34.17.34h0v.17h0v.17h0v.17h0v.17h0q0,.17.17.34h0v.34h.17v.17h0v.17h.17c.17.69.69,1.03.69,1.54.34,0,.17.17.34.34h.17v.17s.17,0,.17.17v.17h.17c0,.17.17.34.17.51.17,0,.34.17.34.17v.17c.17,0,.17.17.51.17q0-.17.17-.17v1.03c.17,0,.17-.17.34-.17h.34v-.34l.34-.17v-.17h.17v-.17h0s0-.17.17-.17h.51v-.86c0-.17,0,0,.17-.17v-.17h0v-.17h0v-.51c0-.17.17-.17.17-.34q.17,0,.17-.17v-.17h0v-.17h.17c.17-.17,0-.34,0-.51h0v-.17h.17v-.51h0c0-.17-.17-.34-.17-.51h0v-.86h0v-.17h0v-.17h-.17v-.17h0v-.34s-.17,0-.17-.17v-.17h0v-.17h0v-.34h-.17v-.17h0c0-.17,0-.34-.17-.34v-.34h-.17v-.17h0v-.17h-.17s.17,0,.17-.17h-.17v-.17h0v-.17h0v-.51h0v-.17h0v-.51h0v-.17h0v-.17h0v-.34h-.17v-.51h.17c.17.17,0,.34.17.51h0q0,.17.17.34h.17v-.51h.17v-.17h0c0,.17.17.17.17.34h.17c0,.17.17.17.17.34h.17v-.17h0v-.69h0v-.17h0v-.17h0v-.51h0v-.17h0v-.34h0v-.17h0v-.17h0v-.17h0v-.34c0-.17,0-.34-.17-.51v-.17h0v-.17h0s0-.34,0-.34h0v-.17h0v-.17c0-.17-.17-.17-.17-.51h-.17c0-.51,0-.69-.17-1.03v-.69c0-.34-.17-.34-.17-.69h.17v.51h.17c0,.51.17.86.34,1.2v.51h.17v.17h0v.17h0v.17h0v.17h0v.17h0v.17h0v.34h0s.17,0,.17.17h.17c0-.69-.17-1.03-.34-1.54,0-.34,0-.69-.17-.86h0v-.17h0v-.17h0v-.17h0v-.51h0v-.17h0v-.34h0v-.17h0v-.34c0-.17-.17-.51-.17-.86h-.17v-.51h0v-.17h0v-.17h0v-.34h0v-.17h0v-.34h0s0,0,0-.17h-.17v-.69c-.17-.69,0-1.54,0-2.4h1.37v-.17h.17c.17-.17,0-.51,0-.69h0v-.17h0c0-.17-.17-.69-.17-.86v-3.26h0v-.17h0v-.51h0s0-.34.17-.34c0-.17,0-.34-.17-.51v-.34h0v-.17h0v-.34h0v-.17h0v-.34h0v-.17h0v-.34h0v-.34h0v-.17h0v-.69h0v-.69h0v-.17h0v-.34h-.17v-.17h0c0-.51,0-1.03-.17-1.54,0,0,0-.17.17-.17h.17l.17-.17v-1.03h0v-.17h0v-.34h0v-.17h0v-.34h0v-.17h0v-.34h0v-.51h0v-.86h0v-.51h0v-.86h0v-.86h0v-.34h0v-1.37h-.17v-.17h0v-1.37l.17-.17v-.69h0v-1.71h0v-.17h0v-.17h0v-.17h0v-1.37c0-.34-.17-.69-.17-1.03h0v-.86h0v-.34h0v-.51q.17,0,.17-.17c.17-.17,0-1.2,0-1.54v-.51h0v-.17h0v-.34h0v-1.37h0v-.17h0s0-.17.17-.17h.17v-.17q.17,0,.34-.17h.34l.17-.17h.51v-.17h.69l.17-.17c.34,0,.69-.17,1.03-.17v-.17q.17,0,.34-.17v-.17h.69v-.17h.17v-.17h.17c.17,0,.34,0,.51-.17,0,0,0-.17.17-.17h.17s0-.17.17-.17h.86v-.17c.17,0,.51-.17.69-.17,0,0,0-.17.17-.17h.86v-.17c.17,0,.34,0,.34-.17v-.17c.17,0,.51-.17.69-.17h.17v-.17h1.03c.34,0,.51,0,.86-.17h.51s0-.17.17-.17h.34c.34-.17.69,0,1.03,0v1.71h0v.17h0v.17h0v.34h0v1.37h0v.86c0,.34.17.69.17,1.03v.51h0v.69h0v1.2h0v.17h0v.51h.17-2.23v.34h.17-.17.17v1.03h0v.51h0v.34h0v.69h0v.51h0v.51h0v1.2h0v.17h0v.17h0v.17h0v.17h0v.34h0v.86h0v.17h0v.51h0v.86h0v.51c0,.17.17.34.17.69v.86h.17v.69h0v.51c.17.51,0,1.37.17,1.89v.34h0v.69h.17v.17h0v.34h0v.86h0v.34h0v.34h0v.17h0v.34h0v.34h0v.51h0v.17h0v.17h0v.17h.17s0,.17-.17.17v.17h.17v.86h0v.34h0v.34h0v.51h0v1.03h.17c0,.34,0,.86.17,1.03v.51h0v.17h0v.51h0v1.37h.17v.69h0v.51h0v.17h0v.17h0c0,.69,0,1.2.17,1.89,0,0,.17,0,.17.17v.69h0c0,.51.17,1.03.17,1.37h.17-.17.17-.17v.17h0q0,.17.17.17h-.17l.17.17h-.17c0,.17,0,.34.17.51h0v.17h0v.34h0v1.03h0v.34h0v.34h0v.51h.17v.17h0v.34h0v.69h0v.17h0v.17h0v.34c.17.34,0,.69.17,1.03h0v.17s.17,0,.17.17v.69h0v.17h0v.69c0,.17.17.51.17.86h.17c0,.17,0,.51.17.69v.69c0,.34.17.51.17.86h.17c0,.17,0,.34.17.51v.34h0v.34h0v.34h0v.34h0v.34h0v.17h0v.17h0v.17h.17-.17c0,.17.17.34.17.34h.17v.17h0v.69h0v.17h0v.17h0v.34h0v.34h.17v.17h0v.34h0v.17h0v.69h0v.17h0v.69h0v.17h.17c0,.34.17.69.17,1.03h0v.17h0v.17h0v.17h.17v.34h0v.17h0v.34h0v.34h0v.51h0v.17h.17v.17h0v.17h0v.17h0v.17h0v.17h0v.17h0v.51h.17v.34c0,.17.17.17.17.34h.17c0,.17.17.17.17.34q.34,0,.51.17c.17,0,.34,0,.34-.17v-.17s.17,0,.17-.17h.17v-.17h.17v-.17h.34s.17-.34.34-.34h.69c0-.17-.17-.69,0-.86,0-.17,0,0,.17-.17v-.17h.17v-.17h.17v-.17h0v-.17h.17v-.17l.17-.17v-.17h0l.17-.17q.17,0,.17-.17c0-.17.17-.34.17-.34v-.34h0v-.17h0v-.17h.17v-.17h0c0-.17-.17-.69-.17-1.03h0v-.17h0v-.51h0v-.17h0v-.17h0v-.51h0v-.17h0v-.69h0v-.17h0v-.51h0v-.17h0v-.17h0v-.69h0v-.17h0v-.17h.17v-.34h0v-.86h0v-.34h0v-.34h-.17v-.17h0v-.17h0v-.17h0v-.17h0v1.2h0v-.34h0v-.34h0v-.17h0v-.17h0v-.17h0v-.17h0v-.34h0v-1.37h0v-.34h0c-.17-.51.17-.69.17-.86v-.69h0v-.17h0v-.51h0v-.17h0v-.51h0v-.17h0v-.69h0v-.17h0v-.17h0v-.17h0v-1.2h0v-.17h-.17v-.51h0v-.34h0v-.17h0v-.34h0v-.17h-.17v-.34h0v-.51h0v-.51h0v-.17h0v-.51h0v-.34h0v-.51c-.17-.34-.17-.86-.17-1.37h.17v-.17h0v-1.03h0c0,.17,0,.69.17.69v.17c.17,0,.34-.17.34-.51h0v-.17h0v-.34c-.17-.34,0-.86-.17-1.37v-.69h0v-.51h0v-.86h0v-1.2s.17-.34,0-.34h0v-.17h-.17v-.34h0v-.17h0v-.34h0v-.69c0-.34,0-.69-.17-1.03h-.17.17-.17c.17,0,0-.17.17-.34h-.17.17v-.17h-.17s.17-.51.17-.69h0v-.34h0v-.17h0s0-1.03,0-1.03h0v-.17h0v-.17h0v-.86h0v-.34h0v-.51h0v-.51h0v-.17h0v-.51h0v-.17h0v-.34h.17v.17h0v.69h.17v.86h0v.17h0v.17h0v.17h0v.34c0,.17,0,.34.17.51h.17v-.69h0v-.34h0v-.51h0v-.86h0v-.34h0v-.17h0v-.69h-.17.17-.17.17v-.51h-.17c0-.34,0-.86-.17-1.03v-.34h0v-1.03h0v-.17h0v-.51h0v-.17h0v-1.2h0v-.17h0v-.17h0v-.69h-.17v-.69h0v-.34h0v-.17h0v-1.03h0v-1.54h0s.17-.17,0-.34h0v-.17s.17-.34,0-.51h0v-.51h.17v-.34h-.17v-2.57h0v-.17h-.17v-.17h0q0-.17.17-.17v-.51h0v-.17h0v-.17h-.17v-.34h.17c.17-.17,0-.34,0-.51h0c.17-.34,0-.69.17-1.2v-.34h0c0-.17,0-.34.17-.51v-.17h.17-.17.17c0-.17,0,0-.17,0h.17v-.34h0v-.17h0v-1.2h0v-.34h0v-.34h0v-.17h0v-3.43h0v-.17h.17v-.17h.34v-.17h2.91v-.17c-.69,0-.51,0-.51,0Zm-3.08,31.02c-.17,0,0,0,0,0h0Zm-.51-6h0v.17h0v-.17Zm0,.34h0v.17h0v-.17Zm0-19.36h0Zm60.84,50.21v-1.89h0v-.17h-.17c-.17-.34.17-.51.17-.86h0v-.34h0v-.86h0v-.51h0v-.17h0v-.17h0v-1.2h0v-.69h0v-.51h0v-.69h0v-.86s-.17-.34,0-.51h0v-.17h0v-.34h0v-.34h0c0-.17-.17-.51,0-.69h0v-.17h0v-.34h0v-.34h-.17v-.17h-.17.17v-.17h-.17l.17-.17h-.17.17v-.34h0v-1.54h0v-1.71h0v-.17h0v-.51h0v-.51h0v-.17h0v-.17q0-.17.17-.34h-.17.17l-.17-.17h.17v-.17h.17-.17c0-.17,0,0,.17,0l-.17-.17h.17v-.17h-.17.17v-2.91c0-.34,0-1.03-.17-1.2q0-.34.17-.34c0-.17,0-.34.17-.34v-2.23c0-.34-.17-1.03,0-1.2.17-.51.17-1.2,0-1.71v-1.71h0v-.69h0v-.34h0v-.17c0-.17-.17-.34-.17-.51h0v-.17h0c0-.17-.17-.34-.17-.34v-.51h-.17c0-.17.17-.34.17-.51h-.17v-1.54h0v-.86h0v-1.2h0v-1.54h-.17c0-.34,0-.51.17-.86h.17v-.86h0v-.34h.17v-.17h0v-.17h0c0-.51,0-1.03-.17-1.54,0,0,.17-.34,0-.51h0v-.17h0v-.51c0-.17-.17-.34-.17-.51h0v-.34h0v-1.03h0v-.69h.17q0,.17.17.34h.17v-3.43c0-.17-.17-.51-.17-.69h0v-1.2h0v-.51h0v-.17h0v-.51h0v-.51c0-.34,0-.51-.17-.86h0v-2.57h-.17v-.17h0c0-.17-.17-.34-.17-.51h0v-.86h0v-.34h0v-.17h0v-.69h0v-1.54h0v-.17h0v-.34h0v-.51h0v-.34h0v-.51h0v-.17h.17v-.17h0v-.34h-.17.17v-.17h-.17.17-.17.17c0-.17,0,0-.17,0,0-.17.17-.34.17-.51h0v-.17h0v-.86h0v-1.03h0v-.51h0v-.34h0v-.34h0v-1.37h.17l-.17-.17h.17-.17v-.86h-.17v-.34h0v-.51h0v-.17h0v-2.23h0v-.17h.17v-.17h0v-.34.34h.17v-1.03h0v-.86h0v-.69h0v-.34h0v-.86h0v-.51h0v-.17h0v-.34h0v-1.2h0v-1.03c0-.17-.17-.51-.17-.86s0-.69.17-1.03h0v-.69h0v-.51h0v-.17h-.17v-1.03h-.17v-.34h0v-1.03h0v-.51h0v-.17h0v-.17h0v-.17h0v-.34h0v-.86c0-.34-.17-.69-.17-1.03v-.69h0v-.17h0v-.17h0v-.69h0v-.51c0-.17-.17-.34-.17-.51h-.17v.17h-.17v.17h.17v.51h0q-.17-.17-.17-.34v-.17s-.17,0-.17-.17v-.69h0s0-.34,0-.34h0v-.17h0v-.34h0v-.17h0v-.51h0v-.17h0s0-.17,0-.17h0v-.17h0v-.34h-.17v-.17h0v-.17h0v-.17h0v-1.03h-.17v-.17h0s0-.17-.17-.17h-.17v-.17h-.17s0-.17-.17-.17h-.17v-.17h-.17v-.17h-.17v-.17h-.34l-.17-.17c-.17,0-.34,0-.34-.17v-.17h-1.37v-.17q-.17,0-.34-.17h-.34c-.17,0-.17.17-.34.17l-.17-.17h-.17v-.17h-4.28c-.17,0-.69-.34-.86-.17h-.51v.17h-.17s0,.17-.17.17h-.34v.17h-.17q0,.17-.17.17v.17h0v.17h-.17v.17h0v.17h0v.17h-.17c-.17.17.17.34.17.51v.17h0v.34h0v.17h0c0,.34.17.69.17,1.03h.17c0,.34,0,.51.17.69v1.03h0v.17h0v.34c0,.34.17.51.17.86h.17c0,.17,0,.34.17.34v1.54h0v.17h0c0,.51,0,.86.17,1.37h.17c0,.51,0,1.03.17,1.37v.51s.17,0,.17.17v.51h0v.34h0v.17h0v.17h0v.17h0v.86h0v.51h0v.17h0v.17h0c.17.34-.17,1.2,0,1.37v.17h.17-.17v.17h0v.34h0v.17h0v.51h0v.51h0v.86h0v.17h0v.17h0v.51h0v.51h0v1.54h0v.17h0v.51c0,.34.17.69.17,1.03v.86h0v.69h0v1.37h0v1.03h.17v.17h0v1.03h0v1.37h0v2.91h0v.17h0v.17h0v.17h0v.69h0v.17l.17.17v1.54h0v1.54h0v.51h0v.51h0v.86h0v.34h0v.17h0v.17h0v.34c.17.34,0,1.03,0,1.54h.17v.34h-.17v.34h.17v1.2h0v.17h0v.34h0v1.71h0v2.4h0v.34h0v.17h0v2.4h.17c0,.51,0,1.03.17,1.54v.69h0v.69h0v.86h0v.17h0v.17h0v2.23h0v.69h.17v1.03c.17.34.17.69.17,1.2v.51h0v.17h0v.51h0v.17h0v.17h0v.86h0v1.03h0v.17h0v1.03h0v.17h0v.86h0v.86h0v.51h0v.17h0v.69h0v.17h0v.86h0v.86h0v.17h0v.17h0v.34h0v1.03h0v.17h0v.17h0v.86h0v.34h0v1.2h0v.69h0v.86h0v1.37h.17v.34h0v.86h0v.17h0v.69h0s-.17.34,0,.51h0v.34h0v.17h0v.17h0v.17h0c0,.17-.17.34,0,.69,0,.17.17.51.17.86h.17v.34h-.17v.17h.17c0,.69.17,1.2.17,1.89h.17c0,.69,0,1.37.17,2.06h.17v1.37h0v.17h0v.69h0v.34h0v.51h0v.17h0v1.03h.17v.69h.17v.17h0v.17h0v.86h0v.17h0v.34h0v.86h0v.17h0v.17h0v.51h0v.34h0v.69h0v.17h0v.34h0v.17h0v.17h0v.34h0v.17h.17s-.17,0-.17.17h0v.17h0v.86h0v.34h0v.34h0v.17h0v.34h0v.34h0v.51h0v.51h0v.17h0v.86h0v.17h0v.17h0v.34h0v.51h0v.34h0v.51h0v.34h.17v.51h0v.34h0v.34h0v.34h0v.34c0,.34.17.51.17.86h.17c0,.34.17.51.17.69v.17h0v.17h0v.34h0v.17h0v.17h0s-.17.17,0,.17h.17v.34s.17,0,.17.17.17.51.17.69h.17v.17h.17v.17h0v.17h0c0,.17.17.69.17.86h.17v.17h.17v-.17q.17,0,.17.17v.17q.51,0,.69-.51h.34c0-.17.17-1.03,0-1.2h0v-.17h0v-.51h.17v-.17h-.17c.17-.17,0-.69,0-.86h0v-.17h0v-.69h.17v-1.71h0v-1.2h0v-.17h0s-.17,0-.17-.17h.17c0-.17,0-.34.17-.51h.17v-.17h0v-1.03c0-.17-.17-.51-.17-.86v-.69h0v-.51h0v-.17h0v-.17h0v-.34h0v-.17h0v-.51h0v-.17h0v-.51h0v-.17h0v-.17h0v-.17h0v-.17h0v-.34h0q4.97-.17,4.97-.34h0Zm-2.57,11.48h0c0-.17-.17-.17-.17-.34l.17.17v.17Zm216.1-48.33c-.17,0-.51.17-.51.34h0c0-.17.17-.17.17-.34h.17-.17.17v-.17h.17q0-.17.17-.17c0-.17-.17-.34-.17-.51h-.69v-.17h.17c0-.34.17-.34.17-.69h-.86q0-.17-.17-.17h-.34v.17c-.17,0-.51.34-.69.17-.17,0-.34,0-.34.17-.17,0-.17.17-.34.17v.17q-.17,0-.17.17c-.17,0-.17.17-.34.17v.17h-.17v.17h-.17v.17h0l-.17.17h-.17c0,.17-.17.17-.17.34h-.17v.17c-.17,0,0,0-.17.17-.17,0-.17.17-.17.34h-.17s0,.17-.17.17-.17.17-.34.17h-.17v.17h0l-.17.17h-.17v.17c-.17,0-.17.17-.17.17q-.17,0-.17.17v.17c-.17.17-.34.17-.51.51h0s0,.17-.17.17h-.34v.17h-.17v.17h-.17c0,.17,0,0-.17.17h-.17s0,.17-.17.17h-.17l-.17.17c-.17.17-.34.17-.51.51h-.17c0,.17-.17.34-.34.51h-.17v.17h0l-.34.34h0v.17h-.17v.17h-.17c-.17.34-.51.51-.69.86h-.17q-.17,0-.17.17c-.17,0-.34.17-.34.17v.17h0c0,.17-.17.17-.17.34h-.17v.17h.86c-.17.17-.34.17-.34.34v.17h-.17s-.17.17-.17.34h-.17v.17c-.17,0-.34.17-.51.34-.17,0-.17.17-.34.17v.17h-.17v.17h-.17s0,.17-.17.17h-.17l-.34.34h-.17l-.17.17q-.17,0-.34.17h-.17s0,.17-.17.17h-.17s0,.17-.17.17l-.34.34h-.17c0,.17-.17.17-.34.34,0,.17-.17.17-.17.34v.17h-.17v.17h-.17s0,.17-.17.17h-.17v.17h-.17v.17h-.34l-.17.17h-.34v.17h-.17v.17l-.17.17v.17c-.34.17-.69.17-.86.51h1.2s-.17,0-.17.17v.17h-.17v.17c-.17,0-.17.17-.34.17h-.17s0,.17-.17.17h-.17s0,.17-.17.17h-.34v.17h-.34v.17h-.17s0,.17-.17.17h-.34v.17h-.17v.17c0,.17-.17.17-.34.17h-.17v.17h-.17.17-1.03v-.17c-.17,0-.34,0-.34-.17h-.17l-.17-.17v-.17q-.17,0-.34-.17v-.17l-.17-.17h-.17s0-.17-.17-.17h-.17v-.17h-.34l-.34-.34h-.17l-.17-.17h0v-.17h.17v-.17h0v-.17h-.17q0-.17-.17-.34h-.17v-.17l-.17-.17h.86v-.17l-.17-.17v-.17c-.17,0-.17-.17-.34-.17v-.17c-.17,0,0-.17-.17-.34,0,0-.17,0-.17-.17,0,0,0-.17-.17-.17h-.17s-.17-.17-.17-.34v-.17h-.17c0-.17-.17-.17-.17-.34h-.17v-.17h-.17v-.34h0c0-.17-.17-.17-.17-.17h-.17v-.34h-.17v-.34l-.17-.17v-1.2h0v-.17h0v-.17h0v-.34h0v-.17h0v-.17s-.17,0-.17-.17v-.17h0v-.17h0v-.17c0-.17-.17-.34-.17-.51h-.17v-.34h0v-.17h0v-.17h0v-.17h0v-.17h0v-.17h0v-.17h-.17v.17h0c-.17-.51-.17-1.2-.34-1.71h-.17c0-.86,0-1.54-.17-2.4h0v-.17h0v-4.11h0v-.34h0v-.34h0c0-.17,0-.34.17-.34v-2.23c0-.17.17-.51.17-.69v-.86h0v-.69h0v-.34h0v-.34h0v-.17h0v-.17h0v-.69h0v-.17h0v-.17h0v-.34h0v-.17h0v-.69h0c0-.51.17-1.2.17-1.71h.17c0-.34.17-.69.17-.86v-.51h0v-.34h0v-.51h0v-.34h0v-.34h0v-.51c0-.17.17-.34.17-.69h-.17c0-.17.17-.51.17-.51h0v-.51h0v-.17h0v-.17h0c0-.51.17-1.2.17-1.71h.17c0-.51,0-1.03.17-1.54h0v-.17h0v-.17h0v-.17h0v-.51h0v-.17h.17v-.34h0v-.34h0s.17,0,.17-.17h-.17.17c0-.17,0-.34.17-.34v-.34h0v-.17h0v-.86h0v-.17h0v-.17h0v-.17h0v-.17h0v-.51h0v-.34h0v-.34h0v-.34h0v-.34h.17v-.17h0v-.51c.17-.34.17-.86.17-1.37h-.17v-.17h.17c0-.17.17-.34,0-.51v-.34h.34v-.86h0v-.34h-.17c0-.34.17-.69.17-1.03h0v-.17h0v-1.03l.17-.17v-.17h0v-.17h.17v-.17h0v-.34h0v-.51h.17v-.51h0v-.17h.17v-.34h0v-.17h0v.34h0v-.34h0v-.17h0v-.17h0v-.17h0v-.17h0v-.17h0v-.17h0v-.34h0v-.17h0v-.34h0v-.34h0v-.17h0v-.69h0v-.17h0v-.17h0v-.17h0v-.17h0v-.51h0v-.17h.17v-.17h0v-.17h0v-.69h0v-.17h0q0-.17.17-.34v-.34h.17v-.17h-.17.17-.17.17v-.17h0v-.17h.17v-.34h0v-.34h0v-.17h0v-.17h0v-.51h.17v-.17h0v-.34h0v-.17h0v-.34h0v-.17h0c0-.34,0-.51.17-.86h.17c0-.17.17-.34.17-.51h-.17v.17h-.17v.17h0v-.34h.17v-.34h0v-.17h0v-.17h0v-.51h0v-.17h0v-.17h0v-.17h.17v-.17h.17v-.34h.17v-.17h0s0-.17,0-.17h0v-.34h.17v-.17h0v-.17h0v-.17h0v-.51h0c0-.17.17-.51.17-.69h2.06c0,.17-.17.34-.34.34,0,0-.17,0-.17.17v.17h-.17v.34h0v.17l-.17.17h-.17v.51h0v.17h0v.17h-.17v.17h0v.17h-.17c0-.17.17-.51.17-.86h.17v-.34h.17v-.17h0v-.17s.17,0,.17-.17v-.51h0v-.17h0v-.17h0v-.17h0v-.17h0v-.17h0v-.17h0v-.17h0v-.17h.17c0-.17.17-.17.17-.34h1.2v-.17h.86v-.17h.17v-.34l.17-.17h.34c0-.17-.17-.51-.17-.51h.17v-.34h.17v-.34h-.17l-.17-.17h-.17v-.17h0v-.17h0v-.17h0v-.51h0v-.17h0v-.17h0v-.17h0v-.17h0v-.17h0c0-.17-.17-.34-.17-.51v-.17h-.17l-.34-.34h-.34v-.17c-.17,0-.17-.17-.34-.17v-.17c-.34,0-.51-.17-.86-.17v-.17h.17v-.17h-.34c-.17,0-.69.17-.86.17v-.17h-.69l-.17-.17h-1.54c-.51-.17-.51.34-1.03.17h-1.2s-.34-.17-.51-.17h-.17c-.34,0-.69,0-1.03-.17h-1.03,0v.17h-.51v.17h-.51q-.17,0-.34.17c0,.17-.17.17-.17.34h-.17c0,.34-.17.34-.17.69h-.17q0,.17-.17.17h0v.17h0l-.17.17h-.17q0,.17-.17.34c0,.17,0,.34.17.34h-.17c0,.17,0,.34-.17.51-.17,0-.17.17-.34.34v.17h-.17c0,.17-.17.17-.17.34h0v.17h0v.17h-.17v.17l-.17.17v.17s-.17,0-.17.17h0q0,.17-.17.34h-.17v.17h-.17v.34s-.17,0-.17.17,0,.34-.17.51h0q0,.17-.17.34h0v.17s-.17,0-.17.17v.34h0v.17h0v.17h0v.34h0v.17h-.17v.51h-.17v.17h0v.17h0v.17h0v.17h-.17v.17h0v.17h0v.17h-.17c0,.17-.17.51-.17.69h-.17c.17,0,0,.51-.17.69v.17h0v.17h0v.17h0v.17s-.17,0-.17.17,0,.51-.17.69h0v.17h0c0,.17,0,.51-.17.69h-.17c0,.69-.34,1.03-.34,1.54h-.17v.34h0v.17h0v.17h0v.17h0v.17h0c0,.17,0,.34-.17.51h-.17v.69h0v.34h0v.34c0,.17-.17.17-.17.34h-.17c0,.34-.17.69-.17.86v.34c0,.17-.17.34-.17.69h-.17v.34h0v.17h0c0,.34-.17.86-.17,1.2h-.17v.34h0v.17h-.17v.17h0v.51h0v.17h0v.17h0v.51h-.17v.51h-.17v.17h0v.17h0v.17h0v.17h0v.34h0v.17h0v.51h0v.17h0v.17h0v.17h0v.34h0v.17c0,.17-.17.17-.17.34h-.17.17-.17.17-.17c0,.17,0,.51-.17.69h0v.17h0v.17h0v.17h0v.34h0v.34h-.17v.17h0v.51h0v.17h0v.34h0v.69s-.17,0-.17.17v.34h0v.34h0v.17h0v.17h0v.69h0v.34h-.17v.17h.17-.17v.34h0v.17h0v.17h0v.17h0v.34h0v.17h0v.17h0v.17h0v.17h-.17v.51c0,.17,0,.34-.17.51v.34h0v.17h0v.17h0v.51h0v.34h-.17v.34h0v.51h0v.34h0v.17h0v.17h0v.34h0v.34h0v.17h0v.17h0s0,.17-.17.17h0v.34h0v.17h0v.17h0v.34h0v.34h0v.17h0v.86h-.17v.34h0v.34h0v.17h0v.51h0v.17h0v.17h-.17v.17h0c0,.51-.17,1.2-.17,1.71h0v.69c-.17.34-.17.86-.17,1.37h-1.54v.17h0v.51h0v.17h0v.51h0v.34h0v.51h0v1.2h-.17v.34h0s.17,0,.17.17h0v.17h0v.17h0v.69h0v.34h0v.17h0v1.54h0v1.71h0v.34h-.17v.17h.17s-.17,0-.17.17h.17-.17v.17h0s.17,0,.17.17h-.17.17-.17.17c0,.17.17.51,0,.51h-.17v.17h0v.17h0s.17,0,.17.17h-.17.17q0,.17-.17.34h.17-.17.17c0,1.03.17,2.06.17,2.91h0v.34h0v.17h0v.69h0v.69h0v.34h.17c0,.34.17.69.34,1.03v.34h0v.17h.17v.34h0v.17h.17v.17h0v.17h0v.17h0v.17s.17,0,.17.17v.34h0v.17h.17v.17h.17v.34h.17q0,.17.17.34v.17h0v.17h0q0,.17.17.34h0v.34s.17,0,.17.17v.17h0q0,.17.17.34h.17v.17s.17,0,.17.17v.17h0q0,.17.17.34h.17c0,.17.17.17.17.34h.17v.17h0v.17h.17q.17.17.17.34h.17v.17h.17q0,.17.17.17h0v.17h.17v.17h.17q0,.17.17.17v.17h0c0,.17.17.17.17.34h.17v.17l.34.34v.17h0l.17.17h.17l.34.34v.17q.17,0,.34.17h.17v.17h.17s0,.17.17.17h.17l.17.17h.17s0,.17.17.17h.17s0,.17.17.17h.17s0,.17.17.17.17,0,.34.17v.17q.17,0,.17.17v.17h.17v.17h.17v.17c.17,0,.34.17.34.17v.17h.51s0,.17.17.17.17,0,.34.17c0,0,0,.17.17.17s.51.17.69.17v.17h.17v.17h.86v.17h.17v.17h.34c.17,0,.34,0,.51.17h1.89c.17,0,.34.17.51.17h2.06c.51,0,.86,0,1.37-.17v-.17h2.06v-.17h4.8q.17,0,.34-.17h1.89v-.17h.51v-.17h.17v-.17h.69v-.17h1.54v-.17c.17,0,.34-.17.51-.17v-.17h.17v-.17h.34v-.17h.17v-.17h.51c0-.17.17-.17.17-.34h.17v-.17c.17,0,0,0,.17-.17q.17,0,.34-.17v-.17h.17v-.17q.17,0,.34-.17s0-.17.17-.17h.17s0-.17.17-.17h.17s0-.17.17-.17.17,0,.34-.17c0-.17.17-.17.34-.17h.17v-.17c.17,0,.17-.17.34-.17q0-.17.17-.17t.34-.17v-.17h.17c0-.17.17-.17.17-.17q0-.17.17-.34h.17v-.17h.17l.34-.34c.17-.17.34-.17.34-.34.17,0,.17-.17.34-.34,0-.17.17-.17.34-.34h.17v-.17h.17q0-.17.17-.17v-.17h.17v-.17h.17v-.17q.17,0,.34-.17h.17v-.17h.17v-.17h.17q.17,0,.17-.17h.17c0-.17,0,0,.17-.17h0v-.17h0l.17-.17s.17,0,.17-.17l.17-.17c0-.17.17-.34.17-.34h.17v-.17h.17q0-.17.17-.34c.17,0,.17-.17.34-.17v-.17h.17v-.17s.17,0,.17-.17v-.17s.17,0,.17-.17v-.17l.17-.17h.17l.17-.17v-.34h0v-.17h.17c.17,0,.17-.17.17-.34h.34v-.17h0l.17-.17h0v-.17h.17v-.17h0v-.17c.17,0,.17-.17.17-.17h.17c0-.17,0,0,.17-.17h0v-.17h.17c0-.17.17-.17.17-.34h.17c0-.17.17-.34.17-.34h.17l.34-.34h.17c0-.17,0,0,.17-.17v-.17h0l.17-.34h.17q0-.17-.17-.17c.17,0,0,0,.17-.17h0v-.17s.17,0,.17-.17v1.2l.17-.17h.17v-.17h0v-.17h0q0-.17-.34-.17h0v-.51h0l.17-.17.17-.17h0v-.17l.17-.17c0-.17.17-.34.17-.51h.17v-.34h-4.46Zm-26.39-31.19c-.17,0,0,0,0,0h0Zm-31.02,59.81h0v-.69h0c0-.17.17-.17,0-.34l-.17-.17v-.17s-.17,0-.17-.17v-.17h0v-.17h0s0,0-.17,0q0-.17-.17-.34h0v-.17s-.17,0-.17-.17v-.17h-.17c0-.17-.17-.17-.17-.34v-.17s.17,0,.17-.17v-.51l-.17-.17c0-.17-.17-.34-.17-.34v-.17h-.17s-.17-.17-.17-.34h-.17v-.34h0v-.17h0v-.17h0v-.17h0v-.17h0v-.17s-.17,0-.17-.17,0-.34-.17-.51h0v-.17h0v-.34h0v-.17h0c0-.34-.17-.86-.17-1.2h-.17v-.34h-.17v-.34h-.17v-.34h0v-.51h0v-.34h0c0-.17-.17-.34-.17-.51h-.17v-.34h0v-.17h0v-.34h0v-.17h0v-.17h0v-.34h0v-.17h0v-.17h-.17v-.34h0v-.17h0v-.17h0c0-.34,0-.69-.17-.86h0v-.34h-.17v-.34h0v-1.54h0v-.17h0v-.51h0v.17h-.17v-.34h-.17v-.17h0c0-.51,0-.86-.17-1.37h0v-.17h0v-.34h0c0-.17,0-.34-.17-.51h0v-.17h.17v.17h.17c.17-.51,0-1.37-.17-1.71v-.69h0v-.17h0v-.17h0v-.34h0v-.34h0c0-.17-.17-.34-.17-.51v-1.2h-1.03v-1.37h0v-.51h0c0-.17.17-.17.17-.34h-.17v-.17h0v-.51h0v-.17h0v-.34h.17-.17.17l-.17-.17h.17c0-.34,0-.69-.17-.86,0-.17-.17-.51-.17-.69h0v-.51h0v-.69h0v-.17h0v-1.03s-.17-.17,0-.34h0v-.34h0v-1.54h0v-.17h-.17l.17-.17h-.17.17v-.51h0s-.17,0-.17-.17h.17-.17v-1.03h.17c0-.17.17-.69,0-.86h0v-.69c0-.17.17-.69,0-.86h0v-.34h0v-.34h0v-.69c-.17-.51,0-1.37,0-1.89h-.17v-1.03h0v-1.71c0-.34,0-.69-.17-1.03v-.69h0v-.17h0v-.34h0s-.17,0-.17-.17h.17-.17c0-.17,0,0,.17,0v-.17h0v-.17h0v-1.03h0v-.69h0v-.17h0v-.69h0v-.17h.17v-.51h-.17v-.34h0v-.17h.17v-.17h0v-1.54h0v-.17h0v-.51h0v-.17h0v-.17h0v-.17h.17-.17s.17,0,.17-.17h-.17.17v-1.54h.17c0-.17.17-.34.17-.51h.17v-.17h0v-1.03h0s0-.17,0-.17h0v-.17h0c0-.51.17-1.03.17-1.54h.17v-.34h.17v-.51h0v-.51h0v-.17h0v-.34h0v-.17h0v-.17h.17v-.17h0v-.51h0v-.17h0v-.17h0v-.17h0v-.69c0-.34.17-.51.17-1.03h.17v-.34h0v-.51h0v-.51h0v-.17h0v-.51h0v-.34h0v-.17h0v-.69h.17c0-.69.17-1.37.17-2.06h0v-.51h0v-.51h0c0-.17,0-.34.17-.51h.17v-.34h0v-.17h0v-.17h0v-.17h0v-.34h0v-.69h0v-.34h0v-.51s.17-.34.17-.51h0v-.34h0v-.17h0v-.34h0v-.34h0v-.34h0v-.86h0v-.17h0v-.34h0v-.86h0v-.17h0v-.17h0v-.17h0v-.17h0v-.86h0v-.51h0v-.17h0v-.17h.17v-.17h0v-.17h0c0-.17,0-.34.17-.51h0l.17.17h.17c0-.34.17-.51.17-.86h.17q0-.17.17-.34h0v-.34h0c0-.17,0-.86-.17-.86h0l-.17-.17h-.17l-.17-.34h-.34v-.17h-.34v-.34l-.17-.17v-.17h-.17v-.17h-.17c-.17,0,0-.17-.34-.17v-.17h-.17s0-.17-.17-.17h-.17v-.17c-.17,0-.17-.17-.17-.17h1.2s0-.17-.17-.17h-.17s0-.17-.17-.17h-.69v-.17h-.34v-.17h-.17l-.17-.17h.17-.34l-.17-.17h-.17v-.17h-.51c-.34-.17-.69,0-.86.17h-.51v.17h0c0,.17-.17.17-.17.34h-.17v.17c-.17,0-.17.17-.34.17,0,.17,0,.34-.17.51h0v.17h0v.17h-.17v.17h-.17v.17c-.17.17-.34.17-.34.34h-.17v.17h0l-.34.34h-.17c0,.17-.17.34-.17.34h-.17v.17h-.17v.17h0v.17h0v.17h0v.17h-.17q0,.17-.17.17c0,.34-.17.51-.34.69v.34h-.17v.34h0v.17h0v.17h0v.17h0v.17h-.17v.17h-.17v.17h0v.17h0v.17h0v.17h0v.17h0v.17h-.17v.34h-.17v.17h0v.17h0v.17h0c-.17.17,0,.51-.17.69l.17.17h-.17c0,.17-.17.51-.17.69h-.17q0,.17-.17.17v.86h0v.17h0v.17h0v.51h0v.17s-.17,0-.17.17v.17h0v.17h0v.17h-.17v.17h0v.51h0v.34h0v.17h-.17v.17h0v.17h0v.17h0v.34h0v.34h0v.17h0v.34h0v.17h0v.34h-.17v.51h0v.34h0v.69h0v.34h0v.34h0v.17h0v.86h-.17c0,.69,0,1.37-.17,1.89v.69h0v.34h0v.51h0v.17h0v.17h0v1.89h0v.69h0v1.54c-.17.34,0,1.03,0,1.37v.69h0c0,.17,0,.34-.17.51v.86h.17v.17h-.17v.51c0,.17-.17.17-.17.34h-.51q-.17,0-.17.17c-.17,0-.17.17-.34.17h-.17l-.17.17h-.17v.17h-.17l-.17.17c-.17.17-.34,0-.34.34-.17,0-.17.17-.34.17v.17h-.17v.17c-.17.17-.34.17-.34.34-.17,0-.34.17-.51.17,0,0,0,.17-.17.17h-.17v.17c0,.17-.17.17-.34.17h-.17v.17c-.17,0-.17.17-.34.17v.17h0v.17h0v.17h0v.17h0v.17h0v.17h-.17q0,.17-.17.34h0c0,.17-.17.17-.17.34-.17,0,0,0-.17.17h-.17v.17c-.17.34-.51.51-.51,1.03-.17,0-.17.17-.17.34h-.17q0,.17-.17.34s-.17,0-.17.17-.17.34-.17.34c0,0-.17,0-.17.17v.17h0v.34h-.17v.17h0c0,.17-.17.17-.17.34h-.17v.34h-.17c0,.17,0,.34-.17.51h-.17v.34h0q0,.17-.17.17c0,.17-.17.34-.17.34h0c0,.17,0,.34-.17.51h-.17c0,.34-.34.69-.34,1.2h-.17v.34h0v.17h0v.17h0q0,.17-.17.34h-.17v.17h0v.17h0v.34h-.17v.17h0v.17h0v.17h-.17v.34h0v.17h0v.17h0v.17h0v.34h0v.17h0v.17h0v.17h0v.17h0v.34h0c0,.34-.17.69-.17,1.03h-.17v.34h-.17v.17h0v.17h0v.17c-.17.34-.17.69-.17,1.03h-.17c0,.51-.17,1.03-.34,1.37v.34h0v.17h-.17v.69h0v.34h0v.17h0v.34c0,.17-.17.17-.17.34h-.17.17-.17v.17h0v.17h.17-.17c0,.34,0,.51-.17.69v.51c0,.17-.17.17-.17.51h-1.2c0,.34,0,.86-.17,1.2v.34c0,.17-.17.34-.17.69h-.17v.86h0v.69h0v.17h0v.34h0v.69h0v.17h0v.17h0v.17h0v.51h0v.17h0v.69h0v.34h0v.34h0v.51h0v.69h0v1.54h0v.17h0v.17h0v.17h0s0,.17.17.17h0v.86h0v1.54h0v1.03h0v.17h0v.34h0v.17h0v.34h0v.51h0v.34h0v.17h0v.17h0v.17h0v.17h0c.17.51.17,1.03.34,1.54h.17v.34h0c.17.17.17.34.17.69.17,0,.17.17.34.17v.17h.34s0,.17.17.17h.51v.17h.17v.17h1.37s0,.17.17.17h.69v.17h.69s0-.17.17-.17v.17h.17l.17.17h.86q0-.17.17-.17h1.54v-.17q.17-.17.34-.17c0-.17.17-.17.34-.17v-.17h.69c.17,0,0-.17.34-.17v-.17c.17,0,.34-.17.34-.34h.17v-1.89h.17v-.17c.17,0,.17-.17.34-.17h.17v-.17h0v-.17s.17,0,.17-.17,0-.17.17-.34h.17c0-.34.34-.34.34-.86.34,0,.17-.51.34-.69.17,0,.17-.17.34-.17v-.34c0-.17.17-.17.17-.34.34,0,0-.17.17-.34h.17s.17-.17.17-.34h.17v-.17l.17-.17v-.34h.17v-.17h0q0-.17.17-.34h0v.34h.17v-.51h0v-.17h0v-.17h.17q0-.17.17-.17h0v-.34h.17v-.17h0v-.17h0v-.17h0v-.17h.17v-.17h0v-.34h0v-.17h.17v-.34h.17v-.17h0v-.17h0s0-.17,0-.17h0v-.17h0v-.34h.17v-.17h0v-.17h0v-.17h0v-.17h0v-.34h0c0-.17.17-.17.17-.51h.17v.69h0c0,.17-.17.17,0,.34h0v.17h.17v.34h0v.34h0v.69h0v.17h0v.17h0v.34h0v.51h0v.17h0v.17h0v.17h0v.69h0v.17h0v.17h0v.51h0v.34h0v.17h0v.17h0v.34h0v.34h0v.17h0v.51h0v.17h0v.34h0v.34h.17v.17h0v.17h0v.51h0v.17h0v.17h0v.86h.17c0,.17,0,.34.17.51h.17v.17h0c0,.34,0,.69.17,1.03h.17v.34s.17,0,.17.17c0,.34.17.69.17,1.03h.17c0,.17,0,.34.17.51h0c0,.17,0,.34.17.51v.17h.17v.34h.17v.17h0v.17h0v.17h0v.17h0v.34h0v.17h0v.17h0v.17h0v.34h0c.17.17.17.51.17.69h.17v.51h0v.17h0q0,.17.17.34h0v.34h0v.17h.17v.17h.17v.17h0v.17h0v.34h0q0,.17.17.17c0,.34.17.51.34.86h.17c.17.34.17.69.34,1.03h.17v.17s.17,0,.17.17v.17h0v.17h.17v.34h.17c0,.17.17.34.17.69h.17v.17h.17v.17s.17,0,.17.17v.17l.17.17v.17s.17,0,.17.17v.17h.17v.17h0q0,.17.17.17c0,.17,0,0,.17.17v.17h.17s.17,0,.17.17h0v.17q.17,0,.17.17v.17h.17v.17s.17,0,.17.17.17.17.17.34h.17v.17q.17,0,.17.17h0v.17h.17v.17c.17,0,.17.17.34.17v.17h.17v.17q.17,0,.17.17h.34q.17,0,.34.17h.69v-.17h.51s0-.17.17-.17h.17v-.17q.17,0,.34-.17c.17,0,0,0,.17-.17h0v-.17c.34,0,.17-.34.69-.34v-.51h.17q0-.17.17-.17v-.17h0v-.51c-.34-1.54-.34-1.71-.17-1.89Zm-15.25-43.53v.34h-.17q0,.17.17.34h0v.17h0v.34h0v.17h0v.34h0v.17h0v.34h-.17v.17h0v.17h0v.17h0v.17h0v.17h0c0,.17-.17.17,0,.51h-.17c0,.51-.17.86-.17,1.2v.51h-.17v.17h0v.34h-.17v.34h0v.17h0v.69h-.17v.86h-.17v.17h0v.34h0v.34h-.17.17-.17.17-.17v.17h0v.34h0v.17h0v.34c0,.17-.17.17-.17.51h-.17v.86h0v.17h0c0,.17-.17.34-.17.51h-.17v.69h0v.51h0v.17h-.17v.34h0v.17h0v.17h0v.34h-.17v.34h-.17v.69h0v.17h0v.17h0v.17h0v.17h-.17v.17h-.17v.34h0v.17h0v.17h-.17v.17h0v.17h-.17v.51h0v.17h0v.17h0v.34h0v.17h-.17v.17h0v.17h0v.17h0v.17h0v.34h0q0,.17-.17.17v.34h0v.17h0v.34c0,.17-.17.17-.17.34h-.17c0,.51-.17,1.2-.51,1.37h0v-1.03c0-.17-.17-.34-.17-.51h0v-.17h0c0-.34,0-.51-.17-.86h0v-.17h0q0-.17-.17-.34h0v-.17h0c0-.34-.17-.69-.17-.86,0,0,.17,0,.17-.17v-.51h0v-.34h0v-.17h0v-.69h0v-.17h0v-.34h0v-.17h0v-.17h0v-.51h0v-.17h0v-.17h0v-.17h0v-.17h0v-.17h0v-.34h0v-.69h0v-.34h0v-.17h0v-.17h0c.17-.34-.17-.69,0-1.03h0v-.51h0v-.17h0v-.51h0v-.17h0v-.17h0q0-.17.17-.17h.17v-.34s-.17,0,0-.17h0v-.17h0v-.34h0v-.17q.17,0,.17-.17v-.34h0v-.51h0v-.69l.17-.17v-.17h0c0-.34.17-.69.17-1.03h.17c.17-.17-.17-.51,0-.69h.17v-.17h0c0-.34.17-.69.17-1.03h.17v-.34h0v-.17h.17v-.17h0v-.17h0v-.34h.17q0-.17-.17-.17h.17v-.51h0v-.51h0v-.17h.17q0-.17.17-.34h0v-.34h0v-.17h0v-.17h0v-.34h.17v-.17h0v-.17h0v-.17h0v-.34c0-.17.17-.34.17-.51h.17v-.17h0v-.17h.17v-.17h0v-.17h0v-.17l.17-.17v-.34h.17v-.51h0v-.17h.17v-.51h.17s.17-.34.17-.51h.17c0,.34.17.86.17,1.2h0v.17h0v.17h0v.51c0,.51.17,1.2.17,1.54v.86h0l.69.51s-.17,0,0,0h0Zm-156.12,61.01c0-.17,0-.34-.17-.34h0v-.17h0v-.51c0-.17-.17-.34-.17-.34h-.17l.17-.17h-.17.34v-.69h0v-.34h0v-.17h0v-.17h0v-.34h0v-.17h0v-.51h-.17v-.51h0v-.17h0v-.17h0v-.17h0v-.17c0-.17-.17-.34-.17-.51h-.17c0-.34,0-.86-.17-1.2h0v-.17h-.17v-.17h0v-.17h0v-.17h0v-.17h0v-.34h0v-.17h0v-.69h0v.34h.17q0,.17.17.34h.17v.17h.17c0,.17.17.17.17.34h.17v.34h.17v-.51h0v-.17h0v-.34h-.17.17v-.34h-.17v-.34h0v-.17h0v-.51h0v-.17h0v-.17h0v-.17h0v-.34h0v-.17h0c0-.34,0-.69-.17-1.2h-.17c0-.34,0-.51-.17-.69v-1.54h0c0-.17,0-.34-.17-.34q.17,0,.17-.17h.17v-.51h0v-.34h0v-.69h0v-.34h0v-.17h0v-.34h0v-.17h0v-.34h0v-.69h0v-.17h0v-.17h0c0-.17,0-.34.17-.51,0,0-.17,0-.17-.17h0s0-.34,0-.34c0-.17-.17-.51-.17-.69v-.34h0v-.69h0v-.34h0v-.17h0v-1.03h-.17v-1.03s.17-.34.17-.51h0v-1.54h0q0,.17.17.34h.17v-1.2h0v-.34h0v-.69h0v-.17h0v-1.03h-1.89v-1.03h0v-.17h0v-.17h0v-.69q0-.17.17-.34h.17v-1.71h-.34.17v-.34h-.17.17l-.17-.17h.17v-.17h0v-2.4c0-.17,0-.34-.17-.51h.17v-.17h0c0-.34-.17-1.03-.17-1.71,0-.34,0-.69-.17-.86h0v-.17h0c0-.34,0-1.03-.17-1.2v-.51h0v-1.89h0v-.34h0v-.34h0v-.34h0v-.34h0v-.17h0v-.34h0v-1.2h0v-.34h0v-.51h0v-.86h0v-.34h0v-.34h0v-.34h0v-2.74h0s0,0,.17,0v-.34h0v-1.03c0-.86,0-1.54-.17-2.4h0v-.17s-.17,0-.17-.17v-.34h0c0-.17.17-.34.17-.34v-.69h-.17v-.34h0v-1.2h0v-.17c.17.17,0,.34.17.69h0v.34h0v.17h0v.34c0,.17.17.17.17.34h.17v-.34h0v-.17s.17,0,.17-.17v-.17c0-.17,0-.69-.17-.86h-.17.17c0-.17,0,0-.17,0h.17v-.51h0v-.17h0v-1.54c.17-.51,0-1.2,0-1.71v-.17h0v-1.54h0v-.34h0v-.34h0v-.34h0v-.34h0v-1.2h0v-.17h0v-.34h0v-.51q0-.17.17-.17v-.34h0v-.34h0v-.51h0c.17-.34-.17-.51-.17-.86h0v-.86h0v-1.37h-.17v-1.03h0c0-.17.17-.17,0-.34h0v-1.54h0v-.69h0v-.34h0v-.34h0v-.69h0v-1.2h-.17v-4.28h0v-.69c0-.17.17-.51,0-.86h0v-.86h0v-1.2h0v-.17h0v-1.37h0v-3.08h0v-1.37h0v-.34h0v-.86s-.17-.34,0-.34c0-.17.17-.51.17-.86h0v-.86h0v-.51h0v-.34h0c0-.17,0-.34-.17-.34v-.86h0v-.17h0v-.17h0c0-.17-.17-.17-.17-.34h-.17c0-.34,0-.51-.17-.86h-.17v-.17h0v-.51h0v-.69h0v-.17h0v-.17h0v-.17h0l-.17-.17h-.17v-.17h-.17c0-.17-.17-.17-.34-.17h-.34v-.17h-.17v-.17h-.17s0-.17-.17-.17h-1.37s0-.17-.17-.17h-.51v-.17h-.34q-.17,0-.34-.17h-1.37q-.17,0-.34-.17h-.17c-.34-.17-.51.17-.69.17h-.17v-.17h-1.89c-.34,0-.51,0-.86-.17h-.34s-.51-.17-.51,0h-.17q0,.17-.17.34h-.17v.17h0v.17l-.17.17h-.17c0,.34,0,.69-.17.86h0v.17h0v.17h0v1.03h0v.17h0v.17h0v.17h-.17v.34h0v.86c0,.17-.17.51-.17.51v.51h0v.69c0,.17,0,.34-.17.51v.17h0v.69h0v.51c-.17.34,0,1.03,0,1.54v.69h0v.51h0v1.03h0v1.37h0v1.03h0v.17h0c0,.86.17,1.89.17,2.74v1.2h0v.17h.17s-.17,0-.17.17h.17-.17v.17h.17-.17v.17h0v.17h.17v.34h0v.17h0v.34h0v.34h0v.34h0v.51h0v.69h0v.34h0v.34h0v2.06h0v.51h0v.86l.17.17h-.17v.17h0v.34h0v.17h0v.17h0v1.54h.17v.34h0v2.57h0c0,.51,0,1.03.17,1.54v1.71c.17.34,0,1.37,0,2.06h.17v.34h0v2.23h0v.51c0,.34,0,.86.17,1.03v1.03c0,.17-.17.34,0,.51h0v.86h0v.17h0v.17h0v.17h.17-.17.17-.17.17-.17.17-.17c.17,0,0,.34,0,.51h.17c0,.51,0,1.03.17,1.37,0,2.4.17,4.63.17,7.03h.17v.34h0v.34h0v.86h0v.69h0v1.54c.17.34.17.69.17,1.2v1.54c0,.17.17.69,0,1.03h0v.34h.17c0,.69,0,1.37.17,2.23h0v.17h0v.51c0,.17.17.34.17.51v.51h0v1.03c0,.51.17,1.03.17,1.54h0v.69h0v.34h0v.34h0v.86h0v.69h0v.34h0v1.2h0v.34h.17v.69h0v.69h0v.17h0v.51h0v.34h0v1.2h0v.17h.17-.17v.17h0v.17h0v.17h0v.51h0v.17h0v.34h0v.51h0v.34h0v.17h0v.69h0v1.37h.17v.17h0v.34h0v.51h0v.17h0v.51h0v.34h0v.51h0v.69h0v.17h0v.17h0v.51h0v.17h0v.34h0c0,.51.17,1.03.17,1.54h.17v.51h0v.34h0v.17h0v.69h0v.17h0v.17h.17c0,.17-.17,0-.17.17h0v.51h.17v.51h0v.17h0v.86h0v.17h0v.17h0v.51h0v.17h0v.17h0v.17h0v.51h0v.17h0v.17h0v.51h0v.17h0v.17h0v.17h0v.17h0v.17h.17v.17h0v.17h0v.17h0v.17h0v.17h0v.51h0v.69h0v.34h0v.17h0v.34h0v.17h0v.17h0v.51h0v.17h0v.17h0v.34c.17.34.17.51.17.86h.17v.51h0v.17h0v.34h0v.34c0,.17.17.17.17.34h.17c0,.17,0,.34.17.34h.17v.17h0v.34h.17v.17h.17v.34h0q0,.17.17.34h0v.17h0v.17h0v.17h0v.17h0v.17h.17v.17l.17.17v.17h.17c0,.17,0,.34.17.51h.17v.17c.17,0,.17.17.34.34h.17c0,.17.17.34.17.34h0v.17q.17,0,.34.17c0,.17.17.34.34.34h.17v.17h2.06v-.17c.34,0,.69-.17.86-.17h.17v-.17h.17l.17-.17h.17l.17-.17q.17,0,.34-.17s0-.17.17-.17h.17v-.17h.17v-.17h.17s.17-.17.34-.17c0-.17.17-.34.17-.51h.34q.17,0,.17-.17c2.4-.86,2.23-1.03,2.06-1.37h0Zm-.34-2.06c-.17,0,0,0,0,0h0Zm0,.17c-.17,0,0,0,0,0h0Zm-1.03-6.85h0Zm-1.03-50.04c-.17,0,0,0,0,0h0Zm0-12.51c-.17,0,0,0,0,0h0Zm209.93-30.16q-.17.17,0,0c-.17.17-.17,0-.17.17v.34h.17v-.17h0c0-.17.17-.17.17-.34h-.17Zm85,6.51h0l.17-.34h-.17v.34Zm-58.09,12.68h2.4v-.17h1.2s0-.17.17-.17h.17l.17-.17v-.17h0v-.17h0v-.17h0v-.17c-.17,0-.17-.17-.34-.17q0-.17-.17-.17h0v-.17h0s0-.17-.17-.17h-.17v-.17h-.17.34v-.17h-.51c0-.17-.17-.17-.34-.34h-.17v-.17h-.17l-.17-.17v-.69h0q0-.17-.17-.17h-.51v-.17h-.17l-.17-.17v-.17s-.17,0-.17-.17v-.17h-.17q0-.17-.17-.17h0v-.17h-.17s-.17,0-.17-.17v-.17s-.17,0-.17-.17h0c-.17-.17-.17.17-.34-.17h-.34c-.17,0-.17-.17-.17-.17v.17h-.51v-.17h-1.37c-.17,0-.34-.17-.51-.17h-.34c-.17,0-.51,0-.69-.17h-.17s0,.17-.17.17h-1.03v-.17h-.69q0,.17-.17.17h-.51.17-.34v.17h-.17s0,.17-.17.17h-.51c0,.17-.17.51-.17.69h-.17v.51h.17v.17h.17s0,.17-.17.34h-.17v.17h.17v.17h0q0,.17.17.17,0,.17-.17.17v.17h0v.34h.17c0,.17.34.69.51.69h.17v.17h.51l.17.17h.17v.17h.51v.17c.17,0,.34.17.51.17v.17s.17.17.34.17h.51c.17,0,.17.17.34.17h4.63l-.34.69h0Zm-146.18,32.39v-3.26h0v-.34h0v-.17h0v-.51h0v-.34h-.17c0-.17,0-.34-.17-.34v-.51h0v-.17h0c0-.34,0-.69-.17-1.03h0v-.51c0-.17-.17-1.2,0-1.37h0v-.17h0v-.34h-.17v-.86h0v-.69h0v-.69h0v-.69h0v-.69h0v-.34h0v-.17h0v-.34h0v-.17h-.17v-.17h0v-.86c0-1.03,0-1.89.17-2.91h0v-.17h0v-.34h0v-.69h-.17v-.34h0v-.17h-.17v.17h0v-.51h0v-.17h-.17c-.17-.17,0-.69-.17-1.03h0v-.17h0c0-.34-.17-.34,0-.34v-.17h0v-.17h.17v-.17h-.17.17c0-.17,0,0-.17,0,0-.17,0,0,.17,0,0-.17,0,0-.17,0v-.34h0v-.17h0v-.17h0v-.69h0v-.34h0c-.17-.51.17-.86,0-1.37,0-.17.17-.69,0-.86h0q0-.17-.17-.34h-.34c0-.17.17-.51,0-.69,0-.17-.17-.51-.17-.86-.17,0-.17-.17-.34-.17v-.17q-.17,0-.17-.17c-.17,0-.17-.17-.34-.34h0v-.17h-.69.17-.17.17-.17v.17h0v-.17h-.34v.17h0v.17h0v.17h0v.34h0v.17h0v.17h-.17v.51h-.17v.51h0v.51h0v.17h0v.17h-.17v.51c0,.17,0,.34-.17.34v.34h0v.34h0v.34h0v.34h0v.69h0v.17h0v.17h0v.17h0v.17h0v.86h0v1.54h0v.17h0v.51h0v.51h0v.86h0v.17h0v.51h0v.34h0v.17h0v.17h0v.51h0v1.2h0v1.03h0v.69h0v1.03h0v.51c-.17.69-.17,1.37-.17,2.06h-1.54.17l-.17.17v.17h0v1.2c0,1.03,0,2.06-.17,3.08v.69h0v.17h0v1.37h0v.86c-.17.34,0,1.2,0,1.71v1.03h0v1.03h0v3.6h-.17v2.4h0v.34h0v.34h0v.69h0v.51c0,.34,0,.51-.17.86v1.03h0v.51h0v.34h0v.69h-.17v.86h0v.17h0v.34h0v.34h0v1.03h0v.34h0v.51h0v.17h-.17c0,.51,0,.86-.17,1.2v.34c-.17.34-.17.69-.17,1.03h-.51c0,.51,0,.86-.17,1.2v.51h0v.17h0v.17h-.17v.34h0v.17h0v.17h0v.17h0s.17,0,.17.17h0v.34h-.17c0,.17-.17.17-.17.34h-.17v.17h0v.17h0v.17h0v.17h0l-.17.17h-.17c-.34,0-.51-.51-.51-.69h-.17v-.17h0v-.17h-.17v-.17h-.17c0-.17,0-.34-.17-.34h-.17v-.17h0v-.17h-.17.17c0-.17,0,0-.17,0v-.17h0v-.17h-.17v-.34l-.17-.17v-.17h0c0-.17,0-.34-.17-.51h0v-.17h0v-.17h0v-.34h-.17v-.34h0v-.17h0v-.34h0v-.34l-.17-.17h-.17c0-.17-.17-.34-.17-.51h0v-.51h0v-.17h-.17v-.17h-.17v-.51h0v-.17h0v-.17h0s0-.17,0-.17h0c0-.17,0-.34-.17-.51h-.17v-.34h0v-.17h0v-.34h0v-.34h0v-.17h0v-.17h0v-.17s-.17,0-.17-.17v-.51h0v-.17h0v-.17h0v-.17h-.17v-.51h0v-.17h0v-.17h0v-.17h-.17v-.17h0v-.17h0v-.17h0v-.51h0v-.17h0v-.17h0v-.34h0v-.34h-.17v-.17h0c0-.17,0-.34-.17-.51h0v-.17h0c0-.17,0-.51-.17-.69h-.17v-.51h0v-.51h0v-.17h0v-.17h0v-.17h0v-.34h0v-.17h0c0-.34-.17-.69-.17-1.03h-.17c0-.17-.17-.34-.17-.51v-.86h0v-.17h0v-.17h0v-.17h0v-.34h-.17v-.17h-.17v-.17h0v-.17h0v-.34h0v-.17h-.17v-.17h0v-.69h0v-.51q-.17,0-.17-.17v-.69h0v-.17h-.17s.17-.17,0-.17c0,0-.17,0-.17-.17v-.34h-.17v-.17h0v-1.2h0v-.17h0v-.34h0v.69h0v-.17h0v-.17h-.17c0-.34-.17-.51-.17-.86h0v-.17h0v-.17l-.17-.17h0v-.17h0v-.34h0v-.17h-.17c0-.17-.17-.17-.17-.34h-.17c0-.17-.17-.51-.34-.69h-.17v-.17h0v-.17h-.17v-.17h-.17v-.17h0v-.17h-.17v-.17h0v-.17h0s0-.17-.17-.17h-.34v-.17h-.17l-.17-.17v-.17h-.17v-.17h-.51c-.17,0-.17-.17-.34-.17v-.17h0l-.17-.17h0c-.17,0-.17-.17-.34-.17v-.17h-.17v-.17q-.17,0-.34-.17h-.34s0-.17-.17-.17h-.34v-.17h-.17v-.17h-3.26v.17h-.17s-.17-.17-.17,0h0c-.17,0,0,0-.17.17h0v.17h0v.17h0v.34h-.17q0,.17-.17.34h0l-.17.17h-.17c0,.34-.17.69-.17.86l-.17.17v.17h0v1.03h.17v1.37c-.17.34,0,.86,0,1.2v1.2h0v.34h0v.17h0v.51h0v.69h0v.69h0v.34h-.17v.34h0v.69h.17v.69h-.17v.34h.17v.69h-.17v.17h0v.17h0v1.2h0v.17h0v1.37h0v1.37s.17.34,0,.51h0v.34h0v.17h0v.17h0v.34h0v.34h0v.51h0v2.06h0v.17h0v1.71h-.17v.51h0v.17h0v.51h0v-.17h0v-.17h0v-.17h0v-.17h0v-1.71h0v-.34h0v-.17h0v-.34h0v-.17h0v-.69h0v-.17s-.17,0-.17-.17v-.34h0v-.34h0v-.34h0v-.17h0v-.17l-.17-.34s.17-.51,0-.69h-.17v-.17h0v-.86h0v-.17h0v-.17h0v-.17h0v-.34h0v-.51h0v-.17c0-.17,0-.34-.17-.51v-.51h0v-.17h0v-.34h0v-.34h0v-.17h0v-.17h0v-.86h-.17v-.17h0v-.51h0v-.86h0v-.17h0v-.51h0v-.51h0v-.34h0v-.17h0v-.34h0v-.51h0v-.34h.17v-.34h-.17q0-.17-.17-.34h0v-.17h0v-.86h0v-.17h0v-.69h0v-.17h-.17s.17-.51,0-.69h0v-.17h0v-.17h0v-.51h0v-.51h0v-.51h0v-.17h0v-.34h0c0-.17,0-.34-.17-.51v-1.03h0v-1.03h0v-.69h0v-.17h0v-.17h0v-.34h-.17.17v-.86h0v-1.03h0v-.51h0v-.34h0v-.17h0v-.34h0v-.34h0v-.17h0v-.17h0v-.34h0v-.17h-.17c0-.17,0-.34.17-.51v-.34h0v-.17h0v-.17h0v-.69h0v-.17h0v-.17c0-.17-.17-.17-.34-.34v-.17c-.17,0-.34-.17-.34-.17h-.51v-.17c-.17,0-.17-.17-.34-.17h-.34v-.17h-.17s0-.17-.17-.17h-1.37c-.17,0-.17-.17-.34-.17v-.17h-.86v-.17h-3.08c-.17,0-.51-.17-.69-.17h-.17q-.17,0-.34.17h-.34,0s0,.17-.17.17c-.17.17-.34.17-.51.34h-.17c0,.17-.17.17-.17.34h-.17c0,.17-.17.34-.17.34h0c0,.17,0,.34-.17.34l-.17.17v.17h0v.34h0v.34h0c0,.17-.17.51-.17.69h.17v.51h-.17v.17h0v.17h0v.34h0v.17h-.17v.17h0c0,.34.17.51.17.86h0v.34h0v.86h0v.17h0v.17h0v1.03h0v3.08h0v.51c.17.51.17,1.2.17,1.89h.17v.34h0v.17h0v.34h0v.34h0v.86h0v.34h0v.17h0v.34h.17-.17v.17h0v.17h.17l-.17.17h0v.17h0v.17h0v.17h0v.17h0v.51h0v.34h0v.34h0v.34h0v.17h0v.51h0v.51h.17v.17h0v.69h0v.51h0v.17h0c0,.17,0,.51.17.51v.34h.17l-.17.17h0v.17h0v.17h0v.17h0v.69h0v.17h0v.34h0v.34h0v.51h0v.34h0v.17h0v.17h0v.86h0v.17h0v.34h0v.51h0v.17h0c0,.17,0,0,.17,0h-.17v.17h0v.17h0v.17h0v.17h0v.17h0v.17h0v.34h0v.51h0v.17h0v.51h.17v.51h0v.17h0v.34c.17.34.17.86.17,1.2h.17c0,.17,0,.51.17.69h0v.17h0v.51h0v.17h0v.34h.17c0,.17,0,0-.17,0h0v.17h0v.17h.17c0,.17,0,.51.17.69v.34c.17.34.17.86.17,1.37h.17v.51h0v.86h.17c0,.34,0,.86.17,1.2h.17c.17.51.17,1.03.34,1.71v.34h0s.17,0,.17.17v.51c.17.34.17.86.17,1.2v.34h0v.17h0v.17h0v.51h0v.17h.17v.17h0v.69h0v.17h0v.17h0v.17h0v.17h0v.17h0v.17h0v.17h.17v.17h0s.17,0,.17.17v.51h0v.17h0v.17h.17v.51h.17v.17h0v.17h0v.17h.17v.51h.17v.34h.17v.17h0v.17h0v.17h0v.17h.17s.17.17.17.34h.17v.17h.17v.17c.17,0,.17.17.34.17v.17c.17,0,.34.17.34.17v.17h.51v.17h4.28c.34-.17.86,0,1.37-.17h.34v-.17h.51s0-.17.17-.17h.17v-.17h.17v-.17h.51l.17-.34h.17v-.34h.17c0-.17.17-.17.17-.34q.17,0,.17-.17v-.34h0q0-.17.17-.34h0v-.17h0v-.17h0c0-.17,0-.69-.17-.69h0c-.17-.34.17-1.03.17-1.37h.17v-.34h0v-.51h0v-.69h0v-.51h0v-.34h0v-.17h0v-.17c0-.17-.17-.69-.17-1.03h0v-.17h0v-.34h0v-.17h0v-.17h0c0-.17-.17-.34-.17-.51h0v-.51h0v-.17h0v-.51h0v-.34h0v-.86h0c0-.34-.17-.51-.17-.69h0v-.86h0v-.17h0v-.51h0v-.17h0v-.86h0v-1.37h0v-.69h0v-.51h0v-.51h0v-.17h0v-.17h0v-.17h0v-.17h0v-.17h0v-.17h0v-1.2h0v-.51h0v.17h0v.17h0v.17h0v.17h0v.17h0v.34h0v.17h0v.17h0v.17h0v.17h0v.17h0v.17h0v.17h0v.17h0v.17h0v.34c0,.17.17.34.17.69h.17c.17.17,0,.17.17.34h0v.34h0v.17h0c0,.17.17.69.17.86h.17v.34h0v.17h0c0,.17.17.51.17.69h.17c0,.34.17.51.17.69v.51c0,.17.17.17.17.34h.17c.17.17,0,.17.17.34,0,.17.17.51.17.86h.17c.17.34.17.86.34,1.2h.17v.17h.17v.17c0,.17.17.17.17.34h.17c0,.17,0,.34.17.34v.17h.17v.17h0v.17h0v.17l.17.17v.17h.17v.17h0v.17s.17,0,.17.17v.17h.17c0,.17.17.17.17.34h.17v.34h.17s.17.17.17.34h.17c0,.17.34.51.51.51v.17c.17,0,.17.17.34.17h.34s0,.17.17.17h0v.17l.17.17v.17q.17,0,.34.17v.17h.69s0,.17.17.17h.51s0,.17.17.17h.17s0,.17.17.17h.51v.17h2.91v.17h.51v-.17h.86v-.17h.51s0-.17.17-.17h1.89v-.17h.17v-.17h.34v-.17q.17,0,.17-.17h.51s0-.17.17-.17h.17s.17,0,.17-.17v-.17l.17-.17h.17v-.17h.17v-.17h0c0,.17.17-.17.17-.17h.17v-.34c.34,0,.34-.34.34-.51,0,0,.17,0,.17-.17v1.54h.17v-.17h.17v-.17h.17v-.17h0s0-.17.17-.17h.17v-.34q-.17,0-.34.17v.17l-.17.17h1.71q0,.17-.17.34h0v-.17h0v-.17h.17v-.17h0v-.17s.17,0,.17-.17,0-.34.17-.51h.17v-.17h0v-.34h0v-.17h0v-.17h0v-.17h0v-.34h.17v-.17h0v-.17h0v-.34h0v-.17h0v-.34h0v-.51h0v-.17h0v-.17h.17v-.34h0v-.17h0v-.51h0v-.69h.17c0-.17,0-.34.17-.51h0v-.17h0c0-.69.17-1.2.17-1.89h.17v-.34h0v-.17h.17v-.17h0v-.34h0v-.69c0-.17.17-.34.17-.34v-.34h0v-1.03h0c0-.51,0-1.03.17-1.54h.17c0-.17,0-.34.17-.34.17-.34,0-1.03,0-1.2v-.86h0v-.17h0v-.69c0-.51,0-.86.17-1.37v-1.03h0v-.17h0v-.34s-.17,0-.17-.17h0s0-.51,0-.51h0v-.34h0v-.51h0v-1.37h0v-1.37h0v-.34h0v-.51h0v-.51c.34,0,.34-.86.51-1.03h0Zm-28.96,3.6h0s0,.17,0,0Zm0,0h0Zm1.89,12.17h0Zm0,.17h0Zm.17.17h0Zm14.22,0c.17.17.17,0,0,0,0,0,.17.17,0,0Zm171.88-35.99c0-.17,0-.34.17-.51h0v-.17h0v-.17h0v-.17h0v-.34h0q-.17-.17-.17-.34h0v-.17h-.17c-.17,0-.17-.17-.34-.17q0-.17-.17-.17v-.17c-.17,0-.17-.17-.34-.17h-.17v-.17c-.17,0-.51-.17-.69-.17v-.17c-.17,0-.17-.17-.34-.17h-.86v-.17h-1.2v-.17h-.34v.17h-1.37c-.51,0-.86,0-1.37.17h-.34c-.34,0-.17,0-.34.17h-.34c0,.17-.17.17-.17.17v.17q-.17.17-.17.34c-.17,0-.17.17-.34.17,0,.51-.17.69-.17,1.03h-.17c0,.17-.17.17-.17.34v.51h0v.17h0v.17h0v.17h0v.17h0v.17h-.17v.51h0v.17h0v.17h0v.34h0v.17h-.17v.34h0v.86h0v.17h0v.17h0v.34h0v.17h0v.17h-.17v.17h.17-.17.17-.17v.17h.17-.17.17-.17.17-.17v.17h-.17l.17.17h-.17c0,.34-.17.86-.17,1.2h-.17v.69h-.69c0,.34,0,.51-.17.86v.51h0v.69h0v.34h0v.86h0v.34h-.17v.51h0v.17h0v.86h0v.34h0v.17h0v.51h0v.69h0v.86h0v1.37h0v.34h0v.34h-.17v.34h0v.17h0v.17h0v.17h0v5.14h0v.17h0v.17h.17v.17h0v.34h0v.51h0v.51h0v.17h0v.34h0v2.74c0,.17-.17.34,0,.51,0,.17.17.86,0,1.03h0v.17h0v.17h0v.17h0v.34h0c.17.51-.17.86-.17,1.37h0v.86h0v1.54h0v.17h0v.34h0v.34h0v.34c0,.17-.17.17,0,.34h0v.17h0v.17h0v.17h0v.17h-.17v.17h0v.51h0v2.91c0,.34,0,.69-.17,1.2h0v2.74h0v1.89h0v.69h-.17v.34h0v.17h0v.34h0v.17h0v.34h0v.34h0v.69h0v.51h0v.34h0c0,.17.17.17.17.34h.17c0,.17.17.34.34.51.17,0,.17.17.34.17h.34c.34.17,1.03-.17,1.2-.17h.17v-.17h1.89c.17,0,.34,0,.51-.17h.34l.17-.17h.17v-.17h.17v-.17h1.03l.17-.17h.17v-.17h.17v-.17c.17-.17.34-.17.69-.17v-.17h.17v-.34h.17v-.17h.17v-.17h0v-.51h0v-.34h0v-.34h.17c0-.34.17-.69.34-.86v-.51h0v-.17h0v-.34h.51c.17-.69.34-1.54.17-2.06v-.17h0v-.17h-.17.17v-.17h0v-.17h0v-.34h0v-.34h0v-.17h.17v-.17h0v-.17h0v-.17h0v-.86h.17c0-.34.17-.51.17-.86h.17v-.17h0v-.17h0v-.17h.17v-.34h0v-.86h0v-.34h0v-.17h0v-1.2h0v-.51c.17-.34,0-1.03.17-1.37,0-.34,0-.51-.17-.86h0v-.51h0v-.17h0v-3.6h0v-1.03h0v-.86h0v-.51h0v-.69c0-.17-.17-.17,0-.34,0-.17.17-.51.17-.69v-.34h0v-.17h0v-.34h0v-2.06h0v-.17h0v-1.71h0v-.86h0v-.69h0c0-.17-.17-.69,0-1.03h0s-.17,0-.17-.17h.17s-.17,0-.17-.17h.17v-.17h0v-.17h0v-.34h0v-.34h0v-.34h0v-.17h0v-1.03h0v-.69h0v-.69h0v-.51c0-.17.17-.34.17-.51,0-.69.17-1.54.17-1.71h.17c0-.34,0-.86.17-1.03v-.34h0v-.51h0v-.17h0v-.51h0v-.17h0v-.51s.17,0,.17-.17v-.34h0v-.34h0v-.34h0v-.17h0v-.51h0v-.17h0v-.86h-.17.17v-.34h0v-.34h0v-.17h0v-.51h0v-.17h0v-1.37c0-.17.17-.51,0-.69.51,0,.69-.17.51-.17Zm-115.16,12.17h0c-.17-.17,0-.51,0-.51h0v-.17h0v-.17h0v-.17h0v-.17h0v-.17h0v-.17h0v-.17h0v-.17h0v-.17h0v-.17h-.17s.17,0,.17-.17h-.17v-.34s.17,0,.17-.17h-.17v-.51h0v.51h0v-.34h0v-.34h0v-.17h0v-.17h0v-.34h0v-.17h0v-.17h0v-.34h0v-.17h0v-.17h0v-.34h0v-.17h0v-.17h0v-.17h0v-.17h0v-.17h0v-.17h-.17c0-.17,0-.34.17-.51,0-.34,0-.51-.17-.69v-.51c-.17,0,0,0-.17-.17h0v-.17h0v-.17h-.17l-.17-.17v-.17h0v-.17c-.17,0-.17-.17-.34-.17v-.17h-.34c0-.17-.17-.17-.17-.17v.17h0l-.17-.17h-.17l-.17-.17h-.34c-.17,0-.17-.17-.34-.17v-.17h-.17v-.17h-1.54s0-.17-.17-.17h-.69v-.17h-.69v-.17h-.17v-.17h-2.4v.17h-.17c0,.34-.17.17-.17.34v.17h0v.17h0v.17s-.17,0-.17.17,0,.17-.17.34h-.17c0,.17,0,0-.17.17h0v.17h0l-.17.17h-.17v.17h0v.17h-.17v.17h0l-.17.17h-.17v.34s-.17,0-.17.17v.17h-.17v.17h-.17v.17h0v.17h-.17v.17l-.17.17h-.17q0,.17-.17.34c-.34.17-.34.34-.69.51,0,.17-.17.17-.34.34h.17-.17v.17h0v.17s-.17,0-.17.17h-.17q0,.17-.17.34h0l-.17.17h-.17v.17c-.17,0,0,0-.17.17l-.17.17v.17h0l-.17.17h-.17c0,.17-.17.34-.17.34h-.17v.17c-.17,0-.17.17-.34.17v.17h-.17s-.34.69-.34.86h-.17c0,.34-.34.34-.34.69h-.17c0,.17,0,.34-.17.34,0,0-.17,0-.17.17v.17h0v.17h.51v.34s-.17,0-.17.17v.17h0v.17h-.17v.17h0v.17h0v.17h0v.34c0,.17-.17.17-.17.34h-.17v.17h0l-.17.17h-.17v.17h0v.17h0c0,.17-.17.17-.17.34h-.17v.34h0v.17h0v.17h-.17v.17h0v.17h0v.34h-.17v.17h-.17v.17h0c0,.17,0,.34-.17.51h0v.34c0,.17-.17.17-.17.34h-.17c0,.51-.34.86-.34,1.37h-.17c0,.34,0,.51-.17.86,0,.17-.17.51-.17.86h-.17c0,.51-.17.86-.34,1.37h-.17c0-.17,0-.34-.17-.51h0v-.17h0v-.17h0v-.17h0v-.34s-.17,0-.17-.17v-.17l-.17-.17v-.17h0v-.17h0v-.17h-.17v-.17h0v-.17h0q0-.17-.17-.34h0v-1.03s-.17,0-.17-.17,0-.34-.17-.34c0-.17-.17-.17-.17-.34h.17c0-.17-.17-.34-.17-.51h-.17q0-.17-.17-.17h0c-.17-.17,0-.34-.17-.34v-.17h-.17c0-.34-.34-.34-.34-.69h-.17v-.17h0v-.17h-.17q0-.17-.17-.34h0l-.17-.17c-.34,0-.51-.34-.51-.69-.17,0-.17-.17-.34-.17h-.17c0-.17,0,0-.17-.17v-.17h-.17q0-.17-.17-.17h-.17c0-.17-.17-.17-.17-.17h0l-.17-.17v-.17c-.17,0-.17-.17-.34-.17h-.17c-.17,0-.17-.17-.34-.17,0-.17-.51-.34-.51-.69h0q0-.17.17-.34h.17c0-.17.17-.17.17-.34h0v-.17l.17-.17v-.17l.17-.17v-.17h0v-.17h.17v-.34h-.17c0-.17,0-.34-.17-.34v-.17l-.34-.34v-.17l-.17-.17v-.17s-.17,0-.17-.17v-.17c-.17-.17-.51-.34-.51-.69h-.34s-.17-.17-.17-.34v-.17q-.17,0-.34-.17h-.17v-.17h-.17v-.17h-.17.34-.34v-.17c-.34-.17-.51.17-.86.34v.17s-.17,0-.17.17c-.17.17-.34.34-.34.51h-.34v.17h-.17v.17h-.17v.17q-.17,0-.17.17h-.17v.17h0v.17h-.17v.17h0v.17s-.17,0-.17.17v.17l-.17.17q-.17.17-.17.34s-.17.17-.34.17h-1.37c-.17,0-.34-.17-.51-.17h-1.2,0-.86c-.34.17-.86.17-1.37.17v.17h-.51v.17h-.17v.17h-.17v.17h-.17v.17h-.17,0-.17s0,.17-.17.17h-.17c0,.17-.17.17-.17.34h-.17l-.17.17h-.17v.17h-.17v.17l-.34.34v.17h-.17v.17l-.17.17v.17h-.17c0,.17,0,.34-.17.34h0v.17l-.17.17h-.17c0,.34-.17.51-.34.86,0,.17-.17.34-.17.51s-.17.17-.17.34h-.17c0,.17-.17.34-.17.51v.51h0v.51h0v.34h0v.34h-.17v.17h.17v1.54c.17.34.34.86.34,1.37h.17v.34h.17v.17h0v.17h0v.34h.51v.17h.34c.17,0,.34,0,.51-.17q0-.17.17-.34h.17q.34,0,.34-.17v-.17h0v-.17h.17c.17-.17.17-.51.17-.69h.17v-.17h.17l.17-.17c0-.34.17-.34.34-.69,0-.17,0-.34.17-.51q0-.17.17-.17c0-.17.17-.34.17-.69q.17,0,.17-.17v-.34h0v-.17h0c.17,0,.17.17.34,0h0v-.34h.17c0-.17,0-.34.17-.34h.17l.17-.17h0v.17h.17v-.17h.17c0-.34.17-.17.17-.34h.17c0-.17.17-.34.17-.51h.17l.17-.17h.17s.17,0,.17-.17h0v-.17h.17c0-.34.17,0,.34-.17h0l.17-.17v-.17h1.37v.34h-.17v.17h0v.17h0v.34h0c0,.17-.17.17-.17.51h-.17c0,.17,0,.69-.17.86h-.17v.17s-.17,0-.17.17,0,.51-.17.69h-.17v.17h0v.17h0v.17l-.17.17h.17-.17v.17h0v.17h-.17v.17h-.17v.17h0v.17h0v.17h0v.34l-.17.17h-.17c0,.34,0,.69-.17.86h0v.51h0v.17h-.17c0,.17,0,.51-.17.69h0v.17h0v.17h0v.51h-.17c0,.17,0,.34-.17.34v.69h-.17v.17h0v.17h0v.34h-.17v.17h0v.17h0v.17h0v.17h0v.34h0v.17h0v.51h0v.17h0v.34h-.17v.17h0v.17h0v.86c-.17.34-.17.86-.17,1.2v.69h0c0,.34,0,.69-.17,1.03h-.17.17q0,.17-.17.17l.17.17h-.17v1.03h.17v.17h0v.51h0v.17c0,.34-.17.86,0,1.03h.17v.51c0,.17,0,.34.17.34v.69h0v.17h0v.51h0v1.03h0v.17h0v.34h0v.17h0v.17h0v.51h.17v.51h.17c-.17,0,0,.51.17.69v.34h0v.17h0v.17h0c0,.17,0,.34.17.51h0v.17h0v.51h0v.17h.17v.17s.17,0,.17.17v.34h0c0,.17.17.17.34.17q0,.17.17.34h.17v.17h0c0,.17.17,0,.17.17h.17v.17h.17v.17h.17v.17c.17,0,.17.17.34.17h.17s0,.17.17.17h.17v.17h.17c.17,0,.34.17.51.17v.17c.34,0,.69.17,1.03.34h3.43v-.17h1.03v.17h1.37v-.17h.69q.17,0,.34-.17h.17q.17,0,.17-.17.17,0,.34-.17h.34l.17-.17h.34v-.17s.17,0,.17-.17v-.17q.17,0,.17-.17h.17s0-.17.17-.17v-.17h.17c0-.17.17-.17.17-.34q.17,0,.34-.17c0-.34.17-.51.34-.86.17,0,.34-.34.34-.51h.17c0-.17.17-.34.17-.51h.17v-.17h0v-.17h.17v-.17h0v-.17h0c0-.17,0-.34.17-.34l.17-.17c.17-.34.17-.69.34-1.03h.17v-.17h0v-.17h0v-.17h0v-.17h0v-.17h0c0-.17,0-.34.17-.34h.17c0-.34.17-.51.17-.86h.17v-.34h.17s-.17,0-.17-.17h.17s-.17,0-.17-.17h0q0-.17.17-.34h0v.34h0v.17h0v.17h0v.34h0v.17h0v.17h0v.17h0v.17h0v.17h.17v.17h0v.34h.17c0,.17.17.51.17.69h.17v.34h0v.17h0v.17h0v.17h0v.17l.17.17v.17s.17,0,.17.17v.17l.17.17q.17.17.17.34v.17c.17,0,.17.17.34.17q0,.17.17.17c.17,0,.17.17.34.17h.17v.17h.17l.17.17h.17v.17h.17l.17.17q.17,0,.34.17v.17h.17v.17h.69v.17h2.57c.17,0,.51,0,.51-.17.17,0,.34,0,.34.17h.34c.34,0,.69,0,.86-.17h0c.34,0,.51,0,.69-.17h1.03l.17-.17h.17v-.17h.17v-.17h.51l.17-.17h.17c.17,0,.17-.17.34-.17v-.17h.17s0-.17.17-.17c.17-.17.17,0,.17-.17q.17,0,.34-.17v-.17h.17s0-.17.17-.17h.17v-.17h0v-.17s.17-.17.34-.17c0-.34.17-.34.34-.69h.17v-.17s.17,0,.17-.17v-.17h0v-.17l.17-.17h.17v-.17h.17c0-.17.17-.34.17-.51l.17-.17q0-.17.17-.34h.17v-.17l.17-.17v-.17h0c0-.17.17-.34.17-.34h0v-.17h.17-.17.17c0-.17.17-.17.17-.34h.34c0-.17,0-.34.17-.34h.17q0-.17.17-.34h0v-.17h0v-.17h0v-.17h0v-.17h0v-.17h.17c0-.17,0-.34.17-.51,0,0,.17,0,.17-.17v-.34h0v-.17h0v-.17h0v-.34h.17v-.17h0v-.17h0v-.17h0v-.17h0v-.17h0s0-.17,0-.17h0v-.17h0v-.17h.34v-.17h0v-.17h0v-.17h0v-.17h0v-.51h0v-.17h.17v-.34h0v-.34h0v-.51h0v-.34h0v-.34h0v-.34h0v-.69h0v-.51h0v-.17h0v-.17h0v-.34h.17v-.17h0v-.34h0v-.17h0v-.34h0c0-.34,0-.69.17-1.03v-.17h.17-1.37.17v-.17c0-.17.17-.34.17-.34h.17v-.17s-.17,0-.17-.17h0v-.86h0v-.17h0v-.51c.17-.51,0-1.03.17-1.54v-.51c0-.34,0-.69.17-1.03v-1.03h0v-.17h0v-.17h0v-.34h0v-.17s.17-.17.17-.34-.17-.69,0-.86h0v-1.2c-.17-.17-.17-1.03-.17-1.37Zm-30.5,23.82c0,.17,0,0,0,0,0,0,0,.17,0,0Zm5.66-7.88h0v.51h0v.17h0v.17h0v1.54h-.17v.17h0v.17h0v.17h0v1.03h0v.17h0v.34h0v.51h-.17v.17h0v.51h0v.17h0v.17h0v.34h0v.17h0v.17h0v.34h0v.17h0v.17h0v.34h0v.17h0v.34h-.17c0,.17,0,.34-.17.51h0v.17h-.17v.17h-.17v.17h-.17v.34h0v.17h0v.17h0v.17h-.17v.17h0v.17h-.17v.17h0v.34h0c-.17.17-.34.17-.34.34h-.17c0,.17-.17.17-.17.34h-1.03l-.17.17v.17h-.34c-.17,0-.34.17-.34.17h-.34v-.17h-.17l-.17-.17h-.17c-.17,0-.17-.17-.34-.17,0-.17-.17-.34-.17-.51h-.17v-.17h-.17v-.17h0v-.17h0v-.17h0v-.34h0v-.17h0v-.17h0v-.69h0v-.69h-.17.17v-.17h0v-.17h0v-.17h0v-.17h0v-2.74h0v-.51h0v-.17h0v-.34h0v-.86h0v-1.03h0v-.34h0v-1.03h0v-.86h0v-.69h0v-.17h.17v-.51h0v-.17h0v-.51h0v-.17h0v-.17h0v-.17h0v-.69h0v-.69c0-.17.17-.17.17-.34h.17v-.17h0v-.34h-.17v-.34h.17c0-.51.17-1.03.17-1.54h0v-.17h0v-.34h0v-.17h0v-.17h0v-.34h0v-.17h.17v-.17h0v-.51s.17,0,.17-.17v-.34h.17v-.51h.17v-.17h0v-.17h0v-.17h0v.17h0v-.34c0-.34.17-.51.17-.86h.17c0,.17.17.17.17.34h.17q0,.17.17.17c.17,0,.34.34.34.51h.17c0,.17.17.34.17.34h.17v.17h0v.17h0v.17s.17,0,.17.17,0,.34.17.34c0,0,.17,0,.17.17.17.17.34.51.34.86h.17v.34h.17v.17c0,.17.17.34.17.51h.17c0,.34.17.51.17.86h0v.51h.17c0,.17,0,.34.17.51h0v.34h0v.51h0v.17h0v.17h0v.69h.17c0,.34,0,.51.17.86v1.2c.34.17.34,1.03.34,1.2Zm19.02-12.34v2.06h0v.86h0v.17h0v.17h0v.17h0v.51h0v.51h0v.17h0v.17h0v.51h0v.86h0v.34h0v.34h0v.34h0v.34h0v.17h0v.17h-.17v.17h0v.69c-.17.34-.17.69-.17,1.03v.34h0v.17h0v.34h0v.69h-.17v.17h0v.34h0v.17h0v.17h0v.51h0v.17h0v.17h0v.17h-.17v.17h0v.34h0v.17h-.17v.17h0v.34h0v.17h-.17c0,.17,0,.34-.17.69h-.17v.51h-.17v.34h0c0,.17-.17.34-.17.34h-.17v.51h0v.17h0v.34h0s0,.17-.17.17h-.17c0,.34-.17.86-.34,1.03q0,.17-.17.17c0,.17,0,.34-.17.51h0v.17h-.17v.17s-.17,0-.17.17v.17h0v.17s-.17,0-.17.17v.34l-.17.17v.17h0c-.17.17-.17.34-.34.34h-.17v.34h-.17v.17h-.86v.17l-.17.17c-.34,0-.34-.17-.51-.34q0-.17-.17-.34v-.17h0v-.17h-.17v-.17h0v-.17s-.17,0-.17-.17v-.17h0v-.34h0v-.34h0v-.17h-.17v-.51h0v-.34h0v-.17h-.17v-.51h0v-.17h0v-.17h0v-.34h0s.17-.34,0-.34h0v-.17h0v-.17h0v-.69h0v-.86h0v-.17s-.17,0-.17-.17h0s.17-.34,0-.34h0v-.17h0v-.17h-.17v-.17h.17v-.69h0v-.17h0v-.34h0v-.17h0q0-.17-.17-.34h0v-.17h0v-.34h0v-.69h0v-1.71h0v-.86c.17-.34.17-.86.17-1.2h.17c0-.17.17-.69,0-.69h.17v-.34h0v-.17h0v-.34h0v-.86h0v-.17h.17v-.17h0v-.34h.17c0-.17,0-.34.17-.51h0v-.17h0q0-.17.17-.34h0v-.69h0v-.17h0v-.17h0v-.17h0v-.17c.17.17.17-.17.17-.17,0,0,.17,0,.17-.17.17-.17.17-.34.17-.69h.17v-.17h0v-.34h0s0-.17,0-.17h0v-.17h0v-.51s.17,0,.17-.17v-.17h0v-.17h0v-.17h0v-.34h.17v-.17s.17,0,.17-.17v-.17h.17c0-.17.17-.34.17-.51,0,0,.17,0,.17-.17v-.34h.17c0-.17.17-.17.17-.34h.17c0-.17.17-.17.17-.34h.17v-.17h0v-.17s.17,0,.17-.17v-.17l.17-.17v-.17h0v-.17h0v-.17h0v-.17h.17v-.17h.17c0-.17.17-.17.17-.34v-.17h.17v-.17h0l.17-.17h.17c0-.34.17-.34.17-.69.17,0,.17-.17.34-.17v-.34q.17,0,.34-.17h.17s0-.17.17-.17.17-.17.34-.17c0,0,.17,0,.17.17v.17h0v.17h0v.17h0v.51h0v.17h.17v.34h0v.17h0v.17h0v.17h0v.34h.17v1.37h0v1.03h0c-.17,2.06-.17,2.57-.17,3.08Zm5.66.69h0Zm-86.03-10.45h0c-.17-.17,0-.34,0-.34q-.17,0-.17-.17v-.69h-.17c0-.34-.17-.34-.34-.51,0,0,0-.17-.17-.17h-.17l-.17-.17v.17h-.17c0-.17,0,0-.17,0v-.17h-.17v-.17c-.17,0-.34-.17-.34-.17v-.17h-.17v-.17h-.17c0-.17,0,0-.17-.17h-.17v-.17h-.17l-.17-.17h-1.03v-.17c-.17,0-.34,0-.51-.17h-1.03q-.17,0-.34.17h0c-.17.17-.17,0-.17.17h-.17c0,.34-.17.17-.17.34v.17s-.17,0-.17.17v.17s-.17,0-.17.17v.17q0,.17-.17.17h.17-.17v.17h-.17v.17h-.17v.17h0v.17h-.17v.17h0v.17h0v.34h0v.17s-.17,0-.17.17v.17h-.17v.17h0v.34h0v.17h0v.51h0v.17h-.17v.17h0v.17h0v.34h0v.17h-.17v.17h0v.17h0v.17h0v.17h0v.34c0,.17-.17.34-.17.51h-.17v.17h0v.17h0v.34h0c0,.17-.17.17-.17.51h-.17v.17h0v.17h0v.17h0v.17h0v.17h0v.17h0v.17h0v.17h-.17v.17h0v.51h0v.17h-.17v.34h-.17v.51h0v.17h0v.17c0,.17-.17.34-.17.51h-.17c0,.17,0,.51-.17.69h0v.17h0c0,.17,0,.34-.17.51,0,0-.17,0-.17.17v.17h0v.17h0v.17h0v.17h0v.17h-.17v.17h0v.17h0v.17h0v.17s-.17,0-.17.17v.17h0v.17h0v.17h0v.17h0v.17h0c0,.17,0,.34-.17.51h0v.17h-.17v.17h0v.69h0v.17h0v.17h0v.34h0v.34h0v.34h-.17v.17h0v.17h0v.17h-.17v.86h0v.17h0v.17h0v.34h-.17v.86h0v.17h0v.17h0v.17h0v1.03h0v.17h0v.17s-.17,0-.17.17v.51h0v.69h0c0,.34,0,.86-.17,1.2h-.17c0,.51-.17.86-.17,1.37h0v.17h0v.51h0c0,.17,0,.51-.17.69h-.17c0,.34,0,.51-.17.86h-.17q0-.17-.17-.34h-.17v-.51s-.17,0-.17-.17v-.17h0v-.17h-.17q0-.17-.17-.34h-.17v-.34h0v-.17h-.17c-.17-.34-.17-.86-.34-1.2h-.17c0-.17-.17-.34-.17-.51h0v-.17h0v-.17h-.17v-.17h0v-.17h0v-.34h-.17c0-.17-.17-.34-.17-.34h-.17c-.17-.17,0-.51-.17-.86h0v-.17h0v-.17h0v-.17h0v-.17h0v-.17h-.17v-.51h0v-.17h0c0-.17,0-.34-.17-.51h-.17v-.17h-.17v-.34h0v-.17h0v-.17h0v-.17h0v-.17h-.17v-.17s-.17,0-.17-.17v-.51h0v-.17h0v-.17h0v-.34h-.68v-.17h0q0-.17-.17-.17c0-.34-.17-.51-.17-.86v-.17h-.17v-.17h-.17v-.17h0v-.51h-.17v-.17h0v-.17h0v-.17h0v-.34h0v-.51h0v-.17h0v-.34h-.17v-.17h0v-.17h0v-.17h0q0-.17-.17-.17v-.69h0v-.34h0v-.34h-.17v-.17h0q0-.17-.17-.17c0-.34-.17-.51-.17-.86v-.17s-.17,0-.17-.17v-.34h0v-.17s-.17,0-.17-.17,0-.34-.17-.51h-.17v-.34h-.51s0-.17-.17-.17h-.17c0-.17-.17-.17-.17-.34v-.17h-.17v-.17c-.17,0-.34-.17-.34-.17h0v-.17c-.17,0-.17-.17-.34-.17q0-.17-.17-.17v-.17c-.17,0-.34-.17-.34-.17h-.17q-.17,0-.34-.17h-.17v-.17h-1.37v-.17h-2.06c-.17,0-.17.17-.34.17h-.86c-.17,0-.34,0-.34.17-.17,0,0,0-.17.17h0v.17h0v.17h0v.17h0v.17h0q0,.17-.17.34h-.17c0,.17,0,.34-.17.34h-.17v.51h-.17v.17h-.17v.51h.17v.86s.17,0,.17.17,0,.34.17.51h.17v.86h0v.17h.17v.17h0v.17h.17v.34h0v.17h0v.34h0v.17c0,.17.17.34.17.51h.17c0,.34.17.34.17.69h.17c0,.34,0,.51.17.86h0v.17h.17v.17h0v.17h0c0,.34.17.69.17,1.03h.17q0,.17.17.34h0v.17h0c0,.17.17.51.17.86h.17c0,.17,0,.34.17.51h0v.17h0v.51h.17-.17.17-.17.17v.17h0v.34h0v.17h.17v.51h0v.17h.17c0,.51.34.69.34,1.2h.17v.34h0v.17h.17v.17h0v.17h0v.17h0v.34h.17v.17h0v.17h0v.17h0v.34h0v.17h0v.17l.17.17v.17h.17v.17h0v.17h0v.51h.17c0,.17.17.51.17.69h0v.17h0v.17h.17v.17h0v.17h0v.17h0v.17h.17v.34h.17v.17h.17v.17h.17v.17h0v.34h0v.34h.17c.17.17.17.51.34.69v.17s.17,0,.17.17v.34h0v.17h0v.17h0v.17h0v.17s.17,0,.17.17v.17h0v.34h.17v.17h0v.34l.17.17v.34h0v.17h0v.17h0v.17h.17v.17h.17v.17h.17v.17h0v.17h.17q0,.17.17.34h.17c0,.17,0,.51.17.69h.17c.17.34.17.51.34.86h.17q0,.17.17.34h0c0,.17.17.34.17.51h.17v.17h0v.17h0v.17h.17v.17h0v.34h.17v.17s.17,0,.17.17.17.34.17.51h.17v.17h.17v.17h0v.17h.17v.17h.17c0,.17,0,.34.17.51h0v.17h.17v.17h.17v.17c0,.17,0,0,.17,0v.17s.17,0,.17.17v.34h0v.17h.17q0,.17.17.34h.17v.17h0c0,.17.17.34.17.51h.17v.17h.17v.17h.17v.17h0v.17h0v.34h.17q0,.17.17.34h0c0,.17.17.51.17.69h.17c0,.17,0,.34.17.51h.17c0,.17,0,.34.17.51h.17v.17s.17,0,.17.17v.17h.17v.17h.17v.17h0v.17h0v.34h0v.17h0v.17h0v.86c0,.34,0,.86-.17,1.2h0c0,.51,0,1.03-.17,1.54h0v.17h0c0,.34,0,.86-.17,1.2v1.03h0v.34h0v.17h0v.86c0,.34-.17.69-.17,1.03h-.17v1.54h0v.69h0v.51h0v.69c-.17.51-.17,1.2-.17,1.71h-.17v1.71h0v.51h0v1.2h0v.17h0v.51c-.17.51-.17,1.2-.17,1.89h-.17v2.4h0v.51c0,.34,0,.69-.17.86v2.23h0v1.2h-.17v.17h.17v.17h0v1.37h0v2.57h0v.69h0v.51c0,.34,0,.86-.17,1.2v.86h0v.51h-.17v1.03h0v1.2h0v1.2h0v1.2h0v1.54c0,.51-.17,1.03-.17,1.54v.86h0v.17h.17-.17l.17.17h-.17v.17h.17-.17.17-.17v.17h.17-.17.17-.17v.34h0s.17,0,.17.17h-.17v.17h0v.17h0v.17h0v.17h0v.17h0v.17h0v.86h0v.51h0v2.91h0v.69c-.17.51,0,1.2,0,1.71v.34h0v2.23h-.17l.17.17v.34h-.17v.17h.17-.17v.17h.17s0,.17-.17.17h0v.17h0v.17h0c0,.17,0,0,.17,0h-.17v.17h0v.17h0v.17h0v.17h0v.17h0v.17h0v.17h0v2.4h0v2.4h0v.17h0v.34h0v.34h0v.34h0v.34h0v.34h.17c0,.51,0,1.03.17,1.37h0v.17h0v.17h0c0,.17,0,.51.17.69v.51l.17.17h.34v-.34h-.17v-.17q.17,0,.17.17.17,0,.34-.17h0q.17,0,.17-.17h.17c0-.17,0,0,.17-.17h.17s0-.17.17-.17h.17v-.17s.17,0,.17-.17v-.17h.17c0-.17.17-.17.17-.34h.17q0-.17.17-.17h0v-.17h0v-.69h0v-.17h.17v-.17h0v-.17h0v-1.03h0v-.17h0v-.17h0v-.51h.17q0-.17.17-.17h0v-.17h0v-.34h0v-.34h0v-.17h0v-.17h0v-.34h0v-.34h.17c0-.17.17-.51.17-.69v-.34s.17,0,.17-.17,0-.34.17-.34h.17v-.51h0v-.17h0v-1.03h.17v-.17h0v-.51h0v-.34h0v-.34h0v-.17h0v-.34h0v-.51h0v-.51h0v-.34h0v-.34h.17c0-.34,0-.51.17-.86v-.34h0v-.17h0v-.17h0v-1.03h.17v-1.03h0v-.34h0s0-.69,0-.69h0v-2.23c.17-.51,0-1.2.17-1.54v-.86h0v-.34h0v-.17h0v-.34h0v-.34h0v-.34h.17v-.51h0c0-.34,0-.86.17-1.2h.17v-.17h0v-.17h.17v-.34h0v-.69c0-.17.17-.34.17-.51h0v-.34h0v-.17h0v-.51h0v-1.03h0v-.17h-.17.17l-.17-.17h.17c0-.17,0,0-.17,0h.17-.17.17v-.17h0v-.17h0v-.69h0v-.86h0v-.51h0v-1.37h0v-.51c0-.17.17-.86.17-.86h0v-.17h0v-.69h-.17.17-.17.17v-.86h0v-.34h0v-.69h0v-.17h0v-.34h0v-1.03h0v-.34h0v-.34h.17v-.69h0v-.34h0v-.86h0v-.17h0v-.17h0c0-.86,0-1.71.17-2.57h.17v-.17h0v-1.37h0v-.17h0v-.51h0v-.34h0v-.17h0v-.17h.17v-.17h0v-.17h0v-1.2h0v-.86h0v-.69h0v-1.37h0v-.51h0v-.17h0v-.17h0v-.51h0v-.69h0v-.34h0v-.51h0v-.69h0v-.34h0v-1.03h.17v-.34h0v-.69h0v-1.37h0v-.34h0v-.17h0v-.17h0v-.51h0v-.34h0v-.51h0v-.17h.17c0-.17.17-.17.17-.34h.17v-.17c.17,0,.17-.17.34-.34h0l.17-.17h.17c0-.17.17-.34.17-.34v-.17h0v-.17h.17v-.34h0v-.17h0v-.69h-.17v-.34h.17v-.51h0v-.17h0v-.34h0v-.51h0v-.17h-.17v-.17h0v-.34h0v-.17h0v-1.37h0c0-.17,0-.34.17-.51h0v-.34h0v-.51h0v-.34h.17c.17-.17,0-.34.17-.34h0v-.34h0v-.17h0v-.17h0v-.17h0c0-.69.17-1.37.17-2.23h.17v-.51h.17q0-.17.17-.34h.34v-.51q-.17,0-.34.17v-.69h.17v.17h.17c0-.34.17-.51.17-.86h-.17.17c.17-.17,0-.17.17-.34h0v-.17h0v-.17h0v-.86h0v-.17h0v-.17s.17,0,.17-.17v-1.03h-.17c0-.17.17-.34.17-.51v-.69h0v-.51h0v-.17h0v-.69h0v-.34h.17v-.17h0v-.34h0c0-.34-.17-.69.17-.86q0-.34.17-.51h.17c0-.17,0-.34-.17-.51q0-.17.17-.34h.17q0-.17.17-.34h0v-.51h-.17v-.34l.17-.17v-.17h0v-.17h0q0-.17.17-.17v-.17h-.17v-.34h.17v-.17h.17v-1.03h.17c0-.17,0-.51.17-.86v-.69h0v-.17h0v-.17h0v-.17h0v-.51c0-.34.17-.51.17-.86h.17v-1.54h.17c0-.34.17-.17,0-.51v-.17h.17v-.34h0v-.17h0v-.17h0v-.17h0v-.34h0v-.17h.17v-.17h-.17.17v-.69h0v-.51h0q0-.17.17-.34h0v-.51h.17v-.34h.17c.17-.51.17-1.2.34-1.71h.17v-.34h0v-.17h.17v-.34h0v-.34c0-.17,0-.34.17-.51h0v-.17h0v-.17h0v-.34h0v-.17h0v-.51h0v-.17h.17v-.17h0v-.34h0v-.34h0v-.17h0v-.17h0v-.86h0v-.51h0v-.34h.17v-.17h.17v-.17h0v-.34h0v-.17h0v-.17h0c0-.17,0,0,.17-.17v-.17h.17c0-.17,0-.34.17-.51h0v.34h0c0-.17,0-.34.17-.51h.17v-.34h0v-.17h0v-.34h0v-.34h0v-.17h0v-.17h0v-.34h.17v-.17h.17v-.34h0v-.17h0v-.17h0v-.17s0,0,0,.17Zm-11.65,80.89h0Zm-52.27-54.84v-1.03h0v-.34h0v-.69h0v-.17h0v-.17h0v-.17h0v-.34h-.17v-.34h0v-.17h0v-.17h-.17v-1.03h0v-.17h0v-.34h0v-.34h0v-.17h-.17c0-.34,0-.69-.17-1.03h0v-.17h0v-.34h0v-.17h0v-.17h0v-.34h0v-.17h0v-.69h0v-.17h0v-.17h0c0-.17-.17-.34-.17-.69h0v-.17h0v-.34h0v-.17h0v-.17c0-.17-.17-.17-.17-.34h-.17c0-.34,0-.51-.17-.86h0v-.17h0v-.17h-.17c-.17-.17-.17-.34-.17-.51h-.17c0-.17,0-.34-.17-.34h-.17v-.17h0v-.17h0v-.17h-.17v-.17l-.17-.17v-.17h0v-.17c0-.17-.17-.17-.17-.34h-.17c0-.17-.17-.17-.17-.34h-.17v-.17h-.17v-.17s-.17,0-.17-.17v-.34l-.17-.17v-.17h-.17s0-.17-.17-.17h-.17v-.17h-.17s0-.17-.17-.17h-.17s0-.17-.17-.17h-.17c-.17,0,0,0-.17-.17-.17,0,0,0-.17-.17h0v-.17h-.34l-.17-.17h-.17v-.17h-.34s0-.17-.17-.17h-.17q-.17-.17-.34-.17v.34h-.34l-.17-.17h-1.2v-.17h-.17c-.17,0-.17-.17-.34-.17,0-.17.17-.17.34-.34h.17v-.17c.17,0,.34-.17.34-.17h.86s.17,0,.17-.17v-.17l.34-.17v-.17h.51s0-.17.17-.17h.69v-.17h.34c.17,0,.17-.17.17-.34h.17v-.17h-.17v-.17h.17v-.17h.17q0-.17-.17-.17h-1.2v-.17h-.17v-.17h0l-.17-.17h-.17v-.17h-.69v-.17h-.51v-.17h-.17v-.17h-1.03v-.17h-.34v-.17h-.34v-.17h-.51c-.17,0-.51-.17-.69-.17h-2.4v.17h-.34v.17c-.17,0-.17.17-.51.17,0,.17-.17.17-.17.34h-.51v.17h-.34l-.17.17s-.17,0-.17.17h-.17v.17l-.17.17v.51c-.17,0-.34.34-.51.34v.17h-.17v.17c-.17,0-.17.17-.34.17v.17c-.17.17-.34.17-.34.34v.17h-.34v.17h0l-.17.17q-.17,0-.17.17v.34h-.17v.17h0q0,.17-.17.17c0,.17-.17.17-.17.34h-.17c0,.17-.17.34-.34.34h-.17q0,.17-.17.34h-.17c-.17.17,0,.17-.17.17-.17.34-.51.34-.51.86h.17v.17s-.17.17-.34.17v.17h-.34q0,.17-.17.17h-.17v.17h-.17v.17c-.17,0-.17.17-.34.17v.17h-.17v.17s-.17,0-.17.17v.17h0v.17h0v.17c-.17,0,0,0-.17.17h-.17v.17l-.17.17h-.17c0,.34-.17.51-.34.69h-.17q0,.17-.17.34h-.17q0,.17-.17.34h-.17v.34h-.17v.17h0v.17h0v.17h0v.17s-.17,0-.17.17v.17h0v.17h0v.34c0,.17-.17.17-.17.34h-.17c0,.51,0,1.03-.17,1.54v.34h0v.34h0v1.37h0v.17h0v.51h0v.17h0v.86h0v.17h0c0,.17.17.34.17.51h.34v.17c.17,0,0,0,.17.17.34,0,.17-.17.34-.17,0,.17.17.17.17.34h.34v-.34h0v-.34h.51v-.34h.34c0,.17.17.51,0,.86h0v.34h0c0,.17-.17.51,0,.69v2.06h0v1.2h0v1.37h0v.51h0v.34h0v.34h0v.17h0v.34h0c0,.34.17,1.37.17,2.23h.17v.17h0v.51h.17v.34h0v.69c0,.17,0,.34.17.51h0v.17h0v1.03h0v.17h0v.17h0v.34h0l-.17.17h0v.17h.17v.17h0v.51h0v.17h0v.34h0v.51h0v.34h0v.17h0v.34h0v.17h.17v.34h0v.17h0v.51h0v.34h0v.34h0v.17h0v.34h0v.17h.17v.17h.17v.17h0v.17h0v.51h0v.17h.17v.34h0c0,.17,0,.34.17.69h.17c.17.17,0,.51,0,.69h.17v.17h0v.17h0c0,.34,0,.51.17.86h.17v.34h0v.17h0v.17h0v.17h0v.34s0,.34.17.34h.17v.34h0v.17h0c0,.17,0,.34.17.51h0v.17h0v.17h.17q0,.17.17.34s.17,0,.17.17v.34s.17,0,.17.17v.17h0v.17h0v.17h.17v.17h0c0,.17.17.17.17.17.17,0,0,0,.17.17h0v.17h0v.17h.17v.17h.17q0,.17.17.17h0v.17l.17.17h.17v.17q.17,0,.34.17h.51v.17q.17,0,.34.17h.86s.34-.17.51,0h2.74s0-.17.17-.17h1.37v-.17h.69s0-.17.17-.17c.34,0,.51-.17.86-.17h.69v-.17h1.03s0-.17.17-.17h1.2c0-.17.17-.17.17-.34h.17c.17,0,.17-.17.51-.17,0-.17.17-.17.17-.34h.17q0-.17.17-.17h0v-.17h.17l.17-.17h.17v-.17l.17-.17h.17s.17,0,.17-.17v-.17s.17,0,.17-.17v-.17s.17,0,.17-.17v-.17h0v-.34h0c0-.17.17-.34.17-.51h.17l.17-.17h0v-.34h0v-.17l.17-.17c.17,0,.17-.17.34-.17v-.34h0c0-.17.17-.17.17-.34h.17c0-.17,0-.51.17-.69h.17v-1.54h0v-.51h.17v-.17h0c0-.17.17-.34.17-.51h.17v-.17h0v-.86h0v-.17h0v-.34h0v-.17h0v-.17h0v-.51h0v-.34h0v-.17h0v-1.54h.17v-.17h0v-.86h0v-.34h0v-.17h0v-.17c.17-.34.17-.69.17-1.03h.17-.17v-.17h.17-.17s.17,0,.17-.17h-.17.17c0-.51.17-1.2.17-1.71v-.51h0v-.17h0v-.17h0v-.17h0c.17-.34-.17-.69-.17-.86h0v-.17h0v-.34h0v-.51h0v-.51h0v-.17h0v-.69h0v-1.03h0v-.17h0v-.51c.51-.86.51-1.37.51-1.88Zm-10.62,16.97q.17,0,0,0l.17.34h0c0-.17,0-.34-.17-.34Zm.17.34h0v.17h.17v.17h-.17v-.34Zm.17.69h0s0,.17,0,0Zm3.08-14.22c0,.17,0,.34-.17.51v.51h0v.86h-.17v.17h0v.86h0v.34h0v.17h0v.69h0v.17h0v.17h0v.69h0v.17h0v.17h0v.51h0v.17h0v.69h0v.17h0v.86h0v.17h0v.34h0v.51h0v.34h0v.17h0v.34h0v.34h0v.17h-.17c0,.34,0,.51-.17.86h0v.17h0v.17h0v.34h0v.17h-.17v.69h-.17v.17h-.17v.17h0v.51h-.17c0,.34,0,.51-.17.69h-.17c0,.17,0,.34-.17.34h0c-.17-.17-.17-.34-.17-.69h-.17v-.17h-.17v-.34c0-.34-.17-.51-.17-.86h-.17c0-.17,0-.34-.17-.51h-.17c0-.34,0-.69-.17-1.03h0v-.17h0v-.17h0v-.86h-.17c0-.17,0-.69-.17-.86v-.34h0v-.17h-.17v-.34h0v-.34h0v-.34h0v-1.37h-.17v-.51h0v-.69h-.17c0,.69,0,1.2.17,1.71v.69h.17c0,.34.17.69.17.86h.17v.51h0v.34h0v.51h0v.17h0v.17h0v.51h0v.17h0v.17h0v.34h0v.51h0v.17h0v.34h0v.17h0v.17h0c0,.17,0,.34.17.34v.34h0v-.17h0v-.17h-.17v-.17h0v-.34h0v-.17h0q0-.17-.17-.34h0v-.34h0v-.34h0v.17h0v-1.03h0v-.17h0v-.34h0v-.51s-.17,0-.17-.17v-.17h0v-1.03h0v-.17h0v-.51h-.17v-.34h0v-.86s.17-.34,0-.34h-.17v-.17h0v-.17h0v-.17h0v-.34h0v-.34h0s.17-.34,0-.69h0v-.34h0v-.34h0v-.86h-.17c0-.86,0-1.71-.17-2.57h0v-.17h0v-.34h0v-.34h0v-1.71h0v-.34h0v-.17h0v-.17h0v-.17h0v-.17h0v-.51h0v-1.2h0v-.17h.17c0-.17,0-.34-.17-.51v-2.57h0v-.34h.17s0-.86,0-.86h0v-.34h0v-.69h0v-.17h0v-.34h0v-.69h0v-.17h0v-.34h.17v-.86h0v-.17h0v-.51h0v-.51h0v-.17h0v-.17h0v-.17h0v-.51h0v-.17h0v-.17h0v.17h0v-.17h0v-.69h.17c0-.17.17-.34.34-.34h0s0,.17.17.17h.17v.17s.17,0,.17.17v.17h.17v.17h.17q0,.17.17.17h0v.17h.17v.34q.17,0,.17.17c.17.17.17.34.17.69h.17v.17c0,.17.17.17.17.34h.17v.34h.17v.17h0v.17s.17,0,.17.17v.34h0c0,.17,0,.34.17.51h.17v.17h0v.34h0v.17h0v.34h.17-.17.17-.17.17v.34h0v.17h0v.34h0v.17h0v.17h0v.17h.17v.69h0v.17h0v.17h0v.17h0v.17h0v.34h0v.51h0v.17h0v.34h0v.34h0v.34h0v.17h0v.34h0c0,.17,0,.34.17.69h.17-.17.17-.17v.17h0v.17h0v.34h0v.17h.17v.17h0v.51h0v1.71c.17.68.17,1.71.17,2.57Zm83.8-24.68h0v.51h.17v-1.37h-.17v.34h0c0,.17,0,.34.17.34v.17h-.17Zm0,.69h0Zm0,.51h.17v-.34h-.17v.34Zm.17,2.4h0c.17-.34.17-.69.17-1.03h-.17c-.17.34-.17.86,0,1.03Zm0,1.03h0c.17-.17.17-.34.17-.51h-.17v.51Zm0,.17v.86h0v.17h.17c.17-.34.17-1.03-.17-1.03h0Zm.34,1.2v-.17h-.17v.17h.17Zm.17,1.71h0Zm0,.51h0l.17-.34h-.17v.34Zm-30.68,1.37h0c.17.34.17.51.17.69h.17c0,.17,0,.34.17.51h0v.17h0v.17c0,.17.17.34.17.34h.17v-.51h-.17c0-.17-.17-.51-.17-.69,0,0-.17,0-.17-.17h0q0-.17-.17-.17c0-.34-.17-.86-.17-1.03v-.17h-.17v.34h0c0,.34.17.34.17.51Zm46.1,9.6h0Zm-104.71,3.94h0c0-.17.17-.51,0-.69h-.17v.86h.17v-.17Zm70.26,0v.17h.17l-.17-.17h0Zm-70.26.51h0l-.17.34h.17v-.34Zm0,1.03v-.17h-.17v-.17h-.17v.17h0v.34h0l.34-.17h0Zm117.56,1.2h0Zm-117.22,2.4h0v-.51h0v-.51h0v-.17h0v-.34h0v-.34h-.17v.34h0v.34h0v.17h0v.51h0v.17h0v.69h0v.17h0v.69h.17v-.51h0v-.69Zm117.05-.86h0l.17-.17h-.17v.17Zm-.17,1.2h0Zm0,.34h.17v-.17h-.17v.17Zm.17,0h0l-.17.17h-.17v.17h.17v-.17l.17-.17h0Zm-.34.51h0Zm0,.51h0l.17-.17h-.17v.17Zm-.17.69h0l.17-.17h-.17v.17Zm-.17.51h.17v-.34q-.17,0-.17.17v.17Zm-.17.86h0v.17h.17c-.17,0-.17-.17-.17-.17h0Zm-47.47.86h0l.17-.34h-.17v.34Zm46.96.69v.34h.17c-.17,0-.17-.17-.17-.34h0Zm-.34.69q0,.17.17.17h.17v-.34q-.17,0-.34.17h0Zm-87.23,16.28h0l.17-.34h-.17v.34Z"></path></svg> 