<?xml version="1.0" encoding="UTF-8"?> <svg xmlns="http://www.w3.org/2000/svg" id="Layer_1" width="600" height="400" viewBox="0 0 600 400"><defs><style>.cls-1{fill:#fff;}</style></defs><path class="cls-1" d="m114.1,268.29h10.25v-54.69h-10.25v54.69Zm37.53-.79h9.2v-34.54l38.59,35.33v-53.86h-9.15v33.92l-38.63-34.72v53.86Zm68.68-13.24c5.02,3.87,11,6.16,17.38,6.16s10.65-2.16,10.65-6.91c0-4.14-2.77-5.76-7.7-7.57l-7.96-2.77c-7.3-2.6-12.85-6.42-12.85-15.14,0-9.33,8.4-14.39,18.48-14.39,6.16,0,11.79,1.54,16.19,4.31v9.28c-4.58-3.39-9.55-5.68-15.97-5.68-5.5,0-9.64,2.07-9.64,6.38,0,3.87,2.6,5.41,7.17,7l8.84,3.12c8.58,2.99,12.5,7.7,12.5,15.4,0,9.64-8.49,15-19.67,15-7.35,0-13.55-2.07-17.38-4.66v-9.5l-.04-.04Zm60.94,14.04h10.25v-54.69h-10.25v54.69Zm58.21-8.27c11.53,0,17.69-7.39,17.69-19.1s-6.16-19.14-17.69-19.14h-11.4v38.24h11.4Zm-20.72-46.38h21.08c16.19,0,26.71,10.69,26.71,27.32s-10.47,27.32-26.71,27.32h-21.08v-54.69.04Zm98.96,0v8.18h-24.77v13.16h22.22v8.1h-22.22v16.94h24.77v8.23h-34.14v-54.69h34.14v.09Zm36.3,24.77h10.16c6.03,0,9.42-3.3,9.42-8.36s-3.39-8.36-9.42-8.36h-10.16v16.76h0v-.04Zm0,7.74v22.18h-9.02v-54.69h19.36c11.04,0,18.22,5.68,18.22,16.41,0,9.15-3.96,14.39-12.41,15.75l19.23,22.53h-10.3l-18.57-22.18s-6.51,0-6.51,0ZM110.54,159.74c3.96-1.45,7.08-5.85,7.08-11.92,0-10.08-7.13-15.31-18.48-15.31h-19.14v56.23h20.94c11.4,0,18.48-5.59,18.48-16.1,0-5.94-3.74-11.13-8.89-12.89Zm-21.56-3.61v-15.4h10.08c6.34,0,9.68,2.29,9.68,7.61s-3.39,7.79-9.68,7.79h-10.08Zm0,7.92h11.75c6.25,0,9.59,3.12,9.59,8.23s-3.39,8.23-9.59,8.23h-11.75v-16.5h0v.04Zm72.2,25.65c13.07,0,21.91-7.88,21.91-23.23v-33.97h-9.28v32.82c0,10.82-4.44,15.84-12.63,15.84s-12.63-5.06-12.63-15.84v-32.82h-9.28v33.79c0,15.49,8.93,23.36,21.91,23.36v.04Zm43.69-4.97c3.83,2.73,10.03,4.97,17.34,4.97,11.09,0,19.58-5.68,19.58-15.93,0-8.14-3.92-13.11-12.5-16.32l-8.76-3.3c-4.53-1.63-7.13-3.3-7.13-7.44,0-4.58,4.09-6.78,9.59-6.78,6.42,0,11.4,2.46,15.93,6.03v-9.86c-4.36-2.95-9.94-4.58-16.1-4.58-10.03,0-18.39,5.37-18.39,15.31,0,9.24,5.5,13.29,12.8,16.02l7.92,2.95c4.93,1.94,7.66,3.7,7.66,8.1,0,5.06-4.36,7.35-10.6,7.35s-12.41-2.38-17.34-6.51c0,0,0,9.99,0,9.99Zm70.05-52.23h-9.28v56.23h9.28v-56.23Zm26.44,56.19h8.93v-36.56l37.53,37.49v-57.2h-8.93v35.99l-37.53-36.87v57.16Zm104.28-56.14v8.4h-24.02v13.55h21.52v8.32h-21.52v17.42h24.07v8.49h-33.13v-56.19h33.09Zm21.56,52.14c3.83,2.73,10.03,4.97,17.34,4.97,11.09,0,19.58-5.68,19.58-15.93,0-8.14-3.87-13.07-12.45-16.28l-8.8-3.3c-4.53-1.67-7.13-3.3-7.13-7.44,0-4.58,4.09-6.78,9.59-6.78,6.42,0,11.4,2.46,15.93,6.03v-9.81c-4.36-2.9-9.99-4.58-16.15-4.58-10.03,0-18.39,5.37-18.39,15.31,0,9.24,5.5,13.29,12.8,16.02l7.96,2.95c4.93,1.94,7.66,3.7,7.66,8.1,0,5.06-4.36,7.35-10.6,7.35s-12.41-2.38-17.34-6.51c0,0,0,9.9,0,9.9Zm55.88,0c3.83,2.73,10.08,4.97,17.34,4.97,11.13,0,19.58-5.68,19.58-15.93,0-8.14-3.92-13.11-12.5-16.32l-8.8-3.3c-4.53-1.67-7.13-3.3-7.13-7.44,0-4.58,4.09-6.78,9.59-6.78,6.42,0,11.4,2.46,15.93,6.03v-9.77c-4.31-2.9-9.9-4.58-16.06-4.58-10.08,0-18.39,5.37-18.39,15.31,0,9.24,5.5,13.29,12.8,16.02l7.96,2.95c4.93,1.94,7.66,3.7,7.66,8.1,0,5.06-4.36,7.35-10.6,7.35s-12.41-2.38-17.34-6.51v9.9h-.04Z"></path></svg> 