<?xml version="1.0" encoding="UTF-8"?> <svg xmlns="http://www.w3.org/2000/svg" id="Layer_1" width="600" height="400" viewBox="0 0 600 400"><defs><style>.cls-1{fill:#fff;}</style></defs><path class="cls-1" d="m59.36,158.01h20.75c11.41,0,15.56,1.04,20.75,7.26,3.11,3.11,4.15,7.26,4.15,11.41,0,5.19-2.07,9.34-8.3,12.45,11.41,4.15,11.41,13.48,11.41,16.59,0,5.19-2.07,11.41-6.22,14.52-6.22,5.19-9.33,6.23-20.74,6.23h-21.78v-68.46h0Zm17.64,25.93h5.19c2.07,0,6.22,0,6.22-5.19s-4.15-5.19-6.22-5.19h-5.19v10.37h0Zm0,26.97h7.26c2.07,0,7.26,0,7.26-6.22s-5.19-6.22-7.26-6.22h-7.26v12.45h0Z"></path><polygon class="cls-1" points="112.26 158.01 127.82 158.01 127.82 226.47 112.26 226.47 112.26 158.01"></polygon><path class="cls-1" d="m159.98,173.57c18.67,0,26.97,14.52,26.97,26.97s-8.3,28.01-26.97,28.01-28.01-15.56-28.01-28.01,9.34-26.97,28.01-26.97h0Zm0,40.45c6.22,0,11.41-5.19,11.41-13.48,0-7.26-5.19-12.44-11.41-12.44-7.26,0-12.44,5.19-12.44,12.44,0,8.3,5.19,13.48,12.44,13.48h0Z"></path><path class="cls-1" d="m218.06,173.57c18.67,0,28.01,14.52,28.01,26.97s-9.33,28.01-28.01,28.01-28.01-15.56-28.01-28.01c0-12.44,9.33-26.97,28.01-26.97h0Zm0,40.45c6.22,0,12.44-5.19,12.44-13.48,0-7.26-6.22-12.44-12.44-12.44s-12.44,5.19-12.44,12.44c0,8.3,6.22,13.48,12.44,13.48h0Z"></path><path class="cls-1" d="m249.18,175.64h14.52v5.19h0c1.04-2.07,5.19-7.26,14.52-7.26,4.15,0,10.37,2.07,14.52,9.33,3.11-5.19,8.3-9.33,16.6-9.33,3.11,0,9.33,1.04,13.48,5.19,4.15,5.19,5.18,8.3,5.18,19.71v28.01h-15.56v-26.96c0-4.15,0-11.41-7.26-11.41-9.33,0-9.33,7.26-9.33,10.37v28.01h-14.52v-28.01c0-2.07,0-10.37-8.3-10.37s-8.3,8.3-8.3,11.41v26.97h-15.56v-50.83h0Z"></path><path class="cls-1" d="m334.23,158.01h15.56v21.78c5.19-6.22,12.45-6.22,14.52-6.22,11.41,0,25.93,7.26,25.93,26.97,0,18.67-13.48,28.01-25.93,28.01-7.26,0-12.45-4.15-14.52-7.26h-1.03v5.19h-14.52v-68.46h0Zm28.01,56.01c7.26,0,12.44-6.22,12.44-13.48,0-6.22-5.18-12.44-12.44-12.44-8.3,0-12.45,6.22-12.45,12.44,0,7.26,4.15,13.48,12.45,13.48h0Z"></path><path class="cls-1" d="m447.28,210.91c-3.11,5.19-6.22,9.33-10.37,12.45-5.19,3.11-9.33,5.19-15.56,5.19-14.52,0-26.97-12.45-26.97-28.01,0-13.48,11.41-26.97,26.97-26.97s26.97,12.45,26.97,28.01v4.15h-38.38c1.04,6.22,6.23,9.34,11.41,9.34s7.26-2.08,9.33-4.15h16.6Zm-13.48-15.56c-1.03-3.11-4.15-9.33-12.45-9.33-7.26,0-10.37,6.22-11.41,9.33h23.86Z"></path><path class="cls-1" d="m454.54,175.64h14.52v5.19h0c2.07-1.04,8.3-6.22,14.52-5.19v14.52c-6.23,0-13.48,0-13.48,8.3v28.01h-15.56v-50.83h0Z"></path><path class="cls-1" d="m541.67,220.24c0,7.26-1.04,17.64-3.11,21.78-4.15,6.22-13.48,12.44-25.93,10.37-17.63-1.03-22.82-9.33-23.86-17.63h16.6c2.07,5.19,7.26,5.19,8.3,5.19,8.3,0,12.44-1.04,12.44-17.64v-1.03h0c-2.07,2.07-6.22,7.26-14.52,7.26-13.49,0-25.93-11.41-25.93-26.97,0-17.63,12.44-28.01,25.93-28.01,6.22,0,11.41,2.07,14.52,6.22h0v-4.15h15.56v44.59h0Zm-28.01-6.22c7.26,0,12.44-5.19,12.44-12.45,0-8.3-5.18-13.48-12.44-13.48-6.23,0-12.45,5.19-12.45,12.44,0,8.3,6.22,13.49,12.45,13.49h0Z"></path><polygon class="cls-1" points="72.85 265.88 65.59 265.88 65.59 242.02 58.33 242.02 58.33 234.76 80.11 234.76 80.11 242.02 72.85 242.02 72.85 265.88"></polygon><polygon class="cls-1" points="110.19 242.02 110.19 247.21 119.52 247.21 119.52 253.43 110.19 253.43 110.19 258.62 119.52 258.62 119.52 265.88 101.89 265.88 101.89 234.76 119.52 234.76 119.52 242.02 110.19 242.02"></polygon><polygon class="cls-1" points="151.68 258.62 161.01 258.62 161.01 265.88 144.42 265.88 144.42 234.76 151.68 234.76 151.68 258.62"></polygon><polygon class="cls-1" points="191.09 242.02 191.09 247.21 200.43 247.21 200.43 253.43 191.09 253.43 191.09 258.62 200.43 258.62 200.43 265.88 183.83 265.88 183.83 234.76 200.43 234.76 200.43 242.02 191.09 242.02"></polygon><polygon class="cls-1" points="237.77 253.43 246.06 234.76 254.36 234.76 240.88 265.88 234.65 265.88 222.21 234.76 230.51 234.76 237.77 253.43"></polygon><polygon class="cls-1" points="276.14 234.76 283.41 234.76 283.41 265.88 276.14 265.88 276.14 234.76"></polygon><path class="cls-1" d="m324.89,243.06c-1.04-1.03-3.11-2.07-5.19-2.07-1.03,0-3.11,1.04-3.11,2.07,0,2.08,2.08,3.11,3.11,3.11l2.07,1.04c4.15,1.03,8.3,3.11,8.3,8.3,0,3.11-1.04,6.22-4.15,8.3-2.07,2.07-5.18,2.07-8.3,2.07-4.15,0-7.26-1.04-10.38-3.11l3.11-6.22c2.07,2.07,4.15,3.11,7.26,3.11,2.07,0,4.15-1.03,4.15-3.11s-3.11-3.11-5.19-3.11c-5.18-2.07-8.3-3.11-8.3-9.33s4.15-9.33,10.38-9.33c3.11,0,7.26,0,9.33,2.07l-3.11,6.22h0Z"></path><polygon class="cls-1" points="352.9 234.76 360.16 234.76 360.16 265.88 352.9 265.88 352.9 234.76"></polygon><path class="cls-1" d="m417.2,249.29c0,10.37-7.26,17.63-17.63,17.63-9.33,0-16.6-7.26-16.6-17.63,0-8.3,8.3-15.56,16.6-15.56,9.33,0,17.63,7.26,17.63,15.56h0Zm-25.93,0c0,6.22,4.15,9.33,8.3,9.33,5.19,0,9.33-3.11,9.33-9.33,0-4.15-4.15-7.26-9.33-7.26-4.15,0-8.3,3.11-8.3,7.26h0Z"></path><polygon class="cls-1" points="440.02 234.76 447.28 234.76 461.81 253.43 461.81 253.43 461.81 234.76 470.11 234.76 470.11 265.88 461.81 265.88 447.28 247.21 447.28 247.21 447.28 265.88 440.02 265.88 440.02 234.76"></polygon></svg> 