<?xml version="1.0" encoding="UTF-8"?> <svg xmlns="http://www.w3.org/2000/svg" id="Layer_1" width="600" height="400" viewBox="0 0 600 400"><defs><style>.cls-1{fill:#fff;}</style></defs><path class="cls-1" d="m415.92,149.47c-.55-1.54-1.23-2.98-1.78-4.31h-86.69c6.49,2.86,12.48,6.4,16.64,12.08,4.15,5.69,6.09,12.18,6.4,19.4h-27.55c-.28-.65-.52-1.32-.71-2-1.45-7.32-6-11.53-13.16-12.7-4.43-.74-8.92-.98-13.41-.71-4.18.18-8.09,2.03-10.85,5.17-5.23,6-3.29,14.08,4.09,16.94,1.2.46,2.43.8,3.69,1.01,7.93,1.54,15.87,2.98,23.8,4.61,6.06,1.23,12.3,2.4,18.23,4.4,11.53,3.87,19.31,11.83,19.31,24.26,0,34.05-22.63,37.42-22.63,37.42h38.71c2.55-7.47,5.01-14.85,7.47-22.17h42.74c2.55,7.47,5.01,14.88,7.47,22.26h27.41s-27.77-74.9-39.19-105.69Zm-31.4,62.58c4.61-13.96,9.32-27.89,13.93-41.82.22-.06.52-.06.77-.15,4.61,13.87,9.23,27.8,13.93,41.67-2.92,1.01-24.32,1.23-28.63.31Z"></path><path class="cls-1" d="m281.45,220.75h-25.55c-.31.77-.62,1.48-.86,2.24-4.92,18.63-17.31,29.34-35.73,33.64-2.64.55-5.32.83-8,.86-6.4.15-12.85.25-19.25,0-18.02-.71-31.58-8.7-39.64-25.09-3.63-7.23-5.17-15.01-5.78-22.94-.77-10.24-.55-20.48,2-30.57,5.07-20.45,18.63-32.84,39.33-35.92,11.41-1.69,22.79-1.48,33.95,1.48,18.17,4.7,29.03,16.48,32.96,34.72.31,1.38.55,2.77.77,4.15,1.38,8.7,6,15.1,13.87,19.16,6.24,3.23,13.01,4.55,19.86,5.78,8.15,1.48,16.39,3.01,24.57,4.61,1.51.31,2.95.77,4.4,1.32,4.24,1.54,6.92,4.31,7.38,8.92.46,4.92-.86,9.38-5.38,11.93-2.74,1.66-5.81,2.71-9.01,3.08-4.98.4-9.99.22-14.94-.55-9.32-1.54-13.47-6.3-14.64-15.62.09-.46-.09-.71-.31-1.23v.03Zm-52.43-33.95c-.46-1.78-.71-3.08-1.01-4.31-2.31-7.93-6.7-14.08-14.54-17.31-12.24-5.01-30.32-2.61-37.02,15.93-3.17,8.86-3.69,18.02-2.61,27.24.52,4.86,1.88,9.59,3.94,14.02,5.23,10.95,15.01,15.93,27.4,14.85,11.56-1.01,19.93-8.55,22.88-20.17.31-1.32.71-2.71,1.08-4.31h26.26v-25.95h-26.35Z"></path><path class="cls-1" d="m255.81,166.47v-21.25h20.88s-7.08,2.16-13.31,8.15-7.53,13.1-7.53,13.1h-.03Z"></path><path class="cls-1" d="m276.13,255.22h-20.17v-19s4.11,7.23,8.3,11.47c5.07,5.12,11.87,7.53,11.87,7.53Z"></path><path class="cls-1" d="m260.11,133.05c1.08-.8,2.43-1.2,3.78-1.17,2,0,3.54.55,4.46,1.63.46.49.77,1.11.86,1.78h-2.55c-.12-.37-.34-.71-.62-1.01-.58-.43-1.29-.65-2-.62-.8,0-1.6.28-2.15.86-.55.71-.83,1.57-.77,2.46-.06.89.25,1.75.86,2.4.55.52,1.32.8,2.09.77.74.03,1.45-.22,2-.71.28-.31.49-.68.62-1.08h2.55c-.22,1.05-.83,1.94-1.69,2.55-1.01.68-2.24,1.01-3.47,1.01-1.48.09-2.92-.4-4.09-1.32-1.01-.92-1.54-2.24-1.48-3.63-.18-1.51.43-2.98,1.63-3.94h-.03Z"></path><path class="cls-1" d="m271.12,141.59v-9.56h2.55v3.63h4.77v-3.63h2.55v9.53h-2.55v-4.24h-4.77v4.24h-2.55v.03Z"></path><path class="cls-1" d="m286.9,132.03h2.86l4.31,9.53h-2.77l-.77-1.94h-4.46l-.86,1.94h-2.71s4.4-9.53,4.4-9.53Zm-.15,5.93h3.17l-1.54-3.78-1.63,3.78Z"></path><path class="cls-1" d="m298,141.59h-2.55v-9.56h2.55v9.56Z"></path><path class="cls-1" d="m300.3,132.03h2.71l4.86,6.61v-6.61h2.4v9.53h-2.55l-4.92-6.77v6.77h-2.4v-9.53h-.09Z"></path><path class="cls-1" d="m319.09,138.67c.03.37.22.74.46,1.01.62.46,1.38.68,2.15.62.49,0,.98-.06,1.48-.15.71-.25,1.08-.55,1.08-1.08,0-.31-.15-.55-.55-.77-.55-.22-1.11-.37-1.69-.46l-1.32-.25c-.92-.12-1.85-.37-2.71-.77-.8-.4-1.26-1.2-1.23-2.09,0-.89.49-1.69,1.23-2.15,1.08-.62,2.31-.92,3.54-.86,1.14-.06,2.31.22,3.32.77.86.46,1.41,1.32,1.48,2.31h-2.46c-.06-.58-.46-1.05-1.01-1.23-.49-.18-1.01-.25-1.54-.25-.55-.03-1.11.06-1.63.31-.4.25-.62.46-.62.86,0,.37.28.68.62.77.52.15,1.08.31,1.63.4l2.15.4c.74.09,1.45.34,2.09.71.68.4,1.08,1.14,1.08,1.94,0,.89-.52,1.72-1.32,2.15-1.11.62-2.37.89-3.63.86-1.32.06-2.61-.25-3.78-.86-.86-.46-1.38-1.35-1.38-2.31h2.55v.15l.03-.03Z"></path><path class="cls-1" d="m337.42,132.03v1.69h-3.63v7.84h-2.55v-7.84h-3.69v-1.69h9.87Z"></path><path class="cls-1" d="m348.03,140.73c-.92.77-2.24,1.08-4,1.08-1.41.09-2.83-.31-4-1.08-1.23-.92-1.94-2.4-1.85-3.94-.12-1.54.58-3.04,1.85-3.94.92-.77,2.24-1.08,4-1.08,1.41-.09,2.83.31,4,1.08,1.26.89,1.97,2.4,1.85,3.94.06,1.54-.61,3.01-1.85,3.94Zm-1.63-1.48c.65-.65.98-1.54.92-2.46.12-1.69-1.14-3.17-2.83-3.32h-.49c-.86-.03-1.72.28-2.4.86-.62.68-.95,1.54-.92,2.46-.06.92.28,1.81.92,2.46.65.58,1.51.86,2.4.86.89.06,1.75-.25,2.4-.86h0Z"></path><path class="cls-1" d="m359.59,132.28c.43.12.83.37,1.17.71.22.25.43.49.61.77.15.31.25.65.25,1.01,0,.46-.15.92-.46,1.32-.34.49-.86.83-1.48.92.46.15.89.4,1.23.77.28.43.4.95.4,1.48v.62c0,.31,0,.62.09.92.06.25.25.43.46.55v.25h-2.86c-.09-.18-.12-.34-.15-.55-.06-.28-.09-.55-.09-.86v-.92c.03-.43-.09-.89-.4-1.23-.43-.28-.95-.37-1.48-.31h-2.46v3.78h-2.46v-9.62h5.84c.58.09,1.2.22,1.78.4h0Zm-5.23,1.48v2.55h2.77c.43,0,.83-.06,1.23-.15.46-.15.74-.62.71-1.08.06-.49-.22-.98-.71-1.17-.37-.12-.77-.15-1.17-.15h-2.86.03Z"></path><path class="cls-1" d="m373.06,133.72h-6.46v2h5.93v1.69h-5.93v2.46h6.77v1.69h-9.23v-9.53h8.92s0,1.69,0,1.69Z"></path><path class="cls-1" d="m382.93,132.03h2.86l4.31,9.53h-2.77l-.77-1.94h-4.46l-.86,1.94h-2.71s4.4-9.53,4.4-9.53Zm-.15,5.93h3.17l-1.54-3.78-1.63,3.78Z"></path><path class="cls-1" d="m399.84,135.05c-.25-.65-.74-1.14-1.38-1.38-.43-.15-.92-.25-1.38-.25-1.69-.15-3.2,1.11-3.32,2.8v.65c-.12.95.28,1.88,1.01,2.46.68.46,1.48.71,2.31.71.74.03,1.45-.15,2.09-.55.52-.37.86-.92,1.01-1.54h-2.86v-1.63h5.07v5.17h-1.69l-.25-1.17c-.37.4-.83.71-1.32.92-.77.34-1.63.49-2.46.46-1.45.03-2.86-.43-4-1.32-1.08-.89-1.69-2.21-1.63-3.63-.06-1.41.55-2.77,1.63-3.69,1.23-.95,2.77-1.48,4.31-1.38,1.32-.06,2.61.28,3.78.92.83.49,1.45,1.35,1.63,2.31h-2.55v.15Z"></path><path class="cls-1" d="m413.86,133.72h-6.46v2h5.93v1.69h-5.93v2.46h6.77v1.69h-9.23v-9.53h8.92s0,1.69,0,1.69Z"></path></svg> 