<?xml version="1.0" encoding="UTF-8"?> <svg xmlns="http://www.w3.org/2000/svg" id="Layer_1" width="600" height="400" viewBox="0 0 600 400"><defs><style>.cls-1{fill:#fff;}</style></defs><path class="cls-1" d="m265.89,159.18h-3.32v13.57h3.32c3.36,0,4.67-1.48,4.67-5.21v-3.44c0-3.65-1.43-4.96-4.67-4.96v.04Z"></path><polygon class="cls-1" points="175.32 159.59 171.96 181.37 178.68 181.37 175.32 159.59"></polygon><polygon class="cls-1" points="293.65 159.59 290.28 181.37 297.01 181.37 293.65 159.59"></polygon><path class="cls-1" d="m127.59,228.35h-1.56v11.36h1.6c2.38,0,3.32-1.15,3.32-4.26v-2.99c0-3.32-.98-4.1-3.36-4.1Z"></path><path class="cls-1" d="m130.59,218.51v-2.58c0-2.79-1.03-3.36-3.03-3.36h-1.48v9.47h1.48c2.17,0,3.03-.82,3.03-3.53Z"></path><path class="cls-1" d="m449.73,158.86c-3.53,0-5.25,2.46-5.25,7.09v17.92c0,4.67,1.64,7.09,5.25,7.09s5.21-2.58,5.21-7.13v-17.88c0-4.39-1.72-7.09-5.21-7.09Z"></path><path class="cls-1" d="m95,131.3v137.39h410v-137.39H95Zm137.72,23.21h16.89v4.8h-10.87v13.49h8.82v4.67h-8.82v17.88h-6.07v-40.84h.04Zm-39.36,0h6.93l8.98,26.9v-26.9h5.33v40.84h-5.99l-9.84-29.81v29.81h-5.37v-40.84h-.04Zm-22.18,0h8.9l6.93,40.84h-6.11l-1.48-9.55h-8.12l-1.44,9.55h-5.66s6.97-40.84,6.97-40.84Zm-30.5,81.8c0,7.67-4.18,10.29-11.93,10.29h-12.18v-40.84h11.97c7.71,0,11.23,3.03,11.23,9.18v2.87c0,4.35-2.5,6.52-6.23,7.38,4.35.86,7.09,3.36,7.09,8.53v2.62l.04-.04Zm-1.72-51.13v-1.31h5.82v1.44c0,4.18,1.35,5.82,4.47,5.82,2.58,0,3.98-1.72,3.98-5.25v-.61c0-4.39-2.01-5.94-6.15-8.98-4.92-3.49-7.59-6.4-7.59-12.51v-.16c0-6.11,3.61-9.59,9.47-9.59s9.55,3.08,9.59,9.63v1.35h-5.7v-1.43c0-3.65-1.56-4.8-3.89-4.8s-3.73,1.43-3.73,4.39v.16c0,3.65,1.44,5.12,5.41,8.04,5.12,3.61,8.45,6.11,8.45,13.24v.78c0,7.09-3.81,10.46-9.88,10.46-6.44,0-10.21-3.49-10.29-10.74l.04.08Zm32.8,50.31c0,8.16-4.55,11.77-12.38,11.77s-12.26-3.73-12.26-11.81v-29.68h9.72v29.52c0,3.03.61,4.1,2.62,4.1,1.89,0,2.62-1.11,2.62-4.18v-29.48h9.72v29.77h-.04Zm29.72.41c0,7.46-4.18,11.36-11.81,11.36-7.13,0-11.81-3.16-11.89-11.64v-1.39h9.43v1.72c0,3.03.74,3.9,2.46,3.9,1.6,0,2.21-.98,2.21-3.2v-.45c0-3.16-2.17-4.35-5.37-6.44-5.58-3.61-8.32-6.85-8.32-13.53v-.29c0-7.01,4.1-10.74,11.48-10.74s11.32,3.44,11.36,10.86v1.31h-9.14v-1.48c0-2.62-.9-3.24-2.21-3.24s-2.01.82-2.01,2.79v.2c0,2.62,1.31,3.49,4.76,5.78,4.63,3.03,9.06,5.66,9.06,13.69,0,0,0,.78,0,.78Zm16.44,10.7h-9.84v-40.84h9.84v40.84Zm32.43,0h-9.14l-7.5-23.86v23.86h-8.4v-40.84h10.33l6.23,20.09v-20.09h8.45v40.84h.04Zm26.81,0h-19.6v-40.84h19.07v7.59h-9.39v8.24h7.38v7.18h-7.38v10.21h9.88v7.59l.04.04Zm-5.95-51.25l-5.78-18.33h-2.79v18.33h-6.07v-40.84h9.43c7.17,0,10.62,3.03,10.62,9.55v3.61c0,5.08-1.93,7.42-5.37,8.57l6.4,19.15h-6.44v-.04Zm18.33-40.84h8.9l6.93,40.84h-6.11l-1.48-9.55h-8.12l-1.43,9.55h-5.66l6.97-40.84Zm16.85,81.39c0,7.46-4.18,11.36-11.81,11.36-7.13,0-11.81-3.16-11.89-11.64v-1.39h9.43v1.72c0,3.03.74,3.9,2.46,3.9,1.6,0,2.21-.98,2.21-3.2v-.45c0-3.16-2.17-4.35-5.37-6.44-5.62-3.61-8.32-6.85-8.32-13.53v-.29c0-7.01,4.1-10.74,11.48-10.74s11.32,3.44,11.36,10.86v1.31h-9.14v-1.48c0-2.62-.9-3.24-2.21-3.24s-2.01.82-2.01,2.79v.2c0,2.62,1.31,3.49,4.76,5.78,4.63,3.03,9.06,5.66,9.06,13.69,0,0,0,.78,0,.78Zm5.37-81.39h6.93l8.98,26.9v-26.9h5.33v40.84h-5.99l-9.84-29.81v29.81h-5.37v-40.84h-.04Zm23.74,81.39c0,7.46-4.18,11.36-11.81,11.36-7.13,0-11.81-3.16-11.89-11.64v-1.39h9.43v1.72c0,3.03.74,3.9,2.46,3.9,1.6,0,2.21-.98,2.21-3.2v-.45c0-3.16-2.17-4.35-5.37-6.44-5.62-3.61-8.32-6.85-8.32-13.53v-.29c0-7.01,4.1-10.74,11.48-10.74s11.32,3.44,11.36,10.86v1.31h-9.14v-1.48c0-2.62-.9-3.24-2.21-3.24s-2.01.82-2.01,2.79v.2c0,2.62,1.31,3.49,4.76,5.78,4.63,3.03,9.06,5.66,9.06,13.69,0,0,0,.78,0,.78Zm5.12-52.15v-17.59c0-7.99,4.63-12.18,11.15-12.18,6.11,0,10.5,2.87,10.58,10.62v.7h-5.95v-.74c-.04-4.1-1.6-5.7-4.55-5.7-3.32,0-5.04,2.34-5.04,7.22v17.71c0,4.76,1.48,7.22,5.08,7.22,2.91,0,4.92-1.72,4.92-6.07v-1.19h5.7v1.27c-.04,7.83-4.35,10.95-10.58,10.95-7.13,0-11.32-4.22-11.32-12.18v-.04Zm32.72,29.6h-6.44v33.25h-9.76v-33.25h-6.4v-7.59h22.63v7.59h-.04Zm2.46-18h-6.11v-40.84h6.11v40.84Zm13.65,51.25h-9.84v-40.84h9.84v40.84Zm-6.4-61.42v-1.31h5.82v1.44c0,4.18,1.35,5.82,4.47,5.82,2.58,0,3.98-1.72,3.98-5.25v-.61c0-4.39-2.01-5.94-6.15-8.98-4.92-3.49-7.58-6.4-7.58-12.51v-.16c0-6.11,3.61-9.59,9.47-9.59s9.55,3.07,9.59,9.63v1.35h-5.7v-1.43c0-3.65-1.56-4.8-3.89-4.8s-3.69,1.43-3.69,4.39v.16c0,3.65,1.43,5.12,5.41,8.04,5.12,3.61,8.45,6.11,8.45,13.24v.78c0,7.09-3.81,10.46-9.88,10.46-6.44,0-10.21-3.49-10.29-10.74v.08Zm44.48,61.42h-9.35v-24.23l-5.08,24.23h-2.99l-5.12-24.23v24.23h-8.12v-40.84h11.77l3.48,18.94,3.44-18.94h11.97s0,40.84,0,40.84Zm4.26-61.62c-.04,7.83-4.35,10.95-10.58,10.95-7.13,0-11.32-4.22-11.32-12.18v-17.59c0-7.99,4.63-12.18,11.15-12.18,6.11,0,10.5,2.87,10.58,10.62v.7h-5.94v-.74c-.04-4.1-1.6-5.7-4.55-5.7-3.32,0-5.04,2.34-5.04,7.22v17.71c0,4.76,1.48,7.22,5.08,7.22,2.91,0,4.92-1.72,4.92-6.07v-1.19h5.7v1.27-.04Zm22.55,61.62h-19.6v-40.84h19.07v7.59h-9.35v8.24h7.38v7.17h-7.38v10.21h9.88v7.63Zm-4.51-50.68c-6.93,0-11.36-4.1-11.36-12.01v-17.92c0-7.95,4.55-12.01,11.36-12.01s11.36,3.98,11.36,11.93v17.79c0,7.99-4.47,12.18-11.36,12.18v.04Zm33.74,39.97c0,7.46-4.18,11.36-11.81,11.36-7.13,0-11.81-3.16-11.89-11.64v-1.39h9.43v1.72c0,3.03.74,3.9,2.46,3.9,1.6,0,2.21-.98,2.21-3.2v-.45c0-3.16-2.17-4.35-5.37-6.44-5.62-3.61-8.32-6.85-8.32-13.53v-.29c0-7.01,4.1-10.74,11.48-10.74s11.32,3.44,11.36,10.86v1.31h-9.14v-1.48c0-2.62-.9-3.24-2.21-3.24s-2.01.82-2.01,2.79v.2c0,2.62,1.31,3.49,4.76,5.78,4.63,3.03,9.06,5.66,9.06,13.69,0,0,0,.78,0,.78Z"></path></svg> 