<?xml version="1.0" encoding="UTF-8"?> <svg xmlns="http://www.w3.org/2000/svg" id="Layer_1" width="600" height="400" viewBox="0 0 600 400"><defs><style>.cls-1{fill:#fff;}</style></defs><path class="cls-1" d="m486.57,148.76c0-7.76-.94-13.1-6.6-13.1-4.93,0-6.5,5.56-6.5,13.1v9.12c0,8.39,1.78,12.47,6.5,12.47s6.6-3.78,6.6-12.47v-9.12h0Zm-2.2,38.99c-4.82-.1-10.69-.42-10.69-.42-4.09,1.58-6.7,5.03-6.7,9.96,0,8.07,7.02,11.74,14.26,11.74,9.22,0,16.87-3.57,16.87-11.53,0-7.44-6.4-9.54-13.73-9.74h0Zm19.6-42.77c-2.52,0-5.14-1.89-5.14-5.03,0-3.56,2.2-3.36,2.2-5.76,0-1.47-.74-2.41-2.83-2.41-2.62,0-4.51,3.35-4.61,7.02,3.25,3.36,5.24,8.39,5.24,14.05,0,13.52-7.97,19.71-18.87,19.71-5.14,0-9.86-1.99-12.58-4.51-1.36.84-2.42,2.41-2.42,3.99,0,2.2,1.78,3.88,7.13,3.98l12.89.21c14.26.21,19.5,6.81,19.5,16.45s-7.45,18.97-24.21,18.97c-12.26,0-21.48-4.93-21.48-13.31,0-5.35,4.61-10.06,12.47-11.22-5.77-.32-11.53-5.24-11.53-10.8,0-3.98,2.1-7.55,6.08-9.85-2.93-3.46-4.61-8.18-4.61-13.63,0-11.74,7.54-19.6,18.76-19.6,5.03,0,9.22,1.47,11.84,3.88.74-5.14,3.88-8.18,8.91-8.18s8.91,3.57,8.91,9.33c0,3.67-2.3,6.71-5.66,6.71h0Z"></path><path class="cls-1" d="m397.48,128c-3.98,0-7.34-3.25-7.34-7.23s3.35-7.34,7.34-7.34,7.34,3.35,7.34,7.34-3.36,7.23-7.34,7.23h0Z"></path><path class="cls-1" d="m435.95,188.59v-2.73h3.04c1.78,0,2.3-.84,2.3-2.62v-37.83c0-6.29-1.04-8.91-4.3-8.91-4.51,0-8.49,5.03-8.49,17.29v28.72c0,2.83,1.16,3.35,2.62,3.35h2.62v2.73h-22.64v-2.73h2.41c1.78,0,2.31-.84,2.31-2.62v-42.87c0-2.62-.94-3.98-3.67-3.98h-2.62v-2.73h18.24v9.86c2.31-7.44,5.66-10.69,13.1-10.69,9.02,0,13.11,5.98,13.11,13.42v35.95c0,2.73,1.36,3.67,3.14,3.67h3.25v2.73h-24.42Z"></path><path class="cls-1" d="m385.22,188.59v-2.73h3.67c1.78,0,2.3-.84,2.3-2.62v-42.87c0-2.62-.94-3.98-3.66-3.98h-2.63v-2.73h18.97v48.85c0,2.83,1.15,3.35,2.62,3.35h2.62v2.73h-23.9Z"></path><path class="cls-1" d="m337.84,128c-3.98,0-7.34-3.25-7.34-7.23s3.36-7.34,7.34-7.34,7.34,3.35,7.34,7.34-3.35,7.23-7.34,7.23h0Z"></path><path class="cls-1" d="m367.92,189.32c-4.72,0-8.38-1.68-11.53-4.82-.52-.52-.94-.74-1.16-.74s-.52.42-.73.94l-1.57,4.09h-2.1v-23.16l2.52-.1c1.57,11.84,5.24,21.28,14.46,21.28,5.34,0,9.64-4.09,9.64-9.12,0-11.74-26.73-11.21-26.73-28.61,0-9.02,5.76-15.93,16.56-15.93,4.19,0,8.18,1.78,10.58,4.51.32.32.63.63.84.63s.52-.21.63-.63l1.68-4.3h2.1v19.39h-2.62c-1.47-10.8-5.98-17.08-13.21-17.08-4.51,0-8.18,3.36-8.18,7.23,0,12.26,27.36,9.96,27.36,29.14,0,9.74-7.44,17.29-18.56,17.29h0Z"></path><path class="cls-1" d="m325.58,188.59v-2.73h3.67c1.78,0,2.31-.84,2.31-2.62v-42.87c0-2.62-.94-3.98-3.67-3.98h-2.62v-2.73h18.97v48.85c0,2.83,1.16,3.35,2.62,3.35h2.62v2.73h-23.9Z"></path><path class="cls-1" d="m315.62,189.43c-7.23,0-12.58-4.72-12.58-13v-40.04h-5.34v-2.73h3.25c2.1,0,2.62-.52,2.83-2.1.52-4.4.94-11.22.94-15.83h11.01v17.92h7.97v2.73h-7.97v40.04c0,7.97,1.05,9.64,3.77,9.64,3.46,0,5.45-3.98,5.45-13.42v-7.02h2.72v7.02c0,8.6-1.16,16.77-12.06,16.77h0Z"></path><path class="cls-1" d="m292.87,152.53c-3.46,0-6.4-2.73-6.4-6.39,0-4.3,4.4-5.56,4.4-7.65,0-1.05-.73-2.2-2.2-2.2-3.56,0-6.29,4.3-6.29,16.35v29.87c0,2.83,1.15,3.35,2.62,3.35h5.14v2.73h-26.62v-2.73h3.25c1.78,0,2.94-1.15,2.94-3.04v-42.46c0-2.62-.94-3.98-3.67-3.98h-2.62v-2.73h18.24v8.6c.74-5.76,3.78-8.8,8.18-8.8,6.19,0,10.17,4.82,10.17,10.48,0,5.35-3.46,8.6-7.13,8.6h0Z"></path><path class="cls-1" d="m229.77,136.39c-2.73,0-4.09,1.26-4.82,4.3l-11.95,47.9h-9.33l-13.21-48.85c-.73-2.83-1.47-3.36-3.14-3.36h-.84v-2.73h22.43v2.73h-2.41c-2.62,0-3.36,1.15-2.72,3.56l9.12,35.33,8.6-34.49c.73-2.83-.21-4.4-2.94-4.4h-2.83v-2.73h15.93v2.73h-1.88Z"></path><path class="cls-1" d="m172.86,151.9c0-10.9-3.36-15.09-7.86-15.09-5.76,0-6.92,4.3-6.92,22.43v4.61c0,18.97,2,22.64,7.13,22.64s7.65-4.61,7.65-13.84v-20.75h0Zm.84,36.69v-7.13c-1.36,4.51-4.93,7.97-10.38,7.97-11.01,0-19.18-12.16-19.18-27.46s8.18-28.2,18.97-28.2c4.82,0,8.49,3.04,9.75,6.29v-23.06c0-3.25-.63-3.98-3.67-3.98h-3.67v-2.52h20.02v72.01c0,2.83,1.15,3.35,2.62,3.35h4.82v2.73h-19.29Z"></path><path class="cls-1" d="m115.74,127.38l-7.55,31.13h14.68l-7.13-31.13h0Zm5.97,61.21v-2.73h4.09c2.1,0,3.15-1.05,2.62-3.46l-4.82-20.96h-16.14l-4.3,17.92c-1.05,4.3,0,6.5,4.19,6.5h2.52v2.73h-19.5v-2.83h1.89c3.98,0,5.97-1.78,7.02-6.08l17.08-68.97h9.86l16.98,71.28c.63,2.73,2.52,3.88,4.72,3.88h2.52v2.73h-28.73Z"></path><path class="cls-1" d="m253.15,155.88c0-15.51-1.88-20.33-7.02-20.33-5.45,0-7.44,3.36-7.44,20.12v1.58h14.46v-1.36h0Zm-14.46,4.3v1.57c0,17.29,1.15,24.84,9.85,24.84s13.21-6.28,13.21-16.66v-.94h3.46v.52c0,9.96-5.03,19.6-16.67,19.6-14.46,0-23.37-10.17-23.37-27.57,0-16.46,8.07-28.41,21.07-28.41s19.18,10.38,19.18,24v3.04h-26.73Z"></path><path class="cls-1" d="m356.55,233.74c0-15.51-1.88-20.33-7.02-20.33-5.45,0-7.45,3.36-7.45,20.12v1.58h14.47v-1.36h0Zm-14.47,4.3v1.57c0,17.29,1.16,24.84,9.86,24.84s13.21-6.28,13.21-16.66v-.94h3.46v.52c0,9.96-5.02,19.6-16.66,19.6-14.47,0-23.37-10.17-23.37-27.57,0-16.46,8.07-28.41,21.07-28.41s19.18,10.38,19.18,24v3.04h-26.73Z"></path><path class="cls-1" d="m312.21,226.62c0-7.23-.74-13.1-6.61-13.1-4.93,0-6.5,5.56-6.5,13.1v9.12c0,8.39,1.78,12.37,6.5,12.37s6.61-3.67,6.61-12.37v-9.12h0Zm-3.25,38.99c-4.82-.1-10.69-.42-10.69-.42-4.09,1.58-6.71,5.03-6.71,9.96,0,8.07,7.03,11.74,14.26,11.74,9.22,0,16.66-3.57,16.66-11.53,0-7.44-6.18-9.54-13.52-9.74h0Zm18.66-43.39c-2.62,0-5.25-2.2-5.25-5.14,0-2.41,1.26-3.04,1.26-4.72,0-1.16-.83-2.31-2.3-2.31-2.31,0-3.46,1.36-4.19,4.61,4.4,3.88,7.23,8.81,7.23,16.04,0,13.52-7.96,19.71-18.87,19.71-5.35,0-10.27-2.41-12.89-5.14-1.36.84-3.04,2.73-3.04,4.3,0,3.04,2.72,4.2,8.07,4.3l12.89.21c12.58.21,18.55,7.02,18.55,16.14,0,9.64-7.54,19.29-24.31,19.29-12.27,0-21.39-4.93-21.39-13.31,0-5.35,4.61-10.06,12.47-11.22-5.76-.32-11.42-4.93-11.42-11,0-4.62,2.51-7.76,6.7-10.06-2.93-3.46-4.19-7.76-4.19-13.21,0-11.74,7.55-19.6,18.55-19.6,4.72,0,8.07,1.05,9.96,2.52.74-3.88,4.19-6.92,8.49-6.92,5.24,0,9.02,4.09,9.02,9.44,0,3.67-2.51,6.08-5.34,6.08h0Z"></path><path class="cls-1" d="m254.36,205.24l-7.55,31.13h14.68l-7.12-31.13h0Zm6.18,61.21v-2.73h3.88c2.1,0,3.15-1.05,2.62-3.46l-4.82-20.96h-16.15l-4.3,17.92c-1.05,4.3,0,6.5,4.19,6.5h2.31v2.73h-17.08v-2.83h.42c3.66,0,5.24-1.78,6.28-6.08l17.08-68.97h9.86l16.99,71.28c.62,2.73,2.51,3.88,4.71,3.88h1.89v2.73h-27.88Z"></path></svg> 