<?xml version="1.0" encoding="UTF-8"?> <svg xmlns="http://www.w3.org/2000/svg" id="Layer_1" width="600" height="400" viewBox="0 0 600 400"><defs><style>.cls-1{fill:#fff;}</style></defs><path class="cls-1" d="m514.11,163.83c-1.14.74-2.14,1.62-3.47,2.17-4.71-3.12-10.95-4.08-17.8-3.62-7.59.51-12.47,4.28-17.08,7.67-1.92-4.84-7.6-7.16-13.6-7.38-4.71-.17-9.86.1-14.04,1.59-4.31,1.54-7.48,4.11-10.71,5.79-.95-1.41-1.93-2.8-2.89-4.2-1.42-.75-2.85-1.69-4.63-1.88-4.52-.5-9.91,0-15.05,0h-15.2c-3.3,3.01-7.05,5.48-10.56,8.39-1.17.97-2.69,1.97-3.33,3.04-1.05,1.76-1.38,5.09-2.03,7.38-5.11,17.97-9.82,37.06-14.47,54.12,3,.35,5.67.1,8.54,0,2.73-.09,5.87.82,8.54.14,1.09-.28,2.68-1.97,3.91-2.89,4.03-3.05,7.86-6.24,11.58-8.97.9-2.04,1.24-4.64,2.32-6.51,2.95.15,5.76-.6,7.96-.72-1.61,9.3,2.18,15.86,9.26,18.09,11.07,3.48,24.47-1.38,31.26-6.66,3.26,3.73,6.55,6.62,12.3,7.38,8.63,1.14,14.94-1.05,20.41-4.05,1.61-.88,3.12-1.78,4.63-2.75,1.56-1.01,3.14-2.09,4.78-2.75-.33,3.29-1.58,6.42-1.88,9.26,5.77.03,10.8-.3,16.21,0,5.12-3.9,10.07-7.97,15.34-11.72,3.16-12.62,6.74-24.81,9.99-37.34,4.24-3.58,8.46-7.17,12.45-11,1.17-4.14,2.39-8.23,3.18-12.74-13.5,0-26.11.12-35.89.15Zm-109.55,41.24c-1.8,5.49-3.3,11.27-4.92,16.93-3.47.31-9.26.15-12.59,0,4.6-18.55,9.76-36.91,14.76-55.43,7.32-.23,14.06-.14,21.42-.14,2.42,0,5.11-.36,7.09,0,3.09.55,4.87,3.66,4.92,7.38.03,2.08-.8,4.56-1.3,6.8-1.09,4.9-1.96,8.65-3.76,13.02-1.14,2.77-1.8,5.6-3.76,7.38-5.14,4.67-12.81,4.63-21.85,4.05Zm58.9,7.96c-.75,1.83-2.46,4.1-3.62,5.35-4.92,5.31-15.55,7.76-24.75,5.5-4.93-1.21-8.64-5.42-7.81-11.29.23-1.62.86-3.31,1.3-4.92,2.49-9.14,5.21-18.9,7.96-28.51.44-1.53.64-3.42,1.3-4.78.33-.68,1.39-1.62,2.32-2.61,1.3-1.39,2.05-2.03,3.62-3.04,2.81-1.8,7.43-3.39,11.87-3.91,2.04-.24,7.01-.34,9.99.43,2.57.67,5.78,2.24,6.8,3.62,1.3,1.75,1.4,4.58,1.16,7.09-.28,2.9-1.51,6.31-2.32,9.55-1.5,6.03-3.37,12.32-5.21,18.38-.98,3.23-1.58,6.6-2.61,9.12Zm45.3-28.07c-3.59-.15-8.28.16-12.16-.14.73-3.06,2.15-9.12-2.32-9.84-1.73-.28-4.42.72-4.92,2.17-.58,1.67-.23,4.07.87,5.93,1.53,2.59,4.79,5,7.24,7.53,2.97,3.07,6.6,6.38,7.09,11.72.48,5.23-1.41,10.58-4.05,13.89-1.35,1.69-3.52,3.09-5.79,4.49-3.93,2.42-8.27,3.79-14.62,3.76-7.13-.03-13.96-3.06-14.33-10.13-.2-3.92,1.26-6.6,2.17-10.28,3.75-.25,8.99-.1,13.02-.14-.6,3.65-1.99,7.07,1.45,8.68.33.16.62-.08.87,0,.2.06.3.4.72.43,4.42.3,6.29-4.11,5.21-7.67-.31-1.01-1.11-2.18-1.74-3.04-1.81-2.5-4.45-5.02-6.66-7.96-2.12-2.82-4.73-5.32-5.79-8.68-1.07-3.4.47-10.13,2.32-12.59,2.41-3.22,6.56-6.27,11.43-7.24,2.36-.47,4.4-1.5,7.38-1.45,4.8.09,9.23.88,12.45,3.18,4.42,3.89,2.01,12.37.14,17.37Zm35.17-9.12c-3.01.47-6.44.16-9.26.14-4.32,15.47-8.15,30.54-12.59,45.88-3.77.24-8.54.24-12.3,0,3.81-15.64,8.38-30.5,12.16-46.16-2.46-.34-5.55-.05-8.25-.14.45-3.31,1.3-6.23,2.17-9.12,9.73-.35,18.82-.31,30.54-.14-.54,2.89-1.69,6.41-2.46,9.55Z"></path><path class="cls-1" d="m451.45,176.42c-1.54,1.19-2.46,4.89-3.18,7.53-1.65,6.03-3.1,11.28-4.63,16.79-1,3.61-2.2,6.7-2.31,10.56.37.26.49.76.58,1.3,2.24,1.7,6.77,1.26,8.39-.72.29-.36,1.04-1.89,1.3-2.61.87-2.35,1.29-5.04,2.03-7.67,1.8-6.47,3.54-12.96,5.07-19.54.36-1.57.98-2.97.87-4.05-.37-3.54-5.84-3.33-8.11-1.59Z"></path><path class="cls-1" d="m272.14,177.43c-.51.91-.78,2.67-1.16,4.05-1.95,7.08-3.55,13.65-5.64,20.84-.85,2.94-3.15,7.98-1.3,10.27,2.06,1.21,5.98.67,7.38-.87,2.11-5.05,3.39-10.76,4.92-16.79,1.01-3.97,2.61-8.68,3.47-12.88.28-1.37,1.07-3.39.87-4.63-.57-3.51-7.29-2.23-8.54,0Z"></path><path class="cls-1" d="m412.52,176.27c-1.73,6.09-3.41,12.22-5.07,18.38,2.83,1.38,6.87.58,8.97-1.01,1.65-2.83,3.37-8.45,4.2-12.45.24-1.15.41-2.35.29-3.04-.49-2.87-5.53-2.62-8.39-1.88Z"></path><path class="cls-1" d="m313.82,176.13c-1.81,4.07-2.8,8.97-4.2,13.46,2.78.18,8.03.7,9.55-1.3.55-2.29,2.23-5.53,2.61-8.1.83-5.74-4.44-3.54-7.96-4.05Z"></path><path class="cls-1" d="m364.62,191.61c6.62-8.45,13.48-17.6,20.12-25.9.32-.4,1.22-1.08.87-1.74-6.01.07-13.58.06-19.1,0-1.13,1.04-2.46,2.06-3.76,3.04-1.31.99-2.6,2.17-4.05,2.6.36-1.86.83-3.6,1.01-5.64h-18.96c-1.18.89-1.99,2.15-3.47,2.75-1.41-.8-2.62-2.09-4.2-2.46-2.43-.56-5.12-.17-7.67-.14-8.28.07-17.42-.13-25.47,0-1.33,1.08-2.59,2.24-4.05,3.18-5.91-5.85-20.28-5.99-28.8-2.75-.64.11-.19-.87-1.01-.58-6.46-.02-12.49.04-18.67,0-2.95,1.97-5.29,4.55-8.39,6.37-.27-1.53.03-4.58-.43-6.37h-19.1c-1.28.89-2.26,2.08-3.91,2.61-.01-1.12.6-1.62.72-2.61h-17.08c-2.33,1.49-4.08,3.54-6.8,4.63-.3-1.39-.03-3.35-.43-4.63h-8.54c-2.84,0-6.2-.63-8.39,0-1.97.56-3.25,3.37-5.35,3.62-.38-1.07-.29-2.61-.58-3.76-16.56.08-40.46-.68-58.32.14-1.66.08-3.63-.61-5.21-.29-1.85.38-4.04,3.73-5.93,3.91-.32-1.27-.47-2.71-.87-3.91h-18.09c-4.01,2.84-7.47,6.06-11.29,9.26-1.46,1.22-3.08,1.82-3.76,3.18-.73,1.45-.83,3.49-1.3,5.21-1.14,4.18-2.07,7.62-3.04,11.58-3.62,14.76-8.24,30.14-11.29,44.14h16.06c2.82-2,5.22-4.43,8.39-6.08.55,1.88.49,3.95,1.01,6.08,3.77,0,8.08-.05,11.72,0,1.17.02,2.83.22,3.76,0,1.25-.29,1.77-1.9,2.89-2.17.79.46,1.04,1.47,1.59,2.17,8.42-.56,18.25.22,24.75,0,2.18-.08,4.94.32,6.51-.14,1.09-.32,2.31-1.6,3.33-2.32,1.14-.81,2.06-1.89,3.47-2.17.16,1.72-.57,3.27-.43,4.49,4.27.15,8.92-.14,12.88,0,.72.02,1.46.23,2.17.14,1.82-.23,3.89-2.33,5.35-3.33,1.62-1.1,2.91-2.61,4.78-2.89-.34,2.12-1.01,3.91-1.3,6.08,2.14.14,4.75.14,7.52.14s5.89.57,8.25,0c1.24-.3,2.81-2.07,4.05-3.04,4.13-3.24,8.64-6.2,12.16-9.26,5.26-11.49,10.98-23.35,16.35-34.44.79-1.63,1.08-3.62,2.61-4.78.95,6.59,1.79,13.17,2.46,19.39.23,2.17.94,4.38.72,6.37-.22,2.03-1.17,4.27-1.74,6.37-1.77,6.58-3.5,12.98-5.21,19.39,5.33.15,11.49.09,17.66,0,4.02-2.73,7.45-6.05,11.58-8.68,2.96,5.29,6.71,8.67,14.18,9.26,7.05.56,12.59-1.39,17.08-3.62,2.46-1.22,4.56-2.78,6.8-3.47-.19,2.32-.76,4.26-1.01,6.51h16.5c2.15-1.27,3.84-3.01,6.22-4.05.17,1.71-.67,2.42-.72,3.91,8,.22,17.27.14,26.05.14,3.04,0,6.55.58,9.12,0,1.18-.27,2.72-1.77,3.91-2.61,1.39-.98,2.36-2.32,3.91-2.6.87,1.5,1.31,3.41,1.88,5.21h19.39c5.18-4.04,10.05-8.38,15.34-12.3-2.54-10.97-5.01-22-7.38-33.14Zm-272.94,30.39c-1.55-10.49-2.25-20.96-3.91-31.26-3.35,10.11-5.68,21.24-9.12,31.26-3.48-.09-7.33.19-10.56-.14,4.42-18.69,9.47-36.75,14.04-55.28.08-.21.23-.35.43-.43,4.73.1,9.84-.19,14.33.14,1.15,8.88,1.99,18.08,3.33,26.77,2.97-8.71,5.13-18.22,8.1-26.92,3.56.16,8.21-.33,10.85.29-5.02,18.87-9.87,37.02-15.2,55.57h-12.3Zm94.93.14c-4.31-.07-7.98.41-12.01-.14.7-10.66,1.9-20.62,2.75-31.4-1.75,2.32-2.67,5.17-3.91,7.81-3.64,7.79-7.21,15.98-10.85,23.88-3.57-.14-7.39-.18-12.3-.14.29-15.43,1.79-31.13,2.46-46.02-4.81-.2-10.99-.12-16.5-.14-1.75,3.89-2.68,8.61-4.2,12.73,4.32.23,10.06.07,15.05.14-.42,2.96-1.8,6.21-2.46,9.41-4.19.08-9.16.15-14.91.14-1.61,4.46-2.64,9.51-4.05,14.18,5.4.1,11.19-.19,16.35.14-1,3.19-2.1,6.3-3.18,9.41-9.57-.06-19.92.04-28.65-.14,4.57-18.83,9.55-37.24,14.47-55.72,13.48-.23,28.08-.18,42.4,0-.63,9.08-1.43,18.38-2.32,27.21,1.07-.7,1.37-2.1,1.88-3.18,3.67-7.8,7.41-16.07,11.14-24.02,3.8-.12,8.21-.1,12.3.14-.44,9.39-1.73,18.5-2.17,27.64,4.9-8.9,9-18.59,13.6-27.79,3.31.14,7.26-.21,11.29.14-8.7,18.6-17.4,37.21-26.19,55.72Zm68.89-57.74c.26-.02.3.18.58.14v.72c-.26-.02-.3.18-.58.14-.21-.19-.21-.82,0-1.01Zm-12.16,31.55c-.92,1.45-2.22,2.87-2.75,4.2-.7,1.76-.93,3.85-1.45,5.79-1.36,5.11-3.09,10.67-4.77,16.35-4.26-.15-8.6.16-12.3-.14,1.14-7.36,4.01-14.74,5.5-22,.34-1.66-.34-3.32-.58-5.21-1.23-9.6-2.63-18.89-3.91-28.51,4.73-.25,7.82-.14,13.02,0,.52,6.57,1.1,13.43,1.45,19.97,4.35-5.93,8.3-13.51,12.59-19.97,3.66.04,8.52-.19,12.59.14-6.04,9.78-13.04,19.37-19.39,29.38Zm41.53,16.93c-1.25,3.07-4.5,6.3-7.24,8.1-5.01,3.3-15.47,5.12-22.43,2.6-1.77-.64-5.62-2.66-6.22-5.06-1.23-4.92,1.26-10.35,2.32-14.91,1.69-7.32,3.99-15.41,5.93-22.87.88-3.38,1.56-5.42,3.33-7.96,3.29-4.73,8.4-7.88,15.63-8.54,8.71-.8,17.28-.14,18.67,7.09.17.89.15,2.44,0,3.76-.34,3.02-1.5,6.64-2.32,9.7-1.62,6.05-3.31,12.58-5.06,18.81-.96,3.41-1.63,6.87-2.61,9.26Zm38.93,9.26c-4.56,0-8.15.22-13.31-.14.58-4.48,2.4-10.48,3.62-15.77.41-1.77,1.42-4.02,1.01-5.21-.84-2.46-5.44-1.31-8.25-1.59-2.61,7.19-4.35,15.23-6.66,22.72-4.32-.16-8.82.1-12.74-.14,2.02-9.45,4.87-18.64,7.24-27.93,2.37-9.27,4.56-18.6,7.38-27.64,7,.16,13.92-.14,20.55-.14,3.78,0,9.71-.37,12.01,1.3,4.29,3.1,1.61,9.18.29,14.18-.7,2.67-1.37,5.48-2.03,7.09-1.26,3.12-4.75,4.17-7.53,5.79,2.23,1.13,4.72,1.56,4.49,5.07-.11,1.56-.9,3.82-1.45,5.79-1.39,5.04-3.52,11.99-4.63,16.64Zm29.96,0c-1.61-8.19-3.16-16.43-4.77-24.6-2.89,7.77-4.94,16.39-7.38,24.6-4.46.11-8.66.07-13.75,0,.9-4.62,2.2-9.2,3.62-13.75,1.41-4.51,2.4-9.18,3.76-13.75,1.37-4.6,2.86-9.24,4.05-13.89,1.21-4.7,2.67-9.64,4.05-14.04,4.04-.56,8.85-.29,13.17-.14-1.52,6.28-3.16,12.06-4.63,18.09,1.7-1.03,2.8-2.83,4.2-4.34,4.08-4.39,8.16-9.3,12.3-13.75,3.72-.24,8.44-.24,12.16,0-2.78,4.41-6.11,8.38-9.26,12.45-3.14,4.05-6.28,8.07-9.41,12.16,2.18,10.55,4.48,20.33,6.51,30.82-5.83.31-10.09.25-14.62.14Z"></path><path class="cls-1" d="m256.08,165.27v-.72c-.27.03-.32-.16-.58-.14-.21.19-.21.82,0,1.01.27.03.32-.16.58-.14Z"></path></svg> 