<?xml version="1.0" encoding="UTF-8"?> <svg xmlns="http://www.w3.org/2000/svg" id="Layer_1" width="600" height="400" viewBox="0 0 600 400"><defs><style>.cls-1{fill:#fff;}</style></defs><path class="cls-1" d="m351.28,186.39v.12l-.06-.06h0l.06-.06Z"></path><path class="cls-1" d="m44.44,185.91c.12-2.64-.3-5.22-1.26-7.74-1.08-2.82-3.06-5.04-5.46-6.78-2.46-1.74-5.22-2.82-8.16-3.48-2.16-.48-4.38-.78-6.6-.84-1.8-.06-3.66-.06-5.46-.06H1.92c-.66,0-1.26,0-1.92.06v58.9l.12-.12h12.65c0-.24.06-.36.12-.48v-21.05h7.56c2.4,0,4.8-.24,7.2-.66,2.82-.54,5.58-1.32,8.04-2.82,1.5-.9,2.82-1.86,4.02-3.12,1.5-1.56,2.64-3.36,3.48-5.4.84-2.1,1.2-4.26,1.32-6.48l-.06.06Zm-13.37,2.46c-.66,2.7-2.34,4.56-4.86,5.58-1.62.66-3.36,1.02-5.1,1.2-2.28.24-4.56.24-6.84.24h-.96c-.18,0-.36-.06-.54-.12v-19.55h6.42c2.88,0,5.64.6,8.22,1.92,2.04,1.02,3.3,2.76,3.78,4.98.42,1.92.3,3.9-.12,5.82v-.06Z"></path><path class="cls-1" d="m120.13,181.17h-8.16c-.3,0-.6,0-.78.06-2.28,8.46-4.5,16.91-6.78,25.31h-.12c-3.36-8.46-6.66-16.85-10.02-25.25-1.44-.18-11.82-.12-12.42.06v.18c.66,1.32,1.32,2.7,1.98,4.02,1.14,2.4,2.28,4.86,3.42,7.26,1.26,2.7,2.58,5.4,3.84,8.1,1.98,4.14,3.9,8.28,5.88,12.42.54,1.2,1.14,2.4,1.68,3.6.24.48.3.96,0,1.44-.24.48-.36,1.02-.48,1.5-.42,1.5-1.08,2.82-2.1,4.02-1.2,1.38-2.58,2.28-4.5,2.16h-.78v8.16h6.24v-.42c.3,0,.6,0,.9-.12,1.86-.54,3.6-1.32,5.1-2.64,1.74-1.56,3.06-3.42,4.08-5.52.66-1.38,1.26-2.7,1.74-4.14.84-2.34,1.62-4.68,2.46-7.08.54-1.5,1.02-3,1.56-4.5.72-2.16,1.38-4.32,2.1-6.42.96-2.88,1.92-5.7,2.88-8.58.66-1.98,1.32-3.9,1.98-5.88.84-2.46,1.62-4.92,2.4-7.38,0-.12,0-.24.06-.36h-2.28.12Z"></path><path class="cls-1" d="m192.58,195.5c-.12-1.26-.3-2.58-.42-3.84h0v-.36c-.18-1.08-.48-2.16-.9-3.12-.48-1.02-1.02-1.98-1.74-2.88-.9-1.14-1.44-1.62-2.4-2.34-.9-.66-1.86-1.26-2.94-1.62-1.26-.42-2.58-.78-3.9-.9-1.5-.12-3-.12-4.5.12-.96.12-1.92.48-2.82.84-1.98.72-3.72,1.74-5.22,3.18-.42.36-.84.72-1.14,1.14-.6.84-1.14,1.68-1.56,2.58-.12.24-.24.42-.36.72-.18-.3-.3-.6-.42-.84-.6-1.44-1.44-2.76-2.52-3.84-.66-.72-1.44-1.32-2.28-1.8-.6-.36-1.2-.72-1.86-1.02-2.4-1.08-4.92-1.44-7.56-1.2h-.12c-1.02,0-1.98.24-2.94.48-2.46.66-4.68,1.62-6.54,3.48-.78.84-1.62,1.62-2.22,2.64-.24.48-.54.9-.78,1.38,0,0-.12-.06-.18-.12v-.78c0-1.44-.06-2.82-.12-4.26v-1.98h-11.46v.6c.12,1.68.3,3.42.42,5.1.06,1.14,0,2.28,0,3.48v35.15h12.18v-22.43c0-1.92,0-3.78.24-5.7.24-1.74.72-3.36,1.62-4.8,1.38-2.28,3.36-3.48,6.06-3.6,1.08,0,2.1.24,3.18.48.78.18,1.38.66,1.92,1.2.6.66,1.08,1.44,1.38,2.28.54,1.62.66,3.3.66,5.04v26.75c0,.24,0,.54.06.78,2.7.12,11.64,0,12.12-.12v-24.05c0-1.44,0-2.88.3-4.32.3-1.62.72-3.12,1.56-4.56.84-1.38,1.98-2.46,3.54-3.06,1.56-.6,3.18-.6,4.8-.3,1.98.42,3.3,1.62,4.08,3.48.42,1.08.66,2.22.72,3.36v28.85c0,.24.06.42.12.66h12.12v-28.49c0-.54,0-1.08-.06-1.62l-.12.18Z"></path><path class="cls-1" d="m283.51,189.26c-.42-1.02-.9-2.04-1.44-3s-1.2-1.8-1.92-2.52c-.78-.78-1.74-1.44-2.76-1.92-1.86-.9-3.84-1.26-5.88-1.38-1.8-.12-3.6,0-5.4.3-1.2.24-2.34.66-3.48,1.08-1.32.48-2.46,1.32-3.54,2.16-.48.42-.96.9-1.44,1.32-.54.42-.84,1.02-1.2,1.56-.36.48-.6,1.02-.96,1.5h-.24c0-2.34,0-4.74-.06-7.08h-11.4v.84c.06,1.32.18,2.64.24,3.96v38.92c0,.18,0,.42.06.6h12.06s.06-.18.06-.24v-20.93c0-2.46,0-4.92.36-7.38.24-1.5.72-2.94,1.5-4.26.42-.66.9-1.26,1.44-1.8.54-.48,1.2-.84,1.86-1.14,2.1-.9,4.32-.96,6.48-.24,1.74.6,3,1.74,3.72,3.48.54,1.38.78,2.76.78,4.2.06,2.28.06,4.56.12,6.84v21.47h12.06v-28.73c0-1.5-.06-2.94-.36-4.44-.18-1.08-.42-2.16-.84-3.18h.18Z"></path><path class="cls-1" d="m82.89,220.27v-22.55c0-1.92-.18-3.78-.72-5.64-.48-1.68-1.08-3.24-2.1-4.62-.78-1.02-1.56-1.98-2.58-2.82-1.02-.9-2.22-1.44-3.36-2.04-1.44-.78-3.06-1.14-4.68-1.44-1.62-.3-3.3-.6-4.98-.66-1.8-.12-3.66,0-5.46.12-1.14.12-2.34.3-3.48.48-.72.12-1.5.3-2.22.48-1.56.42-3.12.84-4.68,1.2-.12.66,0,1.2,0,1.74v1.68c0,.54-.12,1.14-.18,1.68-.06.54-.18,1.14-.24,1.68-.06.54-.36,1.02-.36,1.62.9-.36,1.74-.78,2.58-1.08,1.74-.66,3.54-1.26,5.4-1.56,2.34-.36,4.62-.6,6.96-.3,1.08.12,2.1.3,3.12.72.96.36,1.86.78,2.64,1.5,1.26,1.08,1.92,2.52,2.22,4.08.24,1.2.12,2.4.12,3.6,0,0,0,.12-.12.18h-.6c-.72,0-1.5-.06-2.22-.12-2.16-.06-4.38,0-6.54.18-2.34.12-4.62.48-6.9.96-1.92.42-3.78,1.14-5.58,2.04-1.74.9-3.24,2.16-4.5,3.72-1.44,1.8-2.28,3.84-2.52,6.12-.12,1.14-.06,2.28,0,3.36.12,1.44.42,2.76,1.02,4.08,1.26,2.82,3.42,4.92,6.18,6.3,2.4,1.14,4.98,1.74,7.68,1.74,1.44,0,2.82-.18,4.26-.48,1.62-.36,3.18-.9,4.56-1.74,2.22-1.32,4.14-3,5.46-5.28l.18.18c.12,2.1.24,4.26.36,6.36h11.4v-.48c-.12-1.62-.3-3.24-.3-4.86l.18-.12Zm-13.07-7.5c-1.26,2.88-3.3,4.86-6.36,5.76-1.62.48-3.24.6-4.92.3-1.08-.18-2.1-.66-2.94-1.32-.78-.6-1.32-1.44-1.62-2.4-.48-1.56-.48-3.12-.12-4.68.24-.9.72-1.62,1.32-2.28,1.02-1.08,2.22-1.8,3.6-2.28,1.62-.6,3.3-.9,5.04-1.08,2.16-.24,4.32-.24,6.48-.24h.66c.18,2.88-.06,5.64-1.2,8.22h.06Z"></path><path class="cls-1" d="m235.95,190.7c-.36-.78-.78-1.56-1.2-2.34-.66-1.26-1.62-2.28-2.58-3.3-.54-.54-1.2-.96-1.8-1.44-1.2-.96-2.52-1.68-3.96-2.16-2.7-.96-5.46-1.44-8.34-1.38-2.82,0-5.52.54-8.1,1.62s-4.86,2.64-6.66,4.8c-1.62,1.92-3,4.02-3.9,6.36-1.26,3.24-1.92,6.54-2.04,10.02-.12,3.06.12,6.12.9,9.12.54,1.92,1.2,3.72,2.16,5.46.72,1.26,1.56,2.46,2.7,3.42.66.6,1.26,1.32,2.04,1.86.6.36,1.2.72,1.8,1.08.78.42,1.5.84,2.34,1.14.9.36,1.86.6,2.76.84,1.86.48,3.78.78,5.7.84,1.62,0,3.24,0,4.86-.12,1.02,0,2.04-.12,3-.3,1.2-.12,2.34-.36,3.54-.54,1.92-.24,3.78-.66,5.58-1.14.18,0,.3-.12.48-.18v-8.46h-.3c-.48.12-.9.3-1.38.42-3.24.84-6.48,1.38-9.78,1.56-2.22.12-4.44.18-6.66-.24-1.32-.24-2.58-.72-3.72-1.38-.9-.48-1.62-1.26-2.34-1.98-1.38-1.5-2.22-3.3-2.58-5.28v-.12c-.12-.9-.24-1.86-.3-2.82h29.51v-1.44c0-1.74.12-3.42.12-5.16s-.18-3.36-.6-5.04c-.3-1.26-.66-2.52-1.2-3.72h-.06Zm-27.53,7.62s-.06-.3,0-.48c.3-2.28.96-4.44,2.34-6.3,1.56-2.1,3.6-3.3,6.24-3.48,1.32-.06,2.64,0,3.9.36,2.04.54,3.6,1.8,4.62,3.6,1.08,1.92,1.5,4.02,1.32,6.3,0,0-18.41,0-18.41,0Z"></path><path class="cls-1" d="m318.77,215.95c-.36.12-.66.18-.96.24-.96.36-1.92.72-2.88,1.02-1.56.48-3.18.54-4.8.36-.72-.06-1.38-.36-1.92-.84-.84-.72-1.32-1.68-1.62-2.76-.24-1.02-.36-2.1-.36-3.12v-21.65c.24,0,.48.06.66.06h8.64c.18,0,.36,0,.54-.06v-7.98h-9.3c-.18,0-.42-.06-.6-.12v-12.24c0-.18.06-.42-.18-.6-4.02,1.32-8.04,2.64-12.06,3.96v8.7l-.24.18c-2.52,0-5.1,0-7.62.06h-.12v7.92h7.92v20.45c0,2.34.12,4.62.48,6.96.24,1.56.66,3.12,1.44,4.56,1.14,2.04,2.76,3.6,4.92,4.44,1.38.54,2.82.9,4.32.96,3,.12,6,0,9-.48,1.32-.24,2.58-.54,3.9-.84.24,0,.48-.12.78-.18v-4.44c0-1.5.06-3,0-4.56h.06Z"></path><path class="cls-1" d="m349.48,203.84c-1.56-1.56-3.36-2.64-5.34-3.54-2.1-1.02-4.32-1.62-6.54-2.34-1.5-.54-2.88-1.2-4.2-2.04-.78-.54-1.26-1.32-1.38-2.22-.24-1.62.54-3.24,2.04-4.02,1.26-.72,2.64-.9,4.08-.96,1.62-.06,3.24,0,4.86.24,1.92.3,3.84.54,5.7,1.26h.42v-.18c-.6-1.08-.96-2.22-1.2-3.36h0v-.12c-.24-1.44-.36-2.94-.24-4.44v-.96c-1.2-.18-2.4-.36-3.6-.48-1.5-.12-3-.24-4.5-.3-2.4-.06-4.8.24-7.14.72-1.86.42-3.6,1.08-5.28,1.98-.72.36-1.32.78-1.98,1.26-3.9,3.06-5.22,7.08-4.5,11.82.42,2.82,2.04,4.98,4.26,6.66,1.56,1.2,3.24,2.1,4.98,2.82,1.8.72,3.6,1.38,5.46,2.1,1.44.54,2.82,1.26,4.08,2.16.48.36.96.78,1.26,1.38.9,1.92.6,3.78-.9,5.22-.24.24-.6.42-.96.6-.36.18-.72.42-1.14.54-1.44.36-2.94.66-4.44.6-.96,0-1.86-.12-2.82-.18-2.4-.24-4.8-.84-7.02-1.74-.24-.12-.54-.12-.84-.12,0,0,0,.12-.06.12v.42h0v7.74c0,.24,0,.48.06.72.3,0,.48,0,.72.12,1.14.24,2.22.54,3.36.72,1.74.3,3.54.54,5.28.54.9,0,1.86.12,2.76.06,1.56-.06,3.12-.24,4.62-.54,2.22-.42,4.32-1.02,6.3-2.16,3-1.62,5.04-4.02,6.18-7.26.66-1.98.9-3.96.66-6.06-.24-2.64-1.2-4.86-3.12-6.78h.12Z"></path><path class="cls-1" d="m387.86,199.46c-1.26-1.92-2.94-3.42-4.92-4.62-2.28-1.38-4.62-2.46-7.08-3.42-2.7-1.14-5.46-2.1-7.98-3.6-1.02-.6-1.98-1.26-2.7-2.16-.48-.6-.84-1.26-.96-2.04-.06-.54-.12-1.14-.12-1.68,0-1.5.54-2.82,1.62-3.9,1.44-1.44,3.24-2.16,5.16-2.46h.12c1.62-.18,3.24-.36,4.86-.24h.18c.84.06,1.68.12,2.52.24h.12c.24,0,.48.12.72.12,2.22.36,4.44.9,6.54,1.74.3.12.6.24.96.06v-5.7c0-.3.06-.6.12-.84,0-1.02,0-2.04.06-3.06,0-.3-.12-.54-.48-.54h-.12c-.3-.06-.6-.12-.9-.24-1.98-.6-4.02-.9-6.12-1.02,0-.12.06-.24.12-.3h-.84s-.3.18-.48,0h-9s.12.12.12.18-.12.18-.18.24h-1.26c-1.74.24-3.42.6-5.04,1.2-3.12,1.08-5.94,2.64-8.16,5.1-1.26,1.38-2.28,2.94-2.94,4.74-.84,2.22-1.2,4.44-1.02,6.84v.72c.06.54.12,1.08.18,1.62v.12c.06.36.12.72.24,1.02.42,1.56,1.08,3,1.98,4.32,1.02,1.56,2.28,2.88,3.78,3.9,2.28,1.62,4.8,2.7,7.32,3.72,1.56.66,3.12,1.26,4.62,1.98,1.74.84,3.48,1.74,5.04,3,1.26,1.02,2.22,2.22,2.46,3.9h0v2.28c-.24,1.86-1.08,3.36-2.52,4.56-1.62,1.26-3.48,1.74-5.46,1.98h-.12c-.3,0-.6.06-.84.06-2.04,0-4.02.06-6-.3h-.12c-.36-.06-.78-.12-1.14-.18-1.62-.3-3.12-.78-4.68-1.26-.18-.06-.42-.06-.6-.12-.06.48-.12.9-.24,1.26-.48,2.1-1.56,3.96-3.06,5.46-.54.54-1.14.96-1.68,1.44-.12.12-.24.24-.36.36,1.02.54,6.66,1.8,9.66,2.34h1.08c.48,0,.96.12,1.38.12h1.08c1.38,0,2.82,0,4.2.06,2.82.06,5.58-.24,8.28-.84,2.4-.54,4.62-1.44,6.78-2.7,1.08-.66,2.22-1.32,3.12-2.22,1.5-1.44,2.64-3.06,3.48-4.92.72-1.62,1.2-3.3,1.44-5.04h0v-.36s.06-.18.06-.24c0-1.5,0-2.94-.18-4.44-.36-2.34-1.14-4.44-2.4-6.42l.3.18Z"></path><path class="cls-1" d="m597.96,190.4c-.3-.54-.6-1.14-.84-1.68-.42-.78-.9-1.44-1.44-2.1-.42-.48-.78-.96-1.2-1.38-.54-.48-1.08-.9-1.62-1.38-.9-.72-1.86-1.38-2.88-1.86-1.62-.78-3.36-1.26-5.1-1.56h-.12l-1.32-.24h-.12c-1.32-.24-2.64-.3-3.96-.12h-2.22c-2.1.36-4.14.9-6.06,1.86-1.56.78-3,1.74-4.32,2.88-1.74,1.56-3.12,3.48-4.26,5.52-.72,1.32-1.26,2.76-1.74,4.2-.48,1.5-.78,3-1.02,4.56v.24c0,.3-.06.6-.12.9v1.68c0,.24-.06.48-.06.72,0,1.56-.06,3.12.12,4.62v.24s.06.12.06.24v.24c0,.18,0,.42.06.6v.24c.18.78.3,1.56.48,2.34h0l.06.06c.24.84.42,1.62.72,2.46.6,1.8,1.5,3.48,2.64,5.04.96,1.32,2.1,2.46,3.36,3.48.96.72,1.98,1.38,3.06,1.92,1.38.66,2.88,1.14,4.32,1.5,1.32.36,2.58.66,3.96.72h.12c.48,0,.96.06,1.44.12,2.16,0,4.38,0,6.54-.24.12,0,.24,0,.36-.06h.3c.48,0,1.02-.12,1.5-.12h.72c.84-.18,1.74-.3,2.58-.42h.24c.3,0,.6-.12.96-.18.06,0,.18,0,.24-.06,1.14-.24,2.28-.48,3.42-.72h.12c.24,0,.42-.06.66-.12v-7.98c0-.18.18-.36-.06-.48-.3,0-.66.06-.96.18-1.62.48-3.3.84-4.98,1.14-.18,0-.42,0-.6.06-1.08.12-2.1.24-3.18.42h-.18c-.36,0-.78,0-1.14.06h-.12c-1.32,0-2.64.12-3.96.12-.78,0-1.5,0-2.28-.18-1.02-.18-2.04-.36-3-.72-1.02-.42-1.98-.9-2.82-1.56-.96-.78-1.68-1.74-2.34-2.76-.78-1.26-1.2-2.7-1.44-4.14v-.12c0-.48-.12-1.02-.12-1.5v-.84h28.61c.3,0,.6-.06.96-.12v-.6s-.18-.18,0-.24v-7.74s0-3.54-1.86-7.02l-.18-.12Zm-9.06,7.8s-.42.12-.54.12h-17.33c-.24,0-.42,0-.54-.24h0s0-.06-.06-.06c.18-1.74.72-3.42,1.56-4.98.54-1.02,1.14-1.92,2.04-2.64.42-.36.9-.6,1.38-.9.72-.54,1.5-.78,2.4-1.02,2.34-.54,4.62-.36,6.72.78,1.92,1.02,3.12,2.64,3.84,4.68.3.9.54,1.8.6,2.76v.54c0,.36-.06.72-.12,1.02l.06-.06Z"></path><path class="cls-1" d="m486.35,225.01h0v-.9c0-.42-.06-.78-.12-1.2,0-.42,0-.84-.06-1.26h0v-40.42h-12.18v25.49c-.06.66-.12,1.26-.18,1.92-.12,1.02-.24,1.98-.6,2.94-.72,2.22-1.92,4.08-4.08,5.22-.9.48-1.92.78-2.94.9-1.62.12-3.24,0-4.74-.72-.6-.3-1.26-.66-1.56-1.32,0-.06-.12-.12-.18-.24-.18-.24-.36-.42-.48-.66-.54-.96-.9-2.04-1.02-3.12v-.36h0l-.06-.06c-.06-1.5-.24-2.94-.24-4.44v-24.89s.06-.36.06-.54h-12.3v29.03c0,.36,0,.78.06,1.14v.72c0,.18,0,.42.06.6v.84c0,.12,0,.24.06.36v.42c.36,1.86.78,3.66,1.62,5.34,1.2,2.28,2.82,4.08,5.16,5.28,2.52,1.26,5.16,1.8,7.98,1.74h.12c.42,0,.84-.06,1.26-.12h.12c.36,0,.72-.06,1.02-.12,1.62-.3,3.18-.78,4.68-1.44,1.98-.9,3.6-2.22,4.98-3.84.6-.78,1.14-1.62,1.74-2.46l.24.12v.6c0,.42.06.9.12,1.32,0,1.62.06,3.18.12,4.8h0v.06s.06.06.12.12h11.16c0-.06,0-.12.06-.18h0v-.66Z"></path><path class="cls-1" d="m556.16,222.91v-.72c0-1.02-.06-2.04-.12-3.06v-.12l-.12-2.1-.12-.36s-.18-.3-.42-.18c-.18.06-.3.12-.48.24-1.38.54-2.82.9-4.26,1.08h-.12c-.54,0-1.08.12-1.62.18h-.96c-1.56.12-3.12,0-4.68-.3-1.44-.3-2.82-.78-4.08-1.56-.54-.36-1.02-.72-1.56-1.08-.66-.48-1.2-1.02-1.68-1.62-.72-.96-1.38-1.92-1.86-3.06-.6-1.5-1.02-3-1.2-4.62h0v-.42c0-1.5-.06-3.06.12-4.56h0v-.12h0c.12-1.32.42-2.58.9-3.78.3-.72.6-1.38,1.08-2.04.66-.96,1.32-1.86,2.22-2.64,2.22-1.86,4.8-2.94,7.68-3.24h.6c1.62-.06,3.3,0,4.92.3h.12c1.56.3,3.12.72,4.56,1.38.18.06.42.12.66.18,0-.9,0-1.74.06-2.58h0v-2.34c0-.18,0-.42.06-.6,0-1.08.24-2.1.06-3.18-2.94-.78-5.88-1.32-8.88-1.5h-.36c-1.74,0-3.42,0-5.16.06h-.12c-1.2.18-2.34.3-3.54.48-3.84.78-7.38,2.22-10.38,4.74-1.44,1.2-2.76,2.46-3.84,4.02-1.26,1.8-2.22,3.72-2.88,5.76-.48,1.38-.84,2.82-1.02,4.32v.12c0,.54-.12,1.08-.12,1.62v.36s-.06.18-.06.24v1.98c0,.78,0,1.5.12,2.28.36,2.28.78,4.56,1.68,6.72.96,2.34,2.28,4.44,3.96,6.24,1.74,1.86,3.78,3.3,6.06,4.44,1.5.78,3.12,1.26,4.74,1.74,1.02.3,2.1.54,3.18.72h.12l1.86.18h.12c1.14,0,2.28.06,3.36.12h1.26c.96-.06,1.92-.12,2.94-.18h.12l1.62-.18h.12c.6-.12,1.2-.18,1.74-.3.96-.18,1.86-.42,2.82-.66h.3c.3.06.24-.12.24-.3v-1.2c0-.24,0-.48-.06-.72l.3-.18Z"></path><path class="cls-1" d="m517.59,180.33h-3.06c-.3,0-.6.06-.9.12-2.76.54-4.92,2.1-6.78,4.08-1.38,1.38-2.46,3.06-3.18,4.92h-.24v-.6c0-.18-.06-.36-.12-.54v-2.4c0-1.08,0-2.1-.06-3.18h0v-1.44h-10.98s-.3-.18-.48,0v.84h0v.3h0v1.14s.06.36.06.6h0v.12c0,.36,0,.78.06,1.14h0v.06c0,.84.06,1.62.12,2.46h0v37.43s.06,0,.12.06h11.88v-20.51c.12-1.14.24-2.34.36-3.48h0v-.12c.18-1.02.42-1.98.78-3,.78-2.22,1.98-4.14,3.84-5.58.36-.3.78-.6,1.2-.84,1.38-.66,2.82-1.08,4.32-1.08h1.02c.66,0,1.38.06,1.98.3.18,0,.36.06.54.12h.6c0-.06,0-.18.06-.24v-1.38c0-1.8.12-3.6.12-5.4v-.36c0-1.14.06-2.28.12-3.42-.54-.12-1.02-.18-1.56-.24h-.12l.3.12Z"></path><path class="cls-1" d="m440.34,198.14l-.06-.06c-.06-.42-.18-.9-.24-1.32-.48-2.52-1.38-4.8-2.76-6.96-.24-.36-.48-.72-.72-1.08-.3-.42-.66-.84-1.02-1.26-.24-.3-.48-.6-.78-.84-.3-.3-.6-.66-.96-.9-.66-.54-1.26-1.02-1.98-1.5-.66-.48-1.38-.9-2.1-1.26-.9-.42-1.8-.78-2.7-1.14-.3-.12-.6-.24-.9-.3-2.1-.6-4.26-1.02-6.42-1.14h-.24c-1.38,0-2.82-.06-4.2,0-1.38.06-2.76.24-4.14.6-1.2.3-2.4.66-3.6,1.02-1.5.54-2.88,1.26-4.2,2.16-2.7,1.8-4.8,4.08-6.42,6.84-.72,1.32-1.26,2.7-1.74,4.14-.6,1.86-.96,3.72-1.08,5.64v.12s0,.54-.06.84v2.82c0,.18,0,.3.06.48v.48c0,.3.06.6.12.96v.96h0v.78c0,.24.06.48.12.72.42,2.28,1.08,4.5,2.22,6.54.54.96,1.08,1.86,1.68,2.7,1.02,1.5,2.34,2.76,3.84,3.84,2.82,2.04,5.94,3.42,9.36,4.08h.12c.42.06.84.12,1.32.24h.24c.18,0,.36,0,.6.06h.96c1.32,0,2.64,0,3.96.06h.36c.6-.06,1.26-.12,1.86-.18h.12c.24,0,.54-.06.78-.12.06,0,.18,0,.24-.06.3,0,.54-.12.84-.18.06,0,.18,0,.24-.06.9-.24,1.74-.48,2.64-.72,2.4-.72,4.68-1.86,6.66-3.42,1.62-1.32,3-2.82,4.14-4.56,1.08-1.68,1.98-3.42,2.58-5.34.48-1.44.78-3,1.02-4.5h0v-.06c.06-.78.18-1.5.18-2.28,0-2.28.12-4.62-.3-6.9h0l.36.06Zm-12.89,7.08c0,.6-.06,1.26-.12,1.86v.12c0,.36-.12.66-.12,1.02v.12c-.3,2.04-.96,3.96-2.04,5.7-1.14,1.86-2.7,3.24-4.86,3.84-.6.18-1.26.24-1.86.36h-1.98c-1.08-.06-2.04-.36-3-.78-.96-.48-1.8-1.2-2.52-1.98-1.68-1.8-2.64-3.96-3.12-6.3-.3-1.38-.48-2.7-.54-4.08v-.24c-.12-1.38,0-2.76.12-4.2h0v-.12c.12-1.86.54-3.6,1.2-5.34.48-1.2,1.02-2.34,1.86-3.3.24-.3.42-.72.78-.9.6-.36,1.02-.96,1.74-1.2.6-.18,1.14-.48,1.74-.66s1.26-.24,1.86-.36h.9l1.14.12h.12c.54.12,1.08.24,1.62.36,1.86.6,3.3,1.8,4.38,3.42,1.14,1.62,1.98,3.42,2.34,5.34.12.66.18,1.32.24,1.98h0l.06.06v.72h0v4.44h.06Z"></path></svg> 