<?xml version="1.0" encoding="UTF-8"?> <svg xmlns="http://www.w3.org/2000/svg" id="Layer_1" width="600" height="400" viewBox="0 0 600 400"><defs><style>.cls-1{fill:#fff;}</style></defs><path class="cls-1" d="m529.89,168.42h-20.72c-1.1-6.22-4.87-11.22-13.65-11.22-7.31,0-12.07,3.17-12.07,8.53,0,4.76,3.42,6.84,9.98,8.17l11.58,2.69c15.23,3.29,24.99,9.5,24.99,23.8,0,16.58-13.66,26.94-34.38,26.94-18.66,0-35.48-9.02-37.42-29.5h20.72c1.34,7.31,7.56,12.07,17.31,12.07,7.32,0,11.71-2.93,11.71-7.56,0-2.93-1.59-5.97-8.78-7.32l-13.64-2.93c-16.27-3.56-23.94-11-23.94-24.17,0-16.57,13.4-27.06,32.91-27.06,13.36,0,33.36,5.24,35.4,27.55Z"></path><path class="cls-1" d="m456.29,151.83c0,2.69-.12,4.15-3.66,10.12l-7.32,12.19h-10.97l6.34-13.53c-4.27-1.83-6.34-5-6.34-8.78,0-5.85,4.87-10.48,10.97-10.48s10.97,4.63,10.97,10.48Z"></path><polygon class="cls-1" points="429.96 142.32 429.96 225.73 414.01 225.73 374.03 179.98 374.03 225.73 353.3 225.73 353.3 142.32 369.12 142.32 409.35 189.3 409.35 142.32 429.96 142.32"></polygon><rect class="cls-1" x="326.13" y="142.32" width="20.73" height="83.41"></rect><path class="cls-1" d="m287.29,141.83l35.32,83.89h-22.03l-5.6-14.35h-35.32l-5.57,14.32h-17.22l-3.12-4.11,33.72-79.75h19.84Zm.77,51.88l-10.79-27.72-10.79,27.72h21.59Z"></path><polygon class="cls-1" points="233.73 221.62 236.86 225.73 232 225.73 233.73 221.62"></polygon><path class="cls-1" d="m215.39,197.51l18.34,24.11-1.72,4.08h-20.06l-18.02-24.16h-12.87v24.16h-20.72v-83.38h36.41c20.72,0,34.6,11.29,34.6,29.31,0,11.66-6.02,20.85-15.95,25.88Zm-4.78-25.88c0-6.74-6.26-11.04-14.23-11.04h-15.36v22.33h15.36c8,0,14.23-4.41,14.23-11.29h0Z"></path><path class="cls-1" d="m155.49,173.97h-21.67c-2.88-8.68-9.83-13.98-19.79-13.98-13.61,0-23.03,10.18-23.03,24.04s9.42,24.01,23.03,24.01c9.98,0,16.9-5.3,19.8-14h21.66c-3.77,19.96-19.69,33.38-41.33,33.38-25.15,0-44.16-18.28-44.16-43.42s19.01-43.42,44.16-43.42c21.64.03,37.56,13.43,41.33,33.4Z"></path><path class="cls-1" d="m159.09,251.89h2.17c-.95,4.44-4.66,7.51-9.59,7.51-5.74.05-10.43-4.56-10.48-10.3,0-.07,0-.14,0-.21,0-5.94,4.66-10.51,10.48-10.51,4.93,0,8.65,3.06,9.59,7.51h-2.17c-.86-3.33-3.62-5.49-7.42-5.49-4.69,0-8.37,3.65-8.37,8.49s3.67,8.49,8.37,8.49c3.8,0,6.56-2.17,7.42-5.49Z"></path><path class="cls-1" d="m183.56,258.98h-2.12v-9.02h-12.2v9.02h-2.11v-20.19h2.11v9.23h12.2v-9.23h2.12v20.19Z"></path><path class="cls-1" d="m192.42,258.98h-2.11v-20.19h2.11v20.19Z"></path><path class="cls-1" d="m216.17,251.89h2.17c-.95,4.44-4.66,7.51-9.59,7.51-5.81,0-10.51-4.71-10.51-10.51s4.71-10.51,10.51-10.51c4.93,0,8.64,3.06,9.59,7.51h-2.17c-.86-3.33-3.62-5.49-7.42-5.49-4.69,0-8.37,3.65-8.37,8.49s3.67,8.49,8.37,8.49c3.81,0,6.57-2.17,7.42-5.49Z"></path><path class="cls-1" d="m225.85,253.1l-2.62,5.88h-2.25l9.15-20.34h2.01l9.16,20.34h-2.27l-2.62-5.88h-10.57Zm5.28-11.9l-4.43,9.98h8.85l-4.43-9.98Z"></path><path class="cls-1" d="m264.09,248.89v10.09h-1.74l-.18-4.31c-1.42,2.85-4.06,4.72-7.85,4.72-5.69.07-10.35-4.49-10.42-10.17,0-.07,0-.15,0-.22,0-6.06,4.69-10.63,10.57-10.63,4.39,0,8.43,2.62,9.56,7.07h-2.27c-.98-3.33-4.13-5.05-7.24-5.05-4.78,0-8.49,3.65-8.49,8.61,0,4.57,3.5,8.34,8.31,8.34,4.31,0,7.01-3.03,7.54-7.01h-7.71v-1.93h9.93l-.03.47h.02Z"></path><path class="cls-1" d="m290.71,248.89c-.01,5.8-4.72,10.48-10.51,10.47-5.8-.01-10.48-4.72-10.47-10.51.01-5.8,4.72-10.48,10.51-10.47,5.78.01,10.46,4.69,10.47,10.47v.04Zm-2.14,0c0-4.69-3.67-8.55-8.37-8.55s-8.4,3.86-8.4,8.55,3.67,8.55,8.4,8.55,8.37-3.86,8.37-8.55Z"></path><path class="cls-1" d="m323.1,253.49c0,3.3-2.91,5.49-7.39,5.49h-8.73v-20.19h8.52c4.04,0,6.53,1.99,6.53,5.08,0,2.26-1.25,4.01-3.53,4.66,3.05.5,4.6,2.41,4.6,4.96Zm-14.01-5.67h5.88c3.24,0,5.05-1.39,5.05-3.71,0-2.11-1.78-3.44-4.72-3.44h-6.21v7.15Zm6.53,9.29c3.36,0,5.38-1.61,5.38-3.86s-1.96-3.56-5.31-3.56h-6.58v7.42h6.52Z"></path><path class="cls-1" d="m345.12,250.4c0,5.31-3.42,9.02-8.58,9.02s-8.58-3.71-8.58-9.02v-11.61h2.11v11.61c0,4.04,2.58,7.07,6.47,7.07s6.5-3.03,6.5-7.07v-11.61h2.08v11.61Z"></path><path class="cls-1" d="m366.11,244.26h-2.08c-.47-2.46-2.26-4.06-5.67-4.06-3.06,0-5.08,1.48-5.08,3.82,0,1.84,1.48,2.97,4.16,3.44l3.06.59c3.56.68,5.6,2.38,5.6,5.25,0,3.67-3,6.12-7.51,6.12-4.83,0-7.92-2.52-8.4-6.89h2.08c.5,3.15,2.71,4.99,6.41,4.99,3.21,0,5.25-1.57,5.25-3.98,0-1.69-1.16-2.97-3.8-3.44l-3.5-.68c-3.71-.68-5.58-2.55-5.58-5.29,0-3.48,2.88-5.8,7.18-5.8,4.07,0,7.37,1.94,7.87,5.92Z"></path><path class="cls-1" d="m373.91,258.98h-2.11v-20.19h2.11v20.19Z"></path><path class="cls-1" d="m397.75,258.98h-1.81l-13.19-16.36v16.36h-2.11v-20.19h1.72l13.28,16.57v-16.57h2.11v20.19Z"></path><path class="cls-1" d="m406.62,247.97h10.72v1.96h-10.72v7.12h11.9v1.93h-14.01v-20.19h14.01v1.93h-11.91v7.24Z"></path><path class="cls-1" d="m438.54,244.26h-2.08c-.48-2.46-2.26-4.06-5.67-4.06-3.06,0-5.08,1.48-5.08,3.82,0,1.84,1.48,2.97,4.16,3.44l3.06.59c3.56.68,5.6,2.38,5.6,5.25,0,3.67-3,6.12-7.51,6.12-4.83,0-7.92-2.52-8.4-6.89h2.08c.5,3.15,2.71,4.99,6.41,4.99,3.2,0,5.25-1.57,5.25-3.98,0-1.69-1.16-2.97-3.8-3.44l-3.5-.68c-3.71-.68-5.58-2.55-5.58-5.29,0-3.48,2.88-5.8,7.19-5.8,4.08,0,7.36,1.94,7.87,5.92Z"></path><path class="cls-1" d="m458.81,244.26h-2.08c-.47-2.46-2.26-4.06-5.67-4.06-3.06,0-5.08,1.48-5.08,3.82,0,1.84,1.48,2.97,4.16,3.44l3.06.59c3.56.68,5.6,2.38,5.6,5.25,0,3.67-3,6.12-7.51,6.12-4.83,0-7.92-2.52-8.4-6.89h2.09c.5,3.15,2.71,4.99,6.41,4.99,3.2,0,5.25-1.57,5.25-3.98,0-1.69-1.16-2.97-3.8-3.44l-3.5-.68c-3.71-.68-5.58-2.55-5.58-5.29,0-3.48,2.88-5.8,7.19-5.8,4.06,0,7.36,1.94,7.86,5.92Z"></path></svg> 