<?xml version="1.0" encoding="UTF-8"?> <svg xmlns="http://www.w3.org/2000/svg" id="Layer_1" width="600" height="400" viewBox="0 0 600 400"><defs><style>.cls-1{fill:#fff;fill-rule:evenodd;}</style></defs><g id="Logos-_For-Export_"><g id="newyork-logo"><path id="NEW-YORK" class="cls-1" d="m166.53,192.38h5.33v-44.99l15.13,44.99h6.12v-56.1h-5.27v41.65l-14.17-41.65h-7.14v56.1Zm38.14,0h22.5v-4.7h-16.6v-22.95h12.69v-4.7h-12.69v-19.04h15.58v-4.7h-21.48v56.1Zm38.36,0h5.78l7.71-39.5,7.31,39.5h5.78l8.27-56.1h-5.27l-6.06,43.75-8.22-43.75h-3.63l-8.1,43.58-5.89-43.58h-5.72l8.1,56.04-.06.06Zm66.64,0h6.06v-24.37l10.65-31.73h-5.5l-8.16,24.54-8.33-24.54h-6.18l11.45,31.62v24.48Zm37.51.68c8.95,0,14.68-5.89,14.68-16.32v-25.05c0-10.26-5.72-16.09-14.68-16.09s-14.68,5.78-14.68,16.15v25.16c0,10.26,5.72,16.15,14.68,16.15h0Zm0-4.93c-5.95,0-8.73-4.02-8.73-11.28v-25.1c0-7.31,2.83-11.28,8.73-11.28s8.61,4.36,8.61,11.28v24.99c0,7.08-2.83,11.39-8.61,11.39h0Zm25.73,4.25h5.89v-26.24h4.93l9.01,26.24h6.4l-9.58-26.92c5.27-1.42,8.33-4.7,8.33-12.07v-4.65c0-8.61-4.87-12.47-13.54-12.47h-11.45v56.1Zm5.89-30.71v-20.74h5.67c5.1,0,7.54,2.04,7.54,7.82v4.65c0,5.78-2.1,8.22-7.42,8.22h-5.72l-.06.06Zm56.66,30.71l-15.13-29.86,14.51-26.24h-6.18l-14.05,26.41v-26.41h-5.89v56.04h5.89v-28.79l14.51,28.79h6.35v.06ZM16.65,263.61h15.75c10.48,0,16.09-3.74,16.09-14.11v-3.63c0-7.14-3.68-10.6-9.63-11.79,5.1-1.19,8.39-4.25,8.39-10.09v-3.91c0-8.56-4.93-12.52-15.13-12.52h-15.47s0,56.04,0,56.04Zm11.84-8.56v-16.77h2.61c3.85,0,5.38,1.19,5.38,6.29v4.02c0,4.7-1.59,6.52-5.16,6.52h-2.83v-.06Zm0-24.88v-14.11h2.49c3.12,0,4.76.85,4.76,5.1v3.51c0,4.14-1.36,5.5-4.76,5.5h-2.49Zm48.62-22.67v40.74c0,4.7-1.25,6.35-4.25,6.35-3.23,0-4.31-1.64-4.31-6.29v-40.86h-12.07v41.08c0,10.88,5.89,15.81,16.32,15.81s16.49-4.87,16.49-15.75v-41.14h-12.13l-.06.06Zm35.47,56.89c9.97,0,15.53-5.1,15.53-15.3v-1.08c0-10.99-5.72-14.34-12.41-18.59-4.87-3.29-6.57-4.7-6.57-8.73v-.34c0-3.12,1.08-4.36,3.34-4.36,2.1,0,3.63,1.02,3.63,5.04v1.81h11.39v-1.64c-.06-9.86-5.5-14.51-14.96-14.51s-15.13,5.16-15.13,14.51v.34c0,9.24,3.85,13.43,11.11,18.02,5.04,3.29,7.76,4.87,7.76,9.86v.62c0,3.63-1.19,5.16-3.68,5.16-2.89,0-4.08-1.47-4.08-6.06v-2.21h-11.67v1.81c.06,11.22,6.18,15.58,15.75,15.58h0v.06Zm24.03-.85h12.13v-56.04h-12.13v56.04Zm21.65,0h10.43v-34.79l11.11,34.79h11.45v-56.04h-10.48v29.98l-9.46-29.98h-13.03s0,56.04,0,56.04Zm42.27,0h26.18v-9.46h-14.11v-15.53h10.48v-9.01h-10.48v-12.52h13.32v-9.46h-25.39v56.04-.06Zm48.73.85c9.97,0,15.53-5.1,15.53-15.3v-1.08c0-10.99-5.72-14.34-12.41-18.59-4.87-3.29-6.57-4.7-6.57-8.73v-.34c0-3.12,1.08-4.36,3.34-4.36,2.1,0,3.63,1.02,3.63,5.04v1.81h11.39v-1.64c-.06-9.86-5.5-14.51-14.96-14.51s-15.13,5.16-15.13,14.51v.34c0,9.24,3.85,13.43,11.11,18.02,5.04,3.29,7.76,4.87,7.76,9.86v.62c0,3.63-1.19,5.16-3.68,5.16-2.89,0-4.08-1.47-4.08-6.06v-2.21h-11.67v1.81c.06,11.22,6.18,15.58,15.75,15.58h0v.06Zm38.08,0c9.97,0,15.53-5.1,15.53-15.3v-1.08c0-10.99-5.72-14.34-12.41-18.59-4.87-3.29-6.57-4.7-6.57-8.73v-.34c0-3.12,1.08-4.36,3.34-4.36,2.1,0,3.63,1.02,3.63,5.04v1.81h11.39v-1.64c-.06-9.86-5.5-14.51-14.96-14.51s-15.13,5.16-15.13,14.51v.34c0,9.24,3.85,13.43,11.11,18.02,5.04,3.29,7.76,4.87,7.76,9.86v.62c0,3.63-1.19,5.16-3.68,5.16-2.89,0-4.08-1.47-4.08-6.06v-2.21h-11.67v1.81c.06,11.22,6.18,15.58,15.75,15.58h0v.06Zm41.25-.4c9.24,0,14.11-5.16,14.11-14.79v-41.71h-12.13v41.14c0,3.91-1.7,5.27-4.76,5.27-1.64,0-2.72-.23-3.68-.45v9.41c1.42.62,3.29,1.19,6.52,1.19h0l-.06-.06Zm39.72.4c10.43,0,17.17-5.38,17.17-17.11v-23.86c0-11.79-6.97-16.77-17.17-16.77s-17.11,5.33-17.11,16.83v24.08c0,11.5,6.69,16.77,17.11,16.77h0v.06Zm0-9.75c-3.29,0-4.76-2.04-4.76-7.14v-24.08c0-5.04,1.59-7.08,4.76-7.08s4.87,2.21,4.87,7.08v23.97c0,5.1-1.59,7.2-4.87,7.2h0v.06Zm46.52-47.2v40.74c0,4.7-1.25,6.35-4.25,6.35-3.23,0-4.31-1.64-4.31-6.29v-40.86h-12.07v41.08c0,10.88,5.89,15.81,16.32,15.81s16.49-4.87,16.49-15.75v-41.14h-12.13l-.06.06Zm21.31,56.04h12.07v-23.35h2.21l6.18,23.35h12.52l-7.37-25.27c3.68-1.81,5.78-4.76,5.78-11.11v-5.72c0-9.35-4.36-13.94-16.15-13.94h-15.3v56.04h.06Zm12.07-31.11v-15.7h2.83c3.34,0,4.76,1.36,4.76,5.1v5.16c0,4.02-1.47,5.38-4.76,5.38h-2.83v.06Zm28.28,31.11h10.43v-34.79l11.11,34.79h11.45v-56.04h-10.48v29.98l-9.46-29.98h-13.03s0,56.04,0,56.04Zm62.9,0h12.24l-8.95-56.04h-17.34l-8.84,56.04h11.05l1.47-11.45h8.78s1.59,11.45,1.59,11.45Zm-5.95-45.33l3.29,25.5h-6.57l3.29-25.5Zm25.22,45.33h24.71v-9.63h-12.64v-46.41h-12.07v56.04Z"></path></g></g></svg> 