<?xml version="1.0" encoding="UTF-8"?><svg id="Layer_1" xmlns="http://www.w3.org/2000/svg" width="100" height="106.9" viewBox="0 0 100 106.9"><defs><style>.cls-1{fill:#fff;}</style></defs><polygon class="cls-1" points="68.47 40.89 67.77 45.75 69.47 45.75 68.75 40.89 68.47 40.89"/><path class="cls-1" d="m38.5,65.69h-1.51v-1.47h1.51c.56,0,.98.16.98.73s-.42.73-.98.73Z"/><path class="cls-1" d="m38.5,64.23h-1.51v1.47h1.51c.56,0,.98-.16.98-.73s-.42-.73-.98-.73Z"/><path class="cls-1" d="m28.23,48.71v-10.46c0-1.04-1.04-1.83-2.14-1.38-.54.22-.88.78-.88,1.37v10.48c0,.64.4,1.22,1,1.42,1.05.34,2.02-.43,2.02-1.42Z"/><path class="cls-1" d="m58.83,105.28c0-.18.2-.27.48-.32.22-.03,4.78-.56,9.99-.8,5.81-.27,10.18.81,10.24.82.24.05,1.31.29,1.1,1.23-.22.99-1.23.62-1.42.58-.06-.01-3.8-1.29-9.83-1.3-5.03-.01-9.91,0-9.96,0-.39.02-.6-.04-.6-.22Z"/><path class="cls-1" d="m40.17,93c-.01.18-.21.26-.5.29-.22.02-4.8.22-10.01.22-6.19,0-10.12-1.39-10.18-1.41-.24-.07-1.29-.37-1.03-1.29.27-.97,1.26-.55,1.45-.5.05.02,4.67,1.6,9.74,1.86,5.02.26,9.89.57,9.95.57.39,0,.59.07.58.25Z"/><path class="cls-1" d="m18.82,102.72v-8.09c.26.05.52.09.78.13v7.27c.67.11,1.34.21,2.01.29v.82c-.93-.12-1.86-.26-2.79-.42Z"/><path class="cls-1" d="m23.48,97.22c0-1.24.53-1.98,1.61-1.89,1.09.09,1.62.91,1.62,2.15v4.18c0,1.22-.53,2.01-1.62,1.92-1.08-.09-1.61-.96-1.61-2.18v-4.18Zm.77,4.31c0,.74.27,1.19.83,1.24.57.05.83-.37.83-1.11v-4.28c0-.73-.26-1.18-.83-1.23-.56-.05-.83.37-.83,1.1v4.28Z"/><path class="cls-1" d="m31.88,97.63v.73c-.25,0-.5,0-.74,0v-.77c0-.73-.25-1.17-.82-1.18-.56-.01-.82.42-.82,1.15v4.28c0,.73.26,1.18.82,1.19.57,0,.82-.43.82-1.16v-1.05c.25,0,.5,0,.74,0v1.01c0,1.22-.5,2.04-1.59,2.02-1.08-.02-1.58-.85-1.58-2.08v-4.18c0-1.23.5-2.01,1.58-1.99,1.09.02,1.59.82,1.59,2.05Z"/><path class="cls-1" d="m34.71,102.11c-.09.55-.18,1.09-.27,1.64-.24,0-.48,0-.72.01.45-2.7.9-5.41,1.35-8.12.38-.01.76-.02,1.14-.04.45,2.68.9,5.36,1.35,8.04-.26.01-.52.02-.78.03-.09-.54-.18-1.08-.27-1.62-.59.02-1.19.04-1.78.06Zm.1-.78c.52-.01,1.05-.03,1.57-.05-.26-1.55-.53-3.09-.79-4.64-.26,1.56-.52,3.13-.77,4.69Z"/><path class="cls-1" d="m39.49,103.54c0-2.7,0-5.39,0-8.09.26-.02.52-.03.78-.05v7.27c.67-.04,1.34-.09,2.01-.13v.82c-.93.07-1.86.13-2.79.18Z"/><path class="cls-1" d="m48.62,94.75c1.11-.1,1.58.61,1.58,1.84v.97c0,1.28-.52,2-1.64,2.1-.23.02-.46.04-.69.06v3.19c-.26.02-.52.04-.78.07v-8.09c.51-.04,1.02-.09,1.54-.13Zm-.06,4.1c.58-.05.86-.39.86-1.16v-1.07c0-.74-.23-1.09-.8-1.04-.25.02-.5.04-.75.07v3.27c.23-.02.46-.04.69-.06Z"/><path class="cls-1" d="m53.74,94.31c1.11-.09,1.57.52,1.57,1.72v.66c0,.89-.27,1.47-.87,1.74.64.17.88.75.88,1.62v1.26c0,.36.01.69.14.96-.26.02-.53.04-.79.06-.09-.22-.13-.43-.13-.97v-1.27c0-.91-.37-1.17-1.02-1.12-.18.02-.37.03-.55.05,0,1.15,0,2.3,0,3.46-.26.02-.52.04-.78.07,0-2.7,0-5.39,0-8.09.52-.05,1.05-.09,1.57-.13Zm-.2,3.83c.62-.05.99-.31.99-1.19v-.77c0-.73-.23-1.09-.81-1.04-.25.02-.51.04-.76.06,0,1,0,2,0,2.99.19-.02.39-.03.58-.05Z"/><path class="cls-1" d="m57.4,95.98c0-1.24.53-2.07,1.61-2.15,1.09-.07,1.62.7,1.62,1.93v4.18c0,1.23-.53,2.06-1.62,2.13-1.08.07-1.61-.7-1.61-1.92v-4.18Zm.77,4.18c0,.74.27,1.15.83,1.11.57-.04.83-.48.83-1.22v-4.28c0-.73-.26-1.15-.83-1.11-.56.04-.83.5-.83,1.22v4.28Z"/><path class="cls-1" d="m64.34,93.64c1.1-.03,1.6.72,1.6,1.97,0,1.36,0,2.72,0,4.08,0,1.24-.5,2.01-1.6,2.04-.55.02-1.1.04-1.65.06,0-2.7,0-5.39,0-8.09.55-.02,1.1-.05,1.65-.06Zm-.01,7.27c.56-.02.83-.43.83-1.17v-4.16c0-.74-.27-1.14-.84-1.12-.28,0-.56.02-.84.03v6.45c.28-.01.57-.02.85-.03Z"/><path class="cls-1" d="m68.74,99.77c0,.73.25,1.17.82,1.18.56,0,.81-.42.81-1.15v-6.18c.24,0,.49.01.73.02v6.14c0,1.23-.49,2.03-1.58,2.01-1.08-.01-1.57-.83-1.57-2.06,0-2.05,0-4.09,0-6.14.26,0,.52,0,.77,0v6.18Z"/><path class="cls-1" d="m76.32,95.92v.73c-.25-.02-.5-.05-.74-.07,0-.26,0-.52,0-.77,0-.73-.25-1.19-.82-1.24-.56-.04-.82.38-.82,1.11v4.28c0,.73.26,1.18.82,1.23.57.04.82-.37.82-1.1,0-.35,0-.7,0-1.05.25.02.5.04.74.07v1.01c0,1.23-.5,1.98-1.59,1.9-1.08-.08-1.58-.91-1.58-2.14v-4.18c0-1.22.5-2.01,1.58-1.93,1.09.08,1.59.95,1.59,2.17Z"/><path class="cls-1" d="m80.86,98.15v.81c-.57-.1-1.15-.18-1.72-.27v2.88c.7.1,1.41.21,2.11.33v.82c-.96-.17-1.93-.31-2.89-.44v-8.09c.96.12,1.93.27,2.89.44v.82c-.7-.12-1.41-.23-2.11-.33v2.76c.57.08,1.15.17,1.72.27Z"/><path class="cls-1" d="m96.98,21.12h-8.25v-6.93c0-1.38-.94-2.55-2.22-2.9h.01L51.99.36h0c-.57-.23-1.25-.36-1.99-.36s-1.42.13-1.99.36L13.47,11.29h.01c-1.27.35-2.22,1.52-2.22,2.9v6.93H3.02c-1.66,0-3.02,1.36-3.02,3.02v35.82c0,1.12.62,2.1,1.53,2.62.44.25,9.73,2.98,9.73,2.98v8.05c0,1.38.94,2.55,2.22,2.9h-.01l34.54,10.93h0c.57.23,1.25.36,1.99.36s1.42-.13,1.99-.36l34.54-10.93h-.01c1.27-.35,2.22-1.52,2.22-2.9v-8.05s9.29-2.73,9.73-2.98c.92-.52,1.54-1.5,1.54-2.63V24.13c0-1.66-1.36-3.02-3.02-3.02Zm-36.91-11.36s.08,5.7-1.91,9.89c-1.99,4.19-9.24,2.72-9.24,2.72-1.89-14.42,11.15-12.62,11.15-12.62Zm-12.06,5.71c-.28,1-.47,2.17-.52,3.44-.3-.36-.63-.74-1.01-1.12-1.53-1.55-3.51-2.44-3.59-2.48-.09-.04-.21-.02-.26.08-.05.11,0,.23.1.28.02.01,1.92,1.04,3.34,2.59.54.6,1.04,1.17,1.41,1.73,0,.74.06,1.45.15,2.13-1.59.26-3.56.21-4.69-1.27-2.1-2.75-2.92-6.93-2.92-6.93,0,0,5.01-1.81,8,1.57Zm-30.41,33.24c-.14,1.9-.83,3.62-2.75,4.45-1.68.73-3.36.61-4.87-.49-1.25-.91-1.95-2.18-1.96-3.74-.03-3.47-.05-6.94,0-10.41.03-2.54,1.42-4.37,3.63-4.97,1.99-.54,4.11.23,5.2,2.05.43.72.69,1.62.74,2.46.06.85.06,1.7.06,2.55h-3.46v-2.36c0-1.04-1.04-1.83-2.14-1.38-.54.22-.88.78-.88,1.37v10.48c0,.64.4,1.22,1,1.42,1.05.34,2.02-.43,2.02-1.42v-3.51h-1.64v-3.2h5.1c0,.4-.03.8-.03,1.2,0,1.84.1,3.69-.03,5.51Zm4.3.21c-.03-3.47-.05-6.94,0-10.41.03-2.54,1.42-4.37,3.63-4.97,1.99-.54,4.11.23,5.2,2.05.43.72.69,1.62.74,2.46.11,1.71.03,3.42.03,5.14,0,1.84.1,3.69-.03,5.51-.14,1.9-.83,3.62-2.75,4.45-1.68.73-3.36.61-4.87-.49-1.25-.91-1.95-2.18-1.96-3.74Zm10.41,19.82c-.66.64-1.55,1.05-2.64,1.05-1.97,0-3.47-1.36-3.47-3.47s1.5-3.47,3.47-3.47c1.17,0,1.98.5,2.5,1.14l-.91,1c-.31-.47-.88-.87-1.59-.87-1.23,0-2,.93-2,2.2s.78,2.2,2,2.2c.59,0,1.15-.26,1.42-.51v-1.07h-1.01v-1.25h2.24v3.05Zm7.29.93l-1.57-2.72h-1.05v2.72h-1.43v-6.7h3.14c1.4,0,2.26.91,2.26,2.16,0,1.18-.75,1.48-1.48,1.65l1.77,2.89h-1.65Zm2.16-16.37h-3.32v-16.34h-3.14v-3.33s9.39,0,9.39,0v3.29h-2.93v16.39Zm7.17,10.93h-3.57v1.41h3.25v1.26h-3.25v1.53h3.57v1.26h-4.99v-6.7h4.99v1.26Zm7.77,0h-3.57v1.41h2.74v1.26h-2.74v1.53h3.57v1.26h-4.99v-6.7h4.99v1.26Zm2.02-10.93h-3.37v-8.06h-3.06l.02,8.06h-3.3l.04-19.67h3.24v8.15s3.06,0,3.06,0l-.03-8.15h3.42l-.02,19.67Zm6.98,16.37h-.62l-4.19-3.87v3.87h-1.43v-6.7h.71l4.1,3.71v-3.71h1.43v6.7Zm5.39.12c-1.3,0-2.22-.43-2.85-1.07l.78-1.12c.47.49,1.21.91,2.13.91.79,0,1.17-.35,1.17-.74,0-1.17-3.86-.35-3.86-2.87,0-1.12.96-2.04,2.54-2.04,1.07,0,1.95.32,2.61.93l-.79,1.07c-.54-.5-1.27-.73-1.95-.73-.6,0-.94.26-.94.66,0,1.06,3.85.34,3.85,2.84,0,1.23-.88,2.15-2.68,2.15Zm-.52-16.49l-.64-4.32h-2.64l-.62,4.32h-3.57l3.34-19.67h3.05,0s1.08,0,1.08,0l3.31,19.67h-3.31Zm21.41,0h-3.26v-9.76l-2.32,9.77h-2.54l-2.49-9.77v9.76h-3.26v-19.6h4.54l2.48,12.97,2.48-12.97h4.38v19.6Z"/><path class="cls-1" d="m50.52,21.08c.53.21.67-.37.71-.47.01-.03.87-2.62,2.47-4.96,1.59-2.32,3.92-4.03,3.94-4.05.12-.09.21-.18.12-.32-.08-.12-.24-.13-.35-.05-.1.07-2.56,1.63-4.3,3.96-1.94,2.61-2.81,4.96-2.82,4.99-.05.13-.27.7.22.89Z"/></svg>