<?xml version="1.0" encoding="UTF-8"?> <svg xmlns="http://www.w3.org/2000/svg" id="Layer_1" width="100" height="20.74" viewBox="0 0 100 20.74"><defs><style>.cls-1{fill:#3a357e;}</style></defs><path class="cls-1" d="m29.33,5.81c.57,0,1.13.05,1.68.17.41.09.79.26,1.13.49.28.2.5.46.64.76.14.32.21.66.2,1,0,.2-.03.39-.09.58-.06.19-.16.36-.29.52-.14.17-.31.32-.5.44-.23.15-.48.26-.74.35.63.14,1.09.37,1.39.69.3.32.45.73.45,1.24,0,.37-.08.73-.24,1.06-.16.33-.39.62-.69.86-.33.26-.71.45-1.12.57-.49.14-1.01.21-1.52.21h-3.8V5.81h3.5Zm-1.29,1.55v2.21h1.15c.22,0,.44-.01.66-.05.18-.03.35-.08.5-.17.14-.08.24-.2.31-.34.08-.17.12-.35.11-.54,0-.18-.02-.36-.08-.53-.05-.13-.14-.25-.26-.34-.13-.09-.29-.16-.45-.18-.21-.04-.43-.06-.64-.05h-1.3Zm1.56,5.82c.24,0,.49-.03.71-.1.17-.06.31-.15.43-.27.1-.11.18-.24.22-.38.04-.14.06-.28.06-.42,0-.15-.02-.3-.07-.44-.04-.13-.13-.24-.24-.33-.13-.1-.28-.17-.44-.21-.23-.05-.46-.08-.69-.07h-1.54v2.23h1.56Z"></path><path class="cls-1" d="m36.12,9.37c.18-.31.43-.59.72-.81.27-.2.6-.3.94-.29.27,0,.53.06.74.21l-.13,1.4c-.01.07-.05.14-.11.18-.06.04-.13.05-.21.05-.04,0-.08,0-.14,0-.06,0-.11,0-.18-.01l-.19-.02c-.06,0-.11,0-.17,0-.26-.01-.51.07-.71.22-.19.17-.35.38-.45.61v3.87h-2.02v-6.36h1.2c.08,0,.17,0,.25.02.06.01.12.04.17.08.05.04.08.08.1.14.03.07.05.14.06.21l.1.53Z"></path><path class="cls-1" d="m44.52,13.57c-.22.21-.45.4-.7.57-.22.16-.46.29-.71.4-.25.11-.51.18-.77.23-.29.05-.59.08-.89.07-.38,0-.75-.06-1.1-.19-.33-.12-.62-.31-.87-.55-.25-.24-.44-.53-.56-.85-.14-.35-.2-.73-.2-1.1,0-.33.04-.67.12-.99.08-.32.2-.62.35-.91.15-.28.33-.55.55-.79.21-.24.46-.45.74-.62.57-.36,1.24-.55,1.93-.55.33,0,.65.04.96.15.26.09.5.22.71.38.18.15.33.33.44.53.1.18.15.39.15.59,0,.28-.05.55-.18.8-.15.26-.37.49-.64.64-.38.22-.79.38-1.22.48-.63.15-1.28.26-1.93.31,0,.43.11.75.3.95.19.2.48.3.86.3.16,0,.31-.01.46-.04.12-.02.23-.06.34-.11.09-.04.18-.09.26-.14l.22-.14c.07-.04.14-.08.22-.11.09-.03.18-.04.27-.04.07,0,.13.02.19.05.06.03.12.07.16.12l.53.57Zm-2.23-3.99c-.17,0-.33.03-.48.1-.15.07-.29.16-.4.28-.28.3-.47.65-.56,1.04.34-.05.68-.11,1.02-.2.21-.05.42-.13.61-.22.12-.06.22-.15.29-.25.05-.09.08-.19.08-.29,0-.11-.05-.22-.13-.3-.05-.05-.12-.09-.19-.12-.07-.02-.15-.03-.23-.03Z"></path><path class="cls-1" d="m50.98,13.57c-.22.21-.45.4-.7.57-.22.16-.46.29-.71.4-.25.11-.51.18-.77.23-.29.05-.59.08-.89.07-.38,0-.75-.06-1.1-.19-.33-.12-.62-.31-.87-.55-.25-.24-.44-.53-.56-.85-.14-.35-.2-.73-.2-1.1,0-.33.04-.67.12-.99.08-.31.19-.62.35-.91.15-.28.33-.55.55-.79.21-.24.46-.45.73-.62.57-.36,1.24-.55,1.93-.55.33,0,.65.04.96.15.26.09.5.22.71.38.18.15.33.33.44.53.1.18.15.38.15.59,0,.27-.06.55-.18.79-.15.26-.37.49-.64.64-.38.22-.79.38-1.22.48-.63.15-1.28.26-1.93.31,0,.43.11.75.3.95.19.2.48.3.86.3.16,0,.31-.01.46-.04.12-.02.23-.06.34-.11.09-.04.18-.09.26-.14l.22-.14c.07-.04.14-.08.22-.11.09-.03.18-.04.27-.04.07,0,.13.02.19.05.06.03.12.07.16.12l.53.57Zm-2.23-3.99c-.17,0-.33.03-.48.1-.15.07-.29.16-.4.28-.28.3-.47.65-.56,1.04.34-.05.68-.11,1.02-.2.21-.05.42-.13.61-.22.12-.06.22-.15.29-.25.05-.09.08-.19.08-.29,0-.11-.05-.22-.13-.3-.05-.05-.12-.09-.19-.12-.07-.02-.15-.03-.23-.03Z"></path><path class="cls-1" d="m57.17,9.15c0,.13-.02.26-.07.38-.04.11-.11.21-.19.3l-2.83,3.51h3.03v1.41h-5.36v-.77c0-.1.03-.2.07-.29.04-.12.11-.23.2-.33l2.86-3.55h-2.93v-1.41h5.24v.76Z"></path><path class="cls-1" d="m61.23,8.29c.48,0,.95.07,1.4.23.41.14.78.36,1.09.65.31.29.55.64.7,1.03.17.43.26.9.25,1.36,0,.47-.08.93-.25,1.37-.16.39-.4.74-.7,1.04-.31.29-.68.51-1.09.66-.45.16-.93.24-1.4.23-.48,0-.96-.07-1.42-.24-.41-.14-.79-.37-1.1-.66-.31-.29-.56-.65-.71-1.04-.17-.44-.26-.9-.25-1.37,0-.46.08-.92.25-1.36.16-.39.4-.73.72-1.02.32-.29.69-.51,1.1-.65.45-.16.93-.23,1.41-.23Zm0,5.15c.47,0,.81-.15,1.03-.46.22-.31.33-.78.33-1.41,0-.63-.11-1.1-.33-1.41-.22-.31-.56-.46-1.03-.46s-.83.15-1.05.46c-.22.31-.33.78-.33,1.41s.11,1.1.33,1.41c.22.31.57.46,1.05.46Z"></path><path class="cls-1" d="m75.95,5.96v8.79h-1.11v-6.46c0-.08,0-.18.01-.28,0-.1.01-.2.02-.3l-3.21,5.5c-.04.08-.1.15-.18.2-.08.05-.18.07-.27.07h-.18c-.1,0-.19-.02-.27-.07-.08-.05-.15-.12-.18-.2l-3.28-5.52c.02.2.04.4.04.6v6.46h-1.11V5.96h.93c.09,0,.18,0,.26.03.08.04.14.1.18.17l3.23,5.41c.05.1.1.2.15.31.05.11.1.21.14.32.04-.11.09-.22.14-.33.05-.11.1-.21.16-.31l3.17-5.41c.03-.08.1-.14.17-.17.09-.02.17-.03.26-.03h.93Z"></path><path class="cls-1" d="m83.23,13.88c-.15.17-.32.31-.52.43-.2.12-.42.22-.64.3-.23.08-.47.14-.71.18-.24.04-.48.06-.73.06-.43,0-.86-.07-1.26-.22-.38-.14-.72-.36-1-.64-.3-.3-.52-.65-.66-1.04-.16-.46-.24-.94-.23-1.42,0-.41.07-.83.21-1.22.13-.36.34-.69.61-.98.27-.28.6-.5.97-.65.41-.16.85-.25,1.29-.24.38,0,.75.06,1.1.19.33.12.63.3.87.54.26.25.45.55.58.87.15.38.22.78.21,1.18.01.12,0,.24-.06.34-.03.03-.06.05-.1.07-.04.01-.08.02-.12.02h-4.43c0,.35.06.69.17,1.02.09.27.23.51.43.73.18.19.4.34.65.44.27.1.56.15.85.15.26,0,.51-.03.75-.1.19-.05.37-.12.55-.21.13-.06.26-.13.38-.21.08-.06.17-.09.26-.1.04,0,.09,0,.12.03.04.02.07.05.1.08l.33.41Zm-.94-2.91c0-.24-.03-.47-.11-.7-.07-.2-.18-.39-.33-.55-.15-.15-.33-.28-.53-.36-.23-.09-.47-.13-.71-.13-.56,0-1,.15-1.32.46-.32.3-.53.73-.6,1.27h3.61Z"></path><path class="cls-1" d="m86.75,14.85c-.52,0-.92-.14-1.21-.41-.28-.28-.42-.67-.42-1.18v-3.8h-.79c-.06,0-.13-.02-.18-.06-.03-.02-.05-.05-.06-.08-.01-.03-.02-.07-.01-.1v-.44l1.08-.13.27-1.92c.01-.06.04-.11.09-.15.05-.04.11-.06.18-.06h.59v2.14h1.91v.79h-1.92v3.73c0,.26.07.46.2.58.07.06.15.11.24.15.09.03.19.05.28.04.11,0,.21-.01.32-.04.08-.03.16-.06.23-.1.06-.04.12-.07.17-.1.04-.03.08-.04.12-.05.03,0,.07.01.1.03.03.02.05.04.07.07l.34.52c-.21.18-.46.32-.73.41-.28.1-.58.15-.87.16Z"></path><path class="cls-1" d="m94.73,13.88c-.15.17-.32.31-.52.43-.2.12-.42.22-.64.3-.23.08-.47.14-.71.18-.24.04-.48.06-.73.06-.43,0-.86-.07-1.26-.22-.38-.14-.72-.36-1-.64-.29-.3-.52-.65-.66-1.04-.16-.46-.24-.94-.24-1.42,0-.41.07-.83.21-1.22.13-.36.34-.69.61-.97.27-.28.6-.5.97-.65.41-.16.85-.24,1.29-.24.38,0,.75.06,1.1.19.33.12.63.3.88.54.26.25.45.55.58.87.15.38.22.78.21,1.18.01.12,0,.24-.06.34-.03.03-.06.06-.1.07-.04.01-.08.02-.12.02h-4.43c0,.35.06.69.17,1.02.09.27.23.51.43.73.18.19.4.34.65.44.27.1.56.15.85.15.25,0,.51-.03.75-.1.19-.05.37-.12.55-.21.15-.07.28-.14.38-.21.08-.06.17-.09.27-.1.04,0,.09,0,.12.03.04.02.07.04.1.08l.32.41Zm-.94-2.91c0-.24-.03-.47-.11-.7-.07-.2-.18-.39-.33-.55-.15-.15-.33-.28-.53-.36-.23-.09-.47-.13-.71-.13-.56,0-1,.15-1.32.46-.32.3-.53.73-.61,1.27h3.62Z"></path><path class="cls-1" d="m97.37,9.78c.18-.38.44-.72.77-1,.31-.24.71-.37,1.12-.36.14,0,.27.01.4.04.12.03.24.07.34.13l-.08.82s-.03.08-.07.11c-.04.03-.08.04-.13.04-.09,0-.18-.02-.27-.04-.13-.03-.27-.04-.4-.04-.19,0-.37.03-.55.09-.16.06-.31.14-.44.26-.14.12-.25.26-.35.41-.11.18-.2.37-.28.57v3.93h-1.17v-6.21h.66c.09,0,.19.01.26.07.06.07.09.15.1.23l.08.95Z"></path><path class="cls-1" d="m20.72,5.51c-.85-1.5-2.07-2.78-3.56-3.73C15.66.83,13.94.24,12.15.06c-.36-.04-.73-.05-1.09-.05,0,0-.01,0-.02,0-.01,0-.02,0-.04,0-.01,0-.02,0-.03,0-1.4,0-2.78.28-4.09.77C2.85,2.31,0,6.03,0,10.37c0,1.5.34,2.92.95,4.2,0,0,0,0,0,0,.54-.38,1.39-.76,3.1-.61l.05-.05c-.33-.46-.48-1.01-.43-1.57s.3-1.07.7-1.48c.41-.4.94-.66,1.53-.74.58-.08,1.18.04,1.68.32.06-.1.28-.4.99-.78.87-.48,1.1-.51,2.02-.47.03,0,.07,0,.1,0,.17-.1.32-.22.46-.35.23-.23.44-.49.6-.77.36-.59.58-1.25.63-1.93.03-.52-.06-1.26-.67-1.86-.28-.27-.61-.48-.97-.63h-.02s-.07-.04-.09-.08c-.02-.03-.03-.07-.03-.11,0-.03,0-.06.01-.08.01-.03.03-.05.05-.07s.05-.04.07-.05c.03-.01.06-.01.09-.01h.03c.48.05.94.19,1.36.4.45.23.84.56,1.13.96.3.4.52.85.65,1.33.24.95.25,1.94.03,2.89-.11.48-.28.95-.51,1.4-.22.44-.5.84-.84,1.2,0,0-.01.02-.01.03,0,.01,0,.02,0,.03,0,0,.01.02.02.02,0,0,.02,0,.03,0,.08,0,.17-.02.25-.04h.04c.24-.08.49-.27.75-.6,0,0,0,0,.02-.01,0,0,.01,0,.02,0,.02,0,.04.03.03.17,0,.27-.2,2.37-1.07,3.61-.45.61-1.01,1.13-1.66,1.54-.23.14-.41.34-.52.58-.12.23-.17.49-.15.75v.03c.02.25.05.61.07,1.01,1.16.06,2.33-.09,3.42-.46,1.13-.38,2.16-.97,3.04-1.74.88-.77,1.57-1.7,2.05-2.73.48-1.03.72-2.15.72-3.27,0-1.34-.35-2.67-1.02-3.85-.67-1.19-1.64-2.2-2.82-2.95s-2.55-1.22-3.97-1.37c-.7-.07-1.4-.06-2.09.02-1.03.13-2.11-.23-2.7-1.04,0,0,.17-.07.5-.17,1.08-.34,2.2-.51,3.35-.51.38,0,.76.02,1.13.06,1.71.17,3.37.74,4.79,1.65,1.42.9,2.59,2.13,3.4,3.55.8,1.42,1.22,3.01,1.22,4.61,0,1.36-.29,2.68-.87,3.92-.58,1.25-1.41,2.35-2.46,3.28-1.06.93-2.29,1.64-3.66,2.09-1.11.37-2.28.57-3.46.57l-.08-1.65s-.01,0-.02,0c-.16,0-.32,0-.47-.01l.12,2.16c.12,0,.24,0,.37,0,1.26,0,2.51-.2,3.7-.6,1.42-.48,2.73-1.22,3.84-2.19,1.1-.97,1.99-2.14,2.59-3.45.6-1.3.91-2.71.91-4.13,0-1.69-.44-3.36-1.29-4.86ZM7.09,1.14s0,.01.01.02c0,0,0-.01-.01-.02Z"></path><ellipse class="cls-1" cx="9.84" cy="10.63" rx=".45" ry=".42"></ellipse></svg> 