<?xml version="1.0" encoding="UTF-8"?> <svg xmlns="http://www.w3.org/2000/svg" id="Layer_1" width="600" height="400" viewBox="0 0 600 400"><defs><style>.cls-1{fill:#fff;}</style></defs><path class="cls-1" d="m45.25,172.19h-25.25v2.24l4.73.92c1.45.92,2.24,2.37,2.24,4.6v40.5c0,3.42-2.37,5.26-6.97,5.26v2.24h26.03l4.73-.26c8.42-1.31,14.73-4.6,19.07-9.73,4.08-4.86,6.05-10.91,6.05-18.41,0-6.57-1.84-12.23-5.65-16.83-4.34-5.52-10.91-8.81-19.33-9.86l-5.65-.66h0Zm-4.47,4.08c.79-.92,2.24-1.18,4.6-1.18l5.39.92c4.08,1.58,6.84,5.39,8.68,11.04,1.31,3.81,1.84,7.89,1.84,12.89,0,13.41-3.42,21.43-10.52,23.93l-5.79.79c-2.1,0-3.29-.26-4.08-1.05l-.66-3.55v-41.16l.53-2.63h0Z"></path><path class="cls-1" d="m98.37,188.23l8.42,20.12h-16.04l7.63-20.12h0Zm3.81-17.22l-18.01,44.97c-1.31,3.42-2.37,5.65-3.29,6.97-1.05,1.45-2.76,2.24-4.86,2.5v2.24h16.7v-2.24c-4.6-.26-6.71-1.31-6.71-3.42l3.68-10.65h18.41c2.24,5.92,3.55,9.73,3.55,11.04,0,1.18-.26,1.97-1.05,2.5l-5.39.53v2.24h26.56v-2.24c-1.97.26-3.42-.79-4.6-2.37l-4.34-9.07-18.28-43h-2.37Z"></path><path class="cls-1" d="m136.1,172.19h28.66v2.24l-5.26.92c-1.58.79-2.5,2.37-2.5,4.86v39.58c0,2.24.66,3.94,2.24,4.86l5.52.92v2.24h-28.66v-2.24l5.39-1.05c1.45-.92,2.24-2.37,2.24-4.73v-39.71c0-2.24-.79-3.94-2.37-4.86l-5.26-.92v-2.1h0Z"></path><path class="cls-1" d="m218.41,208.88l-3.29,18.67h-47.34v-2.24l5.26-1.31c1.31-.66,1.84-2.24,1.84-4.47v-39.45c0-2.5-.79-4.08-2.24-4.86l-4.86-.92v-2.1h28.66v2.24l-6.18,1.05c-1.45.92-2.24,3.02-2.24,6.31v38.79c0,1.84.53,3.02,1.84,3.55l5.65.92c5.52,0,10.12-1.58,13.54-4.6,2.24-2.37,4.73-6.18,7.1-11.7l2.24.13h0Z"></path><path class="cls-1" d="m252.86,172.19h20.91v1.97l-4.08.39c-2.24.53-3.68,1.58-4.34,2.89l-15.65,25.51v15.25c0,3.29.53,5.26,1.58,5.92.92.66,2.89,1.18,6.05,1.45v2.24h-28.53v-2.24l5.92-1.45c1.31-.92,1.84-2.89,1.84-5.92v-11.97l-15.38-27.61c-1.58-2.76-3.68-4.08-6.57-4.34v-2.1h27.61v2.24l-5.39.26c-.92.39-1.31,1.05-1.31,2.24l2.1,4.6,9.86,19.07,10.78-18.28c.92-2.1,1.45-3.29,1.45-4.21,0-1.45-.53-2.5-1.84-3.02l-4.86-.53-.13-2.37h0Z"></path><path class="cls-1" d="m354.24,184.68v32.61c0,3.02.53,5.13,1.58,6.18,1.05,1.05,3.02,1.71,6.18,1.97v2.24h-18.67v-2.24l5.65-1.45c1.05-.79,1.58-2.37,1.58-5.13v-38.79c-1.84-3.02-3.81-4.86-5.92-5.52l-3.02-.26v-2.1h19.33l28.27,34.98h.26v-24.72c0-2.76-.26-4.73-1.31-5.79-1.05-1.58-3.29-2.24-6.31-2.37v-2.1h17.62v2.24c-2.76.26-4.6.92-5.39,1.97-.53.92-.92,2.37-.92,4.6v48.12h-2.24l-36.42-44.31-.26-.13h0Z"></path><path class="cls-1" d="m438.52,185.6v27.74h-1.97c-.53-4.86-2.1-8.15-4.21-10.12-1.71-1.84-4.87-2.76-9.2-2.76v20.12c0,1.58.53,2.89,1.58,3.42l5.39,1.05c4.73,0,8.68-.92,11.97-2.63,3.94-2.24,7.23-6.31,9.6-11.97h2.37l-3.29,17.09h-48.12v-2.24l5.39-1.31c1.31-.66,1.84-2.24,1.84-4.47v-39.45c0-2.5-.79-4.08-2.37-4.86l-4.87-.92v-2.1h47.47v16.57h-2.37c-.92-5.65-2.76-9.2-5.79-11.31-2.76-1.58-6.97-2.24-12.89-2.24l-4.73.66c-.92.39-1.31,1.58-1.31,3.16v19.07c4.21,0,7.23-.79,9.07-2.37,2.24-1.84,3.55-5.13,4.34-9.99l2.1-.13h0Z"></path><path class="cls-1" d="m457.45,172.19h24.19v2.24l-3.68.53c-1.05.53-1.58,1.45-1.58,2.76l.79,2.5,9.47,29.85h.26l9.6-24.98-2.89-7.89-2.1-1.97-3.81-.79v-2.24h25.51v2.24l-4.21.53c-1.05.53-1.58,1.31-1.58,2.5l1.05,4.34,8.94,27.35h.26l8.81-27.74.79-3.42c0-1.45-.53-2.5-1.84-3.02l-3.81-.53v-2.24h14.86v2.24c-2.76.26-4.73,1.84-5.65,5.13l-16.44,49.31h-2.24l-13.81-38.39h-.53l-14.99,38.26h-2.5l-17.22-49.31-2.1-3.81c-.53-.79-1.71-1.05-3.55-1.31v-2.1h0Z"></path><path class="cls-1" d="m544.76,177.06c3.02-4.08,8.15-6.18,14.73-6.18l8.02,1.58,4.87,1.18c1.18,0,2.24-.92,2.5-2.76h2.5v17.88h-2.24c-.92-3.81-2.63-6.97-4.87-9.73-3.16-3.81-6.71-5.52-11.31-5.52-2.24,0-4.08.66-5.79,1.97-1.97,1.45-2.89,3.42-2.89,5.92,0,2.24.53,3.81,1.84,5.13,1.05,1.18,3.42,2.76,6.84,4.47l11.97,6.05c2.1.92,4.08,2.37,5.65,4.6,2.37,3.02,3.42,6.57,3.42,10.52,0,4.34-1.58,8.15-4.6,11.18-3.81,3.81-9.07,5.79-16.04,5.79l-8.81-1.18-5.13-1.58c-1.31,0-1.97.92-2.37,2.76h-2.24v-20.25h2.24c.92,4.86,2.63,8.68,5.13,11.83,3.02,3.81,6.84,5.52,11.57,5.52,4.08,0,7.1-1.45,8.81-4.08l1.58-4.86c0-2.37-.92-4.6-2.76-6.18-1.05-1.05-3.29-2.24-6.57-3.94l-5.39-2.63c-5.92-2.76-10.26-6.05-12.36-9.73-1.18-1.97-1.71-4.73-1.71-7.76.13-3.81,1.18-7.1,3.42-9.99h0Z"></path><path class="cls-1" d="m312.56,189.02h-16.83c-1.31,0-2.24.26-2.89,1.31-.92.66-1.31,1.58-1.31,2.76v16.83c0,1.18.39,2.24,1.31,2.76.79.92,1.58,1.31,2.89,1.31h16.83c1.05,0,1.97-.26,2.76-1.31.92-.66,1.18-1.58,1.18-2.76v-16.83c0-1.05-.26-2.1-1.18-2.76-.79-1.05-1.71-1.31-2.76-1.31h0Zm0,21.17h-16.83l-.26-.26v-16.83l.26-.39h16.83l.26.39v16.83l-.26.26h0Z"></path><path class="cls-1" d="m317.42,183.63h-26.69c-1.31,0-2.63.26-3.68,1.31-.92,1.05-1.45,2.24-1.45,3.81v26.43c0,1.45.53,2.76,1.45,3.55,1.05,1.05,2.37,1.58,3.68,1.58h26.69c1.45,0,2.76-.53,3.55-1.58.92-.92,1.45-2.24,1.45-3.55v-26.43c0-1.58-.53-2.76-1.45-3.81l-3.55-1.31h0Zm0,32.87h-26.69c-.92,0-1.58-.53-1.58-1.45v-26.43c0-1.05.53-1.58,1.58-1.58h26.69c.92,0,1.45.53,1.45,1.58v26.43c0,.92-.53,1.45-1.45,1.45h0Z"></path><path class="cls-1" d="m324,190.34h-4.08v2.76c1.31,0,2.76-.13,4.08,0,.26,0,.79.26.79.66v15.38c0,.26-.39.53-.79.53h-4.08l-.26,2.5h4.34c.92,0,1.71-.13,2.37-.92.53-.66,1.05-1.31,1.05-2.24v-15.25c0-.79-.53-1.71-1.05-2.24-.53-.66-1.45-1.18-2.37-1.18h0Z"></path><path class="cls-1" d="m284.94,226.76h38.53l-1.58-3.42v-.26c0-1.05-.66-1.58-1.97-1.58s-1.84.53-1.84,1.58v.26h-27.88v-.26c0-1.45-.92-2.1-1.71-2.1-1.05,0-2.1,1.05-2.37,2.37l-1.18,3.42h0Z"></path><path class="cls-1" d="m287.57,201.25c-2.24,0-3.94.66-5.39,2.24-1.45,1.58-2.24,3.29-2.24,5.39v11.97h2.1v-11.97c0-1.58.53-3.02,1.58-3.94,1.05-1.31,2.24-1.84,3.94-1.84h11.7v-1.97h-11.7v.13Z"></path><path class="cls-1" d="m282.71,221.63c0,.53-.53.92-1.71.92-1.31,0-1.84-.26-1.84-.92s.53-.92,1.84-.92c1.18.13,1.71.39,1.71.92h0Z"></path><polygon class="cls-1" points="281.79 226.89 279.95 226.89 280.21 223.08 281.53 223.08 281.79 226.89"></polygon><path class="cls-1" d="m304.01,196.12c3.42,0,6.31,2.89,6.31,6.31s-2.89,6.31-6.31,6.31-6.31-2.89-6.31-6.31,2.89-6.31,6.31-6.31h0Zm0,3.29c1.71,0,3.02,1.31,3.02,3.02,0,1.58-1.31,3.02-3.02,3.02-1.58,0-3.02-1.31-3.02-3.02.13-1.71,1.45-3.02,3.02-3.02h0Z"></path></svg> 