<?xml version="1.0" encoding="UTF-8"?> <svg xmlns="http://www.w3.org/2000/svg" id="Layer_1" width="600" height="400" viewBox="0 0 600 400"><defs><style>.cls-1{fill:#fff;fill-rule:evenodd;}</style></defs><path class="cls-1" d="m343.47,179.28c-6.4,0-11.43,1.32-16.47,3.97,0-14.11,0-26.89.46-31.3l-30.65,5.29v2.64l3.2.44c4.12.88,5.49,3.08,6.4,8.37.92,10.58.46,67,0,76.26,8.24,1.76,16.93,3.09,25.62,3.09,24.25,0,38.88-14.55,38.88-37.47,0-18.07-11.89-31.3-27.45-31.3h.01Zm-10.52,63.92c-1.83,0-4.12,0-5.49-.44-.46-6.17-.91-32.18-.46-55.1,2.74-.89,4.57-1.32,6.86-1.32,10.07,0,15.55,11.46,15.55,25.57,0,17.63-6.86,31.3-16.47,31.3h0Z"></path><path class="cls-1" d="m181.51,153.71h-80.52v3.97l4.57.44c5.95.88,8.24,4.41,9.15,12.78,1.37,15.87.92,44.52,0,58.19-.91,8.37-3.2,12.34-9.15,12.78l-4.57.88v3.53h51.7v-3.53l-5.49-.88c-5.95-.44-8.24-4.41-9.15-12.78-.46-5.73-.91-14.99-.91-26.45l10.98.44c6.87,0,10.07,5.29,11.43,12.78h4.12v-31.3h-4.12c-1.37,7.5-4.57,12.78-11.43,12.78l-10.98.44c0-14.99.46-29.09.91-37.47h16.01c12.35,0,18.76,7.5,23.33,20.72l4.57-1.32-.46-26.01h0Z"></path><path class="cls-1" d="m207.59,178.39c22.88,0,34.32,14.99,34.32,34.82s-12.81,34.82-35.68,34.82-34.31-14.99-34.31-34.82,12.81-34.82,35.68-34.82h0Zm-1.37,4.41c-10.07,0-12.81,13.22-12.81,30.42s4.57,30.42,13.73,30.42c10.51,0,13.26-13.22,13.26-30.42s-4.57-30.42-14.18-30.42h0Z"></path><path class="cls-1" d="m376.86,213.66c0-18.07,11.9-35.26,35.23-35.26,19.21,0,28.37,13.67,28.37,31.74h-42.55c-.46,16.31,7.78,28.21,24.25,28.21,7.32,0,10.98-1.76,15.55-4.85l1.83,2.2c-4.57,6.17-14.64,12.34-27.45,12.34-20.59,0-35.23-14.11-35.23-34.38h0Zm21.04-8.37l21.5-.44c0-8.81-1.37-22.04-9.15-22.04s-11.9,12.34-12.35,22.48h0Z"></path><path class="cls-1" d="m494.89,181.92c-5.49-2.2-12.81-3.53-21.04-3.53-16.93,0-27.45,9.69-27.45,21.16s7.77,16.31,18.76,19.84c11.43,3.97,14.64,7.06,14.64,12.34s-4.12,10.14-11.43,10.14c-8.69,0-15.1-4.85-20.13-18.07l-3.21.88.46,19.4c5.49,2.2,15.55,3.97,24.24,3.97,17.85,0,29.28-8.81,29.28-22.48,0-9.26-5.04-14.55-16.93-18.96-12.81-4.85-17.38-7.94-17.38-13.67s4.12-9.7,9.6-9.7c8.24,0,13.73,4.85,17.85,16.75l3.2-.88-.46-17.19h0Z"></path><path class="cls-1" d="m301.38,180.15c-7.78-4.41-21.5-2.2-28.82,13.67l.46-15.43-30.65,5.73v2.64l3.21.44c4.12.44,5.95,2.64,6.4,8.37.92,10.58.46,29.09,0,38.35-.46,5.29-2.29,7.94-6.4,8.37l-3.21.44v3.53h42.54v-3.53l-5.49-.44c-4.57-.44-5.95-3.09-6.4-8.37-.91-8.37-.91-25.12-.46-35.71,2.29-3.09,12.35-5.73,21.5,0l7.32-18.07h0Z"></path></svg> 