<?xml version="1.0" encoding="UTF-8"?> <svg xmlns="http://www.w3.org/2000/svg" id="Layer_1" width="600" height="400" viewBox="0 0 600 400"><defs><style>.cls-1{fill:#fff;}</style></defs><path class="cls-1" d="m58.33,158.01h20.79c11.44,0,15.59,1.04,20.79,7.28,3.12,3.12,4.16,7.28,4.16,11.43,0,5.2-2.08,9.36-8.32,12.47,11.44,4.16,11.44,13.51,11.44,16.63,0,5.2-2.08,11.44-6.24,14.55-6.24,5.2-9.35,6.24-20.79,6.24h-21.83v-68.6h0Zm17.67,25.99h5.2c2.08,0,6.24,0,6.24-5.2s-4.16-5.2-6.24-5.2h-5.2v10.4h0Zm0,27.02h7.28c2.08,0,7.28,0,7.28-6.24s-5.2-6.24-7.28-6.24h-7.28v12.47h0Z"></path><polygon class="cls-1" points="111.34 158.01 126.93 158.01 126.93 226.62 111.34 226.62 111.34 158.01"></polygon><path class="cls-1" d="m159.15,173.61c18.71,0,27.02,14.55,27.02,27.02s-8.31,28.07-27.02,28.07-28.07-15.59-28.07-28.07,9.36-27.02,28.07-27.02h0Zm0,40.54c6.24,0,11.43-5.2,11.43-13.51,0-7.28-5.2-12.47-11.43-12.47-7.28,0-12.47,5.2-12.47,12.47,0,8.32,5.2,13.51,12.47,13.51h0Z"></path><path class="cls-1" d="m217.36,173.61c18.71,0,28.07,14.55,28.07,27.02s-9.35,28.07-28.07,28.07-28.07-15.59-28.07-28.07c0-12.47,9.35-27.02,28.07-27.02h0Zm0,40.54c6.24,0,12.47-5.2,12.47-13.51,0-7.28-6.24-12.47-12.47-12.47s-12.47,5.2-12.47,12.47c0,8.32,6.23,13.51,12.47,13.51h0Z"></path><path class="cls-1" d="m248.55,175.68h14.55v5.2h0c1.04-2.08,5.2-7.28,14.55-7.28,4.16,0,10.4,2.08,14.55,9.35,3.12-5.2,8.31-9.35,16.63-9.35,3.11,0,9.35,1.04,13.51,5.2,4.16,5.2,5.19,8.32,5.19,19.75v28.07h-15.59v-27.02c0-4.16,0-11.43-7.28-11.43-9.35,0-9.35,7.28-9.35,10.4v28.07h-14.55v-28.07c0-2.08,0-10.4-8.31-10.4s-8.32,8.31-8.32,11.43v27.03h-15.59v-50.94h0Z"></path><path class="cls-1" d="m333.78,158.01h15.59v21.83c5.2-6.24,12.47-6.24,14.55-6.24,11.43,0,25.99,7.28,25.99,27.02,0,18.71-13.51,28.07-25.99,28.07-7.28,0-12.47-4.16-14.55-7.28h-1.04v5.2h-14.55v-68.6h0Zm28.07,56.13c7.28,0,12.47-6.24,12.47-13.51,0-6.24-5.19-12.47-12.47-12.47-8.32,0-12.47,6.24-12.47,12.47,0,7.28,4.16,13.51,12.47,13.51h0Z"></path><path class="cls-1" d="m447.08,211.03c-3.11,5.2-6.23,9.35-10.39,12.47-5.2,3.12-9.35,5.2-15.59,5.2-14.55,0-27.02-12.47-27.02-28.07,0-13.51,11.43-27.02,27.02-27.02s27.03,12.47,27.03,28.07v4.16h-38.46c1.04,6.24,6.24,9.36,11.43,9.36s7.28-2.08,9.35-4.16h16.63Zm-13.51-15.59c-1.04-3.12-4.16-9.35-12.47-9.35-7.27,0-10.39,6.24-11.43,9.35h23.91Z"></path><path class="cls-1" d="m454.36,175.68h14.55v5.2h0c2.08-1.04,8.31-6.24,14.55-5.2v14.55c-6.24,0-13.51,0-13.51,8.32v28.07h-15.59v-50.94h0Z"></path><path class="cls-1" d="m541.67,220.38c0,7.28-1.04,17.67-3.12,21.83-4.16,6.23-13.51,12.47-25.99,10.39-17.67-1.04-22.87-9.35-23.91-17.67h16.63c2.08,5.2,7.28,5.2,8.32,5.2,8.31,0,12.47-1.04,12.47-17.67v-1.04h0c-2.08,2.08-6.23,7.28-14.55,7.28-13.52,0-25.99-11.43-25.99-27.03,0-17.67,12.47-28.07,25.99-28.07,6.23,0,11.43,2.08,14.55,6.24h0v-4.16h15.59v44.69h0Zm-28.07-6.24c7.28,0,12.47-5.2,12.47-12.47,0-8.32-5.19-13.51-12.47-13.51-6.24,0-12.47,5.2-12.47,12.47,0,8.32,6.23,13.52,12.47,13.52h0Z"></path></svg> 