<?xml version="1.0" encoding="UTF-8"?> <svg xmlns="http://www.w3.org/2000/svg" id="Layer_1" width="600" height="400" viewBox="0 0 600 400"><defs><style>.cls-1{fill:#fff;}</style></defs><circle class="cls-1" cx="155.77" cy="200" r="80.77"></circle><path class="cls-1" d="m282.69,181.25c2.54.16,5.02-.79,6.81-2.6,1.68-2.12,2.47-4.81,2.19-7.5v-32.13h14.6v32.13c.37,6.13-1.92,12.12-6.29,16.44-4.83,4.04-11.02,6.1-17.31,5.77-6.29.33-12.47-1.73-17.31-5.77-4.51-4.25-6.95-10.25-6.69-16.44v-32.13h14.6v32.13c-.17,2.68.7,5.32,2.42,7.38,1.81,1.9,4.37,2.89,6.98,2.71Zm52.73,12.17c-4.22,0-8.4-.75-12.35-2.25-3.87-1.4-7.4-3.58-10.38-6.4l7.04-8.88c2.06,1.9,4.44,3.4,7.04,4.44,2.75,1.11,5.69,1.66,8.65,1.62,1.72.11,3.44-.27,4.96-1.1,1.15-.69,1.83-1.95,1.79-3.29-.02-1.44-.84-2.76-2.13-3.4-2.36-1.31-4.88-2.32-7.5-3l-3.29-.87c-4.11-.89-7.9-2.88-10.96-5.77-2.52-2.65-3.87-6.21-3.75-9.87,0-3.1.97-6.12,2.77-8.65,1.9-2.55,4.45-4.54,7.38-5.77,3.45-1.44,7.17-2.14,10.9-2.08,3.96,0,7.87.76,11.54,2.25,3.6,1.34,6.94,3.29,9.87,5.77l-7.27,9.35c-2.02-1.68-4.25-3.1-6.63-4.21-2.35-1.16-4.94-1.77-7.56-1.79-1.68-.12-3.36.24-4.85,1.04-1.22.62-1.95,1.92-1.85,3.29.04,1.3.71,2.51,1.79,3.23,1.91,1.21,4.02,2.07,6.23,2.54l3.98,1.1c4.6.92,8.83,3.17,12.17,6.46,2.42,2.66,3.7,6.16,3.58,9.75.06,3.17-.86,6.27-2.65,8.88-1.9,2.57-4.48,4.57-7.44,5.77-3.53,1.36-7.3,1.99-11.08,1.85Zm65.31-1.04l-3.4-9.69h-19.96l-3.35,9.98h-14.42l19.56-53.37h16.96l19.27,53.08h-14.65Zm-19.96-20.77h12.63l-5.77-18.69-6.87,18.69Zm-106.21,89.13v-41.6h-15.87v-11.54h46.15v11.54h-15.69v41.6h-14.6Zm60.98,1.04c-4.98.11-9.9-1.1-14.25-3.52-4.09-2.32-7.46-5.71-9.75-9.81-2.46-4.36-3.71-9.3-3.63-14.31-.05-3.78.62-7.54,1.96-11.08,1.32-3.28,3.28-6.26,5.77-8.77,2.52-2.48,5.5-4.44,8.77-5.77,7.12-2.71,14.98-2.71,22.1,0,3.27,1.33,6.25,3.29,8.77,5.77,2.49,2.51,4.45,5.49,5.77,8.77,1.52,3.5,2.34,7.26,2.42,11.08.1,5-1.14,9.94-3.58,14.31-2.35,4.08-5.76,7.44-9.87,9.75-4.42,2.47-9.42,3.7-14.48,3.58Zm0-12.06c2.38.05,4.72-.63,6.69-1.96,2-1.47,3.56-3.47,4.5-5.77,2.23-5.19,2.23-11.08,0-16.27-.94-2.3-2.49-4.3-4.5-5.77-4.07-2.71-9.37-2.71-13.44,0-2.01,1.47-3.56,3.47-4.5,5.77-2.23,5.19-2.23,11.08,0,16.27.94,2.3,2.5,4.3,4.5,5.77,2,1.32,4.36,1.98,6.75,1.9v.06Zm36.06,11.02v-53.37h21.06c4.89-.09,9.72,1.08,14.02,3.4,3.97,2.21,7.27,5.46,9.52,9.4,4.62,8.65,4.62,19.04,0,27.69-2.25,3.95-5.55,7.2-9.52,9.4-4.3,2.33-9.13,3.5-14.02,3.4l-21.06.06Zm14.37-11.54h6.69c3.51.14,6.87-1.41,9.06-4.15,2.33-3.17,3.51-7.03,3.35-10.96.16-3.93-1.02-7.79-3.35-10.96-2.18-2.75-5.55-4.29-9.06-4.15h-6.69v30.23Zm76.73,11.54l-3.35-9.98h-20.02l-3.35,9.98h-14.42l19.56-53.37h16.96l19.56,53.37h-14.94Zm-19.67-20.77h12.75l-6.29-18.69-6.46,18.69Zm62.77,1.56v19.21h-14.83v-19.21l-18.92-34.15h16.5l9.87,21.46,9.81-21.17h16.79l-19.21,33.87Z"></path></svg> 