<?xml version="1.0" encoding="UTF-8"?> <svg xmlns="http://www.w3.org/2000/svg" id="Layer_1" width="600" height="400" viewBox="0 0 600 400"><defs><style>.cls-1{fill:#fff;}</style></defs><path class="cls-1" d="m171.54,232.87v-30.33c-.05-2.33-.81-4.22-3.47-4.71-2.55-.49-4.82.76-5.85,3.2-.22.49-.49,1.08-.49,1.57v16.52c.97.11,1.9.16,2.98.27v13.48h-24.91v-13.48c1.25-.11,2.33-.16,3.63-.27v-21.61c-1.19-.11-2.33-.22-3.63-.38v-13.54h19.44c.27,2.11.49,4.17.81,6.77,4.28-6.07,9.75-8.56,16.63-8.23,7.96.38,12.62,4.93,12.84,12.89.22,6.88.05,13.81.05,20.69v3.25c1.3.11,2.44.27,3.85.38v13.43h-21.83l-.05.11Z"></path><path class="cls-1" d="m232.47,197.45c-1.46-.16-2.6-.27-3.9-.38v-13.48h21.93v28.54c0,1.19.05,2.44.38,3.57.54,2.11,2.06,3.3,4.28,3.3s3.57-1.3,4.28-3.36c.11-.38.22-.7.22-1.08v-17.17c-1.03-.11-2-.22-3.2-.32v-13.43h21.45v35.53c1.41.05,2.49.11,3.85.22v13.48h-20.04c-.11-1.41-.27-2.87-.43-4.71-4.12,4.6-9.04,6.28-14.73,6.17-8.12-.16-13.43-4.93-13.81-13.05-.32-6.77-.16-13.59-.22-20.42v-3.41h-.05Z"></path><path class="cls-1" d="m199.76,197.45c-1.57-.11-2.76-.16-4.12-.27v-13.76h5.52c0-3.41-.11-6.66.05-9.91,0-.76.81-1.95,1.46-2.11,4.77-1.25,9.59-2.27,14.78-3.41v15.43h7.91v13.86h-7.69c0,6.61-.16,12.94.05,19.23.16,3.25,2.11,4.17,7.26,3.95,0,3.68,0,7.42-.05,11.1,0,.49-.81,1.35-1.3,1.41-4.87.22-9.91.97-14.68.27-6.61-.92-9.1-4.55-9.15-11.26v-24.59l-.05.05Z"></path><path class="cls-1" d="m562.77,183.59h7.74c.11.97.22,1.73.22,2.44v11.16h-7.91v16.63c0,5.69,1.57,7.15,7.53,6.82,0,3.63.05,7.2-.05,10.78,0,.54-.87,1.46-1.46,1.57-5.25.97-10.51,1.57-15.81.05-4.98-1.41-7.42-4.22-7.58-9.42-.22-7.47-.16-14.89-.22-22.37v-3.79c-1.41-.11-2.55-.22-4.01-.38v-13.43c1.62-.11,3.3-.16,5.25-.27v-11.59c5.47-1.25,10.67-2.44,16.3-3.74v15.54Z"></path><path class="cls-1" d="m307.58,219.28h5.47v13.65h-27.02v-13.43c1.19-.11,2.33-.22,3.68-.38v-21.61c-1.19-.11-2.33-.22-3.68-.32v-13.48h19.12c.16,2.11.38,4.33.54,5.9,2.33-1.9,4.55-4.39,7.31-5.79,2.87-1.52,6.28-1.25,9.53-.22v15.49c-1.9,0-3.68-.05-5.42,0-6.12.32-9.37,3.63-9.48,9.75-.05,3.36,0,6.72,0,10.51l-.05-.05Z"></path><path class="cls-1" d="m217.47,167.99c-5.2,1.19-10.02,2.22-14.78,3.41-.65.16-1.41,1.35-1.46,2.11-.16,3.25-.05,6.44-.05,9.91h-5.52v13.76c1.41.11,2.6.16,4.12.27v24.59c0,6.72,2.55,10.34,9.15,11.26,4.82.65,9.8-.05,14.68-.27.49,0,1.3-.87,1.3-1.41.11-3.68.05-7.42.05-11.1-5.14.16-7.09-.7-7.26-3.95-.27-6.28-.05-12.62-.05-19.23h7.69v-13.86h-7.91v-15.49h.05Z"></path><path class="cls-1" d="m189.52,215.76c0-6.88.11-13.81-.05-20.69-.22-7.96-4.87-12.51-12.84-12.89-6.82-.32-12.29,2.17-16.63,8.23-.32-2.6-.54-4.66-.81-6.77h-19.44v13.54c1.35.16,2.49.27,3.63.38v21.61c-1.3.11-2.38.16-3.63.27v13.48h24.91v-13.48c-1.08-.11-2-.16-2.98-.27v-16.52c0-.54.27-1.08.49-1.57,1.08-2.44,3.36-3.68,5.85-3.2,2.6.49,3.36,2.44,3.47,4.71.11,2.98,0,5.96,0,8.94v21.39h21.83v-13.43c-1.41-.16-2.55-.27-3.85-.38v-3.25l.05-.11Z"></path><path class="cls-1" d="m312.94,183.75c-2.76,1.41-4.98,3.9-7.31,5.79-.16-1.62-.32-3.79-.54-5.9h-19.12v13.48c1.35.11,2.49.22,3.68.32v21.61c-1.35.11-2.49.27-3.68.38v13.43h27.02v-13.65h-5.47v-10.51c.11-6.12,3.36-9.48,9.48-9.75,1.73-.11,3.52,0,5.42,0v-15.49c-3.25-1.03-6.66-1.25-9.53.22l.05.05Z"></path><path class="cls-1" d="m93.5,178.88v-13.21h-26.32v13.65h5.63c-3.52,12.67-6.93,25.02-10.34,37.31h-.54c-3.2-12.4-9.64-37.58-9.64-37.58h5.74v-13.38h-28.81v13.81h4.22s.92,3.25,1.19,4.01c3.14,10.13,6.39,20.25,9.59,30.38,2,6.39,4.06,12.78,6.12,19.23,6.5,0,22.1.05,22.1.05,0,0,10.29-33.25,15.11-48.52.16-.43,1.79-5.74,1.79-5.74h4.22-.05Z"></path><path class="cls-1" d="m277.8,183.64h-21.45v13.43c1.19.11,2.17.22,3.2.32v17.17c0,.38-.11.76-.22,1.08-.65,2.06-2,3.36-4.28,3.36s-3.74-1.19-4.28-3.3c-.27-1.14-.38-2.38-.38-3.57v-28.54h-21.93v13.48c1.3.11,2.49.22,3.9.38v3.41c0,6.82-.11,13.59.22,20.42.38,8.12,5.69,12.89,13.81,13.05,5.63.11,10.61-1.52,14.73-6.17.16,1.9.27,3.3.43,4.71h20.04v-13.48c-1.35-.05-2.44-.11-3.85-.22v-35.53h.05Z"></path><path class="cls-1" d="m570.78,197.13v-11.16c0-.7-.11-1.46-.22-2.44h-7.74v-15.43c-5.58,1.3-10.83,2.49-16.3,3.74v11.59c-1.95.11-3.63.16-5.25.27v13.43c1.41.11,2.6.22,4.01.38v3.79c0,7.47,0,14.89.22,22.37.16,5.2,2.6,8.02,7.58,9.42,5.25,1.46,10.56.87,15.81-.05.6-.11,1.46-1.03,1.46-1.57.11-3.57.05-7.2.05-10.78-5.96.32-7.47-1.14-7.53-6.82v-16.63h7.91v-.11Z"></path><path class="cls-1" d="m534.39,219.11v-3.41c0-6.07,0-12.13-.11-18.2-.11-4.39-2.06-7.85-5.52-10.51-7.8-6.01-23.56-6.39-31.57-.7-4.44,3.14-6.34,7.53-6.07,13.05h16.08c1.57-4.93,3.14-6.44,6.01-5.96,3.03.54,4.17,3.25,3.47,8.94-1.19,0-13.11.76-17.65,2.33-9.42,3.3-13.11,15.06-7.64,23.45,1.3,2,3.47,3.74,5.63,4.71,6.23,2.87,14.03,1.08,18.79-3.79.38-.38.87-.7,1.46-1.19.22,1.84.43,3.41.65,4.93h20.36v-13.27c-1.35-.16-2.49-.27-4.01-.43l.11.05Zm-17.55-1.84c-.32,3.09-2.22,5.14-4.77,5.42-2.22.22-3.85-.65-4.66-2.76-1.03-2.65-.27-6.28,2.11-7.47,2.11-1.08,4.6-1.35,7.37-2.11,0,2.92.16,4.93,0,6.93h-.05Z"></path><path class="cls-1" d="m412.05,192.25s-.54.16-.81.22c0,0,.54-.11.81-.22Z"></path><path class="cls-1" d="m425.21,199.4c-.54-.22-1.03-.49-1.84-.92,1.14-.65,1.95-1.14,2.71-1.57,3.85-2.11,6.5-5.2,7.47-9.59,2.44-11.16-4.17-20.42-15.98-21.12-12.35-.7-24.75-.43-37.15-.54-.16,0-.27.22-.49.38v13c.97.05,1.62.16,2.22.11,3.79-.16,3.79-.76,3.79,3.68v36.61h-5.85v13.59c11.05,0,21.88.11,32.71-.05,3.9-.05,7.85-.54,11.59-1.57,7.09-2,11.37-8.02,11.54-15.43.16-8.29-3.36-13.86-10.61-16.57h-.11Zm-21.83-12.73v-7.69c2.92,0,5.42-.22,7.91.05,2.92.38,4.87,3.03,5.04,6.17.22,3.36-1.41,6.01-4.33,7.09-.27.11-.81.22-.81.22h-7.8v-5.79h0v-.05Zm14.51,26.7c-.16,3.41-2.17,5.47-5.9,5.85-2.22.22-4.44.16-6.66.16-.54,0-1.08-.11-1.73-.22v-13.32c3.09,0,5.96-.27,8.77.05,3.63.43,5.74,3.57,5.52,7.53v-.05Z"></path><path class="cls-1" d="m466.21,182.5c-13.86-1.52-24.32,5.96-26.7,19.55-1.03,5.63-.81,11.37.92,16.9,1.79,5.85,5.25,10.34,10.94,12.73,7.91,3.36,15.98,3.47,23.94.32,6.72-2.65,11.26-9.37,11.05-15.92h-16.73s0,.92-.54,2.44c-.92,2.6-2.82,3.85-5.52,3.85-6.17,0-6.17-10.78-6.17-10.78h29.35c.38,0,.65-.27.65-.65v-1.08c.22-12.67-3.79-25.35-21.28-27.29l.11-.05Zm-8.77,19.6c0-4.87,2.11-7.31,5.9-7.53,4.06-.22,6.44,2.49,6.34,7.53h-12.24Z"></path><path class="cls-1" d="m353.72,182.5c-13.86-1.52-24.32,5.96-26.7,19.55-1.03,5.63-.81,11.37.92,16.9,1.79,5.85,5.25,10.34,10.94,12.73,7.91,3.36,15.98,3.47,23.94.32,6.72-2.65,11.26-9.37,11.05-15.92h-16.73s0,.92-.54,2.44c-.92,2.6-2.82,3.85-5.52,3.85-6.17,0-6.17-10.78-6.17-10.78h29.35c.38,0,.65-.27.65-.65v-1.08c.22-12.67-3.79-25.35-21.28-27.29l.11-.05Zm-8.77,19.6c0-4.87,2.11-7.31,5.9-7.53,4.06-.22,6.44,2.49,6.34,7.53h-12.24Z"></path><path class="cls-1" d="m115.06,182.5c-13.86-1.52-24.32,5.96-26.7,19.55-1.03,5.63-.81,11.37.92,16.9,1.79,5.85,5.25,10.34,10.94,12.73,7.91,3.36,15.98,3.47,23.94.32,6.72-2.65,11.26-9.37,11.05-15.92h-16.73s0,.92-.54,2.44c-.92,2.6-2.82,3.85-5.52,3.85-6.17,0-6.17-10.78-6.17-10.78h29.35c.38,0,.65-.27.65-.65v-1.08c.22-12.67-3.79-25.35-21.28-27.29l.11-.05Zm-8.77,19.6c0-4.87,2.11-7.31,5.9-7.53,4.06-.22,6.44,2.49,6.34,7.53h-12.24Z"></path></svg> 