<?xml version="1.0" encoding="UTF-8"?><svg id="Layer_2" xmlns="http://www.w3.org/2000/svg" width="600" height="400" viewBox="0 0 600 400"><defs><style>.cls-1{fill:#fff;}</style></defs><path class="cls-1" d="m120,146.03h30.62l15.82,61.1,14.94-61.1h28.17l14.94,61.1,15.82-61.1h29.17l-30.03,107.93h-30.42l-14.36-59.21-14.21,59.21h-30.42l-30.02-107.93h-.02Z"/><polygon class="cls-1" points="360.04 146.03 344.22 207.14 329.29 146.03 301.11 146.03 286.18 207.14 272.3 153.56 257.06 208.33 269.76 253.97 300.18 253.97 314.4 194.76 328.76 253.97 359.18 253.97 389.21 146.03 360.04 146.03"/><path class="cls-1" d="m421.44,146.03h-27.15l-11.2,40.25v67.69h37.48c32.95,0,59.43-23.74,59.43-54.43s-25.6-53.5-58.56-53.5h0Zm.29,80.37h-10.94v-52.81h10.94c16.63,0,28.44,9.75,28.44,26.4s-11.81,26.4-28.44,26.4h0Z"/></svg>