<?xml version="1.0" encoding="UTF-8"?> <svg xmlns="http://www.w3.org/2000/svg" id="Layer_1" width="600" height="400" viewBox="0 0 600 400"><defs><style>.cls-1{fill:#fff;}</style></defs><path class="cls-1" d="m337.66,188.38c0-6.45-11.22-6.5-11.37-.04v9.77h11.33s.04-9.73.04-9.73Z"></path><path class="cls-1" d="m300,109.22c-50.15,0-90.78,40.63-90.78,90.78s40.63,90.78,90.78,90.78,90.78-40.63,90.78-90.78-40.65-90.78-90.78-90.78Zm-40.09,108.87c.53,17.23-29.07,16.81-28.83,0v-29.7c-.22-16.81,29.36-16.83,28.8.44v5.16h-8.61l-.11-5.59c0-6.39-11.11-6.25-11.37.2v29.94c.11,6.55,11.37,6.46,11.37,0v-6.66h8.75v6.23Zm12.17,36.13h-6.32v-103.08h6.32v103.08Zm42.76-24.68h-14.23v-42.03c0-6.08-10.2-5.94-10.44.16v41.87h-12.78v-6.46h4.05v-39.36l-4.81-.04v-6.43h12.33l.04,4.72s1.51-2.23,5.45-4.41c4.99-2.76,9.88,0,9.17-.33,3.94,1.74,5.43,5.96,5.7,10.68v35.17h5.54s0,6.46,0,6.46Zm31.56-11.46c.54,17.23-29.05,16.81-28.81,0v-29.7c-.24-16.81,29.34-16.83,28.8.44v14.25c0,.89-.73,1.6-1.6,1.6h-18.48v13.85c.13,6.55,11.37,6.46,11.37,0v-6.66h8.73v6.25-.02Zm17.43,11.49c-2.2,0-4.3-.82-4.68-.98,0,0,.02,0,.04.02-.15-.07-.13-.05-.04-.02-3.9-1.76-5.39-5.97-5.66-10.66v-54.23h8.79v13.54l-.05.11h8.42v6.32h-8.41v34.97c.18,3.32,2.22,4.45,4.59,4.43,1.87,0,5.37.04,5.37.04v6.46s-6.94,0-8.39.04l.02-.04Z"></path></svg> 