<?xml version="1.0" encoding="UTF-8"?> <svg xmlns="http://www.w3.org/2000/svg" id="Layer_1" width="600" height="400" viewBox="0 0 600 400"><defs><style>.cls-1{fill:#fff;}</style></defs><path class="cls-1" d="m366.28,136.61c-7.38,3.6-14.3,8.09-20.59,13.37-3.06-2.81-6.99-4.48-11.14-4.73-4.18,0-5.48,1.45-5.48,2.87,0,.88,1.29.77,1.29,2.04-.07.72-.66,1.27-1.38,1.29-.99,0-1.96-1.02-1.96-2.77,0-2.74,1.7-6.38,6.68-11.9l8.62-9.71-11.04-5.66v-.65c.88-.26,1.21-.9,1.21-1.94v-8.26c-.02-.87-.47-1.68-1.21-2.14v-.65c7.13-3.52,15.31-8.09,20.05-12.06,2.25,2.1,5.19,3.31,8.26,3.4,2.96,0,3.4-.9,3.4-1.94,0-.6-.46-.83-.46-1.21,0-.8.43-1.12,1.02-1.12.87,0,1.58.66,1.58,2.33,0,4.39-3.62,9.83-11.05,9.83-4.88,0-7.87-1.55-9.93-4l-.46.29v12.16l6.8,3.25,2.87-2.87,12.89,6.58v.75c-.67.3-1.11.96-1.11,1.7v9.1c-.12.84.33,1.66,1.11,2.01v.65Zm-12.24,4.83v-13.83l-6.46-2.98-13.4,14.34.19.1c3.08-1.39,6.44-2,9.81-1.8,3.67.15,7.14,1.68,9.74,4.27l.12-.1Z"></path><path class="cls-1" d="m325.23,137.91c-7.44,3.25-14.51,7.3-21.07,12.07-5.48-3.62-12.72-9.1-17.72-11.9v-.71c1.11-.37,1.39-1.39,1.39-2.79v-22.92c0-2.13-.41-2.99-1.58-3.25v-.56c7.56-3,14.66-7.06,21.07-12.06,4.54,3.62,12.81,9,17.53,11.9v.68c-.97.37-1.21,1.22-1.21,2.4v24.18c-.03,1.06.6,2.02,1.58,2.41v.54Zm-12.72,4.37v-29.98c-4.49-2.73-8.83-5.7-12.99-8.91l-.54.37v29.79c4.57,2.72,8.97,5.72,13.16,9l.37-.27Z"></path><path class="cls-1" d="m284.75,132.91l-8.89,17.01c-4.28-3.44-9.65-5.22-15.14-5.02-9.97,0-22.38,2.58-25.9,4.83l-1.19-1.22c3.89-3.4,7.98-12.3,7.98-22.84,0-11.24-6.41-16.53-6.41-27.65s5.1-17.77,14.57-22.57l1.12,1.02c-3.23,2.52-5.23,6.31-5.48,10.41l16.33-13.47c3.03,2.94,7.86,6.22,12.24,6.22,3.4,0,5.1-.68,5.1-2.13,0-.78-.65-1.02-.65-1.5-.02-.59.44-1.09,1.03-1.11.06,0,.12,0,.18,0,.88,0,1.48,1.04,1.48,2.23,0,6.16-6.31,11.33-12.81,11.33-1.88.05-3.75-.18-5.56-.66v46.6c1-.1,1.82-.19,2.5-.19,6.16,0,11.61,2.6,13.08,2.6,2.16,0,2.93-1.53,4.64-4.83l1.77.94Zm-23.81,1.7v-47.55c-2.52-1.19-4.74-2.93-6.5-5.1l-9.1,7.33c0,13.6,7.14,19.86,7.14,30.9,0,7.72-5.44,15.76-9.64,19.86l.37.09c5.5-2.87,11.47-4.75,17.62-5.56l.1.03Z"></path><path class="cls-1" d="m376.94,218.04c-3.83,3.01-7.49,6.23-10.95,9.66l-10.02-9.1v-.56c.87-.29,1.48-1.31,1.48-2.87v-47.51l-2.69-2.04c-.48-.43-1.07-.72-1.7-.83-1.1.13-2.1.7-2.77,1.58l-1.12-1.21c3.93-2.99,7.65-6.25,11.14-9.74l10.03,8.62v.46c-1.22.61-1.95,1.89-1.87,3.25v47.24l2.7,2.41c.61.55,1.41.85,2.23.83.96-.12,1.85-.58,2.5-1.29l1.04,1.11Z"></path><path class="cls-1" d="m268.26,218.04c-3.87,2.94-7.53,6.14-10.95,9.57l-10.07-8.91v-.56c.95-.32,1.58-1.19,1.58-3.4v-24.08c-2.5-1.89-7.21-5.94-9.66-8.25l-3.25,2.77v29.79l2.98,2.6c1.4,1.02,3.35.77,4.46-.56l.92,1.02c-3.83,2.98-7.49,6.17-10.95,9.57l-9.88-8.91v-.56c1.08-.48,1.73-1.61,1.58-2.79v-29.69l-2.7-1.96c-.61-.44-1.02-.83-1.58-.83-1.08.06-2.11.52-2.87,1.29l-1.11-1.21c3.88-2.91,7.57-6.07,11.04-9.46l8.83,8.26,9.46-8.26c3.4,2.86,11.63,9.22,15.78,11.9v.46c-1.04.19-1.82,1.08-1.85,2.14v26.97l3.16,2.89c.53.49,2.31.73,4.17-1.04l.94,1.21Z"></path><path class="cls-1" d="m449.9,214.25c-7.39,3.59-14.31,8.08-20.61,13.37-3.06-2.81-6.99-4.49-11.14-4.74-4.17,0-5.48,1.46-5.48,2.87,0,.88,1.31.78,1.31,2.04-.06.73-.66,1.29-1.39,1.31-.99,0-1.96-1.02-1.96-2.79,0-2.74,1.7-6.38,6.68-11.9l8.64-9.56-11.05-5.66v-.68c.9-.26,1.21-.9,1.21-1.96v-8.25c.12-.9-.37-1.78-1.21-2.14v-.65c7.09-3.31,13.81-7.36,20.05-12.07,2.25,2.11,5.19,3.32,8.26,3.4,2.98,0,3.4-.92,3.4-1.96,0-.58-.46-.82-.46-1.21-.08-.53.29-1.02.82-1.1.07,0,.13-.01.2,0,.88,0,1.58.65,1.58,2.31-.48,5.7-5.34,10.03-11.05,9.85-4.88,0-7.87-1.55-9.93-4l-.46.27v12.16l6.8,3.25,2.89-2.87,12.99,6.6v.65c-.68.29-1.13.96-1.12,1.7v9.18c0,1.24.48,1.7,1.12,1.94l-.1.65Zm-12.19,4.83v-13.77l-6.39-2.96-13.45,14.28.17.1c3.07-1.34,6.41-1.92,9.74-1.7,3.67.15,7.16,1.68,9.76,4.27l.17-.22Z"></path><path class="cls-1" d="m412.49,191.03l-21.61,13.6v8.5c3.89,1.6,7.68,3.46,11.33,5.56l5.48-5.2c.36-1.56.83-3.15,2.5-3.15.68,0,1.22.56,1.21,1.24,0,.02,0,.04,0,.05-.02.64-.29,1.25-.75,1.7l-14.2,14.01c-5.84-3.51-11.88-6.67-18.09-9.47v-.54c.89-.47,1.43-1.41,1.39-2.41v-26.63c.11-1.05-.49-2.04-1.48-2.41v-.56c6.26-2.98,14.66-7.79,21.24-11.9,3.83,5.75,9.39,13.3,12.99,17.62Zm-10.49,4.18c-2.98-3.71-8.11-10.51-10.95-14.85l-.19.09v21.9l11.14-7.14Z"></path><path class="cls-1" d="m351.15,191.03l-21.72,13.6v8.5c3.9,1.63,7.69,3.51,11.34,5.65l5.48-5.2c.37-1.7.83-3.15,2.58-3.15.64.01,1.14.54,1.13,1.18,0,.04,0,.07,0,.11-.02.64-.29,1.25-.75,1.7l-14.2,14.11c-5.82-3.52-11.85-6.69-18.04-9.51v-.54c.89-.47,1.43-1.41,1.39-2.41v-26.78c.11-1.05-.49-2.04-1.48-2.41v-.56c7.31-3.61,14.43-7.58,21.34-11.9,3.74,5.75,9.35,13.3,12.92,17.62Zm-10.58,4.18c-2.98-3.71-8.11-10.51-10.95-14.85l-.19.09v21.9l11.14-7.14Z"></path><path class="cls-1" d="m312.9,223.7c-.29,11.63-5.66,20.15-16.51,20.15-8.5,0-13.81-4.46-21.53-4.46-4.51,0-6.99,1.5-8.26,3.06l-1.21-1.02c1.7-8.01,7.04-13.09,14.66-13.09,8.4,0,13.6,5.39,22.57,5.39,3.41.26,6.56-1.8,7.7-5.02l-.1-.19c-1.29.44-2.64.66-4,.65-4.84.03-8.94-3.55-9.56-8.35-2.18,1.53-6.56,4.9-8.72,6.8-5.73-3.62-11.68-6.88-17.82-9.74v-.56c.93-.34,1.53-1.24,1.5-2.23v-26.56c0-1.56-.6-2.4-1.7-2.6v-.46c7.59-3.07,14.74-7.13,21.26-12.07,5.57,4.32,11.4,8.29,17.45,11.9v.48c-.68.29-1.29,1.04-1.29,2.6v29.2c0,3.64.9,5.58,3.52,5.58.47.02.94-.01,1.39-.1l.66.65Zm-16.61-4.8v-28.33c-2.91-1.92-9.69-6.8-13.18-9.56l-.46.37v31.36c4.22,2.16,8.29,4.58,12.21,7.24l1.43-1.09Z"></path><path class="cls-1" d="m220.93,218.91c-3.13,5.36-6.36,9.37-11.05,9.37-3.71,0-6.33-2.13-7.7-6.12l-6.12-17.82h-23.81l-3.4,9.93c3.81.29,7.3,2.58,8.26,2.58s1.97-.82,3.15-2.77l1.5.92-7.89,12.64c-2.77-2.45-6.34-3.8-10.03-3.81-4.58-.24-9.1,1.1-12.81,3.81l-1.02-.37c1.38-6.63,6.8-12.4,16.43-13.09l16.53-48.45-.56-1.7c-1.14-3.4-3.4-5.29-5.85-5.29-1.8-.05-3.53.7-4.73,2.04l-.75-.65c.87-4.6,4.87-7.94,9.56-7.98,3.7-.14,7.19,1.69,9.18,4.81h.19c.52-1.86,1.96-3.33,3.81-3.89l.29.46c-.93,1.22-1.39,2.74-1.31,4.27.03,1.02.22,2.02.56,2.98l19.49,57.63c.28,1.16,1.3,2,2.5,2.04,1.56,0,2.53-.92,3.81-2.77l1.79,1.24Zm-27.21-21.63l-9.4-27.86h-.19l-9.47,27.84,19.06.02Z"></path><path class="cls-1" d="m342.47,314.89c-3.79,2.98-7.42,6.17-10.85,9.56l-10.03-9v-.56c1.31-.37,1.58-1.6,1.58-3.06v-24.4c-2.31-1.7-7.06-5.8-9.64-8.18l-3.25,2.89v29.69l2.5,2.23c.5.58,1.2.95,1.96,1.02,1.09-.03,2.13-.49,2.87-1.29l1.02,1.11c-3.89,2.89-7.56,6.09-10.95,9.56l-10.03-9.08v-.48c1.02-.37,1.58-1.04,1.58-2.6v-24.78c-2.41-1.85-7.45-6.19-9.64-8.26l-3.23,2.79v29.79l2.33,2.04c1.03,1.39,2.99,1.67,4.38.64.24-.18.46-.4.64-.64l1.02,1.11c-3.23,2.52-7.75,6.51-10.95,9.56l-10.03-8.91v-.54c1.12-.29,1.58-1.21,1.58-2.89v-29.59l-2.57-2.04c-.51-.47-1.16-.77-1.85-.83-1.07.1-2.07.6-2.79,1.39l-1.02-1.31c3.88-2.91,7.58-6.07,11.05-9.46l8.81,8.25,9.47-8.25c4.04,3.5,8.27,6.77,12.69,9.78l11.22-9.83c5.04,4.25,10.31,8.23,15.78,11.9v.46c-1.23.39-2.01,1.61-1.85,2.89v26.17l2.04,1.94c.6.75,1.46,1.25,2.41,1.39,1.1-.09,2.13-.59,2.87-1.39l.88,1.22Z"></path><path class="cls-1" d="m268.45,257.63l-3.71,3.4c-3.01,2.72-5.42,3.89-7.7,3.89-2-.12-3.88-.97-5.29-2.4-.55-.62-1.32-1.02-2.14-1.12-1.04.04-2.01.52-2.69,1.31l-1.02-1.12,11.04-9.56,5.61,4.85c1.3,1.27,3.38,1.24,4.64-.06.1-.1.19-.21.27-.32l.99,1.12Z"></path><path class="cls-1" d="m270.67,314.89c-2.82,2.3-8.23,6.97-10.95,9.66l-10.2-9.01v-.54c1.08-.38,1.74-1.47,1.58-2.6v-29.88l-2.16-1.87c-.51-.55-1.21-.88-1.96-.92-1.09.03-2.13.5-2.87,1.29l-1.02-1.21c3.89-2.9,7.55-6.1,10.95-9.56l10.03,8.64v.46c-1.16.36-1.93,1.47-1.85,2.69v29.79l2.58,2.33c.61.57,1.4.89,2.23.92,1.01-.05,1.95-.52,2.6-1.29l1.04,1.11Z"></path><path class="cls-1" d="m417.3,311.08c-7.39,3.61-14.31,8.09-20.61,13.37-3.06-2.81-6.99-4.48-11.14-4.73-4.17,0-5.48,1.46-5.48,2.87,0,.88,1.31.77,1.31,2.04-.06.73-.66,1.29-1.39,1.31-.99,0-1.96-1.04-1.96-2.79,0-2.74,1.7-6.38,6.68-11.9l8.64-9.56-11.05-5.66v-.6c.9-.26,1.21-.99,1.21-2.04v-8.3c0-.87-.46-1.67-1.21-2.13v-.65c7.13-3.54,15.31-8.11,20.05-12.07,2.24,2.11,5.19,3.32,8.26,3.4,2.96,0,3.4-.92,3.4-1.96,0-.6-.46-.75-.46-1.21-.08-.53.29-1.02.82-1.1.07,0,.13-.01.2,0,.88,0,1.58.65,1.58,2.31-.45,5.71-5.33,10.05-11.05,9.83-4.88,0-7.87-1.55-9.93-3.98l-.46.27v12.16l6.8,3.25,2.72-2.89,13.06,6.55v.56c-.68.29-1.12.96-1.12,1.7v9.37c-.1.83.36,1.62,1.12,1.96v.61Zm-12.33,4.76v-13.76l-6.38-2.98-13.47,14.3.19.09c3.07-1.34,6.41-1.92,9.74-1.7,3.67.15,7.14,1.68,9.74,4.27l.17-.22Z"></path><path class="cls-1" d="m379.17,287.88l-21.63,13.6v8.5c3.9,1.6,7.68,3.47,11.33,5.58l5.48-5.2c.29-1.58.85-3.15,2.52-3.15.68,0,1.22.56,1.21,1.24,0,.02,0,.04,0,.05-.05.65-.35,1.26-.83,1.7l-14.11,14.01c-5.84-3.51-11.88-6.67-18.09-9.47v-.56c.92-.43,1.48-1.39,1.39-2.4v-26.56c.11-1.05-.5-2.05-1.5-2.41v-.56c7.28-3.61,14.38-7.58,21.26-11.9,3.81,5.65,9.39,13.18,12.99,17.53Zm-10.49,4.15c-2.96-3.71-8.11-10.51-10.95-14.86l-.19.1v21.94l11.14-7.18Z"></path><path class="cls-1" d="m244.69,254.38c0,7.33-4.91,10.85-10.95,11.79v46.49c3.3-2.32,5.89-5.49,7.52-9.18.11-.26.18-.55.19-.83,0-.49-.46-.8-.46-1.39s.14-1.39,1.02-1.39c.72,0,1.3.6,1.3,1.32,0,.02,0,.05,0,.07,0,11.12-8.09,25.34-30.81,25.34-15.96.39-29.22-12.24-29.6-28.2,0-.38-.01-.76,0-1.13,0-22.79,18.94-30.83,31.75-33.69-5.24-.99-10.55-1.56-15.88-1.7-10.68,0-14.05,5.1-14.93,8.72l-1.19-.66c.2-5.1,4.74-19.32,18.71-19.32s22.35,5.66,32.96,5.66c7.01,0,8.26-3.15,8.91-6.39l1.21.46c.1.48.29,3.16.29,4.05Zm-12.72,59.52v-47.55h-1.7c-2.34-.1-4.67-.41-6.96-.92-4.04,1.94-6.56,6.09-6.41,10.58,0,10.2,5.76,12.64,5.76,23.01,0,8.16-6.8,14.17-12.45,16.9,3.15,1.11,6.47,1.66,9.81,1.62,4.22-.19,8.31-1.46,11.9-3.67l.03.03Zm-11.22-48.91l-1.85-.37c-11.29,2.07-24.37,12.11-24.37,28.55-.33,9.52,5.18,18.29,13.91,22.11,3.34-2.3,5.27-6.15,5.1-10.2,0-9.66-6.22-14.9-6.22-23.67.07-6.6,4.35-12.45,13.43-16.44v.03Z"></path></svg> 