<?xml version="1.0" encoding="UTF-8"?> <svg xmlns="http://www.w3.org/2000/svg" id="Layer_1" width="600" height="400" viewBox="0 0 600 400"><defs><style>.cls-1{fill:#fff;}</style></defs><path class="cls-1" d="m362.58,150.23h-36.62v-2.69h1.89c2.44,0,3.86-1.18,3.86-4.12v-58c0-2.94-1.43-4.12-3.86-4.12h-1.97v-2.69h36.71v24.61h-2.44v-.25c0-14.57-4.45-21.21-12.56-21.21h-6.01v29.74h1.51c4.58,0,6.72-4.37,6.72-13.61v-.25h2.44v30.95h-2.44v-.17c0-9.03-2.06-13.69-6.72-13.69h-1.51v32.42h5.67c8.02,0,12.94-7.81,12.94-21.13v-.25h2.44v24.53l-.04-.08Z"></path><path class="cls-1" d="m323.52,150.23h-21.46v-2.69h1.81c2.44,0,3.95-1.18,3.95-4.12v-28.1h-15.71v28.1c0,2.98,1.51,4.12,3.95,4.12h1.89v2.69h-21.55v-2.69h1.89c2.44,0,3.95-1.18,3.95-4.12v-58c0-2.94-1.51-4.12-3.95-4.12h-1.89v-2.69h21.55v2.69h-1.89c-2.44,0-3.95,1.18-3.95,4.12v26.04h15.71v-26.04c0-2.94-1.51-4.12-3.95-4.12h-1.81v-2.69h21.46v2.69h-1.89c-2.44,0-3.95,1.18-3.95,4.12v58c0,2.98,1.51,4.12,3.95,4.12h1.89v2.69Z"></path><path class="cls-1" d="m275.22,103.4h-2.44v-.25c0-11.55-4.37-21.38-9.53-21.38h-2.14v61.66c0,2.98,1.51,4.12,3.95,4.12h2.23v2.69h-22.09v-2.69h2.06c2.44,0,3.95-1.18,3.95-4.12v-61.66h-1.89c-5.12,0-9.53,9.2-9.53,21.38v.25h-2.44v-24.78h37.8v24.78h.08Z"></path><path class="cls-1" d="m256.07,233.26h-36.16v-2.69h2.52c2.44,0,3.95-1.09,3.95-4.03v-58.17c0-2.94-1.51-4.03-3.95-4.03h-1.97v-2.69h21.38v2.69h-1.72c-2.44,0-3.95,1.09-3.95,4.03v61.78h5.29c9.66,0,12.22-11,12.22-21.21v-.25h2.44v24.61l-.04-.04Z"></path><path class="cls-1" d="m218.65,233.26h-36.16l1.43-2.69h1.09c2.44,0,3.95-1.09,3.95-4.03v-58.17c0-2.94-1.51-4.03-3.95-4.03h-1.97v-2.69h21.38v2.69h-1.72c-2.44,0-3.95,1.09-3.95,4.03v61.78h5.29c9.66,0,12.22-10.92,12.22-21.29v-.25h2.44v24.7l-.04-.04Z"></path><path class="cls-1" d="m153.71,164.34h-.71c-3.44,0-5.25.63-6.47,6.55l-13.1,62.92h-4.03l-8.15-41.16h-.08l-8.36,41.16h-4.03l-12.85-64.51c-.8-4.12-2.02-4.91-5.67-4.91h-.25v-2.69h19.49v2.69h-.34c-2.81,0-3.49.97-3.49,2.86,0,.42,0,1.09.08,1.6l8.15,43.68h.17l5.29-28.73-2.77-14.49c-.71-3.57-1.51-4.91-4.41-4.91h-.46v-2.69h19.19v2.69h-.34c-3.57,0-4.33,1.22-4.33,3.65,0,.67.13,1.43.25,2.23l8.15,41.71h.17l7.73-41.79c.13-.59.17-1.18.17-1.72,0-2.86-.97-4.12-4.75-4.12h-.55v-2.69h16.25v2.69h.04Z"></path><path class="cls-1" d="m166.48,212.6l-5.38-31.67h-.17l-5.38,31.67h10.96-.04Zm17.68,20.66h-20.37v-2.69h.55c3.74,0,4.83-.97,4.83-3.02,0-.59-.13-1.34-.25-2.14l-1.72-9.49h-12.22l-1.72,9.49c-.17.88-.25,1.51-.25,2.14,0,2.23.88,3.02,4.58,3.02h.38v2.69h-15.33v-2.69h.8c3.15,0,4.96-.71,5.75-4.91l12.47-64.72h4.58l12.85,64.43c.76,3.91,2.77,5.21,4.49,5.21h.63v2.69h-.04Z"></path><path class="cls-1" d="m510,186.48h-2.44v-.25c0-11.55-4.37-21.38-9.53-21.38h-2.14v61.66c0,2.98,1.51,4.12,3.95,4.12h2.23v2.69h-22.09v-2.69h2.06c2.44,0,3.95-1.18,3.95-4.12v-61.66h-1.89c-5.12,0-9.53,9.2-9.53,21.38v.25h-2.44v-24.78h37.8v24.78h.08Z"></path><path class="cls-1" d="m469.05,233.26h-36.62v-2.69h1.89c2.44,0,3.86-1.18,3.86-4.12v-58c0-2.94-1.43-4.12-3.86-4.12h-1.97v-2.69h36.71v24.61h-2.44v-.25c0-14.57-4.45-21.21-12.56-21.21h-6.01v29.74h1.51c4.58,0,6.72-4.37,6.72-13.61v-.25h2.44v30.95h-2.44v-.17c0-9.03-2.06-13.69-6.72-13.69h-1.51v32.42h5.67c8.02,0,12.94-7.81,12.94-21.13v-.25h2.44v24.53l-.04-.08Z"></path><path class="cls-1" d="m429.95,233.26h-36.62v-2.69h1.89c2.44,0,3.86-1.18,3.86-4.12v-58c0-2.94-1.43-4.12-3.86-4.12h-1.97v-2.69h36.71v24.61h-2.44v-.25c0-14.57-4.45-21.21-12.56-21.21h-6.01v29.74h1.51c4.58,0,6.72-4.37,6.72-13.61v-.25h2.44v30.95h-2.44v-.17c0-9.03-2.06-13.69-6.72-13.69h-1.51v32.42h5.67c8.02,0,12.94-7.81,12.94-21.13v-.25h2.44v24.53l-.04-.08Z"></path><path class="cls-1" d="m347.25,186.48h-2.44v-.25c0-11.55-4.37-21.38-9.53-21.38h-2.14v61.66c0,2.98,1.51,4.12,3.95,4.12h2.23v2.69h-22.09v-2.69h2.06c2.44,0,3.95-1.18,3.95-4.12v-61.66h-1.89c-5.12,0-9.53,9.2-9.53,21.38v.25h-2.44v-24.78h37.8v24.78h.08Z"></path><path class="cls-1" d="m309.37,215.92c0,12.68-7.69,17.89-16.72,17.89-6.55,0-9.53-2.14-12.64-4.28l-1.72,3.78h-1.89v-24.61h2.44v.71c0,17.26,8.74,21.21,13.1,21.21,6.68,0,9.62-3.82,9.62-11.38,0-8.23-5.17-14.24-12.64-19.87-6.76-5.12-13.02-11.38-13.02-21.84s6.68-16.38,14.62-16.38c6.64,0,9.7,2.69,11.47,4.2l1.81-3.49h1.81v24.7h-2.44v-.71c0-13.44-4.03-21.5-12.01-21.5-5.04,0-7.73,3.57-7.73,9.24,0,6.72,3.99,10.54,11.38,16.3,8.23,6.34,14.53,13.02,14.53,26.04h.04Z"></path><path class="cls-1" d="m378.25,179.21c0-11.17-4.41-14.41-10.5-14.41h-2.35v30.16h2.69c6.34,0,10.12-4.28,10.12-15.75h.04Zm14.45,44.31c0,6.01-2.27,10.29-8.19,10.29s-8.36-4.37-8.78-13.23l-.63-13.36c-.34-7.06-3.02-8.95-7.1-8.95h-2.6v28.18c0,2.94,1.18,4.12,3.57,4.12h2.52v2.69h-21.88v-2.69h2.06c2.44,0,3.95-1.18,3.95-4.12v-58c0-2.94-1.51-4.12-3.95-4.12h-2.06v-2.69h19.66c11.89,0,19.28,6.09,19.28,17.35s-8.23,16.3-15.54,17.72v.17c5.96.63,11.42,5.08,11.76,11.8l.8,15.67c.17,3.11.55,4.03,1.97,4.03,1.81,0,2.14-1.34,2.14-6.01v-2.6h2.98v3.65l.04.08Z"></path><path class="cls-1" d="m429.11,320.83h-36.16l1.43-2.69h1.09c2.44,0,3.95-1.09,3.95-4.03v-58.17c0-2.94-1.51-4.03-3.95-4.03h-1.97v-2.69h21.38v2.69h-1.72c-2.44,0-3.95,1.09-3.95,4.03v61.78h5.29c9.7,0,12.22-10.92,12.22-21.21v-.25h2.44v24.61l-.04-.04Z"></path><path class="cls-1" d="m441.58,316.47c0,2.69-2.02,4.91-4.16,4.91s-4.12-2.23-4.12-4.91,2.02-4.83,4.12-4.83,4.16,2.14,4.16,4.83Z"></path><path class="cls-1" d="m356.78,251.91h-1.89c-2.23,0-4.03,1.68-4.03,5.21v64.01h-3.49l-22.43-56.41h-.17v48.26c0,3.49,1.81,5.21,4.03,5.21h1.81v2.69h-15.16v-2.69h2.06c2.23,0,4.03-1.68,4.03-5.21v-56.57c0-2.52-.97-4.49-3.49-4.49h-2.6v-2.69h13.82l18.23,46.12h.17v-38.22c0-3.53-1.81-5.21-4.03-5.21h-1.89v-2.69h15.08v2.69h-.04Z"></path><path class="cls-1" d="m274.3,251.91h-3.78c-2.23,0-3.57,1.89-3.57,5.21v47.71c0,9.49-3.19,16.55-13.48,16.55-10.92,0-17.3-6.68-17.3-16.55v-48.8c0-2.94-1.43-4.12-3.86-4.12h-1.97v-2.69h21v2.69h-1.34c-2.44,0-3.86,1.18-3.86,4.12v49.43c0,8.06,3.19,12.73,8.61,12.73s8.9-3.91,8.9-12.73v-48.34c0-3.32-1.26-5.21-3.49-5.21h-2.06v-2.69h16.25v2.69h-.04Z"></path><path class="cls-1" d="m193.15,251.91h-1.81c-2.44,0-3.95,1.18-3.95,4.12v49.94c0,11.21-7.06,15.37-16.09,15.37-6.47,0-12.94-5.25-12.94-15.37,0-5.46,3.4-7.77,6.09-7.77s4.83,1.97,4.83,5.38c0,4.33-2.52,6.13-5.84,6.64,0,3.7,2.86,7.98,7.73,7.98s6.3-2.56,6.3-10.29v-51.83c0-2.94-1.43-4.12-3.86-4.12h-1.89v-2.69h21.38v2.69l.04-.04Z"></path><path class="cls-1" d="m376.99,300.17l-5.38-31.67h-.17l-5.38,31.67h10.96-.04Zm17.68,20.66h-20.37v-2.69h.55c3.74,0,4.83-.97,4.83-3.02,0-.59-.13-1.34-.25-2.14l-1.72-9.49h-12.22l-1.72,9.49c-.17.88-.25,1.51-.25,2.14,0,2.23.88,3.02,4.58,3.02h.38v2.69h-15.37v-2.69h.8c3.15,0,4.96-.71,5.75-4.91l12.47-64.72h4.58l12.85,64.43c.76,3.91,2.77,5.21,4.49,5.21h.63v2.69h0Z"></path><path class="cls-1" d="m300.76,266.78c0-11.17-4.41-14.41-10.5-14.41h-2.35v30.16h2.69c6.34,0,10.12-4.28,10.12-15.75h.04Zm14.45,44.31c0,6.01-2.27,10.29-8.19,10.29s-8.36-4.37-8.78-13.23l-.63-13.36c-.34-7.1-3.02-8.95-7.1-8.95h-2.6v28.18c0,2.94,1.18,4.12,3.61,4.12h2.52v2.69h-21.92v-2.69h2.06c2.44,0,3.95-1.18,3.95-4.12v-58c0-2.94-1.51-4.12-3.95-4.12h-2.06v-2.69h19.66c11.89,0,19.28,6.09,19.28,17.35s-8.23,16.3-15.54,17.72v.17c5.96.63,11.42,5.04,11.76,11.8l.8,15.67c.17,3.11.55,4.03,1.97,4.03,1.81,0,2.14-1.34,2.14-6.01v-2.6h2.98v3.65l.04.08Z"></path><path class="cls-1" d="m219.36,301.85v-33.85c0-12.39-2.77-16.13-7.81-16.13s-7.64,3.57-7.64,16.3v33.56c0,11.93,2.31,16.38,7.64,16.38s7.81-4.7,7.81-16.3v.04Zm11.13-17.01c0,20.33-6.68,36.5-18.94,36.5s-18.65-16.17-18.65-36.5,6.43-36.16,18.65-36.16,18.94,15.79,18.94,36.16Z"></path></svg> 