<?xml version="1.0" encoding="UTF-8"?> <svg xmlns="http://www.w3.org/2000/svg" id="Layer_1" width="600" height="400" viewBox="0 0 600 400"><defs><style>.cls-1{fill:#fff;}</style></defs><path class="cls-1" d="m120,138.19v123.63h360v-123.63H120Zm354.67,5.33v112.97h-112.74v-112.97h112.74Zm-118.3,0v112.97h-112.74v-112.97h112.74Zm-118.06,0v112.97h-112.98v-112.97h112.98Z"></path><path class="cls-1" d="m170.69,187.39c1.33-1.72,3.17-3.18,5.53-4.34,2.36-1.17,4.58-1.75,6.65-1.75,4.5,0,7.74,1.19,9.72,3.55,1.98,2.37,2.98,6.13,2.98,11.29v34.9h14.15v-37.14c0-7.72-2.09-13.74-6.26-18.05-4.17-4.33-9.86-6.48-17.06-6.48s-13.19,2.23-17.04,6.68l-2.61-5.66h-10.19v60.64h14.14v-43.65Z"></path><path class="cls-1" d="m287.7,229.57c3.66,1.77,7.72,2.66,12.17,2.66,9.25,0,16.54-2.68,21.89-8.04,5.34-5.35,8.01-13,8.01-22.91,0-21.27-9.66-31.92-28.99-31.92-5.18,0-9.54,1.7-13.08,5.09v-4.07h-14.15v77.21h14.15v-18.04Zm0-44.15c2.63-2.63,5.64-3.95,9.03-3.95,6.5,0,11.17,1.46,14,4.38,2.81,2.92,4.23,7.95,4.23,15.1,0,6.69-1.42,11.6-4.26,14.7-2.84,3.1-7.52,4.66-14.02,4.66-3.42,0-6.42-1.03-8.97-3.11v-31.79Z"></path><path class="cls-1" d="m414.17,196.64c0-4.29,1.26-7.91,3.8-10.88,2.54-2.97,5.44-4.46,8.7-4.46,3.01,0,5.76.8,8.28,2.39l5.97-12.1c-2.55-1.47-6.24-2.21-11.03-2.21-6.54,0-11.77,2.27-15.71,6.82v-5.79h-14.14v60.64h14.14v-34.4Z"></path></svg> 