<?xml version="1.0" encoding="UTF-8"?> <svg xmlns="http://www.w3.org/2000/svg" id="Layer_1" width="600" height="400" viewBox="0 0 600 400"><defs><style>.cls-1{fill:#fff;}</style></defs><path id="path10" class="cls-1" d="m182.09,158.92c2.66,4.66.99,10.97-3.01,14.32-2.46,1.6-5.29,2.48-8.05,3.38.06,19.05,0,38.11.01,57.16.19.87-.6,1.55-1.42,1.21-1.62-.07-2.05-1.78-2.74-2.94-9.97-18.33-19.83-36.72-29.87-55-.19,13.45,0,26.91-.1,40.37,4.75.89,9.37,3.18,12.48,6.96,1.44-1.12,2.37-3.08,4.22-3.53-.47.85-1.15,1.55-1.8,2.27-3.59,3.97-7.17,7.97-10.76,11.95-1.66-2.1-3.88-4.09-6.66-4.37-1.83-.07-3.94.02-5.26,1.46-1.53,1.36-2.56,3.67-1.46,5.62,1.28,2.8,4.5,3.56,7.21,4.23-3.39.67-7.19.28-9.93-1.99-2.18-1.86-4.15-4.22-4.72-7.1-.76-3.97.43-8.38,3.39-11.2,3.24-3.21,8-4.41,12.45-4.15.12-5.86.07-11.72.03-17.58-2.16-.34-5.12-.04-6.12,2.23-.58,1.83.79,3.38,2.15,4.38-1.69-.29-3.56-.62-4.78-1.92-1.44-1.77-2.55-3.86-2.97-6.12-.42-2.9.35-6.21,2.77-8.08,2.53-1.96,5.9-2.23,8.99-2.16v-12.39c-1.12-1.69-2.19-3.61-4.12-4.48-1.26-.52-2.9-.71-3.98.27-1.5,1.28-1.86,3.3-2.45,5.06-.57-4.33-.14-9.22,2.89-12.62,3.66-4.74,11.4-4.91,15.4-.53,1.73,1.78,2.92,3.97,4.09,6.14,7.4,13.19,14.67,26.46,22.15,39.6.04-10.9.07-21.8,0-32.71-1.28-.5-2.71-.48-4.03-.94-2.44-.64-4.47-2.21-6.27-3.91-1.13,1.32-2.26,2.64-3.3,4.01-.25-.13-.73-.4-.98-.53,3.84-4.84,7.95-9.46,11.95-14.17,2.1,2.21,4.82,4,7.93,4.21,3.25-.37,6.45-2.98,6.67-6.4h.01Z"></path><path id="path12" class="cls-1" d="m431.13,169.47c5.35-3.49,10.7-7.01,16.07-10.47.04,20.58-.04,41.18.04,61.76,1.16,1.58,2.74,2.88,4.15,4.27.88-.95,1.8-1.85,2.71-2.77.22.22.64.64.86.85-4.29,3.71-8.44,7.58-12.75,11.25-2.71-2.79-5.53-5.48-8.23-8.28-1.21,1.07-2.32,2.25-3.45,3.4-.23-.18-.69-.54-.92-.72,2.06-1.97,4.26-3.77,6.34-5.72-.01-15.6.01-31.2-.01-46.8-.05-2.92-1.54-6.41-4.8-6.77h0Z"></path><path id="path16" class="cls-1" d="m338.65,161.8c-4.19,3.39-8.29,6.9-12.45,10.34-.04-3.25.05-6.49-.05-9.74-.64-.03-.92.26-.84.87-.02,22.96,0,45.91,0,68.87-2.27-.43-4.53-.89-6.78-1.39-.04-19.37,0-38.72,0-58.09-.05-2.45-.84-4.91-2.45-6.78-2.01-2.38-5.15-3.48-8.17-3.69-3.59-.1-6.88,1.78-9.39,4.21-2.3,2.19-3.54,5.58-2.89,8.72.28-1.95.92-4.15,2.71-5.23,1.97-.84,4.59-.16,5.76,1.69,1.01,1.49,1.11,3.36,1.15,5.1,0,5.23,0,10.47,0,15.7-3.45.05-7.53.61-9.52,3.82-2.01,2.51-2.62,6.06-1.25,9.02.9,2.92,3.94,4.42,6.76,4.88-1.58-1.02-3.18-2.82-2.25-4.82,1.25-2.01,4.1-2.3,6.23-1.72.08,9.29.04,18.58.02,27.86-3.17,1.1-6.25,3.03-7.94,6.01-1.23,2.13-1.26,4.68-1.16,7.06.38,4.18,3.14,8.01,6.85,9.92,2.8,1.31,5.96,1.35,8.99,1.25,8.61-.51,16.79-3.93,25.42-4.21,2.57-.19,4.08,2.65,3.4,4.88-.51,2.01-2.2,3.37-3.8,4.55,3.03-.64,6.05-1.78,8.41-3.84,2.67-2.26,3.89-5.91,3.73-9.34-.2-3.39-2.94-5.91-5.78-7.37-3.74-2.19-8.26-1.71-12.38-1.26-7.73.89-15.28,3.35-23.09,3.56-2.65.18-5.12-1.7-5.65-4.3-.6-2.51,1.43-4.69,3.49-5.76,4.45-2.1,9.57-1.32,14.22-.34,5.38.56,10.44,2.76,15.82,3.31,3.06.35,6.31-.24,8.82-2.1,2.59-1.6,3.75-4.71,3.83-7.64.03-18.28-.03-36.55.04-54.82,1.67-1.45,3.5-2.75,4.97-4.43-2.04.51-3.31,2.41-4.97,3.58-3.29-2.74-6.51-5.54-9.76-8.32h0l-.02-.02Zm-9.13,9.23c1.87,1.6,3.72,3.24,5.59,4.86,0,5.76-.01,11.51,0,17.26-.89.87-1.86,1.8-3.15,1.96-2.12.45-4.18-.6-5.76-1.91,0-6.72,0-13.44,0-20.16,1.12-.67,2.23-1.33,3.33-2.03h0Zm-3.33,23.78c2.74,1.39,6.26,1.81,8.93,0,0,2.61,0,5.23,0,7.84-1.08-1.05-2.47-1.89-4.01-1.89-1.82-.04-3.49.82-4.91,1.89,0-2.62,0-5.23,0-7.85h0Zm4.88,6.79c1.77.04,3.12,1.36,4.03,2.75-.01,7.29,0,14.58,0,21.86.14,2.24-1.39,4.15-3.08,5.43-1.63,1.29-3.83,1.33-5.8,1.23-.11-9.52,0-19.05-.04-28.57,1.28-1.39,2.89-2.74,4.88-2.71h0Z"></path><path id="path22" class="cls-1" d="m217.05,176.38c1.8-1.24,4.09-1.16,6.18-1.43-1.57,1.25-3.33,2.69-3.53,4.84-.35,1.92.87,3.65,2.27,4.79,2.57,2.06,5.88,3.21,7.98,5.85,1.01,1.28,1.62,2.89,1.57,4.53-.01,8.66,0,17.31-.01,25.96,2.3,1.86,4.62,3.7,6.91,5.56.67-.43,1.33-.87,2.01-1.3-.03-9.45.05-18.9-.04-28.34-1.18-1.39-2.82-2.39-4.17-3.64,3.32-3.06,6.57-6.19,9.96-9.17,2.95,2.89,6.04,5.62,9.06,8.43-1.15,1.22-2.33,2.39-3.53,3.54-.02,8.3,0,16.61-.01,24.91,3.01,2.34,6.03,4.68,9.08,6.98.43-.25.87-.49,1.3-.74-.04-10.14,0-20.28-.03-30.42-1.39-1.19-2.84-2.33-4.22-3.54,3.26-3.08,6.55-6.1,9.83-9.16,3.26,2.55,6.52,5.1,9.77,7.68,1.13-1.24,2.27-2.47,3.56-3.56.16.24.51.72.67.95-2.77,2.47-5.53,4.97-8.23,7.54-.23,8.08,0,16.2-.11,24.28-7.06,4.64-14.44,8.87-21.6,13.39-3.78-2.71-7.45-5.56-11.18-8.34-3.35,2.69-6.7,5.38-10.07,8.05-.48.54-.98-.25-1.37-.47-3.15-2.53-6.28-5.09-9.47-7.55-1.33,1.17-2.74,2.26-4.09,3.43-.22-.21-.63-.61-.85-.81,1.64-1.13,3.24-2.33,4.88-3.46,0-7.84,0-15.67,0-23.51,0-2.1-.74-4.22-2.17-5.77-1.57-1.71-3.69-2.91-4.94-4.91-1.39-2.33-1.51-5.21-.98-7.81.78-2.94,3.11-5.18,5.59-6.79h0v.02Z"></path><path id="path28" class="cls-1" d="m201.6,184.03c-2.71,1.79-5.45,3.56-8.23,5.24-4.06,2.54-8.47,4.46-12.73,6.64.01,9.03-.02,18.06,0,27.09-1.31.98-2.76,1.75-4.03,2.77.13.24.41.71.54.95,1.42-.95,2.81-1.92,4.26-2.82,3.65,3.49,7.36,6.93,11.04,10.4,6.88-5.12,13.64-10.41,20.45-15.61.87-.18.16-1.6-.4-1.05-3.69,2.86-7.28,5.88-10.92,8.81-2.86-2.83-5.69-5.68-8.53-8.52-.92-.81-.37-2.16-.43-3.21,6.06-4.5,11.93-9.25,18-13.73-2.8-5.76-6.07-11.3-9.05-16.96h0Zm-9.04,6.85c3.12,5.09,5.99,10.34,8.87,15.57-2.98,2.18-5.85,4.5-8.8,6.71-.13-7.43,0-14.85-.07-22.28Z"></path><path id="path30" class="cls-1" d="m377.58,184.06c-2.98,1.74-5.92,3.53-8.81,5.4-3.39,2.07-7.11,3.54-10.72,5.17.08,9.48.02,18.96.03,28.43-1.21,1.2-2.43,2.4-3.6,3.64.25-.01.74-.05.98-.07.86-.92,1.75-1.8,2.63-2.7,4.06,3.32,8.05,6.71,12.08,10.06.66.64,1.42-.31,2.07-.54,6.48-3.54,12.59-7.72,19.28-10.89.1-8.83.03-17.66.04-26.49,1.21-1.21,2.42-2.4,3.6-3.64-.24,0-.71.02-.95.03-1.13.92-2.26,1.82-3.39,2.73-4.41-3.71-8.81-7.43-13.24-11.12h0Zm-7.55,6.55c3.18,2.99,6.43,5.94,9.61,8.95-.03,9.4-.02,18.8-.02,28.19-3.27-2.86-6.37-5.9-9.59-8.81v-28.33h0Z"></path><path id="path32" class="cls-1" d="m447.76,205.11c4.59-7.05,9.29-14.04,14-21.03,2.03,1.73,4.57,2.81,7.23,3.08,2.6,0,4.82-1.54,6.79-3.09-.49,3.8-1.76,7.76-4.68,10.4-2.55,2.33-6.41,2.9-9.62,1.76-1.89-.64-3.64-1.65-5.2-2.89-.28.65-.51,1.33-.67,2.01,6.52,9.82,12.93,19.74,19.34,29.64,1.47-.95,2.76-2.16,4.06-3.33.25.16.76.48,1.01.64-4.61,4.11-9.37,8.05-14.09,12.04-6.07-9.73-12.01-19.54-18.15-29.23h0Z"></path><path id="path36" class="cls-1" d="m408.06,184.79c2.55,2.33,4.7,5.06,7.07,7.58,2.58-2.47,5.1-5.01,7.59-7.58,1.81,1.16,3.7,2.79,6.03,2.32,1.64-.11,2.49-1.72,3.89-2.37,0,3.42-.78,7-3.03,9.65-2.59,3.09-7.48,4-10.95,1.88-1.33-.65-2.21-1.89-3.45-2.65.03,9.34.01,18.66,0,27.99,1.83,1.42,3.68,2.83,5.57,4.17,1.37-.9,2.43-2.56,4.17-2.71-4.08,3.89-8.35,7.58-12.6,11.27-3.19-3.01-6.46-5.95-9.62-8.99-1.23,1.1-2.37,2.31-3.54,3.47-.19-.22-.56-.65-.75-.87,1.55-1.72,3.27-3.27,4.86-4.97-.06-7.99.03-15.97-.04-23.95-.85-2.01-2.32-3.77-3.39-5.69-1.46.86-2.52,2.65-4.34,2.71,4.12-3.82,8.44-7.43,12.54-11.26h0Z"></path><path id="path6" class="cls-1" d="m274.08,57.21c-.71.04-1.39.22-2.05.63,2.72.54,5.91.91,7.63,3.39.86.92.6,2.32-.27,3.12-1.63,1.94-4.42,2.55-6.82,1.93-8.11-1.92-15.77-5.64-24.1-6.6-4.46-.59-8.82,1.56-11.9,4.66-2.84,2.85-3.88,7.18-3.31,11.09.63,3.09,2.92,6.3,6.23,6.76-1.96-2.13-2.33-5.84-.3-8.05,1.15-1.42,3.2-1.63,4.9-1.36,6.46,1.2,12.74,3.14,19.19,4.45,3.6.98,7.17,2.16,10.85,2.82.07,4.41.07,8.8,0,13.21-2.38,1.77-4.65,3.68-6.98,5.52,2.27,1.7,4.62,3.3,6.96,4.88.15,6.23-.02,12.45.09,18.68-3.84,2.97-8.99,3.45-13.66,2.9-4.97-.28-9.37-3.24-12.62-6.82,5.45-2.91,11.01-5.65,16.58-8.32.19-9.82.04-19.64.09-29.47-6.97,2.92-13.86,6-20.81,8.97,2.01-5.14,6.09-9.3,10.96-11.77-1.28.07-2.6-.01-3.8.54-9.12,3.6-16.64,11.34-19.46,20.78-1.89,6-1.28,12.55.77,18.41,2.54,6.52,7.25,12.3,13.48,15.59,3.5,1.81,7.27,3.5,11.29,3.56,8.31.69,17.05-2.45,22.66-8.7,2.45-2.62,3.68-6.06,4.9-9.37,1.13-3.27,1.63-6.74,1.51-10.19-2.69,5.34-6.27,10.35-11.16,13.88.03-6.2,0-12.41,0-18.61,2.13-1.62,4.26-3.24,6.32-4.94-2.11-1.87-4.21-3.74-6.32-5.61,0-4.36,0-8.73,0-13.09,4.75-.25,10.22-2.76,11.5-7.74.89-3.25,1.36-7.11-.63-10.05-1.83-2.09-4.21-3.9-7-4.41-1.54-.13-3.18-.75-4.73-.67h0Zm-22.23,29.92c-.01,9.46.05,18.92-.03,28.37-1.58.62-3.13,1.3-4.68,1.98-2.86-4.15-4.65-9.02-5.47-13.97-.22-4.18.55-8.41,2.01-12.33,2.75-1.3,5.44-2.72,8.17-4.05h0Z"></path><path id="path14" class="cls-1" d="m291.87,71.51c4.61-3.44,9.13-6.99,13.74-10.42.02,11.34,0,22.68.01,34.03,3.9-3.22,7.84-6.41,11.7-9.66,3.1,3.21,6,6.64,9.19,9.75,1.35-.97,2.73-1.89,4.15-2.75-.25,1.8-2.4,2.42-3.52,3.67.01,6.2,0,12.4,0,18.6.09,4.64-.58,9.24-.72,13.87-.21,5.03-2.16,10.16-6.08,13.45-3.18,2.85-7.54,3.87-11.69,4.21-.07.1-.22.3-.3.4l.11-.37c-1.43,0-2.86-.05-4.29-.16,1.8-.92,3.83-1.52,5.23-3.06,1.63-1.81,3.51-3.53,4.32-5.91,1.3-3.62,1.35-7.51,1.48-11.3-.04-8.5.04-17-.04-25.5-1.89-2.47-4.16-4.65-6.17-7.02-1.1,1.17-2.42,2.16-3.36,3.46-.07,8.77,0,17.55-.03,26.32,1.14,1.13,2.27,2.27,3.42,3.4.92-.92,1.83-1.85,2.76-2.78.21.2.61.6.81.81-4.46,3.49-8.88,7.03-13.34,10.51-2.83-2.51-5.58-5.09-8.36-7.64-.93.69-1.86,1.4-2.8,2.1-.2-.21-.6-.63-.79-.84,2.14-1.38,4.24-2.82,6.36-4.23v-46.78c-.04-1.19.01-2.48-.62-3.53-.42-.81-1.35-1.07-2.05-1.56-.16-.51.58-.74.86-1.06h0Z"></path><path id="path26" class="cls-1" d="m357.77,85.47c-3.86,2.23-7.58,4.67-11.36,7.02-3.2,1.67-6.45,3.24-9.67,4.86.01,9.04-.01,18.07.02,27.11-1.37,1.07-2.98,1.83-4.23,3.06.24.14.72.43.96.58,1.08-.93,2.15-1.88,3.33-2.68,3.99,3.32,7.76,6.91,11.74,10.25.19-.1.59-.31.79-.41,6.75-5.23,13.56-10.38,20.31-15.6l-.84-.74c-3.76,2.92-7.41,6.01-11.13,8.98-3.07-2.77-6.05-5.64-9.11-8.42-1.04-.76-.46-2.21-.54-3.29,6.29-4.61,12.59-9.22,18.79-13.95-3.09-5.55-6.09-11.15-9.09-16.76h0Zm-9.72,6.66c3.18,5.23,6.38,10.45,9.54,15.7-3.21,2.25-6.38,4.53-9.54,6.82-.03-7.51-.04-15.02,0-22.53h0Z"></path><path id="path8" class="cls-1" d="m232.23,260.64c-.77-.02-1.51.13-2.22.63,1.6.37,3.3.53,4.81,1.28,1.33.64,2.22,1.97,2.68,3.35.25,1.48-.84,2.86-2.14,3.42-2.33,1.08-4.99.58-7.37-.07-5.71-1.75-11.27-4.01-17.1-5.38-2.99-.64-6.13-1.24-9.16-.45-3.28.92-6.61,2.49-8.55,5.42-2.5,3.23-2.81,7.67-1.6,11.45,1.01,2.53,3.03,5.02,5.91,5.34-.94-1.21-2.55-2.42-2.09-4.14.26-1.71.96-3.43,2.33-4.54,1.36-1.03,3.24-1.01,4.82-.56,5.81,1.08,11.48,2.71,17.22,4.07,3.89.83,7.63,2.27,11.54,3,.07,4.38.01,8.77.03,13.16-2.1,1.86-4.21,3.72-6.29,5.61,2.1,1.62,4.15,3.28,6.28,4.86.03,6.24,0,12.49.03,18.74-3.68,2.76-8.54,3.45-13,2.82-4.94-.29-9.25-3.27-12.54-6.78,1.34-.94,2.88-1.54,4.33-2.3,4.08-2.01,8.11-4.11,12.21-6.05.13-9.83.01-19.66.05-29.49-6.93,2.95-13.8,6.03-20.75,8.93,1.59-3.77,4.12-7.22,7.54-9.52,1.02-.93,2.06-1.91,3.46-2.23-1.4.1-2.85.05-4.12.7-9.79,3.96-18.14,12.6-19.98,23.22-.7,5.39-.2,10.98,1.69,16.09,2.42,6,6.67,11.32,12.19,14.72,2.65,1.61,5.49,2.91,8.46,3.8,7.1,1.19,14.72.16,20.94-3.62,4.1-2.86,7.9-6.57,9.63-11.38,1.84-4.08,2.58-8.54,2.68-12.99-.86,1.12-1.36,2.45-2.09,3.65-2.36,3.96-5.41,7.55-9.13,10.3.04-6.23-.05-12.45.05-18.67,2.1-1.52,4.08-3.21,6.2-4.73-1.95-2.03-4.17-3.77-6.25-5.67-.04-4.36.05-8.73-.04-13.09,4.08-.26,8.21-2.1,10.4-5.67,2.28-3.68,2.27-8.69.07-12.4-1.74-2.3-4.47-3.77-7.29-4.19-1.27-.1-2.58-.62-3.86-.66h.01Zm-22.41,29.91c.05,9.44,0,18.88.02,28.32-1.61.67-3.2,1.39-4.81,2.07-2.33-3.27-4.15-6.96-5.08-10.87-1.03-5.13-.76-10.69,1.63-15.43,2.77-1.32,5.49-2.71,8.23-4.08h0Z"></path><path id="path18" class="cls-1" d="m246.65,278.54c2.89-2.54,5.62-5.26,8.57-7.72,2.5,2.64,5.13,5.15,7.67,7.74-3.05,2.85-6.11,5.68-9.2,8.49-2.33-2.85-4.74-5.64-7.03-8.51h0Z"></path><path id="path24" class="cls-1" d="m409.51,286.85c.32.82.43,1.74.02,2.56-.98,2.25-3.67,3.12-5.96,3.08-2.39-.22-4.26-1.93-5.87-3.56-2.71,1.81-5.42,3.61-8.12,5.42-3.12,2.1-6.55,3.65-10.01,5.09-.01,4.44,0,8.86,0,13.3,2.52,2.1,5.12,4.11,7.58,6.27-1.89,2.01-3.77,4.04-5.56,6.14-1.83,2.21-3.57,4.77-3.68,7.74-.1,3.38,1.33,7.03,4.33,8.82,1.32.78,2.92,1.47,4.46.87-1.91-.69-4.26-2.07-4.09-4.39.53-2.21,3.15-3.68,5.32-3.04,2.25.64,4.12,2.25,5.56,4.06,5.79-4.17,11.89-7.9,18.22-11.19-.05-5.62.08-11.27-.05-16.88-2.8-1.96-5.47-4.1-8.23-6.1,2.92-3.71,5.87-7.63,7.09-12.27.45-1.96.61-4.43-1.01-5.9h0v-.02Zm-18.65,8.43c1.88,2.7,4.36,5.32,7.78,5.88,3.39.8,6.68-1.04,8.91-3.49-3.05,5.64-7.78,10.16-12.66,14.21-1.32-1.4-2.74-2.71-4.05-4.12.05-4.16,0-8.32.02-12.48h0Zm4.79,16.82c1.46,1.23,2.91,2.48,4.37,3.73.67.4.34,1.24.43,1.87-.04,4.83.06,9.68-.05,14.51-1.1-2.48-2.73-4.77-5.04-6.23-3.35-2.19-7.96-2.32-11.36-.19-1.56.87-2.81,2.16-3.99,3.47,1.69-3.3,4.42-5.91,6.99-8.52,2.94-2.83,5.87-5.65,8.66-8.64h0Z"></path><path id="path34" class="cls-1" d="m364.35,288.92c-2.84,1.73-5.69,3.45-8.49,5.23-3.88,2.69-8.32,4.37-12.44,6.64.04,9.03,0,18.07.02,27.09-1.42.94-2.82,1.89-4.24,2.81.19.22.55.68.74.9,1.22-.9,2.33-1.98,3.65-2.77,3.68,3.42,7.53,6.66,11.27,10.03.36.57.88-.01,1.24-.25,6.73-5.18,13.47-10.34,20.21-15.5-.79-1.38-1.69-.04-2.48.52-3.16,2.57-6.32,5.15-9.49,7.71-3.24-2.96-6.38-6.03-9.68-8.91-.05-.92-.05-1.86,0-2.79,6.32-4.57,12.55-9.25,18.81-13.9-3.01-5.62-6.04-11.24-9.11-16.83h0Zm-9.74,6.82c3.42,5.05,6.41,10.38,9.61,15.57-3.25,2.23-6.41,4.58-9.63,6.82.05-7.46,0-14.93.02-22.39h0Z"></path><path id="path38" class="cls-1" d="m269.54,299.65c3.8-3.33,7.52-6.73,11.33-10.03,2.74,3.02,5.57,5.96,8.26,9.02,4.03-2.92,7.9-6.05,11.9-9.02,2.8,3,5.54,6.05,8.37,9.02,3.96-3,7.87-6.06,11.85-9.02,2.72,3.03,5.53,5.99,8.28,9,1.69-1.07,3.24-2.36,4.95-3.39.13,1-.78,1.45-1.42,2.01-.92.74-1.81,1.51-2.73,2.25-.07,8.31.01,16.61-.05,24.92,1.58,1.64,3.2,3.26,4.85,4.84.87-.9,1.76-1.8,2.61-2.72.25.16.77.48,1.02.64-4.16,4.1-8.46,8.08-12.73,12.06-3.01-3.56-6.17-6.99-9.11-10.61.72-.66,1.41-1.33,2.1-2.03,0-7.17,0-14.33,0-21.49-2.27-2.54-4.54-5.09-6.89-7.55-.68.69-1.36,1.38-2.03,2.07,0,8.96.04,17.92-.02,26.87,1.13,1.27,2.4,2.4,3.55,3.66-3.08,2.74-6.06,5.6-9.12,8.36-2.86-3.01-5.68-6.07-8.46-9.16.79-.97,2.37-1.68,2.13-3.16-.04-6.99.04-13.97-.04-20.96-1.91-2.66-4.05-5.23-6.26-7.66-.65.69-1.3,1.36-1.96,2.04.01,8.68-.05,17.36.03,26.04.94,1.6,2.33,2.9,3.5,4.35-2.99,3.15-6.08,6.2-9.2,9.22-2.98-3.55-6.07-7.01-9.07-10.54.94-.73,1.88-1.45,2.83-2.17-.03-7.33-.05-14.67.01-22-1.76-2.18-3.68-4.21-5.53-6.32-1.31.97-2.47,2.19-3.97,2.88-.07-.69.6-1.01,1.02-1.42h0Z"></path><path id="path40" class="cls-1" d="m243.14,300.22c3.92-3.59,7.99-7.05,11.95-10.61,2.83,3.21,5.57,6.5,8.38,9.72,1.46-1.14,2.77-2.5,4.38-3.44-.12.51-.26,1.04-.74,1.33-1.21,1.01-2.41,2.01-3.62,2.99.01,8.32-.04,16.64.03,24.96,1.59,1.8,3.23,3.55,4.71,5.44,1.24-.75,2.27-1.78,3.45-2.62.25.13.75.4,1.01.53-3.92,3.68-7.99,7.2-12.08,10.69-2.71-3.27-5.5-6.48-8.28-9.69-1.21,1.1-2.21,2.42-3.54,3.38-.19-.17-.56-.53-.75-.71,1.18-1.12,2.29-2.3,3.48-3.41.1-7.55,0-15.12.04-22.68-.07-1.05.27-2.3-.55-3.14-1.45-1.8-2.8-3.71-4.34-5.44-1.16.93-2.24,1.95-3.52,2.7h0Z"></path></svg> 