<?xml version="1.0" encoding="UTF-8"?> <svg xmlns="http://www.w3.org/2000/svg" id="Layer_1" width="600" height="400" viewBox="0 0 600 400"><defs><style>.cls-1{fill:#fff;}</style></defs><path class="cls-1" d="m300,107.66h-135v44.68h44.68v92.18h45.63v-92.18h44.68s0-44.68,0-44.68Zm44.69,0h90.31v44.68h-90.31v-44.68Zm0,89.8v-45.12h-44.68v92.18h135v-46.98l-90.31-.05h0v-.03Z"></path><path class="cls-1" d="m183.63,263.15v27.92h-7.45v-27.92h-11.18v-5.59h27.92v5.59h-9.31.03Zm30.24,16.74h-15.5c.24,3.73,2.86,5.43,5.32,5.43,1.89,0,3.46-.43,4.43-1.57l4.83,4.19c-2.08,2.67-5.83,4.27-9.29,4.27-7.45,0-12.18-5.24-12.18-13.45s4.97-13.5,11.56-13.5c6.91,0,10.91,5.56,10.91,12.99,0,1-.05,1.62-.11,1.62h.03v.03Zm-11.15-8.37c-2.46,0-4,.92-4.24,4.64h8.88c-.19-3.73-1.57-4.64-4.64-4.64h0Zm27.49,20.76c-6.75,0-12.15-5.54-12.15-13.47s5.24-13.53,12.42-13.53c4.94,0,8.1,2.43,10.26,5.72l-4.48,4.54c-1.54-2.16-3.16-3.7-5.91-3.7-3.27,0-5.37,2.7-5.37,6.97s2.11,6.91,5.37,6.91c2.67,0,4.35-1.19,6.1-3.29l4.35,4.1c-2.51,3.35-5.45,5.78-10.58,5.78h0v-.03Zm30.73-1.21v-13.34c0-4.64-.89-6.02-3.7-6.02s-3.75,1.38-3.75,5.89v13.47h-7.45v-31.89l7.45-3.4v11.8c0-1.24,2.97-2.27,5.7-2.27,6.62,0,9.21,4.54,9.21,11.83v13.93h-7.45Z"></path><path class="cls-1" d="m295.54,267.28c-1.24-2.38-3.21-3.75-6.32-3.75-5.18,0-8.15,4.54-8.15,10.96s3.02,10.96,8.18,10.96c3.11,0,4.94-1.32,6.75-4.37l5.83,3.46c-2.38,4.89-6.51,7.8-12.77,7.8-9.02,0-15.09-6.91-15.09-17.82s6.32-17.82,15.34-17.82c6.51,0,10.48,3.16,12.64,7.64l-6.4,2.94h0Zm25.35,6.51c-1.08-.97-2.19-1.67-3.73-1.67-2.65,0-4.16,1.13-4.16,5.62v13.34h-7.45v-26.08h7.45v2.59c1.86-1.24,2.67-2.27,5.1-2.27,2.21,0,3.78.89,4.67,1.84,0,0-1.89,6.64-1.89,6.64Zm21.92,17.04v-.81c-1.86,1.24-2.97,2.27-5.7,2.27-6.62,0-9.21-4.54-9.21-11.83v-15.44h5.59v14.85c0,4.64,1.81,6.02,4.64,6.02s4.67-1.38,4.67-5.89v-15.01h7.45v26.08h-7.75l.3-.22h0v-.03Zm27,.24v-13.34c0-4.64-.43-6.02-3.24-6.02s-3.29,1.38-3.29,5.89v13.47h-7.45v-26.08h7.45v2.59c0-1.24,2.51-2.27,5.24-2.27,6.61,0,8.75,4.54,8.75,11.83v13.93h-7.45Zm25.46,1.21c-6.75,0-12.15-5.54-12.15-13.47s5.24-13.53,12.42-13.53c4.94,0,8.1,2.43,10.26,5.72l-4.48,4.54c-1.54-2.16-3.16-3.7-5.91-3.7-3.27,0-5.37,2.7-5.37,6.97s2.11,6.91,5.37,6.91c2.65,0,4.35-1.19,6.1-3.29l4.35,4.1c-2.51,3.35-5.45,5.78-10.61,5.78h.03v-.03Zm30.4-.54v-14.01c0-4.64-.89-6.02-3.7-6.02s-3.75,1.38-3.75,5.89v13.47h-7.45v-31.89l7.45-3.4v11.8c0-1.24,2.97-2.27,5.7-2.27,6.61,0,9.21,4.54,9.21,11.83v13.93h-7.26l-.16.67h-.03Z"></path></svg> 