<?xml version="1.0" encoding="UTF-8"?> <svg xmlns="http://www.w3.org/2000/svg" id="Layer_1" width="100" height="68.39" viewBox="0 0 100 68.39"><defs><style>.cls-1{fill:#fff;}</style></defs><path class="cls-1" d="m50,0H0v16.55h16.55v34.14h16.9V16.55h16.55V0Zm16.55,0h33.45v16.55h-33.45V0Zm0,33.26v-16.71h-16.55v34.14h50v-17.4l-33.45-.02Z"></path><path class="cls-1" d="m6.9,57.59v10.34h-2.76v-10.34H0v-2.07h10.34v2.07h-3.45Zm11.2,6.2h-5.74c.09,1.38,1.06,2.01,1.97,2.01.7,0,1.28-.16,1.64-.58l1.79,1.55c-.77.99-2.16,1.58-3.44,1.58-2.76,0-4.51-1.94-4.51-4.98s1.84-5,4.28-5c2.56,0,4.04,2.06,4.04,4.81,0,.37-.02.6-.04.6h0Zm-4.13-3.1c-.91,0-1.48.34-1.57,1.72h3.29c-.07-1.38-.58-1.72-1.72-1.72h0Zm10.18,7.69c-2.5,0-4.5-2.05-4.5-4.99s1.94-5.01,4.6-5.01c1.83,0,3,.9,3.8,2.12l-1.66,1.68c-.57-.8-1.17-1.37-2.19-1.37-1.21,0-1.99,1-1.99,2.58s.78,2.56,1.99,2.56c.99,0,1.61-.44,2.26-1.22l1.61,1.52c-.93,1.24-2.02,2.14-3.92,2.14h0Zm11.38-.45v-4.94c0-1.72-.33-2.23-1.37-2.23s-1.39.51-1.39,2.18v4.99h-2.76v-11.81l2.76-1.26v4.37c0-.46,1.1-.84,2.11-.84,2.45,0,3.41,1.68,3.41,4.38v5.16h-2.76Z"></path><path class="cls-1" d="m48.35,59.12c-.46-.88-1.19-1.39-2.34-1.39-1.92,0-3.02,1.68-3.02,4.06s1.12,4.06,3.03,4.06c1.15,0,1.83-.49,2.5-1.62l2.16,1.28c-.88,1.81-2.41,2.89-4.73,2.89-3.34,0-5.59-2.56-5.59-6.6s2.34-6.6,5.68-6.6c2.41,0,3.88,1.17,4.68,2.83l-2.37,1.09h0Zm9.39,2.41c-.4-.36-.81-.62-1.38-.62-.98,0-1.54.42-1.54,2.08v4.94h-2.76v-9.66h2.76v.96c.69-.46.99-.84,1.89-.84.82,0,1.4.33,1.73.68l-.7,2.46h0Zm8.12,6.31v-.3c-.69.46-1.1.84-2.11.84-2.45,0-3.41-1.68-3.41-4.38v-5.72h2.07v5.5c0,1.72.67,2.23,1.72,2.23s1.73-.51,1.73-2.18v-5.56h2.76v9.66h-2.87l.11-.08h0Zm10,.09v-4.94c0-1.72-.16-2.23-1.2-2.23s-1.22.51-1.22,2.18v4.99h-2.76v-9.66h2.76v.96c0-.46.93-.84,1.94-.84,2.45,0,3.24,1.68,3.24,4.38v5.16h-2.76Zm9.43.45c-2.5,0-4.5-2.05-4.5-4.99s1.94-5.01,4.6-5.01c1.83,0,3,.9,3.8,2.12l-1.66,1.68c-.57-.8-1.17-1.37-2.19-1.37-1.21,0-1.99,1-1.99,2.58s.78,2.56,1.99,2.56c.98,0,1.61-.44,2.26-1.22l1.61,1.52c-.93,1.24-2.02,2.14-3.93,2.14h0Zm11.26-.2v-5.19c0-1.72-.33-2.23-1.37-2.23s-1.39.51-1.39,2.18v4.99h-2.76v-11.81l2.76-1.26v4.37c0-.46,1.1-.84,2.11-.84,2.45,0,3.41,1.68,3.41,4.38v5.16h-2.69l-.06.25h0Z"></path></svg> 