<?xml version="1.0" encoding="UTF-8"?> <svg xmlns="http://www.w3.org/2000/svg" id="Layer_1" data-name="Layer 1" viewBox="0 0 423.6 83.1"><defs><style> .cls-1 { fill: #fff; } </style></defs><g><g><path class="cls-1" d="M4.9,60.7l5.4-.9V10.5l-6-.8.3-5.4H42l-.9,15-7.4-.2-.5-9.4H21.5V32h5l1.2-5.1,5.2.2V42.5H27.7l-1.2-5.3h-5V60.8H33.1l1.1-10.2,7.8.2.6,15.6H4.6Z" transform="translate(-4.3 -4.3)"></path><path class="cls-1" d="M46.1,66.3l.2-4.6,4.2-.9V29.7l-4.9-.5V24.5l12.3-1.8.9,2.6v1.8a14.67,14.67,0,0,1,11.1-5c6.7,0,11.6,4,11.6,12V60.6l4.4.9-.2,4.6H71.2V36.6c0-4.3-1.6-6.7-5.4-6.7a8.45,8.45,0,0,0-3.3.6,18,18,0,0,0-1.8,2V61l4.4.9-.3,4.6-18.7-.2Z" transform="translate(-4.3 -4.3)"></path><path class="cls-1" d="M280.6,66.3l.2-4.6,4.2-.9V29.7l-4.9-.5V24.5l12.3-1.8.9,2.6v1.8a14.67,14.67,0,0,1,11.1-5c6.7,0,11.6,4,11.6,12V60.6l4.4.9-.2,4.6H305.7V36.6c0-4.3-1.6-6.7-5.4-6.7a8.45,8.45,0,0,0-3.3.6,18,18,0,0,0-1.8,2V61l4.4.9-.3,4.6-18.7-.2Z" transform="translate(-4.3 -4.3)"></path><path class="cls-1" d="M109.1,65.5a23.46,23.46,0,0,1-8.7,1.5c-5.2,0-10-2.3-10-9.9V29.7l-5-.8.2-5.4,5.6-.2L93.6,15l7.1-.3v8.9h7.7L108,29l-7.1.8V57.1c0,2.3,1.2,3.7,3.6,3.7h4.2Z" transform="translate(-4.3 -4.3)"></path><path class="cls-1" d="M399.6,66.3l.2-4.5,4-.9V29.7l-4.7-.5V24.5l12.7-1.8.9,3v1A21.72,21.72,0,0,1,426,22.6l1.9,1.6L426.6,36l-7-.2-.7-6.3a10.15,10.15,0,0,0-4.5,1.6V61l4.4.9-.3,4.5-18.9-.1Z" transform="translate(-4.3 -4.3)"></path><path class="cls-1" d="M216.9,66.3l.2-4.5,4-.9V29.7l-4.7-.5V24.5l12.7-1.8.9,3v1a21.72,21.72,0,0,1,13.3-4.1l1.9,1.6L243.7,36l-7-.2-.7-6.3a10.15,10.15,0,0,0-4.5,1.6V61l4.4.9-.3,4.5-18.7-.1Z" transform="translate(-4.3 -4.3)"></path><path class="cls-1" d="M112.3,66.3l.2-4.5,4-.9V29.7l-4.7-.5V24.5l12.7-1.8.9,3v1a21.62,21.62,0,0,1,13.2-4.1l1.9,1.6L139.2,36l-7-.2-.7-6.3a10.15,10.15,0,0,0-4.5,1.6V61l4.4.9-.3,4.5-18.8-.1Z" transform="translate(-4.3 -4.3)"></path><path class="cls-1" d="M152.4,47.3c0,7.4,3.3,13.2,9.7,13.2a19.69,19.69,0,0,0,9.1-2.2l1.8,4.1a21.38,21.38,0,0,1-13.7,4.5c-11.3,0-17.8-9.8-17.8-22.3,0-10.7,4.7-22.4,17.7-22.4,11.3,0,15.6,10.5,15.6,22.1l-1.1,2.8Zm-.1-4.9,13-.6c-.2-5.2-1.3-13.4-6.4-13.4a6.8,6.8,0,0,0-3.6,1C153.1,32.9,152.3,39.3,152.3,42.4Z" transform="translate(-4.3 -4.3)"></path><path class="cls-1" d="M332.8,47.3c0,7.4,3.3,13.2,9.7,13.2a19.69,19.69,0,0,0,9.1-2.2l1.8,4.1a21.38,21.38,0,0,1-13.7,4.5c-11.3,0-17.8-9.8-17.8-22.3,0-10.7,4.7-22.4,17.7-22.4,11.3,0,15.6,10.5,15.6,22.1l-1.1,2.8Zm-.2-4.9,13-.6c-.2-5.2-1.3-13.4-6.4-13.4a6.8,6.8,0,0,0-3.6,1C333.5,32.9,332.6,39.3,332.6,42.4Z" transform="translate(-4.3 -4.3)"></path><path class="cls-1" d="M257,47.3c0,7.4,3.3,13.2,9.7,13.2a19.69,19.69,0,0,0,9.1-2.2l1.8,4.1A21.32,21.32,0,0,1,264,67c-11.3,0-17.8-9.8-17.8-22.3,0-10.7,4.7-22.4,17.7-22.4,11.3,0,15.6,10.5,15.6,22.1l-1.1,2.8Zm-.1-4.9,13-.6c-.2-5.2-1.3-13.4-6.4-13.4a6.8,6.8,0,0,0-3.6,1C257.7,32.9,256.8,39.3,256.9,42.4Z" transform="translate(-4.3 -4.3)"></path><path class="cls-1" d="M384.5,66.3l-1.1-3.7c-2.9,2.7-5.7,4.3-10,4.3-6.7,0-12.6-3.3-12.6-12.6V28.6l-4.9-.5V24L370,22.4l1.1,3.7v27c0,4.7,1.9,7.2,5.7,7.2a12.42,12.42,0,0,0,3.7-.6,14.31,14.31,0,0,0,1.9-2.4V28.6l-5-.5V24l14.3-1.6,1.1,3.7V60.9l4.4.9-.5,4.6C396.6,66.3,384.5,66.3,384.5,66.3Z" transform="translate(-4.3 -4.3)"></path></g><path class="cls-1" d="M196,60.7a10.54,10.54,0,0,1-5.4-1.2V32.2a25.6,25.6,0,0,1,2-2.6,10.28,10.28,0,0,1,3.9-.6c5.8,0,6.8,5.9,6.8,16.5,0,10.2-1.6,13-1.9,14.1A12.15,12.15,0,0,1,196,60.7Zm17.4-17.1c0-13.1-3.9-21.3-13.6-21.3a12.71,12.71,0,0,0-10.7,5.3V26.1L188,22.4l-12.6,1.8v4.5l4.9.6V82.2L176,83l-.2,4.4h18.7l.3-4.4-4.4-.9V65.4a14.78,14.78,0,0,0,7,1.6C213.2,67,213.4,51,213.4,43.6Z" transform="translate(-4.3 -4.3)"></path></g></svg> 