<?xml version="1.0" encoding="UTF-8"?> <svg xmlns="http://www.w3.org/2000/svg" id="Layer_1" data-name="Layer 1" viewBox="0 0 1223 593.42"><defs><style> .cls-1 { fill: #fff; } </style></defs><g><path class="cls-1" d="M507.5,18.6c53.6,1,109.5,22.6,153.8,70.3,35.4,38.1,52.9,83.6,50.3,135.8-2.6,52.7-25,96.6-64.1,131.5-45.8,41-100.4,59-161.3,56.4-60.6-2.6-113.1-25.2-154.7-70.1-36.1-39-53.8-85.5-50.2-138.8,3.8-56.2,29.7-101.3,73.1-136.3C394.7,35,444,18.4,507.5,18.6ZM461.3,217v85.5c0,12.5,4.6,19,16.7,22.7s24.3,3.5,36.5.6c11.1-2.6,17.6-9.6,18.7-21.2a109.23,109.23,0,0,0,.7-11.5V128.2c0-13.3-6.6-23.1-19.6-26a77.25,77.25,0,0,0-27.1-1.3c-18.3,2.6-26,12.8-26,31.2Q461.35,174.55,461.3,217Z" transform="translate(-22.3 -18.6)"></path><path class="cls-1" d="M645.7,410.8c1.3-2.2,2.1-3.7,3.1-5.2q60.6-98,121.4-195.7c2.1-3.3,2.1-5.5,0-8.8Q713.8,114,658,26.7c-1.2-1.9-2.5-3.9-4-6.4a37.28,37.28,0,0,1,4.1-.4q64.95,0,130-.1c3.3,0,5,1.1,6.7,3.9,14.9,24.6,30,49.2,45.1,73.7.9,1.5,1.9,3,3.2,4.9,1.2-2.1,2.1-3.6,3-5.1,13.2-24.5,26.4-48.9,39.5-73.4,1.2-2.3,2.2-3.9,5.5-3.9q67.2.15,134.5.1a18.48,18.48,0,0,1,2.6.3c-1.3,2.1-2.4,3.9-3.5,5.6q-57,88-114.1,176.1c-2.3,3.6-2.4,6-.1,9.7q62.25,96.6,124,193.4c1.1,1.7,2.1,3.3,3.5,5.6-1.9.1-3.3.3-4.7.3q-65.7,0-131.5.1c-3.2,0-5-1-6.8-3.7q-25.35-38.55-51.1-77c-1.1-1.6-2.2-3.3-3.8-5.5-1.4,2.1-2.7,3.7-3.8,5.5Q811,368.8,785.7,407.1c-1.5,2.3-2.9,3.9-6.2,3.9q-65.55-.15-131-.1A14.6,14.6,0,0,1,645.7,410.8Z" transform="translate(-22.3 -18.6)"></path><path class="cls-1" d="M263.3,179.4V289H138V410.7H22.9V22.4H283.1c.5,34.8,1,69.5,1.5,104.8H139.5v52.2Z" transform="translate(-22.3 -18.6)"></path><path class="cls-1" d="M1239.3,459.7h-27.2c-6.7,0-13.3-.2-20,.1-4.1.2-6-1-7.2-5.2q-30-103.05-60.3-205.9L1059.2,26.1c-.5-1.7-.9-3.5-1.5-5.7h123.4C1200.5,166.4,1219.8,312.5,1239.3,459.7Z" transform="translate(-22.3 -18.6)"></path><path class="cls-1" d="M1167.9,459.7h-43.1c-6,0-12-.3-18,.1-4.2.3-6.5-1.2-8.7-4.8q-66-105.9-132.3-211.8c-7.4-11.9-14.9-23.7-22.1-35.6-.9-1.6-1.3-4.7-.4-6,27.7-42.1,55.7-84.1,83.6-126.2.2-.3.5-.4,1.3-1.1C1074.7,202.6,1121.1,330.7,1167.9,459.7Z" transform="translate(-22.3 -18.6)"></path><path class="cls-1" d="M1066.9,459.5H22.3V435c1.9-.1,3.6-.3,5.4-.3q509.4,0,1018.8-.1c3.6,0,5.8.9,7.6,4.1C1058,445.6,1062.3,452.3,1066.9,459.5Z" transform="translate(-22.3 -18.6)"></path><path class="cls-1" d="M169.8,545.6c7,5.1,12.2,11.3,14.4,19.8,6.2,23.8-8.8,45.7-33.3,46.1-42.1.7-84.3.2-126.4.2a11.89,11.89,0,0,1-1.4-.4v-130h5.5c38.1,0,76.3-.1,114.4.1,6.2,0,12.9.6,18.6,2.9,22.8,8.9,28.9,40.5,11.6,58C172.2,543.3,171.1,544.4,169.8,545.6ZM53.2,531.1a5.93,5.93,0,0,0,1.4.5c30.5,0,60.9.1,91.4,0,1.6,0,3.9-.8,4.8-2,3.2-4.2,2.8-9.1,1.3-13.8-1.3-4.4-5.1-4-8.7-4H58c-1.6,0-3.2.2-4.9.3C53.2,518.7,53.2,524.9,53.2,531.1Zm0,49.4c.6.3.7.5.9.5,31.6.1,63.2.2,94.8.1,1.6,0,4.4-1.2,4.6-2.2.7-4.4,1.5-9.1.8-13.4-.7-4.1-4.9-3.7-8.3-3.7H58.2c-1.6,0-3.2.2-4.9.3C53.2,568.5,53.2,574.4,53.2,580.5Z" transform="translate(-22.3 -18.6)"></path><path class="cls-1" d="M1067.5,481.6v30.3H958.9c-3.5,0-8-.7-8.7,3.7a35.76,35.76,0,0,0,.9,13.4c.3,1.2,4.2,2.1,6.5,2.1q37.95.15,76,.1c18.4,0,30.5,7.5,36.8,22.8,6.7,16.1,3.3,35.7-8.4,47.4a33,33,0,0,1-23.7,10.2c-37.1.2-74.3.1-111.4.1a7.93,7.93,0,0,1-1.7-.4V581.1h109.1c3.4,0,7,.2,8.2-3.9,1.3-4.7,2.1-9.8-1.5-13.7-1.3-1.4-4.2-1.6-6.4-1.7q-37.95-.15-76-.1c-18.9,0-32.1-9.1-37.8-26-5.8-17.5-.1-37.4,13.7-47.8,7.2-5.4,15.4-6.8,24.1-6.7h103.5C1063.8,481.3,1065.5,481.5,1067.5,481.6Z" transform="translate(-22.3 -18.6)"></path><path class="cls-1" d="M1096.3,611.4V581.2h109.4c3.4,0,6.9.2,8.2-3.9,1.5-4.8,2-9.7-1.5-13.7-1.2-1.4-4.2-1.7-6.4-1.7q-38.25-.15-76.5-.1c-18.5,0-31.9-9.2-37.4-25.7-5.8-17.4-.1-37.6,13.5-47.8a32.19,32.19,0,0,1,19.5-6.7q56-.15,111.9-.1a9.58,9.58,0,0,1,1.7.5v30H1129.9c-3.3,0-7-.5-8.4,3.6-1.6,4.7-2.2,9.7,1.1,13.8,1.2,1.5,4.5,1.9,6.8,1.9,25.2.1,50.3.3,75.5,0,17.3-.2,29.9,6.9,36.9,22.9,6.9,15.7,3.3,35.3-8.1,47a33.13,33.13,0,0,1-24,10.6c-37,.2-74,.1-111,.1C1098.1,611.8,1097.4,611.6,1096.3,611.4Z" transform="translate(-22.3 -18.6)"></path><path class="cls-1" d="M529.7,481.3v30.5H421.1c-3.6,0-7.9-.3-8.5,4a35.76,35.76,0,0,0,1.2,13.4c.3,1.2,4.3,1.9,6.6,1.9q37.5.15,75,.1c18.8,0,30.9,7.4,37.4,22.8,6.7,16,3.2,35.5-8.5,47.4a32.46,32.46,0,0,1-23.7,10.2c-37,.2-74,.1-111,.1a11.53,11.53,0,0,1-2.2-.4V581.1H496.7c3.4,0,6.9.1,8.2-4,1.5-4.8,2-9.7-1.6-13.7-1.3-1.4-4.2-1.6-6.4-1.7-25.3-.1-50.7-.1-76-.1-18.7,0-32-9-37.7-25.5-5.9-17-.5-37.1,12.8-47.7,7.3-5.8,15.8-7.3,24.9-7.3h104A35.45,35.45,0,0,0,529.7,481.3Z" transform="translate(-22.3 -18.6)"></path><path class="cls-1" d="M791,511.7v19.4H891.8v30.6H791.1v19.4H898.6v30.5H760.5c-.1-1.6-.3-3.2-.3-4.8q0-60.3-.1-120.5c0-3.4.5-5.1,4.5-5.1q65.55.15,131,.1c1,0,1.9.2,3.2.3v30C863,511.7,827.3,511.7,791,511.7Z" transform="translate(-22.3 -18.6)"></path><path class="cls-1" d="M632.4,525.7v85.7h-30v-130c9.5,0,19-.2,28.4.2,1.6.1,3.3,1.9,4.6,3.4,23,25.5,45.8,51.1,68.8,76.6,1.8,2,3.6,3.9,6.3,6.8V481.7h30.1V611.8c-9.8,0-19.4.1-29-.2-1.4,0-2.9-2-4.1-3.3q-36-40.35-71.8-80.6c-.8-.9-1.5-1.8-2.2-2.7A10.54,10.54,0,0,1,632.4,525.7Z" transform="translate(-22.3 -18.6)"></path><path class="cls-1" d="M330.8,481.6h30.1c.1,1.6.4,3,.4,4.5v84.5c0,9-1.9,17.5-7.1,25-7.2,10.6-17.2,16.1-29.9,16.1-28.5.1-57,.2-85.5,0a36.91,36.91,0,0,1-36.7-34.5c-.6-7.1-.4-14.3-.4-21.5V481.6h30.4v87.6a31.68,31.68,0,0,0,.7,6.9c.7,3.4,2.8,5,6.4,5,28.2,0,56.3-.1,84.5,0,3.8,0,6-1.7,6.5-5.4a47.1,47.1,0,0,0,.6-7.4V481.6Z" transform="translate(-22.3 -18.6)"></path><path class="cls-1" d="M552.5,481.4c9.4,0,18.6-.1,27.9.1.8,0,1.9,1.5,2.2,2.5s.1,2.3.1,3.5c0,39.5-.1,79,.1,118.5,0,4.9-1.5,6.2-6.2,6-7.9-.4-15.9-.1-24.2-.1C552.5,568.2,552.5,525.2,552.5,481.4Z" transform="translate(-22.3 -18.6)"></path></g></svg> 