<?xml version="1.0" encoding="utf-8"?>
<!-- Generator: Adobe Illustrator 27.6.1, SVG Export Plug-In . SVG Version: 6.00 Build 0)  -->
<svg version="1.1" id="Layer_1" xmlns="http://www.w3.org/2000/svg" xmlns:xlink="http://www.w3.org/1999/xlink" x="0px" y="0px"
	 width="100px" height="19.2px" viewBox="0 0 100 19.2" style="enable-background:new 0 0 100 19.2;" xml:space="preserve">
<style type="text/css">
	.st0{fill:#FFFFFF;}
</style>
<g>
	<path class="st0" d="M99.8,4.5c-1.8,0-3,0.8-3.7,2.2c0,0.1-0.1,0.1-0.2,0.1c-0.1,0-0.2-0.1-0.2-0.2V4.9c0-0.1-0.1-0.2-0.2-0.2h-5.3
		l0,0c-0.1,0-0.2,0.1-0.2,0.2v13.4c0,0.1,0.1,0.2,0.2,0.2h5.3c0.1,0,0.2-0.1,0.2-0.2V15c0-3.1,1.3-4.4,3.7-4.4h0.4
		c0.1,0,0.2-0.1,0.2-0.2V4.7C100,4.5,99.9,4.5,99.8,4.5z"/>
	<path class="st0" d="M82.1,4.4c-2.3,0-4.1,0.4-5.7,0.9c-0.1,0-0.2,0.1-0.1,0.2l0.9,3.4c0,0.1,0.1,0.2,0.2,0.1l0,0
		c1.1-0.4,2.3-0.7,3.6-0.7c1.8,0,2.6,0.7,2.6,2c0,0.1-0.1,0.2-0.2,0.2c0,0,0,0,0,0c-0.7-0.2-2-0.4-3.1-0.4c-2.8,0-4.8,1.2-5.2,3.4
		V0.2C75.2,0.1,75.1,0,75,0h-5.3c-0.1,0-0.2,0.1-0.2,0.2v5.5c0,0.1-0.1,0.2-0.2,0.2c-0.1,0-0.1,0-0.2-0.1c-0.8-0.8-2-1.5-3.8-1.5
		c-3.3,0-5.9,2.9-5.9,7.3v0.1c0,4.2,2.6,7.1,6,7.1c2.1,0,3.2-1,4.1-2v1.5c0,0.1,0.1,0.2,0.2,0.2H75c0.1,0,0.2-0.1,0.2-0.2v-2.8
		c0.4,2.1,2.1,3.3,4.5,3.3c1.5,0,2.7-0.5,3.6-1.4c0.1-0.1,0.2-0.1,0.3,0c0,0,0.1,0.1,0.1,0.2v0.7c0,0.1,0.1,0.2,0.2,0.2h5.3
		c0.1,0,0.2-0.1,0.2-0.2v-7.7c0-2-0.4-3.3-1.4-4.4C86.7,5,84.9,4.4,82.1,4.4z M67.5,13.4c-1.1,0-2-0.9-2-2s0.9-2,2-2s2,0.9,2,2
		S68.7,13.4,67.5,13.4z M82,15.8c-1,0-1.7-0.8-1.7-1.7s0.8-1.7,1.7-1.7s1.7,0.8,1.7,1.7C83.7,15,82.9,15.8,82,15.8z"/>
	<path class="st0" d="M59.2,0h-5.3c-0.1,0-0.2,0.1-0.2,0.2v5.5c0,0.1-0.1,0.2-0.2,0.2c-0.1,0-0.1,0-0.2-0.1c-0.8-0.8-2-1.5-3.8-1.5
		c-3.1,0-5.6,2.5-5.9,6.5c-0.4-3.7-2.6-6.6-7.1-6.6c-3.7,0-6.5,2.6-7,6.1V9.4c0-3.1-1.8-5-4.7-5c-1.7,0-3,0.8-3.9,1.8
		c0,0.1-0.1,0.1-0.2,0.1c-0.1,0-0.2-0.1-0.2-0.2V0.2c0-0.1-0.1-0.2-0.2-0.2h-5.3c-0.1,0-0.2,0.1-0.2,0.2v18.1c0,0.1,0.1,0.2,0.2,0.2
		h5.4c0.1,0,0.2-0.1,0.2-0.2v-7.1c0-1.2,0.8-1.9,1.6-1.9c0.9,0,1.6,0.7,1.6,1.9v7.1c0,0.1,0.1,0.2,0.2,0.2h5.3
		c0.1,0,0.2-0.1,0.2-0.2v-5.5c0.5,3.6,3.4,6,7.5,6c2.9,0,4.8-1.2,6.2-2.9c0.1-0.1,0.1-0.2,0-0.3l0,0l-2.8-2.2
		c-0.1-0.1-0.2-0.1-0.3,0c-0.9,0.9-1.7,1.3-2.7,1.3c-1.1,0-2-0.5-2.5-1.6c0-0.1,0-0.2,0.1-0.3c0,0,0.1,0,0.1,0h8.6c0,0,0,0,0,0
		c0.4,3.6,2.8,6.1,5.9,6.1c2.1,0,3.2-1,4.1-2v1.5c0,0.1,0.1,0.2,0.2,0.2h5.3c0.1,0,0.2-0.1,0.2-0.2V0.2C59.4,0.1,59.3,0,59.2,0z
		 M38.5,10.4C38.5,10.4,38.5,10.4,38.5,10.4l-3.4,0c-0.1,0-0.2-0.1-0.2-0.2c0,0,0,0,0,0c0.1-1,0.9-1.7,1.9-1.7c1,0,1.8,0.7,1.9,1.7
		C38.7,10.3,38.7,10.4,38.5,10.4z M51.8,13.4c-1.1,0-2-0.9-2-2c0-1.1,0.9-2,2-2c1.1,0,2,0.9,2,2S52.9,13.4,51.8,13.4z"/>
	<path class="st0" d="M12.2,16c0.3,0,0.5,0,0.8,0.2c0.1,0.1,0.2,0,0.3,0c0.2-0.2,0.3-0.5,0.5-0.7l0.1-0.1c0.1-0.1,0-0.2-0.1-0.3l0,0
		l-3.8-2.2c-0.1-0.1-0.2,0-0.3,0.1c-0.5,0.8-1.1,1.2-2.1,1.2c-1.1,0-2-1-2-2.3c0-0.1,0-0.1,0-0.2v-0.1c0-1.4,0.9-2.4,2.1-2.4
		c0.9,0,1.5,0.4,1.9,1.2c0.1,0.1,0.2,0.1,0.3,0.1l3.8-2.1c0.1-0.1,0.1-0.2,0.1-0.3c-1.1-2.2-3.2-3.7-6.2-3.7C3,4.3,0,7.7,0,11.6v0.2
		c0.1,3.8,3.1,7,7.3,7c1.4,0,2.6-0.3,3.6-0.7c0.1,0,0.1-0.1,0.1-0.2c0-0.1-0.1-0.3-0.1-0.4C10.9,16.7,11.4,16,12.2,16z"/>
	<path class="st0" d="M13.4,17.2c-0.7,0.1-1.3,0.7-1.3,1.4c0,0.2,0,0.4,0.1,0.6c0.8-0.4,1.5-1,2.1-1.7C14,17.3,13.7,17.2,13.4,17.2z
		"/>
</g>
</svg>
