<?xml version="1.0" encoding="UTF-8"?><svg id="Reuters" xmlns="http://www.w3.org/2000/svg" width="100" height="23.27" viewBox="0 0 100 23.27"><defs><style>.cls-1{fill:#fff;}</style></defs><polygon id="Fill-9" class="cls-1" points="90.66 .33 90.66 22.95 100 22.95 100 19.12 94.49 19.12 94.49 13.26 98.04 13.26 98.04 9.43 94.49 9.43 94.49 4.16 100 4.16 100 .33 90.66 .33"/><polygon id="Fill-1" class="cls-1" points="81.81 .32 81.81 12.66 77.93 .32 74.1 .32 74.1 22.94 77.93 22.94 77.93 11.85 81.4 22.94 85.63 22.94 85.63 .32 81.81 .32"/><path id="Fill-7" class="cls-1" d="m65.39.33v17.61c0,.83-.66,1.49-1.49,1.49s-1.49-.66-1.49-1.49V.33h-3.83v17.61c0,2.93,2.39,5.32,5.32,5.32s5.32-2.39,5.32-5.32V.33s-3.83,0-3.83,0Z"/><polygon id="Fill-5" class="cls-1" points="54.16 .33 43.54 .33 43.54 4.16 46.95 4.16 46.95 22.96 50.78 22.96 50.78 4.16 54.16 4.16 54.16 .33"/><path id="Fill-12" class="cls-1" d="m39.9,22.96h-3.95l-2.84-10.73s2.43-.45,2.43-3.03v-3.55c0-.83-.66-1.49-1.49-1.49h-1.47v18.8h-3.83V.33h5.3c2.86,0,5.18,2.25,5.3,5.08h.02v3.69h-.02c0,2.22-.73,3.85-2.06,4.87l2.6,8.98h0Z"/><path id="Fill-3" class="cls-1" d="m13.09,5.32v12.63c0,2.93,2.39,5.32,5.32,5.32h0c2.93,0,5.32-2.39,5.32-5.32V5.32c0-2.93-2.39-5.32-5.32-5.32h0c-2.95,0-5.32,2.39-5.32,5.32m3.83,12.63V5.32c0-.83.66-1.49,1.49-1.49h0c.83,0,1.49.66,1.49,1.49v12.63c0,.83-.66,1.49-1.49,1.49s-1.49-.66-1.49-1.49"/><polygon id="Fill-2" class="cls-1" points="3.83 .32 .33 .32 0 .32 0 22.94 3.83 22.94 3.83 13.25 7.38 13.25 7.38 9.42 3.83 9.42 3.83 4.17 9.34 4.17 9.34 .32 3.83 .32"/></svg>