<?xml version="1.0" encoding="UTF-8"?><svg id="Reuters" xmlns="http://www.w3.org/2000/svg" width="100" height="31.57" viewBox="0 0 100 31.57"><defs><style>.cls-1{fill:#fff;}</style></defs><path class="cls-1" d="m90.03,6.08v19.32h-5.11v-15.61c0-.4-.49-.73-.76-.86l5.87-2.85Zm-7.1,0v19.32h-5.11v-15.61c0-.4-.49-.73-.76-.86l5.87-2.85Z"/><path class="cls-1" d="m15.26,4.06H0v23.44h7.29v-6.57l8.23-.06c6.12,0,9.86-3.94,9.86-8.47-.02-3.5-2.92-8.34-10.12-8.34Zm.84,11.14h-.58s-8.23,0-8.23,0l.03-5.43h8.03l.62.02c1.04.04,2.21,1.19,2.21,2.6,0,1.64-1.42,2.81-2.08,2.81Z"/><rect class="cls-1" x="26.82" y="4" width="7.29" height="23.54"/><polygon class="cls-1" points="67.63 4.15 58.41 4.15 51.87 10.9 45.63 4.15 35.68 4.15 46.95 15.52 34.79 27.5 44.19 27.5 51.55 19.99 58.62 27.5 68.18 27.5 56.56 15.34 67.63 4.15"/><path class="cls-1" d="m87.09,27.81c-.67,0-1.07-.04-1.08-.04h0s0,0,0,0c-.69.12-1.41.18-2.14.18h0c-6.86,0-12.42-5.45-12.42-12.17,0-2.08.53-4.03,1.47-5.74.66-1.78,4.06-9.36,14.54-9.36.62,0,1.27.09,1.93.27-1.72-.61-3.58-.95-5.52-.95-8.9,0-16.12,7.07-16.12,15.79s7.22,15.79,16.12,15.79c7.3,0,13.47-4.76,15.45-11.28-2.23,6.85-9.49,7.52-12.24,7.52Z"/><path class="cls-1" d="m84.92,9.8v15.61h5.11V6.08l-5.87,2.85c.27.13.76.46.76.86Z"/><path class="cls-1" d="m77.82,9.8v15.61h5.11V6.08l-5.87,2.85c.27.13.76.46.76.86Z"/><path class="cls-1" d="m100,15.71c0-1.43-.2-2.79-.56-4.08-.42-1.51-1.06-2.92-1.89-4.22-1.4-2.22-3.26-4-5.19-5.17-1.56-.63-3.27-.98-5.07-.98-.81,0-1.6.07-2.36.2h0c-1.62.22-3.13.65-4.49,1.3-.76.36-1.47.78-2.14,1.26-1.28.89-2.39,1.99-3.28,3.24,1.74-1.71,4.68-3.49,9.34-3.49,1.78,0,3.41.37,4.86,1.02,1.09.51,2.1,1.17,2.98,1.96,2.46,2.24,3.9,5.5,3.9,8.94,0,7.9-5.74,10.75-8.57,11.67.96-.08,1.89-.24,2.78-.5,1.32-.25,2.78-.7,4.13-1.48.35-.2.69-.42,1-.66.03-.02.06-.04.08-.06.04-.03.08-.06.13-.1.03-.02.05-.04.08-.07,1.62-1.3,2.92-2.96,3.77-4.86.23-.86.38-1.8.44-2.85,0,0,0-.01,0-.02,0-.05,0-.11,0-.16.01-.28.02-.56.02-.84,0-.01,0-.03,0-.04,0-.01,0-.02,0-.04Z"/></svg>