<?xml version="1.0" encoding="UTF-8"?> <svg xmlns="http://www.w3.org/2000/svg" id="Layer_1" data-name="Layer 1" viewBox="0 0 574.93 78.56"><defs><style> .cls-1 { fill: #fff; } </style></defs><g><path class="cls-1" d="M111.51,18.18s27.42.6,41.21,1.07A19.83,19.83,0,0,1,159,20.89c15.37,6,15.22,25,5.27,32-.67.48-1.28,1-2.21,1.81,1.61.94,2.93,1.81,4.33,2.52,11.7,5.93,12.22,25.49.39,32.68a26.46,26.46,0,0,1-13.17,4.23c-14.13.26-42.38.1-42.38.1Zm15.93,45.26V79.32c8.09,0,15.86.05,23.64,0a8,8,0,0,0,3.29-1,7,7,0,0,0,4-6.9,6.67,6.67,0,0,0-4-6.38,14,14,0,0,0-5.24-1.45C142,63.35,134.89,63.44,127.44,63.44Zm-.13-14.11c4.53,0,8.5,0,12.47,0a23.83,23.83,0,0,0,4.48-.19c2.25-.45,4.69-.78,6.6-1.92A6.94,6.94,0,0,0,150.47,35a9.8,9.8,0,0,0-3.27-1.14c-6.57-1-13.15-.41-19.89-.49Z" transform="translate(-21.29 -17.33)"></path><path class="cls-1" d="M315.05,18.77s2.86-.26,4.15-.27c10.15,0,20.31-.06,30.46,0a36,36,0,0,1,16,3.37c7.87,3.9,11.91,10.43,12.6,19,.95,11.75-3.22,20.83-14.34,26a9.23,9.23,0,0,0-1.35,1l17.95,26.37H360.71l-15.92-23.6h-13V94.3H315.05Zm17,36.5c6.64,0,12.77.24,18.87-.08,4.15-.22,7.68-2.15,9.46-6.25,2.89-6.66-.73-13.61-8.06-14.52-5.57-.69-11.26-.42-16.9-.5a19.63,19.63,0,0,0-3.37.57Z" transform="translate(-21.29 -17.33)"></path><path class="cls-1" d="M21.29,56.58c0-22.36,17.4-39.24,40.43-39.25s40.52,17,40.4,39.29S84.51,95.85,61.54,95.88,21.27,79.14,21.29,56.58ZM39.07,54C38.71,68.57,47.19,78.8,59.26,80.2,71,81.57,81.36,73.91,83.79,61.62c1.89-9.58-.85-17.94-8.64-24-7-5.49-15-6.15-23.07-2.55A21.3,21.3,0,0,0,39.07,54Z" transform="translate(-21.29 -17.33)"></path><path class="cls-1" d="M560.27,70.57h-13V94.25H530.75V19a23.38,23.38,0,0,1,3.25-.46c10.66,0,21.32-.08,32,0a35.36,35.36,0,0,1,14.1,2.84c9.09,4,14.3,11.74,13.88,23.78-.34,9.76-4.85,17.13-13.9,21.4a22.7,22.7,0,0,0-2,1.28l18.13,26.63c-6.69,0-12.64.14-18.57-.13-1.11,0-2.38-1.61-3.17-2.75-3.8-5.47-7.44-11-11.15-16.57C562.31,73.49,561.26,72,560.27,70.57ZM547.52,55.3c6.42,0,12.38.07,18.34,0a13.1,13.1,0,0,0,4.33-1c4.68-1.81,6.87-5.49,6.48-10.58-.37-4.92-3.25-8.44-8.23-9.26-6.87-1.13-13.79-.45-20.92-.51Z" transform="translate(-21.29 -17.33)"></path><polygon class="cls-1" points="283.63 46.46 243.83 46.46 243.85 62.04 283.66 62.04 283.66 76.91 227.26 76.91 227.05 1.45 283.56 1.45 284.08 16.08 244.13 16.08 243.83 31.22 283.63 31.6 283.63 46.46"></polygon><polygon class="cls-1" points="458.91 62.17 498.73 62.17 498.73 76.42 441.78 76.73 441.78 1.38 498.7 1.38 498.7 16.04 458.88 16.16 458.88 31.37 498.72 31.37 498.72 46.59 458.91 46.59 458.91 62.17"></polygon><path class="cls-1" d="M178.65,83.56l9.93-11.91c1.58,1.06,3,2,4.51,3,6.24,4.25,13,6.56,20.68,5.8a14.35,14.35,0,0,0,2.94-.51c2.87-.94,5-2.64,5.48-5.84.38-2.68-1.05-5-4.44-6.51-3-1.33-6.26-2.23-9.41-3.26-4.74-1.55-9.59-2.8-14.21-4.63C186,56.49,182,50.21,181.81,41.51S185,26,192.6,21.46a31.13,31.13,0,0,1,16.78-4,44.27,44.27,0,0,1,24.87,7.8,12.44,12.44,0,0,1,1.57,1.22,5.49,5.49,0,0,1,.64,1.28l-8.25,11.94c-3.55-1.84-6.52-3.77-9.76-4.94a47.33,47.33,0,0,0-10.16-2.2,12.64,12.64,0,0,0-5.34.9,5.77,5.77,0,0,0-4.23,5.1c-.2,2.65.82,5,3.44,6.1,3.38,1.38,6.87,2.5,10.33,3.65,4.42,1.46,9,2.53,13.26,4.34,9.44,4,13.72,10.73,13.37,20.16-.38,10-5.61,17.76-15.19,20.66C207.36,98.54,192.49,94.68,178.65,83.56Z" transform="translate(-21.29 -17.33)"></path><path class="cls-1" d="M425.74,95H411C400.82,69.77,390.63,44.4,380.32,18.7H399c6.46,17.35,12.89,34.61,19.68,52.82l19.64-52.74h17.4C455.37,22.62,431.78,82.61,425.74,95Z" transform="translate(-21.29 -17.33)"></path></g></svg> 