<?xml version="1.0" encoding="UTF-8"?> <svg xmlns="http://www.w3.org/2000/svg" id="Layer_1" data-name="Layer 1" viewBox="0 0 306.68 88.49"><defs><style> .cls-1 { fill: #fff; } </style></defs><g><path class="cls-1" d="M146.69,64h-5c-.45,0-.62-.42-.82-.82l-6-10H134c-1.08,0-4.42-.11-5.37-.17V63.17a.79.79,0,0,1-.79.82h-4.13a.82.82,0,0,1-.82-.82V36.1c0-.83.49-1.11,1.32-1.24a84.75,84.75,0,0,1,9.78-.53c6.36,0,12.24,2.27,12.24,9.33V44c0,4.38-2.19,6.77-5.58,8.08l6.48,11.06a.5.5,0,0,1,.09.33A.46.46,0,0,1,146.69,64ZM140.5,43.66c0-3.1-2.4-4.42-6.53-4.42-.88,0-4.63.09-5.37.17v9c.65,0,4.66.13,5.37.13,4.24,0,6.53-.82,6.53-4.46Zm17.7,12.2c0,3.46.13,3.55,3.25,3.55h10.46a.83.83,0,0,1,.83.83v2.63c0,.59-.21.79-.83.87a54.89,54.89,0,0,1-8.92.58c-6.86,0-10.49.05-10.49-8.46V42.79c0-8.51,3.63-8.46,10.49-8.46a54.89,54.89,0,0,1,8.92.58c.62.08.83.29.83.87v2.63a.85.85,0,0,1-.83.84H161.45c-3.12,0-3.25.09-3.25,3.54v3.79h13.21a.83.83,0,0,1,.83.82v3a.83.83,0,0,1-.83.83H158.2v4.65Zm33.08,8.46c-6.65,0-12.37-2.89-12.37-11.69V35.44a.8.8,0,0,1,.83-.78h4.08a.79.79,0,0,1,.83.78V52.63c0,4.71,2.18,6.94,6.63,6.94s6.64-2.23,6.64-6.94V35.44a.79.79,0,0,1,.82-.78h4.09a.79.79,0,0,1,.83.78V52.63C203.66,61.43,197.93,64.32,191.28,64.32Zm39.53-24.88h-8.24V63.17a.83.83,0,0,1-.83.82h-4.09a.83.83,0,0,1-.83-.82V39.44h-8.24a.75.75,0,0,1-.82-.73V35.44a.79.79,0,0,1,.82-.78h22.23a.8.8,0,0,1,.82.78v3.27A.75.75,0,0,1,230.81,39.44ZM286.89,64h-5c-.46,0-.62-.42-.82-.82l-6-10h-.92c-1.06,0-4.41-.11-5.36-.17V63.17A.79.79,0,0,1,268,64h-4.13a.82.82,0,0,1-.82-.82V36.1c0-.83.49-1.11,1.31-1.24a84.75,84.75,0,0,1,9.78-.53c6.37,0,12.24,2.27,12.24,9.33V44c0,4.38-2.2,6.77-5.58,8.08l6.49,11.06a.55.55,0,0,1,.08.33A.45.45,0,0,1,286.89,64Zm-6.2-20.33c0-3.1-2.4-4.42-6.54-4.42-.86,0-4.62.09-5.36.17v9c.67,0,4.67.13,5.36.13,4.26,0,6.54-.82,6.54-4.46v-.37Zm22,20.68a44.78,44.78,0,0,1-9.34-1.09.89.89,0,0,1-.78-.82v-3a.79.79,0,0,1,.78-.79h.09a74.64,74.64,0,0,0,9.33.74c3.68,0,4.8-1.31,4.8-3.7,0-3.1-7.39-4.82-11-6.3a7.4,7.4,0,0,1-4.87-7.22c0-4.55,3.66-7.85,11.34-7.85a40.27,40.27,0,0,1,8.94,1.09.82.82,0,0,1,.74.78v3a.71.71,0,0,1-.7.75h-.08a87.16,87.16,0,0,0-9.14-.75c-3.06,0-5.35,1.07-5.35,2.93,0,1.36,1.55,2.61,3.38,3.33s4.24,1.66,7,2.77c3.48,1.4,5.73,3.45,5.73,7.42C313.51,59.88,310.91,64.34,302.65,64.34Zm-61.07-8.48c0,3.46.13,3.55,3.26,3.55H255.3a.83.83,0,0,1,.82.83v2.63c0,.59-.21.79-.82.87a55.17,55.17,0,0,1-8.93.58c-6.87,0-10.49.05-10.49-8.46V42.79c0-8.51,3.62-8.46,10.49-8.46a55.17,55.17,0,0,1,8.93.58c.61.08.82.29.82.87v2.63a.85.85,0,0,1-.82.84H244.84c-3.13,0-3.26.09-3.26,3.54v3.79H254.8a.82.82,0,0,1,.81.82v3a.82.82,0,0,1-.81.83H241.58Z" transform="translate(-6.83 -5.04)"></path><g><circle class="cls-1" cx="4.74" cy="44.24" r="4.74"></circle><ellipse class="cls-1" cx="6.17" cy="33.28" rx="4.37" ry="4.36"></ellipse><ellipse class="cls-1" cx="10.36" cy="23.07" rx="3.9" ry="3.94"></ellipse><circle class="cls-1" cx="17.15" cy="14.31" r="3.18"></circle><ellipse class="cls-1" cx="25.91" cy="7.56" rx="2.62" ry="2.61"></ellipse><circle class="cls-1" cx="36.13" cy="3.34" r="2.04"></circle><ellipse class="cls-1" cx="47.13" cy="1.9" rx="1.87" ry="1.9"></ellipse><ellipse class="cls-1" cx="58.09" cy="3.35" rx="2" ry="2.03"></ellipse><circle class="cls-1" cx="89.43" cy="44.24" r="4.74"></circle><ellipse class="cls-1" cx="88" cy="33.3" rx="4.36" ry="4.37"></ellipse><circle class="cls-1" cx="88" cy="55.2" r="4.36"></circle><ellipse class="cls-1" cx="83.76" cy="65.42" rx="3.95" ry="3.95"></ellipse><ellipse class="cls-1" cx="77" cy="74.19" rx="3.17" ry="3.16"></ellipse><circle class="cls-1" cx="68.27" cy="80.92" r="2.61"></circle><circle class="cls-1" cx="58.04" cy="85.14" r="2.04"></circle><ellipse class="cls-1" cx="47.11" cy="86.59" rx="1.87" ry="1.9"></ellipse><ellipse class="cls-1" cx="6.17" cy="55.21" rx="4.35" ry="4.36"></ellipse><circle class="cls-1" cx="10.41" cy="65.43" r="3.95"></circle><ellipse class="cls-1" cx="17.16" cy="74.19" rx="3.18" ry="3.16"></ellipse><ellipse class="cls-1" cx="25.91" cy="80.93" rx="2.62" ry="2.61"></ellipse><ellipse class="cls-1" cx="36.17" cy="85.16" rx="2.05" ry="2.04"></ellipse><circle class="cls-1" cx="77.09" cy="14.31" r="3.15"></circle><circle class="cls-1" cx="68.27" cy="7.58" r="2.63"></circle><ellipse class="cls-1" cx="20.57" cy="24.49" rx="2.04" ry="2.04"></ellipse><circle class="cls-1" cx="26.58" cy="18.31" r="1.6"></circle><circle class="cls-1" cx="34" cy="13.88" r="1.48"></circle><circle class="cls-1" cx="42.3" cy="11.53" r="1.59"></circle><ellipse class="cls-1" cx="50.92" cy="11.36" rx="2.03" ry="2.01"></ellipse><ellipse class="cls-1" cx="77.41" cy="31.17" rx="3.67" ry="3.69"></ellipse><circle class="cls-1" cx="73.03" cy="23.73" r="3.4"></circle><ellipse class="cls-1" cx="66.83" cy="17.68" rx="3.07" ry="3.05"></ellipse><circle class="cls-1" cx="59.3" cy="13.52" r="2.48"></circle><ellipse class="cls-1" cx="16.37" cy="32.04" rx="2.47" ry="2.47"></ellipse><ellipse class="cls-1" cx="14.3" cy="40.4" rx="3.11" ry="3.11"></ellipse><ellipse class="cls-1" cx="14.36" cy="49.04" rx="3.38" ry="3.42"></ellipse><ellipse class="cls-1" cx="73.63" cy="63.98" rx="2.02" ry="2.03"></ellipse><ellipse class="cls-1" cx="67.63" cy="70.15" rx="1.61" ry="1.59"></ellipse><ellipse class="cls-1" cx="60.2" cy="74.62" rx="1.5" ry="1.48"></ellipse><circle class="cls-1" cx="51.88" cy="76.97" r="1.59"></circle><ellipse class="cls-1" cx="43.25" cy="77.11" rx="2.05" ry="2.04"></ellipse><ellipse class="cls-1" cx="16.74" cy="57.34" rx="3.67" ry="3.69"></ellipse><ellipse class="cls-1" cx="21.11" cy="64.77" rx="3.36" ry="3.38"></ellipse><ellipse class="cls-1" cx="27.34" cy="70.77" rx="3.09" ry="3.1"></ellipse><ellipse class="cls-1" cx="34.88" cy="74.98" rx="2.48" ry="2.47"></ellipse><ellipse class="cls-1" cx="77.78" cy="56.46" rx="2.47" ry="2.47"></ellipse><ellipse class="cls-1" cx="79.93" cy="48.08" rx="3.08" ry="3.09"></ellipse><ellipse class="cls-1" cx="79.79" cy="39.47" rx="3.38" ry="3.42"></ellipse><ellipse class="cls-1" cx="64.29" cy="25.98" rx="3.06" ry="3.05"></ellipse><circle class="cls-1" cx="69.1" cy="32.19" r="2.67"></circle><circle class="cls-1" cx="71.73" cy="39.59" r="2.34"></circle><circle class="cls-1" cx="71.98" cy="47.43" r="1.85"></circle><ellipse class="cls-1" cx="69.77" cy="54.95" rx="1.5" ry="1.49"></ellipse><circle class="cls-1" cx="65.36" cy="61.43" r="1.12"></circle><circle class="cls-1" cx="59.15" cy="66.25" r="1.5"></circle><circle class="cls-1" cx="51.76" cy="68.89" r="1.86"></circle><ellipse class="cls-1" cx="43.91" cy="69.12" rx="2.36" ry="2.36"></ellipse><circle class="cls-1" cx="36.38" cy="66.93" r="2.65"></circle><ellipse class="cls-1" cx="29.92" cy="62.48" rx="3.01" ry="3.02"></ellipse><circle class="cls-1" cx="25.08" cy="56.31" r="2.67"></circle><ellipse class="cls-1" cx="22.44" cy="48.9" rx="2.36" ry="2.37"></ellipse><ellipse class="cls-1" cx="22.22" cy="41.08" rx="1.84" ry="1.84"></ellipse><circle class="cls-1" cx="24.41" cy="33.52" r="1.5"></circle><circle class="cls-1" cx="28.82" cy="27.06" r="1.12"></circle><circle class="cls-1" cx="35.04" cy="22.24" r="1.5"></circle><circle class="cls-1" cx="42.43" cy="19.61" r="1.86"></circle><ellipse class="cls-1" cx="50.29" cy="19.33" rx="2.34" ry="2.33"></ellipse><circle class="cls-1" cx="57.81" cy="21.56" r="2.65"></circle><circle class="cls-1" cx="59.22" cy="31.24" r="2.38" transform="translate(-14.56 25.33) rotate(-27.07)"></circle><circle class="cls-1" cx="64.56" cy="33.75" r="2.07" transform="translate(-15.12 28.08) rotate(-27.1)"></circle><ellipse class="cls-1" cx="68.84" cy="37.8" rx="1.84" ry="1.83" transform="translate(-16.49 30.45) rotate(-27.09)"></ellipse><circle class="cls-1" cx="71.65" cy="42.97" r="1.45" transform="translate(-18.54 32.29) rotate(-27.09)"></circle><circle class="cls-1" cx="72.75" cy="48.76" r="1.17" transform="translate(-21.06 33.45) rotate(-27.1)"></circle><circle class="cls-1" cx="71.99" cy="54.6" r="0.88" transform="translate(-23.83 33.92) rotate(-27.21)"></circle><circle class="cls-1" cx="69.47" cy="59.92" r="1.17" transform="translate(-26.49 33.13) rotate(-27.07)"></circle><ellipse class="cls-1" cx="65.43" cy="64.2" rx="1.45" ry="1.45" transform="translate(-28.89 31.8) rotate(-27.09)"></ellipse><circle class="cls-1" cx="60.26" cy="67.01" r="1.84" transform="translate(-30.72 29.69) rotate(-27.05)"></circle><ellipse class="cls-1" cx="54.47" cy="68.11" rx="2.05" ry="2.07" transform="translate(-31.88 27.24) rotate(-27.1)"></ellipse><circle class="cls-1" cx="48.62" cy="67.35" r="2.38" transform="translate(-32.19 24.53) rotate(-27.12)"></circle><ellipse class="cls-1" cx="43.3" cy="64.82" rx="2.07" ry="2.06" transform="translate(-31.6 21.79) rotate(-27.09)"></ellipse><circle class="cls-1" cx="39.02" cy="60.78" r="1.84" transform="translate(-30.13 19.22) rotate(-26.93)"></circle><ellipse class="cls-1" cx="36.21" cy="55.61" rx="1.44" ry="1.45" transform="translate(-28.19 17.55) rotate(-27.1)"></ellipse><circle class="cls-1" cx="35.11" cy="49.82" r="1.17" transform="translate(-25.57 16.21) rotate(-26.88)"></circle><circle class="cls-1" cx="35.87" cy="44" r="0.88" transform="translate(-22.94 16.13) rotate(-27.1)"></circle><circle class="cls-1" cx="38.39" cy="38.64" r="1.16" transform="translate(-20.22 16.68) rotate(-27.09)"></circle><circle class="cls-1" cx="42.44" cy="34.38" r="1.45" transform="translate(-17.83 18.05) rotate(-27.08)"></circle><circle class="cls-1" cx="47.61" cy="31.57" r="1.84" transform="translate(-15.99 20.11) rotate(-27.1)"></circle><ellipse class="cls-1" cx="53.39" cy="30.48" rx="2.08" ry="2.07" transform="translate(-14.85 22.61) rotate(-27.09)"></ellipse><circle class="cls-1" cx="47.41" cy="37.2" r="1.86" transform="translate(-9.41 65.82) rotate(-72.08)"></circle><circle class="cls-1" cx="51.48" cy="35.8" r="1.62" transform="translate(-5.24 68.74) rotate(-72.1)"></circle><ellipse class="cls-1" cx="55.75" cy="35.68" rx="1.44" ry="1.44" transform="translate(-2.18 72.71) rotate(-72.09)"></ellipse><circle class="cls-1" cx="59.86" cy="36.91" r="1.27" transform="translate(-0.5 77.47) rotate(-72.09)"></circle><circle class="cls-1" cx="63.42" cy="39.35" r="1.09" transform="translate(-0.36 82.55) rotate(-72.09)"></circle><circle class="cls-1" cx="66.01" cy="42.77" r="0.9" transform="translate(-1.78 87.42) rotate(-72.13)"></circle><circle class="cls-1" cx="67.42" cy="46.81" r="1.09" transform="translate(-4.7 91.51) rotate(-72.07)"></circle><ellipse class="cls-1" cx="67.53" cy="51.1" rx="1.27" ry="1.27" transform="translate(-8.69 94.6) rotate(-72.09)"></ellipse><ellipse class="cls-1" cx="66.3" cy="55.21" rx="1.45" ry="1.44" transform="translate(-13.46 96.28) rotate(-72.09)"></ellipse><circle class="cls-1" cx="63.86" cy="58.75" r="1.63" transform="translate(-18.5 96.42) rotate(-72.1)"></circle><circle class="cls-1" cx="60.44" cy="61.37" r="1.86" transform="translate(-23.36 94.99) rotate(-72.11)"></circle><ellipse class="cls-1" cx="56.39" cy="62.79" rx="1.64" ry="1.63" transform="translate(-27.53 92.1) rotate(-72.09)"></ellipse><ellipse class="cls-1" cx="52.1" cy="62.89" rx="1.44" ry="1.45" transform="translate(-30.59 88.09) rotate(-72.1)"></ellipse><circle class="cls-1" cx="47.99" cy="61.65" r="1.27" transform="matrix(0.31, -0.95, 0.95, 0.31, -32.26, 83.31)"></circle><circle class="cls-1" cx="44.46" cy="59.22" r="1.08" transform="translate(-32.46 78.08) rotate(-71.94)"></circle><circle class="cls-1" cx="41.86" cy="55.8" r="0.91" transform="translate(-30.94 73.43) rotate(-72.1)"></circle><circle class="cls-1" cx="40.44" cy="51.75" r="1.09" transform="translate(-27.28 71.33) rotate(-74.02)"></circle><circle class="cls-1" cx="40.34" cy="47.46" r="1.28" transform="translate(-24.06 66.2) rotate(-72.08)"></circle><circle class="cls-1" cx="41.56" cy="43.34" r="1.44" transform="translate(-19.29 64.53) rotate(-72.1)"></circle><ellipse class="cls-1" cx="44" cy="39.8" rx="1.63" ry="1.65" transform="translate(-14.23 64.39) rotate(-72.1)"></ellipse></g></g></svg> 