<?xml version="1.0" standalone="no"?>
<!DOCTYPE svg PUBLIC "-//W3C//DTD SVG 1.1//EN" "http://www.w3.org/Graphics/SVG/1.1/DTD/svg11.dtd" >
<svg xmlns="http://www.w3.org/2000/svg">
<metadata></metadata>
<defs>
<font id="darwinaltbold" horiz-adv-x="545" >
<font-face units-per-em="1000" ascent="750" descent="-250" />
<missing-glyph horiz-adv-x="227" />
<glyph horiz-adv-x="0" />
<glyph horiz-adv-x="333" />
<glyph unicode=" "  horiz-adv-x="227" />
<glyph unicode="&#x09;" horiz-adv-x="227" />
<glyph unicode="&#xa0;" horiz-adv-x="227" />
<glyph unicode="!" horiz-adv-x="260" d="M78 191l-12 329v180h128v-180l-11 -329h-105zM130 -10q-68 0 -68 69q0 33 18.5 49.5t49.5 16.5q32 0 50.5 -16.5t18.5 -49.5q0 -69 -69 -69z" />
<glyph unicode="&#x22;" horiz-adv-x="324" d="M44 549l-14 201h116l-15 -201h-87zM192 549l-13 201h116l-15 -201h-88z" />
<glyph unicode="#" horiz-adv-x="624" d="M65 0l39 186h-93l23 106h90l26 116h-94l23 106h92l39 186h116l-38 -186h113l38 186h118l-40 -186h96l-23 -106h-93l-27 -116h96l-23 -106h-93l-39 -186h-117l39 186h-114l-37 -186h-117zM241 292h114l25 116h-114z" />
<glyph unicode="$" horiz-adv-x="583" d="M348 591v-183q194 -35 194 -203q0 -84 -49.5 -141.5t-144.5 -72.5v-91h-85v87q-115 6 -210 71l52 98q85 -46 158 -50v191q-189 33 -189 210q0 82 50 137.5t139 65.5v90h85v-90q85 -9 168 -66l-52 -98q-68 38 -116 45zM263 426v163q-65 -14 -65 -78q0 -35 16 -54.5 t49 -30.5zM348 280v-165q68 20 68 81t-68 84z" />
<glyph unicode="%" horiz-adv-x="933" d="M47 444v111q0 72 45.5 114.5t121.5 42.5t121.5 -42.5t45.5 -114.5v-111q0 -72 -46 -115t-121 -43q-76 0 -121.5 43t-45.5 115zM166 547v-96q0 -64 48 -64q47 0 47 64v96q0 31 -12.5 48t-34.5 17q-48 0 -48 -65zM553 146v111q0 73 46 115.5t122 42.5q75 0 120.5 -42.5 t45.5 -115.5v-111q0 -72 -45.5 -115t-120.5 -43q-76 0 -122 43t-46 115zM672 249v-95q0 -65 49 -65q22 0 34.5 17t12.5 48v95q0 31 -12.5 48t-34.5 17q-49 0 -49 -65zM171 0l494 760l97 -60l-498 -762z" />
<glyph unicode="&#x26;" horiz-adv-x="641" d="M252 -14q-211 0 -211 181q0 114 127 204q-82 90 -82 166t51 126.5t142 50.5q100 0 146.5 -45t46.5 -121q0 -56 -34 -98t-100 -88l106 -127q15 21 22 54.5t5 58.5l117 -15q-6 -105 -65 -194l67 -73l-89 -80l-56 63q-31 -28 -84.5 -45.5t-108.5 -17.5zM242 288 q-68 -54 -68 -115q0 -76 92 -76q65 0 106 36zM267 445q37 26 57 48.5t20 48.5q0 64 -65 64q-31 0 -48 -17.5t-17 -48.5q0 -42 53 -95z" />
<glyph unicode="'" horiz-adv-x="174" d="M44 549l-14 201h116l-15 -201h-87z" />
<glyph unicode="(" horiz-adv-x="317" d="M59 133v374q-1 97 56 166.5t155 85.5l23 -109q-51 -7 -79 -49.5t-28 -106.5v-348q0 -63 28 -106t79 -50l-23 -108q-99 16 -155.5 84.5t-55.5 166.5z" />
<glyph unicode=")" horiz-adv-x="317" d="M47 759q98 -16 155 -85.5t57 -166.5v-374q0 -98 -56.5 -166.5t-155.5 -84.5l-22 108q52 7 79.5 49.5t27.5 106.5v348q0 64 -27.5 106.5t-79.5 49.5z" />
<glyph unicode="*" horiz-adv-x="446" d="M77 406l80 102l-123 33l30 97l118 -44l-5 129h96l-5 -128l114 44l31 -98l-121 -34l78 -101l-78 -60l-68 109l-68 -109z" />
<glyph unicode="+" horiz-adv-x="559" d="M221 45v200h-175v116h175v200h118v-200h176v-116h-176v-200h-118z" />
<glyph unicode="," horiz-adv-x="220" d="M45 -104l-27 55q40 22 45 50q-32 19 -32 60q0 36 22 54.5t56 18.5q35 0 57.5 -19t22.5 -54q0 -50 -34.5 -97t-109.5 -68z" />
<glyph unicode="-" horiz-adv-x="395" d="M46 244v114h303v-114h-303z" />
<glyph unicode="." horiz-adv-x="220" d="M189 60q0 -36 -22 -54.5t-58 -18.5q-35 0 -56.5 18.5t-21.5 54.5t21.5 55t56.5 19q36 0 58 -19t22 -55z" />
<glyph unicode="/" horiz-adv-x="497" d="M8 -110l371 905l111 -45l-373 -904z" />
<glyph unicode="0" horiz-adv-x="566" d="M52 210v280q0 103 63.5 163.5t167.5 60.5q105 0 169 -60.5t64 -163.5v-280q0 -103 -64 -163.5t-169 -60.5q-104 0 -167.5 60.5t-63.5 163.5zM184 478v-256q0 -58 26.5 -89t72.5 -31q47 0 73.5 31t26.5 89v256q0 58 -26.5 89t-73.5 31q-46 0 -72.5 -31t-26.5 -89z" />
<glyph unicode="1" horiz-adv-x="340" d="M249 118h83v-118h-314v118h100v427l-79 -51l-56 95l154 111h112v-582z" />
<glyph unicode="2" horiz-adv-x="561" d="M61 640q106 74 220 74q111 0 168.5 -55t57.5 -153q0 -85 -54 -171.5t-185 -219.5h253v-115h-464v79q164 163 239.5 261.5t75.5 162.5q0 45 -25 71t-71 26q-74 0 -165 -49z" />
<glyph unicode="3" horiz-adv-x="549" d="M265 -14q-121 0 -221 69l43 96q91 -49 167 -49q49 0 78 28t29 76q0 112 -106 112h-73v98h79q47 0 70.5 25t22.5 70q-1 42 -23 66t-66 24q-84 0 -168 -38l-36 89q99 62 213 62q106 0 158.5 -55t52.5 -143q0 -91 -68 -142q37 -21 59.5 -67.5t22.5 -91.5v-16 q0 -95 -61.5 -154t-172.5 -59z" />
<glyph unicode="4" horiz-adv-x="570" d="M28 127v76l231 497h142l-215 -458h169v238h131v-238h63v-115h-63v-127h-131v127h-327z" />
<glyph unicode="5" d="M66 347l42 353h359v-114h-242l-20 -171q40 23 94 23q95 0 149 -52.5t54 -157.5v-32q0 -94 -62.5 -152t-172.5 -58q-123 0 -222 69l43 96q89 -49 170 -49q48 0 77.5 27t29.5 72v17q0 107 -99 107q-64 0 -119 -37z" />
<glyph unicode="6" horiz-adv-x="575" d="M52 490q0 102 64 163t170 61q119 0 225 -74l-50 -89q-89 49 -165 49q-54 0 -83 -31.5t-29 -90.5v-83q51 32 130 32q92 0 151 -48.5t59 -150.5v-30q0 -102 -64 -157t-171 -55t-172 52.5t-65 153.5v298zM184 280v-75q0 -105 105 -105q48 0 76 27t28 84q0 53 -23 77t-72 24 q-68 0 -114 -32z" />
<glyph unicode="7" horiz-adv-x="457" d="M58 0l244 585h-291v115h440v-75l-252 -625h-141z" />
<glyph unicode="8" horiz-adv-x="576" d="M278 417h16q39 0 65.5 27.5t27.5 68.5q0 41 -26 66.5t-72 25.5q-48 0 -74 -25.5t-26 -66.5t25 -68.5t64 -27.5zM45 201v17q0 42 24 87t57 68q-29 26 -47.5 67.5t-18.5 79.5q0 91 57 142.5t171 51.5t171.5 -51.5t57.5 -142.5q0 -38 -18 -78.5t-49 -67.5q35 -24 58 -68.5 t23 -87.5v-17q0 -95 -61.5 -155t-181.5 -60q-122 0 -182.5 59.5t-60.5 155.5zM182 211v-7q0 -45 26.5 -74t80.5 -29q52 0 78.5 29t26.5 74v7q0 44 -28 75.5t-68 31.5h-19q-41 0 -69 -31.5t-28 -75.5z" />
<glyph unicode="9" horiz-adv-x="573" d="M390 414v79q0 107 -104 107q-102 0 -102 -111q0 -55 22.5 -78t72.5 -23q66 0 111 26zM108 146q87 -46 168 -46q54 0 84 29.5t30 86.5v84q-46 -27 -127 -27q-92 0 -151.5 48.5t-59.5 150.5v30q0 102 63.5 157t170.5 55t171.5 -52t64.5 -153v-303q0 -104 -62 -162t-180 -58 q-126 0 -222 68z" />
<glyph unicode=":" horiz-adv-x="220" d="M189 495q0 -36 -22 -54.5t-58 -18.5q-35 0 -56.5 18.5t-21.5 54.5t21.5 55t56.5 19q36 0 58 -19t22 -55zM189 60q0 -36 -22 -54.5t-58 -18.5q-35 0 -56.5 18.5t-21.5 54.5t21.5 55t56.5 19q36 0 58 -19t22 -55z" />
<glyph unicode=";" horiz-adv-x="220" d="M45 -104l-27 55q40 22 45 50q-32 19 -32 60q0 36 22 54.5t56 18.5q35 0 57.5 -19t22.5 -54q0 -50 -34.5 -97t-109.5 -68zM189 495q0 -36 -22 -54.5t-58 -18.5q-35 0 -56.5 18.5t-21.5 54.5t21.5 55t56.5 19q36 0 58 -19t22 -55z" />
<glyph unicode="&#x3c;" horiz-adv-x="373" d="M166 279l163 -141l-63 -86l-220 185v84l220 187l63 -86z" />
<glyph unicode="=" horiz-adv-x="559" d="M46 126v114h468v-114h-468zM46 339v114h468v-114h-468z" />
<glyph unicode="&#x3e;" horiz-adv-x="373" d="M108 52l-62 86l162 141l-162 143l62 86l221 -187v-84z" />
<glyph unicode="?" horiz-adv-x="483" d="M303 535q0 30 -19.5 48.5t-58.5 18.5q-84 0 -148 -35l-46 88q85 59 199 59q101 0 154.5 -49.5t53.5 -127.5v-14q0 -59 -23 -98t-72 -88q-40 -39 -55 -63t-15 -59v-28h-128v34q0 48 13 82.5t27.5 51t51.5 50.5q33 30 49.5 58t16.5 65v7zM288 60q0 -36 -22 -54.5t-58 -18.5 q-35 0 -56.5 18.5t-21.5 54.5t21.5 55t56.5 19q36 0 58 -19t22 -55z" />
<glyph unicode="@" horiz-adv-x="726" d="M303 395l-13 -101q-13 -79 45 -79q23 0 46 12t36 29l29 222h-72q-60 0 -71 -83zM48 206l38 285q13 98 108.5 157t215.5 59q119 0 200 -61.5t68 -157.5l-28 -214q-9 -59 -42 -92.5t-89 -33.5q-64 0 -86 47q-20 -20 -50 -33.5t-57 -13.5q-66 0 -95.5 36.5t-21.5 105.5 l15 116q8 67 46 102t97 35h168l-35 -277q-4 -27 2 -37.5t23 -10.5q36 0 45 56l28 210q9 71 -50 110.5t-145 39.5q-87 0 -157.5 -40.5t-80.5 -113.5l-37 -271q-9 -71 49.5 -110.5t144.5 -39.5q74 0 140 22l20 -66q-65 -28 -166 -28q-119 0 -200 61t-68 158z" />
<glyph unicode="A" horiz-adv-x="605" d="M458 0l-43 123h-225l-43 -123h-148l243 605l-31 95h136l258 -700h-147zM304 443l-75 -211h148z" />
<glyph unicode="B" horiz-adv-x="584" d="M57 39v661h247q223 0 223 -186v-25q0 -32 -19 -68t-51 -55q37 -12 63 -50.5t26 -86.5v-48q-1 -80 -65.5 -130.5t-175.5 -50.5q-131 0 -248 39zM191 412h134q30 0 48.5 21t18.5 62l-1 6q0 47 -19.5 64.5t-64.5 17.5h-116v-171zM191 130q62 -14 115 -14q49 1 77 21.5 t28 54.5v35q0 37 -19 58t-54 21h-147v-176z" />
<glyph unicode="C" horiz-adv-x="524" d="M498 53q-49 -35 -94 -51t-108 -16q-107 0 -175.5 62.5t-68.5 166.5v271q0 104 68.5 166t175.5 62q63 0 108 -16t94 -51l-52 -94q-44 24 -74 34t-76 10q-50 0 -79.5 -33t-29.5 -90v-247q0 -58 29.5 -90.5t79.5 -32.5q46 0 76 10t74 34z" />
<glyph unicode="D" horiz-adv-x="597" d="M57 39v661h257q107 0 169.5 -61.5t62.5 -166.5v-244q0 -105 -64.5 -166.5t-178.5 -61.5q-137 0 -246 39zM191 130q56 -14 112 -14q108 0 108 124v220q0 121 -97 121h-123v-451z" />
<glyph unicode="E" horiz-adv-x="513" d="M57 0v700h417v-119h-283v-167h236v-117h-236v-179h290v-118h-424z" />
<glyph unicode="F" horiz-adv-x="502" d="M57 0v700h419v-119h-285v-192h236v-118h-236v-271h-134z" />
<glyph unicode="G" horiz-adv-x="599" d="M52 486q0 103 69.5 165.5t180.5 62.5q132 0 231 -74l-52 -95q-43 27 -82 39.5t-97 12.5q-52 0 -83.5 -32.5t-31.5 -91.5v-248q0 -59 27 -90.5t77 -31.5q36 0 68.5 16.5t53.5 43.5v107h-131v113h265v-393h-99l-20 64q-70 -68 -164 -68q-102 0 -157 59.5t-55 165.5v275z " />
<glyph unicode="H" horiz-adv-x="601" d="M57 0v700h134v-280h220v280h135v-700h-135v302h-220v-302h-134z" />
<glyph unicode="I" horiz-adv-x="246" d="M57 0v700h134v-700h-134z" />
<glyph unicode="J" horiz-adv-x="294" d="M136 -150l-75 88q44 46 44 126v636h134l1 -640q0 -74 -29 -128.5t-75 -81.5z" />
<glyph unicode="K" horiz-adv-x="570" d="M366 101l-107 186l-68 -91v-196h-134v700h134v-293l217 293h159l-226 -301l159 -267q30 -49 96 -31l-1 -104q-91 -13 -137.5 6t-91.5 98z" />
<glyph unicode="L" horiz-adv-x="485" d="M57 0v700h134v-582h281v-118h-415z" />
<glyph unicode="M" horiz-adv-x="705" d="M57 0v700h92l204 -391l204 391h93v-700h-135l5 373l-136 -261h-68l-130 251l4 -363h-133z" />
<glyph unicode="N" horiz-adv-x="618" d="M57 0v700h121l255 -430l-4 430h134v-700h-124l-253 427l3 -427h-132z" />
<glyph unicode="O" horiz-adv-x="611" d="M52 215v271q0 103 73 165.5t182 62.5q107 0 180 -62.5t73 -165.5v-271q0 -104 -73 -166.5t-180 -62.5q-109 0 -182 62.5t-73 166.5zM187 473v-246q0 -58 34 -90t86 -32q51 0 84.5 32t33.5 90v246q0 58 -33.5 90.5t-84.5 32.5q-52 0 -86 -32t-34 -91z" />
<glyph unicode="P" horiz-adv-x="587" d="M57 0v700h257q107 0 169.5 -61.5t62.5 -166.5v-44q0 -105 -62.5 -166.5t-169.5 -62.5q-68 2 -123 23v-222h-134zM191 337q51 -20 123 -20q97 0 97 123v20q0 121 -97 121h-123v-244z" />
<glyph unicode="Q" horiz-adv-x="611" d="M300 -45q39 0 87 -24.5t67 -24.5q42 0 82 22l32 -70q-16 -20 -46.5 -34.5t-62.5 -14.5q-39 0 -87 24t-71 24q-42 0 -78 -21l-34 68q14 18 46 34.5t65 16.5zM52 215v271q0 103 73 165.5t182 62.5q107 0 180 -62.5t73 -165.5v-271q0 -104 -73 -166.5t-180 -62.5 q-109 0 -182 62.5t-73 166.5zM187 473v-246q0 -58 34 -90t86 -32q51 0 84.5 32t33.5 90v246q0 58 -33.5 90.5t-84.5 32.5q-52 0 -86 -32t-34 -91z" />
<glyph unicode="R" horiz-adv-x="587" d="M356 101l-78 155q-54 0 -87 10v-266h-134v700h257q105 0 168.5 -58t63.5 -147v-35q0 -64 -35 -114t-97 -72l76 -142q26 -50 96 -33l-1 -102q-93 -14 -141 5t-88 99zM191 581v-196q45 -13 116 -13q51 0 77.5 28t26.5 73v9q0 45 -25.5 72t-71.5 27h-123z" />
<glyph unicode="S" horiz-adv-x="581" d="M105 156q93 -51 175 -51q61 0 95.5 25t34.5 66q0 42 -30.5 64.5t-97.5 31.5q-208 30 -208 215q0 92 60.5 149t167.5 57q115 0 214 -69l-52 -98q-88 49 -160 49q-50 0 -75 -23t-25 -61q0 -47 30 -67.5t92 -29.5q216 -32 216 -209q0 -97 -65.5 -157.5t-191.5 -60.5 q-131 0 -232 71z" />
<glyph unicode="T" horiz-adv-x="506" d="M186 0v582h-175v118h486v-118h-176v-582h-135z" />
<glyph unicode="U" horiz-adv-x="596" d="M596 -2q-74 -16 -115.5 -2t-55.5 64q-68 -74 -173 -74q-103 0 -150.5 54.5t-47.5 163.5v496h136v-483q0 -60 22.5 -87.5t71.5 -27.5q38 0 71.5 19t51.5 48v531h135v-571q0 -29 16 -35t38 4v-100z" />
<glyph unicode="V" horiz-adv-x="587" d="M144 700l153 -538l149 538h140l-234 -700h-114l-236 700h142z" />
<glyph unicode="W" horiz-adv-x="900" d="M202 0l-201 700h140l126 -533l115 533h133l117 -532l127 532h138l-201 -700h-130l-119 512l-115 -512h-130z" />
<glyph unicode="X" horiz-adv-x="576" d="M421 700h152l-200 -340l203 -360h-154l-133 259l-135 -259h-153l201 353l-199 347h154l129 -248z" />
<glyph unicode="Y" horiz-adv-x="561" d="M214 0v257l-214 443h148l135 -305l131 305h147l-212 -441v-259h-135z" />
<glyph unicode="Z" horiz-adv-x="542" d="M29 0v91q112 127 188 245t117 246h-294v118h461v-93q-85 -258 -269 -489h283v-118h-486z" />
<glyph unicode="[" horiz-adv-x="281" d="M59 -110v860h202v-110h-85v-640h85v-110h-202z" />
<glyph unicode="\" horiz-adv-x="498" d="M8 750l110 45l372 -905l-110 -44z" />
<glyph unicode="]" horiz-adv-x="281" d="M21 -110v110h85v640h-85v110h202v-860h-202z" />
<glyph unicode="^" horiz-adv-x="425" d="M43 513l117 225h106l116 -225l-102 -32l-67 158l-68 -158z" />
<glyph unicode="_" horiz-adv-x="491" d="M8 -131v89h476v-89h-476z" />
<glyph unicode="`" horiz-adv-x="310" d="M59 706l92 58l83 -149l-61 -39z" />
<glyph unicode="a" d="M542 -2q-137 -29 -167 52q-60 -60 -149 -60q-85 0 -127.5 55t-42.5 155v127q0 97 51 150t139 53q75 0 131 -37l17 27h92v-391q0 -50 56 -31v-100zM358 160v235q-45 24 -94 24q-38 0 -59 -25.5t-21 -76.5v-105q0 -57 16.5 -83.5t58.5 -26.5q28 0 55.5 16.5t43.5 41.5z" />
<glyph unicode="b" d="M60 0v750h128v-274q54 54 127 54q92 0 133.5 -50t41.5 -152l-1 -127q0 -97 -56.5 -154t-150.5 -57q-66 0 -127 41l-8 -31h-87zM188 363v-235q41 -27 86 -27q85 0 87 111v106q0 52 -17 75t-58 23q-25 0 -52 -15.5t-46 -37.5z" />
<glyph unicode="c" horiz-adv-x="508" d="M183 213q0 -112 93 -112q42 0 69.5 9.5t70.5 32.5l47 -89q-91 -64 -192 -64t-159 57t-58 155v116q0 99 58 155.5t159 56.5q60 0 103 -15.5t89 -48.5l-48 -88q-30 17 -45 24t-39.5 12.5t-54.5 5.5q-93 0 -93 -113v-94z" />
<glyph unicode="d" d="M541 -2q-136 -29 -166 52q-60 -60 -149 -60q-85 0 -127.5 55t-42.5 155v127q0 99 46 151t133 52q65 0 123 -25v245h128v-621q0 -50 56 -31zM358 160v235q-47 25 -95 25q-79 0 -79 -103v-105q0 -57 16.5 -83.5t58.5 -26.5q28 0 55.5 16.5t43.5 41.5z" />
<glyph unicode="e" horiz-adv-x="540" d="M181 306h180v8q0 107 -89 107q-91 0 -91 -107v-8zM474 54q-93 -64 -202 -64q-101 0 -159.5 56.5t-58.5 154.5v117q0 99 58.5 155.5t159.5 56.5t159 -56.5t58 -155.5v-99h-306v-14q0 -106 91 -106q71 0 152 44z" />
<glyph unicode="f" horiz-adv-x="350" d="M60 -150v567h-52v103h52v56q0 180 186 180q52 0 97 -15l-20 -99q-24 6 -59 6q-40 0 -57.5 -18.5t-17.5 -57.5v-52h126v-103h-126v-567h-129z" />
<glyph unicode="g" horiz-adv-x="544" d="M358 188v207q-48 21 -98 21q-76 0 -76 -98v-75q0 -51 17 -74t58 -23q49 0 99 42zM106 -16q69 -34 157 -34q95 0 95 92v36q-51 -46 -127 -46q-92 0 -133 49t-41 151v96q0 202 175 202q68 0 145 -35l17 25h93v-489q0 -92 -57 -141.5t-158 -49.5q-114 0 -205 53z" />
<glyph unicode="h" horiz-adv-x="542" d="M461 -10q-51 0 -77.5 22t-26.5 74v242q0 46 -17 67t-57 21q-51 0 -95 -51v-365h-128v750h128v-274q54 54 130 54q90 0 128.5 -47.5t38.5 -141.5v-216q0 -32 29 -32q10 0 27 5l-1 -100q-46 -8 -79 -8z" />
<glyph unicode="i" horiz-adv-x="246" d="M60 520h128v-520h-129zM203 664q0 -35 -22 -53.5t-58 -18.5t-57.5 18t-21.5 54t21.5 55.5t57.5 19.5q35 0 57.5 -19.5t22.5 -55.5z" />
<glyph unicode="j" horiz-adv-x="252" d="M65 520h129v-481q0 -94 -57 -144.5t-165 -54.5l-16 101q59 2 84.5 27.5t24.5 80.5v471zM204 665q0 -72 -76 -72t-76 72q0 36 20.5 54t55.5 18q76 0 76 -72z" />
<glyph unicode="k" horiz-adv-x="510" d="M516 -3q-91 -13 -137.5 6t-87.5 98l-55 102l-48 -57v-146h-128v750h128v-425l169 195h154l-188 -216l98 -174q28 -50 96 -32z" />
<glyph unicode="l" horiz-adv-x="246" d="M164 -10q-51 0 -77.5 22t-26.5 74v664h128v-625q0 -32 29 -32q10 0 27 5l-1 -100q-46 -8 -79 -8z" />
<glyph unicode="m" horiz-adv-x="805" d="M722 -10q-52 0 -78.5 22t-26.5 74v249q0 45 -12 64.5t-46 19.5q-52 0 -92 -57v-362h-128v333q0 40 -16 61.5t-44 21.5q-50 0 -91 -54v-362h-128v520h111l11 -49q55 59 131 59q87 0 122 -71q65 71 155 71q79 0 117.5 -44.5t38.5 -140.5v-220q0 -32 29 -32q10 0 27 5 l-1 -100q-48 -8 -79 -8z" />
<glyph unicode="n" horiz-adv-x="543" d="M461 -10q-51 0 -77.5 22t-26.5 74v241q0 47 -16.5 68t-56.5 21q-53 0 -96 -54v-362h-128v520h111l11 -49q25 26 62.5 42.5t73.5 16.5q88 0 127.5 -48.5t39.5 -141.5v-215q0 -32 29 -32q10 0 27 5l-1 -100q-46 -8 -79 -8z" />
<glyph unicode="o" horiz-adv-x="542" d="M183 308l-1 -96q0 -111 90 -111q89 0 89 111v96q0 111 -89 111t-89 -111zM54 201v118q0 98 58.5 154.5t159.5 56.5t159 -56.5t58 -154.5v-118q1 -98 -57.5 -154.5t-159.5 -56.5t-159.5 56.5t-58.5 154.5z" />
<glyph unicode="p" d="M171 520l11 -49q24 25 61 42t73 17q92 0 133 -50t41 -152l-1 -127q0 -99 -53.5 -155t-148.5 -56q-53 0 -99 16v-156h-128v670h111zM361 212v106q0 52 -17 75t-58 23q-54 0 -98 -54v-245q33 -16 86 -16q85 0 87 111z" />
<glyph unicode="q" d="M357 157v240q-42 22 -89 22q-84 0 -84 -111v-106q0 -52 17 -75t58 -23q25 0 52 15.5t46 37.5zM486 520v-670h-129v194q-54 -54 -127 -54q-92 0 -133 50t-42 152l1 127q0 99 50.5 155t143.5 56q64 0 126 -35l17 25h93z" />
<glyph unicode="r" horiz-adv-x="353" d="M59 0l1 520h111l12 -58q26 29 67.5 48.5t80.5 19.5l10 -117q-92 0 -153 -61v-352h-129z" />
<glyph unicode="s" horiz-adv-x="492" d="M83 141q82 -48 156 -48q43 0 66.5 14t23.5 39q0 13 -5.5 23t-12.5 15.5t-25 11t-30.5 8.5t-41.5 8q-36 6 -59 14t-48.5 24.5t-38.5 48t-13 76.5q0 72 49.5 113.5t147.5 41.5q105 0 195 -63l-45 -84q-80 44 -146 44q-72 0 -72 -49q0 -16 5.5 -26t22 -16.5t29 -9.5t44.5 -8 q40 -7 62.5 -14t52 -24.5t43.5 -49.5t14 -79q0 -73 -55.5 -117t-155.5 -44q-116 0 -208 62z" />
<glyph unicode="t" horiz-adv-x="311" d="M74 185v232h-78v103h78v99h129v-99h95v-103h-95v-227q0 -106 71 -190h-143q-57 69 -57 185z" />
<glyph unicode="u" horiz-adv-x="531" d="M214 -10q-83 0 -120.5 47.5t-37.5 147.5v335h128v-330q0 -47 14 -67.5t50 -20.5q28 0 55 16.5t43 41.5v360h129v-391q0 -50 55 -31v-100q-74 -15 -112.5 -2t-53.5 54q-62 -60 -150 -60z" />
<glyph unicode="v" horiz-adv-x="495" d="M189 0l-186 520h136l110 -358l108 358h135l-187 -520h-116z" />
<glyph unicode="w" horiz-adv-x="750" d="M154 0l-150 520h133l81 -353l90 353h129l96 -349l81 349h132l-150 -520h-129l-96 345l-89 -345h-128z" />
<glyph unicode="x" horiz-adv-x="515" d="M355 520h150l-164 -253l171 -267h-148l-108 183l-105 -183h-148l171 267l-163 253h150l97 -168z" />
<glyph unicode="y" horiz-adv-x="537" d="M98 -13q81 -38 163 -38q96 0 96 93v63q-56 -59 -143 -59q-81 0 -119 40t-38 129v305h129v-273q-1 -47 14.5 -66.5t55.5 -19.5q56 0 95 47v312h128v-488q0 -94 -53.5 -143t-154.5 -49q-121 0 -211 55z" />
<glyph unicode="z" horiz-adv-x="465" d="M31 0v84q95 79 156.5 155.5t95.5 172.5h-247v108h393v-84q-29 -98 -75.5 -174.5t-120.5 -153.5h207v-108h-409z" />
<glyph unicode="{" horiz-adv-x="343" d="M123 43v146q0 73 -57 73h-31v116h31q57 0 57 73v147q0 79 38.5 115.5t113.5 36.5h37v-108h-15q-26 0 -37 -13t-11 -42v-133q0 -94 -66 -134q31 -18 48.5 -54t17.5 -80v-133q0 -29 11 -42t37 -13h15v-108h-37q-75 0 -113.5 36.5t-38.5 116.5z" />
<glyph unicode="|" horiz-adv-x="235" d="M60 -170v940h115v-940h-115z" />
<glyph unicode="}" horiz-adv-x="343" d="M278 262q-57 0 -57 -72v-147q0 -80 -38.5 -116.5t-113.5 -36.5h-37v108h16q26 0 36.5 13.5t10.5 42.5v132q0 44 17.5 80t48.5 54q-66 40 -66 134v133q0 29 -10.5 42t-36.5 13h-16v108h37q76 0 114 -36t38 -116v-147q0 -73 57 -73h31v-116h-31z" />
<glyph unicode="~" horiz-adv-x="570" d="M142 261l-95 16q10 58 47 94t95 36q41 0 103.5 -27t82.5 -27q48 0 53 50l95 -14q-9 -60 -44 -95.5t-97 -35.5q-42 0 -102 26.5t-85 26.5q-51 0 -53 -50z" />
<glyph unicode="&#xa1;" horiz-adv-x="260" d="M66 0v180l12 329h105l11 -329v-180h-128zM130 575q-31 0 -49.5 16.5t-18.5 49.5q0 69 68 69q69 0 69 -69q0 -33 -18.5 -49.5t-50.5 -16.5z" />
<glyph unicode="&#xa2;" horiz-adv-x="508" d="M420 246l43 -83q-75 -52 -141 -61v-102h-79v100q-89 8 -139 64t-50 147v76q0 91 50 147t139 64v102h79v-104q66 -8 141 -61l-45 -82q-59 32 -96 36v-278q51 8 98 35zM170 379v-60q0 -97 73 -108v276q-73 -11 -73 -108z" />
<glyph unicode="&#xa3;" horiz-adv-x="515" d="M322 648q-46 0 -66.5 -21t-20.5 -67v-128h135v-111h-135v-87q0 -34 -9.5 -63.5t-18.5 -42.5l-9 -13h286v-115h-451v93q34 21 54 54.5t20 72.5v101h-74v111h74v133q0 191 195 191q92 0 169 -42l-40 -91q-56 25 -109 25z" />
<glyph unicode="&#xa4;" horiz-adv-x="587" d="M40 158l67 69q-18 41 -18 90v42q0 49 18 88l-67 71l81 86l67 -70q46 23 106 23q64 0 106 -23l67 70l80 -86l-67 -71q18 -39 18 -88v-42q0 -41 -18 -90l67 -69l-80 -86l-67 70q-43 -23 -106 -23q-64 0 -107 23l-66 -71zM200 350v-24q0 -48 26 -73.5t68 -25.5t67.5 25.5 t25.5 73.5v24q0 48 -25.5 73.5t-67.5 25.5t-68 -25.5t-26 -73.5z" />
<glyph unicode="&#xa5;" horiz-adv-x="565" d="M51 86v95h169v63h-169v95h145l-188 361l144 3l135 -280l134 277h138l-186 -361h146v-95h-167v-63h167v-95h-167v-86h-132v86h-169z" />
<glyph unicode="&#xa6;" horiz-adv-x="235" d="M60 -170v355h115v-355h-115zM60 411v359h115v-359h-115z" />
<glyph unicode="&#xa7;" horiz-adv-x="519" d="M462 66q0 -71 -53.5 -118t-149.5 -47q-119 0 -213 64l46 92q84 -48 164 -48q38 0 56.5 17t18.5 43v12q0 41 -92 58q-40 8 -70 18t-60.5 28t-47 48t-16.5 70v15q0 31 18.5 63.5t46.5 51.5q-52 40 -52 102v18q0 72 49.5 116.5t144.5 44.5q109 0 201 -65l-47 -87 q-81 44 -150 44q-68 0 -68 -55v-12q0 -45 96 -63q38 -8 66.5 -17.5t59 -27t47.5 -46.5t17 -67v-17q0 -28 -21.5 -60t-50.5 -53q60 -36 60 -105v-17zM177 320v-6q0 -11 3 -20t11 -15.5t14 -11t21 -9t22 -6.5t27 -6t27 -6q41 28 41 59v7q0 16 -9.5 27.5t-27 19t-32.5 11.5 t-37 7.5t-29 5.5q-31 -22 -31 -57z" />
<glyph unicode="&#xa8;" horiz-adv-x="463" d="M113 607q-31 0 -47.5 19.5t-16.5 52.5q0 75 64 75q66 0 66 -75q0 -72 -66 -72zM348 607q-63 0 -63 72q0 75 63 75q67 0 67 -75q0 -72 -67 -72z" />
<glyph unicode="&#xa9;" horiz-adv-x="690" d="M52 209v279q0 100 86 161t207 61q122 0 207.5 -61t85.5 -161v-279q0 -101 -85.5 -162t-207.5 -61q-121 0 -207 61t-86 162zM140 488v-280q0 -63 62 -100t143 -37t143.5 37t62.5 100v280q0 63 -62.5 100.5t-143.5 37.5q-80 0 -142.5 -38t-62.5 -100zM489 191 q-70 -48 -134 -48q-82 0 -118.5 37.5t-36.5 117.5v101q0 80 36.5 117.5t118.5 37.5q67 0 134 -48l-33 -63q-52 29 -100 29q-34 0 -48.5 -19.5t-14.5 -61.5v-83q0 -44 14.5 -63.5t48.5 -19.5q47 0 101 30z" />
<glyph unicode="&#xaa;" horiz-adv-x="440" d="M137 397q0 -48 57 -48q26 0 54 13.5t40 33.5v42q-40 9 -90 9q-61 0 -61 -50zM390 556v-281h-85l-6 41q-18 -21 -54.5 -35t-70.5 -14q-64 0 -102 30.5t-38 92.5q0 128 154 128q47 0 100 -12v44q0 39 -21 54.5t-62 15.5q-63 0 -114 -27l-34 76q78 44 168 44q165 0 165 -157 z" />
<glyph unicode="&#xab;" horiz-adv-x="500" d="M308 279l112 -116l-58 -76l-65 65l-48 -65l-152 153v78l152 154l49 -65l64 65l58 -76zM194 279l16 -17v33z" />
<glyph unicode="&#xac;" horiz-adv-x="620" d="M48 335v113h524v-257h-126v144h-398z" />
<glyph unicode="&#xad;" horiz-adv-x="390" d="M62 244v114h304v-114h-304z" />
<glyph unicode="&#xae;" horiz-adv-x="690" d="M206 150v399h151q64 0 100 -32t36 -92v-20q0 -85 -70 -111l78 -144h-113l-63 132h-24l-1 -132h-94zM300 357h45q27 0 40.5 12t13.5 41v8q0 29 -13 40.5t-41 11.5h-45v-113zM52 209v279q0 100 86 161t207 61q122 0 207.5 -61t85.5 -161v-279q0 -101 -85.5 -162t-207.5 -61 q-121 0 -207 61t-86 162zM140 488v-280q0 -63 62 -100t143 -37t143.5 37t62.5 100v280q0 63 -62.5 100.5t-143.5 37.5q-80 0 -142.5 -38t-62.5 -100z" />
<glyph unicode="&#xaf;" horiz-adv-x="389" d="M43 589v114h304v-114h-304z" />
<glyph unicode="&#xb0;" horiz-adv-x="355" d="M44 564v17q0 62 36 99t96 37q63 0 100 -37t37 -99v-17q0 -64 -37 -100t-100 -36q-61 0 -96.5 36t-35.5 100zM175 504q60 0 60 66q0 69 -60 69q-54 0 -54 -69q0 -66 54 -66z" />
<glyph unicode="&#xb1;" horiz-adv-x="566" d="M48 311v106h180v143h110v-143h180v-106h-180v-143h-110v143h-180zM48 19v104h470v-104h-470z" />
<glyph unicode="&#xb2;" horiz-adv-x="418" d="M198 325h174v-91h-327v64l180 198q36 40 36 74q0 21 -13.5 35t-39.5 14q-49 0 -123 -34l-37 73q83 52 166 52q75 0 112 -38t37 -101t-70 -141z" />
<glyph unicode="&#xb3;" horiz-adv-x="411" d="M359 372q0 -66 -43 -105.5t-119 -39.5q-88 0 -153 41l28 74q55 -25 117 -25q63 0 63 58v5q0 60 -47 60h-55v72h55q20 0 31 18t11 39q0 54 -51 54q-59 0 -110 -22l-27 72q61 39 146 39q71 0 108 -36.5t37 -96.5q0 -25 -10 -53.5t-28 -46.5q21 -14 34 -41.5t13 -54.5v-11z " />
<glyph unicode="&#xb4;" horiz-adv-x="310" d="M63 615l83 149l92 -58l-114 -130z" />
<glyph unicode="&#xb6;" horiz-adv-x="563" d="M273 -110v373h-20q-91 0 -146 54t-55 152v25q0 99 56.5 152.5t162.5 53.5h234v-810h-77v722h-77v-722h-78z" />
<glyph unicode="&#xb7;" horiz-adv-x="220" d="M189 338q0 -36 -22 -54.5t-58 -18.5q-35 0 -56.5 18.5t-21.5 54.5t21.5 55t56.5 19q36 0 58 -19t22 -55z" />
<glyph unicode="&#xb8;" horiz-adv-x="260" d="M43 -157l6 47q12 -5 33 -5q37 0 37 23q0 14 -15 20.5t-30 5.5h-16l28 66h83l-12 -33q61 -11 61 -63q0 -38 -32.5 -54.5t-77.5 -16.5q-33 0 -65 10z" />
<glyph unicode="&#xb9;" horiz-adv-x="297" d="M45 334h67v249l-56 -36l-43 72l118 85h81v-370h65v-85h-232v85z" />
<glyph unicode="&#xba;" horiz-adv-x="432" d="M139 530v-80q0 -89 77 -89q76 0 76 89v80q0 90 -76 90q-77 0 -77 -90zM37 441v98q0 81 48 127.5t131 46.5t131 -46.5t48 -127.5v-98q0 -81 -48 -127.5t-131 -46.5t-131 46.5t-48 127.5z" />
<glyph unicode="&#xbb;" horiz-adv-x="500" d="M139 87l-58 76l112 116l-112 117l58 76l64 -65l49 65l153 -154v-78l-153 -153l-49 65zM307 279l-16 16v-33z" />
<glyph unicode="&#xbc;" horiz-adv-x="907" d="M512 83v60l135 321h104l-117 -291h99v133h101v-133h33v-90h-34v-83h-100v83h-221zM167 0l451 700h137l-452 -700h-136zM54 334h67v249l-56 -36l-42 72l117 85h82v-370h64v-85h-232v85z" />
<glyph unicode="&#xbd;" horiz-adv-x="964" d="M54 334h67v249l-56 -36l-42 72l117 85h82v-370h64v-85h-232v85zM612 700h136l-452 -700h-135zM755 91h175v-91h-328v65l183 198q36 40 36 74q0 21 -13.5 34.5t-39.5 13.5q-53 0 -123 -34l-36 74q80 51 166 51q75 0 111.5 -37.5t36.5 -100.5q0 -67 -70 -141z" />
<glyph unicode="&#xbe;" horiz-adv-x="936" d="M541 83v60l136 321h103l-117 -291h100v133h100v-133h33v-90h-33v-83h-100v83h-222zM191 0l451 700h136l-452 -700h-135zM349 372q0 -66 -43 -105.5t-119 -39.5q-88 0 -152 41l28 74q55 -25 117 -25t62 58v5q0 60 -46 60h-55v72h54q20 0 31.5 18t11.5 39q0 54 -52 54 q-58 0 -109 -22l-28 72q62 39 146 39q72 0 109 -36.5t37 -96.5q0 -25 -10.5 -53.5t-27.5 -46.5q20 -14 33 -41.5t13 -54.5v-11z" />
<glyph unicode="&#xbf;" horiz-adv-x="483" d="M180 172v-7q0 -30 19.5 -48.5t58.5 -18.5q84 0 148 35l46 -88q-85 -59 -199 -59q-101 0 -154.5 49.5t-53.5 127.5v14q0 59 23 98t72 88q40 39 55 63t15 59v28h128v-34q0 -48 -13 -82.5t-27.5 -51t-51.5 -50.5q-33 -30 -49.5 -58t-16.5 -65zM195 640q0 36 22 54.5t58 18.5 q35 0 56.5 -18.5t21.5 -54.5t-21.5 -55t-56.5 -19q-36 0 -58 19t-22 55z" />
<glyph unicode="&#xc0;" horiz-adv-x="605" d="M458 0l-43 123h-225l-43 -123h-148l243 605l-31 95h136l258 -700h-147zM304 443l-75 -211h148zM172 850l92 58l83 -149l-61 -39z" />
<glyph unicode="&#xc1;" horiz-adv-x="605" d="M458 0l-43 123h-225l-43 -123h-148l243 605l-31 95h136l258 -700h-147zM304 443l-75 -211h148zM264 765l83 149l92 -58l-114 -130z" />
<glyph unicode="&#xc2;" horiz-adv-x="605" d="M458 0l-43 123h-225l-43 -123h-148l243 605l-31 95h136l258 -700h-147zM173 761l79 106h101l79 -106l-88 -25l-42 67l-40 -67zM304 443l-75 -211h148z" />
<glyph unicode="&#xc3;" horiz-adv-x="605" d="M458 0l-43 123h-225l-43 -123h-148l243 605l-31 95h136l258 -700h-147zM196 742l-88 21q5 53 33 87t74 34q37 0 91.5 -23t66.5 -23q34 0 36 41l88 -20q-11 -121 -108 -121q-36 0 -87.5 22.5t-68.5 22.5q-37 0 -37 -41zM304 443l-75 -211h148z" />
<glyph unicode="&#xc4;" horiz-adv-x="605" d="M458 0l-43 123h-225l-43 -123h-148l243 605l-31 95h136l258 -700h-147zM426 747q-64 0 -64 72q0 75 64 75q66 0 66 -75q0 -72 -66 -72zM173 747q-64 0 -64 72q0 75 64 75q66 0 66 -75q0 -72 -66 -72zM304 443l-75 -211h148z" />
<glyph unicode="&#xc5;" horiz-adv-x="605" d="M458 0l-43 123h-225l-43 -123h-148l243 605l-31 95h136l258 -700h-147zM219 803v10q0 36 23 58t59 22q37 0 60.5 -22t23.5 -58v-10q0 -37 -23.5 -58t-60.5 -21q-36 0 -59 21t-23 58zM304 443l-75 -211h148zM301 772q32 0 32 35q0 37 -32 37q-30 0 -30 -37q0 -35 30 -35z " />
<glyph unicode="&#xc6;" horiz-adv-x="919" d="M-5 0l367 700h517v-119h-289v-206h240v-118h-240v-139h296v-118h-431v187h-208l-89 -187h-163zM300 305h155v281h-22z" />
<glyph unicode="&#xc7;" horiz-adv-x="581" d="M187 473v-246q0 -59 29.5 -91t79.5 -32q43 0 70.5 19.5t35.5 54.5l130 -28q-13 -67 -64 -109.5t-130 -52.5l-7 -21q60 -11 60 -63q0 -38 -32.5 -54.5t-77.5 -16.5q-33 0 -65 10l6 47q13 -5 33 -5q37 0 37 23q0 14 -15 20.5t-30 5.5h-15l22 54q-91 12 -146.5 73t-55.5 154 v271q0 103 68 165.5t176 62.5q95 0 158.5 -44.5t77.5 -119.5l-130 -28q-8 35 -35.5 54.5t-70.5 19.5q-50 0 -79.5 -32t-29.5 -91z" />
<glyph unicode="&#xc8;" horiz-adv-x="513" d="M57 0v700h417v-119h-283v-167h236v-117h-236v-179h290v-118h-424zM158 846l92 58l83 -149l-61 -39z" />
<glyph unicode="&#xc9;" horiz-adv-x="513" d="M57 0v700h417v-119h-283v-168h236v-114h-236v-181h290v-118h-424zM216 759l83 149l92 -58l-114 -130z" />
<glyph unicode="&#xca;" horiz-adv-x="513" d="M57 0v700h417v-119h-283v-167h236v-117h-236v-179h290v-118h-424zM140 761l79 106h101l79 -106l-88 -25l-42 67l-40 -67z" />
<glyph unicode="&#xcb;" horiz-adv-x="513" d="M141 747q-64 0 -64 72q0 75 64 75q33 0 50 -20t17 -55q0 -33 -17 -52.5t-50 -19.5zM377 747q-32 0 -48.5 19.5t-16.5 52.5q0 35 16.5 55t48.5 20q65 0 65 -75q0 -72 -65 -72zM57 0v700h417v-119h-283v-167h236v-117h-236v-179h290v-118h-424z" />
<glyph unicode="&#xcc;" horiz-adv-x="246" d="M57 0v700h134v-700h-134zM3 850l92 58l83 -149l-61 -39z" />
<glyph unicode="&#xcd;" horiz-adv-x="246" d="M57 0v700h134v-700h-134zM67 756l83 149l92 -58l-114 -130z" />
<glyph unicode="&#xce;" horiz-adv-x="246" d="M57 0v700h134v-700h-134zM-6 761l79 106h101l79 -106l-88 -25l-42 67l-40 -67z" />
<glyph unicode="&#xcf;" horiz-adv-x="246" d="M44 747q-63 0 -63 72q0 75 63 75t63 -75q0 -72 -63 -72zM57 0v700h134v-700h-134zM204 747q-61 0 -61 72q0 75 61 75q64 0 64 -75q0 -72 -64 -72z" />
<glyph unicode="&#xd0;" horiz-adv-x="597" d="M57 700h257q107 0 169.5 -61.5t62.5 -166.5v-244q0 -105 -64.5 -166.5t-178.5 -61.5q-137 0 -246 39v258h-48v108h48v295zM411 240v220q0 121 -97 121h-123v-176h128v-109h-128v-166q56 -14 112 -14q108 0 108 124z" />
<glyph unicode="&#xd1;" horiz-adv-x="618" d="M202 743l-88 21q5 53 33 87t74 34q37 0 91.5 -23t66.5 -23q34 0 36 41l88 -20q-11 -121 -108 -121q-36 0 -87.5 22.5t-68.5 22.5q-37 0 -37 -41zM57 0v700h121l255 -430l-4 430h134v-700h-124l-253 427l3 -427h-132z" />
<glyph unicode="&#xd2;" horiz-adv-x="611" d="M52 215v271q0 103 73 165.5t182 62.5q107 0 180 -62.5t73 -165.5v-271q0 -104 -73 -166.5t-180 -62.5q-109 0 -182 62.5t-73 166.5zM187 473v-246q0 -58 34 -90t86 -32q51 0 84.5 32t33.5 90v246q0 58 -33.5 90.5t-84.5 32.5q-52 0 -86 -32t-34 -91zM180 863l92 58 l83 -149l-61 -39z" />
<glyph unicode="&#xd3;" horiz-adv-x="611" d="M52 215v271q0 103 73 165.5t182 62.5q107 0 180 -62.5t73 -165.5v-271q0 -104 -73 -166.5t-180 -62.5q-109 0 -182 62.5t-73 166.5zM187 473v-246q0 -58 34 -90t86 -32q51 0 84.5 32t33.5 90v246q0 58 -33.5 90.5t-84.5 32.5q-52 0 -86 -32t-34 -91zM269 771l83 149 l92 -58l-114 -130z" />
<glyph unicode="&#xd4;" horiz-adv-x="611" d="M52 215v271q0 103 73 165.5t182 62.5q107 0 180 -62.5t73 -165.5v-271q0 -104 -73 -166.5t-180 -62.5q-109 0 -182 62.5t-73 166.5zM187 473v-246q0 -58 34 -90t86 -32q51 0 84.5 32t33.5 90v246q0 58 -33.5 90.5t-84.5 32.5q-52 0 -86 -32t-34 -91zM177 761l79 106h101 l79 -106l-88 -25l-42 67l-40 -67z" />
<glyph unicode="&#xd5;" horiz-adv-x="611" d="M52 215v271q0 103 73 165.5t182 62.5q107 0 180 -62.5t73 -165.5v-271q0 -104 -73 -166.5t-180 -62.5q-109 0 -182 62.5t-73 166.5zM187 473v-246q0 -58 34 -90t86 -32q51 0 84.5 32t33.5 90v246q0 58 -33.5 90.5t-84.5 32.5q-52 0 -86 -32t-34 -91zM201 743l-88 21 q5 53 33 87t74 34q37 0 91.5 -23t66.5 -23q34 0 36 41l88 -20q-11 -121 -108 -121q-36 0 -87.5 22.5t-68.5 22.5q-37 0 -37 -41z" />
<glyph unicode="&#xd6;" horiz-adv-x="615" d="M54 215v271q0 103 72.5 165.5t181.5 62.5q108 0 181 -62.5t73 -165.5v-271q0 -104 -73 -166.5t-181 -62.5q-109 0 -181.5 62.5t-72.5 166.5zM189 473v-246q0 -58 33.5 -90t85.5 -32t85.5 32t33.5 90v246q0 59 -33.5 91t-85.5 32t-85.5 -32t-33.5 -91zM424 747 q-63 0 -63 72q0 75 63 75q66 0 66 -75q0 -72 -66 -72zM189 747q-64 0 -64 72q0 75 64 75q66 0 66 -75q0 -72 -66 -72z" />
<glyph unicode="&#xd7;" horiz-adv-x="556" d="M38 109l163 168l-163 169l78 84l162 -169l163 169l77 -84l-163 -169l163 -168l-77 -84l-163 168l-162 -168z" />
<glyph unicode="&#xd8;" horiz-adv-x="611" d="M65 66l-62 109l49 40v270q0 103 73 166t182 63q71 0 127 -26.5t87 -76.5l27 23l59 -112l-47 -39v-268q0 -103 -73 -166t-180 -63q-71 0 -127.5 26.5t-88.5 75.5zM425 228v138l-230 -189q12 -35 42 -53.5t70 -18.5q51 0 84.5 32.5t33.5 90.5zM187 334l230 188 q-13 35 -42.5 54.5t-67.5 19.5q-52 0 -86 -33t-34 -91v-138z" />
<glyph unicode="&#xd9;" horiz-adv-x="596" d="M596 -2q-74 -16 -115.5 -2t-55.5 64q-68 -74 -173 -74q-103 0 -150.5 54.5t-47.5 163.5v496h136v-483q0 -60 22.5 -87.5t71.5 -27.5q38 0 71.5 19t51.5 48v531h135v-571q0 -29 16 -35t38 4v-100zM161 856l92 58l83 -149l-61 -39z" />
<glyph unicode="&#xda;" horiz-adv-x="596" d="M259 765l83 149l92 -58l-114 -130zM596 -2q-74 -16 -115.5 -2t-55.5 64q-68 -74 -173 -74q-103 0 -150.5 54.5t-47.5 163.5v496h136v-483q0 -60 22.5 -87.5t71.5 -27.5q38 0 71.5 19t51.5 48v531h135v-571q0 -29 16 -35t38 4v-100z" />
<glyph unicode="&#xdb;" horiz-adv-x="596" d="M171 761l79 106h101l79 -106l-88 -25l-42 67l-40 -67zM596 -2q-74 -16 -115.5 -2t-55.5 64q-68 -74 -173 -74q-103 0 -150.5 54.5t-47.5 163.5v496h136v-483q0 -60 22.5 -87.5t71.5 -27.5q38 0 71.5 19t51.5 48v531h135v-571q0 -29 16 -35t38 4v-100z" />
<glyph unicode="&#xdc;" horiz-adv-x="596" d="M596 -2q-74 -16 -115.5 -2t-55.5 64q-68 -74 -173 -74q-103 0 -150.5 54.5t-47.5 163.5v496h136v-483q0 -60 22.5 -87.5t71.5 -27.5q38 0 71.5 19t51.5 48v531h135v-571q0 -29 16 -35t38 4v-100zM178 744q-31 0 -47.5 19.5t-16.5 52.5q0 75 64 75q66 0 66 -75 q0 -72 -66 -72zM413 744q-63 0 -63 72q0 75 63 75q67 0 67 -75q0 -72 -67 -72z" />
<glyph unicode="&#xdd;" horiz-adv-x="561" d="M214 0v257l-214 443h148l135 -305l131 305h147l-212 -441v-259h-135zM237 765l83 149l92 -58l-114 -130z" />
<glyph unicode="&#xde;" horiz-adv-x="579" d="M57 0v700h134v-119h113q108 0 170 -56t62 -159v-32q0 -103 -62 -159t-170 -56h-113v-119h-134zM191 235h113q97 0 97 110v10q0 109 -97 109h-113v-229z" />
<glyph unicode="&#xdf;" horiz-adv-x="569" d="M60 0v350h-52v110h52v85q0 100 52 155.5t147 55.5q82 0 130.5 -38.5t47.5 -110.5q0 -32 -13 -62t-29 -48t-29 -41t-13 -44q0 -22 18 -44t43.5 -43.5t51 -46t43.5 -60t18 -76.5q0 -70 -47 -113t-144 -43q-55 0 -97 15l20 107q36 -10 67 -10t52 14t21 41q0 22 -17 43 t-41.5 40.5t-49 42t-41.5 55.5t-17 73q0 39 20.5 71.5t40.5 61t20 58.5q0 50 -58 50q-67 0 -67 -113v-535h-129z" />
<glyph unicode="&#xe0;" d="M542 -2q-137 -29 -167 52q-60 -60 -149 -60q-85 0 -127.5 55t-42.5 155v127q0 97 51 150t139 53q75 0 131 -37l17 27h92v-391q0 -50 56 -31v-100zM358 160v235q-45 24 -94 24q-38 0 -59 -25.5t-21 -76.5v-105q0 -57 16.5 -83.5t58.5 -26.5q28 0 55.5 16.5t43.5 41.5z M144 706l92 58l83 -149l-61 -39z" />
<glyph unicode="&#xe1;" d="M542 -2q-137 -29 -167 52q-60 -60 -149 -60q-85 0 -127.5 55t-42.5 155v127q0 97 51 150t139 53q75 0 131 -37l17 27h92v-391q0 -50 56 -31v-100zM358 160v235q-45 24 -94 24q-38 0 -59 -25.5t-21 -76.5v-105q0 -57 16.5 -83.5t58.5 -26.5q28 0 55.5 16.5t43.5 41.5z M238 615l83 149l92 -58l-114 -130z" />
<glyph unicode="&#xe2;" d="M163 601l79 106h101l79 -106l-88 -25l-42 67l-40 -67zM542 -2q-137 -29 -167 52q-60 -60 -149 -60q-85 0 -127.5 55t-42.5 155v127q0 97 51 150t139 53q75 0 131 -37l17 27h92v-391q0 -50 56 -31v-100zM358 160v235q-45 24 -94 24q-38 0 -59 -25.5t-21 -76.5v-105 q0 -57 16.5 -83.5t58.5 -26.5q28 0 55.5 16.5t43.5 41.5z" />
<glyph unicode="&#xe3;" d="M542 -2q-137 -29 -167 52q-60 -60 -149 -60q-85 0 -127.5 55t-42.5 155v127q0 97 51 150t139 53q75 0 131 -37l17 27h92v-391q0 -50 56 -31v-100zM358 160v235q-45 24 -94 24q-38 0 -59 -25.5t-21 -76.5v-105q0 -57 16.5 -83.5t58.5 -26.5q28 0 55.5 16.5t43.5 41.5z M179 593l-88 21q5 53 33 87t74 34q37 0 91.5 -23t66.5 -23q34 0 36 41l88 -20q-11 -121 -108 -121q-36 0 -87.5 22.5t-68.5 22.5q-37 0 -37 -41z" />
<glyph unicode="&#xe4;" d="M542 -2q-137 -29 -167 52q-60 -60 -149 -60q-85 0 -127.5 55t-42.5 155v127q0 97 51 150t139 53q75 0 131 -37l17 27h92v-391q0 -50 56 -31v-100zM358 160v235q-45 24 -94 24q-38 0 -59 -25.5t-21 -76.5v-105q0 -57 16.5 -83.5t58.5 -26.5q28 0 55.5 16.5t43.5 41.5z M152 607q-31 0 -47.5 19.5t-16.5 52.5q0 75 64 75q66 0 66 -75q0 -72 -66 -72zM387 607q-63 0 -63 72q0 75 63 75q67 0 67 -75q0 -72 -67 -72z" />
<glyph unicode="&#xe5;" horiz-adv-x="532" d="M195 683v10q0 36 23.5 58t58.5 22q38 0 61.5 -22t23.5 -58v-10q0 -37 -23.5 -58t-61.5 -21q-36 0 -59 21t-23 58zM277 652q33 0 33 35q0 37 -33 37q-30 0 -30 -37q0 -35 30 -35zM542 -2q-137 -29 -167 52q-60 -60 -149 -60q-85 0 -127.5 55t-42.5 155v127q0 97 51 150 t139 53q75 0 131 -37l17 27h92v-391q0 -50 56 -31v-100zM358 160v235q-45 24 -94 24q-38 0 -59 -25.5t-21 -76.5v-105q0 -57 16.5 -83.5t58.5 -26.5q28 0 55.5 16.5t43.5 41.5z" />
<glyph unicode="&#xe6;" horiz-adv-x="1084" d="M793 219h-307v-14q0 -106 91 -106q71 0 152 44l48 -89q-91 -64 -202 -64q-119 0 -175 78q-80 -78 -175 -78q-85 0 -127 54.5t-42 155.5v127q0 98 51 150.5t139 52.5q94 0 172 -56q56 56 157 56t159.5 -56.5t58.5 -155.5v-99zM357 160v235q-43 24 -93 24q-38 0 -59 -25.5 t-21 -76.5v-105q0 -57 16.5 -83.5t58.5 -26.5q28 0 55 16.5t43 41.5zM664 314q0 107 -89 107q-91 0 -91 -107v-8h180v8z" />
<glyph unicode="&#xe7;" horiz-adv-x="530" d="M426 143l47 -89q-73 -51 -157 -62l-9 -25q61 -11 61 -63q0 -38 -32.5 -54.5t-77.5 -16.5q-33 0 -65 10l6 47q13 -5 33 -5q36 0 36 23q0 14 -15 20.5t-30 5.5h-15l24 58q-84 11 -131 66.5t-47 143.5v116q0 99 58 155.5t159 56.5q112 0 202 -64l-48 -88q-76 42 -149 42 q-93 0 -93 -113v-94q0 -112 93 -112q72 0 150 42z" />
<glyph unicode="&#xe8;" horiz-adv-x="540" d="M181 306h180v8q0 107 -89 107q-91 0 -91 -107v-8zM474 54q-93 -64 -202 -64q-101 0 -159.5 56.5t-58.5 154.5v117q0 99 58.5 155.5t159.5 56.5t159 -56.5t58 -155.5v-99h-306v-14q0 -106 91 -106q71 0 152 44zM136 706l92 58l83 -149l-61 -39z" />
<glyph unicode="&#xe9;" horiz-adv-x="540" d="M236 615l83 149l92 -58l-114 -130zM181 306h180v8q0 107 -89 107q-91 0 -91 -107v-8zM474 54q-93 -64 -202 -64q-101 0 -159.5 56.5t-58.5 154.5v117q0 99 58.5 155.5t159.5 56.5t159 -56.5t58 -155.5v-99h-306v-14q0 -106 91 -106q71 0 152 44z" />
<glyph unicode="&#xea;" horiz-adv-x="540" d="M146 611l79 106h101l79 -106l-88 -25l-42 67l-40 -67zM181 306h180v8q0 107 -89 107q-91 0 -91 -107v-8zM474 54q-93 -64 -202 -64q-101 0 -159.5 56.5t-58.5 154.5v117q0 99 58.5 155.5t159.5 56.5t159 -56.5t58 -155.5v-99h-306v-14q0 -106 91 -106q71 0 152 44z" />
<glyph unicode="&#xeb;" horiz-adv-x="540" d="M154 607q-64 0 -64 72q0 75 64 75q66 0 66 -75q0 -72 -66 -72zM389 607q-31 0 -47.5 19.5t-16.5 52.5q0 35 16.5 55t47.5 20q33 0 50 -20t17 -55q0 -33 -17 -52.5t-50 -19.5zM181 306h180v8q0 107 -89 107q-91 0 -91 -107v-8zM474 54q-93 -64 -202 -64 q-101 0 -159.5 56.5t-58.5 154.5v117q0 99 58.5 155.5t159.5 56.5t159 -56.5t58 -155.5v-99h-306v-14q0 -106 91 -106q71 0 152 44z" />
<glyph unicode="&#xec;" horiz-adv-x="246" d="M60 520h128v-520h-129zM-4 706l92 58l83 -149l-61 -39z" />
<glyph unicode="&#xed;" horiz-adv-x="246" d="M80 615l83 149l92 -58l-114 -130zM60 520h128v-520h-129z" />
<glyph unicode="&#xee;" horiz-adv-x="246" d="M-5 611l79 106h101l79 -106l-88 -25l-42 67l-40 -67zM60 520h128v-520h-129z" />
<glyph unicode="&#xef;" horiz-adv-x="246" d="M39 615q-28 0 -43 17.5t-15 46.5q0 31 15 49t43 18q29 0 44 -18t15 -49q0 -29 -15.5 -46.5t-43.5 -17.5zM193 615q-28 0 -43 17.5t-15 46.5q0 31 15 49t43 18t43 -18t15 -49q0 -29 -15 -46.5t-43 -17.5zM60 520h128v-520h-129z" />
<glyph unicode="&#xf0;" horiz-adv-x="536" d="M54 184v151q0 186 185 186q70 0 121 -36v21q0 34 -12 59l-46 -36l-48 63l34 27q-22 11 -53 11t-58 -9l-24 99q47 15 91 15q81 0 135 -33l63 50l46 -64l-46 -38q40 -51 40 -126v-329q0 -98 -56 -151.5t-163 -53.5q-95 0 -152 50t-57 144zM170 303v-87q0 -65 22.5 -94.5 t72.5 -29.5q49 0 72 29.5t23 94.5v160q-40 43 -104 43q-47 0 -66.5 -27t-19.5 -89z" />
<glyph unicode="&#xf1;" horiz-adv-x="543" d="M167 593l-88 21q5 53 33 87t74 34q37 0 91.5 -23t66.5 -23q34 0 36 41l88 -20q-11 -121 -108 -121q-36 0 -87.5 22.5t-68.5 22.5q-37 0 -37 -41zM461 -10q-51 0 -77.5 22t-26.5 74v241q0 47 -16.5 68t-56.5 21q-53 0 -96 -54v-362h-128v520h111l11 -49q25 26 62.5 42.5 t73.5 16.5q88 0 127.5 -48.5t39.5 -141.5v-215q0 -32 29 -32q10 0 27 5l-1 -100q-46 -8 -79 -8z" />
<glyph unicode="&#xf2;" horiz-adv-x="542" d="M147 706l92 58l83 -149l-61 -39zM183 308l-1 -96q0 -111 90 -111q89 0 89 111v96q0 111 -89 111t-89 -111zM54 201v118q0 98 58.5 154.5t159.5 56.5t159 -56.5t58 -154.5v-118q1 -98 -57.5 -154.5t-159.5 -56.5t-159.5 56.5t-58.5 154.5z" />
<glyph unicode="&#xf3;" horiz-adv-x="542" d="M237 615l83 149l92 -58l-114 -130zM183 308l-1 -96q0 -111 90 -111q89 0 89 111v96q0 111 -89 111t-89 -111zM54 201v118q0 98 58.5 154.5t159.5 56.5t159 -56.5t58 -154.5v-118q1 -98 -57.5 -154.5t-159.5 -56.5t-159.5 56.5t-58.5 154.5z" />
<glyph unicode="&#xf4;" horiz-adv-x="542" d="M141 611l79 106h101l79 -106l-88 -25l-42 67l-40 -67zM183 308l-1 -96q0 -111 90 -111q89 0 89 111v96q0 111 -89 111t-89 -111zM54 201v118q0 98 58.5 154.5t159.5 56.5t159 -56.5t58 -154.5v-118q1 -98 -57.5 -154.5t-159.5 -56.5t-159.5 56.5t-58.5 154.5z" />
<glyph unicode="&#xf5;" horiz-adv-x="542" d="M183 308l-1 -96q0 -111 90 -111q89 0 89 111v96q0 111 -89 111t-89 -111zM54 201v118q0 98 58.5 154.5t159.5 56.5t159 -56.5t58 -154.5v-118q1 -98 -57.5 -154.5t-159.5 -56.5t-159.5 56.5t-58.5 154.5zM164 593l-88 21q5 53 33 87t74 34q37 0 91.5 -23t66.5 -23 q34 0 36 41l88 -20q-11 -121 -108 -121q-36 0 -87.5 22.5t-68.5 22.5q-37 0 -37 -41z" />
<glyph unicode="&#xf6;" horiz-adv-x="542" d="M152 607q-32 0 -48 19.5t-16 52.5q0 35 16.5 55t47.5 20q33 0 50 -20t17 -55q0 -33 -17 -52.5t-50 -19.5zM387 607q-31 0 -47 19.5t-16 52.5q0 35 16 55t47 20q67 0 67 -75q0 -72 -67 -72zM183 308l-1 -96q0 -111 90 -111q89 0 89 111v96q0 111 -89 111t-89 -111zM54 201 v118q0 98 58.5 154.5t159.5 56.5t159 -56.5t58 -154.5v-118q1 -98 -57.5 -154.5t-159.5 -56.5t-159.5 56.5t-58.5 154.5z" />
<glyph unicode="&#xf7;" horiz-adv-x="559" d="M273 -10q-73 0 -73 73q0 75 73 75q35 0 55 -18.5t20 -56.5q0 -36 -20.5 -54.5t-54.5 -18.5zM273 422q-34 0 -53.5 18t-19.5 54q0 76 73 76q35 0 55 -19t20 -57q0 -36 -20.5 -54t-54.5 -18zM42 223v114h475v-114h-475z" />
<glyph unicode="&#xf8;" horiz-adv-x="542" d="M489 319v-118q0 -98 -58 -154.5t-159 -56.5q-102 0 -157 57l-35 -29l-73 98l50 42q-3 21 -3 43v118q0 98 58.5 154.5t159.5 56.5q102 0 159 -59l35 29l69 -98l-49 -41q3 -21 3 -42zM183 308v-45l152 128q-21 28 -63 28q-89 0 -89 -111zM361 212v43l-151 -127 q21 -27 62 -27q89 0 89 111z" />
<glyph unicode="&#xf9;" horiz-adv-x="531" d="M214 -10q-83 0 -120.5 47.5t-37.5 147.5v335h128v-330q0 -47 14 -67.5t50 -20.5q28 0 55 16.5t43 41.5v360h129v-391q0 -50 55 -31v-100q-74 -15 -112.5 -2t-53.5 54q-62 -60 -150 -60zM151 706l92 58l83 -149l-61 -39z" />
<glyph unicode="&#xfa;" horiz-adv-x="531" d="M227 615l83 149l92 -58l-114 -130zM214 -10q-83 0 -120.5 47.5t-37.5 147.5v335h128v-330q0 -47 14 -67.5t50 -20.5q28 0 55 16.5t43 41.5v360h129v-391q0 -50 55 -31v-100q-74 -15 -112.5 -2t-53.5 54q-62 -60 -150 -60z" />
<glyph unicode="&#xfb;" horiz-adv-x="531" d="M135 611l79 106h101l79 -106l-88 -25l-42 67l-40 -67zM214 -10q-83 0 -120.5 47.5t-37.5 147.5v335h128v-330q0 -47 14 -67.5t50 -20.5q28 0 55 16.5t43 41.5v360h129v-391q0 -50 55 -31v-100q-74 -15 -112.5 -2t-53.5 54q-62 -60 -150 -60z" />
<glyph unicode="&#xfc;" horiz-adv-x="532" d="M147 607q-31 0 -47.5 19.5t-16.5 52.5q0 75 64 75q66 0 66 -75q0 -72 -66 -72zM382 607q-63 0 -63 72q0 75 63 75q67 0 67 -75q0 -72 -67 -72zM214 -10q-83 0 -120.5 47.5t-37.5 147.5v335h128v-330q0 -47 14 -67.5t50 -20.5q28 0 55 16.5t43 41.5v360h129v-391 q0 -50 55 -31v-100q-74 -15 -112.5 -2t-53.5 54q-62 -60 -150 -60z" />
<glyph unicode="&#xfd;" horiz-adv-x="537" d="M98 -13q81 -38 163 -38q96 0 96 93v63q-56 -59 -143 -59q-81 0 -119 40t-38 129v305h129v-273q-1 -47 14.5 -66.5t55.5 -19.5q56 0 95 47v312h128v-488q0 -94 -53.5 -143t-154.5 -49q-121 0 -211 55zM225 615l83 149l92 -58l-114 -130z" />
<glyph unicode="&#xfe;" horiz-adv-x="546" d="M188 403v-286q37 -16 89 -16q85 0 85 103l1 154q0 52 -17.5 75t-58.5 23q-55 0 -99 -53zM60 -150v900h128v-233q57 53 128 53q92 0 133.5 -50t41.5 -152v-177q0 -91 -53 -146t-147 -55q-62 0 -103 17v-157h-128z" />
<glyph unicode="&#xff;" horiz-adv-x="537" d="M98 -13q81 -38 163 -38q96 0 96 93v63q-56 -59 -143 -59q-81 0 -119 40t-38 129v305h129v-273q-1 -47 14.5 -66.5t55.5 -19.5q56 0 95 47v312h128v-488q0 -94 -53.5 -143t-154.5 -49q-121 0 -211 55zM152 607q-31 0 -47.5 19.5t-16.5 52.5q0 75 64 75q66 0 66 -75 q0 -72 -66 -72zM387 607q-63 0 -63 72q0 75 63 75q67 0 67 -75q0 -72 -67 -72z" />
<glyph unicode="&#x152;" horiz-adv-x="850" d="M54 215v270q0 105 63.5 167t170.5 62q33 0 68 -12t53 -32v30h401v-119h-266v-167h217v-117h-217v-179h273v-118h-408v28q-43 -42 -121 -42q-107 0 -170.5 62t-63.5 167zM189 473v-246q0 -59 30 -90.5t80 -31.5q48 0 79 32t31 88v250q0 56 -31 88.5t-79 32.5 q-50 0 -80 -32t-30 -91z" />
<glyph unicode="&#x153;" horiz-adv-x="846" d="M54 201v118q0 98 58.5 154.5t159.5 56.5q96 0 153 -60q55 60 153 60q101 0 159.5 -56.5t58.5 -155.5v-101h-306l-1 -20q0 -98 91 -98q72 0 153 44l47 -89q-91 -64 -202 -64q-50 0 -91 17.5t-62 47.5q-48 -65 -153 -65q-101 0 -159.5 56.5t-58.5 154.5zM183 308v-95 q-2 -112 89 -112q46 0 67.5 31t21.5 72v104q0 111 -89 111t-89 -111zM667 305v13q2 103 -88 103t-90 -102v-14h178z" />
<glyph unicode="&#x178;" horiz-adv-x="561" d="M214 0v257l-214 443h148l135 -305l131 305h147l-212 -441v-259h-135zM164 744q-31 0 -47.5 19.5t-16.5 52.5q0 75 64 75q66 0 66 -75q0 -72 -66 -72zM399 744q-63 0 -63 72q0 75 63 75q67 0 67 -75q0 -72 -67 -72z" />
<glyph unicode="&#x2c6;" horiz-adv-x="380" d="M61 611l79 106h101l79 -106l-88 -25l-42 67l-40 -67z" />
<glyph unicode="&#x2dc;" horiz-adv-x="468" d="M128 593l-88 21q5 53 33 87t74 34q37 0 91.5 -23t66.5 -23q34 0 36 41l88 -20q-11 -121 -108 -121q-36 0 -87.5 22.5t-68.5 22.5q-37 0 -37 -41z" />
<glyph unicode="&#x2000;" horiz-adv-x="460" />
<glyph unicode="&#x2001;" horiz-adv-x="921" />
<glyph unicode="&#x2002;" horiz-adv-x="460" />
<glyph unicode="&#x2003;" horiz-adv-x="921" />
<glyph unicode="&#x2004;" horiz-adv-x="307" />
<glyph unicode="&#x2005;" horiz-adv-x="230" />
<glyph unicode="&#x2006;" horiz-adv-x="153" />
<glyph unicode="&#x2007;" horiz-adv-x="153" />
<glyph unicode="&#x2008;" horiz-adv-x="115" />
<glyph unicode="&#x2009;" horiz-adv-x="184" />
<glyph unicode="&#x200a;" horiz-adv-x="51" />
<glyph unicode="&#x2010;" horiz-adv-x="395" d="M46 244v114h303v-114h-303z" />
<glyph unicode="&#x2011;" horiz-adv-x="395" d="M46 244v114h303v-114h-303z" />
<glyph unicode="&#x2012;" horiz-adv-x="395" d="M46 244v114h303v-114h-303z" />
<glyph unicode="&#x2013;" horiz-adv-x="495" d="M8 244v114h481v-114h-481z" />
<glyph unicode="&#x2014;" horiz-adv-x="793" d="M8 244v114h779v-114h-779z" />
<glyph unicode="&#x2018;" horiz-adv-x="230" d="M201 565l-27 -55q-75 21 -109.5 68t-34.5 97q0 35 22.5 54t57.5 19q34 0 56 -18.5t22 -54.5q0 -41 -32 -60q5 -28 45 -50z" />
<glyph unicode="&#x2019;" horiz-adv-x="230" d="M55 510l-27 55q40 22 45 50q-32 19 -32 60q0 36 22 54.5t56 18.5q35 0 57.5 -19t22.5 -54q0 -50 -34.5 -97t-109.5 -68z" />
<glyph unicode="&#x201a;" horiz-adv-x="230" d="M55 -104l-27 55q40 22 45 50q-32 19 -32 60q0 36 22 54.5t56 18.5q35 0 57.5 -19t22.5 -54q0 -50 -34.5 -97t-109.5 -68z" />
<glyph unicode="&#x201c;" horiz-adv-x="419" d="M201 565l-27 -55q-75 21 -109.5 68t-34.5 97q0 35 22.5 54t57.5 19q34 0 56 -18.5t22 -54.5q0 -41 -32 -60q5 -28 45 -50zM391 565l-27 -55q-75 21 -109.5 68t-34.5 97q0 35 22.5 54t57.5 19q34 0 56 -18.5t22 -54.5q0 -41 -32 -60q5 -28 45 -50z" />
<glyph unicode="&#x201d;" horiz-adv-x="419" d="M244 510l-27 55q40 22 45 50q-32 19 -32 60q0 36 22 54.5t56 18.5q35 0 57.5 -19t22.5 -54q0 -50 -34.5 -97t-109.5 -68zM55 510l-27 55q40 22 45 50q-32 19 -32 60q0 36 22 54.5t56 18.5q35 0 57.5 -19t22.5 -54q0 -50 -34.5 -97t-109.5 -68z" />
<glyph unicode="&#x201e;" horiz-adv-x="419" d="M244 -104l-27 55q40 22 45 50q-32 19 -32 60q0 36 22 54.5t56 18.5q35 0 57.5 -19t22.5 -54q0 -50 -34.5 -97t-109.5 -68zM55 -104l-27 55q40 22 45 50q-32 19 -32 60q0 36 22 54.5t56 18.5q35 0 57.5 -19t22.5 -54q0 -50 -34.5 -97t-109.5 -68z" />
<glyph unicode="&#x2022;" horiz-adv-x="428" d="M212 155q-74 0 -117 42.5t-43 124.5q0 87 42.5 130.5t117.5 43.5q77 0 121 -43.5t44 -130.5q0 -82 -44.5 -124.5t-120.5 -42.5z" />
<glyph unicode="&#x2026;" horiz-adv-x="613" d="M385 60q0 -36 -22 -54.5t-58 -18.5q-35 0 -56.5 18.5t-21.5 54.5t21.5 55t56.5 19q36 0 58 -19t22 -55zM580 60q0 -36 -22 -54.5t-58 -18.5q-35 0 -56.5 18.5t-21.5 54.5t21.5 55t56.5 19q36 0 58 -19t22 -55zM190 60q0 -36 -22 -54.5t-58 -18.5q-35 0 -56.5 18.5 t-21.5 54.5t21.5 55t56.5 19q36 0 58 -19t22 -55z" />
<glyph unicode="&#x202f;" horiz-adv-x="184" />
<glyph unicode="&#x2039;" horiz-adv-x="284" d="M143 279l112 -116l-57 -76l-153 153v78l153 154l57 -76z" />
<glyph unicode="&#x203a;" horiz-adv-x="284" d="M88 87l-58 76l112 116l-112 117l58 76l152 -154v-78z" />
<glyph unicode="&#x205f;" horiz-adv-x="230" />
<glyph unicode="&#x2122;" horiz-adv-x="883" d="M397 234v467h96l126 -225l122 225h100v-467h-101l2 262l-84 -148h-80l-83 146l1 -260h-99zM152 234v377h-119v90h336v-90h-117v-377h-100z" />
<glyph unicode="&#x25fc;" horiz-adv-x="520" d="M0 520h520v-520h-520v520z" />
<glyph unicode="&#xfb01;" horiz-adv-x="531" d="M60 0v410h-52v110h52v85q0 83 50 117t147 34q94 0 183 -33l-26 -94q-76 21 -154 21q-70 0 -70 -49v-81h279v-520h-128v410h-152v-410h-129z" />
<glyph unicode="&#xfb02;" horiz-adv-x="532" d="M60 0v416h-52v104h52v54q0 182 203 182q112 0 210 -64v-692h-129v632q-30 13 -72 13q-83 0 -83 -68v-57h108v-104h-108v-416h-129z" />
<glyph unicode="&#xfb03;" horiz-adv-x="787" d="M60 0v416h-52v104h52v23q0 96 43.5 147.5t129.5 51.5q35 0 74.5 -13t64.5 -33q49 64 154 64q91 0 176 -33l-21 -84q-70 18 -128 18q-46 0 -67.5 -28.5t-22.5 -90.5v-22h266v-520h-128l-1 416h-138l-1 -416h-128v416h-144v-416h-129zM189 520h144v13q0 55 9 80 q-40 26 -78 26q-42 0 -58.5 -24t-16.5 -81v-14z" />
<glyph unicode="&#xfb04;" horiz-adv-x="803" d="M60 0v416h-52v104h52v35q1 98 45.5 142.5t136.5 44.5q69 0 138 -45q54 63 156 63q103 0 208 -64v-696h-129v635q-33 14 -70 14q-43 0 -63 -25t-20 -79v-25h107v-104h-107v-416h-129v416h-144v-416h-129zM189 520h144v35q0 36 8 52q-39 24 -86 24q-35 0 -50.5 -19.5 t-15.5 -64.5v-27z" />
</font>
</defs>
</svg>
