<?xml version="1.0" encoding="UTF-8"?> <svg xmlns="http://www.w3.org/2000/svg" id="entrepreneur-360" width="216" height="216" viewBox="0 0 216 216"><defs><style>.cls-1{fill:#292663;}</style></defs><g><path class="cls-1" d="M92.28,122.64c.03,2.01-.31,4-1,5.89-.64,1.72-1.61,3.3-2.86,4.64-1.25,1.31-2.77,2.33-4.46,3-1.83,.72-3.78,1.08-5.75,1.06-3.29,.11-6.52-.86-9.2-2.76-2.62-2.04-4.44-4.95-5.11-8.21l7.22-1.91c.42,1.59,1.26,3.03,2.42,4.19,2.02,1.74,4.87,2.1,7.26,.93,.79-.46,1.47-1.07,2-1.81,.55-.76,.96-1.62,1.2-2.53,.25-.92,.38-1.87,.38-2.82,.16-2.18-.64-4.32-2.18-5.86-1.56-1.36-3.58-2.08-5.65-2h-2v-6.33h2.25c1.84,.07,3.62-.66,4.87-2,1.27-1.52,1.92-3.46,1.8-5.44,0-.8-.1-1.59-.3-2.36-.19-.77-.53-1.5-1-2.15-.46-.65-1.07-1.19-1.77-1.58-.81-.42-1.71-.63-2.62-.59-1.24-.03-2.44,.44-3.34,1.3-.94,.91-1.67,2.03-2.11,3.27l-7.08-2c.48-1.57,1.24-3.03,2.24-4.33,.89-1.17,1.97-2.19,3.2-3,1.15-.75,2.41-1.32,3.74-1.69,1.29-.35,2.62-.54,3.95-.54,1.7-.02,3.4,.28,5,.86,1.52,.54,2.91,1.39,4.09,2.48,1.2,1.12,2.15,2.49,2.79,4,.7,1.7,1.04,3.52,1,5.35,.06,2.51-.58,4.98-1.84,7.15-1.11,1.99-2.98,3.43-5.18,4v.2c2.4,.6,4.48,2.07,5.86,4.12,1.49,2.2,2.25,4.81,2.18,7.47Z"></path><path class="cls-1" d="M125.4,122.12c.04,2.88-.4,5.75-1.32,8.48-.79,2.34-2.03,4.5-3.64,6.37-1.52,1.73-3.41,3.1-5.53,4-2.22,.92-4.6,1.38-7,1.36-2.44,.03-4.86-.43-7.11-1.36-2.12-.9-4.02-2.25-5.55-3.97-1.61-1.83-2.83-3.98-3.59-6.3-.89-2.7-1.32-5.52-1.28-8.36-.03-3.05,.4-6.08,1.28-9,.86-2.8,1.98-5.51,3.34-8.11l11.6-22.68h10.84l-11.94,22.35,.09,.08c.68-.59,1.48-1.01,2.35-1.24,.9-.26,1.83-.4,2.76-.41,1.91,0,3.81,.38,5.57,1.12,1.81,.76,3.42,1.92,4.71,3.4,1.46,1.71,2.55,3.69,3.22,5.83,.85,2.73,1.26,5.58,1.2,8.44Zm-9.35-.09c.11-2.94-.58-5.86-2-8.44-1.21-2.15-3.53-3.43-6-3.31-1.2-.02-2.37,.29-3.4,.91-1.03,.65-1.9,1.51-2.56,2.53-.76,1.15-1.32,2.42-1.66,3.76-.4,1.54-.6,3.13-.58,4.72-.15,3.03,.6,6.04,2.14,8.65,1.27,2.09,3.56,3.34,6,3.27,2.44,.06,4.71-1.23,5.92-3.35,1.53-2.66,2.27-5.7,2.14-8.77v.03Z"></path><path class="cls-1" d="M152.12,112.16c-.01,2.87-.2,5.74-.58,8.58-.34,2.79-1.08,5.52-2.18,8.1-.99,2.33-2.52,4.38-4.46,6-2.09,1.63-4.7,2.46-7.35,2.35-2.64,.12-5.24-.71-7.32-2.35-1.93-1.62-3.46-3.68-4.46-6-1.13-2.58-1.87-5.31-2.21-8.1-.77-5.69-.77-11.47,0-17.16,.34-2.8,1.08-5.53,2.21-8.11,1-2.32,2.53-4.38,4.46-6,2.08-1.64,4.68-2.47,7.32-2.35,2.65-.11,5.26,.72,7.35,2.35,1.95,1.61,3.48,3.67,4.46,6,1.1,2.59,1.84,5.32,2.18,8.11,.38,2.84,.57,5.71,.58,8.58Zm-8.24,0c0-1.64-.07-3.49-.2-5.55-.12-1.95-.4-3.89-.85-5.79-.37-1.62-1.01-3.16-1.91-4.56-1.19-1.86-3.66-2.41-5.52-1.23-.49,.31-.91,.73-1.23,1.23-.9,1.39-1.54,2.94-1.9,4.56-.45,1.9-.73,3.84-.85,5.79-.14,2.06-.21,3.92-.21,5.55s.07,3.48,.21,5.55c.12,1.96,.4,3.91,.85,5.82,.35,1.62,.99,3.17,1.9,4.56,1.19,1.86,3.66,2.41,5.52,1.23,.49-.31,.91-.73,1.23-1.23,.91-1.39,1.56-2.93,1.91-4.56,.44-1.91,.73-3.86,.85-5.82,.13-2.07,.2-3.92,.2-5.55h0Z"></path></g><g><path class="cls-1" d="M70.12,59.63c-.72-.09-1.24-.75-1.15-1.47,.05-.36,.24-.69,.54-.91,.28-.23,.64-.32,1-.26,.35,.04,.66,.23,.87,.51,.23,.28,.32,.64,.26,1-.04,.36-.23,.68-.52,.89-.29,.21-.65,.3-1,.24Z"></path><path class="cls-1" d="M85.93,52.87s-.05-.04-.06-.07l-2-5.08s-.02-.07,0-.1c.01-.03,.04-.05,.07-.06l.5-.2h.1s.05,.04,.06,.07l2,5.09s0,.06,0,.09c-.02,.03-.04,.05-.07,.07l-.51,.19s-.06,.01-.09,0Z"></path><path class="cls-1" d="M89.08,51.68s-.01-.05,0-.07l-1.56-5.23s-.01-.07,0-.1c.02-.03,.05-.05,.08-.06l.5-.14s.11-.03,.16,0l3.54,3.15h0l-1.13-3.81s-.01-.07,0-.1c.02-.03,.05-.05,.08-.06l.52-.15s.07-.01,.1,0c.01,.02,.01,.05,0,.07l1.63,5.24s.01,.07,0,.1c-.02,.03-.05,.05-.08,.06l-.5,.15s-.11,.03-.16,0l-3.55-3.18h0l1.16,3.83s.02,.07,0,.1c-.01,.03-.04,.05-.07,.06l-.52,.15c-.05,.05-.13,.06-.18,0l-.02-.02Z"></path><path class="cls-1" d="M95.4,49.94l-.05-.08-1-5.37v-.09s.05-.01,.08,0l.51-.09c.06-.02,.12,0,.16,.05l3.18,3.52h0s0-.03,0-.05l-.71-3.91c-.02-.06,.02-.12,.08-.14,0,0,.02,0,.02,0l.53-.1s.06-.01,.09,0c.01,.03,.01,.05,0,.08l1,5.37s.02,.06,0,.09c-.03,.01-.05,.01-.08,0l-.52,.1c-.06,.01-.12-.01-.16-.06l-3.18-3.55h0l.72,3.94s.01,.06,0,.09c-.03,0-.05,0-.08,0l-.54,.09s-.02,.08-.05,.11Z"></path><path class="cls-1" d="M102.72,48.71c-.31-.14-.57-.36-.75-.64-.2-.3-.31-.64-.32-1l-.14-1.93c-.03-.34,.03-.69,.18-1,.14-.3,.37-.56,.66-.73,.3-.18,.65-.29,1-.32,.37-.03,.73,.02,1.07,.17,.31,.13,.57,.35,.76,.63,.19,.3,.3,.64,.32,1l.14,1.93c.03,.34-.03,.69-.18,1-.14,.3-.37,.56-.66,.73-.3,.19-.64,.31-1,.33-.37,.03-.74-.03-1.08-.17Zm1.89-.91c.21-.26,.31-.6,.28-.93l-.14-2c0-.34-.15-.66-.4-.89-.25-.22-.59-.32-.92-.28-.33,0-.65,.16-.87,.41-.22,.26-.31,.6-.27,.94l.14,2c.01,.33,.16,.65,.4,.88,.25,.21,.58,.31,.91,.28,.33-.01,.65-.16,.87-.41Z"></path><path class="cls-1" d="M109.39,48.57l-1.56-5.52h0c0-.06,0-.09,.11-.08h.58s.07-.01,.1,0c0,.03,0,.05,0,.08l1.2,4.48h0l1.46-4.4s-.01-.05,0-.08h.65c.1,0,.14,0,.11,.14l-1.91,5.41c-.02,.06-.08,.1-.14,.09h-.6s-.02-.08,0-.12Z"></path><path class="cls-1" d="M116.8,49.2l-.16-.94h0l-2.25-.28h0l-.4,.87c-.02,.06-.09,.09-.15,.08l-.57-.07c-.1,0-.12-.07-.08-.15l2.42-5.21c.02-.06,.09-.09,.15-.07l.74,.09c.06,0,.12,.05,.13,.11l1.08,5.65h0s0,.08-.12,.07l-.58-.07c-.08,.03-.17,0-.21-.08Zm-2.18-1.86l1.85,.23h0l-.47-3.17h0l-1.31,2.9s-.1,.04-.07,.04Z"></path><path class="cls-1" d="M124,45s.01,.07,0,.1l-.1,.42s-.03,.07-.05,.09c-.03,.01-.07,.01-.1,0l-1.47-.33h0l-1,4.75s0,.05,0,.08c-.03,.01-.07,.01-.1,0l-.53-.11s-.05,0-.07,0c0-.03,0-.06,0-.09l1-4.75h0l-1.58-.41s-.05,.01-.08,0v-.09l.1-.43s0-.05,0-.08c.03-.01,.06-.01,.09,0l3.73,.83s.16-.06,.16,.02Z"></path><path class="cls-1" d="M125,51.09v-.09l1.58-5.23s.03-.06,.06-.08h.1l.52,.16s.05,0,.07,0c.02,.03,.02,.07,0,.1l-1.58,5.23s-.03,.06-.06,.08c-.03,.01-.07,.01-.1,0l-.51-.15s-.08,.01-.08-.02Z"></path><path class="cls-1" d="M129,52.27c-.22-.26-.36-.57-.41-.9-.03-.34,.01-.68,.14-1l.71-1.8c.12-.34,.33-.63,.61-.85,.26-.21,.58-.34,.91-.38,.75-.08,1.5,.21,2,.77,.21,.25,.35,.56,.41,.89,.04,.34,0,.68-.14,1l-.71,1.8c-.12,.34-.33,.63-.61,.86-.26,.22-.58,.35-.91,.39-.36,.03-.73-.02-1.07-.16-.36-.12-.68-.34-.93-.62Zm2.1,0c.3-.14,.54-.4,.65-.71l.72-1.84c.14-.32,.14-.68,0-1-.14-.31-.39-.54-.71-.65-.32-.15-.68-.15-1,0-.3,.15-.54,.41-.65,.73l-.72,1.84c-.14,.32-.14,.68,0,1,.14,.3,.4,.53,.71,.64,.31,.13,.66,.12,.96-.02h.04Z"></path><path class="cls-1" d="M134,54.53s-.01-.07,0-.1l2.54-4.83s.04-.06,.07-.07c.03,0,.06,0,.09,0l.46,.24c.06,.02,.09,.08,.09,.14l.34,4.73h0l1.85-3.52s.04-.05,.07-.06c.03-.01,.07-.01,.1,0l.47,.25s.06,.04,.07,.07c0,.03,0,.07,0,.1l-2.53,4.84s-.04,.05-.07,.06c-.03,.01-.07,.01-.1,0l-.47-.25c-.05-.03-.09-.08-.09-.14l-.32-4.75h0l-1.85,3.55s0,.06-.07,.06c-.03,.01-.07,.01-.1,0l-.47-.25s-.06-.04-.08-.07Z"></path><path class="cls-1" d="M150.54,63.59c-.02-.37,.12-.74,.39-1,.25-.25,.59-.4,.94-.39,.73,.01,1.32,.59,1.35,1.32,0,.35-.13,.69-.38,.94-.24,.26-.58,.41-.94,.41-.35,0-.69-.13-.94-.38-.26-.23-.41-.55-.42-.9Z"></path><path class="cls-1" d="M160,78.8c0-.33,.08-.65,.25-.93,.18-.29,.44-.52,.74-.68l1.84-1c.3-.18,.65-.26,1-.25,.33,.01,.64,.12,.91,.3,.29,.21,.53,.48,.7,.8,.18,.31,.28,.65,.3,1,0,.32-.07,.63-.23,.91-.16,.28-.39,.51-.68,.65h0s-.07,.02-.1,0c-.03-.01-.05-.03-.07-.06l-.26-.47s0-.06,0-.09c0-.02,0-.04,0-.06h.06c.27-.13,.47-.38,.54-.67,.07-.31,.02-.64-.15-.91-.14-.29-.39-.51-.7-.61-.3-.09-.63-.05-.9,.12l-1.88,1c-.28,.14-.49,.4-.58,.7-.07,.32-.01,.66,.15,.94,.13,.28,.36,.5,.65,.62,.28,.09,.58,.06,.83-.09l.54-.3h0l-.51-.93s-.01-.06,0-.09c.01-.03,.03-.05,.06-.07l.37-.2s.06-.01,.09,0c.04,0,.07,.03,.07,.06l.84,1.54s.01,.07,0,.1c-.01,.03-.04,.06-.07,.07l-.87,.47c-.45,.28-1,.37-1.52,.23-.49-.17-.9-.53-1.13-1-.18-.34-.28-.72-.29-1.1Z"></path><path class="cls-1" d="M163.62,86.51l1.8-2s.01-.04,0-.06l-.44-1h-.06l-2.19,.91s-.06,.01-.09,0c-.03-.01-.06-.04-.07-.07l-.21-.5s0-.06,0-.09c.01-.03,.04-.06,.07-.07l5-2.1s.07-.01,.1,0c.03,.01,.05,.04,.06,.07l.83,2c.13,.27,.18,.57,.14,.87-.02,.27-.13,.54-.3,.75-.19,.23-.43,.4-.7,.52-.31,.14-.67,.17-1,.09-.33-.08-.61-.28-.81-.55m-.05,0l-1.78,2h-.05s-.09,0-.12-.06l-.22-.51c0-.08,.02-.16,.09-.2l2.08-1.23Zm1.54-2.85l-1.67,.7v.06l.52,1.25c.09,.23,.27,.42,.5,.53,.23,.1,.5,.1,.73,0,.24-.09,.44-.27,.54-.51,.09-.24,.09-.5,0-.74l-.52-1.24s-.08-.05-.1-.05h0Z"></path><path class="cls-1" d="M165,90.14c.07-.33,.22-.63,.45-.88,.25-.25,.57-.43,.91-.53l1.86-.56c.34-.1,.71-.1,1.05,0,.33,.07,.63,.24,.86,.48,.25,.27,.44,.59,.54,.94,.11,.35,.14,.72,.07,1.08-.06,.33-.22,.64-.46,.88-.25,.25-.56,.44-.9,.53l-1.86,.56c-.34,.09-.71,.09-1.05,0-.33-.08-.62-.24-.86-.48-.26-.28-.45-.63-.54-1-.11-.33-.13-.68-.07-1.02Zm1.3,1.64c.31,.16,.67,.19,1,.07l1.9-.57c.33-.09,.61-.3,.78-.59,.17-.31,.19-.67,.07-1-.08-.32-.29-.59-.58-.75-.31-.15-.67-.18-1-.07l-1.89,.57c-.32,.08-.6,.29-.77,.58-.18,.31-.2,.67-.07,1,.07,.32,.27,.6,.56,.76Z"></path><path class="cls-1" d="M166.56,96.27l5.12-2.41h0c.06,0,.09,0,.1,.09l.1,.58c.02,.06-.02,.13-.08,.15h0l-3.77,1.73h0l4.12,.29c.06,0,.12,.05,.13,.11l.1,.57c.01,.07-.03,.13-.09,.15l-3.77,1.72h0l4.13,.36c.06,0,.11,.04,.12,.1h0l.09,.55s.02,.06,0,.09h-.1l-5.62-.5c-.06,0-.12-.05-.13-.11l-.1-.56c-.01-.06,.03-.13,.09-.14l4-1.64h0l-4.27-.3c-.06,0-.11-.04-.12-.1h0l-.09-.53c-.05-.05-.04-.14,.01-.18,0,0,.02-.01,.03-.02Z"></path><path class="cls-1" d="M173.32,106.82s-.05,.01-.08,0h-.44s-.06,.01-.09,0c-.01-.03-.01-.07,0-.1l-.07-1.51h0l-4.85,.26s-.07,.01-.1,0c-.01-.03-.01-.06,0-.09v-.54s0-.06,0-.09c.03-.01,.05-.01,.08,0l4.85-.26s.05,0,0,0l-.08-1.44s0-.06,0-.09c.03-.01,.06-.01,.09,0h.53s.01,.07,0,.1l.2,3.81s0-.07-.04-.05Z"></path><path class="cls-1" d="M173.16,112.81v.63c0,.06-.04,.11-.1,.12,0,0-.01,0-.02,0l-5.45-.28s-.06,.01-.09,0v-.63c0-.06,.04-.11,.1-.12,0,0,.01,0,.02,0l2.37,.12h0l.12-2.31h0l-2.36-.12s-.06,.01-.09,0c0-.03,0-.06,0-.09v-.54s-.01-.06,0-.09c.03,0,.06,0,.09,0l5.45,.28s.06-.01,.09,0c.01,.03,.01,.07,0,.1v.53s.01,.07,0,.1c-.03,.01-.06,.01-.09,0l-2.33-.12h0l-.12,2.3h0l2.32,.12s.06-.02,.09,0Z"></path><path class="cls-1" d="M166.45,128c.31-.15,.67-.18,1-.06,.34,.11,.61,.36,.75,.69,.3,.67,.02,1.45-.63,1.78-.31,.15-.67,.18-1,.06-.33-.11-.61-.36-.76-.68-.32-.66-.05-1.46,.61-1.78h.03Z"></path><path class="cls-1" d="M157,142.35h.09l4.4,3.24s.04,.04,.05,.07c.01,.03,.01,.07,0,.1l-.33,.43s-.04,.05-.07,.06c-.03,0-.06,0-.09,0l-3.92-2.89h-.05l-1.64,2.23s-.05,.05-.08,.05c-.03,.02-.06,.02-.09,0l-.35-.25v-.08s-.01-.06,0-.09l2.06-2.79s.02-.07,.02-.08Z"></path><path class="cls-1" d="M154.66,153.12s0-.06,0-.09l1.92-2.11h0l-1.29-1.17h-.06l-1.3,1.44s-.05,0-.08,0c-.03,0-.07,0-.1,0l-.32-.29s0-.05,0-.08c-.01-.03-.01-.07,0-.1l1.3-1.43v-.06l-1.29-1.23h-.05l-1.91,2.11s-.06,.01-.09,0h-.09l-.32-.29s0-.05,0-.08c0-.03,0-.06,0-.09l2.38-2.63s.05,0,.08,0c.03,0,.07,0,.1,0l4,3.67s.01,.06,0,.09c.01,.03,.01,.06,0,.09l-2.38,2.62s-.06,.01-.09,0c-.03,.01-.06,.01-.09,0l-.32-.29s-.01-.05,0-.08Z"></path><path class="cls-1" d="M146.82,153.67l.82,.49h.06l1.69-1.52h0l-.4-.87c-.04-.05-.04-.12,0-.17l.44-.39c.07-.06,.12,0,.16,0l2.34,5.25c.04,.05,.04,.12,0,.17l-.56,.49s-.12,.05-.17,0h0l-5-2.88h0v-.14l.43-.39c.04-.06,.12-.08,.18-.05h.01Zm2.83-.42l-1.39,1.24v.06l2.73,1.63h0l-1.33-2.89s0-.06-.01-.04h0Z"></path><path class="cls-1" d="M144.44,155.53s.06,.02,.08,.05l3.2,4.43s0,.06,0,.09c-.01,.03-.03,.05-.06,.07l-1.57,1.14c-.39,.31-.87,.46-1.36,.43-.45-.04-.85-.29-1.1-.66l-1.43-2c-.28-.36-.38-.82-.29-1.26,.13-.48,.43-.89,.84-1.16l1.57-1.13s.08-.02,.12,0Zm-.26,1l-1,.75c-.24,.15-.4,.4-.44,.68-.03,.28,.05,.57,.22,.79l1.3,1.8c.15,.24,.4,.41,.68,.47,.28,.05,.57-.03,.79-.21l1-.74v-.06l-2.5-3.45s-.03-.06-.05-.05v.02Z"></path><path class="cls-1" d="M138.59,165.28s.03-.05,.06-.07l2.47-1.42h0l-.87-1.51h0l-1.68,1s-.06,.02-.09,0c-.03,0-.06-.03-.07-.06l-.22-.38s-.02-.06,0-.09c0-.03,.03-.06,.06-.07l1.68-1v-.06l-.93-1.62h-.05l-2.47,1.42s-.06,.02-.09,0l-.07-.06-.21-.37s0-.06,0-.09c0-.03,.04-.06,.07-.07l3.07-1.77s.06-.01,.09,0c.03,.01,.06,.04,.07,.07l2.72,4.73s.01,.06,0,.09c-.01,.03-.04,.06-.07,.07l-3.06,1.79h-.09s-.06-.03-.07-.06l-.22-.37s-.04-.06-.03-.1Z"></path><path class="cls-1" d="M131.14,163.32l2,1.75h.06l1-.47h0l-1-2.16v-.1s.04-.06,.07-.07l.49-.22s.06,0,.09,0c.03,.02,.05,.04,.07,.07l2.24,5v.1s-.04,.06-.07,.07l-2,.88c-.27,.13-.57,.18-.87,.17-.28-.03-.54-.13-.76-.29-.23-.19-.41-.42-.53-.69-.15-.31-.19-.66-.11-1,.08-.32,.27-.61,.53-.82m0-.05l-2-1.73v-.05s0-.09,.06-.12l.5-.22c.14-.1,.19-.1,.23-.05l1.21,2.17Zm2.95,1.35l-.73-1.65h-.06l-1.23,.56c-.24,.09-.43,.28-.53,.52-.1,.23-.1,.49,0,.72,.17,.46,.67,.7,1.14,.54,.04-.01,.08-.03,.11-.05l1.23-.56s.09-.06,.07-.08h0Z"></path><path class="cls-1" d="M127.65,164.7c.3,.03,.59,.13,.83,.31,.24,.18,.42,.43,.5,.72l.06,.19s.01,.07,0,.1c-.02,.01-.05,.01-.07,0l-.5,.17h-.1s-.05-.05-.05-.08v-.15c-.09-.26-.29-.46-.55-.54-.32-.11-.68-.11-1,0-.29,.07-.55,.25-.73,.49-.13,.2-.16,.45-.08,.68,.05,.15,.15,.28,.28,.37,.16,.09,.33,.15,.51,.18l.89,.09c.33,.02,.67,.05,1,.1,.25,.04,.49,.14,.7,.29,.22,.16,.38,.39,.45,.65,.16,.4,.11,.85-.13,1.21-.29,.39-.69,.67-1.16,.8-.34,.12-.71,.17-1.07,.14-.31-.02-.6-.13-.85-.32-.24-.19-.41-.44-.5-.73v-.12s-.01-.07,0-.1c.02-.02,.05-.04,.08-.05l.5-.17s.06,0,.09,0c.03,.01,.05,.03,.06,.06v.09c.08,.26,.28,.48,.54,.57,.32,.13,.68,.13,1,0,.27-.07,.51-.22,.68-.44,.13-.2,.16-.44,.07-.66-.04-.15-.13-.28-.26-.37-.15-.09-.31-.14-.48-.16-.21,0-.51-.05-.91-.07-.34-.01-.67-.05-1-.11-.26-.05-.5-.15-.72-.29-.23-.16-.39-.4-.47-.67-.08-.27-.08-.57,0-.84,.09-.29,.25-.54,.48-.74,.27-.24,.59-.41,.94-.51,.32-.09,.64-.12,.97-.09Z"></path><path class="cls-1" d="M120.62,172.35s-.05,.01-.08,0l-.52,.12h-.09s-.05-.05-.05-.08l-1.17-5.33s-.01-.07,0-.1h.08l.52-.11s.07-.02,.1,0v.08l.5,2.32h0l2.25-.49v-.05l-.5-2.32c-.02-.06,.02-.12,.08-.14,0,0,.02,0,.02,0l.52-.12h.09s0,0,0,.08l1.16,5.34c.02,.06-.02,.12-.08,.14,0,0-.02,0-.02,0l-.52,.11s-.07,.02-.1,0c-.03-.02-.05-.05-.05-.08l-.49-2.28h0l-2.26,.49v.05l.49,2.28c.05,0,.1,.04,.12,.09Z"></path><path class="cls-1" d="M116.13,167.37s.01,.05,0,.08l.72,5.41s.02,.06,0,.09c-.02,.03-.05,.05-.09,.05l-.53,.07s-.06,.01-.09,0c-.01-.03-.01-.06,0-.09l-.72-5.41v-.09s.06-.01,.08,0l.53-.07s.06-.05,.1-.04Z"></path><path class="cls-1" d="M110,173.38c-.25-.12-.47-.31-.62-.55-.3-.53-.33-1.17-.08-1.72,.12-.25,.32-.47,.56-.61,.27-.15,.58-.24,.89-.25l1.42-.07h0l-.11-2.26v-.09s.06-.01,.09,0h.54s.06-.01,.09,0c.01,.03,.01,.07,0,.1l.28,5.45s.01,.06,0,.09c-.03,.01-.06,.01-.09,0l-2.15,.11c-.29,0-.57-.07-.82-.2Zm.14-2.18c-.18,.2-.26,.46-.23,.72,0,.27,.11,.52,.3,.71,.21,.17,.47,.26,.74,.23l1.35-.07h0l-.1-1.89h0l-1.35,.07c-.26-.02-.52,.06-.72,.23h.01Z"></path><path class="cls-1" d="M94.51,168.44c.18,.3,.24,.66,.16,1-.19,.72-.93,1.15-1.65,.95-.32-.09-.61-.29-.79-.57-.18-.3-.24-.66-.16-1,.08-.34,.3-.64,.6-.83,.63-.39,1.44-.19,1.83,.43v.02Z"></path><path class="cls-1" d="M79.24,160.52s0,.06,0,.09l-2.66,4.76s-.04,.06-.07,.07c-.03,0-.06,0-.09,0l-.47-.26s-.05-.04-.06-.07c0-.03,0-.06,0-.09l2.66-4.76s.04-.06,.07-.07c.03-.01,.06-.01,.09,0l.47,.26s.06,.04,.06,.07Z"></path><path class="cls-1" d="M76.32,158.84s0,.07,0,.1l-3.07,4.51s-.05,.05-.08,.06c-.03,.01-.06,.01-.09,0l-.45-.3c-.05-.03-.08-.09-.08-.15l.09-2.58h0l-2.37,1s-.11,.03-.16,0l-.46-.31s-.01-.05,0-.08c-.01-.03-.01-.06,0-.09l3.06-4.51s.05-.05,.08-.06c.03,0,.06,0,.09,0l.45,.3s.05,.05,.05,.08c.01,.03,.01,.06,0,.09l-2.38,3.41s0,.03,0,.05h0l1.94-.88s.11-.03,.16,0l.22,.14c.05,.03,.08,.09,.08,.15l-.11,2.11h0l2.33-3.43s.04-.04,.07-.05c.03-.01,.06-.01,.09,0l.45,.3c.05,.03,.08,.08,.09,.14Z"></path><path class="cls-1" d="M64.84,157c-.11-.26-.13-.55-.07-.82,.14-.59,.55-1.07,1.11-1.31,.27-.1,.55-.11,.83-.05,.3,.07,.58,.21,.81,.42l1.08,.92h.06l1.47-1.73s.05-.05,.08-.05c.03-.01,.07-.01,.1,0l.41,.35s0,.06,0,.09c0,.03,0,.06,0,.09l-3.54,4.16s-.05,.04-.08,.05c-.03,0-.06,0-.09,0l-1.65-1.4c-.24-.19-.41-.44-.52-.72Zm1.6-1.48c-.54,.08-.94,.55-.92,1.09,.03,.26,.16,.5,.37,.67l1,.88h0l1.23-1.44v-.06l-1-.87c-.19-.16-.43-.25-.68-.24v-.03Z"></path><path class="cls-1" d="M64.05,148.69l-.46,.84m0,.05l1.58,1.64h0l.85-.42c.05-.04,.12-.04,.17,0l.4,.41c.06,.07,0,.12,0,.17l-5.15,2.53s-.12,.04-.17,0l-.52-.54s-.04-.11,0-.16l2.7-5.08h.14l.41,.41s.07,.09,.05,.15l-.46,.89Zm1,1.92l-1.3-1.35h0l-1.59,2.85h0l2.84-1.44s.06-.04,.05-.06Z"></path><path class="cls-1" d="M61.61,146c.08,.33,.05,.69-.09,1-.13,.31-.35,.59-.62,.79l-1.66,1.21c-.26,.22-.58,.37-.92,.41-.32,.04-.65-.01-.94-.15-.33-.15-.61-.38-.83-.67-.23-.29-.38-.64-.46-1-.06-.31-.04-.64,.07-.94,.12-.31,.32-.58,.59-.77h.15l.36,.41h0s0,.05,0,.07h0c-.25,.18-.42,.46-.46,.77-.03,.32,.07,.65,.29,.89,.19,.26,.47,.43,.79,.49,.31,.04,.62-.05,.86-.26l1.7-1.33c.26-.18,.42-.47,.46-.78,.03-.32-.08-.64-.29-.89-.19-.26-.47-.44-.79-.49-.31-.04-.62,.06-.86,.26-.02,.01-.06,.01-.08,0-.03-.01-.05-.03-.07-.06l-.3-.44c0-.07-.06-.11,0-.12h0c.26-.21,.57-.35,.9-.39,.32-.04,.64,.01,.93,.15,.32,.16,.6,.39,.82,.67,.27,.33,.42,.74,.45,1.17Z"></path><path class="cls-1" d="M51.83,141.54s.03-.06,.06-.08l.37-.24s.06-.01,.09,0c.03,.01,.05,.03,.07,.06l.82,1.28h0l4.1-2.59s.06-.01,.09,0c.03,.01,.06,.03,.08,.06l.29,.46s.01,.06,0,.09c-.01,.03-.03,.05-.06,.07l-4.1,2.6v.06l.77,1.21v.09s-.03,.06-.06,.08l-.37,.24s-.06,.01-.09,0c-.03-.01-.06-.03-.08-.06l-2-3.22s0-.08,.02-.11Z"></path><path class="cls-1" d="M49,126.17c-.34,.64-1.15,.88-1.79,.54-.32-.17-.56-.47-.65-.83-.11-.33-.07-.69,.1-1,.17-.31,.46-.54,.8-.63,.71-.19,1.44,.21,1.65,.91,.11,.34,.07,.7-.11,1.01Z"></path><path class="cls-1" d="M48.24,108.26c-.15,.29-.39,.52-.67,.68-.31,.17-.65,.25-1,.24h-2.11c-.35,0-.7-.09-1-.27-.28-.16-.51-.41-.64-.71-.15-.31-.22-.65-.22-1,0-.35,.09-.69,.25-1,.14-.29,.37-.52,.64-.69,.31-.17,.65-.25,1-.23,.06,0,.09,0,.1,.13v.54h0s.01,.05,0,.07h-.05c-.31-.02-.62,.09-.85,.3-.42,.51-.42,1.24,0,1.75,.21,.23,.52,.36,.83,.35h2.17c.32,.02,.63-.1,.85-.32,.22-.23,.34-.54,.33-.86,.03-.32-.08-.64-.3-.88-.22-.22-.52-.35-.83-.34-.02,.01-.05,.01-.07,0v-.75h0c.35,0,.7,.09,1,.27,.27,.17,.49,.42,.62,.71,.15,.31,.22,.65,.21,1-.01,.35-.1,.7-.26,1.01Z"></path><path class="cls-1" d="M48.56,102c-.18,.27-.44,.49-.74,.62-.32,.13-.66,.17-1,.13l-3.74-.46s-.06,.01-.09,0c-.02-.03-.02-.06,0-.09l.07-.53s0-.05,0-.08c.03-.01,.06-.01,.09,0l3.76,.47c.32,.05,.64-.04,.89-.24,.26-.21,.41-.51,.44-.84,.07-.35-.02-.7-.24-.98-.2-.25-.49-.41-.81-.44l-3.75-.47s-.06,.01-.09,0c-.02-.03-.02-.06,0-.09l.06-.53s-.01-.05,0-.08h.09l3.74,.47c.36,.03,.71,.15,1,.37,.26,.19,.46,.46,.56,.77,.12,.35,.16,.72,.1,1.08-.04,.33-.15,.65-.34,.92Z"></path><path class="cls-1" d="M49.53,96.52s-.06,.01-.09,0l-5.32-1.22s-.05,.01-.08,0c-.01-.03-.01-.07,0-.1l.11-.53s0-.05,0-.07c.03-.01,.07-.01,.1,0l4.75,1.03h0l.62-2.7s0-.05,0-.08c.03-.01,.07-.01,.1,0l.42,.1h.08s.01,.06,0,.09l-.78,3.38s.11,.08,.09,.1Z"></path><path class="cls-1" d="M46.68,85.87s.07-.01,.1,0l.42,.14s.05,.03,.07,.06v.09l-.47,1.45h0l4.61,1.51s.05,.04,.07,.06c.02,.03,.02,.07,0,.1l-.16,.51-.06,.08s-.07,.01-.1,0l-4.58-1.47h0l-.45,1.38s-.04,.05-.06,.07c-.03,.02-.07,.02-.1,0l-.42-.14s-.05,0-.07,0c-.02-.03-.02-.07,0-.1l1.14-3.61c-.02-.05,0-.11,.06-.13h0Z"></path><path class="cls-1" d="M53.08,84.69c-.25,.21-.56,.34-.89,.38-.34,.03-.69-.03-1-.17l-3.44-1.55s-.06-.03-.07-.06c-.01-.03-.01-.07,0-.1l.21-.49s.04-.05,.07-.07c.03-.01,.07-.01,.1,0l3.46,1.55c.29,.13,.63,.13,.92,0,.3-.13,.53-.37,.65-.67,.15-.29,.17-.63,.07-.94-.12-.3-.35-.53-.65-.65l-3.46-1.55h-.05s-.01-.08,0-.11l.22-.49s.03-.07,.07-.07h.1l3.44,1.55c.31,.14,.58,.36,.79,.63,.19,.27,.3,.58,.32,.91,0,.35-.07,.69-.22,1-.13,.35-.35,.66-.64,.9Z"></path><path class="cls-1" d="M57.13,77l-2.65-.25h0l-.59,1m0,.06l2,1.2s.06,0,.06,.07c0,.03,0,.06,0,.09l-.27,.46s0,.06-.07,.06c-.03,.01-.07,.01-.1,0l-4.71-2.69s-.06,0-.06-.07c0-.03,0-.06,0-.09l1.1-1.84c.14-.27,.35-.49,.61-.64,.23-.15,.5-.22,.78-.21,.29,.01,.58,.1,.83,.25,.62,.33,.92,1.05,.72,1.72h0l2.66,.21h.06v.13l-.28,.47s-.02,.07-.09,.07l-3.24,.81Zm-2.19-1.25l1.56,.91m.06,0l.68-1.16c.13-.22,.17-.48,.12-.73-.07-.24-.23-.44-.45-.56-.4-.28-.95-.18-1.23,.21-.03,.04-.05,.08-.07,.13l-.68,1.17s0,.04,.01,.05l1.62,.89Z"></path><path class="cls-1" d="M57,68.48s.01,.06,0,.09l-1.68,2.3h0l1.4,1h.06l1.15-1.57s.04-.05,.07-.06c.03,0,.06,0,.09,0l.35,.25s.05,.05,.06,.08v.09l-1.2,1.67h0l1.44,1.05h0l1.68-2.3s.12-.05,.17,0h0l.35,.26s.05,.04,.06,.07c0,.03,0,.06,0,.09l-2.09,2.87h-.17l-4.4-3.22s-.05-.05-.06-.08v-.09l2.09-2.86s.05-.05,.08-.06h.09l.35,.25c.07,.03,.11,.1,.11,.17Z"></path></g><path class="cls-1" d="M108,162.46c-30.08,.09-54.54-24.21-54.63-54.29-.09-30.08,24.21-54.54,54.29-54.63s54.54,24.21,54.63,54.29v.17c.01,30.02-24.27,54.38-54.29,54.46Zm0-107.94c-29.54-.09-53.56,23.77-53.65,53.31-.09,29.54,23.77,53.56,53.31,53.65,29.54,.09,53.56-23.77,53.65-53.31v-.17c.01-29.47-23.84-53.4-53.31-53.48Z"></path><path class="cls-1" d="M108,179.88c-39.73-.16-71.8-32.5-71.64-72.22,.08-18.93,7.61-37.07,20.98-50.48,28.31-27.73,73.74-27.27,101.48,1.04,27.39,27.96,27.32,72.72-.16,100.6-13.39,13.52-31.63,21.1-50.66,21.06Zm0-142.78c-39.21,.22-70.82,32.19-70.59,71.41,.11,18.59,7.5,36.4,20.59,49.59,27.68,27.61,72.51,27.56,100.12-.12,27.61-27.68,27.56-72.51-.12-100.12h0c-13.21-13.34-31.23-20.82-50-20.76Z"></path><g><g><path class="cls-1" d="M76.26,76.84l.82-.13v-7.48l-.91-.12v-.82h5.67l-.13,2.27h-1.12l-.08-1.43h-1.73v3.38h.76l.18-.77h.79v2.33h-.79l-.18-.8h-.76v3.58h1.76l.17-1.55h1.18l.11,2.4h-5.78l.04-.86Z"></path><path class="cls-1" d="M82.51,77.69v-.7l.64-.13v-4.72l-.75-.08v-.71l1.87-.27,.13,.39v.27c.44-.48,1.06-.75,1.71-.74,.91-.06,1.7,.63,1.76,1.55,0,.09,0,.18,0,.27v4l.66,.13v.7h-2.23v-4.47c0-.65-.24-1-.81-1-.17,0-.34,.03-.5,.09-.1,.09-.19,.19-.27,.3v4.32l.66,.13v.7l-2.87-.03Z"></path><path class="cls-1" d="M118.06,77.69v-.7l.64-.13v-4.72l-.74-.08v-.71l1.86-.27,.13,.39v.27c.43-.48,1.04-.76,1.68-.76,.91-.07,1.7,.62,1.76,1.53,0,.1,0,.2,0,.29v4l.66,.13v.7h-2.19v-4.45c0-.65-.25-1-.82-1-.17,0-.34,.03-.5,.09-.1,.09-.19,.19-.27,.3v4.32l.66,.13v.7h-2.83l-.04-.03Z"></path><path class="cls-1" d="M92.06,77.57c-.42,.16-.86,.24-1.31,.22-.75,.09-1.42-.44-1.52-1.18-.01-.1-.01-.21,0-.31v-4.16l-.76-.14v-.82h.85l.36-1.26h1.08v1.35h1.24l-.1,.73-1.08,.12v4.18c-.03,.27,.16,.52,.43,.56,.04,0,.07,0,.11,0h.64l.06,.71Z"></path><path class="cls-1" d="M136.11,77.69v-.68l.61-.13v-4.73l-.71-.08v-.71l1.92-.28,.14,.46v.15c.58-.42,1.28-.63,2-.62l.29,.24-.2,1.79h-1.06l-.11-1c-.24,.03-.48,.11-.68,.24v4.54l.69,.12v.68h-2.89Z"></path><path class="cls-1" d="M108.41,77.69v-.68l.61-.13v-4.73l-.71-.08v-.71l1.92-.28,.14,.46v.15c.58-.42,1.28-.64,2-.62l.29,.24-.22,1.79h-1.07l-.1-1c-.24,.02-.48,.1-.68,.24v4.54l.66,.13v.68h-2.84Z"></path><path class="cls-1" d="M92.55,77.69v-.68l.6-.13v-4.73l-.71-.08v-.71l1.92-.28,.14,.46v.15c.58-.42,1.28-.64,2-.62l.29,.24-.2,1.79h-1.06l-.11-1c-.24,.03-.48,.11-.68,.24v4.54l.67,.13v.68h-2.86Z"></path><path class="cls-1" d="M98.63,74.81c0,1.12,.5,2,1.47,2,.48,0,.95-.11,1.38-.33l.27,.62c-.59,.46-1.33,.7-2.08,.68-1.67,0-2.67-1.48-2.67-3.38,0-1.62,.71-3.39,2.68-3.39,1.72,0,2.37,1.58,2.37,3.35l-.17,.42-3.25,.03Zm0-.75l2-.09c0-.79-.2-2-1-2-.2,0-.39,.05-.55,.16-.31,.62-.47,1.31-.46,2v-.07Z"></path><path class="cls-1" d="M126,74.81c0,1.12,.5,2,1.47,2,.48,0,.95-.11,1.38-.33l.27,.62c-.59,.46-1.33,.7-2.08,.68-1.71,0-2.7-1.48-2.7-3.38,0-1.62,.71-3.39,2.68-3.39,1.72,0,2.37,1.58,2.37,3.35l-.17,.42-3.22,.03Zm0-.75l2-.09c0-.79-.2-2-1-2-.2,0-.39,.05-.55,.16-.3,.62-.46,1.31-.46,2v-.07Z"></path><path class="cls-1" d="M114.49,74.81c0,1.12,.49,2,1.47,2,.48,0,.95-.11,1.38-.33l.27,.62c-.59,.46-1.32,.71-2.07,.7-1.71,0-2.7-1.48-2.7-3.38,0-1.62,.72-3.39,2.68-3.39,1.72,0,2.37,1.59,2.37,3.35l-.17,.43h-3.23Zm0-.75l2-.09c0-.79-.2-2-1-2-.19,0-.38,.06-.54,.16-.32,.59-.48,1.26-.48,1.93h.02Z"></path><path class="cls-1" d="M133.82,77.69l-.17-.56c-.39,.42-.94,.66-1.52,.65-.96,.1-1.81-.6-1.91-1.55-.01-.12-.01-.24,0-.36v-3.87l-.74-.08v-.62l2.13-.24,.17,.56v4.09c0,.71,.29,1.09,.86,1.09,.19,0,.38-.03,.56-.09,.11-.11,.2-.23,.29-.36v-4.35l-.76-.07v-.63l2.17-.3,.17,.56v5.28l.67,.13-.08,.7-1.84,.02Z"></path></g><path class="cls-1" d="M105.24,76.84c-.28,.02-.57-.05-.82-.18v-4.14c.09-.14,.19-.27,.3-.39,.19-.07,.39-.1,.59-.1,.88,0,1,.9,1,2.5,.05,.72-.05,1.45-.28,2.14-.25,.12-.52,.18-.79,.17Zm2.63-2.59c0-2-.58-3.23-2.06-3.23-.64-.02-1.25,.28-1.62,.8v-.22l-.19-.6-1.91,.27v.73l.74,.09v8l-.65,.12v.67h2.82v-.67l-.67-.13v-2.52c.33,.17,.7,.25,1.07,.24,2.45,0,2.47-2.43,2.47-3.55Z"></path></g></svg> 