<?xml version="1.0" encoding="UTF-8"?> <svg xmlns="http://www.w3.org/2000/svg" id="forbes-agency-council" width="216" height="216" viewBox="0 0 216 216"><defs><style>.cls-1,.cls-2{fill:#292663;}.cls-2{fill-rule:evenodd;}</style></defs><g><path class="cls-2" d="M117.62,103.55c-.95-.02-1.9,.22-2.73,.68,0-2.43,0-4.64,.07-5.39l-5.09,.91v.45l.53,.08c.69,.15,.91,.53,1.06,1.45,.16,1.83,.08,11.56,0,13.16,1.4,.33,2.83,.51,4.27,.53,4,0,6.46-2.51,6.46-6.47,0-3.12-2-5.4-4.57-5.4h0Zm-1.75,11c-.31,.02-.61-.01-.91-.08-.07-1.06-.15-5.55-.07-9.5,.36-.14,.75-.22,1.14-.23,1.67,0,2.58,2,2.58,4.41,0,3-1.14,5.4-2.74,5.4Z"></path><path class="cls-2" d="M90.7,99.14h-13.38v.69l.76,.07c1,.16,1.37,.77,1.52,2.21,.19,3.33,.19,6.67,0,10-.15,1.45-.53,2.13-1.52,2.21l-.76,.15v.61h8.59v-.61l-.91-.15c-1-.08-1.37-.77-1.52-2.21-.07-1-.15-2.59-.15-4.56l1.83,.08c1.14,0,1.67,.91,1.9,2.2h.69v-5.4h-.69c-.23,1.29-.76,2.2-1.9,2.2l-1.83,.08c0-2.58,.08-5,.15-6.47h2.66c2.06,0,3.12,1.3,3.88,3.58l.76-.23-.08-4.48v.03Z"></path><path class="cls-2" d="M95,103.39c3.8,0,5.7,2.59,5.7,6,.18,3.13-2.21,5.82-5.34,6-.19,.01-.39,.01-.59,0-3.8,0-5.71-2.58-5.71-6-.17-3.14,2.23-5.82,5.37-6,.19-.01,.38-.01,.57,0Zm-.23,.77c-1.68,0-2.13,2.28-2.13,5.25s.76,5.25,2.28,5.25c1.75,0,2.21-2.29,2.21-5.25s-.77-5.25-2.36-5.25Z"></path><path class="cls-2" d="M123.17,109.48c0-3.12,2-6.09,5.86-6.09,3.19,0,4.72,2.36,4.72,5.48h-7.08c-.07,2.81,1.3,4.86,4,4.86,.93,.04,1.85-.25,2.59-.83l.3,.38c-1.11,1.37-2.79,2.15-4.56,2.12-3.11,.12-5.73-2.31-5.85-5.42,0-.17,0-.33,0-.5h.02Zm3.5-1.45l3.58-.07c0-1.52-.23-3.8-1.52-3.8s-2,2.13-2.06,3.87Z"></path><path class="cls-2" d="M142.8,104c-1.12-.42-2.31-.63-3.5-.61-2.82,0-4.57,1.68-4.57,3.66s1.3,2.81,3.12,3.42,2.43,1.22,2.43,2.13c0,.97-.79,1.76-1.76,1.76-.05,0-.09,0-.14,0-1.45,0-2.51-.84-3.34-3.12l-.54,.16,.08,3.34c1.28,.46,2.64,.69,4,.69,3,0,4.87-1.52,4.87-3.88,0-1.59-.84-2.51-2.82-3.27-2.13-.83-2.89-1.37-2.89-2.36-.04-.88,.63-1.62,1.51-1.67,.03,0,.06,0,.09,0,1.37,0,2.28,.83,3,2.89l.53-.15-.07-3v.02Z"></path><path class="cls-2" d="M110.62,103.7c-1.29-.77-3.57-.38-4.79,2.35l.08-2.66-5.1,1v.46l.53,.07c.69,.08,1,.46,1.07,1.45,.12,2.21,.12,4.41,0,6.62-.08,.91-.38,1.37-1.07,1.44l-.53,.08v.61h7.08v-.61l-.91-.08c-.76-.07-1-.53-1.07-1.44-.14-2.05-.16-4.11-.07-6.16,.38-.53,2-1,3.57,0l1.21-3.12h0Z"></path></g><g><path class="cls-1" d="M94.35,128.65l-.68-1.73h-2.18l-.67,1.73h-.64l2.15-5.45h.53l2.14,5.45h-.65Zm-.88-2.29l-.63-1.68c-.1-.26-.18-.52-.25-.79-.06,.24-.13,.5-.23,.79l-.64,1.68h1.75Z"></path><path class="cls-1" d="M99.05,124.58v.42l-.76,.09c.08,.11,.15,.22,.19,.35,.19,.49,.07,1.06-.32,1.42-.32,.26-.71,.38-1.12,.36-.11,.01-.23,.01-.34,0-.22,.08-.38,.29-.39,.53,0,.1,.05,.2,.14,.24,.14,.07,.3,.09,.46,.08h.73c.36-.02,.71,.08,1,.28,.24,.2,.37,.5,.36,.81,0,.41-.2,.79-.55,1-.48,.27-1.03,.39-1.58,.36-.43,.03-.86-.08-1.23-.3-.46-.31-.58-.93-.27-1.39,.02-.03,.04-.06,.07-.09,.18-.19,.41-.32,.67-.37-.1-.05-.19-.13-.26-.22-.07-.1-.1-.22-.1-.34,0-.14,.04-.28,.12-.39,.1-.14,.23-.25,.38-.33-.22-.08-.4-.24-.52-.44-.13-.21-.2-.46-.2-.71-.01-.37,.13-.74,.4-1,.32-.26,.73-.39,1.14-.36,.19,0,.38,.02,.57,.07h1.4v-.07Zm-3.24,4.76c0,.21,.1,.4,.28,.5,.25,.12,.52,.18,.8,.17,.4,.02,.79-.05,1.15-.23,.23-.12,.37-.37,.37-.63,.02-.18-.06-.36-.21-.46-.24-.11-.5-.15-.76-.13h-.75c-.23-.01-.46,.06-.65,.2-.16,.15-.24,.36-.23,.58Zm.34-3.45c-.02,.24,.07,.47,.24,.64,.19,.15,.43,.23,.67,.22,.61,0,.91-.29,.91-.88,.04-.45-.29-.84-.73-.88-.08,0-.15,0-.23,.01-.25-.02-.49,.06-.67,.23-.14,.19-.21,.42-.19,.66Z"></path><path class="cls-1" d="M101.67,128.73c-.53,.03-1.05-.17-1.43-.55-.37-.42-.56-.97-.53-1.53-.03-.56,.14-1.12,.49-1.56,.32-.38,.8-.6,1.3-.58,.46-.02,.9,.16,1.21,.5,.31,.37,.47,.85,.45,1.33v.4h-2.81c-.02,.4,.11,.78,.36,1.09,.27,.26,.63,.39,1,.37,.45,0,.89-.09,1.3-.27v.55c-.2,.09-.4,.15-.61,.2-.24,.04-.49,.05-.73,.05Zm-.17-3.73c-.3-.02-.59,.1-.79,.32-.2,.25-.32,.56-.34,.88h2.13c.02-.32-.07-.63-.26-.89-.19-.21-.46-.32-.74-.31Z"></path><path class="cls-1" d="M107.06,128.65v-2.65c.02-.27-.06-.53-.22-.74-.2-.17-.45-.26-.71-.25-.35-.03-.69,.1-.94,.35-.22,.34-.32,.74-.29,1.14v2.13h-.62v-4.07h.51l.1,.56h0c.13-.21,.32-.37,.54-.47,.24-.11,.5-.17,.76-.17,.72-.1,1.38,.4,1.48,1.11,.02,.13,.02,.25,0,.38v2.66l-.61,.02Z"></path><path class="cls-1" d="M110.63,128.73c-.52,.03-1.02-.17-1.37-.55-.35-.44-.52-.98-.48-1.54-.04-.57,.14-1.13,.49-1.58,.36-.39,.87-.59,1.4-.56,.2,0,.39,.02,.58,.07,.16,.03,.32,.08,.47,.14l-.19,.53c-.15-.06-.3-.11-.45-.14-.14-.01-.29-.01-.43,0-.82,0-1.24,.52-1.24,1.58-.02,.41,.08,.81,.3,1.16,.22,.27,.56,.41,.9,.39,.34,0,.68-.08,1-.21v.54c-.31,.14-.64,.19-.98,.17Z"></path><path class="cls-1" d="M112,124.58h.66l.89,2.32c.15,.37,.27,.76,.37,1.15h0c0-.12,.1-.34,.21-.65s.44-1.25,1-2.82h.66l-1.75,4.64c-.11,.38-.32,.72-.61,1-.24,.2-.54,.3-.85,.29-.19,0-.38-.02-.56-.06v-.5c.15,.02,.31,.02,.46,0,.43,0,.8-.3,.9-.71l.23-.58-1.61-4.08Z"></path><path class="cls-1" d="M93.26,132.47c-.54-.02-1.06,.2-1.41,.6-.37,.46-.55,1.04-.52,1.63-.04,.59,.14,1.17,.5,1.64,.36,.4,.88,.62,1.42,.59,.44,0,.88-.08,1.3-.21v.56c-.45,.15-.92,.22-1.39,.21-.7,.04-1.38-.23-1.86-.73-.47-.58-.7-1.32-.65-2.07,0-.51,.1-1.01,.32-1.47,.19-.42,.51-.77,.91-1,.42-.24,.9-.35,1.39-.34,.51,0,1.02,.1,1.49,.32l-.27,.53c-.39-.17-.81-.26-1.23-.26Z"></path><path class="cls-1" d="M99.22,135.38c.03,.56-.15,1.12-.51,1.55-.35,.38-.86,.59-1.38,.56-.35,.01-.7-.08-1-.26-.29-.17-.51-.43-.65-.73-.16-.35-.24-.73-.23-1.12-.03-.56,.15-1.12,.5-1.56,.36-.38,.86-.58,1.38-.55,.52-.02,1.01,.19,1.36,.57,.37,.43,.55,.98,.53,1.54Zm-3.11,0c-.03,.42,.08,.84,.31,1.19,.22,.27,.57,.42,.92,.4,.35,.03,.7-.12,.92-.4,.23-.35,.34-.77,.31-1.19,.03-.42-.08-.83-.31-1.18-.23-.28-.57-.43-.93-.41-.35-.02-.69,.13-.91,.4-.23,.35-.34,.77-.31,1.19Z"></path><path class="cls-1" d="M100.94,133.35v2.65c-.02,.27,.06,.53,.22,.74,.2,.17,.45,.26,.71,.24,.35,.03,.7-.1,.94-.35,.22-.34,.32-.74,.29-1.14v-2.14h.62v4.08h-.51l-.1-.55h0c-.13,.2-.31,.36-.52,.46-.24,.11-.5,.17-.77,.16-.4,.03-.8-.1-1.12-.35-.27-.31-.4-.71-.37-1.12v-2.67h.61Z"></path><path class="cls-1" d="M107.87,137.42v-2.63c.02-.27-.06-.53-.22-.74-.19-.18-.45-.27-.71-.25-.35-.03-.69,.1-.93,.35-.23,.33-.34,.74-.3,1.14v2.13h-.61v-4.07h.5l.1,.56h0c.13-.21,.31-.37,.53-.47,.24-.11,.5-.17,.76-.17,.71-.11,1.37,.38,1.48,1.09,.02,.13,.02,.27,0,.4v2.66h-.6Z"></path><path class="cls-1" d="M111.44,137.49c-.51,.03-1.01-.17-1.37-.54-.34-.44-.51-.99-.48-1.54-.04-.57,.14-1.14,.49-1.59,.36-.38,.87-.59,1.4-.56,.2,0,.4,.03,.59,.07,.16,.03,.31,.08,.46,.14l-.19,.53c-.14-.06-.3-.1-.45-.13-.14-.04-.28-.06-.43-.06-.82,0-1.23,.53-1.23,1.58-.03,.41,.08,.82,.3,1.16,.21,.27,.55,.42,.89,.4,.34,0,.68-.08,1-.22v.55c-.31,.14-.64,.22-.98,.21Z"></path><path class="cls-1" d="M113.45,132.24c0-.11,.03-.22,.11-.3,.07-.07,.16-.11,.26-.1,.09,0,.18,.03,.25,.1,.08,.08,.12,.19,.11,.3,0,.11-.03,.23-.11,.31-.06,.07-.15,.11-.25,.11-.1,0-.19-.04-.26-.11-.08-.08-.12-.2-.11-.31Zm.67,5.18h-.62v-4.07h.62v4.07Z"></path><path class="cls-1" d="M116.1,137.42h-.61v-5.78h.61v5.78Z"></path></g><rect class="cls-1" x="79.31" y="122.05" width=".99" height="16.12"></rect><g><path class="cls-1" d="M76.14,79c.08-1.27,1.18-2.24,2.46-2.15,1.16,.08,2.08,1,2.15,2.15-.08,1.27-1.18,2.24-2.46,2.15-1.16-.08-2.08-1-2.15-2.15Zm4,0c-.01-.91-.76-1.64-1.67-1.63s-1.64,.76-1.63,1.67c.01,.91,.75,1.64,1.66,1.63,.89-.01,1.6-.74,1.59-1.63v-.04h.05Z"></path><path class="cls-1" d="M85.42,76.91v.37s-.03,.09-.08,.1c0,0-.01,0-.02,0h-2.13v1.62h1.88c.06,0,.09,0,.09,.11v.37c0,.06,0,.11-.09,.11h-1.88v1.52c0,.05-.03,.1-.09,.11h-.45c-.06,0-.1-.04-.1-.1h0v-4.21c0-.05,.03-.1,.09-.11h2.68c.06,0,.1,.04,.1,.1h0Z"></path><path class="cls-1" d="M90,76.91v.37s-.03,.09-.08,.1c0,0-.01,0-.02,0h-2.14v1.62h1.88c.06,0,.09,0,.09,.11v.37c0,.06,0,.11-.09,.11h-1.88v1.52c0,.07,0,.11-.1,.11h-.44c-.06,0-.1-.04-.1-.1h0v-4.21c0-.05,.03-.1,.09-.11h2.68c.11,0,.11,.04,.11,.11Z"></path><path class="cls-1" d="M91.69,81.11v-4.2c0-.05,.03-.1,.09-.11h.45c.07,0,.1,0,.1,.11v4.2c0,.07,0,.11-.1,.11h-.44c-.06,0-.1-.04-.1-.1h0Z"></path><path class="cls-1" d="M94.13,79c-.03-1.23,.94-2.24,2.17-2.27,.06,0,.12,0,.17,0,.48-.01,.95,.11,1.36,.36,.04,.04,.04,.11,0,.15l-.19,.33c0,.07-.09,.07-.15,0-.3-.18-.65-.27-1-.26-.92,0-1.66,.74-1.66,1.66,0,.92,.74,1.66,1.66,1.66h0c.35,0,.69-.08,1-.25,.04-.04,.1-.05,.14,0h0l.18,.34s.05,.11,0,.16h0c-.41,.23-.87,.35-1.34,.33-1.21,.08-2.26-.83-2.34-2.04,0-.05,0-.1,0-.16Z"></path><path class="cls-1" d="M99.57,81.11v-4.2c0-.05,.03-.1,.09-.11h.45c.07,0,.1,0,.1,.11v4.2c0,.07,0,.11-.1,.11h-.44c-.06,0-.1-.04-.1-.1h0Z"></path><path class="cls-1" d="M105.86,81.22h-.46c-.06,0-.11-.04-.13-.09l-.34-.84h-2.12l-.35,.84c-.02,.05-.07,.09-.12,.09h-.46c-.08,0-.12,0-.09-.12l1.81-4.22c.02-.05,.07-.08,.13-.08h.27c.06,0,.11,.03,.13,.08l1.87,4.22c0,.07-.06,.12-.14,.12Zm-2.86-1.49h1.68l-.83-2-.85,2Z"></path><path class="cls-1" d="M110.44,80.75v.36c0,.05-.03,.1-.09,.11,0,0-.01,0-.02,0h-2.71c-.05,0-.1-.03-.11-.09,0,0,0-.01,0-.02v-4.2c0-.05,.03-.1,.09-.11,0,0,.01,0,.02,0h.44c.06,0,.09,0,.09,.11v3.73h2.18c.06,0,.11,.04,.11,.11Z"></path><path class="cls-1" d="M118.74,81.11c0,.08,0,.11-.1,.11h-.43c-.07,0-.1,0-.1-.11l-.07-3-1.35,2.39s-.07,.07-.12,.07h-.26c-.06,0-.11-.03-.13-.08l-1.31-2.4-.07,3c0,.06-.05,.11-.11,.11h-.43c-.07,0-.1,0-.1-.11l.15-4.2c0-.05,.03-.1,.09-.11,0,0,.01,0,.02,0h.24c.05,0,.1,.03,.12,.08l1.65,3,1.71-3s.08-.07,.13-.07h.22c.05,0,.1,.03,.11,.09,0,0,0,.01,0,.02l.14,4.21Z"></path><path class="cls-1" d="M123.7,80.75v.36c0,.05-.03,.1-.09,.11h-2.75c-.06,0-.1-.04-.1-.1h0v-4.21c0-.05,.03-.1,.09-.11h2.74c.05,0,.1,.03,.11,.09,0,0,0,.01,0,.02v.36c0,.06-.04,.1-.1,.1h-2.19v1.32h1.9c.07,0,.11,0,.11,.1v.37c0,.07,0,.1-.11,.1h-1.9v1.38h2.2c.05,0,.1,.05,.09,.11h0Z"></path><path class="cls-1" d="M130,81.11c0,.08,0,.11-.1,.11h-.43c-.07,0-.1,0-.1-.11l-.08-3-1.29,2.42s-.08,.07-.13,.07h-.26c-.05,0-.1-.03-.12-.08l-1.31-2.4-.08,3c0,.05-.03,.1-.09,.11,0,0-.01,0-.02,0h-.43c-.07,0-.1,0-.1-.11l.16-4.2c0-.05,.03-.1,.09-.11,0,0,.01,0,.02,0h.27c.06,0,.09,0,.13,.08l1.65,3,1.71-3s.07-.07,.12-.07h.23c.07,0,.1,0,.1,.11l.06,4.18Z"></path><path class="cls-1" d="M135.34,80c0,.78-.54,1.26-1.61,1.26h-1.57c-.06,0-.1-.04-.1-.1h0v-4.21c0-.05,.03-.1,.09-.11h1.45c1.13,0,1.6,.49,1.6,1.16,.03,.44-.23,.84-.64,1,.45,.13,.76,.53,.78,1Zm-1.76-2.61h-.89v1.36h1c.53,0,.84-.24,.84-.64s-.27-.76-.95-.76v.04Zm1.11,2.57c0-.36-.28-.66-1-.66h-1v1.41h1c.65-.05,1-.33,1-.79v.04Z"></path><path class="cls-1" d="M140.1,80.75v.36c0,.07,0,.11-.1,.11h-2.73c-.05,0-.1-.03-.11-.09,0,0,0-.01,0-.02v-4.2c0-.05,.03-.1,.09-.11,0,0,.01,0,.02,0h2.73c.06,0,.1,.04,.1,.1h0v.37s-.03,.09-.08,.1c0,0-.01,0-.02,0h-2.19v1.32h1.91c.07,0,.1,0,.1,.1v.37c0,.07,0,.1-.1,.1h-1.91v1.38h2.19c.06,0,.1,.04,.1,.1h0Z"></path><path class="cls-1" d="M145.13,81.22h-.53c-.05,0-.11-.03-.14-.07l-.89-1.31h-1v1.26c0,.05-.03,.1-.09,.11h-.48c-.05,0-.1-.03-.11-.09,0,0,0-.01,0-.02v-4.2c0-.05,.03-.1,.09-.11,0,0,.01,0,.02,0h1.38c1,0,1.75,.54,1.75,1.54,.02,.6-.35,1.15-.92,1.36l1,1.39c.04,.09,0,.14-.08,.14Zm-.65-2.88c0-.64-.46-1-1.1-1h-.81v1.91h.77c.66,.03,1.14-.34,1.14-.91h0Z"></path></g><path class="cls-1" d="M108,179.64c-39.56,0-71.63-32.06-71.64-71.62,0-39.56,32.06-71.63,71.62-71.64,39.56,0,71.63,32.06,71.64,71.62,0,18.99-7.54,37.21-20.96,50.64-13.4,13.48-31.65,21.05-50.66,21Zm0-137.9c-36.6,0-66.27,29.66-66.28,66.26,0,36.6,29.66,66.27,66.26,66.28,36.6,0,66.27-29.66,66.28-66.26,0-17.58-6.98-34.44-19.41-46.87-12.4-12.47-29.27-19.46-46.85-19.41Z"></path></svg> 