<?xml version="1.0" encoding="UTF-8"?> <svg xmlns="http://www.w3.org/2000/svg" id="iprn-product-of-the-year" width="216" height="216" viewBox="0 0 216 216"><defs><style>.cls-1{fill:#292663;}</style></defs><rect class="cls-1" x="147.55" y="53.3" height="64.07"></rect><path class="cls-1" d="M110.52,140.7h0c-.68-.61-1.56-.94-2.47-.92-.91-.02-1.79,.31-2.46,.92h0l-13.59,13.5,11,11h10l11-11-13.48-13.5Zm1.28,4.6h.5v2.31h2.31v.5h-2.31v2.31h-.5v-2.31h-2.31v-.5h2.31v-2.31Zm-6.36,7.46v-.5h2.31v-2.26h.5v2.3h2.31v.5h-2.31v2.31h-.5v-2.31l-2.31-.04Zm0-9.8h2.31v-2.31h.5v2.35h2.31v.5h-2.31v2.31h-.5v-2.31h-2.31v-.54Zm-4,4.65h2.31v-2.31h.5v2.31h2.31v.5h-2.36v2.31h-.5v-2.31h-2.31l.05-.5Zm-1.24,7.46h-.5v-2.31h-2.36v-.5h2.31v-2.26h.5v2.3h2.31v.5h-2.31l.05,2.27Zm4,4.65h-.5v-2.3h-2.31v-.5h2.31v-2.31h.5v2.31h2.31v.5h-2.31v2.3Zm6.36,2.35h-2.31v2.31h-.5v-2.31h-2.31v-.5h2.31v-2.31h.5v2.31h2.31v.5Zm4-4.65h-2.26v2.3h-.5v-2.3h-2.31v-.5h2.31v-2.31h.5v2.31h2.31l-.05,.5Zm1.74-4.66v2.31h-.5v-2.31h-2.31v-.5h2.31v-2.26h.5v2.3h2.31v.5l-2.31-.04Z"></path><g><path class="cls-1" d="M143.78,69.17l-.53,.53,.27,.27c.12,.16,.35,.19,.5,.07,.02-.02,.05-.04,.07-.07,.16-.16,.17-.35,0-.56l-.31-.24Z"></path><path class="cls-1" d="M138.25,59.11c.17-.17,.18-.35,0-.57l-.28-.27-.51,.52,.27,.27c.18,.21,.37,.2,.52,.05Z"></path><path class="cls-1" d="M140.49,63.05c.27,.3,.73,.32,1.03,.05,.02-.02,.03-.03,.05-.05,.36-.19,.5-.64,.31-1-.19-.36-.64-.5-1-.31-.13,.07-.24,.18-.31,.31-.29,.26-.32,.7-.08,1Z"></path><polygon class="cls-1" points="164.01 85.93 164.46 84.96 163.5 85.42 164.01 85.93"></polygon><path class="cls-1" d="M142.29,64.83c.24,.31,.69,.36,1,.11,.04-.03,.08-.07,.11-.11,.31-.25,.36-.7,.11-1.01-.03-.04-.07-.08-.11-.11l-.26-.25-1.14,1.12,.29,.25Z"></path><path class="cls-1" d="M139.83,60.68c.15-.12,.18-.35,.05-.51-.02-.02-.03-.04-.05-.05l-.27-.27-.54,.53,.27,.27c.13,.16,.36,.18,.52,.05l.02-.02Z"></path><path class="cls-1" d="M151.61,71.92c-.27-.3-.73-.32-1.03-.05-.02,.02-.03,.03-.05,.05-.36,.19-.5,.64-.31,1,.19,.36,.64,.5,1,.31,.13-.07,.24-.18,.31-.31,.29-.26,.32-.7,.08-1Z"></path><path class="cls-1" d="M179.4,93.53l-40.09-40.11h-5.2l-8.38,8.38,45.27,45.32,8.38-8.39,.02-5.2Zm-35.85-30c.4,.38,.42,1.01,.05,1.41-.01,.02-.03,.03-.05,.05-.38,.4-1.01,.42-1.41,.04-.01-.01-.02-.02-.04-.04l-.44-.44,1.41-1.41,.48,.39Zm-1.78-1.8c.39,.39,.38,1.03-.02,1.41-.39,.39-1.03,.38-1.41-.02-.38-.39-.38-1.01,0-1.4,.4-.38,1.03-.37,1.41,.02l.02,.02v-.04Zm-2.29-2.26l.46,.46c.27,.19,.33,.55,.15,.82-.02,.03-.04,.05-.07,.08-.2,.2-.52,.23-.75,.07l-.23,.94-.22-.22,.24-.91-.22-.22-.58,.58-.19-.19,1.41-1.41Zm-1.57-1.57l.46,.45c.26,.19,.33,.56,.14,.82-.02,.03-.04,.05-.07,.08-.21,.22-.54,.27-.89-.08l-.28-.27-.58,.59-.19-.18,1.41-1.41Zm-2.78,5.1l.81-1.46-1.48,.8-.2-.21,1-1.8,.2,.19-.89,1.51,1.54-.86,.2,.21-.86,1.51,1.55-.89,.2,.2-1.82,1-.25-.2Zm1.22,1.22l1.41-1.41,.18,.19-1.41,1.41-.18-.19Zm1.82,1.83l.39-1.87-1.13,1.13-.18-.19,1.41-1.41,.19,.18-.38,1.87,1.12-1.12,.18,.18-1.41,1.41-.19-.18Zm1.83,1.85l.38-1.86-1.12,1.12-.19-.18,1.42-1.42,.18,.19-.38,1.86,1.12-1.12,.19,.18-1.42,1.42-.18-.19Zm1.81,1.51l-.15,.15-.76-.76,1.41-1.41,.76,.76-.15,.15-.58-.58-.47,.48,.52,.51-.16,.15-.51-.51-.49,.48,.58,.58Zm2.47,.78c-.2,.2-.51,.23-.74,.07l-.24,.94-.22-.22,.24-.91-.22-.22-.58,.58-.18-.19,1.41-1.41,.45,.46c.27,.19,.33,.55,.15,.82-.02,.03-.04,.05-.07,.08Zm-.28-3.27c-.3-.25-.33-.69-.08-.99,.03-.03,.05-.06,.08-.08l.89-.89,.18,.19-.89,.89c-.2,.16-.23,.45-.07,.65,.02,.03,.05,.05,.07,.07,.15,.2,.44,.23,.63,.08,.03-.02,.06-.05,.08-.08l.9-.89,.21,.13-.89,.89c-.24,.31-.68,.38-.99,.14-.04-.03-.08-.07-.12-.11Zm3.16,.59c-.31-.31-.81-.31-1.12,0-.31,.31-.31,.81,0,1.12,.17,.2,.45,.27,.7,.17l.26,.2c-.37,.17-.81,.08-1.08-.23-.4-.4-.4-1.04,0-1.44s1.04-.4,1.44,0c.31,.27,.4,.71,.23,1.08l-.22-.22c.09-.24,.02-.51-.17-.68h-.04Zm2.19,2.21l-.38-.39-1.26,1.26-.19-.18,1.26-1.26-.38-.39,.15-.15,.95,1-.15,.11Zm.94,3.48c-.39-.39-.38-1.03,.02-1.41s1.03-.38,1.41,.02c.38,.39,.38,1.01,0,1.4-.39,.37-1,.37-1.39,0h-.04Zm3.42,.88l-.61-.62-.48,.48,.5,.5-.15,.15-.5-.5-.63,.64-.19-.19,1.41-1.41,.8,.8-.15,.15Zm.61,3.12l1.26-1.26-.39-.38,.15-.15,1,1-.15,.15-.39-.38-1.26,1.26-.22-.24Zm2.1,2.1l.64-.63-.72-.72-.64,.64-.19-.19,1.49-1.4,.18,.19-.62,.61,.72,.72,.62-.62,.18,.19-1.41,1.41-.25-.2Zm2.91,.4l-.57-.57-.47,.47,.51,.51-.15,.15-.51-.51-.49,.48,.58,.58-.16,.15-.76-.76,1.42-1.41,.76,.76-.16,.15Zm.9,3.41l-.19-.18,.53-.53,.42-1.34,.2,.2-.36,1.06,1.06-.36,.21,.2-1.34,.42-.53,.53Zm2,1.67l-.15,.15-.76-.76,1.41-1.41,.76,.75-.15,.16-.57-.58-.48,.47,.52,.52-.15,.15-.52-.52-.48,.49,.57,.58Zm1.48,1.78l.2-.43-.62-.62-.42,.2-.2-.19,1.91-.89,.22,.21-.9,1.91-.19-.19Zm2.76,.76c-.19,.21-.51,.24-.74,.07l-.24,1-.22-.22,.24-.92-.22-.22-.58,.58-.18-.19,1.41-1.42,.45,.46c.26,.2,.31,.57,.11,.83,0,.01-.02,.02-.03,.03Z"></path><path class="cls-1" d="M166,86.3l-.53,.53,.27,.27c.12,.16,.35,.19,.5,.07,.02-.02,.05-.04,.07-.07,.16-.16,.17-.35,0-.56l-.31-.24Z"></path></g><g><polygon class="cls-1" points="53.96 83.94 52.99 83.48 53.45 84.45 53.96 83.94"></polygon><polygon class="cls-1" points="58.1 79.8 57.13 79.34 57.59 80.31 58.1 79.8"></polygon><polygon class="cls-1" points="49.97 87.92 49.01 87.47 49.46 88.43 49.97 87.92"></polygon><polygon class="cls-1" points="42.79 95.1 41.83 94.65 42.28 95.61 42.79 95.1"></polygon><path class="cls-1" d="M58.75,77.56l-.28,.27,.54,.54,.27-.28c.16-.12,.19-.35,.07-.5-.02-.02-.04-.05-.07-.07-.13-.16-.28-.17-.53,.04Z"></path><path class="cls-1" d="M60.36,75.94l-.26,.26,1.11,1.11,.26-.26c.31-.24,.36-.69,.11-1-.03-.04-.07-.08-.11-.11-.25-.31-.71-.35-1.01-.1-.04,.03-.07,.06-.1,.1Z"></path><path class="cls-1" d="M81.89,53.42h-5.2l-40.09,40.1v5.2l8.4,8.42,45.29-45.32-8.4-8.4Zm-38.47,42l-.42-.22-.61,.62,.2,.42-.19,.2-.9-1.91,.22-.22,1.91,.9-.21,.21Zm1.75-1.74l-1.87-.38,1.12,1.12-.18,.18-1.41-1.41,.17-.19,1.86,.38-1.12-1.12,.19-.19,1.41,1.41-.17,.2Zm1.83-1.85l-1.86-.38,1.12,1.12-.19,.19-1.41-1.41,.19-.19,1.86,.38-1.12-1.12,.18-.18,1.41,1.41-.18,.18Zm1.44-1.41c-.26,.3-.71,.33-1,.07-.02-.02-.05-.04-.07-.07l-.89-.89,.19-.19,.89,.9c.19,.19,.5,.19,.69,0,.19-.19,.19-.5,0-.69h0l-.89-.89,.19-.18,.89,.89c.29,.26,.32,.7,.06,.99-.02,.03-.05,.05-.07,.07h0Zm2.17-2.2l-.42-.2-.62,.61,.2,.43-.19,.2-.89-1.92,.21-.21,1.91,.9-.2,.19Zm.82-.82l-1.43-1.4,.19-.18,1.26,1.26,.49-.5,.15,.15-.66,.67Zm3.17-3.16l-.43-.2-.61,.61,.2,.43-.2,.19-.89-1.91,.21-.21,1.91,.89-.19,.2Zm2-2l-1.46-.81,.8,1.48-.21,.2-1.8-1,.19-.2,1.51,.89-.86-1.54,.21-.2,1.51,.86-.88-1.5,.2-.2,1,1.82-.21,.2Zm2.17-2.17l-.43-.2-.61,.62,.2,.43-.2,.19-.89-1.91,.16-.2,1.91,.9-.14,.17Zm1.56-1.56l-.91-.24-.22,.22,.57,.58-.18,.18-1.41-1.41,.45-.45c.19-.27,.57-.33,.84-.14,.03,.02,.05,.04,.07,.06,.2,.2,.23,.51,.07,.74l.94,.24-.22,.22Zm1.33-1.33l-.44,.44-1.41-1.41,.44-.44c.38-.4,1.01-.42,1.41-.05,.02,.02,.03,.03,.05,.05,.37,.41,.34,1.04-.07,1.41l-.02,.02,.04-.02Zm1.85-1.82c-.2,.26-.58,.31-.84,.11l-.03-.02,.19-.19c.16,.13,.4,.1,.53-.06,.14-.13,.16-.35,.03-.49,0,0-.02-.02-.03-.03-.38-.38-.9,.63-1.43,.1-.19-.24-.16-.58,.07-.78,.2-.26,.57-.3,.83-.11l-.2,.2c-.16-.1-.36-.07-.48,.07-.15,.1-.19,.31-.08,.46,.01,.01,.02,.03,.03,.04,.37,.36,.9-.62,1.43-.1,.2,.25,.17,.61-.06,.82l.04-.02Z"></path></g><path class="cls-1" d="M76.41,97.12l.08-.05-.08,.05Z"></path><g><path class="cls-1" d="M118.48,115.31c0-.25-.14-.42-.47-.42h-.44v.85h.43c.34,0,.48-.18,.48-.43Z"></path><path class="cls-1" d="M144.33,118.9c-.49-.04-.92,.33-.96,.82-.04,.49,.33,.92,.82,.96,.49,.04,.92-.33,.96-.82,0-.02,0-.04,0-.07,.04-.45-.3-.85-.75-.89-.02,0-.05,0-.07,0Z"></path><polygon class="cls-1" points="115.68 120.18 116.49 120.18 116.09 119.05 115.68 120.18"></polygon><path class="cls-1" d="M119,109.27c2.29,0,4.16-2.24,4.16-5s-1.87-5-4.16-5c-2.03,.16-3.69,1.69-4,3.71v2.57c.3,2.02,1.96,3.57,4,3.72Z"></path><ellipse class="cls-1" cx="130.28" cy="115.77" rx=".83" ry=".89"></ellipse><polygon class="cls-1" points="123.16 116.16 123.97 116.16 123.57 115.03 123.16 116.16"></polygon><path class="cls-1" d="M142.39,114.89h-.39v.83h.43c.34,0,.48-.16,.48-.41s-.18-.42-.52-.42Z"></path><path class="cls-1" d="M122.88,118.9c-.49-.03-.91,.34-.95,.83-.03,.49,.34,.91,.83,.95,.49,.03,.91-.34,.95-.83,0-.02,0-.04,0-.06,.04-.45-.28-.84-.73-.89-.03,0-.07,0-.1,0Z"></path><path class="cls-1" d="M147.68,119.33c0-.25-.15-.42-.48-.42h-.43v.85h.43c.33,0,.48-.18,.48-.43Z"></path><polygon class="cls-1" points="135.76 116.16 136.58 116.16 136.17 115.03 135.76 116.16"></polygon><path class="cls-1" d="M109.54,119.33c0-.25-.15-.42-.48-.42h-.43v.85h.43c.33,0,.48-.18,.48-.43Z"></path><path class="cls-1" d="M113,50.82h-10L39,114.9v10l40.32,40.32,25.34-25.34c1.91-1.74,4.83-1.74,6.74,0l25.34,25.34,40.3-40.3v-10L113,50.82Zm-14,47.59l.1,.12c-.47-.69-1.41-.86-2.1-.39-.62,.43-.83,1.25-.49,1.93-4.51-6.92-13.74-8.92-20.72-4.51h0c.32-.29,.51-.7,.51-1.13,0-.25-.06-.49-.18-.71l-.12-.19c-.29-.38-.74-.61-1.22-.61-.23,0-.45,.05-.65,.15,8.36-5.32,19.43-2.94,24.87,5.34Zm-13.21-.3h0c-.68-.14-1.37-.21-2.06-.21-1.96,0-3.89,.56-5.55,1.61,.64-.54,.71-1.49,.17-2.13-.28-.33-.69-.52-1.12-.53-.26,0-.52,.07-.75,.21h0c2.16-1.4,4.68-2.14,7.25-2.14,.89,0,1.78,.09,2.65,.26h-.13c-.83,0-1.5,.66-1.51,1.49,0,.66,.42,1.24,1.05,1.44Zm.13,0h0Zm-8.69,1.71c.24,0,.47-.06,.68-.16-2.25,1.5-3.84,3.82-4.41,6.47-.17,.81-.96,1.32-1.77,1.15-.81-.17-1.32-.96-1.15-1.77,.75-3.45,2.82-6.47,5.77-8.4-.67,.49-.81,1.43-.32,2.1,.28,.38,.73,.61,1.2,.61Zm6.63,.19c.57,0,1.13,.06,1.69,.18,.81,.14,1.35,.9,1.21,1.71,0,.03-.01,.07-.02,.1-.17,.79-.95,1.29-1.74,1.14-.36-.07-.72-.11-1.08-.11-2.94,0-5.34,2.37-5.34,5.32,0,2.94,2.37,5.34,5.32,5.34,.97,0,1.92-.26,2.76-.76h0c-.69,.48-.86,1.42-.39,2.11,.28,.41,.75,.66,1.26,.66,.13,.02,.26,.02,.39,0h0c-4.03,2.21-9.09,.75-11.3-3.28s-.75-9.09,3.28-11.3c1.23-.68,2.61-1.03,4.02-1.03l-.05-.08Zm4.43,5.36c-.46-.68-.28-1.61,.4-2.08,.68-.46,1.61-.28,2.08,.41,2.51,3.76,1.56,8.85-2.15,11.44,.24-.28,.37-.63,.37-1,0-.84-.68-1.52-1.52-1.52h-.01c-.25,0-.5,.06-.72,.18h0c2.47-1.6,3.19-4.89,1.59-7.37l-.04-.06Zm0,10.06h0Zm-8.71,4.21c.18-.8,.98-1.3,1.78-1.12h0c.78,.17,1.57,.26,2.37,.26,1.88,0,3.72-.5,5.33-1.46-.33,.29-.52,.7-.52,1.14-.01,.84,.66,1.53,1.5,1.54,.01,0,.03,0,.04,0,.19,0,.38-.04,.55-.11h0c-2.08,1.25-4.46,1.91-6.88,1.91-1.01,0-2.02-.12-3-.34-.81-.17-1.33-.96-1.16-1.77v-.02l-.02-.03Zm11.15,.18l.13-.08-.13,.08Zm-.08-2.76c-.18-.08-.38-.12-.58-.12-.21,0-.41,.04-.6,.12h0c2.22-1.46,3.8-3.7,4.43-6.28-.01,.08-.01,.15,0,.23,0,.83,.66,1.51,1.49,1.51,.62,0,1.19-.38,1.41-.96h0c-.82,3.29-2.86,6.14-5.69,8h0c.34-.29,.53-.71,.53-1.15-.04-.59-.42-1.11-.97-1.32l-.02-.03Zm-1.4,.12h0Zm7.65-6.18h0Zm0,0h0c0-.83-.68-1.49-1.51-1.49-.65,0-1.22,.43-1.42,1.05,.16-.73,.24-1.47,.24-2.22,0-4.88-3.38-9.11-8.14-10.2h.21c.83,0,1.5-.67,1.5-1.5,0-.64-.4-1.2-1-1.42,7.17,1.63,11.69,8.74,10.12,15.92,0,0,.01-.07,.01-.14h-.01Zm0,.25h0Zm-23-18c-.34,.28-.53,.7-.53,1.14-.05,.84,.59,1.56,1.43,1.61h.01c.21,0,.42-.04,.62-.13-6.7,4.52-8.66,13.52-4.43,20.42-.51-.66-1.46-.77-2.12-.26-.36,.28-.57,.71-.58,1.16,0,.24,.06,.48,.17,.69-5.14-8.3-2.77-19.18,5.36-24.59l.07-.04Zm19.59,30.48c-8.44,5.22-19.51,2.68-24.83-5.7h0c.29,.38,.74,.61,1.22,.61,.82,0,1.49-.66,1.5-1.48h0c0-.26-.06-.5-.18-.71h0c4.46,6.97,13.69,9.06,20.72,4.69h0c-.67,.49-.82,1.44-.33,2.11,.28,.38,.72,.61,1.19,.62,.25,0,.49-.06,.71-.18v.04Zm.21-.13c.38-.29,.6-.74,.6-1.21,0-.83-.67-1.5-1.5-1.5-.25,0-.49,.06-.7,.18h0c6.97-4.45,9.08-13.67,4.73-20.71,.28,.34,.71,.54,1.15,.54,.83,0,1.51-.68,1.51-1.51h0c0-.21-.04-.41-.11-.59,5.2,8.43,2.67,19.47-5.68,24.8Zm56-9h.29v2h.79v.24h-1.08v-2.24Zm-41.84-19.6c0-.62,.49-1.12,1.11-1.13s1.12,.49,1.13,1.11c0,.61-.49,1.12-1.1,1.13-.62,0-1.13-.49-1.14-1.11Zm.36,3.84c-.1-.42,.16-.84,.58-.94,.42-.1,.84,.16,.94,.58,.03,.12,.03,.24,0,.35v10.89c.03,.47-.32,.88-.79,.93-.44,0-.73-.42-.73-.93v-10.89Zm.41,15.82v2.25h-.29v-2.25h.29Zm.89,6.26l-.52-.92h-.35v.91h-.29v-2.24h.72c.53,0,.78,.29,.78,.66,0,.32-.22,.6-.54,.65l.57,.93h-.37Zm.54-3.99h-.29v-2.25h.29l1.18,1.78v-1.78h.29v2.25h-.29l-1.18-1.79v1.79Zm2.08,2h-.92v.75h.78v.24h-.82v.77h.92v.24h-1.21v-2.24h1.21l.04,.24Zm.33-4v-.24h1.53v.24h-.61v2h-.29v-2h-.63Zm1.83,6h-1.08v-2.24h.29v2h.79v.24Zm-.06-7.88c-.47-.04-.81-.45-.77-.92h0v-13.34c-.07-.42,.22-.82,.64-.88,.42-.07,.82,.22,.88,.64,.01,.08,.01,.17,0,.25v1.11c.97-1.23,2.43-1.97,4-2,3.06,0,5.53,2.86,5.53,6.38s-2.47,6.37-5.53,6.37c-1.57-.03-3.03-.77-4-2v3.44c.05,.46-.29,.87-.75,.92v.04Zm.75,1.62h1.21v.24h-.92v.75h.82v.24h-.82v.77h.92v.25h-1.2v-2.25Zm1.75,6.26l-.18-.49h-1l-.18,.49h-.31l.81-2.22h.34l.8,2.22h-.28Zm.82-4h-.29v-2.25h.72c.52,0,.77,.3,.77,.66,.01,.32-.21,.6-.53,.65l.56,.94h-.35l-.53-.92h-.36v.92Zm1.88,2h-.61v2h-.3v-2h-.61v-.24h1.52v.24Zm1.29,2h-.29v-2.24h.29v2.24Zm.86-4h-.29l-1.18-1.79v1.79h-.29v-2.25h.29l1.18,1.78v-1.78h.29v2.25Zm1.29,4c-.64,.01-1.16-.49-1.17-1.13s.49-1.16,1.13-1.17c.64-.01,1.16,.49,1.17,1.13v.02c.03,.61-.44,1.14-1.05,1.17-.03,0-.05,0-.08,0v-.02Zm1.36-4l-.18-.5h-1l-.18,.5h-.31l.81-2.23h.34l.81,2.23h-.29Zm2.56,4h-.3l-1.17-1.78v1.78h-.33v-2.24h.3l1.17,1.78v-1.78h.3l.03,2.24Zm.08-6h-.61v2h-.27v-2h-.61v-.24h1.52l-.03,.24Zm.3-4.24c-.47-.04-.82-.45-.78-.91v-10.94c-.04-.47,.3-.88,.76-.93h.02c.46,.06,.79,.47,.75,.93v1.17c1.09-1.33,2.71-2.11,4.43-2.12h.6c.35,.04,.62,.34,.62,.69,0,.38-.31,.69-.69,.69h-.53c-2.17,.07-4,1.63-4.43,3.76v6.68c.06,.46-.26,.88-.72,.95h-.03v.03Zm.66,4h.29v2.25h-.29v-2.25Zm.81,6.29c-.45,0-.77-.25-.78-.62h.31c.03,.23,.23,.4,.46,.37h0c.28,0,.45-.16,.45-.37,0-.61-1.22-.22-1.22-1.06,0-.37,.3-.62,.75-.62,.36-.04,.69,.22,.74,.58h-.32c-.04-.2-.23-.34-.44-.33-.24,0-.43,.12-.43,.36,0,.58,1.21,.22,1.21,1,0,.37-.31,.67-.68,.66-.02,0-.04,0-.06,0v.03Zm1.63-4c-.64,.01-1.16-.49-1.17-1.13-.01-.64,.49-1.16,1.13-1.17,.64-.01,1.16,.49,1.17,1.13v.02c0,.61-.51,1.11-1.12,1.1h-.01v.05Zm3.44,4h-.29l-1.18-1.78v1.78h-.25v-2.24h.29l1.18,1.78v-1.78h.29l-.04,2.24Zm.48-4h-.3l-1.17-1.79v1.79h-.3v-2.25h.3l1.17,1.78v-1.78h.3v2.25Zm1.87,2h-.92v.75h.85v.24h-.82v.77h.92v.24h-1.21v-2.24h1.21l-.03,.24Zm.59-2.51h-1l-.18,.5h-.31l.81-2.23h.34l.81,2.23h-.31l-.16-.5Zm1.87,2.51h-.61v2h-.29v-2h-.63v-.24h1.52v.24Zm.7-2h-1.08v-2.25h.29v2h.79v.25Zm2.48,4h-.33l-.52-1.8-.54,1.8h-.31l-.62-2.25h.31l.49,1.9,.54-1.9h.28l.51,1.9,.49-1.9h.32l-.62,2.25Zm.69-5h-.39v.94h-.29v-2.25h.72c.53,0,.78,.29,.78,.66s-.21,.68-.82,.68v-.03Zm1.94,5c-.63,.02-1.16-.48-1.18-1.12s.48-1.16,1.12-1.18c.63-.02,1.16,.48,1.18,1.12v.03c0,.61-.49,1.11-1.1,1.12,0,0-.01,0-.02,0v.03Zm1.52-4.87c.05,.47-.29,.89-.75,.94-.47,.05-.89-.29-.94-.75,0-.06,0-.12,0-.18v-1.42h.3v1.42c0,.3,.25,.55,.55,.55s.55-.25,.55-.55v-1.42h.29v1.42Zm.51-6.29c.07,.39-.2,.76-.59,.83s-.76-.2-.83-.59c-.01-.08-.01-.16,0-.24v-5.07h0v-.36c0-2.78-1.82-5-4.18-5s-4,2.26-4,5v5.38c.08,.42-.19,.83-.61,.92s-.83-.19-.92-.61c-.02-.1-.02-.2,0-.3v-10.93c-.05-.47,.3-.88,.76-.93h0c.46,.05,.8,.46,.76,.93v1.09c.96-1.23,2.43-1.97,4-2,3.07,0,5.6,2.6,5.6,6.44v.37h0v5.08Zm1.3,11.13l-.54-.91h-.35v.91h-.29v-2.24h.72c.53,0,.78,.29,.78,.66,0,.32-.22,.6-.54,.65l.57,.93h-.35Zm.16-4h-.82v-2.25h.81c.47,0,.71,.26,.71,.57,0,.25-.16,.46-.4,.52,.26,.05,.45,.28,.45,.55-.02,.3-.29,.57-.75,.57v.04Zm2.47,4l-.93-1v1h-.29v-2.24h.29v1l.93-1h.37l-1,1.12,1,1.12h-.37Zm1.62-4h-.29v-2.25h.29v2.25Zm2.15-.24c.3,.02,.57-.15,.69-.42h.35c-.16,.41-.56,.68-1,.67-.63-.06-1.1-.62-1.04-1.25,.05-.55,.49-.99,1.04-1.04,.44,0,.84,.27,1,.68h-.35c-.12-.27-.39-.44-.69-.42-.49,0-.89,.4-.89,.89,0,.49,.4,.89,.89,.89Z"></path><path class="cls-1" d="M147.78,115.86h-.51v.79h.52c.29,0,.47-.14,.47-.39s-.19-.4-.48-.4Z"></path><path class="cls-1" d="M148.2,115.26c0-.22-.15-.37-.44-.37h-.49v.73h.5c.23,0,.43-.13,.43-.36Z"></path></g></svg> 