<?xml version="1.0" encoding="UTF-8"?> <svg xmlns="http://www.w3.org/2000/svg" id="Bold_Commerce" width="600" height="400" viewBox="0 0 600 400"><defs><style>.cls-1{fill:#3a357e;}</style></defs><rect class="cls-1" x="416.92" y="144.53" width="29.89" height="109.25"></rect><path class="cls-1" d="M370.23,172.38c-22.96,.28-41.34,19.12-41.06,42.08,.28,22.96,19.12,41.34,42.08,41.06,22.76-.28,41.06-18.81,41.07-41.57-.16-23.09-18.99-41.7-42.08-41.57Zm0,53.61c-6.62,.21-12.16-4.99-12.37-11.6-.21-6.62,4.99-12.16,11.6-12.37,6.62-.21,12.16,4.99,12.37,11.6,0,.13,0,.26,0,.39,.06,6.49-5.13,11.8-11.61,11.92v.06Z"></path><path class="cls-1" d="M505.04,144.53v66.43c0,12.7-6.86,14.97-11.84,14.97-6.38-.08-11.49-5.32-11.41-11.7,0-.09,0-.18,0-.28,.18-6.15,5.25-11.03,11.4-10.96,2.66-.02,5.24,.88,7.31,2.55v-32.52c-2.42-.38-4.86-.57-7.31-.58-22.96,0-41.57,18.61-41.57,41.57s18.61,41.57,41.57,41.57,41.8-16.8,41.8-44.49v-66.57h-29.96Z"></path><path class="cls-1" d="M269.89,144.53v66.43c0,12.7,6.87,14.97,11.84,14.97,6.38-.08,11.49-5.32,11.41-11.7,0-.09,0-.18,0-.28-.18-6.15-5.25-11.03-11.4-10.96-2.66-.02-5.24,.88-7.31,2.55v-32.52c2.42-.38,4.86-.57,7.31-.58,22.96,0,41.57,18.61,41.57,41.57s-18.61,41.57-41.57,41.57-41.8-16.8-41.8-44.49v-66.57h29.96Z"></path><path class="cls-1" d="M189.58,130.83H78.81c-7.62,.02-13.79,6.19-13.81,13.81v110.71c0,7.62,6.16,13.8,13.78,13.81h110.73c7.63,0,13.81-6.18,13.81-13.81v-110.76c.02-7.59-6.12-13.75-13.71-13.77h-.03Zm-54.21,110.95c-17.61,0-31.5-12.7-31.5-33.53v-50.05h22.57v50.05c0,9.56,5.19,11.29,8.92,11.29,4.78-.05,8.61-3.96,8.56-8.74,0-.09,0-.17,0-.26-.12-4.63-3.92-8.3-8.55-8.25-2,0-3.94,.7-5.49,1.98v-24.55c1.81-.3,3.65-.44,5.49-.44,17.27-.37,31.57,13.34,31.93,30.6,.37,17.27-13.34,31.57-30.6,31.93-.44,0-.89,0-1.33,0v-.03Z"></path></svg> 