<?xml version="1.0" encoding="UTF-8"?> <svg xmlns="http://www.w3.org/2000/svg" id="Grapeshot" width="600" height="400" viewBox="0 0 600 400"><defs><style>.cls-1{fill:#3a357e;}</style></defs><path class="cls-1" d="M385.3,221.97c-10.12,0-18.62-4.29-24.12-12.16-.36-.5-.2-1.2,.31-1.53l8.22-5.32c.5-.33,1.14-.17,1.51,.31,3.23,4.46,7.97,6.72,14.08,6.72,2.04,0,12.24-.36,12.43-7.39,.03-1.45-.47-2.17-.92-2.65-1.25-1.28-3.79-2.09-6.66-2.09h-7.5c-7.33,0-13.21-2.09-17.03-6.02-3.12-3.23-4.71-7.5-4.57-12.38,.25-8.98,8.87-18.07,24.84-18.07,9.93,0,18.4,5.1,22.58,10.15,.39,.5,.31,1.23-.22,1.59l-7.97,5.74c-.45,.31-1.06,.28-1.42-.14-1.98-2.12-6.77-5.38-12.99-5.38-8.75,0-12.8,3.76-12.88,6.44-.06,2.4,.89,3.37,1.2,3.68,1.48,1.53,4.57,2.4,8.48,2.4h7.5c6.24,0,11.65,2.04,15.25,5.72,2.93,3.01,4.43,6.94,4.29,11.32-.36,13.21-12.52,19.07-24.39,19.07"></path><path class="cls-1" d="M66.17,178.87c3.43-3.43,7.97-5.32,12.82-5.32s9.4,1.9,12.82,5.32,5.3,7.97,5.3,12.82-1.9,9.4-5.3,12.82c-3.43,3.43-7.97,5.32-12.82,5.32s-9.4-1.9-12.82-5.32c-3.43-3.43-5.3-7.97-5.3-12.82s1.87-9.4,5.3-12.82m-2.62,80.24l-.08-.06c-2.04-1.95-3.35-4.54-3.71-7.33-.03-.36-.06-.7-.06-1.03,0-6.8,4.88-11.82,11.88-12.24,.36-.03,.64-.03,.92-.03l12.21-.03c.67,0,1.98,0,2.04,.03,6.86,.36,11.37,5.1,11.49,12.1-.17,4.1-2.31,7.86-5.77,10.06l-.08,.06c-.47,.31-.92,.53-1.34,.75-3.37,1.76-7.64,2.73-12.04,2.73s-8.5-.92-11.85-2.62l-.06-.03c-1.25-.59-2.4-1.34-3.4-2.26-.03-.03-.08-.08-.14-.11m36.33-27.27c-1.62-1.2-3.35-2.15-5.19-2.84-2.68-1.03-5.21-1.53-7.72-1.53h-17.84c-1.45-.03-2.43-.59-3.09-1.06-.86-.59-1.48-1.64-1.73-2.37-.47-1.37-.11-2.9,1-3.96l1-.89c3.99,1.84,8.25,2.79,12.66,2.79,16.64,0,30.19-13.58,30.19-30.25s-13.55-30.25-30.19-30.25-30.19,13.58-30.19,30.25c0,7.36,2.68,14.44,7.53,19.96l.06,.06,.03,.03c.28,.36,.33,.89,.14,1.37-.11,.28-.28,.56-.5,.84-2.62,3.46-3.46,7.44-2.56,12.18,.39,2.12,1.31,4.04,2.93,6.02l.5,.64c-4.93,4.21-7.86,10.4-8.06,16.95v.5c0,1.06,.06,2.15,.2,3.23,.28,2.01,.78,3.96,1.53,5.8,1.84,4.49,5.1,8.34,9.2,10.85,1.2,.72,2.45,1.34,3.74,1.81,3.29,1.37,6.94,2.26,10.85,2.68,1.62,.17,3.21,.25,4.74,.25,6.13,0,11.99-1.23,16.92-3.54,.06-.03,.11-.06,.2-.08l.25-.14c.11-.06,.25-.11,.36-.2,4.96-2.54,8.81-6.83,10.85-12.13,1.03-2.68,1.56-5.52,1.56-8.42-.06-7.3-3.51-14.25-9.34-18.54"></path><path class="cls-1" d="M507.83,161.44c-16.67,0-30.19,13.55-30.19,30.25s13.52,30.25,30.19,30.25,30.19-13.55,30.19-30.25-13.52-30.25-30.19-30.25m0,11.82c10.15,0,18.4,8.28,18.4,18.43s-8.25,18.43-18.4,18.43-18.4-8.25-18.4-18.43,8.25-18.43,18.4-18.43"></path><path class="cls-1" d="M187.55,210.09c-10.12,0-18.34-8.25-18.34-18.37s8.22-18.4,18.34-18.4,18.37,8.25,18.37,18.4c-.03,10.12-8.25,18.37-18.37,18.37m30.17-17.29c0-.36,.03-.75,.03-1.12,0-16.7-13.52-30.25-30.22-30.25s-30.19,13.55-30.19,30.25,13.52,30.25,30.19,30.25c6.69,0,12.88-2.17,17.87-5.88h0l.03-.03c.06-.03,.11-.06,.17-.06,.2,0,.33,.14,.33,.33v4.8c0,.45,.36,.84,.84,.84h10.15c.45,0,.84-.36,.84-.84,0,.03-.03-28.24-.03-28.3"></path><path class="cls-1" d="M255.52,210.01c-10.12,0-18.34-8.22-18.34-18.34s8.22-18.34,18.34-18.34,18.32,8.22,18.32,18.34-8.22,18.34-18.32,18.34m0-48.57c-16.67,0-30.17,13.52-30.17,30.19,0,.36,.03,.75,.03,1.12,0,.06-.03,.11-.03,.17v55.17c0,.45,.36,.84,.84,.84h10.12c.45,0,.84-.36,.84-.84v-31.84c0-.2,.14-.33,.33-.33,.06,0,.11,0,.17,.06h.03c4.99,3.68,11.18,5.85,17.84,5.85,16.64,0,30.17-13.52,30.17-30.19,0-16.67-13.52-30.19-30.17-30.19"></path><path class="cls-1" d="M469.89,187.18c-.33-14.27-11.96-25.73-26.29-25.73-5.27,0-10.18,1.56-14.27,4.21v-30.39c0-.42-.36-.78-.78-.78h-10.45c-.45,0-.78,.36-.78,.78v52.5h0v33.43c0,.42,.36,.78,.78,.78h10.45c.45,0,.78-.36,.78-.78v-33.54c.06-7.83,6.44-14.19,14.27-14.19s14.22,6.36,14.27,14.19v33.54c0,.42,.36,.78,.78,.78h10.45c.45,0,.78-.36,.78-.78v-34.01"></path><path class="cls-1" d="M143.98,161.5c-15.05,0-27.27,12.21-27.32,27.29v32.23c0,.45,.36,.81,.81,.81h10.85c.45,0,.81-.36,.81-.81v-32.2c.03-8.17,6.66-14.83,14.83-14.83,2.73,0,5.3,.75,7.5,2.04,.36,.22,.84,.14,1.09-.22l6.22-8.92c.28-.39,.17-.92-.22-1.17-4.18-2.68-9.2-4.21-14.55-4.21"></path><path class="cls-1" d="M587.34,216.62l-6.22-8.89c-.25-.36-.72-.45-1.09-.22-2.2,1.28-4.74,2.04-7.47,2.04-8.14,0-14.78-6.64-14.78-14.78v-21.38h21.44c.45,0,.81-.36,.81-.81v-10.37c0-.45-.36-.84-.81-.84h-21.44v-26.07c0-.45-.36-.81-.81-.81h-10.82c-.45,0-.81,.36-.81,.81v59.47c.03,15.03,12.21,27.21,27.24,27.21,5.35,0,10.34-1.53,14.55-4.21,.36-.25,.47-.78,.2-1.14"></path><path class="cls-1" d="M305.87,185.98c2.4-7.36,9.31-12.69,17.45-12.69s15.05,5.32,17.45,12.69h-34.9Zm47.67,5.69c0-17.42-14.69-31.39-32.34-30.17-14.89,1.03-26.96,13.1-27.99,28.02-1.23,17.68,12.74,32.4,30.14,32.4,11.32,0,21.1-6.16,26.29-15.42h0c.06-.08,.11-.17,.14-.25,.11-.22,.11-.47-.03-.67-.11-.2-.33-.33-.59-.33h-13.21c-.17,0-.33,.06-.45,.17-.28,.25-.59,.47-.92,.72h0c-3.12,2.43-7,3.9-11.24,3.9-8.31,0-15.33-5.58-17.59-13.16h46.64c.36,0,.67-.25,.75-.61,.22-1.23,.39-2.09,.39-2.93,0-.11,.03-.2,.03-.2-.06-.5-.03-.98-.03-1.48"></path><path class="cls-1" d="M48.8,143.27c0,10.04-8.11,18.18-18.15,18.18s-18.15-8.14-18.15-18.18,8.11-18.15,18.15-18.15c10.04-.03,18.15,8.11,18.15,18.15"></path></svg> 