<?xml version="1.0" encoding="UTF-8"?> <svg xmlns="http://www.w3.org/2000/svg" id="The_Wall_Street_Journal" width="600" height="400" viewBox="0 0 600 400"><defs><style>.cls-1{fill:#3a357e;}</style></defs><g><path class="cls-1" d="M374.48,140.74h-43.6v-3.2h2.24c2.89,0,4.59-1.38,4.59-4.91V63.59c0-3.52-1.71-4.91-4.59-4.91h-2.35v-3.2h43.71v29.31h-2.87v-.32c0-17.37-5.29-25.26-14.96-25.26h-7.22v35.38h1.83c5.45,0,8.01-5.22,8.01-16.19v-.32h2.89v36.87h-2.89v-.22c0-10.82-2.41-16.31-8.01-16.31h-1.83v38.58h6.73c9.56,0,15.39-9.27,15.39-25.16v-.31h2.89l.04,29.2Z"></path><path class="cls-1" d="M328,140.74h-25.54v-3.2h2.14c2.89,0,4.7-1.38,4.7-4.91v-33.46h-18.7v33.46c0,3.54,1.82,4.91,4.7,4.91h2.24v3.2h-25.64v-3.2h2.3c2.89,0,4.7-1.38,4.7-4.91V63.59c0-3.52-1.82-4.91-4.7-4.91h-2.25v-3.2h25.64v3.2h-2.24c-2.89,0-4.7,1.38-4.7,4.91v31h18.7v-31c0-3.52-1.82-4.91-4.7-4.91h-2.19v-3.2h25.54v3.2h-2.25c-2.89,0-4.7,1.38-4.7,4.91v69.05c0,3.54,1.82,4.91,4.7,4.91h2.25v3.2Z"></path><path class="cls-1" d="M270.51,85.01h-2.89v-.32c0-13.75-5.22-25.46-11.33-25.46h-2.55v73.36c0,3.54,1.8,4.91,4.7,4.91h2.67v3.2h-26.3v-3.15h2.41c2.89,0,4.7-1.38,4.7-4.91V59.21h-2.25c-6.11,0-11.32,10.97-11.32,25.46v.32h-2.89v-29.51h44.99l.05,29.53Z"></path></g><g><path class="cls-1" d="M247.73,239.61h-43.1v-3.2h2.98c2.9,0,4.71-1.29,4.71-4.81v-69.26c0-3.51-1.82-4.81-4.71-4.81h-2.35v-3.18h25.44v3.2h-2.03c-2.89,0-4.7,1.27-4.7,4.81v73.52h6.3c11.52,0,14.54-13.11,14.54-25.26v-.31h2.92v29.3Z"></path><path class="cls-1" d="M203.14,239.61h-43.07l1.71-3.2h1.29c2.89,0,4.69-1.29,4.69-4.81v-69.26c0-3.51-1.8-4.81-4.69-4.81h-2.41v-3.18h25.44v3.2h-1.98c-2.89,0-4.7,1.27-4.7,4.81v73.52h6.31c11.51,0,14.52-13,14.52-25.38v-.31h2.9v29.42Z"></path><path class="cls-1" d="M125.86,157.55h-.81c-4.1,0-6.23,.76-7.7,7.78l-15.63,74.9h-4.81l-9.72-49.01h-.11l-9.93,49.01h-4.81l-15.3-76.81c-.97-4.91-2.41-5.87-6.72-5.87h-.32v-3.2h23.19v3.2h-.42c-3.34,0-4.17,1.2-4.17,3.4-.02,.64,.02,1.29,.11,1.92l9.72,51.99h.22l6.3-34.19-3.31-17.26c-.83-4.27-1.79-5.87-5.23-5.87h-.54v-3.2h22.85v3.2h-.42c-4.27,0-5.12,1.43-5.12,4.37,.03,.9,.13,1.79,.31,2.67l9.73,49.66h.2l9.19-49.77c.13-.67,.2-1.34,.2-2.02,0-3.42-1.13-4.91-5.66-4.91h-.64v-3.2h19.36v3.2Z"></path><path class="cls-1" d="M141.04,214.99l-6.36-37.73h-.22l-6.41,37.73h12.99Zm21.06,24.62h-24.26v-3.2h.64c4.43,0,5.77-1.2,5.77-3.61-.04-.86-.15-1.72-.32-2.56l-2.03-11.32h-14.53l-2.03,11.31c-.18,.84-.29,1.7-.32,2.56,0,2.63,1.05,3.61,5.46,3.61h.42v3.21h-18.27v-3.2h.96c3.73,0,5.88-.87,6.83-5.87l14.85-77.03h5.42l15.27,76.72c.91,4.63,3.32,6.18,5.35,6.18h.75l.04,3.2Z"></path><path class="cls-1" d="M550,183.88h-2.87v-.32c0-13.75-5.22-25.47-11.33-25.47h-2.57v73.42c0,3.54,1.82,4.91,4.71,4.91h2.66v3.2h-26.28v-3.2h2.41c2.89,0,4.7-1.38,4.7-4.91v-73.36h-2.25c-6.11,0-11.32,10.98-11.32,25.47v.32h-2.89v-29.59h44.98l.05,29.53Z"></path><path class="cls-1" d="M501.28,239.61h-43.61v-3.2h2.25c2.89,0,4.59-1.38,4.59-4.91v-69.05c0-3.52-1.71-4.91-4.59-4.91h-2.35v-3.2h43.71v29.31h-2.89v-.32c0-17.37-5.29-25.26-14.96-25.26h-7.22v35.38h1.83c5.45,0,8.01-5.22,8.01-16.2v-.31h2.89v36.86h-2.89v-.2c0-10.76-2.41-16.31-8.01-16.31h-1.8v38.58h6.75c9.55,0,15.38-9.27,15.38-25.16v-.31h2.89l.02,29.2Z"></path><path class="cls-1" d="M454.69,239.61h-43.6v-3.2h2.24c2.89,0,4.59-1.38,4.59-4.91v-69.05c0-3.52-1.71-4.91-4.59-4.91h-2.35v-3.2h43.71v29.31h-2.89v-.32c0-17.37-5.29-25.26-14.96-25.26h-7.22v35.38h1.83c5.44,0,8.01-5.22,8.01-16.2v-.31h2.89v36.86h-2.89v-.2c0-10.76-2.41-16.31-8.01-16.31h-1.83v38.58h6.73c9.56,0,15.39-9.27,15.39-25.16v-.31h2.89l.05,29.2Z"></path><path class="cls-1" d="M356.26,183.88h-2.89v-.32c0-13.75-5.21-25.47-11.32-25.47h-2.57v73.42c0,3.54,1.82,4.91,4.7,4.91h2.67v3.2h-26.28v-3.2h2.41c2.89,0,4.7-1.38,4.7-4.91v-73.36h-2.25c-6.11,0-11.33,10.98-11.33,25.47v.32h-2.87v-29.59h44.98l.05,29.53Z"></path><path class="cls-1" d="M311.17,218.92c0,15.09-9.16,21.31-19.88,21.31-7.78,0-11.33-2.55-15.07-5.1l-2.03,4.47h-2.24v-29.31h2.89v.85c0,20.57,10.38,25.26,15.63,25.26,7.93,0,11.44-4.55,11.44-13.53,0-9.81-6.18-16.95-15.07-23.66-8.06-6.1-15.49-13.54-15.49-26s7.93-19.51,17.41-19.51c7.89,0,11.57,3.2,13.67,5l2.14-4.15h2.08v29.41h-2.9v-.89c0-16-4.81-25.58-14.31-25.58-6.01,0-9.19,4.23-9.19,10.98,0,8.01,4.74,12.57,13.57,19.4,9.8,7.6,17.34,15.56,17.34,31.04Z"></path><path class="cls-1" d="M393.14,175.24c0-13.33-5.28-17.16-12.51-17.16h-2.78v35.92h3.21c7.54,0,12.07-5.11,12.07-18.76Zm17.21,52.74c0,7.16-2.73,12.26-9.73,12.26s-9.98-5.18-10.48-15.77l-.75-15.88c-.4-8.42-3.61-10.66-8.42-10.66h-3.1v33.57c0,3.52,1.38,4.91,4.27,4.91h2.99v3.2h-26.1v-3.2h2.47c2.89,0,4.7-1.38,4.7-4.91v-69.05c0-3.52-1.82-4.91-4.7-4.91h-2.47v-3.2h23.39c14.14,0,22.98,7.22,22.98,20.67s-9.83,19.4-18.5,21.11v.18c7.12,.73,13.59,6.01,14.01,14.06l.95,18.64c.19,3.7,.65,4.81,2.41,4.81,2.13,0,2.56-1.61,2.56-7.16v-3.05h3.54l-.04,4.37Z"></path></g><g><path class="cls-1" d="M453.71,343.85h-43.07l1.71-3.2h1.35c2.89,0,4.7-1.29,4.7-4.81v-69.25c0-3.51-1.82-4.81-4.7-4.81h-2.41v-3.2h25.42v3.2h-2.02c-2.89,0-4.7,1.29-4.7,4.81v73.53h6.3c11.52,0,14.53-13,14.53-25.26v-.32h2.89v29.31Z"></path><path class="cls-1" d="M468.58,338.61c0,3.21-2.41,5.86-4.93,5.86s-4.91-2.65-4.91-5.86,2.41-5.75,4.91-5.75,4.93,2.55,4.93,5.75Z"></path><path class="cls-1" d="M367.59,261.79h-2.25c-2.67,0-4.81,2.02-4.81,6.18v76.19h-4.17l-26.72-67.13h-.2v57.44c0,4.16,2.13,6.18,4.81,6.18h2.13v3.2h-18.04v-3.21h2.47c2.67,0,4.81-2.02,4.81-6.18v-67.35c0-2.98-1.2-5.33-4.17-5.33h-3.1v-3.2h16.46l21.65,54.89h.2v-45.5c0-4.2-2.13-6.18-4.81-6.18h-2.24v-3.2h17.96l.04,3.2Z"></path><path class="cls-1" d="M269.38,261.79h-4.49c-2.67,0-4.27,2.24-4.27,6.18v56.8c0,11.32-3.79,19.7-16.03,19.7-13.02,0-20.63-7.96-20.63-19.7v-58.08c0-3.52-1.71-4.91-4.59-4.91h-2.35v-3.2h25v3.2h-1.61c-2.9,0-4.59,1.38-4.59,4.91v58.82c0,9.62,3.8,15.13,10.26,15.13s10.58-4.67,10.58-15.13v-57.55c0-3.94-1.5-6.18-4.17-6.18h-2.41v-3.2h19.29v3.2Z"></path><path class="cls-1" d="M172.78,261.79h-2.14c-2.9,0-4.7,1.38-4.7,4.91v59.51c0,13.35-8.42,18.32-19.13,18.32-7.67,0-15.38-6.25-15.38-18.32,0-6.48,4.05-9.27,7.22-9.27s5.77,2.41,5.77,6.4c0,5.14-3.02,7.3-6.94,7.89-.02,5.14,4.1,9.34,9.24,9.42,5.57,0,7.47-3.07,7.47-12.26v-61.7c0-3.52-1.7-4.91-4.58-4.91h-2.25v-3.2h25.44v3.21Z"></path><path class="cls-1" d="M391.63,319.23l-6.41-37.72h-.22l-6.41,37.72h13.04Zm21.05,24.62h-24.23v-3.21h.65c4.43,0,5.76-1.2,5.76-3.61-.04-.86-.14-1.72-.31-2.56l-2.03-11.29h-14.56l-2.02,11.29c-.19,.84-.29,1.7-.32,2.56,0,2.63,1.03,3.61,5.45,3.61h.43v3.2h-18.29v-3.2h.96c3.74,0,5.88-.87,6.84-5.86l14.85-77.04h5.45l15.29,76.72c.93,4.63,3.31,6.18,5.34,6.18h.75v3.21Z"></path><path class="cls-1" d="M300.9,279.48c0-13.33-5.27-17.15-12.51-17.15h-2.78v35.91h3.21c7.55,0,12.07-5.11,12.07-18.76Zm17.21,52.74c0,7.14-2.73,12.24-9.73,12.24s-9.97-5.18-10.46-15.77l-.76-15.88c-.4-8.42-3.61-10.64-8.42-10.64h-3.13v33.55c0,3.52,1.4,4.91,4.28,4.91h2.99v3.2h-26.07v-3.2h2.41c2.87,0,4.69-1.38,4.69-4.91v-69.03c0-3.52-1.82-4.91-4.69-4.91h-2.41v-3.2h23.39c14.14,0,22.98,7.22,22.98,20.67s-9.81,19.4-18.49,21.11v.22c7.12,.73,13.58,6.01,14,14.06l.96,18.65c.19,3.72,.65,4.81,2.35,4.81,2.14,0,2.56-1.61,2.56-7.14v-3.09h3.54v4.34Z"></path><path class="cls-1" d="M203.98,321.25v-40.28c0-14.73-3.28-19.18-9.3-19.18s-9.08,4.23-9.08,19.4v39.95c0,14.22,2.74,19.51,9.08,19.51s9.3-5.62,9.3-19.4Zm13.23-20.24c0,24.22-7.96,43.46-22.55,43.46s-22.23-19.24-22.23-43.46,7.65-43.06,22.23-43.06,22.57,18.82,22.57,43.06h-.02Z"></path></g></svg> 