<?xml version="1.0" encoding="UTF-8"?> <svg xmlns="http://www.w3.org/2000/svg" id="Innovid" width="600" height="400" viewBox="0 0 600 400"><defs><style>.cls-1{fill:#3a357e;}</style></defs><path class="cls-1" d="M541.7,173.97c-8.08-11.27-21.27-18.67-36.13-18.74-.07,0-.13-.01-.2-.01h-23.44v.05c-1.57,.09-3.13,.42-4.6,.93-4.09,1.42-7.62,4.4-9.59,8.64-.93,1.98-1.39,4.03-1.51,6.09v1.11h0v27.68c.27,6.37,3.93,12.36,10.1,15.22,2.16,1,4.44,1.51,6.69,1.6h2.9v-42.56h19.49c13.68,.67,23.47,11.69,23.47,25.61s-10.42,25.81-24.77,25.81h-49.68v8.57c0-5.56-.07-60.85-.07-60.85,0-3.79-.75-6.49-2-8.8l.04,.03s-.29-.54-.79-1.3c-.03-.05-.06-.1-.09-.14-.73-1.11-1.86-2.61-3.14-3.63-.96-.76-5.07-4.16-11.59-4.16s-13.09,3.5-16.92,12.91l-22.11,54.66c-7.33-17.48-23.86-58.37-23.86-58.37-2.93-5.69-8.8-9.63-15.63-9.63-2.41,0-4.69,.5-6.77,1.36l-.26,.13-2.4,1.11,.07,.15,32.95,78.52c.87,1.68,1.99,3.2,3.32,4.52,.12,.12,.24,.24,.36,.35,.01,.01,.03,.03,.04,.04,3.1,2.84,7.23,4.57,11.76,4.57,6.84,0,12.75-3.95,15.61-9.68l.05-.02,21.69-51.98,.04,43.66c.27,6.36,3.93,12.37,10.11,15.21,2.16,1.01,4.42,1.52,6.68,1.61h53.84c24.54,0,44.63-19.96,44.63-44.63,0-9.54-3.1-18.37-8.3-25.62Zm-101.5-3.34l-.09,.19c.03-.06,.06-.13,.09-.19Z"></path><path class="cls-1" d="M156.48,155.65h-12.79c-1.78,0-3.24,1.46-3.24,3.24v48.14c0,1.78-.88,2.07-1.96,.66l-37.64-49.47c-1.08-1.41-3.42-2.58-5.2-2.58h-11.52c-1.78,0-3.24,1.46-3.24,3.24v82.22c0,1.78,1.46,3.24,3.24,3.24h12.79c1.78,0,3.24-1.46,3.24-3.24v-49.91c0-1.79,.89-2.08,1.96-.67l39.03,51.24c1.08,1.41,3.42,2.57,5.2,2.57h10.13c1.78,0,3.23-1.46,3.23-3.24v-82.22c0-1.78-1.45-3.24-3.23-3.24Z"></path><path class="cls-1" d="M246.62,155.65h-12.79c-1.77,0-3.23,1.46-3.23,3.24v48.14c0,1.78-.88,2.07-1.96,.66l-37.64-49.47c-1.08-1.41-3.41-2.58-5.2-2.58h-11.52c-1.78,0-3.24,1.46-3.24,3.24v82.22c0,1.78,1.45,3.24,3.24,3.24h12.79c1.77,0,3.23-1.46,3.23-3.24v-49.91c0-1.79,.89-2.08,1.97-.67l39.02,51.24c1.08,1.41,3.42,2.57,5.21,2.57h10.12c1.78,0,3.25-1.46,3.25-3.24v-82.22c0-1.78-1.46-3.24-3.25-3.24Z"></path><path class="cls-1" d="M305.51,154.13c-27.37,0-47.27,20.66-47.27,45.87v.25c0,25.22,19.65,45.62,47.01,45.62s47.27-20.65,47.27-45.87v-.25c0-25.22-19.63-45.62-47.01-45.62Zm26.61,46.12c0,15.21-10.9,27.62-26.61,27.62s-26.87-12.67-26.87-27.87v-.25c0-15.22,10.9-27.63,26.61-27.63s26.88,12.67,26.88,27.88v.25Z"></path><path class="cls-1" d="M66.9,155.77h-14.2c-1.48,0-2.68,1.2-2.68,2.68l-.02,83.23c0,1.48,1.2,2.68,2.68,2.68h14.2c1.48,0,2.67-1.2,2.67-2.68l.02-83.23c0-1.48-1.21-2.68-2.68-2.68Z"></path></svg> 