<?xml version="1.0" encoding="UTF-8"?> <svg xmlns="http://www.w3.org/2000/svg" id="Infragistics" width="600" height="400" viewBox="0 0 600 400"><defs><style>.cls-1{fill:#3a357e;}</style></defs><path class="cls-1" d="M113.03,226.38v-53.48h8.61v53.48h-8.61Zm21.14,0v-55.51l33.94,32.68c.94,.94,1.87,1.88,2.81,3.02s1.88,2.19,3.02,3.6v-37.25h7.98v55.67l-34.56-33.31c-.93-.89-1.82-1.83-2.66-2.82-.92-.97-1.76-2.01-2.51-3.12v37.25h-7.97l-.05-.21Zm60.2,0v-53.48h29.87v7.35h-21.29v13.29h21.14v7.66h-21.14v25.17h-8.58Zm47.39-23.91v23.92h-8.13v-53.48h12.2c2.78-.09,5.55,.12,8.29,.62,1.84,.38,3.56,1.19,5.03,2.35,1.72,1.31,3.07,3.04,3.92,5.03,.96,2.11,1.44,4.41,1.41,6.73,0,4.22-1.1,7.66-3.13,10.01-2.01,2.51-5.16,3.91-9.23,4.38l18.45,24.39h-9.85l-17.83-23.92-1.13-.03Zm.62-6.73h1.57c4.53,0,7.66-.47,9.22-1.57,1.56-1.1,2.19-2.97,2.19-5.63,0-2.97-.79-5.03-2.51-6.25-1.56-1.26-4.69-1.88-9.06-1.88h-1.56v15.33h.14Zm68.46,30.65l-6.1-13.76h-21.25l-6.26,13.76h-9.06l25.95-55.62,25.84,55.62h-9.12Zm-24.1-20.95h14.86l-5.48-12.2c-.31-.79-.62-1.72-.94-2.66s-.62-2.19-1.1-3.44l-.94,3.28-.94,2.82-5.48,12.2Zm66.62-6.41h21.27v1.56c0,1.72,.16,2.97,.16,3.44,0,7.51-2.19,13.45-6.41,17.52s-10.33,6.25-18.3,6.25c-3.99,.06-7.96-.57-11.73-1.87-6.89-2.54-12.32-7.99-14.83-14.89-2.71-7.26-2.71-15.26,0-22.52,1.4-3.4,3.48-6.48,6.1-9.06,2.63-2.57,5.78-4.54,9.23-5.79,3.58-1.4,7.41-2.09,11.26-2.01,3.88-.07,7.73,.73,11.27,2.35,3.43,1.69,6.47,4.09,8.91,7.05l-6.41,4.82c-1.73-1.92-3.8-3.51-6.1-4.69-2.4-1.09-5.02-1.62-7.66-1.56-5.32-.18-10.47,1.85-14.23,5.63-3.6,3.76-5.48,8.6-5.48,14.54s1.87,10.95,5.48,14.71,8.44,5.63,14.23,5.63c5.03,0,8.92-1.1,11.73-3.44,2.83-2.34,4.39-5.87,4.23-9.53v-.79h-12.83v-7.35l.12,.02Zm30.66,27.36v-53.48h8.76v53.48h-8.76Zm18.12-10.63l6.89-3.28c.53,2.18,1.8,4.12,3.59,5.47,1.99,1.32,4.34,1.98,6.73,1.88,2.25,.13,4.45-.67,6.1-2.19,1.61-1.48,2.47-3.6,2.35-5.78,0-3.13-2.67-5.95-7.82-8.45-.79-.31-1.25-.62-1.72-.79-5.94-2.82-9.86-5.48-11.73-7.82-2.03-2.39-3.09-5.46-2.97-8.6-.16-4.01,1.44-7.89,4.38-10.63,3.21-2.75,7.34-4.19,11.57-4.03,3.44-.12,6.84,.69,9.86,2.35,2.57,1.44,4.53,3.77,5.48,6.56l-6.67,3.4c-.87-1.54-2.11-2.83-3.6-3.76-1.33-.76-2.85-1.14-4.38-1.1-2.05-.1-4.05,.57-5.63,1.88-1.37,1.22-2.11,3.01-2.01,4.84,0,3.29,2.97,6.26,9.06,9.06,.47,.16,.79,.47,1.1,.47,5.32,2.51,8.91,4.85,10.94,7.2,2.06,2.44,3.12,5.56,2.97,8.75,0,5.03-1.56,9.06-4.84,12.08s-7.51,4.53-12.98,4.53c-3.98,.12-7.89-.98-11.23-3.15-2.71-2.3-4.58-5.43-5.32-8.91h-.1Zm61.46-35.5v46.13h-8.73v-46.13h-14.22v-7.35h37.07v7.35h-14.12Zm20.95,46.13v-53.48h8.76v53.48h-8.76Zm64.17-40.52c-2.34-1.97-4.98-3.55-7.81-4.69-2.74-1.06-5.67-1.59-8.61-1.56-5.79,0-10.63,1.87-14.23,5.63s-5.48,8.6-5.48,14.54,1.72,10.48,5.32,14.24c3.49,3.71,8.38,5.76,13.47,5.65,3.1-.01,6.17-.59,9.06-1.72,3.01-1.22,5.81-2.92,8.29-5.03v10.01c-2.3,1.72-4.9,2.99-7.66,3.76-2.9,.82-5.9,1.25-8.91,1.26-3.9,.05-7.77-.63-11.42-2.01-3.45-1.34-6.59-3.37-9.23-5.95-2.61-2.56-4.64-5.65-5.94-9.06-2.71-7.15-2.71-15.05,0-22.2,1.4-3.4,3.48-6.48,6.1-9.06,2.54-2.63,5.64-4.66,9.06-5.95,3.53-1.39,7.29-2.07,11.07-2.01,3.07,0,6.13,.48,9.06,1.41,2.95,1,5.75,2.42,8.29,4.23l-.47,8.6,.04-.05Zm7.83,29.89l6.89-3.28c.53,2.18,1.8,4.12,3.59,5.47,1.99,1.32,4.34,1.98,6.73,1.88,2.25,.13,4.45-.67,6.1-2.19,1.61-1.48,2.47-3.6,2.35-5.78,0-3.13-2.67-5.95-7.82-8.45-.79-.31-1.25-.62-1.72-.79-5.94-2.82-9.86-5.48-11.73-7.82-2.05-2.38-3.13-5.45-3.02-8.6-.16-4.01,1.44-7.89,4.38-10.63,3.21-2.75,7.34-4.19,11.57-4.03,3.44-.12,6.84,.69,9.86,2.35,2.57,1.44,4.53,3.77,5.48,6.56l-6.68,3.4c-.87-1.54-2.11-2.83-3.6-3.76-1.33-.76-2.85-1.14-4.38-1.1-2.05-.1-4.05,.57-5.63,1.88-1.37,1.22-2.11,3.01-2.01,4.84,0,3.29,3.02,6.26,9.06,9.06,.47,.16,.79,.47,1.1,.47,5.32,2.51,8.91,4.85,10.94,7.2,2.06,2.44,3.12,5.56,2.97,8.75,0,5.03-1.56,9.06-4.84,12.08s-7.51,4.53-12.98,4.53c-3.99,.13-7.92-.96-11.27-3.13-2.76-2.25-4.64-5.41-5.32-8.91v-.02Zm41.45-39.88c0,2.32-1.87,4.21-4.2,4.22-.01,0-.02,0-.03,0-2.37,.02-4.31-1.85-4.38-4.22,.12-2.38,2.14-4.21,4.51-4.1,2.22,.11,3.99,1.88,4.1,4.1Zm-7.67,0c-.04,1.77,1.37,3.24,3.14,3.28,.05,0,.1,0,.15,0,1.7,.03,3.1-1.33,3.13-3.03,0-.08,0-.17,0-.25,.06-1.85-1.39-3.39-3.24-3.44h-.04c-1.79,.15-3.16,1.65-3.14,3.44h.01Zm2.66,2.18h-.94v-4.22c.31,0,.94-.16,1.57-.16,.49-.03,.97,.08,1.4,.31,.28,.24,.45,.58,.47,.95,0,.46-.31,.78-.94,.94,.46,.15,.62,.46,.78,1.1s.16,.94,.32,1.09h-1.1c-.16-.15-.16-.46-.31-1.09,0-.47-.31-.63-.95-.63h-.5v1.72h.19Zm0-2.35h.47c.47,0,.94-.15,.94-.62,0-.31-.31-.62-.94-.62h-.47v1.25Z"></path><path class="cls-1" d="M9.03,158.82v82.25H98.79v-82.25H9.03Zm13.94,13.94h14.36v14.24h-14.36v-14.24Zm61.62,54.26H31.87c-4.92-.01-8.9-4.01-8.89-8.93v-25.97h13.89v20.96h33.62v-26.43h-14.54v14.39h-13.45v-28.28h33.31c4.87,.03,8.79,4.01,8.76,8.88,0,.06,0,.12,0,.18l.03,45.2Z"></path></svg> 