<?xml version="1.0" encoding="UTF-8"?> <svg xmlns="http://www.w3.org/2000/svg" id="Wired" width="600" height="400" viewBox="0 0 600 400"><defs><style>.cls-1{fill:#3a357e;}</style></defs><polygon class="cls-1" points="72.33 239.24 72.33 255.12 87.91 255.12 87.91 239.24 72.33 239.24"></polygon><polygon class="cls-1" points="25 255.12 56.45 255.12 56.45 239.24 40.87 239.24 40.87 160.76 56.45 160.76 56.45 239.24 72.33 239.24 72.33 160.76 87.91 160.76 87.91 239.24 103.78 239.24 103.78 160.76 119.36 160.76 119.36 239.24 103.78 239.24 103.78 255.12 135.24 255.12 135.24 144.88 25 144.88 25 255.12"></polygon><polygon class="cls-1" points="213.72 223.66 213.72 239.24 166.39 239.24 166.39 223.66 182.27 223.66 182.27 176.34 166.39 176.34 166.39 160.76 197.85 160.76 197.85 223.66 213.72 223.66"></polygon><polygon class="cls-1" points="394.51 176.34 394.51 160.76 441.84 160.76 441.84 176.34 394.51 176.34"></polygon><polygon class="cls-1" points="394.51 176.34 394.51 192.21 441.84 192.21 441.84 207.79 394.51 207.79 394.51 223.66 378.93 223.66 378.93 176.34 394.51 176.34"></polygon><polygon class="cls-1" points="394.51 239.24 394.51 223.66 441.84 223.66 441.84 239.24 394.51 239.24"></polygon><path class="cls-1" d="M245.18,144.88v109.94h109.94v-109.94h-109.94Zm86.42,47.33h-15.58v15.58h15.58v31.45h-15.58v-31.45h-23.81v-15.58h23.81v-15.58h-31.45v62.61h-15.58v-62.91h15.58v-15.58h31.45v15.58h15.58v15.87h0Z"></path><polygon class="cls-1" points="541.19 176.34 517.38 176.34 517.38 223.66 541.19 223.66 541.19 176.34"></polygon><path class="cls-1" d="M465.06,144.88v109.94h109.94v-109.94h-109.94Zm91.72,78.78h-15.58v15.58h-54.97v-15.58h15.58v-47.03h-15.58v-15.58h54.97v15.58h15.58v47.03h0Z"></path></svg> 