<?xml version="1.0" encoding="UTF-8"?> <svg xmlns="http://www.w3.org/2000/svg" id="MIT_Technology_Review" width="600" height="400" viewBox="0 0 600 400"><defs><style>.cls-1{fill:#3a357e;}</style></defs><path class="cls-1" d="M146.12,64.88h15.78v82.73h-15.78V64.88ZM25,157.78v14.13h24.97v68.61h15.91v-68.62h24.98v-14.13H25ZM166.15,64.88v14.13h26.91v68.61h15.8V79h26.91v-14.13h-69.62ZM86.61,204.4h26.48c-.47-7.52-5.46-12.73-12.66-12.73-8.37,0-12.43,4.98-13.83,12.73Zm-15.8,6.37c0-17.58,12-31.24,29.39-31.24,19.17,0,29.39,14.57,29.39,35.76h-43.21c1.16,9.14,6.27,14.81,15.22,14.81,6.15,0,9.76-2.78,11.5-7.29h15.57c-2.18,10.53-11.62,19.43-26.95,19.43-19.75,0-30.9-13.77-30.9-31.52v.04Zm61.74,.08c0,17.7,11.73,31.35,30.55,31.35,15.92,0,25.79-10.06,26.83-22.68h-15.22c-1.09,6.72-5.58,10.06-12,10.06-9.65,0-14.19-7.52-14.19-18.75s4.88-18.75,14.4-18.75c2.62-.03,5.16,.87,7.16,2.55,2,1.68,3.33,4.02,3.75,6.59h15.45c-2.09-12.85-11.62-21.74-27.06-21.74-18.12,0-29.74,13.65-29.74,31.35h.05Zm76.21-53.1h-15.75v82.73h15.8v-33.69c0-8.1,5.11-13.65,12.08-13.65s10.34,4.51,10.34,10.87v36.44h15.8v-38.68c0-12.96-8.25-22.21-20.56-22.21-8.13,0-13.01,3.12-17.31,9.37h-.35l-.07-31.17Zm58.48,23.38h-15.41v59.35h15.8v-33.69c0-8.1,5.11-13.65,12.08-13.65s10.34,4.51,10.34,10.87v36.44h15.77v-38.68c0-12.96-8.25-22.21-20.56-22.21-8.13,0-13.59,3.36-17.66,9.72h-.35l-.02-8.14Zm87.77,29.8c0-11.57-5.46-19.43-15.1-19.43s-15.1,7.87-15.1,19.43,5.35,19.32,15.1,19.32,15.1-7.75,15.1-19.32Zm-46.24,0c0-17.7,12.66-31.35,31.13-31.35s31.13,13.65,31.13,31.35-12.66,31.35-31.13,31.35-31.13-13.68-31.13-31.35Zm65.47,29.62h15.8v-82.75h-15.75l-.05,82.75Zm65.34-29.62c0-11.57-5.45-19.43-15.1-19.43s-15.1,7.84-15.1,19.43,5.35,19.32,15.1,19.32,15.1-7.75,15.1-19.32Zm-46.24,0c0-17.7,12.66-31.35,31.13-31.35s31.13,13.65,31.13,31.35-12.66,31.35-31.13,31.35-31.13-13.68-31.13-31.35Zm107.57-2.66c0-8.69-4.65-16.08-14.18-16.08-8.02,0-13.36,6.25-13.36,16.19s5.35,15.97,13.48,15.97c10,0,14.05-7.29,14.05-16.08h0Zm-41.72,34.02h15.68c1.28,3.71,4.65,6.6,12,6.6,8.95,0,13.25-4.28,13.25-12.38v-6.52h-.35c-1.89,2.27-4.27,4.08-6.97,5.28-2.7,1.2-5.64,1.77-8.6,1.66-13.25,0-26.26-10.41-26.26-28.34s10.68-29.04,25.79-29.04c7.43,0,12.9,2.89,16.5,7.87h.23v-6.25h15.22v54.84c0,8.32-2.67,14-7.08,18.05-5,4.63-12.66,6.71-21.49,6.71-16.26,0-26.25-6.94-27.88-18.48h-.04Zm64.68,17.7h9.3c12.08,0,16.5-4.74,21.03-17.93l20.8-60.86h-15.95l-8.37,26.72c-1.85,5.43-3.48,12.95-3.48,12.95h-.22s-1.98-7.52-3.83-12.95l-8.83-26.72h-16.63l16.03,42.23c3.37,9.02,4.53,12.85,4.53,16.08,0,4.86-2.56,8.1-8.83,8.1h-5.58l.03,12.38Zm-457.45,27.85h20.24c8.83,0,13.35-4.04,13.35-11.34s-4.76-11.23-13.09-11.23h-20.49v22.56Zm16.52,13.65h-16.52v31.93h-16.49v-82.72h37.42c10.58,0,16.85,2.77,21.73,7.75,2.39,2.33,4.28,5.13,5.56,8.21,1.28,3.08,1.91,6.39,1.87,9.72,0,11.57-5.98,19.49-16.43,22.95l20.73,34.08h-18.55l-19.31-31.93Zm48.41-4.16h26.48c-.47-7.52-5.46-12.73-12.66-12.73-8.37,0-12.43,4.98-13.83,12.73Zm-15.8,6.36c0-17.58,12-31.24,29.39-31.24,19.17,0,29.39,14.57,29.39,35.75h-43.21c1.16,9.14,6.27,14.81,15.22,14.81,6.15,0,9.76-2.77,11.5-7.29h15.57c-2.18,10.53-11.62,19.43-26.95,19.43-19.75,0-30.9-13.77-30.9-31.52v.05Zm76.17,29.68h15.1l22.12-59.36h-15.79l-13.64,40.21h-.23l-13.5-40.14h-16.06l22,59.29Zm39.5,0h15.8v-59.29h-15.8v59.29Zm0-63.43h15.8v-14.13h-15.8v14.13Zm35.08,27.33h26.48c-.47-7.52-5.46-12.73-12.66-12.73-8.37,0-12.43,4.98-13.83,12.73Zm-15.8,6.36c0-17.58,12-31.24,29.39-31.24,19.16,0,29.39,14.57,29.39,35.75h-43.21c1.16,9.14,6.27,14.81,15.22,14.81,6.15,0,9.76-2.77,11.5-7.29h15.57c-2.18,10.53-11.62,19.43-26.95,19.43-19.75,0-30.9-13.77-30.9-31.52v.05Zm72.21,29.68h14.29l10.91-38.9h.23l10.57,38.9h14.4l17.81-59.23h-15.35l-10.22,37.93h-.23l-10.57-37.9h-13.48l-9.99,37.9h-.23l-9.82-37.9h-15.74l17.42,59.2ZM115.95,64.88l-19.64,60.64-20.53-60.64h-25.84v82.73h15.28V82.11l22.39,65.5h16.15l21.35-65.5v65.5h15.68V64.88h-24.85Z"></path></svg> 