<?xml version="1.0" encoding="UTF-8"?> <svg xmlns="http://www.w3.org/2000/svg" id="Maxymiser" width="600" height="400" viewBox="0 0 600 400"><defs><style>.cls-1,.cls-2{fill:#3a357e;}.cls-2{fill-rule:evenodd;}</style></defs><g><g><path class="cls-2" d="M218.92,339.34h-6.05l.04-15.73c0-3.26-1.46-4.9-4.39-4.91-1.7,0-3.07,.61-4.09,1.84-1.03,1.23-1.54,3.07-1.54,5.52l-.03,13.24h-6.12l.04-15.73c0-3.31-1.36-4.98-4.11-4.98-1.67,0-3.08,.66-4.21,1.99-1.15,1.33-1.72,3.15-1.72,5.44l-.03,13.24h-5.94l.06-25.25h5.59v5.39c1.82-3.93,4.67-5.89,8.52-5.88,3.76,0,6.2,1.98,7.32,5.92,2.07-3.93,4.91-5.89,8.54-5.88,2.46,0,4.44,.77,5.94,2.29,1.5,1.51,2.24,3.4,2.24,5.65l-.04,17.84h0Z"></path><path class="cls-2" d="M247.69,339.41h-5.49c-.49-1.54-.78-3.24-.87-5.11-1.55,3.74-4.44,5.61-8.67,5.6-2.54,0-4.59-.75-6.13-2.22-1.54-1.48-2.31-3.33-2.3-5.57,.02-5.79,5.17-8.68,15.47-8.66,.41,0,.96,.01,1.65,.03v-1.9c0-2.61-1.79-3.93-5.4-3.94-3.51,0-5.5,1.3-5.98,3.91l-4.91-.73c.28-2.1,1.37-3.82,3.31-5.18,1.92-1.35,4.71-2.02,8.35-2.02,1.98,0,3.58,.17,4.83,.5,1.24,.33,2.29,.88,3.16,1.66,.85,.78,1.45,1.62,1.78,2.53,.32,.91,.48,2.45,.47,4.61l-.02,11.39c0,1.65,.25,3.35,.75,5.1h0Zm-6.34-12.86c-7.45-.02-11.18,1.73-11.19,5.24,0,1.06,.37,1.95,1.11,2.69,.75,.74,1.89,1.12,3.4,1.12,2.2,0,3.85-.68,4.98-2.05,1.12-1.37,1.69-2.93,1.7-4.68v-2.32h0Z"></path><polygon class="cls-2" points="273.23 339.46 266.65 339.45 261.26 330.24 255.32 339.42 250.36 339.41 258.89 326.44 251.56 314.18 258.16 314.19 262.34 321.62 267.14 314.21 271.97 314.22 264.74 325.15 273.23 339.46 273.23 339.46"></polygon><path class="cls-2" d="M295.82,314.28l-10.01,28.71c-.61,1.77-1.44,3.13-2.49,4.11-1.06,.97-2.55,1.46-4.47,1.45-.76,0-1.87-.07-3.31-.18v-4.52l2.76,.05c1.22,0,2.12-.2,2.69-.58,.59-.39,1.04-1.08,1.39-2.09,.34-1,.51-1.58,.51-1.75,0-.1-.17-.61-.52-1.55l-8.73-23.71,6.04,.02,6.16,16.66,5.38-16.63h4.6Z"></path><path class="cls-2" d="M337.71,339.61h-6.04l.04-15.73c0-3.26-1.46-4.9-4.39-4.91-1.7,0-3.07,.61-4.09,1.84-1.02,1.23-1.54,3.07-1.54,5.52l-.03,13.24h-6.12l.04-15.73c0-3.31-1.36-4.98-4.11-4.98-1.67,0-3.07,.66-4.22,1.99-1.14,1.33-1.71,3.14-1.72,5.44l-.03,13.24h-5.95l.06-25.25h5.59v5.39c1.82-3.93,4.66-5.89,8.52-5.88,3.76,0,6.2,1.98,7.32,5.92,2.07-3.93,4.91-5.89,8.54-5.88,2.46,0,4.44,.77,5.94,2.29,1.49,1.51,2.24,3.4,2.23,5.65l-.04,17.84h0Z"></path><path class="cls-2" d="M350.44,311.45h-5.77v-5.94h5.78v5.94h-.01Zm-.07,28.19h-5.77l.06-25.25h5.77l-.06,25.25h0Z"></path><path class="cls-2" d="M354.2,333.85l5.41-1.02c.82,2.05,2.64,3.08,5.46,3.09,3.57,0,5.36-1.02,5.37-3.11,0-.66-.28-1.22-.84-1.65-.56-.43-1.21-.73-1.97-.88l-4.65-.89c-5.16-.99-7.73-3.49-7.73-7.49,0-2.23,.83-4.12,2.47-5.68,1.64-1.56,4.07-2.33,7.32-2.32,5.39,.01,8.69,1.98,9.87,5.9l-5.13,1.01c-.53-1.9-2.07-2.86-4.6-2.86-3.07,0-4.61,.94-4.61,2.84,0,1.32,1.24,2.23,3.72,2.73l5.48,1.14c4.27,.87,6.39,3.3,6.39,7.26,0,2.78-1.11,4.86-3.31,6.23-2.2,1.37-4.8,2.05-7.82,2.05-2.62,0-4.93-.54-6.93-1.58-2-1.04-3.31-2.64-3.91-4.77h0Z"></path><path class="cls-2" d="M397.08,331.7l5.21,.71c-.68,2.28-2,4.16-3.96,5.64-1.96,1.48-4.42,2.21-7.37,2.21-3.54,0-6.39-1.19-8.54-3.55-2.16-2.35-3.22-5.54-3.21-9.55,0-3.82,1.1-6.97,3.28-9.47,2.18-2.5,5.13-3.74,8.87-3.73,3.64,0,6.45,1.25,8.44,3.72,1.98,2.47,2.97,5.64,2.96,9.5l-.03,.65-17.52-.04c0,1.71,.16,3.09,.48,4.12,.32,1.03,.98,1.93,1.95,2.7,.98,.77,2.2,1.15,3.67,1.15,2.85,0,4.78-1.35,5.77-4.08h0Zm-.34-7.55c-.02-1.82-.56-3.3-1.65-4.45-1.09-1.15-2.43-1.73-4.03-1.73-1.59,0-2.91,.53-3.98,1.6-1.07,1.07-1.69,2.59-1.88,4.55l11.53,.03h0Z"></path><path class="cls-2" d="M413.74,339.78h-5.77l.06-25.25h5.21v6.03c.73-2.35,1.76-4.06,3.06-5.15,1.31-1.08,2.63-1.61,4-1.61,.19,0,.44,0,.76,.02l-.02,6.12c-2.94,0-4.88,.92-5.84,2.76-.96,1.85-1.44,3.64-1.44,5.37l-.02,11.69h0Z"></path></g><path class="cls-1" d="M439.18,309.26c0,1.55-.56,2.87-1.66,3.98-1.1,1.11-2.42,1.66-3.96,1.65-1.55,0-2.87-.56-3.98-1.67-1.1-1.11-1.65-2.44-1.65-3.99,0-1.55,.56-2.88,1.66-3.98,1.11-1.1,2.44-1.65,4.01-1.65,1.54,0,2.86,.56,3.95,1.67,1.09,1.11,1.64,2.44,1.63,3.99Zm-1.01-.01c0-1.3-.44-2.41-1.35-3.34-.9-.93-1.98-1.4-3.24-1.4-1.28,0-2.38,.46-3.29,1.39-.91,.93-1.36,2.04-1.37,3.34,0,1.31,.45,2.43,1.36,3.36,.9,.93,1.99,1.39,3.26,1.4,1.26,0,2.34-.46,3.25-1.38,.91-.92,1.37-2.04,1.37-3.36Zm-1.79,3.25h-1.46l-1.05-2.63h-1.55v2.62h-1.39v-6.5h3.03c.83,0,1.44,.19,1.85,.55,.4,.36,.6,.82,.6,1.39,0,.81-.41,1.38-1.21,1.71l1.19,2.86Zm-4.06-3.67h1.43c.81,0,1.21-.3,1.22-.92,0-.59-.37-.89-1.11-.89h-1.53v1.81Z"></path></g><g><path class="cls-1" d="M180.83,289.53v2.02h3.2c-1.27-.3-2.35-1.02-3.2-2.02Z"></path><path class="cls-1" d="M409.58,74.61c2.88-.26,8.03-.77,11.83,.32l.06-22.94-240.12-.54-.37,164.41c1.2-1.34,2.57-2.54,4.05-3.51,3.66-2.19,8.37-1.91,8.06,3.35-.69,5.58-4.68,10.89-9.44,13.79-.92,.5-1.83,.81-2.7,.91v4.51c.78-.73,1.62-1.4,2.55-1.93,4.07-2.15,8.3-.69,8.32,4.3-.3,5.35-3.82,10.66-8.54,13.14-.83,.38-1.62,.59-2.38,.63v4.56c.73-.65,1.55-1.22,2.44-1.69,4.33-1.91,8.27,.52,8.61,5.22,.04,5-2.96,10.17-7.63,12.15-1.27,.44-2.43,.49-3.47,.2v6.16c.95-1.26,2.22-2.28,3.8-2.9,4.48-1.47,8.26,1.54,8.89,6,.35,4.55-2.15,9.47-6.69,10.83l8.48,.02h7.89c.98-.61,2.05-1.1,3.21-1.43,3-.66,6.17-.16,8.51,1.48l6.8,.02c1.82-4.14,6.36-7,10.63-8.25,5.7-1.37,13.9-.27,14.8,6.78,.04,.53,.02,1.03-.04,1.53l173.79,.39,.18-79.64c-3.48-.83-6.21-2.83-6.76-6.79-.1-4.82,2.85-8.7,6.81-11.68v-2.17l.02-7.26c-4.58-.36-8.61-2.11-9.38-6.76-.26-5.65,4.26-9.81,9.42-12.63v-6.54c-5.54,.22-11.31-.94-12.34-6.25-.39-6.38,6.35-10.47,12.4-12.75v-4.46c-6.03,.79-14.19,.66-15.54-5.21-.58-7.15,9.76-10.72,15.6-12.11v-3.26c-4.92,.91-17.07,2.68-18.81-3.92-.69-6.65,10.57-9.38,15.34-10.26,.98-.16,2.19-.32,3.5-.44v-3c-1.71,.42-3.3,.7-4.22,.87-4.39,.66-16.04,2.43-17.82-3.38-.74-5.76,10.36-7.69,14.32-8.3,1.95-.24,4.85-.57,7.76-.46v-3.47c-3.11,1.12-7.03,1.63-8.43,1.84-3.95,.48-14.97,2.11-16.76-2.87-.75-4.89,10.2-6.19,13.38-6.56Zm-15.19,6.85c.72,5.23-11.38,7.56-14.97,8.34-3.45,.68-16.09,3.44-16.96-1.99,.19-5.6,11.26-7.7,15.44-8.53,3.75-.65,14.77-2.77,16.49,2.18Zm-50.7,81.71c5.38-1.63,19.5-4.66,20.4,4.14-.18,9.24-12.82,14.82-20.17,17.31-5.01,1.5-20.27,4.73-20.15-4.36,.12-8.98,12.84-14.67,19.92-17.09Zm-37.64-34.14c-2.93,1.02-16.94,5.27-15.94-1.52,1.08-7.06,11.91-11.44,17.69-13.57,2.97-1.01,16.84-5.09,16.36,1.38-.5,7.1-12.59,11.63-18.11,13.71Zm37.52,10.92c4.86-1.43,18.61-4.67,19.54,3.35-.22,8.54-12.77,13.56-19.47,15.8-4.4,1.35-19.59,4.94-19.34-3.48,.24-8.36,12.7-13.5,19.27-15.67Zm-18.42-6.26c.37-7.63,12.53-12.12,18.49-14.02,4.27-1.22,17.67-4.56,18.55,2.62-.24,7.74-12.62,12.1-18.6,14.08-3.8,1.13-18.79,4.9-18.43-2.68Zm51-64.72c3.41-.51,13.71-2.44,15.42,1.77,.72,4.28-11.1,6.1-13.99,6.65-3.02,.53-15.05,3.03-15.88-1.51,.21-4.8,10.92-6.29,14.45-6.91Zm-32.46,47.62c-3.26,.93-17.91,4.72-17.47-1.94,.42-6.86,12.3-10.64,17.65-12.25,3.75-1.03,16.61-4.32,17.46,1.94-.23,6.89-12.39,10.6-17.64,12.25Zm.5-28.6c3.26-.82,15.61-4,16.41,1.39-.26,6.02-12.13,9.07-16.71,10.42-2.7,.75-16.95,4.38-16.44-1.29,.52-6.07,12.02-9.2,16.74-10.51Zm-44.92-4.26c1.44-5.05,11.09-7.59,15.47-8.94,1.8-.54,14.21-3.79,13.68-.17-.72,4.79-11.78,7.57-15.66,8.84-1.7,.55-14.59,4.1-13.49,.28Zm-3.15,12.11c1.35-5.72,11.45-8.83,16.26-10.45,2.11-.66,15.12-4.35,14.56,.24-.65,5.53-12.12,8.88-16.49,10.4-2.03,.65-15.43,4.62-14.32-.19Zm-3.08,14.54c1.22-6.4,11.71-10.15,16.99-12.02,2.5-.82,15.98-4.78,15.49,.78-.62,6.28-12.41,10.24-17.36,12.03-2.43,.81-16.23,5.04-15.12-.79Zm-32.42,14.77c2.02-6.53,10.59-10.64,16.38-13.13,2.23-.91,15.04-5.34,13.94,.4-1.26,6.54-11.64,10.97-17.02,13.34-2.5,1.01-14.44,5.46-13.3-.61Zm-4.02,18c1.79-7.08,10.58-11.73,16.72-14.43,2.73-1.13,15.65-5.5,14.64,1.11-1.08,7.17-11.62,12.16-17.47,14.73-3.03,1.24-14.86,5.41-13.88-1.41Zm28.68,6.75c-.88,7.73-11.48,13.21-17.77,15.94-3.63,1.47-15.19,5.08-14.46-2.33,1.52-7.58,10.42-12.7,16.91-15.57,3.31-1.35,16.17-5.38,15.33,1.96Zm-58.16,9.23c1.75-6.76,9.08-11.65,14.92-14.69,2.83-1.36,13.44-5.45,12.49,1.12-1.74,6.98-9.9,12.04-15.88,15.09-2.97,1.4-12.65,5.02-11.53-1.52Zm-3.83,20.33c1.45-7.07,8.71-12.33,14.75-15.4,3.42-1.62,13.65-5.03,12.97,2.03-1.45,7.33-9.56,12.78-15.79,15.87-3.57,1.62-12.74,4.41-11.94-2.5Zm-25.33,14.03c1.2-6.3,6.75-11.5,12.05-14.65,3.31-1.81,11.08-4.22,10.33,2.16-1.33,6.57-7.5,12-13.09,15.16-3.46,1.83-9.99,3.36-9.29-2.66Zm-3.85,64.77c-.03-6,4.51-11.15,9.74-13.58,4.8-1.9,10.98-.95,11.28,5.2-.2,6.31-5.25,11.77-10.91,13.99-4.71,1.58-9.74-.1-10.11-5.61Zm-.05-22.07c.38-6.25,5.3-11.55,10.62-14.33,4.4-2.05,11.02-2.15,10.95,4.22-.55,6.51-6.05,12.12-11.74,14.78-4.42,1.84-9.82,1.08-9.83-4.67Zm11.95,50.3c-4.86,1.16-9.69-1.13-10.42-6.38-.38-5.67,3.76-10.5,8.85-12.42,5.07-1.63,10.92,.18,11.55,6.07,.17,5.95-4.48,11.06-9.98,12.72Zm-1.06-68.37c-3.99,1.88-9.91,2.25-9.58-3.69,.83-6.36,6.08-11.67,11.44-14.69,3.87-1.99,11.06-3.25,10.64,3.19-.95,6.61-6.83,12.2-12.49,15.19Zm27.13,61.2c-5.4,1.36-12.61,.24-13.31-6.42-.15-7,6.29-12.16,12.32-14.34,5.49-1.72,13.99-1.32,14.58,6.02-.06,7.35-7.16,12.77-13.59,14.73Zm-14.11-30.51c.25-7.24,6.96-12.7,13.13-15.3,5.16-1.91,14.02-2.38,14.27,5.1-.43,7.58-7.81,13.31-14.37,15.74-5.15,1.68-12.73,1.37-13.04-5.54Zm13.26-19.44c-4.71,1.78-12.75,2.47-12.69-4.59,.68-7.32,7.61-12.91,13.84-15.77,4.65-1.95,13.96-3.45,13.88,4.09-.8,7.64-8.48,13.47-15.03,16.27Zm1.46-24.35c-4.17,1.76-12.77,3.53-12.34-3.54,1.09-7.26,8.24-12.78,14.4-15.78,4.06-1.83,13.85-4.35,13.42,3.02-1.1,7.58-9.03,13.3-15.48,16.3Zm30.43,36.17c-5.41,1.72-15.67,2.73-15.92-5.4,.51-8.29,9.33-14.04,16.33-16.76,5.11-1.78,17.24-3.65,17.09,4.91-.13,8.59-10.45,14.72-17.5,17.25Zm18.37-43.8c-.42,8.45-10.89,14.56-17.79,17.28-4.91,1.73-15.62,3.68-15.52-4.4,.89-8.2,9.79-13.92,16.72-16.83,4.56-1.71,16.99-4.43,16.6,3.95Zm1.6-24.86c-.65,8.14-11.24,14.03-17.87,16.81-4.3,1.65-15.47,4.51-15.04-3.34,1.22-7.97,10.18-13.47,16.92-16.41,3.95-1.54,16.64-5.02,16,2.94Zm18.72,26.17c-4.78,1.59-18.54,4.52-18.12-4.25,.45-8.75,11.83-14.62,18.89-17.29,4.75-1.61,19.05-4.87,18.89,3.89-.14,8.98-12.54,15.04-19.66,17.65Zm.97-25.66c-4.18,1.43-18.14,5-17.46-3.29,.67-8.28,11.95-13.78,18.66-16.33,4.12-1.45,18.38-5.15,18.1,2.98-.27,8.44-12.64,14.12-19.3,16.64Zm1.45-23.33c-3.52,1.23-17.58,5.24-16.71-2.36,.87-7.71,11.95-12.69,18.22-15.05,3.55-1.23,17.65-5.23,17.26,2.13-.42,7.81-12.65,12.96-18.77,15.28Zm39.77,39.39c5.91-1.77,20.26-4.51,21.18,4.89-.19,9.77-12.92,15.75-20.78,18.37-5.53,1.64-20.77,4.38-20.8-5.15-.02-9.48,12.89-15.57,20.39-18.11Zm1.12,52.47c-5.93,1.69-21.07,3.94-21.24-5.84-.17-9.75,12.92-16.04,20.63-18.59,6.31-1.85,20.82-4.26,21.75,5.56-.19,10.1-12.93,16.26-21.13,18.86Zm61.45-88.58c.53,8.88-12.27,13.95-19.07,16.05-5.59,1.53-20.09,4.34-21.07-4.57,.15-8.87,12.31-13.89,19.39-15.98,5.66-1.5,19.18-3.86,20.75,4.49Zm-3.01-22.52c.61,8.06-12.05,12.39-18.07,14.15-5.03,1.32-19.2,4.26-20.16-3.85,.15-8.13,12.06-12.39,18.44-14.16,5.16-1.28,18.13-3.68,19.79,3.86Zm-3.1-19.38c.68,7.14-11.86,10.76-17.04,12.16-4.45,1.09-18.2,4.06-19.15-3.18,.15-7.3,11.84-10.81,17.46-12.24,4.66-1.06,17.03-3.42,18.72,3.25Zm-3.07-16.25c.71,6.17-11.65,9.1-16,10.17-3.93,.88-17.17,3.78-18.06-2.54,.16-6.43,11.52-9.22,16.43-10.32,4.19-.85,15.89-3.11,17.62,2.69Z"></path></g></svg> 