<?xml version="1.0" encoding="UTF-8"?> <svg xmlns="http://www.w3.org/2000/svg" id="CNet" width="600" height="400" viewBox="0 0 600 400"><defs><style>.cls-1{fill:#3a357e;}</style></defs><path class="cls-1" d="M362.22,180.79c0-10.64-18.53-10.73-18.78-.07v16.14h18.73l.05-16.07Z"></path><path class="cls-1" d="M300,49.99c-82.85,0-150,67.16-150,150.02s67.15,150,150,150,150-67.15,150-150S382.84,49.99,300,49.99Zm-113.88,179.89v-49.1c-.37-27.77,48.51-27.82,47.58,.71v8.52h-14.22l-.17-9.23c0-10.52-18.2-10.33-18.77,.19v49.62c.19,10.84,18.77,10.67,18.77,0v-11h14.45v10.3c.86,28.48-48.02,27.77-47.64,0Zm67.73,59.7h-10.45V119.26h10.45v170.33Zm70.65-40.77h-23.53v-69.46c-.01-10.01-16.69-9.82-17.25,.13v69.33h-21.12v-10.69l6.7,.02v-65.08l-7.94-.05v-10.62h20.37l.06,7.81s2.48-3.68,8.99-7.28c8.24-4.57,16.32-.02,15.16-.53,6.5,2.87,8.96,9.85,9.42,17.64v58.11h9.16v10.67Zm4.52-18.94v-49.1c-.38-27.77,48.47-27.82,47.57,.71v23.55c0,1.48-1.2,2.65-2.64,2.65l-30.53-.02v22.91c.2,10.84,18.78,10.67,18.78,0v-11h14.44v10.31c.89,28.48-48,27.77-47.62,0Zm76.43,19c-3.58,.03-7.08-1.34-7.76-1.62,.03,.01,.05,.03,.08,.04-.1-.04-.15-.07-.18-.08-.03-.01-.03-.01,0,0,.02,0,.05,.02,.1,.04-6.43-2.9-8.87-9.86-9.33-17.61v-89.61h14.52v22.37l-.08,.17h13.93v10.45h-13.89l.04,.11-.04,57.66c.29,5.5,3.67,7.36,7.58,7.31,3.08-.02,8.87,.05,8.87,.05v10.68s-11.47-.01-13.85,.05Z"></path></svg> 