<?xml version="1.0" encoding="UTF-8"?> <svg xmlns="http://www.w3.org/2000/svg" id="Venture_Beat" width="600" height="400" viewBox="0 0 600 400"><defs><style>.cls-1{fill:#3a357e;}</style></defs><path class="cls-1" d="M157.68,236.45v-23.7c0-3.3,.05-6.6-.03-9.92-.07-2.56-.92-4.68-3.83-5.24-2.79-.54-5.32,.84-6.5,3.55-.25,.56-.53,1.18-.53,1.77-.03,6.06-.02,12.12-.02,18.32l3.32,.3v14.95h-27.6v-14.95l4.04-.3v-23.95l-4.04-.43v-14.98h21.52c.28,2.33,.54,4.62,.89,7.52,4.75-6.73,10.83-9.51,18.4-9.12,8.82,.44,13.96,5.45,14.21,14.29,.21,7.64,.07,15.28,.08,22.93v3.63l4.25,.44v14.9h-24.16v-.02Z"></path><path class="cls-1" d="M225.18,197.19l-4.34-.41v-14.95h24.28v6.55c0,8.36-.02,16.72,.02,25.08,0,1.33,.07,2.71,.39,3.98,.61,2.37,2.27,3.68,4.73,3.68s3.98-1.45,4.71-3.75c.13-.39,.25-.8,.25-1.22v-19.04l-3.55-.36v-14.87h23.74v39.37l4.27,.21v14.95h-22.21c-.13-1.58-.28-3.15-.46-5.24-4.55,5.13-10.04,6.93-16.3,6.82-9.02-.16-14.88-5.49-15.29-14.46-.34-7.52-.18-15.06-.25-22.6v-3.76Z"></path><path class="cls-1" d="M188.96,197.19l-4.58-.28v-15.24h6.11c0-3.79-.1-7.39,.08-10.96,.05-.84,.89-2.18,1.59-2.37,5.27-1.36,10.61-2.5,16.38-3.79v17.08h8.76v15.39h-8.51c0,7.34-.21,14.32,.08,21.31,.15,3.61,2.32,4.6,8.02,4.4,0,4.11,.05,8.21-.07,12.32,0,.54-.92,1.51-1.45,1.53-5.42,.25-10.96,1.05-16.26,.31-7.33-1-10.1-5.04-10.14-12.48-.03-7.85,0-15.69,0-23.54v-3.7l-.02,.02Z"></path><path class="cls-1" d="M591.13,181.8h8.61c.1,1.1,.23,1.89,.23,2.69,.02,4.01,0,8.03,0,12.35h-8.77v18.41c.02,6.32,1.71,7.93,8.31,7.56,0,3.99,.07,7.98-.08,11.98-.02,.62-.97,1.61-1.63,1.74-5.82,1.07-11.66,1.72-17.49,.08-5.55-1.56-8.25-4.65-8.43-10.43-.26-8.26-.16-16.53-.21-24.79v-4.21l-4.42-.41v-14.87l5.82-.3v-12.85l18.05-4.12v17.15h.02Z"></path><path class="cls-1" d="M308.41,221.37h6.04v15.13h-29.91v-14.92l4.09-.39v-23.93l-4.09-.39v-14.95h21.19c.21,2.37,.41,4.78,.57,6.55,2.58-2.12,5.03-4.86,8.08-6.44,3.2-1.66,6.96-1.38,10.56-.26v17.13c-2.12,0-4.07-.08-6.01,0-6.8,.34-10.38,4.02-10.5,10.83-.07,3.71,0,7.42,0,11.65h-.03Z"></path><path class="cls-1" d="M208.54,164.53c-5.77,1.3-11.1,2.43-16.38,3.79-.71,.18-1.54,1.53-1.59,2.37-.18,3.58-.08,7.16-.08,10.96h-6.11v15.26l4.58,.28v3.7c0,7.85-.03,15.69,0,23.54,.03,7.44,2.81,11.47,10.14,12.48,5.31,.74,10.84-.07,16.26-.31,.53-.02,1.43-.99,1.45-1.53,.11-4.11,.07-8.21,.07-12.32-5.7,.2-7.85-.79-8.02-4.4-.3-6.96-.08-13.96-.08-21.31h8.51v-15.41h-8.76v-17.1h.02Z"></path><path class="cls-1" d="M177.57,217.49c0-7.64,.13-15.29-.08-22.93-.25-8.84-5.4-13.85-14.21-14.29-7.56-.38-13.65,2.4-18.4,9.12-.34-2.91-.61-5.19-.89-7.52h-21.52v14.98c1.48,.15,2.74,.3,4.04,.43v23.95c-1.43,.1-2.64,.2-4.04,.3v14.95h27.6v-14.95c-1.22-.11-2.22-.2-3.32-.3,0-6.18,0-12.25,.02-18.32,0-.59,.3-1.2,.53-1.77,1.17-2.71,3.71-4.09,6.5-3.55,2.91,.56,3.75,2.68,3.83,5.24,.1,3.3,.03,6.6,.03,9.92v23.7h24.16v-14.9l-4.25-.44v-3.61Z"></path><path class="cls-1" d="M314.36,182.03c-3.04,1.58-5.49,4.32-8.08,6.44-.15-1.77-.36-4.19-.57-6.55h-21.19v14.96l4.09,.39v23.93l-4.09,.39v14.92h29.91v-15.13h-6.04c0-4.22-.05-7.93,0-11.65,.11-6.8,3.7-10.48,10.5-10.83,1.94-.1,3.88,0,6.01,0v-17.15c-3.58-1.12-7.36-1.4-10.56,.26h.03Z"></path><path class="cls-1" d="M71.21,176.62v-14.64h-29.19v15.15h6.23c-3.88,14.03-7.67,27.7-11.45,41.36l-.61,.03c-3.53-13.73-10.69-41.63-10.69-41.63h6.39v-14.93H0v15.29H4.67s1.03,3.61,1.3,4.47c3.5,11.22,7.06,22.44,10.63,33.64,2.23,7.06,4.5,14.13,6.78,21.29,7.21,0,24.46,.07,24.46,.07,0,0,11.42-36.84,16.72-53.78,.16-.51,2-6.32,2-6.32h4.65Z"></path><path class="cls-1" d="M275.41,181.9h-23.74v14.9c1.33,.13,2.41,.25,3.55,.36v19.04c0,.41-.11,.82-.25,1.22-.74,2.3-2.22,3.75-4.71,3.75s-4.12-1.31-4.73-3.68c-.33-1.28-.39-2.64-.39-3.98-.03-8.36-.02-16.72-.02-25.08v-6.55h-24.28v14.93c1.45,.13,2.74,.26,4.34,.41v3.76c.07,7.54-.11,15.08,.25,22.6,.41,8.99,6.29,14.29,15.29,14.46,6.26,.11,11.75-1.69,16.3-6.82,.18,2.09,.31,3.66,.46,5.24h22.21v-14.95c-1.48-.07-2.69-.13-4.27-.21v-39.39Z"></path><path class="cls-1" d="M599.98,196.86v-12.35c0-.8-.13-1.59-.23-2.69h-8.61v-17.17c-6.21,1.41-11.99,2.74-18.05,4.12v12.85l-5.82,.3v14.88c1.56,.15,2.86,.26,4.42,.41v4.21c.05,8.26-.05,16.53,.21,24.79,.18,5.78,2.87,8.87,8.43,10.43,5.83,1.64,11.68,.99,17.49-.08,.66-.11,1.61-1.12,1.63-1.74,.15-3.98,.08-7.97,.08-11.98-6.6,.38-8.3-1.23-8.31-7.56v-18.41h8.76Z"></path><path class="cls-1" d="M559.69,221.22v-3.75c-.03-6.72,0-13.42-.13-20.14-.11-4.83-2.28-8.72-6.11-11.66-8.62-6.64-26.09-7.06-34.96-.8-4.94,3.48-7,8.33-6.7,14.47h17.82c1.72-5.47,3.48-7.16,6.67-6.59,3.37,.62,4.6,3.58,3.86,9.91-1.3,0-14.55,.82-19.58,2.6-10.43,3.66-14.49,16.69-8.43,25.99,1.43,2.2,3.86,4.12,6.26,5.22,6.87,3.15,15.51,1.2,20.85-4.19,.44-.44,.97-.79,1.63-1.31,.26,2.07,.49,3.76,.71,5.44h22.57v-14.72c-1.48-.15-2.79-.28-4.45-.46Zm-19.42-2.04c-.34,3.45-2.45,5.68-5.27,6-2.46,.26-4.24-.71-5.14-3.04-1.15-2.94-.3-6.96,2.32-8.3,2.32-1.18,5.08-1.51,8.15-2.35,0,3.22,.18,5.49-.05,7.7v-.02Z"></path><g><path class="cls-1" d="M424.14,191.44c-.3,.11-.59,.16-.89,.25,0,0,.61-.13,.89-.25Z"></path><path class="cls-1" d="M438.74,199.32c-.59-.23-1.15-.56-2.05-1,1.26-.72,2.14-1.23,3.02-1.72,4.29-2.35,7.21-5.75,8.28-10.63,2.69-12.34-4.62-22.64-17.71-23.39-13.68-.8-27.45-.46-41.18-.61-.16,0-.33,.23-.54,.39v14.41c1.05,.07,1.77,.16,2.48,.13,4.21-.18,4.17-.82,4.17,4.07v40.52h-6.5v15.08c12.27,0,24.25,.15,36.22-.08,4.29-.08,8.71-.57,12.83-1.74,7.87-2.2,12.58-8.9,12.76-17.1,.2-9.18-3.75-15.33-11.78-18.35v.02Zm-24.16-14.09v-8.54c3.24,0,6.03-.26,8.74,.07,3.22,.39,5.37,3.33,5.59,6.85,.23,3.7-1.56,6.64-4.78,7.84-.3,.11-.89,.25-.89,.25h-8.66v-6.44h0v-.02Zm16.07,29.58c-.2,3.79-2.37,6.06-6.5,6.46-2.45,.23-4.93,.15-7.39,.18-.59,0-1.18-.15-1.92-.25v-14.77c3.4,0,6.6-.31,9.71,.08,4.02,.51,6.34,3.98,6.13,8.31l-.02-.02Z"></path></g><path class="cls-1" d="M484.16,180.63c-15.39-1.71-26.92,6.57-29.6,21.65-1.12,6.26-.87,12.57,1,18.71,1.97,6.46,5.85,11.43,12.12,14.09,8.76,3.71,17.71,3.86,26.55,.34,7.41-2.96,12.48-10.4,12.25-17.61-5.04,0-18.51-.03-18.51-.03,0,0,0,1.02-.57,2.68-.99,2.86-3.12,4.24-6.13,4.24-6.82,0-6.82-11.91-6.82-11.91h32.54c.41,0,.74-.33,.74-.74v-1.17c.26-14.03-4.19-28.11-23.56-30.26h-.02Zm-9.72,21.7c0-5.42,2.33-8.11,6.5-8.33,4.5-.25,7.15,2.79,7.01,8.33h-13.52Z"></path><path class="cls-1" d="M359.55,180.63c-15.39-1.71-26.92,6.57-29.6,21.65-1.12,6.26-.87,12.57,1,18.71,1.97,6.46,5.85,11.43,12.12,14.09,8.76,3.71,17.71,3.86,26.55,.34,7.41-2.96,12.48-10.4,12.25-17.61-5.04,0-18.51-.03-18.51-.03,0,0,0,1.02-.57,2.68-.99,2.86-3.12,4.24-6.13,4.24-6.82,0-6.82-11.91-6.82-11.91h32.54c.41,0,.74-.33,.74-.74v-1.17c.26-14.03-4.19-28.11-23.56-30.26h-.02Zm-9.72,21.7c0-5.42,2.33-8.11,6.5-8.33,4.5-.25,7.15,2.79,7.01,8.33h-13.52Z"></path><path class="cls-1" d="M95.09,180.6c-15.39-1.71-26.92,6.57-29.6,21.65-1.12,6.26-.87,12.57,1,18.71,1.97,6.46,5.85,11.43,12.12,14.09,8.76,3.71,17.71,3.86,26.55,.34,7.41-2.96,12.48-10.4,12.25-17.61-5.04,0-18.51-.03-18.51-.03,0,0,0,1.02-.57,2.68-.99,2.86-3.12,4.24-6.13,4.24-6.82,0-6.82-11.91-6.82-11.91h32.54c.41,0,.74-.33,.74-.74v-1.17c.26-14.03-4.19-28.11-23.56-30.26h-.02Zm-9.72,21.7c0-5.42,2.33-8.11,6.5-8.33,4.5-.25,7.15,2.79,7.01,8.33h-13.52Z"></path></svg> 