<?xml version="1.0" encoding="UTF-8"?> <svg xmlns="http://www.w3.org/2000/svg" id="Embroker" width="600" height="400" viewBox="0 0 600 400"><defs><style>.cls-1{fill:#3a357e;}</style></defs><g id="Embroker-2"><g><path class="cls-1" d="M345.23,161.62c3.28,.78,6.63,1.34,9.82,2.4,17.47,5.77,27.5,22,25.53,40.27-2.03,19.24-16.44,31.49-34.04,33.72-.45,.09-.88,.22-1.31,.38h-9.39c-2.5-.55-5.03-1.02-7.49-1.67-31.62-8.88-34.31-44.7-19-61.76,6.71-7.47,15.17-11.49,24.97-12.93,.52-.08,1.02-.27,1.51-.41h9.39Zm11.85,38.61v-1.64c-.04-9.07-7.43-16.38-16.49-16.34-1.87,0-3.72,.34-5.48,.97-9.3,3.4-12.35,11.53-10.84,21.04,1.32,8.65,9.29,14.67,17.97,13.57,9.01-.99,15.22-8.33,14.84-17.57v-.04Z"></path><path class="cls-1" d="M79.54,162.84c7.01,0,13.88,0,20.74,.06,.75,.16,1.41,.61,1.83,1.25,5.42,7.45,10.78,14.9,16.09,22.35,.31,.44,.65,.86,1.16,1.54,.47-.6,.87-1.09,1.25-1.6,5.33-7.39,10.69-14.76,15.98-22.18,.6-.99,1.7-1.55,2.84-1.46,6.58,.07,13.21,0,19.87,0v74.23h-22.82v-36.27l-.43-.17-16.68,20.9c-5.57-7.04-11.03-13.92-16.86-21.34v36.8h-22.97v-74.11Z"></path><path class="cls-1" d="M216.39,198.98c5.85,2.53,9.84,6.5,11.33,12.55,2.3,9.3-.84,21.24-14.22,24.44-2.83,.71-5.74,1.1-8.66,1.17-12.31,.12-24.63,.05-36.93,0-.41,0-.8,0-1.32-.08v-74.16c.73,0,1.39-.08,2.03-.09,11.18,0,22.44-.11,33.67,.07,3.53,.06,7.03,.59,10.42,1.56,8.75,2.54,13.21,8.82,13.5,17.93,.23,7.47-2.92,12.92-9.82,16.61Zm-27.64,9.24v9.84c4.26,0,8.39,.15,12.51-.05,2.58,.03,4.69-2.03,4.72-4.61,0-.09,0-.18,0-.27,0-2.67-2.15-4.83-4.82-4.87-4.06-.22-8.14-.08-12.4-.08v.03Zm0-17.16c4.17,0,8.13,.18,11.99-.06,2.49-.16,3.79-2.03,3.81-4.48s-1.16-4.23-3.61-4.41c-4-.28-8.06-.07-12.19-.07v9.02Z"></path><path class="cls-1" d="M233.01,162.84h9.53c9.39,0,18.77-.11,28.15,.08,6.11-.01,12.05,2.01,16.88,5.76,6.26,4.93,8.84,11.66,9.41,19.37,.79,10.64-3.34,18.74-12.57,24.38l15.16,24.71h-11.53c-4.15,0-8.3-.06-12.45,0-1.08,.12-2.11-.47-2.56-1.45-3.36-5.82-6.87-11.56-10.16-17.44-1.02-1.84-2.18-2.72-4.28-2.42-.88,.06-1.76,.06-2.64,0v21.16h-22.96l.02-74.15Zm23.08,34.82c4.33-.19,8.53-.16,12.69-.64,3.48-.41,5.34-2.98,5.44-6.57,.11-4.25-1.53-7.23-5.15-7.63-4.26-.48-8.61-.11-12.97-.11v14.95Z"></path><path class="cls-1" d="M14.52,162.93h57.78v19.8H37.58v6.99h34.68v19.45H39.6c-1.66,0-2.34,.41-2.19,2.15s0,3.65,0,5.73h34.89v19.95H14.52v-74.07Z"></path><path class="cls-1" d="M522.88,162.91c.48,0,.81-.07,1.14-.07,12.11,0,24.22-.06,36.33,.06,5.2,0,10.3,1.43,14.73,4.15,6.01,3.67,10.1,9.8,11.18,16.76,1.5,8.13,.77,15.92-4.82,22.5-2.03,2.35-4.54,4.23-6.99,6.47,4.83,7.82,9.85,15.95,15.07,24.38h-24.11c-1.08,.11-2.11-.48-2.55-1.47-3.38-5.89-6.93-11.69-10.24-17.62-.97-1.73-2.03-2.51-3.98-2.22-.94,.06-1.89,.06-2.83,0v21.15h-22.92v-74.09Zm22.98,34.75c4.39-.19,8.6-.16,12.74-.63,3.41-.4,5.3-2.9,5.5-6.33,.22-3.93-1.35-7.26-4.5-7.72-4.5-.66-9.14-.57-13.74-.8v15.48Z"></path><path class="cls-1" d="M409.39,193.23c6.1-9.55,12.28-19.08,18.34-28.68,.63-1.19,1.92-1.89,3.26-1.76,8.13,.08,16.19,0,24.69,0-.5,.81-.84,1.42-1.23,2.03-7.11,10.64-14.15,21.34-21.34,31.88-.9,1.02-.9,2.55,0,3.58,7.5,11.58,14.97,23.19,22.4,34.82,.37,.56,.7,1.14,1.19,1.92-.74,.06-1.31,.13-1.87,.13h-23.48c-1.14,.11-2.24-.5-2.75-1.52-6.01-9.62-12.07-19.23-18.16-28.81-.38-.6-.8-1.17-1.52-2.2v32.38h-23.43v-73.98h23.37v30.15l.53,.07Z"></path><path class="cls-1" d="M460.59,162.93h54.93v19.8h-31.77v6.96h31.78v19.46h-31.74v7.94h31.75v19.96h-54.95v-74.12Z"></path></g></g></svg> 