<?xml version="1.0" encoding="UTF-8"?><svg id="Layer_1" xmlns="http://www.w3.org/2000/svg" width="600" height="400" viewBox="0 0 600 400"><defs><style>.cls-1{fill:#3a357e;stroke-width:0px;}</style></defs><polygon class="cls-1" points="301.76 253.96 301.76 296.69 277.08 296.69 254.02 265.89 253.83 265.89 253.83 296.69 237.29 296.69 237.29 253.96 237.35 253.96 237.37 253.96 263.09 253.96 285.04 284.76 285.22 284.76 285.22 253.96 301.76 253.96"/><polygon class="cls-1" points="324.98 270.55 324.98 270.58 324.96 270.55 324.98 270.55"/><path class="cls-1" d="m269.08,102.54c13.81-1.51,31.12,8.98,28.07,31.91l-13.02,91.96-37.19-87.48c-8-21.81,10.02-36.13,22.14-36.39Z"/><path class="cls-1" d="m287.63,244.71h-84.38c-17.57,0-31.38-16.1-25.84-35.69h-.03c6.52-17.07,24.63-23.11,40.69-12.83l69.56,48.52Z"/><path class="cls-1" d="m350.04,274.34c9.96.59,13.59,6.84,13.59,10.61,0,7.55-8.58,11.71-25.47,11.71h-31.39l.06-42.73.02.03h31.26c15.05,0,23.91,4.16,23.91,10.55,0,3.71-3.71,8.32-11.98,9.7v.13Zm-19.86,13.34c9.65,0,13.15-.98,13.15-4.3,0-3.58-4.43-4.74-11.67-4.74h-6.7v9.04h5.22Zm12.25-21.02c0-3.58-3.53-4.75-10.74-4.75h-6.71v8.64h-.02l.02.03v-.03h5.2c8.01,0,12.25-.66,12.25-3.89Z"/><path class="cls-1" d="m233.85,268.01l-19.99-.06c-.98-4.74-4.88-5.99-9.25-6.38-14.08-1.3-16.54,9.17-16.54,13.59,0,7.56,2.22,13.87,16.01,13.87,2.54,0,9.57-2.6,9.57-6.84h19.85c-.77,12.64-22,15.64-31.25,15.64-19.14,0-35.55-3.58-34.78-22.4.58-13.49,13.28-22.93,38.62-22.35,14.13.32,27.68,4.75,27.76,14.93Z"/><path class="cls-1" d="m422.99,210.01c5.09,16.59-6.26,34.7-23.83,34.7h-85.65l69.56-48.52c17.07-11.32,35.17-.98,39.92,13.82Z"/><path class="cls-1" d="m331.35,102.25c14.07.58,29.9,16.86,22.34,36.47v-.02l-36.92,87.66-11.8-79.13c-.98-12.03,6.52-12.3,9.3-14.58-.53-1.75-4.29-1.75-4.29-1.75h-7.02c-.77-20.57,15.29-29.63,28.39-28.65Z"/><path class="cls-1" d="m432.56,268.01l-20.07-.06c-.98-4.74-4.88-5.99-9.17-6.38-14.08-1.3-16.54,9.17-16.54,13.59,0,7.56,2.22,13.87,16.01,13.87,2.54,0,9.57-2.6,9.57-6.84h19.85c-.77,12.64-22,15.64-31.25,15.64-19.14,0-35.55-3.58-34.78-22.4.58-13.49,13.28-22.93,38.62-22.35,14.13.32,27.68,4.75,27.76,14.93Z"/><path class="cls-1" d="m396.13,143.71c9.57,9.57,12.31,28.92-4.74,40.95l-74.12,51.01,34.91-81.15c10.55-25.61,35.18-20.57,43.95-10.81Z"/><path class="cls-1" d="m248,153.73l35.95,82.12-74.17-50.66c-18.56-12.3-14.85-33.4-4.51-42.73,14.58-12.3,35.18-8.01,42.73,11.27Z"/></svg>