<?xml version="1.0" encoding="UTF-8"?> <svg xmlns="http://www.w3.org/2000/svg" id="Tech_Crunch" width="600" height="400" viewBox="0 0 600 400"><defs><style>.cls-1{fill:#3a357e;}</style></defs><path class="cls-1" d="M300,80.32H125v57.93h57.93v119.48h59.14v-119.48h57.93v-57.93Zm57.93,0h117.07v57.93h-117.07v-57.93Zm0,116.41v-58.48h-57.93v119.48h175v-60.91l-117.07-.08Z"></path><path class="cls-1" d="M149.14,281.88v36.2h-9.66v-36.2h-14.48v-7.24h36.2v7.24h-12.07Zm39.19,21.71h-20.08c.32,4.83,3.71,7.04,6.9,7.04,2.44,0,4.48-.55,5.75-2.02l6.27,5.42c-2.69,3.46-7.55,5.53-12.03,5.53-9.66,0-15.79-6.8-15.79-17.42s6.45-17.5,14.97-17.5c8.96,0,14.13,7.22,14.13,16.83,0,1.29-.06,2.11-.13,2.11h0Zm-14.45-10.84c-3.19,0-5.18,1.19-5.5,6.01h11.51c-.25-4.82-2.04-6.01-6.01-6.01h0Zm35.62,26.91c-8.76,0-15.74-7.17-15.74-17.46s6.78-17.53,16.11-17.53c6.4,0,10.49,3.14,13.3,7.42l-5.82,5.88c-1.99-2.81-4.09-4.8-7.67-4.8-4.23,0-6.97,3.51-6.97,9.02s2.74,8.96,6.97,8.96c3.46,0,5.63-1.54,7.92-4.28l5.63,5.31c-3.25,4.35-7.08,7.49-13.73,7.49h0Zm39.82-1.58v-17.29c0-6.01-1.15-7.8-4.8-7.8s-4.86,1.79-4.86,7.62v17.47h-9.66v-41.33l9.66-4.41v15.29c0-1.6,3.86-2.94,7.39-2.94,8.57,0,11.93,5.88,11.93,15.34v18.05h-9.66Z"></path><path class="cls-1" d="M294.22,287.24c-1.6-3.07-4.16-4.86-8.19-4.86-6.72,0-10.56,5.88-10.56,14.2s3.91,14.2,10.61,14.2c4.03,0,6.4-1.72,8.76-5.68l7.55,4.48c-3.07,6.33-8.44,10.11-16.56,10.11-11.7,0-19.57-8.96-19.57-23.09s8.19-23.09,19.89-23.09c8.44,0,13.57,4.09,16.37,9.91l-8.3,3.82h0Zm32.87,8.44c-1.41-1.27-2.83-2.17-4.82-2.17-3.44,0-5.39,1.47-5.39,7.29v17.28h-9.66v-33.8h9.66v3.35c2.41-1.6,3.47-2.94,6.61-2.94,2.87,0,4.9,1.15,6.05,2.37l-2.45,8.62h0Zm28.43,22.09v-1.06c-2.41,1.6-3.86,2.94-7.39,2.94-8.57,0-11.93-5.88-11.93-15.34v-20.03h7.24v19.26c0,6.01,2.35,7.8,6.01,7.8s6.06-1.79,6.06-7.62v-19.45h9.66v33.8h-10.04l.39-.29h0Zm35,.31v-17.29c0-6.01-.55-7.8-4.2-7.8s-4.26,1.79-4.26,7.62v17.47h-9.66v-33.8h9.66v3.35c0-1.6,3.26-2.94,6.78-2.94,8.57,0,11.33,5.88,11.33,15.34v18.05h-9.65Zm33,1.58c-8.76,0-15.74-7.17-15.74-17.46s6.78-17.53,16.11-17.53c6.4,0,10.49,3.14,13.3,7.42l-5.81,5.88c-1.99-2.81-4.09-4.8-7.67-4.8-4.23,0-6.97,3.51-6.97,9.02s2.74,8.96,6.97,8.96c3.44,0,5.63-1.54,7.92-4.28l5.63,5.31c-3.26,4.35-7.08,7.49-13.75,7.49h0Zm39.41-.7v-18.17c0-6.01-1.15-7.8-4.8-7.8s-4.86,1.79-4.86,7.62v17.47h-9.66v-41.33l9.66-4.41v15.29c0-1.6,3.86-2.94,7.38-2.94,8.57,0,11.93,5.88,11.93,15.34v18.05h-9.42l-.22,.88h0Z"></path></svg> 