<?xml version="1.0" encoding="UTF-8"?> <svg xmlns="http://www.w3.org/2000/svg" id="Forbes" width="600" height="400" viewBox="0 0 600 400"><defs><style>.cls-1{fill:#3a357e;fill-rule:evenodd;}</style></defs><path class="cls-1" d="M360.06,170.29c-8.85,0-15.8,1.9-22.76,5.69,0-20.23,0-38.56,.63-44.88l-42.36,7.59v3.79l4.42,.63c5.69,1.26,7.59,4.42,8.85,12.01,1.27,15.17,.63,96.09,0,109.37,11.38,2.53,23.39,4.43,35.4,4.43,33.51,0,53.73-20.86,53.73-53.74,0-25.92-16.43-44.89-37.93-44.89h0Zm-14.54,91.67c-2.53,0-5.69,0-7.59-.63-.63-8.85-1.26-46.15-.63-79.02,3.79-1.27,6.32-1.9,9.48-1.9,13.91,0,21.49,16.44,21.49,36.67,0,25.29-9.48,44.88-22.76,44.88h0Z"></path><path class="cls-1" d="M136.26,133.62H25v5.69l6.32,.63c8.22,1.26,11.38,6.32,12.64,18.33,1.9,22.76,1.27,63.85,0,83.45-1.26,12.01-4.42,17.7-12.64,18.33l-6.32,1.26v5.06H96.44v-5.06l-7.59-1.26c-8.22-.63-11.38-6.32-12.64-18.33-.63-8.22-1.26-21.5-1.26-37.93l15.17,.63c9.49,0,13.91,7.59,15.8,18.33h5.69v-44.88h-5.69c-1.9,10.75-6.32,18.33-15.8,18.33l-15.17,.63c0-21.49,.63-41.72,1.26-53.73h22.12c17.07,0,25.92,10.75,32.24,29.71l6.32-1.9-.63-37.3h0Z"></path><path class="cls-1" d="M172.3,169.02c31.61,0,47.42,21.49,47.42,49.94s-17.7,49.94-49.31,49.94-47.41-21.49-47.41-49.94,17.7-49.94,49.31-49.94h0Zm-1.9,6.32c-13.91,0-17.7,18.96-17.7,43.62s6.32,43.62,18.97,43.62c14.53,0,18.33-18.96,18.33-43.62s-6.32-43.62-19.6-43.62h0Z"></path><path class="cls-1" d="M406.21,219.6c0-25.92,16.44-50.57,48.68-50.57,26.55,0,39.2,19.6,39.2,45.52h-58.8c-.63,23.39,10.75,40.46,33.51,40.46,10.11,0,15.17-2.53,21.49-6.95l2.53,3.16c-6.32,8.85-20.23,17.7-37.93,17.7-28.45,0-48.68-20.23-48.68-49.31h0Zm29.08-12.01l29.71-.63c0-12.64-1.89-31.61-12.64-31.61s-16.44,17.7-17.07,32.24h0Z"></path><path class="cls-1" d="M569.31,174.08c-7.59-3.16-17.7-5.06-29.08-5.06-23.39,0-37.93,13.9-37.93,30.34s10.74,23.39,25.92,28.45c15.8,5.69,20.23,10.12,20.23,17.7s-5.69,14.54-15.8,14.54c-12.01,0-20.86-6.95-27.82-25.92l-4.43,1.26,.63,27.82c7.59,3.16,21.49,5.69,33.5,5.69,24.66,0,40.46-12.64,40.46-32.24,0-13.28-6.96-20.86-23.39-27.19-17.7-6.95-24.02-11.38-24.02-19.6s5.69-13.91,13.27-13.91c11.38,0,18.97,6.95,24.66,24.02l4.42-1.26-.63-24.65h0Z"></path><path class="cls-1" d="M301.9,171.55c-10.75-6.32-29.71-3.16-39.83,19.6l.63-22.13-42.36,8.22v3.79l4.43,.63c5.69,.63,8.22,3.79,8.85,12.01,1.27,15.17,.63,41.72,0,55-.63,7.59-3.16,11.38-8.85,12.01l-4.43,.63v5.06h58.79v-5.06l-7.59-.63c-6.32-.63-8.22-4.43-8.85-12.01-1.26-12.01-1.26-36.03-.63-51.21,3.16-4.43,17.07-8.22,29.71,0l10.12-25.92h0Z"></path></svg> 