<?xml version="1.0" encoding="UTF-8"?> <svg xmlns="http://www.w3.org/2000/svg" id="New_York_Times" width="600" height="400" viewBox="0 0 600 400"><defs><style>.cls-1{fill:#3a357e;}</style></defs><g><path id="path10" class="cls-1" d="M141.87,144.91c3.57,6.25,1.33,14.71-4.03,19.21-3.3,2.15-7.09,3.33-10.8,4.53,.08,25.55,.01,51.1,.02,76.65,.26,1.17-.81,2.08-1.91,1.62-2.17-.1-2.75-2.39-3.67-3.94-13.37-24.58-26.59-49.24-40.06-73.76-.26,18.04,0,36.09-.13,54.14,6.37,1.2,12.56,4.27,16.73,9.33,1.93-1.5,3.18-4.13,5.66-4.73-.63,1.14-1.54,2.08-2.42,3.04-4.82,5.33-9.62,10.69-14.43,16.03-2.23-2.81-5.2-5.48-8.93-5.86-2.45-.1-5.28,.03-7.06,1.96-2.05,1.83-3.43,4.92-1.96,7.53,1.72,3.75,6.04,4.77,9.67,5.67-4.55,.9-9.64,.37-13.31-2.67-2.92-2.49-5.57-5.66-6.33-9.52-1.02-5.32,.57-11.24,4.55-15.02,4.35-4.3,10.73-5.91,16.7-5.56,.16-7.86,.09-15.72,.04-23.58-2.9-.46-6.86-.05-8.21,2.99-.78,2.46,1.06,4.53,2.88,5.88-2.26-.39-4.77-.83-6.41-2.58-1.93-2.38-3.42-5.18-3.98-8.21-.56-3.89,.47-8.33,3.71-10.84,3.39-2.63,7.91-2.99,12.05-2.89v-16.62c-1.5-2.26-2.94-4.84-5.52-6.01-1.69-.7-3.89-.95-5.34,.36-2.01,1.71-2.5,4.42-3.29,6.79-.77-5.8-.19-12.37,3.87-16.92,4.91-6.35,15.29-6.59,20.65-.71,2.32,2.39,3.91,5.33,5.49,8.23,9.93,17.69,19.67,35.48,29.7,53.11,.06-14.62,.09-29.24-.01-43.86-1.72-.67-3.64-.65-5.4-1.26-3.27-.86-5.99-2.97-8.41-5.25-1.51,1.77-3.03,3.54-4.43,5.38-.33-.18-.98-.53-1.31-.71,5.15-6.49,10.66-12.68,16.02-19,2.81,2.96,6.47,5.37,10.64,5.64,4.36-.5,8.65-3.99,8.95-8.58Z"></path><path id="path12" class="cls-1" d="M475.84,159.06c7.18-4.68,14.35-9.4,21.55-14.04,.06,27.6-.05,55.22,.06,82.82,1.56,2.12,3.68,3.86,5.56,5.72,1.18-1.27,2.42-2.48,3.64-3.71,.29,.29,.86,.86,1.15,1.14-5.75,4.98-11.32,10.16-17.1,15.09-3.64-3.74-7.41-7.35-11.03-11.1-1.62,1.44-3.11,3.02-4.63,4.56-.31-.24-.93-.72-1.24-.96,2.76-2.64,5.71-5.06,8.5-7.67-.02-20.92,.02-41.84-.02-62.76-.07-3.91-2.06-8.6-6.44-9.08Z"></path><path id="path16" class="cls-1" d="M351.83,148.77c-5.62,4.55-11.12,9.25-16.69,13.87-.06-4.36,.07-8.7-.07-13.06-.86-.04-1.24,.35-1.12,1.17-.03,30.79,0,61.57-.01,92.36-3.04-.58-6.08-1.19-9.09-1.87-.05-25.97,0-51.93-.01-77.9-.07-3.28-1.13-6.59-3.29-9.09-2.69-3.19-6.9-4.67-10.96-4.95-4.82-.14-9.23,2.39-12.59,5.65-3.09,2.94-4.75,7.48-3.87,11.7,.38-2.61,1.23-5.56,3.63-7.01,2.64-1.12,6.15-.22,7.73,2.26,1.35,2,1.49,4.5,1.54,6.84,.01,7.02,0,14.04,0,21.06-4.63,.07-10.1,.82-12.77,5.12-2.69,3.36-3.52,8.13-1.68,12.09,1.21,3.91,5.28,5.93,9.06,6.55-2.12-1.37-4.27-3.78-3.02-6.46,1.68-2.69,5.5-3.09,8.35-2.3,.11,12.46,.06,24.91,.03,37.36-4.25,1.48-8.38,4.06-10.65,8.06-1.65,2.85-1.69,6.27-1.56,9.47,.51,5.61,4.21,10.74,9.18,13.3,3.76,1.76,7.99,1.81,12.06,1.68,11.55-.69,22.52-5.27,34.09-5.65,3.45-.26,5.47,3.55,4.56,6.54-.69,2.7-2.95,4.52-5.09,6.1,4.06-.86,8.11-2.39,11.28-5.15,3.58-3.03,5.22-7.92,5-12.52-.27-4.55-3.94-7.93-7.75-9.89-5.02-2.94-11.08-2.29-16.6-1.69-10.37,1.2-20.49,4.49-30.96,4.77-3.55,.24-6.87-2.28-7.58-5.76-.8-3.36,1.92-6.29,4.68-7.73,5.97-2.82,12.84-1.77,19.07-.46,7.22,.75,14,3.7,21.22,4.44,4.1,.47,8.46-.32,11.83-2.81,3.47-2.14,5.03-6.32,5.13-10.25,.04-24.51-.04-49.01,.05-73.51,2.24-1.94,4.7-3.69,6.66-5.94-2.73,.68-4.44,3.23-6.67,4.8-4.41-3.67-8.73-7.43-13.09-11.16h0Zm-12.24,12.38c2.51,2.15,4.99,4.35,7.49,6.52,0,7.72-.02,15.44,0,23.15-1.19,1.17-2.49,2.41-4.23,2.63-2.84,.6-5.6-.8-7.73-2.56,.01-9.01,0-18.02,0-27.03,1.5-.9,2.99-1.79,4.47-2.72h0Zm-4.47,31.89c3.67,1.87,8.4,2.43,11.97,.01-.01,3.5-.01,7.01,0,10.51-1.45-1.41-3.31-2.53-5.38-2.53-2.44-.05-4.68,1.1-6.58,2.53,.01-3.51,0-7.02,0-10.53Zm6.55,9.11c2.37,.06,4.19,1.83,5.41,3.69-.02,9.77,0,19.55,0,29.32,.19,3-1.87,5.56-4.13,7.28-2.18,1.73-5.13,1.79-7.78,1.65-.15-12.76,0-25.54-.06-38.31,1.71-1.86,3.88-3.67,6.55-3.63Z"></path><path id="path22" class="cls-1" d="M188.76,168.33c2.42-1.66,5.49-1.56,8.29-1.92-2.11,1.67-4.46,3.61-4.74,6.49-.47,2.57,1.16,4.89,3.05,6.43,3.45,2.76,7.89,4.31,10.7,7.85,1.35,1.71,2.17,3.88,2.11,6.07-.02,11.61,.01,23.21-.02,34.81,3.09,2.49,6.19,4.96,9.27,7.45,.9-.58,1.79-1.16,2.7-1.74-.04-12.67,.07-25.34-.05-38-1.58-1.87-3.78-3.21-5.59-4.88,4.45-4.1,8.81-8.3,13.35-12.3,3.95,3.88,8.1,7.54,12.15,11.31-1.54,1.63-3.12,3.21-4.74,4.75-.03,11.13,0,22.27-.02,33.4,4.04,3.14,8.09,6.28,12.18,9.36,.57-.34,1.16-.66,1.75-.99-.06-13.6,0-27.19-.04-40.79-1.87-1.6-3.81-3.12-5.66-4.75,4.37-4.13,8.79-8.18,13.18-12.28,4.37,3.42,8.75,6.84,13.1,10.3,1.51-1.66,3.05-3.31,4.77-4.77,.22,.32,.68,.96,.9,1.27-3.72,3.31-7.42,6.67-11.03,10.11-.31,10.84,0,21.72-.15,32.56-9.47,6.22-19.36,11.9-28.97,17.95-5.07-3.63-9.99-7.46-14.99-11.18-4.49,3.61-8.98,7.22-13.5,10.79-.65,.72-1.31-.33-1.84-.63-4.22-3.39-8.42-6.82-12.7-10.13-1.79,1.57-3.68,3.03-5.48,4.6-.29-.28-.85-.82-1.14-1.09,2.2-1.52,4.34-3.12,6.54-4.64,.01-10.51,.01-21.02,0-31.53,0-2.81-.99-5.66-2.91-7.74-2.11-2.29-4.95-3.9-6.63-6.59-1.86-3.12-2.03-6.99-1.32-10.48,1.04-3.94,4.17-6.94,7.5-9.1h0Z"></path><path id="path28" class="cls-1" d="M168.04,178.59c-3.64,2.4-7.31,4.77-11.04,7.03-5.45,3.41-11.36,5.98-17.07,8.91,.02,12.11-.03,24.22,.01,36.33-1.76,1.31-3.7,2.35-5.41,3.72,.18,.32,.55,.95,.73,1.27,1.9-1.27,3.77-2.58,5.71-3.78,4.9,4.68,9.87,9.3,14.81,13.94,9.23-6.86,18.29-13.96,27.43-20.94,1.17-.24,.21-2.14-.54-1.41-4.95,3.84-9.76,7.88-14.64,11.82-3.83-3.8-7.63-7.62-11.44-11.43-1.23-1.08-.5-2.89-.57-4.31,8.12-6.03,16-12.41,24.14-18.41-3.75-7.72-8.14-15.15-12.13-22.75Zm-12.12,9.18c4.19,6.82,8.03,13.87,11.89,20.88-3.99,2.93-7.85,6.03-11.8,9-.18-9.96,0-19.92-.09-29.88Z"></path><path id="path30" class="cls-1" d="M404.03,178.62c-4,2.33-7.94,4.73-11.82,7.24-4.55,2.78-9.53,4.75-14.37,6.93,.11,12.71,.03,25.42,.04,38.13-1.62,1.61-3.26,3.22-4.83,4.88,.33-.02,.99-.07,1.32-.09,1.15-1.23,2.35-2.42,3.53-3.62,5.44,4.45,10.8,9,16.2,13.49,.89,.86,1.9-.42,2.77-.73,8.69-4.75,16.89-10.35,25.85-14.61,.14-11.84,.04-23.68,.06-35.52,1.62-1.62,3.25-3.22,4.83-4.88-.32,0-.95,.03-1.27,.04-1.51,1.24-3.03,2.44-4.55,3.66-5.92-4.97-11.82-9.97-17.75-14.91Zm-10.13,8.78c4.27,4.01,8.62,7.97,12.89,12-.04,12.61-.03,25.21-.03,37.81-4.38-3.84-8.54-7.91-12.86-11.82v-37.99h0Z"></path><path id="path32" class="cls-1" d="M498.14,206.86c6.16-9.46,12.46-18.83,18.77-28.2,2.72,2.32,6.13,3.77,9.69,4.13,3.49,0,6.47-2.07,9.11-4.15-.66,5.1-2.36,10.4-6.28,13.95-3.42,3.13-8.6,3.89-12.9,2.36-2.54-.86-4.88-2.21-6.98-3.87-.37,.87-.68,1.78-.9,2.7,8.75,13.17,17.34,26.47,25.93,39.75,1.97-1.28,3.7-2.9,5.44-4.47,.34,.21,1.02,.65,1.36,.86-6.18,5.51-12.56,10.8-18.89,16.14-8.14-13.05-16.11-26.21-24.34-39.2Z"></path><path id="path36" class="cls-1" d="M444.91,179.6c3.42,3.12,6.3,6.79,9.48,10.16,3.46-3.31,6.84-6.72,10.18-10.16,2.43,1.56,4.96,3.74,8.08,3.11,2.2-.15,3.34-2.3,5.21-3.18,0,4.58-1.05,9.39-4.07,12.94-3.47,4.15-10.03,5.37-14.68,2.52-1.78-.87-2.97-2.53-4.63-3.55,.04,12.52,.02,25.03,.01,37.54,2.46,1.9,4.94,3.79,7.47,5.59,1.84-1.21,3.26-3.43,5.59-3.64-5.47,5.21-11.2,10.16-16.9,15.12-4.28-4.04-8.66-7.98-12.9-12.06-1.65,1.48-3.18,3.1-4.75,4.66-.25-.29-.75-.87-1.01-1.17,2.08-2.31,4.39-4.39,6.52-6.66-.08-10.71,.04-21.42-.05-32.12-1.14-2.7-3.11-5.05-4.54-7.63-1.96,1.15-3.38,3.56-5.82,3.64,5.53-5.12,11.32-9.96,16.82-15.1h0Z"></path></g><g><path id="path6" class="cls-1" d="M265.23,8.51c-.95,.05-1.87,.29-2.75,.85,3.65,.73,7.93,1.22,10.23,4.55,1.15,1.23,.8,3.11-.36,4.19-2.18,2.6-5.93,3.42-9.14,2.59-10.87-2.57-21.15-7.56-32.32-8.85-5.98-.79-11.83,2.09-15.96,6.25-3.81,3.82-5.2,9.63-4.44,14.87,.84,4.15,3.92,8.45,8.36,9.06-2.63-2.86-3.13-7.83-.4-10.8,1.54-1.91,4.29-2.18,6.57-1.82,8.66,1.61,17.09,4.21,25.73,5.97,4.83,1.32,9.61,2.89,14.55,3.78,.09,5.91,.09,11.8,0,17.71-3.19,2.38-6.23,4.94-9.36,7.4,3.05,2.28,6.19,4.42,9.33,6.55,.2,8.35-.03,16.7,.12,25.05-5.15,3.98-12.05,4.62-18.32,3.89-6.66-.37-12.57-4.34-16.93-9.15,7.31-3.9,14.76-7.58,22.24-11.16,.26-13.17,.05-26.34,.12-39.52-9.35,3.92-18.59,8.05-27.91,12.03,2.69-6.89,8.17-12.47,14.7-15.78-1.71,.1-3.49-.02-5.09,.72-12.23,4.83-22.31,15.21-26.1,27.86-2.54,8.04-1.72,16.83,1.03,24.69,3.41,8.75,9.72,16.49,18.08,20.91,4.7,2.43,9.75,4.7,15.14,4.77,11.15,.93,22.87-3.28,30.39-11.67,3.28-3.52,4.94-8.12,6.57-12.56,1.51-4.38,2.19-9.04,2.03-13.67-3.61,7.16-8.41,13.88-14.96,18.62,.04-8.32-.01-16.64,.01-24.96,2.85-2.17,5.71-4.34,8.47-6.63-2.83-2.51-5.64-5.01-8.47-7.52,.01-5.85-.01-11.71,0-17.56,6.37-.34,13.7-3.7,15.42-10.38,1.2-4.36,1.82-9.53-.85-13.48-2.46-2.8-5.65-5.23-9.39-5.91-2.07-.18-4.26-1-6.34-.9Zm-29.81,40.13c-.02,12.68,.07,25.37-.04,38.05-2.12,.83-4.2,1.74-6.28,2.66-3.84-5.56-6.23-12.1-7.33-18.74-.3-5.61,.74-11.28,2.69-16.54,3.69-1.75,7.29-3.65,10.96-5.43Z"></path><path id="path14" class="cls-1" d="M289.09,27.69c6.18-4.61,12.24-9.38,18.43-13.97,.03,15.21,0,30.42,.02,45.64,5.23-4.32,10.51-8.59,15.69-12.96,4.16,4.31,8.04,8.9,12.32,13.07,1.81-1.3,3.66-2.53,5.56-3.69-.34,2.41-3.22,3.24-4.72,4.92,.02,8.32,0,16.63,0,24.94,.12,6.22-.78,12.39-.96,18.6-.28,6.74-2.9,13.62-8.15,18.04-4.27,3.82-10.11,5.19-15.68,5.65-.1,.13-.3,.4-.4,.54l.15-.49c-1.92,0-3.83-.07-5.75-.22,2.41-1.24,5.13-2.04,7.02-4.1,2.18-2.43,4.71-4.74,5.79-7.92,1.75-4.85,1.81-10.07,1.98-15.15-.05-11.4,.05-22.8-.05-34.19-2.54-3.31-5.58-6.23-8.27-9.42-1.47,1.57-3.24,2.9-4.5,4.64-.1,11.76-.01,23.53-.04,35.29,1.53,1.52,3.05,3.05,4.58,4.56,1.23-1.24,2.46-2.48,3.7-3.73,.28,.27,.82,.81,1.09,1.08-5.98,4.68-11.91,9.43-17.89,14.1-3.79-3.36-7.48-6.82-11.21-10.25-1.25,.93-2.5,1.88-3.76,2.81-.27-.28-.8-.84-1.06-1.12,2.87-1.85,5.69-3.78,8.53-5.67,0-20.92,0-41.83,0-62.74-.06-1.6,.02-3.32-.83-4.74-.56-1.09-1.81-1.44-2.75-2.09-.21-.69,.78-.99,1.15-1.42h0Z"></path><path id="path26" class="cls-1" d="M377.46,46.42c-5.17,2.99-10.16,6.26-15.23,9.41-4.29,2.24-8.65,4.35-12.97,6.52,.02,12.12-.02,24.23,.03,36.35-1.84,1.43-3.99,2.46-5.67,4.1,.32,.19,.96,.58,1.29,.78,1.45-1.25,2.88-2.52,4.47-3.59,5.35,4.45,10.41,9.27,15.75,13.75,.26-.14,.79-.42,1.06-.55,9.05-7.01,18.18-13.92,27.24-20.92l-1.12-.99c-5.04,3.92-9.94,8.06-14.93,12.04-4.12-3.71-8.11-7.57-12.22-11.29-1.4-1.02-.62-2.96-.72-4.41,8.44-6.18,16.89-12.36,25.2-18.71-4.15-7.44-8.17-14.95-12.19-22.47Zm-13.04,8.93c4.27,7.02,8.56,14.01,12.79,21.06-4.3,3.02-8.56,6.08-12.8,9.15-.04-10.07-.06-20.14,.01-30.21Z"></path></g><g><path id="path8" class="cls-1" d="M209.11,281.32c-1.03-.03-2.03,.17-2.98,.85,2.15,.5,4.43,.71,6.45,1.72,1.79,.86,2.98,2.64,3.6,4.49,.34,1.99-1.12,3.83-2.87,4.58-3.13,1.45-6.69,.78-9.89-.09-7.66-2.35-15.12-5.38-22.93-7.21-4.01-.86-8.22-1.66-12.28-.6-4.4,1.24-8.86,3.34-11.46,7.27-3.35,4.33-3.77,10.28-2.14,15.36,1.35,3.39,4.07,6.73,7.93,7.16-1.26-1.62-3.42-3.25-2.8-5.55,.35-2.29,1.29-4.6,3.13-6.09,1.83-1.38,4.34-1.36,6.46-.75,7.79,1.45,15.39,3.63,23.09,5.46,5.22,1.11,10.23,3.05,15.48,4.02,.09,5.88,.02,11.76,.04,17.65-2.82,2.49-5.65,4.99-8.44,7.52,2.81,2.17,5.57,4.4,8.42,6.52,.04,8.37-.01,16.75,.04,25.13-4.94,3.7-11.45,4.62-17.44,3.78-6.62-.39-12.41-4.38-16.81-9.09,1.8-1.26,3.86-2.06,5.8-3.08,5.47-2.69,10.87-5.51,16.38-8.11,.17-13.18,.02-26.37,.07-39.55-9.29,3.95-18.5,8.09-27.82,11.97,2.13-5.06,5.53-9.68,10.11-12.77,1.37-1.25,2.76-2.56,4.64-2.99-1.88,.13-3.82,.07-5.53,.94-13.13,5.31-24.33,16.9-26.8,31.14-.94,7.23-.27,14.73,2.26,21.58,3.24,8.04,8.94,15.18,16.35,19.74,3.55,2.16,7.36,3.9,11.34,5.1,9.52,1.59,19.74,.22,28.08-4.85,5.5-3.83,10.6-8.81,12.91-15.26,2.47-5.47,3.46-11.45,3.59-17.42-1.15,1.5-1.82,3.29-2.8,4.89-3.16,5.31-7.26,10.13-12.25,13.81,.06-8.35-.07-16.69,.07-25.04,2.82-2.04,5.47-4.31,8.32-6.34-2.62-2.72-5.59-5.06-8.38-7.6-.05-5.85,.07-11.71-.06-17.56,5.47-.35,11.01-2.81,13.95-7.61,3.06-4.94,3.05-11.66,.09-16.63-2.33-3.08-5.99-5.06-9.77-5.62-1.7-.14-3.46-.83-5.17-.88h0Zm-30.05,40.11c.07,12.66,0,25.32,.03,37.98-2.16,.9-4.29,1.86-6.45,2.77-3.12-4.39-5.56-9.33-6.81-14.58-1.38-6.88-1.02-14.34,2.18-20.69,3.71-1.77,7.36-3.63,11.04-5.47h0Z"></path><path id="path18" class="cls-1" d="M228.45,305.33c3.88-3.4,7.53-7.05,11.49-10.35,3.35,3.54,6.88,6.9,10.28,10.38-4.09,3.82-8.2,7.62-12.34,11.38-3.13-3.82-6.35-7.56-9.43-11.41h0Z"></path><path id="path24" class="cls-1" d="M446.85,316.47c.43,1.1,.57,2.33,.03,3.43-1.32,3.02-4.92,4.18-7.99,4.13-3.21-.29-5.71-2.59-7.87-4.77-3.63,2.43-7.27,4.84-10.89,7.27-4.18,2.81-8.79,4.89-13.42,6.82-.02,5.95,0,11.88-.01,17.83,3.38,2.82,6.86,5.51,10.17,8.41-2.54,2.69-5.05,5.42-7.45,8.24-2.46,2.97-4.79,6.4-4.94,10.38-.14,4.53,1.79,9.43,5.8,11.83,1.77,1.04,3.92,1.97,5.98,1.17-2.56-.92-5.71-2.77-5.49-5.89,.71-2.96,4.22-4.93,7.13-4.08,3.02,.86,5.52,3.02,7.45,5.44,7.77-5.59,15.94-10.59,24.44-15-.07-7.54,.11-15.11-.07-22.64-3.75-2.63-7.33-5.5-11.04-8.18,3.92-4.97,7.87-10.23,9.51-16.45,.61-2.63,.82-5.94-1.36-7.91h0Zm-25.01,11.31c2.52,3.62,5.85,7.14,10.43,7.88,4.55,1.07,8.96-1.4,11.95-4.68-4.09,7.56-10.43,13.62-16.98,19.06-1.77-1.88-3.68-3.63-5.43-5.52,.07-5.58,.01-11.16,.03-16.74h0Zm6.42,22.56c1.96,1.65,3.9,3.33,5.86,5,.9,.54,.46,1.66,.58,2.51-.05,6.48,.08,12.98-.07,19.46-1.47-3.32-3.66-6.4-6.76-8.36-4.49-2.94-10.67-3.11-15.24-.25-2.09,1.16-3.77,2.89-5.35,4.65,2.27-4.43,5.93-7.92,9.38-11.43,3.94-3.79,7.87-7.58,11.61-11.58Z"></path><path id="path34" class="cls-1" d="M386.29,319.24c-3.81,2.32-7.63,4.63-11.38,7.01-5.2,3.61-11.16,5.86-16.68,8.91,.06,12.11,0,24.23,.03,36.33-1.9,1.26-3.78,2.54-5.68,3.77,.25,.3,.74,.91,.99,1.21,1.64-1.21,3.12-2.66,4.89-3.71,4.94,4.59,10.1,8.93,15.11,13.45,.48,.77,1.18-.02,1.66-.33,9.02-6.95,18.07-13.86,27.1-20.79-1.06-1.85-2.26-.06-3.32,.7-4.24,3.45-8.47,6.9-12.73,10.34-4.35-3.97-8.55-8.08-12.98-11.95-.07-1.24-.07-2.49-.01-3.74,8.47-6.13,16.83-12.41,25.23-18.64-4.04-7.54-8.1-15.07-12.22-22.57h0Zm-13.06,9.14c4.58,6.77,8.6,13.92,12.89,20.88-4.36,2.99-8.59,6.14-12.92,9.15,.07-10.01,0-20.02,.03-30.03h0Z"></path><path id="path38" class="cls-1" d="M259.15,333.63c5.09-4.46,10.08-9.03,15.2-13.45,3.67,4.05,7.47,7.99,11.08,12.1,5.41-3.91,10.6-8.11,15.96-12.1,3.75,4.02,7.43,8.11,11.22,12.1,5.31-4.02,10.55-8.12,15.89-12.09,3.65,4.07,7.41,8.03,11.1,12.07,2.26-1.44,4.34-3.17,6.64-4.55,.17,1.34-1.05,1.95-1.9,2.69-1.23,.99-2.43,2.03-3.66,3.02-.1,11.14,.02,22.28-.07,33.42,2.12,2.2,4.29,4.37,6.5,6.49,1.17-1.21,2.36-2.41,3.5-3.65,.34,.22,1.03,.64,1.37,.86-5.58,5.5-11.34,10.83-17.07,16.17-4.04-4.77-8.27-9.38-12.22-14.23,.96-.88,1.89-1.79,2.81-2.72,.01-9.61,0-19.22,0-28.82-3.05-3.4-6.09-6.82-9.24-10.13-.91,.93-1.82,1.85-2.72,2.78-.01,12.01,.05,24.03-.03,36.04,1.51,1.7,3.22,3.22,4.76,4.91-4.13,3.67-8.12,7.51-12.23,11.21-3.84-4.04-7.62-8.14-11.34-12.28,1.06-1.3,3.18-2.25,2.85-4.24-.05-9.37,.05-18.74-.05-28.11-2.56-3.57-5.43-7.02-8.4-10.27-.87,.92-1.75,1.82-2.63,2.73,.02,11.64-.07,23.28,.04,34.92,1.26,2.14,3.13,3.89,4.69,5.83-4.01,4.22-8.16,8.32-12.34,12.37-4-4.76-8.14-9.4-12.16-14.13,1.26-.98,2.52-1.94,3.79-2.91-.04-9.83-.07-19.67,.02-29.5-2.36-2.92-4.94-5.65-7.42-8.47-1.76,1.3-3.31,2.94-5.32,3.86-.1-.92,.81-1.35,1.37-1.91Z"></path><path id="path40" class="cls-1" d="M223.74,334.4c5.26-4.82,10.72-9.46,16.03-14.23,3.79,4.31,7.47,8.71,11.24,13.04,1.96-1.53,3.71-3.35,5.87-4.61-.16,.69-.35,1.4-.99,1.79-1.62,1.35-3.23,2.7-4.86,4.01,.02,11.16-.05,22.31,.04,33.47,2.13,2.41,4.33,4.76,6.32,7.3,1.66-1.01,3.04-2.39,4.62-3.52,.34,.18,1.01,.53,1.35,.71-5.26,4.93-10.72,9.66-16.2,14.33-3.64-4.38-7.38-8.69-11.11-13-1.62,1.47-2.97,3.25-4.75,4.53-.25-.23-.75-.71-1.01-.95,1.58-1.5,3.07-3.09,4.67-4.57,.13-10.13,0-20.28,.06-30.42-.1-1.41,.36-3.08-.74-4.21-1.95-2.42-3.75-4.97-5.82-7.29-1.55,1.25-3.01,2.61-4.72,3.62h0Z"></path></g></svg> 