<?xml version="1.0" encoding="UTF-8"?> <svg xmlns="http://www.w3.org/2000/svg" id="_2020-marcom-gold-winner" width="216" height="216" viewBox="0 0 216 216"><defs><style>.cls-1{fill:#292663;}</style></defs><path class="cls-1" d="M119.15,88l22.85-5.43h0v-19.63h0l-54.61-10.82,7.93,12.08-4,2.61c-.14-.18-.27-.36-.39-.56-.52-.92-.97-1.87-1.35-2.86l-.06-.16c-.72-1.12-1.57-2.16-2.52-3.09-.65-.72-1.21-1.34-1.39-1.59s-.6-.74-1-1.24c-.29-.34-.61-.71-.76-.92l-.07-.08v-.11c-.1-.33-.18-.66-.23-1-.1-.57-.31-1.11-.64-1.59l-.05-.1v-.11c0-.18-.06-.47-.08-.73s0-.43-.06-.48c-.05-.38-.18-.75-.37-1.09v-.25c-.03-.15-.07-.29-.13-.43-.02-.07-.06-.13-.1-.18l-.26-.24v-.19c0-1.07,.12-4.66,.29-5.85,.05-.34,.14-.68,.27-1v-.06h0c.19-.3,.24-.66,.13-1v-.16c-.01-.12-.04-.24-.07-.35l-.07-.17v-.19c.04-.19,.07-.36,.09-.51,.05-.58,0-1.16-.12-1.72,0-.1-.08-.27-.13-.43h0c-.07-.21-.13-.43-.16-.65h0c-.02-.4-.22-.77-.55-1l-.14-.1-.07-.16-.09-.19c-.17-.35-.5-.6-.89-.65h-.15l-.12-.09c-.17-.1-.36-.15-.56-.14-.34,0-.67,.13-.93,.35-.42,.47-.76,1-1,1.58,0,.07,0,.12-.07,.18h0c-.14,.29-.24,.59-.28,.91-.06,.54-.16,1.07-.3,1.59h0c-.14,.31-.19,.66-.15,1v.21l-.12,.19c-.12,.18-.18,.41-.15,.63v.14c-.03,.3,.05,.6,.22,.84,.01,.04,.03,.07,.06,.1,.15,.28,.25,.58,.29,.9,0,.26,.08,1,.14,1.53v.33l-.26,.22c-.3,.26-.52,.61-.6,1-.06,.59-.06,1.18,0,1.77v.24l-.09,.32c-.1,.37-.1,.76,0,1.13v.27s0,.08,0,.12h0c-.08,.35-.07,.72,.04,1.06l.06,.16v.18c-.05,.7,.11,1.39,.45,2,.27,.57,.6,1.1,1,1.58l.17,.23v.27c0,.09,0,.18,0,.27,0,.26,.06,.51,.19,.73v.17s.07,.26,.09,.35h0c.08,.62,.46,1.67,1.4,1.67,.12,.01,.23,.01,.35,0l.43-.1,.24,.38c.49,.78,.92,1.55,1.28,2.27,.78,1.54,1.43,2.68,2.18,4l.17,.3,.82,1.54c.4,.7,.84,1.37,1.33,2l-1.85,1.2,3.43,.68c.83,1,1.82,2,3,3.14l-17,4h0v19.69h.08l23.86,4.72c.32,.67,.77,1.55,1.15,2.29h0c.06,.13,.12,.27,.16,.41h0c.23,.77,.53,1.52,.91,2.23l-39.7,9.43v19.64h.05v.09l36.22,7.18-22.79,5.46h0v19.64h0l31.76,6.3c1.44,1.5,2.5,2.6,2.83,3,.51,.71,1.46,.94,2.24,.54l3.51-1.82,14.24,2.82-5-7.67c5.06-2.7,10.23-5.55,12.52-7.11,.86-.57,.63-1.2,.59-1.33-.13-.38-1.44-4.37-2.93-8.91l8.24-2v-19.53h-.07l-22-4.37c.49-.31,.87-.77,1.09-1.31,.6-1.83,1.09-3.69,1.48-5.57l33.06-7.85v-19.8l-36.41-7.19Zm-38.85-50.8s0-.09,0-.14v-.19l.07,.18c.07,.15,.12,.28,.12,.28l.08,.21h.35c.05,.34,.13,.68,.24,1,0,.13,.07,.26,.09,.34,0,.04,0,.09,0,.13h0c-.02,.18-.02,.35,0,.53,.02,.19-.05,.37-.19,.5-.07,.05-.16,.08-.25,.09h0s-.07-.38-.14-.92c-.02-.19,.03-.39,.14-.55,.08-.14,.13-.22,0-.4s-.14-.14-.19-.21c-.22-.21-.35-.35-.33-.64-.02-.04,0-.12,.01-.21Zm.11,3.63c.25,.04,.5-.05,.66-.24l.18-.15h0l.11-.08v.13c-.07,.31-.17,.65-.18,.68v.22l.16,.15c.05,.06,.09,.13,.11,.21v.21h0v.04h-.25l-1-.07h0c-.07-.22-.16-.43-.26-.63-.09-.19-.11-.29-.07-.37s.21-.1,.54-.1Zm-1.28-3h.19c.11,.1,.19,.22,.25,.36,.04,.12,.12,.23,.22,.31,.05,.04,.11,.07,.17,.08,.14,0,.2,.08,.22,.43,.03,.33,.03,.67,0,1v.06h-.06c-.54-.18-.93-.65-1-1.22v-.58c0-.16-.04-.35,0-.41v-.03Zm-1,2.56c.17-.43,.29-.87,.37-1.33v0c.11,.26,.3,.48,.54,.62h.07c.3,.22,0,.93,0,1-.08,.21-.26,.35-.48,.38-.09,.02-.18,.02-.27,0h0s-.11,.09-.14,.13l-.06,.07v-.08c-.08-.24-.1-.51-.05-.76l.02-.03Zm-.24,1.79c.04-.1,.04-.2,0-.3h0l.39-.13-.11-.32h0c.2-.06,.4-.09,.61-.1,.04-.01,.08-.01,.12,0,.08,.09,.11,.21,.1,.33,0,.26-.15,.29-.35,.33-.29,.04-.57,.15-.81,.32h0v-.08l.05-.05Zm-.21,5.57v-.57c0-.07,.04-.13,.08-.18h0c.16,0,.2,.15,.27,.36v.14h0l-.37,.26h.02Zm-.1,1.62l.11-.37h0v-.54h0c.18-.15,.38-.28,.58-.39h.06v.07c0,.17,0,.34,0,.51,0,.25-.15,.39-.38,.62l-.17,.17c-.05,.05-.12,.09-.19,.12h-.09l.08-.19Zm.1,1.14l-.1-.2s0-.1-.08-.24h0s0-.07,0-.11c.14-.3,.44-.49,.77-.5h0c.02,.14,.02,.28,0,.42,0,.21-.15,.3-.34,.42l-.26,.19h0v.02Zm.83,1.1c-.05,.13-.15,.23-.28,.28l-.22,.1c-.07,.04-.15,.07-.23,.09h-.07v-.33h0c.06-.23,.25-.33,.65-.47h0c.09,.1,.14,.23,.13,.36l.02-.03Zm.22-4.62h0v-.4s-.23-2.34-.26-2.79c-.04-.35-.13-.68-.27-1h0s.08-.04,.13-.06c.12-.04,.24-.07,.36-.08,.32,0,.42,.28,.48,.72l.31,5.11h-.1c-.11-.41-.26-.8-.46-1.17l-.19-.33Zm.86,9.28v.22h-.38l.14-.12v-.77l-.09-.1-.25-.29h0v-.58c.03-.28,.09-.55,.17-.82,.13-.31,.29-.61,.48-.89l.1-.16-.17,3.51Zm.49,1.35c0,.13-.02,.25-.07,.37,0,.03,0,.06,0,.09l-.06,.13v-.13c0-.1,0-.2,0-.3v-1h.32l-.19,.84Zm.6-7.17h0c-.16,.14-.26,.33-.29,.54-.08,.7,0,1.41,.24,2.07h0v3.4h-.81l.24-13.65c.1-.22,.31-.36,.55-.39h.15c.21,0,.38,0,.41,.43h0c-.07,.25-.12,.5-.16,.75-.24,1.58-.32,6.55-.32,6.75v.1Zm.78,2c-.34-.09-.6-.35-.7-.69-.06-.29-.06-.59,0-.88h0l.24-.09v.05s0,.08,0,.12c.04,.2,.11,.38,.2,.56,.13,.22,.21,.47,.25,.72v.21h.01Zm36.33,30.24c-.14-.2-.2-.44-.18-.68v-1.3c0-.54-.27-.8-.86-.66l-.77,.18v2.9l-1.46,.34v-6.86l2.69-.64c1.19-.28,1.92,.14,1.92,1.31,.07,.86-.42,1.66-1.21,2h0c1-.11,1.14,.38,1.16,1.82,0,.72,0,1.09,.33,1.16v.06l-1.62,.37Zm2.61,14c.04,.26,.12,.52,.25,.75h0c.45,1.4,1,3.56,1.42,4.85v.21l.15,.37c0,.08,.06,.16,.08,.23l-.44,.1c-.1-.32-.2-.59-.26-.75-.2-.54-1.82-5.09-2.33-6.27-.34-.83-.58-1.69-.74-2.57-.45-.93-1.12-1.74-1.95-2.36-.71-.65-1.35-1.37-1.89-2.16,0,0,0-.06-.06-.1l1.46-.35c.05,.1,.11,.19,.17,.28,.28,.57,.61,1.11,1,1.61,.2,.22,.41,.47,.61,.72,.03,.08,.07,.15,.12,.21,.08,.11,.16,.21,.25,.31,.09,.11,.17,.22,.25,.33l.12,.19c.16,.38,1.17,2.7,1.79,4.4Zm-.63-3l.11,.07c.14,.09,.26,.2,.38,.31l.06,.11c.19,.3,.26,.65,.19,1v.59l-.08-.22c-.19-.48-.35-.88-.42-1.08s-.11-.36-.18-.62l-.06-.16Zm2.06,6.12l.11,.11c.24,.2,.42,.46,.52,.75,0,.05,0,.11,0,.16v.06h-.06c-.23,0-.38,0-.45-.31,0-.12-.07-.35-.12-.61v-.16Zm-9.83,38.76c.08,.25,.25,.56,.45,.51v-.58c-.14-.41-.14-.85,0-1.26,.1-.25,.21-.49,.33-.73,0-.07,.09-.16,.17-.12s0,.22-.07,.3c-.23,.43-.34,.92-.32,1.41,.1,.54,.38,1.08,.11,1.31s-.76-.09-.92-.49c-.21-.43-.21-.92,0-1.35,.12-.25,.27-.26,.34-.2s0,.3,0,.37c-.08,.27-.11,.55-.09,.83Zm-.71-2.53c.06,.09,.25-.13,.32,0s0,.17-.25,.36-.46,.37-.62,.14c-.3-.43,.35-.84,.35-.84,0,0,.21-.16,.27,0s-.17,.29-.11,.34h.04Zm.59-.44c-.14-.11,0-.25,.12-.36s.7-.78,.7-.78c0,0,.14-.25,.28-.13s0,.36,0,.36l-.68,.76c-.2,.13-.3,.25-.46,.15h.04Zm.46-2.1c-.4,.66-.88,1.27-1.44,1.81-.32,.26-.55,.47-.66,.34s.16-.23,.41-.43c.62-.56,1.13-1.24,1.49-2,.49-1.02,1.07-2,1.73-2.92,.3-.37,.55-.53,.68-.42s-.61,.94-.88,1.35-1.01,1.7-1.37,2.27h.04Zm-14.11,10.88c.23-.53,1.93-4.54,2-4.63s.14-.16,.23-.09l4.14,3.21-6.37,1.51Zm.77,14.31l-2,.47v-9.37l2-.47v9.37Zm1.18-19.89c.07-.07,.14,0,.14,0l4.8,3.91h-.19l-4.7-3.72s-.15-.11-.06-.19h.01Zm.3,10.17l2.29-.55,2.41,5.85h0v-6.42l1.82-.43v9.37l-2.26,.54-2.44-6h0v6.56l-1.82,.44v-9.36Zm-2.74-54.13c0-.15,.06-.3,.09-.42,0-.05,0-.11,0-.16v-.07h.06c.07,.06,.13,.12,.18,.2h0s-.07,.8,1.15,2l.7,.66c.52,.53,1.06,1.04,1.63,1.52,.3,.3,.42,.72,.34,1.13-.02,.09-.1,.15-.19,.15-.11-.01-.21-.07-.28-.15-.22-.21-.45-.41-.7-.6-.97-.67-1.79-1.54-2.39-2.56-.12-.32-.23-.58-.32-.81-.13-.3-.23-.6-.31-.92h0l.04,.03Zm-1.74-6.85c-1.45,.34-2-.6-2-3s.63-3.6,2-3.92,2,.57,2,3-.64,3.55-2,3.92Zm3.34-23.58h-.12c-.19,.03-.36,.11-.51,.23h-.08v-.09c-.02-.23,0-.47,.05-.7,.05-.12,.09-.24,.13-.37h0l.1-.12c.07-.08,.13-.16,.18-.26,.06-.09,.12-.18,.2-.26,.22-.25,.4-.54,.51-.85v-.26h0c-.09,0-.21,.09-.39,.14h-.2v-.09c.09-.23,.26-.42,.48-.53,.33-.2,.51-.29,.59-.33h.34c.56,.02,1.11,.15,1.62,.38,.06,0,.06,.09,0,.11s-.23,.15-1.19,.15q-.51,0-.52,.08c0,.09-.03,.17-.08,.24-.11,.18-.19,.36-.26,.56-.1,.29-.24,.57-.42,.82-.15,.15-.21,.36-.17,.57,.06,.13,.21,.19,.44,.19s.41,0,.43,.06,0,.07,0,.1c-.04,.06-.07,.13-.07,.2,0,.34-.05,.67-.13,1,.03,.06,.03,.14,0,.2-.03,.06-.08,.11-.14,.13-.46,.08-.93,.12-1.4,.13h-.03c-.06,.01-.13,.01-.19,0h-.05v-.06c.03-.09,.05-.19,.06-.29h0s.07-.09,.1-.14c.09-.14,.2-.28,.31-.41,.11-.13,.21-.26,.3-.4,.04-.05,.07-.11,.09-.17,0,0,.03,0,.02,0v.04Zm7.72,28.82s-.44-.23-.64-1.36c-.04-.27-.04-.56,0-.83l1.28-.3c1.15,.47,4.32,2,4.9,2.29,.48,.2,.89,.55,1.17,1,.18,.27,.93,1.16,1.54,1.86l.69,.83c.49,.58,.21,.87,.2,.87h0c-1.42-.57-2.79-1.24-4.12-2-1.62-.91-3.3-1.71-5.02-2.4v.04Zm3.44,10.14s1.06,.93,2.4,2.07l-1.78,.42h0c-.4-.74-.62-1.57-.66-2.41v-.12l.04,.04Zm1.94-19.38l-.34-1.37-1.91,.46-.34,1.52-1.52,.36,1.91-7.3,1.8-.43,1.91,6.4-1.51,.36Zm-4.25-18.14c-.14,.53-.25,1.07-.32,1.61l-.17,1c-.06,.29-.1,.59-.13,.89-.16,.61-.27,1.23-.33,1.85l-.89,.21c0-1.39,.06-2.68,.09-3,.06-.35-.17-.68-.52-.74-.01,0-.03,0-.04,0-.28,0-1.13-.18-1.13-1v-.84c-.02-.14-.02-.29,0-.43h0s0-.09,.09-.09,.12,0,.31,.14l.33,.2c.21,.16,.46,.28,.72,.33h.31s0,0-.19-.11l-.2-.1c-.85-.33-1.65-.77-2.39-1.3-.37-.46-.5-1.07-.37-1.64,.05-.16,.07-.32,.07-.49,0-.17,0-.32,.15-.32,.04-.01,.07-.01,.11,0,.24,.1,.5,.16,.76,.19h.06c-.08-.1-.18-.18-.29-.25h0c-.38-.26-.5-.35-.48-.43s.09-.07,.26,0c.18,.04,.36,.07,.54,.09h0l-.09-.06-.38-.19c-.27-.12-.34-.15-.33-.22s.09-.07,.16-.07c.15,0,.31-.03,.45-.09h-.12l-1.62-.17h0c-.09-.05-.16-.13-.18-.23-.03-.16,.01-.32,.11-.44h0c.26-.05,.53-.07,.79-.07,.23-.01,.45-.01,.68,0,.41,.04,.81,.12,1.2,.25h.07l.56,.14c.19,.04,.37,.08,.55,.14l.13,.06c.29,.07,.55,.23,.75,.44,.2,.31,.35,.65,.44,1,.07,.27,.11,.55,.13,.83v.06l.12,.1,.12,.12h0v.07c.23,.23,.73,.95,.62,1.42-.09,.4-.26,.78-.51,1.1v.05Zm-8.26,4.45l-.13-.05c-.25-.13-.52-.22-.8-.26-.11,0-.21,.02-.31,.06h-.13v-.39h0c0-.16,.13-.16,.27-.17h.17c.3-.02,.59-.09,.86-.2,.22-.1,.17-.78,.12-1.26,0-.1,0-.21,0-.31-.05-.42,.03-.85,.25-1.22,.14-.23,.69-.25,1.13-.27h.35c0,.75-.06,1.5-.17,2.24-.11,.5-.35,1.18-.6,1.91-.06,.16-.11,.33-.17,.49-.28,.79-.68,1.23-1.13,1.23h-.11c-.43-.07-.63-.49-.74-.8s-.07-.39-.1-.54h0c.06-.13,.2-.17,.4-.23h.1c.08,0,.15,0,.23,0,.13,0,.26,.03,.39,.07,.11,.03,.22,.05,.34,.06h.12c-.03-.19-.16-.35-.34-.41v.05Zm-1.17-3.64c.06-.03,.12-.06,.19-.06,.05,0,.1,.03,.11,.09,0,0,0,.01,0,.02v.09c.02,.21,.02,.42,0,.63,0,.19-.12,.28-.24,.28-.15-.01-.27-.11-.32-.25v-.68h0c0-.17,.13-.17,.26-.17v.05Zm2.64,19.95v-6.9l2.16-.51,1,4.59h0l1-5.08,2.16-.51v6.85l-1.34,.32v-5.48h0l-1.28,5.77-1.1,.33-1.29-5.17h0v5.47l-1.31,.32Zm4.53,4.56c-.3,.9-.04,1.9,.67,2.54,1.05,.82,3.26,2.76,3.41,3.47,.03,.14,.07,.28,.11,.41,.33,.93,.31,1.95-.07,2.86-.57,1.59-.77,2.61-.25,3.87,.22,.52,.46,1.12,.67,1.71l-2.76,.66c-.4-.89-.68-1.84-.84-2.8-.38-2.44-1-4.84-1.38-6.45-.14-.56-.26-1-.34-1.4-.22-.7-.52-1.37-.9-2-.45-.67-.74-1.43-.87-2.23l2.55-.64Zm4.37,34.53l.34-.09c0,.21,0,.61,.06,1.32-.03,1.35-.22,2.69-.57,4-.23,.81-.38,1.63-.43,2.47-.03,.53-.47,.94-1,.94-.48-.07,0-.83,.41-1.67,.4-.97,.71-1.97,.94-3,.25-1.32,.34-2.67,.25-4.02v.05Zm-.43,12.29c0-.16-.14-.21-.31-.28s-.14-.32-.19-.46c-.04-.1-.15-.16-.26-.12-.04,.01-.07,.04-.09,.07-.1,.11-.18,.23-.23,.37-.09,.16-.07,.26-.17,.19s0-.33,0-.33c.06-.17,.14-.34,.24-.49,.09-.1,.23-.3,.46-.17s.19,.39,.25,.57,.08,0,.29,.08,.2,.12,.22,.29c.03,.44,.03,.88,0,1.32,0,.24,0,.34-.13,.34s-.07-.11-.07-.2,0-1.06-.01-1.18Zm-1.09-2.34c.11,.16,0,.37-.13,.5s-.49,.3-.55,.71c-.03,.35-.03,.71,0,1.06,0,.52-.1,1.05-.25,1s-.2-.69-.5-1.21-.83-.73-1-1.12c-.09-.35,0-.73,.23-1,.08-.15,.36-.45,.53-.35s.21,0,.21,0c0-.09,.04-.17,.11-.23,.1-.09,.33-.11,.68,0,.28,.12,.52,.33,.67,.59v.05Zm-2,5.45c.08,0,.14,.06,.28,.26,.24,.29,.51,.55,.82,.76l-.33,.08c-.18-.17-.34-.35-.49-.54-.14-.28-.3-.59-.23-.61l-.05,.05Zm.07-1.22c-.11-.1-.23-.19-.15-.26s.22,.12,.22,.12c.43,.36,.88,.69,1.34,1,.62,.38,1.3,.67,2,.85l-.64,.15c-.14-.06-.4-.17-.84-.4-.67-.45-1.3-.95-1.88-1.51l-.05,.05Zm4.42-14.42l1.09-.26c-.17,.23-.44,.39-.73,.42-.13-.03-.24-.1-.31-.21l-.05,.05Zm-2.19-3.36v-11.84l2.51-.59v9.84l4.43-1v2l-6.94,1.59Zm.36,5.55l-4-.8,3.84-.91c.06,.24,.11,.49,.15,.74,.05,.31,.06,.6,.06,.92l-.05,.05Zm6.56-3.36h.14l2.37,5s.2,.27-.25,.49c-.43,.21-.88,.37-1.35,.48-.33,.04-.65-.07-.89-.29-.29-.31-.68-.51-1.1-.55-.33-.05,.84-4.18,1.08-5.13Zm-5.4-24.37s.14,0,.19-.71c.04-.44-.02-.88-.15-1.3v-.11h.11s3.45,1.42,4.31,1.72c.78,.32,1.48,.79,2.08,1.38l.11,.1c.87,.85,1.68,1.77,2.4,2.75l-2.09,.5c-2.16-1.33-6.93-4.33-6.93-4.33h-.03Zm5.8-11.3l1.46-.35c.09,.23,.14,.47,.14,.72,0,.23,0,.44-.07,.63s-.06,.6-.07,.82v.14l-.08-.11c-.48-.58-.92-1.2-1.31-1.84-.01,0-.03-.01-.04-.01h-.03Zm5.74-6.86c-1.57,.37-2.21-.79-2.21-3s.64-3.7,2.32-4.09c.78-.28,1.64,.12,1.92,.9,.08,.22,.11,.47,.08,.7l-.42,.1c0-.93-.52-1.63-1.58-1.39-1.43,.34-1.91,1.73-1.91,3.65s.39,3.13,1.85,2.79c1.05-.38,1.74-1.38,1.73-2.5l.42-.1c.03,1.36-.86,2.56-2.17,2.94h-.03Zm5.19-1.23c-1.38,.33-2.34-.33-2.34-3s1-3.78,2.34-4.1,2.33,.33,2.33,3c.03,3.01-1.28,3.86-2.3,4.1h-.03Zm8.71-2.18l-.42,.1v-6.33h0l-2.06,6.87-.43,.09-2.07-5.84h0v6.33l-.43,.1v-6.88l.68-.16,2.06,5.67h0l2-6.63,.7-.17v6.86h-.03Zm-44.52-23.48l45.94,9.11-29,6.88c.1-.59,.23-1.17,.39-1.74,.1-.35,.24-.76,.36-1.12,.4-1.02,.65-2.08,.75-3.17-.04-.81-.36-1.58-.91-2.17l-.11-.14v-.17c0-.2-.07-.39-.11-.55-.12-.45-.31-.88-.56-1.27-.35-.48-.84-.83-1.4-1h-.07c-.25-.09-.51-.16-.77-.21h-.08l-.32-.08h-.08c-.47-.16-.96-.27-1.46-.31-.28-.04-.56-.06-.84-.06-.52,.01-1.04,.09-1.55,.23-.71,.14-1.37,.46-1.92,.92h-.07c-.16,.08-.36,.2-.59,.34-.63,.32-1.08,.92-1.21,1.62-.11,.44-.36,1.29-.46,1.52-.04,.09-.06,.18-.08,.27l-.43-.66-5.42-8.24Zm4.85,10.92l.9-.59c-.01,.15-.04,.3-.09,.45-.1,.58-.12,1.17-.07,1.75v.58c-.01,.37,.01,.74,.07,1.11v.76c-.02,.17-.02,.33,0,.5l.11,1.13-1-.5c-1.39-.68-2.65-1.59-3.74-2.69l3.82-2.5Zm-5.69,4.1c-.14-.3-.3-.58-.49-.84-.7-.77-1.47-1.46-2.31-2.07-.86-.84-1.5-1.86-1.88-3-1.15-2.19-2.44-4.31-3.87-6.33-.31-.41-.46-.92-.42-1.43,.01-.17,.1-.33,.24-.43,.14-.1,.33-.07,.55,.07h0c.07,.29,.15,.56,.2,.72,.29,.51,.64,.98,1.05,1.4,.37,.42,.74,.84,1,1.15s.8,1,1.46,1.69c.83,.86,1.59,1.77,2.29,2.73l.07,.17c.39,1.07,.87,2.1,1.43,3.08,1.54,2.29,3.68,4.12,6.18,5.29,.78,.3,1.51,.7,2.18,1.2l-1.51,.35c-.15-.36-.38-.69-.69-.93l-.2-.12c-.13-.11-.28-.18-.45-.21-.08,0-.17,0-.34,.17-.18,.18-.29,.4-.34,.65-.1,.33-.22,.68-.52,.77h-.09c-.38,0-1-.74-1.6-1.46-.26-.32-.54-.63-.83-.93-.45-.51-.82-1.08-1.11-1.69Zm.49,12.61c-.94,.24-1.57,1.12-1.5,2.09l-.43,.1c-.03-1.22,.81-2.28,2-2.53,.74-.17,1.84-.06,1.84,1.39-.07,.97-.56,1.86-1.34,2.43l-.95,.94c-.61,.54-1.03,1.26-1.18,2.06l3.5-.82v.36l-3.92,.93c.04-1.02,.49-1.98,1.25-2.66l1-1c.66-.52,1.08-1.28,1.17-2.12,.1-.58-.28-1.13-.86-1.23-.2-.04-.4-.01-.58,.06Zm-4.88,.82c1.49-.35,2,.58,2,3s-.65,3.6-2,3.92-2-.59-2-3,.63-3.59,2-3.92Zm-4.83,1.47c-.95,.24-1.58,1.13-1.5,2.1l-.43,.09c-.04-1.22,.81-2.28,2-2.52,.73-.18,1.84-.07,1.84,1.38-.08,.96-.58,1.84-1.37,2.4l-1,.95c-.61,.54-1.03,1.27-1.18,2.07l3.5-.83v.37l-3.92,.93c.04-1.02,.49-1.99,1.25-2.67l1-1c.69-.49,1.15-1.24,1.28-2.08,.1-.59-.29-1.15-.87-1.25-.2-.04-.41-.01-.6,.06Zm-2.87,12.81l17.89-4.25,.09,.28,.06,.18v.18c-.03,.11-.06,.23-.07,.35-.05,.34-.13,.68-.24,1-.29,.83-.29,1.73,0,2.56,.22,.62,.5,1.22,.82,1.8l.1,.19v.22c-.04,.41-.02,.82,.07,1.22l-18.72-3.73Zm19.41-.39c-.09-.2-.16-.41-.21-.62v-.26s.04,0,.06,0c.09,0,.27,.24,.4,.45h0c.58,1.31,1.37,2.51,2.32,3.58,.54,.62,.79,1,1,1.19,.13,.19,.28,.36,.44,.52,.18,.18,.24,.44,.16,.68-.03,.1-.12,.17-.23,.18-.11,0-.27-.07-.46-.39-.3-.45-.64-.87-1-1.27-.83-.81-1.5-1.76-2-2.8-.13-.43-.29-.85-.48-1.26Zm.89,4.75c-.13-.4-.23-.81-.31-1.22v-.06h.07c.1,0,.19,.11,.2,.12s2,3.26,2.64,4.21l.43,.59c.52,.65,.95,1.35,1.29,2.11l-1.26,.3s-.06-.07-.09-.1c-.4-.56-.75-1.14-1.06-1.75-.05-.13-.1-.26-.13-.39-.07-.25-.16-.49-.27-.73-.58-1.06-1.4-2.71-1.54-3.06l.03-.02Zm4.57,9.41c3.75-.88,4.22,1.54,4.22,5.13s-.47,6.23-4.22,7.12-4.23-1.54-4.23-5.12,.44-6.24,4.2-7.13h.03Zm-9.59,2.27c2.75-.65,3.86,.42,3.86,2.82l-2.4,.57c0-.88-.42-1.88-1.43-1.65-1.21,.29-1.7,1.59-1.7,4.53s.28,4.56,1.72,4.22c.94-.35,1.56-1.25,1.54-2.25v-1.2l-1.65,.39v-1.75l4-1v6.35l-1.84,.44v-1.09h0c-.53,1.02-1.5,1.74-2.62,1.96-3.08,.73-3.69-1.31-3.69-5.38s.98-6.2,4.18-6.96h.03Zm-28.97,22.78l36.1-8.56,8.35,1.65c-.26,1.21-.6,2.4-1,3.57l-.15,.45-.07,.06c-.7,.6-1.28,1.32-1.72,2.12-2.88,1.19-5.37,2.22-5.5,2.26-.53,.14-.98,.51-1.23,1-.08,.17-.75,1.78-1.67,4.05l-33.11-6.6Zm22.81,15.56l1.1,6.68h0l1.19-7.22,1.91-.45,1.16,6.65h0l1.09-7.2,1.94-.46-1.8,9.8-2.23,.53-1.07-6.54h0l-1.1,7.06-2.23,.53-1.8-9,1.84-.38Zm-9.27,16.73l16.37-3.89,8.59,8.83-24.96-4.94Zm31,9.17c0,.4-.21,.43-.37,.3s-12.2-12.42-13.34-13.57l14.27-3.41c0,1.78-.58,16.3-.58,16.68h.02Zm.65-.59l.41-16.19,.66-.15-1.07,16.34Zm4.9-22.38l-2.27,.53-2.44-6h0v6.57l-1.83,.43v-9.36l2.29-.54,2.41,5.85h0v-6.41l1.83-.43v9.36Zm-.08-20.32c-.77,.65-1.6,1.23-2.47,1.73-.07,0-.25,.14-.3,0s.16-.2,.16-.2c0,0,.53-.3,1.21-.78,.89-.68,1.73-1.43,2.51-2.24,.32-.36,.75-.82,.71-.91s-.17-.13-.32-.16c-.22-.11-.38-.31-.43-.55,0-.27,.54-.72,.91-.68s.34,.56,.34,.56l.1,.06c.11,.06,.07,.14-.09,.57-.67,.96-1.46,1.84-2.35,2.6h.02Zm1.47,10.62l5.52-1.31v1.54l-3.52,.84v2.2l3.32-.78v1.54l-3.32,.79v2.52l3.67-.87v1.55l-5.66,1.33v-9.35Zm2.99-8.81s-.07-.1,0-.12,.1,0,.12,.07c.27,.53,.29,1.15,.08,1.71-.14,.52-.39,1-.74,1.41l-1,.24c.8-.55,1.39-1.35,1.68-2.28,.11-.35,.05-.72-.14-1.03h0Zm5.06,41.42l-7.38-1.46,4.78-2.52,2.6,3.98Zm5.27-26.4l-2.16,.51c-.18-.27-.27-.59-.25-.92l-.05-1.79c0-.73-.38-1.09-1.18-.9l-1.06,.25v4l-2,.47v-9.38l3.68-.87c1.63-.38,2.63,.19,2.63,1.79,.09,1.16-.57,2.25-1.64,2.71h0c1.36-.14,1.56,.52,1.59,2.49,0,1,.07,1.48,.44,1.57v.08h0Zm7.66-16.35l-13.22,3.14-7.26-5c1-1.16,1-1.61,1-2l19.48,3.86Zm-16.59-8.18c-.29,.21-.41,.07-.68-.28s-1.3-1.84-2-2.84l.77-.18,1.75,2.52s.44,.57,.16,.78h0Zm.48-7.73l-4,.93v-11.78l4.11-1c3.48-.82,4.11,1.29,4.11,4.76,.04,4.2-.9,6.31-4.22,7.09h0Zm2.26-16.31s-.04-.1-.06-.15l-.08-.2,.06-.21c.18-.55,.24-1.13,.18-1.71-.17-.64-.54-1.2-1.06-1.61l-.14-.12v-.17c-.04-.11-.08-.22-.11-.34-.11-.38-.31-.87-.48-1.3h0c-.04-.08-.07-.16-.1-.25v-1.47c.07-.57-.06-1.16-.36-1.65v-.07c-.25-.38-.6-.69-1-.9l-.13-.08-.07-.13c-.1-.17-.19-.32-.27-.47-.13-.25-.28-.49-.46-.71h-.43v-.67c0-.2,0-.49,.07-.74l32.14,6.38-27.7,6.57Z"></path><path class="cls-1" d="M116.61,77.14l-.68,.16v2l.6-.15c.65-.06,1.14-.63,1.1-1.28,0-.66-.36-.87-1.02-.73Z"></path><path class="cls-1" d="M125.94,144.34l-.94,.23v2.71l.84-.2c.89-.09,1.54-.87,1.49-1.76,0-.86-.49-1.19-1.39-.98Z"></path><path class="cls-1" d="M103.42,121.89c1.48-.35,1.72-1.61,1.72-4.78s-.24-4.32-1.72-4-1.72,1.63-1.72,4.78,.24,4.35,1.72,4Z"></path><path class="cls-1" d="M120.87,109.25l-1.07,.25v8.28l1.12-.26c1.73-.41,2.08-1.53,2.08-4.74,0-2.67-.22-3.98-2.13-3.53Z"></path><path class="cls-1" d="M96,81.38c-1.57,.37-1.57,2.45-1.57,3.5,0,2.58,.58,3,1.57,2.75s1.58-1,1.58-3.5c0-1.28,0-3.13-1.58-2.75Z"></path><path class="cls-1" d="M86.29,89.93c1-.23,1.58-1,1.58-3.5,0-1.27,0-3.13-1.58-2.75s-1.57,2.46-1.57,3.5c0,2.57,.59,2.98,1.57,2.75Z"></path><path class="cls-1" d="M127.36,73.78c-1.41,.34-1.91,1.79-1.91,3.67s.41,3.12,1.91,2.77c1.32-.32,1.91-1.49,1.9-3.66,0-1.86-.44-3.12-1.9-2.78Z"></path><polygon class="cls-1" points="111.14 78.6 110.44 81.85 111.86 81.51 111.16 78.6 111.14 78.6"></polygon></svg> 