<?xml version="1.0" encoding="UTF-8"?> <svg xmlns="http://www.w3.org/2000/svg" id="_2020-marcom-platinum-winner" width="216" height="216" viewBox="0 0 216 216"><defs><style>.cls-1{fill:#292663;}</style></defs><polygon class="cls-1" points="95.57 115.65 95.54 115.65 94.45 120.73 96.66 120.2 95.57 115.65"></polygon><path class="cls-1" d="M116.59,77.13l-.69,.16v2l.61-.15c.65-.06,1.14-.63,1.1-1.28,0-.65-.36-.86-1.02-.73Z"></path><path class="cls-1" d="M81.23,120.41c0-1-.44-1.54-1.58-1.27l-1,.22v3.26l1-.24c.95-.15,1.64-1,1.58-1.97Z"></path><path class="cls-1" d="M86.27,89.92c1-.23,1.58-1,1.58-3.5,0-1.27,0-3.13-1.58-2.75s-1.57,2.46-1.57,3.5c0,2.57,.59,2.99,1.57,2.75Z"></path><path class="cls-1" d="M127.34,73.78c-1.41,.34-1.91,1.78-1.91,3.67s.41,3.11,1.91,2.76c1.32-.31,1.9-1.48,1.9-3.66,0-1.86-.44-3.12-1.9-2.77Z"></path><path class="cls-1" d="M125.92,144.34l-.94,.22v2.71l.83-.19c.89-.09,1.55-.87,1.5-1.76,0-.87-.49-1.19-1.39-.98Z"></path><path class="cls-1" d="M96,81.37c-1.57,.37-1.57,2.46-1.57,3.5,0,2.59,.58,3,1.57,2.75s1.57-1,1.57-3.5c-.01-1.27-.01-3.12-1.57-2.75Z"></path><polygon class="cls-1" points="111.12 78.59 110.42 81.84 111.84 81.51 111.14 78.59 111.12 78.59"></polygon><path class="cls-1" d="M119.14,88l22.86-5.43h0v-19.64h0l-54.61-10.82,7.92,12.1-4,2.61c-.18-.23-.31-.43-.4-.56-.52-.92-.97-1.88-1.34-2.87l-.06-.16c-.71-1.12-1.56-2.15-2.51-3.08-.65-.72-1.2-1.35-1.38-1.59s-.6-.75-1-1.25c-.3-.33-.61-.7-.77-.91l-.06-.09v-.11c-.1-.33-.18-.66-.24-1-.09-.57-.3-1.11-.63-1.59l-.06-.1v-.11c0-.18-.06-.47-.08-.73s0-.42-.06-.48c-.06-.38-.18-.75-.37-1.08v-.26c-.04-.14-.08-.28-.13-.42-.03-.07-.06-.13-.11-.19l-.1-.16v-.2c0-1.07,.12-4.66,.29-5.85,.05-.34,.14-.68,.27-1h0v-.05c.19-.3,.24-.66,.13-1v-.16c-.01-.12-.04-.24-.08-.35l-.06-.17v-.19c0-.19,.08-.36,.1-.5,.04-.58,0-1.16-.13-1.73,0-.09-.07-.26-.12-.42h0c-.07-.21-.13-.43-.17-.65h0c0-.4-.21-.77-.54-1l-.14-.1-.07-.16c-.03-.06-.06-.12-.09-.19-.16-.36-.5-.61-.89-.65h-.17l-.13-.08c-.17-.1-.36-.16-.56-.15-.34,0-.67,.13-.92,.36-.42,.46-.76,1-1,1.58l-.07,.18h0c-.14,.29-.24,.59-.28,.91-.11,.51-.26,1-.44,1.49h0c-.14,.31-.2,.66-.16,1v.22l-.12,.18c-.13,.18-.18,.41-.16,.63v.15c-.02,.3,.06,.6,.23,.84,0,.03,0,.06,0,.09,.15,.28,.25,.59,.3,.91,0,.26,.08,1,.14,1.52v.34l-.26,.21c-.3,.26-.51,.61-.59,1-.08,.59-.1,1.18-.06,1.77v.24c0,.07-.06,.18-.1,.32-.09,.37-.09,.75,0,1.12v.39h0c-.05,.36,0,.73,.15,1.07l.06,.16-.05,.19c-.04,.7,.12,1.39,.46,2,.27,.56,.6,1.1,1,1.58l.18,.23v.27c0,.09,0,.18,0,.27,0,.25,.06,.5,.18,.73v.16s.07,.26,.09,.35h0c.07,.62,.45,1.67,1.4,1.67,.11,0,.23,0,.34,0l.43-.1,.24,.38c.49,.78,.92,1.54,1.29,2.26,.77,1.54,1.43,2.68,2.17,4l.17,.31c.28,.48,.55,1,.85,1.51,.39,.7,.84,1.37,1.34,2l-1.84,1.23,3.43,.68c.83,.94,1.83,1.99,3,3.14l-16.94,4h0v19.69h.08l23.81,4.72c.32,.68,.77,1.55,1.15,2.29h0c.06,.13,.12,.27,.16,.41h0c.23,.77,.53,1.52,.91,2.23l-39.7,9.43v19.64h.05v.09l36.22,7.18-22.79,5.46v19.66l31.76,6.29c1.44,1.5,2.5,2.61,2.83,3,.51,.7,1.46,.93,2.24,.53l3.51-1.81,14.24,2.82-5-7.67c5.06-2.71,10.23-5.56,12.52-7.11,.86-.58,.63-1.21,.59-1.34-.13-.38-1.44-4.37-2.93-8.91l8.24-2v-19.53h-.07l-22-4.37c.49-.31,.88-.77,1.09-1.31,.59-1.83,1.09-3.68,1.48-5.56l33.06-7.85v-19.82l-36.42-7.18Zm-38.86-50.79s0-.09,0-.14v-.19l.07,.17,.12,.28,.09,.21h.22s.09,0,.13,0h0c.04,.34,.12,.68,.23,1,.04,.11,.07,.22,.09,.33,0,.04,0,.09,0,.13h0c-.01,.18-.01,.35,0,.53,.02,.19-.05,.38-.19,.5-.07,.06-.16,.09-.25,.09h-.06s-.07-.38-.14-.92c-.03-.19,.02-.39,.14-.54,.08-.15,.13-.23,0-.4-.06-.07-.13-.14-.2-.21-.22-.22-.35-.36-.32-.65,.04-.03,.06-.12,.07-.19Zm.12,3.62c.25,.05,.51-.04,.67-.24,.05-.06,.11-.11,.18-.15h0l.11-.09v.13c-.07,.31-.17,.65-.18,.69l-.05,.21,.16,.15c.06,.06,.09,.13,.11,.21,0,.07,0,.15,0,.22h0v.04h-.24l-1-.07h0c-.07-.22-.16-.44-.27-.64-.09-.18-.11-.29-.06-.36s.24-.1,.57-.1Zm-1.28-3h.2c.11,.1,.19,.22,.24,.35,.05,.13,.13,.24,.23,.32,.05,.04,.1,.06,.16,.07,.14,0,.21,.09,.23,.44,.03,.33,.03,.67,0,1v.06h-.07c-.52-.2-.89-.67-.94-1.23v-.57c-.09-.27-.11-.36-.05-.41v-.03Zm-1,2.56c.17-.43,.29-.87,.36-1.33v-.23l.06,.23c.06,.27,.33,.46,.54,.61l.07,.06c.29,.22,0,.93,0,1-.08,.21-.26,.35-.48,.37-.09,.03-.18,.03-.27,0h0s-.11,.09-.13,.13l-.07,.07v-.09c-.1-.25-.14-.52-.09-.79v-.03Zm-.23,1.79c.04-.1,.04-.2,0-.3h0l.38-.12-.11-.32h.05c.2-.06,.41-.09,.62-.1,.04,0,.08,.03,.11,.06,.08,.09,.11,.21,.1,.33,0,.26-.15,.29-.35,.32-.12,.02-.24,.05-.35,.1-.16,.06-.31,.13-.45,.22h0l-.05-.08,.05-.11Zm-.21,5.58c0-.19,0-.39,0-.58,.02-.06,.05-.12,.08-.18h0c.16,0,.21,.15,.27,.36v.14h0s-.17,.13-.37,.26l-.08,.05,.1-.05Zm-.11,1.63c.09-.3,.11-.38,.11-.38h0v-.54h0c.17-.15,.37-.28,.57-.39h.06v.07c0,.17,0,.35,0,.52,0,.24-.14,.38-.38,.61l-.17,.17c-.05,.06-.11,.11-.19,.12h-.09l.09-.18Zm.1,1.12l-.1-.2c-.03-.08-.05-.16-.07-.24h0v-.11c.15-.38,.48-.44,.78-.5h0c.03,.14,.03,.29,0,.43,0,.21-.15,.29-.34,.42-.09,.06-.17,.12-.25,.19h-.02Zm.83,1.11c-.05,.13-.15,.24-.29,.28l-.2,.11c-.07,.05-.15,.08-.24,.1h-.06v-.32h0c.06-.23,.25-.34,.65-.48h0c.09,.09,.14,.21,.13,.34v-.03Zm.23-4.61h0v-.4s-.24-2.33-.26-2.79c-.04-.35-.13-.68-.28-1h0l.14-.06c.11-.04,.23-.06,.35-.07,.32,0,.42,.28,.49,.72l.3,5.1h-.1c-.11-.4-.26-.79-.46-1.16-.05-.12-.11-.23-.18-.34Zm.86,9.27v.22h-.34l.15-.11v-.78l-.09-.1-.29-.29h0v-.58c.03-.28,.09-.56,.17-.83,.13-.31,.29-.61,.48-.89l.1-.15-.18,3.51Zm.48,1.36c0,.13-.01,.25-.05,.37,0,.03,0,.05,0,.08l-.06,.14v-.14c-.01-.1-.01-.19,0-.29v-1h.32l-.21,.84Zm.61-7.16h0c-.09,.06-.2,.19-.3,.55-.06,.7,.02,1.4,.24,2.06h0v3.4h-.81l.21-13.59c.1-.22,.31-.38,.56-.4h.14c.21,0,.39,0,.42,.43h0c-.07,.25-.12,.5-.16,.75-.24,1.58-.32,6.54-.32,6.74l.02,.06Zm.78,2c-.33-.09-.6-.36-.69-.69-.07-.29-.07-.6,0-.89h0l.25-.09v.2c.03,.2,.1,.39,.2,.56,.12,.23,.21,.47,.25,.73,0,.05,0,.09,0,.14v.04Zm36.32,30.23c-.14-.2-.2-.44-.19-.68v-1.3c0-.53-.27-.8-.86-.66l-.78,.19v2.89l-1.45,.35v-6.88l2.69-.63c1.19-.28,1.91,.14,1.91,1.31,.07,.86-.41,1.66-1.2,2h0c1-.11,1.14,.37,1.16,1.82,0,.71,0,1.09,.32,1.16h0l-1.6,.43Zm2.62,14c.04,.26,.13,.51,.25,.75v.05c.44,1.4,1,3.55,1.41,4.85v.06l.06,.15c0,.09,.09,.22,.14,.36s.06,.16,.08,.23l-.43,.11c-.11-.33-.21-.6-.26-.75-.21-.54-1.83-5.1-2.33-6.28-.34-.82-.59-1.68-.75-2.56-.47-.94-1.15-1.75-2-2.37-.71-.64-1.35-1.36-1.89-2.15-.01-.04-.03-.08-.06-.11l1.46-.35,.17,.28c.28,.57,.62,1.11,1,1.62,.2,.21,.41,.46,.61,.71,.03,.08,.07,.15,.12,.21,.08,.11,.16,.21,.25,.31l.26,.34c.05,.07,.08,.14,.11,.18,.18,.34,1.19,2.66,1.8,4.37h0Zm-.63-3.01l.11,.08c.14,.09,.27,.19,.38,.31l.06,.1c.18,.3,.25,.65,.19,1v.59l-.08-.23c-.19-.47-.34-.87-.41-1.07-.07-.2-.14-.41-.19-.62l-.06-.16Zm2,6.13l.11,.12c.24,.19,.43,.45,.53,.74,0,.05,0,.11,0,.16v.06h0c-.23,0-.39,0-.45-.31,0-.11-.08-.34-.13-.6l-.06-.17Zm-8.15,12.87h0v7.5l-2.08,.5v-10.7l2.62-.63,2.75,6.69h0v-7.35l2.08-.49v10.71l-2.59,.62-2.78-6.85Zm4.88,16.55s.19,.26-.26,.48c-.43,.21-.88,.37-1.35,.48-.32,.05-.65-.05-.89-.28-.29-.32-.68-.51-1.1-.56-.36,0,.8-4.12,1.08-5.08h.14l2.38,4.96Zm-6.49,9.33c.07,.25,.24,.56,.45,.51v-.59c-.14-.41-.14-.85,0-1.26,.09-.25,.21-.49,.34-.72,0-.07,.09-.17,.16-.12s0,.21-.07,.3c-.22,.43-.33,.91-.32,1.4,.11,.55,.39,1.08,.11,1.32s-.75-.1-.92-.49c-.2-.43-.2-.92,0-1.35,.12-.25,.27-.26,.34-.2s0,.3,0,.37c-.09,.27-.12,.55-.09,.83Zm-.72-2.53c.06,.09,.26-.12,.33,0s0,.18-.26,.36-.46,.37-.62,.14c-.3-.43,.36-.83,.36-.83,0,0,.21-.16,.26,0s-.16,.28-.11,.33h.04Zm.59-.44c-.14-.11,0-.26,.13-.36s.69-.78,.69-.78c0,0,.14-.26,.29-.13s-.06,.36-.06,.36l-.68,.76c-.14,.13-.24,.25-.41,.15h.04Zm.46-2.1c-.4,.66-.88,1.27-1.44,1.81-.31,.26-.55,.47-.66,.33s.17-.23,.41-.42c.63-.56,1.13-1.24,1.49-2,.5-1.02,1.07-2,1.73-2.92,.3-.37,.55-.53,.68-.43s-.6,.95-.88,1.35-1.02,1.71-1.37,2.28h.04Zm-14.11,10.88c.22-.53,1.92-4.54,2-4.63s.14-.16,.23-.09l4.13,3.21-6.36,1.51Zm.78,14.31l-2,.47v-9.38l2-.47v9.38Zm1.18-19.88c.08-.07,.14,0,.14,0l4.81,3.91-.2,.05-4.72-3.78s-.14-.11-.06-.18h.03Zm.3,10.15l2.3-.54,2.41,5.85h0v-6.42l1.83-.44v9.38l-2.27,.54-2.43-6h0v6.56l-1.83,.43v-9.36Zm-2.75-54.12c0-.15,.05-.3,.08-.42v-.23h.07c.07,.06,.13,.13,.17,.21h0s-.08,.81,1.15,2l.69,.67c.82,.79,1.26,1.22,1.63,1.51,.29,.3,.42,.72,.34,1.13,0,.14-.14,.16-.19,.16-.11-.01-.21-.07-.28-.16-.14-.14-.4-.35-.7-.6-.97-.67-1.79-1.54-2.39-2.55-.12-.33-.22-.58-.32-.82-.13-.3-.24-.6-.31-.92h0l.06,.02Zm-1.74-6.85c-1.46,.35-2-.59-2-3s.63-3.6,2-3.93,2,.58,2,3-.66,3.56-2,3.93Zm3.35-23.58h-.12q-.19,0-.51,.22h-.07v-.09c-.03-.24-.03-.47,0-.71,.05-.12,.1-.24,.13-.36h0l.1-.13c.07-.08,.13-.17,.18-.26,.05-.09,.12-.18,.19-.26,.22-.25,.39-.53,.51-.84v-.26h0c-.12,.06-.26,.11-.39,.14h-.2v-.09c.09-.23,.25-.42,.47-.53,.19-.13,.38-.24,.59-.33h.36c.56,.02,1.1,.16,1.61,.39,.06,0,.06,.08,0,.11s-.23,.15-1.19,.15q-.51,0-.51,.07c0,.09-.04,.17-.09,.24-.1,.18-.19,.37-.26,.56-.09,.3-.24,.58-.42,.83-.15,.15-.21,.37-.16,.57,0,.13,.21,.19,.43,.19s.41,0,.43,.06,0,.07,0,.1c-.05,.05-.08,.13-.08,.2,0,.34-.05,.67-.13,1,.02,.06,.02,.14,0,.2-.03,.06-.08,.11-.15,.12-.46,.09-.93,.13-1.4,.13h-.21c.03-.09,.05-.19,.06-.29h0s.08-.09,.11-.14c.09-.15,.19-.28,.3-.41,.11-.13,.22-.27,.31-.4,.04-.06,.07-.12,.09-.18h.02Zm7.65,28.77s-.43-.23-.63-1.35c-.05-.27-.05-.56,0-.83l1.29-.31c1.14,.48,4.32,2,4.89,2.3s.93,.56,1.18,1c.17,.27,.92,1.15,1.53,1.86,.29,.34,.55,.64,.7,.83,.48,.58,.21,.86,.2,.87h0c-1.42-.56-2.79-1.23-4.11-2-1.63-.9-3.32-1.69-5.05-2.37Zm3.45,10.15s1.05,.93,2.39,2.07l-1.78,.42h0c-.4-.74-.63-1.57-.67-2.41v-.12l.06,.04Zm1.98-19.34l-.34-1.37-1.92,.45-.33,1.53-1.52,.36,1.91-7.3,1.8-.43,1.91,6.4-1.51,.36Zm-4.26-18.2c0,.07-.19,.93-.31,1.62-.06,.36-.12,.73-.18,1s-.09,.56-.12,.9c-.16,.61-.27,1.23-.33,1.85l-.89,.21c0-1.39,.06-2.68,.09-3,.06-.35-.17-.69-.53-.75-.01,0-.03,0-.04,0-.28,0-1.12-.17-1.12-1v-.84c-.02-.14-.02-.29,0-.43h0s.05-.09,.1-.09c.11,.03,.21,.07,.3,.14,.12,.05,.23,.12,.33,.19,.22,.17,.46,.28,.73,.34,.1,.02,.21,.02,.31,0l-.2-.12-.19-.09c-.85-.33-1.65-.77-2.39-1.31-.36-.46-.5-1.06-.38-1.64,.05-.16,.08-.32,.08-.49,0-.16,0-.31,.15-.31h.11c.24,.11,.5,.17,.76,.2h.06c-.08-.1-.18-.19-.3-.25h0c-.38-.26-.5-.35-.48-.44s.09-.07,.26,0c.18,.04,.36,.07,.54,.08h0l-.09-.05-.38-.19c-.28-.13-.35-.16-.33-.23s.08-.06,.15-.06c.16,0,.31-.03,.46-.09h-.12l-1.63-.17h0c-.09-.06-.15-.14-.18-.24-.02-.16,.02-.31,.11-.44h0c.26-.05,.52-.08,.79-.08,.23-.02,.46-.02,.69-.01,.41,.03,.81,.12,1.2,.25h.07l.55,.14c.19,.03,.38,.08,.56,.14l.12,.05c.29,.08,.55,.23,.76,.44,.19,.31,.34,.65,.43,1,.07,.27,.11,.55,.14,.83v.15l.11,.1,.12,.12h0v.06c.23,.23,.73,1,.62,1.43-.08,.4-.25,.78-.51,1.09Zm-8.25,4.46l-.13-.05c-.25-.11-.52-.18-.79-.21-.11,0-.22,.02-.31,.07-.04,.02-.09,.02-.13,0h0v-.21c0-.06,0-.13,0-.19h0c0-.16,.12-.17,.26-.18h.18c.3-.02,.59-.09,.86-.21,.22-.1,.17-.77,.13-1.26v-.31c-.05-.42,.03-.84,.24-1.21,.15-.24,.69-.26,1.13-.28h.35v.06c-.01,.75-.07,1.5-.17,2.24-.11,.5-.35,1.18-.6,1.91l-.18,.49c-.27,.79-.67,1.22-1.12,1.22h-.14c-.43-.07-.63-.49-.75-.81s-.07-.38-.09-.54h0c.06-.13,.2-.16,.4-.22h.1c.07-.01,.15-.01,.22,0,.14,0,.27,.03,.4,.07,.11,.04,.22,.06,.34,.07h.12s-.1-.36-.32-.45Zm-1.17-3.64c.06-.03,.12-.05,.19-.06,.05,0,.1,.03,.11,.09,0,0,0,.01,0,.02v.09c.03,.21,.03,.42,0,.63,0,.18-.13,.28-.25,.28-.15-.02-.27-.12-.32-.26v-.7h0c.03-.09,.13-.09,.27-.09Zm2.63,19.94v-6.85l2.16-.51,1,4.59h0l1-5.08,2.16-.51v6.8l-1.34,.32v-5.43h0l-1.28,5.77-1.14,.27-1.28-5.17h0v5.46l-1.28,.34Zm4.54,4.56c-.3,.9-.04,1.9,.67,2.54,1,.83,3.26,2.77,3.41,3.47,0,.14,.07,.28,.11,.42,.33,.93,.31,1.95-.06,2.86-.58,1.58-.77,2.61-.25,3.86,.21,.53,.45,1.12,.66,1.72l-2.76,.66c-.39-.9-.67-1.84-.84-2.8-.38-2.44-1-4.85-1.38-6.45-.14-.56-.26-1-.34-1.4-.21-.7-.51-1.37-.89-2-.45-.67-.75-1.44-.88-2.24l2.55-.64Zm3.92,19.28v10.72l-2.27,.54v-10.72l2.27-.54Zm-.56,15.5c.07,.24,.12,.49,.15,.74,.04,.33,.06,.67,.06,1l-4-.8,3.79-.94Zm.77,3.79c.24-1.32,.32-2.66,.24-4l.34-.08c0,.2,0,.61,.05,1.31-.02,1.35-.21,2.69-.56,4-.24,.8-.38,1.63-.43,2.47-.03,.53-.47,.95-1,.95-.49-.07,0-.84,.4-1.68,.41-.96,.73-1.95,.96-2.97Zm-.19,8.27c0-.16-.14-.21-.3-.29s-.14-.32-.2-.46c-.05-.1-.18-.13-.27-.08-.03,.02-.06,.05-.08,.08-.1,.11-.17,.23-.23,.36-.09,.16-.07,.26-.17,.2s0-.34,0-.34c.06-.17,.14-.33,.24-.48,.08-.11,.22-.3,.45-.18s.2,.39,.25,.57,.08,0,.29,.08,.2,.12,.22,.3c.04,.44,.04,.87,0,1.31,0,.25,0,.34-.13,.34s-.07-.11-.07-.2,.01-1.06,0-1.17v-.04Zm-1.09-2.35c.07,.17,.02,.38-.13,.49-.13,.13-.5,.3-.55,.72-.03,.35-.03,.71,0,1.06,0,.52-.11,1.05-.25,1s-.2-.69-.5-1.21-.83-.73-1-1.12,.09-.73,.23-1,.35-.45,.53-.36,.21,0,.21,0c0-.09,.04-.17,.1-.23,.11-.09,.34-.11,.68,0,.3,.13,.54,.36,.68,.65Zm-1.94,5.45c.07,0,.14,.05,.27,.26,.24,.29,.52,.54,.83,.76l-.34,.08c-.08-.09-.34-.35-.49-.54s-.36-.53-.27-.56Zm.07-1.21c-.11-.11-.24-.19-.16-.27s.23,.12,.23,.12c.42,.36,.87,.69,1.33,1,.62,.38,1.3,.67,2,.85l-.64,.15c-.28-.12-.56-.25-.83-.4-.69-.42-1.33-.91-1.93-1.45h0Zm4.41-14.43l1.09-.26c-.17,.24-.43,.39-.72,.42-.14,0-.28-.06-.37-.16Zm6.22-21.12c-2.14-1.38-6.91-4.37-6.91-4.37,0,0,.15,0,.19-.72,.04-.44-.01-.87-.15-1.29v-.11h.12s3.45,1.41,4.3,1.72c.78,.32,1.49,.79,2.09,1.38l.11,.1c.87,.85,1.67,1.77,2.39,2.75l-2.14,.54Zm-1.11-15.67l1.46-.35c.09,.23,.13,.47,.12,.72,0,.23,0,.44-.06,.62s-.06,.61-.08,.83v.13l-.09-.1c-.47-.58-.91-1.2-1.3-1.84,0,0-.05,0-.05-.01Zm5.73-6.87c-1.56,.37-2.2-.79-2.2-3s.64-3.7,2.32-4.09c.79-.28,1.65,.14,1.92,.92,.08,.22,.1,.45,.08,.68l-.43,.1c0-.93-.52-1.63-1.57-1.39-1.44,.34-1.91,1.73-1.91,3.65s.39,3.13,1.84,2.79c1.05-.38,1.75-1.38,1.73-2.5l.43-.1c.02,1.37-.89,2.58-2.21,2.94h0Zm5.19-1.23c-1.39,.33-2.34-.32-2.34-3s1-3.78,2.34-4.1c1.34-.32,2.32,.33,2.32,3,0,3.01-1.3,3.86-2.32,4.1h0Zm8.71-2.17l-.42,.1v-6.34h0l-2.1,6.88-.42,.1-2.11-5.89h0v6.34l-.42,.1v-6.86l.68-.16,2,5.68h0l2-6.63,.7-.17v6.86h.09Zm-44.54-23.48l45.94,9.11-29,6.88c.09-.59,.22-1.17,.39-1.74,.1-.36,.24-.76,.35-1.12,.4-1.02,.66-2.09,.76-3.18-.04-.81-.37-1.57-.91-2.17l-.12-.13v-.17c-.02-.19-.06-.37-.11-.55-.12-.45-.31-.87-.55-1.27-.35-.48-.84-.83-1.4-1h-.08c-.25-.09-.5-.16-.76-.21h-.09l-.32-.08h-.09c-.47-.17-.96-.27-1.45-.31-.28-.04-.56-.06-.84-.06-.52,.01-1.04,.09-1.55,.23-.71,.14-1.37,.45-1.92,.91l-.06,.05h-.07l-.59,.33c-.6,.33-1.02,.91-1.14,1.59-.11,.44-.37,1.28-.46,1.51-.04,.09-.06,.18-.08,.28l-.44-.66-5.41-8.24Zm4.85,10.93l.9-.59c-.02,.15-.04,.3-.08,.45-.1,.57-.13,1.16-.07,1.74v.58c-.01,.37,.01,.74,.06,1.11v.75c-.02,.17-.02,.33,0,.5l.11,1.13-1-.49c-1.39-.69-2.65-1.6-3.74-2.7l3.82-2.48Zm-5.69,4.09c-.14-.3-.3-.58-.49-.85-.7-.76-1.48-1.45-2.32-2.06-.85-.84-1.49-1.87-1.86-3-1.14-2.19-2.44-4.3-3.87-6.32-.32-.4-.48-.92-.43-1.43,.02-.17,.1-.33,.24-.44,.18-.09,.4-.06,.55,.08h0c.07,.29,.15,.56,.2,.71,.28,.51,.63,.99,1.05,1.4,.36,.42,.73,.84,1,1.15s.8,1,1.46,1.69c.82,.86,1.59,1.77,2.28,2.73l.07,.16c.4,1.07,.89,2.1,1.45,3.09,1.55,2.29,3.69,4.12,6.19,5.29,.77,.3,1.5,.7,2.17,1.19l-1.51,.36c-.14-.36-.38-.68-.68-.93l-.21-.13c-.13-.11-.28-.18-.44-.21-.09,0-.18,0-.35,.17-.17,.18-.28,.41-.33,.65-.11,.33-.22,.68-.52,.78h-.09c-.39,0-1-.74-1.6-1.45-.26-.33-.54-.64-.83-.93-.46-.51-.84-1.08-1.13-1.7Zm.48,12.6c-.95,.24-1.58,1.13-1.5,2.1l-.43,.1c-.04-1.22,.81-2.29,2-2.53,.71-.18,1.78-.06,1.78,1.38-.05,.96-.52,1.85-1.28,2.44l-1,1c-.58,.53-.98,1.23-1.13,2l3.5-.82v.36l-3.92,.93c.04-1.02,.49-1.99,1.25-2.67l1-1c.66-.52,1.08-1.28,1.17-2.12,.09-.58-.3-1.13-.89-1.23-.19-.03-.38-.01-.55,.06Zm-4.88,.83c1.49-.35,2,.57,2,3s-.64,3.61-2,3.93-2-.6-2-3,.63-3.6,2-3.93Zm-4.83,1.47c-.94,.24-1.57,1.12-1.5,2.09l-.43,.1c-.03-1.22,.81-2.28,2-2.53,.73-.17,1.84-.06,1.84,1.39-.08,.96-.57,1.84-1.35,2.4l-1,.95c-.62,.54-1.03,1.27-1.18,2.07l3.5-.83v.36l-3.92,.94c.04-1.02,.49-1.99,1.25-2.67l1-1c.68-.5,1.14-1.25,1.26-2.08,.11-.58-.26-1.14-.84-1.26-.21-.04-.43-.02-.63,.07Zm-2.86,12.81l17.89-4.25,.09,.27,.06,.18-.05,.19c0,.09,0,.2-.07,.35-.05,.34-.13,.68-.24,1-.29,.83-.29,1.73,0,2.56,.22,.63,.5,1.23,.83,1.81l.1,.19v.22c-.04,.41-.02,.82,.08,1.22l-18.69-3.74Zm19.42-.39c-.09-.2-.16-.41-.21-.63v-.26h.06c.1,0,.27,.24,.4,.44h0c.58,1.3,1.36,2.51,2.31,3.57,.55,.63,.79,1,1,1.2,.14,.18,.29,.36,.45,.52,.17,.18,.23,.44,.15,.68-.03,.1-.12,.18-.23,.18-.11,0-.27-.07-.46-.39-.29-.45-.63-.88-1-1.27-.83-.81-1.5-1.76-2-2.8-.13-.42-.29-.84-.47-1.24Zm.9,4.75c-.14-.4-.24-.81-.32-1.22v-.06h.07c.08,.01,.16,.06,.21,.12,0,0,2,3.25,2.64,4.2l.42,.6c.52,.64,.95,1.35,1.29,2.1l-1.26,.3-.08-.1c-.4-.55-.76-1.13-1.07-1.74-.05-.13-.09-.26-.13-.4-.07-.25-.16-.49-.27-.72-.58-1.06-1.4-2.71-1.54-3.06l.04-.02Zm.41,10.93l7.21-1.71v1.8l-2.47,.58v9l-2.27,.54v-9l-2.46,.58v-1.79Zm-5.13,1.21l2.81-.66,3,10-2.37,.56-.52-2.14-3,.72-.58,2.4-2.37,.56,3.03-11.44Zm-9.52,2.25l2.27-.54v8.94l4-1v1.77l-6.3,1.49,.03-10.66Zm-8.21,1.94l4-.94c2.31-.55,3.1,.87,3.1,2.48,0,2.21-1.44,3.56-3.59,4.07l-1.22,.29v4.27l-2.27,.54-.02-10.71Zm-11.57,18.13l36.11-8.56,8.35,1.65c-.26,1.21-.6,2.4-1,3.57l-.15,.45-.07,.06c-.7,.59-1.28,1.31-1.72,2.11l-5.5,2.27c-.52,.14-.96,.48-1.23,.95-.08,.17-.74,1.78-1.67,4.06l-33.12-6.56Zm22.8,15.56l1.1,6.68h0l1.21-7.23,1.91-.45,1.16,6.65h0l1.09-7.19,1.91-.45-1.8,9.8-2.23,.53-1.04-6.56h0l-1.11,7.06-2.22,.52-1.8-9,1.82-.36Zm-9.26,16.73l16.37-3.88c2.54,2.6,5.84,6,8.59,8.83l-24.96-4.95Zm31,9.18c0,.4-.21,.43-.37,.29s-12.2-12.41-13.33-13.57l14.31-3.4c-.04,1.77-.63,16.3-.63,16.67h.02Zm.65-.59l.41-16.18,.66-.16-1.07,16.34Zm4.92-22.39l-2.27,.54-2.44-6h0v6.54l-1.83,.44v-9.34l2.29-.55,2.41,5.85h0v-6.4l1.83-.43v9.35Zm-.07-20.31c-.77,.65-1.6,1.23-2.47,1.73-.07,.06-.25,.14-.3,0s.16-.19,.16-.19c0,0,.53-.31,1.21-.79,.89-.68,1.73-1.43,2.5-2.24,.33-.35,.75-.82,.72-.91s-.18-.12-.32-.16c-.23-.1-.39-.31-.43-.55,0-.27,.53-.72,.91-.68s.34,.57,.34,.57l.1,.05c.11,.06,.07,.14-.09,.57-.68,.97-1.48,1.84-2.38,2.6h.05Zm1.46,10.61l5.52-1.31v1.54l-3.52,.84v2.2l3.32-.78v1.54l-3.32,.79v2.52l3.67-.87v1.55l-5.66,1.33v-9.35Zm2.99-8.8s-.07-.1,0-.12,.11,0,.13,.08c.27,.53,.29,1.15,.07,1.7-.13,.52-.38,1.01-.74,1.41l-1,.25c.8-.56,1.39-1.36,1.69-2.29,.09-.35,.03-.73-.17-1.03h.02Zm5.06,41.42l-7.44-1.46c1.47-.77,3.1-1.62,4.78-2.52l2.66,3.98Zm5.27-26.4l-2.16,.51c-.19-.27-.28-.6-.25-.93l-.06-1.78c0-.73-.37-1.09-1.17-.9l-1.07,.25v4l-2,.47v-9.38l3.68-.87c1.63-.39,2.63,.19,2.63,1.79,.09,1.16-.57,2.24-1.64,2.7h0c1.35-.15,1.56,.51,1.58,2.49,0,1,.07,1.48,.45,1.57v.08h0Zm7.66-16.34l-13.23,3.14-7.26-5c1-1.17,1-1.61,1-2l19.49,3.86Zm-16.6-8.17c-.28,.21-.4,.07-.67-.29s-1.31-1.84-2-2.83l.78-.19,1.75,2.52s.37,.57,.12,.79h.02Zm3.32-9c-1.85,.44-3.6,.27-3.6-2.59v-7.48l2.27-.54v7.48c0,1.06,.27,1.8,1.33,1.54s1.33-1.11,1.33-2.17v-7.48l2.28-.54v7.48c.13,2.19-1.46,4.1-3.63,4.37l.02-.07Zm15.12-3.78l-2.09,.49v-8.55h0l-2,9-1.77,.42-2-8.08h0v8.55l-2.08,.5v-10.64l3.38-.8,1.61,7.18h0l1.63-8,3.37-.8v10.71l-.05,.02Zm-15.71-11.26l-.06-.16-.09-.2,.06-.21c.18-.55,.25-1.13,.19-1.71-.17-.64-.55-1.21-1.07-1.61l-.13-.11-.06-.17c0-.1-.07-.22-.1-.35-.11-.37-.31-.86-.48-1.3h0c-.04-.08-.07-.17-.1-.26l-.06-.12v-1.35c.07-.57-.06-1.15-.37-1.64v-.08c0-.1-.22-.4-1-.9l-.12-.08-.08-.12c-.1-.17-.19-.33-.26-.48-.13-.25-.29-.49-.47-.71h-.37v-.67c0-.2,0-.48,.07-.73l32.2,6.37-27.7,6.59Z"></path></svg> 