<?xml version="1.0" encoding="UTF-8"?> <svg xmlns="http://www.w3.org/2000/svg" id="Layer_2" width="200" height="29.83" viewBox="0 0 200 29.83"><defs><style>.cls-1{fill:#cb2026;}.cls-2{fill-rule:evenodd;}</style></defs><g><g><path class="cls-2" d="M61.51,24.04h-3.8l.02-9.89c0-2.05-.92-3.08-2.76-3.08-1.07,0-1.93,.38-2.57,1.16-.64,.77-.97,1.93-.97,3.47l-.02,8.33h-3.85l.02-9.89c0-2.08-.86-3.13-2.58-3.13-1.05,0-1.94,.42-2.65,1.25-.72,.83-1.08,1.98-1.08,3.42l-.02,8.33h-3.74l.04-15.88h3.51v3.39c1.14-2.47,2.93-3.7,5.36-3.7,2.36,0,3.9,1.25,4.6,3.72,1.3-2.47,3.09-3.7,5.37-3.7,1.55,0,2.79,.48,3.73,1.44,.94,.95,1.41,2.14,1.41,3.55l-.03,11.22h0Z"></path><path class="cls-2" d="M79.6,24.08h-3.45c-.31-.97-.49-2.04-.55-3.21-.97,2.35-2.79,3.53-5.45,3.52-1.6,0-2.89-.47-3.85-1.4-.97-.93-1.45-2.09-1.45-3.5,0-3.64,3.25-5.46,9.73-5.45,.26,0,.6,0,1.04,.02v-1.19c0-1.64-1.13-2.47-3.4-2.48-2.21,0-3.46,.82-3.76,2.46l-3.09-.46c.17-1.32,.86-2.4,2.08-3.26,1.21-.85,2.96-1.27,5.25-1.27,1.24,0,2.25,.11,3.04,.31,.78,.21,1.44,.55,1.99,1.04,.54,.49,.91,1.02,1.12,1.59,.2,.57,.3,1.54,.3,2.9v7.16c-.02,1.04,.14,2.11,.46,3.2h0Zm-3.99-8.08c-4.69-.01-7.03,1.09-7.04,3.3,0,.66,.23,1.23,.7,1.69,.47,.47,1.19,.7,2.14,.71,1.38,0,2.42-.43,3.13-1.29,.71-.86,1.06-1.84,1.07-2.94v-1.46h0Z"></path><polygon class="cls-2" points="95.66 24.12 91.53 24.11 88.14 18.32 84.4 24.09 81.28 24.08 86.64 15.93 82.03 8.22 86.19 8.23 88.81 12.9 91.83 8.24 94.87 8.25 90.32 15.12 95.66 24.12 95.66 24.12"></polygon><path class="cls-2" d="M109.86,8.28l-6.29,18.05c-.38,1.11-.91,1.97-1.57,2.58-.67,.61-1.6,.92-2.81,.91-.48,0-1.17-.04-2.08-.11v-2.84l1.74,.03c.76,0,1.33-.12,1.69-.37,.37-.25,.66-.68,.87-1.31,.21-.63,.32-1,.32-1.1,0-.06-.11-.39-.33-.97l-5.49-14.91h3.8l3.87,10.48,3.39-10.46h2.89Z"></path><path class="cls-2" d="M136.2,24.21h-3.8l.02-9.89c0-2.05-.92-3.08-2.76-3.08-1.07,0-1.93,.39-2.57,1.16-.64,.77-.97,1.93-.97,3.47l-.02,8.33h-3.85l.02-9.89c0-2.08-.86-3.13-2.58-3.13-1.05,0-1.93,.42-2.65,1.25-.72,.83-1.08,1.98-1.08,3.42l-.02,8.33h-3.74l.04-15.88h3.52v3.39c1.14-2.47,2.93-3.7,5.36-3.7,2.36,0,3.9,1.25,4.6,3.72,1.3-2.47,3.09-3.7,5.37-3.7,1.55,0,2.79,.48,3.74,1.44,.94,.95,1.41,2.14,1.4,3.55l-.02,11.22h0Z"></path><path class="cls-2" d="M144.21,6.5h-3.63V2.77h3.63v3.73h0Zm-.04,17.72h-3.63l.04-15.88h3.63l-.04,15.88h0Z"></path><path class="cls-2" d="M146.57,20.59l3.4-.64c.52,1.29,1.66,1.94,3.43,1.94,2.25,0,3.37-.64,3.38-1.95,0-.42-.17-.77-.53-1.04-.35-.27-.76-.46-1.24-.55l-2.92-.56c-3.25-.62-4.86-2.19-4.86-4.71,0-1.4,.52-2.59,1.55-3.57,1.03-.98,2.56-1.47,4.6-1.46,3.39,0,5.46,1.24,6.21,3.71l-3.23,.64c-.34-1.2-1.3-1.8-2.89-1.8-1.93,0-2.9,.59-2.9,1.79,0,.83,.78,1.4,2.34,1.72l3.45,.72c2.68,.55,4.02,2.07,4.02,4.56,0,1.75-.7,3.06-2.08,3.92-1.38,.86-3.02,1.29-4.91,1.29-1.65,0-3.1-.34-4.36-.99-1.26-.66-2.08-1.66-2.46-3h0Z"></path><path class="cls-2" d="M173.53,19.23l3.27,.45c-.43,1.43-1.25,2.61-2.49,3.54-1.23,.93-2.78,1.39-4.63,1.39-2.23,0-4.02-.75-5.37-2.23-1.36-1.48-2.03-3.48-2.02-6,0-2.4,.69-4.38,2.06-5.95,1.37-1.57,3.23-2.35,5.57-2.34,2.29,0,4.06,.79,5.3,2.34,1.25,1.55,1.87,3.54,1.86,5.97l-.02,.41-11.02-.02c0,1.08,.1,1.94,.3,2.59,.2,.65,.61,1.22,1.23,1.7,.61,.48,1.38,.72,2.31,.73,1.79,0,3-.85,3.63-2.57h0Zm-.21-4.75c0-1.14-.35-2.07-1.03-2.8-.69-.72-1.53-1.09-2.54-1.09-1,0-1.83,.33-2.5,1.01-.67,.67-1.06,1.63-1.18,2.86l7.25,.02h0Z"></path><path class="cls-2" d="M184.01,24.32h-3.63l.04-15.88h3.28v3.79c.46-1.47,1.11-2.55,1.92-3.23,.82-.68,1.66-1.01,2.52-1.01,.12,0,.28,0,.48,.01v3.85c-1.86,0-3.08,.58-3.68,1.74-.6,1.16-.9,2.29-.91,3.38l-.02,7.35h0Z"></path></g><path d="M200,5.13c0,.97-.35,1.81-1.04,2.5-.69,.69-1.52,1.04-2.49,1.04-.97,0-1.81-.35-2.5-1.05-.69-.7-1.04-1.54-1.04-2.51,0-.97,.35-1.81,1.05-2.5,.7-.69,1.54-1.04,2.52-1.04,.97,0,1.8,.35,2.48,1.05,.69,.7,1.03,1.54,1.03,2.51Zm-.63,0c0-.81-.28-1.52-.85-2.1-.57-.59-1.24-.88-2.04-.88-.81,0-1.5,.29-2.07,.87-.57,.58-.86,1.28-.86,2.1,0,.83,.28,1.53,.85,2.11,.57,.58,1.25,.88,2.05,.88,.79,0,1.47-.29,2.04-.87,.57-.58,.86-1.28,.86-2.11Zm-1.13,2.04h-.92l-.66-1.66h-.98v1.65h-.88V3.07h1.9c.52,0,.9,.12,1.16,.35,.25,.23,.38,.52,.38,.87,0,.51-.26,.87-.76,1.08l.75,1.8Zm-2.56-2.31h.9c.51,0,.76-.19,.77-.58,0-.37-.23-.56-.7-.56h-.96v1.14Z"></path></g><g><path class="cls-1" d="M0,29.36v.25H.4c-.16-.04-.29-.13-.39-.25Z"></path><path class="cls-1" d="M28.21,2.86c.36-.03,.99-.1,1.46,.04V.07L.07,0,.02,20.28c.15-.17,.32-.31,.5-.43,.45-.27,1.03-.24,.99,.41-.08,.69-.58,1.34-1.16,1.7-.11,.06-.23,.1-.33,.11v.56c.1-.09,.2-.17,.31-.24,.5-.26,1.02-.08,1.03,.53-.04,.66-.47,1.31-1.05,1.62-.1,.05-.2,.07-.29,.08v.56c.09-.08,.19-.15,.3-.21,.53-.24,1.02,.06,1.06,.64,0,.62-.36,1.25-.94,1.5-.16,.05-.3,.06-.43,.03v.76c.12-.16,.27-.28,.47-.36,.55-.18,1.02,.19,1.1,.74,.04,.56-.27,1.17-.83,1.34H2.76c.12-.07,.25-.13,.4-.17,.37-.08,.76-.02,1.05,.18h.84c.22-.51,.78-.86,1.31-1.02,.7-.17,1.71-.03,1.83,.84,0,.07,0,.13,0,.19l21.43,.05,.02-9.82c-.43-.1-.77-.35-.83-.84-.01-.6,.35-1.07,.84-1.44v-1.16c-.56-.04-1.06-.26-1.15-.83-.03-.7,.53-1.21,1.16-1.56v-.81c-.68,.03-1.39-.12-1.52-.77-.05-.79,.78-1.29,1.53-1.57v-.55c-.74,.1-1.75,.08-1.92-.64-.07-.88,1.2-1.32,1.92-1.49v-.4c-.61,.11-2.1,.33-2.32-.48-.08-.82,1.3-1.16,1.89-1.27,.12-.02,.27-.04,.43-.05v-.37c-.21,.05-.41,.09-.52,.11-.54,.08-1.98,.3-2.2-.42-.09-.71,1.28-.95,1.77-1.02,.24-.03,.6-.07,.96-.06v-.43c-.38,.14-.87,.2-1.04,.23-.49,.06-1.85,.26-2.07-.35-.09-.6,1.26-.76,1.65-.81Zm-1.87,.84c.09,.64-1.4,.93-1.85,1.03-.43,.08-1.98,.42-2.09-.25,.02-.69,1.39-.95,1.9-1.05,.46-.08,1.82-.34,2.03,.27Zm-6.25,10.08c.66-.2,2.4-.57,2.52,.51-.02,1.14-1.58,1.83-2.49,2.13-.62,.19-2.5,.58-2.48-.54,.02-1.11,1.58-1.81,2.46-2.11Zm-4.64-4.21c-.36,.13-2.09,.65-1.97-.19,.13-.87,1.47-1.41,2.18-1.67,.37-.12,2.08-.63,2.02,.17-.06,.88-1.55,1.43-2.23,1.69Zm4.63,1.35c.6-.18,2.3-.58,2.41,.41-.03,1.05-1.57,1.67-2.4,1.95-.54,.17-2.42,.61-2.38-.43,.03-1.03,1.57-1.66,2.38-1.93Zm-2.27-.77c.05-.94,1.55-1.49,2.28-1.73,.53-.15,2.18-.56,2.29,.32-.03,.95-1.56,1.49-2.29,1.74-.47,.14-2.32,.6-2.27-.33Zm6.29-7.98c.42-.06,1.69-.3,1.9,.22,.09,.53-1.37,.75-1.73,.82-.37,.07-1.86,.37-1.96-.19,.03-.59,1.35-.78,1.78-.85Zm-4,5.87c-.4,.11-2.21,.58-2.15-.24,.05-.85,1.52-1.31,2.18-1.51,.46-.13,2.05-.53,2.15,.24-.03,.85-1.53,1.31-2.18,1.51Zm.06-3.53c.4-.1,1.93-.49,2.02,.17-.03,.74-1.5,1.12-2.06,1.28-.33,.09-2.09,.54-2.03-.16,.06-.75,1.48-1.13,2.06-1.3Zm-5.54-.53c.18-.62,1.37-.94,1.91-1.1,.22-.07,1.75-.47,1.69-.02-.09,.59-1.45,.93-1.93,1.09-.21,.07-1.8,.51-1.66,.03Zm-.39,1.49c.17-.71,1.41-1.09,2.01-1.29,.26-.08,1.86-.54,1.8,.03-.08,.68-1.49,1.1-2.03,1.28-.25,.08-1.9,.57-1.77-.02Zm-.38,1.79c.15-.79,1.44-1.25,2.1-1.48,.31-.1,1.97-.59,1.91,.1-.08,.77-1.53,1.26-2.14,1.48-.3,.1-2,.62-1.86-.1Zm-4,1.82c.25-.81,1.31-1.31,2.02-1.62,.28-.11,1.86-.66,1.72,.05-.16,.81-1.44,1.35-2.1,1.65-.31,.12-1.78,.67-1.64-.08Zm-.5,2.22c.22-.87,1.31-1.45,2.06-1.78,.34-.14,1.93-.68,1.81,.14-.13,.88-1.43,1.5-2.15,1.82-.37,.15-1.83,.67-1.71-.17Zm3.54,.83c-.11,.95-1.42,1.63-2.19,1.97-.45,.18-1.87,.63-1.78-.29,.19-.94,1.29-1.57,2.09-1.92,.41-.17,1.99-.66,1.89,.24Zm-7.17,1.14c.22-.83,1.12-1.44,1.84-1.81,.35-.17,1.66-.67,1.54,.14-.21,.86-1.22,1.49-1.96,1.86-.37,.17-1.56,.62-1.42-.19Zm-.47,2.51c.18-.87,1.07-1.52,1.82-1.9,.42-.2,1.68-.62,1.6,.25-.18,.9-1.18,1.58-1.95,1.96-.44,.2-1.57,.54-1.47-.31Zm-3.12,1.73c.15-.78,.83-1.42,1.49-1.81,.41-.22,1.37-.52,1.27,.27-.16,.81-.93,1.48-1.61,1.87-.43,.23-1.23,.41-1.15-.33Zm-.48,7.99c0-.74,.56-1.37,1.2-1.67,.59-.23,1.35-.12,1.39,.64-.02,.78-.65,1.45-1.35,1.72-.58,.19-1.2-.01-1.25-.69Zm0-2.72c.05-.77,.65-1.42,1.31-1.77,.54-.25,1.36-.26,1.35,.52-.07,.8-.75,1.49-1.45,1.82-.55,.23-1.21,.13-1.21-.58Zm1.47,6.2c-.6,.14-1.19-.14-1.29-.79-.05-.7,.46-1.29,1.09-1.53,.62-.2,1.35,.02,1.42,.75,.02,.73-.55,1.36-1.23,1.57Zm-.13-8.43c-.49,.23-1.22,.28-1.18-.45,.1-.78,.75-1.44,1.41-1.81,.48-.25,1.36-.4,1.31,.39-.12,.82-.84,1.5-1.54,1.87Zm3.35,7.55c-.67,.17-1.56,.03-1.64-.79-.02-.86,.78-1.5,1.52-1.77,.68-.21,1.73-.16,1.8,.74,0,.91-.88,1.57-1.68,1.82Zm-1.74-3.76c.03-.89,.86-1.57,1.62-1.89,.64-.24,1.73-.29,1.76,.63-.05,.94-.96,1.64-1.77,1.94-.64,.21-1.57,.17-1.61-.68Zm1.64-2.4c-.58,.22-1.57,.3-1.57-.57,.08-.9,.94-1.59,1.71-1.94,.57-.24,1.72-.42,1.71,.5-.1,.94-1.05,1.66-1.85,2.01Zm.18-3c-.51,.22-1.58,.44-1.52-.44,.13-.9,1.02-1.58,1.78-1.95,.5-.23,1.71-.54,1.65,.37-.14,.94-1.11,1.64-1.91,2.01Zm3.75,4.46c-.67,.21-1.93,.34-1.96-.67,.06-1.02,1.15-1.73,2.01-2.07,.63-.22,2.13-.45,2.11,.61-.02,1.06-1.29,1.82-2.16,2.13Zm2.27-5.4c-.05,1.04-1.34,1.8-2.19,2.13-.61,.21-1.93,.45-1.91-.54,.11-1.01,1.21-1.72,2.06-2.08,.56-.21,2.1-.55,2.05,.49Zm.2-3.07c-.08,1-1.39,1.73-2.2,2.07-.53,.2-1.91,.56-1.86-.41,.15-.98,1.26-1.66,2.09-2.02,.49-.19,2.05-.62,1.97,.36Zm2.31,3.23c-.59,.2-2.29,.56-2.23-.52,.06-1.08,1.46-1.8,2.33-2.13,.59-.2,2.35-.6,2.33,.48-.02,1.11-1.55,1.86-2.42,2.18Zm.12-3.16c-.52,.18-2.24,.62-2.15-.41,.08-1.02,1.47-1.7,2.3-2.01,.51-.18,2.27-.64,2.23,.37-.03,1.04-1.56,1.74-2.38,2.05Zm.18-2.88c-.43,.15-2.17,.65-2.06-.29,.11-.95,1.47-1.56,2.25-1.86,.44-.15,2.18-.64,2.13,.26-.05,.96-1.56,1.6-2.32,1.88Zm4.9,4.86c.73-.22,2.5-.56,2.61,.6-.02,1.21-1.59,1.94-2.56,2.27-.68,.2-2.56,.54-2.56-.64,0-1.17,1.59-1.92,2.51-2.23Zm.14,6.47c-.73,.21-2.6,.49-2.62-.72-.02-1.2,1.59-1.98,2.54-2.29,.78-.23,2.57-.52,2.68,.69-.02,1.25-1.6,2.01-2.61,2.33Zm7.58-10.92c.07,1.09-1.51,1.72-2.35,1.98-.69,.19-2.48,.54-2.6-.56,.02-1.09,1.52-1.71,2.39-1.97,.7-.19,2.37-.48,2.56,.55Zm-.37-2.78c.08,.99-1.49,1.53-2.23,1.75-.62,.16-2.37,.53-2.49-.48,.02-1,1.49-1.53,2.27-1.75,.64-.16,2.24-.45,2.44,.48Zm-.38-2.39c.08,.88-1.46,1.33-2.1,1.5-.55,.13-2.24,.5-2.36-.39,.02-.9,1.46-1.33,2.15-1.51,.57-.13,2.1-.42,2.31,.4Zm-.38-2c.09,.76-1.44,1.12-1.97,1.25-.49,.11-2.12,.47-2.23-.31,.02-.79,1.42-1.14,2.03-1.27,.52-.11,1.96-.38,2.17,.33Z"></path></g></svg> 