<?xml version="1.0" encoding="UTF-8"?> <svg xmlns="http://www.w3.org/2000/svg" id="Layer_1" width="300.04" height="51.5" viewBox="0 0 300.04 51.5"><defs><style>.cls-1{fill:#fff;}</style></defs><path class="cls-1" d="M246.31,10c2.76,0,5-2.24,5-5s-2.24-5-5-5-5,2.24-5,5,2.24,5,5,5Z"></path><path class="cls-1" d="M105.92,41.02h-6.88l.07-3.5c-.59,1.57-4.41,4.27-8.86,4.27-7.52,0-13.6-6.57-13.6-14.66-.21-8.08,6.17-14.81,14.25-15.02s14.81,6.17,15.02,14.25c0,.25,0,.51,0,.77v13.89Zm-14.58-21.92c-4,0-7.36,3.5-7.36,8.13-.26,4.05,2.81,7.53,6.86,7.79s7.53-2.81,7.79-6.86c.02-.31,.02-.63,0-.94,0-4.44-3.25-8.13-7.29-8.13Z"></path><path class="cls-1" d="M237.32,40.99h-7.28V24.43c0-1.6-.56-5.52-5.66-5.33-2.93,.09-5.26,2.5-5.25,5.44v16.45h-7.29V24.43c0-1.57-.49-5.37-5.32-5.37-2.87-.16-5.32,2.04-5.48,4.91,0,.15,0,.31,0,.46v16.56h-7.29V24.91c0-7.16,5-12.56,12.84-12.56,3.47-.12,6.81,1.36,9.06,4,2.29-2.59,5.6-4.05,9.06-4,8,0,12.65,5.18,12.65,12.56v16.08h-.04Z"></path><path class="cls-1" d="M268.1,12.38c8,0,12.64,5.19,12.64,12.57v16.07h-7.28V24.79c0-1.6-.57-5.66-5.67-5.66-2.94,0-5.25,2.87-5.25,5.74v16.12h-7.28V24.91c0-7.12,5.06-12.53,12.84-12.53Z"></path><path class="cls-1" d="M118.04,51.5v-13.27c2.23,2.29,5.29,3.58,8.49,3.56,7.51,0,13.51-6.58,13.51-14.71s-6.55-14.63-14.63-14.63-14.63,6.55-14.63,14.63v24.42h7.26Zm7.4-16.41c-4,0-7.36-3.54-7.36-8s3.32-8,7.36-8,7.29,3.43,7.29,8-3.25,8-7.29,8Z"></path><path class="cls-1" d="M72.88,40.99h-7.29V24.79c0-1.64-.53-5.7-5.25-5.7-3.04-.03-5.52,2.41-5.55,5.45,0,.08,0,.17,0,.25v16.2h-7.29V2.28h7.29V15.79c1.65-2.14,4.21-3.38,6.91-3.36,7,0,11.22,5,11.22,12.38v16.18h-.04Z"></path><path class="cls-1" d="M300.04,41.55c-9.18,.85-14.73-4.11-14.73-11.79V5.93h7.29v7.27h7.44v6.72h-7.44v9.92c0,3.91,3,5.4,7.44,5.18v6.53Z"></path><path class="cls-1" d="M172.04,29.79c.11-.9,.18-1.81,.19-2.72,0-9.14-6.72-14.7-14-14.7-8.11,.08-14.63,6.71-14.59,14.82,0,8.13,6.68,14.62,15.63,14.62,4.19,0,8.91-1.46,11.37-4.07l-3.55-5.18c-1.51,1.38-3.36,2.57-7.33,2.57-6.38,0-8.19-3.91-8.34-5.33h20.62Zm-20.69-5.31c.57-3.2,3.4-5.5,6.65-5.4,4.6,0,6.76,3.09,7,5.48l-13.65-.08Z"></path><path class="cls-1" d="M249.97,40.99h-7.29V13.2h7.29v27.79Z"></path><path class="cls-1" d="M191.25,19.1c-4.64-.82-7.74,1.64-7.74,5.63v16.26h-7.28V24.73c0-8,5.58-13.54,15-12.42l.02,6.79Z"></path><path class="cls-1" d="M31.04,42.7c8,.3,12.31-4.44,12.31-10.92s-6.87-8.51-10.23-9.63c-4.08-1.36-7.14-2.12-7.14-4.36,0-1.82,1.66-3,4.31-3,3.21,.2,6.31,1.23,9,3l.23,.15,3.21-5.67-.19-.11c-3.6-2.33-7.77-3.6-12.05-3.69-6.95,0-11.82,4.17-11.82,10.18,0,6.79,7,8.91,10.31,9.69,4.06,.94,7.06,1.91,7.06,4.45,0,2-1.92,3.72-5,3.31-4.83-.74-13.37-6.15-19.52-6.15-5.4,0-9.33,2.35-11.52,6.71l6,3c.78-1.93,2.69-3.15,4.76-3.05,6.42-.02,12.58,5.79,20.28,6.09Z"></path></svg> 