<?xml version="1.0" encoding="UTF-8"?> <svg xmlns="http://www.w3.org/2000/svg" id="stevie-winner-2020" width="216" height="216" viewBox="0 0 216 216"><defs><style>.cls-1{fill:#292663;}</style></defs><g><path class="cls-1" d="M85.75,83.76h5.85v7.64c-.39,.13-.78,.24-1.18,.35s-.81,.19-1.24,.27-.87,.12-1.34,.16-1,.06-1.48,.06c-1,.02-2-.15-2.94-.49-.82-.3-1.55-.8-2.14-1.45-.59-.7-1.02-1.51-1.28-2.38-.32-1.06-.48-2.16-.46-3.27-.03-1.06,.12-2.12,.46-3.13,.31-.9,.82-1.72,1.49-2.39,.69-.68,1.51-1.19,2.42-1.51,1.06-.37,2.17-.55,3.29-.53,.77,0,1.55,.08,2.3,.25,.71,.15,1.4,.36,2.07,.65l-1,2.51c-.5-.25-1.03-.45-1.57-.58-.59-.16-1.2-.24-1.81-.23-.64-.01-1.27,.11-1.85,.36-.54,.23-1.02,.57-1.41,1-.41,.46-.71,1-.9,1.59-.21,.67-.32,1.37-.31,2.07,0,.67,.07,1.34,.22,2,.12,.56,.35,1.09,.68,1.56,.31,.43,.72,.77,1.19,1,.55,.26,1.15,.39,1.76,.37,.37,0,.75-.02,1.12-.06l.86-.14v-3.05h-2.8v-2.63Z"></path><path class="cls-1" d="M108.69,84.65c.01,1.05-.12,2.1-.39,3.11-.24,.87-.66,1.69-1.22,2.4-.56,.67-1.27,1.2-2.08,1.54-1.89,.73-3.99,.73-5.88,0-.8-.34-1.51-.87-2.06-1.54-.57-.71-.98-1.53-1.21-2.41-.53-2.04-.53-4.19,0-6.23,.23-.87,.65-1.69,1.21-2.39,.56-.66,1.26-1.19,2.06-1.53,.95-.38,1.97-.57,3-.54,1-.02,2,.16,2.93,.54,.78,.35,1.46,.87,2,1.53,.56,.71,.98,1.53,1.22,2.4,.29,1.01,.43,2.07,.42,3.12Zm-10,0c0,.7,.06,1.4,.2,2.08,.11,.55,.32,1.08,.62,1.56,.27,.42,.63,.76,1.06,1,.47,.23,.99,.35,1.51,.34,.53,.01,1.06-.1,1.54-.34,.41-.24,.76-.59,1-1,.3-.48,.5-1.01,.61-1.56,.27-1.38,.27-2.79,0-4.17-.11-.56-.31-1.09-.61-1.57-.24-.42-.58-.76-1-1-.47-.25-.99-.37-1.52-.35-.53-.01-1.05,.11-1.52,.35-.44,.23-.81,.58-1.07,1-.29,.48-.5,1.02-.62,1.57-.13,.69-.2,1.39-.19,2.09h0Z"></path><path class="cls-1" d="M112.77,92v-14.7h3.13v12.16h5.36v2.54h-8.49Z"></path><path class="cls-1" d="M136.26,84.52c.02,1.11-.15,2.22-.51,3.28-.6,1.8-2.02,3.2-3.83,3.77-1.03,.33-2.1,.49-3.18,.47h-3.88v-14.74h4.31c.99-.02,1.98,.14,2.92,.46,1.72,.58,3.08,1.93,3.67,3.65,.35,1,.52,2.05,.5,3.11Zm-3.17,.09c.01-.72-.07-1.43-.25-2.13-.13-.54-.37-1.04-.71-1.48-.3-.38-.7-.68-1.15-.86-.5-.2-1.03-.29-1.56-.28h-1.42v9.59h1.15c1.13,.09,2.24-.36,3-1.21,.72-1.06,1.06-2.35,.94-3.63Z"></path><path class="cls-1" d="M61.76,105.82c.02,.51-.21,.99-.61,1.31-.47,.34-1.04,.51-1.62,.48-.63,.03-1.26-.06-1.86-.27v-.46c.58,.22,1.21,.32,1.83,.3,.46,.02,.92-.11,1.3-.38,.31-.23,.49-.61,.48-1,0-.22-.05-.43-.16-.62-.14-.19-.31-.34-.52-.45-.34-.17-.69-.32-1.05-.44-.52-.14-1-.4-1.4-.75-.27-.29-.41-.68-.4-1.08,0-.48,.21-.93,.59-1.22,.43-.32,.95-.49,1.49-.47,.6,0,1.2,.12,1.75,.36l-.16,.4c-.5-.22-1.03-.34-1.58-.35-.42-.02-.83,.1-1.17,.34-.28,.22-.45,.56-.43,.92,0,.21,.03,.42,.13,.61,.11,.17,.26,.32,.44,.42,.32,.18,.66,.33,1,.45,.4,.13,.79,.3,1.16,.51,.24,.14,.43,.34,.57,.58,.14,.25,.21,.53,.22,.81Z"></path><path class="cls-1" d="M65.47,107.52h-.47v-6.2h-2.14v-.43h4.77v.43h-2.15v6.2h-.01Z"></path><path class="cls-1" d="M72.81,107.52h-3.62v-6.64h3.62v.42h-3.17v2.51h3v.43h-3v2.84h3.17v.44Z"></path><path class="cls-1" d="M78.8,100.89h.51l-2.48,6.64h-.41l-2.42-6.64h.49l1.67,4.51c.25,.68,.42,1.19,.51,1.54,.06-.23,.18-.58,.36-1.06l1.77-4.99Z"></path><path class="cls-1" d="M80.82,107.52v-6.64h.47v6.64h-.47Z"></path><path class="cls-1" d="M87.37,107.52h-3.62v-6.64h3.62v.42h-3.17v2.51h3v.43h-3v2.84h3.17v.44Z"></path><path class="cls-1" d="M88.78,102.66c0-.73,.37-1.42,1-1.8,.31-.2,.68-.3,1.05-.29,.35,0,.7,.1,1,.28,.32,.18,.58,.44,.76,.76,.59,.93,.31,2.17-.62,2.76-.04,.02-.08,.05-.12,.07-.32,.2-.69,.3-1.06,.3-1.14,.01-2.08-.91-2.09-2.05,0-.01,0-.02,0-.03h.08Zm.26,0c0,.32,.08,.63,.24,.91,.16,.27,.39,.5,.66,.67,.28,.16,.6,.25,.92,.25,.32,0,.63-.09,.91-.25,.27-.17,.5-.4,.67-.67,.16-.28,.25-.59,.25-.91,0-.32-.08-.63-.24-.9-.16-.28-.39-.51-.67-.67-.28-.18-.6-.27-.93-.26-.32,0-.64,.08-.91,.25-.28,.16-.51,.39-.68,.67-.16,.28-.25,.59-.26,.91h.04Zm2.57-.52c0,.13-.03,.27-.1,.38-.08,.11-.18,.2-.31,.26l.66,1.09h-.34l-.58-1h-.46v1h-.29v-2.44h.59c.22-.01,.43,.05,.61,.17,.15,.14,.24,.34,.22,.54Zm-1.14,.52h.31c.14,0,.28-.04,.39-.13,.1-.1,.16-.24,.15-.38,0-.31-.19-.47-.55-.47h-.31v.98Z"></path><path class="cls-1" d="M101.68,107.52h-.38l-1.45-5.12c-.13-.42-.22-.76-.28-1-.05,.31-.12,.61-.21,.91-.09,.34-.58,2.08-1.46,5.24h-.39l-1.82-6.64h.49l1.16,4.28c0,.18,.09,.33,.12,.48s.08,.29,.11,.42,.06,.25,.08,.37,0,.24,.07,.36c.12-.63,.28-1.26,.47-1.87l1.13-4h.52l1.33,4.62c.16,.53,.26,1,.33,1.29,.04-.22,.09-.45,.15-.69,.07-.25,.53-2,1.4-5.22h.46l-1.83,6.57Z"></path><path class="cls-1" d="M105.26,107.52v-6.64h.47v6.64h-.47Z"></path><path class="cls-1" d="M113,107.52h-.47l-3.93-5.89h0c0,.7,.06,1.23,.06,1.59v4.3h-.44v-6.64h.46l3.93,5.88h0v-5.88h.39v6.64Z"></path><path class="cls-1" d="M120.28,107.52h-.46l-3.93-5.89h0c.04,.7,.06,1.23,.06,1.59v4.3h-.44v-6.64h.47l3.93,5.88h0v-5.88h.45v6.64h-.08Z"></path><path class="cls-1" d="M126.35,107.52h-3.62v-6.64h3.62v.42h-3.16v2.51h3v.43h-3v2.84h3.16v.44Z"></path><path class="cls-1" d="M128.9,104.64v2.89h-.47v-6.64h1.57c.64-.05,1.28,.11,1.82,.46,.41,.33,.63,.84,.59,1.37,.01,.4-.11,.8-.35,1.12-.27,.33-.64,.56-1.06,.65l1.8,3h-.56l-1.71-2.89h-1.63v.04Zm0-.4h1.26c.46,.03,.92-.11,1.3-.38,.32-.27,.5-.68,.47-1.1,.04-.42-.13-.84-.46-1.11-.44-.27-.96-.39-1.48-.35h-1.09v2.94Z"></path><path class="cls-1" d="M140.32,107.52h-4.15v-.4l1.76-1.84c.35-.38,.69-.77,1-1.18,.18-.24,.33-.51,.44-.79,.09-.25,.14-.51,.14-.78,.02-.37-.12-.74-.39-1-.27-.25-.63-.39-1-.37-.58,.01-1.15,.22-1.59,.6l-.24-.31c.51-.45,1.17-.7,1.85-.7,.5-.03,.98,.14,1.36,.46,.34,.34,.52,.8,.5,1.28,0,.44-.11,.88-.33,1.27-.35,.56-.76,1.07-1.23,1.52l-1.7,1.74h3.55v.44l.03,.06Z"></path><path class="cls-1" d="M146.32,104.19c.06,.89-.13,1.78-.53,2.58-.35,.55-.97,.87-1.62,.84-.64,.03-1.25-.3-1.57-.86-.71-1.64-.71-3.49,0-5.13,.34-.55,.95-.87,1.59-.83,.65-.03,1.27,.3,1.6,.86,.4,.78,.59,1.66,.53,2.54Zm-3.77,0c-.05,.78,.09,1.56,.4,2.28,.36,.68,1.21,.95,1.89,.59,.25-.13,.46-.34,.59-.59,.52-1.45,.52-3.04,0-4.49-.22-.48-.72-.78-1.25-.76-.53-.03-1.02,.27-1.24,.76-.3,.7-.43,1.45-.39,2.21Z"></path><path class="cls-1" d="M152.07,107.52h-4.15v-.4l1.77-1.84c.35-.38,.69-.77,1-1.18,.18-.24,.33-.51,.44-.79,.09-.25,.14-.51,.14-.78,.02-.37-.12-.74-.39-1-.27-.25-.63-.38-1-.37-.58,.01-1.15,.22-1.59,.6l-.24-.31c.51-.45,1.16-.7,1.84-.7,.5-.03,.98,.14,1.36,.46,.35,.33,.53,.8,.5,1.28,0,.44-.11,.88-.33,1.27-.34,.56-.75,1.07-1.22,1.52l-1.7,1.74h3.54v.44l.03,.06Z"></path><path class="cls-1" d="M158.08,104.19c.06,.89-.12,1.79-.53,2.58-.34,.55-.96,.87-1.61,.84-.64,.02-1.25-.31-1.58-.86-.71-1.64-.71-3.49,0-5.13,.6-.88,1.8-1.11,2.68-.51,.2,.14,.37,.31,.51,.51,.41,.79,.6,1.68,.53,2.57Zm-3.78,0c-.05,.78,.09,1.56,.41,2.28,.35,.68,1.19,.95,1.87,.6,.26-.13,.46-.34,.6-.6,.3-.71,.44-1.48,.39-2.25,.04-.77-.09-1.53-.39-2.24-.35-.69-1.2-.96-1.89-.6-.26,.13-.47,.35-.6,.6-.3,.7-.43,1.45-.39,2.21Z"></path></g><g><path class="cls-1" d="M141.81,135.21c-.37,0-.8-.08-.52-1s.77-.66,1.22-.71c5.59-.19,11.1-1.43,16.24-3.64,8.38-3.57,19.23-10.95,24-27.81,9.11-32.27-20.2-48.53-20.5-48.69-.12-.07-.17-.22-.11-.35,.07-.13,.22-.18,.35-.11,5.39,3.2,10.14,7.37,14,12.3,8.47,10.42,11.23,24.37,7.35,37.23-4.81,17.06-16,25.39-24.54,29-5.54,2.34-11.48,3.62-17.49,3.78Z"></path><path class="cls-1" d="M156.29,140c.07-.18-1.33-.56-3.09-1.44s-3.73-1.83-3.54-2.19,4.48-.25,7.11,1,5.38,3.39,5.21,4.19-2.8,1.24-5,1.24c-1.86-.05-3.67-.66-5.17-1.77-1-.78-3.06-2.81-2.81-3.24s2.62,1.13,4.36,1.62,2.87,.77,2.93,.59Z"></path><path class="cls-1" d="M166.84,135c-.98-.33-1.98-.58-3-.77-1.71-.49-3.62-1-3.5-1.33s4-.91,6.52-.28,5.33,2.1,5.29,2.8-2.34,1.5-4.29,1.83c-1.67,.24-3.38-.01-4.9-.74-1-.51-3.16-1.94-3-2.36s2.52,.58,4.16,.74,2.7,.27,2.72,.11Z"></path><path class="cls-1" d="M174.87,128.69c-.95-.15-1.92-.23-2.88-.25-1.65-.2-3.49-.38-3.44-.72s3.5-1.47,5.94-1.27,5.26,1.14,5.35,1.81c.09,.67-1.91,1.78-3.64,2.39-1.5,.49-3.12,.52-4.64,.07-1-.32-3.24-1.34-3.15-1.75s2.4,.15,3.93,.05,2.53-.17,2.53-.33Z"></path><path class="cls-1" d="M180.93,121.67c-.91,0-1.81,.07-2.71,.21-1.57,.08-3.3,.21-3.29-.11s3.08-1.87,5.38-2.08,5,.21,5.21,.8-1.55,1.91-3.09,2.74c-1.33,.67-2.83,.95-4.31,.79-1-.14-3.19-.71-3.17-1.1s2.27-.24,3.68-.57c.8-.1,1.57-.33,2.3-.68Z"></path><path class="cls-1" d="M185.29,114.71c-.82,.11-1.63,.27-2.43,.48-1.41,.23-3,.52-3,.23s2.56-2,4.62-2.47,4.62-.31,4.85,.22-1.16,1.92-2.45,2.84c-1.13,.76-2.47,1.17-3.83,1.16-.92,0-3-.33-3-.69s2-.45,3.27-.9,2.01-.74,1.97-.87Z"></path><path class="cls-1" d="M188.09,107.77c-.74,.16-1.47,.39-2.17,.67-1.27,.36-2.68,.76-2.75,.5s2.07-2.15,3.91-2.73,4.21-.73,4.49-.25-.79,1.9-1.85,2.88c-.94,.82-2.11,1.32-3.35,1.44-.85,.06-2.81,0-2.89-.37s1.81-.61,2.89-1.15,1.77-.88,1.72-.99Z"></path><path class="cls-1" d="M189.65,101.1c-.68,.24-1.35,.52-2,.84-1.14,.46-2.4,1-2.5,.74s1.7-2.21,3.36-2.94,3.85-1.1,4.16-.69-.55,1.85-1.43,2.87c-.8,.86-1.85,1.45-3,1.68-.79,.15-2.62,.25-2.72,0s1.62-.75,2.57-1.36,1.62-1.04,1.56-1.14Z"></path><path class="cls-1" d="M190.18,95.08c-.6,.29-1.19,.62-1.74,1-1,.51-2.14,1.11-2.27,.9s1.34-2.2,2.8-3,3.48-1.34,3.82-1-.29,1.76-1,2.77c-.64,.87-1.55,1.51-2.59,1.81-.73,.2-2.43,.45-2.56,.18s1.43-.83,2.25-1.47,1.35-1.1,1.29-1.19Z"></path><path class="cls-1" d="M190.15,89.31c-.08-.08-.59,.47-1.44,1.07s-1.8,1.27-2,1.09,.8-2.14,2-3,3-1.64,3.42-1.36,.1,1.62-.36,2.61c-.44,.89-1.17,1.6-2.08,2-.64,.27-2.21,.71-2.39,.48s1.18-.92,1.82-1.6,1.12-1.22,1.03-1.29Z"></path><path class="cls-1" d="M189.37,84.54c-.07-.07-.56,.47-1.39,1.06s-1.73,1.26-1.89,1.08,.79-2.1,2-3,2.9-1.64,3.28-1.37,.08,1.57-.37,2.55c-.43,.85-1.13,1.53-2,1.92-.62,.28-2.11,.73-2.29,.5s1.14-.91,1.76-1.58,.98-1.08,.9-1.16Z"></path><path class="cls-1" d="M188.38,79.87c-.08-.06-.49,.51-1.18,1.16s-1.47,1.38-1.63,1.23c.19-1.13,.72-2.18,1.53-3,1-1,2.5-1.86,2.88-1.66s.21,1.47-.11,2.45c-.32,.83-.9,1.54-1.66,2-.54,.32-1.87,.91-2.05,.73s1-1,1.47-1.69,.82-1.16,.75-1.22Z"></path><path class="cls-1" d="M187,75.71c-.06,0-.44,.48-1.08,1.11s-1.34,1.32-1.49,1.18c.19-1.08,.68-2.09,1.43-2.89,.93-1,2.28-1.79,2.61-1.6s.17,1.39-.14,2.31c-.29,.79-.83,1.47-1.53,1.94-.49,.32-1.69,.89-1.85,.73s.88-.95,1.35-1.62,.75-1.1,.7-1.16Z"></path><path class="cls-1" d="M185.34,72c-.08,0-.36,.5-.89,1.15s-1.12,1.39-1.27,1.28c.04-1.03,.39-2.02,1-2.85,.76-1,2-1.93,2.29-1.79s.33,1.27,.16,2.16c-.17,.78-.59,1.48-1.2,2-.42,.35-1.5,1-1.67,.88s.71-1,1.07-1.66,.57-1.17,.51-1.17Z"></path><path class="cls-1" d="M183.67,68.53c-.07,0-.33,.5-.8,1.15s-1,1.38-1.13,1.28c.04-1,.35-1.97,.9-2.81,.68-1,1.74-1.93,2-1.81s.28,1.23,.12,2.11c-.15,.76-.52,1.46-1.08,2-.39,.35-1.35,1-1.5,.9s.65-1,1-1.64c.23-.36,.39-.76,.49-1.18Z"></path><path class="cls-1" d="M181.71,65.73c-.27,.38-.52,.77-.75,1.18-.46,.68-1,1.42-1.08,1.32,0-1,.27-1.98,.79-2.84,.64-1,1.67-2,2-1.88s.34,1.22,.21,2.1c-.13,.75-.48,1.45-1,2-.37,.36-1.31,1.09-1.46,1s.6-1,.9-1.68,.46-1.16,.39-1.2Z"></path><path class="cls-1" d="M179.84,63.08c-.25,.39-.48,.8-.69,1.22-.43,.69-.88,1.46-1,1.37-.04-1,.19-2,.66-2.88,.6-1,1.57-2.07,1.88-2s.4,1.2,.31,2.09c-.1,.74-.41,1.44-.91,2-.35,.38-1.25,1.16-1.41,1s.55-1,.82-1.73,.41-1.03,.34-1.07Z"></path><path class="cls-1" d="M177.74,60.83c-.23,.36-.43,.73-.6,1.12-.36,.64-.75,1.35-.87,1.27-.03-.92,.17-1.83,.58-2.65,.51-1,1.34-1.91,1.61-1.82s.32,1.09,.25,1.92c-.08,.69-.35,1.35-.79,1.89-.3,.36-1.07,1.06-1.21,1s.48-1,.72-1.59,.37-1.1,.31-1.14Z"></path><path class="cls-1" d="M175.84,58.53c-.19,.36-.36,.73-.51,1.11-.3,.64-.64,1.35-.75,1.28-.09-.88,.04-1.77,.39-2.59,.43-1,1.17-1.93,1.42-1.86s.37,1,.35,1.83c-.04,.67-.26,1.32-.64,1.87-.27,.36-1,1.09-1.09,1s.4-.95,.58-1.57,.31-1.04,.25-1.07Z"></path><path class="cls-1" d="M173.79,56.94c-.17,.33-.33,.66-.47,1-.28,.59-.59,1.26-.69,1.19-.08-.82,.04-1.66,.36-2.42,.4-.9,1.08-1.81,1.31-1.74s.34,1,.32,1.71c-.04,.63-.24,1.23-.59,1.75-.24,.34-.88,1-1,.93s.38-.88,.54-1.47,.28-.89,.22-.95Z"></path><path class="cls-1" d="M171.89,55.27c-.17,.32-.31,.66-.44,1-.27,.6-.55,1.27-.67,1.21-.1-.82,0-1.66,.31-2.43,.37-.91,1-1.83,1.27-1.77s.36,1,.36,1.7c-.02,.63-.21,1.24-.55,1.77-.23,.34-.86,1-1,1s.35-.89,.5-1.49,.33-.98,.22-.99Z"></path><path class="cls-1" d="M170,53.78c-.15,.35-.29,.71-.4,1.07-.24,.61-.5,1.3-.61,1.23-.13-.81-.06-1.65,.21-2.43,.34-.93,.95-1.87,1.19-1.82s.41,.94,.43,1.68c.01,.63-.15,1.25-.48,1.79-.22,.35-.81,1.07-.94,1s.32-.91,.44-1.51c.11-.33,.16-.67,.16-1.01Z"></path><path class="cls-1" d="M168.1,52.53c-.13,.33-.23,.66-.31,1-.19,.59-.4,1.26-.51,1.2-.16-.77-.15-1.56,.05-2.32,.26-.89,.78-1.83,1-1.79s.43,.87,.5,1.57c.04,.59-.08,1.18-.34,1.71-.19,.35-.69,1.06-.82,1s.24-.87,.33-1.45c.08-.3,.11-.61,.1-.92Z"></path><path class="cls-1" d="M166.23,51.55c-.1,.33-.18,.66-.24,1-.15,.58-.31,1.23-.42,1.18-.2-.73-.22-1.5-.07-2.24,.2-.88,.65-1.79,.86-1.77s.46,.82,.56,1.49c.07,.57,0,1.14-.23,1.67-.16,.34-.6,1.06-.73,1s.19-.86,.24-1.41c.06-.3,.07-.61,.03-.92Z"></path><path class="cls-1" d="M164.45,50.56c-.07,.33-.13,.66-.16,1-.1,.55-.21,1.17-.31,1.14-.24-.67-.31-1.39-.22-2.1,.13-.84,.49-1.73,.7-1.72s.48,.73,.62,1.36c.11,.53,.07,1.07-.11,1.58-.12,.34-.49,1-.62,1s.12-.81,.13-1.34c.04-.31,.03-.62-.03-.92Z"></path><path class="cls-1" d="M159.46,51.59c0,.07,.43,.24,1,.6s1.22,.76,1.14,.89c-.81,.1-1.63-.06-2.35-.46-.87-.51-1.74-1.38-1.66-1.69s.95-.43,1.68-.41c.63,.05,1.23,.33,1.68,.77,.33,.3,1,1.12,.88,1.29s-.84-.48-1.42-.69-.93-.36-.95-.3Z"></path><path class="cls-1" d="M152.1,125.24c-.15-.07-.62,1-1.56,2.4-.94,1.4-2,2.89-2.28,2.7s.2-3.72,1.5-5.76,3.52-4.09,4.2-3.87,.84,2.44,.63,4.23c-.23,1.55-.96,2.98-2.07,4.08-.78,.75-2.77,2.24-3.13,2s1.25-2,1.85-3.42,1-2.3,.86-2.36Z"></path><path class="cls-1" d="M159.68,122.28c-.31,.83-.56,1.67-.76,2.53-.48,1.46-1,3.08-1.31,3s-.79-3.34-.16-5.49,2-4.54,2.7-4.52,1.37,2,1.65,3.59c.2,1.43-.07,2.88-.76,4.15-.49,.87-1.87,2.71-2.25,2.58s.58-2.14,.75-3.52,.29-2.3,.14-2.32Z"></path><path class="cls-1" d="M166.08,118.11c-.12,.84-.17,1.7-.16,2.55-.13,1.47-.26,3.11-.56,3.07s-1.42-3-1.3-5.2,.91-4.69,1.51-4.79,1.66,1.6,2.25,3.11c.48,1.31,.54,2.73,.18,4.08-.27,.92-1.14,2.92-1.51,2.86s.08-2.13-.05-3.48-.22-2.21-.36-2.2Z"></path><path class="cls-1" d="M171,113.28c.07,.77,.18,1.54,.35,2.29,.17,1.32,.37,2.8,.09,2.82s-1.81-2.46-2.12-4.39-.1-4.31,.4-4.51,1.75,1.14,2.56,2.37c.67,1.08,.99,2.33,.93,3.6-.06,.86-.43,2.78-.76,2.79s-.34-1.91-.72-3.08-.63-1.91-.73-1.89Z"></path><path class="cls-1" d="M174.58,108.17c.17,.7,.39,1.39,.66,2.06,.35,1.2,.77,2.53,.53,2.58s-2-2.08-2.6-3.82-.76-3.94-.34-4.16,1.75,.88,2.67,1.92c.76,.92,1.25,2.03,1.4,3.21,.08,.79,0,2.58-.26,2.63s-.6-1.71-1.12-2.75-.83-1.7-.94-1.67Z"></path><path class="cls-1" d="M176.94,103.33c.29,.63,.63,1.25,1,1.84,.54,1.07,1.17,2.26,.94,2.35-1.29-.76-2.36-1.84-3.11-3.14-.87-1.58-1.41-3.61-1-3.9s1.81,.51,2.86,1.34c.89,.72,1.54,1.69,1.88,2.78,.22,.73,.48,2.45,.21,2.55s-.86-1.52-1.53-2.41-1.19-1.47-1.25-1.41Z"></path><path class="cls-1" d="M178.56,98.34c.39,.54,.81,1.05,1.26,1.54,.7,.91,1.49,1.91,1.3,2-1.35-.49-2.55-1.32-3.48-2.41-1.09-1.33-1.95-3.11-1.66-3.45s1.79,.18,2.92,.78c.95,.53,1.73,1.32,2.25,2.28,.33,.65,.89,2.19,.65,2.34s-1.08-1.28-1.86-2-1.29-1.15-1.38-1.08Z"></path><path class="cls-1" d="M179.49,93.73c-.07,.07,.56,.53,1.29,1.29s1.55,1.62,1.38,1.76c-1.28-.28-2.45-.89-3.41-1.78-1.13-1.12-2.1-2.69-1.85-3s1.65-.08,2.74,.33c.93,.38,1.72,1.03,2.28,1.86,.37,.58,1,2,.82,2.13s-1.12-1.06-1.9-1.63-1.29-1.04-1.35-.96Z"></path><path class="cls-1" d="M179.61,89.07c-.05,.08,.6,.4,1.38,1s1.65,1.26,1.53,1.42c-1.22-.04-2.39-.43-3.39-1.13-1.2-.86-2.32-2.19-2.16-2.57s1.5-.37,2.55-.17c.91,.2,1.74,.68,2.36,1.38,.42,.49,1.24,1.69,1.07,1.88s-1.17-.81-2-1.22-1.3-.66-1.34-.59Z"></path><path class="cls-1" d="M179.55,85.29c.47,.26,.95,.5,1.45,.71,.82,.44,1.73,.89,1.63,1.05-1.14,.12-2.28-.06-3.32-.54-1.24-.6-2.48-1.63-2.39-2s1.34-.53,2.36-.49c.87,.05,1.71,.35,2.4,.88,.47,.37,1.4,1.33,1.27,1.52s-1.21-.55-2-.8-1.36-.41-1.4-.33Z"></path><path class="cls-1" d="M178.91,81.52c0,.07,.63,.16,1.46,.45s1.76,.58,1.68,.74c-1.06,.28-2.17,.28-3.23,0-1.26-.38-2.57-1.15-2.53-1.49s1.2-.67,2.18-.77c.83-.08,1.67,.09,2.4,.49,.49,.27,1.51,1,1.41,1.22s-1.23-.35-2-.47-1.35-.25-1.37-.17Z"></path><path class="cls-1" d="M178.07,78.09c.48,.12,.96,.21,1.45,.27,.83,.18,1.75,.37,1.7,.52-1.01,.35-2.09,.44-3.14,.27-1.25-.23-2.59-.82-2.58-1.15s1.11-.73,2.05-.92c.8-.15,1.62-.07,2.38,.23,.5,.2,1.54,.8,1.47,1s-1.22-.21-2-.24-1.32-.07-1.33,.02Z"></path><path class="cls-1" d="M177,74.93c.44,.11,.89,.19,1.35,.23,.77,.15,1.63,.32,1.58,.46-.94,.32-1.95,.41-2.93,.26-1.16-.19-2.4-.71-2.39-1s1-.66,1.91-.84c.74-.14,1.5-.08,2.2,.18,.46,.18,1.43,.71,1.36,.87s-1.13-.17-1.87-.2c-.4-.05-.81-.03-1.21,.04Z"></path><path class="cls-1" d="M175.77,72.13c.45,.03,.91,.03,1.36,0,.78,0,1.66,.08,1.63,.23-.88,.44-1.86,.68-2.85,.68-1.18,0-2.49-.36-2.51-.64s.94-.8,1.78-1.11c.71-.24,1.47-.29,2.21-.14,.48,.11,1.52,.49,1.47,.67s-1.15,0-1.88,.07c-.41,.01-.82,.09-1.21,.24Z"></path><path class="cls-1" d="M174.34,69.59c.44,.02,.88,.02,1.32,0,.76,0,1.61,0,1.59,.15-.81,.5-1.74,.79-2.69,.84-1.15,0-2.43-.23-2.49-.52s.82-.86,1.6-1.21c.67-.29,1.4-.38,2.12-.26,.47,.09,1.52,.42,1.49,.61s-1.11,0-1.81,.17c-.39,.01-.77,.09-1.13,.22Z"></path><path class="cls-1" d="M173,67.29c.42-.02,.83-.07,1.24-.14,.71-.05,1.51-.13,1.5,0-.72,.53-1.56,.88-2.44,1-1.07,.12-2.3,0-2.39-.3s.7-.88,1.4-1.27c.61-.33,1.31-.47,2-.41,.46,0,1.46,.28,1.44,.46s-1,.13-1.67,.3-1.08,.3-1.08,.36Z"></path><path class="cls-1" d="M171.4,65.24c.41-.06,.82-.14,1.22-.25,.7-.12,1.48-.27,1.5-.13-.66,.6-1.47,1.03-2.34,1.24-1.06,.22-2.29,.18-2.4-.08s.61-.93,1.27-1.39c.57-.38,1.24-.59,1.92-.59,.45,0,1.48,.14,1.48,.31s-1,.24-1.63,.47c-.36,.09-.7,.23-1.02,.42Z"></path><path class="cls-1" d="M169.84,63.44c.38-.09,.75-.21,1.11-.35,.65-.18,1.35-.4,1.38-.26-.55,.63-1.26,1.1-2.05,1.37-.95,.3-2.12,.39-2.24,.15s.47-.93,1-1.42c.49-.41,1.09-.66,1.72-.74,.42,0,1.39,0,1.41,.16s-.92,.32-1.48,.59c-.3,.13-.59,.3-.85,.5Z"></path><path class="cls-1" d="M168.31,61.68c.34-.13,.68-.27,1-.44,.59-.24,1.26-.52,1.29-.39-.49,.65-1.13,1.16-1.87,1.5-.89,.39-2,.59-2.12,.38s.4-.93,.91-1.45c.44-.43,.99-.73,1.59-.87,.4-.08,1.33-.15,1.35,0s-.86,.39-1.37,.7-.81,.52-.78,.57Z"></path><path class="cls-1" d="M166.76,60.32c.3-.17,.6-.36,.87-.57,.51-.3,1.07-.66,1.11-.56-.38,.65-.91,1.21-1.53,1.64-.75,.49-1.7,.85-1.83,.68s.28-.89,.68-1.44c.35-.44,.81-.78,1.33-1,.35-.14,1.15-.35,1.19-.22s-.72,.49-1.15,.86-.69,.57-.67,.61Z"></path><path class="cls-1" d="M165.27,58.87c.28-.16,.55-.34,.81-.54,.47-.3,1-.64,1-.54-.36,.62-.85,1.15-1.43,1.56-.7,.47-1.57,.81-1.68,.67s.27-.84,.65-1.35c.33-.43,.75-.77,1.24-1,.32-.13,1.05-.34,1.09-.22s-.67,.46-1.07,.81c-.22,.18-.43,.39-.61,.61Z"></path><path class="cls-1" d="M163.7,57.65c.28-.16,.55-.34,.81-.54,.47-.3,1-.64,1-.54-.36,.61-.85,1.14-1.43,1.55-.7,.48-1.57,.82-1.68,.68s.27-.84,.65-1.35c.33-.43,.75-.77,1.24-1,.32-.13,1.05-.35,1.09-.22s-.67,.46-1.07,.81c-.23,.18-.43,.38-.61,.61Z"></path><path class="cls-1" d="M162.22,56.67c.27-.18,.53-.37,.78-.58,.45-.32,.95-.69,1-.6-.33,.63-.78,1.19-1.34,1.64-.67,.5-1.52,.9-1.65,.76s.23-.85,.58-1.39c.31-.42,.71-.76,1.18-1,.3-.15,1-.41,1.07-.29s-.64,.51-1,.87-.64,.55-.62,.59Z"></path><path class="cls-1" d="M160.7,55.62s.31-.27,.74-.63,.91-.75,1-.65c-.29,.65-.71,1.23-1.23,1.71-.64,.55-1.46,1-1.6,.86s.17-.86,.49-1.41c.27-.46,.66-.85,1.12-1.12,.3-.18,1-.47,1-.36s-.6,.54-1,.93c-.2,.2-.37,.43-.52,.67Z"></path></g><g><path class="cls-1" d="M74.19,135.21c.37,0,.8-.08,.52-1s-.77-.66-1.22-.71c-5.59-.19-11.1-1.43-16.24-3.64-8.38-3.58-19.25-10.96-23.99-27.86-9.11-32.28,20.2-48.53,20.5-48.7,.12-.07,.17-.22,.11-.35-.07-.12-.22-.17-.35-.11-5.39,3.2-10.14,7.37-14,12.3-8.47,10.42-11.23,24.37-7.35,37.23,4.81,17.06,16,25.39,24.54,29,5.54,2.36,11.46,3.66,17.48,3.84Z"></path><path class="cls-1" d="M59.72,140c-.07-.18,1.32-.56,3.09-1.44s3.73-1.83,3.53-2.19-4.47-.25-7.1,1-5.38,3.39-5.22,4.19,2.81,1.24,5,1.24c1.86-.06,3.66-.69,5.15-1.8,1-.78,3.06-2.81,2.81-3.24s-2.62,1.13-4.36,1.62-2.85,.8-2.9,.62Z"></path><path class="cls-1" d="M49.16,135c.98-.33,1.98-.58,3-.77,1.71-.49,3.62-1,3.5-1.33s-4-.91-6.52-.28-5.33,2.1-5.29,2.8,2.34,1.5,4.29,1.83c1.67,.24,3.38-.01,4.9-.74,1-.51,3.16-1.94,3-2.36s-2.52,.58-4.15,.74-2.7,.27-2.73,.11Z"></path><path class="cls-1" d="M41.13,128.69c.95-.15,1.92-.23,2.88-.25,1.65-.2,3.49-.38,3.44-.72s-3.5-1.47-5.94-1.27-5.26,1.14-5.35,1.81c-.09,.67,1.91,1.78,3.64,2.39,1.5,.49,3.12,.52,4.64,.07,1-.32,3.24-1.34,3.16-1.75s-2.41,.15-3.94,.05-2.53-.17-2.53-.33Z"></path><path class="cls-1" d="M35.07,121.67c.91,0,1.81,.07,2.71,.21,1.57,.08,3.3,.21,3.29-.11s-3.08-1.87-5.38-2.08-5,.21-5.21,.8,1.55,1.91,3.09,2.74c1.33,.67,2.83,.95,4.31,.79,1-.13,3.19-.71,3.17-1.1s-2.27-.24-3.68-.57c-.8-.11-1.57-.33-2.3-.68Z"></path><path class="cls-1" d="M30.71,114.71c.82,.11,1.63,.27,2.43,.48,1.41,.23,3,.52,3,.23s-2.56-2-4.62-2.47-4.62-.31-4.85,.22,1.16,1.92,2.46,2.84c1.14,.77,2.49,1.18,3.87,1.16,.92,0,3-.33,3-.69s-2-.45-3.27-.9-2.06-.74-2.02-.87Z"></path><path class="cls-1" d="M27.91,107.77c.74,.16,1.47,.39,2.17,.67,1.27,.36,2.68,.76,2.75,.5s-2.07-2.15-3.91-2.73-4.21-.73-4.49-.25,.79,1.9,1.85,2.88c.94,.82,2.12,1.32,3.36,1.44,.84,.06,2.8,0,2.88-.37s-1.81-.61-2.89-1.15-1.77-.88-1.72-.99Z"></path><path class="cls-1" d="M26.35,101.1c.68,.24,1.35,.52,2,.84,1.14,.46,2.41,1,2.5,.74s-1.7-2.21-3.36-2.94-3.85-1.1-4.16-.69,.55,1.85,1.43,2.87c.8,.86,1.85,1.45,3,1.68,.79,.15,2.62,.25,2.72,0s-1.62-.75-2.57-1.36-1.62-1.04-1.56-1.14Z"></path><path class="cls-1" d="M25.82,95.08c.6,.29,1.19,.62,1.74,1,1,.51,2.14,1.11,2.27,.9s-1.34-2.2-2.8-3-3.48-1.34-3.82-1,.29,1.76,1,2.77c.64,.87,1.55,1.5,2.59,1.81,.73,.2,2.43,.45,2.56,.18s-1.43-.83-2.25-1.47-1.35-1.1-1.29-1.19Z"></path><path class="cls-1" d="M25.85,89.31c.08-.08,.59,.47,1.44,1.07s1.81,1.27,2,1.09-.8-2.14-2-3-3-1.64-3.42-1.36-.1,1.62,.36,2.61c.44,.89,1.17,1.6,2.08,2,.64,.27,2.21,.71,2.39,.48s-1.18-.92-1.82-1.6-1.12-1.22-1.03-1.29Z"></path><path class="cls-1" d="M26.63,84.54c.07-.07,.56,.47,1.39,1.06s1.73,1.26,1.89,1.08-.79-2.1-2-3-2.9-1.64-3.28-1.37-.08,1.57,.37,2.55c.43,.85,1.13,1.53,2,1.92,.62,.28,2.11,.73,2.29,.5s-1.14-.91-1.76-1.58-.98-1.08-.9-1.16Z"></path><path class="cls-1" d="M27.63,79.87c.08-.06,.49,.51,1.18,1.16s1.47,1.38,1.63,1.23c-.19-1.13-.72-2.18-1.53-3-1-1-2.51-1.86-2.88-1.66s-.21,1.4,.12,2.4c.32,.83,.9,1.54,1.66,2,.54,.32,1.87,.91,2.05,.73s-1-1-1.47-1.69-.84-1.11-.76-1.17Z"></path><path class="cls-1" d="M29,75.71c.07,0,.44,.48,1.08,1.11s1.37,1.32,1.52,1.18c-.19-1.08-.68-2.08-1.42-2.89-.94-1-2.29-1.79-2.62-1.6s-.17,1.39,.14,2.31c.29,.79,.83,1.47,1.53,1.94,.49,.32,1.69,.89,1.85,.73s-.88-.95-1.35-1.62-.73-1.1-.73-1.16Z"></path><path class="cls-1" d="M30.67,72c.08,0,.36,.5,.89,1.15,.53,.65,1.12,1.39,1.27,1.28-.05-1.03-.39-2.02-1-2.85-.75-1-1.94-1.93-2.28-1.79s-.33,1.27-.17,2.16c.18,.78,.6,1.48,1.21,2,.42,.35,1.5,1,1.67,.88s-.72-1-1.07-1.66-.59-1.17-.52-1.17Z"></path><path class="cls-1" d="M32.34,68.53c.07,0,.33,.5,.8,1.15s1,1.38,1.13,1.28c-.04-1-.35-1.97-.9-2.81-.68-1-1.74-1.93-2-1.81s-.28,1.23-.12,2.11c.15,.76,.52,1.46,1.08,2,.39,.35,1.35,1,1.5,.9s-.65-1-1-1.64-.55-1.14-.49-1.18Z"></path><path class="cls-1" d="M34.3,65.73c.06,0,.29,.51,.75,1.18s1,1.42,1.08,1.32c0-1-.28-1.98-.79-2.84-.65-1-1.67-2-2-1.88s-.34,1.22-.21,2.1c.13,.75,.48,1.45,1,2,.37,.36,1.31,1.09,1.46,1s-.6-1-.9-1.68-.46-1.16-.39-1.2Z"></path><path class="cls-1" d="M36.16,63.08c.25,.39,.48,.8,.69,1.22,.43,.69,.88,1.46,1,1.37,.04-1-.19-1.99-.66-2.88-.6-1-1.57-2.07-1.88-2s-.37,1.21-.31,2.12c.1,.74,.41,1.44,.91,2,.35,.38,1.25,1.16,1.41,1s-.55-1-.82-1.73-.41-1.06-.34-1.1Z"></path><path class="cls-1" d="M38.26,60.83c.23,.36,.43,.73,.6,1.12,.35,.64,.75,1.35,.87,1.27,.03-.92-.17-1.83-.57-2.65-.52-1-1.35-1.91-1.62-1.82s-.32,1.09-.25,1.92c.08,.69,.35,1.35,.79,1.89,.3,.36,1.07,1.06,1.21,1s-.48-1-.72-1.59-.37-1.1-.31-1.14Z"></path><path class="cls-1" d="M40.16,58.53c.19,.36,.36,.73,.51,1.11,.3,.64,.64,1.35,.75,1.28,.08-.89-.06-1.78-.42-2.59-.43-1-1.17-1.93-1.42-1.86s-.37,1-.35,1.83c.04,.67,.26,1.32,.64,1.87,.27,.36,1,1.09,1.09,1s-.4-.95-.58-1.57-.28-1.04-.22-1.07Z"></path><path class="cls-1" d="M42.21,56.94c.17,.33,.33,.66,.47,1,.28,.59,.59,1.26,.7,1.19,.06-.81-.07-1.63-.38-2.38-.4-.9-1.08-1.81-1.31-1.74s-.34,1-.32,1.71c.05,.63,.27,1.23,.63,1.75,.24,.34,.88,1,1,.93s-.38-.88-.54-1.47c-.13-.31-.22-.65-.25-.99Z"></path><path class="cls-1" d="M44.11,55.27c.17,.32,.31,.66,.44,1,.27,.6,.55,1.27,.67,1.21,.1-.82,0-1.66-.31-2.43-.37-.91-1-1.83-1.27-1.77s-.36,1-.36,1.7c.02,.63,.21,1.24,.55,1.77,.23,.34,.86,1,1,1s-.35-.89-.5-1.49c-.12-.32-.2-.65-.22-.99Z"></path><path class="cls-1" d="M46,53.78c.15,.35,.29,.71,.4,1.07,.24,.61,.5,1.3,.61,1.23,.13-.82,.06-1.65-.21-2.43-.34-.93-1-1.87-1.19-1.82s-.41,.94-.44,1.68c0,.63,.16,1.25,.49,1.79,.22,.36,.81,1.07,.93,1s-.31-.91-.44-1.51-.15-.99-.15-1.01Z"></path><path class="cls-1" d="M47.91,52.53c.13,.33,.23,.66,.31,1,.19,.59,.4,1.26,.5,1.2,.19-.76,.19-1.56,0-2.32-.26-.89-.79-1.83-1-1.79s-.43,.87-.5,1.57c-.04,.59,.08,1.18,.34,1.71,.18,.34,.69,1.06,.82,1s-.24-.87-.33-1.45c-.1-.3-.15-.61-.14-.92Z"></path><path class="cls-1" d="M49.77,51.55c.1,.33,.18,.66,.24,1,.15,.58,.31,1.23,.42,1.18,.2-.73,.22-1.5,.07-2.24-.2-.88-.65-1.79-.86-1.77s-.46,.82-.56,1.49c-.07,.57,0,1.14,.23,1.67,.16,.34,.6,1.06,.73,1s-.19-.86-.24-1.41c-.05-.3-.06-.61-.03-.92Z"></path><path class="cls-1" d="M51.55,50.56c.07,.33,.13,.66,.16,1,.11,.55,.21,1.17,.31,1.14,.24-.67,.31-1.39,.22-2.1-.13-.84-.49-1.73-.7-1.72s-.48,.73-.62,1.36c-.11,.51-.09,1.05,.08,1.55,.12,.34,.49,1,.62,1s-.12-.81-.13-1.34c-.02-.3,0-.6,.06-.89Z"></path><path class="cls-1" d="M56.55,51.59c0,.07-.43,.24-1,.6s-1.22,.76-1.14,.89c.81,.1,1.63-.06,2.35-.46,.87-.51,1.73-1.38,1.66-1.69s-1-.43-1.68-.41c-.63,.06-1.23,.33-1.69,.77-.32,.3-1,1.12-.88,1.29s.85-.48,1.42-.69,.94-.36,.96-.3Z"></path><path class="cls-1" d="M63.9,125.24c.15-.07,.63,1,1.56,2.4,.93,1.4,2,2.89,2.28,2.7s-.2-3.72-1.5-5.76-3.52-4.09-4.2-3.87-.84,2.44-.63,4.23c.24,1.54,.96,2.96,2.07,4.06,.78,.74,2.77,2.24,3.13,2s-1.25-2-1.85-3.42-1-2.28-.86-2.34Z"></path><path class="cls-1" d="M56.32,122.28c.31,.83,.56,1.67,.76,2.53,.48,1.46,1,3.08,1.31,3s.79-3.34,.16-5.49-2-4.54-2.7-4.52-1.37,2-1.65,3.59c-.2,1.43,.07,2.88,.76,4.15,.49,.87,1.87,2.71,2.25,2.58s-.58-2.14-.75-3.52-.29-2.3-.14-2.32Z"></path><path class="cls-1" d="M49.92,118.11c.12,.84,.17,1.7,.16,2.55,.13,1.47,.26,3.11,.56,3.07s1.42-3,1.3-5.2-.91-4.69-1.51-4.79-1.66,1.6-2.25,3.11c-.48,1.31-.54,2.73-.18,4.08,.27,.92,1.14,2.92,1.51,2.86s-.08-2.13,.05-3.48,.23-2.21,.36-2.2Z"></path><path class="cls-1" d="M45,113.28c-.07,.77-.18,1.54-.35,2.29-.17,1.32-.37,2.8-.09,2.82s1.81-2.46,2.12-4.39,.1-4.31-.4-4.51-1.75,1.14-2.56,2.37c-.67,1.08-.99,2.33-.93,3.6,.06,.86,.43,2.78,.76,2.79s.34-1.91,.72-3.08,.64-1.91,.73-1.89Z"></path><path class="cls-1" d="M41.42,108.17c-.17,.7-.39,1.39-.66,2.06-.35,1.2-.77,2.53-.52,2.58s2-2.08,2.59-3.82,.76-3.94,.34-4.16-1.75,.88-2.67,1.92c-.77,.92-1.25,2.05-1.39,3.25-.09,.79,0,2.58,.25,2.63s.6-1.71,1.12-2.75,.84-1.74,.94-1.71Z"></path><path class="cls-1" d="M39.06,103.33c-.29,.63-.63,1.25-1,1.84-.54,1.07-1.17,2.26-.94,2.35,1.29-.76,2.36-1.84,3.11-3.14,.87-1.58,1.41-3.61,1-3.9s-1.81,.51-2.86,1.34c-.89,.72-1.54,1.69-1.88,2.78-.22,.73-.48,2.45-.21,2.55s.86-1.52,1.53-2.41,1.19-1.47,1.25-1.41Z"></path><path class="cls-1" d="M37.44,98.34c-.39,.54-.81,1.05-1.26,1.54-.7,.91-1.49,1.91-1.29,2,1.34-.49,2.54-1.32,3.47-2.41,1.09-1.33,2-3.11,1.66-3.45s-1.79,.18-2.92,.78c-.95,.53-1.73,1.32-2.25,2.28-.33,.65-.89,2.19-.65,2.34s1.08-1.28,1.86-2,1.3-1.15,1.38-1.08Z"></path><path class="cls-1" d="M36.52,93.73c.07,.07-.56,.53-1.29,1.29s-1.55,1.62-1.38,1.76c1.28-.28,2.45-.89,3.41-1.78,1.13-1.12,2.09-2.69,1.85-3s-1.65-.08-2.74,.33c-.93,.38-1.72,1.03-2.28,1.86-.37,.58-1,2-.82,2.13s1.12-1.06,1.9-1.63,1.29-1.04,1.35-.96Z"></path><path class="cls-1" d="M36.4,89.07c.05,.08-.6,.4-1.38,1s-1.65,1.26-1.53,1.42c1.22-.04,2.39-.44,3.39-1.13,1.2-.86,2.32-2.19,2.16-2.57s-1.5-.37-2.55-.17c-.91,.2-1.74,.68-2.36,1.38-.42,.49-1.24,1.69-1.07,1.88s1.17-.81,2-1.22,1.29-.66,1.34-.59Z"></path><path class="cls-1" d="M36.45,85.29c-.47,.26-.95,.5-1.45,.71-.82,.44-1.73,.89-1.63,1.05,1.14,.12,2.28-.06,3.32-.54,1.24-.6,2.48-1.63,2.39-2s-1.32-.51-2.34-.51c-.87,.05-1.71,.35-2.4,.88-.47,.37-1.4,1.33-1.27,1.52s1.21-.55,2-.8,1.35-.39,1.38-.31Z"></path><path class="cls-1" d="M37.09,81.52c-.48,.17-.96,.32-1.45,.45-.83,.28-1.76,.58-1.69,.74,1.06,.28,2.18,.28,3.24,0,1.26-.38,2.57-1.15,2.53-1.49s-1.2-.67-2.18-.77c-.83-.08-1.67,.09-2.4,.49-.49,.27-1.51,1-1.41,1.22s1.23-.35,2-.47,1.34-.25,1.36-.17Z"></path><path class="cls-1" d="M37.93,78.09c-.47,.13-.95,.22-1.44,.27-.83,.18-1.75,.37-1.7,.52,1.01,.35,2.09,.44,3.14,.27,1.25-.23,2.59-.82,2.58-1.15s-1.11-.73-2-.92c-.8-.15-1.62-.07-2.38,.23-.5,.2-1.54,.8-1.47,1s1.22-.21,2-.24,1.26-.07,1.27,.02Z"></path><path class="cls-1" d="M39,74.93c-.44,.11-.89,.19-1.35,.23-.77,.15-1.62,.32-1.58,.46,.94,.32,1.95,.41,2.93,.26,1.16-.19,2.4-.71,2.39-1s-1.05-.66-1.91-.84c-.74-.14-1.5-.08-2.2,.18-.46,.18-1.43,.71-1.35,.87s1.13-.17,1.86-.2c.4-.05,.81-.03,1.21,.04Z"></path><path class="cls-1" d="M40.24,72.13c-.45,.03-.91,.03-1.36,0-.78,0-1.66,.08-1.63,.23,.88,.44,1.86,.68,2.85,.68,1.18,0,2.49-.36,2.51-.64s-.94-.8-1.78-1.11c-.71-.24-1.47-.29-2.21-.14-.48,.11-1.52,.49-1.47,.67s1.15,0,1.88,.07c.41,.01,.82,.09,1.21,.24Z"></path><path class="cls-1" d="M41.66,69.59c-.44,.02-.88,.02-1.32,0-.76,0-1.61,0-1.59,.15,.81,.5,1.74,.79,2.69,.84,1.15,0,2.43-.23,2.49-.52s-.82-.86-1.6-1.21c-.67-.29-1.4-.38-2.12-.26-.47,.09-1.52,.42-1.49,.61s1.11,0,1.81,.17,1.13,.15,1.13,.22Z"></path><path class="cls-1" d="M43.05,67.29c-.42-.02-.83-.07-1.24-.14-.71-.05-1.51-.13-1.5,0,.72,.53,1.56,.88,2.44,1,1.07,.12,2.3,0,2.39-.3s-.7-.88-1.4-1.27c-.61-.33-1.31-.47-2-.41-.46,0-1.46,.28-1.45,.46s1,.13,1.68,.3c.38,.06,.74,.18,1.08,.36Z"></path><path class="cls-1" d="M44.6,65.24c-.41-.05-.82-.13-1.22-.24-.7-.12-1.48-.27-1.5-.13,.66,.6,1.47,1.03,2.34,1.24,1.06,.22,2.3,.18,2.4-.08s-.61-.93-1.27-1.39c-.56-.4-1.23-.62-1.92-.64-.45,0-1.48,.14-1.48,.31s1,.24,1.63,.47c.36,.1,.71,.25,1.02,.46Z"></path><path class="cls-1" d="M46.16,63.44c-.38-.09-.75-.21-1.11-.35-.64-.18-1.35-.4-1.38-.26,.54,.62,1.23,1.09,2,1.37,1,.3,2.12,.39,2.24,.15s-.47-.93-1-1.42c-.49-.41-1.09-.66-1.72-.74-.42,0-1.39,0-1.41,.16s.92,.32,1.48,.59c.32,.13,.62,.29,.9,.5Z"></path><path class="cls-1" d="M47.7,61.68c-.34-.13-.68-.27-1-.44-.6-.24-1.26-.52-1.29-.39,.48,.65,1.13,1.17,1.87,1.5,.89,.39,2,.59,2.11,.38s-.39-.93-.9-1.45c-.44-.43-1-.73-1.6-.87-.39-.08-1.32-.15-1.34,0s.85,.39,1.37,.7,.8,.52,.78,.57Z"></path><path class="cls-1" d="M49.25,60.32c-.3-.17-.6-.36-.87-.57-.51-.3-1.08-.66-1.11-.56,.38,.65,.9,1.21,1.53,1.64,.75,.49,1.69,.85,1.83,.68s-.28-.89-.68-1.44c-.35-.44-.81-.78-1.33-1-.35-.14-1.15-.35-1.19-.22s.72,.49,1.15,.86c.24,.18,.47,.38,.67,.61Z"></path><path class="cls-1" d="M50.73,58.87c-.28-.16-.55-.34-.81-.54-.47-.3-1-.64-1-.54,.36,.62,.85,1.15,1.43,1.56,.7,.47,1.57,.81,1.68,.67s-.27-.84-.65-1.35c-.33-.43-.75-.77-1.24-1-.32-.13-1-.34-1.09-.22s.68,.46,1.07,.81c.23,.18,.43,.38,.61,.61Z"></path><path class="cls-1" d="M52.31,57.65c-.28-.16-.55-.34-.81-.54-.47-.3-1-.64-1-.54,.35,.62,.84,1.15,1.43,1.55,.69,.48,1.57,.82,1.67,.68s-.26-.84-.64-1.35c-.33-.42-.76-.77-1.24-1-.32-.13-1.06-.35-1.09-.22s.67,.46,1.06,.81c.23,.18,.43,.39,.62,.61Z"></path><path class="cls-1" d="M53.78,56.67s-.32-.26-.77-.58-.95-.69-1-.6c.32,.64,.78,1.2,1.34,1.64,.66,.5,1.52,.9,1.65,.76s-.23-.85-.58-1.39c-.31-.42-.71-.76-1.18-1-.31-.15-1-.41-1.07-.29s.64,.51,1,.87,.64,.55,.61,.59Z"></path><path class="cls-1" d="M55.3,55.62s-.31-.27-.74-.63-.91-.75-1-.65c.29,.65,.71,1.23,1.23,1.71,.64,.55,1.46,1,1.6,.86s-.17-.86-.49-1.41c-.27-.46-.66-.85-1.12-1.12-.3-.18-1-.47-1-.36s.6,.54,1,.93c.2,.2,.38,.42,.52,.67Z"></path></g><path class="cls-1" d="M104.17,134c.08,.7,.22,1.39,.43,2.06,.32,1.06,.55,2.14,.69,3.24,.09,.63,.27,1.24,.55,1.81l.54,1.25c.09,.19,.19,.38,.3,.56,.15,.29,.63,0,.63,0v-.68c-.21-.34-.31-.73-.31-1.13,0-1,.6-1.81,1.34-1.81s1.35,.82,1.35,1.81c0,.4-.11,.79-.31,1.13v.68s.49,.26,.63,0c.11-.18,.21-.37,.3-.56l.54-1.25c.28-.57,.46-1.18,.55-1.81,.14-1.1,.37-2.18,.69-3.24,.2-.67,.35-1.36,.43-2.06,.09-.5,.37-.94,.78-1.24h-9.9c.4,.3,.68,.74,.77,1.24Z"></path><path class="cls-1" d="M121.37,149.55l5.5-7.42-18.62-24.79-18.45,24.79,5.46,7.37c-2.73,2.21-5.02,4.93-6.72,8l8.61,5.5c.99-2.03,2.42-3.82,4.2-5.22l7,9.43,6.91-9.33c1.75,1.38,3.17,3.13,4.16,5.13l8.72-5.46c-1.7-3.09-4.01-5.81-6.77-8Zm-30.84-7.42l17.73-23.81,17.89,23.81-5.24,7.07c-.27-.2-.53-.44-.82-.63l4.78-6.44-16.6-22.13-16.45,22.13,4.73,6.38c-.29,.19-.54,.42-.82,.63l-5.2-7.01Zm23.61-8.6c-.45,1.11-.71,2.28-.77,3.47,0,1.95-.33,3.88-1,5.71-.36,.91-.74,1.9-1.07,2.76-1.02-.13-2.05-.2-3.08-.2-.93,0-1.86,.07-2.79,.18-.33-.85-.71-1.84-1.07-2.74-.66-1.83-.99-3.76-1-5.71-.05-1.19-.31-2.37-.77-3.47-.12-.3-.9-1.16-.56-1.46,.17-.15,.41,0,.66,.11l5.71-8.34,5.7,8.34c.25-.16,.49-.26,.66-.11,.24,.3-.49,1.16-.62,1.46Zm-5.8,32.64l-6.51-8.78c.28-.19,.55-.41,.86-.58l4.23,5.72-.52-6.94c.59-.09,1.19-.13,1.79-.13,.69,0,1.39,.06,2.07,.17l-.51,6.89,4.16-5.61c.3,.17,.57,.39,.86,.58l-6.43,8.68Zm11.34-5c-2.24-4.2-6.6-6.85-11.36-6.89h0c-4.8,.08-9.17,2.76-11.42,7l-.2,.39-6.77-4.42,.18-.31c5.71-10.09,18.53-13.64,28.62-7.93,3.31,1.88,6.05,4.62,7.93,7.93l.19,.32-6.92,4.31-.25-.4Z"></path><path class="cls-1" d="M108.34,147c-7.2-.11-13.88,3.73-17.42,10l5.44,3.54c2.46-4.26,6.98-6.92,11.9-7h0c4.9,.05,9.41,2.69,11.86,6.94l5.57-3.47c-3.52-6.26-10.17-10.1-17.35-10.01Zm-11.67,10.77l-.07-.06,.07-.09c.08-.08,.12-.2,.09-.31,0-.06-.09-.15-.24-.26l-1.92-1.61-.25,.3c-.08,.08-.14,.18-.19,.28-.03,.09-.03,.18,0,.27,.04,.12,.11,.23,.21,.31l-.06,.06-.56-.52,1.71-2.06,.62,.46-.06,.07c-.08-.06-.17-.1-.27-.13-.09-.03-.2-.03-.29,0-.1,.05-.19,.12-.26,.21l-.3,.36,1.93,1.6c.09,.1,.2,.16,.33,.19,.11,0,.2-.06,.26-.15l.08-.08,.06,.06-.89,1.1Zm2.9-2.84l-.06-.08,.1-.06c.09-.07,.14-.17,.15-.28-.03-.12-.08-.24-.17-.33l-.61-.79-1.21,.92,.61,.79c.06,.09,.13,.17,.22,.24,.04,.02,.1,.02,.14,0,.08-.01,.15-.04,.21-.08l.09-.08,.06,.07-1.11,.85-.06-.06,.07-.04c.1-.06,.16-.16,.17-.27-.03-.13-.1-.25-.19-.34l-1.28-1.67c-.06-.1-.14-.18-.23-.25-.05-.02-.09-.02-.14,0-.08,.01-.16,.04-.22,.09l-.09,.07-.06-.07,1.12-.85,.06,.07-.1,.07c-.05,.05-.1,.11-.14,.17-.02,.05-.02,.11,0,.16,.05,.1,.11,.19,.18,.27l.57,.75,1.21-.92-.57-.75c-.06-.09-.14-.17-.22-.24-.05-.02-.09-.02-.14,0-.08,.01-.15,.04-.21,.09l-.09,.06-.06-.06,1.11-.86,.06,.07-.09,.06c-.06,.05-.11,.12-.14,.19-.02,.05-.02,.1,0,.15,.05,.1,.11,.2,.18,.28l1.28,1.69c.07,.09,.14,.17,.23,.24,.05,.01,.09,.01,.14,0,.08,0,.15-.04,.21-.09l.1-.07v.07l-1.08,.82Zm1.19-.83v-.09h.11c.07-.03,.12-.08,.17-.14,.02-.05,.02-.1,0-.15-.02-.1-.06-.2-.1-.3l-.92-1.92c-.05-.13-.12-.24-.22-.33-.1-.04-.21-.04-.31,0l-.11,.05v-.08l2.28-1.09,.35,.63-.09,.05c-.07-.11-.16-.2-.26-.28-.07-.04-.15-.06-.23-.06-.11,.02-.22,.06-.32,.12l-.82,.39,.56,1.17,.65-.31c.16-.08,.27-.15,.3-.24,.05-.13,.05-.28,0-.41h.08l.49,1h-.08c-.05-.09-.12-.18-.2-.25-.05-.04-.11-.06-.18-.06-.1,.01-.2,.04-.3,.08l-.64,.31,.46,1c.04,.08,.08,.16,.13,.24h.09c.06,0,.12-.03,.18-.06l.51-.24c.12-.05,.24-.12,.34-.21,.07-.06,.12-.15,.15-.24,.06-.17,.09-.36,.09-.54h.08l.1,.86-2.34,1.1Zm5.74-2.16c-.17,.22-.41,.36-.68,.41-.09,0-.18,0-.27,0h-.32c-.1,0-.21,0-.31,0-.03-.01-.05-.01-.08,0-.01,.05-.01,.1,0,.15h-.09l-.2-1.1h.09c.06,.18,.15,.34,.26,.49,.1,.11,.24,.18,.38,.22,.16,.04,.33,.04,.49,0,.17-.02,.33-.11,.44-.24,.09-.12,.13-.27,.1-.41-.02-.08-.06-.16-.11-.22-.06-.08-.15-.15-.24-.19-.19-.08-.38-.15-.57-.21-.22-.07-.44-.16-.65-.26-.13-.06-.24-.15-.33-.26-.08-.1-.14-.22-.16-.35-.04-.23,.02-.46,.16-.64,.15-.18,.36-.29,.59-.33,.19-.04,.38-.04,.57,0,.07,.01,.13,.01,.2,0,.04,0,.07-.03,.09-.06,.01-.05,.01-.1,0-.15h.09l.21,1.11h-.09c-.05-.18-.13-.34-.25-.48-.1-.11-.23-.2-.37-.24-.15-.03-.3-.03-.45,0-.15,.03-.29,.11-.38,.23-.09,.1-.12,.24-.1,.37,.01,.1,.07,.19,.15,.25,.24,.16,.51,.27,.79,.34,.24,.07,.47,.16,.69,.26,.12,.06,.23,.15,.31,.26,.08,.1,.13,.22,.16,.35,.07,.24,.03,.5-.12,.7Zm3.27-2.41c0-.1-.04-.2-.08-.29-.04-.09-.11-.16-.2-.21-.1-.05-.21-.07-.32-.07h-.47v2.51c-.01,.13,.01,.26,.07,.38,.08,.07,.18,.1,.28,.09h.12v.1h-1.39v-.09h.12c.12,0,.23-.04,.3-.13,.05-.11,.07-.23,.06-.35v-2.47h-.39c-.11-.02-.21-.02-.32,0-.09,.04-.16,.09-.22,.17-.06,.11-.1,.23-.1,.35h-.1v-.77h2.67v.77h-.03Zm3.18,.53h-.09c.03-.12,.03-.25,0-.37-.03-.08-.08-.14-.15-.18-.1-.05-.21-.09-.32-.11l-.88-.18-.27,1.27,.71,.14c.12,.04,.26,.04,.38,0,.12-.09,.2-.22,.22-.36h.08l-.22,1.12h-.09v-.38c-.02-.07-.06-.12-.12-.16-.09-.05-.19-.09-.29-.11l-.71-.14-.21,1.06c-.01,.09-.01,.17,0,.26,0,.03,0,.06,0,.09,.06,.03,.12,.05,.18,.06l.55,.11c.13,.02,.27,.02,.4,0,.1-.01,.19-.05,.27-.1,.15-.1,.28-.23,.39-.38h.09l-.44,.74-2.48-.5v-.09h.12c.07,.02,.15,.02,.22,0,.05-.02,.1-.05,.13-.09,.04-.1,.07-.21,.09-.31l.42-2.08c.03-.13,.03-.26,0-.39-.06-.09-.16-.15-.27-.15h-.11v-.08l2.48,.51-.08,.8Zm1,3.19v-3.08c0-.1,0-.2,0-.3-.02-.06-.05-.12-.09-.17-.06-.06-.13-.11-.2-.14v-.08l1.23,.51v.09c-.1-.02-.2-.02-.3,0-.05,0-.1,.05-.11,.1-.03,.13-.03,.26,0,.39v2.1l1.44-1.46c.1-.09,.19-.19,.26-.31,.02-.05,.02-.1,0-.15-.04-.08-.1-.14-.18-.18h0v-.08l.93,.39v.08c-.09-.03-.19-.03-.28,0-.13,.05-.25,.14-.35,.25l-2.14,2.13-.21-.09Zm2.65,1.31l-1.2-.72v-.07l.1,.05c.09,.07,.21,.09,.31,.05,.06,0,.14-.12,.24-.29l1.1-1.81c.06-.09,.11-.19,.14-.3,.02-.04,.02-.1,0-.14-.04-.07-.09-.12-.16-.16l-.1-.06,.05-.08,1.21,.73v.07l-.1-.06c-.1-.04-.2-.04-.3,0-.07,0-.14,.12-.25,.29l-1.1,1.81c-.06,.09-.11,.19-.14,.3-.02,.04-.02,.1,0,.14,.04,.07,.09,.13,.16,.17l.1,.06-.06,.02Zm.29,.12l.06-.07,.09,.08c.06,.05,.13,.08,.21,.1,.05,.02,.11,.02,.16,0,.09-.06,.16-.13,.22-.22l1.39-1.62c.1-.09,.17-.2,.21-.33-.02-.1-.07-.2-.16-.26l-.09-.08,.06-.06,1.91,1.65-.44,.56-.06-.06c.06-.11,.11-.22,.14-.34,.02-.08,.02-.16,0-.24-.07-.09-.15-.17-.23-.25l-.69-.59-.84,1,.55,.47c.09,.1,.21,.16,.34,.18,.14-.02,.27-.09,.35-.21l.07,.06-.75,.87-.06-.06c.06-.09,.11-.18,.14-.28,.02-.06,.02-.14,0-.2-.05-.09-.12-.17-.2-.23l-.55-.47-.7,.82c-.07,.06-.12,.14-.16,.22-.01,.03-.01,.07,0,.1,.03,.06,.07,.1,.12,.14l.43,.36c.1,.1,.21,.18,.33,.24,.09,.02,.19,.02,.28,0,.18-.02,.36-.07,.53-.14l.08,.06-.75,.44-1.99-1.64Zm5.78,1.28c.02,.07,.04,.13,.07,.19,.03,.03,.06,.05,.09,.06,.05,.02,.11,.02,.16,0l.06,.07-.9,.69-.06-.07c.14-.12,.25-.27,.32-.44,.06-.14,.07-.29,.05-.44-.02-.15-.09-.29-.18-.41-.09-.12-.22-.21-.37-.24-.13-.03-.27,0-.37,.08-.08,.06-.14,.15-.15,.25-.05,.28-.05,.58,0,.86,.04,.24,.07,.49,.08,.73,0,.14-.03,.28-.09,.4-.06,.12-.14,.22-.24,.3-.2,.15-.45,.21-.69,.16-.27-.04-.51-.19-.67-.42l-.15-.23c-.04-.1-.08-.2-.11-.3-.03-.1-.07-.19-.13-.28-.02-.03-.05-.05-.08-.06l-.15,.05-.06-.06,.9-.69,.06,.07c-.13,.13-.24,.29-.32,.46-.04,.14-.04,.29,0,.43,.02,.17,.09,.32,.2,.45,.09,.14,.24,.25,.41,.28,.14,.03,.29,0,.41-.09,.07-.05,.12-.12,.16-.2,.04-.1,.06-.2,.06-.31,0-.07,0-.27-.07-.6-.04-.23-.06-.47-.07-.7,0-.14,.03-.27,.09-.4,.05-.12,.13-.22,.24-.3,.18-.14,.42-.2,.65-.16,.25,.05,.47,.19,.62,.39,.12,.16,.21,.34,.28,.53l-.05-.05Z"></path></svg> 