<?xml version="1.0" encoding="UTF-8"?> <svg xmlns="http://www.w3.org/2000/svg" id="stevie-winner-2018" width="216" height="216" viewBox="0 0 216 216"><defs><style>.cls-1{fill:#292663;}</style></defs><g><path class="cls-1" d="M85.75,83.76h5.84v7.64c-.39,.12-.78,.24-1.18,.34-.4,.11-.82,.2-1.23,.27-.43,.07-.87,.12-1.34,.16s-1,.06-1.49,.06c-1,.02-1.99-.15-2.93-.49-.82-.3-1.55-.8-2.14-1.45-.6-.69-1.03-1.5-1.28-2.38-.32-1.06-.47-2.16-.45-3.27-.02-1.06,.15-2.12,.5-3.13,.31-.9,.82-1.71,1.49-2.39,.69-.68,1.51-1.19,2.42-1.51,1.06-.37,2.17-.55,3.29-.53,.78,0,1.55,.09,2.31,.25,.71,.16,1.4,.38,2.06,.66l-1,2.5c-.52-.25-1.06-.44-1.62-.58-.59-.15-1.2-.23-1.81-.23-.64-.01-1.27,.11-1.85,.36-.54,.23-1.02,.57-1.41,1-.42,.46-.74,1.01-.93,1.6-.22,.66-.33,1.36-.32,2.06,0,.67,.07,1.34,.22,2,.12,.56,.35,1.09,.68,1.56,.31,.43,.72,.77,1.19,1,.55,.25,1.15,.38,1.75,.36,.38,0,.75-.02,1.13-.06,.3,0,.59-.08,.86-.14v-3.06h-2.76v-2.6Z"></path><path class="cls-1" d="M108.7,84.64c0,1.05-.13,2.1-.4,3.11-.24,.87-.65,1.69-1.22,2.4-.56,.67-1.27,1.2-2.08,1.54-1.89,.72-3.99,.72-5.88,0-.78-.35-1.47-.88-2-1.54-.57-.71-.98-1.53-1.21-2.41-.53-2.04-.53-4.19,0-6.23,.23-.87,.65-1.68,1.21-2.38,.56-.67,1.26-1.19,2.06-1.53,1.9-.72,3.99-.72,5.89,0,.78,.35,1.46,.87,2,1.53,.56,.71,.97,1.52,1.21,2.39,.28,1.02,.42,2.07,.42,3.12Zm-10,0c-.01,.7,.06,1.4,.2,2.09,.11,.55,.32,1.08,.62,1.56,.25,.41,.59,.75,1,1,.47,.24,.99,.36,1.51,.34,.53,.02,1.06-.1,1.54-.34,.41-.24,.76-.59,1-1,.29-.48,.49-1.01,.6-1.56,.27-1.38,.27-2.79,0-4.17-.11-.55-.31-1.09-.6-1.57-.24-.42-.58-.76-1-1-.95-.45-2.05-.45-3,0-.44,.23-.8,.58-1.06,1-.3,.48-.51,1.01-.62,1.57-.14,.68-.2,1.38-.19,2.08Z"></path><path class="cls-1" d="M112.77,92v-14.71h3.13v12.16h5.36v2.55h-8.49Z"></path><path class="cls-1" d="M136.26,84.52c.02,1.11-.15,2.22-.51,3.27-.6,1.8-2.02,3.2-3.83,3.77-1.03,.33-2.1,.49-3.18,.47h-3.89v-14.74h4.32c1-.01,1.99,.15,2.93,.47,.84,.29,1.6,.75,2.23,1.37,.64,.64,1.13,1.42,1.43,2.27,.35,1,.52,2.06,.5,3.12Zm-3.17,.08c.01-.71-.07-1.43-.25-2.12-.13-.54-.38-1.04-.71-1.48-.3-.38-.7-.68-1.15-.86-.5-.2-1.03-.3-1.56-.29h-1.42v9.6h1.15c1.14,.09,2.25-.35,3-1.21,.72-1.07,1.05-2.35,.94-3.64Z"></path><path class="cls-1" d="M61.76,105.81c.02,.51-.21,1-.61,1.31-.47,.35-1.04,.52-1.62,.49-.63,.03-1.27-.06-1.87-.27v-.46c.58,.22,1.21,.32,1.83,.3,.46,.03,.92-.1,1.3-.37,.49-.39,.62-1.07,.32-1.61-.14-.19-.32-.34-.52-.45-.34-.18-.69-.32-1.05-.44-.52-.14-1-.4-1.41-.75-.26-.3-.4-.69-.38-1.09-.01-.47,.2-.92,.58-1.21,.43-.32,.96-.49,1.5-.47,.6,0,1.2,.12,1.76,.35l-.17,.4c-.5-.22-1.04-.33-1.58-.34-.42-.02-.83,.1-1.17,.34-.29,.22-.45,.56-.44,.92,0,.21,.04,.42,.14,.61,.1,.18,.25,.32,.43,.42,.33,.19,.69,.34,1.05,.45,.4,.13,.79,.3,1.16,.52,.23,.14,.43,.34,.57,.57,.13,.24,.19,.51,.18,.78Z"></path><path class="cls-1" d="M65.47,107.52h-.47v-6.2h-2.16v-.43h4.78v.43h-2.15v6.2Z"></path><path class="cls-1" d="M72.81,107.52h-3.63v-6.63h3.63v.42h-3.16v2.51h3v.43h-3v2.84h3.16v.43Z"></path><path class="cls-1" d="M78.8,100.89h.51l-2.48,6.63h-.41l-2.42-6.63h.49l1.67,4.51c.25,.67,.42,1.18,.51,1.53,.06-.22,.18-.58,.36-1.05l1.77-4.99Z"></path><path class="cls-1" d="M80.82,107.52v-6.63h.47v6.63h-.47Z"></path><path class="cls-1" d="M87.36,107.52h-3.62v-6.63h3.62v.42h-3.16v2.51h3v.43h-3v2.84h3.16v.43Z"></path><path class="cls-1" d="M88.78,102.65c0-.35,.1-.7,.28-1,.18-.32,.44-.58,.76-.76,.3-.18,.65-.28,1-.28,.35,0,.7,.1,1,.28,.32,.18,.58,.44,.76,.76,.18,.3,.28,.65,.28,1,0,.35-.1,.7-.27,1-.18,.32-.44,.58-.75,.77-.32,.19-.69,.29-1.07,.29-.75,0-1.44-.41-1.81-1.06-.14-.31-.2-.66-.18-1Zm.26,0c0,.65,.34,1.26,.91,1.58,.88,.5,2,.2,2.5-.68,.16-.27,.24-.59,.24-.9,0-.32-.08-.63-.24-.9-.15-.28-.38-.51-.66-.67-.57-.34-1.27-.34-1.84,0-.28,.16-.51,.39-.67,.67-.17,.27-.27,.58-.28,.9h.04Zm2.57-.52c0,.14-.04,.27-.11,.39-.07,.11-.18,.2-.3,.26l.65,1.09h-.33l-.59-1h-.46v1h-.28v-2.44h.58c.22-.01,.44,.05,.62,.18,.15,.13,.24,.32,.22,.52Zm-1.14,.52h.31c.14,.01,.28-.04,.39-.13,.1-.09,.16-.23,.15-.37,0-.32-.18-.48-.55-.48h-.3v.98Z"></path><path class="cls-1" d="M101.68,107.52h-.38l-1.46-5.12c-.12-.42-.21-.76-.27-1-.05,.26-.12,.56-.21,.9-.09,.35-.57,2.09-1.46,5.25h-.39l-1.82-6.63h.48l1.16,4.27c0,.17,.09,.33,.13,.48s.07,.28,.11,.41,.06,.25,.08,.37,0,.24,.07,.36c.08-.41,.23-1,.47-1.87l1.13-4h.51l1.33,4.61c.16,.54,.27,.97,.33,1.29,.04-.22,.09-.45,.15-.69,.07-.25,.53-2,1.4-5.21h.47l-1.83,6.58Z"></path><path class="cls-1" d="M105.26,107.52v-6.63h.46v6.63h-.46Z"></path><path class="cls-1" d="M113,107.52h-.47l-3.93-5.89h0c.04,.7,.06,1.23,.06,1.59v4.3h-.45v-6.63h.47l3.92,5.88h0v-5.88h.4v6.63Z"></path><path class="cls-1" d="M120.27,107.52h-.46l-3.93-5.89h0c.04,.7,.06,1.23,.06,1.59v4.3h-.45v-6.63h.46l3.93,5.88h0c0-.55-.05-1.07-.05-1.56v-4.32h.45v6.63Z"></path><path class="cls-1" d="M126.35,107.52h-3.62v-6.63h3.62v.42h-3.16v2.51h3v.43h-3v2.84h3.16v.43Z"></path><path class="cls-1" d="M128.89,104.63v2.89h-.46v-6.63h1.57c.64-.05,1.28,.11,1.82,.45,.41,.33,.63,.84,.59,1.37,.02,.41-.11,.8-.35,1.13-.28,.33-.65,.56-1.07,.66l1.8,3h-.55l-1.71-2.89-1.64,.02Zm0-.4h1.27c.46,.03,.92-.11,1.3-.38,.61-.61,.61-1.59,0-2.2-.44-.27-.96-.39-1.48-.35h-1.1v2.93Z"></path><path class="cls-1" d="M140.31,107.52h-4.15v-.4l1.77-1.84c.35-.38,.69-.77,1-1.18,.18-.24,.33-.5,.44-.78,.09-.25,.14-.51,.14-.78,.02-.37-.12-.74-.39-1-.27-.25-.63-.38-1-.37-.58,.01-1.14,.22-1.59,.6l-.24-.31c.51-.45,1.16-.7,1.84-.7,.5-.03,.98,.13,1.36,.46,.34,.34,.52,.8,.5,1.28,0,.45-.12,.88-.34,1.27-.33,.56-.74,1.07-1.21,1.52l-1.7,1.74h3.54l.03,.49Z"></path><path class="cls-1" d="M146.32,104.18c.06,.9-.12,1.79-.54,2.59-.59,.88-1.78,1.12-2.66,.53-.21-.14-.39-.32-.53-.53-.41-.79-.6-1.68-.54-2.57-.06-.89,.12-1.77,.53-2.56,.33-.55,.95-.87,1.59-.84,.65-.03,1.27,.31,1.6,.87,.41,.77,.6,1.64,.55,2.51Zm-3.78,0c-.05,.78,.09,1.56,.41,2.28,.35,.68,1.19,.95,1.87,.6,.26-.13,.46-.34,.6-.6,.3-.71,.43-1.49,.39-2.26,.04-.76-.09-1.53-.39-2.23-.22-.48-.72-.78-1.25-.76-.53-.03-1.02,.27-1.24,.76-.3,.7-.43,1.45-.39,2.21h0Z"></path><path class="cls-1" d="M150.5,107.52h-.44v-4.83c0-.44,0-.9,.05-1.37-.04,.05-.09,.09-.14,.13l-1.4,1.1-.26-.32,1.8-1.34h.39v6.63Z"></path><path class="cls-1" d="M155.93,100.77c.49-.02,.97,.13,1.36,.43,.34,.29,.53,.72,.51,1.17,0,.33-.11,.65-.32,.9-.28,.31-.62,.56-1,.72,.46,.16,.88,.43,1.22,.78,.23,.28,.36,.63,.36,1,.02,.5-.19,.99-.58,1.31-.44,.35-.98,.52-1.54,.49-.55,.04-1.1-.12-1.54-.46-.37-.34-.56-.83-.53-1.33,0-.37,.14-.72,.38-1,.32-.34,.72-.6,1.16-.76-.38-.17-.72-.42-1-.73-.2-.26-.31-.59-.3-.92,0-.3,.08-.59,.24-.84,.16-.23,.39-.42,.65-.53,.29-.14,.61-.22,.93-.23Zm-1.63,5.12c-.03,.38,.13,.76,.43,1,.34,.25,.76,.37,1.18,.34,.43,.02,.85-.11,1.2-.36,.3-.24,.47-.61,.45-1,.02-.34-.11-.67-.35-.91-.41-.33-.88-.58-1.38-.74-.44,.14-.85,.39-1.18,.72-.23,.26-.36,.6-.35,.95h0Zm1.62-4.71c-.36,0-.71,.1-1,.32-.25,.21-.39,.53-.38,.86,0,.2,.04,.39,.14,.56,.1,.17,.24,.32,.41,.44,.29,.18,.59,.34,.91,.46,.39-.13,.76-.35,1.06-.63,.21-.23,.32-.52,.32-.83,.01-.33-.13-.65-.38-.86-.31-.23-.69-.35-1.08-.32h0Z"></path></g><g><path class="cls-1" d="M141.81,135.21c-.37,0-.8-.08-.52-1s.77-.67,1.22-.71c5.6-.2,11.11-1.44,16.25-3.65,8.38-3.57,19.23-10.94,24-27.8,9.11-32.27-20.2-48.53-20.5-48.7-.12-.06-.17-.21-.11-.34h0c.07-.13,.22-.18,.35-.11,5.39,3.2,10.14,7.37,14,12.3,5.87,7.5,12.17,20.16,7.35,37.23s-16.05,25.4-24.55,29c-5.54,2.34-11.48,3.62-17.49,3.78Z"></path><path class="cls-1" d="M156.29,140c.06-.17-1.33-.55-3.09-1.43s-3.73-1.83-3.54-2.19,4.47-.26,7.1,.94,5.39,3.39,5.21,4.19-2.81,1.24-5,1.24c-1.87-.05-3.67-.67-5.17-1.78-1-.77-3.07-2.81-2.81-3.24s2.61,1.14,4.35,1.63,2.88,.83,2.95,.64Z"></path><path class="cls-1" d="M166.84,135c-.98-.32-1.99-.57-3-.76-1.71-.49-3.62-1-3.5-1.34s4-.9,6.52-.27,5.33,2.09,5.29,2.8-2.34,1.5-4.29,1.83c-1.67,.24-3.38-.01-4.9-.74-1-.51-3.17-2-3-2.36s2.52,.58,4.15,.74,2.7,.26,2.73,.1Z"></path><path class="cls-1" d="M174.87,128.7c-.95-.15-1.91-.24-2.87-.26-1.66-.19-3.5-.37-3.45-.71s3.51-1.47,5.95-1.28,5.25,1.14,5.34,1.82c.09,.68-1.9,1.77-3.64,2.39-1.5,.49-3.12,.51-4.63,.06-1-.32-3.24-1.34-3.16-1.75s2.42,.15,3.94,.05,2.52-.17,2.52-.32Z"></path><path class="cls-1" d="M180.93,121.66c-.91,.02-1.81,.1-2.71,.22-1.57,.09-3.31,.21-3.3-.11s3.08-1.88,5.38-2.08,5,.21,5.21,.81-1.55,1.9-3.09,2.73c-1.33,.68-2.83,.95-4.31,.79-1-.14-3.19-.71-3.16-1.1s2.27-.24,3.68-.57,2.37-.55,2.3-.69Z"></path><path class="cls-1" d="M185.29,114.71c-.82,.1-1.63,.26-2.43,.48-1.42,.23-3,.52-3,.23s2.56-2,4.62-2.47,4.62-.32,4.84,.22-1.15,1.92-2.44,2.84c-1.13,.76-2.46,1.17-3.82,1.16-.93,0-3-.33-3-.69s2-.45,3.27-.9,2-.74,1.96-.87Z"></path><path class="cls-1" d="M188.09,107.77c-.74,.17-1.47,.39-2.18,.67-1.27,.35-2.67,.76-2.75,.49s2.07-2.14,3.92-2.73,4.21-.72,4.49-.24-.79,1.9-1.85,2.87c-.94,.82-2.12,1.32-3.36,1.44-.85,.07-2.81,0-2.88-.36s1.81-.61,2.89-1.15,1.77-.88,1.72-.99Z"></path><path class="cls-1" d="M189.65,101.1c-.68,.24-1.35,.52-2,.85-1.15,.45-2.41,1-2.51,.74s1.71-2.21,3.36-2.94,3.85-1.1,4.17-.69-.55,1.85-1.43,2.87c-.8,.86-1.85,1.45-3,1.68-.79,.15-2.62,.25-2.73,0s1.63-.75,2.58-1.36,1.62-1.05,1.56-1.15Z"></path><path class="cls-1" d="M190.18,95.09c-.6,.27-1.18,.59-1.74,.94-1,.52-2.14,1.12-2.27,.9s1.34-2.19,2.8-3,3.48-1.34,3.83-1-.29,1.76-1,2.78c-.65,.86-1.56,1.5-2.59,1.8-.72,.21-2.43,.46-2.56,.19s1.43-.83,2.25-1.48,1.34-1.04,1.28-1.13Z"></path><path class="cls-1" d="M190.15,89.31c-.08-.07-.59,.48-1.45,1.07s-1.8,1.27-2,1.09,.8-2.14,2-3.06,3-1.63,3.42-1.35,.1,1.61-.36,2.62c-.44,.87-1.17,1.56-2.07,1.94-.64,.27-2.21,.71-2.39,.49s1.18-.93,1.82-1.61,1.11-1.12,1.03-1.19Z"></path><path class="cls-1" d="M189.37,84.55c-.08-.07-.57,.47-1.39,1.06s-1.73,1.26-1.89,1.08,.8-2.09,2-3,2.89-1.63,3.28-1.37,.07,1.58-.38,2.56c-.43,.85-1.13,1.53-2,1.92-.62,.28-2.12,.73-2.29,.51s1.14-.92,1.76-1.59,.99-1.1,.91-1.17Z"></path><path class="cls-1" d="M188.37,79.88c-.08-.06-.48,.51-1.18,1.15s-1.47,1.38-1.63,1.23c.2-1.13,.73-2.18,1.53-3,1-1,2.5-1.86,2.88-1.65s.21,1.47-.11,2.45c-.32,.83-.9,1.53-1.66,2-.54,.33-1.87,.91-2,.73s1-1,1.46-1.69,.79-1.16,.71-1.22Z"></path><path class="cls-1" d="M187,75.72c-.07-.06-.44,.48-1.08,1.1s-1.35,1.32-1.48,1.19c.18-1.08,.67-2.09,1.42-2.89,.93-1,2.28-1.8,2.62-1.61s.16,1.39-.14,2.31c-.28,.8-.82,1.48-1.53,1.94-.49,.32-1.7,.9-1.85,.72s.88-1,1.34-1.61,.7-1.1,.7-1.15Z"></path><path class="cls-1" d="M185.33,72c-.07,0-.35,.5-.89,1.16s-1.11,1.38-1.26,1.27c.04-1.03,.39-2.02,1-2.85,.76-1,1.94-1.94,2.28-1.8s.34,1.27,.16,2.16c-.17,.78-.59,1.48-1.2,2-.43,.35-1.5,1-1.67,.88s.71-1,1.07-1.66,.58-1.16,.51-1.16Z"></path><path class="cls-1" d="M183.66,68.54c-.29,.36-.56,.74-.8,1.14-.48,.65-1,1.38-1.13,1.28,.04-1,.35-1.97,.9-2.81,.68-1,1.74-1.94,2.05-1.81s.28,1.23,.12,2.11c-.15,.76-.53,1.46-1.09,2-.38,.36-1.34,1-1.49,.91s.64-1,1-1.65,.5-1.14,.44-1.17Z"></path><path class="cls-1" d="M181.71,65.74c-.07,0-.3,.51-.76,1.17s-.94,1.42-1.08,1.32c0-1,.28-1.98,.8-2.84,.64-1,1.66-2,2-1.89s.33,1.22,.21,2.1c-.13,.75-.47,1.45-1,2-.36,.37-1.3,1.09-1.46,1s.61-1,.91-1.68c.19-.37,.32-.77,.38-1.18Z"></path><path class="cls-1" d="M179.84,63.08c-.25,.39-.48,.8-.69,1.22-.43,.69-.88,1.46-1,1.37-.05-1,.18-2,.65-2.88,.6-1.06,1.57-2.08,1.89-2s.39,1.2,.3,2.09c-.09,.76-.4,1.48-.91,2.05-.35,.39-1.25,1.15-1.41,1s.55-1,.82-1.72,.42-1.09,.35-1.13Z"></path><path class="cls-1" d="M177.74,60.84c-.22,.36-.42,.74-.6,1.12-.36,.63-.75,1.34-.87,1.26-.03-.92,.17-1.83,.58-2.65,.51-1,1.34-1.92,1.61-1.83s.32,1.1,.24,1.92c-.07,.69-.35,1.35-.79,1.89-.3,.36-1.06,1.07-1.2,1s.48-.95,.71-1.59,.38-1.09,.32-1.12Z"></path><path class="cls-1" d="M175.84,58.53c-.19,.36-.36,.74-.5,1.12-.31,.63-.64,1.34-.76,1.27-.08-.88,.05-1.77,.39-2.59,.43-1,1.17-1.93,1.43-1.86s.37,1,.34,1.83c-.03,.67-.25,1.32-.64,1.87-.26,.36-.95,1.1-1.09,1s.41-1,.59-1.58,.3-1.03,.24-1.06Z"></path><path class="cls-1" d="M173.79,56.94c-.18,.34-.33,.69-.47,1.05-.28,.59-.59,1.25-.69,1.18-.08-.82,.04-1.65,.36-2.41,.4-.91,1.08-1.81,1.31-1.74s.35,1,.32,1.71c-.03,.63-.24,1.23-.59,1.75-.24,.34-.88,1-1,.93s.37-.89,.53-1.47c.13-.32,.21-.66,.23-1Z"></path><path class="cls-1" d="M171.89,55.27c-.17,.32-.31,.66-.44,1-.27,.6-.56,1.27-.67,1.2-.1-.82,0-1.65,.31-2.42,.38-.91,1-1.83,1.27-1.77s.37,1,.36,1.7c-.01,.63-.2,1.24-.55,1.77-.23,.34-.85,1-1,1s.35-.89,.5-1.49,.33-.97,.22-.99Z"></path><path class="cls-1" d="M170,53.78c-.16,.35-.29,.7-.4,1.07-.25,.61-.51,1.29-.62,1.23-.13-.82-.06-1.65,.21-2.43,.33-.93,1-1.88,1.2-1.83s.4,1,.42,1.69c.01,.63-.15,1.25-.47,1.79-.22,.35-.81,1.07-1,1s.32-.91,.45-1.51c.12-.32,.2-.66,.21-1.01Z"></path><path class="cls-1" d="M168.09,52.53c-.12,.33-.22,.66-.3,1-.2,.59-.4,1.25-.51,1.19-.16-.76-.15-1.55,.05-2.31,.26-.9,.78-1.83,1-1.79s.43,.87,.5,1.57c.06,.62-.05,1.25-.33,1.81-.19,.34-.69,1.06-.82,1s.24-.88,.32-1.45c.09-.33,.12-.68,.09-1.02Z"></path><path class="cls-1" d="M166.23,51.55c-.1,.33-.18,.66-.24,1-.15,.58-.31,1.23-.42,1.18-.2-.73-.22-1.49-.07-2.23,.2-.88,.65-1.8,.87-1.78s.45,.83,.55,1.5c.07,.57,0,1.14-.23,1.67-.16,.34-.61,1.05-.73,1s.18-.85,.23-1.41c.06-.31,.07-.62,.04-.93Z"></path><path class="cls-1" d="M164.45,50.57c-.07,.33-.13,.66-.16,1-.1,.55-.21,1.17-.31,1.13-.24-.67-.32-1.39-.22-2.09,.13-.84,.49-1.73,.7-1.73s.48,.74,.62,1.37c.11,.51,.09,1.05-.08,1.55-.13,.33-.5,1-.62,1s.11-.82,.13-1.35c.02-.29,0-.59-.06-.88Z"></path><path class="cls-1" d="M159.45,51.6c0,.07,.44,.23,1,.6s1.21,.75,1.14,.89c-.81,.1-1.64-.07-2.35-.47-.87-.51-1.73-1.38-1.66-1.68s1-.44,1.68-.4c.63,.05,1.23,.32,1.69,.76,.32,.31,1,1.12,.88,1.28s-.86-.47-1.43-.69-.92-.35-.95-.29Z"></path><path class="cls-1" d="M152.1,125.24c-.15-.07-.62,1-1.57,2.4-.95,1.4-2,2.89-2.27,2.7s.2-3.72,1.51-5.76,3.51-4.1,4.19-3.88,.84,2.45,.63,4.23c-.22,1.55-.95,2.98-2.06,4.08-.78,.76-2.78,2.25-3.14,2s1.26-2,1.86-3.42,.99-2.28,.85-2.35Z"></path><path class="cls-1" d="M159.68,122.28c-.31,.83-.56,1.68-.76,2.54-.48,1.45-1,3.07-1.31,3s-.78-3.34-.15-5.49,2-4.54,2.7-4.52,1.37,2,1.65,3.59c.2,1.43-.07,2.89-.77,4.15-.49,.87-1.87,2.71-2.25,2.57s.58-2.13,.75-3.51,.29-2.3,.14-2.33Z"></path><path class="cls-1" d="M166.08,118.11c-.12,.84-.17,1.7-.16,2.55-.14,1.47-.26,3.1-.57,3.07s-1.41-3-1.3-5.2,.91-4.69,1.52-4.79,1.65,1.6,2.25,3.11c.48,1.31,.54,2.74,.17,4.09-.27,.91-1.14,2.92-1.51,2.86s.08-2.14,0-3.48-.26-2.21-.4-2.21Z"></path><path class="cls-1" d="M171,113.29c.06,.77,.18,1.53,.35,2.28,.16,1.33,.37,2.8,.09,2.82s-1.81-2.45-2.12-4.39-.11-4.31,.4-4.5,1.75,1.14,2.56,2.37c.67,1.08,.99,2.33,.93,3.6-.06,.86-.43,2.78-.77,2.79s-.34-1.9-.71-3.08-.64-1.92-.73-1.89Z"></path><path class="cls-1" d="M174.57,108.18c.18,.7,.41,1.39,.67,2.06,.35,1.2,.77,2.52,.52,2.57s-2-2.07-2.58-3.81-.77-3.94-.34-4.17,1.74,.88,2.66,1.93c.77,.91,1.25,2.03,1.4,3.21,.08,.79,0,2.58-.26,2.63s-.6-1.72-1.12-2.75-.84-1.71-.95-1.67Z"></path><path class="cls-1" d="M176.94,103.33c.29,.63,.63,1.25,1,1.84,.54,1.07,1.16,2.26,.93,2.35-1.29-.76-2.36-1.84-3.11-3.14-.86-1.59-1.4-3.61-1-3.9s1.81,.5,2.86,1.33c.88,.73,1.53,1.7,1.88,2.79,.21,.74,.48,2.45,.2,2.55s-.86-1.52-1.53-2.41-1.17-1.46-1.23-1.41Z"></path><path class="cls-1" d="M178.57,98.34c.38,.54,.8,1.05,1.25,1.54,.69,.91,1.49,1.91,1.29,2-1.34-.5-2.54-1.33-3.47-2.41-1.09-1.33-2-3.12-1.67-3.45s1.79,.18,2.92,.78c.95,.53,1.74,1.32,2.25,2.28,.33,.65,.89,2.19,.65,2.33s-1.08-1.27-1.86-2-1.29-1.14-1.36-1.07Z"></path><path class="cls-1" d="M179.48,93.73c-.06,.07,.57,.53,1.29,1.3s1.55,1.61,1.38,1.75c-1.27-.28-2.45-.89-3.41-1.78-1.12-1.11-2.09-2.69-1.85-3s1.65-.08,2.74,.33c.93,.38,1.73,1.03,2.28,1.87,.37,.57,1,2,.82,2.13s-1.11-1.06-1.9-1.64-1.29-1.03-1.35-.96Z"></path><path class="cls-1" d="M179.6,89.07c.44,.36,.9,.69,1.38,1,.78,.6,1.66,1.25,1.53,1.42-1.21-.05-2.39-.44-3.39-1.13-1.2-.86-2.32-2.19-2.16-2.58s1.5-.36,2.56-.16c.91,.2,1.74,.68,2.36,1.38,.42,.48,1.24,1.69,1.07,1.88s-1.17-.81-2-1.22-1.3-.66-1.35-.59Z"></path><path class="cls-1" d="M179.55,85.29c.47,.27,.95,.5,1.45,.71,.81,.43,1.72,.89,1.63,1.05-1.14,.12-2.28-.06-3.32-.54-1.24-.6-2.48-1.62-2.39-2s1.34-.52,2.36-.49c.87,.05,1.71,.36,2.4,.89,.46,.37,1.4,1.33,1.27,1.52s-1.21-.56-2-.81-1.37-.41-1.4-.33Z"></path><path class="cls-1" d="M178.91,81.52c.47,.19,.96,.34,1.45,.45,.83,.28,1.76,.58,1.69,.74-1.06,.28-2.17,.28-3.23,0-1.26-.38-2.57-1.15-2.53-1.49s1.2-.67,2.17-.77c.83-.08,1.66,.09,2.4,.48,.49,.28,1.51,1,1.42,1.22s-1.23-.34-2-.46c-.44-.13-.91-.19-1.37-.17Z"></path><path class="cls-1" d="M178.07,78.09c.47,.12,.96,.21,1.44,.28,.83,.18,1.76,.36,1.71,.52-1.01,.35-2.09,.44-3.14,.27-1.26-.23-2.59-.82-2.58-1.14s1.11-.73,2.05-.92c.79-.15,1.62-.08,2.37,.22,.49,.21,1.54,.81,1.47,1s-1.22-.21-2-.24c-.44-.07-.88-.07-1.32,.01Z"></path><path class="cls-1" d="M177,74.93c.44,.11,.89,.19,1.34,.24,.77,.15,1.63,.31,1.58,.45-.94,.32-1.94,.41-2.92,.27-1.16-.2-2.4-.71-2.39-1s1-.66,1.91-.83c.74-.14,1.5-.08,2.21,.18,.46,.18,1.43,.7,1.36,.87s-1.14-.17-1.87-.2c-.41-.05-.82-.04-1.22,.02Z"></path><path class="cls-1" d="M175.76,72.14c.45,.02,.91,.02,1.36,0,.79,0,1.66,.08,1.63,.23-.88,.45-1.86,.68-2.85,.68-1.18,0-2.48-.36-2.51-.64s.94-.8,1.77-1.11c.71-.24,1.48-.29,2.21-.13,.48,.11,1.52,.49,1.47,.66s-1.15,0-1.88,.08c-.41,0-.82,.09-1.2,.23Z"></path><path class="cls-1" d="M174.34,69.59c.44,.03,.88,.03,1.32,0,.76,0,1.61,0,1.6,.14-.81,.5-1.74,.8-2.69,.85-1.15,0-2.44-.24-2.5-.53s.83-.86,1.61-1.21c.67-.29,1.4-.38,2.12-.26,.47,.09,1.52,.42,1.49,.6s-1.11,.06-1.81,.18-1.14,.16-1.14,.23Z"></path><path class="cls-1" d="M173,67.29c.42,0,.83-.05,1.24-.13,.71-.06,1.51-.14,1.51,0-.72,.54-1.56,.88-2.45,1-1.07,.12-2.3,0-2.38-.3s.7-.88,1.4-1.27c.61-.34,1.31-.48,2-.41,.45,0,1.46,.28,1.45,.45s-1,.14-1.68,.31c-.38,.05-.75,.17-1.09,.35Z"></path><path class="cls-1" d="M171.4,65.25c.41-.06,.81-.14,1.21-.25,.71-.13,1.49-.28,1.5-.14-.66,.61-1.46,1.04-2.34,1.24-1.05,.22-2.29,.19-2.39-.07s.61-.94,1.27-1.4c.56-.38,1.23-.59,1.91-.59,.46,0,1.48,.14,1.49,.31s-1,.23-1.64,.46-1.03,.38-1.01,.44Z"></path><path class="cls-1" d="M169.84,63.45c.39-.1,.78-.21,1.16-.35,.64-.18,1.36-.4,1.38-.27-.55,.63-1.26,1.11-2.05,1.38-.95,.3-2.11,.39-2.24,.15s.47-.93,1-1.42c.49-.41,1.09-.66,1.72-.73,.43,0,1.39,0,1.42,.15s-.93,.31-1.48,.59-.93,.44-.91,.5Z"></path><path class="cls-1" d="M168.3,61.69c.34-.13,.67-.28,1-.45,.6-.24,1.27-.51,1.3-.39-.49,.65-1.13,1.17-1.87,1.51-.89,.39-2,.58-2.12,.38s.4-.94,.91-1.46c.44-.44,1-.74,1.6-.87,.4-.08,1.31-.15,1.34,0s-.85,.4-1.37,.71-.81,.51-.79,.57Z"></path><path class="cls-1" d="M166.75,60.32c.31-.17,.6-.35,.88-.56,.5-.31,1.07-.67,1.1-.56-.38,.65-.9,1.22-1.52,1.64-.75,.5-1.7,.85-1.83,.69s.28-.9,.69-1.45c.35-.44,.81-.79,1.33-1,.34-.14,1.14-.35,1.18-.22s-.72,.49-1.15,.85-.7,.57-.68,.61Z"></path><path class="cls-1" d="M165.27,58.88c.28-.16,.55-.34,.81-.54,.47-.3,1-.64,1-.54-.36,.61-.84,1.14-1.42,1.55-.7,.47-1.57,.82-1.69,.67s.27-.83,.66-1.35c.32-.43,.74-.78,1.23-1,.32-.13,1.06-.35,1.09-.23s-.67,.47-1.07,.81-.63,.59-.61,.63Z"></path><path class="cls-1" d="M163.7,57.66c.28-.17,.55-.35,.81-.54,.47-.3,1-.64,1-.54-.36,.61-.85,1.14-1.43,1.55-.69,.47-1.56,.82-1.68,.67s.27-.83,.65-1.35c.32-.43,.75-.77,1.24-1,.32-.14,1.05-.35,1.09-.23s-.67,.47-1.07,.81-.63,.59-.61,.63Z"></path><path class="cls-1" d="M162.22,56.67c.27-.18,.52-.37,.77-.58,.46-.33,1-.7,1-.6-.32,.63-.78,1.19-1.33,1.63-.67,.51-1.52,.91-1.64,.77s.22-.85,.57-1.39c.31-.42,.71-.76,1.18-1,.31-.15,1-.41,1.07-.29s-.64,.5-1,.87-.64,.55-.62,.59Z"></path><path class="cls-1" d="M160.7,55.63c.26-.2,.51-.41,.74-.63,.43-.35,.91-.75,.95-.66-.28,.65-.7,1.24-1.23,1.71-.63,.55-1.46,1-1.59,.86s.17-.86,.49-1.41c.27-.46,.65-.85,1.11-1.13,.3-.17,1-.46,1.05-.35s-.61,.54-1,.93c-.2,.2-.38,.43-.52,.68Z"></path></g><g><path class="cls-1" d="M74.19,135.21c.37,0,.8-.08,.52-1s-.77-.67-1.22-.71c-5.6-.2-11.11-1.44-16.25-3.65-8.38-3.57-19.23-10.94-24-27.8-9.11-32.27,20.2-48.53,20.5-48.7,.12-.06,.17-.21,.11-.34h0c-.07-.13-.22-.18-.35-.11-5.39,3.2-10.14,7.37-14,12.3-5.87,7.5-12.17,20.16-7.35,37.23,4.82,17.07,16,25.4,24.55,29,5.54,2.34,11.48,3.62,17.49,3.78Z"></path><path class="cls-1" d="M59.71,140c-.06-.17,1.33-.55,3.09-1.43s3.73-1.83,3.54-2.19-4.47-.26-7.1,.94-5.39,3.39-5.21,4.19,2.81,1.24,5,1.24c1.85-.05,3.65-.66,5.14-1.75,1-.77,3.07-2.81,2.81-3.24s-2.61,1.14-4.35,1.63-2.85,.8-2.92,.61Z"></path><path class="cls-1" d="M49.16,135c.98-.32,1.99-.57,3-.76,1.71-.49,3.62-1,3.5-1.34s-4-.9-6.52-.27-5.33,2.09-5.29,2.8,2.34,1.5,4.29,1.83c1.67,.24,3.38-.01,4.9-.74,1-.51,3.17-2,3-2.36s-2.52,.58-4.15,.74-2.7,.26-2.73,.1Z"></path><path class="cls-1" d="M41.13,128.7c.95-.15,1.91-.24,2.87-.26,1.66-.19,3.5-.37,3.45-.71s-3.51-1.47-6-1.28-5.25,1.14-5.34,1.82c-.09,.68,1.9,1.77,3.64,2.39,1.5,.49,3.12,.51,4.63,.06,1-.32,3.24-1.34,3.16-1.75s-2.42,.15-3.94,.05-2.47-.17-2.47-.32Z"></path><path class="cls-1" d="M35.07,121.66c.91,.02,1.81,.1,2.71,.22,1.57,.09,3.31,.21,3.3-.11s-3.08-1.88-5.38-2.08-5.05,.21-5.21,.81,1.55,1.9,3.09,2.73c1.33,.68,2.83,.95,4.31,.79,1-.14,3.19-.71,3.16-1.1s-2.27-.24-3.68-.57-2.32-.55-2.3-.69Z"></path><path class="cls-1" d="M30.71,114.71c.82,.1,1.63,.26,2.43,.48,1.42,.23,3,.52,3,.23s-2.56-2-4.62-2.47-4.62-.32-4.84,.22,1.15,1.92,2.44,2.84c1.14,.77,2.5,1.18,3.88,1.16,.93,0,3-.33,3-.69s-2-.45-3.27-.9-2.06-.74-2.02-.87Z"></path><path class="cls-1" d="M27.91,107.77c.74,.17,1.47,.39,2.18,.67,1.27,.35,2.67,.76,2.75,.49s-2.07-2.14-3.92-2.73-4.21-.72-4.49-.24,.79,1.9,1.85,2.87c.94,.82,2.12,1.32,3.36,1.44,.85,.07,2.81,0,2.88-.36s-1.81-.61-2.89-1.15-1.77-.88-1.72-.99Z"></path><path class="cls-1" d="M26.35,101.1c.68,.24,1.35,.52,2,.85,1.15,.45,2.41,1,2.51,.74s-1.71-2.21-3.36-2.94-3.85-1.1-4.17-.69,.55,1.85,1.43,2.87c.8,.86,1.85,1.45,3,1.68,.79,.15,2.62,.25,2.73,0s-1.63-.75-2.58-1.36-1.62-1.05-1.56-1.15Z"></path><path class="cls-1" d="M25.82,95.09c.6,.27,1.18,.59,1.74,.94,1,.52,2.14,1.12,2.27,.9s-1.34-2.19-2.8-3-3.48-1.34-3.83-1,.29,1.76,1,2.78c.65,.86,1.56,1.5,2.59,1.8,.72,.21,2.43,.46,2.56,.19s-1.43-.83-2.25-1.48-1.34-1.04-1.28-1.13Z"></path><path class="cls-1" d="M25.85,89.31c.08-.07,.59,.48,1.45,1.07s1.8,1.27,2,1.09-.8-2.14-2-3.06-3-1.63-3.42-1.35-.1,1.61,.36,2.62c.44,.87,1.17,1.56,2.07,1.94,.64,.27,2.21,.71,2.39,.49s-1.18-.93-1.82-1.61-1.11-1.12-1.03-1.19Z"></path><path class="cls-1" d="M26.63,84.55c.08-.07,.57,.47,1.39,1.06s1.73,1.26,1.89,1.08-.8-2.09-2-3-2.89-1.63-3.28-1.37-.07,1.58,.38,2.56c.43,.85,1.13,1.53,2,1.92,.62,.28,2.12,.73,2.29,.51s-1.14-.92-1.76-1.59-.99-1.1-.91-1.17Z"></path><path class="cls-1" d="M27.63,79.88c.08-.06,.48,.51,1.18,1.15s1.47,1.38,1.63,1.23c-.2-1.13-.73-2.18-1.53-3-1-1-2.5-1.86-2.88-1.65s-.21,1.39,.11,2.39c.32,.83,.9,1.53,1.66,2,.54,.33,1.87,.91,2.05,.73s-1-1-1.46-1.69-.84-1.1-.76-1.16Z"></path><path class="cls-1" d="M29,75.72c.07-.06,.44,.48,1.08,1.1s1.35,1.32,1.48,1.19c-.18-1.08-.67-2.09-1.42-2.89-.93-1-2.28-1.8-2.62-1.61s-.16,1.39,.14,2.31c.28,.8,.82,1.48,1.53,1.94,.49,.32,1.7,.9,1.85,.72s-.88-1-1.34-1.61-.7-1.1-.7-1.15Z"></path><path class="cls-1" d="M30.67,72c.07,0,.35,.5,.89,1.16s1.11,1.38,1.26,1.27c-.04-1.03-.39-2.02-1-2.85-.76-1-1.94-1.94-2.28-1.8s-.34,1.27-.16,2.16c.17,.78,.59,1.48,1.2,2,.43,.35,1.5,1,1.67,.88s-.71-1-1.07-1.66-.58-1.16-.51-1.16Z"></path><path class="cls-1" d="M32.34,68.54c.29,.36,.56,.74,.8,1.14,.48,.65,1,1.38,1.13,1.28-.04-1-.35-1.97-.9-2.81-.68-1-1.74-1.94-2-1.81s-.28,1.23-.12,2.11c.15,.76,.53,1.46,1.09,2,.38,.36,1.34,1,1.49,.91s-.64-1-1-1.65-.55-1.14-.49-1.17Z"></path><path class="cls-1" d="M34.29,65.74c.07,0,.3,.51,.76,1.17s.94,1.42,1.08,1.32c0-1-.28-1.98-.8-2.84-.64-1-1.66-2-2-1.89s-.33,1.22-.21,2.1c.13,.75,.47,1.45,1,2,.36,.37,1.3,1.09,1.46,1s-.61-1-.91-1.68c-.19-.37-.32-.77-.38-1.18Z"></path><path class="cls-1" d="M36.16,63.08c.25,.39,.48,.8,.69,1.22,.43,.69,.88,1.46,1,1.37,.05-1-.18-2-.65-2.88-.6-1.06-1.57-2.08-1.89-2s-.37,1.21-.31,2.11c.08,.78,.41,1.52,.94,2.1,.35,.39,1.25,1.15,1.41,1s-.55-1-.82-1.72-.44-1.16-.37-1.2Z"></path><path class="cls-1" d="M38.26,60.84c.22,.36,.42,.74,.6,1.12,.36,.63,.75,1.34,.87,1.26,.03-.92-.17-1.83-.58-2.65-.51-1-1.34-1.92-1.61-1.83s-.32,1.1-.24,1.92c.07,.69,.35,1.35,.79,1.89,.3,.36,1.06,1.07,1.2,1s-.48-.95-.71-1.59-.38-1.09-.32-1.12Z"></path><path class="cls-1" d="M40.16,58.53c.19,.36,.36,.74,.5,1.12,.31,.63,.64,1.34,.76,1.27,.07-.88-.07-1.77-.42-2.59-.43-1-1.17-1.93-1.43-1.86s-.37,1-.34,1.83c.03,.67,.25,1.32,.64,1.87,.26,.36,1,1.1,1.09,1s-.41-1-.59-1.58-.27-1.03-.21-1.06Z"></path><path class="cls-1" d="M42.21,56.94c.18,.34,.33,.7,.47,1.06,.28,.59,.59,1.25,.69,1.18,.08-.82-.05-1.66-.37-2.42-.4-.91-1.08-1.81-1.31-1.74s-.35,1-.32,1.71c.04,.63,.26,1.24,.63,1.75,.24,.34,.88,1,1,.93s-.37-.89-.53-1.47c-.14-.32-.23-.65-.26-1Z"></path><path class="cls-1" d="M44.11,55.27c.17,.32,.31,.66,.44,1,.27,.6,.56,1.27,.67,1.2,.1-.82,0-1.65-.31-2.42-.38-.91-1-1.83-1.27-1.77s-.37,1-.36,1.7c.01,.63,.2,1.24,.55,1.77,.23,.34,.85,1,1,1s-.35-.89-.5-1.49-.28-.97-.22-.99Z"></path><path class="cls-1" d="M46,53.78c.16,.35,.29,.7,.4,1.07,.25,.61,.51,1.29,.62,1.23,.13-.82,.06-1.65-.21-2.43-.33-.93-1-1.88-1.2-1.83s-.4,1-.42,1.69c-.01,.63,.15,1.25,.47,1.79,.22,.35,.81,1.07,.95,1s-.32-.91-.45-1.51c-.11-.33-.16-.67-.16-1.01Z"></path><path class="cls-1" d="M47.91,52.53c.12,.33,.22,.66,.3,1,.2,.59,.4,1.25,.51,1.19,.18-.76,.18-1.55,0-2.31-.26-.9-.78-1.83-1-1.79s-.43,.87-.5,1.57c-.08,.62,.02,1.24,.28,1.81,.19,.34,.69,1.06,.82,1s-.24-.88-.32-1.45c-.09-.33-.12-.68-.09-1.02Z"></path><path class="cls-1" d="M49.77,51.55c.1,.33,.18,.66,.24,1,.15,.58,.31,1.23,.42,1.18,.19-.73,.22-1.49,.07-2.23-.2-.88-.65-1.8-.87-1.78s-.45,.83-.55,1.5c-.07,.57,0,1.14,.23,1.67,.16,.34,.61,1.05,.73,1s-.18-.85-.23-1.41c-.06-.31-.07-.62-.04-.93Z"></path><path class="cls-1" d="M51.55,50.57c.07,.33,.13,.66,.16,1,.1,.55,.21,1.17,.31,1.13,.24-.67,.32-1.39,.22-2.09-.13-.84-.49-1.73-.7-1.73s-.48,.74-.62,1.37c-.11,.51-.09,1.05,.08,1.55,.13,.33,.5,1,.62,1s-.11-.82-.13-1.35c-.02-.29,0-.59,.06-.88Z"></path><path class="cls-1" d="M56.55,51.6c0,.07-.44,.23-1,.6s-1.21,.75-1.14,.89c.81,.1,1.64-.07,2.35-.47,.87-.51,1.73-1.38,1.66-1.68s-1-.44-1.68-.4c-.65,.04-1.27,.31-1.74,.76-.32,.31-1,1.12-.88,1.28s.86-.47,1.43-.69,.97-.35,1-.29Z"></path><path class="cls-1" d="M63.9,125.24c.15-.07,.62,1,1.57,2.4,.95,1.4,2,2.89,2.27,2.7s-.2-3.72-1.51-5.76-3.51-4.1-4.19-3.88-.84,2.45-.63,4.23c.22,1.54,.95,2.97,2.06,4.07,.78,.76,2.78,2.25,3.14,2s-1.26-2-1.86-3.42-.99-2.27-.85-2.34Z"></path><path class="cls-1" d="M56.32,122.28c.31,.83,.56,1.68,.76,2.54,.48,1.45,1,3.07,1.31,3s.78-3.34,.15-5.49-2-4.54-2.7-4.52-1.37,2-1.65,3.59c-.2,1.43,.07,2.89,.77,4.15,.49,.87,1.87,2.71,2.25,2.57s-.58-2.13-.75-3.51-.29-2.3-.14-2.33Z"></path><path class="cls-1" d="M49.92,118.11c.12,.84,.17,1.7,.16,2.55,.14,1.47,.26,3.1,.57,3.07s1.41-3,1.3-5.2-.91-4.69-1.52-4.79-1.65,1.6-2.25,3.11c-.48,1.31-.54,2.74-.17,4.09,.27,.91,1.14,2.92,1.51,2.86s-.08-2.14,0-3.48,.26-2.21,.4-2.21Z"></path><path class="cls-1" d="M45,113.29c-.06,.77-.18,1.53-.35,2.28-.16,1.33-.37,2.8-.09,2.82s1.81-2.45,2.12-4.39,.11-4.31-.4-4.5-1.75,1.14-2.56,2.37c-.67,1.08-.99,2.33-.93,3.6,.06,.86,.43,2.78,.77,2.79s.34-1.9,.71-3.08,.64-1.92,.73-1.89Z"></path><path class="cls-1" d="M41.43,108.18c-.18,.7-.41,1.39-.67,2.06-.35,1.2-.77,2.52-.52,2.57s2-2.07,2.58-3.81,.77-3.94,.34-4.17-1.74,.88-2.66,1.93c-.77,.92-1.26,2.05-1.4,3.24-.08,.79,0,2.58,.26,2.63s.6-1.72,1.12-2.75,.84-1.74,.95-1.7Z"></path><path class="cls-1" d="M39.06,103.33c-.29,.63-.63,1.25-1,1.84-.54,1.07-1.16,2.26-.93,2.35,1.29-.76,2.36-1.84,3.11-3.14,.86-1.59,1.4-3.61,1-3.9s-1.81,.5-2.86,1.33c-.89,.73-1.54,1.7-1.88,2.79-.21,.74-.48,2.45-.2,2.55s.86-1.52,1.53-2.41,1.17-1.46,1.23-1.41Z"></path><path class="cls-1" d="M37.43,98.34c-.38,.54-.8,1.05-1.25,1.54-.69,.91-1.49,1.91-1.29,2,1.34-.5,2.54-1.33,3.47-2.41,1.09-1.33,2-3.12,1.67-3.45s-1.79,.18-2.92,.78c-.95,.53-1.74,1.32-2.25,2.28-.33,.65-.89,2.19-.65,2.33s1.08-1.27,1.86-2,1.29-1.14,1.36-1.07Z"></path><path class="cls-1" d="M36.52,93.73c.06,.07-.57,.53-1.29,1.3s-1.55,1.61-1.38,1.75c1.27-.28,2.45-.89,3.41-1.78,1.12-1.11,2.09-2.69,1.85-3s-1.65-.08-2.74,.33c-.93,.38-1.73,1.03-2.28,1.87-.37,.57-1,2-.82,2.13s1.11-1.06,1.9-1.64,1.29-1.03,1.35-.96Z"></path><path class="cls-1" d="M36.4,89.07c-.44,.36-.9,.69-1.38,1-.78,.6-1.66,1.25-1.53,1.42,1.21-.05,2.39-.44,3.39-1.13,1.2-.86,2.32-2.19,2.16-2.58s-1.5-.36-2.56-.16c-.91,.2-1.74,.68-2.36,1.38-.42,.48-1.24,1.69-1.07,1.88s1.17-.81,2-1.22,1.3-.66,1.35-.59Z"></path><path class="cls-1" d="M36.45,85.29c-.47,.27-.95,.5-1.45,.71-.81,.43-1.72,.89-1.63,1.05,1.14,.12,2.28-.06,3.32-.54,1.24-.6,2.48-1.62,2.39-2s-1.32-.51-2.34-.51c-.87,.05-1.71,.36-2.4,.89-.46,.37-1.4,1.33-1.27,1.52s1.21-.56,2-.81,1.35-.39,1.38-.31Z"></path><path class="cls-1" d="M37.09,81.52c-.47,.19-.96,.34-1.45,.45-.83,.28-1.76,.58-1.69,.74,1.06,.28,2.17,.28,3.23,0,1.26-.38,2.57-1.15,2.53-1.49s-1.2-.67-2.17-.77c-.83-.08-1.66,.09-2.4,.48-.49,.28-1.51,1-1.42,1.22s1.23-.34,2-.46c.44-.13,.91-.19,1.37-.17Z"></path><path class="cls-1" d="M37.93,78.09c-.47,.12-.96,.21-1.44,.28-.83,.18-1.76,.36-1.71,.52,1.01,.35,2.09,.44,3.14,.27,1.26-.23,2.59-.82,2.58-1.14s-1.11-.73-2-.92c-.79-.15-1.62-.08-2.37,.22-.49,.21-1.54,.81-1.47,1s1.22-.21,2-.24c.42-.06,.85-.06,1.27,.01Z"></path><path class="cls-1" d="M39,74.93c-.44,.11-.89,.19-1.34,.24-.77,.15-1.63,.31-1.58,.45,.94,.32,1.94,.41,2.92,.27,1.16-.2,2.4-.71,2.39-1s-1-.66-1.91-.83c-.74-.14-1.5-.08-2.21,.18-.46,.18-1.43,.7-1.36,.87s1.14-.17,1.87-.2c.41-.05,.82-.04,1.22,.02Z"></path><path class="cls-1" d="M40.24,72.14c-.45,.02-.91,.02-1.36,0-.79,0-1.66,.08-1.63,.23,.88,.45,1.86,.68,2.85,.68,1.18,0,2.48-.36,2.51-.64s-.94-.8-1.77-1.11c-.71-.24-1.48-.29-2.21-.13-.48,.11-1.52,.49-1.47,.66s1.15,0,1.88,.08c.41,0,.82,.09,1.2,.23Z"></path><path class="cls-1" d="M41.66,69.59c-.44,.03-.88,.03-1.32,0-.76,0-1.61,0-1.6,.14,.81,.5,1.74,.8,2.69,.85,1.15,0,2.44-.24,2.5-.53s-.83-.86-1.61-1.21c-.67-.29-1.4-.38-2.12-.26-.47,.09-1.52,.42-1.49,.6s1.11,.06,1.81,.18,1.14,.16,1.14,.23Z"></path><path class="cls-1" d="M43.05,67.29c-.42,0-.83-.05-1.24-.13-.71-.06-1.51-.14-1.51,0,.72,.54,1.56,.88,2.45,1,1.07,.12,2.3,0,2.38-.3s-.7-.88-1.4-1.27c-.61-.34-1.31-.48-2-.41-.45,0-1.46,.28-1.45,.45s1,.14,1.68,.31c.38,.05,.75,.17,1.09,.35Z"></path><path class="cls-1" d="M44.6,65.25c-.41-.06-.81-.14-1.21-.25-.71-.13-1.49-.28-1.5-.14,.65,.61,1.46,1.04,2.33,1.24,1.06,.22,2.3,.19,2.4-.07s-.61-.94-1.27-1.4c-.56-.4-1.22-.61-1.91-.63-.46,0-1.48,.14-1.49,.31s1,.23,1.64,.46,1.03,.42,1.01,.48Z"></path><path class="cls-1" d="M46.16,63.45c-.38-.1-.75-.21-1.11-.35-.64-.18-1.36-.4-1.38-.27,.53,.63,1.22,1.1,2,1.38,1,.3,2.11,.39,2.24,.15s-.47-.93-1-1.42c-.49-.41-1.09-.66-1.72-.73-.43,0-1.39,0-1.42,.15s.93,.31,1.48,.59,.93,.44,.91,.5Z"></path><path class="cls-1" d="M47.7,61.69c-.34-.13-.67-.28-1-.45-.6-.24-1.27-.51-1.3-.39,.49,.65,1.13,1.17,1.87,1.51,.89,.39,2,.58,2.12,.38s-.4-.94-.91-1.46c-.44-.44-1-.74-1.6-.87-.4-.08-1.31-.15-1.34,0s.85,.4,1.37,.71,.81,.51,.79,.57Z"></path><path class="cls-1" d="M49.25,60.32c-.31-.17-.6-.35-.88-.56-.5-.31-1.07-.67-1.1-.56,.38,.65,.9,1.22,1.52,1.64,.75,.5,1.7,.85,1.83,.69s-.28-.9-.69-1.45c-.35-.44-.81-.79-1.33-1-.34-.14-1.14-.35-1.18-.22s.72,.49,1.15,.85,.7,.57,.68,.61Z"></path><path class="cls-1" d="M50.73,58.88c-.28-.16-.55-.34-.81-.54-.47-.3-1-.64-1-.54,.36,.61,.84,1.14,1.42,1.55,.7,.47,1.57,.82,1.69,.67s-.27-.83-.66-1.35c-.32-.43-.74-.78-1.23-1-.32-.13-1.06-.35-1.09-.23s.67,.47,1.07,.81,.63,.59,.61,.63Z"></path><path class="cls-1" d="M52.3,57.66c-.28-.17-.55-.35-.81-.54-.47-.3-1-.64-1-.54,.36,.61,.85,1.14,1.43,1.55,.69,.47,1.56,.82,1.68,.67s-.27-.83-.65-1.35c-.32-.43-.75-.77-1.24-1-.32-.14-1-.35-1.09-.23s.67,.47,1.07,.81,.63,.59,.61,.63Z"></path><path class="cls-1" d="M53.78,56.67c-.27-.18-.52-.37-.77-.58-.46-.33-1-.7-1-.6,.32,.63,.78,1.19,1.33,1.63,.67,.51,1.52,.91,1.64,.77s-.22-.85-.57-1.39c-.31-.42-.71-.76-1.18-1-.31-.15-1-.41-1.07-.29s.64,.5,1,.87,.64,.55,.62,.59Z"></path><path class="cls-1" d="M55.3,55.63c-.26-.2-.51-.41-.74-.63-.43-.35-.91-.75-1-.66,.28,.65,.7,1.24,1.23,1.71,.63,.55,1.46,1,1.59,.86s-.17-.86-.49-1.41c-.27-.46-.65-.85-1.11-1.13-.3-.17-1-.46-1-.35s.61,.54,1,.93c.2,.2,.38,.43,.52,.68Z"></path></g><path class="cls-1" d="M104.17,134c.08,.7,.22,1.39,.43,2.06,.32,1.06,.55,2.14,.69,3.24,.09,.63,.27,1.24,.55,1.81l.54,1.25c.09,.19,.19,.38,.3,.56,.15,.29,.63,0,.63,0v-.68c-.21-.34-.31-.73-.31-1.13,0-1,.6-1.81,1.34-1.81s1.35,.82,1.35,1.81c0,.4-.11,.79-.31,1.13v.68s.49,.26,.63,0c.11-.18,.21-.37,.3-.56l.54-1.25c.28-.57,.46-1.18,.55-1.81,.14-1.1,.37-2.18,.69-3.24,.2-.67,.35-1.36,.43-2.06,.09-.5,.37-.94,.78-1.24h-9.9c.4,.3,.68,.74,.77,1.24Z"></path><path class="cls-1" d="M121.37,149.55l5.5-7.42-18.62-24.79-18.45,24.79,5.46,7.37c-2.73,2.21-5.02,4.93-6.72,8l8.61,5.5c.99-2.03,2.42-3.82,4.2-5.22l7,9.43,6.91-9.33c1.75,1.38,3.17,3.13,4.16,5.13l8.72-5.46c-1.7-3.09-4.01-5.81-6.77-8Zm-30.84-7.42l17.73-23.81,17.89,23.81-5.24,7.07c-.27-.2-.53-.44-.82-.63l4.78-6.44-16.6-22.13-16.45,22.13,4.73,6.38c-.29,.19-.54,.42-.82,.63l-5.2-7.01Zm23.61-8.6c-.45,1.11-.71,2.28-.77,3.47,0,1.95-.33,3.88-1,5.71-.36,.91-.74,1.9-1.07,2.76-1.02-.13-2.05-.2-3.08-.2-.93,0-1.86,.07-2.79,.18-.33-.85-.71-1.84-1.07-2.74-.66-1.83-.99-3.76-1-5.71-.05-1.19-.31-2.37-.77-3.47-.12-.3-.9-1.16-.56-1.46,.17-.15,.41,0,.66,.11l5.71-8.34,5.7,8.34c.25-.16,.49-.26,.66-.11,.24,.3-.49,1.16-.62,1.46Zm-5.8,32.64l-6.51-8.78c.28-.19,.55-.41,.86-.58l4.23,5.72-.52-6.94c.59-.09,1.19-.13,1.79-.13,.69,0,1.39,.06,2.07,.17l-.51,6.89,4.16-5.61c.3,.17,.57,.39,.86,.58l-6.43,8.68Zm11.34-5c-2.24-4.2-6.6-6.85-11.36-6.89h0c-4.8,.08-9.17,2.76-11.42,7l-.2,.39-6.77-4.42,.18-.31c5.71-10.09,18.53-13.64,28.62-7.93,3.31,1.88,6.05,4.62,7.93,7.93l.19,.32-6.92,4.31-.25-.4Z"></path><path class="cls-1" d="M108.34,147c-7.2-.11-13.88,3.73-17.42,10l5.44,3.54c2.46-4.26,6.98-6.92,11.9-7h0c4.9,.05,9.41,2.69,11.86,6.94l5.57-3.47c-3.52-6.26-10.17-10.1-17.35-10.01Zm-11.67,10.77l-.07-.06,.07-.09c.08-.08,.12-.2,.09-.31,0-.06-.09-.15-.24-.26l-1.92-1.61-.25,.3c-.08,.08-.14,.18-.19,.28-.03,.09-.03,.18,0,.27,.04,.12,.11,.23,.21,.31l-.06,.06-.56-.52,1.71-2.06,.62,.46-.06,.07c-.08-.06-.17-.1-.27-.13-.09-.03-.2-.03-.29,0-.1,.05-.19,.12-.26,.21l-.3,.36,1.93,1.6c.09,.1,.2,.16,.33,.19,.11,0,.2-.06,.26-.15l.08-.08,.06,.06-.89,1.1Zm2.9-2.84l-.06-.08,.1-.06c.09-.07,.14-.17,.15-.28-.03-.12-.08-.24-.17-.33l-.61-.79-1.21,.92,.61,.79c.06,.09,.13,.17,.22,.24,.04,.02,.1,.02,.14,0,.08-.01,.15-.04,.21-.08l.09-.08,.06,.07-1.11,.85-.06-.06,.07-.04c.1-.06,.16-.16,.17-.27-.03-.13-.1-.25-.19-.34l-1.28-1.67c-.06-.1-.14-.18-.23-.25-.05-.02-.09-.02-.14,0-.08,.01-.16,.04-.22,.09l-.09,.07-.06-.07,1.12-.85,.06,.07-.1,.07c-.05,.05-.1,.11-.14,.17-.02,.05-.02,.11,0,.16,.05,.1,.11,.19,.18,.27l.57,.75,1.21-.92-.57-.75c-.06-.09-.14-.17-.22-.24-.05-.02-.09-.02-.14,0-.08,.01-.15,.04-.21,.09l-.09,.06-.06-.06,1.11-.86,.06,.07-.09,.06c-.06,.05-.11,.12-.14,.19-.02,.05-.02,.1,0,.15,.05,.1,.11,.2,.18,.28l1.28,1.69c.07,.09,.14,.17,.23,.24,.05,.01,.09,.01,.14,0,.08,0,.15-.04,.21-.09l.1-.07v.07l-1.08,.82Zm1.19-.83v-.09h.11c.07-.03,.12-.08,.17-.14,.02-.05,.02-.1,0-.15-.02-.1-.06-.2-.1-.3l-.92-1.92c-.05-.13-.12-.24-.22-.33-.1-.04-.21-.04-.31,0l-.11,.05v-.08l2.28-1.09,.35,.63-.09,.05c-.07-.11-.16-.2-.26-.28-.07-.04-.15-.06-.23-.06-.11,.02-.22,.06-.32,.12l-.82,.39,.56,1.17,.65-.31c.16-.08,.27-.15,.3-.24,.05-.13,.05-.28,0-.41h.08l.49,1h-.08c-.05-.09-.12-.18-.2-.25-.05-.04-.11-.06-.18-.06-.1,.01-.2,.04-.3,.08l-.64,.31,.46,1c.04,.08,.08,.16,.13,.24h.09c.06,0,.12-.03,.18-.06l.51-.24c.12-.05,.24-.12,.34-.21,.07-.06,.12-.15,.15-.24,.06-.17,.09-.36,.09-.54h.08l.1,.86-2.34,1.1Zm5.74-2.16c-.17,.22-.41,.36-.68,.41-.09,0-.18,0-.27,0h-.32c-.1,0-.21,0-.31,0-.03-.01-.05-.01-.08,0-.01,.05-.01,.1,0,.15h-.09l-.2-1.1h.09c.06,.18,.15,.34,.26,.49,.1,.11,.24,.18,.38,.22,.16,.04,.33,.04,.49,0,.17-.02,.33-.11,.44-.24,.09-.12,.13-.27,.1-.41-.02-.08-.06-.16-.11-.22-.06-.08-.15-.15-.24-.19-.19-.08-.38-.15-.57-.21-.22-.07-.44-.16-.65-.26-.13-.06-.24-.15-.33-.26-.08-.1-.14-.22-.16-.35-.04-.23,.02-.46,.16-.64,.15-.18,.36-.29,.59-.33,.19-.04,.38-.04,.57,0,.07,.01,.13,.01,.2,0,.04,0,.07-.03,.09-.06,.01-.05,.01-.1,0-.15h.09l.21,1.11h-.09c-.05-.18-.13-.34-.25-.48-.1-.11-.23-.2-.37-.24-.15-.03-.3-.03-.45,0-.15,.03-.29,.11-.38,.23-.09,.1-.12,.24-.1,.37,.01,.1,.07,.19,.15,.25,.24,.16,.51,.27,.79,.34,.24,.07,.47,.16,.69,.26,.12,.06,.23,.15,.31,.26,.08,.1,.13,.22,.16,.35,.07,.24,.03,.5-.12,.7Zm3.27-2.41c0-.1-.04-.2-.08-.29-.04-.09-.11-.16-.2-.21-.1-.05-.21-.07-.32-.07h-.47v2.51c-.01,.13,.01,.26,.07,.38,.08,.07,.18,.1,.28,.09h.12v.1h-1.39v-.09h.12c.12,0,.23-.04,.3-.13,.05-.11,.07-.23,.06-.35v-2.47h-.39c-.11-.02-.21-.02-.32,0-.09,.04-.16,.09-.22,.17-.06,.11-.1,.23-.1,.35h-.1v-.77h2.67v.77h-.03Zm3.18,.53h-.09c.03-.12,.03-.25,0-.37-.03-.08-.08-.14-.15-.18-.1-.05-.21-.09-.32-.11l-.88-.18-.27,1.27,.71,.14c.12,.04,.26,.04,.38,0,.12-.09,.2-.22,.22-.36h.08l-.22,1.12h-.09v-.38c-.02-.07-.06-.12-.12-.16-.09-.05-.19-.09-.29-.11l-.71-.14-.21,1.06c-.01,.09-.01,.17,0,.26,0,.03,0,.06,0,.09,.06,.03,.12,.05,.18,.06l.55,.11c.13,.02,.27,.02,.4,0,.1-.01,.19-.05,.27-.1,.15-.1,.28-.23,.39-.38h.09l-.44,.74-2.48-.5v-.09h.12c.07,.02,.15,.02,.22,0,.05-.02,.1-.05,.13-.09,.04-.1,.07-.21,.09-.31l.42-2.08c.03-.13,.03-.26,0-.39-.06-.09-.16-.15-.27-.15h-.11v-.08l2.48,.51-.08,.8Zm1,3.19v-3.08c0-.1,0-.2,0-.3-.02-.06-.05-.12-.09-.17-.06-.06-.13-.11-.2-.14v-.08l1.23,.51v.09c-.1-.02-.2-.02-.3,0-.05,0-.1,.05-.11,.1-.03,.13-.03,.26,0,.39v2.1l1.44-1.46c.1-.09,.19-.19,.26-.31,.02-.05,.02-.1,0-.15-.04-.08-.1-.14-.18-.18h0v-.08l.93,.39v.08c-.09-.03-.19-.03-.28,0-.13,.05-.25,.14-.35,.25l-2.14,2.13-.21-.09Zm2.65,1.31l-1.2-.72v-.07l.1,.05c.09,.07,.21,.09,.31,.05,.06,0,.14-.12,.24-.29l1.1-1.81c.06-.09,.11-.19,.14-.3,.02-.04,.02-.1,0-.14-.04-.07-.09-.12-.16-.16l-.1-.06,.05-.08,1.21,.73v.07l-.1-.06c-.1-.04-.2-.04-.3,0-.07,0-.14,.12-.25,.29l-1.1,1.81c-.06,.09-.11,.19-.14,.3-.02,.04-.02,.1,0,.14,.04,.07,.09,.13,.16,.17l.1,.06-.06,.02Zm.29,.12l.06-.07,.09,.08c.06,.05,.13,.08,.21,.1,.05,.02,.11,.02,.16,0,.09-.06,.16-.13,.22-.22l1.39-1.62c.1-.09,.17-.2,.21-.33-.02-.1-.07-.2-.16-.26l-.09-.08,.06-.06,1.91,1.65-.44,.56-.06-.06c.06-.11,.11-.22,.14-.34,.02-.08,.02-.16,0-.24-.07-.09-.15-.17-.23-.25l-.69-.59-.84,1,.55,.47c.09,.1,.21,.16,.34,.18,.14-.02,.27-.09,.35-.21l.07,.06-.75,.87-.06-.06c.06-.09,.11-.18,.14-.28,.02-.06,.02-.14,0-.2-.05-.09-.12-.17-.2-.23l-.55-.47-.7,.82c-.07,.06-.12,.14-.16,.22-.01,.03-.01,.07,0,.1,.03,.06,.07,.1,.12,.14l.43,.36c.1,.1,.21,.18,.33,.24,.09,.02,.19,.02,.28,0,.18-.02,.36-.07,.53-.14l.08,.06-.75,.44-1.99-1.64Zm5.78,1.28c.02,.07,.04,.13,.07,.19,.03,.03,.06,.05,.09,.06,.05,.02,.11,.02,.16,0l.06,.07-.9,.69-.06-.07c.14-.12,.25-.27,.32-.44,.06-.14,.07-.29,.05-.44-.02-.15-.09-.29-.18-.41-.09-.12-.22-.21-.37-.24-.13-.03-.27,0-.37,.08-.08,.06-.14,.15-.15,.25-.05,.28-.05,.58,0,.86,.04,.24,.07,.49,.08,.73,0,.14-.03,.28-.09,.4-.06,.12-.14,.22-.24,.3-.2,.15-.45,.21-.69,.16-.27-.04-.51-.19-.67-.42l-.15-.23c-.04-.1-.08-.2-.11-.3-.03-.1-.07-.19-.13-.28-.02-.03-.05-.05-.08-.06l-.15,.05-.06-.06,.9-.69,.06,.07c-.13,.13-.24,.29-.32,.46-.04,.14-.04,.29,0,.43,.02,.17,.09,.32,.2,.45,.09,.14,.24,.25,.41,.28,.14,.03,.29,0,.41-.09,.07-.05,.12-.12,.16-.2,.04-.1,.06-.2,.06-.31,0-.07,0-.27-.07-.6-.04-.23-.06-.47-.07-.7,0-.14,.03-.27,.09-.4,.05-.12,.13-.22,.24-.3,.18-.14,.42-.2,.65-.16,.25,.05,.47,.19,.62,.39,.12,.16,.21,.34,.28,.53l-.05-.05Z"></path></svg> 