<?xml version="1.0" encoding="UTF-8"?> <svg xmlns="http://www.w3.org/2000/svg" id="Layer_1" width="2.33in" height=".6in" viewBox="0 0 167.7 42.9"><defs><style>.cls-1{fill:#fff;}.cls-2{isolation:isolate;}</style></defs><rect class="cls-1" x="44.7" width="3" height="42"></rect><path class="cls-1" d="M72.8,11.2c-5.3,0-10,2.6-12.9,6.6V0h-3V42h3v-5.7c2.9,4,7.6,6.6,12.9,6.6,8.8,0,15.9-7.1,15.9-15.9s-7.2-15.8-15.9-15.8Zm0,28.7c-7.1,0-12.9-5.8-12.9-12.9s5.8-12.9,12.9-12.9,12.9,5.8,12.9,12.9-5.8,12.9-12.9,12.9Z"></path><path class="cls-1" d="M108.6,39.9c-7.1,0-12.9-5.8-12.9-12.9h28.9l-.2-1.7c-.9-8.1-7.7-14.2-15.8-14.2-8.8,0-15.9,7.1-15.9,15.9s7.1,15.9,15.9,15.9c6.4,0,12.1-3.8,14.6-9.7l-2.8-1.2c-1.9,4.8-6.6,7.9-11.8,7.9Zm0-25.7c6,0,11.2,4.1,12.5,9.8h-25c1.4-5.6,6.4-9.8,12.5-9.8Z"></path><polygon class="cls-1" points="155.6 11.8 155.6 0 152.6 0 152.6 11.8 147.1 11.8 147.1 14.8 152.6 14.8 152.6 42 155.6 42 155.6 14.8 161.9 14.8 161.9 11.8 155.6 11.8"></polygon><path class="cls-1" d="M132.4,16.8v-5h-3v30.2h3V21.7c.5-1.1,4.7-6.8,10.4-6.8v-3c-4.2-.1-8,2.4-10.4,4.9Z"></path><path class="cls-1" d="M35.6,42h3.3L19.3,1.5,0,42H3.3l6.7-14.1H28.7l6.9,14.1ZM19.3,8.5l8,16.5H11.5l7.8-16.5Z"></path><g class="cls-2"><path class="cls-1" d="M163.2,6V3.5h-.9v-.3h2.3v.3h-.9v2.5h-.5Z"></path><path class="cls-1" d="M164.9,6V3.1h.6l.7,2c.1,.2,.1,.3,.1,.4,0-.1,.1-.3,.2-.5l.7-2h.5v2.9h-.4V3.5l-.8,2.4h-.3l-.8-2.4v2.4h-.5v.1Z"></path></g></svg> 