<?xml version="1.0" encoding="UTF-8"?> <svg xmlns="http://www.w3.org/2000/svg" id="Layer_2" width="2.18in" height=".31in" viewBox="0 0 157.14 22.43"><defs><style>.cls-1{fill:#fff;}</style></defs><path class="cls-1" d="M10.55,22.41C5.32,22.41,.64,19.71,.07,12.73-.77,2.44,6.74,0,10.32,0s9.56,1.71,9.77,8.39c.11,3.4-1.41,4.42-6.39,4.42h-4.46c-1,0-1.71-.16-1.74-1.81s.57-1.81,1.68-1.81h4c1.62,0,2.11-.76,2-1.64-.07-1.58-1.43-3.51-4.79-3.51s-6,2.79-5.55,8.3,4.23,6,5.69,6c2.07,.12,4.07-.81,5.3-2.49,.24-.4,.76-.54,1.16-.3,.02,0,.03,.02,.05,.03l1.74,1.09c.42,.26,.59,.79,.39,1.25-.71,1.42-3.38,4.49-8.62,4.49Z"></path><path class="cls-1" d="M24.22,.68c.15,0,.29,.08,.36,.22l5.91,12.44L36.31,.93c.08-.15,.23-.25,.4-.25h4.15c.13,0,.26,.06,.34,.17,.08,.13,.08,.28,0,.41l-9.74,19.94c-.2,.42-.64,.67-1.1,.63-.39-.02-.74-.26-.91-.61L19.68,1.34c-.07-.12-.07-.28,0-.4,.08-.13,.23-.21,.38-.21l4.16-.05Z"></path><path class="cls-1" d="M51.2,22.41c-5.24,0-9.92-2.7-10.49-9.68C39.87,2.44,47.39,0,50.96,0,54.71,0,60.53,1.71,60.74,8.39c.1,3.4-1.42,4.42-6.4,4.42h-4.45c-1,0-1.72-.16-1.74-1.81s.56-1.81,1.68-1.81h4c1.63,0,2.11-.76,2-1.64-.08-1.58-1.44-3.51-4.8-3.51s-6,2.79-5.55,8.33,4.24,6,5.69,6c2.08,.13,4.07-.81,5.3-2.49,.24-.4,.76-.54,1.16-.3,.02,0,.03,.02,.05,.03l1.71,1.05c.42,.26,.58,.8,.38,1.25-.66,1.43-3.38,4.5-8.57,4.5Z"></path><path class="cls-1" d="M63.39,1.11c0-.24,.2-.44,.44-.44h2.46c.26,0,.54,.3,.74,.55l1.14,1.52,.22-.2c.69-.77,1.49-1.43,2.39-1.94,.77-.37,1.62-.55,2.48-.53,1.19,.03,2.36,.35,3.41,.92,.45,.23,.65,.75,.49,1.22l-1.19,2.66c-.2,.43-.7,.61-1.13,.42-.02,0-.04-.02-.05-.03-.75-.5-1.63-.79-2.53-.81-2.86,0-4.31,2.15-4.31,6.4v10.11c0,.5-.4,.9-.9,.9h-2.73c-.49,0-.89-.41-.9-.9l-.03-19.85Z"></path><path class="cls-1" d="M89.22,6.1c-.41,.27-.96,.16-1.23-.25l-.02-.02c-.74-1.16-1.99-1.9-3.37-2-1.16-.14-2.21,.68-2.38,1.83-.14,.84,.26,1.68,1,2.11,.93,.59,2.8,1.39,4.87,2.43s4,2.74,3.65,6.31-3,5.92-7.4,5.92c-2.87-.09-5.5-1.61-7-4.06-.29-.38-.22-.92,.16-1.21,.02-.01,.03-.02,.05-.03l1.84-1.19c.42-.26,.97-.14,1.25,.27,.81,1.24,2.16,2.03,3.64,2.13,1.05,.12,2.07-.42,2.57-1.36,.53-1.11,.09-2.43-1-3-1.43-.82-3.32-1.6-5-2.53s-3.32-2.63-2.88-6S80.89,0,84.97,0c2.58-.1,5,1.28,6.22,3.56,.4,.69,.24,1-.17,1.3l-1.8,1.23Z"></path><path class="cls-1" d="M104.39,22.41c-5.24,0-9.92-2.7-10.49-9.68C93.06,2.44,100.58,0,104.15,0,107.9,0,113.71,1.71,113.92,8.39c.11,3.4-1.41,4.42-6.39,4.42h-4.46c-1,0-1.71-.16-1.74-1.81s.57-1.81,1.69-1.81h4c1.62,0,2.11-.76,2-1.64-.13-1.58-1.49-3.51-4.85-3.51s-6,2.79-5.55,8.33,4.23,6,5.69,6c2.08,.13,4.07-.81,5.3-2.49,.24-.4,.76-.54,1.16-.3,.02,0,.03,.02,.05,.03l1.74,1.09c.42,.26,.59,.79,.39,1.25-.66,1.39-3.33,4.46-8.56,4.46Z"></path><path class="cls-1" d="M126.96,22.41c-5.23,0-9.91-2.7-10.48-9.68-.84-10.29,6.67-12.73,10.25-12.73s9.56,1.71,9.77,8.39c.11,3.4-1.41,4.42-6.39,4.42h-4.46c-1,0-1.71-.16-1.74-1.81s.57-1.81,1.68-1.81h4c1.62,0,2.11-.76,2-1.64-.13-1.58-1.49-3.51-4.85-3.51s-6,2.79-5.56,8.33,4.24,6,5.7,6c2.07,.12,4.07-.81,5.3-2.49,.24-.4,.76-.54,1.16-.3,.02,0,.03,.02,.05,.03l1.74,1.09c.42,.26,.59,.79,.39,1.25-.65,1.39-3.32,4.46-8.56,4.46Z"></path><path class="cls-1" d="M157.14,20.96c0,.5-.4,.9-.9,.9h-2.72c-.5,0-.9-.4-.91-.9V10.02c0-2.21-.31-3.71-.94-4.57-.82-.99-2.08-1.5-3.36-1.36-1.47-.13-2.89,.54-3.72,1.75-.71,1.12-1.06,3-1.06,5.78v9.34c0,.5-.4,.9-.9,.9h-2.74c-.5,0-.9-.4-.91-.9V1.11c0-.24,.2-.44,.44-.44h2.46c.32,.05,.6,.26,.74,.55l1.13,1.58,.19-.19c1.5-1.59,3.57-2.51,5.76-2.54,2.14-.11,4.22,.72,5.69,2.27,1.16,1.3,1.75,3.46,1.75,6.44v12.18Z"></path></svg> 