<?xml version="1.0" encoding="UTF-8"?> <svg xmlns="http://www.w3.org/2000/svg" id="Layer_2" data-name="Layer 2" viewBox="0 0 157.16 22.54"><defs><style> .cls-1 { fill: #231f20; } </style></defs><title>everseen-2019</title><g><path class="cls-1" d="M14.16,26.07c-5.23,0-9.91-2.7-10.48-9.68C2.84,6.1,10.35,3.66,13.93,3.66c3.74,0,9.56,1.71,9.77,8.39.11,3.4-1.41,4.42-6.39,4.42H12.85c-1,0-1.71-.16-1.74-1.81s.57-1.81,1.68-1.81h4c1.62,0,2.11-.76,2-1.64C18.72,9.63,17.36,7.7,14,7.7S8,10.49,8.45,16s4.23,6,5.69,6a6.12,6.12,0,0,0,5.3-2.49.85.85,0,0,1,1.21-.27l1.74,1.09a1,1,0,0,1,.39,1.25C22.07,23,19.4,26.07,14.16,26.07Z" transform="translate(-3.61 -3.59)"></path><path class="cls-1" d="M27.83,4.34a.39.39,0,0,1,.36.22L34.1,17,39.92,4.59a.45.45,0,0,1,.4-.25h4.15a.4.4,0,0,1,.34.17.4.4,0,0,1,0,.41L35.07,24.86a1.12,1.12,0,0,1-1.1.63,1.07,1.07,0,0,1-.91-.61L23.29,5a.41.41,0,0,1,0-.4.44.44,0,0,1,.38-.21Z" transform="translate(-3.61 -3.59)"></path><path class="cls-1" d="M54.81,26.07c-5.24,0-9.92-2.7-10.49-9.68C43.48,6.1,51,3.66,54.57,3.66c3.75,0,9.57,1.71,9.78,8.39.1,3.4-1.42,4.42-6.4,4.42H53.5c-1,0-1.72-.16-1.74-1.81s.56-1.81,1.68-1.81h4c1.63,0,2.11-.76,2-1.64C59.36,9.63,58,7.7,54.64,7.7s-6,2.79-5.55,8.33,4.24,6,5.69,6a6.11,6.11,0,0,0,5.3-2.49.85.85,0,0,1,1.21-.27L63,20.32a1,1,0,0,1,.38,1.25C62.72,23,60,26.07,54.81,26.07Z" transform="translate(-3.61 -3.59)"></path><path class="cls-1" d="M67,4.77a.44.44,0,0,1,.44-.44h2.46c.26,0,.54.3.74.55L71.78,6.4,72,6.2a9.6,9.6,0,0,1,2.39-1.94,5.46,5.46,0,0,1,2.48-.53,7.47,7.47,0,0,1,3.41.92,1,1,0,0,1,.49,1.22L79.58,8.53a.85.85,0,0,1-1.18.39,4.76,4.76,0,0,0-2.53-.81c-2.86,0-4.31,2.15-4.31,6.4V24.62a.9.9,0,0,1-.9.9H67.93a.91.91,0,0,1-.9-.9Z" transform="translate(-3.61 -3.59)"></path><path class="cls-1" d="M92.83,9.76a.89.89,0,0,1-1.25-.27,4.36,4.36,0,0,0-3.37-2,2.15,2.15,0,0,0-2.38,1.83,2.06,2.06,0,0,0,1,2.11c.93.59,2.8,1.39,4.87,2.43s4,2.74,3.65,6.31-3,5.92-7.4,5.92a8.52,8.52,0,0,1-7-4.06.86.86,0,0,1,.21-1.24L83,19.6a.92.92,0,0,1,1.25.27A4.75,4.75,0,0,0,87.89,22a2.58,2.58,0,0,0,2.57-1.36,2.28,2.28,0,0,0-1-3c-1.43-.82-3.32-1.6-5-2.53s-3.32-2.63-2.88-6,2.92-5.44,7-5.44A6.75,6.75,0,0,1,94.8,7.23c.4.69.24,1-.17,1.3Z" transform="translate(-3.61 -3.59)"></path><path class="cls-1" d="M108,26.07c-5.24,0-9.92-2.7-10.49-9.68C96.67,6.1,104.19,3.66,107.76,3.66c3.75,0,9.56,1.71,9.77,8.39.11,3.4-1.41,4.42-6.39,4.42h-4.46c-1,0-1.71-.16-1.74-1.81s.57-1.81,1.69-1.81h4c1.62,0,2.11-.76,2-1.64-.13-1.58-1.49-3.51-4.85-3.51s-6,2.79-5.55,8.33,4.23,6,5.69,6a6.11,6.11,0,0,0,5.3-2.49.85.85,0,0,1,1.21-.27l1.74,1.09a1,1,0,0,1,.39,1.25C115.9,23,113.23,26.07,108,26.07Z" transform="translate(-3.61 -3.59)"></path><path class="cls-1" d="M130.57,26.07c-5.23,0-9.91-2.7-10.48-9.68-.84-10.29,6.67-12.73,10.25-12.73,3.74,0,9.56,1.71,9.77,8.39.11,3.4-1.41,4.42-6.39,4.42h-4.46c-1,0-1.71-.16-1.74-1.81s.57-1.81,1.68-1.81h4c1.62,0,2.11-.76,2-1.64-.13-1.58-1.49-3.51-4.85-3.51s-6,2.79-5.56,8.33,4.24,6,5.7,6a6.12,6.12,0,0,0,5.3-2.49.85.85,0,0,1,1.21-.27l1.74,1.09a1,1,0,0,1,.39,1.25C138.48,23,135.81,26.07,130.57,26.07Z" transform="translate(-3.61 -3.59)"></path><path class="cls-1" d="M160.75,24.62a.9.9,0,0,1-.9.9h-2.72a.91.91,0,0,1-.91-.9V13.68c0-2.21-.31-3.71-.94-4.57a3.82,3.82,0,0,0-3.36-1.36A4.07,4.07,0,0,0,148.2,9.5c-.71,1.12-1.06,3-1.06,5.78l0,9.34a.9.9,0,0,1-.9.9H143.5a.91.91,0,0,1-.91-.9V4.77a.44.44,0,0,1,.44-.44h2.46a1,1,0,0,1,.74.55l1.13,1.58.19-.19a8.05,8.05,0,0,1,5.76-2.54A7.3,7.3,0,0,1,159,6c1.16,1.3,1.75,3.46,1.75,6.44Z" transform="translate(-3.61 -3.59)"></path></g></svg> 