<?xml version="1.0" encoding="UTF-8"?> <svg xmlns="http://www.w3.org/2000/svg" id="Layer_1" width="5.99in" height="1.5in" viewBox="0 0 431.24 108.06"><defs><style>.cls-1{fill:#fff;fill-rule:evenodd;}</style></defs><path class="cls-1" d="M262.71,30.73c-6.94,0-12.39,1.49-17.84,4.46,0-15.86,0-30.24,.49-35.19l-33.21,5.95v2.98l3.47,.49c4.46,.99,5.95,3.47,6.94,9.42,.99,11.9,.5,75.34,0,85.75,8.92,1.98,18.34,3.47,27.76,3.47,26.27,0,42.13-16.36,42.13-42.13,0-20.33-12.89-35.2-29.74-35.2h0Zm-11.4,71.87c-1.98,0-4.46,0-5.95-.49-.49-6.94-.99-36.18-.49-61.96,2.97-.99,4.95-1.49,7.43-1.49,10.9,0,16.85,12.89,16.85,28.75,0,19.82-7.43,35.19-17.84,35.19h0Z"></path><path class="cls-1" d="M87.23,1.98H0V6.44l4.96,.5c6.44,.99,8.92,4.96,9.91,14.37,1.49,17.84,.99,50.06,0,65.43-.99,9.42-3.47,13.88-9.91,14.37L0,102.1v3.97H56.01v-3.97l-5.95-.99c-6.44-.49-8.92-4.96-9.91-14.37-.5-6.45-.99-16.86-.99-29.74l11.9,.5c7.44,0,10.9,5.95,12.39,14.38h4.46V36.67h-4.47c-1.49,8.43-4.96,14.37-12.39,14.37l-11.9,.5c0-16.85,.49-32.71,.99-42.13h17.35c13.39,0,20.33,8.43,25.28,23.3l4.96-1.49-.5-29.24h0Z"></path><path class="cls-1" d="M115.49,29.73c24.79,0,37.18,16.85,37.18,39.16s-13.88,39.16-38.66,39.16-37.18-16.85-37.18-39.16c0-21.31,13.88-39.16,38.66-39.16h0Zm-1.49,4.96c-10.9,0-13.88,14.87-13.88,34.2s4.96,34.2,14.87,34.2c11.4,0,14.37-14.87,14.37-34.2,0-18.83-4.95-34.2-15.36-34.2h0Z"></path><path class="cls-1" d="M298.89,69.39c0-20.32,12.89-39.65,38.17-39.65,20.82,0,30.73,15.37,30.73,35.69h-46.1c-.49,18.34,8.43,31.72,26.27,31.72,7.93,0,11.9-1.98,16.85-5.45l1.98,2.48c-4.96,6.94-15.86,13.88-29.74,13.88-22.3,0-38.16-15.87-38.16-38.67h0Zm22.8-9.42l23.3-.5c0-9.91-1.48-24.78-9.91-24.78s-12.89,13.88-13.39,25.28h0Z"></path><path class="cls-1" d="M426.78,33.7c-5.95-2.48-13.88-3.97-22.8-3.97-18.34,0-29.74,10.9-29.74,23.79s8.42,18.34,20.32,22.31c12.39,4.46,15.86,7.93,15.86,13.88s-4.46,11.4-12.39,11.4c-9.42,0-16.36-5.45-21.81-20.32l-3.47,.99,.5,21.81c5.95,2.48,16.85,4.46,26.27,4.46,19.33,0,31.72-9.91,31.72-25.28,0-10.41-5.45-16.36-18.34-21.32-13.88-5.45-18.83-8.92-18.83-15.37s4.46-10.91,10.41-10.91c8.92,0,14.87,5.45,19.33,18.84l3.47-.99-.5-19.32h0Z"></path><path class="cls-1" d="M217.1,31.72c-8.43-4.96-23.3-2.48-31.23,15.37l.5-17.35-33.21,6.44v2.97l3.47,.5c4.46,.5,6.44,2.97,6.94,9.42,.99,11.9,.5,32.71,0,43.12-.5,5.95-2.48,8.92-6.94,9.42l-3.47,.49v3.97h46.1v-3.97l-5.95-.49c-4.96-.5-6.44-3.47-6.94-9.42-.99-9.42-.99-28.25-.5-40.15,2.48-3.47,13.38-6.44,23.3,0l7.93-20.32h0Z"></path></svg> 