<?xml version="1.0" encoding="UTF-8"?> <svg xmlns="http://www.w3.org/2000/svg" id="Layer_1" width="125" height="133.62" viewBox="0 0 125 133.62"><defs><style>.cls-1{fill:none;}.cls-2{fill:#fff;}.cls-3{fill:#3f793a;}</style></defs><path d="M121.23,26.4h-10.32v-8.66c0-1.73-1.18-3.19-2.77-3.63h.02L64.98,.45h0c-.71-.28-1.56-.45-2.48-.45s-1.77,.16-2.48,.45L16.84,14.11h.02c-1.59,.44-2.77,1.9-2.77,3.63v8.66H3.77c-2.07,0-3.77,1.7-3.77,3.77v44.77c0,1.4,.77,2.63,1.92,3.28,.55,.31,12.17,3.73,12.17,3.73v10.06c0,1.73,1.18,3.19,2.77,3.63h-.02l43.18,13.67h0c.71,.28,1.56,.45,2.48,.45s1.77-.16,2.48-.45l43.18-13.67h-.02c1.59-.44,2.77-1.9,2.77-3.63v-10.06s11.61-3.42,12.16-3.72c1.15-.65,1.92-1.88,1.92-3.28V30.17c0-2.07-1.7-3.77-3.77-3.77Z"></path><g><polygon class="cls-2" points="106.43 58.33 103.33 42.12 97.65 42.12 97.65 66.62 101.73 66.62 101.73 54.42 104.84 66.62 108.01 66.62 110.92 54.42 110.92 66.62 114.99 66.62 114.99 42.12 109.52 42.12 106.43 58.33"></polygon><path class="cls-1" d="M70.81,80.36l-.09-1.72h-6.16v8.45h6.19v-1.76h-4.41c.04-.6,.07-1.03,.11-1.62h3.23v-1.83h-3.26v-1.53h4.38Z"></path><polygon class="cls-2" points="69.19 52.22 65.37 52.22 65.37 42.03 61.33 42.03 61.27 66.62 65.4 66.62 65.37 56.54 69.19 56.54 69.2 66.62 73.41 66.62 73.43 42.03 69.15 42.03 69.19 52.22"></polygon><path class="cls-1" d="M60.75,80.28l-.14-1.63h-6.15v8.5h6.14v-1.84h-4.35l.16-1.48,3.28-.15-.11-1.8h-3.31l.14-1.6h4.34Z"></path><path class="cls-1" d="M80.39,83.53c-1.97-1.89-3.68-3.53-5.39-5.17l-.37,.31v8.47l1.86,.1v-5.02c1.97,1.92,3.66,3.58,5.35,5.23l.38-.34v-8.51h-1.82v4.93Z"></path><path class="cls-1" d="M50,83.15c.3-.94,.94-1.99,.72-2.81-.19-.72-1.3-1.51-2.11-1.66-1.44-.27-2.97-.08-4.47-.08v8.52h1.83v-3.12c1.42-.68,1.73,.34,2.19,1.14,.69,1.19,1.17,2.74,3.24,1.89-.59-1.11-1.19-2.24-1.81-3.41,.16-.17,.36-.29,.42-.47Z"></path><polygon class="cls-2" points="55.88 42.03 44.14 42.03 44.14 46.19 48.07 46.19 48.07 66.62 52.21 66.62 52.21 46.14 55.88 46.14 55.88 42.03"></polygon><path class="cls-1" d="M36.99,81.99c.47,.78,.79,1.29,1.08,1.81,.14,.24,.36,.58,.29,.77-.12,.27-.52,.65-.71,.6-.81-.21-1.92-.33-2.29-.9-.43-.65-.5-1.89-.15-2.58,.31-.6,1.38-.97,2.18-1.12,.59-.11,1.27,.29,1.95,.47l.96-1.22c-2-1.64-4.35-1.68-6.04-.16-1.55,1.41-1.83,3.97-.61,5.73,1.2,1.73,3.59,2.33,5.59,1.32,.45-.23,.99-.73,1.05-1.16,.15-1.16,.05-2.35,.05-3.55h-3.34Z"></path><path class="cls-1" d="M89.56,81.93c-.56-.14-1.09-.37-1.63-.56l.02-.61c.63-.1,1.42-.5,1.85-.25,1.05,.6,1.61,.27,2.18-.69-1.61-1.52-3.64-1.69-5.14-.5-1.47,1.17-1.23,3.17,.5,3.9,.62,.26,1.33,.3,1.94,.57,.32,.14,.53,.54,.78,.82-.31,.25-.59,.64-.93,.7-.43,.08-1,.04-1.35-.19-1.14-.74-1.63-.06-2.43,1.12,1.41,.36,2.58,.87,3.76,.91,1.64,.07,2.9-1.11,3-2.41,.11-1.51-.68-2.37-2.54-2.82Z"></path></g><g><path class="cls-3" d="M75.1,12.2s-16.29-2.25-13.94,15.77c0,0,9.06,1.83,11.55-3.41,2.49-5.24,2.38-12.36,2.38-12.36Zm-3.03,2.3s-2.95,2.17-4.93,5.06c-2,2.92-3.08,6.16-3.09,6.19-.05,.12-.23,.85-.89,.59-.62-.25-.34-.96-.28-1.12,.01-.04,1.1-2.99,3.53-6.24,2.18-2.92,5.25-4.87,5.38-4.95,.15-.09,.35-.08,.44,.07,.11,.17,0,.28-.15,.4Z"></path><path class="cls-3" d="M59.34,24.97c-.46-.7-1.08-1.42-1.76-2.16-1.77-1.94-4.15-3.22-4.17-3.23-.13-.07-.19-.22-.12-.35,.06-.12,.2-.15,.32-.09,.11,.05,2.58,1.17,4.49,3.1,.47,.48,.9,.95,1.27,1.4,.07-1.59,.3-3.05,.65-4.3-3.73-4.22-10-1.96-10-1.96,0,0,1.02,5.22,3.65,8.67,1.4,1.84,3.87,1.91,5.86,1.58-.11-.84-.18-1.73-.19-2.66Z"></path></g><g><polygon class="cls-2" points="44.14 46.19 48.07 46.19 48.07 66.62 52.21 66.62 52.21 46.14 55.88 46.14 55.88 42.03 44.14 42.03 44.14 46.19"></polygon><polygon class="cls-2" points="69.19 52.22 65.37 52.22 65.37 42.03 61.33 42.03 61.27 66.62 65.4 66.62 65.37 56.54 69.19 56.54 69.2 66.62 73.41 66.62 73.43 42.03 69.15 42.03 69.19 52.22"></polygon><path class="cls-2" d="M22.08,52.5h-6.38v4h2.06v4.39c0,1.25-1.21,2.21-2.52,1.78-.76-.25-1.25-.98-1.25-1.77v-13.1c0-.74,.42-1.43,1.1-1.71,1.37-.56,2.67,.43,2.67,1.72v2.95h4.32c0-1.07,0-2.13-.07-3.19-.07-1.05-.39-2.18-.93-3.08-1.36-2.29-4.01-3.24-6.5-2.57-2.75,.75-4.49,3.04-4.53,6.22-.06,4.33-.04,8.67,0,13.01,.02,1.95,.88,3.53,2.45,4.68,1.89,1.38,3.98,1.52,6.08,.62,2.39-1.03,3.26-3.18,3.43-5.56,.17-2.29,.04-4.59,.04-6.89,0-.5,.03-1,.03-1.5Z"></path><polygon class="cls-2" points="109.52 42.12 106.43 58.33 103.33 42.12 97.65 42.12 97.65 66.62 101.73 66.62 101.73 54.42 104.84 66.62 108.01 66.62 110.92 54.42 110.92 66.62 114.99 66.62 114.99 42.12 109.52 42.12"></polygon><path class="cls-2" d="M88.23,42.03h-5.16l-4.17,24.59h4.46l.77-5.39h3.3l.8,5.39h4.14l-4.14-24.59Zm-2.65,9.07h.35l.9,6.08h-2.12"></path><path class="cls-2" d="M39.35,47.58c-.07-1.05-.39-2.18-.93-3.08-1.36-2.29-4.01-3.24-6.5-2.57-2.75,.75-4.49,3.04-4.53,6.22-.06,4.33-.04,8.67,0,13.01,.02,1.95,.88,3.53,2.45,4.68,1.89,1.38,3.98,1.52,6.08,.62,2.39-1.03,3.26-3.18,3.43-5.56,.17-2.29,.04-4.59,.04-6.89,0-2.14,.1-4.29-.04-6.42Zm-4.07,13.31c0,1.25-1.21,2.21-2.52,1.78-.76-.25-1.25-.98-1.25-1.77v-13.1c0-.74,.42-1.43,1.1-1.71,1.37-.56,2.67,.43,2.67,1.72v13.07Z"></path></g><g><g><path class="cls-2" d="M49.51,87.09l-1.96-3.4h-1.31v3.4h-1.78v-8.38h3.92c1.75,0,2.83,1.14,2.83,2.7,0,1.47-.94,1.85-1.85,2.06l2.21,3.62h-2.06Zm-.16-5.89c0-.72-.52-.92-1.23-.92h-1.88v1.83h1.88c.7,0,1.23-.2,1.23-.92Z"></path><path class="cls-2" d="M54.93,87.09v-8.38h6.24v1.57h-4.46v1.76h4.06v1.57h-4.06v1.91h4.46v1.57h-6.24Z"></path><path class="cls-2" d="M64.64,87.09v-8.38h6.24v1.57h-4.46v1.76h3.43v1.57h-3.43v1.91h4.46v1.57h-6.24Z"></path><path class="cls-2" d="M81.36,87.09l-5.24-4.84v4.84h-1.78v-8.38h.89l5.13,4.63v-4.63h1.78v8.38h-.78Z"></path><path class="cls-2" d="M85.32,85.91l.98-1.39c.59,.62,1.51,1.14,2.66,1.14,.99,0,1.46-.44,1.46-.93,0-1.46-4.82-.44-4.82-3.59,0-1.39,1.21-2.55,3.18-2.55,1.33,0,2.44,.4,3.27,1.17l-.99,1.33c-.68-.63-1.58-.92-2.44-.92-.75,0-1.18,.33-1.18,.83,0,1.32,4.81,.43,4.81,3.55,0,1.53-1.11,2.69-3.35,2.69-1.62,0-2.78-.54-3.57-1.33Z"></path></g><path class="cls-2" d="M37.6,83.68h1.27v1.34c-.34,.31-1.03,.64-1.77,.64-1.53,0-2.5-1.17-2.5-2.75s.97-2.75,2.5-2.75c.88,0,1.59,.5,1.98,1.09l1.14-1.25c-.66-.79-1.66-1.42-3.13-1.42-2.46,0-4.34,1.68-4.34,4.33s1.88,4.33,4.34,4.33c1.36,0,2.47-.51,3.3-1.31v-3.82h-2.79v1.56Z"></path></g><path d="M73.54,131.6c0-.22,.24-.34,.6-.4,.27-.04,5.97-.69,12.48-.99,7.27-.33,12.73,1.01,12.8,1.03,.3,.07,1.64,.37,1.38,1.54-.27,1.24-1.54,.78-1.77,.73-.07-.02-4.75-1.61-12.29-1.62-6.28-.01-12.39,0-12.45,0-.48,.02-.75-.05-.75-.27Z"></path><path d="M50.22,116.25c-.01,.22-.26,.33-.62,.36-.28,.03-6,.28-12.52,.28-7.73,0-12.65-1.74-12.72-1.76-.3-.09-1.61-.46-1.29-1.61,.34-1.22,1.58-.69,1.81-.62,.07,.02,5.84,2,12.17,2.33,6.28,.33,12.37,.72,12.43,.72,.48,0,.74,.09,.73,.31Z"></path><g><path d="M23.53,128.4v-10.11c.33,.06,.65,.11,.98,.16v9.09c.84,.14,1.67,.26,2.51,.37,0,.34,0,.68,0,1.03-1.16-.15-2.33-.33-3.49-.53Z"></path><path d="M29.35,121.53c0-1.55,.67-2.47,2.01-2.36,1.36,.11,2.02,1.14,2.02,2.68v5.23c0,1.53-.67,2.51-2.02,2.4-1.34-.11-2.01-1.2-2.01-2.73v-5.23Zm.97,5.38c0,.92,.34,1.49,1.04,1.55,.72,.06,1.04-.46,1.04-1.38v-5.35c0-.91-.33-1.48-1.04-1.54-.7-.06-1.04,.46-1.04,1.37v5.35Z"></path><path d="M39.85,122.04v.91c-.31,0-.62,0-.93,0v-.97c0-.91-.31-1.46-1.03-1.47-.7-.01-1.03,.53-1.03,1.44v5.35c0,.91,.33,1.47,1.03,1.48,.72,.01,1.03-.54,1.03-1.45v-1.31c.31,0,.62,0,.93,0v1.26c0,1.53-.63,2.55-1.98,2.52-1.34-.02-1.97-1.06-1.97-2.59v-5.23c0-1.53,.63-2.52,1.97-2.49,1.36,.02,1.98,1.03,1.98,2.56Z"></path><path d="M43.39,127.64c-.11,.68-.23,1.36-.34,2.04-.3,0-.6,.01-.9,.02,.56-3.38,1.12-6.76,1.68-10.15,.47-.01,.95-.03,1.42-.04,.56,3.35,1.12,6.7,1.68,10.05-.33,.01-.65,.03-.98,.04-.11-.67-.23-1.35-.34-2.02-.74,.03-1.48,.05-2.22,.07Zm.13-.97c.65-.02,1.31-.04,1.96-.06-.33-1.93-.66-3.87-.99-5.8-.32,1.96-.64,3.91-.97,5.86Z"></path><path d="M49.36,129.42v-10.11c.33-.02,.65-.04,.98-.06v9.09c.84-.05,1.67-.11,2.51-.17,0,.34,0,.68,0,1.03-1.16,.08-2.33,.16-3.49,.23Z"></path><path d="M60.78,118.44c1.38-.12,1.97,.77,1.97,2.3v1.21c0,1.6-.65,2.5-2.05,2.62-.29,.03-.58,.05-.87,.07v3.99c-.33,.03-.65,.06-.98,.08v-10.11c.64-.05,1.28-.11,1.92-.17Zm-.08,5.12c.73-.06,1.08-.48,1.08-1.45v-1.34c0-.92-.29-1.36-1-1.3-.31,.03-.63,.05-.94,.08v4.09c.29-.02,.58-.05,.87-.07Z"></path><path d="M67.17,117.89c1.38-.12,1.96,.65,1.96,2.15v.82c0,1.11-.34,1.83-1.09,2.17,.8,.21,1.11,.94,1.11,2.02v1.57c0,.45,.01,.87,.18,1.2-.33,.03-.66,.05-.99,.08-.11-.28-.16-.54-.16-1.21v-1.59c0-1.14-.46-1.46-1.28-1.4-.23,.02-.46,.04-.69,.06v4.32c-.33,.03-.65,.06-.98,.08v-10.11c.65-.06,1.31-.11,1.96-.17Zm-.25,4.79c.78-.07,1.24-.39,1.24-1.49v-.97c0-.91-.29-1.36-1.02-1.3-.32,.03-.64,.05-.95,.08v3.74c.24-.02,.49-.04,.73-.06Z"></path><path d="M71.75,119.97c0-1.55,.67-2.59,2.01-2.68,1.36-.09,2.02,.87,2.02,2.42v5.23c0,1.53-.67,2.58-2.02,2.67-1.34,.09-2.01-.87-2.01-2.4,0-1.74,0-3.49,0-5.23Zm.97,5.22c0,.93,.34,1.44,1.04,1.39,.72-.05,1.04-.6,1.04-1.53v-5.35c0-.91-.33-1.44-1.04-1.39-.7,.05-1.04,.62-1.04,1.53v5.35Z"></path><path d="M80.43,117.05c1.37-.04,2,.9,2,2.46v5.1c0,1.55-.63,2.51-2,2.55-.69,.02-1.37,.05-2.06,.08v-10.11c.69-.03,1.37-.06,2.06-.08Zm-.01,9.09c.7-.02,1.04-.54,1.04-1.46,0-1.73,0-3.47,0-5.2,0-.92-.34-1.42-1.06-1.4-.35,.01-.7,.02-1.06,.04v8.06c.36-.01,.71-.03,1.07-.04Z"></path><path d="M85.93,124.71c0,.91,.31,1.46,1.03,1.47,.7,.01,1.02-.53,1.02-1.44v-7.73c.31,0,.61,.02,.92,.03v7.67c0,1.53-.62,2.53-1.97,2.51-1.34-.02-1.96-1.04-1.96-2.57v-7.67c.32,0,.64,0,.97,0v7.73Z"></path><path d="M95.4,119.89v.91c-.31-.03-.62-.06-.93-.09v-.97c0-.91-.31-1.49-1.03-1.54-.7-.05-1.03,.48-1.03,1.39,0,1.78,0,3.56,0,5.35,0,.91,.33,1.48,1.03,1.53,.72,.06,1.03-.46,1.03-1.37v-1.31c.31,.03,.62,.06,.93,.09v1.26c0,1.53-.63,2.48-1.98,2.37-1.34-.1-1.97-1.14-1.97-2.67v-5.23c0-1.53,.63-2.51,1.97-2.41,1.36,.11,1.98,1.19,1.98,2.72Z"></path><path d="M101.08,122.68v1.01c-.72-.12-1.43-.23-2.15-.33v3.6c.88,.12,1.76,.26,2.64,.42v1.03c-1.21-.21-2.41-.39-3.62-.55v-10.11c1.21,.15,2.41,.34,3.62,.55v1.03c-.88-.15-1.76-.29-2.64-.42v3.45c.72,.1,1.43,.21,2.15,.33Z"></path></g></svg> 