<?xml version="1.0" encoding="UTF-8"?> <svg xmlns="http://www.w3.org/2000/svg" id="Layer_1" width="34.72in" height="23.75in" viewBox="0 0 2500 1709.7"><defs><style>.cls-1{fill:#fff;}</style></defs><path class="cls-1" d="M1250,0H0V413.8H413.8v853.4h422.4V413.8h413.8V0Zm413.8,0h836.2V413.8h-836.2V0Zm0,831.5V413.8h-413.8v853.4h1250v-435.1l-836.2-.6Z"></path><path class="cls-1" d="M172.4,1439.7v258.6H103.4v-258.6H0v-51.7H258.6v51.7h-86.2Zm279.9,155.1h-143.4c2.3,34.5,26.5,50.3,49.3,50.3,17.4,0,32-3.9,41.1-14.4l44.8,38.7c-19.2,24.7-53.9,39.5-85.9,39.5-69,0-112.8-48.6-112.8-124.4s46.1-125,106.9-125c64,0,100.9,51.6,100.9,120.2,0,9.2-.4,15.1-.9,15.1h0Zm-103.2-77.4c-22.8,0-37,8.5-39.3,42.9h82.2c-1.8-34.4-14.6-42.9-42.9-42.9h0Zm254.4,192.2c-62.6,0-112.4-51.2-112.4-124.7s48.4-125.2,115.1-125.2c45.7,0,74.9,22.4,95,53l-41.6,42c-14.2-20.1-29.2-34.3-54.8-34.3-30.2,0-49.8,25.1-49.8,64.4s19.6,64,49.8,64c24.7,0,40.2-11,56.6-30.6l40.2,37.9c-23.2,31.1-50.6,53.5-98.1,53.5h0Zm284.4-11.3v-123.5c0-42.9-8.2-55.7-34.3-55.7s-34.7,12.8-34.7,54.4v124.8h-69v-295.2l69-31.5v109.2c0-11.4,27.6-21,52.8-21,61.2,0,85.2,42,85.2,109.6v128.9h-69Z"></path><path class="cls-1" d="M1208.7,1478c-11.4-21.9-29.7-34.7-58.5-34.7-48,0-75.4,42-75.4,101.4s27.9,101.4,75.8,101.4c28.8,0,45.7-12.3,62.6-40.6l53.9,32c-21.9,45.2-60.3,72.2-118.3,72.2-83.6,0-139.8-64-139.8-164.9s58.5-164.9,142.1-164.9c60.3,0,96.9,29.2,116.9,70.8l-59.3,27.3h0Zm234.8,60.3c-10.1-9.1-20.2-15.5-34.4-15.5-24.6,0-38.5,10.5-38.5,52.1v123.4h-69v-241.4h69v23.9c17.2-11.4,24.8-21,47.2-21,20.5,0,35,8.2,43.2,16.9l-17.5,61.6Zm203.1,157.8v-7.6c-17.2,11.4-27.6,21-52.8,21-61.2,0-85.2-42-85.2-109.6v-143.1h51.7v137.6c0,42.9,16.8,55.7,42.9,55.7s43.3-12.8,43.3-54.4v-138.9h69v241.4h-71.7l2.8-2.1h0Zm250,2.2v-123.5c0-42.9-3.9-55.7-30-55.7s-30.4,12.8-30.4,54.4v124.8h-69v-241.4h69v23.9c0-11.4,23.3-21,48.4-21,61.2,0,80.9,42,80.9,109.6v128.9h-68.9Zm235.7,11.3c-62.6,0-112.4-51.2-112.4-124.7s48.4-125.2,115.1-125.2c45.7,0,74.9,22.4,95,53l-41.5,42c-14.2-20.1-29.2-34.3-54.8-34.3-30.2,0-49.8,25.1-49.8,64.4s19.6,64,49.8,64c24.6,0,40.2-11,56.6-30.6l40.2,37.9c-23.3,31.1-50.6,53.5-98.2,53.5h0Zm281.5-5v-129.8c0-42.9-8.2-55.7-34.3-55.7s-34.7,12.8-34.7,54.4v124.8h-69v-295.2l69-31.5v109.2c0-11.4,27.6-21,52.7-21,61.2,0,85.2,42,85.2,109.6v128.9h-67.3l-1.6,6.3h0Z"></path></svg> 