<?xml version="1.0" encoding="UTF-8"?> <svg xmlns="http://www.w3.org/2000/svg" id="Layer_1" width="643.14" height="99.17" viewBox="0 0 643.14 99.17"><defs><style>.cls-1{fill:#fff;}</style></defs><g><polygon class="cls-1" points="213.44 32.68 236.95 32.68 236.95 97.66 259.24 97.66 259.24 32.68 282.62 32.68 282.62 13.15 213.44 13.15 213.44 32.68"></polygon><g><path class="cls-1" d="M342.79,77.53c-2.75,1.23-5.86,1.86-9.23,1.86s-6.6-.62-9.35-1.86c-2.76-1.23-5.13-2.94-7.05-5.07-1.93-2.13-3.45-4.68-4.52-7.56-1.07-2.88-1.61-6.06-1.61-9.44s.54-6.55,1.61-9.44c1.07-2.88,2.59-5.42,4.52-7.56,1.93-2.14,4.3-3.84,7.05-5.07,2.75-1.23,5.89-1.86,9.35-1.86s6.47,.62,9.23,1.86c2.75,1.23,5.12,2.94,7.05,5.07,1.93,2.14,3.45,4.68,4.52,7.56,1.07,2.89,1.61,6.06,1.61,9.44s-.54,6.55-1.61,9.44c-1.07,2.88-2.59,5.42-4.52,7.56-1.93,2.13-4.3,3.84-7.05,5.07m23-53.54c-3.99-3.83-8.81-6.85-14.31-9-5.5-2.14-11.53-3.23-17.91-3.23s-12.51,1.09-17.97,3.23c-5.46,2.14-10.27,5.17-14.31,8.99-4.04,3.83-7.24,8.48-9.51,13.81-2.27,5.34-3.42,11.29-3.42,17.67s1.15,12.33,3.42,17.67c2.27,5.34,5.47,9.99,9.51,13.82,4.03,3.82,8.85,6.85,14.31,8.99,5.46,2.14,11.51,3.23,17.97,3.23s12.41-1.09,17.91-3.23c5.51-2.15,10.32-5.17,14.31-9,4-3.83,7.17-8.48,9.44-13.81,2.27-5.34,3.42-11.28,3.42-17.67s-1.15-12.33-3.42-17.67c-2.27-5.33-5.45-9.98-9.44-13.81"></path><path class="cls-1" d="M450.5,55.34c0,3.04-.52,5.98-1.55,8.74-1.03,2.76-2.53,5.19-4.46,7.24-1.93,2.05-4.34,3.72-7.18,4.95-2.83,1.23-6.11,1.86-9.73,1.86h-13.24V32.68h13.36c3.79,0,7.15,.58,9.99,1.73,2.83,1.15,5.22,2.77,7.11,4.82,1.89,2.05,3.32,4.46,4.27,7.17,.95,2.72,1.43,5.73,1.43,8.94m9.76-30.92c-4.03-3.62-8.88-6.43-14.42-8.36-5.54-1.93-11.7-2.91-18.31-2.91h-35.48V97.66h35.6c6.54,0,12.65-.98,18.18-2.91,5.54-1.93,10.39-4.77,14.42-8.43,4.04-3.66,7.23-8.14,9.49-13.31,2.27-5.18,3.42-11.12,3.42-17.67s-1.15-12.49-3.42-17.67c-2.26-5.17-5.46-9.63-9.5-13.25"></path></g><path class="cls-1" d="M530.56,66.07h-20.43l10.21-30.16,10.21,30.16Zm3.59-52.92h-27.62l-31.63,84.06-.17,.46h25.24l4.15-12.07h32.58l4.15,12.07h25.24l-31.85-84.3-.08-.22Z"></path><polygon class="cls-1" points="617.82 13.15 600.04 43.74 582.11 13.31 582.01 13.15 556.82 13.15 588.89 63.61 588.89 97.66 611.19 97.66 611.19 63.61 643.14 13.15 617.82 13.15"></polygon></g><g><path class="cls-1" d="M97.44,0C45.32,0,2.75,40.92,.13,92.39c-.09,1.67-.13,3.35-.13,5.05H25.26c0-1.64,.06-3.28,.17-4.89C27.95,55.02,59.29,25.26,97.44,25.26s69.73,29.99,72.04,67.72c.09,1.47,.14,2.96,.14,4.45h25.26c0-1.34-.02-2.67-.08-4C192.71,41.48,149.92,0,97.44,0"></path><path class="cls-1" d="M97.44,32.48c-34.44,0-62.61,26.8-64.82,60.68-.09,1.42-.14,2.84-.14,4.28h25.26c0-1.56,.09-3.09,.27-4.6,2.29-19.73,19.1-35.1,39.43-35.1s37.32,15.53,39.47,35.4c.16,1.41,.23,2.84,.23,4.29h25.26c0-1.39-.04-2.76-.13-4.13-2.13-33.95-30.34-60.83-64.83-60.83"></path><path class="cls-1" d="M97.44,64.96c-15.84,0-29.03,11.33-31.89,26.33-.39,1.99-.58,4.05-.58,6.15h64.96c0-1.57-.11-3.11-.33-4.62-2.24-15.75-15.78-27.86-32.15-27.86"></path></g></svg> 