<?xml version="1.0" encoding="UTF-8"?> <svg xmlns="http://www.w3.org/2000/svg" id="Layer_1" width="365.25" height="46.29" viewBox="0 0 365.25 46.29"><defs><style>.cls-1{fill:#fff;}</style></defs><path class="cls-1" d="M95.99,45.34c0-4.89,0-9.66,0-14.43,0-2.01,.03-4.02-.02-6.04-.04-1.56-.56-2.85-2.33-3.19-1.7-.33-3.24,.51-3.96,2.16-.15,.34-.32,.72-.32,1.08-.02,3.69-.01,7.38-.01,11.15l2.02,.18v9.1h-16.8v-9.1l2.46-.18v-14.58l-2.46-.26V12.11h13.1c.17,1.42,.33,2.81,.54,4.58,2.89-4.1,6.59-5.79,11.2-5.55,5.37,.27,8.5,3.32,8.65,8.7,.13,4.65,.04,9.3,.05,13.96,0,.68,0,1.37,0,2.21l2.59,.27v9.07h-14.71Z"></path><path class="cls-1" d="M137.08,21.44l-2.64-.25V12.09h14.78v3.99c0,5.09-.01,10.18,.01,15.27,0,.81,.04,1.65,.24,2.42,.37,1.44,1.38,2.24,2.88,2.24,1.52,0,2.42-.88,2.87-2.28,.08-.24,.15-.49,.15-.74,0-3.82,0-7.64,0-11.59l-2.16-.22V12.13h14.45v23.97l2.6,.13v9.1h-13.52c-.08-.96-.17-1.92-.28-3.19-2.77,3.12-6.11,4.22-9.92,4.15-5.49-.1-9.06-3.34-9.31-8.8-.21-4.58-.11-9.17-.15-13.76,0-.74,0-1.49,0-2.29Z"></path><path class="cls-1" d="M115.03,21.44l-2.79-.17V11.99h3.72c0-2.31-.06-4.5,.05-6.67,.03-.51,.54-1.33,.97-1.44,3.21-.83,6.46-1.52,9.97-2.31V11.97h5.33v9.37h-5.18c0,4.47-.13,8.72,.05,12.97,.09,2.2,1.41,2.8,4.88,2.68,0,2.5,.03,5-.04,7.5,0,.33-.56,.92-.88,.93-3.3,.15-6.67,.64-9.9,.19-4.46-.61-6.15-3.07-6.17-7.6-.02-4.78,0-9.55,0-14.33v-2.25Z"></path><path class="cls-1" d="M359.86,12.07h5.24c.06,.67,.14,1.15,.14,1.64,.01,2.44,0,4.89,0,7.52h-5.34v3.48c0,2.58,0,5.16,0,7.73,.01,3.85,1.04,4.83,5.06,4.6,0,2.43,.04,4.86-.05,7.29-.01,.38-.59,.98-.99,1.06-3.54,.65-7.1,1.05-10.65,.05-3.38-.95-5.02-2.83-5.13-6.35-.16-5.03-.1-10.06-.13-15.09,0-.81,0-1.62,0-2.56l-2.69-.25V12.14l3.54-.18V4.14l10.99-2.51V12.07Z"></path><path class="cls-1" d="M187.75,36.16h3.68v9.21h-18.21v-9.08l2.49-.24v-14.57l-2.49-.24V12.14h12.9c.13,1.44,.25,2.91,.35,3.99,1.57-1.29,3.06-2.96,4.92-3.92,1.95-1.01,4.24-.84,6.43-.16v10.43c-1.29,0-2.48-.05-3.66,0-4.14,.21-6.32,2.45-6.39,6.59-.04,2.26,0,4.52,0,7.09Z"></path><path class="cls-1" d="M126.95,1.56c-3.51,.79-6.76,1.48-9.97,2.31-.43,.11-.94,.93-.97,1.44-.11,2.18-.05,4.36-.05,6.67h-3.72v9.29l2.79,.17v2.25c0,4.78-.02,9.55,0,14.33,.02,4.53,1.71,6.98,6.17,7.6,3.23,.45,6.6-.04,9.9-.19,.32-.01,.87-.6,.88-.93,.07-2.5,.04-5,.04-7.5-3.47,.12-4.78-.48-4.88-2.68-.18-4.24-.05-8.5-.05-12.97h5.18V11.97h-5.33V1.56Z"></path><path class="cls-1" d="M108.1,33.8c0-4.65,.08-9.31-.05-13.96-.15-5.38-3.29-8.43-8.65-8.7-4.6-.23-8.31,1.46-11.2,5.55-.21-1.77-.37-3.16-.54-4.58h-13.1v9.12c.9,.09,1.67,.18,2.46,.26v14.58c-.87,.06-1.61,.12-2.46,.18v9.1h16.8v-9.1c-.74-.07-1.35-.12-2.02-.18,0-3.76,0-7.46,.01-11.15,0-.36,.18-.73,.32-1.08,.71-1.65,2.26-2.49,3.96-2.16,1.77,.34,2.28,1.63,2.33,3.19,.06,2.01,.02,4.02,.02,6.04,0,4.77,0,9.54,0,14.43h14.71v-9.07l-2.59-.27c0-.84,0-1.52,0-2.21Z"></path><path class="cls-1" d="M191.37,12.21c-1.85,.96-3.34,2.63-4.92,3.92-.09-1.08-.22-2.55-.35-3.99h-12.9v9.11l2.49,.24v14.57l-2.49,.24v9.08h18.21v-9.21h-3.68c0-2.57-.03-4.83,0-7.09,.07-4.14,2.25-6.38,6.39-6.59,1.18-.06,2.36,0,3.66,0V12.05c-2.18-.68-4.48-.85-6.43,.16Z"></path><path class="cls-1" d="M43.35,8.92V.01H25.58V9.23h3.79c-2.36,8.54-4.67,16.86-6.97,25.18l-.37,.02c-2.15-8.36-6.51-25.34-6.51-25.34h3.89V0H0V9.31H2.84s.63,2.2,.79,2.72c2.13,6.83,4.3,13.66,6.47,20.48,1.36,4.3,2.74,8.6,4.13,12.96,4.39,0,14.89,.04,14.89,.04,0,0,6.95-22.43,10.18-32.74,.1-.31,1.22-3.85,1.22-3.85h2.84Z"></path><path class="cls-1" d="M167.66,12.13h-14.45v9.07c.81,.08,1.47,.15,2.16,.22,0,3.95,0,7.77,0,11.59,0,.25-.07,.5-.15,.74-.45,1.4-1.35,2.28-2.87,2.28-1.5,0-2.51-.8-2.88-2.24-.2-.78-.24-1.61-.24-2.42-.02-5.09-.01-10.18-.01-15.27v-3.99h-14.78v9.09c.88,.08,1.67,.16,2.64,.25,0,.8,0,1.55,0,2.29,.04,4.59-.07,9.18,.15,13.76,.25,5.47,3.83,8.7,9.31,8.8,3.81,.07,7.15-1.03,9.92-4.15,.11,1.27,.19,2.23,.28,3.19h13.52v-9.1c-.9-.04-1.64-.08-2.6-.13V12.13Z"></path><path class="cls-1" d="M365.25,21.24c0-2.64,0-5.08,0-7.52,0-.49-.08-.97-.14-1.64h-5.24V1.63c-3.78,.86-7.3,1.67-10.99,2.51v7.82l-3.54,.18v9.06c.95,.09,1.74,.16,2.69,.25,0,.94,0,1.75,0,2.56,.03,5.03-.03,10.06,.13,15.09,.11,3.52,1.75,5.4,5.13,6.35,3.55,1,7.11,.6,10.65-.05,.4-.07,.98-.68,.99-1.06,.09-2.42,.05-4.85,.05-7.29-4.02,.23-5.05-.75-5.06-4.6,0-2.58,0-5.16,0-7.73v-3.48h5.34Z"></path><path class="cls-1" d="M340.72,36.07c0-.8,0-1.54,0-2.28-.02-4.09,0-8.17-.08-12.26-.07-2.94-1.39-5.31-3.72-7.1-5.25-4.04-15.88-4.3-21.28-.49-3.01,2.12-4.26,5.07-4.08,8.81h10.85c1.05-3.33,2.12-4.36,4.06-4.01,2.05,.38,2.8,2.18,2.35,6.03-.79,0-8.86,.5-11.92,1.58-6.35,2.23-8.82,10.16-5.13,15.82,.87,1.34,2.35,2.51,3.81,3.18,4.18,1.92,9.44,.73,12.69-2.55,.27-.27,.59-.48,.99-.8,.16,1.26,.3,2.29,.43,3.31h13.74v-8.96c-.9-.09-1.7-.17-2.71-.28Zm-11.82-1.24c-.21,2.1-1.49,3.46-3.21,3.65-1.5,.16-2.58-.43-3.13-1.85-.7-1.79-.18-4.24,1.41-5.05,1.41-.72,3.09-.92,4.96-1.43,0,1.96,.11,3.34-.03,4.69Z"></path><g><path class="cls-1" d="M258.2,17.94c-.18,.07-.36,.1-.54,.15,0,0,.37-.08,.54-.15Z"></path><path class="cls-1" d="M267.09,22.74c-.36-.14-.7-.34-1.25-.61,.77-.44,1.3-.75,1.84-1.05,2.61-1.43,4.39-3.5,5.04-6.47,1.64-7.51-2.81-13.78-10.78-14.24C253.61-.12,245.23,.09,236.87,0c-.1,0-.2,.14-.33,.24V9.01c.64,.04,1.08,.1,1.51,.08,2.56-.11,2.54-.5,2.54,2.48,0,7.42,0,14.84,0,22.27v2.4h-3.96v9.18c7.47,0,14.76,.09,22.05-.05,2.61-.05,5.3-.35,7.81-1.06,4.79-1.34,7.66-5.42,7.77-10.41,.12-5.59-2.28-9.33-7.17-11.17Zm-14.71-8.58c0-1.26,0-2.53,0-3.85v-1.35c1.97,0,3.67-.16,5.32,.04,1.96,.24,3.27,2.03,3.4,4.17,.14,2.25-.95,4.04-2.91,4.77-.18,.07-.54,.15-.54,.15h-5.27s0-1.85,0-3.92h0Zm9.78,18.01c-.12,2.31-1.44,3.69-3.96,3.93-1.49,.14-3,.09-4.5,.11-.36,0-.72-.09-1.17-.15v-8.99c2.07,0,4.02-.19,5.91,.05,2.45,.31,3.86,2.42,3.73,5.06Z"></path><path class="cls-1" d="M252.38,14.16h0v-3.85c0,1.33,0,2.59,0,3.85Z"></path></g><path class="cls-1" d="M294.74,11.36c-9.37-1.04-16.39,4-18.02,13.18-.68,3.81-.53,7.65,.61,11.39,1.2,3.93,3.56,6.96,7.38,8.58,5.33,2.26,10.78,2.35,16.16,.21,4.51-1.8,7.6-6.33,7.46-10.72-3.07,0-11.27-.02-11.27-.02,0,0,0,.62-.35,1.63-.6,1.74-1.9,2.58-3.73,2.58-4.15,0-4.15-7.25-4.15-7.25,0,0,1.43,0,2.17,0,4.85,0,15.32,0,17.64,0,.25,0,.45-.2,.45-.45,0-.17,0-.4,0-.71,.16-8.54-2.55-17.11-14.34-18.42Zm-5.92,13.21c0-3.3,1.42-4.94,3.96-5.07,2.74-.15,4.35,1.7,4.27,5.07h-8.23Z"></path><path class="cls-1" d="M218.88,11.36c-9.37-1.04-16.39,4-18.02,13.18-.68,3.81-.53,7.65,.61,11.39,1.2,3.93,3.56,6.96,7.38,8.58,5.33,2.26,10.78,2.35,16.16,.21,4.51-1.8,7.6-6.33,7.46-10.72-3.07,0-11.27-.02-11.27-.02,0,0,0,.62-.35,1.63-.6,1.74-1.9,2.58-3.73,2.58-4.15,0-4.15-7.25-4.15-7.25,0,0,1.43,0,2.17,0,4.85,0,15.32,0,17.64,0,.25,0,.45-.2,.45-.45,0-.17,0-.4,0-.71,.16-8.54-2.55-17.11-14.34-18.42Zm-5.92,13.21c0-3.3,1.42-4.94,3.96-5.07,2.74-.15,4.35,1.7,4.27,5.07h-8.23Z"></path><path class="cls-1" d="M57.89,11.34c-9.37-1.04-16.39,4-18.02,13.18-.68,3.81-.53,7.65,.61,11.39,1.2,3.93,3.56,6.96,7.38,8.58,5.33,2.26,10.78,2.35,16.16,.21,4.51-1.8,7.6-6.33,7.46-10.72-3.07,0-11.27-.02-11.27-.02,0,0,0,.62-.35,1.63-.6,1.74-1.9,2.58-3.73,2.58-4.15,0-4.15-7.25-4.15-7.25,0,0,1.43,0,2.17,0,4.85,0,15.32,0,17.64,0,.25,0,.45-.2,.45-.45,0-.17,0-.4,0-.71,.16-8.54-2.55-17.11-14.34-18.42Zm-5.92,13.21c0-3.3,1.42-4.94,3.96-5.07,2.74-.15,4.35,1.7,4.27,5.07h-8.23Z"></path></svg> 