<?xml version="1.0" encoding="UTF-8"?> <svg xmlns="http://www.w3.org/2000/svg" xmlns:xlink="http://www.w3.org/1999/xlink" id="Fast_50" width="100" height="100" viewBox="0 0 100 100"><defs><style>.cls-1,.cls-2{fill:none;}.cls-3{fill:url(#linear-gradient);opacity:.2;}.cls-4{fill:#d20025;}.cls-5{fill:#bcbdbf;}.cls-6{fill:#241f20;}.cls-7{fill:url(#linear-gradient-2);}.cls-2{clip-path:url(#clippath);}</style><linearGradient id="linear-gradient" x1="4.86" y1="50" x2="95.14" y2="50" gradientUnits="userSpaceOnUse"><stop offset="0" stop-color="#3a357e"></stop><stop offset="1" stop-color="#c83393"></stop></linearGradient><linearGradient id="linear-gradient-2" x1="0" y1="50" x2="100" y2="50" xlink:href="#linear-gradient"></linearGradient><clipPath id="clippath"><path class="cls-1" d="m70.78,41.76v19.44h19.48v-19.44h-19.48Zm6.5,6.36c-.4.42-.69.94-.91,1.5-.34-.11-.69-.21-1.06-.27-.66-.04-1.32-.08-1.98-.11-.08,0-.16.01-.23.02-.32,0-.63,0-.95,0l-.03-.13c.18-.65.46-1.25.78-1.83h1.09c.84.03,1.68.08,2.51.23.09.03.42.1.87.25l-.07.34Z"></path></clipPath></defs><circle class="cls-3" cx="50" cy="50" r="45.14"></circle><path class="cls-7" d="m50,100C22.43,100,0,77.57,0,50S22.43,0,50,0s50,22.43,50,50-22.43,50-50,50ZM50,.53C22.72.53.53,22.72.53,50s22.19,49.47,49.47,49.47,49.47-22.19,49.47-49.47S77.28.53,50,.53Z"></path><path class="cls-4" d="m16.55,41.9l-.14.36h-.56l.9-2.13h.5l.89,2.13h-.56l-.14-.36h-.9Zm.45-1.15l-.27.7h.55l-.27-.7Z"></path><path class="cls-4" d="m18.76,42.27h-.53v-2.11h.53v2.11Z"></path><path class="cls-4" d="m20.86,42.27h-.4l-1.01-1.16v1.16h-.52v-2.11h.4l1.02,1.19v-1.19h.52v2.11Z"></path><path class="cls-4" d="m14.56,41.65v.61h-.53v-2.11h.92c.53,0,.88.29.88.74,0,.28-.15.54-.4.66l.54.71h-.63l-.46-.61h-.33Zm.39-.47c.2,0,.36-.11.36-.29s-.16-.28-.36-.28h-.39v.57h.39Z"></path><path class="cls-4" d="m13.36,41.46c-.07.22-.25.35-.5.35-.35,0-.58-.26-.58-.61s.24-.61.58-.61c.25,0,.43.13.5.35h.55c-.1-.51-.5-.85-1.05-.85-.64,0-1.12.46-1.12,1.1s.48,1.1,1.12,1.1c.55,0,.95-.34,1.05-.85h-.55Z"></path><path class="cls-4" d="m22.33,40.11c-.5,0-.84.27-.84.69,0,.33.2.53.61.62l.35.08c.18.03.22.11.22.18,0,.11-.1.19-.3.19-.25,0-.41-.11-.44-.3h-.53c.05.52.48.74.95.74.53,0,.87-.26.87-.68,0-.36-.25-.52-.63-.6l-.3-.07c-.16-.03-.24-.08-.24-.2,0-.14.12-.21.3-.21.21,0,.31.11.34.27h.53c-.05-.57-.56-.7-.9-.7"></path><path class="cls-4" d="m21.13,40.56c-.09-.03-.15-.12-.15-.21,0-.14.13-.25.27-.24.13,0,.24.11.24.25,0,.06,0,.1-.08.24l-.17.29h-.26l.15-.32Z"></path><path class="cls-6" d="m44.14,41.69c0,.34-.3.57-.77.57h-.91v-2.11h.89c.42,0,.68.21.68.53,0,.23-.15.43-.37.49.32.06.48.25.48.52Zm-1.46-.59h.61c.34,0,.53-.15.53-.39,0-.22-.19-.36-.49-.36h-.65v.75Zm.68.97c.35,0,.56-.17.56-.4s-.21-.37-.55-.37h-.69v.77h.68Z"></path><path class="cls-6" d="m46.37,41.37c0,.55-.36.94-.9.94s-.9-.39-.9-.94v-1.21h.22v1.21c0,.42.27.74.68.74s.68-.32.68-.74v-1.21h.22v1.21Z"></path><path class="cls-6" d="m48.45,40.73h-.22c-.05-.26-.24-.42-.59-.42-.32,0-.53.15-.53.4,0,.19.15.31.43.36l.32.06c.37.07.59.25.59.55,0,.38-.31.64-.78.64-.51,0-.83-.26-.88-.72h.22c.05.33.28.52.67.52.34,0,.55-.16.55-.42,0-.18-.12-.31-.4-.36l-.37-.07c-.39-.07-.58-.27-.58-.56,0-.36.3-.6.75-.6s.77.2.82.62Z"></path><path class="cls-6" d="m49.19,42.26h-.22v-2.11h.22v2.11Z"></path><path class="cls-6" d="m51.64,42.26h-.19l-1.38-1.71v1.71h-.22v-2.11h.18l1.38,1.73v-1.73h.22v2.11Z"></path><path class="cls-6" d="m52.46,41.11h1.12v.2h-1.12v.74h1.24v.2h-1.46v-2.11h1.46v.2h-1.24v.76Z"></path><path class="cls-6" d="m55.78,40.73h-.22c-.05-.26-.24-.42-.59-.42-.32,0-.53.15-.53.4,0,.19.15.31.43.36l.32.06c.37.07.59.25.59.55,0,.38-.31.64-.78.64-.51,0-.83-.26-.88-.72h.22c.05.33.28.52.67.52.34,0,.55-.16.55-.42,0-.18-.12-.31-.4-.36l-.37-.07c-.39-.07-.58-.27-.58-.55,0-.36.3-.6.75-.6.43,0,.77.2.82.61Z"></path><path class="cls-6" d="m57.75,40.73h-.22c-.05-.26-.24-.42-.59-.42-.32,0-.53.15-.53.4,0,.19.15.31.43.36l.32.06c.37.07.59.25.59.55,0,.38-.31.64-.78.64-.51,0-.83-.26-.88-.72h.22c.05.33.28.52.67.52.34,0,.55-.16.55-.42,0-.18-.12-.31-.4-.36l-.37-.07c-.39-.07-.58-.27-.58-.55,0-.36.3-.6.75-.6.43,0,.77.2.82.62Z"></path><path class="cls-6" d="m26.22,42.26h-.19l-1.38-1.71v1.71h-.22v-2.11h.18l1.38,1.73v-1.73h.22v2.11Z"></path><path class="cls-6" d="m26.98,41.11h1.12v.2h-1.12v.74h1.24v.2h-1.46v-2.11h1.46v.2h-1.24v.76Z"></path><path class="cls-6" d="m30.83,42.28h-.22l-.59-1.74-.59,1.74h-.21l-.72-2.12h.23l.6,1.79.6-1.79h.19l.6,1.79.6-1.79h.23l-.72,2.12h0Z"></path><path class="cls-6" d="m33.72,41.51v.75h-.22v-.75h0l-.87-1.35h.24l.74,1.15.74-1.15h.24l-.87,1.35Z"></path><path class="cls-6" d="m36.85,41.21c0,.61-.49,1.1-1.1,1.1s-1.1-.49-1.1-1.1.49-1.1,1.1-1.1c.6,0,1.1.49,1.1,1.09,0,0,0,0,0,0Zm-.22,0c.01-.48-.37-.88-.86-.89-.48-.01-.88.37-.89.86,0,.01,0,.03,0,.04-.01.48.37.88.86.89.48.01.88-.37.89-.86,0-.01,0-.03,0-.04Z"></path><path class="cls-6" d="m37.47,41.5v.77h-.22v-2.11h.78c.47,0,.8.26.8.67,0,.34-.23.58-.58.65l.68.78h-.28l-.66-.77h-.52Zm.56-.2c.34,0,.59-.18.59-.47s-.25-.47-.59-.47h-.56v.94h.56Z"></path><path class="cls-6" d="m39.56,41.71v.55h-.22v-2.11h.22v1.25l1.21-1.25h.27l-.91.96,1.02,1.15h-.28l-.9-.99-.41.43Z"></path><path class="cls-6" d="m58.88,42.26v-.19c.08-.08.17-.16.27-.25.1-.09.2-.18.29-.28s.19-.19.27-.29c.08-.09.14-.18.19-.27.05-.08.07-.16.07-.23,0-.08-.02-.15-.06-.22-.04-.07-.09-.12-.15-.16s-.14-.06-.22-.06-.15.02-.22.06c-.07.04-.12.09-.16.16-.04.07-.06.14-.06.22h-.21c0-.12.03-.23.09-.33s.14-.17.23-.23c.1-.06.2-.09.32-.09s.22.03.32.09c.1.06.17.14.23.23.06.1.09.21.09.33,0,.07-.02.15-.06.23-.04.08-.09.17-.15.26-.06.09-.14.18-.22.27-.08.09-.16.18-.25.27-.09.09-.17.17-.25.25h.96v.21h-1.34Z"></path><path class="cls-6" d="m61.22,42.3c-.13,0-.24-.03-.34-.09-.1-.06-.18-.14-.25-.24-.07-.1-.12-.22-.16-.35-.04-.13-.06-.27-.06-.42s.02-.29.06-.42c.04-.13.09-.25.16-.35.07-.1.16-.18.25-.23.1-.06.21-.09.34-.09s.24.03.34.09c.1.06.18.13.25.23.07.1.12.22.16.35.04.13.06.27.06.42s-.02.29-.06.42c-.04.13-.09.25-.16.35-.07.1-.15.18-.25.24-.1.06-.21.09-.34.09Zm0-.21c.13,0,.24-.04.33-.12.09-.08.16-.19.2-.32s.07-.28.07-.44c0-.17-.02-.32-.07-.45-.05-.13-.11-.24-.2-.32-.09-.08-.2-.12-.33-.12-.1,0-.19.02-.27.07-.08.05-.14.11-.19.19-.05.08-.09.18-.11.28-.03.11-.04.22-.04.33,0,.16.02.3.07.44.05.13.11.24.2.32.09.08.2.12.33.12Z"></path><path class="cls-6" d="m62.24,42.26v-.19c.08-.08.17-.16.27-.25.1-.09.2-.18.29-.28s.19-.19.27-.29c.08-.09.14-.18.19-.27.05-.08.07-.16.07-.23,0-.08-.02-.15-.06-.22-.04-.07-.09-.12-.15-.16s-.14-.06-.22-.06-.15.02-.22.06c-.07.04-.12.09-.16.16-.04.07-.06.14-.06.22h-.21c0-.12.03-.23.09-.33s.14-.17.23-.23c.1-.06.2-.09.32-.09s.22.03.32.09c.1.06.17.14.23.23.06.1.09.21.09.33,0,.07-.02.15-.06.23-.04.08-.09.17-.15.26-.06.09-.14.18-.22.27-.08.09-.16.18-.25.27-.09.09-.17.17-.25.25h.96v.21h-1.34Z"></path><path class="cls-6" d="m63.88,42.26v-.19c.08-.08.17-.16.27-.25.1-.09.2-.18.29-.28s.19-.19.27-.29c.08-.09.14-.18.19-.27.05-.08.07-.16.07-.23,0-.08-.02-.15-.06-.22-.04-.07-.09-.12-.15-.16s-.14-.06-.22-.06-.15.02-.22.06c-.07.04-.12.09-.16.16-.04.07-.06.14-.06.22h-.21c0-.12.03-.23.09-.33s.14-.17.23-.23c.1-.06.2-.09.32-.09s.22.03.32.09c.1.06.17.14.23.23.06.1.09.21.09.33,0,.07-.02.15-.06.23-.04.08-.09.17-.15.26-.06.09-.14.18-.22.27-.08.09-.16.18-.25.27-.09.09-.17.17-.25.25h.96v.21h-1.34Z"></path><path class="cls-6" d="m51.44,48.45h-3.85s-.01-.17-.04-.27c-.1-.43-.3-.79-.62-1.09-.39-.35-1.43-.79-2.83-.41-.71.19-1.15.76-1.13,1.35.02.43.21.79.61,1.02.54.32,1.16.4,1.75.55,1.27.32,2.57.5,3.77,1.07.94.44,1.73,1.06,2.08,2.09.39,1.15.37,2.31-.12,3.43-.7,1.58-2.34,3.27-7.02,2.98-5.6-.34-5.74-5.3-5.74-5.3h3.75c.31,1.2,1.11,1.86,2.3,2.04.76.11,1.53.15,2.27-.15.46-.19.75-.58.76-1.05,0-.48-.23-.89-.72-1.05-.59-.2-1.21-.33-1.82-.48-1.01-.26-2.05-.46-3.04-.8-1.37-.47-2.41-1.34-2.8-2.81-.16-.59-.17-1.18-.11-1.79.08-.76.32-1.45.74-2.07.77-1.14,1.89-1.76,3.19-2.09.91-.24,1.85-.27,2.78-.2,1.17.08,2.31.34,3.34.95,1.24.74,2.05,1.8,2.32,3.24.05.27.17.84.17.84Z"></path><path class="cls-6" d="m38.31,58.92h-4l-1.03-2.6h-6.44s-.97,2.61-.97,2.61h-4.05s6.46-15.29,6.46-15.29h3.6s6.43,15.28,6.43,15.28Zm-8.24-10.85l-1.95,5.01h3.89l-1.95-5.01Z"></path><path class="cls-6" d="m15.6,50.25h6.52v3.31h-6.52v5.35h-3.79v-15.19s7.72,0,11.35,0v3.35s-7.56,0-7.56,0v3.18Z"></path><polygon class="cls-6" points="65.63 43.73 65.63 47.09 60.82 47.09 60.82 58.92 57.02 58.92 57.02 47.09 52.18 47.09 52.18 43.73 65.63 43.73"></polygon><path class="cls-4" d="m77.06,58.14l2.12.9s-1.31,1.83-5.75,1.83c-6.52,0-7.37-6.15-7.37-6.15h2.22s1.01,3.53,4.04,4.06c3.32.57,4.74-.64,4.74-.64Z"></path><path class="cls-5" d="m80.52,59.2c-4.26,0-7.74-3.46-7.74-7.72s3.48-7.72,7.74-7.72,7.74,3.46,7.74,7.72-3.48,7.72-7.74,7.72Zm0-13.47c-3.17,0-5.53,2.58-5.53,5.75s2.36,5.75,5.53,5.75,5.59-2.58,5.59-5.75-2.42-5.75-5.59-5.75Z"></path><path class="cls-4" d="m75.3,49.35c-.66-.04-1.32-.08-1.98-.11-.08,0-.16.01-.23.02-1.6,0-3.21,0-4.81,0-.11,0-.32,0-.32,0v-10.11h12.5v1.96h-10.45v6.2s2.65,0,3.96,0c.84.03,1.68.08,2.51.23.34.12,3.87.65,4.92,4.88.64,2.57-.77,5.02-.77,5.02l-2.21-.5s1.72-2.08.7-4.84c-.7-1.7-2.12-2.43-3.83-2.75Z"></path><g class="cls-2"><path class="cls-5" d="m80.52,59.2c-4.26,0-7.74-3.46-7.74-7.72s3.48-7.72,7.74-7.72,7.74,3.46,7.74,7.72-3.48,7.72-7.74,7.72Zm0-13.47c-3.17,0-5.53,2.58-5.53,5.75s2.36,5.75,5.53,5.75,5.59-2.58,5.59-5.75-2.42-5.75-5.59-5.75Z"></path></g></svg> 