<?xml version="1.0" encoding="UTF-8"?> <svg xmlns="http://www.w3.org/2000/svg" xmlns:xlink="http://www.w3.org/1999/xlink" id="a" width="100" height="100" viewBox="0 0 100 100"><defs><style>.cls-1{fill:url(#linear-gradient);opacity:.2;}.cls-2{fill:#0033a1;}.cls-3{fill:#f5b335;}.cls-4{fill:#fff;}.cls-5{fill:#ff4713;}.cls-6{fill:#285cff;}.cls-7{fill:url(#linear-gradient-2);}</style><linearGradient id="linear-gradient" x1="4.86" y1="50" x2="95.14" y2="50" gradientUnits="userSpaceOnUse"><stop offset="0" stop-color="#3a357e"></stop><stop offset="1" stop-color="#c83393"></stop></linearGradient><linearGradient id="linear-gradient-2" x1="0" y1="50" x2="100" y2="50" xlink:href="#linear-gradient"></linearGradient></defs><circle class="cls-1" cx="50" cy="50" r="45.14"></circle><circle cx="50" cy="50" r="38.26"></circle><circle class="cls-4" cx="50" cy="50" r="31.88"></circle><path class="cls-4" d="m18.11,32.07l3.11.47-.26.47-.79-.11-.6,1.07.52.6-.25.45-2.05-2.37.31-.56h0Zm.24.5v.02l.94,1.07.48-.86-1.42-.22Z"></path><path class="cls-4" d="m22.43,30.76l-2.36-.75h0l1.91,1.38-.28.4-2.39-1.71.46-.65,2.4.82h0l-1.55-2.01.44-.62,2.39,1.71-.28.4-1.91-1.36h0l1.48,1.97-.31.44h0Z"></path><path class="cls-4" d="m24.35,26.3l-.74.84.66.58.9-1.01.32.28-1.24,1.39-2.2-1.96,1.18-1.33.31.28-.83.94.6.54.74-.84.31.28h0Z"></path><path class="cls-4" d="m26.14,24.61l-.03.03-.34.31.84.9-.37.35-2.02-2.15.82-.77c.54-.51.96-.42,1.28-.08.21.22.4.57.14,1.03l1.37.49-.4.37-1.29-.47Zm-.35-.21c.32-.31.41-.55.17-.82-.23-.24-.44-.18-.72.09l-.35.33.63.67.29-.27h-.02Z"></path><path class="cls-4" d="m29.02,23.3l.25-.2.21.28-.9.72-.21-.28.25-.2-1.4-1.76-.24.2-.21-.28.9-.72.21.28-.25.21,1.4,1.76h0Z"></path><path class="cls-4" d="m31.32,20.84l.44-.24c.34.6.15,1.13-.38,1.49-.67.45-1.3.29-1.86-.54-.6-.88-.42-1.59.24-2.04.57-.38,1.12-.28,1.5.31l-.41.31c-.32-.47-.62-.44-.87-.27-.36.24-.49.67-.02,1.37.42.63.8.76,1.19.49.31-.21.38-.51.17-.88h0Z"></path><path class="cls-4" d="m33.04,17.61l2.36,2.07-.47.25-.6-.52-1.08.58.11.78-.45.24-.44-3.11.57-.31Zm-.08.55h-.02l.22,1.42.87-.47-1.08-.96Z"></path><path class="cls-4" d="m34.73,16.78l.44-.2.18.39.06.73-.2.03-.1-.54-.16.07-.22-.48h0Z"></path><path class="cls-4" d="m37.91,16.46c-.16-.34-.39-.44-.73-.31-.29.11-.41.28-.31.54.11.3.41.27.73.21.45-.07.99-.18,1.22.44.21.54-.07,1.03-.7,1.26-.67.25-1.11.13-1.41-.43l.47-.26c.15.28.36.46.79.3.37-.14.47-.37.37-.63-.12-.32-.44-.24-.82-.18-.44.07-.94.13-1.16-.45-.19-.51.08-.97.7-1.2.59-.22,1.01-.07,1.3.46l-.46.26h0Z"></path><path class="cls-4" d="m42.92,15.85l-1.07.24.28,1.22-.5.11-.67-2.87,1.72-.4.09.41-1.22.28.2.85,1.07-.24.09.4h0Z"></path><path class="cls-4" d="m45.11,13.76l1.51,2.76-.53.08-.38-.7-1.21.18-.16.77-.5.08.64-3.07.64-.09h0Zm-.26.49h-.02l-.28,1.41.98-.14-.68-1.26h0Z"></path><path class="cls-4" d="m48.95,14.35c-.05-.37-.24-.54-.6-.52-.31.02-.48.14-.47.42.02.32.3.38.63.44.45.08.99.15,1.03.8.02.57-.38.95-1.05.98-.71.03-1.09-.22-1.2-.85l.53-.1c.06.32.2.54.66.52.39-.02.57-.21.55-.47-.02-.34-.34-.37-.72-.43-.44-.07-.93-.17-.96-.79-.02-.54.38-.9,1.03-.93.63-.03.98.25,1.09.83l-.51.11h0Z"></path><path class="cls-4" d="m51.32,13.86l-.86-.04.02-.42,2.25.09-.02.42-.87-.04-.1,2.52-.51-.02.1-2.52h0Z"></path><path class="cls-4" d="m55.37,15.45l-1.12-.15-.11.87,1.34.17-.05.42-1.84-.24.37-2.92,1.76.23-.05.42-1.25-.16-.1.8,1.12.15-.05.41h0Z"></path><path class="cls-4" d="m58.4,15.3c.05-.37-.09-.58-.44-.66-.31-.07-.5,0-.56.28-.07.31.19.44.49.58.41.19.92.4.78,1.03-.12.56-.62.82-1.27.67-.7-.15-1-.5-.94-1.13l.54.04c-.02.32.05.58.5.68.38.08.6-.05.66-.31.08-.34-.24-.44-.58-.6-.41-.18-.86-.41-.72-1.02.11-.54.6-.77,1.24-.63.61.14.88.5.83,1.09l-.52-.03h0Z"></path><path class="cls-4" d="m60.8,15.45l-.83-.26.13-.41,2.15.68-.13.41-.83-.26-.77,2.41-.49-.15.77-2.41h0Z"></path><path class="cls-4" d="m62.16,17.62l.14-.36,1.03.41-.14.36-1.03-.41Z"></path><path class="cls-4" d="m65.63,18.5l.98.48-.67,1.37-.34-.16.15-.37c-.27.14-.6.15-.92,0-.67-.33-.86-.97-.44-1.83.49-.99,1.19-1.19,1.92-.83.59.29.78.76.48,1.41l-.47-.22c.2-.45.06-.68-.24-.83-.37-.18-.81-.08-1.18.67-.34.7-.24,1.09.18,1.3.34.17.71.08.9-.31l.02-.04-.56-.28.18-.35h0Z"></path><path class="cls-4" d="m68.52,20.4l-.04-.02-.39-.24-.64,1.04-.44-.27,1.55-2.5.96.59c.64.39.65.82.41,1.21-.16.26-.44.53-.96.4l-.12,1.45-.47-.29.13-1.36h0Zm.11-.4c.37.24.64.25.83-.05.18-.28.06-.47-.27-.67l-.41-.25-.48.77s.34.21.34.21Z"></path><path class="cls-4" d="m70.47,21.37c.59-.77,1.35-.9,2.02-.38.67.5.65,1.2.08,1.94-.6.79-1.3.97-2,.44-.69-.53-.69-1.23-.11-1.99Zm1.66,1.23c.43-.56.47-.99.08-1.29-.4-.31-.86-.18-1.3.38s-.49,1.03-.08,1.34.84.16,1.29-.43Z"></path><path class="cls-4" d="m74.07,26.37l1.09-1.97h0l-1.91,1.16-.47-.46,1.53-2.62.39.38-1.34,2.12h0l2.16-1.32.37.36-1.24,2.23h0l2.1-1.38.37.36-2.59,1.59-.47-.46h.02Z"></path><path class="cls-4" d="m76.4,28.42l.21.24-.27.22-.74-.89.27-.22.21.24,1.72-1.45-.21-.24.27-.22.74.89-.27.22-.21-.25-1.72,1.45h0Z"></path><path class="cls-4" d="m78.07,31.23l1.09-2.3v-.02l-1.82,1.27-.28-.39,2.41-1.69.35.5-1.12,2.3h0l1.84-1.29.28.39-2.41,1.69-.34-.48h0Z"></path><path class="cls-4" d="m80.93,33.08l.53.96-1.34.74-.18-.33.34-.21c-.3-.04-.58-.22-.75-.53-.37-.66-.15-1.29.68-1.75.97-.54,1.66-.3,2.06.41.32.58.18,1.08-.37,1.41l-.28-.44c.41-.25.42-.52.26-.82-.2-.36-.62-.53-1.35-.12-.67.37-.83.76-.6,1.17.18.34.54.47.93.25l.04-.02-.3-.54.34-.19v.02Z"></path><path class="cls-4" d="m24.14,75.97l-.37-.36,2.07-2.1.8.78c.54.54.44.96.11,1.31-.27.28-.8.62-1.52-.08l-.32-.31s-.76.77-.76.77Zm1.31-.79c.33.32.61.35.89.07.24-.24.21-.46-.08-.76l-.34-.33-.73.75.28.27h0Z"></path><path class="cls-4" d="m28.02,77.8l-.04-.03-.36-.29-.77.96-.4-.32,1.84-2.3.88.7c.58.47.55.9.26,1.25-.19.24-.5.47-.99.28l-.29,1.42-.43-.34.29-1.34v.02Zm.16-.38c.34.28.6.33.83.05.21-.26.11-.46-.19-.7l-.38-.31-.57.71.31.24h0Z"></path><path class="cls-4" d="m30.21,80.48l.27.18-.19.29-.96-.64.19-.29.27.18,1.25-1.87-.26-.18.19-.29.96.64-.19.29-.27-.18-1.25,1.87h0Z"></path><path class="cls-4" d="m34.75,80.12l.47.25-2.33,2.09-.57-.31.47-3.1.5.27-.46,2.57h0l1.91-1.78Z"></path><path class="cls-4" d="m37.31,81.29l-.13,3.14-.49-.21.03-.8-1.13-.47-.54.58-.47-.2,2.13-2.3.59.25h.02Zm-.47.29h-.02l-.96,1.05.91.38.07-1.44h0Z"></path><path class="cls-4" d="m39.53,82.56l-.83-.26.13-.4,2.15.68-.13.4-.83-.26-.77,2.41-.49-.15.77-2.41h0Z"></path><path class="cls-4" d="m43.39,84.82l-1.1-.24-.18.86,1.32.28-.09.41-1.82-.39.62-2.88,1.74.37-.09.41-1.23-.27-.17.79,1.1.24-.08.41Z"></path><path class="cls-4" d="m48.51,85.71l.5.07c-.09.69-.57.99-1.21.95-.8-.05-1.21-.56-1.15-1.56.07-1.06.64-1.52,1.44-1.47.69.05,1.06.45,1,1.16h-.51c.03-.57-.23-.72-.54-.73-.44-.03-.8.23-.85,1.08-.05.75.18,1.09.64,1.12.38.02.61-.18.67-.6h0Z"></path><path class="cls-4" d="m50.36,85.3c-.05-.96.45-1.55,1.29-1.59.83-.04,1.27.5,1.31,1.43.05.99-.37,1.58-1.25,1.61-.86.04-1.32-.5-1.36-1.45h0Zm2.06-.12c-.03-.7-.28-1.06-.77-1.04-.5.02-.78.41-.74,1.13.03.71.28,1.09.8,1.07.52-.02.74-.42.71-1.16Z"></path><path class="cls-4" d="m55.96,86.27l-1.14-2.19h-.02l.39,2.32-.48.08-.49-2.91.78-.13,1.12,2.27h0l.32-2.52.75-.13.49,2.91-.48.08-.39-2.31h-.02l-.34,2.44-.53.09.02-.02Z"></path><path class="cls-4" d="m59.96,85.39l-.49.15-.83-2.82,1.06-.31c.73-.21,1.06.08,1.19.54.11.37.15,1-.82,1.29l-.43.13.31,1.04h0Zm-.05-1.53c.44-.13.6-.37.5-.74-.1-.33-.3-.41-.7-.3l-.45.13.3,1.01.37-.11h0Z"></path><path class="cls-4" d="m62.86,81.29l2.12,2.33-.49.2-.54-.58-1.14.45.02.79-.47.19-.1-3.14.6-.24Zm-.14.54h-.02l.06,1.44.92-.37-.96-1.06h0Z"></path><path class="cls-4" d="m67.86,82.15l-2.15-1.35h-.02l1.05,1.96-.42.23-1.39-2.59.54-.29,2.15,1.4h0l-1.06-1.99.43-.23,1.39,2.59-.52.28Z"></path><path class="cls-4" d="m70.27,80.26l.27-.18.19.29-.96.64-.19-.29.27-.18-1.24-1.87-.27.18-.19-.29.96-.64.19.29-.27.18,1.24,1.87Z"></path><path class="cls-4" d="m72.52,77.4l-.88.7.54.69,1.06-.83.26.34-1.46,1.16-1.82-2.32,1.39-1.1.26.33-.99.78.5.64.88-.7.25.32h0Z"></path><path class="cls-4" d="m74.37,74.74c-.28-.24-.54-.25-.79,0-.23.21-.27.42-.08.62.22.23.47.09.76-.08.39-.24.84-.54,1.29-.07.4.41.34.96-.15,1.43-.51.49-.97.55-1.47.15l.34-.42c.25.2.5.28.84-.04.28-.27.29-.52.11-.72-.24-.24-.5-.05-.83.15-.37.23-.81.48-1.25.03-.37-.4-.3-.93.17-1.38.46-.44.9-.45,1.37-.08,0,0-.32.41-.32.41Z"></path><path d="m50.57,19.27h-.4l-.05,18.6h.16l.28-18.59h0Zm-3.71.17h-.21c-.05,0-.11.02-.16.02l2.18,18.47c.05,0,.11-.02.15-.02l-1.94-18.49h0l-.02.02Zm-3.66.61h-.04s-.06.02-.09.02h-.05c-.07.02-.15.03-.21.05l4.4,18.07c.05-.02.1-.02.15-.04l-4.16-18.13h0v.02Zm-3.57,1.05c-.12.05-.25.09-.37.14l6.56,17.4s.1-.04.15-.05l-6.34-17.48h0Zm-3.41,1.48c-.05.03-.11.05-.17.08h0s-.02,0-.02,0h-.02s-.02,0-.02.02h0s-.02,0-.02,0h0s0,0-.02,0h-.02s0,0-.02,0h-.02s-.02,0-.02.02l8.62,16.47s.09-.05.14-.07l-8.44-16.55h0Zm-3.21,1.88s-.05.04-.08.05h0c-.08.05-.15.1-.22.15h0l10.55,15.32s.08-.06.13-.09l-10.35-15.45h0l-.02.02Zm-2.96,2.25s-.04.03-.05.05h0c-.08.08-.15.15-.23.21l12.31,13.93s.08-.07.12-.11l-12.13-14.09h0Zm-2.66,2.59s-.08.09-.13.15h0l-.02.02h0s0,0,0,.02h0s0,0,0,.02h0s0,0,0,.02h0l-.02.02h0s-.03.04-.05.05l13.89,12.36s.07-.08.11-.11l-13.76-12.52h0Zm-2.33,2.89c-.06.08-.11.17-.18.24-.02.02-.04.05-.05.08l15.28,10.6s.06-.08.09-.13l-15.14-10.8h0Zm-1.97,3.15c-.06.11-.12.24-.19.35l16.45,8.68s.05-.09.08-.14l-16.34-8.89h0Zm-1.58,3.37s-.02.05-.02.07h0v.03h0c-.04.09-.07.18-.11.27l17.38,6.62s.04-.1.05-.15l-17.29-6.84h-.02Zm-1.16,3.53c-.02.07-.04.14-.05.21l-.05.18,18.06,4.45c.02-.05.02-.1.04-.15l-18-4.69h0Zm-.72,3.65s0,.04,0,.06h0v.02c-.02.11-.03.21-.04.32l18.46,2.23c0-.05.02-.11.02-.15l-18.43-2.48h0Zm18.32,3.96l-18.59-.26v.4l18.6.02v-.16h0Zm.07,1.49l-18.49,1.97c0,.08.02.16.03.24h0v.03h0s0,.08.02.11l18.46-2.2c0-.05-.02-.11-.02-.15h0Zm.24,1.44l-18.12,4.19v.02c.03.12.05.24.08.36h0v.02l18.06-4.43c-.02-.05-.02-.1-.04-.15h0Zm.41,1.39l-17.48,6.37c.05.11.08.23.13.34v.02h0s17.39-6.58,17.39-6.58c-.02-.05-.04-.1-.05-.15h0Zm.58,1.34l-16.57,8.43h0c.05.09.09.18.14.26h0v.02s.02.05.04.08l16.47-8.65s-.05-.09-.07-.14h0Zm.74,1.27l-15.43,10.38s.04.05.05.08h0s0,0,0,.02c.05.08.11.15.16.23l15.3-10.57s-.06-.08-.09-.13h0Zm.9,1.18l-14.08,12.15s.04.05.05.06h0s0,0,0,.02h0s0,0,0,.02h0s0,0,0,.02h0c.05.05.09.11.14.16l13.92-12.33s-.07-.08-.11-.12h0l.04.04Zm1.4.65l-12.88,14.16s.05.05.08.08c.05.04.08.08.13.11.02.02.05.05.08.07l12.7-14.32s-.08-.07-.11-.11h0Zm1.11.89l-11.1,15.61s.04.03.05.04h0s.05.03.06.05h0c.06.05.12.08.18.12l10.9-15.75s-.08-.06-.13-.09h0l.02.02Zm.93,1.22l-8.87,16.35c.11.06.24.12.35.19l8.65-16.46s-.09-.05-.14-.08h0Zm1.32.61l-6.82,17.3c.08.03.15.06.23.09h0s.08.03.13.05l6.59-17.39s-.1-.04-.15-.05h0Zm1.38.45l-4.67,18s.05.02.07.02h.03c.09.02.18.05.28.07l4.43-18.06c-.05-.02-.1-.02-.15-.04h0v.02Zm1.43.28l-2.45,18.43c.13.02.26.03.4.05l2.21-18.46c-.05,0-.11-.02-.16-.02h0Zm1.65.11h-.16l-.23,18.59h.4v-18.6h0Zm1.48-.09c-.05,0-.11.02-.15.02l1.99,18.49c.13-.02.27-.03.4-.05l-2.23-18.46h0Zm1.44-.26c-.05.02-.1.02-.15.04l4.22,18.11c.07-.02.14-.03.21-.05h.08s.05-.02.08-.02l-4.45-18.06h0l.02-.02Zm1.38-.44s-.1.04-.15.05l6.39,17.47s.08-.03.11-.05h.04c.07-.02.14-.05.21-.08l-6.62-17.38h0l.02-.02Zm.86-1.57s-.09.05-.14.07l8.93,17.53h0s0,0,.02,0t0,0c.07-.03.13-.07.2-.1h.02s.08-.04.11-.06l-9.14-17.41h0v-.02Zm1.17-.62s-.08.06-.13.09l10.95,16.24s.08-.05.11-.08h0s0,0,.02,0c0,0,0,0,.02,0h0c.05-.04.11-.08.16-.11,0,0,.02,0,.02-.02l-11.15-16.11h0Zm1.72-.09s-.08.07-.12.11l12.17,14.06s.02-.02.04-.03h0s0,0,.02,0h0s0,0,0,0c0,0,0,0,.02,0h0l.02-.02h0s.08-.07.11-.1h0s0-.02.02-.02h0s.04-.03.05-.05l-12.35-13.9h0v-.03Zm1.05-1.05s-.07.08-.11.11l13.77,12.49c.09-.1.18-.2.27-.3l-13.93-12.32h0Zm.91-1.16s-.06.08-.09.13l15.17,10.75c.05-.07.09-.13.14-.2h0s0,0,0-.02h0s0,0,0-.02h0s.04-.06.06-.09l-15.31-10.56h.02Zm.76-1.25s-.05.09-.08.14l16.36,8.84c.06-.11.12-.24.18-.35l-16.47-8.63h0Zm.6-1.33s-.04.1-.05.15l17.31,6.79s.03-.07.05-.11h0v-.03h0c.02-.07.05-.13.08-.2,0,0,0-.02,0-.03l-17.4-6.56h0Zm.43-1.38c-.02.05-.02.1-.04.15l18.01,4.64c.03-.13.07-.26.1-.39l-18.06-4.4h0Zm.26-1.44c0,.05-.02.11-.02.16l18.44,2.43s0-.04,0-.06c.02-.11.03-.22.04-.34l-18.47-2.19h0Zm18.68-1.53l-18.6.03v.16l18.59.21v-.34h0v-.06h0Zm-.23-3.71l-18.46,2.26c0,.05.02.11.02.15l18.49-2.02s0-.05,0-.08c-.02-.11-.02-.21-.04-.31h0Zm-.67-3.66l-18.05,4.48c.02.05.02.1.04.15l18.1-4.25s-.02-.08-.03-.11h0c-.02-.09-.05-.18-.06-.27h0Zm-1.12-3.55l-17.37,6.64s.04.1.05.15l17.45-6.41s-.03-.09-.05-.14h0c-.03-.08-.05-.15-.08-.23h0Zm-1.54-3.38l-16.43,8.7s.05.09.07.14l16.55-8.49c-.05-.08-.09-.18-.14-.26,0,0,0,0,0-.02h0s-.02-.05-.04-.08h0Zm-1.94-3.18l-15.27,10.61s.06.08.09.13l15.4-10.42s0-.02-.02-.02c-.03-.05-.06-.09-.09-.13h0s0,0,0-.02c0,0,0,0,0-.02h0s-.07-.09-.1-.15h0Zm-2.3-2.92l-13.89,12.37s.07.08.11.12l14.04-12.2s-.02-.02-.02-.03h0s0,0-.02-.02h0s0-.02-.02-.02h0s0-.02-.02-.02h0s0,0-.02-.02h0s0,0,0-.02h0c-.05-.05-.09-.11-.14-.16h0l-.02-.03Zm-2.63-2.62l-12.3,13.95s.08.07.11.11l12.48-13.79s-.05-.05-.08-.07h0s0,0-.02-.02c-.07-.06-.13-.11-.2-.18h0Zm-2.93-2.29l-10.54,15.33s.08.06.13.09l10.73-15.19c-.11-.08-.21-.15-.33-.23h0Zm-3.18-1.91l-8.61,16.49s.09.05.14.08l8.82-16.37h0c-.05-.03-.11-.06-.17-.09h0s0,0-.02,0h-.09s-.05-.02-.06-.03h0l-.02-.06Zm-3.4-1.51l-6.54,17.41s.1.04.15.05l6.77-17.32s-.07-.03-.11-.04h0c-.05-.02-.11-.04-.16-.06h-.02s-.05-.02-.08-.03h0Zm-3.55-1.09l-4.38,18.07c.05.02.1.02.15.04l4.61-18.02c-.13-.03-.26-.06-.39-.1h0Zm-3.66-.65l-2.16,18.47c.05,0,.11.02.16.02l2.39-18.44s-.06,0-.1-.02h0c-.08,0-.15-.02-.23-.03h-.06Z"></path><path class="cls-4" d="m77.74,72.04l-.38-.31c4.97-6.24,7.59-13.76,7.59-21.74,0-4.65-.9-9.17-2.69-13.44l.45-.19c1.81,4.33,2.72,8.91,2.72,13.63,0,8.09-2.66,15.71-7.7,22.04Z"></path><path class="cls-4" d="m22.26,72.04c-5.03-6.33-7.7-13.95-7.7-22.04,0-4.72.92-9.3,2.72-13.63l.45.19c-1.78,4.27-2.69,8.79-2.69,13.44,0,7.98,2.62,15.49,7.59,21.74,0,0-.38.31-.38.31Z"></path><path class="cls-4" d="m77.73,72.04l-.37-.29c4.97-6.24,7.6-13.76,7.6-21.74,0-4.65-.9-9.18-2.69-13.44l.44-.18c1.81,4.33,2.72,8.91,2.72,13.63,0,8.09-2.66,15.71-7.7,22.04h0Z"></path><path class="cls-4" d="m22.27,72.04c-5.03-6.33-7.7-13.95-7.7-22.04,0-4.71.92-9.3,2.72-13.63l.44.18c-1.78,4.27-2.69,8.79-2.69,13.44,0,7.98,2.62,15.49,7.6,21.74l-.37.29h0Z"></path><path class="cls-4" d="m69.07,48.22c-.8-.06-1.49-.55-1.81-1.29l-.11-.25-.2.19c-1.06,1.04-2.69,1.57-4.8,1.57s-4.07-.66-5.33-1.81l-.32-.29v1.84h-26.34v-3.9h1.78v-6.52h-1.78v-4.12h10.41v3.2h6.14l.33,1.35.31-.23c.92-.7,2-1.02,3.39-1.02,2.68,0,4.28,1.18,4.52,3.32l.08.68.29-.62c1.17-2.51,4.13-3.41,6.51-3.41h.24c2.62,0,5.54,1.25,5.91,4.75l.05.46-4.96.54-.02-.5c-.07-1.53-.5-1.84-1.16-1.84-1.05,0-1.38.57-1.38,2.34s.34,2.37,1.38,2.37c.77,0,1.23-.43,1.23-1.15v-.47h4.97l-.07.7.28-.09c.21-.07.42-.1.64-.1,1.19,0,2.16.96,2.16,2.16,0,1.11-.83,2.04-1.94,2.14h-.37.02Zm.15,4.48c-.86,0-1.29.64-1.29,4.24s.41,4.24,1.29,4.24,1.29-.64,1.29-4.24-.41-4.24-1.29-4.24Zm-13.02,0c-.87,0-1.29.64-1.29,4.24s.41,4.24,1.29,4.24,1.28-.64,1.28-4.24-.41-4.24-1.28-4.24Zm-13.02,0c-.87,0-1.29.64-1.29,4.24s.41,4.24,1.29,4.24,1.28-.64,1.28-4.24-.41-4.24-1.28-4.24Zm-13.96,5.33l.45.35-.13.32c-.21.42-.33,1.36,0,1.91.17.27.42.4.8.4.75,0,1.18-.34,1.35-1.07.05-.22.08-.47.08-.74,0-.73-.19-1.31-.54-1.65-.25-.24-.59-.37-.98-.37-.64,0-1.28.25-1.97.78l-.18.08-3.58-1.43,1.09-7.87h10.23v4.54h-6.51l-.13.96.31-.13c.6-.26,1.28-.39,2-.39,1.66,0,2.98.44,3.92,1.32.27.25.5.54.71.87l.31.5.04-.6c.32-4.64,2.69-7.19,6.68-7.19,3.26,0,5.45,1.71,6.33,4.93l.19.69.18-.69c.84-3.22,3.03-4.93,6.33-4.93s5.45,1.71,6.33,4.93l.19.69.18-.69c.83-3.18,2.97-4.87,6.18-4.93h.39c4.13.11,6.5,3.14,6.5,8.32s-2.46,8.35-6.75,8.35c-3.26,0-5.45-1.72-6.31-4.98l-.18-.69-.18.69c-.87,3.26-3.07,4.98-6.34,4.98s-5.45-1.72-6.31-4.98l-.18-.69-.18.69c-.87,3.26-3.07,4.98-6.34,4.98-2.98,0-5.16-1.55-6.13-4.37l-.19-.55-.18.55c-.14.43-.31.84-.54,1.22-.34.59-.75,1.09-1.24,1.51-1.28,1.08-2.84,1.63-4.65,1.63-2.64,0-5.65-1.4-6-4.47l-.04-.32,5-2.45h-.02Zm19.43-17.28c-.83,0-1.45.6-1.45,1.42v2.1h2.5v-2.64c0-.59-.36-.89-1.06-.89h0Zm-9.85,3.53h2.81v-3.54h-1.34v-2.98h-1.47s0,6.52,0,6.52Z"></path><path class="cls-3" d="m43.2,49.04c-3.96,0-6.26,2.64-6.26,7.86s2.3,7.88,6.26,7.88,6.28-2.71,6.28-7.88-2.37-7.86-6.28-7.86Zm.02,12.57c-1.44,0-1.75-1.39-1.75-4.71s.31-4.71,1.75-4.71,1.75,1.39,1.75,4.71-.31,4.71-1.75,4.71Z"></path><path class="cls-6" d="m56.22,49.04c-3.96,0-6.26,2.64-6.26,7.86s2.3,7.88,6.26,7.88,6.28-2.71,6.28-7.88-2.37-7.86-6.28-7.86Zm.02,12.57c-1.44,0-1.75-1.39-1.75-4.71s.31-4.71,1.75-4.71,1.75,1.39,1.75,4.71-.31,4.71-1.75,4.71Z"></path><path class="cls-2" d="m69.25,49.04c-3.96,0-6.26,2.64-6.26,7.86s2.3,7.88,6.26,7.88,6.28-2.71,6.28-7.88-2.37-7.86-6.28-7.86Zm.02,12.57c-1.44,0-1.75-1.39-1.75-4.71s.31-4.71,1.75-4.71,1.75,1.39,1.75,4.71-.31,4.71-1.75,4.71Z"></path><path class="cls-5" d="m35.14,55.33c-.8-.74-1.96-1.19-3.6-1.19s-2.52.72-2.92,1.06l.33-2.43h6.45v-3.6h-9.36l-.99,7.15,2.73,1.42c.47-.39,1.35-1.06,2.49-1.06.5,0,.96.17,1.31.5.42.41.69,1.06.69,1.98,0,.32-.03.6-.08.85-.23,1.03-.92,1.43-1.8,1.43-1.77,0-1.61-2.2-1.22-2.98l-.02-.02-4.38,2.28c.32,2.79,3.14,4.06,5.53,4.06,1.55,0,3.07-.43,4.35-1.52.46-.39.83-.86,1.13-1.38.49-.86.76-1.86.76-2.79,0-1.49-.41-2.85-1.38-3.76l-.02.02Z"></path><polygon points="30.67 47.7 30.67 44.73 32.44 44.73 32.44 37.28 30.67 37.28 30.67 34.08 40.15 34.08 40.15 37.28 38.36 37.28 38.36 44.73 40.15 44.73 40.15 47.7 30.67 47.7"></polygon><path d="m48.83,47.7v-2.97h1.38v-3.11c0-.93-.67-1.35-1.53-1.35-1.09,0-1.91.8-1.91,1.89v2.57h1.42v2.97h-7.41v-2.97h1.34v-4.48h-1.34v-2.97h5.85v2.05c.09-.08.19-.19.27-.28,1.07-1.22,2.3-1.66,3.89-1.66,2.26,0,4.09.92,4.09,3.42v3.93h1.2v2.97h-7.24,0Z"></path><path d="m67.86,41.68l-4,.44c-.05-1.11-.28-2.29-1.63-2.29-1.72,0-1.85,1.43-1.85,2.81h0v.03c0,1.38.13,2.81,1.85,2.81.9,0,1.7-.52,1.7-1.61h3.99l-.03.34c-.66,3.24-3.58,3.75-5.68,3.75-3.31,0-6.55-1.62-6.55-5.31h0c0-3.67,3.24-5.3,6.55-5.3,0,0,5.18-.34,5.67,4.33h0Z"></path><path d="m70.96,46.06c0,.93-.76,1.68-1.69,1.68s-1.69-.76-1.69-1.68.76-1.69,1.69-1.69,1.69.76,1.69,1.69Z"></path><path class="cls-7" d="m50,100C22.43,100,0,77.57,0,50S22.43,0,50,0s50,22.43,50,50-22.43,50-50,50ZM50,.53C22.72.53.53,22.72.53,50s22.19,49.47,49.47,49.47,49.47-22.19,49.47-49.47S77.28.53,50,.53Z"></path></svg> 