<?xml version="1.0" encoding="UTF-8"?> <svg xmlns="http://www.w3.org/2000/svg" xmlns:xlink="http://www.w3.org/1999/xlink" id="Calendar" width="100" height="100" viewBox="0 0 100 100"><defs><style>.cls-1{fill:url(#linear-gradient);opacity:.2;}.cls-2{fill:#c83393;}.cls-3{fill:#222;}.cls-4{fill:#3a357e;}.cls-5{fill:url(#linear-gradient-2);}</style><linearGradient id="linear-gradient" x1="4.86" y1="50" x2="95.14" y2="50" gradientUnits="userSpaceOnUse"><stop offset="0" stop-color="#3a357e"></stop><stop offset="1" stop-color="#c83393"></stop></linearGradient><linearGradient id="linear-gradient-2" x1="0" y1="50" x2="100" y2="50" xlink:href="#linear-gradient"></linearGradient></defs><circle class="cls-1" cx="50" cy="50" r="45.14"></circle><path class="cls-5" d="m50,100C22.43,100,0,77.57,0,50S22.43,0,50,0s50,22.43,50,50-22.43,50-50,50ZM50,.53C22.72.53.53,22.72.53,50s22.19,49.47,49.47,49.47,49.47-22.19,49.47-49.47S77.28.53,50,.53Z"></path><path class="cls-2" d="m70.94,39.38H29.06c-.54,0-.98-.44-.98-.98s.44-.98.98-.98h41.87c.54,0,.98.44.98.98s-.44.98-.98.98Z"></path><path class="cls-4" d="m70.94,28.9h-6.24v-3.38c0-.54-.44-.98-.98-.98h-4.36c-.54,0-.98.44-.98.98v3.38h-16.74v-3.38c0-.54-.44-.98-.98-.98h-4.36c-.54,0-.98.44-.98.98v3.38h-6.24c-.54,0-.98.44-.98.98v40.13c0,.54.44.98.98.98h41.87c.54,0,.98-.44.98-.98V29.89c0-.54-.44-.98-.98-.98Zm-10.6-2.4h2.4v6.76h-2.4v-6.76Zm-23.06,0h2.4v6.76h-2.4v-6.76Zm32.69,42.53H30.04V30.87h5.26v3.38c0,.54.44.98.98.98h4.36c.54,0,.98-.44.98-.98v-3.38h16.74v3.38c0,.54.44.98.98.98h4.36c.54,0,.98-.44.98-.98v-3.38h5.26v38.17Z"></path><path class="cls-3" d="m33.21,60.06l.98-2.35c1.13.57,2.09.96,3.41.96,1.11,0,1.99-.71,1.99-1.88,0-1.32-.59-2.07-2.07-2.07h-1.55v-2.35h1.7c1.28,0,1.84-.63,1.82-1.76-.02-1.03-.57-1.63-1.59-1.63-1.32,0-2.35.21-3.52.67l-.8-2.18c1.38-.8,2.74-1.24,4.59-1.24,3.18,0,4.56,1.91,4.56,4.25,0,.94-.36,2.14-1.4,2.89,1.07.67,1.65,2.22,1.65,3.29v.27c0,2.6-1.82,4.54-5.07,4.54-1.84,0-3.39-.52-4.71-1.42Z"></path><path class="cls-3" d="m50.04,46.24c1.84,0,3.58.67,4.9,1.57l-1.17,2.18c-1.13-.57-2.16-.98-3.48-.98s-2.03.82-2.03,2.22v1.44c.52-.29,1.55-.52,2.43-.52,2.18,0,4.46,1.09,4.46,4.25v.59c0,2.97-2.07,4.5-5.07,4.5s-5.09-1.4-5.09-4.4v-6.11c0-2.89,2.03-4.73,5.05-4.73Zm-1.78,10.64c0,1.38.73,1.84,1.82,1.84s1.84-.54,1.84-1.97c0-1.26-.52-1.82-1.7-1.82-.84,0-1.44.17-1.97.48v1.47Z"></path><path class="cls-3" d="m58.4,46.54h7.77v2.76h-4.9l-.36,3.02c.5-.27,1.13-.4,1.74-.4,2.53,0,4.23,1.4,4.23,4.46v.63c0,2.62-1.82,4.48-5.07,4.48-1.84,0-3.43-.52-4.75-1.42l.98-2.35c1.13.57,2.22.96,3.54.96,1.11,0,1.95-.69,1.95-1.78v-.31c0-1.38-.71-1.95-1.8-1.95-.8,0-1.61.27-2.3.73l-1.93-1.44.9-7.39Z"></path></svg> 