<?xml version="1.0" encoding="UTF-8"?> <svg xmlns:xlink="http://www.w3.org/1999/xlink" xmlns="http://www.w3.org/2000/svg" id="Layer_1" data-name="Layer 1" viewBox="0 0 934 324" width="934" height="324"><defs><style> .cls-1 { fill: #ecebea; } </style></defs><g><path class="cls-1" d="M19.26,149.38H0V100.21H19.26V77.27c0-50.81,26.63-73.75,77-73.75,15.16,0,31.55,2.45,43.43,6.55L130.3,58c-6.15-1.64-17.21-2.46-24.18-2.46-18,0-24.58,8.2-24.58,24.59v20.07H127v49.17H81.54v163.9H19.26Z"></path><path class="cls-1" d="M194.22,74.81c-20.9,0-36.47-10.24-36.47-33.19,0-23.35,15.57-34,36.47-34s37.29,10.66,37.29,34C231.51,64.57,215.12,74.81,194.22,74.81Zm31.55,25.4V313.28H163.49V100.21Z"></path><path class="cls-1" d="M247.89,100.21h66l38.93,133.17,37.28-133.17h65.56L379,313.28H324.1Z"></path><path class="cls-1" d="M559.71,317.38c-57,0-91.78-33.19-91.78-87.69V184.21c0-54.49,34.82-88.09,91.78-88.09s92.19,33.6,92.19,88.09v42.62H530.21v2.86c0,25.82,11.47,35.65,30.73,35.65,24.58,0,40.15-6.55,61.46-17.21l22.12,42.62C619.94,307.55,594.13,317.38,559.71,317.38Zm29.91-130.71v-2c0-24.17-9-36.47-29.91-36.47-19.26,0-30.73,11.07-30.73,36.47v2Z"></path></g></svg> 