<?xml version="1.0" encoding="UTF-8"?> <svg xmlns:xlink="http://www.w3.org/1999/xlink" xmlns="http://www.w3.org/2000/svg" id="Layer_1" data-name="Layer 1" viewBox="0 0 934 324" width="934" height="324"><defs><style> .cls-1 { fill: #ecebea; } </style></defs><g><path class="cls-1" d="M233.54,149.38H214.28V100.21h19.26V77.27c0-50.81,26.63-73.75,77-73.75,15.16,0,31.55,2.45,43.43,6.55L344.58,58c-6.15-1.64-17.21-2.46-24.18-2.46-18,0-24.58,8.2-24.58,24.59v20.07H341.3v49.17H295.82v163.9H233.54Z"></path><path class="cls-1" d="M364.66,183.8c0-54.49,34.83-87.68,91.78-87.68s92.19,33.19,92.19,87.68v45.89c.41,54.5-35.24,87.69-92.19,87.69s-91.78-33.19-91.78-87.69Zm62.28,41.39c-.41,25.81,10.24,39.33,29.5,39.33s30.32-13.52,29.91-39.33V188.31c0-25.81-10.65-39.34-29.91-39.34s-29.5,13.53-29.5,39.34Z"></path><path class="cls-1" d="M653.12,317.38c-49.58,0-64.33-29.91-64.33-84.41V100.21h62.28V228.46c0,25.82,4.92,36.06,20.49,36.06,14.34,0,27-7.78,32.37-19.67V100.21h62.28V313.28h-54.5l-4.51-17.62C692.45,309.18,670.33,317.38,653.12,317.38Z"></path><path class="cls-1" d="M809.23,100.21h54.49l5.33,22.13c12.7-13.11,38.93-26.22,59.82-26.22l4.92,56.54c-24.17,0-47.12,7.79-62.28,20.08V313.28H809.23Z"></path></g></svg> 