<?xml version="1.0" encoding="UTF-8"?> <svg xmlns="http://www.w3.org/2000/svg" id="Layer_1" width="100" height="31.12" viewBox="0 0 100 31.12"><defs><style>.cls-1{fill:#3a357e;}</style></defs><path class="cls-1" d="m7.75,31.08h2.33v-12.43h-2.33v12.43Zm8.53-.18h2.09v-7.85l8.77,8.03v-12.24h-2.08v7.71l-8.78-7.89v12.24Zm15.61-3.01c1.14.88,2.5,1.4,3.95,1.4s2.42-.49,2.42-1.57c0-.94-.63-1.31-1.75-1.72l-1.81-.63c-1.66-.59-2.92-1.46-2.92-3.44,0-2.12,1.91-3.27,4.2-3.27,1.4,0,2.68.35,3.68.98v2.11c-1.04-.77-2.17-1.29-3.63-1.29-1.25,0-2.19.47-2.19,1.45,0,.88.59,1.23,1.63,1.59l2.01.71c1.95.68,2.84,1.75,2.84,3.5,0,2.19-1.93,3.41-4.47,3.41-1.67,0-3.08-.47-3.95-1.06v-2.16h0Zm13.85,3.19h2.33v-12.43h-2.33v12.43Zm13.23-1.88c2.62,0,4.02-1.68,4.02-4.34s-1.4-4.35-4.02-4.35h-2.59v8.69h2.59Zm-4.71-10.54h4.79c3.68,0,6.07,2.43,6.07,6.21s-2.38,6.21-6.07,6.21h-4.79v-12.43h0Zm22.49,0v1.86h-5.63v2.99h5.05v1.84h-5.05v3.85h5.63v1.87h-7.76v-12.43h7.76v.02Zm8.25,5.63h2.31c1.37,0,2.14-.75,2.14-1.9s-.77-1.9-2.14-1.9h-2.31v3.81h0Zm0,1.76v5.04h-2.05v-12.43h4.4c2.51,0,4.14,1.29,4.14,3.73,0,2.08-.9,3.27-2.82,3.58l4.37,5.12h-2.34l-4.22-5.04s-1.48,0-1.48,0ZM6.94,6.41c.9-.33,1.61-1.33,1.61-2.71C8.55,1.41,6.93.22,4.35.22H0v12.78h4.76c2.59,0,4.2-1.27,4.2-3.66,0-1.35-.85-2.53-2.02-2.93Zm-4.9-.82v-3.5h2.29c1.44,0,2.2.52,2.2,1.73s-.77,1.77-2.2,1.77h-2.29Zm0,1.8h2.67c1.42,0,2.18.71,2.18,1.87s-.77,1.87-2.18,1.87h-2.67v-3.75h0Zm16.41,5.83c2.97,0,4.98-1.79,4.98-5.28V.22h-2.11v7.46c0,2.46-1.01,3.6-2.87,3.6s-2.87-1.15-2.87-3.6V.22h-2.11v7.68c0,3.52,2.03,5.31,4.98,5.31h0Zm9.93-1.13c.87.62,2.28,1.13,3.94,1.13,2.52,0,4.45-1.29,4.45-3.62,0-1.85-.89-2.98-2.84-3.71l-1.99-.75c-1.03-.37-1.62-.75-1.62-1.69,0-1.04.93-1.54,2.18-1.54,1.46,0,2.59.56,3.62,1.37V1.04c-.99-.67-2.26-1.04-3.66-1.04-2.28,0-4.18,1.22-4.18,3.48,0,2.1,1.25,3.02,2.91,3.64l1.8.67c1.12.44,1.74.84,1.74,1.84,0,1.15-.99,1.67-2.41,1.67s-2.82-.54-3.94-1.48c0,0,0,2.27,0,2.27ZM44.3.22h-2.11v12.78h2.11V.22Zm6.01,12.77h2.03V4.68l8.53,8.52V.2h-2.03v8.18L50.31,0v12.98h0ZM74.01.23v1.91h-5.46v3.08h4.89v1.89h-4.89v3.96h5.47v1.93h-7.53V.23h7.52Zm4.9,11.85c.87.62,2.28,1.13,3.94,1.13,2.52,0,4.45-1.29,4.45-3.62,0-1.85-.88-2.97-2.83-3.7l-2-.75c-1.03-.38-1.62-.75-1.62-1.69,0-1.04.93-1.54,2.18-1.54,1.46,0,2.59.56,3.62,1.37V1.05c-.99-.66-2.27-1.04-3.67-1.04-2.28,0-4.18,1.22-4.18,3.48,0,2.1,1.25,3.02,2.91,3.64l1.81.67c1.12.44,1.74.84,1.74,1.84,0,1.15-.99,1.67-2.41,1.67s-2.82-.54-3.94-1.48c0,0,0,2.25,0,2.25Zm12.7,0c.87.62,2.29,1.13,3.94,1.13,2.53,0,4.45-1.29,4.45-3.62,0-1.85-.89-2.98-2.84-3.71l-2-.75c-1.03-.38-1.62-.75-1.62-1.69,0-1.04.93-1.54,2.18-1.54,1.46,0,2.59.56,3.62,1.37V1.05c-.98-.66-2.25-1.04-3.65-1.04-2.29,0-4.18,1.22-4.18,3.48,0,2.1,1.25,3.02,2.91,3.64l1.81.67c1.12.44,1.74.84,1.74,1.84,0,1.15-.99,1.67-2.41,1.67s-2.82-.54-3.94-1.48v2.25h0Z"></path></svg> 