<?xml version="1.0" encoding="UTF-8"?> <svg xmlns="http://www.w3.org/2000/svg" id="Grapeshot" width="600" height="400" viewBox="0 0 600 400"><defs><style>.cls-1{fill:#fff;}</style></defs><path class="cls-1" d="m492.55,168.5c5.52,0,10-4.48,10-10s-4.48-10-10-10-10,4.48-10,10,4.48,10,10,10Z"></path><path class="cls-1" d="m211.81,230.54h-13.76l.14-7c-1.18,3.14-8.82,8.54-17.72,8.54-15.04,0-27.2-13.14-27.2-29.32-.42-16.16,12.34-29.62,28.5-30.04,16.16-.42,29.62,12.34,30.04,28.5v29.32Zm-29.16-43.83c-8,0-14.72,7-14.72,16.26-.52,8.1,5.62,15.06,13.72,15.58s15.06-5.62,15.58-13.72c.04-.62.04-1.26,0-1.88,0-8.88-6.5-16.26-14.58-16.26v.02Z"></path><path class="cls-1" d="m474.58,230.48h-14.56v-33.12c0-3.2-1.12-11.04-11.32-10.66-5.86.18-10.52,5-10.5,10.88v32.9h-14.58v-33.12c0-3.14-.98-10.74-10.64-10.74-5.74-.32-10.64,4.08-10.96,9.82v34.04h-14.58v-32.16c0-14.32,10-25.12,25.68-25.12,6.94-.24,13.62,2.72,18.12,8,4.58-5.18,11.2-8.1,18.12-8,16,0,25.3,10.36,25.3,25.12v32.16s-.08,0-.08,0Z"></path><path class="cls-1" d="m536.13,173.26c16,0,25.28,10.38,25.28,25.14v32.14h-14.56v-32.46c0-3.2-1.14-11.32-11.34-11.32-5.88,0-10.5,5.74-10.5,11.48v32.24h-14.56v-32.16c0-14.24,10.12-25.06,25.68-25.06Z"></path><path class="cls-1" d="m236.05,251.49v-26.54c4.46,4.58,10.58,7.16,16.98,7.12,15.02,0,27.02-13.16,27.02-29.42s-13.1-29.26-29.26-29.26-29.26,13.1-29.26,29.26v48.83h14.52Zm14.8-32.82c-8,0-14.72-7.08-14.72-16s6.64-16,14.72-16,14.58,6.86,14.58,16-6.5,16-14.58,16Z"></path><path class="cls-1" d="m145.74,230.48h-14.58v-32.4c0-3.28-1.06-11.4-10.5-11.4-6.08-.06-11.04,4.82-11.1,10.9v32.9h-14.58v-77.41h14.58v27.02c3.3-4.28,8.42-6.76,13.82-6.72,14,0,22.44,10,22.44,24.76v32.36h-.08Z"></path><path class="cls-1" d="m600,231.6c-18.36,1.7-29.46-8.22-29.46-23.58v-47.65h14.58v14.54h14.88v13.44h-14.88v19.84c0,7.82,6,10.8,14.88,10.36v13.06Z"></path><path class="cls-1" d="m344.03,208.08c.22-1.8.36-3.62.38-5.44,0-18.28-13.44-29.4-28-29.4-16.22.16-29.26,13.42-29.18,29.64,0,16.26,13.36,29.24,31.26,29.24,8.38,0,17.82-2.92,22.74-8.14l-7.1-10.36c-3.02,2.76-6.72,5.14-14.66,5.14-12.76,0-16.38-7.82-16.68-10.66h41.23v-.02Zm-41.37-10.62c1.14-6.4,6.8-11,13.3-10.8,9.2,0,13.52,6.18,14,10.96l-27.3-.16Z"></path><path class="cls-1" d="m499.87,230.48h-14.58v-55.57h14.58v55.57Z"></path><path class="cls-1" d="m382.45,186.7c-9.28-1.64-15.48,3.28-15.48,11.26v32.52h-14.56v-32.52c0-16,11.16-27.08,30-24.84,0,0,.04,13.58.04,13.58Z"></path><path class="cls-1" d="m62.07,233.9c16,.6,24.62-8.88,24.62-21.84s-13.74-17.02-20.46-19.26c-8.16-2.72-14.28-4.24-14.28-8.72,0-3.64,3.32-6,8.62-6,6.42.4,12.62,2.46,18,6l.46.3,6.42-11.34-.38-.22c-7.2-4.66-15.54-7.2-24.1-7.38-13.9,0-23.64,8.34-23.64,20.36,0,13.58,14,17.82,20.62,19.38,8.12,1.88,14.12,3.82,14.12,8.9,0,4-3.84,7.44-10,6.62-9.66-1.48-26.74-12.3-39.03-12.3-10.8,0-18.66,4.7-23.04,13.42l12,6c1.56-3.86,5.38-6.3,9.52-6.1,12.84-.04,25.16,11.58,40.55,12.18Z"></path></svg> 