<?xml version="1.0" encoding="UTF-8"?> <svg xmlns="http://www.w3.org/2000/svg" id="Reuters" width="600" height="400" viewBox="0 0 600 400"><defs><style>.cls-1{fill:#fff;}</style></defs><path class="cls-1" d="m472.12,158.27v83.09h-21.96v-67.13c0-1.72-2.1-3.15-3.26-3.71l25.22-12.26Zm-30.53,0v83.09h-21.97v-67.13c0-1.72-2.1-3.15-3.26-3.71l25.23-12.26Z"></path><path class="cls-1" d="m150.6,149.57h-65.6v100.79h31.34v-28.26l35.39-.26c26.34,0,42.39-16.96,42.39-36.41-.08-15.03-12.57-35.86-43.53-35.86Zm3.62,47.88h-2.48s-35.4,0-35.4,0l.14-23.36h34.53l2.65.09c4.47.16,9.49,5.12,9.49,11.19,0,7.06-6.12,12.08-8.93,12.08Z"></path><rect class="cls-1" x="200.35" y="149.31" width="31.36" height="101.22"></rect><polygon class="cls-1" points="375.82 149.96 336.17 149.96 308.04 178.97 281.21 149.96 238.42 149.96 286.89 198.85 234.61 250.36 275.04 250.36 306.64 218.06 337.06 250.36 378.16 250.36 328.19 198.06 375.82 149.96"></polygon><path class="cls-1" d="m459.49,251.71c-2.88,0-4.61-.17-4.63-.17h0s.01,0,.03,0c-2.98.51-6.05.77-9.19.77h0c-29.48,0-53.4-23.43-53.4-52.32,0-8.93,2.29-17.34,6.32-24.7,2.83-7.67,17.48-40.25,62.51-40.25,2.65,0,5.44.4,8.3,1.16-7.4-2.64-15.39-4.08-23.72-4.08-38.27,0-69.31,30.39-69.31,67.88s31.04,67.88,69.31,67.88c31.4,0,57.94-20.46,66.45-48.52-9.61,29.46-40.8,32.35-52.65,32.35Z"></path><path class="cls-1" d="m450.15,174.24v67.13h21.96v-83.09l-25.22,12.26c1.16.56,3.26,1.99,3.26,3.71Z"></path><path class="cls-1" d="m419.61,174.24v67.13h21.97v-83.09l-25.23,12.26c1.16.56,3.26,1.99,3.26,3.71Z"></path><path class="cls-1" d="m515,199.67c0-6.13-.87-12-2.43-17.54-1.8-6.48-4.55-12.57-8.11-18.13-6.02-9.53-14.01-17.18-22.31-22.22-6.72-2.7-14.08-4.19-21.79-4.19-3.47,0-6.87.3-10.17.88h0c-6.98.94-13.44,2.8-19.3,5.57-3.25,1.54-6.32,3.35-9.2,5.44-5.5,3.83-10.28,8.55-14.09,13.93,7.5-7.37,20.11-15.02,40.17-15.02,7.65,0,14.68,1.58,20.91,4.38,4.7,2.2,9.02,5.05,12.83,8.43,10.56,9.62,16.75,23.64,16.75,38.46,0,33.98-24.69,46.21-36.83,50.17,4.12-.32,8.13-1.05,11.96-2.14,5.67-1.08,11.94-3,17.77-6.37,1.52-.88,2.95-1.82,4.31-2.84.12-.09.24-.18.36-.27.18-.14.36-.28.54-.42.12-.09.24-.19.35-.28,6.96-5.58,12.55-12.74,16.23-20.91.98-3.68,1.64-7.75,1.91-12.24,0-.02,0-.05,0-.07.01-.23.03-.46.04-.69.06-1.19.1-2.39.1-3.6,0-.06,0-.12,0-.18,0-.05,0-.1,0-.15Z"></path></svg> 