<?xml version="1.0" encoding="UTF-8"?> <svg xmlns="http://www.w3.org/2000/svg" id="e3b5e55a-72f5-4941-9ae0-2ce9ad2823c9" data-name="b098e73f-40ee-48ee-9786-83a5f12ed541" width="600" height="400" viewBox="0 0 600 400"><defs><style>.e6f19e8f-2e02-4071-8a32-84349f62c930{fill:#3a357e;}</style></defs><path class="e6f19e8f-2e02-4071-8a32-84349f62c930" d="M42.88,211.09H68.45a27.7,27.7,0,0,1-7,20.88,21.88,21.88,0,0,1-16.06,6A24.67,24.67,0,0,1,28,231.37c-7.4-7.76-8.48-21.54-8.48-31.35s.9-23.16,8.36-30.86a25,25,0,0,1,17.57-7.28,21.61,21.61,0,0,1,17.09,6.5,16.57,16.57,0,0,1,4.69,9.8h20a32.76,32.76,0,0,0-9.81-21.84,44.57,44.57,0,0,0-31.83-12A45.94,45.94,0,0,0,13.7,156.88C2,168.38-.26,182.45-.26,200s2.71,31.89,14,43.56a40.92,40.92,0,0,0,31.89,12,31.36,31.36,0,0,0,27-13.83l2.29,12H87.35v-59H42.88Z"></path><path class="e6f19e8f-2e02-4071-8a32-84349f62c930" d="M122.48,186.42l-1.68-12h-16v79.18h19.08V213.92c0-12.69,6.91-22.26,20.27-22.26a33.86,33.86,0,0,1,6.5.78V174.39a40.34,40.34,0,0,0-6-.42A22.63,22.63,0,0,0,122.48,186.42Z"></path><path class="e6f19e8f-2e02-4071-8a32-84349f62c930" d="M190.11,173a33.93,33.93,0,0,0-25.09,10,44,44,0,0,0-11.37,31.46,42.83,42.83,0,0,0,12,31.47,34.36,34.36,0,0,0,24.85,9.68A33.66,33.66,0,0,0,217,244.48a30.76,30.76,0,0,0,6.68-14.5H205.63a14.46,14.46,0,0,1-3.79,6.68,14.64,14.64,0,0,1-11.49,3.73,16.45,16.45,0,0,1-11.67-4.81A20.94,20.94,0,0,1,173,220.12h52.65v-5.24a44.57,44.57,0,0,0-6.8-27.43A33.46,33.46,0,0,0,190.11,173ZM172.72,206.4a19.61,19.61,0,0,1,4.09-12,17.62,17.62,0,0,1,24.83-2.2l.32.27a20.24,20.24,0,0,1,4.81,13.78Z"></path><path class="e6f19e8f-2e02-4071-8a32-84349f62c930" d="M270.49,173a34,34,0,0,0-25.15,10A43.94,43.94,0,0,0,234,214.4a42.63,42.63,0,0,0,12,31.47,34.32,34.32,0,0,0,24.79,9.68,33.62,33.62,0,0,0,26.47-11.07A30.76,30.76,0,0,0,304,230H286a14.41,14.41,0,0,1-3.73,6.68,14.9,14.9,0,0,1-11.73,3.91,16.41,16.41,0,0,1-11.61-4.81,21,21,0,0,1-6-15.46h52.71v-5.24a44.29,44.29,0,0,0-6.8-27.43A33.33,33.33,0,0,0,270.49,173ZM253.1,206.4a19.2,19.2,0,0,1,4.09-12,16,16,0,0,1,13.18-6,15.77,15.77,0,0,1,12.15,4.09,20.67,20.67,0,0,1,4.88,13.78Z"></path><path class="e6f19e8f-2e02-4071-8a32-84349f62c930" d="M360.26,173a26,26,0,0,0-23.17,12l-1.38-10.17H319.82v78.76h19V221.5a55.24,55.24,0,0,1,2.52-21.06,14.91,14.91,0,0,1,13.42-10c10,0,13,5.59,13,14.86v48.13h18.95V201.11C386.91,184.74,377,173,360.26,173Z"></path><path class="e6f19e8f-2e02-4071-8a32-84349f62c930" d="M472.83,198.46A24.49,24.49,0,0,0,486,175.72a27.91,27.91,0,0,0-12.39-23.29,45.51,45.51,0,0,0-24.85-6H406V253.75h42.72a44.71,44.71,0,0,0,28.58-7.16,28.53,28.53,0,0,0,10.89-24.07A26.22,26.22,0,0,0,472.83,198.46Zm-47.36-35.38h24.07c8.79,0,16.67,3.31,16.61,13.66S458.75,190,450,190H425.47Zm24.07,73.1H425.47V206.4h24.67c10.29,0,18.05,4.09,18.05,15.58S458.63,236.18,449.54,236.18Z"></path><rect class="e6f19e8f-2e02-4071-8a32-84349f62c930" x="501.58" y="144.49" width="20.28" height="19.55"></rect><rect class="e6f19e8f-2e02-4071-8a32-84349f62c930" x="502.19" y="174.87" width="19.19" height="78.7"></rect><polygon class="e6f19e8f-2e02-4071-8a32-84349f62c930" points="558.8 237.99 599.96 191.96 599.96 174.87 536.36 174.87 536.36 190.46 577.69 190.46 536.06 236.96 536.06 253.63 600.25 253.63 600.25 237.99 558.8 237.99"></polygon></svg> 