<?xml version="1.0" encoding="UTF-8"?> <svg xmlns="http://www.w3.org/2000/svg" id="Layer_1" width="100" height="100" viewBox="0 0 100 100"><defs><style>.cls-1{fill:#fff;}</style></defs><path class="cls-1" d="m70.74,43.6c0-3.55-6.18-3.58-6.26-.02v5.38h6.24s.02-5.36.02-5.36Z"></path><path class="cls-1" d="m50,0C22.38,0,0,22.38,0,50s22.38,50,50,50,50-22.38,50-50S77.61,0,50,0Zm-22.08,59.96c.29,9.49-16.01,9.26-15.88,0v-16.36c-.12-9.26,16.17-9.27,15.86.24v2.84h-4.74l-.06-3.08c0-3.52-6.12-3.44-6.26.11v16.49c.06,3.61,6.26,3.56,6.26,0v-3.67h4.82v3.43Zm6.7,19.9h-3.48V23.09h3.48v56.77Zm23.55-13.59h-7.84v-23.15c0-3.35-5.62-3.27-5.75.09v23.06h-7.04v-3.56h2.23v-21.68l-2.65-.02v-3.54h6.79l.02,2.6s.83-1.23,3-2.43c2.75-1.52,5.44,0,5.05-.18,2.17.96,2.99,3.28,3.14,5.88v19.37h3.05s0,3.56,0,3.56Zm17.38-6.31c.3,9.49-16,9.26-15.87,0v-16.36c-.13-9.26,16.16-9.27,15.86.24v7.85c0,.49-.4.88-.88.88h-10.18v7.63c.07,3.61,6.26,3.56,6.26,0v-3.67h4.81v3.44h0Zm9.6,6.33c-1.21,0-2.37-.45-2.58-.54,0,0,.01,0,.02.01-.08-.04-.07-.03-.02-.01-2.15-.97-2.97-3.29-3.12-5.87v-29.87h4.84v7.46l-.03.06h4.64v3.48h-4.63v19.26c.1,1.83,1.22,2.45,2.53,2.44,1.03,0,2.96.02,2.96.02v3.56s-3.82,0-4.62.02v-.02Z"></path></svg> 