<?xml version="1.0" encoding="UTF-8"?> <svg xmlns="http://www.w3.org/2000/svg" id="Layer_1" width="100" height="19.21" viewBox="0 0 100 19.21"><defs><style>.cls-1{fill:#3a357e;}</style></defs><path class="cls-1" d="m99.8,4.45c-1.82-.02-2.98.84-3.75,2.21-.04.07-.11.12-.19.11-.11,0-.19-.1-.19-.21v-1.7c0-.11-.09-.2-.2-.2h-5.34,0c-.11,0-.2.09-.2.2v13.41c0,.11.09.2.2.2h5.34c.11,0,.2-.09.2-.2v-3.32c0-3.07,1.29-4.41,3.72-4.41h.4c.11,0,.2-.09.2-.2v-5.7c0-.11-.09-.2-.2-.2Z"></path><path class="cls-1" d="m82.1,4.43c-2.32,0-4.1.38-5.65.95-.1.04-.16.14-.13.24l.91,3.43c.03.11.13.17.24.15h.03c1.14-.44,2.28-.71,3.61-.71,1.77,0,2.56.74,2.56,2,0,.09-.07.16-.16.16-.02,0-.03,0-.05,0-.7-.23-2.01-.43-3.06-.43-2.85,0-4.78,1.21-5.19,3.41V.2c0-.11-.09-.2-.2-.2h-5.34c-.11,0-.2.09-.2.2v5.52c0,.11-.08.2-.19.21-.06,0-.12-.02-.16-.06-.85-.84-1.97-1.54-3.81-1.54-3.27,0-5.9,2.91-5.9,7.3v.05c0,4.23,2.61,7.14,5.95,7.14,2.1,0,3.17-1.01,4.1-2.03v1.49c0,.11.09.2.2.2h5.34c.11,0,.2-.09.2-.2v-2.78c.38,2.14,2.12,3.32,4.45,3.32,1.53,0,2.72-.54,3.64-1.38.08-.08.2-.08.28,0,.04.04.06.1.06.15v.7c0,.11.09.2.2.2h5.34c.11,0,.2-.09.2-.2v-7.68c0-2-.4-3.35-1.44-4.38-1.22-1.22-3.04-1.8-5.85-1.8Zm-14.58,8.97c-1.13,0-2.04-.91-2.04-2.04s.91-2.04,2.04-2.04,2.04.91,2.04,2.04-.91,2.04-2.04,2.04Zm14.46,2.35c-.96,0-1.73-.78-1.73-1.73s.78-1.73,1.73-1.73,1.73.78,1.73,1.73-.78,1.73-1.73,1.73Z"></path><path class="cls-1" d="m59.21,0h-5.34c-.11,0-.2.09-.2.2v5.52c0,.11-.08.2-.19.21-.06,0-.12-.02-.16-.06-.85-.84-1.97-1.53-3.81-1.53-3.05,0-5.55,2.54-5.87,6.46-.36-3.71-2.65-6.57-7.15-6.57-3.75,0-6.53,2.56-7.03,6.09v-.93c0-3.12-1.82-5.04-4.74-5.04-1.71,0-2.99.8-3.88,1.76-.04.05-.1.08-.17.08-.11,0-.19-.1-.19-.21V.2c0-.11-.09-.2-.2-.2h-5.34c-.11,0-.2.09-.2.2v18.09c0,.11.09.2.2.2h5.35c.11,0,.2-.09.2-.2v-7.07c0-1.19.79-1.88,1.65-1.88s1.57.68,1.57,1.88v7.06c0,.11.09.2.2.2h5.34c.11,0,.2-.09.2-.2v-5.55c.52,3.63,3.42,5.96,7.52,5.96,2.9,0,4.82-1.17,6.18-2.86.07-.08.06-.21-.02-.28h0s-2.79-2.22-2.79-2.22c-.08-.07-.2-.06-.27.02-.87.85-1.69,1.29-2.68,1.29-1.14,0-2.04-.53-2.5-1.56-.05-.1,0-.22.1-.27.03-.01.06-.02.08-.02h8.59s0-.02,0-.03c.41,3.63,2.84,6.05,5.89,6.05,2.1,0,3.17-1.01,4.1-2.03v1.49c0,.11.09.2.2.2h5.35c.11,0,.2-.09.2-.2V.2c0-.11-.09-.2-.2-.2Zm-20.66,10.42s0,0,0,0h-3.41c-.11,0-.2-.09-.2-.2,0,0,0-.02,0-.02.11-.96.92-1.69,1.89-1.69.97,0,1.78.73,1.89,1.69.01.11-.07.21-.18.22Zm13.27,2.98c-1.13,0-2.04-.91-2.04-2.04,0-1.13.91-2.04,2.04-2.04s2.04.91,2.04,2.04-.91,2.04-2.04,2.04Z"></path><path class="cls-1" d="m12.19,15.96c.27-.03.55.04.78.19.09.06.21.04.27-.05.18-.24.35-.49.5-.75l.08-.13c.06-.09.03-.22-.07-.28h-.01s-3.83-2.19-3.83-2.19c-.09-.05-.21-.03-.27.06-.53.79-1.1,1.24-2.05,1.24-1.09,0-1.97-.95-2.05-2.3,0-.06,0-.12,0-.19v-.05c0-1.37.91-2.43,2.13-2.43.88,0,1.46.44,1.93,1.22.06.1.18.13.27.07l3.79-2.14c.09-.05.13-.17.08-.26-1.09-2.16-3.21-3.66-6.18-3.66C3.04,4.33,0,7.7,0,11.58v.23c.09,3.8,3.13,7.02,7.27,7.02,1.39,0,2.57-.27,3.56-.74.09-.04.14-.15.11-.25-.05-.14-.07-.28-.07-.43.01-.75.58-1.36,1.32-1.44Z"></path><path class="cls-1" d="m13.37,17.19c-.74.08-1.31.69-1.33,1.44,0,.21.05.41.15.59.81-.42,1.53-1.01,2.1-1.73-.25-.22-.59-.33-.92-.3Z"></path></svg> 