<?xml version="1.0" encoding="UTF-8"?> <svg xmlns="http://www.w3.org/2000/svg" id="Layer_1" width="100" height="13.97" viewBox="0 0 100 13.97"><defs><style>.cls-1{fill:#3a357e;}</style></defs><path class="cls-1" d="m17.66,11.47V2.39h1.46v9.08h-1.46Zm3.58,0V2.04l5.76,5.55c.16.16.32.32.48.5.16.19.32.37.5.61V2.39h1.35v9.45l-5.87-5.66c-.16-.16-.32-.32-.45-.48-.16-.16-.29-.35-.42-.53v6.32h-1.35v-.03Zm10.22,0V2.39h5.07v1.25h-3.61v2.26h3.58v1.3h-3.58v4.28h-1.46Zm8.05-4.06v4.06h-1.38V2.39h2.07c.61,0,1.06.03,1.41.11.35.08.61.21.85.4.29.21.5.5.66.85s.24.72.24,1.14c0,.72-.19,1.3-.53,1.7-.35.42-.88.66-1.57.74l3.13,4.14h-1.67l-3.03-4.06h-.19Zm.11-1.14h.27c.77,0,1.3-.08,1.57-.27s.37-.5.37-.96c0-.5-.13-.85-.42-1.06-.27-.21-.8-.32-1.54-.32h-.27v2.6h.03Zm11.63,5.2l-1.04-2.34h-3.61l-1.06,2.34h-1.54l4.41-9.45,4.38,9.45h-1.54Zm-4.09-3.56h2.52l-.93-2.07c-.05-.13-.11-.29-.16-.45-.05-.16-.11-.37-.19-.58l-.16.56-.16.48-.93,2.07h0Zm11.31-1.09h3.61v.27c0,.29.03.5.03.58,0,1.27-.37,2.28-1.09,2.97s-1.75,1.06-3.11,1.06c-.74,0-1.41-.11-1.99-.32s-1.09-.56-1.54-.98c-.42-.45-.77-.96-.98-1.54-.24-.58-.35-1.22-.35-1.91s.11-1.33.35-1.91.58-1.09,1.04-1.54c.45-.42.96-.77,1.57-.98.58-.24,1.22-.35,1.91-.35s1.35.13,1.91.4c.56.27,1.06.66,1.51,1.19l-1.09.82c-.32-.35-.66-.61-1.04-.8-.4-.19-.82-.27-1.3-.27-.98,0-1.78.32-2.42.96-.61.64-.93,1.46-.93,2.47s.32,1.86.93,2.5c.61.64,1.43.96,2.42.96.85,0,1.51-.19,1.99-.58s.72-.93.72-1.62v-.13h-2.18v-1.25h.03Zm5.2,4.65V2.39h1.49v9.08h-1.49Zm3.08-1.81l1.17-.56c.11.4.32.72.61.93.29.21.69.32,1.14.32s.8-.13,1.04-.37c.27-.24.4-.56.4-.98,0-.53-.45-1.01-1.33-1.43-.13-.05-.21-.11-.29-.13-1.01-.48-1.67-.93-1.99-1.33-.35-.4-.5-.88-.5-1.46,0-.74.24-1.33.74-1.81.5-.45,1.17-.69,1.96-.69.66,0,1.22.13,1.67.4.45.27.77.64.93,1.12l-1.14.58c-.19-.29-.37-.5-.61-.64-.21-.13-.48-.19-.74-.19-.4,0-.72.11-.96.32s-.35.48-.35.82c0,.56.5,1.06,1.54,1.54.08.03.13.08.19.08.9.42,1.51.82,1.86,1.22s.5.88.5,1.49c0,.85-.27,1.54-.82,2.04s-1.27.77-2.2.77c-.77,0-1.41-.19-1.91-.53-.42-.35-.74-.85-.9-1.51h0Zm10.44-6.03v7.83h-1.49V3.64h-2.42v-1.25h6.29v1.25s-2.39,0-2.39,0Zm3.56,7.83V2.39h1.49v9.08h-1.49Zm10.89-6.88c-.42-.35-.85-.61-1.33-.8s-.96-.27-1.46-.27c-.98,0-1.81.32-2.42.96-.61.64-.93,1.46-.93,2.47s.29,1.78.9,2.42,1.38.96,2.28.96c.53,0,1.06-.11,1.54-.29.48-.19.96-.48,1.41-.85v1.7c-.4.29-.82.5-1.3.64s-.98.21-1.51.21c-.69,0-1.33-.11-1.94-.35-.58-.24-1.12-.56-1.57-1.01-.45-.42-.77-.96-1.01-1.54s-.35-1.22-.35-1.89.11-1.3.35-1.89.58-1.09,1.04-1.54c.45-.45.96-.8,1.54-1.01.58-.24,1.22-.35,1.89-.35.53,0,1.04.08,1.54.24.48.16.96.4,1.41.72l-.08,1.46h0Zm1.33,5.07l1.17-.56c.11.4.32.72.61.93.29.21.69.32,1.14.32s.8-.13,1.04-.37c.27-.24.4-.56.4-.98,0-.53-.45-1.01-1.33-1.43-.13-.05-.21-.11-.29-.13-1.01-.48-1.67-.93-1.99-1.33-.35-.4-.5-.88-.5-1.46,0-.74.24-1.33.74-1.81.5-.45,1.17-.69,1.96-.69.66,0,1.22.13,1.67.4.45.27.77.64.93,1.12l-1.14.58c-.19-.29-.37-.5-.61-.64-.21-.13-.48-.19-.74-.19-.4,0-.72.11-.96.32s-.35.48-.35.82c0,.56.5,1.06,1.54,1.54.08.03.13.08.19.08.9.42,1.51.82,1.86,1.22s.5.88.5,1.49c0,.85-.27,1.54-.82,2.04s-1.27.77-2.2.77c-.77,0-1.41-.19-1.91-.53-.42-.35-.77-.85-.9-1.51h0Zm7.04-6.77c0,.4-.32.72-.72.72s-.74-.32-.74-.72.32-.72.74-.72c.4,0,.72.32.72.72Zm-1.3,0c0,.32.24.56.56.56s.53-.24.53-.56-.24-.58-.56-.58c-.29.03-.53.27-.53.58Zm.45.37h-.16v-.72c.05,0,.16-.03.27-.03.13,0,.19.03.24.05.03.03.08.08.08.16s-.05.13-.16.16c.08.03.11.08.13.19s.03.16.05.19h-.19s-.03-.08-.05-.19c0-.08-.05-.11-.16-.11h-.08v.29h.03Zm0-.4h.08c.08,0,.16-.03.16-.11,0-.05-.05-.11-.16-.11h-.08s0,.21,0,.21Z"></path><path class="cls-1" d="m0,0v13.97h15.24V0H0Zm2.36,2.36h2.44v2.42h-2.44v-2.42Zm10.46,9.21H3.88c-.82,0-1.51-.66-1.51-1.51v-4.41h2.36v3.56h5.71v-4.49h-2.47v2.44h-2.28V2.36h5.66c.82,0,1.51.69,1.49,1.54v7.67Z"></path></svg> 