<?xml version="1.0" encoding="UTF-8"?> <svg xmlns="http://www.w3.org/2000/svg" xmlns:xlink="http://www.w3.org/1999/xlink" id="Layer_1" width="600" height="400" viewBox="0 0 600 400"><defs><style>.cls-1{fill:url(#linear-gradient);}</style><linearGradient id="linear-gradient" x1="430.81" y1="397.3" x2="661.2" y2="397.3" gradientTransform="translate(-116.22 -193.27)" gradientUnits="userSpaceOnUse"><stop offset=".04" stop-color="#ba6d29"></stop><stop offset=".08" stop-color="#ca7626"></stop><stop offset=".14" stop-color="#de8123"></stop><stop offset=".2" stop-color="#ec8920"></stop><stop offset=".29" stop-color="#f48e1e"></stop><stop offset=".42" stop-color="#f78f1e"></stop><stop offset="1" stop-color="#f78f1e"></stop></linearGradient></defs><path d="m91.91,238.89c-.53,9.6-4.94,14.98-12.48,14.98-8.54,0-13.44-6.67-13.44-21.75s4.85-21.75,13.44-21.75,12.05,6.05,12.05,12.96h-3.79c0-5.71-2.88-9.79-8.3-9.79-6,0-9.65,4.94-9.65,18.58s3.65,18.53,9.65,18.53c5.28,0,8.3-4.51,8.74-11.76,0,0,3.79,0,3.79,0Z"></path><path d="m111.97,210.37c8.54,0,13.44,6.67,13.44,21.75s-4.85,21.75-13.44,21.75-13.44-6.67-13.44-21.75,4.8-21.75,13.44-21.75Zm0,40.27c6,0,9.65-4.94,9.65-18.58s-3.65-18.58-9.65-18.58-9.65,4.94-9.65,18.58,3.65,18.58,9.65,18.58Z"></path><path d="m133.96,211.09h6.53l10.13,37.35h.1l10.13-37.35h6.19v42.05h-3.74v-38.5h-.1l-10.9,38.55h-3.55l-10.9-38.55h-.1v38.55h-3.79v-42.1h0Z"></path><path d="m176.3,211.09h6.53l10.13,37.35h.1l10.13-37.35h6.19v42.05h-3.79v-38.5h-.1l-10.9,38.55h-3.55l-10.9-38.55h-.1v38.55h-3.79v-42.1h.05Z"></path><path d="m218.3,211.09h20.83v3.17h-17.09v15.31h15.98v3.17h-15.98v17.18h17.62v3.17h-21.41v-42.05h0l.05.05Z"></path><path d="m246.43,211.09h12.53c7.01,0,10.9,3.98,10.9,10.56,0,5.04-2.02,9.6-7.58,10.66v.1c5.23.48,7.01,3.46,7.2,9.94l.1,4.61c.05,2.3.29,4.51,1.78,6.19h-4.42c-.86-1.49-1.06-3.65-1.1-5.9l-.1-3.55c-.24-7.44-1.58-9.79-8.35-9.79h-7.1v19.2h-3.79v-42.05l-.05.05Zm3.79,19.68h6.53c5.95,0,9.41-2.69,9.41-8.26,0-5.14-2.21-8.26-9.02-8.26h-6.86v16.46h-.05v.05Z"></path><path d="m303.36,238.89c-.53,9.6-4.94,14.98-12.48,14.98-8.54,0-13.44-6.67-13.44-21.75s4.8-21.75,13.44-21.75,12.05,6.1,12.05,12.96h-3.79c0-5.71-2.88-9.79-8.3-9.79-6,0-9.65,4.94-9.65,18.58s3.65,18.53,9.65,18.53c5.28,0,8.3-4.51,8.74-11.76,0,0,3.79,0,3.79,0Z"></path><path d="m310.32,211.09h20.83v3.17h-17.09v15.31h15.98v3.17h-15.98v17.18h17.62v3.17h-21.41v-42.05h0l.05.05Z"></path><path class="cls-1" d="m427.11,253.09l-2.74-.14-3.31-.19-4.7-.34c-3.41-.29-7.63-.67-12.38-1.3-4.75-.62-10.13-1.44-15.98-2.54-13.39-2.4-26.55-6.24-39.12-11.42-6.96-3.02-14.06-6.62-20.74-11.9-3.55-2.74-6.62-6-9.17-9.65-.67-1.01-1.3-2.02-1.87-3.07-.53-1.15-1.01-2.3-1.44-3.5l-.53-1.87c-.14-.62-.24-1.3-.34-1.92-.14-.62-.19-1.3-.19-1.97v-1.82h0v-.53l.14-1.39c0-.24,0-.43.1-.77l.24-1.06c.14-.72.29-1.49.53-2.11l.67-1.78c.48-1.1,1.01-2.21,1.63-3.26.62-1.01,1.3-1.97,2.02-2.88,2.74-3.36,5.95-6.24,9.6-8.54,6.86-4.51,13.97-7.34,20.93-9.6,2.5-.82,4.99-1.49,7.44-2.11-.38,1.15,3.36,5.86,3.36,5.86-2.74.96-5.47,2.06-8.21,3.22-6.29,2.74-12.62,6.1-17.95,10.37-2.54,1.97-4.75,4.37-6.58,7.06-.38.62-.77,1.25-1.06,1.87-.24.62-.58,1.25-.72,1.87l-.24.91c0,.29,0,.43-.1.67v.29s-.05.43-.05.67v1.44c-.1.67-.72,1.15-1.39,1.06-.67-.1-1.15-.72-1.06-1.39s.72-1.15,1.39-1.06c.53.1.96.48,1.06,1.06h0v.38l.1.43c0,.29.1.58.19.86s.14.58.24.86l.38.86c.24.58.53,1.15.86,1.73.43.53.72,1.1,1.25,1.68,2.02,2.3,4.37,4.32,6.96,5.9,5.47,3.5,11.86,6.1,18.15,8.11,11.81,3.55,24,5.86,36.29,6.86,5.42.48,10.42.77,14.88.86,4.46.1,8.3.14,11.52.1,1.54,0,2.93-.1,4.18-.1l3.26-.14,2.11-.1h.62l-.24,23.47h0Zm114.34-64.56c-2.26-3.55-5.18-6.67-8.54-9.22-3.07-2.3-6.34-4.37-9.79-6.05-5.23-2.59-10.7-4.75-16.27-6.43.38,1.1.77,2.26,1.1,3.55.48,1.97.82,3.98,1.01,6l.1.86c3.12,1.49,6.14,3.12,9.07,4.94,2.69,1.63,5.18,3.55,7.54,5.71,2.11,1.87,3.84,4.13,5.14,6.62,1.01,1.97,1.34,4.18.96,6.34-.53,2.21-1.63,4.22-3.22,5.86-1.87,2.02-4.03,3.79-6.34,5.23-2.5,1.58-5.09,2.98-7.82,4.18-9.12,4.03-19.39,6.86-32.45,8.98-4.94.77-9.5,1.34-13.63,1.73l-3.84.34-.86-7.01-8.4,5.04-7.73,4.56-17.28,10.13,1.1.62c2.35,1.3,5.42,3.02,8.54,4.51,3.12,1.49,6.38,2.98,8.78,3.98,3.31,1.34,6.24,2.45,9.02,3.36,3.02,1.01,6.14,1.92,9.22,2.74l1.06.29-.86-6.91.82-.14,3.36-.62c4.51-.86,9.46-1.92,14.74-3.31,5.81-1.49,11.57-3.26,17.19-5.33,6.43-2.3,12.67-5.14,18.63-8.5,3.26-1.82,6.43-3.94,9.36-6.29,3.26-2.54,6.14-5.47,8.64-8.78,2.88-3.79,4.66-8.3,5.14-13.06.38-4.9-.86-9.79-3.46-13.92h0Zm-146.31-7.44c2.59-1.1,4.75-2.88,6.34-5.18,1.39-2.16,2.16-4.66,2.11-7.25,0-2.16-.48-4.32-1.39-6.34-.24-.53-.53-1.1-.86-1.58-.34-.53-.67-1.06-1.1-1.54-1.44-1.82-3.31-3.31-5.42-4.32-2.88-1.44-6.05-2.21-9.26-2.16-4.46-.14-8.78,1.34-12.19,4.18-2.3,1.97-4.08,4.56-5.09,7.44-.53,1.39-.96,2.83-1.2,4.32l5.71,1.01,1.82.34c0-.34.1-.67.19-1.01.38-2.54,1.44-4.9,3.07-6.86.14-.19.34-.34.48-.53,1.97-1.87,4.61-2.83,7.34-2.74,1.82,0,3.65.38,5.23,1.25.72.38,1.44.91,2.02,1.49.67.62,1.2,1.34,1.63,2.16.82,1.44,1.2,3.07,1.15,4.75,0,3.5-1.3,6.05-3.84,7.73-2.59,1.68-5.62,2.54-8.69,2.5-.29,0-.72,0-1.2-.1l-.86,6.62c1.73-.53,3.5-.82,5.33-.86,3.22-.1,6.34,1.1,8.64,3.36,2.3,2.26,3.5,5.38,3.41,8.54.1,3.41-1.25,6.72-3.65,9.17-2.3,2.45-5.57,3.79-8.93,3.79-2.83.05-5.52-.96-7.63-2.83-2.06-1.87-3.55-4.94-4.42-9.26l-7.54,1.01c.34,4.8,2.54,9.26,6.1,12.48,3.55,3.22,8.06,4.85,13.44,4.85,5.95,0,10.9-1.87,14.83-5.62,3.79-3.5,5.95-8.45,5.86-13.63.1-3.55-.96-7.01-3.07-9.89-2.11-2.74-5.09-4.61-8.5-5.28h.14Zm41.04-6.58c-2.88,0-5.71.67-8.26,2.02-2.74,1.44-5.04,3.55-6.67,6.19.05-6.14.77-10.9,2.16-14.21,1.1-3.02,3.07-5.62,5.62-7.58.67-.48,1.39-.91,2.16-1.25h0c1.34-.53,2.74-.77,4.18-.77,2.02,0,3.94.53,5.62,1.63.72.43,1.34,1.01,1.92,1.58,1.25,1.34,2.16,3.5,2.83,6.48l7.49-.58c-.24-2.16-.86-4.22-1.78-6.19-.72-1.49-1.63-2.88-2.78-4.08h0c-.34-.34-.62-.62-1.01-.96-3.12-2.74-7.06-4.08-11.9-4.08-5.81,0-10.51,1.87-14.16,5.62-.43.43-.86.91-1.3,1.44h0c-4.37,5.42-6.53,14.06-6.48,25.87,0,10.61,1.97,18.24,5.95,22.9,3.79,4.56,9.5,7.1,15.41,6.96,3.5.05,6.91-.86,9.89-2.64,2.98-1.82,5.33-4.46,6.86-7.63,1.68-3.31,2.54-7.01,2.5-10.75,0-5.86-1.78-10.66-5.33-14.35-3.31-3.6-7.97-5.62-12.86-5.57h0l-.05-.05Zm7.01,30.87c-2.02,2.45-5.04,3.89-8.21,3.84-2.21,0-4.37-.67-6.24-1.87-2.06-1.3-3.65-3.22-4.61-5.42-1.1-2.35-1.68-4.9-1.68-7.44,0-3.98,1.2-7.2,3.55-9.65,2.26-2.4,5.42-3.7,8.69-3.6,3.26-.1,6.38,1.25,8.54,3.65,2.3,2.45,3.41,5.81,3.41,10.03s-1.2,7.87-3.46,10.46h0Zm57.36-35.86c-.38-1.54-.86-3.02-1.44-4.46-.62-1.63-1.44-3.22-2.4-4.66-1.54-2.4-3.65-4.42-6.14-5.76-2.69-1.39-5.66-2.06-8.69-1.97-4.03-.14-7.97,1.15-11.14,3.6-1.01.82-1.97,1.78-2.74,2.83-1.2,1.54-2.21,3.22-2.93,4.99-.38.77-.67,1.58-.96,2.45-1.49,4.42-2.26,10.27-2.26,17.57,0,11.57,2.02,19.87,6.1,25.01,3.41,4.22,8.06,6.38,13.97,6.38,4.51,0,8.26-1.2,11.18-3.6,3.12-2.74,5.42-6.29,6.62-10.27,1.49-4.42,2.21-10.27,2.26-17.47,0-2.93-.1-5.86-.43-8.78-.19-1.92-.53-3.84-1.01-5.76h0v-.1Zm-9.89,34.66c-2.35,3.36-5.28,5.04-8.74,5.04s-6.38-1.68-8.74-4.99c-2.35-3.36-3.55-10.08-3.55-20.16,0-8.26.86-14.4,2.64-18.43.34-.82.77-1.58,1.3-2.35.86-1.25,1.92-2.26,3.22-3.07,1.54-.91,3.31-1.39,5.09-1.34,3.02,0,5.95,1.39,7.87,3.74.34.38.67.82.96,1.25,1.25,1.73,2.16,4.42,2.74,8.06.58,4.03.86,8.06.82,12.1,0,10.08-1.15,16.8-3.55,20.11h0l-.05.05Z"></path><path d="m64.98,145.76h22.32c17.76,0,18.67,14.06,18.67,29.52s-.91,29.52-18.67,29.52h-22.32v-59.04Zm15.36,47.95h3.07c6,0,6.72-2.5,6.72-18.43s-.77-18.43-6.72-18.43h-3.07v36.82h0v.05Z"></path><path d="m114.61,145.76h15.41v59.04h-15.41v-59.04Z"></path><path d="m159.26,172.69h19.83v32.07h-10.42l-.34-5.23h-.14c-2.06,5.04-7.54,6.38-12.72,6.38-15.65,0-17.04-11.14-17.04-30.67s3.79-30.67,21.99-30.67c10.9,0,18.67,5.52,18.67,19.83h-14.93c.1-2.3-.19-4.61-.86-6.86-.43-1.58-1.92-2.64-3.55-2.59-5.04,0-5.52,4.27-5.52,20.26s.48,20.26,5.23,20.26c3.22,0,5.14-2.06,5.23-12.38h-5.47v-10.42h.1l-.05.05Z"></path><path d="m187.53,145.76h15.41v59.04h-15.41s0-59.04,0-59.04Z"></path><path d="m220.12,158.82h-11.57v-13.06h38.55v13.06h-11.62v45.99h-15.41v-45.99h.05Z"></path><path d="m258.43,145.76h19.35l14.4,59.04h-16.37l-1.58-10.32h-12.24l-1.58,10.32h-16.37l14.4-59.04Zm9.74,12.05h-.14l-4.22,25.06h8.54l-4.18-25.06Z"></path><path d="m297.46,145.76h15.36v46.47h18.91v12.58h-34.27v-59.04h0Z"></path></svg> 