<?xml version="1.0" encoding="UTF-8"?> <svg xmlns="http://www.w3.org/2000/svg" id="Bluecore" width="600" height="400" viewBox="0 0 600 400"><defs><style>.cls-1{fill:#fff;}</style></defs><path class="cls-1" d="m97.12,176.12v-.17l-.12-.19c-.74-1.23-1.79-2.25-3.04-2.96l-34.37-19.75c-2.65-1.54-5.93-1.54-8.58,0l-34.23,19.75c-1.25.71-2.29,1.73-3.04,2.96,0,0,0,.12-.12.17v.21c-.72,1.25-1.11,2.67-1.13,4.12v39.52c0,3.07,1.64,5.9,4.29,7.44l34.17,19.75c2.65,1.54,5.93,1.54,8.58,0l34.23-19.75c2.65-1.54,4.29-4.38,4.29-7.44v-39.52c.06-1.44-.27-2.86-.94-4.13h.01Zm-43.15-18.08c.87-.5,1.94-.5,2.81,0l32.69,18.9-14.56,8.42c-8.01-10.81-23.27-13.08-34.08-5.07-1.93,1.43-3.64,3.14-5.07,5.07l-14.58-8.42,32.79-18.9Zm20.08,41.96c-.02,9.2-6.72,17.03-15.81,18.46v-16.79l14.5-8.4c.84,2.15,1.28,4.43,1.31,6.73h0Zm-36.15-6.73l14.54,8.4v16.79c-10.22-1.66-17.17-11.29-15.51-21.51.2-1.26.54-2.49.99-3.68h-.02Zm17.42,3.38l-14.52-8.38c6.45-8.02,18.18-9.29,26.2-2.84h.01c1.04.85,1.99,1.8,2.83,2.84,0,0-14.52,8.38-14.52,8.38Zm-35.62,25.46c-.85-.48-1.39-1.37-1.42-2.35v-37.81l14.58,8.38c-5.31,12.46.48,26.86,12.93,32.17,2.13.91,4.37,1.51,6.66,1.79v16.81l-32.75-19h0Zm71.15,0l-32.69,18.9v-16.77c13.41-1.58,23.01-13.72,21.44-27.13-.28-2.32-.88-4.58-1.79-6.73l14.54-8.4v37.79c-.03.98-.57,1.87-1.42,2.35h-.08Z"></path><path class="cls-1" d="m177.48,196.12c7.13-2.52,10.62-7.56,10.62-14.17,0-9.44-6.73-17-18.69-18.48-3.07-.35-6.16-.49-9.25-.42h-29.71v72.54h28.85c3.58.08,7.17-.06,10.73-.42,9.75-1.15,20.77-7.88,20.77-21.42.02-8.92-4.17-14.98-13.31-17.62h0Zm-28.13-18.37h8.5c1.58,0,3.16.09,4.73.31,3.33.13,5.93,2.94,5.79,6.27,0,.11,0,.23-.02.34.34,3.33-2.08,6.3-5.41,6.64-.15,0-.29.02-.44.03-1.53.22-3.07.33-4.62.33h-8.54v-13.92h.01Zm14.9,42.9c-1.37.12-3.04.12-4.71.12h-10.19v-15.52h9.62c1.67,0,3.37,0,4.73.12,4.1.04,7.39,3.4,7.35,7.49v.2c.15,3.94-2.85,7.3-6.79,7.6h0Z"></path><path class="cls-1" d="m217.9,220.48c-.2-1.71-.26-3.43-.19-5.15v-52.29h-18.87v52.62c0,4.19,0,7.04.21,9.96.42,7.46,5.38,10.92,14.06,10.92,4.21,0,7.58-.21,11.04-.52v-12.81c-4.96.21-5.88-.52-6.25-2.73h0Z"></path><path class="cls-1" d="m268.27,211.13c0,7.46-3.6,13.02-9.62,13.02s-8.5-3.15-9.13-8.5c-.28-2.55-.42-5.12-.42-7.69v-28.54h-18.9v32.69c-.08,3.55.1,7.09.54,10.62,1.25,7.69,8.29,14.17,19.85,14.17,4.34.12,8.62-.97,12.38-3.13h0s1.46-.85,1.92-1.23c1.18-.78,2.31-1.63,3.38-2.56v5.6h18.87v-56.15h-18.87v31.71h0Z"></path><path class="cls-1" d="m325.21,177.88c-18.69,0-29.92,13.33-29.92,29.71,0,19.75,12.81,29.29,28.85,29.29,14.37,0,24.88-7.17,28.13-19.85h-18.62c-.71,4.31-3.98,7.04-9.33,7.04s-9.46-2.6-10.4-11.98h39.06c.2-1.81.31-3.62.33-5.44.06-14.42-9.4-28.77-28.1-28.77h0Zm-10.6,22.75c1.27-6.94,4.73-9.88,9.62-9.88s8.31,3.27,9.35,9.88h-18.97Z"></path><path class="cls-1" d="m387.69,224.15c-6.4,0-9.98-5.25-9.98-17.31,0-10.79,3.48-16.17,9.77-16.17,4.73,0,8.4,2.69,9.23,10.1h18.29c-.58-12.48-10.62-22.88-27.1-22.88s-29.54,10.81-29.54,30.12,12.17,28.85,28.25,28.85c15.21,0,26.44-7.56,28.54-22.06h-18.54c-1.04,6.21-4.62,9.37-8.92,9.37v-.02Z"></path><path class="cls-1" d="m450.17,177.88c-18.44,0-30.13,11.54-30.13,29.58s11.69,29.5,30.13,29.5,30.13-11.54,30.13-29.5-11.77-29.58-30.13-29.58Zm0,46.15c-6.73,0-10.79-5.56-10.79-16.69s4.1-16.69,10.79-16.69,10.77,5.46,10.77,16.69-4.06,16.81-10.77,16.81v-.12Z"></path><path class="cls-1" d="m511.58,182.69h0s-1.27,1.1-1.73,1.6c-.87.91-1.68,1.87-2.42,2.88v-7.69h-18.92v56.1h18.92v-20.67c0-16.88,5.15-22.15,19.33-21.15v-15.38c-1.42-.23-2.87-.33-4.31-.31-4.09.05-8,1.72-10.87,4.63h0Z"></path><path class="cls-1" d="m587.5,206.73c0-14.5-9.44-28.75-28.13-28.75s-29.92,13.37-29.92,29.69c0,19.75,12.81,29.29,28.85,29.29,14.38,0,24.88-7.17,28.13-19.85h-18.58c-.73,4.31-3.98,7.04-9.35,7.04s-9.44-2.6-10.38-11.98h39.06c.2-1.81.31-3.62.33-5.44h-.01Zm-38.77-6.1c1.27-6.94,4.73-9.88,9.62-9.88s8.31,3.27,9.35,9.88h-18.97Z"></path></svg> 