<?xml version="1.0" encoding="UTF-8"?> <svg xmlns="http://www.w3.org/2000/svg" id="Layer_1" width="600" height="400" viewBox="0 0 600 400"><defs><style>.cls-1{fill:#3a357e;}</style></defs><path class="cls-1" d="m150.57,215.72l14.11-8.15c2.52,5.97,6.88,9.87,15.03,9.87s9.64-3.1,9.64-5.85c0-4.36-4.13-6.08-14.8-9.06-10.56-2.98-21-8.03-21-21.69s11.59-21.69,23.98-21.69c11.7,0,20.88,5.62,26.16,16.06l-13.77,8.03c-2.41-5.05-5.85-8.26-12.39-8.26-5.05,0-7.69,2.52-7.69,5.39,0,3.21,1.72,5.51,12.85,8.83,10.79,3.21,22.95,7,22.95,22.14,0,13.77-11.01,21.92-26.5,21.92-14.92.11-24.55-7-28.57-17.56Z"></path><path class="cls-1" d="m213.33,157.55h15.26v74.47h-15.26v-74.47Z"></path><path class="cls-1" d="m238.34,167.3c0-5.05,4.13-9.18,9.18-9.18s9.18,4.13,9.18,9.18-4.13,9.18-9.18,9.18-9.18-4.25-9.18-9.18Zm1.49,13.65h15.38v50.94h-15.26v-50.94h-.11Z"></path><path class="cls-1" d="m315.33,200.69v31.32h-15.26v-29.14c0-6.31-4.02-9.29-8.83-9.29-5.62,0-9.52,3.21-9.52,10.56v27.88h-15.26v-51.06h15.26v4.82c2.75-3.79,7.8-6.2,14.57-6.2,10.33,0,19.05,7.34,19.05,21.11Z"></path><path class="cls-1" d="m378.21,180.95v48.42c0,17.1-13.31,24.32-26.96,24.32-10.56,0-19.51-4.02-24.21-12.39l13.08-7.57c1.95,3.56,4.93,6.43,11.59,6.43,7.11,0,11.47-3.67,11.47-10.9v-4.7c-3.33,4.13-8.26,6.65-14.92,6.65-14.46,0-25.13-11.82-25.13-25.93s10.56-25.93,25.13-25.93c6.65,0,11.47,2.41,14.92,6.65v-5.16h15.03v.11Zm-14.92,24.44c0-7-5.05-11.82-12.39-11.82s-12.39,4.82-12.39,11.82,5.05,11.82,12.39,11.82,12.39-4.7,12.39-11.82Z"></path><path class="cls-1" d="m428.46,216.64c0,11.7-10.21,16.75-21.23,16.75-10.21,0-17.9-3.9-21.92-12.16l13.31-7.57c1.38,3.9,4.13,5.97,8.72,5.97,3.67,0,5.51-1.15,5.51-3.21,0-5.62-25.13-2.64-25.13-20.31,0-11.13,9.41-16.75,19.96-16.75,8.26,0,15.6,3.67,19.85,10.9l-13.08,7c-1.38-2.64-3.44-4.47-6.88-4.47-2.64,0-4.25,1.03-4.25,2.87,0,5.97,25.13,2.18,25.13,21Z"></path><path class="cls-1" d="m485.03,200.69v31.32h-15.26v-29.14c0-6.31-4.02-9.29-8.83-9.29-5.62,0-9.52,3.21-9.52,10.56v27.88h-15.26v-71.48h15.26v25.24c2.75-3.79,7.8-6.2,14.57-6.2,10.33,0,19.05,7.34,19.05,21.11Z"></path><path class="cls-1" d="m492.95,206.43c0-15.15,12.05-26.96,27.08-26.96s27.08,11.7,27.08,26.96-12.05,26.96-27.08,26.96-27.08-11.7-27.08-26.96Zm38.78,0c0-7.23-5.05-12.05-11.7-12.05s-11.7,4.82-11.7,12.05,5.05,12.05,11.7,12.05,11.7-4.82,11.7-12.05Z"></path><path class="cls-1" d="m574.07,195.64v18.01c0,4.36,3.79,4.82,10.56,4.36v13.88c-19.96,2.07-25.82-4.02-25.82-18.24v-18.01h-8.15v-14.69h8.15v-9.64l15.26-4.59v14.23h10.56v14.69s-10.56,0-10.56,0Z"></path><path class="cls-1" d="m589.21,172c0-1.03.23-1.95.69-2.87.46-.92,1.15-1.61,1.95-2.07.8-.46,1.72-.8,2.75-.8s1.95.23,2.75.8c.8.46,1.49,1.26,1.95,2.07.46.92.69,1.84.69,2.87s-.23,1.95-.69,2.87c-.46.92-1.15,1.61-1.95,2.18s-1.84.8-2.75.8c-1.03,0-1.95-.23-2.75-.8s-1.49-1.26-1.95-2.18c-.46-.92-.69-1.84-.69-2.87Zm.8,0c0,.92.23,1.72.57,2.41.46.8.92,1.38,1.72,1.72.69.46,1.49.69,2.29.69s1.61-.23,2.29-.69c.69-.46,1.26-1.03,1.72-1.72s.57-1.61.57-2.41c0-.92-.23-1.72-.57-2.41-.46-.69-.92-1.38-1.72-1.72-.69-.46-1.49-.69-2.29-.69s-1.61.23-2.29.69c-.69.46-1.26,1.03-1.72,1.72-.34.69-.57,1.49-.57,2.41Zm3.56.57v2.64h-1.03v-6.54h2.18c.8,0,1.38.11,1.84.46.46.34.69.8.69,1.49s-.34,1.15-1.03,1.49c.57.23.92.8.92,1.61v.46c0,.46,0,.8.11.92v.11h-1.15c-.11-.23-.11-.46-.11-1.03v-.8c-.11-.46-.46-.8-1.03-.8,0,0-1.38,0-1.38,0Zm0-1.03h1.15c.34,0,.69-.11.92-.23.23-.11.34-.34.34-.69s-.11-.69-.34-.8c-.23-.11-.57-.23-1.03-.23h-1.03v1.95h0Z"></path><path class="cls-1" d="m65.99,216.58l-2.77-.49-1.4-2.44c-.87-1.52-1.52-2.97-2.15-4.42-2.87,1.86-5.83,3.64-8.93,5.23-.57.23-1.15.57-1.72.8-6.43,3.1-13.19,5.62-20.19,7.46-1.03.23-2.18.57-3.33.92-4.36,1.38-9.52,2.87-14.23,2.87-1.61,0-3.1-.11-4.47-.46-.34-.11-.57-.11-.92-.34-2.41-1.03-4.59-3.67-5.74-6.54-.57,6.2.57,11.36,3.44,14.92,2.98,3.67,7.69,5.62,13.65,5.62,2.64,0,5.51-.34,8.49-1.15,15.13-3.76,29.31-11.37,41.39-21.84-.37-.06-.75-.07-1.13-.13Z"></path><path class="cls-1" d="m119.18,192.32c-.8,1.33-1.57,2.66-2.51,3.97-1.62,2.12-3.12,3.9-4.61,5.44.11,8.25-2.45,16.36-7.34,23.11-2.99,4.15-6.74,7.63-11.15,10.33l-12.24,7.5,3.26-13.98c.92-3.95.93-8.13.07-12.16-2.11.39-4.2.66-6.26.8-.21.03-.38,0-.59.03l-5.79,5.02c-13.12,11.37-28.5,19.48-44.35,23.42-1.61.43-3.24.75-4.86.98,10.21,8.05,23.04,12.89,37.1,12.89,33.05,0,59.78-26.73,59.78-59.78,0-2.55-.2-5.07-.52-7.56Z"></path><path class="cls-1" d="m65.78,158.2c.67-.88,1.38-1.8,2.08-2.6,3.96-4.65,8.58-8.43,13.73-11.31-5.43-2.11-11.16-3.45-17.08-3.85-1.49-.11-3.21-.11-4.82-.11l.11,17.56c2.02-.05,4.01.07,5.98.31Z"></path><path class="cls-1" d="m90.44,230.06c3.56-2.18,6.77-5.05,9.41-8.72,4.82-6.65,6.77-14.46,6.08-22.03,2.18-1.95,4.13-4.25,5.97-6.65,2.29-3.21,4.13-6.54,5.51-9.98,4.93-12.62,3.9-26.62-2.41-38.32-2.75-.46-5.39-.69-8.15-.69-6.2,0-12.39,1.26-18.13,3.79-6.2,2.64-11.7,6.65-16.29,12.05-.8.92-1.61,1.95-2.29,2.87-1.84,2.41-3.21,5.05-4.47,7.69-7.34,1.72-14.23,6.08-19.05,12.74-2.64,3.56-4.36,7.57-5.39,11.59,5.28-3.21,11.24-4.93,17.33-4.93.92,0,1.95,0,2.87.11.11,5.51,1.15,11.01,3.33,16.29.69,1.61,1.38,3.21,2.29,4.82,1.95.34,3.9.57,5.85.69.8,0,1.49.11,2.29.11.92,0,1.84,0,2.64-.11,3.67-.23,7.34-.92,10.9-1.95,2.64,6.43,3.33,13.77,1.72,20.65Zm15.49-54.27c-2.18,2.98-5.62,4.59-9.06,4.59-2.29,0-4.59-.69-6.54-2.18-5.05-3.67-6.08-10.67-2.52-15.6,2.18-2.98,5.62-4.59,9.06-4.59,2.29,0,4.59.69,6.54,2.18,5.05,3.67,6.2,10.67,2.52,15.6Z"></path><path class="cls-1" d="m53.73,140.72c-1.63.19-3.4.44-5.4.88-5.85,1.26-11.7,3.33-16.98,6.31-3.1,1.72-5.97,3.67-8.72,5.85-8.15,6.54-14.46,15.15-18.24,24.9-1.59,4.21-2.7,8.59-3.33,13.05,6.03-.21,12.47-.46,18.11-.7,1.95-8.16,6.3-15.78,12.42-21.53,6.1-5.73,13.93-9.56,22.2-11.03,0-3.54-.02-7.52-.03-11.54,0-2.1-.01-4.17-.02-6.19Z"></path><path class="cls-1" d="m59.76,150.78c0,2.43.01,4.79.02,6.99,0,0,.02,0,.03,0,0-2.35-.02-4.65-.05-6.99Z"></path><path class="cls-1" d="m18.27,196.67c0,.08,0,.15,0,.23,0,0,0,0,0,0v-.23Z"></path><path class="cls-1" d="m.68,200.31l6.43,16.06c.54,1.34,1.42,2.26,1.73,2.43l.05.02c.6.12,1.39.18,2.39.18,3.01,0,6.61-.9,10.26-2-2.74-6.54-3.8-13.42-3.27-20.1-5.85.8-11.7.69-17.67.8-.03.86.08,1.74.08,2.61Z"></path></svg> 