<?xml version="1.0" encoding="UTF-8"?> <svg xmlns="http://www.w3.org/2000/svg" id="Layer_1" width="100" height="23.09" viewBox="0 0 100 23.09"><defs><style>.cls-1{fill:#fff;}</style></defs><path class="cls-1" d="m3,22.1c-1.25,0-2.01-1.02-2.01-3.86s.76-3.87,2.01-3.87c1.13,0,1.73.85,1.73,2.04h.79c0-1.44-.72-2.7-2.51-2.7S.21,15.1.21,18.24s1.02,4.53,2.8,4.53c1.57,0,2.49-1.12,2.6-3.12h-.79c-.09,1.51-.72,2.45-1.82,2.45Z"></path><path class="cls-1" d="m9.79,13.71c-1.8,0-2.8,1.39-2.8,4.53s1.01,4.53,2.8,4.53,2.8-1.39,2.8-4.53-1.02-4.53-2.8-4.53Zm0,8.39c-1.25,0-2.01-1.03-2.01-3.87s.76-3.87,2.01-3.87,2.01,1.03,2.01,3.87-.76,3.87-2.01,3.87Z"></path><polygon class="cls-1" points="17.86 21.64 17.84 21.64 15.73 13.86 14.37 13.86 14.37 22.63 15.16 22.63 15.16 14.6 15.18 14.6 17.45 22.63 18.19 22.63 20.46 14.6 20.48 14.6 20.48 22.62 21.26 22.62 21.26 13.86 19.97 13.86 17.86 21.64"></polygon><polygon class="cls-1" points="26.68 21.64 26.66 21.64 24.55 13.86 23.19 13.86 23.18 13.86 23.18 22.63 23.97 22.63 23.97 14.6 23.99 14.6 26.26 22.63 27 22.63 29.27 14.6 29.29 14.6 29.29 22.62 30.08 22.62 30.08 13.86 28.79 13.86 26.68 21.64"></polygon><polygon class="cls-1" points="32.72 18.37 36.05 18.37 36.05 17.71 32.72 17.71 32.72 14.52 36.28 14.52 36.28 13.86 31.94 13.86 31.93 13.85 31.93 22.61 36.39 22.61 36.39 21.95 32.72 21.95 32.72 18.37"></polygon><path class="cls-1" d="m42.6,20.37c-.04-1.35-.41-1.97-1.5-2.07v-.02c1.16-.22,1.58-1.17,1.58-2.22,0-1.37-.81-2.2-2.27-2.2h-2.6v8.75h.79v-4h1.48c1.41,0,1.69.49,1.74,2.04l.02.74c.01.47.05.92.23,1.23h.92c-.31-.35-.36-.81-.37-1.29l-.02-.96Zm-2.65-2.41h-1.36s.01-.01.01-.01v-3.43h1.43c1.42,0,1.88.65,1.88,1.72,0,1.16-.72,1.72-1.96,1.72Z"></path><polygon class="cls-1" points="37.8 13.86 37.81 13.86 37.81 13.85 37.8 13.86"></polygon><path class="cls-1" d="m47.05,22.1c-1.25,0-2.01-1.02-2.01-3.86s.76-3.87,2.01-3.87c1.13,0,1.73.85,1.73,2.04h.79c0-1.43-.71-2.7-2.51-2.7s-2.8,1.39-2.8,4.53,1.02,4.53,2.8,4.53c1.57,0,2.49-1.12,2.6-3.12h-.79c-.09,1.51-.72,2.45-1.82,2.45Z"></path><path class="cls-1" d="m75.36,17.72l-.44.02-.68.03c-.26,0-.55.02-.87.02-.67.01-1.47,0-2.4-.02s-1.97-.08-3.1-.18c-2.56-.21-5.1-.69-7.56-1.43-1.31-.42-2.64-.96-3.78-1.69-.54-.33-1.03-.75-1.45-1.23-.11-.12-.17-.24-.26-.35-.07-.11-.12-.23-.17-.34h.92v-2.62h-.39c.32-.41.68-.8,1.09-1.12,1.11-.89,2.43-1.59,3.74-2.16.57-.24,1.14-.47,1.71-.67,0,0-.78-.98-.7-1.22-.51.13-1.03.27-1.55.44-1.45.47-2.93,1.06-4.36,2-.76.48-1.43,1.08-2,1.78-.15.19-.29.39-.42.6-.07.11-.12.23-.17.35h-.89V.25h-3.2v12.3h3.6s0,.06,0,.09c.02.13.04.27.07.4l.11.39c.05.15.12.29.18.43h-1.3s0,8.75,0,8.75h4.46v-.66h-3.67v-3.58h3.33v-.66h-3.33v-3.19h.85c.06.09.11.19.17.28.53.76,1.17,1.44,1.91,2.01,1.39,1.1,2.87,1.85,4.32,2.48,2.62,1.08,5.36,1.88,8.15,2.38,1.22.23,2.34.4,3.33.53s1.87.21,2.58.27l.98.07.69.04.57.03.05-4.89h-.13Z"></path><path class="cls-1" d="m99.27,9.16c-.47-.74-1.08-1.39-1.78-1.92-.64-.48-1.32-.91-2.04-1.26-1.09-.54-2.23-.99-3.39-1.34.08.23.16.47.23.74.1.41.17.83.21,1.25l.02.18c.65.31,1.28.65,1.89,1.03.56.34,1.08.74,1.57,1.19.44.39.8.86,1.07,1.38.21.41.28.87.2,1.32-.11.46-.34.88-.67,1.22-.39.42-.84.79-1.32,1.09-.52.33-1.06.62-1.63.87-1.9.84-4.04,1.43-6.76,1.87-1.03.16-1.98.28-2.84.36l-.8.07-.18-1.46-1.75,1.05-1.61.95-3.6,2.11.23.13c.49.27,1.13.63,1.78.94.65.31,1.33.62,1.83.83.69.28,1.3.51,1.88.7.63.21,1.28.4,1.92.57l.22.06-.18-1.44.17-.03.7-.13c.94-.18,1.97-.4,3.07-.69,1.21-.31,2.41-.68,3.58-1.11,1.34-.48,2.64-1.07,3.88-1.77.68-.38,1.34-.82,1.95-1.31.68-.53,1.28-1.14,1.8-1.83.6-.79.97-1.73,1.07-2.72.08-1.02-.18-2.04-.72-2.9Z"></path><path class="cls-1" d="m77.12,14.78c.73.01,1.44-.18,2.06-.55.62-.38,1.11-.93,1.43-1.59.35-.69.53-1.46.52-2.24,0-1.22-.37-2.22-1.11-2.99-.69-.75-1.66-1.17-2.68-1.16h-.01c-.6,0-1.19.13-1.72.41-.57.3-1.05.74-1.39,1.29.01-1.28.16-2.27.45-2.96.23-.63.64-1.17,1.17-1.58.14-.1.29-.19.45-.26.28-.11.57-.16.87-.16.42,0,.82.11,1.17.34.15.09.28.21.4.33.26.28.45.73.59,1.35l1.56-.12c-.05-.45-.18-.88-.37-1.29-.15-.31-.34-.6-.58-.85-.07-.07-.13-.13-.21-.2-.65-.57-1.47-.85-2.48-.85-1.21,0-2.19.39-2.95,1.17-.09.09-.18.19-.27.3-.91,1.13-1.36,2.93-1.35,5.39,0,2.21.41,3.8,1.24,4.77.79.95,1.98,1.48,3.21,1.45Zm-1.91-6.39c.47-.5,1.13-.77,1.81-.75.68-.02,1.33.26,1.78.76.48.51.71,1.21.71,2.09s-.25,1.64-.72,2.18c-.42.51-1.05.81-1.71.8-.46,0-.91-.14-1.3-.39-.43-.27-.76-.67-.96-1.13-.23-.49-.35-1.02-.35-1.55,0-.83.25-1.5.74-2.01Z"></path><path class="cls-1" d="m66.86,13.48c-.59,0-1.15-.2-1.59-.59-.43-.39-.74-1.03-.92-1.93l-1.57.21c.07,1,.53,1.93,1.27,2.6.74.67,1.68,1.01,2.8,1.01,1.24,0,2.27-.39,3.09-1.17.79-.73,1.24-1.76,1.22-2.84.02-.74-.2-1.46-.64-2.06-.44-.57-1.06-.96-1.77-1.1h.03c.54-.23.99-.6,1.32-1.08.29-.45.45-.97.44-1.51,0-.45-.1-.9-.29-1.32-.05-.11-.11-.23-.18-.33-.07-.11-.14-.22-.23-.32-.3-.38-.69-.69-1.13-.9-.6-.3-1.26-.46-1.93-.45-.93-.03-1.83.28-2.54.87-.48.41-.85.95-1.06,1.55-.11.29-.2.59-.25.9l1.19.21.38.07c0-.07.02-.14.04-.21.08-.53.3-1.02.64-1.43.03-.04.07-.07.1-.11.41-.39.96-.59,1.53-.57.38,0,.76.08,1.09.26.15.08.3.19.42.31.14.13.25.28.34.45.17.3.25.64.24.99,0,.73-.27,1.26-.8,1.61-.54.35-1.17.53-1.81.52-.06,0-.15,0-.25-.02l-.18,1.38c.36-.11.73-.17,1.11-.18.67-.02,1.32.23,1.8.7.48.47.73,1.12.71,1.78.02.71-.26,1.4-.76,1.91-.48.51-1.16.79-1.86.79Z"></path><path class="cls-1" d="m86.87,14.78c.94,0,1.72-.25,2.33-.75.65-.57,1.13-1.31,1.38-2.14.31-.92.46-2.14.47-3.64,0-.61-.02-1.22-.09-1.83-.04-.4-.11-.8-.21-1.2v-.02c-.08-.32-.18-.63-.3-.93-.13-.34-.3-.67-.5-.97-.32-.5-.76-.92-1.28-1.2-.56-.29-1.18-.43-1.81-.41-.84-.03-1.66.24-2.32.75-.21.17-.41.37-.57.59-.25.32-.46.67-.61,1.04-.08.16-.14.33-.2.51-.31.92-.47,2.14-.47,3.66,0,2.41.42,4.14,1.27,5.21.71.88,1.68,1.33,2.91,1.33Zm-2.01-10.39c.07-.17.16-.33.27-.49.18-.26.4-.47.67-.64.32-.19.69-.29,1.06-.28.63,0,1.24.29,1.64.78.07.08.14.17.2.26.26.36.45.92.57,1.68.12.84.18,1.68.17,2.52,0,2.1-.24,3.5-.74,4.19h-.01c-.49.71-1.1,1.06-1.82,1.06s-1.33-.35-1.82-1.04c-.49-.7-.74-2.1-.74-4.2,0-1.72.18-3,.55-3.84Z"></path><path class="cls-1" d="m8.54,6.4c0-3.22-.19-6.15-3.89-6.15H0v12.3h4.65c3.7,0,3.89-2.93,3.89-6.15Zm-5.34,3.84h0V2.56h.64c1.24,0,1.4.52,1.4,3.84s-.15,3.84-1.4,3.84h-.64Z"></path><rect class="cls-1" x="10.34" y=".25" width="3.21" height="12.3"></rect><path class="cls-1" d="m23.77,5.86h-4.13.01s-.02-.01-.02-.01v2.17h1.14c-.02,2.15-.42,2.58-1.09,2.58-.99,0-1.09-.89-1.09-4.22s.1-4.22,1.15-4.22c.34-.01.65.21.74.54.14.47.2.95.18,1.43h3.11c0-2.98-1.62-4.13-3.89-4.13-3.79,0-4.58,2.32-4.58,6.39s.29,6.39,3.55,6.39c1.08,0,2.22-.28,2.65-1.33h.03l.07,1.09h2.17v-6.68Z"></path><rect class="cls-1" x="25.53" y=".25" width="3.21" height="12.3"></rect><polygon class="cls-1" points="32.31 12.55 35.52 12.55 35.52 2.97 37.94 2.97 37.94 .25 29.91 .25 29.91 2.97 32.31 2.97 32.31 12.55"></polygon><path class="cls-1" d="m44.33.25h-4.03l-3,12.3h3.41l.33-2.15h2.55l.33,2.15h3.41L44.33.25Zm-2.91,7.73l.88-5.22h.03l.87,5.22h-1.78Z"></path></svg> 