<?xml version="1.0" encoding="UTF-8"?> <svg xmlns="http://www.w3.org/2000/svg" xmlns:xlink="http://www.w3.org/1999/xlink" version="1.1" id="Layer_1" x="0px" y="0px" width="600px" height="400px" viewBox="0 0 600 400" style="enable-background:new 0 0 600 400;" xml:space="preserve"> <style type="text/css"> .st0{fill:#FFFFFF;} </style> <g> <path class="st0" d="M483.1,205.2h34.1c-1.8-11-8-16.6-16.6-16.6C492,188.6,485.2,194.8,483.1,205.2 M502.2,257.6 c-22.7,0-42.4-17.5-42.4-43.6c0-25.4,17.8-44.2,41.5-44.2c24.3,0,38.7,20.5,38.7,43c0,2.9-0.2,5.7-0.6,8.6h-56.3 c3.1,11,12.6,16.3,23.7,16.3c11.4,0,21.5-3.7,30.4-9.2l0.3,0.3l-5.2,21.2C525.2,254,514.5,257.6,502.2,257.6 M415.2,188 c-9.8,0-15.6,8.6-15.6,18.1c0,9.2,5.9,17.8,15.6,17.8c9.8,0,15.7-8.6,15.7-17.8C430.9,196.6,425.1,188,415.2,188 M412.4,291.4 c-13.5,0-25.2-4.3-34.7-11.7l6.8-18.1h0.3c8.6,7.1,16.9,10.8,27.4,10.8c11.7,0,19.1-6.1,19.1-14.4c0-8.6-6.8-14.7-18.8-14.7 c-10.5,0-17.5,2.8-23.9,5.8l-0.3-0.3l5.2-15.9c-9.8-5.8-15.6-15.9-15.6-27.9c0-18.7,15.1-35,38.1-35c8.3,0,12.9,1.5,18.8,1.5 c9.8,0,18.8-3.1,26.7-6.4h0.3l-5.5,20.5l-13.8-1.2c7.7,6.4,10.5,13.8,10.5,22.4c0,9.2-5.5,19.6-16.9,25.4 c11.7,5.5,18.4,14.4,18.4,26.7C454.2,277.9,438,291.4,412.4,291.4 M341.2,212.2l-15.1-37.1L311,212.2H341.2z M349.7,233.1h-47.3 l-9.5,23.3h-24.6l48.8-112.9h18.4l48.9,112.9h-25.2L349.7,233.1z M217.6,191.4c-13.2,0-21.8,8.9-21.8,22.4 c0,12.6,8.6,22.4,22.1,22.4c10.1,0,20.6-7.7,20.6-22.4C238.5,200.6,229,191.4,217.6,191.4 M238.5,245.7c-7.7,8-16.3,12-26.1,12 c-23,0-40.6-19-40.6-43.6c0-26.1,18.1-44.2,41.2-44.2c10.1,0,18.1,4,24.9,10.1v-36.5h23.4v112.9h-22.8V245.7z M132.8,212.2 l-15.1-37.1l-15,37.1H132.8z M141.4,233.1H94.1l-9.5,23.3H60l48.9-112.9h18.4l48.9,112.9H151L141.4,233.1z"></path> </g> </svg> 