<?xml version="1.0" encoding="UTF-8"?> <svg xmlns="http://www.w3.org/2000/svg" xmlns:xlink="http://www.w3.org/1999/xlink" id="Layer_1" width="100" height="23.09" viewBox="0 0 100 23.09"><defs><style>.cls-1{fill:url(#linear-gradient);}</style><linearGradient id="linear-gradient" x1="168.22" y1="205.66" x2="216.22" y2="205.66" gradientTransform="translate(-116.22 -193.27)" gradientUnits="userSpaceOnUse"><stop offset=".04" stop-color="#ba6d29"></stop><stop offset=".08" stop-color="#ca7626"></stop><stop offset=".14" stop-color="#de8123"></stop><stop offset=".2" stop-color="#ec8920"></stop><stop offset=".29" stop-color="#f48e1e"></stop><stop offset=".42" stop-color="#f78f1e"></stop><stop offset="1" stop-color="#f78f1e"></stop></linearGradient></defs><path d="m5.61,19.65c-.11,2-1.03,3.12-2.6,3.12-1.78,0-2.8-1.39-2.8-4.53s1.01-4.53,2.8-4.53,2.51,1.26,2.51,2.7h-.79c0-1.19-.6-2.04-1.73-2.04-1.25,0-2.01,1.03-2.01,3.87s.76,3.86,2.01,3.86c1.1,0,1.73-.94,1.82-2.45,0,0,.79,0,.79,0Z"></path><path d="m9.79,13.71c1.78,0,2.8,1.39,2.8,4.53s-1.01,4.53-2.8,4.53-2.8-1.39-2.8-4.53,1-4.53,2.8-4.53Zm0,8.39c1.25,0,2.01-1.03,2.01-3.87s-.76-3.87-2.01-3.87-2.01,1.03-2.01,3.87.76,3.87,2.01,3.87Z"></path><path d="m14.37,13.86h1.36l2.11,7.78h.02l2.11-7.78h1.29v8.76h-.78v-8.02h-.02l-2.27,8.03h-.74l-2.27-8.03h-.02v8.03h-.79v-8.77h0Z"></path><path d="m23.19,13.86h1.36l2.11,7.78h.02l2.11-7.78h1.29v8.76h-.79v-8.02h-.02l-2.27,8.03h-.74l-2.27-8.03h-.02v8.03h-.79v-8.77h.01Z"></path><path d="m31.94,13.86h4.34v.66h-3.56v3.19h3.33v.66h-3.33v3.58h3.67v.66h-4.46v-8.76h.01Z"></path><path d="m37.8,13.86h2.61c1.46,0,2.27.83,2.27,2.2,0,1.05-.42,2-1.58,2.22v.02c1.09.1,1.46.72,1.5,2.07l.02.96c0,.48.06.94.37,1.29h-.92c-.18-.31-.22-.76-.23-1.23l-.02-.74c-.05-1.55-.33-2.04-1.74-2.04h-1.48v4h-.79v-8.76h0Zm.79,4.1h1.36c1.24,0,1.96-.56,1.96-1.72,0-1.07-.46-1.72-1.88-1.72h-1.43v3.43h0Z"></path><path d="m49.66,19.65c-.11,2-1.03,3.12-2.6,3.12-1.78,0-2.8-1.39-2.8-4.53s1-4.53,2.8-4.53,2.51,1.27,2.51,2.7h-.79c0-1.19-.6-2.04-1.73-2.04-1.25,0-2.01,1.03-2.01,3.87s.76,3.86,2.01,3.86c1.1,0,1.73-.94,1.82-2.45,0,0,.79,0,.79,0Z"></path><path d="m51.11,13.86h4.34v.66h-3.56v3.19h3.33v.66h-3.33v3.58h3.67v.66h-4.46v-8.76h.01Z"></path><path class="cls-1" d="m75.44,22.61l-.57-.03-.69-.04-.98-.07c-.71-.06-1.59-.14-2.58-.27s-2.11-.3-3.33-.53c-2.79-.5-5.53-1.3-8.15-2.38-1.45-.63-2.93-1.38-4.32-2.48-.74-.57-1.38-1.25-1.91-2.01-.14-.21-.27-.42-.39-.64-.11-.24-.21-.48-.3-.73l-.11-.39c-.03-.13-.05-.27-.07-.4-.03-.13-.04-.27-.04-.41v-.38h0v-.11l.03-.29c0-.05,0-.09.02-.16l.05-.22c.03-.15.06-.31.11-.44l.14-.37c.1-.23.21-.46.34-.68.13-.21.27-.41.42-.6.57-.7,1.24-1.3,2-1.78,1.43-.94,2.91-1.53,4.36-2,.52-.17,1.04-.31,1.55-.44-.08.24.7,1.22.7,1.22-.57.2-1.14.43-1.71.67-1.31.57-2.63,1.27-3.74,2.16-.53.41-.99.91-1.37,1.47-.08.13-.16.26-.22.39-.05.13-.12.26-.15.39l-.05.19c0,.06,0,.09-.02.14v.06s0,.09,0,.14v.3c-.02.14-.15.24-.29.22-.14-.02-.24-.15-.22-.29s.15-.24.29-.22c.11.02.2.1.22.22h0v.08l.02.09c0,.06.02.12.04.18s.03.12.05.18l.08.18c.05.12.11.24.18.36.09.11.15.23.26.35.42.48.91.9,1.45,1.23,1.14.73,2.47,1.27,3.78,1.69,2.46.74,5,1.22,7.56,1.43,1.13.1,2.17.16,3.1.18s1.73.03,2.4.02c.32,0,.61-.02.87-.02l.68-.03.44-.02h.13l-.05,4.89h0Zm23.82-13.45c-.47-.74-1.08-1.39-1.78-1.92-.64-.48-1.32-.91-2.04-1.26-1.09-.54-2.23-.99-3.39-1.34.08.23.16.47.23.74.1.41.17.83.21,1.25l.02.18c.65.31,1.28.65,1.89,1.03.56.34,1.08.74,1.57,1.19.44.39.8.86,1.07,1.38.21.41.28.87.2,1.32-.11.46-.34.88-.67,1.22-.39.42-.84.79-1.32,1.09-.52.33-1.06.62-1.63.87-1.9.84-4.04,1.43-6.76,1.87-1.03.16-1.98.28-2.84.36l-.8.07-.18-1.46-1.75,1.05-1.61.95-3.6,2.11.23.13c.49.27,1.13.63,1.78.94s1.33.62,1.83.83c.69.28,1.3.51,1.88.7.63.21,1.28.4,1.92.57l.22.06-.18-1.44.17-.03.7-.13c.94-.18,1.97-.4,3.07-.69,1.21-.31,2.41-.68,3.58-1.11,1.34-.48,2.64-1.07,3.88-1.77.68-.38,1.34-.82,1.95-1.31.68-.53,1.28-1.14,1.8-1.83.6-.79.97-1.73,1.07-2.72.08-1.02-.18-2.04-.72-2.9h0Zm-30.48-1.55c.54-.23.99-.6,1.32-1.08.29-.45.45-.97.44-1.51,0-.45-.1-.9-.29-1.32-.05-.11-.11-.23-.18-.33-.07-.11-.14-.22-.23-.32-.3-.38-.69-.69-1.13-.9-.6-.3-1.26-.46-1.93-.45-.93-.03-1.83.28-2.54.87-.48.41-.85.95-1.06,1.55-.11.29-.2.59-.25.9l1.19.21.38.07c0-.07.02-.14.04-.21.08-.53.3-1.02.64-1.43.03-.04.07-.07.1-.11.41-.39.96-.59,1.53-.57.38,0,.76.08,1.09.26.15.08.3.19.42.31.14.13.25.28.34.45.17.3.25.64.24.99,0,.73-.27,1.26-.8,1.61-.54.35-1.17.53-1.81.52-.06,0-.15,0-.25-.02l-.18,1.38c.36-.11.73-.17,1.11-.18.67-.02,1.32.23,1.8.7s.73,1.12.71,1.78c.02.71-.26,1.4-.76,1.91-.48.51-1.16.79-1.86.79-.59.01-1.15-.2-1.59-.59-.43-.39-.74-1.03-.92-1.93l-1.57.21c.07,1,.53,1.93,1.27,2.6s1.68,1.01,2.8,1.01c1.24,0,2.27-.39,3.09-1.17.79-.73,1.24-1.76,1.22-2.84.02-.74-.2-1.46-.64-2.06-.44-.57-1.06-.96-1.77-1.1h.03Zm8.55-1.37c-.6,0-1.19.14-1.72.42-.57.3-1.05.74-1.39,1.29.01-1.28.16-2.27.45-2.96.23-.63.64-1.17,1.17-1.58.14-.1.29-.19.45-.26h0c.28-.11.57-.16.87-.16.42,0,.82.11,1.17.34.15.09.28.21.4.33.26.28.45.73.59,1.35l1.56-.12c-.05-.45-.18-.88-.37-1.29-.15-.31-.34-.6-.58-.85h0c-.07-.07-.13-.13-.21-.2-.65-.57-1.47-.85-2.48-.85-1.21,0-2.19.39-2.95,1.17-.09.09-.18.19-.27.3h0c-.91,1.13-1.36,2.93-1.35,5.39,0,2.21.41,3.8,1.24,4.77.79.95,1.98,1.48,3.21,1.45.73.01,1.44-.18,2.06-.55.62-.38,1.11-.93,1.43-1.59.35-.69.53-1.46.52-2.24,0-1.22-.37-2.22-1.11-2.99-.69-.75-1.66-1.17-2.68-1.16h0Zm1.46,6.43c-.42.51-1.05.81-1.71.8-.46,0-.91-.14-1.3-.39-.43-.27-.76-.67-.96-1.13-.23-.49-.35-1.02-.35-1.55,0-.83.25-1.5.74-2.01.47-.5,1.13-.77,1.81-.75.68-.02,1.33.26,1.78.76.48.51.71,1.21.71,2.09s-.25,1.64-.72,2.18h0Zm11.95-7.47c-.08-.32-.18-.63-.3-.93-.13-.34-.3-.67-.5-.97-.32-.5-.76-.92-1.28-1.2-.56-.29-1.18-.43-1.81-.41-.84-.03-1.66.24-2.32.75-.21.17-.41.37-.57.59-.25.32-.46.67-.61,1.04-.08.16-.14.33-.2.51-.31.92-.47,2.14-.47,3.66,0,2.41.42,4.14,1.27,5.21.71.88,1.68,1.33,2.91,1.33.94,0,1.72-.25,2.33-.75.65-.57,1.13-1.31,1.38-2.14.31-.92.46-2.14.47-3.64,0-.61-.02-1.22-.09-1.83-.04-.4-.11-.8-.21-1.2h0v-.02Zm-2.06,7.22c-.49.7-1.1,1.05-1.82,1.05s-1.33-.35-1.82-1.04c-.49-.7-.74-2.1-.74-4.2,0-1.72.18-3,.55-3.84.07-.17.16-.33.27-.49.18-.26.4-.47.67-.64.32-.19.69-.29,1.06-.28.63,0,1.24.29,1.64.78.07.08.14.17.2.26.26.36.45.92.57,1.68.12.84.18,1.68.17,2.52,0,2.1-.24,3.5-.74,4.19h0Z"></path><path d="m0,.25h4.65c3.7,0,3.89,2.93,3.89,6.15s-.19,6.15-3.89,6.15H0V.25Zm3.2,9.99h.64c1.25,0,1.4-.52,1.4-3.84s-.16-3.84-1.4-3.84h-.64v7.67h0Z"></path><path d="m10.34.25h3.21v12.3h-3.21V.25Z"></path><path d="m19.64,5.86h4.13v6.68h-2.17l-.07-1.09h-.03c-.43,1.05-1.57,1.33-2.65,1.33-3.26,0-3.55-2.32-3.55-6.39s.79-6.39,4.58-6.39c2.27,0,3.89,1.15,3.89,4.13h-3.11c.02-.48-.04-.96-.18-1.43-.09-.33-.4-.55-.74-.54-1.05,0-1.15.89-1.15,4.22s.1,4.22,1.09,4.22c.67,0,1.07-.43,1.09-2.58h-1.14v-2.17h.02-.01Z"></path><path d="m25.53.25h3.21v12.3h-3.21s0-12.3,0-12.3Z"></path><path d="m32.32,2.97h-2.41V.25h8.03v2.72h-2.42v9.58h-3.21V2.97h.01Z"></path><path d="m40.3.25h4.03l3,12.3h-3.41l-.33-2.15h-2.55l-.33,2.15h-3.41L40.3.25Zm2.03,2.51h-.03l-.88,5.22h1.78l-.87-5.22Z"></path><path d="m48.43.25h3.2v9.68h3.94v2.62h-7.14V.25h0Z"></path></svg> 