<?xml version="1.0" encoding="UTF-8"?> <svg xmlns="http://www.w3.org/2000/svg" id="Layer_1" width="600" height="400" viewBox="0 0 600 400"><defs><style>.cls-1{fill:#fff;}.cls-2{fill:#09f;}.cls-3{fill:#6e6f72;}</style></defs><path class="cls-3" d="m105.95,226.93v-54.49h8.76v54.49h-8.76Zm21.51,0v-56.56l34.57,33.3c.96.96,1.91,1.91,2.87,3.03.96,1.12,1.91,2.23,3.03,3.66v-37.92h8.13v56.72l-35.21-33.94c-.96-.96-1.91-1.91-2.71-2.87-.96-.96-1.75-2.07-2.55-3.19v37.92h-8.13v-.16Zm61.34,0v-54.49h30.43v7.49h-21.67v13.54h21.51v7.81h-21.51v25.65h-8.76Zm48.27-24.38v24.38h-8.28v-54.49h12.43c3.66,0,6.37.16,8.44.64,2.07.48,3.66,1.27,5.1,2.39,1.75,1.27,3.03,3.03,3.98,5.1.96,2.07,1.43,4.3,1.43,6.85,0,4.3-1.12,7.81-3.19,10.2-2.07,2.55-5.26,3.98-9.4,4.46l18.8,24.85h-10.04l-18.16-24.38h-1.12Zm.64-6.85h1.59c4.62,0,7.81-.48,9.4-1.59,1.59-1.12,2.23-3.03,2.23-5.74,0-3.03-.8-5.1-2.55-6.37-1.59-1.27-4.78-1.91-9.24-1.91h-1.59v15.61h.16Zm69.78,31.23l-6.21-14.02h-21.67l-6.37,14.02h-9.24l26.45-56.72,26.29,56.72h-9.24Zm-24.54-21.35h15.14l-5.58-12.43c-.32-.8-.64-1.75-.96-2.71-.32-.96-.64-2.23-1.12-3.51l-.96,3.35-.96,2.87-5.58,12.43h0Zm67.87-6.53h21.67v1.59c0,1.75.16,3.03.16,3.51,0,7.65-2.23,13.7-6.53,17.84-4.3,4.14-10.52,6.37-18.64,6.37-4.46,0-8.44-.64-11.95-1.91s-6.53-3.35-9.24-5.89c-2.55-2.71-4.62-5.74-5.89-9.24-1.43-3.51-2.07-7.33-2.07-11.47s.64-7.97,2.07-11.47c1.43-3.51,3.51-6.53,6.21-9.24,2.71-2.55,5.74-4.62,9.4-5.89,3.51-1.43,7.33-2.07,11.47-2.07s8.13.8,11.47,2.39c3.35,1.59,6.37,3.98,9.08,7.17l-6.53,4.94c-1.91-2.07-3.98-3.66-6.21-4.78-2.39-1.12-4.94-1.59-7.81-1.59-5.89,0-10.67,1.91-14.5,5.74-3.66,3.82-5.58,8.76-5.58,14.82s1.91,11.15,5.58,14.98c3.66,3.82,8.6,5.74,14.5,5.74,5.1,0,9.08-1.12,11.95-3.51s4.3-5.58,4.3-9.72v-.8h-13.06v-7.49h.16Zm31.23,27.88v-54.49h8.92v54.49h-8.92Zm18.48-10.83l7.01-3.35c.64,2.39,1.91,4.3,3.66,5.58,1.75,1.27,4.14,1.91,6.85,1.91s4.78-.8,6.21-2.23c1.59-1.43,2.39-3.35,2.39-5.89,0-3.19-2.71-6.05-7.97-8.6-.8-.32-1.27-.64-1.75-.8-6.05-2.87-10.04-5.58-11.95-7.97-2.07-2.39-3.03-5.26-3.03-8.76,0-4.46,1.43-7.97,4.46-10.83,3.03-2.71,7.01-4.14,11.79-4.14,3.98,0,7.33.8,10.04,2.39,2.71,1.59,4.62,3.82,5.58,6.69l-6.85,3.51c-1.12-1.75-2.23-3.03-3.66-3.82-1.27-.8-2.87-1.12-4.46-1.12-2.39,0-4.3.64-5.74,1.91-1.43,1.27-2.07,2.87-2.07,4.94,0,3.35,3.03,6.37,9.24,9.24.48.16.8.48,1.12.48,5.42,2.55,9.08,4.94,11.15,7.33s3.03,5.26,3.03,8.92c0,5.1-1.59,9.24-4.94,12.27-3.35,3.03-7.65,4.62-13.22,4.62-4.62,0-8.44-1.12-11.47-3.19-2.55-2.07-4.46-5.1-5.42-9.08h0Zm62.61-36.17v47h-8.92v-47h-14.5v-7.49h37.76v7.49s-14.34,0-14.34,0Zm21.35,47v-54.49h8.92v54.49h-8.92Zm65.32-41.26c-2.55-2.07-5.1-3.66-7.97-4.78-2.87-1.12-5.74-1.59-8.76-1.59-5.89,0-10.83,1.91-14.5,5.74-3.66,3.82-5.58,8.76-5.58,14.82s1.75,10.67,5.42,14.5c3.66,3.82,8.28,5.74,13.7,5.74,3.19,0,6.37-.64,9.24-1.75,2.87-1.12,5.74-2.87,8.44-5.1v10.2c-2.39,1.75-4.94,3.03-7.81,3.82-2.87.8-5.89,1.27-9.08,1.27-4.14,0-7.97-.64-11.63-2.07-3.51-1.43-6.69-3.35-9.4-6.05-2.71-2.55-4.62-5.74-6.05-9.24s-2.07-7.33-2.07-11.31.64-7.81,2.07-11.31,3.51-6.53,6.21-9.24c2.71-2.71,5.74-4.78,9.24-6.05,3.51-1.43,7.33-2.07,11.31-2.07,3.19,0,6.21.48,9.24,1.43,2.87.96,5.74,2.39,8.44,4.3l-.48,8.76h0Zm7.97,30.43l7.01-3.35c.64,2.39,1.91,4.3,3.66,5.58,1.75,1.27,4.14,1.91,6.85,1.91s4.78-.8,6.21-2.23c1.59-1.43,2.39-3.35,2.39-5.89,0-3.19-2.71-6.05-7.97-8.6-.8-.32-1.27-.64-1.75-.8-6.05-2.87-10.04-5.58-11.95-7.97-2.07-2.39-3.03-5.26-3.03-8.76,0-4.46,1.43-7.97,4.46-10.83,3.03-2.71,7.01-4.14,11.79-4.14,3.98,0,7.33.8,10.04,2.39,2.71,1.59,4.62,3.82,5.58,6.69l-6.85,3.51c-1.12-1.75-2.23-3.03-3.66-3.82-1.27-.8-2.87-1.12-4.46-1.12-2.39,0-4.3.64-5.74,1.91s-2.07,2.87-2.07,4.94c0,3.35,3.03,6.37,9.24,9.24.48.16.8.48,1.12.48,5.42,2.55,9.08,4.94,11.15,7.33s3.03,5.26,3.03,8.92c0,5.1-1.59,9.24-4.94,12.27s-7.65,4.62-13.22,4.62c-4.62,0-8.44-1.12-11.47-3.19-2.55-2.07-4.62-5.1-5.42-9.08h0Zm42.22-40.63c0,2.39-1.91,4.3-4.3,4.3s-4.46-1.91-4.46-4.3,1.91-4.3,4.46-4.3c2.39,0,4.3,1.91,4.3,4.3Zm-7.81,0c0,1.91,1.43,3.35,3.35,3.35s3.19-1.43,3.19-3.35-1.43-3.51-3.35-3.51c-1.75.16-3.19,1.59-3.19,3.51Zm2.71,2.23h-.96v-4.3c.32,0,.96-.16,1.59-.16.8,0,1.12.16,1.43.32.16.16.48.48.48.96s-.32.8-.96.96c.48.16.64.48.8,1.12s.16.96.32,1.12h-1.12c-.16-.16-.16-.48-.32-1.12,0-.48-.32-.64-.96-.64h-.48v1.75h.16Zm0-2.39h.48c.48,0,.96-.16.96-.64,0-.32-.32-.64-.96-.64h-.48s0,1.27,0,1.27Z"></path><path class="cls-2" d="m0,158.1h91.45v83.8H0v-83.8Z"></path><path class="cls-1" d="m14.18,172.28h14.66v14.5h-14.66v-14.5Z"></path><path class="cls-1" d="m68.03,172.28h-33.94v28.84h13.7v-14.66h14.82v26.93H28.36v-21.35h-14.18v26.45c0,5.1,4.14,9.08,9.08,9.08h53.69v-46.04c.16-5.1-3.98-9.24-8.92-9.24Z"></path></svg> 