<?xml version="1.0" encoding="UTF-8"?> <svg xmlns="http://www.w3.org/2000/svg" id="Layer_1" width="100" height="18.35" viewBox="0 0 100 18.35"><defs><style>.cls-1{fill:#fff;}</style></defs><path class="cls-1" d="m98.34,3.97c-1.62-2.25-4.25-3.73-7.23-3.75-.01,0-.03,0-.04,0h-4.69c-.31.03-.63.09-.92.19-.82.28-1.52.88-1.92,1.73-.19.4-.28.81-.3,1.22v.22s0,0,0,0v5.53c.05,1.27.79,2.47,2.02,3.04.43.2.89.3,1.34.32h.58V3.97h3.9c2.74.13,4.69,2.34,4.69,5.12s-2.08,5.16-4.95,5.16h-9.94V3.8c-.01-.76-.16-1.3-.41-1.76,0,0,0,0,0,0,0,0-.06-.11-.16-.26,0,0-.01-.02-.02-.03-.15-.22-.37-.52-.63-.73-.19-.15-1.01-.83-2.32-.83s-2.62.7-3.38,2.58l-4.42,10.93c-1.47-3.5-4.77-11.67-4.77-11.67-.59-1.14-1.76-1.93-3.13-1.93-.48,0-.94.1-1.35.27l-.05.03-.48.22v.03s6.6,15.7,6.6,15.7c.17.34.4.64.66.9.02.02.05.05.07.07,0,0,0,0,0,0,.62.57,1.45.91,2.35.91,1.37,0,2.55-.79,3.12-1.94,0,0,0,0,0,0l4.34-10.4v8.73c.06,1.27.79,2.47,2.03,3.04.43.2.88.3,1.34.32h.58s0,0,0,0h10.19c4.91,0,8.93-3.99,8.93-8.93,0-1.91-.62-3.67-1.66-5.12Zm-20.3-.67l-.02.04s.01-.03.02-.04Z"></path><path class="cls-1" d="m21.3.3h-2.56c-.36,0-.65.29-.65.65v9.63c0,.36-.18.41-.39.13L10.17.82c-.22-.28-.68-.52-1.04-.52h-2.3c-.36,0-.65.29-.65.65v16.44c0,.36.29.65.65.65h2.56c.36,0,.65-.29.65-.65V7.42c0-.36.18-.42.39-.13l7.81,10.25c.22.28.68.51,1.04.51h2.03c.36,0,.65-.29.65-.65V.95c0-.36-.29-.65-.65-.65Z"></path><path class="cls-1" d="m39.32.3h-2.56c-.35,0-.65.29-.65.65v9.63c0,.36-.18.41-.39.13L28.2.82c-.22-.28-.68-.52-1.04-.52h-2.3c-.36,0-.65.29-.65.65v16.44c0,.36.29.65.65.65h2.56c.35,0,.65-.29.65-.65V7.42c0-.36.18-.42.39-.13l7.8,10.25c.22.28.68.51,1.04.51h2.02c.36,0,.65-.29.65-.65V.95c0-.36-.29-.65-.65-.65Z"></path><path class="cls-1" d="m51.1,0c-5.47,0-9.45,4.13-9.45,9.17v.05c0,5.04,3.93,9.12,9.4,9.12s9.45-4.13,9.45-9.17v-.05c0-5.04-3.93-9.12-9.4-9.12Zm5.32,9.22c0,3.04-2.18,5.52-5.32,5.52s-5.37-2.53-5.37-5.57v-.05c0-3.04,2.18-5.53,5.32-5.53s5.38,2.53,5.38,5.58v.05Z"></path><path class="cls-1" d="m.54.33h2.84c.3,0,.54.24.54.54v16.65c0,.3-.24.54-.54.54H.54c-.3,0-.53-.24-.53-.53V.86C0,.57.24.33.54.33Z"></path></svg> 