<?xml version="1.0" encoding="UTF-8"?> <svg xmlns="http://www.w3.org/2000/svg" id="Layer_1" width="600" height="400" viewBox="0 0 600 400"><defs><style>.cls-1{fill:#fff;}</style></defs><path class="cls-1" d="m79.38,250.67c-6,0-9.65-4.9-9.65-18.53s3.65-18.58,9.65-18.58c5.42,0,8.3,4.08,8.3,9.79h3.79c0-6.91-3.46-12.96-12.05-12.96s-13.44,6.67-13.44,21.75,4.9,21.75,13.44,21.75c7.54,0,11.95-5.38,12.48-14.98h-3.79c-.43,7.25-3.46,11.76-8.74,11.76Z"></path><path class="cls-1" d="m111.97,210.39c-8.64,0-13.44,6.67-13.44,21.75s4.85,21.75,13.44,21.75,13.44-6.67,13.44-21.75-4.9-21.75-13.44-21.75Zm0,40.27c-6,0-9.65-4.94-9.65-18.58s3.65-18.58,9.65-18.58,9.65,4.94,9.65,18.58-3.65,18.58-9.65,18.58Z"></path><polygon class="cls-1" points="150.71 248.46 150.62 248.46 140.49 211.11 133.96 211.11 133.96 253.21 137.75 253.21 137.75 214.66 137.85 214.66 148.74 253.21 152.3 253.21 163.19 214.66 163.29 214.66 163.29 253.16 167.03 253.16 167.03 211.11 160.84 211.11 150.71 248.46"></polygon><polygon class="cls-1" points="193.05 248.46 192.96 248.46 182.83 211.11 176.3 211.11 176.25 211.11 176.25 253.21 180.04 253.21 180.04 214.66 180.14 214.66 191.04 253.21 194.59 253.21 205.48 214.66 205.58 214.66 205.58 253.16 209.37 253.16 209.37 211.11 203.18 211.11 193.05 248.46"></polygon><polygon class="cls-1" points="222.05 232.76 238.03 232.76 238.03 229.59 222.05 229.59 222.05 214.28 239.13 214.28 239.13 211.11 218.3 211.11 218.25 211.06 218.25 253.12 239.66 253.12 239.66 249.95 222.05 249.95 222.05 232.76"></polygon><path class="cls-1" d="m269.47,242.36c-.19-6.48-1.97-9.46-7.2-9.94v-.1c5.57-1.06,7.58-5.62,7.58-10.66,0-6.58-3.89-10.56-10.9-10.56h-12.48v42h3.79v-19.2h7.1c6.77,0,8.11,2.35,8.35,9.79l.1,3.55c.05,2.26.24,4.42,1.1,5.9h4.42c-1.49-1.68-1.73-3.89-1.78-6.19l-.1-4.61Zm-12.72-11.57h-6.53v-.05h.05v-16.46h6.86c6.82,0,9.02,3.12,9.02,8.26,0,5.57-3.46,8.26-9.41,8.26Z"></path><polygon class="cls-1" points="246.43 211.11 246.48 211.11 246.48 211.06 246.43 211.11"></polygon><path class="cls-1" d="m290.83,250.67c-6,0-9.65-4.9-9.65-18.53s3.65-18.58,9.65-18.58c5.42,0,8.3,4.08,8.3,9.79h3.79c0-6.86-3.41-12.96-12.05-12.96s-13.44,6.67-13.44,21.75,4.9,21.75,13.44,21.75c7.54,0,11.95-5.38,12.48-14.98h-3.79c-.43,7.25-3.46,11.76-8.74,11.76Z"></path><path class="cls-1" d="m385.93,209.29c-2.83.05-5.52-.96-7.63-2.83-2.06-1.87-3.55-4.94-4.42-9.26l-7.54,1.01c.34,4.8,2.54,9.26,6.1,12.48s8.06,4.85,13.44,4.85c5.95,0,10.9-1.87,14.83-5.62,3.79-3.5,5.95-8.45,5.86-13.63.1-3.55-.96-7.01-3.07-9.89-2.11-2.74-5.09-4.61-8.5-5.28h.14c2.59-1.1,4.75-2.88,6.34-5.18,1.39-2.16,2.16-4.66,2.11-7.25,0-2.16-.48-4.32-1.39-6.34-.24-.53-.53-1.1-.86-1.58-.34-.53-.67-1.06-1.1-1.54-1.44-1.82-3.31-3.31-5.42-4.32-2.88-1.44-6.05-2.21-9.26-2.16-4.46-.14-8.78,1.34-12.19,4.18-2.3,1.97-4.08,4.56-5.09,7.44-.53,1.39-.96,2.83-1.2,4.32l5.71,1.01,1.82.34c0-.34.1-.67.19-1.01.38-2.54,1.44-4.9,3.07-6.86.14-.19.34-.34.48-.53,1.97-1.87,4.61-2.83,7.34-2.74,1.82,0,3.65.38,5.23,1.25.72.38,1.44.91,2.02,1.49.67.62,1.2,1.34,1.63,2.16.82,1.44,1.2,3.07,1.15,4.75,0,3.5-1.3,6.05-3.84,7.73-2.59,1.68-5.62,2.54-8.69,2.5-.29,0-.72,0-1.2-.1l-.86,6.62c1.73-.53,3.5-.82,5.33-.86,3.22-.1,6.34,1.1,8.64,3.36,2.3,2.26,3.5,5.38,3.41,8.54.1,3.41-1.25,6.72-3.65,9.17-2.3,2.45-5.57,3.79-8.93,3.79Z"></path><path class="cls-1" d="m481.93,215.53c4.51,0,8.26-1.2,11.18-3.6,3.12-2.74,5.42-6.29,6.62-10.27,1.49-4.42,2.21-10.27,2.26-17.47,0-2.93-.1-5.86-.43-8.78-.19-1.92-.53-3.84-1.01-5.76v-.1c-.38-1.54-.86-3.02-1.44-4.46-.62-1.63-1.44-3.22-2.4-4.66-1.54-2.4-3.65-4.42-6.14-5.76-2.69-1.39-5.66-2.06-8.69-1.97-4.03-.14-7.97,1.15-11.14,3.6-1.01.82-1.97,1.78-2.74,2.83-1.2,1.54-2.21,3.22-2.93,4.99-.38.77-.67,1.58-.96,2.45-1.49,4.42-2.26,10.27-2.26,17.57,0,11.57,2.02,19.87,6.1,25.01,3.41,4.22,8.06,6.38,13.97,6.38Zm-9.65-49.87c.34-.82.77-1.58,1.3-2.35.86-1.25,1.92-2.26,3.22-3.07,1.54-.91,3.31-1.39,5.09-1.34,3.02,0,5.95,1.39,7.87,3.74.34.38.67.82.96,1.25,1.25,1.73,2.16,4.42,2.74,8.06.58,4.03.86,8.06.82,12.1,0,10.08-1.15,16.8-3.55,20.11l-.05.05c-2.35,3.36-5.28,5.04-8.74,5.04s-6.38-1.68-8.74-4.99c-2.35-3.36-3.55-10.08-3.55-20.16,0-8.26.86-14.4,2.64-18.43Z"></path><path class="cls-1" d="m541.46,188.55h0c-2.26-3.55-5.18-6.67-8.54-9.22-3.07-2.3-6.34-4.37-9.79-6.05-5.23-2.59-10.7-4.75-16.27-6.43.38,1.1.77,2.26,1.1,3.55.48,1.97.82,3.98,1.01,6l.1.86c3.12,1.49,6.14,3.12,9.07,4.94,2.69,1.63,5.18,3.55,7.54,5.71,2.11,1.87,3.84,4.13,5.14,6.62,1.01,1.97,1.34,4.18.96,6.34-.53,2.21-1.63,4.22-3.22,5.86-1.87,2.02-4.03,3.79-6.34,5.23-2.5,1.58-5.09,2.98-7.82,4.18-9.12,4.03-19.39,6.86-32.45,8.98-4.94.77-9.5,1.34-13.63,1.73l-3.84.34-.86-7.01-8.4,5.04-7.73,4.56-17.28,10.13,1.1.62c2.35,1.3,5.42,3.02,8.54,4.51s6.38,2.98,8.78,3.98c3.31,1.34,6.24,2.45,9.02,3.36,3.02,1.01,6.14,1.92,9.22,2.74l1.06.29-.86-6.91.82-.14,3.36-.62c4.51-.86,9.46-1.92,14.74-3.31,5.81-1.49,11.57-3.26,17.19-5.33,6.43-2.3,12.67-5.14,18.63-8.5,3.26-1.82,6.43-3.94,9.36-6.29,3.26-2.54,6.14-5.47,8.64-8.78,2.88-3.79,4.66-8.3,5.14-13.06.38-4.9-.86-9.79-3.46-13.92Z"></path><path class="cls-1" d="m424.62,229.74l-3.26.14c-1.25,0-2.64.1-4.18.1-3.22.05-7.06,0-11.52-.1-4.46-.1-9.46-.38-14.88-.86-12.29-1.01-24.48-3.31-36.29-6.86-6.29-2.02-12.67-4.61-18.15-8.11-2.59-1.58-4.94-3.6-6.96-5.9-.53-.58-.82-1.15-1.25-1.68-.32-.54-.59-1.09-.82-1.63h4.42v-12.58h-1.98c1.56-2.01,3.34-3.83,5.34-5.38,5.33-4.27,11.66-7.63,17.95-10.37,2.74-1.15,5.47-2.26,8.21-3.22,0,0-3.74-4.7-3.36-5.86-2.45.62-4.94,1.3-7.44,2.11-6.96,2.26-14.06,5.09-20.93,9.6-3.65,2.3-6.86,5.18-9.6,8.54-.72.91-1.39,1.87-2.02,2.88-.32.55-.62,1.11-.9,1.68h-4.19v-46.47h-15.36v59.04h17.26c.02.14.03.29.07.43.1.62.19,1.3.34,1.92l.53,1.87c.25.7.53,1.39.81,2.06h-6.14l-.05-.05v42.05h21.41v-3.17h-17.62v-17.18h15.98v-3.17h-15.98v-15.31h4.04c.28.45.56.9.86,1.34,2.54,3.65,5.62,6.91,9.17,9.65,6.67,5.28,13.78,8.88,20.74,11.9,12.58,5.18,25.73,9.02,39.12,11.42,5.86,1.1,11.23,1.92,15.98,2.54s8.98,1.01,12.38,1.3l4.7.34,3.31.19,2.74.14.24-23.47h-.62l-2.11.1Z"></path><path class="cls-1" d="m435.18,215.53c3.5.05,6.91-.86,9.89-2.64,2.98-1.82,5.33-4.46,6.86-7.63,1.68-3.31,2.54-7.01,2.5-10.75,0-5.86-1.78-10.66-5.33-14.35-3.31-3.6-7.97-5.62-12.86-5.57l-.05-.05c-2.88,0-5.71.67-8.26,2.02-2.74,1.44-5.04,3.55-6.67,6.19.05-6.14.77-10.9,2.16-14.21,1.1-3.02,3.07-5.62,5.62-7.58.67-.48,1.39-.91,2.16-1.25,1.34-.53,2.74-.77,4.18-.77,2.02,0,3.94.53,5.62,1.63.72.43,1.34,1.01,1.92,1.58,1.25,1.34,2.16,3.5,2.83,6.48l7.49-.58c-.24-2.16-.86-4.22-1.78-6.19-.72-1.49-1.63-2.88-2.78-4.08-.34-.34-.62-.62-1.01-.96-3.12-2.74-7.06-4.08-11.9-4.08-5.81,0-10.51,1.87-14.16,5.62-.43.43-.86.91-1.3,1.44-4.37,5.42-6.53,14.06-6.48,25.87,0,10.61,1.97,18.24,5.95,22.9,3.79,4.56,9.5,7.1,15.41,6.96Zm-9.17-30.67c2.26-2.4,5.42-3.7,8.69-3.6,3.26-.1,6.38,1.25,8.54,3.65,2.3,2.45,3.41,5.81,3.41,10.03s-1.2,7.87-3.46,10.46c-2.02,2.45-5.04,3.89-8.21,3.84-2.21,0-4.37-.67-6.24-1.87-2.06-1.3-3.65-3.22-4.61-5.42-1.1-2.35-1.68-4.9-1.68-7.44,0-3.98,1.2-7.2,3.55-9.65Z"></path><path class="cls-1" d="m105.97,175.3c0-15.46-.91-29.52-18.67-29.52h-22.32v59.04h22.32c17.76,0,18.67-14.06,18.67-29.52Zm-25.63,18.43v-36.87h3.07c5.95,0,6.72,2.5,6.72,18.43s-.72,18.43-6.72,18.43h-3.07Z"></path><rect class="cls-1" x="114.61" y="145.78" width="15.41" height="59.04"></rect><path class="cls-1" d="m179.08,172.71h-19.83l.05-.05h-.1v10.42h5.47c-.1,10.32-2.02,12.38-5.23,12.38-4.75,0-5.23-4.27-5.23-20.26s.48-20.26,5.52-20.26c1.63-.05,3.12,1.01,3.55,2.59.67,2.26.96,4.56.86,6.86h14.93c0-14.3-7.78-19.83-18.67-19.83-18.19,0-21.99,11.14-21.99,30.67s1.39,30.67,17.04,30.67c5.18,0,10.66-1.34,12.72-6.38h.14l.34,5.23h10.42v-32.07Z"></path><rect class="cls-1" x="187.53" y="145.78" width="15.41" height="59.04"></rect><polygon class="cls-1" points="220.08 204.82 235.49 204.82 235.49 158.84 247.1 158.84 247.1 145.78 208.56 145.78 208.56 158.84 220.08 158.84 220.08 204.82"></polygon><path class="cls-1" d="m277.78,145.78h-19.35l-14.4,59.04h16.37l1.58-10.32h12.24l1.58,10.32h16.37l-14.4-59.04Zm-13.97,37.11l4.22-25.06h.14l4.18,25.06h-8.54Z"></path></svg> 