<?xml version="1.0" encoding="UTF-8"?> <svg xmlns="http://www.w3.org/2000/svg" id="fc3d148d-fbfa-46cf-8135-1727c75c5a94" data-name="b098e73f-40ee-48ee-9786-83a5f12ed541" width="600" height="400" viewBox="0 0 600 400"><defs><style>.e1028a53-9c7e-413a-8920-8e6f99c4c01e{fill:#3a357e;}</style></defs><path class="e1028a53-9c7e-413a-8920-8e6f99c4c01e" d="M598.61,199.92h-6c-.6,0-.78,0-.78.78v7.15c0,.6,0,.78.78.78h7.27V199.8A2,2,0,0,1,598.61,199.92Z"></path><path class="e1028a53-9c7e-413a-8920-8e6f99c4c01e" d="M591.58,214.46V221c0,.78,0,1,1,1h7.09v-8.17h-7.21C591.7,213.86,591.52,213.86,591.58,214.46Z"></path><path class="e1028a53-9c7e-413a-8920-8e6f99c4c01e" d="M436.2,213.86h-5.35c-.9,0-1.2,0-1.2-1.14V193.5a24.66,24.66,0,0,0,0-4.21,12.93,12.93,0,0,0-5.47-9.31,16.15,16.15,0,0,0-20.66,3.85h0a12.72,12.72,0,0,0-11.23-6,14,14,0,0,0-12,4.86c-.36-1.2-.72-2.28-1-3.36s0-.72-.85-.72H365.26c-.6,0-.78,0-.78.84v6.43c0,.78,0,.9.9.9H371c.72,0,.9,0,.9,1v25.35c0,.72,0,.9-.9.9H358.23c-.84,0-1.08,0-1.08-1.08v-18a24,24,0,0,0-.36-4.63,13,13,0,0,0-8.29-11,18,18,0,0,0-18.74,2.52h0V160.7c0-.48,0-.9-.66-.9H313.6c-.54,0-.66,0-.66.66v6.73c0,.6,0,.72.78.72h6c.66,0,.78,0,.78.72v44.45c0,.66,0,.9-.78.9h-6c-.48,0-.72,0-.72.66v6.79c0,.54,0,.66.72.66h22.77c.54,0,.72,0,.72-.72V214.7c0-.6,0-.78-.78-.78h-5.95c-.48,0-.78,0-.78-.66V193.44a7.09,7.09,0,0,1,5.71-7.09,16,16,0,0,1,5.34,0,7.08,7.08,0,0,1,7,7.15h0a2,2,0,0,0,0,.6v27.21c0,.9.3,1.08,1.14,1.08h38.2c.72,0,.9,0,.9-.9v-6c0-.84,0-1-1-1h-4.92c-.72,0-1,0-1-1V193.5a8.5,8.5,0,0,1,.84-4,7.51,7.51,0,0,1,7.81-3.48,6,6,0,0,1,6,4.5,11.17,11.17,0,0,1,0,2.83V221c0,.54,0,1,.78,1h14.54c.66,0,.78,0,.78-.84v-6.43c0-.66,0-.84-.78-.84H406c-.54,0-.84,0-.84-.78V192.71a6.3,6.3,0,0,1,4.69-6.42,10.74,10.74,0,0,1,6,0,5.57,5.57,0,0,1,4.15,4.5,14.87,14.87,0,0,1,0,2.83V221c0,.6,0,1,.78,1H436.2c.6,0,.84,0,.84-.78V214.7C437,213.86,436.74,213.86,436.2,213.86Z"></path><path class="e1028a53-9c7e-413a-8920-8e6f99c4c01e" d="M204.35,213.86h-5.71c-.78,0-.9,0-.9-1v-18a25.91,25.91,0,0,0-.42-4.81A13.47,13.47,0,0,0,190,179.74a18.45,18.45,0,0,0-20.66,3.48c-.36-1.32-.78-2.46-1.08-3.66s-.36-.66-.9-.66H154.43c-.54,0-.72,0-.72.72v6.55c0,.72,0,.84.84.84h6c.72,0,.84,0,.84.84v25.23c0,.66,0,.9-.78.9h-6c-.66,0-.78,0-.78.78v6.61c0,.54,0,.72.72.72H177.2c.6,0,.72,0,.72-.78V214.7c0-.6,0-.78-.78-.78h-6c-.54,0-.72,0-.72-.72v-20a6.79,6.79,0,0,1,4.81-6.55,13,13,0,0,1,8.53,0,6.43,6.43,0,0,1,4.56,5.1,16.15,16.15,0,0,1,0,2.95v26.37c0,.84,0,1,1.08,1h15c.6,0,.84,0,.84-.84V214.7C205.31,213.86,205.13,213.86,204.35,213.86Z"></path><path class="e1028a53-9c7e-413a-8920-8e6f99c4c01e" d="M309.94,178.72h-5.71c-.6,0-.78,0-.9.72l-1,3.18a12.58,12.58,0,0,0-5-3.66,20.84,20.84,0,0,0-10.33-.78,14.78,14.78,0,0,0-13,13.87,115.93,115.93,0,0,0,0,16.46,14.19,14.19,0,0,0,9.37,12.74,25.4,25.4,0,0,0,13.7,1.2,15.08,15.08,0,0,0,13.63-15.2c0-.66,0-.84-.78-.78h-7.69c-.78,0-1,0-1,.9a6.73,6.73,0,0,1-5.4,7,13.69,13.69,0,0,1-6.61,0,7.09,7.09,0,0,1-6-7.15V193.26a7,7,0,0,1,5.17-6.67,12.79,12.79,0,0,1,5.46-.54,7.26,7.26,0,0,1,7.63,6.89c0,.24,0,.49,0,.74,0,.54,0,.6.72.6h8c.6,0,.72,0,.72-.78v-14C310.72,178.84,310.54,178.66,309.94,178.72Z"></path><path class="e1028a53-9c7e-413a-8920-8e6f99c4c01e" d="M218.94,186.77h10.33c.72,0,.91,0,.91-.9v-6c0-.78,0-1.08-1-1.08h-8.1c-1,0-2.29.36-2.83,0s0-1.92,0-2.94V163.22a2,2,0,0,0-.84,0l-7.81,2.23c-.72,0-.9.42-.9,1.14v11.23c0,.78,0,.9-1,.9h-6c-.6,0-.78,0-.78.78v6.43c0,.78,0,.9.9.9h6c.78,0,1,0,1,1v17.6a32.3,32.3,0,0,0,.66,6.79,10.89,10.89,0,0,0,9.85,9.61,75.93,75.93,0,0,0,10.45,0c.67,0,.49-.42.49-.78v-6.55c0-.72,0-.84-.91-.84h-7a3.91,3.91,0,0,1-3.67-3.07,16.61,16.61,0,0,1-.6-4.86v-18C218,186.83,218.28,186.77,218.94,186.77Z"></path><path class="e1028a53-9c7e-413a-8920-8e6f99c4c01e" d="M72.21,178.18A16.21,16.21,0,0,0,57,183.28l-.54.55c-.42-1.45-.84-2.83-1.2-4.21s-.36-.9-1-.9h-13c-.6,0-.78,0-.78.78v6.43c0,.66,0,.9.84.9h6c.54,0,.84,0,.78.72V213.2c0,.6,0,.78-.78.78h-6c-.54,0-.78,0-.78.72v6.67c0,.48,0,.72.66.72H63.92c.48,0,.66,0,.66-.72v-6.73c0-.54,0-.72-.72-.72H58.15c-.78,0-1,0-1-1v-18.8a6.62,6.62,0,0,1,.3-2.17A7.32,7.32,0,0,1,63,187.07a20.64,20.64,0,0,1,9.25-.36c.66,0,.9,0,.9-.78v-6.79C72.93,178.54,72.75,178.3,72.21,178.18Z"></path><path class="e1028a53-9c7e-413a-8920-8e6f99c4c01e" d="M545.39,213.86h-5.46c-.78,0-1,0-1-1V179.62c0-.54,0-1-.72-1h-15.5c-.6,0-.78,0-.78.78V186c0,.72,0,.84.9.84h5.89c.66,0,.84,0,.84.84v25.41c0,.66,0,.9-.84.9h-6c-.54,0-.78,0-.78.72v6.67c0,.6,0,.72.78.72h22.52c.66,0,.78,0,.78-.84v-6.43C546.23,213.86,546,213.86,545.39,213.86Z"></path><path class="e1028a53-9c7e-413a-8920-8e6f99c4c01e" d="M530.32,171.33h7.87c.66,0,.78,0,.72-.84v-9.07c0-.6,0-.84-.78-.84h-7.81c-.6,0-.78,0-.78.78v9.19C529.54,171.15,529.66,171.33,530.32,171.33Z"></path><path class="e1028a53-9c7e-413a-8920-8e6f99c4c01e" d="M37,179.68c0-.78,0-1-1-1a51.86,51.86,0,0,1-5.29,0c-.72,0-1,0-1.14,1s-.6,2.22-1,3.48a13.8,13.8,0,0,0-5.41-4,20.34,20.34,0,0,0-9.67-1.38A13.93,13.93,0,0,0,.91,188.45a21.67,21.67,0,0,1-.78,3.72v14.12a1.3,1.3,0,0,1,0,.78,13.38,13.38,0,0,0,6.3,11.41,18.45,18.45,0,0,0,16.1,1.38,12,12,0,0,0,4.81-2.94v7.87a6.74,6.74,0,0,1-5.29,6,12.34,12.34,0,0,1-7.51,0,6,6,0,0,1-4.5-6c0-1.32,0-1.5-1.5-1.5H1.27a1.5,1.5,0,0,0-1.14.3v2.88a13.87,13.87,0,0,0,9.07,12,25.14,25.14,0,0,0,15.73.84,14.47,14.47,0,0,0,11.54-12,34.13,34.13,0,0,0,0-6.55C37,206.59,36.89,193.14,37,179.68ZM27.58,205a7.52,7.52,0,0,1-7.27,7.51,12.17,12.17,0,0,1-6-.6,6.68,6.68,0,0,1-4.56-6V199.5h0v-5.64a7.26,7.26,0,0,1,6.3-7.69,13,13,0,0,1,6,0,7.26,7.26,0,0,1,5.65,7.15C27.64,197.4,27.7,201.24,27.58,205Z"></path><path class="e1028a53-9c7e-413a-8920-8e6f99c4c01e" d="M517.16,160.76c0-.54,0-1-.72-1H501.25c-.54,0-.72,0-.72.72v6.61c0,.66,0,.78.9.78H507c.72,0,.9,0,.9.9v13.27a15.06,15.06,0,0,0-4.38-2.88,19.86,19.86,0,0,0-9.73-1.38,13.79,13.79,0,0,0-12.31,9.61,19.68,19.68,0,0,0-.79,6.43v12a24.66,24.66,0,0,0,.42,4.62A13.87,13.87,0,0,0,488.63,221a18,18,0,0,0,20.48-3.55c.37,1.26.73,2.4,1,3.61s.48.78,1.08.78h5c1.32,0,1.32,0,1.32-1.33v-41Zm-9.31,46.13a7.51,7.51,0,0,1-6,7.51,12.73,12.73,0,0,1-7,0,6.73,6.73,0,0,1-4.93-6.55V193a7,7,0,0,1,6-6.67,13.45,13.45,0,0,1,6.37,0,7.49,7.49,0,0,1,6,7.51v13Z"></path><path class="e1028a53-9c7e-413a-8920-8e6f99c4c01e" d="M576.27,179a26.16,26.16,0,0,0-14.12-.42,12.5,12.5,0,0,0-10.75,12.55c0,.84,0,1,1,1h7.27c.78,0,1.08,0,1.14-1a5.09,5.09,0,0,1,3.9-5.1,13,13,0,0,1,6,0,6.61,6.61,0,0,1,6,5.28,73.25,73.25,0,0,1,0,8.89,14.55,14.55,0,0,0-4.57-2.58,23.51,23.51,0,0,0-14.65,0,11.23,11.23,0,0,0-7.63,7.51,15.44,15.44,0,0,0-.66,6,11.3,11.3,0,0,0,7.87,11,19.45,19.45,0,0,0,20.6-3.61c0,1.08.72,2.22,1,3.37s.42.72,1,.72h5.53c.6,0,.84,0,.84-.78v-29.2A13.51,13.51,0,0,0,576.27,179Zm-2.71,34.84a16.09,16.09,0,0,1-11.59,0,4.69,4.69,0,0,1-3.24-4.69,4.85,4.85,0,0,1,3.36-4.68,18,18,0,0,1,11.65,0,4.67,4.67,0,0,1,3.13,4.5A4.51,4.51,0,0,1,573.56,213.86Z"></path><path class="e1028a53-9c7e-413a-8920-8e6f99c4c01e" d="M449.53,203.23h25.53c.6,0,.9,0,.9-.78v-9.62a14.59,14.59,0,0,0-10.63-13.93,26.76,26.76,0,0,0-13.76-.42,14.43,14.43,0,0,0-12,13.69,88.15,88.15,0,0,0,0,16.88,14.07,14.07,0,0,0,9.43,12,25.11,25.11,0,0,0,15.26.78,14.42,14.42,0,0,0,12-12.74c0-1.14,0-1.2-1-1.2h-7.87c-.6,0-.84,0-1,.84A6.69,6.69,0,0,1,461.6,214a13.72,13.72,0,0,1-7.14,0,7.16,7.16,0,0,1-6-6v-4C448.45,202.69,448.75,203.23,449.53,203.23Zm-.84-11a7,7,0,0,1,5.41-6,13,13,0,0,1,7.26,0,7,7,0,0,1,5.23,6.79c0,2.88,0,2.88-2.7,2.88H449.41c-.6,0-.9,0-.84-.84A26.67,26.67,0,0,1,448.69,192.23Z"></path><path class="e1028a53-9c7e-413a-8920-8e6f99c4c01e" d="M260.57,179.62a25.71,25.71,0,0,0-15-1.2,14.9,14.9,0,0,0-12.73,14.84v14.11a14.78,14.78,0,0,0,10.09,14.12,26.59,26.59,0,0,0,13.33,1,14.85,14.85,0,0,0,13.28-13.34c0-.72,0-1-.72-1h-7.75c-.6,0-.9,0-1.08.84a6.55,6.55,0,0,1-5.05,5.29,13.7,13.7,0,0,1-6.43,0,7.33,7.33,0,0,1-6-6v-4c0-1.38,0-1.26,1.2-1.26H269.1c.36,0,.84,0,.84-.6V191.27A14.06,14.06,0,0,0,260.57,179.62Zm-2.95,16.52H243c-.72,0-.9,0-.9-.84a29.36,29.36,0,0,1,0-3.25,7,7,0,0,1,6-6,13.2,13.2,0,0,1,6.49,0,7.1,7.1,0,0,1,5.71,7C260.39,196.14,260.39,196.14,257.62,196.14Z"></path><path class="e1028a53-9c7e-413a-8920-8e6f99c4c01e" d="M101.76,179.44a25,25,0,0,0-17.24,0,14.23,14.23,0,0,0-10,13.33,134.62,134.62,0,0,0,0,15.56,14.36,14.36,0,0,0,9.67,13A26.5,26.5,0,0,0,98,222.45,14.84,14.84,0,0,0,111.37,209c0-.66,0-.84-.72-.84h-7.81a.91.91,0,0,0-1,.77V209a6.56,6.56,0,0,1-5.11,5.29,13.09,13.09,0,0,1-7,0,7.1,7.1,0,0,1-5.52-6.43v-4c0-1.32,0-.84.84-.84h25.77c.42,0,.9,0,.84-.6.18-3.61.18-7.21,0-10.82A14.06,14.06,0,0,0,101.76,179.44Zm-2.53,16.7H84.7c-.66,0-1,0-.9-.84s0-1.56,0-2.28a7.2,7.2,0,0,1,6.42-6.79,13.85,13.85,0,0,1,6,0,7,7,0,0,1,5.65,6.85C102.24,196.14,102.24,196.14,99.23,196.14Z"></path><path class="e1028a53-9c7e-413a-8920-8e6f99c4c01e" d="M142.18,179.38a25.3,25.3,0,0,0-15.08-.78,14.66,14.66,0,0,0-12,14.84v14.35a14.61,14.61,0,0,0,10,13.7,27.08,27.08,0,0,0,13.28,1,15,15,0,0,0,13.39-13.52c0-.66,0-.78-.72-.78h-8c-.6,0-.78,0-.9.78a6.61,6.61,0,0,1-5.11,5.35,13.27,13.27,0,0,1-7,0,7.09,7.09,0,0,1-5.59-6.43V204c0-1.32,0-.84.9-.84h25.59c.36,0,.84,0,.84-.6V191.69A14.17,14.17,0,0,0,142.18,179.38Zm-2.46,16.76H125.06c-.6,0-.84,0-.84-.78a17.61,17.61,0,0,1,.3-3.55,6.85,6.85,0,0,1,5.53-5.46,13.65,13.65,0,0,1,6.6,0,7,7,0,0,1,5.65,6.85C142.6,196.14,142.6,196.14,139.72,196.14Z"></path></svg> 