<?xml version="1.0" encoding="UTF-8"?> <svg xmlns="http://www.w3.org/2000/svg" id="Reuters" width="600" height="400" viewBox="0 0 600 400"><defs><style>.cls-1{fill:#fff;}</style></defs><polygon id="Fill-9" class="cls-1" points="482.98 149.13 482.98 250.94 525 250.94 525 233.7 500.21 233.7 500.21 207.32 516.17 207.32 516.17 190.08 500.21 190.08 500.21 166.36 525 166.36 525 149.13 482.98 149.13"></polygon><polygon id="Fill-1" class="cls-1" points="443.12 149.08 443.12 204.61 425.67 149.08 408.43 149.08 408.43 250.9 425.67 250.9 425.67 201 441.31 250.9 460.36 250.9 460.36 149.08 443.12 149.08"></polygon><path id="Fill-7" class="cls-1" d="m369.24,149.14v79.27c0,3.72-2.98,6.7-6.7,6.7s-6.7-2.98-6.7-6.7v-79.27h-17.24v79.27c0,13.19,10.74,23.94,23.94,23.94s23.94-10.74,23.94-23.94v-79.27s-17.24,0-17.24,0Z"></path><polygon id="Fill-5" class="cls-1" points="318.7 149.14 270.94 149.14 270.94 166.38 286.25 166.38 286.25 250.96 303.49 250.96 303.49 166.38 318.7 166.38 318.7 149.14"></polygon><path id="Fill-12" class="cls-1" d="m254.55,250.96h-17.77l-12.76-48.31s10.96-2.02,10.96-13.61v-15.96c0-3.72-2.98-6.7-6.7-6.7h-6.59v84.58h-17.24v-101.81h23.83c12.87,0,23.3,10.1,23.83,22.88h.11v16.6h-.11c0,10-3.3,17.35-9.25,21.92l11.7,40.43h0Z"></path><path id="Fill-3" class="cls-1" d="m133.9,171.59v56.81c0,13.19,10.74,23.94,23.94,23.94h0c13.19,0,23.94-10.74,23.94-23.94v-56.81c0-13.19-10.74-23.94-23.94-23.94h0c-13.3,0-23.94,10.74-23.94,23.94m17.24,56.81v-56.81c0-3.72,2.98-6.7,6.7-6.7h0c3.72,0,6.7,2.98,6.7,6.7v56.81c0,3.72-2.98,6.7-6.7,6.7s-6.7-2.98-6.7-6.7"></path><polygon id="Fill-2" class="cls-1" points="92.24 149.08 76.49 149.08 75 149.08 75 250.9 92.24 250.9 92.24 207.27 108.19 207.27 108.19 190.04 92.24 190.04 92.24 166.42 117.02 166.42 117.02 149.08 92.24 149.08"></polygon></svg> 