<?xml version="1.0" encoding="UTF-8"?> <svg xmlns="http://www.w3.org/2000/svg" id="Layer_1" width="100" height="41.51" viewBox="0 0 100 41.51"><defs><style>.cls-1{fill:#fff;}</style></defs><path class="cls-1" d="m62.73,24.52c-.05,1.1-.39,2.05-1.11,2.81-.94.99-2.27.74-2.93-.52-.6-1.14-.73-2.41-.77-3.66-.08-2.26.06-4.52.41-6.75.14-.89.09-1.5-1.1-1.22-.43.1-.92.05-1.37-.01-1.21-.15-1.78-.96-1.64-2.18.06-.48.21-.58.66-.4.9.37,1.87.33,2.82.47.75.11,1.11-.05,1.2-.89.14-1.33.44-2.64.62-3.96.07-.52.24-.68.74-.48.32.13.64.24.98.32.69.17.94.47.72,1.23-.28.95-.36,1.95-.61,2.91-.17.68.03.79.66.7,1.74-.26,3.48-.48,5.22-.73.49-.07.97-.14,1.56.01-.37.76-.85,1.2-1.68,1.35-1.76.32-3.51.77-5.27,1.07-.77.13-1.08.42-1.21,1.2-.5,3.02-.88,6.05-.85,9.12,0,.66-.03,1.41.79,1.58.76.17,1.13-.46,1.5-1.01.2-.3.12-.79.67-.94Z"></path><path class="cls-1" d="m51.02,24.65c-.04,1.29-1.04,2.69-2.05,3.01-1.06.32-2.02-.13-2.51-1.25-.21-.49-.36-1.01-.46-1.53-.1-.47-.1-.95-.17-1.64-.6,1.2-1.05,2.23-1.61,3.21s-1.15,2.06-2.5,1.8c-1.29-.25-1.5-1.46-1.65-2.5-.43-3.18-.05-6.33.69-9.43.1-.42,2.01-1.08,2.35-.8.39.31.11.71.01,1.05-.76,2.69-1.13,5.47-1.1,8.27,0,.58-.2,1.42.46,1.64.73.23,1.07-.59,1.42-1.1,1.33-1.88,2.12-4.09,2.28-6.38.1-1.07.37-2.12.8-3.1.21-.52.54-.83,1.15-.6.57.21.69.58.57,1.17-.47,2.24-.68,4.54-.63,6.83v.23c.07.94-.07,2.15.87,2.58,1.02.47,1.28-.9,2.06-1.43Z"></path><path class="cls-1" d="m56.93,24.6c-.1,1.27-.81,2.42-1.91,3.06-1.06.65-2.12.28-2.66-.86-.45-.95-.56-1.99-.58-3.02-.05-2.34.29-4.65.75-6.94.13-.63,1.93-1.34,2.41-.96.31.25.09.57.05.85-.39,2.5-1.01,4.95-1,7.49,0,.76-.42,1.85.5,2.17s1.37-.74,1.9-1.37c.13-.16.14-.46.54-.42Z"></path><path class="cls-1" d="m86.47,24.53c-.2,1.22-.69,2.17-1.6,2.88-1.29,1.01-2.62.62-3.16-.96-.64-1.82-.46-3.71-.3-5.58.11-1.4.4-2.8.66-4.19.1-.55,1.97-1.17,2.4-.82.32.25.08.57.03.85-.38,2.41-.96,4.8-1.03,7.26,0,.04,0,.08,0,.11.07.8-.41,1.94.52,2.27.97.34,1.44-.75,1.95-1.44.1-.15.16-.34.54-.4Z"></path><path class="cls-1" d="m28.45,24.38c.17.77-.13,1.2-.33,1.64-.62,1.3-1.69,2.06-2.73,1.9-1.34-.21-1.6-1.32-1.78-2.38-.53-3.04.02-6.02.6-8.99.09-.44,1.64-.97,2.21-.73.63.27.19.78.13,1.18-.39,2.61-1.02,5.18-.98,7.84,0,.59-.17,1.37.58,1.58.67.19,1.09-.44,1.48-.9.26-.3.48-.66.83-1.14Z"></path><path class="cls-1" d="m85.44,9.11c.03,1.06-.73,2.06-1.55,2.05s-1.04-.53-1.06-1.2c-.03-1.03.7-1.89,1.57-1.9.68,0,1.02.33,1.04,1.06Z"></path><path class="cls-1" d="m27.16,8.05c.55.01.92.31.95,1.03.03,1.05-.69,2.06-1.52,2.07-.79.02-1.05-.47-1.08-1.17-.04-1.01.67-1.91,1.65-1.94Z"></path><path class="cls-1" d="m55.96,9.17c0,1.01-.72,1.96-1.51,1.97s-1.07-.46-1.11-1.17c-.05-.97.71-1.93,1.54-1.95.77-.01,1.11.4,1.08,1.14Z"></path><path class="cls-1" d="m22.64,29.03c-2-1-3.75-2.37-5.63-3.54-.53-.33-.33-.67-.21-1.07.53-1.96.86-3.97.96-6,.19-3.02.19-6.05.21-9.07,0-1.27.1-2.54.63-3.71.63-1.41,1.69-1.53,2.62-.31.72.94.98,2.03,1.08,3.21.15,1.86-.73,3.6-.59,5.45,2.41-1.61,3.47-6.08,2.12-8.91-.86-1.8-2.74-2.55-4.63-1.84-1.3.49-1.97,1.53-2.43,2.74-.65,1.7-.86,3.48-1.04,5.27-.39,3.8-.43,7.64-1.26,11.4-.18.81-.36,1.1-1.33.71-3.6-1.42-7.27-1.57-10.81.13-2.89,1.39-3.08,4.26-.54,6.11,2.66,1.94,9.24,2.45,12.29-.51.45-.44.71-.46,1.21-.07,1.57,1.23,3.22,2.34,5.06,3.14,2.2.95,4.44.98,6.75.5,1.87-.39,3.23-1.4,4.11-3.14-2.92,1-5.78.9-8.56-.49Zm-11.08-1.01c-1.33,1.17-2.94,1.56-4.58,1.6-1.72-.07-3.27-.38-4.58-1.43-.81-.65-1.43-1.46-1.17-2.56.26-1.07,1.19-1.42,2.15-1.64,1.7-.39,3.33-.1,4.93.53,1.09.45,2.14,1.02,3.11,1.69,1.24.83,1.25.85.14,1.82Z"></path><path class="cls-1" d="m37.2,26.09c1.17-.71,1.94-1.7,1.91-3.48-.51.77-.85,1.25-1.36,1.52-.42.23-.95.6-1.35.31-.31-.22.01-.78.06-1.19.07-.41.15-.83.26-1.23.42-1.75.83-3.5,1.27-5.24.14-.55-.02-.91-.54-1.08-.67-.22-.63.33-.74.72-.07.25-.17.5-.3.85-.97-2.09-2.46-2.65-4.11-1.68-.53.31-.98.74-1.32,1.26-1.5,2.27-2.04,4.76-1.72,7.44.08.73.32,1.43.71,2.05.94,1.47,2.54,1.64,3.78.42.19-.18.26-.55.68-.52-.57,2.7-.98,5.43-1.23,8.18-.17,1.95-.25,3.9.42,5.79.24.68.68,1.2,1.47,1.29.83.09,1.38-.33,1.76-1.03.18-.3.32-.61.44-.93,1.36-4.1,1.06-8.15-.47-12.12-.27-.69-.23-.96.37-1.33Zm-3.07-2.08c-.09.21-.19.42-.3.62-.49.79-1.03,1.74-2.1,1.41-1-.3-.67-1.41-.81-2.1.17-2.06.46-3.98,1.6-5.65.77-1.13,1.73-1.18,2.56-.23.22.22.32.53.27.83-.26,1.74-.51,3.48-1.21,5.11h0Zm2.34,13.8c-.08.45-.2.9-.36,1.33-.07.21-.2.43-.47.44-.24-.01-.44-.19-.47-.43-.14-.44-.23-.89-.27-1.34-.17-3.65.34-7.23.94-11.14.62,1.15.67,2.15.77,3.13.27,2.67.22,5.35-.14,8.01h0Z"></path><path class="cls-1" d="m80.53,24.82c-.6.58-.61,1.37-1,1.96-.27.4-.5.93-1.11.86-.53-.06-.72-.53-.89-.96-.15-.35-.25-.72-.32-1.1-.36-2.09-.13-4.23.65-6.2.28-.75.56-1.51.86-2.25.27-.67-.05-1.12-.52-1.48-.51-.4-.74.18-1.03.4-.72.56-1.41,1.18-2.13,1.75-.22.18-.48.46-.81.26-.28-.17-.17-.49-.16-.74.02-.61.1-1.22.1-1.83,0-.65-.14-1.28-.92-1.37-.72-.09-1.15.37-1.34,1.01-.41,1.36-.3,2.66.59,3.81.28.31.39.74.31,1.15-.27,1.55-.6,3.08-1.28,4.51-.48,1.03-1.11,1.93-2.21,2.38-.97.4-1.88.35-2.62-.49-.54-.62-.75-1.39-.93-2.19-.15-.69-.04-1.07.67-1.42,2.32-1.18,3.72-3.05,3.7-5.74-.02-2.18-1.79-3.12-3.66-2.02-.49.3-.92.7-1.26,1.17-1.03,1.34-1.51,2.9-1.78,4.54-.08.49.1,1.09-.67,1.25-.34.07-.16.43-.02.54.73.64.82,1.58,1.19,2.39.71,1.56,1.68,2.89,3.56,3.03s3.21-.83,4.21-2.31c.81-1.17,1.35-2.5,1.58-3.91.21-1.47.55-2.59,2.47-2.19-.18,1.17-.42,2.36-.53,3.57-.13,1.52-.26,3.07.45,4.51.67,1.35,1.91,1.73,3.16,1,1.17-.7,1.92-2.34,1.7-3.89Zm-13.73-7.58c.3-.48.68-1.04,1.36-.79.61.22.57.84.55,1.38-.04,1.56-1.48,3.89-3.08,4,.07-1.62.3-3.18,1.17-4.58h0Z"></path><path class="cls-1" d="m97.31,25.75c-.42.41-.89.83-1.5.68-.67-.17-.7-.83-.8-1.4-.04-.3-.05-.61-.05-.91-.06-1.76.18-3.51.34-5.25.04-.4.25-1-.19-1.15-.91-.33-1.18-1.06-1.53-1.81-.24-.51-.71-.77-1.25-.93-1.34-.37-2.63.17-3.62,1.59-1.1,1.57-1.62,3.36-1.81,5.24-.17,1.57-.18,3.14.54,4.6.94,1.89,2.86,2.06,4.08.36.49-.68.87-1.45,1.32-2.21.89,2.77,1.59,3.55,2.97,3.36,1.3-.17,2.35-1.47,2.36-3-.51.14-.6.57-.86.83Zm-4.28-7.15c-.29,1.97-.61,3.93-1.38,5.78-.06.14-.12.28-.2.41-.5.82-1,1.89-2.1,1.62-1.06-.26-.74-1.43-.84-2.33.14-2.02.54-4.05,1.65-5.84.79-1.28,1.74-1.4,2.59-.46.23.21.33.52.28.82h0Z"></path><path class="cls-1" d="m29.32,4.27c-.06,0-.13-.02-.18-.05-.05-.03-.09-.09-.08-.15V.6h-.78c-.06,0-.11-.04-.13-.09-.03-.06-.05-.13-.04-.2,0-.07.01-.13.04-.19.02-.05.07-.09.13-.09h2.09c.06,0,.11.03.13.09.03.06.04.12.04.19,0,.07-.01.14-.04.2-.02.05-.08.09-.13.09h-.78v3.46c0,.06-.03.12-.08.15-.06.03-.12.05-.18.05Z"></path><path class="cls-1" d="m31.2,4.27c-.07,0-.13-.02-.18-.05-.05-.03-.09-.09-.08-.15V.23c0-.06.03-.12.08-.15.06-.03.12-.05.18-.05.06,0,.13.02.18.05.05.03.09.09.08.15v1.6h1.26V.23c0-.06.03-.12.08-.15.11-.06.25-.06.37,0,.05.03.09.09.08.15v3.83c0,.06-.03.12-.08.15-.11.07-.25.07-.37,0-.05-.03-.09-.09-.08-.15v-1.75h-1.26v1.75c0,.06-.03.12-.08.15-.06.03-.12.05-.18.05Z"></path><path class="cls-1" d="m34.15,4.27c-.06,0-.12-.02-.17-.05-.05-.03-.08-.09-.07-.15V.23c0-.06.02-.12.07-.15.05-.03.11-.05.17-.05h1.79c.06,0,.11.03.13.09.03.06.04.12.04.18,0,.07-.01.14-.05.19-.02.05-.07.08-.13.08h-1.5v1.33h.78c.05,0,.11.03.13.07.03.05.04.11.04.17,0,.06-.01.12-.04.17-.03.05-.08.08-.14.08h-.78v1.33h1.5c.06,0,.11.03.13.08.03.06.05.13.05.2,0,.06-.01.12-.04.18-.02.05-.08.09-.13.09h-1.79Z"></path><path class="cls-1" d="m38.64,4.3c-.2,0-.39-.04-.57-.13-.17-.09-.31-.23-.4-.41-.11-.24-.16-.49-.15-.75v-1.69c-.01-.26.04-.52.15-.75.09-.18.23-.32.4-.41.36-.17.79-.17,1.15,0,.18.09.32.23.41.41.11.23.16.49.15.75v1.68c.01.26-.04.52-.15.75-.09.18-.23.32-.41.41-.18.09-.38.13-.58.13Zm0-.54c.17,0,.33-.06.44-.18.12-.16.18-.36.17-.56v-1.68c.01-.2-.05-.4-.16-.56-.11-.12-.27-.19-.44-.18-.17,0-.33.06-.44.18-.12.16-.18.36-.17.56v1.68c-.02.2.04.4.16.56.11.13.28.19.44.18Z"></path><path class="cls-1" d="m42.39,4.29s-.09-.02-.12-.05c-.04-.04-.07-.08-.09-.13l-.74-1.67h-.5v1.62c0,.06-.03.12-.08.15-.11.07-.26.07-.37,0-.05-.03-.09-.09-.08-.15V.23c0-.05.02-.1.05-.14.03-.04.08-.06.13-.06h.96c.2,0,.4.03.58.11.18.07.32.2.42.36.11.22.17.46.16.71,0,.2-.03.39-.09.58-.05.14-.14.27-.25.37-.11.09-.23.16-.36.2l.71,1.52s.01.03.01.04c0,.01,0,.03,0,.04,0,.05-.02.1-.05.15-.03.05-.08.09-.12.12-.04.03-.1.05-.15.05Zm-1.45-2.33h.6c.16,0,.33-.05.45-.16.13-.15.19-.34.17-.53.02-.19-.04-.39-.17-.53-.12-.11-.29-.16-.45-.16h-.6v1.38Z"></path><path class="cls-1" d="m43.46,4.27c-.07,0-.13-.02-.18-.05-.05-.03-.09-.09-.08-.15V.23c0-.06.03-.12.08-.15.11-.06.25-.06.37,0,.05.03.09.09.08.15v3.83c0,.06-.03.12-.08.15-.06.03-.12.05-.18.05Z"></path><path class="cls-1" d="m45.49,4.3c-.2,0-.4-.04-.58-.13-.18-.09-.32-.23-.41-.41-.11-.24-.16-.49-.15-.75v-1.69c-.01-.26.04-.52.15-.75.09-.18.23-.32.4-.41.17-.09.37-.13.56-.13.21,0,.41.04.6.13.17.08.31.21.4.37.1.17.15.37.14.57.01.08-.01.17-.07.23-.06.04-.13.07-.2.06-.06,0-.13-.01-.18-.04-.06-.04-.09-.1-.08-.17,0-.11-.03-.21-.07-.31-.04-.09-.1-.17-.18-.22-.11-.06-.23-.09-.35-.08-.17,0-.33.06-.44.18-.12.16-.18.36-.16.56v1.68c-.02.2.04.4.16.56.24.24.63.24.88,0,0,0,0,0,0,0,.12-.16.18-.36.17-.56v-.47h-.51c-.05,0-.1-.03-.12-.07-.03-.05-.05-.11-.05-.17,0-.06.02-.12.05-.17.02-.05.07-.08.12-.08h.87c.05,0,.1.02.13.06.03.04.05.1.04.15v.76c.01.26-.04.52-.15.75-.09.18-.23.32-.41.41-.18.09-.38.13-.58.12Z"></path><path class="cls-1" d="m47.46,4.27c-.07,0-.13-.02-.18-.05-.05-.03-.09-.09-.08-.15V.23c0-.06.03-.12.08-.15.11-.06.25-.06.37,0,.05.03.09.09.08.15v3.83c0,.06-.03.12-.08.15-.06.03-.12.05-.18.05Z"></path><path class="cls-1" d="m48.65,4.27c-.07,0-.13-.02-.18-.05-.05-.03-.09-.09-.08-.15V.23c0-.06.03-.12.08-.16.06-.03.12-.05.18-.05.06,0,.11,0,.17.03.05.03.09.06.12.11.05.07.08.14.12.21l1.12,2.5V.21c0-.06.03-.12.08-.15.06-.03.12-.05.18-.05.06,0,.13.02.18.05.05.03.09.09.08.15v3.83c0,.06-.03.12-.08.15-.05.03-.12.05-.18.05-.07,0-.13-.02-.18-.06-.06-.04-.11-.1-.14-.17l-1.2-2.63v2.66c0,.06-.03.12-.08.15-.05.04-.12.06-.19.06Z"></path><path class="cls-1" d="m51.44,4.27c-.05,0-.1-.01-.15-.03-.05-.02-.09-.05-.13-.09-.03-.04-.05-.08-.05-.13,0-.02,0-.03,0-.05l1-3.75c.02-.07.07-.13.13-.16.13-.07.29-.07.42,0,.06.03.11.09.13.16l1,3.75s.01.03.01.05c0,.05-.02.09-.05.13-.04.04-.08.07-.13.09-.05.02-.1.03-.15.03-.04,0-.08,0-.11-.03-.03-.02-.06-.06-.07-.1l-.2-.82h-1.25l-.2.82s-.03.08-.07.1c-.04.02-.08.03-.12.03Zm.51-1.44h1l-.5-1.99-.5,1.99Z"></path><path class="cls-1" d="m54.44,4.27c-.06,0-.12-.02-.17-.05-.05-.03-.08-.09-.07-.15V.23c0-.06.03-.12.08-.15.06-.03.12-.05.18-.05.06,0,.13.02.18.05.05.03.09.09.08.15v3.5h1.31c.05,0,.1.03.12.08.03.06.04.12.04.19,0,.06-.01.13-.04.19-.02.05-.07.09-.12.09h-1.6Z"></path><path class="cls-1" d="m97.93,13.51h-.41v-.15h.99v.15h-.41v1.23h-.17v-1.23Z"></path><path class="cls-1" d="m99.79,14.14c0-.19-.02-.42-.02-.6h0c-.04.17-.1.33-.17.52l-.24.67h-.13l-.21-.66c-.06-.19-.12-.37-.15-.54h0c0,.17-.01.4-.03.61l-.04.59h-.17l.09-1.38h.22l.23.67c.05.17.1.32.13.46h0c.03-.14.08-.29.14-.46l.24-.67h.22l.08,1.38h-.17l-.04-.6Z"></path></svg> 