<?xml version="1.0" encoding="UTF-8"?> <svg xmlns="http://www.w3.org/2000/svg" id="ae175863-b6a6-4de3-aeac-64217f82d5be" data-name="b098e73f-40ee-48ee-9786-83a5f12ed541" width="600" height="400" viewBox="0 0 600 400"><defs><style>.ffaefdbc-5218-467b-83f4-0d155ef9dd58{fill:#3a357e;}</style></defs><path class="ffaefdbc-5218-467b-83f4-0d155ef9dd58" d="M501.09,226c15.49-18.52,19.37-40.31,16.64-63.62a84,84,0,0,0-94-72.66,85.35,85.35,0,0,0-8.54,1.54c-29,7.45-47.63,26.39-59.25,54.48l-2.18-3.63a29,29,0,0,0-33-13.5A29.29,29.29,0,0,0,299.48,158v41.76c0,2.6-1.76,6.41,3.63,6.54s4.05-3.39,4.05-6.06V159.8a23.33,23.33,0,0,1,8.17-19.13,19.33,19.33,0,0,1,21.37-3,20.58,20.58,0,0,1,12.11,20v44.37c0,2.9.6,4.36,3.93,4.36s3.93-1.58,3.93-4.42V177.17A78.59,78.59,0,0,1,447.34,95c38.74,7.68,64.1,36,66,75.47a69.47,69.47,0,0,1-17.5,53.63,67.79,67.79,0,0,1-48.42,20,57.18,57.18,0,0,1-43.39-14.22c-11.69-10.65-12.11-17.31-1.76-29,1.51-1.76,1.63-2.85,0-4.36s-2.78,0-3.75.73A20.67,20.67,0,0,0,391,208.65c-2.84,12.1,3.88,19.85,12.11,26.75C431.48,259.13,480.69,250.23,501.09,226Z"></path><path class="ffaefdbc-5218-467b-83f4-0d155ef9dd58" d="M63.6,87.59C29.1,85.29-.61,112.83-.07,151.45a58.66,58.66,0,0,0,26,44A59.36,59.36,0,0,0,62.76,206.1c2.54,0,4.11-.66,4-3.69s-1.45-3.33-3.75-3.27H57a49.76,49.76,0,0,1-45.64-32.86,48.78,48.78,0,0,1,10-54.48A49,49,0,0,1,62.82,95.52c2.42,0,4.84,0,5-3.39S66.51,88,63.6,87.59Z"></path><path class="ffaefdbc-5218-467b-83f4-0d155ef9dd58" d="M89.93,87.59c-4.78,0-4.48,2.61-4.48,6.06V147h0v53.51c0,3.32,0,6.05,4.54,6.05s4.24-2.48,4.24-5.51V93.16C94.11,90.2,94.41,87.59,89.93,87.59Z"></path><path class="ffaefdbc-5218-467b-83f4-0d155ef9dd58" d="M385.61,273.59a23.05,23.05,0,0,0-15.56-21.24c-8.53-3.15-15.62,0-23.48,5.32v-32c0-2.17,1.63-6.05-2.79-6.05s-2.42,3.57-2.42,5.69v80.87c0,2.11-1.21,5.44,2.6,5.5s2.55-3.33,2.61-5.44V273.65a16.58,16.58,0,0,1,25.11-14.95,19.06,19.06,0,0,1,8.72,18.16v30.63c0,2.05-.48,4.84,3,4.6s2.24-2.73,2.3-4.54C385.67,296.23,385.79,284.91,385.61,273.59Z"></path><path class="ffaefdbc-5218-467b-83f4-0d155ef9dd58" d="M217,222.14c0-2-1.39-2.48-3.09-2.48H173.46c-1.63,0-3.09,0-3.21,2.36s1.64,2.73,3.45,2.79h10.47c4.72-.43,6.06,1.57,6.06,6.05v77.05c0,2.42.6,4.36,3.57,4.36s2.72-2.18,2.78-4.12V230.92c0-4.84,1.27-6.78,6-6,3.64.36,7.39,0,11.08,0C215.28,224.75,217.1,224.69,217,222.14Z"></path><path class="ffaefdbc-5218-467b-83f4-0d155ef9dd58" d="M438.45,258.58a21.56,21.56,0,0,0-24.22-6,22.27,22.27,0,0,0-14.82,20.64c-.55,11.44,0,23,0,34.56,0,2.18,0,4.48,3.08,4.48s3.15-2.18,3.15-4.48V275.16a24.88,24.88,0,0,1,.79-7.08,16.89,16.89,0,0,1,17.13-11.38,16.29,16.29,0,0,1,14.82,16.89v34.62c0,1.7,0,3.69,2.3,3.88s2.85-1.94,2.91-3.94V271A16.84,16.84,0,0,0,438.45,258.58Z"></path><path class="ffaefdbc-5218-467b-83f4-0d155ef9dd58" d="M455.39,137.22c1.21-1.51,4.18-2.42,1.94-5.2s-4-.73-6.05.79c-3.09,2.6-6.06,8-9.2,7.2s-5.15-6-7.75-9.08c-1.21-1.45-1.94-3.51-4.54-3.81-2.48,1.39-2.72,3-.85,5.57q21.49,29,43,58.22c1,1.33,2.05,3.15,4.17,1.7s1.21-3.33,0-5c-2.6-3.75-7.38-7.44-7.38-11.13s6.47-6.06,9.8-9.45c1.46-1.39,2.36-2.54.73-4.35s-2.78-1.28-4.36,0c-3.51,2.78-7.2,8.41-10.59,7.44s-6.05-6.9-9-10.65c-.54-.67-1-1.39-1.51-2.12-2.54-3.51-6.9-6.84-7.2-10.53S452.61,140.67,455.39,137.22Z"></path><path class="ffaefdbc-5218-467b-83f4-0d155ef9dd58" d="M405.94,168.28c-9,13.92-9,13.92.91,27.05,8.84,11.8,8.84,11.8,23.12,7.57l2.36-.91c-8.35-11.74-16.52-23.3-24.75-34.8C406.67,167.79,406.18,167.91,405.94,168.28Z"></path><path class="ffaefdbc-5218-467b-83f4-0d155ef9dd58" d="M303.59,262a28,28,0,0,1,19.19-4.6c2,0,3.93,0,4.05-2.84s-1.15-3.21-3.51-3.52a32.27,32.27,0,0,0-35.39,28.8c-.06.63-.11,1.26-.14,1.89.85,21.13,18.53,30.63,35.9,30.27a2.72,2.72,0,0,0,3.14-2.23,2.37,2.37,0,0,0,0-.92c0-2.12-.84-3.21-3.08-3.21h-6.06a25.74,25.74,0,0,1-23.06-17.13A24.82,24.82,0,0,1,303.59,262Z"></path><path class="ffaefdbc-5218-467b-83f4-0d155ef9dd58" d="M501,261.91a28,28,0,0,1,19.43-4.54c2.18,0,3.93,0,4-3s-1.63-3.33-4-3.33h-3.27c-22.58,0-38.19,22.16-29.72,41.65a31.74,31.74,0,0,0,27.66,18.88c3.15.36,8.35,3.15,8.78-2.54s-5.15-3-7.93-3.15a26.51,26.51,0,0,1-23.79-17.31A24.71,24.71,0,0,1,501,261.91Z"></path><path class="ffaefdbc-5218-467b-83f4-0d155ef9dd58" d="M465.2,251.38c-3.69,0-2.42,3.51-2.42,5.63v49.51c0,2.06-1.27,5.38,2.54,5.57s2.72-3.21,2.78-5.33V257.25C467.92,255.07,469.62,251,465.2,251.38Z"></path><path class="ffaefdbc-5218-467b-83f4-0d155ef9dd58" d="M427.73,149.63q8,10.59,16,21.37l12.11,16.28c.84,1.15,1.57,2.91,3.51,1.7s2.3-1.34,2.48-3c-.55-.79-1.09-1.7-1.76-2.6q-13.74-18.65-27.54-37.17c-1-1.45-1.93-2.84-4.11-1.27S426.22,147.64,427.73,149.63Z"></path><path class="ffaefdbc-5218-467b-83f4-0d155ef9dd58" d="M422.71,149.33c-2.54.85-2.79,2.3-1.27,4.36q14.28,18.65,28.32,37.95c1.15,1.51,2.24,2.78,4.18,1.21s.36-2.72-.48-3.87l-28-37.35C424.77,150.66,424.46,149.09,422.71,149.33Z"></path><path class="ffaefdbc-5218-467b-83f4-0d155ef9dd58" d="M461.51,235.1a3.51,3.51,0,0,0,3,4,3.44,3.44,0,0,0,.46,0,4,4,0,0,0,3.81-3.69,3.69,3.69,0,0,0-3.51-3.87h-.12C462.72,231.34,461.57,232.86,461.51,235.1Z"></path><path class="ffaefdbc-5218-467b-83f4-0d155ef9dd58" d="M188.05,183.71c-6.66-1-6.72-1.09-10.84,3.69a30.28,30.28,0,0,1-32,9.81,30.27,30.27,0,0,1-22.39-20.82c-1.76-4.85-1.21-6.72,4.72-6.66,19.55.36,39.16,0,58.77,0,5.15,0,6.05-1.64,6.05-6.06A39.57,39.57,0,1,0,135,201.75C154.82,212.28,181,203.38,188.05,183.71Zm-36.32-48.42a31.65,31.65,0,0,1,31,22.27c.79,3,.48,4.36-3.09,4.36H122.31a30.69,30.69,0,0,1,29.48-26.63Z"></path><path class="ffaefdbc-5218-467b-83f4-0d155ef9dd58" d="M283.8,159a39.59,39.59,0,1,0-48.48,46.25c16.46,4.11,30.26-1,42.37-14.83V203c0,3.69,1.63,3.51,4.11,3.45s3.82-.49,3.69-3.21C284.41,188.49,286.64,173.6,283.8,159Zm-39.28,39.77a31.78,31.78,0,1,1,32.26-31.72A32.27,32.27,0,0,1,244.52,198.78Z"></path><path class="ffaefdbc-5218-467b-83f4-0d155ef9dd58" d="M252.08,251.44a30.26,30.26,0,0,0-31.71,13.19,28.52,28.52,0,0,0,1.21,35.11,29,29,0,0,0,26.63,12.1,29.39,29.39,0,0,0,24.69-16c-5.14-2-7.14,1.28-9.56,3.64a25.31,25.31,0,0,1-41-10.11c-1.57-4.66-1-6.05,4.18-6.05h45c4.24,0,5.57-1,4.78-5.69A30.68,30.68,0,0,0,252.08,251.44Zm14.17,26.93H225.09c-3.57,0-4.6-.91-3.27-4.6a26.4,26.4,0,0,1,23.73-17.49,25.48,25.48,0,0,1,23.66,17.31C270.3,276.44,270.79,278.43,266.25,278.37Z"></path><path class="ffaefdbc-5218-467b-83f4-0d155ef9dd58" d="M598.78,276a31,31,0,0,0-61.25,2.6,32.09,32.09,0,0,0,22.63,32.57c12.9,3.57,23.43-.49,33.54-11.14v7.45c0,1.93-.73,4.72,2.72,4.78s3.51-2.12,3.45-4.48A199.63,199.63,0,0,0,598.78,276Zm-30.26,30.81a24.21,24.21,0,0,1-25.35-23c0-.68,0-1.36,0-2,0-16,11-24.81,25.78-25.3a25,25,0,0,1,24.64,25.35c0,.12,0,.25,0,.38a24.2,24.2,0,0,1-23.76,24.64C569.38,306.78,569,306.77,568.52,306.76Z"></path><path class="ffaefdbc-5218-467b-83f4-0d155ef9dd58" d="M411.51,161.31l28.15,38c1.69,2.3,3.26,3.14,4.23-.49a3,3,0,0,0,0-.73L415.26,159.8a18.59,18.59,0,0,0-1.51-1.69C408.85,156.65,409.45,158.59,411.51,161.31Z"></path><path class="ffaefdbc-5218-467b-83f4-0d155ef9dd58" d="M414.54,156.84h0l31.59,41.64H446c2.24-1.27,4-2.18,1.57-5.33-9.44-12.1-18.7-24.87-27.9-37.4C417,152.24,415.38,152.66,414.54,156.84Z"></path></svg> 