<?xml version="1.0" encoding="UTF-8"?> <svg xmlns="http://www.w3.org/2000/svg" id="Layer_1" width="600" height="400" viewBox="0 0 600 400"><defs><style>.cls-1{fill:#3a357e;}</style></defs><path class="cls-1" d="m263.85,115.09c15.34.29,31.34,6.47,44.01,20.12,10.13,10.9,15.14,23.92,14.39,38.86-.74,15.08-7.15,27.65-18.34,37.63-13.11,11.73-28.73,16.88-46.16,16.14-17.34-.74-32.37-7.21-44.27-20.06-10.33-11.16-15.4-24.47-14.37-39.72,1.09-16.08,8.5-28.99,20.92-39.01,11.53-9.27,25.64-14.02,43.81-13.97Zm-13.22,56.78v24.47c0,3.58,1.32,5.44,4.78,6.5s6.95,1,10.45.17c3.18-.74,5.04-2.75,5.35-6.07.12-1.09.19-2.19.2-3.29v-47.19c0-3.81-1.89-6.61-5.61-7.44-2.54-.58-5.17-.71-7.76-.37-5.24.74-7.44,3.66-7.44,8.93.03,8.1.04,16.2.03,24.3Z"></path><path class="cls-1" d="m303.41,227.33c.37-.63.6-1.06.89-1.49,11.56-18.7,23.14-37.37,34.74-56.01.6-.94.6-1.57,0-2.52-10.76-16.62-21.46-33.25-32.11-49.91-.34-.54-.72-1.12-1.14-1.83.39-.06.78-.1,1.17-.11,12.39,0,24.79,0,37.2-.03.94,0,1.43.31,1.92,1.12,4.26,7.04,8.59,14.08,12.91,21.09.26.43.54.86.92,1.4.34-.6.6-1.03.86-1.46,3.78-7.01,7.56-13.99,11.3-21.01.34-.66.63-1.12,1.57-1.12,12.82.03,25.65.04,38.49.03.25.01.5.04.74.09-.37.6-.69,1.12-1,1.6-10.87,16.79-21.76,33.59-32.65,50.4-.66,1.03-.69,1.72-.03,2.78,11.88,18.43,23.71,36.88,35.49,55.35.31.49.6.94,1,1.6-.54.03-.94.09-1.35.09-12.53,0-25.08,0-37.63.03-.92,0-1.43-.29-1.95-1.06-4.84-7.35-9.71-14.7-14.62-22.04-.31-.46-.63-.94-1.09-1.57-.4.6-.77,1.06-1.09,1.57-4.83,7.33-9.65,14.64-14.48,21.95-.43.66-.83,1.12-1.77,1.12-12.51-.03-25-.04-37.49-.03-.27.02-.54,0-.8-.03Z"></path><path class="cls-1" d="m193.97,161.11v31.37h-35.86v34.83h-32.94v-111.12h74.46c.14,9.96.29,19.89.43,29.99h-41.52v14.94h35.43Z"></path><path class="cls-1" d="m473.28,241.32h-7.78c-1.92,0-3.81-.06-5.72.03-1.17.06-1.72-.29-2.06-1.49-5.72-19.66-11.48-39.3-17.26-58.92l-18.72-63.7c-.14-.49-.26-1-.43-1.63h35.31c5.55,41.78,11.08,83.59,16.66,125.72Z"></path><path class="cls-1" d="m452.85,241.32h-12.33c-1.72,0-3.43-.09-5.15.03-1.2.09-1.86-.34-2.49-1.37-12.59-20.2-25.21-40.41-37.86-60.61-2.12-3.41-4.26-6.78-6.32-10.19-.26-.46-.37-1.35-.11-1.72,7.93-12.05,15.94-24.07,23.92-36.12.06-.09.14-.11.37-.31,13.31,36.72,26.59,73.38,39.98,110.29Z"></path><path class="cls-1" d="m423.94,241.26H125v-7.01c.54-.03,1.03-.09,1.55-.09,97.19,0,194.37,0,291.56-.03,1.03,0,1.66.26,2.17,1.17,1.12,1.97,2.35,3.89,3.66,5.95Z"></path><path class="cls-1" d="m167.21,265.9c2,1.46,3.49,3.23,4.12,5.67,1.77,6.81-2.52,13.08-9.53,13.19-12.05.2-24.13.06-36.17.06-.14-.03-.27-.07-.4-.11v-37.2h1.57c10.9,0,21.84-.03,32.74.03,1.77,0,3.69.17,5.32.83,6.52,2.55,8.27,11.59,3.32,16.6-.29.29-.6.6-.97.94Zm-33.37-4.15c.13.06.26.11.4.14,8.73,0,17.43.03,26.16,0,.46,0,1.12-.23,1.37-.57.92-1.2.8-2.6.37-3.95-.37-1.26-1.46-1.14-2.49-1.14h-24.44c-.46,0-.92.06-1.4.09.03,1.89.03,3.66.03,5.44Zm0,14.14c.17.09.2.14.26.14,9.04.03,18.09.06,27.13.03.46,0,1.26-.34,1.32-.63.2-1.26.43-2.6.23-3.83-.2-1.17-1.4-1.06-2.38-1.06h-25.13c-.46,0-.92.06-1.4.09-.03,1.83-.03,3.52-.03,5.27Z"></path><path class="cls-1" d="m424.12,247.59v8.67h-31.08c-1,0-2.29-.2-2.49,1.06-.16,1.28-.07,2.58.26,3.83.09.34,1.2.6,1.86.6,7.24.03,14.49.04,21.75.03,5.27,0,8.73,2.15,10.53,6.52,1.92,4.61.94,10.22-2.4,13.56-1.77,1.85-4.22,2.91-6.78,2.92-10.62.06-21.26.03-31.88.03-.17-.02-.33-.06-.49-.11v-8.64h31.22c.97,0,2,.06,2.35-1.12.37-1.35.6-2.8-.43-3.92-.37-.4-1.2-.46-1.83-.49-7.24-.03-14.49-.04-21.75-.03-5.41,0-9.19-2.6-10.82-7.44-1.66-5.01-.03-10.7,3.92-13.68,2.06-1.55,4.41-1.95,6.9-1.92h29.62c.49.03.97.09,1.55.11Z"></path><path class="cls-1" d="m432.36,284.74v-8.64h31.31c.97,0,1.97.06,2.35-1.12.43-1.37.57-2.78-.43-3.92-.34-.4-1.2-.49-1.83-.49-7.3-.03-14.6-.04-21.89-.03-5.29,0-9.13-2.63-10.7-7.35-1.66-4.98-.03-10.76,3.86-13.68,1.6-1.23,3.56-1.91,5.58-1.92,10.68-.03,21.36-.04,32.02-.03.17.03.33.08.49.14v8.59h-31.14c-.94,0-2-.14-2.4,1.03-.46,1.35-.63,2.78.31,3.95.34.43,1.29.54,1.95.54,7.21.03,14.39.09,21.61,0,4.95-.06,8.56,1.97,10.56,6.55,1.97,4.49.94,10.1-2.32,13.45-1.77,1.91-4.26,3.01-6.87,3.03-10.59.06-21.18.03-31.77.03-.17-.03-.37-.09-.69-.14Z"></path><path class="cls-1" d="m270.21,247.5v8.73h-31.08c-1.03,0-2.26-.09-2.43,1.14-.13,1.29-.01,2.59.34,3.83.09.34,1.23.54,1.89.54,7.15.03,14.31.04,21.46.03,5.38,0,8.84,2.12,10.7,6.52,1.92,4.58.92,10.16-2.43,13.56-1.76,1.87-4.22,2.92-6.78,2.92-10.59.06-21.18.03-31.77.03-.21-.02-.42-.06-.63-.11v-8.64h31.28c.97,0,1.97.03,2.35-1.14.43-1.37.57-2.78-.46-3.92-.37-.4-1.2-.46-1.83-.49-7.24-.03-14.51-.03-21.75-.03-5.35,0-9.16-2.58-10.79-7.3-1.69-4.87-.14-10.62,3.66-13.65,2.09-1.66,4.52-2.09,7.13-2.09h29.76c.46.05.92.07,1.37.06Z"></path><path class="cls-1" d="m344.99,256.2v5.55h28.85v8.76h-28.82v5.55h30.76v8.73h-39.52c-.03-.46-.09-.92-.09-1.37,0-11.5,0-23-.03-34.48,0-.97.14-1.46,1.29-1.46,12.51.03,25,.04,37.49.03.29,0,.54.06.92.09v8.59c-10.25.03-20.46.03-30.85.03Z"></path><path class="cls-1" d="m299.6,260.21v24.53h-8.59v-37.2c2.72,0,5.44-.06,8.13.06.46.03.94.54,1.32.97,6.58,7.3,13.11,14.62,19.69,21.92.52.57,1.03,1.12,1.8,1.95v-24.81h8.61v37.23c-2.8,0-5.55.03-8.3-.06-.4,0-.83-.57-1.17-.94-6.87-7.7-13.72-15.39-20.55-23.07-.23-.26-.43-.52-.63-.77-.1.07-.21.14-.31.2Z"></path><path class="cls-1" d="m213.29,247.59h8.61c.03.46.11.86.11,1.29v24.18c0,2.58-.54,5.01-2.03,7.15-2.06,3.03-4.92,4.61-8.56,4.61-8.16.03-16.31.06-24.47,0-5.55-.02-10.14-4.33-10.5-9.87-.17-2.03-.11-4.09-.11-6.15v-21.21h8.7v25.07c0,.66.06,1.33.2,1.97.2.97.8,1.43,1.83,1.43,8.07,0,16.11-.03,24.18,0,1.09,0,1.72-.49,1.86-1.55.11-.7.17-1.41.17-2.12v-24.81Z"></path><path class="cls-1" d="m276.73,247.53c2.69,0,5.32-.03,7.98.03.23,0,.54.43.63.72s.03.66.03,1c0,11.3-.03,22.61.03,33.91,0,1.4-.43,1.77-1.77,1.72-2.26-.11-4.55-.03-6.93-.03.03-12.51.03-24.81.03-37.35Z"></path></svg> 