<?xml version="1.0" encoding="UTF-8"?><svg id="Layer_1" xmlns="http://www.w3.org/2000/svg" width="600" height="400" viewBox="0 0 600 400"><defs><style>.cls-1{fill:#3a327f;}</style></defs><path class="cls-1" d="m363.66,218.8c-.23,5.52-1.95,10.27-5.56,14.06-4.7,4.93-11.37,3.68-14.66-2.62-2.99-5.72-3.64-12.03-3.86-18.32-.41-11.29.28-22.59,2.04-33.75.72-4.47.43-7.49-5.49-6.11-2.17.52-4.6.23-6.86-.06-6.07-.77-8.91-4.79-8.19-10.88.28-2.39,1.03-2.91,3.28-1.99,4.5,1.84,9.37,1.67,14.09,2.34,3.74.53,5.56-.27,6-4.46.7-6.66,2.22-13.19,3.12-19.81.36-2.61,1.22-3.39,3.68-2.42,1.59.66,3.22,1.2,4.88,1.62,3.44.83,4.71,2.35,3.6,6.13-1.39,4.74-1.82,9.75-3.05,14.55-.87,3.39.17,3.96,3.29,3.49,8.69-1.32,17.41-2.4,26.11-3.63,2.45-.35,4.86-.72,7.8.07-1.86,3.8-4.26,6-8.39,6.76-8.82,1.62-17.53,3.86-26.37,5.35-3.83.65-5.38,2.08-6.03,5.99-2.5,15.11-4.38,30.25-4.23,45.59,0,3.28-.17,7.03,3.95,7.9,3.82.83,5.65-2.29,7.49-5.07,1.02-1.5.61-3.95,3.36-4.71Z"/><path class="cls-1" d="m305.1,219.5c-.22,6.46-5.19,13.47-10.27,15.03-5.29,1.62-10.09-.65-12.56-6.26-1.03-2.47-1.79-5.03-2.28-7.66-.48-2.34-.51-4.76-.83-8.18-3,6.01-5.25,11.17-8.06,16.03-2.81,4.85-5.75,10.32-12.49,9-6.43-1.24-7.49-7.29-8.23-12.49-2.16-15.92-.26-31.64,3.46-47.17.51-2.12,10.03-5.38,11.77-3.99,1.94,1.55.54,3.53.06,5.25-3.79,13.45-5.64,27.37-5.5,41.34,0,2.92-1.02,7.12,2.31,8.19,3.67,1.17,5.34-2.97,7.1-5.51,6.66-9.39,10.6-20.43,11.39-31.92.51-5.35,1.86-10.59,4.01-15.51,1.07-2.62,2.71-4.16,5.76-3.01,2.87,1.05,3.46,2.89,2.84,5.83-2.35,11.22-3.41,22.68-3.16,34.14v1.15c.37,4.72-.36,10.75,4.37,12.89,5.12,2.36,6.41-4.51,10.29-7.14Z"/><path class="cls-1" d="m334.67,219.2c-.48,6.36-4.05,12.08-9.54,15.31-5.3,3.26-10.59,1.39-13.28-4.32-2.25-4.77-2.8-9.94-2.91-15.1-.26-11.72,1.43-23.27,3.76-34.72.64-3.15,9.66-6.71,12.06-4.8,1.57,1.24.47,2.86.25,4.27-1.97,12.49-5.07,24.77-5,37.47,0,3.78-2.08,9.25,2.5,10.83,4.58,1.57,6.86-3.69,9.48-6.85.67-.82.7-2.31,2.68-2.08Z"/><path class="cls-1" d="m482.34,218.89c-.98,6.08-3.45,10.83-7.99,14.42-6.46,5.05-13.09,3.09-15.82-4.78-3.19-9.11-2.28-18.57-1.52-27.88.57-7.02,2.02-13.98,3.28-20.93.49-2.73,9.86-5.83,11.99-4.09,1.58,1.27.38,2.83.16,4.24-1.91,12.07-4.81,23.99-5.16,36.28-.02.19-.02.38,0,.57.37,4-2.04,9.71,2.6,11.37,4.85,1.72,7.2-3.77,9.77-7.22.52-.76.81-1.72,2.71-1.98Z"/><path class="cls-1" d="m192.27,218.13c.83,3.84-.64,6-1.67,8.18-3.11,6.5-8.47,10.31-13.66,9.51-6.7-1.03-7.99-6.59-8.9-11.89-2.65-15.19.11-30.09,2.99-44.97.43-2.21,8.22-4.86,11.04-3.63,3.13,1.37.97,3.91.67,5.92-1.96,13.03-5.11,25.91-4.92,39.21,0,2.97-.83,6.84,2.91,7.89,3.33.93,5.43-2.22,7.41-4.51,1.32-1.52,2.41-3.3,4.13-5.7Z"/><path class="cls-1" d="m477.21,141.76c.14,5.31-3.64,10.28-7.77,10.25s-5.18-2.66-5.28-6.01c-.16-5.13,3.49-9.44,7.85-9.52,3.42-.05,5.1,1.66,5.2,5.28Z"/><path class="cls-1" d="m185.78,136.48c2.75.07,4.62,1.56,4.74,5.15.16,5.23-3.45,10.28-7.59,10.37-3.96.08-5.26-2.36-5.38-5.83-.18-5.05,3.36-9.54,8.23-9.68Z"/><path class="cls-1" d="m329.8,142.09c0,5.05-3.6,9.81-7.56,9.87s-5.36-2.32-5.54-5.83c-.25-4.84,3.56-9.63,7.69-9.74,3.85-.07,5.56,2,5.4,5.7Z"/><path class="cls-1" d="m163.19,241.4c-9.99-5-18.74-11.84-28.15-17.71-2.64-1.67-1.67-3.33-1.06-5.36,2.67-9.79,4.28-19.84,4.8-29.98.96-15.11.94-30.23,1.06-45.35,0-6.35.51-12.68,3.14-18.54,3.16-7.05,8.44-7.63,13.09-1.55,3.61,4.71,4.91,10.17,5.38,16.05.73,9.32-3.66,18-2.97,27.27,12.03-8.06,17.35-30.39,10.62-44.56-4.3-9.02-13.71-12.74-23.15-9.21-6.5,2.43-9.83,7.65-12.16,13.71-3.26,8.48-4.28,17.42-5.2,26.36-1.96,19.01-2.17,38.21-6.32,56.98-.89,4.04-1.8,5.49-6.66,3.57-17.98-7.11-36.34-7.84-54.04.66-14.44,6.93-15.38,21.31-2.7,30.53,13.32,9.69,46.21,12.27,61.44-2.56,2.26-2.2,3.56-2.32,6.06-.37,7.85,6.14,16.09,11.71,25.31,15.69,11,4.75,22.22,4.91,33.77,2.5,9.34-1.97,16.16-6.99,20.56-15.7-14.61,5.01-28.9,4.5-42.82-2.45Zm-55.42-5.04c-6.66,5.83-14.69,7.8-22.88,8.02-8.58-.34-16.37-1.91-22.92-7.17-4.04-3.25-7.14-7.31-5.83-12.82,1.28-5.34,5.94-7.09,10.74-8.2,8.5-1.96,16.65-.51,24.66,2.63,5.47,2.26,10.68,5.09,15.55,8.45,6.21,4.14,6.24,4.27.68,9.08Z"/><path class="cls-1" d="m236.01,226.69c5.83-3.57,9.72-8.49,9.53-17.4-2.56,3.85-4.24,6.24-6.78,7.62-2.1,1.14-4.75,2.98-6.76,1.57-1.57-1.11.06-3.91.32-5.95.34-2.07.77-4.13,1.32-6.15,2.1-8.73,4.16-17.49,6.35-26.2.69-2.74-.12-4.57-2.71-5.42-3.33-1.08-3.16,1.67-3.71,3.58-.37,1.27-.83,2.5-1.49,4.24-4.85-10.44-12.31-13.26-20.55-8.39-2.65,1.56-4.91,3.72-6.59,6.3-7.49,11.33-10.18,23.8-8.61,37.2.38,3.64,1.6,7.14,3.55,10.23,4.7,7.34,12.69,8.18,18.91,2.1.94-.92,1.3-2.76,3.38-2.59-2.83,13.5-4.88,27.16-6.13,40.89-.83,9.75-1.27,19.52,2.11,28.95,1.21,3.38,3.41,6,7.35,6.43,4.16.46,6.91-1.67,8.81-5.14.88-1.48,1.62-3.03,2.22-4.64,6.81-20.48,5.29-40.75-2.35-60.6-1.33-3.46-1.14-4.8,1.85-6.64Zm-15.33-10.42c-.43,1.06-.94,2.09-1.51,3.09-2.44,3.97-5.13,8.69-10.49,7.07-5-1.52-3.33-7.04-4.06-10.49.83-10.28,2.32-19.92,8-28.25,3.84-5.65,8.64-5.9,12.78-1.13,1.09,1.09,1.59,2.64,1.35,4.16-1.31,8.69-2.54,17.4-6.07,25.56h0Zm11.7,69c-.4,2.27-.99,4.5-1.79,6.66-.34,1.07-.98,2.17-2.34,2.18-1.2-.05-2.19-.95-2.36-2.13-.68-2.18-1.13-4.43-1.34-6.7-.83-18.23,1.72-36.17,4.7-55.69,3.11,5.77,3.33,10.77,3.85,15.65,1.36,13.33,1.12,26.77-.71,40.04h0Z"/><path class="cls-1" d="m452.65,220.32c-2.99,2.88-3.04,6.87-5,9.78-1.37,2.02-2.5,4.64-5.54,4.28-2.66-.32-3.59-2.67-4.45-4.79-.73-1.77-1.26-3.61-1.6-5.49-1.79-10.44-.67-21.16,3.24-31,1.42-3.76,2.79-7.54,4.31-11.26,1.37-3.33-.27-5.58-2.62-7.42-2.56-2.01-3.69.88-5.15,2.01-3.62,2.81-7.04,5.89-10.63,8.74-1.12.89-2.39,2.3-4.05,1.32-1.39-.83-.83-2.45-.79-3.71.09-3.06.49-6.1.52-9.16,0-3.25-.71-6.39-4.58-6.86-3.59-.44-5.73,1.87-6.7,5.06-2.07,6.78-1.48,13.32,2.95,19.04,1.38,1.57,1.95,3.7,1.53,5.75-1.37,7.74-3.02,15.39-6.42,22.54-2.42,5.13-5.55,9.65-11.05,11.91-4.85,2-9.42,1.73-13.08-2.46-2.72-3.11-3.76-6.97-4.65-10.95-.77-3.44-.19-5.33,3.33-7.12,11.61-5.9,18.62-15.27,18.49-28.71-.11-10.92-8.95-15.62-18.32-10.08-2.45,1.52-4.59,3.5-6.3,5.83-5.17,6.72-7.54,14.51-8.9,22.72-.4,2.44.52,5.47-3.37,6.27-1.72.35-.78,2.13-.11,2.72,3.64,3.22,4.12,7.9,5.97,11.96,3.56,7.79,8.38,14.43,17.82,15.16,9.44.72,16.03-4.16,21.05-11.57,4.07-5.84,6.76-12.52,7.89-19.55,1.07-7.36,2.76-12.97,12.33-10.93-.89,5.83-2.12,11.81-2.66,17.85-.67,7.61-1.32,15.35,2.26,22.57,3.33,6.73,9.55,8.64,15.82,5,5.84-3.5,9.6-11.71,8.48-19.43Zm-68.67-37.88c1.5-2.41,3.42-5.18,6.8-3.97,3.04,1.08,2.84,4.22,2.77,6.89-.19,7.78-7.39,19.44-15.4,19.98.33-8.09,1.49-15.9,5.83-22.9h0Z"/><path class="cls-1" d="m536.57,224.98c-2.11,2.04-4.45,4.16-7.49,3.42-3.33-.83-3.49-4.16-4-6.99-.19-1.52-.27-3.04-.24-4.57-.28-8.81.89-17.53,1.71-26.27.18-2,1.27-5-.97-5.77-4.54-1.67-5.92-5.32-7.65-9.07-1.2-2.57-3.57-3.87-6.25-4.63-6.7-1.87-13.16.83-18.11,7.94-5.5,7.85-8.11,16.8-9.06,26.22-.83,7.84-.91,15.71,2.72,23.02,4.69,9.44,14.3,10.3,20.4,1.78,2.46-3.42,4.35-7.23,6.62-11.05,4.47,13.86,7.94,17.74,14.86,16.81,6.49-.83,11.73-7.37,11.79-14.99-2.53.72-3,2.86-4.32,4.15Zm-21.39-35.73c-1.43,9.84-3.06,19.63-6.89,28.9-.28.71-.62,1.4-1.01,2.07-2.5,4.09-5,9.47-10.51,8.09-5.31-1.32-3.71-7.13-4.21-11.66.72-10.12,2.7-20.23,8.25-29.22,3.95-6.4,8.7-7.02,12.96-2.3,1.13,1.05,1.65,2.59,1.41,4.11h0Z"/><path class="cls-1" d="m196.6,117.57c-.32,0-.64-.08-.92-.26-.27-.16-.43-.45-.42-.76v-17.3h-3.91c-.28,0-.53-.18-.63-.43-.15-.3-.23-.64-.22-.98,0-.33.06-.66.2-.96.11-.27.37-.44.66-.43h10.46c.29-.01.56.16.67.43.14.29.21.61.21.93,0,.35-.07.69-.22,1.01-.11.27-.38.44-.67.43h-3.88v17.3c.01.31-.15.6-.42.76-.28.17-.6.26-.92.26Z"/><path class="cls-1" d="m205.98,117.57c-.33,0-.64-.08-.92-.25-.27-.16-.43-.45-.41-.77v-19.15c-.01-.31.14-.59.41-.75.28-.16.6-.24.92-.23.32,0,.64.08.92.23.27.15.43.44.42.75v7.99h6.28v-7.99c-.01-.31.15-.6.42-.75.57-.31,1.26-.31,1.83,0,.27.15.43.44.42.75v19.15c.02.31-.14.61-.42.77-.57.33-1.27.33-1.83,0-.27-.16-.43-.45-.42-.77v-8.74h-6.28v8.74c.02.31-.14.61-.42.77-.28.17-.59.25-.92.25Z"/><path class="cls-1" d="m220.77,117.57c-.3,0-.59-.08-.83-.26-.25-.17-.4-.46-.37-.76v-19.15c-.02-.3.12-.59.37-.76.24-.17.54-.26.83-.26h8.97c.29-.01.56.16.67.43.14.28.21.59.21.9,0,.34-.07.68-.23.97-.12.25-.37.42-.65.42h-7.49v6.66h3.88c.27,0,.53.14.66.37.15.25.22.54.22.83,0,.29-.06.58-.2.83-.13.26-.4.41-.68.39h-3.88v6.66h7.49c.28,0,.53.15.65.41.16.3.25.64.23.98,0,.31-.07.62-.21.9-.11.27-.38.45-.67.43l-8.97-.02Z"/><path class="cls-1" d="m243.21,117.74c-.99.01-1.97-.21-2.86-.64-.86-.45-1.56-1.16-1.99-2.03-.55-1.18-.8-2.47-.74-3.76v-8.44c-.06-1.3.2-2.59.74-3.76.43-.89,1.14-1.61,2.02-2.06,1.82-.85,3.93-.85,5.75,0,.88.45,1.6,1.17,2.04,2.06.56,1.17.82,2.47.76,3.76v8.42c.06,1.3-.2,2.59-.76,3.76-.44.89-1.16,1.61-2.04,2.06-.91.44-1.91.66-2.92.64Zm0-2.72c.84.04,1.66-.3,2.22-.92.61-.81.91-1.81.83-2.82v-8.42c.07-1-.23-1.98-.82-2.78-.56-.62-1.37-.96-2.21-.92-.83-.04-1.64.29-2.2.92-.61.81-.91,1.81-.83,2.82v8.38c-.08,1,.2,2,.78,2.82.56.63,1.38.97,2.22.92Z"/><path class="cls-1" d="m261.95,117.65c-.22,0-.44-.1-.59-.26-.18-.18-.33-.4-.44-.63l-3.71-8.33h-2.5v8.08c.01.31-.15.6-.42.76-.56.35-1.28.35-1.84,0-.27-.16-.43-.45-.42-.76v-19.15c0-.25.08-.5.24-.69.17-.19.41-.3.67-.29h4.79c.99-.01,1.98.17,2.9.54.88.36,1.62,1,2.09,1.82.57,1.09.84,2.32.78,3.55.03.98-.13,1.96-.47,2.89-.27.7-.7,1.34-1.26,1.84-.53.46-1.14.8-1.81,1l3.53,7.61c.04.07.06.15.07.22,0,.07,0,.14,0,.22,0,.26-.09.52-.25.73-.17.24-.38.44-.62.6-.22.15-.49.24-.76.25Zm-7.25-11.66h3.02c.82.04,1.63-.24,2.26-.78.63-.74.93-1.7.83-2.66.1-.96-.2-1.93-.83-2.66-.62-.54-1.43-.82-2.26-.78h-3.02v6.89Z"/><path class="cls-1" d="m267.3,117.57c-.33,0-.65-.08-.92-.25-.27-.16-.43-.45-.42-.77v-19.15c-.01-.31.15-.6.42-.75.57-.31,1.27-.31,1.84,0,.27.15.43.44.42.75v19.15c.02.31-.14.61-.42.77-.28.17-.59.25-.92.25Z"/><path class="cls-1" d="m277.43,117.74c-1,.02-1.99-.2-2.89-.64-.88-.44-1.59-1.15-2.03-2.03-.54-1.18-.8-2.47-.74-3.76v-8.44c-.06-1.3.2-2.59.74-3.76.43-.88,1.14-1.61,2.02-2.06.87-.43,1.84-.65,2.81-.64,1.04-.02,2.07.21,3,.67.83.42,1.53,1.07,2.02,1.86.5.86.75,1.84.72,2.83.05.42-.07.84-.33,1.17-.28.22-.64.33-1,.31-.32,0-.63-.07-.92-.22-.29-.18-.45-.5-.42-.83-.04-.53-.16-1.05-.36-1.55-.18-.45-.48-.83-.88-1.1-.53-.3-1.13-.45-1.74-.42-.84-.04-1.65.29-2.21.92-.6.81-.88,1.82-.79,2.82v8.42c-.09,1.01.19,2.01.79,2.82,1.21,1.21,3.17,1.22,4.38.02,0,0,.01-.01.02-.02.61-.81.91-1.81.83-2.82v-2.37h-2.55c-.26,0-.5-.14-.62-.37-.15-.25-.23-.54-.23-.83,0-.29.08-.58.23-.83.11-.24.36-.39.62-.39h4.34c.25-.01.5.1.65.3.15.22.23.48.22.74v3.79c.06,1.3-.2,2.59-.75,3.76-.45.88-1.16,1.6-2.04,2.06-.9.43-1.9.64-2.9.62Z"/><path class="cls-1" d="m287.28,117.57c-.33,0-.65-.08-.92-.25-.27-.16-.43-.45-.42-.77v-19.15c-.01-.31.15-.6.42-.75.57-.31,1.27-.31,1.84,0,.27.15.43.44.42.75v19.15c.02.31-.14.61-.42.77-.28.17-.59.25-.92.25Z"/><path class="cls-1" d="m293.27,117.57c-.33,0-.65-.08-.92-.26-.27-.16-.43-.45-.42-.76v-19.15c-.02-.32.14-.62.42-.78.28-.16.6-.24.92-.23.29,0,.57.05.83.16.25.13.46.31.62.54.23.33.42.68.58,1.04l5.59,12.49v-13.32c-.01-.31.15-.6.42-.75.28-.16.6-.24.92-.23.32,0,.64.08.92.23.27.15.43.44.42.75v19.15c.01.31-.15.6-.42.76-.27.17-.59.26-.92.26-.33,0-.64-.1-.91-.29-.29-.22-.53-.5-.68-.83l-6.02-13.17v13.32c.01.31-.15.6-.42.76-.27.2-.6.31-.93.32Z"/><path class="cls-1" d="m307.2,117.57c-.26,0-.52-.06-.76-.17-.25-.1-.47-.26-.66-.45-.16-.18-.25-.41-.25-.65,0-.09,0-.17,0-.26l5-18.76c.09-.34.33-.63.64-.78.66-.36,1.45-.36,2.12,0,.32.15.55.44.64.78l5,18.76c.03.08.05.17.06.26,0,.24-.1.46-.27.63-.18.2-.41.36-.66.47-.24.11-.5.17-.77.17-.2,0-.39-.04-.57-.14-.17-.12-.29-.3-.34-.5l-1-4.11h-6.25l-1.01,4.11c-.03.21-.16.39-.34.5-.18.09-.39.14-.59.14Zm2.54-7.21h5l-2.5-9.93-2.5,9.93Z"/><path class="cls-1" d="m322.19,117.57c-.3,0-.59-.08-.83-.26-.25-.17-.4-.46-.37-.76v-19.15c-.01-.31.14-.59.41-.75.28-.16.6-.24.92-.23.32,0,.64.08.92.23.27.15.43.44.42.75v17.49h6.55c.27,0,.51.17.6.42.14.29.21.61.21.93,0,.32-.07.64-.21.93-.09.26-.33.43-.6.43l-8.01-.04Z"/><path class="cls-1" d="m539.63,163.79h-2.04v-.76h4.95v.76h-2.05v6.14h-.87v-6.14Z"/><path class="cls-1" d="m548.96,166.9c-.04-.97-.1-2.12-.09-2.98h0c-.22.83-.51,1.67-.83,2.62l-1.18,3.33h-.66l-1.07-3.28c-.32-.97-.59-1.87-.77-2.68h0c0,.83-.07,2.02-.13,3.05l-.18,2.96h-.83l.47-6.89h1.1l1.14,3.33c.27.83.5,1.6.67,2.31h0c.17-.69.41-1.45.71-2.31l1.19-3.33h1.1l.42,6.89h-.83l-.21-3.01Z"/></svg>