<?xml version="1.0" encoding="UTF-8"?> <svg xmlns="http://www.w3.org/2000/svg" id="Layer_1" width="100" height="30.8" viewBox="0 0 100 30.8"><defs><style>.cls-1{fill:#3a357e;}</style></defs><path class="cls-1" d="m88.15,12.84h7.11c-.38-2.3-1.66-3.45-3.46-3.45s-3.21,1.28-3.65,3.45m3.97,10.93c-4.74,0-8.83-3.64-8.83-9.08s3.71-9.2,8.64-9.2,8.07,4.28,8.07,8.95c0,.6-.05,1.2-.13,1.79h-11.72c.64,2.3,2.62,3.39,4.93,3.39s4.48-.77,6.34-1.92l.06.06-1.09,4.42c-1.47.83-3.71,1.59-6.27,1.59m-18.12-14.5c-2.05,0-3.26,1.79-3.26,3.77s1.22,3.71,3.26,3.71,3.27-1.79,3.27-3.71c0-1.99-1.22-3.77-3.27-3.77m-.58,21.53c-2.82,0-5.25-.89-7.23-2.43l1.41-3.77h.06c1.79,1.47,3.52,2.24,5.7,2.24,2.43,0,3.97-1.28,3.97-3s-1.41-3.07-3.91-3.07c-2.18,0-3.65.58-4.99,1.21l-.06-.06,1.09-3.32c-2.05-1.21-3.26-3.32-3.26-5.82,0-3.9,3.14-7.29,7.94-7.29,1.73,0,2.69.32,3.91.32,2.05,0,3.91-.64,5.57-1.34h.06l-1.15,4.28-2.88-.26c1.6,1.34,2.18,2.88,2.18,4.67,0,1.92-1.15,4.09-3.52,5.3,2.43,1.15,3.84,3,3.84,5.56-.02,3.97-3.41,6.78-8.73,6.78m-14.85-16.49l-3.14-7.73-3.14,7.73h6.28Zm1.79,4.35h-9.86l-1.98,4.86h-5.12L53.57,0h3.84l10.18,23.52h-5.25l-1.98-4.86Zm-27.53-8.69c-2.75,0-4.55,1.85-4.55,4.67,0,2.62,1.79,4.67,4.61,4.67,2.11,0,4.29-1.6,4.29-4.67,0-2.75-1.98-4.67-4.35-4.67m4.36,11.31c-1.6,1.66-3.39,2.49-5.44,2.49-4.8,0-8.45-3.96-8.45-9.08,0-5.43,3.78-9.2,8.58-9.2,2.11,0,3.78.83,5.19,2.11V0h4.87v23.52h-4.75v-2.24Zm-22.03-6.97l-3.14-7.73-3.13,7.73h6.27Zm1.8,4.35H7.11l-1.98,4.86H0L10.18,0h3.84l10.18,23.52h-5.25l-1.98-4.86Z"></path></svg> 