<?xml version="1.0" encoding="UTF-8"?> <svg xmlns="http://www.w3.org/2000/svg" id="Layer_1" width="600" height="400" viewBox="0 0 600 400"><defs><style>.cls-1{fill:#fff;}</style></defs><path class="cls-1" d="m192.19,276.18h-13.47v-40.22h11.63c8.28,0,13.68,3.71,13.68,10.48,0,3.02-1.4,6.37-4.79,8.21v.18c6.05,2.12,6.95,7.27,6.95,9.58,0,8.42-6.48,11.81-14.04,11.81l.04-.04Zm-1.62-33.81h-4.79v9.9h5.26c2.48,0,5.98-.61,5.98-5,0-3.96-3.49-4.9-6.48-4.9h.04Zm1.15,16.09h-5.94v11.31h5.98c2.99,0,7.34-.61,7.38-5.76,0-4.82-4.14-5.54-7.45-5.54h.04Z"></path><path class="cls-1" d="m239.06,272.33c-2.7,2.99-6.41,4.61-10.69,4.61-3.06,0-7.78-1.04-10.87-4.57-2.99-3.42-3.71-6.62-3.71-11.59v-24.84h7.34v24.77c0,2.48.11,5.33,1.8,7.27,1.37,1.8,3.49,2.45,5.36,2.45,2.12,0,4.25-.72,5.62-2.63,1.4-1.94,1.51-4.46,1.51-7.06v-24.84h7.34v24.77c0,5.51-1.19,8.82-3.71,11.59v.07Z"></path><path class="cls-1" d="m264.27,276.94c-8.96,0-13.03-5.04-13.47-12.39h7.27c.4,4.72,3.74,6.19,6.16,6.19,3.31,0,5.98-2.63,5.98-5.83,0-4.28-3.53-5.36-8.6-7.27-3.17-1.08-10.12-3.42-10.12-11.02,0-7.13,6.41-11.41,12.89-11.41,3.74,0,7.56,1.4,9.9,4.18,1.94,2.34,2.34,4.68,2.48,6.8h-7.24c-.32-2.05-1.58-4.79-5.36-4.79-2.99,0-5.36,2.16-5.36,5.04,0,3.71,2.56,4.5,9.07,7.06,6.84,2.66,9.61,6.59,9.61,11.41,0,6.08-4.18,11.99-13.21,11.99v.04Z"></path><path class="cls-1" d="m285.94,276.18v-40.22h7.27v40.22h-7.27Z"></path><path class="cls-1" d="m335.99,276.94h-2.05l-23.98-27h-.22v26.25h-6.84v-40.97h2.05l24.01,26.89h.22v-26.14h6.8v40.97Z"></path><path class="cls-1" d="m345.67,276.18v-40.22h22.21v6.41h-15.16v10.23h12.67v6.41h-12.67v10.77h15.16v6.41h-22.21Z"></path><path class="cls-1" d="m389.52,276.94c-8.96,0-13.03-5.04-13.47-12.39h7.27c.4,4.72,3.74,6.19,6.16,6.19,3.31,0,5.98-2.63,5.98-5.83,0-4.28-3.53-5.36-8.6-7.27-3.13-1.08-10.12-3.42-10.12-11.02,0-7.13,6.41-11.41,12.89-11.41,3.74,0,7.56,1.4,9.9,4.18,1.94,2.34,2.34,4.68,2.48,6.8h-7.24c-.32-2.05-1.58-4.79-5.36-4.79-2.99,0-5.36,2.16-5.36,5.04,0,3.71,2.56,4.5,9.07,7.06,6.84,2.66,9.61,6.59,9.61,11.41,0,6.08-4.18,11.99-13.21,11.99v.04Z"></path><path class="cls-1" d="m423.33,276.94c-8.96,0-13.03-5.04-13.47-12.39h7.27c.4,4.72,3.74,6.19,6.16,6.19,3.31,0,5.98-2.63,5.98-5.83,0-4.28-3.53-5.36-8.6-7.27-3.13-1.08-10.12-3.42-10.12-11.02,0-7.13,6.41-11.41,12.89-11.41,3.74,0,7.56,1.4,9.9,4.18,1.94,2.34,2.34,4.68,2.48,6.8h-7.24c-.32-2.05-1.58-4.79-5.36-4.79-2.99,0-5.36,2.16-5.36,5.04,0,3.71,2.56,4.5,9.07,7.06,6.84,2.66,9.61,6.59,9.61,11.41,0,6.08-4.18,11.99-13.21,11.99v.04Z"></path><path class="cls-1" d="m415.23,126.55h8.68v86.66h-7.85v.94h63.94v-32.58h-.43c-1.55,33.99-40.9,31.65-40.9,31.65h.22v-43.71c7.7,0,18.15-1.12,19.69,18.79h.29v-38.27h-.29c-1.98,18.36-12.21,18.47-19.69,18.47v-42.12.32c14.76,0,30.96-2.92,37.23,28.8h.36v-29.85h-61.28v.86l.04.04Z"></path><path class="cls-1" d="m417.03,126.55v-.86h-18.22v.86h8.06v64.77c-.29,16.24-12.1,23.69-21.21,23.37-16.71-.61-18.61-16.42-18.61-19.66v-68.48h7.99v-.86h-31.07v.86h8.24v60.56c0,16.24,8.21,28.77,32.3,28.77,16.17,0,23.55-13.43,23.4-24.52v-64.81h9.11Z"></path><path class="cls-1" d="m337.75,177.75h6.77v-.86h-27.83v.86h7.16v19.62c0,9.07-3.92,17.35-16.31,17.61-8.93.11-13.83-4.93-16.42-11.92-2.81-7.49-3.85-15.34-3.85-33.12,0-11.41,1.04-28.33,4.97-35.93,1.84-3.56,5.22-9.86,15.12-9.83,12.42.04,19.62,10.19,24.95,31.4h.25v-32.51h-.29c-2.63,6.26-12.46,3.2-12.46,3.2-5.44-1.73-7.81-2.95-12.6-2.95-15.34,0-36.44,15.59-36.44,47.74,0,26.25,15.77,44.79,37.3,44.79,8.93,0,14.37-6.48,21.96-6.48,2.38,0,6.77,1.51,7.52,5.29h.18v-36.9Z"></path><path class="cls-1" d="m246.41,169.43c0,6.26-.5,26.28-5.72,36.22-3.28,6.37-8.93,9.07-15.59,9.07s-12.31-2.7-15.55-9.07c-5.22-9.94-5.72-29.95-5.72-36.22s.5-25.67,5.72-35.97c3.17-6.37,8.93-9.07,15.55-9.07s12.42,2.7,15.59,9.07c5.22,10.3,5.72,29.7,5.72,35.97Zm16.81,0c0-27.76-19.95-45.9-38.13-45.9s-38.13,18.18-38.13,45.9,20.59,46.16,38.13,46.16,38.13-18.4,38.13-46.16Z"></path><path class="cls-1" d="m178.79,125.69v.86h8.21l-20.2,67.61-24.41-67.65h7.06v-.86h-29.45v.86h8.06l33.09,88.1h.47l26.39-88.1h7.06v-.86h-16.24l-.04.04Z"></path></svg> 