<?xml version="1.0" encoding="UTF-8"?> <svg xmlns="http://www.w3.org/2000/svg" id="Layer_1" width="100" height="19.89" viewBox="0 0 100 19.89"><defs><style>.cls-1{fill:none;}.cls-2{fill:#fff;}.cls-3{fill:#71ea49;}.cls-4{fill:#d81b61;}.cls-5{fill:#e0e0e0;}.cls-6{fill:#4690f9;}</style></defs><path class="cls-2" d="m25.09,12.56l2.35-1.36c.42.99,1.15,1.64,2.51,1.64s1.61-.52,1.61-.98c0-.73-.69-1.01-2.47-1.51-1.76-.5-3.5-1.34-3.5-3.61s1.93-3.61,4-3.61c1.95,0,3.48.94,4.36,2.68l-2.29,1.34c-.4-.84-.98-1.38-2.07-1.38-.84,0-1.28.42-1.28.9,0,.54.29.92,2.14,1.47,1.8.54,3.82,1.17,3.82,3.69,0,2.29-1.84,3.65-4.42,3.65-2.49.02-4.09-1.17-4.76-2.93Z"></path><path class="cls-2" d="m35.55,2.87h2.54v12.41h-2.54V2.87Z"></path><path class="cls-2" d="m39.72,4.49c0-.84.69-1.53,1.53-1.53s1.53.69,1.53,1.53-.69,1.53-1.53,1.53-1.53-.71-1.53-1.53Zm.25,2.28h2.56v8.49h-2.54V6.77h-.02Z"></path><path class="cls-2" d="m52.56,10.06v5.22h-2.54v-4.86c0-1.05-.67-1.55-1.47-1.55-.94,0-1.59.54-1.59,1.76v4.65h-2.54V6.77h2.54v.8c.46-.63,1.3-1.03,2.43-1.03,1.72,0,3.17,1.22,3.17,3.52Z"></path><path class="cls-2" d="m63.03,6.77v8.07c0,2.85-2.22,4.05-4.49,4.05-1.76,0-3.25-.67-4.03-2.07l2.18-1.26c.33.59.82,1.07,1.93,1.07,1.19,0,1.91-.61,1.91-1.82v-.78c-.55.69-1.38,1.11-2.49,1.11-2.41,0-4.19-1.97-4.19-4.32s1.76-4.32,4.19-4.32c1.11,0,1.91.4,2.49,1.11v-.86h2.51v.02Zm-2.49,4.07c0-1.17-.84-1.97-2.07-1.97s-2.07.8-2.07,1.97.84,1.97,2.07,1.97,2.07-.78,2.07-1.97Z"></path><path class="cls-2" d="m71.41,12.72c0,1.95-1.7,2.79-3.54,2.79-1.7,0-2.98-.65-3.65-2.03l2.22-1.26c.23.65.69.99,1.45.99.61,0,.92-.19.92-.54,0-.94-4.19-.44-4.19-3.38,0-1.85,1.57-2.79,3.33-2.79,1.38,0,2.6.61,3.31,1.82l-2.18,1.17c-.23-.44-.57-.75-1.15-.75-.44,0-.71.17-.71.48,0,.99,4.19.36,4.19,3.5Z"></path><path class="cls-2" d="m80.84,10.06v5.22h-2.54v-4.86c0-1.05-.67-1.55-1.47-1.55-.94,0-1.59.54-1.59,1.76v4.65h-2.54V3.37h2.54v4.21c.46-.63,1.3-1.03,2.43-1.03,1.72,0,3.17,1.22,3.17,3.52Z"></path><path class="cls-2" d="m82.16,11.01c0-2.52,2.01-4.49,4.51-4.49s4.51,1.95,4.51,4.49-2.01,4.49-4.51,4.49-4.51-1.95-4.51-4.49Zm6.46,0c0-1.2-.84-2.01-1.95-2.01s-1.95.8-1.95,2.01.84,2.01,1.95,2.01,1.95-.8,1.95-2.01Z"></path><path class="cls-2" d="m95.68,9.22v3c0,.73.63.8,1.76.73v2.31c-3.33.34-4.3-.67-4.3-3.04v-3h-1.36v-2.45h1.36v-1.61l2.54-.76v2.37h1.76v2.45s-1.76,0-1.76,0Z"></path><path class="cls-1" d="m14.63,3.73c-.59.84-.42,2.01.42,2.6.33.25.71.36,1.09.36.57,0,1.15-.27,1.51-.76.61-.84.42-2.01-.42-2.6-.33-.25-.71-.36-1.09-.36-.57,0-1.15.27-1.51.76Z"></path><path class="cls-5" d="m18.63,8.74c-.31.4-.63.78-.99,1.11.1,1.26-.21,2.56-1.01,3.67-.44.59-.98,1.09-1.57,1.45.29-1.15.17-2.37-.31-3.46-.59.19-1.2.29-1.82.33-2.31,2.51-5.3,4.3-8.53,5.11-.46.11-.9.17-1.3.19,1.8,1.7,4.21,2.75,6.88,2.75,5.51,0,9.96-4.46,9.96-9.96,0-.99-.15-1.97-.42-2.89-.21.61-.52,1.17-.9,1.7Z"></path><path class="cls-6" d="m10.77,10.92c-.71.54-1.49,1.01-2.31,1.43-.1.04-.19.1-.29.13-1.07.52-2.2.94-3.37,1.24-.17.04-.36.1-.55.15-.73.23-1.59.48-2.37.48-.27,0-.52-.02-.75-.08-.06-.02-.1-.02-.15-.06-.4-.17-.76-.61-.96-1.09-.1,1.03.1,1.89.57,2.49.5.61,1.28.94,2.28.94.44,0,.92-.06,1.42-.19,2.93-.73,5.64-2.31,7.84-4.51-.33-.02-.65-.06-.98-.11-.15-.27-.27-.54-.38-.82Z"></path><path class="cls-4" d="m.1,9.56c-.04.96.06,1.93.29,2.89.15.38.34.76.71.99.73.48,1.93.19,2.77-.04-.69-1.28-.94-2.68-.82-4.02h0v.04c-.98.13-1.95.11-2.94.13Z"></path><path class="cls-6" d="m5.23,1.26c-.52.29-.99.61-1.45.98-1.36,1.09-2.41,2.52-3.04,4.15-.38,1.01-.61,2.08-.65,3.17.98.02,1.97-.04,2.94-.13.15-1.72.98-3.38,2.24-4.57s2.96-1.89,4.7-1.95C9.97,1.93,9.95.96,9.95,0,9.64,0,8.94.02,8.06.21c-.98.21-1.95.55-2.83,1.05Z"></path><path class="cls-3" d="m10.75.02c-.25-.02-.54-.02-.8-.02l.02,2.93h0c.71-.02,1.4.08,2.07.27.76-.9,1.7-1.57,2.72-2.01C13.52.52,12.17.11,10.75.02Z"></path><path class="cls-4" d="m15.07,14.95c.59-.36,1.13-.84,1.57-1.45.8-1.11,1.13-2.41,1.01-3.67.36-.33.69-.71.99-1.11.38-.54.69-1.09.92-1.66.82-2.1.65-4.44-.4-6.39-.46-.08-.9-.11-1.36-.11-1.03,0-2.07.21-3.02.63-1.03.44-1.95,1.11-2.72,2.01-.13.15-.27.33-.38.48-.31.4-.54.84-.75,1.28-1.22.29-2.37,1.01-3.17,2.12-.44.59-.73,1.26-.9,1.93.88-.54,1.87-.82,2.89-.82.15,0,.33,0,.48.02.02.92.19,1.84.55,2.72.11.27.23.54.38.8.33.06.65.1.98.11.13,0,.25.02.38.02.15,0,.31,0,.44-.02.61-.04,1.22-.15,1.82-.33.44,1.07.55,2.29.29,3.44Zm2.58-9.05c-.36.5-.94.76-1.51.76-.38,0-.76-.11-1.09-.36-.84-.61-1.01-1.78-.42-2.6.36-.5.94-.76,1.51-.76.38,0,.76.11,1.09.36.84.61,1.03,1.78.42,2.6Z"></path><path class="cls-2" d="m17.66,5.91c-.36.5-.94.76-1.51.76-.38,0-.76-.11-1.09-.36-.84-.61-1.01-1.78-.42-2.6.36-.5.94-.76,1.51-.76.38,0,.76.11,1.09.36.84.61,1.03,1.78.42,2.6Z"></path><path class="cls-2" d="m98.2,5.28c0-.17.04-.33.11-.48.08-.15.19-.27.33-.34.13-.08.29-.13.46-.13s.33.04.46.13c.13.08.25.21.33.34.08.15.11.31.11.48s-.04.33-.11.48c-.08.15-.19.27-.33.36s-.31.13-.46.13c-.17,0-.33-.04-.46-.13s-.25-.21-.33-.36c-.08-.15-.11-.31-.11-.48Zm.13,0c0,.15.04.29.1.4.08.13.15.23.29.29.11.08.25.11.38.11s.27-.04.38-.11c.11-.08.21-.17.29-.29s.1-.27.1-.4c0-.15-.04-.29-.1-.4-.08-.11-.15-.23-.29-.29-.11-.08-.25-.11-.38-.11s-.27.04-.38.11c-.11.08-.21.17-.29.29-.06.11-.1.25-.1.4Zm.59.1v.44h-.17v-1.09h.36c.13,0,.23.02.31.08.08.06.11.13.11.25s-.06.19-.17.25c.1.04.15.13.15.27v.08c0,.08,0,.13.02.15v.02h-.19s-.02-.08-.02-.17v-.13c-.02-.08-.08-.13-.17-.13,0,0-.23,0-.23,0Zm0-.17h.19c.06,0,.11-.02.15-.04.04-.02.06-.06.06-.11s-.02-.11-.06-.13c-.04-.02-.1-.04-.17-.04h-.17v.33h0Z"></path></svg> 