<?xml version="1.0" encoding="UTF-8"?> <svg xmlns="http://www.w3.org/2000/svg" id="Layer_1" width="600" height="400" viewBox="0 0 600 400"><defs><style>.cls-1{fill:#3a357e;}</style></defs><path class="cls-1" d="m483.13,205.18h34.12c-1.82-11.04-7.97-16.56-16.61-16.56s-15.41,6.14-17.52,16.56m19.05,52.46c-22.75,0-42.38-17.47-42.38-43.58s17.81-44.16,41.47-44.16,38.73,20.54,38.73,42.96c-.02,2.87-.23,5.74-.62,8.59h-56.25c3.07,11.04,12.57,16.27,23.66,16.27s21.5-3.7,30.43-9.22l.29.29-5.23,21.21c-7.06,3.98-17.81,7.63-30.09,7.63m-86.97-69.59c-9.84,0-15.65,8.59-15.65,18.09s5.86,17.81,15.65,17.81,15.69-8.59,15.69-17.81c-.05-9.55-5.86-18.09-15.69-18.09m-2.78,103.33c-13.53,0-25.2-4.27-34.7-11.66l6.77-18.09h.29c8.59,7.06,16.89,10.75,27.36,10.75,11.66,0,19.05-6.14,19.05-14.4s-6.77-14.73-18.77-14.73c-10.46,0-17.52,2.78-23.95,5.81l-.29-.29,5.23-15.93c-9.84-5.81-15.65-15.93-15.65-27.93,0-18.72,15.07-34.99,38.11-34.99,8.3,0,12.91,1.54,18.77,1.54,9.84,0,18.77-3.07,26.73-6.43h.29l-5.52,20.54-13.82-1.25c7.68,6.43,10.46,13.82,10.46,22.41,0,9.22-5.52,19.63-16.89,25.44,11.66,5.52,18.43,14.4,18.43,26.69-.1,19.05-16.37,32.54-41.9,32.54m-71.27-79.14l-15.07-37.1-15.07,37.1h30.14Zm8.59,20.88h-47.32l-9.5,23.33h-24.57l48.81-112.88h18.43l48.86,112.88h-25.2l-9.5-23.33Zm-132.13-41.71c-13.2,0-21.84,8.88-21.84,22.41,0,12.57,8.59,22.41,22.13,22.41,10.13,0,20.59-7.68,20.59-22.41.05-13.2-9.5-22.41-20.88-22.41m20.93,54.28c-7.68,7.97-16.27,11.95-26.11,11.95-23.04,0-40.56-19.01-40.56-43.58,0-26.06,18.14-44.16,41.18-44.16,10.13,0,18.14,3.98,24.91,10.13v-36.48h23.37v112.88h-22.8v-10.75Zm-105.73-33.45l-15.07-37.1-15.02,37.1h30.09Zm8.64,20.88h-47.32l-9.5,23.33h-24.62l48.86-112.88h18.43l48.86,112.88h-25.2l-9.5-23.33Z"></path></svg> 