<?xml version="1.0" encoding="UTF-8"?> <svg xmlns="http://www.w3.org/2000/svg" id="Layer_1" width="100" height="42.68" viewBox="0 0 100 42.68"><defs><style>.cls-1{fill:#3a357e;}</style></defs><path class="cls-1" d="m40.95,38.94c-.26-.02-.52-.02-.78,0-.11,0-.28-.07-.31.09-.03.2-.1.55.03.6.38.13.18.36.13.52-.06.23-.11.46-.13.69-.14-.43-.24-.86-.32-1.31-.09-.59-.07-.59-.65-.6-.12,0-.24,0-.36,0-.28-.04-.4.13-.41.36-.02.37-.17.7-.21,1.06-.02.17,0,.5-.14.5-.23-.02-.04-.32-.13-.48-.06-.1-.08-.23-.06-.34,0-.14-.11-.28.13-.4.13-.07.08-.4.02-.6-.05-.15-.23-.08-.35-.08-.39,0-.78,0-1.17,0-.1,0-.25-.02-.23.14.04.23-.19.57.25.65.08.01.1.12.12.2.12.56.25,1.12.37,1.67q.22,1.03,1.27.97h.11c.12-.02.2-.11.21-.23.1-.44.21-.88.32-1.37.12.48.23.91.33,1.33.01.15.14.26.28.25,0,0,0,0,0,0,.28,0,.57-.02.85,0,.23.02.3-.12.33-.28.17-.65.31-1.31.5-1.95.06-.21.03-.53.23-.61.4-.17.21-.47.19-.68s-.3-.09-.46-.1Z"></path><path class="cls-1" d="m28.39,39.08c.01-.23-.21-.14-.33-.14-.25-.02-.5,0-.75,0-.53,0-.53,0-.5.52,0,.14.02.23.19.23.08,0,.18,0,.18.12v.71l-.08.02c-.16-.24-.31-.47-.48-.71-.33-.5-.58-1.14-1.39-.91-.12.02-.24.02-.36,0q-.5,0-.48.5c0,.12-.02.24.17.26s.12.15.12.25v1.6c.02.13-.05.25-.17.3-.23.13-.11.4-.1.61.01.17.18.11.29.11h1.14c.09,0,.24.02.21-.11-.05-.22.26-.61-.26-.65-.03,0-.08-.06-.08-.1v-.77c.26.25.48.54.65.87.29.67.76.86,1.45.77.24-.03.32-.08.32-.32-.02-.76-.01-1.52,0-2.27,0-.1-.05-.23.12-.29.31-.11.13-.39.14-.59Z"></path><path class="cls-1" d="m71.57,39.66c.24-.13.09-.4.1-.61,0-.17-.18-.12-.29-.12h-1.24c-.1,0-.26-.03-.23.13.04.22-.2.54.21.64.07.02.05.1.06.15.07.43.02.49-.48.47-.12,0-.33.09-.33-.14,0-.17-.13-.38.13-.52s.12-.4.12-.61-.19-.13-.31-.13c-.38-.01-.76,0-1.14,0-.11,0-.28-.06-.3.1-.02.21-.11.55.04.6.32.11.2.33.22.51.03.2.03.4,0,.6-.07.39.25.87-.26,1.16-.01,0,0,.05,0,.07-.09.52-.03.59.5.59h.36c.18,0,.36.01.53,0,.13-.01.35.1.35-.11s.2-.5-.14-.64c-.08-.04-.09-.1-.1-.17-.07-.44-.04-.48.46-.47.13,0,.33-.09.35.12,0,.17.17.4-.15.54-.24.11-.11.4-.1.61s.2.11.31.12c.32.01.64,0,.96,0,.52,0,.56-.05.5-.57-.01-.09-.02-.17-.13-.18-.18-.02-.15-.15-.15-.27v-1.6c-.02-.12.04-.24.15-.29Z"></path><path class="cls-1" d="m56.64,41.87c-.31-.12-.21-.33-.21-.51-.02-.33-.02-.67,0-1,.02-.26-.18-.6.24-.74.02,0,.02-.09.03-.13.07-.52.03-.56-.5-.56h-.77c-.54,0-.55.01-.5.56.01.1,0,.19.14.2s.13.11.14.2c.04.42.01.46-.5.44-.13,0-.33.06-.32-.17,0-.17-.15-.37.15-.5.25-.11.1-.4.11-.61s-.17-.12-.27-.12c-.37,0-.73,0-1.1,0-.11,0-.28-.06-.29.12-.01.2-.12.52.07.59.25.1.2.25.2.41,0,.48,0,.97,0,1.46,0,.13.04.24-.17.32-.23.1-.07.38-.1.57-.02.13.08.15.19.15h1.31c.09,0,.19-.03.17-.13-.05-.22.2-.54-.21-.64-.06-.02-.05-.1-.06-.15-.07-.44-.02-.48.51-.46.11,0,.31-.07.31.13,0,.17.14.39-.14.52s-.1.4-.11.6.19.14.3.14h1.14c.11,0,.28.07.3-.09.03-.2.11-.53-.05-.59Z"></path><path class="cls-1" d="m50.71,41.73c-.06-.05-.12-.11-.18-.17-.36-.37-.37-.39-.75-.03-.23.22-.47.18-.71.08-.21-.09-.36-.29-.36-.52-.02-.22-.02-.45,0-.67.03-.24.12-.47.38-.54.29-.08.47.08.57.33.04.14.17.23.32.22.77.02.77.03.77-.75v-.53c0-.1.01-.22-.13-.21-.28,0-.57-.08-.83.06-.07.05-.15.05-.22,0-.62-.26-1.34-.1-1.78.41-.46.59-.46,1.27-.38,1.95.07.53.44.98.94,1.16.84.33,1.63.13,2.33-.42.17-.12.19-.24.02-.37Z"></path><path class="cls-1" d="m45.16,41.85c-.22-.09-.18-.21-.18-.35v-1.46c0-.15-.04-.29.19-.39s.08-.39.08-.59-.17-.13-.28-.13c-.39,0-.78,0-1.17,0-.13,0-.33-.06-.3.17.04.2-.22.53.22.58.17.02.14.13.14.23v1.67c0,.14-.03.21-.19.24-.36.07-.13.36-.18.55s.12.19.25.19h1.25c.11,0,.28.05.26-.14s.13-.49-.1-.58Z"></path><path class="cls-1" d="m90.09,40.4c.05-.11.1-.21.14-.32.03-.08.12-.17.04-.26s-.15,0-.23.01c-.32.02-.62.16-.92.21-.92.17-1.82.43-2.74.6-.06.01-.13.02-.14.08s.06.13.12.14c.26.06.53.12.79.18l2.93.67c.06-.01.15-.01.19-.05.09-.09.01-.18-.04-.26-.22-.28-.28-.67-.14-1Z"></path><path class="cls-1" d="m8.84,40.63c-.07,0-.14-.02-.21-.03l-3.41-.81c-.07-.02-.16-.04-.19.04-.01.06,0,.12.04.17.28.44.33.89.06,1.35-.03.05-.05.11-.07.17-.06.17,0,.22.17.21l.31-.07c1.11-.25,2.21-.55,3.34-.74.09-.02.22-.04.22-.14,0-.16-.15-.14-.25-.15Z"></path><path class="cls-1" d="m37.02,35.04c.81,0,1.61.01,2.42,0,.26,0,.36-.15.32-.4-.07-.41-.13-.82-.22-1.23-.2-.86-.32-1.75-.34-2.63-.04-2.19-.01-4.38-.01-6.58,0-1.03-.27-1.97-.93-2.77-.21-.25-.16-.42.02-.65.51-.66.78-1.48.78-2.31-.01-2.43,0-4.86,0-7.29-.01-.71-.18-1.42-.49-2.06-.09-.2-.17-.43-.36-.56-.27-.3-.53-.63-.82-.9-.77-.74-1.78-1.16-2.85-1.18-2.13-.04-4.27,0-6.4-.03-.33,0-.38.09-.38.39.01,5.24.01,10.48,0,15.72v12.02c0,.29.07.38.37.37.57-.02,1.14,0,1.7,0,.13.09.29.12.44.1h2.24c.48,0,.56-.09.57-.56v-10.59c0-.21.11-.29.31-.3.24-.03.45.14.48.37.03.18.05.35.04.53,0,2.23-.02,4.45,0,6.68.01.97.06,1.94.38,2.88.05.14.07.31.23.38.03.33.15.53.55.5.55-.03,1.1,0,1.65,0,.09.05.2.09.31.1Zm-.65-2.38c-.28.34-.55.69-.83,1.03-.05.06-.1.15-.2.1s-.03-.13-.05-.19c-.17-.76-.27-1.53-.3-2.3-.17-2.37-.04-4.74-.06-7.11h0c.02-.64-.12-1.19-.7-1.56-.11-.07-.08-.17-.02-.25.21-.31.39-.65.53-1,.09-.22.21-.2.34-.08.73.64,1.28,1.37,1.43,2.38.11.73.06,1.46.07,2.19.02,2.03,0,4.05.01,6.08,0,.28-.02.52-.22.72h0Zm.04-23.79c-.08.12-.19.21-.28.32-.25.31-.3.73-.13,1.09.37.92.43,1.91.42,2.9-.02,1.54,0,3.08-.02,4.62,0,.38-.06.76-.17,1.12h0c-.07.6-.35,1.15-.8,1.55h0c-.28.41-.67.52-1.15.5-1.1-.04-2.19-.01-3.31-.05.5-.5.83-1.2,1.73-1.09.42.05.85.02,1.26-.07.19-.04.29-.2.48-.22.15-.25.27-.51.37-.78,0-2.35,0-4.69,0-7.04.02-.49-.2-.96-.59-1.26-.15-.11-.14-.14-.04-.28.32-.45.6-.92.93-1.43h-2.4c-.68,0-1.35.02-2.03,0-.34-.01-.46.06-.46.44.02,3.06.01,6.12.01,9.17,0,4.47,0,8.94.01,13.41,0,.4-.1.69-.44.88-.36.41-.74.81-1.14,1.18v-.66c0-8.47,0-16.93-.01-25.4,0-.35.1-.42.43-.42,1.58.02,3.16.01,4.73,0,.81-.02,1.62.17,2.32.58.63.33.64.34.25.91Zm-2.52,9.3c0,.48-.12.66-.43.67q-.5.03-.5-.48v-6.72c0-.14-.07-.36.19-.33.23.03.54-.18.65.22.05.18.08.37.09.56,0,2.03,0,4.06,0,6.09Z"></path><path class="cls-1" d="m80.76,32.06c.38-.95.56-1.97.54-2.99.03-4.67.03-9.34,0-14.01,0-1.26.08-2.53-.11-3.79-.17-1.06-.33-2.08-1.13-2.88-.36-.45-.78-.85-1.26-1.17-.9-.56-1.93-.85-2.99-.85-2-.04-4,0-6-.02-.28,0-.35.06-.35.35,0,9.07,0,18.14,0,27.21,0,.37,0,.73.01,1.1.91.09,1.81.04,2.72.09,1.16.07,2.32.02,3.48.02.77.01,1.54-.11,2.26-.37,1.29-.45,2.32-1.43,2.83-2.69Zm-1.69-22.73c-.28.31-.5.67-.76.98-.05.06-.13.1-.09.21.38,1.08.36,2.21.36,3.34v15.61c.02.33-.05.65-.22.94-.12.57-.45,1.08-.92,1.42h0c-.48.36-1.06.54-1.66.52-.97-.01-1.94,0-2.95,0,.17-.27.43-.42.57-.65.38-.62.93-.73,1.6-.66.42.05.85.04,1.23-.19.52-.45.68-1.05.68-1.7V12.57c0-.15.02-.31.03-.46-.17-.41-.08-.94-.46-1.23-.44-.33-.14-.56.03-.81.2-.29.41-.56.62-.83-.1-.09-.19-.05-.28-.05-1.33,0-2.68.01-4.02-.01-.34,0-.4.11-.4.42,0,7.37.01,14.74.01,22.12,0,.4-.03.74-.43.95-.15.11-.3.23-.42.37-.3.3-.59.61-.89.91-.05.05-.1.11-.18.06s-.05-.1-.05-.16v-.75c0-8.43,0-16.85,0-25.28,0-.35.1-.42.43-.42,1.79.02,3.58,0,5.37.02.65.02,1.27.21,1.81.57.43.2.74.54,1.06.86.19.18.05.35-.07.48Zm-4.3,11.36v-8.17c0-.33,0-.67-.02-1,0-.17.06-.22.23-.22.6-.02.89.25.89.85v17.24c0,.62-.44.93-1,.71-.16-.06-.11-.19-.11-.3,0-.59.02-1.18.02-1.78,0-2.45,0-4.89,0-7.33h0Z"></path><path class="cls-1" d="m93.64,22.98c-.81-1.7-1.73-3.35-2.75-4.93-.55-.87-1.05-1.78-1.47-2.71-.52-1.17-.66-2.42-.57-3.69,0-.14.04-.28.1-.41.19-.34.71-.42.89-.1s.36.67.36,1.04c.01,1.08,0,2.16,0,3.24,0,.1-.06.23.05.31h1.67c.13-.02.26,0,.38.05h0c.09.09.21.13.33.11.6,0,1.21.04,1.81-.03.51-.05.53-.07.53-.58v-3.48c-.02-.72-.14-1.44-.36-2.13-.12-.42-.23-.88-.55-1.22-.07-.05-.13-.1-.18-.17-.28-.47-.63-.89-1.04-1.24-.88-.72-1.98-1.13-3.12-1.17-.57-.01-1.15.04-1.71.17-.96.18-1.85.62-2.57,1.28-.64.59-1.14,1.31-1.46,2.12-.27.64-.43,1.33-.46,2.03-.04,1.04-.07,2.08.16,3.13.27,1.19.66,2.35,1.18,3.46.41.89.88,1.76,1.38,2.6.53.89,1.05,1.79,1.59,2.68.66,1.06,1.21,2.19,1.64,3.37.2.61.34,1.24.43,1.87.07.39.07.78.01,1.17-.07.43-.23.83-.73.97-.04-.04-.1-.07-.16-.08-.53-.05-.71-.43-.77-.87-.08-.63-.18-1.26-.07-1.9.03-.17.06-.33-.08-.47h0c-.12-.52,0-1.05-.06-1.57-1.47,0-2.94,0-4.41-.02-.24,0-.22.14-.22.3,0,.98.02,1.97,0,2.95-.05,1.11.14,2.22.55,3.26.36.86.96,1.6,1.71,2.15.5.38,1.09.58,1.65.82.31.01.56.21.87.24.67.08,1.34.07,2-.03.93-.13,1.81-.49,2.58-1.03,1.69-1.23,2.21-3.03,2.39-4.99.07-.8-.05-1.58-.19-2.36-.26-1.44-.72-2.83-1.34-4.15Zm-1.57,7.09s-.04.06-.06.09c-.13.79-.39,1.53-.96,2.12-.03.03-.07.06-.11.09-.34.27-.74.46-1.16.55-.52.09-1.05.09-1.57.02-.13-.04-.27,0-.36.1-.21.21-.42.42-.63.63-.37.39-.44.38-.88.08-.32-.24-.61-.51-.87-.81h0c-.6-.68-.85-1.51-1.04-2.36-.16-.69-.09-1.4-.1-2.11v-1.49c0-.13,0-.24.18-.24h2.26c-.19.24-.41.47-.65.67-.64.43-.71,1.06-.67,1.77.04.86.1,1.7.51,2.49.07.13.16.26.27.37.22.26.33.26.51-.03.22-.29.47-.56.74-.81.06-.06.13-.12.21-.03.5.54,1.17.55,1.83.51,1.01-.35,1.32-1.12,1.34-2.12.04-1.53-.33-2.95-.95-4.34-.29-.67-.65-1.3-.97-1.94h0c-.68-1.11-1.38-2.2-1.98-3.36h0c-.54-.89-1.02-1.81-1.43-2.76-.31-.68-.56-1.38-.76-2.1-.12-.45-.19-.91-.27-1.36-.09-.52-.11-1.05-.07-1.58.08-1.23.35-2.4,1.14-3.42.65-.88,1.61-1.48,2.69-1.68,1.08-.21,2.14-.17,3.16.28.1.06.2.12.29.19h0c.47.21.74.65,1.1.99.13.12-.03.2-.1.24-.39.24-.65.62-.99.91-.17.14-.17.27-.01.45.33.36.52.82.53,1.31,0,.5-.01,1-.02,1.49.09.31-.03.64-.29.83-.25.23-.47.49-.78.81v-2.93c-.17-.5-.2-1.05-.68-1.38,0,0-.02-.02-.03-.03-.09-.15-.39-.09-.35-.31.03-.14.22-.24.33-.36.1-.11.22-.22.33-.32.28-.21.15-.33-.08-.44-1.12-.53-2.23-.55-3.29.12-.35.25-.65.55-.9.9-.05.06-.08.12-.17.11-.03.07-.06.14-.08.2-.11.37-.33.69-.43,1.07-.19.75-.22,1.53-.1,2.29.14.84.36,1.67.67,2.46.42,1.06.91,2.08,1.48,3.07.65,1.18,1.38,2.31,2.06,3.47.81,1.36,1.44,2.82,1.88,4.34.13.53.22,1.07.29,1.61.1.57-.07,1.1-.03,1.65Z"></path><path class="cls-1" d="m11.63,27.4c-.07-.74-.23-1.47-.48-2.18-.29-.9-.65-1.78-1.07-2.63-.6-1.23-1.27-2.41-1.97-3.58s-1.44-2.36-2.02-3.63c-.54-1.19-.7-2.43-.63-3.71,0-.14.04-.28.1-.41.2-.41.71-.47.94-.08.2.3.31.64.32,1v3.24c0,.11-.08.27.1.33.71.05,1.42-.04,2.15.08.63.09,1.27.11,1.91.06.5-.03.61-.15.61-.66,0-1.07-.01-2.13,0-3.2,0-.76-.1-1.51-.32-2.24-.12-.42-.23-.85-.53-1.19-.04-.06-.09-.11-.12-.17-.47-.75-1.01-1.41-1.82-1.85-.61-.32-1.26-.54-1.94-.64-.84-.13-1.69-.08-2.5.16-1.18.29-2.22.97-2.95,1.94-.79,1.07-1.24,2.34-1.29,3.67-.05.93-.06,1.87.17,2.81.12.58.27,1.15.45,1.71.36,1.04.81,2.04,1.33,3,.47.85.92,1.7,1.42,2.52.86,1.42,1.73,2.84,2.37,4.37.48,1.11.71,2.32.67,3.53-.03.57-.32.93-.83,1.05-.06-.05-.14-.09-.21-.12-.39-.14-.54-.43-.63-.82-.17-.66-.11-1.31-.12-1.97,0-.11.05-.24-.05-.33h0c0-.22.03-.44.01-.67-.02-.33.09-.67-.07-.99h0c-1.47,0-2.94,0-4.4-.02-.24,0-.23.13-.23.29C0,27.19.02,28.28,0,29.37c-.02.83.11,1.65.37,2.44.57,1.73,1.71,2.89,3.47,3.41.49.33,1.06.33,1.6.37,1.08.07,2.16-.14,3.14-.62,1.5-.74,2.45-1.98,2.89-3.56.25-.9.36-1.84.32-2.78-.01-.42-.13-.81-.16-1.22Zm-2.94,2.34c-.05.21.06.45-.14.63h0c-.07.73-.4,1.41-.92,1.92-.48.42-1.02.71-1.67.67-.42-.03-.85.14-1.26-.07-.06-.03-.11.02-.15.06-.26.29-.6.51-.8.85-.14.23-.28.22-.46.11-.52-.31-1-.67-1.33-1.2-.4-.56-.67-1.2-.81-1.87-.29-1.29-.16-2.6-.19-3.9,0-.18.08-.22.23-.22h2.2c-.24.29-.5.56-.8.8-.81.67-.5,1.58-.47,2.4.02.62.19,1.23.5,1.77.02.04.04.09.06.13.3.45.4.45.79.09.23-.21.38-.48.58-.7.07-.07.14-.2.26-.08.52.52,1.17.55,1.83.5h0c.07-.12.21-.1.32-.13.67-.25.9-.83,1-1.43.09-.6.09-1.21.01-1.81-.09-.68-.25-1.34-.49-1.98-.28-.77-.56-1.55-1.04-2.23-.01-.02.01-.07.02-.1h0c-.32-.49-.61-1-.87-1.53-.27-.52-.58-1.02-.9-1.5-.44-.67-.84-1.36-1.2-2.08h0c-.79-1.38-1.37-2.86-1.74-4.4-.19-.8-.26-1.63-.2-2.45.11-1.28.45-2.5,1.27-3.52.64-.8,1.51-1.25,2.51-1.49.65-.13,1.31-.16,1.96-.08.64.05,1.25.28,1.76.67h0c.29.23.55.49.8.77.12.14.14.21,0,.33-.32.31-.7.55-1,.9-.11.13-.18.2-.03.37.39.47.58,1.06.53,1.67-.02.5,0,.99,0,1.49,0,.11.06.24-.09.32h0l-1,1.06c-.01-1.02-.04-1.96.01-2.91-.11-.66-.33-1.24-.97-1.57-.14-.07-.15-.14-.02-.26.23-.21.44-.43.67-.64.17-.15.14-.27-.05-.35-1.26-.55-2.68-.65-3.81.48-.15.15-.29.31-.43.46h0c-.17.07-.1.32-.28.38h0c-.3.56-.5,1.16-.58,1.79-.05.47-.04.94.02,1.4.08.6.21,1.19.4,1.77.39,1.23.92,2.42,1.57,3.53.3.5.55,1.04.86,1.54.47.76.92,1.52,1.39,2.27.54.92,1.01,1.88,1.39,2.87.27.62.48,1.26.61,1.93.14.84.37,1.68.14,2.55Z"></path><path class="cls-1" d="m66.88,33.14c-.02-.38-.06-.76-.13-1.13-.18-.92-.23-1.85-.4-2.77-.09-.5-.09-1.02-.18-1.52-.2-1.09-.27-2.21-.46-3.3-.09-.49-.07-1-.18-1.48-.18-.82-.24-1.67-.36-2.49-.18-1.3-.33-2.61-.5-3.91-.15-1.18-.31-2.37-.49-3.55-.08-.49-.11-.99-.2-1.48-.13-.79-.19-1.6-.31-2.39-.06-.37-.03-.76-.27-1.08-.07-.5-.14-1.02-.2-1.53-.02-.17-.1-.17-.22-.17h-4.34c-.19,0-.39,0-.38.26,0,.28-.04.56-.09.83-.07.57-.12,1.14-.2,1.71-.1.67-.21,1.33-.28,2-.03.28-.08.55-.11.83-.07.59-.2,1.17-.25,1.77s-.17,1.15-.22,1.74c-.07.79-.24,1.56-.35,2.34-.11.81-.17,1.63-.3,2.43-.05.28-.02.56-.09.83-.12.58-.21,1.17-.27,1.75-.07.57-.14,1.14-.21,1.71s-.18,1.13-.26,1.69-.1,1.12-.19,1.67c-.11.67-.19,1.34-.28,2.01-.04.29-.08.58-.12.87-.08.59-.18,1.17-.24,1.76-.04.37-.15.73-.17,1.1-.02.45-.2.9-.1,1.36.39.03.78.04,1.17.02.25-.01.5-.01.75.01.87.14,1.75.04,2.62.06.2.03.38-.11.41-.3,0-.03,0-.05,0-.08.07-1.18.25-2.35.38-3.53.09-.87-.02-.77.85-.78h.07c.44,0,.5.06.49.41,0,.1.03.19.1.26.04.14-.07.31.08.43.14.3.03.62.06.93.06.09.09.19.08.3,0,.77.06,1.53.22,2.28.12.04.26.05.39.03.5-.02.99-.02,1.49.01.98.12,1.96.04,2.94.06.4,0,.48-.1.44-.5-.05-.5-.18-.98-.22-1.47Zm-8.94-5.71c-.08.52-.14,1.04-.23,1.56s-.13,1.04-.25,1.55c-.1.49-.17,1-.19,1.5-.02.22-.14.39-.14.61,0,.15-.16.15-.28.16-.28.45-.75.68-1.17,1.04-.09-.44.06-.81.11-1.17.04-.31.08-.62.13-.93.15-.9.26-1.8.37-2.71.07-.6.18-1.2.23-1.8.06-.79.26-1.56.33-2.35.05-.61.19-1.2.23-1.81.04-.58.2-1.14.25-1.72s.13-1.11.21-1.67c.09-.59.11-1.18.25-1.77.07-.28.06-.58.11-.87.13-.8.19-1.62.3-2.42.14-1.03.31-2.05.45-3.08.08-.58.1-1.17.21-1.73s.09-1.14.26-1.69c.01-.05.02-.11.01-.17.02-.57.02-.57.59-.57h2.49c-.25.23-.32.51-.57.67-.29.36-.57.72-.85,1.07-.1.16-.15.34-.16.53-.11.7-.16,1.42-.31,2.11-.16.72-.23,1.46-.35,2.18s-.2,1.43-.31,2.13-.18,1.46-.33,2.18c-.11.49-.14,1-.21,1.5s-.13.99-.22,1.48c-.1.53-.18,1.06-.25,1.59s-.18,1.04-.26,1.56c-.07.47-.13.95-.2,1.42-.08.52-.17,1.05-.25,1.6h0Zm2.94-2.35c-.01.12.02.27-.19.27s-.2-.17-.19-.3c.06-.6.14-1.2.2-1.8h.09c-.11.62.14,1.21.08,1.82Zm2.73,7.86h0c-.29.36-.6.7-.95,1-.02-1-.27-1.9-.18-2.84-.09-.1-.13-.23-.13-.36.02-.31-.01-.61-.08-.91-.13-.46.24-.73.45-1.06.22-.37.52-.68.68-1.08h0c-.83.06-1.67-.1-2.49-.09s-1.64,0-2.55,0l1.11-1.26c.08-.08.18-.05.27-.05h2.23c-.11-.62-.1-1.25-.15-1.87-.14-1.17-.2-2.33-.31-3.51-.07-.7-.14-1.4-.17-2.1-.02-.17-.06-.35-.1-.52-.12-.82.36-1.42.73-2.17.18,1.5.34,2.9.51,4.31l-.03.02h0s.02-.02.03-.03c.15.24.09.53.12.79.07.62.19,1.24.23,1.87.04.57.18,1.12.25,1.68s.15,1.14.19,1.71c.03.41.18.8.12,1.22h0s0,0,0,.01c.17.31.08.65.15.98.17.66.18,1.33.28,2,.08.54.14,1.08.2,1.63.03.32-.33.4-.44.64Z"></path><path class="cls-1" d="m25.45,18.78c0-2.29.01-4.58,0-6.86-.01-.79-.13-1.58-.37-2.33-.11-.37-.23-.75-.53-1.03-.05-.03-.09-.07-.13-.12-.49-.76-1.21-1.33-2.05-1.64-.32-.12-.65-.17-.95-.3-.12-.08-.25-.04-.38-.04h-6.54c-.48,0-.43-.06-.43.44v27.7c0,.06,0,.12,0,.18-.03.22.07.28.28.28.71.01,1.41-.01,2.13.06.84.05,1.68.05,2.52.01.38,0,.46-.1.48-.47.01-.15,0-.31,0-.46v-9.32c0-.49,0-.5.5-.49.59.02,1.18-.04,1.76-.18,1.48-.37,2.58-1.21,3.17-2.64.36-.88.55-1.82.55-2.77Zm-2.02-9.82c-.07.16-.18.3-.32.42-.48.38-.68.83-.48,1.45.16.58.23,1.18.2,1.78-.01,2.2,0,4.41-.01,6.62,0,.41-.09.81-.26,1.19-.1.3-.28.57-.5.79h0c-.52.39-1.15.61-1.8.61-1,.02-1.99,0-2.99,0-.03,0-.06-.03-.12-.07.48-.28.75-.75,1.21-1.03.11-.07.23-.11.36-.1.44,0,.88-.01,1.32,0,.27.02.54-.07.74-.26.33-.31.35-.74.41-1.15,0-.57.02-1.14.02-1.71,0-1.83.03-3.67,0-5.5,0-.41-.04-.85-.33-1.23-.17-.23-.43-.28-.67-.45.36-.28.56-.69.9-.98.09-.08.19-.19.14-.3s-.19-.05-.29-.05c-1.27,0-2.54,0-3.8-.02-.32,0-.39.1-.39.4,0,7.33,0,14.65.02,21.98,0,.67-.03,1.26-.7,1.61-.28.37-.71.58-1.02.91-.12-.08-.07-.18-.07-.27,0-8.61,0-17.23-.01-25.84,0-.3.08-.37.37-.37,1.78.01,3.55-.01,5.34.02.7,0,1.38.22,1.94.63.31.12.49.4.72.61.1.07.12.21.06.31Zm-4.06,6.51v-3.84c0-.17-.06-.36.25-.35.27.01.54,0,.59.35.01.13.01.26,0,.39v7.22c-.02.28-.25.49-.53.47-.08,0-.16-.03-.24-.08-.13-.08-.07-.22-.07-.33,0-1.28,0-2.56,0-3.84Z"></path><path class="cls-1" d="m52.34,30.13s-.02-.07-.03-.1h0s-.09-.04-.13-.04c-1.24-.01-2.49.02-3.73-.07-.77-.06-.78-.01-.79-.79v-4.3c0-.55-.02-1.09.01-1.64.03-.4.08-.44.48-.44h2.13c.48,0,.57-.09.57-.56v-2.24c0-.15-.03-.31-.11-.44,0-.52,0-1.04-.01-1.56-.83-.05-1.67-.1-2.5-.12-.56-.02-.58-.02-.58-.58v-5.15c0-.56.02-.59.57-.59h3.59c.52,0,.59-.09.61-.6.06-1.44-.08-2.88-.08-4.32,0-.04-.02-.07-.04-.1-.13,0-.26-.02-.39-.02h-9.06c-.49,0-.49,0-.49.5,0,9.07,0,18.14,0,27.2,0,.18.01.36,0,.53-.02.21.08.26.27.25.64-.01,1.28,0,1.92,0,.16.09.33.13.51.12h6.76c.52,0,.59-.08.61-.6.06-1.46-.1-2.9-.09-4.35Zm-2.8-11.2c-.18.31-.48.45-.67.7-.42.57-.96.79-1.68.72-.59-.04-1.18-.04-1.77-.01l1.12-1.24c.07-.08.13-.17.26-.17.9,0,1.8,0,2.75,0h0Zm-4.57-9.71c0,7.61.01,15.22.01,22.83,0,.24-.02.45-.29.53-.33.55-.94.8-1.32,1.3-.13-.13-.08-.26-.08-.37,0-8.57,0-17.14-.01-25.71,0-.33.08-.43.43-.43,2.37.02,4.74,0,7.11,0,.05,0,.09,0,.19.01-.18.24-.39.45-.62.64-.15.21-.36.36-.5.6-.11.2-.31.25-.55.25-1.35-.02-2.7,0-4.05-.02-.27,0-.32.11-.32.36Zm5.27,22.65c-.21.35-.45.58-.92.56-1.18-.03-2.37,0-3.55,0-.13,0-.27-.02-.39-.09.43-.43.85-.86,1.29-1.28.04-.04.13-.04.2-.03.77,0,1.54,0,2.31,0h1.94c-.26.31-.56.59-.89.83Z"></path><path class="cls-1" d="m65.11,40.62c-.41-.17-.82-.33-1.22-.53-.08-.04-.22-.1-.15-.23.05-.1.16-.22.28-.18.21.08.5.13.55.38s.21.27.42.27c.65-.02.65-.01.65-.65q0-.79-.8-.75c-.09,0-.19-.03-.24.1-.04.09-.11.08-.17.03-.31-.25-.68-.23-1.04-.22-.67.02-1.29.82-1.05,1.41.18.45.48.69.96.89-.08.02-.16.03-.23.04-.77.02-.78.02-.77.77s-.13.61.65.62c.1,0,.21.03.28-.09s.18-.1.28-.03c.46.3.94.29,1.43.13.44-.14.79-.5.81-.88.02-.48-.15-.87-.63-1.07Zm-.89.95c-.03.16-.18.16-.32.15-.09,0-.19-.02-.27-.07-.18-.09-.39-.18-.31-.4.1-.25.28.02.42.01.07,0,.15.07.23.08.15,0,.27.08.25.23Z"></path><path class="cls-1" d="m15.65,40.74c-.23-.2-.54-.21-.77-.39.27,0,.54-.02.8-.01.18,0,.26-.06.25-.25-.01-.31,0-.62,0-.92,0-.08.03-.21-.07-.22-.28-.03-.6-.11-.83.04-.15.1-.23.09-.32.03-.33-.24-.72-.18-1.1-.17s-.85.4-.93.72c-.14.5,0,1.05.37,1.28.3.2.64.34,1,.42.2.01.39.11.52.26,0,.01-.06.1-.1.13-.2.15-.4.06-.59-.03-.13-.04-.22-.15-.25-.28-.02-.17-.11-.17-.24-.18-.8-.04-.8-.04-.8.75v.46c0,.08.01.2.12.17.31-.07.67.21.92-.17.05-.07.1-.02.14.02.35.3.77.27,1.18.24.46-.03.89-.21,1.03-.67s.13-.85-.32-1.24Zm-.78-.39h0c-.21-.04-.42-.1-.62-.19-.12-.03-.19-.15-.17-.27.04-.13.16-.21.29-.19.38.01.56.25.5.64h0Z"></path><path class="cls-1" d="m77.42,40.1c-.33-1.24-1.37-1.43-2.39-1.21-1.31.29-1.58,1.96-1.03,2.96.45.83,1.44.92,2.24.75.34-.05.65-.23.85-.5.28-.39.41-.86.37-1.33,0-.22,0-.45-.04-.67Zm-1.55,1.53c-.11.14-.31.17-.45.06-.04-.03-.08-.07-.1-.12-.16-.23-.23-.51-.19-.79,0-.38,0-.7.26-.96.2-.2.35-.13.48.06.29.43.32,1.31,0,1.75h0Z"></path><path class="cls-1" d="m22.14,41.84c-.27-.05-.28-.23-.33-.39-.24-.75-.45-1.52-.68-2.27-.03-.17-.19-.28-.35-.26-.5.02-1,.02-1.5,0-.24,0-.28.09-.3.31-.02.26.15.49.08.73-.17.57-.36,1.13-.53,1.7-.01.09-.09.17-.19.17-.37.06-.14.35-.19.54s.09.21.24.21h1.07c.12,0,.35.1.33-.12s.21-.5-.15-.63c-.07-.01-.11-.08-.1-.15,0,0,0-.01,0-.02.02-.09.09-.1.17-.1h.64c.1,0,.2,0,.2.14s-.11.12-.2.14-.21-.04-.25.12c-.12.45,0,.62.46.62h1.47c.14,0,.25-.04.22-.2s.14-.48-.12-.53Zm-1.89-.97c-.12.05-.26.04-.38-.01-.11-.06-.08-.23-.02-.32.09-.15.04-.36.23-.47.05.18.17.33.14.53-.01.09.18.2.03.27Z"></path><path class="cls-1" d="m32.66,38.94c-.62-.06-1.25-.01-1.88-.01-.09,0-.22-.02-.23.11-.02.18-.02.35,0,.53.02.15.17.1.26.12.13.04.1.15.1.24v1.63c0,.14,0,.24-.19.27-.34.06-.13.33-.17.52-.05.21.12.22.27.22h.89c.3,0,.59.02.89,0,.4-.04.77-.2,1.07-.46.5-.42.5-.97.5-1.54,0-.85-.66-1.55-1.51-1.62Zm-.03,2.69c-.12.16-.32.23-.51.17-.19-.07-.09-.25-.09-.38-.02-.24,0-.47,0-.71h0c0-.21-.01-.43,0-.64,0-.13-.08-.31.09-.38.19-.06.39,0,.5.17.37.46.36,1.34.02,1.77h0Z"></path><path class="cls-1" d="m82.24,39.08c-.46-.27-.95-.08-1.33-.15h-1c-.1,0-.28-.07-.3.1-.02.21-.11.54.05.6.31.12.21.33.22.51.01.46,0,.93,0,1.39,0,.12.01.22-.16.3-.26.12-.09.4-.1.6s.17.12.27.12c.37,0,.74.01,1.1,0,.14,0,.4.09.37-.18-.02-.2.21-.54-.23-.57-.12,0-.11-.09-.12-.18-.07-.52-.03-.57.5-.56h.32c.38-.02.91-.42.94-.75.04-.56-.05-.96-.53-1.24Zm-.69,1.2c-.12.15-.31.22-.5.19-.15-.03-.04-.25-.08-.38.07-.12-.11-.33.15-.4.17-.06.36.01.46.17.09.13.08.31-.03.43Z"></path><path class="cls-1" d="m28.72.87c.06,0,.12-.02.17-.06.07-.06.13-.14.18-.22.04-.06.08-.09.13-.09.04,0,.07.03.08.06.02.07.03.14.02.21,0,.14,0,.31-.01.5s-.02.33-.03.41c0,.07-.02.13-.04.2-.02.03-.05.06-.09.07-.04.01-.08.02-.12.04-.04.02-.06.06-.06.11,0,.08.06.14.17.18.2.05.4.07.6.07.17,0,.33-.01.49-.06.11-.04.16-.1.16-.17,0-.04-.01-.08-.04-.11-.04-.03-.08-.05-.12-.07-.05-.02-.09-.05-.11-.1-.02-.07-.03-.13-.03-.2v-.91c0-.06,0-.11.03-.17.02-.03.05-.05.09-.05.03,0,.06.01.08.03.03.04.06.08.09.13.03.06.07.12.13.17.04.03.1.05.15.05.06,0,.11-.02.16-.05.06-.05.09-.13.09-.21,0-.14-.05-.28-.13-.4-.08-.13-.17-.2-.26-.2-.03,0-.06,0-.09.01-.08.02-.17.03-.25.04h-.99l-.15-.03c-.13-.04-.27.03-.32.16-.05.07-.09.14-.12.22-.03.07-.04.15-.05.22,0,.06.02.12.06.17.04.04.09.06.15.06Z"></path><path class="cls-1" d="m32.69.37s.08.07.1.12c.02.1.03.21.02.31v.83c0,.08-.01.15-.04.22-.02.05-.05.09-.1.11-.03.02-.06.04-.08.07-.01.02-.02.04-.02.06,0,.15.2.23.6.23.16,0,.31,0,.46-.05.09-.03.14-.08.14-.15,0-.06-.04-.12-.1-.14-.02-.01-.04-.03-.06-.04-.01-.01-.02-.03-.03-.05-.02-.11-.03-.22-.03-.32,0-.06,0-.11.02-.17.01-.03.04-.04.08-.04.06,0,.12.02.17.07.05.06.08.14.1.22.03.12.06.24.1.36.02.07.06.13.11.19.12.12.29.18.46.17.13,0,.26-.02.38-.06.04-.02.07-.05.1-.08.02-.03.04-.07.04-.1,0-.03,0-.05-.02-.07-.01-.02-.03-.03-.05-.04-.1,0-.17-.09-.17-.19,0,0,0,0,0-.01-.01-.13-.05-.27-.12-.39-.06-.09-.15-.15-.25-.19-.05-.02-.08-.05-.08-.08s.02-.05.05-.06c.08-.04.14-.11.18-.19.05-.08.07-.18.07-.27,0-.17-.07-.32-.21-.42-.17-.12-.37-.18-.58-.17-.04,0-.12,0-.22.01-.17.01-.29.02-.39.02-.04,0-.09,0-.13,0-.14-.01-.23-.02-.27-.02-.06,0-.13,0-.19.02-.05.01-.09.03-.13.07-.03.03-.05.06-.05.11,0,.03,0,.05.03.08.03.03.06.04.1.06Zm.86.53l.02-.38s0-.07.03-.11c.02-.02.06-.03.09-.03.15,0,.22.11.22.32,0,.08-.02.17-.07.24-.06.05-.13.08-.21.07-.02,0-.05,0-.07-.02-.01-.02-.02-.05-.02-.08v-.02Z"></path><path class="cls-1" d="m36.91,2.28c.13.03.26.04.39.04.31,0,.47-.07.47-.2,0-.06-.04-.11-.1-.12-.03,0-.06-.02-.09-.04-.01,0-.01-.02-.01-.05,0-.03,0-.06.02-.08,0-.02.03-.04.05-.06.08-.03.17-.03.26-.03.13,0,.27,0,.4.02.09.01.13.06.13.13,0,.04-.03.07-.08.09-.03,0-.07.03-.09.05-.02.02-.03.05-.03.08,0,.04.02.08.05.11.04.03.08.05.13.06.18.03.36.04.55.03.16,0,.32-.01.47-.05.1-.04.14-.09.14-.17s-.04-.11-.12-.12c-.03,0-.06-.02-.09-.04-.03-.04-.06-.08-.07-.12l-.31-.67c-.27-.57-.47-.91-.61-1.03-.09-.08-.2-.12-.32-.13-.11,0-.21.04-.29.12-.03.03-.06.07-.07.11-.01.06-.02.13-.02.2,0,.09-.02.18-.05.27-.05.14-.1.28-.17.42l-.23.5c-.04.1-.09.2-.16.29-.04.05-.1.09-.17.11-.03,0-.06.03-.09.05-.02.02-.03.05-.03.08,0,.08.04.14.12.16Zm.92-1.16c.03-.07.04-.11.05-.12.03-.07.06-.11.1-.11.02,0,.05.01.06.03.03.04.06.08.09.13.06.08.1.17.12.26,0,.03-.03.04-.09.04h-.32c-.05,0-.08-.01-.08-.04.01-.07.04-.13.07-.2h0Z"></path><path class="cls-1" d="m42.7,2.31c.14,0,.28-.02.42-.07.21-.07.4-.2.52-.39.06-.1.11-.21.15-.32.03-.12.05-.24.05-.37,0-.22-.04-.44-.15-.63-.11-.2-.28-.35-.49-.43-.19-.06-.39-.09-.59-.09h-.16c-.2.01-.37.02-.53.02h-.31c-.07,0-.15.01-.22.05-.05.02-.08.07-.08.13,0,.07.05.13.11.15.04.01.08.04.1.07.02.06.03.12.02.18,0,.23,0,.47-.01.7s-.02.4-.03.48c0,.05-.01.1-.04.14-.02.03-.05.05-.09.05-.04,0-.07.03-.1.05-.02.02-.03.06-.03.09,0,.05.02.1.07.13.05.04.11.05.18.05h.11c.09,0,.16-.01.23-.01h.83Zm-.37-.52V.52s0-.08.03-.11c.03-.02.07-.03.11-.03.17-.01.34.09.41.24.08.2.12.41.11.62,0,.48-.16.73-.48.73-.05,0-.11,0-.15-.04-.03-.04-.05-.09-.05-.15Z"></path><path class="cls-1" d="m45.73.34s.06.02.08.03c.02.01.03.03.04.05.07.26.1.53.08.8,0,.22-.01.45-.06.67,0,.03-.02.06-.04.09-.02.02-.04.04-.07.05-.03.01-.06.03-.09.05-.02.02-.02.04-.02.07,0,.04.02.08.05.1.04.03.08.04.13.04h1.38c.09,0,.19,0,.28.03.03,0,.06,0,.09.01.02,0,.04,0,.06-.02.02-.02.05-.05.06-.07.05-.08.09-.17.13-.26.03-.08.05-.16.05-.25,0-.05-.01-.11-.05-.15-.03-.04-.07-.06-.11-.06-.03,0-.07.01-.1.03-.04.04-.06.08-.08.13-.04.1-.11.18-.2.23-.12.05-.24.07-.37.06-.08,0-.15,0-.23-.02-.04,0-.07-.03-.08-.07-.01-.05-.02-.11-.02-.17,0-.08-.01-.15-.01-.2,0-.06,0-.11.03-.17.02-.03.06-.05.1-.05.11-.01.2.06.21.17,0,0,0,.01,0,.02,0,.04.01.08.03.12.02.02.05.03.08.03.06,0,.11-.03.13-.09.06-.13.09-.28.08-.42,0-.08,0-.17-.02-.25,0-.06-.03-.12-.06-.17-.02-.04-.07-.06-.11-.06-.03,0-.06.01-.08.03-.02.02-.04.04-.05.06-.01.04-.02.09-.02.13,0,.04-.02.07-.04.1-.03.02-.06.03-.1.03-.06,0-.11,0-.17-.03-.02-.02-.03-.06-.03-.12v-.31s.01-.07.03-.1c.03-.05.1-.07.23-.07.12,0,.24,0,.36.04.08.03.14.08.18.15.02.04.05.07.09.1.03.02.05.02.09.02.05,0,.09-.02.12-.06.03-.05.05-.11.05-.17,0-.13-.03-.26-.11-.36-.03-.05-.09-.09-.15-.09-.02,0-.04,0-.05.01-.07.02-.15.04-.23.04-.08,0-.2.01-.37.01h-.83c-.08,0-.17,0-.25.02-.03,0-.06.03-.08.06-.02.03-.03.06-.03.09,0,.05.03.1.08.12Z"></path><path class="cls-1" d="m52.43,2.01s-.07-.05-.11-.08c-.02-.03-.03-.07-.03-.11-.03-.24-.04-.49-.04-.73,0-.18,0-.37.04-.55,0-.07.04-.13.1-.17.03-.02.05-.04.07-.07.01-.02.02-.05.02-.08,0-.14-.16-.21-.46-.21-.13-.01-.25.01-.36.07-.07.06-.12.13-.16.22l-.06.11-.23.45s-.04.06-.06.09c-.02.02-.04.02-.06.03-.02,0-.04,0-.06-.02-.03-.04-.06-.08-.08-.13l-.33-.63s-.04-.08-.07-.11c-.02-.02-.04-.04-.07-.05-.1-.03-.2-.04-.3-.03-.07,0-.14,0-.2.02-.06,0-.13.02-.19.04-.04.01-.08.03-.12.07-.03.03-.04.07-.04.11,0,.06.04.11.12.14.03.01.05.03.07.04.01.01.03.03.03.05.03.12.05.24.04.36,0,.14,0,.31-.01.51s-.02.33-.03.43c0,.06-.01.11-.03.17-.02.03-.04.06-.07.07-.04.02-.07.04-.11.06-.01.02-.02.04-.02.07,0,.12.13.18.4.18.31,0,.47-.06.47-.18,0-.04-.02-.08-.05-.1-.04-.02-.07-.04-.1-.06-.01-.01-.02-.03-.03-.05-.01-.08-.02-.15-.02-.23,0-.11,0-.23.01-.36,0-.06.02-.09.06-.09s.06.03.09.1l.22.49c.03.06.06.14.11.22.02.05.05.1.08.14.02.02.04.03.07.03.03,0,.05-.02.07-.04.03-.05.06-.1.08-.15l.2-.44c.04-.09.08-.17.13-.25.03-.04.06-.06.09-.06.02,0,.05.02.05.04.01.05.02.11.01.17,0,.11,0,.22-.02.33,0,.05-.02.1-.06.13-.04.03-.07.06-.1.09-.01.02-.02.04-.02.07,0,.07.05.12.15.15.13.03.27.04.41.04h.27c.06,0,.11-.02.17-.04.1-.03.15-.09.15-.17,0-.04-.03-.08-.07-.1Z"></path><path class="cls-1" d="m54.32,2.28c.13.03.26.04.39.04.31,0,.47-.07.47-.2,0-.06-.04-.11-.1-.12-.03,0-.06-.02-.09-.04-.01-.01-.02-.03-.01-.05,0-.03,0-.06.02-.08,0-.02.02-.04.05-.06.08-.03.17-.03.26-.03.13,0,.27,0,.4.02.09.01.13.06.13.13,0,.04-.03.07-.08.09-.03,0-.07.03-.09.05-.02.02-.03.05-.03.08,0,.04.02.08.05.11.04.03.08.05.13.06.18.03.36.04.55.03.16,0,.32-.01.47-.05.1-.04.14-.09.14-.17s-.04-.11-.12-.12c-.03,0-.06-.02-.09-.04-.03-.04-.05-.08-.07-.12l-.31-.67c-.27-.57-.47-.91-.61-1.03-.09-.08-.2-.13-.32-.13-.11,0-.21.04-.29.12-.03.03-.06.07-.07.11-.01.06-.02.13-.02.2,0,.09-.02.18-.05.27-.05.14-.1.28-.17.42l-.23.5c-.04.1-.09.2-.16.29-.04.05-.1.09-.17.11-.03,0-.06.03-.09.05-.02.02-.03.05-.03.08,0,.07.04.14.11.16Zm.92-1.16l.05-.12c.03-.07.06-.11.1-.11.02,0,.05.01.06.03.03.04.06.08.09.13.06.08.1.17.12.26,0,.03-.03.04-.09.04h-.32c-.05,0-.08-.01-.08-.04.01-.07.04-.14.07-.2Z"></path><path class="cls-1" d="m58.81.37s.08.07.1.12c.02.1.03.21.02.31v.83c0,.08-.01.15-.04.22-.02.05-.05.09-.1.11-.03.02-.06.04-.08.07-.01.02-.02.04-.02.06,0,.15.2.23.6.23.16,0,.31,0,.46-.05.09-.03.14-.08.14-.15,0-.06-.04-.12-.1-.14-.02-.01-.04-.03-.06-.04-.01-.01-.02-.03-.03-.05-.02-.11-.03-.22-.03-.32,0-.06,0-.11.02-.17.02-.03.05-.04.08-.04.06,0,.12.02.17.07.05.06.08.14.1.22.03.12.06.24.1.36.02.07.06.13.11.19.12.12.29.18.46.17.13,0,.26-.02.38-.06.04-.02.07-.05.1-.08.02-.03.04-.07.04-.1,0-.03,0-.05-.02-.07-.01-.02-.03-.03-.05-.04-.05,0-.09-.03-.13-.06-.03-.04-.04-.09-.04-.14-.01-.13-.05-.27-.11-.39-.06-.09-.15-.15-.25-.19-.05-.02-.08-.05-.08-.08s.02-.05.05-.06c.08-.04.15-.1.2-.19.05-.08.07-.18.07-.27,0-.17-.07-.32-.21-.42-.17-.12-.37-.18-.58-.17-.04,0-.12,0-.22.01-.17.01-.29.02-.39.02-.04,0-.09,0-.13,0-.14-.01-.23-.02-.27-.02-.06,0-.13,0-.19.02-.05.01-.09.03-.13.07-.03.03-.05.06-.05.11,0,.03,0,.05.03.08.03.02.06.04.09.05Zm.86.53l.02-.38s0-.07.03-.11c.02-.02.06-.03.09-.03.15,0,.22.11.22.32,0,.08-.02.17-.07.24-.06.05-.13.08-.21.07-.03,0-.05,0-.08-.02-.01-.02-.02-.05-.02-.08v-.02Z"></path><path class="cls-1" d="m63.05.4s.06.04.08.07c.02.04.03.07.04.11.03.21.04.43.04.65,0,.19,0,.38-.03.57,0,.04-.02.08-.04.12-.02.03-.04.05-.06.07-.06.03-.1.08-.1.15,0,.04.01.07.04.1.02.03.06.05.1.06.15.03.29.04.44.04.16,0,.32,0,.48-.05.1-.03.15-.08.15-.16,0-.06-.04-.11-.09-.14l-.05-.04c-.05-.06-.07-.13-.06-.2,0-.12.03-.18.1-.18.03,0,.05.01.07.03.02.02.07.06.13.13.12.13.23.26.33.4.03.05.07.1.12.14.03.02.06.03.1.03h.62c.17,0,.25-.06.25-.17,0-.04-.01-.08-.04-.12-.03-.04-.08-.07-.12-.08-.03-.01-.06-.03-.09-.05-.04-.04-.08-.08-.11-.12l-.61-.71s-.06-.07-.08-.11c-.01-.02-.02-.05-.02-.08,0-.07.04-.13.1-.17l.18-.17s.07-.06.11-.09c.04-.01.09-.02.13-.02.05,0,.11,0,.16-.01.04-.01.07-.04.08-.07.02-.03.03-.06.03-.1,0-.09-.06-.16-.15-.17-.13-.03-.25-.04-.38-.04-.15,0-.3,0-.45.05-.08.02-.13.09-.13.17,0,.03,0,.05.02.08.02.03.03.06.03.09-.02.08-.07.15-.12.21-.04.06-.09.11-.14.17-.02.02-.04.03-.07.03-.04,0-.06-.05-.06-.14,0-.06,0-.11.02-.17,0-.04.02-.08.05-.11.03-.02.06-.05.09-.08.01-.02.02-.05.02-.08,0-.07-.04-.14-.11-.17-.12-.04-.25-.05-.38-.05-.14,0-.28,0-.42.03-.07,0-.13.03-.18.07-.04.03-.06.08-.06.13,0,.06.04.12.1.15Z"></path><path class="cls-1" d="m25.37,1.99c.27,0,.49-.22.49-.49s-.22-.49-.49-.49c-.27,0-.49.22-.49.49,0,0,0,0,0,0,0,.27.22.49.49.49h0Z"></path><circle class="cls-1" cx="68.91" cy="1.4" r=".49"></circle><path class="cls-1" d="m98.57,7.7h0c.19-.03.34-.19.35-.38,0-.11-.05-.22-.15-.28-.16-.1-.35-.14-.54-.12-.16,0-.31,0-.46.03v1.47h.24v-.65h.23c.18-.02.35.11.37.29,0,0,0,0,0,0,.03.12.07.24.13.36h.25c-.06-.13-.11-.27-.15-.41-.03-.15-.13-.26-.27-.31Zm-.31-.08h-.25v-.54c.08-.01.16-.02.24-.02.26,0,.43.09.43.28s-.16.28-.42.28Z"></path><path class="cls-1" d="m98.31,6.09c-.93,0-1.69.76-1.69,1.69s.76,1.69,1.69,1.69c.93,0,1.69-.76,1.69-1.69,0-.93-.76-1.69-1.69-1.69Zm0,3.17c-.82,0-1.48-.66-1.48-1.48,0-.82.66-1.48,1.48-1.48.82,0,1.48.66,1.48,1.48,0,.82-.66,1.48-1.48,1.49,0,0,0,0,0,0h0Z"></path></svg> 