<?xml version="1.0" encoding="UTF-8"?> <svg xmlns="http://www.w3.org/2000/svg" id="Layer_1" width="600" height="400" viewBox="0 0 600 400"><defs><style>.cls-1{fill:#fff;}</style></defs><path class="cls-1" d="m239.63,164.23c-8.36,1.16-13.83,4.71-19.73,12.79-.73,1.02-1.33,1.88-1.33,1.93,0,.1,5.42,4.06,5.66,4.13.09.03.85-.85,1.69-1.92,5.09-6.56,10-9.6,16.09-9.96,4.77-.29,8.58,1.05,11.6,4.07,1.67,1.67,2.4,2.81,3.18,4.95.52,1.47.54,1.61.54,4.45,0,2.56-.05,3.11-.4,4.3-1.21,4.16-3.99,8.06-9.81,13.74-1.52,1.47-8.87,8.06-16.35,14.66l-13.59,12v6.15h49.2v-7.25h-18.56c-10.2,0-18.56-.05-18.54-.14,0-.07,5.06-4.59,11.24-10.05,16.76-14.8,20.27-18.46,22.93-23.91,3.25-6.65,2.95-15.07-.74-20.75-2.92-4.51-7.25-7.42-13.05-8.8-1.57-.36-2.31-.43-5.37-.48-1.95-.03-4.04,0-4.66.09Z"></path><path class="cls-1" d="m585.48,165.11c-2.87.41-5.66,2.04-7.06,4.09-1.02,1.5-1.43,2.93-1.43,5.04,0,4.11,1.71,6.34,6.25,8.13.48.19,2.37.73,4.18,1.21,5.68,1.48,7.01,2.38,7.01,4.82,0,2.28-1.45,3.59-4.37,3.97-3.35.41-6.84-.71-10.32-3.37l-.79-.59-1.66,1.97-1.67,1.97.97.76c6.97,5.52,17.78,5.68,21.75.28,2.28-3.11,2.23-8.1-.1-10.76-.33-.36-1.04-.95-1.59-1.33-1.67-1.14-3.09-1.69-7.46-2.85-5.37-1.43-6.66-2.35-6.66-4.73,0-1.26.26-1.83,1.24-2.66.93-.81,2.09-1.14,3.94-1.14,2.5,0,4.95.83,7.54,2.54.5.35.95.59.97.55.03-.03.62-.88,1.33-1.88.69-1,1.33-1.9,1.42-2.02.38-.48-3.49-2.69-5.92-3.38-2.5-.74-5.2-.95-7.54-.62Z"></path><path class="cls-1" d="m205.97,170.44v5.18h3.68l-.09,1.45c-.19,2.83-1.61,4.7-4.75,6.25l-1.71.85.59,1.67.59,1.66,1.19-.33c5.09-1.42,7.79-3.9,8.99-8.36.35-1.28.38-1.88.45-7.48l.07-6.08h-9.01v5.18Z"></path><path class="cls-1" d="m287.49,189.28l-19.73,24.02,1,2.83,1,2.83h36.69v16.57h7.6v-16.57h10.88v-6.56h-10.88v-47.13h-6.84l-19.72,24.02Zm18.9,23.07s-6.6.03-14.59.02l-14.54-.05,14.55-17.85,14.54-17.85.05,17.83c.02,9.81.02,17.87-.02,17.9Z"></path><path class="cls-1" d="m466.2,180.75c-3.73,8.53-6.82,15.64-6.89,15.8-.1.29.1.31,2.71.31h2.83l1.57-3.76,1.59-3.75h14.97l1.55,3.75,1.55,3.75,2.92.02c2.69,0,2.9-.02,2.8-.31-.07-.16-3.16-7.27-6.87-15.8l-6.77-15.49h-5.2l-6.77,15.49Zm12-2.68c1.45,3.35,2.62,6.15,2.62,6.22,0,.09-2.42.14-5.37.14-4.54,0-5.35-.03-5.28-.24.54-1.38,5.23-12.19,5.3-12.19.05,0,1.28,2.75,2.73,6.08Z"></path><path class="cls-1" d="m353.06,181.15v15.71h5.52v-10.88h6.99l3.8,5.44,3.8,5.42h3.25c1.78.02,3.23-.02,3.23-.07,0-.03-1.86-2.68-4.14-5.87s-4.14-5.82-4.14-5.87c0-.03.29-.16.66-.26,2.23-.73,4.64-2.64,5.61-4.44.69-1.28,1.16-3.31,1.16-4.95-.02-5.25-3.33-8.87-8.98-9.77-.64-.09-4.45-.17-8.93-.17h-7.82v15.71Zm15.62-10.51c2.88.54,4.44,2.28,4.45,5.01.02,2.24-1,3.8-3.16,4.8-.95.45-.97.45-6.16.5l-5.23.05v-10.55h4.54c2.54,0,4.99.09,5.56.19Z"></path><path class="cls-1" d="m392.6,181.15v15.71h23.65v-4.83h-18.13v-8.46l7.91-.03,7.89-.05.05-2.47.05-2.45h-15.9v-8.11h17.78v-5.01h-23.31v15.71Z"></path><path class="cls-1" d="m427.47,168.03v2.59h10.01v26.24h5.52v-26.24h10.01v-5.18h-25.55v2.59Z"></path><path class="cls-1" d="m504.64,181.15v15.71h5.52v-31.42h-5.52v15.71Z"></path><path class="cls-1" d="m525.71,181.15v15.71h22.1v-5.01h-16.57v-26.41h-5.52v15.71Z"></path><path class="cls-1" d="m557.85,168.49l.05,3.07,1.17.05c1.12.05,1.16.07,1.16.52,0,1.5-1.1,2.85-2.78,3.4-.52.17-.95.33-.98.35s.07.55.22,1.16l.29,1.12,1.05-.17c1.61-.24,2.76-.74,3.75-1.62,1.69-1.52,2.07-2.88,2.07-7.61v-3.31h-6.04l.03,3.06Z"></path><path class="cls-1" d="m.12,165.9c-.07.05-.12,15.75-.12,34.87v34.75h19.34l.03-18.94.05-18.96,10.86,18.96,10.88,18.94h20.3v-69.75h-19.16l-.03,18.39-.05,18.39-5.09-8.58c-2.8-4.73-7.7-12.98-10.91-18.35l-5.82-9.75-10.08-.05c-5.54-.02-10.13.02-10.19.09Z"></path><path class="cls-1" d="m70.09,200.66v34.87h19.16v-53.71l8.6.07c6.2.05,8.82.14,9.44.29,2.19.55,3.59,1.52,4.37,3,.4.78.45,1.09.47,2.52,0,1.55-.03,1.71-.64,2.93-1.43,2.87-4.35,6.16-11.72,13.29-2.8,2.69-5.06,4.99-5.02,5.08.03.1,3.83,6.11,8.46,13.35l8.39,13.17h10.67c5.87,0,10.67-.03,10.67-.09,0-.03-3.54-5.68-7.87-12.52l-7.87-12.45,2.23-2.12c6.53-6.27,9.79-11.29,11.03-17.02.45-2.04.45-6.75.02-8.77-.88-4.02-2.4-6.94-5.09-9.74-3.73-3.88-9.01-6.18-15.73-6.87-1.12-.1-8.75-.17-20.67-.17h-18.89v34.87Z"></path><path class="cls-1" d="m137.43,200.66v34.87h19.16v-23.13h26.59v-16.06l-13.24-.03-13.26-.05-.05-7.13-.03-7.11h34.18v-16.23h-53.35v34.87Z"></path><path class="cls-1" d="m413.14,203.68c-6.18,1.24-10.89,5.85-12.47,12.17-.45,1.74-.52,5.49-.17,7.16,1.36,6.32,5.18,10.53,11.17,12.28,2.28.67,6.15.78,8.72.24,3.16-.64,6.09-1.97,8.36-3.73l.97-.76v-13.29l-6.68.03-6.7.05-.05,2.37-.05,2.38h8.13v5.97l-.9.54c-2.62,1.57-6.27,2.18-9.31,1.54-3.78-.81-7.01-4.16-7.84-8.13-1.54-7.37,3.26-14.05,10.13-14.07,2.61,0,5.01.78,7.25,2.33,1.16.83,1.42.95,1.61.76.12-.14.9-1.05,1.73-2.05l1.5-1.81-.71-.6c-1.73-1.48-4.42-2.75-7.04-3.26-2.05-.43-5.84-.47-7.65-.1Z"></path><path class="cls-1" d="m460.02,203.57c-4.42.73-7.49,3.26-8.39,6.92-.55,2.28-.07,5.3,1.12,6.99,1.5,2.09,3.59,3.12,9.51,4.68,5.32,1.4,6.65,2.35,6.65,4.75,0,2.59-1.97,3.95-5.68,3.95-3.14,0-5.66-.88-8.43-2.97l-1.35-1.02-.66.74c-.36.41-1.1,1.29-1.67,1.97l-1.04,1.24.74.59c3.68,2.99,8.65,4.64,13.16,4.39,5.39-.29,8.98-2.73,10.19-6.91.22-.79.28-1.47.22-2.97-.07-1.81-.12-2.02-.71-3.23-1.38-2.78-3.59-4.06-10.01-5.75-5.3-1.4-6.7-2.38-6.73-4.73-.02-2.42,1.86-3.8,5.21-3.8,2.49,0,5.01.83,7.35,2.42.38.24.78.52.9.57.12.09.6-.45,1.28-1.38.6-.85,1.28-1.76,1.5-2.07l.4-.55-.83-.62c-1.4-1.04-4.14-2.31-6.01-2.78-1.88-.47-5.2-.67-6.73-.43Z"></path><path class="cls-1" d="m528.44,203.75c-1.62.36-3.75,1.21-5.27,2.12-1.28.76-3.5,2.87-4.47,4.21-3.11,4.33-3.85,10.29-1.95,15.49,1.73,4.77,5.42,8.15,10.6,9.72,1.45.45,1.76.48,4.75.48s3.3-.03,4.75-.48c5.94-1.81,9.88-5.97,11.33-11.96.48-1.95.52-5.2.09-7.22-1.07-4.95-4.23-8.96-8.75-11.14-2.3-1.09-3.78-1.42-6.89-1.48-2.16-.05-2.97,0-4.18.26Zm7.11,5.27c5.14,1.78,8.1,7.29,7.01,13.05-.79,4.26-4.06,7.68-8.13,8.55-2.4.5-4.75.21-6.99-.88-.98-.48-1.64-.98-2.68-2.04-2.26-2.28-3.23-4.71-3.25-8.13,0-2.11.33-3.47,1.28-5.42,1.33-2.71,3.99-4.8,6.89-5.46,1.69-.38,4.25-.24,5.87.33Z"></path><path class="cls-1" d="m573.22,204.14c-.09.22-1.81,5.47-3.85,11.65-2.04,6.2-3.73,11.27-3.78,11.27s-1.76-5.2-3.8-11.57l-3.71-11.57h-3c-2.78,0-2.99.02-2.87.29.05.17,2.45,7.06,5.3,15.33,2.85,8.25,5.28,15.28,5.42,15.57l.22.57h4.64l1.74-5.14c.97-2.81,2.71-7.91,3.87-11.29,1.16-3.38,2.14-6.11,2.19-6.06.05.03,1.81,5.11,3.9,11.24l3.83,11.17h4.75l4.71-13.64c2.59-7.51,5.08-14.62,5.49-15.85l.78-2.19h-5.8l-3.68,11.43c-2.02,6.3-3.71,11.5-3.78,11.58-.07.07-1.85-5.13-3.97-11.53l-3.85-11.65h-2.31c-2.24,0-2.33.02-2.45.38Z"></path><path class="cls-1" d="m353.06,219.65v15.73l8.94-.05c8.55-.07,8.98-.09,10.27-.45,3.04-.85,5.23-2.45,6.23-4.58.95-2.02,1-4.85.12-6.91-.66-1.54-2.38-3.04-4.45-3.92l-1.1-.47.76-.47c2.64-1.54,4.09-4.68,3.59-7.79-.52-3.19-2.64-5.35-6.32-6.42-.92-.26-2.07-.31-9.53-.36l-8.51-.05v15.73Zm16.21-10.48c1.83.71,2.68,1.9,2.68,3.76,0,1.42-.55,2.47-1.71,3.23-1.33.88-2.11.98-7.16.98h-4.58l-.05-4.2-.03-4.21,5.04.07c4.25.07,5.18.12,5.82.36Zm1.57,13.16c1.26.45,2.49,1.62,2.76,2.68.43,1.61-.16,3.4-1.42,4.32-1.4,1.02-1.92,1.09-8.11,1.17l-5.66.05v-8.67l5.75.05c5.14.05,5.84.1,6.68.4Z"></path><path class="cls-1" d="m386.73,219.65v15.71h5.52v-31.42h-5.52v15.71Z"></path><path class="cls-1" d="m481.86,219.65v15.71h5.7v-13.29l7.48.03,7.46.05.05,6.6.03,6.61h5.52v-31.42h-5.52l-.03,6.51-.05,6.53-7.46.05-7.48.03v-13.12h-5.7v15.71Z"></path><path class="cls-1" d="m162.3,227.26c-2.66.5-4.09,3.52-2.85,5.99,1.23,2.47,4.56,3.04,6.53,1.12.85-.83,1.14-1.43,1.26-2.57.29-2.87-2.09-5.08-4.94-4.54Zm1.93.52c.81.22,1.88,1.16,2.28,1.99.47,1,.31,2.78-.35,3.71-1.48,2.11-4.63,2.07-6.08-.09-.5-.73-.57-.98-.57-1.95,0-2.66,2.19-4.37,4.71-3.66Z"></path><path class="cls-1" d="m161.42,231.2v2.26h.52c.48,0,.52-.03.52-.69,0-.6.05-.69.4-.69.26,0,.52.21.81.69.36.59.52.69,1.02.69h.57l-.29-.48c-.17-.26-.41-.6-.54-.79-.19-.28-.16-.36.24-.71.57-.5.6-1.5.05-2.05-.31-.29-.62-.38-1.83-.43l-1.47-.05v2.26Zm2.56-1.16c.55.55.02,1.17-.98,1.17-.5,0-.54-.03-.54-.69q0-.69.66-.69c.36,0,.74.09.86.21Z"></path></svg> 