<?xml version="1.0" encoding="UTF-8"?> <svg xmlns="http://www.w3.org/2000/svg" id="Layer_1" width="100" height="100" viewBox="0 0 100 100"><defs><style>.cls-1{fill:#fff;}</style></defs><path class="cls-1" d="m21.79,28.2c-.52.67-1.47.79-2.14.28l-2.75-2.13c-.16-.12-.3-.27-.4-.45-.1-.18-.17-.37-.2-.57-.12-.84.47-1.61,1.3-1.72.21-.03.42-.01.63.04.19.06.38.15.54.28l.58.45-.62.79-.59-.46c-.24-.19-.59-.15-.77.09,0,0,0,0,0,0-.05.06-.08.12-.1.19-.01.07-.01.14,0,.22,0,.07.03.14.07.21.04.06.08.12.14.16l2.76,2.14c.06.04.12.08.19.1.07.02.14.03.22.02.07,0,.14-.03.2-.07.06-.04.12-.08.16-.14.04-.06.08-.12.1-.19.02-.07.03-.14.02-.22-.01-.15-.09-.28-.21-.37l-1-.77-.33.42-.77-.59.94-1.22,1.77,1.37c.16.12.29.27.39.45.1.17.16.36.19.56.03.2.01.4-.04.59-.05.19-.14.37-.27.53h0Z"></path><path class="cls-1" d="m23.94,23.44l.85,1.22-.73.69-3.63-5.37.96-.92,5.19,3.88-.73.7-1.18-.91-.73.7Zm-2.02-2.85l1.48,2.07.52-.5-2-1.57Z"></path><path class="cls-1" d="m29.8,18.57c.25.32.38.72.38,1.13,0,.27-.11.54-.28.75-.11.14-.25.26-.4.37-.27.2-.59.32-.93.32-.27-.01-.52-.09-.75-.23-.27-.16-.5-.37-.69-.62l.71-.59c.18.24.43.41.71.5.15.04.31,0,.43-.08.08-.06.15-.15.19-.25.04-.1.06-.2.05-.3-.02-.15-.07-.29-.17-.4-.18-.24-.45-.39-.75-.44l-1.17-.17c-.36-.05-.7-.14-1.03-.29-.28-.14-.52-.36-.69-.61-.32-.4-.43-.93-.28-1.42.11-.3.31-.56.58-.74.25-.19.54-.3.85-.32.23-.01.46.04.66.14.23.12.44.28.6.48l-.67.67c-.14-.18-.32-.31-.54-.37-.07-.02-.14-.02-.21,0-.07.02-.14.05-.19.09-.07.04-.12.11-.16.18-.04.08-.05.16-.04.25.02.16.08.32.18.45.21.26.5.44.82.5.19.05.39.07.59.09.29.03.49.05.59.06.3.04.58.13.86.25.1.05.2.1.3.16.18.12.34.26.47.44Z"></path><path class="cls-1" d="m31,13.48l-.91.47-.44-.87,2.68-1.36.44.87-.91.46,2.45,4.83-.86.44-2.45-4.83Z"></path><path class="cls-1" d="m36.71,10.01c.41-.18.87-.16,1.26.05.32.22.56.54.66.92l.29.88c.07.21.1.42.08.64-.02.22-.09.42-.2.61l1.56,2.42-.99.33-1.31-2.1-.08.03-.53.18.75,2.28-.92.3-2-6.06,1.44-.48Zm1.03,1.28c-.01-.07-.04-.15-.09-.21-.04-.06-.1-.11-.17-.15-.07-.03-.14-.05-.22-.06-.08,0-.15.02-.22.05l-.55.18.64,1.94.55-.18c.07-.02.13-.06.19-.11.11-.1.18-.23.19-.38,0-.07,0-.15-.03-.22l-.29-.89Z"></path><path class="cls-1" d="m42.79,8.38c.83-.15,1.62.41,1.77,1.24,0,0,0,0,0,0l.6,3.44c.04.2.04.41,0,.61-.05.2-.13.39-.25.56-.11.16-.25.3-.42.41-.35.22-.77.3-1.17.21-.4-.09-.75-.34-.96-.69-.1-.17-.18-.37-.21-.57l-.6-3.44c-.15-.83.41-1.62,1.24-1.77h0Zm.78,1.4c-.01-.07-.04-.14-.08-.2-.04-.06-.09-.12-.15-.16-.06-.04-.13-.07-.2-.09-.07-.02-.14-.02-.22,0-.07.01-.14.04-.2.08-.06.04-.11.09-.16.15-.04.06-.07.13-.09.2-.01.07-.01.14,0,.22l.61,3.45c.01.07.04.14.08.2.04.06.09.11.15.15.06.04.13.07.2.09.07.02.15.02.22,0,.14-.02.27-.11.36-.23.04-.06.07-.13.09-.2.01-.07.01-.14,0-.22l-.6-3.45Z"></path><path class="cls-1" d="m50.27,10.52l-2.86.09.03.97,2.85-.09-.03-.97Z"></path><path class="cls-1" d="m54.31,8.04l.77,4.42.5-4.25.96.11-.74,6.35-1.03-.12-.84-4.22-.47,4.07-.96-.13.75-6.35,1.06.12Z"></path><path class="cls-1" d="m61.11,9.23c.19.05.38.13.54.25.32.24.54.6.6,1,.03.2.02.4-.04.6l-.87,3.39c-.05.2-.13.38-.25.55-.12.16-.27.3-.44.41-.17.1-.37.17-.57.2-.2.03-.4.02-.6-.03-.2-.05-.38-.13-.54-.25-.16-.12-.3-.28-.4-.45-.21-.35-.26-.77-.16-1.17l.88-3.38c.21-.82,1.04-1.31,1.86-1.1h0Zm.13,1.59c.02-.07.02-.14.01-.22-.01-.07-.03-.14-.07-.2-.04-.06-.08-.12-.14-.16-.06-.04-.12-.08-.2-.09-.07-.02-.14-.03-.22-.02-.07.01-.14.03-.2.07-.06.03-.12.08-.17.14-.04.06-.07.12-.09.2l-.87,3.39c-.04.14-.02.29.06.42.08.12.2.21.34.25.07.01.14.01.22,0,.07-.01.14-.04.2-.07.06-.04.12-.08.16-.14.04-.06.07-.12.09-.19l.87-3.37Z"></path><path class="cls-1" d="m64.03,17.05l-.87-.41,2.7-5.8,1.25.58-1.12,4.54,2.72-3.8,1.21.56-2.7,5.8-.87-.41,1.69-3.65-2.45,3.29-.7-.33.84-4.03-1.69,3.64Z"></path><path class="cls-1" d="m70.97,19.18l-1.03,1.07-.82-.58,4.55-4.61,1.09.75-2.78,5.86-.83-.58.66-1.33-.83-.58Zm2.39-2.54l-1.73,1.86.59.41,1.15-2.27Z"></path><path class="cls-1" d="m76.95,24.1c-.28.3-.66.47-1.07.47-.2,0-.4-.03-.58-.1-.19-.07-.36-.18-.5-.32l-1.09-1.05,4.42-4.61,1.09,1.05c.15.14.26.3.35.49.15.37.16.79.02,1.17-.07.19-.18.36-.32.5l-2.31,2.4Zm-1.89-1.01l.42.4c.05.05.11.09.18.12.07.03.14.04.21.03.07,0,.14-.02.21-.05.07-.03.13-.07.18-.13l2.31-2.41c.05-.05.09-.11.12-.18.03-.07.04-.14.04-.21,0-.07-.01-.14-.04-.21-.03-.07-.07-.13-.12-.18l-.42-.4-3.08,3.22Z"></path><path class="cls-1" d="m80.6,28.43c-.31.26-.71.41-1.12.42-.28,0-.54-.09-.77-.25-.14-.11-.27-.23-.38-.38-.22-.26-.34-.58-.35-.91,0-.27.06-.54.19-.77.15-.27.35-.52.59-.72l.61.69c-.23.19-.39.44-.46.73-.02.07-.02.15,0,.22.02.07.05.14.1.2.07.08.15.14.25.18.1.04.2.05.31.03.15-.02.28-.09.4-.18.23-.2.37-.47.41-.77.03-.25.07-.65.12-1.17.03-.36.12-.71.25-1.05.13-.28.33-.53.58-.72.38-.34.91-.47,1.41-.34.3.09.57.29.75.55.2.24.32.53.36.84.02.23-.02.46-.11.67-.11.24-.26.45-.46.62l-.7-.63c.17-.15.29-.34.35-.55.02-.07.02-.14,0-.21-.02-.07-.05-.13-.1-.19-.05-.07-.11-.12-.19-.15-.08-.03-.17-.04-.25-.03-.16.02-.31.09-.44.2-.25.22-.42.51-.48.84-.04.19-.06.39-.07.59,0,.2-.02.39-.04.59-.03.3-.11.59-.22.87-.04.1-.09.2-.15.3-.1.18-.23.35-.39.49Z"></path><path class="cls-1" d="m50,0C22.38,0,0,22.39,0,50c0,27.61,22.39,50,50,50,27.61,0,50-22.39,50-50,0-13.26-5.27-25.98-14.64-35.35C75.98,5.27,63.26,0,50,0Zm33.86,83.87c-18.66,18.61-48.88,18.56-67.49-.1-18.61-18.66-18.56-48.88.1-67.49,18.66-18.61,48.88-18.56,67.49.1,13.61,13.65,17.67,34.15,10.29,51.96-2.41,5.81-5.94,11.09-10.4,15.53Z"></path><path class="cls-1" d="m91.06,50c0,1.17-.95,2.11-2.12,2.1-1.17,0-2.11-.95-2.1-2.12,0-1.17.95-2.11,2.12-2.1.56,0,1.09.22,1.48.62.4.4.62.94.62,1.5Z"></path><path class="cls-1" d="m12.93,50c0,.85-.51,1.63-1.3,1.95-1.08.45-2.31-.07-2.76-1.14-.45-1.08.07-2.31,1.14-2.76,1.08-.45,2.31.07,2.76,1.14.11.25.16.53.16.8Z"></path><path class="cls-1" d="m22.8,38.52c6.35-15.02,23.68-22.05,38.7-15.7,7.08,2.99,12.71,8.62,15.7,15.7.09.2.26.36.46.44.44.17.93-.04,1.1-.48.08-.2.08-.42,0-.62-6.72-15.88-25.04-23.31-40.92-16.59-7.48,3.16-13.43,9.11-16.59,16.59-.04.1-.07.21-.07.32,0,.11.02.22.06.33.04.1.1.2.18.28.08.08.17.14.27.19.1.04.21.06.32.07.11,0,.22-.02.32-.06.21-.08.37-.25.46-.45h0Z"></path><path class="cls-1" d="m77.5,60.76c-5.94,15.19-23.07,22.68-38.26,16.74-7.7-3.01-13.78-9.11-16.77-16.82-.18-.43-.68-.63-1.1-.45-.41.17-.62.64-.47,1.06,6.24,16.07,24.32,24.05,40.4,17.81,8.15-3.16,14.6-9.59,17.78-17.73.05-.1.07-.21.07-.33,0-.11-.02-.23-.07-.33-.04-.1-.11-.2-.19-.28-.08-.08-.18-.14-.28-.18-.11-.04-.22-.06-.33-.06-.35,0-.66.23-.77.56h0Z"></path><path class="cls-1" d="m27.79,42.61c.54,0,1.07.09,1.58.25.5.16.96.41,1.36.75.41.34.73.77.96,1.25.25.57.38,1.19.36,1.81,0,.29-.03.59-.11.87-.07.25-.16.49-.27.72-.1.2-.22.4-.35.58-.13.17-.25.32-.35.45.2.17.4.34.58.53.21.22.4.46.57.72.18.28.31.58.42.89.11.34.16.69.16,1.05.02.63-.11,1.26-.38,1.84-.24.52-.6.97-1.04,1.33-.46.37-.99.64-1.55.8-.63.19-1.28.28-1.94.27h-8.92c-.17,0-.34-.03-.5-.1-.16-.07-.3-.16-.41-.28-.25-.23-.38-.56-.38-.9v-.18c.02-.7.58-1.26,1.28-1.27h1v-8.65h-1c-.71,0-1.28-.58-1.28-1.28v-.18c0-.34.15-.67.4-.9.12-.12.25-.22.41-.29.16-.07.33-.1.5-.1h8.91Zm0,5.59c.21.01.42-.02.62-.09.2-.07.38-.19.53-.34.27-.31.41-.71.39-1.11,0-.17-.02-.34-.09-.5-.06-.16-.16-.31-.29-.43-.33-.26-.75-.39-1.17-.35h-5.21v2.82h5.21Zm0,5.8c.57.04,1.15-.09,1.65-.37.36-.26.56-.69.53-1.14.01-.21-.03-.42-.11-.61-.08-.19-.21-.36-.36-.5-.51-.32-1.11-.46-1.7-.4h-5.21v3.03h5.21Z"></path><path class="cls-1" d="m45.59,56.02c-.21-.42-.4-.82-.59-1.2s-.38-.75-.56-1.1-.38-.73-.57-1.1-.39-.77-.59-1.2h-4.12v2.58h1.01c.17,0,.34.03.5.11.15.07.29.16.41.28.24.23.38.55.38.89v.18c0,.17-.03.34-.1.5-.06.15-.16.29-.28.41-.24.25-.56.38-.9.38h-4.74c-.34,0-.67-.13-.9-.38-.25-.23-.38-.56-.38-.9v-.17c.02-.7.58-1.26,1.28-1.28h1v-8.67h-1c-.34,0-.66-.14-.9-.38-.24-.24-.38-.56-.38-.9v-.18c0-.17.03-.33.1-.49.07-.15.16-.29.28-.41.12-.12.25-.22.41-.29.16-.07.33-.1.5-.1l9.09.02c.57,0,1.14.09,1.68.27.53.18,1.03.45,1.45.82.44.38.79.85,1.02,1.38.26.62.39,1.28.38,1.95.01.6-.08,1.19-.27,1.75-.16.45-.38.87-.67,1.25-.25.32-.56.59-.91.81-.3.18-.62.32-.95.41l1.33,2.75h1.12c.7.01,1.26.58,1.28,1.27v.18c0,.17-.03.33-.1.49-.2.48-.67.79-1.19.79h-1.9c-.25,0-.49-.07-.71-.2-.22-.12-.4-.3-.52-.51Zm-6.43-10.65v3.33h5.38c.49.03.97-.13,1.33-.45.16-.16.28-.35.36-.56.08-.21.11-.43.1-.66,0-.26-.05-.52-.16-.75-.1-.2-.24-.38-.42-.53-.17-.14-.37-.24-.58-.3-.21-.06-.43-.09-.65-.09h-5.38Z"></path><path class="cls-1" d="m64.95,52.62c0,.63-.16,1.26-.49,1.8-.34.55-.8,1.02-1.34,1.37-.62.4-1.3.7-2.01.89-.81.21-1.64.32-2.47.32-1,0-1.98-.18-2.91-.55-.89-.35-1.71-.87-2.41-1.53-.69-.65-1.25-1.44-1.64-2.3-.41-.9-.61-1.87-.61-2.86,0-.99.19-1.97.56-2.88.36-.87.88-1.67,1.54-2.34,1.37-1.39,3.25-2.17,5.21-2.15.71,0,1.42.09,2.1.27.61.16,1.21.38,1.78.65.07-.26.22-.49.43-.66.2-.17.46-.27.73-.26h.16c.16,0,.32.03.47.1.15.07.28.16.39.28.23.24.36.56.35.9v2.96c0,.34-.12.66-.35.9-.11.12-.24.22-.39.28-.15.07-.31.1-.47.1h-.16c-.16,0-.32-.03-.47-.1-.15-.07-.28-.16-.38-.28-.12-.12-.21-.26-.27-.42-.06-.16-.09-.33-.09-.5v-.29c-.19-.14-.38-.25-.58-.38-.27-.16-.56-.29-.85-.4-.36-.13-.72-.23-1.09-.31-.43-.09-.86-.13-1.29-.13-.57,0-1.14.1-1.67.3-1.13.4-2.04,1.25-2.52,2.35-.28.63-.41,1.31-.4,2,0,.59.11,1.17.34,1.71.22.55.55,1.04.98,1.45.45.43.98.77,1.55,1,.66.26,1.36.38,2.07.37.47,0,.94-.04,1.4-.15.38-.08.75-.21,1.1-.39.28-.14.52-.33.72-.56.17-.18.26-.42.26-.66v-1.08h-2.77c-.18,0-.36-.04-.52-.11-.16-.07-.31-.17-.44-.3-.13-.13-.23-.27-.3-.44-.26-.7.07-1.48.75-1.78.16-.07.34-.1.52-.11h5.82c.18,0,.36.04.52.11.51.21.85.7.85,1.25,0,.18-.04.36-.12.53-.08.16-.18.31-.31.44-.12.13-.27.23-.43.3-.16.07-.34.11-.52.11h-.33v1.18Z"></path><path class="cls-1" d="m78.74,56.02c-.21-.42-.4-.82-.59-1.2-.19-.38-.38-.74-.57-1.1-.19-.36-.38-.73-.57-1.1-.19-.37-.39-.77-.59-1.2h-4.12v2.58h1c.17,0,.34.03.5.11.15.07.29.16.41.28.24.23.38.55.38.89v.18c0,.17-.03.34-.1.5-.06.15-.16.29-.28.41-.24.25-.56.38-.9.38h-4.73c-.34,0-.67-.13-.9-.38-.12-.12-.22-.26-.28-.41-.07-.16-.1-.33-.1-.5v-.17c.02-.7.58-1.26,1.28-1.28h1v-8.66h-1c-.71,0-1.28-.57-1.28-1.28v-.18c0-.17.03-.33.1-.49.07-.15.16-.29.28-.41.12-.12.25-.22.41-.29.16-.07.33-.1.5-.1l9.09.02c.57,0,1.14.09,1.68.27.53.18,1.03.45,1.46.82.44.38.79.85,1.02,1.38.26.62.39,1.28.38,1.95.01.6-.08,1.19-.27,1.75-.16.45-.38.87-.67,1.25-.25.32-.56.59-.91.81-.3.18-.62.32-.95.41l1.33,2.75h1.12c.7.01,1.27.57,1.28,1.27v.18c0,.17-.03.33-.1.49-.14.31-.39.56-.7.69-.16.07-.33.1-.5.1h-1.89c-.25,0-.49-.07-.71-.2-.22-.12-.4-.3-.53-.51Zm-6.43-10.65v3.33h5.38c.24.02.48-.01.71-.09.23-.08.44-.2.63-.36.16-.16.28-.35.36-.56.08-.21.12-.43.11-.66,0-.26-.05-.52-.16-.75-.1-.2-.24-.38-.42-.53-.17-.14-.37-.24-.58-.3-.21-.06-.43-.09-.65-.09h-5.38Z"></path><path class="cls-1" d="m29.62,87.66l3.11-5.91,2.54,1.33-.47.9-1.64-.87-.85,1.61,1.2.63-.47.89-1.2-.63-.85,1.61,1.64.87-.47.9-2.53-1.34Z"></path><path class="cls-1" d="m38.52,89.75c-.13.41-.39.76-.75,1-.24.16-.53.23-.81.21-.19-.01-.37-.05-.55-.12-.33-.1-.62-.32-.82-.61-.15-.24-.25-.51-.26-.79-.02-.33.01-.65.11-.97l.93.25c-.1.29-.1.61,0,.9.03.07.07.14.13.2.06.06.12.1.2.12.1.03.21.04.32.02.11-.02.2-.07.29-.14.12-.1.21-.23.25-.38.1-.3.08-.62-.06-.9l-.56-1.1c-.17-.33-.3-.69-.37-1.06-.04-.32,0-.65.11-.96.08-.25.21-.48.39-.68.18-.19.41-.33.66-.42.32-.09.67-.07.98.05.31.1.58.29.79.54.15.19.24.42.28.65.04.27.02.54-.05.8l-.97-.16c.07-.22.07-.46,0-.68-.03-.07-.07-.13-.13-.18-.06-.05-.12-.09-.19-.11-.08-.03-.17-.04-.25-.02-.08.02-.16.05-.23.11-.13.11-.22.26-.28.42-.1.33-.08.68.06,1,.08.19.17.38.28.55.16.26.25.44.3.54.14.28.24.58.29.89.02.11.04.23.04.35.01.23-.02.46-.1.67Z"></path><path class="cls-1" d="m42.96,86.75l-1.05-.21.2-1,3.08.6-.2,1-1.05-.21-1.09,5.56-.99-.19,1.09-5.56Z"></path><path class="cls-1" d="m46.81,92.02l-.07,1,1,.07.07-1-1-.07Z"></path><path class="cls-1" d="m52.72,88.3c-.09-.53.03-1.07.35-1.5.14-.17.31-.3.5-.4.19-.1.4-.16.61-.17.43-.05.86.08,1.18.37.33.27.54.67.59,1.1.05.45,0,.91-.16,1.34-.18.44-.39.87-.64,1.29-.09.17-.23.43-.41.78l-.15.29c-.1.19-.17.34-.22.45-.02.03-.03.07-.03.1l1.96-.22.11.98-3.18.35-.1-.92c.05-.13.11-.26.18-.39l.19-.37.22-.4c.13-.23.33-.58.61-1.08.23-.4.42-.82.56-1.25.09-.26.12-.54.1-.82-.01-.19-.09-.37-.23-.5-.07-.07-.14-.11-.23-.14-.09-.03-.18-.04-.27-.03-.14.02-.27.08-.37.18-.1.1-.16.23-.18.37-.03.13-.04.26-.02.39l.03.25-.98.11-.02-.15Z"></path><path class="cls-1" d="m62.22,89.88c.22.85-.29,1.72-1.14,1.94-.85.22-1.72-.29-1.94-1.14h0l-.92-3.52c-.16-.63.06-1.29.58-1.68.17-.13.36-.22.56-.27.41-.11.85-.05,1.21.17.18.11.34.25.47.42.13.17.22.36.27.56l.92,3.52Zm-1.93-3.28c-.08-.31-.4-.5-.71-.42-.07.02-.14.05-.2.1-.06.05-.11.1-.15.17-.08.13-.1.29-.06.44l.92,3.53c.02.07.05.14.1.21.05.06.1.11.17.15.06.04.14.07.21.08.32.04.61-.18.66-.5.01-.07,0-.15-.01-.22l-.92-3.53Z"></path><path class="cls-1" d="m66.23,90.06l-1.91-4.77-.81.32-.26-.65c.22-.12.41-.3.54-.51.14-.21.22-.45.23-.7l.65-.26,2.49,6.2-.92.38Z"></path><path class="cls-1" d="m68.12,82.92l.7,1.25c.02-.18.09-.36.21-.5.07-.09.16-.16.27-.22.16-.1.34-.16.53-.18.19-.01.38.02.55.11.34.2.62.5.79.85l.7,1.25c.24.39.3.85.18,1.29-.05.21-.14.4-.27.57-.13.16-.29.3-.48.4-.18.11-.38.17-.58.19-.21.02-.41,0-.61-.08-.39-.13-.72-.4-.91-.77l-.08-.14.81-.54.13.19c.05.1.13.18.23.23.1.05.21.08.32.08.06,0,.12-.02.18-.05.08-.03.15-.08.21-.15.06-.06.1-.14.12-.23.02-.08.02-.17,0-.25-.02-.09-.06-.17-.11-.23l-.8-1.43c-.04-.08-.1-.15-.18-.21-.07-.05-.16-.09-.25-.11-.1-.02-.21,0-.29.06-.15.07-.24.22-.25.38,0,.13.03.27.1.39l.09.16-.88.5-1.77-3.19,2.57-1.44.5.88-1.7.94Z"></path></svg> 