<?xml version="1.0" encoding="UTF-8"?> <svg xmlns="http://www.w3.org/2000/svg" id="Layer_1" width="100" height="42.74" viewBox="0 0 100 42.74"><defs><style>.cls-1{fill:#3a357e;}</style></defs><path class="cls-1" d="m20.05,42.53h-3.74v-11.17h3.23c2.3,0,3.8,1.03,3.8,2.91,0,.84-.39,1.77-1.33,2.28v.05c1.68.59,1.93,2.02,1.93,2.66,0,2.34-1.8,3.28-3.9,3.28h.01Zm-.45-9.39h-1.33v2.75h1.46c.69,0,1.66-.17,1.66-1.39,0-1.1-.97-1.36-1.8-1.36h0Zm.32,4.47h-1.65v3.14h1.66c.83,0,2.04-.17,2.05-1.6,0-1.34-1.15-1.54-2.07-1.54h.01Z"></path><path class="cls-1" d="m33.07,41.46c-.75.83-1.78,1.28-2.97,1.28-.85,0-2.16-.29-3.02-1.27-.83-.95-1.03-1.84-1.03-3.22v-6.9h2.04v6.88c0,.69.03,1.48.5,2.02.38.5.97.68,1.49.68.59,0,1.18-.2,1.56-.73.39-.54.42-1.24.42-1.96v-6.9h2.04v6.88c0,1.53-.33,2.45-1.03,3.22v.02Z"></path><path class="cls-1" d="m40.07,42.74c-2.49,0-3.62-1.4-3.74-3.44h2.02c.11,1.31,1.04,1.72,1.71,1.72.92,0,1.66-.73,1.66-1.62,0-1.19-.98-1.49-2.39-2.02-.88-.3-2.81-.95-2.81-3.06,0-1.98,1.78-3.17,3.58-3.17,1.04,0,2.1.39,2.75,1.16.54.65.65,1.3.69,1.89h-2.01c-.09-.57-.44-1.33-1.49-1.33-.83,0-1.49.6-1.49,1.4,0,1.03.71,1.25,2.52,1.96,1.9.74,2.67,1.83,2.67,3.17,0,1.69-1.16,3.33-3.67,3.33h0Z"></path><path class="cls-1" d="m46.09,42.53v-11.17h2.02v11.17h-2.02Z"></path><path class="cls-1" d="m60,42.74h-.57l-6.66-7.5h-.06v7.29h-1.9v-11.38h.57l6.67,7.47h.06v-7.26h1.89v11.38Z"></path><path class="cls-1" d="m62.69,42.53v-11.17h6.17v1.78h-4.21v2.84h3.52v1.78h-3.52v2.99h4.21v1.78h-6.17Z"></path><path class="cls-1" d="m74.87,42.74c-2.49,0-3.62-1.4-3.74-3.44h2.02c.11,1.31,1.04,1.72,1.71,1.72.92,0,1.66-.73,1.66-1.62,0-1.19-.98-1.49-2.39-2.02-.87-.3-2.81-.95-2.81-3.06,0-1.98,1.78-3.17,3.58-3.17,1.04,0,2.1.39,2.75,1.16.54.65.65,1.3.69,1.89h-2.01c-.09-.57-.44-1.33-1.49-1.33-.83,0-1.49.6-1.49,1.4,0,1.03.71,1.25,2.52,1.96,1.9.74,2.67,1.83,2.67,3.17,0,1.69-1.16,3.33-3.67,3.33h0Z"></path><path class="cls-1" d="m84.26,42.74c-2.49,0-3.62-1.4-3.74-3.44h2.02c.11,1.31,1.04,1.72,1.71,1.72.92,0,1.66-.73,1.66-1.62,0-1.19-.98-1.49-2.39-2.02-.87-.3-2.81-.95-2.81-3.06,0-1.98,1.78-3.17,3.58-3.17,1.04,0,2.1.39,2.75,1.16.54.65.65,1.3.69,1.89h-2.01c-.09-.57-.44-1.33-1.49-1.33-.83,0-1.49.6-1.49,1.4,0,1.03.71,1.25,2.52,1.96,1.9.74,2.67,1.83,2.67,3.17,0,1.69-1.16,3.33-3.67,3.33h0Z"></path><path class="cls-1" d="m82.01.97h2.41v24.07h-2.18v.26h17.76v-9.05h-.12c-.43,9.44-11.36,8.79-11.36,8.79h.06v-12.14c2.14,0,5.04-.31,5.47,5.22h.08V7.49h-.08c-.55,5.1-3.39,5.13-5.47,5.13V.92v.09c4.1,0,8.6-.81,10.34,8h.1V.72h-17.02v.24h0Z"></path><path class="cls-1" d="m82.51.97v-.24h-5.06v.24h2.24v17.99c-.08,4.51-3.36,6.58-5.89,6.49-4.64-.17-5.17-4.56-5.17-5.46V.97h2.22v-.24h-8.63v.24h2.29v16.82c0,4.51,2.28,7.99,8.97,7.99,4.49,0,6.54-3.73,6.5-6.81V.97h2.53Z"></path><path class="cls-1" d="m60.49,15.19h1.88v-.24h-7.73v.24h1.99v5.45c0,2.52-1.09,4.82-4.53,4.89-2.48.03-3.84-1.37-4.56-3.31-.78-2.08-1.07-4.26-1.07-9.2,0-3.17.29-7.87,1.38-9.98.51-.99,1.45-2.74,4.2-2.73,3.45.01,5.45,2.83,6.93,8.72h.07V0h-.08c-.73,1.74-3.46.89-3.46.89-1.51-.48-2.17-.82-3.5-.82-4.26,0-10.12,4.33-10.12,13.26,0,7.29,4.38,12.44,10.36,12.44,2.48,0,3.99-1.8,6.1-1.8.66,0,1.88.42,2.09,1.47h.05v-10.24h0Z"></path><path class="cls-1" d="m35.11,12.88c0,1.74-.14,7.3-1.59,10.06-.91,1.77-2.48,2.52-4.33,2.52s-3.42-.75-4.32-2.52c-1.45-2.76-1.59-8.32-1.59-10.06s.14-7.13,1.59-9.99c.88-1.77,2.48-2.52,4.32-2.52s3.45.75,4.33,2.52c1.45,2.86,1.59,8.25,1.59,9.99Zm4.67,0C39.78,5.17,34.24.13,29.19.13s-10.59,5.05-10.59,12.75,5.72,12.82,10.59,12.82,10.59-5.11,10.59-12.82Z"></path><path class="cls-1" d="m16.33.73v.24h2.28l-5.61,18.78L6.22.96h1.96v-.24H0v.24h2.24l9.19,24.47h.13L18.89.96h1.96v-.24h-4.52Z"></path></svg> 