<?xml version="1.0" encoding="UTF-8"?> <svg xmlns="http://www.w3.org/2000/svg" id="Layer_1" width="100" height="14.3" viewBox="0 0 100 14.3"><defs><style>.cls-1{fill:#3a357e;}</style></defs><path class="cls-1" d="m12.02,4.52h-.42c-.14-2.31-1.65-4-4.07-4C3.47.53,2.63,4.28,2.63,7.54s1.19,6.17,4.73,6.17c2.07,0,3.47-.98,3.47-3.12,0-1.4-.53-1.65-1.79-1.75v-.49h5.43v.49c-1.12-.04-1.3.53-1.3,1.58v2.21c-1.51,0-1.65.18-2.94.88-1.05.53-2.07.81-3.26.81-4.03-.07-6.98-2.7-6.98-6.83S2.94,0,7.26,0C8.8,0,10.34.39,11.57,1.3l.42-.95h.28l-.25,4.17Z"></path><path class="cls-1" d="m21.73,4.21c0-.67,0-2.21-.21-2.77-.28-.7-1.12-.7-1.79-.7v-.46c.98.04,1.96.07,2.98.07,1.05-.04,2.1-.07,3.15-.07v.49c-.67,0-1.51,0-1.79.7-.21.56-.21,2.1-.21,2.77v6.13c0,2.66.42,3.08,3.05,3.08.98,0,2.1.04,2.94-.53,1.05-.63,1.16-1.44,1.37-2.59h.53l-.21,3.68c-.35-.04-.74-.04-1.09-.07-3.58.07-7.15.07-10.73.07v-.49c.67,0,1.51,0,1.79-.7.21-.56.21-2.1.21-2.77v-5.85Z"></path><path class="cls-1" d="m37.47,7.19C37.47,3.05,41.08.04,45.08.04s7.47,2.91,7.47,7.01-3.33,7.22-7.54,7.22c-4.03-.04-7.54-2.91-7.54-7.08Zm2.63,0c0,3.26,1.3,6.48,5.08,6.48s4.8-3.47,4.8-6.55-1.3-6.55-4.94-6.55c-3.61.04-4.94,3.54-4.94,6.62Z"></path><path class="cls-1" d="m59.27,9.81h.49c.42,2.1,1.54,3.86,3.93,3.86,1.61,0,2.98-.91,2.98-2.59,0-1.89-1.65-2.63-3.15-3.22-1.89-.74-3.89-1.72-3.89-4.1s1.86-3.75,4.1-3.75c1.16,0,2.21.39,3.12,1.05l.46-.77h.25l.11,3.58h-.49c-.49-1.72-1.44-3.29-3.47-3.29-1.33,0-2.42.84-2.42,2.21,0,1.65,1.47,2.21,2.77,2.73,2.17.88,4.56,1.96,4.56,4.7s-2.52,4.03-4.98,4.03c-1.4,0-2.52-.42-3.65-1.26l-.49.88h-.25v-4.03h.04Z"></path><path class="cls-1" d="m73.82,9.81h.49c.42,2.1,1.54,3.86,3.93,3.86,1.61,0,2.98-.91,2.98-2.59,0-1.89-1.65-2.63-3.15-3.22-1.89-.74-3.89-1.72-3.89-4.1s1.86-3.75,4.1-3.75c1.16,0,2.21.39,3.12,1.05l.49-.81h.25l.11,3.58h-.49c-.49-1.72-1.44-3.29-3.47-3.29-1.33,0-2.42.84-2.42,2.21,0,1.65,1.47,2.21,2.77,2.73,2.17.88,4.56,1.96,4.56,4.7s-2.52,4.03-4.98,4.03c-1.4,0-2.52-.42-3.65-1.26l-.49.88h-.25v-4Z"></path><path class="cls-1" d="m94.18,11.29c0,1.96.07,2.07,2.07,2.24v.49c-1.05-.04-2.07-.07-3.12-.07-1.05.04-2.1.07-3.19.07v-.49c2-.18,2.1-.28,2.1-2.24v-2.56l-1.93-3.29c-.25-.42-1.82-3.58-2.52-4.31-.35-.39-.7-.28-1.19-.39v-.46c.95.04,1.89.07,2.84.07.98-.04,1.96-.07,2.94-.07v.49c-.46,0-1.54-.04-1.54.67,0,.53.28.98.53,1.44l2.7,5.01,1.33-2.1c.42-.74,2.07-3.4,2.07-4.14,0-.81-.95-.81-1.51-.88v-.49c.74.04,1.47.07,2.21.07.7-.04,1.33-.07,2.03-.07v.49c-1.19.11-1.65.91-2.21,1.86l-3.58,5.92v2.73h-.04Z"></path></svg> 