<?xml version="1.0" encoding="UTF-8"?> <svg xmlns="http://www.w3.org/2000/svg" id="Layer_1" width="600" height="400" viewBox="0 0 600 400"><defs><style>.cls-1{fill:#fff;}</style></defs><path class="cls-1" d="m86.33,184.71h-2.36c-.79-12.95-9.23-22.38-22.77-22.38-22.77,0-27.48,21-27.48,39.26s6.67,34.55,26.5,34.55c11.58,0,19.43-5.5,19.43-17.47,0-7.85-2.94-9.23-10.01-9.81v-2.75h30.42v2.75c-6.28-.2-7.26,2.94-7.26,8.83v12.37c-8.44,0-9.23.98-16.49,4.91-5.89,2.94-11.58,4.51-18.25,4.51-22.57-.39-39.06-15.11-39.06-38.28s16.49-41.81,40.63-41.81c8.64,0,17.27,2.16,24.14,7.26l2.36-5.3h1.57l-1.37,23.36Z"></path><path class="cls-1" d="m140.7,182.94c0-3.73,0-12.37-1.18-15.51-1.57-3.93-6.28-3.93-10.01-3.93v-2.55c5.5.2,10.99.39,16.68.39,5.89-.2,11.78-.39,17.67-.39v2.75c-3.73,0-8.44,0-10.01,3.93-1.18,3.14-1.18,11.78-1.18,15.51v34.35c0,14.92,2.36,17.27,17.08,17.27,5.5,0,11.78.2,16.49-2.94,5.89-3.53,6.48-8.05,7.66-14.53h2.94l-1.18,20.61c-1.96-.2-4.12-.2-6.08-.39-20.02.39-40.04.39-60.06.39v-2.75c3.73,0,8.44,0,10.01-3.93,1.18-3.14,1.18-11.78,1.18-15.51v-32.78Z"></path><path class="cls-1" d="m228.83,199.62c0-23.16,20.22-40.04,42.59-40.04s41.81,16.29,41.81,39.26-18.65,40.43-42.2,40.43c-22.57-.2-42.2-16.29-42.2-39.65Zm14.72,0c0,18.25,7.26,36.31,28.46,36.31s26.89-19.43,26.89-36.71-7.26-36.71-27.68-36.71c-20.22.2-27.68,19.82-27.68,37.1Z"></path><path class="cls-1" d="m350.92,214.35h2.75c2.36,11.78,8.64,21.59,21.98,21.59,9.03,0,16.68-5.1,16.68-14.53,0-10.6-9.23-14.72-17.67-18.06-10.6-4.12-21.79-9.62-21.79-22.97s10.4-21,22.97-21c6.48,0,12.37,2.16,17.47,5.89l2.55-4.32h1.37l.59,20.02h-2.75c-2.75-9.62-8.05-18.45-19.43-18.45-7.46,0-13.54,4.71-13.54,12.37,0,9.23,8.24,12.37,15.51,15.31,12.17,4.91,25.52,10.99,25.52,26.3s-14.13,22.57-27.87,22.57c-7.85,0-14.13-2.36-20.41-7.07l-2.75,4.91h-1.37v-22.57h.2Z"></path><path class="cls-1" d="m432.38,214.35h2.75c2.36,11.78,8.64,21.59,21.98,21.59,9.03,0,16.68-5.1,16.68-14.53,0-10.6-9.23-14.72-17.67-18.06-10.6-4.12-21.79-9.62-21.79-22.97s10.4-21,22.97-21c6.48,0,12.37,2.16,17.47,5.89l2.75-4.51h1.37l.59,20.02h-2.75c-2.75-9.62-8.05-18.45-19.43-18.45-7.46,0-13.54,4.71-13.54,12.37,0,9.23,8.24,12.37,15.51,15.31,12.17,4.91,25.52,10.99,25.52,26.3s-14.13,22.57-27.87,22.57c-7.85,0-14.13-2.36-20.41-7.07l-2.75,4.91h-1.37v-22.38Z"></path><path class="cls-1" d="m546.42,222.59c0,10.99.39,11.58,11.58,12.56v2.75c-5.89-.2-11.58-.39-17.47-.39-5.89.2-11.78.39-17.86.39v-2.75c11.19-.98,11.78-1.57,11.78-12.56v-14.33l-10.8-18.45c-1.37-2.36-10.21-20.02-14.13-24.14-1.96-2.16-3.93-1.57-6.67-2.16v-2.55c5.3.2,10.6.39,15.9.39,5.5-.2,10.99-.39,16.49-.39v2.75c-2.55,0-8.64-.2-8.64,3.73,0,2.94,1.57,5.5,2.94,8.05l15.11,28.07,7.46-11.78c2.36-4.12,11.58-19.04,11.58-23.16,0-4.51-5.3-4.51-8.44-4.91v-2.75c4.12.2,8.24.39,12.37.39,3.93-.2,7.46-.39,11.38-.39v2.75c-6.67.59-9.23,5.1-12.37,10.4l-20.02,33.17v15.31h-.2Z"></path></svg> 