<?xml version="1.0" encoding="UTF-8"?> <svg xmlns="http://www.w3.org/2000/svg" id="Layer_1" width="100" height="14.88" viewBox="0 0 100 14.88"><defs><style>.cls-1{fill:#3a357e;}</style></defs><path class="cls-1" d="m47.52,4.02c0,2.01-.2,8.24-.2,8.24,0,1.21.4,1.74,1.54,1.74v.54h-4.49v-.54c1.14,0,1.74-.53,1.74-1.74l.4-10.19c-.34-.8-.67-1.07-1.54-1.14v-.47h3.42l3.62,9.52L55.7.47h3.08v.47c-.87,0-1.34.4-1.34,1.34l.4,9.85c0,1.47.27,1.88,1.47,1.88v.54h-5.16v-.54c1.01,0,1.47-.33,1.41-1.88,0,0-.2-6.9-.27-8.11l-2.48,6.84c-.33.87-.67,1.88-.94,2.95l-.81.07c-.2-.74-.74-2.08-.74-2.08,0,0-2.07-5.83-2.81-7.78h0Z"></path><path class="cls-1" d="m43.3,14.61c-.27-.07-.53-.07-.81-.07-.53,0-1.47.27-2.61.27-4.36,0-7.57-2.61-7.57-7.44,0-4.09,3.02-7.24,7.64-7.24,1.07,0,2.28.2,3.28.61.2-.2.27-.33.47-.54h.4c-.07.74-.33,3.15-.33,3.15h-.4c-.27-1.41-1-2.35-3.35-2.35-2.82,0-5.36,2.21-5.36,6.3,0,4.63,2.61,6.63,5.5,6.63,1.88,0,3.02-1.07,3.75-2.41l.47.2-1.07,2.88h0Z"></path><path class="cls-1" d="m30.63,3.08h-.47c-.07-1.27-.47-1.68-1.47-1.68h-1.94v10.52c0,1.74.33,2.08,1.47,2.08v.54h-5.03v-.54c1.14,0,1.47-.33,1.47-2.14V1.41h-1.95c-1.27,0-1.47.33-1.81,1.68h-.47l.33-3.02.33.07c.13.33.4.33,1.21.33h6.5c1.21,0,1.47,0,1.74-.4h.4l-.33,3.02h0Z"></path><path class="cls-1" d="m16.42,14.88c-.94,0-1.68-.13-2.21-.33-.53-.14-.94-.33-1.14-.47-.27.27-.47.6-.47.6l-.4-.13.33-3.15.47.07c.27,1.47,1.27,2.55,3.35,2.55,1.61,0,2.68-1.34,2.68-2.81,0-1.21-.47-1.81-2.08-3.02-.53-.34-1-.61-1.4-.94-1.47-.94-2.41-2.01-2.41-3.76,0-2.01,1.68-3.35,3.89-3.35,1.27,0,2.08.4,2.35.53l.47-.53.33.07-.33,2.88-.47-.07c0-1.34-.8-1.94-2.14-1.94s-2.21.67-2.21,1.94c0,1.14.87,1.88,1.88,2.55.53.33.94.6,1.34.87,2.35,1.68,2.88,2.75,2.88,4.36,0,2.34-1.81,4.09-4.69,4.09h0Z"></path><path class="cls-1" d="m8.78,3.08h-.53c0-1.21-.54-1.68-1.61-1.68h-3.02v5.29h1.94c1.01,0,1.21-.53,1.34-1.41h.47v3.75h-.47c-.13-1-.33-1.41-1.41-1.41h-1.88v4.49c0,1.68.4,1.88,1.47,1.88v.54H0v-.54c1.27,0,1.47-.33,1.47-1.88V2.28c0-.94-.4-1.34-1.47-1.34v-.47h6.97c1.21,0,1.47-.07,1.68-.47h.47l-.33,3.08h0Z"></path><path class="cls-1" d="m81.1,3.89v8.04c0,1.74.4,2.08,1.47,2.08v.54h-7.91v-.54c.6,0,1.14-.2,1.14-.6,0-.27-.07-.74-.2-1.21l-.61-1.94h-4.42c-.07.27-.87,2.48-.87,3.08,0,.53.6.67,1.01.67v.54h-3.69v-.53c.67,0,1.21-.07,1.68-1.47l3.42-10.93c-.2-.47-.47-.61-.94-.67v-.47h3.02l3.62,11.46c.33,1.2.67,1.81,1.21,2.08.8-.27,1-.53,1-2.08V2.28c-.6-.81-.67-1.34-1.81-1.34v-.47h3.42l5.63,9.58V2.75c0-1.47-.33-1.81-1.47-1.81v-.47h7.51v.47c-.47,0-.87.2-.87.67,0,.33.13.67.27,1.07l2.14,4.63,2.08-4.49c.33-.6.4-.94.4-1.27,0-.4-.27-.6-.87-.6v-.47h3.55v.47c-.87,0-1.41.81-1.81,1.74l-2.75,5.63v3.69c0,1.61.4,2.01,1.47,2.01v.54h-5.09v-.54c1.07,0,1.47-.4,1.47-2.01v-3.15l-2.95-6.23c-.53-1.21-.74-1.47-1.07-1.68-.67.27-.87.74-.87,1.81v10.32s.07.81.13,1.74l-.87.07-6.56-10.99h0Zm-8.38-.67l-1.88,6.1h3.89l-2.01-6.1h0Z"></path><path class="cls-1" d="m64.41,9.32h-1.01v2.88c0,1.47.4,1.81,1.54,1.81v.54h-5.16v-.54c1.07,0,1.47-.4,1.47-1.88V2.68c0-1.47-.4-1.74-1.47-1.74v-.47h3.89c3.75,0,5.97,1.14,5.97,4.22,0,3.22-2.68,4.63-5.23,4.63h0Zm-.67-7.91h-.33v6.9h.6c2.21,0,3.35-1,3.35-3.55s-1.01-3.35-3.62-3.35h0Z"></path><path class="cls-1" d="m41.02,11.86c-2.55,0-4.29-1.81-4.29-4.42s1.81-4.42,4.29-4.42,4.22,1.88,4.22,4.42c0,2.48-1.88,4.42-4.22,4.42h0Zm0-8.04c-1.74,0-2.35,1.68-2.35,3.62,0,1.81.54,3.62,2.35,3.62s2.28-1.81,2.28-3.69c0-1.81-.67-3.55-2.28-3.55h0Z"></path><path class="cls-1" d="m11.53,11.06v-.47c.67,0,.8-.2.8-.4,0-.27-.07-.47-.13-.67,0,0-.13-.53-.27-.94h-2.61l-.27.87c-.07.2-.13.4-.13.67s.27.47.67.47v.47h-2.62v-.47c.67,0,.94-.2,1.21-.94l2.01-6.03c-.07-.27-.27-.47-.67-.47v-.47h2.14c1.74,5.09,2.21,6.43,2.21,6.43.33,1.14.67,1.47,1.21,1.47v.47h-3.55Zm-.94-6.5l-1,3.28h2.08l-1.07-3.28h0Z"></path></svg> 