<?xml version="1.0" encoding="UTF-8"?> <svg xmlns="http://www.w3.org/2000/svg" id="Reuters" width="600" height="400" viewBox="0 0 600 400"><defs><style>.cls-1{fill:#fff;}</style></defs><path class="cls-1" d="m273.8,228.54h-9.7c-.87,0-1.2-.81-1.59-1.59l-11.64-19.4h-1.69c-2.1,0-8.57-.21-10.42-.33v19.71c.03.85-.63,1.56-1.47,1.59h-8.07c-.88,0-1.59-.71-1.59-1.59v-52.51c0-1.61.95-2.15,2.56-2.41,6.3-.71,12.63-1.05,18.97-1.03,12.34,0,23.74,4.4,23.74,18.1v.66c0,8.5-4.25,13.13-10.82,15.67l12.57,21.45c.13.19.19.41.17.64.08.49-.25.95-.73,1.03-.1.02-.2.02-.3,0h0Zm-12.01-39.46c0-6.01-4.66-8.57-12.67-8.57-1.71,0-8.98.17-10.42.33v17.46c1.26,0,9.04.25,10.42.25,8.22,0,12.67-1.59,12.67-8.65v-.81h0Zm34.33,23.67c0,6.71.25,6.89,6.3,6.89h20.29c.89,0,1.61.72,1.61,1.61h0v5.1c0,1.14-.41,1.53-1.61,1.69-5.73.84-11.51,1.22-17.3,1.13-13.31,0-20.35.1-20.35-16.41v-25.35c0-16.51,7.04-16.41,20.35-16.41,5.79-.1,11.58.28,17.3,1.13,1.2.16,1.61.56,1.61,1.69v5.1c-.01.89-.72,1.61-1.61,1.63h-20.29c-6.05,0-6.3.17-6.3,6.87v7.35h25.62c.88,0,1.6.71,1.61,1.59v5.82c0,.89-.72,1.61-1.61,1.61h-25.62v8.98-.02Zm64.17,16.41c-12.9,0-24-5.61-24-22.68v-33.35c.02-.86.73-1.53,1.59-1.51h7.94c.85-.04,1.57.61,1.61,1.45v33.41c0,9.14,4.23,13.46,12.86,13.46s12.88-4.33,12.88-13.46v-33.35c.01-.85.7-1.52,1.55-1.51h7.97c.85-.04,1.57.61,1.61,1.45v33.41c0,17.07-11.12,22.68-24.01,22.68h0Zm76.68-48.26h-15.98v46.03c-.01.88-.73,1.59-1.61,1.59h-7.93c-.88,0-1.6-.71-1.61-1.59v-46.03h-15.98c-.8.08-1.51-.51-1.58-1.31v-6.44c.01-.85.7-1.52,1.55-1.51h43.16c.86-.02,1.57.66,1.59,1.51h0v6.34c-.02.8-.68,1.44-1.49,1.42h-.12Zm108.78,47.64h-9.7c-.89,0-1.2-.81-1.59-1.59l-11.64-19.4h-1.78c-2.06,0-8.55-.21-10.4-.33v19.71c.04.85-.61,1.57-1.45,1.61h-8.09c-.88,0-1.59-.71-1.59-1.59h0v-52.53c0-1.61.95-2.15,2.54-2.41,6.3-.71,12.63-1.05,18.97-1.03,12.36,0,23.74,4.4,23.74,18.1v.66c0,8.5-4.27,13.13-10.82,15.67l12.59,21.45c.12.19.17.42.16.64.09.47-.23.93-.7,1.02-.08,0-.15.02-.23,0h0Zm-12.03-39.44c0-6.01-4.66-8.57-12.69-8.57-1.67,0-8.96.17-10.4.33v17.46c1.3,0,9.06.25,10.4.25,8.26,0,12.69-1.59,12.69-8.65v-.81h0Zm42.68,40.12c-6.1-.07-12.17-.78-18.12-2.11-.82-.1-1.45-.77-1.51-1.59v-5.82c0-.84.67-1.52,1.51-1.53h.17c6,.86,12.04,1.34,18.1,1.44,7.14,0,9.31-2.54,9.31-7.18,0-6.01-14.34-9.35-21.34-12.22-5.85-2.13-9.67-7.78-9.45-14.01,0-8.83,7.1-15.23,22-15.23,5.84.05,11.66.76,17.34,2.11.79.08,1.4.72,1.44,1.51v5.82c.04.76-.54,1.41-1.3,1.45h-.22c-5.88-.8-11.8-1.28-17.73-1.45-5.94,0-10.38,2.08-10.38,5.68,0,2.64,3.01,5.06,6.56,6.46s8.22,3.22,13.58,5.37c6.75,2.72,11.12,6.69,11.12,14.39-.1,8.22-5.14,16.88-21.16,16.88l.08.02h0Zm-118.46-16.45c0,6.71.25,6.89,6.32,6.89h20.21c.88,0,1.59.73,1.59,1.61v5.1c0,1.14-.41,1.53-1.59,1.69-5.73.84-11.53,1.22-17.32,1.13-13.33,0-20.35.1-20.35-16.41v-25.37c0-16.51,7.02-16.41,20.35-16.41,5.8-.09,11.59.28,17.32,1.13,1.18.16,1.59.56,1.59,1.69v5.1c0,.88-.71,1.6-1.59,1.63h-20.29c-6.07,0-6.32.17-6.32,6.87v7.35h25.64c.87,0,1.57.72,1.57,1.59v5.82c.01.88-.69,1.6-1.57,1.61h-25.64l.08,9v-.02Z"></path><circle class="cls-1" cx="11.69" cy="199.99" r="9.19"></circle><ellipse class="cls-1" cx="14.47" cy="178.73" rx="8.48" ry="8.46"></ellipse><ellipse class="cls-1" cx="22.6" cy="158.92" rx="7.57" ry="7.64"></ellipse><circle class="cls-1" cx="35.77" cy="141.93" r="6.17"></circle><ellipse class="cls-1" cx="52.76" cy="128.84" rx="5.08" ry="5.06"></ellipse><circle class="cls-1" cx="72.59" cy="120.65" r="3.96"></circle><ellipse class="cls-1" cx="93.92" cy="117.86" rx="3.63" ry="3.69"></ellipse><ellipse class="cls-1" cx="115.18" cy="120.67" rx="3.88" ry="3.94"></ellipse><circle class="cls-1" cx="175.98" cy="199.99" r="9.19"></circle><ellipse class="cls-1" cx="173.2" cy="178.77" rx="8.46" ry="8.48"></ellipse><circle class="cls-1" cx="173.2" cy="221.25" r="8.46"></circle><circle class="cls-1" cx="164.98" cy="241.08" r="7.66"></circle><ellipse class="cls-1" cx="151.87" cy="258.09" rx="6.15" ry="6.13"></ellipse><circle class="cls-1" cx="134.93" cy="271.14" r="5.06"></circle><circle class="cls-1" cx="115.09" cy="279.33" r="3.96"></circle><ellipse class="cls-1" cx="93.88" cy="282.14" rx="3.63" ry="3.69"></ellipse><ellipse class="cls-1" cx="14.47" cy="221.27" rx="8.44" ry="8.46"></ellipse><circle class="cls-1" cx="22.69" cy="241.1" r="7.66"></circle><ellipse class="cls-1" cx="35.79" cy="258.09" rx="6.17" ry="6.13"></ellipse><ellipse class="cls-1" cx="52.76" cy="271.16" rx="5.08" ry="5.06"></ellipse><ellipse class="cls-1" cx="72.66" cy="279.37" rx="3.98" ry="3.96"></ellipse><circle class="cls-1" cx="152.04" cy="141.93" r="6.11"></circle><circle class="cls-1" cx="134.93" cy="128.88" r="5.1"></circle><circle class="cls-1" cx="42.4" cy="161.68" r="3.96"></circle><circle class="cls-1" cx="54.06" cy="149.69" r="3.1"></circle><circle class="cls-1" cx="68.45" cy="141.1" r="2.87"></circle><circle class="cls-1" cx="84.55" cy="136.54" r="3.08"></circle><ellipse class="cls-1" cx="101.28" cy="136.21" rx="3.94" ry="3.9"></ellipse><ellipse class="cls-1" cx="152.66" cy="174.64" rx="7.12" ry="7.16"></ellipse><circle class="cls-1" cx="144.16" cy="160.2" r="6.6"></circle><ellipse class="cls-1" cx="132.14" cy="148.47" rx="5.96" ry="5.92"></ellipse><circle class="cls-1" cx="117.53" cy="140.4" r="4.81"></circle><circle class="cls-1" cx="34.25" cy="176.32" r="4.79"></circle><circle class="cls-1" cx="30.24" cy="192.54" r="6.03"></circle><ellipse class="cls-1" cx="30.36" cy="209.3" rx="6.56" ry="6.63"></ellipse><ellipse class="cls-1" cx="145.33" cy="238.28" rx="3.92" ry="3.94"></ellipse><ellipse class="cls-1" cx="133.69" cy="250.25" rx="3.12" ry="3.08"></ellipse><ellipse class="cls-1" cx="119.28" cy="258.92" rx="2.91" ry="2.87"></ellipse><circle class="cls-1" cx="103.14" cy="263.48" r="3.08"></circle><ellipse class="cls-1" cx="86.4" cy="263.75" rx="3.98" ry="3.96"></ellipse><ellipse class="cls-1" cx="34.97" cy="225.4" rx="7.12" ry="7.16"></ellipse><ellipse class="cls-1" cx="43.45" cy="239.81" rx="6.52" ry="6.56"></ellipse><ellipse class="cls-1" cx="55.53" cy="251.45" rx="5.99" ry="6.01"></ellipse><ellipse class="cls-1" cx="70.16" cy="259.62" rx="4.81" ry="4.79"></ellipse><circle class="cls-1" cx="153.38" cy="223.69" r="4.79"></circle><ellipse class="cls-1" cx="157.55" cy="207.44" rx="5.97" ry="5.99"></ellipse><ellipse class="cls-1" cx="157.28" cy="190.74" rx="6.56" ry="6.63"></ellipse><ellipse class="cls-1" cx="127.21" cy="164.57" rx="5.94" ry="5.92"></ellipse><circle class="cls-1" cx="136.54" cy="176.62" r="5.18"></circle><circle class="cls-1" cx="141.64" cy="190.97" r="4.54"></circle><circle class="cls-1" cx="142.13" cy="206.18" r="3.59"></circle><ellipse class="cls-1" cx="137.84" cy="220.77" rx="2.91" ry="2.89"></ellipse><circle class="cls-1" cx="129.29" cy="233.34" r="2.17"></circle><circle class="cls-1" cx="117.24" cy="242.69" r="2.91"></circle><circle class="cls-1" cx="102.9" cy="247.81" r="3.61"></circle><circle class="cls-1" cx="87.68" cy="248.25" r="4.58"></circle><circle class="cls-1" cx="73.07" cy="244" r="5.14"></circle><ellipse class="cls-1" cx="60.54" cy="235.37" rx="5.84" ry="5.86"></ellipse><circle class="cls-1" cx="51.15" cy="223.4" r="5.18"></circle><ellipse class="cls-1" cx="46.03" cy="209.03" rx="4.58" ry="4.6"></ellipse><circle class="cls-1" cx="45.6" cy="193.86" r="3.57"></circle><circle class="cls-1" cx="49.85" cy="179.2" r="2.91"></circle><circle class="cls-1" cx="58.41" cy="166.66" r="2.17"></circle><circle class="cls-1" cx="70.47" cy="157.31" r="2.91"></circle><circle class="cls-1" cx="84.81" cy="152.21" r="3.61"></circle><ellipse class="cls-1" cx="100.05" cy="151.67" rx="4.54" ry="4.52"></ellipse><circle class="cls-1" cx="114.64" cy="156" r="5.14"></circle><circle class="cls-1" cx="104.13" cy="164.99" r="4.62"></circle><circle class="cls-1" cx="114.48" cy="169.87" r="4.02"></circle><ellipse class="cls-1" cx="122.79" cy="177.71" rx="3.57" ry="3.55" transform="translate(-67.46 75.41) rotate(-27.09)"></ellipse><circle class="cls-1" cx="128.23" cy="187.73" r="2.81"></circle><circle class="cls-1" cx="130.36" cy="198.97" r="2.27"></circle><circle class="cls-1" cx="128.9" cy="210.31" r="1.71"></circle><circle class="cls-1" cx="124.01" cy="220.61" r="2.27"></circle><circle class="cls-1" cx="116.17" cy="228.93" r="2.81"></circle><circle class="cls-1" cx="106.13" cy="234.37" r="3.57"></circle><ellipse class="cls-1" cx="94.92" cy="236.5" rx="3.98" ry="4.02" transform="translate(-97.32 69.2) rotate(-27.1)"></ellipse><circle class="cls-1" cx="83.56" cy="235.05" r="4.62"></circle><ellipse class="cls-1" cx="73.24" cy="230.14" rx="4.02" ry="4" transform="translate(-96.77 58.6) rotate(-27.09)"></ellipse><circle class="cls-1" cx="64.94" cy="222.29" r="3.57"></circle><ellipse class="cls-1" cx="59.49" cy="212.25" rx="2.79" ry="2.81" transform="translate(-90.16 50.4) rotate(-27.1)"></ellipse><circle class="cls-1" cx="57.34" cy="201.02" r="2.27"></circle><circle class="cls-1" cx="58.82" cy="189.75" r="1.71"></circle><circle class="cls-1" cx="63.71" cy="179.35" r="2.25"></circle><circle class="cls-1" cx="71.57" cy="171.09" r="2.81"></circle><circle class="cls-1" cx="81.6" cy="165.63" r="3.57"></circle><ellipse class="cls-1" cx="92.82" cy="163.51" rx="4.03" ry="4.02" transform="translate(-64.28 60.21) rotate(-27.09)"></ellipse><circle class="cls-1" cx="81.2" cy="176.55" r="3.61"></circle><circle class="cls-1" cx="89.11" cy="173.83" r="3.14"></circle><circle class="cls-1" cx="97.39" cy="173.6" r="2.79"></circle><circle class="cls-1" cx="105.37" cy="175.98" r="2.46"></circle><circle class="cls-1" cx="112.27" cy="180.72" r="2.11"></circle><circle class="cls-1" cx="117.3" cy="187.34" r="1.75"></circle><circle class="cls-1" cx="120.04" cy="195.21" r="2.11"></circle><circle class="cls-1" cx="120.25" cy="203.51" r="2.46"></circle><ellipse class="cls-1" cx="117.85" cy="211.49" rx="2.81" ry="2.79" transform="translate(-119.63 258.59) rotate(-72.09)"></ellipse><circle class="cls-1" cx="113.14" cy="218.36" r="3.16"></circle><circle class="cls-1" cx="106.49" cy="223.43" r="3.61"></circle><ellipse class="cls-1" cx="98.63" cy="226.2" rx="3.18" ry="3.16" transform="translate(-146.94 250.49) rotate(-72.09)"></ellipse><ellipse class="cls-1" cx="90.31" cy="226.38" rx="2.79" ry="2.81" transform="translate(-152.87 242.74) rotate(-72.1)"></ellipse><circle class="cls-1" cx="82.39" cy="224.41" r="2.46"></circle><circle class="cls-1" cx="75.49" cy="219.25" r="2.1"></circle><circle class="cls-1" cx="70.44" cy="212.61" r="1.77"></circle><circle class="cls-1" cx="67.68" cy="204.76" r="2.11"></circle><circle class="cls-1" cx="67.5" cy="196.46" r="2.48"></circle><circle class="cls-1" cx="69.86" cy="188.47" r="2.79"></circle><ellipse class="cls-1" cx="74.6" cy="181.58" rx="3.16" ry="3.2" transform="translate(-121.12 196.76) rotate(-72.1)"></ellipse></svg> 