<?xml version="1.0" encoding="UTF-8"?> <svg xmlns="http://www.w3.org/2000/svg" id="Layer_1" width="100" height="29.43" viewBox="0 0 100 29.43"><defs><style>.cls-1{fill:#3a357e;}</style></defs><rect class="cls-1" x="74.88" y="2.92" width="6.36" height="23.24"></rect><path class="cls-1" d="m64.94,8.85c-4.94,0-8.96,3.96-8.96,8.85s4.01,8.85,8.96,8.85,8.96-3.96,8.96-8.85c.02-4.88-4-8.85-8.96-8.85Zm0,11.4c-1.37,0-2.47-1.15-2.47-2.55s1.1-2.55,2.47-2.55,2.47,1.15,2.47,2.55-1.1,2.55-2.47,2.55Z"></path><path class="cls-1" d="m93.63,2.92v14.13c0,2.71-1.46,3.19-2.52,3.19s-2.43-.82-2.43-2.55c0-1.13.96-2.32,2.43-2.33.62,0,1.15.22,1.55.54v-6.92c-.5-.08-1.03-.12-1.55-.12-4.98,0-8.89,3.87-8.89,8.85s3.92,8.85,8.89,8.85,8.89-3.58,8.89-9.47V2.92h-6.37Z"></path><path class="cls-1" d="m43.59,2.92v14.13c0,2.71,1.46,3.19,2.52,3.19s2.43-.82,2.43-2.55c0-1.13-.96-2.32-2.43-2.33-.62,0-1.15.22-1.55.54v-6.92c.5-.08,1.03-.12,1.55-.12,4.98,0,8.89,3.87,8.89,8.85s-3.92,8.85-8.89,8.85-8.89-3.58-8.89-9.47V2.92h6.37Z"></path><path class="cls-1" d="m26.51,0H2.94C1.32,0,0,1.32,0,2.94v23.55c0,1.63,1.32,2.94,2.94,2.94h23.55c1.63,0,2.94-1.32,2.94-2.94V2.94c.02-1.62-1.31-2.94-2.92-2.94Zm-11.54,23.62c-3.75,0-6.7-2.69-6.7-7.14V5.83h4.8v10.65c0,2.04,1.1,2.39,1.9,2.39s1.82-.62,1.82-1.91c0-.86-.73-1.76-1.82-1.76-.47,0-.86.17-1.17.42v-5.22c.37-.06.76-.09,1.17-.09,3.75,0,6.7,2.91,6.7,6.65s-2.95,6.65-6.7,6.65Z"></path></svg> 