<?xml version="1.0" encoding="UTF-8"?> <svg xmlns:xlink="http://www.w3.org/1999/xlink" xmlns="http://www.w3.org/2000/svg" id="nine" width="1060.7" height="324" viewBox="0 0 1060.7 324"><defs><style>.cls-1{fill:#ecebea;}</style></defs><path class="cls-1" d="m137.42,274.75v-96.02c0-19.2-6.13-27.79-23.7-27.79-11.44,0-23.7,7.35-32.28,17.57v144.24H19.33V100.27h54.34l4.49,17.57c12.26-12.26,34.32-21.66,53.94-21.66,49.85,0,67.42,29.42,67.42,77.23v80.9c0,9.81,4.09,13.48,11.44,13.48,2.86,0,6.13-.82,10.21-2.04l-.41,47.4c-13.89,2.45-26.15,3.68-36.77,3.68-29.42,0-46.58-10.21-46.58-42.09Z"></path><path class="cls-1" d="m273.48,74.94c-20.84,0-36.37-10.21-36.37-33.1s15.53-33.91,36.37-33.91,37.18,10.62,37.18,33.91-16.34,33.1-37.18,33.1Zm31.46,25.33v212.47h-62.11V100.27h62.11Z"></path><path class="cls-1" d="m466.74,274.75v-96.02c0-19.2-6.13-27.79-23.7-27.79-11.44,0-23.7,7.35-32.28,17.57v144.24h-62.11V100.27h54.34l4.49,17.57c12.26-12.26,34.32-21.66,53.94-21.66,49.85,0,67.42,29.42,67.42,77.23v80.9c0,9.81,4.09,13.48,11.44,13.48,2.86,0,6.13-.82,10.21-2.04l-.41,47.4c-13.89,2.45-26.15,3.68-36.77,3.68-29.42,0-46.58-10.21-46.58-42.09Z"></path><path class="cls-1" d="m661.65,316.83c-56.8,0-91.53-33.1-91.53-87.44v-45.35c0-54.34,34.73-87.85,91.53-87.85s91.93,33.51,91.93,87.85v42.49h-121.35v2.86c0,25.74,11.44,35.55,30.64,35.55,24.52,0,40.04-6.54,61.29-17.16l22.06,42.5c-24.52,16.75-50.26,26.56-84.58,26.56Zm29.83-130.34v-2.04c0-24.11-8.99-36.36-29.83-36.36-19.2,0-30.65,11.03-30.65,36.36v2.04h60.47Z"></path></svg> 