<?xml version="1.0" encoding="UTF-8"?> <svg xmlns="http://www.w3.org/2000/svg" id="Layer_1" width="100" height="11.96" viewBox="0 0 100 11.96"><defs><style>.cls-1{fill:#fff;}</style></defs><path class="cls-1" d="m39.94.02c-1.39.19-2.3.79-3.29,2.13-.12.17-.22.31-.22.32,0,.02.9.68.94.69.01,0,.14-.14.28-.32.85-1.09,1.67-1.6,2.68-1.66.79-.05,1.43.18,1.93.68.28.28.4.47.53.83.09.24.09.27.09.74,0,.43,0,.52-.07.72-.2.69-.66,1.34-1.63,2.29-.25.24-1.48,1.34-2.72,2.44l-2.26,2v1.02h8.2v-1.21h-3.09c-1.7,0-3.09,0-3.09-.02,0-.01.84-.77,1.87-1.67,2.79-2.47,3.38-3.08,3.82-3.99.54-1.11.49-2.51-.12-3.46-.49-.75-1.21-1.24-2.18-1.47-.26-.06-.39-.07-.89-.08-.33,0-.67,0-.78.01Z"></path><path class="cls-1" d="m97.58.16c-.48.07-.94.34-1.18.68-.17.25-.24.49-.24.84,0,.68.28,1.06,1.04,1.36.08.03.39.12.7.2.95.25,1.17.4,1.17.8,0,.38-.24.6-.73.66-.56.07-1.14-.12-1.72-.56l-.13-.1-.28.33-.28.33.16.13c1.16.92,2.96.95,3.63.05.38-.52.37-1.35-.02-1.79-.05-.06-.17-.16-.26-.22-.28-.19-.52-.28-1.24-.47-.89-.24-1.11-.39-1.11-.79,0-.21.04-.31.21-.44.16-.14.35-.19.66-.19.42,0,.83.14,1.26.42.08.06.16.1.16.09,0,0,.1-.15.22-.31.12-.17.22-.32.24-.34.06-.08-.58-.45-.99-.56-.42-.12-.87-.16-1.26-.1Z"></path><path class="cls-1" d="m34.33,1.05v.86h.61v.24c-.05.47-.28.78-.81,1.04l-.28.14.1.28.1.28.2-.05c.85-.24,1.3-.65,1.5-1.39.06-.21.06-.31.07-1.25V.19s-.74,0-.74,0h-.75v.86Z"></path><path class="cls-1" d="m47.92,4.19l-3.29,4,.17.47.17.47h6.11v2.76h1.27v-2.76h1.81v-1.09h-1.81V.19h-1.14l-3.29,4Zm3.15,3.84s-1.1,0-2.43,0h-2.42s2.43-2.98,2.43-2.98l2.42-2.98v2.97c.01,1.63.01,2.98,0,2.98Z"></path><path class="cls-1" d="m77.7,2.77c-.62,1.42-1.14,2.61-1.15,2.63-.02.05.02.05.45.05h.47l.26-.63.26-.62h2.49l.26.62.26.62h.49c.45,0,.48,0,.47-.05-.01-.03-.53-1.21-1.15-2.63l-1.13-2.58h-.87l-1.13,2.58Zm2-.45c.24.56.44,1.02.44,1.04,0,.01-.4.02-.89.02-.76,0-.89,0-.88-.04.09-.23.87-2.03.88-2.03,0,0,.21.46.45,1.01Z"></path><path class="cls-1" d="m58.84,2.84v2.62h.92v-1.81h1.17l.63.91.63.9h.54c.3,0,.54,0,.54-.01,0,0-.31-.45-.69-.98s-.69-.97-.69-.98c0,0,.05-.03.11-.04.37-.12.77-.44.94-.74.12-.21.19-.55.19-.83,0-.87-.56-1.48-1.5-1.63-.11-.01-.74-.03-1.49-.03h-1.3v2.62Zm2.6-1.75c.48.09.74.38.74.83,0,.37-.17.63-.53.8-.16.07-.16.07-1.03.08h-.87s0-.87,0-.87v-.88h.76c.42,0,.83.01.93.03Z"></path><path class="cls-1" d="m65.43,2.84v2.62h3.94v-.81h-3.02v-1.41h1.32s1.31-.01,1.31-.01v-.41s.02-.41.02-.41h-2.65v-1.35h2.96V.22h-3.88v2.62Z"></path><path class="cls-1" d="m71.25.65v.43h1.67v4.37h.92V1.08h1.67V.22h-4.26v.43Z"></path><path class="cls-1" d="m84.11,2.84v2.62h.92V.22h-.92v2.62Z"></path><path class="cls-1" d="m87.62,2.84v2.62h3.68v-.83h-2.76V.22h-.92v2.62Z"></path><path class="cls-1" d="m92.98.73v.51s.2,0,.2,0c.19,0,.19.01.19.09,0,.25-.18.47-.46.57-.09.03-.16.05-.16.06s.01.09.04.19l.05.19.18-.03c.27-.04.46-.12.62-.27.28-.25.35-.48.35-1.27V.22h-1.01v.51Z"></path><path class="cls-1" d="m.02.3s-.02,2.62-.02,5.81v5.79h3.22v-3.16s.01-3.16.01-3.16l1.81,3.16,1.81,3.16h3.38V.28h-3.19v3.06s-.01,3.06-.01,3.06l-.85-1.43c-.47-.79-1.28-2.16-1.82-3.06l-.97-1.63h-1.68c-.92-.01-1.69,0-1.7,0Z"></path><path class="cls-1" d="m11.68,6.09v5.81h3.19V2.95h1.43c1.03.02,1.47.03,1.57.06.37.09.6.25.73.5.07.13.07.18.08.42,0,.26,0,.28-.11.49-.24.48-.73,1.03-1.95,2.22-.47.45-.84.83-.84.85,0,.02.64,1.02,1.41,2.22l1.4,2.2h1.78c.98,0,1.78,0,1.78-.01,0,0-.59-.95-1.31-2.09l-1.31-2.07.37-.35c1.09-1.04,1.63-1.88,1.84-2.84.07-.34.07-1.13,0-1.46-.15-.67-.4-1.16-.85-1.62-.62-.65-1.5-1.03-2.62-1.15-.19-.02-1.46-.03-3.44-.03h-3.15v5.81Z"></path><path class="cls-1" d="m22.9,6.09v5.81h3.19v-3.86h4.43v-2.68h-2.21s-2.21-.01-2.21-.01v-1.19s-.01-1.19-.01-1.19h5.7V.28h-8.89v5.81Z"></path><path class="cls-1" d="m68.86,6.59c-1.03.21-1.82.98-2.08,2.03-.07.29-.09.92-.03,1.19.23,1.05.86,1.76,1.86,2.05.38.11,1.02.13,1.45.04.53-.11,1.02-.33,1.39-.62l.16-.13v-2.22h-1.11s-1.12.01-1.12.01v.39s-.02.4-.02.4h1.36v1l-.15.09c-.44.26-1.04.36-1.55.26-.63-.14-1.17-.69-1.31-1.36-.26-1.23.54-2.34,1.69-2.35.43,0,.83.13,1.21.39.19.14.24.16.27.13.02-.02.15-.18.29-.34l.25-.3-.12-.1c-.29-.25-.74-.46-1.17-.54-.34-.07-.97-.08-1.27-.02Z"></path><path class="cls-1" d="m76.67,6.57c-.74.12-1.25.54-1.4,1.15-.09.38-.01.88.19,1.17.25.35.6.52,1.59.78.89.23,1.11.39,1.11.79,0,.43-.33.66-.95.66-.52,0-.94-.15-1.4-.49l-.22-.17-.11.12c-.06.07-.18.22-.28.33l-.17.21.12.1c.61.5,1.44.77,2.19.73.9-.05,1.5-.45,1.7-1.15.04-.13.05-.24.04-.49-.01-.3-.02-.34-.12-.54-.23-.46-.6-.68-1.67-.96-.88-.23-1.12-.4-1.12-.79,0-.4.31-.63.87-.63.41,0,.83.14,1.23.4.06.04.13.09.15.09.02.01.1-.07.21-.23.1-.14.21-.29.25-.35l.07-.09-.14-.1c-.23-.17-.69-.39-1-.46-.31-.08-.87-.11-1.12-.07Z"></path><path class="cls-1" d="m88.07,6.6c-.27.06-.62.2-.88.35-.21.13-.58.48-.75.7-.52.72-.64,1.71-.33,2.58.29.79.9,1.36,1.77,1.62.24.07.29.08.79.08s.55,0,.79-.08c.99-.3,1.65-1,1.89-1.99.08-.33.09-.87.01-1.2-.18-.83-.7-1.49-1.46-1.86-.38-.18-.63-.24-1.15-.25-.36,0-.49,0-.7.04Zm1.19.88c.86.3,1.35,1.21,1.17,2.18-.13.71-.68,1.28-1.36,1.42-.4.08-.79.03-1.17-.15-.16-.08-.27-.16-.45-.34-.38-.38-.54-.79-.54-1.36,0-.35.05-.58.21-.9.22-.45.66-.8,1.15-.91.28-.06.71-.04.98.05Z"></path><path class="cls-1" d="m95.54,6.67s-.3.91-.64,1.94c-.34,1.03-.62,1.88-.63,1.88s-.29-.87-.63-1.93l-.62-1.93h-.5c-.46,0-.5,0-.48.05,0,.03.41,1.18.88,2.56.47,1.38.88,2.55.9,2.6l.04.09h.77l.29-.86c.16-.47.45-1.32.64-1.88s.36-1.02.37-1.01c0,0,.3.85.65,1.87l.64,1.86h.79l.79-2.27c.43-1.25.85-2.44.92-2.64l.13-.37h-.97l-.61,1.9c-.34,1.05-.62,1.92-.63,1.93-.01.01-.31-.85-.66-1.92l-.64-1.94h-.39c-.37,0-.39,0-.41.06Z"></path><path class="cls-1" d="m58.84,9.25v2.62h1.49c1.42-.02,1.5-.02,1.71-.08.51-.14.87-.41,1.04-.76.16-.34.17-.81.02-1.15-.11-.26-.4-.51-.74-.65l-.18-.08.13-.08c.44-.26.68-.78.6-1.3-.09-.53-.44-.89-1.05-1.07-.15-.04-.35-.05-1.59-.06h-1.42s0,2.61,0,2.61Zm2.7-1.75c.31.12.45.32.45.63,0,.24-.09.41-.28.54-.22.15-.35.16-1.19.16h-.76v-.7s-.01-.7-.01-.7h.84c.71.02.86.03.97.07Zm.26,2.19c.21.07.41.27.46.45.07.27-.03.57-.24.72-.23.17-.32.18-1.35.2h-.94s0-.71,0-.71v-.72h.96c.86.02.97.03,1.11.07Z"></path><path class="cls-1" d="m64.45,9.25v2.62h.92v-5.24h-.92v2.62Z"></path><path class="cls-1" d="m80.31,9.25v2.62h.95v-2.22h1.25s1.24.01,1.24.01v1.1s.01,1.1.01,1.1h.92v-5.24h-.92v1.08s-.01,1.09-.01,1.09h-1.24s-1.25.01-1.25.01v-2.19h-.95v2.62Z"></path><path class="cls-1" d="m27.05,10.52c-.44.08-.68.59-.47,1,.2.41.76.51,1.09.19.14-.14.19-.24.21-.43.05-.48-.35-.85-.82-.76Zm.32.09c.14.04.31.19.38.33.08.17.05.46-.06.62-.25.35-.77.35-1.01-.01-.08-.12-.09-.16-.09-.33,0-.44.37-.73.79-.61Z"></path><path class="cls-1" d="m26.9,11.18v.38h.09c.08,0,.09,0,.09-.12,0-.1,0-.12.07-.12.04,0,.09.03.14.12.06.1.09.12.17.12h.09l-.05-.08s-.07-.1-.09-.13c-.03-.05-.03-.06.04-.12.09-.08.1-.25,0-.34-.05-.05-.1-.06-.31-.07h-.24s0,.37,0,.37Zm.43-.19c.09.09,0,.2-.16.2-.08,0-.09,0-.09-.12q0-.12.11-.12c.06,0,.12.01.14.03Z"></path></svg> 