<?xml version="1.0" encoding="UTF-8"?> <svg xmlns:xlink="http://www.w3.org/1999/xlink" xmlns="http://www.w3.org/2000/svg" id="Layer_1" data-name="Layer 1" viewBox="0 0 934 324" width="934" height="324"><defs><style> .cls-1 { fill: #ecebea; } </style></defs><g><path class="cls-1" d="M0,183.8c0-54.49,34.83-87.68,91.78-87.68S184,129.31,184,183.8v45.89c.4,54.5-35.24,87.69-92.2,87.69S0,284.19,0,229.69Zm62.28,41.39c-.41,25.81,10.24,39.33,29.5,39.33S122.1,251,121.69,225.19V188.31C121.69,162.5,111,149,91.78,149s-29.5,13.53-29.5,39.34Z"></path><path class="cls-1" d="M225.36,100.21h54.5l4.5,17.62c12.3-12.29,34.42-21.71,54.09-21.71,50,0,67.61,29.5,67.61,77.44V313.28H343.78V178.89c0-19.26-6.15-27.87-23.77-27.87-11.47,0-23.76,7.38-32.37,17.62V313.28H225.36Z"></path><path class="cls-1" d="M539.23,317.38c-57,0-91.79-33.19-91.79-87.69V184.21c0-54.49,34.83-88.09,91.79-88.09s92.19,33.6,92.19,88.09v42.62H509.72v2.86c0,25.82,11.48,35.65,30.74,35.65,24.58,0,40.15-6.55,61.46-17.21L624,290.75C599.46,307.55,573.64,317.38,539.23,317.38Zm29.91-130.71v-2c0-24.17-9-36.47-29.91-36.47-19.26,0-30.74,11.07-30.74,36.47v2Z"></path></g></svg> 