<?xml version="1.0" encoding="UTF-8"?> <svg xmlns:xlink="http://www.w3.org/1999/xlink" xmlns="http://www.w3.org/2000/svg" id="seven" width="1060.7" height="324" viewBox="0 0 1060.7 324"><defs><style>.cls-1{fill:#ecebea;}</style></defs><path class="cls-1" d="m95.33,268.21c18.39,0,31.46-4.09,31.46-15.53,0-17.16-17.98-17.57-47.81-23.29-29.01-5.72-60.88-15.53-60.88-67.83,0-40.45,26.56-65.38,83.76-65.38,34.32,0,57.61,8.99,82.13,25.74l-20.84,40.04c-21.25-10.62-35.96-17.16-59.25-17.16-16.34,0-23.7,4.9-23.7,14.71,0,13.89,12.26,15.12,38,20.02,31.05,6.13,70.28,13.08,70.28,70.69,0,41.27-32.28,66.6-89.48,66.6-34.32,0-62.92-8.99-87.85-25.33l20.43-42.49c21.25,11.44,39.23,19.2,63.74,19.2Z"></path><path class="cls-1" d="m313.12,316.83c-56.8,0-91.53-33.1-91.53-87.44v-45.35c0-54.34,34.73-87.85,91.53-87.85s91.94,33.51,91.94,87.85v42.49h-121.35v2.86c0,25.74,11.44,35.55,30.65,35.55,24.52,0,40.04-6.54,61.29-17.16l22.06,42.5c-24.52,16.75-50.26,26.56-84.58,26.56Zm29.83-130.34v-2.04c0-24.11-8.99-36.36-29.83-36.36-19.2,0-30.65,11.03-30.65,36.36v2.04h60.47Z"></path><path class="cls-1" d="m415.68,100.27h65.78l38.82,132.79,37.18-132.79h65.38l-76.41,212.47h-54.75l-76-212.47Z"></path><path class="cls-1" d="m726.62,316.83c-56.8,0-91.53-33.1-91.53-87.44v-45.35c0-54.34,34.73-87.85,91.53-87.85s91.93,33.51,91.93,87.85v42.49h-121.35v2.86c0,25.74,11.44,35.55,30.64,35.55,24.52,0,40.04-6.54,61.29-17.16l22.06,42.5c-24.52,16.75-50.26,26.56-84.58,26.56Zm29.83-130.34v-2.04c0-24.11-8.99-36.36-29.83-36.36-19.2,0-30.65,11.03-30.65,36.36v2.04h60.47Z"></path><path class="cls-1" d="m977.1,274.75v-96.02c0-19.2-6.13-27.79-23.7-27.79-11.44,0-23.7,7.35-32.28,17.57v144.24h-62.11V100.27h54.34l4.49,17.57c12.26-12.26,34.32-21.66,53.94-21.66,49.85,0,67.42,29.42,67.42,77.23v80.9c0,9.81,4.09,13.48,11.44,13.48,2.86,0,6.13-.82,10.22-2.04l-.41,47.4c-13.89,2.45-26.15,3.68-36.77,3.68-29.42,0-46.58-10.21-46.58-42.09Z"></path></svg> 