<?xml version="1.0" encoding="UTF-8"?> <svg xmlns:xlink="http://www.w3.org/1999/xlink" xmlns="http://www.w3.org/2000/svg" id="six" width="1060.7" height="324" viewBox="0 0 1060.7 324"><defs><style>.cls-1{fill:#ecebea;}.cls-2{isolation:isolate;}</style></defs><g class="cls-2"><g class="cls-2"><path class="cls-1" d="m632.05,268.21c18.39,0,31.46-4.09,31.46-15.53,0-17.16-17.98-17.57-47.81-23.29-29.01-5.72-60.88-15.53-60.88-67.83,0-40.45,26.56-65.38,83.76-65.38,34.32,0,57.61,8.99,82.13,25.74l-20.84,40.04c-21.25-10.62-35.96-17.16-59.25-17.16-16.34,0-23.7,4.9-23.7,14.71,0,13.89,12.26,15.12,38,20.02,31.05,6.13,70.28,13.08,70.28,70.69,0,41.27-32.28,66.6-89.48,66.6-34.32,0-62.92-8.99-87.85-25.33l20.43-42.49c21.25,11.44,39.23,19.2,63.74,19.2Z"></path><path class="cls-1" d="m791,74.94c-20.84,0-36.37-10.21-36.37-33.1s15.53-33.91,36.37-33.91,37.18,10.62,37.18,33.91-16.34,33.1-37.18,33.1Zm31.46,25.33v212.47h-62.11V100.28h62.11Z"></path><path class="cls-1" d="m1059.04,100.28l-65.79,103.38,68.24,109.1h-71.1l-38-68.64-36.77,68.64h-71.1l68.24-109.1-65.38-103.38h72.32l33.5,62.52,33.91-62.52h71.91Z"></path></g></g></svg> 