<?xml version="1.0" encoding="UTF-8"?> <svg xmlns:xlink="http://www.w3.org/1999/xlink" xmlns="http://www.w3.org/2000/svg" id="Layer_1" data-name="Layer 1" viewBox="0 0 934 324" width="934" height="324"><defs><style> .cls-1 { fill: #ecebea; } </style></defs><g><path class="cls-1" d="M19.26,149.38H0V100.21H22.54l9.83-40.56H81.54v40.56h51.63v49.17H81.54v86.05c0,21.72,5.33,29.91,23.35,29.91a117.15,117.15,0,0,0,21.72-2.46l9,48.76A202.06,202.06,0,0,1,91,317.38c-54.49,0-71.7-22.95-71.7-77.44Z"></path><path class="cls-1" d="M160.21,6h62.28V115.79c11.06-11.07,32-19.67,50.81-19.67,52,0,67.61,29.5,67.61,77.44V313.28H278.63V178.89c0-19.26-6.56-27.87-24.18-27.87-11.47,0-22.94,6.56-32,16V313.28H160.21Z"></path><path class="cls-1" d="M384.34,100.21h54.5l5.32,22.13c12.71-13.11,38.93-26.22,59.83-26.22l4.91,56.54c-24.17,0-47.12,7.79-62.28,20.08V313.28H384.34Z"></path><path class="cls-1" d="M616.26,317.38c-57,0-91.78-33.19-91.78-87.69V184.21c0-54.49,34.82-88.09,91.78-88.09s92.19,33.6,92.19,88.09v42.62H586.76v2.86c0,25.82,11.47,35.65,30.73,35.65,24.58,0,40.15-6.55,61.46-17.21l22.13,42.62C676.49,307.55,650.68,317.38,616.26,317.38Zm29.91-130.71v-2c0-24.17-9-36.47-29.91-36.47-19.26,0-30.73,11.07-30.73,36.47v2Z"></path><path class="cls-1" d="M838.75,317.38c-57,0-91.78-33.19-91.78-87.69V184.21c0-54.49,34.83-88.09,91.78-88.09s92.19,33.6,92.19,88.09v42.62H809.25v2.86c0,25.82,11.47,35.65,30.73,35.65,24.59,0,40.16-6.55,61.46-17.21l22.13,42.62C899,307.55,873.17,317.38,838.75,317.38Zm29.91-130.71v-2c0-24.17-9-36.47-29.91-36.47-19.26,0-30.73,11.07-30.73,36.47v2Z"></path></g></svg> 