<?xml version="1.0" encoding="UTF-8"?> <svg xmlns:xlink="http://www.w3.org/1999/xlink" xmlns="http://www.w3.org/2000/svg" id="Layer_1" data-name="Layer 1" viewBox="0 0 934 324" width="934" height="324"><defs><style> .cls-1 { fill: #ecebea; } </style></defs><g><path class="cls-1" d="M312.82,149.38H293.56V100.21H316.1l9.83-40.56H375.1v40.56h51.63v49.17H375.1v86.05c0,21.72,5.33,29.91,23.36,29.91a117,117,0,0,0,21.71-2.46l9,48.76a201.89,201.89,0,0,1-44.66,5.74c-54.5,0-71.71-22.95-71.71-77.44Z"></path><path class="cls-1" d="M591.86,242.4l-26.23,70.88h-54.9L440.25,100.21h66l33.19,133.17L566,159.63,547.6,100.21h66l29.09,133.17,31.56-133.17h65.55L668.89,313.28H614Z"></path><path class="cls-1" d="M750,183.8c0-54.49,34.83-87.68,91.78-87.68S934,129.31,934,183.8v45.89c.41,54.5-35.24,87.69-92.2,87.69S750,284.19,750,229.69Zm62.28,41.39c-.41,25.81,10.25,39.33,29.5,39.33s30.33-13.52,29.92-39.33V188.31c0-25.81-10.66-39.34-29.92-39.34s-29.5,13.53-29.5,39.34Z"></path></g></svg> 