<?xml version="1.0" encoding="UTF-8"?> <svg xmlns="http://www.w3.org/2000/svg" id="Albert" viewBox="0 0 144 96"><defs><style> .cls-1, .cls-2, .cls-3 { fill: #fff; } .cls-2 { opacity: 0.8; } .cls-2, .cls-3 { isolation: isolate; } .cls-3 { opacity: 0.9; } </style></defs><title>bluecore</title><g><path class="cls-1" d="M54.2,50.17a3.28,3.28,0,0,1-3.28,3.28H44.74V42.54H50.2A3.29,3.29,0,0,1,53,47.61,3.27,3.27,0,0,1,54.2,50.17Zm-3.28,1.1A1.1,1.1,0,0,0,51,49.08H46.91v2.19Zm-.73-4.37a1.1,1.1,0,1,0,0-2.2H46.91v2.19Z"></path><path class="cls-1" d="M56.55,42.54h2.19v8.73h5.83v2.18h-8Z"></path><path class="cls-1" d="M75.87,48.72a4.73,4.73,0,1,1-9.46,0v-6.2h2.18v6.2a2.55,2.55,0,0,0,5.1.12V42.52h2.18v6.2Z"></path><path class="cls-1" d="M78.89,42.54h8v2.18H81.08V46.9h4.36v2.18H81.08v2.19h5.81v2.18h-8Z"></path><path class="cls-1" d="M94.66,42.54A5.43,5.43,0,0,1,99,44.7l.22.3L97.5,46.33l-.23-.3a3.28,3.28,0,1,0-2.62,5.26h0A3.25,3.25,0,0,0,97.27,50l.23-.3L99.23,51l-.21.28a5.46,5.46,0,1,1-4.36-8.75Z"></path><path class="cls-1" d="M106.44,53.45A5.47,5.47,0,1,1,111.91,48h0a5.46,5.46,0,0,1-5.46,5.46ZM103.16,48a3.28,3.28,0,1,0,3.28-3.29h0A3.27,3.27,0,0,0,103.16,48v0Z"></path><path class="cls-1" d="M122.63,53.45H120l-1.91-2.92H116.4v2.92h-2.19V42.54h4a4,4,0,0,1,2.11,7.4Zm-4.42-5.1a1.82,1.82,0,1,0,.13-3.63H116.4v3.63Z"></path><path class="cls-1" d="M125.13,42.54h8v2.18h-5.83V46.9h4.36v2.18h-4.36v2.19h5.83v2.18h-8Z"></path><path class="cls-2" d="M23.07,53.45a5.46,5.46,0,0,1-4.73-8.2l-7-4a3.55,3.55,0,0,0-.51,1.67V53.06a3.55,3.55,0,0,0,.51,1.68A3.26,3.26,0,0,0,12.58,56l8.79,5.09a3.27,3.27,0,0,0,1.7.41v-8Z"></path><path class="cls-1" d="M34.77,41.24l-7,4a5.46,5.46,0,0,1-4.73,8.19v8.06a3.47,3.47,0,0,0,1.7-.41L33.57,56a3.82,3.82,0,0,0,1.71-3V42.92A3.55,3.55,0,0,0,34.77,41.24Z"></path><path class="cls-3" d="M23.07,42.54a5.47,5.47,0,0,1,4.73,2.73l7-4A3.43,3.43,0,0,0,33.56,40l-8.79-5.08a3.79,3.79,0,0,0-3.41,0L12.56,40a3.51,3.51,0,0,0-1.21,1.27l7,4A5.51,5.51,0,0,1,23.07,42.54Z"></path><path class="cls-3" d="M18.34,45.27a5.46,5.46,0,0,0,4.73,8.19h0V48Z"></path><path class="cls-2" d="M23.07,53.45a5.47,5.47,0,0,0,4.73-8.2L23.07,48Z"></path><path class="cls-1" d="M23.07,42.54a5.43,5.43,0,0,0-4.73,2.73L23.07,48l4.73-2.73A5.47,5.47,0,0,0,23.07,42.54Z"></path></g></svg> 