<?xml version="1.0" encoding="UTF-8"?> <svg xmlns="http://www.w3.org/2000/svg" id="Albert" viewBox="0 0 144 96"><defs><style> .cls-1 { fill: #fff; } </style></defs><title>epilogue-systems-white-faux</title><g><path class="cls-1" d="M26,52.4c1.2-.54,2-2.15,1.94-4.15a5.28,5.28,0,0,0-2-4.15s20.76-.22,22.18-.27L34.58,30.28,16.37,48.49S21.8,53.9,26,52.4Z"></path><path class="cls-1" d="M18.18,50.26,33.62,65.72l5.26-5.25-9.07-9.08L26.4,52.8C22.38,54.47,18.18,50.26,18.18,50.26Z"></path><polygon class="cls-1" points="46.45 52.91 51.83 47.52 48.21 43.9 40.52 46.97 46.45 52.91"></polygon><polygon class="cls-1" points="40.02 59.34 45.32 54.04 38.91 47.63 31.41 50.73 40.02 59.34"></polygon><path class="cls-1" d="M57.21,42.21H55.37v-.33H66.53l.25,3.56h-.34c0-2.41-1.59-3.23-3.81-3.23H59.35V49h1.57c2.17,0,2.38-1.32,2.38-2.69h.34v5.57H63.3c0-1.59-.21-2.55-2.4-2.55H59.35v7h2.86c3.4,0,5-.4,5-4h.34v4.29H55.37v-.33h1.84Z"></path><path class="cls-1" d="M69.79,48.37H68.35V48h1.44a2.43,2.43,0,0,0,1.76-.46v2.15h0a3.2,3.2,0,0,1,2.89-2.14c2.51,0,4.17,2.6,4.17,4.65a4.42,4.42,0,0,1-4.32,4.65,3.14,3.14,0,0,1-2.74-1.78h0V62h1.61v.31H68.35v-.33h1.44Zm1.76,5.23a2.86,2.86,0,0,0,2.78,2.94c2.06,0,2.31-1.2,2.31-4.32,0-2.87-.32-4.31-2.16-4.31a3.19,3.19,0,0,0-2.93,3.24Z"></path><path class="cls-1" d="M81,48.37H79.3V48H81a2.44,2.44,0,0,0,1.76-.46v8.72h1.67v.33H79.3v-.33H81Zm.86-5.63a1.07,1.07,0,1,1-1,1.07h0A1.06,1.06,0,0,1,81.84,42.74Z"></path><path class="cls-1" d="M86,42.09H84.28v-.34H86a2.21,2.21,0,0,0,1.76-.52V56.29h1.67v.33H84.28v-.33H86Z"></path><path class="cls-1" d="M94.15,47.57a4.66,4.66,0,1,1-4.43,4.65A4.49,4.49,0,0,1,94.15,47.57Zm2.43,3.84c0-1.83-.09-3.5-2.43-3.5s-2.43,1.67-2.43,3.5V53c0,1.82.08,3.5,2.43,3.5s2.43-1.68,2.43-3.5Z"></path><path class="cls-1" d="M105.73,55.66a2.1,2.1,0,0,1,2.32,2.4c0,2.85-2.3,4.43-4.84,4.43-1.92,0-4-.69-4-2.7,0-1.17,1.2-2.06,2.1-2.46v0c-1.15,0-1.7-.79-1.7-1.94,0-1.48.71-2.05,2.05-2.08v0a2.74,2.74,0,0,1-1.57-2.38A3.58,3.58,0,0,1,106,48.47a2.23,2.23,0,0,1,1.61-.9,1,1,0,0,1,1.07.94.76.76,0,0,1-.84.74.67.67,0,0,1-.67-.65.81.81,0,0,1,.23-.69,1.76,1.76,0,0,0-1.19.77,3.24,3.24,0,0,1,.81,2.1c0,1.74-1.84,3.07-3.47,3.07a3.06,3.06,0,0,1-1.57-.37c-1.13,0-2,.33-2,1.32a.87.87,0,0,0,.86.86h5Zm-3.65,1.63a2.18,2.18,0,0,0-1.9,2.41c0,1.76,1.51,2.46,3.14,2.46,2.13,0,4.23-1.36,4.23-3.45,0-1.09-.88-1.4-2-1.4Zm1.45-3.77c1.72,0,1.72-1.32,1.72-2.81,0-1.67,0-2.8-1.72-2.8s-1.72,1.7-1.72,2.8c0,1.34,0,2.81,1.72,2.81Z"></path><path class="cls-1" d="M110.21,48.37h-1.68V48h1.68a2.43,2.43,0,0,0,1.76-.46v7.5a1.3,1.3,0,0,0,1.3,1.48c1.47,0,2.76-1.66,2.76-3.2v-5h-1.65V48H116a2.43,2.43,0,0,0,1.76-.46v8.72h1.67v.33H116V54.71h0A3.31,3.31,0,0,1,113,56.87c-2.09,0-2.84-1.11-2.84-2.32Z"></path><path class="cls-1" d="M121.79,53.37c0,1.48.19,3.17,2.15,3.17a3.32,3.32,0,0,0,3.35-2.89h.34a3.68,3.68,0,0,1-3.69,3.22c-2.46,0-4.17-1.88-4.17-4.65,0-2,1.63-4.65,3.92-4.65,2.46,0,3.74,2.77,3.74,3.65a.17.17,0,0,1-.14.19h-5.5Zm3.64-2.89c0-1.34-.35-2.57-1.74-2.57s-1.9,1.23-1.9,2.57v.59h3.49a.13.13,0,0,0,.15-.11v-.48Z"></path><path class="cls-1" d="M91.71,46.29a4.4,4.4,0,0,1-1.13-.2v-.62a3.11,3.11,0,0,0,1.23.35.86.86,0,0,0,.59-.2.65.65,0,0,0,.23-.51.71.71,0,0,0-.15-.44,2,2,0,0,0-.55-.4l-.3-.18a2.62,2.62,0,0,1-.79-.61.94.94,0,0,1-.23-.66A1,1,0,0,1,91,42a1.39,1.39,0,0,1,.94-.33,3.57,3.57,0,0,1,1.07.17v.57a3.13,3.13,0,0,0-1-.27.78.78,0,0,0-.53.17.56.56,0,0,0-.22.44.59.59,0,0,0,.16.39,2.26,2.26,0,0,0,.57.4l.31.18a2.86,2.86,0,0,1,.8.62,1.14,1.14,0,0,1,.23.69,1.16,1.16,0,0,1-.43.93A1.75,1.75,0,0,1,91.71,46.29Z"></path><path class="cls-1" d="M95.55,46.18V44.33l-1.48-2.57h.72l1.15,2,1.23-2h.58l-1.58,2.56v1.86Z"></path><path class="cls-1" d="M99.72,46.29a4.4,4.4,0,0,1-1.13-.2v-.62a3.11,3.11,0,0,0,1.23.35.85.85,0,0,0,.59-.2.65.65,0,0,0,.23-.51.71.71,0,0,0-.15-.44,2.1,2.1,0,0,0-.54-.4l-.31-.18a2.62,2.62,0,0,1-.79-.61,1,1,0,0,1-.24-.66A1.09,1.09,0,0,1,99,42a1.39,1.39,0,0,1,.94-.33,3.52,3.52,0,0,1,1.07.17v.57a3.13,3.13,0,0,0-1-.27.78.78,0,0,0-.53.17.56.56,0,0,0-.22.44.59.59,0,0,0,.16.39,2.26,2.26,0,0,0,.57.4l.31.18a2.73,2.73,0,0,1,.8.62,1,1,0,0,1,.23.69,1.16,1.16,0,0,1-.43.93A1.75,1.75,0,0,1,99.72,46.29Z"></path><path class="cls-1" d="M103.66,46.18V42.24h-1.57v-.47h3.76v.47h-1.57v3.94Z"></path><path class="cls-1" d="M106.93,46.18V41.76h2.46v.47h-1.84v1.42h1.54v.46h-1.54v1.6h2v.47Z"></path><path class="cls-1" d="M110.69,46.18V41.76h.87l1.23,3.42,1.26-3.42h.76v4.42h-.58v-3.6L113,45.88h-.6l-1.18-3.3v3.6Z"></path><path class="cls-1" d="M117.27,46.29a4.4,4.4,0,0,1-1.13-.2v-.62a3.11,3.11,0,0,0,1.23.35.85.85,0,0,0,.59-.2.62.62,0,0,0,.23-.51.71.71,0,0,0-.15-.44,2.1,2.1,0,0,0-.54-.4l-.31-.18a2.75,2.75,0,0,1-.79-.61.94.94,0,0,1-.23-.66,1,1,0,0,1,.37-.84,1.4,1.4,0,0,1,.94-.33,3.59,3.59,0,0,1,1.08.17v.57a3.19,3.19,0,0,0-1-.27.78.78,0,0,0-.53.17.52.52,0,0,0-.21.44.58.58,0,0,0,.15.39,2.26,2.26,0,0,0,.57.4l.32.18a2.82,2.82,0,0,1,.79.62,1,1,0,0,1,.23.69,1.18,1.18,0,0,1-.42.93A1.79,1.79,0,0,1,117.27,46.29Z"></path></g></svg> 