<?xml version="1.0" encoding="UTF-8"?> <svg xmlns="http://www.w3.org/2000/svg" id="Albert" viewBox="0 0 452.18 144.11"><defs><style>.cls-1{fill:#fff;}</style></defs><title>epilogue-systems-white-faux</title><path class="cls-1" d="M113,217.92c4.9-2.21,8.31-8.74,7.91-16.89-.57-11.94-8.08-16.86-8.08-16.86s84.35-.89,90.14-1.1L147.88,128l-74,74S95.94,224,113,217.92Z" transform="translate(-73.91 -127.95)"></path><path class="cls-1" d="M81.22,209.23,144,272.05l21.35-21.35L128.5,213.8l-13.87,5.72C98.3,226.31,81.22,209.23,81.22,209.23Z" transform="translate(-73.91 -127.95)"></path><polygon class="cls-1" points="122.22 92.02 144.11 70.13 129.39 55.42 98.11 67.9 122.22 92.02"></polygon><polygon class="cls-1" points="96.09 118.15 117.62 96.62 91.59 70.59 61.11 83.17 96.09 118.15"></polygon><path class="cls-1" d="M239.87,176.5h-7.49v-1.36h45.37l1,14.47h-1.36c0-9.79-6.47-13.11-15.5-13.11H248.55v27.41h6.39c8.85,0,9.7-5.36,9.7-10.9H266v22.64h-1.36c0-6.46-.85-10.38-9.79-10.38h-6.3V233.7h11.66c13.79,0,20.43-1.62,20.43-16.09H282v17.45H232.38V233.7h7.49Z" transform="translate(-73.91 -127.95)"></path><path class="cls-1" d="M291,201.52h-5.87v-1.36H291c2.72,0,5.45-.17,7.15-1.87V207h.17c1.53-4,5.62-8.68,11.75-8.68,10.21,0,16.93,10.55,16.93,18.9,0,9.95-6.89,18.89-17.53,18.89a12.71,12.71,0,0,1-11.15-7.23h-.17v27.83h6.55V258H285.15v-1.36H291Zm7.15,21.28c0,6.64,5.11,11.92,11.32,11.92,8.34,0,9.36-4.85,9.36-17.53,0-11.67-1.27-17.54-8.76-17.54-7.07,0-11.92,7-11.92,13.19Z" transform="translate(-73.91 -127.95)"></path><path class="cls-1" d="M336.47,201.52h-6.81v-1.36h6.81c2.72,0,5.44-.17,7.15-1.87V233.7h6.81v1.36H329.66V233.7h6.81ZM340,178.63A4.34,4.34,0,1,1,335.7,183,4.36,4.36,0,0,1,340,178.63Z" transform="translate(-73.91 -127.95)"></path><path class="cls-1" d="M356.72,176h-6.81v-1.36h6.81c2.73,0,5.45-.17,7.15-2.13v61.2h6.81v1.36H349.91V233.7h6.81Z" transform="translate(-73.91 -127.95)"></path><path class="cls-1" d="M390,198.29c11,0,18.05,9.11,18.05,18.9S401,236.08,390,236.08s-18-9.11-18-18.89S379,198.29,390,198.29Zm9.88,15.58c0-7.41-.35-14.22-9.88-14.22s-9.87,6.81-9.87,14.22v6.63c0,7.41.34,14.22,9.87,14.22s9.88-6.81,9.88-14.22Z" transform="translate(-73.91 -127.95)"></path><path class="cls-1" d="M437.07,231.14c4.76,0,9.44,2,9.44,9.79,0,11.58-9.36,18-19.66,18-7.83,0-16.42-2.81-16.42-11,0-4.76,4.85-8.34,8.51-10v-.17c-4.68,0-6.9-3.23-6.9-7.91,0-6,2.9-8.34,8.34-8.43v-.17c-3.83-2.47-6.38-5.11-6.38-9.7,0-7.58,6.55-13.28,14.13-13.28,4,0,7.58,1.19,10,3.66,1.53-1.7,3.66-3.66,6.55-3.66,2.47,0,4.34,1.36,4.34,3.83,0,2-1.61,3-3.4,3a2.72,2.72,0,0,1-2.72-2.64c0-1.79.42-2.3.93-2.81a7.24,7.24,0,0,0-4.85,3.15,13.18,13.18,0,0,1,3.32,8.51c0,7.07-7.49,12.51-14.13,12.51a12.68,12.68,0,0,1-6.38-1.53c-4.6.09-8.34,1.36-8.34,5.36a3.51,3.51,0,0,0,3.74,3.49Zm-14.81,6.64c-5.11,1.11-7.75,4.09-7.75,9.79,0,7.15,6.13,10,12.77,10,8.68,0,17.19-5.53,17.19-14,0-4.43-3.57-5.71-8-5.71Zm5.87-15.32c7,0,7-5.36,7-11.4,0-6.81,0-11.41-7-11.41s-7,6.9-7,11.41C421.15,216.5,421.15,222.46,428.13,222.46Z" transform="translate(-73.91 -127.95)"></path><path class="cls-1" d="M455.28,201.52h-6.81v-1.36h6.81c2.72,0,5.45-.17,7.15-1.87v30.47c0,3.66,2,6,5.28,6,6,0,11.23-6.72,11.23-13V201.52h-6.72v-1.36h6.72c2.72,0,5.45-.17,7.15-1.87V233.7h6.81v1.36h-14v-7.75h-.17c-.77,2-4.34,8.77-11.92,8.77-8.51,0-11.57-4.51-11.57-9.45Z" transform="translate(-73.91 -127.95)"></path><path class="cls-1" d="M502.34,221.87c-.08,6,.77,12.85,8.77,12.85,7.15,0,12.43-4.77,13.62-11.75h1.36c-1.36,7.83-7.15,13.11-15,13.11-10,0-16.94-7.66-16.94-18.89,0-8.26,6.64-18.9,15.92-18.9,10,0,15.23,11.23,15.23,14.81a.68.68,0,0,1-.76.77H502.34Zm14.81-11.75c0-5.45-1.44-10.47-7.06-10.47-6,0-7.75,5-7.75,10.47v2.38h14.22a.53.53,0,0,0,.59-.59Z" transform="translate(-73.91 -127.95)"></path><path class="cls-1" d="M380.11,193.06a18.07,18.07,0,0,1-4.62-.79v-2.52a12.63,12.63,0,0,0,5,1.4,3.56,3.56,0,0,0,2.42-.79,2.58,2.58,0,0,0,.91-2.07,2.75,2.75,0,0,0-.6-1.79,8,8,0,0,0-2.21-1.65l-1.23-.72a11.49,11.49,0,0,1-3.23-2.46,4.13,4.13,0,0,1-.94-2.7,4.37,4.37,0,0,1,1.5-3.41,5.55,5.55,0,0,1,3.83-1.34,15.2,15.2,0,0,1,4.37.69v2.33a12.92,12.92,0,0,0-4.23-1.12,3.34,3.34,0,0,0-2.18.71,2.18,2.18,0,0,0-.86,1.77,2.28,2.28,0,0,0,.63,1.58,10,10,0,0,0,2.31,1.65l1.28.73a11.17,11.17,0,0,1,3.25,2.5,4.44,4.44,0,0,1,.92,2.82,4.64,4.64,0,0,1-1.73,3.76A7,7,0,0,1,380.11,193.06Z" transform="translate(-73.91 -127.95)"></path><path class="cls-1" d="M395.7,192.61v-7.49l-6-10.45h2.91l4.66,8.1,5-8.1h2.36l-6.41,10.4v7.54Z" transform="translate(-73.91 -127.95)"></path><path class="cls-1" d="M412.67,193.06a18.07,18.07,0,0,1-4.62-.79v-2.52a12.63,12.63,0,0,0,5,1.4,3.56,3.56,0,0,0,2.42-.79,2.58,2.58,0,0,0,.91-2.07,2.75,2.75,0,0,0-.6-1.79,8,8,0,0,0-2.21-1.65l-1.24-.72a11.8,11.8,0,0,1-3.23-2.46,4.19,4.19,0,0,1-.94-2.7,4.37,4.37,0,0,1,1.51-3.41,5.55,5.55,0,0,1,3.83-1.34,15.2,15.2,0,0,1,4.37.69v2.33a12.92,12.92,0,0,0-4.23-1.12,3.34,3.34,0,0,0-2.18.71,2.18,2.18,0,0,0-.86,1.77,2.28,2.28,0,0,0,.63,1.58,10.16,10.16,0,0,0,2.3,1.65l1.29.73a11.17,11.17,0,0,1,3.25,2.5,4.44,4.44,0,0,1,.92,2.82,4.64,4.64,0,0,1-1.73,3.76A7,7,0,0,1,412.67,193.06Z" transform="translate(-73.91 -127.95)"></path><path class="cls-1" d="M428.65,192.61v-16h-6.37v-1.9h15.28v1.9h-6.37v16Z" transform="translate(-73.91 -127.95)"></path><path class="cls-1" d="M441.94,192.61V174.67h10v1.9h-7.47v5.76h6.26v1.88h-6.26v6.49h8v1.91Z" transform="translate(-73.91 -127.95)"></path><path class="cls-1" d="M457.26,192.61V174.67h3.52l5,13.88,5.12-13.88H474v17.94h-2.38V178l-4.94,13.4h-2.46L459.44,178v14.63Z" transform="translate(-73.91 -127.95)"></path><path class="cls-1" d="M484,193.06a18.07,18.07,0,0,1-4.61-.79v-2.52a12.63,12.63,0,0,0,5,1.4,3.52,3.52,0,0,0,2.41-.79,2.56,2.56,0,0,0,.92-2.07,2.75,2.75,0,0,0-.6-1.79,8.15,8.15,0,0,0-2.21-1.65l-1.24-.72a11.65,11.65,0,0,1-3.23-2.46,4.13,4.13,0,0,1-.94-2.7,4.34,4.34,0,0,1,1.51-3.41,5.54,5.54,0,0,1,3.83-1.34,15.2,15.2,0,0,1,4.37.69v2.33a12.92,12.92,0,0,0-4.23-1.12,3.32,3.32,0,0,0-2.18.71,2.18,2.18,0,0,0-.86,1.77,2.28,2.28,0,0,0,.63,1.58,10.16,10.16,0,0,0,2.3,1.65l1.29.73a11,11,0,0,1,3.24,2.5,4.39,4.39,0,0,1,.93,2.82,4.64,4.64,0,0,1-1.73,3.76A7,7,0,0,1,484,193.06Z" transform="translate(-73.91 -127.95)"></path></svg> 