<?xml version="1.0" encoding="UTF-8"?> <svg xmlns="http://www.w3.org/2000/svg" id="Albert" viewBox="0 0 144 96"><defs><style> .cls-1 { fill: #fff; } </style></defs><title>grapeshot-white</title><g><path class="cls-1" d="M87.67,52.05a5.22,5.22,0,0,1-4.43-2.23.2.2,0,0,1,.05-.28h0l1.5-1a.21.21,0,0,1,.28.06,3,3,0,0,0,2.59,1.23c.37,0,2.25-.06,2.28-1.35a.6.6,0,0,0-.17-.49,1.78,1.78,0,0,0-1.22-.38H87.18a4.28,4.28,0,0,1-3.13-1.11,3.08,3.08,0,0,1-.84-2.27c.05-1.65,1.63-3.32,4.57-3.32a5.59,5.59,0,0,1,4.15,1.86.21.21,0,0,1,0,.29h0l-1.46,1.06a.2.2,0,0,1-.26,0,3.46,3.46,0,0,0-2.39-1c-1.61,0-2.35.69-2.37,1.19a.91.91,0,0,0,.22.67,2.27,2.27,0,0,0,1.56.44h1.38a3.87,3.87,0,0,1,2.8,1,2.79,2.79,0,0,1,.79,2.08c-.07,2.42-2.3,3.51-4.48,3.51"></path><path class="cls-1" d="M29,44.15a3.33,3.33,0,1,1-1,2.35,3.29,3.29,0,0,1,1-2.35m-.49,14.74h0a2.33,2.33,0,0,1-.68-1.35v-.19A2.2,2.2,0,0,1,30,55.1h2.79a2.13,2.13,0,0,1,2.11,2.22,2.27,2.27,0,0,1-1.06,1.85h0l-.25.14a5.15,5.15,0,0,1-4.39,0h0a2.47,2.47,0,0,1-.62-.41l0,0m6.66-5a4.13,4.13,0,0,0-2.37-.81H29.58a1,1,0,0,1-.57-.19,1.09,1.09,0,0,1-.32-.44.69.69,0,0,1,.19-.72l.19-.17a5.58,5.58,0,1,0-1.84-1.38h0a.23.23,0,0,1,0,.24.51.51,0,0,1-.09.16,2.68,2.68,0,0,0-.48,2.24,2.36,2.36,0,0,0,.53,1.1l.1.12a4.24,4.24,0,0,0-1.48,3.12v.09a5.83,5.83,0,0,0,0,.59,5,5,0,0,0,.28,1.07,4.28,4.28,0,0,0,1.7,2,3.89,3.89,0,0,0,.68.33,6.88,6.88,0,0,0,2,.48,8.46,8.46,0,0,0,.87.05,7.42,7.42,0,0,0,3.11-.65h0l0,0,.07,0a4.18,4.18,0,0,0,2-2.23,4.25,4.25,0,0,0-1.41-4.91"></path><path class="cls-1" d="M110.18,40.93a5.57,5.57,0,1,0,5.55,5.58h0a5.57,5.57,0,0,0-5.55-5.57m0,2.18a3.39,3.39,0,1,1-3.39,3.39,3.39,3.39,0,0,1,3.39-3.39"></path><path class="cls-1" d="M51.34,49.87a3.39,3.39,0,1,1,3.39-3.38h0a3.38,3.38,0,0,1-3.39,3.38m5.54-3.17v-.21a5.55,5.55,0,1,0-5.56,5.56A5.4,5.4,0,0,0,54.6,51h0a.06.06,0,0,1,.06.06h0v.87a.15.15,0,0,0,.15.15h1.87a.15.15,0,0,0,.15-.15v-5.2"></path><path class="cls-1" d="M63.83,49.85a3.37,3.37,0,1,1,3.36-3.37h0a3.36,3.36,0,0,1-3.36,3.36m0-8.92a5.54,5.54,0,0,0-5.54,5.55h0V56.85a.14.14,0,0,0,.15.15H60.3a.15.15,0,0,0,.15-.15h0V51a.06.06,0,0,1,.06-.06h0a5.55,5.55,0,1,0,3.28-10"></path><path class="cls-1" d="M103.2,45.66a4.83,4.83,0,0,0-7.45-3.95V36.12A.16.16,0,0,0,95.6,36H93.68a.14.14,0,0,0-.14.14h0v9.65h0v6.14a.14.14,0,0,0,.14.14H95.6a.15.15,0,0,0,.15-.14h0V45.75a2.62,2.62,0,1,1,5.24,0v6.16a.14.14,0,0,0,.14.14h1.93a.14.14,0,0,0,.14-.14V45.66"></path><path class="cls-1" d="M43.33,40.94a5,5,0,0,0-5,5v5.93a.15.15,0,0,0,.15.14h2a.13.13,0,0,0,.15-.14h0V46a2.74,2.74,0,0,1,2.72-2.73,2.78,2.78,0,0,1,1.4.38.15.15,0,0,0,.2,0l1.14-1.64a.15.15,0,0,0,0-.21h0a5,5,0,0,0-2.68-.78"></path><path class="cls-1" d="M124.79,51.07l-1.15-1.63a.14.14,0,0,0-.2,0,2.72,2.72,0,0,1-3.71-1,2.63,2.63,0,0,1-.37-1.37V43.13h3.94a.15.15,0,0,0,.14-.15h0V41.07a.14.14,0,0,0-.14-.15h-3.94V36.13a.15.15,0,0,0-.15-.15h-2a.15.15,0,0,0-.15.15V47.05a5,5,0,0,0,7.68,4.22.14.14,0,0,0,0-.2h0"></path><path class="cls-1" d="M73.08,45.44a3.37,3.37,0,0,1,6.41,0Zm8.75,1.05a5.54,5.54,0,1,0-.72,2.72h0a.08.08,0,0,0,0-.05.09.09,0,0,0,0-.12A.11.11,0,0,0,81,49H78.61a.11.11,0,0,0-.08,0l-.17.13h0a3.36,3.36,0,0,1-4.72-.56,3.47,3.47,0,0,1-.58-1.13h8.56a.14.14,0,0,0,.14-.11,2.5,2.5,0,0,0,.07-.54v-.31"></path><path class="cls-1" d="M25.85,37.59a3.34,3.34,0,1,1-3.34-3.33h0a3.33,3.33,0,0,1,3.33,3.33h0"></path></g></svg> 