<?xml version="1.0" encoding="UTF-8"?> <svg xmlns="http://www.w3.org/2000/svg" id="Albert" viewBox="0 0 293.49 160.45"><defs><style>.cls-1{fill:#fff;}</style></defs><title>levy-ratner</title><path class="cls-1" d="M53.85,72.42c-8.82-.21-17.54-.21-26.35-.21-9.24,0-18.37,0-27.5.21v-2.7c5.19.31,9.44-1,9.44-6.95V10.16C9.44,2.9,5.5,2.8,0,2.7V0C4.88.1,9.65.21,14.32.21S23.86.1,29.05,0V2.7c-5.5.1-9.44.2-9.44,7.46v48c0,7.68,1.66,10.9,16.39,10.9,12,0,16.19-2.91,19.41-13l2.28.41Z" transform="translate(0 0)"></path><path class="cls-1" d="M73.09,43.78c-.21.94-.21,2.49,0,6,.62,9.85,7,18,15.25,18,5.71,0,10.17-3.11,14-7l1.45,1.45C99,68.56,93.1,74,84.6,74,68.1,74,64.78,58,64.78,51.34,64.78,31,78.47,25,85.78,25c8.4,0,17.43,5.29,17.53,16.29a11.73,11.73,0,0,1-.1,1.87l-.94.62Zm18.36-3.32c2.6,0,2.91-1.35,2.91-2.59,0-5.29-3.22-9.55-9-9.55C79,28.32,74.68,33,73.43,40.46Z" transform="translate(0 0)"></path><path class="cls-1" d="M116.09,37.22c-3-7.89-4-8-8-8v-2.7c3.42.1,7,.21,10.38.21,3.63,0,7.15-.21,10.78-.21v2.7c-4.66,0-5.91.31-5.91,2.8,0,1.66,1.56,4.87,3.32,9.65l7.26,19.71L142.53,40a25.82,25.82,0,0,0,2.08-8c.1-2.18-1.14-2.39-5.5-2.8v-2.7c2.49.1,5,.21,7.47.21,3.11,0,6.23-.21,9.44-.21v2.71c-4.87,0-6.43,2.8-8.3,7.46L132.78,73.93h-2.59Z" transform="translate(0 0)"></path><path class="cls-1" d="M161.59,26.56c4,.1,8,.21,12,.21,3.11,0,6.22-.21,9.33-.21v2.66c-2,.2-5.7.1-5.7,2.8,0,2.9,9.33,23.65,10.47,27.91h.21c2.18-6,10.27-23.45,10.27-26.36,0-4.35-3.32-4.35-5.81-4.35v-2.7c3.22.1,6.54.21,9.76.21,2.59,0,5.18-.11,7.78-.21v2.7c-4.88-.11-6.33,2.69-8.2,6.63l-23.45,55c-1.55,3.63-3.63,5.19-6.64,5.19a4.88,4.88,0,0,1-5.08-4.67V91a5.31,5.31,0,0,1,5-5.19,5.23,5.23,0,0,1,4.25,1.56c5.09-10.79,7.27-16.7,7.27-16.7S169.35,35.43,168.11,33c-1.46-2.59-3.22-4.15-6.54-3.83Z" transform="translate(0 0)"></path><path class="cls-1" d="M19.61,124.65v24.07c0,7.26,3.94,7.36,9.44,7.47v2.7c-5,0-9.44-.21-14-.21-5,0-9.86.1-15,.21v-2.67c5.19.31,9.44-1,9.44-7V96.63c0-7.26-3.94-7.36-9.44-7.46v-2.7c5.71.1,10.69.21,15.77.21,3.63,0,7.26-.21,13.9-.21,19.61,0,24,11,24,18.36,0,8.82-6.64,15.36-14.73,17.74,9.44,13.8,14.42,22.1,18.88,27.08,3.32,3.74,6.43,6.54,11.72,6.54v2.7c-2.59,0-5.18-.21-7.78-.21-2.9,0-5.91.1-8.82.21-9.44-10.38-16.39-22.52-23.86-34.24Zm6.23-34.86a34.27,34.27,0,0,0-6.23.62v30.4a30.68,30.68,0,0,0,5.5.52c12.76,0,17.74-8.41,17.74-15.88,0-9-4.77-15.66-17-15.66Z" transform="translate(0 0)"></path><path class="cls-1" d="M119.14,154.84c-2.91,2.7-6.12,5.6-10.27,5.6s-6.23-3.94-6.44-7.68c-4.87,4.46-9.54,7.68-16,7.68-6.64,0-11.21-4.56-11.21-10.06.42-8.3,4.67-9.86,27.08-17.54V126c0-5.81-3.42-8.92-10.06-8.92-4.57,0-7.68,2.59-7.89,7.26,0,2.9-3.32,4.35-5.81,4.35a1.86,1.86,0,0,1-1.82-1.9,1,1,0,0,1,0-.17c0-5.5,4.67-8.09,11.93-11.83,3.64-1.87,5.4-3.32,9.34-3.32,4.67,0,12.66,3,12.66,8.72v28.73c0,4.26,1.45,5.92,3.73,5.92a5.15,5.15,0,0,0,3.84-1.76Zm-16.81-19c-5.29,2.08-18.78,4.46-18.78,12.25a7.5,7.5,0,0,0,7.37,7.47c4.87,0,8-3,11.41-6Z" transform="translate(0 0)"></path><path class="cls-1" d="M137.06,146.12c0,6.85,3.73,8.72,6.54,8.72s4.87-.93,7.26-3l1.56,1.56c-3.64,3.73-8.2,7-13.8,7-6.64,0-9.86-3.52-9.86-9.65V118.63h-6.85V117c5.4-4.15,8.61-6.12,13.91-14.52h1.24V113h15.46v5.6H137.06Z" transform="translate(0 0)"></path><path class="cls-1" d="M164.93,125.27c0-3.84-1.14-4.88-6-6.85v-2a136.81,136.81,0,0,0,13.7-5c.31,0,.62.21.62,1v6.8c5.92-4.25,11-7.78,17.95-7.78,8.82,0,11.93,6.44,11.93,14.53v26.76c0,3.43,2.29,3.43,5.19,3.43h1.87v2.7c-3.63,0-7.26-.21-11-.21s-7.47.1-11.21.21v-2.64h1.87c2.91,0,5,0,5-3.43v-26.9c0-5.91-3.63-8.81-9.54-8.81-3.32,0-8.61,2.69-12,5v30.71c0,3.43,2.28,3.43,5.19,3.43h1.87v2.7c-3.63,0-7.26-.21-11-.21s-7.47.1-11.21.21v-2.7H160c2.91,0,5,0,5-3.43Z" transform="translate(0 0)"></path><path class="cls-1" d="M223,130.22c-.21.94-.21,2.49,0,6,.62,9.85,6.95,17.95,15.25,17.95,5.71,0,10.17-3.11,14-6.95l1.46,1.5c-4.77,6.33-10.69,11.72-19.19,11.72-16.5,0-19.82-16-19.82-22.61,0-20.34,13.69-26.36,21-26.36,8.4,0,17.43,5.29,17.53,16.29a11.73,11.73,0,0,1-.1,1.87l-.94.62Zm18.36-3.32c2.6,0,2.91-1.35,2.91-2.59,0-5.29-3.22-9.55-9-9.55-6.33,0-10.68,4.67-11.93,12.14Z" transform="translate(0 0)"></path><path class="cls-1" d="M258.08,156.22h2.8c2.91,0,5,0,5-3.43V123.61c0-3.22-3.84-3.84-5.39-4.67v-1.56c7.57-3.21,11.72-5.91,12.65-5.91.63,0,.94.31.94,1.35v9.34h.2c2.6-4,7-10.69,13.28-10.69,2.6,0,5.92,1.77,5.92,5.5a5,5,0,0,1-4.7,5.28h-.18c-3.21,0-3.21-2.49-6.85-2.49a8.76,8.76,0,0,0-7.57,8.61v24.38c0,3.43,2.08,3.43,5,3.43H285v2.7c-5.71-.11-10.06-.21-14.52-.21-4.26,0-8.62.1-12.35.21Z" transform="translate(0 0)"></path></svg> 