<?xml version="1.0" encoding="UTF-8"?> <svg xmlns="http://www.w3.org/2000/svg" id="Layer_2" data-name="Layer 2" viewBox="0 0 144 96"><defs><style> .cls-1 { fill: #fff; } </style></defs><title>levy-ratner-white</title><g><path class="cls-1" d="M48.53,46C46.3,46,44.1,46,41.87,46s-4.64,0-6.94.05v-.68c1.31.08,2.38-.27,2.38-1.76V30.3c0-1.84-1-1.86-2.38-1.89v-.68c1.23,0,2.43.05,3.61.05s2.42,0,3.73-.05v.68c-1.39,0-2.39.05-2.39,1.89V42.44c0,1.94.42,2.75,4.14,2.75,3,0,4.09-.73,4.91-3.28l.57.11Z"></path><path class="cls-1" d="M53.39,38.79a6.93,6.93,0,0,0,0,1.52c.16,2.49,1.76,4.54,3.86,4.54a5,5,0,0,0,3.54-1.76l.36.37c-1.2,1.6-2.7,3-4.85,3-4.16,0-5-4-5-5.71,0-5.14,3.46-6.66,5.29-6.66A4.16,4.16,0,0,1,61,38.16a3.85,3.85,0,0,1,0,.48l-.24.15ZM58,38c.66,0,.74-.34.74-.65a2.22,2.22,0,0,0-2.28-2.41c-1.6,0-2.7,1.18-3,3.06Z"></path><path class="cls-1" d="M64.26,37.14c-.76-2-1-2-2-2v-.68c.86,0,1.76.05,2.62.05s1.81-.05,2.73-.05v.68c-1.18,0-1.5.08-1.5.71a13.07,13.07,0,0,0,.84,2.44l1.84,5,2.17-5.4a6.66,6.66,0,0,0,.53-2c0-.55-.29-.6-1.39-.71v-.68c.63,0,1.26.05,1.88.05.79,0,1.58-.05,2.39-.05v.68c-1.23,0-1.62.71-2.1,1.89l-3.77,9.41h-.66Z"></path><path class="cls-1" d="M75.75,34.44c1,0,2,.05,3,.05.78,0,1.57-.05,2.35-.05v.68c-.49.06-1.44,0-1.44.71s2.36,6,2.65,7.05h0C83,41.36,85,37,85,36.22c0-1.1-.84-1.1-1.47-1.1v-.68c.81,0,1.65.05,2.46.05.66,0,1.32,0,2-.05v.68c-1.23,0-1.6.68-2.07,1.68L80,50.69c-.4.92-.92,1.32-1.68,1.32A1.24,1.24,0,0,1,77,50.75a1.38,1.38,0,0,1,2.34-.92c1.28-2.73,1.83-4.22,1.83-4.22s-3.46-8.91-3.77-9.52a1.58,1.58,0,0,0-1.66-1Z"></path><path class="cls-1" d="M39.88,59.23v6.08c0,1.83,1,1.86,2.39,1.88v.69c-1.26,0-2.39-.06-3.54-.06s-2.49,0-3.8.06v-.69c1.31.08,2.38-.26,2.38-1.75V52.15c0-1.84-1-1.86-2.38-1.89v-.68c1.44,0,2.7.05,4,.05.92,0,1.84-.05,3.51-.05,5,0,6.06,2.78,6.06,4.64a4.82,4.82,0,0,1-3.72,4.48c2.38,3.49,3.64,5.58,4.77,6.84a3.77,3.77,0,0,0,3,1.65v.69c-.66,0-1.31-.06-2-.06s-1.49,0-2.22.06a61.16,61.16,0,0,1-6-8.65Zm1.57-8.81a9.5,9.5,0,0,0-1.57.15v7.69a8.75,8.75,0,0,0,1.39.13c3.22,0,4.48-2.13,4.48-4C45.75,52.1,44.55,50.42,41.45,50.42Z"></path><path class="cls-1" d="M65,66.85a4,4,0,0,1-2.6,1.42c-1.07,0-1.57-1-1.62-1.94a5.84,5.84,0,0,1-4,1.94,2.63,2.63,0,0,1-2.83-2.54c.1-2.1,1.18-2.49,6.84-4.43V59.57c0-1.47-.86-2.26-2.54-2.26a1.82,1.82,0,0,0-2,1.84c0,.73-.84,1.1-1.47,1.1a.47.47,0,0,1-.47-.53c0-1.39,1.18-2,3-3a4.45,4.45,0,0,1,2.36-.84c1.18,0,3.2.76,3.2,2.2v7.26c0,1.07.37,1.49.94,1.49a1.28,1.28,0,0,0,1-.44Zm-4.25-4.79c-1.34.52-4.74,1.12-4.74,3.09A1.9,1.9,0,0,0,57.9,67a4.34,4.34,0,0,0,2.88-1.52Z"></path><path class="cls-1" d="M69.56,64.65c0,1.73.94,2.2,1.65,2.2A2.56,2.56,0,0,0,73,66.09l.4.4A5,5,0,0,1,70,68.27a2.2,2.2,0,0,1-2.49-2.44V57.71H65.73v-.42a11.3,11.3,0,0,0,3.51-3.67h.32v2.67h3.9v1.42h-3.9Z"></path><path class="cls-1" d="M76.6,59.38c0-1-.29-1.23-1.52-1.73v-.5a33.51,33.51,0,0,0,3.46-1.25c.08,0,.16.05.16.26v1.7c1.49-1.07,2.78-2,4.53-2,2.23,0,3,1.62,3,3.67v6.76c0,.86.57.86,1.31.86H88v.69c-.92,0-1.84-.06-2.78-.06s-1.89,0-2.83.06v-.69h.47c.73,0,1.26,0,1.26-.86V59.54c0-1.49-.92-2.23-2.41-2.23a6.91,6.91,0,0,0-3,1.26v7.76c0,.86.57.86,1.31.86h.47v.69c-.92,0-1.84-.06-2.78-.06s-1.89,0-2.83.06v-.69h.47c.73,0,1.26,0,1.26-.86Z"></path><path class="cls-1" d="M91.28,60.64a5.79,5.79,0,0,0,0,1.52c.15,2.49,1.75,4.54,3.85,4.54a5,5,0,0,0,3.54-1.76l.37.37c-1.21,1.6-2.7,3-4.85,3-4.17,0-5-4-5-5.71,0-5.14,3.46-6.66,5.29-6.66A4.15,4.15,0,0,1,98.9,60a3.62,3.62,0,0,1,0,.47l-.24.16Zm4.64-.84c.65,0,.73-.34.73-.65a2.22,2.22,0,0,0-2.28-2.41c-1.6,0-2.7,1.17-3,3.06Z"></path><path class="cls-1" d="M100.13,67.19h.71c.74,0,1.26,0,1.26-.86V59c0-.81-1-1-1.36-1.18v-.39c1.91-.81,3-1.49,3.2-1.49s.23.08.23.34V58.6h0c.66-1,1.76-2.7,3.36-2.7a1.43,1.43,0,0,1,1.49,1.39,1.26,1.26,0,0,1-1.23,1.33c-.81,0-.81-.63-1.73-.63a2.22,2.22,0,0,0-1.91,2.18v6.16c0,.86.52.86,1.26.86h1.46v.69c-1.44,0-2.54-.06-3.67-.06s-2.17,0-3.12.06Z"></path></g></svg> 