<?xml version="1.0" encoding="UTF-8"?> <svg xmlns="http://www.w3.org/2000/svg" xmlns:xlink="http://www.w3.org/1999/xlink" id="Albert" viewBox="0 0 144 96"><defs><style> .cls-1 { fill: none; } .cls-2, .cls-4 { fill: #fff; } .cls-2 { fill-rule: evenodd; } .cls-3 { clip-path: url(#clip-path); } .cls-5 { clip-path: url(#clip-path-2); } .cls-6 { clip-path: url(#clip-path-3); } .cls-7 { clip-path: url(#clip-path-5); } .cls-8 { clip-path: url(#clip-path-7); } .cls-9 { clip-path: url(#clip-path-9); } .cls-10 { clip-path: url(#clip-path-11); } .cls-11 { clip-path: url(#clip-path-13); } .cls-12 { clip-path: url(#clip-path-15); } .cls-13 { clip-path: url(#clip-path-17); } .cls-14 { clip-path: url(#clip-path-19); } .cls-15 { clip-path: url(#clip-path-21); } .cls-16 { clip-path: url(#clip-path-23); } .cls-17 { clip-path: url(#clip-path-25); } .cls-18 { clip-path: url(#clip-path-27); } .cls-19 { clip-path: url(#clip-path-29); } </style><clipPath id="clip-path"><polygon class="cls-1" points="44.52 56.09 42.48 56.09 42.04 40.01 44.49 40.01 44.34 51.23 44.38 51.23 48.23 40.01 50.68 40.01 44.52 56.09"></polygon></clipPath><clipPath id="clip-path-2"><rect class="cls-1" x="14.82" y="35.57" width="114.4" height="25.03"></rect></clipPath><clipPath id="clip-path-3"><path class="cls-1" d="M52.31,40h2.3l-.41,2.31H51.9Zm-.81,4.63h2.3l-2,11.45H49.46Z"></path></clipPath><clipPath id="clip-path-5"><path class="cls-1" d="M58.47,55.05l-.52.46a2.73,2.73,0,0,1-.52.37,2.18,2.18,0,0,1-.61.25,2.47,2.47,0,0,1-.76.09,1.73,1.73,0,0,1-1.83-1.08,2.8,2.8,0,0,1-.13-1,9.58,9.58,0,0,1,.18-1.51l.77-4.36c.16-.82.29-1.43.4-1.83a2.58,2.58,0,0,1,.46-.94,3,3,0,0,1,.89-.75,2.78,2.78,0,0,1,1.36-.29,2.13,2.13,0,0,1,1.15.3,2.07,2.07,0,0,1,.76.87h0l1-5.67h2.3L60.6,56.09H58.28Zm-1.82-2.69a2,2,0,0,0,.07,1.13.77.77,0,0,0,.79.43,1.23,1.23,0,0,0,.9-.39,1.89,1.89,0,0,0,.5-1l.79-4.45a1.12,1.12,0,0,0-.17-.89.9.9,0,0,0-.77-.35,1.15,1.15,0,0,0-1,.4,2.11,2.11,0,0,0-.4,1Z"></path></clipPath><clipPath id="clip-path-7"><path class="cls-1" d="M65.85,51.23l-.28,1.56a1,1,0,0,0,.16.83,1,1,0,0,0,.77.3,1.09,1.09,0,0,0,.94-.39,2.27,2.27,0,0,0,.4-.77h2.31a4.59,4.59,0,0,1-.48,1.36,4,4,0,0,1-.88,1.08,4.32,4.32,0,0,1-1.23.75,4.12,4.12,0,0,1-1.47.27,3.2,3.2,0,0,1-1.76-.46,2.43,2.43,0,0,1-1-1.2,2.63,2.63,0,0,1-.15-1,8.06,8.06,0,0,1,.13-1.29L64,48.46a8.26,8.26,0,0,1,.32-1.28,3.54,3.54,0,0,1,.53-1,4,4,0,0,1,3.31-1.65,3.4,3.4,0,0,1,1.38.27,2.46,2.46,0,0,1,1,.76A2.81,2.81,0,0,1,71,46.68a4.11,4.11,0,0,1,0,1.4l-.56,3.15Zm.32-1.81h2.27l.23-1.31a1.25,1.25,0,0,0-.14-1,.89.89,0,0,0-.76-.33,1.31,1.31,0,0,0-.89.33,1.6,1.6,0,0,0-.48,1Z"></path></clipPath><clipPath id="clip-path-9"><path class="cls-1" d="M73,48.48a9.35,9.35,0,0,1,.32-1.29,3.79,3.79,0,0,1,.53-1,4,4,0,0,1,3.31-1.64,3,3,0,0,1,1.75.46,2.36,2.36,0,0,1,1,1.19,2.86,2.86,0,0,1,.16,1,9.42,9.42,0,0,1-.14,1.29l-.67,3.77a8.26,8.26,0,0,1-.32,1.28,3.5,3.5,0,0,1-.52,1,4,4,0,0,1-3.31,1.65,3.2,3.2,0,0,1-1.76-.46,2.45,2.45,0,0,1-1-1.2,2.77,2.77,0,0,1-.15-1,9.09,9.09,0,0,1,.13-1.29Zm1.58,4.13a1.24,1.24,0,0,0,.14,1,.88.88,0,0,0,.77.33,1.26,1.26,0,0,0,.88-.33,1.6,1.6,0,0,0,.48-1l.8-4.49a1.25,1.25,0,0,0-.13-1,.92.92,0,0,0-.77-.33,1.26,1.26,0,0,0-.89.33,1.72,1.72,0,0,0-.48,1Z"></path></clipPath><clipPath id="clip-path-11"><path class="cls-1" d="M83.31,40h2.3L83.34,52.86a1.13,1.13,0,0,0,.08.89,1.23,1.23,0,0,0,.84.3l-.38,2.17a7.5,7.5,0,0,1-1.42-.12,2,2,0,0,1-1-.48,1.69,1.69,0,0,1-.5-1A4.41,4.41,0,0,1,81,53Z"></path></clipPath><clipPath id="clip-path-13"><path class="cls-1" d="M88.41,40h2.3l-.4,2.31H88Zm-.82,4.63h2.3l-2,11.45H85.56Z"></path></clipPath><clipPath id="clip-path-15"><path class="cls-1" d="M92.82,52.79a1,1,0,0,0,.15.84,1,1,0,0,0,.78.29,1.11,1.11,0,0,0,.94-.38,2.7,2.7,0,0,0,.4-.77h2.3a4.34,4.34,0,0,1-.47,1.35A4.06,4.06,0,0,1,96,55.21a4.33,4.33,0,0,1-1.22.74,3.92,3.92,0,0,1-1.48.27,3.17,3.17,0,0,1-1.75-.46,2.36,2.36,0,0,1-1-1.19,2.86,2.86,0,0,1-.16-1,7.84,7.84,0,0,1,.14-1.29l.67-3.77a8.11,8.11,0,0,1,.32-1.29,3.75,3.75,0,0,1,.52-1,4,4,0,0,1,3.31-1.64,3.27,3.27,0,0,1,1.38.27,2.35,2.35,0,0,1,1,.75,2.74,2.74,0,0,1,.47,1.16,4.21,4.21,0,0,1,0,1.46H95.9a1.29,1.29,0,0,0-.13-1,.91.91,0,0,0-.77-.33,1.26,1.26,0,0,0-.88.33,1.6,1.6,0,0,0-.48,1Z"></path></clipPath><clipPath id="clip-path-17"><path class="cls-1" d="M101.58,40h2.31l-.41,2.31h-2.3Zm-.82,4.63h2.31l-2,11.45H98.73Z"></path></clipPath><clipPath id="clip-path-19"><path class="cls-1" d="M104.47,48.48a9.35,9.35,0,0,1,.32-1.29,3.88,3.88,0,0,1,3.84-2.68,3,3,0,0,1,1.76.46,2.36,2.36,0,0,1,1,1.19,2.86,2.86,0,0,1,.16,1,9.42,9.42,0,0,1-.14,1.29l-.67,3.76a10.12,10.12,0,0,1-.32,1.29,3.59,3.59,0,0,1-.53,1,4,4,0,0,1-3.3,1.65,3.2,3.2,0,0,1-1.76-.46,2.39,2.39,0,0,1-1-1.19,2.66,2.66,0,0,1-.16-1,9.09,9.09,0,0,1,.13-1.29Zm1.58,4.13a1.24,1.24,0,0,0,.14,1,.87.87,0,0,0,.77.33,1.26,1.26,0,0,0,.88-.33,1.6,1.6,0,0,0,.48-1l.8-4.49a1.25,1.25,0,0,0-.13-1,.92.92,0,0,0-.77-.33,1.26,1.26,0,0,0-.89.33,1.66,1.66,0,0,0-.48,1Z"></path></clipPath><clipPath id="clip-path-21"><path class="cls-1" d="M119,56.09H116.7l.19-1.11h0a4.18,4.18,0,0,1-1,.89,2.64,2.64,0,0,1-1.37.35,2.34,2.34,0,0,1-.83-.15,1.6,1.6,0,0,1-.7-.48,2.09,2.09,0,0,1-.39-.87,3.55,3.55,0,0,1,0-1.3l1.56-8.78h2.3L115,52.57a1.32,1.32,0,0,0,.12,1,.84.84,0,0,0,.77.36,1.14,1.14,0,0,0,1-.41,2.53,2.53,0,0,0,.46-1.17l1.37-7.7H121Z"></path></clipPath><clipPath id="clip-path-23"><path class="cls-1" d="M127,47.85a1,1,0,0,0-.22-.88,1.05,1.05,0,0,0-.75-.3,1.24,1.24,0,0,0-.9.35,1.52,1.52,0,0,0-.44.8,1.23,1.23,0,0,0,0,.63c.07.2.31.38.72.55l1.26.54a2.59,2.59,0,0,1,1.55,1.35,3.44,3.44,0,0,1,.15,1.88,3.82,3.82,0,0,1-.5,1.34,4.85,4.85,0,0,1-.92,1.1,4.33,4.33,0,0,1-1.22.74,3.86,3.86,0,0,1-1.43.27,3.34,3.34,0,0,1-1.25-.23,2.55,2.55,0,0,1-1-.65,2.74,2.74,0,0,1-.57-1.08,3.61,3.61,0,0,1-.05-1.5h2.18a2,2,0,0,0,.17.88c.13.28.41.41.85.41a1.61,1.61,0,0,0,1-.33,1.34,1.34,0,0,0,.56-.92,1.14,1.14,0,0,0-.1-.81,1.55,1.55,0,0,0-.81-.59l-1-.4a3,3,0,0,1-1.5-1.21,2.76,2.76,0,0,1-.28-1.95,3.89,3.89,0,0,1,.51-1.35,4.23,4.23,0,0,1,.92-1.06,4.47,4.47,0,0,1,1.2-.69,4,4,0,0,1,1.36-.25,3.23,3.23,0,0,1,1.26.26,2.43,2.43,0,0,1,1.4,1.76,3.45,3.45,0,0,1,0,1.32Z"></path></clipPath><clipPath id="clip-path-25"><path class="cls-1" d="M24.2,36.73c-1.3,4.87-5.4,8.06-9.38,7.32,3.87,1.1,6.09,5.76,5.09,10.67,1.3-4.87,5.41-8.07,9.39-7.32-3.88-1.11-6.1-5.76-5.1-10.67"></path></clipPath><clipPath id="clip-path-27"><path class="cls-1" d="M33.27,47.31c-1,3.56-3.94,5.89-6.85,5.34,2.83.81,4.45,4.21,3.72,7.79.95-3.55,3.94-5.89,6.85-5.34-2.83-.81-4.45-4.21-3.72-7.79"></path></clipPath><clipPath id="clip-path-29"><path class="cls-1" d="M33.79,35.56c-.72,2.7-3,4.47-5.2,4,2.15.62,3.38,3.2,2.82,5.91.72-2.69,3-4.46,5.2-4.05-2.15-.61-3.38-3.19-2.82-5.91"></path></clipPath></defs><title>videolicious-white</title><g><polygon class="cls-2" points="44.52 56.09 42.48 56.09 42.04 40.01 44.49 40.01 44.34 51.23 44.39 51.23 48.23 40.01 50.69 40.01 44.52 56.09"></polygon><g class="cls-3"><g><rect class="cls-4" x="14.82" y="35.57" width="114.4" height="25.03"></rect><g class="cls-5"><rect class="cls-4" x="39.49" y="37.46" width="13.75" height="21.18"></rect></g></g></g><path class="cls-2" d="M52.31,40h2.3l-.41,2.31H51.9Zm-.81,4.63h2.3l-2,11.45H49.46Z"></path><g class="cls-6"><g><rect class="cls-4" x="14.82" y="35.57" width="114.4" height="25.03"></rect><g class="cls-5"><rect class="cls-4" x="46.9" y="37.46" width="10.27" height="21.18"></rect></g></g></g><path class="cls-2" d="M58.47,55.05l-.52.46a2.73,2.73,0,0,1-.52.37,2.18,2.18,0,0,1-.61.25,2.47,2.47,0,0,1-.76.09,1.73,1.73,0,0,1-1.83-1.08,2.8,2.8,0,0,1-.13-1,9.58,9.58,0,0,1,.18-1.51l.77-4.36c.16-.82.29-1.43.4-1.83a2.58,2.58,0,0,1,.46-.94,3,3,0,0,1,.89-.75,2.78,2.78,0,0,1,1.36-.29,2.13,2.13,0,0,1,1.15.3,2.07,2.07,0,0,1,.76.87h0l1-5.67h2.3L60.6,56.09H58.28Zm-1.82-2.69a2,2,0,0,0,.07,1.13.77.77,0,0,0,.79.43,1.23,1.23,0,0,0,.9-.39,1.89,1.89,0,0,0,.5-1l.79-4.45a1.12,1.12,0,0,0-.17-.89.9.9,0,0,0-.77-.35,1.15,1.15,0,0,0-1,.4,2.11,2.11,0,0,0-.4,1Z"></path><g class="cls-7"><g><rect class="cls-4" x="14.82" y="35.57" width="114.4" height="25.03"></rect><g class="cls-5"><rect class="cls-4" x="51.55" y="37.46" width="14.45" height="21.32"></rect></g></g></g><path class="cls-2" d="M65.85,51.23l-.28,1.56a1,1,0,0,0,.16.83,1,1,0,0,0,.77.3,1.09,1.09,0,0,0,.94-.39,2.27,2.27,0,0,0,.4-.77h2.31a4.59,4.59,0,0,1-.48,1.36,4,4,0,0,1-.88,1.08,4.32,4.32,0,0,1-1.23.75,4.12,4.12,0,0,1-1.47.27,3.2,3.2,0,0,1-1.76-.46,2.43,2.43,0,0,1-1-1.2,2.63,2.63,0,0,1-.15-1,8.06,8.06,0,0,1,.13-1.29L64,48.46a8.26,8.26,0,0,1,.32-1.28,3.54,3.54,0,0,1,.53-1,4,4,0,0,1,3.31-1.65,3.4,3.4,0,0,1,1.38.27,2.46,2.46,0,0,1,1,.76A2.81,2.81,0,0,1,71,46.68a4.11,4.11,0,0,1,0,1.4l-.56,3.15Zm.32-1.81h2.27l.23-1.31a1.25,1.25,0,0,0-.14-1,.89.89,0,0,0-.76-.33,1.31,1.31,0,0,0-.89.33,1.6,1.6,0,0,0-.48,1Z"></path><g class="cls-8"><g><rect class="cls-4" x="14.82" y="35.57" width="114.4" height="25.03"></rect><g class="cls-5"><rect class="cls-4" x="60.66" y="41.95" width="12.95" height="16.82"></rect></g></g></g><path class="cls-2" d="M73,48.48a9.35,9.35,0,0,1,.32-1.29,3.79,3.79,0,0,1,.53-1,4,4,0,0,1,3.31-1.64,3,3,0,0,1,1.75.46,2.36,2.36,0,0,1,1,1.19,2.86,2.86,0,0,1,.16,1,9.42,9.42,0,0,1-.14,1.29l-.67,3.77a8.26,8.26,0,0,1-.32,1.28,3.5,3.5,0,0,1-.52,1,4,4,0,0,1-3.31,1.65,3.2,3.2,0,0,1-1.76-.46,2.45,2.45,0,0,1-1-1.2,2.77,2.77,0,0,1-.15-1,9.09,9.09,0,0,1,.13-1.29Zm1.58,4.13a1.24,1.24,0,0,0,.14,1,.88.88,0,0,0,.77.33,1.26,1.26,0,0,0,.88-.33,1.6,1.6,0,0,0,.48-1l.8-4.49a1.25,1.25,0,0,0-.13-1,.92.92,0,0,0-.77-.33,1.26,1.26,0,0,0-.89.33,1.72,1.72,0,0,0-.48,1Z"></path><g class="cls-9"><g><rect class="cls-4" x="14.82" y="35.57" width="114.4" height="25.03"></rect><g class="cls-5"><rect class="cls-4" x="69.62" y="41.95" width="12.95" height="16.82"></rect></g></g></g><path class="cls-2" d="M83.31,40h2.3L83.34,52.86a1.13,1.13,0,0,0,.08.89,1.23,1.23,0,0,0,.84.3l-.38,2.17a7.5,7.5,0,0,1-1.42-.12,2,2,0,0,1-1-.48,1.69,1.69,0,0,1-.5-1A4.41,4.41,0,0,1,81,53Z"></path><g class="cls-10"><g><rect class="cls-4" x="14.82" y="35.57" width="114.4" height="25.03"></rect><g class="cls-5"><rect class="cls-4" x="78.35" y="37.46" width="9.83" height="21.32"></rect></g></g></g><path class="cls-2" d="M88.41,40h2.3l-.4,2.31H88Zm-.82,4.63h2.3l-2,11.45H85.56Z"></path><g class="cls-11"><g><rect class="cls-4" x="14.82" y="35.57" width="114.4" height="25.03"></rect><g class="cls-5"><rect class="cls-4" x="83.01" y="37.46" width="10.27" height="21.18"></rect></g></g></g><path class="cls-2" d="M92.82,52.79a1,1,0,0,0,.15.84,1,1,0,0,0,.78.29,1.11,1.11,0,0,0,.94-.38,2.7,2.7,0,0,0,.4-.77h2.3a4.34,4.34,0,0,1-.47,1.35A4.06,4.06,0,0,1,96,55.21a4.33,4.33,0,0,1-1.22.74,3.92,3.92,0,0,1-1.48.27,3.17,3.17,0,0,1-1.75-.46,2.36,2.36,0,0,1-1-1.19,2.86,2.86,0,0,1-.16-1,7.84,7.84,0,0,1,.14-1.29l.67-3.77a8.11,8.11,0,0,1,.32-1.29,3.75,3.75,0,0,1,.52-1,4,4,0,0,1,3.31-1.64,3.27,3.27,0,0,1,1.38.27,2.35,2.35,0,0,1,1,.75,2.74,2.74,0,0,1,.47,1.16,4.21,4.21,0,0,1,0,1.46H95.9a1.29,1.29,0,0,0-.13-1,.91.91,0,0,0-.77-.33,1.26,1.26,0,0,0-.88.33,1.6,1.6,0,0,0-.48,1Z"></path><g class="cls-12"><g><rect class="cls-4" x="14.82" y="35.57" width="114.4" height="25.03"></rect><g class="cls-5"><rect class="cls-4" x="87.91" y="41.95" width="12.94" height="16.82"></rect></g></g></g><path class="cls-2" d="M101.58,40h2.31l-.41,2.31h-2.3Zm-.82,4.63h2.31l-2,11.45H98.73Z"></path><g class="cls-13"><g><rect class="cls-4" x="14.82" y="35.57" width="114.4" height="25.03"></rect><g class="cls-5"><rect class="cls-4" x="96.18" y="37.46" width="10.27" height="21.18"></rect></g></g></g><path class="cls-2" d="M104.47,48.48a9.35,9.35,0,0,1,.32-1.29,3.88,3.88,0,0,1,3.84-2.68,3,3,0,0,1,1.76.46,2.36,2.36,0,0,1,1,1.19,2.86,2.86,0,0,1,.16,1,9.42,9.42,0,0,1-.14,1.29l-.67,3.76a10.12,10.12,0,0,1-.32,1.29,3.59,3.59,0,0,1-.53,1,4,4,0,0,1-3.3,1.65,3.2,3.2,0,0,1-1.76-.46,2.39,2.39,0,0,1-1-1.19,2.66,2.66,0,0,1-.16-1,9.09,9.09,0,0,1,.13-1.29Zm1.58,4.13a1.24,1.24,0,0,0,.14,1,.87.87,0,0,0,.77.33,1.26,1.26,0,0,0,.88-.33,1.6,1.6,0,0,0,.48-1l.8-4.49a1.25,1.25,0,0,0-.13-1,.92.92,0,0,0-.77-.33,1.26,1.26,0,0,0-.89.33,1.66,1.66,0,0,0-.48,1Z"></path><g class="cls-14"><g><rect class="cls-4" x="14.82" y="35.57" width="114.4" height="25.03"></rect><g class="cls-5"><rect class="cls-4" x="101.11" y="41.95" width="12.95" height="16.82"></rect></g></g></g><path class="cls-2" d="M119,56.09H116.7l.19-1.11h0a4.18,4.18,0,0,1-1,.89,2.64,2.64,0,0,1-1.37.35,2.34,2.34,0,0,1-.83-.15,1.6,1.6,0,0,1-.7-.48,2.09,2.09,0,0,1-.39-.87,3.55,3.55,0,0,1,0-1.3l1.56-8.78h2.3L115,52.57a1.32,1.32,0,0,0,.12,1,.84.84,0,0,0,.77.36,1.14,1.14,0,0,0,1-.41,2.53,2.53,0,0,0,.46-1.17l1.37-7.7H121Z"></path><g class="cls-15"><g><rect class="cls-4" x="14.82" y="35.57" width="114.4" height="25.03"></rect><g class="cls-5"><rect class="cls-4" x="109.94" y="42.09" width="13.66" height="16.69"></rect></g></g></g><path class="cls-2" d="M127,47.85a1,1,0,0,0-.22-.88,1.05,1.05,0,0,0-.75-.3,1.24,1.24,0,0,0-.9.35,1.52,1.52,0,0,0-.44.8,1.23,1.23,0,0,0,0,.63c.07.2.31.38.72.55l1.26.54a2.59,2.59,0,0,1,1.55,1.35,3.44,3.44,0,0,1,.15,1.88,3.82,3.82,0,0,1-.5,1.34,4.85,4.85,0,0,1-.92,1.1,4.33,4.33,0,0,1-1.22.74,3.86,3.86,0,0,1-1.43.27,3.34,3.34,0,0,1-1.25-.23,2.55,2.55,0,0,1-1-.65,2.74,2.74,0,0,1-.57-1.08,3.61,3.61,0,0,1-.05-1.5h2.18a2,2,0,0,0,.17.88c.13.28.41.41.85.41a1.61,1.61,0,0,0,1-.33,1.34,1.34,0,0,0,.56-.92,1.14,1.14,0,0,0-.1-.81,1.55,1.55,0,0,0-.81-.59l-1-.4a3,3,0,0,1-1.5-1.21,2.76,2.76,0,0,1-.28-1.95,3.89,3.89,0,0,1,.51-1.35,4.23,4.23,0,0,1,.92-1.06,4.47,4.47,0,0,1,1.2-.69,4,4,0,0,1,1.36-.25,3.23,3.23,0,0,1,1.26.26,2.43,2.43,0,0,1,1.4,1.76,3.45,3.45,0,0,1,0,1.32Z"></path><g class="cls-16"><g><rect class="cls-4" x="14.82" y="35.57" width="114.4" height="25.03"></rect><g class="cls-5"><rect class="cls-4" x="118.87" y="41.95" width="12.88" height="16.82"></rect></g></g></g><path class="cls-2" d="M24.2,36.73c-1.3,4.87-5.4,8.06-9.38,7.32,3.87,1.1,6.09,5.76,5.09,10.67,1.3-4.87,5.41-8.07,9.39-7.32-3.88-1.11-6.1-5.76-5.1-10.67"></path><g class="cls-17"><g><rect class="cls-4" x="14.82" y="35.57" width="114.4" height="25.03"></rect><g class="cls-5"><rect class="cls-4" x="12.26" y="34.18" width="19.59" height="23.1"></rect></g></g></g><path class="cls-2" d="M33.27,47.31c-1,3.56-3.94,5.89-6.85,5.34,2.83.81,4.45,4.21,3.72,7.79.95-3.55,3.94-5.89,6.85-5.34-2.83-.81-4.45-4.21-3.72-7.79"></path><g class="cls-18"><g><rect class="cls-4" x="14.82" y="35.57" width="114.4" height="25.03"></rect><g class="cls-5"><rect class="cls-4" x="23.87" y="44.76" width="15.67" height="18.23"></rect></g></g></g><path class="cls-2" d="M33.79,35.56c-.72,2.7-3,4.47-5.2,4,2.15.62,3.38,3.2,2.82,5.91.72-2.69,3-4.46,5.2-4.05-2.15-.61-3.38-3.19-2.82-5.91"></path><g class="cls-19"><g><rect class="cls-4" x="14.82" y="35.57" width="114.4" height="25.03"></rect><g class="cls-5"><rect class="cls-4" x="26.04" y="33.02" width="13.13" height="15.07"></rect></g></g></g></g></svg> 