<?xml version="1.0" encoding="utf-8"?>
<!-- Generator: Adobe Illustrator 21.1.0, SVG Export Plug-In . SVG Version: 6.00 Build 0)  -->
<svg version="1.1"
	 id="Layer_1" xmlns:cc="http://creativecommons.org/ns#" xmlns:dc="http://purl.org/dc/elements/1.1/" xmlns:rdf="http://www.w3.org/1999/02/22-rdf-syntax-ns#"
	 xmlns="http://www.w3.org/2000/svg" xmlns:xlink="http://www.w3.org/1999/xlink" x="0px" y="0px" viewBox="0 0 402 102"
	 style="enable-background:new 0 0 402 102;" xml:space="preserve">
<style type="text/css">
	.st0{fill:#231F20;}
	.st1{fill:#2BACE2;}
	.st2{fill:#555657;}
</style>
<g id="g9">
	<path class="st0" d="M70.1,95.5l-1.8-1.8l-20-92.2H28.7L10.6,93l-2.2,2.6L1,96.3v5.2h34V96l-6.3-0.4v-1.5L31,79.7l14.3-0.4
		l4.4,22.1H76v-5.9H70.1z M33.5,66.1l4.8-23.4h2l2.8,23.4H33.5z"/>
	<polygon class="st1" points="90.3,1.5 91.5,5.6 98.1,6 98.1,8.5 91.1,55.8 85.2,1.5 67.8,1.5 60.2,56.9 68.2,93.8 76,48 
		82.6,101.5 101,101.5 118.8,1.5 	"/>
	<path class="st0" d="M43.7,66.6H32.9l5-24.4h3L43.7,66.6z M34.1,65.6h8.4L40,43.2h-1.2L34.1,65.6z"/>
</g>
<g>
	<path class="st2" d="M137.8,32.1l-14.3,41h8.3l3-8.2h14.1l2.8,8.2h8.3l-14.3-41H137.8z M145.9,56.4h-8.3l4.2-11.7L145.9,56.4z"/>
	<rect x="162.6" y="31.1" class="st2" width="7.7" height="42"/>
	<rect x="174.7" y="31.1" class="st2" width="7.7" height="42"/>
	<path class="st2" d="M200.7,41.7c-4.1,0-7.6,1.6-10.3,4.7c-2.7,3-4.1,7-4.1,11.6c0,4.6,1.4,8.4,4.1,11.3c2.8,3,6.4,4.6,10.7,4.6
		c2.8,0,5.2-0.5,7.2-1.7c2.1-1.2,3.9-2.8,5.3-5.1l0.3-0.5l-6.5-3.3l-0.3,0.3c-1.7,1.8-3.8,2.7-6.1,2.7c-1.9,0-3.5-0.6-4.9-1.8
		c-1.1-1-1.9-2.4-2.2-4.1h21.6v-2c0-4.9-1.4-9-4.1-12.1C208.7,43.3,205.1,41.7,200.7,41.7z M207.5,53.5h-13.1c0.7-1.4,1.4-2.4,2-2.9
		c1.4-1.1,2.9-1.6,4.6-1.6c1.6,0,3,0.5,4.3,1.5C206.4,51.3,207.1,52.3,207.5,53.5z"/>
	<path class="st2" d="M231.3,60.2l-6.7-17.7h-8l0.3,0.7c2.7,7.1,9.5,25.3,10.1,27.2l-5.7,13.5h8.1l17.2-41.4h-8L231.3,60.2z"/>
	<polygon class="st2" points="278.4,56 272.3,32.1 265.8,32.1 259.8,56 254.9,32.1 247.1,32.1 255.5,72.7 255.6,73.1 262.8,73.1 
		269,48.7 275.3,73.1 282.7,73.1 291.1,32.1 283.3,32.1 	"/>
	<path class="st2" d="M314.5,45c-1-0.9-2.1-1.7-3.2-2.3c-1.4-0.7-3-1.1-4.7-1.1c-3.6,0-6.6,1.5-9.3,4.6c-2.6,3-3.8,6.8-3.8,11.5
		c0,4.5,1.3,8.3,3.9,11.4c2.6,3.1,5.7,4.7,9.4,4.7c1.6,0,3.2-0.3,4.5-0.9c1.1-0.5,2.2-1.2,3.3-2.2v2.4h7.7V42.5h-7.7L314.5,45z
		 M312.9,51.7c1.3,1.5,2,3.5,2,6c0,2.5-0.7,4.6-2,6.1c-1.3,1.5-3,2.2-4.9,2.2c-2,0-3.5-0.8-4.8-2.3c-1.3-1.5-2-3.5-2-6
		c0-2.4,0.7-4.4,2-5.9c1.3-1.5,2.9-2.2,4.8-2.2C310,49.6,311.6,50.3,312.9,51.7z"/>
	<polygon class="st2" points="336.7,31.6 329,31.6 329,42.5 325.5,42.5 325.5,49.9 329,49.9 329,73.1 336.7,73.1 336.7,49.9 
		340.7,49.9 340.7,42.5 336.7,42.5 	"/>
	<path class="st2" d="M357.8,49.7c1.4,0,2.5,0.2,3.4,0.7c0.8,0.3,1.7,1.1,2.9,2.4l0.3,0.3l6.4-3.9l-0.3-0.4c-1.3-2.2-3.1-3.9-5.3-5
		c-2.2-1.2-4.7-1.9-7.4-1.9c-3,0-5.7,0.7-8.1,2.2c-2.4,1.4-4.2,3.4-5.6,5.9c-1.4,2.4-2.1,5.1-2.1,8.2c0,4.2,1.4,8,4.1,11.1
		c2.8,3.2,6.6,4.8,11.5,4.8c5.4,0,9.6-2.1,12.6-6.4l0.3-0.4l-6.1-4.6l-0.3,0.4c-1.5,2.1-3.7,3.2-6.6,3.2c-2.3,0-4.1-0.8-5.5-2.2
		c-1.4-1.5-2.2-3.5-2.2-5.9c0-2.6,0.7-4.5,2.2-6.1C353.4,50.5,355.4,49.7,357.8,49.7z"/>
	<path class="st2" d="M398.1,45c-1.9-2.1-4.2-3.2-7.1-3.2c-1.5,0-2.9,0.3-4.3,0.9c-1.2,0.5-2.2,1.2-3.3,2.1V31.1h-7.7l0.1,42.1h7.7
		V60.8c0-3.1,0.1-5.1,0.3-6c0.3-1.6,0.9-2.9,1.9-3.8c0.9-0.9,1.9-1.4,3.1-1.4c1,0,1.8,0.3,2.4,0.8c0.6,0.5,1.1,1.3,1.3,2.4
		c0.3,1.1,0.4,3.2,0.4,6.9v13.5h7.6V53.1C400.5,49.4,399.7,46.8,398.1,45z"/>
</g>
</svg>
