<?xml version="1.0" encoding="UTF-8"?> <svg xmlns="http://www.w3.org/2000/svg" id="Layer_1" data-name="Layer 1" width="80.36" height="180.7" viewBox="0 0 80.36 180.7"><defs><style> .cls-1 { fill: #231f20; } </style></defs><g><g><polygon class="cls-1" points="74.07 88.93 74.24 88.46 74.57 88.46 74.57 88.93 74.07 88.93"></polygon><polygon class="cls-1" points="76.33 88.6 76.33 88.93 75.52 88.93 75.86 88.6 76.33 88.6"></polygon><path class="cls-1" d="M71.18,62.68c.24,0,.51.47.81,1.43v.16l-1-.95Z"></path><path class="cls-1" d="M55.4,72.17h-.65v-.48h.31l-.16-.81h.33l.48.5C55.5,71.38,55.4,71.64,55.4,72.17Z"></path><path class="cls-1" d="M55.4,70.57l.31-.33h.16c-.15.43-.31.64-.47.64Z"></path><path class="cls-1" d="M69.73,61.53h.33l.48.34-.33.31C70.05,62.18,69.89,62,69.73,61.53Z"></path><polygon class="cls-1" points="52.01 73.31 51.53 73.79 51.53 73.31 52.01 73.15 52.01 73.31"></polygon><path class="cls-1" d="M39.28,87.81v.31a1.35,1.35,0,0,0,1.28.81h9.52q.72,0,2.74-7.72l.14-.65h.51l-.34-.5,1-1.29-.17-.14V78.3l.17-.17V78l-.81-.17c0-.27.21-.43.64-.48l-.16-.16V77h.33v-.17l.48.17q0,.33-.48.33v.48h.31l.33-.33V76.37l-.81-.17-.47,1-.65-.34h-.17V77H53l-.14.48h-.17V77H52v.48h.17l.14-.15h.17v.15c0,.16-.22.32-.65.5v.31l-.16-.17h-.31v.33l-.17.17.17.14h.31l-.15.81h-.16v-.47H51v.31h-.47l.47-.79-.14-.5H51l.17-.48.17.17h.31v-.48a5.14,5.14,0,0,0-2.1,1v-.17l-.14.17H49.1v-.17l1.15-.95.14.16h.17c.65-.22,1-.49,1-.81l.15.17h.5l.64-.5-.17-.48.17.17h.31l-1-1.79V74l.14.14h1.46v.33l-.48.65c.25.63.47,1,.64,1,.51,0,.88-.32,1.12-1h.17v-.17c0-.21-.21-.31-.64-.31L54.42,74h.33a8.71,8.71,0,0,0-.64-2.91c0-.23.31-.44.79-.65l-.15-.16v-.17l.15-.64c0-.64-.38-1-1.12-1v-.33h-.17l.17-.14v-.51l-.65-1.28-.23-.1a2,2,0,0,0,.47-.1.54.54,0,0,0,.24,0l1,1.12h.81c0-.43.1-.64.31-.64l.33.31a1,1,0,0,0,.81.33L57,68l-.78-.17.14-.17v-.31l-.81.48H55.4v.47c.2,0,.31.28.31.82l.81.16.17-.16v.31c.2,0,3.05-9.5,3.05-9.5h.16l3.56,11.28h-.17l-1,.17v.14h.34v.17c-.43,0-.65.11-.65.33-.33,0-.5-.21-.5-.64h-.14l-.34.31.34.33h-.64v-.33h-.51l-.14.17H59.9c0,.43.27.64.82.64v.17l-.34.64L61,74.6v.14h-.16l-1-.31h-.64l.17-.81v-.16c-.26-.75-.69-1.12-1.29-1.12,0-.39-.27-.7-.81-1h-.48q-.33,0-.33.48L58,73.79l-.16.17.33,1.12h-.33l-.17-.17H57.5l-.17.17v.16c.46,1,.83,1.46,1.12,1.46l.33-.33h.31v.33l-.31.79h-.16v-.31h-.17l-.17.47.5.65c0-.43.11-.65.31-.65h.17v.17l-.17.48h-.31v.16l.15.17v.14l-.48.34h-.17l-.78-.81-.51.16c0-.22-.15-.33-.47-.33L56,78.3c0-.21.16-.31.48-.31l.17-.17v-.17l-.17-.16c-.54,0-.81.43-.81,1.28v.34l-.17-.17-.48.17v.64a2.23,2.23,0,0,1,1.63.81h2.24v-.33c-.43,0-.65-.16-.65-.48l.17-.17c.65.12,1,.44,1,1h5.46v-.33h.33v.33h1.29c.3,1.07.62,1.6.95,1.6l-.14.17v.81l.48-.34.33,1H68l-.33-.33v.33c1,3.44,1.77,5.15,2.27,5.15h.95v-.16l-.95-1v-.16c.11-.32.43-.48.95-.48,0,.21.17.31.5.31v.64h-.17L71,87.48l-.31.33.14.15-.14.16v.34h.14l.5-.17v.17l.31.31V88.6l-.17-.14v-.34h.17c0,.22.22.34.65.34v.47h.81l.16-.16h.15l.16.16c0-.32.11-.47.34-.47l.14.14.33-.31.17.17.31.31-.14.16h.14c.54-.3.81-.62.81-1l.17.16H76a3.56,3.56,0,0,0,.79-1.76l.5.31c.54-.75,1-1.12,1.43-1.12v.33c-.36,0-.84.53-1.43,1.6l.15.17v.47h-.15c0-.43-.11-.64-.33-.64h-.17v.64c.34,0,.5.11.5.34s-.27.31-.81.31v.16h1l.16-.16.17.16h1.76a1.39,1.39,0,0,0,.81-1.28l-6-16.77h-.16l-1.6,1.46V72l1.6-1.45-.65-1.93-.64.48v-.48h.48a4.78,4.78,0,0,0-.79-2.27h-.17v-.64a1.87,1.87,0,0,0-1-1.62c-.15-.43-.31-.65-.47-.65l-.17.17h-.14c0-.32-.17-.48-.5-.48V63l.33-.48c-.43,0-.94-.4-1.53-1.18,0-.19,0-.39,0-.6q.45.41.45.66l.14-.17.5.17a.9.9,0,0,0,.65-.64c-.77-.2-1.15-.41-1.15-.65h.17l.48.14-.15-.14v-.17h.31v-.16l-.31-.48-.81.48h-.16V59.6h.33c0-.21.16-.31.48-.31l.16-.17V59l-.16-.81-.17.16h-.17l.17-.47-.17-.48c-.75.19-1.12.4-1.12.64l1.12.81V59l-.14.16h-.5a2.15,2.15,0,0,0-.54-1c0-.08,0-.16-.07-.24l-.21-.57.51-.13L68.44,57v-.3h.17V57h.81q-1.86-5.88-2.91-6.77l.31-.31-.14-.81h-.17v.34h-.17L66.18,49h.16l.17.17v-.31c0-.33-.27-.5-.81-.5v-.14c.32,0,.48-.11.48-.34L65.53,47l.17-.14v-.17a1.35,1.35,0,0,0-1.29-.81H63.29l-.17.17L63,45.91H61.5c0,.43-.12.65-.31.65l.17.16V47c-.34,0-.5.11-.5.34v.31h.64c0,.22-.32.33-1,.33l-.34.81c.27.75.6,1.12,1,1.12v.17a.42.42,0,0,0-.47.48v.16h-.17c0-.22-.22-.33-.65-.33l-.16-.17v-.14l.33-.33v-.31h-.33v.31h-.31V49l.14-.14-.14-.17v-.33l.31-.31v.17l-.17.14h.33l.31-1.12h-.14l.48-1.29H57v.34l-.47-.34h-.17l.17.17v.17l-.31.31L56,46.39v.33l.31.48v.17h-.14V47L56,47.2h-.17L55.71,47l-.17.17c0-.43-.1-.64-.31-.64l-1,1.57a1.33,1.33,0,0,0-.2,0,10.29,10.29,0,0,0,.84-2.05v-.17c-.73,0-1.35.89-1.85,2.67a1.6,1.6,0,0,0-.46.72l-3.06,9.6-.09.06-1,2.57.16.17c-.22,0-.43.48-.64,1.45l.19,0-.29.9-.23,0,.16.16v0l0,.14h-.12l-.15-.17v.65l.11,0-.86,2.72-.06-.17.31-.95c-.31,0-.53.43-.64,1.29h.33a15.6,15.6,0,0,0-2.26,5.48l.64-.5,0,0-.1.32c-.2,0-.33.32-.41.8h-.16l-.15-.17h-.16l-.17.64h.17L44,74.6v.48h.17l.59-1-.42,1.34a4.68,4.68,0,0,0-.51.5v.64h.14l-.32,1-.29.1v-.16l-.17-.65H43l-1.76,5.49.16-.17h.48v.48l-.31.81-.5-.31c-.29,0-.5.53-.64,1.6l.64-.31v.64l-.64.64h-.15v-.47h-.16ZM73.12,70.88l.31-.31h.16l-.31.31Zm3,15-.48.14v-.14l.33-.33h.15Zm-1.29,1.93.64-1.45.17.16h.48c.22,0,.39-.38.5-1.14H77l.17.17h.16v-.31h.31l-.47.64.16.14h-.16L77,85.88h-.17q0,.57-1.29,1.29v.31l.17.17v.16l-.81.15Zm-.64-6.29.5-.81h.14V81a.87.87,0,0,1-.64.64Zm-2.41-1.94c.32,0,.48-.37.48-1.12l.16-.16h.31v.33H73l.17-.64L73,77.82h.33l.48,1v.17h-.48l.15.48.16-.15h.48v.31c.33,0,.5.12.5.34v.14c0,.22-.17.34-.5.34v.16l.17.15v.16l-.17.17h-.14l-.17-.64.17-.48h-.17a1.16,1.16,0,0,1-.81-.5l-.17.16-.14-.16h-.17l-.48.33h-.16Zm-.17-3.38.17-.48H72v.48Zm-2-1-.21.21v-.15A.39.39,0,0,0,69.63,75.18Zm.58-.58-.47.47a1.17,1.17,0,0,0,.16-.47Zm-1.29,1.93,1.62-1.45-.17-.17V74.6l.17.14h.17v-.31h-.34v-.16l.34-.31v.47h.14l.17-.16h.16v.47c0,.23-.21.34-.64.34v.31h-.17l.17.16v.34h-.17l-.47-.17a1.74,1.74,0,0,1-1,1Zm-1-19.66c-.08-.19-.16-.38-.25-.56L68,55.9a1.7,1.7,0,0,1-.51-.07c-.11-.22-.22-.42-.33-.61a1.57,1.57,0,0,0,1-.6v.16l-.17.48.17-.17h.14l-.14.17v.48l.14-.17h.34l-.17,1-.17-.17h-.14Zm-.94,18,.64-1H68l.17.64H68v-.17l-.81.48Zm-6.92,4.67h-.33v-.16l.33-.31Zm5.46-31.4h-.14v-.65h.48Zm.53,11.87-.19.19h-.34l.34-.31H66Zm-.67,1,.14-.17v-.14l.81.14h.11a1,1,0,0,0,.1.17h0l-1.12.16Zm-.81,18.86.31-.34v.48h-.31Zm-1.12-8.06h.14l-.31.31h-.17ZM63.29,47.2h.31l1.62,1.62h.17v-.33h.14v.16l-.14.48h.14l.34.48c-.23,0-.77-.53-1.63-1.6l-.95-.64ZM56.52,63.32l.33.31v.17h-.33l-.31-.48Zm.81-9.51c-.22,0-.34.15-.34.47h-.14V54c.21,0,.31-.16.31-.47h.17Zm.31,7.72-.14.5H57l.51-.5v-.14h.14Zm.5,1.15-1.15,1v-.17l.34-.31h-.48l.31-.64Zm-2.6,1.93H56v.31h1.12v.17c-.32,0-.47.11-.47.33l-1.15-.5Zm-.79-16.39v0h.15l.16.14h.17l.17-.14c0,.43.16.64.47.64a.26.26,0,0,1-.17.25A1.7,1.7,0,0,0,54.75,48.22Zm.51,14.94.14.47-.17-.17h0C55.23,63.37,55.24,63.27,55.26,63.16Zm-.36,2.09h-.15v-.16l.15-.48-.06-.06a2.29,2.29,0,0,0,.1-.23c.08.3.24.46.46.46Zm-1,.48a3.06,3.06,0,0,0,.52-.5v.19h.33l-.33.31v-.17l-.17.17ZM53.78,69l-.17.48h-.14v-.65l.14.17Zm-.65,1.79.48-.5v-.17h.17v.5l-.17.17Zm-1.45,5a.87.87,0,0,1,.64-.64v.16l-.14.15v.16l.14.17-.14.17H52l-.17-.17-.16.17Zm-1.77-5.15V70.4h-.16l-.42.24.33-1h.09l1.62-.81L51.2,69h.48l.64-.48.17.48-.31.33v.31h.31v.48h-.31v.33L52,71.52c.21,0,.42.28.64.82v.33a1.33,1.33,0,0,0-.47,1.12.91.91,0,0,0-1,.81c-.38.64-.76,1-1.12,1v.17h.31v.48L50.25,76h-.17l-.17.17v-.65l.17-.16v-.15h-.5v-.33c.25,0,.52-.21.81-.64l.5-.17.14.17.17-.17-.31-.64-1.31,1h-.14l1-1.45-.48-.48q.48,0,.48-.33l-.81-.48.33-.64-.16-.17v-.14Zm2.41,7.73q0-.28.81-.48V78l-.64.47h-.17Zm-2.41.47.17-.14h.17v.48Zm-3.59,1a1.49,1.49,0,0,0,.18-.3l.36-.18v.31l-.5.17Zm-.82-8.17-.26-.06v-.14l.43-.33ZM40.73,87.31h.17l.14-.14h.17v.14l-.17.17H40.9Zm-.17-.48a.42.42,0,0,0,.48-.47h.33v.47l-.16-.16H41l-.31.33h-.17Zm-.31-.47.15-.17h.16v.48Z"></path></g><g><path class="cls-1" d="M4.1,178.67l-.17.17c0-.38-.91-1.35-2.74-2.91H.72v.48h.33v.5c-.26,0-.42-.27-.5-.81H.24l-.17.48v.16l.17.17-.17.14V179c0,1.09.43,1.63,1.29,1.63H2q.29,0,.48-.81H2.34L3,179l-.17.51c0,.27.27.64.81,1.12h.15l-.15-.17V180h.15l.16.65H6.2l-1.93-1.94Zm-.48,1H3.46l-.17-.14.33-.34Z"></path><rect class="cls-1" x="3.12" y="144.19" width="0.33" height="0.48"></rect><polygon class="cls-1" points="34.55 154.49 34.55 154.66 34.72 154.83 34.87 154.83 35.03 154.66 35.03 154.49 34.87 154.35 34.72 154.35 34.55 154.49"></polygon><polygon class="cls-1" points="34.55 156.28 34.22 156.28 34.08 156.45 34.08 156.59 34.22 156.76 34.55 156.45 34.55 156.28"></polygon><polygon class="cls-1" points="35.84 150.63 35.51 150.32 35.51 150.96 35.84 150.96 35.84 150.63"></polygon><path class="cls-1" d="M35.51,150c-.07-.54-.22-.82-.48-.82l-.31.34c0,.16.22.32.65.48Z"></path><path class="cls-1" d="M35.51,154.49h-.14l.31.81h.64l.17-.16A.89.89,0,0,0,35.51,154.49Z"></path><polygon class="cls-1" points="34.39 156.11 34.39 155.64 34.22 155.47 34.08 155.47 33.91 155.64 34.39 156.11"></polygon><polygon class="cls-1" points="35.67 158.52 36.01 158.21 35.37 158.21 35.67 158.52"></polygon><path class="cls-1" d="M35.51,157.57l.17-.17c-.07-.32-.5-.47-1.29-.47v.31l1.12.5Z"></path><path class="cls-1" d="M49.1,153.54l.34.31c.15,0,.31-.22.47-.64h-.33Z"></path><path class="cls-1" d="M75.52,165.46h-.16l-.15.17h-.16q-.12-.81-.48-.81H74.4l1.12,1.93h.17v-.48l-.17-.16h.17Z"></path><polygon class="cls-1" points="72.64 163.84 73.12 164.99 73.28 164.99 73.42 164.82 73.59 164.82 73.76 164.99 73.76 164.65 72.95 163.84 72.64 163.84"></polygon><path class="cls-1" d="M47.65,155.78V156l1-1-.16-.64C48.22,154.35,48,154.83,47.65,155.78Z"></path><path class="cls-1" d="M71.49,163.05v.15l.82.64h.33v-.31A1.86,1.86,0,0,1,71.49,163.05Z"></path><polygon class="cls-1" points="48.79 175.62 48.93 175.62 49.27 175.29 49.1 175.29 48.79 175.62"></polygon><polygon class="cls-1" points="45.07 180.13 45.07 180.6 45.57 180.6 45.41 180.13 45.07 180.13"></polygon><polygon class="cls-1" points="43.31 180.27 43.31 180.6 44.12 180.6 43.78 180.27 43.31 180.27"></polygon><path class="cls-1" d="M64.75,162.55h-.34l-.48.5c.21,0,.31.27.31.79h.65v-.48h-.31Z"></path><path class="cls-1" d="M64.24,162.55v-.31l-.31-.33h-.16C63.93,162.34,64.09,162.55,64.24,162.55Z"></path></g><g><path class="cls-1" d="M71.49,25.55v.14l.82.64h.33V26A1.9,1.9,0,0,1,71.49,25.55Z"></path><path class="cls-1" d="M75.05,28.12q-.12-.81-.48-.81H74.4l1.12,1.93h.17v-.48l-.17-.16h.17L75.52,28h-.16l-.15.17Z"></path><polygon class="cls-1" points="73.28 27.48 73.42 27.31 73.59 27.31 73.76 27.48 73.76 27.14 72.95 26.33 72.64 26.33 73.12 27.48 73.28 27.48"></polygon><polygon class="cls-1" points="43.31 42.76 43.31 43.1 44.12 43.1 43.78 42.76 43.31 42.76"></polygon><polygon class="cls-1" points="65.22 15.7 65.7 15.7 65.7 15.55 65.53 15.39 65.22 15.7"></polygon><polygon class="cls-1" points="65.53 18.13 65.22 18.13 65.22 18.61 65.87 18.44 65.53 18.13"></polygon><polygon class="cls-1" points="49.1 37.78 48.79 38.11 48.93 38.11 49.27 37.78 49.1 37.78"></polygon></g><path class="cls-1" d="M64.1,93l-.17-.17-.16.17H63.6l-.17-.17v.33h-.14V93l.31-.48v-.33l-.17.16-.31-.31v-.16l.17-.17h-.17l-.47.33v-.33H59.09l.1.27h-1a2,2,0,0,1,0-.26H56.69l-.17.17-.17-.17H55.23l-.24,0a1.17,1.17,0,0,0-1.3.8l-.86,2.71a1.5,1.5,0,0,0-.25.4l-6.45,18.4a1.18,1.18,0,0,0-.07.41v0l-.65,1.94,1.15,1-.07.24-1.08-1h-.16l-.1.26.07,0,.12.19,0,.16-.21-.16-5.79,16.29a1.41,1.41,0,0,0,.81,1.29h1.76l.17-.17.17.17h1v-.17c-.54,0-.81-.1-.81-.31s.17-.33.5-.33l.48.81h.81l-.18-.18a3.44,3.44,0,0,0,1.6.39h1.91a3.48,3.48,0,0,0,1.34-.26v.05h1c.29,0,.69-.63,1.18-1.89L52,129.61v-.33l-.47.34.7-.7.08-.25v-.51s.21-.32.38-.62l2.86-8.66a1.52,1.52,0,0,1,0-.23l-.53.14.18-.56.52.22.76-2.31,3.27-10.37h.16l1.18-3.55h-.22l-.48-.19.08-.25.72.13.91-2.74H62v-.48h.15l.05.15,2.13-6.43C64.18,92.46,64.1,92.67,64.1,93ZM46.36,116.72l-.31-.31h.17l.31.31Zm-4.17,14.35,0,.16-.12-.16Zm-.43.12,0,.16a3,3,0,0,1-.73-1.41C41.42,130.08,41.68,130.5,41.76,131.19Zm-1.51,0,.21.39-.05.16-.21-.39ZM41.56,134l-.61-.19a1.39,1.39,0,0,1-1-1l0-.16.3.09-.1.32.45.14a1.05,1.05,0,0,0-.71-.9l.19-.61,1.59,1.85Zm.77,0h-.14v-.48l.14-.17c-.59-1.06-1.07-1.59-1.43-1.59v-.34a1.44,1.44,0,0,1,1,.57l.07-.21.38-.2,0,.64,0,.16-.11-.08a3.72,3.72,0,0,0,.44,1.07C42.41,133.38,42.33,133.59,42.33,134ZM58,96.5l-.09.29-.14,0-.22-.4Zm-1.5-2.15-.39.2-.15,0-.12-.18,0-.16.21-.11ZM56.12,109l0,.16-.41-.3h-.5c.06-.21.25-.27.55-.17.13-.41.29-.59.49-.53l.16,0-.3.41-.05.16Zm-2.06,3.38-.16,0-.2-.39.13,0Zm2.15-4.7-.16-.05-.11-.21,0-.14.21-.11.16,0,.09.2,0,.14ZM56,103.92l.15-.45.31.6Zm-3.3,7.36-.42.22,0-.66.16,0,.21-.11Zm-2,5.92.42.8,0,.16-.32-.1-.1-.7Zm-.39,3.4.56.35-.09.3-.21.1-.31-.59Zm-.15.45a.43.43,0,0,0,.31.62l-.09.3-.32-.1-.22-.92ZM50.3,126l-.16,0-.21-.39.14,0Zm-.9-4.63,0,.13-.23-.39,0-.16.21-.11.16,0-.21.11-.05.16Zm0,1.66.15,0,.21.39-.1.32-.41-.3Zm-.25-5.11h0l.2-.11,0-.14-.11-.21,0-.15.29.09-.19.61-.29-.09h0c-.11.36.07.86.53,1.5l-.33.58.2.38-.05.16-.31-.59,0-.16.21-.11-.84-.59.1-.32.51.51.16,0-.62-1.19Zm-1.58,1.84h.5l.16.05,0,.14-.42.21c-.57-.32-.81-.62-.72-.89l.11.2.4-.22.16,0-.21.11-.05.16Zm.88,1-.14.46-.23-.4,0-.16Zm-1,.88,0,.16-.47-.65,0-.16ZM47,123.08l0-.13c.44.27.62.54.57.82l-.51,0-.4-.3,0-.14.32.1.09.18.05-.13Zm.55-.15c.09-.3,0-.48-.15-.55l.05-.16.08.21.21-.11.67,1.06-.65-.56Zm.47.65c.47.3.68.53.63.7l-.68-.54Zm.63,1.19.16.06.19.41,0,.13-.14,0-.22-.4Zm-1.2-9a1.34,1.34,0,0,0,.27-.07l1,1.93,0,.16c-.21-.07-.37.05-.46.35l-.14,0c-.09-.58-.26-.91-.54-1l.05-.16.16,0,.61.69,0-.16a1.27,1.27,0,0,0-1-1.13l-.16,0,.3-.41Zm-.84-.2a.82.82,0,0,0,.28.14l.08,0v0l.29.09-.09.3-.29-.09.09-.3-.16,0-.2.09A.54.54,0,0,0,46.61,115.52Zm0,.75.31.1.1.18-.05.15-.41-.3Zm-.39,4.4,0,.16-.17.09c-.07.21.05.37.35.46l0,.16-.16-.05a.87.87,0,0,1-.42-.8Zm-1.88-.92.16,0v.51l-.16,0-.11-.21Zm-.18,1.12.41.28,0,.16-.29-.09-.11-.21Zm.08,1.35.6-.31-.1.32-.21.08L45,123l.3-.4,0-.51c-.3-.09-.42-.24-.36-.44l.05-.16.16,0c.2.07.25.25.15.55l.77.24.1-.29-.41-.3.05-.16.14,0,.11.21c.21.07.36-.05.46-.36l.14,0,.11.21-.75.76,0,.16.11.19-.16,0-.11-.19-.6.32-.1.29.16,0,.55-.15c-.07.23.07.49.42.81l.75.23,0,.51-.81-.61-.1.32-.16,0c-.2-.06-.25-.24-.15-.55l-.2.09-1.54-1Zm1.92,3-.14.46-.46-.14,0-.65Zm-2.63,3,.05-.16.3.1.11.21,0,.13-.21.11Zm.69,4.74-.21-.39.11-.32.19.42Zm-.13-2.21-.22-.42L44,130l.83.09.16,0,.19.41-.82-.11,0,.16.11.21Zm.42-.87,0-.16.42-.22-.05.16Zm.5,1.66.14,0,0,.51-.3-.1Zm.66,2.23-.52,0-.14,0,.6-.31.16,0Zm.38-1.23-.43-.31.15-.46.16,0,.22.4Zm-.33-3.81.16.05-.51.52-.14-.05-.11-.2c.1-.31,0-.49-.17-.56l.4-.72,0-.14-.2-.41-.75.26-.32-.1.09-.29.62.19-.47-1.15.44-.36,1,2c.51.17.74.35.68.54l0,.16C46.08,128.34,45.82,128.43,45.73,128.73Zm1.7,2.06-.73,1.77-.13,0,.07-.8.35-.56.15-.46-.32-.1,0,.5-.05.14-.29-.09.67-2.14.13,0,.11.21L47,130l.62.19-.21.08Zm.83,3.26-.12-.19-.13,0-.2.09-.32-.1.2-.09.05-.16-.11-.21.93.3Zm.59-3.49-.73-1.4.05-.16a.57.57,0,0,1,.42.81l.14,0,.12-.06h.08l0,0,.42.13Zm.64-1-.14-.05.1-.31.45.14Zm1.71,1.63.08-4.09c-.21-.07-.27-.25-.17-.56l-1.22.12q.15-.45-.6-.69l.39-.23.63.7.14,0,.2-.08.05-.16-.11-.21.83.61Zm.13-4.16L51,122.5l0-.14.38.45Zm.1-16.42.1-.31L52,106l.23.4-.1.32Zm.79,1.25-.62-.19.42-.22Zm-.65,14.89.14-.45,1.05,1.5Zm3.06-4.91-.16,0-.36-.44-.45-.14-.21.11.45-.88.29.09a.73.73,0,0,0,.59.86Zm.57-1.32-.3-.09.16.54-.3-.09,0-.5.21-.11.15-.46c-.19-.06-.42.15-.7.63l-.16,0,.21-.11,0-.16-.11-.21-.85.09-.16,0,1.15-.49-.2-.39.05-.16,1,1Zm.37-2.23-.16,0-.56-.36.14-.45.63.7Zm1.53-2.72-.16-.05L56.5,111q-.41-.14-.9.72l.32.1.55-.16-.15.46c-.41-.13-.71.11-.9.71l-.16,0,.2-.61-.14,0-.21.11.11.21-.41.19-.05.16.11.21h-.5l.09-.29.21-.11-.16,0c.16-.5.09-.8-.22-.89l.64-1,.73.38.14-.46-.32-.1-.19.12.15-.46L55,110c-.2-.06-.35.06-.44.37l-.16,0,0-.16.3-.41-.4-.3,0-.16.2-.09.66.54.21-.11.61.19c-.15.47.25,1,1.18,1.57Zm.2-10.84-.4-.3,0-.16.46.14Zm.3-3.1,0,.16-.09-.21-.16,0-.21.11.12.19,0,.16-.47-.65c0-.17.36-.24.92-.21Zm.53,1h-.5l.35-.57.3.1Zm.43-1.38.3.09.34.6-.1.32-.63-.7Zm1.62,2.35-.16,0L60,99.3l0,.16.2.39,0,.15-1-1.13.42-.22.14,0,.1.21,0-.16.11.21.16,0,.19-.11ZM60,96.62l-.16-.05-.2-.41.1-.3L60,96l-.14.45.16,0,.14-.45.21.38Zm1.84,1.73c-.07,0-.15,0-.24-.16l.1-.29c0,.09.09.18.14.29Z"></path><path class="cls-1" d="M36.13,110.83v-.15h.26l-.07-.07h0c0-.39-.07-.77-.11-1.14h0l-.52-.34V109l.14-.14H36l.14.14,0-.2c0-.27-.06-.54-.1-.8v-.29l0,0,0-.11h.38v.33h.17v-.17l-.34-1.76h-.47V106c-.15-.7-.3-1.35-.48-2l.17.07h.14c-.07-.54-.22-.81-.48-.81l0,0c-.06-.17-.11-.33-.16-.48l0,0-.31-.74h-.14V102l.07,0-.57-1.34h-.2a5.47,5.47,0,0,0-.48-.65l-.07-.08.11-.08-.81-1.12a23.36,23.36,0,0,0-3-3.08h-.14a.34.34,0,0,1,0-.1l-.12-.09,0,.19-.65-.33.15-.17V95l-.26-.18L28,95V94.8a1.48,1.48,0,0,0,0-.21l-.46-.24v.12l.16.5-.16.14c-.56,0-.88-.37-1-1.12l.17.17.24-.07c-.41-.19-.82-.38-1.22-.55v.14l-.17.15V94H26v.48h-.34v.17h.51c0,.55-.17.88-.51,1a4.53,4.53,0,0,1-.73-.77l-.3.17q.72.39.72.6l-.16.48H25a.56.56,0,0,0-.62-.64l-.07-.28-.1,0H24v-.31l.18-.06v0l.06,0,.51-.21a.6.6,0,0,1-.08-.21c-.45-.08-.68-.22-.68-.42.41.06.64.17.7.34H25v.19q.42-.21.48-.36c-.23,0-.38-.33-.44-.93l-.18-.07.14.36-.14.47h-.17l-.14-.14s0,.05,0,.09h-.33v-.15l.17-.26V93l0-.05a19.91,19.91,0,0,0-5-1.19c.29.14.44.26.44.37-.68-.06-1-.19-1.11-.41h-.63l-.07.07.19.21-1.43,1.76,1.05-2-.07-.07-.64.17-.65-.17H.88c-.32,0-.59.48-.81,1.45v.17c0,.38,0,1.6,0,2v2.16h0l0,0v1l0,.06v.14h0v.64h0v.33h0V100h0v.14h0v.17h0l0,0V101l.19-.14H.45v.31l-.36.19v1.49l0,.19v1.91a9.89,9.89,0,0,0,2-1.68c1.81-.3,2.72-.73,2.72-1.29H4.46v-.33l.47-.14v.14h.31v.48H5.1l-1,.81a1.3,1.3,0,0,1-1,.47.58.58,0,0,1-.65.65l-.31-.31-.64.47v.17h.48l-.31.31h-.5l-.15-.16-1,.73v1.16l0,0v.45h0v2.27l0,0v3.22l0,0V113l0,0v.87l.29.3v.17l-.29-.3v.14l0,.06v10.47h0v.15h0l0,0v1l0,0v.82h0v3.78l.29.3v.33L.09,131v.23l0,0v1.93c0,.07,0,.14,0,.21H.24l.14.17H.55L.38,134l-.25-.25a1.15,1.15,0,0,0,1.23,1H2a.28.28,0,0,0,.22-.14,3.54,3.54,0,0,0,1.38.28v-.09l.1.1h.24v-.27h.14l.5.17v.1H7.19a3.52,3.52,0,0,0,1.22-.22l.2.07,0,.16h10.3a10.26,10.26,0,0,0,2.66-.42c.69-.14,1.47-.32,2.38-.55l-.25-.24.25-.11v0l.17.14,1.28-.31.44-.21c.07-.72.27-1.18.62-1.36l-.31-.79.14-.16h.17a1.16,1.16,0,0,0,.47.81l.3.76c.51-.3,1-.61,1.47-.94v-.3h-.15l-.16.14a1.09,1.09,0,0,1-1-1.12l.15.17h.33a.42.42,0,0,1,.48-.48v-.33h.16l.48,1-.12.78c.34-.25.68-.5,1-.76l-.06,0v-.17l.47-.16Q37,124.43,37,112.89l-.54.66v-.29a2.67,2.67,0,0,1,.22-.35l-.21-.14,0-.67.4.59v0a.83.83,0,0,1,.16-.12V112l-.16-.14.16-.17v-.47l-.42-.43ZM29.48,99.45c.22,0,.33.17.33.5h.31l.17-.16v.47l-.81-.31Zm.23,2.1h.15l.14.14v.15l-.14.14-.43-.14-.57.28C28.86,101.93,29.14,101.74,29.71,101.55ZM29,111.27l-.47-.16v-.17l.95-.31Zm.82,6.08v.17c-.43,0-.65.16-.65.48h-.33v-.14q.33,0,.33-.51ZM28,119h.43l.14.58v.14h-.14Zm.14,2.58-.29.29h-.14v-.58h.14Zm-.43-22h.14l.43.43v.14l-.71.14c0-.19.14-.28.43-.28Zm.57,3v.15h-.14c-.29,0-.43-.1-.43-.29Zm.58-3.29-.43.43h-.15v-.43l.58-.14Zm-.67-3.65.48.15v.33h-.15l-.5-.48ZM28,97.21h-.14l-.48-.31-.16.15h-.17v-.31l.81-.17Zm-1.26-2.1a1.12,1.12,0,0,1,1.12,1h-.17a1.25,1.25,0,0,0-.95-.48Zm0,5.15.48-.16.16.16,0,.15h.07l-.15.22,0,.11h0l-.06.1H27l-.1-.1h-.14Zm-1,2.25h.34v.5h.14l.33-.34.17.17h.31v-.48h.48c0,.43.16.65.47.65-.2.47-.41.74-.62.78v-.64h-.5l.17.17v.16h-.31l-.17-.16h-.16V104h-.17a.29.29,0,0,1,0,.09,1.58,1.58,0,0,1-.67-.22v.3h.51v.31l-.17-.17h-.17l-.17.17-.47-.48v-.17L25,104h-.14a.42.42,0,0,0-.48-.48V103l.31-.34c.64.23.95.5.95.81h.17V103l-.17-.17v-.17Zm.33,2.83v.47h-.34v-.47Zm-1.93-3.48h.31l.34.34h-.17l-.17-.17h-.14l-.17.17Zm-.33,0h-.48l-.16-.64h.64l.33.33Zm.43-6.29.28.28V96h-.28Zm-.1.83.17.17.31-.31.17.14.14-.14v.14l-.14.17v.17a.41.41,0,0,1,.47.47l-.16.48.16.17h-.95c.16.43.32.64.48.64l.31-.33h.33v.33l.14.17-.14.14h-.33q0,.33-.48.33c0,.18.32.39.95.65V100l-.14.15L25.3,100h-.81v.15l.34.33.14-.17h.17v.17c0,.24-.27.4-.79.48l-.33-.34v.34h-.17l-.48-.17-.16.17c-.1-.43-.31-.65-.65-.65V100h.5l-.16-.16v-.17l.16-.17h.15l.16.17v-.31l-.81-.17V99h.81l.81.64h.31v-.17A2.89,2.89,0,0,1,23,98.59h-.11l.17.16v.17l-.48-.17v-.16h.31v-.15l-.14-.16.26,0h.36l-.31-.47q.27,0,.48-.81l-.17-.15Zm-1-2.57h.21v-.27l.43.29V94l-.14,0v.38l-.34.31h-.16Zm-.31,1.28h.16l.15.5-.15.15v0a6.66,6.66,0,0,1,.64-.25l.17.48-.17.16L23.53,96l-.39.13.05.17.08.08v.43h-.56l-.15.2.5.47-.33.34c-.24,0-.51-.38-.81-1.12h-.15V96.4h.31l-.16-.14v-.34l.33-.31C22.68,95.61,22.9,95.45,22.9,95.11Zm-.8-.36h.17v.16l-.17.15h.31v.16l-.78.34-.17-.17Zm-.49.86h.31v.15a3.16,3.16,0,0,0-.65,1.45h-.62l-.16-.47Zm-1.27,1.86.64-.15h.48v.15l-.65.16h-.47Zm.93,3.92v.16H20.8l-.15-.16v-.17l.15-.14H21ZM20.17,98h.17v.14l-.65.64Q19.81,98,20.17,98Zm-1.3,1.34H19l.17.14h.17v-.14l-.17-.5.48.17-.17.16v.31c.22,0,.44.27.64.81H20l-1.45-.64Zm.81,1.6h-.17l-.31-.34h.17Zm-1.46-1-.14.15h-.17l-.33-.31.5-.34h.14l-.14.17v.17ZM18,95.85h.15v.29l-.43.14h-.14Zm-.57.57h.15v.29h-.29a.76.76,0,0,1-.57.55Zm-3.2-1.51.48.31.33-.31v-.16c-.43,0-.64-.11-.64-.31h.31l.33.31.65-.17h.14l.17.17v.16l-.17.15h-.14l-.17-.15c0,.21-1.18,1-3.53,2.25h-.17q.07-.28,1.29-.81a1.48,1.48,0,0,0,1-1.44Zm-1.38.8v-.14l.72-.43v.28c-.29,0-.43.1-.43.29ZM12.57,94c0-.27.33-.6,1-1l.14.43c-.24,0-.38.19-.43.57h-.14L13,93.85h-.29v.28h-.14Zm-1.15.14h.29c0,.29.09.43.29.43l-.15.15c0,.2.29.54.86,1v.14h-.43c0-.24-.28-.47-.86-.71v.57l.43.14v-.14H12l-.29.71h.14l-.28.29h-.15a.71.71,0,0,0-.57-.71h-.71l-.15.14v-.29H9.71L9.56,96l.29.57-.43-.15-.86.84-.14-.41L10,95C11,94.68,11.42,94.39,11.42,94.13Zm-.88,3.34v-.15l.16-.16.81.16-.81.79-.31-.31v-.17h.48v-.16ZM8.75,107.66l.48-.17.34.33V108H8.75Zm-.33-1.39H8.27v-.43h.29l.29.29Zm.43-1.71v-.15H9l.14.15h.72v.28Zm.86-3.65-.48.31.17.17v.16l-1.29-1v-.31l.81.17A.42.42,0,0,1,9.4,100a1,1,0,0,1,.31.79h.17l.16-.17h.17v.51ZM8.13,97.55h.14L8,97.83H7.85ZM7.7,97v-.29l.43.14v.41H8Zm.41,4.08.48.14v.17H8.28l-.17-.17Zm1.45-1V100l.43-.15V100l-.14.14Zm.19-1.53H9.58v-.31l.65-.31h.16v.31Zm-.33-5.46c0-.19.33-.33,1-.43l.29.43.43-.28h.14a1.7,1.7,0,0,1-1,1.57h-.14l.28-1.14h-1ZM6.87,95.57l.71-.15.12.15h.43l.72-.72-.58-.14v-.29l.86.43c0,.67-.46,1-1.28,1V96h.28v.14L8,96.28H7.85l-.15-.14-.4.28H7l-.14-.71Zm.57,2.83H7.15L7,98.26,7.3,98ZM7,97.12h.14l-.28.57-.43-.14H6.3l-.15.14L6,97.26v-.14h.57v.28h.15Zm-.86-1.55h.29l.14.14L6.3,96H6l-.14-.15Zm-1.22.13V96l-.47.16Zm-3.4,2v-.17l-.17-.14v-.33H2v.47Zm.31.64H1.67L1.36,98v-.16h.31Zm0-3.75.2,0L2,94.33h.16l.16.15.19,0-.06.18,0,0v.16H2.4l0,.11H2.21Zm.44,1.68.5-.17v.31h-.5Zm0-2.1V94l.16-.16h.34V94Zm-2-.7v-.17l1.12-.62,1.12.15V93H2.36a8.38,8.38,0,0,1-.84.68c.21.11.32.22.32.33H1.67l-.33-.21a1,1,0,0,1-.41.16v.16l.16.17H.76A1.11,1.11,0,0,0,.28,93.46Zm.48,10.28H.45l-.17-.17h0v.17H.12l.16-.17h0l.17-.17H.76Zm0-7.87H1.4V96H.76Zm.48,4.34V100l.6-.5V99H2v.42l.2-.17v.17l-.2.21H2l-.59.59Zm.64,1.91c.54,0,.87.16,1,.5C2.21,102.51,1.88,102.34,1.88,102.12Zm1-3.53H2.52v-.15l.34-.33ZM3,95.76l-.14-.65.64.34v.25l.35-.48H4l.14.17c0,.16-.21.32-.64.48H3.33l.09-.11Zm.5.64.62-.14v.14l.17.17H3.46Zm1,3.33H4l.48-.5h.16Zm.26-2.68.65.33v.14H5.23l-.51-.31Zm0,2v-.17l.81-.33h.06a7.38,7.38,0,0,0,.8-.62l.29.29a1.48,1.48,0,0,0-.7.33h0v.16l-.23.1a.92.92,0,0,0-.1.41H5.58l-.35-.17Zm1.67,1.32H6.3l-.15-.15V100H6.3Zm-1.58,3.43c0-.19.2-.29.58-.29A.86.86,0,0,1,6.3,103l1.14-.71.14.14q0-.72.84-.72v.15c0,.19.24.28.71.28v.15l-1.28.43v-.29c-.66.09-1,.29-1,.57l.43.43-.15.43V104l.15.15H7.15l-.42.43H6.3v-.15l.43-.14c0-.48.09-.72.28-.72L6.73,103l-1.15.57.14.15-.28.28H4.86Zm2.58,3V107c-.29,0-.43.09-.43.28l-.86-.71.72-.14H7l-.28.43Zm-3.67.5.17.14h.14l.17-.14v.31H3.94l-.17-.17Zm0,.78.81.48.14-.14q0,.48,1.29.48l-.14.16.14.14-.31.34H5.54l.14.85.19-.18H6a.69.69,0,0,1,.5-.19h.15v.33c0,.32-.38.48-1.12.48V111l.16.17v.33H5.37v-.17l-.48-.47h.34v-.34l-1.46-1.93Zm2.41,6.44v.31H6l-.31-.31v-.16Zm-.64-.81-1-.31v-.16h.48Zm-1.77-3.22.17-.14h.14l.17.14-.31.34H3.77Zm-.31-3.36v-.33H3.6v.33l-.14.17.14.14H3.29v.17l.17.16V108H3.29a1.56,1.56,0,0,0-1-.62v-.17Zm-.17,2.24L3,109.13h.29l.29.29Zm.19,1v.17H2.86v-.17Zm-.76-1.18v.4H2.15l.43-.4Zm-.88-4.51L2,104.6h.31v.17l-.48.15Zm-.17,6.75.19.18a.37.37,0,0,0,0-.12l.31.07.67-.68v.29c0,.16-.2.29-.61.4l.44.09v.34l-.48-.17H2.08l.84.83.66-.2v.14l-.29.28v-.14l-.2.09,0,0H3a1.64,1.64,0,0,0-.6.6H2.29c0,.47.09.71.29.71.47,0,.71-.19.71-.57l.14.14h.15l.43-.14.43.14-.1.19a1.55,1.55,0,0,1,.5.5l0,0h0a.53.53,0,0,1,0,.17h.17l.31-.31h.17l-.31.64h.14a1.76,1.76,0,0,0,1.14.64v.17l-.16.14v.17c.31,0,.47.11.47.33H6.66L6,116H5.87q0-.25-1.29-.78v-.17l.48.31h.17v-.31l-1.05-.44a1,1,0,0,0-.46.22l-.86-.28c0,.17-.2.27-.6.28l.22.22v.17l-.31.31H2l-.65-.65v-.16l.64.49-.28-2.09,1-.32a3.93,3.93,0,0,1-.81-.77l-.06.06H1.4v-.17a.56.56,0,0,0,.38-.11l-.11-.15ZM7,117.7v-.15l.57.29v.28l-.71.43v-.14l.14-.14H6.73v-.15h.42ZM10.14,114l-.43.28v-.71l.28-.29h.72v.14l-.57.15H10Zm-.43,1.24h.17l.16.14v.17l-.16.16v.17h.47V116H10c-.37-.13-.58-.27-.63-.41H8.94c-.32,0-.48-.1-.48-.31l1,.15Zm.5,7.06.31-.31.17.47-.48.17.14-.17Zm.31-2.89-.48-.17v-.16h.31l.17.16ZM8,123v-.16l.48-.17.48.17h0a2.59,2.59,0,0,1,.23-.19l-.11,0,.34-.5V122l-.17-.17H9.4l.17.17h.14l-.13.42h.13l.14.15-.43.71H9.28l-.15-.14H8.85v.43H8.7v-.29a.5.5,0,0,1,.1-.27Zm.61-.54V122h.33l-.17.47Zm.4,2.39h.24v0l-.1-.1v-.14l.14.14.2-.05.09-.09h.15v0l.17,0v.14l-.31.34H9.3a.29.29,0,0,0,0,.09H9Zm-.24-8.49v-.17l.82.33V117Zm.82,1.28v.17l-.82-.33v-.17l.17-.14C9.35,117.31,9.57,117.47,9.57,117.62Zm.14,1.77H9.57l-1.46-1.45v-.15Zm-1.43.31.64.17v.33l-.64-.33Zm-.17-1.12-.48-.17v-.14h.15l.5.14v.17Zm-.33-2.24H7.63a1.25,1.25,0,0,0-.5-1,1,1,0,0,1,1,.64Zm-1.77,1h.65l-.15.5H6l.17-.17v-.16ZM4.44,115l-.29.28H3.86l.29-.28Zm-2.12,1.67H1.67v-.15l.5-.16v.16Zm-1.23-3.3h.48v.33H1.4Zm.48-.31v-.17l.31-.31.48.15v.16l-.48.17Zm0-4.09v.3H1.19L1,108.78ZM.28,112.87c.13-.36.27-.56.4-.62l-.3-.09v-.33l.65.33v.12l.16,0h.17l0,0,.19,0v.17l-.11,0,.07.22-.17.14H.88v-.14h.48l-.15-.15-.76.21ZM1,117.46v.33H.88l-.33-.33Zm-1,2.24H.24c.64.26,1,.47,1,.64v.17H.88v.17A1,1,0,0,1,.07,119.7ZM.38,122H.72v-.17H.38v-.17c.66,0,1-.16,1-.48H1.19l-.31-.31H1l.33.31c.18,0,.39.38.65,1.13H1.53V122H1.19v.31H.72Zm.81,6.74.17-.16h.17l-.17.47H1.19ZM1,127.43v-.17l.33.33v.15Zm1,5.46H1.84a1.41,1.41,0,0,1-1.29-.81l.48-.31.5.14v.17l-.17.16v.17H2Zm-.17-6.11v-.33l.33-.31v.64Zm.33,3.53h.48l.31.34-.14.14V131A.86.86,0,0,1,2.17,130.31Zm1.12,3.87H3l-.14-.48h.31l.33.31Zm0-1.29H3.13l-.31-.81H3l-.14-.17v-.31H3q.33,0,.33.81h.17ZM3,127.74v-.31l.17-.17H2.82v-.17H3l.81.5v.15l-.17.16Zm-.14-2.08h.64l.14.79H3.13Zm1.43,6.58H3.77l-.17-.47h.48l.33.31Zm.33-4-.64-.17v-.48l.64-.16v.16h.14l.17-.16h.17Zm.48-2.58H4.89L4.58,125v-.17l.48.31Zm.52-3.81-.29-.29v-.14l.29.28ZM5.15,121v-.29l.29-.29V121Zm.22-.65V120H5.7v-.16H5.37v-.31l.5.14H6v-.31l-.14-.17.48.17h.16v-.17l-.33-.31H5.7l-.16.15-.17-.15H5.23v.15l.14.16H4.89c0-.31-.32-.47-.95-.47v-.17l.78-.17v-.31c-.43,0-.64-.1-.64-.31v-.17l.81.17h.17c0-.19-.27-.36-.81-.5l-.17.17-1-.31-.17.79-.64-.32v-.16l.16-.17h.17l.17.17H3q0-.48.33-.48v-.17l-.16-.16v-.31l.16-.17-.47.17-.5-.65v-.16h.16l.17.16.31-.33,1.12,1.29q.33,0,.33-.48h.17v.33l-.17.15v.16l.17.17h.14l.17-.17v.34c.43.16.65.32.65.47a.43.43,0,0,0-.48.48h.31l.17-.16v.16l.47.17a2.45,2.45,0,0,0,.18.33l.25-.33.29.28v.15l-.37.09a.44.44,0,0,0,.3.12l.33.31h.14l.17-.16-.17.5v.14l.17-.14,1.76,2.07H8.75l-.16-.17v.17H8.42l.17-.17-.31-.31v.31l-.34-.31V121h.17l.17.16v-.31H7.94a2.14,2.14,0,0,0-1.12-1H6.66c0,.43-.16.64-.48.64Zm-2.89-3.69v-.15H3l-.14.65H2.65ZM7,121.46v.17H6.51v-.31Zm-.17,8.85H6.35V130c.31,0,.47-.11.47-.33l.31.33ZM7,121.15V121h.14l.17.16-.17-.47v-.34H7.3c.14.75.36,1.12.64,1.12v.17l-.16.17H7.63l-.16-.17H7.3Zm.35,2.14.48-.14H8v.31l-.16-.17-.17.17H7.34Zm.1,1.82.14-.57.41.14V125l-.29.29-.12-.15ZM7.63,130h.31l.34.31v.17H8.11Zm1,1.91-.17.17H8.28V131l.31-.31v.64l.16-.17h.17l-.17.17.17.14-.17.17.17.48v.16H8.75v-.33Zm1,2.58H9.23l-.31-.79c.21,0,.31.16.31.48h.34Zm.14-3.7H9.23L9.06,130H9.4l.31.31Zm.33-4H9.71l-.14-.16v.16H9.4v-.16l.17-.17v-.14l-.17-.17c.43.16.64.32.64.48Zm1.67-.24h-.14l-.29-.28h.43Zm2.72-.43V126l.28-.29.15.43Zm2.14,6-.43.43H16v-.29l.43-.43.14.15Zm.15-5H16V127h.72ZM18.29,134l-.43-.14v-.15l.29-.28h.14l.14.14Zm.14-4.7h.29l.14.15-.28.28Zm.15-3,.14-.43c.29,0,.43-.1.43-.29l.29.29v.28l-.43.15h-.15l-.14-.15v.15Zm.14,6.84v-.43h.14l.29.29Zm3.55-2.26-.14.14c-.38,0-.57.14-.57.43l-.14-.15c-.48.07-.72.2-.72.41h.43l-.29.86-1,.71h-.14l-.14-.14v.14h-.14q.21-.57.42-.57H20l-.15-.43A8,8,0,0,1,22,130.55h.14l.14.14ZM20.7,125.4l-.29-.29V125h.29Zm.14,5.15H21l-.43.43v-.14Zm2.58-.43h-.57V130l.42-.15h.15Zm.6-3.81v-.65l.16.14.17-.14h.31l.17.65Zm.21,7.17,0,0,.16-.08a.22.22,0,0,1,0,.1Zm.43-3.17h.17l.14.17V131h-.14Zm.95,1.46h-.14l.14.14v.33h-.14l-.5-.16v-.17l.5-.14-.17-.17v-.48l.48.48ZM26.28,121h-.14l-.29-.29v-.14H26l.29.28Zm.14-7.78a.42.42,0,0,0-.4.33v.36l.09.09H26v.31l.16.16H26l-.17,1.44V116l.27.34H26l-.11,0a10.94,10.94,0,0,1-2.73,7l.08.08a10.31,10.31,0,0,1-.75.73H22.3a.68.68,0,0,1,0,.15l-.41.32h-.05v-.14c-1.61.49-2.41.86-2.41,1.12l-.81-.17h-.48l-.16.17v-.17l-.81.17h-3l-1.19,1h-.15l.86-1h-3V124.1H9.92v-.16a1.33,1.33,0,0,0,.83-.27v-7.23l-.4-.1v-.17l.4-.14v-.77c-.47-.2-.71-.38-.71-.54h.48a.43.43,0,0,0,.23.41v-.56h-.23l-.31-.33v-.14h.48l.06.2V113l-.05-.17h.05v-2.46l-.19.27-.14-.14H9.85l-.29.29V111l.15.14v.15h0c.55.32.83.56.83.73l-.48.16a1.22,1.22,0,0,1-.8-.57,2,2,0,0,1-1,.38H7.7v-.28H8v-.29l-.14.14c-.85-.28-1.27-.52-1.27-.71h.15l2.12.43H9L8.92,111H9l-.14,0-.15.14H8.56l-.71-.28a.84.84,0,0,1,.85-.57l-.14-.15V110l.43-.14.86.28.9-.62v-.32l-.76.11H9.28c0-.38-.1-.57-.29-.57L8.7,109l-.28-.43.43-.43V108l.57.14,1.29-.43,0,0v-1.8c-.67-.11-1-.26-1-.44v-.33h.48l-.17-.14.48-.5h.21V101.1h5.92a14.35,14.35,0,0,1,2.44.2l-.08-.08v-.14h.17l.31.3a8.22,8.22,0,0,1,4.72,2.77q1.34,1.93,1.95,6.94l-.16.17v.64l.16.64-.16.65v.11l.26-.26h.14Zm-.14-.5v-.32a2.19,2.19,0,0,0,1.26-.64h.33v.34c-.54.06-.81.22-.81.47l-.14-.17Zm.47,10.92v-.17l.17-.17h.48v.17Zm.65,8h-.16V131h.16Zm.14-9.09-.14-.17v-.17l.14-.14h.17l.16.14v.17l-.16.17Zm.65,6.2-.48.48v-.64l.48-.48Zm.81-2.26-1,.17v-.17c.18-.43.34-.65.5-.65q0,.51.48.51Zm.81,2.91h-.5l.33-.34.17.17Zm.14-5.63V124l-.64-.48v.17l.17,1v.17l-.17-.17h-.14v.48h-.34v-.31l.17-.17v-.14l-.81-1c0-.2.16-.31.48-.31l-.31-1.79.16-.14h.65l.78.79-.31,1.29Zm.33-13.27h-.64v-.14H30v-.17l-.14-.16-.17.16H29.3V110l.51-.17.47.5Zm.65-.95-.34.48-.31-.31v-.17l.65-.17Zm.64,9c-.16,0-.33-.21-.5-.64h.33l.17.47Zm.15-9.94-1,.43h-.15v-.28l1.15-.43Zm.16,14.73v-.47h.48Zm.55-17.88h-.14l-.72-.14.29-.28h.29l.28.28ZM36,107.06v.31l-.12-.14c-.06-.37-.12-.73-.19-1.08Zm-.17,1.36v.14h-.57v-.14Zm-2.29-3.29H34l-.28.28h-.15ZM33,110.54l.29.29h-.15l-.28-.29Zm.43,4.44v.14l-.29.29v-.15Zm.07,5.12-.15.16h-.5v-.16l.65-.17Zm-.07-10H33c.14-.38.29-.57.43-.57h.14v.14l-.14.15h.29Zm.88,7.24h-.48v-.47h.48Zm.17-.95-.48-.48h.62l.33.31Zm-.19-7,.57.12v.29l-.14-.15h-.15l-.14.15h-.14l.14-.15v-.14Zm.28.55-.14.57h-.14l-.14-.14.14-.43Zm-.28,1.43h.14l-.14.14v.15l.14.14V112h-.28v-.43Zm.86-.14-.29-.29v-.14h.29Zm-.43-3.84-.86-.15-.43.15-.29-.29c.29,0,.43-.09.43-.28l.15.14h.14l.14-.14h.29v.28c.48,0,.71-.14.71-.43h.29V107h-.14Zm1,9-.5.17v-.34h.5Zm.1-6.43-.28-.29h.14L36,110Z"></path><g><path class="cls-1" d="M5.07,161.19v-.45l-.29-.31H4.61C4.74,160.94,4.89,161.19,5.07,161.19Z"></path><polygon class="cls-1" points="16.46 173.93 16.75 173.62 16.46 173.33 16.46 173.93"></polygon><path class="cls-1" d="M.09,148.4v0h0Z"></path><polygon class="cls-1" points="1.32 161.19 1.01 161.48 1.01 161.62 1.32 161.34 1.32 161.19"></polygon><path class="cls-1" d="M37,157.09l-.5-.5c-.09-1.16-.21-2.23-.35-3.22h.21v.34h.17v-.17l-.34-1.77h-.31a13.88,13.88,0,0,0-2.48-6.26c-.3-.36-.65-.74-1-1.13a22.37,22.37,0,0,0-3-3v0H29.2l-.31-.28.06-.06A8.8,8.8,0,0,0,27.14,140a23.11,23.11,0,0,0-7.53-2.33V138h-.16l-.11-.34c-.36,0-.72,0-1.07,0h-.15l-.16.16-.17-.16-.64.16-.65-.16H.88c-.32,0-.59.48-.81,1.45,0,0,0,1.7,0,2.08v2.26h0l0,0v1.05l0,.05v.15h0v.63h0v.34h0v.16h0V146h0v.17h0l0,0v1.93l.49-.25.15.17v.59H.27c0,.19.15.29.46.29v.31l-.46.14v.15a1.74,1.74,0,0,1-.2.43v2H.42v-.14l-.15-.17v-.14H.42l.9.45c0,.31-.2.46-.59.46l-.6.74L.07,153v2h0v3.22h0v.65l0,0v1.18l0,0v2.1h.2v-.31H.42l.16.46-.45.14v.31l.14.14H.07v7.63h0v.16h0l0,0v1l0,.05v.81h0v4.46a3.52,3.52,0,0,0,3.55,3.49H7.19a3.81,3.81,0,0,0,.59,0h0a2.77,2.77,0,0,0,.48-.11l.33.12h1.93a.61.61,0,0,0,0-.14h.36l.13.14h.5v-.14h1a.33.33,0,0,0,.27.14h4v-.14h.45a.68.68,0,0,1,0,.14h2.1a20.63,20.63,0,0,0,4.51-.81l-.34-.31,0-.15.3-.13v.28l.17.14,1.28-.31A18.69,18.69,0,0,0,36,166.6a14.7,14.7,0,0,0,.39-1.68,32.15,32.15,0,0,0,.56-6.23v-.81l-.16-.14.16-.17ZM28.29,142l.31-.29h.15v.6h-.46Zm0,2.24.46-.14v.14l-.31.45.16.17h-.31Zm-1.95-3.89h.16l.15.15-.31.31ZM25,142.9l.15.15v.76H25l-.14-.91Zm-.31,2.7.31-.31h.15l.14.45-.14-.14-.15.14h-.31Zm1.22,3.74v.15q-1.05-.36-1.05-1.2h.43Zm-3.32-8.22h.17l.14.43h-.14l-.17-.15Zm.46,2.69V144l-.29.29-.17-.43Zm-.6,1.48v-.14c.49.23.74.49.74.76l-.14.14v.15h.45v.14l-.14.16v.15l.74.45v.14l-.15.15v.16h.15l.14-.16c0,.3.21.45.62.45l-.62.45V148l.17-.17h-.17l-.14-.14-.14-.15h0c-.39-.39-.69-.59-.9-.59v-.17l.14-.14v-.15c0-.2-.14-.3-.43-.3v-.29l-.17.14h-.14l.14-.14Zm.45,1.21v.29h-.14l-.17-.45h.17ZM21.4,141c.21,0,.45.45.74,1.36l-.14.45h-.15a4.71,4.71,0,0,0-.59-1.81Zm0,.76h-.14l-.17-.16v-.29h.17Zm-.45-2,.14.45v.14l-.43-.28ZM20.81,142H21l-.14.17.45.42-.31.31-.29-.73ZM20,139.76h.31l.15.14v.17L20,139.9Zm-.14,1.05.14-.15h.17l-.17.15.17.45v.14H20L19.9,141Zm-1.34,3.29h.15l.14.45h-.14l-.15-.14Zm-.13,2.54v.13l-.14-.14Zm-3-3.88v.29l-1.22-.29v-.17h.45Zm-.6-3.15-.45.15c0-.21-.15-.31-.46-.31v-.15h.15l.76.15ZM13,143.81l.31.29v.31L13,144.1Zm-.46-2.41v-.14h.31l.74.14v.31Zm.6,1.81v-.16h.62l.14.16v.15Zm.45-.62v-.14l.46-.14v.14l-.15.14Zm.46-4.34v.15c-.5,0-.74.25-.74.76h-.46V139l.46-.62ZM12,137.8l1,.31-.29.29-.76-.29Zm-2.1,2.41.31-.45h.14l-.45.59Zm-.45,3.6v.29l.16-.15h.15l.59.29v.31H9.72l-.46-.31-.74.17V144h.15l.45.15Zm-.15,2.39v.14H8.52l-.16-.14v-.15Zm-.59-1.34v-.31c.6.09.9.25.9.45l-.62.29Zm.45,2.84h.29c0,.49.1.74.31.74l-.31.31-.6-.46Zm.74.74.14.16h.17l.14-.16v.76h-.14c0-.21-.15-.31-.45-.31Zm-.14-3.29.28-.29.17.14v.15Zm-1.51-2.56h.15l.31.31H8.21ZM7,141l.29-.29v.46H7Zm-.59.31h.14l.14.14h.14l-.14.15H6.43Zm-.31,18v.14a3.51,3.51,0,0,1-1.34-1.19v-.14l.14.14.15-.14h.14v.14l-.14.14v.15h.31l.14-.15A.85.85,0,0,0,6.12,159.24Zm.14,6H6.12l-.31-.28H6Zm-1.65-8.39h.46l.14.62c-.19,0-.29.14-.29.43H4.78l-.17-.14v-.15l.17-.14V157Zm1-16V141l-.14.17.14.14v.29l-1-.15C4.72,141,5.07,140.81,5.66,140.81Zm-1,3.74h.31c.31.08.46.38.46.91H4.92l-.31-.6Zm-.28,2.1.45-.15v.15l-.17.14H4.33Zm0,5.7.45.14-.17.45H4.33Zm0,5.7h.14l.14.43v.16H4.33Zm-.17-9.16v.31l-.43.14Zm-1.05,3.6-.29.31-.31-.31v-.14Zm-.14-.6.31-.31.14.17v.14Zm.76,1.65-.17.45-.45-.45Zm-.62-8.25.31.45c0,.24-.25.39-.74.46a.4.4,0,0,0-.45-.46C2.23,145.58,2.52,145.43,3.11,145.29Zm-.88,1.36h.45v.45H2.37l-.31-.31ZM2.06,155l.62.6v.14l-.17.17H2.23v-.17h.28v-.14H2.06Zm-.14,3,.14.14h.31v.14H2.06v.46h.31v.14l-.14.17c.24,0,.59.24,1,.74h.14v-.31l-.91-1.05h.31q.51,1.05,1.05,1.05l.46-.29v.14l-.17.15,1.36,1.35-.14.46.14.45H5.38c0-.19-.31-.44-.91-.76v.31c-.3,0-.45-.26-.45-.76H3.87v.3H3.56a1.84,1.84,0,0,0-.88-1.35H2.51v.31H2.23v-.15l.14-.16v-.15l-.31-.28H1.92v.28H1.78v-.28l.14-.17-.29-.6Zm3.15,5.53-.15.45H4.61l.31-.45ZM3,163.29v.15l-.46-.15c0-.3-.09-.45-.28-.45l.14-.6v-.16l-.14-.15H3c.08.5.23.74.45.74l-.14.46L3.11,163H3l-.15.15Zm.14-2.41c.46.2.72.39.76.6v.14H3.73C3.52,161.59,3.32,161.35,3.11,160.88Zm-1.33-.59c0-.3-.11-.45-.31-.45v-.15l.59.29v.31Zm.28,4.05-.14,1c-.26,0-.45-.35-.6-1l.15.15h.16ZM.58,147.1V147l.15-.76.45.14C1,146.8.79,147.05.58,147.1Zm.15.45.28-.31h.17v.46H.73Zm.45.74V148l.14-.46h.15v.29l-.15.45ZM.42,161.48l.16-.6v-.14l-.16-.16.76-.15c0,.51.15.81.45.91l-.76.59H.73C.73,161.63.62,161.48.42,161.48Zm0,6.3v-.15H.58l.15.6C.52,168.23.42,168.08.42,167.78ZM4,170.33l.31.45v.14c-.81-.15-1.22-.31-1.22-.45l-.14.17H2.82l-.9-.45v.45h.31v.14l-.17.74H1.92l-.29-.29.15-.9-.77.14c0-.7-.14-1.05-.43-1.05a2.93,2.93,0,0,1,.89-1.93v.43l.16-.14h.15a2.24,2.24,0,0,1,1.19.76H2.68l.14.14v.46H2.37v.14l.14.14v.17l-.28.29V170h.14c.21,0,.31-.14.31-.43a.38.38,0,0,1,.43.43l.17.17h.14l-.14-.77v-.14h.14c.91.21,1.36.4,1.36.6S4.53,170.33,4,170.33Zm.9-1.19a1,1,0,0,0-.45-.77,1.82,1.82,0,0,1,.91-1.19v-.31l.59.31V167l-.16-.77.16-.14h.15c0,.21.15.31.45.31v.29l-1.5,2.41Zm2.56,3.43v.14l-.31,1.22.31.29v.16c-.42,0-.63.1-.63.29V175H6.57a1.24,1.24,0,0,0-.6-.91v-.31H5.66v.31H5.38v-.45c.19,0,.28-.2.28-.6l.15-.14H6v.29h.15a.4.4,0,0,1,.45-.46c0-.39.09-.59.28-.59l.17.16v.15l.15-.15h.31l-.17.15Zm.42,1.5H7.62v-.45H7.9Zm.17-4.79h.29v.6l-.46-.46Zm2.1-.91v.17l-.31.29H9.72v-.29H9.57l-.45.14c0,.61.15.91.45.91v.14l-.31.46v.14l.31,1-.16-.15H9.12a1.36,1.36,0,0,1-.6,1.34H8.36v-.74l.31-.31.14.17v-.17a1.93,1.93,0,0,1-.74-1.33V170l.74-.14-.14-.15v-.45l.14-.14L8.67,169v-.29H9l-.14-.14v-.76c0-.19.2-.29.6-.29l-.29-.31.14-.14v-.31L9,166.44H8.81l.45-.45v-.17l-.14-.43H8.81v.29H8.52v-.6l.15-.14v-.17l-.15-.14h.29v.31h.31L9,164.77v-.28l.46.45v.14H9.12l1.05,1.65-.17.14h.17l.14-.14v.14l-.31.76c.27,0,.48.28.62.74h-.31l-.14-.14H10Zm.29,7.35-.15-.46h.15l.16-.14.15.6Zm1.21.76h-.31v.74l.14.14h-.28l-.45-.28.14-.46-.14-.45.28.31.45-.17h.17Zm-.31-2.86h.31l.14.6Zm2,4.65-.46.31h-.14l-.17-.17c0-.39.16-.59.46-.59h.14l-.29-.74h.29a1,1,0,0,0,.45.74h-.45v.31Zm.59-.6-.45-.76v-.14c.4,0,.64.3.74.9Zm1.79-2.24-.14.15h-.14l-.17-.15v-.17l.17-.14h.14l.14.14Zm.91.43-.14.17.14.14c-.49-.06-.74-.21-.74-.45v-.29l.14-.17c.4.16.6.32.6.46Zm-.6-.74V175c0-.21.3-.41.74-.6v.29Zm1.34,1.65-.15-.15-.14.15h-.14l-.17-.15v-.14h.17l.14.14v-.45h.14l.15.45Zm-.43-1.34h-.17l-.14-.17.31-.45.43.45Zm1,1.65.43-.46h.31l-.46.46Zm1.33.59c-.19,0-.28.2-.28.6l-.46-.14v-.31h.29v-.15l-.29-.45v-.14a.4.4,0,0,1,.46.45h.14l.14-.17.31.31Zm1.2-1-.89-.45a1,1,0,0,0,.43-.74h.17c.17,0,.33.25.45.74l-.45-.31ZM20,175v.28h-.43v-.14Zm-.28-1.65V173l.45.31v.15Zm2.83,1.2h-.14l-.14-.46.28-.31Zm-.59-2.7v-.31l.31.31v.29Zm1.19,4.94v-.15q.24,0,.45.6Zm.76.14-1.19-1.19q.72,0,1,.9l.14.15Zm-1.05-4.48-.14-.6h.29l.14.45v.15Zm.29,1.5v.14l-.29.31v-.16Zm.45-4.34H23.5l-.14-.45V169h.14l.45.31Zm.59,9.73-.14-.17H24l.23-.11a.53.53,0,0,1,.13.28Zm.63-6h-.17l-.14-.45h.31Zm1.32-15L26,159v1.12l.16.17H26l-.17,1.43a11,11,0,0,1-2.74,7.42h0l-.16.16.1.1-.29.31v-.23a7.88,7.88,0,0,1-1,.83l-.93.31.28.28H21l-.25-.24a3.65,3.65,0,0,0-1.18.58h-.06c.27.29.61.73,1,1.3V173L19,171.31h-.12l-.32-.06h-.48l-.13.14h0v-.14l-.81.16h-.37a.85.85,0,0,0,.57.7v.16l-.15.15.31.45-.31.29h-.14l-.14-.15v.31l.74.15h.14v-.31l1.05,1.05a.53.53,0,0,0,.6.59V175l-.15.14.46.6h-.15l-.45-.46-.45.17v.15l.74.28V176l-.15-.17-.14.17-1.36-1.22.17-.43-.17-.45-.14.14h-.15v-.14l.15-.17-.74.17v.14l.43.6h-.29c0-.33-.25-.58-.76-.74l-.43.6v-.15l.43-1.21h-.14L16,173l.29-.45-.29-.29h-.14l.14.15c0,.17-.25.32-.76.45l.31-.76c.5-.16.79-.39.88-.7H10.75V147h-.29v-.46h.16l.41.43h5.64q5,0,7.56,3.06c.89,1.28,1.54,3.6,1.95,6.94l-.16.16v.65Zm.47-7.68-.31.29a.81.81,0,0,1-.6-.6l.45-.14.46.14Zm-.6-5.84v-.45h.14l.15.14Zm.74-3.6-.14.14v.45l.14.15-.14.17H26.5l-.16-.17h-.29v.31l.14.14-.45.14.17.62v.15h-.17l-.28-.6v-.91h.14v.6l.31-.28V142l-.31-.45.74.16h.16v-.16l-.16-.15v-.14l.16-.14h-.16V141l.45.17Zm.31,3.89h.14l.6.59v.17l-.14.14v.15h.14l.31-.29v-.17a1.36,1.36,0,0,1-.45-.88l-.15.14h-.16v-.31c.2,0,.31-.15.31-.45l.31.31-.17.14.17.17-.17.14c.24,0,.44.45.6,1.34l-.15.16.15.15-.74.31h-.15l-.16-.46.16-.16C27.35,146.34,27.2,145.94,27.1,145.15Zm.74,3-.29-.31h.15l.31.31Zm.17-.6h.43l.31.29V148l-.74-.17Zm.88,1h-.45l.31-.31.14.15Zm1.05-5.24h.31l-.14-.15v-.16h.28c.21,0,.36.3.46.9H30.7l-.76-.14Zm.31.74c.27,0,.52.35.74,1.05H30.7l-.16-.6h-.15l-.45.31H29.8Zm-.45,5,.74-.31v.31l-.43.59Zm-.46-.91V148h.46l.31.43h-.17ZM31,151.58h-.45v-.28l.45.14Zm1.64.77h-.28c-.18,0-.33-.3-.46-.91l.46-.28h.14v.28h.14l-.28.6Zm.77,0c-.31,0-.66-.61-1-1.81H32.2v.62h-.45v-.32q-.45,0-.45-.3h.28l-.14-.15.14-.14v-.14L31,149.2h.31v-.14l-.31-.31-.14.14-.31-.6.16-.14V148l-.16-.46-.6.29-.14-.14-.15.14-.31-.88.46.14-.15.14v.15h.15l.14-.15V147c-.3,0-.55-.35-.74-1.05l.14-.17h.15q.45,0,.45.6l.17.16h.14l-.14-.16v-.6c0-.16.24-.31.74-.45l.31.31.28-.31-.28-.43.14-.62-.31-.6.17-.14-.46-.45v-.29A13.88,13.88,0,0,1,34,149.94l.29,1.36C34.14,152,33.84,152.35,33.4,152.35Zm3.4,6.51-.22-.15c0-.19,0-.36,0-.54l.25.35Z"></path><polygon class="cls-1" points="30.54 146.5 30.7 146.5 30.7 145.91 30.39 145.91 30.54 146.5"></polygon></g><g><polygon class="cls-1" points="72.08 161.94 72.55 161.47 72.08 161.63 72.08 161.94"></polygon><polygon class="cls-1" points="72.08 161.47 72.07 161.44 71.96 161.49 72.08 161.47"></polygon><path class="cls-1" d="M79.39,176.91l-.15-.5c-.13-1-.32-1.49-.56-1.58a4.4,4.4,0,0,0-.18-.62l-.07-.21h0l-1.76-5.48H76.5l-1.43-4.05c-.11-.43-.24-.84-.36-1.23l-.7-.17v.16l-.17-.16H73.2v.31h-.31v-.31l-.34.31.34.33h-.81v-.17h.33v-.16h-.48c0,.22-.21.33-.64.33l-.17.17V164h.17c0,.29-.33.5-1,.64v.17l.5-.17.14.17h.17l.48-.17.17.17V165h-.34v.14l.34.33v-.33h.64l-.17.17v.31l.17.16V166l-1.29.31-.64-.17c-.15.66-.36,1-.65,1l.17.14v.34l-.17-.17h-.14l-.33.65.06.28v0l.31-.33.31.33v.15h-.6l.08.4.17-.17h.62v.17l-.62,1.09-.17.65h-.16l-.31-.65v-.14h.31l.16.14h.17q0-.78-.33-.78h-.17q0,.78-.48.78l-.47-.14.08-.34a10.39,10.39,0,0,1-1,.44h-.17l1.29-.95.11-.44h-.33c.14-.52.3-.78.47-.78l.17.14h.17c.12-.64.39-1,.78-1v-.16h-.47v.16l-1-.31v-.16h.65v-.17l-.17-.17V166l.17-.17.14.17h.17l.81-.33v-.31h-.34v-.17h.34v-.31l-.81.17v-.17c0-.32-.11-.48-.31-.48l-.17.15h-.17v-.15l-.14.15h-.81v-.31l.48-.17.47.17v-.31l.17.14h.17l.14-.14V164l.17-.14h.47L70,164h.17v-.31l-.17-.17v-.16l1.12-1v-.31h-.31c0,.29-.27.55-.81.79v-.15l-1,.32h-.17v-.17L72,161.49l-.67.14v-.33l.31-.31h.33l.14.45,1.67-.76-.49-1.39a1.89,1.89,0,0,0-.33-.93l-.78-2.23V156l0,.05-.46-1.31a3.71,3.71,0,0,0-.42-1.19l-.08-.24.05,0-1-2.58h0l-.8-2.26L68,143.88l-.1.09-.19-.51a1,1,0,0,1-.66.29v.15l.33.33-.33.31h-.15v-.31H66.7v.62l-.79-.31-.64.17h-.48v-.34l.79-.14h.16l.17.14c0-.18.58-.55,1.72-1.09v-.07l-.38-1-1.67.69c0-.24.53-.54,1.6-.89l-.44-1.24c-.53-2.15-1.19-3.22-2-3.22H55.23a1.35,1.35,0,0,0-1.29.81L51.17,146h.07v.17l-.16.17v.78l.16.17h-.16l.33,2.22h-.33v.33l-.17,1.1h-.14v-.15l.14-.95q-.48,0-.48-.33c.35,0,.57-.54.65-1.6l-.31-.48,0-.49-4.09,11.15c.18-.13.4-.28.67-.45v.64l.48-.47h-.31v-.34l.48-.14,1,.62h.17l-.17,1h-.31l-1.12-.62-.48.31v-.16l-.53.13L41.25,173a4.28,4.28,0,0,0-.23,1.4l-1.74,4.91a1.42,1.42,0,0,0,.81,1.29h1.76l0,0a2.76,2.76,0,0,0,.82.13h4.53a4.51,4.51,0,0,0,.88-.11.88.88,0,0,0,.33.07h.08a.93.93,0,0,0,.29,0h.93q.66,0,2-4.16a5,5,0,0,0,.53-1.22l.6-2.15a7.2,7.2,0,0,0,.28-.8H58.8s0-.06,0-.11V172l.65-1,.33.34-.81.78h-.17l.26.11h.08v-.11h.47l0,.11h3.72v-.11H63l.31-.3.2.41h1.15a.28.28,0,0,0-.23-.11v-.3h.16c.2,0,.29.14.31.41h1.61l.25.81.39-.1c0,.2.15.31.47.31l.5-.15v.31h.31l.31-.78c.23,0,.34.16.34.47h.31v-.33h-.31v-.31l.64-.48.14.48H70v-1h-.31v-.16l.14-.48H70c.26,1.27.63,1.91,1.12,1.91h.17v.33c-.22,0-1.08,1.07-2.58,3.2l-.41,1-.11.43c0,.13.09.26.14.39q.23.67.42,1.17h0c.34.87.61,1.31.8,1.31h9.52a1.34,1.34,0,0,0,1.28-.81v-.31l-.81-2.58Zm-13.17-36,.31-.31.17.48h-.48ZM45.83,172.75l1.57-.64v.17c0,.2-.47.42-1.43.64h-.14Zm-2.07-4.93h.62V168h-.62Zm.31,10.66v-.31l.64-.17Zm2.24-1.27h-.65l.31-.31h.34Zm1.74,1.6-.48.31v-.48H47.4l-.14.17h-.33v-.17l.16-.16c.43,0,.65-.16.65-.48h.14l.17.17-.17.16Zm5.1-37.47h.48v.17l-.31.31h-.17Zm.17,1.6.31.34-.48.14-.17-.48Zm-.48.81v.31h-.17l-.31-.31Zm-.81,3,1.12.31v.17h-.64l-.48-.34Zm-.62,8.28h.31v-.31l-.17-.17.17-.17.64.34v.31c-.42,0-.64.2-.64.47h-.17v-.16l.17-.15h-.31Zm-.33.16h.16l.17.15-.64.5H50.6ZM49.48,153l1.12-.62-.17.79.17.48c-.27,0-.53.58-.79,1.74h-.16l-.17-.79v-.17l.48-.62v-.33l-.48.17h-.31Zm.48,5.27h-.31v-.33l.31-.31v.31l-.15.17Zm-.15.48.31.31v.17l-.47-.48Zm.79,14.19h-.48l-.64-.17v-.16h.17l1,.16Zm.64-1.93H50.6v-.15h.64Zm.31-8-.64.17h-.14v-.64h.14a1.17,1.17,0,0,1,1.12-.79l.33,1.12H52.2L52,163v.17Zm.48,7.82h-.14v-1l.47.14h.15Q52.39,170.84,52,170.84Zm.64-7h-.31l-.16-.47.16.14h.15l.16-.14v-.17l-.16-.17v-.14h.16l.17.14Zm.79-1c-.73-.41-1.1-.74-1.1-1v-.14l.15-.17-.15-.17h.48a2,2,0,0,0,1,1.46Zm1.29-.33q-.48,0-.48.33h-.33l.64-.64h.17Zm-.33-1.75-.48-.16H53.8V161h-.17v-.15c0-.31.1-.47.31-.47l.17-.17.31-.31h.33Zm6.39-16.57h.47v.14l.48.48c-.54,0-.86-.16-.95-.48Zm-2.53,18.82h-1l-1-.16h-.17l3.56-11.28s3,9.49,3.22,9.49V161l.63,2H58.28Zm1.63,9h-.14v-.16c0-.24.26-.4.79-.48Zm2.24-1.93H62v-.48l.48-.16h.14v.16A.42.42,0,0,0,62.15,170.1Zm1.46-.17-.33.34h-.15v.16l-.64.62v-.47l.31-.31h.33l.48-.48Zm.87-13.75L64,156h-.14l-.17.17-.31-.31.31-.34h.17l.64.34Zm3.61,12.32-.33-.31v-.33h.33Zm.31-5.91h-.64v-.17l.48-.14.16.14Zm2.72-1.77h.17l-.17.48H71l-.31-.31Zm-.81-1.43c0,.32-.21.48-.62.48l.14.17v.14h-.14l-1-.14-.14.14.14.17v.16l-.31.31-.16-.47.81-1.12ZM68,157.78h.31l.17.14v.17l-.48-.17Zm.11,2.88h.15V161c-.21,0-.31.22-.31.64h-.17l-.17-.64Zm-.64,4.17v.48l.14-.17h.17l.17.17V165h.16v.31l-.16.47.31.31-.15.17h-.16l-.34-.31.17-.17c-.53,0-.79-.1-.79-.31v-.33l.31-.31Zm-.75-2v-.17L67,163v.17Zm.47-1.77v.17H67l-.62-.17v-.31Zm-.64-15.62.48.17v.17l-.15.14-.16-.14h-.17l-.14.14h-.48ZM65.1,164.14l-.48-.16.81-.62.15.62Zm.81-3.34-.33-.33h.16l.31.33Zm.73,8-.31-1.12H67v-.17l-.16-.17v-.17h.31l-.15-.14v-.17l.15-.16h.64l.64.81h-.16l-.15-.17h-.16c0,.32-.12.48-.34.48v-.48l-.47.48.33.33h-.17l.17.15v.16l-.33.34Zm3.4,7.73-.15.16h-.33v-.16l.48-.15Zm.64-.31-.17.16H70.2v-.16l.48-.17Zm-.79-1h-.16l.64-.81.31.34C70.15,174.86,69.89,175,69.89,175.3Zm4.76-8.71h.14l.34.31h-.48Zm.48.48v.14l-.34.34-.31-.48Zm-.81.31.33.34h-.17l-.33-.34Zm-2.08-3-.16.15h-.31l-.34-.31.17-.17h.33l.15.17.47-.17c.5.21.77.42.81.64H73.2L73,164.5l-.14.16h-.17Zm.17,3.68.48-.48H73v.31h.17l.16-.14a2.65,2.65,0,0,1,1.29,1.12c-.22,0-.33.16-.33.47h-.48l-.17-.64H74c0-.22-.33-.33-1-.33V168l-.62.31ZM72,166.38l.31.31h-.17l-.31-.31Zm-.81.62.33-.31h.31l-.48.48h-.16Zm-1,.48.17-.14h0l.45-.34.31.34v.31l-.48.17v-.34l.17-.14H70.4Zm2.08,10.85H72v-.16l.31-.31Zm-.51-6.78v-.16h.64v.16l-.33.32Zm.67,4.06h-.33l-.14-.47h.14l.33.33Zm.92-5.34c-.14.43-.57.74-1.28.95v-.17l-.15.17h-.81c-.21,0-.31-.21-.31-.64h-.33v.64h-.17l-.31-.79v-.5c.32,0,.48-.36.48-1.09H71a1.09,1.09,0,0,0,.48.78l-.14.81c.17,0,.39-.37.64-1.12l.62-.16-.62-.48v.17l.15.14h-.15l-.64-.48c.16-.43.32-.64.48-.64l1.12,1.29H73c.49.2.76.42.81.64h-.31l-.5-.17v.65Zm1.47,6.94-1,.31h-.33v-.14l1.29-.48Zm.31-2.72-.14.17-.48-.31.31-.33.31.33Zm.33-1-.81-.14v-.17l.65-.17.47.17Zm.79,6.22v-.16H76l.14-.48h.17l.48.48Z"></path><polygon class="cls-1" points="70.31 172.68 69.83 172.68 70.17 172.99 70.31 172.99 70.31 172.68"></polygon><path class="cls-1" d="M69.19,166.43h.17l.47-.17.17.17.17-.17v-.17L70,166Q69.19,166.15,69.19,166.43Z"></path><polygon class="cls-1" points="71.77 163.38 71.77 163.07 71.6 163.07 71.29 163.38 71.77 163.38"></polygon></g><g><polygon class="cls-1" points="35.67 21.01 36.01 20.7 35.37 20.7 35.67 21.01"></polygon><polygon class="cls-1" points="35.51 13.45 35.84 13.45 35.84 13.12 35.51 12.81 35.51 13.45"></polygon><path class="cls-1" d="M35.51,17h-.14l.31.81h.64l.17-.16A.89.89,0,0,0,35.51,17Z"></path></g><g><path class="cls-1" d="M.45.43a.2.2,0,0,0,0,.08l0,0Z"></path><path class="cls-1" d="M.14,2.07c.41-.16.62-.32.62-.48L.62,1.42h.62c0,.26.21.58.64,1v.16h.17V1.76L.33.67a5.65,5.65,0,0,0-.26.86v.53Z"></path><polygon class="cls-1" points="0.76 2.23 0.45 2.23 0.28 2.38 0.28 2.54 0.76 2.38 0.76 2.23"></polygon><polygon class="cls-1" points="4.62 0.08 4.43 0.08 4.43 0.16 4.6 0.16 4.62 0.08"></polygon><path class="cls-1" d="M.62,23,0,22.45v1.1A.94.94,0,0,0,.28,23Z"></path><polygon class="cls-1" points="2.21 26.32 1.71 26.15 1.71 26.49 2.21 26.49 2.21 26.32"></polygon><polygon class="cls-1" points="27.59 29.83 27.42 29.83 27.11 30.16 27.25 30.16 27.59 29.83"></polygon><polygon class="cls-1" points="26.94 31.9 26.94 31.28 26.78 31.28 26.61 31.42 26.47 31.42 26.3 31.28 26.3 31.11 26.47 30.95 26.13 30.95 25.82 31.59 25.82 32.23 26.61 32.38 26.94 31.9"></polygon><path class="cls-1" d="M7.46.16h.17L7.8.08H7.49Z"></path><polygon class="cls-1" points="7.79 2.54 7.94 3.02 8.1 3.02 8.1 2.85 7.94 2.23 7.79 2.23 7.79 2.54"></polygon><polygon class="cls-1" points="6.67 0.3 6.84 0.47 7.15 0.47 7.01 0.08 6.9 0.08 6.67 0.3"></polygon><path class="cls-1" d="M5.08,3.33l.47.5V3.5h.17c.21,0,.31.16.31.48l.17.16h.16L6.51,4l.16.16V3.83L6,3.5H5.86L6,3.33V2.85C5.39,3,5.08,3.12,5.08,3.33Z"></path><polygon class="cls-1" points="33.33 32.38 33.64 32.07 33.48 31.9 33.33 31.9 33.33 32.38"></polygon><path class="cls-1" d="M6.51,1.42V1.26c-.21,0-.31-.16-.31-.48H5.86v.33c0,.21.17.31.5.31Z"></path><path class="cls-1" d="M.14,4.14,0,4a2.62,2.62,0,0,0,0,.28H.14Z"></path><path class="cls-1" d="M.93,7.34c.28,0,.5-.32.64-.81L.45,6.86V6.38l.31-.47H.45a2.57,2.57,0,0,1,.79-1.46l-.15-.62H.76v.31L.62,4H.45v.16l.17.17v.14c-.14.48-.35.74-.62.8V7.46c.37.44.62.66.76.66V7.81L.45,7.17H.76Z"></path><path class="cls-1" d="M1.71,4.14h.17L2.05,4l1.12.47c0-.2.16-.31.47-.31V3.83L3,3.33v.34H2.83c-.52-.18-.78-.45-.78-.82H1.57v.34l-.17.14.48.5L1.71,4Z"></path><path class="cls-1" d="M0,4.62v.12l.13-.12Z"></path></g><path class="cls-1" d="M37,19.58l-.16-.16c0-.08,0-.17,0-.25a13,13,0,0,0-.33-3h0V16l-.34-1.76H35.8a4,4,0,0,0-.69-1V13.1L35.2,13v-.17l-.1-.1c0-.12,0-.25-.05-.37l.32.14h.14c-.07-.54-.22-.81-.48-.81l-.13.14-.08-.18a.49.49,0,0,0,0-.11h-.09a.47.47,0,0,0-.05-.1v-.06l.14-.17L33.91,9h-.33c0,.43-.16.64-.48.64V9.42L32.62,9V8.61l.65-.47L32.46,7l-.58-.67L31.8,7.49h0l.17.17V8h.07V8.6h-.17V8.14h-.07l0-.15,0,.3h-.17V7H31.4l-.14.48h-.17l-.16-.14c.14-.54.3-.81.47-.81v.33l.34-.33V6.18l-.43-.47,0,.2h-.33a4.18,4.18,0,0,1,.09-.5,12.35,12.35,0,0,0-3.88-2.93A21,21,0,0,0,18.27.08h-.15L18,.24,17.79.08l-.64.16L16.5.08H12.4A.65.65,0,0,0,12.09,0H1.6a.71.71,0,0,0,0,1.42h.1c.07.43.18,1,.18,1l1.34.53L4.47,2.5,5.64,3l1.08.58a5,5,0,0,0,.83.08A3.83,3.83,0,0,0,8.88,3l.58.27-.07.06.31.34c-.16.42-.32.64-.48.64l-.64-.17v.48h.33a11.63,11.63,0,0,0-.81,3l-.16-.17H7.79l-.33.33v.65h.33V9.89l-.16.64.16.62-.16.48.31.33v.31H7.79L6.67,11.8c0,.43-.1.64-.31.64l-.81.17v-.48L5.72,12V11.8L5.55,12H5.24V11.8l.15-.17v-.14H5.24l-.16.14H4.91v-.31l.17-.17V11l-.65-.64H4.29L4,10.06V9.89l.48.48h.34V10.2c-.28,0-.43-.22-.48-.64l-.17-.15H4v.31H3.64V9.56l.15-.15V9.25l-.15-.48h.48c0-.32-.21-.48-.64-.48V8h.16l.15.14H4l-.16-.47H3.64l-.16.16H3.31V7.48h.48A1.77,1.77,0,0,0,4.91,7c.43,0,.8.38,1.12,1.12H6.2c0-.25.37-.73,1.12-1.43l-.17-.16H7l.17-.15V5.74a.42.42,0,0,1-.48-.48A1.75,1.75,0,0,1,6,4.14H5.72l.79,1.43c-.21,0-.31.16-.31.48-.18,0-.45-.37-.81-1.12H5.08c0,.32-.11.48-.31.48l-1-.79-.62.31.14.17v.64L3,6.69l.17.17c-.43,0-.65.24-.65.62l-.81-.31v.17l.5.78-.16.17H1.88l-.17-.17v.34l.17.48L.93,8.6l.16-.14V8H.93v.48H.14L0,8.32V8.6H.14v.17H0v1H.14L0,10.87v1.78a2.41,2.41,0,0,1,.45-.21H.62v.17L0,13V15.8l.45.31v.17H.28l-.14-.17H0v3.66a.31.31,0,0,0,.28-.32H.76l.17.17A2.44,2.44,0,0,1,2.21,19v-.31l-.16-.17h.16l.15.17.33-.31v-.17H2.52l-.16.17H2.21V18h.48l.14.17v-.34h.34L3,18.67v.16h.31l.17-.16.16.16-.33.31H3.17L3,19v.16l-.31.31H2.21v-.31H1.88l-.17.48h.17L1.4,20.74v.17h.17a1.29,1.29,0,0,0,.64-1H3a2.57,2.57,0,0,0-.79,1.6h.31v.16H1.57q0-.78-.48-.78H.93v.31l.16.16H.62L.28,20.26l.17-.16L0,20.21v1.15a4.37,4.37,0,0,0,1.4,2.1v.31l-.78.17c0-.32-.12-.48-.34-.48,0,.3-.09.45-.28.47V39.16a3.71,3.71,0,0,0,.07.67v1.65q0,1.62,1.29,1.62H19.41a20.63,20.63,0,0,0,4.51-.81L23.58,42l.17-.65a.94.94,0,0,0-.12-.22l.13-.08c.42.35.64.61.64.78h-.17l-.14-.17h-.17V42l.17.14,1.28-.31c.63-.29,1.23-.61,1.81-1l.07-.18h.17v0a19.16,19.16,0,0,0,3.33-2.52l-.78.08v-.17c0-.17.26-.33.79-.47q0-.48.33-.48h.17c.13,0,.22.09.27.26a17.69,17.69,0,0,0,2.11-2.76v-.05l-.16-.17.16-.14v-.17c0-.2-.16-.31-.47-.31,0-.22.16-.33.47-.33v-.31L33.48,33v-.14l.33-.34h-.17l-1.43,1v-.14l.48-.82h-.17l-.47.48v-.48l-.79.17c0-.25.41-.52,1.1-.81l.64.17h.17V31.9h-.34l1-.79.14.17h.17l-.31.62.31.81-.31.65.11.84q3-5.22,3-13v-.81l-.16-.14.16-.17ZM4.43,5.74H4.6v1H4.29ZM8.1,28.08H7.46A.42.42,0,0,0,7,27.61l.17-.48V27L7,26.8l.48-.15ZM5.72,34.45l-.17.65L4.77,35v-.33l.14-.17A.42.42,0,0,0,5.39,34h.33v.33l-.17.14ZM4.43,32.07H4.29c0-.21.32-.42,1-.65v.17h.31v.17Zm.34,4v1l-.34.31V36.05ZM2.83,31.9h.34v-.62H3l-.17.14H2.69v-.31c.78,0,1.2.27,1.26.79l-1,.33v-.16Zm-.78-3.82H1.88v-.16l.17-.17h.47v.17Zm.31,2.08H2.21l-.33-.33h.17ZM3,29.83l.31.33L3,30.47v-.31H2.83l-.14.14H2.52Zm.79.64L4,30h.34l-.17.65H4ZM4,16.59v-.17h.82l-.17.17v.17l.17.14v.33l-.48-.33H4.12L4,17.07l.34-.48Zm.82,3.51h.14v.33H4.77a1.07,1.07,0,0,1-1,.62v-.31H4ZM4,27.92a2.2,2.2,0,0,0,1.29.64v.17L4.91,29l.33.48-.64.31-.17-.48.34-.62H4.6L4,28.08ZM5.55,30v-.31a1,1,0,0,1,1,.62H6.2Zm0-9.56v-.17H6l.33.31-.64.17v-.17Zm.17,3.34v.64H5.55v-.64ZM6,28.23v-.15l.17-.16h.16l.15.16v-.33h.16a.42.42,0,0,0,.48.48v.16L7,28.56Zm1.43-5.89V23l-.31.31H7l.17-.17-.31-.31.48-.47Zm-.31-6.56H7L6.84,15h.31Zm-.64-1.91H7v.34L6.51,14Zm-.15,4.32L6.51,18h.33v.17l-.33.31H6.36ZM5.08,19.31l1-.48c0,.21.16.31.48.31,0,.22-.48.6-1.43,1.12l.31-.33c-.16-.41-.32-.62-.48-.62v-.17ZM4.77,19l-.34-.31H4.6l.31.31Zm0-3.34v.14l-.34.33V16ZM4,14.35h.17l.31.48V15H4.29l-.5-.47Zm-1.43-.14h.65l-.34.31-.14-.17-.17.17ZM.93,9.89l.31-.33.16.16v.17l-.16.17H.93Zm.64,6.39-.33.31H1.09l.48-.48Zm.14-1.12v-.95L1.88,14h.17l.16.17-.16.95Zm.34.79v-.17l1.74.5v.31ZM4.12,29v.17H3.79L3.64,29v-.17l.15-.14c-.32,0-.48-.11-.48-.34l-.14.17-.48-.17v-.16l.14-.15Q3.91,28.44,4.12,29Zm-1-8.78.31-.33h.16l-.16.5H3.17Zm-1.6,2.39,1.91.16q-.48,1-1,1c-.31,0-.63-.32-.95-1Zm.31,3,.48.47L2.21,27v.17h.31v-.48H3V27l-.17.17c.43,0,.65.16.65.48v.14H3.31a1.74,1.74,0,0,0-1.1-.48,2.44,2.44,0,0,0-1.12-.95C1.14,26.1,1.4,25.88,1.88,25.68ZM.93,26.8l.64.16-.33.48-.31-.31Zm-.48,8H.28l-.14-.65.48.17Zm.48,5.74v-.47h.16l.15.47Zm.31-7.65H.93l.31-1.12v-.34l-.62-.14v-.17L.76,31c.54,0,.81-.11.81-.31v-.17l1.26.17v.16L2.69,31q-.81,0-.81.33v.14l.17.17-.48.17v.14l.14.17v.16C1.39,32.23,1.24,32.45,1.24,32.88Zm.81,8.3-.65.14v-.14l.31-.34h.34Zm-.17-6.56v-.31h.64v.14l-.47.17Zm.33.48V35l.48-.16.31.47ZM3.48,34l-.17.16H3.17L3,34l.31-.31h.17Zm.16-1.75h.48l.17.15-.34,1-.47-.65Zm.79,5.89c0,.32-.1.48-.31.48v.17l.17.17H4A1.56,1.56,0,0,1,5.08,37.5l.16.15h.15l.16-.15a6,6,0,0,1-1.76,3L4.6,38.6v-.48Zm1,3.53v-.16l.33-.31h.14Zm.33-5.91-.33-.31h.16l.31.31ZM6,33.19l.48.17v.14H6.2L6,33.36Zm1.29,8.3-.17-.17-.48.33v-.47L6.84,41l.14.17h.17L7.32,41ZM6.2,41.18V41c0-.19.37-.51,1.12-.95h.14ZM7,38.29v-.17l1.12-.95h.17Zm1.6-30H8.27V7.81l.31.31Zm24.11,9.9v.48l-.17.16h-.16l.16-.64ZM32.05,12h.16l.31.31v.17l-.47.17h-.17Zm-.31,3.51V16h-.48v-.31Zm-.48-2.08v-.16l.31-.31v.16Zm-.33-5.1.16-.48h.17V8l-.17.48h-.16Zm0,4.15.47-.17h.17v.34l-.31.31h-.33ZM31.09,15l-.16.17.16.14v.17l-.47-.17v-.47h.31ZM29.33,28.08h.16c0-.22-.15-.33-.47-.33v-.14l.16-.17h.15l.16.17q0-.33,1.77-1.29h.31v.17l-.17.16-.14-.16-1,.64c-.33.95-.59,1.43-.79,1.43Zm.16,3h.31l-.31.65h-.16v-.17ZM27.42,18.19v-.81h.31l.17.16C27.74,18,27.58,18.19,27.42,18.19Zm.36,2h-.17l-.31-.34h.17ZM27.11,9.41h-.17V9.25l.65-.17V8.94l-.17-.17h-.17l-.14.17H26.3l1.12-.65V8.12L27.25,8h.34l.14.48h-.48V8.6l.81.34.48-.34v.34Zm-1.45,4,.47-.16h.34v.16l-.81.31ZM25.35,11v-.17c.23,0,.5-.21.78-.64h.65v.17a1,1,0,0,0-1,.64Zm1.26,3.34v.33L26.3,15h-.17v-.64Zm-.48,4,.34-.34v.48h-.34Zm.34.78H26.3v-.47h.31Zm.64,1.6-.5.48h-.14l.14-.48Zm-1,5.41.34-.31V26l-.34.31ZM26,25.84l-.17-.16.31-.31h.17v.31l-.17.16Zm.31.81v-.16h.31l.17.64H26.3l.17-.17V26.8Zm.31-3,.33-.31v.48h-.16Zm0-.79v-.16l.17-.15.47.15v.16Zm0-5.27h-.14v-.47l.64-.17h.14Zm1.12-9.42V8l.17-.17.47.17v.14l-.16.17Zm.81,8.3.31,1.43h.33v-1h.31l.17.17v.16l-.17.15.17.64q-.21,1-.48,1L29,18h-.17l-.17.17c-.28,0-.49-.53-.62-1.6Zm1.6-4h.14l.34.31v.17l-.48.16L30,12.92Zm-.17-3V9.25l.17-.17.31-.31h.17c0,.21-.16.31-.48.31v.33Zm.65,11.33v-.48l.31-.33h.16v.17l-.33.64Zm.14,4-.48.17v-.31l.17-.17Zm-.62-11v.17H29.8l-.14-.64H30Zm-.48,2.72v-.14L30,16v.47Zm.14,8.78-.47.48V25.2l.16.17.17-.17Zm0-8.44h.34v.47l-.34-.33Zm0-8.16h-.31l-.31-.31h.31l.17.17.14-.17Zm-.62,13.57h.15l-.65.48Zm1.91,2.41h-.16v-.33l.16-.17c.32,0,.48-.1.48-.31h.17l-.17.48Q31.09,24.25,31.09,24.58ZM30.76,7v.48l-.14.17h-.17l-.17-.17ZM30,5.91l.31-.34v.65H30Zm-4-.17h.48c0,.27.21.43.64.48l.14-.17h.17l-.17.17.34.31h.14l.17-.79h.16v.79h-.33v.16l.81.17-.17-.48V6.22c.21,0,.37.31.48,1h.33V6.86h.15v.31l-.15.17.48.14L29.8,7h-.14l.14-.47h.34v.16L30,7.48l.79.64c-.64,0-1-.21-1-.64L29,8h-.17V7.65a.42.42,0,0,1-.48-.48h-.95L26.3,6.53l-.17.16L26,5.91ZM24.53,10.2a3.79,3.79,0,0,1,1.94-.95l.14.47a2.41,2.41,0,0,0-1.57.81h-.51Zm-6.1-1v0l0,0ZM11.94,7.81l.31-.33.34.33c-.23,0-.34.16-.34.48h-.31Zm-.33-5.1-.14.14H11.3L11,2.38l.48-.15Zm-.68-1.29c.12.2.25.42.37.65v.16l-.79.15q0-.48-.81-.48S9.33,1.63,9,1.42ZM10,3.17,10.18,3V2.71H10l-.08.08-.14-.55a1,1,0,0,1,.87.78l-.15.17H10ZM9.87,8.12l.31-.31h.33v.31l-.64.17Zm1.27,26.47,0-.2.17.17A1.52,1.52,0,0,0,11.14,34.59Zm12.77,2.27h-.16l-.17-.17.48-.78h.16v.14Zm.31,2.08c.08-.54.24-.82.48-.82C24.62,38.67,24.46,38.94,24.22,38.94ZM25,33c0,.27-.49,1-1.46,2.08V35l.17-.16a3.12,3.12,0,0,1,.17-.74v-.13l0,0c.14-.31.33-.46.57-.46L24.22,33v-.14l.31-.5c-.63,0-1-.11-1-.31s.43-.5,1.29-1l-.17.48v.31q.84,0,1.29-1.26l-.81.31H25c.12-.85.33-1.27.62-1.27l-.15.62v.17L26,30.3l.62.17.33-.31H26v-.48q.48,0,.48-.81l-.65-.31h-.16l-.15.17L25,28.56v0a10.92,10.92,0,0,1-.92,1.76h.1A4.27,4.27,0,0,0,23.44,32v.13l-.08-.08h-.09l-.22-.19-.25.27v.48h.47v.31l-.16.16c-.43-.19-.65-.4-.65-.64H22.3a.42.42,0,0,1-.48.48v-.15c-1.61.5-2.41.87-2.41,1.13l-.81-.17h-.48l-.16.17v-.17l-.81.17H10.73V17.07h-.22V16.9l.15-.14.07.07V12h-.22v-.47l.22.21V9.42h5.94q5,0,7.56,3.06A8.83,8.83,0,0,1,25.35,15v-.21l.47.16-.31.31-.12-.1.12.44h0v0a30.83,30.83,0,0,1,.67,3.76l-.16.16v.65l.16.64-.16.64v1.13l.16.16H26l-.08.67h0v.31H25.9l0,.46a11.5,11.5,0,0,1-.45,3.25l.73.13v.14l-.62.17-.22-.08c-.06.18-.12.36-.19.53l.41-.14.79.33v-.17l.17.17.64-.33.31.33c-.43,0-.64.11-.64.31V29l.16.79h.17l.14-.15v-.16l-.14-.17v-.14h.79l-.31.31.31.31h.47c0-.32.11-.48.31-.48l-.14.48L29,30v.17H27.9l.16.14v.17l-.16-.17-.79.17v.17l.14.16h-.47V31h.47l-.14.47v.17h.48l.31-.31v-.17h-.48v-.47h.31c0,.31.32.47.95.47l.65-.47-.31.78.16.65-.64.16v-.16l-.48-.17-.16-.14a.73.73,0,0,0-.79.62v.16h.31v.34l-.81.14v-.14l-.14-.17-1.12.65h-.17v-.17l.17-.17Zm2.69,2.72v.17h-.31v-.48l.31-.33v.33l-.14.14ZM27.42,35v-.16l.31-.34h.17Zm.17-2.41.14-.47h.17v.47Zm-2.08,9.11h-.16v-.16l.16-.48h-.16c.12-.54.28-.81.47-.81H26Zm.79-4.48-.17.17H26l.14-.48h.17ZM26,34.45,25.82,34l.17-.62h1v.31c-.63,0-1,.15-1,.47h.31Zm1.12.17-.33-.31v-.17h.81Zm.31,2.24.48-.17v.17l-.17.17h-.31Zm.79,3h-.15v-.64h.15Zm-.15-1.77-.47-.31.62-.47Zm.79-4.29L29,34v.33l-.48-.17Zm0,4,.17-.64h.64C29.61,37.39,29.34,37.61,28.85,37.81Zm2.24-4.93-.16.48h.16l-.16.62h-.17V33.5l-.14.17h-.34v-.31h-.14L30,33.5H29.8v-.31a.58.58,0,0,0,.65-.65l.17.17h.14l.17-.17h.16Zm.17-1.6h-.64l-.17-.48.17-.16-.48-.17-.65.48v-.48c.32,0,.58-.22.79-.64h-.62v-.31l.31-.31h.17l.14.14L31.4,29l.17.17-.95.78-.34.31a1,1,0,0,1,1,.65Zm.62-1h-.62l-.17-.47.17.16h.14l.17-.16h.31Zm0-2.69-.14.14h-.17l.17-.48h.14Zm-.2-9.16.06.05-.08.08-.26,1.21h-.14V19l.4-.4,0-.13-.11-.09.31-1.6h-.14c.06-.54.22-.81.47-.81Zm.53-5.22v-.31l.15-.17h.16l-.16.48ZM32.52,26h-.16v-.48h.33Zm.81-3.2-.16.17a.42.42,0,0,0-.48.48h-.33v-.34l.81-.47h.16ZM33,16.28h-.17v-.5l.17-.14.33.31Zm.64-1.45-.31.33h-.16l.16-.64h.31ZM33.17,12V11.8l.31-.31h.16Zm3.63,9.39-.15-.1c0-.13,0-.25.05-.38l.1.14Z"></path><path class="cls-1" d="M79.55,39.4h-.16v.15l-.23-.69.08,0c-.13-1-.33-1.53-.59-1.59l-.31-.91.09.09L76.67,31H76.5l0,.17C76,30,75.6,28.73,75.14,27.42l.07.06a20.15,20.15,0,0,0-1.58-4.41l0,0h-.16l-.17.17h-.17v-.17h.34l-.34-.81.37.37c-.08-.21-.15-.41-.22-.62h0c-.09-.69-.25-1.1-.47-1.23-.23-.64-.45-1.28-.67-1.92v-.4l-.1.12L72,18.31l0,0h0l-.33-.94h0c-.18-.85-.37-1.32-.56-1.43l0-.08.11-.11-1-2.58-.1-.06-.6-1.71h0L68.18,7.05a.44.44,0,0,1-.35.25l.23-.63-.1-.3-.15.13-.22-.63h0V5.7l-.81-2.07C66.28,1.26,65.59.08,64.75.08v.1A6.56,6.56,0,0,0,64,.1l-.3,0h-.39C61.21,0,56.34,0,55.23.08a1.35,1.35,0,0,0-1.29.81h0a7.07,7.07,0,0,0-.74,1.84.49.49,0,0,0-.07.25L53,3.3H53l-.07.44c-.12.33-.26.76-.44,1.26-.49,1.21-1.39,3.52-2.23,6.19h0l-.12.35-.06,0-.17.48,0,.09c0,.1-.07.2-.11.31l-.08-.09-.16.77-.29.8,0,0v0l-1.11,3.1a4.48,4.48,0,0,0-.51,1.2v.17l0,0-.15.42a1.76,1.76,0,0,0-.35,1c-.15.4-.29.79-.43,1.19a4.66,4.66,0,0,0-.49,1.37c-.06.16-.11.31-.17.46l0,0-.65,1.93h0c0,.1-.08.2-.11.3h-.06L40.51,38.33l-1,2.84s0,.06,0,.08l-.19.56a1.42,1.42,0,0,0,.81,1.29h1.76l0,0h.26l0,0h1v0h1.32a.5.5,0,0,0,.13,0h5.16c.43,0,1.07-1.34,1.91-4l-.29-.48v-.17l.44.16c.07-.21.13-.43.2-.65v-.34l.31-.31v0l-.31-.1V37l.14-.17.23.24c0-.11.08-.24.14-.4a.92.92,0,0,1-.2-.62l.16-.17v-.14h-.16l-.65.62H52v.33h-.34l-.14-.48c0-.43.32-.7,1-.81L52,34.94c0,.2-.16.31-.48.31s-.33.21-.33.64l-.48-.31h-.17v.31h-.14l-.17-.14-.48,1,.32.48h-.32L49.61,37l-.31.33c.2-1.06.52-1.59,1-1.59v-.17l-.48-.64v-.17h.48l-.33-.31h-.31l-.17.16-.14-.16a1.69,1.69,0,0,1,1.12-1V34l.14.17.17-.17H51c.25-.54.58-.81,1-.81V33l-.17-.17v-.17l.79-.14-.48-.5H52l-.17.17-.17-.17.48-.48q-.12-.78-.48-.78h-.31v.31h.31v.33l-1-.33v.33h-.17V31.1l.17-.17-.17-.14c-.52.17-.79.43-.79.78h-.16v-.31l.16-.16-.33-.65v-.14l1.12.14.17-.79V29.5l.48.16c.54-.07.81-.23.81-.47v-.34l-.17-.14c-.21,0-.31.21-.31.62-.18,0-.34-.21-.5-.62H50.9l-.17.14h-.17l-.31-.31c.53,0,.79-.1.79-.31l.81.15v-.31h.31v.31a3.45,3.45,0,0,1,1.93,1.12v.16l-.48-.33h-.33v.17l.17.16v.17c-.32,0-.48.11-.48.31v.17l.64-.34v.17l.15.17v.14l-.48.17v-.31h-.14v.14l.31,1.12-.17.17v.17l.48.14.47-.14v.31h-.47v.16l.16.17v.14l-.16.17-.62-.31v.14l-.17.17,1.43.48h.17l.17-.17h.14l-.31.64.17.17c0,.21-.22.31-.65.31v.44H66.58L67,35.89c1.27,4.8,2.14,7.21,2.6,7.21h.12l.07-.06-.16-.81V41a4.33,4.33,0,0,1,1.28,1.6l-.16.14v.4h.17c0-.35.11-.54.3-.54l.17.14v.4h6.22v-.23h.32v-.31h-.32l-.16.14v-.14l-.14-.17v-.16a1,1,0,0,1,1,.64V43a.68.68,0,0,0-.31.06H79V43l.16-.17h.17l.14.17h0a1.35,1.35,0,0,0,.88-.76V42Zm-28.46.17,0-.14.06.11Zm.12-.49-.31.34v-.17l.31-.31Zm-.79-1.59.62.64H50.9l-.65-.64Zm-.17,2.72.31.33c-.21,0-.31.16-.31.48h-.33Zm-.81-1.77h.33v.17l-.33.33Zm1.93-6.53-.16.64H50.9Zm-1.45.14.17-.14h.16l-.16.47h-.17Zm-1-4.79h.17l.17.16-.48.48Zm.17,6.89H49a1.26,1.26,0,0,0-1.12-.5V33.5l.34-.47.64.47.48-.33h.14Zm1.6-7.2-.31-.31h.14l.34.31ZM51,24.7H50.9v-.16l.31-.48h.16Zm1.45,3h-.16l-.17-.14H52v.31h-.48v-.17c.52-.49.79-.86.79-1.09h.31Zm.15-1.9-.31.31L52,25.83l.31-.31h.31Zm0-2.56h-.31l.16.17v.14l-.33-.31.33-.33h.15ZM73.26,35.84h.17l.47.81h-.47l-.17-.48ZM72.14,21.29c.22.05.43.32.64.81l-.64-.64Zm-.31-.14-.48-.65C71.51,20.5,71.67,20.72,71.83,21.15Zm-.34,2.55v.16c-.41-.17-.62-.34-.62-.5v-.14H71Zm-.62,10.37h-.16l-.17-.14.33-.48H71ZM71,39.51h-.15l-.33-.31h.17Zm-1-15.5-.31-1h.15l.64.65Zm.81.64h-.16l-.48-.17V24h.31Zm-1-.17c.33,0,.5.12.5.34h-.34l-.47-.48v-.48C69.79,23.86,69.9,24.07,69.9,24.48Zm.48,3.11h.17l.16.14-.33.34Zm-.15-8.21.64.48v.31h-.16c0-.42-.16-.62-.48-.62Zm.64,3.67H70.4l-.81-.95v-.33Zm-1.44-11.6c-.05.22-.31.43-.79.64h-.17l.17-.17v-.16l-.17-.15v-.16l.17.16.62-.16Zm-2.25,6.39h.17l-.17-.17v-.14l1.6,1.59v.15h-.31q0-.48-.81-.48v-.17l.17-.14C67.51,18.48,67.29,18.27,67.18,17.84Zm-.47-5.44v-.17l.33-.31h.31l-.17.17v.14l.17.17v.17l-.48.16v-.16L67,12.4ZM68,14.47h.65v.17a.84.84,0,0,1-.81.95h-.17l-.14-.16h-.17l-.17.16Zm-.47-2.24v-.14l.31-.33H68ZM66.87,9h-.81V8.89l.48-.16Zm-1.12-3.2.31.34h-.14l-.33-.34Zm-.81-3.5h.17V2.5L64.94,3h.17v.48h-.17L64.8,3ZM64.8,3.46l-.17.16.48.62v.34h-.17l-.14-.17q0,.48-.33.48h-.15V4.58h.31V3.77c-.2,0-.31.21-.31.64H64l.48-1.12h.16Zm0,1.76V5.7l-.17.14L64,5.7V5.53l.33-.31Zm-1.12-4,.47-.47h.17v.47l-.17.17h.32v.14l-.15.17-.64-.17Zm.17,7.52-.17-.65V7.77c.2,0,.31.22.31.65h.33l-.17-.17V8.08l.17-.16.15.16h.16l.17-.16h.14v.33h.17l.17-.17-.17-.16.17-.79h.31l.16.64v.15l-.16.16.33.65h-.17v.16l.17.15V9.2l-.17.17.17.48c.21,0,.31-.16.31-.48l1,.31V8.73h.17l.31.31h-.31V9.2h.48v.17h-.48V10h.17L68,9.68V10l.48-.33-.33-1.12h.16c.16,0,.32.21.48.64h-.14l.48.81H69l.17.48v.14L69,10.8c-.16,0-.32-.21-.48-.64l-.17.16h-.16L68,10.16a.41.41,0,0,1-.47.47v-.14l-.17-.17c-.43,0-.64-.1-.64-.31l-.48.48h.48v.31q-.48,0-.48.81l.17.62h-.17l-.17-.14v.14l.48.5c0,.21-.16.31-.48.31v.17h1v.31c-.33,0-.5.16-.5.48l-.14-.17-.34.33v.31h.34l-.17.48v.17h.31c0,.54.21.81.64.81v.14h-.47l-.17-.14-.48-.65v.31h-.14l-.17-.16h-.47v.16l.16.17.15-.17.33.34.14-.17c.23,0,.34.16.34.48h.31v.31h-.17l-.14-.14h-.34v.47l.17-.16.64.16.65-.33V17h-.17l-.17-.15H67l.14.15v.33H67V17h-.5c0,.43-.16.64-.48.64l.48,1.12V19h-.31c-.25-.64-.47-1-.64-1h-.31l-.17.62-.48-.31-.31.65h-.17v-.17l.17-.17v-.47h-.17l-.16.16h-.14l.14.48v.33a2,2,0,0,0-1.12-.64v-.17h.33v-.16l-.48-.79-.16.17h-.17c-.14-1-.36-1.46-.64-1.46v-.31h.16l.34.31v.34h.31l.31-.82v-.31h-.15l-.16.15v-.62L63,15h.17l.14-.14.34.31v.16c-.43,0-.65.16-.65.48v.17l.17.14c-.32,0-.48.11-.48.34v.47l.48-.33h.14v.33h.34v-.33l-.34-.31v-.17l.17-.14h.64v.14h-.47v.17l.31.31h.16l.17-.14v.31h.48l.14-.17v.17l-.14.16a.57.57,0,0,1,.64.65h.31v-.34L65.59,17l.16-.15h-.31l.31-.64-.47-.31h-.81v-.34l-.15.17h-.17l.32-.33h.16v.33h.17l.48-.48L64.94,15l.17-.48a.88.88,0,0,0-.64-.64L64,14v.16c.32,0,.48.11.48.31v.17h-.15l-.17-.17H64v.17l.16.17V15l-.64-.31v-.17l.17-.14L63.34,14H63.2l-.17.16c-.14-.74-.35-1.12-.64-1.12l-.64.17v-.33l.64-.15h.17l-.17-.5v-.31h.17a.76.76,0,0,0,.64.81V12.4l-.33-.48v-.16l.16.16.82-.31.14.15h.16v-.31L64,11.28h-.14l-.17.17h-.17l-.17-.65v-.17h.17V11h.17V10.8c0-.32-.11-.48-.34-.48H63c0,.32-.1.48-.31.48h-.16v-.64h-.31l-.17.16.31.48v.65h-.14l-.17-.17-.17-.79h-.16c.19-1,.51-1.45,1-1.45V8.56l-.16-.14.16-1,.48.17L63,7.77c0,.85.16,1.27.48,1.27l-.17.64v.17C63.53,9.85,63.7,9.47,63.85,8.73Zm3,5.43v.17l-.33.31v-.17Zm-5.43-2.55-.17.15h-.14l.31-.79h.16l.15.48v.47H61.6v-.31Zm.31.48h.16l.17.48H61.6Zm1-5.27-.81-.64V6l.34-.31h.31l.16.48-.16.14v.33Zm.15-1.29V4.89H63l.17.47H63ZM61.75.74h.16l.17.16c0,.32.1.48.31.48l.17-.81A.42.42,0,0,0,63,.09h.17l.14.17L62.72.9v.15l.15.16-.48.48h-.48l-.16-.17c0-.31-.11-.47-.31-.47Zm-.31,1,.47.34v.14l-.64-.48ZM61,8.89l.48-.33v.81h.16l.15-.17h.16c0,.21-.16.31-.47.31,0,.43-.11.65-.31.65H61l.17-.79Zm-.33,4.8h.16l.17.47h-.33Zm-.15-5.61c0,.54-.16.86-.47,1C60,8.51,60.16,8.19,60.48,8.08Zm-.47,0-.34.65.17.16-.31.62h-.17V8.73l.31-.65Zm-.82-.47H59l.33-.31v.14A3.41,3.41,0,0,1,58.72,9h-.17Zm-.78,2.07.14.64-.48-.64Zm1,2.08,1.12,1.59v.17c-.55-.75-.93-1.12-1.12-1.12l-.17.17h-.64l-.14-.17v.17c-.16,0-.32-.22-.48-.65l.14.17Zm.17,2.71c-.22,0-.34-.15-.34-.47h-.3v-.48h.47v.31l-.17.17ZM57.6,11.61l-.17-.47.5.14Zm-.65,11v.17h-.31l-.16-.17-.15.17v-.48l.48-.17v.17l-.17.14v.17Zm-.62-4.48V18H57l-1-1.28c.64.27,1,.64,1,1.12l.34-.31h.14l.17.14-.65.95C57,18.31,56.75,18.15,56.33,18.15Zm-.5-2.87v-.64h.34l-.17.64Zm.81-.33v-.31l.48-.17h.17v.17L57,15Zm1,3.53v-.33h.33l-.17,1.28H57.6l-.17-.95ZM56.81,7.3l.95.78-.16.48v.17l.16.16-.33.31h-.14V9l.14-.15V8.42c-.21,0-.31-.17-.31-.5h-.31Zm.31,1.43V9.2H57L56.81,9Zm-1.6-.17h.31V8.42l-.14-.17V8.08L56,7.77h.17L56,7.92l.17.16L56,8.56v.17l.17.16.16-.16.31.31V9.2l-.16.17h.16c.19,0,.51.48,1,1.43V11h-.17l-.31-.34v-.14l.17-.17h-.17L57,10.16l-.14.47h-.17v-.14l.17-.17c-.19-.42-.41-.64-.64-.64,0-.63-.11-.95-.34-.95V9.2h-.31Zm0,6.87.31.33v.17l-.31-.34Zm0,12v.17l-.16.14-.31-.31Zm-1-18.05h.31l-.14.14v.17l.14.17v.31l-.31-.31Zm-.34,6.87h.34v.48h-.34Zm-.14,3h.14v.64h-.14Zm-.64.95h-.17l-.14-.14.14-.48h.17Zm.31,3.36v-.14l.16-.17.82.79Zm1,6.25v-.17l.14-.16h.17l.16.16h.15l.16-.16.17.47v.17Zm.62,3.67-.31.31v-.16l.31-.31ZM57,33.34h-.62c0-.53-.11-.79-.33-.79h-.17c-.2,0-.31.16-.31.48h-.31v-.34c.3,0,.57-.21.79-.64v-.14c-.43,0-.64-.11-.64-.34v-.14h.47l.81-.17v.17l.17.14-.64.81v.17c.31,0,.58.21.78.62Zm-.31-6.7V26.3l.17-.16.31.33Zm2.27-1a.68.68,0,0,0-.4-.13H57.33l-1-.17h-.17l1.15-3.64,1.56-4.62V17h0l.73-2.16-.12-.22h.19l.18-.54.27.82c.1.34.2.68.29,1h.17l.33-.81.17.16.62-.33h.16v.33l-.31.31v-.31h-.16l-.65.65v.14c.32,0,.48.11.48.34v.31l-.48.16-.11-.2.12.43.33-.08v.16h.14l.17-.16.31.64h.16l.17-.14c0,.31.1.47.31.47l-.14.62v.17l.14.17h-.31A2.11,2.11,0,0,0,61,17.61c.13.46.26.89.38,1.29l.11-.11V19l-.07.06c.91,3,1.44,4.57,1.59,4.57v-.06l.69,2.15h-.6a.28.28,0,0,0-.26-.13h-.48l-.25.13Zm2.53,6.23v.14l-.17.17L61,31.91Zm.16.95L61,33v-.48l.48-.17v.17l-.17.14h.33Zm1.27-.48-.62-.64h.14l.48.48Zm1.45-2.72-1,.79.17.48v.17h-.17v-.17l-.14-.14-.17.14a.69.69,0,0,0-.78.64h-.17l-.48-.47h.31l.17.16L64,29.83l-.14-.5V29l.47.48Zm.15-.81h-.32v-.14l.32-.33Zm2.24-.31H66.4v.17h.31v.14h-.17c-.41,0-.62-.15-.62-.47h-.17l-.16.16v-.31l-.15.15q-.33,0-.33-.48H64.8v-.17h.14c.65.19,1,.41,1,.65l.14-.15.65.15Zm-1.27-2.4v-.31l.31-.31h.17l-.17.62Zm1.91,2.57L67,29l-.17-.48h.48Zm.17-5.91-.65-.48H66.4v.14l.47.48-.16.17a2,2,0,0,0,.64,1.28v.31l-.48-.31v.31l-.16-.16-.65.16c0,.23.16.34.48.34v.31H66.4l-.17-.17v.34l-4-6.25h.14l.64.64.17-.17.65.34h.47v-.17h-.47v-.48h.3c.21,0,.32.16.32.48h.16v-.79l.48.15h.17v-.15L65.11,19v-.17h.33a1,1,0,0,0,.79.95h.31v-.31l-.14-.16h.14l.5.33h.62v-.17l-.14-.16h.14l1,.33.14-.17h.34v.17l-.17.14v.17l.64.17v.14l-.16.17L69,20.08h-.31l-.17.14.65,1.46v.16H69l-.81-.64H68a5.17,5.17,0,0,0,.65,1.91l-.5-.17-.62.33.14-.47v-.17Zm1.26,3.84a.42.42,0,0,0,.48.47v.48H69l-.65-1.12v-.33h.17l.17.16v.17l-.17.17Zm1.29,5.41a8.12,8.12,0,0,0-1.43-2.39l-.5-1.12v-.16c.22,0,.33.16.33.47a2,2,0,0,1,1.12,1.6h.15v-.31h.16l.48.48-.48-.17h-.16l.16.17-.16.17.81.95-.31.31Zm3.19,11-.79-.17V42.7l.14-.14v-.33c-.84-.46-1.26-.89-1.26-1.27h-.17l-.16.15h-.15L71,41l-.48-.64h.33v.31H71l.16-.17h.31c.11.75.28,1.12.5,1.12h.48l.14-.14a2.81,2.81,0,0,0,.65,1.43ZM72,41v-.33h.15l.33.33v.15Zm.79.31L73,40.8a2.44,2.44,0,0,1,1.12,1.12C73.27,41.92,72.85,41.7,72.78,41.27Zm.48-1.12c-.21,0-.31.16-.31.48l-.81-.31v-.17l.17-.17v-.3l-.82-.31V39.2h.17l.17.17h.31V39.2c0-.22-.22-.34-.65-.34v-.31l1.12.65.65-.17h.17v.17h-.34v.31c.54,0,.81.16.81.47h-.16l.33.82C73.53,40.65,73.26,40.44,73.26,40.15Zm.95-1.91c-.16,0-.32-.21-.47-.64h.16l-.47-.48-.17.48.17.48v.16L73,37.77h-.17l-.17.14h-.14l.14-.14V37.6l-.14-.17h-.16l-.17.17c.09.52.47.79,1.12.79v.16h-.17c-1-.17-1.43-.38-1.43-.64v-.14l1.12-1.6q1.29,1.26,1.77,1.26Zm.65-3.19h-.17l-.14-.17h-.34l.17.79-.17.5h-.14L73.9,36l.17-.16-.33-.65.33-.79h.14l.65.48Zm.81-1-.17-.14h-.17l-.14.14.14.17-.31.33h-.16l-.17-.17v-.16l.17-.17h-.48v-.14a1.52,1.52,0,0,0,.48-1H75c0,.54.11.81.31.81h.17l.17-.17Zm1.12-1c-.34,0-.5.11-.5.33h-.15c-.25,0-.41-.33-.47-1v-.14l.14-.17L75.67,32v-.15h.47c.16,0,.32.21.48.62l-.33.34V33h.33v-.31h.17Zm1.43,5h-.33l-.15-.17-.47.17-.34-.31.17-.65h.17v.48h.14v-.33h.16l.17.16a.42.42,0,0,0,.48.48Z"></path><g><path class="cls-1" d="M23.78,84.15h.1l-.53-.45v.39A1.59,1.59,0,0,0,23.78,84.15Z"></path><path class="cls-1" d="M37,65.42l-.61-.62c0-.4-.07-.79-.11-1.17h.08l.17-.17a.81.81,0,0,0-.32-.47c-.06-.44-.11-.88-.17-1.29h.32V62h.17v-.16l-.34-1.77h-.43c0-.28-.11-.55-.17-.81h.29V59l-.33-.31v.48c-.07-.29-.14-.57-.22-.85l.08,0h.14c-.06-.52-.21-.78-.45-.8a12.61,12.61,0,0,0-1-2.37l-.15-.36h-.06a8.88,8.88,0,0,0-.58-.81l-.81-1.12q-3-3.56-5.32-4.53a21.05,21.05,0,0,0-8.87-2.41h-.15l-.16.17-.17-.17-.64.17-.65-.17H.88c-.32,0-.59.49-.81,1.46v.16a1.56,1.56,0,0,0,.15.75A3.41,3.41,0,0,0,0,49.48V85.53a3.26,3.26,0,0,0,.07.7v1.08q0,1.62,1.29,1.62H2a.29.29,0,0,0,.24-.16A3.59,3.59,0,0,0,3.55,89H7.11a3.46,3.46,0,0,0,1.17-.2l.33.11h10.8a20.63,20.63,0,0,0,4.51-.81l-.34-.31v0l.33-.14v.18l.17.15,1.28-.31a21.73,21.73,0,0,0,3.5-2.05l.1-.27h.14v.1Q37,79.55,37,67v-.81l-.16-.15L37,65.9ZM1.1,48.7H1v-.31h.46ZM30.72,71.4V72h-.14l-.31-.31.31-.29ZM30.27,70V71l-.14.14H30l.17-.14-.31-.77H30l.17-.14Zm-1.36,4.2v-.15l.45-.14h.15v.14l-.15.15Zm.45,4.5v.46l-.28-.29v-.17Zm-.59-7v-.15l.59-.14v.14l-.14.15Zm.59-3.75-.28-.76h.14q0-1.05.45-1.05h.15C29.74,67.34,29.59,67.94,29.36,67.94Zm.6-2.86-.14.6h-.15v-.74h.15Zm-.45-14h.16l-.16.59-.29-.31Zm-.43,14v-.14l.14-.17h-.14l.14-.91h.14v1.67l.15.15c-.19,0-.29.19-.29.59h-.31l.31-.59Zm-.77,2.24h.46v.31l-.46-.14Zm.31,1.05h.74c0,.37-.3.67-.9.91h-.15Zm-.31,10.37.31-.28v.74l-.31-.29Zm.46,2c0,.21.15.31.45.31v.14h-.31c-.4,0-.6-.2-.6-.45Zm-1.5-28.86.14-.14v-.14l-.14-.17h.14l.14-.14h.17l.14.14.14-.45h.17v.17c0,.63-.25,1-.76,1L27.27,52Zm-.88,28.37v-.15h.23c.11-.48.28-.72.5-.72l.24.26h.22a.47.47,0,0,0,.14-.39h.14v.14l-.18.28v.28h-.19l-.53.8H26.5c0-.18.05-.35.08-.49Zm-1.53-2.66h-.15l-.16-.45,1.21-.6h.15v.15Q24.86,76.86,24.86,77.55Zm.27,1.23v.16l-.5-.16v-.31Zm.31.16h.15l0,0v0h.77v.31h-.64l-.13-.12v.38l-.31-.31.2-.19Zm.92-4.11c.24,0,.39.31.45.91v.76h-.14l-.45-1.21Zm-.45-12.61v-.31a1.32,1.32,0,0,1,1.21.76h.15l.14-.14h.14v.14l-.28.31Zm1.81,16.07h-.6v-.14l.74-.14v.14ZM25.62,51.7l.43.14V52h-.43Zm-.31,2v-.15l.74.29a1.14,1.14,0,0,0,1.07-1.19h.15v.28c0,.21-.35.66-1.05,1.36h.28v.15l.17.16-.76.15-.74-.15.28-.59V53.8Zm-3-4.22v.16c.9-.16,1.35-.41,1.35-.76h.46l.14.17v-.17l.6.17v.59l-.15.15c-1.2.23-1.81.58-1.81,1l-.9-.29-.74.14-.15-.14A2.23,2.23,0,0,1,22.31,49.44Zm-2.56-1.2c.7-.23,1.05-.54,1.05-.9h.46l.14.45-.45.45.31,1L21,49.6c-.31,0-.46-.2-.46-.59h-.14c-.21,0-.51.55-.91,1.64h.17l.14.15-.31.31h-.59a3.15,3.15,0,0,1,1-2.41v-.31ZM21,52.75v.31h-.6v-.17l.45-.14Zm-3.3-3.46V49h.15c.19,0,.39.29.59.88h-.14v.31h-.31c0-.4-.09-.6-.29-.6l-.16-.16Zm-1.21.15.31-.29H17l-.14.14.31,1.05.14-.14.74.31c-.06.29-.41.53-1,.74l-.59-1.19Zm-4.06-2.1.6.31.76-.46h.15v.31l.14-.16.62.45.29-.29-.29-.45v-.62h.14a1.78,1.78,0,0,1,.91,1.67h-.62v.6h.31v-.46h.31l.29.6v.45a1.84,1.84,0,0,1-1.05.91c-.27,0-.93-.5-2-1.5l.17-.46v-.31H13v.31h-.14v-.31l.14-.14-.45.14h-.15Zm-.9,2.26,1-1.05h.16a1.84,1.84,0,0,0-.62,1.2h-.59ZM6.83,47.5H7l-.28.43-.32-.28Zm-.46,2.56h.32a.79.79,0,0,1,.59-.62h.14a.93.93,0,0,1-.59.9H6.37ZM5.61,47.5h.31v.29H5.33Zm-3.15.89H2.32V48.1h.45Zm1,8.73v-.31l.6-.15ZM4.73,75.6l-.91-.77H4l.76.46ZM5.61,54h.45c0,.22-.34.42-1,.59Zm.45,21-.59.14.14-.45h.17Zm-.45,6.46-.28-.31V81l.28.29Zm1.22,3.46-.14.14-.77-.31v-.28l.31-.6h.29l.45,1Zm.28-31.86c0,.4-.19.6-.42.6v-.15L7,52.89h.14Zm.31-2,.31-.31h.15l-.46.45ZM8.78,85.37H8.62v-.62h.16Zm1.65-.45c0,.16-.3.36-.91.6H9.38l1-.77ZM9.24,52.75c0,.3-.5.45-1.51.45l-.16-.45a3.29,3.29,0,0,0,2.55-1.64l.17.14.14-.14.45.14v.14C9.79,51.84,9.24,52.29,9.24,52.75Zm1.47,27V74l-.05,0v-.24l.05,0V71.38l-.05,0V71l.05,0V55.26h6q5,0,7.56,3.05,1.34,1.94,1.95,6.94l-.16.17v.64l.16.65-.16.64v1.12l.16.17H26l-.17,1.43a11,11,0,0,1-2.74,7.42h0l-.33.34.87.29v.17h-.14l-1-.26c-.25.22-.5.43-.76.62v0c-1.54.47-2.33.83-2.4,1.09h-.1l-.72-.15h-.48l-.16.17v-.17l-.76.16v.07l-.5.16-.14-.22H15.23l.12.31-.31.31-.48-.31.12-.31ZM23,80.41V80h.17l.14.14Zm.31.46-.14.43H23v-.43ZM23,79.65h0V80h-.31l.31-.31v0h0l.15-.15h.45l-.23-.25h.17l.31.34h-.17l-.06-.07-.14.45Zm-.27-.71v-.16l.48.47H23Zm1.17,2.8.06,0v-.09h-.29l.15-.15V81.3l-.15-.15.29-.28v.56h.17v.14L24,81.7v0h-.06l-.42.33C23.47,81.86,23.62,81.76,23.89,81.74ZM24,79.51h.17l.14.14V80h-.14Zm-.14-2.72v-.14L24,76.5h.31v.15ZM22,80.28v.17l-.34.33h-.14v-.33Zm-2.12,4V84l.76-.14v.6Zm.66,2.11v.15l-.31-.31v-.17Zm-.87-3.15v.48l-.64.16-1.12-.33v-.14l.14-.17v-.17l-.48-.16-.64.16-.31-.31h.47v-.16L17,82.45l.5-.14v.14l.14-.14a11,11,0,0,1,1.85.72v-.48l-.25-.24V82h.17l.64.17.17.17-.17.14v.33h-.25v0l.15.17-.24.23A.09.09,0,0,1,19.69,83.26Zm-.33,1.43h-.31l-.34-.31h.34Zm-2.41-4-.31-.34h.16l.23.25h0l.48.16v.31L17,80.93v-.22Zm3.53,1.43-.31-.48v-.17h.14l.64.31V82Zm0,.23v.14l-.28.29v-.43Zm-4.33-.23v.17h-.95v-.65h1.12v.14h-.81V82Zm-.81-1.77.17-.47h.33l.14.16-.14.79h-.33Zm-3.13,3.78-.17.16h-.33v-.16l.5-.17ZM12.69,86h-.16l.31-.91v-.14l-.31-.45V84.3c.3,0,.45-.14.45-.43h.17v.28a1.75,1.75,0,0,1,1.31-.65h.48l-.48,1.29h-.17c-.21,0-.31-.16-.31-.48h-.81l0,0C13.12,85.42,13,86,12.69,86Zm1.79-.6h-.14l-.14-.16v-.29h.14Zm-.74.29-.31-.29v-.16l.31.31Zm.41.59H14v-.17l.48-.48h.31l.33.31Zm2.6.17h-.31l-.14-.16v.16l-.91.29h-.14v-.29l.14-.16h-.14l.28-.29-.14-.76v-.54a1,1,0,0,0-.12.45H15.1l-.33-.33.68-.57-.06-.06v-.11h-.52V83.9h.52v-.24l0,.08H15l.48-.65h.16l-.24.47h.09l.12.5.1-.08v.17l-.07.08,0,.07-.17,1.22v.14h.17l.14-.14H16c0,.3.1.45.31.45v-.31l.45.45Zm0-1h-.17l-.14-.45h.14l.17.14Zm.05-1.32.15-.62h.64v.14l-.14.17v.16h.14l.17-.16h.17v.47l-.82-.47v.47H17Zm.09,1.32.6-.31h.16l.15.15-.15.76h-.16Zm1,2.47v-.27l-.2.19-.31-.29v-.16l.31-.29.29.29v.06h.38Zm.72-2.51h-.64v-.16h.64Zm.13.19.27.12v0l.16-.16v-.17L19,85.12l.81-.16.14.16v.25H20l-.4.4h.28v.64h-.31l.17-.16v-.17h-.17l-.33.33H19l.09-.15H19l-.29-.6Zm1.2,1v.31h-.74l.28-.31Zm-.77.8-.33-.31.48-.17.16.48Zm1.6.64h-.17l-.16-.17h-.15l-.47.17c0-.16.2-.32.62-.48l.16.17.17-.17Zm.7-4.44-.95-.31v-.33l.95.16Zm.42,3-.31.33v-.17l.31-.31Zm-.14-4.5h-.17a3.35,3.35,0,0,0-.74-1.65V80.1q.79,1.2,1.2,1.2Zm.62,5.14-.31.33v-.47h.31Zm1.17-1.09L23.35,86l-.59.29h-.14l-.17-.15V86l.17-.17h-.31l-.15.17V85.8l.29-.43v-.16l-.14-.15h.14c.08.5.43.74,1.05.74h.16c0-.19-.15-.28-.45-.28v-.15l.74-.16h.17Zm.73,1.54-.1-.13.18-.09a.4.4,0,0,1,.09.22ZM26,84.31l-.11,0v.13h-.29c-.16.39-.31.59-.45.59H25a.84.84,0,0,1-.41-.33v.06l.17.17-.17.16h-.16V85l.16-.17-.47.17H24c0-.18.11-.28.31-.32l-.11-.09v-.17h0l-.22-.19-.31.93h-.15v-.33l.15-.17-.31-.31h-.17l-.31.31-.5-.31.33-.33-.16-.14v-.17a2.23,2.23,0,0,0,.55.33l-.29-.3v-.14h.45l.14.14.6-.14v-.45L23.5,83V82.8l.16.17.74-.17.46.17v-.31l-.15-.15h.15l.14-.14h.17l.45,1.19v.14l-.17.17a.48.48,0,0,0,.05.22L26,84Zm-1.47-3H24.4l-.14.16v-.59c0-.16.2-.31.6-.46l.13,0h.25l-.1.1a1.2,1.2,0,0,1,.31.6l-.14.15v.16l.91.15h.14l.14-.15h.17l.14.15-.76.59Zm2.32,4.51h-.15v-.48l.48.17Zm.4-2.7,0,0v-.2h.19l.05-.06h.1v-.11l-.17-.14,1-.33h.14q0,.3-1.26,1l-.07.07Zm.54,2.33-.16-.17L28,85l.33.31Zm1.27-2.93-.46.74.15.17-1.22.14v-.14c0-.19.45-.54,1.36-1h.17Zm1.14,1.64-.48.16v-.16l.31-.31h.17Zm.31-3.53a4.19,4.19,0,0,1-.77.9l.37-.06L30,82.2h.31l-.31.46-.74-.15V82.2h.29v-.14h-.29v-.2l-.12,0c0-.08.08-.14.12-.21v-.09h.07a2.62,2.62,0,0,1,1.24-1.15Zm.34-1.12-.82,1v-.17l.34-.47v-.17l-.17-.14.65-.17Zm2.86-17.59h.14v.17q0,.21-.6.45Zm-1.22,8.87h.17V71c0,.3-.1.45-.31.45Zm-.14,1,.31.31v.14h-.31Zm-.6.45h.15l-.29.45h-.17Zm-.59,5.42,1-.91h.14l-.91.91Zm1.28,3.39-.16.17H32v-.17l.31-.31h.16Zm.34-.31h-.17v-.5h.31Zm.14-1.28-.14.14-.17-.14-.17.14-.16-.14-.79.31.14-.17V79.5l-.14-.17V79l1.43.33Zm.33.64h-.16l.16-.17v-.16l-.16-.17V79.5h.33l.14.14ZM33.73,74h-.31V73.5h.31Zm-.15-2.26h-.16l.16-.46-.16-.59v-.46a1.91,1.91,0,0,1,.76,1C34.18,71.39,34,71.54,33.58,71.69Zm1.34,3-.29.31-.16-.45h.45ZM34,61.62l.17.15v.31H34l-.14-.46c.43-.78.73-1.18.91-1.21h.14C34.57,61.22,34.27,61.62,34,61.62Zm1.83-.89.17.49v.31l0-.05Zm1,6.45L36.48,67l0-.63.35.52Z"></path><polygon class="cls-1" points="19.28 85.77 19.23 85.77 19.28 85.79 19.28 85.77"></polygon><polygon class="cls-1" points="19.88 85.39 19.78 85.27 19.61 85.27 19.47 85.68 19.88 85.39"></polygon><path class="cls-1" d="M24.26,84v.14l.16,0c0-.06,0-.12,0-.19Z"></path></g></g></svg> 