<?xml version="1.0" encoding="UTF-8"?> <svg xmlns="http://www.w3.org/2000/svg" id="Layer_1" data-name="Layer 1" width="117" height="25.95" viewBox="0 0 117 25.95"><defs><style> .cls-1 { fill: #231f20; } </style></defs><g><g><path class="cls-1" d="M16.22,23.06l-.82,1.72V25.9h-.34V24.78l-.83-1.72h.39l.61,1.38.61-1.38Z" transform="translate(0)"></path><path class="cls-1" d="M18.39,24.48c0-.72.25-1.47,1-1.47s1,.75,1,1.47-.26,1.47-1,1.47S18.39,25.2,18.39,24.48Zm1.57,0c0-.59-.16-1.14-.61-1.14s-.6.59-.6,1.14.16,1.15.6,1.15S20,25,20,24.48Z" transform="translate(0)"></path><path class="cls-1" d="M22.57,24.83V23.06h.35v1.77c0,.63.26.8.56.8s.56-.17.56-.8V23.06h.36v1.77c0,.81-.38,1.12-.92,1.12S22.57,25.64,22.57,24.83Z" transform="translate(0)"></path><path class="cls-1" d="M27.89,24.65l.61,1.25h-.38l-.6-1.22H27.1V25.9h-.35V23.06h.87c.69,0,.89.4.89.81A.75.75,0,0,1,27.89,24.65Zm-.79-.29h.53c.41,0,.54-.24.54-.48a.48.48,0,0,0-.54-.5H27.1Z" transform="translate(0)"></path><path class="cls-1" d="M35,23.06h1.78v.33H35.35v.88h1v.33h-1v1.3H35Z" transform="translate(0)"></path><path class="cls-1" d="M39,24.48c0-.72.26-1.47,1-1.47s1,.75,1,1.47S40.7,26,40,26,39,25.2,39,24.48Zm1.57,0c0-.59-.16-1.14-.6-1.14s-.61.59-.61,1.14.17,1.15.61,1.15S40.59,25,40.59,24.48Z" transform="translate(0)"></path><path class="cls-1" d="M44.4,24.65,45,25.9h-.39L44,24.68h-.42V25.9h-.35V23.06h.87c.68,0,.89.4.89.81A.75.75,0,0,1,44.4,24.65Zm-.79-.29h.53c.41,0,.54-.24.54-.48a.48.48,0,0,0-.54-.5h-.53Z" transform="translate(0)"></path><path class="cls-1" d="M48.07,23.4h-.82v-.34h2v.34h-.81v2.5h-.35Z" transform="translate(0)"></path><path class="cls-1" d="M51.46,24.83V23.06h.35v1.77c0,.63.26.8.56.8s.57-.17.57-.8V23.06h.35v1.77c0,.81-.37,1.12-.92,1.12S51.46,25.64,51.46,24.83Z" transform="translate(0)"></path><path class="cls-1" d="M55.64,23.06H56l1,2s.06.1.08.15a.92.92,0,0,1,0-.15v-2h.34V25.9H57l-1-2a1.09,1.09,0,0,1-.08-.15.86.86,0,0,1,0,.15v2h-.34Z" transform="translate(0)"></path><path class="cls-1" d="M59.77,23.06h1.66v.33H60.11v.88H61v.33h-.9v1h1.41v.33H59.77Z" transform="translate(0)"></path><path class="cls-1" d="M69.06,23.38v2.2h.65v.32H68.06v-.32h.65v-2.2h-.65v-.32h1.65v.32Z" transform="translate(0)"></path><path class="cls-1" d="M72.12,25.32l.33-.12a.64.64,0,0,0,.59.43.44.44,0,0,0,.49-.48c0-.3-.27-.48-.57-.61s-.75-.36-.75-.84A.71.71,0,0,1,73,23a.76.76,0,0,1,.76.5l-.33.11a.47.47,0,0,0-.45-.29.36.36,0,0,0-.41.37c0,.27.27.39.56.52s.76.4.76.92A.79.79,0,0,1,73,26,1,1,0,0,1,72.12,25.32Z" transform="translate(0)"></path><path class="cls-1" d="M80.17,23.06h.33l.27,1.88s0,.11,0,.18,0-.13,0-.18l.32-1.88h.25l.32,1.85a1,1,0,0,1,0,.17c0-.06,0-.12,0-.16L82,23.06h.33l-.44,2.84h-.29L81.29,24l0-.19a1,1,0,0,1,0,.18L80.9,25.9h-.28Z" transform="translate(0)"></path><path class="cls-1" d="M85.56,23.38v2.2h.65v.32H84.57v-.32h.65v-2.2h-.65v-.32h1.64v.32Z" transform="translate(0)"></path><path class="cls-1" d="M89.34,23.4h-.81v-.34h2v.34h-.82v2.5h-.35Z" transform="translate(0)"></path><path class="cls-1" d="M92.78,23.06h.35v1.2h1v-1.2h.35V25.9h-.35V24.59h-1V25.9h-.35Z" transform="translate(0)"></path><path class="cls-1" d="M98,23.38v2.2h.65v.32H97v-.32h.65v-2.2H97v-.32H98.6v.32Z" transform="translate(0)"></path><path class="cls-1" d="M101,23.06h.34l1,2s.06.1.08.15a.92.92,0,0,1,0-.15v-2h.34V25.9h-.34l-1-2a1.09,1.09,0,0,1-.08-.15.86.86,0,0,1,0,.15v2H101Z" transform="translate(0)"></path></g><g><g><polygon points="115.64 1.35 1.35 1.35 1.35 16.73 29.99 16.73 29.99 16.34 1.74 16.34 1.74 1.75 115.25 1.75 115.25 16.34 87 16.34 87 16.73 115.64 16.73 115.64 1.35"></polygon><polygon points="117 0 0 0 0 18.08 29.99 18.08 29.99 17.86 0.23 17.86 0.23 0.23 116.77 0.23 116.77 17.86 87 17.86 87 18.08 117 18.08 117 0"></polygon></g><g><path d="M12.59,8.68l2.85-1.26c0,.41,0,1.11,0,1.52s0,1.11,0,1.52L12.59,9h-.17v1c0,1.44,1.1,2.14,3.44,2.14v.34c-1.36,0-3.73,0-5.08,0s-3.72,0-5.08,0v-.34c1.65,0,2.22-1.05,2.22-3.38,0-2-.56-2.87-2.22-2.87V5.57c1.57,0,4.31,0,5.87,0s4.3,0,5.87,0l-.18,2.57S15.93,7.43,15,7L12.77,5.92h-.35V8.68Z" transform="translate(0)"></path><path d="M26,12.69c-3.83,0-6.29-.79-6.29-3.52,0-3,2.18-3.77,6.12-3.77,3.57,0,6.31.73,6.31,3.77C32.14,11.9,29.58,12.69,26,12.69Zm-.08-6.95c-.83,0-1.18,1-1.18,3.42,0,2.18.37,3.16,1.18,3.16s1.19-1,1.19-3.16C27.11,6.73,26.81,5.74,25.92,5.74Z" transform="translate(0)"></path><path d="M46.09,12.69c-3,0-3.56-.75-3.82-2-.16-.75-.31-1.5-1.43-1.5h-.43v1.4c0,1.12.54,1.58,1.88,1.58v.37c-1.09,0-3,0-4.1,0s-3,0-4.11,0v-.37c1.71,0,2.25-1.92,2.25-3.37s-.59-2.88-2.25-2.88V5.57h8.23c3.52,0,5.16.4,5.16,1.81S46.19,9,45.35,9v.18a2.18,2.18,0,0,1,2,1.45c.39.84.86,1.58,1.66,1.58v.34A16.16,16.16,0,0,1,46.09,12.69ZM40.41,5.92V8.79c1.68,0,2.18-.61,2.18-1.45C42.59,6.23,41.89,5.92,40.41,5.92Z" transform="translate(0)"></path><path d="M61.36,7.42c-.64-.56-1.58-1.5-1.58-1.5h-.26v4c0,1.55,1.29,2.23,3.17,2.23v.37c-1.45,0-4,0-5.47,0s-4,0-5.48,0v-.37c2,0,3.18-.59,3.18-2.14V5.92h-.26S53.64,7,53,7.6s-2,1.75-2,1.75V5.54c1.69,0,4.64,0,6.32,0s4.63,0,6.32,0V9.27S62.19,8.16,61.36,7.42Z" transform="translate(0)"></path><path d="M78,9v.61c0,2.09-.84,3.08-4.49,3.08-4,0-6.29-.51-6.29-3.08V7.7a1.55,1.55,0,0,0-1.7-1.78V5.54c1.14,0,3.12,0,4.26,0s3.11,0,4.25,0c.88,0,2.43,0,3.31,0s2.43,0,3.32,0v.38C78.86,5.92,78,7,78,9Zm-.5,0c0-2-1-3.08-3.47-3.08-1,0-1.61.54-1.61,1.78V9.61c0,2,.61,2.56,2.38,2.56,1.58,0,2.7-.6,2.7-2.56Z" transform="translate(0)"></path><path d="M94.39,9v3.5c-.59,0-1.63,0-2.22,0s-1.63,0-2.22,0L85.22,7.85V8.92c0,2.13.82,3.25,2.89,3.25v.34c-.77,0-2.11,0-2.88,0s-2.1,0-2.88,0v-.34c1.56,0,2.26-1,2.26-3.23s-.66-3-2.26-3V5.57c1,0,2.66,0,3.62,0s2.65,0,3.61,0l4.13,3.71V9c0-2.36-1.24-3.07-2.72-3.07V5.57c.8,0,2.2,0,3,0s2.2,0,3,0v.35C95.4,5.92,94.39,6.63,94.39,9Z" transform="translate(0)"></path><path d="M105.62,8.68l2.85-1.26c0,.41,0,1.11,0,1.52s0,1.11,0,1.52L105.62,9h-.17v3.15h.35s1.4-.73,2.28-1.24,2.21-1.33,2.21-1.33l.18,2.94c-1.57,0-4.31,0-5.87,0s-4.3,0-5.87,0v-.37c1.6,0,2.22-.92,2.22-3.38,0-2.2-.69-2.87-2.22-2.87V5.54c1.57,0,4.31,0,5.87,0s4.3,0,5.87,0l-.18,2.6S109,7.44,108.06,7L105.8,5.92h-.35V8.68Z" transform="translate(0)"></path></g><g><path d="M36,19.21c-1.87,0-2.65-.18-2.65-1,0-.56.53-.77,1.24-.83a1.81,1.81,0,0,1-.15-.76c0-1.09.77-1.44,2.34-1.44,1.15,0,1.52.26,1.52.78,0,.31-.26.63-1,.59l-.1-.11a.76.76,0,0,0,.18-.51c0-.34-.18-.54-.65-.54s-.72.19-.72.57c0,.7.55.9,2.22.81a2,2,0,0,0,.18.91,1.08,1.08,0,0,1,1.16-1.24c.73,0,1.1.35,1.1.89a.84.84,0,0,1-.94.82.77.77,0,0,1-.84-.75c0-.43.33-.64.81-.64a.93.93,0,0,1,.29.05l0-.1a1.61,1.61,0,0,0-.44-.06.82.82,0,0,0-.9.94c0,.45.32.79,1,.79a1.81,1.81,0,0,0,.85-.19l.11.1c-.35.69-.88.88-2.32.88A3.5,3.5,0,0,1,37.13,19,2.52,2.52,0,0,1,36,19.21Zm-1.34-.94c0,.37.36.72,1.34.72a2.16,2.16,0,0,0,.83-.09.77.77,0,0,1-.37-.63A2.34,2.34,0,0,1,35,17.86C34.79,18,34.68,18.07,34.68,18.27Z" transform="translate(0)"></path><path d="M46.93,17l1.59-.7c0,.23,0,.62,0,.85s0,.62,0,.85l-1.6-.8h-.09v.56c0,.81.62,1.2,1.93,1.2v.2l-2.85,0-2.85,0v-.2c.93,0,1.24-.59,1.24-1.89,0-1.13-.31-1.61-1.24-1.61v-.2l3.29,0,3.29,0-.09,1.44s-.75-.4-1.25-.64-1.28-.6-1.28-.6h-.19V17Z" transform="translate(0)"></path><path d="M57.11,19.21c-1.67,0-2-.42-2.14-1.12-.09-.42-.17-.84-.8-.84h-.24V18c0,.62.3.88,1.06.88v.21l-2.31,0-2.3,0v-.21c1,0,1.26-1.07,1.26-1.89s-.33-1.61-1.26-1.61v-.2H55c2,0,2.89.22,2.89,1s-.72.89-1.19.89v.1a1.23,1.23,0,0,1,1.14.82c.22.47.48.88.93.88v.2A10.16,10.16,0,0,1,57.11,19.21Zm-3.18-3.79V17c.94,0,1.22-.34,1.22-.82S54.76,15.42,53.93,15.42Z" transform="translate(0)"></path><path d="M64.67,19.11l-2.57,0-1.39,0-1.39,0v-.21c.7,0,1.28-.54,1.69-1.45l1-2.25h2.59l1,2.25c.35.78.83,1.45,1.62,1.45v.21Zm-3.33-1.45c0,.51.16,1.26.76,1.26s.7-.72.7-1.26Zm.74-1.89-.72,1.67h1.42Z" transform="translate(0)"></path><path d="M74,19.11l-2.42,0h-.36l-1.73,0-1.73,0v-.21c.83,0,1.27-.48,1.27-1.81s-.42-1.69-1.27-1.69v-.21l2.15,0,2.14,0,.74,1.22.76-1.22,1.43,0,1.43,0v.21c-.77,0-1.29.39-1.29,1.69s.5,1.81,1.29,1.81v.21Zm-4.55-2.77v.21c0,1.32.85,2.37,1.62,2.37Zm3.86,0-1.63,2.58c.77,0,1.63-1.06,1.63-2.37Z" transform="translate(0)"></path><path d="M80.83,17l1.59-.7c0,.23,0,.62,0,.85s0,.62,0,.85l-1.59-.8h-.1v1.76h.19s.79-.41,1.28-.69,1.25-.75,1.25-.75l.09,1.65-3.29,0-3.29,0v-.21c.9,0,1.24-.51,1.24-1.89s-.38-1.61-1.24-1.61v-.21l3.29,0,3.29,0-.09,1.45L82.19,16l-1.27-.6h-.19V17Z" transform="translate(0)"></path></g></g></g></svg> 