<?xml version="1.0" encoding="UTF-8"?> <svg xmlns="http://www.w3.org/2000/svg" id="Layer_2" data-name="Layer 2" viewBox="0 0 347.51 190"><defs><style> .cls-1 { fill: #212f43; } </style></defs><title>logo-levy-ratner-navy</title><g><path class="cls-1" d="M70,90.76c-10.44-.25-20.77-.25-31.21-.25-10.93,0-21.75,0-32.56.25V87.57c6.15.36,11.18-1.23,11.18-8.24V17c0-8.6-4.67-8.72-11.18-8.84V5c5.78.12,11.43.25,17,.25S34.5,5.12,40.64,5V8.2c-6.51.12-11.18.24-11.18,8.84V73.93c0,9.09,2,12.9,19.42,12.9,14.25,0,19.16-3.44,23-15.36l2.7.49Z" transform="translate(-6.24 -5)"></path><path class="cls-1" d="M92.8,56.85c-.25,1.11-.25,2.95,0,7.13.73,11.67,8.23,21.25,18.06,21.25,6.75,0,12-3.68,16.58-8.23l1.72,1.72c-5.65,7.49-12.65,13.88-22.73,13.88C86.9,92.6,83,73.68,83,65.82c0-24.08,16.21-31.21,24.81-31.21,10,0,20.64,6.27,20.77,19.29a12.56,12.56,0,0,1-.13,2.21l-1.1.74Zm21.74-3.93c3.07,0,3.44-1.6,3.44-3.07,0-6.27-3.81-11.31-10.69-11.31-7.49,0-12.65,5.53-14.13,14.38Z" transform="translate(-6.24 -5)"></path><path class="cls-1" d="M143.71,49.11c-3.56-9.34-4.79-9.46-9.46-9.46v-3.2c4.06.13,8.24.25,12.29.25,4.3,0,8.48-.25,12.78-.25v3.2c-5.53,0-7,.37-7,3.32,0,2,1.85,5.77,3.94,11.42l8.6,23.35L175,52.43A30.55,30.55,0,0,0,177.5,43c.12-2.58-1.35-2.83-6.51-3.32v-3.2c2.95.13,5.9.25,8.85.25,3.68,0,7.37-.25,11.18-.25v3.2c-5.78,0-7.62,3.32-9.83,8.84L163.5,92.6h-3.08Z" transform="translate(-6.24 -5)"></path><path class="cls-1" d="M197.6,36.45c4.79.13,9.46.25,14.25.25,3.68,0,7.37-.25,11.06-.25v3.2c-2.34.24-6.76.12-6.76,3.32,0,3.44,11.06,28,12.41,33.05h.24C231.38,68.89,241,48.25,241,44.81c0-5.16-3.93-5.16-6.88-5.16v-3.2c3.81.13,7.74.25,11.55.25,3.07,0,6.14-.12,9.21-.25v3.2c-5.77-.12-7.49,3.19-9.71,7.86l-27.76,65.12c-1.85,4.3-4.3,6.14-7.87,6.14a5.78,5.78,0,0,1-6-5.9c0-3,2.58-6.14,5.9-6.14a6.19,6.19,0,0,1,5,1.84c6-12.77,8.6-19.78,8.6-19.78S206.81,47,205.34,44.19c-1.72-3.07-3.81-4.91-7.74-4.54Z" transform="translate(-6.24 -5)"></path><path class="cls-1" d="M29.46,152.61v28.51c0,8.6,4.67,8.72,11.18,8.84v3.2c-5.89,0-11.18-.25-16.58-.25-5.9,0-11.67.12-17.82.25V190c6.15.37,11.18-1.23,11.18-8.23V119.44c0-8.6-4.67-8.73-11.18-8.85V107.4c6.76.12,12.66.24,18.68.24,4.3,0,8.6-.24,16.46-.24,23.22,0,28.38,13,28.38,21.74,0,10.45-7.86,18.19-17.44,21,11.18,16.35,17.07,26.17,22.36,32.07,3.93,4.42,7.62,7.74,13.88,7.74v3.2c-3.07,0-6.14-.25-9.21-.25-3.44,0-7,.12-10.45.25-11.18-12.29-19.41-26.66-28.26-40.55Zm7.38-41.28a40.2,40.2,0,0,0-7.38.74v36a37.59,37.59,0,0,0,6.52.61c15.11,0,21-10,21-18.8C57,119.19,51.33,111.33,36.84,111.33Z" transform="translate(-6.24 -5)"></path><path class="cls-1" d="M147.32,188.36c-3.44,3.2-7.24,6.64-12.16,6.64s-7.37-4.67-7.62-9.09c-5.77,5.28-11.3,9.09-18.92,9.09-7.86,0-13.27-5.41-13.27-11.92.49-9.83,5.53-11.67,32.07-20.76v-8.11c0-6.88-4-10.57-11.92-10.57-5.4,0-9.09,3.07-9.34,8.6,0,3.44-3.93,5.16-6.88,5.16A2.21,2.21,0,0,1,97.07,155c0-6.52,5.53-9.59,14.13-14,4.3-2.21,6.39-3.93,11.06-3.93,5.53,0,15,3.56,15,10.32v34c0,5,1.72,7,4.42,7a6.09,6.09,0,0,0,4.55-2.08Zm-19.9-22.48c-6.27,2.46-22.24,5.28-22.24,14.5a8.87,8.87,0,0,0,8.73,8.85c5.77,0,9.46-3.57,13.51-7.13Z" transform="translate(-6.24 -5)"></path><path class="cls-1" d="M168.55,178c0,8.11,4.42,10.32,7.74,10.32s5.77-1.1,8.6-3.56l1.84,1.84c-4.3,4.43-9.7,8.36-16.34,8.36-7.86,0-11.67-4.18-11.67-11.43V145.49h-8.11v-2c6.39-4.92,10.2-7.25,16.46-17.2h1.48v12.53h18.31v6.64H168.55Z" transform="translate(-6.24 -5)"></path><path class="cls-1" d="M201.56,153.35c0-4.55-1.36-5.78-7.13-8.11v-2.33a169.07,169.07,0,0,0,16.22-5.9c.37,0,.73.24.73,1.23v8c7-5,13-9.21,21.26-9.21,10.44,0,14.13,7.62,14.13,17.2v31.7c0,4.05,2.7,4.05,6.14,4.05h2.21v3.2c-4.3,0-8.6-.25-13-.25s-8.85.12-13.27.25V190H231c3.44,0,5.9,0,5.9-4.05V154.09c0-7-4.3-10.45-11.3-10.45-3.93,0-10.2,3.2-14.26,5.9v36.37c0,4.05,2.71,4.05,6.15,4.05h2.21v3.2c-4.3,0-8.6-.25-13-.25s-8.85.12-13.27.25V190h2.21c3.44,0,5.9,0,5.9-4.05Z" transform="translate(-6.24 -5)"></path><path class="cls-1" d="M270.34,159.25c-.24,1.1-.24,2.94,0,7.12.74,11.67,8.23,21.26,18.06,21.26,6.76,0,12-3.69,16.59-8.23l1.72,1.72C301.06,188.61,294.06,195,284,195c-19.54,0-23.47-18.92-23.47-26.78,0-24.09,16.22-31.21,24.82-31.21,9.95,0,20.64,6.26,20.77,19.29a12.67,12.67,0,0,1-.13,2.21l-1.1.74Zm21.75-3.94c3.07,0,3.44-1.59,3.44-3.07,0-6.26-3.81-11.3-10.69-11.3-7.49,0-12.65,5.53-14.13,14.37Z" transform="translate(-6.24 -5)"></path><path class="cls-1" d="M311.86,190h3.32c3.44,0,5.9,0,5.9-4.05V151.38c0-3.81-4.55-4.54-6.39-5.53V144c9-3.81,13.88-7,15-7,.73,0,1.1.37,1.1,1.59v11.06H331c3.07-4.79,8.23-12.65,15.72-12.65,3.08,0,7,2.09,7,6.51,0,3.32-2.34,6.27-5.78,6.27-3.81,0-3.81-2.95-8.11-2.95-2.08,0-9,2.82-9,10.19v28.88c0,4.05,2.45,4.05,5.89,4.05h6.88v3.2c-6.75-.13-11.91-.25-17.2-.25-5,0-10.2.12-14.62.25Z" transform="translate(-6.24 -5)"></path></g></svg> 