<?xml version="1.0" encoding="UTF-8"?> <svg xmlns="http://www.w3.org/2000/svg" id="Layer_1" data-name="Layer 1" width="504.72" height="174.59" viewBox="0 0 504.72 174.59"><defs><style> .cls-1 { fill: #939598; } </style></defs><g><path class="cls-1" d="M200.63,19.15c0,4,0,7.32.21,9.08.13,1.21.38,2.13,1.63,2.3.59.08,1.51.17,1.88.17s.34.13.34.25-.21.34-.67.34c-2.3,0-4.94-.13-5.14-.13s-2.85.13-4.1.13c-.46,0-.67-.08-.67-.34s.08-.25.33-.25a6.06,6.06,0,0,0,1.26-.17c.84-.17,1.05-1.09,1.21-2.3.21-1.76.21-5.06.21-9.08V1.45l-6.19.08c-2.59,0-3.6.33-4.27,1.34a7.34,7.34,0,0,0-.71,1.3c-.13.34-.25.42-.42.42s-.21-.12-.21-.38c0-.42.84-4,.92-4.35s.25-.79.42-.79a7.6,7.6,0,0,0,1.84.5c1.21.13,2.8.21,3.3.21h15.69a16.28,16.28,0,0,0,3-.21c.63-.08,1-.21,1.17-.21s.21.25.21.5c0,1.25-.13,4.14-.13,4.6s-.12.55-.29.55-.29-.13-.33-.71l0-.46c-.12-1.26-1.13-2.22-5.15-2.3l-5.27-.08V19.15Z" transform="translate(0 0.93)"></path><path class="cls-1" d="M266.81,19.15c0,4,0,7.32.21,9.08.12,1.21.37,2.13,1.63,2.3.58.08,1.51.17,1.88.17s.33.13.33.25-.21.34-.67.34c-2.3,0-4.93-.13-5.14-.13s-2.85.13-4.1.13c-.46,0-.67-.08-.67-.34s.08-.25.34-.25a5.88,5.88,0,0,0,1.25-.17c.84-.17,1.05-1.09,1.21-2.3.21-1.76.21-5.06.21-9.08V14.76a.24.24,0,0,0-.25-.25H245.3c-.13,0-.25,0-.25.25v4.39c0,4,0,7.32.21,9.08.13,1.21.38,2.13,1.63,2.3.59.08,1.51.17,1.88.17s.33.13.33.25-.21.34-.67.34c-2.3,0-4.94-.13-5.15-.13s-2.84.13-4.1.13c-.46,0-.67-.08-.67-.34s.08-.25.33-.25a6.06,6.06,0,0,0,1.26-.17c.84-.17,1-1.09,1.21-2.3.21-1.76.21-5.06.21-9.08V11.79c0-6.53,0-7.7-.08-9S241,.66,239.64.37a8.16,8.16,0,0,0-1.42-.12c-.17,0-.34-.09-.34-.25s.21-.33.67-.33c1.88,0,4.52.12,4.73.12s2.84-.12,4.1-.12c.46,0,.67.08.67.33s-.17.25-.34.25a6.66,6.66,0,0,0-1.05.12c-1.13.21-1.46.92-1.55,2.38s-.09,2.51-.09,9v.88a.22.22,0,0,0,.25.25H263a.22.22,0,0,0,.25-.25v-.88c0-6.53,0-7.7-.08-9s-.42-2.09-1.8-2.38A8.16,8.16,0,0,0,260,.25c-.17,0-.34-.09-.34-.25s.21-.33.67-.33c1.88,0,4.52.12,4.73.12s2.84-.12,4.1-.12c.46,0,.67.08.67.33s-.17.25-.33.25a6.66,6.66,0,0,0-1,.12c-1.13.21-1.46.92-1.55,2.38s-.08,2.51-.08,9v7.36Z" transform="translate(0 0.93)"></path><path class="cls-1" d="M302.64,11.78c0-6.53,0-7.7-.08-9s-.42-2.09-1.8-2.38a8.08,8.08,0,0,0-1.42-.12c-.17,0-.34-.09-.34-.25s.21-.33.67-.33c1,0,2.09,0,3,0l1.72.08c.29,0,8.61,0,9.58,0a11.37,11.37,0,0,0,1.8-.21c.21,0,.38-.21.59-.21s.16.17.16.38-.21.79-.33,2c0,.42-.12,2.26-.21,2.76,0,.21-.12.46-.29.46s-.33-.21-.33-.54a4.49,4.49,0,0,0-.25-1.51c-.29-.67-.71-1.17-3-1.42-.71-.08-5.27-.12-5.73-.12-.16,0-.25.12-.25.42V13.25c0,.29,0,.42.25.42.54,0,5.69,0,6.65-.08s1.59-.17,2-.59.46-.54.62-.54.22.08.22.33-.22,1-.34,2.34c-.08.84-.17,2.38-.17,2.68s0,.79-.29.79-.29-.17-.29-.37a4.19,4.19,0,0,0-.17-1.38c-.17-.59-.54-1.3-2.18-1.46-1.13-.12-5.27-.21-6-.21a.26.26,0,0,0-.29.29v3.68c0,1.42,0,6.27,0,7.15.12,2.89.76,3.43,4.86,3.43a11.94,11.94,0,0,0,4-.46c1.09-.46,1.59-1.3,1.88-3,.08-.46.17-.63.38-.63s.25.34.25.63a40.79,40.79,0,0,1-.54,4.06c-.29,1.09-.62,1.09-2.26,1.09-3.14,0-5.44-.08-7.07-.12s-2.64-.13-3.26-.13c-.09,0-.8,0-1.68,0s-1.8.08-2.43.08c-.46,0-.67-.08-.67-.34s.09-.25.34-.25a6,6,0,0,0,1.25-.17c.84-.17,1-1.09,1.22-2.3.21-1.76.21-5.06.21-9.08V11.78Z" transform="translate(0 0.93)"></path><path d="M49.11,103.47c0,1.85-.07,2-.89,2.47C43.76,108.27,37,109,31.69,109,14.88,109,0,101.07,0,82.14c0-11,5.69-18.66,11.93-22.43,6.58-4,12.69-4.46,18.45-4.46a81.66,81.66,0,0,1,12.14,1.1,44,44,0,0,0,5.42.75c.82.07,1,.34,1,.82a92.36,92.36,0,0,0-.48,11.25c0,1.1-.21,1.44-.75,1.44s-.62-.34-.69-.89A9.65,9.65,0,0,0,44.65,64c-2.06-2.19-7.55-5.35-15.3-5.35-3.77,0-8.78.27-13.58,4.25-3.84,3.22-6.31,8.37-6.31,16.8,0,14.75,9.4,25.79,23.87,25.79,1.78,0,4.18,0,5.83-.76a2.43,2.43,0,0,0,1.3-2.54V95.77c0-3.43,0-6-.07-8.09-.07-2.33-.69-3.43-3-3.91a13.9,13.9,0,0,0-2.68-.21c-.62,0-1-.14-1-.55s.48-.69,1.44-.69c3.57,0,7.89.21,9.94.21s5.76-.21,8-.21c.89,0,1.37.14,1.37.69s-.41.55-.89.55a10.52,10.52,0,0,0-1.85.21c-1.85.34-2.54,1.51-2.61,3.91-.07,2.06-.07,4.8-.07,8.23v7.56Z" transform="translate(0 0.93)"></path><path d="M78.54,76.11c0-10.43,0-12.35-.14-14.54s-.69-3.43-3-3.91a13.78,13.78,0,0,0-2.67-.21c-.75,0-1.16-.14-1.16-.62s.48-.62,1.51-.62c3.64,0,8,.21,9.4.21,2.33,0,7.54-.21,9.67-.21,4.32,0,8.92.41,12.62,2.95a11.88,11.88,0,0,1,4.66,9.4c0,5.07-2.13,9.74-9,15.36,6.11,7.68,10.84,13.79,14.88,18,3.84,4,6.65,4.46,7.68,4.67a11.38,11.38,0,0,0,1.92.2c.55,0,.82.2.82.55,0,.55-.48.68-1.3.68h-6.51c-3.84,0-5.56-.34-7.34-1.31-3-1.57-5.56-4.8-9.4-10.08-2.74-3.78-5.9-8.44-6.79-9.47a1.42,1.42,0,0,0-1.23-.48l-6-.14a.48.48,0,0,0-.55.55v1c0,6.38,0,11.8.34,14.68.21,2,.62,3.5,2.68,3.77a30.81,30.81,0,0,0,3.36.27c.55,0,.82.2.82.55s-.48.68-1.37.68c-4,0-9-.2-10.08-.2-1.3,0-5.62.2-8.37.2-.89,0-1.37-.2-1.37-.68s.27-.55,1.1-.55a11.71,11.71,0,0,0,2.47-.27c1.37-.27,1.71-1.78,2-3.77.34-2.88.34-8.3.34-14.61v-12Zm8.09,5.41c0,.75.14,1,.62,1.24a18.09,18.09,0,0,0,5.21.69c2.74,0,3.64-.27,4.87-1.17,2.06-1.51,4-4.66,4-10.29,0-9.74-6.45-12.55-10.49-12.55a15.52,15.52,0,0,0-3.64.27c-.48.14-.62.41-.62,1V81.52Z" transform="translate(0 0.93)"></path><path d="M133.14,82.14c0-11.73,7.75-26.89,28.33-26.89,17.08,0,27.71,10,27.71,25.65S178.21,109,160.79,109c-19.69,0-27.65-14.74-27.65-26.88Zm46.44,1.3c0-15.36-8.85-24.9-20.1-24.9-7.89,0-16.87,4.39-16.87,21.47,0,14.27,7.89,25.58,21.06,25.58,4.79,0,15.91-2.32,15.91-22.15Z" transform="translate(0 0.93)"></path><path d="M210.72,107.25c-1.1-.48-1.3-.82-1.3-2.33,0-3.77.27-7.89.34-9s.27-1.78.82-1.78.69.62.69,1.16a14.22,14.22,0,0,0,.62,3.5c1.51,5.07,5.56,6.92,9.81,6.92,6.17,0,9.19-4.18,9.19-7.82,0-3.36-1-6.51-6.72-11L221,84.48c-7.54-5.9-10.15-10.7-10.15-16.26,0-7.55,6.31-13,15.84-13a33.11,33.11,0,0,1,9.12,1.17c.62.14,1,.34,1,.82,0,.89-.27,2.88-.27,8.23,0,1.51-.2,2.06-.76,2.06s-.69-.41-.69-1.23a8.31,8.31,0,0,0-1.78-4.53c-1-1.3-3-3.36-7.48-3.36-5.08,0-8.16,2.95-8.16,7.07,0,3.15,1.58,5.56,7.27,9.88l1.92,1.44c8.3,6.24,11.25,11,11.25,17.49a13.81,13.81,0,0,1-6.45,11.93,19.79,19.79,0,0,1-10.91,2.82,24.08,24.08,0,0,1-10-1.8Z" transform="translate(0 0.93)"></path><path d="M260.93,107.25c-1.1-.48-1.31-.82-1.31-2.33,0-3.77.27-7.89.35-9s.27-1.78.82-1.78.69.62.69,1.16a14.22,14.22,0,0,0,.62,3.5c1.51,5.07,5.55,6.92,9.8,6.92,6.17,0,9.2-4.18,9.2-7.82,0-3.36-1-6.51-6.72-11l-3.16-2.47c-7.54-5.9-10.15-10.7-10.15-16.26,0-7.55,6.31-13,15.85-13A33.11,33.11,0,0,1,286,56.43c.62.14,1,.34,1,.82,0,.89-.28,2.88-.28,8.23,0,1.51-.2,2.06-.75,2.06s-.68-.41-.68-1.23a8.35,8.35,0,0,0-1.79-4.53c-1-1.3-3-3.36-7.47-3.36-5.08,0-8.16,2.95-8.16,7.07,0,3.15,1.58,5.56,7.27,9.88l1.92,1.44c8.3,6.24,11.25,11,11.25,17.49a13.81,13.81,0,0,1-6.45,11.93,19.78,19.78,0,0,1-10.9,2.82,24.14,24.14,0,0,1-10-1.8Z" transform="translate(0 0.93)"></path><path d="M317.45,56.49c.2-1.17.62-1.78,1.17-1.78s1,.34,1.85,2.13l18.72,38.68,18.66-39.17c.55-1.1.89-1.65,1.51-1.65s1,.69,1.24,2.13l6.24,42.39c.62,4.32,1.31,6.31,3.36,6.93a13.67,13.67,0,0,0,4.25.69c.62,0,1.1.07,1.1.48s-.82.76-1.78.76c-1.72,0-11.18-.2-13.92-.41-1.58-.14-2-.34-2-.75s.27-.55.75-.75.62-1,.35-3L354.85,73h-.28l-14.95,31.14c-1.58,3.23-1.92,3.84-2.54,3.84s-1.3-1.37-2.4-3.43c-1.65-3.15-7.07-13.65-7.89-15.57-.62-1.44-4.73-10.08-7.13-15.23h-.27l-3.57,27.3a28.94,28.94,0,0,0-.21,3.23c0,1.3.89,1.92,2.06,2.2a13.56,13.56,0,0,0,2.88.34c.55,0,1,.14,1,.48,0,.62-.62.76-1.65.76-2.88,0-6-.2-7.2-.2s-4.6.2-6.79.2c-.68,0-1.23-.14-1.23-.76,0-.34.41-.48,1.1-.48a9.12,9.12,0,0,0,2.06-.2c1.92-.42,2.47-3.09,2.81-5.42l6.77-44.75Z" transform="translate(0 0.93)"></path><path d="M399.49,90.17c-.34,0-.48.13-.61.55l-3.71,9.81a13.17,13.17,0,0,0-1,4.18c0,1.23.61,2.13,2.74,2.13h1c.82,0,1,.14,1,.55s-.41.68-1.17.68c-2.19,0-5.14-.2-7.27-.2-.75,0-4.53.2-8.1.2-.89,0-1.3-.14-1.3-.68s.28-.55.82-.55a20.41,20.41,0,0,0,2.13-.14c3.15-.41,4.45-2.74,5.83-6.17l17.22-43.07c.82-2,1.24-2.74,1.92-2.74s1,.62,1.72,2.19c1.65,3.77,12.62,31.76,17,42.18,2.61,6.18,4.59,7.13,6,7.48a15.52,15.52,0,0,0,2.88.27c.55,0,.89.07.89.55s-.62.68-3.16.68-7.48,0-13-.14c-1.24-.07-2.06-.07-2.06-.55s.27-.55,1-.62a1.1,1.1,0,0,0,.62-1.57l-5.48-14.54a.65.65,0,0,0-.68-.48Zm14-3.43c.34,0,.41-.2.34-.41l-6.17-16.94c-.07-.27-.14-.62-.35-.62s-.34.34-.41.62l-6.31,16.87c-.07.28,0,.48.28.48Z" transform="translate(0 0.93)"></path><path d="M458.89,98.74c.13,5.35,1,7.13,2.4,7.61a11,11,0,0,0,3.57.48c.76,0,1.16.14,1.16.55s-.62.68-1.58.68c-4.46,0-7.2-.2-8.5-.2-.62,0-3.84.2-7.41.2-.89,0-1.51-.07-1.51-.68,0-.41.41-.55,1.1-.55a12.4,12.4,0,0,0,3.09-.34c1.79-.55,2.06-2.54,2.12-8.5l.62-40.6c0-1.37.21-2.33.9-2.33s1.37.89,2.54,2.13c.82.89,11.25,12.07,21.26,22,4.66,4.67,13.92,14.54,15.09,15.64h.35l-.69-30.8c-.07-4.18-.68-5.49-2.33-6.17a11.17,11.17,0,0,0-3.63-.41c-.82,0-1.1-.2-1.1-.62s.76-.62,1.78-.62c3.57,0,6.86.21,8.3.21.75,0,3.36-.21,6.72-.21.89,0,1.58.07,1.58.62s-.41.62-1.23.62a7.35,7.35,0,0,0-2.06.21c-1.92.55-2.47,2-2.54,5.83l-.76,43.28c0,1.51-.28,2.13-.89,2.13s-1.58-.76-2.33-1.51c-4.32-4.12-13.1-13.1-20.23-20.17-7.48-7.41-15.09-16-16.32-17.29h-.21l.74,28.79Z" transform="translate(0 0.93)"></path><path class="cls-1" d="M154.22,162.41c0-3.39-.21-3.84-1.88-4.3a8.24,8.24,0,0,0-1.42-.13c-.17,0-.34-.08-.34-.25s.21-.33.67-.33c1.88,0,4.52.12,4.73.12s2.84-.12,4.1-.12c.46,0,.67.08.67.33s-.17.25-.33.25a5.66,5.66,0,0,0-1,.13c-1.13.21-1.46.92-1.55,2.38s-.08,2.6-.08,4.35v4.68c0,1.88,0,2-.54,2.26a20.7,20.7,0,0,1-8.87,1.88c-3.18,0-9.12-.42-13.76-4.48a16.33,16.33,0,0,1-5-11.92c0-6.7,3.26-11.42,7-13.76s7.91-2.64,11.13-2.64a35.47,35.47,0,0,1,6.4.71,20.53,20.53,0,0,0,3.39.42c.42,0,.5.21.5.38a53.62,53.62,0,0,0-.29,5.94c0,.67-.08.88-.38.88s-.25-.25-.29-.62a6.38,6.38,0,0,0-.88-2.76c-1-1.59-4.43-3.39-9.83-3.39a13.37,13.37,0,0,0-9,2.76c-2.43,1.93-4.14,5.73-4.14,10.62a17.08,17.08,0,0,0,4.43,11.59,15.23,15.23,0,0,0,11,4.48,11.38,11.38,0,0,0,4.77-.88,1.52,1.52,0,0,0,.84-1.46v-7.12Z" transform="translate(0 0.93)"></path><path class="cls-1" d="M191.34,153.58c0-6.53,0-7.7-.09-9s-.42-2.09-1.8-2.39A8.25,8.25,0,0,0,188,142c-.17,0-.33-.08-.33-.25s.21-.33.67-.33c1.88,0,4.52.12,4.73.12.46,0,3.64-.12,4.94-.12,2.63,0,5.44.25,7.65,1.84a7.3,7.3,0,0,1,2.89,5.69c0,3.1-1.3,6.19-5.06,9.66,3.43,4.39,6.28,8.12,8.7,10.71,2.26,2.38,4.06,2.85,5.1,3a9.65,9.65,0,0,0,1.63.13c.21,0,.38.12.38.25s-.25.34-1,.34h-3c-2.34,0-3.39-.21-4.47-.8-1.8-1-3.26-3-5.65-6.15-1.76-2.3-3.72-5.1-4.56-6.19a.66.66,0,0,0-.54-.25l-5.15-.09c-.21,0-.29.13-.29.34v1c0,4,0,7.32.21,9.07.12,1.22.38,2.14,1.63,2.3.58.08,1.51.17,1.88.17s.33.12.33.25-.21.34-.67.34c-2.3,0-4.94-.13-5.15-.13,0,0-2.68.13-3.93.13-.46,0-.67-.08-.67-.34s.09-.25.34-.25a6.06,6.06,0,0,0,1.26-.17c.84-.17,1-1.09,1.21-2.3.21-1.75.21-5.06.21-9.07v-7.38Zm3.35,3.64a.54.54,0,0,0,.29.5,11.45,11.45,0,0,0,4.39.67,5.37,5.37,0,0,0,3.14-.8c1.46-1,2.55-3.26,2.55-6.44,0-5.23-2.76-8.37-7.24-8.37a13,13,0,0,0-2.8.25.49.49,0,0,0-.33.5v13.69Z" transform="translate(0 0.93)"></path><path class="cls-1" d="M255.52,140.87c9.42,0,16.44,5.94,16.44,15.68,0,9.37-6.61,17.11-16.69,17.11-11.46,0-16.23-8.91-16.23-16.44,0-6.78,4.94-16.35,16.48-16.35Zm.88,31.2c3.77,0,11.55-2.18,11.55-14.35,0-10-6.11-15.44-12.72-15.44-7,0-12.22,4.6-12.22,13.76,0,9.76,5.86,16,13.39,16Z" transform="translate(0 0.93)"></path><path class="cls-1" d="M300.59,153.58c0-6.53,0-7.7-.09-9s-.42-2.09-1.8-2.39a8.08,8.08,0,0,0-1.42-.12c-.17,0-.34-.08-.34-.25s.21-.33.67-.33c1.88,0,4.44.12,4.81.12s2.88-.12,4.14-.12c.46,0,.67.08.67.33s-.17.25-.33.25a6.66,6.66,0,0,0-1,.12c-1.13.17-1.46.92-1.55,2.39s-.08,2.51-.08,9v5.86c0,6,1.34,8.62,3.14,10.33a8.2,8.2,0,0,0,6.32,2.3,8.78,8.78,0,0,0,6.57-3c1.92-2.38,2.43-5.94,2.43-10.25v-5.23c0-6.53,0-7.7-.08-9s-.42-2.09-1.8-2.39a8.08,8.08,0,0,0-1.42-.12c-.17,0-.34-.08-.34-.25s.21-.33.67-.33c1.89,0,4.18.12,4.44.12s2.26-.12,3.51-.12c.47,0,.67.08.67.33s-.17.25-.34.25a6.44,6.44,0,0,0-1,.12c-1.13.25-1.47.92-1.55,2.39s-.08,2.51-.08,9v4.47c0,4.52-.5,9.54-3.85,12.51a12.27,12.27,0,0,1-8.61,3.09c-1.42,0-5.65-.17-8.62-3-2.05-2-3.64-4.89-3.64-11v-6.1Z" transform="translate(0 0.93)"></path><path class="cls-1" d="M358.66,153.58c0-6.53,0-7.7-.08-9s-.42-2.09-1.8-2.39a8.28,8.28,0,0,0-1.43-.12c-.16,0-.33-.08-.33-.25s.21-.33.67-.33c1.88,0,4.39.12,4.73.12.92,0,3.35-.12,5.27-.12,5.23,0,7.11,1.76,7.78,2.38a7.27,7.27,0,0,1,2.09,5c0,5.94-4.35,10-10.29,10a6.48,6.48,0,0,1-.88,0c-.21,0-.46-.08-.46-.29s.25-.38,1.13-.38a7,7,0,0,0,7.24-6.82,8.85,8.85,0,0,0-2.34-6.44,7.26,7.26,0,0,0-5.73-2.09,5.15,5.15,0,0,0-1.8.25c-.25.08-.34.38-.34.8V161c0,4,0,7.32.22,9.07.12,1.22.37,2.14,1.63,2.3.58.08,1.51.17,1.89.17s.33.12.33.25-.21.34-.67.34c-2.3,0-4.93-.13-5.15-.13s-2.76.13-4,.13c-.47,0-.67-.08-.67-.34s.08-.25.34-.25a6.06,6.06,0,0,0,1.26-.17c.83-.17,1-1.09,1.21-2.3.21-1.75.21-5.06.21-9.07v-7.38Z" transform="translate(0 0.93)"></path></g></svg> 