<?xml version="1.0" encoding="UTF-8"?> <!-- Generator: Adobe Illustrator 21.1.0, SVG Export Plug-In . SVG Version: 6.00 Build 0) --> <svg xmlns="http://www.w3.org/2000/svg" xmlns:xlink="http://www.w3.org/1999/xlink" version="1.1" id="Layer_1" x="0px" y="0px" viewBox="0 0 600 400" style="enable-background:new 0 0 600 400;" xml:space="preserve"> <style type="text/css"> .st0{fill:#939598;} </style> <g> <path class="st0" d="M248.49,132.8c0,4.02,0,7.32,0.21,9.08c0.13,1.21,0.38,2.13,1.63,2.3c0.59,0.08,1.51,0.17,1.88,0.17 c0.25,0,0.34,0.13,0.34,0.25c0,0.21-0.21,0.34-0.67,0.34c-2.3,0-4.94-0.13-5.14-0.13c-0.21,0-2.85,0.13-4.1,0.13 c-0.46,0-0.67-0.08-0.67-0.34c0-0.12,0.08-0.25,0.33-0.25c0.38,0,0.88-0.08,1.26-0.17c0.84-0.17,1.05-1.09,1.21-2.3 c0.21-1.76,0.21-5.06,0.21-9.08V115.1l-6.19,0.08c-2.59,0.04-3.6,0.33-4.27,1.34c-0.46,0.71-0.58,1-0.71,1.3 c-0.13,0.34-0.25,0.42-0.42,0.42c-0.13,0-0.21-0.12-0.21-0.38c0-0.42,0.84-4.02,0.92-4.35c0.08-0.25,0.25-0.79,0.42-0.79 c0.29,0,0.71,0.42,1.84,0.5c1.21,0.13,2.8,0.21,3.3,0.21h15.69c1.34,0,2.3-0.08,2.97-0.21c0.63-0.08,1-0.21,1.17-0.21 c0.21,0,0.21,0.25,0.21,0.5c0,1.25-0.13,4.14-0.13,4.6c0,0.38-0.12,0.55-0.29,0.55c-0.21,0-0.29-0.13-0.33-0.71l-0.04-0.46 c-0.12-1.26-1.13-2.22-5.15-2.3l-5.27-0.08V132.8L248.49,132.8z"></path> <path class="st0" d="M314.67,132.8c0,4.02,0,7.32,0.21,9.08c0.12,1.21,0.37,2.13,1.63,2.3c0.58,0.08,1.51,0.17,1.88,0.17 c0.25,0,0.33,0.13,0.33,0.25c0,0.21-0.21,0.34-0.67,0.34c-2.3,0-4.93-0.13-5.14-0.13c-0.21,0-2.85,0.13-4.1,0.13 c-0.46,0-0.67-0.08-0.67-0.34c0-0.12,0.08-0.25,0.34-0.25c0.38,0,0.88-0.08,1.25-0.17c0.84-0.17,1.05-1.09,1.21-2.3 c0.21-1.76,0.21-5.06,0.21-9.08v-4.39c0-0.17-0.12-0.25-0.25-0.25h-17.74c-0.13,0-0.25,0.04-0.25,0.25v4.39 c0,4.02,0,7.32,0.21,9.08c0.13,1.21,0.38,2.13,1.63,2.3c0.59,0.08,1.51,0.17,1.88,0.17c0.25,0,0.33,0.13,0.33,0.25 c0,0.21-0.21,0.34-0.67,0.34c-2.3,0-4.94-0.13-5.15-0.13c-0.21,0-2.84,0.13-4.1,0.13c-0.46,0-0.67-0.08-0.67-0.34 c0-0.12,0.08-0.25,0.33-0.25c0.38,0,0.88-0.08,1.26-0.17c0.84-0.17,1.04-1.09,1.21-2.3c0.21-1.76,0.21-5.06,0.21-9.08v-7.36 c0-6.53,0-7.7-0.08-9.04c-0.08-1.42-0.42-2.09-1.8-2.38c-0.33-0.08-1.05-0.12-1.42-0.12c-0.17,0-0.34-0.09-0.34-0.25 c0-0.25,0.21-0.33,0.67-0.33c1.88,0,4.52,0.12,4.73,0.12c0.21,0,2.84-0.12,4.1-0.12c0.46,0,0.67,0.08,0.67,0.33 c0,0.17-0.17,0.25-0.34,0.25c-0.29,0-0.54,0.04-1.05,0.12c-1.13,0.21-1.46,0.92-1.55,2.38c-0.09,1.34-0.09,2.51-0.09,9.04v0.88 c0,0.21,0.13,0.25,0.25,0.25h17.74c0.12,0,0.25-0.04,0.25-0.25v-0.88c0-6.53,0-7.7-0.08-9.04c-0.08-1.42-0.42-2.09-1.8-2.38 c-0.33-0.08-1.05-0.12-1.42-0.12c-0.17,0-0.34-0.09-0.34-0.25c0-0.25,0.21-0.33,0.67-0.33c1.88,0,4.52,0.12,4.73,0.12 c0.21,0,2.84-0.12,4.1-0.12c0.46,0,0.67,0.08,0.67,0.33c0,0.17-0.17,0.25-0.33,0.25c-0.29,0-0.54,0.04-1.05,0.12 c-1.13,0.21-1.46,0.92-1.55,2.38c-0.08,1.34-0.08,2.51-0.08,9.04V132.8L314.67,132.8z"></path> <path class="st0" d="M350.5,125.43c0-6.53,0-7.7-0.08-9.04c-0.09-1.42-0.42-2.09-1.8-2.38c-0.33-0.08-1.04-0.12-1.42-0.12 c-0.17,0-0.34-0.09-0.34-0.25c0-0.25,0.21-0.33,0.67-0.33c0.96,0,2.09,0,3.01,0.04l1.72,0.08c0.29,0,8.61,0,9.58-0.04 c0.8-0.04,1.46-0.13,1.8-0.21c0.21-0.04,0.38-0.21,0.59-0.21c0.12,0,0.16,0.17,0.16,0.38c0,0.29-0.21,0.79-0.33,1.96 c-0.04,0.42-0.12,2.26-0.21,2.76c-0.04,0.21-0.12,0.46-0.29,0.46c-0.25,0-0.33-0.21-0.33-0.54c0-0.29-0.04-1.01-0.25-1.51 c-0.29-0.67-0.71-1.17-2.97-1.42c-0.71-0.08-5.27-0.12-5.73-0.12c-0.16,0-0.25,0.12-0.25,0.42v11.54c0,0.29,0.04,0.42,0.25,0.42 c0.54,0,5.69,0,6.65-0.08c1.01-0.08,1.59-0.17,1.97-0.59c0.29-0.34,0.46-0.54,0.62-0.54c0.13,0,0.22,0.08,0.22,0.33 c0,0.25-0.22,0.96-0.34,2.34c-0.08,0.84-0.17,2.38-0.17,2.68c0,0.33,0,0.79-0.29,0.79c-0.21,0-0.29-0.17-0.29-0.37 c0-0.42,0-0.84-0.17-1.38c-0.17-0.59-0.54-1.3-2.18-1.46c-1.13-0.12-5.27-0.21-5.98-0.21c-0.21,0-0.29,0.12-0.29,0.29v3.68 c0,1.42-0.04,6.27,0,7.15c0.12,2.89,0.76,3.43,4.86,3.43c1.09,0,2.93,0,4.01-0.46c1.09-0.46,1.59-1.3,1.88-3.01 c0.08-0.46,0.17-0.63,0.38-0.63c0.25,0,0.25,0.34,0.25,0.63c0,0.33-0.33,3.18-0.54,4.06c-0.29,1.09-0.62,1.09-2.26,1.09 c-3.14,0-5.44-0.08-7.07-0.12c-1.63-0.08-2.64-0.13-3.26-0.13c-0.09,0-0.8,0-1.68,0.04c-0.84,0-1.8,0.08-2.43,0.08 c-0.46,0-0.67-0.08-0.67-0.34c0-0.12,0.09-0.25,0.34-0.25c0.37,0,0.88-0.08,1.25-0.17c0.84-0.17,1.05-1.09,1.22-2.3 c0.21-1.76,0.21-5.06,0.21-9.08V125.43L350.5,125.43z"></path> <path d="M96.97,217.12c0,1.85-0.07,1.99-0.89,2.47c-4.46,2.33-11.18,3.09-16.53,3.09c-16.81,0-31.69-7.96-31.69-26.89 c0-10.97,5.69-18.66,11.93-22.43c6.58-3.98,12.69-4.46,18.45-4.46c4.73,0,10.77,0.82,12.14,1.1c1.44,0.27,3.84,0.69,5.42,0.75 c0.82,0.07,0.96,0.34,0.96,0.82c0,0.75-0.48,2.67-0.48,11.25c0,1.1-0.21,1.44-0.75,1.44c-0.48,0-0.62-0.34-0.69-0.89 c-0.21-1.58-0.55-3.77-2.33-5.69c-2.06-2.19-7.55-5.35-15.3-5.35c-3.77,0-8.78,0.27-13.58,4.25c-3.84,3.22-6.31,8.37-6.31,16.8 c0,14.75,9.4,25.79,23.87,25.79c1.78,0,4.18,0,5.83-0.76c1.03-0.48,1.3-1.37,1.3-2.54v-6.45c0-3.43,0-6.03-0.07-8.09 c-0.07-2.33-0.69-3.43-2.95-3.91c-0.55-0.14-1.72-0.21-2.68-0.21c-0.62,0-1.03-0.14-1.03-0.55c0-0.55,0.48-0.69,1.44-0.69 c3.57,0,7.89,0.21,9.94,0.21c2.13,0,5.76-0.21,8.02-0.21c0.89,0,1.37,0.14,1.37,0.69c0,0.41-0.41,0.55-0.89,0.55 c-0.55,0-1.03,0.07-1.85,0.21c-1.85,0.34-2.54,1.51-2.61,3.91c-0.07,2.06-0.07,4.8-0.07,8.23V217.12L96.97,217.12z"></path> <path d="M126.4,189.76c0-10.43,0-12.35-0.14-14.54c-0.14-2.33-0.69-3.43-2.95-3.91c-0.55-0.14-1.71-0.21-2.67-0.21 c-0.75,0-1.16-0.14-1.16-0.62c0-0.48,0.48-0.62,1.51-0.62c3.64,0,7.96,0.21,9.4,0.21c2.33,0,7.54-0.21,9.67-0.21 c4.32,0,8.92,0.41,12.62,2.95c1.92,1.3,4.66,4.8,4.66,9.4c0,5.07-2.13,9.74-9.05,15.36c6.11,7.68,10.84,13.79,14.88,18.04 c3.84,3.98,6.65,4.46,7.68,4.67c0.75,0.13,1.37,0.2,1.92,0.2c0.55,0,0.82,0.2,0.82,0.55c0,0.55-0.48,0.68-1.3,0.68h-6.51 c-3.84,0-5.56-0.34-7.34-1.31c-2.95-1.57-5.56-4.8-9.4-10.08c-2.74-3.78-5.9-8.44-6.79-9.47c-0.34-0.41-0.75-0.48-1.23-0.48 l-5.97-0.14c-0.34,0-0.55,0.14-0.55,0.55v0.96c0,6.38,0,11.8,0.34,14.68c0.21,1.99,0.62,3.5,2.68,3.77 c1.03,0.14,2.54,0.27,3.36,0.27c0.55,0,0.82,0.2,0.82,0.55c0,0.48-0.48,0.68-1.37,0.68c-3.98,0-9.05-0.2-10.08-0.2 c-1.3,0-5.62,0.2-8.37,0.2c-0.89,0-1.37-0.2-1.37-0.68c0-0.35,0.27-0.55,1.1-0.55c1.03,0,1.85-0.14,2.47-0.27 c1.37-0.27,1.71-1.78,1.99-3.77c0.34-2.88,0.34-8.3,0.34-14.61V189.76L126.4,189.76z M134.49,195.17c0,0.75,0.14,1.03,0.62,1.24 c1.44,0.48,3.5,0.69,5.21,0.69c2.74,0,3.64-0.27,4.87-1.17c2.06-1.51,4.05-4.66,4.05-10.29c0-9.74-6.45-12.55-10.49-12.55 c-1.71,0-2.95,0.07-3.64,0.27c-0.48,0.14-0.62,0.41-0.62,0.96V195.17L134.49,195.17z"></path> <path d="M181,195.79c0-11.73,7.75-26.89,28.33-26.89c17.08,0,27.71,9.95,27.71,25.65c0,15.71-10.97,28.12-28.39,28.12 C188.96,222.68,181,207.93,181,195.79L181,195.79z M227.44,197.09c0-15.36-8.85-24.9-20.1-24.9c-7.89,0-16.87,4.39-16.87,21.47 c0,14.27,7.89,25.58,21.06,25.58C216.32,219.25,227.44,216.92,227.44,197.09L227.44,197.09z"></path> <path d="M258.58,220.9c-1.1-0.48-1.3-0.82-1.3-2.33c0-3.77,0.27-7.89,0.34-8.98c0.07-1.03,0.27-1.78,0.82-1.78 c0.62,0,0.69,0.62,0.69,1.16c0,0.89,0.27,2.33,0.62,3.5c1.51,5.07,5.56,6.92,9.81,6.92c6.17,0,9.19-4.18,9.19-7.82 c0-3.36-1.03-6.51-6.72-10.97l-3.16-2.47c-7.54-5.9-10.15-10.7-10.15-16.26c0-7.55,6.31-12.96,15.84-12.96 c4.46,0,7.34,0.69,9.12,1.17c0.62,0.14,0.96,0.34,0.96,0.82c0,0.89-0.27,2.88-0.27,8.23c0,1.51-0.2,2.06-0.76,2.06 c-0.48,0-0.69-0.41-0.69-1.23c0-0.62-0.34-2.74-1.78-4.53c-1.03-1.3-3.02-3.36-7.48-3.36c-5.08,0-8.16,2.95-8.16,7.07 c0,3.15,1.58,5.56,7.27,9.88l1.92,1.44c8.3,6.24,11.25,10.97,11.25,17.49c0,3.98-1.51,8.71-6.45,11.93 c-3.43,2.2-7.27,2.82-10.91,2.82C264.61,222.68,261.53,222.2,258.58,220.9L258.58,220.9z"></path> <path d="M308.79,220.9c-1.1-0.48-1.31-0.82-1.31-2.33c0-3.77,0.27-7.89,0.35-8.98c0.07-1.03,0.27-1.78,0.82-1.78 c0.62,0,0.69,0.62,0.69,1.16c0,0.89,0.27,2.33,0.62,3.5c1.51,5.07,5.55,6.92,9.8,6.92c6.17,0,9.2-4.18,9.2-7.82 c0-3.36-1.03-6.51-6.72-10.97l-3.16-2.47c-7.54-5.9-10.15-10.7-10.15-16.26c0-7.55,6.31-12.96,15.85-12.96 c4.46,0,7.34,0.69,9.12,1.17c0.62,0.14,0.96,0.34,0.96,0.82c0,0.89-0.28,2.88-0.28,8.23c0,1.51-0.2,2.06-0.75,2.06 c-0.48,0-0.68-0.41-0.68-1.23c0-0.62-0.35-2.74-1.79-4.53c-1.03-1.3-3.02-3.36-7.47-3.36c-5.08,0-8.16,2.95-8.16,7.07 c0,3.15,1.58,5.56,7.27,9.88l1.92,1.44c8.3,6.24,11.25,10.97,11.25,17.49c0,3.98-1.51,8.71-6.45,11.93 c-3.43,2.2-7.27,2.82-10.9,2.82C314.82,222.68,311.74,222.2,308.79,220.9L308.79,220.9z"></path> <path d="M365.31,170.14c0.2-1.17,0.62-1.78,1.17-1.78c0.55,0,0.96,0.34,1.85,2.13l18.72,38.68L405.71,170 c0.55-1.1,0.89-1.65,1.51-1.65s1.03,0.69,1.24,2.13l6.24,42.39c0.62,4.32,1.31,6.31,3.36,6.93c1.99,0.62,3.36,0.69,4.25,0.69 c0.62,0,1.1,0.07,1.1,0.48c0,0.55-0.82,0.76-1.78,0.76c-1.72,0-11.18-0.2-13.92-0.41c-1.58-0.14-1.99-0.34-1.99-0.75 c0-0.34,0.27-0.55,0.75-0.75c0.41-0.14,0.62-1.03,0.35-2.95l-4.11-30.18h-0.28l-14.95,31.14c-1.58,3.23-1.92,3.84-2.54,3.84 c-0.62,0-1.3-1.37-2.4-3.43c-1.65-3.15-7.07-13.65-7.89-15.57c-0.62-1.44-4.73-10.08-7.13-15.23h-0.27l-3.57,27.3 c-0.13,1.24-0.21,2.13-0.21,3.23c0,1.3,0.89,1.92,2.06,2.2c1.24,0.27,2.2,0.34,2.88,0.34c0.55,0,1.03,0.14,1.03,0.48 c0,0.62-0.62,0.76-1.65,0.76c-2.88,0-5.97-0.2-7.2-0.2c-1.31,0-4.6,0.2-6.79,0.2c-0.68,0-1.23-0.14-1.23-0.76 c0-0.34,0.41-0.48,1.1-0.48c0.55,0,1.02,0,2.06-0.2c1.92-0.42,2.47-3.09,2.81-5.42L365.31,170.14L365.31,170.14z"></path> <path d="M447.35,203.82c-0.34,0-0.48,0.13-0.61,0.55l-3.71,9.81c-0.69,1.71-1.03,3.36-1.03,4.18c0,1.23,0.61,2.13,2.74,2.13h1.02 c0.82,0,1.03,0.14,1.03,0.55c0,0.55-0.41,0.68-1.17,0.68c-2.19,0-5.14-0.2-7.27-0.2c-0.75,0-4.53,0.2-8.1,0.2 c-0.89,0-1.3-0.14-1.3-0.68c0-0.41,0.28-0.55,0.82-0.55c0.62,0,1.58-0.07,2.13-0.14c3.15-0.41,4.45-2.74,5.83-6.17l17.22-43.07 c0.82-1.99,1.24-2.74,1.92-2.74c0.62,0,1.03,0.62,1.72,2.19c1.65,3.77,12.62,31.76,17.01,42.18c2.61,6.18,4.59,7.13,6.04,7.48 c1.03,0.2,2.06,0.27,2.88,0.27c0.55,0,0.89,0.07,0.89,0.55c0,0.55-0.62,0.68-3.16,0.68c-2.47,0-7.48,0-12.96-0.14 c-1.24-0.07-2.06-0.07-2.06-0.55c0-0.41,0.27-0.55,0.96-0.62c0.48-0.13,0.97-0.75,0.62-1.57l-5.48-14.54 c-0.14-0.35-0.34-0.48-0.68-0.48H447.35L447.35,203.82z M461.34,200.39c0.34,0,0.41-0.2,0.34-0.41l-6.17-16.94 c-0.07-0.27-0.14-0.62-0.35-0.62c-0.2,0-0.34,0.34-0.41,0.62l-6.31,16.87c-0.07,0.28,0,0.48,0.28,0.48H461.34L461.34,200.39z"></path> <path d="M506.75,212.39c0.13,5.35,1.03,7.13,2.4,7.61c1.17,0.41,2.47,0.48,3.57,0.48c0.76,0,1.16,0.14,1.16,0.55 c0,0.55-0.62,0.68-1.58,0.68c-4.46,0-7.2-0.2-8.5-0.2c-0.62,0-3.84,0.2-7.41,0.2c-0.89,0-1.51-0.07-1.51-0.68 c0-0.41,0.41-0.55,1.1-0.55c0.89,0,2.13-0.07,3.09-0.34c1.79-0.55,2.06-2.54,2.12-8.5l0.62-40.6c0-1.37,0.21-2.33,0.9-2.33 c0.76,0,1.37,0.89,2.54,2.13c0.82,0.89,11.25,12.07,21.26,22.02c4.66,4.67,13.92,14.54,15.09,15.64h0.35l-0.69-30.8 c-0.07-4.18-0.68-5.49-2.33-6.17c-1.02-0.41-2.67-0.41-3.63-0.41c-0.82,0-1.1-0.2-1.1-0.62c0-0.55,0.76-0.62,1.78-0.62 c3.57,0,6.86,0.21,8.3,0.21c0.75,0,3.36-0.21,6.72-0.21c0.89,0,1.58,0.07,1.58,0.62c0,0.41-0.41,0.62-1.23,0.62 c-0.69,0-1.23,0-2.06,0.21c-1.92,0.55-2.47,1.99-2.54,5.83l-0.76,43.28c0,1.51-0.28,2.13-0.89,2.13c-0.75,0-1.58-0.76-2.33-1.51 c-4.32-4.12-13.1-13.1-20.23-20.17c-7.48-7.41-15.09-15.98-16.32-17.29h-0.21L506.75,212.39L506.75,212.39z"></path> <path class="st0" d="M202.08,276.06c0-3.39-0.21-3.84-1.88-4.3c-0.34-0.08-1.05-0.13-1.42-0.13c-0.17,0-0.34-0.08-0.34-0.25 c0-0.25,0.21-0.33,0.67-0.33c1.88,0,4.52,0.12,4.73,0.12c0.21,0,2.84-0.12,4.1-0.12c0.46,0,0.67,0.08,0.67,0.33 c0,0.17-0.17,0.25-0.33,0.25c-0.29,0-0.54,0.04-1.04,0.13c-1.13,0.21-1.46,0.92-1.55,2.38c-0.08,1.34-0.08,2.6-0.08,4.35v4.68 c0,1.88-0.04,1.97-0.54,2.26c-2.68,1.42-6.44,1.88-8.87,1.88c-3.18,0-9.12-0.42-13.76-4.48c-2.55-2.22-4.98-6.69-4.98-11.92 c0-6.7,3.26-11.42,6.99-13.76c3.76-2.34,7.91-2.64,11.13-2.64c2.64,0,5.61,0.54,6.4,0.71c0.88,0.21,2.34,0.38,3.39,0.42 c0.42,0.04,0.5,0.21,0.5,0.38c0,0.59-0.29,1.76-0.29,5.94c0,0.67-0.08,0.88-0.38,0.88c-0.21,0-0.25-0.25-0.29-0.62 c-0.04-0.58-0.25-1.76-0.88-2.76c-1.05-1.59-4.43-3.39-9.83-3.39c-2.63,0-5.77,0.25-8.95,2.76c-2.43,1.93-4.14,5.73-4.14,10.62 c0,5.9,2.97,10.17,4.43,11.59c3.3,3.22,7.11,4.48,10.96,4.48c1.51,0,3.68-0.25,4.77-0.88c0.54-0.29,0.84-0.75,0.84-1.46V276.06 L202.08,276.06z"></path> <path class="st0" d="M239.2,267.23c0-6.53,0-7.7-0.09-9.03c-0.08-1.42-0.42-2.09-1.8-2.39c-0.34-0.08-1.05-0.12-1.42-0.12 c-0.17,0-0.33-0.08-0.33-0.25c0-0.25,0.21-0.33,0.67-0.33c1.88,0,4.52,0.12,4.73,0.12c0.46,0,3.64-0.12,4.94-0.12 c2.63,0,5.44,0.25,7.65,1.84c1.05,0.75,2.89,2.8,2.89,5.69c0,3.1-1.3,6.19-5.06,9.66c3.43,4.39,6.28,8.12,8.7,10.71 c2.26,2.38,4.06,2.85,5.1,3.01c0.79,0.13,1.38,0.13,1.63,0.13c0.21,0,0.38,0.12,0.38,0.25c0,0.25-0.25,0.34-1,0.34h-2.97 c-2.34,0-3.39-0.21-4.47-0.8c-1.8-0.96-3.26-3.01-5.65-6.15c-1.76-2.3-3.72-5.1-4.56-6.19c-0.17-0.17-0.29-0.25-0.54-0.25 l-5.15-0.09c-0.21,0-0.29,0.13-0.29,0.34v1.01c0,4.01,0,7.32,0.21,9.07c0.12,1.22,0.38,2.14,1.63,2.3 c0.58,0.08,1.51,0.17,1.88,0.17c0.25,0,0.33,0.12,0.33,0.25c0,0.21-0.21,0.34-0.67,0.34c-2.3,0-4.94-0.13-5.15-0.13 c-0.04,0-2.68,0.13-3.93,0.13c-0.46,0-0.67-0.08-0.67-0.34c0-0.12,0.09-0.25,0.34-0.25c0.38,0,0.88-0.08,1.26-0.17 c0.84-0.17,1.04-1.09,1.21-2.3c0.21-1.75,0.21-5.06,0.21-9.07V267.23L239.2,267.23z M242.55,270.87c0,0.21,0.08,0.37,0.29,0.5 c0.63,0.38,2.55,0.67,4.39,0.67c1,0,2.17-0.12,3.14-0.8c1.46-1,2.55-3.26,2.55-6.44c0-5.23-2.76-8.37-7.24-8.37 c-1.25,0-2.38,0.13-2.8,0.25c-0.21,0.08-0.33,0.25-0.33,0.5V270.87L242.55,270.87z"></path> <path class="st0" d="M303.38,254.52c9.42,0,16.44,5.94,16.44,15.68c0,9.37-6.61,17.11-16.69,17.11c-11.46,0-16.23-8.91-16.23-16.44 C286.9,264.09,291.84,254.52,303.38,254.52L303.38,254.52z M304.26,285.72c3.77,0,11.55-2.18,11.55-14.35 c0-10.04-6.11-15.44-12.72-15.44c-6.99,0-12.22,4.6-12.22,13.76C290.87,279.45,296.73,285.72,304.26,285.72L304.26,285.72z"></path> <path class="st0" d="M348.45,267.23c0-6.53,0-7.7-0.09-9.03c-0.08-1.42-0.42-2.09-1.8-2.39c-0.33-0.08-1.04-0.12-1.42-0.12 c-0.17,0-0.34-0.08-0.34-0.25c0-0.25,0.21-0.33,0.67-0.33c1.88,0,4.44,0.12,4.81,0.12s2.88-0.12,4.14-0.12 c0.46,0,0.67,0.08,0.67,0.33c0,0.17-0.17,0.25-0.33,0.25c-0.29,0-0.54,0.04-1.05,0.12c-1.13,0.17-1.46,0.92-1.55,2.39 c-0.08,1.33-0.08,2.51-0.08,9.03v5.86c0,6.02,1.34,8.62,3.14,10.33c2.05,1.92,3.93,2.3,6.32,2.3c2.56,0,5.06-1.21,6.57-3.01 c1.92-2.38,2.43-5.94,2.43-10.25v-5.23c0-6.53,0-7.7-0.08-9.03c-0.08-1.42-0.42-2.09-1.8-2.39c-0.33-0.08-1.04-0.12-1.42-0.12 c-0.17,0-0.34-0.08-0.34-0.25c0-0.25,0.21-0.33,0.67-0.33c1.89,0,4.18,0.12,4.44,0.12c0.29,0,2.26-0.12,3.51-0.12 c0.47,0,0.67,0.08,0.67,0.33c0,0.17-0.17,0.25-0.34,0.25c-0.29,0-0.54,0.04-1.04,0.12c-1.13,0.25-1.47,0.92-1.55,2.39 c-0.08,1.33-0.08,2.51-0.08,9.03v4.47c0,4.52-0.5,9.54-3.85,12.51c-3.01,2.67-6.15,3.09-8.61,3.09c-1.42,0-5.65-0.17-8.62-2.97 c-2.05-1.96-3.64-4.89-3.64-11V267.23L348.45,267.23z"></path> <path class="st0" d="M406.52,267.23c0-6.53,0-7.7-0.08-9.03c-0.08-1.42-0.42-2.09-1.8-2.39c-0.34-0.08-1.05-0.12-1.43-0.12 c-0.16,0-0.33-0.08-0.33-0.25c0-0.25,0.21-0.33,0.67-0.33c1.88,0,4.39,0.12,4.73,0.12c0.92,0,3.35-0.12,5.27-0.12 c5.23,0,7.11,1.76,7.78,2.38c0.92,0.88,2.09,2.76,2.09,4.98c0,5.94-4.35,9.96-10.29,9.96c-0.21,0-0.67,0-0.88-0.04 c-0.21,0-0.46-0.08-0.46-0.29c0-0.33,0.25-0.38,1.13-0.38c4.06,0,7.24-2.97,7.24-6.82c0-1.38-0.12-4.18-2.34-6.44 c-2.22-2.26-4.77-2.09-5.73-2.09c-0.71,0-1.41,0.08-1.8,0.25c-0.25,0.08-0.34,0.38-0.34,0.8v17.19c0,4.01,0,7.32,0.22,9.07 c0.12,1.22,0.37,2.14,1.63,2.3c0.58,0.08,1.51,0.17,1.89,0.17c0.25,0,0.33,0.12,0.33,0.25c0,0.21-0.21,0.34-0.67,0.34 c-2.3,0-4.93-0.13-5.15-0.13c-0.12,0-2.76,0.13-4.01,0.13c-0.47,0-0.67-0.08-0.67-0.34c0-0.12,0.08-0.25,0.34-0.25 c0.38,0,0.88-0.08,1.26-0.17c0.83-0.17,1.04-1.09,1.21-2.3c0.21-1.75,0.21-5.06,0.21-9.07V267.23L406.52,267.23z"></path> </g> </svg> 