<?xml version="1.0" encoding="UTF-8"?> <!-- Generator: Adobe Illustrator 22.0.1, SVG Export Plug-In . SVG Version: 6.00 Build 0) --> <svg xmlns="http://www.w3.org/2000/svg" xmlns:xlink="http://www.w3.org/1999/xlink" version="1.1" id="Layer_1" x="0px" y="0px" viewBox="0 0 200 191.33" style="enable-background:new 0 0 200 191.33;" xml:space="preserve"> <style type="text/css"> .st0{fill:url(#SVGID_1_);} .st1{fill:#25408F;} .st2{fill:#006A44;} .st3{fill:#598364;} .st4{fill:#96171A;} .st5{fill:#FFFFFF;} </style> <g> <radialGradient id="SVGID_1_" cx="-289.8689" cy="817.9418" r="49.4754" gradientTransform="matrix(1 0 0 -1 384.1602 912.9827)" gradientUnits="userSpaceOnUse"> <stop offset="0.19" style="stop-color:#FFF200"></stop> <stop offset="0.4782" style="stop-color:#FFCE16"></stop> <stop offset="1" style="stop-color:#F68B33"></stop> </radialGradient> <circle class="st0" cx="94.29" cy="95.04" r="47.63"></circle> <g> <path class="st1" d="M95.61,4.31c-50.41,0-91.29,40.88-91.29,91.36s40.88,91.36,91.36,91.36s91.36-40.88,91.36-91.36 C186.97,45.19,146.09,4.31,95.61,4.31z M95.47,144.06c-26.28,0-47.63-21.34-47.63-47.63s21.34-47.63,47.63-47.63 s47.63,21.34,47.63,47.63S121.75,144.06,95.47,144.06z"></path> <path d="M95.61,188.83c-51.38,0-93.17-41.79-93.17-93.17S44.23,2.5,95.61,2.5s93.17,41.79,93.17,93.17 C188.85,147.05,146.99,188.83,95.61,188.83z M95.61,6.12C46.25,6.12,6.13,46.23,6.13,95.6s40.12,89.48,89.48,89.48 s89.48-40.12,89.48-89.48C185.16,46.3,144.98,6.12,95.61,6.12z M95.47,145.93c-27.25,0-49.5-22.18-49.5-49.5 c0-27.25,22.18-49.5,49.5-49.5c27.25,0,49.5,22.18,49.5,49.5C144.98,123.69,122.73,145.93,95.47,145.93z M95.47,50.61 c-25.24,0-45.82,20.51-45.82,45.82c0,25.24,20.51,45.82,45.82,45.82s45.82-20.51,45.82-45.82 C141.29,71.19,120.71,50.61,95.47,50.61z"></path> </g> <g> <path class="st2" d="M79.13,27.81l0.14,0.07c-0.76,7.37-3.34,15.02-3.55,22.6c-0.14,2.85,0.07,5.56,0.35,8.34 c0.07,0,0.21,0.07,0.35,0.21l-0.14,0.83c4.03,5.08,6.95,10.01,9.73,15.85c1.32,2.5,1.81,5.63,3.34,7.93 c1.04-0.9,1.53-2.36,2.64-3.34c1.32-2.64,2.57-5.01,3.75-7.72c-0.07-0.9-0.97-1.32-1.53-2.02c-3.75-4.17-5.63-10.92-4.66-16.55 l4.38,6.54L97,64.24c1.18-7.09-3.62-13.14-6.26-18.91c-0.14-0.97-0.35-1.67-0.35-2.57c0.07-0.35,0.42-0.07,0.42,0.07 c0.56,0.76,0.9,1.53,1.39,2.22c3.06,2.43,5.56,5.98,7.16,9.04c3.13,5.42-1.88,12.38,4.17,16.13c0.28-0.21,0.49-0.49,0.7-0.9 c-0.14-3.27-0.76-6.74,0.49-9.94c0.07-0.07,0.14-0.14,0.35-0.14l1.74,5.77c3.75-2.92,7.65-7.02,10.64-10.5 c1.04-1.18,1.67-2.57,2.57-3.82c0.28-0.63,0.49-1.04,0.56-1.46c0.14-0.28,0.56-0.14,0.83-0.14c0.07,1.18-0.83,2.57-0.63,3.96 c-0.83,7.37-6.12,11.75-9.46,16.96c-3.27,2.78-1.88,7.44-1.18,11.26c1.95,2.36,3.68,4.38,5.01,6.81c0.83-0.28,1.25-1.53,2.22-2.16 c3.75-4.59,8.48-9.46,13.91-12.58c0.28-0.07,0.42-0.14,0.56-0.14c3.68-5.15,5.91-11.33,8.83-17.38c1.6-3.2,3.06-6.54,4.59-9.73 c0.21-0.14,0.42-0.35,0.83-0.49c0.14,0,0.28,0.07,0.28,0.21c-0.28,3.48-0.9,7.02-2.22,10.64c-1.95,4.52-5.21,8.55-5.91,13.49 c3.34-1.32,7.09-4.03,8.69-7.09c0.07,0,0.21-0.07,0.35-0.07c0.07,0,0.21,0.07,0.28,0.21c-0.49,2.92-2.16,5.42-3.75,7.86 c-2.36,3.2-6.33,6.19-9.53,8.62c-3.82,2.02-4.87,7.16-6.95,10.5l18.36-12.79c1.95-1.81,4.17-3.75,6.05-5.56 c0.42-0.28,0.83-0.42,1.18-0.63c0.07,0,0.28,0,0.35,0.07c0.35,0.21,0.63,0.76,0.49,1.25c-0.76,1.39-2.09,2.22-2.43,3.68l5.63-0.7 l0.76,0.21c0.49-0.07,1.18,0,1.46,0.42c-2.92,1.11-5.35,2.22-7.93,4.17c-0.14,0.07-0.28,0.07-0.28,0.07 c-5.35,3.55-10.15,7.65-12.79,13.56c-3.34,4.45-6.33,9.32-9.39,13.63c-0.83,1.81-1.81,3.41-2.78,4.94 c3.2,2.22,6.67,3.62,9.53,7.02c1.95,1.11,3.55,2.36,5.35,3.48l-0.35,0.63c-2.71-0.9-5.56-0.83-8.41-1.46 c-2.92-0.28-4.87-2.16-7.23-2.71l-1.25,4.73c3.06,2.22,6.33,5.98,9.94,7.79v0.7l-11.05-2.92c-1.46,3.34-0.28,5.35-1.53,9.11 c-0.14,0.7,0,0-0.14,0.56c-2.22,1.39-8.13,3.96-9.73,4.03c0.83,4.52-0.28,9.59-0.63,14.46c-0.56,0.07-0.63-0.56-0.83-1.04 c-0.07-7.23-4.94-12.17-7.37-18.22c-0.14-0.28-0.28-0.49-0.28-0.56l-3.62-7.44l-1.81,15.37c-7.65,0.76-18.08-1.88-23.29-4.52 c-0.14-0.07-0.49-1.11-0.49-1.11c-0.56-7.3-0.14-11.82-2.36-19.4c-3.62-4.8-7.09-10.15-11.96-14.25 c-3.89-3.2-9.04-5.35-12.51-9.04c3.55,0.21,6.74,2.64,9.73,3.96c4.31,2.78,8.07,6.05,12.17,9.25c0.14,0,0.21,0,0.35-0.14 c-1.32-6.67-4.24-11.47-9.46-16.2c-1.95-2.57-5.28-2.78-7.16-4.66c-5.08-3.75-13.42-5.08-18.7-8.55c-0.63-0.35-1.04-0.56-1.39-0.9 c0.76-0.35,1.95,0.49,3.06,0.7c2.85,0.76,6.05,0.76,8.97,1.81c3.06,0.83,4.8,2.43,7.79,3.27c7.09,2.36,12.65,5.15,17.66,9.46 c0.97,0.56,1.46,1.39,2.29,1.88c1.18-3.62,0.9-7.65-0.35-11.26c-1.95-4.8-5.35-9.46-10.36-12.03c-5.91,2.16-11.12,8.69-18.98,6.19 c-1.32-0.42-2.36-0.63-3.48-1.39c-0.35-0.21-0.35-0.35-0.56-0.56c-0.07-0.14,0.07-0.35,0.21-0.35c6.54-1.95,10.78-9.53,18.91-7.51 c5.56-0.35,9.59,1.95,13,5.42c0.14,0.28,0.28,0.56,0.56,0.63c0.35-0.49-0.14-1.18,0.21-1.74c0.63-7.72,0.83-15.02-5.35-20.02 c-3.34-4.1-7.65-7.72-11.12-10.85c3.41-0.56,6.33,2.22,8.83,3.55c2.92,1.81,5.49,3.75,8.2,6.54c1.39-6.67,3.55-13.97,5.42-20.72 c0.63-2.02,1.53-3.75,2.5-5.35L79.13,27.81z"></path> <path class="st3" d="M77.81,32.67c-0.35,2.43-0.97,5.08-1.39,7.65c-0.63,5.15-1.6,10.15-1.39,15.23c-2.09-2.09-2.71-6.05-1.6-9.04 C74.68,41.78,76.08,37.19,77.81,32.67z"></path> <path class="st3" d="M92.83,46.09c0.97,0.56,1.11,1.46,2.09,2.09c2.85,3.48,5.35,6.81,5.35,11.33c-0.14-1.04-1.04-2.09-0.49-3.27 c-0.97-3.13-3.13-5.21-5.01-7.79C93.8,47.97,92.9,46.37,92.83,46.09z"></path> <path class="st3" d="M58.48,45.95c2.85,1.32,5.21,3.13,7.65,4.94c4.52,3.75,8.69,9.18,11.82,13.56c3.34,5.42,6.4,10.5,8.69,17.17 c1.04,4.8,3.75,9.73,3.41,14.39c0,0.21,0,0.28,0.07,0.56c0,0.14-0.07,0.21-0.21,0.28c-0.83-0.97-0.56-2.85-1.46-4.03 c-0.35-2.22-1.39-3.82-1.95-5.84c-1.04-2.85-2.22-5.42-3.27-8.13c-0.76-2.29-1.67-4.31-2.43-6.54 c-2.92-5.84-5.56-11.12-9.66-16.06c-1.04-1.32-1.95-2.43-3.34-3.27c-0.14,0-0.42,0.07-0.56,0.14c-0.07,0.07-0.14,0.21-0.21,0.35 c4.17,5.15,7.44,9.87,10.22,15.57c2.78,5.91,5.63,11.89,6.95,18.7c0.35,2.71,0.83,5.28,0.97,7.86c-1.18-6.95-4.52-12.1-6.54-18.7 c-1.67-4.59-3.27-8.83-5.35-12.72c-2.64-5.35-6.26-9.87-11.4-14.74C60.78,48.25,59.18,46.86,58.48,45.95z"></path> <path class="st3" d="M144.49,50.68c-1.32,6.54-4.94,12.31-7.65,18.36c-0.42,0.63-0.49,1.39-0.83,1.88l-1.53,0.56L144.49,50.68z"></path> <path class="st3" d="M117.51,57.15c-0.83,2.5-2.92,4.31-4.94,6.05c-1.74,1.32-3.62,2.85-4.66,4.38c-0.42-0.42-0.35-1.18,0.07-1.53 c3.06-3.13,7.37-5.98,9.53-9.04V57.15z"></path> <path class="st3" d="M91.09,58.4c1.25,2.57,3.06,4.73,4.94,7.09c0,0.28,0,0.49-0.07,0.63l-1.74-1.39 C93.04,62.99,91.58,60.83,91.09,58.4z"></path> <path class="st3" d="M105.55,64.59c2.09,6.95,3.27,13.77,3.96,20.93c1.32,4.59,2.09,8.97,1.6,13.49 c0.07,5.15-1.18,10.22-1.6,15.02l-1.53,0.9c-2.99-7.44,3.13-15.92-0.56-23.99c-0.63-7.65-1.46-15.23-2.09-22.8 C105.21,66.88,105.35,65.77,105.55,64.59z"></path> <path class="st3" d="M99.85,65.28c-0.56,7.23-2.92,14.46-4.52,21.69c0,0.21-0.07,0.35-0.07,0.35c-2.22-3.68-1.32-7.44,0.42-11.33 C97.21,72.44,98.46,68.83,99.85,65.28z"></path> <path class="st3" d="M71.63,64.59l1.32,3.06c0.42,0.76,0.83,1.6,1.32,2.43c0.63,2.43,1.67,4.45,2.36,6.67 c0.56,1.18,0.9,2.5,1.32,3.48L71.63,64.59z"></path> <path class="st3" d="M143.31,68.69c-1.67,1.53-3.27,2.78-4.66,4.1c-5.42,3.82-11.47,5.21-16.48,10.08 c-1.11,1.18-2.36,2.02-3.48,3.13c2.02-2.57,4.38-4.87,7.23-7.37c3.13-3.2,7.02-4.87,10.85-6.33L143.31,68.69z"></path> <path class="st3" d="M100.83,68.48l2.22,2.57l-2.43-2.29c0-0.07,0-0.28,0-0.42L100.83,68.48z"></path> <path class="st3" d="M103.96,72.65c1.25,7.09-4.31,13.97-5.08,21.28c-0.49,3.06-1.53,5.84-1.67,8.9c-0.56-0.14-0.83-0.7-0.83-1.18 c0.63-7.37,1.6-14.74,4.45-21.97C101.87,77.38,102.7,74.18,103.96,72.65z"></path> <path class="st3" d="M52.37,71.26l1.88,0.21c0.07,1.18-1.18,2.16-1.95,2.99c-1.39,0.9-2.78,1.6-4.45,2.16 c-0.07,0.07-0.14,0.21-0.14,0.35c0.21,0.56,1.18,0.35,1.74,0.14c3.06-0.56,5.08-3.55,7.51-4.73c1.39-0.76,2.92-0.83,4.45-0.76 c0.42,0.07,0.14,0.42,0,0.35c-6.26,2.43-11.19,8.97-19.19,7.37c-0.97-0.07-1.46-0.63-2.22-0.63c2.92-1.67,6.26-4.38,9.46-6.4 C50.42,71.82,51.39,71.47,52.37,71.26z"></path> <path class="st3" d="M154.92,76.27c-3.13,1.25-6.12,3.82-9.18,5.77c-6.05,1.95-11.12,5.77-15.99,10.43 c-3.13,2.16-5.49,4.38-9.04,5.63c0.56-1.81,2.92-3.2,4.59-4.94c5.28-4.1,10.29-7.86,15.5-11.12c2.64-1.53,5.49-2.57,8.07-3.96 c0.28-0.07,0.42-0.14,0.56-0.21c0.14,0,0.28,0,0.56,0.07c0.42,0.07,0.42-0.35,0.76-0.63L154.92,76.27z"></path> <path class="st3" d="M99.02,75.71l1.25,1.04c-0.97,3.89-2.78,7.65-3.41,11.61c-0.7,4.52-1.74,8.9-1.88,13.35 c-0.56,0.35-0.83-0.42-1.46-0.56l-0.83-4.66c3.34-6.12,3.68-13.49,5.84-20.16c0.14-0.35,0.21-0.56,0.35-0.76L99.02,75.71z"></path> <path class="st3" d="M71.28,76.76c2.16,3.48,5.28,5.98,6.47,10.22c-2.22-3.2-3.68-6.61-6.54-9.53c-0.07-0.35-0.07-0.56-0.07-0.76 L71.28,76.76z"></path> <path class="st3" d="M66.34,76.82c4.94,1.46,7.02,5.91,9.59,9.59c2.02,4.52,4.59,8.34,5.98,13.42c-1.25,0.7-2.78,1.11-3.62,2.36 c-1.95-6.19-4.24-12.65-7.09-18.29c-1.6-2.36-2.85-4.87-4.94-7.02L66.34,76.82z"></path> <path class="st3" d="M104.72,82.73c0.56,8.13,3.13,16.34,0.07,24.4c-0.56,1.46-0.63,2.71-0.83,4.03 c-2.09-7.65-1.74-16.13-0.28-24.13C103.96,85.45,104.37,84.19,104.72,82.73z"></path> <path class="st3" d="M129.19,83.85c-0.56,1.6-1.53,2.99-2.29,4.45c-0.63,1.6-1.74,2.5-2.5,3.82c-1.6,1.74-3.68,2.85-5.28,4.52 C121.96,91.84,124.33,87.81,129.19,83.85L129.19,83.85z"></path> <path class="st3" d="M79.2,83.29c2.85,4.94,4.73,11.96,5.28,17.94l-1.39,0.14c-0.97-3.48-1.95-7.58-3.62-10.92 C79.69,87.95,78.44,85.45,79.2,83.29z"></path> <path class="st3" d="M90.12,84.19c0.76,0.97,1.04,2.43,1.25,3.89c0.63,2.43,0.56,5.01,1.25,7.16c-1.25-3.55-2.02-7.3-2.64-11.05 L90.12,84.19z"></path> <path class="st3" d="M112.02,85.65c2.22,3.68,4.66,7.51,5.49,12.24l-0.28,0.7c1.32,3.27-0.35,6.95,0.63,10.5 c-0.07,0.7-0.07,1.46-0.07,2.02l-3.55,1.18c1.18-3.55,2.85-7.93,2.02-11.96c-0.07-1.39-1.11-3.34-1.46-4.94 C113.69,92.19,111.6,88.92,112.02,85.65z"></path> <path class="st3" d="M138.58,88.85C135.1,94,131.21,99,127.8,104.29c-1.53,2.64-3.13,4.73-4.59,7.09l-3.96-0.21 c0.83-2.16,2.09-3.68,3.13-5.63c1.88-3.34,4.59-5.77,6.67-8.76C131.77,93.65,135.52,90.87,138.58,88.85z"></path> <path class="st3" d="M50.91,86.91c3.55,1.46,7.37,2.78,10.5,4.52c5.84,2.71,9.94,7.37,14.25,12.38c0.49,0.63,0.97,0.97,0.83,1.53 l-2.22,1.6c-3.13-4.1-7.86-10.08-12.93-13.07c-3.68-2.29-7.37-4.31-10.5-7.02L50.91,86.91z"></path> <path class="st3" d="M50.49,99.63c5.63,2.85,10.29,6.4,15.5,10.92c2.85,2.5,5.98,5.63,8.48,7.93c2.78,3.13,4.17,6.88,6.26,10.36 c2.22,3.75,3.68,7.86,5.21,12.38c0,0.14-0.14,0.28-0.35,0.35c-0.14,0-0.28-0.07-0.42-0.21c-2.92-5.49-5.56-11.33-9.18-16.41 c-2.78-4.73-6.19-9.39-10.29-13.7c-5.15-4.52-9.94-8.13-15.23-11.54c-0.07-0.07-0.07-0.07-0.07-0.07L50.49,99.63L50.49,99.63z"></path> <path class="st3" d="M90.4,101.09l4.52,2.02c2.09,1.04,3.41,3.34,5.35,4.8c1.88,2.16,2.99,4.1,4.17,6.61 c2.16,3.96,3.68,8.9,4.45,13.49l-5.56-8.76c-0.07-0.14-0.35-0.14-0.49-0.28c-3.48-4.59-8.76-9.18-13.35-12.93 c-1.53-1.11-3.27-1.81-4.8-2.71c3.68-0.28,6.61,2.22,9.18,4.03c2.29,1.6,4.17,4.1,6.19,5.84c0.76,1.04,1.46,2.22,2.71,2.92 c0.28-0.07,0.35-0.21,0.56-0.49c-2.16-5.21-8.34-9.18-12.45-13.63c-0.21-0.28-0.49-0.49-0.56-0.76L90.4,101.09z"></path> <path class="st3" d="M81.5,101.02h0.14l0.56,0.56c-0.07,0.28-0.56,0.14-0.76,0.35c-0.14,0-0.28,0-0.56-0.14l-1.18,0.56l-1.95,2.02 C78.93,103.04,79.48,101.44,81.5,101.02z"></path> <path class="st3" d="M121.89,104.08l-2.64,4.24c0.14-1.53,1.53-2.71,2.22-3.89c0.14-0.21,0.28-0.35,0.42-0.42V104.08z"></path> <path class="st3" d="M86.85,105.82h0.14c1.46,1.32,3.75,1.95,4.45,4.03c0.76,2.29-0.7,4.31-0.63,6.67 c-0.07,0.14-0.21,0.28-0.21,0.28c-3.62-2.64-4.1-6.19-4.45-10.43c0.28-0.35,0.28-0.35,0.56-0.56H86.85z"></path> <path class="st3" d="M80.94,107.07l1.6,0.28l1.25,0.21c-2.09,4.73-3.82,9.87-4.94,14.88L72.32,115l0.49-1.67 c0.07-0.21,0.14-0.28,0.35-0.35c1.32-2.64,3.13-5.01,6.81-5.63C80.32,107.28,80.59,107.07,80.94,107.07z"></path> <polygon class="st3" points="85.11,107.76 85.6,111.73 83.72,110.2 85.11,107.63 "></polygon> <path class="st3" d="M92.9,110.41c3.62,2.78,6.88,6.54,8.83,10.01c-0.14,0.14-0.07,0.28-0.42,0.42c-1.25-2.09-3.06-4.45-6.12-4.52 c-1.25,0.07-2.36,0.35-3.34,0.42c-0.28-2.16,1.32-4.17,0.76-6.4h0.28V110.41z"></path> <path class="st3" d="M119.04,112.35l4.73,0.63l1.04,0.7c3.34,0.97,6.26,2.71,8.76,5.56c0.63,0.97,1.67,1.39,2.43,2.22 c-4.38-0.14-8.07-2.57-12.24-3.75c-1.67-1.11-4.17-1.74-5.98-2.78l-3.27-0.63c-0.14-0.07-0.28-0.14-0.14-0.35L119.04,112.35z"></path> <path class="st3" d="M83.31,111.8l5.91,4.73c-2.99,0.28-5.7,1.53-7.86,3.82c-0.56,0.56-0.76,0.97-1.32,1.39 c0.63-3.34,1.39-6.81,2.99-10.08L83.31,111.8z"></path> <path class="st3" d="M111.81,115.13l3.34,0.76c-2.64,2.02-3.96,5.21-5.42,8.69l-2.36-7.23l0.63-0.7c0.21-0.21,0.49-0.28,0.9-0.42 c0.28,0,0.28,0.28,0.56,0.28c0.14,0,0.28-0.07,0.35-0.14l0.42-0.7L111.81,115.13z"></path> <path class="st3" d="M116.47,116.52l-0.97,3.82l-2.99,1.46c0.76-2.16,2.09-3.75,3.89-5.35L116.47,116.52z"></path> <path class="st3" d="M118.35,117.01l2.64,1.18l-1.25,3.62l-2.78-1.39l1.11-3.27C118.21,117.08,118.21,117.08,118.35,117.01z"></path> <path class="st3" d="M93.74,117.85c1.74-0.14,3.55,0.21,4.45,1.88c4.1,5.15,6.61,10.43,9.04,16.9c1.46,4.73,3.82,9.8,2.92,14.53 c-1.74-4.31-4.52-7.44-6.26-11.75c-3.13-5.56-5.08-12.03-7.93-17.94c-0.7-1.18-1.6-2.57-2.85-3.41L93.74,117.85z"></path> <path class="st3" d="M87.76,120.21l0.9,0.07c-1.67,2.92-4.24,5.84-5.56,9.87c-1.04-1.46-2.09-3.06-2.71-5.21 c-0.14-0.07-0.28-0.07-0.49-0.14c-0.14-0.07-0.07-0.28-0.07-0.56C81.71,121.81,84.42,120.42,87.76,120.21z"></path> <path class="st3" d="M90.68,120.97l-0.63,11.89l-2.99-5.21c0.07-0.14,0.07-0.28,0.07-0.56c-0.14-0.07-0.28-0.14-0.49-0.28 c0.35-2.16,2.02-3.82,3.41-5.56c0.21-0.21,0.35-0.28,0.49-0.49L90.68,120.97z"></path> <path class="st3" d="M115.29,121.74c1.53-0.14,2.78,0.76,3.96,1.32c1.18,0.7,2.22,1.11,3.27,2.02l7.23,5.56l-6.95-2.09 c-0.14-0.07-0.21-0.28-0.35-0.35c-3.48-0.49-5.77-3.41-8.69-4.94c-0.14-0.14-0.21-0.28-0.21-0.28L115.29,121.74z"></path> <path class="st3" d="M72.11,124.03l4.31,6.81l-1.74,10.85c-0.14,0.28-0.63,0.07-0.97,0c0-5.77-0.35-11.75-1.74-17.66L72.11,124.03 L72.11,124.03z"></path> <path class="st3" d="M93.74,126.68c3.06,3.68,3.13,9.46,2.29,14.18c-0.07,0.07-0.21,0.21-0.28,0.28 c-0.14,0.21-0.07,0.28-0.14,0.49c-0.14,0.21,0,0-0.21,0.28c-0.35,0-0.63,0.14-1.11,0c-1.53-4.73-0.35-10.22-0.7-15.37 L93.74,126.68z"></path> <path class="st3" d="M117.1,127.37l1.39,0.63c-0.97,4.38-1.95,9.8-4.66,13.56l-0.76-0.07c0.42-1.67,0.42-3.68,0.83-5.56 c0.9-2.92,1.6-5.91,2.99-8.55L117.1,127.37z"></path> <path class="st3" d="M110.35,128c2.36,3.68,2.5,8.9,0.97,13l-0.9-3.06l-3.2-5.35l0.83-1.53c0.14,0,0.28,0,0.49,0.07l0.76,1.67 c0.35,0.21,0.56,0.63,1.04,0.7L110.35,128z"></path> <path class="st3" d="M77.54,132.93c1.46,2.57,3.06,6.88,3.96,10.08l-4.8-1.39c-0.76-2.78,0.63-5.84,0.63-8.76L77.54,132.93z"></path> <path class="st3" d="M84.35,133.14c1.6,2.36,2.43,5.28,3.48,8.48l-3.68-8.55L84.35,133.14z"></path> </g> <g> <g> <path class="st4" d="M61.96,126.26l-12.93,2.57c0,0,4.1-20.09,4.8-23.5c0.97-4.87-0.49-9.8-4.94-6.33 c-2.43,1.88-3.2,5.01-3.75,7.72l-4.87,23.71l-12.72,2.43l4.73-23.22c1.11-5.35-0.35-10.29-4.94-6.74 c-1.88,1.46-2.71,2.92-3.27,5.56l-5.35,26.14l-12.72,2.43l7.51-37.27l12.65-2.43l-0.42,2.29c5.63-5.08,18.98-8.83,19.4-1.04 c2.16-5.35,12.93-9.87,18.01-7.51c3.06,1.46,5.08,4.59,4.31,8.48C66.69,102.97,61.96,126.26,61.96,126.26z"></path> <path class="st5" d="M4.18,138.7l8.13-40.19l15.57-2.99l-0.14,0.83c5.28-3.34,11.89-4.38,15.23-2.99 c1.11,0.42,1.95,1.11,2.57,2.02c1.95-2.22,4.87-3.89,7.44-4.94c4.17-1.67,8.13-1.88,10.78-0.7c3.96,1.88,5.91,5.77,5.08,10.01 c-0.7,3.48-5.42,26.7-5.42,26.7l-0.21,0.9l-15.85,3.13l0.42-2.02c0,0,4.1-20.09,4.8-23.5c0.63-3.13,0-5.35-0.63-5.77 c-0.35-0.21-1.18,0.07-2.09,0.76c-2.02,1.53-2.71,4.24-3.27,6.95l-5.21,24.68l-15.64,2.99l5.15-25.31 c0.7-3.55,0.07-5.77-0.56-6.19c-0.35-0.21-1.18,0.07-2.16,0.83c-1.6,1.25-2.29,2.43-2.71,4.73l-5.49,27.12L4.18,138.7z M14.68,100.88l-6.95,34.35l9.8-1.88l5.15-25.24c0.56-2.92,1.6-4.66,3.75-6.33c2.57-1.95,4.31-1.6,5.35-0.97 c2.43,1.53,2.5,5.7,1.81,9.11l-4.31,21.21l9.73-1.88l4.73-22.8c0.63-2.99,1.53-6.4,4.24-8.55c2.5-1.95,4.17-1.6,5.21-0.97 c2.36,1.46,2.5,5.56,1.95,8.69c-0.56,2.78-3.34,16.27-4.38,21.48l9.94-1.95c0.9-4.31,4.66-22.74,5.21-25.79 c0.76-3.55-1.32-5.91-3.55-6.95c-1.88-0.9-5.15-0.63-8.55,0.76c-3.68,1.46-6.67,3.82-7.58,6.05l-2.71-0.42 c-0.07-1.39-0.63-2.22-1.81-2.71c-3.68-1.53-11.54,1.32-15.3,4.73l-3.06,2.78l0.83-4.38L14.68,100.88z"></path> </g> <g> <path class="st4" d="M81.29,111.45c-0.14,0.7-0.28,1.25-0.42,1.81c-1.11,5.56,3.34,4.17,4.87,3.75c3.62-1.11,9.53-5.42,9.53-5.42 l1.25,0.97c-2.64,5.01-11.54,10.36-16.48,11.33c-5.42,1.04-13.42-1.25-11.96-8.55c0.7-3.48,1.74-8.34,3.2-15.78 c1.39-7.09,9.87-13.91,17.24-15.3c11.54-2.22,10.71,3.55,9.32,10.5C96.45,101.37,89.49,109.85,81.29,111.45z M90.19,89.13 c-1.74,0.35-4.94,2.22-5.77,6.47c-1.04,4.8-1.53,7.58-2.22,11.05c4.38-0.83,8.97-3.48,10.08-9.18c0,0,0-0.14,0.42-2.09 C93.11,93.16,93.53,88.51,90.19,89.13z"></path> <path class="st5" d="M77.47,125.49c-3.13,0-6.54-0.9-8.76-3.13c-1.32-1.32-2.71-3.68-1.95-7.3l0.56-2.57 c0.63-3.2,1.53-7.51,2.71-13.28c1.25-6.47,8.97-14.6,18.29-16.41c5.08-0.97,8.27-0.56,10.08,1.32c2.5,2.57,1.6,6.95,0.83,10.78 c-1.39,7.02-8.41,15.57-16.76,17.66c-0.07,0.35-0.14,0.63-0.21,0.97c-0.28,1.39-0.14,2.09,0.14,2.29 c0.35,0.35,1.32,0.28,2.85-0.21l0.14-0.07c3.34-0.97,9.04-5.15,9.11-5.21l0.83-0.63l3.06,2.29l-0.56,1.04 c-2.92,5.63-12.45,11.12-17.45,12.03C79.41,125.35,78.44,125.49,77.47,125.49z M92.83,85.1c-1.11,0-2.5,0.14-4.1,0.49 c-6.54,1.25-14.81,7.58-16.13,14.18c-1.18,5.77-2.02,10.01-2.71,13.28l-0.56,2.57c-0.42,1.95,0,3.62,1.25,4.8 c2.09,2.16,6.19,2.64,9.11,2.09c3.55-0.7,9.94-4.17,13.49-7.93c-2.09,1.39-5.01,3.06-7.23,3.75l-0.14,0.07 c-1.25,0.35-3.82,1.04-5.49-0.49c-1.11-0.97-1.39-2.64-0.97-4.94v-0.14c0.07-0.28,0.14-0.63,0.21-0.97 c0.07-0.21,0.07-0.49,0.14-0.76l0.21-0.9l0.9-0.14c7.51-1.46,14.18-9.46,15.44-15.71c0.76-3.75,1.25-6.88-0.07-8.27 C95.68,85.45,94.57,85.1,92.83,85.1z M80.46,108.46l0.42-2.02c0.21-1.18,0.42-2.29,0.7-3.41c0.42-2.22,0.83-4.52,1.53-7.65 c1.04-5.15,4.94-7.16,6.88-7.58l0,0c1.67-0.35,2.64,0.28,3.2,0.83c1.67,1.74,1.32,5.15,0.9,7.09c-0.28,1.25-0.35,1.67-0.35,1.88 v0.07v0.14c-1.04,5.42-5.08,9.18-11.19,10.29L80.46,108.46z M90.47,90.52c-1.04,0.21-3.89,1.53-4.66,5.35 c-0.7,3.2-1.11,5.42-1.53,7.65c-0.07,0.42-0.14,0.83-0.21,1.25c2.71-0.97,5.98-2.99,6.88-7.51c0-0.28,0.14-0.76,0.42-2.16 c0.49-2.36,0.28-4.1-0.14-4.59C91.09,90.59,90.95,90.45,90.47,90.52L90.47,90.52z"></path> </g> <g> <path class="st4" d="M133.64,100.81c-0.76,3.75,1.74,2.5,2.02,1.25l0.7-0.07c-1.18,5.56-3.48,10.99-9.25,12.1 c-4.45,0.83-4.73-1.18-5.01-5.91c-1.95,4.87-7.79,8.55-12.24,9.46c-5.42,1.04-10.99-2.43-9.73-8.55c0.7-3.48,1.6-8,3.13-15.44 c0.83-3.82,3.68-8.13,7.72-11.47c5.91-4.87,13-3.41,14.74-2.22l0.28-1.67l13.07-4.52L133.64,100.81z M120.78,83.71 c-1.74,0.35-3.41,2.09-4.17,5.77c-1.53,7.44-3.2,15.92-3.89,19.4c-0.56,2.78,1.04,2.99,2.5,2.71c2.16-0.42,4.8-3.34,5.42-6.19 l3.2-15.71C124.67,85.17,123.08,83.22,120.78,83.71z"></path> <path class="st5" d="M107.99,119.24c-2.71,0-5.35-0.97-7.09-2.78c-1.95-1.95-2.64-4.66-2.09-7.65c0.35-1.67,0.76-3.68,1.25-6.12 c0.49-2.5,1.11-5.56,1.88-9.32c0.83-4.17,3.96-8.69,8.2-12.24c5.08-4.24,11.19-4.1,14.53-3.13l0.14-0.76l16.2-5.63l-5.91,28.99 l1.11-0.14l1.88-0.21l-0.42,1.88c-0.63,2.92-2.43,11.68-10.36,13.21c-2.16,0.42-3.62,0.21-4.73-0.63 c-0.76-0.63-1.18-1.46-1.46-2.43c-2.92,3.55-7.44,5.91-11.05,6.61C109.45,119.17,108.75,119.24,107.99,119.24z M120.5,80.3 c-2.5,0-5.7,0.7-8.55,3.06c-3.82,3.13-6.54,7.09-7.23,10.64c-0.76,3.75-1.39,6.81-1.88,9.32c-0.49,2.43-0.9,4.38-1.25,6.12 c-0.42,2.02,0.07,3.82,1.32,5.15c1.6,1.6,4.17,2.29,6.74,1.81c2.99-0.56,6.54-2.5,8.97-5.15c-1.04,0.9-2.16,1.53-3.2,1.74 c-1.46,0.28-2.64,0.07-3.41-0.76c-0.76-0.76-1.04-2.02-0.7-3.62c0.35-1.74,0.97-4.73,1.67-8.27c0.7-3.48,1.53-7.44,2.22-11.12 c1.11-5.49,4.1-6.61,5.28-6.88l0,0c1.39-0.28,2.64,0.07,3.55,0.97c0.9,0.9,1.81,2.78,1.04,6.61l-3.2,15.78 c-0.14,0.7-0.42,1.46-0.76,2.16l2.36,0.42c0.07,1.81,0.21,3.96,0.83,4.52c0.28,0.21,0.9,0.35,2.43,0.07 c3.48-0.7,5.84-3.27,7.37-8c-0.14,0-0.21,0-0.35-0.07c-0.83-0.14-1.39-0.76-1.67-1.67c-0.14-0.63-0.14-1.46,0.07-2.5l0,0 l5.01-24.54l-10.01,3.48l-0.56,2.92l-1.74-1.18C124.47,80.86,122.73,80.3,120.5,80.3z M114.04,110.27c0,0,0.28,0.07,0.9-0.07 c1.53-0.28,3.82-2.71,4.31-5.15l3.2-15.71c0.56-2.85-0.07-3.82-0.35-4.03c-0.07-0.07-0.35-0.35-1.04-0.21l0,0 c-1.39,0.28-2.57,2.02-3.06,4.66c-0.76,3.68-1.53,7.65-2.22,11.12c-0.7,3.48-1.32,6.54-1.67,8.27 C113.9,109.92,113.97,110.2,114.04,110.27L114.04,110.27z"></path> </g> <g> <path class="st4" d="M162.29,77.8c0,0-1.04-0.56-1.95-0.42l-4.59,0.9l-3.82,18.7c-0.7,3.55-1.04,6.05,3.75,5.15 c1.95-0.35,3.68-2.29,5.42-4.24l-1.53,7.79c-2.22,2.16-5.01,3.96-7.79,4.52c-9.8,1.88-14.32-0.63-11.68-13.77l6.19-30.38 l12.45-2.36L157,72.24l4.52-0.83c1.04-0.21,2.43-1.46,2.43-1.46L162.29,77.8z"></path> <path class="st5" d="M146.71,112.14c-2.92,0-5.01-0.76-6.54-2.22c-2.43-2.5-2.92-6.88-1.53-13.77l6.4-31.29l15.44-2.92 l-1.74,8.55l2.43-0.49c0.42-0.07,1.32-0.7,1.81-1.11l3.06-2.71l-2.71,13.77l-1.67-0.9c-0.28-0.14-0.76-0.28-1.04-0.28l-3.68,0.7 l-3.62,17.8c-0.21,0.9-0.63,3.06-0.21,3.48c0,0,0.42,0.42,2.36,0c1.46-0.28,2.99-2.02,4.52-3.62l3.55-3.82l-2.64,13.07 l-0.35,0.28c-2.71,2.57-5.7,4.31-8.48,4.87C149.98,111.94,148.24,112.14,146.71,112.14z M147.41,67.23l-5.98,29.48 c-1.18,5.84-0.9,9.53,0.76,11.26c1.53,1.53,4.45,1.81,9.32,0.9c2.16-0.42,4.52-1.74,6.81-3.82l0.56-2.92 c-0.9,0.7-1.88,1.25-2.92,1.46c-1.46,0.28-3.55,0.49-4.87-0.76c-1.46-1.46-0.97-3.89-0.56-5.98l4.03-19.68l5.49-1.04 c0.42-0.07,0.83-0.07,1.18,0l0.63-3.34c-0.07,0-0.14,0.07-0.21,0.07l-6.54,1.25l1.74-8.55L147.41,67.23z"></path> </g> <g> <path class="st4" d="M197.54,68.34c-1.18-0.63-2.36-1.04-4.1-0.7c-4.1,0.83-6.33,3.68-5.84,6.74c0.56,3.48,11.26,4.59,9.04,14.81 c-1.6,7.23-9.46,13.49-18.08,15.16c-6.47,1.25-12.79-1.11-13.7-5.56l0.83-3.96c0.97,2.64,4.17,4.87,10.01,3.75 c2.16-0.42,4.24-2.71,4.24-5.28c0-6.67-9.94-3.96-7.65-15.3c1.18-5.98,7.16-12.45,16.27-14.18c3.75-0.7,8.07,0.97,9.32,2.43 L197.54,68.34z"></path> <path class="st5" d="M175.08,106.1c-5.84,0-10.78-2.78-11.68-6.95l-0.07-0.28l1.95-8.97l1.67,4.38c0.76,2.02,3.41,3.82,8.48,2.92 c1.46-0.28,3.13-2.02,3.13-3.96c0-1.95-1.04-2.71-2.99-4.03c-2.57-1.74-6.19-4.03-4.59-11.54c1.74-8.55,10.22-13.91,17.38-15.23 c4.03-0.76,8.97,0.9,10.64,2.92l0.42,0.49l-0.9,4.52l-1.67-0.9c-0.97-0.56-1.88-0.83-3.13-0.56c-3.2,0.63-5.15,2.78-4.73,5.15 c0.07,0.56,1.39,1.46,2.57,2.22c3.27,2.16,8.13,5.42,6.47,13.07c-1.67,7.58-9.73,14.39-19.19,16.2 C177.52,105.96,176.33,106.1,175.08,106.1z M166.25,98.8c0.97,3.34,6.4,5.28,12.03,4.17c8.41-1.6,15.57-7.51,17.03-14.04 c1.25-5.77-2.22-8.13-5.28-10.15c-1.88-1.25-3.48-2.36-3.75-4.1c-0.63-3.89,2.22-7.37,6.95-8.34c0.83-0.14,1.6-0.21,2.22-0.07 c-1.6-0.76-4.17-1.39-6.54-0.97c-9.04,1.67-14.25,7.93-15.23,13c-1.18,5.63,0.97,7.02,3.41,8.62c1.88,1.25,4.24,2.78,4.24,6.33 c0,3.13-2.43,6.12-5.42,6.67c-4.52,0.83-7.65-0.14-9.59-1.81L166.25,98.8z"></path> </g> </g> <g> <path class="st4" d="M61.96,126.26l-12.93,2.57c0,0,4.1-20.09,4.8-23.5c0.97-4.87-0.49-9.8-4.94-6.33 c-2.43,1.88-3.2,5.01-3.75,7.72l-4.87,23.71l-12.72,2.43l4.73-23.22c1.11-5.35-0.35-10.29-4.94-6.74 c-1.88,1.46-2.71,2.92-3.27,5.56l-5.35,26.14l-12.72,2.43l7.51-37.27l12.65-2.43l-0.42,2.29c5.63-5.08,18.98-8.83,19.4-1.04 c2.16-5.35,12.93-9.87,18.01-7.51c3.06,1.46,5.08,4.59,4.31,8.48C66.69,102.97,61.96,126.26,61.96,126.26z"></path> <path class="st4" d="M81.29,111.45c-0.14,0.7-0.28,1.25-0.42,1.81c-1.11,5.56,3.34,4.17,4.87,3.75c3.62-1.11,9.53-5.42,9.53-5.42 l1.25,0.97c-2.64,5.01-11.54,10.36-16.48,11.33c-5.42,1.04-13.42-1.25-11.96-8.55c0.7-3.48,1.74-8.34,3.2-15.78 c1.39-7.09,9.87-13.91,17.24-15.3c11.54-2.22,10.71,3.55,9.32,10.5C96.45,101.37,89.49,109.85,81.29,111.45z M90.19,89.13 c-1.74,0.35-4.94,2.22-5.77,6.47c-1.04,4.8-1.53,7.58-2.22,11.05c4.38-0.83,8.97-3.48,10.08-9.18c0,0,0-0.14,0.42-2.09 C93.11,93.16,93.53,88.51,90.19,89.13z"></path> <path class="st4" d="M133.64,100.81c-0.76,3.75,1.74,2.5,2.02,1.25l0.7-0.07c-1.18,5.56-3.48,10.99-9.25,12.1 c-4.45,0.83-4.73-1.18-5.01-5.91c-1.95,4.87-7.79,8.55-12.24,9.46c-5.42,1.04-10.99-2.43-9.73-8.55c0.7-3.48,1.6-8,3.13-15.44 c0.83-3.82,3.68-8.13,7.72-11.47c5.91-4.87,13-3.41,14.74-2.22l0.28-1.67l13.07-4.52L133.64,100.81z M120.78,83.71 c-1.74,0.35-3.41,2.09-4.17,5.77c-1.53,7.44-3.2,15.92-3.89,19.4c-0.56,2.78,1.04,2.99,2.5,2.71c2.16-0.42,4.8-3.34,5.42-6.19 l3.2-15.71C124.67,85.17,123.08,83.22,120.78,83.71z"></path> <path class="st4" d="M162.29,77.8c0,0-1.04-0.56-1.95-0.42l-4.59,0.9l-3.82,18.7c-0.7,3.55-1.04,6.05,3.75,5.15 c1.95-0.35,3.68-2.29,5.42-4.24l-1.53,7.79c-2.22,2.16-5.01,3.96-7.79,4.52c-9.8,1.88-14.32-0.63-11.68-13.77l6.19-30.38 l12.45-2.36L157,72.24l4.52-0.83c1.04-0.21,2.43-1.46,2.43-1.46L162.29,77.8z"></path> <path class="st4" d="M197.54,68.34c-1.18-0.63-2.36-1.04-4.1-0.7c-4.1,0.83-6.33,3.68-5.84,6.74c0.56,3.48,11.26,4.59,9.04,14.81 c-1.6,7.23-9.46,13.49-18.08,15.16c-6.47,1.25-12.79-1.11-13.7-5.56l0.83-3.96c0.97,2.64,4.17,4.87,10.01,3.75 c2.16-0.42,4.24-2.71,4.24-5.28c0-6.67-9.94-3.96-7.65-15.3c1.18-5.98,7.16-12.45,16.27-14.18c3.75-0.7,8.07,0.97,9.32,2.43 L197.54,68.34z"></path> </g> <g> <path class="st5" d="M14.13,79.33c-0.9-0.28-1.32,0-1.67,1.32l-1.04-0.28l1.81-6.61l1.04,0.28c-0.35,1.32-0.14,1.74,0.76,2.02 l23.78,6.61c1.18,0.35,2.92,0.21,3.34-1.25c0.42-1.46-0.56-2.29-2.22-2.78l-23.78-6.61c-0.9-0.28-1.32,0-1.67,1.32l-1.04-0.28 l1.53-5.49L16,67.86c-0.35,1.32-0.14,1.74,0.76,2.02l24.75,6.88c1.88,0.49,2.64,2.5,1.81,5.56c-0.83,2.99-2.43,4.52-4.45,3.96 L14.13,79.33z"></path> <path class="st5" d="M27.61,57.43c-3.34-1.74-5.56-1.39-6.4,0.14c-0.56,1.04,0.35,1.88,1.39,2.43s5.15,2.09,11.33,2.22 c3.34,0.07,9.04,0.28,12.31,2.02c2.99,1.6,2.85,4.87,1.95,6.61c-0.83,1.53-1.6,2.29-2.09,2.71c-0.42,0.35-0.63,0.56-0.7,0.76 c-0.21,0.35,0,0.83,0.35,1.18l-0.56,1.04l-9.94-5.28l1.04-2.02l3.82,2.02c2.78,1.46,5.84,0.83,6.74-0.76 c0.56-0.97,0-1.95-1.25-2.64c-2.64-1.39-8.55-2.02-12.1-2.09c-4.24-0.07-9.11-1.04-11.61-2.36c-2.78-1.46-2.92-4.24-1.81-6.33 c0.56-0.97,1.18-1.74,1.53-1.95c0.28-0.21,0.56-0.42,0.7-0.76s0-0.76-0.21-1.11l0.56-1.04l9.46,5.01l-1.04,2.02L27.61,57.43z"></path> <path class="st5" d="M42.77,29.48l0.7,0.83c-0.83,0.7-1.25,1.53-0.56,2.09l12.72,11.61l0.14-0.07l-9.39-14.39 c-0.49-0.76-1.46-0.42-2.36,0.35l-0.7-0.83l4.59-3.96l0.7,0.83c-0.83,0.7-1.11,1.39-0.56,2.09l16.27,24.2l-1.88,1.6L48.47,41.3 l-0.14,0.07l10.85,15.23l-1.88,1.6L35.33,38.93c-0.7-0.63-1.32-0.49-2.16,0.21l-0.7-0.83l4.8-4.1l0.7,0.83 c-0.83,0.76-1.04,1.32-0.35,1.95l12.93,11.33l0.14-0.07l-9.94-13.97c-0.49-0.7-1.32-0.56-2.29,0.28l-0.7-0.83L42.77,29.48z"></path> <path class="st5" d="M67.45,50.13l-0.49-0.97c1.25-0.56,1.39-1.04,1.04-1.88L56.68,23.15c-0.42-0.83-0.83-0.97-2.09-0.42 l-0.49-0.97l10.43-4.94l4.52,9.53l-2.09,0.97l-2.29-4.8c-0.42-0.9-1.04-2.02-1.81-2.5s-2.02-0.28-2.71,0.07 c-0.63,0.28-0.83,0.76-0.42,1.6l5.08,10.78c0.14,0.28,0.21,0.49,0.63,0.28c1.25-0.56,1.32-0.97,0.9-1.95l-0.7-1.53l1.39-0.7 l3.34,7.09l-1.39,0.7l-0.7-1.53c-0.56-1.18-0.97-1.46-2.22-0.83c-0.42,0.21-0.35,0.35-0.14,0.7l5.21,11.12 c0.42,0.83,0.83,0.97,1.53,0.7c0.7-0.35,1.67-1.11,1.81-2.02c0.14-0.9-0.35-2.09-0.76-2.99l-2.29-4.94l2.09-0.97l4.52,9.59 L67.45,50.13z"></path> <path class="st5" d="M77.54,45.33l-0.28-1.04c1.32-0.35,1.6-0.7,1.39-1.6l-6.19-25.86c-0.21-0.9-0.63-1.11-1.95-0.83l-0.28-1.04 l6.67-1.6l0.28,1.04c-1.32,0.35-1.6,0.7-1.39,1.6l6.19,25.86c0.14,0.63,0.83,1.11,1.81,0.83c1.11-0.28,1.67-1.11,1.81-1.74 c0.21-0.76,0.14-1.81,0-2.57l-1.32-5.63l2.22-0.56l2.43,10.36L77.54,45.33z"></path> <path class="st5" d="M88.52,42.69v-1.11c1.32-0.07,1.67-0.35,1.67-1.32l-0.76-26.63c0-0.9-0.42-1.25-1.74-1.18v-1.11l6.81-0.21 v1.11c-1.32,0.07-1.67,0.35-1.67,1.32l0.76,26.63c0,0.7,0.63,1.25,1.6,1.18c1.11,0,1.81-0.7,2.09-1.32 c0.35-0.7,0.56-1.74,0.49-2.5l-0.14-5.77l2.29-0.07l0.28,10.64L88.52,42.69z"></path> <path class="st5" d="M99.64,42.2l0.21-1.04c1.32,0.28,1.74,0,1.95-0.9l5.08-26.14c0.21-0.9-0.14-1.32-1.46-1.53l0.21-1.04 l5.77,1.11l0.56,16.69h0.14l2.64-13.7c0.21-0.9-0.14-1.32-1.46-1.53l0.21-1.04l5.63,1.11l-0.21,1.04c-1.32-0.28-1.74,0-1.95,0.9 l-5.56,28.44l-1.88-0.35l-0.83-26.63h-0.14l-4.52,23.15c-0.21,0.9,0.14,1.32,1.18,1.53L105,43.31L99.64,42.2z"></path> <path class="st5" d="M112.51,44.77l0.42-0.97c1.25,0.56,1.67,0.42,2.09-0.49l10.71-24.33c0.35-0.83,0.21-1.32-1.04-1.81l0.42-0.97 l10.57,4.66l-4.24,9.66l-2.09-0.9l2.16-4.87c0.42-0.9,0.83-2.16,0.7-2.99c-0.14-0.9-1.11-1.67-1.88-2.02 c-0.63-0.28-1.11-0.14-1.46,0.7l-4.8,10.92c-0.14,0.28-0.21,0.49,0.14,0.7c1.25,0.56,1.67,0.35,2.09-0.63l0.7-1.6l1.46,0.63 l-3.13,7.16l-1.46-0.63l0.7-1.6c0.49-1.18,0.42-1.67-0.83-2.22c-0.42-0.14-0.49,0-0.63,0.35l-4.94,11.19 c-0.35,0.83-0.21,1.32,0.49,1.6c0.7,0.35,1.95,0.56,2.71,0c0.76-0.49,1.32-1.67,1.74-2.57l2.16-4.94l2.09,0.9l-4.31,9.73 L112.51,44.77z"></path> <path class="st5" d="M143.86,34.34c2.16-3.06,2.16-5.35,0.7-6.4c-0.97-0.7-1.95,0.14-2.57,1.04c-0.7,0.97-2.71,4.8-3.62,10.92 c-0.49,3.34-1.46,8.97-3.55,11.96c-1.95,2.78-5.15,2.22-6.81,1.04c-1.39-0.97-2.09-1.88-2.36-2.43c-0.28-0.49-0.49-0.7-0.63-0.83 c-0.35-0.28-0.76-0.14-1.18,0.21l-0.97-0.7l6.47-9.18l1.88,1.32l-2.5,3.48c-1.81,2.57-1.6,5.7-0.07,6.81 c0.9,0.7,1.95,0.21,2.78-0.9c1.74-2.43,3.13-8.2,3.62-11.75c0.63-4.17,2.22-8.9,3.82-11.19c1.81-2.57,4.52-2.36,6.54-0.97 c0.9,0.63,1.53,1.39,1.74,1.74c0.14,0.28,0.35,0.63,0.63,0.83c0.28,0.21,0.76,0.07,1.11-0.07l0.97,0.7l-6.33,8.9l-1.88-1.32 L143.86,34.34z"></path> <path class="st5" d="M155.34,45.12c2.71-2.57,3.13-4.8,1.95-6.12c-0.83-0.9-1.88-0.28-2.71,0.49c-0.9,0.83-3.62,4.17-5.7,10.01 c-1.18,3.13-3.2,8.48-5.84,10.99c-2.43,2.29-5.49,1.18-6.88-0.28c-1.18-1.25-1.67-2.22-1.88-2.85c-0.21-0.49-0.35-0.76-0.49-0.9 c-0.28-0.28-0.76-0.28-1.25,0l-0.83-0.9l8.2-7.72l1.53,1.67l-3.13,2.92c-2.29,2.16-2.71,5.28-1.46,6.61 c0.76,0.83,1.81,0.63,2.85-0.35c2.16-2.02,4.66-7.44,5.84-10.78c1.39-3.96,3.96-8.27,5.98-10.22c2.29-2.16,4.94-1.39,6.61,0.35 c0.76,0.83,1.25,1.67,1.39,2.09c0.14,0.28,0.21,0.7,0.49,0.9c0.28,0.28,0.7,0.21,1.11,0.14l0.83,0.9l-7.93,7.44l-1.53-1.67 L155.34,45.12z"></path> </g> <g> <path class="st5" d="M40.34,137.04c2.57-1.95,5.35-3.82,6.61-2.16c1.25,1.67-1.25,3.82-3.75,5.84c-2.92,2.22-5.7,4.1-6.95,2.43 C34.91,141.49,37.42,139.26,40.34,137.04z M42.22,139.47c4.17-3.2,4.45-3.96,4.24-4.31c-0.28-0.35-1.11-0.21-5.21,2.99 c-4.52,3.48-4.87,4.24-4.59,4.59C36.86,143.08,37.7,142.95,42.22,139.47z"></path> <path class="st5" d="M42.08,148.44c-0.28,0.28-0.28,0.49,0,0.9l-0.35,0.28l-1.25-1.32l0.28-0.21l-0.07-0.07 c-0.28-0.07-0.63-0.21-0.97-0.56c-0.56-0.56-0.63-1.18,0.07-1.81l5.91-5.35c0.28-0.28,0.28-0.49,0-0.9l0.35-0.28l1.18,1.32 l-6.47,5.91c-0.35,0.35-0.7,0.7-0.35,1.04c0.28,0.35,0.76,0.21,1.18-0.21l5.7-5.21c0.28-0.28,0.28-0.49-0.14-1.04l0.35-0.28 l1.39,1.46L42.08,148.44z"></path> <path class="st5" d="M44.37,150.73c-0.28,0.28-0.28,0.49,0.14,0.97l-0.28,0.35l-1.88-1.81l0.28-0.35c0.42,0.35,0.63,0.35,0.9,0.07 l5.7-5.98c0.28-0.28,0.28-0.49-0.07-0.9l0.28-0.35l1.32,1.25l-0.21,0.21l0.07,0.07c0.42,0.14,0.7,0.28,0.9,0.49 c0.42,0.35,0.63,0.97,0,1.53c-0.7,0.76-1.18,0.97-1.6,0.56c-0.28-0.28-0.21-0.63,0-0.9c0.21-0.21,0.49-0.28,0.7-0.28 c0.28,0,0.42-0.07,0.56-0.21c0.14-0.14,0.14-0.28-0.07-0.49c-0.35-0.35-0.97-0.35-1.53,0.28L44.37,150.73z"></path> <path class="st5" d="M55.77,150.52c0.35-0.42,0.7-0.9,0.14-1.32s-1.11,0-1.39,0.42c-0.28,0.42-0.35,0.76-0.35,1.04 c0,0.14,0,0.35-0.21,0.63c-0.14,0.21-0.49,0.28-0.83,0c-0.35-0.21-0.42-0.76,0.35-1.67c0.9-1.18,1.81-1.46,2.78-0.7 c0.97,0.76,0.97,1.53-0.21,3.13l-3.96,5.15c-0.21,0.35-0.21,0.63,0.14,0.9l-0.35,0.42l-0.35-0.28c-0.35-0.21-0.49-0.63-0.63-0.9 c-0.49-0.14-0.9-0.28-1.25-0.49c-0.56-0.42-0.9-1.25,0.14-2.71c1.25-1.6,2.85-1.88,3.68-1.95c0.56-0.07,1.04-0.21,1.25-0.49 L55.77,150.52z M54.03,152.68L54.03,152.68c-1.18,0.21-2.09,0.7-3.2,2.09c-0.7,0.97-0.97,1.39-0.56,1.67 c0.28,0.21,0.7,0.28,0.83,0L54.03,152.68z"></path> <path class="st5" d="M58.28,151.57c0.21-0.35,0.21-0.56-0.28-0.83l0.21-0.35l1.53,0.97l-0.14,0.21h0.07c0.21,0,0.49,0,0.83,0.21 c0.7,0.49,1.04,1.18,0.14,2.5l-3.96,6.05c-0.21,0.35-0.21,0.56,0.28,0.83l-0.21,0.35l-1.88-1.25l0.21-0.35 c0.28,0.14,0.49,0.07,0.7-0.21l4.1-6.26c0.35-0.49,0.7-1.04,0.28-1.32c-0.49-0.35-0.9,0.07-1.11,0.42l-4.24,6.47 c-0.21,0.35-0.21,0.56,0.07,0.76l-0.21,0.35l-1.95-1.25l0.21-0.35c0.49,0.28,0.7,0.21,0.9-0.14L58.28,151.57z"></path> <path class="st5" d="M59.46,162c-0.21,0.35-0.14,0.56,0.28,0.83l-0.21,0.35l-2.16-1.25l0.21-0.35c0.49,0.21,0.7,0.21,0.9-0.14 l4.1-7.16c0.21-0.35,0.14-0.56-0.28-0.83l0.21-0.35l1.6,0.9L59.46,162z M65.09,152.4c-0.21,0.42-0.7,0.49-1.04,0.28 c-0.35-0.21-0.49-0.63-0.28-1.04c0.28-0.49,0.7-0.56,1.04-0.42C65.23,151.5,65.37,151.91,65.09,152.4z"></path> <path class="st5" d="M64.81,155.6c0.14-0.35,0.14-0.56-0.35-0.83l0.21-0.42l1.67,0.76l-0.14,0.28h0.07c0.28,0,0.56,0,0.9,0.14 c0.28,0.14,0.63,0.42,0.76,0.7c0.35,0,0.7,0.07,1.11,0.21c0.63,0.28,1.18,1.04,0.56,2.29l-3.2,6.74 c-0.14,0.35-0.14,0.56,0.35,0.83l-0.21,0.42l-2.09-1.04l0.21-0.42c0.28,0.07,0.49,0,0.63-0.35l3.2-6.74 c0.28-0.56,0.56-1.11,0.14-1.32c-0.56-0.28-0.9,0.21-1.04,0.56l-3.34,6.95c-0.14,0.35-0.14,0.56,0.14,0.7l-0.21,0.42l-1.67-0.83 l0.21-0.42c0.28,0.07,0.49,0,0.63-0.35l3.2-6.54c0.28-0.56,0.56-1.11,0.14-1.32c-0.49-0.28-0.83,0.21-1.04,0.56l-3.34,6.95 c-0.14,0.35-0.14,0.56,0.14,0.7l-0.21,0.42l-2.02-0.97l0.21-0.42c0.49,0.21,0.7,0.14,0.83-0.21L64.81,155.6z"></path> <path class="st5" d="M73.02,159.91c0.21-0.49,0.42-1.04-0.21-1.25s-1.04,0.28-1.25,0.76c-0.21,0.49-0.07,0.83,0,1.04 c0.07,0.14,0.07,0.35,0,0.63c-0.07,0.28-0.42,0.42-0.76,0.28c-0.35-0.14-0.63-0.63-0.21-1.74c0.56-1.39,1.32-1.95,2.5-1.53 c1.11,0.42,1.39,1.18,0.7,3.06l-2.29,6.05c-0.14,0.35,0,0.7,0.42,0.83l-0.21,0.49l-0.42-0.14c-0.35-0.14-0.7-0.42-0.83-0.7 c-0.56,0-0.97,0-1.32-0.14c-0.7-0.28-1.25-0.9-0.63-2.64c0.7-1.88,2.16-2.64,2.99-2.92c0.56-0.21,0.9-0.49,1.04-0.83L73.02,159.91 z M72.04,162.48L72.04,162.48c-1.11,0.56-1.81,1.32-2.43,2.92c-0.42,1.11-0.49,1.6-0.07,1.81c0.35,0.14,0.7,0.07,0.83-0.21 L72.04,162.48z"></path> <path class="st5" d="M74.48,168.39c-0.14,0.35,0,0.56,0.49,0.76l-0.14,0.42l-2.36-0.76l0.14-0.42c0.56,0.14,0.7,0,0.83-0.35 l3.41-11.05c0.14-0.35,0-0.56-0.49-0.76l0.14-0.42l1.74,0.56L74.48,168.39z"></path> <path class="st5" d="M76.77,166.45l0.76,0.21l-0.35,1.39c-0.21,0.9-0.07,1.6,0.42,1.74c0.42,0.07,0.56-0.14,0.63-0.42 c0.14-0.63,0.07-2.09-0.28-4.52c-0.14-0.83-0.14-2.16,0.14-3.34c0.21-0.97,0.9-1.39,1.67-1.25c0.35,0.07,0.63,0.35,0.9,0.56 l0.21-0.28l0.56,0.14l-0.9,3.55l-0.76-0.21l0.42-1.67c0.21-0.97,0.14-1.39-0.35-1.53c-0.42-0.14-0.63,0.21-0.76,0.63 c-0.14,0.56-0.21,1.88,0.07,3.48c0.28,1.46,0.42,3.27,0.14,4.52c-0.21,0.76-0.83,1.04-1.53,0.9c-0.49-0.14-0.83-0.35-1.04-0.63 l-0.35,0.28l-0.56-0.14L76.77,166.45z"></path> <path class="st5" d="M88.24,167.14l-2.36-0.35c-0.49,3.55-0.63,4.45,0,4.52c0.7,0.07,0.97-0.49,1.18-1.74l0.14-1.11l0.83,0.14 l-0.14,1.11c-0.21,1.39-0.7,2.36-2.09,2.16c-1.39-0.21-1.67-1.46-1.11-5.42c0.49-3.75,1.04-4.94,2.5-4.73 c1.39,0.21,1.6,1.46,1.39,2.78L88.24,167.14z M85.95,166.24l1.25,0.14l0.35-2.43c0.07-0.63,0.21-1.67-0.42-1.74 C86.5,162.13,86.37,163.18,85.95,166.24z"></path> <path class="st5" d="M92.07,163.8c0-0.56,0.07-1.11-0.56-1.18c-0.7-0.07-0.9,0.56-0.97,1.11c0,0.49,0.14,0.83,0.28,1.04 c0.14,0.14,0.21,0.35,0.14,0.63c0,0.28-0.28,0.49-0.7,0.49s-0.76-0.42-0.7-1.6c0.07-1.53,0.7-2.22,1.95-2.16 c1.25,0.07,1.67,0.76,1.6,2.71l-0.42,6.47c0,0.42,0.21,0.63,0.63,0.7v0.56H92.9c-0.42,0-0.76-0.21-0.97-0.42 c-0.49,0.14-0.9,0.28-1.32,0.28c-0.7-0.07-1.46-0.56-1.39-2.36c0.14-2.02,1.32-3.13,2.02-3.68c0.42-0.35,0.7-0.76,0.76-1.11 L92.07,163.8z M91.93,166.58L91.93,166.58c-0.9,0.83-1.39,1.74-1.46,3.48c-0.07,1.18,0,1.67,0.49,1.74c0.35,0,0.7-0.14,0.7-0.49 L91.93,166.58z"></path> <path class="st5" d="M94.78,163.18c0-0.35-0.42-0.49-0.83-0.56v-0.42c0.76,0,1.04-0.35,1.04-0.9v-1.81h0.9v2.71h1.04v0.42 c-0.63,0.07-1.04,0.21-1.04,0.56v8.07c0,0.42,0,0.7,0.21,0.7c0.21,0,0.21-0.28,0.21-0.7v-1.11h0.76v1.32 c0,0.7-0.42,1.04-1.11,0.97c-0.9,0-1.32-0.35-1.32-1.18L94.78,163.18z"></path> <path class="st5" d="M102.77,171.17c0.07,0.42,0.21,0.56,0.83,0.49l0.07,0.42l-2.57,0.28l-0.07-0.42c0.56-0.07,0.7-0.28,0.63-0.63 l-0.76-8.2c-0.07-0.42-0.21-0.56-0.76-0.49l-0.07-0.42l1.81-0.14v0.28h0.07c0.42-0.21,0.63-0.35,0.97-0.35 c0.56-0.07,1.11,0.14,1.18,1.04c0.07,1.04-0.07,1.53-0.63,1.6c-0.42,0.07-0.63-0.28-0.63-0.56c0-0.28,0.07-0.49,0.28-0.7 c0.21-0.21,0.21-0.42,0.21-0.56c0-0.21-0.14-0.28-0.49-0.28c-0.49,0.07-0.9,0.49-0.83,1.32L102.77,171.17z"></path> <path class="st5" d="M107.29,170.62c0.07,0.42,0.21,0.49,0.76,0.49l0.07,0.42l-2.5,0.35l-0.07-0.42c0.56-0.14,0.63-0.28,0.56-0.7 l-1.18-8.13c-0.07-0.42-0.21-0.49-0.76-0.49l-0.07-0.42l1.81-0.28L107.29,170.62z M105.83,159.56c0.07,0.42-0.21,0.83-0.63,0.9 c-0.42,0.07-0.76-0.21-0.83-0.7c-0.07-0.56,0.21-0.9,0.63-0.97C105.42,158.8,105.76,159.08,105.83,159.56z"></path> <path class="st5" d="M112.3,171.24c1.32-0.28,1.95,0.07,2.09,0.7c0.07,0.49-0.42,0.97-1.53,1.25l-1.74,0.35 c-0.9,0.21-1.6,0.07-1.67-0.42c-0.07-0.35,0.14-0.7,0.42-0.83c-0.42-0.14-0.63-0.35-0.7-0.63c-0.07-0.21,0.14-0.49,0.42-0.76 c-0.28-0.28-0.83-0.9-1.6-4.59c-0.76-3.62-0.63-5.01,0.76-5.28c0.49-0.14,0.76-0.07,1.18,0.21c0.21-0.28,0.49-0.56,0.97-0.7 c0.9-0.14,1.32,0.7,1.46,1.32c0.07,0.42,0,0.76-0.42,0.83c-0.42,0.07-0.63-0.14-0.7-0.42c-0.07-0.21,0-0.42,0-0.56 c0.07-0.21,0-0.42,0-0.56c0-0.14-0.21-0.21-0.42-0.14c-0.42,0.07-0.63,0.42-0.42,0.76c0.14,0.35,0.63,1.18,1.11,3.75 c0.76,3.68,0.7,5.21-0.7,5.49c-0.35,0.07-0.63,0.07-0.7,0.07c-0.14,0.14-0.21,0.21-0.14,0.28c0.07,0.21,0.35,0.21,0.76,0.14 L112.3,171.24z M109.1,166.03c0.76,3.68,1.04,4.59,1.6,4.45c0.49-0.14,0.42-1.04-0.35-4.73c-0.7-3.34-1.04-4.38-1.53-4.24 C108.27,161.65,108.41,162.69,109.1,166.03z M111.05,172.22c-0.76,0.14-0.9,0.35-0.83,0.56c0.07,0.21,0.21,0.28,0.97,0.14 l1.53-0.35c0.76-0.14,0.9-0.35,0.9-0.56c-0.07-0.21-0.42-0.28-1.04-0.14L111.05,172.22z"></path> <path class="st5" d="M114.8,170.13l-0.14-0.42c0.49-0.21,0.63-0.35,0.49-0.76l-3.27-11.05c-0.14-0.35-0.28-0.49-0.83-0.35 l-0.14-0.42l1.74-0.49l0.97,3.41h0.07c0.07-0.07,0.14-0.21,0.28-0.28c0.14-0.07,0.28-0.14,0.42-0.21 c0.83-0.21,1.53-0.07,2.02,1.46l2.02,6.95c0.14,0.35,0.28,0.49,0.83,0.35l0.14,0.42l-2.16,0.63l-0.14-0.42 c0.28-0.14,0.42-0.28,0.28-0.7l-2.09-7.16c-0.14-0.56-0.35-1.18-0.83-1.04c-0.56,0.14-0.56,0.7-0.42,1.11l2.16,7.44 c0.14,0.35,0.28,0.49,0.63,0.42l0.14,0.42L114.8,170.13z"></path> <path class="st5" d="M117.65,159.56c-0.14-0.35-0.56-0.35-0.97-0.21l-0.14-0.42c0.76-0.28,0.9-0.7,0.7-1.25l-0.63-1.67l0.9-0.35 l0.9,2.57l0.97-0.35l0.14,0.42c-0.56,0.28-0.9,0.56-0.76,0.83l2.78,7.58c0.14,0.42,0.28,0.7,0.49,0.63c0.21-0.07,0.14-0.35,0-0.76 l-0.35-1.04l0.76-0.28l0.42,1.25c0.21,0.63,0,1.11-0.7,1.32c-0.83,0.28-1.32,0.14-1.6-0.63L117.65,159.56z"></path> <path class="st5" d="M125.58,162.62l0.7-0.35l0.63,1.32c0.42,0.83,0.9,1.25,1.39,1.04c0.42-0.21,0.35-0.49,0.21-0.76 c-0.28-0.56-1.32-1.6-3.13-3.27c-0.63-0.56-1.46-1.53-2.02-2.64c-0.42-0.9-0.21-1.67,0.49-2.02c0.28-0.14,0.7-0.14,1.04-0.14 v-0.35l0.49-0.28l1.6,3.34l-0.7,0.35l-0.76-1.53c-0.42-0.9-0.76-1.18-1.25-0.97c-0.42,0.21-0.35,0.56-0.14,0.97 c0.28,0.56,0.97,1.53,2.29,2.64c1.11,0.97,2.43,2.22,2.99,3.41c0.35,0.76,0,1.39-0.56,1.67c-0.49,0.21-0.83,0.21-1.18,0.21 l-0.07,0.42l-0.49,0.28L125.58,162.62z"></path> <path class="st5" d="M132.11,157.2c2.02,3.48,2.22,4.73,1.04,5.42c-1.25,0.7-2.16-0.14-4.17-3.68c-1.88-3.27-2.16-4.59-0.9-5.28 C129.26,153.03,130.24,153.93,132.11,157.2z M130.03,158.38c1.88,3.27,2.36,4.1,2.85,3.75c0.56-0.28,0.07-1.11-1.81-4.38 c-1.67-2.99-2.22-3.89-2.78-3.62C127.8,154.49,128.29,155.46,130.03,158.38z"></path> <path class="st5" d="M136.56,148.58c-0.49,0.35-0.42,0.56-0.28,0.9l5.42,9.39c0.28,0.49,0.14,1.11-0.49,1.53 c-0.7,0.49-1.25,0.42-1.67-0.07c-0.42-0.56-0.56-1.11-0.21-1.39c0.28-0.21,0.63-0.07,0.76,0.21c0.14,0.14,0.21,0.35,0.21,0.49 s0,0.28,0.14,0.42c0.07,0.14,0.21,0.21,0.42,0c0.28-0.21,0.35-0.56,0.14-0.83c-0.14-0.21-0.49-0.56-0.7-0.76l-6.61-7.09 c-0.28-0.28-0.42-0.35-0.9,0l-0.28-0.35l1.81-1.32l0.28,0.35c-0.21,0.21-0.28,0.42,0,0.76l4.1,4.66h0.07l-3.13-5.35 c-0.21-0.35-0.49-0.35-0.76-0.14l-0.28-0.35l1.67-1.25L136.56,148.58z"></path> <path class="st5" d="M142.61,149.41c2.57,3.06,3.06,4.24,2.02,5.15c-1.11,0.9-2.16,0.21-4.8-2.85c-2.43-2.92-2.92-4.1-1.88-5.01 C139.07,145.87,140.18,146.56,142.61,149.41z M140.74,151.01c2.43,2.92,3.06,3.55,3.55,3.2c0.49-0.42-0.14-1.11-2.57-3.96 c-2.22-2.57-2.92-3.41-3.41-2.99C137.88,147.6,138.51,148.37,140.74,151.01z"></path> <path class="st5" d="M149.29,148.86c0.28,0.28,0.49,0.28,0.9-0.07l0.28,0.28l-1.32,1.25l-0.21-0.28l-0.07,0.07 c-0.07,0.35-0.21,0.7-0.49,0.97c-0.56,0.56-1.18,0.63-1.81,0l-5.63-5.7c-0.28-0.28-0.49-0.28-0.9,0.07l-0.28-0.28l1.25-1.25 l6.19,6.26c0.35,0.35,0.7,0.63,1.04,0.28c0.28-0.28,0.21-0.76-0.21-1.18l-5.42-5.49c-0.28-0.28-0.49-0.28-1.04,0.21l-0.28-0.28 l1.46-1.39L149.29,148.86z"></path> <path class="st5" d="M153.04,140.58l1.39,1.11c0.97,0.76,1.04,1.6,0.28,2.5c-0.9,1.11-2.09,0.63-5.21-1.88 c-2.99-2.36-3.68-3.48-2.78-4.59c0.76-0.97,1.6-0.97,2.85,0c0.97,0.76,0.97,1.32,0.76,1.6c-0.28,0.28-0.7,0.28-0.9,0.14 s-0.21-0.28-0.28-0.49c-0.07-0.35-0.28-0.76-0.63-0.97c-0.42-0.35-1.04-0.42-1.39-0.07c-0.42,0.56,0.42,1.25,3.06,3.34 c2.99,2.36,3.82,2.78,4.17,2.36c0.35-0.42,0-0.97-0.42-1.32l-1.46-1.18L153.04,140.58z"></path> <path class="st5" d="M151.03,134.67c-0.42-0.28-0.9-0.63-1.32-0.07c-0.42,0.56,0,1.11,0.42,1.39c0.42,0.28,0.76,0.28,1.04,0.28 c0.14,0,0.35,0,0.63,0.21c0.21,0.14,0.28,0.49,0.07,0.83c-0.21,0.35-0.76,0.42-1.67-0.28c-1.25-0.83-1.6-1.74-0.83-2.78 c0.7-0.97,1.53-1.04,3.13,0.07l5.35,3.68c0.35,0.21,0.63,0.14,0.9-0.21l0.42,0.28l-0.21,0.35c-0.21,0.35-0.56,0.56-0.83,0.63 c-0.14,0.49-0.21,0.9-0.49,1.25c-0.42,0.56-1.18,0.97-2.71-0.07c-1.67-1.18-2.02-2.78-2.09-3.62c-0.07-0.56-0.28-0.97-0.56-1.25 L151.03,134.67z M153.32,136.27L153.32,136.27c0.28,1.18,0.83,2.09,2.22,3.06c0.97,0.7,1.46,0.9,1.74,0.49 c0.21-0.28,0.21-0.7,0-0.83L153.32,136.27z"></path> <path class="st5" d="M152,132.1c-0.35-0.21-0.56-0.14-0.83,0.28l-0.35-0.21l0.9-1.6l0.21,0.14v-0.07c0-0.21,0-0.49,0.14-0.83 c0.42-0.76,1.11-1.11,2.5-0.28l6.26,3.68c0.35,0.21,0.56,0.14,0.83-0.28l0.35,0.21l-1.18,1.95l-0.35-0.21 c0.14-0.28,0.07-0.49-0.28-0.7l-6.4-3.75c-0.56-0.28-1.11-0.63-1.32-0.21c-0.28,0.49,0.14,0.9,0.49,1.11l6.67,3.89 c0.35,0.21,0.56,0.14,0.76-0.14l0.35,0.21l-1.18,2.02l-0.35-0.21c0.21-0.49,0.21-0.7-0.14-0.9L152,132.1z"></path> <path class="st5" d="M155.75,125.08c-0.35-0.14-0.63,0.21-0.83,0.56l-0.42-0.21c0.35-0.7,0.14-1.11-0.42-1.32l-1.6-0.76l0.42-0.83 l2.5,1.11l0.42-0.9l0.42,0.21c-0.21,0.63-0.21,1.04,0.07,1.18l7.37,3.34c0.42,0.21,0.63,0.28,0.76,0.07 c0.07-0.21-0.14-0.35-0.56-0.49l-0.97-0.42l0.35-0.7l1.18,0.56c0.63,0.28,0.76,0.76,0.49,1.39c-0.35,0.83-0.83,1.04-1.6,0.7 L155.75,125.08z"></path> <path class="st5" d="M162.01,120.42c3.75,1.46,4.73,2.22,4.24,3.55c-0.49,1.32-1.81,1.25-5.56-0.14 c-3.55-1.32-4.52-2.16-4.03-3.48C157.21,119.03,158.47,119.1,162.01,120.42z M161.18,122.71c3.55,1.32,4.38,1.67,4.59,1.11 c0.21-0.56-0.63-0.9-4.17-2.22c-3.2-1.25-4.17-1.6-4.38-1.04C156.94,121.11,157.98,121.53,161.18,122.71z"></path> <path class="st5" d="M163.54,115.55c3.82,1.18,4.94,1.88,4.52,3.27c-0.42,1.39-1.67,1.39-5.56,0.21c-3.62-1.11-4.73-1.81-4.31-3.2 C158.6,114.51,159.93,114.51,163.54,115.55z M162.85,117.92c3.62,1.11,4.52,1.32,4.66,0.76c0.21-0.63-0.7-0.83-4.31-1.95 c-3.27-0.97-4.31-1.25-4.45-0.7C158.53,116.59,159.58,116.94,162.85,117.92z"></path> <path class="st5" d="M168.55,113.95c0.42,0.07,0.63,0.49,0.56,0.97c-0.14,0.42-0.49,0.7-0.9,0.63c-0.42-0.07-0.63-0.49-0.49-0.9 C167.78,114.16,168.13,113.88,168.55,113.95z"></path> </g> <g> <path class="st5" d="M175.36,109.99c1.6,0,2.92,1.25,2.92,2.85c0,1.6-1.25,2.85-2.92,2.85c-1.6,0-2.92-1.25-2.92-2.85 C172.44,111.24,173.69,109.99,175.36,109.99L175.36,109.99z M175.36,110.55c-1.25,0-2.16,1.04-2.16,2.29s0.9,2.29,2.22,2.29 c1.25,0,2.16-0.97,2.16-2.29C177.52,111.59,176.61,110.55,175.36,110.55L175.36,110.55z M174.87,114.3h-0.63v-2.85 c0.28-0.07,0.63-0.07,1.11-0.07c0.56,0,0.76,0.07,0.97,0.21c0.14,0.14,0.28,0.35,0.28,0.63c0,0.35-0.21,0.56-0.56,0.7l0,0 c0.28,0.07,0.42,0.28,0.49,0.7s0.14,0.63,0.21,0.7h-0.7c-0.07-0.14-0.14-0.35-0.21-0.7c-0.07-0.28-0.21-0.42-0.56-0.42h-0.28v1.11 H174.87z M174.94,112.7h0.28c0.35,0,0.63-0.14,0.63-0.42c0-0.28-0.21-0.42-0.63-0.42c-0.14,0-0.28,0-0.35,0v0.83H174.94z"></path> </g> </g> </svg> 