<?xml version="1.0" encoding="UTF-8"?> <svg xmlns="http://www.w3.org/2000/svg" id="Layer_1" width="100" height="26.19" viewBox="0 0 100 26.19"><defs><style>.cls-1{fill:#ee3124;}.cls-2{fill:#54534a;}</style></defs><path class="cls-2" d="m97.9,14.7c0,.6-.34,1.13-.96,1.13-.37,0-.54-.19-.54-.58,0-.44.28-.59.54-.71l.96-.45v.6Zm1.52.08v.35c0,.58-.11.71-.24.71s-.22-.1-.22-.31v-2.28c0-.78-.52-1.35-1.74-1.35-.71,0-1.81.2-1.81,1.15,0,.38.26.69.65.69.35,0,.63-.13.63-.55,0-.38-.26-.53-.6-.48.16-.22.59-.31.84-.31.48,0,.97.11.97.71,0,1.31-2.7.44-2.7,2.24,0,.84.55,1.18,1.25,1.18.57,0,1.14-.17,1.48-.69.07.49.46.69.91.69.76,0,1.16-.44,1.16-1.48v-.28h-.58Zm-6.57-3.99c0,.37.3.67.65.67s.65-.3.65-.67-.3-.67-.65-.67-.65.3-.65.67m2.1,5.6v-.61h-.44c-.25,0-.36-.1-.36-.37v-3.36h-1.84v.61h.41c.25,0,.36.1.36.37v2.38c0,.27-.11.37-.36.37h-.41v.61h2.64Zm-6.81-2.17c0-1.07.32-1.59.93-1.59s1.08.52,1.08,1.53c0,1.12-.48,1.64-1.08,1.64s-.93-.52-.93-1.59m2.01,2.17h1.89v-.61h-.47c-.28,0-.36-.13-.36-.41v-5.14h-2v.61h.57c.28,0,.37.13.37.41v1.45h-.02c-.21-.34-.7-.8-1.41-.8-1.13,0-1.78,1.17-1.78,2.31s.53,2.31,1.78,2.31c.59,0,1.05-.27,1.41-.9h.02v.76Zm-6.35-2.68c.03-.59.25-1.16.86-1.16s.82.58.81,1.16h-1.68Zm2.88.61c.1-1.06-.52-2.42-2-2.42-1.24,0-2.09.96-2.09,2.31,0,1.5.74,2.31,2.14,2.31,1.2,0,1.82-.62,1.94-1.68h-.75c-.12.64-.44.98-1.09.98-.84,0-1.05-.78-1.03-1.5h2.88Zm-10.32-3.17h.02l1.65,5.23h.75l1.72-5.23h.02v4.23c0,.19-.14.31-.39.31h-.59v.69h3.13v-.69h-.57c-.25,0-.39-.15-.39-.45v-4.02c0-.22.14-.32.35-.32h.6v-.69h-2.72l-1.37,4.02h-.02l-1.22-4.02h-2.83v.69h.57c.21,0,.35.09.35.32v4.15c0,.22-.1.31-.39.31h-.53v.69h2.82v-.69h-.56c-.19,0-.41-.09-.41-.31v-4.23Z"></path><path class="cls-1" d="m70.43,10.23h-1.94v.61h.51c.25,0,.36.1.36.37v4.19c0,.27-.11.37-.36.37h-.51v.61h2.65v-.61h-.35c-.25,0-.36-.1-.36-.37v-1.45c0-.82.54-1.33,1.01-1.33s.79.18.79.65v2.13c0,.27-.11.37-.36.37h-.34v.61h2.63v-.61h-.5c-.25,0-.36-.1-.36-.37v-2.2c0-.79-.49-1.3-1.28-1.3-.7,0-1.2.37-1.57.87h-.02v-2.55Zm-6.06,4.46v1.7h.59l.18-.33c.42.38.96.47,1.5.47.85,0,1.65-.4,1.65-1.37,0-1.7-2.84-1.36-2.84-2.08,0-.37.39-.5.68-.5.69,0,1.12.34,1.33,1.02h.59v-1.55h-.5l-.18.32c-.39-.27-.85-.45-1.32-.45-.79,0-1.65.47-1.65,1.39,0,1.66,2.84,1.14,2.84,2.05,0,.38-.39.56-.7.56-.79,0-1.34-.4-1.52-1.22h-.66Zm-2.5-3.9c0,.37.3.67.65.67s.65-.3.65-.67-.3-.67-.65-.67-.65.3-.65.67m2.1,5.6v-.61h-.44c-.25,0-.36-.1-.36-.37v-3.36h-1.84v.61h.41c.25,0,.36.1.36.37v2.38c0,.27-.11.37-.36.37h-.41v.61h2.64Zm-5.26,0v-.69h-.45c-.41,0-.57-.13-.57-.48v-1.68h.37c.56,0,.8.25.8.91v.35h.67v-3.1h-.67v.24c0,.47-.17.91-.75.91h-.42v-1.93h1.01c1.23,0,1.55.32,1.73,1.85h.67v-2.54h-5.69v.69h.59c.27,0,.42.12.42.34v3.98c0,.26-.14.46-.46.46h-.56v.69h3.3Zm-7.24-.69c-.62,0-.77-.17-.77-.33s.11-.27.24-.35c.32.12.65.16.95.16,1.02,0,2.01-.44,2.01-1.63,0-.31-.09-.53-.25-.84.14-.2.35-.41.6-.41s.32.1.31.14c-.26.07-.41.25-.41.54,0,.33.25.49.55.49.4,0,.58-.27.58-.66,0-.53-.39-.91-.91-.91-.38,0-.7.14-.94.45-.34-.27-.94-.45-1.53-.45-.99,0-1.96.51-1.96,1.64,0,.56.19,1,.68,1.25v.02c-.47.03-.83.39-.83.88,0,.57.27.75.76.84v.02c-.43.05-.9.24-.9.76,0,.55.46,1.03,2.32,1.03,2.21,0,2.53-.82,2.53-1.43,0-.8-.5-1.23-1.48-1.23h-1.54Zm-.32-2.16c0-.74.26-1.12.77-1.12s.78.37.78,1.16c0,.7-.26,1.07-.78,1.07s-.77-.37-.77-1.11m1.73,3.1c.33,0,.57.23.57.54,0,.46-.53.66-1.51.66s-1.37-.24-1.37-.58c0-.37.32-.62.95-.62h1.37Zm-7.06-4.6h-1.94v.61h.3c.47,0,.58.1.58.5v2.25c0,.27-.11.37-.36.37h-.51v.61h2.65v-.61h-.35c-.25,0-.36-.1-.36-.37v-1.71c0-.59.58-1.07,1.01-1.07s.79.15.79.85v1.93c0,.27-.11.37-.49.37h-.22v.61h2.63v-.61h-.32c-.43,0-.54-.1-.54-.37v-2.01c0-1-.49-1.5-1.28-1.5-.7,0-1.2.37-1.57.95h-.02v-.81Zm-4.33-1.25c0,.37.3.67.65.67s.65-.3.65-.67-.3-.67-.65-.67-.65.3-.65.67m2.1,5.6v-.61h-.44c-.25,0-.36-.1-.36-.37v-3.36h-1.84v.61h.41c.25,0,.36.1.36.37v2.38c0,.27-.11.37-.36.37h-.41v.61h2.64Zm-6.39,0h3.44v-.69h-.47c-.2,0-.44-.07-.68-.42l-1.92-2.72,1.27-1.14c.37-.33.63-.5,1.17-.5h.33v-.69h-3.16v.69h.57c.11,0,.16.05.16.12,0,.08-.07.18-.21.3l-1.94,1.82v-1.9c0-.24.09-.33.37-.33h.53v-.69h-3.17v.69h.64c.28,0,.37.09.37.33v3.95c0,.31-.12.5-.53.5h-.48v.69h3.17v-.69h-.53c-.28,0-.37-.09-.37-.33v-1.12l.95-.84,1.28,1.91c.05.08.08.16.08.21,0,.14-.13.17-.27.17h-.6v.69Z"></path><g><path class="cls-1" d="m2.74,17.62v-8.79c0-.54-.21-.74-.85-.74h-.9c-.64,1.54-.99,3.24-.99,5.01,0,2.02.46,3.93,1.27,5.64h.25c.95,0,1.22-.43,1.22-1.12Z"></path><path class="cls-1" d="m7.81,13.62l-2.17,1.86v2.5c0,.54.21.74.85.74h1.22v1.53H2.14c2.34,3.57,6.37,5.93,10.96,5.93,1.98,0,3.85-.44,5.53-1.22-.17-.04-.4-.11-.58-.17-3.85-1.28-10.24-11.18-10.24-11.18Z"></path><path class="cls-1" d="m26.18,13.38c0-.69-.05-1.37-.15-2.04,0-.03,0-.05-.01-.08-.03-.2-.06-.39-.1-.58,0-.05-.02-.09-.03-.14-.04-.17-.07-.34-.12-.51-.01-.06-.03-.11-.05-.17-.04-.16-.08-.31-.13-.47-.02-.06-.04-.12-.06-.18-.05-.15-.1-.29-.15-.44-.02-.07-.05-.13-.08-.2-.05-.14-.1-.27-.16-.41-.03-.07-.06-.14-.09-.21-.06-.13-.11-.26-.17-.38-.03-.07-.07-.14-.11-.21-.06-.12-.12-.24-.19-.36-.04-.07-.08-.15-.12-.22-.06-.11-.13-.23-.2-.34-.05-.08-.09-.15-.14-.22-.07-.11-.13-.21-.2-.32-.05-.08-.11-.15-.16-.22-.07-.1-.14-.2-.21-.3-.06-.08-.12-.15-.17-.22-.07-.09-.15-.19-.22-.28-.06-.08-.13-.15-.19-.22-.08-.09-.15-.18-.23-.26-.07-.07-.14-.15-.21-.22-.08-.08-.15-.17-.23-.25-.07-.07-.15-.14-.22-.21-.08-.08-.16-.16-.24-.23-.08-.07-.16-.14-.24-.21-.08-.07-.16-.14-.25-.21-.08-.07-.17-.13-.25-.2-.08-.07-.17-.13-.25-.2-.09-.07-.18-.13-.27-.19-.08-.06-.17-.12-.26-.18-.09-.06-.19-.12-.28-.18-.09-.06-.17-.11-.26-.17-.1-.06-.2-.11-.29-.17-.09-.05-.17-.1-.26-.15-.1-.06-.2-.11-.31-.16-.09-.05-.18-.09-.27-.14-.11-.05-.21-.1-.32-.15-.09-.04-.18-.08-.27-.12-.11-.05-.22-.09-.33-.13-.09-.04-.18-.07-.27-.11-.11-.04-.23-.08-.34-.12-.09-.03-.18-.06-.28-.09-.12-.04-.23-.07-.35-.1-.09-.03-.19-.06-.28-.08-.12-.03-.24-.06-.36-.09-.1-.02-.19-.05-.29-.07-.12-.03-.24-.05-.37-.07-.1-.02-.19-.04-.29-.05-.12-.02-.25-.03-.37-.05-.1-.01-.19-.03-.29-.04-.13-.01-.25-.02-.38-.03-.1,0-.2-.02-.3-.02-.13,0-.26,0-.38-.01-.09,0-.19,0-.28,0C8.13.07,3.99,2.69,1.75,6.55h5.95v1.53h-1.22c-.64,0-.85.21-.85.74v4.24l4.45-4.05c.31-.27.48-.48.48-.66,0-.17-.12-.27-.37-.27h-1.3v-1.53h7.26v1.53h-.76c-1.24,0-1.84.37-2.69,1.12l-2.92,2.54s5.4,8.78,7.93,10.56c1.85,1.3,3.79.5,4.91-.21,2.07-2.19,3.39-5.09,3.56-8.3,0-.13.01-.27.01-.4Z"></path></g></svg> 