<?xml version="1.0" encoding="UTF-8"?> <svg xmlns="http://www.w3.org/2000/svg" id="Layer_1" width="600" height="400" viewBox="0 0 600 400"><defs><style>.cls-1{fill:#fff;}</style></defs><path class="cls-1" d="m259.76,151.86h-3.91v16.03h3.91c3.98,0,5.53-1.75,5.53-6.13v-4.04c0-4.31-1.68-5.86-5.53-5.86Z"></path><polygon class="cls-1" points="152.88 152.33 148.9 178 156.85 178 152.88 152.33"></polygon><polygon class="cls-1" points="292.49 152.33 288.51 178 296.46 178 292.49 152.33"></polygon><path class="cls-1" d="m96.58,233.48h-1.82v13.41h1.89c2.83,0,3.91-1.35,3.91-5.05v-3.51c0-3.9-1.14-4.85-3.97-4.85Z"></path><path class="cls-1" d="m100.08,221.82v-3.04c0-3.3-1.21-3.97-3.57-3.97h-1.75v11.19h1.75c2.56,0,3.57-.94,3.57-4.18Z"></path><path class="cls-1" d="m476.69,151.45c-4.18,0-6.2,2.9-6.2,8.36v21.16c0,5.53,1.95,8.36,6.2,8.36s6.13-3.03,6.13-8.42v-21.09c0-5.19-2.02-8.36-6.13-8.36Z"></path><path class="cls-1" d="m58.09,118.94v162.12h483.81V118.94H58.09Zm162.53,27.39h19.95v5.66h-12.81v15.9h10.38v5.53h-10.38l-.06,21.1h-7.08v-48.18Zm-46.47,0h8.15l10.58,31.74v-31.74h6.27v48.18h-7.08l-11.59-35.18v35.18h-6.33v-48.18Zm-26.2,0h10.51l8.16,48.18h-7.21l-1.76-11.26h-9.57l-1.68,11.26h-6.67l8.22-48.18Zm-36.01,96.52c0,9.03-4.92,12.13-14.09,12.13h-14.35v-48.18h14.15c9.1,0,13.28,3.57,13.28,10.85v3.37c0,5.12-2.96,7.68-7.35,8.69,5.12,1.01,8.36,3.98,8.36,10.04v3.1Zm-2.04-60.33v-1.55h6.88v1.68c0,4.92,1.62,6.88,5.25,6.88,3.03,0,4.71-2.02,4.71-6.2v-.74c0-5.19-2.36-7.01-7.27-10.58-5.8-4.11-8.96-7.54-8.96-14.75v-.2c0-7.21,4.24-11.32,11.19-11.32s11.26,3.64,11.32,11.39v1.62h-6.74v-1.68c0-4.31-1.82-5.66-4.58-5.66s-4.38,1.68-4.38,5.19v.2c0,4.31,1.68,6.07,6.4,9.5,6.06,4.24,9.97,7.21,9.97,15.63v.94c0,8.36-4.51,12.33-11.66,12.33-7.62,0-12.06-4.11-12.13-12.67Zm38.68,59.38c0,9.64-5.39,13.88-14.62,13.88s-14.48-4.38-14.48-13.95v-35.04h11.45v34.84c0,3.57.74,4.85,3.1,4.85,2.23,0,3.1-1.28,3.1-4.92v-34.77h11.45v35.11Zm35.09.47c0,8.83-4.92,13.41-13.95,13.41-8.42,0-13.95-3.7-14.02-13.74v-1.62h11.12v2.02c0,3.57.88,4.58,2.9,4.58,1.89,0,2.63-1.15,2.63-3.77v-.54c0-3.71-2.56-5.12-6.34-7.62-6.6-4.24-9.84-8.09-9.84-15.97v-.33c0-8.29,4.85-12.67,13.55-12.67s13.34,4.05,13.41,12.8v1.55h-10.78v-1.76c0-3.1-1.08-3.84-2.63-3.84s-2.36.94-2.36,3.31v.26c0,3.1,1.56,4.11,5.6,6.81,5.46,3.57,10.71,6.67,10.71,16.18v.94Zm19.39,12.6h-11.59v-48.19h11.59v48.19Zm38.27,0h-10.78l-8.83-28.17v28.17h-9.91v-48.18h12.2l7.34,23.72v-23.72h9.98v48.18Zm31.65,0h-23.12v-48.18h22.51v8.96h-11.06v9.71h8.69v8.49h-8.69v12.06h11.66v8.96Zm-7.02-60.47l-6.81-21.63h-3.3v21.63h-7.14v-48.18h11.12c8.49,0,12.54,3.57,12.54,11.25v4.25c0,5.99-2.29,8.76-6.34,10.11l7.55,22.57h-7.62Zm21.61-48.18h10.51l8.16,48.18h-7.21l-1.76-11.26h-9.57l-1.68,11.26h-6.67l8.22-48.18Zm19.88,96.04c0,8.83-4.91,13.41-13.94,13.41-8.42,0-13.95-3.7-14.02-13.74v-1.62h11.12v2.02c0,3.57.88,4.58,2.9,4.58,1.88,0,2.62-1.15,2.62-3.77v-.54c0-3.71-2.56-5.12-6.33-7.62-6.61-4.24-9.84-8.09-9.84-15.97v-.33c0-8.29,4.85-12.67,13.55-12.67s13.34,4.05,13.41,12.8v1.55h-10.79v-1.76c0-3.1-1.07-3.84-2.62-3.84s-2.36.94-2.36,3.31v.26c0,3.1,1.55,4.11,5.59,6.81,5.46,3.57,10.72,6.67,10.72,16.18v.94Zm6.31-96.04h8.16l10.57,31.74v-31.74h6.27v48.18h-7.08l-11.59-35.18v35.18h-6.33v-48.18Zm28.03,96.04c0,8.83-4.92,13.41-13.95,13.41-8.42,0-13.94-3.7-14.01-13.74v-1.62h11.12v2.02c0,3.57.87,4.58,2.89,4.58,1.89,0,2.63-1.15,2.63-3.77v-.54c0-3.71-2.56-5.12-6.33-7.62-6.61-4.24-9.84-8.09-9.84-15.97v-.33c0-8.29,4.85-12.67,13.54-12.67s13.35,4.05,13.41,12.8v1.55h-10.78v-1.76c0-3.1-1.08-3.84-2.63-3.84s-2.35.94-2.35,3.31v.26c0,3.1,1.55,4.11,5.6,6.81,5.45,3.57,10.71,6.67,10.71,16.18v.94Zm6.05-61.54v-20.75c0-9.43,5.45-14.35,13.14-14.35,7.21,0,12.4,3.37,12.47,12.54v.81h-7.01v-.88c-.07-4.85-1.89-6.73-5.39-6.73-3.91,0-5.93,2.76-5.93,8.49v20.89c0,5.6,1.75,8.49,5.99,8.49,3.44,0,5.8-2.02,5.8-7.15v-1.41h6.74v1.48c-.07,9.23-5.13,12.94-12.47,12.94-8.43,0-13.34-4.99-13.34-14.35Zm38.61,34.93h-7.62l-.07,39.21h-11.46v-39.21h-7.54v-8.96h26.68v8.96Zm2.88-21.24h-7.21v-48.18h7.21v48.18Zm16.11,60.46h-11.59v-48.19h11.59v48.19Zm-7.55-72.46v-1.55h6.87v1.68c0,4.92,1.62,6.88,5.25,6.88,3.03,0,4.72-2.02,4.72-6.2v-.74c0-5.19-2.36-7.01-7.28-10.58-5.8-4.11-8.96-7.54-8.96-14.75v-.2c0-7.21,4.24-11.32,11.18-11.32s11.26,3.64,11.32,11.39v1.62h-6.74v-1.68c0-4.31-1.82-5.66-4.58-5.66s-4.37,1.68-4.37,5.19v.2c0,4.31,1.68,6.07,6.39,9.5,6.07,4.24,9.97,7.21,9.97,15.63v.94c0,8.36-4.51,12.33-11.66,12.33-7.62,0-12.06-4.11-12.13-12.67Zm52.48,72.46h-11.04v-28.57l-6,28.57h-3.51l-6.07-28.57v28.57h-9.56v-48.18h13.88l4.11,22.37,4.04-22.37h14.15v48.18Zm5.05-72.73c-.07,9.23-5.13,12.94-12.47,12.94-8.42,0-13.34-4.99-13.34-14.35v-20.75c0-9.43,5.45-14.35,13.14-14.35,7.21,0,12.4,3.37,12.47,12.54v.81h-7.01v-.88c-.07-4.85-1.89-6.73-5.39-6.73-3.91,0-5.93,2.76-5.93,8.49v20.89c0,5.6,1.75,8.49,5.99,8.49,3.44,0,5.8-2.02,5.8-7.15v-1.41h6.74v1.48Zm26.6,72.73h-23.12v-48.18h22.51v8.96h-11.05v9.71h8.69v8.49h-8.69v12.06h11.66v8.96Zm-5.33-59.79c-8.16,0-13.41-4.86-13.41-14.16v-21.16c0-9.37,5.39-14.15,13.41-14.15s13.41,4.71,13.41,14.09v21.02c0,9.44-5.26,14.36-13.41,14.36Zm39.81,47.18c0,8.83-4.92,13.41-13.95,13.41-8.42,0-13.94-3.7-14.01-13.74v-1.62h11.12v2.02c0,3.57.87,4.58,2.89,4.58,1.89,0,2.63-1.15,2.63-3.77v-.54c0-3.71-2.56-5.12-6.33-7.62-6.61-4.24-9.84-8.09-9.84-15.97v-.33c0-8.29,4.85-12.67,13.54-12.67s13.35,4.05,13.41,12.8v1.55h-10.78v-1.76c0-3.1-1.08-3.84-2.63-3.84s-2.35.94-2.35,3.31v.26c0,3.1,1.55,4.11,5.6,6.81,5.45,3.57,10.71,6.67,10.71,16.18v.94Z"></path></svg> 