<?xml version="1.0" encoding="UTF-8"?> <svg xmlns="http://www.w3.org/2000/svg" id="Layer_1" width="600" height="400" viewBox="0 0 600 400"><defs><style>.cls-1{fill:#fff;}</style></defs><path class="cls-1" d="m286.37,181.2c0,11.07-1.11,45.34-1.11,45.34,0,6.63,2.22,9.59,8.49,9.59v2.95h-24.7v-2.97c6.26,0,9.59-2.94,9.59-9.59l2.22-56.03c-1.85-4.41-3.69-5.9-8.49-6.26v-2.58h18.8l19.9,52.35,20.28-52.35h16.95v2.58c-4.79,0-7.37,2.22-7.37,7.37l2.22,54.19c0,8.1,1.46,10.32,8.1,10.32v2.95h-28.39v-2.95c5.53,0,8.11-1.83,7.75-10.32,0,0-1.1-37.97-1.48-44.6l-13.65,37.61c-1.84,4.79-3.68,10.32-5.16,16.22l-4.43.36c-1.1-4.06-4.06-11.43-4.06-11.43,0,0-11.4-32.07-15.46-42.76h0Z"></path><path class="cls-1" d="m263.14,239.45c-1.48-.36-2.94-.36-4.43-.36-2.94,0-8.11,1.46-14.37,1.46-23.96,0-41.66-14.37-41.66-40.92,0-22.48,16.59-39.82,42.02-39.82,5.9,0,12.53,1.11,18.06,3.33,1.1-1.11,1.48-1.84,2.58-2.95h2.22c-.36,4.06-1.84,17.34-1.84,17.34h-2.22c-1.48-7.75-5.52-12.91-18.43-12.91-15.49,0-29.49,12.17-29.49,34.66,0,25.44,14.37,36.49,30.23,36.49,10.33,0,16.59-5.9,20.64-13.27l2.58,1.1-5.9,15.85h0Z"></path><path class="cls-1" d="m193.47,176.03h-2.58c-.36-7.01-2.58-9.21-8.11-9.21h-10.69v57.89c0,9.59,1.84,11.42,8.11,11.42v2.95h-27.64v-2.95c6.26,0,8.11-1.83,8.11-11.79v-57.51h-10.7c-7.01,0-8.11,1.84-9.95,9.21h-2.59l1.84-16.59,1.84.36c.74,1.84,2.22,1.84,6.63,1.84h35.75c6.63,0,8.11,0,9.59-2.22h2.22l-1.83,16.6h0Z"></path><path class="cls-1" d="m115.32,240.91c-5.17,0-9.21-.74-12.17-1.83-2.94-.75-5.16-1.84-6.26-2.59-1.48,1.48-2.59,3.32-2.59,3.32l-2.22-.73,1.84-17.34,2.58.36c1.48,8.11,7.01,14.01,18.43,14.01,8.85,0,14.75-7.37,14.75-15.47,0-6.63-2.58-9.95-11.43-16.59-2.93-1.85-5.51-3.33-7.72-5.16-8.11-5.17-13.28-11.07-13.28-20.66,0-11.07,9.21-18.44,21.38-18.44,7.01,0,11.43,2.22,12.91,2.94l2.59-2.94,1.84.36-1.84,15.86-2.59-.36c0-7.37-4.42-10.69-11.79-10.69s-12.17,3.69-12.17,10.69c0,6.26,4.79,10.32,10.33,14.01,2.94,1.84,5.16,3.32,7.37,4.79,12.91,9.21,15.85,15.11,15.85,23.96,0,12.89-9.95,22.48-25.8,22.48h0Z"></path><path class="cls-1" d="m73.28,176.03h-2.94c0-6.63-2.95-9.21-8.85-9.21h-16.59v29.12h10.69c5.53,0,6.63-2.94,7.37-7.74h2.58v20.64h-2.58c-.74-5.52-1.84-7.74-7.74-7.74h-10.33v24.7c0,9.21,2.22,10.32,8.11,10.32v2.95h-28.02v-2.95c7,0,8.1-1.83,8.1-10.32v-54.19c0-5.16-2.22-7.37-8.1-7.37v-2.58h38.33c6.63,0,8.1-.36,9.21-2.58h2.58l-1.84,16.95h0Z"></path><path class="cls-1" d="m471.06,180.46v44.24c0,9.59,2.22,11.42,8.11,11.42v2.95h-43.5v-2.95c3.32,0,6.26-1.1,6.26-3.32,0-1.48-.36-4.06-1.1-6.63l-3.33-10.69h-24.32c-.36,1.46-4.79,13.63-4.79,16.95,0,2.94,3.32,3.68,5.53,3.68v2.95h-20.28v-2.94c3.68,0,6.63-.36,9.21-8.1l18.8-60.09c-1.09-2.59-2.57-3.33-5.15-3.69v-2.58h16.59l19.9,63.04c1.84,6.62,3.68,9.95,6.63,11.42,4.42-1.46,5.52-2.94,5.52-11.42v-53.09c-3.32-4.43-3.68-7.37-9.95-7.37v-2.58h18.8l30.97,52.72v-40.18c0-8.1-1.84-9.95-8.11-9.95v-2.58h41.29v2.58c-2.58,0-4.79,1.1-4.79,3.69,0,1.83.74,3.68,1.46,5.9l11.79,25.44,11.43-24.71c1.84-3.32,2.22-5.16,2.22-7,0-2.22-1.48-3.32-4.79-3.32v-2.58h19.54v2.58c-4.79,0-7.74,4.43-9.95,9.59l-15.11,30.97v20.28c0,8.84,2.22,11.05,8.1,11.05v2.95h-28.02v-2.97c5.91,0,8.11-2.22,8.11-11.05v-17.33l-16.22-34.28c-2.94-6.63-4.06-8.11-5.9-9.21-3.68,1.48-4.79,4.06-4.79,9.95v56.77s.36,4.43.74,9.59l-4.79.36-36.1-60.46h0Zm-46.08-3.69l-10.32,33.55h21.38l-11.07-33.55h0Z"></path><path class="cls-1" d="m379.27,210.32h-5.53v15.86c0,8.11,2.22,9.95,8.48,9.95v2.95h-28.39v-2.97c5.91,0,8.11-2.22,8.11-10.32v-51.98c0-8.1-2.2-9.59-8.11-9.59v-2.58h21.38c20.64,0,32.81,6.27,32.81,23.22.01,17.7-14.73,25.44-28.74,25.44h0Zm-3.69-43.5h-1.84v37.97h3.32c12.17,0,18.44-5.52,18.44-19.54s-5.55-18.43-19.92-18.43h0Z"></path><path class="cls-1" d="m250.61,224.32c-14.01,0-23.58-9.95-23.58-24.32s9.95-24.32,23.58-24.32,23.22,10.32,23.22,24.32c0,13.63-10.32,24.32-23.22,24.32h0Zm0-44.23c-9.59,0-12.91,9.21-12.91,19.9,0,9.95,2.95,19.92,12.91,19.92s12.53-9.96,12.53-20.28c0-9.96-3.68-19.54-12.53-19.54h0Z"></path><path class="cls-1" d="m88.41,219.9v-2.59c3.68,0,4.42-1.1,4.42-2.2,0-1.48-.36-2.59-.74-3.69,0,0-.74-2.94-1.48-5.16h-14.37l-1.46,4.79c-.38,1.1-.74,2.22-.74,3.68s1.48,2.58,3.68,2.58v2.59h-14.38v-2.59c3.68,0,5.16-1.1,6.63-5.16l11.07-33.17c-.38-1.46-1.48-2.58-3.68-2.58v-2.58h11.79c9.59,28.02,12.17,35.39,12.17,35.39,1.84,6.27,3.68,8.1,6.63,8.1v2.59h-19.54Zm-5.17-35.77l-5.52,18.06h11.43l-5.91-18.06h0Z"></path></svg> 