<?xml version="1.0" encoding="UTF-8"?> <svg xmlns="http://www.w3.org/2000/svg" id="Layer_1" width="600" height="400" viewBox="0 0 600 400"><defs><style>.cls-1{fill:#fff;}</style></defs><path class="cls-1" d="m111.31,163.24s26.23.57,39.42,1.02c2.08.19,4.1.72,6.01,1.57,14.7,5.74,14.56,23.92,5.04,30.61-.64.46-1.22.96-2.11,1.73,1.54.9,2.8,1.73,4.14,2.41,11.19,5.67,11.69,24.39.37,31.26-3.77,2.44-8.11,3.84-12.6,4.05-13.52.25-40.54.1-40.54.1l.27-72.75Zm15.24,43.3v15.19c7.74,0,15.17.05,22.62,0,1.11-.09,2.18-.41,3.15-.96,2.53-1.19,4.05-3.82,3.83-6.6.1-2.63-1.41-5.05-3.83-6.1-1.56-.79-3.27-1.26-5.01-1.39-6.82-.23-13.62-.14-20.75-.14Zm-.12-13.5h11.93c1.43.07,2.87.01,4.29-.18,2.15-.43,4.49-.75,6.31-1.84,3.17-1.84,4.25-5.9,2.42-9.07-.65-1.13-1.62-2.04-2.79-2.62-.97-.55-2.03-.92-3.13-1.09-6.29-.96-12.58-.39-19.03-.47v15.27Z"></path><path class="cls-1" d="m306.03,163.8s2.74-.25,3.97-.26c9.71,0,19.43-.06,29.14,0,5.28-.11,10.52.99,15.31,3.22,7.53,3.73,11.39,9.98,12.05,18.18.91,11.24-3.08,19.93-13.72,24.87-.46.28-.89.6-1.29.96l17.17,25.23h-18.95l-15.23-22.58h-12.44v22.63h-16.01v-72.26Zm16.26,34.92c6.35,0,12.22.23,18.05-.08,3.97-.21,7.35-2.06,9.05-5.98,2.76-6.37-.7-13.02-7.71-13.89-5.33-.66-10.77-.4-16.17-.48-1.09.09-2.17.27-3.22.55v19.88Z"></path><path class="cls-1" d="m25,199.98c0-21.39,16.65-37.54,38.68-37.55s38.76,16.26,38.65,37.59-16.85,37.53-38.82,37.56-38.52-16.01-38.51-37.6Zm17.01-2.47c-.34,13.94,7.77,23.73,19.31,25.06,11.23,1.31,21.14-6.02,23.47-17.77,1.81-9.16-.81-17.16-8.27-22.96-6.7-5.25-14.35-5.88-22.07-2.44-7.33,3.09-12.19,10.16-12.45,18.11Z"></path><path class="cls-1" d="m540.62,213.36h-12.44v22.65h-15.8v-71.99c1.02-.22,2.06-.37,3.11-.44,10.2,0,20.4-.08,30.61,0,4.63-.03,9.23.9,13.49,2.72,8.7,3.83,13.68,11.23,13.28,22.75-.33,9.34-4.64,16.39-13.3,20.47-.66.37-1.3.78-1.91,1.22l17.34,25.48c-6.4,0-12.09.13-17.77-.12-1.06,0-2.28-1.54-3.03-2.63-3.64-5.23-7.12-10.52-10.67-15.85-.97-1.46-1.97-2.89-2.92-4.26Zm-12.2-14.61c6.14,0,11.84.07,17.55,0,1.43-.08,2.83-.4,4.14-.96,4.48-1.73,6.57-5.25,6.2-10.12-.35-4.71-3.11-8.07-7.87-8.86-6.57-1.08-13.19-.43-20.01-.49v20.42Z"></path><polygon class="cls-1" points="296.34 206.87 258.26 206.87 258.28 221.78 296.36 221.78 296.36 236 242.41 236 242.21 163.81 296.27 163.81 296.77 177.81 258.55 177.81 258.26 192.29 296.34 192.66 296.34 206.87"></polygon><polygon class="cls-1" points="464.02 221.9 502.11 221.9 502.11 235.53 447.63 235.83 447.63 163.75 502.08 163.75 502.08 177.77 463.99 177.89 463.99 192.44 502.1 192.44 502.1 207 464.02 207 464.02 221.9"></polygon><path class="cls-1" d="m175.54,225.79l9.5-11.39c1.51,1.01,2.87,1.91,4.31,2.87,5.97,4.07,12.44,6.28,19.78,5.55.95-.06,1.89-.23,2.81-.49,2.75-.9,4.78-2.53,5.24-5.59.36-2.56-1-4.78-4.25-6.23-2.87-1.27-5.99-2.13-9-3.12-4.53-1.48-9.17-2.68-13.59-4.43-7.78-3.07-11.6-9.08-11.79-17.4-.18-8.32,3.05-14.84,10.32-19.18,4.88-2.76,10.45-4.09,16.05-3.83,8.5.04,16.79,2.64,23.79,7.46.53.35,1.03.74,1.5,1.17.26.38.46.79.61,1.22l-7.89,11.42c-3.4-1.76-6.24-3.61-9.34-4.73-3.15-1.06-6.41-1.76-9.72-2.1-1.75-.09-3.49.21-5.11.86-2.24.61-3.86,2.56-4.05,4.88-.19,2.54.78,4.78,3.29,5.84,3.23,1.32,6.57,2.39,9.88,3.49,4.23,1.4,8.61,2.42,12.69,4.15,9.03,3.83,13.13,10.26,12.79,19.29-.36,9.57-5.37,16.99-14.53,19.76-15.85,4.85-30.08,1.16-43.32-9.48Z"></path><path class="cls-1" d="m411.92,236.73h-14.1c-9.74-24.14-19.49-48.41-29.35-72.99h17.87c6.18,16.6,12.33,33.11,18.83,50.53l18.79-50.45h16.65c-.33,3.67-22.9,61.06-28.68,72.92Z"></path></svg> 