<?xml version="1.0" encoding="UTF-8"?> <svg xmlns="http://www.w3.org/2000/svg" id="Layer_1" width="600" height="400" viewBox="0 0 600 400"><defs><style>.cls-1{fill:#fff;}</style></defs><g><path class="cls-1" d="m529.35,131.13c-.92,6.04-5.7,10.77-11.41,10.77-4.38,0-6.32-2.12-8.46-4.73l-.4.2v21.63c0,6.95,3.77,10.47,12.53,12.18l5.81-5.74,1.22,1.21-13.55,13.08c-12.74-1.92-18.45-9.36-18.45-18.62v-15.4c0-1.7-.1-2.72-.81-3.62,7.03-3.02,17.02-9.06,22.93-13.98,1.11,1.51,3.36,3.42,5.91,3.42,1.29,0,2.71-.38,3.77-1.01.58-.34,1.01-.03.91.61Z"></path><polygon class="cls-1" points="445.27 114.03 437.94 121.37 430.3 114.43 437.73 106.78 445.27 114.03"></polygon><path class="cls-1" d="m455.46,169.17l-10.8,10.57c-5.5-1.92-9.68-5.71-9.68-11.98v-24.65c0-2.87-1.14-4.89-3.77-6.24l-3.67,3.62-1.12-1.11,11.52-11.37c7.44,3.94,9.48,8.38,9.48,13.48v24.35c0,2.59,1.13,4.23,3.78,5.23l3.05-3.12,1.22,1.21Z"></path><path class="cls-1" d="m427.95,131.13c-.91,6.04-5.7,10.77-11.41,10.77-4.38,0-6.32-2.12-8.46-4.73l-.4.2v21.63c0,6.95,3.77,10.47,12.53,12.18l5.82-5.74,1.22,1.21-13.56,13.08c-12.74-1.92-18.45-9.36-18.45-18.62v-15.4c0-1.7-.1-2.72-.82-3.62,7.03-3.02,17.02-9.06,22.93-13.98,1.12,1.51,3.37,3.42,5.91,3.42,1.29,0,2.71-.38,3.77-1.01.58-.34,1.01-.03.91.61Z"></path><path class="cls-1" d="m393.5,169.57l-10.39,10.17c-5.71-2.11-9.98-5.88-9.98-11.88v-20.83c0-6.34-.92-8.75-6.22-10.97l-5.1,4.93v25.36c0,3.1,1.43,4.42,4.29,5.53l-7.96,7.85c-6.42-2.52-8.76-6.14-8.76-12.48v-24.66c0-3.72-1.02-4.93-3.77-5.93l-2.75,2.72-1.22-1.11,10.29-10.26c6.62,1.61,9.58,5.93,9.78,10.77l11.01-10.77c8.45,1.91,12.84,6.34,12.84,14.99v24.05c0,2.51,1.33,3.83,3.56,4.43l3.06-3.12,1.32,1.2Z"></path><path class="cls-1" d="m307.09,131.03c-1.53,6.24-5.5,10.36-11.52,10.36-3.54,0-6.01-1.61-7.75-3.42l-.3.2v25.96c0,3.62.51,5.43,5.81,6.95l3.16-3.22,1.22,1.21-10.9,10.67c-8.77-2.42-11.72-7-11.72-13.99v-21.64c0-3.83-.92-6.04-3.57-6.74l-3.26,3.22-1.22-1.21,11.52-11.37c5,.91,8.26,5.23,8.45,9.06l9.48-9.06c1.22,1.81,3.57,3.72,5.71,3.72,1.33,0,2.75-.4,3.77-1.21.58-.45,1.26-.02,1.13.51Z"></path><path class="cls-1" d="m244.31,103.86c-2.61,5.4-7.07,9.36-14.88,9.36-4.28,0-12.11-2.92-15.19-2.92-4.89,0-7.03,1.49-7.03,4.33,0,.98.71,1.76,1.74,2.02.91.23,1.63.77,1.63,1.41,0,.8-.51,1.31-1.42,1.31-2.24,0-4.38-2.51-4.38-6.85,0-7.24,6.32-12.47,13.86-12.47,5.84,0,13.66,5.13,17.63,5.13,3.06,0,5.2-.81,7.44-2.42.76-.54,1.05.19.61,1.11Z"></path><path class="cls-1" d="m189.79,169.57l-10.39,10.17c-5.71-2.11-9.99-5.88-9.99-11.88v-20.83c0-6.34-.92-8.75-6.22-10.97l-5.1,4.93v25.36c0,3.1,1.43,4.42,4.28,5.53l-7.95,7.85c-6.42-2.52-8.76-6.14-8.76-12.48v-24.66c0-3.72-1.02-4.93-3.77-5.93l-2.75,2.72-1.22-1.11,10.29-10.26c6.62,1.61,9.58,5.93,9.78,10.77l11.01-10.77c8.46,1.91,12.84,6.34,12.84,14.99v24.05c0,2.51,1.33,3.83,3.57,4.43l3.05-3.12,1.32,1.21Z"></path><path class="cls-1" d="m568.99,166.25c-6.43,2.9-16.64,8.68-23.95,13.49-8.35-1.92-13.85-7.04-13.85-15.5v-18.62c0-1.84-.21-2.91-.82-3.72,6.73-2.92,18.55-9.6,24.15-13.49,8.05,1.81,13.75,7.24,13.75,15.09v18.21c0,2.32.29,3.63.72,4.53Zm-13.15,5.94v-25.46c0-6.54-4.48-10.06-11.72-10.97l-.5.21v25.05c0,7.75,4.48,10.26,11.62,11.47l.61-.3Z"></path><path class="cls-1" d="m491.34,130.63s-5.13,8-12.02,17.31c6.11,1.51,10.29,4.64,10.29,10.37v7.35c0,.73.32,2.52.92,3.42-4.99,1.85-14.22,6.55-20.07,10.67-2.04-1.92-3.77-2.72-6.62-2.72-5,0-9.18,2.72-9.18,6.75,0,.75.63,1.41,1.33,1.71.75.33,1.32.9,1.32,1.51,0,1-.91,1.61-1.62,1.61-2.14,0-2.86-2.32-2.86-5.03,0-4.53,3.9-8.41,7.95-13.79,0,0,6.05-8.12,7.44-9.86-8.05-2.72-12.43-5.66-12.43-11.57v-4.13c0-1.75-.1-3.22-.82-4.53,5.3-1.71,15.49-8.05,20.58-11.57,1.46,2.06,4.7,3.72,6.93,3.72,3.16,0,5.71-.91,8.15-2.21.74-.4,1.42-.02.71,1Zm-6.42,6.34l-.2-.2c-2.45,1.97-5.24,3.52-8.05,3.52-4.26,0-6.12-1.91-8.15-4.53l-.41.1v8.76c0,3.58,1.74,4.62,6.73,6.24,3.8-4.92,10.09-13.89,10.09-13.89Zm-7.75,34.72v-8.76c0-4.13-1.12-5.13-4.38-6.14-3.46,4.63-10.39,13.99-10.39,13.99l.2.11c2.55-1.71,5.3-2.22,7.24-2.22,2.75,0,5.5,1.31,7.03,3.22l.3-.2Z"></path><path class="cls-1" d="m344.38,169.98l-9.89,9.76c-3.97-1.21-8.76-4.23-9.68-9.46h-.2l-12.73,9.46c-5.81-1.71-9.58-7.25-9.58-12.98,0-9.56,10.09-14.79,22.22-16.61v-3.32c0-5.64-2.15-9.55-12.43-9.76l-3.37,3.22-1.22-1.11,11.31-11.17c9.88,0,18.14,6.34,18.14,16v22.54c0,3.49,1.63,4.53,3.26,5.14l2.95-2.82,1.23,1.11Zm-19.87-1.31v-16.9c-6.32,1.91-10.29,5.43-10.29,11.47,0,5.13,1.93,7.45,5.4,8.86l4.89-3.42Z"></path><path class="cls-1" d="m279.06,107.48c-1.43,5.13-5.78,10.67-12.84,10.67-2.17,0-4.04-.41-6.01-1.31v14.39h8.15l-4.69,9.96h-3.46v38.54c0,.45-.51.7-.92.7s-.92-.22-.92-.7v-38.54h-6.11v13.79c0,14.26-6.39,17.53-22.12,27.67-4.6-3.8-8.29-6.84-16.1-6.84-11.64,0-15.7,3.9-15.7,9.06,0,3.44,1.58,4.27,2.86,4.83.71.32,1.42.79,1.42,1.61,0,.91-.61,1.41-1.53,1.41-2.65,0-4.89-3.1-4.89-9.86,0-9.97,8.12-18.42,22.32-18.42,9.75,0,15.24,3.46,20.18,8.55v-55.24l-3.97,1.81v24.96c0,8.24-2.53,14.15-16.51,18.51-.64.2-1.22-.31-.51-.81,4.01-2.83,5.2-4.28,5.2-10.67v-10.37h-2.24c-5.05,0-5.64,1.77-6.01,4.03-.04.25-.41.49-.92,0-.95-.91-2.04-2.83-2.04-5.43,0-6.15,3.63-8.55,9.58-8.55h1.63v-1.81c0-3.02-.35-4.93-1.12-6.44,13.37-4.76,28.72-11.62,41.88-21.13,1.89,2.12,4.67,5.33,10.7,5.33,1.33,0,2.65-.2,3.67-.7.86-.42,1.3,0,1.02,1Zm-20.69,23.75v-15.1c-2.59-1.46-4.48-3.54-5.5-5.84l-.61.4v20.53h6.11Z"></path><path class="cls-1" d="m140.67,169.98l-9.88,9.76c-3.98-1.21-8.77-4.23-9.68-9.46h-.2l-12.74,9.46c-5.81-1.71-9.58-7.25-9.58-12.98,0-9.56,10.09-14.79,22.21-16.61v-3.32c0-5.64-2.14-9.55-12.43-9.76l-3.36,3.22-1.22-1.11,11.31-11.17c9.89,0,18.14,6.34,18.14,16v22.54c0,3.49,1.63,4.53,3.26,5.14l2.96-2.82,1.22,1.11Zm-19.87-1.31v-16.9c-6.31,1.91-10.29,5.43-10.29,11.47,0,5.13,1.94,7.45,5.4,8.86l4.89-3.42Z"></path><path class="cls-1" d="m99.6,146.43c0,8.89-6.97,16.02-14.17,23.95-3.65,4.03-7.46,8.14-11.01,12.08-4.91-4.83-12.09-8.05-20.28-8.05-13.14,0-20.08,4.44-20.08,10.26,0,2.82.91,4.17,2.04,4.63,1.24.5,2.24.97,2.24,2.11,0,.96-.81,1.31-1.63,1.31-2.65,0-4.79-3.91-4.79-9.46,0-10.31,8.1-20.83,26.29-20.83,10.85,0,17.97,3.46,23.85,8.55,2.85-3.29,8.66-10.42,8.66-17.11,0-10.42-7.04-14.15-17.33-16.1l-4.79-.91-1.53,2.11,4.99,1.01c9.67,1.94,15.7,5.31,15.7,13.58,0,5.23-2.14,8.95-4.28,11.47.07-.74.1-1.42.1-2.12,0-5.99-4.15-10.62-17.43-13.38l-5.81-1.21c-5.5,7.04-8.43,9.36-12.33,9.36-2.25,0-3.26-.8-3.26-1.81,0-1.11.91-1.72,2.14-1.72,1.12,0,1.74,1.42,2.86,1.42,2.04,0,4.58-2.52,8.76-7.65l-4.08-.9c-10.12-2.25-14.98-6.14-14.98-12.37,0-3.92,1.63-6.09,3.06-6.84,2.25,5.1,7.49,7.59,17.73,9.66l4.99,1.01,1.53-2.11-4.89-1.01c-14.52-2.99-18.85-7.26-18.85-16.1,0-9.96,8.56-18.31,22.42-18.31,8.77,0,15.41,2.6,21.5,6.74l2.75-3.42c.28-.35.62-.4.92-.4.41,0,.79.22.82.6.01.16.04.33-.1.5-5.15,6.56-11.77,15.24-15.19,20.83,14.58,2.51,23.44,7.44,23.44,20.62Zm-19.67-29.38c-4.38-5.08-12.29-12.08-22.12-12.08-5.87,0-9.37,2.78-9.37,7.95,0,4.06,3.97,8.01,14.68,10.16l11.01,2.21c1.71-2.35,5.8-8.25,5.8-8.25Z"></path></g><g><path class="cls-1" d="m444.5,276.16l-10.9,10.77c-5.6-1.92-9.79-5.51-9.79-11.98v-49.91c0-2.86-1.13-4.89-3.77-6.24l-3.67,3.52-1.12-1.1,11.52-11.27c7.84,3.02,9.47,8.38,9.47,13.49v49.61c0,2.59,1.02,4.23,3.67,5.23l3.36-3.22,1.22,1.11Z"></path><polygon class="cls-1" points="376.22 221.22 368.89 228.57 361.24 221.62 368.68 213.98 376.22 221.22"></polygon><path class="cls-1" d="m420.14,238.33c-.92,6.04-5.71,10.77-11.41,10.77-4.38,0-6.32-2.11-8.46-4.73l-.41.2v21.63c0,6.95,3.77,10.47,12.54,12.18l5.81-5.74,1.22,1.21-13.55,13.08c-12.74-1.92-18.45-9.36-18.45-18.62v-15.4c0-1.7-.1-2.72-.82-3.62,7.03-3.02,17.02-9.06,22.93-13.98,1.12,1.51,3.36,3.42,5.91,3.42,1.29,0,2.71-.38,3.77-1.01.58-.34,1.01-.03.91.61Z"></path><path class="cls-1" d="m386.31,276.36l-10.8,10.57c-5.5-1.92-9.68-5.71-9.68-11.98v-24.65c0-2.87-1.13-4.89-3.77-6.24l-3.67,3.62-1.12-1.11,11.51-11.37c7.44,3.94,9.48,8.38,9.48,13.48v24.35c0,2.59,1.12,4.23,3.77,5.23l3.06-3.12,1.21,1.21Z"></path><path class="cls-1" d="m362.47,276.77l-10.39,10.17c-5.71-2.11-9.99-5.88-9.99-11.88v-20.83c0-6.34-.92-8.75-6.22-10.97l-5.1,4.93v25.36c0,3.1,1.43,4.42,4.28,5.53l-7.95,7.85c-6.42-2.52-8.76-6.14-8.76-12.48v-24.66c0-3.72-1.02-4.93-3.77-5.93l-2.75,2.72-1.23-1.11,10.3-10.26c6.62,1.61,9.58,5.93,9.78,10.77l11.01-10.77c8.45,1.91,12.83,6.34,12.83,14.99v24.05c0,2.51,1.33,3.83,3.57,4.43l3.06-3.12,1.33,1.2Z"></path><path class="cls-1" d="m272.38,238.23c-1.53,6.23-5.5,10.36-11.52,10.36-3.54,0-6-1.61-7.74-3.42l-.31.2v25.96c0,3.62.51,5.43,5.81,6.95l3.16-3.22,1.23,1.21-10.91,10.67c-8.76-2.42-11.72-7-11.72-13.99v-21.64c0-3.83-.92-6.04-3.56-6.74l-3.27,3.22-1.22-1.21,11.51-11.37c4.99.91,8.26,5.23,8.46,9.06l9.47-9.06c1.23,1.81,3.57,3.72,5.71,3.72,1.33,0,2.75-.4,3.77-1.21.57-.45,1.25-.02,1.12.51Z"></path><path class="cls-1" d="m229.78,270.23c0,15.9-8.05,23.14-19.16,29.49-1.03.59-2.04.09-.92-1.01,5.6-5.43,7.64-9.76,7.64-22.44v-22.74c0-5.74-1.42-8.55-6.31-10.16l-4.99,4.83v24.35c0,4.53,1.63,5.63,4.28,6.44l-7.95,7.95c-6.32-2.42-8.77-6.24-8.77-11.58v-50.31c0-2.86-.93-4.79-3.57-6.14l-2.95,2.92-1.23-1.21,10.91-10.66c7.33,3.02,9.17,8.38,9.17,13.49v22.54l11-10.77c8.15,1.51,12.84,6.84,12.84,13.88v21.13Z"></path><path class="cls-1" d="m478.54,252.52l-20.48,12.98v1.61c0,5.73,3.67,9.06,12.64,11.27l5.91-5.84,1.22,1.11-13.56,13.28c-11.62-3.22-18.65-7.24-18.65-18.31v-15.1c0-2.02-.2-3.32-.71-4.23,6.32-3.02,17.29-9.51,22.83-13.98,2.65,4.56,7.23,12.48,10.8,17.21Zm-11.41,5.43c-2.35-3.42-6.51-10.49-8.56-14.39l-.51.3v19.72l9.07-5.63Z"></path><path class="cls-1" d="m308.76,273.45c-6.43,2.9-16.63,8.68-23.95,13.49-8.35-1.92-13.86-7.04-13.86-15.5v-18.62c0-1.84-.21-2.91-.82-3.72,6.73-2.92,18.55-9.6,24.15-13.48,8.05,1.81,13.76,7.24,13.76,15.09v18.21c0,2.32.3,3.63.72,4.53Zm-13.15,5.94v-25.46c0-6.54-4.48-10.06-11.72-10.97l-.51.21v25.05c0,7.75,4.49,10.26,11.62,11.47l.61-.3Z"></path><path class="cls-1" d="m190.04,271.13c-5.04,10.14-14.94,18.31-30.06,18.31-21.31,0-39.13-12.17-39.13-37.83,0-19.58,12.39-31.85,27.81-37.13,1.07-.36,1.68.37.72,1.11-9.99,7.65-15.39,18.03-15.39,29.58s2.91,20.2,8.77,26.07c2.52-2.02,3.56-3.9,3.56-6.64v-32.19c0-2.73-.12-4.11-1.42-5.44,8.23-3.9,19.28-12.4,25.98-17.61,3.47,3.33,5.42,5.71,13.56,4.73,1.16-.14,1.28-.13.92.91-2.41,6.83-6.69,10.06-12.94,10.06-2.26,0-4.28-.69-6.31-1.91v55.95c8.69-.29,17.32-4.82,22.92-8.86.82-.58,1.39.19,1.03.9Zm-25.78,7.95v-56.95c-1.25-.95-2.34-2.11-3.16-3.42l-2.85,2.22v34.61c0,7.54-4.56,10.01-14.37,16.81,4.93,4.31,11.74,6.67,20.38,6.74Z"></path></g></svg> 