<?xml version="1.0" encoding="UTF-8"?> <svg xmlns="http://www.w3.org/2000/svg" id="Layer_1" width="600" height="400" viewBox="0 0 600 400"><defs><style>.cls-1{fill:#fff;fill-rule:evenodd;}</style></defs><g id="Logos-_For-Export_"><g id="newyork-logo"><path id="NEW-YORK" class="cls-1" d="m170.48,192.54h5.17v-43.68l14.69,43.68h5.94v-54.41h-5.1v40.41l-13.77-40.41h-6.92v54.41Zm37.02,0h21.84v-4.57h-16.13v-22.3h12.33v-4.57h-12.33v-18.41h15.14v-4.57h-20.85v54.41Zm37.24,0h5.63l7.46-38.35,7.08,38.35h5.63l7.99-54.41h-5.1l-5.86,42.46-7.99-42.46h-3.5l-7.84,42.31-5.78-42.31h-5.55l7.84,54.41Zm64.67,0h5.86v-23.67l10.35-30.74h-5.33l-7.91,23.82-8.07-23.82h-6.01l11.11,30.67v23.74Zm36.41.68c8.67,0,14.23-5.71,14.23-15.83v-24.35c0-9.97-5.55-15.6-14.23-15.6s-14.23,5.63-14.23,15.68v24.43c0,9.97,5.55,15.68,14.23,15.68h0Zm0-4.79c-5.78,0-8.45-3.88-8.45-10.96v-24.35c0-7.08,2.74-10.96,8.45-10.96s8.37,4.26,8.37,10.96v24.27c0,6.85-2.74,11.03-8.37,11.03h0Zm24.99,4.11h5.71v-25.49h4.79l8.75,25.49h6.24l-9.28-26.1c5.1-1.37,8.07-4.57,8.07-11.72v-4.49c0-8.37-4.72-12.1-13.16-12.1h-11.11v54.41Zm5.71-29.83v-20.09h5.48c4.95,0,7.31,1.98,7.31,7.61v4.49c0,5.63-2.05,7.99-7.23,7.99h-5.55Zm54.98,29.83l-14.69-28.99,14.08-25.42h-6.01l-13.62,25.64v-25.64h-5.71v54.41h5.71v-27.93l14.08,27.93h6.16ZM25,261.72h15.3c10.2,0,15.6-3.65,15.6-13.7v-3.5c0-6.92-3.58-10.27-9.36-11.41,4.95-1.14,8.14-4.11,8.14-9.82v-3.8c0-8.29-4.79-12.18-14.69-12.18h-14.99v54.41Zm11.49-8.29v-16.28h2.51c3.73,0,5.25,1.14,5.25,6.09v3.88c0,4.57-1.52,6.32-5.02,6.32h-2.74Zm0-24.12v-13.7h2.44c3.04,0,4.64.84,4.64,4.95v3.42c0,4.03-1.29,5.33-4.64,5.33h-2.44Zm47.21-21.99v39.57c0,4.57-1.22,6.16-4.11,6.16-3.12,0-4.19-1.6-4.19-6.09v-39.65h-11.72v39.87c0,10.58,5.71,15.37,15.83,15.37s15.98-4.72,15.98-15.3v-39.95h-11.79Zm34.43,55.24c9.66,0,15.07-4.95,15.07-14.84v-1.07c0-10.65-5.55-13.93-12.02-18.03-4.72-3.2-6.39-4.57-6.39-8.45v-.3c0-3.04,1.07-4.26,3.27-4.26,2.05,0,3.5.99,3.5,4.87v1.75h11.03v-1.6c-.08-9.59-5.33-14.08-14.53-14.08s-14.69,5.02-14.69,14.08v.3c0,8.98,3.73,13.01,10.81,17.5,4.87,3.2,7.53,4.72,7.53,9.59v.61c0,3.5-1.14,5.02-3.58,5.02-2.82,0-3.96-1.45-3.96-5.86v-2.13h-11.34v1.75c.08,10.88,6.01,15.14,15.3,15.14h0Zm23.32-.84h11.79v-54.41h-11.79v54.41Zm21.04,0h10.12v-33.79l10.81,33.79h11.11v-54.41h-10.2v29.07l-9.21-29.07h-12.63v54.41Zm41.05,0h25.42v-9.21h-13.7v-15.07h10.2v-8.75h-10.2v-12.18h12.94v-9.21h-24.65v54.41Zm47.29.84c9.66,0,15.07-4.95,15.07-14.84v-1.07c0-10.65-5.55-13.93-12.02-18.03-4.72-3.2-6.39-4.57-6.39-8.45v-.3c0-3.04,1.07-4.26,3.27-4.26,2.05,0,3.5.99,3.5,4.87v1.75h11.03v-1.6c-.08-9.59-5.33-14.08-14.53-14.08s-14.69,5.02-14.69,14.08v.3c0,8.98,3.73,13.01,10.81,17.5,4.87,3.2,7.53,4.72,7.53,9.59v.61c0,3.5-1.14,5.02-3.58,5.02-2.82,0-3.96-1.45-3.96-5.86v-2.13h-11.34v1.75c.08,10.88,6.01,15.14,15.3,15.14h0Zm36.94,0c9.66,0,15.07-4.95,15.07-14.84v-1.07c0-10.65-5.55-13.93-12.02-18.03-4.72-3.2-6.39-4.57-6.39-8.45v-.3c0-3.04,1.07-4.26,3.27-4.26,2.05,0,3.5.99,3.5,4.87v1.75h11.03v-1.6c-.08-9.59-5.33-14.08-14.53-14.08s-14.69,5.02-14.69,14.08v.3c0,8.98,3.73,13.01,10.81,17.5,4.87,3.2,7.53,4.72,7.53,9.59v.61c0,3.5-1.14,5.02-3.58,5.02-2.82,0-3.96-1.45-3.96-5.86v-2.13h-11.34v1.75c.08,10.88,6.01,15.14,15.3,15.14h0Zm40.02-.38c8.98,0,13.7-5.02,13.7-14.38v-40.48h-11.79v39.95c0,3.8-1.67,5.1-4.64,5.1-1.6,0-2.66-.23-3.58-.46v9.13c1.37.61,3.2,1.14,6.32,1.14h0Zm38.54.38c10.12,0,16.66-5.25,16.66-16.59v-23.13c0-11.41-6.77-16.28-16.66-16.28s-16.59,5.17-16.59,16.36v23.36c0,11.19,6.47,16.28,16.59,16.28h0Zm0-9.44c-3.2,0-4.64-1.98-4.64-6.92v-23.36c0-4.87,1.52-6.85,4.64-6.85s4.72,2.13,4.72,6.85v23.29c0,4.95-1.52,7-4.72,7h0Zm45.16-45.81v39.57c0,4.57-1.22,6.16-4.11,6.16-3.12,0-4.19-1.6-4.19-6.09v-39.65h-11.72v39.87c0,10.58,5.71,15.37,15.83,15.37s15.98-4.72,15.98-15.3v-39.95h-11.79Zm20.66,54.41h11.72v-22.68h2.13l6.01,22.68h12.18l-7.15-24.5c3.58-1.75,5.63-4.64,5.63-10.81v-5.55c0-9.06-4.26-13.54-15.68-13.54h-14.84v54.41Zm11.72-30.21v-15.22h2.74c3.27,0,4.64,1.29,4.64,4.95v5.02c0,3.88-1.45,5.25-4.64,5.25h-2.74Zm27.43,30.21h10.12v-33.79l10.81,33.79h11.11v-54.41h-10.2v29.07l-9.21-29.07h-12.63v54.41Zm61.06,0h11.87l-8.67-54.41h-16.82l-8.6,54.41h10.73l1.45-11.11h8.52l1.52,11.11Zm-5.78-43.98l3.2,24.73h-6.39l3.2-24.73Zm24.46,43.98h23.97v-9.36h-12.25v-45.05h-11.72v54.41Z"></path></g></g></svg> 