<?xml version="1.0" encoding="UTF-8"?> <svg xmlns="http://www.w3.org/2000/svg" id="Layer_1" width="600" height="400" viewBox="0 0 600 400"><defs><style>.cls-1{fill:#3c3382;}</style></defs><path class="cls-1" d="m256.05,268.03l71.74-122.4v-.87h-61.31c-2.25-.08-4.05-1.88-4.13-4.13v-12.61c.07-2.25,1.88-4.06,4.13-4.13h89.35c2.24.08,4.04,1.89,4.12,4.13v2.83l-71.94,124.34v.22h63.48c2.28,0,4.13,1.84,4.13,4.12,0,0,0,0,0,.01v12.39c0,2.28-1.84,4.13-4.12,4.13h-91.3c-2.25-.08-4.06-1.88-4.13-4.13v-3.92Z"></path><path class="cls-1" d="m425.19,202.81l-50.87-72.6c-1.74-2.82,0-6.3,3.48-6.3h16.09c1.74,0,2.82,1.1,3.48,1.96l39.35,55.42,39.35-55.43c.65-.86,1.96-1.96,3.48-1.96h16.3c3.48,0,5.22,3.48,3.48,6.3l-51.52,72.4v69.35c-.07,2.25-1.88,4.06-4.13,4.13h-14.35c-2.28,0-4.13-1.85-4.13-4.13h0v-69.14Z"></path><g><path class="cls-1" d="m189.92,134.18c0,4.38-1.9,8.31-4.9,11.06,26.13,4.22,45.94,26.56,46.57,53.47.01.09.03.18.03.28,0,.37.02.74.06,1.11v-.09h.02v.16s0,.05,0,.08c.27,2.29,1.28,4.41,2.93,6.06,1.95,1.96,4.55,3.04,7.31,3.05h.03c2.75,0,5.34-1.07,7.3-3.01,1.66-1.65,2.68-3.77,2.96-6.06,0-.02,0-.04,0-.06v-.21h-.03c0-38.52-28.61-70.33-65.73-75.39,2.15,2.6,3.45,5.93,3.45,9.56Z"></path><path class="cls-1" d="m110.27,186.2c4.38,0,8.32,1.9,11.07,4.91,4.24-26.28,26.8-46.19,53.93-46.6,5.54-.19,9.99-4.74,9.99-10.33s-4.02-9.69-9.17-10.28c-38.5,0-70.31,28.62-75.36,65.73,2.6-2.14,5.92-3.43,9.54-3.43Z"></path><path class="cls-1" d="m162.35,266.81c-.33-4.7,1.56-9.06,4.77-12.04-26.13-4.25-45.94-26.63-46.51-53.57,0-5.7-4.65-10.33-10.35-10.33-5.28,0-9.65,3.98-10.27,9.1,0,.01,0,.03,0,.04v.21c.11,38.46,28.75,70.2,65.88,75.19-2-2.36-3.3-5.33-3.53-8.6Z"></path><path class="cls-1" d="m241.96,214.02h-.04c-4.01-.01-7.77-1.58-10.6-4.42-.17-.17-.32-.35-.48-.53-4.31,26.28-26.96,46.18-54.19,46.45h-.74c-5.34.74-9.29,5.5-8.91,10.96.37,5.33,4.84,9.54,10.17,9.62,37.93-.53,69.12-28.8,74.25-65.45-2.58,2.1-5.87,3.36-9.45,3.37Z"></path></g></svg> 