<?xml version="1.0" encoding="UTF-8"?> <svg xmlns="http://www.w3.org/2000/svg" id="Layer_1" width="100" height="100" viewBox="0 0 100 100"><defs><style>.cls-1{fill:#3c3382;}</style></defs><path class="cls-1" d="m80.38,84.4c3.26,0,4.86-1.47,6.6-4.87-.05-.32-.15-.66-.3-1.02-2.14-5.18-5.21-12.67-5.21-12.67,0,0-5.29,0-5.29,4.12v6.71h3.56v2.96h-10.12v-2.96h3.6v-10.84h-3.6v-2.96h6.56v1.2c1.27-.92,2.64-1.15,3.3-1.2.29-.02,3.29,0,3.29,0h4.85v2.96h-2.71l3.97,9.22,3.55-9.22h-2.56v-2.96h8.46c1.09-4.11,1.68-8.42,1.68-12.87C100,22.39,77.61,0,50,0S0,22.39,0,50s22.39,50,50,50c12.77,0,24.42-4.8,33.26-12.68-.86.24-1.81.37-2.88.37v-3.3Zm-44.3-4.22c-1.53,0-3.11-.55-4.37-1.13v.65h-2.92v-5.27h2.92v.89c1.04.62,2.92,1.57,4.37,1.57,3.26,0,3.26-.88,3.26-1.82,0-1.16-.73-1.57-3.91-2.17l-.41-.08c-5.01-.95-6.06-3.35-6.06-5.19,0-2.44,1.54-5.28,5.87-5.28,1.58,0,3.05.52,4.21,1.1v-.54h2.92v4.8h-2.92s0-.39,0-.39c-.66-.49-2.4-1.67-4.21-1.67-2.57,0-2.57,1.49-2.57,1.98,0,1.08,1.84,1.66,3.37,1.95l.4.08c2.63.49,6.6,1.24,6.6,5.41,0,3.4-2.21,5.12-6.56,5.12Zm16.08-14.46h-3.6s.01,10.48.01,10.71c0,.8.58.82.58.82h3v2.5s-1.75.6-3.07.6c-3.52,0-3.52-3.52-3.52-3.52v-10.95h-2.4v-3.07h2.4v-2.32l3.02-3v5.32s3.6,0,3.6,0v2.92Zm8.98,14.62c-4.89,0-8.85-3.96-8.85-8.85s3.96-8.85,8.85-8.85,8.85,3.96,8.85,8.85-3.96,8.85-8.85,8.85Z"></path><circle class="cls-1" cx="61.14" cy="71.5" r="5.66" transform="translate(-32.65 64.17) rotate(-45)"></circle></svg> 