<?xml version="1.0" encoding="UTF-8"?> <svg xmlns="http://www.w3.org/2000/svg" id="Layer_2" width="100" height="100" viewBox="0 0 100 100"><defs><style>.cls-1{fill:#fade40;}.cls-2{fill:#4a5469;}</style></defs><circle class="cls-1" cx="50" cy="50" r="50"></circle><g><path class="cls-2" d="m31.47,61.48c1.35-.89,2.08.46,2.08.46l2.45,4.54,1.88-5.38s-8.09-2.11-10.53,1.77c-2.44,3.88.27,6.59,1.22,7.32.95.73,5.03,3.21,3.21,5.32-1.05,1.22-2.47.02-2.49,0-1.41-1.27-2.78-5.21-2.78-5.21l-2.04,5.65s8.75,2.65,11.56-1.61c0,0,.81-1,.81-3.22,0-2.58-3.9-5.06-4.88-5.92-1.39-1.23-1.77-2.86-.48-3.72Z"></path><path class="cls-2" d="m90.28,61.6c-1.8.42-2.74.47-2.74.47,0,0,1.72,1.52,1.72,5.54,0,5.65-2.72,7.9-2.72,7.9,0,0-.13-5.13-1.03-9.51-1.11-5.43-3.04-5.58-6.43-4.82-3.96.89-6.12,3.88-6.12,3.88,0,0,1.05-4.79-3.49-4.79-3.04,0-4.87,2.59-5.75,4.32-.26-.57-.59-1.11-1.02-1.59-1.31-1.5-3.25-2.34-5.45-2.36-.03,0-.06,0-.09,0-4.52,0-8.77,3.49-9.52,7.82-.15.86-.14,1.7,0,2.5-.8,1.09-2.34,3.07-2.91,2.9-.39-.12-.77-.52.5-6.21.39-1.73.84-3.76,1.27-5.68h4.44l.33-.94h-4.56c.72-3.25,1.32-5.96,1.32-5.96l-6.09,5.96h-2.95v.94h2.37c-.54,1.96-2.4,8.88-2.4,11.42,0,2.97,1.75,3.13,3.24,3.13,3.18,0,4.93-3.2,5.6-4.8.26.9.71,1.73,1.33,2.44,1.31,1.5,3.25,2.34,5.45,2.37.03,0,.06,0,.09,0,4.52,0,8.77-3.49,9.52-7.82.21-1.23.12-2.41-.24-3.49.74-1.06,1.84-2.49,2.63-2.16.7.29-.53,6.51-.53,6.51l-1.55,6.96h5.46s1.33-10.81,5.54-13.02,5.35,7.26,5.35,7.26c.69,6.62.67,9.78.67,9.78,0,0-.3.3-.69.55-.39.25-.91.5-.91.5l-3.99-3.77s-.17,1.26-.69,2.77c-.58,1.66-1.27,2.88-1.27,2.88,0,0,6.07,2.13,13.72-8.15,5.15-6.93,5.24-14.35,5.24-14.35,0,0-.83.22-2.63.64Zm-34.12,12.67c-1.4,2.59-2.64,2.12-2.77-1.06-.13-3.18.9-7.85,2.31-10.44,1.4-2.59,2.64-2.12,2.77,1.06.13,3.18-.9,7.85-2.31,10.44Z"></path></g></svg> 