<?xml version="1.0" encoding="UTF-8"?> <svg xmlns="http://www.w3.org/2000/svg" id="Layer_2" width="600" height="400" viewBox="0 0 600 400"><defs><style>.cls-1{fill:#3a357e;}</style></defs><path class="cls-1" d="M541.23,275.31c-4.3-7.77-8.66-15.65-13.01-23.51h-8.01v23.33c-2.9,.67-5.7,.24-8.46,.32-2.68,.08-5.36,.02-8.26,.02v-68.61c.93,0,1.91,0,2.89,0,10.27,.01,20.54-.04,30.81,.06,6.39,.06,11.84,2.46,16.21,7.21,3.33,3.61,5.07,7.91,5.36,12.76,.2,3.32,.25,6.65-.82,9.88-1.72,5.17-4.92,9.1-9.72,11.7-.86,.47-1.78,.83-2.85,1.32,4.5,8.72,10.07,16.6,14.61,25.52h-18.77Zm-21.12-38.48c.6,.11,.96,.22,1.31,.22,4.35,0,8.7,.1,13.05-.04,4.51-.14,7.31-3.14,7.52-7.47,.17-3.56-1.75-7.56-7.4-7.98-3.56-.27-7.16-.09-10.75-.08-1.23,0-2.47,.08-3.74,.12v15.23Z"></path><path class="cls-1" d="M338.12,205.68c8.66,0,16.26,2.67,23.01,8.04,6.49,5.16,10.08,11.95,11.77,19.93,1.91,8.97,.62,17.48-3.8,25.44-4.97,8.98-12.68,14.23-22.66,16.51-4.73,1.08-9.51,1.2-14.11,.58-14.76-2-26.38-11.47-29.59-27.64-1.64-8.26-.64-16.19,3.03-23.79,4.57-9.46,12.18-15.15,22.14-17.75,3.3-.86,6.8-.91,10.21-1.33Zm-19.17,35.22c-.28,8.97,5.03,18.67,15.3,20.41,5.91,1,11.19-.22,15.67-4.06,5.58-4.78,7.4-11.27,6.72-18.32-.79-8.27-5.06-15.6-14.32-17.67-6.16-1.38-11.87-.45-16.77,3.92-4.72,4.21-6.34,9.67-6.61,15.72Z"></path><path class="cls-1" d="M268.79,251.81h-8.33v23.41c-2.79,.5-5.46,.2-8.1,.25-2.67,.05-5.34,.01-8.14,.01v-68.37c.74-.07,1.59-.23,2.44-.23,10.15,0,20.3,.03,30.45,0,3.23,0,6.31,.73,9.25,1.91,6.34,2.56,10.39,7.3,12.25,13.82,1.62,5.69,1.16,11.31-1.24,16.75-2.06,4.67-5.61,7.81-10.18,9.89-.34,.16-.72,.24-1.06,.38-.09,.04-.12,.19-.26,.44,4.86,8.24,9.76,16.55,14.86,25.19h-19.04c-4.23-7.71-8.57-15.59-12.88-23.45Zm-8.38-14.78s9.99,.06,14.84-.03c2.4-.04,4.46-1.11,5.88-3.08,1.79-2.46,2.08-5.18,.82-7.96-1.28-2.82-3.67-4.2-6.64-4.4-2.82-.19-14.9,.11-14.9,.11v15.35Z"></path><path class="cls-1" d="M495.52,233.02v14.49c-3.36,.52-6.8,.16-10.22,.23-3.59,.07-7.19,.01-10.79,.01h-10.46v13.02h32.16c.41,4.9,.1,9.6,.22,14.49h-48.76c-.16-.61-.51-1.31-.51-2-.03-21.97-.02-43.94-.02-65.89,3.26-.74,35.24-.98,49.08-.38,.44,4.66,.06,9.36,.23,14.23-3.66,.54-7.23,.17-10.78,.24-3.59,.07-7.19,.02-10.79,.02h-10.83v11.55h31.48Z"></path><path class="cls-1" d="M237.89,263.42c-4.95,5.67-10.96,9.42-17.87,11.67-2.25,.74-4.69,1-7.07,1.21-2.3,.2-4.62,.07-6.93,.05-11.54-.07-20.63-5.25-27.57-14.09-3.35-4.27-5.18-9.4-6.14-14.94-1.26-7.29-.42-14.17,2.03-21,1.85-5.17,5.02-9.45,9.15-12.95,7.38-6.24,15.95-9.18,25.84-8.82v15.16c-1.8,.1-3.65-.11-5.32,.35-7.91,2.21-12.7,7.06-14.65,15.4-1.35,5.76-.39,11.08,2.32,16.15,3.12,5.85,8.09,8.96,14.72,9.44,5.53,.4,10.64-.64,15.21-4.23v-5.92c-2.08-.42-4.23-.14-6.35-.2-2.04-.05-4.08-.01-6.1-.01-.66-2.96-.72-11.15-.13-15h28.5s.1,.08,.18,.18c.07,.1,.17,.21,.17,.32,0,9,0,18,0,27.21Z"></path><path class="cls-1" d="M40,130.67c.33-.13,.55-.29,.77-.29,11.29,0,22.59,.04,33.88,.04,3.93,0,7.51,1.24,10.83,3.21,5.9,3.5,8.91,9,9.82,15.58,.58,4.16,.31,8.37-1.36,12.41-2.86,6.92-8.06,11.02-15.17,12.73-2.45,.59-5.03,.76-7.56,.82-4.98,.12-9.96,.04-15.21,.04v23.8c-5.44,.39-10.64,.11-16.01,.2v-68.53Zm16.1,13.64v16.84c5.02,0,9.89,.28,14.71-.07,6.41-.47,8.51-5.09,8.32-8.97-.22-4.37-3.8-7.7-8.73-7.79-4.72-.08-9.44-.02-14.29-.02Z"></path><path class="cls-1" d="M215.45,219.94c-.28-.47-.4-.57-.4-.67,0-4.74,0-9.49,0-14.38,1.66-.3,3.25-.61,4.85-.86,2.74-.43,3.87-2.39,4.18-4.78,.26-2,.05-4.06,.05-6.43-3.29,2.34-6.43,4.18-10.27,4.98-6.05,1.27-11.36-.2-16.26-3.4-5.17-3.38-7.78-8.55-8.97-14.5-1.22-6.1-1.09-12.16,.87-18.09,1.78-5.38,4.93-9.73,10.05-12.46,7.53-4.01,17.05-3.73,24.43,2.7,.18-1.31,.33-2.47,.5-3.75h14.81c.05,1.03,.13,2.01,.13,3,0,14.15,.06,28.29-.03,42.44-.03,4.95-.65,9.79-2.77,14.44-3.36,7.37-9.09,11-16.9,11.75-1.49,.14-3.01,.02-4.27,.02Zm8.73-55.64c-2.3-1.84-4.47-3.23-7.17-3.9-5.03-1.25-9.96,.56-12.31,5.12-2.37,4.6-2.32,9.33,0,13.95,1.32,2.64,3.48,4.27,6.4,5.04,5.44,1.42,9.59-.62,13.08-4.19v-16.03Z"></path><path class="cls-1" d="M428.82,251.56c4.74,2.34,9.16,4.52,13.9,6.86-.42,1.01-.67,1.99-1.19,2.79-4.86,7.43-11.28,12.71-20.23,14.38-13.7,2.56-25.8-.33-35.47-10.84-5.06-5.5-7.62-12.15-8.38-19.61-.69-6.85,.23-13.33,3.14-19.56,4.57-9.77,12.29-15.94,22.52-18.49,7.84-1.96,15.89-2.07,23.63,1.27,5.01,2.16,9.35,5.12,12.57,9.59,1.27,1.76,2.47,3.56,3.95,5.69-4.88,2.4-9.59,4.72-14.41,7.09-1.98-3.56-4.46-6.48-8.18-8.27-6.76-3.25-14.19-1.87-19.58,2.83-6.46,5.63-7.77,12.99-6.25,20.98,1.15,6.07,4.58,10.59,10.21,13.47,8.04,4.1,18.53,1.27,22.63-6.32,.3-.55,.66-1.07,1.16-1.85Z"></path><path class="cls-1" d="M326.88,192.17c-2.95,3.23-6.63,4.68-10.35,5.89-8.7,2.82-17.31,2.63-25.39-2.04-7.59-4.39-11.75-11.12-12.28-19.91-.22-3.69-.29-7.4,.84-11.04,2.7-8.71,10.32-16.07,19.26-17.72,4.88-.9,9.55-.75,14.25,.78,8.5,2.77,13.44,8.81,15.75,17.18,1.12,4.05,1.68,8.22,1.32,12.69-2.94,.69-6,.24-9.02,.32-2.95,.08-5.91,.02-8.86,.02h-18.12c2.01,6.17,5.81,9.04,11.54,9.24,4.53,.16,7.61-.19,14.37-4.88,2.57,2.75,4.32,6.13,6.7,9.48Zm-32.48-24.93c4.03,.55,18.48,.47,21.3-.12-1.26-5.77-5.99-8.92-12.77-8.15-4.42,.5-7.93,3.88-8.52,8.28Z"></path><path class="cls-1" d="M557.99,178.32h-36.3c.71,3.21,2.24,5.44,4.82,7.06,4.73,2.98,9.67,2.85,14.63,.95,2.22-.85,4.24-2.23,6.74-3.58,2.01,2.93,4.14,6.02,6.27,9.11-.68,1.85-2.35,2.57-3.7,3.29-10.48,5.61-21.25,6.76-31.95,.82-7.41-4.12-11.38-10.79-12.16-19.23-.46-4.99-.31-9.98,1.95-14.62,3.92-8.03,9.85-13.31,19-14.85,7.14-1.2,13.59-.19,19.54,3.94,6.01,4.18,9.04,10.18,10.25,17.18,.54,3.1,.59,6.28,.91,9.92Zm-14.77-10.89c-2.41-6.84-6.34-9.33-13.07-8.47-4.36,.56-7.85,4.08-8.27,8.47h21.34Z"></path><path class="cls-1" d="M183.38,173.43c.16,7.86-2.74,14.4-8.42,19.75-2.92,2.75-6.42,4.45-10.27,5.5-8.86,2.41-17.16,1.23-24.59-4.22-6.3-4.62-9.46-11.1-10-18.88-.34-4.9,.21-9.67,2.36-14.14,3.72-7.74,9.82-12.38,18.27-14.08,4.98-1,9.77-.67,14.64,.72,8.11,2.31,13.31,7.58,16.33,15.26,.55,1.41,1.14,2.85,1.36,4.32,.29,1.89,.23,3.84,.32,5.76Zm-38.03-.08c-.16,2.69,.48,5.23,1.75,7.67,3.6,6.92,14.43,7.21,18.55,.91,3.66-5.59,3.77-11.45,.42-16.88-4.51-7.31-15.14-6.62-19,.51-1.32,2.44-1.86,5-1.72,7.79Z"></path><path class="cls-1" d="M381.25,191.63c2.29-3.66,4.37-6.98,6.61-10.56,1.36,.92,2.56,1.77,3.8,2.57,4.87,3.14,10.16,4.61,15.97,3.99,.26-.03,.51-.03,.77-.07,1.84-.27,3.67-1.78,3.86-3.19,.17-1.24-1.06-3.02-2.93-3.65-2.15-.72-4.4-1.13-6.61-1.68-3.19-.79-6.46-1.34-9.54-2.45-3.8-1.37-6.95-3.72-8.67-7.6-2.78-6.28-.22-14.21,4.65-17.71,5.48-3.94,11.63-4.91,18.12-4.49,6.33,.41,11.98,2.75,17.29,6.89-.43,2.76-2.58,6.79-5.74,10.7-3.19-3.54-7.47-4.9-11.93-5.84-2.72-.58-5.32-.22-7.73,1.16-2.04,1.17-2.24,3.04-.23,4.15,1.84,1.03,3.96,1.61,6.03,2.15,4.39,1.13,8.9,1.75,13.1,3.7,5.56,2.58,8.41,7.06,8.56,12.89,.12,4.94-1.69,9.38-6.01,12.48-6.16,4.42-13.09,5.29-20.32,4.52-4.67-.5-9.2-1.77-13.28-4.25-1.84-1.12-3.62-2.33-5.75-3.71Z"></path><path class="cls-1" d="M376.84,154.09c-2.11,3.51-4,6.65-6.03,10.03-.92-.57-1.7-.95-2.35-1.49-3.38-2.77-7.4-3.84-11.59-4.25-1.59-.16-3.28,.25-4.87,.64-1.57,.38-2.61,1.48-2.96,3.21,1.55,2.86,4.48,3.15,7.14,3.73,5.06,1.1,10.14,1.91,14.79,4.5,5.55,3.1,7.92,9.38,7.11,14.57-.89,5.71-4.05,10.22-9.6,12.37-11.19,4.34-21.9,2.69-32.15-3.16-.33-.19-.6-.48-.89-.74-.66-.6-1.31-1.22-2.21-2.06,1.71-3.61,3.98-6.9,6.3-10.36,3.65,2.65,7.26,4.93,11.5,6.03,3.17,.82,6.36,.79,9.53,.35,2.46-.34,3.08-1.58,3.01-4.9-2.53-2.6-6.07-2.8-9.36-3.5-4.22-.89-8.42-1.75-12.26-3.85-6.33-3.47-8.93-11.62-5.87-18.18,2.48-5.3,6.93-8.21,12.27-9.45,10.36-2.4,19.86-.17,28.48,6.5Z"></path><path class="cls-1" d="M488.15,198.34h-15.32c-6.67-16.56-13.32-33.08-20.06-49.82,2.78-.71,5.33-.28,7.83-.36,2.44-.08,4.88-.02,7.73-.02,4.22,10.35,7.86,21.08,12.09,31.74,4.05-10.72,8.01-21.21,11.95-31.62h15.14c.19,.22,.3,.3,.34,.41,.04,.12,.04,.27,0,.38-6.52,16.33-13.04,32.65-19.69,49.28Z"></path><path class="cls-1" d="M99.59,148.26h14.65c.15,1.17,.3,2.37,.5,3.99,4.61-3.19,9.36-5.58,15.12-5.44v14.26c-2.57,.57-5.32-.81-7.96,.22-2.6,1.02-5.21,2-7.4,4.18v32.78h-14.91v-50Z"></path><path class="cls-1" d="M276.6,161.22c-6.86-.93-11.02,.3-15.56,4.58v32.49h-14.42v-49.95c4.65-.45,9.34-.06,14.27-.23,.12,1.57,.24,3.05,.38,4.8,4.34-3.82,9.21-5.9,15.25-6.17,.17,4.78,.04,9.46,.08,14.47Z"></path><path class="cls-1" d="M447.27,198.29h-14.63v-50.02c4.83-.25,9.67-.05,14.47-.13,.6,2.87,.73,45.28,.16,50.16Z"></path><path class="cls-1" d="M434.12,123.44c5.19,3,10.13,5.86,15.38,8.9-5.28,3.02-10.24,5.86-15.38,8.81v-17.71Z"></path></svg> 