<?xml version="1.0" encoding="UTF-8"?> <svg xmlns="http://www.w3.org/2000/svg" id="Layer_3" width="600" height="400" viewBox="0 0 600 400"><defs><style>.cls-1{fill:#3a357e;}</style></defs><path class="cls-1" d="M269.7,152.73c-8.48-8.48-20-13.33-32.12-13.33h-66.36v121.21h45.45v-75.76h14.55c3.94,0,7.88,1.52,10.61,4.55l15.76,15.76c2.73,2.73,4.55,6.67,4.55,10.61v44.85h45.45v-51.21c0-12.12-4.85-23.64-13.33-32.12,0,0-24.55-24.55-24.55-24.55Zm234.85-13.33v44.85c0,3.94-1.52,7.88-4.55,10.61l-15.76,15.76c-2.73,2.73-6.67,4.55-10.61,4.55h-21.82c4.55-7.27,7.27-15.76,7.27-24.55v-51.21h-45.45v44.85c0,3.94-1.52,7.88-4.55,10.61l-15.76,15.76c-2.73,2.73-6.67,4.55-10.61,4.55h-14.55v-75.76h-45.45v121.21h66.36c12.12,0,23.64-4.85,32.12-13.33l15.15-15.15v28.48h43.64c12.12,0,23.64-4.85,32.12-13.33l24.55-24.55c8.48-8.48,13.33-20,13.33-32.12v-51.21h-45.45ZM50,184.85h30.3v75.76h45.45v-75.76h30.3v-45.45H50v45.45Z"></path></svg> 