<?xml version="1.0" encoding="UTF-8"?> <svg xmlns="http://www.w3.org/2000/svg" id="Layer_3" width="600" height="400" viewBox="0 0 600 400"><defs><style>.cls-1{fill:#3a357e;}</style></defs><rect class="cls-1" x="183.24" y="136.03" width="8.95" height="125.26"></rect><path class="cls-1" d="M267.04,169.43c-15.81,0-29.82,7.75-38.47,19.68v-53.09h-8.95v125.26h8.95v-17c8.65,11.93,22.67,19.68,38.47,19.68,26.24,0,47.42-21.17,47.42-47.42s-21.47-47.12-47.42-47.12Zm0,85.59c-21.17,0-38.47-17.3-38.47-38.47s17.3-38.47,38.47-38.47,38.47,17.3,38.47,38.47-17.3,38.47-38.47,38.47Z"></path><path class="cls-1" d="M373.81,255.02c-21.17,0-38.47-17.3-38.47-38.47h86.19l-.6-5.07c-2.68-24.16-22.96-42.35-47.12-42.35-26.24,0-47.42,21.17-47.42,47.42s21.17,47.42,47.42,47.42c19.09,0,36.09-11.33,43.54-28.93l-8.35-3.58c-5.67,14.32-19.68,23.56-35.19,23.56Zm0-76.65c17.89,0,33.4,12.23,37.28,29.23h-74.56c4.18-16.7,19.09-29.23,37.28-29.23Z"></path><polygon class="cls-1" points="513.98 171.22 513.98 136.03 505.04 136.03 505.04 171.22 488.63 171.22 488.63 180.17 505.04 180.17 505.04 261.29 513.98 261.29 513.98 180.17 532.77 180.17 532.77 171.22 513.98 171.22"></polygon><path class="cls-1" d="M444.79,186.13v-14.91h-8.95v90.07h8.95v-60.54c1.49-3.28,14.02-20.28,31.02-20.28v-8.95c-12.53-.3-23.86,7.16-31.02,14.61Z"></path><path class="cls-1" d="M156.1,261.29h9.84l-58.45-120.79-57.56,120.79h9.84l19.98-42.05h55.77s20.58,42.05,20.58,42.05Zm-48.61-99.91l23.86,49.21h-47.12l23.26-49.21Z"></path><g><path class="cls-1" d="M536.65,153.92v-7.46h-2.68v-.89h6.86v.89h-2.68v7.46h-1.49Z"></path><path class="cls-1" d="M541.72,153.92v-8.65h1.79l2.09,5.96c.3,.6,.3,.89,.3,1.19,0-.3,.3-.89,.6-1.49l2.09-5.96h1.49v8.65h-1.19v-7.16l-2.39,7.16h-.89l-2.39-7.16v7.16h-1.49v.3Z"></path></g></svg> 