<?xml version="1.0" encoding="UTF-8"?> <svg xmlns="http://www.w3.org/2000/svg" id="Layer_3" width="600" height="400" viewBox="0 0 600 400"><defs><style>.cls-1{fill:#3a357e;}</style></defs><path class="cls-1" d="M40.29,242.78c-19.99,0-37.86-10.32-40.04-36.94-3.21-39.29,25.49-48.62,39.14-48.62s36.51,6.54,37.31,32.03c.41,13-5.39,16.88-24.4,16.88h-17.02c-3.73,0-6.55-.62-6.65-6.92-.09-6.08,2.16-6.89,6.42-6.89s9.61,0,15.33,0c6.2,0,8.06-2.89,7.79-6.25-.49-6.03-5.68-13.41-18.51-13.41s-22.94,10.64-21.21,31.8c1.72,21.16,16.17,22.77,21.74,22.77,7.09,0,14.33-1.75,20.22-9.5,.88-1.61,2.93-2.04,4.63-1.04l6.65,4.17c1.69,1.01,2.36,3.14,1.48,4.75-2.7,5.41-12.9,17.18-32.89,17.18Z"></path><path class="cls-1" d="M92.46,159.83c.61,0,1.14,.33,1.39,.86l22.53,47.33,22.24-47.21c.27-.59,.88-.97,1.53-.97h15.85c.53,0,1,.24,1.28,.66,.31,.46,.34,1.04,.09,1.55l-37.25,76.13c-.79,1.59-2.43,2.52-4.21,2.39-1.55-.1-2.82-.94-3.49-2.3l-37.26-76.11c-.23-.48-.21-1.02,.08-1.5,.31-.51,.85-.81,1.45-.81h15.78Z"></path><path class="cls-1" d="M195.46,242.78c-19.99,0-37.86-10.32-40.04-36.94-3.21-39.29,25.49-48.62,39.14-48.62s36.51,6.54,37.31,32.03c.4,13-5.39,16.88-24.4,16.88h-17.02c-3.73,0-6.55-.62-6.65-6.92-.09-6.08,2.16-6.89,6.42-6.89s9.61,0,15.33,0c6.2,0,8.06-2.89,7.79-6.25-.49-6.03-5.68-13.41-18.51-13.41s-22.94,10.64-21.21,31.8c1.72,21.16,16.17,22.77,21.74,22.77,7.09,0,14.33-1.75,20.22-9.5,.88-1.61,2.93-2.04,4.63-1.04l6.65,4.17c1.69,1.01,2.36,3.14,1.48,4.75-2.7,5.41-12.9,17.18-32.89,17.18Z"></path><path class="cls-1" d="M242.1,161.48c0-.92,.77-1.69,1.69-1.69h9.39c1.01,0,2.07,1.14,2.85,2.1l4.23,5.79,.73-.76c3.43-3.6,6.5-6.08,9.12-7.4,2.64-1.35,5.82-2.03,9.46-2.03,4.13,0,8.5,1.19,13.02,3.53,1.76,.88,2.6,2.95,1.86,4.65l-4.4,10.14c-.74,1.69-2.76,2.36-4.52,1.48-3.28-2.05-6.53-3.09-9.67-3.09-10.91,0-16.45,8.22-16.45,24.43v38.6c.02,1.9-1.51,3.44-3.42,3.44h-10.41c-1.9,0-3.45-1.54-3.46-3.44v-75.76Z"></path><path class="cls-1" d="M340.61,180.53c-1.72,1.18-3.52,.48-4.78-1.04-2.66-3.2-6.42-7.48-12.85-7.48s-8.84,4.21-9.1,6.96c-.26,2.76,.3,5.8,3.83,8.07,3.54,2.26,10.69,5.31,18.6,9.28,7.91,3.97,15.27,10.44,13.91,24.1-1.35,13.65-11.55,22.6-28.25,22.6s-25.21-13.58-26.54-15.51c-1.33-1.93-.53-3.9,.78-4.75,1.31-.85,5.7-3.9,6.87-4.7,1.17-.8,3.2-.92,4.78,1.04,4.33,5.34,8.76,8.16,13.9,8.16s8.33-2,9.81-5.18c1.47-3.18,1.68-8.52-3.76-11.65-5.44-3.13-12.64-6.1-18.91-9.63-6.86-3.87-12.68-10.06-11.01-23.07,1.68-13,11.15-20.77,26.82-20.77s21.92,11.24,23.43,13.88c1.51,2.65,.89,3.91-.67,4.98,0,0-5.15,3.53-6.87,4.7Z"></path><path class="cls-1" d="M398.52,242.78c-19.99,0-37.86-10.32-40.04-36.94-3.21-39.29,25.49-48.62,39.14-48.62s36.51,6.54,37.31,32.03c.4,13-5.39,16.88-24.4,16.88h-17.02c-3.73,0-6.55-.62-6.65-6.92-.09-6.08,2.16-6.89,6.42-6.89s9.61,0,15.33,0c6.2,0,8.06-2.89,7.79-6.25-.49-6.03-5.68-13.41-18.51-13.41s-22.94,10.64-21.21,31.8c1.72,21.16,16.17,22.77,21.74,22.77,7.09,0,14.33-1.75,20.22-9.5,.88-1.61,2.93-2.04,4.63-1.04l6.65,4.17c1.69,1.01,2.36,3.14,1.48,4.75-2.7,5.41-12.9,17.18-32.89,17.18Z"></path><path class="cls-1" d="M484.71,242.78c-19.99,0-37.86-10.32-40.04-36.94-3.21-39.29,25.49-48.62,39.14-48.62s36.51,6.54,37.31,32.03c.4,13-5.39,16.88-24.4,16.88h-17.02c-3.73,0-6.55-.62-6.65-6.92-.09-6.08,2.16-6.89,6.42-6.89s9.61,0,15.33,0c6.2,0,8.06-2.89,7.79-6.25-.49-6.03-5.68-13.41-18.51-13.41s-22.94,10.64-21.21,31.8c1.72,21.16,16.17,22.77,21.74,22.77,7.09,0,14.33-1.75,20.22-9.5,.88-1.61,2.93-2.04,4.63-1.04l6.65,4.17c1.69,1.01,2.36,3.14,1.48,4.75-2.7,5.41-12.9,17.18-32.89,17.18Z"></path><path class="cls-1" d="M599.92,237.23c0,1.9-1.53,3.44-3.43,3.44h-10.41c-1.91,0-3.45-1.54-3.46-3.44v-41.77c0-8.43-1.17-14.14-3.57-17.44-2.4-3.44-6.72-5.18-12.86-5.18-6.62,0-11.39,2.24-14.2,6.66-2.72,4.31-4.03,11.54-4.03,22.1l-.07,35.63c.01,1.9-1.53,3.44-3.43,3.44h-10.41c-1.9,0-3.45-1.54-3.46-3.44v-75.76c0-.91,.76-1.69,1.68-1.69h9.39c.93,0,1.98,.77,2.84,2.09l4.3,6.05,.73-.73c6.49-6.43,13.89-9.7,22-9.7,9.29,0,16.62,2.94,21.77,8.75,4.45,4.94,6.71,13.21,6.71,24.57l-.08,46.41Z"></path></svg> 