<?xml version="1.0" encoding="UTF-8"?> <svg xmlns="http://www.w3.org/2000/svg" id="Layer_3" width="600" height="400" viewBox="0 0 600 400"><defs><style>.cls-1{fill:#3a357e;}</style></defs><g><path class="cls-1" d="M297.16,319.37c-4.22-.73-8.49-1.35-12.65-2.31-8.38-1.91-15.91-5.4-21.87-11.81-10.57-11.3-11.92-24.4-3.71-37.45,1.12-1.8,1.18-2.87-.39-4.44-9.11-9.11-17.26-19.01-21.7-31.38-4.72-13.05-5.68-26.32-2.42-39.81,3.65-15.13,12.54-26.65,25.7-34.75,5.4-3.32,11.13-6.13,17.04-9.33-1.46-.9-2.87-1.69-4.27-2.53-4.55-2.7-8.72-5.85-11.64-10.4-2.87-4.44-4.1-9.22-2.81-14.45,.84-3.32,2.81-5.85,5.85-7.76,.62,.56,1.24,1.12,1.86,1.69-3.26,3.26-3.77,5.17-2.42,7.87,1.24,2.42,3.88,3.77,7.53,3.09,6.3-1.24,12.6-2.87,18.84-4.39,17.94-4.27,35.71-4.44,52.8,3.32,22.15,10.06,35.37,27.72,40.32,51.17,5.96,28.23,1.41,54.65-16.53,77.88-12.03,15.63-27.72,25.92-47.57,28.85-14.84,2.19-28.85-1.29-42.28-7.37-4.67-2.14-9.05-4.84-13.61-7.31-6.52,5.4-8.43,16.42-4.1,24.8,3.04,5.9,7.93,9.9,13.83,12.71,6.97,3.32,14.39,4.78,22.04,5.06,10.63,.39,21.14-.79,31.43-3.49,11.58-3.04,22.15-7.7,28.23-19.06,.51,.22,.84,.39,1.18,.56,.39,.22,.79,.51,1.35,.84-3.6,7.37-8.55,13.55-15.29,18.22-9.28,6.41-19.57,10.18-30.76,11.36-.73,.06-1.41,.34-2.14,.51-3.94,.11-7.87,.11-11.81,.11Zm-17.26-60.5c7.25,14,25.08,22.94,40.65,20.35,15.01-2.47,26.54-10.57,33.85-23.62,13.38-23.95,14.17-48.86,1.91-73.43-8.94-17.94-23.67-28.28-44.25-29.46-10.12-.56-20.47,.28-30.36-3.04-.45-.17-1.46,.34-1.8,.84-4.72,7.2-9.33,14.51-11.41,23-4.16,17.09-4.1,34.3-1.41,51.62,1.69,10.63,5.74,20.47,10.23,30.42,11.81-4.39,23.5-4.84,34.81,.84,5.51-8.83,5.12-15.46-1.52-22.77-6.19-6.92-11.13-14.51-14.84-23-9-20.58-.56-38.35,11.13-49.71,1.63-1.57,3.71-2.81,5.74-4.33-.45,3.88-1.18,7.25-1.07,10.51,.22,6.35,3.6,11.53,7.42,16.36,2.98,3.82,6.19,7.53,9.11,11.41,9.5,12.54,10.74,25.92,4.16,40.15-6.3,13.55-15.97,24.57-26.32,35.09-.11,.11-.34,.06-.67,.11-.45-.62-.96-1.24-1.46-1.91,.67-.96,1.29-1.74,1.86-2.53-4.05-7.31-16.31-10.35-25.75-6.92Z"></path><path class="cls-1" d="M75.06,123.14c24.63,0,49.26,.06,73.94,.06,11.47,0,22.83,.73,33.96,3.94,6.35,1.8,12.31,4.39,17.54,8.6,16.03,12.88,15.8,36.61-.45,49.14-7.98,6.19-17.37,9-27.16,10.74-2.64,.45-5.29,.79-7.93,1.57,4.89,.62,9.78,.84,14.56,1.91,5.45,1.18,10.96,2.59,16.08,4.72,12.26,5.17,20.75,13.94,22.15,27.72,1.57,15.24-3.54,27.83-16.42,36.77-9.17,6.35-19.62,9.22-30.53,10.4-6.97,.79-14,1.12-21.03,1.12-24.91,.17-49.88,.06-74.78,.11v-3.37c4.39-.39,8.77-.45,13.1-1.24,7.82-1.46,10.35-4.84,10.35-12.88v-122.02c0-7.93-2.59-11.3-10.4-12.88-4.27-.9-8.72-1.18-13.05-1.69,.06-.9,.06-1.8,.06-2.76Zm56.29,152.55c7.03,0,13.78,.06,20.52-.06,2.81-.06,5.62-.28,8.38-.67,11.86-1.69,19.17-8.04,21.99-19.46,2.31-9.56,2.7-19.29,1.18-29.01-1.86-11.64-7.7-20.41-19.17-24.52-10.68-3.88-21.76-2.08-32.84-2.53-.06,25.58-.06,50.77-.06,76.25Zm0-80.18c5.17,0,10.12,.11,15.07-.06,3.43-.11,6.92-.28,10.35-.84,11.75-1.97,18.27-8.27,20.69-19.91,1.91-9.11,1.86-18.27-.17-27.33-2.19-9.95-8.27-16.42-18.33-18.72-2.98-.67-6.07-1.18-9.17-1.29-6.13-.22-12.31-.06-18.56-.06,.11,22.77,.11,45.26,.11,68.21Z"></path><path class="cls-1" d="M524.89,177.68c-2.81,.56-3.88-1.01-5.06-3.37-4.67-9.28-9.22-18.61-14.62-27.44-5.79-9.5-14.23-16.14-25.47-18.33-3.09-.62-6.3-1.07-9.45-1.18-8.04-.17-16.08-.06-24.35-.06v71.47c8.27,.06,16.53,.73,24.52-2.59,6.58-2.76,10.91-7.82,13.83-14.11,1.69-3.65,2.98-7.48,4.22-11.3,.56-1.74,1.29-2.59,3.37-1.86v64.66c-1.97,.84-2.76-.06-3.37-1.91-1.46-4.33-2.92-8.72-4.95-12.82-4.61-9.39-12.26-14.73-22.77-15.46-4.84-.34-9.73-.06-14.9-.06-.06,.79-.11,1.74-.11,2.76v57.35c0,7.53,2.25,10.63,9.62,12.2,3.99,.9,8.15,1.12,12.26,1.46,1.8,.17,2.36,.79,1.74,2.59h-79.68c-.06-.84-.11-1.69-.17-2.64,4.27-.56,8.38-.84,12.37-1.63,8.55-1.63,11.08-4.78,11.08-13.38v-121.17c0-8.49-2.47-11.64-10.8-13.38-3.37-.73-6.86-.96-10.29-1.29-1.86-.17-2.87-.67-2.08-2.92h133.37c.06,.96,.17,1.97,.22,2.92,.39,12.37,.73,24.74,1.12,37.11,.06,1.57,.28,3.15,.45,4.67-.11,3.37-.11,6.52-.11,9.73Z"></path></g><g><path class="cls-1" d="M184.82,85.35c0,.22-.11,.34-.34,.34s-.39-.22-.51-.67c-.06-.28-.06-.62-.11-.9-.11-.62-.34-1.12-.67-1.52-.39-.56-1.07-.9-1.97-1.07-.62-.11-1.07-.17-1.46-.11-.9,0-1.46,.06-1.63,.06v15.07c0,.62,.17,.96,.56,1.12,.17,.06,.73,.11,1.63,.17,.22,0,.34,.11,.34,.22,0,.17-.17,.22-.45,.22h-.39c-1.18-.06-1.97-.06-2.47-.06-.62,0-1.24,0-1.8,.06-.56,0-1.29,.06-2.14,.06-.45,0-.67-.06-.67-.22s.39-.22,1.24-.22c.62,0,.96-.11,1.18-.34,.11-.11,.17-.45,.17-1.01v-15.07c-1.91,0-3.09,.11-3.54,.22-1.24,.39-1.91,1.41-2.14,3.09-.06,.51-.17,.73-.39,.73s-.34-.17-.34-.51c0-.17,0-.39,.06-.56l.06-.56c.06-.79,.17-1.8,.28-3.04h1.29l5.9,.06h3.21l4.78-.06c.06,.96,.17,2.31,.39,4.16,0,.06,0,.11,.06,.17q-.11,.11-.11,.17Z"></path><path class="cls-1" d="M198.93,98.06c0,.11-.17,.22-.51,.22h-5.29c-.22,0-.39-.06-.39-.22,0-.11,.34-.17,1.12-.17,.45,0,.67-.06,.79-.11,.06-.11,.11-.39,.11-.96v-5.06c0-1.52-.06-2.47-.22-2.81-.34-.79-1.07-1.12-2.14-1.12-.9,0-1.69,.34-2.25,1.07-.17,.22-.28,.73-.28,1.52v6.35c0,.45,0,.73,.06,.79,0,.17,.11,.28,.22,.28s.56,.06,1.24,.06c.22,0,.34,.06,.34,.22,0,.11-.11,.17-.28,.17h-5.51c-.22,0-.34-.06-.34-.17s.11-.17,.34-.17h.9c.45,0,.67-.11,.67-.34v-11.25c0-2.64-.06-4.1-.17-4.33-.11-.17-.56-.28-1.41-.28-.45,0-.67-.06-.67-.17s.06-.17,.17-.17,.45-.06,.96-.06c.96,0,1.91-.22,2.81-.62,.06-.06,.22-.06,.39-.11,.11,.22,.22,.84,.22,1.91v6.13c.84-1.07,2.02-1.57,3.49-1.57s2.64,.39,3.32,1.12c.34,.39,.51,.9,.62,1.57,.06,.22,.06,.79,.06,1.69v6.3c0,.17,.51,.22,1.52,.22,.06-.06,.11,0,.11,.06Z"></path><path class="cls-1" d="M210.68,95.53c0,.17-.17,.45-.45,.9-.28,.45-.62,.79-.9,1.01-.84,.73-1.91,1.12-3.32,1.12-1.74,0-3.21-.56-4.33-1.63-1.18-1.07-1.74-2.42-1.74-4.05s.56-3.04,1.69-4.16,2.47-1.69,4.16-1.69c1.35,0,2.53,.34,3.43,1.01s1.41,1.57,1.46,2.64c-.62,.06-1.41,.11-2.47,.11h-2.02c-.11,0-1.29,0-3.49,.06-.11,.56-.17,1.07-.17,1.57,0,1.69,.39,2.98,1.12,3.88s1.8,1.35,3.15,1.35c.79,0,1.41-.17,1.86-.45s.96-.9,1.52-1.74c.06-.11,.17-.22,.34-.22,.06,.11,.17,.17,.17,.28Zm-2.53-5.12c-.06-2.02-.9-2.98-2.47-2.98s-2.53,1.01-2.92,2.98h5.4Z"></path><path class="cls-1" d="M231.93,93.67c0,1.69-.9,2.98-2.7,3.77-.84,.39-2.08,.67-3.71,.73h-7.48c-.34,0-.51-.06-.51-.22s.28-.22,.9-.22c.67,0,1.12-.06,1.24-.17,.11-.11,.17-.51,.17-1.12v-13.49c0-.73-.06-1.18-.11-1.29-.11-.22-.62-.28-1.46-.34-.51,0-.79-.11-.79-.28s.22-.22,.73-.22h.34c.22,.06,.39,.06,.56,.06h5.62c2.08,0,3.6,.34,4.67,.9,1.18,.67,1.8,1.69,1.8,2.98,0,1.12-.51,2.08-1.46,2.81s-2.36,1.18-4.1,1.35v.17c1.74,.11,3.09,.39,4.1,.96,1.46,.84,2.19,2.02,2.19,3.65Zm-3.88-8.6c0-1.57-.45-2.64-1.29-3.21-.45-.28-1.29-.45-2.53-.45-.34,0-.84,0-1.52,.06v7.25h.28l1.57-.06c1.12-.06,1.97-.39,2.53-1.01,.67-.62,.96-1.46,.96-2.59Zm.84,8.32c0-2.08-.96-3.37-2.92-3.88-.56-.17-1.63-.22-3.21-.22v7.42c0,.51,.06,.73,.17,.84,.17,.11,.73,.17,1.63,.17,1.35,0,2.36-.39,3.15-1.12,.79-.67,1.18-1.74,1.18-3.21Z"></path><path class="cls-1" d="M247.68,97.38c0,.11-.22,.17-.62,.22-1.52,.06-2.81,.39-3.94,.84-.06,.06-.17,.06-.22,.06-.11,0-.17-.06-.17-.22v-1.41c-.9,1.07-2.14,1.57-3.71,1.57-1.41,0-2.42-.34-3.04-1.07-.22-.28-.39-.56-.45-.84-.06-.22-.06-.9-.06-2.02v-5.62c0-.56-.06-.9-.11-1.01s-.34-.17-.79-.17h-.39c-.51,.06-.79-.06-.79-.22,0-.11,.17-.17,.51-.17s.84,0,1.52,.06c.34,0,.51,.06,.56,.06,.67,0,1.29-.06,1.86-.11v6.92c0,1.29,.11,2.14,.28,2.53,.28,.67,.96,.96,1.86,.96,1.01,0,1.74-.34,2.25-1.07,.34-.51,.51-1.35,.51-2.53v-3.88c0-.56-.06-1.01-.11-1.29v-.84c0-.22-.06-.39-.17-.45-.11-.06-.34-.06-.67-.06-.79,0-1.24-.06-1.24-.22,0-.11,.22-.17,.62-.17h3.94v6.97c0,1.18,.06,1.97,.11,2.25,.06,.34,.22,.51,.45,.56s.79,.06,1.63,.06c.28,.17,.39,.22,.39,.34Z"></path><path class="cls-1" d="M257.07,95.08c0,.96-.39,1.8-1.24,2.47-.79,.67-1.8,1.01-2.92,1.01-.67,0-1.46-.22-2.36-.62-.22-.11-.45-.17-.67-.17-.28,0-.45,.17-.62,.45-.06,.22-.17,.28-.34,.28-.11,0-.22-.06-.22-.22v-3.32c0-.17,.06-.28,.22-.28s.22,.11,.28,.28c.11,.79,.34,1.35,.73,1.8,.79,.9,1.8,1.29,3.09,1.29,.67,0,1.24-.17,1.69-.51s.62-.84,.62-1.41c0-.67-.22-1.18-.73-1.57-.28-.22-.51-.39-.73-.45-.22-.11-.84-.34-1.97-.67-2.14-.67-3.21-1.74-3.21-3.15,0-.96,.34-1.74,1.07-2.36,.73-.62,1.63-.96,2.7-.96,.39,0,.96,.11,1.74,.28,.17,.06,.34,.06,.51,.06,.39,0,.67-.17,.73-.51,.06-.17,.17-.22,.28-.22s.22,.06,.22,.22v1.24c0,.39,.06,1.07,.17,1.91v.06c0,.11-.06,.22-.22,.22-.11,0-.28-.22-.45-.73-.22-.62-.56-1.07-1.12-1.46-.51-.39-1.12-.56-1.86-.56-.67,0-1.18,.17-1.63,.51-.45,.34-.62,.79-.62,1.35,0,.84,.62,1.46,1.91,1.91,2.02,.67,3.26,1.24,3.82,1.69,.79,.56,1.12,1.29,1.12,2.14Z"></path><path class="cls-1" d="M264.83,98.06c0,.17-.17,.22-.51,.22,0,0-.22,0-.67-.06-.56-.06-1.07-.06-1.46-.06h-2.98c-.11,.06-.22,.11-.34,.11-.22,0-.34-.06-.34-.17,0-.17,.17-.28,.56-.28,.73,0,1.12-.06,1.18-.11s.11-.39,.11-1.01v-7.59c0-.39-.06-.67-.06-.73-.06-.06-.17-.11-.34-.11h-1.12c-.22,0-.34-.06-.34-.17s.17-.17,.51-.17c1.29-.06,2.36-.28,3.26-.79l.28-.17c.17,.22,.22,.73,.22,1.35,0-.06,0,.06,0,.22v7.76c0,.67,0,1.07,.06,1.18s.11,.17,.28,.22c.28,.06,.73,.11,1.29,.11,.28,.06,.39,.11,.39,.22Zm-2.19-15.52c0,.73-.45,1.12-1.29,1.12-.39,0-.67-.11-.9-.34-.22-.22-.39-.45-.39-.79,0-.79,.45-1.18,1.29-1.18s1.29,.39,1.29,1.18Z"></path><path class="cls-1" d="M279.05,98.11c0,.11-.17,.17-.45,.17h-5.34c-.22,0-.39-.06-.39-.17,0-.06,.06-.11,.17-.17,.11,0,.45-.06,1.12-.06,.34,0,.56-.06,.62-.11s.11-.34,.11-.79v-4.78c0-1.8-.06-2.87-.22-3.26-.34-.73-.96-1.12-1.97-1.12-.96,0-1.74,.39-2.42,1.12-.17,.22-.28,.51-.28,.9v7.76c0,.22,.22,.28,.62,.34h.9c.17,0,.28,.06,.28,.17s-.11,.17-.34,.17h-5.23c-.28,0-.45-.06-.45-.17s.17-.17,.51-.17h.73c.28,0,.45-.06,.51-.17l.11-.39v-5.45c0-1.91,0-2.92-.06-3.15-.06-.22-.28-.28-.73-.28h-.84c-.39,0-.56-.06-.56-.17,0-.17,.22-.22,.62-.22,.56,0,1.18-.11,1.86-.28,.67-.17,1.12-.34,1.41-.56,.17-.11,.28-.22,.39-.22s.22,.17,.22,.45v1.18c1.01-1.12,2.31-1.69,3.88-1.69,1.41,0,2.36,.45,2.98,1.35,.34,.51,.51,1.46,.51,2.87v5.68c0,.51,.06,.84,.11,.9,.11,.11,.39,.17,.84,.17h.56c.17,0,.22,.06,.22,.17Z"></path><path class="cls-1" d="M290.86,95.53c0,.17-.17,.45-.45,.9-.28,.45-.62,.79-.9,1.01-.84,.73-1.91,1.12-3.32,1.12-1.74,0-3.21-.56-4.33-1.63-1.18-1.07-1.74-2.42-1.74-4.05s.56-3.04,1.69-4.16,2.47-1.69,4.16-1.69c1.35,0,2.53,.34,3.43,1.01s1.41,1.57,1.46,2.64c-.62,.06-1.41,.11-2.47,.11h-2.02c-.11,0-1.29,0-3.49,.06-.11,.56-.17,1.07-.17,1.57,0,1.69,.39,2.98,1.12,3.88s1.8,1.35,3.15,1.35c.79,0,1.41-.17,1.86-.45s.96-.9,1.52-1.74c.06-.11,.17-.22,.34-.22,.06,.11,.17,.17,.17,.28Zm-2.53-5.12c-.06-2.02-.9-2.98-2.47-2.98s-2.53,1.01-2.92,2.98h5.4Z"></path><path class="cls-1" d="M301.32,95.08c0,.96-.39,1.8-1.24,2.47-.79,.67-1.8,1.01-2.92,1.01-.67,0-1.46-.22-2.36-.62-.22-.11-.45-.17-.67-.17-.28,0-.45,.17-.62,.45-.06,.22-.17,.28-.34,.28-.11,0-.22-.06-.22-.22v-3.32c0-.17,.06-.28,.22-.28s.22,.11,.28,.28c.11,.79,.34,1.35,.73,1.8,.79,.9,1.8,1.29,3.09,1.29,.67,0,1.24-.17,1.69-.51s.62-.84,.62-1.41c0-.67-.22-1.18-.73-1.57-.28-.22-.51-.39-.73-.45-.22-.11-.84-.34-1.97-.67-2.14-.67-3.21-1.74-3.21-3.15,0-.96,.34-1.74,1.07-2.36,.73-.62,1.63-.96,2.7-.96,.39,0,.96,.11,1.74,.28,.17,.06,.34,.06,.51,.06,.39,0,.67-.17,.73-.51,.06-.17,.17-.22,.28-.22s.22,.06,.22,.22v1.24c0,.39,.06,1.07,.17,1.91v.06c0,.11-.06,.22-.22,.22-.11,0-.28-.22-.45-.73-.22-.62-.56-1.07-1.12-1.46-.51-.39-1.12-.56-1.86-.56-.67,0-1.18,.17-1.63,.51-.45,.34-.62,.79-.62,1.35,0,.84,.62,1.46,1.91,1.91,2.02,.67,3.26,1.24,3.82,1.69,.73,.56,1.12,1.29,1.12,2.14Z"></path><path class="cls-1" d="M311.72,95.08c0,.96-.39,1.8-1.24,2.47-.79,.67-1.8,1.01-2.92,1.01-.67,0-1.46-.22-2.36-.62-.22-.11-.45-.17-.67-.17-.28,0-.45,.17-.62,.45-.06,.22-.17,.28-.34,.28-.11,0-.22-.06-.22-.22v-3.32c0-.17,.06-.28,.22-.28s.22,.11,.28,.28c.11,.79,.34,1.35,.73,1.8,.79,.9,1.8,1.29,3.09,1.29,.67,0,1.24-.17,1.69-.51s.62-.84,.62-1.41c0-.67-.22-1.18-.73-1.57-.28-.22-.51-.39-.73-.45-.22-.11-.84-.34-1.97-.67-2.14-.67-3.21-1.74-3.21-3.15,0-.96,.34-1.74,1.07-2.36,.73-.62,1.63-.96,2.7-.96,.39,0,.96,.11,1.74,.28,.17,.06,.34,.06,.51,.06,.39,0,.67-.17,.73-.51,.06-.17,.17-.22,.28-.22s.22,.06,.22,.22v1.24c0,.39,.06,1.07,.17,1.91v.06c0,.11-.06,.22-.22,.22-.11,0-.28-.22-.45-.73-.22-.62-.56-1.07-1.12-1.46-.51-.39-1.12-.56-1.86-.56-.67,0-1.18,.17-1.63,.51-.45,.34-.62,.79-.62,1.35,0,.84,.62,1.46,1.91,1.91,2.02,.67,3.26,1.24,3.82,1.69,.79,.56,1.12,1.29,1.12,2.14Z"></path><path class="cls-1" d="M330.84,92.83c0,1.63-.56,2.98-1.69,4.05-1.12,1.07-2.53,1.63-4.22,1.63s-3.21-.56-4.39-1.63c-1.18-1.07-1.74-2.42-1.74-4.05s.56-3.04,1.74-4.16c1.12-1.12,2.59-1.63,4.27-1.63s3.21,.56,4.33,1.69c1.12,1.07,1.69,2.47,1.69,4.1Zm-2.64,0c0-1.86-.34-3.26-.96-4.27-.51-.73-1.29-1.12-2.42-1.12s-1.91,.51-2.53,1.46c-.62,.96-.9,2.31-.9,3.99s.34,2.98,.96,3.94,1.52,1.41,2.7,1.41c.9,0,1.52-.28,1.97-.9,.79-1.12,1.18-2.64,1.18-4.5Z"></path><path class="cls-1" d="M342.14,82.54c0,.34-.11,.62-.34,.84-.22,.22-.56,.34-.96,.34s-.67-.11-.9-.28c-.22-.22-.39-.45-.39-.73,0-.22,.11-.56,.39-.9,.06-.06,.11-.17,.11-.22,0-.39-.34-.56-.96-.56-1.07,0-1.8,.62-2.14,1.8-.17,.62-.28,1.74-.28,3.32v1.24h1.86c.39,0,.56,.06,.56,.22s-.22,.22-.73,.22h-1.69v9.78c0,.22,.28,.34,.79,.34,.84,0,1.24,0,1.35,.11,0,0,.06,.06,.06,.11,0,.11-.11,.17-.34,.17h-5.79c-.34,0-.51-.06-.51-.17s.11-.22,.39-.22c1.01,0,1.52-.06,1.63-.17q.06-.06,.06-.17l-.06-.34v-9.5h-1.24c-.11,0-.17-.06-.17-.22s.17-.22,.51-.22h.9c.06-2.14,.39-3.65,.96-4.55,.9-1.41,2.19-2.14,3.99-2.14,.84,0,1.52,.17,2.08,.51s.84,.79,.84,1.41Z"></path><path class="cls-1" d="M360.36,85.01c0,.22-.11,.34-.28,.34s-.34-.22-.39-.62c-.22-1.24-.67-2.08-1.41-2.64-.45-.34-1.18-.56-2.14-.67-.34-.06-1.12-.06-2.31-.06-.9,0-1.97,0-3.15,.06v7.42c2.47,0,3.99-.11,4.55-.39s.9-1.12,1.01-2.47c.06-.39,.17-.56,.34-.56s.28,.11,.28,.39c0,.17,0,.28-.06,.39-.06,1.12-.11,2.19-.11,3.21,0,1.29,.06,2.25,.11,2.98v.28c0,.22-.11,.28-.28,.28s-.22-.06-.28-.17-.11-.51-.22-1.12c-.17-1.01-.45-1.63-.9-1.91s-1.35-.39-2.7-.39c-.73,0-1.35,0-1.86,.06v7.42c0,.51,.22,.79,.67,.9,.22,.06,.67,.11,1.41,.06,.28,0,.45,.06,.45,.22s-.17,.22-.56,.22h-6.52c-.39,0-.56-.06-.56-.22,0-.11,.34-.22,1.01-.22s1.07-.11,1.18-.22c.11-.11,.17-.51,.17-1.18v-14.34c0-.28-.11-.51-.28-.56s-.67-.11-1.52-.11c-.34,0-.45-.06-.45-.22s.17-.22,.51-.22h.45c-.06,0,.9,0,2.81,0h4.67c3.26,0,5.23-.06,5.96-.17,0,.22,.06,.84,.17,1.86,.06,.67,.11,1.35,.22,1.86,0,.22,0,.39,0,.56Z"></path><path class="cls-1" d="M372.73,97.1c0,.28-.34,.56-1.01,.9-.67,.28-1.35,.45-1.97,.45-1.29,0-2.02-.62-2.08-1.8-.73,1.24-1.86,1.86-3.37,1.86-.84,0-1.52-.22-2.02-.62-.56-.45-.79-.96-.79-1.63,0-1.35,.96-2.47,2.81-3.26,.67-.28,1.8-.51,3.37-.79v-.62c0-1.46-.11-2.42-.28-2.92-.28-.84-1.01-1.29-2.08-1.29-.67,0-1.24,.17-1.69,.45-.45,.34-.67,.73-.67,1.18,0,.11,.11,.22,.34,.22s.45,.11,.67,.28c.17,.22,.28,.45,.28,.67,0,.73-.45,1.12-1.29,1.12-.45,0-.79-.11-1.07-.39s-.45-.56-.45-1.01c0-.79,.34-1.46,1.07-2.02,.79-.62,1.91-.9,3.26-.9,2.14,0,3.43,.51,3.88,1.52,.17,.39,.28,1.12,.28,2.25v4.67c0,.79,0,1.24,.06,1.35,.11,.62,.39,.9,.84,.9,.56,0,.96-.17,1.35-.51,.17-.17,.34-.28,.45-.28,.06,.06,.11,.11,.11,.22Zm-5.06-2.64v-1.8c-1.41,.28-2.42,.67-3.04,1.12-.62,.45-.9,1.07-.9,1.86,0,.51,.17,.96,.51,1.29,.34,.34,.79,.51,1.35,.51,.79,0,1.46-.39,1.97-1.18,.06-.22,.11-.84,.11-1.8Z"></path><path class="cls-1" d="M381.5,95.08c0,.96-.39,1.8-1.24,2.47-.79,.67-1.8,1.01-2.92,1.01-.67,0-1.46-.22-2.36-.62-.22-.11-.45-.17-.67-.17-.28,0-.45,.17-.62,.45-.06,.22-.17,.28-.34,.28s-.22-.06-.22-.22v-3.32c0-.17,.06-.28,.22-.28s.22,.11,.28,.28c.11,.79,.34,1.35,.73,1.8,.79,.9,1.8,1.29,3.09,1.29,.67,0,1.24-.17,1.69-.51s.62-.84,.62-1.41c0-.67-.22-1.18-.73-1.57-.28-.22-.51-.39-.73-.45-.22-.11-.84-.34-1.97-.67-2.14-.67-3.21-1.74-3.21-3.15,0-.96,.34-1.74,1.07-2.36,.73-.62,1.63-.96,2.7-.96,.39,0,.96,.11,1.74,.28,.17,.06,.34,.06,.51,.06,.39,0,.67-.17,.73-.51,.06-.17,.17-.22,.28-.22s.22,.06,.22,.22v1.24c0,.39,.06,1.07,.17,1.91v.06c0,.11-.06,.22-.22,.22-.11,0-.28-.22-.45-.73-.22-.62-.56-1.07-1.12-1.46-.51-.39-1.12-.56-1.86-.56-.67,0-1.18,.17-1.63,.51-.45,.34-.62,.79-.62,1.35,0,.84,.62,1.46,1.91,1.91,2.02,.67,3.26,1.24,3.82,1.69,.79,.56,1.12,1.29,1.12,2.14Z"></path><path class="cls-1" d="M395.95,98.06c0,.11-.17,.22-.51,.22h-5.29c-.22,0-.39-.06-.39-.22,0-.11,.34-.17,1.07-.17,.45,0,.67-.06,.79-.11s.11-.39,.11-.96v-5.06c0-1.52-.06-2.47-.22-2.81-.34-.79-1.07-1.12-2.14-1.12-.9,0-1.69,.34-2.25,1.07-.17,.22-.28,.73-.28,1.52v6.35c0,.45,0,.73,.06,.79,0,.17,.11,.28,.22,.28s.56,.06,1.24,.06c.22,0,.34,.06,.34,.22,0,.11-.11,.17-.28,.17h-5.51c-.22,0-.34-.06-.34-.17s.11-.17,.34-.17h.9c.45,0,.67-.11,.67-.34v-11.25c0-2.64-.06-4.1-.17-4.33-.11-.17-.56-.28-1.41-.28-.45,0-.67-.06-.67-.17s.06-.17,.17-.17,.45-.06,.96-.06c.96,0,1.91-.22,2.81-.62,.06-.06,.22-.06,.39-.11,.11,.22,.22,.84,.22,1.91v6.13c.84-1.07,2.02-1.57,3.49-1.57s2.64,.39,3.26,1.12c.34,.39,.51,.9,.62,1.57,.06,.22,.06,.79,.06,1.69v6.3c0,.17,.51,.22,1.52,.22,.17-.06,.22,0,.22,.06Z"></path><path class="cls-1" d="M402.98,98.06c0,.17-.17,.22-.51,.22,0,0-.22,0-.67-.06-.56-.06-1.07-.06-1.46-.06h-2.98c-.11,.06-.22,.11-.34,.11-.22,0-.34-.06-.34-.17,0-.17,.17-.28,.56-.28,.73,0,1.12-.06,1.18-.11s.11-.39,.11-1.01v-7.59c0-.39-.06-.67-.06-.73-.06-.06-.17-.11-.34-.11h-1.12c-.22,0-.34-.06-.34-.17s.17-.17,.51-.17c1.29-.06,2.36-.28,3.26-.79l.28-.17c.17,.22,.22,.73,.22,1.35,0-.06,0,.06,0,.22v7.76c0,.67,0,1.07,.06,1.18s.11,.17,.28,.22c.28,.06,.73,.11,1.29,.11,.28,.06,.39,.11,.39,.22Zm-2.14-15.52c0,.73-.45,1.12-1.29,1.12-.39,0-.67-.11-.9-.34-.22-.22-.39-.45-.39-.79,0-.79,.45-1.18,1.29-1.18s1.29,.39,1.29,1.18Z"></path><path class="cls-1" d="M416.25,92.83c0,1.63-.56,2.98-1.69,4.05-1.12,1.07-2.53,1.63-4.22,1.63s-3.21-.56-4.39-1.63-1.74-2.42-1.74-4.05,.56-3.04,1.74-4.16c1.12-1.12,2.59-1.63,4.27-1.63s3.21,.56,4.33,1.69c1.12,1.07,1.69,2.47,1.69,4.1Zm-2.64,0c0-1.86-.34-3.26-.96-4.27-.51-.73-1.29-1.12-2.42-1.12s-1.91,.51-2.53,1.46c-.62,.96-.9,2.31-.9,3.99s.34,2.98,.96,3.94c.62,.96,1.52,1.41,2.7,1.41,.9,0,1.52-.28,1.97-.9,.79-1.12,1.18-2.64,1.18-4.5Z"></path><path class="cls-1" d="M431.1,98.11c0,.11-.17,.17-.45,.17h-5.29c-.22,0-.39-.06-.39-.17,0-.06,.06-.11,.17-.17,.11,0,.45-.06,1.12-.06,.34,0,.56-.06,.62-.11s.11-.34,.11-.79v-4.78c0-1.8-.06-2.87-.22-3.26-.34-.73-.96-1.12-1.97-1.12-.96,0-1.74,.39-2.42,1.12-.17,.22-.28,.51-.28,.9v7.76c0,.22,.22,.28,.62,.34h.9c.17,0,.28,.06,.28,.17s-.11,.17-.34,.17h-5.23c-.28,0-.45-.06-.45-.17s.17-.17,.51-.17h.73c.28,0,.45-.06,.51-.17l.11-.39v-5.45c0-1.91,0-2.92-.06-3.15-.06-.22-.28-.28-.73-.28h-.9c-.39,0-.56-.06-.56-.17,0-.17,.22-.22,.62-.22,.56,0,1.18-.11,1.86-.28s1.12-.34,1.41-.56c.17-.11,.28-.22,.39-.22s.22,.17,.22,.45v1.18c1.01-1.12,2.31-1.69,3.88-1.69,1.41,0,2.36,.45,2.98,1.35,.34,.51,.51,1.46,.51,2.87v5.68c0,.51,.06,.84,.11,.9,.11,.11,.39,.17,.84,.17h.56c.17,0,.22,.06,.22,.17Z"></path></g></svg> 