<?xml version="1.0" encoding="UTF-8"?> <svg xmlns="http://www.w3.org/2000/svg" id="Layer_2" width="600" height="400" viewBox="0 0 600 400"><defs><style>.cls-1{fill:#3a357e;}</style></defs><g><path class="cls-1" d="M499.6,278.56h-33.7c-3.2-9.6-6.4-19.2-9.7-28.9h-55.5c-3.2,9.5-6.4,19.1-9.7,28.8h-50.3c1.4-.8,2.2-1.4,3.1-1.8,20.2-8.3,28-26.1,26.3-46.8-1.3-16.1-10.1-26.5-25.1-31.5-7.7-2.6-15.8-4.1-23.7-5.7-10.3-2.1-20.6-4-30.9-6-1.64-.28-3.24-.72-4.8-1.3-9.6-3.7-12.1-14.2-5.3-22,3.59-4.06,8.68-6.48,14.1-6.7,5.82-.35,11.65-.05,17.4,.9,9.3,1.5,15.2,7,17.1,16.5,.24,.89,.54,1.75,.9,2.6h35.8c-.4-9.4-2.9-17.8-8.3-25.2s-13.2-12-21.6-15.7h112.6c.7,1.7,1.6,3.6,2.3,5.6,15.7,42.3,31.37,84.57,47,126.8,.6,1.5,1.4,2.9,2.1,4.4-.1,2-.1,4-.1,6Zm-70.7-110.5c-.3,.1-.7,.1-1,.2-6,18.1-12.1,36.2-18.1,54.3,5.6,1.2,33.4,.9,37.2-.4-6.1-18-12.1-36.1-18.1-54.1Z"></path><path class="cls-1" d="M275.9,233.86h-33.2c-.4,1-.8,1.9-1.1,2.9-6.4,24.2-22.5,38.1-46.4,43.7-3.42,.72-6.91,1.09-10.4,1.1-8.3,.2-16.7,.3-25,0-23.4-.9-41-11.3-51.5-32.6-4.7-9.4-6.7-19.5-7.5-29.8-1-13.3-.7-26.6,2.6-39.7,6.6-26.5,24.2-42.6,51.1-46.6,14.8-2.2,29.6-1.9,44.1,1.9,23.6,6.1,37.7,21.4,42.8,45.1,.4,1.8,.7,3.6,1,5.4,1.8,11.3,7.8,19.6,18,24.9,8.1,4.2,16.9,5.9,25.8,7.5,10.6,1.9,21.3,3.9,31.9,6,1.94,.41,3.85,.98,5.7,1.7,5.5,2,9,5.6,9.6,11.6,.6,6.4-1.1,12.2-7,15.5-3.57,2.16-7.56,3.52-11.7,4-6.47,.52-12.98,.28-19.4-.7-12.1-2-17.5-8.2-19-20.3,.1-.6-.1-.9-.4-1.6Zm-68.1-44.1c-.6-2.3-.9-4-1.3-5.6-3-10.3-8.7-18.3-18.9-22.5-15.9-6.5-39.4-3.4-48.1,20.7-4.1,11.5-4.8,23.4-3.4,35.4,.7,6.3,2.42,12.45,5.1,18.2,6.8,14.2,19.5,20.7,35.6,19.3,15-1.3,25.9-11.1,29.7-26.2,.4-1.7,.9-3.5,1.4-5.6h34.1v-33.7h-34.2Z"></path><path class="cls-1" d="M242.6,163.36v-27.6h27.1c-7.1,2.9-12.8,5.9-17.3,10.6s-7.5,10.5-9.8,17Z"></path><path class="cls-1" d="M269,278.66h-25.8c-1.1-3.3-1.4-16.9-.4-24.7,3,5.8,5.8,11.3,10.8,14.9,4.8,3.5,10,6.4,15.4,9.8Z"></path></g><g><path class="cls-1" d="M248.2,119.96c1.42-1.04,3.14-1.57,4.9-1.5,2.6,0,4.6,.7,5.8,2.1,.6,.63,.99,1.44,1.1,2.3h-3.3c-.16-.49-.43-.94-.8-1.3-.75-.56-1.67-.85-2.6-.8-1.05-.04-2.06,.36-2.8,1.1-.73,.9-1.09,2.04-1,3.2-.07,1.14,.32,2.26,1.1,3.1,.72,.69,1.7,1.05,2.7,1,.95,.06,1.89-.26,2.6-.9,.37-.4,.64-.88,.8-1.4h3.3c-.28,1.34-1.07,2.53-2.2,3.3-1.34,.87-2.9,1.33-4.5,1.3-1.92,.1-3.8-.5-5.3-1.7-1.32-1.19-2.02-2.93-1.9-4.7-.23-1.95,.57-3.88,2.1-5.1Z"></path><path class="cls-1" d="M262.5,131.06v-12.4h3.3v4.7h6.2v-4.7h3.3v12.4h-3.3v-5.5h-6.2v5.5h-3.3Z"></path><path class="cls-1" d="M283,118.66h3.7l5.6,12.4h-3.6l-1-2.5h-5.8l-1.1,2.5h-3.5l5.7-12.4Zm-.2,7.7h4.1l-2-4.9-2.1,4.9Z"></path><path class="cls-1" d="M297.4,131.06h-3.3v-12.4h3.3v12.4Z"></path><path class="cls-1" d="M300.4,118.66h3.5l6.3,8.6v-8.6h3.1v12.4h-3.3l-6.4-8.8v8.8h-3.1v-12.4h-.1Z"></path><path class="cls-1" d="M324.8,127.26c.05,.49,.26,.94,.6,1.3,.8,.6,1.8,.89,2.8,.8,.64,0,1.28-.07,1.9-.2,.9-.3,1.4-.7,1.4-1.4,0-.4-.2-.7-.7-1-.71-.26-1.45-.47-2.2-.6l-1.7-.3c-1.21-.15-2.39-.48-3.5-1-1.02-.5-1.65-1.56-1.6-2.7,.02-1.15,.62-2.2,1.6-2.8,1.39-.81,2.99-1.19,4.6-1.1,1.5-.06,2.98,.28,4.3,1,1.12,.6,1.84,1.74,1.9,3h-3.2c-.09-.74-.59-1.36-1.3-1.6-.64-.22-1.32-.32-2-.3-.72-.05-1.45,.09-2.1,.4-.5,.3-.8,.6-.8,1.1,.04,.46,.36,.86,.8,1,.69,.21,1.39,.38,2.1,.5l2.8,.5c.95,.11,1.87,.42,2.7,.9,.88,.52,1.42,1.48,1.4,2.5-.03,1.17-.68,2.23-1.7,2.8-1.43,.8-3.06,1.18-4.7,1.1-1.7,.07-3.39-.31-4.9-1.1-1.11-.59-1.8-1.74-1.8-3h3.3v.2Z"></path><path class="cls-1" d="M348.6,118.66v2.2h-4.7v10.2h-3.3v-10.2h-4.8v-2.2h12.8Z"></path><path class="cls-1" d="M362.4,129.96c-1.2,1-2.9,1.4-5.2,1.4-1.84,.11-3.66-.38-5.2-1.4-1.6-1.2-2.5-3.11-2.4-5.1-.14-2,.77-3.93,2.4-5.1,1.2-1,2.9-1.4,5.2-1.4,1.84-.11,3.66,.38,5.2,1.4,1.63,1.17,2.54,3.1,2.4,5.1,.1,1.99-.8,3.9-2.4,5.1Zm-2.1-1.9c.83-.85,1.27-2.01,1.2-3.2,.17-2.2-1.47-4.13-3.68-4.3-.21-.02-.42-.02-.62,0-1.14-.06-2.25,.34-3.1,1.1-.81,.87-1.24,2.02-1.2,3.2-.09,1.19,.35,2.36,1.2,3.2,.86,.74,1.96,1.14,3.1,1.1,1.14,.08,2.27-.31,3.1-1.1h0Z"></path><path class="cls-1" d="M377.4,118.96c.56,.18,1.08,.49,1.5,.9,.3,.31,.56,.64,.8,1,.2,.4,.31,.85,.3,1.3,0,.62-.21,1.22-.6,1.7-.44,.64-1.13,1.07-1.9,1.2,.61,.19,1.16,.53,1.6,1,.36,.57,.53,1.23,.5,1.9v.8c-.04,.4,0,.81,.1,1.2,.08,.31,.3,.57,.6,.7v.3h-3.7c-.1-.22-.17-.46-.2-.7-.09-.36-.12-.73-.1-1.1v-1.2c.05-.58-.13-1.16-.5-1.6-.57-.34-1.24-.48-1.9-.4h-3.2v4.9h-3.2v-12.4h7.6c.78,.12,1.54,.29,2.3,.5Zm-6.8,1.9v3.3h3.6c.54,0,1.08-.06,1.6-.2,.59-.2,.97-.78,.9-1.4,.09-.65-.28-1.28-.9-1.5-.49-.14-.99-.21-1.5-.2h-3.7Z"></path><path class="cls-1" d="M394.9,120.86h-8.4v2.6h7.7v2.2h-7.7v3.2h8.8v2.2h-12v-12.4h11.6v2.2Z"></path><path class="cls-1" d="M407.7,118.66h3.7l5.6,12.4h-3.6l-1-2.5h-5.8l-1.1,2.5h-3.5l5.7-12.4Zm-.2,7.7h4.1l-2-4.9-2.1,4.9Z"></path><path class="cls-1" d="M429.7,122.56c-.32-.82-.98-1.48-1.8-1.8-.58-.21-1.19-.32-1.8-.3-2.2-.18-4.14,1.45-4.32,3.65-.02,.28-.02,.57,.02,.85-.14,1.22,.35,2.43,1.3,3.2,.89,.6,1.93,.91,3,.9,.95,.06,1.9-.19,2.7-.7,.66-.49,1.13-1.2,1.3-2h-3.7v-2.1h6.6v6.7h-2.2l-.3-1.5c-.48,.51-1.06,.92-1.7,1.2-1.01,.43-2.1,.63-3.2,.6-1.88,.05-3.72-.55-5.2-1.7-1.41-1.14-2.19-2.89-2.1-4.7-.07-1.84,.7-3.61,2.1-4.8,1.59-1.26,3.58-1.9,5.6-1.8,1.71-.07,3.41,.35,4.9,1.2,1.1,.65,1.86,1.74,2.1,3h-3.3v.1Z"></path><path class="cls-1" d="M447.9,120.86h-8.4v2.6h7.7v2.2h-7.7v3.2h8.8v2.2h-12v-12.4h11.6v2.2Z"></path></g></svg> 