<?xml version="1.0" encoding="UTF-8"?> <svg xmlns="http://www.w3.org/2000/svg" id="Layer_1" width="600" height="400" viewBox="0 0 600 400"><defs><style>.cls-1{fill:#3a357e;}</style></defs><path class="cls-1" d="M25,145.95h23.66c13.01,0,17.74,1.18,23.66,8.28,3.55,3.55,4.73,8.28,4.73,13.01,0,5.92-2.37,10.65-9.46,14.19,13.01,4.73,13.01,15.38,13.01,18.92,0,5.91-2.37,13.01-7.1,16.56-7.1,5.92-10.64,7.1-23.65,7.1H25v-78.06h0Zm20.11,29.57h5.91c2.37,0,7.1,0,7.1-5.92s-4.73-5.91-7.1-5.91h-5.91v11.83h0Zm0,30.75h8.28c2.37,0,8.28,0,8.28-7.1s-5.92-7.1-8.28-7.1h-8.28v14.19h0Z"></path><polygon class="cls-1" points="85.32 145.95 103.06 145.95 103.06 224.02 85.32 224.02 85.32 145.95"></polygon><path class="cls-1" d="M139.73,163.69c21.29,0,30.75,16.56,30.75,30.75s-9.46,31.94-30.75,31.94-31.94-17.74-31.94-31.94,10.65-30.75,31.94-30.75h0Zm0,46.13c7.1,0,13.01-5.91,13.01-15.38,0-8.28-5.91-14.19-13.01-14.19-8.28,0-14.19,5.91-14.19,14.19,0,9.46,5.91,15.38,14.19,15.38h0Z"></path><path class="cls-1" d="M205.97,163.69c21.29,0,31.94,16.56,31.94,30.75s-10.64,31.94-31.94,31.94-31.94-17.74-31.94-31.94c0-14.19,10.64-30.75,31.94-30.75h0Zm0,46.13c7.1,0,14.19-5.91,14.19-15.38,0-8.28-7.1-14.19-14.19-14.19s-14.19,5.91-14.19,14.19c0,9.46,7.09,15.38,14.19,15.38h0Z"></path><path class="cls-1" d="M241.45,166.06h16.56v5.92h0c1.18-2.37,5.91-8.28,16.56-8.28,4.73,0,11.83,2.37,16.56,10.64,3.55-5.91,9.46-10.64,18.93-10.64,3.54,0,10.64,1.18,15.38,5.91,4.73,5.92,5.91,9.46,5.91,22.47v31.94h-17.74v-30.75c0-4.73,0-13.01-8.28-13.01-10.64,0-10.64,8.28-10.64,11.83v31.94h-16.56v-31.94c0-2.37,0-11.83-9.46-11.83s-9.46,9.46-9.46,13.01v30.75h-17.74v-57.96h0Z"></path><path class="cls-1" d="M338.44,145.95h17.74v24.84c5.92-7.1,14.19-7.1,16.56-7.1,13.01,0,29.57,8.28,29.57,30.75,0,21.29-15.38,31.94-29.57,31.94-8.28,0-14.19-4.73-16.56-8.28h-1.18v5.92h-16.56v-78.06h0Zm31.94,63.87c8.28,0,14.19-7.1,14.19-15.38,0-7.1-5.91-14.19-14.19-14.19-9.47,0-14.19,7.1-14.19,14.19,0,8.28,4.73,15.38,14.19,15.38h0Z"></path><path class="cls-1" d="M467.36,206.27c-3.54,5.91-7.09,10.64-11.83,14.19-5.92,3.55-10.64,5.92-17.74,5.92-16.55,0-30.75-14.19-30.75-31.94,0-15.38,13.01-30.75,30.75-30.75s30.75,14.19,30.75,31.94v4.73h-43.76c1.18,7.1,7.1,10.65,13.01,10.65s8.28-2.37,10.64-4.73h18.93Zm-15.38-17.74c-1.18-3.55-4.73-10.64-14.19-10.64-8.28,0-11.83,7.1-13.01,10.64h27.2Z"></path><path class="cls-1" d="M475.64,166.06h16.56v5.92h0c2.37-1.18,9.46-7.1,16.56-5.92v16.56c-7.1,0-15.38,0-15.38,9.46v31.94h-17.74v-57.96h0Z"></path><path class="cls-1" d="M575,216.92c0,8.28-1.18,20.11-3.55,24.84-4.73,7.09-15.38,14.19-29.57,11.83-20.1-1.18-26.02-10.64-27.2-20.1h18.93c2.37,5.92,8.28,5.92,9.47,5.92,9.46,0,14.19-1.18,14.19-20.11v-1.18h0c-2.37,2.37-7.09,8.28-16.55,8.28-15.38,0-29.57-13.01-29.57-30.75,0-20.11,14.19-31.94,29.57-31.94,7.09,0,13.01,2.37,16.55,7.1h0v-4.73h17.74v50.85h0Zm-31.94-7.1c8.28,0,14.19-5.91,14.19-14.19,0-9.46-5.91-15.38-14.19-15.38-7.1,0-14.19,5.91-14.19,14.19,0,9.47,7.09,15.38,14.19,15.38h0Z"></path></svg> 