<?xml version="1.0" encoding="UTF-8"?> <svg xmlns="http://www.w3.org/2000/svg" id="Layer_2" width="600" height="400" viewBox="0 0 600 400"><defs><style>.cls-1{fill:#3a357e;}</style></defs><g id="Layer_2-2"><g id="Logos"><g id="FN_Color1"><polygon class="cls-1" points="385.15 114.96 385.15 156.93 397.24 156.93 397.24 207.12 335.09 114.96 300.42 114.96 300.42 179.41 276.97 179.41 276.97 244.59 261.09 244.59 261.09 285.04 338.23 285.04 338.23 244.59 323.11 244.59 323.11 183.2 394.57 285.04 443.39 285.04 443.39 156.93 457 156.93 457 114.96 385.15 114.96 385.15 114.96"></polygon><polygon class="cls-1" points="255.7 154.68 209.57 154.68 209.57 182.39 247.38 182.39 247.38 220.59 209.57 220.59 209.57 244.59 233.01 244.59 233.01 284.28 143 284.28 143 244.59 158.12 244.59 158.12 156.17 143 156.17 143 114.96 300.34 114.96 300.34 179.41 255.7 179.41 255.7 154.68 255.7 154.68"></polygon></g></g></g></svg> 