<?xml version="1.0" encoding="UTF-8"?> <svg xmlns="http://www.w3.org/2000/svg" id="abc_news" width="600" height="400" viewBox="0 0 600 400"><defs><style>.cls-1{fill:#3a357e;}</style></defs><g id="type"><g><path class="cls-1" d="M241.2,165.42c-3.64-3.78-7.55-6.07-10.24-6.07h-2.43v-2.1h2.02c.94,0,11.99,.45,13.07,.45,1.75,0,6.86-.45,7.94-.45h2.15l51.27,55.91v-44.1c0-7.01-3.09-9.71-10.9-9.71h-2.29v-2.1h2.42c.27,0,11.84,.45,12.78,.45,1.34,0,9.02-.45,10.5-.45h1.48l.13,2.1c-7.14,.54-9.03,2.43-9.03,8.63v69.72h-2.42l-61.22-66.74v50.22c0,10.53,2.42,13.37,11.31,13.37h2.29v2.25h-2.56c-1.88,0-11.17-.45-13.32-.45-1.21,0-9.84,.45-11.72,.45h-2.16v-2.25c9.03-.82,10.92-2.3,10.92-8.78v-60.35h0Z"></path><path class="cls-1" d="M334.01,166.22c0-5.26-2.03-6.88-8.36-6.88h-2.02v-2.1h5.25c3.64,0,23.31,.45,23.45,.45,2.82,0,21.51-.45,25.53-.45h5.39l.27,17.33h-2.09c-.41-9.04-4.5-12.68-13.91-12.68h-18.82v30.64h16.27c6.32,0,9.82-2.97,10.76-9.32l2.4,.14v24.19h-2.27c-1.07-7.56-4.97-10.53-14.39-10.53h-12.91v27.94c0,4.6,2.29,6.89,6.86,6.89h13.44c8.73,0,15.06-3.92,18.83-12.02h2.43l-5.66,16.97c-3.91,0-22.45-.45-28.63-.45-4.17,0-24.25,.31-28.83,.45h-3.51v-2.25h2.16c6.33-.14,8.36-1.76,8.36-7.02v-61.3h0Z"></path><path class="cls-1" d="M463.38,237.85h-3.77l-15.37-41.95-15.77,41.95h-3.64l-26.28-70.41c-2.02-5.4-3.91-7.55-7.42-8.22v-1.97h2.29c1.48,0,8.9,.45,10.65,.45,1.48,0,9.16-.45,10.78-.45h2.43v2.1c-3.9,.14-5.53,1.22-5.53,3.37,0,1.22,.41,2.97,1.08,4.86l18.47,49.91,10.51-28.46-6.87-19.15c-2.97-8.23-5.53-10.38-12-10.52v-2.1h2.16c1.89,0,11.59,.45,13.89,.45,1.88,0,11.59-.45,13.74-.45h3.24v2.1h-3.24c-4.44,0-6.6,1.08-6.6,3.37,0,1.22,.54,3.37,1.35,5.53l17.93,49.64,14.15-42.08c1.75-5.4,2.56-8.9,2.56-11.06,0-3.78-1.88-5.4-6.06-5.4h-2.43v-2.1h.68c1.88,0,6.6,.45,9.43,.45,1.34,0,6.59-.45,9.15-.45h.95v2.1c-3.37,.95-5.12,3.37-7.8,11.6l-22.64,66.9Z"></path><path class="cls-1" d="M494.45,218.33c2.15,5.25,4.03,7.67,7.65,10.36,4.57,3.5,10.61,5.25,17.33,5.25,11.55,0,19.34-6.06,19.34-14.81,0-6.46-3.76-9.97-17.68-16.56-13.49-6.47-16.84-9.69-19.66-12.39-4.16-4.44-5.9-8.48-5.9-13.86,0-12.39,10.06-20.59,25.3-20.59,4.58,0,9.58,.67,14.97,2.01,2.16,.53,4.32,.8,5.53,.8,1.08,0,1.62-.27,2.02-1.16h2.32l.27,16.96h-1.91c-1.21-4.04-2.02-5.79-3.78-8-3.78-4.44-9.71-6.86-17.33-6.86-9.67,0-15.99,4.58-15.99,11.44,0,5.92,3.63,9.29,16.53,15.21,16.52,7.67,26.54,14.54,26.54,27.2,0,14.54-11.9,24.35-29.49,24.35-4.43,0-8.87-.53-14.24-1.74-1.88-.4-3.89-.67-4.83-.67-1.61,0-2.14,.27-3.22,1.51h-2.28l-.27-1.89c-1.08-6.2-2.29-11.98-3.24-15.91l2.03-.67Z"></path></g><path class="cls-1" d="M96.51,200c0,5.9-4.78,10.67-10.67,10.67s-10.67-4.78-10.67-10.67,4.78-10.67,10.67-10.67,10.67,4.78,10.67,10.67Zm40.43-10.67c-5.9,0-10.67,4.78-10.67,10.67s4.78,10.67,10.67,10.67,10.67-4.78,10.67-10.67c0-5.9-4.78-10.67-10.67-10.67Zm86.93,10.67c0,48.01-38.92,86.93-86.93,86.93s-86.93-38.92-86.93-86.93,38.92-86.93,86.93-86.93,86.93,38.92,86.93,86.93Zm-114.02,0c0-13.26-10.75-24.02-24.02-24.02s-24.02,10.75-24.02,24.02,10.75,24.02,24.02,24.02c6.97,0,10.67-4.53,10.67-4.53v4.14h13.34v-23.63h0Zm51.1,0c0-13.26-10.75-24.02-24.02-24.02-6.47,0-10.67,3.51-10.67,3.51v-15.24s-13.34,0-13.34,0v35.75c0,13.26,10.75,24.02,24.02,24.02,13.26,0,24.02-10.75,24.02-24.02Zm50.9,3.06h-13.59c-1.32,4.4-5.39,7.62-10.22,7.62-5.9,0-10.67-4.78-10.67-10.67s4.78-10.67,10.67-10.67c4.83,0,8.91,3.21,10.22,7.62h13.59c-1.5-11.82-11.59-20.96-23.82-20.96-13.26,0-24.02,10.75-24.02,24.02s10.75,24.02,24.02,24.02c12.23,0,22.31-9.14,23.82-20.96Z"></path></g></svg> 