<?xml version="1.0" encoding="UTF-8"?> <svg xmlns="http://www.w3.org/2000/svg" id="Layer_2" width="600" height="400" viewBox="0 0 600 400"><defs><style>.cls-1{fill:#3a357e;}</style></defs><path class="cls-1" d="M64.96,232.6H.2c-.2-1-.28-63-.1-64.98,.04-.04,.06-.07,.09-.1,.03-.03,.06-.07,.1-.07,21.16-.02,42.32-.04,63.49-.05,.37,0,.74,0,1.03,0,.1,.11,.14,.14,.16,.17,.02,.03,.05,.07,.06,.1,.02,.16,.05,.33,.05,.49,0,21.33,0,42.66,0,63.99,0,.12-.05,.23-.11,.45Zm-43.86-18.95c-.87-.57-.92-1.25-.88-1.97,.03-.58,0-1.16,0-1.74,0-.91-.02-1.83,0-2.74,.02-.78,.17-.91,.97-.94,.58-.02,1.16,.02,1.74,0,.68-.03,1.04,.27,1.3,.9,.52,1.26,1.1,2.49,1.68,3.73,.41,.88,.97,1.72,.32,2.73,1.55,.21,5.75,.17,6.65-.06-.31-.53-.67-1.02-.92-1.57-.85-1.83-1.64-3.69-2.48-5.53-.33-.73-.32-.85,.26-1.33,.5-.42,1.01-.85,1.43-1.34,.98-1.16,1.18-2.62,1.24-4.06,.07-1.74,.05-3.48,0-5.22-.02-1.07-.06-2.15-.26-3.19-.41-2.09-1.6-3.59-3.66-4.31-1.21-.42-2.46-.64-3.75-.64-3.15,0-6.3,0-9.45,0-.3,0-.61,.05-1.13,.09,.98,.9,.85,1.9,.85,2.89,0,7.3,0,14.6,0,21.9,0,.81,.14,1.65-.62,2.43h6.71Zm14.33-.06c1.04,.16,2.02,.13,2.99,.13,1.04,0,2.07,0,3.11,0h2.99c1.04,0,2.07,.02,3.11,0,.98-.03,1.97,.14,2.92-.12,.21-2.44,.13-4.56-.16-5.22-.43,.13-.84,.37-1.26,.37-2.32,.04-4.64,.03-6.97,.01-.86,0-.97-.15-1-1.04,0-.25,0-.5,0-.75,0-5.89,0-11.78,0-17.66,0-.94-.02-1.85,.69-2.66h-6.27c.72,.55,.61,1.28,.61,1.99,0,7.38,0,14.76,0,22.14,0,.98,.18,1.99-.74,2.81Z"></path><path class="cls-1" d="M517.91,199.78c0,3.78,.02,7.55,0,11.33-.02,2.68-.96,5.09-2.52,7.24-1.86,2.58-4.49,3.95-7.54,4.56-1.44,.29-2.93,.49-4.4,.51-5.73,.06-11.46,.03-17.18,.01-.49,0-.99-.07-1.45-.21-.73-.22-.88-.67-.53-1.3,.04-.07,.07-.17,.13-.21,.93-.64,.87-1.58,.87-2.55-.01-12.99-.01-25.98,0-38.98,0-.85,.03-1.64-.76-2.23-.37-.28-.32-.76-.19-1.16,.14-.44,.55-.44,.93-.44,1.58,0,3.15,0,4.73,0,5.02,0,10.05-.04,15.07,.02,2.59,.03,5.09,.6,7.31,1.98,2.16,1.34,3.74,3.2,4.62,5.63,.64,1.77,.96,3.56,.93,5.45-.05,3.44-.01,6.89-.01,10.34h0Zm-22.61,14.2c2.22,0,4.29,.01,6.36-.01,.44,0,.88-.17,1.33-.23,2.82-.36,5.14-2.88,5.17-5.88,.06-5.47,.04-10.95,0-16.42-.01-1.53-.64-2.86-1.71-4-1.26-1.33-2.93-1.7-4.6-1.81-2.1-.14-4.22-.02-6.34,0-.07,0-.13,.09-.22,.15v28.19Z"></path><path class="cls-1" d="M579.53,222.94c-.56,.08-1.12,.23-1.69,.24-2.86,.02-5.73,0-8.59,.02-.84,0-1.55-.17-2.04-1.02,.19-.3,.32-.69,.59-.91,.64-.51,.68-1.16,.68-1.89-.01-7.47,0-14.94,0-22.41,0-5.77,0-11.54,0-17.31,0-.73-.05-1.38-.68-1.89-.27-.22-.39-.61-.56-.87,.28-.68,.75-.81,1.34-.81,1.62,.02,3.24,0,4.86,0,4.48,0,8.97,0,13.45,0,2.26,0,4.43,.44,6.41,1.57,2.23,1.27,3.87,3.06,4.74,5.51,.57,1.61,.87,3.24,.84,4.97-.05,3.78,.07,7.56-.05,11.33-.1,3.25-1.29,6.11-3.71,8.37-.48,.44-1.06,.77-1.65,1.19,.29,.71,.57,1.43,.89,2.14,1.07,2.33,2.15,4.65,3.23,6.98,.05,.11,.12,.22,.16,.34,.29,1.07,.9,1.92,1.69,2.69,.9,.88,.71,1.48-.5,1.84-.35,.1-.73,.16-1.09,.16-2.99,.01-5.98,0-8.97,.01-.8,0-1.47-.19-2.01-1,.22-.33,.42-.73,.71-1.06,.35-.41,.36-.79,.15-1.25-.76-1.65-1.49-3.32-2.24-4.97-.62-1.35-1.25-2.7-1.9-4.1h-5.3c-.03,.29-.09,.6-.09,.92,0,2.49,.03,4.98-.02,7.47-.02,.82,.18,1.44,.83,1.95,.51,.4,.88,.89,.53,1.79Zm-1.33-37.6c0,2.69,0,5.18,0,7.66,0,2.49,0,4.98,0,7.47,0,.88,.12,1.04,.86,1.03,2.39-.02,4.8,.19,7.18-.25,.99-.18,1.85-.53,2.28-1.64,.36-.94,.6-1.89,.61-2.87,.03-2.28,.03-4.56,0-6.84-.01-.69-.08-1.41-.29-2.07-.31-1.01-.83-1.95-1.98-2.2-.8-.17-1.63-.25-2.45-.27-1.33-.04-2.65-.01-3.98-.01-.7,0-1.39,0-2.23,0Z"></path><path class="cls-1" d="M140.62,209.39c1.23,2.64,2.44,5.22,3.64,7.81,.28,.6,.53,1.21,.78,1.82,.41,1,.95,1.89,1.78,2.64,.67,.6,.44,1.42-.42,1.7-.23,.07-.49,.08-.73,.08-3.24,0-6.48,.01-9.71,0-.4,0-.82-.1-1.19-.27-.49-.22-.61-.67-.35-1.15,.24-.43,.55-.82,.84-1.24-.35-.83-.69-1.67-1.06-2.5-.96-2.11-1.96-4.2-2.88-6.32-.34-.77-.8-1.02-1.62-.98-1.32,.07-2.64,.02-4.03,.02-.03,.43-.07,.74-.07,1.06,0,2.57,.02,5.15-.02,7.72,0,.71,.12,1.3,.71,1.74,.1,.07,.18,.17,.26,.26,.25,.27,.69,.54,.47,.92-.18,.31-.6,.54-.95,.69-.25,.11-.57,.04-.86,.04-2.91,0-5.81,.01-8.72,0-.44,0-.91-.07-1.32-.24-.61-.25-.72-.78-.33-1.31,.14-.2,.4-.33,.5-.55,.21-.43,.38-.89,.52-1.35,.07-.23,.01-.49,.01-.74,0-12.95,0-25.9,.01-38.86,0-1-.07-1.9-.92-2.57-.33-.26-.41-.63-.27-1.01,.16-.43,.55-.44,.93-.44,1.87,0,3.74,0,5.6,0,4.44,0,8.88-.03,13.33,.01,2.26,.02,4.41,.57,6.36,1.74,2.66,1.6,4.16,4.05,4.83,7.02,.18,.8,.27,1.63,.28,2.45,.03,4.03,.06,8.05,0,12.08-.06,3.92-1.66,7.09-4.9,9.37-.13,.09-.27,.19-.49,.35Zm-15-7.68c.32,.03,.52,.06,.72,.06,2.39,0,4.79,.09,7.17-.25,.71-.1,1.32-.35,1.84-.9,.71-.75,.91-1.68,.93-2.61,.05-2.98,.06-5.97,0-8.95-.03-1.36-.65-2.51-1.95-3.06-.66-.28-1.44-.37-2.16-.39-1.9-.05-3.81-.02-5.72-.01-.27,0-.54,.08-.82,.12v15.98Z"></path><path class="cls-1" d="M464.87,220.81c-.68-2.53-1.27-4.79-1.89-7.05-.28-1.01-.3-1.02-1.37-1.02-3.57,0-7.14,0-10.71,0-1.01,0-1,.01-1.29,1.03-.63,2.25-1.27,4.51-1.92,6.8,.31,.32,.64,.64,.93,.99,.42,.5,.27,1.13-.36,1.38-.34,.13-.72,.24-1.08,.24-2.99,.02-5.98,.02-8.97,0-.28,0-.58-.06-.84-.16-.72-.28-1.05-1.12-.5-1.57,1.33-1.1,1.34-2.7,1.75-4.12,1.14-3.86,2.15-7.76,3.18-11.66,1.05-3.93,2.06-7.87,3.11-11.81,.85-3.18,1.72-6.35,2.59-9.52,.45-1.67,.9-3.33,1.38-4.99,.17-.58,.2-1.1-.22-1.61-.15-.18-.24-.43-.27-.66-.08-.65,.15-.92,.8-.97,.21-.02,.41,0,.62,0,4.28,0,8.55,0,12.83,0,1.57,0,1.82,.45,1.01,1.85-.22,.38-.25,.71-.12,1.16,.76,2.73,1.45,5.48,2.18,8.22,.61,2.31,1.23,4.61,1.86,6.91,.85,3.14,1.71,6.27,2.56,9.4,.56,2.06,1.11,4.13,1.66,6.2,.87,3.26,1.75,6.51,2.58,9.78,.19,.75,.7,1.19,1.18,1.7,.73,.77,.58,1.38-.45,1.7-.31,.1-.64,.15-.97,.15-2.91,.01-5.81,.02-8.72,0-.4,0-.82-.1-1.2-.24-.63-.24-.81-.89-.36-1.37,.31-.33,.72-.56,.99-.76Zm-8.6-32.6c-1.38,5.27-2.69,10.25-4,15.25h8.03c-1.33-5.03-2.64-9.99-4.03-15.25Z"></path><path class="cls-1" d="M259.15,222.4c.05-.08,.07-.18,.13-.22,1.16-.8,1.1-1.81,.7-3.03-.66-1.98-1.15-4.02-1.73-6.09h-12.8c-.18,.6-.38,1.22-.55,1.84-.44,1.63-.81,3.27-1.3,4.88-.19,.63-.23,1.12,.31,1.55,.06,.05,.11,.12,.16,.19,.68,1.02,.34,1.77-.87,1.92-.16,.02-.33,0-.5,0-2.95,0-5.89,0-8.84,0-.32,0-.66-.05-.96-.16-.77-.3-.98-.87-.43-1.43,1.09-1.1,1.32-2.53,1.7-3.91,.97-3.57,1.94-7.14,2.9-10.71,.74-2.78,1.45-5.57,2.19-8.34,.83-3.1,1.68-6.18,2.51-9.28,.91-3.37,1.78-6.75,2.72-10.12,.17-.59,.09-.98-.24-1.48-.65-1-.26-1.63,.97-1.64,4.44-.01,8.88,0,13.32,0,.21,0,.42,0,.61,.06,.57,.19,.88,.82,.49,1.27-.87,1-.49,2.02-.21,3.04,.93,3.41,1.91,6.81,2.84,10.22,1.43,5.23,2.85,10.47,4.24,15.71,.89,3.34,1.72,6.69,2.59,10.03,.32,1.23,.64,2.46,1,3.69,.08,.26,.29,.49,.49,.68,.17,.17,.43,.25,.61,.42,.64,.61,.49,1.46-.32,1.78-.3,.12-.64,.17-.96,.17-3.07,.01-6.14,0-9.21,.01-.78,0-1.39-.18-1.56-1.05Zm-7.19-33.47c-.08,.02-.16,.04-.24,.06-1.28,4.86-2.56,9.73-3.87,14.7h8c-1.31-4.98-2.6-9.87-3.9-14.76Z"></path><path class="cls-1" d="M170.75,185.59v9.14c.42,.02,.79,.05,1.15,.05,2.53,0,5.06-.02,7.6,.02,.72,.01,1.29-.14,1.74-.72,.12-.16,.28-.31,.44-.44,.56-.49,1.23-.3,1.42,.41,.07,.27,.04,.58,.04,.87,0,2.91,0,5.81,0,8.72,0,.25,.02,.5-.02,.75-.13,.74-.7,1.02-1.37,.68-.18-.09-.4-.19-.51-.34-.48-.65-1.14-.71-1.87-.7-2.45,.03-4.9,.01-7.35,.01h-1.27v9.87c.31,.03,.59,.08,.86,.08,3.82,0,7.64-.01,11.46,.02,.69,0,1.21-.16,1.62-.7,.1-.13,.22-.25,.36-.35,.53-.39,1.04-.29,1.32,.31,.15,.32,.24,.71,.24,1.07,.02,2.49-.03,4.98,.03,7.47,.02,1.01-.53,1.67-1.65,1.66-7.97-.03-15.94-.02-23.91-.02-.17,0-.34,.01-.5-.02-.75-.15-1.17-.94-.66-1.49,.88-.94,.8-2.02,.8-3.13,0-12.87,0-25.74,.01-38.6,0-.91-.16-1.67-.71-2.42-.63-.85-.33-1.39,.72-1.42,1.04-.02,2.08,0,3.11,0,6.89,0,13.78,0,20.67,0,.25,0,.5,0,.75,0,1.04,.03,1.34,.31,1.34,1.33,.01,2.32,0,4.65,0,6.97,0,.29-.02,.58,0,.87,.05,.56-.15,.99-.66,1.22-.5,.22-.91-.02-1.19-.42-.5-.7-1.19-.77-1.97-.77-3.57,.02-7.14,.01-10.71,.01-.41,0-.82,0-1.35,0Z"></path><path class="cls-1" d="M555.77,176.88c0,2.98,0,5.96,0,8.95,0,.38,0,.79-.44,.94-.4,.13-.89,.2-1.15-.18-.76-1.11-1.87-1.01-3-1-3.32,.02-6.64,0-9.96,0-.41,0-.82,0-1.2,0-.23,1-.29,6.81-.12,9.07,.21,.04,.44,.12,.67,.12,2.78,0,5.56,0,8.34,.02,.55,0,.95-.16,1.31-.56,.25-.27,.54-.52,.85-.71,.55-.33,.97-.2,1.18,.38,.15,.42,.25,.88,.25,1.32,.02,2.7,.02,5.39,0,8.09,0,.44-.1,.91-.25,1.32-.21,.56-.78,.7-1.3,.4-.04-.02-.07-.05-.1-.08-.91-.97-2.08-.99-3.3-.96-2.12,.05-4.23,.01-6.35,.01h-1.2c-.21,1.02-.27,7.91-.1,9.84,.25,.04,.53,.11,.8,.11,3.94,0,7.88,0,11.83,.02,.65,0,1.1-.2,1.51-.67,.26-.3,.54-.73,1.02-.54,.58,.22,.71,.72,.7,1.32-.02,2.66,0,5.31-.01,7.97,0,.91-.33,1.26-1.23,1.36-.16,.02-.33,0-.5,0-7.8,0-15.6,0-23.4,0-.4,0-.83-.07-1.2-.22-.68-.29-.87-.92-.3-1.37,1.01-.79,.97-1.8,.97-2.9-.01-12.86-.02-25.73,0-38.59,0-.97-.2-1.78-.87-2.47-.23-.24-.51-.49-.33-.86,.18-.39,.49-.67,.97-.66,.25,0,.5,0,.75,0,7.8,0,15.6,0,23.4,0,.57,0,1.17-.09,1.73,.52Z"></path><path class="cls-1" d="M426.55,186.77c-.6,.16-1.07,.05-1.39-.41-.49-.69-1.17-.79-1.96-.78-3.61,.03-7.22,.01-10.83,.01-.37,0-.74,0-1.09,0-.26,.91-.32,7.59-.08,9.14,.3,.02,.62,.05,.94,.05,2.57,0,5.15-.02,7.72,.02,.71,0,1.3-.12,1.74-.71,.12-.16,.28-.31,.44-.44,.6-.53,1.29-.3,1.45,.5,.04,.2,.02,.41,.02,.62,0,2.99,0,5.98,0,8.97,0,.25,.03,.51-.03,.74-.15,.63-.74,.88-1.34,.58-.18-.09-.4-.18-.51-.34-.5-.73-1.23-.72-1.99-.71-2.41,.02-4.81,0-7.22,0h-1.28v9.87c.37,.03,.72,.07,1.08,.07,3.69,0,7.39-.01,11.08,.02,.7,0,1.32-.06,1.75-.68,.02-.03,.05-.06,.09-.09,.38-.24,.73-.63,1.23-.41,.58,.25,.64,.78,.64,1.36-.02,2.53-.05,5.06,.01,7.6,.02,1.11-.56,1.7-1.75,1.69-6.77-.04-13.53-.02-20.3-.02-.95,0-1.91,0-2.86,0-.21,0-.42,0-.62,0-.52,0-1.03-.15-1.28-.61-.31-.56-.01-1.12,.39-1.45,.75-.62,.76-1.39,.76-2.23-.01-12.91-.01-25.82,0-38.73,0-.85-.01-1.65-.72-2.25-.12-.1-.18-.27-.27-.41-.51-.84-.26-1.34,.7-1.39,.25-.01,.5,0,.75,0,7.76,0,15.52,0,23.29,0,.25,0,.5-.01,.75,0,.79,.05,1.13,.36,1.16,1.14,.03,.79,0,1.58,0,2.37,0,1.83,0,3.65,0,5.48,0,.51,0,1-.44,1.42Z"></path><path class="cls-1" d="M217.76,185.59v1.36c0,10.83,0,21.66-.01,32.49,0,.88,.19,1.59,.83,2.24,.74,.73,.49,1.46-.52,1.71-.28,.07-.58,.05-.87,.05-2.86,0-5.73,0-8.59,0-.37,0-.75-.03-1.09-.15-.78-.28-1.06-1.11-.46-1.66,.71-.65,.75-1.39,.75-2.24-.01-10.75,0-21.49,0-32.24v-1.43c-.33-.05-.6-.12-.88-.12-2.03,0-4.07,.02-6.1-.02-.64-.01-1.13,.14-1.52,.65-.1,.13-.22,.25-.35,.35-.65,.5-1.44,.2-1.6-.61-.04-.2-.02-.41-.02-.62,0-2.49,0-4.98,0-7.47,0-1.29,.23-1.51,1.54-1.51,9.34,0,18.67,0,28.01,0,1.24,0,1.57,.29,1.58,1.51,.02,2.49,.01,4.98,0,7.47,0,.24-.04,.5-.12,.72-.32,.87-.99,1.08-1.59,.37-.65-.76-1.4-.88-2.31-.86-2.15,.04-4.31,.01-6.67,.01Z"></path><path class="cls-1" d="M317.69,213.91c.33,.02,.54,.05,.74,.05,3.82,0,7.64,0,11.46,.01,.71,0,1.3-.19,1.78-.71,.14-.15,.29-.31,.46-.42,.43-.26,.93-.15,1.16,.32,.16,.32,.27,.7,.28,1.06,.02,2.49,.06,4.98,0,7.47-.04,1.68-.7,1.75-1.79,1.75-7.76-.02-15.53,0-23.29-.02-.36,0-.75-.03-1.09-.15-.78-.28-1.08-1.16-.45-1.66,1.05-.84,.98-1.89,.98-3.02-.01-12.54,0-25.07-.01-37.61,0-.45-.04-.91-.1-1.35-.09-.62-.3-1.17-.8-1.62-.24-.21-.43-.65-.38-.95,.08-.51,.57-.65,1.05-.7,.16-.02,.33,0,.5,0,3.07,0,6.14,0,9.22,0,.41,0,.82-.06,1.17,.28,.43,.44,.48,.86,0,1.24-.7,.53-.91,1.21-.91,2.05,.01,10.96,0,21.92,.01,32.88,0,.33,.03,.65,.05,1.09Z"></path><path class="cls-1" d="M373.69,213.97c1.69,0,3.19,0,4.68,0,2.16,0,4.32,.02,6.47-.01,.74-.01,1.48-.1,2.2-.27,.33-.07,.62-.39,.88-.64,.3-.29,.64-.42,1.02-.26,.4,.17,.68,.47,.68,.95,0,.21,0,.42,0,.62,0,2.41-.05,4.82,.02,7.22,.04,1.42-.58,1.88-1.81,1.88-7.76-.03-15.52-.01-23.28-.03-.44,0-.91-.08-1.31-.25-.55-.23-.77-.86-.35-1.2,1.3-1.08,1.08-2.5,1.08-3.89,0-12.62,0-25.23,.02-37.85,0-.85-.17-1.49-.81-2.08-.77-.72-.55-1.45,.46-1.72,.27-.07,.57-.06,.86-.06,2.99,0,5.98,0,8.96,0,.17,0,.33,0,.5,0,.48,.01,.78,.31,.94,.7,.15,.37,.03,.76-.31,1-.87,.6-.9,1.46-.9,2.41,.02,10.67,.01,21.33,.01,32,0,.45,0,.89,0,1.49Z"></path><path class="cls-1" d="M288.27,176.36c1.62,0,3.24,0,4.85,0,.42,0,.89-.05,1.05,.45,.14,.45,.14,.94-.29,1.25-.85,.61-.91,1.45-.91,2.41,.02,12.9,.02,25.8,0,38.7,0,.91,.12,1.65,.86,2.31,.8,.72,.45,1.69-.61,1.92-.24,.05-.5,.03-.74,.03-2.9,0-5.81,.01-8.71-.01-.44,0-.9-.1-1.31-.28-.47-.2-.57-.72-.33-1.16,.04-.07,.09-.15,.16-.19,1.04-.67,.98-1.7,.98-2.75-.01-12.9-.01-25.8,0-38.7,0-1-.14-1.85-.93-2.57-.54-.49-.28-1.21,.45-1.38,.28-.07,.58-.03,.87-.03,1.53,0,3.07,0,4.6,0Z"></path><path class="cls-1" d="M20.29,201.53v-10.1c.27-.04,.55-.11,.82-.11,1.24-.01,2.48-.02,3.72,0,1.37,.02,2.16,.84,2.4,2.18,.23,1.31,.27,2.63,.2,3.94-.04,.85-.22,1.7-.44,2.53-.27,1-.97,1.54-1.96,1.56-1.53,.03-3.06,0-4.74,0Z"></path></svg> 