<?xml version="1.0" encoding="UTF-8"?> <svg xmlns="http://www.w3.org/2000/svg" id="Layer_3" width="600" height="400" viewBox="0 0 600 400"><defs><style>.cls-1{fill:#3a357e;}</style></defs><path class="cls-1" d="M262.82,181.16l-13.74,20.63-13.74-20.63v29.19h-10.35v-46.37h11.77l12.32,20.5,12.84-20.5h11.26v46.37h-10.35v-29.19Z"></path><path class="cls-1" d="M326.02,203.95c-4.69,4.58-10.46,6.87-17.31,6.87s-12.63-2.29-17.31-6.87c-4.69-4.58-7.03-10.27-7.03-17.08s2.34-12.5,7.03-17.08c4.69-4.58,10.46-6.87,17.31-6.87s12.63,2.29,17.31,6.87c4.69,4.58,7.03,10.27,7.03,17.08s-2.35,12.5-7.03,17.08Zm-3.52-17.05c0-4.13-1.33-7.66-3.98-10.58-2.65-2.92-5.92-4.38-9.79-4.38s-7.13,1.46-9.78,4.38c-2.65,2.92-3.98,6.45-3.98,10.58s1.33,7.65,3.98,10.55c2.65,2.9,5.91,4.34,9.78,4.34s7.13-1.45,9.79-4.34,3.98-6.41,3.98-10.55Z"></path><path class="cls-1" d="M380.35,170.05c4.42,4.05,6.63,9.67,6.63,16.88s-2.16,12.91-6.47,17.12c-4.31,4.2-10.89,6.3-19.74,6.3h-15.85v-46.37h16.39c8.27,0,14.62,2.02,19.04,6.07Zm-7.6,27.56c2.54-2.39,3.81-5.86,3.81-10.42s-1.27-8.06-3.81-10.51c-2.54-2.45-6.45-3.68-11.71-3.68h-5.77v28.19h6.57c4.73,0,8.37-1.19,10.91-3.58Z"></path><path class="cls-1" d="M432.56,163.98v9.22h-23.09v9.55h20.76v8.82h-20.76v9.62h23.82v9.15h-34.16v-46.37h33.43Z"></path><path class="cls-1" d="M483.04,179.37c0,7.43-2.94,12.23-8.82,14.39l11.74,16.58h-12.74l-10.28-14.79h-7.16v14.79h-10.35v-46.37h17.58c7.21,0,12.35,1.22,15.42,3.65,3.07,2.43,4.61,6.35,4.61,11.74Zm-12.47,5.51c1.28-1.15,1.92-2.97,1.92-5.47s-.66-4.21-1.99-5.14c-1.33-.93-3.65-1.39-6.96-1.39h-7.76v13.73h7.56c3.54,0,5.95-.57,7.23-1.72Z"></path><path class="cls-1" d="M527.15,163.98h10.35v46.37h-10.35l-22.09-29.06v29.06h-10.35v-46.37h9.69l22.75,29.85v-29.85Z"></path><path class="cls-1" d="M262.6,235.39c0,7.43-2.94,12.23-8.82,14.39l11.74,16.58h-12.74l-10.28-14.79h-7.16v14.79h-10.35v-46.37h17.58c7.21,0,12.35,1.22,15.42,3.65,3.07,2.43,4.61,6.35,4.61,11.74Zm-12.47,5.51c1.28-1.15,1.92-2.97,1.92-5.47s-.66-4.21-1.99-5.14c-1.33-.93-3.65-1.39-6.97-1.39h-7.76v13.73h7.56c3.54,0,5.95-.57,7.23-1.72Z"></path><path class="cls-1" d="M309.57,220v9.22h-23.09v9.55h20.76v8.82h-20.76v9.62h23.82v9.15h-34.16v-46.37h33.43Z"></path><path class="cls-1" d="M342.73,228.96v37.41h-10.35v-37.41h-13.14v-8.96h36.62v8.96h-13.14Z"></path><path class="cls-1" d="M401.31,266.37l-4.31-10.02h-19.44l-4.31,10.02h-11.01l20.04-46.37h10.02l20.03,46.37h-11.01Zm-14-32.57l-5.84,13.47h11.61l-5.77-13.47Z"></path><path class="cls-1" d="M421.01,220h10.35v46.37h-10.35v-46.37Z"></path><path class="cls-1" d="M443.96,266.37v-46.37h10.35v37.15h19.77v9.22h-30.12Z"></path><path class="cls-1" d="M224.99,128.1h-28.05c-6.64-15.29-23.13-29.59-47.34-29.59s-40.7,14.3-47.35,29.59H62.5v173.38H236.69v-27.2h-11.71v16.74H74.21V138.56h24.77c-1.74,7.65-2.24,14.73-2.36,19.16-2.06,.97-3.42,2.61-3.42,4.46,0,2.99,3.51,5.41,7.84,5.41s7.84-2.42,7.84-5.41c0-1.85-1.35-3.48-3.4-4.45,.14-4.4,.69-11.65,2.62-19.17h83.01c1.84,7.19,2.43,14.14,2.6,18.58-2.95,.78-5.05,2.73-5.05,5.04,0,2.99,3.51,5.41,7.84,5.41s7.84-2.42,7.84-5.41c0-1.27-.67-2.43-1.73-3.35-.07-4.29-.49-11.95-2.39-20.27h24.77v17.46h11.71v-27.92h-11.71Zm-75.39-20.74c18.25,0,31.15,9.63,37.46,20.74H112.14c6.31-11.12,19.2-20.74,37.46-20.74Z"></path></svg> 