<?xml version="1.0" encoding="UTF-8"?> <svg xmlns="http://www.w3.org/2000/svg" id="Layer_1" width="100" height="44.6" viewBox="0 0 100 44.6"><defs><style>.cls-1{fill:#043673;stroke-width:0px;}</style></defs><path class="cls-1" d="m14.35,31.8c-1.22-1.49-3.36-2.5-5.31-2.5-3.95,0-7.2,3.4-7.2,7.28,0,1.85.8,3.59,2.12,4.89,1.32,1.26,3.21,2.18,5.08,2.18s4.13-.99,5.31-2.41v1.38c-1.49,1.24-3.32,1.97-5.27,1.97-4.41,0-8.25-3.67-8.25-8.1s3.78-8.14,8.27-8.14c1.91,0,3.84.76,5.25,2.06v1.39Z"></path><path class="cls-1" d="m26.65,28.35c-4.47,0-8.21,3.67-8.21,8.12s3.76,8.12,8.21,8.12,8.21-3.67,8.21-8.12-3.76-8.12-8.21-8.12m0,.94c3.93,0,7.2,3.27,7.2,7.18s-3.27,7.18-7.2,7.18-7.2-3.28-7.2-7.18,3.25-7.18,7.2-7.18"></path><polygon class="cls-1" points="39.42 28.56 39.42 44.39 44.45 44.39 44.45 43.45 40.42 43.45 40.42 28.56 39.42 28.56"></polygon><polygon class="cls-1" points="49.11 28.56 49.11 44.39 54.15 44.39 54.15 43.45 50.12 43.45 50.12 28.56 49.11 28.56"></polygon><polygon class="cls-1" points="58.6 28.56 58.6 44.39 66.16 44.39 66.16 43.45 59.61 43.45 59.61 36.2 65.99 36.2 65.99 35.26 59.61 35.26 59.61 29.51 66.16 29.51 66.16 28.56 58.6 28.56"></polygon><path class="cls-1" d="m86.18,36.77c.04,1.99-.25,3.74-1.66,5.27-1.51,1.64-3.78,2.56-6,2.56-4.39,0-8.12-3.69-8.12-8.06s3.71-8.19,8.25-8.19c2.87,0,5.2,1.43,6.86,3.69l-.82.65c-1.41-2.1-3.55-3.4-6.11-3.4-3.86,0-7.18,3.38-7.18,7.18s3.23,7.18,7.18,7.18c1.7,0,3.36-.69,4.66-1.74,1.36-1.16,1.87-2.48,1.93-4.2h-5.67v-.94h6.67Z"></path><polygon class="cls-1" points="91.26 28.56 91.26 44.39 98.82 44.39 98.82 43.45 92.27 43.45 92.27 36.2 98.65 36.2 98.65 35.26 92.27 35.26 92.27 29.51 98.82 29.51 98.82 28.56 91.26 28.56"></polygon><path class="cls-1" d="m46.69,16.86l6.19-3.58s-.79.76-.68,2.87c0,0-.13,4.25,0,4.77,0,0,.06,2.58,3.66,2.16,0,0,2.24-.4,2.24-2.8,0,0,0-7.38-.04-7.75,0,0,.13-1.66-1.2-1.33,0,0,6.43-3.76,6.81-4.03,0,0-.61.4-.68,2.06v13.54s-.04,2.05,1.23,2.29c0,0-5.73.06-6.14.02v-1.97s-1.71,2.41-6.13,2.41c0,0-3.8.11-4.1-2.78,0,0-.19-3.21-.19-4.8,0,0,.1-1.45-.96-1.07"></path><path class="cls-1" d="m81.49,3.42l5.92-3.42s.11,10.55.11,11.01c0,0,1.17-2.8,5.71-3.52,0,0,5.17-.83,5.48,3.37.13,1.71.1,9.99.1,12.25,0,0,.03,1.67,1.19,2,0,0-7.07,0-7.37,0,0,0,1.06-.45,1.14-2.04,0,0,.15-9.5-.04-10.25,0,0-.04-2.65-2.73-2.65,0,0-2.93.25-3.31,3.44-.2,1.66-.09,8.28-.09,9.23,0,0-.12,1.55,1.21,2.27-3.86,0-3.74,0-7.32,0,0,0,1.22-.54,1.23-2.23,0,0-.11-16.53-.11-17.33,0,0,.13-2.62-1.11-2.14"></path><path class="cls-1" d="m10.85,23.79s-4.01.65-4.16-1.55c-.16-2.21-.03-11.55-.03-11.55l-.08-7.44c-.04-1.63,2.12-1.56,2.12-1.56,4.51,0,4.08,4.55,4.08,4.55,0,2.48-3.79,5.53-3.79,5.53h-.03s.03.02.03.02c.35.08,5.18,1.2,5.53,7.27,0,0,.54,4.22-3.67,4.73m8.89-5.75c-.76-5.78-7.53-6.62-7.53-6.62,4.8-2.83,5.22-5.36,5.22-5.98.12-4.29-3.88-4.8-3.88-4.8-1.04-.34-13.56-.12-13.56-.12,1.23.68,1.21,1.97,1.21,1.97.08.53.23,20.31.23,20.31-.24,1.93-1.4,2.31-1.4,2.31.34,0,13.54-.07,13.54-.07,7.11-.34,6.17-7,6.17-7"></path><path class="cls-1" d="m37.33,11.53l6.33-3.53.08,3.73s.67-3.5,4.23-4.15c0,0,4.51-.93,4.41,3.5,0,.11-5.4,3.06-5.4,3.06,0,0,.33-.33.61-1.09.17-.44.21-.93.1-1.3-.5-1.63-2.28-.76-2.92-.06,0,0-.95.62-.95,3.14,0,0,.04,7.83,0,8.21,0,0,.02,1.74,1.11,2.07,0,0-7.57.03-7.6-.05,0,0,1.04-.52,1.12-1.94.08-1.43.16-9.45.16-9.83,0,0,.08-2.11-1.27-1.77"></path><path class="cls-1" d="m22.62,14.73l.13-5.15s3.05-2.26,6.53-2.3c0,0,5.94-.25,6.65,5.44,0,0-.17,8.28-.25,9.54,0,0-.13,2.34,1.55,2.8h-6.65s.42-9.12.25-9.96c0,0-4.61,2.6-5.06,4.9-.13.66-.37,3.09,2.01,3.09.57,0,.88-.23,1.46-.7,0,0,0,2.11,0,2.37,0,0-1.13.79-4.1.5,0,0-4.73-.41-4.73-4.9,0-.63.33-2.93,3.89-4.48,3.55-1.55,4.6-1.67,5.77-2.76,1.17-1.09,1.32-3.73-1.25-3.93-1.59-.13-3.97,1.38-6.19,5.52"></path><path class="cls-1" d="m77.36,14.65l3.32-3.85s-2.43-3.8-8.41-3.2c-6.83.68-8.42,6.34-8.36,8.36.04,1.37-.3,8.18,7.59,9.84,0,0,4.15,1.01,8.95-1.9l1.13-4.68s-2.96,4.57-6.52,4.62c0,0-4.89.67-5.92-6.94-.95-6.94,3.31-7.76,4.38-7.76.6,0,4.09.3,3.85,5.51"></path></svg> 