<?xml version="1.0" encoding="UTF-8"?> <svg xmlns="http://www.w3.org/2000/svg" id="Layer_1" width="44.01" height="44.01" viewBox="0 0 44.01 44.01"><defs><style>.cls-1{fill:#fff;stroke-width:0px;}</style></defs><path class="cls-1" d="m41.33,44h-12c-.74,0-1.33-.6-1.33-1.33s.6-1.33,1.33-1.33h12V2.67H2.67v12c0,.74-.6,1.33-1.33,1.33S0,15.4,0,14.67V2.67c0-1.47,1.19-2.67,2.66-2.67h38.67c1.47,0,2.67,1.2,2.67,2.67v38.67c0,1.47-1.2,2.67-2.67,2.67h0Zm-20.82,0H2.46c-1.36,0-2.46-1.1-2.46-2.46v-18.05c0-1.36,1.1-2.46,2.46-2.46h18.63l6.36-6.36h-5.81c-.74,0-1.33-.6-1.33-1.33s.6-1.33,1.33-1.33h9.03c.74,0,1.33.6,1.33,1.33v9.03c0,.74-.6,1.33-1.33,1.33s-1.33-.6-1.33-1.33v-5.81l-6.36,6.36v18.63c0,1.36-1.1,2.46-2.46,2.46h-.01Zm-17.85-2.67h17.64v-17.64H2.67v17.64h0Z"></path></svg> 