<?xml version="1.0" encoding="UTF-8"?> <svg xmlns="http://www.w3.org/2000/svg" id="Layer_1" width="100" height="24.15" viewBox="0 0 100 24.15"><defs><style>.cls-1{fill:#3a357e;fill-rule:evenodd;stroke-width:0px;}</style></defs><path class="cls-1" d="m49.03,12c.04,6.67-5.34,12.1-12,12.14-6.67.04-12.1-5.34-12.14-12S30.22.04,36.89,0s12.1,5.34,12.14,12ZM77.13.44l11.4-.06c3.02-.02,5.93,1.17,8.08,3.29,2.15,2.13,3.37,5.02,3.39,8.04s-1.17,5.93-3.29,8.08c-2.13,2.15-5.02,3.37-8.04,3.39l-11.4.06-.13-22.8Zm-14.08.08l-11.4.06.13,22.8,22.8-.13-.06-11.4-11.4.06-.06-11.4ZM21.05,2.53c1.14,1.13,1.78,2.66,1.79,4.26,0,1.11-.29,2.2-.87,3.15-.57.95-1.39,1.72-2.38,2.24,1.21.61,2.17,1.61,2.74,2.84.57,1.23.71,2.61.4,3.93-.31,1.32-1.06,2.49-2.11,3.33-1.06.84-2.37,1.31-3.72,1.31l-16.77.09L0,.88l16.77-.09c1.6,0,3.14.62,4.28,1.74Z"></path></svg> 