<?xml version="1.0" encoding="UTF-8"?><svg id="Layer_1" xmlns="http://www.w3.org/2000/svg" width="599.76" height="400.32" viewBox="0 0 599.76 400.32"><defs><style>.cls-1{fill:#3a357e;fill-rule:evenodd;stroke-width:0px;}</style></defs><path class="cls-1" d="m296.2,199.9c.14,25.17-20.14,45.68-45.31,45.83s-45.68-20.14-45.83-45.31,20.14-45.68,45.31-45.83,45.68,20.14,45.83,45.31Zm106.08-43.64l43.04-.24c11.42-.07,22.39,4.41,30.5,12.43,8.12,8.03,12.72,18.94,12.78,30.36s-4.41,22.39-12.43,30.5c-8.03,8.12-18.94,12.72-30.36,12.78l-43.04.24-.48-86.07h-.01Zm-53.16.3l-43.04.24.48,86.08,86.08-.48-.24-43.04-43.04.24-.24-43.04h.01Zm-158.53,7.57c4.3,4.25,6.73,10.03,6.76,16.07.02,4.18-1.11,8.29-3.27,11.88-2.16,3.59-5.27,6.5-8.98,8.45,4.55,2.31,8.19,6.09,10.35,10.73,2.14,4.63,2.68,9.86,1.51,14.83-1.18,4.97-3.98,9.41-7.99,12.58-3.99,3.18-8.94,4.93-14.06,4.96l-63.29.35-.48-86.08,63.29-.35c6.04-.03,11.85,2.33,16.15,6.58h0Z"/></svg>