<?xml version="1.0" encoding="UTF-8"?> <svg xmlns="http://www.w3.org/2000/svg" id="Layer_1" width="599.76" height="400.32" viewBox="0 0 599.76 400.32"><defs><style>.cls-1{fill:#e60046;fill-rule:evenodd;stroke-width:0px;}</style></defs><path class="cls-1" d="m296.54,199.93c.13,22.88-18.31,41.53-41.19,41.66-22.88.13-41.53-18.31-41.66-41.19s18.31-41.53,41.19-41.66c22.88-.13,41.53,18.31,41.66,41.19Zm96.44-39.67l39.13-.22c10.38-.06,20.35,4.01,27.73,11.3,7.38,7.3,11.56,17.22,11.62,27.6.06,10.38-4.01,20.35-11.3,27.73-7.3,7.38-17.22,11.56-27.6,11.62l-39.13.22-.44-78.25Zm-48.33.27l-39.13.22.44,78.25,78.25-.44-.22-39.13-39.13.22-.22-39.13Zm-144.12,6.88c3.91,3.86,6.12,9.12,6.15,14.61.02,3.8-1.01,7.54-2.97,10.8-1.96,3.26-4.79,5.91-8.16,7.68,4.14,2.1,7.45,5.54,9.41,9.75,1.95,4.21,2.44,8.96,1.37,13.48-1.07,4.52-3.62,8.55-7.26,11.44-3.63,2.89-8.13,4.48-12.78,4.51l-57.54.32-.44-78.25,57.54-.32c5.49-.03,10.77,2.12,14.68,5.98Z"></path></svg> 