<?xml version="1.0" encoding="UTF-8"?> <svg xmlns="http://www.w3.org/2000/svg" id="Layer_1" width="1.39in" height=".65in" viewBox="0 0 100 47.05"><defs><style>.cls-1{fill:#fff;stroke-width:0px;}</style></defs><g id="Layer_2"><g id="Layer_1-2"><path class="cls-1" d="m8.22,0l.14.24c-.09.04-.17.09-.26.11-.25.04-.5.03-.74.09-.41.09-.61.36-.53.77.16.84.31,1.69.54,2.52,1.07,3.9,2.16,7.78,3.24,11.68.02.08.05.15.1.29.26-.7.5-1.35.75-2,1.59-4.28,3.18-8.56,4.78-12.83.07-.2.16-.39.26-.58.14-.25.32-.25.45,0,.15.3.28.6.39.92,1.65,4.7,3.3,9.4,4.95,14.1.03.1.08.2.14.37.06-.14.09-.2.11-.27,1.23-4.04,2.46-8.08,3.67-12.12.2-.67.32-1.37.42-2.06.07-.44-.13-.68-.56-.78-.27-.06-.55-.06-.82-.1-.09-.01-.17-.08-.25-.13l.13-.22h5.17c.17.23.13.33-.18.35-.58.03-1.14.14-1.47.68-.26.43-.51.89-.67,1.36-.8,2.32-1.57,4.66-2.35,6.99-1.03,3.09-2.07,6.18-3.11,9.28-.07.21-.16.41-.28.6-.16.27-.4.27-.56,0-.11-.18-.2-.37-.27-.57-1.07-3.02-2.14-6.04-3.21-9.07-.62-1.75-1.24-3.5-1.85-5.25-.03-.08-.07-.17-.12-.31-.19.51-.36.97-.54,1.43-1.65,4.37-3.3,8.73-4.94,13.1-.07.2-.15.41-.27.57-.09.13-.26.26-.4.27-.1,0-.26-.17-.31-.29-.17-.44-.32-.89-.46-1.34-1.54-5.11-3.07-10.21-4.6-15.32-.1-.33-.22-.65-.35-.96-.31-.72-.87-1.07-1.64-1.13-.17-.01-.33-.01-.5-.04-.08-.02-.16-.05-.24-.09l.11-.26h1.89c.13.02.27.04.41.04.7-.01,1.4-.03,2.09-.04h1.78Zm91.77,21c-.13-.03-.27-.04-.41-.05-.87,0-1.74.02-2.61.03-.51,0-1.02-.03-1.53-.02-.12,0-.35.1-.35.15,0,.23.22.13.34.15.24.04.5.04.74.08.43.06.73.3.83.74.04.16.07.32.08.49.06,1.95.11,3.9.16,5.85.04,1.42.07,2.85.09,4.27.01.54,0,1.08,0,1.67-.21-.22-.38-.4-.56-.59-3.92-4.25-7.85-8.49-11.77-12.74-.15-.16-.36-.25-.54-.37-.06.21-.15.43-.16.65-.02.89-.02,1.78-.02,2.67,0,3.54-.01,7.07-.03,10.61-.01.54-.05,1.07-.12,1.6-.05.44-.31.7-.76.76-.21.03-.42.03-.63.07-.06.01-.12.09-.18.13.05.06.1.13.16.15.09.02.18.03.27.02,1.08,0,2.16-.02,3.24-.02.39,0,.78.02,1.17,0,.09,0,.17-.1.26-.16-.09-.05-.17-.12-.26-.14-.23-.04-.46-.04-.69-.07-.54-.06-.87-.35-.97-.87-.08-.37-.13-.75-.16-1.12-.06-1.8-.11-3.61-.16-5.41-.04-1.32-.08-2.64-.11-3.97-.01-.49,0-.98,0-1.52.63.7,1.22,1.38,1.84,2.04,2.39,2.58,4.78,5.16,7.19,7.71,1.08,1.14,2.21,2.24,3.33,3.34.14.14.35.2.53.3.04-.19.12-.38.13-.57.02-.91.02-1.81.03-2.72,0-2.28.02-4.55.02-6.83,0-1.43,0-2.87.01-4.3,0-.26.02-.52.05-.77.07-.64.33-.89.97-.97.18-.02.36-.07.54-.1v-.16Zm-99.99-.06c.29.04.58.07.87.11.81.09,1.19.45,1.24,1.26.06.78.08,1.57.08,2.36,0,3.98-.02,7.96-.05,11.94,0,.65-.11,1.31-.21,1.95-.07.47-.36.76-.87.78-.17,0-.33.02-.49.06-.07.02-.13.1-.19.15.06.06.1.15.17.17.09.03.2.02.3.02,1.36,0,2.72-.01,4.08-.01.49,0,.98.02,1.47,0,.1,0,.2-.11.3-.17-.1-.06-.19-.15-.29-.16-.34-.05-.68-.07-1.02-.11-.51-.05-.82-.34-.9-.83-.09-.47-.14-.95-.16-1.43-.04-1.46-.06-2.92-.06-4.39,0-3.51,0-7.02,0-10.52,0-.48.06-.57.53-.64.39-.05.77-.07,1.16-.07,1.34.01,2.46.53,3.32,1.57.75.91,1.06,1.97,1.14,3.12.15,2.33-1.34,4.19-3.66,4.51-.38.06-.78.04-1.16.09-.08,0-.15.13-.22.19.07.06.13.14.21.17.1.03.2.04.3.03.42-.01.83,0,1.25-.06,1.33-.17,2.52-.66,3.49-1.6,1.26-1.21,1.81-2.72,1.75-4.43-.06-1.72-.88-3.01-2.47-3.75-.87-.4-1.8-.57-2.75-.59s-1.9.02-2.86.02c-1.26,0-2.51-.03-3.77-.04-.18,0-.37.08-.55.12v.17Zm42.05,26.11c.03-.09.06-.17.1-.25,1.1-2.05,2.19-4.09,3.29-6.13.06-.1.11-.21.18-.34-.31,0-.58,0-.84,0-.17,0-.26.06-.34.21-.57,1.1-1.14,2.2-1.72,3.29-.22.43-.45.85-.7,1.32-.06-.1-.1-.17-.13-.23-.76-1.45-1.52-2.9-2.28-4.34-.05-.09-.13-.22-.2-.23-.31-.03-.63-.01-1-.01.29.53.54,1.01.8,1.49.93,1.74,1.86,3.49,2.79,5.23h.06Zm44.1-30.95c-2.14-4.39-4.27-8.78-6.41-13.16-.07-.14-.23-.33-.34-.33-.23,0-.2.26-.24.43,0,0,0,.02,0,.03-.24,2.2-.49,4.4-.73,6.59-.26,2.32-.51,4.63-.77,6.95-.05.52-.12,1.03-.23,1.53-.12.53-.51.81-.98.75-.45-.06-.85-.25-1.15-.6-.5-.57-.81-1.24-1.08-1.93-1.62-4.16-3.23-8.33-4.84-12.49-.13-.34-.26-.67-.41-1-.05-.11-.18-.19-.27-.29-.09.09-.2.17-.26.28-.09.18-.16.37-.23.56-1.67,4.55-3.33,9.09-5,13.64-.17.45-.4.87-.69,1.26-.44.58-1.41.77-2.22.47-.62-.23-.62-.81-.64-1.33-.06-1.29-.1-2.59-.11-3.88-.01-2.72,0-5.44.01-8.17,0-.39.01-.77.06-1.16.09-.78.32-.98,1.09-1.07.13-.02.37-.12.37-.16-.04-.24-.25-.15-.4-.15-1.09,0-2.18,0-3.27,0-.36,0-.72-.01-1.08,0-.07,0-.14.09-.21.14.06.05.13.1.19.15.04.02.09.02.14.02.91.08,1.13.3,1.24,1.21.01.1.02.2.02.3.01,1.01.04,2.02.04,3.03,0,2.96-.01,5.92-.05,8.89,0,.57-.11,1.14-.21,1.7-.06.33-.28.53-.63.56-.14,0-.28.03-.41.06-.09.02-.18.09-.26.14.09.06.18.16.28.17.29.02.57-.01.86-.01,1.23,0,2.46.02,3.69.02,1.36,0,2.72,0,4.08,0,.11,0,.22,0,.33-.04.06-.03.1-.09.11-.16,0-.03-.08-.1-.13-.11-.12-.01-.24-.02-.36-.01-.53-.03-.8-.34-.73-.85.04-.33.11-.66.21-.97.43-1.32.89-2.63,1.33-3.94.08-.23.2-.31.44-.31,1.44,0,2.87,0,4.31,0,.23,0,.35.07.43.29.39,1.07.8,2.13,1.2,3.19.25.66.5,1.31.74,1.97.07.2.11.39-.08.56-.06.06-.12.13-.17.21.09.04.18.08.27.11.09.02.18.02.28.02.98.02,1.96.04,2.94.04,1.03,0,2.05-.01,3.08-.02.3,0,.61.02.91,0,.09,0,.17-.1.25-.16-.08-.05-.16-.12-.25-.14-.22-.05-.46-.06-.68-.11-.41-.09-.61-.33-.61-.74,0-.43,0-.87.04-1.3.25-3,.51-5.99.77-8.99.02-.26.06-.51.08-.77.29.51.56,1.04.79,1.58,1.56,3.43,3.2,6.81,4.96,10.13.09.17.27.3.4.45.12-.15.28-.29.36-.46,1.84-3.88,3.68-7.77,5.51-11.66.04-.09.09-.17.16-.3.02.05.04.1.05.15.13,1.44.27,2.87.4,4.31.14,1.49.28,2.98.42,4.48.08.83.16,1.66.22,2.49.01.18-.07.36-.12.54-.02.06-.12.13-.11.15.04.07.1.12.18.15.09.03.18.05.27.05.99.05,1.98.09,2.97.13.35.01.7,0,1.05-.02.07,0,.13-.1.19-.16-.07-.04-.14-.1-.22-.11-.39-.06-.79-.08-1.18-.15-.47-.07-.86-.41-1-.87-.16-.46-.27-.94-.33-1.42-.21-1.75-.39-3.51-.58-5.27-.2-1.81-.4-3.62-.59-5.43-.11-.97-.21-1.93-.33-2.89-.01-.11-.12-.21-.18-.31-.1.07-.21.14-.31.23-.04.03-.05.1-.07.15-1.74,3.7-3.48,7.41-5.21,11.12-.37.79-.75,1.59-1.13,2.41-.08-.16-.15-.28-.21-.4Zm-19.91-4.04c.68-2.1,1.36-4.16,2.03-6.22h.14c.75,2.05,1.46,4.11,2.2,6.22h-4.37Zm-13.72,17.5c.09-.08.17-.17.26-.25.87-.9,1.59-1.9,1.91-3.14.63-2.42-.57-4.44-3.01-4.99-.65-.14-1.31-.21-1.98-.22-1.45-.03-2.9,0-4.35,0-.35,0-.7-.02-1.06,0-.08,0-.16.11-.24.17.08.05.15.11.24.13.13.03.28.01.41.02.76.07,1.09.36,1.16,1.12.05.5.06,1,.06,1.5,0,3.39,0,6.78-.03,10.17,0,.74-.09,1.47-.18,2.21-.05.4-.29.68-.73.7-.14,0-.28.02-.41.05-.07.02-.13.08-.19.12.06.06.11.14.18.17.06.03.15.01.22.01.94-.01,1.89-.03,2.83-.03.62,0,1.24.03,1.86.03.1,0,.19-.1.29-.15-.09-.05-.18-.13-.28-.14-.25-.04-.52-.04-.77-.07-.51-.06-.77-.28-.86-.79-.06-.3-.1-.6-.11-.91-.03-1.54-.04-3.07-.07-4.61,0-.22.08-.29.29-.28.78.02,1.56.03,2.33.03.27,0,.47.08.6.31.52.9,1.06,1.8,1.55,2.72.45.86.82,1.76,1.25,2.63.34.69.93,1.09,1.69,1.17.89.08,1.79.08,2.69.11.13,0,.26,0,.38.03,1,.28,2.05.34,3.08.2,1.24-.16,2.33-.65,3.14-1.65,1.27-1.58,1.42-4.17-.22-6.06-.83-.95-1.83-1.7-2.79-2.49-.7-.58-1.41-1.15-1.93-1.9-1.03-1.48-.39-3.43,1.3-3.93.63-.18,1.27-.16,1.9-.02,1.39.31,1.81.91,1.96,2,.02.14.11.26.17.4.06-.14.16-.28.17-.42.04-.74.04-1.48.08-2.22.01-.24-.07-.31-.29-.31-.13,0-.26-.01-.38-.05-.95-.23-1.94-.31-2.92-.24-1.11.09-2.12.45-2.9,1.28-.98,1.05-1.13,2.32-.85,3.66.25,1.21,1.02,2.13,1.91,2.93.87.79,1.79,1.52,2.67,2.3.57.5,1.09,1.07,1.36,1.8.67,1.83-.19,3.6-1.91,4.05-.88.23-1.8.16-2.64-.2-.83-.35-1.35-.99-1.53-1.88-.06-.28-.04-.57-.08-.85,0-.07-.08-.13-.12-.19-.06.05-.12.1-.17.15-.02.04-.03.09-.03.13-.05.99-.09,1.99-.14,3,.04,0,.01,0-.01,0-.07-.01-.15-.03-.22-.05-.81-.22-1.44-.69-1.81-1.44-.5-1-.97-2.01-1.43-3.03-.41-.9-.74-1.84-1.56-2.51.12-.11.21-.18.3-.27h0Zm-4.86-7.43c0-.2.03-.35.26-.39,1.02-.16,2.05-.22,3.02.23,1.06.49,1.65,1.37,1.91,2.48.3,1.28.27,2.55-.28,3.77-.43.94-1.17,1.46-2.2,1.46-.72,0-1.45-.09-2.17-.2-.5-.08-.53-.17-.53-.67v-3.25c0-1.15,0-2.29,0-3.44Zm-21.77-.12c0,4.19,0,8.39-.03,12.58,0,.58-.11,1.16-.19,1.73-.04.24-.16.47-.41.55-.73.24-1.89.16-2.42-.62-.36-.53-.71-1.09-.94-1.69-1.7-4.33-3.37-8.68-5.06-13.03-.1-.26-.21-.51-.33-.76-.11-.2-.27-.2-.38,0-.09.17-.17.35-.23.53-1.65,4.5-3.3,9-4.95,13.51-.17.45-.37.89-.61,1.3-.28.49-.73.78-1.3.83-.19.02-.39.01-.58.04-.06,0-.11.09-.17.14.05.05.09.12.15.13.1.03.2.04.3.03,1.33,0,2.66,0,3.99,0,.07,0,.16.01.22-.01.08-.03.13-.1.2-.16-.07-.05-.13-.12-.21-.14-.11-.02-.22,0-.33,0-.5-.04-.75-.34-.71-.83.01-.18.04-.35.09-.52.49-1.5.99-3,1.49-4.5.06-.18.19-.23.36-.23,1.46,0,2.93,0,4.39,0,.21,0,.32.07.39.27.3.82.62,1.64.93,2.46.34.9.68,1.8,1.02,2.7.08.2.13.41-.08.58-.07.06-.13.13-.18.2.09.04.18.08.27.1.09.02.18.02.28.02.9.02,1.79.04,2.69.04,1.93,0,3.87,0,5.8,0,.1,0,.2,0,.3-.03.07-.03.12-.11.18-.17-.07-.04-.13-.1-.2-.11-.26-.03-.52-.04-.77-.06-.6-.06-.89-.28-.96-.88-.09-.78-.14-1.56-.15-2.35-.02-3.83-.01-7.67-.01-11.5v-.35c1.18.03,2.32.03,3.46.1.44.03.89.17,1.31.32.41.14.61.49.63.93,0,.08,0,.17.03.25.04.09.1.18.16.26.05-.09.15-.17.15-.26.03-.81.04-1.63.07-2.44,0-.19-.07-.24-.26-.21-.46.07-.91.18-1.37.18-3.07.02-6.15.02-9.22,0-.62,0-1.25-.12-1.86-.24-.4-.08-.43-.13-.52.26-.18.73-.33,1.46-.48,2.19-.02.09.04.2.07.3.08-.07.18-.13.24-.22.07-.12.14-.24.19-.37.27-.57.73-.86,1.36-.91.4-.03.81-.07,1.22-.07.99-.01,1.98,0,2.99,0,0,.04,0,.07,0,.11h0Zm-7.68,8.09h-4.37c.68-2.09,1.35-4.15,2.03-6.21h.15l2.19,6.21Zm51.09-7.6c-2.75,2.48-3.64,5.56-2.71,9.13.61,2.32,1.97,4.11,4.17,5.16,1.56.75,3.22.94,4.93.75,2.7-.3,4.81-1.57,6.24-3.88,1.16-1.86,1.53-3.91,1.28-6.07-.31-2.59-1.56-4.59-3.88-5.87-1.41-.78-2.94-1.08-4.54-1.08-2.19,0-4.08.59-5.5,1.87Zm10.91,11.35c-1.13,2.06-3.44,3.2-5.77,2.88-2.48-.34-4.21-1.7-5.24-3.93-1.1-2.39-1.23-4.88-.43-7.38s2.95-3.99,5.57-4.06c2.94-.08,5.35,1.75,6.33,4.6.38,1.11.53,2.26.53,3.44-.02,1.55-.23,3.06-.99,4.45h0Zm-37.75-6.18c-.23.31-.55.43-.92.44-1.19.03-2.39.05-3.58.08-.2,0-.25-.1-.24-.28,0-.59,0-1.18,0-1.78v-4.03c0-.2.02-.35.28-.34,1.02.04,2.04.04,3.05.12,1.09.08,1.37.41,1.45,1.5,0,0,0,.02,0,.03.05.07.11.15.16.22.06-.06.11-.13.15-.2.03-.06.02-.13.02-.19.06-.58.1-1.16.17-1.74.02-.17.08-.34.1-.52.02-.16-.03-.24-.22-.2-.39.08-.8.19-1.2.19-2.14,0-4.28-.02-6.41-.04-.32,0-.65-.01-.97,0-.09,0-.18.11-.27.16.08.04.16.1.25.12.14.02.28.03.41.03.77.06,1.09.38,1.17,1.14.02.18.04.37.04.56,0,3.67.01,7.35,0,11.02,0,.7-.06,1.4-.16,2.1-.09.68-.29.81-.95.9-.14.02-.41-.09-.4.15,0,.23.27.16.43.17,1.48.01,2.96.01,4.44.02,1.14,0,2.28.03,3.41.03.46,0,.6-.12.68-.57.11-.64.2-1.28.27-1.92.02-.15-.07-.46-.09-.46-.26.02-.2.26-.23.42-.2,1.01-.57,1.47-1.52,1.56s-1.92.07-2.88,0c-.7-.05-.99-.4-1.09-1.06-.03-.17-.05-.35-.06-.52,0-1.87,0-3.74,0-5.61,0-.18.07-.25.25-.24.3.01.59,0,.89.01.74.03,1.48.05,2.22.11s1.06.44,1.1,1.18c0,.09-.01.19.01.28.02.07.09.12.14.18.06-.05.11-.11.15-.17.02-.03.01-.09.02-.14.08-.86.17-1.73.24-2.59,0-.09-.02-.18-.03-.33-.12.08-.21.11-.25.16Zm-5.34-16.69c0,1.42.02,2.83,0,4.25-.01.87-.05,1.74-.13,2.6-.08.85-.32,1.04-1.13,1.1-.1,0-.19.09-.28.14.09.06.19.11.28.16.06.02.13,0,.19,0,.68-.02,1.37-.08,2.05-.07,1.6.03,3.2.09,4.8.13.59.01,1.18-.02,1.77-.04.26-.01.43-.15.49-.41.07-.27.14-.54.18-.81.07-.51.13-1.03.18-1.54,0-.08-.08-.17-.13-.26-.07.08-.13.16-.18.24-.04.07-.03.16-.06.24-.22.8-.59,1.48-1.5,1.63-1.16.18-2.35.17-3.51-.03-.57-.1-.95-.43-1-1.03-.09-1.15-.19-2.3-.2-3.46-.03-2.54-.02-5.07,0-7.61,0-.73.04-1.46.11-2.19.04-.47.3-.7.77-.78.24-.04.48-.05.71-.09.06-.01.12-.08.18-.12-.06-.06-.12-.13-.19-.16-.06-.03-.15,0-.22,0-1.16,0-2.31,0-3.47,0-.45,0-.91-.01-1.36,0-.07,0-.14.1-.22.15.07.04.13.11.21.13.15.03.31.02.47.04.75.07,1.04.36,1.13,1.11.02.15.03.3.03.44,0,2.07,0,4.15,0,6.22h.01Zm13.3,8.31c.61,0,1.22,0,1.83,0,.89,0,1.78-.01,2.66-.03.32,0,.52-.18.58-.49.12-.71.23-1.42.33-2.13.02-.13-.07-.38-.11-.38-.22,0-.18.21-.21.35-.22,1.12-.76,1.7-1.88,1.78-.99.07-2,.04-2.99-.05-.81-.07-1.09-.4-1.19-1.21-.09-.64-.14-1.29-.15-1.93-.02-2.79-.03-5.57-.02-8.36,0-.87.03-1.74.07-2.61.03-.63.29-.9.91-1,.2-.03.41-.03.61-.07.07-.01.12-.08.19-.12-.06-.06-.12-.11-.19-.16-.06-.03-.13,0-.19,0-.46,0-.92.03-1.39.03-1.1,0-2.2-.02-3.3-.03-.07,0-.16-.02-.22,0s-.12.1-.17.15c.06.05.11.12.17.13.16.03.33.03.5.04.78.07,1.12.43,1.16,1.21.02.38.05.76.05,1.14,0,3.29.01,6.57,0,9.86-.01.86-.07,1.72-.16,2.57-.07.7-.33.89-1.04.95-.12.01-.23.09-.34.14.12.06.23.14.35.17s.28,0,.42,0h3.77v.05Zm-18.61-.05h1.64c.3,0,.59,0,.89-.02.07,0,.14-.11.21-.17-.07-.04-.14-.11-.22-.12-.23-.03-.46-.04-.69-.06-.7-.06-.98-.28-1.03-.99-.09-1.2-.15-2.4-.15-3.6-.02-2.98,0-5.96.01-8.94,0-.43.03-.87.09-1.3.06-.5.29-.71.77-.81.16-.03.33-.04.49-.07.07-.01.12-.08.18-.12-.06-.06-.11-.13-.19-.16-.06-.03-.15,0-.22,0-.95,0-1.9.03-2.86.03-.48,0-.96-.03-1.44-.02-.1,0-.19.1-.29.15.08.06.17.11.26.15.08.03.17.02.25.02.68.07.98.34,1.04,1.03.04.43.06.87.06,1.3,0,3.29.01,6.59,0,9.88,0,.87-.06,1.74-.17,2.6-.09.71-.32.86-1.03.92-.12.01-.34.1-.33.13.02.22.22.16.37.18.06,0,.11,0,.17,0h2.2Zm-2.82,27.69v-6.61h-.97v4.89l-6.9-5.16v6.57h.97v-4.85l6.91,5.16Zm33.15-3.53c.6-.31.86-.84.81-1.52-.05-.64-.43-1.04-1-1.24-.44-.16-.91-.26-1.37-.3-.7-.05-1.42-.01-2.12-.01v6.28h.97v-2.81c.16.09.28.13.36.21.8.81,1.58,1.63,2.38,2.45.07.07.15.17.24.17.36.02.73,0,1.17,0-.97-.96-1.89-1.86-2.79-2.75.49-.17.95-.28,1.36-.49Zm-2.71-2.42c.62-.02,1.23-.04,1.82.15.47.16.71.48.72.94.01.44-.21.77-.67.94-.59.22-1.21.22-1.86.22v-2.27Zm-48.92-.54c0,1.35,0,2.7,0,4.06,0,.84.42,1.43,1.15,1.79,1.3.64,2.62.66,3.93.06.78-.36,1.27-.94,1.26-1.85,0-1.37,0-2.74,0-4.11,0-.02-.02-.03-.03-.05h-.97v.35c0,1.24,0,2.48,0,3.72,0,.62-.23,1.09-.8,1.37-.58.3-1.25.39-1.89.28-1.28-.23-1.68-.71-1.68-2.01v-3.72h-.97s-.02.08-.02.12Zm43.45-.11h-4.58v6.29h4.57v-.64h-3.58v-2.48h3.48v-.66h-2.74q-.76,0-.76-.76v-1.11h3.61v-.64Zm14.12,5.96c.75.46,1.58.54,2.44.43.71-.09,1.34-.35,1.82-.9.64-.73.49-1.7-.33-2.21-.23-.14-.47-.26-.72-.35-.49-.18-.98-.32-1.47-.49-.31-.1-.6-.24-.88-.4-.41-.26-.43-.69-.1-1.04.1-.1.21-.18.33-.24.73-.4,1.72-.25,2.32.32.06.06.18.11.24.09.22-.08.44-.19.7-.31-.17-.16-.29-.3-.44-.41-.95-.71-2.64-.76-3.65-.1-.99.64-.96,1.77.09,2.32.39.2.82.34,1.23.5.49.19,1.01.32,1.48.56.79.4.8,1.22.07,1.71-1.1.74-2.51.38-3.1-.81l-.91.19c.1.46.41.88.89,1.17Zm27.87-5.97c-.14.01-.27.08-.36.18-.49.59-.96,1.19-1.44,1.79-.22.27-.44.54-.67.84-.09-.11-.17-.2-.25-.3-.62-.77-1.23-1.55-1.86-2.32-.06-.08-.16-.19-.25-.19-.33-.02-.67,0-1.06,0,.08.1.12.16.17.22.87,1.08,1.74,2.16,2.6,3.25.09.11.13.25.14.4.01.72,0,1.44,0,2.17,0,.1.01.19.02.29h.97v-.31c0-.7-.01-1.41,0-2.11,0-.18.07-.35.18-.49.34-.45.7-.88,1.06-1.32.54-.67,1.09-1.35,1.68-2.09-.36,0-.65-.02-.93,0h0Zm-12.04,6.32h1v-5.66h2.14v-.65h-5.26v.65h2.12v5.65Zm-49.27-6.31h-.95v6.31h.95v-6.31Zm42.36,6.31h.97v-6.31h-.97v6.31Z"></path></g></g></svg> 