<?xml version="1.0" encoding="UTF-8"?> <svg xmlns="http://www.w3.org/2000/svg" id="Layer_1" width="600" height="400" viewBox="0 0 600 400"><defs><style>.cls-1{fill:#3c3382;}</style></defs><polygon class="cls-1" points="347.1 168.08 345.3 180.48 349.6 180.48 347.8 168.08 347.1 168.08"></polygon><g><g><path class="cls-1" d="m270.9,231.18h-3.8v-3.7h3.8c1.4,0,2.5.4,2.5,1.9,0,1.4-1.1,1.8-2.5,1.8Z"></path><path class="cls-1" d="m270.9,227.38h-3.8v3.7h3.8c1.4,0,2.5-.4,2.5-1.9,0-1.4-1.1-1.8-2.5-1.8Z"></path></g><path class="cls-1" d="m244.8,187.98v-26.6c0-2.6-2.7-4.6-5.4-3.5-1.4.6-2.2,2-2.2,3.5v26.6c0,1.6,1,3.1,2.5,3.6,2.6.9,5.1-1.1,5.1-3.6Z"></path></g><path class="cls-1" d="m322.6,331.78c0-.5.5-.7,1.2-.8.6-.1,12.1-1.4,25.4-2,14.8-.7,25.9,2.1,26,2.1.6.1,3.3.7,2.8,3.1-.6,2.5-3.1,1.6-3.6,1.5-.1,0-9.7-3.3-25-3.3h-25.3c-1,0-1.5-.1-1.5-.6Z"></path><path class="cls-1" d="m275.1,300.58c0,.4-.5.7-1.3.7-.6.1-12.2.6-25.5.6-15.7,0-25.7-3.5-25.9-3.6-.6-.2-3.3-.9-2.6-3.3.7-2.5,3.2-1.4,3.7-1.3.1,0,11.9,4.1,24.8,4.7,12.8.7,25.2,1.5,25.3,1.5,1,.1,1.6.2,1.5.7Z"></path><g><path class="cls-1" d="m220.9,325.28v-20.6c.7.1,1.3.2,2,.3v18.5c1.7.3,3.4.5,5.1.7v2.1c-2.4-.2-4.8-.6-7.1-1Z"></path><path class="cls-1" d="m232.7,311.28c0-3.1,1.4-5,4.1-4.8,2.8.2,4.1,2.3,4.1,5.5v10.6c0,3.1-1.4,5.1-4.1,4.9-2.7-.2-4.1-2.4-4.1-5.5v-10.7Zm2,11c0,1.9.7,3,2.1,3.1,1.5.1,2.1-.9,2.1-2.8v-10.9c0-1.9-.7-3-2.1-3.1-1.4-.1-2.1.9-2.1,2.8v10.9Z"></path><path class="cls-1" d="m254.1,312.38v1.9h-1.9v-2c0-1.9-.6-3-2.1-3-1.4,0-2.1,1.1-2.1,2.9v10.9c0,1.9.7,3,2.1,3,1.5,0,2.1-1.1,2.1-2.9v-2.7h1.9v2.6c0,3.1-1.3,5.2-4,5.1s-4-2.2-4-5.3v-10.6c0-3.1,1.3-5.1,4-5.1,2.7,0,4,2,4,5.2Z"></path><path class="cls-1" d="m261.3,323.68c-.2,1.4-.5,2.8-.7,4.2h-1.8c1.1-6.9,2.3-13.8,3.4-20.6,1,0,1.9-.1,2.9-.1,1.1,6.8,2.3,13.6,3.4,20.4-.7,0-1.3.1-2,.1-.2-1.4-.5-2.7-.7-4.1-1.5.1-3,.1-4.5.1Zm.2-1.9c1.3,0,2.7-.1,4-.1-.7-3.9-1.3-7.9-2-11.8-.7,3.9-1.3,7.9-2,11.9Z"></path><path class="cls-1" d="m273.4,327.38v-20.6c.7,0,1.3-.1,2-.1v18.5c1.7-.1,3.4-.2,5.1-.3v2.1c-2.4.1-4.7.2-7.1.4Z"></path><path class="cls-1" d="m296.6,304.98c2.8-.2,4,1.6,4,4.7v2.5c0,3.3-1.3,5.1-4.2,5.3-.6.1-1.2.1-1.8.2v8.1c-.7.1-1.3.1-2,.2v-20.6c1.4-.1,2.7-.2,4-.4Zm-.1,10.5c1.5-.1,2.2-1,2.2-3v-2.7c0-1.9-.6-2.8-2-2.6-.6.1-1.3.1-1.9.2v8.3c.5-.1,1.1-.2,1.7-.2Z"></path><path class="cls-1" d="m309.6,303.88c2.8-.2,4,1.3,4,4.4v1.7c0,2.3-.7,3.7-2.2,4.4,1.6.4,2.2,1.9,2.2,4.1v3.2c0,.9,0,1.8.4,2.4-.7.1-1.3.1-2,.2-.2-.6-.3-1.1-.3-2.5v-3.2c0-2.3-.9-3-2.6-2.8-.5,0-.9.1-1.4.1v8.8c-.7.1-1.3.1-2,.2v-20.6c1.3-.2,2.6-.3,3.9-.4Zm-.5,9.8c1.6-.1,2.5-.8,2.5-3v-2c0-1.9-.6-2.8-2.1-2.6-.6.1-1.3.1-1.9.2v7.6c.5-.2,1-.2,1.5-.2Z"></path><path class="cls-1" d="m318.9,308.18c0-3.1,1.4-5.3,4.1-5.5,2.8-.2,4.1,1.8,4.1,4.9v10.6c0,3.1-1.4,5.2-4.1,5.4-2.7.2-4.1-1.8-4.1-4.9v-10.5Zm2,10.6c0,1.9.7,2.9,2.1,2.8,1.5-.1,2.1-1.2,2.1-3.1v-10.9c0-1.9-.7-2.9-2.1-2.8s-2.1,1.3-2.1,3.1v10.9Z"></path><path class="cls-1" d="m336.6,302.18c2.8-.1,4.1,1.8,4.1,5v10.4c0,3.1-1.3,5.1-4.1,5.2-1.4,0-2.8.1-4.2.2v-20.6c1.4-.1,2.8-.1,4.2-.2Zm0,18.5c1.4,0,2.1-1.1,2.1-3v-10.6c0-1.9-.7-2.9-2.1-2.8-.7,0-1.4,0-2.1.1v16.4c.6,0,1.3-.1,2.1-.1Z"></path><path class="cls-1" d="m347.8,317.78c0,1.9.6,3,2.1,3,1.4,0,2.1-1.1,2.1-2.9v-15.7c.6,0,1.2,0,1.9.1v15.6c0,3.1-1.3,5.2-4,5.1-2.7,0-4-2.1-4-5.2v-15.6h2c-.1,5.1-.1,10.4-.1,15.6Z"></path><path class="cls-1" d="m367,307.98v1.9c-.6-.1-1.3-.1-1.9-.2v-2c0-1.8-.6-3-2.1-3.1-1.4-.1-2.1,1-2.1,2.8v10.9c0,1.9.7,3,2.1,3.1,1.5.1,2.1-.9,2.1-2.8v-2.7c.6.1,1.3.1,1.9.2v2.6c0,3.1-1.3,5-4,4.8s-4-2.3-4-5.4v-10.6c0-3.1,1.3-5.1,4-4.9,2.8.1,4,2.3,4,5.4Z"></path><path class="cls-1" d="m378.6,313.68v2.1c-1.5-.2-2.9-.5-4.4-.7v7.3c1.8.3,3.6.5,5.4.8v2.1c-2.5-.4-4.9-.8-7.4-1.1v-20.6c2.5.3,4.9.7,7.4,1.1v2.1c-1.8-.3-3.6-.6-5.4-.8v7c1.5.2,2.9.4,4.4.7Z"></path></g><g><path class="cls-1" d="m419.6,117.88h-21v-17.7c0-3.5-2.4-6.5-5.6-7.4h0l-87.8-27.8h0c-1.4-.6-3.2-.9-5-.9-1.9,0-3.6.3-5,.9l-87.9,27.9h0c-3.2.9-5.6,3.9-5.6,7.4v17.6h-21c-4.2,0-7.7,3.4-7.7,7.7v91.1c0,2.8,1.6,5.3,3.9,6.7,1.1.6,24.7,7.6,24.7,7.6v20.5c0,3.5,2.4,6.5,5.6,7.4h0l87.8,27.8h0c1.4.6,3.2.9,5,.9,1.9,0,3.6-.3,5-.9l87.8-27.8h0c3.2-.9,5.6-3.9,5.6-7.4v-20.5s23.6-6.9,24.7-7.6c2.3-1.3,3.9-3.8,3.9-6.7v-91.2c.2-4.2-3.2-7.6-7.4-7.6Zm-93.9-28.9s.2,14.5-4.8,25.1c-5.1,10.7-23.5,6.9-23.5,6.9-4.8-36.6,28.3-32,28.3-32Zm-30.6,14.5c-.7,2.5-1.2,5.5-1.3,8.7-.8-.9-1.6-1.9-2.6-2.9-3.9-3.9-8.9-6.2-9.1-6.3-.2-.1-.5,0-.7.2-.1.3,0,.6.3.7,0,0,4.9,2.6,8.5,6.6,1.4,1.5,2.6,3,3.6,4.4,0,1.9.2,3.7.4,5.4-4,.7-9.1.5-11.9-3.2-5.3-7-7.4-17.6-7.4-17.6,0,0,12.6-4.6,20.2,4Zm-77.3,84.5c-.4,4.8-2.1,9.2-7,11.3-4.3,1.8-8.5,1.6-12.4-1.3-3.2-2.3-4.9-5.6-5-9.5-.1-8.8-.1-17.6,0-26.5.1-6.5,3.6-11.1,9.2-12.6,5.1-1.4,10.4.6,13.2,5.2,1.1,1.8,1.7,4.1,1.9,6.3.1,2.2.2,4.3.1,6.5h-8.8v-6c0-2.6-2.7-4.6-5.4-3.5-1.4.6-2.2,2-2.2,3.5v26.6c0,1.6,1,3.1,2.5,3.6,2.7.9,5.1-1.1,5.1-3.6v-8.9h-4.2v-8.1h13c0,1-.1,2-.1,3.1.2,4.6.4,9.3.1,13.9Zm10.9.5c-.1-8.8-.1-17.6,0-26.5.1-6.5,3.6-11.1,9.2-12.6,5.1-1.4,10.4.6,13.2,5.2,1.1,1.8,1.7,4.1,1.9,6.3.3,4.3.1,8.7.1,13.1,0,4.7.3,9.4-.1,14-.4,4.8-2.1,9.2-7,11.3-4.3,1.8-8.5,1.6-12.4-1.3-3.1-2.3-4.8-5.5-4.9-9.5Zm26.5,50.4c-1.7,1.6-3.9,2.7-6.7,2.7-5,0-8.8-3.4-8.8-8.8s3.8-8.8,8.8-8.8c3,0,5,1.3,6.4,2.9l-2.3,2.5c-.8-1.2-2.2-2.2-4-2.2-3.1,0-5.1,2.4-5.1,5.6s2,5.6,5.1,5.6c1.5,0,2.9-.7,3.6-1.3v-2.7h-2.6v-3.2h5.7v7.7h-.1Zm18.5,2.4l-4-6.9h-2.7v6.9h-3.6v-17h8c3.6,0,5.7,2.3,5.7,5.5,0,3-1.9,3.8-3.8,4.2l4.5,7.4h-4.1v-.1Zm5.5-41.6h-8.4v-41.5h-8v-8.5h23.9v8.4h-7.5v41.6Zm18.2,27.7h-9.1v3.6h8.3v3.2h-8.3v3.9h9.1v3.2h-12.7v-17h12.7v3.1Zm19.8,0h-9.1v3.6h7v3.2h-7v3.9h9.1v3.2h-12.7v-17h12.7v3.1Zm5.1-27.7h-8.6v-20.5h-7.8l.1,20.5h-8.4l.1-50h8.2v20.7h7.8l-.1-20.7h8.7v50Zm17.8,41.6h-1.6l-10.7-9.8v9.8h-3.6v-17h1.8l10.4,9.4v-9.4h3.6v17h.1Zm13.7.3c-3.3,0-5.6-1.1-7.3-2.7l2-2.8c1.2,1.3,3.1,2.3,5.4,2.3,2,0,3-.9,3-1.9,0-3-9.8-.9-9.8-7.3,0-2.8,2.5-5.2,6.5-5.2,2.7,0,5,.8,6.6,2.4l-2,2.7c-1.4-1.3-3.2-1.9-5-1.9-1.5,0-2.4.7-2.4,1.7,0,2.7,9.8.9,9.8,7.2,0,3.1-2.2,5.5-6.8,5.5Zm-1.3-41.9l-1.6-11h-6.7l-1.6,11h-9.1l8.5-50h10.4l8.4,50h-8.3Zm54.4,0h-8.3v-24.8l-5.9,24.8h-6.4l-6.3-24.8v24.8h-8.3v-49.8h11.5l6.3,33,6.3-33h11.1v49.8h0Z"></path><path class="cls-1" d="m301.5,117.68c1.3.5,1.7-.9,1.8-1.2,0-.1,2.2-6.7,6.3-12.6,4-5.9,10-10.3,10-10.3.3-.2.5-.5.3-.8s-.6-.3-.9-.1c-.3.2-6.5,4.1-10.9,10.1-4.9,6.6-7.1,12.6-7.2,12.7-.1.3-.7,1.7.6,2.2Z"></path></g></svg> 