<?xml version="1.0" encoding="UTF-8"?> <svg xmlns="http://www.w3.org/2000/svg" id="Layer_1" width="600" height="400" viewBox="0 0 600 400"><defs><style>.cls-1{fill:#fff;}</style></defs><g id="layer1"><g id="g4611"><g id="g4613"><path id="path4619" class="cls-1" d="m0,108.27h58.36v11.74H13.99v36.02h41v11.57H13.99v49.04H0v-108.37"></path><path id="path4621" class="cls-1" d="m86.83,163.1c0,23.15,12.54,43.89,34.57,43.89s34.73-20.42,34.73-45.02c0-21.55-11.26-44.05-34.57-44.05s-34.73,21.38-34.73,45.18Zm84.09-1.77c0,37.3-22.67,57.08-50.33,57.08s-48.71-22.19-48.71-54.99c0-34.41,21.38-56.92,50.32-56.92s48.72,22.67,48.72,54.83"></path><path id="path4623" class="cls-1" d="m197.63,163.1c0,23.15,12.54,43.89,34.57,43.89s34.73-20.42,34.73-45.02c0-21.55-11.26-44.05-34.57-44.05s-34.73,21.38-34.73,45.18Zm84.09-1.77c0,37.3-22.67,57.08-50.32,57.08s-48.71-22.19-48.71-54.99c0-34.41,21.38-56.92,50.32-56.92s48.72,22.67,48.72,54.83"></path><path id="path4625" class="cls-1" d="m313.89,205.54c3.54.64,8.68.8,14.15.8,29.91,0,46.14-16.72,46.14-45.98.16-25.57-14.31-41.8-43.89-41.8-7.24,0-12.7.64-16.4,1.45v85.53h0Zm-13.99-95.82c8.52-1.28,18.65-2.25,29.75-2.25,20.1,0,34.41,4.66,43.89,13.5,9.64,8.84,15.27,21.38,15.27,38.91s-5.47,32.16-15.6,42.13c-10.13,10.13-26.85,15.59-47.91,15.59-9.97,0-18.33-.48-25.4-1.28v-106.6"></path><path id="path4627" class="cls-1" d="m568.79,277.54c0,1.39-1.14,2.53-2.52,2.53h-26.86c-1.39,0-2.53-1.14-2.53-2.53v-26.87c0-1.39,1.14-2.53,2.53-2.53h26.86c1.39,0,2.52,1.13,2.52,2.53v26.87"></path><path id="path4629" class="cls-1" d="m600,245.56c0,1.39-1.14,2.53-2.52,2.53h-26.86c-1.39,0-2.52-1.14-2.52-2.53v-26.87c0-1.39,1.14-2.53,2.52-2.53h26.86c1.39,0,2.52,1.14,2.52,2.53v26.87"></path><path id="path4631" class="cls-1" d="m14.98,257.34c0-3.21-.06-5.85-.26-8.43h5.02l.32,5.15h.13c1.54-2.96,5.15-5.85,10.3-5.85,4.31,0,11,2.58,11,13.25v18.6h-5.66v-17.95c0-5.02-1.86-9.2-7.21-9.2-3.73,0-6.63,2.64-7.59,5.79-.26.71-.38,1.67-.38,2.64v18.72h-5.66v-22.72"></path><path id="path4633" class="cls-1" d="m67.09,264.16c-6.18-.13-13.19.97-13.19,7.02,0,3.67,2.45,5.41,5.34,5.41,4.05,0,6.63-2.58,7.53-5.21.19-.58.32-1.22.32-1.8,0,0,0-5.41,0-5.41Zm.84,15.9l-.45-3.93h-.19c-1.74,2.45-5.08,4.64-9.52,4.64-6.31,0-9.52-4.44-9.52-8.95,0-7.53,6.69-11.65,18.73-11.58v-.64c0-2.58-.71-7.21-7.08-7.21-2.9,0-5.92.9-8.11,2.32l-1.29-3.73c2.57-1.67,6.3-2.76,10.23-2.76,9.52,0,11.84,6.5,11.84,12.74v11.65c0,2.7.13,5.34.51,7.46h-5.15"></path><path id="path4635" class="cls-1" d="m83.36,248.91l6.11,17.5c1.03,2.83,1.86,5.41,2.51,7.98h.19c.71-2.57,1.61-5.14,2.64-7.98l6.05-17.5h5.92l-12.22,31.14h-5.41l-11.84-31.14h6.05"></path><path id="path4637" class="cls-1" d="m112.11,280.06v-31.14h5.66v31.14h-5.66Zm6.31-39.9c.06,1.93-1.35,3.48-3.6,3.48-1.99,0-3.41-1.55-3.41-3.48s1.48-3.54,3.54-3.54,3.48,1.54,3.48,3.54"></path><path id="path4639" class="cls-1" d="m148.13,261.2c0-.97-.06-1.8-.32-2.57-1.03-3.28-3.8-5.99-7.91-5.99-5.41,0-9.27,4.57-9.27,11.78,0,6.11,3.09,11.2,9.2,11.2,3.47,0,6.63-2.19,7.85-5.79.32-.97.45-2.06.45-3.03v-5.6Zm5.86-12.29c-.13,2.25-.26,4.76-.26,8.56v18.08c0,7.14-1.42,11.52-4.44,14.22-3.02,2.83-7.4,3.73-11.33,3.73s-7.85-.9-10.36-2.57l1.42-4.31c2.06,1.28,5.28,2.45,9.14,2.45,5.79,0,10.04-3.02,10.04-10.87v-3.48h-.13c-1.74,2.9-5.08,5.21-9.91,5.21-7.72,0-13.26-6.56-13.26-15.19,0-10.55,6.88-16.54,14.03-16.54,5.41,0,8.37,2.83,9.72,5.4h.13l.26-4.69h4.95"></path><path id="path4641" class="cls-1" d="m179.52,264.16c-6.18-.13-13.19.97-13.19,7.02,0,3.67,2.45,5.41,5.34,5.41,4.05,0,6.63-2.58,7.53-5.21.19-.58.32-1.22.32-1.8v-5.41Zm.84,15.9l-.45-3.93h-.19c-1.74,2.45-5.08,4.64-9.52,4.64-6.31,0-9.52-4.44-9.52-8.95,0-7.53,6.69-11.65,18.73-11.58v-.64c0-2.58-.71-7.21-7.08-7.21-2.9,0-5.92.9-8.11,2.32l-1.29-3.73c2.57-1.67,6.3-2.76,10.23-2.76,9.52,0,11.84,6.5,11.84,12.74v11.65c0,2.7.13,5.34.51,7.46h-5.15"></path><path id="path4643" class="cls-1" d="m200.68,239.97v8.94h8.11v4.31h-8.11v16.8c0,3.86,1.09,6.05,4.25,6.05,1.48,0,2.58-.19,3.28-.39l.26,4.25c-1.09.45-2.83.77-5.02.77-2.64,0-4.76-.84-6.11-2.38-1.61-1.67-2.19-4.44-2.19-8.11v-16.99h-4.83v-4.31h4.83v-7.47l5.53-1.48"></path><path id="path4645" class="cls-1" d="m218.23,264.55c0,6.82,3.93,11.97,9.46,11.97s9.46-5.09,9.46-12.1c0-5.28-2.64-11.97-9.33-11.97s-9.59,6.18-9.59,12.1Zm24.71-.32c0,11.52-7.98,16.54-15.51,16.54-8.43,0-14.93-6.18-14.93-16.03,0-10.42,6.82-16.54,15.44-16.54s14.99,6.5,14.99,16.02"></path><path id="path4647" class="cls-1" d="m250.07,258.63c0-3.67-.06-6.82-.26-9.72h4.96l.19,6.11h.26c1.41-4.18,4.83-6.82,8.62-6.82.65,0,1.1.06,1.61.19v5.34c-.58-.13-1.16-.19-1.93-.19-3.99,0-6.82,3.02-7.59,7.27-.13.77-.26,1.67-.26,2.64v16.6h-5.6v-21.43"></path><path id="path4649" class="cls-1" d="m268.01,264.74h15.9v-4.18h-15.9v4.18Z"></path><path id="path4651" class="cls-1" d="m316.59,271.56c0,3.21.07,6.04.26,8.49h-5.02l-.32-5.08h-.13c-1.48,2.51-4.76,5.79-10.3,5.79-4.89,0-10.75-2.71-10.75-13.65v-18.21h5.66v17.24c0,5.92,1.8,9.91,6.95,9.91,3.8,0,6.43-2.64,7.46-5.15.32-.84.52-1.87.52-2.9v-19.11h5.66v22.65"></path><path id="path4653" class="cls-1" d="m325.2,274.26c1.67,1.09,4.63,2.25,7.46,2.25,4.12,0,6.05-2.06,6.05-4.63,0-2.71-1.61-4.18-5.79-5.73-5.6-1.99-8.24-5.08-8.24-8.81,0-5.02,4.06-9.14,10.75-9.14,3.15,0,5.92.9,7.66,1.93l-1.41,4.11c-1.22-.77-3.48-1.8-6.37-1.8-3.35,0-5.21,1.93-5.21,4.24,0,2.58,1.87,3.73,5.92,5.28,5.41,2.06,8.17,4.76,8.17,9.39,0,5.47-4.24,9.33-11.65,9.33-3.41,0-6.56-.84-8.75-2.12l1.42-4.31"></path><path id="path4655" class="cls-1" d="m367.85,264.16c-6.18-.13-13.19.97-13.19,7.02,0,3.67,2.45,5.41,5.34,5.41,4.05,0,6.63-2.58,7.53-5.21.19-.58.32-1.22.32-1.8v-5.41Zm.83,15.9l-.45-3.93h-.19c-1.74,2.45-5.09,4.64-9.52,4.64-6.31,0-9.52-4.44-9.52-8.95,0-7.53,6.69-11.65,18.73-11.58v-.64c0-2.58-.71-7.21-7.08-7.21-2.9,0-5.92.9-8.11,2.32l-1.29-3.73c2.57-1.67,6.31-2.76,10.23-2.76,9.52,0,11.84,6.5,11.84,12.74v11.65c0,2.7.13,5.34.51,7.46h-5.15"></path><path id="path4657" class="cls-1" d="m381.09,276.71c0-2.38,1.61-4.05,3.86-4.05s3.8,1.67,3.8,4.05-1.48,4.06-3.86,4.06c-2.25,0-3.8-1.74-3.8-4.06"></path><path id="path4659" class="cls-1" d="m417.96,278.9c-1.48.77-4.76,1.8-8.94,1.8-9.4,0-15.51-6.37-15.51-15.9s6.56-16.54,16.73-16.54c3.35,0,6.31.84,7.85,1.61l-1.29,4.37c-1.35-.77-3.48-1.48-6.57-1.48-7.14,0-11,5.28-11,11.77,0,7.2,4.63,11.65,10.81,11.65,3.22,0,5.34-.84,6.95-1.55l.97,4.25"></path><path id="path4661" class="cls-1" d="m427.66,264.55c0,6.82,3.92,11.97,9.46,11.97s9.46-5.09,9.46-12.1c0-5.28-2.64-11.97-9.33-11.97s-9.59,6.18-9.59,12.1h0Zm24.71-.32c0,11.52-7.98,16.54-15.51,16.54-8.43,0-14.93-6.18-14.93-16.03,0-10.42,6.82-16.54,15.44-16.54s14.99,6.5,14.99,16.02"></path><path id="path4663" class="cls-1" d="m459.5,257.34c0-3.21-.07-5.85-.26-8.43h4.95l.26,5.02h.19c1.74-2.96,4.63-5.72,9.78-5.72,4.25,0,7.46,2.58,8.82,6.24h.13c.97-1.74,2.19-3.09,3.48-4.06,1.87-1.42,3.92-2.19,6.88-2.19,4.12,0,10.23,2.7,10.23,13.51v18.34h-5.53v-17.63c0-5.98-2.19-9.59-6.76-9.59-3.22,0-5.73,2.38-6.69,5.15-.25.77-.45,1.8-.45,2.83v19.24h-5.53v-18.66c0-4.95-2.19-8.56-6.5-8.56-3.54,0-6.11,2.83-7.01,5.66-.32.84-.45,1.8-.45,2.77v18.79h-5.53v-22.72"></path></g></g></g></svg> 