<?xml version="1.0" encoding="UTF-8"?> <svg xmlns="http://www.w3.org/2000/svg" id="Layer_1" width="600" height="400" viewBox="0 0 600 400"><defs><style>.cls-1{fill:#fff;}</style></defs><path class="cls-1" d="m36.89,229.62c17.09,0,31.2-14.79,31.2-32.96s-11.67-29.17-27.4-29.17c-7.87,0-15.87,4.75-18.31,13.02v-26.18c0-3.8.14-7.6.27-11.26,0-1.63-1.22-1.9-2.03-1.63-6.24,2.17-12.89,3.66-19.13,4.75-2.17.41-1.9,2.85.41,2.71,5.29-.27,7.73,1.22,7.73,5.7v60.77c0,4.07-.14,8.28-.27,12.48,0,1.09.41,1.22.81,1.22.54,0,1.09-.41,1.9-1.22,2.31-2.17,4.75-4.48,6.78-6.38,3.26,5.02,11.4,8.14,18.04,8.14h0Zm-14.65-41.51c.27-8.55,6.92-15.87,14.52-15.87,10.72,0,17.64,8.82,17.64,26.05,0,16.28-6.65,28.62-17.64,28.62-7.19,0-14.38-5.15-14.52-17.09v-21.7h0Zm114.9,9.9c0-18.31-13.57-30.52-31.47-30.52-16.14,0-30.39,14.52-30.39,31.61,0,18.18,13.7,30.52,31.34,30.52,16.55,0,30.52-14.52,30.52-31.61h0Zm-48.16.27c0-16.41,6.92-27.81,17.09-27.81s17.64,11.26,17.64,28.22-7.05,27.95-17.23,27.95c-10.72,0-17.5-11.12-17.5-28.35h0Zm60.64-18.31v40.43c0,3.8-2.03,5.29-7.87,5.56-1.9,0-2.17,2.71.14,2.58,8.95-.27,18.86-.27,27.95,0,2.31.14,2.03-2.58.14-2.58-5.7-.41-7.46-1.9-7.46-5.56v-30.79c.14-10.99,6.65-16.28,13.7-16.28,7.6,0,12.07,4.75,12.07,14.11v32.96c0,3.8-1.36,5.29-7.05,5.56-1.9,0-2.17,2.71.14,2.58,8.95-.27,18.58-.27,27.54,0,2.31.14,2.03-2.58.14-2.58-5.83-.41-7.87-1.9-7.87-5.56v-32.15c0-14.65-8-20.89-19.67-20.89-7.05,0-15.33,3.8-18.72,13.29v-1.09c0-3.8.14-7.6.27-11.26,0-1.63-1.22-1.9-2.03-1.63-6.24,2.17-13.02,3.8-19.13,4.61-2.17.41-1.9,2.85.41,2.71,5.02,0,7.33,1.22,7.33,5.97h0Zm102.83,49.92c8.41,0,16.14-5.02,19.4-12.07v.68c0,7.33,4.88,11.26,11.26,11.26,5.29,0,9.09-2.31,11.26-5.97,1.09-1.9-.81-2.71-1.63-1.49-1.09,1.49-2.17,2.98-4.34,2.98-2.58,0-3.93-2.03-3.93-5.97l.14-31.88c0-14.92-10.72-19.81-21.98-19.81-13.97,0-24.42,9.22-24.42,17.91,0,3.53,2.31,6.51,6.51,6.51,3.26,0,6.24-2.58,6.24-5.7,0-4.88-5.29-4.34-5.29-7.46,0-2.44,4.75-8.14,13.7-8.14,7.87,0,12.48,4.34,12.48,13.02v10.31l-17.09,6.78c-14.38,5.56-17.64,10.85-17.64,16.55,0,7.87,7.19,12.48,15.33,12.48h0Zm-2.58-13.97c0-6.1,3.39-11.26,15.33-16.14l6.65-2.98v13.7c0,6.78-6.38,13.57-13.29,13.57-5.7.14-8.68-3.53-8.68-8.14h0Zm80.31,13.7c17.09,0,31.07-14.79,31.07-32.96s-11.67-29.17-27.4-29.17c-7.73,0-15.87,4.75-18.31,13.02v-.81c0-3.8.14-7.6.27-11.26,0-1.63-1.22-1.9-2.03-1.63-6.24,2.17-12.89,3.8-19.13,4.61-2.17.41-1.9,2.85.41,2.71,5.43-.27,7.73,1.22,7.73,5.7v70.68c0,3.8-2.03,5.29-7.87,5.56-1.9,0-2.17,2.71.14,2.58,9.22-.27,19.53-.27,28.76,0,2.31.14,2.03-2.58.14-2.58-6.24-.41-8.28-1.9-8.28-5.56v-25.5c4.07,2.85,9.77,4.61,14.52,4.61h0Zm-14.52-41.51c.27-8.55,6.92-15.87,14.52-15.87,10.72,0,17.64,8.82,17.64,26.05,0,16.28-6.65,28.62-17.64,28.62-7.19,0-14.38-5.15-14.52-17.09v-21.7h0Zm85.33,41.51c17.09,0,31.07-14.79,31.07-32.96s-11.67-29.17-27.4-29.17c-7.73,0-15.87,4.75-18.31,13.02v-.81c0-3.8.14-7.6.27-11.26,0-1.63-1.22-1.9-2.03-1.63-6.24,2.17-13.02,3.8-19.13,4.61-2.17.41-1.9,2.85.41,2.71,5.29-.27,7.73,1.22,7.73,5.7v70.68c0,3.8-2.03,5.29-7.87,5.56-1.9,0-2.17,2.71.14,2.58,9.22-.27,19.53-.27,28.76,0,2.31.14,2.03-2.58.14-2.58-6.24-.41-8.28-1.9-8.28-5.56v-25.5c4.07,2.85,9.63,4.61,14.52,4.61h0Zm-14.52-41.51c.27-8.55,6.92-15.87,14.52-15.87,10.72,0,17.64,8.82,17.64,26.05,0,16.28-6.65,28.62-17.64,28.62-7.19,0-14.38-5.15-14.52-17.09v-21.7h0Zm73.12-26.45c7.73-1.63,14.79-4.34,20.62-7.33,4.34-2.31,5.83-5.15,5.83-7.6,0-2.98-2.17-5.02-5.15-5.02-2.44,0-4.34,1.22-7.19,5.15-4.34,6.24-8,10.31-14.38,13.02-.68.27-.95.81-.81,1.22,0,.54.54.68,1.09.54h0Zm9.09,68.1c10.99,0,20.62-6.51,24.28-16.14.41-1.09-.95-2.03-1.76-.95-4.21,5.56-10.31,8.41-18.31,8.41-12.75,0-20.48-11.26-20.48-25.5,0-2.03.14-3.93.41-5.7l38.53-.27c1.76,0,2.17-1.09,2.03-2.71-.95-11.67-12.75-19.26-24.01-19.26-16.69,0-29.71,14.65-29.71,31.34-.14,17.64,12.89,30.79,29.03,30.79h0Zm.27-59.28c7.05,0,12.07,5.02,12.07,12.48,0,2.17-1.09,3.39-3.8,3.53l-23.74.54c2.03-9.9,7.73-16.55,15.46-16.55h0Zm47.89,59.28c6.24,0,11.53-2.98,14.92-8.82.95-1.63-.81-2.58-1.76-1.09-1.36,2.17-3.8,4.07-6.51,4.07-3.93,0-5.97-3.26-5.97-7.05v-42.6h12.21c2.17,0,2.17-2.98,0-2.98h-12.21v-14.11c0-1.49-1.76-1.76-2.44-.27-4.21,8.95-11.53,13.7-18.99,15.06-1.36.27-1.36,2.31.27,2.31h8.55v43.14c0,7.6,5.15,12.34,11.94,12.34h0Zm40.83-80.31c0-4.34-3.66-7.87-7.87-7.87s-7.87,3.66-7.87,7.87,3.66,7.87,7.87,7.87c4.34.14,7.87-3.39,7.87-7.87h0Zm-14.38,30.52v40.43c0,3.8-2.03,5.29-7.87,5.56-1.9,0-2.17,2.71.14,2.58,8.95-.27,19.26-.27,28.22,0,2.31.14,2.03-2.58.14-2.58-5.83-.41-7.87-1.9-7.87-5.56v-40.7c0-3.8.14-7.6.27-11.26,0-1.63-1.22-1.9-2.03-1.63-5.83,2.17-12.48,3.8-18.31,4.61-2.17.41-1.9,2.85.41,2.71,4.88-.14,6.92,1.09,6.92,5.83h0Zm41.51,49.79c6.24,0,11.53-2.98,14.92-8.82.95-1.63-.81-2.58-1.76-1.09-1.36,2.17-3.8,4.07-6.51,4.07-3.93,0-5.97-3.26-5.97-7.05v-42.6h12.21c2.17,0,2.17-2.98,0-2.98h-12.21v-14.11c0-1.49-1.76-1.76-2.44-.27-4.21,8.95-11.94,13.7-19.53,15.06-1.36.27-1.36,2.31.27,2.31h9.09v43.14c.14,7.6,5.15,12.34,11.94,12.34h0Z"></path></svg> 