<?xml version="1.0" encoding="UTF-8"?> <svg xmlns="http://www.w3.org/2000/svg" id="Layer_1" width="600" height="400" viewBox="0 0 600 400"><defs><style>.cls-1{fill:#fff;}</style></defs><path class="cls-1" d="m96.93,214.6v-11.58h19.33v-5.4h-19.33v-12.18h22.73v-5.44h-28.31v40.01h28.31v-5.4c-7.58-.02-15.09-.02-22.73-.02Zm227.22-17.25h-16.39v-17.65h-5.54v17.77h-16.37v5.44h1.32c4.64,0,9.3.02,13.94-.02.88,0,1.16.24,1.16,1.14-.04,5.08-.02,10.16-.02,15.23,0,.38.04.76.06,1.16h5.5v-17.59h16.35c0-1.86,0-3.6,0-5.48Zm-102.85-17.37v40.05h27.07v-5.46h-21.59v-34.59c-1.86,0-3.64,0-5.48,0Zm-36.53,34.57h-21.67v-34.55h-5.42v40.03h27.09v-5.48Z"></path><path class="cls-1" d="m0,179.87c1.52.02,3.04.12,4.54,0,1.12-.08,1.52.36,1.84,1.38,2.84,9.1,5.74,18.17,8.64,27.25.14.42.3.86.52,1.5.34-.98.62-1.74.88-2.52,2.92-8.82,5.82-17.61,8.7-26.43.3-.9.7-1.28,1.66-1.18.82.1,1.66.08,2.48,0,.82-.08,1.1.28,1.34,1,3.04,9.3,6.14,18.57,9.2,27.85.12.34.24.66.46,1.28.52-1.58.96-2.92,1.38-4.26,2.64-8.26,5.28-16.51,7.88-24.77.26-.82.6-1.16,1.5-1.1,1.54.08,3.1.02,4.8.02-.7,2.2-1.36,4.3-2.04,6.42-3.5,10.88-7.02,21.75-10.48,32.65-.28.88-.66,1.22-1.56,1.14s-1.8-.1-2.7,0c-1,.1-1.34-.32-1.62-1.22-2.98-9.12-6.02-18.23-9.04-27.35-.1-.34-.24-.66-.46-1.24-.22.64-.38,1.04-.52,1.46-3,9.08-6,18.15-8.98,27.25-.28.84-.62,1.16-1.5,1.08-1.04-.08-2.1-.06-3.14,0-.66.04-.92-.2-1.12-.84-2.64-8.2-5.28-16.39-7.92-24.61-1.48-4.58-2.96-9.18-4.46-13.76-.06-.2-.18-.38-.28-.56v-.44Z"></path><path class="cls-1" d="m381.63,179.23c.94.22,1.88.4,2.8.66,5.24,1.38,9.3,4.4,12.4,8.94-1.5,1.04-2.96,2.08-4.52,3.16-.48-.6-.94-1.18-1.4-1.74-3.86-4.64-10.28-6.58-16.01-4.82-5.94,1.82-10.2,6.96-10.82,13-.7,6.82,3.12,13.16,9.5,15.75,6.26,2.56,13.36.64,17.59-4.7.6-.76.98-1.54.9-2.56-.08-1.14-.02-2.28-.02-3.56h-13.64v-5.12h18.93v21.77h-5.1v-3.96c-.4.26-.64.38-.84.56-2.62,2.1-5.56,3.42-8.86,3.96-.16.02-.32.14-.48.2h-5.62c-2.18-.7-4.46-1.18-6.5-2.16-8-3.86-12.7-12.42-11.34-21.47,1.42-9.38,8.48-16.35,17.59-17.67.24-.04.46-.14.68-.22,1.56-.02,3.14-.02,4.74-.02Z"></path><path class="cls-1" d="m600,203.44c-.2.86-.42,1.72-.62,2.58-1.98,8.48-8.44,13.84-17.11,14.04-5.48.12-10.96.02-16.41.02-.14,0-.28-.04-.48-.06v-40.13h2.32c5.18.04,10.38-.14,15.55.18,8.56.54,14.7,6.24,16.31,14.68.12.66.3,1.32.44,1.98v6.72Zm-29.09,11.04c4.12,0,8.12.2,12.1-.06,4.68-.3,8.08-2.82,10.06-7.1,1.52-3.3,1.84-6.8,1.26-10.36-1.22-7.5-5.98-11.52-13.54-11.52h-9.88v29.03Z"></path><path class="cls-1" d="m448.43,179.23c1.38.36,2.78.62,4.14,1.06,9.26,3.04,14.97,11.78,14.24,21.71-.68,9.16-7.98,16.95-17.33,18.53-.2.04-.4.14-.6.2h-5.62c-1.88-.56-3.84-.96-5.64-1.72-8.62-3.72-13.54-12.6-12.28-21.91,1.22-9.08,8.56-16.37,17.75-17.67.2-.02.38-.14.58-.2h4.76Zm12.86,20.81c.02-8.34-6.9-15.27-15.25-15.29-8.34-.02-15.29,6.92-15.31,15.25,0,8.34,6.9,15.25,15.27,15.29,8.34.04,15.27-6.9,15.29-15.25Z"></path><path class="cls-1" d="m511.99,220.73c-2.3-.76-4.72-1.28-6.88-2.34-7.88-3.86-12.32-12.66-11.02-21.45,1.26-8.58,8.02-15.67,16.49-17.29.62-.12,1.24-.28,1.86-.42h4.76c.82.2,1.64.38,2.48.58,9.66,2.34,16.27,11.04,15.93,20.89-.34,9.94-7.54,18.13-17.39,19.81-.2.04-.4.14-.58.2-1.9.02-3.78.02-5.66.02Zm18.03-20.65c.08-8.3-6.78-15.21-15.21-15.33-8.22-.12-15.29,6.86-15.35,15.09-.06,8.4,6.82,15.37,15.23,15.45,8.34.06,15.27-6.82,15.33-15.21Z"></path><path class="cls-1" d="m96.93,214.6h22.75v5.4h-28.31v-40.01h28.31v5.44h-22.73v12.18h19.33v5.4h-19.33c-.02,3.92-.02,7.68-.02,11.6Z"></path><path class="cls-1" d="m324.15,197.34v5.5h-16.35v17.59h-5.5c-.02-.4-.06-.78-.06-1.16,0-5.08-.02-10.16.02-15.23,0-.9-.26-1.16-1.16-1.14-4.64.04-9.3.02-13.94.02h-1.32v-5.44h16.37v-17.77h5.54v17.65c5.52-.02,10.92-.02,16.39-.02Z"></path><path class="cls-1" d="m221.31,179.97h5.5v34.59h21.59v5.46h-27.07c-.02-13.32-.02-26.65-.02-40.05Z"></path><path class="cls-1" d="m184.78,214.54v5.48h-27.09v-40.03h5.42v34.55h21.67Z"></path></svg> 