<?xml version="1.0" encoding="UTF-8"?> <svg xmlns="http://www.w3.org/2000/svg" id="Layer_1" width="600" height="400" viewBox="0 0 600 400"><defs><style>.cls-1{fill:#3c3382;}</style></defs><g><path class="cls-1" d="m146.82,200.52c0,15.75-20.52,26.12-50.37,34.41-1.45,3.52-2.9,10.16-2.9,18.45,0,7.05,4.35,11.82,9.95,11.82,7.46,0,12.64-4.15,21.77-12.02,1.87,0,3.11,1.66,2.69,3.52-12.64,15.55-24.46,18.86-33.17,18.86-12.44,0-16.79-11.61-16.79-21.77,0-13.06,8.29-38.35,30.89-55.76,10.78-8.29,18.86-9.95,24.87-9.95,8.29,0,13.06,7.05,13.06,12.44Zm-32.96,3.94c-8.08,8.71-12.85,18.24-15.34,24.25,13.68-4.15,20.11-8.08,27.78-15.34,6.43-6.01,8.08-12.23,8.08-14.1,0-2.07-1.04-4.77-4.77-4.77-2.9,0-8.29,1.87-15.75,9.95Z"></path><path class="cls-1" d="m236.57,151.81c4.15-11.61,4.77-15.34,1.87-17.2l-4.77-3.32c-.41-.83-.21-2.07.62-2.9,3.94-1.45,15.55-4.15,24.46-3.94l.83,1.24c-3.73,11.61-6.84,19.48-13.06,36.69-20.52,56.59-30.26,89.76-32.13,95.97-.83,2.69-.62,4.77,1.24,4.77,3.32,0,16.38-10.57,22.8-18.66,1.87,0,2.9.83,3.11,2.69-5.6,11.4-24.46,28.4-35.24,28.4-4.35,0-6.63-3.32-6.63-6.63,0-2.49.62-5.8,2.69-11.82l7.26-20.52-.83-.21c-14.3,19.07-29.85,39.18-49.96,39.18-8.08,0-12.44-6.63-12.44-14.92,0-14.72,11.19-39.38,27.57-54.1,14.1-12.64,27.15-18.45,37.1-18.45,3.32,0,8.29,2.07,10.57,6.43l14.92-42.7Zm-41.66,51.41c-8.29,7.67-23.22,27.36-29.64,40.42-6.43,13.27-6.43,17-6.43,19.69,0,2.49,2.07,4.35,3.94,4.35,3.11,0,13.68-3.73,27.98-18.45,16.17-16.58,22.18-29.02,25.29-40.01,2.49-8.71-.21-14.92-5.39-14.92-4.77,0-10.36,3.94-15.75,8.91Z"></path><path class="cls-1" d="m275.96,205.29c1.04-2.28,1.04-3.94-.41-3.94s-6.84,2.49-17.2,10.99c-1.87-.21-3.11-1.87-2.69-3.52,11.4-13.06,27.36-20.73,34.2-20.73,1.45,0,2.49,1.24,3.32,2.07,1.24,1.24,1.24,3.11-1.24,9.12l-24.67,58.87c-.83,2.07-1.04,4.56.62,4.56,3.52,0,14.51-7.26,21.56-15.34,2.07.21,3.11,1.66,3.11,3.52-3.11,6.01-24.46,24.67-38.76,24.67-1.04,0-2.28-.62-3.32-1.87-1.24-1.45-1.87-3.32-.83-5.6l26.33-62.81Z"></path><path class="cls-1" d="m331.51,224.15h.41c14.51-21.97,28.4-36.07,43.95-36.07,12.23,0,17.83,8.08,17.83,18.66,0,14.3-9.95,32.34-26.74,48.71-17,16.38-32.34,20.11-39.59,20.11-11.19,0-16.58-7.26-16.58-19.07,0-9.74,4.56-24.67,10.57-40.84l24.05-63.84c4.35-11.61,4.97-15.34,2.07-17.2l-4.77-3.32c-.41-.83-.21-2.07.62-2.9,3.94-1.45,15.34-4.15,24.87-3.94l.83,1.24c-4.35,11.61-7.46,19.48-10.57,27.57l-26.95,70.89Zm12.64-7.26c-13.06,14.92-19.48,31.92-19.48,41.46,0,8.08,3.73,10.78,7.26,10.78,3.11,0,10.99-3.94,19.9-13.89,12.85-14.51,28.19-40.84,28.19-52.65,0-5.6-3.52-7.46-7.26-7.46-5.6,0-15.75,7.05-28.61,21.77Z"></path><path class="cls-1" d="m418.57,259.19c-1.66,4.77-1.45,6.84.83,6.84,4.56,0,14.3-10.16,23.84-20.94,2.07-.21,3.32.83,3.32,2.9-5.39,10.36-18.45,27.57-35.65,27.57-6.22,0-8.08-2.9-8.08-6.22s1.04-7.05,4.56-17.62l32.96-98.05c4.97-14.51,2.9-16.58-.21-18.03l-3.73-1.66c-1.04-.83-1.04-2.69,0-3.32,3.73-1.45,16.58-5.39,26.12-6.22l1.04,1.24c-2.69,7.46-4.77,13.27-12.23,35.65l-32.75,97.84Z"></path><path class="cls-1" d="m522,200.52c0,15.75-20.52,26.12-50.37,34.41-1.45,3.52-2.9,10.16-2.9,18.45,0,7.05,4.35,11.82,9.95,11.82,7.46,0,12.64-4.15,21.77-12.02,1.87,0,3.11,1.66,2.69,3.52-12.64,15.55-24.46,18.86-33.17,18.86-12.44,0-16.79-11.61-16.79-21.77,0-13.06,8.29-38.35,30.89-55.76,10.78-8.29,18.86-9.95,24.87-9.95,8.29,0,13.06,7.05,13.06,12.44Zm-32.96,3.94c-8.08,8.71-12.85,18.24-15.34,24.25,13.68-4.15,20.11-8.08,27.78-15.34,6.43-6.01,8.08-12.23,8.08-14.1,0-2.07-1.04-4.77-4.77-4.77-2.9,0-8.29,1.87-15.75,9.95Z"></path></g><path class="cls-1" d="m300.83,153.53c0,6.43-4.56,13.06-10.99,13.06-5.39,0-7.46-4.15-7.46-7.88,0-4.56,3.11-13.06,11.19-13.06,4.77,0,7.26,3.32,7.26,7.88Z"></path></svg> 