<?xml version="1.0" encoding="UTF-8"?> <svg xmlns="http://www.w3.org/2000/svg" id="Layer_1" width="600" height="400" viewBox="0 0 600 400"><defs><style>.cls-1{fill:#3c3382;}</style></defs><g><path class="cls-1" d="m110.81,129.42v-.49c6.64-2.44,10.54-9.76,10.54-17.27,0-14.63-11.47-19.66-27.07-19.66h-24.28v79.76h26.23c16.72,0,29.15-7.47,29.15-23.42,0-10.78-6.18-16.94-14.58-18.93Zm-27.31-26.39h9.89c9.84,0,14.81,2.92,14.81,10.63,0,6.92-4.54,11.27-15.12,11.27h-9.57v-21.9Zm11.34,57.71h-11.38v-25.22h11.38c11.33,0,17.36,3.65,17.36,12.05,0,8.98-6.21,13.17-17.36,13.17Z"></path><path class="cls-1" d="m216.78,132.1c-2.38,9.05-4.13,16.88-6.68,25.96h-.47c-2.56-9.09-4.22-16.91-6.69-25.96l-10.68-40.1h-59.79v79.76h46.87v-11.9h-33.41v-23.61h27.3v-11.91h-27.3v-20.44h32.25v-11.35l23.43,79.21h15.97l23.49-79.76h-13.74l-10.55,40.1Z"></path><polygon class="cls-1" points="256.26 136.25 283.55 136.25 283.55 124.34 256.26 124.34 256.26 103.9 288.47 103.9 288.47 92 242.79 92 242.79 171.76 289.64 171.76 289.64 159.86 256.26 159.86 256.26 136.25"></polygon><path class="cls-1" d="m374.47,92l-22.86,73.7-14.85-27.18c9.11-3.33,15.17-10.76,15.17-22.86,0-17.84-12.13-23.66-27.92-23.66h-25.59v79.76h13.46v-31.18h11.57l16.33,31.13h9.97v.05s13.75,0,13.75,0l5.92-21.61h25.45l5.89,21.61h14.25l-24.74-79.76h-15.79Zm-62.6,11.33h10.73c10.4,0,16.06,3.21,16.06,12.28s-5.67,13.61-16.06,13.61l-10.73.05v-25.94Zm60.58,35.72l2.67-9.74c2.41-8.43,4.64-17.46,6.74-26.29h.45c2.22,8.75,4.46,17.86,6.87,26.29l2.65,9.74h-19.38Z"></path><path class="cls-1" d="m446.02,140.2h14.31v17.24c-2.42,2.22-6.6,3.49-10.82,3.49-15.24,0-23.27-11.03-23.27-29.22s9.02-28.88,22.56-28.88c7.06,0,11.52,3.02,15.32,6.92l7.2-9.12c-5.86-6.5-14.23-10.18-22.99-10.1-20.19,0-35.93,15.52-35.93,41.61s15.27,41.09,35.75,41.14c10.4,0,19.18-4.11,24.24-9.47v-35.25h-26.37v11.63Z"></path><polygon class="cls-1" points="495.94 159.86 495.94 136.25 523.24 136.25 523.24 124.34 495.94 124.34 495.94 103.9 528.15 103.9 528.15 92 482.48 92 482.48 171.76 529.31 171.76 529.31 159.86 495.94 159.86"></polygon></g><path class="cls-1" d="m70,307.25v-118.75h23.73c11.38,0,20.36,1.16,26.95,3.49,7.24,2.42,13.82,6.47,19.26,11.82,11.63,11.18,17.45,25.86,17.45,44.06s-6.06,32.97-18.18,44.3c-5.48,5.26-12.02,9.27-19.19,11.76-6.24,2.21-15.1,3.32-26.58,3.32h-23.44Zm17.07-16.84h7.69c6.46.17,12.91-.69,19.11-2.54,5.14-1.84,9.84-4.75,13.77-8.54,8.4-8.05,12.6-18.52,12.6-31.41,0-12.89-4.15-23.47-12.46-31.76-7.5-7.2-18.51-10.81-33.02-10.82h-7.69v85.06Z"></path><path class="cls-1" d="m185.77,188.5v118.75h-17.05v-118.75h17.05Z"></path><path class="cls-1" d="m260.89,245.42h46.74v3.92c.12,8-.9,15.97-3.01,23.68-2.06,6.55-5.42,12.62-9.89,17.83-10.49,12.41-23.85,18.61-40.06,18.61-15.82,0-29.37-5.99-40.64-17.98-11.28-11.99-16.92-26.45-16.93-43.38,0-17.23,5.74-31.84,17.22-43.83,11.48-11.99,25.44-18.02,41.88-18.08,8.59-.06,17.07,1.89,24.77,5.69,7.33,3.78,14.53,9.93,21.61,18.46l-12.16,12.23c-9.31-12.97-20.61-19.46-33.92-19.45-11.45-.21-22.42,4.54-30.09,13.04-8.1,8.53-12.16,19.19-12.16,31.99s4.51,24.12,13.54,32.68c8.46,7.96,17.62,11.93,27.48,11.92,8.4,0,16.49-3.19,22.63-8.92,6.4-5.44,10.42-13.17,11.2-21.53h-28.2v-16.88Z"></path><path class="cls-1" d="m381.29,205.35h-45.37v28.53h44.02v16.84h-43.99v39.68h45.37v16.84h-62.37v-118.75h62.35v16.84Z"></path><path class="cls-1" d="m457.44,206.2l-13.84,8.61c-2.58-4.72-5.05-7.79-7.4-9.22-2.83-1.75-6.12-2.6-9.45-2.45-4.33-.15-8.55,1.36-11.8,4.22-3.04,2.62-4.75,6.46-4.65,10.47,0,5.79,4.1,10.45,12.31,13.96l11.28,4.85c9.17,3.88,15.89,8.63,20.14,14.26,4.25,5.63,6.37,12.51,6.37,20.65,0,10.92-3.47,19.94-10.4,27.07-6.76,7.09-16.2,11-26,10.77-9.82,0-17.92-3.05-24.31-9.15-6.39-6.1-10.32-14.69-11.8-25.77l17.29-3.99c.78,6.98,2.14,11.8,4.09,14.45,3.53,5.13,8.66,7.7,15.39,7.7,5.02.12,9.85-1.93,13.25-5.62,3.56-3.86,5.45-8.98,5.27-14.23.02-2.15-.28-4.29-.91-6.34-.62-1.93-1.59-3.74-2.86-5.32-1.44-1.75-3.13-3.28-5.01-4.54-2.32-1.55-4.77-2.9-7.33-4.04l-10.91-4.77c-15.51-6.86-23.25-16.91-23.21-30.14-.18-8.53,3.38-16.72,9.74-22.4,6.49-6.05,14.57-9.07,24.24-9.07,13.01.03,23.17,6.71,30.5,20.04Z"></path><path class="cls-1" d="m504.07,205.35v101.9h-17.07v-101.9h-26v-16.84h68.99v16.84h-25.93Z"></path></svg> 