<?xml version="1.0" encoding="UTF-8"?> <svg xmlns="http://www.w3.org/2000/svg" id="Layer_1" width="600" height="400" viewBox="0 0 600 400"><defs><style>.cls-1{fill:#3a357e;}</style></defs><g><path class="cls-1" d="m131.42,112.58h25.54c.53,0,.96.43.96.96v27.49c-.03.53.37.98.9,1.01.31.02.61-.12.8-.36,4.24-4.6,10.36-8.4,18.52-8.4,13.93,0,22.65,9.2,22.65,24.1v42.63c0,.53-.43.96-.96.96h-25.54c-.53,0-.96-.43-.96-.96v-33.76c0-5.69-3.39-8.96-7.51-8.96s-7.87,3.27-7.87,8.96v33.78c0,.53-.43.96-.96.96h-25.57c-.53,0-.96-.43-.96-.96v-86.48c0-.53.43-.96.96-.96h0Z"></path><path class="cls-1" d="m490.8,134.86h25.54c.53,0,.96.43.96.96v8.13c-.04.53.36.98.89,1.02.39.03.76-.19.93-.54,3.69-6.55,9.19-10.66,17.91-10.57.52.01.94.43.96.96v27.25c0,.53-.43.96-.96.96h-1.91c-11.63,0-17.8,6.42-17.8,21.07v15.86c0,.53-.43.96-.96.96h-25.54c-.53,0-.96-.43-.96-.96v-64.11c0-.53.43-.96.96-.96v-.02Z"></path><path class="cls-1" d="m480.41,142.37c-5.81-5.81-14.53-8.6-27.98-8.6-11.09,0-19.6,1.8-27.02,4.53-.48.17-.74.68-.6,1.17l4.34,16.38c.12.51.64.83,1.15.71l.14-.05c5.46-2.07,10.88-3.35,17.27-3.35,8.48,0,12.23,3.51,12.23,9.56,0,.42-.34.76-.76.76-.08,0-.16-.01-.23-.04-3.35-1.08-9.61-2.06-14.62-2.06-15.38,0-25.19,7.39-25.19,20.59v.24c0,13.08,8.96,20.34,21.67,20.34,7.3,0,12.98-2.57,17.38-6.6.37-.38.97-.39,1.35-.02.2.19.3.46.29.73v3.35c0,.53.43.96.96.96h25.54c.53,0,.96-.43.96-.96v-36.7c.04-9.57-1.9-15.99-6.86-20.95Zm-28.51,45.5c-4.58,0-8.29-3.71-8.29-8.29s3.71-8.29,8.29-8.29c4.58,0,8.29,3.71,8.29,8.29s-3.71,8.29-8.29,8.29h0Z"></path><path class="cls-1" d="m418.56,112.58h-25.54c-.53,0-.96.43-.96.96v26.38c.03.53-.38.98-.91,1-.28.01-.56-.1-.75-.31-4.04-4-9.41-7.34-18.2-7.34-15.62,0-28.2,13.92-28.2,34.9v.24c0,20.23,12.48,34.15,28.46,34.15,10.04,0,15.14-4.84,19.6-9.69v7.14c0,.53.43.96.96.96h25.55c.53,0,.96-.43.96-.96v-86.47c0-.53-.43-.96-.96-.96Zm-35.8,64.08c-5.39,0-9.75-4.37-9.75-9.75s4.37-9.75,9.75-9.75c5.39,0,9.75,4.37,9.75,9.75s-4.37,9.75-9.75,9.75h0Z"></path><path class="cls-1" d="m342.99,112.58h-25.55c-.53,0-.96.43-.96.96v26.38c.02.53-.39.97-.91,1-.28.01-.55-.1-.74-.31-4.04-4-9.41-7.33-18.2-7.33-15.62,0-28.2,13.92-28.2,34.9v.24c0,20.23,12.47,34.15,28.46,34.15,10.04,0,15.14-4.84,19.6-9.69v7.14c0,.53.43.96.96.96h25.56c.53,0,.96-.43.96-.96v-86.47c0-.53-.43-.96-.96-.96Zm-35.32,64.08c-5.39,0-9.75-4.37-9.75-9.75,0-5.39,4.37-9.75,9.75-9.75,5.39,0,9.75,4.37,9.75,9.75s-4.37,9.75-9.75,9.75h0Z"></path><path class="cls-1" d="m266.15,186.96l-13.33-10.6c-.39-.32-.95-.28-1.3.08-4.13,4.08-8.1,6.17-12.83,6.17-5.44,0-9.77-2.55-11.95-7.46-.22-.49,0-1.07.48-1.3.13-.06.26-.09.4-.09h41.08c.12-1.43.12-3.15.12-4.6,0-20.08-10.9-36.45-34.42-36.45-19.86,0-34.03,15.01-34.03,34.76v.24c0,20.58,14.66,34.27,36.33,34.27,13.86,0,23.05-5.58,29.55-13.65.35-.4.3-1-.1-1.35v-.02Zm-30.16-33.7c4.63,0,8.52,3.47,9.05,8.07.06.52-.32,1-.84,1.06,0,0,0,0,0,0h-16.29c-.53,0-.96-.43-.96-.96,0-.04,0-.07,0-.11.54-4.59,4.42-8.05,9.04-8.06Z"></path><path class="cls-1" d="m107.32,173.58c-.44-.26-1.01-.13-1.29.3-2.52,3.77-5.26,5.91-9.8,5.91-5.22,0-9.42-4.55-9.78-10.99,0-.29-.04-.58-.04-.88v-.24c0-6.54,4.36-11.63,10.18-11.63,4.18,0,6.99,2.11,9.22,5.84.27.45.85.61,1.31.34h0l18.13-10.22h0c.43-.25.6-.79.38-1.24-5.21-10.34-15.35-17.49-29.52-17.49-21.56,0-36.11,16.11-36.11,34.64v1.1c.44,18.16,14.95,33.54,34.74,33.54,6.65,0,12.28-1.27,17.02-3.55.45-.2.68-.72.52-1.19-.24-.66-.36-1.35-.35-2.06.06-3.56,2.78-6.52,6.32-6.88,1.3-.12,2.61.19,3.72.88.42.27.98.18,1.29-.22.86-1.14,1.66-2.33,2.39-3.56l.36-.61c.28-.45.14-1.04-.31-1.31l-.05-.03-18.32-10.44Z"></path><path class="cls-1" d="m123.91,194.72c-3.55.36-6.27,3.32-6.33,6.88,0,.98.23,1.95.7,2.82,3.89-2.03,7.31-4.85,10.04-8.28-1.21-1.06-2.8-1.57-4.4-1.41Z"></path></g><path class="cls-1" d="m318.67,285.79h-27.14v-35.2c0-3.26-1.91-8.35-7.51-8.35s-7.99,5.25-7.99,8.94v34.61h-27.31v-65.91h27.31v9.77c2.5-3.59,7.99-11.03,21.19-11.03,4.83,0,8.65.81,11.46,2.44s4.96,3.66,6.44,6.08c1.47,2.42,2.43,5.01,2.88,7.77.45,2.76.67,5.26.67,7.52v43.35Z"></path><path class="cls-1" d="m356.61,287.42c-6.17,0-11.66-.9-16.49-2.69-4.83-1.8-8.87-4.62-12.13-7.71-3.26-3.09-5.74-6.64-7.44-10.65-1.7-4.01-2.55-8.23-2.55-12.66,0-4.76.83-9.27,2.48-13.53,1.65-4.26,4.11-7.98,7.37-11.15,3.26-3.17,11.24-10.51,25.79-10.51,24.08,0,30.27,17.22,31.93,21.35,1.65,4.13,2.48,8.46,2.48,12.97,0,1.25-.07,2.53-.2,3.82-.13,1.3-.29,2.44-.47,3.45h-41.61c0,3.12,4.41,8.01,11.68,8.01s13.47-6.91,13.47-6.91l15.02,12.04c-2.86,5.26-14.66,14.19-29.34,14.19Zm6.09-40.29c-.45-3.17-2.62-9.79-9.06-9.79s-8.65,6.61-9.1,9.79h18.16Z"></path><path class="cls-1" d="m458.67,219.88h26.23l-19.91,65.91h-23.85l-8.4-25.06-8.4,25.06h-23.85l-19.91-65.91h26.59l6.56,26.4,7.99-26.4h22.29l7.75,26.4,6.91-26.4Z"></path><path class="cls-1" d="m510.66,287.42c-23.93,0-34.34-9.42-34.34-9.42l9.18-15.86c9.96,6.62,21.02,7.43,24.68,7.63,2.15.12,4.14-.24,4.23-2.32.06-1.31-1.25-2.47-6.02-3.64-4.77-1.25-12.74-3.52-15.98-4.77-3.24-1.25-13.36-5.42-13.36-17.37,0-22.45,21.35-23.18,28.75-23.18,16.8,0,24.91,4.97,30.28,7.39l-9.43,15.99c-4.77-2.17-8.73-3.74-11.88-4.7-3.15-.96-11.9-2.45-12.56.76-.48,2.34,1.65,2.58,3.14,3.04,1.49.46,3.34.94,5.56,1.44,5.11,1.25,9.42,2.55,12.9,3.95,8.74,3.49,11.95,9.61,12.84,11.66.89,2.05,1.34,4.41,1.34,7.08,0,6.77-2.62,12.11-7.86,16.04-5.24,3.93-12.46,6.27-21.49,6.27Z"></path></svg> 