<?xml version="1.0" encoding="UTF-8"?> <svg xmlns="http://www.w3.org/2000/svg" id="Layer_1" width="600" height="400" viewBox="0 0 600 400"><defs><style>.cls-1{fill:#fff;}</style></defs><ellipse class="cls-1" cx="42.13" cy="266.65" rx="26.88" ry="2.76"></ellipse><g><path class="cls-1" d="m96.56,144.32h12.77c9.99,0,14.99,6.2,14.99,18.61,0,4.74-.65,8.26-1.95,10.55-1.3,2.29-3.59,4.03-6.88,5.21,3.77,1.51,6.35,3.44,7.74,5.8,1.42,2.32,2.13,5.83,2.13,10.5,0,12.83-5.49,19.24-16.48,19.24h-12.32v-69.91Zm8.88,30.79c3.65,0,6.19-.84,7.61-2.54,1.42-1.78,2.13-4.91,2.13-9.37,0-7.55-2.72-11.32-8.15-11.32h-1.13c-.24,0-.39.02-.45.05v23.18Zm0,31.06c3.86,0,6.54-.83,8.01-2.49,1.48-1.66,2.22-4.66,2.22-9.01s-.77-7.59-2.31-9.37c-1.51-1.81-4.15-2.72-7.92-2.72v23.59Z"></path><path class="cls-1" d="m152.81,198.43h8.06c-.63,11.02-5.16,16.53-13.58,16.53-2.51,0-4.66-.47-6.45-1.4-1.8-.94-3.28-2.38-4.46-4.35s-2.05-4.45-2.6-7.47c-.56-3.02-.84-6.61-.84-10.78,0-8.27,1.15-14.4,3.47-18.38,2.31-3.98,5.88-5.98,10.71-5.98,9.39,0,14.08,8.27,14.08,24.81v1.09h-19.79c0,10.02,1.99,15.03,5.98,15.03,3.62,0,5.43-3.03,5.43-9.1Zm-.45-12.18c-.36-4.92-.92-8.15-1.68-9.69-.78-1.72-2.05-2.58-3.8-2.58s-3.05.86-3.8,2.58c-.75,1.54-1.31,4.77-1.68,9.69h10.96Z"></path><path class="cls-1" d="m164.28,167.37h9.28l3.4,14.85c.69,3.02,1.28,6.21,1.77,9.58.48,3.37.87,7.04,1.18,11.03.18-.94.27-1.48.27-1.63l1.04-6.97c.39-2.66,1.16-6.66,2.31-12l3.13-14.85h8.38l-12.23,46.87h-5.84l-12.68-46.87Z"></path><path class="cls-1" d="m221.08,198.43h8.06c-.63,11.02-5.16,16.53-13.58,16.53-2.51,0-4.66-.47-6.45-1.4-1.8-.94-3.28-2.38-4.46-4.35s-2.05-4.45-2.6-7.47c-.56-3.02-.84-6.61-.84-10.78,0-8.27,1.15-14.4,3.47-18.38,2.31-3.98,5.88-5.98,10.71-5.98,9.39,0,14.08,8.27,14.08,24.81v1.09h-19.79c0,10.02,1.99,15.03,5.98,15.03,3.62,0,5.43-3.03,5.43-9.1Zm-.45-12.18c-.36-4.92-.92-8.15-1.68-9.69-.78-1.72-2.05-2.58-3.8-2.58s-3.05.86-3.8,2.58c-.75,1.54-1.31,4.77-1.68,9.69h10.96Z"></path><path class="cls-1" d="m237.62,167.37h8.65v5.84c1.48-2.47,2.94-4.21,4.39-5.21,1.45-1,3.37-1.57,5.75-1.72v9.06c-.61-.09-1.12-.13-1.54-.13-3.11,0-5.33.8-6.66,2.4-1.3,1.57-1.95,4.32-1.95,8.24v28.39h-8.65v-46.87Z"></path><path class="cls-1" d="m290.15,167.37v46.87h-8.65v-6.02c-1.24,2.57-2.48,4.33-3.71,5.3s-2.87,1.45-4.89,1.45c-3.89,0-6.75-1.99-8.56-5.98-1.81-3.99-2.72-10.23-2.72-18.75s.91-14.09,2.72-17.91,4.66-5.73,8.56-5.73c3.56,0,6.43,2.02,8.6,6.07v-5.3h8.65Zm-19.56,23.23c0,6.16.41,10.46,1.22,12.91.84,2.44,2.32,3.67,4.44,3.67,1.93,0,3.33-1.27,4.21-3.8.87-2.72,1.31-6.9,1.31-12.54s-.44-9.87-1.31-12.59c-.88-2.54-2.28-3.8-4.21-3.8-2.05,0-3.52,1.21-4.39,3.62-.85,2.23-1.27,6.41-1.27,12.54Z"></path><path class="cls-1" d="m318.6,167.37h8.69v48.36c0,5.8-.57,9.81-1.72,12.04-2.11,4.1-6.36,6.16-12.72,6.16-4.2,0-7.49-1.19-9.87-3.58-2.42-2.42-3.62-5.66-3.62-9.73l.05-1.45h8.38c0,4.98,1.86,7.47,5.57,7.47,2.02,0,3.4-.63,4.12-1.9.75-1.21,1.13-3.61,1.13-7.2v-9.01c-1.84,4.29-4.66,6.43-8.47,6.43s-6.82-1.9-8.67-5.71c-1.86-3.8-2.79-9.75-2.79-17.84,0-8.57.89-14.9,2.67-18.97,1.75-3.89,4.66-5.84,8.74-5.84,1.93,0,3.5.47,4.71,1.4,1.21.94,2.47,2.6,3.8,4.98v-5.62Zm.14,23.86c0-11.2-1.93-16.8-5.8-16.8-1.84,0-3.19,1.26-4.03,3.78-.85,2.52-1.27,6.56-1.27,12.11,0,5.89.44,10.22,1.31,13,.91,2.57,2.42,3.85,4.53,3.85,1.99,0,3.37-1.15,4.12-3.44.75-2.14,1.13-6.31,1.13-12.5Z"></path><path class="cls-1" d="m354.63,198.43h8.06c-.63,11.02-5.16,16.53-13.58,16.53-2.51,0-4.66-.47-6.45-1.4-1.8-.94-3.28-2.38-4.46-4.35-1.18-1.96-2.05-4.45-2.6-7.47-.56-3.02-.84-6.61-.84-10.78,0-8.27,1.15-14.4,3.47-18.38,2.31-3.98,5.88-5.98,10.71-5.98,9.39,0,14.08,8.27,14.08,24.81v1.09h-19.79c0,10.02,1.99,15.03,5.98,15.03,3.62,0,5.43-3.03,5.43-9.1Zm-.45-12.18c-.36-4.92-.92-8.15-1.68-9.69-.78-1.72-2.05-2.58-3.8-2.58s-3.05.86-3.8,2.58c-.75,1.54-1.31,4.77-1.68,9.69h10.96Z"></path><path class="cls-1" d="m426.71,181c0,12.35-1.37,21.12-4.12,26.31-2.75,5.19-7.35,7.79-13.81,7.79-6.79,0-11.58-2.79-14.35-8.38-2.75-5.46-4.12-15.17-4.12-29.12,0-12.44,1.36-21.24,4.08-26.4,2.75-5.19,7.4-7.79,13.95-7.79,5.86,0,10.21,2.01,13.04,6.02,1.87,2.69,3.23,6.51,4.08,11.46.84,4.59,1.27,11.29,1.27,20.11Zm-9.87,1c0-12.11-.54-20.13-1.63-24.09-1.09-3.98-3.31-5.98-6.66-5.98s-5.58,1.83-6.7,5.48c-1.09,3.68-1.63,11.08-1.63,22.19,0,10.23.57,17.33,1.72,21.28,1.18,3.74,3.38,5.62,6.61,5.62s5.34-1.75,6.52-5.25c1.18-3.47,1.76-9.89,1.76-19.24Z"></path><path class="cls-1" d="m435.07,167.37h8.65v5.39c2.48-4.1,5.67-6.16,9.6-6.16s6.52,1.49,8.15,4.48c.91,1.69,1.36,4.97,1.36,9.83v33.33h-8.65l-.04-31.33c0-3.17-.38-5.42-1.13-6.75s-2.05-1.99-3.9-1.99c-1,0-1.83.17-2.51.52-.68.35-1.23.91-1.65,1.68-.42.77-.73,1.77-.93,3.01-.2,1.24-.29,2.76-.29,4.57v30.29h-8.65v-46.87Z"></path><path class="cls-1" d="m472.06,137.3h8.65v76.93h-8.65v-76.93Z"></path><path class="cls-1" d="m495.07,147.44c1.57,0,2.93.57,4.07,1.72s1.72,2.52,1.72,4.12-.57,3.02-1.72,4.17c-1.15,1.15-2.54,1.72-4.17,1.72s-3.02-.57-4.17-1.72c-1.12-1.12-1.68-2.52-1.68-4.21,0-1.57.57-2.93,1.72-4.07,1.24-1.15,2.64-1.72,4.21-1.72Zm-4.08,19.92h8.69v46.87h-8.69v-46.87Z"></path><path class="cls-1" d="m508.77,167.37h8.65v5.39c2.48-4.1,5.67-6.16,9.6-6.16s6.52,1.49,8.15,4.48c.91,1.69,1.36,4.97,1.36,9.83v33.33h-8.65l-.04-31.33c0-3.17-.38-5.42-1.13-6.75s-2.05-1.99-3.9-1.99c-1,0-1.83.17-2.51.52-.68.35-1.23.91-1.65,1.68-.42.77-.73,1.77-.93,3.01-.2,1.24-.29,2.76-.29,4.57v30.29h-8.65v-46.87Z"></path><path class="cls-1" d="m564.42,198.43h8.06c-.63,11.02-5.16,16.53-13.59,16.53-2.5,0-4.66-.47-6.45-1.4-1.8-.94-3.28-2.38-4.46-4.35-1.18-1.96-2.05-4.45-2.6-7.47-.56-3.02-.84-6.61-.84-10.78,0-8.27,1.15-14.4,3.46-18.38,2.31-3.98,5.88-5.98,10.71-5.98,9.39,0,14.08,8.27,14.08,24.81v1.09h-19.79c0,10.02,1.99,15.03,5.98,15.03,3.62,0,5.43-3.03,5.43-9.1Zm-.45-12.18c-.36-4.92-.92-8.15-1.68-9.69-.79-1.72-2.05-2.58-3.8-2.58s-3.05.86-3.8,2.58c-.75,1.54-1.31,4.77-1.68,9.69h10.96Z"></path></g><polygon class="cls-1" points="42.13 267.15 41.12 226.79 0 130.09 42.13 267.15"></polygon><polygon class="cls-1" points="0 130.09 41.12 221.75 41.12 195.75 0 130.09"></polygon><polygon class="cls-1" points="42.13 267.15 43.14 226.79 84.26 130.09 42.13 267.15"></polygon><polygon class="cls-1" points="84.26 130.09 43.14 221.75 43.14 195.75 84.26 130.09"></polygon><g><path class="cls-1" d="m99.9,239.62h2.44l4.99,23.26h-3.1l-.87-4.53h-4.61l-.89,4.53h-3.01l5.06-23.26Zm3,16.3l-.69-3.7c-.46-2.52-.84-5.21-1.13-8.07-.14,1.4-.32,2.81-.54,4.24-.22,1.43-.48,2.95-.78,4.56l-.57,2.98h3.72Z"></path><path class="cls-1" d="m112.96,239.62h3.09l1.4,8.59.24,1.55.5,3.37c.08.57.15,1.09.22,1.57.07.47.12.9.17,1.28l.15,1.14c.03-.23.05-.44.07-.62s.04-.33.06-.45l.41-2.7.53-3.54c.05-.32.1-.62.14-.89.04-.27.09-.51.13-.72l1.51-8.59h2.92l-4.56,23.26h-2.49l-4.49-23.26Z"></path><path class="cls-1" d="m131.12,257.63h2.68c-.21,3.67-1.72,5.5-4.52,5.5-.83,0-1.55-.16-2.15-.47-.6-.31-1.09-.79-1.48-1.45-.39-.65-.68-1.48-.87-2.49-.19-1.01-.28-2.2-.28-3.58,0-2.75.38-4.79,1.15-6.12.77-1.33,1.96-1.99,3.56-1.99,3.12,0,4.68,2.75,4.68,8.26v.36h-6.58c0,3.33.66,5,1.99,5,1.21,0,1.81-1.01,1.81-3.03Zm-.15-4.05c-.12-1.64-.31-2.71-.56-3.23-.26-.57-.68-.86-1.27-.86s-1.01.28-1.27.86c-.25.51-.44,1.59-.56,3.23h3.65Z"></path><path class="cls-1" d="m136.1,247.29h2.88v1.95c.49-.82.98-1.4,1.46-1.73.48-.33,1.12-.52,1.91-.57v3.01c-.2-.03-.37-.05-.51-.05-1.03,0-1.77.27-2.21.8-.43.52-.65,1.44-.65,2.74v9.45h-2.88v-15.59Z"></path><path class="cls-1" d="m144.96,242.92h2.88v4.37h1.57v2.29h-1.57v13.3h-2.88v-13.3h-1.58v-2.29h1.58v-4.37Z"></path><path class="cls-1" d="m152.36,239.62h2.68l2.05,9.49c.25,1.18.48,2.37.69,3.56.2,1.19.39,2.44.56,3.74.02-.17.04-.3.05-.4,0-.09.02-.16.03-.2l.44-2.67.39-2.53.35-1.67,1.82-9.33h2.71l2.14,23.26h-3l-.53-7.89c-.02-.4-.04-.75-.05-1.04-.02-.29-.02-.53-.02-.72l-.13-3.12-.08-2.86s0-.06,0-.13c0-.07-.01-.15-.02-.26l-.07.47c-.08.55-.15,1.03-.22,1.45s-.12.76-.17,1.04l-.39,2.12-.15.8-1.96,10.15h-2.11l-1.84-8.77c-.25-1.15-.47-2.33-.67-3.52-.2-1.19-.37-2.44-.54-3.74l-.9,16.03h-2.95l1.91-23.26Z"></path><path class="cls-1" d="m177.23,247.29v15.59h-2.88v-2c-.41.85-.82,1.44-1.24,1.76s-.95.48-1.63.48c-1.3,0-2.25-.66-2.85-1.99s-.9-3.41-.9-6.24.3-4.69.9-5.96,1.55-1.91,2.85-1.91c1.18,0,2.14.67,2.86,2.02v-1.76h2.88Zm-6.51,7.73c0,2.05.13,3.48.41,4.29.28.81.77,1.22,1.48,1.22.64,0,1.11-.42,1.4-1.27.29-.9.44-2.29.44-4.17s-.15-3.29-.44-4.19c-.29-.84-.76-1.27-1.4-1.27-.68,0-1.17.4-1.46,1.21-.28.74-.42,2.14-.42,4.17Z"></path><path class="cls-1" d="m180.13,247.29h2.88v1.95c.49-.82.98-1.4,1.46-1.73.48-.33,1.12-.52,1.91-.57v3.01c-.2-.03-.37-.05-.51-.05-1.03,0-1.77.27-2.21.8-.43.52-.65,1.44-.65,2.74v9.45h-2.88v-15.59Z"></path><path class="cls-1" d="m188.06,237.29h2.88v16.95l3.66-6.94h3.25l-3.98,6.94,4.5,8.65h-3.37l-4.07-8.29v8.29h-2.88v-25.6Z"></path><path class="cls-1" d="m205.31,257.63h2.68c-.21,3.67-1.72,5.5-4.52,5.5-.83,0-1.55-.16-2.15-.47-.6-.31-1.09-.79-1.48-1.45-.39-.65-.68-1.48-.87-2.49-.19-1.01-.28-2.2-.28-3.58,0-2.75.38-4.79,1.15-6.12.77-1.33,1.96-1.99,3.56-1.99,3.12,0,4.68,2.75,4.68,8.26v.36h-6.58c0,3.33.66,5,1.99,5,1.21,0,1.81-1.01,1.81-3.03Zm-.15-4.05c-.12-1.64-.31-2.71-.56-3.23-.26-.57-.68-.86-1.27-.86s-1.01.28-1.27.86c-.25.51-.44,1.59-.56,3.23h3.65Z"></path><path class="cls-1" d="m210.64,242.92h2.88v4.37h1.57v2.29h-1.57v13.3h-2.88v-13.3h-1.58v-2.29h1.58v-4.37Z"></path><path class="cls-1" d="m222.8,247.61v2.7c-.7-.52-1.44-.78-2.22-.78-.26,0-.5.05-.72.13-.22.09-.41.21-.58.37-.17.15-.3.34-.39.56s-.14.44-.14.68c0,.74.67,1.63,2.02,2.65.54.42,1,.81,1.36,1.18s.64.7.83,1.02c.39.63.59,1.43.59,2.4,0,1.4-.41,2.51-1.22,3.36-.8.83-1.88,1.25-3.24,1.25-.83,0-1.68-.25-2.53-.74v-2.79c.83.62,1.62.93,2.37.93,1.32,0,1.97-.65,1.97-1.94,0-.48-.12-.9-.36-1.25-.11-.17-.29-.37-.53-.6s-.54-.48-.89-.76c-1.22-.94-2.04-1.74-2.47-2.38-.42-.66-.63-1.46-.63-2.4,0-1.26.39-2.29,1.16-3.09.78-.79,1.8-1.19,3.06-1.19.88,0,1.74.23,2.58.68Z"></path><path class="cls-1" d="m232.76,239.62h2.68l2.05,9.49c.25,1.18.48,2.37.69,3.56.2,1.19.39,2.44.56,3.74.02-.17.04-.3.05-.4,0-.09.02-.16.03-.2l.44-2.67.39-2.53.35-1.67,1.82-9.33h2.71l2.14,23.26h-3l-.53-7.89c-.02-.4-.04-.75-.05-1.04-.02-.29-.02-.53-.02-.72l-.13-3.12-.08-2.86s0-.06,0-.13c0-.07-.01-.15-.02-.26l-.07.47c-.08.55-.15,1.03-.22,1.45s-.12.76-.17,1.04l-.39,2.12-.15.8-1.96,10.15h-2.11l-1.84-8.77c-.25-1.15-.47-2.33-.67-3.52-.2-1.19-.37-2.44-.54-3.74l-.9,16.03h-2.95l1.91-23.26Z"></path><path class="cls-1" d="m257.62,247.29v15.59h-2.88v-2c-.41.85-.82,1.44-1.24,1.76s-.95.48-1.63.48c-1.3,0-2.25-.66-2.85-1.99s-.9-3.41-.9-6.24.3-4.69.9-5.96c.6-1.27,1.55-1.91,2.85-1.91,1.18,0,2.14.67,2.86,2.02v-1.76h2.88Zm-6.51,7.73c0,2.05.13,3.48.41,4.29.28.81.77,1.22,1.48,1.22.64,0,1.11-.42,1.4-1.27.29-.9.44-2.29.44-4.17s-.15-3.29-.44-4.19c-.29-.84-.76-1.27-1.4-1.27-.68,0-1.17.4-1.46,1.21-.28.74-.42,2.14-.42,4.17Z"></path><path class="cls-1" d="m260.52,247.29h2.88v1.95c.49-.82.98-1.4,1.46-1.73.48-.33,1.12-.52,1.91-.57v3.01c-.2-.03-.37-.05-.51-.05-1.03,0-1.77.27-2.21.8-.43.52-.65,1.44-.65,2.74v9.45h-2.88v-15.59Z"></path><path class="cls-1" d="m268.45,237.29h2.88v16.95l3.66-6.94h3.25l-3.98,6.94,4.5,8.65h-3.37l-4.07-8.29v8.29h-2.88v-25.6Z"></path><path class="cls-1" d="m285.71,257.63h2.68c-.21,3.67-1.72,5.5-4.52,5.5-.83,0-1.55-.16-2.15-.47-.6-.31-1.09-.79-1.48-1.45-.39-.65-.68-1.48-.87-2.49-.19-1.01-.28-2.2-.28-3.58,0-2.75.38-4.79,1.15-6.12.77-1.33,1.96-1.99,3.56-1.99,3.12,0,4.68,2.75,4.68,8.26v.36h-6.58c0,3.33.66,5,1.99,5,1.21,0,1.81-1.01,1.81-3.03Zm-.15-4.05c-.12-1.64-.31-2.71-.56-3.23-.26-.57-.68-.86-1.27-.86s-1.01.28-1.27.86c-.25.51-.44,1.59-.56,3.23h3.65Z"></path><path class="cls-1" d="m291.03,242.92h2.88v4.37h1.57v2.29h-1.57v13.3h-2.88v-13.3h-1.58v-2.29h1.58v-4.37Z"></path><path class="cls-1" d="m297.17,269.27v-21.98h2.88v2.02c.4-.85.81-1.45,1.23-1.78.42-.33.98-.5,1.66-.5,1.28,0,2.23.67,2.82,2s.9,3.41.9,6.25-.31,4.77-.92,5.98c-.6,1.25-1.57,1.87-2.91,1.87-.64,0-1.17-.14-1.58-.44-.2-.14-.4-.34-.6-.6-.2-.26-.4-.58-.6-.95v8.14h-2.88Zm6.51-14.1c0-2.12-.14-3.56-.42-4.31-.27-.81-.76-1.22-1.46-1.22-.66,0-1.14.42-1.42,1.27-.28.78-.42,2.18-.42,4.19s.14,3.4.42,4.19c.29.83.76,1.25,1.42,1.25s1.17-.4,1.46-1.21c.28-.74.42-2.13.42-4.16Z"></path><path class="cls-1" d="m308.97,237.29h2.88v25.6h-2.88v-25.6Z"></path><path class="cls-1" d="m323.65,247.29v15.59h-2.88v-2c-.41.85-.82,1.44-1.24,1.76s-.95.48-1.63.48c-1.3,0-2.25-.66-2.85-1.99s-.9-3.41-.9-6.24.3-4.69.9-5.96,1.55-1.91,2.85-1.91c1.18,0,2.14.67,2.86,2.02v-1.76h2.88Zm-6.51,7.73c0,2.05.13,3.48.41,4.29.28.81.77,1.22,1.48,1.22.64,0,1.11-.42,1.4-1.27.29-.9.44-2.29.44-4.17s-.15-3.29-.44-4.19c-.29-.84-.76-1.27-1.4-1.27-.68,0-1.17.4-1.46,1.21-.28.74-.42,2.14-.42,4.17Z"></path><path class="cls-1" d="m332.92,247.59v2.94c-.4-.49-.88-.74-1.45-.74-1.59,0-2.38,1.72-2.38,5.15,0,3.65.79,5.47,2.37,5.47.44,0,.93-.2,1.46-.59v2.7c-.76.4-1.54.6-2.32.6-3.09,0-4.64-2.63-4.64-7.89,0-2.8.38-4.87,1.14-6.2.76-1.33,1.95-2,3.56-2,.77,0,1.53.19,2.26.56Z"></path><path class="cls-1" d="m341.02,257.63h2.68c-.21,3.67-1.72,5.5-4.52,5.5-.83,0-1.55-.16-2.15-.47-.6-.31-1.09-.79-1.48-1.45-.39-.65-.68-1.48-.87-2.49-.19-1.01-.28-2.2-.28-3.58,0-2.75.38-4.79,1.15-6.12.77-1.33,1.96-1.99,3.56-1.99,3.12,0,4.68,2.75,4.68,8.26v.36h-6.58c0,3.33.66,5,1.99,5,1.21,0,1.81-1.01,1.81-3.03Zm-.15-4.05c-.12-1.64-.31-2.71-.56-3.23-.26-.57-.68-.86-1.27-.86s-1.01.28-1.27.86c-.25.51-.44,1.59-.56,3.23h3.65Z"></path><path class="cls-1" d="m350.92,247.29h1.45v-5.44c0-1.78.26-3.03.78-3.77.52-.73,1.43-1.1,2.73-1.1.56,0,1.21.13,1.96.41v3.04c-.46-.25-.87-.38-1.22-.38-.49,0-.84.15-1.05.44-.21.29-.31.79-.31,1.48l-.02,1.17v4.14h2.44v2.29h-2.44v13.3h-2.88v-13.3h-1.45v-2.29Z"></path><path class="cls-1" d="m368.44,255.22c0,5.27-1.63,7.91-4.9,7.91s-4.9-2.68-4.9-8.03,1.63-8.06,4.88-8.06c.84,0,1.58.16,2.19.48.62.32,1.13.82,1.53,1.49s.7,1.52.9,2.55c.2,1.02.29,2.24.29,3.66Zm-2.98-.07c0-2.05-.13-3.48-.41-4.28-.27-.81-.75-1.22-1.45-1.22s-1.17.4-1.46,1.21c-.27.81-.41,2.21-.41,4.2s.14,3.39.41,4.19c.29.8.78,1.21,1.46,1.21s1.16-.4,1.43-1.19c.28-.74.42-2.11.42-4.11Z"></path><path class="cls-1" d="m370.75,247.29h2.88v1.95c.49-.82.98-1.4,1.46-1.73.48-.33,1.12-.52,1.91-.57v3.01c-.2-.03-.37-.05-.51-.05-1.03,0-1.77.27-2.21.8-.43.52-.65,1.44-.65,2.74v9.45h-2.88v-15.59Z"></path><path class="cls-1" d="m384.81,239.62h3.13v23.26h-3.13v-23.26Z"></path><path class="cls-1" d="m390.99,247.29h2.88v1.79c.82-1.37,1.89-2.05,3.19-2.05s2.17.5,2.71,1.49c.3.56.45,1.65.45,3.27v11.09h-2.88l-.02-10.43c0-1.05-.13-1.8-.38-2.24-.25-.44-.68-.66-1.3-.66-.33,0-.61.06-.84.17-.23.12-.41.3-.55.56s-.24.59-.31,1c-.07.41-.1.92-.1,1.52v10.08h-2.88v-15.59Z"></path><path class="cls-1" d="m412.01,237.29v25.6h-2.88v-2c-.41.85-.82,1.44-1.24,1.76-.41.32-.96.48-1.64.48-1.28,0-2.23-.66-2.83-1.98s-.9-3.4-.9-6.23c0-1.37.08-2.55.23-3.54.15-1,.38-1.81.69-2.46.31-.64.7-1.12,1.18-1.42s1.05-.46,1.72-.46,1.15.15,1.56.45c.2.14.41.34.62.6.21.26.42.58.62.96v-11.77h2.88Zm-6.51,17.73c0,2.05.13,3.48.4,4.29.28.81.77,1.22,1.48,1.22.64,0,1.11-.42,1.4-1.27.29-.9.44-2.29.44-4.17s-.14-3.29-.44-4.19c-.29-.84-.76-1.27-1.4-1.27-.68,0-1.17.4-1.46,1.21-.28.74-.42,2.14-.42,4.17Z"></path><path class="cls-1" d="m414.91,247.29h2.88v10.43c.02.96.16,1.65.43,2.06.27.41.71.62,1.33.62.65,0,1.11-.18,1.37-.54.26-.38.39-1.05.39-1.99v-10.58h2.88v9.33c0,2.18-.16,3.63-.48,4.37-.67,1.43-2.07,2.14-4.19,2.14-1.67,0-2.85-.42-3.56-1.27-.7-.85-1.05-2.28-1.05-4.26v-10.3Z"></path><path class="cls-1" d="m433.1,247.61v2.7c-.7-.52-1.44-.78-2.22-.78-.26,0-.5.05-.72.13-.22.09-.41.21-.58.37-.17.15-.3.34-.39.56s-.14.44-.14.68c0,.74.67,1.63,2.02,2.65.54.42,1,.81,1.36,1.18s.64.7.83,1.02c.39.63.59,1.43.59,2.4,0,1.4-.41,2.51-1.22,3.36-.8.83-1.88,1.25-3.24,1.25-.83,0-1.68-.25-2.53-.74v-2.79c.83.62,1.62.93,2.36.93,1.32,0,1.97-.65,1.97-1.94,0-.48-.12-.9-.36-1.25-.11-.17-.29-.37-.53-.6s-.54-.48-.89-.76c-1.21-.94-2.04-1.74-2.47-2.38-.42-.66-.63-1.46-.63-2.4,0-1.26.39-2.29,1.16-3.09.78-.79,1.8-1.19,3.06-1.19.88,0,1.74.23,2.58.68Z"></path><path class="cls-1" d="m436.27,242.92h2.88v4.37h1.57v2.29h-1.57v13.3h-2.88v-13.3h-1.58v-2.29h1.58v-4.37Z"></path><path class="cls-1" d="m442.41,247.29h2.88v1.95c.49-.82.98-1.4,1.46-1.73.48-.33,1.12-.52,1.91-.57v3.01c-.2-.03-.37-.05-.51-.05-1.03,0-1.77.27-2.21.8-.43.52-.65,1.44-.65,2.74v9.45h-2.88v-15.59Z"></path><path class="cls-1" d="m449.57,247.29h3.25l2.29,10.88,2.68-10.88h2.92l-6.37,21.98h-3.03l2.4-7.64-4.14-14.34Z"></path><path class="cls-1" d="m468.27,239.62h4.13c1.99,0,3.43.5,4.34,1.51.9,1.01,1.36,2.62,1.36,4.82,0,3.09-.91,5.09-2.73,5.99-.92.41-2.24.62-3.96.62v10.32h-3.13v-23.26Zm3.13,10.26c1.29,0,2.19-.26,2.68-.78.5-.53.75-1.48.75-2.83s-.24-2.4-.72-3.04c-.48-.64-1.24-.96-2.28-.96h-.44v7.62Z"></path><path class="cls-1" d="m479.96,247.29h2.88v1.95c.49-.82.98-1.4,1.46-1.73.48-.33,1.12-.52,1.91-.57v3.01c-.2-.03-.37-.05-.51-.05-1.03,0-1.77.27-2.21.8-.43.52-.65,1.44-.65,2.74v9.45h-2.88v-15.59Z"></path><path class="cls-1" d="m497.13,255.22c0,5.27-1.63,7.91-4.9,7.91s-4.9-2.68-4.9-8.03,1.63-8.06,4.88-8.06c.84,0,1.57.16,2.19.48.62.32,1.13.82,1.53,1.49s.7,1.52.9,2.55.29,2.24.29,3.66Zm-2.98-.07c0-2.05-.13-3.48-.4-4.28-.27-.81-.75-1.22-1.45-1.22s-1.17.4-1.46,1.21c-.27.81-.41,2.21-.41,4.2s.14,3.39.41,4.19c.29.8.78,1.21,1.46,1.21s1.16-.4,1.43-1.19c.28-.74.42-2.11.42-4.11Z"></path><path class="cls-1" d="m498.34,247.29h1.45v-5.44c0-1.78.26-3.03.78-3.77.52-.73,1.43-1.1,2.73-1.1.56,0,1.21.13,1.96.41v3.04c-.46-.25-.87-.38-1.22-.38-.49,0-.84.15-1.05.44-.21.29-.31.79-.31,1.48l-.02,1.17v4.14h2.44v2.29h-2.44v13.3h-2.88v-13.3h-1.45v-2.29Z"></path><path class="cls-1" d="m512.69,257.63h2.68c-.21,3.67-1.72,5.5-4.52,5.5-.83,0-1.55-.16-2.15-.47s-1.09-.79-1.48-1.45c-.39-.65-.68-1.48-.87-2.49s-.28-2.2-.28-3.58c0-2.75.39-4.79,1.15-6.12.77-1.33,1.96-1.99,3.57-1.99,3.12,0,4.68,2.75,4.68,8.26v.36h-6.58c0,3.33.66,5,1.99,5,1.21,0,1.81-1.01,1.81-3.03Zm-.15-4.05c-.12-1.64-.31-2.71-.56-3.23-.26-.57-.68-.86-1.27-.86s-1.01.28-1.27.86c-.25.51-.44,1.59-.56,3.23h3.64Z"></path><path class="cls-1" d="m523.69,247.61v2.7c-.7-.52-1.44-.78-2.22-.78-.26,0-.5.05-.72.13-.22.09-.41.21-.58.37-.17.15-.3.34-.39.56s-.14.44-.14.68c0,.74.67,1.63,2.02,2.65.54.42,1,.81,1.36,1.18s.64.7.83,1.02c.39.63.59,1.43.59,2.4,0,1.4-.41,2.51-1.22,3.36-.8.83-1.88,1.25-3.24,1.25-.83,0-1.68-.25-2.53-.74v-2.79c.83.62,1.62.93,2.36.93,1.32,0,1.97-.65,1.97-1.94,0-.48-.12-.9-.36-1.25-.11-.17-.29-.37-.53-.6s-.54-.48-.89-.76c-1.21-.94-2.04-1.74-2.47-2.38-.42-.66-.63-1.46-.63-2.4,0-1.26.39-2.29,1.16-3.09.78-.79,1.8-1.19,3.06-1.19.88,0,1.74.23,2.58.68Z"></path><path class="cls-1" d="m532.39,247.61v2.7c-.7-.52-1.44-.78-2.22-.78-.26,0-.5.05-.72.13-.22.09-.41.21-.58.37-.17.15-.3.34-.39.56s-.14.44-.14.68c0,.74.67,1.63,2.02,2.65.54.42,1,.81,1.36,1.18s.64.7.83,1.02c.39.63.59,1.43.59,2.4,0,1.4-.41,2.51-1.22,3.36-.8.83-1.88,1.25-3.24,1.25-.83,0-1.68-.25-2.53-.74v-2.79c.83.62,1.62.93,2.36.93,1.32,0,1.97-.65,1.97-1.94,0-.48-.12-.9-.36-1.25-.11-.17-.29-.37-.53-.6s-.54-.48-.89-.76c-1.21-.94-2.04-1.74-2.47-2.38-.42-.66-.63-1.46-.63-2.4,0-1.26.39-2.29,1.16-3.09.78-.79,1.8-1.19,3.06-1.19.88,0,1.74.23,2.58.68Z"></path><path class="cls-1" d="m536.42,240.66c.52,0,.97.19,1.35.57.38.38.57.84.57,1.37s-.19,1-.57,1.38c-.38.38-.84.57-1.39.57s-1.01-.19-1.39-.57c-.37-.37-.56-.84-.56-1.4,0-.52.19-.97.57-1.35.41-.38.88-.57,1.4-.57Zm-1.36,6.63h2.89v15.59h-2.89v-15.59Z"></path><path class="cls-1" d="m550.03,255.22c0,5.27-1.63,7.91-4.9,7.91s-4.9-2.68-4.9-8.03,1.63-8.06,4.88-8.06c.84,0,1.57.16,2.19.48.62.32,1.13.82,1.53,1.49s.7,1.52.9,2.55.29,2.24.29,3.66Zm-2.98-.07c0-2.05-.13-3.48-.4-4.28-.27-.81-.75-1.22-1.45-1.22s-1.17.4-1.46,1.21c-.27.81-.41,2.21-.41,4.2s.14,3.39.41,4.19c.29.8.78,1.21,1.46,1.21s1.16-.4,1.43-1.19c.28-.74.42-2.11.42-4.11Z"></path><path class="cls-1" d="m552.34,247.29h2.88v1.79c.82-1.37,1.89-2.05,3.19-2.05s2.17.5,2.71,1.49c.3.56.45,1.65.45,3.27v11.09h-2.88v-10.43c-.01-1.05-.14-1.8-.39-2.24-.25-.44-.68-.66-1.3-.66-.33,0-.61.06-.83.17-.23.12-.41.3-.55.56-.14.26-.25.59-.31,1-.07.41-.1.92-.1,1.52v10.08h-2.88v-15.59Z"></path><path class="cls-1" d="m573.37,247.29v15.59h-2.88v-2c-.41.85-.82,1.44-1.24,1.76-.41.32-.95.48-1.62.48-1.3,0-2.25-.66-2.85-1.99s-.9-3.41-.9-6.24.3-4.69.9-5.96,1.55-1.91,2.85-1.91c1.18,0,2.14.67,2.86,2.02v-1.76h2.88Zm-6.51,7.73c0,2.05.13,3.48.41,4.29.28.81.77,1.22,1.48,1.22.64,0,1.11-.42,1.4-1.27.29-.9.44-2.29.44-4.17s-.14-3.29-.44-4.19c-.29-.84-.76-1.27-1.4-1.27-.68,0-1.17.4-1.46,1.21-.28.74-.42,2.14-.42,4.17Z"></path><path class="cls-1" d="m576.26,237.29h2.88v25.6h-2.88v-25.6Z"></path><path class="cls-1" d="m588.07,247.61v2.7c-.7-.52-1.44-.78-2.22-.78-.26,0-.5.05-.72.13-.22.09-.41.21-.58.37-.17.15-.3.34-.39.56s-.14.44-.14.68c0,.74.67,1.63,2.02,2.65.54.42,1,.81,1.36,1.18s.64.7.83,1.02c.39.63.59,1.43.59,2.4,0,1.4-.41,2.51-1.22,3.36-.8.83-1.88,1.25-3.24,1.25-.83,0-1.68-.25-2.53-.74v-2.79c.83.62,1.62.93,2.36.93,1.32,0,1.97-.65,1.97-1.94,0-.48-.12-.9-.36-1.25-.11-.17-.29-.37-.53-.6s-.54-.48-.89-.76c-1.21-.94-2.04-1.74-2.47-2.38-.42-.66-.63-1.46-.63-2.4,0-1.26.39-2.29,1.16-3.09.78-.79,1.8-1.19,3.06-1.19.88,0,1.74.23,2.58.68Z"></path></g><g><path class="cls-1" d="m581.99,211.29c.86.73,1.88,1.1,3.06,1.11,1.4-.02,2.11-.54,2.13-1.55.01-.83-.46-1.33-1.4-1.49-.43-.06-.91-.13-1.42-.21-.93-.16-1.63-.51-2.11-1.06-.5-.57-.74-1.25-.74-2.06,0-.97.31-1.76.94-2.35.61-.59,1.46-.89,2.57-.9,1.34.03,2.5.41,3.49,1.15l-.91,1.38c-.81-.55-1.7-.83-2.67-.86-.5,0-.92.13-1.26.39-.35.27-.53.67-.54,1.21,0,.32.12.61.36.87.24.26.63.45,1.16.55.29.05.7.11,1.21.18,1.01.14,1.75.52,2.24,1.12.48.6.72,1.29.72,2.08-.05,2.13-1.31,3.2-3.77,3.23-1.59,0-2.96-.51-4.11-1.52l1.07-1.27Z"></path><path class="cls-1" d="m590.81,202.87h1.54l3.09,7.24,3.03-7.24h1.54v11.11h-1.63v-6.93h-.04l-2.25,5.34h-1.36l-2.25-5.34h-.03v6.93h-1.63v-11.11Z"></path></g><path class="cls-1" d="m75.31,266.33c.01-1.02.35-1.86,1.03-2.55.65-.68,1.46-1.03,2.45-1.04.99.01,1.81.36,2.47,1.04.66.68.99,1.53,1.01,2.54-.01,1.02-.35,1.86-1.01,2.52-.66.69-1.48,1.05-2.47,1.06-.98-.01-1.8-.37-2.45-1.06-.67-.67-1.01-1.51-1.03-2.52Zm.74,0c0,.85.27,1.53.78,2.05.5.54,1.15.82,1.94.82.8,0,1.45-.28,1.96-.82.51-.52.76-1.21.77-2.05,0-.86-.26-1.55-.77-2.07-.51-.53-1.16-.8-1.96-.8-.8,0-1.44.28-1.94.81-.52.52-.78,1.21-.78,2.07Zm1.42-2.19h1.53c.93,0,1.39.41,1.39,1.25,0,.41-.1.71-.3.89-.2.18-.45.29-.74.32l1.16,1.72h-.8l-1.16-1.7h-.39v1.7h-.69v-4.19Zm.69,1.84h.48c.29,0,.54-.02.75-.09.21-.07.31-.24.32-.5,0-.24-.1-.41-.28-.49-.18-.07-.39-.11-.63-.11h-.63v1.19Z"></path></svg> 