<?xml version="1.0" encoding="UTF-8"?> <svg xmlns="http://www.w3.org/2000/svg" id="Layer_1" width="600" height="400" viewBox="0 0 600 400"><defs><style>.cls-1{fill:#3c3382;}</style></defs><g id="US_Wellness_Meats"><g><g><path class="cls-1" d="m293.45,328.6c-48.16,0-90.2-26.56-112.26-65.8l-5.53,1.06c22.72,41.75,67,70.14,117.79,70.14,69.09,0,126.19-52.53,133.26-119.75-1.81.96-3.7,1.81-5.67,2.53-8.28,63.05-62.31,111.82-127.59,111.82Z"></path><path class="cls-1" d="m164.75,199.9c0-71,57.7-128.7,128.7-128.7,53.92,0,100.22,33.34,119.34,80.44,1.49-.89,3.05-1.68,4.68-2.38-20.04-48.81-68.07-83.26-124.02-83.26-73.9,0-134,60.1-134,134,0,10.59,1.24,20.89,3.57,30.78l2.83-14.04c-.72-5.52-1.1-11.13-1.1-16.84Z"></path><path class="cls-1" d="m229.75,186.1c-.21-.06-.41-.13-.61-.2.94-3.98,2.24-7.82,3.87-11.49,3.39-2.02,6.64-4.27,10.04-5.52,7.2,3.7,12.1,10.4,14.9,17.3.39,1.13.7,2.28.95,3.45,1.24-1.41,2.61-2.78,4.11-4.07,5.54-4.76,12.31-8.18,18.59-9.43-.57-1.67-1.16-3.34-1.96-4.86-4-8.4-8.2-15.5-14-22.8,0,0-.13-.19-.19-.57s-.11-.93-.11-.93c0,0-.33-3.59-.44-5.39,7.79-3.72,16.42-5.95,25.51-6.34,3.21,6.03,6.21,12.41,5.03,19.53l-4.4-5.3-6.3-9.4c-1.4,8.1,1.3,17.8,6.7,23.8.8,1,2.1,1.6,2.2,2.9-1.3,2.98-2.66,5.67-4.08,8.47,5.37.02,9.44,1.68,12.11,4.93.67.82,1.19,1.68,1.62,2.57,2.14-2.94,4.75-5.72,7.76-8.21.72-.59,1.45-1.13,2.18-1.62-.44-3.7-.15-7.31,2.82-9.84,3.74-5.84,9.16-10.96,11.95-17.94,7.59,4.74,14.14,10.97,19.26,18.29l6.35-2.2,1.6-.55c1.56-6.08,5.54-11.31,8.03-17.1,1.9-5.2,2.8-10.3,3.2-15.3,0-.2-.2-.3-.4-.3-.6.2-.9.5-1.2.7-2.2,4.6-4.3,9.4-6.6,14-2.67,5.52-4.93,11.12-7.58,16.37-5.69-7.75-12.9-14.3-21.19-19.22.06-.38.13-.75.18-1.14-.3-2,1-4,.9-5.7-.4,0-1-.2-1.2.2-.1.6-.4,1.2-.8,2.1-.69.96-1.27,1.96-1.88,2.96-9.98-5.33-21.35-8.36-33.42-8.36-.57,0-1.14.03-1.71.04-.95-.98-1.95-1.91-2.99-2.74-.7-1-1.2-2.1-2-3.2,0-.2-.5-.6-.6-.1,0,1.3.3,2.3.5,3.7.39.84.81,1.69,1.24,2.54-8.07.63-15.77,2.6-22.86,5.7.01-.28,0-.55.02-.84.3-10.9,4-21.9,5.1-32.5l-.2-.1-.3.1c-1.4,2.3-2.7,4.8-3.6,7.7-2.62,9.41-5.61,19.58-7.61,28.94-.22.13-.44.25-.67.38-3.73-3.74-7.3-6.43-11.32-8.93-3.6-1.9-7.8-5.9-12.7-5.1,5,4.5,11.2,9.7,16,15.6.85.69,1.59,1.41,2.27,2.15-7.49,5.38-13.89,12.17-18.82,19.98-8.96.36-14.62,8.84-22.76,11.27-.2,0-.4.3-.3.5.3.3.3.5.8.8,1.6,1.1,3.1,1.4,5,2,3.78,1.21,7.14.95,10.25-.04-.68,1.96-1.29,3.96-1.8,5.99-1.72-.88-3.44-1.75-5.65-2.36-4.2-1.5-8.8-1.5-12.9-2.6-1.6-.3-3.3-1.5-4.4-1,.5.5,1.1.8,2,1.3,5.54,3.64,13.4,5.64,20.09,8.55-.23,1.18-.42,2.37-.59,3.56,2.7-1.86,5.75-3.38,8.85-4.46-.6-.19-1.21-.41-1.84-.62Zm93.6-43.58c-4.06,4.59-9,9.65-13.8,13.38l-2.5-8.3c-.3,0-.4.1-.5.2-1.8,4.6-.9,9.6-.7,14.3-.3.6-.6,1-1,1.3-8.7-5.4-1.5-15.4-6-23.2-.83-1.59-1.84-3.27-2.98-4.93,9.86.39,19.18,2.96,27.48,7.25Zm-68.47,5.05c3.35,6.42,3.03,14.21,2.37,22.33-.5.8.2,1.8-.3,2.5-.4-.1-.6-.5-.8-.9-4.57-4.66-9.91-7.84-17.09-7.85,4.31-6.22,9.67-11.67,15.82-16.08Z"></path><path class="cls-1" d="m350.54,233.65c-1.19-1.37-2.46-2.51-3.77-3.52-2.04,1.24-4.29,2.13-6.78,2.61-1.38.26-2.6.38-3.74.38-2.65,0-4.98-.74-6.84-2.12-4.39,3.5-9.56,5.89-14.12,6.81h-.04s-.04.02-.04.02c-1.35.26-2.72.39-4.08.39-5.61,0-10.71-2.14-14.17-5.9-6.76,7.34-17.98,13.19-24.65,14.51-1.62.31-3.31.47-5.04.47-2.8,0-5.45-.4-7.87-1.15.54,4.04.68,7.77.88,11.98-4.12-2.39-7.95-5.21-11.44-8.4l-2.49.49-3.82.76c5.31,5.39,13.32,10.31,18.26,13.45,5.19,3.31,21.33,8.08,31.13,7.83.44.01.87.03,1.31.03,5.01,0,9.89-.53,14.61-1.52,2.93,5.15,5.72,10.38,5.79,16.92.3.7.4,1.6,1.2,1.5.49-6.92,2.06-14.14.93-20.59.55-.18,1.09-.36,1.63-.56,3.38-.97,9.68-3.8,12.33-5.46,2.76-1.73,9.52-6.97,13.54-10.96l4.76,1.26v-1c-1.07-.53-2.12-1.19-3.15-1.92,3.22-3.4,6.11-7.11,8.61-11.09,1.53.22,3.05.51,4.53,1.01l.5-.9c-1.25-.77-2.44-1.59-3.64-2.41,1.8-3.11,3.37-6.37,4.69-9.74-1.74-.64-3.28-1.54-4.61-2.68-1.2,3.31-2.69,6.48-4.41,9.5Zm-55.08,33.29l1.99-16.94,5.2,10.7c0,.1.2.4.4.8.61,1.51,1.32,2.97,2.09,4.41-3.16.58-6.39.93-9.68,1.03Zm35.47-11.79c.06-2.05.14-4,1.22-6.45l5.19,1.37c-2.02,1.83-4.17,3.52-6.41,5.08Zm9.87-8.45c-2.45-2.13-4.79-4.35-7.05-6l1.8-6.8c3.4.8,6.2,3.5,10.4,3.9.6.13,1.21.24,1.81.34-2.07,3.05-4.41,5.91-6.96,8.56Z"></path></g><g><path class="cls-1" d="m245.05,244l-18.6,3.7s5.9-28.9,6.9-33.8c1.4-7-.7-14.1-7.1-9.1-3.5,2.7-4.6,7.2-5.4,11.1l-7,34.1-18.3,3.5,6.8-33.4c1.6-7.7-.5-14.8-7.1-9.7-2.7,2.1-3.9,4.2-4.7,8l-7.7,37.6-18.3,3.5,10.8-53.6,18.2-3.5-.6,3.3c8.1-7.3,27.3-12.7,27.9-1.5,3.1-7.7,18.6-14.2,25.9-10.8,4.4,2.1,7.3,6.6,6.2,12.2-1.1,4.9-7.9,38.4-7.9,38.4Z"></path><path class="cls-1" d="m272.85,222.7c-.2,1-.4,1.8-.6,2.6-1.6,8,4.8,6,7,5.4,5.2-1.6,13.7-7.8,13.7-7.8l1.8,1.4c-3.8,7.2-16.6,14.9-23.7,16.3-7.8,1.5-19.3-1.8-17.2-12.3,1-5,2.5-12,4.6-22.7,2-10.2,14.2-20,24.8-22,16.6-3.2,15.4,5.1,13.4,15.1-2,9.5-12,21.7-23.8,24Zm12.8-32.1c-2.5.5-7.1,3.2-8.3,9.3-1.5,6.9-2.2,10.9-3.2,15.9,6.3-1.2,12.9-5,14.5-13.2,0,0,0-.2.6-3,.6-3.2,1.2-9.9-3.6-9Z"></path><path class="cls-1" d="m348.15,207.4c-1.1,5.4,2.5,3.6,2.9,1.8l1-.1c-1.7,8-5,15.8-13.3,17.4-6.4,1.2-6.8-1.7-7.2-8.5-2.8,7-11.2,12.3-17.6,13.6-7.8,1.5-15.8-3.5-14-12.3,1-5,2.3-11.5,4.5-22.2,1.2-5.5,5.3-11.7,11.1-16.5,8.5-7,18.7-4.9,21.2-3.2l.4-2.4,18.8-6.5-7.8,38.9Zm-18.5-24.6c-2.5.5-4.9,3-6,8.3-2.2,10.7-4.6,22.9-5.6,27.9-.8,4,1.5,4.3,3.6,3.9,3.1-.6,6.9-4.8,7.8-8.9l4.6-22.6c1.2-6.5-1.1-9.3-4.4-8.6Z"></path><path class="cls-1" d="m389.35,174.3s-1.5-.8-2.8-.6l-6.6,1.3-5.5,26.9c-1,5.1-1.5,8.7,5.4,7.4,2.8-.5,5.3-3.3,7.8-6.1l-2.2,11.2c-3.2,3.1-7.2,5.7-11.2,6.5-14.1,2.7-20.6-.9-16.8-19.8l8.9-43.7,17.9-3.4-2.5,12.3,6.5-1.2c1.5-.3,3.5-2.1,3.5-2.1l-2.4,11.3Z"></path><path class="cls-1" d="m440.05,160.7c-1.7-.9-3.4-1.5-5.9-1-5.9,1.2-9.1,5.3-8.4,9.7.8,5,16.2,6.6,13,21.3-2.3,10.4-13.6,19.4-26,21.8-9.3,1.8-18.4-1.6-19.7-8l1.2-5.7c1.4,3.8,6,7,14.4,5.4,3.1-.6,6.1-3.9,6.1-7.6,0-9.6-14.3-5.7-11-22,1.7-8.6,10.3-17.9,23.4-20.4,5.4-1,11.6,1.4,13.4,3.5l-.5,3Z"></path></g><g><path class="cls-1" d="m176.25,176.5c-1.3-.4-1.9,0-2.4,1.9l-1.5-.4,2.6-9.5,1.5.4c-.5,1.9-.2,2.5,1.1,2.9l34.2,9.5c1.7.5,4.2.3,4.8-1.8s-.8-3.3-3.2-4l-34.2-9.5c-1.3-.4-1.9,0-2.4,1.9l-1.5-.4,2.2-7.9,1.5.4c-.5,1.9-.2,2.5,1.1,2.9l35.6,9.9c2.7.7,3.8,3.6,2.6,8-1.2,4.3-3.5,6.5-6.4,5.7l-35.6-10Z"></path><path class="cls-1" d="m195.65,145c-4.8-2.5-8-2-9.2.2-.8,1.5.5,2.7,2,3.5s7.4,3,16.3,3.2c4.8.1,13,.4,17.7,2.9,4.3,2.3,4.1,7,2.8,9.5-1.2,2.2-2.3,3.3-3,3.9-.6.5-.9.8-1,1.1-.3.5,0,1.2.5,1.7l-.8,1.5-14.3-7.6,1.5-2.9,5.5,2.9c4,2.1,8.4,1.2,9.7-1.1.8-1.4,0-2.8-1.8-3.8-3.8-2-12.3-2.9-17.4-3-6.1-.1-13.1-1.5-16.7-3.4-4-2.1-4.2-6.1-2.6-9.1.8-1.4,1.7-2.5,2.2-2.8.4-.3.8-.6,1-1.1s0-1.1-.3-1.6l.8-1.5,13.6,7.2-1.5,2.9-5-2.6Z"></path><path class="cls-1" d="m217.45,104.8l1,1.2c-1.2,1-1.8,2.2-.8,3l18.3,16.7.2-.1-13.5-20.7c-.7-1.1-2.1-.6-3.4.5l-1-1.2,6.6-5.7,1,1.2c-1.2,1-1.6,2-.8,3l23.4,34.8-2.7,2.3-20.1-18-.2.1,15.6,21.9-2.7,2.3-31.6-27.7c-1-.9-1.9-.7-3.1.3l-1-1.2,6.9-5.9,1,1.2c-1.2,1.1-1.5,1.9-.5,2.8l18.6,16.3.2-.1-14.3-20.1c-.7-1-1.9-.8-3.3.4l-1-1.2,7.2-6.1Z"></path><path class="cls-1" d="m252.95,134.5l-.7-1.4c1.8-.8,2-1.5,1.5-2.7l-16.3-34.7c-.6-1.2-1.2-1.4-3-.6l-.7-1.4,15-7.1,6.5,13.7-3,1.4-3.3-6.9c-.6-1.3-1.5-2.9-2.6-3.6s-2.9-.4-3.9.1c-.9.4-1.2,1.1-.6,2.3l7.3,15.5c.2.4.3.7.9.4,1.8-.8,1.9-1.4,1.3-2.8l-1-2.2,2-1,4.8,10.2-2,1-1-2.2c-.8-1.7-1.4-2.1-3.2-1.2-.6.3-.5.5-.2,1l7.5,16c.6,1.2,1.2,1.4,2.2,1,1-.5,2.4-1.6,2.6-2.9s-.5-3-1.1-4.3l-3.3-7.1,3-1.4,6.5,13.8-15.2,7.1Z"></path><path class="cls-1" d="m267.45,127.6l-.4-1.5c1.9-.5,2.3-1,2-2.3l-8.9-37.2c-.3-1.3-.9-1.6-2.8-1.2l-.4-1.5,9.6-2.3.4,1.5c-1.9.5-2.3,1-2,2.3l8.9,37.2c.2.9,1.2,1.6,2.6,1.2,1.6-.4,2.4-1.6,2.6-2.5.3-1.1.2-2.6,0-3.7l-1.9-8.1,3.2-.8,3.5,14.9-16.4,4Z"></path><path class="cls-1" d="m283.25,123.8v-1.6c1.9-.1,2.4-.5,2.4-1.9l-1.1-38.3c0-1.3-.6-1.8-2.5-1.7v-1.6l9.8-.3v1.6c-1.9.1-2.4.5-2.4,1.9l1.1,38.3c0,1,.9,1.8,2.3,1.7,1.6,0,2.6-1,3-1.9.5-1,.8-2.5.7-3.6l-.2-8.3,3.3-.1.4,15.3-16.8.5Z"></path><path class="cls-1" d="m299.25,123.1l.3-1.5c1.9.4,2.5,0,2.8-1.3l7.3-37.6c.3-1.3-.2-1.9-2.1-2.2l.3-1.5,8.3,1.6.8,24h.2l3.8-19.7c.3-1.3-.2-1.9-2.1-2.2l.3-1.5,8.1,1.6-.3,1.5c-1.9-.4-2.5,0-2.8,1.3l-8,40.9-2.7-.5-1.2-38.3h-.2l-6.5,33.3c-.3,1.3.2,1.9,1.7,2.2l-.3,1.5-7.7-1.6Z"></path><path class="cls-1" d="m317.75,126.8l.6-1.4c1.8.8,2.4.6,3-.7l15.4-35c.5-1.2.3-1.9-1.5-2.6l.6-1.4,15.2,6.7-6.1,13.9-3-1.3,3.1-7c.6-1.3,1.2-3.1,1-4.3-.2-1.3-1.6-2.4-2.7-2.9-.9-.4-1.6-.2-2.1,1l-6.9,15.7c-.2.4-.3.7.2,1,1.8.8,2.4.5,3-.9l1-2.3,2.1.9-4.5,10.3-2.1-.9,1-2.3c.7-1.7.6-2.4-1.2-3.2-.6-.2-.7,0-.9.5l-7.1,16.1c-.5,1.2-.3,1.9.7,2.3,1,.5,2.8.8,3.9,0,1.1-.7,1.9-2.4,2.5-3.7l3.1-7.1,3,1.3-6.2,14-15.1-6.7Z"></path><path class="cls-1" d="m362.85,111.8c3.1-4.4,3.1-7.7,1-9.2-1.4-1-2.8.2-3.7,1.5-1,1.4-3.9,6.9-5.2,15.7-.7,4.8-2.1,12.9-5.1,17.2-2.8,4-7.4,3.2-9.8,1.5-2-1.4-3-2.7-3.4-3.5-.4-.7-.7-1-.9-1.2-.5-.4-1.1-.2-1.7.3l-1.4-1,9.3-13.2,2.7,1.9-3.6,5c-2.6,3.7-2.3,8.2-.1,9.8,1.3,1,2.8.3,4-1.3,2.5-3.5,4.5-11.8,5.2-16.9.9-6,3.2-12.8,5.5-16.1,2.6-3.7,6.5-3.4,9.4-1.4,1.3.9,2.2,2,2.5,2.5.2.4.5.9.9,1.2.4.3,1.1.1,1.6-.1l1.4,1-9.1,12.8-2.7-1.9,3.2-4.6Z"></path><path class="cls-1" d="m379.35,127.3c3.9-3.7,4.5-6.9,2.8-8.8-1.2-1.3-2.7-.4-3.9.7-1.3,1.2-5.2,6-8.2,14.4-1.7,4.5-4.6,12.2-8.4,15.8-3.5,3.3-7.9,1.7-9.9-.4-1.7-1.8-2.4-3.2-2.7-4.1-.3-.7-.5-1.1-.7-1.3-.4-.4-1.1-.4-1.8,0l-1.2-1.3,11.8-11.1,2.2,2.4-4.5,4.2c-3.3,3.1-3.9,7.6-2.1,9.5,1.1,1.2,2.6.9,4.1-.5,3.1-2.9,6.7-10.7,8.4-15.5,2-5.7,5.7-11.9,8.6-14.7,3.3-3.1,7.1-2,9.5.5,1.1,1.2,1.8,2.4,2,3,.2.4.3,1,.7,1.3.4.4,1,.3,1.6.2l1.2,1.3-11.4,10.7-2.2-2.4,4.1-3.9Z"></path></g><g><path class="cls-1" d="m213.95,259.5c3.7-2.8,7.7-5.5,9.5-3.1s-1.8,5.5-5.4,8.4c-4.2,3.2-8.2,5.9-10,3.5-1.9-2.4,1.7-5.6,5.9-8.8Zm2.7,3.5c6-4.6,6.4-5.7,6.1-6.2-.4-.5-1.6-.3-7.5,4.3-6.5,5-7,6.1-6.6,6.6.3.5,1.5.3,8-4.7Z"></path><path class="cls-1" d="m216.45,275.9c-.4.4-.4.7,0,1.3l-.5.4-1.8-1.9.4-.3-.1-.1c-.4-.1-.9-.3-1.4-.8-.8-.8-.9-1.7.1-2.6l8.5-7.7c.4-.4.4-.7,0-1.3l.5-.4,1.7,1.9-9.3,8.5c-.5.5-1,1-.5,1.5.4.5,1.1.3,1.7-.3l8.2-7.5c.4-.4.4-.7-.2-1.5l.5-.4,2,2.1-9.8,9.1Z"></path><path class="cls-1" d="m219.75,279.2c-.4.4-.4.7.2,1.4l-.4.5-2.7-2.6.4-.5c.6.5.9.5,1.3.1l8.2-8.6c.4-.4.4-.7-.1-1.3l.4-.5,1.9,1.8-.3.3.1.1c.6.2,1,.4,1.3.7.6.5.9,1.4,0,2.2-1,1.1-1.7,1.4-2.3.8-.4-.4-.3-.9,0-1.3.3-.3.7-.4,1-.4.4,0,.6-.1.8-.3s.2-.4-.1-.7c-.5-.5-1.4-.5-2.2.4l-7.5,7.9Z"></path><path class="cls-1" d="m236.15,278.9c.5-.6,1-1.3.2-1.9s-1.6,0-2,.6-.5,1.1-.5,1.5c0,.2,0,.5-.3.9-.2.3-.7.4-1.2,0-.5-.3-.6-1.1.5-2.4,1.3-1.7,2.6-2.1,4-1s1.4,2.2-.3,4.5l-5.7,7.4c-.3.5-.3.9.2,1.3l-.5.6-.5-.4c-.5-.3-.7-.9-.9-1.3-.7-.2-1.3-.4-1.8-.7-.8-.6-1.3-1.8.2-3.9,1.8-2.3,4.1-2.7,5.3-2.8.8-.1,1.5-.3,1.8-.7l1.5-1.7Zm-2.5,3.1h0c-1.7.3-3,1-4.6,3-1,1.4-1.4,2-.8,2.4.4.3,1,.4,1.2,0l4.2-5.4Z"></path><path class="cls-1" d="m239.75,280.4c.3-.5.3-.8-.4-1.2l.3-.5,2.2,1.4-.2.3h.1c.3,0,.7,0,1.2.3,1,.7,1.5,1.7.2,3.6l-5.7,8.7c-.3.5-.3.8.4,1.2l-.3.5-2.7-1.8.3-.5c.4.2.7.1,1-.3l5.9-9c.5-.7,1-1.5.4-1.9-.7-.5-1.3.1-1.6.6l-6.1,9.3c-.3.5-.3.8.1,1.1l-.3.5-2.8-1.8.3-.5c.7.4,1,.3,1.3-.2l6.4-9.8Z"></path><path class="cls-1" d="m241.45,295.4c-.3.5-.2.8.4,1.2l-.3.5-3.1-1.8.3-.5c.7.3,1,.3,1.3-.2l5.9-10.3c.3-.5.2-.8-.4-1.2l.3-.5,2.3,1.3-6.7,11.5Zm8.1-13.8c-.3.6-1,.7-1.5.4s-.7-.9-.4-1.5c.4-.7,1-.8,1.5-.6.6.4.8,1,.4,1.7Z"></path><path class="cls-1" d="m249.15,286.2c.2-.5.2-.8-.5-1.2l.3-.6,2.4,1.1-.2.4h.1c.4,0,.8,0,1.3.2.4.2.9.6,1.1,1,.5,0,1,.1,1.6.3.9.4,1.7,1.5.8,3.3l-4.6,9.7c-.2.5-.2.8.5,1.2l-.3.6-3-1.5.3-.6c.4.1.7,0,.9-.5l4.6-9.7c.4-.8.8-1.6.2-1.9-.8-.4-1.3.3-1.5.8l-4.8,10c-.2.5-.2.8.2,1l-.3.6-2.4-1.2.3-.6c.4.1.7,0,.9-.5l4.6-9.4c.4-.8.8-1.6.2-1.9-.7-.4-1.2.3-1.5.8l-4.8,10c-.2.5-.2.8.2,1l-.3.6-2.9-1.4.3-.6c.7.3,1,.2,1.2-.3l5.1-10.7Z"></path><path class="cls-1" d="m260.95,292.4c.3-.7.6-1.5-.3-1.8s-1.5.4-1.8,1.1-.1,1.2,0,1.5c.1.2.1.5,0,.9s-.6.6-1.1.4-.9-.9-.3-2.5c.8-2,1.9-2.8,3.6-2.2,1.6.6,2,1.7,1,4.4l-3.3,8.7c-.2.5,0,1,.6,1.2l-.3.7-.6-.2c-.5-.2-1-.6-1.2-1-.8,0-1.4,0-1.9-.2-1-.4-1.8-1.3-.9-3.8,1-2.7,3.1-3.8,4.3-4.2.8-.3,1.3-.7,1.5-1.2l.7-1.8Zm-1.4,3.7h0c-1.6.8-2.6,1.9-3.5,4.2-.6,1.6-.7,2.3-.1,2.6.5.2,1,.1,1.2-.3l2.4-6.5Z"></path><path class="cls-1" d="m263.05,304.6c-.2.5,0,.8.7,1.1l-.2.6-3.4-1.1.2-.6c.8.2,1,0,1.2-.5l4.9-15.9c.2-.5,0-.8-.7-1.1l.2-.6,2.5.8-5.4,17.3Z"></path><path class="cls-1" d="m266.35,301.8l1.1.3-.5,2c-.3,1.3-.1,2.3.6,2.5.6.1.8-.2.9-.6.2-.9.1-3-.4-6.5-.2-1.2-.2-3.1.2-4.8.3-1.4,1.3-2,2.4-1.8.5.1.9.5,1.3.8l.3-.4.8.2-1.3,5.1-1.1-.3.6-2.4c.3-1.4.2-2-.5-2.2-.6-.2-.9.3-1.1.9-.2.8-.3,2.7.1,5,.4,2.1.6,4.7.2,6.5-.3,1.1-1.2,1.5-2.2,1.3-.7-.2-1.2-.5-1.5-.9l-.5.4-.8-.2,1.4-4.9Z"></path><path class="cls-1" d="m282.85,302.8l-3.4-.5c-.7,5.1-.9,6.4,0,6.5,1,.1,1.4-.7,1.7-2.5l.2-1.6,1.2.2-.2,1.6c-.3,2-1,3.4-3,3.1s-2.4-2.1-1.6-7.8c.7-5.4,1.5-7.1,3.6-6.8,2,.3,2.3,2.1,2,4l-.5,3.8Zm-3.3-1.3l1.8.2.5-3.5c.1-.9.3-2.4-.6-2.5-.9-.1-1.1,1.4-1.7,5.8Z"></path><path class="cls-1" d="m288.35,298c0-.8.1-1.6-.8-1.7-1-.1-1.3.8-1.4,1.6,0,.7.2,1.2.4,1.5.2.2.3.5.2.9,0,.4-.4.7-1,.7s-1.1-.6-1-2.3c.1-2.2,1-3.2,2.8-3.1s2.4,1.1,2.3,3.9l-.6,9.3c0,.6.3.9.9,1v.8h-.6c-.6,0-1.1-.3-1.4-.6-.7.2-1.3.4-1.9.4-1-.1-2.1-.8-2-3.4.2-2.9,1.9-4.5,2.9-5.3.6-.5,1-1.1,1.1-1.6l.1-2.1Zm-.2,4h0c-1.3,1.2-2,2.5-2.1,5-.1,1.7,0,2.4.7,2.5.5,0,1-.2,1-.7l.4-6.8Z"></path><path class="cls-1" d="m292.25,297.1c0-.5-.6-.7-1.2-.8v-.6c1.1,0,1.5-.5,1.5-1.3v-2.6h1.3v3.9h1.5v.6c-.9.1-1.5.3-1.5.8v11.6c0,.6,0,1,.3,1s.3-.4.3-1v-1.6h1.1v1.9c0,1-.6,1.5-1.6,1.4-1.3,0-1.9-.5-1.9-1.7l.2-11.6Z"></path><path class="cls-1" d="m303.75,308.6c.1.6.3.8,1.2.7l.1.6-3.7.4-.1-.6c.8-.1,1-.4.9-.9l-1.1-11.8c-.1-.6-.3-.8-1.1-.7l-.1-.6,2.6-.2v.4h.1c.6-.3.9-.5,1.4-.5.8-.1,1.6.2,1.7,1.5.1,1.5-.1,2.2-.9,2.3-.6.1-.9-.4-.9-.8s.1-.7.4-1,.3-.6.3-.8c0-.3-.2-.4-.7-.4-.7.1-1.3.7-1.2,1.9l1.1,10.5Z"></path><path class="cls-1" d="m310.25,307.8c.1.6.3.7,1.1.7l.1.6-3.6.5-.1-.6c.8-.2.9-.4.8-1l-1.7-11.7c-.1-.6-.3-.7-1.1-.7l-.1-.6,2.6-.4,2,13.2Zm-2.1-15.9c.1.6-.3,1.2-.9,1.3-.6.1-1.1-.3-1.2-1-.1-.8.3-1.3.9-1.4.6,0,1.1.4,1.2,1.1Z"></path><path class="cls-1" d="m317.45,308.7c1.9-.4,2.8.1,3,1,.1.7-.6,1.4-2.2,1.8l-2.5.5c-1.3.3-2.3.1-2.4-.6-.1-.5.2-1,.6-1.2-.6-.2-.9-.5-1-.9-.1-.3.2-.7.6-1.1-.4-.4-1.2-1.3-2.3-6.6-1.1-5.2-.9-7.2,1.1-7.6.7-.2,1.1-.1,1.7.3.3-.4.7-.8,1.4-1,1.3-.2,1.9,1,2.1,1.9.1.6,0,1.1-.6,1.2s-.9-.2-1-.6c-.1-.3,0-.6,0-.8.1-.3,0-.6,0-.8s-.3-.3-.6-.2c-.6.1-.9.6-.6,1.1.2.5.9,1.7,1.6,5.4,1.1,5.3,1,7.5-1,7.9-.5.1-.9.1-1,.1-.2.2-.3.3-.2.4.1.3.5.3,1.1.2l2.2-.4Zm-4.6-7.5c1.1,5.3,1.5,6.6,2.3,6.4.7-.2.6-1.5-.5-6.8-1-4.8-1.5-6.3-2.2-6.1-.8.2-.6,1.7.4,6.5Zm2.8,8.9c-1.1.2-1.3.5-1.2.8.1.3.3.4,1.4.2l2.2-.5c1.1-.2,1.3-.5,1.3-.8-.1-.3-.6-.4-1.5-.2l-2.2.5Z"></path><path class="cls-1" d="m321.05,307.1l-.2-.6c.7-.3.9-.5.7-1.1l-4.7-15.9c-.2-.5-.4-.7-1.2-.5l-.2-.6,2.5-.7,1.4,4.9h.1c.1-.1.2-.3.4-.4.2-.1.4-.2.6-.3,1.2-.3,2.2-.1,2.9,2.1l2.9,10c.2.5.4.7,1.2.5l.2.6-3.1.9-.2-.6c.4-.2.6-.4.4-1l-3-10.3c-.2-.8-.5-1.7-1.2-1.5-.8.2-.8,1-.6,1.6l3.1,10.7c.2.5.4.7.9.6l.2.6-3.1,1Z"></path><path class="cls-1" d="m325.15,291.9c-.2-.5-.8-.5-1.4-.3l-.2-.6c1.1-.4,1.3-1,1-1.8l-.9-2.4,1.3-.5,1.3,3.7,1.4-.5.2.6c-.8.4-1.3.8-1.1,1.2l4,10.9c.2.6.4,1,.7.9.3-.1.2-.5,0-1.1l-.5-1.5,1.1-.4.6,1.8c.3.9,0,1.6-1,1.9-1.2.4-1.9.2-2.3-.9l-4.2-11Z"></path><path class="cls-1" d="m336.55,296.3l1-.5.9,1.9c.6,1.2,1.3,1.8,2,1.5.6-.3.5-.7.3-1.1-.4-.8-1.9-2.3-4.5-4.7-.9-.8-2.1-2.2-2.9-3.8-.6-1.3-.3-2.4.7-2.9.4-.2,1-.2,1.5-.2v-.5l.7-.4,2.3,4.8-1,.5-1.1-2.2c-.6-1.3-1.1-1.7-1.8-1.4-.6.3-.5.8-.2,1.4.4.8,1.4,2.2,3.3,3.8,1.6,1.4,3.5,3.2,4.3,4.9.5,1.1,0,2-.8,2.4-.7.3-1.2.3-1.7.3l-.1.6-.7.4-2.2-4.8Z"></path><path class="cls-1" d="m345.95,288.5c2.9,5,3.2,6.8,1.5,7.8-1.8,1-3.1-.2-6-5.3-2.7-4.7-3.1-6.6-1.3-7.6,1.7-.9,3.1.4,5.8,5.1Zm-3,1.7c2.7,4.7,3.4,5.9,4.1,5.4.8-.4.1-1.6-2.6-6.3-2.4-4.3-3.2-5.6-4-5.2-.7.5,0,1.9,2.5,6.1Z"></path><path class="cls-1" d="m352.35,276.1c-.7.5-.6.8-.4,1.3l7.8,13.5c.4.7.2,1.6-.7,2.2-1,.7-1.8.6-2.4-.1-.6-.8-.8-1.6-.3-2,.4-.3.9-.1,1.1.3.2.2.3.5.3.7s0,.4.2.6c.1.2.3.3.6,0,.4-.3.5-.8.2-1.2-.2-.3-.7-.8-1-1.1l-9.5-10.2c-.4-.4-.6-.5-1.3,0l-.4-.5,2.6-1.9.4.5c-.3.3-.4.6,0,1.1l5.9,6.7h.1l-4.5-7.7c-.3-.5-.7-.5-1.1-.2l-.4-.5,2.4-1.8.4.3Z"></path><path class="cls-1" d="m361.05,277.3c3.7,4.4,4.4,6.1,2.9,7.4-1.6,1.3-3.1.3-6.9-4.1-3.5-4.2-4.2-5.9-2.7-7.2,1.6-1.2,3.2-.2,6.7,3.9Zm-2.7,2.3c3.5,4.2,4.4,5.1,5.1,4.6.7-.6-.2-1.6-3.7-5.7-3.2-3.7-4.2-4.9-4.9-4.3-.6.5.3,1.6,3.5,5.4Z"></path><path class="cls-1" d="m370.65,276.5c.4.4.7.4,1.3-.1l.4.4-1.9,1.8-.3-.4-.1.1c-.1.5-.3,1-.7,1.4-.8.8-1.7.9-2.6,0l-8.1-8.2c-.4-.4-.7-.4-1.3.1l-.4-.4,1.8-1.8,8.9,9c.5.5,1,.9,1.5.4.4-.4.3-1.1-.3-1.7l-7.8-7.9c-.4-.4-.7-.4-1.5.3l-.4-.4,2.1-2,9.4,9.4Z"></path><path class="cls-1" d="m376.05,264.6l2,1.6c1.4,1.1,1.5,2.3.4,3.6-1.3,1.6-3,.9-7.5-2.7-4.3-3.4-5.3-5-4-6.6,1.1-1.4,2.3-1.4,4.1,0,1.4,1.1,1.4,1.9,1.1,2.3-.4.4-1,.4-1.3.2-.3-.2-.3-.4-.4-.7-.1-.5-.4-1.1-.9-1.4-.6-.5-1.5-.6-2-.1-.6.8.6,1.8,4.4,4.8,4.3,3.4,5.5,4,6,3.4s0-1.4-.6-1.9l-2.1-1.7.8-.8Z"></path><path class="cls-1" d="m373.15,256.1c-.6-.4-1.3-.9-1.9-.1s0,1.6.6,2,1.1.4,1.5.4c.2,0,.5,0,.9.3.3.2.4.7.1,1.2s-1.1.6-2.4-.4c-1.8-1.2-2.3-2.5-1.2-4,1-1.4,2.2-1.5,4.5.1l7.7,5.3c.5.3.9.2,1.3-.3l.6.4-.3.5c-.3.5-.8.8-1.2.9-.2.7-.3,1.3-.7,1.8-.6.8-1.7,1.4-3.9-.1-2.4-1.7-2.9-4-3-5.2-.1-.8-.4-1.4-.8-1.8l-1.8-1Zm3.3,2.3h0c.4,1.7,1.2,3,3.2,4.4,1.4,1,2.1,1.3,2.5.7.3-.4.3-1,0-1.2l-5.7-3.9Z"></path><path class="cls-1" d="m374.55,252.4c-.5-.3-.8-.2-1.2.4l-.5-.3,1.3-2.3.3.2v-.1c0-.3,0-.7.2-1.2.6-1.1,1.6-1.6,3.6-.4l9,5.3c.5.3.8.2,1.2-.4l.5.3-1.7,2.8-.5-.3c.2-.4.1-.7-.4-1l-9.2-5.4c-.8-.4-1.6-.9-1.9-.3-.4.7.2,1.3.7,1.6l9.6,5.6c.5.3.8.2,1.1-.2l.5.3-1.7,2.9-.5-.3c.3-.7.3-1-.2-1.3l-10.2-5.9Z"></path><path class="cls-1" d="m379.95,242.3c-.5-.2-.9.3-1.2.8l-.6-.3c.5-1,.2-1.6-.6-1.9l-2.3-1.1.6-1.2,3.6,1.6.6-1.3.6.3c-.3.9-.3,1.5.1,1.7l10.6,4.8c.6.3.9.4,1.1.1.1-.3-.2-.5-.8-.7l-1.4-.6.5-1,1.7.8c.9.4,1.1,1.1.7,2-.5,1.2-1.2,1.5-2.3,1l-10.9-5Z"></path><path class="cls-1" d="m388.95,235.6c5.4,2.1,6.8,3.2,6.1,5.1-.7,1.9-2.6,1.8-8-.2-5.1-1.9-6.5-3.1-5.8-5,.8-1.9,2.6-1.8,7.7.1Zm-1.2,3.3c5.1,1.9,6.3,2.4,6.6,1.6.3-.8-.9-1.3-6-3.2-4.6-1.8-6-2.3-6.3-1.5-.4.8,1.1,1.4,5.7,3.1Z"></path><path class="cls-1" d="m391.15,228.6c5.5,1.7,7.1,2.7,6.5,4.7s-2.4,2-8,.3c-5.2-1.6-6.8-2.6-6.2-4.6.6-1.9,2.5-1.9,7.7-.4Zm-1,3.4c5.2,1.6,6.5,1.9,6.7,1.1.3-.9-1-1.2-6.2-2.8-4.7-1.4-6.2-1.8-6.4-1-.3.8,1.2,1.3,5.9,2.7Z"></path><path class="cls-1" d="m398.35,226.3c.6.1.9.7.8,1.4-.2.6-.7,1-1.3.9s-.9-.7-.7-1.3c.1-.7.6-1.1,1.2-1Z"></path></g><path class="cls-1" d="m408.15,220.6c2.3,0,4.2,1.8,4.2,4.1s-1.8,4.1-4.2,4.1-4.2-1.8-4.2-4.1,1.8-4.1,4.2-4.1h0Zm0,.8c-1.8,0-3.1,1.5-3.1,3.3s1.3,3.3,3.2,3.3c1.8,0,3.1-1.4,3.1-3.3-.1-1.8-1.4-3.3-3.2-3.3h0Zm-.7,5.4h-.9v-4.1c.4-.1.9-.1,1.6-.1.8,0,1.1.1,1.4.3.2.2.4.5.4.9,0,.5-.3.8-.8,1h0c.4.1.6.4.7,1s.2.9.3,1h-1c-.1-.2-.2-.5-.3-1-.1-.4-.3-.6-.8-.6h-.4v1.6h-.2Zm.1-2.3h.4c.5,0,.9-.2.9-.6s-.3-.6-.9-.6h-.5v1.2h.1Z"></path></g></g></svg> 