<?xml version="1.0" encoding="UTF-8"?> <svg xmlns="http://www.w3.org/2000/svg" id="Layer_1" width="600" height="400" viewBox="0 0 600 400"><defs><style>.cls-1{fill:#3a357e;}</style></defs><g><path class="cls-1" d="m284.02,96.94h5.07v1.36h-6.12c0,7.73-.12,15.47.27,23.19.22,4.18-2.09,10.74,4.39,11.42,6.88.7,4.3-6.23,5.18-9.88.93-3.85,2.5-5.67,6.5-5.64s6.21,1.56,6.52,5.62c.06.81.12,1.62.22,2.43.41,3.52.36,7.74,5.32,7.67,5.74-.12,4.7-4.9,4.89-8.53.06-1.81,0-6.66,0-12.01l-.72-.35.27-1.36.41-.19v-1.57l-.12.13-1.61-2.2h.82c.29-.09.6-.09.89,0,0-.81,0-1.6-.06-2.35-.21.36-.4.72-.56,1.1-1.59.06-3.16-.32-4.55-1.1-1.71.11-3.41.38-5.07.82-.92.23-1.73.41-2.44.54-1.32.66-2.79.98-4.26.94h-.79c-.35.12-.72.17-1.09.16-.57.06-1.12-.18-1.47-.63-1.51-.6-2.55-1.99-2.7-3.61-.39-2.2-.73-4.28-1-6.44-.31-2.81.73-6.68-3.83-6.68-4.83-.07-5.49,3.61-5.43,7.41v1.17l1.05-1.27m12.92,18.91c.32.2.49.57.45.94l-.45-.94Zm9.72,4.8l-.76-.61v-.62c.4-.02.74.29.76.69,0,0,0,0,0,0h0v.54Zm-7.3-10.07c-.34.14-.72.2-1.09.15l-.46-.76c.52.16,1.04.35,1.54.58v.04Zm2.57.99v-1.76l-2.2-.55c.27-1.36,1.34-1.89,2.94-1.89.96-.02,1.9.26,2.68.81-.8.27-1.34.54-2.14.82v2.44h3.21l2.98-1.05v1.64l-2.95,1.09.8,3.82-4.01-1.09,1.61-2.2c-2.86.08-5.72-.1-8.54-.54,2.97-.79,4.85-1.33,5.66-1.63l-.05.08Z"></path><path class="cls-1" d="m243.9,93.87c.16-.41.32-.81.48-1.3l.53,1.1h.49c.53,0,.8.27.8,1.09,0,.47-.09.93-.27,1.36h-2.17v2.2c.36.11.72.19,1.09.25l-.21-1.35,1.37.31c.12.53.23.92.27,1.17,1.3.11,2.42.13,3.85.31,1.82.12,3.28,1.56,3.41,3.38h6.5c-1.48.61-2.91,1.35-4.28,2.2l-.54-.55c-.53-.27-.8-.27-1.09-.54h-.48v3.45h.2l1.87-1.36c1.34,0,3.21,1.64,5.35,4.91-1.98.26-3.94.62-5.87,1.09l-1.54-.29c0,3.89,0,7.78.23,11.65.19,3.61-1.26,9.25,4.38,9.87,4.7.49,4.83-3.22,4.84-6.32-.2-.29-.15-10.19-.22-17.69-.12-.52-.27-1.09-.46-1.79h.45v-3.14c-.01-.08-.01-.16,0-.23,0-2.87,1.17-4.56,4.25-4.79.62-.02,1.23-.07,1.84-.15,2.67-.32,5.29-.29,5.2-4.04-.09-4.38-3.71-4.51-6.47-4.62-3.08-.12-6.17,0-9.27,0,0,.09-8.63.19-12.92.33-2.39.06-4.29,2.01-4.29,4.39-.05.85.22,1.69.75,2.35-.2-1.76.46-2.88,1.95-3.29m16.12,3.68c1.1.28,2.14.54,3.52.81-1.41.36-2.84.63-4.29.82l.76-1.63Z"></path><path class="cls-1" d="m344.55,133.82c4.05,0,10.26,1.7,10.82-4.24.68-7.13-6.21-3.78-9.8-4.97-2.74-.9-6.73-.42-6.58-4.59s4.02-3.52,6.9-3.88c2.53-.27,5.09-.55,5.33-3.84.25-3.52-2.09-4.7-5.1-5.1-.53-.08-1.09-.13-1.61-.23-2.51-.46-5.16-1.17-5.1-4.24,0-3.38,3.16-3.23,5.49-3.69s4.84-.76,7.28-1.03c3.07-.33,6.41-.61,6.5-4.7.06-4.31-3.47-4.18-6.47-4.3-2.46-.11-4.92,0-7.38,0v-.12h-4.09c-10.57,0-10.84.32-11.47,10.97-.35,5.99-.92,11.97-1,17.95-.2,16.16-.12,16.26,16.28,16.02m.4-43.05l.46.31v.43c-.36-.02-.69-.19-.92-.46l.46-.28Zm-.46,2.01c.46,0,.76.16.76.47v.27l.15.31h-.92v-1.05Zm3.52,0c.19.15.3.38.31.62-.04.41-.14.8-.31,1.17l.31.32-.31.47h-3.79c1.13-1.04,2.39-1.93,3.75-2.64l.05.06Z"></path><path class="cls-1" d="m308.07,104.02c3.75-2.71,6.14-4.09,6.94-3.82h.54v3.82l.58.2c-.08-3.79-.15-7.14-.22-9.01-.08-2.83-1.02-5.56-4.57-5.64-3.55-.08-4.7,2.35-5.03,5.3-.29,2.43-.25,4.89-.56,7.31-.08.64-.26,1.27-.54,1.86h2.87"></path><path class="cls-1" d="m233.05,272.09l.42-.23-.78-.95h.48c.48-.1.97-.05,1.42.14,1.34-1.21,1.7-3.17.87-4.78-2.7-6.1-4.86-12.39-7.27-18.57h-1.89l.78-1.34.48-.15c-.87-2.2-1.79-4.39-2.77-6.46l-5.33.48c.93-.59,1.88-1.13,2.87-1.61v-2.94l.45-.09-.11-.19c-2.7-5.05-11.3-4.22-13.27.81-3.97,10.17-7.21,20.62-10.02,28.78-.69,4.46-.81,6.59,1.55,7.68,2.22,1.13,4.94.39,6.28-1.72,7.18-9.87,13.59-7.67,19.57-.45,1.69,2.06,3.74,2.77,6.23,1.59m-2.17-8.78c0,.15,0,.31-.15.31h-.29l-.46-1.17c.59.12.88.43.88.88h.02Zm-22.47-2.36h-1.17v-.75l.45-.62h.14c.46,0,.6.15.6.62v.75Zm-.31-17.16v-.93c.28.02.54.13.74.32l.15.61h-.89Zm6.36,1.36l-.43.15-.29-.76c.31.11.57.32.74.6h-.01Zm-1.33,11.76c-3.15-1.53-.88-6.19-.2-8.86.47-1.96,1.48-3.99,4.1-3,1.17.69,1.98,1.86,2.19,3.21.68,2.09,1.94,4.05,2.09,6.26.18,1.81-5.23,3.81-8.16,2.35v.04Z"></path><path class="cls-1" d="m274.91,257.89c-1.36-2.35-1.94-4.39-.33-7.19.55-1.01,1.02-1.96,1.43-2.89-.12-.2-.25-.38-.41-.55h.65l.25-.6v-1.09l.43-.19c.09-.26.18-.54.26-.79l-1.28-.25.14-.46.74-.45c.15-.61.31-1.37.46-2.28.18.09.35.2.51.33.51-6.79-4.7-10.68-15.11-10.83-3.94,0-9.55-1.7-10.82,3.65-2.64,11.44-3.11,23.24-3.52,34.95-.17,2.32,1.57,4.34,3.9,4.52.16.01.32.01.48,0,2.8.13,4.39-1.47,4.89-4.09s.54-6.73,1.09-10.04c.24-1.28,1.46-2.12,2.74-1.88.53.1,1.01.38,1.36.79,2.8,3.44,4.9,8.09,6.58,11.29,1.68,3.2,4.17,3.76,7.2,2.2,3.03-1.56,3.43-3.84,2.2-6.58-1.17-2.63-2.49-5.2-3.95-7.68m-23.31-13.24c-.37-.62-.67-1.29-.89-1.97h1.09c-.13.69-.15,1.39-.07,2.08l-.13-.11Zm19.75-2.04c-.18,1.65-1.2,3.1-2.7,3.82-2.61.85-5.48.22-7.49-1.64-.6-.64-.95-1.47-.96-2.35.06-.94.41-1.84,1.01-2.57,1.13-1.56,3.11-2.26,4.97-1.75l-.2-.56h4.18l-.42,2.19c.21.15.45.29.65.46.35.22.64.53.83.89.22.49.29,1.04.21,1.57l-.07-.05Z"></path><path class="cls-1" d="m339.61,270.21l.15-.75.73-.32v-.58c-.09-.08-.21-.14-.33-.15q-.15,0-.29.15l-.89-1.17h.49c.35-.14.75-.04.99.25-.07-.44-.16-.87-.28-1.29-2.67-9.26-5.41-18.5-8.22-27.72-.98-3.29-2.93-5.49-6.66-5.58-2.96-.33-5.77,1.39-6.84,4.17-.48,1.43-1.35,2.7-2.5,3.68v.66l-1.09-.22c-1.63.23-3.29-1.33-4.7-3.97-1.86-3.29-4.05-4.7-7.77-4.1-3.92.66-4.7,3.75-5.23,6.9-1.55,8.72-2.57,16.45-4.12,25.17-.56,3.2-1.17,6.58,3.29,7.34,3.98.65,5.49-2.19,6.24-5.49,1.17-5.2,2.47-12.06,3.91-18.29,2.14,4.29,4.51,6.72,6.85,7.68h.12v.02c4.38,1.73,8.69-1.81,11.11-7.96,2.09,7.14,4.28,14.54,6.16,20.66.94,3.05,2.69,5.2,6.32,3.96,1.42-.39,2.6-1.39,3.21-2.73l-.58-.28m-34.71-35.97h1.17l.45,1.37-.15.31-1.49.29.02-1.97Zm2.1,13.13c-.23-.8-.52-1.88-.79-2.95l2.35.8-.8.27c.49,1.06.22,1.57-.82,1.86l.06.02Z"></path><path class="cls-1" d="m187.7,231.16c-4.39-.16-12.65.43-12.65.36-2.55,0-3.36-.38-5.05.13-.03.13-.08.26-.15.38l-.16-.27c-.4.13-.79.28-1.17.46-4.16,1.86-3.12,9.56-3.04,12.51v.23c-.16,7.2,0,22.9-.31,23.28,0,3.18.09,6.91,4.99,6.51s3.7-5.87,3.89-9.54c0-.8.07-1.5.09-2.68.09-3.81,4.83-3.14,7.42-3.52,2.35-.31,4.46-.85,4.52-3.7s-1.72-3.85-4.15-4.23c-.95-.15-3.03-.14-3.98-.38-1.76-.42-3.52-.76-3.72-3-.08-.91-.08-1.83,0-2.75-.08-2.58,1.82-4.81,4.38-5.13,1.89-.22,7.58,0,9.4-.29,2.35-.28,4.19-1.17,4.15-3.91.01-2.45-1.93-4.46-4.38-4.52m-15.77,36.72l-.74-.46h-.2c.11-.63.2-1.32.29-2l.2-.13c.19.52.5.99.89,1.37l-.45,1.21Zm5.02-16.22l-3.94.8-.53,3.76c-.92-.26-1.8-.63-2.62-1.1.79-.26,1.09-1.6,1.09-3.74.67-.57,1.48-.94,2.35-1.09,1.26.2,2.46.67,3.52,1.37h.12Zm-1.1-16.73h-2.09v-1.34l.78-1.09h.27c.79,0,1.09.26,1.09,1.09l-.05,1.34Zm4.45.8l-1.32-1.09v-1.09c.69-.05,1.28.47,1.33,1.16,0,0,0,.01,0,.02h0v1.01h-.01Z"></path><path class="cls-1" d="m393.52,263.99c-1.44.65-2.35,1.17-3.52.69-5.26-1.97-10.04-5.16-9.4-11.23s3.99-11.14,11.36-10.71c3.12.19,5.8-.46,6.9-2.7-.08-.74-.21-1.47-.38-2.2l.87.21v-.25c.07-4.59-4.25-4.7-7.59-5.06h-.89l-.25,1.75c-.66-.3-1.16-.87-1.39-1.56l.07-.22c-7.42.14-13.11,4.15-16.45,10.57-.77,1.5-1.39,3.07-1.84,4.7h.2l1.35.54h-.54v1.37l1.34-.55v-1.36l2.43.54,1.88,3.03-1.89-1.09-.81,1.64-4.7.6c-.16,3.87.72,7.71,2.56,11.11l.07.07c.4.75.84,1.48,1.32,2.19h1.69l.82-1.36,2.64,1.3-.81,3.85h-1.17c4.53,4.39,10.46,5.99,17.2,4.9,9.47-1.55,7.49-14.63-1.03-10.81m-18.44-8.68l.81-1.93h2.69l1.62,1.93h-5.12Zm7.55,7.98h-.29l-.82-1.64c1.1.28,1.89.55,2.2,1.37-.31.32-.58.32-1.12.32l.04-.05Zm12.35,4.09c-.52-1.04-.89-2.15-1.09-3.29h.76v1.4l1.23.32c0-.54.38-1,.9-1.09-.54.94-1.15,1.84-1.81,2.7v-.04Z"></path><path class="cls-1" d="m421.14,262.6l-.23-.96h2.02l.78.31-.21.26c-.55-.04-1.09.11-1.54.43h.59c1.96,0,3.9-.46,5.65-1.34-.84-1.5-2.26-2.58-3.92-3l.46-1.69h2.14l.11.56c-.35,1.24-.03,2.58.85,3.52l.47.52c4.04-2.13,6.38-6.58,6.39-12.83,0-9.88-4.05-14.52-12.8-14.52-7.14,0-12.79,6.52-12.73,14.73.07,7.95,4.78,13.38,11.94,13.93m1.3-20.64c4.06,0,4.45,3.29,4.7,6.46-.2,3.38-1.17,6.47-5.26,6.41-4.09-.06-4.92-3.29-4.77-6.36s1.17-6.54,5.32-6.5v-.02Z"></path><path class="cls-1" d="m426.89,270.03l.55-.55c.38.01.76-.08,1.09-.28h1.1c.9,0,1.95.07,3.1.15,0-.47-.06-.9-.08-1.17,0-.38-.15-.75-.41-1.02-.06-.05-.13-.08-.21-.11-1.54.29-2.93.51-4.17.66v.34l-.32-.29c-.79.09-1.54.18-2.19.22l.15-.08c.51-.17.98-.42,1.41-.74l-.21-.2v-.38c-4.87-.2-9.75.4-14.43,1.77-.61.16-.4,1.82-.42,2.46.11,1.19.74,2.27,1.72,2.95,1.52.44,3.11.64,4.7.56,3,0,5.99-.12,9.01-.35,1.33-.05,2.64-.33,3.88-.83.51-.23.95-.58,1.28-1.03.11-.22.19-.45.23-.69-2,.06-3.99-.41-5.74-1.37"></path><path class="cls-1" d="m262.82,204.12c-1.17-2.81-2.47-5.62-3.7-8.45-.12.47-.27.94-.43,1.4l.54.55-.54.83h-6.84c1.98-1.75,4.15-3.29,6.46-4.57-5.42-12.42-10.83-24.82-17.15-36.76-2.23-4.2-7.02-6.34-11.63-5.22v2.35c-.39-.66-.73-1.34-1.03-2.04-2.65.91-4.77,2.93-5.79,5.54-3.12,7.98-5.94,16.08-8.54,23.77.12.16.18.35.18.55l-.39.06c-2.42,7.18-4.64,14-6.71,19.97-1.1,6.87-1.26,10.21,2.35,11.85,3.85,1.66,8.32.87,11.37-2.01l2.2-2.19-.23-1.89c.63-.17,1.3.02,1.74.51,9.4-8.48,14.6-7.95,24.73,2.35,2.87,2.93,5.76,4.28,9.61,2.44s5.38-5.18,3.71-8.99m-9.56-14.05l.81.56v.83c-.63-.05-1.22-.35-1.63-.83l.82-.56Zm-.82,3.61c.82,0,1.36.28,1.36.83v.27l.27.56h-1.63v-1.67Zm-44.71,14.91l-.93-2.2c.93.42,1.77,1.01,2.48,1.74-.41.34-.95.5-1.48.46h-.07Zm8.05-23.04c-.11-.29-.27-.55-.47-.79l.93-.47c.47-.95.93-1.59,1.7-1.75-.59,1.08-1.29,2.09-2.1,3.01h-.06Zm2.94,7.41c.19.25.34.51.46.8l-.46-.8Zm4.64-9.87l-.75-1.62.82.83-.07.79Zm16.99,7.65c-3.21,2.61-11.08,1.75-13.59,0-2.26-1.62-1.46-4.39-1.09-6.58.49-2.65,1.73-5.56,2.35-8.22.73-3.03,2.2-5.56,5.49-5.38,2.27.13,3.92,2.35,4.85,4.17,1.95,3.86,3.52,9.22,3.29,13.33,0,1-.43,1.96-1.17,2.63l-.12.05Zm1.63,1.25l-.65-1.25c.55.08,1.02.44,1.25.95l-.6.29Z"></path><path class="cls-1" d="m549.78,197.06c-.17-.16-.37-.28-.59-.38l.31-.9h.43c.02-.33.02-.66,0-.99h-2.35v-1.1c.73.27,1.49.42,2.27.46-.94-5.74-4.91-11.35-11.75-16.45-3.07-2.35-8.53-3.62-9.4-7.48h-2.04l-.26-2.48c.66.15,1.33.21,2.01.16.06.1.13.2.21.28.08-.53.22-1.04.41-1.54,2.29-6.17,7.67-1.63,11.83-.96s6.37-1.64,7.68-5.13c1.32-3.49-.19-5.87-3.02-7.68-3.87-2.35-8.29-3.64-12.82-3.77-1.09.09-2.19.23-3.23.42l-.07.19h-.85c-7.48,1.57-13.17,5.73-15.86,13.6-3,8.78,1,15.35,7.77,20.69,2.08,1.62,4.45,2.88,6.59,4.38,3.37,2.35,7.88,4.7,5.87,9.68-2.27,5.58-6.9,3.09-10.64,1.56-5.38-2.2-9,0-11.09,4.59-2.7,6,2.07,7.99,6.27,9.87.39.18.79.31,1.17.46v-.62l-1.54-.31.92-1.57,1.1,1.57c-.13.36-.25.65-.35.98,10.69,4.04,23.59.12,28.72-8.87,1.57-2.64,2.43-5.64,2.5-8.72h-.15m-19.45-16.54h.52l.75,1.81h2.35l.26,2.35c-.62-.15-1.26-.2-1.89-.16-.98-1.34-2.04-2.62-3.16-3.84.39-.08.78-.13,1.17-.14h0Zm-7.26,29.36v-.94h.06c.15.18.34.33.55.43.57.28,1.06.72,1.4,1.26-.42-.13-1.09-.4-2.03-.76h.02Z"></path><path class="cls-1" d="m433.93,206.77c-.35-3.91-3.2-4.93-6.58-5.12-1.94-.11-3.89,0-5.79-.28-4.39-.59-10.46.26-10.97-5.87-.18-1.19-.02-2.42.46-3.52-.19-.1-.38-.22-.55-.34l.46-.31c.15,0,.29.02.43.07,1.77-2.46,6.03-1.87,9.19-2.28,3.7-.47,7.05-1.35,7.19-5.87.09-4.26-2.73-6.09-6.58-6.68-1.53-.25-3.09-.33-4.58-.69-3.15-.76-6.11-2.03-6.01-5.87.08-4.06,3.52-4.85,6.5-5.33,4.56-.74,6.65-1.56,11.27-1.97,3.81-.36,6.94-1.55,6.94-6.07s-2.87-5.87-6.77-6.37c-18.26-2.2-24.95-.06-29.98,8.04-8.93,14.25-3.52,40.88-3.52,45.33,0,3.29.69,6.41,2.8,8.22l.85.23c.02.12-.02.24-.09.34.55.36,1.16.64,1.8.81h.29v.14c.57.14,1.15.23,1.74.27,8.46.49,16.98.48,25.45.15,3.82-.15,6.44-2.69,6.06-7.05m-36.92,1.1c-.15-.48-.31-1.1-.46-1.73l1.36.47-.45.15c.29.56.08.88-.47,1.05v.06Zm11.95-42.29c.52-.03,1,.29,1.17.79l-1.17.32v-1.1Zm-1.69-2.7c.19.15.3.38.31.62v.15c-.2-.15-.31-.38-.31-.62v-.15Zm1.69,22.32c-.45.43-1.06.67-1.69.65v-1.25c.62.02,1.22.25,1.69.65v-.05Zm-1.55-17.49l-1.09.31v-.93c.44.07.84.27,1.17.56l-.08.06Zm-1.37-9.68c-.2.9-.46,1.79-.76,2.65-.09-1-.25-1.99-.46-2.97l1.22.32Zm.93,6.25c-.08.61-.29,1.19-.62,1.7-1.15-.2-2.09-1.03-2.44-2.15.92.11,1.99.28,3.07.42v.02Zm-6.74,48.26h-.46l-.31-.93c.44.3.91.54,1.41.73-.19.13-.42.18-.65.14v.06Zm-1.63-9.29l1.52-2.35,1.02.26v2.62l-2.54-.53Zm3.62,9.29l-.46-.62c0-.27.04-.53.15-.78l.47.47-.16.93Zm-1.9-23.34c-.71-1.43-1.2-2.95-1.44-4.52h1.09v1.94l1.69.42c.02-.73.54-1.35,1.26-1.5-.78,1.25-1.64,2.46-2.57,3.61l-.02.06Zm4.02-12.44h-.42l-.42-1.73c.66.06,1.23.48,1.48,1.09,0,.3-.24.56-.54.56,0,0-.02,0-.02,0h-.07v.07Zm1.48,4.09c.88.35,1.73.78,2.53,1.29-1.48.43-2.53.65-3.16.86l.63-2.15Zm1.64,24.96l.51-2.06c.75,0,1.26.25,1.26,1.02s-.51,1.03-1.52,1.03h-.25Zm-.47,2.96l-.63-.76c.51.08.98.29,1.37.62l-.74.14Zm2.6-39.48h-.61v-1.32c.41.12.67.52.61.94v.38Zm.92,14.26c.76,0,1.17.15,1.1.62l-.61,1.88-.76-.33.27-2.17Z"></path><path class="cls-1" d="m185.02,208.22c-.35-4.06-3.29-5.11-6.79-5.31-2.01-.12-4.04,0-6.03-.31-4.62-.61-10.88.27-11.48-6.13-.68-7.37,5.87-6,10.4-6.59,3.84-.49,10.57-.83,10.71-5.54.08-4.39-1.56-6.95-10.07-7.53-1.61-.1-3.2-.34-4.77-.72-3.29-.79-6.34-2.1-6.26-6.13.09-4.23,3.62-5.05,6.75-5.56,4.7-.76,9.57-1.09,14.38-1.5,3.96-.35,7.21-1.6,7.2-6.31,0-3.52-1.87-5.13-4.59-6l-.63,1.34-1.7-.47c.53-.38,1.1-.7,1.7-.95v-.13c-.58-.16-1.16-.29-1.75-.39-20.32-3.82-29.86-3.2-34.16,6.09l.68.22c-.21.91-.47,1.81-.78,2.69-.08-.83-.19-1.48-.27-2.02-1.32,3.3-2.13,7.68-2.49,13.29l.12-.87c1.36,0,2.2.28,1.91,1.1l-1.1,3.29-1.09-.45c0,1.09-.07,2.1-.09,3.22,1.29.28,2.6.47,3.92.56.65.06,1.3-.04,1.9-.29l1.09-1.37c-1.11-.7-2.11-1.54-3-2.5l1.03-3.61h2.73c.06,1.14.34,2.25.81,3.29l2.2.55v1.66h-2.97l.76,1.4h.82v1.39c-3.82,2.54-6.26,3.91-7.05,3.91-.39.04-.78-.06-1.1-.27-.09-.97-.51-1.88-1.17-2.58v.93c0,1.09-.15,13.94-.14,22.05h.13v1.59h-.13v1.67c0,5.25,1.6,10.04,7.67,10.41,3.52.2,7.05.31,10.57.35-.07-.4-.16-.79-.28-1.17h1.08l.26,1.17c4.92.05,9.83-.03,14.74-.22,3.97-.15,6.71-2.78,6.3-7.27m-4.06,1.84c.51.01,1,.2,1.37.54l.26,1.1h-1.63v-1.64Zm-32.04-45.74c-1.16-.22-2.11-1.07-2.47-2.2.93.16,2.01.32,3.09.47-.07.62-.27,1.22-.6,1.75l-.02-.02Zm4.18,17.62c.78,0,1.17.15,1.09.63l-.61,1.89-.79-.32.31-2.21Zm5.87,3.16h-1.7l.47.79h.46v.79c-1.22.93-2.57,1.67-4.02,2.19-.22.04-.44-.02-.61-.16-.1-.92-.69-1.7-1.55-2.04v-.76c1.02.22,2.05.39,3.09.48.38.03.75-.02,1.1-.16l.62-.8c-.63-.38-1.21-.86-1.7-1.41l.62-2.06h1.52c.03.66.19,1.3.47,1.89l1.17.32.06.95Z"></path><path class="cls-1" d="m490.45,152.56c-7.56-3.81-16.49-3.75-24,.16-.93,2.26-1.61,3.59-2.2,3.88l-.88-.15.15-1.5c.43-.15,1.02-.31,1.47-.46l.43-.74-.31-.28c-5.77,3.42-9.45,9.5-9.81,16.2-.1,1.86.14,3.71.7,5.49l.09-1.1h3.9v2.67h3.11c-.53.79-1.05,1.33-1.82,1.33h-.79l-1.49-1.33.27-.79c-.31-.56-.93-.88-1.56-.8-.21.57-.63,1.05-1.17,1.33,1.68,4.07,4.67,7.47,8.49,9.66,4.15,2.42,11.58,2.69,11.94,9.07.45,8.34-10,5.4-14.72,4.17-8.33-2.2-11.28,10.13-3.17,12.92,16.18,5.7,31.64.75,31.98-16.85.01-5.31-2.21-10.37-6.11-13.97-1.97-1.87-4.32-3.28-6.9-4.15-2.63-.87-5.49-1.25-7.27-3.63-1.65-2.4-1.14-5.68,1.17-7.46.27-.21.54-.41.83-.59l-.25-.25c.04-.36.04-.73,0-1.09l.95.85c3.08-1.77,7.4-2.5,10.44-.94,7.67,3.96,14.04-7.77,6.4-11.75m-29.2,11.55v-.29c0-.61.15-1.1.59-1.17l.29.92c-.13.42-.01.87.29,1.17-.74-.07-1.17-.22-1.17-.61h0Zm2.19-4.51c0,.29-.29.45-1.02.6v-.31c0-.28.1-.54.28-.75.26-.04.52.02.74.15v.31Zm-.29,48.27c0,.45-.15.74-.59.74-.75-.18-1.49-.42-2.2-.74v-.99c.54-.06,1.05-.27,1.47-.61l1.33,1.17v.42Zm7.85,6.3l-.79.52-1.17-2.17h2.58l-.62,1.66Zm12.76-21.62c.41.15.83.26,1.26.33-.02.16-.02.31,0,.47l-.29.25h-.95v-1.05Zm-15.87-35.49l.46.29c-.31.4-.65.76-1.03,1.09.06-.51.26-.99.58-1.39Zm7.93,22.68l.34,1.46c-.56.76-1.22,1.43-1.96,2-.18-.54-.35-.92-.53-1.44.35-.96,1.14-1.7,2.11-2.01h.04Zm-5.71.68v.67h-.45l.15.31v.74c.43.13.88.18,1.33.15.6-.03,1.19-.13,1.76-.29-1.13.45-2.32.75-3.52.9h-.29l-.45-1.1h-1.32l-.15-1.35c.63.14,1.28.14,1.91,0l-.15-.42c.18.09.36.17.55.23l.61.16h.01Zm.25-19.97c-.65-.04-1.29.2-1.76.66h-.38l-.31-1.17h1.93l.73.31-.21.21Z"></path><path class="cls-1" d="m354.64,214.53l1.09.43c2.49-.2,7.25-.74,12.08-.9,3.64-.06,6.56-3.01,6.58-6.65.08-3.95-3.29-6.26-6.74-6.66-2.8-.34-5.98.08-8.78-.27-4.24-.53-5.73-2.98-5.87-6.58l-.08-1.01c0-9.64.45-18.55-.07-28.19-.27-5.32.75-13.62-5.87-14.57l-.15.27h-1.59v-.36c-6.04.13-5.87,5.12-5.87,9.53.35.55-.07,23.72.18,34.3.01.11.01.23,0,.34-.12,4.39-1.68,16.88,4.49,19.62,4.31,1.91,4.99,1.03,9.73,1.03.31-.08.64-.13.96-.13v-.2m9.69-6.45l1.1.29v2.93l-2.88-.59,1.77-2.63Zm-21.87-38.07c-.18.81-.48,1.77-.8,2.74-.09-1.03-.25-2.06-.47-3.08l1.27.34Zm.31,8.22c-1.19-.21-2.17-1.06-2.55-2.21.94.16,2.04.32,3.17.48-.09.61-.31,1.19-.65,1.72h.02Zm2.2-23.6c-.18.13-.41.19-.63.16h-.31l-.65-1.09,2.07.33-.48.6Zm2.1,41.79l.48,2.6-.8-.34.32-2.26Zm.48,6.95c-.09-.94-.7-1.75-1.59-2.09v-.83c1.05.23,2.11.39,3.18.48l-1.6,2.44Z"></path><path class="cls-1" d="m317.08,157.11l-.8,5.69c3.2-.4,6.21-1.33,6.12-5.54.03-1.64-.6-3.22-1.75-4.39v.36h-1.37v-1.43c-2.35-1.36-5.64-1.54-8-1.63-4.62-.18-9.26,0-13.87,0,0,.09-4.99.16-10.33.28l-.13.28c0,.85.82,1.09,2.2,1.41v1.41h-.82l-.82,1.67h-2.2v-2.56h-3.86l.42-2.19c-1.42,0-2.75.06-3.86.11-1.25.02-2.48.4-3.52,1.09v.39l4.7-1.09.54.85-1.36.85-1.1,1.68h1.94l2.24,4.77h-2.19v-3.3l-4.7,1.66c.71.65,1.1,1.57,1.09,2.53-.07.81-.26,1.6-.56,2.35.82.3,1.66.49,2.53.59,2.74.34,4.7.29,7.46.63,4.15.53,5.16,3.52,5.3,7.05v4.31l.61.16-.61.34v3.45c.33.07.64.19.93.36v.38l-.2.28-.12.29-.34.14-.27-.09c0,6.43,0,12.92.35,19.28.32.03.64.11.95.21l.55-3.95h1.66c-.28,1.77-.28,3.57,0,5.35-.66.14-1.37.27-2.13.41-.34.01-.68.05-1.01.11-.08,5.49-.78,12.92,6.52,12.57,7.3-.35,7.21-4.83,7.24-9.47-.35-.54-.19-23.37-.41-33.82-.01-.11-.01-.22,0-.33.11-4.3,1.84-6.85,6.37-7.18.94-.07,1.83-.13,2.76-.25s1.87-.18,2.82-.29c-1.03-.56-1.81-1.49-2.19-2.6.29-1.09.54-2.26.83-3.1h2.48m-21.71,35.51l-1.17.23c-.37.01-.73.05-1.09.11-.08-.45-.22-.88-.41-1.29.48-.03.96.03,1.42.15l.32-2.2h.86c-.15,1-.15,2.03,0,3.03l.08-.04Zm16.11-37.59l-1.57.32v-2.19h1.26l.47,1.43-.15.43Z"></path><path class="cls-1" d="m123.58,204.09c-4.1-14.21-8.29-28.4-12.57-42.56-1.46-4.82-4.29-8.16-9.68-8.54h-1.37c-1.2.01-2.38.2-3.52.56h-.18c-2.72.95-4.87,3.06-5.87,5.76-1.67,3.9-2.94,6.87-4.25,8.22l-.13.12c-.32.31-.73.51-1.17.56-1.59.11-3.41-2.41-6.04-8.86-2.14-5.24-7.15-6.77-12.64-6.03l-.62.08c-.42.08-.82.16-1.17.26h-.14c-1.47.39-2.78,1.21-3.78,2.35l-.09.13-.13.15c-1.47,2.33-2.37,4.98-2.63,7.72-.6,3.42-1.17,6.83-1.77,10.26-.02.25-.06.49-.13.73-.27,1.53-.53,3.08-.81,4.62l-.14.62-.95,5.49c0,.13-.03.27-.08.39-.47,2.78-.94,5.52-1.41,8.22-.02.21-.06.42-.11.62h0c-.45,2.57-.9,5.12-1.36,7.67.01.09.01.18,0,.27l-.2,1.09c-.14.83-.28,1.67-.4,2.5-.27,1.47-.27,2.98,0,4.45.21,1.09.79,2.08,1.63,2.8.27.23.57.43.88.6.31.17.64.32.98.43h.14c.56.19,1.13.33,1.72.42h.14c.83.12,1.68.12,2.51,0,4.04-.6,5.79-4.39,6.78-8.55.68-2.87,1.4-6.07,2.2-9.47.16-.75.34-1.53.51-2.35.12-.94.14-1.9.05-2.84.2-.18.43-.33.67-.46.41-1.86.83-3.72,1.25-5.6.55-2.44,1.1-4.89,1.66-7.25-.01-.08.01-.16.06-.22,1.64,3.77,4.13,7.1,7.28,9.74,1.09.91,2.34,1.61,3.69,2.07.95.29,1.94.42,2.94.38,5.16-.18,10.14-4.86,13.93-14.1v-.12c.48,1.64.98,3.3,1.47,4.97v.08c.08.27.19.56.28.83.69-.22,1.36.88,1.86.26l1.41.78-1.1.51.14.19h-1.17l-.47.43c.18.55.34,1.09.51,1.66s.23.79.35,1.17c.31,1.03.62,2.06.94,3.08v.13c.2.7.42,1.42.63,2.13l1.17,4.11v.16c.25.76.46,1.52.69,2.27h0c1,3.29,1.96,6.48,2.87,9.4.98,3.16,2.51,5.71,5.15,6.43,1.52.34,3.11.22,4.56-.35.6-.21,1.18-.46,1.74-.76.26-.14.51-.29.73-.45l.09-.07c2.96-2.1,3.45-5.47,2.35-9.4m-23.5-38.57l1.33-1.09h1.17c.12,1.44-.2,1.82-1.86,2.35-.58-.2-.7-.63-.66-1.17v-.08Zm.69,3.91c-.86-.22-1.7.31-2.35-.54l.8-.55c.92-.6,1.36-.35,1.54,1.17v-.08Zm-2.48-8.26l.36.45q-.47.07-.38-.42v-.02Zm.48,11.55h-.18c-.02-.3-.05-.61-.12-.9h.29v.9Zm-2.7,9.14c-.07.21-.16.42-.27.62-.14.22-.34.41-.48.63-.13.22-.24.45-.34.69h-.78c0-.25-.07-.51-.11-.82.81,0,.74-1.57,1.96-1.1v-.02Zm-2.07-15.13c0,.25.16.49.11.66-.13.27-.29.52-.49.74-.33-.59-.13-.98.38-1.37v-.02Zm-1.55-8.69h-.26c.22.11.35.35.33.6h-.15c-.02-.21-.07-.42-.13-.62l.21.02Zm-.46-.29l.22.26c-.12-.02-.24-.07-.33-.15l.11-.11Zm.75,4.04c.99.86.23,1.54-.22,2.2v-1.84h-.27c.01.5-.02,1-.09,1.49l-.49.51c-.18-.79-.33-1.5-.52-2.35h1.6Zm-3.44,2.65l.55.35.8-.51.82,1.26-1.17-.38-.34.32-1.09-.52.43-.53Zm.19,3.29v1.68c-.2-.12-.41-.21-.63-.29-.32-.06-.65-.12-.99-.15l1.62-1.23Zm-22.54-14.24l.85.86-1.55.09.7-.95Zm-2.35,43.72h-.47v-.99l.47.99Zm-2.95-.19h.72v.48l-.59.13c-.02-.2-.06-.41-.13-.6h0Zm-.63-36.34v-.16h.67v.16h-.67Zm1.67,36.32h.27v.55h-.16c-.02-.19-.06-.37-.11-.55Zm-.23-5.74v-.29h.51v.16l-.51.13Zm-1.29-1.72c.06.05.12.11.18.18-.7.41.16,1.5-1.09,1.82l.28-.85-.76-.96,1.4-.19Zm.16,5.6l-.89.13v-.31h.89v.18Zm-1.33,8.43c.17-.16.31-.36.41-.56-.04-.07-.06-.15-.07-.23l.39-.34c-.13.25-.23.42-.32.58v.08c.15-.19.09,0,0,.14v-.14l-.11.14c-.11.12-.21.24-.31.38-.04.11-.11.22-.19.31l-.12-.11.31-.23Zm0,5.49l-.51.51-.59-.76.2-.18.89.43Zm-1.61-17.12c-.01.08-.01.16,0,.25l-.08-.12c-.02.13-.08.24-.16.34l-.11-.11.27-.23v-.14c0-.52.36-.69.81-.82l-.73.83Zm.78-2.73l-.99.58c-.15-.49-.32-.99-.55-1.69.66.11,1.23.52,1.54,1.12Zm-3.23,22.67v.28h-.56v-.13l.56-.15Zm-2.73-13.31l-.58-1.53c.57-.68,1.47-1.01,2.35-.85l-1.77,2.37Zm2.76-4.83c.14-.83.59-1.03,1.33-.86v.86h-1.33Zm0,7.67v-.18l1.91.38.43,1.09-2.35-1.29Zm2.35,4.7v-.11h.34v.15l-.34-.05Zm8.78-48.12l-.48-.51.74-1.53c-.11-.14-.22-.31-.36-.53l1.17-.74,1.1,1.62-.79,1.68h-1.39Zm.43,27.48v.34h-.11v-.33h.11Zm-.11-22.74l2.91.82-.41.81c-.96-.32-1.8-.9-2.44-1.68l-.06.05Zm4.17-2.19l-1.32-.66c.21-.78.62-1.01,1.32-.85v1.5Zm3.3,22.2v.34h-.06v-.34h.06Zm-.19-5.56l.69-.25c.2.39-.11.45-.69.26h0Zm10.36-5.73c.18-.38.35-.74.55-1.09l1.17.43c-.18-.86.59-.98.85-1.5l.55.31c-.26.59-.78,1.02-1.41,1.17l-.78,1.29-.94-.61Zm16.79,2.69l-1.33-1.1h-.35c.12.22.21.35.31.53l-.48.52-.87-1.37c.6-.72,1.1-1.36,1.68-2h.16c.07.02.14.06.2.11l-.26.34v.09l1.56.18c.16.73.32,1.39.51,2.2l-1.13.52Zm3.3,12.15v-1.25l1.02-.33.82,1.63c-.73.6-.95.6-1.8,0l-.05-.06Zm4.38-20.04l.9,1.02v1.1l-.36-.19-.95-.47-.14-.65h-.23v.65h.19l.47,1.17-.96.28c-.65-.38-1.05-1.06-1.08-1.81.53-.87,1.52-.66,2.24-1.17l-.07.06Zm-.76,9.03l-.63.12c.12-.21.35-.34.6-.33l.04.21Zm-.87.41l-.09-.12.26-.21c0,.12-.03.23-.09.33h-.07Zm1.77,15.17c-.75-.23-1.09-.87-1.54-1.17v-1.17h.83c.72.55,1.02,1.48.78,2.35h-.07Zm0-8.22l-1.35.22c.51-1.49,1.74-.78,2.35-1.5.19.65.34,1.09.52,1.68-.66.35-.9-.52-1.43-.39h-.08Zm1.57-5.58h-1.39l-.62-1.48,1-.53,1.4.82c-.15.45-.27.83-.39,1.17h0Zm2.63,13.17v.18h-.35v-.12l.35-.06Z"></path></g><g><path class="cls-1" d="m128.84,306.95h.45v-1.28c0-6.27-2.7-9.25-8.33-9.25-1.54-.03-3.06.43-4.33,1.29-1,.7-1.84,1.6-2.47,2.64-.38.61-.69,1.25-.93,1.93-.26.76-.43,1.55-.53,2.35-.06.44-.08.88-.08,1.32,0,.53.02,1.07.08,1.6.23,2.96,2.02,5.57,4.7,6.86.27.13.55.23.83.32.27.09.55.16.85.23.39.08.78.14,1.17.18h1.62c.56-.04,1.11-.13,1.66-.27.22-.05.44-.12.66-.2,2.24-.83,3.94-2.7,4.55-5.02.23-.7.37-1.42.45-2.15-.39-.31-.9-.62-1.32-.9l.73-.76c.02.34.07.69.15,1.02m-13.29,3.78v-.18l.87-.13c.01.1.01.2,0,.31h-.87Zm8.22-12.66v1.17l-.79-1.07.79-.11Zm-1.94,2.23c-.61.35-.73-.15-1.02-.39.62-.35.73.15,1.05.39h-.02Zm-1.8,13.84v.35h-.11v-.33l.11-.02Zm4.92-5.87c-.13.49-.34.97-.61,1.4-.16.26-.35.49-.58.69-.78.65-1.78.97-2.78.89-3.22,0-4.06-2.64-3.97-5.29.11-1.9.59-3.85,2.11-4.79.71-.41,1.53-.61,2.35-.56.26-.02.52-.02.78,0,.22.03.43.09.63.15,2.03.69,2.35,2.91,2.46,5.13-.04.79-.16,1.58-.36,2.35l-.02.02Z"></path><path class="cls-1" d="m203.81,307.86c.08-1.05-.67-1.99-1.72-2.14-.22-.04-.44-.04-.66,0h-.27c-.94.11-1.89.11-2.83,0-2.43-.39-2.91,3.42-.48,3.81.53.09,1.84,0,2.35.07-.36,1.48-2.19,2.01-3.52,1.8-2.73-.42-3.96-3.36-3.35-5.97s2.35-4.59,5.59-4.05c1.74.32,3.11.49,3.52-1.32.53-1.99-1.63-2.49-3.08-2.81-3.43-.83-7,.65-8.83,3.67-2.15,3.02-2.39,6.99-.61,10.24,1.58,3.09,4.91,4.87,8.35,4.49.29-.01.58-.05.87-.11,3.79-1.17,4.63-2.78,4.52-7.68"></path><path class="cls-1" d="m100.74,309.05v-.09c-.07-2.98,0-9.47-.09-9.62,0-1.33,0-2.87,2.07-2.64s1.48,2.54,1.56,4.08c.13,2.71.08,5.44.07,8.15v.08c-.02,1.03.73,1.91,1.75,2.07.78.09,1.82,0,2.64.11s1.73.52,1.7,1.63c-.01.99-.79,1.81-1.79,1.86-1.33,0-2.65.07-3.97.21-1.32,0-1.5.25-2.64-.29-1.72-.78-1.32-4.31-1.17-5.53"></path><path class="cls-1" d="m208.38,309.56v-.09c0-2.98,0-9.48-.09-9.63,0-1.32,0-2.87,2.08-2.63s1.42,2.48,1.55,4.01c.13,2.73.07,5.45.07,8.16-.05,1.06.73,1.99,1.79,2.13.79.11,1.82,0,2.63.11s1.75.53,1.73,1.64c-.02,1.01-.83,1.83-1.84,1.86-1.32,0-2.64.07-3.96.21-1.32,0-1.5.23-2.7-.31-1.73-.78-1.33-4.3-1.17-5.52"></path><path class="cls-1" d="m184.12,298.74c-.12-2.64-4.58-2.42-4.38-.18.09.88.18,1.66.23,2.35v.63h.85v.53l-.76.39c.14,1.84.17,3.7.08,5.54.01.5-.01,1.01-.08,1.5-.11-.2-1.47-2.47-2.5-3.96l-.34-.49c-.4-.53-.8-1.1-1.17-1.69l-.66.55-.9-.89c.11-.29.36-.8.54-1.17-.31-.43-.6-.87-.9-1.33l-.09-.12c-.68-1.23-1.57-2.32-2.63-3.24-.26-.2-.59-.3-.92-.28-.96,0-1.93,1.08-2,2.89-.09,2.22-.09,4.15,0,6.04v2.7h.32l.33.81c.11-.62.15-.93.2-1.33l.9,1.02v1.17l-.51.56c-.33-.08-.87-.16-1.17-.23v3.04c-.02.36.04.71.16,1.05.26.66.82,1.15,1.5,1.33.5.14,1.02.14,1.52,0h.22c.58-.23.94-.8.9-1.42-.16-2.35-.22-3.86-.22-5.7v-2.81c.16.25.35.49.54.73l.14.2.18.22c.99,1.33,1.17,1.77,2.26,3.27,1.62,2.26,2.64,3.96,5.29,5.12l.19.08c.2.07.4.1.61.09.25-.02.49-.08.72-.18.35-.15.67-.36.94-.62l.12-.13c.27-.27.45-.61.52-.99.46-5,.49-10.04.08-15.05m-2.64,3.52v.4h-.2v-.35l.2-.05Z"></path><path class="cls-1" d="m145.15,297.71h-.2c-.46.17-.83.51-1.02.96v.11c-.87,1.91-1.47,3.42-2.1,4.91l-.08.38c-.51,1.17-1.01,2.35-1.56,3.71-.09.26-.02.55.18.75.12.13.09.4.15.67.26.2.53.38.81.54l-.78.86v-1.4c-.16-.13-.33-.25-.51-.34l-.36.18-.12.29-.09-.21c-1.54-3.37-2.89-6.82-4.04-10.34-.26-.66-.9-1.08-1.61-1.07-.21-.02-.43-.02-.65,0-.41.04-.81.15-1.17.34-.4.19-.73.49-.95.87-.18.33-.21.73-.08,1.08.29.83.59,1.64.89,2.42.16.45.35.9.58,1.33.98,2.26,2.06,4.36,3.17,6.6l.98,1.94c.34.7.69,1.42,1.03,2.16.12.23.3.43.52.58.8.45,1.75.57,2.64.33l.46-.14c.66-.2,1.2-.67,1.5-1.29v-.09l.21-.55c1.32-3.42,2.35-5.82,3.43-8.69v-.14c.02-.13.02-.26,0-.39l-.99-.2c-.09-.92.78-1.69.13-2.64l-.81.39c.04.31.04.63,0,.94,0,.14-.21.26-.31.41-.06.1-.13.2-.21.28l-.11-.11.27-.22c-.04-.32-.04-.64,0-.95,0-.14.21-.26.32-.39v-.88h1.32c.29.66.58,1.33.85,1.94.01-.85.3-1.68.83-2.35l.08-.26v-.08c.43-1.57-1.4-2.64-2.76-2.26m-7.93,11.4c0-.18-.14-.35-.27-.68h1.01c-.09.27-.26.51-.48.68h-.26Zm2.24,2.91v-.18l.55-.13v.34l-.55-.04Zm5.29-7.74v-.11h.4v.11h-.4Z"></path><path class="cls-1" d="m231.57,294.99c-.1.05-.19.12-.27.2l-.22.22c-1.57,2.04-3.11,4.12-4.7,6.2v.08l-.21-.19c-1.79-1.53-3.38-3.28-4.73-5.2-.31-.44-.8-.7-1.34-.72-.61-.04-1.21.13-1.72.47l-.09.07c-.42.28-.72.69-.85,1.17-.04.17-.04.35,0,.53.05.2.14.38.27.54.43.59.89,1.15,1.37,1.69,1.26,1.53,2.67,2.93,4.21,4.18.34.29.7.58,1.08.85l.09,1.9.09,1.8v4.1c0,.38-.18.99.11.43-.19.36-.22.79-.09,1.17.15.44.45.81.83,1.07.76.71,1.95.66,2.65-.09h0l.09-.11.08-.14c.2-.42.33-.87.39-1.33.09-.78.09-1.57,0-2.35,0-.59-.07-1.17-.07-1.73,0-1.46.07-2.64.11-3.96v-.82l.12-.16c1.76-2.43,3.52-4.84,5.42-7.24.07-.09.12-.19.16-.29.83-1.52-1.41-3.16-2.74-2.35m-11.23,3.2l-1.17.58c-.04-.47-.11-.95-.21-1.41h1.32l.07.83Zm5.27,10.31l.46-1.17,1,.51c0,.63-.41.82-1.49.65l.04.02Zm.93-5.43c-.06-.45,0-.91.19-1.33.32-.02.63-.02.95,0-.01.28.01.55.08.82l-1.22.51Z"></path><path class="cls-1" d="m162.57,311.67c-.19-.06-.38-.09-.58-.09h-1.03c-.93-.01-1.67-.76-1.68-1.69v-7.38c-.03-.4.03-.8.16-1.17.18-.38.51-.67.9-.81.11-.35.25-.69.43-1.01v-.86h.74c.27.35.59.74.89,1.1l.48-.41q.13.12.43.18v-.12c.07-.27.1-.55.09-.82,0-.26-.03-.52-.09-.78v-.09c-.19-.62-.77-1.04-1.42-1.02h-4.7s-3.29,0-5.13.12c-.35.01-.69.13-.96.34l-.16.15c-.22.22-.39.5-.47.8v.22c-.01.14-.01.28,0,.42-.02.17-.02.35,0,.52.09.42.39.75.8.88.24.08.49.14.74.16h.29l1.17.13h.18c1.17.14,1.48,1.01,1.53,2.02v7.3c-.07.54-.3,1.04-.67,1.44-.2.23-.48.39-.79.45-.52.06-1.04.09-1.56.08-.42,0-.84.13-1.17.39-.13.09-.24.2-.33.33-.18.24-.31.52-.36.82v.33l1.43-.61.89,1.07v1.07c-.52-.15-1.55-.59-2.1-.79.04.11.09.21.16.31.09.14.21.27.34.38.61.46,1.37.66,2.13.55l1.01-.08c1.03-.08,1.89-.12,2.64-.13h2.83c.18-.06.34-.16.46-.31.21.16.46.27.73.32h1.29c.2-.04.4-.11.58-.22.23-.15.43-.36.58-.6.58-.9.33-2.1-.56-2.69-.11-.07-.23-.13-.35-.18m0-13.97v.27l-.56.13v-.29l.56-.11Z"></path><path class="cls-1" d="m299.27,305.81c-.11-1.45-.47-2.88-1.07-4.21-.16-.33-.33-.65-.52-.95-.27-.42-.58-.81-.92-1.17-.29-.33-.61-.63-.96-.9l-.11-.08c-1.83-1.42-4.09-2.15-6.4-2.07-1.6,0-3.29.65-3.36,2.35v10.14c0,1.4.09,2.81.19,4.26.01.21.06.42.13.62l.08.2c.17.39.48.7.87.87.22.1.45.18.69.21h.14c1.49.14,3,.03,4.45-.33h.13l.61-.19h.22l.23-.09c1.6-.56,3.01-1.55,4.08-2.87l.16-.22c.07-.08.13-.17.19-.26.3-.45.55-.93.74-1.43.19-.51.32-1.03.4-1.56.08-.7.08-1.41,0-2.11m-8.79,5.39c-.11.04-.23.04-.34,0-.23-.09-.37-.31-.38-.55v-.12c-.13-3.14-.16-6.3-.09-9.5.01-.17.09-.34.21-.46.13-.12.3-.18.47-.15.21.02.42.06.62.11h.46c1.42.43,2.61,1.44,3.27,2.77.46.94.72,1.96.75,3.01.19,3.14-2.29,4.46-4.96,4.79v.11Z"></path><path class="cls-1" d="m308.67,296.89h2.93c1.17,0,2.64,0,2.56,1.72s-1.32,1.7-2.64,1.83c-.98.09-1.94.21-2.89.4s-2.15.12-2.19,1.46,1.02,1.5,2.02,1.68l.63.09c1.17.18,2.13.63,2.02,2.03s-1.17,1.42-2.13,1.53-2.63-.18-2.73,1.53,1.52,1.47,2.64,1.82c1.41.48,4.16-.85,3.88,2-.23,2.35-2.64,1.66-4.3,1.67-6.51.08-6.61,0-6.44-6.38,0-2.35.26-4.7.41-7.12.26-4.22.38-4.33,4.57-4.32h1.62"></path><path class="cls-1" d="m264.48,311.09c-1.1-3.92-2.24-7.8-3.41-11.67-.24-1.35-1.41-2.34-2.78-2.35-1.15-.13-2.27.48-2.77,1.53l-.11.21c-.26.67-.57,1.33-.93,1.95.23.12.48.31.62.35,0,.67-.14,1.33.82,1.17.46-.29.46,0,.46.49l-.88.8c-.13-.83.7-1.32.46-1.32-.65.76-.82.87-1.01.98-.45-.69-1.52-.74-1.82-1.64-.11-.06-.2-.13-.29-.21l.11-.11.25.28h.88c-.14-.15-.26-.32-.38-.49-.28-.16-.51-.41-.66-.7-.16.16-.29.35-.4.55l-1.64-.09c.14-.18.31-.34.49-.48.4-.2.81-.38,1.17-.58-.05-.09-.09-.19-.13-.28-.11-.22-.21-.48-.33-.78-.65-1.34-2.18-2.02-3.61-1.59-.73.08-1.37.52-1.72,1.17l-.16.36c-.15.43-.26.87-.33,1.32.01.19-.02.39-.11.56-.26,1.43-.52,2.85-.76,4.29l1.32.23-1.17.89.82.92-.56,1.06c-.3.02-.61.02-.92,0-.02.28-.07.56-.15.83.33.46,1.17.56,1.67.66-.5.47-1.2.67-1.88.53-.03.35-.09.7-.18,1.05-.08.36-.13.72-.16,1.08-.17.74.19,1.49.87,1.82.2.08.4.14.61.18.45.1.91.03,1.32-.18.19-.09.36-.22.51-.38.41-.5.71-1.09.86-1.72.23-1.02.49-2.2.78-3.42.16-.73.33-1.48.51-2.22.11-.45.2-.89.31-1.32.03-.25.09-.5.16-.74l.12.25c.45.99,1.13,1.85,1.99,2.51.28.2.6.35.93.45,1.44.42,2.96-.53,4.15-2.83l.43-.94v.16c.72,2.47,1.48,5.09,2.16,7.35.13.43.27.86.39,1.33.08.29.2.57.34.83.38.86,1.39,1.25,2.25.87,0,0,.01,0,.02,0h.08l.23-.11c.32-.12.6-.31.82-.56.48-.65.59-1.49.31-2.24m-17.45-5.11v-.34h.12v.34h-.12Zm.67.35h.72v1.17l-.72-1.17Z"></path><path class="cls-1" d="m283.1,311.81c-1.33-3.12-2.64-6.26-4.05-9.4l-.42-.93c-.49-1.07-1.01-2.12-1.55-3.17-.74-1.44-2.51-2.01-3.95-1.27,0,0,0,0,0,0h0c-.34.17-.64.41-.89.7l-.08.11-.13.18v.08l-.14.32c-1.79,4.44-3.25,9.01-4.52,12.59-.08.43-.13.83-.16,1.17-.02.26-.02.52,0,.78-.01.37.11.73.33,1.02.14.17.32.3.53.39.67.34,1.48.27,2.08-.18.24-.16.46-.34.66-.54.34-.36.65-.76.92-1.17.31-.67.8-1.23,1.41-1.64l.31-.14.45-.15c.31-.06.63-.1.95-.12.31-.02.63-.02.94,0,.63.02,1.23.27,1.69.69.33.36.61.75.86,1.17.29.44.62.85.98,1.25.29.32.64.58,1.03.78.49.22,1.06.22,1.55,0h.13l.34-.2c.23-.15.42-.33.59-.54.38-.53.43-1.23.14-1.81m-7.21-10.24h.33v.11l-.33-.11Zm.66,5.97c-1.04.15-2.09.23-3.15.22-.28,0-.55-.13-.73-.34-.07-.17-.07-.37,0-.54.19-1.08.44-2.15.74-3.21l.12-.38.08-.2c.1-.29.3-.54.56-.7.33-.16.72-.16,1.05,0,.5.31.85.83.95,1.41.28.92.41,1.53.69,2.46.12.26.19.55.21.83,0,0,0,.36-.53.45h0Z"></path><path class="cls-1" d="m370.26,304.27c-.02-.47-.08-.94-.18-1.4-.1-.56-.23-1.12-.41-1.66-.03-.09-.06-.18-.09-.27l-.16-.38-.06-.15c-.43-.99-1.11-1.85-1.96-2.5-1.6-1.08-3.5-1.61-5.43-1.5-4.7,0-8.38,4.24-8.34,9.61,0,4.35,2.16,7.54,5.58,8.7l.63.18c.8.2,1.63.3,2.46.29.9,0,1.79-.13,2.64-.39,2.44-.78,4.3-2.78,4.9-5.27.16-.58.28-1.17.36-1.76.06-.61.08-1.23.06-1.84v-1.66m-8.42,6.91c-1.28.07-2.5-.55-3.18-1.63-.6-1.11-.86-2.37-.74-3.62.12-2.21.74-4.5,2.93-5.17l.33-.09c.71-.15,1.45-.15,2.16,0,2.43.52,2.71,2.89,2.88,5.29-.2,2.75-1.03,5.29-4.39,5.23h.02Z"></path><path class="cls-1" d="m386.12,303.69c-2.21,5.27-5.79,5.47-8.13.6-.65,2.78-1.32,5.87-1.88,8.22-.35,1.47-1.01,2.75-2.8,2.46-1.99-.33-1.69-1.87-1.44-3.29.7-3.96,1.4-7.79,2.09-11.68.27-1.41.6-2.8,2.35-3.08,1.55-.44,3.19.33,3.83,1.81,1.64,3.96,2.2,2.73,3.35,0,.47-1.25,1.74-2.01,3.07-1.84,1.46.02,2.69,1.07,2.95,2.5,1.23,4.12,2.44,8.25,3.62,12.41.52,1.11.04,2.43-1.07,2.95h0c-.11.05-.23.1-.35.13-1.62.55-2.35-.42-2.83-1.79-.83-2.73-1.84-6.18-2.77-9.4"></path><path class="cls-1" d="m351.83,311.94c-.03-.22-.09-.43-.16-.63v-.14c-.49-1.1-1.06-2.16-1.66-3.22l-.09-.15c-.31-.49-.46-1.07-.43-1.64.04-.35.14-.68.31-.99l.09-.19c.97-1.46,1.44-3.21,1.32-4.96h0c-.13-.8-.55-1.52-1.17-2.03-1.5-.97-3.28-1.43-5.06-1.32-1.66,0-3.97-.73-4.55,1.52-.91,4.23-1.42,8.53-1.5,12.85.01.44-.01.89-.07,1.33v.47c-.02.81.53,1.52,1.32,1.7.11.01.22.01.33,0,.89.12,1.73-.45,1.95-1.32.02-.14.06-.27.11-.4.27-1.32.49-2.64.81-4.49,0-.33.12-.67.19-1.05.32.31.6.61.87.92,1.23,1.45,2.27,3.06,3.08,4.78.24.52.65.94,1.17,1.17.53.17,1.1.12,1.6-.14l.22-.11c.14-.06.27-.13.39-.22.22-.15.41-.34.55-.56.25-.36.37-.8.32-1.23m-11.49-3.3v.35h-.11v-.35h.11Zm.46-6.75l.16-.26.33.35c.06.08.11.16.13.26l-.51.08c-.08-.12-.14-.26-.18-.4l.06-.04Zm.47,5.87l.22.26c-.13,0-.25-.06-.34-.15l.12-.11Zm.38.6l-.22-.27c.13.01.24.07.33.16l-.11.11Zm2.16-6.84c.02-.4.17-.78.42-1.08.13-.19.29-.35.48-.48.2-.12.41-.21.63-.26.39-.09.79-.09,1.17,0,.35.1.69.24,1.01.43l.14.08c.13.08.25.16.36.26.15.1.27.22.35.38.09.21.12.44.08.67-.09.7-.53,1.31-1.17,1.6-1.09.31-2.27.02-3.1-.75-.2-.21-.33-.48-.38-.78v-.07Z"></path><path class="cls-1" d="m337.61,297.71l-.08-.26c-.13-.26-.33-.48-.56-.65l-.21-.14c-.27-.14-.57-.22-.87-.23l-2.35-.09-1.99-.11h-.49c-1.32,0-1.53-.26-2.76.28-1.52.68-1.39,3.52-1.32,5.03v1.28c0,3.24,0,8.99-.15,9.13,0,.94,0,2,.74,2.49.2.13.42.21.66.25.23.02.46.02.69,0h.15c.22-.02.44-.1.63-.21.36-.21.62-.56.72-.98.14-.67.19-1.35.14-2.03v-1.75c0-1.47,1.33-1.33,2.41-1.41h.27l.72-.13c.3-.07.57-.21.8-.41.24-.24.37-.57.39-.9v-.12c.01-.11.01-.22,0-.33-.14-.84-.87-1.46-1.73-1.44-.39-.08-.81-.09-1.17-.2-.37-.06-.73-.18-1.06-.36h-.07c-.25-.2-.4-.5-.42-.82-.04-.39-.04-.78,0-1.17v-.33c.04-.29.12-.58.23-.85.26-.54.75-.93,1.33-1.06h.23c.72-.07,2.35,0,3.24,0h.27c.27-.03.54-.09.8-.2.2-.07.38-.18.53-.33.12-.11.21-.24.27-.39.09-.23.14-.47.14-.72-.01-.23-.06-.45-.14-.66m-8.67,11.22l-.56.14c.01-.1.01-.2,0-.29h.56v.15Z"></path><path class="cls-1" d="m430.73,312.54c-.01.3-.08.6-.21.87-.08.14-.18.27-.28.4-.25.27-.57.46-.93.55-.14.01-.27.01-.41,0l-2.54.11c-.47-.01-.94.02-1.4.09-.67.11-1.36.11-2.03,0l-.36-.35c.45-.49.82,0,1.32.07v-.8c-.22-.22-.49-.19-1.32.23l-.47-.34c-.15.12-.31.23-.47.34-.18-.29-.32-.6-.4-.93-.23-1.31-.28-2.64-.14-3.96v-.11c-.07-2.97,0-9.47-.09-9.63,0-1.32,0-2.84,2.07-2.63.69,0,1.29.5,1.43,1.17.07.27.11.54.13.81v2.06c.13,2.64.08,5.42.08,8.09v.14c0,.47.15.93.41,1.32v.09c.21.26.49.47.8.6.16.06.33.1.51.12.78.11,1.82,0,2.64.11.18.01.35.05.52.11.13.04.26.08.39.14.44.2.74.61.79,1.09.01.09.01.19,0,.28"></path><path class="cls-1" d="m496.44,304.6c-.1-.09-.2-.18-.32-.25-.54-.41-1.32-.73-1.95-1.17-.83-.42-1.19-1.42-.8-2.27.2-.7.93-1.11,1.63-.92h.14c.6.16,1.32.51,1.84.6h.42c.94-.03,1.75-.7,1.95-1.62l.08-.22c.08-.32.08-.65,0-.96-.13-.36-.35-.68-.65-.92-.11-.1-.23-.18-.35-.25-1.19-.73-2.56-1.14-3.96-1.17-2.95.23-5.19,1.5-6.18,4.36s.31,4.7,2.35,6.38l.7.51c.45.27.89.55,1.32.86s.81.54,1.17.85c.11-.15.23-.29.36-.42l.48.48-.15.83c.13.41.11.85-.07,1.25-.1.25-.25.48-.43.68-.51.43-1.22.51-1.81.2l-.56-.22-.45-.2c-1.15-.6-2.57-.15-3.17,1h0s0,.07,0,.1c-.05.09-.09.19-.13.29-.47.74-.28,1.71.42,2.23.46.33.96.6,1.49.81.26.12.53.21.8.31.32.1.64.17.96.23.96.18,1.94.18,2.9,0h.29l.27-.08c1.65-.39,3.07-1.41,3.97-2.84-.33-.34-.68-.54-1.1-.22l-.22.61-.69-.78c.55-.36,1.09-.51,1.32-1.17.33-.48.91-.72,1.48-.61.02-.12.02-.25,0-.38,0-1.96-1.08-3.96-3.3-5.71m-2.15,1.63v.32h-.12v-.32h.12Zm1.08,6.68l-1.1-.93.55-.69c.09,0,.2,0,.23.11l1.05,1.52h-.73Zm.76-4.95l.07.21-.12.32v-.29h-.11c-.23.29-.36.31-.52.32v-.21l.54-.11.19-.26v-.2l.39-.36c-.16.19-.31.38-.45.59h0Z"></path><path class="cls-1" d="m468.51,298.27c-.11-2.64-4.58-2.42-4.36-.18.46,3.63.57,7.29.33,10.94-.12-.22-1.83-3.05-2.83-4.43s-2.16-3.22-3.22-4.53c-.68-1.23-1.57-2.33-2.63-3.25-1.17-.83-2.83.2-2.93,2.64-.21,5.05.08,8.62,0,13.67-.08,3.3,4.5,3.15,4.36.89-.21-2.81-.27-5.64-.19-8.46.25.31.47.62.69.94,1.17,1.55,1.32,1.93,2.43,3.52,1.66,2.35,2.64,4.05,5.47,5.19,1.31.21,2.56-.63,2.85-1.93.43-4.99.43-10.01,0-15"></path><path class="cls-1" d="m417.35,301.24c-.01-.39-.06-.79-.13-1.17-.13-1.31-.67-2.55-1.55-3.52-.27-.28-.59-.52-.93-.72-2.27-1.32-6.1-.88-8.53-.18h-.11c-.81.15-1.36.92-1.25,1.74.11,3.15.25,6.28.47,9.4v.6c.49-.01.98.02,1.46.11l-1.32,1.09v.2l.92,1.46c-.18.29-.44.53-.75.67,0,.74.15,1.47.21,2.2.02.46.07.93.15,1.39.03.34.16.66.39.92.13.13.27.24.42.34.56.3,1.21.4,1.83.28.67-.08,1.22-.54,1.43-1.17-.43-.18-1.01-.27-.98-1.08l.96.2c-.07-.72-.15-1.53-.25-2.35,0-.31-.07-.61-.09-.9-.02-.52-.07-1.04-.15-1.55.26.11.53.19.81.23.72.07,1.45.02,2.15-.14.63-.09,1.24-.32,1.79-.66,1.6-.95,2.66-2.59,2.85-4.44,0-.35.09-.72.12-1.17-.01-.09-.01-.18,0-.27v-1.48m-3.9,3.1c-.22.66-.75.7-2.24.96-.17.02-.34.02-.51,0-.2-.04-.39-.12-.55-.25-.23-.16-.41-.39-.52-.65v-.35c-.14-1.1-.2-2.21-.18-3.31.03-.77.48-1.47,1.17-1.82.36-.19.77-.27,1.17-.22.31.03.62.14.88.32.51.47.81,1.12.85,1.81.22,1.16.22,2.36,0,3.52h-.08Zm1.42-3.12v-.16h.67v.18h-.67Zm1.17,2.56l-1.43-1.39h1.17l.2.56c.87-.25.4-1.09.73-1.79l.6,1.17-1.27,1.43Z"></path><path class="cls-1" d="m486.22,299.03c0,1.64-1.12,1.63-2.28,1.76l-.82.07c-1.33.09-1.83.85-1.88,2.1v.09c0,3.08,0,9.75.09,9.91,0,1.33,0,2.98-2.14,2.76-2.46-.25-1.82-2.71-1.9-4.3-.13-2.81-.08-5.6-.07-8.41v-.07c0-1.03-.33-1.9-1.55-2.07-.8-.11-1.33-.09-2.19-.2s-1.79-.52-1.75-1.67c0-1.04.84-1.9,1.88-1.91,1.89,0,5.7-.09,5.7-.14h4.09s2.8.14,2.83,2.04"></path><path class="cls-1" d="m449.04,312.09c-.01-.13-.05-.25-.11-.36v-.11c-1.44-3.35-2.81-6.72-4.36-10.02l-.34-.62c-.42-.9-.87-1.82-1.33-2.71-.32-.6-.85-1.07-1.48-1.33-.35-.14-.73-.22-1.1-.22-1.15-.03-2.21.66-2.64,1.73-1.79,4.44-3.27,9.01-4.51,12.58-.34,1.95-.4,2.9.62,3.38.25.12.52.19.8.21.7-.01,1.36-.31,1.84-.81l.12-.12.16-.16.19-.2c.96-1.1,1.08-2.03,2.16-2.49l.2-.08c.46-.15.93-.23,1.41-.25h.35c.69-.06,1.39.1,1.99.46.12.08.23.18.33.28.59.58.93,1.42,1.79,2.35.26.27.55.51.87.7.11.06.22.11.34.14.38.13.79.13,1.17,0l.33-.13c.22-.1.43-.23.62-.39l.27-.28c.34-.41.46-.96.32-1.48m-6.78-4.7c-.61.08-1.17.16-1.97.2h-1.4c-.1-.03-.2-.07-.29-.12-.09-.05-.17-.12-.22-.2-.07-.1-.1-.23-.08-.35v-.19c.19-1.07.44-2.14.74-3.18.08-.45.31-.86.65-1.17.34-.25.8-.29,1.17-.08l.16.08c.13.07.24.17.33.28l.09.14c.16.28.3.59.39.9.28.93.4,1.54.7,2.44.11.27.18.56.21.85,0,0,.15.35-.47.43v-.04Z"></path><path class="cls-1" d="m94.56,307.61c-.77-3.51-3.99-5.93-7.58-5.67-4.53.42-8.85,4.85-12.17,7.52-.8.65-.25,1.84.56,2.13,4.76,1.88,10.17,1.08,14.17-2.11,1.33-1.05-.54-2.83-1.81-1.8-2.58,2.13-5.95,3.04-9.25,2.5,4.25-3.63,11.59-9.55,13.6-1.84.35.63,1.15.85,1.78.49,0,0,.01,0,.02-.01.42-.24.67-.69.66-1.17"></path><path class="cls-1" d="m526,310.74c-.03.3-.15.59-.35.82-.15.2-.36.35-.6.43-3.13,1.13-6.59.98-9.61-.42-1.46-.67-2.83-1.53-4.06-2.56-1.33-1.03.54-2.83,1.8-1.8l.4.32c2.3,2,5.34,2.92,8.36,2.55-2.35-2-5.59-4.7-8.41-5.42-1.66-.66-3.55.02-4.41,1.6-.08-.08-.16-.17-.23-.27l-.11.11c.07.07.15.14,0,.9-.09.23-.19.49-.28.76-.05.15-.1.3-.13.46-.38.62-1.19.83-1.82.47-.41-.25-.66-.7-.65-1.17.81-3.49,4.02-5.88,7.6-5.66,2.05.19,4.01.95,5.64,2.21l.28.19c.59.43,1.16.9,1.7,1.39.53.48,1.32,1.17,1.9,1.79l.12.11.96.92c.48.46.98.89,1.47,1.32.27.2.41.53.38.87"></path></g></svg> 