<?xml version="1.0" encoding="UTF-8"?> <svg xmlns="http://www.w3.org/2000/svg" id="Layer_1" width="600" height="400" viewBox="0 0 600 400"><defs><style>.cls-1{fill:#3a357e;}</style></defs><g><path class="cls-1" d="m40.07,138.87h10.89c4.45,0,7.68-.62,7.68-4.35s-3.24-4.34-7.68-4.34h-10.89v8.69Zm-3.07-11.42h14.64c4.04,0,9.97.88,9.97,7.1.04,5.31-4.79,6.92-7.96,6.92l8.38,11.33h-3.81l-8.16-11.2h-9.99v11.25h-3.07v-25.4Z"></path><polygon class="cls-1" points="66.11 127.45 66.11 152.85 89.14 152.85 89.14 150.12 69.18 150.12 69.18 141.01 85.52 141.01 85.52 138.29 69.18 138.29 69.18 130.18 88.72 130.18 88.72 127.45 66.11 127.45"></polygon><polygon class="cls-1" points="91.94 127.45 91.94 152.85 95.02 152.85 95.02 140.94 111.98 140.94 111.98 138.21 95.02 138.21 95.02 130.18 115.12 130.18 115.12 127.45 91.94 127.45"></polygon><path class="cls-1" d="m120.85,138.87h10.98c4.43,0,7.74-.62,7.74-4.35s-3.33-4.34-7.74-4.34h-10.98v8.69Zm-3.02-11.42h14.64c4.04,0,9.99.88,9.99,7.1,0,5.31-4.92,6.84-8.01,6.97l8.36,11.33h-3.66l-8.25-11.25h-10.05v11.25h-3.02v-25.4Z"></path><rect class="cls-1" x="147.02" y="127.45" width="3.07" height="25.38"></rect><path class="cls-1" d="m181.4,140.52v12.53h-2.71v-3.66c-1.72,1.98-4.48,4.12-10.21,4.12-9.84,0-14.49-5.91-14.49-13.27,0-8.76,5.91-13.41,14.44-13.41,6.06,0,10.69,2.73,12.57,6.99l-2.58,1.35c-1.88-3.74-5.81-6.01-9.99-5.76-7.14,0-11.22,3.95-11.22,11.18,0,5.82,3.95,10.16,11.49,10.16,4.61,0,9.57-2.23,9.99-7.5h-10.37v-2.73h13.08Z"></path><polygon class="cls-1" points="186.01 127.45 186.01 152.85 209.04 152.85 209.04 150.12 189.08 150.12 189.08 141.01 205.42 141.01 205.42 138.29 189.08 138.29 189.08 130.18 208.64 130.18 208.64 127.45 186.01 127.45"></polygon><path class="cls-1" d="m214.92,138.87h10.98c4.45,0,7.76-.62,7.76-4.35s-3.31-4.34-7.76-4.34h-10.98v8.69Zm-3.07-11.42h14.64c4.06,0,9.99.88,9.99,7.1,0,5.31-4.92,6.84-8,6.97l8.38,11.33h-3.81l-8.18-11.25h-9.95v11.25h-3.07v-25.4Z"></path><path class="cls-1" d="m254.2,129.87l6.81,13.65h-13.61l6.81-13.65Zm-1.83-2.4l-13.06,25.38h3.42l3.31-6.61h16.47l3.29,6.61h3.26l-12.97-25.38h-3.71Z"></path><polygon class="cls-1" points="264.67 127.45 264.67 130.18 276.93 130.18 276.93 152.85 280 152.85 280 130.18 292.26 130.18 292.26 127.45 264.67 127.45"></polygon><polygon class="cls-1" points="295.01 127.45 295.01 152.85 318.04 152.85 318.04 150.12 298.08 150.12 298.08 141.01 314.42 141.01 314.42 138.29 298.08 138.29 298.08 130.18 317.62 130.18 317.62 127.45 295.01 127.45"></polygon><g><path class="cls-1" d="m323.95,150.12h8.97c2.51,0,10.98-.31,10.98-10.3,0-7.45-5.27-9.64-10.43-9.64h-9.51v19.94Zm-3.11-22.67h12.53c7.89,0,13.58,4.15,13.58,12.48,0,10.32-7.85,12.92-14.64,12.92h-11.47v-25.4Z"></path><path class="cls-1" d="m366.48,132.41c.19,1.73,1.04,3.33,2.38,4.45,2.27-.71,4.96-1.54,4.96-4.65,0-2.38-2.34-2.96-3.66-2.96-1.77-.23-3.4,1.02-3.63,2.79-.02.12-.03.25-.03.38m1.12,18.48c3.11-.06,6.14-.95,8.8-2.56-3.13-2.6-6.07-5.42-8.8-8.44-2.93.9-7.15,2.2-7.15,5.96,0,4.39,4.65,5.03,7.15,5.03m19.21-10.61c-1.3,2.98-3.21,5.65-5.6,7.85,2.04,1.47,4.46,2.34,6.97,2.49v2.84c-3.4-.05-6.69-1.24-9.35-3.37-3.44,2.3-7.5,3.48-11.64,3.39-6.17,0-9.66-2.76-9.66-7.68s4.19-7.08,8.27-8.2c-1.36-1.5-2.13-3.46-2.14-5.49,0-2.65,1.96-5.34,6.26-5.34,3.84,0,6.73,1.83,6.73,5.58-.1,3.31-2.52,6.09-5.78,6.64,2.49,2.73,5.19,5.25,8.09,7.54,2.38-2,4.23-4.57,5.36-7.47l2.49,1.23Z"></path></g><polygon class="cls-1" points="399.58 127.45 399.58 152.85 402.65 152.85 402.65 140.94 419.63 140.94 419.63 138.21 402.65 138.21 402.65 130.18 422.76 130.18 422.76 127.45 399.58 127.45"></polygon><g><path class="cls-1" d="m428.56,138.87h10.98c4.43,0,7.76-.62,7.76-4.35s-3.33-4.34-7.76-4.34h-10.98v8.69Zm-3.07-11.42h14.64c4.06,0,9.99.88,9.99,7.1,0,5.31-4.92,6.84-8,6.97l8.38,11.33h-3.81l-8.18-11.25h-9.97v11.25h-3.07l.02-25.4Z"></path><path class="cls-1" d="m467.77,150.75c6.18,0,11.75-3.28,11.75-10.98,0-5.65-4.37-10.34-11.75-10.34s-11.73,4.72-11.73,10.32c0,7.72,5.49,10.98,11.73,10.98m0-23.9c8.64,0,14.88,5.03,14.88,13.49,0,9-7.54,13.16-14.88,13.16s-14.86-4.15-14.86-13.16c0-8.45,6.24-13.49,14.86-13.49"></path></g><polygon class="cls-1" points="483.29 127.45 483.29 130.18 502.75 130.18 482.22 151.02 482.22 152.85 508.13 152.85 508.13 150.12 487.33 150.12 507.71 129.37 507.71 127.45 483.29 127.45"></polygon><polygon class="cls-1" points="510.84 127.45 510.84 152.85 533.88 152.85 533.88 150.12 513.92 150.12 513.92 141.01 530.26 141.01 530.26 138.29 513.92 138.29 513.92 130.18 533.46 130.18 533.46 127.45 510.84 127.45"></polygon><polygon class="cls-1" points="559.92 127.45 559.92 148.33 541.03 127.45 536.66 127.45 536.66 152.85 539.61 152.85 539.61 130.18 559.92 152.85 562.99 152.85 562.99 127.45 559.92 127.45"></polygon></g><g><polygon class="cls-1" points="36.68 161.89 36.68 271.78 59.21 271.78 59.21 225.8 113.59 225.8 113.59 208.82 59.21 208.82 59.21 179.18 116.13 179.18 116.13 161.89 36.68 161.89"></polygon><g><path class="cls-1" d="m178.45,255.92c5.41.22,10.79-.99,15.59-3.49,3.89-2.14,7.17-5.25,9.51-9.02,2.35-3.87,3.94-8.16,4.68-12.63.84-4.68,1.26-9.43,1.26-14.18.02-4.91-.42-9.81-1.34-14.64-.79-4.4-2.44-8.6-4.85-12.37-2.38-3.65-5.65-6.63-9.51-8.65-4.73-2.32-9.96-3.43-15.22-3.24h-2.2c-5.24-.2-10.45.92-15.15,3.24-3.79,2.06-6.98,5.06-9.28,8.71-2.35,3.79-3.97,7.98-4.76,12.37-.91,4.83-1.36,9.73-1.34,14.64,0,4.75.39,9.5,1.19,14.18.7,4.47,2.26,8.75,4.59,12.63,2.31,3.74,5.53,6.84,9.35,9.02,4.75,2.52,10.09,3.73,15.46,3.49l1.99-.05Zm-.88-95.62c10.77,0,19.68,1.56,26.71,4.68,6.49,2.72,12.19,7.03,16.58,12.53,4.05,5.33,6.92,11.46,8.4,17.99,1.61,6.92,2.4,14,2.38,21.1.03,7.24-.85,14.46-2.62,21.48-1.62,6.57-4.65,12.72-8.87,18-4.49,5.41-10.19,9.67-16.65,12.44-8.22,3.37-17.05,4.97-25.93,4.68-8.77.27-17.51-1.33-25.62-4.68-6.43-2.78-12.11-7.04-16.58-12.44-4.29-5.27-7.37-11.42-9.04-18-1.78-7.02-2.66-14.24-2.62-21.48-.03-7.1.77-14.18,2.38-21.1,1.47-6.53,4.34-12.66,8.4-17.99,4.36-5.48,10.02-9.79,16.47-12.53,6.89-3.11,15.76-4.67,26.6-4.68"></path><path class="cls-1" d="m293.58,255.92c5.42.22,10.8-.98,15.61-3.49,3.89-2.15,7.16-5.25,9.51-9.02,2.34-3.88,3.93-8.16,4.68-12.63.84-4.68,1.26-9.43,1.26-14.18.02-4.91-.44-9.81-1.35-14.64-.8-4.38-2.44-8.56-4.83-12.31-2.38-3.65-5.65-6.63-9.51-8.65-4.73-2.32-9.96-3.43-15.22-3.24h-2.21c-5.23-.2-10.44.92-15.13,3.24-3.81,2.03-7.03,5.01-9.35,8.65-2.36,3.78-3.97,7.98-4.76,12.37-.92,4.82-1.37,9.73-1.35,14.64,0,4.75.4,9.49,1.19,14.18.71,4.47,2.27,8.75,4.61,12.63,2.31,3.74,5.53,6.84,9.35,9.02,4.75,2.53,10.09,3.73,15.46,3.49l2.05-.05Zm-.95-95.62c10.78,0,19.69,1.56,26.71,4.68,6.49,2.72,12.19,7.03,16.58,12.53,4.05,5.33,6.92,11.46,8.4,17.99,1.61,6.92,2.4,14,2.38,21.1.03,7.24-.85,14.46-2.62,21.48-1.62,6.58-4.66,12.72-8.89,18-4.48,5.42-10.19,9.68-16.65,12.44-6.92,3.12-15.55,4.68-25.91,4.68-8.77.27-17.51-1.33-25.62-4.68-6.43-2.78-12.11-7.04-16.58-12.44-4.23-5.29-7.26-11.43-8.89-18-1.76-7.02-2.63-14.24-2.6-21.48-.03-7.1.77-14.18,2.38-21.1,1.47-6.53,4.33-12.67,8.4-17.99,4.35-5.49,10.01-9.8,16.47-12.53,6.92-3.11,15.77-4.67,26.57-4.68"></path><path class="cls-1" d="m379.19,179.18v75.31h18.88c5.63.17,11.25-.72,16.56-2.62,4.09-1.52,7.7-4.09,10.48-7.45,2.69-3.47,4.53-7.51,5.38-11.82,1.05-5.17,1.56-10.43,1.5-15.7,0-12.78-2.8-22.27-8.4-28.47-5.6-6.2-14.48-9.28-26.64-9.26h-17.77Zm-21.96-17.29h39.72c19.68,0,34.13,4.62,43.36,13.87,9.23,9.25,13.86,22.96,13.89,41.15.08,7.52-.86,15.02-2.78,22.29-1.7,6.43-4.87,12.38-9.28,17.36-4.74,5.13-10.68,9-17.29,11.25-8.63,2.87-17.7,4.22-26.79,3.97h-40.91l.07-109.89Z"></path><path class="cls-1" d="m538.89,192.34c0-2.22-.7-4.38-1.99-6.18-1.43-2.01-3.23-3.73-5.31-5.07-2.39-1.56-5.02-2.74-7.78-3.49-3.04-.85-6.19-1.28-9.35-1.26-7.5,0-13.5,1.32-18,3.95-4.5,2.63-6.75,5.96-6.73,9.99-.06,2.62,1.11,5.12,3.17,6.75,2.49,1.94,5.31,3.41,8.33,4.35,3.85,1.28,7.77,2.31,11.75,3.09,4.37.9,8.87,1.83,13.47,2.93,4.59,1.1,9.15,2.34,13.56,3.81,4.23,1.37,8.22,3.41,11.82,6.04,3.4,2.5,6.24,5.68,8.33,9.35,2.24,4.21,3.33,8.93,3.17,13.69.12,5.15-1.23,10.22-3.88,14.64-2.63,4.19-6.19,7.71-10.41,10.28-4.7,2.86-9.84,4.89-15.22,6.02-6.03,1.35-12.19,2.02-18.37,1.99-6.86.06-13.71-.55-20.46-1.83-5.8-1.04-11.37-3.09-16.47-6.04-4.44-2.59-8.17-6.24-10.87-10.61-2.75-4.77-4.12-10.2-3.95-15.7h23.46c.41,2.7,1.47,5.25,3.09,7.45,1.7,2.27,3.84,4.19,6.28,5.64,2.68,1.6,5.6,2.77,8.64,3.48,3.35.82,6.78,1.23,10.23,1.21,2.86-.03,5.71-.38,8.49-1.04,2.9-.64,5.69-1.65,8.33-3.02,2.44-1.26,4.59-3.01,6.31-5.14,1.6-1.91,2.47-4.32,2.45-6.81.12-3.04-1.02-6-3.17-8.16-2.37-2.22-5.18-3.92-8.25-5-3.78-1.36-7.67-2.4-11.62-3.11-4.39-.84-8.86-1.74-13.39-2.69-4.54-.95-9.02-2.09-13.39-3.4-4.15-1.22-8.08-3.07-11.66-5.49-3.36-2.3-6.18-5.31-8.25-8.82-2.26-4.09-3.35-8.72-3.17-13.39-.09-4.62,1.11-9.18,3.48-13.16,2.4-3.89,5.69-7.15,9.61-9.51,4.46-2.7,9.33-4.65,14.42-5.78,5.9-1.37,11.95-2.04,18-1.99,7.02-.1,14.01.7,20.82,2.4,5.24,1.31,10.21,3.57,14.64,6.66,7.5,5.23,11.91,13.85,11.75,23h-21.87Z"></path></g></g></svg> 