<?xml version="1.0" encoding="UTF-8"?> <svg xmlns="http://www.w3.org/2000/svg" id="Layer_1" width="600" height="400" viewBox="0 0 600 400"><defs><style>.cls-1{fill:#3c3382;}</style></defs><path class="cls-1" d="m500,251.93c-.86.66-1.57,1.24-2.31,1.8-4.2,3.16-8.4,6.35-12.64,9.47-.47.35-1.27.5-1.87.4-7.46-1.22-14.91-2.54-22.38-3.74-4.17-.68-8.37-1.21-12.56-1.75-3.53-.46-7.08-.81-10.6-1.23-5.07-.62-10.12-1.4-15.19-1.85-12.41-1.09-24.82-2.16-37.26-2.98-9.73-.64-19.5-.97-29.25-1.28-7.9-.25-15.79-.34-23.69-.39-6.04-.04-12.07.1-18.11.19-3.43.05-6.87.14-10.3.25-4.33.13-8.67.29-12.99.48-4.47.21-8.92.46-13.38.74-3.37.21-6.74.43-10.11.72-4.03.35-8.05.81-12.09,1.2-3.55.34-7.11.59-10.65,1-4.2.48-8.39,1.11-12.59,1.67-4.24.57-8.49,1.09-12.71,1.71-3.47.52-6.93,1.12-10.38,1.74-3.37.6-6.73,1.28-10.08,1.9-5.72,1.05-11.46,2.05-17.18,3.14-7.08,1.34-14.1,2.9-21.2,4.07-5.94.98-11.94,1.93-17.94,2.19-8.95.37-17.07-2.41-24.1-8.05-8.62-6.92-13.51-16.15-16.23-26.68-2.16-8.39-2.5-16.93-2.02-25.55,1.38-24.4,8.43-47.11,20.34-68.36,5.75-10.25,12.65-19.67,20.83-28.13,9.2-9.54,19.6-17.39,31.71-22.89,8.2-3.73,16.77-6.15,25.74-6.94,6.87-.62,13.74-.72,20.51,1.11,5.65,1.53,10.38,4.55,14.15,8.92,3.48,4.03,5.05,8.98,5.72,14.19,1.49,11.3-3.86,19.38-12.47,25.8-3.2,2.39-6.69,4.33-10.69,4.97-9.45,1.52-17.43-1.13-23.57-8.72-.07-.1-.11-.22-.1-.18,1.7.5,3.47,1.22,5.29,1.51,6.7,1.06,13.34-3.51,14.68-10.17,1.1-5.41-.51-10.06-4.55-13.85-.76-.71-1.55-.85-2.54-.75-6.44.64-12.32,2.9-17.89,6.04-8.55,4.81-15.93,11.08-22.71,18.12-10.99,11.4-19.93,24.24-27.25,38.24-6.77,12.96-11.82,26.54-14.48,40.94-1.3,7.06-1.91,14.21-1.47,21.39.42,6.92,2.19,13.43,6.21,19.26,1.68,2.43,3.86,3.45,6.63,3.86,5.36.8,10.69.34,15.95-.66,12.27-2.33,24.5-4.88,36.76-7.24,8.37-1.62,16.77-3.1,25.16-4.59,4.32-.76,8.67-1.44,13.02-2.06,2.89-.41,5.81-.65,8.71-.99,3.25-.39,6.5-.85,9.76-1.2,2.87-.3,5.76-.5,8.64-.75,3.39-.31,6.79-.66,10.18-.95,1.45-.13,2.9-.17,4.35-.25,4.46-.25,8.91-.52,13.38-.76,3.45-.18,6.92-.36,10.37-.47,5.72-.19,11.46-.39,17.19-.48,7.79-.13,15.58-.22,23.35-.22,5.95,0,11.92.05,17.87.25,10.93.39,21.85.78,32.77,1.39,10.59.58,21.18,1.35,31.75,2.17,5.96.46,11.9,1.2,17.86,1.8,3.96.4,7.94.71,11.89,1.2,3.72.46,7.41,1.09,11.13,1.63,2.4.35,4.84.59,7.22,1.05,12.42,2.38,24.84,4.82,37.25,7.24.33.05.65.21,1.16.37Z"></path><path class="cls-1" d="m439.62,207.41c-2.08,1.61-3.97,3.12-5.92,4.56-6.16,4.6-12.4,9.09-19.49,12.21-2.14.94-4.32,1.65-6.7,1.23-2.29-.41-3.74-1.74-3.86-4.04-.21-3.84-.13-7.68-.14-11.53,0-1.03.12-2.05.17-2.72-2.37,2.22-4.85,4.58-7.38,6.91-3.79,3.49-7.7,6.83-12.47,8.95-1.1.48-2.28.77-3.44,1.11-1.76.53-3.34.24-4.72-1.03-1.04-.97-2.09-1.91-3.15-2.85-3.47-3.08-3.56-6.94-2.57-11.05.78-3.25,1.64-6.48,2.46-9.73.05-.18.05-.37.11-.87-2.8,1.97-5.53,3.66-7.98,5.65-6.37,5.19-12.64,10.5-18.93,15.79-1.64,1.38-3.26,2.8-4.82,4.27-3.55,3.32-8.19.75-9.37-2.46-1.09-2.96-1.01-5.99-.42-8.91.92-4.48,2.08-8.92,3.44-13.28,1.76-5.65,3.78-11.23,5.78-16.81,4.04-11.24,8.15-22.46,12.27-33.69.3-.81.24-1.24-.53-1.77-5.72-4.04-11.92-6.94-18.9-8.05-4.26-.68-8.5-.52-12.69.28-6.27,1.18-12.48,2.62-18.75,3.84-4.18.81-8.42,1.35-12.67,1.03-5.8-.45-11.41-1.79-16.63-4.43-6.15-3.12-10.83-7.76-13.87-13.96-.62-1.26-.93-2.66-1.38-3.98.11-.1.21-.18.31-.28,1.21.53,2.43,1.06,3.65,1.59,3.3,1.44,6.76,2.29,10.3,2.95,4.94.92,9.92,1.09,14.9.91,3.89-.14,7.76-.58,11.64-.92,2.51-.22,5.02-.47,7.53-.75,3.5-.37,7-.81,10.5-1.18,1.28-.13,2.57-.19,3.85-.28,1.4-.1,2.81-.25,4.21-.25,11.05.01,20.96,3.43,29.8,10.02,1,.75,2,1.51,3.01,2.27.1.07.21.12.45.27,1.17-3.26,2.31-6.48,3.49-9.68.41-1.11.36-2.08-.12-3.21-1.3-3.04-2.41-6.19-2.56-9.55-.05-1.22.17-2.49.46-3.69.27-1.1,1.2-1.7,2.31-1.59,1.27.12,2.64.23,3.77.77,6.48,3.14,11.31,7.96,14.37,14.54,1.13,2.45.82,4.87.02,7.21-1.67,4.96-3.5,9.88-5.29,14.8-.34.94-.86,1.82-1.2,2.76-.12.34-.08,1,.13,1.15,2.39,1.52,4.53,3.67,7.53,3.85,1.93.12,3.89-.22,5.9-.35-.13.3-.33.89-.64,1.39-2,3.13-5.1,4.37-8.6,4.79-2.83.34-5.57-.06-8.28-1.2-7.06,16.03-13.04,32.44-19.27,48.74.1.06.19.13.29.19,1.3-1.1,2.61-2.2,3.9-3.31,7.67-6.64,15.7-12.79,24.35-18.07.52-.31.95-.85,1.29-1.36,3.53-5.47,6.45-11.34,10.85-16.21,3.62-4.02,7.49-7.74,12.23-10.43,5.18-2.93,10.55-3.12,16-1.01,3.26,1.26,5.16,3.84,5.88,7.22.16.74.51.94,1.1,1.21,1.65.75,3.26,1.56,4.88,2.38.82.41.75.92.25,1.64-6.29,9.28-11.01,19.32-13.76,30.18-1.21,4.77-1.81,9.68-2.67,14.52-.05.27-.01.56-.01,1.06,1.41-.85,2.7-1.56,3.94-2.37,6.39-4.17,12.57-8.6,17.86-14.15,2.21-2.33,4.5-4.59,6.71-6.91.31-.33.5-.82.62-1.27,1.64-6.28,3.07-12.62,4.94-18.82,2.21-7.34,4.65-14.62,7.24-21.84,2.55-7.09,5.38-14.08,8.16-21.09,1.26-3.18,2.69-6.27,4.02-9.41.25-.6.58-.89,1.29-1.01,6.05-1.1,11.95-.83,17.74,1.49,1.16.47,1.46,1.04,1.4,2.23-.72,14.31-4.99,27.58-11.59,40.18-4.76,9.08-10.62,17.39-17.11,25.29-1.17,1.42-1.71,3.44-2.25,5.28-1.29,4.38-2.5,8.78-3.55,13.22-.8,3.38-1.3,6.82-1.96,10.24-.25,1.36-.53,2.72-.85,4.35,2.44-.83,4.66-1.52,6.83-2.33,4.56-1.69,8.81-3.96,12.64-6.98,7.22-5.67,12.87-12.5,15.7-21.39,1.15-3.6,1.5-7.27,1.03-11.28,1.01.19,1.92.29,2.78.56,7.87,2.34,11.18,8.72,10.42,16.35-.53,5.38-3.6,9.54-7.24,13.28-7.09,7.27-15.72,12.28-24.81,16.55-4.71,2.21-9.41,4.46-14.51,5.7-5.99,1.46-10.97-.33-14.67-5.05-.92-1.18-1.04-2.75-.86-4.27.31-2.55.63-5.08.95-7.63.28-2.19.59-4.33.91-6.65Zm-58.06,3.88c.86-.31,1.33-.46,1.76-.65.93-.41,1.86-.8,2.75-1.27,7.24-3.78,13.5-8.89,19.34-14.52.4-.39.63-1.03.77-1.58,1.81-6.98,4.33-13.69,7.38-20.21.4-.86.51-1.97.41-2.92-.21-1.9-1.59-2.97-3.48-2.66-1.12.18-2.38.54-3.21,1.26-2.22,1.92-4.49,3.88-6.31,6.16-5.96,7.52-10.41,15.96-14.37,24.67-1.7,3.75-3.27,7.59-5.05,11.74Z"></path><path class="cls-1" d="m290.92,200.84c2.57,7.44,7.21,12.85,14.23,16.63-.02-10.55-1.65-20.61-3.69-30.91-1.71,1.23-3.27,2.33-4.81,3.44-9.6,6.95-18.3,14.94-26.57,23.4-2.57,2.63-4.97,5.43-7.56,8.07-.88.91-1.97,1.76-3.13,2.21-3.6,1.39-7.23-1.15-7.26-5.02-.02-3.32.12-6.64.18-9.96.01-.3,0-.6,0-.91.1.13.21.28.3.41-1.86,1.62-3.8,3.13-5.55,4.85-4.38,4.35-8.91,8.51-14.36,11.51-2.43,1.34-4.97,2.38-7.81,2.4-.5,0-1.07-.1-1.46-.36-2.69-1.79-5.06-3.91-6.89-6.59-1.1-1.59-1.52-3.31-1.34-5.28.85-8.83,3.71-17.02,7.53-24.94.88-1.82,1.81-3.61,2.89-5.73-5.51,4.2-10.81,8.19-17.81,8.37-1.04,2.83-1.96,5.72-3.15,8.49-4.55,10.48-11.02,19.5-20.55,26.07-3.91,2.69-8.14,4.68-12.94,5.16-7.91.78-13.84-2.57-17.29-9.79-2.78-5.8-3.39-11.98-2.91-18.26.92-11.74,5.01-22.29,12.41-31.45,5.77-7.15,12.86-12.53,21.82-15.09,5.11-1.46,10.21-1.62,15.19.66,1.16.53,1.92,1.36,1.91,2.69-.01,1.32-.68,2.19-1.87,2.72-10.4,4.72-18.07,12.42-23.93,22.05-4.23,6.94-7.45,14.34-9.14,22.35-.72,3.43-1,6.88-.64,10.38.08.76.31,1.04,1.11,1.03,4.46-.05,8.5-1.46,12.32-3.61,7.32-4.11,12.83-10.08,17.4-16.98,1.69-2.56,3.07-5.32,4.54-8.02.18-.34.22-1,0-1.26-3.59-4.25-3.85-9.06-2.23-14.07,1.35-4.17,3.98-7.36,7.98-9.33,1.09-.53,2.17-.77,3.16.13,1,.93.95,2.05.47,3.24-.71,1.77-.92,3.6-.4,5.47,1.36,5,6.62,6.88,10.87,3.88,3.47-2.45,6.86-5.02,10.36-7.41,1.73-1.18,3.16-2.58,4.53-4.15,3.37-3.85,6.8-7.67,11.13-10.5,4.07-2.67,8.42-4.52,13.4-3.97,4.25.46,8.31,1.53,10.87,5.37.81,1.22,1.3,2.68,1.75,4.09.22.69.52.93,1.15,1.2,1.7.72,3.37,1.55,5.01,2.39.93.48,1.12,1.05.42,2.09-8.14,12.18-13.73,25.44-16.54,39.83-.08.45-.07.92-.1,1.38.14.1.29.21.45.3,1.05-1.16,2.03-2.39,3.15-3.48,6.22-6.02,12.35-12.16,18.76-17.99,4.13-3.75,8.67-7.05,12.99-10.6.36-.29.69-.91.66-1.34-.29-4.12-.68-8.23-.98-12.35-.04-.54.11-1.28.47-1.65,4.56-4.83,9.77-8.75,16.21-10.72,2.4-.74,4.88-1.2,7.41-.75,2.48.43,3.72,1.75,4.04,4.26.28,2.15-.19,4.19-.95,6.17-1.46,3.79-3.78,7.04-6.29,10.19-.39.48-.64,1.23-.6,1.84.46,8.45,1,16.9,1.5,25.34.17,2.96.16,5.93.46,8.86.27,2.58-.87,4.61-2.17,6.57-1.13,1.73-2.44,3.38-3.88,4.87-2.38,2.44-5.06,4.5-8.11,6.09-1.24.64-2.46,1.58-3.91,1.15-2.04-.62-4.08-1.34-5.98-2.31-3.39-1.73-6.35-4.12-9.16-6.68-.8-.72-1.57-1.53-2.14-2.44-.24-.4-.02-1.15.11-1.7.94-3.98,2.14-7.87,4.52-11.29.08-.14.19-.3.45-.66Zm-62.54,11.76c.12.11.23.23.35.34,2.25-1.11,4.54-2.11,6.71-3.34,6.88-3.9,12.87-8.97,18.57-14.4.35-.34.58-.87.7-1.35,1.91-7.55,4.58-14.81,7.99-21.81.64-1.3.69-2.56.34-3.88-.47-1.82-1.79-2.85-3.6-2.43-1.49.35-3.1.93-4.24,1.9-2.28,1.97-4.49,4.12-6.34,6.5-6.28,8.09-11.05,17.1-15.29,26.38-1.81,4-3.48,8.05-5.2,12.1Z"></path><path class="cls-1" d="m206.04,279.56c.59-1.75,2.17-2.19,3.71-1.13.23.16.6.16.91.17,2.78.12,5.01,1.96,5.92,4.59,1.09,3.16,1.07,6.23-.66,9.12-.71,1.18-1.76,2.15-2.61,3.15,1.12,1.39,2.29,2.78,3.39,4.25.41.54.8,1.22.88,1.88.37,2.86.57,5.77-.77,8.44-.76,1.52-1.73,3.1-3.01,4.15-1.03.83-2.66.99-4.06,1.23-1.3.23-2.66.29-3.97.19-1.33-.1-2.64-.48-3.97-.71-.25-.05-.56.06-.82.14-.43.13-.86.29-1.28.45-.12-.45-.35-.91-.35-1.35,0-2.1.08-4.2.1-6.3.01-3.71-.05-7.41-.01-11.12.05-4.89.18-9.77.25-14.65.01-.89-.1-1.77-.11-2.67-.01-.76.17-1.35,1.16-1.28.68.05,1.36-.11,2.05-.12.93-.02,1.87-.06,2.37,1.03.13.25.58.35.89.54Zm-1.76,18.94c.1.41.23.71.23,1.01.07,2.57.21,5.14.16,7.72-.06,3.19.01,3.34,3.14,3.43h.12c2.87-.01,4.14-1.04,4.35-3.95.12-1.71-.08-3.47-.25-5.19-.05-.46-.39-1.05-.77-1.3-2.05-1.4-4.25-2.41-6.97-1.71Zm.02-4.91c1.7,0,3.21.18,4.65-.07.85-.14,1.99-.81,2.26-1.52.53-1.42.77-3.04.71-4.56-.11-2.6-1.97-3.47-4.53-3.95-.76-.14-1.93-.52-2.2-.19-.43.53-.29,1.55-.4,2.37-.01.08-.06.16-.06.23-.14,2.44-.28,4.89-.43,7.7Z"></path><path class="cls-1" d="m291.64,315.14c0-1.76-.02-3.43,0-5.11.06-3.39.19-6.77.23-10.17.04-4.61.06-9.22,0-13.82-.02-1.9-.27-3.78-.45-5.67-.16-1.65.17-2.33,1.84-2.48,2.06-.18,4.18-.18,6.24-.04,1.49.1,2.95.54,4.42.86,2.51.54,4.01,2.04,4.27,4.66.23,2.28.81,4.61.58,6.85-.27,2.54-.42,5.24-2.15,7.44-1.33,1.69-.6,3.57-.12,5.32.87,3.2,1.91,6.35,2.89,9.51.62,1.99.18,2.61-1.88,2.61-2.44,0-2.69-.06-3.34-2.39-.94-3.32-1.76-6.68-2.49-10.05-.43-2.03-.31-2.04-2.37-1.84-.56.05-1.13.06-1.68-.02-1.07-.16-1.38.47-1.4,1.33-.05,1.9-.05,3.8-.04,5.71.01,2.05.12,4.12,0,6.17-.02.4-.81.97-1.32,1.06-.89.19-1.85.06-3.24.06Zm12.4-25.09h-.11c0-1.22.11-2.44-.02-3.63-.14-1.29-.27-2.79-1.82-3.22-1.34-.37-2.74-.59-4.14-.7-1.34-.11-1.67.27-1.69,1.59-.05,3.51-.07,7.03-.07,10.54,0,1.64.04,1.64,1.69,1.65.69,0,1.38.02,2.06-.04,2.41-.21,4.7-1.2,4.11-4.48-.08-.57,0-1.15,0-1.71Z"></path><path class="cls-1" d="m342.43,311.47c-1-.16-1.29-.89-1.26-2.05.04-1.15-.37-2.29-.36-3.44.01-3.56.14-7.12.18-10.69.02-2.04-.22-4.11-.04-6.13.22-2.48.65-4.94,1.2-7.36.14-.66,1.07-1.12,1.56-1.75,2.25-2.91,5.02-2.73,8.25-1.91,2.02.51,3.09,1.7,4.19,3.13,1.16,1.49,1.71,3.18,1.59,5.08-.05.72.1,1.45.11,2.19,0,.31-.08.88-.18.89-1.26.13-2.55.36-3.78.22-.91-.1-.85-1.13-.72-1.82.3-1.7-.42-3.08-1.2-4.47-.48-.87-1.18-1.32-2.2-1.16-.04.01-.08.01-.12.01-3.82.24-4.53,1.1-4.5,4.96.04,4.66-.13,9.32-.05,13.98.05,2.38.36,4.76.72,7.1.34,2.12,1.93,3.01,4.53,2.72,1.53-.17,2.62-1.57,2.61-3.43-.01-2.22-.06-4.46-.11-6.68-.01-.4-.1-.8-.14-1.24-.34-.02-.6-.06-.88-.05-2.09.04-2.1.05-2.21-2.12-.04-.85-.07-1.7-.06-2.55.01-.8.45-1.2,1.24-1.11,1.81.18,3.62.36,5.43.6,1.09.14,1.81.82,1.85,1.93.08,2.46.13,4.94.08,7.4-.04,1.69-.14,3.39-.42,5.07-.14.91-.54,1.88-1.13,2.56-1.03,1.18-2.12,2.55-3.5,3.13-2.46,1.04-5.16,1.38-7.73.05-.75-.39-1.49-.86-2.11-1.42-.35-.35-.48-.93-.83-1.63Z"></path><path class="cls-1" d="m335.05,312.83c.04,2.08-.12,1.87-1.99,2.12-1.88.25-2-.64-2.22-1.97-.31-1.82-.81-3.61-1.18-5.42-.23-1.11-.77-1.49-1.94-1.42-1.71.08-3.44-.13-5.17-.12-.3,0-.81.45-.85.74-.17,1.36-.22,2.74-.28,4.12-.08,1.92-1.12,3.42-2.78,4.04-.62.23-.85.06-1.23-.48-1.24-1.71-.69-3.43-.34-5.24.82-4.17,1.5-8.37,2.22-12.56.28-1.62.56-3.24.82-4.87.63-4,1.27-7.98,1.87-11.98.27-1.77.64-2.04,2.37-1.92,1.09.07,2.19-.11,3.28-.19.81-.06,1.44.13,1.61,1.05,1,5.45,2.4,10.84,2.91,16.34.53,5.73,2.19,11.23,2.87,16.92.01.35.02.71.02.85Zm-9.3-27.11c-.13-.02-.25-.05-.39-.08-.8,5.32-1.61,10.64-2.4,15.94,2.15.23,4.06.42,6.06.63-1.07-5.35-2.17-10.91-3.27-16.48Z"></path><path class="cls-1" d="m255.29,309.33c.41-2.39.83-4.78,1.23-7.17.5-2.93.99-5.87,1.45-8.8.56-3.48,1.09-6.97,1.58-10.46.13-.95.19-1.92.16-2.89-.06-1.45.89-2.1,2-2.33.95-.19,2.02,0,2.99.22.21.05.39.95.3,1.41-.48,2.8-1.07,5.57-1.57,8.37-.4,2.29-.64,4.62-1.06,6.92-.56,2.99-1.23,5.98-1.86,8.96-.01.07-.04.17-.1.22-1.05,1-.71,2.14-.52,3.38.16.95-.19,2.03-.47,3.01-.39,1.4-.83,2.79-1.4,4.13-.14.35-.83.65-1.28.66-1.65.04-3.32-.01-4.97-.12-.34-.02-.88-.48-.92-.78-.19-1.57-.14-3.16-.37-4.72-.51-3.57-1.11-7.12-1.7-10.69-.08-.51-.37-.99-.46-1.5-.66-3.84-1.26-7.69-1.96-11.53-.17-.93-.66-1.8-.93-2.7-.31-1.06-.59-2.15-.81-3.24-.18-.89.82-1.98,1.8-2.05,1.98-.13,3.18.94,3.47,2.91.69,4.76,1.38,9.53,2.19,14.27.51,2.99,1.28,5.93,1.88,8.91.37,1.86.68,3.74,1,5.61.14,0,.23,0,.33,0Z"></path><path class="cls-1" d="m276.34,282.59c-.08,2.17-.16,4.26-.23,6.35-.05,1.29-.06,2.58-.13,3.88-.05.88.34,1.27,1.2,1.24.72-.02,1.47-.11,2.19-.02.86.1,1.69.34,2.5.66,1.59-.59,1.97-.36,2.17,1.47.02.24.05.48.08.72.16,1.15-.07,1.75-1.5,1.74-2.04-.02-4.09.23-6.12.46-.3.04-.77.6-.77.93-.02,3.2.05,6.39.08,9.59.01.71.23.98,1.04.89,1.42-.14,2.87-.17,4.31-.13.86.02,1.7.3,2.57.4.54.06,1.11.02,1.65-.04.75-.08,1.15.05,1.06.95-.07.83.08,1.68.08,2.52,0,.78-.46,1.01-1.21.93-1.04-.11-2.08-.21-3.11-.21-3.27-.02-6.54-.01-9.8.02-.92.01-1.09-.59-1.1-1.27-.06-2.95-.14-5.89-.12-8.83.02-3.11.18-6.23.22-9.33.04-2.99.04-5.99-.04-8.97-.06-2.25-.27-4.48-.4-6.71-.07-1.2.71-2.1,1.91-2.09.93,0,1.85.19,2.78.23,2.31.06,4.61.11,6.91.1.95-.01,1.92-.25,2.87-.29,1.21-.04,1.63.45,1.55,1.59-.19,2.55-.28,2.76-2.89,2.99-2.33.21-4.68.13-7.01.18-.18-.02-.35,0-.74.02Zm7.53,30.34c.01-.19.04-.37.05-.57-.39-.07-.78-.24-1.15-.18-.16.02-.23.53-.34.83.47-.02.95-.05,1.44-.08Z"></path><path class="cls-1" d="m378.99,282.9c-.93-.18-1.61-.45-2.27-.43-2.02.04-4.03.22-6.06.28-1.76.06-2.03.4-2.03,2.17,0,2.58-.12,5.18-.24,7.76-.07,1.57.07,1.73,1.63,1.67,1.77-.06,3.56-.02,5.35-.04.92-.01,1.29.46,1.32,1.35.08,2.91.1,2.91-2.81,3.03-1.41.06-2.83.12-4.25.19-.86.04-1.29.35-1.24,1.35.14,2.91.16,5.83.27,8.74.05,1.34.43,1.71,1.8,1.7,2.26-.01,4.53-.13,6.79-.13,2.03-.01,3.31,2.26,2.27,3.98-.12.19-.43.36-.66.37-1.8.05-3.6-.01-5.4.07-2.54.11-5.06.54-7.59-.12-1.58-.41-1.96-.74-1.91-2.37.02-.93.11-1.86.24-2.78.29-2.1.01-4.15-.17-6.24-.24-2.8.13-5.65.18-8.49.04-1.97-.01-3.95-.07-5.92-.1-3.27-.22-6.56-.39-9.83-.05-1,.29-1.52,1.3-1.58.57-.04,1.12-.17,1.69-.16,3.36.08,6.7.19,10.06.29.21.01.41-.01.6.01,2.05.13,2.16.25,1.98,2.32-.07.88-.16,1.76-.27,2.64.01.1-.17.21-.11.13Z"></path><path class="cls-1" d="m236.78,310.61c-.04.54-.06.94-.11,1.7.48-.45.71-.72.99-.91.3-.21.66-.5.98-.47.24.01.63.43.65.71.11,1,.16,2.02.1,3.02-.01.16-.63.41-.97.41-.74,0-1.49-.22-2.22-.21-3.6.06-7.18.17-10.78.27-.88.02-1.2-.37-1.16-1.27.13-4.35.29-8.71.29-13.05,0-4-.23-8-.29-12-.05-3.31.05-6.62.01-9.94-.01-1.01.31-1.36,1.34-1.27,2.12.18,4.26.35,6.4.37,1.61.02,3.22-.3,4.83-.24.83.04,2.21.42,2.34.92.29,1.07-.02,2.33-.18,3.5-.01.13-.64.34-.92.27-1.01-.25-1.84-.51-3.02-.02-1.17.48-2.7.1-4.08.08-.41,0-.88-.14-1.2.01-.43.23-1.05.68-1.05,1.04-.05,2.98.04,5.96.08,8.96.01,1.17.82,1.44,1.77,1.53,2.04.22,4.08.43,6.33.68,0,.99-.01,1.99,0,2.99.02.81-.33,1.18-1.15,1.21-1.82.04-3.65.13-5.46.17-1.42.02-1.69.19-1.74,1.67-.06,2.14-.1,4.29-.06,6.44.05,2.84.07,2.79,2.96,2.93,1.77.07,3.54.31,5.3.5Z"></path><path class="cls-1" d="m423.66,296.47c-.17,2.38.19,4.79-1.34,6.89-1.87,2.57-3.49,4.14-6.57,3.55-2.86-.56-4.73-2.86-4.96-6.07-.33-4.52-.34-9.04-.56-13.57-.14-2.92.95-5.24,3.09-7.17,1.8-1.63,3.79-1.65,5.87-.77,1.97.83,3.39,2.19,3.56,4.47.33,4.23.6,8.45.91,12.68Zm-3.39-2.83c-.19-3.07-.37-6.51-.63-9.92-.12-1.57-2.19-3.04-3.24-2.35-1.68,1.1-3.09,2.39-2.78,4.7.06.47-.04.97-.08,1.45-.42,3.71-.48,7.44.21,11.1.33,1.74,1.12,3.39,1.76,5.07.11.28.48.6.78.65,1.04.16,3.42-1.73,3.51-2.83.17-2.49.29-4.99.46-7.86Z"></path><path class="cls-1" d="m271.41,87.8c-1.56-.33-2.73.22-3.72,1.2-.8.78-1.04,1.86-.48,2.76.31.52,1.18.72,1.85.99.4.16.89.1,1.29.24.34.13.89.52.86.64-.13.41-.4.91-.76,1.07-1.36.64-2.8,1.13-4.19,1.74-1.11.48-1.53,1.28-1.21,2.15.39,1.01,1.44,1.51,2.56,1.13,3.07-1.03,5.87-2.54,8.25-4.77.47-.43,1.09-.72,1.53-1.18.76-.8,1.35-1.76,2.16-2.51.86-.81,1.8-1.63,2.85-2.11,1-.46,1.94.68,1.41,1.91-.98,2.25-.47,4.52-.5,6.79,0,.04.02.08.01.12-.1.42-.06.95-.31,1.23-.87.92-1.74,1.88-2.79,2.55-.85.54-2.97-.56-3.6-1.68-.13-.23-.1-.69.05-.92.29-.47.7-.87,1.12-1.36.45.47.72.75.98,1.04.27.29.51.6,1.11.87v-4.19c-.34.01-.75-.08-.99.07-2.06,1.39-4.12,2.79-6.12,4.26-2.41,1.79-5.14,2.57-8.08,2.79-1.51.11-3.42-2.35-3.31-4.15.13-2.03.98-3.65,2.79-4.65.57-.31.62-.63.34-1.17-.31-.6-.66-1.22-.81-1.86-.43-2.04.91-3.48,2.32-4.3,1.59-.93,3.56-1.42,5.42-1.64,2.17-.24,3.61,1.51,3.03,3.37-.19.62-.74,1.3-1.3,1.59-1.12.58-1.88-.1-1.75-1.36.05-.19,0-.4-.01-.65Z"></path><path class="cls-1" d="m395.56,292.9c.21,3.18.37,5.92.58,8.66.07,1,2.55,2.91,3.56,2.84,1.38-.11,2.93-1.7,3.02-3.18.05-.81-.01-1.62.04-2.43.07-1.1.77-1.87,1.63-1.74,1.01.14,1.24.89,1.2,1.8-.12,2.27.3,4.65-1.27,6.63-.3.39-.74.88-1.16.94-1.91.27-3.84.5-5.76.56-1.44.05-2.25-.8-2.68-2.16-.29-.89-.8-1.71-1.17-2.58-.17-.4-.37-.83-.39-1.26-.11-3.27-.25-6.53-.23-9.8.01-2.17.14-4.37.51-6.52.22-1.27.8-2.58,1.57-3.61,1.64-2.21,3.61-2.72,5.98-1.9,2.57.89,4.31,3.07,4.39,5.54.02.57.13,1.17-.04,1.69-.17.57-.65,1.51-.93,1.49-.62-.06-1.33-.5-1.74-.99-.34-.42-.35-1.13-.42-1.74-.21-1.57-1.1-2.61-2.54-3.1-.43-.16-1.26-.08-1.5.21-.71.88-1.57,1.87-1.75,2.92-.51,2.67-.66,5.43-.91,7.74Z"></path><path class="cls-1" d="m323.87,96.27c-.92,0-1.77-.02-2.63,0-1.4.05-2.49-.62-2.78-1.97-.4-1.88-.13-3.66,1.12-5.24.98-1.23,2.23-2,3.68-2.5,1.82-.62,4.49,1.53,4.58,3.67.12,3.22-.8,6.21-2.41,8.93-1.45,2.46-4.38,3.13-6.81,1.61-.51-.31-.71-1.16-.94-1.81-.05-.14.37-.62.63-.68.7-.16,1.49-.31,1.9.57.41.91,1.07.83,1.81.52,1.36-.58,1.77-1.74,1.86-3.1Zm1.96-4.61c-.23-.58-.51-1.45-.92-2.26-.5-.98-1.35-1.28-1.91-.66-1,1.1-1.94,2.27-1.8,3.92.07.82.08,1.67,1.15,1.85.86.14,2.14-.68,2.46-1.45.19-.43.56-.77,1.01-1.4Z"></path><path class="cls-1" d="m333.72,92.33c.3-.1.6-.19.89-.3,1.9-.78,4.64.39,4.6,3.54-.02,1.97-.63,3.56-2.15,4.89-1.13.99-3.96,1.53-5.31.8-1.55-.85-2.1-2.45-1.57-4.5.06-.23.16-.51.08-.71-.65-1.63-.05-3.09.65-4.49.28-.54.89-.92,1.3-1.41.3-.36.6-.77.72-1.21.3-1.09.85-1.77,2.06-1.8.47-.01.93-.21,1.39-.33,1.35-.37,3.44.71,3.77,2.08.1.4-.04,1.15-.29,1.28-.42.21-1.05.12-1.55-.01-.3-.08-.51-.5-.75-.77-.93-1.05-1.87-1.09-2.68.04-.59.82-.99,1.79-1.49,2.69.1.07.21.14.3.23Zm3.14,2.57c-.18-.42-.25-1.04-.57-1.21-.39-.22-1.05-.22-1.46-.04-1.5.68-2.66,3.09-2.37,4.71.16.86.64,1.33,1.52,1.46.89.12,1.53-.14,1.8-1.01.39-1.27.7-2.55,1.07-3.91Z"></path><path class="cls-1" d="m428.51,313.76c-.48.19-.95.56-1.44.57-8,.25-16.01.47-24.01.66-2.91.07-5.82.1-8.74.08-.4,0-.81-.37-1.21-.57.34-.42.6-1.13,1.01-1.23,1.33-.29,2.72-.46,4.08-.48,6.15-.12,12.29-.21,18.44-.22,3.48-.01,6.95.12,10.43.23.47.01.93.27,1.4.41.01.19.02.36.04.54Z"></path><path class="cls-1" d="m353.18,91.22c-.17,3.27-.58,6.07-2.58,8.39-1.55,1.79-3.6,1.91-5.65,1.79-1.32-.07-2.11-1.79-1.96-3.45.06-.65-.14-1.32-.17-1.98-.02-.66-.08-1.35.06-1.97.52-2.12,1.35-4.11,3.05-5.61,1.39-1.23,3.09-1.56,4.84-1.44,1.05.07,1.73.87,1.98,1.9.22.91.33,1.82.42,2.38Zm-2.11-.68c-.42-.66-.71-1.63-1.32-1.93-.88-.42-1.67.27-2.15,1.1-.4.7-.83,1.39-1.12,2.12-.82,2.1-1.57,4.24-1.2,6.57.23,1.44,1.1,1.9,2.25,1.07.6-.42,1.3-1,1.52-1.65.75-2.31,1.32-4.7,2.02-7.28Z"></path><path class="cls-1" d="m292.18,90.98c.24.11.47.18.66.31.13.1.3.28.3.42-.01.13-.22.34-.35.36-1.15.11-1.65.95-2.04,1.85-.66,1.57-1.24,3.16-1.91,4.88,2.75-.57,4.85-2.86,7.68-2.45.08.19.17.37.25.57-.47.37-.89.83-1.41,1.1-2,1.01-4.02,2.02-6.09,2.9-.62.27-1.59.37-2.1.06-.87-.53-1.41-1.53-1.13-2.64.42-1.74.99-3.45,1.39-5.2.13-.59-.02-1.24-.04-1.87-.01-.37-.16-.93.02-1.09,1.57-1.36,1.98-3.27,2.57-5.12.1-.3.59-.69.87-.66,1.86.1,2.91,1.9,2.19,3.59-.27.63-.52,1.27-.72,1.92-.11.31-.1.69-.14,1.09Z"></path><path class="cls-1" d="m308.7,101.06c.63-2.74,1.22-5.37,1.85-8.14-.83.14-1.55.34-2.28.35-.37.01-.97-.22-1.09-.51-.13-.31.04-.95.3-1.2,1.7-1.52,3.44-3.01,5.23-4.44.28-.23,1.11-.31,1.17-.21.39.78.99,1.7.86,2.46-.36,2.25-1.04,4.44-1.58,6.66-.31,1.27-.54,2.56-.92,3.82-.37,1.23-1.22,1.7-2.5,1.27-.23-.05-.48-.02-1.04-.07Z"></path><path class="cls-1" d="m426.97,305.21c.11-1.29,1.09-1.13,1.91-1.05s1.8.11,1.63,1.41c-.12.95-.94,1.52-2.05,1.4-.86-.08-1.57-.94-1.49-1.76Z"></path><path class="cls-1" d="m299.88,101.05c-.04.89-.18,1.62-1.33,1.53-1.07-.07-1.86-.77-1.76-1.71.11-1.06.94-1.27,1.76-1.23.8.04,1.49.4,1.33,1.41Z"></path></svg> 