<?xml version="1.0" encoding="UTF-8"?> <svg xmlns="http://www.w3.org/2000/svg" id="Layer_1" width="600" height="400" viewBox="0 0 600 400"><defs><style>.cls-1{fill:#fff;}</style></defs><path class="cls-1" d="m127.38,153.95c0-11.46-2.21-14.74-10.27-18.65v-.36h40.94v109.57c0,10.79.87,13.51,8.22,18.33v.36h-38.88v-21.22c-3.6,12.84-13.71,22.96-28.77,22.96-19.88,0-36.12-16.79-36.12-43.15s17.11-45.05,38.37-45.05c14.03,0,22.96,7.86,26.55,19.16v-41.96h-.04Zm0,76.03v-19.52c0-15.41-7.71-25.33-16.44-25.33-10.95,0-16.08,12.68-16.08,36.63,0,19.88,5.81,30.98,16.44,30.98,8.73.04,16.08-9.21,16.08-22.76h0Zm125.54-13h-54.45c0,21.22,11.14,33.9,27.58,33.9,10.43,0,19.52-4.62,24.81-15.25l1.19.51c-4.98,18.33-20.39,28.77-39.91,28.77-24.5,0-44.69-16.08-44.69-44.02s20.39-44.18,44.85-44.18c27.58.04,40.62,17.66,40.62,40.26h0Zm-29.48-3.6c0-19.16-1.38-33.75-11.14-33.75-8.89,0-13.36,13.51-13.71,33.75h24.85Zm70.89,31.18c0,11.3.51,13.51,8.06,18.33v.36h-46.59v-.36c7.35-4.78,7.86-7.03,7.86-18.33v-90.61c0-11.46-2.05-14.74-10.12-18.65v-.36h40.74v109.61h.04Zm51.53,0c0,11.3.51,13.51,8.06,18.33v.36h-46.75v-.36c7.55-4.78,8.06-7.03,8.06-18.33v-47.1c0-11.66-1.03-14.03-9.09-18.65v-.36h39.71v66.11h0Zm-15.73-109.1c9.92,0,17.47,7.03,17.47,16.28s-7.55,16.44-17.47,16.44-17.11-7.19-17.11-16.44,7.35-16.28,17.11-16.28Zm49.63,54.81c0,7.71,5.29,10.12,21.06,14.9,22.25,7.03,31.49,14.74,31.49,31.33,0,17.47-14.23,28.41-34.77,28.41-11.81,0-19.88-3.6-26.04-3.6-4.27,0-6.32,1.9-8.73,3.75l-1.9-31.33h.36c9.76,18.33,21.22,28.25,36.31,28.25,8.38,0,14.54-4.11,14.54-12.33,0-8.73-7.55-10.95-20.39-14.9-21.06-6.52-30.31-15.05-30.31-31.49s13.51-26.55,30.98-26.55c10.79,0,17.31,4.11,23.47,4.11,3.95,0,6.52-1.7,9.6-4.27v27.74h-.28c-7.55-14.74-20.55-24.66-32.72-24.66-7.71,0-12.68,4.31-12.68,10.63h0Zm92.82-55.32v65.75c4.27-15.41,15.25-23.99,29.79-23.99,18.49,0,27.07,13,27.07,29.64v38.17c0,11.3.51,13.51,8.06,18.33v.36h-46.59v-.36c7.35-4.78,7.86-7.03,7.86-18.33v-39.04c0-7.86-3.44-14.23-11.46-14.23-8.57,0-14.74,7.19-14.74,22.6v30.66c0,11.3.51,13.51,8.06,18.33v.36h-46.59v-.36c7.35-4.78,7.86-7.03,7.86-18.33v-90.57c0-11.46-2.05-14.74-10.12-18.65v-.36s40.78,0,40.78,0Z"></path></svg> 