<?xml version="1.0" encoding="UTF-8"?> <svg xmlns="http://www.w3.org/2000/svg" xmlns:xlink="http://www.w3.org/1999/xlink" id="Layer_1" width="600" height="400" viewBox="0 0 600 400"><defs><style>.cls-1{clip-path:url(#clippath);}.cls-2{fill:#fff;}</style><clipPath id="clippath"><path class="cls-2" d="m163.1,234.38s-2.91-4.83-1.1-8.44c1.8-3.59,5.11-4.84,5.11-4.84,0,0-3.18-3.04-11.34-2.77-8.17.28-18.26,2.76-23.11,4.01-4.84,1.24-14.94,4.43-23.24,5.25-8.3.83-19.19.99-28.77-.69-12.58-2.21-27.25-7.47-27.25-7.47v14.52s25.87,9.96,45.23,8.72c19.37-1.24,29.06-4.84,34.3-6.09,5.26-1.24,17.57-3.73,22.14-3.46,4.57.29,8.03,1.26,8.03,1.26"></path></clipPath></defs><g id="Praxis"><g><g><path class="cls-2" d="m275.25,212.4h21.66s1.57-2.86,6.29-5.89c4.72-3.03,5.26-3.42,7.63-5.14,2.35-1.7,2.99-1.7,2.99-1.7,0,0,3.89,5.91,4.63,8.12.74,2.21.86,5.22.86,5.22h40.02s-3.58-3.23-4.74-4.92c-1.15-1.69-6.06-9.93-7.47-12.43s-7.51-12.64-7.51-13.83c0-.1.65-.6.65-.6l30.01-22.01h-21.35l-15.15,12.1s-1.1-2.26-1.53-2.87c-.43-.61-2.14-3.55-2.44-4.17-.3-.61-.92-2.57-.92-3.37s.06-1.89.06-1.89h-39.01s1.71,2.33,3.06,3.49,10.04,17.21,10.04,17.21l5.02,10.11-32.77,22.58Z"></path><path class="cls-2" d="m523.35,216.39c6.31-6.89,12.48-17.09,12-29.16-.47-11.84-6.78-21.26-13.64-27.75-21.33-20.14-54.14-28.24-94.53-28.92,15-1.78,33.47-.32,47.04,2.12,4.16.74,8.62,1.35,11.99,2.59,2.25.82,4.64,2.23,7.05,3.29,15.67,6.86,31.98,17.6,39.51,31.75,10.05,18.89,2.78,38.27-9.64,50.8-7.93,7.98-17.99,13.96-27.51,19.29-18.13,6.62-36.07,10.66-60.88,10.95,36.84-4.25,68.59-13.05,88.63-34.96"></path><path class="cls-2" d="m473.27,172.89c.61-4.33.79-9.09,1.17-13.64-20.94,2.14-51.5-5.39-61.85,6.58-2.86,3.31-3.92,8.33-5.17,13.41-.64,2.6-1.67,5.84-1.41,8.93,1.06,13.12,25.52,4.8,36.92,8.24,1.19,5.8-4.08,5.41-10.11,5.41-11.6,0-25.71.95-31.75-3.29-.29,4.56-.69,9.04-1.17,13.41,15.87-.9,35.43,1.19,51.04,0,13.22-1.01,16.29-10.03,19.05-21.17.64-2.6,2.02-7.63.7-11.05-2.52-6.57-14.29-4.93-23.51-4.93-4.9,0-9.91.71-13.17-.94.18-1.48.43-2.86,1.17-3.76,11.31-.29,28.14-2.14,36.68,1.88.69-.09,1.17,2.08,1.41.94m1.64-14.12c-.29,6.44-.9,12.58-1.41,18.81-.72.29-1.22-1.16-1.64-1.88-.55-.92-.92-2.02-1.88-2.59-5.54-3.29-21.2-1.64-30.34-1.64-2.33,0-5.19-.45-5.17,2.35,12.67,2.6,35.41-4.59,37.16,8.46.51,3.84-.63,6.95-1.41,10.12-.77,3.04-1.33,6.55-2.35,9.17-2.67,6.8-9.46,11.62-17.41,12.22-17.54,1.35-34.59-1-52.44,0,.34-5.46.9-10.7,1.41-15.99,1.75-.16,4.53,2.17,7.29,2.82,6.88,1.61,19.3.71,28.22.71,3.28,0,6.5.24,6.35-3.29-14.54-2.76-39.81,6.02-36.92-13.17.98-6.43,3.15-15,6.59-19.05,10.94-12.91,42.86-4.68,63.96-7.05"></path><path class="cls-2" d="m472.8,171.01c.37-3.63.51-7.49.95-11.05-15.85.87-30.58-1.14-46.09,0-7.21.53-14.13,4.18-16.93,10.12-1.1,2.33-1.61,5.75-2.35,8.7-.77,3.1-1.94,6.51-1.64,9.41.87,8.69,13.19,6.82,23.29,6.82,4.26,0,13.09-.72,13.88,1.41.56,1.57-.84,4.72-1.88,5.41-2.83,1.84-12.4.71-17.41.71-6.66,0-13.17.29-17.64-.71-1.86-.42-4.24-2.07-5.17-1.64-.37,3.63-.78,7.21-.94,11.05,15.45-.87,33.98,1.14,49.62,0,13.01-.95,16.14-9.75,18.81-20.93.59-2.44,1.94-7.39.71-10.34-2.51-6.04-14.58-4.47-23.29-4.47-5.01,0-10.23.82-13.41-1.17-1.12-7.39,8.01-5.41,15.29-5.41s14.58-.51,19.76.71c1.75.41,3.66,1.89,4.45,1.41m1.64-11.76c-.39,4.55-.56,9.31-1.17,13.64-.24,1.16-.72-1.03-1.41-.95-8.55-4.02-25.38-2.17-36.68-1.88-.74.9-1,2.3-1.17,3.76,3.26,1.64,8.27.94,13.17.94,9.23,0,20.99-1.62,23.51,4.93,1.32,3.42-.06,8.45-.7,11.05-2.76,11.13-5.84,20.14-19.05,21.17-15.6,1.19-35.16-.9-51.04,0,.5-4.37.88-8.84,1.17-13.41,6.04,4.24,20.14,3.29,31.75,3.29,6.04,0,11.31.39,10.11-5.41-11.4-3.42-35.86,4.9-36.92-8.22-.26-3.1.77-6.33,1.41-8.93,1.26-5.08,2.31-10.09,5.17-13.41,10.35-11.96,40.9-4.44,61.85-6.58"></path><path class="cls-2" d="m473.74,159.95c-.43,3.57-.56,7.42-.95,11.05-.79.48-2.7-1-4.47-1.41-5.17-1.22-12.17-.71-19.76-.71s-16.4-1.98-15.29,5.41c3.18,1.99,8.39,1.17,13.41,1.17,8.7,0,20.77-1.57,23.29,4.47,1.24,2.96-.11,7.9-.71,10.34-2.67,11.19-5.8,19.99-18.81,20.93-15.64,1.14-34.18-.86-49.62,0,.16-3.84.56-7.42.94-11.05.95-.43,3.31,1.24,5.17,1.64,4.47,1,10.97.71,17.64.71,5,0,14.58,1.14,17.41-.71,1.04-.69,2.44-3.84,1.88-5.41-.79-2.14-9.62-1.41-13.88-1.41-10.09,0-22.42,1.86-23.29-6.82-.29-2.9.88-6.31,1.64-9.41.74-2.96,1.25-6.37,2.35-8.7,2.81-5.94,9.72-9.59,16.93-10.12,15.55-1.14,30.26.86,46.11,0"></path><path class="cls-2" d="m458.23,229.79h10.58c-.06,1.45-2.74.24-3.53.95v5.17c-7.93.98-23.3,1.92-25.63-4.7-3.26-9.23,15.15-10.62,23.51-9.17.96-.29.37-2.14,1.88-1.88-.61,1.67-.24,4.31-.94,5.88-1.06.03-.64-1.4-.94-2.12-5.22-2.07-21.95-2.78-20.7,5.17.98,6.21,12.22,7.35,19.52,6.35.51-1.06.11-3.02.24-4.47-.59-1.16-3.86.38-4.01-1.18"></path><path class="cls-2" d="m421.77,222.27c1.8-.56,7.71-.08,9.88-.24-.42.84-1.99.51-3.05.71-.88,4.37-.47,10.04-.95,14.81-7.1-4.43-13.58-9.46-20.7-13.88.35,3.71.16,8,.47,11.76,1.06.74,4.08-.47,4.47.95h-10.34c.24-1.1,2.07-.59,3.29-.71.8-3.74.59-8.51.94-12.7-1.16-.48-3.12-.18-4.24-.71,2.65.11,4.9-1,7.29-.47,1.17.26,3.18,2.12,4.46,3.05,4.31,3.11,9,6.41,13.17,9.17-.24-3.68-.14-7.71-.47-11.29-1.44-.1-3.03-.09-4.22-.46"></path><path class="cls-2" d="m409.77,137.38h-26.1c-1.69,4.35-2.62,9.45-3.76,14.34h26.34c1.08-4.88,2.38-9.54,3.53-14.34m-27.75-.47h28.46c-1.14,5.76-2.78,11.02-4,16.7h-28.92c1.57-5.49,2.5-11.6,4.46-16.7"></path><path class="cls-2" d="m408.84,138.08h-24.7c-1.35,4.06-2.33,8.48-3.29,12.93h24.7c1.19-4.21,2.17-8.64,3.29-12.93m-25.17-.7h26.1c-1.16,4.8-2.44,9.46-3.53,14.34h-26.34c1.14-4.9,2.08-9.99,3.76-14.34"></path><path class="cls-2" d="m384.14,138.08h24.7c-1.12,4.29-2.1,8.72-3.29,12.93h-24.7c.96-4.44,1.94-8.88,3.29-12.93"></path><path class="cls-2" d="m281.61,172.41c1.12-16.72-16.72-13.17-32.68-13.17h-29.39c-1.57,4.63-3.61,8.78-5.17,13.41,7.08-3.65,20.38-2.59,30.8-2.59,3.71,0,7.53-.59,10.12,1.17.66,7.08-10.02,4.93-16.7,4.93-8.74,0-17.62-.84-22.81,1.88-6.51,3.41-9.96,14.42-10.58,23.05-.55,7.78,3.37,10.34,10.34,10.82,6.28.42,17.36.5,23.75,0,4.69-.35,7-2.21,8.93-4.7-.45,1.19-.16,3.13-.24,4.7h26.8c-2.14-6.23.95-14.29,2.83-21.87,1.51-6.05,3.63-12.1,4-17.63m123.7-13.17h-29.87c2.37,8.56-1.14,16.91-3.53,26.58-2.35,9.44-3.66,18.21-7.76,23.75-.5.66-1.9,1.37-1.41,2.35h32.46v-.47c-2.33-5.57.32-12.97,1.64-18.34,2.74-11.1,6.07-23.58,8.46-33.87m-32.22-.47h32.92c-1.69,7.41-3.64,15.21-5.64,23.28-1.88,7.63-4.91,15.58-5.64,23.05-.34,3.5.5,5.99,1.41,8.7h-78.31c1.39-5.78-3.19-8.82-4.7-13.17-5.59,4.29-12.72,7.04-16.46,13.17h-50.09c-.98.05-.26-1.64-.47-2.35-1.64.9-4.29,2.12-7.29,2.35-6.68.51-17.03.5-24.22,0-7.68-.51-11.92-3.45-11.29-12.22.51-7.08,3.79-18.07,8.7-22.1,7.21-5.91,22.89-3.45,35.98-3.76,2.13-.06,5.3.33,5.41-3.05-4.53-1.24-10.21-.71-15.76-.71s-11.37-.29-16.22.24c-4.06.45-6.94,2.47-9.88,3.29,2.06-5.7,4.41-11.11,6.58-16.7h30.1c16.5,0,35.06-3.5,33.87,14.34-.37,5.62-2.35,11.53-3.76,17.17-1.41,5.67-3.58,11.42-4,16.93-.1,1.25.02,2.57.47,3.53v.24c3.12-.9,5.91-2.76,8.7-4.46,8.1-4.93,15.68-11.5,23.75-16.7-2.31-4.19-4.63-8.74-7.05-13.17-2.35-4.31-4.59-9.14-7.29-12.7-1.41-1.86-3.68-3.1-4.47-5.17h40.92c-1.32,5.43,2.81,8.13,4.24,12.22,4.99-4.02,11.13-6.89,14.81-12.22h23.51c.41.69-.82,1.16-1.18,1.41-4.56,3.29-9.89,6.74-14.58,10.12-5.57,4.02-11.25,7.9-16.46,11.76.43,1.22,1.33,1.96,1.64,3.29-.18-.26-1.96-2.88-2.35-4.47,10.15-7.02,19.66-14.68,30.1-21.41-5.88-.55-12.78-.08-19.05-.24-4.45,5.19-10.84,8.45-15.99,12.93-1.72-4.31-5.64-7.42-5.41-12.93h-36.68c.29,1.54,2.17,2.47,3.05,3.76,2.65,3.9,4.61,8.69,7.05,13.17,2.41,4.41,5.15,8.64,7.29,12.93-10.34,8.24-21.44,15.72-32.92,22.81h19.99c4.45-6.06,12-9.01,17.64-13.87,1.9,4.55,6.14,7.92,5.88,13.87h37.87c-.45-1.43-1.96-1.9-2.91-3.1.77.87,3.02,2.25,4.79,3.81,7.08-6.6,9.14-21.68,12-33.16,1.61-6.42,4.47-14.24,1.42-20.71"></path><path class="cls-2" d="m404.36,159.95c-9.25.16-19.13-.32-27.98.24.18.06.28.19.24.47,1.67,5.54-.48,10.68-1.88,16.22-1.06,4.18-2.1,8.39-3.05,12.23-1.86,7.42-3.02,14.92-6.35,19.99-.35.55-1.4,1.3-.95,2.12,9.88-.16,20.38.32,29.87-.24-1.88-6.68.5-12.29,1.88-17.87,2.79-11.16,5.48-22.17,8.24-33.17m-28.92-.71h29.87c-2.39,10.29-5.72,22.77-8.46,33.87-1.33,5.36-3.98,12.78-1.64,18.34v.47h-32.46c-.5-.98.92-1.69,1.41-2.35,4.09-5.54,5.41-14.31,7.76-23.75,2.39-9.67,5.89-18.01,3.53-26.58"></path><path class="cls-2" d="m376.38,160.19c8.86-.55,18.74-.08,27.98-.24-2.76,11-5.45,22.01-8.24,33.16-1.39,5.59-3.76,11.19-1.88,17.87-9.49.55-19.99.08-29.87.24-.45-.82.59-1.57.95-2.12,3.33-5.07,4.48-12.56,6.35-19.99.96-3.84,1.99-8.06,3.05-12.22,1.4-5.54,3.55-10.68,1.88-16.22.05-.28-.06-.42-.24-.47"></path><path class="cls-2" d="m394.02,221.79c-.39,1.25-2.67.63-4,.95-.39,3.71-.39,8.99,0,12.7,1,.56,3.23-.1,4,.71-3.37.55-7.76.08-11.53.24.53-1.04,2.51-.63,4-.71.55-3.76.08-8.55.24-12.7-.94-.87-3.86.26-4.24-1.17,3.33.38,8.19.38,11.53-.01"></path><path class="cls-2" d="m377.09,220.62c.43.72-.27,4.26-1.17,5.17-.98.05-.26-1.64-.47-2.35-3-.53-6.62-.43-9.88-.7-.55,3.76-.08,8.54-.24,12.7,1.24.72,4.35-.43,4.93.94h-13.17c.66-1.14,3.04-.56,4.71-.71.69-3.76.55-8.86.24-12.93-3.33.19-6.94.11-9.88.7-.79.63-.37,2.44-1.88,2.35.35-1.61.61-3.31.71-5.17,1.33-.47.72,1,1.17,1.41h23.29c1.14.14.51-1.51,1.64-1.4"></path><path class="cls-2" d="m350.27,159.95h16.7c-9.97,6.65-19.48,13.76-28.92,20.93,5.76,10.15,11.07,22.01,17.87,30.34h-35.04c-.63-6.2-4.37-9.29-6.35-14.11-6.37,4.51-13.68,8.11-18.58,14.11h-16.93c11.18-6.47,20.91-14.36,31.51-21.41-5-8.37-9.54-19.06-14.81-27.04-.64-.98-1.35-1.86-2.35-2.59,11.05-.55,23.13-.08,34.58-.24-.08,5.43,4,8.69,5.64,13.17,5.75-4.21,12.18-7.75,16.7-13.17"></path><path class="cls-2" d="m348.39,197.81c.98,1.54,3.37,5.72,4.7,8.46-.99-1.5-3.42-5.63-4.7-8.46"></path><path class="cls-2" d="m347.22,232.15c.42,1.37-1.43,4.51-1.64,6.82-1.08-.02-.61-1.59-.71-2.58h-15.29c.34-1.16,2.43-.55,3.76-.71.71-3.71.51-8.66.24-12.7-.9-.66-2.96-.18-4-.71,2.51-.74,8.48.26,11.76-.47-.53,1.27-2.97.63-4.47.95-.35,4.31-.19,8.58,0,12.93,2.65-.42,6.12,0,8.24-.94,1.08-.5.87-2.28,2.12-2.59"></path><path class="cls-2" d="m345.1,191.94c.34.47,2.17,3.45,2.83,5.17-.34-.47-2.19-3.45-2.83-5.17"></path><path class="cls-2" d="m341.81,186.06c.34.47,2.17,3.45,2.83,5.17-.34-.47-2.19-3.45-2.83-5.17"></path><path class="cls-2" d="m322.53,221.79c-.12,1.14-1.83.69-2.83.95-.77,5.51.96,9.51-2.58,12-4.82,3.39-17.01,2.47-19.05-1.88-1.27-2.73-.02-5.68-.47-9.64-.35-.98-2.3-.37-3.05-.94,2.04-.72,7.55.24,10.34-.47-.37,1.3-2.75.55-4,.95-.1,4.19-1.1,7.42.7,10.11,2.33,3.5,9.84,3.97,13.41,1.64,3-1.94,2.12-6.92,1.88-11.53-.88-.92-3.9.27-4.24-1.17,2.81.38,7.11.38,9.89-.01"></path><path class="cls-2" d="m275.5,224.38c-.24,3.29,14.86,3.63,11.05,9.64-1.99,3.15-9.07,2.82-13.41,2.12-.66.51-.24,2.12-1.41,2.12-.51-1.03.43-4.56.47-6.59,1.08-.14.77,1.12.95,1.88,1.75,4.87,16.54,1.22,9.41-2.82-2.49-1.41-12.05-2.62-8.93-7.05,1.99-2.84,8.27-2.07,11.76-1.41.61-.42.29-1.75,1.17-1.88.96,1.17-.47,3.9-.47,5.64-1.08.14-.77-1.12-.94-1.88-.43-1.81-9.44-2.81-9.66.23"></path><path class="cls-2" d="m280.91,172.18c1.12-15.58-16.4-12.23-30.8-12.23h-29.63c-1.77,3.33-3.65,7.8-4.47,11.29,5.76-2.52,13.44-1.88,22.81-1.88,3.39,0,16.25-1.08,17.17,1.64.96,2.86-1.33,4.74-2.12,5.17-2.97,1.67-10.78.71-15.05.71-5.14,0-11.31-.39-15.76,0-10.89.94-13.64,8.91-15.99,18.34-.84,3.42-2.04,9.17-.24,12.22,2.97,5.04,15,3.76,23.51,3.76,4.74,0,10.86.26,13.64-1.17,2.6-1.33,2.2-3.27,4.93-4.46.1,2.06-.41,3.5-.24,5.64,8.3-.16,17.25.32,25.17-.24-1.7-7.23,1.37-13.78,3.29-21.39,1.46-5.86,3.37-11.98,3.76-17.41m-31.98-12.93c15.98,0,33.81-3.55,32.68,13.17-.37,5.53-2.49,11.58-4,17.64-1.88,7.58-4.96,15.64-2.83,21.87h-26.8c.08-1.57-.21-3.5.24-4.71-1.94,2.49-4.25,4.35-8.93,4.71-6.39.48-17.48.41-23.75,0-6.97-.47-10.89-3.04-10.34-10.82.63-8.62,4.08-19.64,10.58-23.05,5.19-2.73,14.07-1.88,22.81-1.88,6.68,0,17.36,2.14,16.7-4.93-2.59-1.77-6.41-1.17-10.12-1.17-10.42,0-23.73-1.06-30.8,2.59,1.57-4.63,3.61-8.78,5.17-13.41h29.39Z"></path><path class="cls-2" d="m247.04,201.33c3.92-1.62,3.71-11.32,5.41-15.05-6.15,1.06-13.86-1.93-17.41,1.17-2.78,2.43-2.76,9.37-3.05,12.93,2.81,1.7,11.64,2.37,15.05.95m3.05-41.38c14.4,0,31.92-3.35,30.8,12.23-.39,5.43-2.3,11.55-3.76,17.41-1.93,7.63-5,14.17-3.29,21.41-7.92.55-16.85.08-25.17.24-.18-2.14.34-3.58.24-5.64-2.74,1.19-2.33,3.13-4.93,4.46-2.78,1.43-8.9,1.17-13.64,1.17-8.53,0-20.54,1.27-23.51-3.76-1.8-3.05-.61-8.8.24-12.22,2.35-9.43,5.09-17.41,16-18.34,4.45-.39,10.62,0,15.76,0,4.27,0,12.08.96,15.05-.71.79-.43,3.08-2.31,2.12-5.17-.92-2.73-13.78-1.64-17.17-1.64-9.36,0-17.05-.64-22.81,1.88.82-3.49,2.7-7.95,4.47-11.29h29.62Z"></path><path class="cls-2" d="m253.62,221.79c2.78.55,7.72.08,10.12.24-.39.87-2.07.43-3.05.71-.96,4.29-.56,9.94-.95,14.81-7.11-4.41-13.62-9.43-20.7-13.88.1,4,.21,7.93.47,11.76,1.06.74,4.08-.47,4.47.94h-10.35c.14-1.19,2.14-.53,3.29-.71.74-3.81.48-8.61.94-12.7-1.08-.64-3.57.11-4.24-.95,2.76.18,4.9-.27,7.53-.24,5.45,4.19,11.27,8.01,16.93,12,.53-3.19.18-7.55,0-10.82-.99-.87-4.03.28-4.46-1.17"></path><path class="cls-2" d="m251.51,186.99c-5.62.98-12.38-1.72-15.76.94-2.02,1.61-3.21,9.67-3.05,12,.08.06.16.1.26.16-.02.02-.02.06-.02.08h.21c2.94,1.35,10.49,1.45,13.43.47,3.53-1.19,3.42-10.44,4.93-13.64m.95-.7c-1.7,3.73-1.49,13.43-5.41,15.05-3.41,1.41-12.25.74-15.05-.94.29-3.57.27-10.5,3.05-12.93,3.55-3.11,11.25-.14,17.41-1.18"></path><path class="cls-2" d="m235.76,187.94c3.37-2.67,10.13.05,15.76-.94-1.51,3.19-1.41,12.45-4.93,13.64-2.94.98-10.48.88-13.43-.47h.26c3.65.08,9.49,1.69,12.22,0,2.94-1.8,2.07-8.8,3.76-11.29-4.53.26-10.2-.63-13.64.71-1.46,2.96-2.3,6.58-2.81,10.5-.1-.06-.18-.1-.26-.16-.15-2.34,1.05-10.4,3.06-12"></path><path class="cls-2" d="m233.14,200.16h-.21s0-.06.02-.08c.06.02.11.06.19.08"></path><path class="cls-2" d="m204.48,233.79c5.43,2.62,19.05,3.02,19.05-4.24,0-5.75-10.07-7.35-16-6.58-3.79.5-8.03,1.45-8,5.64.02,2.74,2.84,4.16,4.95,5.17m6.34-12c5.37-.21,16.27.43,15.52,7.53-.51,4.84-7.31,6.89-12.7,7.29-7.63.55-16.93-1.16-16.93-7.05,0-5.78,8.13-7.53,14.11-7.76"></path><path class="cls-2" d="m208.24,175.94c1.25-5.41,2.59-10.74,4-16-10.09-.18-19.32-.64-23.99,3.76-1.57,1.49-2.07,3.88-4.47,4.7.37-2.84.96-5.46,1.17-8.46h-24.92v.71c1.7,7.95-1.88,16.62-4,25.17-1.93,7.72-3,15.54-5.64,20.93-.82,1.67-2.78,3.2-2.59,4.47h29.87c-1.7-7,.59-13.2,2.35-20.22,1.24-4.88,2.1-10.18,3.76-12.93,3.4-5.61,17.91-5.52,24.46-2.13m-20.46-12.93c5.23-4.88,15.19-3.66,25.16-3.76-1.12,6.25-2.96,11.78-4.24,17.88-6.29-4.02-21.36-4-24.46,1.64-1.72,3.12-2.31,8.08-3.53,12.93-1.78,7.15-4.29,13.25-2.12,20.22h-32.46c-.18-1.27,1.86-2.62,2.82-4.24,3.2-5.33,4.13-13.54,6.12-21.41.88-3.55,1.94-7.26,2.83-10.82,1.45-5.82,3.23-11.02.95-16.22h27.04c-.32,2.35-.79,4.55-.95,7.05-.03.19-.24.24-.24.47,1.35-1.22,1.86-2.62,3.08-3.76"></path><path class="cls-2" d="m212.94,159.24c-9.97.1-19.93-1.12-25.16,3.76-1.22,1.14-1.72,2.55-3.05,3.76,0-.24.19-.27.24-.47.16-2.51.62-4.7.94-7.05h-27.04c2.29,5.22.51,10.41-.95,16.22-.88,3.57-1.94,7.27-2.83,10.82-1.98,7.86-2.92,16.07-6.12,21.41-.96,1.61-3,2.96-2.82,4.24h32.45c-2.17-6.97.34-13.07,2.12-20.22,1.22-4.86,1.8-9.82,3.53-12.93,3.1-5.64,18.16-5.67,24.46-1.64,1.27-6.09,3.12-11.63,4.24-17.88m-23.05,1.17c5.82-2.84,15.72-1.17,23.99-1.64-1.62,7.08-3.47,13.94-5.17,20.93-4.21-3.63-18.16-5.44-22.81-1.17-2.33,2.15-3.26,8.08-4.47,12.93-1.88,7.53-4.92,15.21-1.88,22.34h-36.45c-.61-.98.72-1.57,1.17-2.12,6.44-7.9,8.02-21.3,11.05-33.39,1.7-6.74,4.43-13.36,1.17-19.52h29.87c.08,1.64-.32,2.82-.47,4.24,1.49-.43,2.37-1.78,4.01-2.59"></path><path class="cls-2" d="m212.23,159.95c-1.41,5.25-2.75,10.58-4,16-6.55-3.39-21.04-3.49-24.46,2.12-1.67,2.75-2.52,8.06-3.76,12.93-1.76,7.02-4.06,13.23-2.35,20.22h-29.85c-.19-1.27,1.77-2.81,2.59-4.46,2.65-5.39,3.72-13.2,5.64-20.93,2.12-8.54,5.7-17.2,4-25.17v-.71h24.93c-.21,3-.8,5.62-1.17,8.47,2.39-.82,2.9-3.21,4.47-4.7,4.64-4.43,13.88-3.95,23.96-3.77"></path><path class="cls-2" d="m188.96,220.15c.8,1.24-.39,4.45-.47,6.35-1.19.02-.51-1.85-.94-2.59-5.53-2.84-21.26-1.67-19.05,5.64,1.92,6.31,14.44,7.02,21.87,4.95-.98,1.83-4.46,1.96-7.29,2.12-7,.39-21.41-1.39-17.41-9.41,2.81-5.62,14.01-6.02,22.1-5.17.75-.28.23-1.83,1.18-1.89"></path><path class="cls-2" d="m156.5,153.6c1.04-13.76-9.97-13.17-22.34-13.17h-50.8c2.41,7.19-.69,14.95-2.59,22.58-2.92,11.8-5.67,23.01-8.46,34.1-1.12,4.41-2.41,8.62-4.24,11.76-.53.92-1.67,1.86-1.41,3.05h31.98c-1.8-9.04,2.39-17.28,4-25.16,14.79-1.53,30.05,3.18,40.68-2.82,5.33-3,7.26-7.31,8.93-12.7,1.83-5.84,3.79-11.69,4.24-17.65m-20.92-13.64c12.78,0,22.45.51,21.41,14.34-.47,6.33-2.62,12.4-4.24,17.87-1.57,5.33-4.31,10.21-8.93,13.17-9.52,6.09-25.18,2.14-40.92,3.29-1.67,7.74-5.91,16.3-3.53,25.16h-35.76c-.24-1.3,1.04-2.2,1.64-3.05,5.06-7.31,6.62-19.64,9.17-29.87,1.35-5.44,2.9-11.58,4.46-17.87,1.9-7.68,5.62-16.5,1.88-23.05h54.81Z"></path><path class="cls-2" d="m152.97,165.36c1.57-6.31,4.93-13.36,1.88-19.29-3.63-7.05-22.68-4.93-33.87-4.93h-36.45c-.39.1.06.29,0,.71,1.64,6.25-.94,12.43-2.58,19.05-1.26,5.08-2.6,10.36-3.76,15.05-3,12.07-4.71,24.38-9.17,32.68-.43.8-1.25,1.83-.94,2.58h29.63c-1.14-9.28,2.57-17.38,4.47-25.16,13.6-1.86,31.48,3.66,41.63-3.05,5.49-3.65,7.29-10.09,9.15-17.64m-18.81-24.93c12.37,0,23.38-.59,22.34,13.17-.45,5.96-2.41,11.82-4.24,17.64-1.69,5.39-3.61,9.7-8.93,12.7-10.64,5.99-25.89,1.3-40.68,2.82-1.61,7.87-5.8,16.13-4,25.16h-31.97c-.26-1.19.88-2.13,1.41-3.05,1.83-3.13,3.12-7.35,4.24-11.76,2.81-11.1,5.54-22.3,8.46-34.1,1.9-7.63,5-15.38,2.59-22.58h50.79Z"></path><path class="cls-2" d="m126.87,164.89c.96-3.79,2.68-7.5,1.88-11.53-4-2.43-12.22-.63-18.1-1.17-2.44,7.12-3.88,15.24-5.88,22.81,6.31-1.12,13.62,1.72,18.1-.47,2.94-1.43,3.22-6.57,4-9.64m27.98-18.81c3.05,5.91-.32,12.97-1.88,19.29-1.86,7.55-3.66,13.99-9.17,17.64-10.15,6.73-28.02,1.19-41.63,3.05-1.9,7.78-5.6,15.87-4.47,25.16h-29.63c-.32-.77.51-1.78.94-2.59,4.47-8.31,6.17-20.62,9.17-32.68,1.16-4.69,2.5-9.97,3.76-15.05,1.64-6.62,4.24-12.8,2.58-19.05.06-.42-.39-.61,0-.71h36.45c11.22.01,30.26-2.11,33.89,4.95"></path><path class="cls-2" d="m126.17,164.65c.92-3.66,2.6-7.31,1.88-11.05-4.39-1.49-11.4-.35-16.93-.71-1.98,6.95-3.66,14.21-5.41,21.39,5.82-1.01,12.08,1.49,16.46-.24,2.94-1.14,3.27-6.51,4-9.4m2.58-11.29c.8,4.02-.92,7.74-1.88,11.53-.79,3.08-1.06,8.21-4,9.64-4.48,2.2-11.8-.64-18.1.47,1.99-7.56,3.42-15.69,5.88-22.81,5.88.55,14.11-1.25,18.1,1.17"></path><path class="cls-2" d="m121.23,173.59c3.05-4.78,4.06-11.62,5.17-18.34-4.13-1.04-10.15-.19-15.05-.47-1.92,6.07-3.26,12.74-4.93,19.05,4.88-.14,10.33.29,14.81-.24m6.83-19.99c.72,3.74-.96,7.39-1.88,11.05-.72,2.88-1.06,8.25-4,9.41-4.39,1.72-10.65-.79-16.46.24,1.75-7.19,3.42-14.44,5.41-21.39,5.52.35,12.54-.79,16.93.7"></path></g><polygon class="cls-2" points="66 252.25 61.3 252.25 61.3 250.63 72.74 250.63 72.74 252.25 68.02 252.25 68.02 265.38 66 265.38 66 252.25"></polygon><g><path class="cls-2" d="m74.22,249.85h2.02v6.61h.05c.33-.54.82-1.03,1.44-1.35.6-.33,1.31-.55,2.06-.55,1.49,0,3.88.88,3.88,4.53v6.3h-2.02v-6.08c0-1.7-.66-3.15-2.57-3.15-1.31,0-2.34.88-2.7,1.93-.11.26-.14.55-.14.92v6.39h-2.02v-15.54Z"></path><path class="cls-2" d="m93.98,259.06c.02-1.23-.53-3.13-2.79-3.13-2.04,0-2.94,1.79-3.1,3.13h5.89Zm-5.91,1.37c.05,2.6,1.79,3.67,3.81,3.67,1.44,0,2.32-.24,3.08-.55l.34,1.37c-.71.3-1.93.68-3.7.68-3.41,0-5.46-2.16-5.46-5.36s1.97-5.71,5.2-5.71c3.62,0,4.59,3.04,4.59,4.99,0,.39-.05.7-.07.9h-7.78Z"></path><path class="cls-2" d="m105.35,257.55h2.04c2.13,0,3.48-1.12,3.48-2.81,0-1.9-1.44-2.74-3.56-2.76-.96,0-1.66.09-1.97.18v5.39h.01Zm-1.99-6.73c1.01-.2,2.46-.3,3.83-.3,2.13,0,3.51.37,4.47,1.21.78.65,1.22,1.67,1.22,2.81,0,1.95-1.28,3.24-2.92,3.76v.07c1.19.39,1.9,1.44,2.28,2.97.51,2.06.87,3.48,1.19,4.04h-2.06c-.25-.44-.6-1.69-1.04-3.53-.46-2.04-1.28-2.81-3.1-2.87h-1.88v6.39h-1.99s0-14.54,0-14.54Z"></path><path class="cls-2" d="m122.76,259.06c.02-1.23-.53-3.13-2.79-3.13-2.04,0-2.94,1.79-3.1,3.13h5.89Zm-5.91,1.37c.05,2.6,1.79,3.67,3.81,3.67,1.44,0,2.32-.24,3.08-.55l.34,1.37c-.71.3-1.93.68-3.7.68-3.41,0-5.46-2.16-5.46-5.36s1.97-5.71,5.2-5.71c3.62,0,4.59,3.04,4.59,4.99,0,.39-.05.7-.07.9h-7.78Z"></path><path class="cls-2" d="m135.12,264.99c-.53.26-1.7.63-3.19.63-3.35,0-5.53-2.19-5.53-5.43s2.34-5.62,5.96-5.62c1.19,0,2.24.28,2.79.55l-.46,1.49c-.48-.27-1.24-.51-2.34-.51-2.55,0-3.92,1.79-3.92,4.01,0,2.46,1.66,3.97,3.85,3.97,1.15,0,1.9-.28,2.48-.53l.36,1.44Z"></path><path class="cls-2" d="m138.58,260.11c0,2.32,1.4,4.07,3.37,4.07s3.37-1.73,3.37-4.11c0-1.79-.94-4.08-3.32-4.08-2.39.01-3.41,2.11-3.41,4.12m8.8-.11c0,3.92-2.84,5.62-5.53,5.62-3.01,0-5.32-2.11-5.32-5.45,0-3.55,2.43-5.62,5.5-5.62s5.35,2.22,5.35,5.45"></path><path class="cls-2" d="m157.39,258.97c0-.33-.02-.61-.11-.88-.37-1.12-1.35-2.03-2.82-2.03-1.93,0-3.3,1.55-3.3,4,0,2.07,1.1,3.81,3.28,3.81,1.24,0,2.37-.74,2.79-1.97.11-.33.16-.7.16-1.03v-1.9Zm1.99,4.88c0,2.43-.51,3.92-1.58,4.83-1.08.96-2.64,1.27-4.03,1.27s-2.79-.3-3.7-.88l.51-1.46c.73.44,1.88.83,3.26.83,2.06,0,3.58-1.03,3.58-3.7v-1.18h-.05c-.62.98-1.81,1.77-3.54,1.77-2.75,0-4.72-2.23-4.72-5.16,0-3.59,2.46-5.62,5-5.62,1.93,0,2.99.97,3.46,1.84h.05l.09-1.6h1.77c-.05.77-.09,1.62-.09,2.91v6.15h-.01Z"></path><path class="cls-2" d="m162.59,257.65c0-1.09-.02-1.99-.09-2.87h1.79l.11,1.75h.05c.55-1,1.84-1.99,3.67-1.99,1.53,0,3.92.88,3.92,4.51v6.32h-2.02v-6.11c0-1.7-.66-3.13-2.57-3.13-1.33,0-2.37.9-2.7,1.97-.09.24-.14.56-.14.9v6.37h-2.02v-7.71h-.01Z"></path><path class="cls-2" d="m175.31,254.79h2.02v10.59h-2.02v-10.59Zm2.25-2.97c.02.65-.48,1.18-1.28,1.18-.71,0-1.22-.53-1.22-1.18s.53-1.21,1.26-1.21,1.24.52,1.24,1.21"></path><path class="cls-2" d="m183.11,252.25v2.53h2.88v1.46h-2.88v5.71c0,1.32.39,2.06,1.51,2.06.55,0,.87-.05,1.17-.14l.09,1.44c-.39.16-1.01.28-1.79.28-.94,0-1.7-.3-2.17-.83-.57-.56-.78-1.51-.78-2.76v-5.78h-1.72v-1.46h1.72v-1.95l1.97-.57Z"></path><path class="cls-2" d="m188.27,254.79h2.02v10.59h-2.02v-10.59Zm2.24-2.97c.02.65-.48,1.18-1.28,1.18-.71,0-1.22-.53-1.22-1.18s.53-1.21,1.26-1.21,1.24.52,1.24,1.21"></path><path class="cls-2" d="m194.87,260.11c0,2.32,1.4,4.07,3.37,4.07s3.37-1.73,3.37-4.11c0-1.79-.95-4.08-3.32-4.08-2.39.01-3.41,2.11-3.41,4.12m8.8-.11c0,3.92-2.84,5.62-5.53,5.62-3.01,0-5.32-2.11-5.32-5.45,0-3.55,2.43-5.62,5.5-5.62s5.35,2.22,5.35,5.45"></path><path class="cls-2" d="m206.22,257.65c0-1.09-.02-1.99-.09-2.87h1.79l.11,1.75h.05c.55-1,1.84-1.99,3.67-1.99,1.53,0,3.92.88,3.92,4.51v6.32h-2.02v-6.11c0-1.7-.66-3.13-2.57-3.13-1.33,0-2.37.9-2.7,1.97-.09.24-.14.56-.14.9v6.37h-2.02v-7.71h-.01Z"></path><path class="cls-2" d="m227.95,264.18c1.33,0,2.43-.56,3.17-1.34-.92-.95-2.64-2.76-4.34-4.64-.84.51-1.99,1.44-1.99,3,0,1.69,1.28,2.97,3.14,2.97h.02Zm.57-6.64c1.31,1.46,2.77,3.06,3.76,4.11.43-.62.89-1.48,1.05-2.3,0-.02,1.81.01,1.8.03-.46,1.62-.97,2.52-1.76,3.41.82.83,1.62,1.67,2.55,2.6h-2.39c-.44-.42-.84-.83-1.44-1.42-1.33,1.16-2.79,1.67-4.52,1.67-3.01,0-4.74-1.93-4.74-4.13,0-2.02,1.26-3.37,3.03-4.31v-.07c-.78-.97-1.31-2.04-1.31-3.09,0-1.79,1.37-3.64,3.94-3.64.64,0,.89.14,1.26.25v1.69c-.29-.37-.74-.62-1.37-.62h-.02c-1.26,0-1.93,1-1.93,2.14,0,1.05.53,1.86,1.17,2.65l.91,1.03Z"></path><path class="cls-2" d="m244.59,257.55h2.04c2.13,0,3.48-1.12,3.48-2.81,0-1.9-1.44-2.74-3.56-2.76-.96,0-1.66.09-1.97.18v5.39h.01Zm-1.99-6.73c1-.2,2.46-.3,3.83-.3,2.13,0,3.51.37,4.47,1.21.78.65,1.22,1.67,1.22,2.81,0,1.95-1.28,3.24-2.91,3.76v.07c1.19.39,1.9,1.44,2.28,2.97.51,2.06.87,3.48,1.19,4.04h-2.06c-.25-.44-.6-1.69-1.04-3.53-.46-2.04-1.28-2.81-3.1-2.87h-1.88v6.39h-1.99v-14.54h-.01Z"></path><path class="cls-2" d="m261.98,259.06c.02-1.23-.53-3.13-2.79-3.13-2.04,0-2.94,1.79-3.1,3.13h5.89Zm-5.91,1.37c.05,2.6,1.79,3.67,3.81,3.67,1.44,0,2.32-.24,3.08-.55l.34,1.37c-.71.3-1.93.68-3.7.68-3.41,0-5.45-2.16-5.45-5.36s1.97-5.71,5.2-5.71c3.63,0,4.59,3.04,4.59,4.99,0,.39-.05.7-.07.9h-7.8Z"></path><path class="cls-2" d="m274.34,264.99c-.53.26-1.7.63-3.19.63-3.35,0-5.53-2.19-5.53-5.43s2.34-5.62,5.96-5.62c1.19,0,2.25.28,2.79.55l-.46,1.49c-.48-.27-1.24-.51-2.34-.51-2.55,0-3.92,1.79-3.92,4.01,0,2.46,1.66,3.97,3.85,3.97,1.15,0,1.9-.28,2.48-.53l.36,1.44Z"></path><path class="cls-2" d="m277.8,260.11c0,2.32,1.4,4.07,3.37,4.07s3.37-1.73,3.37-4.11c0-1.79-.95-4.08-3.32-4.08-2.38.01-3.41,2.11-3.41,4.12m8.81-.11c0,3.92-2.84,5.62-5.53,5.62-3.01,0-5.32-2.11-5.32-5.45,0-3.55,2.43-5.62,5.5-5.62s5.35,2.22,5.35,5.45"></path><path class="cls-2" d="m289.76,254.79l2.17,5.96c.37.97.66,1.84.89,2.72h.07c.25-.88.57-1.75.94-2.72l2.15-5.96h2.11l-4.36,10.59h-1.93l-4.22-10.59h2.19Z"></path><path class="cls-2" d="m306.82,259.06c.02-1.23-.53-3.13-2.81-3.13-2.04,0-2.94,1.79-3.1,3.13h5.9Zm-5.91,1.37c.05,2.6,1.79,3.67,3.81,3.67,1.44,0,2.32-.24,3.08-.55l.35,1.37c-.71.3-1.93.68-3.7.68-3.41,0-5.45-2.16-5.45-5.36s1.97-5.71,5.2-5.71c3.63,0,4.59,3.04,4.59,4.99,0,.39-.05.7-.07.9h-7.81Z"></path><path class="cls-2" d="m311.27,258.09c0-1.25-.02-2.32-.09-3.3h1.77l.07,2.08h.09c.51-1.42,1.72-2.32,3.08-2.32.23,0,.39.02.57.07v1.81c-.2-.05-.42-.07-.69-.07-1.42,0-2.43,1.03-2.7,2.47-.05.26-.09.57-.09.9v5.64h-2.01v-7.29Z"></path><path class="cls-2" d="m320.07,254.79l2.43,6.26c.25.7.53,1.53.71,2.16h.05c.2-.63.44-1.44.71-2.21l2.2-6.22h2.13l-3.03,7.55c-1.44,3.64-2.43,5.5-3.81,6.64-.99.83-1.97,1.16-2.48,1.25l-.51-1.62c.51-.16,1.17-.46,1.77-.95.55-.42,1.24-1.16,1.7-2.14.09-.19.16-.35.16-.46s-.05-.26-.14-.51l-4.1-9.77h2.21Z"></path><path class="cls-2" d="m334.78,263.06c.89.52,2.21.96,3.58.96,2.04,0,3.23-1.03,3.23-2.51,0-1.39-.82-2.16-2.92-2.93-2.52-.86-4.08-2.11-4.08-4.18,0-2.3,1.99-4.01,5-4.01,1.58,0,2.73.35,3.41.72l-.55,1.55c-.51-.26-1.53-.7-2.93-.7-2.12,0-2.92,1.21-2.92,2.21,0,1.39.94,2.06,3.08,2.85,2.61.97,3.94,2.16,3.94,4.34s-1.77,4.27-5.41,4.27c-1.49,0-3.12-.44-3.94-.96l.5-1.61Z"></path><path class="cls-2" d="m348.29,261.07c0,.28.05.55.09.79.37,1.33,1.58,2.25,3.03,2.25,2.13,0,3.37-1.67,3.37-4.09,0-2.13-1.17-3.94-3.3-3.94-1.37,0-2.66.95-3.05,2.39-.07.24-.14.53-.14.79v1.81Zm-1.99-2.82c0-1.35-.05-2.46-.09-3.46h1.81l.09,1.81h.05c.82-1.3,2.13-2.06,3.94-2.06,2.68,0,4.7,2.16,4.7,5.39,0,3.81-2.43,5.69-5.05,5.69-1.46,0-2.75-.61-3.41-1.67h-.05v5.76h-1.99v-11.46Z"></path><path class="cls-2" d="m366.37,259.06c.02-1.23-.53-3.13-2.79-3.13-2.04,0-2.94,1.79-3.1,3.13h5.89Zm-5.91,1.37c.05,2.6,1.79,3.67,3.81,3.67,1.44,0,2.32-.24,3.08-.55l.35,1.37c-.71.3-1.93.68-3.7.68-3.41,0-5.46-2.16-5.46-5.36s1.97-5.71,5.2-5.71c3.63,0,4.59,3.04,4.59,4.99,0,.39-.05.7-.07.9h-7.8Z"></path><path class="cls-2" d="m378.73,264.99c-.53.26-1.7.63-3.19.63-3.35,0-5.53-2.19-5.53-5.43s2.34-5.62,5.96-5.62c1.19,0,2.25.28,2.79.55l-.46,1.49c-.48-.27-1.24-.51-2.34-.51-2.55,0-3.92,1.79-3.92,4.01,0,2.46,1.66,3.97,3.85,3.97,1.15,0,1.9-.28,2.48-.53l.36,1.44Z"></path><path class="cls-2" d="m381.09,254.79h2.02v10.59h-2.02v-10.59Zm2.25-2.97c.02.65-.48,1.18-1.28,1.18-.71,0-1.22-.53-1.22-1.18s.53-1.21,1.26-1.21,1.24.52,1.24,1.21"></path><path class="cls-2" d="m392.3,259.97c-2.21-.05-4.7.33-4.7,2.39,0,1.25.87,1.84,1.9,1.84,1.44,0,2.37-.88,2.68-1.77.07-.19.11-.42.11-.61v-1.85Zm1.96,2.87c0,.92.05,1.81.18,2.53h-1.84l-.16-1.34h-.07c-.62.83-1.81,1.58-3.39,1.58-2.25,0-3.39-1.51-3.39-3.04,0-2.56,2.39-3.97,6.67-3.94v-.21c0-.88-.25-2.46-2.52-2.46-1.04,0-2.11.3-2.9.79l-.46-1.27c.91-.56,2.24-.95,3.65-.95,3.39,0,4.22,2.21,4.22,4.34v3.98h0Z"></path></g><rect class="cls-2" x="397.5" y="249.85" width="2.02" height="15.54"></rect><g><path class="cls-2" d="m402.91,254.79h2.02v10.59h-2.02v-10.59Zm2.24-2.97c.02.65-.48,1.18-1.28,1.18-.71,0-1.22-.53-1.22-1.18s.53-1.21,1.26-1.21,1.24.52,1.24,1.21"></path><path class="cls-2" d="m408,263.41c.6.37,1.66.77,2.66.77,1.46,0,2.16-.7,2.16-1.58,0-.92-.57-1.42-2.06-1.95-1.99-.68-2.94-1.72-2.94-3,0-1.71,1.44-3.11,3.83-3.11,1.13,0,2.11.3,2.73.65l-.51,1.4c-.44-.27-1.24-.62-2.26-.62-1.19,0-1.86.65-1.86,1.44,0,.88.66,1.27,2.11,1.79,1.93.7,2.92,1.62,2.92,3.2,0,1.86-1.51,3.2-4.15,3.2-1.22,0-2.34-.3-3.12-.74l.5-1.45Z"></path><path class="cls-2" d="m419.79,252.25v2.53h2.9v1.46h-2.9v5.71c0,1.32.39,2.06,1.51,2.06.55,0,.87-.05,1.17-.14l.09,1.44c-.38.16-1,.28-1.79.28-.94,0-1.7-.3-2.17-.83-.57-.56-.78-1.51-.78-2.76v-5.78h-1.72v-1.46h1.72v-1.95l1.97-.57Z"></path><path class="cls-2" d="m424.66,263.41c.6.37,1.66.77,2.66.77,1.46,0,2.16-.7,2.16-1.58,0-.92-.57-1.42-2.06-1.95-1.99-.68-2.94-1.72-2.94-3,0-1.71,1.44-3.11,3.83-3.11,1.13,0,2.11.3,2.73.65l-.51,1.4c-.44-.27-1.24-.62-2.28-.62-1.19,0-1.86.65-1.86,1.44,0,.88.66,1.27,2.11,1.79,1.93.7,2.92,1.62,2.92,3.2,0,1.86-1.51,3.2-4.16,3.2-1.22,0-2.33-.3-3.12-.74l.52-1.45Z"></path><g><path id="SVGID" class="cls-2" d="m163.1,234.38s-2.91-4.83-1.1-8.44c1.8-3.59,5.11-4.84,5.11-4.84,0,0-3.18-3.04-11.34-2.77-8.17.28-18.26,2.76-23.11,4.01-4.84,1.24-14.94,4.43-23.24,5.25-8.3.83-19.19.99-28.77-.69-12.58-2.21-27.25-7.47-27.25-7.47v14.52s25.87,9.96,45.23,8.72c19.37-1.24,29.06-4.84,34.3-6.09,5.26-1.24,17.57-3.73,22.14-3.46,4.57.29,8.03,1.26,8.03,1.26"></path><g><path class="cls-2" d="m163.1,234.38s-2.91-4.83-1.1-8.44c1.8-3.59,5.11-4.84,5.11-4.84,0,0-3.18-3.04-11.34-2.77-8.17.28-18.26,2.76-23.11,4.01-4.84,1.24-14.94,4.43-23.24,5.25-8.3.83-19.19.99-28.77-.69-12.58-2.21-27.25-7.47-27.25-7.47v14.52s25.87,9.96,45.23,8.72c19.37-1.24,29.06-4.84,34.3-6.09,5.26-1.24,17.57-3.73,22.14-3.46,4.57.29,8.03,1.26,8.03,1.26"></path><g class="cls-1"><rect class="cls-2" x="53.39" y="218.05" width="113.72" height="25.87"></rect></g></g></g><path class="cls-2" d="m427.22,130.54s34.74-3.98,69.15,7.73c24.31,8.27,50.24,23.35,50.24,47.1,0,19.97-12.07,32.95-26.41,42.66-32.92,22.3-85.4,23.33-85.4,23.33,0,0,105.17-1.13,105.17-63.68,0-56.39-112.75-57.15-112.75-57.15"></path></g></g></g></svg> 