<?xml version="1.0" encoding="UTF-8"?> <svg xmlns="http://www.w3.org/2000/svg" id="Layer_1" width="600" height="400" viewBox="0 0 600 400"><defs><style>.cls-1{fill:#3c3382;}</style></defs><path class="cls-1" d="m540.13,230.66c5.21,0,9.87,3.75,9.87,9.58s-4.65,9.64-9.87,9.64-9.87-3.78-9.87-9.64,4.65-9.58,9.87-9.58Zm0,17.16c3.98,0,7.24-3.19,7.24-7.58s-3.26-7.53-7.24-7.53-7.24,3.16-7.24,7.53c0,4.39,3.21,7.58,7.24,7.58Zm-3.83-12.97h4.06c2.7,0,4.21.85,4.21,3.19,0,1.98-1.23,2.74-2.83,2.88l2.88,4.7h-2.23l-2.62-4.6h-1.34v4.6h-2.13v-10.77h0Zm2.14,4.5h1.9c1.21,0,2.11-.18,2.11-1.49,0-1.15-1.23-1.33-2.21-1.33h-1.8v2.83h0Z"></path><g><path class="cls-1" d="m549.99,170.13h-26.11v79.75h-29.62v-79.75h-25.69v-20.02h81.42v20.02h0Z"></path><path class="cls-1" d="m132.69,221.56c0,7.78-2.08,14.59-7.84,20.42-5.74,5.8-12.46,7.9-20.13,7.9h-54.72v-99.77h54.73c7.74,0,14.47,2.09,20.19,7.88,5.71,5.78,7.78,12.61,7.78,20.45s-2.54,15.18-7.61,20.77c5.07,5.65,7.61,12.07,7.61,19.26v3.08h0Zm-29.62-41.73c0-2.59-.79-5.03-2.69-6.97-1.9-1.93-4.28-2.73-6.82-2.73h-13.92v20h13.92c2.68,0,5.1-.87,6.92-2.92,1.84-2.08,2.59-4.64,2.59-7.38Zm0,39.89c0-2.56-.79-4.96-2.69-6.86-1.9-1.9-4.28-2.71-6.82-2.71h-13.92v19.74h13.92c2.68,0,5.1-.86,6.92-2.91,1.84-2.02,2.59-4.56,2.59-7.26Z"></path><path class="cls-1" d="m277.41,150.11c-7.64,0-10.51,6.53-11.36,10.29-1.09,4.84-10.42,44.48-10.61,45.31-.19-.82-9.52-40.46-10.62-45.31-.85-3.76-3.72-10.29-11.36-10.29h-20.84l28.69,99.77h28.27l28.69-99.77h-20.85Z"></path><path class="cls-1" d="m209.39,170.18v-20.07h-57.45c-8.68,0-15.71,7.03-15.71,15.71v68.3c0,8.68,7.03,15.71,15.71,15.71h6.68c.15,0,.29.04.44.04h50.33v-20.06h-43.54v-19.67h41.95v-20.02h-41.95v-19.95h43.53Z"></path><path class="cls-1" d="m463.62,170.18v-20.07h-57.45c-8.68,0-15.71,7.03-15.71,15.71v68.3c0,8.68,7.03,15.71,15.71,15.71h6.68c.15,0,.29.04.44.04h50.33v-20.06h-43.54v-19.67h41.95v-20.02h-41.95v-19.95h43.53Z"></path><path class="cls-1" d="m356.37,150.11v54.73c-4.39-8.92-22.27-45.32-23.23-47.37-1.42-3.01-4.89-7.36-12.1-7.36h-19.1v99.77h28.52v-52.77s21.08,43.15,22.18,45.46c1.42,3.02,4.44,7.3,12.32,7.3h19.96v-99.77h-28.54Z"></path></g></svg> 