<?xml version="1.0" encoding="UTF-8"?> <svg xmlns="http://www.w3.org/2000/svg" id="Layer_1" width="600" height="400" viewBox="0 0 600 400"><defs><style>.cls-1{fill:#fff;}</style></defs><path class="cls-1" d="m167.55,113.34c0-1.47-.49-3.42-.98-4.89h-1.47c-1.47,3.91-2.93,5.38-6.35,5.38-3.91,0-5.87-2.44-7.82-4.4h-1.96l-12.71,14.66,1.47,1.47,3.91-4.4c1.47.98,2.44,1.96,4.4,2.93,1.47.98,3.91,1.47,5.87,1.47v33.72l-25.42-42.52c-1.96-2.93-4.89-8.31-11.73-8.31-7.82,0-13.69,5.87-12.71,16.13l1.96.49c.49-2.93,1.96-5.38,4.4-5.38s3.91,1.47,4.89,3.42v13.69c-7.82,0-12.71,4.4-12.71,10.75,0,3.42,1.96,8.8,7.33,9.78l.49-1.47c-.98-.98-1.47-1.47-1.47-2.44,0-1.96,2.44-3.42,4.89-3.42h1.47v17.11c-8.8,0-15.64,4.89-15.64,13.69s7.33,13.2,15.15,12.71l.49-1.96c-4.89-.49-6.84-2.93-6.84-5.38,0-3.42,2.44-4.89,5.38-4.89,3.42,0,5.87,1.96,8.31,4.4l13.2-14.66-1.47-1.47-3.42,3.91c-3.91-3.42-7.82-5.87-12.71-6.35v-41.06l35.19,59.63h3.91v-60.12c6.35.49,12.71-3.91,12.71-12.22m32.75,53.76l-11.24,8.8-12.22-8.31v-4.4l21.99-13.69v-.49l-10.26-15.64-24.44,12.71v27.37l-4.89,3.42,1.47,1.96,4.89-3.42,15.15,11.24,21.02-17.11s-1.47-2.44-1.47-2.44Zm-23.46-6.35v-19.06l1.96-.49,8.8,12.71-10.75,6.84Zm99.22-21.99l-3.91,2.44-9.29-7.82-9.78,8.8,4.4,3.91v30.3l-1.96.98-9.29-5.38v-26.39l4.4-2.93-10.75-9.29-10.75,8.8,4.4,3.91v30.3l-1.47.49-9.78-6.84v-23.95c0-5.87-2.93-7.82-6.35-10.26-3.42-1.96-4.4-3.91-4.4-6.84,0-3.42,3.42-4.4,4.4-4.4l-.49-1.96c-4.89,0-13.2,4.4-13.2,12.22,0,4.4,1.96,5.87,4.4,8.31,2.44,1.96,4.4,4.4,4.4,7.82v23.46l-4.89,3.91,1.47,1.96,4.4-2.93,12.71,9.78,11.24-7.33,12.22,7.33,23.46-14.66v-27.86l5.87-4.4s-1.47-1.47-1.47-1.47Zm82.6-22.48l-3.91,2.93-10.75-9.29-14.17,11.73v-10.75h-2.44v69.4c-1.47,0-3.91-.98-6.84-1.47v-58.16c0-4.4-3.42-10.26-11.24-10.26-8.8,0-14.17,6.84-14.17,12.71h2.44c.49-2.93,2.44-4.89,4.4-4.89,2.93,0,4.4,1.47,4.4,7.33v16.13c-7.33.49-12.71,4.89-12.71,11.24,0,4.4,1.96,8.31,6.84,9.29l.49-1.96c-1.96-.98-2.44-1.96-2.44-2.93,0-2.44,2.44-3.42,5.38-3.42h1.96v26.39c-6.35,2.44-9.29,6.84-9.29,12.71,0,7.33,5.87,12.71,14.66,12.71,5.87,0,11.24-.98,16.62-2.44,4.4-.98,11.24-1.96,13.69-1.96,3.42,0,4.89,1.47,4.89,3.91,0,2.93-1.47,3.91-3.42,4.4l.49,1.96c7.33-1.47,11.73-5.87,11.73-12.71s-6.35-10.26-13.69-10.26c-3.91,0-12.22.98-17.6,2.44-5.87,1.47-12.22,1.96-13.69,1.96-3.42,0-6.84-1.96-6.84-5.87s3.91-6.84,11.24-6.84c4.4,0,8.31.98,13.2,1.96,4.89.98,9.29,2.44,14.17,2.44,6.35,0,12.71-2.44,12.71-11.73v-51.32l4.4-3.91s-.49-1.47-.49-1.47Zm-18.08,24.44c-1.47,1.47-2.93,2.44-5.38,2.44-2.93,0-4.4-.98-5.38-2.44v-17.11l4.4-3.42,6.35,4.89s0,15.64,0,15.64Zm0,13.2c-1.47-.98-2.44-1.96-5.38-1.96s-4.4.98-5.38,1.96v-10.26c.49.98,2.44,1.96,5.38,1.96,2.44,0,4.4-.98,5.38-1.96,0,0,0,10.26,0,10.26Zm0,18.57c0,3.91-2.44,7.82-6.84,7.82-.98,0-3.42,0-4.4-.49v-23.95c.98-.98,2.93-1.96,5.38-1.96s4.4.98,5.38,1.96v16.62h.49Zm61.58-28.35l-14.66-11.24-22.97,13.2v26.88l-4.89,3.42,1.47,1.96,4.4-2.93,14.17,10.26,22.48-13.69v-27.86Zm-24.44,25.9v-29.33l11.73,7.82v29.33l-11.73-7.82Zm67.45-36.66c-1.47,1.47-2.44,2.44-4.4,2.44s-4.4-.98-4.89-2.44h-.98l-7.33,8.31-7.82-8.31-13.69,9.78,1.47,1.96,3.91-2.44,3.91,3.91v25.9l-6.84,4.4,1.47,1.96,3.91-2.44,11.24,9.29,15.15-10.26-1.47-1.96-4.4,2.93-5.38-4.4v-28.84c3.42,3.42,6.35,4.4,9.29,4.4,5.87,0,9.29-7.33,9.78-14.17h-2.93Zm55.23,40.57l-4.4,2.93-20.04-29.81.98-1.96c1.96,1.47,4.4,3.42,9.29,3.42,5.38,0,10.75-5.87,11.73-14.66h-1.96c-1.96,2.44-3.42,3.91-6.35,3.91-1.96,0-4.89-1.47-6.84-3.91h-.98l-15.15,23.46,20.04,29.33,15.64-10.26s-1.96-2.44-1.96-2.44Zm-28.35,1.47l-3.42,2.44-3.91-3.91v-66.47h-1.96l-16.62,11.73v1.47c2.44.98,4.89,1.47,4.89,5.38v46.43l-6.84,4.4,1.47,1.96,3.91-2.44,10.75,9.29,12.71-8.8s-.98-1.47-.98-1.47Z"></path><g><polygon class="cls-1" points="395.8 307.14 394.82 307.14 385.53 315.44 385.53 316.42 393.84 325.22 394.82 325.22 404.11 316.91 404.11 315.93 395.8 307.14"></polygon><g><path class="cls-1" d="m128.44,303.71c-1.47,1.47-2.93,2.93-4.89,2.93-2.44,0-4.4-.49-5.87-.98-2.93-.98-5.38-1.96-7.82-1.96-3.91,0-10.75,2.44-14.17,12.71l1.96.98c.98-1.96,2.44-4.4,5.87-4.4,1.96,0,4.4.49,5.87.98,1.47.49,4.4.98,5.87.98,5.87,0,11.73-6.35,15.15-10.26,0,0-1.96-.98-1.96-.98Z"></path><path class="cls-1" d="m197.36,368.72l-3.91,2.93-4.89-4.4v-47.41l5.38-4.4-.98-.98-4.4,2.93-13.69-12.22-11.24,6.84v-5.87h-2.44v6.84l-5.87,3.91-14.17-11.73-20.04,12.71c-3.91,2.44-12.71,8.8-12.71,16.13v.98c-7.82.49-12.22,4.4-12.22,11.24,0,2.93.98,4.4,1.47,5.87h1.95v-.98c0-2.93,1.47-4.89,5.87-4.89h3.42v7.33c0,4.89-.49,8.8-4.89,9.78l.49,1.96c12.22-1.96,17.6-5.87,17.6-15.15v-23.95c0-4.4,2.93-7.33,5.87-10.26v38.12c0,9.78-4.4,12.22-8.8,12.71-4.4.98-8.31.49-12.71,2.44-3.91,1.47-7.33,4.4-7.33,10.75,0,8.31,5.87,11.73,12.22,11.73v-2.44c-2.93,0-5.38-.98-5.38-3.91,0-2.44,1.47-3.91,4.89-4.4,2.93-.49,5.87-.49,9.29-1.47,4.4-.98,10.75-5.38,10.75-13.2v-14.66c.98-.98,2.93-1.95,5.38-1.95s4.4.98,5.38,1.95v16.62l-6.35,4.4.98,1.47,3.42-2.44,11.73,9.78,17.11-12.71-1.47-1.47-2.93,1.95v-17.6c.98-.98,2.93-1.95,5.38-1.95s4.4.98,5.38,1.95v16.13l-5.87,4.4.98,1.47,3.42-2.44,11.24,9.78,14.66-12.22h-1.95Zm-56.21-19.06c-1.47-.98-2.93-1.95-5.38-1.95-2.93,0-4.4.98-5.38,1.95v-10.26c.98.98,2.93,1.96,5.38,1.96s4.4-.98,5.38-1.96v10.26Zm.49-13.2h-.49c-1.47,1.47-3.42,1.95-5.38,1.95-2.93,0-4.4-.98-5.38-1.95v-20.53l11.24,7.82v12.71Zm19.06,34.21l-5.87-4.4v-47.41l5.87-3.91v55.72Zm13.69-21.02c-1.47-.98-2.93-1.95-5.38-1.95-2.93,0-4.4.98-5.38,1.95v-10.26c.98.98,2.93,1.96,5.38,1.96s4.4-.98,5.38-1.96v10.26Zm0-13.2c-1.47,1.47-3.42,1.95-5.38,1.95-2.93,0-4.4-.98-5.38-1.95v-21.02l10.75,8.8v12.22Z"></path><path class="cls-1" d="m246.24,370.19l-4.4,2.93-4.89-4.89v-26.39l4.89-3.42-.98-1.95-4.4,2.93-15.15-9.78-11.24,5.87c-3.91,1.95-6.35,4.4-6.35,8.8s4.4,6.84,8.8,9.29c-5.87,3.42-12.22,7.82-12.22,14.66,0,8.31,7.82,12.71,13.69,13.69l10.75-7.82,7.82,7.82,14.17-9.78-.49-1.95Zm-21.51,2.44c-.49,0-1.95.49-2.93.49-4.89,0-9.29-5.87-9.29-12.71,0-2.44.49-4.4,1.96-6.35,3.42,1.47,8.31,2.93,10.26,3.42v15.15Zm-.49-18.08v-.13c-7.31-1.96-17.6-4.89-17.6-11.11,0-3.91,2.93-5.38,4.89-6.35l12.71,7.82v9.64c.16.04.33.09.49.13h-.49Z"></path><path class="cls-1" d="m287.78,367.25v-26.39l4.89-3.42-1.95-1.47-3.91,2.93-13.69-10.26-22.97,13.2v29.33l14.66,10.26,9.78-6.84c0,4.89,3.42,8.31,3.42,11.24,0,1.95-1.95,3.91-3.91,4.4-3.42-2.93-7.33-5.38-13.2-5.38-7.82,0-12.71,4.89-15.64,11.24l1.47.98c2.44-1.47,3.91-2.93,6.35-2.93,3.91,0,7.82,1.95,11.73,5.87,0,0,8.31-5.87,13.69-9.78,2.93-1.96,5.87-3.91,8.31-4.89,1.95-1.47,3.91-3.42,3.91-5.38s-.49-3.91-1.47-4.89c-.49-1.96-1.47-3.91-1.47-7.82Zm-13.69,4.89l-11.73-7.33v-28.84l11.73,7.82v28.35Z"></path><path class="cls-1" d="m339.59,370.19l-4.4,2.93-4.89-4.89v-26.39l4.89-3.42-.98-1.95-4.4,2.93-15.15-9.78-10.75,5.87c-3.91,1.95-6.35,4.4-6.35,8.8s4.4,6.84,8.8,9.29c-5.87,3.42-12.22,7.82-12.22,14.66,0,8.31,7.82,12.71,13.69,13.69l10.75-7.82,7.82,7.82,14.17-9.78-.98-1.95Zm-21.99,2.44c-.49,0-1.95.49-2.93.49-4.89,0-9.29-5.87-9.29-12.71,0-2.44.49-4.4,1.96-6.35,3.42,1.47,8.31,2.93,10.26,3.42v15.15Zm-.49-18.08v-.13c-7.31-1.96-17.6-4.89-17.6-11.11,0-3.91,2.93-5.38,4.89-6.35l12.71,7.82v9.64c.16.04.33.09.49.13h-.49Z"></path><path class="cls-1" d="m380.16,366.76l-2.93,3.42c-4.4-2.44-11.24-3.91-14.17-3.91-4.4,0-9.29.49-12.22,1.47h-.49c1.96-2.93,4.89-5.87,6.84-8.31h10.75l8.31-9.78-1.47-1.47-2.93,2.93h-9.29c7.33-6.84,13.2-12.71,17.11-20.04l-.98-1.47c-4.4,2.44-7.82,3.91-13.69,3.91s-12.71-2.44-15.64-3.91h-.98l-7.82,14.66,1.96.98,2.44-3.91c2.93,1.47,7.82,2.93,12.71,2.93,2.93,0,6.84-.49,9.78-1.47l-7.33,7.82h-9.78l-8.31,9.78,1.47,1.47,2.93-2.93h8.31c-7.82,8.31-12.71,13.69-14.66,21.51l.98.98c3.91-3.42,8.8-4.4,14.66-4.4,4.89,0,11.73,2.44,14.66,3.91h.49l10.75-13.2-1.47-.98h0Z"></path><polygon class="cls-1" points="409.48 369.7 405.08 372.63 401.66 369.21 401.66 338.42 393.84 329.13 380.16 338.42 381.62 340.37 385.53 337.93 388.95 342.33 388.95 369.21 382.6 373.61 384.07 375.56 387.49 373.12 397.26 381.92 411.93 371.65 409.48 369.7 409.48 369.7"></polygon><polygon class="cls-1" points="463.25 369.7 459.34 372.63 454.94 368.72 454.94 341.84 459.34 338.42 457.87 336.46 453.47 339.39 442.23 329.62 430.99 338.42 423.17 329.62 408.99 339.39 410.46 341.35 414.37 338.9 418.28 343.3 418.28 370.19 414.37 373.61 426.1 382.89 435.88 374.1 431.48 370.19 431.48 341.35 435.88 338.9 443.21 345.26 443.21 370.19 439.79 373.61 450.05 382.89 465.2 372.63 463.25 369.7"></polygon><g><polygon class="cls-1" points="503.32 362.85 503.32 362.85 503.32 362.85 503.32 362.85"></polygon><path class="cls-1" d="m503.32,362.85l-11.24,8.8-12.22-8.31v-4.4l21.99-13.69v-.49l-10.26-15.64-24.44,12.71v28.35l16.13,11.73,21.02-17.11-.98-1.95Zm-22.97-25.42l1.95-.49,8.8,12.71-10.75,6.84v-19.06Z"></path></g></g></g><g><path class="cls-1" d="m223.26,274.9v-17.11l6.84-5.38v-.49l-6.84-5.38v-13.2c6.84.98,13.69-2.93,13.69-11.24,0-9.29-9.29-12.22-16.62-11.73v1.95c4.4.49,7.82,1.47,7.82,3.91,0,1.95-.98,3.91-4.89,3.91-3.42,0-9.78-1.96-14.66-3.42-5.38-1.95-11.73-3.91-16.13-3.91-8.8,0-15.64,5.38-15.64,13.2,0,6.84,4.4,9.78,6.84,10.75l.98-1.47c-1.47-.98-2.44-1.96-2.44-4.4,0-1.95,1.95-4.89,5.87-4.89,2.44,0,4.4.49,7.33.98,2.93.49,5.87,1.47,9.78,2.44,5.87,1.95,11.24,3.42,16.13,3.91v12.71l-6.35,5.38v1.47l6.35,5.38v18.08c-3.42,1.96-6.84,2.44-10.75,2.44-6.35,0-12.71-1.47-17.6-5.87l18.08-8.8v-29.81l-22.48,9.78c2.44-4.89,5.87-9.29,10.75-12.22l-.98-1.47c-12.71,3.42-24.44,14.66-24.44,29.81,0,17.6,14.66,30.3,32.26,30.3,19.06,0,30.3-13.69,30.3-28.84h-1.95c-2.93,5.38-6.35,10.75-11.24,13.2Zm-36.66-19.55c0-2.93,0-5.87.98-7.82l10.75-4.4-.98,25.9-5.87,2.93c-3.42-3.91-4.89-9.78-4.89-16.62Z"></path><polygon class="cls-1" points="253.08 216.74 252.59 216.74 243.3 225.05 243.3 226.03 251.61 234.82 252.59 234.82 261.88 226.52 261.88 225.54 253.08 216.74 253.08 216.74"></polygon><polygon class="cls-1" points="267.74 279.3 263.34 282.23 259.92 278.81 259.92 248.02 252.1 238.73 237.93 248.02 239.39 249.98 243.3 247.53 246.72 251.93 246.72 278.81 240.37 283.21 241.84 285.17 245.26 282.72 255.03 291.52 269.7 281.26 267.74 279.3"></polygon><polygon class="cls-1" points="344.97 279.3 341.06 282.23 337.15 278.32 337.15 251.44 341.54 248.02 340.57 246.07 336.17 249 324.93 239.22 312.22 248.51 301.47 239.22 288.27 248.02 280.45 239.22 266.28 249 267.74 250.95 271.65 248.51 275.56 252.91 275.56 279.79 271.65 283.21 283.38 292.5 293.16 283.7 288.76 279.79 288.76 250.95 293.16 248.51 300 254.86 300 280.28 296.09 283.7 306.35 292.5 317.11 283.7 312.71 279.79 312.71 251.44 316.62 249 323.95 255.35 323.95 280.28 320.53 283.7 330.79 292.99 345.45 282.72 344.97 279.3"></polygon><path class="cls-1" d="m384.56,272.46l-11.24,8.8-12.22-8.31v-4.4l21.99-13.69v-.49l-10.26-15.64-24.44,12.71v28.35l16.13,11.73,21.02-17.11-.98-1.95Zm-22.97-25.42l1.95-.49,8.8,12.71-10.75,6.84v-19.06Z"></path><path class="cls-1" d="m416.81,257.8c5.38-4.89,8.31-12.22,8.31-16.13v-2.93h-1.47c-.98,2.44-2.93,4.4-5.87,4.4-3.42,0-5.38-1.95-7.33-4.4l-21.02,12.22v14.66l7.82,6.35c-7.33,6.35-9.78,10.26-9.78,14.66s2.93,7.82,6.35,9.29l.98-1.47c-.98-.98-1.95-1.47-1.95-2.93s1.47-3.91,4.4-3.91c4.4,0,6.84,2.93,8.31,4.4l20.04-12.22v-15.15h.49l-9.29-6.84Zm-3.91,27.37c-2.44-5.38-6.84-8.8-12.71-8.8-1.96,0-4.4.98-6.84,2.44,1.95-3.42,8.31-8.8,13.69-12.22l5.38,4.4.49,14.17h0Zm-6.35-21.99l-4.4-4.4v-14.17c1.95,4.89,5.87,8.31,11.73,8.31,1.47,0,3.91-.49,5.38-1.47-2.93,4.89-9.78,9.78-12.71,11.73Z"></path></g><g><path class="cls-1" d="m270.43,64.57v-17.11l6.84-5.38v-.49l-6.84-5.38v-13.2c6.84.98,14.17-2.93,14.17-11.24,0-9.29-9.29-12.22-16.62-11.73v1.95c4.4.49,7.82,1.47,7.82,3.91,0,1.95-.98,3.91-4.89,3.91-3.42,0-9.78-1.96-14.66-3.42-5.87-1.95-12.22-3.91-16.62-3.91-8.8,0-15.64,5.87-15.64,13.69,0,6.84,4.4,9.78,6.84,10.75l.98-1.47c-1.47-.98-2.44-1.95-2.44-4.4,0-1.95,1.95-4.89,5.87-4.89,2.44,0,4.4.49,7.33.98,2.93.49,5.87,1.47,9.78,2.44,5.87,1.96,11.24,3.42,16.13,3.91v12.71l-6.35,5.38v1.47l6.35,5.38v18.08c-3.42,1.95-6.84,2.44-10.75,2.44-6.35-.49-12.71-1.47-17.11-6.35l18.08-8.8v-29.81l-22.97,9.78c2.44-4.89,5.87-9.29,10.75-12.22l-.98-1.47c-12.71,3.42-24.44,14.66-24.44,29.81,0,17.6,14.66,30.3,32.26,30.3,19.06,0,30.3-13.69,30.3-28.84h-1.95c-2.93,5.38-6.35,10.75-11.24,13.2Zm-36.17-19.55c0-2.93,0-5.87.98-7.82l10.26-4.89-.49,26.39-5.87,2.93c-3.42-3.91-4.89-9.78-4.89-16.62Z"></path><path class="cls-1" d="m334.95,35.24l-3.91,2.93-11.73-9.78-12.71,9.29V2.5h-1.96l-16.62,11.73v1.47c2.44.98,4.89,1.47,4.89,5.38v46.43l-6.84,4.4,1.47,1.96,3.91-2.44,10.75,9.29,12.71-8.8-1.47-1.96-2.93,2.44-3.91-3.91v-29.33l4.4-2.93,7.33,6.84v24.44c0,16.13-4.4,19.55-11.24,21.99v2.44c13.2.49,24.44-4.4,24.44-25.42v-26.88l4.4-3.42-.98-.98Z"></path><path class="cls-1" d="m377.47,62.12l-11.24,8.8-12.22-8.31v-4.4l21.99-13.69v-.49l-10.26-15.64-24.44,12.71v27.37l-4.89,3.42,1.47,1.96,4.89-3.42,15.15,11.24,21.02-17.11-1.47-2.44Zm-23.46-25.42l1.96-.49,8.8,12.71-10.75,6.84v-19.06Z"></path></g></svg> 