<?xml version="1.0" encoding="UTF-8"?> <svg xmlns="http://www.w3.org/2000/svg" id="Layer_1" width="600" height="400" viewBox="0 0 600 400"><defs><style>.cls-1{fill:#3a357e;}</style></defs><polygon class="cls-1" points="201.92 68.6 154.6 116.03 154.52 68.6 201.92 68.6"></polygon><rect class="cls-1" x="225.49" y="68.6" width="59.32" height="165.68"></rect><circle class="cls-1" cx="335.33" cy="210.71" r="23.77"></circle><path class="cls-1" d="m420.38,151.95c7.78,7.83,12.82,17.23,15.33,27.97.83,3.56,1.27,7.17,1.44,10.83.48,10.36-1.66,20.13-6.29,29.37-2.66,5.32-6.08,10.12-10.25,14.38-.19.19-.39.38-.59.56-.06.06-.25.22-.25.22,0,0-52.99-52.9-78.96-78.9-2.68-2.68-5.35-5.38-7.78-8.28-5.98-7.13-9.96-15.29-12-24.39-.74-3.3-1.21-6.63-1.39-10.02-.76-14.48,3.28-27.5,11.93-39.09,1.59-2.12,5.45-6.23,5.45-6.23,0,0,65.29,65.38,83.36,83.57Z"></path><polygon class="cls-1" points="426.2 68.6 426.25 116.02 378.8 68.6 426.2 68.6"></polygon><path class="cls-1" d="m291.41,327.17c.66-.77,1.27-1.47,1.93-2.24.52.39,1.02.75,1.51,1.13,2.34,1.8,4.99,2.65,7.94,2.52,1.23-.05,2.38-.38,3.44-1.05,2.22-1.4,2.74-5.25-.25-6.66-1.33-.63-2.79-.98-4.2-1.41-1.54-.48-3.12-.86-4.65-1.38-.75-.26-1.47-.69-2.13-1.15-1.52-1.08-2.29-2.58-2.44-4.46-.42-5.05,3.39-7.49,6.93-7.94,2.62-.33,5.23-.1,7.67,1.06.69.33,1.34.73,1.99,1.13.41.26.79.58,1.3.96-.59.82-1.14,1.57-1.76,2.42-.48-.32-.88-.59-1.27-.86-2.04-1.38-4.29-2.05-6.76-1.96-1.05.04-2.04.31-2.96.83-1.33.75-2.02,1.88-2.04,3.41-.01,1.51.73,2.55,2.03,3.25,1.6.88,3.36,1.25,5.12,1.66,2.2.51,4.37,1.1,6.18,2.56,1.34,1.08,2.1,2.44,2.17,4.17.05,1.31.01,2.6-.57,3.83-.9,1.92-2.46,3.06-4.37,3.8-.54.21-7.14,3.19-14.81-3.63Z"></path><polygon class="cls-1" points="518.3 307.78 509.65 307.78 509.65 330.99 506.39 330.99 506.39 307.78 497.78 307.78 497.78 304.8 518.3 304.8 518.3 307.78"></polygon><polygon class="cls-1" points="102.22 307.78 93.57 307.78 93.57 330.99 90.31 330.99 90.31 307.78 81.7 307.78 81.7 304.8 102.22 304.8 102.22 307.78"></polygon><path class="cls-1" d="m254.17,320.53c2.59,3.46,7.82,10.47,7.82,10.47h-3.88s-4.99-6.66-7.55-10.07h-7.13l-.08,10.07h-3.23v-26.19s8.3-.06,11.87-.01c2.49.04,9.05.97,9.05,7.88s-5.76,7.4-6.87,7.86Zm-10.73-12.71v10.22s5.92.02,8.8-.01c1.09-.01,5.57-.57,5.57-5.39s-4.32-4.77-5.06-4.79c-3.06-.07-9.32-.03-9.32-.03Z"></path><polygon class="cls-1" points="361.14 319.46 346.25 319.46 346.25 330.99 343.27 330.99 343.23 304.8 346.25 304.8 346.25 316.32 361.14 316.32 361.14 304.8 364.14 304.8 364.14 330.99 361.14 330.99 361.14 319.46"></polygon><polygon class="cls-1" points="448.66 330.99 448.66 304.8 467.54 304.8 467.54 307.47 451.77 307.6 451.77 316.41 465.77 316.41 465.77 319.14 451.77 319.25 451.77 328.1 467.74 328.11 467.74 330.99 448.66 330.99"></polygon><polygon class="cls-1" points="397.58 330.99 397.58 304.8 416.46 304.8 416.46 307.47 400.69 307.6 400.69 316.41 414.68 316.41 414.68 319.14 400.69 319.25 400.69 328.1 416.65 328.11 416.65 330.99 397.58 330.99"></polygon><polygon class="cls-1" points="133.71 330.99 133.71 304.8 152.59 304.8 152.59 307.47 136.82 307.6 136.82 316.41 150.82 316.41 150.82 319.14 136.82 319.25 136.82 328.1 152.79 328.11 152.79 330.99 133.71 330.99"></polygon><path class="cls-1" d="m194.43,304.8h2.82l11.95,26.19h-3.41l-3.08-6.87h-13.93s-3.15,6.87-3.15,6.87h-3.11l11.9-26.19Zm7.03,16.42l-5.7-12.8-5.76,12.8h11.46Z"></path></svg> 