<?xml version="1.0" encoding="UTF-8"?> <svg xmlns="http://www.w3.org/2000/svg" id="Layer_1" width="600" height="400" viewBox="0 0 600 400"><defs><style>.cls-1{fill:#3c3382;}</style></defs><path class="cls-1" d="m62.52,199.95c0,18.05,10.47,27.83,26.29,27.83s26.29-9.78,26.29-27.73-10.37-27.83-26.29-27.83-26.29,9.67-26.29,27.73Zm15.6,0c0-20.1,4.17-26.01,10.69-26.01s10.79,6.02,10.79,26.11-4.27,26.01-10.79,26.01-10.69-6.02-10.69-26.11Zm40.61,0c0,18.05,10.48,27.83,26.29,27.83s26.4-9.78,26.4-27.73-10.37-27.83-26.4-27.83-26.29,9.67-26.29,27.73Zm15.61,0c0-20.1,4.17-26.01,10.69-26.01s10.9,6.02,10.9,26.11-4.27,26.01-10.9,26.01-10.69-6.02-10.69-26.11Zm101.21-41.38c0,4.19,3.42,7.31,7.48,7.31,4.27,0,7.69-3.12,7.69-7.31,0-4.4-3.42-7.52-7.69-7.52s-7.48,3.12-7.48,7.52Zm78.98,58.78c0-6.77.21-16.65.21-22.68,0-15.15-5.66-22.46-16.03-22.46-8.44,0-14,4.62-16.67,13.43v-12.57h-21.27v.22l5.02,3.65c1.6,1.19,2.46,2.58,2.46,5.7v34.71c0,3.12-.86,4.51-2.46,5.7l-5.02,3.65v.22h28.75v-.22l-5.03-3.65c-1.6-1.19-2.46-2.58-2.46-5.7v-30.84c2.35-3.98,5.45-6.66,9.94-6.66,6.63,0,8.98,6.02,8.98,17.84,0,4.84-.21,20.53-.21,19.66,0,3.12-.86,4.51-2.46,5.7l-5.02,3.65v.22h28.75v-.22l-5.02-3.65c-1.61-1.19-2.46-2.58-2.46-5.7h0Zm31.1-45.13c-11.97,0-21.7,5.91-21.7,17.94,0,8.92,5.45,14.29,13.15,16.55-7.8,1.83-12.4,6.45-12.4,12.15,0,5.16,3.53,9.35,10.26,10.74-8.66,1.72-12.72,6.02-12.72,11.07,0,8.17,11.33,12.14,22.23,12.14,14.86,0,27.57-7.52,27.57-20.52,0-9.78-6.95-15.05-19.56-15.05h-8.87c-6.73,0-10.15-2.04-10.15-5.05,0-1.93,1.39-3.98,5.13-5.05,2.35.53,4.7.75,7.37.75,12.08,0,22.12-5.59,22.12-17.2,0-5.91-2.67-9.78-5.88-12.36h10.15v-16.55h-.21l-9.83,12.04c-1.28,1.51-2.67,2.04-4.7.86-3.1-1.5-7.05-2.47-11.97-2.47h0Zm-6.84,57.92l12.18.43c8.98.32,12.08,3.55,12.08,8.6,0,7.84-7.69,11.61-15.6,11.61-8.55,0-16.89-4.19-16.89-12.36,0-4.08,2.03-6.77,5.56-8.6l2.67.32Zm7.26-23.96c-5.45,0-8.44-4.95-8.44-16.12s2.89-16.23,8.44-16.23,8.34,5.05,8.34,16.23-2.78,16.12-8.34,16.12h0Zm87.64-47.61c0,4.19,3.42,7.31,7.59,7.31s7.59-3.12,7.59-7.31c0-4.4-3.31-7.52-7.59-7.52s-7.58,3.12-7.58,7.52Zm151.76,16.55h14.53v-2.04h-14.53v-18.05h-.21l-10.58,14.83c-1.5,2.15-3.63,3.22-5.88,3.22h-3.95v2.04h6.84v39.01c0,9.13,4.49,13.65,12.82,13.65,9.4,0,13.68-6.02,14.75-12.25l-.21-.11c-1.18,2.8-4.06,5.37-7.59,5.37-3.74,0-5.98-2.9-5.98-7.84v-37.83h0Zm-393.73,24.5l1.07-.75c.43-.32,1.18-.64,1.71-.64.85,0,1.5.32,2.14,1.72l11.65,26.98h19.77v-.22l-5.02-3.97c-1.28-1.07-2.67-2.9-3.53-4.84l-12.82-27.83c-.43-.86-.21-1.18.64-1.93l19.34-14.83v-.22h-22.87v.22l5.24,6.55c1.6,1.83,1.28,3.76-.21,4.94l-17.1,13.65v-51.26l-21.27,2.58v.21l5.02,3.76c1.71,1.29,2.46,2.68,2.46,5.16v58.46c0,3.11-.86,4.51-2.46,5.69l-5.02,3.65v.22h28.75v-.22l-5.02-3.65c-1.6-1.19-2.46-2.58-2.46-5.7v-17.73Zm-155.18,28.37c6.73,0,13.9-.64,21.38-2.26v-17.41h-.21l-12.08,12.25c-2.56,2.58-5.77,5.48-9.83,5.48-11.43,0-18.38-13.86-18.38-37.72,0-22.35,6.09-37.83,18.38-37.83,4.06,0,7.27,2.9,9.83,5.48l12.08,12.25h.21v-17.3c-7.09-1.54-14.33-2.33-21.59-2.36-23.3,0-36.34,16.22-36.34,39.97s12.18,39.44,36.55,39.44h0Zm367.02-78.23h-29.61v.21l5.02,3.65c1.6,1.18,2.46,2.58,2.46,5.69v58.03c0,3.11-.86,4.51-2.46,5.69l-5.02,3.65v.22h50.87v-19.34h-.21l-11.22,13.86c-1.82,2.25-3.74,3.33-7.05,3.33h-6.41c-3.1,0-3.85-.64-3.85-3.87v-61.58c0-3.11.86-4.51,2.46-5.69l5.02-3.65s0-.21,0-.21Zm-174.32,23.32v.22l5.02,3.65c1.6,1.19,2.46,2.58,2.46,5.7v34.71c0,3.12-.85,4.51-2.46,5.7l-5.02,3.65v.22h28.75v-.22l-5.02-3.65c-1.6-1.19-2.46-2.58-2.46-5.7v-44.27s-21.27,0-21.27,0Zm198.25,0v.22l5.02,3.65c1.6,1.19,2.46,2.58,2.46,5.7v34.71c0,3.12-.75,4.62-2.35,5.8l-4.06,3.55v.22h27.68v-.22l-5.02-3.65c-1.6-1.19-2.46-2.58-2.46-5.7v-44.27h-21.27Zm52.9-.86c-11.97,0-21.69,5.91-21.69,17.94,0,8.92,5.45,14.29,13.14,16.55-7.8,1.83-12.4,6.45-12.4,12.15,0,5.16,3.53,9.35,10.26,10.74-8.66,1.72-12.72,6.02-12.72,11.07,0,8.17,11.33,12.14,22.23,12.14,14.85,0,27.57-7.52,27.57-20.52,0-9.78-6.95-15.05-19.56-15.05h-8.87c-6.73,0-10.15-2.04-10.15-5.05,0-1.93,1.39-3.98,5.13-5.05,2.35.53,4.7.75,7.37.75,12.08,0,22.12-5.59,22.12-17.2,0-5.91-2.67-9.78-5.88-12.36h10.15v-16.55h-.21l-9.83,12.04c-1.28,1.51-2.67,2.04-4.7.86-3.1-1.5-7.05-2.47-11.97-2.47Zm-6.84,57.92l12.18.43c8.98.32,12.08,3.55,12.08,8.6,0,7.84-7.7,11.61-15.61,11.61-8.55,0-16.89-4.19-16.89-12.36,0-4.08,2.03-6.77,5.56-8.6l2.67.32h0Zm7.27-23.96c-5.45,0-8.44-4.95-8.44-16.12s2.89-16.23,8.44-16.23,8.34,5.05,8.34,16.23-2.78,16.12-8.34,16.12Zm79.62,11.17c.21-8.6.21-16.65.21-22.68,0-15.15-5.66-22.46-15.92-22.46-8.44,0-14.11,4.62-16.67,13.43v-38.47l-21.27,2.58v.21l5.02,3.76c1.71,1.29,2.46,2.68,2.46,5.16v58.46c0,3.11-.75,4.51-2.35,5.69l-4.06,3.65v.22h27.68v-.22l-5.02-3.65c-1.6-1.19-2.46-2.58-2.46-5.7v-30.84c2.24-3.98,5.56-6.66,9.94-6.66,6.63,0,8.98,6.02,8.98,17.84,0,4.84-.21,16.55-.32,19.66,0,3.12-.75,4.51-2.35,5.7l-5.02,3.65v.22h28.75v-.22l-5.03-3.65c-1.6-1.19-2.56-2.58-2.56-5.7Z"></path></svg> 