<?xml version="1.0" encoding="UTF-8"?> <svg xmlns="http://www.w3.org/2000/svg" xmlns:xlink="http://www.w3.org/1999/xlink" version="1.1" id="Layer_1" x="0px" y="0px" viewBox="0 0 600 400" style="enable-background:new 0 0 600 400;" xml:space="preserve"> <style type="text/css"> .st0{fill:#FFFFFF;} </style> <g> <g> <path class="st0" d="M101.5,154.4v12.9h34.4v21H78.8v-87.6h56.4v20.9h-33.7v12.1h30.6v20.6H101.5z"></path> <path class="st0" d="M187.4,131.6v-5.8h20.8v62.5h-20.8v-5.8c-4.3,5-10.2,7.5-17.8,7.5c-8.5,0-15.5-3.1-21.1-9.4 c-5.6-6.3-8.4-14.2-8.4-23.6c0-9.5,2.8-17.3,8.4-23.5c5.6-6.3,12.6-9.5,21.1-9.5C177.2,124.1,183.1,126.6,187.4,131.6z M164.6,167 c2.3,2.5,5.5,3.8,9.5,3.8c4,0,7.2-1.3,9.5-3.8c2.4-2.6,3.6-5.9,3.6-9.9s-1.2-7.3-3.6-9.9c-2.3-2.5-5.5-3.8-9.5-3.8 c-4,0-7.2,1.3-9.5,3.8c-2.4,2.6-3.6,5.9-3.6,9.9S162.2,164.4,164.6,167z"></path> <path class="st0" d="M258.7,125.8v19.9h-12.8v18.1c0,2.7,0.9,4.4,2.8,5.1c1.8,0.7,5.2,0.9,10,0.7v18.8 c-12.1,1.5-20.8,0.4-25.8-3.4c-4.9-3.9-7.4-10.8-7.4-20.6v-18.6h-9.2v-19.9h9.2v-11.3l20.4-6.3v17.5H258.7z"></path> <path class="st0" d="M271.4,100.8h65.3v21.6h-21.5v65.9h-22.3v-65.9h-21.5V100.8z"></path> <path class="st0" d="M380.2,124.1c7,0,12.6,2.4,16.8,7.1c4.2,4.7,6.4,11.3,6.4,19.8v37.4h-20.9v-34.8c0-3.2-0.8-5.6-2.5-7.3 c-1.7-1.7-4-2.6-6.9-2.6c-3.3,0-5.8,1-7.6,2.9c-1.8,2-2.7,4.8-2.7,8.4v33.3h-20.9v-87.6h20.9v31.3 C366.4,126.7,372.3,124.1,380.2,124.1z"></path> <path class="st0" d="M429.7,117.2c-2.3,2.3-5,3.5-8.2,3.5s-5.9-1.2-8.3-3.5c-2.3-2.4-3.4-5.3-3.4-8.5c0-3.3,1.1-6,3.4-8.4 c2.4-2.3,5.1-3.5,8.3-3.5s5.9,1.2,8.2,3.5c2.4,2.3,3.5,5.1,3.5,8.4C433.3,111.9,432.1,114.8,429.7,117.2z M431.7,188.3h-20.2 v-62.5h20.2V188.3z"></path> <path class="st0" d="M461,144.1c0,1.1,0.9,2,2.7,2.7c1.8,0.7,4.5,1.5,8.2,2.3c2.5,0.5,4.8,1.1,6.9,1.9c2.1,0.8,4.2,1.9,6.4,3.4 c2.1,1.5,3.8,3.5,5,6c1.2,2.5,1.8,5.4,1.8,8.7c0,7.3-2.7,12.5-8,15.9c-5.4,3.4-11.7,5.1-18.9,5.1c-13.9,0-23.2-5-27.9-14.9 l18.1-9.1c1.6,4.6,4.8,6.9,9.7,6.9c3.7,0,5.6-1.1,5.6-3.4c0-1.1-0.9-2-2.6-2.7c-1.7-0.7-4.4-1.5-8.2-2.4c-2.5-0.5-4.8-1.2-6.8-2.1 c-2-0.9-4.1-2-6.2-3.4c-2.1-1.4-3.8-3.3-4.9-5.7c-1.2-2.4-1.7-5.1-1.7-8.2c0-6.7,2.4-11.8,7.3-15.5c4.9-3.7,10.8-5.5,17.7-5.5 c12.2,0,20.8,4.8,25.7,14.5l-17.4,7.9c-1.8-3.6-4.4-5.4-7.7-5.4C462.5,141.1,461,142.1,461,144.1z"></path> <path class="st0" d="M498.2,166.6h23l-10.6,39.3h-16.9L498.2,166.6z"></path> </g> <g> <path class="st0" d="M435.6,244.7v-5.8h20.8v62.5h-20.8v-5.8c-4.3,5-10.2,7.5-17.8,7.5c-8.5,0-15.5-3.1-21.1-9.4 c-5.6-6.3-8.4-14.2-8.4-23.6c0-9.5,2.8-17.3,8.4-23.5c5.6-6.3,12.6-9.5,21.1-9.5C425.4,237.2,431.4,239.7,435.6,244.7z M412.9,280.1c2.3,2.5,5.5,3.8,9.5,3.8s7.2-1.3,9.5-3.8c2.4-2.6,3.6-5.9,3.6-9.9s-1.2-7.3-3.6-9.9c-2.3-2.5-5.5-3.8-9.5-3.8 s-7.2,1.3-9.5,3.8c-2.4,2.6-3.6,5.9-3.6,9.9S410.5,277.5,412.9,280.1z"></path> <path class="st0" d="M251.5,213.9h65.3v21.6h-21.5v65.9h-22.3v-65.9h-21.5V213.9z"></path> <path class="st0" d="M360.4,237.2c7,0,12.6,2.4,16.8,7.1c4.2,4.7,6.4,11.3,6.4,19.8v37.4h-20.9v-34.8c0-3.2-0.8-5.6-2.5-7.3 c-1.7-1.7-4-2.6-6.9-2.6c-3.3,0-5.8,1-7.6,2.9c-1.8,2-2.7,4.8-2.7,8.4v33.3h-20.9v-87.6h20.9v31.3 C346.6,239.8,352.5,237.2,360.4,237.2z"></path> <path class="st0" d="M98.6,257.9v-44h22.4v87.6h-17.4l-31.1-44v44H50v-87.6h17.5L98.6,257.9z"></path> <path class="st0" d="M161,303.2c-9.4,0-17.4-3.2-23.8-9.5c-6.6-6.3-9.8-14.2-9.8-23.5c0-9.2,3.3-17,9.8-23.4 c6.6-6.4,14.6-9.6,23.8-9.6c9.4,0,17.4,3.2,23.8,9.6c6.6,6.4,9.8,14.2,9.8,23.4c0,9.3-3.3,17.2-9.8,23.5 C178.4,300,170.5,303.2,161,303.2z M161,283.2c3.7,0,6.7-1.2,9.1-3.6c2.4-2.4,3.6-5.5,3.6-9.4c0-3.8-1.2-7-3.6-9.4 c-2.4-2.4-5.4-3.6-9.1-3.6c-3.6,0-6.6,1.2-9,3.7c-2.4,2.5-3.6,5.6-3.6,9.3s1.2,6.9,3.6,9.3C154.4,282,157.4,283.2,161,283.2z"></path> <path class="st0" d="M239.5,238.9v19.9h-13V277c0,2.7,0.9,4.4,2.8,5.1c1.9,0.7,5.3,0.9,10.2,0.7v18.8c-12.3,1.5-21,0.4-26.2-3.4 c-5-3.9-7.5-10.8-7.5-20.6v-18.6h-9.4v-19.9h9.4v-11.3l20.7-6.3v17.5H239.5z"></path> <path class="st0" d="M505.7,238.9v19.9h-13V277c0,2.7,0.9,4.4,2.8,5.1c1.9,0.7,5.3,0.9,10.2,0.7v18.8c-12.3,1.5-21,0.4-26.2-3.4 c-5-3.9-7.5-10.8-7.5-20.6v-18.6h-9.4v-19.9h9.4v-11.3l20.7-6.3v17.5H505.7z"></path> <path class="st0" d="M516.3,288.2c0-4.1,1.5-7.7,4.4-10.6c2.9-2.9,6.5-4.4,10.6-4.4c4.2,0,7.7,1.5,10.6,4.4 c2.9,2.9,4.4,6.5,4.4,10.6c0,4.2-1.5,7.8-4.4,10.7c-2.9,2.9-6.5,4.3-10.6,4.3c-4.2,0-7.7-1.4-10.6-4.3 C517.8,296,516.3,292.5,516.3,288.2z"></path> <path class="st0" d="M512.8,228c0-2.5,0.5-4.9,1.4-7.1s2.3-4.2,4.1-6c1.8-1.8,3.8-3.2,6-4.1s4.6-1.4,7.1-1.4 c2.6,0,4.9,0.5,7.1,1.4s4.2,2.3,6,4.1c1.8,1.8,3.2,3.8,4.1,6s1.4,4.5,1.4,7.1c0,2.6-0.5,5-1.4,7.2c-0.9,2.2-2.3,4.2-4.1,6 c-1.8,1.8-6,7.3-6,7.4c-5.9,7.7-4.6,16-7.1,16c-2.6,0-1.1-8.6-7.1-16c0-0.1-4.2-5.6-6-7.4c-1.8-1.8-3.2-3.8-4.1-6 C513.3,233,512.8,230.6,512.8,228z"></path> </g> </g> </svg> 