<?xml version="1.0" encoding="UTF-8"?> <svg xmlns="http://www.w3.org/2000/svg" id="Layer_1" width="600" height="400" viewBox="0 0 600 400"><defs><style>.cls-1{fill:#3c3382;}</style></defs><path class="cls-1" d="m44.61,193.49v14.61h-27.3v29.71H0v-75.6h49.31v14.6H16.98v16.68h27.63Z"></path><path class="cls-1" d="m443.63,237.8v-75.6h16.98v75.6h-16.98Z"></path><path class="cls-1" d="m492.01,162.2l28.94,47.77v-47.77h16.22v75.6h-15.87l-29.92-47.77v47.77h-16.22v-75.6h16.84Z"></path><path class="cls-1" d="m594.11,192.67v13.51h-27.74v17.01h33.63v14.6h-50.61v-75.6h49.42v14.6h-32.44v15.87h27.74Z"></path><path class="cls-1" d="m53.79,200c0,21.44,10.04,39.3,33.96,39.3s33.96-17.87,33.96-39.3-10.04-39.3-33.96-39.3-33.96,17.87-33.96,39.3Zm33.96-24.7c11,0,16.44,9.67,16.44,24.7s-5.45,24.69-16.44,24.69-16.44-9.67-16.44-24.69,5.45-24.7,16.44-24.7Z"></path><path class="cls-1" d="m204.09,237.8h18.78c25.71,0,41.51-10.93,41.51-37.8s-15.8-37.8-41.51-37.8h-18.78v75.6Zm16.98-61h3.69c15.59,0,22.43,5.89,22.43,23.2s-6.84,23.2-22.43,23.2h-3.69v-46.4Z"></path><path class="cls-1" d="m353.68,162.2l12.44,50.82,14.61-50.82h13.15l14.05,50.82,12-50.82h16.23l-20.31,75.6h-14.51l-14.81-47.35-14.59,47.35h-15.06l-19.76-75.6h16.56Z"></path><path class="cls-1" d="m128.83,200c0,21.44,10.04,39.3,33.96,39.3s33.96-17.87,33.96-39.3-10.04-39.3-33.96-39.3-33.96,17.87-33.96,39.3Zm33.96-24.7c11,0,16.44,9.67,16.44,24.7s-5.45,24.69-16.44,24.69-16.44-9.67-16.44-24.69,5.45-24.7,16.44-24.7Z"></path><path class="cls-1" d="m296.55,239.3c-15.13,0-20.27-10.43-20.27-17.19,0-9.1,6.92-15.68,12.29-18.59-3.07-4.2-3.85-7.39-3.89-10.89-.04-6.15,5.83-14.32,17.82-14.32,3.89,0,7.31.78,9.41,1.79,1.13.51,1.17,1.05,1.17,1.98,0,2.45-.47,8.28-.7,9.45-.2,1.17-.47,1.32-.86,1.32-.43,0-.51-.31-.51-1.48,0-2.02-.51-4.55-2.33-6.58-1.63-1.83-4.32-3.46-8.21-3.46s-9.1,2.57-9.1,9.53,5.44,12.33,12.6,20.19c2.64,2.96,12.21,11.75,14.2,13.46,1.87-2.57,3.85-7.7,3.85-12.45,0-1.17-.31-2.64-1.48-3.69-1.01-.97-2.65-1.21-3.81-1.21-.47,0-.93-.16-.93-.58,0-.51.62-.66,1.24-.66,1.87,0,4.98.08,9.34.54,1.32.16,2.02.7,2.02,1.55,0,6.15-3.73,13.69-7.66,18.4,5.17,4.32,8.63,6.42,10.77,7.66,2.49,1.48,6.61,2.88,8.79,2.88.7,0,1.09.08,1.09.62,0,.39-.62.62-1.83.62h-6.81c-7.31,0-9.65-.7-17.27-6.65-2.18,2.06-7.86,7.74-18.94,7.74Zm2.68-4.51c6.61,0,11.59-3.07,13.73-5.21-4.43-3.73-12.02-11.08-14.04-13.26s-7-7.74-8.75-10.31c-3.35,2.29-6.18,6.22-6.18,12.45,0,9.72,6.85,16.33,15.25,16.33Z"></path></svg> 