<?xml version="1.0" encoding="UTF-8"?> <svg xmlns="http://www.w3.org/2000/svg" id="Layer_1" width="600" height="400" viewBox="0 0 600 400"><defs><style>.cls-1{fill:#3c3382;}</style></defs><path class="cls-1" d="m140.89,285.3c3.96-4.87,6.25-11.32,6.25-17.74,0-4.97-1.44-9.23-4.16-12.28-2.7-3.02-6.4-4.63-10.72-4.63-6.62,0-12.65,2.92-17,8.23-3.96,4.85-6.25,11.32-6.25,17.77,0,4.97,1.44,9.23,4.16,12.28,2.69,3.02,6.4,4.63,10.72,4.63,6.62,0,12.65-2.93,17-8.26Zm-16.63,6.44c-5.21,0-7.86-3.93-7.86-11.67,0-4.2,1.19-11.12,3.86-17.11,2.12-4.79,5.88-10.49,11.64-10.49,5.21,0,7.85,3.93,7.85,11.67,0,4.2-1.19,11.13-3.86,17.13-2.14,4.78-5.88,10.48-11.64,10.48Z"></path><path class="cls-1" d="m169.88,232.19c1.5-1.99,3.25-2.96,5.35-2.96,1.1,0,2.44.4,3,1.29-.77.97-1.6,2.96-1.6,4.51,0,2.77,1.75,4.55,4.45,4.55s4.54-1.87,4.54-4.91c0-4.29-3.89-7.17-9.67-7.17-4.08,0-7.71,1.58-10.77,4.67-3.36,3.41-5.92,8.57-7.63,15.36l-.98,3.93h-9.62l-.58,1.73h9.99l-8.89,40.85c-2.64,12.77-4.78,14.91-8.58,14.91-1.28,0-2.12-.21-2.7-.67.98-.76,1.95-2.23,1.95-3.87,0-2.11-1.37-4.37-4.37-4.37-2.58,0-4.45,1.95-4.45,4.64,0,3.75,3.43,6.09,8.95,6.09,4.96,0,8.39-1.64,11.11-5.3,2.91-3.93,5.18-10.31,7.37-20.7l6.64-31.58h10.33l.58-1.73h-10.71l2.05-8.68c1.19-4.91,2.57-8.39,4.25-10.6Z"></path><path class="cls-1" d="m263.71,303.44v-72.57c0-5.33,2.57-8.96,15.12-9.37h.33v-2.34h-43.31v2.32h.33c12.52.42,13.88,3.32,13.88,9.39v32.8h-44.81v-32.8c0-6.07,1.38-8.99,14.02-9.37h.33v-2.34h-43.45v2.32h.33c12.55.43,15.12,4.08,15.12,9.39v72.57c0,5.48-2.52,8.96-15.12,9.38h-.33v2.47h43.45v-2.46h-.33c-12.7-.42-14.02-3.18-14.02-9.39v-36.22h44.81v36.22c0,6.21-1.31,8.97-13.88,9.38h-.33v2.47h43.31v-2.46h-.33c-12.58-.43-15.12-3.91-15.12-9.39Z"></path><path class="cls-1" d="m301.51,250.66c-17.28,0-31.36,14.84-31.36,33.06s13.48,32.66,31.36,32.66c15.01,0,31.23-12.69,31.23-33.21,0-18.23-13.72-32.51-31.23-32.51Zm.55,62.57c-12.18,0-18.1-9.75-18.1-29.79s5.2-29.64,16.87-29.64,18.1,9.7,18.1,29.64-5.2,29.79-16.87,29.79Z"></path><path class="cls-1" d="m428.62,307.83v-37.93c0-11.96-5.96-18.82-16.33-18.82-8.54,0-16.79,4.97-22.75,13.66-1.46-8.81-7.08-13.66-15.92-13.66s-16.44,4.91-22.62,14.98v-14.58l-21.86.57v2.31h.34c8.48.15,9.64,3.27,9.64,6.64v46.83c0,4.22-1.44,5-9.64,5.13h-.34v2.32h29.92v-2.32h-.33c-6.9-.13-7.45-.91-7.45-5.13v-36.89c4.13-8.82,9.29-13.29,15.37-13.29,7.71,0,11.14,5.04,11.14,16.37v33.82c0,4.23-1.26,5-8.4,5.13h-.33v2.32h30.87v-2.32h-.34c-8.2-.13-9.64-.91-9.64-5.13v-38.81c3.97-7.13,9.71-11.38,15.37-11.38,7.71,0,11.14,5.04,11.14,16.37v33.82c0,4.3-.52,5-7.59,5.13h-.33v2.32h30.05v-2.32h-.34c-8.18-.15-9.64-.91-9.64-5.13Z"></path><path class="cls-1" d="m369.64,186.32c0,15.88,7.13,24.27,20.62,24.27,10.13,0,18.36-6.03,25.13-18.42l.15-.25-2.05-1.55-.19.31c-5.63,9.09-11.02,13.33-16.96,13.33-7.69,0-11.6-5.51-11.6-16.37v-61.77h27.68v-4.48h-27.68v-32.11l-15.09,6.96v24.63l-17.82,2.66v2.35h17.82v60.43h-.01Z"></path><path class="cls-1" d="m454.99,210.41c14.67,0,26.49-7.51,36.11-22.96l.18-.28-2.24-1.5-.19.25c-8.11,10.64-16.1,17.72-28.73,17.72-18.38,0-29.8-14.94-29.8-38.99v-.19c0-1.93,0-3.78.16-5.73h60.29l.03-.31c.71-11.23-2.6-21.4-9.34-28.6-6.43-6.87-15.52-10.52-26.27-10.52-22.27,0-41.1,21.38-41.1,46.7s17.21,44.42,40.91,44.42Zm19.59-54.84h-43.86c1.72-21.25,10.14-32.95,23.7-32.95,5.79,0,10.41,1.77,13.71,5.27,4.98,5.28,7.14,14.58,6.46,27.68Z"></path><path class="cls-1" d="m212.11,139.4c0,4.9,2.87,9.84,9.25,9.84,5.76,0,9.64-3.96,9.64-9.84,0-3.88-2.45-7.47-6.44-9.43,3.28-4,9.62-6.37,17.09-6.37,12.81,0,18.06,6.5,18.06,22.46v12.65c-1.9.46-4.28.94-6.99,1.47-9.68,1.93-22.94,4.6-32.64,9.9-7.91,4.35-11.92,10.83-11.92,19.3,0,10.1,7.2,20.3,23.28,20.3,10.14,0,19.56-5.09,28.78-15.58h.07c.27,9.24,5.05,14.42,14.23,15.39,1.34.15,2.67.21,3.99.21,8.76,0,15.29-3.17,20.02-5.98h.03c6.85,4.08,16.07,6.71,23.49,6.71,17.23,0,29.73-11.89,29.73-28.27,0-13.14-7.56-20.48-26.98-26.16-17.16-4.9-23.25-9.57-23.25-17.92,0-9.08,7.19-15.43,17.48-15.43s15.72,4.61,26.43,24.7l.09.18h2.06v-28.21h-2l-4.86,5.24c-5.98-3.27-13.38-5.24-19.84-5.24-16.88,0-30.1,11.83-30.1,26.93,0,14.15,9.68,19.58,27.55,24.64,19.78,5.74,23.27,10.97,23.27,19.81,0,7.89-5.7,16.37-18.23,16.37-14.32,0-19.47-6-30.98-28.12l-.09-.18h-2.06v15.28c-.28,6.82-2.57,10.49-6.99,11.25-3.04.36-5.3-.82-6.71-3.5-1.14-2.17-1.72-5.27-1.72-9.21v-47.1c0-16.86-10.45-25.42-31.05-25.42-17.77,0-31.66,8.5-31.66,19.34Zm47.58,22.63v28.15c-3.53,4.57-10.88,12.13-20.7,12.13s-14.82-5.68-14.82-16c0-13.18,5.38-18.85,35.52-24.29Z"></path><path class="cls-1" d="m112.03,120.05l.13-.3c10.87-24.69,18.62-32.62,31.87-32.62h14.82v106.2c0,8.91-3.56,12.19-23.55,12.77h-.33v2.4h64.67v-2.38h-.33c-20-.6-23.55-3.85-23.55-12.78v-106.2h14.82c13.25,0,21,7.93,31.87,32.6l.13.3.3-.12c.88-.34,1.81-.67,2.76-.95l.25-.07-1.04-35.28h-115.08l-1.05,35.28.25.07c.95.3,1.89.61,2.76.95l.3.13Z"></path><path class="cls-1" d="m489.04,298.58c-5.92,7.65-10.75,11.79-19.27,11.79-15.96,0-21.66-14.18-21.66-27.46v-.13c0-1.12,0-2.35.11-3.5h42.51l.03-.31c.59-8.15-1.71-15.49-6.48-20.62-4.66-5.03-11.42-7.68-19.56-7.68-16.54,0-29.99,15.01-29.99,33.48s12.62,32.25,29.99,32.25c14.77,0,21.87-8.72,26.39-16.32l.16-.27-2.02-1.47-.21.25Zm-11.79-22.17h-28.97c1.23-14.58,6.71-22.6,15.47-22.6,4.28,0,7.44,1.19,9.7,3.65,3.28,3.57,4.53,9.76,3.8,18.96Z"></path><path class="cls-1" d="m488.17,312.94c.38,0,.59-.21.59-.5v-.02c0-.34-.24-.51-.62-.51h-.76v1.03h.79Zm-1.54-1.71h1.56c.48,0,.83.13,1.08.39.19.19.28.46.28.76h0c0,.58-.31.94-.76,1.1l.85,1.25h-.91l-.74-1.13h-.61v1.13h-.77v-3.5h.02Zm4.26,1.86h0c0-1.62-1.25-2.93-2.9-2.93s-2.91,1.32-2.91,2.93h0c0,1.62,1.25,2.93,2.89,2.93s2.91-1.32,2.91-2.93Zm-6.19.01h0c0-1.82,1.46-3.32,3.3-3.32s3.28,1.49,3.28,3.27v.02c0,1.8-1.46,3.29-3.3,3.29-1.86.02-3.28-1.47-3.28-3.26Z"></path></svg> 