<?xml version="1.0" encoding="UTF-8"?> <svg xmlns="http://www.w3.org/2000/svg" id="Layer_1" width="600" height="400" viewBox="0 0 600 400"><defs><style>.cls-1{fill:#3c3382;}</style></defs><g><path class="cls-1" d="m164.24,320.88v-4.01h10.45v-35.5h-27.98v35.5h10.7v4.01h-38.39v-4.01h9.79v-72.39h-9.79v-4h38.39v4h-10.7v32.1h27.98v-32.1h-10.45v-4h38.14v4h-9.91v72.39h9.91v4.01h-38.14Z"></path><path class="cls-1" d="m219.14,250.05v-9.57h17.44v9.57h-17.44Zm-8.53,70.83v-3.89h9.34v-49.95h-9.34v-4h26.65v53.95h8.89v3.89h-35.54Z"></path><path class="cls-1" d="m251.22,320.88v-4.01h9.68v-82.99h-9.68v-3.76h27.1v86.74h9.12v4.01h-36.22Z"></path><path class="cls-1" d="m314.6,320.88c-7.98,0-14.57-3.66-14.57-12.41v-41.57h-9.46v-3.87h9.46v-22.33h16.26v22.33h13.44v3.87h-13.44v50.08h13.69v3.89h-15.38Z"></path><path class="cls-1" d="m367.08,322.46c-18.34,0-33.62-11.48-33.62-30.73s15.49-30.17,33.16-30.17,32.33,12.84,32.33,31.66-14.45,29.24-31.87,29.24Zm-14.36-30.96c0,5.12-.23,16.63,2.4,21.3,2.51,4.31,6.49,6.36,11.51,6.36,13.44,0,13.66-14.68,13.53-24.58v-3.65c-.09-10.48,1.27-25.62-13.66-25.62s-13.77,15.95-13.77,26.2Z"></path><path class="cls-1" d="m446.48,320.88v-3.89h7.74v-35.15c0-6.39,0-14.23-8.39-14.23-6.63,0-12.87,6.47-14.48,12.51-.68,2.84-.57,5.93-.57,8.78v28.09h8.87v3.89h-35.52v-3.89h9.34v-49.95h-9.34v-4h26.65v8.88c3.53-4.21,5.93-6.48,11.04-8.54,3.31-1.37,6.95-2.17,10.48-2.17,2.62,0,5.36.47,7.87,1.15,9.45,2.74,11.72,8.87,11.72,17.76v36.87h9.09v3.89h-34.5Z"></path></g><g><g><path class="cls-1" d="m329.92,165.74c0,4.46-1.15,9.69-4.46,14.31h9.32v-71.97h-29.79v29.38c16.11,5,24.93,15.33,24.93,28.28Z"></path><path class="cls-1" d="m278.41,134.9c6.69,0,12.96,1.58,17.73,2.84-10.11-1.76-25.83.8-33.95,7.2v35.12h29.82v-39.93c6.43,1.17,11.31,3.78,14.3,5.8v34.12h6.47c-6.08,6.88-17.51,11.06-27.32,9.52v1.42h0c28.34,2.24,40.33-11.21,40.33-26.32,0-17.8-16.72-28.21-33.77-30.31v-26.28h-29.82v26.57c-19.27,3.86-38.16,15.33-38.16,34.33,0,29.22,40.83,47.33,76.39,47.33,54.02,0,95.58-26.09,95.58-62.76,0-44.35-60.02-76-107.16-76-54,0-93.76,34.32-93.76,70.96h0c0,18.99,10.65,34.88,24.09,45.97l1.02-.68c-10.63-8.84-20.25-22.61-20.25-41.55,2.83-40.12,52.26-62.72,96.25-62.72,31.11,0,87.03,7.19,87.03,59.23,0,27.12-29,62.42-89.92,62.42-31.17,0-55.42-16.71-55.42-40.72,0-20.78,16.29-35.56,40.54-35.56Z"></path></g><path class="cls-1" d="m384.55,210.6c-4,0-7.24-3.25-7.24-7.23s3.24-7.23,7.24-7.23,7.26,3.24,7.26,7.23-3.26,7.23-7.26,7.23Zm0-13.13c-3.19,0-5.79,2.65-5.79,5.91s2.6,5.89,5.79,5.89,5.81-2.64,5.81-5.89-2.6-5.91-5.81-5.91Zm3.66,9.73h-1.72l-1.45-2.78h-1.94v2.75h-1.47v-7.96h3.8c1.68,0,2.76,1.02,2.76,2.6,0,1.13-.66,2.08-1.68,2.43l1.7,2.96Zm-2.76-4.16c.63,0,1.24-.32,1.24-1.23s-.47-1.23-1.24-1.23h-2.35v2.47h2.35Z"></path></g></svg> 