<?xml version="1.0" encoding="UTF-8"?> <svg xmlns="http://www.w3.org/2000/svg" id="Layer_1" width="600" height="400" viewBox="0 0 600 400"><defs><style>.cls-1{fill:#fff;}</style></defs><path class="cls-1" d="m168.96,267.16c34.69.08,62.9-27.95,63.04-62.64v-9.58h-61.4v25.04h26.82c-5.31,10.78-16.44,17.44-28.45,17.02-20.76,0-32.66-18.54-32.66-33.86s11.29-33.6,31.57-33.6c13.72,0,21.48,4.25,26.17,11.4l1.02,1.56h34.69l-1.63-4.57c-6.75-18.91-29.98-38.9-59.77-38.9-36.11,0-62.27,28.74-62.27,64.09s26.46,64.05,62.89,64.05Z"></path><path class="cls-1" d="m425.09,138.54l-45.69,122.92h31.68l5.95-16.98h40.79l5.95,16.98h31.68l-45.65-122.92h-24.71Zm24.02,79.84h-23.88l11.94-39.05,11.94,39.05Z"></path><polygon class="cls-1" points="306.82 210.94 282.62 135.82 241.5 135.82 241.5 259.43 270.64 259.43 270.64 179.48 296.01 259.43 317.35 259.43 342.71 179.08 342.71 259.43 371.85 259.43 371.85 135.82 330.7 135.82 306.82 210.94"></polygon><path class="cls-1" d="m75,304.43c35.85-27.62,315.44-54.22,450-3.3-17.2-.94-61.69,20.61-65.32,24.24-16.77-6.06-145.16-55.63-384.68-20.94Z"></path></svg> 