<?xml version="1.0" encoding="UTF-8"?> <svg xmlns="http://www.w3.org/2000/svg" id="Layer_1" width="600" height="400" viewBox="0 0 600 400"><defs><style>.cls-1{fill:#fff;}</style></defs><g><path class="cls-1" d="m164.01,220.66h-20.12v-41.28h19.09c7.85,0,11.78,3.63,11.78,10.9,0,2.21-.44,4.07-1.33,5.6-.88,1.52-2.16,2.7-3.83,3.49,4.52,1.13,6.77,4.27,6.77,9.47,0,7.9-4.12,11.83-12.37,11.83Zm4.07-35.49c-1.18-1.18-3.29-1.72-6.38-1.72h-12.57v14.04h13.55c4.81,0,7.17-2.26,7.17-6.77,0-2.55-.59-4.42-1.77-5.55Zm1.13,29.7c1.28-1.23,1.91-3.29,1.91-6.14,0-2.5-.69-4.32-2.01-5.5-1.33-1.18-3.63-1.77-6.87-1.77h-13.15v15.27h13.99c2.8-.05,4.86-.64,6.14-1.87Z"></path><path class="cls-1" d="m187.28,220.66h-5.45l15.71-41.28h6.14l15.66,41.28h-5.4l-4.37-11.34h-17.97l-4.32,11.34Zm5.25-15.51h16.1l-8.1-21.2-8,21.2Z"></path><path class="cls-1" d="m235.53,220.66h-5.25v-41.28h4.76l23.56,33.23v-33.23h5.25v41.28h-4.81l-23.46-33.13v33.13h-.05Z"></path><path class="cls-1" d="m307.19,220.66h-5.64l-13.6-21.35-6.72,7.12v14.23h-5.25v-41.28h5.25v20.47l19.29-20.47h6.14l-15.41,16.54,15.95,24.74Z"></path><path class="cls-1" d="m318.09,179.38h5.25v41.28h-5.25v-41.28Z"></path><path class="cls-1" d="m340.81,220.66h-5.25v-41.28h4.76l23.56,33.23v-33.23h5.2v41.28h-4.81l-23.46-33.13v33.13Z"></path><path class="cls-1" d="m410.02,215.17v-13.15h-11.04v-3.58h15.56v19.63c-3.44,2.16-8.34,3.29-14.77,3.29s-11.44-1.82-14.77-5.45c-3.34-3.63-5.06-8.64-5.06-14.92,0-7.02,1.62-12.47,4.86-16.35,3.24-3.88,8.2-5.84,14.92-5.84,4.42,0,8.39.64,11.98,1.91v4.61c-3.63-1.37-7.46-2.06-11.54-2.06-5.35,0-9.18,1.52-11.49,4.47-2.31,2.99-3.49,7.41-3.49,13.2,0,5.2,1.18,9.18,3.58,11.88,2.41,2.7,6.14,4.02,11.29,4.02,3.78,0,7.07-.54,9.96-1.67Z"></path></g><g><path class="cls-1" d="m446.3,211.44c2.16,0,3.88-.29,5.2-.93,1.33-.64,2.36-1.72,3.04-3.34s1.08-3.93,1.08-6.92-.34-5.4-.98-7.07-1.62-2.9-2.99-3.58c-1.33-.69-3.14-1.03-5.35-1.03h-4.86v22.82h4.86v.05Zm-16.93-32.05h18.46c6.58,0,11.58,1.67,14.97,4.96,3.39,3.34,5.1,8.64,5.1,15.95s-1.72,12.12-5.1,15.41c-3.39,3.34-8.39,4.96-14.97,4.96h-18.46v-41.28h0Z"></path><polygon class="cls-1" points="475.65 179.38 487.68 179.38 487.68 220.66 475.65 220.66 475.65 179.38"></polygon><polygon class="cls-1" points="494.11 179.38 506.67 179.38 516.29 206.72 525.91 179.38 538.58 179.38 522.72 220.66 509.96 220.66 494.11 179.38"></polygon><polygon class="cls-1" points="543.68 179.38 575 179.38 575 188.61 555.76 188.61 555.76 195.34 572.64 195.34 572.64 204.71 555.76 204.71 555.76 211.44 575 211.44 575 220.66 543.68 220.66 543.68 179.38"></polygon></g><path class="cls-1" d="m75.56,210.31h-11.88v-21.5h12.86c.2,0,.34,0,.44.05,4.61.64,8.2,5.15,8.2,10.65s-3.63,10.11-8.25,10.7c-.1,0-.2.05-.44.05-.25.05-.69.05-.93.05h0Z"></path><path class="cls-1" d="m49.89,211.14v-36.18h25.67c6.82,0,9.03,1.47,9.03,1.47l15.46-14.92c-7.76-5.64-17.33-8.93-27.63-8.93-26.21,0-47.42,21.2-47.42,47.42,0,10.36,3.34,19.93,8.98,27.73l15.9-16.59h0Z"></path><path class="cls-1" d="m110.56,171.87l-14.87,14.82s.69,1.42,1.72,4.07,2.06,6.23,1.37,11.54c-.59,4.76-1.96,10.41-6.72,15.27-4.76,4.86-9.38,6.38-15.07,6.48s-18.7,0-18.7,0l-14.14,14.04c7.9,5.84,17.67,9.33,28.27,9.33,26.16,0,47.42-21.2,47.42-47.42,0-10.55-3.44-20.27-9.28-28.13h0Z"></path></svg> 