<?xml version="1.0" encoding="UTF-8"?> <svg xmlns="http://www.w3.org/2000/svg" xmlns:xlink="http://www.w3.org/1999/xlink" id="Layer_1" width="100" height="30.02" viewBox="0 0 100 30.02"><defs><style>.cls-1{clip-path:url(#clippath);}.cls-2{fill:#3a357e;}</style><clipPath id="clippath"><path class="cls-2" d="m32.02,26.4c-.49.55-1.16.86-1.89.9-3.01.14-7.64.31-12.57.31s-9.56-.17-12.57-.31c-.73-.03-1.4-.35-1.89-.9-.49-.54-.73-1.25-.68-1.97.16-2.41.37-4.55.64-6.35.39-2.67.98-5.38,1.41-7.18.28-1.16,1.26-2,2.46-2.07,2.19-.14,5.81-.3,10.64-.3s8.45.16,10.64.3c1.19.07,2.18.91,2.46,2.07.43,1.8,1.02,4.52,1.41,7.18.26,1.8.48,3.93.64,6.35.05.73-.19,1.43-.68,1.97h-.02Zm2.43-8.67c-.41-2.75-1.01-5.54-1.45-7.39-.52-2.21-2.39-3.78-4.65-3.92-2.22-.14-5.89-.3-10.79-.3s-8.57.17-10.79.3c-2.26.14-4.13,1.72-4.65,3.92-.44,1.85-1.04,4.63-1.45,7.39-.27,1.86-.5,4.06-.66,6.54-.09,1.38.37,2.71,1.29,3.74s2.19,1.64,3.58,1.7c3.04.14,7.71.31,12.69.31s9.65-.17,12.69-.31c1.38-.07,2.65-.67,3.58-1.7.92-1.03,1.38-2.36,1.29-3.74-.16-2.48-.38-4.68-.66-6.54h-.02Z"></path></clipPath></defs><g id="Artboard2"><g><path class="cls-2" d="m17.55,24.39c2.16,0,3.91-1.75,3.91-3.91h-7.81c0,2.16,1.75,3.91,3.91,3.91h-.01Z"></path><path class="cls-2" d="m8.82,15.66c-1.33,0-2.41,1.08-2.41,2.41h4.82c0-1.33-1.08-2.41-2.41-2.41Z"></path><path class="cls-2" d="m26.3,15.66c-1.33,0-2.41,1.08-2.41,2.41h4.82c0-1.33-1.08-2.41-2.41-2.41Z"></path><path class="cls-2" d="m17.55,3.6c1,0,1.8-.81,1.8-1.8S18.54,0,17.55,0s-1.8.81-1.8,1.8.81,1.8,1.8,1.8Z"></path><g><path class="cls-2" d="m32.02,26.4c-.49.55-1.16.86-1.89.9-3.01.14-7.64.31-12.57.31s-9.56-.17-12.57-.31c-.73-.03-1.4-.35-1.89-.9-.49-.54-.73-1.25-.68-1.97.16-2.41.37-4.55.64-6.35.39-2.67.98-5.38,1.41-7.18.28-1.16,1.26-2,2.46-2.07,2.19-.14,5.81-.3,10.64-.3s8.45.16,10.64.3c1.19.07,2.18.91,2.46,2.07.43,1.8,1.02,4.52,1.41,7.18.26,1.8.48,3.93.64,6.35.05.73-.19,1.43-.68,1.97h-.02Zm2.43-8.67c-.41-2.75-1.01-5.54-1.45-7.39-.52-2.21-2.39-3.78-4.65-3.92-2.22-.14-5.89-.3-10.79-.3s-8.57.17-10.79.3c-2.26.14-4.13,1.72-4.65,3.92-.44,1.85-1.04,4.63-1.45,7.39-.27,1.86-.5,4.06-.66,6.54-.09,1.38.37,2.71,1.29,3.74s2.19,1.64,3.58,1.7c3.04.14,7.71.31,12.69.31s9.65-.17,12.69-.31c1.38-.07,2.65-.67,3.58-1.7.92-1.03,1.38-2.36,1.29-3.74-.16-2.48-.38-4.68-.66-6.54h-.02Z"></path><g><path class="cls-2" d="m32.02,26.4c-.49.55-1.16.86-1.89.9-3.01.14-7.64.31-12.57.31s-9.56-.17-12.57-.31c-.73-.03-1.4-.35-1.89-.9-.49-.54-.73-1.25-.68-1.97.16-2.41.37-4.55.64-6.35.39-2.67.98-5.38,1.41-7.18.28-1.16,1.26-2,2.46-2.07,2.19-.14,5.81-.3,10.64-.3s8.45.16,10.64.3c1.19.07,2.18.91,2.46,2.07.43,1.8,1.02,4.52,1.41,7.18.26,1.8.48,3.93.64,6.35.05.73-.19,1.43-.68,1.97h-.02Zm2.43-8.67c-.41-2.75-1.01-5.54-1.45-7.39-.52-2.21-2.39-3.78-4.65-3.92-2.22-.14-5.89-.3-10.79-.3s-8.57.17-10.79.3c-2.26.14-4.13,1.72-4.65,3.92-.44,1.85-1.04,4.63-1.45,7.39-.27,1.86-.5,4.06-.66,6.54-.09,1.38.37,2.71,1.29,3.74s2.19,1.64,3.58,1.7c3.04.14,7.71.31,12.69.31s9.65-.17,12.69-.31c1.38-.07,2.65-.67,3.58-1.7.92-1.03,1.38-2.36,1.29-3.74-.16-2.48-.38-4.68-.66-6.54h-.02Z"></path><g class="cls-1"><g><rect class="cls-2" x="-6.67" y="5.45" width="50.69" height="13.32"></rect><rect class="cls-2" x="-6.67" y="18.77" width="50.69" height="13.32"></rect></g></g></g></g><path class="cls-2" d="m47.18,22.29c-1.32,0-2.43-1.11-2.43-2.73s1.11-2.73,2.43-2.73,2.43,1.11,2.43,2.73-1.11,2.73-2.43,2.73Zm.51-7.89c-1.92,0-2.93,1.42-2.93,1.42v-5.46h-2.73v14.17h2.73v-1.21s1.01,1.42,2.93,1.42c2.53,0,4.76-2.23,4.76-5.16s-2.23-5.16-4.76-5.16v-.02Z"></path><rect class="cls-2" x="54.56" y="14.59" width="2.73" height="9.92"></rect><path class="cls-2" d="m55.88,10.24c-.91,0-1.52.61-1.52,1.52s.61,1.52,1.52,1.52c1.01,0,1.62-.61,1.62-1.52s-.61-1.52-1.62-1.52Z"></path><path class="cls-2" d="m63.67,21.17v-3.95h2.02v-2.43h-2.02v-3.14h-2.43v1.82c0,.81-.51,1.32-1.11,1.32h-.91v2.43h1.72v4.05c0,2.33,1.11,3.44,3.14,3.44,1.01,0,1.82-.3,1.82-.3v-2.33s-.41.2-1.01.2c-.71,0-1.21-.51-1.21-1.11h0Z"></path><path class="cls-2" d="m70.96,15.81v-1.21h-2.73v9.92h2.73v-4.76c0-1.72.91-2.63,2.33-2.63.61,0,.91.1.91.1v-2.73h-.4c-1.82,0-2.83,1.32-2.83,1.32h-.01Z"></path><rect class="cls-2" x="75.82" y="14.59" width="2.73" height="9.92"></rect><path class="cls-2" d="m77.13,10.24c-.91,0-1.52.61-1.52,1.52s.61,1.52,1.52,1.52c1.01,0,1.62-.61,1.62-1.52s-.61-1.52-1.62-1.52Z"></path><path class="cls-2" d="m83.91,17.53c0-.4.4-.81,1.21-.81,1.01,0,1.62.81,1.62.81l1.42-1.62s-1.11-1.52-3.44-1.52-3.85,1.62-3.85,3.14c0,3.28,4.55,2.53,4.55,4.05,0,.51-.41.91-1.32.91-1.32,0-2.13-1.11-2.13-1.11l-1.52,1.52s1.21,1.82,4.05,1.82c2.53,0,3.95-1.42,3.95-3.14,0-3.34-4.55-2.63-4.55-4.05h0Z"></path><path class="cls-2" d="m92.71,18.54c.3-1.01,1.11-1.82,2.33-1.82s2.02.81,2.23,1.82h-4.56Zm7.29.81c0-2.83-2.12-4.96-4.96-4.96s-5.16,2.33-5.16,5.16,2.33,5.16,5.26,5.16c2.73,0,4.25-1.72,4.25-1.72l-1.42-1.82s-.91,1.21-2.63,1.21c-1.52,0-2.43-.91-2.63-1.92h7.19s.1-.4.1-1.11h0Z"></path></g></g></svg> 