<?xml version="1.0" encoding="UTF-8"?> <svg xmlns="http://www.w3.org/2000/svg" id="Layer_1" width="600" height="400" viewBox="0 0 600 400"><defs><style>.cls-1{fill:#3a357e;}</style></defs><path class="cls-1" d="m50,140.97h25.68c16.58,0,27.79.47,33.63,1.4,5.84.93,10.29,2.46,13.33,4.59,3.04,2.13,4.95,4.5,5.71,7.11.76,2.61,1.14,7.74,1.14,15.39v28.29c0,7.25-.56,12.1-1.67,14.54-1.11,2.44-3.06,4.36-5.83,5.74-2.77,1.38-6.2,2.35-10.27,2.89-4.08.55-10.22.82-18.43.82h-43.29v-80.78Zm34.33,16.03v48.2c4.94,0,7.99-.61,9.13-1.82s1.71-4.52,1.71-9.9v-26.44c0-3.66-.19-6-.57-7.04-.38-1.03-1.25-1.79-2.61-2.27-1.36-.48-3.91-.72-7.66-.72Z"></path><path class="cls-1" d="m175.85,140.97v80.78h-34.06v-80.78h34.06Z"></path><path class="cls-1" d="m271.19,170.71h-35.84v-7.33c0-4.62-.34-7.52-1.02-8.68-.68-1.16-2.3-1.75-4.85-1.75-2.21,0-3.72.5-4.51,1.5-.8,1-1.19,3.56-1.19,7.68v36.89c0,3.63.4,6.01,1.19,7.16.79,1.15,2.38,1.72,4.77,1.72,2.61,0,4.38-.65,5.32-1.95.94-1.3,1.4-3.82,1.4-7.58v-2.94h-5.1v-16h39.83v42.32h-22.52l-3.32-5.79c-2.44,2.49-5.52,4.37-9.24,5.61-3.72,1.25-8.11,1.87-13.16,1.87-6.02,0-11.66-.86-16.91-2.57-5.25-1.71-9.24-3.83-11.97-6.36-2.73-2.53-4.43-5.18-5.11-7.96-.68-2.78-1.02-6.94-1.02-12.5v-24c0-7.72.71-13.32,2.13-16.81,1.42-3.49,5.49-6.69,12.22-9.6,6.72-2.91,15.42-4.37,26.09-4.37s19.21,1.26,26.13,3.79c6.92,2.53,11.43,5.53,13.53,9.01,2.1,3.48,3.15,8.52,3.15,15.14v3.49Z"></path><path class="cls-1" d="m316.57,140.97v80.78h-33.95v-80.78h33.95Z"></path><path class="cls-1" d="m398.63,140.97v16.17h-20.78v64.61h-34.99v-64.61h-20.69v-16.17h76.46Z"></path><path class="cls-1" d="m461.25,140.97l20.01,80.78h-35.76l-1.88-14.52h-12.52l-2.1,14.52h-36.17l17.85-80.78h50.57Zm-18.55,51.94c-1.77-9.15-3.55-20.46-5.33-33.93-3.57,15.47-5.8,26.78-6.72,33.93h12.04Z"></path><path class="cls-1" d="m521.87,140.97v61.97h28.13v18.81h-63.12v-80.78h34.99Z"></path><g><path class="cls-1" d="m84.21,225.81v6.84h-5.28v27.35h-8.89v-27.35h-5.26v-6.84h19.43Z"></path><path class="cls-1" d="m103.97,225.81h6.29c4.2,0,7.04.16,8.52.49,1.49.32,2.7,1.15,3.63,2.48.94,1.33,1.4,3.45,1.4,6.37,0,2.66-.33,4.45-.99,5.36-.66.92-1.96,1.46-3.91,1.65,1.76.44,2.94,1.02,3.55,1.75.61.73.98,1.4,1.13,2.02.15.61.22,2.3.22,5.06v9.02h-8.26v-11.36c0-1.83-.14-2.96-.43-3.4-.29-.44-1.05-.65-2.27-.65v15.42h-8.89v-34.19Zm8.89,5.85v7.6c1,0,1.7-.14,2.1-.41.4-.28.6-1.17.6-2.67v-1.88c0-1.08-.19-1.8-.58-2.13-.39-.34-1.09-.51-2.12-.51Z"></path><path class="cls-1" d="m162.05,225.81l5.08,34.19h-9.09l-.48-6.15h-3.18l-.53,6.15h-9.19l4.54-34.19h12.85Zm-4.71,21.99c-.45-3.87-.9-8.66-1.35-14.36-.91,6.55-1.47,11.33-1.71,14.36h3.06Z"></path><path class="cls-1" d="m209.04,225.81v34.19h-7.79l-4.63-15.54v15.54h-7.43v-34.19h7.43l4.98,15.4v-15.4h7.43Z"></path><path class="cls-1" d="m251.91,236.16h-8.26v-2.53c0-1.18-.11-1.94-.32-2.26s-.56-.49-1.06-.49c-.54,0-.94.22-1.21.66s-.41,1.1-.41,1.99c0,1.14.15,2,.46,2.58.29.58,1.13,1.27,2.51,2.09,3.96,2.35,6.45,4.28,7.48,5.78,1.03,1.51,1.54,3.94,1.54,7.29,0,2.44-.29,4.23-.86,5.39s-1.67,2.12-3.31,2.9c-1.63.78-3.53,1.17-5.7,1.17-2.38,0-4.41-.45-6.09-1.35-1.68-.9-2.78-2.05-3.31-3.44-.52-1.39-.78-3.37-.78-5.93v-2.24h8.26v4.16c0,1.28.12,2.1.35,2.47s.64.55,1.24.55,1.03-.23,1.32-.7c.29-.46.43-1.15.43-2.07,0-2.01-.27-3.33-.82-3.95-.56-.62-1.95-1.65-4.16-3.1-2.21-1.46-3.67-2.53-4.39-3.19s-1.31-1.58-1.78-2.75c-.47-1.17-.71-2.66-.71-4.48,0-2.62.33-4.53,1-5.74.67-1.21,1.75-2.16,3.24-2.84,1.49-.68,3.29-1.02,5.41-1.02,2.31,0,4.28.37,5.9,1.12s2.7,1.69,3.23,2.82c.53,1.13.79,3.06.79,5.78v1.35Z"></path><path class="cls-1" d="m290.36,225.81l5.09,34.19h-9.09l-.48-6.15h-3.18l-.53,6.15h-9.19l4.54-34.19h12.85Zm-4.71,21.99c-.45-3.87-.9-8.66-1.35-14.36-.91,6.55-1.47,11.33-1.71,14.36h3.06Z"></path><path class="cls-1" d="m336.74,240.7h-8.89v-5.94c0-1.73-.1-2.81-.28-3.23-.19-.43-.61-.64-1.26-.64-.73,0-1.2.26-1.39.78s-.3,1.65-.3,3.38v15.88c0,1.66.1,2.75.3,3.25s.64.76,1.33.76,1.09-.25,1.3-.76c.2-.51.31-1.7.31-3.58v-4.3h8.89v1.33c0,3.54-.25,6.05-.75,7.53-.5,1.48-1.61,2.78-3.31,3.89-1.71,1.11-3.82,1.67-6.33,1.67s-4.75-.47-6.44-1.41-2.81-2.25-3.36-3.92c-.55-1.67-.82-4.18-.82-7.53v-9.99c0-2.46.08-4.31.25-5.54.17-1.23.67-2.42,1.51-3.56.84-1.14,2-2.04,3.49-2.69,1.48-.65,3.19-.98,5.12-.98,2.62,0,4.78.51,6.48,1.52,1.7,1.01,2.82,2.27,3.36,3.79s.8,3.86.8,7.05v3.25Z"></path><path class="cls-1" d="m375.14,225.81v6.84h-5.28v27.35h-8.89v-27.35h-5.26v-6.84h19.43Z"></path><path class="cls-1" d="m402.93,225.81v34.19h-8.89v-34.19h8.89Z"></path><path class="cls-1" d="m443.77,245.83c0,3.44-.08,5.87-.24,7.3-.16,1.43-.67,2.73-1.52,3.92-.85,1.18-2,2.09-3.45,2.72s-3.14.95-5.07.95c-1.83,0-3.47-.3-4.93-.9-1.46-.6-2.63-1.5-3.52-2.69s-1.41-2.5-1.58-3.91-.25-3.87-.25-7.39v-5.85c0-3.44.08-5.87.24-7.3.16-1.43.67-2.74,1.52-3.92.85-1.18,2-2.09,3.45-2.72s3.14-.95,5.07-.95c1.83,0,3.47.3,4.93.9,1.46.6,2.63,1.5,3.52,2.69s1.41,2.5,1.58,3.91.25,3.87.25,7.39v5.85Zm-8.89-11.24c0-1.59-.09-2.61-.26-3.05-.18-.44-.54-.67-1.09-.67-.46,0-.82.18-1.07.54-.25.36-.37,1.42-.37,3.18v15.97c0,1.99.08,3.21.24,3.67.16.46.54.7,1.13.7s.99-.27,1.16-.8.25-1.81.25-3.82v-15.71Z"></path><path class="cls-1" d="m486.66,225.81v34.19h-7.79l-4.63-15.54v15.54h-7.43v-34.19h7.43l4.98,15.4v-15.4h7.43Z"></path><path class="cls-1" d="m529.61,236.16h-8.26v-2.53c0-1.18-.11-1.94-.32-2.26s-.56-.49-1.06-.49c-.54,0-.94.22-1.21.66-.28.44-.41,1.1-.41,1.99,0,1.14.15,2,.46,2.58.29.58,1.13,1.27,2.51,2.09,3.96,2.35,6.45,4.28,7.48,5.78s1.54,3.94,1.54,7.29c0,2.44-.29,4.23-.85,5.39-.57,1.15-1.67,2.12-3.31,2.9-1.63.78-3.53,1.17-5.7,1.17-2.38,0-4.41-.45-6.09-1.35-1.68-.9-2.78-2.05-3.3-3.44s-.78-3.37-.78-5.93v-2.24h8.26v4.16c0,1.28.12,2.1.35,2.47.23.37.64.55,1.24.55s1.03-.23,1.32-.7c.29-.46.43-1.15.43-2.07,0-2.01-.27-3.33-.82-3.95-.56-.62-1.95-1.65-4.16-3.1-2.21-1.46-3.67-2.53-4.39-3.19s-1.31-1.58-1.78-2.75c-.47-1.17-.71-2.66-.71-4.48,0-2.62.33-4.53,1-5.74.67-1.21,1.75-2.16,3.24-2.84,1.49-.68,3.29-1.02,5.41-1.02,2.31,0,4.28.37,5.9,1.12,1.63.75,2.7,1.69,3.23,2.82.53,1.13.79,3.06.79,5.78v1.35Z"></path></g></svg> 