<?xml version="1.0" encoding="UTF-8"?> <svg xmlns="http://www.w3.org/2000/svg" id="Layer_1" width="600" height="400" viewBox="0 0 600 400"><defs><style>.cls-1{fill:#3c3382;}</style></defs><g><path class="cls-1" d="m376.96,176.98c-13.5.2-27.61,3.4-40.51,2-4-.4-7.9,1.2-14,1.5-2.3.2-5,.2-6.2,2.8-.5,7.1,7.6,4.1,10.8,7.3.4,1.2.2,2.8-1,3.7-2.8.3-6.2-.2-8.7-.5-2.42.52-3.09,2.66-3.9,4.78-3.22.7-6.71,1.52-8.5,1.72-9.8,3-14.1-22.6-15.1-24.3-.9-1.7-2.6-3.4-2.6-3.4-4.4-4.9-11.1,1.6-12.2,2.9-2.2,2.9-6.9,18.7-9,22.3-2.1,8.6-8.3.8-13.1,3.5-1.8.7-3.6,3.1-2.5,5.1,1.2,2.6,3.9,3.5,6.1,4.6,1.2,1.2-8.1,12.6-6.8,17.5.6,2.1,1.9,5.1,4.6,4,5.3-2.2,9.4-11.9,11.2-15.9,3.9-6.9,18.1-6.2,23.3-6.4,2.7-1,9.4,6.4,10.8,10.5.7,2.1,5.8,1.8,6.6,1.4,5.1-2-2-9-.7-11.9l11.5-2.8s2.3-.9,4.6-2.2c.36-.09.63-.37.86-.72,5.28-1.03,4.34,7.31,8.05,11.02,4.2,4.2,5.3,5.8,9.3,6.9,3.7,1,4.4,1.7,9.9,1,0,0,4.2-.3,8.7-1.7,4.1-1.3,11-2.9,15.2-8.3,1.5-1.5.8-2.9,0-3.9-2.1,0-4.2-.7-6.4-1.8-1.9,0-2.6,1.5-3.7,2.9,0,0-.8,1.5-4.2,3-4.7,2.1-6.3,1.6-11.5,1.3-8.4-.4-9.4-2.1-12.2-6.4-.4-1.9-1.3-2.9-.2-3.9,7.7-2.5,24.5-2.7,24.5-2.7,0,0,11.9.4,16.3-5.3-.8-5.3-2.8-2.8-7.1-2.6-3.7-.1-16.6,1.2-22.8,1.4-6.3.2-7.6.8-9.7-1.4-1.9-2-1.9-5.2,1.9-6.9,5.7-2.6,12-.8,17.7-1.1,6.9-.4,14.9.5,22.9-1.6,0,0,1.1-1.5.9-2.2-.4-.6-.7-1-1.5-2.7-.9-1.7-1.6-2.5-1.6-2.5Zm-90.72,24.5c-2.6,2.8-8.6.9-9.7.7-1.1-.2-.7-1.8-.5-2.7.7-1.7,2-5.2,4.4-4.9,2.4.3,7.8,2.5,5.8,6.9Z"></path><path class="cls-1" d="m427.57,207.88c-.7-1.4-1.7-3-4.3-2.3-1.6,3.3-4.4,4.3-7.2,5.6-8.2,3.6-10,4.1-16,2.4-7.6-3.2-6.1-15.1-6.1-18.5s.1-12.1,1.5-17.6c-.7-4.1-6.3-3.8-7.1-1.4-1.2,3.4-3.1,8.4-3.7,14-.5,4.8-1.1,9.3-1.4,13.8-.1,2.7.2,4.8.7,6.6,2,6.2,5.4,11.4,12.2,14.7,2.6,1.3,6.8,1.3,14.4-1.5,3.8-1.4,8-2.8,15.1-8.6.8-.7,1.6-1.8,1.7-1.7,1.1-2.1,1.5-2.8.2-5.5Z"></path><path class="cls-1" d="m174.52,210.78c-2.2-1.5-2.2,0-4.8,1.6-2.6,1.6-15.1,7.9-28.01,8.7-3.1-.4-7.3.7-9.1-2.4-1.2-3.5.7-6.5,2.9-9,2.6-3.7,3.4-4.4,3.5-4.7.3-.2,2-1.9,2-1.9,2.6-2,8.4-7.5,11.3-9.9,2.9-2.3,3.6-3.2,11.4-7.2v.6c2,4.3,1.4,3.5,3.5,6,2.1,1,4.2.3,5.6-1.4,2.3-2.3.4-9,2.1-16.9-2.5-6.1-5.2-5.6-5.5-5.9-2.8-.4-3.8,1.1-4.8,2.7-1,1.3-1.6,3.1-2.2,4.7-3.1,1.6-6.1,3.5-9.2,5.5-10.12,6.38-16.65,12.27-21.72,18.22-.45-.78-1.09-1.47-1.98-1.92-1.4-.6-11.7,2.3-15.4,2.7-9.8,2.9-14.1-22.7-15.1-24.4-.9-1.7-2.6-3.4-2.6-3.4-4.4-4.9-11.1,1.6-12.2,2.9-2.2,2.8-6.9,18.7-9,22.3-2.1,8.6-8.3.7-13.1,3.5-1.8.7-3.6,3-2.5,5.1.26.55.61.99.98,1.4-1.59-.02-3.35.36-4.58.6-8.3,1.4-19.8,1.6-23,1.4-1.2-.1-2.6-.9-1.9-2.1,7.6-3.7,16.6-14.1,18.4-15.9s1.5-6.3,0-9.5c-4.6-6.8-17.4-5.5-21-4.8s-15.9,8.9-16.8,9.5c-.9.6-4.5,2.9-7.6,2.7-3.2-.1-3.5,3.2-3.7,5.4-.2,2.1-.9,16.4.3,21.1,1.1,4.7,1.8,8.1,6.2,9,4.4-.6,3.5-3.8,3.9-6.8.3-2.9-.2-8.3-.1-10.9.2-2.5,1.1-9.6,5.8-14.4,4.4-4.5,12.3-7.4,19.4-5.1.5.4.7.6.9,1.8-.5,1-2.8,3.3-7.3,5.8-4.8,3.5-10.2,5.4-14.1,10.7-3.6,3.7,0,8.3,1.7,10.8,2.4,3.5,7.6,2.2,11.7,1.7,5.1-.6,10.4,0,15.4-.7l1.7-.1c2.5-.3,2.3-.2,4.8-.7,4.5-.9,8.6.3,11.5-3.4.22-1.72,1.95-2.43,1.94-3.68.53.26,1.06.51,1.56.78,1.2,1.2-8.1,12.6-6.8,17.5.6,2.1,1.9,5.1,4.6,4,5.3-2.2,9.4-11.9,11.2-15.9,3.5-7.8,19.3-5.4,23.3-6.4,2.7-1,9.4,6.4,10.8,10.5.7,2.1,5.8,1.8,6.6,1.4,5.1-2-2-9.1-.7-11.9l10.71-2.61s0,0,0,0c-.3,1.6-2.7,3.1-2.5,11.5.1,4.4,7,9,8.3,9.5,9.7,4,22.2-.8,25.61-2.1,1.8-.7,5-1.5,7.7-3,1.7-.8,12.3-5.4,12.7-10-.8-1.4-2.7-2.6-2.7-2.6Zm-79.12-9.5c-2.5,2.7-8.6.9-9.6.7-1.1-.2-.7-1.8-.5-2.7.7-1.8,2-5.2,4.4-4.9,2.4.3,7.7,2.5,5.7,6.9Z"></path><path class="cls-1" d="m239.83,197.48c5.3-1.3,9.6-2.1,13.2-4.2,1.3-1.7-.5-3.3-.7-4.9-1.7-1.4-1.7-1.6-7.6-.7-3.7.6-3.8.8-7.9,1.6-2.1.4-6.8,2.2-7.9-.1l-.7-2.8c-1.3-6,1.6-13.1-2.5-17.9-1.9-1-3.9-2.1-5.6,0-3.4,6.1-.9,14.9.3,22-1.6,3-7,2.8-9.2,2.8s-6.9,1.6-9.2-2.1c-.6-2.3.7-14.5-2.1-17-1.6-1.2-3.9-1-5.5.2-.9,1.9-2.8,0-2.5,5.6.3,5.6,2,8.5-.7,12.4-4.9.6-12.5-4.6-13.4,2.3.1,2.7,1.3,5.4,3.4,5.1,13.4-2,13.4,5.9,13.9,8,.9,7.4,1.5,10.6,2.7,15,.5,2.2,3.1,4.9,5.1,4.1,4.8-1.9,2.8-2.1,2.8-10.7-.4-3.5-3-9.6-2.3-14.2,5.3-2.1,11.6-.7,17.3-1.2.9.4.9,1.4.9,2.3.9,4.7.5,6,1.7,11,.9,3.5,1.7,9.7,2.5,14.1,0,2.7,4,3.7,5.9,3,6-9.5.2-19.4-.5-29.31-.2-2.9,3.6-3.2,8.6-4.4Z"></path></g><path class="cls-1" d="m435.37,225.19v-6.6h6.3v-39.61h-6.3v-6.6h25.5c4.5,0,8.6.2,12.4,3,3.5,2.6,5,7.1,5,11.4,0,7.1-4.5,12.3-11.6,13.1,6.1.8,7.1,3,8.7,8.5l2.9,10.2h4.4v6.6h-13.2c-1.7-4.9-3.6-17.3-6.9-20.9-1.5-1.5-3.7-1.3-5.7-1.3h-5v15.6h6.1v6.6h-22.6Zm16.5-46.21v17.3h5.1c3,0,6.1-.2,8.3-2.3,2.1-1.8,2.7-4.4,2.7-7,0-2.4-1.1-5.1-3-6.6-1.8-1.3-4.4-1.3-6.5-1.3h-6.6v-.1Z"></path><path class="cls-1" d="m485.48,225.19v-6.6h4.2l17.3-46.11h12.1l17.2,46.11h4.2v6.6h-21.4v-6.6h6.3l-3.3-9.5h-19.6l-3.4,9.5h6.4v6.6h-20Zm34.01-22.8l-7.2-21.4h-.1l-7.2,21.4h14.5Z"></path><polygon class="cls-1" points="534.39 172.38 555.29 172.38 555.29 178.98 549.49 178.98 558.99 195.98 568.89 178.98 563.49 178.98 563.49 172.38 582.7 172.38 582.7 178.98 579.2 178.98 563.49 204.88 563.49 218.48 570.79 218.48 570.79 225.19 546.19 225.19 546.19 218.48 553.39 218.48 553.39 204.88 537.79 178.98 534.39 178.98 534.39 172.38"></polygon><path class="cls-1" d="m588.8,179.48v-6h-2.3v-1.1h5.8v1.1h-2.3v6h-1.2Zm4.3,0v-7.1h1.7l1.8,5.7,1.7-5.7h1.7v7.1h-1v-5.9l-1.8,5.9h-1.1l-1.9-6v6h-1.1Z"></path></svg> 