<?xml version="1.0" encoding="UTF-8"?> <svg xmlns="http://www.w3.org/2000/svg" id="Layer_1" width="8.33in" height="5.56in" viewBox="0 0 600 400"><defs><style>.cls-1{fill:#fff;}</style></defs><path class="cls-1" d="m96.59,191.14h-11.81v26.9c0,4.59,2.62,5.58,6.89,5.58,1.64,0,3.28-.33,4.92-.33v14.11c-3.61,0-7.22.66-10.5.66-16.4,0-20.67-4.92-20.67-21v-25.92h-9.84v-12.8h9.84v-17.72h19.36v17.72h11.81v12.8Zm17.06,21.65c.33,8.2,4.92,13.45,13.12,13.45,4.59,0,9.19-2.3,11.15-6.56h18.04c-3.28,13.78-16.08,19.68-29.2,19.68-19.36,0-32.48-11.48-32.48-31.5,0-18.04,14.44-31.17,31.82-31.17,21.33,0,31.82,16.08,30.84,36.09h-43.31Zm23.95-10.83c-.33-6.56-4.92-12.14-11.48-12.14-6.89,0-11.48,4.92-12.47,12.14h23.95Zm62.01-1.97c0-4.92-4.59-8.53-9.51-8.53-10.83,0-12.47,9.19-12.47,17.39,0,7.55,3.28,15.42,11.48,15.42,6.89,0,10.17-3.94,11.15-10.17h18.7c-1.64,16.08-13.78,25.26-29.53,25.26-17.72,0-31.17-12.14-31.17-30.18s11.81-32.15,31.17-32.15c14.76,0,27.89,7.87,29.2,23.29h-19.03v-.33Zm20.01-39.37h19.36v25.92h.33c2.95-5.91,10.83-9.84,18.04-9.84,19.68,0,21.33,14.44,21.33,22.97v38.06h-19.36v-28.54c0-8.2.98-16.4-9.84-16.4-7.22,0-10.5,6.23-10.5,12.8v32.15h-19.36v-77.1Zm60.69,17.72h18.7v10.5h.33c2.95-7.55,9.51-11.48,17.72-11.48,1.64,0,2.95,0,4.59.33v17.72c-2.62-.66-4.92-.98-7.55-.98-9.51,0-14.44,6.56-14.44,14.11v29.2h-19.36s0-59.38,0-59.38Zm41.34,18.37c.33-7.87,3.94-12.8,9.19-15.75,5.25-2.95,12.14-4.27,18.7-4.27,14.11,0,27.56,2.95,27.56,19.68v25.92c0,4.92,0,10.5,2.3,15.09h-19.36c-.66-1.97-.98-3.61-.98-5.58-5.25,5.58-12.47,7.55-19.68,7.55-11.15,0-20.34-5.58-20.34-18.04,0-19.36,21-17.72,34.45-20.67,3.28-.66,5.25-1.97,5.25-5.58,0-4.59-5.25-6.23-9.51-6.23-5.25,0-8.86,2.3-9.84,7.55h-17.72v.33Zm24.93,30.84c9.19,0,12.47-5.25,11.81-17.39-2.62,1.64-7.87,1.97-11.81,3.28-4.27.98-7.87,2.95-7.87,7.55s3.61,6.56,7.87,6.56Zm93.17,10.17h-18.37v-6.89h-.33c-3.52,5.43-9.6,8.66-16.08,8.53-18.7,0-26.57-16.08-26.57-32.48,0-15.42,8.2-29.86,24.93-29.86,7.22,0,12.8,2.62,16.73,8.2h.33v-24.61h19.36v77.1Zm-41.99-30.18c0,8.2,2.95,17.06,11.81,17.06,9.51,0,11.48-8.86,11.48-16.4,0-8.53-2.95-16.4-11.48-16.4-8.86-.33-11.81,8.2-11.81,15.75Zm44.95-10.83c.33-7.87,3.94-12.8,9.19-15.75,5.25-2.95,12.14-4.27,18.7-4.27,14.11,0,27.56,2.95,27.56,19.68v25.92c0,4.92,0,10.5,2.3,15.09h-19.36c-.66-1.97-.98-3.61-.98-5.58-5.25,5.58-12.8,7.55-19.68,7.55-11.15,0-20.34-5.58-20.34-18.04,0-19.36,21-17.72,34.45-20.67,3.28-.66,5.25-1.97,5.25-5.58,0-4.59-5.25-6.23-9.51-6.23-5.25,0-8.86,2.3-9.84,7.55h-17.72v.33Zm24.93,30.84c9.19,0,12.47-5.25,11.81-17.39-2.62,1.64-7.87,1.97-11.81,3.28-4.27.98-7.87,2.95-7.87,7.55-.33,4.59,3.61,6.56,7.87,6.56Zm33.46-49.21h18.7v10.5h.33c2.95-7.55,9.51-11.48,17.72-11.48,1.64,0,4.92,0,6.56.33v17.72c-2.62-.66-6.56-.98-9.19-.98-9.51,0-14.44,6.56-14.44,14.11v29.2h-19.36v-59.38h-.33Z"></path><path class="cls-1" d="m525.06,218.37h19.36v19.36h-19.36v-19.36Z"></path></svg> 