<?xml version="1.0" encoding="UTF-8"?> <svg xmlns="http://www.w3.org/2000/svg" id="Layer_1" width="600" height="400" viewBox="0 0 600 400"><defs><style>.cls-1{fill:#3c3382;}</style></defs><g><polygon class="cls-1" points="207.53 185.54 227.63 185.54 227.63 241.11 246.7 241.11 246.7 185.54 266.69 185.54 266.69 168.84 207.53 168.84 207.53 185.54"></polygon><g><path class="cls-1" d="m318.15,223.9c-2.35,1.05-5.01,1.59-7.89,1.59s-5.64-.53-8-1.59c-2.36-1.05-4.39-2.51-6.03-4.34-1.65-1.82-2.95-4-3.87-6.47-.92-2.46-1.38-5.18-1.38-8.07s.46-5.6,1.38-8.07c.92-2.46,2.21-4.64,3.87-6.47,1.65-1.83,3.68-3.28,6.03-4.34,2.35-1.05,5.04-1.59,8-1.59s5.53.53,7.89,1.59c2.35,1.05,4.38,2.51,6.03,4.34,1.65,1.83,2.95,4,3.87,6.47.92,2.47,1.38,5.18,1.38,8.07s-.46,5.6-1.38,8.07c-.92,2.46-2.21,4.64-3.87,6.47-1.65,1.82-3.68,3.28-6.03,4.34m19.67-45.79c-3.41-3.28-7.53-5.86-12.24-7.7-4.7-1.83-9.86-2.76-15.32-2.76s-10.7.93-15.37,2.76c-4.67,1.83-8.78,4.42-12.24,7.69-3.45,3.28-6.19,7.25-8.13,11.81-1.94,4.57-2.92,9.65-2.92,15.11s.98,10.54,2.92,15.11c1.94,4.57,4.68,8.54,8.13,11.82,3.45,3.27,7.57,5.86,12.24,7.69s9.84,2.76,15.37,2.76,10.61-.93,15.32-2.76c4.71-1.84,8.83-4.42,12.24-7.7,3.42-3.28,6.13-7.25,8.07-11.81,1.94-4.57,2.92-9.65,2.92-15.11s-.98-10.54-2.92-15.11c-1.94-4.56-4.66-8.53-8.07-11.81"></path><path class="cls-1" d="m410.26,204.92c0,2.6-.44,5.11-1.33,7.47s-2.16,4.44-3.81,6.19c-1.65,1.75-3.71,3.18-6.14,4.23-2.42,1.05-5.23,1.59-8.32,1.59h-11.32v-38.87h11.43c3.24,0,6.11.5,8.54,1.48,2.42.98,4.46,2.37,6.08,4.12,1.62,1.75,2.84,3.81,3.65,6.13.81,2.33,1.22,4.9,1.22,7.65m8.35-26.44c-3.45-3.1-7.59-5.5-12.33-7.15-4.74-1.65-10.01-2.49-15.66-2.49h-30.34v72.27h30.44c5.59,0,10.82-.84,15.55-2.49,4.74-1.65,8.89-4.08,12.33-7.21,3.45-3.13,6.18-6.96,8.12-11.38,1.94-4.43,2.92-9.51,2.92-15.11s-.98-10.68-2.92-15.11c-1.93-4.42-4.67-8.24-8.12-11.33"></path></g><path class="cls-1" d="m478.72,214.1h-17.47l8.73-25.79,8.73,25.79h0Zm3.07-45.26h-23.62l-27.05,71.89-.15.39h21.58l3.55-10.32h27.86l3.55,10.32h21.58l-27.24-72.09-.07-.19h0Z"></path><polygon class="cls-1" points="553.35 168.84 538.14 195 522.81 168.98 522.72 168.84 501.18 168.84 528.61 211.99 528.61 241.11 547.68 241.11 547.68 211.99 575 168.84 553.35 168.84"></polygon></g><g><path class="cls-1" d="m108.33,157.6c-44.57,0-80.98,34.99-83.22,79.01-.08,1.43-.11,2.86-.11,4.32h21.6c0-1.4.05-2.8.15-4.18,2.16-32.09,28.96-57.55,61.58-57.55s59.63,25.65,61.61,57.91c.08,1.26.12,2.53.12,3.81h21.6c0-1.15-.02-2.28-.07-3.42-1.79-44.43-38.38-79.9-83.26-79.9"></path><path class="cls-1" d="m108.33,185.37c-29.45,0-53.54,22.92-55.43,51.89-.08,1.21-.12,2.43-.12,3.66h21.6c0-1.33.08-2.64.23-3.93,1.96-16.87,16.33-30.02,33.72-30.02s31.92,13.28,33.75,30.27c.14,1.21.2,2.43.2,3.67h21.6c0-1.19-.03-2.36-.11-3.53-1.82-29.03-25.95-52.02-55.44-52.02"></path><path class="cls-1" d="m108.33,213.15c-13.55,0-24.83,9.69-27.27,22.52-.33,1.7-.5,3.46-.5,5.26h55.55c0-1.34-.09-2.66-.28-3.95-1.92-13.47-13.49-23.83-27.49-23.83"></path></g></svg> 