<?xml version="1.0" encoding="UTF-8"?> <svg xmlns="http://www.w3.org/2000/svg" id="Layer_1" width="600" height="400" viewBox="0 0 600 400"><defs><style>.cls-1{fill:#fff;}</style></defs><path class="cls-1" d="m25,149.61v100.78h550v-100.78H25Zm357.73,64.62c-4.18,5.86-11.35,9.23-19.71,9.23-14.72,0-24.76-9.67-24.76-24.33s10.1-24.33,24.76-24.33c7.55,0,13.85,2.5,18.03,7.11l.43.43-5.86,5.86-.43-.43c-3.37-2.93-7.55-4.62-12.16-4.62-8.8,0-15.1,6.3-15.1,15.96s6.3,15.96,15.1,15.96c4.18,0,7.98-1.25,10.48-3.8v-7.98h-10.91v-7.98h20.58v18.9h-.43Zm47.84-29.76h-26.44v10.91h24.76v8.36h-24.76v19.33h-9.67v-47.02h36.54v8.42h-.43Zm40.34,0h-13.03v38.61h-9.67v-38.61h-12.6v-8.42h35.29v8.42h0Zm77.21,38.61h-46.59v-47.02h46.59v47.02Z"></path></svg> 