<?xml version="1.0" encoding="UTF-8"?> <svg xmlns="http://www.w3.org/2000/svg" id="Layer_1" width="600" height="400" viewBox="0 0 600 400"><defs><style>.cls-1{fill:#fff;}</style></defs><path class="cls-1" d="m129.55,250.54v-3.08c.34-.14.67-.26.99-.4.58-.25,1.17-.48,1.73-.76,1.94-.96,2.94-2.58,3.15-4.69.08-.75.11-1.5.11-2.25,0-37.61,0-75.21,0-112.82,0-1.06-.12-2.13-.29-3.17-.27-1.63-1.24-2.81-2.67-3.57-.94-.5-1.93-.89-2.97-1.36v-2.98c.52-.02,1.02-.05,1.51-.05,11.78,0,23.55,0,35.33,0,17.39,0,34.78-.02,52.16.01,5.54.01,11.06.43,16.47,1.74,7.5,1.82,13.81,5.57,18.57,11.72,2.8,3.62,4.6,7.72,5.58,12.18,1.3,5.94,1.52,11.91.32,17.88-1.73,8.61-6.61,14.97-14.1,19.42-.68.4-1.37.78-2.25,1.28.47.24.79.42,1.12.57,3.53,1.55,6.82,3.5,9.74,6.03,4.88,4.24,7.92,9.57,9.4,15.82,1.18,5.02,1.25,10.09.72,15.19-.51,4.84-1.84,9.45-4.18,13.73-2.99,5.48-7.27,9.7-12.57,12.94-4.69,2.86-9.81,4.52-15.19,5.45-4.72.82-9.48,1.18-14.27,1.18-28.93,0-57.86,0-86.78,0-.5,0-1.01,0-1.61,0Zm33.83-22.29h1.57c14.66,0,29.32.03,43.98-.02,3.15-.01,6.31-.2,9.46-.46,2.92-.24,5.77-.9,8.48-2.05,4.14-1.75,6.96-4.75,8.27-9.04,1.35-4.41,1.37-8.89.11-13.32-1.29-4.54-4.15-7.77-8.54-9.52-1.75-.7-3.6-1.18-5.45-1.57-3.8-.82-7.69-.88-11.56-.89-15.09-.03-30.19-.01-45.28-.01-.34,0-.69.05-1.06.08v36.82Zm-.01-59.2h1.66c15.14,0,30.27.01,45.41-.01,2.37,0,4.74-.09,7.1-.26,2.25-.16,4.46-.6,6.6-1.35,3.64-1.27,6.04-3.77,7.37-7.35.65-1.76.95-3.59,1.05-5.44.16-3.07-.15-6.08-1.34-8.94-.98-2.34-2.58-4.13-4.82-5.35-1.47-.8-3.04-1.32-4.66-1.69-3.33-.77-6.72-.95-10.12-.95-15.77,0-31.54,0-47.31,0-.3,0-.6.06-.93.09v31.26Z"></path><path class="cls-1" d="m364.18,247.44v3.03h-37.29v-3.02c.28-.11.61-.24.93-.38.62-.26,1.24-.51,1.84-.81,1.93-.99,2.88-2.63,3.07-4.75.06-.63.07-1.26.07-1.89,0-37.76,0-75.53,0-113.29,0-.98-.09-1.97-.25-2.94-.27-1.58-1.18-2.76-2.57-3.51-.97-.53-1.99-.94-3.08-1.45v-2.82c.83-.24,41.45-.33,43.16-.08v2.96c-.37.16-.76.32-1.15.5-2.35,1.08-3.3,3.22-2.5,5.68.48,1.46,1.39,2.65,2.41,3.77,2.36,2.61,4.72,5.21,7.09,7.81,12.81,14.14,25.62,28.27,38.43,42.41,7.88,8.69,15.76,17.38,23.64,26.07.25.28.54.53,1.01,1,.02-.65.05-1.03.05-1.41,0-26.19,0-52.38,0-78.57,0-.35-.02-.71-.04-1.06-.15-2.53-1.39-4.3-3.72-5.31-.69-.3-1.38-.57-2.11-.87v-3.01h37.26c.01.51.02,1.01.03,1.5,0,.47,0,.94,0,1.45-.29.14-.53.26-.78.36-.44.18-.88.34-1.32.53-2.59,1.09-3.81,3.07-3.84,5.84,0,.32,0,.63,0,.95,0,37.92,0,75.85,0,113.77,0,.67.02,1.35.11,2.01.25,1.98,1.26,3.47,3.05,4.37.84.42,1.73.76,2.67,1.18.19.96.12,1.96.04,3.03h-39.92v-3.05c.32-.12.68-.26,1.04-.39,2.43-.88,3.63-3.57,2.06-5.86-1.05-1.53-2.13-3.05-3.37-4.41-17.04-18.72-34.12-37.42-51.18-56.12-6.5-7.12-12.99-14.24-19.5-21.35-.31-.34-.66-.65-1.18-1.15,0,.6-.02,1.01-.02,1.41,0,14.14,0,28.28,0,42.43,0,12.72,0,25.44,0,38.16,0,.51,0,1.03.06,1.54.27,2.21,1.38,3.83,3.42,4.77.75.34,1.52.64,2.4,1.01Z"></path><path class="cls-1" d="m313.46,247.45v3.02h-39.6c-.02-.53-.05-1.02-.06-1.52,0-.47,0-.94,0-1.44.31-.14.54-.26.79-.36.29-.12.59-.23.88-.34,2.8-1.04,4.23-3.05,4.3-6.03,0-.43.03-.87.03-1.3,0-37.64,0-75.29,0-112.93,0-.9-.06-1.82-.18-2.71-.26-1.9-1.3-3.28-3-4.14-.88-.44-1.79-.81-2.74-1.23v-2.97h39.56v3.01c-.26.1-.55.22-.84.33-.37.14-.74.28-1.11.42-2.52,1-3.72,2.93-3.9,5.57-.04.55-.04,1.11-.04,1.66,0,37.6,0,75.21,0,112.81,0,.9.06,1.82.18,2.71.28,2.08,1.43,3.56,3.31,4.45.75.35,1.52.64,2.4,1.01Z"></path><path class="cls-1" d="m455.83,265.33c-1.2,6.31-2.38,12.49-3.57,18.74h-4.51c-.88-3.98-1.43-8.01-2.28-11.99-.09,0-.18,0-.27,0-.72,3.97-1.44,7.95-2.16,11.98h-4.54c-1.18-6.23-2.35-12.45-3.54-18.75h4.32c.62,4.16,1.25,8.32,1.87,12.48.73-2.01.91-4.11,1.27-6.17.37-2.09.67-4.19,1-6.32h4.13c.68,4.15,1.37,8.29,2.05,12.44.66-2.01.86-4.09,1.18-6.15.32-2.07.61-4.14.92-6.27h4.12Z"></path><path class="cls-1" d="m283.36,273.25v10.85h-3.72v-18.8l4.63-.05s2.74,7.34,4.1,10.99c.08,0,.24-.03.24-.03,0,0-.01-3.61.02-5.41.03-1.81,0-5.48,0-5.48h3.58v18.75h-4.49s-2.76-7.24-4.14-10.87c-.07.02-.21.05-.21.05Z"></path><path class="cls-1" d="m298.38,284.12v-18.77c.34-.03.64-.09.94-.09,1.62,0,3.24-.02,4.86,0,3.11.03,5.5,1.66,6.51,4.59,1.12,3.24,1.12,6.54-.02,9.77-.98,2.78-3.11,4.26-5.99,4.48-2.04.15-4.1.03-6.3.03Zm4.32-14.99v10.99c1.9.37,3.24-.3,3.91-2.07.84-2.21.81-4.49.02-6.71-.62-1.76-1.87-2.42-3.93-2.22Z"></path><path class="cls-1" d="m132.17,283.99v-18.62c.26-.04.52-.11.78-.11,1.78-.01,3.55,0,5.33,0,.24,0,.47.01.71.04,4.33.49,4.91,4.1,4.02,6.64-.2.57-.67,1.05-1.05,1.54-.18.24-.44.42-.72.67.3.19.53.34.75.49.93.62,1.55,1.49,1.8,2.55.27,1.16.27,2.36-.09,3.51-.64,2.04-2.38,3.34-4.77,3.43-2.13.08-4.27.01-6.4,0-.11,0-.22-.07-.38-.13Zm3.99-3.32c.73,0,1.4.08,2.04-.02.97-.15,1.59-.88,1.72-1.85.22-1.63-.7-2.77-2.35-2.88-.46-.03-.92,0-1.41,0v4.76Zm-.01-8.06c1.45.34,2.63.05,3.14-.75.45-.69.43-1.81-.03-2.46-.55-.78-1.82-1.03-3.11-.62v3.83Z"></path><path class="cls-1" d="m204.64,275.75c1.07,2.79,2.1,5.5,3.17,8.33h-4.47c-.83-2.41-1.68-4.9-2.55-7.42h-1.14c-.05.18,0,7.42,0,7.42h-4.09v-18.76s.51-.07.77-.07c1.9,0,3.79-.02,5.69,0,3.12.04,5.03,1.86,5.22,4.95.03.47.02.95,0,1.42-.11,1.78-.89,3.16-2.59,4.13Zm-5.05-2.23c1.58.3,2.57,0,3.13-.91.52-.84.5-2.38-.09-3.16-.79-1.05-1.89-.9-3.05-.8,0,1.69,0,3.29,0,4.87Z"></path><path class="cls-1" d="m372.23,275.74c1.06,2.8,2.09,5.52,3.16,8.34h-4.49c-.83-2.45-1.66-4.9-2.51-7.41h-1.3v7.4h-3.87c-.25-.87-.33-17.07-.1-18.65.06-.04.13-.12.19-.12,2.25-.02,4.5-.11,6.74-.01,2.67.12,4.37,1.79,4.72,4.44.07.54.09,1.1.06,1.65-.1,1.84-.79,3.37-2.61,4.36Zm-5.12-7.09c-.03,1.73-.03,3.32,0,4.94,1.29.15,2.42.18,3.12-.92.65-1.01.63-2.13,0-3.15-.7-1.14-1.85-.97-3.12-.88Z"></path><path class="cls-1" d="m324.84,265.32h4.2c.02.41.06.76.06,1.1,0,3.43.03,6.87-.01,10.3-.01,1.06-.09,2.14-.33,3.17-.81,3.43-3.61,5.18-7.28,4.65-2.44-.35-4.04-1.72-4.71-4.08-.29-1.01-.43-2.09-.45-3.15-.05-3.75-.02-7.5-.02-11.25,0-.23.04-.45.07-.74h4.18c.01.41.04.83.04,1.24,0,3.51-.01,7.03.01,10.54,0,.7.08,1.42.26,2.1.27,1.03.94,1.51,1.86,1.5.87,0,1.54-.45,1.77-1.45.23-.99.33-2.03.34-3.04.04-3.16.02-6.32.02-9.47,0-.43,0-.86,0-1.42Z"></path><path class="cls-1" d="m241.31,267.02c-.77,1.04-1.48,2.01-2.25,3.04-.33-.3-.57-.55-.83-.77-1.32-1.09-3.08-.92-4.03.51-.49.74-.84,1.62-1.02,2.49-.37,1.79-.35,3.61.13,5.39.17.64.45,1.28.81,1.82.84,1.26,2.08,1.52,3.6.8v-3.42c-.62-.04-1.2-.07-1.91-.12-.14-1.21-.04-2.4-.06-3.68h5.71v10.02c-.42.24-.84.53-1.3.74-1.59.72-3.27.9-4.98.66-2.32-.32-3.98-1.63-5.08-3.66-1.05-1.93-1.35-4.03-1.36-6.18,0-2.03.3-4.02,1.21-5.87.97-1.97,2.41-3.45,4.64-3.88,2.09-.41,4.1-.18,5.83,1.21.3.24.55.54.9.88Z"></path><path class="cls-1" d="m225.4,284.08h-4.39c-.27-1.08-.53-2.15-.83-3.37-1.34-.08-2.7-.04-4.18-.02-.28,1.12-.56,2.21-.85,3.37h-4.16c.62-3.22,1.48-6.31,2.22-9.43.74-3.1,1.52-6.2,2.28-9.33h5.39c1.49,6.19,2.98,12.39,4.51,18.78Zm-7.19-14.55c-.09-.02-.18-.05-.27-.07-.5,2.56-.99,5.13-1.51,7.77,1.14.2,2.12.13,3.23.08-.5-2.7-.97-5.23-1.45-7.77Z"></path><path class="cls-1" d="m172.16,284.09h-5.42c-1.51-6.25-3.01-12.47-4.53-18.78h4.79c.83,4.42,1.66,8.82,2.49,13.22.08,0,.16,0,.24,0,.81-4.38,1.62-8.77,2.44-13.21h4.63c-1.56,6.31-3.1,12.53-4.64,18.77Z"></path><polygon class="cls-1" points="250.91 280.28 256.26 280.28 256.26 284.07 246.94 284.07 246.94 265.29 255.93 265.28 255.93 269 250.95 269 250.92 272.76 255.52 272.76 255.52 276.06 250.96 276.18 250.91 280.28"></polygon><polygon class="cls-1" points="153.3 280.28 158.65 280.28 158.65 284.07 149.33 284.07 149.33 265.29 158.32 265.28 158.32 269 153.33 269 153.31 272.76 157.9 272.76 157.9 276.06 153.34 276.18 153.3 280.28"></polygon><polygon class="cls-1" points="185.06 280.28 190.41 280.28 190.41 284.07 181.09 284.07 181.09 265.29 190.07 265.28 190.07 269 185.09 269 185.06 272.76 189.66 272.76 189.66 276.06 185.1 276.18 185.06 280.28"></polygon><path class="cls-1" d="m470.16,266.7c-.71,1.01-1.38,1.97-2.1,3-.33-.22-.6-.47-.91-.59-.54-.21-1.11-.43-1.68-.47-.76-.05-1.37.33-1.68,1.08-.32.78-.18,1.66.44,2.18.48.4,1.04.71,1.58,1.03.57.35,1.19.62,1.75,1,2.13,1.44,2.91,3.78,2.2,6.49-.62,2.37-2.54,3.98-5.03,4.16-2.23.16-4.2-.48-5.98-2.09.71-1.03,1.39-2.02,2.12-3.08.36.23.63.47.94.6.65.26,1.31.57,1.99.67.92.13,1.61-.35,1.89-1.1.3-.8.11-1.73-.55-2.27-.49-.39-1.05-.7-1.59-1.02-.57-.35-1.19-.63-1.74-1.01-1.78-1.22-2.79-3.19-2.01-6.44.56-2.32,2.61-3.9,4.98-4.06,2.32-.15,4.29.57,5.39,1.91Z"></path><path class="cls-1" d="m344.68,266.7c-.71,1.01-1.38,1.97-2.1,3-.33-.22-.6-.47-.91-.59-.54-.21-1.11-.43-1.68-.47-.76-.05-1.37.33-1.68,1.08-.32.78-.18,1.66.44,2.18.48.4,1.04.71,1.58,1.03.57.35,1.19.62,1.75,1,2.13,1.44,2.91,3.78,2.2,6.49-.62,2.37-2.54,3.98-5.03,4.16-2.23.16-4.2-.48-5.98-2.09.71-1.03,1.39-2.02,2.12-3.08.36.23.63.47.94.6.65.26,1.31.57,1.99.67.92.13,1.61-.35,1.89-1.1.3-.8.11-1.73-.55-2.27-.49-.39-1.05-.7-1.59-1.02-.57-.35-1.19-.63-1.74-1.01-1.78-1.22-2.79-3.19-2.01-6.44.56-2.32,2.61-3.9,4.98-4.06,2.32-.15,4.29.57,5.39,1.91Z"></path><path class="cls-1" d="m387.4,265.3h4.46c-.17.47-.3.87-.46,1.26-1.3,3.26-2.62,6.52-3.88,9.79-.25.64-.35,1.37-.38,2.06-.06,1.46-.02,2.92-.02,4.38,0,.39,0,.78,0,1.28-1.38.13-2.66.05-4.03.06-.05-.36-.12-.66-.12-.95-.01-1.54-.03-3.08,0-4.62.01-.77-.14-1.48-.42-2.19-1.33-3.34-2.64-6.68-3.96-10.02-.11-.29-.23-.58-.4-1.03,1.56-.14,3.02-.05,4.55-.07.74,2.51,1.46,4.95,2.19,7.39,1.05-2.37,1.64-4.85,2.46-7.35Z"></path><path class="cls-1" d="m351.25,284.07v-15.47h-3.32v-3.3c3.61-.1,7.25-.03,10.96-.05v3.3h-3.38c-.13,2.69-.05,5.24-.06,7.79-.01,2.55,0,5.1,0,7.73h-4.19Z"></path><path class="cls-1" d="m273.42,284.07h-4.1v-18.75h4.02c.23.83.31,16.97.08,18.75Z"></path><polygon class="cls-1" points="425.91 280.28 431.26 280.28 431.26 284.07 421.94 284.07 421.94 265.29 430.93 265.28 430.93 269 425.94 269 425.92 272.76 430.52 272.76 430.52 276.06 425.96 276.18 425.91 280.28"></polygon><path class="cls-1" d="m406.91,273.25v10.85h-3.72v-18.8l4.63-.05s2.74,7.34,4.1,10.99c.08,0,.24-.03.24-.03,0,0-.01-3.61.02-5.41.03-1.81,0-5.48,0-5.48h3.58v18.75h-4.49s-2.76-7.24-4.14-10.87c-.07.02-.21.05-.21.05Z"></path></svg> 