<?xml version="1.0" encoding="UTF-8"?> <svg xmlns="http://www.w3.org/2000/svg" id="Layer_1" width="100" height="13.35" viewBox="0 0 100 13.35"><defs><style>.cls-1{fill:#02024e;}</style></defs><g id="Embroker"><g><path class="cls-1" d="m57.52,0c.57.14,1.15.23,1.71.42,3.04,1,4.78,3.83,4.44,7-.35,3.35-2.86,5.48-5.92,5.87-.08.01-.15.04-.23.07h-1.63c-.43-.1-.88-.18-1.3-.29-5.5-1.54-5.97-7.77-3.3-10.74,1.17-1.3,2.64-2,4.34-2.25.09-.01.18-.05.26-.07h1.63,0Zm2.06,6.71v-.29c0-1.58-1.29-2.85-2.87-2.84-.33,0-.65.06-.95.17-1.62.59-2.15,2-1.89,3.66.23,1.5,1.62,2.55,3.13,2.36,1.57-.17,2.65-1.45,2.58-3.06h0s0,0,0,0Z"></path><path class="cls-1" d="m11.31.21c1.22,0,2.41,0,3.61.01.13.03.25.1.32.22.94,1.3,1.87,2.59,2.8,3.89.06.08.11.15.2.27.08-.1.15-.19.22-.28.93-1.28,1.86-2.57,2.78-3.86.1-.17.29-.27.49-.25,1.14.01,2.3,0,3.46,0v12.91h-3.97v-6.31l-.07-.03-2.9,3.63c-.97-1.23-1.92-2.42-2.93-3.71v6.4h-3.99V.21h0Z"></path><path class="cls-1" d="m35.11,6.5c1.02.44,1.71,1.13,1.97,2.18.4,1.62-.15,3.69-2.47,4.25-.49.12-1,.19-1.51.2-2.14.02-4.28,0-6.42,0-.07,0-.14,0-.23-.01V.22c.13,0,.24-.01.35-.01,1.94,0,3.9-.02,5.85.01.61.01,1.22.1,1.81.27,1.52.44,2.3,1.53,2.35,3.12.04,1.3-.51,2.25-1.71,2.89h0Zm-4.81,1.61v1.71c.74,0,1.46.03,2.18,0,.45,0,.82-.35.82-.8v-.05c0-.46-.37-.84-.84-.85-.71-.04-1.41-.01-2.16-.01h0s0,0,0,0Zm0-2.98c.72,0,1.41.03,2.09-.01.43-.03.66-.35.66-.78s-.2-.74-.63-.77c-.7-.05-1.4-.01-2.12-.01v1.57h0Z"></path><path class="cls-1" d="m38,.21h1.66c1.63,0,3.27-.02,4.9.01,1.06,0,2.1.35,2.94,1,1.09.86,1.54,2.03,1.64,3.37.14,1.85-.58,3.26-2.19,4.24l2.64,4.3h-2c-.72,0-1.44-.01-2.16,0-.19.02-.37-.08-.45-.25-.59-1.01-1.2-2.01-1.77-3.03-.18-.32-.38-.47-.74-.42-.15.01-.31.01-.46,0v3.68h-3.99V.21s0,0,0,0Zm4.01,6.05c.75-.03,1.48-.03,2.21-.11.61-.07.93-.52.95-1.14.02-.74-.27-1.26-.89-1.33-.74-.08-1.5-.02-2.26-.02v2.6h0Z"></path><path class="cls-1" d="m0,.23h10.05v3.44h-6.04v1.22h6.03v3.38h-5.68c-.29,0-.41.07-.38.37s0,.63,0,1h6.07v3.47H0V.23h0Z"></path><path class="cls-1" d="m88.41.22c.08,0,.14-.01.2-.01,2.11,0,4.21-.01,6.32.01.9,0,1.79.25,2.56.72,1.05.64,1.76,1.7,1.94,2.91.26,1.41.13,2.77-.84,3.91-.35.41-.79.74-1.22,1.12.84,1.36,1.71,2.77,2.62,4.24h-4.19c-.19.02-.37-.09-.44-.26-.59-1.02-1.21-2.03-1.78-3.06-.17-.3-.35-.44-.69-.39-.16.01-.33.01-.49,0v3.68h-3.99V.22h0Zm4,6.04c.76-.03,1.5-.03,2.22-.11.59-.07.92-.5.96-1.1.04-.68-.23-1.26-.78-1.34-.78-.12-1.59-.1-2.39-.14v2.69h0Z"></path><path class="cls-1" d="m68.67,5.5c1.06-1.66,2.14-3.32,3.19-4.99.11-.21.33-.33.57-.3,1.41.01,2.82,0,4.29,0-.09.14-.15.25-.21.35-1.24,1.85-2.46,3.71-3.71,5.54-.16.18-.16.44,0,.62,1.31,2.01,2.6,4.03,3.9,6.05.06.1.12.2.21.33-.13.01-.23.02-.33.02h-4.08c-.2.02-.39-.09-.48-.26-1.05-1.67-2.1-3.34-3.16-5.01-.07-.1-.14-.2-.26-.38v5.63h-4.07V.25h4.06v5.24h.09s0,.01,0,.01Z"></path><path class="cls-1" d="m77.58.23h9.55v3.44h-5.52v1.21h5.53v3.38h-5.52v1.38h5.52v3.47h-9.56V.23h0Z"></path></g></g></svg> 