<?xml version="1.0" encoding="UTF-8"?> <svg xmlns="http://www.w3.org/2000/svg" id="Layer_1" width="600" height="400" viewBox="0 0 600 400"><defs><style>.cls-1{fill:#3a357e;}</style></defs><path class="cls-1" d="m117.57,171.83h5.49v-3.14h-13.99l-11.27,50.57-11.49-50.57h-15.06v3.14h6.23v49.19c0,4.3-.5,12.21-.7,15.18h-11.27l-13.25-75.4h-6.25l-10.11,55.42c-1.42,8.27-3.2,17.1-3.8,19.98h-7.11v3.3h19.02v-3.3h-7.21c.62-4.24,2.54-17.6,3.18-23.22h11.99l3.78,23.22h-5.31v3.3h37.46v-3.3h-5.99c-.16-2.72-.54-9.61-.54-15.18v-34.84l12.35,53.43h2.96l12.11-55.58v52.19h-5.69v3.28h20.1v-3.28h-5.61v-64.37Zm-77.06,37.72l5.61-32.21,5.07,32.21h-10.69Z"></path><path class="cls-1" d="m126.74,172.03h5.53v64.23h-5.53v3.34h31.09v-25.17h-3.46v1.28c.21,5.34-.86,10.66-3.12,15.5-1.88,3.5-4.22,5.05-6.49,5.05h-3.88v-33.39c.66.09,1.29.34,1.82.74h0c1.52,1.14,2.62,4.38,3.12,7.33.31,1.87.49,3.76.54,5.65v1.38h3.48v-33.73h-3.3v1.28c-.04,1.9-.22,3.8-.54,5.67-.5,2.96-1.6,6.23-3.14,7.45h0c-.54.37-1.17.6-1.82.66v-27.29h3.8c2.26,0,4.62,1.58,6.49,5.13,2.25,4.88,3.32,10.23,3.12,15.6v1.24h3.46v-25.19h-31.17v3.22Z"></path><path class="cls-1" d="m201.46,222.2c-.6.03-1.16.33-1.52.82-.38.59-.55,1.3-.5,2v2.6c.13,2.48-.32,4.95-1.34,7.21-.8,1.4-1.58,1.76-2.36,1.78-.24,0-.47-.1-.62-.3-.8-.78-1.28-4.2-1.22-8.19v-9.71c.27-4.11-1.35-8.13-4.4-10.91-1.79-1.83-4-3.2-6.43-4,8.41-3.7,11.37-10.31,11.31-16.58-.09-4.59-1.68-9.02-4.54-12.61-4.28-5.01-10.43-5.61-15.78-5.61h-12.23v3.34h4.88v64.27h-4.88v3.28h19.22v-3.28h-5.73v-30.71c2.72-.17,5.4.68,7.51,2.4,2.64,2.54,2.76,7.11,2.74,10.85v9.51c-.05,2.65.59,5.28,1.86,7.61,1.29,2.45,3.83,3.99,6.59,4h.16c2.54.04,4.93-1.15,6.43-3.2,2.32-2.96,3-7.69,3.02-11.81.02-.59-.12-1.18-.4-1.7-.35-.66-1.03-1.06-1.78-1.06m-18.84-47.27c1.21,1.91,1.96,4.07,2.22,6.31.31,1.9.49,3.83.52,5.75.16,4.09-.73,8.15-2.6,11.79-.79,1.37-2.04,2.42-3.54,2.96-1.25.32-2.54.46-3.84.42v-30.13c2.74-.24,5.44.85,7.25,2.92h0l-.02-.02Z"></path><polygon class="cls-1" points="203.2 171.97 207.87 171.97 207.87 236.25 204.02 236.25 204.02 237.53 204.02 238.34 204.02 239.6 220.94 239.6 220.94 236.25 216.41 236.25 216.41 171.97 220.94 171.97 220.94 168.82 203.2 168.82 203.2 171.97"></polygon><path class="cls-1" d="m250.89,213.05c-.13-.39-.37-.73-.7-.98-.38-.28-.83-.43-1.3-.42-.83.04-1.54.59-1.8,1.38-.17.57-.25,1.16-.22,1.76.07,4.37-.34,8.74-1.22,13.03-.43,2.14-1.28,4.18-2.5,5.99-.92,1.39-2.47,2.22-4.14,2.24h-.24c-.79.12-1.59-.05-2.26-.48-1.18-1.17-2.03-2.64-2.46-4.26-1.24-4.56-1.91-9.26-2-13.99-.32-5.27-.32-10.21-.32-12.13-.23-8.63.36-17.26,1.78-25.77.38-2.28,1.18-4.47,2.38-6.45.59-1.05,1.67-1.73,2.88-1.8,1.43.06,2.75.8,3.54,2,3.34,4.22,4.66,14.43,4.62,19.44v1.4h3.3v-26.37h-3v1.28c-.04.41-.2.8-.46,1.12-.24.39-.68.61-1.14.56-.74,0-1.16-.38-2.2-1.22-1.3-1.12-2.95-1.73-4.66-1.74-2.86.16-5.52,1.54-7.29,3.8-6.11,6.87-9.83,21.26-9.87,33.81-.09,7.84,1.33,15.62,4.2,22.92,1.22,3.05,3.05,5.82,5.37,8.13,2.12,2.12,4.99,3.31,7.99,3.32h0c2.36-.04,4.58-1.09,6.11-2.88,4.64-5.17,5.83-15.28,5.99-21.98.02-.55-.04-1.09-.18-1.62"></path><path class="cls-1" d="m311.45,172.03h4.9c0,2.82.12,9.99.12,15.28v27.01l-12.11-45.51h-15.36v3.22h6.17v49.11c0,3.44-.5,11.99-.7,15.18h-9.33l-11.77-67.51h-5.83l-9.01,49.75c-1.26,7.29-2.8,15.04-3.36,17.76h-5.49v3.28h16.4v-3.28h-6.39c.6-4,2.22-15.42,2.78-20.46h10.29l3.3,20.46h-4.66v3.28h33.03v-3.28h-4.78c-.16-3.16-.56-11.65-.56-15.18v-40.44l15.62,58.9h5.79v-52.35c0-4.48.5-12.33.7-15.28h6.33v-3.16h-15.98l-.1,3.22Zm-48.47,40.42l4.78-27.57,4.3,27.57h-9.07Z"></path><path class="cls-1" d="m374.36,203.06c-2.41-3.29-5.82-5.71-9.71-6.91,2.42-.98,4.64-2.38,6.57-4.14,3.75-3.27,5.93-7.99,5.99-12.97.28-5.99-2.61-11.69-7.61-15-4.5-2.74-9.68-4.13-14.94-4h-14.67v3.24h6.51v72.97h-6.51v3.36h14.67c6.22.28,12.36-1.49,17.46-5.05,4.6-3.58,7.43-9.23,7.41-17,.02-5.27-1.77-10.38-5.07-14.49m-7.17-22.78c0,7.35-4,12.33-6.11,13.23-1.67.66-3.44.99-5.23.98v-31.19c4.24.12,5.85.76,7.99,2.62,3.06,2.68,3.32,10.79,3.26,14.37m1.04,38.38c.25,4.81-.84,9.59-3.14,13.83-2.52,3.44-6.27,3.74-9.25,3.76v-37.96c3.32-.32,6.6.97,8.81,3.48,1.62,2.1,3.6,8.23,3.56,16.9"></path><path class="cls-1" d="m437.46,172.03h4.88c0,2.82.14,9.99.14,15.28v27.01l-11.99-45.51h-15.36v3.22h6.17v49.11c0,3.44-.5,11.99-.7,15.18h-10.47l-11.87-67.51h-5.85l-9.03,49.75c-1.24,7.29-2.78,15.04-3.34,17.76h-6.35v3.28h17.26v-3.28h-6.31c.6-4,2.22-15.42,2.78-20.46h10.31l3.32,20.46h-4.66v3.28h34.15v-3.28h-4.78c-.14-3.16-.54-11.65-.54-15.18v-40.44l15.36,58.9h5.81v-52.35c0-4.48.48-12.33.68-15.28h4.64v-3.16h-14.27l.02,3.22Zm-49.61,40.42l4.78-27.57,4.32,27.57h-9.09Z"></path><path class="cls-1" d="m474.12,194.01l3.04-6.35c1.84-4,5.99-12.99,7.23-15.6h6.41v-3.24h-14.76v3.22h4.1c-.52,1.3-1.3,3.2-2.1,5.15-1.46,3.58-3.06,7.45-3.5,8.35l-7.49,15.38v-28.89h5.35v-3.22h-19.24v3.22h5.13v64.29h-4.7v3.28h17.34v-3.28h-3.9v-27.97l1.5-2.86,9.01,30.83h-2.84v3.28h16.56v-3.28h-4.9l-12.27-42.32Z"></path><path class="cls-1" d="m493.86,172.03h4.66v64.31h-4.26v3.26h29.79v-25.17h-3.46v1.28c.21,5.36-.86,10.68-3.12,15.54-1.88,3.52-4.22,5.09-6.49,5.09h-3.78v-33.47c.65.08,1.28.34,1.8.74h0c1.5,1.14,2.62,4.38,3.1,7.31.32,1.88.51,3.77.56,5.67v1.38h3.46v-33.73h-3.46v1.28c-.05,1.9-.24,3.8-.56,5.67-.48,2.96-1.6,6.23-3.12,7.45h0c-.54.35-1.16.56-1.8.64v-27.27h3.78c2.26,0,4.62,1.58,6.49,5.13,2.25,4.88,3.32,10.23,3.12,15.6v1.24h3.46v-25.19h-30.17v3.22Z"></path><path class="cls-1" d="m568.87,222.86c-.35-.66-1.03-1.06-1.78-1.06-.6.03-1.16.33-1.52.82-.38.59-.55,1.3-.5,2v2.6c.14,2.46-.32,4.92-1.34,7.17-.8,1.36-1.56,1.72-2.36,1.74-.25.01-.49-.1-.64-.3-.78-.74-1.26-4.12-1.2-8.11v-9.73c.27-4.11-1.35-8.13-4.4-10.91-1.8-1.8-4.01-3.14-6.43-3.9,8.41-3.72,11.37-10.33,11.31-16.6-.1-4.57-1.69-8.97-4.54-12.55-4.28-5.01-10.43-5.61-15.78-5.59h-12.23v3.1h4.88v64.43h-4.88v3.28h19.22v-3.28h-5.73v-30.77c2.73-.16,5.41.73,7.51,2.48,2.64,2.52,2.76,7.09,2.74,10.83v9.47c-.03,2.6.6,5.16,1.82,7.45,1.26,2.49,3.8,4.08,6.59,4.12h.14c2.54,0,4.94-1.19,6.45-3.24,2.32-2.96,3-7.67,3.02-11.81.02-.59-.12-1.18-.4-1.7m-20.58-48.27c1.21,1.91,1.96,4.07,2.22,6.31.31,1.9.49,3.83.52,5.75.16,4.09-.73,8.15-2.6,11.79-.78,1.38-2.04,2.43-3.54,2.96-1.25.32-2.54.46-3.84.42v-30.21c2.74-.24,5.44.85,7.25,2.92h0l-.02.06Z"></path><path class="cls-1" d="m572.14,233.79c-1.58,0-2.86,1.28-2.86,2.86,0,1.58,1.28,2.86,2.86,2.86s2.86-1.28,2.86-2.86c0,0,0-.01,0-.02,0-1.57-1.27-2.84-2.84-2.84,0,0-.01,0-.02,0m0,5.29c-1.34.08-2.5-.95-2.57-2.29-.08-1.34.95-2.5,2.29-2.57s2.5.95,2.57,2.29c0,.04,0,.08,0,.12.06,1.3-.95,2.4-2.26,2.46-.03,0-.05,0-.08,0"></path><path class="cls-1" d="m573.48,235.97c0-.64-.38-.96-1.16-.96h-1.3v3.34h.52v-1.42h.56l.9,1.42h.56l-.96-1.46c.49,0,.88-.39.88-.88,0-.01,0-.03,0-.04m-1.4.54h-.54v-1.08h.68c.36,0,.74,0,.74.52s-.42.56-.88.56"></path></svg> 