<?xml version="1.0" encoding="UTF-8"?> <svg xmlns="http://www.w3.org/2000/svg" id="Layer_1" width="600" height="400" viewBox="0 0 600 400"><defs><style>.cls-1{fill:#3a357e;}</style></defs><path class="cls-1" d="m25,205.4v-25.3h5.57v14.84c2.29-2.7,5.25-4.05,8.88-4.05,4.01,0,7.43,1.42,10.26,4.25,2.83,2.83,4.24,6.25,4.24,10.26s-1.42,7.43-4.24,10.26c-2.83,2.83-6.25,4.24-10.26,4.24s-7.42-1.41-10.23-4.24-4.22-6.25-4.22-10.26Zm14.45-9.17c-2.51,0-4.64.89-6.38,2.67-1.74,1.78-2.61,3.95-2.61,6.49s.86,4.76,2.59,6.52c1.72,1.76,3.86,2.64,6.41,2.64s4.73-.88,6.44-2.64c1.71-1.76,2.56-3.94,2.56-6.52s-.86-4.76-2.59-6.52c-1.73-1.76-3.86-2.64-6.41-2.64Z"></path><path class="cls-1" d="m70.72,219.91c-4.01,0-7.43-1.41-10.26-4.24-2.83-2.83-4.25-6.25-4.25-10.26s1.42-7.43,4.25-10.26,6.25-4.25,10.26-4.25,7.42,1.42,10.23,4.25c2.81,2.83,4.22,6.25,4.22,10.26v14.06h-5.51v-4.44c-.68,1.39-1.85,2.55-3.52,3.49-1.67.94-3.48,1.41-5.43,1.41Zm-6.38-8.01c1.74,1.78,3.89,2.67,6.44,2.67s4.68-.88,6.38-2.64c1.71-1.76,2.56-3.94,2.56-6.52s-.85-4.76-2.56-6.52c-1.71-1.76-3.83-2.64-6.38-2.64s-4.74.88-6.47,2.64c-1.73,1.76-2.59,3.94-2.59,6.52s.87,4.71,2.61,6.49Z"></path><path class="cls-1" d="m107.77,219.46v-14.79c0-5.62-2.29-8.43-6.86-8.43s-6.86,2.81-6.86,8.43v14.79h-5.51v-14.79c0-4.57,1.12-8.01,3.37-10.32,2.25-2.3,5.25-3.46,9-3.46s6.75,1.15,9,3.46c2.25,2.31,3.37,5.75,3.37,10.32v14.79h-5.51Z"></path><path class="cls-1" d="m117.22,219.46v-39.36h5.51v21.93l10.97-10.68h7.03l-10.8,10.74,12.65,17.38h-6.13l-10.29-13.89-3.43,3.32v10.57h-5.51Z"></path><path class="cls-1" d="m168.17,219.91c-4.01,0-7.43-1.41-10.26-4.24-2.83-2.83-4.25-6.25-4.25-10.26s1.41-7.43,4.25-10.26c2.83-2.83,6.25-4.25,10.26-4.25s7.42,1.42,10.23,4.25c2.81,2.83,4.22,6.25,4.22,10.26v14.06h-5.51v-4.44c-.67,1.39-1.85,2.55-3.51,3.49-1.67.94-3.48,1.41-5.43,1.41Zm-6.38-8.01c1.74,1.78,3.89,2.67,6.44,2.67s4.67-.88,6.38-2.64c1.71-1.76,2.56-3.94,2.56-6.52s-.85-4.76-2.56-6.52c-1.71-1.76-3.83-2.64-6.38-2.64s-4.74.88-6.47,2.64c-1.73,1.76-2.59,3.94-2.59,6.52s.87,4.71,2.61,6.49Z"></path><path class="cls-1" d="m211.3,206.13c0,4.57-1.13,8.01-3.37,10.32-2.25,2.31-5.25,3.46-9,3.46s-6.75-1.15-9-3.46c-2.25-2.3-3.37-5.74-3.37-10.32v-14.79h5.51v14.79c0,5.62,2.29,8.43,6.86,8.43s6.86-2.81,6.86-8.43v-14.79h5.51v14.79Z"></path><path class="cls-1" d="m239.99,195.14c2.83-2.83,6.25-4.25,10.26-4.25s7.43,1.42,10.26,4.25c2.83,2.83,4.24,6.25,4.24,10.26s-1.41,7.43-4.24,10.26-6.25,4.24-10.26,4.24-7.43-1.41-10.26-4.24c-2.83-2.83-4.25-6.25-4.25-10.26s1.41-7.43,4.25-10.26Zm10.32,1.1c-2.59,0-4.74.88-6.47,2.64-1.73,1.76-2.59,3.94-2.59,6.52s.87,4.71,2.61,6.49c1.74,1.78,3.89,2.67,6.44,2.67s4.67-.88,6.38-2.64c1.71-1.76,2.56-3.94,2.56-6.52s-.85-4.76-2.56-6.52c-1.71-1.76-3.83-2.64-6.38-2.64Z"></path><path class="cls-1" d="m298.72,190.89c3.67,0,6.62,1.16,8.85,3.49,2.23,2.32,3.35,5.76,3.35,10.29v14.79h-5.51v-14.79c0-5.62-2.23-8.43-6.69-8.43s-6.69,2.81-6.69,8.43v14.79h-5.51v-14.79c0-5.62-2.23-8.43-6.69-8.43s-6.69,2.81-6.69,8.43v14.79h-5.51v-14.79c0-4.54,1.11-7.97,3.35-10.29,2.23-2.32,5.18-3.49,8.86-3.49,4.46,0,7.61,1.74,9.45,5.23,1.84-3.49,4.99-5.23,9.45-5.23Z"></path><path class="cls-1" d="m519.97,219.46c-3.67,0-6.62-1.16-8.85-3.49-2.23-2.32-3.35-5.76-3.35-10.29v-14.79h5.51v14.79c0,5.62,2.23,8.43,6.69,8.43s6.69-2.81,6.69-8.43v-14.79h5.51v14.79c0,5.62,2.23,8.43,6.69,8.43s6.69-2.81,6.69-8.43v-14.79h5.51v14.79c0,4.54-1.11,7.97-3.35,10.29-2.23,2.32-5.18,3.49-8.86,3.49-4.46,0-7.61-1.74-9.45-5.23-1.84,3.49-4.99,5.23-9.45,5.23Z"></path><path class="cls-1" d="m328.52,219.91c-4.01,0-7.43-1.41-10.26-4.24-2.83-2.83-4.25-6.25-4.25-10.26s1.41-7.43,4.25-10.26c2.83-2.83,6.25-4.25,10.26-4.25s7.42,1.42,10.23,4.25c2.81,2.83,4.22,6.25,4.22,10.26v14.06h-5.51v-4.44c-.67,1.39-1.85,2.55-3.51,3.49-1.67.94-3.48,1.41-5.43,1.41Zm-6.38-8.01c1.74,1.78,3.89,2.67,6.44,2.67s4.67-.88,6.38-2.64c1.71-1.76,2.56-3.94,2.56-6.52s-.85-4.76-2.56-6.52c-1.71-1.76-3.83-2.64-6.38-2.64s-4.74.88-6.47,2.64c-1.73,1.76-2.59,3.94-2.59,6.52s.87,4.71,2.61,6.49Z"></path><path class="cls-1" d="m370.4,187.46c-.98,0-1.78-.33-2.42-.98-.64-.66-.96-1.45-.96-2.39s.32-1.73.96-2.39c.64-.66,1.44-.98,2.42-.98s1.72.33,2.36.98c.64.66.96,1.45.96,2.39s-.32,1.73-.96,2.39c-.64.66-1.43.98-2.36.98Zm-2.76,32v-28.12h5.51v28.12h-5.51Z"></path><path class="cls-1" d="m381.06,195.14c2.83-2.83,6.25-4.25,10.26-4.25s7.43,1.42,10.26,4.25c2.83,2.83,4.24,6.25,4.24,10.26s-1.41,7.43-4.24,10.26-6.25,4.24-10.26,4.24-7.43-1.41-10.26-4.24c-2.83-2.83-4.25-6.25-4.25-10.26s1.41-7.43,4.25-10.26Zm10.32,1.1c-2.59,0-4.74.88-6.47,2.64-1.73,1.76-2.59,3.94-2.59,6.52s.87,4.71,2.61,6.49c1.74,1.78,3.89,2.67,6.44,2.67s4.67-.88,6.38-2.64c1.71-1.76,2.56-3.94,2.56-6.52s-.85-4.76-2.56-6.52c-1.71-1.76-3.83-2.64-6.38-2.64Z"></path><path class="cls-1" d="m428.15,219.46v-14.79c0-5.62-2.29-8.43-6.86-8.43s-6.86,2.81-6.86,8.43v14.79h-5.51v-14.79c0-4.57,1.12-8.01,3.37-10.32,2.25-2.3,5.25-3.46,9-3.46s6.75,1.15,9,3.46c2.25,2.31,3.37,5.75,3.37,10.32v14.79h-5.51Z"></path><path class="cls-1" d="m467.47,219.46v-14.79c0-5.62-2.29-8.43-6.86-8.43s-6.86,2.81-6.86,8.43v14.79h-5.51v-14.79c0-4.57,1.12-8.01,3.37-10.32,2.25-2.3,5.25-3.46,9-3.46s6.75,1.15,9,3.46c2.25,2.31,3.37,5.75,3.37,10.32v14.79h-5.51Z"></path><path class="cls-1" d="m480.27,215.69c-2.79-2.81-4.19-6.22-4.19-10.23s1.38-7.44,4.13-10.29c2.76-2.85,6.14-4.27,10.15-4.27s7.16,1.29,10.01,3.85c2.85,2.57,4.35,5.95,4.5,10.15,0,.94-.06,1.78-.17,2.53h-22.72c.22,2.1,1.11,3.81,2.67,5.14,1.55,1.33,3.46,2,5.71,2,2.77,0,5.02-.94,6.75-2.81l6.58.06c-1.24,2.44-3.04,4.4-5.4,5.88-2.36,1.48-4.95,2.22-7.76,2.22-4.05,0-7.47-1.41-10.26-4.22Zm1.72-12.76h16.98c-.53-1.95-1.57-3.55-3.12-4.81-1.56-1.26-3.33-1.88-5.31-1.88-2.14,0-3.96.62-5.48,1.86-1.52,1.24-2.54,2.85-3.06,4.84Z"></path><path class="cls-1" d="m563.98,219.91c-3.07,0-5.68-.8-7.82-2.39-2.14-1.59-3.2-3.76-3.2-6.49h5.29c0,1.2.55,2.16,1.66,2.87,1.11.71,2.5,1.07,4.19,1.07s3.05-.34,3.99-1.01c.94-.68,1.41-1.58,1.41-2.7s-.55-2.04-1.66-2.64c-1.11-.6-2.45-1.06-4.02-1.38-1.58-.32-3.15-.69-4.72-1.13-1.58-.43-2.92-1.25-4.02-2.45-1.11-1.2-1.66-2.81-1.66-4.84,0-2.32.99-4.23,2.98-5.71s4.46-2.22,7.42-2.22,5.46.75,7.39,2.25c1.93,1.5,2.9,3.56,2.9,6.18h-5.29c0-1.05-.5-1.9-1.49-2.56-.99-.65-2.2-.98-3.63-.98s-2.53.32-3.43.96c-.9.64-1.35,1.46-1.35,2.47s.54,1.79,1.63,2.33c1.09.54,2.42.97,3.99,1.27,1.58.3,3.15.68,4.72,1.15,1.58.47,2.92,1.31,4.02,2.53,1.11,1.22,1.68,2.84,1.71,4.86.04,2.77-.96,4.89-3.01,6.35s-4.71,2.19-8.01,2.19Z"></path><path class="cls-1" d="m233.9,217.92v-6.12s-1.51,2.48-6.04,2.48-6.05-3.06-6.05-8.15v-9.45h12.97v-5.34h-12.97v-3.58h-5.51v18.43c0,4.35,1.04,7.64,3.12,9.87,2.07,2.22,4.08,3.57,8.42,3.57s6.06-1.7,6.06-1.7Z"></path><path class="cls-1" d="m363.89,217.92v-6.12s-1.51,2.48-6.04,2.48-6.05-3.06-6.05-8.15v-9.45h12.97v-5.34h-12.97v-3.58h-5.51v18.43c0,4.35,1.04,7.64,3.12,9.87,2.07,2.22,4.08,3.57,8.42,3.57s6.06-1.7,6.06-1.7Z"></path></svg> 