<?xml version="1.0" encoding="UTF-8"?> <svg xmlns="http://www.w3.org/2000/svg" id="Layer_1" width="600" height="400" viewBox="0 0 600 400"><defs><style>.cls-1{fill:#fff;}</style></defs><path class="cls-1" d="m38.22,215.67c0,3.08.89,3.81,6.58,3.81v1.93h-19.8v-1.93c3.92,0,5.22-.37,5.22-3.71v-31.66c0-3.34-1.31-3.71-5.22-3.71v-1.93h33.12l.16,11.81h-1.62c-.84-8.88-3.03-9.72-11.28-9.72h-7.26v17.55h5.85c5.59,0,5.95-.89,6.37-5.33h1.62v12.85h-1.62c-.42-4.44-.78-5.22-6.37-5.22h-5.85v15.25h.1Zm24.19,5.75v-1.93c3.92,0,5.22-.37,5.22-3.71v-31.66c0-3.34-1.31-3.71-5.22-3.71v-1.93h18.44v1.93c-3.92,0-5.22.37-5.22,3.71v31.66c0,3.34,1.31,3.71,5.22,3.71v1.93h-18.44Zm60.28.73l-29.41-36.41v29.88c0,3.45,2.4,3.97,6.48,3.97v1.93h-15.62v-1.93c4.07,0,6.27-.52,6.27-3.97v-33.17c-1.88-1.93-3.19-2.04-6.27-2.04v-1.93h13.84l22.51,28.99v-23.14c0-3.45-2.4-3.97-6.48-3.97v-1.88h15.67v1.93c-4.07,0-6.27.52-6.27,3.97v37.77h-.73Zm21-.73h-15.51v-1.93c4.07,0,5.95-.52,7.26-4.07l14-37.4h3.92l15.04,37.66c1.31,3.34,1.93,3.71,5.07,3.71v1.93h-17.97v-1.93c5.48,0,6.01-.42,4.7-3.71l-4.44-11.44h-13.48l-3.97,11.07c-1.25,3.34.73,4.07,5.48,4.07v2.04h-.1Zm-.63-19.38h11.7l-6.11-15.41-5.59,15.41Zm70.78,20.11l-29.36-36.41v29.88c0,3.45,2.4,3.97,6.48,3.97v1.93h-15.25v-1.93c3.71,0,5.95-.52,5.95-3.97v-33.07c-2.14-1.93-3.71-2.14-7.26-2.14v-1.93h14.73l22.51,28.99v-23.14c0-3.45-2.4-3.97-6.48-3.97v-1.88h15.62v1.93c-4.07,0-6.27.52-6.27,3.97v37.77h-.68Zm43.51-43.77h1.04l.63,12.85-1.62.1c-1.04-7.37-4.96-11.23-12.12-11.23-7.99,0-14,6.84-14,17.29,0,13.37,8.41,21,17.29,21,3.81,0,7.26-1.04,10.66-4.7l1.25,1.25c-2.77,3.92-8.15,7.16-15.41,7.16-10.81,0-21.78-8.15-21.78-21.78s10.03-22.51,22.15-22.51c5.75,0,8.78,2.51,10.34,2.51.68-.05,1.2-.68,1.57-1.93h0Zm6.63,43.04v-1.93c3.92,0,5.22-.37,5.22-3.71v-31.66c0-3.34-1.31-3.71-5.22-3.71v-1.93h18.44v1.93c-3.92,0-5.22.37-5.22,3.71v31.66c0,3.34,1.31,3.71,5.22,3.71v1.93h-18.44Zm35.83,0h-14.47v-1.93c3.19,0,4.86-.52,6.22-4.07l14-37.4h3.92l15.04,37.66c1.31,3.34,1.93,3.71,5.07,3.71v1.93h-17.97v-1.93c5.48,0,6.01-.42,4.7-3.71l-4.49-11.44h-13.48l-3.97,11.07c-1.25,3.34.73,4.07,5.48,4.07v2.04h-.05Zm-.63-19.38h11.7l-6.06-15.41-5.64,15.41Zm33.38,19.38v-1.93c3.92,0,5.22-.37,5.22-3.71v-31.66c0-3.34-1.31-3.71-5.22-3.71v-1.93h18.34v1.93c-3.92,0-5.12.37-5.12,3.71v31.92c0,2.82,1.41,3.19,3.71,3.19h2.19c8.31,0,10.97-1.25,13.27-10.71l1.62.16-1.31,12.69h-32.7v.05h0Zm89.38-42.94l.16,12.48h-1.62c-.89-9.19-3.08-10.34-11.34-10.34h-2.66v35.1c0,3.34,1.25,3.81,6.58,3.81v1.93h-21.1v-1.93c5.33,0,6.63-.52,6.63-3.81v-35.16h-2.66c-8.25,0-10.45,1.15-11.34,10.34h-1.62l.16-12.48,38.81.05h0Zm4.13,42.94v-1.93c3.92,0,5.22-.37,5.22-3.71v-31.66c0-3.34-1.31-3.71-5.22-3.71v-1.93h18.44v1.93c-3.92,0-5.22.37-5.22,3.71v31.66c0,3.34,1.31,3.71,5.22,3.71v1.93s-18.44,0-18.44,0Zm73.91-42.94v1.93c-3.92,0-5.59.16-5.22,3.66l3.34,31.92c.37,3.29,1.62,3.66,5.48,3.66v1.93h-18.34v-1.93c3.81,0,5.12-.37,4.86-3.66l-3.4-33.54-13.58,39.8h-.52l-13.32-39.91-3.19,33.48c-.37,3.34,1.93,3.71,5.85,3.71v1.93h-14.37v-1.93c3.92,0,5.22-.63,5.48-3.71l3.34-31.92c.37-3.34-1.31-3.66-5.22-3.66v-1.78h15.04l9.09,29.3,9.77-29.36,14.89.05h0Zm34.32,27.16h-1.62c-.42-4.44-.78-5.22-6.37-5.22h-6.58v15.62c0,2.82,1.41,3.19,3.71,3.19h3.55c8.31,0,10.97-1.25,13.27-10.71l1.62.16-1.51,12.69h-33.85v-1.93c3.92,0,5.22-.37,5.22-3.71v-31.6c0-3.34-1.31-3.71-5.22-3.71v-1.93h32.54l.16,10.71h-1.62c-.99-7.63-2.93-8.51-11.44-8.51h-6.37v17.45h6.58c5.59,0,5.95-.89,6.37-5.33h1.62v12.85h-.05Zm34.16,6.95c0-3.92-2.51-5.85-6.74-8.25l-6.84-3.55c-5.12-2.77-8.15-5.75-8.15-11.18,0-6.74,5.75-11.86,13.27-11.86,5.12,0,7.78,2.51,9.3,2.51.99,0,1.41-.63,1.88-1.88h1.25l.63,12.07-1.62.1c-.89-5.85-5.07-10.4-10.92-10.4-4.44,0-7.37,2.66-7.37,6.37,0,4.07,3.08,5.75,6.58,7.63l5.85,3.08c5.48,3.03,9.4,6.01,9.4,11.81,0,7.63-6.58,13.01-14.73,13.01-5.75,0-8.62-2.77-10.08-2.77-.99,0-1.51.89-1.93,2.19h-1.25l-.89-12.75,1.62-.16c1.25,7.99,6.74,11.23,12.22,11.23,4.65-.05,8.51-2.09,8.51-7.21h0Z"></path></svg> 