<?xml version="1.0" encoding="UTF-8"?> <svg xmlns="http://www.w3.org/2000/svg" id="Layer_1" width="600" height="400" viewBox="0 0 600 400"><defs><style>.cls-1{fill:#3c3382;}</style></defs><g><path class="cls-1" d="m245.98,126.99c.44-.04.89-.07,1.34-.07h.09-.09c-.45,0-.9.02-1.34.07Z"></path><path class="cls-1" d="m384.86,124.85c-.15.21-.31.42-.45.64-.15.24-.31.48-.46.74.15-.25.3-.5.46-.74.14-.22.3-.43.45-.64Z"></path><path class="cls-1" d="m371.09,191.95c.35-.51.67-1.01.96-1.52h0c-.29.51-.61,1.01-.96,1.52Z"></path><path class="cls-1" d="m342.5,194.56c-.33-.44-.62-.91-.88-1.4.26.48.55.96.88,1.4Z"></path><path class="cls-1" d="m339.89,183.75c.06-1.62.23-3.28.46-4.95-.23,1.67-.41,3.34-.46,4.95Z"></path><path class="cls-1" d="m202.64,219.91c-.03.06-.08.11-.11.17l-.08.1.08-.1c.03-.06.08-.11.11-.17Z"></path><path class="cls-1" d="m268,198.05c-.48.18-.98.34-1.48.5.51-.15,1-.32,1.48-.5Z"></path><path class="cls-1" d="m265.69,144.68c.92-.08,1.88-.12,2.86-.11-.98-.01-1.94.02-2.86.11Z"></path><path class="cls-1" d="m386.95,186.4c.24.33.5.63.8.89-.3-.26-.56-.56-.8-.89Z"></path><path class="cls-1" d="m371.09,191.95c-.32.45-.67.9-1.05,1.35.37-.44.73-.89,1.05-1.35Z"></path><path class="cls-1" d="m385.97,183.88c.14.8.4,1.52.76,2.17-.36-.64-.62-1.37-.76-2.17Z"></path><path class="cls-1" d="m273.26,195.41c-.63.4-1.28.78-1.96,1.16.68-.36,1.34-.76,1.96-1.16Z"></path><path class="cls-1" d="m248.62,113.72c1.02,0,2.02.04,2.97.14-.96-.1-1.96-.14-2.97-.14h-.26c-2.07,0-4.13.2-6.12.61,1.99-.4,4.05-.59,6.12-.59h.26,0Z"></path><path class="cls-1" d="m240.88,114.63c-1.35.34-2.7.78-4.01,1.31-.41.17-.8.34-1.19.52.4-.18.79-.35,1.19-.52,1.31-.53,2.65-.97,4.01-1.31Z"></path><path class="cls-1" d="m226.4,123.27c-.69.75-1.33,1.53-1.95,2.36-.43.59-.85,1.2-1.23,1.84.4-.64.8-1.24,1.23-1.84.61-.83,1.26-1.61,1.95-2.36Z"></path><path class="cls-1" d="m255.39,114.54c-.33-.09-.67-.18-1.02-.24-.44-.1-.89-.18-1.35-.25.46.08.91.15,1.35.25.35.08.69.15,1.02.24Z"></path><path class="cls-1" d="m256.46,114.85l-.11-.03c-.31-.1-.63-.19-.96-.29.33.09.65.19.96.29l.11.03Z"></path><path class="cls-1" d="m222.47,128.76c-.36.67-.72,1.37-1.05,2.1-.14.31-.28.63-.41.95.13-.32.26-.64.41-.95.33-.73.68-1.43,1.05-2.1Z"></path><path class="cls-1" d="m214.64,162.45c-.1.53-.47,2.6-1.04,5.63.56-3.03.94-5.11,1.04-5.63h0Z"></path><path class="cls-1" d="m206.16,208.61c-.43,2.33-.69,3.77-.7,3.81-.26,1.18-.55,2.21-.86,3.15.31-.94.58-1.98.86-3.15,0-.04.28-1.46.7-3.81Z"></path><path class="cls-1" d="m216.71,149.95l.63-3.25c.03-.22.07-.44.1-.66-.03.22-.07.44-.1.66l-.63,3.25-5.89.02-3.7,12.5h0l3.7-12.5,5.89-.02Z"></path><path class="cls-1" d="m217.75,144.32c.1-.54.19-1.1.29-1.65-.1.56-.2,1.12-.29,1.65l-.19,1.05c-.04.23-.08.45-.11.67.03-.22.08-.44.11-.67l.19-1.05Z"></path><path class="cls-1" d="m219.87,134.98c.12-.39.24-.76.37-1.11-.12.36-.25.74-.37,1.11-.34,1.01-.65,2.11-.98,3.46-.15.61-.3,1.3-.44,2.04.14-.74.3-1.43.44-2.04.32-1.34.64-2.43.98-3.46Z"></path><path class="cls-1" d="m204.61,215.57c-.1.31-.21.62-.31.9-.46,1.28-1,2.4-1.66,3.44.66-1.04,1.2-2.17,1.66-3.44.11-.29.21-.59.31-.9Z"></path><path class="cls-1" d="m254.31,169.97c-.14.69-.29,1.39-.42,2.11-.07.32-.12.64-.19.95.06-.32.12-.63.19-.95.13-.73.28-1.42.42-2.11Z"></path><path class="cls-1" d="m252.75,179.81c-.02.33-.03.66-.04.98,0,.32-.01.63,0,.94v-.94c0-.32.02-.65.04-.98Z"></path><path class="cls-1" d="m263.77,189.01c-.41.17-.84.3-1.27.42.43-.11.86-.24,1.27-.42Z"></path><path class="cls-1" d="m271.15,155.76c.13.09.25.18.36.26-.12-.1-.24-.19-.36-.26Z"></path><path class="cls-1" d="m272.15,156.62c.09.1.18.2.26.3-.09-.1-.18-.2-.26-.3Z"></path><path class="cls-1" d="m269.47,154.97c-.26-.09-.55-.15-.84-.21-.31-.06-.62-.09-.95-.12.33.02.65.07.95.12.29.06.57.13.84.21Z"></path><path class="cls-1" d="m266.91,186.93c-.13.12-.26.23-.4.34.13-.11.26-.22.4-.34.87-.8,1.61-1.75,2.25-2.82.32-.53.61-1.09.88-1.68-.26.58-.56,1.15-.88,1.68-.63,1.07-1.37,2-2.25,2.82Z"></path><path class="cls-1" d="m271.66,177.72c.04-.15.08-.3.12-.45-.04.15-.08.31-.12.45Z"></path><path class="cls-1" d="m254.08,187.1c-.13-.2-.26-.41-.37-.63.11.22.23.43.37.63.32.43.67.83,1.08,1.16-.4-.33-.76-.73-1.08-1.16Z"></path><path class="cls-1" d="m258.1,189.61c-.29-.06-.57-.13-.84-.21.26.09.55.15.84.21.58.11,1.23.15,1.92.15.52-.01,1.02-.07,1.51-.14-.5.07-.99.12-1.51.14-.69,0-1.33-.04-1.92-.15Z"></path><path class="cls-1" d="m252.71,181.72c.01.91.1,1.77.25,2.58.17.79.41,1.52.75,2.17-.34-.65-.58-1.38-.75-2.17s-.24-1.65-.25-2.58Z"></path><path class="cls-1" d="m286.46,156.24c.33,1.1.55,2.27.67,3.51-.12-1.26-.34-2.41-.67-3.51Z"></path><path class="cls-1" d="m285.3,153.45c-.42-.78-.9-1.54-1.46-2.27-.33-.43-.68-.86-1.08-1.27.4.42.76.84,1.08,1.27.57.74,1.05,1.49,1.46,2.27Z"></path><path class="cls-1" d="m239.7,178.55s-.01.11-.02.17c-.1,1.02-.15,2-.17,2.94.01-.94.07-1.92.17-2.94,0-.06.01-.11.02-.17Z"></path><path class="cls-1" d="m287.24,162.37c0,.91-.04,1.86-.12,2.85.08-.99.12-1.95.12-2.85Z"></path><path class="cls-1" d="m285.86,173.92c-.18.91-.35,1.78-.55,2.63.19-.85.37-1.73.55-2.63Z"></path><path class="cls-1" d="m279.93,147.59c-.55-.35-1.13-.68-1.77-.99-.32-.15-.64-.3-.98-.43.33.13.66.29.98.43.63.31,1.22.64,1.77.99Z"></path><path class="cls-1" d="m282.13,149.3c-.22-.2-.44-.4-.68-.59-.47-.39-.98-.76-1.53-1.11.55.35,1.06.73,1.53,1.11.23.2.46.4.68.59Z"></path><path class="cls-1" d="m265.69,144.68c-.92.08-1.82.21-2.68.37s-1.7.36-2.5.61c.8-.23,1.64-.44,2.5-.61.86-.17,1.76-.3,2.68-.37Z"></path><path class="cls-1" d="m244.22,159.67c-.78,1.7-1.44,3.53-2.02,5.57-.14.51-.29,1.02-.42,1.55.13-.53.28-1.05.42-1.55.58-2.04,1.23-3.88,2.02-5.57Z"></path><path class="cls-1" d="m241.77,166.79c-.41,1.6-.77,3.3-1.12,5.15-.13.7-.24,1.38-.35,2.05.11-.66.22-1.34.35-2.05.34-1.85.72-3.56,1.12-5.15Z"></path><path class="cls-1" d="m256.05,147.42c-.68.34-1.33.72-1.95,1.1-.31.2-.62.39-.9.59.3-.2.59-.4.9-.59.62-.39,1.27-.75,1.95-1.1Z"></path><path class="cls-1" d="m250.75,150.99c.75-.64,1.56-1.28,2.44-1.88-.88.61-1.7,1.23-2.44,1.88-.89.78-1.71,1.59-2.44,2.42.75-.84,1.55-1.64,2.44-2.42h0Z"></path><path class="cls-1" d="m233.33,142.85c.03-.19.07-.4.1-.59.09-.51.19-1.04.26-1.48-.08.43-.18.97-.26,1.48-.03.21-.07.41-.1.59Z"></path><path class="cls-1" d="m363.19,189.53c.3-.09.59-.2.88-.31.29-.12.57-.25.85-.41-.28.15-.56.29-.85.41-.29.12-.58.22-.88.31Z"></path><path class="cls-1" d="m352.93,182.77c-.02-.3-.03-.59-.04-.91,0,.31.02.62.04.91Z"></path><path class="cls-1" d="m362.54,155.51c-.26.14-.53.3-.79.45-.25.17-.51.35-.76.55.25-.2.5-.37.76-.55.25-.17.52-.32.79-.45Z"></path><path class="cls-1" d="m373.05,157.11c.21.31.39.64.54.98-.15-.34-.33-.67-.54-.98-.32-.44-.67-.83-1.08-1.17-.14-.11-.29-.22-.44-.32.15.1.3.21.44.32.41.34.77.72,1.08,1.17Z"></path><path class="cls-1" d="m357.92,189.72c-.29-.07-.55-.15-.81-.25.26.1.53.19.81.25Z"></path><path class="cls-1" d="m359.23,189.93c-.31-.02-.61-.07-.88-.12.29.06.57.09.88.12Z"></path><path class="cls-1" d="m354.28,187.28c.33.44.68.84,1.09,1.18-.41-.34-.77-.73-1.09-1.18Z"></path><path class="cls-1" d="m360.26,157.14c.24-.22.48-.43.74-.63-.25.2-.5.41-.74.63-.45.4-.86.83-1.23,1.29.39-.46.79-.89,1.23-1.29Z"></path><path class="cls-1" d="m239.71,129.29c.26-.19.53-.37.79-.54.14-.09.28-.17.42-.24-.14.08-.28.15-.42.24-.26.17-.54.35-.79.54Z"></path><path class="cls-1" d="m367.24,187.11c-.36.35-.74.66-1.12.94.39-.29.76-.59,1.12-.94Z"></path><path class="cls-1" d="m353.02,183.64c.03.29.08.56.13.83s.12.53.2.77c-.08-.25-.14-.51-.2-.77-.06-.28-.1-.55-.13-.83Z"></path><path class="cls-1" d="m356.57,162.73c-.09.22-.18.44-.26.67-.12.32-.23.64-.34.97.11-.33.22-.65.34-.97.09-.23.18-.45.26-.67Z"></path><path class="cls-1" d="m374.4,161.43c-.04-.54-.12-1.06-.23-1.54-.09-.43-.21-.84-.35-1.22.14.39.26.79.35,1.22.11.48.18,1,.23,1.54Z"></path><path class="cls-1" d="m389.23,120.45c.24-.18.48-.35.73-.53-.25.17-.5.34-.73.53Z"></path><path class="cls-1" d="m377.83,145.21c.04-.2.09-.41.13-.61-.04.21-.09.41-.13.61Z"></path><path class="cls-1" d="m377.43,197.6c.32.19.64.36.98.54.09.06.17.11.25.15-.09-.06-.17-.11-.25-.15-.33-.18-.66-.35-.98-.54Z"></path><path class="cls-1" d="m378.88,140.54c.15-.66.31-1.31.47-1.95-.15.64-.32,1.29-.47,1.95Z"></path><path class="cls-1" d="m381.33,131.89c.12-.33.24-.66.36-.98-.12.32-.24.65-.36.98Z"></path><path class="cls-1" d="m373.59,170.65c-.07.41-.14.81-.21,1.22.08-.42.14-.83.21-1.22Z"></path><path class="cls-1" d="m397.45,132.28c.11-.11.22-.22.33-.32.11-.1.22-.2.34-.3-.11.1-.22.2-.34.3-.11.1-.22.21-.33.32Z"></path><path class="cls-1" d="m369.02,185.05c-.34.51-.73.98-1.13,1.42.41-.44.78-.91,1.13-1.42Z"></path><path class="cls-1" d="m373.19,172.91c-.08.42-.15.83-.24,1.23.08-.41.17-.81.24-1.23Z"></path><path class="cls-1" d="m340.78,176.12c.13-.73.26-1.45.41-2.17-.14.72-.28,1.44-.41,2.17Z"></path><path class="cls-1" d="m388.34,121.15c-.56.47-1.08.97-1.55,1.45.47-.5.99-.98,1.55-1.45Z"></path><path class="cls-1" d="m360.28,189.97h-.51.51c.69-.01,1.35-.09,1.98-.21.32-.07.63-.14.92-.23-.3.09-.61.17-.92.23-.63.12-1.29.19-1.98.21Z"></path><path class="cls-1" d="m220.11,216.2c-.17.58-.34,1.13-.52,1.68.18-.54.35-1.1.52-1.68Z"></path><path class="cls-1" d="m213.17,170.53c.15-.87.31-1.68.45-2.44-.14.76-.29,1.57-.45,2.44Z"></path><path class="cls-1" d="m206.13,235.02c.3-.18.58-.35.87-.53.66-.43,1.32-.88,1.95-1.35-.64.47-1.29.92-1.95,1.35-.29.19-.57.36-.87.53Z"></path><path class="cls-1" d="m244.21,127.27c-.22.06-.44.11-.66.18.22-.07.44-.12.66-.18Z"></path><path class="cls-1" d="m390.24,188.5c.08.02.17.02.25.04h0c-.09-.02-.18-.02-.25-.04-.5-.1-.95-.25-1.37-.45-.41-.2-.78-.45-1.11-.74.33.3.7.54,1.11.74.42.21.87.35,1.37.45Z"></path><path class="cls-1" d="m241.76,128.1c-.29.12-.56.25-.84.41.28-.15.56-.29.84-.41Z"></path><path class="cls-1" d="m272.18,175.61c.1-.44.2-.88.3-1.33-.1.45-.2.89-.3,1.33Z"></path><path class="cls-1" d="m220.11,216.2c.09-.29.17-.58.25-.88.13-.47.25-.95.36-1.42-.11.47-.23.94-.36,1.42-.08.3-.17.59-.25.88Z"></path><rect class="cls-1" x="233.89" y="158.78" height="7.37"></rect><path class="cls-1" d="m209.9,232.41c.31-.25.61-.51.9-.77.41-.36.79-.73,1.17-1.09-.37.37-.77.74-1.17,1.09-.3.26-.59.52-.9.77Z"></path><path class="cls-1" d="m206.16,208.61c.08-.43.17-.88.25-1.37-.09.48-.18.94-.25,1.37Z"></path><path class="cls-1" d="m201.02,222.08c.31-.35.62-.7.89-1.09-.28.39-.57.75-.89,1.09Z"></path><path class="cls-1" d="m197.31,224.92c.5-.25.98-.53,1.44-.85-.46.32-.95.59-1.44.85Z"></path><path class="cls-1" d="m374.1,167.4c.2-1.45.33-2.81.35-4.06v-.92.92c-.02,1.26-.15,2.61-.35,4.06Z"></path><path class="cls-1" d="m371.15,180.71c-.12.32-.23.64-.36.95.12-.31.24-.63.36-.95.25-.69.48-1.43.69-2.18.17-.53.32-1.07.46-1.62-.14.55-.3,1.09-.46,1.62-.21.76-.44,1.49-.69,2.18Z"></path><path class="cls-1" d="m369.02,185.05c.18-.25.34-.52.5-.78.48-.8.9-1.68,1.28-2.61-.37.92-.79,1.81-1.28,2.61-.15.26-.32.53-.5.78Z"></path><path class="cls-1" d="m212.3,175.24c.19-1.01.36-1.98.54-2.91-.18.92-.35,1.9-.54,2.91Z"></path><path class="cls-1" d="m210.09,187.26c.14-.76.28-1.52.42-2.27-.14.75-.28,1.51-.42,2.27Z"></path><path class="cls-1" d="m211.33,180.52c.2-1.1.4-2.18.59-3.23-.2,1.05-.4,2.13-.59,3.23Z"></path><path class="cls-1" d="m364.92,188.81c.28-.15.55-.31.81-.5.13-.09.26-.18.39-.28-.13.1-.25.19-.39.28-.26.18-.54.34-.81.5Z"></path><path class="cls-1" d="m207.34,202.24c.11-.63.23-1.27.35-1.93-.12.66-.24,1.3-.35,1.93Z"></path><path class="cls-1" d="m206.42,207.25c.09-.48.19-.99.29-1.53-.1.54-.19,1.05-.29,1.53Z"></path><path class="cls-1" d="m249.38,127.08c-.23-.03-.46-.07-.69-.1.24.02.47.06.69.1Z"></path><path class="cls-1" d="m336.49,155.15c.28.7.48,1.44.66,2.2-.17-.76-.39-1.5-.66-2.2-.54-1.42-1.28-2.73-2.26-3.99-.32-.43-.68-.86-1.08-1.27.4.42.76.84,1.08,1.27.98,1.26,1.72,2.57,2.26,3.99Z"></path><path class="cls-1" d="m310.91,145.66c-.8.23-1.57.51-2.32.79-.74.3-1.45.63-2.13.97.68-.34,1.39-.67,2.13-.97.74-.29,1.52-.56,2.32-.79Z"></path><path class="cls-1" d="m329,146.83c-.14-.08-.29-.15-.44-.23-.63-.3-1.3-.57-2.02-.83.72.24,1.38.52,2.02.83.15.08.3.15.44.23Z"></path><path class="cls-1" d="m320.39,144.62c.94.06,1.82.15,2.66.29-.84-.14-1.73-.24-2.66-.29Z"></path><path class="cls-1" d="m337.61,161.02c-.02-.43-.04-.86-.09-1.28-.08-.84-.2-1.63-.37-2.39.17.76.3,1.55.37,2.39.04.42.07.84.09,1.28Z"></path><path class="cls-1" d="m295.22,158.42c-.21.41-.42.81-.62,1.23-.2.43-.39.86-.56,1.3.18-.44.36-.87.56-1.3.2-.42.41-.84.62-1.23Z"></path><path class="cls-1" d="m290.08,178.72c.09-1.04.22-2.11.39-3.24-.17,1.12-.29,2.2-.39,3.24-.14,1.54-.2,2.97-.15,4.33-.04-1.35,0-2.79.15-4.33Z"></path><path class="cls-1" d="m300.66,151.44c-.88.8-1.7,1.64-2.43,2.51.74-.87,1.54-1.71,2.43-2.51Z"></path><path class="cls-1" d="m306.46,147.42c-.68.34-1.33.72-1.95,1.1s-1.21.78-1.77,1.2c.56-.42,1.15-.81,1.77-1.2.63-.39,1.28-.75,1.95-1.1Z"></path><path class="cls-1" d="m290.6,174.63c.13-.87.29-1.76.45-2.7-.17.94-.32,1.83-.45,2.7Z"></path><path class="cls-1" d="m350.2,150.22c-.88.9-1.65,1.9-2.35,2.96-.28.43-.55.86-.8,1.31.25-.45.52-.88.8-1.31.69-1.07,1.48-2.06,2.35-2.96Z"></path><path class="cls-1" d="m299.15,197.87c-.64-.3-1.24-.63-1.81-.98.56.35,1.17.68,1.81.98Z"></path><path class="cls-1" d="m317.2,198.46c-.48.15-.99.3-1.5.43.51-.13,1.01-.28,1.5-.43Z"></path><path class="cls-1" d="m344.53,160.25c-.52,1.52-.96,3.07-1.37,4.65-.13.52-.25,1.05-.39,1.57.12-.53.25-1.05.39-1.57.4-1.57.84-3.13,1.37-4.65Z"></path><path class="cls-1" d="m316.1,144.68c.92-.09,1.88-.12,2.86-.11-.98-.01-1.94.02-2.86.11Z"></path><path class="cls-1" d="m291.4,170.14c.24-1.17.5-2.29.77-3.35-.28,1.06-.53,2.18-.77,3.35Z"></path><path class="cls-1" d="m303.9,186.01c-.14-.34-.28-.7-.39-1.09.1.37.23.74.39,1.09Z"></path><path class="cls-1" d="m295.77,195.76c-.48-.4-.92-.81-1.34-1.24.41.43.86.84,1.34,1.24Z"></path><path class="cls-1" d="m355.59,146.42c-.28.12-.54.25-.8.39s-.52.28-.77.43c.25-.14.51-.29.77-.43.26-.13.53-.26.8-.39Z"></path><path class="cls-1" d="m342.79,166.47c-.36,1.57-.69,3.15-1.02,4.67-.02.11-.04.21-.07.32.02-.11.04-.21.07-.32.32-1.53.65-3.09,1.02-4.67Z"></path><path class="cls-1" d="m323.73,169.78c.14-.8.28-1.6.37-2.37.1-.75.19-1.46.24-2.15-.06.69-.14,1.41-.24,2.15-.11.77-.23,1.55-.37,2.37Z"></path><path class="cls-1" d="m323.99,159.22c.08.24.13.5.19.75.22,1.02.31,2.17.28,3.42.03-1.26-.06-2.4-.28-3.42-.06-.25-.12-.51-.19-.75Z"></path><path class="cls-1" d="m314.63,154.88c.07-.01.13-.03.2-.04-.07.01-.13.03-.2.04Z"></path><path class="cls-1" d="m361.76,144.69c1.24-.14,2.51-.19,3.78-.12.66.03,1.3.1,1.9.18-.62-.09-1.26-.14-1.9-.18-1.27-.07-2.53-.03-3.78.12-1.23.17-2.46.41-3.62.77-.29.09-.58.19-.87.29.29-.1.57-.2.87-.29,1.17-.36,2.39-.61,3.62-.77Z"></path><path class="cls-1" d="m377.27,148c.01-.08.03-.17.04-.24-.01.08-.03.17-.04.24-.14.79-.25,1.55-.36,2.31-.14-.22-.3-.43-.45-.64.15.21.3.42.45.64.1-.76.22-1.53.36-2.31Z"></path><path class="cls-1" d="m375.5,148.5c-.17-.18-.34-.35-.52-.52-.4-.36-.81-.7-1.26-1,.44.3.86.64,1.26,1,.18.17.35.34.52.52Z"></path><path class="cls-1" d="m395.39,134.86c-.43.7-.81,1.45-1.16,2.25.35-.79.74-1.54,1.16-2.25Z"></path><path class="cls-1" d="m371.63,145.84c-.75-.32-1.55-.57-2.41-.76-.56-.13-1.16-.24-1.77-.32.62.09,1.2.19,1.77.32.85.19,1.65.44,2.41.76Z"></path><path class="cls-1" d="m304.66,187.32c.28.34.57.66.9.94.2.18.41.33.63.46-.22-.14-.43-.3-.63-.46-.34-.28-.63-.59-.9-.94Z"></path><path class="cls-1" d="m310.43,189.76c-.34,0-.68,0-1-.03.32.02.65.03,1,.03.68-.02,1.34-.09,1.96-.21.63-.12,1.22-.31,1.79-.55-.57.23-1.17.42-1.79.55-.62.12-1.28.19-1.96.21Z"></path><path class="cls-1" d="m315.58,188.28c.08-.06.17-.1.24-.15.25-.18.52-.36.77-.56-.25.2-.51.39-.77.56-.08.06-.17.1-.24.15Z"></path><path class="cls-1" d="m322.87,174.28c.17-.76.31-1.53.46-2.32.14-.75.28-1.46.4-2.18-.12.7-.25,1.43-.4,2.18-.15.79-.31,1.56-.46,2.32Z"></path><path class="cls-1" d="m303.86,174.42c-.13.76-.26,1.52-.36,2.25-.06.36-.1.73-.14,1.08.04-.35.09-.72.14-1.08.1-.73.23-1.48.36-2.25Z"></path><path class="cls-1" d="m322.87,174.28c-.17.76-.33,1.5-.51,2.21-.08.33-.15.66-.24.98.09-.32.17-.65.24-.98.18-.72.34-1.46.51-2.21Z"></path><path class="cls-1" d="m319.57,184.11c.64-1.07,1.16-2.25,1.62-3.52.03-.09.06-.18.09-.26-.03.09-.06.18-.09.26-.46,1.28-.98,2.46-1.62,3.52Z"></path><path class="cls-1" d="m316.58,187.56c.25-.2.5-.41.74-.64.87-.8,1.61-1.75,2.25-2.82-.63,1.07-1.37,2-2.25,2.82-.24.22-.48.44-.74.64Z"></path><path class="cls-1" d="m303.15,182.71c-.02-.32-.04-.65-.04-.99,0,.34.02.66.04.99Z"></path><path class="cls-1" d="m380.72,133.7c-.2.62-.39,1.24-.57,1.88-.13.48-.26.98-.4,1.48.13-.5.26-.99.4-1.48.19-.64.37-1.27.57-1.88Z"></path><path class="cls-1" d="m383.96,126.22c-.15.25-.3.51-.44.76-.13.23-.24.44-.34.63.1-.19.21-.4.34-.63.14-.25.29-.51.44-.76Z"></path><path class="cls-1" d="m385.85,182.8c.02.37.06.74.12,1.08-.07-.34-.1-.7-.12-1.08Z"></path><path class="cls-1" d="m272.9,172.14c.01-.07.02-.13.03-.19.14-.74.28-1.46.4-2.17-.12.7-.25,1.42-.4,2.17-.01.07-.02.13-.03.19Z"></path><path class="cls-1" d="m383.18,127.6s-.06.1-.08.14c-.15.31-.26.53-.34.68.08-.15.19-.39.34-.68.02-.04.06-.1.08-.14Z"></path><path class="cls-1" d="m284.3,180.4c-.4,1.28-.84,2.49-1.34,3.62-.1.23-.21.45-.31.67.1-.22.21-.44.31-.67.5-1.13.94-2.35,1.34-3.62Z"></path><path class="cls-1" d="m273.53,168.59c.07-.4.12-.79.18-1.18,0-.04,0-.08.01-.12,0,.04,0,.08-.01.12-.06.39-.11.78-.18,1.18Z"></path><path class="cls-1" d="m340.12,188.32c.07.44.14.87.23,1.3.19.85.43,1.66.75,2.44-.32-.77-.57-1.6-.75-2.44-.09-.42-.17-.86-.23-1.3Z"></path><polygon class="cls-1" points="405.42 123.42 406.26 123.42 406.26 117.73 407.96 117.73 407.96 116.97 403.7 116.97 403.7 117.73 405.42 117.73 405.42 123.42"></polygon><polygon class="cls-1" points="413.79 116.97 412.03 122.35 410.26 116.97 409.04 116.97 409.04 123.42 409.87 123.42 409.87 118.09 411.65 123.42 412.39 123.42 414.17 118.09 414.17 123.42 415.01 123.42 415.01 116.97 413.79 116.97"></polygon><path class="cls-1" d="m324.18,159.97c-.06-.25-.12-.51-.19-.75-.22-.73-.53-1.4-.94-1.98-.08-.11-.15-.22-.24-.32-.25-.31-.53-.58-.83-.83-.2-.17-.41-.32-.64-.45-.22-.14-.46-.26-.7-.37-.25-.11-.51-.21-.78-.3s-.55-.15-.84-.21c-.58-.11-1.21-.17-1.89-.17s-1.32.06-1.94.17c-.12.02-.25.04-.37.08-.07.01-.13.03-.2.04-.41.1-.79.23-1.17.37-.55.23-1.08.51-1.59.84-.51.33-1,.72-1.48,1.17-.44.4-.85.83-1.22,1.28-.37.46-.73.95-1.05,1.48-.64,1.05-1.18,2.19-1.65,3.46-.12.31-.23.63-.33.96-.32.98-.61,2.03-.88,3.11-.34,1.44-.66,2.96-.97,4.57-.08.4-.15.79-.23,1.18s-.14.77-.21,1.16c-.13.76-.26,1.52-.36,2.25-.06.36-.1.73-.14,1.08-.09.7-.15,1.4-.2,2.06-.02.33-.03.66-.04.98v.94c0,.34.02.66.04.99.04.55.11,1.09.21,1.6.04.21.1.41.15.62.1.37.23.74.39,1.09.17.39.35.76.58,1.1.06.08.12.14.18.22.28.34.57.66.9.94.2.18.41.33.63.46s.45.26.69.37c.5.22,1.04.39,1.62.5.3.06.61.1.92.12s.65.03,1,.03c.68-.02,1.34-.09,1.96-.21.63-.12,1.22-.31,1.79-.55.29-.12.56-.25.84-.4.19-.1.37-.22.56-.33.08-.06.17-.1.24-.15.25-.18.52-.36.77-.56s.5-.41.74-.64c.87-.8,1.61-1.75,2.25-2.82.64-1.07,1.16-2.25,1.62-3.52.03-.09.06-.18.09-.26.21-.61.41-1.23.59-1.89.09-.31.18-.63.26-.95s.17-.65.24-.98c.18-.72.34-1.46.51-2.21.17-.76.31-1.53.46-2.32.14-.75.28-1.46.4-2.18.14-.8.28-1.6.37-2.37.1-.75.19-1.46.24-2.15.06-.65.09-1.27.1-1.87.03-1.26-.06-2.4-.28-3.42h-.01Z"></path><path class="cls-1" d="m274.01,161.6c-.04-.57-.12-1.11-.24-1.63-.17-.77-.41-1.49-.75-2.13-.11-.21-.24-.42-.37-.62-.08-.11-.15-.22-.24-.32s-.18-.2-.26-.3c-.18-.19-.36-.36-.56-.53-.02-.02-.04-.03-.08-.06-.12-.1-.24-.19-.36-.26-.29-.19-.58-.35-.9-.51-.25-.11-.51-.21-.77-.3-.26-.09-.55-.15-.84-.21-.31-.06-.62-.09-.95-.12-.31-.02-.62-.04-.94-.04-.68,0-1.32.06-1.94.17-.59.11-1.18.28-1.73.5-.28.11-.55.24-.8.39-.26.14-.52.29-.77.45-.51.33-1,.72-1.49,1.16-.44.4-.85.83-1.22,1.29s-.73.95-1.05,1.48c-.64,1.05-1.19,2.19-1.64,3.46-.12.31-.23.63-.34.96-.11.33-.21.66-.31,1-.2.68-.39,1.38-.56,2.1-.19.79-.37,1.62-.55,2.46-.14.69-.29,1.39-.42,2.11-.07.32-.12.64-.19.95-.09.46-.18.94-.25,1.39-.13.76-.26,1.51-.36,2.24s-.19,1.44-.25,2.13c-.03.34-.06.68-.08,1.01-.02.33-.03.66-.04.98,0,.32-.01.63,0,.94.01.91.1,1.77.25,2.58.17.79.41,1.52.75,2.17.11.22.23.43.37.63.32.43.67.83,1.08,1.16.4.34.84.63,1.33.85.25.11.51.21.77.29.26.09.55.15.84.21.58.11,1.23.15,1.92.15.52-.01,1.02-.07,1.51-.14.15-.02.3-.03.45-.07.18-.03.35-.09.53-.13.43-.11.86-.24,1.27-.42.42-.18.84-.39,1.23-.63.13-.08.26-.17.4-.25.39-.25.75-.55,1.11-.86.13-.11.26-.22.4-.34.87-.8,1.61-1.75,2.25-2.82.32-.53.61-1.09.88-1.68.26-.58.52-1.2.75-1.84.13-.35.25-.7.36-1.08s.22-.74.33-1.12c.07-.22.12-.45.19-.68.04-.15.08-.3.12-.45.07-.25.13-.51.2-.77.07-.3.14-.59.21-.89.1-.44.2-.88.3-1.33.14-.69.29-1.41.43-2.14.01-.07.02-.13.03-.19.14-.74.28-1.46.4-2.17.07-.41.13-.8.2-1.2s.12-.79.18-1.18c0-.04,0-.08.01-.12.14-1.04.24-2.02.3-2.95.02-.32.03-.64.03-.95.01-.63,0-1.22-.04-1.79l-.05.06Z"></path><path class="cls-1" d="m374.18,159.89c-.09-.43-.21-.84-.35-1.22-.07-.19-.14-.37-.23-.56-.15-.34-.33-.67-.54-.98-.32-.44-.67-.83-1.08-1.17-.14-.11-.29-.22-.44-.32-.29-.19-.59-.36-.91-.51-.5-.23-1.05-.41-1.63-.51-.59-.12-1.22-.18-1.9-.18-.18,0-.34,0-.51.01-.5.02-.98.08-1.45.17-.31.06-.61.12-.9.21-.14.04-.29.09-.43.13s-.29.1-.42.15c-.28.12-.55.24-.81.39s-.53.3-.79.45c-.25.17-.51.35-.76.55s-.5.41-.74.63c-.45.4-.86.83-1.23,1.29s-.73.96-1.06,1.49c-.32.53-.62,1.08-.9,1.66-.18.37-.34.76-.5,1.16-.09.22-.18.44-.26.67-.12.32-.23.64-.34.97-.33.99-.62,2.04-.89,3.13-.35,1.45-.67,3-.98,4.61-.23,1.2-.45,2.38-.64,3.51-.07.37-.12.75-.18,1.12-.17,1.1-.28,2.16-.34,3.17-.02.34-.03.67-.04.99,0,.32-.01.64,0,.95,0,.31.02.62.04.91.02.3.06.58.09.87s.08.56.13.83.12.53.2.77c.22.75.53,1.44.94,2.05.33.44.68.84,1.09,1.18.3.26.63.48.98.67.12.07.24.12.36.18s.25.11.39.17c.26.1.53.19.81.25.14.03.29.07.44.1.29.06.57.09.88.12.18.01.36.02.55.03h.51c.69-.01,1.35-.09,1.98-.21.32-.07.63-.14.92-.23s.59-.2.88-.31c.29-.12.57-.25.85-.41s.55-.31.81-.5c.13-.09.26-.18.39-.28.39-.29.76-.59,1.12-.94.22-.21.43-.42.64-.64.41-.44.78-.91,1.13-1.42.18-.25.34-.52.5-.78.48-.8.9-1.68,1.28-2.61.12-.31.24-.63.36-.95.25-.69.48-1.43.69-2.18.17-.53.32-1.07.46-1.62.09-.33.18-.65.25-.99.13-.57.26-1.17.39-1.77.08-.41.17-.81.24-1.23.07-.34.13-.69.19-1.05.08-.42.14-.83.21-1.22.04-.29.1-.58.14-.87.07-.41.13-.8.2-1.21.07-.4.12-.79.18-1.18.2-1.45.33-2.81.35-4.06v-.92c0-.33-.02-.66-.06-.98-.04-.54-.12-1.06-.23-1.54h-.02Z"></path><path class="cls-1" d="m325.47,218.03c-.67,0-1.17.21-1.54.59-.7.69-.77,1.86-.77,3.25,0,1.01.04,1.92.33,2.6.09.17.2.32.32.44.39.39.87.59,1.54.59s1.18-.21,1.56-.59c.69-.69.77-1.88.77-3.26,0-1.15-.07-2.11-.46-2.82-.06-.08-.11-.14-.18-.21-.39-.39-.9-.59-1.57-.59h0Z"></path><path class="cls-1" d="m402.81,129.33c-.32.06-.63.13-.94.22s-.59.19-.88.31c-.14.07-.29.12-.43.19-.29.13-.56.28-.84.44-.13.08-.28.17-.41.25s-.26.18-.4.28c-.28.2-.55.42-.81.65-.11.1-.22.2-.34.3-.11.1-.22.21-.33.32-.34.33-.66.66-.96,1.04-.4.48-.76,1-1.1,1.55-.43.7-.81,1.45-1.16,2.25-.2.45-.39.9-.56,1.39-.48,1.31-.9,2.75-1.28,4.26-.26,1.13-.52,2.32-.77,3.56-.08.41-.17.83-.24,1.26-.02.1-.04.26-.09.51-.06.32-.13.75-.22,1.29s-.2,1.17-.32,1.88c-.15.89-.33,1.9-.52,3.01-.11.66-.23,1.34-.35,2.06-.12.72-.24,1.44-.37,2.19-.21,1.24-.43,2.52-.64,3.79-.04.25-.09.51-.13.76-.18,1.01-.34,2.03-.51,3,0,0-.14.8-.34,1.96-.04.25-.09.53-.14.81-.06.29-.1.58-.15.89-.06.31-.11.62-.17.94-.03.15-.06.32-.09.47-.06.32-.11.64-.17.95-.11.63-.22,1.23-.31,1.77-.04.28-.09.53-.13.77-.17.95-.28,1.59-.28,1.59v.04s-.01.08-.02.13c-.02.11-.04.28-.08.46s-.07.39-.1.56c-.14.81-.23,1.6-.31,2.36,0,.09-.02.17-.03.24,0,.08-.02.15-.02.23-.01.14-.02.28-.03.39,0,.15-.02.37-.03.56,0,.19-.01.34-.01.34.01.04.02.09.02.13v.58c0,.2,0,.39.02.57.02.37.06.74.12,1.08.14.8.4,1.52.76,2.17.04.08.09.17.13.24.03.04.07.08.09.11.24.33.5.63.8.89.33.3.7.54,1.11.74.42.21.87.35,1.37.45.08.02.17.02.25.04h0l-3.59,11.52c-.37,0-.74.02-1.12.01-.34-.01-.67-.03-.99-.06s-.64-.06-.96-.1c-.63-.08-1.22-.19-1.78-.33-1.13-.28-2.17-.64-3.12-1.13-.09-.04-.18-.1-.25-.15-.09-.06-.17-.11-.25-.15-.33-.18-.66-.35-.98-.54s-.62-.39-.91-.59c-.22-.15-.43-.32-.64-.5-.62-.51-1.17-1.07-1.64-1.66-.51-.64-.94-1.34-1.3-2.08s-.66-1.53-.89-2.35c-.29.51-.61,1.01-.96,1.52-.32.45-.67.9-1.05,1.35-.03.04-.07.09-.11.13-.19.21-.37.41-.56.61-.19.2-.39.39-.58.57l-.03.07c-.08.07-.15.13-.23.2-.2.18-.39.35-.58.52,0,0,0,.02-.02.02-.21.18-.41.34-.62.51-.31.24-.62.47-.91.69-.31.22-.62.43-.91.63-1.1.7-2.21,1.27-3.36,1.68-1.15.42-2.33.7-3.58.88-.32.04-.63.08-.96.11-.97.09-1.97.11-3.02.07-1.3-.06-2.54-.21-3.73-.48-1.19-.28-2.32-.65-3.35-1.12-.52-.23-1.01-.5-1.49-.78-.47-.29-.91-.58-1.33-.9-.21-.15-.41-.32-.61-.5-.58-.51-1.1-1.07-1.54-1.65-.33-.44-.62-.91-.88-1.4-.19-.36-.36-.73-.52-1.1-.32-.77-.57-1.6-.75-2.44-.09-.42-.17-.86-.23-1.3-.04-.26-.08-.54-.1-.81-.06-.48-.09-.97-.11-1.48-.02-.5-.03-1-.03-1.52,0-.25,0-.52.01-.77.06-1.62.23-3.28.46-4.95.07-.45.13-.9.2-1.35.08-.44.15-.88.23-1.32.13-.73.26-1.45.41-2.17.17-.84.33-1.66.51-2.49.02-.11.04-.21.07-.32.32-1.53.65-3.09,1.02-4.67.12-.53.25-1.05.39-1.57.4-1.57.84-3.13,1.37-4.65.18-.51.35-1,.54-1.5.57-1.49,1.22-2.92,1.98-4.26.25-.45.52-.88.8-1.31.69-1.07,1.48-2.06,2.35-2.96.53-.54,1.09-1.06,1.68-1.52.22-.18.44-.35.67-.52.46-.33.95-.65,1.45-.95.25-.14.51-.29.77-.43.26-.13.53-.26.8-.39.54-.24,1.1-.47,1.67-.67.29-.1.57-.2.87-.29,1.17-.36,2.39-.61,3.62-.77,1.24-.14,2.51-.19,3.78-.12.66.03,1.3.1,1.9.18.62.09,1.2.19,1.77.32.85.19,1.65.44,2.41.76.25.11.5.22.74.34.47.24.94.51,1.38.81.44.3.86.64,1.26,1,.18.17.35.34.52.52.34.35.66.75.96,1.16.15.21.3.42.45.64.1-.76.22-1.53.36-2.31.01-.08.03-.17.04-.24.15-.83.32-1.67.51-2.54.04-.2.09-.41.13-.61.2-.92.42-1.86.64-2.82.1-.42.19-.83.29-1.24.15-.66.31-1.31.47-1.95.13-.52.25-1.02.39-1.52.13-.5.26-.99.4-1.48.19-.64.37-1.27.57-1.88.2-.62.4-1.22.62-1.82.12-.33.24-.66.36-.98.1-.26.2-.53.31-.79.12-.29.24-.57.36-.86.12-.28.25-.55.39-.83.08-.15.19-.39.34-.68.02-.04.06-.1.08-.14.1-.19.21-.4.34-.63.14-.25.29-.51.44-.76s.3-.5.46-.74c.14-.22.3-.43.45-.64s.31-.42.47-.62c.32-.4.66-.78,1.01-1.16.14-.15.29-.32.44-.47.47-.5.99-.98,1.55-1.45.29-.24.57-.47.88-.7.24-.18.48-.35.73-.53.41-.28.84-.54,1.28-.79.67-.37,1.39-.72,2.14-1.01,1.01-.4,2.1-.72,3.27-.92-19.69-33.63-56.18-56.23-97.95-56.28-62.73-.07-113.65,50.73-113.7,113.47-.02,18.23,4.27,35.48,11.89,50.75.14-.07.28-.14.42-.21.5-.25.98-.53,1.44-.85.83-.56,1.6-1.23,2.28-1.99.31-.35.62-.7.89-1.09.19-.26.36-.53.54-.8l.08-.1c.03-.06.08-.11.11-.17.66-1.04,1.2-2.17,1.66-3.44.11-.29.21-.59.31-.9.31-.94.58-1.98.86-3.15,0-.04.28-1.46.7-3.81.08-.43.17-.88.25-1.37s.19-.99.29-1.53c.2-1.07.41-2.25.64-3.49.11-.63.23-1.27.35-1.93.24-1.32.5-2.7.76-4.13.13-.72.26-1.44.4-2.17.26-1.46.54-2.96.83-4.47.14-.76.28-1.51.42-2.27s.28-1.52.42-2.27c.28-1.51.55-3.01.83-4.47.2-1.1.4-2.18.59-3.23.13-.7.25-1.39.37-2.06.19-1.01.36-1.98.54-2.91.11-.62.22-1.22.33-1.79.15-.87.31-1.68.45-2.44.56-3.03.94-5.11,1.04-5.63h-7.52l3.7-12.5,5.89-.02.63-3.25c.03-.22.07-.44.1-.66s.08-.44.11-.67l.19-1.05c.1-.54.19-1.1.29-1.65.13-.74.26-1.49.41-2.18.14-.74.3-1.43.44-2.04.32-1.34.64-2.43.98-3.46.12-.39.24-.76.37-1.11.25-.73.51-1.41.77-2.06.13-.32.26-.64.41-.95.33-.73.68-1.43,1.05-2.1.24-.45.5-.88.76-1.3.4-.64.8-1.24,1.23-1.84.61-.83,1.26-1.61,1.95-2.36s1.42-1.46,2.21-2.17c.29-.25.57-.5.87-.75.59-.48,1.22-.96,1.86-1.4.32-.22.65-.44.98-.65.7-.45,1.43-.88,2.19-1.27.37-.2.76-.39,1.16-.56s.79-.35,1.19-.52c1.31-.53,2.65-.97,4.01-1.31.45-.11.9-.22,1.35-.31,1.99-.4,4.05-.61,6.12-.61h.26c1.02,0,2.02.04,2.97.14.48.04.95.11,1.42.18.46.08.91.15,1.35.25.35.08.69.15,1.02.24s.65.19.96.29l.11.03-4.12,13.21-.18-.1c-.09-.04-.17-.09-.25-.13-.63-.29-1.32-.52-2.05-.67-.17-.03-.33-.07-.5-.09-.23-.03-.46-.07-.69-.1-.41-.04-.84-.07-1.27-.07h-.09c-.45,0-.9.02-1.34.07-.22.02-.44.04-.66.08-.22.03-.43.07-.65.11l-.46.1c-.22.06-.44.11-.66.18-.19.06-.37.12-.56.19s-.37.14-.57.22l-.1.03s-.09.02-.12.04c-.14.06-.29.11-.42.18-.29.12-.56.25-.84.41-.14.08-.28.15-.42.24-.26.17-.54.35-.79.54-.26.19-.51.39-.76.61-.44.37-.86.78-1.24,1.23-.39.45-.75.94-1.09,1.46-.17.25-.32.52-.46.78-.3.53-.56,1.09-.81,1.68-.12.3-.24.59-.35.91-.42,1.13-.79,2.43-1.15,3.98-.01.07-.06.28-.1.55-.02.09-.03.2-.06.31-.08.43-.18.97-.26,1.48-.03.21-.07.41-.1.59s-.07.36-.09.52c-.04.23-.08.42-.1.53,0,.03-.01.07-.01.09l-.85,5.97,9.01-.03h0l-3.71,12.56h0l-7.37-.04-6.79,37.8-1.75,9.18c-.31,1.63-.58,3.06-.92,4.47-.11.47-.23.94-.36,1.42-.08.3-.17.59-.25.88-.17.58-.34,1.13-.52,1.68-.45,1.37-.92,2.62-1.46,3.8-.22.5-.45.97-.69,1.43s-.48.92-.75,1.37c-.52.88-1.07,1.73-1.66,2.54-.62.84-1.27,1.64-1.97,2.4-.35.39-.72.76-1.09,1.13-.37.37-.77.74-1.17,1.09-.3.26-.59.52-.9.77-.31.25-.62.5-.94.73-.64.47-1.29.92-1.95,1.35-.29.19-.57.36-.87.53-.3.18-.59.34-.89.51-.61.33-1.22.64-1.86.92,20.25,31.04,55.26,51.58,95.09,51.62,62.72.07,113.62-50.73,113.69-113.46.02-16.09-3.31-31.4-9.34-45.27h0l-.08-.03Zm-142.16,99.02h-.18v.24h-3.36v-8.13c0-1.83-1.16-2.46-2.22-2.46-.51,0-1.05.14-1.46.5-.34.39-.56.95-.56,1.74v8.09h-.21v.24h-3.35v-13.44h.23v-.19h3.26v1.22c.06-.06.11-.11.18-.15.86-.8,2.02-1.22,3.17-1.22,1.33,0,2.41.43,3.16,1.19,1.08,1.07,1.37,2.33,1.37,3.8v8.56h-.02Zm17.61-5.64h-.1v.22h-8.27c.09,1.61,1.12,2.76,2.92,2.76,1.46,0,2.18-.41,3.03-1.27l2.03,1.98c-.06.06-.11.11-.18.17l.08.08c-1.37,1.37-2.69,2.11-5.11,2.11-3.17,0-6.22-1.44-6.22-6.89,0-1.99.5-3.59,1.37-4.75,1.02-1.5,2.64-2.3,4.61-2.3,3.72,0,5.84,2.72,5.84,6.4v1.5h.01Zm3.49-36.24c-.44.78-.92,1.53-1.44,2.26-.78,1.09-1.66,2.13-2.66,3.13-.33.33-.67.66-1.04.98-.24.22-.51.44-.76.66-.79.66-1.65,1.3-2.58,1.9-.63.4-1.28.78-1.96,1.16-.68.36-1.41.72-2.16,1.02-.37.15-.76.31-1.16.45-.48.18-.98.34-1.48.5-.73.22-1.48.43-2.26.59-1.76.36-3.66.61-5.66.62-2.02.03-3.84-.14-5.47-.47-.41-.08-.8-.18-1.2-.28-1.17-.31-2.22-.69-3.18-1.16-1.29-.61-2.41-1.31-3.38-2.1-.24-.2-.47-.41-.69-.61-.45-.41-.86-.84-1.23-1.28-.19-.22-.36-.44-.54-.66-.99-1.29-1.75-2.64-2.29-4.1-.54-1.46-.86-3.04-1.01-4.76-.03-.43-.06-.87-.08-1.32s-.02-.9,0-1.38c.01-.94.07-1.92.17-2.94,0-.06.01-.11.02-.17.13-1.43.33-2.95.59-4.57.11-.66.22-1.34.35-2.05.34-1.85.72-3.56,1.12-5.15.13-.53.28-1.05.42-1.55.58-2.04,1.23-3.88,2.02-5.57.79-1.68,1.7-3.23,2.77-4.66.41-.55.86-1.07,1.32-1.59.75-.84,1.55-1.64,2.44-2.42.75-.64,1.56-1.28,2.44-1.88.3-.2.59-.4.9-.59.62-.39,1.27-.75,1.95-1.1.68-.34,1.4-.67,2.14-.97.74-.29,1.52-.56,2.32-.79.8-.23,1.64-.44,2.5-.61.86-.17,1.76-.3,2.68-.37.92-.08,1.88-.12,2.86-.11,1.96,0,3.73.21,5.32.57.4.09.79.19,1.17.29.76.21,1.46.46,2.14.74.33.13.66.29.98.43.63.31,1.22.64,1.77.99.55.35,1.06.73,1.53,1.11.23.2.46.4.68.59s.43.41.63.62c.4.42.76.84,1.08,1.27.57.74,1.05,1.49,1.46,2.27.3.55.56,1.12.79,1.71.13.35.25.72.36,1.08.33,1.1.55,2.27.67,3.51.09.83.12,1.7.12,2.6s-.04,1.86-.12,2.85c-.15,1.99-.46,4.17-.87,6.58-.12.73-.25,1.43-.37,2.11-.18.91-.35,1.78-.55,2.63-.14.65-.3,1.29-.46,1.9-.18.66-.36,1.31-.56,1.94-.4,1.28-.84,2.49-1.34,3.62-.1.23-.21.45-.31.67-.29.61-.58,1.21-.9,1.78v.06Zm8.6,31.43h-.03v.2h-2.32v6.22c0,.77.36,1.21,1.16,1.21h1.21v2.83h-.03v.24h-1.84c-2.73,0-3.9-1.94-3.9-3.84v-6.66h-1.42v-2.55h.08v-.19h1.34v-3.79h.07v-.17h3.34v3.96h2.37v2.54h-.01Zm20.57,10.69h-2.76l-2.81-8.43-2.81,8.43h-2.76l-4.14-13.44h.07l-.06-.19h3.56l2.16,8.27,2.72-8.27h2.44l2.74,8.27,2.16-8.27h3.52l-.06.19h.13l-4.11,13.44Zm18.72-1.49c-.83.87-2.2,1.65-4.18,1.65s-3.33-.78-4.15-1.65c-.47-.5-.81-1.04-1.05-1.65-.44-1-.57-2.2-.57-3.81,0-2.41.31-3.93,1.52-5.19.83-.87,2.16-1.64,4.14-1.64s3.34.77,4.16,1.64c.19.19.34.39.48.59.92,1.19,1.18,2.63,1.18,4.81,0,2.44-.31,3.98-1.52,5.24h-.01Zm5.62-48.65c-.54,2.02-1.16,3.86-1.9,5.56-.37.85-.78,1.66-1.22,2.44s-.92,1.53-1.44,2.26c-.78,1.09-1.66,2.14-2.65,3.13-.33.33-.67.66-1.04.98-.5.44-1.02.88-1.57,1.31-.56.43-1.15.85-1.77,1.26-1.24.8-2.61,1.56-4.12,2.18-.76.32-1.54.61-2.35.87-.48.15-.99.3-1.5.43-.34.09-.68.18-1.04.25-.44.09-.89.18-1.34.25-.91.14-1.86.25-2.83.32-.48.03-.98.04-1.49.06-2.02.03-3.83-.14-5.46-.47-.41-.08-.81-.18-1.2-.28-.77-.21-1.51-.44-2.19-.72-.34-.13-.67-.28-1-.43-.64-.3-1.24-.63-1.81-.98-.56-.35-1.09-.73-1.56-1.12-.48-.4-.94-.81-1.34-1.24s-.78-.86-1.12-1.3c-.25-.32-.48-.65-.7-.98s-.42-.66-.62-1c-.19-.34-.36-.68-.53-1.04-.08-.18-.15-.35-.23-.53-.08-.18-.14-.36-.22-.54-.54-1.46-.86-3.04-1.01-4.75-.03-.43-.06-.87-.08-1.32-.04-1.35,0-2.79.15-4.33.09-1.04.22-2.11.39-3.24.04-.29.09-.56.13-.86.13-.87.29-1.76.45-2.7.11-.62.23-1.21.35-1.79.24-1.17.5-2.29.77-3.35.13-.53.28-1.05.42-1.55.29-1.01.61-1.98.94-2.91.17-.46.34-.91.52-1.35s.36-.87.56-1.3c.2-.42.41-.84.62-1.23.43-.8.88-1.59,1.38-2.32.25-.37.51-.74.78-1.1.28-.35.55-.7.84-1.06.74-.87,1.54-1.71,2.43-2.51.17-.15.33-.31.51-.45.25-.21.51-.43.77-.64s.54-.42.81-.63c.56-.42,1.15-.81,1.77-1.2.63-.39,1.28-.75,1.95-1.1.68-.34,1.39-.67,2.13-.97.74-.29,1.52-.56,2.32-.79.4-.12.81-.23,1.22-.33s.84-.19,1.28-.28c.87-.17,1.76-.3,2.69-.39s1.88-.12,2.86-.11c.48,0,.97.01,1.43.04.94.06,1.82.15,2.66.29.42.07.83.15,1.22.24.8.18,1.55.39,2.27.63s1.38.52,2.02.83c.15.08.3.15.44.23.77.4,1.48.83,2.11,1.3.25.19.5.37.74.57.47.39.9.79,1.3,1.21s.76.84,1.08,1.27c.98,1.26,1.72,2.57,2.26,3.99.28.7.48,1.44.66,2.2s.3,1.55.37,2.39c.04.42.07.84.09,1.28.02.43.03.88.02,1.33,0,.91-.04,1.86-.12,2.85-.03.5-.09,1.01-.14,1.53-.17,1.56-.42,3.25-.73,5.05-.41,2.43-.86,4.64-1.39,6.66h.01Zm8.93,40.34c-.52-.52-.96-.8-1.78-.8-1.04,0-2.17.77-2.17,2.48v8.1h-3.35v-.24h-.18v-13.38h3.26v.19h.19v.9c.68-.68,1.86-1.24,3.18-1.24,1.21,0,2.08.29,2.94,1.06.14.12.3.24.44.4l-2.53,2.55h0Zm15.8,9.77l-.14-.24h-.13l-3.11-5.26-1.34,1.51v4h-3.35v-.24h-.24v-18.29h3.34v.17h.26v9.9l4.18-5.15h4.03l-.17.19h.46l-4.8,5.42,5.16,8.03h-4.16Z"></path><path class="cls-1" d="m272.3,217.78c-.92,0-1.6.4-2,.98-.03.07-.08.13-.11.21-.21.5-.28.86-.31,1.44h4.97c-.03-.46-.11-.8-.3-1.23-.36-.79-1.1-1.4-2.25-1.4Z"></path><polygon class="cls-1" points="249.52 215.16 249.29 215.16 249.29 228.6 252.65 228.6 252.65 228.36 249.52 228.36 249.52 215.16"></polygon><path class="cls-1" d="m252.96,216.05c-.06.06-.12.1-.18.15h0c.06-.06.12-.1.18-.15Z"></path><path class="cls-1" d="m257.31,220.26c0-1.83-1.16-2.44-2.2-2.44-.59,0-1.23.2-1.67.69.42-.35.96-.5,1.46-.5,1.06,0,2.22.62,2.22,2.46v8.13h3.36v-.24h-3.16v-8.09h-.01Z"></path><path class="cls-1" d="m266.59,221.65c0-1.87.44-3.4,1.21-4.53-.87,1.16-1.37,2.75-1.37,4.75,0,5.45,3.05,6.89,6.22,6.89,2.42,0,3.74-.75,5.11-2.11l-.08-.08c-1.3,1.26-2.6,1.94-4.92,1.94-3.16,0-6.19-1.44-6.19-6.86h.01Z"></path><path class="cls-1" d="m269.88,222.93h8.27v-.22h-8.28v.22h.01Z"></path><path class="cls-1" d="m274.65,218.97c-.36-.79-1.1-1.38-2.24-1.38-1.02,0-1.73.5-2.13,1.18.41-.58,1.08-.98,2-.98,1.13,0,1.88.59,2.25,1.4.19.43.26.77.3,1.23h.12c-.02-.58-.1-.95-.31-1.44h0Z"></path><rect class="cls-1" x="288" y="217.91" width="2.32" height=".2"></rect><path class="cls-1" d="m284.65,224.52v-6.63h-1.41v-2.36h-.08v2.55h1.42v6.66c0,1.92,1.17,3.84,3.9,3.84h1.84v-.24h-1.78c-2.72,0-3.88-1.93-3.88-3.83h-.01Z"></path><rect class="cls-1" x="284.58" y="211.57" width=".07" height="3.79"></rect><polygon class="cls-1" points="310.88 228.36 308.13 228.36 305.33 219.97 302.52 228.36 299.78 228.36 295.72 215.16 295.64 215.16 299.78 228.6 302.54 228.6 305.35 220.16 308.17 228.6 310.93 228.6 315.03 215.16 314.91 215.16 310.88 228.36"></polygon><path class="cls-1" d="m323.14,221.87c0-1.4.08-2.55.77-3.25.39-.39.88-.59,1.54-.59s1.19.21,1.57.59c.07.07.12.14.18.21-.09-.15-.19-.29-.31-.42-.39-.39-.9-.59-1.56-.59s-1.16.21-1.54.59c-.69.7-.77,1.85-.77,3.24,0,1.12.06,2.11.45,2.82-.3-.68-.33-1.59-.33-2.6Z"></path><path class="cls-1" d="m331.02,221.65c0,2.43-.31,3.95-1.52,5.22-.83.87-2.18,1.64-4.16,1.64s-3.31-.77-4.14-1.64c-.41-.43-.72-.89-.94-1.41.23.62.57,1.16,1.05,1.65.83.87,2.16,1.65,4.15,1.65s3.36-.78,4.18-1.65c1.21-1.27,1.52-2.8,1.52-5.24,0-2.18-.25-3.63-1.18-4.81.8,1.15,1.04,2.54,1.04,4.59h0Z"></path><path class="cls-1" d="m340.16,216.06v-.9h-.19v1.1c.06-.07.12-.13.19-.2Z"></path><path class="cls-1" d="m346.49,216.08l-2.51,2.54c-.52-.52-.95-.8-1.77-.8-1.02,0-2.16.77-2.16,2.47v8.06h-3.16v.24h3.35v-8.1c0-1.71,1.13-2.48,2.17-2.48.83,0,1.27.29,1.78.8l2.53-2.55c-.14-.14-.3-.28-.44-.4.08.07.14.13.22.21h-.01Z"></path><polygon class="cls-1" points="363.79 215.16 363.32 215.16 358.7 220.37 363.84 228.36 359.84 228.36 359.99 228.6 364.14 228.6 358.97 220.58 363.79 215.16"></polygon><polygon class="cls-1" points="355.26 220.13 355.26 210.23 355.01 210.23 355.01 220.45 355.26 220.13"></polygon><polygon class="cls-1" points="355.01 224.37 355.01 228.36 351.92 228.36 351.92 228.6 355.26 228.6 355.26 224.6 356.61 223.1 356.42 222.78 355.01 224.37"></polygon><path class="cls-1" d="m322.87,174.28c-.17.76-.33,1.5-.51,2.21-.08.33-.15.66-.24.98s-.18.64-.26.95c.26-.83.51-1.68.72-2.59.3-1.27.56-2.6.8-4,.12-.7.24-1.4.34-2.07-.12.7-.25,1.43-.4,2.18-.15.79-.31,1.56-.46,2.32h.01Z"></path><path class="cls-1" d="m321.87,178.43h0c.09-.31.18-.63.26-.95-.09.32-.18.64-.26.95Z"></path><path class="cls-1" d="m317.14,154.59c.67,0,1.3.06,1.89.17.29.06.57.12.84.21-.28-.09-.55-.15-.84-.21-.58-.11-1.21-.17-1.89-.17s-1.32.06-1.94.17c-.12.02-.25.04-.37.08.12-.03.24-.06.37-.08.62-.11,1.26-.17,1.94-.17Z"></path><path class="cls-1" d="m322.81,156.92c-.25-.31-.53-.58-.83-.83-.2-.17-.41-.32-.64-.45.22.14.44.29.64.45.3.25.58.52.83.83Z"></path><path class="cls-1" d="m324.45,163.39c0,.61-.04,1.22-.1,1.87.06-.65.09-1.27.1-1.87Z"></path><path class="cls-1" d="m321.27,180.33c.21-.61.41-1.23.59-1.89h0c-.19.65-.39,1.29-.59,1.89Z"></path><path class="cls-1" d="m310.4,157.25c.48-.44.97-.83,1.48-1.17.51-.33,1.04-.61,1.59-.84.37-.14.77-.28,1.17-.37-.41.1-.79.23-1.17.37-.55.23-1.08.51-1.59.84-.51.33-1,.72-1.48,1.17-.44.4-.85.83-1.22,1.28.37-.46.78-.88,1.22-1.28Z"></path><path class="cls-1" d="m308.14,160c-.64,1.05-1.18,2.19-1.65,3.46-.12.31-.23.63-.33.96.11-.33.22-.65.33-.96.46-1.27,1.01-2.41,1.65-3.46Z"></path><path class="cls-1" d="m303.15,182.71c.04.55.11,1.09.21,1.6.04.21.1.41.15.62-.06-.2-.11-.41-.15-.62-.1-.51-.18-1.04-.21-1.6Z"></path><path class="cls-1" d="m303.9,186.01c.17.39.35.76.58,1.1.06.08.12.14.18.22-.06-.08-.12-.14-.18-.22-.22-.34-.42-.72-.58-1.1Z"></path><path class="cls-1" d="m303.16,179.81c-.02.33-.03.66-.04.98v.94-.94c0-.32.02-.65.04-.98Z"></path><path class="cls-1" d="m305.27,167.52c-.34,1.44-.66,2.96-.97,4.57-.08.4-.15.79-.23,1.18.08-.39.15-.78.23-1.18.31-1.61.63-3.14.97-4.57Z"></path><path class="cls-1" d="m315.58,188.28c-.19.12-.37.23-.56.33.19-.1.37-.22.56-.33Z"></path><path class="cls-1" d="m313.32,199.4c.45-.08.9-.15,1.34-.25.35-.08.69-.17,1.04-.25-.34.09-.68.18-1.04.25-.44.09-.89.18-1.34.25Z"></path><path class="cls-1" d="m329,146.83c.77.4,1.48.83,2.11,1.3-.64-.46-1.35-.9-2.11-1.3Z"></path><path class="cls-1" d="m337.37,166.75c.06-.52.1-1.04.14-1.53.08-.99.12-1.95.12-2.85,0,.91-.04,1.86-.12,2.85-.03.5-.09,1.01-.14,1.53Z"></path><path class="cls-1" d="m292.6,192.24c.22.33.45.66.7.98.34.44.72.87,1.12,1.3-.41-.43-.78-.86-1.12-1.3-.25-.32-.48-.65-.7-.98Z"></path><path class="cls-1" d="m301.93,150.35c-.26.21-.52.43-.77.64-.18.15-.33.31-.51.45.17-.15.33-.31.51-.45.25-.21.51-.43.77-.64Z"></path><path class="cls-1" d="m316.1,144.68c-.92.09-1.82.21-2.69.39-.43.08-.86.18-1.28.28.42-.1.84-.19,1.28-.28.87-.17,1.76-.3,2.69-.39Z"></path><path class="cls-1" d="m290,184.37c.15,1.72.47,3.28,1.01,4.75.07.19.14.36.22.54-.08-.18-.14-.36-.22-.54-.54-1.46-.86-3.04-1.01-4.75Z"></path><path class="cls-1" d="m325.43,194.16c.56-.43,1.08-.87,1.57-1.31.35-.32.7-.65,1.04-.98-.33.33-.67.66-1.04.98-.5.44-1.02.88-1.57,1.31Z"></path><path class="cls-1" d="m303.53,199.29c1.64.33,3.45.51,5.46.47.51,0,1-.02,1.49-.06-.48.03-.98.04-1.49.06-2.02.03-3.83-.14-5.46-.47Z"></path><path class="cls-1" d="m336.64,171.8c-.41,2.43-.86,4.64-1.39,6.66-.54,2.02-1.16,3.86-1.9,5.56-.37.85-.78,1.66-1.22,2.44.44-.78.85-1.6,1.22-2.44.75-1.7,1.37-3.55,1.9-5.56.53-2.03.98-4.23,1.39-6.66.31-1.81.56-3.49.73-5.05-.17,1.56-.42,3.25-.73,5.05Z"></path><path class="cls-1" d="m302.33,199.01c-.77-.21-1.51-.44-2.19-.72.68.28,1.42.52,2.19.72Z"></path><path class="cls-1" d="m293.52,162.32c-.33.92-.64,1.89-.94,2.91-.14.51-.29,1.02-.42,1.55.13-.53.28-1.05.42-1.55.29-1.01.61-1.98.94-2.91Z"></path><path class="cls-1" d="m313.32,199.4c-.91.14-1.86.25-2.83.32.98-.06,1.92-.17,2.83-.32Z"></path><path class="cls-1" d="m291.99,191.24c-.19-.34-.36-.68-.53-1.04.17.35.34.69.53,1.04Z"></path><path class="cls-1" d="m298.23,153.95c-.29.34-.57.69-.84,1.06-.28.36-.53.73-.78,1.1.25-.37.51-.74.78-1.1.28-.35.55-.7.84-1.06Z"></path><path class="cls-1" d="m295.22,158.42c.43-.8.88-1.59,1.38-2.32-.5.75-.96,1.52-1.38,2.32Z"></path><path class="cls-1" d="m212.84,172.33c.11-.62.22-1.22.33-1.79-.11.57-.22,1.18-.33,1.79Z"></path><path class="cls-1" d="m218.03,142.66c.13-.74.26-1.49.41-2.18-.14.7-.28,1.44-.41,2.18Z"></path><path class="cls-1" d="m197.31,224.92c-.14.07-.28.14-.42.21h0c.14-.07.28-.14.42-.21Z"></path><path class="cls-1" d="m209.67,189.53c.14-.76.28-1.51.42-2.27-.14.76-.28,1.52-.42,2.27Z"></path><path class="cls-1" d="m229.49,120.35c.59-.48,1.22-.96,1.86-1.4-.64.44-1.27.91-1.86,1.4Z"></path><path class="cls-1" d="m201.02,222.08c-.68.76-1.44,1.43-2.28,1.99.83-.56,1.6-1.23,2.28-1.99Z"></path><path class="cls-1" d="m208.45,196.17c.13-.72.26-1.44.4-2.17-.13.74-.26,1.45-.4,2.17Z"></path><path class="cls-1" d="m244.21,127.27c.15-.03.31-.08.46-.1.21-.04.43-.08.65-.11-.22.03-.43.07-.65.11l-.46.1Z"></path><path class="cls-1" d="m217.44,223.11c.24-.46.47-.95.69-1.43.53-1.18,1.01-2.43,1.46-3.8-.45,1.37-.92,2.62-1.46,3.8-.22.5-.45.97-.69,1.43Z"></path><path class="cls-1" d="m249.38,127.08c.17.03.33.06.5.09.73.15,1.42.37,2.05.67-.63-.29-1.32-.52-2.05-.67-.17-.03-.33-.07-.5-.09Z"></path><path class="cls-1" d="m233.84,139.93c-.01.07-.06.28-.1.55.06-.28.09-.48.1-.55.35-1.54.73-2.84,1.15-3.98.11-.31.23-.62.35-.91-.12.3-.24.59-.35.91-.42,1.13-.79,2.43-1.15,3.98Z"></path><path class="cls-1" d="m213.06,229.41c.7-.77,1.35-1.56,1.97-2.4.59-.81,1.15-1.65,1.66-2.54-.52.88-1.07,1.73-1.66,2.54-.62.84-1.27,1.64-1.97,2.4Z"></path><path class="cls-1" d="m232.27,149.96h0l.85-5.97s0-.04.01-.09c0,.03-.01.07-.01.09l-.85,5.97Z"></path><path class="cls-1" d="m220.72,213.9c.34-1.41.62-2.84.92-4.47l1.75-9.18-1.75,9.18c-.31,1.63-.58,3.06-.92,4.47Z"></path><polygon class="cls-1" points="223.41 200.24 230.2 162.44 230.2 162.44 223.41 200.24"></polygon><path class="cls-1" d="m234.53,117.03c-.76.4-1.49.81-2.19,1.27-.33.21-.66.43-.98.65.32-.22.65-.44.98-.65.7-.45,1.43-.88,2.19-1.27Z"></path><polygon class="cls-1" points="252.18 127.97 252.34 128.07 256.46 114.85 252.34 128.07 252.18 127.97"></polygon><path class="cls-1" d="m236.16,133.36c.14-.26.3-.53.46-.78.34-.53.7-1.01,1.09-1.46-.39.45-.75.94-1.09,1.46-.17.25-.32.52-.46.78Z"></path><path class="cls-1" d="m233.23,143.38c-.04.23-.08.42-.1.53.02-.11.06-.3.1-.53Z"></path><path class="cls-1" d="m236.16,133.36c-.3.53-.56,1.09-.81,1.68.24-.59.52-1.15.81-1.68Z"></path><polygon class="cls-1" points="237.56 162.47 241.27 149.91 241.27 149.91 237.56 162.47"></polygon><path class="cls-1" d="m242.31,127.89s-.09.02-.12.04c-.14.06-.29.11-.42.18.14-.06.29-.12.42-.18.04-.02.09-.03.12-.04l.1-.03c.19-.08.39-.15.57-.22-.19.07-.37.14-.57.22l-.1.03Z"></path><path class="cls-1" d="m272.9,172.14c-.14.73-.29,1.43-.43,2.14-.1.45-.2.89-.3,1.33-.07.3-.13.59-.21.89-.07.26-.13.52-.2.77-.04.15-.08.31-.12.45-.07.23-.12.45-.19.67.26-.81.51-1.66.7-2.55.3-1.27.55-2.6.8-4,.12-.7.24-1.39.34-2.06-.12.7-.25,1.42-.4,2.17-.01.07-.02.13-.03.19h.02Z"></path><path class="cls-1" d="m271.47,178.4h0c.07-.22.12-.45.19-.67-.07.23-.12.45-.19.68h0Z"></path><path class="cls-1" d="m272.47,174.28c.14-.69.29-1.41.43-2.14-.14.73-.29,1.43-.43,2.14Z"></path><path class="cls-1" d="m272.18,175.61c-.07.3-.13.59-.21.89-.07.26-.13.52-.2.77.07-.25.13-.51.2-.77.07-.3.14-.59.21-.89Z"></path><path class="cls-1" d="m270.24,155.25c.32.14.63.32.9.51-.29-.19-.58-.35-.9-.51Z"></path><path class="cls-1" d="m274.06,163.39c.01-.63,0-1.22-.04-1.79.04.57.06,1.17.04,1.79Z"></path><path class="cls-1" d="m271.14,179.52c.11-.36.22-.74.33-1.12h0c-.11.37-.22.75-.33,1.12Z"></path><path class="cls-1" d="m273.03,157.85c.34.64.58,1.35.75,2.13-.17-.77-.41-1.49-.75-2.13Z"></path><path class="cls-1" d="m253.46,174.42c.08-.45.17-.92.25-1.39-.09.46-.18.94-.25,1.39Z"></path><path class="cls-1" d="m265.02,188.37c.13-.08.26-.17.4-.25.39-.25.75-.55,1.11-.86-.36.31-.73.59-1.11.86-.13.09-.26.18-.4.25Z"></path><path class="cls-1" d="m264.8,154.76c.62-.11,1.26-.17,1.94-.17.32,0,.64.02.94.04-.31-.02-.62-.04-.94-.04-.68,0-1.32.06-1.94.17-.59.11-1.18.28-1.73.5-.28.11-.55.24-.8.39.26-.14.53-.26.8-.39.55-.22,1.13-.39,1.73-.5Z"></path><path class="cls-1" d="m261.54,189.62c.15-.02.3-.03.45-.07.18-.03.35-.09.53-.13-.18.04-.35.1-.53.13-.14.02-.3.04-.45.07Z"></path><path class="cls-1" d="m255.44,165.42c-.2.68-.39,1.38-.56,2.1-.19.79-.37,1.62-.55,2.46.18-.85.36-1.66.55-2.46.18-.72.36-1.42.56-2.1Z"></path><path class="cls-1" d="m272.15,156.62c-.18-.19-.36-.36-.56-.53-.02-.02-.04-.03-.08-.06.02.02.04.03.08.06.2.17.39.34.56.53Z"></path><path class="cls-1" d="m253.46,174.42c-.13.76-.26,1.51-.36,2.24s-.19,1.44-.25,2.13c.07-.69.15-1.4.25-2.13.11-.73.23-1.48.36-2.24Z"></path><path class="cls-1" d="m257.73,160c-.64,1.05-1.19,2.19-1.64,3.46-.12.31-.23.63-.34.96.11-.33.22-.65.34-.96.45-1.27,1-2.41,1.64-3.46Z"></path><path class="cls-1" d="m274.02,164.34c-.06.94-.15,1.92-.3,2.95.14-1.04.24-2.02.3-2.95Z"></path><path class="cls-1" d="m260,157.25c.48-.43.98-.83,1.49-1.16.25-.17.51-.32.77-.45-.26.14-.52.29-.77.45-.51.33-1,.72-1.49,1.16-.44.4-.85.83-1.22,1.29.37-.46.78-.89,1.22-1.29Z"></path><path class="cls-1" d="m282.65,184.7c-.29.61-.58,1.21-.9,1.78.32-.57.62-1.17.9-1.78Z"></path><path class="cls-1" d="m243.45,193.88c.37.43.78.86,1.23,1.28-.45-.41-.86-.84-1.23-1.28Z"></path><path class="cls-1" d="m239.54,183.04c.01.45.03.89.08,1.32.15,1.72.47,3.29,1.01,4.76-.54-1.46-.86-3.04-1.01-4.76-.03-.43-.06-.87-.08-1.32Z"></path><path class="cls-1" d="m239.7,178.55c.13-1.43.33-2.95.59-4.57-.26,1.62-.47,3.14-.59,4.57Z"></path><path class="cls-1" d="m275.05,145.44c.76.21,1.46.46,2.14.74-.67-.28-1.38-.52-2.14-.74Z"></path><path class="cls-1" d="m285.86,173.92c.13-.68.25-1.39.37-2.11.42-2.41.72-4.59.87-6.58-.15,1.99-.46,4.17-.87,6.58-.12.73-.25,1.43-.37,2.11Z"></path><path class="cls-1" d="m284.3,180.4c.2-.63.39-1.27.56-1.94.17-.62.31-1.26.46-1.9-.14.65-.3,1.29-.46,1.9-.18.66-.36,1.31-.56,1.94Z"></path><path class="cls-1" d="m286.46,156.24c-.11-.36-.23-.73-.36-1.08-.22-.59-.5-1.16-.79-1.71.3.55.56,1.12.79,1.71.13.35.25.72.36,1.08Z"></path><path class="cls-1" d="m275.84,193.51c.26-.22.52-.44.76-.66.35-.32.7-.65,1.04-.98-.33.33-.67.66-1.04.98-.24.22-.51.44-.76.66Z"></path><path class="cls-1" d="m246.98,155c.41-.55.86-1.07,1.32-1.59-.46.52-.9,1.05-1.32,1.59Z"></path><path class="cls-1" d="m245.37,195.76c-.24-.2-.47-.41-.69-.61.22.21.45.41.69.61.97.79,2.08,1.5,3.38,2.1.96.46,2.03.85,3.18,1.16-1.17-.31-2.22-.69-3.18-1.16-1.29-.61-2.41-1.31-3.38-2.1Z"></path><path class="cls-1" d="m258.6,199.77c-2.02.03-3.84-.14-5.47-.47-.41-.08-.8-.18-1.2-.28.39.1.78.2,1.2.28,1.63.33,3.45.51,5.47.47,2-.02,3.9-.25,5.66-.62.78-.18,1.53-.37,2.26-.59-.73.22-1.48.43-2.26.59-1.76.36-3.66.61-5.66.62Z"></path><path class="cls-1" d="m359.78,189.96c-.19,0-.37-.02-.55-.03.18.01.36.02.55.03Z"></path><path class="cls-1" d="m372.31,176.91c.09-.33.18-.65.25-.99.13-.57.26-1.17.39-1.77-.12.61-.25,1.19-.39,1.77-.08.34-.17.67-.25.99Z"></path><path class="cls-1" d="m363.78,154.97c-.14.04-.29.1-.42.15-.28.12-.55.24-.81.39.26-.14.54-.26.81-.39.14-.06.28-.11.42-.15Z"></path><path class="cls-1" d="m353.46,175.62c-.07.37-.12.75-.18,1.12-.17,1.1-.28,2.16-.34,3.17.07-1.01.18-2.07.34-3.17.06-.37.11-.75.18-1.12Z"></path><path class="cls-1" d="m355.08,167.51c.28-1.09.56-2.14.89-3.13-.33.99-.62,2.04-.89,3.13-.35,1.45-.67,3-.98,4.61-.23,1.2-.45,2.38-.64,3.51.19-1.13.41-2.31.64-3.51.31-1.63.64-3.17.98-4.61Z"></path><path class="cls-1" d="m352.94,179.92c-.02.34-.03.67-.04.99,0,.32-.01.64,0,.95v-.95c0-.32.02-.65.04-.99Z"></path><path class="cls-1" d="m356.35,189.12c.12.07.24.12.36.18s.25.11.39.17c-.13-.06-.26-.1-.39-.17-.12-.06-.24-.11-.36-.18Z"></path><path class="cls-1" d="m374.46,162.41c0-.33-.02-.66-.06-.98.02.32.04.64.06.98Z"></path><path class="cls-1" d="m373.59,170.65c.04-.29.1-.58.14-.87.07-.41.13-.8.2-1.21-.07.4-.13.8-.2,1.21-.04.29-.09.57-.14.87Z"></path><path class="cls-1" d="m366.56,154.45c-.5.02-.98.08-1.45.17-.31.06-.61.12-.9.21.29-.09.59-.15.9-.21.46-.09.95-.14,1.45-.17Z"></path><path class="cls-1" d="m373.59,158.09c.09.19.17.37.23.56-.07-.19-.14-.37-.23-.56Z"></path><path class="cls-1" d="m354.28,187.28c-.41-.61-.7-1.29-.94-2.05.22.75.53,1.44.94,2.05Z"></path><path class="cls-1" d="m370.61,155.12c.32.14.63.31.91.51-.29-.19-.59-.36-.91-.51Z"></path><path class="cls-1" d="m357.07,161.57c.28-.58.57-1.13.9-1.66-.32.53-.62,1.08-.9,1.66Z"></path><path class="cls-1" d="m368.97,154.61c.58.1,1.13.28,1.63.51-.5-.23-1.05-.41-1.63-.51-.59-.12-1.22-.18-1.9-.18-.18,0-.34,0-.51.01.17,0,.34-.01.51-.01.68,0,1.32.07,1.9.18Z"></path><path class="cls-1" d="m356.57,162.73c.15-.4.32-.78.5-1.16-.18.37-.34.76-.5,1.16Z"></path><path class="cls-1" d="m388.34,121.15c.29-.24.57-.47.88-.7-.31.23-.61.46-.88.7Z"></path><path class="cls-1" d="m389.96,119.92c.41-.28.84-.54,1.28-.79-.45.25-.87.52-1.28.79Z"></path><path class="cls-1" d="m382.37,129.27c-.12.28-.25.56-.36.86-.11.25-.21.53-.31.79.1-.26.2-.53.31-.79.12-.29.24-.57.36-.86Z"></path><path class="cls-1" d="m391.24,119.13c.67-.37,1.39-.72,2.14-1.01-.76.3-1.48.64-2.14,1.01Z"></path><path class="cls-1" d="m386.79,122.6c-.15.15-.3.32-.44.47-.35.37-.69.76-1.01,1.16.32-.4.66-.78,1.01-1.16.14-.15.29-.32.44-.47Z"></path><path class="cls-1" d="m389.51,158.5c-.21,1.24-.43,2.52-.64,3.79.21-1.27.43-2.54.64-3.79Z"></path><path class="cls-1" d="m389.88,156.31c-.12.72-.24,1.44-.37,2.19.12-.75.25-1.48.37-2.19Z"></path><path class="cls-1" d="m387.34,171.12c-.06.32-.11.64-.17.95.06-.31.11-.63.17-.95Z"></path><path class="cls-1" d="m390.22,154.25c-.11.66-.23,1.34-.35,2.06.12-.72.24-1.4.35-2.06Z"></path><path class="cls-1" d="m387.59,169.71c-.06.31-.11.62-.17.94.06-.32.11-.63.17-.94Z"></path><path class="cls-1" d="m387.89,168c-.04.25-.09.53-.14.81.06-.29.1-.56.14-.81Z"></path><path class="cls-1" d="m400.56,130.05c-.29.13-.56.28-.84.44.28-.17.55-.31.84-.44Z"></path><path class="cls-1" d="m391.06,149.36c-.09.54-.2,1.17-.32,1.88.12-.72.23-1.35.32-1.88Z"></path><path class="cls-1" d="m398.92,131.02c-.28.2-.55.42-.81.65.26-.23.54-.45.81-.65Z"></path><path class="cls-1" d="m380.72,133.7c.2-.62.4-1.22.62-1.82-.21.59-.42,1.2-.62,1.82Z"></path><path class="cls-1" d="m391.29,148.07c-.06.32-.13.75-.22,1.29.09-.54.17-.97.22-1.29Z"></path><path class="cls-1" d="m352.57,148.17c.46-.33.95-.65,1.45-.95-.51.3-.99.61-1.45.95Z"></path><path class="cls-1" d="m387.17,172.07c-.11.63-.22,1.23-.31,1.77.1-.55.2-1.15.31-1.77Z"></path><path class="cls-1" d="m377.32,147.75c.15-.83.32-1.67.51-2.54-.19.86-.35,1.71-.51,2.54Z"></path><path class="cls-1" d="m355.59,146.42c.54-.24,1.1-.47,1.67-.67-.57.2-1.12.43-1.67.67Z"></path><path class="cls-1" d="m341.19,173.95c.17-.84.33-1.66.51-2.49-.17.81-.34,1.65-.51,2.49Z"></path><path class="cls-1" d="m345.07,158.75c.57-1.49,1.22-2.92,1.98-4.26-.76,1.34-1.41,2.77-1.98,4.26Z"></path><path class="cls-1" d="m341.63,193.16c-.19-.36-.36-.73-.52-1.1.15.37.33.75.52,1.1Z"></path><path class="cls-1" d="m386.87,173.84c-.04.28-.09.53-.13.77.04-.24.09-.5.13-.77Z"></path><path class="cls-1" d="m339.91,186.04c-.02-.5-.03-1-.03-1.52,0,.51,0,1.01.03,1.52Z"></path><path class="cls-1" d="m340.12,188.32c-.04-.26-.08-.54-.1-.81.03.28.07.54.1.81Z"></path><path class="cls-1" d="m387.89,168c.2-1.16.34-1.96.34-1.96.17-.98.33-1.98.51-3-.18,1.01-.34,2.03-.51,3,0,0-.14.8-.34,1.96Z"></path><path class="cls-1" d="m386.24,177.4c.03-.18.07-.37.1-.56s.06-.35.08-.46c-.02.11-.04.28-.08.46s-.07.39-.1.56Z"></path><path class="cls-1" d="m385.91,180.01c0-.08.02-.17.03-.24.08-.76.17-1.54.31-2.36-.14.81-.23,1.6-.31,2.36,0,.09-.02.17-.03.24Z"></path><path class="cls-1" d="m385.83,182.24v-.58s-.01-.09-.02-.13c.01.04.02.09.02.13v.58Z"></path><path class="cls-1" d="m385.82,181.18c0-.19.02-.42.03-.56,0-.11.02-.24.03-.39-.01.14-.02.28-.03.39,0,.15-.02.37-.03.56Z"></path><path class="cls-1" d="m402.81,129.33c-.32.06-.63.13-.94.22.31-.09.62-.17.94-.22h0Z"></path><path class="cls-1" d="m400.56,130.05c.14-.07.29-.13.43-.19.29-.11.58-.22.88-.31-.31.09-.59.19-.88.31-.14.07-.29.12-.43.19Z"></path><path class="cls-1" d="m386.95,186.4s-.07-.08-.09-.11c-.04-.08-.09-.15-.13-.24.04.08.09.17.13.24.03.04.07.08.09.11Z"></path><path class="cls-1" d="m392.39,142.76c-.26,1.13-.52,2.32-.77,3.56.24-1.23.5-2.42.77-3.56.37-1.51.79-2.95,1.28-4.26.18-.48.36-.94.56-1.39-.2.45-.39.9-.56,1.39-.48,1.31-.9,2.75-1.28,4.26Z"></path><path class="cls-1" d="m396.49,133.31c.3-.36.62-.7.96-1.04-.34.33-.66.66-.96,1.04Z"></path><path class="cls-1" d="m344.04,196.23c.2.17.4.33.61.5.42.32.86.63,1.33.9-.47-.29-.91-.58-1.33-.9-.21-.15-.41-.32-.61-.5Z"></path><path class="cls-1" d="m354.55,200c-1.3-.06-2.54-.21-3.73-.48-1.19-.28-2.32-.65-3.35-1.12,1.02.47,2.16.85,3.35,1.12,1.19.28,2.43.43,3.73.48,1.06.03,2.06.01,3.02-.07-.97.09-1.97.11-3.02.07Z"></path><path class="cls-1" d="m385.78,200.07c-.34-.01-.67-.03-.99-.06.33.02.66.04.99.06.37,0,.75,0,1.12-.01l3.59-11.52h0l-3.59,11.52c-.37,0-.74.02-1.12.01Z"></path><path class="cls-1" d="m378.88,140.54c-.1.41-.2.83-.29,1.24-.22.96-.44,1.89-.64,2.82.2-.92.42-1.86.64-2.82.1-.42.19-.83.29-1.24Z"></path><path class="cls-1" d="m369.37,194.05c.19-.2.37-.4.56-.61.03-.04.07-.09.11-.13-.03.04-.07.09-.11.13-.19.21-.37.41-.56.61Z"></path><path class="cls-1" d="m340.78,176.12c-.08.44-.15.88-.23,1.32-.07.45-.13.9-.2,1.35.07-.45.13-.9.2-1.35.08-.44.15-.88.23-1.32Z"></path><path class="cls-1" d="m368.51,194.89c-.2.18-.39.35-.58.52,0,0,0,.02-.02.02-.21.18-.41.34-.62.51-.31.24-.62.47-.91.69.31-.22.61-.45.91-.69.21-.17.42-.33.62-.51.01,0,.01-.01.02-.02.2-.17.39-.33.58-.52.08-.07.15-.13.23-.2l.03-.07-.03.07c-.08.07-.15.13-.23.2Z"></path><path class="cls-1" d="m372.06,190.43c.23.81.53,1.6.89,2.35-.36-.74-.66-1.53-.89-2.35h0Z"></path><path class="cls-1" d="m378.92,198.45c-.09-.04-.18-.1-.25-.15.09.06.17.1.25.15.95.5,1.99.86,3.12,1.13.57.13,1.17.24,1.78.33-.63-.08-1.22-.19-1.78-.33-1.13-.28-2.17-.64-3.12-1.13Z"></path><path class="cls-1" d="m375.89,196.52c.21.17.42.33.64.5.29.21.59.41.91.59-.32-.19-.62-.39-.91-.59-.22-.15-.43-.32-.64-.5Z"></path><path class="cls-1" d="m374.25,194.86c-.51-.64-.94-1.34-1.3-2.08.36.74.79,1.44,1.3,2.08.47.59,1.02,1.15,1.64,1.66-.62-.51-1.17-1.07-1.64-1.66Z"></path><path class="cls-1" d="m256.13,214.82c-1.16,0-2.3.42-3.17,1.22.84-.69,1.9-1.04,2.97-1.04,1.34,0,2.42.44,3.17,1.19,1.08,1.08,1.37,2.35,1.37,3.82v8.35h.18v-8.56c0-1.46-.29-2.72-1.37-3.8-.75-.75-1.83-1.19-3.16-1.19h.01Z"></path><path class="cls-1" d="m252.57,216.4c.07-.07.14-.13.21-.2v-1.22h-3.26v.19h3.05v1.24h0Z"></path><path class="cls-1" d="m252.65,220.47v7.88h.21v-8.09c0-.79.22-1.35.56-1.74-.45.39-.78,1-.78,1.95h.01Z"></path><path class="cls-1" d="m270.18,218.97c.03-.07.07-.13.11-.21-.09.13-.18.26-.24.41-.21.5-.29.86-.31,1.44h5.11c0-.08-.01-.14-.02-.21h-4.97c.03-.58.1-.95.31-1.44h.01Z"></path><path class="cls-1" d="m272.42,214.82c-1.98,0-3.59.8-4.61,2.3,1.04-1.38,2.6-2.13,4.49-2.13,3.74,0,5.86,2.73,5.86,6.43v1.28h.1v-1.5c0-3.67-2.1-6.4-5.84-6.4h0Z"></path><path class="cls-1" d="m272.69,225.92c1.46,0,2.19-.42,3.04-1.27l1.96,1.92c.06-.06.11-.11.18-.17l-2.03-1.98c-.85.85-1.56,1.27-3.03,1.27-1.79,0-2.84-1.16-2.92-2.76h-.14c0,1.73,1.06,3,2.95,3h-.01Z"></path><polygon class="cls-1" points="288 211.4 284.65 211.4 284.65 211.57 287.94 211.57 287.94 215.54 290.32 215.54 290.32 217.91 290.35 217.91 290.35 215.36 288 215.36 288 211.4"></polygon><rect class="cls-1" x="283.24" y="215.36" width="1.34" height=".19"></rect><path class="cls-1" d="m287.94,224.56c0,.78.36,1.21,1.16,1.21h1.21v2.6h.03v-2.83h-1.21c-.79,0-1.16-.44-1.16-1.21v-6.22h-.06v6.45h.02Z"></path><polygon class="cls-1" points="301.38 223.47 304.12 215.16 306.57 215.16 309.33 223.47 311.49 215.16 314.91 215.16 314.96 214.98 311.44 214.98 309.28 223.25 306.53 214.98 304.1 214.98 301.36 223.25 299.21 214.98 295.66 214.98 295.72 215.16 299.21 215.16 301.38 223.47"></polygon><path class="cls-1" d="m326.91,224.92c-.39.39-.9.59-1.56.59s-1.16-.21-1.54-.59c-.13-.13-.23-.29-.32-.44.11.25.25.48.44.67.39.39.88.59,1.54.59s1.19-.21,1.57-.59c.69-.69.77-1.88.77-3.27,0-1.27-.07-2.33-.59-3.04.41.7.46,1.67.46,2.82,0,1.39-.08,2.57-.77,3.26h0Z"></path><path class="cls-1" d="m321.32,216.66c.83-.88,2.16-1.65,4.15-1.65s3.36.77,4.18,1.65c.12.13.23.26.34.4-.14-.21-.3-.41-.48-.59-.83-.87-2.18-1.64-4.16-1.64s-3.31.77-4.14,1.64c-1.21,1.26-1.52,2.77-1.52,5.19,0,1.61.14,2.81.57,3.81-.36-.96-.48-2.1-.48-3.59,0-2.43.31-3.95,1.53-5.21h.01Z"></path><path class="cls-1" d="m343.54,215c1.11,0,1.94.24,2.73.87-.85-.76-1.73-1.06-2.94-1.06-1.31,0-2.49.56-3.18,1.24v.39c.65-.77,1.94-1.44,3.38-1.44h.01Z"></path><polygon class="cls-1" points="339.97 215.16 339.97 214.98 336.71 214.98 336.71 228.36 336.89 228.36 336.89 215.16 339.97 215.16"></polygon><polygon class="cls-1" points="355.01 210.23 355.01 210.07 351.66 210.07 351.66 228.36 351.92 228.36 351.92 210.23 355.01 210.23"></polygon><polygon class="cls-1" points="356.61 223.1 359.71 228.36 359.84 228.36 356.68 223 356.61 223.1"></polygon><polygon class="cls-1" points="359.73 215.16 363.32 215.16 363.49 214.98 359.45 214.98 355.26 220.13 355.26 220.66 359.73 215.16"></polygon></g><g><g><path class="cls-1" d="m198.65,313.35v12.96h-5.04v-23.94h5.04v4.36c.72-1.46,1.81-2.62,3.26-3.47s3.03-1.26,4.7-1.26c3.78,0,6.34,1.56,7.7,4.68,2.37-3.12,5.33-4.68,8.86-4.68,2.7,0,4.88.83,6.55,2.48,1.66,1.65,2.5,4.03,2.5,7.16v14.67h-5.04v-13.14c0-4.42-1.83-6.62-5.49-6.62-1.71,0-3.2.55-4.48,1.64-1.28,1.1-1.94,2.7-2,4.79v13.32h-5.04v-13.14c0-2.28-.41-3.95-1.21-5.02-.81-1.07-2.08-1.6-3.82-1.6s-3.26.58-4.55,1.73c-1.29,1.16-1.94,2.84-1.94,5.07h.01Z"></path><path class="cls-1" d="m258.19,326.31h-4.59v-3.19c-1.98,2.37-4.64,3.56-7.96,3.56-2.49,0-4.55-.7-6.19-2.11-1.64-1.41-2.46-3.29-2.46-5.65s.87-4.12,2.61-5.29,4.1-1.75,7.07-1.75h6.53v-.9c0-3.18-1.77-4.77-5.31-4.77-2.22,0-4.53.81-6.93,2.43l-2.25-3.15c2.91-2.31,6.21-3.47,9.9-3.47,2.82,0,5.12.72,6.9,2.14s2.68,3.67,2.68,6.73v15.44h-.01Zm-5.04-8.92v-2.03h-5.67c-3.63,0-5.45,1.15-5.45,3.42,0,1.17.45,2.06,1.35,2.68.9.62,2.15.92,3.75.92s3.01-.45,4.21-1.35c1.2-.9,1.79-2.11,1.79-3.64h.01Z"></path><path class="cls-1" d="m286.91,302.36v20.88c0,9.02-1.15,10.57-3.45,12.68-2.29,2.11-5.24,3.17-8.84,3.17s-6.86-1.12-9.77-3.38l2.39-3.82c2.35,1.77,4.7,2.65,7.09,2.65s4.27-.62,5.67-1.85,2.09-2.6,2.09-9.06v-3.06c-.75,1.41-1.83,2.53-3.22,3.38s-2.96,1.26-4.7,1.26c-3.18,0-5.79-1.11-7.83-3.33-2.04-2.22-3.06-4.98-3.06-8.28s1.02-6.06,3.06-8.28,4.65-3.33,7.81-3.33,5.74,1.3,7.72,3.92v-3.56h5.04-.01Zm-18.67,11.04c0,1.96.61,3.66,1.83,5.09,1.21,1.42,2.85,2.14,4.9,2.14s3.72-.69,5-2.07,1.92-3.09,1.92-5.15-.65-3.8-1.94-5.22c-1.29-1.42-2.95-2.14-5-2.14s-3.67.74-4.88,2.2-1.83,3.18-1.83,5.15Z"></path><path class="cls-1" d="m313.14,326.31h-4.59v-3.19c-1.98,2.37-4.64,3.56-7.96,3.56-2.49,0-4.56-.7-6.19-2.11-1.64-1.41-2.46-3.29-2.46-5.65s.87-4.12,2.61-5.29,4.1-1.75,7.07-1.75h6.53v-.9c0-3.18-1.77-4.77-5.31-4.77-2.22,0-4.54.81-6.93,2.43l-2.25-3.15c2.91-2.31,6.21-3.47,9.9-3.47,2.82,0,5.12.72,6.9,2.14s2.68,3.67,2.68,6.73v15.44h-.01Zm-5.04-8.92v-2.03h-5.67c-3.63,0-5.45,1.15-5.45,3.42,0,1.17.45,2.06,1.35,2.68s2.16.92,3.75.92,3.01-.45,4.21-1.35,1.79-2.11,1.79-3.64h.01Z"></path><path class="cls-1" d="m318.95,306.78v-4.32h18.72v4.55l-13.46,14.94h14.17v4.36h-20.34v-4.91l13.09-14.62h-12.2.01Z"></path><path class="cls-1" d="m348.65,326.31h-5.04v-23.94h5.04v23.94Z"></path><path class="cls-1" d="m360.53,313.35v12.96h-5.04v-23.94h5.04v4.36c.81-1.46,1.93-2.62,3.35-3.47s2.96-1.26,4.61-1.26c2.7,0,4.88.83,6.55,2.48,1.66,1.65,2.5,4.03,2.5,7.16v14.67h-5.04v-13.14c0-4.42-1.83-6.62-5.49-6.62-1.74,0-3.26.58-4.55,1.73-1.29,1.16-1.94,2.84-1.94,5.07h.01Z"></path><path class="cls-1" d="m406.39,316.54h-18.76c.12,1.74.91,3.14,2.39,4.21,1.46,1.07,3.15,1.6,5.04,1.6,3,0,5.27-.95,6.84-2.83l2.88,3.15c-2.58,2.66-5.94,4.01-10.09,4.01-3.36,0-6.22-1.11-8.58-3.35s-3.53-5.23-3.53-9,1.2-6.76,3.6-8.97,5.23-3.33,8.48-3.33,6.02.98,8.3,2.95c2.28,1.96,3.42,4.67,3.42,8.13v3.47-.03Zm-18.76-3.96h13.73c0-2.02-.63-3.56-1.89-4.64s-2.81-1.62-4.66-1.62-3.5.56-4.98,1.68-2.2,2.65-2.2,4.57Z"></path></g><path class="cls-1" d="m343.92,296.04c-.63-.63-.95-1.38-.95-2.25s.32-1.62.95-2.25,1.38-.95,2.25-.95,1.62.32,2.25.95.95,1.38.95,2.25-.32,1.62-.95,2.25-1.38.95-2.25.95-1.62-.32-2.25-.95Z"></path></g></svg> 