<?xml version="1.0" encoding="UTF-8"?> <svg xmlns="http://www.w3.org/2000/svg" id="Layer_1" width="600" height="400" viewBox="0 0 600 400"><defs><style>.cls-1{fill:#3a357e;}</style></defs><g><path class="cls-1" d="m0,162.93h21.67l18.23,53.46,18.34-53.46h21.67l-28.01,74.14h-24.01L0,162.93Z"></path><path class="cls-1" d="m85.36,162.93h54.35v16.12h-35.23v11.48h34.46v16.23h-34.46v14.2h37.18v16.12h-56.29v-74.14Z"></path><path class="cls-1" d="m291.4,237.07l-16.94-59.8-16.94,59.8h-10l-25.5-74.14h10.23l21.43,61.8,17.01-61.8h7.67l17.01,61.8,21.12-61.8h10.34l-25.41,74.14h-10Z"></path><path class="cls-1" d="m327.95,200.06c0-21.9,14.89-38.35,36.79-38.35s36.9,16.45,36.9,38.35-15.01,38.35-36.9,38.35-36.79-16.45-36.79-38.35Zm64.13,0c0-17.34-10.78-30.12-27.34-30.12s-27.23,12.78-27.23,30.12,10.56,30.12,27.23,30.12,27.34-12.89,27.34-30.12Z"></path><path class="cls-1" d="m461.6,237.07l-23.33-27.29h-17.77v27.29h-9.23v-74.14h32.66c13.56,0,23.34,8.67,23.34,22.34s-9.23,22.84-19.34,23.73l24.55,28.07h-10.89Zm-3.88-51.8c0-8.45-6.11-14.12-14.89-14.12h-22.33v30.51h22.33c8.78,0,14.89-8.05,14.89-16.39Z"></path><path class="cls-1" d="m482.15,237.07v-74.14h9.23v65.91h38.57v8.23h-47.79Z"></path><path class="cls-1" d="m536.65,237.07v-74.14h25.34c23.12,0,38.01,16.12,38.01,37.12s-14.89,37.01-38.01,37.01h-25.34Zm53.8-37.01c0-16.01-10.11-28.9-28.45-28.9h-16.12v57.69h16.12c18.01,0,28.45-12.89,28.45-28.79Z"></path></g><g><path class="cls-1" d="m431.62,280.35v-21.55l-9.67,14.71h-.88l-9.71-14.71v21.55h-2.27v-24.16h3.38l9.04,13.26,8.99-13.26h3.42v24.16h-2.31Z"></path><path class="cls-1" d="m459.76,280.35l-2.63-5.94h-14.05l-2.63,5.94h-2.63l10.87-24.16h2.83l10.87,24.16h-2.63Zm-9.63-21.95l-6.29,14.13h12.54l-6.25-14.13Z"></path><path class="cls-1" d="m464.86,268.28c0-7.46,5.97-12.5,13.45-12.5,4.38,0,7.56,1.59,9.99,4.13l-1.71,1.12c-1.87-2.03-4.89-3.37-8.28-3.37-6.21,0-11.06,4.31-11.06,10.61s4.86,10.65,11.06,10.65c3.54,0,6.37-1.59,7.8-2.93v-6.63h-8.29v-1.85h10.56v9.27c-2.35,2.39-5.89,4.02-10.07,4.02-7.48,0-13.45-5.07-13.45-12.53Z"></path><path class="cls-1" d="m513.3,280.35l-2.63-5.94h-14.05l-2.63,5.94h-2.63l10.87-24.16h2.83l10.87,24.16h-2.63Zm-9.63-21.95l-6.29,14.13h12.54l-6.25-14.13Z"></path><path class="cls-1" d="m518.52,280.35v-1.81l16-20.47h-16v-1.88h18.86v1.77l-16,20.5h16.28v1.88h-19.14Z"></path><path class="cls-1" d="m542.96,280.35v-24.16h2.27v24.16h-2.27Z"></path><path class="cls-1" d="m570.82,280.35l-16.72-20.76v20.76h-2.27v-24.16h2.31l16.64,20.47v-20.47h2.27v24.16h-2.23Z"></path><path class="cls-1" d="m579.66,280.35v-24.16h16.84v1.88h-14.57v8.95h14.29v1.88h-14.29v9.56h14.57v1.88h-16.84Z"></path></g><path class="cls-1" d="m182.87,206.51h18.07l.25,10.56c-3,2.45-8.23,4.45-14,4.45-12.12,0-20.67-9.34-20.67-21.45,0-14.28,8.56-22.93,20.67-22.93,6.3,0,13.34,2.81,16.51,7l10.97-10.94c-5.87-6.56-14.77-11.47-27.48-11.47-22.12,0-40.13,14.78-40.13,38.35s18.01,38.35,40.13,38.35c14,0,24.79-5.67,32.79-14.45v-32.43h-36.85l-.25,14.98Z"></path></svg> 