<?xml version="1.0" encoding="UTF-8"?> <svg xmlns="http://www.w3.org/2000/svg" id="Layer_1" width="600" height="400" viewBox="0 0 600 400"><defs><style>.cls-1{fill:#fff;}</style></defs><path class="cls-1" d="m104.23,237.81h-18.87l-35.07-104h22.73l17.09,53.78c1.34,4.61,3.12,10.4,4.76,17.98,1.34-6.39,4.01-15.01,5.94-20.65l17.53-51.11h21.84l-35.95,104h0Z"></path><path class="cls-1" d="m275.33,133.81l19.76,41.3c5.2,10.99,9.21,21.84,11.29,29.27-.74-8.02-1.49-21.24-1.64-28.38l-.45-42.2h19.76v103.26h-21.69l-17.68-39.52c-5.8-12.92-12.04-27.48-13.97-33.87.74,8.47.89,20.65,1.04,29.27l.59,44.12h-20.06v-103.26h23.03,0Z"></path><path class="cls-1" d="m160.41,239.15c-21.84,0-35.95-15.45-35.95-39.37,0-13.67,2.82-22.73,9.51-30.16,6.24-6.98,13.82-10.25,23.92-10.25,8.77,0,17.08,2.97,21.99,8.02,6.98,7.13,10.1,17.38,10.1,33.28v4.61h-43.98v.59c0,11.74,5.8,18.42,16.04,18.42,6.83,0,13.22-2.53,19.32-7.58l7.73,11.88c-8.76,7.13-17.98,10.55-28.67,10.55h0Zm-2.23-65.22c-7.58,0-11.88,5.94-11.88,16.49v.3h23.03v-.89c0-5.65-.59-8.62-2.38-11.44-1.93-2.97-4.75-4.46-8.77-4.46Zm67.11,92.26c-10.85,0-21.99-1.78-28.82-8.17-4.16-3.86-6.24-8.32-6.24-13.52,0-4.16,1.04-6.24,1.78-7.73h18.42c-.74,1.78-.89,2.82-.89,4.9,0,6.09,5.05,9.36,14.26,9.36,5.05,0,9.36-.59,12.48-2.53,2.97-1.78,4.9-4.61,4.9-7.73,0-6.83-6.09-8.91-13.97-9.06l-8.47-.15c-8.91-.15-14.71-.89-18.27-2.38-3.57-1.34-5.8-4.76-5.8-9.95,0-4.9,1.49-9.51,13.97-12.78-11-2.82-16.34-9.81-16.34-21.1,0-15.6,12.63-25.7,32.09-25.7,4.31,0,8.17.59,13.67,1.93,4.16,1.04,6.84,1.63,9.36,1.63,1.64,0,3.28-.21,4.87-.6v37.11c-4.89,6.07-13.38,9.85-23.59,9.85-.89,0-1.49,0-2.97-.15-5.05,2.38-7.87,4.16-7.87,6.24,0,1.04,1.19,1.78,3.27,1.78l10.7.15c9.79.13,15.66,1.42,20.47,4.77v14.69h8.89c.14,1.14.21,2.33.21,3.57,0,6.39-1.93,11.29-6.09,15.75-6.68,7.13-18.12,9.8-30.01,9.8h0Zm-1.04-91.97c-7.58,0-11.89,4.16-11.89,11.29,0,7.72,4.75,10.84,11.74,10.84,7.87,0,12.18-3.86,12.18-10.84s-4.46-11.29-12.03-11.29h0Z"></path><path class="cls-1" d="m261.18,237.07h-8.89v-14.69c.9.63,1.75,1.32,2.56,2.06,3.65,3.4,5.7,7.51,6.33,12.63h0Zm-8.89-37.33v-37.11c3.87-.95,7.63-3,10.87-5.93l5.97,13.97s-3.37,3.8-11.62,4.3c-.24.01-.48.02-.72.02-1.71,0-3.45-.34-4.49-.47,2.97,3.57,4.46,7.43,4.46,12.48s-1.62,9.18-4.49,12.73h0Z"></path><path class="cls-1" d="m372.13,190.71v-.89c0-5.65-.6-8.62-2.38-11.44-1.93-2.97-4.75-4.46-8.76-4.46-7.58,0-11.88,5.94-11.88,16.49v.3s23.03,0,23.03,0Zm19.76,37.89c-8.76,7.13-17.98,10.55-28.67,10.55-21.84,0-35.95-15.45-35.95-39.37,0-13.67,2.82-22.73,9.51-30.16,6.24-6.98,13.82-10.25,23.92-10.25,8.77,0,17.09,2.97,21.99,8.02,6.98,7.13,10.1,17.38,10.1,33.28v4.61h-43.98v.59c0,11.74,5.8,18.42,16.05,18.42,6.84,0,13.22-2.53,19.31-7.58l7.73,11.88h0Zm16.22-68.49l6.24,29.27c1.93,8.76,4.31,23.62,4.31,23.62,0,0,1.93-13.52,5.49-26.45l7.13-25.55h18.72l6.09,25.11c3.42,14.12,5.65,26.89,5.65,26.89.45-3.27,2.08-15.15,4.16-24.81l5.79-27.19h20.5l-21.69,76.07h-18.27l-6.84-26.15c-1.63-6.09-3.42-13.37-4.31-18.42-.6-3.57-.74-4.61-1.19-7.58-.45,3.27-.6,4.31-1.79,9.8-1.49,6.54-4.75,19.61-6.53,26.74l-3.87,15.6h-18.57l-20.8-74.73,19.76-2.23h0Zm131.93,19.32c-7.58-3.86-13.08-5.5-18.72-5.5s-9.65,2.97-9.65,7.43c0,3.86,2.52,5.94,9.51,7.72l9.21,2.38c9.36,2.38,12.48,5.2,15.15,8.62,2.83,3.57,4.16,7.87,4.16,12.93,0,15.75-13.07,26.44-32.53,26.44-9.36,0-19.61-2.97-30.75-8.76l7.13-14.56c6.09,3.71,16.64,8.62,25.26,8.62,5.64,0,10.1-3.71,10.1-8.62,0-5.2-3.71-7.88-11.73-9.36l-8.92-1.63c-5.05-.89-11.29-4.46-13.97-7.72-2.68-3.27-4.31-8.77-4.31-13.67,0-14.86,11.74-24.81,29.42-24.81,12.18,0,20.2,3.71,27.19,7.13l-6.53,13.37h0Z"></path></svg> 