<?xml version="1.0" encoding="UTF-8"?> <svg xmlns="http://www.w3.org/2000/svg" id="Layer_1" width="600" height="400" viewBox="0 0 600 400"><defs><style>.cls-1{fill:#3a357e;}</style></defs><g><path class="cls-1" d="m50,174.71h53.23v9.01h-40.9v13.04h22.05v9.36h-22.05v18.73h-12.33v-50.15Z"></path><path class="cls-1" d="m109.86,174.71h12.21v50.15h-12.21v-50.15Z"></path><path class="cls-1" d="m132.5,174.71h8.42l42.56,33.31v-33.31h11.03v50.15h-8.42l-42.44-33.79v33.79h-11.14v-50.15Z"></path><path class="cls-1" d="m227.22,174.71h11.74l30.23,50.15h-13.75l-6.28-11.03h-33.19l-6.28,11.03h-12.21l29.76-50.15Zm16.95,29.99l-11.74-20.86-11.26,20.86h23Z"></path><path class="cls-1" d="m271.31,174.71h8.42l42.56,33.31v-33.31h11.03v50.15h-8.42l-42.44-33.79v33.79h-11.14v-50.15Z"></path><path class="cls-1" d="m352.04,183.95v31.3h32.96v-10.67l12.33,2.49v5.93c0,9.37-3.2,11.86-13.16,11.86h-31.3c-10.08,0-13.04-2.61-13.04-11.86v-26.44c0-9.37,3.08-11.85,13.04-11.85h31.3c9.96,0,13.16,2.37,13.16,11.85v4.86l-12.33,1.78v-9.25h-32.96Z"></path><path class="cls-1" d="m407.28,174.71h12.21v50.15h-12.21v-50.15Z"></path><path class="cls-1" d="m451.37,174.71h11.74l30.23,50.15h-13.75l-6.28-11.03h-33.19l-6.28,11.03h-12.21l29.76-50.15Zm16.95,29.99l-11.74-20.86-11.26,20.86h23Z"></path><path class="cls-1" d="m498.31,174.71h12.33v40.78h39.36v9.37h-51.69v-50.15Z"></path></g><g><path class="cls-1" d="m242.03,145.54h-12.21v-41.14h-24.18v-9.01h60.7v9.01h-24.3v41.14Z"></path><path class="cls-1" d="m271.07,95.39h12.33v19.09h38.17v-19.09h12.21v50.15h-12.21v-21.1h-38.17v21.1h-12.33v-50.15Z"></path><path class="cls-1" d="m339.95,95.39h53.82v8.89h-41.49v10.91h24.18v8.65h-24.18v12.33h42.08v9.37h-54.41v-50.15Z"></path></g><g><path class="cls-1" d="m133.75,254.46h45.05c8.06,0,11.86,2.61,11.86,9.72v6.05c0,4.62-3.08,7.59-8.54,8.54,5.69.95,8.89,4.5,8.89,9.6v6.4c0,6.64-5.22,9.84-15.53,9.84h-41.73v-50.15Zm12.09,8.18v11.85h27.38c3.68,0,5.45-.59,5.45-3.56v-4.74c0-2.96-1.66-3.56-5.45-3.56h-27.38Zm0,20.15v12.8h27.38c4.15,0,5.93-.83,5.93-4.51v-3.79c0-3.68-1.78-4.5-5.93-4.5h-27.38Z"></path><path class="cls-1" d="m197.52,254.46h45.17c8.06,0,11.74,2.73,11.74,9.72v11.85c0,6.88-3.68,9.6-11.74,9.6h-6.88l23.83,18.97h-17.55l-20.98-18.97h-11.5v18.97h-12.09v-50.15Zm12.09,8.65v13.87h27.86c3.68,0,5.57-.71,5.57-4.03v-5.81c0-3.32-1.9-4.03-5.57-4.03h-27.86Z"></path><path class="cls-1" d="m286.55,254.46h11.74l30.23,50.15h-13.75l-6.28-11.03h-33.19l-6.28,11.03h-12.21l29.76-50.15Zm16.95,29.99l-11.74-20.86-11.26,20.86h23Z"></path><path class="cls-1" d="m332.66,254.46h8.42l42.56,33.31v-33.31h11.03v50.15h-8.42l-42.44-33.79v33.79h-11.14v-50.15Z"></path><path class="cls-1" d="m402.36,254.46h33.79c19.8,0,30.11,9.36,30.11,24.89,0,16.95-11.14,25.25-33.19,25.25h-30.7v-50.15Zm28.1,40.78c15.53,0,23.24-3.44,23.24-16.48,0-10.43-5.81-15.29-17.43-15.29h-21.58v31.77h15.77Z"></path></g></svg> 