<?xml version="1.0" encoding="UTF-8"?> <svg xmlns="http://www.w3.org/2000/svg" id="Layer_1" width="600" height="400" viewBox="0 0 600 400"><defs><style>.cls-1{fill:#fff;}</style></defs><g><path class="cls-1" d="m568.23,156.65c0-9.08-6.3-19.84-19.56-19.84-7.6,0-15.57,4.45-14.37,14.83.74,6.77,11.31,9.18,17.06,10.94,16.87,5.28,23.64,11.68,23.64,24.29s-10.48,21.32-29.02,21.32c-9.08,0-19.19-1.85-25.31-7.42l-2.22-18.17h1.76c2.69,16.13,9.64,22.53,26.42,22.9,10.75.28,13.91-5.84,13.81-13.35-.09-7.51-8.16-10.75-17.71-13.91-13.72-4.36-22.25-9.64-22.25-22.8s11.68-21.69,28.83-21.69c6.58,0,14.83,2.5,20.3,5.65v17.24h-1.39Z"></path><path class="cls-1" d="m508.16,140.61c3.8-2.6,6.58-4.91,8.53-6.86,3.43-3.43,5.19-6.67,5.19-9.73,0-.83-.19-1.48-.65-2.13-.46-.56-1.11-.83-1.95-.83-1.39.19-2.32.28-2.69.28-2.69,0-4.91-.93-6.67-2.78-1.76-1.85-2.69-4.17-2.69-7.05,0-3.15.93-5.75,2.78-7.69,1.85-1.95,4.45-2.97,7.69-2.97,3.62,0,6.58,1.3,8.99,3.89,2.41,2.6,3.52,6.3,3.62,9.27.19,5.28-2.04,12.05-7.88,18.26-3.24,3.34-7.6,6.67-13.35,9.92l-.93-1.58Z"></path><path class="cls-1" d="m492.31,135.05c-5.65,0-12.51,3.15-20.02,12.33v-12.33l-24.57,3.62v2.04s5.38-.65,7.6-.83v58.22c0,2.41-.37,5.56-4.45,5.56h-3.99v2.69h35.04v-2.69h-4.26c-3.06,0-5.38-1.39-5.38-5.56v-40.79c.93-8.99,6.58-14.18,9.18-14.18,4.91,0,4.73,3.52,9.18,5.56,5.93,2.22,10.66-1.76,10.66-6.3.09-4.17-2.78-7.32-8.99-7.32"></path><path class="cls-1" d="m149.59,169.81h47.09s.83-5.75-.65-12.51c-.74-3.89-2.41-8.34-5.56-12.24l-.09-.09c-4.64-5.65-12.7-10.2-26.33-10.2-24.75,0-37.64,16.04-37.64,37.54s11.4,36.43,37.73,36.43c17.52,0,26.7-8.25,31.43-19.84l-1.85-.93c-6.21,12.24-13.81,17.06-25.96,16.96-17.8-.09-21.6-16.78-21.78-31.15v-.37c.09-2.32,1.58-3.62,3.62-3.62m13.81-32.26c19.28-.09,18.54,25.59,18.54,25.68,0,3.62-3.43,3.24-3.43,3.24h-28.74s-3.43.19-3.43-3.43v-.19c.28-8.44,2.5-25.21,17.06-25.31"></path><path class="cls-1" d="m394.32,169.81h47.09s.83-5.75-.65-12.51c-.74-3.89-2.41-8.34-5.47-12.24l-.09-.09c-4.64-5.65-12.7-10.2-26.33-10.2-24.75,0-37.64,16.04-37.64,37.54s11.4,36.43,37.73,36.43c17.52,0,26.7-8.25,31.43-19.84l-1.85-.93c-6.21,12.24-13.81,17.06-25.96,16.96-17.8-.09-21.6-16.78-21.78-31.15v-.37c.09-2.32,1.58-3.62,3.52-3.62m13.81-32.26c19.28-.09,18.54,25.59,18.54,25.68,0,3.62-3.43,3.24-3.43,3.24h-28.74s-3.43.19-3.43-3.43v-.19c.37-8.44,2.6-25.21,17.06-25.31"></path><path class="cls-1" d="m82.48,154.79c13.26-2.04,22.71-9.55,22.62-23.36-.09-13.16-7.32-24.29-33.74-24.29H25v2.41h5.01c1.3,0,4.91.46,4.91,5.38v83.25c0,6.03-5.1,5.93-5.1,5.93h-4.82v2.32h39.03v-2.32h-4.73s-5.75.74-5.75-5.93v-38.1c0-2.5,1.02-4.26,4.08-4.26h5.19c8.34,0,22.73,6.31,27.09,29.57,5.84,31.52,22.37,31.04,49.16,29.84v-1.39c-15.24,0-24.78-13.66-27.8-25.12-4.19-15.89-9.66-32.74-28.79-33.92m-17.61-2.41h-7.23s-4.08.37-4.08-4.17v-37.73c1.39-.37,5.56-.56,8.99-.56,11.22,0,24.2,3.62,24.2,22.9,0,14.37-7.6,19.56-21.88,19.56"></path><path class="cls-1" d="m278.91,201.24c-1.76,1.67-3.71,2.32-5.38,2.41-3.24.19-3.99-2.69-3.99-3.24-.19-3.71-.28-45.42-.28-45.42,0-8.44-5.38-20.21-29.2-20.21-18.08,0-30.22,8.44-30.78,16.59-.28,4.54,2.69,8.16,7.05,7.97h0c.19,0,.46,0,.74-.09h.28c.28-.09.65-.09.93-.19.19-.09.46-.09.65-.19,4.36-1.76,5.19-7.14,5.19-7.14h0c1.58-9.83,5.1-14.92,15.57-14.65,12.24.37,12.51,6.95,12.51,18.17v1.48c-.09,1.3-.83,6.12-8.99,9.46-6.3,1.85-14.46,2.5-22.25,3.89-11.4,2.04-14.55,11.22-14.55,17.98,0,10.75,8.16,19.65,22.8,20.12,11.68.37,18.26-6.03,22.99-9.08,2.13,5.47,4.17,7.51,10.29,9.08,3.52.93,11.12.09,17.52-5.28l-1.11-1.67Zm-26.7-11.87c0,9.64-10.2,13.35-15.2,12.79-9.08-1.02-12.33-7.88-12.33-16.04,0-6.67,2.13-10.57,9.46-13.44,6.03-2.32,14.65-5.01,18.08-6.95v23.64Z"></path><path class="cls-1" d="m362.81,203.37c-4.54.09-6.03-2.22-6.03-6.03v-95.67l-28.18,1.89v2.6l11.22.52v37.82c-3.43-5.56-10.01-9.55-16.87-9.92-12.42-.56-22.34,3.89-28.83,9.92-6.95,6.21-11.12,15.67-11.12,28.09,0,20.67,10.94,35.23,32.07,35.23,8.07,0,17.24-2.87,24.66-9.64v7.79h25.21v-2.69h-2.13v.09Zm-22.99-17.98c0,2.87,0,5.1-1.11,7.51-2.97,6.95-9.46,8.99-17.06,8.99-14.09,0-17.89-15.11-17.89-31.52,0-18.26,4.17-30.96,19.19-30.96,7.23,0,12.98,3.62,15.67,9.36,1.21,2.22,1.3,5.38,1.3,9.08v27.53h-.09Z"></path></g><path class="cls-1" d="m134.95,277.71v-1.55h4.8v-49.22h-4.8v-1.6h.43c8.47,0,16.94-.05,25.41,0,6.37.05,12.25,1.5,17.37,4.9,3.29,2.15,5.77,4.95,7.55,8.15,1.67,2.95,2.7,6.05,3.24,9.3,1.02,5.95-.22,11.66-3.18,17.11-2.54,4.55-6.37,8.05-11.65,10.31-2.75,1.2-5.72,1.95-8.79,2.35-2,.25-3.94.35-5.93.35h-23.9c-.16-.1-.32-.1-.54-.1Zm16.45-1.6h9.82c2.54-.35,4.8-1.25,6.74-2.75,2.37-1.8,4.05-4.05,5.29-6.5,2.48-4.85,3.56-9.95,3.83-15.21.11-2.35-.11-4.7-.49-7.05-.54-3.2-1.46-6.35-3.13-9.3-1.24-2.25-2.86-4.3-5.18-5.85-2.43-1.65-5.18-2.5-8.25-2.5h-8.69c.05,16.41.05,32.82.05,49.17Z"></path><path class="cls-1" d="m352.11,241.69v23.96c.05,7.24,3.23,9.54,6.36,9.54,2.16,0,3.8-.62,5.95-1.39l.51,1.49c-3.34,1.85-6.88,3.59-11.65,3.59-3.44,0-11.9-1.23-11.9-9.49v-27.71h-6.77v-2.72h7.85l7.39-11.49h2.26v11.49h11.85v2.72s-11.85,0-11.85,0Z"></path><path class="cls-1" d="m329.16,250.36c0-4.98-3.44-10.93-10.78-10.93-4.21,0-8.57,2.41-7.95,8.16.41,3.69,6.21,5.03,9.44,6.06,9.29,2.92,13.03,6.47,13.03,13.39s-5.75,11.75-15.96,11.75c-5.03,0-10.57-.97-13.96-4.11l-1.18-10.01h.97c1.49,8.93,5.34,12.42,14.57,12.62,5.9.15,7.65-3.18,7.59-7.39-.05-4.16-4.46-5.95-9.8-7.7-7.59-2.36-12.26-5.23-12.26-12.52s6.41-11.96,15.91-11.96c3.64,0,8.21,1.39,11.19,3.13v9.49s-.82,0-.82,0Z"></path><path class="cls-1" d="m270.32,257.24h26.63s.46-3.23-.36-7.08c-.46-2.21-1.33-4.72-3.13-6.93l-.05-.05c-2.62-3.23-7.18-5.8-14.88-5.8-13.96,0-21.24,9.03-21.24,21.19s6.41,20.63,21.35,20.63c9.9,0,15.14-4.67,17.75-11.19l-1.33-.51c-3.49,6.93-7.8,9.65-14.68,9.6-10.11-.05-11.9-9.49-12.01-17.6v-.26c0-1.28.82-2,1.95-2m7.8-18.22c10.93-.05,10.52,13.96,10.52,14.01,0,2.05-1.95,1.85-1.95,1.85h-16.27s-1.9.1-1.9-1.95v-.1c.15-4.77,1.39-13.75,9.6-13.8"></path><path class="cls-1" d="m202.57,233.94c3.49,0,5.75-2.1,5.75-5.03.1-2.98-2.31-5.29-5.64-5.29h-.1c-3.49,0-5.75,2.26-5.75,5.29s2.31,5.03,5.75,5.03"></path><path class="cls-1" d="m209.76,276.22c-.56-.05-1.9-.41-1.95-2.21v-34.79l-15.24,2.57,1.49,1.69s2.46-.31,2.67-.26v30.69c0,1.9-1.39,2.26-1.95,2.31h-2.67v1.85h21.3v-1.85h-3.64Z"></path><path class="cls-1" d="m247.59,237.53c2.77,0,2.67,2,5.18,3.13,3.34,1.28,6.06-.97,6.06-3.54,0-2.41-1.64-4.21-5.08-4.21-3.13,0-6.98,1.69-11.14,6.77-.05,0-.1-.05-.15-.05-2.41-.87-5.49-1.44-8.11-1.44-12.67,0-17.91,5.03-17.81,13.39.1,10.62,10.11,12.26,10.11,12.26-4.77.62-8.57,3.44-8.57,6.67,0,4.72,6.21,6.88,9.8,7.13v.15c-3.44.31-11.08.51-11.6,8.67-.51,8,8.11,12.57,17.65,12.67,15.7.1,21.86-6.88,21.86-15.96s-7.54-11.85-16.11-11.85h-7.39c-5.64,0-7.39-1.9-7.39-3.28,0-2.31,2.51-3.28,3.64-3.64,1.54.15,4.41.26,5.29.26,7.7,0,17.09-3.13,17.09-13.14,0-1.69-.41-3.64-1.23-5.39-.15-.26-.26-.51-.41-.77v-.1c-.31-.46-.62-.92-.97-1.33l-.05-.05c-.15-.21-.31-.36-.46-.51-.31-.31-.87-.87-1.49-1.44-.87-.67-1.59-1.13-2.26-1.49,1.18-1.9,2.67-2.92,3.54-2.92m-12.78,40.85c8.06,0,12.42,1.8,12.16,7.75-.36,7.59-5.8,9.95-11.08,9.95h-.1c-7.29,0-11.7-3.85-11.85-10.42-.05-2.26.87-4.21,2.57-5.44,1.64-1.23,3.49-1.85,8.31-1.85m-.51-15.91c-4.82.05-7.49-3.9-7.8-10.78-.26-7.03,3.59-10.62,7.44-10.62h.1c3.49,0,7.44,2.36,7.29,10.62-.1,6.62-2.1,10.72-7.03,10.78"></path><path class="cls-1" d="m210.43,246.72c.1-.21.21-.41.31-.62-.1.1-.21.31-.31.62Z"></path></svg> 