<?xml version="1.0" encoding="UTF-8"?> <svg xmlns="http://www.w3.org/2000/svg" id="Layer_1" width="600" height="400" viewBox="0 0 600 400"><defs><style>.cls-1{fill:#fff;}</style></defs><path class="cls-1" d="m109.66,130.13v39.69h-5.43c-.48-4.19-1.57-8.26-3.28-12.21-1.71-3.95-3.98-7.47-6.78-10.57-2.81-3.09-6.19-5.59-10.14-7.5-3.95-1.9-8.45-2.86-13.49-2.86v41.69c3.05,0,5.69-.57,7.92-1.71,2.24-1.14,4.09-2.66,5.57-4.57,1.47-1.9,2.62-4.14,3.43-6.71.81-2.57,1.31-5.28,1.5-8.14h4v51.83h-4c-.38-4.57-1.24-8.4-2.57-11.49-1.33-3.09-2.9-5.61-4.71-7.57-1.81-1.95-3.71-3.43-5.71-4.43s-3.81-1.64-5.43-1.93v34.98c0,2.28.36,4.19,1.07,5.71.71,1.52,1.62,2.76,2.71,3.71,1.09.95,2.28,1.64,3.57,2.07,1.28.43,2.45.64,3.5.64v3.14H25v-3.14c1.05,0,2.19-.24,3.43-.71,1.24-.48,2.4-1.21,3.5-2.21,1.09-1,2-2.28,2.71-3.85.71-1.57,1.07-3.5,1.07-5.78v-72.67c0-2.28-.36-4.19-1.07-5.71-.71-1.52-1.62-2.74-2.71-3.64-1.1-.9-2.26-1.59-3.5-2.07-1.24-.48-2.38-.76-3.43-.86v-3.14h84.66Z"></path><g><path class="cls-1" d="m154.98,221.12c0,2.29.18,4.14.55,5.56.36,1.42.89,2.54,1.58,3.36.69.82,1.53,1.4,2.54,1.72,1.01.32,2.15.48,3.43.48v3.02h-46.15v-3.02c1.19,0,2.29-.16,3.3-.48,1.01-.32,1.85-.89,2.54-1.72.69-.82,1.21-1.94,1.58-3.36.36-1.42.55-3.27.55-5.56v-39.15c0-2.01-.05-3.71-.14-5.08-.09-1.37-.39-2.52-.89-3.43-.5-.91-1.28-1.62-2.34-2.13-1.05-.5-2.54-.89-4.46-1.17v-3.02h37.91v53.98Z"></path><path class="cls-1" d="m206.07,167.13v8.79c2.11-3.48,4.72-6.2,7.83-8.17,3.11-1.97,6.91-2.95,11.4-2.95,7.69-.09,13.23,1.97,16.62,6.18,3.39,4.21,5.08,10.39,5.08,18.54v33.38c0,.82.14,1.76.41,2.82.27,1.05.69,2.06,1.24,3.02.55.96,1.31,1.76,2.27,2.4.96.64,2.13,1.01,3.5,1.1v3.02h-39.56v-3.02c.91-.09,1.56-.62,1.92-1.58.36-.96.55-3.14.55-6.52v-37.09c0-2.75-.6-4.76-1.79-6.04-1.19-1.28-2.47-1.85-3.85-1.72-1.37.14-2.66.96-3.85,2.47-1.19,1.51-1.79,3.73-1.79,6.66v34.89c0,3.02.25,5.15.76,6.39.5,1.24,1.53,2.08,3.09,2.54v3.02h-41.35v-3.02c3.11-.09,5.2-1.03,6.25-2.82,1.05-1.79,1.58-4.42,1.58-7.9v-39.56c0-2.38-.16-4.33-.48-5.84-.32-1.51-.8-2.68-1.44-3.5-.64-.82-1.47-1.42-2.47-1.79-1.01-.36-2.15-.59-3.43-.69v-3.02h37.5Z"></path><path class="cls-1" d="m298.1,179.5c0-3.02-.57-5.13-1.72-6.32-1.15-1.19-3.23-1.88-6.25-2.06-1.56,0-3.14.09-4.74.27-1.6.18-2.68.6-3.23,1.24,1.83,1.92,2.97,4.05,3.43,6.39.46,2.34.3,4.51-.48,6.52-.78,2.02-2.18,3.71-4.19,5.08-2.02,1.37-4.58,2.06-7.69,2.06s-5.66-1.01-7.9-3.02c-2.24-2.01-3.28-4.85-3.09-8.52.09-3.48,1.28-6.29,3.57-8.45,2.29-2.15,5.01-3.8,8.17-4.95,3.16-1.14,6.41-1.92,9.75-2.34,3.34-.41,6.11-.62,8.31-.62,3.39,0,7.1.3,11.13.89,4.03.6,7.81,1.72,11.33,3.37,3.52,1.65,6.46,3.96,8.79,6.94,2.33,2.98,3.5,6.89,3.5,11.74v32c0,1.83.34,3.11,1.03,3.85.69.73,1.46,1.08,2.34,1.03.87-.05,1.67-.46,2.4-1.24.73-.78,1.14-1.81,1.24-3.09h2.75c0,2.93-.5,5.47-1.51,7.62-1.01,2.15-2.38,3.96-4.12,5.43-1.74,1.47-3.8,2.54-6.18,3.23-2.38.69-4.9,1.03-7.55,1.03-3.85,0-7.17-.73-9.96-2.2-2.8-1.46-4.97-3.8-6.52-7-3.11,3.21-6.55,5.56-10.3,7.07-3.76,1.51-8.24,2.22-13.46,2.13-2.56,0-5.04-.41-7.42-1.24-2.38-.82-4.49-2.04-6.32-3.64-1.83-1.6-3.3-3.55-4.4-5.84-1.1-2.29-1.65-4.95-1.65-7.97,0-5.31,1.35-9.52,4.05-12.64,2.7-3.11,6.07-5.52,10.1-7.21,4.03-1.69,8.45-2.79,13.26-3.3,4.81-.5,9.32-.8,13.53-.89v-15.38Zm-4.95,21.43c-.64,0-1.33.05-2.06.14-.73.09-1.4.32-1.99.69-.6.37-1.1.85-1.51,1.44-.41.6-.62,1.44-.62,2.54v16.76c0,1.47.57,2.5,1.72,3.09,1.14.6,2.08.85,2.82.76,1.56-.18,3.04-.87,4.46-2.06,1.42-1.19,2.13-3.16,2.13-5.91v-17.44h-4.95Z"></path><path class="cls-1" d="m373.79,167.13v8.79c2.11-3.48,4.72-6.2,7.83-8.17,3.11-1.97,6.91-2.95,11.4-2.95,7.69-.09,13.23,1.97,16.62,6.18,3.39,4.21,5.08,10.39,5.08,18.54v33.38c0,.82.14,1.76.41,2.82.27,1.05.69,2.06,1.24,3.02.55.96,1.3,1.76,2.27,2.4.96.64,2.13,1.01,3.5,1.1v3.02h-39.56v-3.02c.91-.09,1.56-.62,1.92-1.58.36-.96.55-3.14.55-6.52v-37.09c0-2.75-.6-4.76-1.79-6.04-1.19-1.28-2.47-1.85-3.85-1.72-1.37.14-2.66.96-3.85,2.47-1.19,1.51-1.79,3.73-1.79,6.66v34.89c0,3.02.25,5.15.76,6.39.5,1.24,1.53,2.08,3.09,2.54v3.02h-41.34v-3.02c3.11-.09,5.2-1.03,6.25-2.82,1.05-1.79,1.58-4.42,1.58-7.9v-39.56c0-2.38-.16-4.33-.48-5.84-.32-1.51-.8-2.68-1.44-3.5-.64-.82-1.47-1.42-2.47-1.79-1.01-.36-2.15-.59-3.43-.69v-3.02h37.5Z"></path><path class="cls-1" d="m494.8,214.66c-3.85,7.51-8.54,13.19-14.08,17.03-5.54,3.85-12.66,5.81-21.36,5.91-5.22,0-10.12-.82-14.7-2.47-4.58-1.65-8.58-4.03-12.02-7.14-3.43-3.11-6.16-6.91-8.17-11.4-2.02-4.49-3.02-9.48-3.02-14.97s1.03-10.48,3.09-14.97c2.06-4.49,4.88-8.36,8.45-11.61,3.57-3.25,7.74-5.77,12.5-7.56,4.76-1.79,9.84-2.68,15.25-2.68,2.11,0,4.35.07,6.73.21,2.38.14,4.85.53,7.42,1.17,2.47.64,4.83,1.51,7.07,2.61,2.24,1.1,4.21,2.4,5.91,3.91,1.69,1.51,3.04,3.27,4.05,5.29,1.01,2.02,1.51,4.26,1.51,6.73,0,2.02-.37,3.78-1.1,5.29-.73,1.51-1.72,2.79-2.95,3.85-1.24,1.05-2.63,1.83-4.19,2.34-1.56.5-3.16.76-4.81.76-2.38,0-4.58-.59-6.59-1.79-2.02-1.19-3.48-2.84-4.4-4.95-.55-1.19-.87-2.45-.96-3.78-.09-1.33.05-2.65.41-3.98.36-1.33.94-2.54,1.72-3.64.78-1.1,1.76-2.01,2.95-2.75-.18-1.46-1.12-2.61-2.82-3.43-1.7-.82-3.55-1.33-5.56-1.51-2.02-.18-3.85-.05-5.49.41-1.65.46-2.47,1.24-2.47,2.34v48.35c0,.82.3,1.56.89,2.2.59.64,1.33,1.17,2.2,1.58.87.41,1.83.73,2.88.96,1.05.23,2.08.34,3.09.34,3.66,0,7.03-.69,10.1-2.06,3.07-1.37,5.7-2.95,7.9-4.74,2.2-1.79,3.96-3.48,5.29-5.08,1.33-1.6,2.13-2.68,2.4-3.23l2.88,2.47Z"></path><path class="cls-1" d="m533.81,203.26v18.27c0,1.01.3,1.85.89,2.54.59.69,1.33,1.26,2.2,1.72.87.46,1.85.8,2.95,1.03,1.1.23,2.2.39,3.3.48,5.22.37,10.19-.85,14.9-3.64,4.72-2.79,9-6.52,12.84-11.19l3.16,2.2c-3.85,7.42-8.65,13.1-14.42,17.03-5.77,3.94-12.5,5.91-20.19,5.91-5.49,0-10.65-.78-15.45-2.34s-8.98-3.85-12.5-6.87c-3.53-3.02-6.32-6.78-8.38-11.26-2.06-4.49-3.09-9.71-3.09-15.66,0-5.49,1.03-10.48,3.09-14.97,2.06-4.49,4.83-8.36,8.31-11.61,3.48-3.25,7.58-5.75,12.29-7.49,4.72-1.74,9.73-2.61,15.04-2.61s10.42.96,14.77,2.88c4.35,1.92,8.06,4.6,11.13,8.04,3.07,3.43,5.4,7.49,7,12.16,1.6,4.67,2.4,9.8,2.4,15.38h-40.25Zm11.13-6.32v-22.66c0-1.1-.6-1.9-1.79-2.4-1.19-.5-2.43-.76-3.71-.76s-2.54.25-3.78.76c-1.24.5-1.85,1.3-1.85,2.4v22.66h11.13Z"></path></g><path class="cls-1" d="m138.77,130.13c2.11,0,4.14.27,6.11.82,1.97.55,3.73,1.42,5.29,2.61,1.56,1.19,2.82,2.7,3.78,4.53.96,1.83,1.44,4.03,1.44,6.59s-.48,4.58-1.44,6.32c-.96,1.74-2.22,3.16-3.78,4.26-1.56,1.1-3.32,1.92-5.29,2.47-1.97.55-3.91.82-5.84.82s-3.96-.27-5.84-.82c-1.88-.55-3.57-1.42-5.08-2.61-1.51-1.19-2.73-2.66-3.64-4.4-.92-1.74-1.37-3.85-1.37-6.32s.46-4.6,1.37-6.39c.91-1.79,2.11-3.25,3.57-4.4,1.46-1.14,3.14-2.01,5.01-2.61,1.88-.59,3.78-.89,5.7-.89Z"></path><g><path class="cls-1" d="m172.8,153.83c-1.5-.87-2.66-2.11-3.48-3.73-.81-1.62-1.22-3.56-1.22-5.83h0c0-2.25.4-4.17,1.21-5.76.81-1.6,1.96-2.82,3.46-3.68,1.49-.86,3.26-1.29,5.29-1.29,1.68,0,3.16.3,4.44.9,1.28.6,2.33,1.41,3.13,2.44.8,1.03,1.32,2.2,1.55,3.51l.04.22h-4.4l-.04-.16c-.35-1-.93-1.79-1.74-2.35-.81-.56-1.8-.85-2.98-.85s-2.13.27-2.96.82c-.82.55-1.46,1.34-1.89,2.39-.44,1.04-.66,2.3-.66,3.77h0c0,1.51.23,2.79.69,3.87.46,1.08,1.12,1.9,1.97,2.47s1.85.86,3.01.86c.94,0,1.78-.18,2.5-.53.72-.35,1.3-.85,1.72-1.49.42-.64.65-1.39.68-2.25v-.29s-4.74,0-4.74,0v-3.27h9.02v2.4c0,1.9-.37,3.53-1.11,4.89-.74,1.36-1.8,2.4-3.17,3.14s-3.04,1.1-4.97,1.1c-2.07,0-3.86-.43-5.36-1.3Z"></path><path class="cls-1" d="m191.78,133.91h4.37v17.26h9.12v3.6h-13.49v-20.86Z"></path><path class="cls-1" d="m213.4,153.82c-1.51-.87-2.67-2.12-3.49-3.73-.82-1.61-1.23-3.53-1.23-5.75v-.03c0-2.22.41-4.13,1.24-5.74.82-1.61,1.99-2.85,3.5-3.72,1.51-.87,3.29-1.31,5.34-1.31s3.85.44,5.35,1.32,2.67,2.12,3.48,3.72c.82,1.6,1.23,3.52,1.23,5.73v.03c0,2.22-.41,4.13-1.23,5.74-.82,1.61-1.98,2.85-3.48,3.73-1.5.88-3.28,1.32-5.36,1.32s-3.85-.44-5.36-1.31Zm8.34-3.27c.83-.58,1.48-1.4,1.93-2.47.45-1.06.68-2.31.68-3.75v-.03c0-1.45-.23-2.7-.69-3.76-.46-1.06-1.11-1.88-1.94-2.45-.84-.57-1.83-.86-2.96-.86s-2.13.29-2.97.86c-.84.57-1.49,1.39-1.95,2.44-.46,1.06-.69,2.31-.69,3.77v.03c0,1.45.23,2.7.69,3.76.46,1.06,1.11,1.88,1.95,2.46.84.58,1.83.87,2.98.87s2.15-.29,2.99-.87Z"></path><path class="cls-1" d="m233.1,133.91h4.37v20.86h-4.37v-20.86Zm2.18,17.61h5.94c1.24,0,2.2-.25,2.86-.76.67-.51,1-1.24,1-2.21v-.03c0-.64-.15-1.17-.46-1.61-.3-.44-.76-.77-1.36-.99s-1.35-.33-2.23-.33h-5.75v-2.96h5.23c1.23,0,2.17-.25,2.81-.74.64-.49.96-1.19.96-2.1v-.03c0-.83-.28-1.47-.85-1.92-.57-.45-1.36-.68-2.39-.68h-5.77v-3.25h6.9c1.32,0,2.46.21,3.41.64s1.69,1.03,2.21,1.81c.52.79.78,1.71.78,2.78v.03c0,.77-.18,1.48-.53,2.13-.35.65-.83,1.19-1.44,1.62-.61.43-1.3.7-2.07.8v.09c.97.06,1.84.31,2.59.76.75.45,1.34,1.04,1.77,1.76.43.73.64,1.55.64,2.47v.03c0,1.21-.29,2.27-.87,3.15-.58.89-1.41,1.57-2.49,2.06-1.08.49-2.36.73-3.85.73h-7.06v-3.25Z"></path><path class="cls-1" d="m259.47,133.91h3.86v4.05h-1.33l-5.22,16.82h-4.58l7.27-20.86Zm-2.28,12.54h9.73l1.07,3.27h-11.87l1.07-3.27Zm4.9-8.49v-4.05h2.53l7.27,20.86h-4.6l-5.21-16.82Z"></path><path class="cls-1" d="m275.51,133.91h4.37v17.26h9.12v3.6h-13.49v-20.86Z"></path><path class="cls-1" d="m300.4,133.91h4.37v20.86h-4.37v-20.86Zm2.18,17.61h5.94c1.24,0,2.2-.25,2.86-.76.67-.51,1-1.24,1-2.21v-.03c0-.64-.15-1.17-.46-1.61-.3-.44-.76-.77-1.36-.99s-1.35-.33-2.23-.33h-5.75v-2.96h5.23c1.23,0,2.17-.25,2.81-.74.64-.49.96-1.19.96-2.1v-.03c0-.83-.28-1.47-.85-1.92-.57-.45-1.36-.68-2.39-.68h-5.77v-3.25h6.9c1.32,0,2.46.21,3.41.64.96.42,1.69,1.03,2.21,1.81.52.79.78,1.71.78,2.78v.03c0,.77-.18,1.48-.53,2.13-.35.65-.83,1.19-1.44,1.62-.61.43-1.3.7-2.07.8v.09c.97.06,1.84.31,2.59.76.75.45,1.34,1.04,1.77,1.76.43.73.64,1.55.64,2.47v.03c0,1.21-.29,2.27-.88,3.15-.58.89-1.41,1.57-2.49,2.06-1.08.49-2.36.73-3.85.73h-7.06v-3.25Z"></path><path class="cls-1" d="m326.77,133.91h3.86v4.05h-1.33l-5.22,16.82h-4.58l7.27-20.86Zm-2.28,12.54h9.73l1.07,3.27h-11.87l1.07-3.27Zm4.9-8.49v-4.05h2.53l7.27,20.86h-4.6l-5.21-16.82Z"></path><path class="cls-1" d="m342.81,133.91h3.82l11.34,16.32-3.66-2.76h1.84v-13.56h4.35v20.86h-3.79l-11.36-16.41,3.66,2.76h-1.84v13.65h-4.35v-20.86Z"></path><path class="cls-1" d="m365.44,133.91h4.37v20.86h-4.37v-20.86Zm4.19,9.54h.27l7.65-9.54h4.86l-7.66,9.44h-.85l-4.27,5.26v-5.16Zm1.4,1.45l3.15-2.88,8.76,12.75h-5.23l-6.68-9.88Z"></path><path class="cls-1" d="m386.27,133.91h4.37v20.86h-4.37v-20.86Z"></path><path class="cls-1" d="m395.58,133.91h3.82l11.34,16.32-3.66-2.76h1.84v-13.56h4.35v20.86h-3.79l-11.36-16.41,3.66,2.76h-1.84v13.65h-4.35v-20.86Z"></path><path class="cls-1" d="m422.25,153.83c-1.5-.87-2.66-2.11-3.48-3.73-.81-1.62-1.22-3.56-1.22-5.83h0c0-2.25.4-4.17,1.21-5.76.81-1.6,1.96-2.82,3.46-3.68,1.49-.86,3.26-1.29,5.29-1.29,1.68,0,3.16.3,4.44.9,1.28.6,2.33,1.41,3.13,2.44.8,1.03,1.32,2.2,1.55,3.51l.04.22h-4.4l-.04-.16c-.35-1-.93-1.79-1.73-2.35s-1.8-.85-2.98-.85-2.13.27-2.96.82c-.82.55-1.46,1.34-1.89,2.39-.44,1.04-.66,2.3-.66,3.77h0c0,1.51.23,2.79.69,3.87.46,1.08,1.12,1.9,1.97,2.47.85.57,1.85.86,3.01.86.94,0,1.78-.18,2.5-.53.72-.35,1.3-.85,1.72-1.49.42-.64.65-1.39.68-2.25v-.29s-4.74,0-4.74,0v-3.27h9.02v2.4c0,1.9-.37,3.53-1.11,4.89-.74,1.36-1.8,2.4-3.17,3.14s-3.04,1.1-4.97,1.1c-2.07,0-3.86-.43-5.36-1.3Z"></path><path class="cls-1" d="m451.23,154.42c-1.09-.48-1.94-1.16-2.54-2.03-.6-.87-.9-1.89-.9-3.06h0c0-1.19.32-2.24.96-3.16.64-.92,1.65-1.76,3.03-2.51l2.1-1.13,2.11,2.13-1.88,1.07c-.86.48-1.47.99-1.82,1.51s-.53,1.1-.53,1.71h0c0,.64.16,1.19.47,1.65.31.46.75.82,1.32,1.08.57.26,1.22.39,1.97.39s1.4-.11,2.02-.32c.63-.21,1.2-.5,1.71-.87.51-.37.95-.79,1.32-1.27.55-.71.96-1.55,1.24-2.52s.42-2.09.42-3.36v-.67h3.53v.84c0,1.74-.24,3.27-.73,4.62s-1.2,2.51-2.13,3.49c-.92.97-2.03,1.74-3.34,2.29s-2.8.83-4.47.83c-1.48,0-2.76-.24-3.85-.72Zm2.06-10.37c-.82-.89-1.47-1.65-1.94-2.28-.48-.63-.82-1.2-1.02-1.71-.2-.51-.3-1.03-.3-1.55h0c0-.95.26-1.78.77-2.52.51-.73,1.21-1.31,2.11-1.73.9-.42,1.92-.63,3.07-.63s2.13.2,2.99.6c.87.4,1.55.96,2.05,1.68.5.72.74,1.55.74,2.49h0c0,1.18-.43,2.25-1.3,3.22-.87.97-2.27,1.92-4.22,2.85l-1.97-1.97c1.38-.63,2.39-1.24,3.02-1.83.64-.59.95-1.26.95-2.02h0c0-.45-.1-.83-.3-1.17-.2-.34-.47-.6-.8-.79s-.73-.28-1.19-.28-.83.1-1.18.29c-.35.19-.63.46-.83.8-.2.34-.3.72-.3,1.16h0c0,.37.09.72.27,1.07s.46.74.85,1.19c.39.44.88.99,1.49,1.65l11.57,12.12v.07h-4.66l-9.86-10.71Z"></path></g><g><path class="cls-1" d="m403.47,267.92c.47-.03.88-.12,1.25-.25.37-.13.67-.36.9-.68.23-.32.41-.74.53-1.28.12-.53.18-1.22.18-2.05v-13.76c0-.73-.02-1.38-.07-1.93s-.17-1.01-.35-1.38c-.18-.37-.47-.66-.85-.88-.38-.22-.91-.36-1.58-.43v-1.1h13.86v4.4c.33-.67.72-1.31,1.15-1.93.43-.62.94-1.16,1.53-1.63.58-.47,1.23-.84,1.93-1.13.7-.28,1.48-.43,2.35-.43,1.7,0,3.08.51,4.13,1.53,1.05,1.02,1.54,2.53,1.48,4.53-.03,1.5-.5,2.7-1.4,3.6-.9.9-2.15,1.35-3.75,1.35-.73,0-1.38-.12-1.95-.38-.57-.25-1.04-.59-1.43-1.03-.38-.43-.68-.94-.88-1.53-.2-.58-.28-1.19-.25-1.83.03-.23-.05-.35-.25-.35-.33,0-.64.12-.93.38-.28.25-.54.56-.78.93-.23.37-.43.78-.6,1.25-.17.47-.28.9-.35,1.3v9.41c0,.87.03,1.62.1,2.25.07.63.21,1.17.43,1.6.22.43.52.77.9,1,.38.23.89.37,1.53.4v1.1h-16.81v-1.1Z"></path><path class="cls-1" d="m442.9,257.36v6.66c0,.37.11.68.33.93.22.25.48.46.8.63.32.17.68.29,1.08.38.4.08.8.14,1.2.18,1.9.13,3.71-.31,5.43-1.33,1.72-1.02,3.28-2.38,4.68-4.08l1.15.8c-1.4,2.7-3.15,4.77-5.25,6.2-2.1,1.43-4.55,2.15-7.36,2.15-2,0-3.88-.28-5.63-.85-1.75-.57-3.27-1.4-4.55-2.5-1.28-1.1-2.3-2.47-3.05-4.1-.75-1.63-1.13-3.54-1.13-5.7,0-2,.38-3.82,1.13-5.45s1.76-3.04,3.03-4.23c1.27-1.18,2.76-2.09,4.48-2.73,1.72-.63,3.54-.95,5.48-.95s3.79.35,5.38,1.05c1.58.7,2.94,1.68,4.05,2.93,1.12,1.25,1.97,2.73,2.55,4.43.58,1.7.88,3.57.88,5.6h-14.66Zm4.05-2.3v-8.26c0-.4-.22-.69-.65-.88-.43-.18-.88-.27-1.35-.27s-.93.09-1.38.27c-.45.18-.68.48-.68.88v8.26h4.05Z"></path><path class="cls-1" d="m456.31,244.2h16.86v1.1c-1.2.03-1.92.36-2.15.98-.23.62-.2,1.36.1,2.23l4.15,11.71,3.35-9.86c.37-1.2.51-2.13.43-2.8-.08-.67-.28-1.17-.58-1.5-.3-.33-.67-.54-1.1-.63-.43-.08-.8-.13-1.1-.13v-1.1h9.96v1.1c-.87.1-1.55.41-2.05.93-.5.52-.88,1.16-1.15,1.93l-7.31,20.87h-8.41l-7.06-18.71c-.57-1.6-1.12-2.82-1.65-3.65-.53-.83-1.3-1.28-2.3-1.35v-1.1Z"></path><path class="cls-1" d="m501.85,263.87c0,.83.07,1.51.2,2.03.13.52.33.93.58,1.23.25.3.56.51.93.63.37.12.78.18,1.25.18v1.1h-16.81v-1.1c.43,0,.83-.06,1.2-.18.37-.12.68-.33.93-.63.25-.3.44-.71.58-1.23.13-.52.2-1.19.2-2.03v-14.26c0-.73-.02-1.35-.05-1.85-.03-.5-.14-.92-.33-1.25-.18-.33-.47-.59-.85-.78-.38-.18-.93-.33-1.63-.43v-1.1h13.81v19.67Zm-5.9-31.77c.77,0,1.51.1,2.23.3.72.2,1.36.52,1.93.95.57.43,1.03.98,1.38,1.65.35.67.53,1.47.53,2.4s-.18,1.67-.53,2.3c-.35.63-.81,1.15-1.38,1.55-.57.4-1.21.7-1.93.9-.72.2-1.43.3-2.13.3s-1.44-.1-2.13-.3c-.68-.2-1.3-.52-1.85-.95-.55-.43-.99-.97-1.33-1.6-.33-.63-.5-1.4-.5-2.3s.17-1.68.5-2.33c.33-.65.77-1.18,1.3-1.6.53-.42,1.14-.73,1.83-.95.68-.22,1.38-.33,2.08-.33Z"></path><path class="cls-1" d="m516.76,257.36v6.66c0,.37.11.68.33.93.22.25.48.46.8.63.32.17.68.29,1.08.38.4.08.8.14,1.2.18,1.9.13,3.71-.31,5.43-1.33,1.72-1.02,3.28-2.38,4.68-4.08l1.15.8c-1.4,2.7-3.15,4.77-5.25,6.2-2.1,1.43-4.55,2.15-7.36,2.15-2,0-3.88-.28-5.63-.85-1.75-.57-3.27-1.4-4.55-2.5-1.28-1.1-2.3-2.47-3.05-4.1-.75-1.63-1.13-3.54-1.13-5.7,0-2,.38-3.82,1.13-5.45s1.76-3.04,3.03-4.23c1.27-1.18,2.76-2.09,4.48-2.73,1.72-.63,3.54-.95,5.48-.95s3.79.35,5.38,1.05c1.58.7,2.94,1.68,4.05,2.93,1.12,1.25,1.97,2.73,2.55,4.43.58,1.7.88,3.57.88,5.6h-14.66Zm4.05-2.3v-8.26c0-.4-.22-.69-.65-.88-.43-.18-.88-.27-1.35-.27s-.93.09-1.38.27c-.45.18-.68.48-.68.88v8.26h4.05Z"></path><path class="cls-1" d="m562.14,244.2v1.1c-1.2.03-1.92.36-2.15.98-.23.62-.22,1.36.05,2.23l3.85,11.41,3.6-9.56c.47-1.17.67-2.09.6-2.78-.07-.68-.26-1.19-.58-1.53-.32-.33-.69-.54-1.13-.63-.43-.08-.8-.13-1.1-.13v-1.1h9.71v1.1c-.8.1-1.47.41-2,.93-.53.52-.93,1.16-1.2,1.93l-7.56,20.87h-8.21l-3.75-11.51-3.85,11.51h-8.41l-6.91-18.71c-.57-1.57-1.1-2.78-1.6-3.63-.5-.85-1.27-1.31-2.3-1.38v-1.1h15.11v1.1c-.5.03-.73.36-.7.98.03.62.18,1.36.45,2.23l3.5,11.36,3.3-10.66c.33-1,.29-1.9-.12-2.7-.42-.8-1.26-1.2-2.53-1.2v-1.1h13.91Z"></path></g></svg> 