<?xml version="1.0" encoding="UTF-8"?> <svg xmlns="http://www.w3.org/2000/svg" id="Layer_1" width="600" height="400" viewBox="0 0 600 400"><defs><style>.cls-1{fill:#fff;}</style></defs><g><path class="cls-1" d="m240.38,205.54c-1.12.41-2.44.71-3.66.71l10.52,14.02h-6.86l-12.4-17.43h-.1v17.43h-5.49v-37.6h11.63c3.56,0,7.37.56,10.01,3.15,2.39,2.29,3.45,5.64,3.45,8.89,0,5.08-2.24,9.09-7.11,10.82Zm-6.71-17.83h-5.79v14.38h3.76c4.88,0,10.36-1.37,10.36-7.37,0-4.78-3.96-7.01-8.33-7.01Z"></path><path class="cls-1" d="m262.74,220.28v-37.6h20.27v5.03h-14.78v11.08h14.78v5.03h-14.78v11.43h14.78v5.03h-20.27Z"></path><path class="cls-1" d="m308.52,220.99c-6.86,0-11.58-5.03-11.58-11.84h5.49c0,3.66,2.13,6.81,6.1,6.81s6.05-2.69,6.05-6.35c0-4.01-2.9-4.93-6.05-6.15-5.84-2.24-10.52-3.96-10.52-11.28,0-5.84,4.78-10.21,10.52-10.21,6.25,0,10.77,4.12,10.77,10.47h-5.49c0-3.25-2.03-5.44-5.28-5.44-2.74,0-5.03,2.39-5.03,5.13,0,7.98,16.56,3.2,16.56,17.48,0,6.76-4.83,11.38-11.53,11.38Z"></path><path class="cls-1" d="m344.59,187.71v32.57h-5.49v-32.57h-7.21v-5.03h19.92v5.03h-7.21Z"></path><path class="cls-1" d="m389.4,220.28l-4.16-11.08h-13.51l-4.17,11.08h-5.79l14.27-37.6h4.93l14.28,37.6h-5.84Zm-10.82-30.48h-.1l-4.83,14.38h9.7l-4.78-14.38Z"></path><path class="cls-1" d="m429.08,217.78c-2.39,2.13-5.59,3.2-8.79,3.2s-6.4-1.07-8.79-3.2c-2.79-2.49-3.81-5.99-3.81-9.65v-25.45h5.49v25.3c0,4.47,2.44,7.98,7.11,7.98s7.11-3.51,7.11-7.98v-25.3h5.49v25.45c0,3.66-1.02,7.16-3.81,9.65Z"></path><path class="cls-1" d="m468.1,205.54c-1.12.41-2.44.71-3.66.71l10.52,14.02h-6.86l-12.4-17.43h-.1v17.43h-5.49v-37.6h11.63c3.56,0,7.37.56,10.01,3.15,2.39,2.29,3.45,5.64,3.45,8.89,0,5.08-2.24,9.09-7.11,10.82Zm-6.7-17.83h-5.79v14.38h3.76c4.88,0,10.36-1.37,10.36-7.37,0-4.78-3.96-7.01-8.33-7.01Z"></path><path class="cls-1" d="m515.45,220.28l-4.16-11.08h-13.51l-4.16,11.08h-5.79l14.28-37.6h4.93l14.28,37.6h-5.85Zm-10.82-30.48h-.1l-4.83,14.38h9.7l-4.78-14.38Z"></path><path class="cls-1" d="m560.07,220.28l-18.59-29.06h-.1v29.06h-5.49v-37.6h6l18.29,28.6h.1v-28.6h5.49v37.6h-5.69Z"></path><path class="cls-1" d="m592.79,187.71v32.57h-5.49v-32.57h-7.22v-5.03h19.92v5.03h-7.21Z"></path></g><g><path class="cls-1" d="m532.26,245.69l-8.72-13.62h-.05v13.62h-2.57v-17.62h2.81l8.57,13.41h.05v-13.41h2.57v17.62h-2.67Z"></path><path class="cls-1" d="m543.03,245.69v-17.62h9.5v2.36h-6.93v5.19h6.93v2.36h-6.93v5.36h6.93v2.36h-9.5Z"></path><path class="cls-1" d="m574.89,245.69h-2.26l-3.19-12.31h-.05l-3.19,12.31h-2.26l-4.93-17.62h2.67l3.36,13.26h.05l3.4-13.26h1.88l3.36,13.17h.05l3.43-13.17h2.62l-4.93,17.62Z"></path><path class="cls-1" d="m590.83,246.02c-3.22,0-5.43-2.36-5.43-5.55h2.57c0,1.71,1,3.19,2.86,3.19,1.76,0,2.83-1.26,2.83-2.98,0-1.88-1.36-2.31-2.83-2.88-2.74-1.05-4.93-1.86-4.93-5.29,0-2.74,2.24-4.79,4.93-4.79,2.93,0,5.05,1.93,5.05,4.91h-2.57c0-1.52-.95-2.55-2.48-2.55-1.29,0-2.36,1.12-2.36,2.4,0,3.74,7.76,1.5,7.76,8.19,0,3.17-2.26,5.33-5.41,5.33Z"></path></g><g><g><path class="cls-1" d="m28.96,179.37h-8.69v21.57h5.64c7.32,0,15.55-2.06,15.55-11.05,0-7.17-5.94-10.52-12.5-10.52Z"></path><path class="cls-1" d="m58.59,168.15H2c-1.1,0-2,.9-2,2v59.36c0,1.1.9,2,2,2h56.59c1.1,0,2-.9,2-2v-59.36c0-1.1-.9-2-2-2Zm-9.29,60.08h-10.29l-18.6-26.14h-.15v26.14h-8.23v-56.4h17.45c5.34,0,11.05.84,15.01,4.73,3.58,3.43,5.18,8.46,5.18,13.34,0,7.62-3.35,13.64-10.67,16.23-1.68.61-3.66,1.07-5.49,1.07l15.78,21.04Z"></path></g><path class="cls-1" d="m130.14,168.15h-56.59c-1.1,0-2,.9-2,2v59.36c0,1.1.9,2,2,2h56.59c1.1,0,2-.9,2-2v-59.36c0-1.1-.9-2-2-2Zm-5.31,60.08h-8.54l-27.9-43.6h-.15v43.6h-8.23v-56.4h8.99l27.44,42.91h.15v-42.91h8.23v56.4Z"></path><g><path class="cls-1" d="m201.68,168.15h-56.59c-1.1,0-2,.9-2,2v59.36c0,1.1.9,2,2,2h56.59c1.1,0,2-.9,2-2v-59.36c0-1.1-.9-2-2-2Zm-9.86,60.08h-10.29l-18.6-26.14h-.15v26.14h-8.23v-56.4h17.45c5.34,0,11.05.84,15.02,4.73,3.58,3.43,5.18,8.46,5.18,13.34,0,7.62-3.35,13.64-10.67,16.23-1.68.61-3.66,1.07-5.49,1.07l15.78,21.04Z"></path><path class="cls-1" d="m171.47,179.37h-8.69v21.57h5.64c7.32,0,15.55-2.06,15.55-11.05,0-7.17-5.94-10.52-12.5-10.52Z"></path></g></g></svg> 