<?xml version="1.0" encoding="UTF-8"?> <svg xmlns="http://www.w3.org/2000/svg" id="Layer_1" width="600" height="400" viewBox="0 0 600 400"><defs><style>.cls-1{fill:#fff;}</style></defs><g><path class="cls-1" d="m50,175.84h16.72l27.2,50.35,26.51-50.35h16.72v11.28h-9.3l1.29,46.99h7.91v11.28h-27.4v-11.28h7.72l-.2-30.66-19.98,41.94h-7.22l-20.18-41.25-.2,29.97h7.81v11.28h-27.4v-11.28h7.91l1.38-46.99h-9.3v-11.28Zm7.02,71.32l8.8,5.84h-2.37l-8.9-5.84h2.47Zm5.34,0l8.9,5.84h-2.47l-8.8-5.84h2.37Zm5.44,0l8.8,5.84h-2.37l-8.9-5.84h2.47Zm10.19-63.9l.79,1.58-8.11-5.34-.79-1.58,8.11,5.34Zm-4.75,63.9l8.8,5.84h-2.47l-8.8-5.84h2.47Zm-1.78-29.68l4.15,2.77,1.19,2.47-5.44-3.56c0-.59.1-1.09.1-1.68Zm-.1,3.56l6.83,4.55,1.19,2.28-8.01-5.24v-1.58Zm9.79,11.57l-9.79-6.43v-1.58l9.4,6.23.4.69v1.09Zm-9.79-2.87v-1.58l6.33,4.15h-2.47l-3.86-2.57Zm0,1.98l.99.59h-.99v-.59Zm.1-17.71l1.68,1.09,1.09,2.27-2.77-1.78v-1.58Zm.89-31.46l8.11,5.34,1.29,2.47-8.11-5.34-1.29-2.47Zm2.97,5.44l8.11,5.34,1.29,2.47-8.11-5.34-1.29-2.47Zm3.26,59.15l8.9,5.84h-2.47l-8.8-5.84h2.37Zm-.3-53.61l8.11,5.34,1.38,2.57-8.11-5.34-1.39-2.57Zm.89,39.77l1.98,1.29v1.58l-1.98-1.29v-1.58Zm0,3.56l6.83,4.55,1.19,2.37-8.01-5.34v-1.58Zm9.79,11.57l-9.79-6.43v-1.58l9.4,6.13.3.59h.1v1.29Zm-9.79-4.45l9.79,6.43v1.58l-9.79-6.43v-1.58Zm2.08-44.91l8.11,5.34,1.29,2.47-8.01-5.34-1.39-2.47Zm2.97,5.54l8.01,5.34,1.29,2.37-7.91-5.24-1.38-2.47Zm12.07,13.16l-7.72-5.14-1.38-2.47,8.01,5.24,1.19,2.18-.1.2Zm-6.03-2.08l5.24,3.46-.59,1.19-3.26-2.18-1.39-2.47Zm2.97,31.46h1.58l8.8,5.84h-1.58l-8.8-5.84Zm13.45,5.84l-8.9-5.84h.49l.49-.99,10.09,6.63v.2h-2.18Zm-6.63-9.5l10.09,6.63-.59,1.19-10.09-6.63.59-1.19Zm1.29-2.67l6.53,4.25v1.58l-7.12-4.65.59-1.19Zm1.29-2.77l5.24,3.46v1.68l-5.84-3.86.59-1.29Zm1.29-2.67l3.96,2.57v1.58l-4.55-2.97.59-1.19Zm1.29-2.77l2.67,1.78v1.58l-3.26-2.08.59-1.29Zm2.67-.2l-1.98-1.29.59-1.19,3.56,2.37h-2.18v.1Zm-.1-5.14l7.72,5.04h-2.37l-5.94-3.86.59-1.19Zm1.29-2.77l6.53,4.25v1.68l-7.12-4.65.59-1.29Zm1.98,22.65l.4.2-.59,1.29-2.28-1.48h2.47Zm-.69-25.32l5.14,3.46c0,.49.1.99.1,1.58l-5.84-3.86.59-1.19Zm1.39-2.67l3.76,2.47v1.58l-4.35-2.87.59-1.19Zm1.29-2.77l2.37,1.58v1.68l-2.97-1.98.59-1.29Zm1.29-2.67l1.09.69v1.58l-1.68-1.09.59-1.19Zm2.08,33.43l8.9,5.84h-2.47l-8.9-5.84h2.47Zm5.44,0l8.8,5.84h-2.27l-8.9-5.84h2.37Zm5.34,0l8.9,5.84h-2.37l-8.9-5.84h2.37Zm3.46-58.26l8.9,5.84h-.1v1.58l-9.79-6.53v-.89h.99Zm-.99,2.97l9.89,6.43v1.68l-9.79-6.53c0-.49-.1-1.09-.1-1.58Zm.1,3.56l9.89,6.53v1.58l-9.79-6.43c0-.59-.1-1.09-.1-1.68Zm.1,3.66l9.89,6.53v1.58l-9.79-6.43c0-.59-.1-1.09-.1-1.68Zm.2,3.66l9.79,6.43v1.58l-9.79-6.43v-1.58Zm.1,3.66l9.79,6.43v1.58l-9.79-6.43v-1.58Zm.1,3.56l9.79,6.53v1.58l-9.69-6.43c0-.59-.1-1.09-.1-1.68Zm2.37,37.19l8.8,5.84h-2.37l-8.8-5.84h2.37Zm-2.28-33.53l9.79,6.43v1.68l-9.69-6.43c0-.59-.1-1.09-.1-1.68Zm.1,3.66l9.79,6.43v1.58l-9.69-6.43c0-.49-.1-.99-.1-1.58Zm.2,3.66l9.69,6.33v1.68l-9.69-6.43v-1.58Zm.1,3.66l9.69,6.33v1.58l-9.69-6.33v-1.58Zm.1,3.56l6.23,4.15h-2.37l-3.86-2.47v-1.68Zm.1,3.66l.79.5h-.79v-.5Zm5.14-42.93l8.8,5.84h-2.37l-8.8-5.84h2.37Zm1.88,58.26l8.9,5.84h-2.37l-8.8-5.84h2.28Zm.89-13.65l1.58,1.09.1,1.58-1.68-1.09v-1.58Zm0,3.46l9.79,6.53v1.58l-9.79-6.43v-1.68Zm0,3.66l9.79,6.43v1.48l-9.79-6.33v-1.58Zm0,3.46l9.79,6.43v1.58l-9.79-6.43v-1.58Zm9.89-59.15l-9.79-6.53v-1.39l9.79,6.53v1.39Zm-9.79-4.85l9.79,6.53v1.58l-9.79-6.53v-1.58Zm0,3.56l9.79,6.53v1.58l-9.79-6.53v-1.58Zm9,11.08l-9-5.94v-1.58l9.79,6.53v.99h-.79Z"></path><path class="cls-1" d="m153.46,234.1h7.52l26.12-58.26h5.74l26.12,58.26h7.52v11.28h-25.82v-11.28h5.34l-3.17-7.22h-26.21l-3.07,7.22h5.94v11.28h-26.02v-11.28Zm7.91,13.06l8.8,5.84h-2.47l-8.8-5.84h2.47Zm5.34,0l8.9,5.84h-2.47l-8.9-5.84h2.47Zm5.44,0l8.8,5.84h-2.37l-8.9-5.84h2.47Zm5.34,0l8.9,5.84h-2.47l-8.8-5.84h2.37Zm.1-17.81l9.99,6.63-.49,1.29-5.84-3.86v-1.09h-1.68l-2.67-1.68c.2-.49.49-.79.69-1.29Zm4.25-.69l8.9,5.84h-2.47l-8.8-5.84h2.37Zm7.52,24.33l-8.9-5.84h.79v-1.19l9.79,6.53v.49h-1.68Zm-8.51-35.91h17.81l-8.9-20.77-8.9,20.77Zm10.19,26.31l-9.79-6.43v-1.58l5.14,3.36-.1.39,4.75,3.17v1.09Zm-9.79-4.45l9.79,6.43v1.58l-9.79-6.43v-1.58Zm0,3.56l9.79,6.43v1.58l-9.79-6.43v-1.58Zm2.87-28.49l.59-1.29,3.96,2.57h-2.47l-2.08-1.29Zm3.17,14.64l8.8,5.84h-2.37l-8.9-5.84h2.47Zm-1.39-18.7l8.11,5.34h-2.47l-6.23-4.06.59-1.29Zm1.19-2.77l7.52,4.95.99,2.18-9.1-5.94.59-1.19Zm1.19-2.77l4.06,2.67.99,2.27-5.64-3.76.59-1.19Zm1.19-2.77l.79.49.89,2.28-2.28-1.58.59-1.19Zm3.17,27.01l6.23,4.06v1.68l-8.61-5.74h2.37Zm11.67-45.21l.79,1.88-8.61-5.64-.89-2.08,8.7,5.84Zm-3.07,48.87l-5.54-3.66h2.37l4.85,3.26.3.4h-1.98Zm-3.76-50.35l8.7,5.74.99,2.28-8.61-5.74-1.09-2.27Zm2.28,5.14l8.61,5.64.99,2.27-8.61-5.74-.99-2.18Zm2.28,5.04l8.61,5.64.99,2.27-8.61-5.74-.99-2.18Zm2.18,4.95l8.61,5.74.99,2.18-8.51-5.64-1.09-2.28Zm2.28,5.14l8.61,5.64,1.09,2.28-8.71-5.74-.99-2.18Zm3.46,44.91l8.8,5.84h-2.37l-8.9-5.84h2.47Zm-1.19-39.96l8.61,5.74.99,2.28-8.61-5.74-.99-2.28Zm2.28,5.14l8.61,5.64.99,2.28-8.61-5.74-.99-2.18Zm4.25,34.82l8.9,5.84h-2.47l-8.8-5.84h2.37Zm-1.98-29.77l8.51,5.64,1.09,2.28-8.61-5.64-.99-2.28Zm2.28,5.04l8.51,5.64.99,2.18-8.51-5.64-.99-2.18Zm2.18,5.04l7.42,4.85h-2.37l-4.06-2.67-.99-2.18Zm2.97,19.68l8.9,5.84h-2.47l-8.9-5.84h2.47Zm5.44,0l8.8,5.84h-2.37l-8.9-5.84h2.47Zm2.08-9.3l9.79,6.53v1.48l-9.79-6.43v-1.58Zm0,3.56l9.79,6.43v1.58l-9.79-6.43v-1.58Zm9.69,11.57l-9.69-6.43v-1.58l9.79,6.43v1.58h-.1Z"></path><path class="cls-1" d="m242.88,175.84h29.87c18.5,0,27.8,10.19,27.8,24.73,0,10.78-5.14,19.19-14.05,22.65l8.21,10.88h8.9v11.28h-14.64l-14.84-20.28c-1.19.1-2.47.1-3.76.1h-7.62v8.9h7.52v11.28h-27.4v-11.28h7.62v-46.99h-7.62v-11.28Zm8.31,71.32l8.9,5.84h-2.47l-8.8-5.84h2.37Zm5.44,0l8.9,5.84h-2.47l-8.9-5.84h2.47Zm5.44,0l8.8,5.84h-2.37l-8.9-5.84h2.47Zm.69-60.04v27.2h9.1c11.47,0,15.43-6.13,15.43-13.75s-3.86-13.45-15.43-13.45h-9.1Zm2.67,1.78l8.9,5.84v1.58l-9.79-6.43v-.99h.89Zm-.89,2.97l9.79,6.43v1.58l-9.79-6.43v-1.58Zm0,3.56l9.79,6.43v1.58l-9.79-6.43v-1.58Zm0,3.56l9.79,6.43v1.58l-9.79-6.43v-1.58Zm0,3.56l9.79,6.43v1.58l-9.79-6.43v-1.58Zm7.42,9.99l-7.42-4.85v-1.58l9.69,6.33c-.79.1-1.48.1-2.28.1Zm-3.07,0h-2.37l-1.98-1.29v-1.58l4.35,2.87Zm-4.35,14.94l7.42,4.85h-2.37l-5.04-3.26v-1.58Zm1.98,4.85h-1.98v-1.29l1.98,1.29Zm.89,14.84l8.9,5.84h-2.47l-8.8-5.84h2.37Zm8.21-14.34l-8.8-5.84h2.37l7.72,5.14.59.69h-1.88Zm-4.75-43.92l8.9,5.84h-2.47l-8.8-5.84h2.37Zm1.19,58.26v-.59l9.59,6.43h-2.37l-8.9-5.84h1.68Zm0-14.74l2.27,1.48v1.58l-2.27-1.48v-1.58Zm0,3.56l9.79,6.43v1.58l-9.79-6.43v-1.58Zm0,3.56l9.79,6.43v1.58l-9.79-6.43v-1.58Zm0,3.56l9.79,6.43v1.58l-9.79-6.43v-1.58Zm1.19-16.12l.89,1.29-1.88-1.29h.99Zm9.5-32.25l-8.8-5.74c1.19.1,2.27.3,3.26.49l6.53,4.35.59.89h-1.58Zm7.81,28.49l9.89,6.53-1.38.69-9.79-6.43,1.29-.79Zm2.57-1.78l9.99,6.53-1.09.89-9.99-6.63c.4-.2.79-.49,1.09-.79Zm1.29,25.72l8.9,5.84h-2.37l-8.9-5.84h2.37Zm-2.18-19.19l6.53,4.25.1.1h-2.28l-1.88-1.19-2.47-3.16Zm3.07-8.71l10.19,6.73-.99.89-10.09-6.63.89-.99Zm1.88-2.28l10.29,6.73-.89,1.09-10.19-6.73.79-1.09Zm2.67,30.17l8.8,5.84h-2.37l-8.9-5.84h2.47Zm-.99-32.64l10.19,6.73-.69,1.09-10.19-6.73.69-1.09Zm8.8-20.87l-7.72-5.04c-.3-.79-.79-1.58-1.19-2.37l3.66,2.47c2.08,1.39,3.76,3.07,5.24,4.95Zm2.08,26.12l-10.19-6.73.59-1.29,10.19,6.73-.59,1.29Zm-8.61-10.88l10.09,6.63-.3,1.39-10.19-6.73c.2-.4.2-.89.4-1.29Zm9.2-10.09l-8.9-5.94-.59-1.98,8.61,5.74.89,2.18Zm-8.51,7.02l9.99,6.53c0,.5-.1.99-.2,1.48l-9.99-6.63.2-1.39Zm9.79-2.67l-9.5-6.23-.3-1.78,9.4,6.13.4,1.88Zm-9.4-.69l9.89,6.53c0,.49-.1.99-.1,1.48l-9.89-6.53c0-.5.1-.99.1-1.48Zm9.89,4.55l-9.79-6.43c0-.59-.1-1.09-.1-1.58l9.69,6.33.2,1.68Zm-6.93,40.16l8.9,5.84h-2.37l-8.9-5.84h2.37Zm.2-10.59l9.79,6.53v1.48l-9.79-6.43v-1.58Zm0,3.56l9.79,6.43v1.58l-9.79-6.43v-1.58Zm0,3.56l9.79,6.43v1.58l-9.79-6.43v-1.58Z"></path><path class="cls-1" d="m359.5,234.1h4.35l-19.09-18.5v18.5h6.03v11.28h-25.92v-11.28h7.62v-46.99h-7.62v-11.28h25.92v11.28h-6.03v22.75l19.78-22.75h-5.05v-11.28h28.49v11.28h-8.61l-22.16,25.32,22.06,21.66h8.71v11.28h-28.49v-11.28Zm-31.95,13.06h1.78l8.8,5.84h-1.78l-8.8-5.84Zm7.12,0l8.9,5.84h-2.47l-8.8-5.84h2.37Zm5.44,0l8.8,5.84h-2.37l-8.9-5.84h2.47Zm5.34,0l8.9,5.84h-2.47l-8.8-5.84h2.37Zm3.46-58.26l7.42,4.95-.89.99-8.9-5.94h2.37Zm-2.37,1.98l7.81,5.24-.89.99-6.93-4.65v-1.58Zm0,3.56l5.84,3.86-.89,1.09-4.95-3.36v-1.58Zm0,3.56l3.86,2.57-.89.99-2.97-1.98v-1.58Zm1.88,4.85l-.89.99-.99-.69v-1.58l1.88,1.29Zm-1.88,16.92l3.66,3.66-3.66-2.47v-1.19Zm0,3.17l9.79,6.53v1.58l-9.79-6.53v-1.58Zm0,3.56l9.79,6.53v1.58l-9.79-6.53v-1.58Zm3.46,5.84h-2.47l-.99-.69v-1.58l3.46,2.28Zm.89,14.84l8.8,5.84h-2.37l-8.8-5.84h2.37Zm1.68-58.26v-1.19l5.74,3.86-.89.99-5.54-3.66h.69Zm5.14-6.83l-5.14-3.46v-1.58l5.14,3.46v1.58Zm-5.14-1.48l5.14,3.46v1.58l-5.14-3.46v-1.58Zm0,3.56l5.14,3.36v1.38h2.08l.49.4-.89.99-6.83-4.55v-1.58Zm0,49.85l3.76,2.47v1.68l-3.76-2.47v-1.68Zm0,3.56l5.14,3.46v1.58l-5.14-3.46v-1.58Zm0,3.56l5.14,3.46v1.48l-5.14-3.36v-1.58Zm0,3.56l9.79,6.43v1.58l-9.79-6.43v-1.58Zm9.1,2.47l.69.4v1.58l-3.07-1.98h2.37Zm-.79-36.11l10.09,6.63-.89.99-10.09-6.63.89-.99Zm1.98-2.27l10.09,6.63-.89,1.09-10.09-6.73.89-.99Zm1.98-2.28l10.09,6.73-.89.99-10.09-6.73.89-.99Zm-.59,10.29l4.75,3.17-.69.79-4.06-3.96Zm2.87,30.37l8.8,5.84h-2.37l-8.9-5.84h2.47Zm-.3-42.93l10.09,6.73-.89.99-10.09-6.63.89-1.09Zm1.98-2.18l10.09,6.63-.89.99-10.09-6.63.89-.99Zm1.98-2.28l10.09,6.63-.89,1.09-10.09-6.73.89-.99Zm1.68,47.38l8.9,5.84h-2.47l-8.8-5.84h2.37Zm.3-49.66l10.09,6.63-.79.99-10.19-6.63.89-.99Zm1.98-2.28l10.09,6.73-.89.99-10.09-6.73.89-.99Zm3.16,51.93l8.8,5.84h-2.37l-8.9-5.84h2.47Zm-1.19-54.21l10.09,6.73-.89.99-10.09-6.73.89-.99Zm1.98-2.28l10.09,6.73-.89.99-10.09-6.63.89-1.09Zm1.58-1.78h1.09l9.4,6.23-.89.99-10.09-6.63.5-.59Zm2.97,58.26l8.9,5.84h-2.47l-8.8-5.84h2.37Zm3.46-58.26l8.9,5.84h-2.37l-8.9-5.84h2.37Zm1.98,58.26l8.9,5.84h-2.47l-8.8-5.84h2.37Zm10.88-62.12l-9.79-6.53v-1.48l9.79,6.53v1.48Zm-9.79-4.85l9.79,6.53v1.58l-9.79-6.53v-1.58Zm0,3.56l9.79,6.53v1.58l-9.79-6.53v-1.58Zm8.8,10.98l-8.8-5.84v-1.58l9.79,6.53v.89h-.99Zm-8.8,42.44l9.79,6.53v1.58l-9.79-6.53v-1.58Zm0,3.56l9.79,6.43v1.58l-9.79-6.43v-1.58Zm0,3.56l9.79,6.43v1.58l-9.79-6.43v-1.58Z"></path><path class="cls-1" d="m450.59,194.83v-7.72h-22.45v19.49h16.82v10.88h-16.82v16.62h22.45v-7.72h10.49v18.99h-52.82v-11.28h7.62v-46.99h-7.62v-11.28h52.82v18.99h-10.49Zm-37.09,52.33l8.8,5.84h-2.47l-8.8-5.84h2.47Zm5.34,0l8.9,5.84h-2.47l-8.9-5.84h2.47Zm5.44,0l8.8,5.84h-2.37l-8.9-5.84h2.47Zm5.34,0l8.9,5.84h-2.47l-8.8-5.84h2.37Zm.3-56.78l9.79,6.43v1.58l-9.79-6.43v-1.58Zm0,3.56l9.79,6.43v1.58l-9.79-6.43v-1.58Zm8.7,10.88l-8.7-5.74v-1.58l9.79,6.43v.89h-1.09Zm-8.7-2.18v-1.58l5.74,3.76h-2.47l-3.26-2.18Zm0,1.98l.4.2h-.4v-.2Zm0,14.64h.59l9.2,6.03v1.58l-9.79-6.43v-1.19Zm0,3.17l9.79,6.43v1.58l-9.79-6.43v-1.58Zm0,3.56l9.69,6.33h-2.47l-7.22-4.75v-1.58Zm4.25,6.33h-2.47l-1.78-1.19v-1.58l4.25,2.77Zm5.54-37.49l-9-5.94h2.37l8.9,5.84h-2.28v.1Zm-4.65,52.33l8.8,5.84h-2.37l-8.9-5.84h2.47Zm.89-27.9l8.8,5.84h-2.37l-8.9-5.84h2.47Zm2.57-30.37l8.8,5.84h-2.37l-8.9-5.84h2.47Zm1.88,58.26l8.9,5.84h-2.47l-8.8-5.84h2.37Zm7.32-22.06l-8.8-5.84h2.47l8.11,5.34h-.69v.49h-1.09Zm-3.86-36.21l4.95,3.26v1.58l-7.32-4.85h2.37Zm1.98,58.26l8.9,5.84h-2.47l-8.9-5.84h2.47Zm.89-27.9l8.11,5.34h-2.37l-8.11-5.34h2.37Zm0-10.68l9.79,6.53v1.48l-9.79-6.43v-1.58Zm0,3.56l9.79,6.43v1.58l-9.79-6.43v-1.58Zm0,3.56l9.79,6.43v1.58l-9.79-6.43v-1.58Zm2.08-25.52l-1.98-1.29h1.98v1.29Zm2.47,56.98l8.8,5.84h-2.37l-8.9-5.84h2.47Zm2.67-50.55h1.68l8.8,5.84h-1.68l-8.8-5.84Zm2.67,50.55l8.9,5.84h-2.47l-8.9-5.84h2.47Zm4.35-50.55l8.9,5.84h-2.47l-8.9-5.84h2.47Zm1.09,50.55l8.9,5.84h-2.47l-8.9-5.84h2.47Zm10.59-62.32l-9.79-6.43v-1.39l9.79,6.53v1.29Zm-9.79-4.85l9.79,6.53v1.58l-9.79-6.43v-1.68Zm0,3.56l9.79,6.53v1.58l-9.79-6.43v-1.68Zm0,3.56l9.79,6.53v1.58l-9.79-6.43v-1.68Zm0,3.56l9.79,6.53v1.58l-9.79-6.43v-1.68Zm0,3.56l9.79,6.53v1.58l-9.79-6.43v-1.68Zm0,35.61l9.79,6.53v1.58l-9.79-6.53v-1.58Zm0,3.56l9.79,6.53v1.58l-9.79-6.43v-1.68Zm0,3.66l9.79,6.43v1.58l-9.79-6.43v-1.58Zm0,3.56l9.79,6.43v1.48l-9.79-6.33v-1.58Zm0,3.56l9.79,6.43v1.48l-9.79-6.43v-1.48Z"></path><path class="cls-1" d="m495.69,234.1h7.52v-46.99h-12.76v7.72h-10.48v-18.99h58.46v18.99h-10.49v-7.72h-12.37v46.99h7.62v11.28h-27.5v-11.28Zm-13.06-37.49h1.68l8.9,5.84h-1.78l-8.8-5.84Zm7.12,0l8.8,5.84h-2.37l-8.9-5.84h2.47Zm2.47-7.72h1.98l7.22,4.75v1.58l-9.2-6.03v-.3Zm0,2.28l9.2,6.03v1.58l-9.2-6.03v-1.58Zm0,3.56l9.2,6.03v1.58l-9.2-6.03v-1.58Zm7.42-5.84l1.78,1.19v1.58l-4.25-2.77h2.47Zm1.98,58.26l8.8,5.84h-2.37l-8.9-5.84h2.47Zm5.34,0l8.9,5.84h-2.47l-8.8-5.84h2.37Zm5.44,0l8.8,5.84h-2.37l-8.9-5.84h2.47Zm5.34,0l8.9,5.84h-2.47l-8.8-5.84h2.37Zm9.4-49.16l-9.79-6.53v-1.58l8.8,5.84v.89h.99v1.38Zm-9.79-4.55l9.79,6.53v1.58l-9.79-6.53v-1.58Zm0,3.56l9.79,6.53v1.58l-9.79-6.53v-1.58Zm0,3.56l9.79,6.53v1.58l-9.79-6.53v-1.58Zm0,3.56l9.79,6.53v1.58l-9.79-6.53v-1.58Zm0,3.56l9.79,6.53v1.58l-9.79-6.53v-1.58Zm0,3.56l9.79,6.53v1.58l-9.79-6.53v-1.58Zm0,3.56l9.79,6.53v1.58l-9.79-6.53v-1.58Zm0,3.56l9.79,6.53v1.58l-9.79-6.53v-1.58Zm0,3.56l9.79,6.53v1.58l-9.79-6.53v-1.58Zm0,3.56l9.79,6.53v1.58l-9.79-6.53v-1.58Zm0,5.14v-1.58l4.95,3.26h-2.47l-2.47-1.68Zm3.86-41.74l4.95,3.26v1.58l-7.32-4.85h2.37Zm1.98,58.26l8.8,5.84h-2.37l-8.8-5.84h2.37Zm2.97-56.98l-1.98-1.29h1.98v1.29Zm-1.19,45.5v-1.58l2.18,1.48v1.19l-2.18-1.09Zm0,1.98l9.79,6.43v1.58l-9.79-6.43v-1.58Zm0,3.56l9.79,6.43v1.58l-9.79-6.43v-1.58Zm0,3.56l9.79,6.43v1.58l-9.79-6.43v-1.58Zm5.64-48.17h2.37l8.8,5.84h-2.37l-8.8-5.84Zm7.72,0l8.9,5.84h-2.47l-8.9-5.84h2.47Zm11.67-11.77l-9.79-6.43v-1.39l9.79,6.53v1.29Zm-9.79-4.75l9.79,6.43v1.58l-9.79-6.43v-1.58Zm0,3.56l9.79,6.43v1.58l-9.79-6.43v-1.58Zm0,3.56l9.79,6.43v1.58l-9.79-6.43v-1.58Zm0,3.56l9.79,6.43v1.58l-9.79-6.43v-1.58Zm0,3.56l9.79,6.43v1.58l-9.79-6.43v-1.58Z"></path></g><g><path class="cls-1" d="m362.74,116.36c-.51-.39-1.02-.57-1.52-.55-.5.02-.85.21-1.05.56-.95,4.53-2.55,8.78-4.8,12.74-2.25,3.96-4.48,6.16-6.69,6.59-1.1.25-1.82-.25-2.15-1.49-.34-1.24-.39-2.87-.15-4.87.23-3.52,1.13-12.52,2.69-26.99-.23-.98-1.42-1.46-3.57-1.44-2.15.01-3.39.59-3.71,1.72-.71,6.68-1.28,12.3-1.73,16.92-.05.05-.12.07-.15.14-.54,2.06-1.2,4.09-1.97,6.09-.77,2-1.74,4.08-2.9,6.24-1.16,2.16-2.6,3.94-4.33,5.34-1.73,1.4-3.57,2.14-5.52,2.21-5.08.35-7.35-5.45-6.82-17.4,9.55-7.31,15.41-16.57,17.59-27.78.74-5.01.45-8.9-.87-11.69-1.33-2.79-3.35-4.34-6.06-4.64-2.72-.3-5.29.79-7.72,3.3-2.6,2.66-4.72,6.98-6.38,12.96-1.66,5.98-2.78,12.67-3.38,20.07-.34,4.12-.45,7.77-.37,11.02-1.12,4.28-2.79,7.97-5.06,11.01-2.43,3.26-4.93,5.54-7.51,6.83-2.57,1.29-5.12,1.95-7.65,2-3.22.1-5.77-.84-7.65-2.8-1.88-1.97-2.85-4.62-2.91-7.98,5.74.56,10.56-.19,14.46-2.24,3.9-2.05,6.47-5.08,7.7-9.09.6-2.45.68-4.74.22-6.89-.46-2.14-1.7-3.88-3.73-5.22-2.03-1.34-4.57-1.81-7.61-1.43-4.8.49-8.99,2.75-12.56,6.77-3.57,4.02-5.68,9.04-6.32,15.04-.04.38-.05.75-.08,1.13-.98,3.98-2.29,7.62-3.99,10.87-1.92,3.68-3.86,5.69-5.84,6.02-3.38.63-4.4-6.01-3.07-19.93,1.34-13.92,3.19-26.63,5.57-38.12.06-.77-.49-1.31-1.65-1.62-1.16-.31-2.3-.36-3.4-.14-1.1.22-1.84.58-2.2,1.08-1.84,7.92-3.35,16.83-4.54,26.73-1.45-.33-3.21-.25-5.29.22-2.08.48-4.11,1.18-6.11,2.12-2,.94-3.97,2.38-5.93,4.33-1.96,1.95-3.57,4.23-4.84,6.85-2.16,4.49-3.31,9.08-3.44,13.8-.13,4.71.86,8.53,2.97,11.44,2.11,2.91,5.1,4.01,8.97,3.3,3.13-.59,5.76-2.25,7.87-4.98,2.11-2.73,3.65-5.89,4.64-9.48.08,3.48.91,6.16,2.49,8.05,1.59,1.89,3.58,2.6,5.97,2.13,3.69-.68,6.8-3.2,9.33-7.56,1.26-2.16,2.37-4.52,3.35-7.07.67,2.04,1.67,3.9,3.05,5.56,3.22,3.87,7.97,5.46,14.26,4.78,10.15-1.2,17.29-6.9,21.41-17.11.16.83.28,1.69.48,2.49.77,3.04,2.05,5.35,3.87,6.91,1.82,1.57,4.14,2.27,6.96,2.11,2.9-.11,5.44-.82,7.63-2.14,2.19-1.32,4.04-3.23,5.55-5.74.96-1.59,1.75-3.17,2.46-4.73-.01,3.11.5,5.46,1.62,6.95,1.27,1.69,3.44,2.24,6.51,1.66,2.1-.35,4.07-1.34,5.93-2.95,1.85-1.61,3.43-3.63,4.73-6.07,1.3-2.44,2.39-4.84,3.26-7.2.87-2.36,1.63-4.84,2.27-7.42.11-.46-.09-.89-.6-1.28Zm-41.34-18.49c1.85-9,3.93-13.6,6.24-13.79,1.39-.04,2.1,1.28,2.14,3.97.04,2.69-.49,6.22-1.6,10.59-1.74,6.63-4.94,12.5-9.6,17.59.47-5.15,1.4-11.27,2.81-18.35Zm-37.2,22.28c2.12-3.05,4.42-4.75,6.89-5.11,2.22-.37,3.68.32,4.39,2.07.71,1.75.63,3.65-.23,5.7-1.66,5.22-6.59,7.73-14.81,7.53.38-3.74,1.64-7.14,3.76-10.19Zm-33.4,17.17c-1.21,5.66-3.04,10.04-5.49,13.15-2.46,3.11-4.72,3.98-6.79,2.62-1.8-1.28-2.79-3.84-2.96-7.68-.17-3.84.41-7.49,1.73-10.94,1.53-4.12,3.73-7.21,6.62-9.25,2.89-2.04,5.83-2.86,8.81-2.48-.46,5.91-1.11,10.78-1.92,14.59Z"></path><path class="cls-1" d="m343.28,93.67c.91.7,1.98.95,3.22.74,1.35-.23,2.43-.82,3.22-1.78.79-.96,1.13-2.12,1.03-3.5-.16-1.3-.67-2.3-1.55-2.97-.87-.68-1.96-.94-3.27-.78-1.29.22-2.34.81-3.13,1.76-.79.96-1.13,2.13-1.03,3.5.09,1.32.6,2.33,1.51,3.03Z"></path></g><g><path class="cls-1" d="m252.14,296.11h10.07v4.13h-2.79v21.33h-3.37l-13.8-16.69v12.57h2.79v4.13h-10.07v-4.13h2.79v-17.2h-2.79v-4.13h5.43l14.52,16.98v-12.86h-2.79v-4.13Z"></path><path class="cls-1" d="m285.67,303.06v-2.82h-8.22v7.13h6.16v3.98h-6.16v6.08h8.22v-2.82h3.84v6.95h-19.34v-4.13h2.79v-17.2h-2.79v-4.13h19.34v6.95h-3.84Z"></path><path class="cls-1" d="m305.92,300.24h-2.57l3.66,12.82,6.3-16.95h2.57l6.37,16.91v.07l3.62-12.86h-2.68v-4.13h10.43v4.13h-2.97l-6.48,21.33h-3.01l-6.63-16.88-6.52,16.88h-2.97l-6.55-21.33h-3.01v-4.13h10.43v4.13Z"></path><path class="cls-1" d="m343.05,313.6v.47c0,2.9,2.61,3.73,4.96,3.73,2.9,0,4.2-1.48,4.2-3.11s-.94-2.72-5.54-4.42c-4.96-1.88-6.66-4.38-6.66-7.57,0-3.62,2.82-7.03,7.82-7.03,3.3,0,4.35,1.88,4.45,2.06l-.33-1.63h4.06l.04,7.5h-4.06v-1.19c-.18-2.14-1.88-2.72-3.91-2.72-2.53,0-3.55,1.34-3.55,2.9,0,1.78,1.38,2.9,4.96,4.31,5.69,2.24,7.31,4.45,7.31,7.79,0,4.53-3.44,7.32-7.86,7.32-4.96,0-6.19-2.53-6.19-2.53l.33,2.1h-4.06l-.04-7.97h4.06Z"></path></g></svg> 