<?xml version="1.0" encoding="UTF-8"?> <svg xmlns="http://www.w3.org/2000/svg" id="Layer_1" width="600" height="400" viewBox="0 0 600 400"><defs><style>.cls-1{fill:#3c3382;}</style></defs><path class="cls-1" d="m588.6,154.29H11.4s-11.4,0-11.4,11.4v68.61s0,11.4,11.4,11.4h577.2s11.4,0,11.4-11.4v-68.61s0-11.4-11.4-11.4Zm-244.24,61.51c-2.4,3.2-5.7,6.8-9.9,8.1-1.4.4-3.2.4-5.1.4-1.8,0-3.5,0-4.9-.4-2.1-.6-3.9-2.3-5.1-4-.6-.9-.8-3-2.2-2.9-2,.3-1.7,4.2-3.7,5.4-1.4.9-3.9.7-6.2.7-5,0-11.7,1-13.2-2.6-.6-1.5-.2-3.8.2-5.2,1-3.2,2.3-6.1,3.4-9.2.4-1.1,1.9-4.4.2-5.1-1.4-.6-2.4,1.1-2.9,1.9-1.8,2.9-3.6,5.9-5.4,8.8-4.4,7-9.4,13.7-14.5,20.1-3,3.7-6.4,7-11.9,8.3-1.8.4-3.7.4-5.8.4s-4.2.1-5.8-.3c-3-.9-5.8-3.8-6.7-6.8-.5-1.8.3-7.4-.8-8.3-1.3-1-4.5-.3-6.3-.7-1-.2-2-.5-2.7-1-.9-.5-1.9-2-3.3-1.8-1.5.2-2.5,1.3-3.7,1.8-2.2.9-6.6,1.3-9.6.7-2.5-.5-4.1-1.7-5.6-3.1-.5-.5-1.5-2-2.5-1.7-1.3.2-2.1,3.1-4.3,3.7-2.2.7-7.2.2-10,.2-1.6,0-3.4.1-4.5-.3-1.6-.7-2-2.7-3.3-3.2-1.1-.5-3.8,2-4.7,2.5-2.7,1.6-5.8,2.3-10.1,2.3h-2.7c-5.7-1-9.2-1.8-12.9-4.7-1.1-.8-4.2-4.9-5.5-4.9-1.4.1-5,4.4-6.2,5.4-3.5,2.7-7,4.1-13.4,4.1-2.2,0-4.2-.1-6-.5-6.3-1.6-12-5.2-14.3-10.6-.6-1.4-.9-3.3-.9-5.2,0-1.6.3-4-.4-5-.6-.9-2.7-1.4-4.2-1.2-2.6.3-3.3,2.5-4.3,4.4-1.6,3.1-2.9,6.6-4.1,10.1-1,3-1.3,6.1-4.5,6.8-1.6.4-3.8.1-5.6.1-2.8,0-5.5,0-8.3-.1-3-.4-3.6-2.5-5.4-2.5-1.9,0-4,2.2-7,2.5-3.4.3-6.1.1-10,.1h-16.6c-5.6,0-11.4,1.2-12.4-3.7-.6-3.2,1.9-10.6,2.7-12.2.8-1.6,3.5-1.4,4.3-3.2.3-1.3.6-2.6.9-3.9.6-2.8,1.2-5.5,1.7-8.3.3-1.3,1.2-3.4.7-5.1-.3-1-1.1-1.6-1.7-2.3-.6-.8-1-1.4-1-2.9,0-1.4.2-3,.5-4.1.8-3.2,1-7,3.8-8.3,2.2-1,7.5-.5,10.6-.5,9.7,0,21.6-1,27.6,2.8,1.8,1.1,3.6,2.9,4.7,4.8.7,1.2.9,3.5,2.3,3.9,1,.3,2-.2,2.7-.4,1.4-.3,4.8-.5,6.5-.2,1.6.3,3.1.4,4.3.9,1,.4,2,1.8,3.6,1.5,1.5-.3,2.6-1.3,3.9-1.9,1.7-.7,3.8-.7,6.2-.7,2.8,0,4.5.8,6,2.1.8.7,1.9,2.6,3.5,2.3,1.9-.3,3.4-2,5.1-2.8,3.1-1.3,9.5-2,14-1.2,4.5.8,7.5,2.1,10.4,4.4,1.3,1,3.4,4.4,4.9,4.8,1.4.3,3.6-2.6,4.3-3.3,2.8-2.7,5.9-4.9,10.5-5.8,1.4-.3,3-.2,4.6-.2,5.7,0,10.1.8,13.6,2.9,1.4.9,2.6,2.2,3.9,3.3.4.3,1.1,1.1,1.9.7,1-.4,1.4-2.5.7-3.6-.8-1.3-2.3-1.9-3.1-3.1-1.5-2.2-.8-7.4.5-9.3,1.3-1.9,3.6-2.2,6.2-2.9,3.7-.9,7.4-1.8,11-2.7,1-.2,2-.4,3-.6.5.1,2.5-.2,2.9-.3,5.5-.1,5.1,2.6,3.3,9.3-.3,1-1.3,3.4-.5,4.5.4.6,1.6.4,2.3.3,1.9-.5,5.5-.7,7.7-.2,1.4.3,3.5,1.7,4.7,1,.8-2.8.2-6.2,1.6-8.2,1.3-1.9,3.7-2.3,6.2-3,4.1-1,8.2-2,12.2-3.1,2.4-.6,4.9-1.1,6.9.9,2.2,2.2.3,7.5-.5,10.3-.4,1.3-1,3.1-.2,4.3,1.3.3,2.7-.1,3.9-.3,2.7-.5,6.7.2,8.5.9,2.1.8,3.7,1.9,5.1,3.4.7.7,1.1,2.1,2.4,2.2,2-1.5,2.4-4.4,4.9-5.4,2.8-1.1,9.4.7,12,1.3.7.2,1.8.7,2.7.5,2.5-.4,3.6-2.3,6.2-2.9,2.7-.6,8.9-.1,11,.5,1.2.5,2.3,1,3.5,1.5,1.5.3,4.9-1.6,6.6-2,1.3-.1,2.5-.1,3.8-.2,5.6,0,9,1.7,11.4,4.8,2,2.5,2.3,7.6,1.3,11.6-.5,1.8-1,3.6-1.5,5.4-.2,1.6,1.5,2.1,2.4,2.7,1.2.8,2.2,2.1,2.5,3.8.7,3.6-1.7,5.9-3,7.7Zm229.34-21c-.9,3-3.6,6-6.6,6.9-2.6.8-8.2-.6-10,.7-2.3,1.7-5.2,9.7-6.2,13-.7,2.3-1.1,5.4-2.9,6.8-2,1.6-6.5,1.1-10,1.1-2,0-4.5.3-6.2-.1-1.3-.3-2.3-1.1-2.8-2.1-.4-.8-.4-2-1.3-2.4-1.3-.4-4.3,2.5-5.4,3.1-3.4,1.8-7.6,2.6-12.8,2.6h-3.2c-4.3-.7-6.7-1-9.4-3.1-1.3-1-4.2-4.9-5.4-5.2-1.7-.3-2.8,1.8-3.6,2.5-2.6,2.1-5,4.1-8.8,5.2-1.8.5-6.3.1-7.6.9-1.5.9-.9,3.5-1.3,5.4-.9,4.5-.9,8.8-5.6,9.6h-16.2c-1.7,0-3.9.2-5.4-.2-.9-.3-1.8-.9-2.3-1.7-1.4-2.3-.4-6.9.2-9.4.4-1.8.3-3.5-1.3-3.9-1.2,0-2.4-.1-3.6-.1-1.5,0-3-.2-4.3-.5-1.5-.4-3.5-2.2-5.2-1.8-1.7.4-2.9,1.5-4.7,2-4.7,1.2-10.4-.2-13-2.1-2.8-2.1-4.8-4.9-5.7-8.8-.5-2.1.5-6.5-1.7-7-1.3-.2-2.7.5-3.7.7-2,.5-5.3-.2-6.2,1.3-.6,1-.2,2.8-.4,4.2-.7,4.4-1.8,10-6.2,10.9-2.1.1-4.2.1-6.3.1h-12c-1.9,0-4.4.3-5.8-.3-1.1-.5-2-1.5-2.4-2.7-.9-3.1,1.3-11.3,2.6-12.9.8-1,2.3-1.2,3.4-2,1-.8,1.2-2.4,1.6-3.9.5-3.1,1.1-6.3,1.7-9.4.2-1.2,1-3,.7-4.5-.4-2-2-2.7-2.6-4.5-.9-3.2,1.4-11.1,2.7-12.7,1.1-1.4,3.1-1.5,5.6-1.5.7-.1,1.4-.1,2.1-.1v-.2h13.7c6.6,0,13-.2,17,2.3,2.5,1.6,4.8,4.1,6.2,6.8.6,1.2.8,4.2,2.2,4.5,1.1.3,2.2-.8,2.9-1.1,1.6-.9,3.3-1.1,5.5-1.5,3.8-.3,8.9.3,11.5.9,2.4.6,3.1-.3,4.4-.5,3.6-.4,7.6-.5,10.6,0,1.7.3,2.7,1.1,4.1,1.4s2.6-.8,3.5-1.2c1.5-.7,5.3-1.1,7.6-.7,1.9.4,3.7.4,5.3,1.1,1,.4,2.1,1.5,3.7,1.2,1.3-.5,2.7-1.1,4-1.7,2.3-.8,7.1-.8,9.5-.1,2.5.8,4.7,2.5,6.1,4.3.7.8,1.6,2.3,2.9,2.5,1.4.2,3.5-2.4,4.4-3.1,2.6-2,5.6-3.2,9.5-3.9,1.3-.1,2.5-.1,3.7-.1,4.7,0,8.5.4,11.4,2.2,1.5.9,3.2,3.2,4.8,3.6,1.5.3,2.5-1.1,3.1-1.7,1.5-1.5,3.3-3.1,5.6-3.8,2.6-.8,7.9-.7,10.4.1,1.6.4,2.6,1.6,4.2,1.9,1.5.3,4.1-1.6,5.4-2.1,3.9-1.3,9.1-.1,11.3,1.6,2.5,2,3.4,4.3,3.4,8.9,0,1.6,0,3.1-.4,4.3Z"></path><path class="cls-1" d="m232.74,206.9c.2.1.9.9,1,1.1-1.8,6.3-3.4,11.7-11.6,11.7-1.5,0-4.5-.8-6.1-3.2-1.8-2.7-4.4-9.2-5.8-12.2-.8.4-1.3.5-2.1.9-.9,4.6-1.8,9-2.7,13.4h-11.2c3-12.5,6-24.9,9-37.41-.9-1.1-4.4-3.3-5.7-4,.2-1.3.4-2.6.7-3.9,6.3-1.5,12.5-2.9,18.8-4.4v.1c-1.3,5.2-2.6,10.5-3.9,15.7-.9,3.2-3.4,13.6-4,15.6,3.9-1.7,11.5-5,16.1-7.2-2.1-.5-3.6-2-4.1-3.2-.8-2-.4-4.7.8-5.9,2.6-2.6,8.2-2.1,10.4.5,2.1,2.5,2,5.1,1.4,7.1-.6,2.2-2.2,3.6-4.9,4.9-1.4.7-8.4,3.7-9.9,4.3,3.2,7,4.1,10.7,6.2,10.7,2.5,0,6.6-3.8,7.6-4.6m22.3.6c-3.1,1.5-5.1,2.8-6.2,2.9-1,.1-1.3-.6-1-1.6.6-2.2,6.9-26.4,10.4-39.91h-.1c-5.9,1.5-11.8,2.9-17.7,4.4-.2,1.3-.4,2.6-.7,3.8,1.6,1.3,3.3,2.6,4.9,4-.3,1.4-7.8,29.7-8.4,32.01-.6,2.5-.4,4.5,1.9,5.9,1.6,1,4.7,1.5,8.2.4,4.4-1.4,8.2-6.8,10-10.8-.4-.2-1-.8-1.3-1.1m-185.93-20.1c1.9-6.8-5.6-5.9-12.9-5.9-.7,4.3-1,6.2-1.8,10.4.2,0,2.6.2,5,.1,3.5-.2,6.8.1,8.7-2.5.5-.5.8-1.3,1-2.1m-1.7,17.7c.8-4.7-2.2-6.1-5.7-6.8-1.2-.3-2.5-.3-3.7-.3-1.5-.1-2.9-.1-4.4-.1-.8,4-1.4,8.2-2,12.2,7.8,0,15,.1,15.8-5m11-28.6c2.9,2.2,3.9,7.4,2.1,11.6-1.7,4-7.2,5.6-11.1,5.6v.7c2.3,0,8.2,1.1,9.8,6.2.8,2.6.8,4.3.2,7.6-.6,3.3-3.3,6.9-7.5,8.7-3.8,1.7-10,1.6-15.5,1.6h-22.3c.6-2.5,1.3-5.9,1.9-8.4h4.4c1.4-6.8,2.9-13.8,4.3-20.5.5-2.2,1.5-7.1,1.7-8.1h-4.6c.5-2.1,1.5-6.1,2-8.3h13.9c8,0,16.1-.1,20.7,3.3m319.55,13.5c.3-1.1.5-2.8.2-4.1-.9-4.9-4.9-4.4-12.5-4.4,0,0-1.6,11.9-2.1,14.6,5.6.3,10.7.1,13-3.1.7-.8,1.1-1.9,1.4-3m11.5-10.1c1.7,3,1.3,9,.2,12.1-2.3,6.6-7.5,9-13.3,10.2-1.8.4-6,.3-8.4.2-1.8-.1-3.7-.4-5.5-.7,0,0-.9,5.7-1.4,8.3h5.7c-.5,2.2-1.4,6.3-1.9,8.5h-21.4c.6-2.5,1.3-6,1.9-8.5h4.5c1.4-6.8,3.7-19.3,5.6-28.6-1.6,0-2.8.1-4.6.1.5-2.1,1.4-6.2,1.9-8.3,4,.1,8.2,0,12.3,0h9c2,0,5.3.2,7,.6,2.9.6,5.8,1.6,8.4,6.1m107.22,16.9c2-1.1,2.8-2.1,2.3-3.5-.5-1.7-3.7-4.2-5.6-3.8-1.6.3-3.9,1.9-5.6,6.8-.5,1.4-1,2.9-1.1,4.9.2.2.3.3.5.2,2.8-1.3,7-3.2,9.5-4.6m12.3-2.9c0,1.6-.5,2.3-2.2,3.6-2.8,2-8.8,4.6-20.3,9.7.2,1.2.5,2,1.1,2.9.9,1.3,2.5,1.9,4.3,2.2,2.3.3,5.7-.3,8.6-1.8,2.4-1.2,5-3.9,6.3-5.4,1.4-1.5,2-.1,1.2,2.3-.6,1.9-2.5,5-4.3,6.9-2.5,2.2-4.5,3.7-9,4.8-6,1.4-16.2,1.5-19.3-7.6-1.2-3.6-1-8.6,0-11.6,1-3.1,2.7-6.2,4.6-8.5,2.2-2.7,4.8-4.4,7.2-5.5,2.1-.9,4.2-1.6,6.2-1.6,6-.1,9.6,1.3,12.5,4.2,1.6,1.4,3.1,4.2,3.1,5.4m-413.47-9.4c-2.9-1-5.2-.5-8.5,1.7-3.3,2.2-5.8,5.8-7.5,8.7-1.7,2.9-2.4,4.2-3.4,6.3h-.9c4.3-11.7,5.5-14.2,4.4-15.2-2-2-6.6-1.9-7.8-1.8-1.2.2-2.1.6-3,1.2-4,2.3-7.3,6.7-8.2,9.6.3.3.9.8,1.2,1,4.9-2.6,7.2-2.4,7.6-2.3s.2.3.2.4c-1.4,4.6-7.3,23.8-7.5,24.5h12c.3-1.1.6-2.3.9-3.5,1.9-6.3,4.1-11.3,5.8-13.9,1.6-2.6,3.1-4.5,5.3-6.2.7.9,2.2,1.7,3.6,2.1,3.2.9,6,.2,7.7-2.3,1.8-2.6,2.4-8.8-1.9-10.3m450.38,0c-2.9-1-5.2-.5-8.5,1.7s-5.8,5.8-7.5,8.7c-1.7,2.9-2.4,4.2-3.4,6.3h-.9c4.3-11.7,5.5-14.2,4.4-15.2-2-2-6.6-1.9-7.8-1.8-1.2.2-2.1.6-3,1.2-4,2.3-6.6,7-7.7,10.1.3.3.9,1,1.2,1.3,4.9-3.8,6.7-3.1,7.1-2.9.4.1.2.3.2.4-1.4,4.6-7.3,23.8-7.5,24.5h12c.3-1.1.6-2.3.9-3.5,1.9-6.3,4.1-11.3,5.8-13.9,1.6-2.6,3.1-4.5,5.3-6.2.7.9,2.2,1.7,3.6,2.1,3.2.9,6,.2,7.7-2.3,1.8-2.8,2.5-9-1.9-10.5m-423.37,14.2c.2-1.2.6-3.7.1-4.9-.6-1.5-1.6-2.4-3-3.2-.9-.5-2.8-1.6-4.1-.9-4.1,1.8-5.4,8.8-6.6,14-.4,1.6-1.1,4.8-.4,6.5.8,2.1,3.4,3.7,5.9,4.2,2.6.5,4.4-4,5-5.3,1.4-3.3,2.4-6.2,3.1-10.4m-6.4-14.5c8.5-.1,14.7,2.9,17.2,8.7,1.6,3.8.4,9.1-.9,12.3-2.9,7.1-10.1,16.4-21.3,14.3-9.1-1.7-16.8-7-13.2-18.4.6-1.9,1.3-3.9,2.3-5.5,2.5-4.3,6.3-8.4,10.7-10.2,2.1-.8,3.6-1.1,5.2-1.2m46.41,14.5c.2-1.2.6-3.7.1-4.9-.6-1.5-1.6-2.4-3-3.2-.9-.5-2.8-1.6-4.1-.9-4.1,1.8-5.4,8.8-6.6,14-.4,1.6-1.1,4.8-.4,6.5.8,2.1,3.4,3.7,5.9,4.2,2.6.5,4.4-4,5-5.3,1.3-3.3,2.3-6.2,3.1-10.4m-6.4-14.5c8.5-.1,14.7,2.9,17.2,8.7,1.6,3.8.4,9.1-.9,12.3-2.9,7.1-10.1,16.4-21.3,14.3-9.1-1.7-16.8-7-13.2-18.4.6-1.9,1.3-3.9,2.3-5.5,2.5-4.3,6.3-8.4,10.7-10.2,2-.8,3.6-1.1,5.2-1.2m111.62.7c-4.8,10.1-8.2,19.4-12.9,29.4-.3,0-.9-.2-1-.2,0-5.1,1.8-22.4,2-24.7.1-1.2-.2-1.9-.8-2.5-1.6-1.4-5.3-2.9-8.7-2.8-1.2,0-2.9,1-4.1,1.9-2,1.6-3.8,3.8-5.2,6-.5.9-1.1,1.9-1.6,2.8q0,.1-.1.2c.4.3.8.6,1.2.9,4.4-1.8,7.6-3.5,7.6-2.1,0,1.3-.7,21.6.8,23.6,1.2,1.6,5.2,1.5,7,1.7-1.4,2.4-1.9,3.2-3.6,5.5-.8,1-2.7,3.4-4.2,4.4-1.8-2.9-2.4-4.8-6.6-5.6-6.8-1.2-10.3,7.2-4.9,11.4,2.3,1.8,8.7,1.3,12.3-.1,1.9-.7,3.5-1.9,4.9-3.2,3.2-3.2,5.8-7,8.5-10.7,3.7-5.3,7.5-10.6,10.8-16.3,2.1-3.5,4.3-7.4,5.8-10.1,1.4-2.6,2.8-5.2,3.6-7.2-3.4-.7-6.9-1.5-10.8-2.3m46.91,24.8c-.1-.7,1.1-3.3,1.4-4.1,1.3-3.7,2.6-7.1,3.7-11,.5-1.7,1.1-4.9.1-6.4-2.1-3.2-7.5-5.2-12.2-3.1-4.2,1.8-6.5,3.6-8.9,7.2-.9,1.4-2.7,4.7-3.8,7.1q-.5.1-1.1,0c1.3-3.5,2.5-6.5,3.8-10,.5-1.3,1-2.6.5-3.4-.9-1.5-6.2-1.9-8.9-1.8-1.1,0-2.1.6-3,1.2-2.4,1.4-6.6,6.8-8,9.7.4.3.9.7,1.2,1,3.5-2,6.5-2.7,7.5-2.3.7.6-.4,3.1-4.1,14.3-1.4,3.6-2.6,6.9-4,10.5h12.7c.4-1.7.9-3.3,1.3-5,1.8-6.1,3.8-11.2,6.8-16,1.9-3,3.5-5.7,7.6-3.2,2.5,1.6,1.5,3.7.6,6.3-1.2,3.5-2.4,7-3.7,10.5-.3.7-1,2.9-.7,4.5.3,1.7,1.8,2.9,3.1,3.3,1.3.4,2.8.6,4.3.5,1.8-.1,3.3-.8,4.3-1.4,3.6-2.2,6.5-5.7,8.3-9.6-.4-.3-.7-.6-1.1-.9-6,2.4-7.6,2.9-7.7,2.1m93.92-2c4.2-6.2,6.4-10.1,7.1-12.5.5-1.4.3-3-.7-3.7-1.8-1.3-4.7-2.2-6.9-2.2-.9,0-1.8.3-2.9,1.6-2,2.4-4.1,7.5-5.9,13.5-.5,1.8-.9,5.1-.2,6.3,1.1,1.9,3.4,2,5,1.3,1.5-.6,3.6-3,4.5-4.3m23.2,1c-1.9,4.1-5.7,9.5-10.3,10.8-1.7.5-4.5.3-6,0-1.7-.4-3.7-.5-3.7-1.8.1-1.8.7-3.6,1.7-6.9.7-2.3.8-2.5,1.8-5.9h-1c-.8,1.3-3.4,5.2-4.3,6.7-2.6,4.1-5.1,6.4-8,7.6-3.7,1.6-9.1-.1-11-2.6-3-3.7-3.5-8.8-1.9-14.6,1.9-6.8,5.7-12.4,11-15.8,2.6-1.7,4.9-2,6.4-2,5.1,0,8.9.2,12.4,5.2.2-.6.8-2.4,1.6-4.9h10.1c-3.7,10.7-6.4,20.5-7.7,25.2-.3,1.8,4.9-.4,7.1-1.9.6.2,1.2.6,1.8.9m28.1-17.2c-1-.6-2.1-.4-3,.4-1.9,1.3-4.5,4-7.8,9.3-1.3,2-3.2,5.2-3.4,6.9-.2,2.8,3.4,5.7,6.7,6.1,2.1.2,3.4-.8,4.5-2.2,2.6-3.6,4.4-8.3,5.1-13.4.4-3-.3-6-2.1-7.1m9.9-4.5c1.2,1.2,2.2,2.7,2.7,4.6,1,3.3.2,7.8-.7,10.6-2.3,7.4-6.1,13.3-12.8,16.2-6.6,2.8-13.2,1.1-16-6,0,0,1.3.2.2,1.3-.3,2.8-1.4,8.8-2.1,12.8h4.7c-.4,2.4-1.2,6.2-1.6,8.6h-20v-.2c.5-2.6,1.1-5.8,1.6-8.4h5c3.1-15.1,6.6-29.1,7.7-32.61,0,.2-2.1-1.1-7.3,2.3-.4-.3-.7-.6-1.1-.9,1.3-3.5,5.4-9.3,10.6-11,2.4-.8,8.5.6,9.3,1.8.4.6-.6,3.4-.8,4.1-.9,2.6-1.4,4.1-2.9,8.4h.8c.7-1.1,2.6-4.2,3.3-5.3,2.3-3.2,2.9-4.2,6.2-6.8,2.4-1.9,6.2-3.2,10.2-1.5,1.2.4,2.1,1.2,3,2"></path></svg> 