<?xml version="1.0" encoding="UTF-8"?> <svg xmlns="http://www.w3.org/2000/svg" id="Layer_1" width="600" height="400" viewBox="0 0 600 400"><defs><style>.cls-1,.cls-2{fill:#3c3382;}.cls-2{fill-rule:evenodd;}</style></defs><path class="cls-1" d="m573.78,160.68c0-16.8-9.41-29.75-20.21-29.75s-20.21,12.98-20.21,29.75c0,14.51,7.05,23.48,15.91,25.66-.07,3.51-.68,36.63-4.02,73.02,0,0,2.93,1.23,8.52,1.23s9.51-1.23,9.51-1.23c-3.24-32.16-4.63-63.2-4.98-71.62,0-.07-1.02.31-2.45-.1-1.19-.31-1.84-.78-1.77-.78h.2c1.16,0,2.39-.24,3.17-.41.03,0,.07,0,.1-.03.44-.1.71-.17.71-.17,8.69-2.38,15.51-11.28,15.51-25.55Z"></path><path class="cls-2" d="m26.22,233.53c0-12.71,8.86-17.51,19.83-20.34l18.09-4.46v-.68c0-6.44-4.16-8.72-12.33-8.72-6.81,0-13.32,1.6-20.58,3.71l1.29-16.25c7.46-2.32,15.61-4.09,24.7-4.09,17,0,25.59,6,25.59,22.59v43.54h-18.67v-7.87c-5.59,6.75-13.32,9.37-20.41,9.37-9.17,0-17.51-4.5-17.51-16.8Zm19.35-2.66c0,4.4,2.96,6.17,6.61,6.17s8.25-1.98,11.93-5.18v-13.39l-4.87,1.43c-9.3,2.59-13.66,5.66-13.66,10.97Z"></path><path class="cls-1" d="m92.6,161.97v86.85h18.71v-88.96l-18.71,2.11Zm29.17,0v86.85h18.74v-88.96l-18.74,2.11Zm29.2,23.48v63.34h18.74v-38.5c6.78-4.33,14.96-5.52,21.98-5.18l.99-22.25c-12.2,0-18.4,4.97-22.96,21.53v-21.13l-18.74,2.18Z"></path><path class="cls-2" d="m254.48,199.18l1.19,2.93c1.57,3.75-.1,7.12-3.82,8.79l-35.03,16.32c3.03,3.3,7.8,5.32,14.58,5.32s16.93-2.01,24.43-7.7l-1.23,18.57c-4.84,3.2-13.42,6.88-25.38,6.88-21.84,0-34.35-13.49-34.35-34.04,0-23.61,16.83-33.6,33.25-33.6,14.07-.07,22.62,7.29,26.34,16.53Zm-26.03-1.77c-8.42,0-15.88,5.18-15.88,17.21,0,.28,0,.55.02.83,0,.26.02.52.02.78l26.68-12.44c-1.87-3.58-4.84-6.37-10.84-6.37Z"></path><path class="cls-1" d="m295.57,199.32c5.04,0,10.05,1.67,13.66,3.54v-17.75c-5.49-1.7-11.96-2.42-17.04-2.42-21.26,0-32.33,13.29-32.33,33.8s11.07,33.8,32.37,33.8c5.25,0,12.1-.99,18.54-3.41v-17.55c-4.67,2.15-10.02,3.88-15.16,3.88-9.81,0-16.97-5.32-16.97-16.8s7.15-17.1,16.93-17.1Zm22.93,49.51h18.74v-65.49l-18.74,2.11v63.38Zm9.3-92.71c-7.5,0-12.13,4.53-12.13,10.84s4.6,10.94,12.13,10.94,11.89-4.53,11.89-10.94c.03-6.3-4.4-10.84-11.89-10.84Z"></path><path class="cls-2" d="m347.7,269.07v-83.61l18.74-2.15v7.9c4.5-4.5,10.7-8.52,19.56-8.52,13.53,0,23.41,9.51,23.41,31.07,0,24.06-14.17,36.56-32.85,36.56-3.88,0-7.26-.61-10.12-1.5v20.24h-18.74Zm42.08-53.36c.07-9.27-3.07-17.65-13.63-17.65-3.88,0-7.02,1.23-9.71,2.93v33.87c1.91.41,4.02.65,6.3.65,11.62,0,17.07-7.29,17.04-19.8Zm83.95-16.53l1.19,2.93c1.57,3.75-.1,7.12-3.81,8.79l-35.03,16.32c3.03,3.3,7.8,5.32,14.58,5.32s16.94-2.01,24.43-7.7l-1.23,18.57c-4.84,3.2-13.42,6.88-25.38,6.88-21.84,0-34.35-13.49-34.35-34.04,0-23.61,16.83-33.6,33.25-33.6,14.07-.07,22.62,7.29,26.34,16.53Zm-26.03-1.77c-8.42,0-15.88,5.18-15.88,17.21,0,.28,0,.55.02.83,0,.26.02.52.02.78l26.68-12.44c-1.87-3.58-4.84-6.37-10.83-6.37Z"></path><path class="cls-1" d="m498.24,202.79c0-4.05,5.55-5.08,10.9-5.08s11.58.85,19.18,4.22l-.51-15.61c-4.74-2.11-11.08-3.65-19.19-3.65-20.75,0-27.53,9.98-27.53,20.65,0,25.96,32.1,15.47,32.1,26,0,4.29-4.67,5.28-9.23,5.28-9.17,0-16.83-2.62-22.97-6.13l-1.09,16.49c6.44,3.27,14.96,5.32,24.02,5.32,19.93,0,27.56-9.78,27.56-22.42.07-25.11-33.25-15.3-33.25-25.08Z"></path></svg> 