<?xml version="1.0" encoding="UTF-8"?> <svg xmlns="http://www.w3.org/2000/svg" id="Layer_1" width="600" height="400" viewBox="0 0 600 400"><defs><style>.cls-1{fill:#3c3382;fill-rule:evenodd;}</style></defs><path class="cls-1" d="m52.12,249.01c4.05,1.19,8.24,1.85,12.45,1.96,17.17,0,29.15-11.39,29.15-27.66s-10.65-22.82-26.76-32.86l-.03-.05-2.57-1.59c-10.41-6.52-15.4-10.86-15.4-18.47s5.19-12.14,13.86-12.14c9.7,0,18.39,6.73,22.6,17.57l.11.24,3.71-.48-1.38-22.5-3.31-.19-.11.29c-.34,1.51-.93,1.96-2.38,1.96-.66,0-1.72-.56-3.05-1.27l-.21-.11c-5.44-3.14-11.61-4.79-17.89-4.8-14.26,0-24.22,9.67-24.22,23.58s9.94,20.24,24.91,29.36l.08.03.53.32c12.19,7.37,19.08,12.03,19.08,22.29s-7.21,17.07-18.76,17.07c-10.33,0-17.89-4.32-23.72-13.54l-.13-.21-3.68,1.11,5.19,20.24,3.34.26.08-.21c.5-1.35.77-1.38,2.01-1.38,2.2.13,4.37.53,6.49,1.17Zm121.1.45h22.47l.03-3.18-.21-.11c-2.25-1.03-3.18-2.33-4.32-4.9l-40.2-90.57-.08-.19h-4.9l-38.56,88.06-.13.29c-1.46,3.31-2.49,5.7-5.06,7.37l-.13.11v3.1h18.76v-3.18l-.26-.08c-2.6-.53-3.71-1.72-3.71-3.92.13-1.64.56-3.26,1.22-4.77l8.51-19.61h40.86l8.48,19.61c.69,1.59,1.09,3.23,1.22,4.96,0,2.12-1.22,3.37-3.71,3.76l-.26.05v3.21Zm-9.83-40.91h-32.91l16.54-37.84s16.38,37.84,16.38,37.84Zm69.64,41.68h4.37l38.5-87.6.42-.9.08-.19c1.43-3.31,2.54-5.94,5.51-7.5l.19-.11v-3.39h-19.34v3.42l.16.08c2.52,1.19,3.21,2.17,3.21,4.37.05.98-.11,1.96-.5,2.86l-29.12,68.13-29.81-68.1c-.37-.93-.53-1.91-.53-2.91,0-2.28.72-3.18,3.23-4.35l.21-.08v-3.39h-21.65v3.44l.26.05c1.83.37,2.86,2.38,4.66,6.52l40.07,89.49.08.19v-.03Zm58.11-.79h65.05l5.78-12.77-2.81-1.67-.19.19c-4.08,4.11-9.49,4.43-16.67,4.43h-34.05v-39.27h32.67c7.68,0,10.68.4,11.82,4.69l.05.26h3.44v-20.11h-3.44l-.05.26c-1.14,5.22-4.29,5.75-11.79,5.75h-32.7v-30.71h33.28c7.31,0,12.4.32,16.54,4.29l.16.16,2.91-1.46-4.93-12.96h-65.08v3.44l.21.11c4.11,1.46,4.56,3.6,4.56,7.76v76.48c0,4.13-.42,6.09-4.56,7.61l-.21.05v3.47Zm94.23-44.81c0,29.52,14.52,46.45,39.85,46.45,15.45,0,28.35-7.02,34.45-18.79,4.29-8.14,4.29-17.09,4.29-26.58v-43.86c0-4.4.42-6.33,4.56-7.76l.21-.08v-3.44h-19.61v3.42l.21.08c4.11,1.46,4.56,3.6,4.56,7.76v46.24c0,22.6-8.24,32.25-27.61,32.25s-28.54-11.63-28.54-35.51v-43.01c0-4.21.19-6.31,4.4-7.76l.24-.08v-3.44h-21.78v3.44l.21.08c4.11,1.46,4.56,3.6,4.56,7.76v42.85-.03Zm158.36,44.78h21.25l.03-3.5-.27-.03c-3.15-.42-4.9-3.6-7.55-8.43l-.16-.32c-1.32-2.38-2.81-5.09-4.77-8.08-9.2-14.18-19.05-24.54-27.8-29.39,16.59-3.68,24.99-12.11,24.99-25.04,0-16.24-11.47-24.11-35.08-24.11h-26.39v3.44l.24.08c4.11,1.46,4.56,3.6,4.56,7.76v76.5c0,4.13-.45,6.09-4.56,7.61l-.24.08v3.44h21.81v-3.44l-.21-.08c-4.03-1.43-4.43-3.31-4.43-7.61v-77.8h8.67c16.64,0,23.4,4.32,23.4,14.87,0,11.1-10.78,17.89-28.83,18.15h-.32v7.55l.21.08c7.5,2.25,14.26,6.94,20.56,14.39,11.02,13.01,16.54,26.79,16.54,28.51.06.88-.52,1.68-1.38,1.88l-.27.05v3.44-.03Z"></path></svg> 