<?xml version="1.0" encoding="UTF-8"?> <svg xmlns="http://www.w3.org/2000/svg" id="Layer_1" width="600" height="400" viewBox="0 0 600 400"><defs><style>.cls-1{fill:#fff;}</style></defs><path class="cls-1" d="m600,163.82c-1.37-.13-2.73-.06-3.76.95-.66.64-1.13,1.46-1.69,2.21-2.45,3.25-4.11,6.94-5.91,10.56-2.09,4.18-4.16,8.38-6.23,12.57-2.88,5.82-5.76,11.63-8.62,17.45-1.73,3.52-3.39,7.07-5.13,10.59-2.2,4.44-4.47,8.86-6.68,13.29-.45.91-.82,1.87-1.22,2.8-.85,2-1.64,4.03-2.57,6-1.43,3-2.9,5.98-4.47,8.91-.88,1.64-1.93,3.2-3.05,4.68-1.18,1.54-2.42,3.09-3.87,4.37-1.36,1.19-2.76,2.41-4.44,3.19-3.47,1.62-7.01,2.39-10.77,1.04-2.28-.82-4.11-2.19-5.68-4.03-1.07-1.25-1.81-2.66-2.43-4.14-.37-.89-.61-1.87-.72-2.84-.42-3.62.12-7.04,2.73-9.78,1.97-2.07,4.39-3.13,7.39-2.76,2.68.33,5.35.91,8.08.73,2.7-.17,5.24-.9,7.63-2.18,2.3-1.23,4.22-2.93,5.92-4.86,2.61-2.96,4.85-6.18,6.61-9.72.47-.95.94-1.9,1.44-2.89-1.7-3.33-3.42-6.65-5.1-10-2.76-5.53-5.48-11.08-8.24-16.61-3.92-7.86-7.85-15.71-11.79-23.56-.95-1.9-2.03-3.72-3.73-5.05-.6-.47-1.32-.8-2.08-1.24v-2.06c.94-.26,32.12-.36,34.91-.13v2.35c-.61.13-1.27.22-1.89.43-1.1.37-1.51,1.38-1.4,2.58.09,1.06.59,1.93,1.01,2.84,1.68,3.68,3.43,7.34,5.14,11.01,1.94,4.17,3.87,8.34,5.81,12.5.06.14.18.25.37.52.24-.44.46-.79.63-1.16,1.5-3.16,3.01-6.32,4.49-9.49,1.41-3.02,2.87-6.03,4.17-9.11.68-1.59.9-3.3.51-5.07-.43-1.95-1.72-3.02-3.43-3.72-1.84-.75-3.78-1.11-5.83-1.28v-2.5c.42,0,.84,0,1.26,0,7.38,0,14.77,0,22.15,0,.16,0,.31-.02.47-.03v2.61Z"></path><path class="cls-1" d="m0,171.64c1.76-.98,3.53-1.94,5.29-2.93.47-.26.86-.65,1.32-.93,1.31-.79,2.65-1.54,3.97-2.31,2.78-1.62,5.56-3.24,8.34-4.87.71-.42,1.4-.87,2.13-1.27.77-.42,1.6-.26,2.53-.17.09,1.02.22,2.02.27,3.03.13,2.64.21,5.27.33,7.91.05,1.22.15,2.43.21,3.65.02.37,0,.75,0,1.36.29-.71.53-1.24.71-1.79.88-2.71,2.02-5.29,3.78-7.55,1.87-2.41,4.12-4.34,7.06-5.32,2.11-.7,4.27-.84,6.51-.53,2.08.29,3.97.93,5.61,2.23,2.31,1.83,3.59,4.24,3.81,7.17.13,1.73.04,3.45-.69,5.09-1.22,2.74-4.17,5.11-7.36,5.33-3.37.23-5.61-1.38-7.55-3.78-.72-.89-1.36-1.84-2.13-2.67-1.04-1.11-2.26-1.85-3.88-1.19-.17.07-.37.07-.57.11-1.89,1.42-2.48,3.57-2.88,5.73-.41,2.27-.7,4.59-.74,6.9-.14,8.2-.16,16.41-.22,24.62-.01,1.54,0,3.08,0,4.62,0,2.28.91,3.58,3.09,4.32.81.27,1.65.49,2.5.65.84.16,1.7.22,2.64.33v2.51c-.36.02-.7.05-1.04.05-10.62,0-21.24,0-31.86,0-.39,0-.79-.03-1.18-.05,0-.87,0-1.74,0-2.61,3.09-.14,4.4-1.15,4.87-3.71.08-.46.07-.94.07-1.41,0-11.32,0-22.64,0-33.95,0-.83.05-1.66,0-2.48-.11-1.55-.72-2.75-2.28-3.38-.88-.36-1.75-.4-2.65-.33,0-.79,0-1.58,0-2.37Z"></path><path class="cls-1" d="m215.9,221.88v-2.43c.46-.11.9-.24,1.35-.33,2.6-.51,3.12-2.28,3.35-3.97.05-.35.02-.71.02-1.07,0-11.49,0-22.98,0-34.47,0-2.29-.2-4.55-.97-6.73-.67-1.89-1.79-3.41-3.68-4.24-.66-.29-1.33-.46-2.05-.18-.17.06-.41.1-.55.03-.85-.42-1.65-.05-2.39.24-2.46.97-4.13,2.82-5.3,5.14-1.54,3.06-2.3,6.34-2.61,9.73-.16,1.72-.24,3.46-.25,5.18-.03,8.57-.01,17.14-.01,25.71,0,.98.05,1.93.56,2.85.58,1.05,1.56,1.38,2.56,1.73.47.17.99.22,1.57.35v2.47h-30.25v-2.29c.41-.11.86-.22,1.29-.35,2.22-.69,2.98-1.8,3.22-4.24.03-.27,0-.55,0-.83,0-19.59,0-39.17-.02-58.76,0-.92-.1-1.91-.46-2.73-.52-1.2-1.71-1.67-2.96-1.87-.38-.06-.77-.05-1.23-.08v-2.41c.72-.38,1.54-.81,2.37-1.25,3.53-1.89,7.06-3.79,10.6-5.66,2.94-1.55,5.9-3.08,8.86-4.59,2.06-1.06,2.07-1.04,3.87-.81v35.54c.06,0,.11.02.17.03.71-1.12,1.37-2.26,2.13-3.34.7-.99,1.41-1.99,2.27-2.82,2.6-2.51,5.69-4.18,9.21-5.02,2.86-.68,5.74-.78,8.67-.46,1.93.21,3.79.57,5.6,1.27,2.79,1.09,5.05,2.89,6.82,5.27,2.08,2.8,3.11,6.01,3.61,9.45.31,2.12.36,4.23.36,6.35,0,10.62,0,21.24,0,31.87,0,.95.04,1.88.46,2.77.57,1.19,1.48,1.91,2.76,2.17.46.09.92.2,1.43.31.25.81.09,1.63-.02,2.48h-30.39Z"></path><path class="cls-1" d="m283.85,182.76c0-.38,0-.65,0-.92,0-2.69.05-5.37-.03-8.05-.04-1.48-.13-3.01-.51-4.43-.44-1.66-.97-3.32-1.99-4.79-2.08-3.01-6.16-2.81-7.86.32-1,1.82-1.42,3.8-1.95,5.77-.63,2.35-1.2,4.72-2.33,6.89-1.18,2.25-2.86,3.96-5.41,4.56-2.05.48-4.1.48-6.07-.44-2.56-1.2-3.66-3.35-3.88-6.02-.38-4.58,1.8-7.92,5.3-10.57,2.74-2.07,5.91-3.2,9.18-4.1,4.61-1.27,9.34-1.41,14.06-1.12,2.28.14,4.52.73,6.73,1.4,3.87,1.17,7.12,3.3,9.77,6.32,2.52,2.86,4.07,6.2,4.94,9.91.28,1.2.58,2.39.67,3.62.09,1.25.23,2.51.23,3.76.02,9.08.01,18.16.01,27.25,0,.28.03.56,0,.83-.26,2.34.99,3.8,2.89,4.81,1.21.65,2.47,1.19,3.76,1.81v2.19c-1,.26-22.33.25-23.37-.04-.1-.58-.21-1.22-.33-1.86-.28-1.5-.56-3-.85-4.5-.2-1.03-.41-2.06-.65-3.08-.12-.51-.3-1.01-.6-1.47-.04-.59-.07-1.18-.11-1.76-.05-.01-.1-.03-.14-.04-.16.54-.37,1.06-.48,1.61-.94,4.44-3.39,7.8-7.23,10.17-1.96,1.21-4.12,1.85-6.36,2.37-1.51.35-3.03.5-4.55.52-3.41.04-6.73-.63-9.8-2.14-4.72-2.33-7.71-6.07-8.85-11.26-.9-4.09-.56-8.05,1.19-11.86,1.04-2.27,2.52-4.22,4.33-5.97,1.83-1.76,3.88-3.19,6.12-4.34,1.46-.75,2.98-1.4,4.5-2.03,1.48-.61,2.96-1.15,4.6-1.33,1.84-.2,3.64-.82,5.47-1.13,1.82-.3,3.66-.46,5.49-.63,1.32-.12,2.65-.15,4.07-.22Zm0,3.55c-.53,0-.93-.07-1.3.01-1.57.35-3.16.62-4.67,1.14-3.4,1.16-5.82,3.5-7.46,6.66-1.37,2.63-1.86,5.49-1.94,8.41-.05,1.8.12,3.61.21,5.42.09,1.76.62,3.39,1.47,4.92,1.77,3.22,6.13,4.51,9.19,1.13,1.28-1.41,1.98-3.11,2.61-4.84.43-1.16.62-2.41.92-3.62.1-.39.37-.76.41-1.16.22-2.19.47-4.38.54-6.57.09-2.88.03-5.76.04-8.64,0-.9,0-1.81,0-2.86Z"></path><path class="cls-1" d="m511.82,182.71c.02-.34.04-.57.04-.8,0-3,0-6-.03-9-.02-2.26-.48-4.45-1.39-6.52-.62-1.42-1.48-2.66-2.9-3.44-1.86-1.02-3.84-.59-5.14.82-.54.59-.93,1.34-1.31,2.07-1.13,2.17-1.38,4.62-2.05,6.93-.52,1.78-1.05,3.54-1.97,5.16-1.57,2.79-3.9,4.33-7.17,4.39-1.64.03-3.23-.1-4.67-.95-2.06-1.22-3.02-3.15-3.24-5.46-.48-4.92,1.84-8.45,5.7-11.17,2.94-2.07,6.25-3.27,9.73-4.03,4.14-.9,8.34-1.17,12.56-.9,5.02.32,9.74,1.71,13.83,4.78,3.26,2.45,5.55,5.63,7.03,9.42.82,2.09,1.39,4.25,1.76,6.45.23,1.35.28,2.74.29,4.12.02,9.28,0,18.56,0,27.84,0,.32.04.64,0,.95-.27,1.88.8,3.06,2.2,3.97,1.01.66,2.16,1.12,3.25,1.65.39.19.79.35,1.22.54v2.31h-23.42c-.18-1.22-.39-2.44-.54-3.66-.08-.67-.13-1.32-.71-1.76.15-.72.22-1.33-.14-1.99-.28-.53-.11-1.31-.43-1.8-.36-.56-.38-1.15-.56-1.72-.09-.29-.02-.63-.05-.94-.02-.18-.11-.35-.25-.78-.26.87-.46,1.5-.64,2.13-1.45,5.09-4.6,8.64-9.53,10.63-1.43.57-2.92.85-4.4,1.2-2.42.57-4.84.53-7.25.15-3.02-.47-5.99-1.16-8.6-2.9-3.42-2.27-5.7-5.4-6.68-9.36-1.15-4.64-.84-9.2,1.42-13.52,1.14-2.19,2.63-4.16,4.56-5.67,1.85-1.44,3.82-2.73,5.93-3.83,1.54-.81,3.18-1.35,4.73-2.13.49-.25,1.08-.35,1.62-.53,2.7-.9,5.48-1.51,8.29-1.88,2.57-.34,5.16-.48,7.74-.7.35-.03.7-.04,1.17-.07Zm.05,3.62c-.52,0-.92-.06-1.29.01-1.65.31-3.27.7-4.88,1.27-2.9,1.04-4.99,2.93-6.58,5.46-1.82,2.9-2.49,6.16-2.63,9.51-.08,1.8.02,3.63.23,5.42.25,2.11.87,4.11,2.2,5.87,1.56,2.08,5.53,3.21,8.1.57.78-.8,1.42-1.79,1.95-2.79.55-1.03.87-2.18,1.32-3.26.45-1.07.49-2.24.77-3.34.43-1.74.65-3.55.72-5.35.12-3.15.07-6.31.09-9.47,0-1.26,0-2.52,0-3.91Z"></path><path class="cls-1" d="m86.19,182.77c.02-.25.04-.49.04-.72,0-2.92.05-5.84-.01-8.76-.06-2.98-.68-5.85-2.31-8.4-.43-.68-1.04-1.31-1.7-1.76-2.05-1.41-4.69-.61-5.93,1.18-.94,1.35-1.43,2.88-1.87,4.43-.64,2.25-1.22,4.51-1.91,6.75-.4,1.32-1.09,2.5-1.86,3.66-1.16,1.72-2.87,2.6-4.76,3.05-1.8.43-3.65.35-5.42-.36-1.63-.65-2.84-1.79-3.45-3.37-1.23-3.17-.96-6.3.75-9.27,1.74-3.03,4.47-4.89,7.56-6.31.93-.43,1.86-.86,2.83-1.15,2.32-.7,4.67-1.26,7.09-1.55,2.11-.25,4.22-.42,6.35-.42,2.4,0,4.77.27,7.12.75,2.31.47,4.54,1.16,6.62,2.3,3.53,1.94,6.33,4.6,8.36,8.1,1.47,2.55,2.42,5.28,2.9,8.15.36,2.12.57,4.28.57,6.45-.04,9.16.04,18.32-.06,27.48-.03,2.33,1.12,3.7,2.89,4.73,1.21.7,2.55,1.18,4,1.82,0,.28,0,.71,0,1.13,0,.38-.03.77-.06,1.2h-23.36c-.9-4.08-1.79-8.16-2.74-12.48-.35,1.04-.62,1.86-.9,2.67-.87,2.58-2.27,4.81-4.24,6.71-2.17,2.08-4.76,3.29-7.61,4.05-1.79.48-3.62.75-5.46.84-1.17.05-2.36-.07-3.52-.21-1.16-.14-2.34-.29-3.45-.62-4.32-1.29-7.88-3.64-10.21-7.6-1.3-2.2-2.11-4.57-2.22-7.13-.08-1.85-.08-3.71.06-5.56.07-.99.5-1.95.77-2.92.69-.2.55-.9.77-1.36,2.14-4.51,5.66-7.65,9.95-9.98,1.62-.88,3.32-1.61,5.05-2.27,1.38-.52,2.84-.82,4.27-1.21.9-.25,1.81-.52,2.72-.7,1.3-.26,2.62-.5,3.94-.65,2.7-.32,5.4-.61,8.12-.55.1,0,.21-.07.33-.12Zm.05,3.6c-1.37-.26-2.58,0-3.76.25-3.11.68-5.72,2.18-7.84,4.64-1.86,2.16-2.82,4.7-3.43,7.37-.39,1.71-.38,3.52-.37,5.29.02,1.72.21,3.44.44,5.15.22,1.6.75,3.11,1.68,4.47,2.03,2.97,6.17,3.33,8.49.83,1.78-1.92,2.73-4.3,3.34-6.8.38-1.56.63-3.15.84-4.74.25-1.9.51-3.82.57-5.73.09-3.19.03-6.39.03-9.59,0-.35,0-.7,0-1.14Z"></path><path class="cls-1" d="m373.67,188.98h-40.33c-.05.2-.11.34-.11.49-.16,4.66.2,9.28,1.41,13.79.94,3.49,2.4,6.73,4.99,9.36,1.32,1.34,2.91,2.24,4.56,3.1,1.17.61,2.43.81,3.67.93,2.51.23,5.05.27,7.5-.48,2.19-.67,4.21-1.68,6.03-3.09,3.83-2.95,6.14-6.89,7.34-11.52.46-1.77.78-3.58,1.18-5.47h3.51c0,.74.07,1.52-.01,2.28-.61,5.56-2.29,10.74-5.78,15.2-2.58,3.29-5.88,5.68-9.71,7.29-2.72,1.14-5.55,1.92-8.52,2.1-.12,0-.24-.01-.35.02-2.89.89-5.84.61-8.78.37-2.58-.21-5.11-.67-7.62-1.37-2.55-.71-4.97-1.7-7.24-3.05-5.46-3.24-9.29-7.87-11.72-13.72-.98-2.36-1.75-4.77-2.2-7.29-.1-.54-.13-1.1-.16-1.65-.1-2.15-.56-4.28-.2-6.45.18-1.08.16-2.2.28-3.29.34-3.18,1.17-6.22,2.53-9.13,1.15-2.47,2.54-4.78,4.34-6.83,2.78-3.18,6.06-5.68,9.9-7.48,2.89-1.36,5.93-2.26,9.05-2.77,3.18-.52,6.42-.78,9.65-.53,5.52.42,10.75,1.72,15.39,4.94,4.21,2.92,7.21,6.78,9.15,11.47,1.11,2.68,1.76,5.51,2.09,8.42.16,1.41.21,2.81.17,4.37Zm-20.74-3.94c-.1-1.49-.22-2.86-.28-4.23-.14-3.34-.63-6.64-1.5-9.87-.6-2.24-1.4-4.43-2.87-6.28-1.08-1.36-2.43-2.19-4.27-2.09-1.59.09-2.9.74-3.97,1.83-2.67,2.72-4.01,6.15-4.92,9.76-.46,1.86-.78,3.75-1.12,5.64-.31,1.7-.44,3.42-.34,5.23h19.26Z"></path><path class="cls-1" d="m171.36,194.66h3.46c.2,1,.21,2.03.04,3.08-.26,1.5-.41,3.03-.74,4.51-.27,1.22-.72,2.41-1.12,3.61-.39,1.17-.66,2.42-1.27,3.47-1,1.72-2.16,3.37-3.38,4.94-.88,1.14-1.91,2.19-3.01,3.13-.98.83-2.1,1.51-3.22,2.16-1.63.95-3.34,1.74-5.13,2.39-.83.3-1.69.31-2.51.6-.84.3-1.77.34-2.65.53-3.4.72-6.83.44-10.25.37-.69-.01-1.38-.11-2.06-.23-.62-.11-1.23-.3-1.84-.46-.11-.03-.23-.1-.34-.09-1.25.08-2.27-.67-3.42-.92-1.73-.38-3.3-1.2-4.96-1.79-.41-.15-.85-.3-1.16-.58-.97-.88-2.14-1.44-3.2-2.17-1.99-1.36-3.57-3.12-5.13-4.89-1.42-1.61-2.54-3.45-3.48-5.39-1.51-3.12-2.49-6.4-3.01-9.85-.36-2.35-.5-4.7-.39-7.06.25-5.22,1.62-10.11,4.31-14.64,1.66-2.78,3.81-5.12,6.19-7.26,1.83-1.65,3.94-2.93,6.15-4.04,3.23-1.62,6.6-2.82,10.18-3.42,1.82-.3,3.63-.53,5.46-.72,1.97-.21,3.93-.27,5.88-.15,5.98.38,11.7,1.7,16.74,5.18,2.47,1.7,4.54,3.77,6.01,6.39,1.24,2.21,2.03,4.6,1.5,7.12-.25,1.18-.44,2.54-1.51,3.46-.56.48-.97,1.13-1.55,1.57-1.12.84-2.49,1.18-3.83,1.34-2.05.24-4.07.06-6-.84-2.39-1.12-3.74-3.08-4.55-5.45-.6-1.74-1.01-3.53-1.25-5.37-.31-2.37-.76-4.71-1.75-6.93-1.05-2.36-2.78-3.59-5.38-3.67-2.03-.06-3.91.45-5.59,1.51-1.2.76-2.17,1.78-3.01,2.99-1.15,1.66-2.02,3.42-2.8,5.25-.96,2.25-1.58,4.61-2,7-.84,4.82-1.25,9.69-.97,14.58.29,5.04,1.07,10,3.56,14.51,2.08,3.75,4.94,6.57,9.16,7.86,2.67.82,5.32.75,8.03.17,3.59-.76,6.59-2.52,9.05-5.17,2.68-2.87,4.32-6.34,5.46-10.07.64-2.1.9-4.27,1.25-6.57Z"></path><path class="cls-1" d="m405.96,219.54v2.2c-.87.23-28.7.29-30.33.07v-2.38c.55-.12,1.12-.22,1.67-.38,1.72-.52,2.86-1.94,3-3.75.03-.39.02-.79.02-1.18,0-19.62,0-39.24,0-58.86,0-.78-.16-1.55-.26-2.33-.07-.59-.46-.91-.95-1.21-1.03-.63-2.13-.98-3.32-1-.71-.69-.03-1.52-.36-2.28.66-.37,1.26-.74,1.88-1.06,3.34-1.75,6.7-3.46,10.04-5.23,3.71-1.97,7.41-3.97,11.11-5.97.9-.49,1.84-.28,2.87-.3.02.36.07.7.07,1.04,0,25.74,0,51.47,0,77.21,0,.7.09,1.41.23,2.1.35,1.76,1.66,2.54,3.23,3.02.33.1.68.17,1.11.27Z"></path><path class="cls-1" d="m459.96,219.35v2.5c-.41.03-.83.08-1.25.08-10.66,0-21.32,0-31.98,0-.19,0-.38-.02-.64-.03v-2.33c.5-.16,1.05-.33,1.59-.49,2.13-.62,2.7-1.96,3.07-4.02.06-.35.03-.71.03-1.06,0-11.69,0-23.37,0-35.06,0-.62-.03-1.27-.17-1.87-.46-1.95-1.74-2.97-3.76-3.08-.27-.01-.54-.03-.97-.05,0-.45,0-.87,0-1.29,0-.39,0-.77,0-1.06,6.19-3.64,12.26-7.2,18.32-10.75.58-.34,1.18-.64,1.73-1,1-.66,2.07-.92,3.39-.63.06.4.17.85.18,1.3.03,1.55-.03,3.12.09,4.66.23,2.83.36,5.66.5,8.49.02.47.15.93.23,1.4.53-1.49.99-2.97,1.57-4.41,1.43-3.54,3.54-6.58,6.79-8.69,1.9-1.24,3.97-2.03,6.27-2.18,2.22-.14,4.37.08,6.44.95,3.38,1.42,5.41,3.94,6.1,7.52.57,2.93.08,5.69-1.68,8.13-1.49,2.06-3.63,3.07-6.13,3.31-3.15.31-5.56-.98-7.42-3.47-.66-.88-1.36-1.72-2.06-2.56-.3-.36-.63-.71-1-1-1.54-1.21-3.76-.89-4.85.74-1.05,1.57-1.71,3.32-1.96,5.21-.57,4.34-.74,8.7-.72,13.07.03,7.3,0,14.61.01,21.91,0,.67-.04,1.36.12,2,.31,1.24,1.14,2.06,2.32,2.6,1.65.76,3.41.85,5.15,1.12.19.03.38.03.7.06Z"></path><path class="cls-1" d="m204.48,263.53h-10.2c-2.52-4.99-5.07-10.03-7.61-15.06l-.21.04v14.97h-9.61v-28.63c.85-.24,8.22-.33,11.97-.12,1.96,4.19,3.95,8.44,5.94,12.68.08-.02.16-.04.24-.06v-12.61h9.48v28.8Z"></path><path class="cls-1" d="m429.05,248.61v14.87h-9.54v-28.74h11.93c1.98,4.23,3.99,8.5,6,12.78.06-.01.11-.02.17-.03v-12.72h9.52v28.76h-10.19c-.3-.54-.63-1.09-.92-1.67-1.68-3.35-3.34-6.71-5.02-10.06-.54-1.08-1.1-2.14-1.64-3.21-.1-.11-.21-.22-.31-.33,0,.12,0,.24,0,.36Z"></path><path class="cls-1" d="m407.7,247.89c.06.59.11,1.18.17,1.77-.02.36-.04.71-.06,1.07-.05.41-.1.82-.14,1.23-.07.23-.14.46-.21.69-1.04,5.2-4.13,8.63-9.07,10.42-2.61.95-5.33,1.12-8.1,1-2.43-.1-4.7-.7-6.85-1.79-3.18-1.61-5.21-4.19-6.44-7.52-.82-2.23-.84-4.53-.74-6.82.25-5.49,2.93-9.48,7.81-11.93,3.65-1.84,7.51-2.16,11.55-1.43,1.62.29,3.15.79,4.6,1.41,3.29,1.42,5.59,3.94,6.78,7.35.42,1.19.54,2.47.8,3.72-.04.28-.07.56-.11.84Zm-11.07,1.47c0-.45.02-.77,0-1.08-.11-1.26-.27-2.5-.95-3.61-.91-1.5-2.28-2.08-3.99-2-1.67.08-2.84.91-3.48,2.4-.35.82-.55,1.72-.67,2.61-.24,1.9-.12,3.79.64,5.56.69,1.6,1.98,2.4,3.72,2.43,1.72.02,3.14-.68,3.82-2.27.56-1.3,1.1-2.68.92-4.04Z"></path><path class="cls-1" d="m320.76,263.38c-.31-1.17-.62-2.35-.94-3.57h-8.11c-.31,1.2-.61,2.41-.94,3.68h-10.03c2.87-9.66,5.97-19.18,8.8-28.78h13.91c1.47,4.71,2.98,9.48,4.45,14.27,1.48,4.81,2.92,9.63,4.38,14.47-1.69.2-10.69.14-11.53-.07Zm-2.72-10.97c-.71-2.81-1.39-5.51-2.07-8.21-.67,1.21-1.01,2.52-1.27,3.88-.28,1.43-.71,2.83-1.1,4.33h4.44Z"></path><path class="cls-1" d="m340.79,254.16h10.04c.06.27.09.57.18.86.54,1.67,2.3,2.47,4.24,1.56.58-.27.79-.87.77-1.5-.01-.58-.33-1-.86-1.16-.75-.23-1.51-.41-2.29-.52-.88-.13-1.8-.08-2.67-.27-1.21-.26-2.38-.69-3.57-1.01-.63-.17-1.2-.44-1.77-.78-2.12-1.26-3.22-3.12-3.52-5.52-.38-2.95.11-5.66,2.14-7.95,1.52-1.71,3.5-2.63,5.68-3.17,2.21-.55,4.46-.65,6.69-.33,1.45.21,2.94.36,4.31,1.02,2.78,1.33,4.59,3.38,4.99,6.52.08.6.25,1.19.4,1.88h-9.87c-.31-.63-.5-1.25-.88-1.71-.91-1.1-2.69-.83-3.22.43-.31.73-.14,1.34.58,1.67.67.3,1.39.56,2.11.68,1.37.22,2.78.26,4.14.51,2.73.49,5.31,1.35,6.84,3.92,1.11,1.87,1.32,3.91.93,6.03-.11.57-.15,1.16-.33,1.71-1.14,3.42-3.59,5.35-7,6.36-3.21.95-6.45.94-9.65.37-3.44-.61-6.46-2.06-7.84-5.64-.48-1.25-.76-2.54-.61-3.94Z"></path><path class="cls-1" d="m231.75,254.14h10.07c.13,1.26.67,2.25,2.28,2.82,1.81.26,3.17-.49,2.77-2.46-.71-.93-1.84-1.01-2.92-1.1-2.49-.23-4.92-.65-7.23-1.65-2.12-.91-3.56-2.41-4.14-4.69-1.46-5.72,1.1-10.31,6.58-12.1,2.56-.84,5.18-.87,7.81-.61,1,.1,2.01.3,2.97.6,2.99.94,5.16,2.77,6.03,5.88.26.92.37,1.88.57,2.93h-9.87c-.21-.46-.38-.99-.66-1.44-.55-.87-1.58-1.16-2.48-.78-.64.27-1.09.92-1.08,1.55,0,.72.49,1.07,1.07,1.25.77.24,1.55.42,2.38.52,2.66.32,5.37.52,7.79,1.9,1.71.97,2.87,2.38,3.32,4.25.43,1.74.52,3.53.05,5.32-.91,3.51-3.21,5.68-6.53,6.85-1.97.7-4.01.93-6.11.91-2.12-.01-4.24-.14-6.23-.82-1.74-.59-3.38-1.49-4.57-3-1.11-1.4-1.69-3.01-1.86-4.77-.04-.43,0-.86,0-1.39Z"></path><path class="cls-1" d="m279.65,242.94v2.36h8.46v7.39h-8.46c-.02.52-.03.94-.04,1.35,0,.38,0,.77,0,1.23h11.39v8.22h-21.9c-.24-.91-.34-24.78-.12-28.75h21.44v8.2h-10.77Z"></path><path class="cls-1" d="m152.9,234.71h10.75v28.78h-10.64c-.23-.86-.33-25.89-.1-28.78Z"></path><path class="cls-1" d="m407.8,250.73c.02-.36.04-.71.06-1.07-.02.36-.04.71-.06,1.07Z"></path><path class="cls-1" d="m407.7,247.89c.04-.28.07-.56.11-.84.29.32.34.61-.11.84Z"></path><path class="cls-1" d="m407.45,252.65c.07-.23.14-.46.21-.69-.07.23-.14.46-.21.69Z"></path><path class="cls-1" d="m429.05,248.61c0-.12,0-.24,0-.36.1.11.21.22.31.33-.1,0-.21.02-.31.03Z"></path></svg> 