<?xml version="1.0" encoding="UTF-8"?> <svg xmlns="http://www.w3.org/2000/svg" id="Layer_1" width="600" height="400" viewBox="0 0 600 400"><defs><style>.cls-1{fill:rgba(60,51,130,.95);}</style></defs><path class="cls-1" d="m393.38,101.65l-21.82,1.31-.42.03v2.17h9.34v90.5l-10.65.66v2.17h35.85v-2.17h0l-10.51-.66v-49.36c7.52-7.76,11.43-10.12,16.65-10.12,7.22,0,10.74,4.5,10.74,13.76v45.74l-8.02.66v2.17h33.23v-2.17l-10.51-.66v-44.94c0-12.62-6.51-20.16-17.41-20.16-9.03,0-16.22,3.54-23.98,11.83h-.69v-40.76h-1.78Zm-50.14,14.47l-12.49,15.79-9.95.67v2.17h9.73v48.85h0c0,11.06,4.57,16.22,14.38,16.22,6.29,0,11.81-1.39,18.46-4.65l.25-.12v-2.25l-.61.25c-4.02,1.64-6.89,2.33-9.56,2.33-5.08,0-8.24-2.1-8.24-12.57v-48.07h18.41v-2.86h-18.41v-15.77h-1.97Zm-116.24,14.45c-13.92,0-26.6,7.61-26.6,15.95,0,4.16,3.38,7.54,7.54,7.54,5.48,0,7.93-3.72,7.93-7.41s-2.56-7.1-8.28-7.15v-.67c3.35-2.85,9.7-5.15,14.28-5.15,8.4,0,12.31,4.03,12.31,12.7v15.85l-17.32,5.82h0c-9.44,3.35-19.09,8.01-19.09,17.25s6.16,14.51,15.69,14.51c7.77,0,12.84-2.43,19.98-7.22h.73v7.22h1.77l23.44-1.34v-2.17h-10.52v-48.34c0-11.22-7.77-17.4-21.87-17.4Zm80.31,0c-6.65,0-12.33,5.4-18.41,17.49h-.61v-17.48h-1.79l-21.82,1.31-.41.02v2.17h9.33v61.58l-10.65.66v2.18h35.85v-2.17l-10.52-.66v-40.5c4-8.91,7.07-14.02,10.25-17.01h.73c.57,5.96,4.73,8.68,8.43,8.68,3.89,0,8.07-2.65,8.07-8.47,0-4.38-3.71-7.8-8.47-7.8Zm175.09,0c-13.92,0-26.61,7.61-26.61,15.95,0,4.17,3.38,7.54,7.54,7.54,5.48,0,7.93-3.72,7.93-7.41s-2.56-7.1-8.28-7.15v-.67c3.36-2.85,9.71-5.15,14.28-5.15,8.4,0,12.31,4.03,12.31,12.7v15.85l-17.32,5.82h0c-9.44,3.35-19.09,8.01-19.09,17.25s6.16,14.51,15.7,14.51c7.77,0,12.84-2.43,19.98-7.22h.75v7.22h1.76l23.44-1.34v-2.17h-10.52v-48.34c0-11.22-7.77-17.4-21.86-17.4Zm-383.85,0l-21.82,1.31-.42.02v2.17h9.33v61.58l-10.65.66v2.18h35.85v-2.17h0l-10.51-.66v-49.36c7.35-7.59,10.7-10.12,15.86-10.12,7.06,0,10.2,4.24,10.2,13.76v45.74l-8.02.66v2.17h33.23v-2.17l-10.52-.66v-48.74c6.13-7.64,10.73-10.75,15.86-10.75,7.06,0,10.2,4.24,10.2,13.75v45.74l-8.02.66v2.16h33.23v-2.17l-10.52-.66v-44.94c0-12.62-6.5-20.16-17.4-20.16-9.16,0-16.27,3.93-23.75,13.14h-.49c-1.88-8.36-7.88-13.14-16.53-13.14-9.97,0-16.09,4.52-22.67,11.83h-.67v-11.83h-1.79Zm135.63,33.94v25.39c-3.68,1.75-6.81,2.47-10.73,2.47-6.68,0-11-4.16-11-10.6s2.98-10.46,10.62-13.25l11.11-4Zm255.4,0v25.39c-3.68,1.75-6.81,2.47-10.74,2.47-6.68,0-11-4.16-11-10.6s2.98-10.46,10.62-13.25l11.11-4Z"></path><path class="cls-1" d="m157.6,214.65l-12.49,15.79-9.95.67v2.16h9.73v48.87c0,11.06,4.57,16.21,14.38,16.21,6.29,0,11.81-1.38,18.47-4.64l.25-.12v-2.24l-.61.25c-4.02,1.63-6.89,2.33-9.56,2.33-5.08,0-8.24-2.11-8.24-12.58v-48.08h18.41v-2.85h-18.41v-15.77h-1.98Zm347.02,0l-12.5,15.79-9.94.67v2.16h9.72v48.87c0,11.06,4.56,16.21,14.38,16.21,6.3,0,11.83-1.38,18.47-4.64l.25-.12v-2.24l-.61.25c-4.02,1.63-6.88,2.33-9.57,2.33-5.08,0-8.23-2.11-8.23-12.58v-48.08h18.41v-2.85h-18.41v-15.77h-1.97Zm-400.69,14.45c-14.1,0-23.58,7.58-23.58,18.85s6.9,16.1,18.01,20.66c8.33,3.64,15.52,6.79,15.52,14.98,0,7.44-5.32,12.44-13.23,12.44-4.28,0-7.93-1.8-10.84-5.37-2.86-3.23-5.34-7.49-7.55-13.02l-.1-.27h-2.06v20.99h2.16l.62-6.72c4.38,3.17,11.2,6.72,19.76,6.72,15.21,0,25.42-8.26,25.42-20.55s-10.08-17.48-21.32-22.1c-6.6-2.57-13.65-5.97-13.65-13.79,0-6.07,4.63-10.47,10.99-10.47,3.77,0,7.3,1.42,10.47,4.21,3.58,3.59,6.34,8.21,8.44,14.16l.1.29h2.07v-20.99h-2.16l-.62,6.32c-7.16-5.21-13.95-6.33-18.44-6.33Zm113.31,0c-16.62,0-33.45,11.99-33.45,34.89,0,9.19,2.97,17.68,8.36,23.9,5.92,6.84,14.27,10.45,24.16,10.45,14.67,0,24-11.01,26.46-21.24l.13-.54h-2.15l-.12.24c-2.85,5.57-11,11.33-19.72,11.33-13.26,0-22.55-12-22.7-29.23h43.18l.07-.37c.46-2.89.66-4.99.66-6.77,0-16.71-12.85-22.66-24.89-22.66Zm230.4,0l-22.24,1.35v2.16h9.33v61.6l-10.65.66v2.17h35.85v-2.17l-10.53-.66v-40.51c4-8.91,7.08-14.01,10.25-17.01h.73c.57,5.96,4.72,8.68,8.42,8.68,3.89,0,8.07-2.65,8.07-8.46,0-4.37-3.71-7.8-8.45-7.8-6.65,0-12.33,5.4-18.41,17.49h-.61v-17.49h-1.77Zm-62.14,0c-13.93,0-26.6,7.61-26.6,15.95,0,4.16,3.38,7.54,7.54,7.54,5.48,0,7.93-3.73,7.93-7.42s-2.56-7.1-8.28-7.14v-.67c3.36-2.85,9.71-5.15,14.29-5.15,8.4,0,12.31,4.04,12.31,12.71v15.86l-17.32,5.81c-9.44,3.34-19.1,8-19.1,17.24s6.17,14.5,15.7,14.5c7.79,0,12.85-2.44,19.98-7.23h.75v7.23h1.76l23.02-1.31.42-.02v-2.16h-10.52v-48.34c0-11.22-7.77-17.4-21.87-17.4Zm-140.18,1.31v2.16l7.88.67,23.56,64.15.11.3h9.44l12.72-40.14,1.69-5.42,15.47,45.26.1.3h9.45l19.61-61.87,11.73-3.22.32-.09v-2.1h-25.34v2.08l10.41,3.25-14.89,48.45h-.66l-15.65-50.96,10.62-.63.42-.02v-2.17h-35.86v2.16l8,.66,4.99,14.71-11.3,36.24h-.67l-17.33-50.96,9.17-.64v-2.17h-34.02Zm-28.73.88c5.38,0,11.13,4.07,11.13,15.47,0,2.77-.5,5.86-1.12,9.3l-28.08.64c1.07-16.15,7.64-25.4,18.07-25.4Zm176.09,31.74v25.39c-3.68,1.75-6.81,2.47-10.74,2.47-6.68,0-10.99-4.16-10.99-10.6s2.98-10.47,10.62-13.26l11.11-4Z"></path></svg> 