<?xml version="1.0" encoding="UTF-8"?> <svg xmlns="http://www.w3.org/2000/svg" id="Layer_1" width="600" height="400" viewBox="0 0 600 400"><defs><style>.cls-1{fill:#3c3382;}</style></defs><path class="cls-1" d="m519.81,172.66c1.8-1.6,4.6-1.9,6.6-.8,2.2,1.1,3.5,3.5,3.6,5.9.2,2.8-.9,5.5-2.7,7.5-2.6,2.9-6.2,4.6-9.9,5.7-.7-1.1-1.4-2.3-2.1-3.4,3.4-1,7-2.5,8.9-5.7-1.6-.3-3.3-.7-4.5-1.9-1.9-1.8-1.9-5.4.1-7.3h0Z"></path><path class="cls-1" d="m532.71,175.26c2,2,2.5,5.1,2,7.8-.3,2.7-1.7,5-3.5,6.9-2.8,2.9-6.5,4.9-10.3,6.2-.7-1-1.4-2-2-3,3.8-1.1,7.5-3,10.4-5.9,3.1-3.1,4.3-7.7,3.4-12h0Z"></path><path class="cls-1" d="m28.01,181.56c10.2-4.1,22.2-2.9,31.7,2.7-1.8,2.4-3.6,4.7-5.4,7-5.5-2.8-11.7-4.2-17.8-3.1-5.8.8-11.3,4.1-14.2,9.2-2.7,4.5-2.8,10.2-.7,14.9,1.8,4.2,5.6,7.4,9.9,8.8,4.4,1.5,9.3,1.3,13.7,0,4.7-1.3,9.3-4,12.3-7.9,1-1.3,1.9-2.8,2.7-4.2,2.5,1.6,4.9,3.1,7.4,4.7-1.5,2.8-3.3,5.5-5.6,7.7-3.2,3.2-7.3,5.5-11.6,7.1-4,1.5-8.2,2.7-12.5,2.6-6.5.1-13.2-2-18.1-6.3-4.2-3.5-7-8.6-8.1-13.9-1.2-5.7-.3-11.8,2.5-16.8,2.7-5.8,7.8-10.2,13.8-12.5h0Z"></path><g><path class="cls-1" d="m369.01,197.76c3.8-.8,7.5-3.1,9.6-6.5,2.2-3.7,2.7-8.5,1.1-12.6-.9-2.2-2.4-4.2-4.3-5.7,5.2-4.3,6.2-12.6,2.2-18-2.8-3.7-7.4-5.6-11.8-6-10.2-.7-20.4-1.2-30.6-1.6-.6,16.5-1.2,32.9-1.9,49.4,7.7.3,15.3.7,22.9,1.2,4.2.1,8.6.8,12.8-.2Zm-25-41.4c7,.3,14,.7,20.9,1.2,2.2.2,4.8,1,5.6,3.3.7,2.4.1,5.3-2,6.8-1.4,1-3.1,1.2-4.7,1-6.8-.4-13.5-.8-20.3-1.2.1-3.6.3-7.3.5-11.1Zm-.9,19.9c6.6.3,13.2.7,19.8,1.1,2.5.2,5.2.5,7.2,2.2,1.6,1.4,1.7,3.7,1.3,5.7-.3,1.4-1.1,2.6-2.3,3.3-1.9,1.1-4.1,1.2-6.3,1.1-6.8-.4-13.6-.9-20.4-1.2.3-4.1.5-8.1.7-12.2Z"></path><path class="cls-1" d="m382.11,176.26c4.9-6,4.9-15.9-.9-21.4,2.8,5.7,2.3,13-1.8,18,4.4,4.9,5.3,12.4,2.4,18.3-2.3,5-7.3,8.4-12.6,9.4-4.4,1-9,.3-13.5.1-7.5-.4-15.1-.8-22.7-1.1,1.1,1.1,2.1,2.3,3.2,3.4,8.3.3,16.5.8,24.7,1.3,2.8.2,5.5.4,8.3.1,4.4-.4,8.9-2.1,12.1-5.3,2.7-2.7,4.4-6.4,4.8-10.2.5-4.4-1-9.1-4-12.6Z"></path><path class="cls-1" d="m367.61,161.56c-.7-1-2.1-1-3.2-1.2-5.8-.4-11.7-.7-17.5-1-.1,1.9-.2,3.7-.3,5.5,1,.1,1.9.1,2.9.2,0-.7,0-1.5.1-2.2,6,.2,12,.7,18,1,.1-.7.3-1.5,0-2.3Z"></path><path class="cls-1" d="m367.81,181.46c-1.4-.9-3.1-1-4.7-1.1-5.8-.4-11.5-.7-17.3-1-.1,2.2-.2,4.3-.3,6.4,1,0,1.9.1,2.9.1.1-1,.1-2.1.2-3.1,3.6.1,7.3.4,10.9.6,3.1.2,6.1.3,9.1.8.1-.9.2-2.1-.8-2.7Z"></path></g><path class="cls-1" d="m544.91,183.56c5.5-3.6,12.5-3.8,18.7-2.6,8.5,1.8,16.2,6.6,21.5,13.5-2.3,1.8-4.6,3.4-6.9,5.2-1.8-1.8-3.4-3.7-5.4-5.2-3.7-3-8.3-4.6-12.9-5.3-3.1-.3-6.5-.4-9.3,1.3-2.1,1.2-3,4.3-1.3,6.2s4.3,2.5,6.6,3.1c6.4,1.7,13,3.3,18.5,7.2,2.5,1.9,4.7,4.3,5.6,7.4,1.2,3.7.5,7.7-1.3,11.1-1.9,3.5-5.6,5.7-9.3,6.6-5.6,1.3-11.5.7-17.1-.7-6.4-1.7-12.6-4.8-17.2-9.7-2-2.1-3.6-4.6-5.1-7.1,2.5-1.3,5-2.8,7.5-4.1,2.4,2.8,4.6,5.8,7.6,8,4.6,3.4,10.3,5.2,15.9,5.6,2.8.1,5.8.1,8.3-1.4,2-1.2,2.7-3.8,2.1-5.9-.6-2-2.4-3.4-4.2-4.3-3.5-1.8-7.4-2.7-11.2-3.7-3-.8-6-1.4-8.7-2.9-3.2-1.7-6.1-4.4-7.4-7.9-1.7-5.2.4-11.4,5-14.4h0Z"></path><g><path class="cls-1" d="m214.41,179.56c5.6-.4,11.2-.9,16.8-1.2,3.7,6.3,7.4,12.8,10.9,19.2,3.4-.1,6.7-.3,10-.5-3.5-6.6-7.5-13.1-11.1-19.8,3.2-.9,6.2-2.9,8-5.8,2.1-3.3,2.5-7.3,2-11.1-.4-3.4-2.1-6.7-5-8.7-3.5-2.6-8.1-3.4-12.4-3.1-10.3.6-20.7,1.5-31,2.4,1.5,16.4,2.9,32.8,4.5,49.2,2.9-.3,5.8-.5,8.7-.7-.3-6.7-.9-13.3-1.4-19.9Zm-1.7-20.8c6.6-.7,13.3-1,19.9-1.5,2.5-.1,5.3-.4,7.5,1.2,2.1,1.6,2.4,4.6,1.6,6.9-.9,2.5-3.6,3.8-6.1,4-7.3.5-14.6,1-22,1.6-.2-4.1-.7-8.2-.9-12.2Z"></path><path class="cls-1" d="m248.81,181.56c2.3-1.4,4.3-3.1,5.8-5.4,2.6-4,3.2-9,2.5-13.6-.6-4-2.8-7.8-6-10.3,3.4,4.8,4,11.2,2.4,16.7-1.2,4.2-4.3,7.6-8.1,9.7,3.9,7,7.9,13.9,11.7,21-5.5.3-11.1.5-16.6.8,1.2,1,2.3,2.1,3.5,3,5.5-.1,11.1-.5,16.6-.7-3.9-7.1-7.9-14.1-11.8-21.2Z"></path><path class="cls-1" d="m239.01,163.06c-.1-.9-.1-1.9-.9-2.5-1.3-.8-3-.6-4.5-.6-5.9.4-11.8.8-17.7,1.2.1,2.2.3,4.3.5,6.4,1,0,1.9-.1,2.9-.1-.1-1.1-.2-2.1-.3-3.2,6.8-.3,13.4-.9,20-1.2Z"></path><path class="cls-1" d="m229.51,181.26c-4,.3-7.9.6-11.9.9.3,6.6,1,13.2,1.5,19.8-3.9.3-7.8.6-11.7,1,1.2,1,2.4,2,3.5,3,3.7-.3,7.5-.6,11.3-.9-.5-6.6-1.1-13.2-1.5-19.8,3.5-.3,7.1-.5,10.6-.7-.5-1.2-1.1-2.2-1.8-3.3Z"></path></g><g><path class="cls-1" d="m434.01,203.26c2.9-1.1,5.5-3.2,7-6,1.9-3.5,2.5-7.9,1.1-11.7-.8-2.2-2.1-4.1-3.8-5.6,1.3-1.2,2.6-2.4,3.5-3.9,2.6-4.6,2.5-10.8-.9-15-2.8-3.4-7.1-5.3-11.5-5.8-9.9-1.3-19.8-2.5-29.7-3.5-1.6,16.4-3.3,32.8-5,49.2,9.5.9,18.9,2.1,28.4,3.3,3.6.5,7.4.4,10.9-1Zm-26-41.8c6.8.7,13.7,1.6,20.5,2.5,2.2.3,4.9,1.2,5.7,3.5.7,2.8-.5,6.3-3.3,7.3-2.5.9-5.1,0-7.6-.2-5.5-.7-11-1.4-16.5-2,.3-3.7.8-7.4,1.2-11.1Zm-2.2,19.8c5.8.6,11.7,1.4,17.4,2.1,2.8.4,5.8.6,8.3,2.1,1.3.7,2.3,2.1,2.4,3.7.1,2.1-.4,4.5-2.2,5.7-1.9,1.2-4.3,1.3-6.5,1.1-6.9-.9-13.9-1.8-20.8-2.5.5-4.2,1-8.2,1.4-12.2Z"></path><path class="cls-1" d="m445.41,162.36c2.3,5.9,1.3,13-3,17.7,2,2.7,3.2,5.9,3.4,9.3.2,5.6-2.3,11.3-6.9,14.5-4.4,3.2-10.1,4-15.4,3.4-9.7-1.2-19.3-2.5-29.1-3.4,1,1.2,1.8,2.5,3,3.5,9.2,1,18.4,2.1,27.6,3.3,5.3.7,11.1.1,15.7-2.9,3.8-2.4,6.4-6.6,7.2-11,.9-4.6-.3-9.4-3-13.1,5.2-5.7,5.8-15.4.5-21.3Z"></path><path class="cls-1" d="m430.91,167.66c-.8-.7-2-.8-3-1-5.7-.7-11.5-1.5-17.2-2.1-.1,1.8-.4,3.7-.6,5.5.9.1,1.9.2,2.9.3.1-.7.2-1.5.3-2.2,6,.6,11.9,1.5,17.9,2.2,0-.8.5-2-.3-2.7Z"></path><path class="cls-1" d="m430.31,188.06c-1.5-1.2-3.6-1.3-5.5-1.6-5.5-.7-10.9-1.4-16.4-2-.2,2.1-.5,4.3-.7,6.4.9.1,1.9.2,2.8.3.1-1,.3-2.1.4-3.1,2.8.3,5.6.7,8.4,1,3.8.6,7.8.8,11.6,1.7,0-1,.2-2-.6-2.7Z"></path></g><path class="cls-1" d="m55.11,194.86c2.4-3.1,4.8-6.2,7.2-9.3,1.3.7,2.6,1.5,3.8,2.2-2.5,3.2-4.9,6.5-7.5,9.7-3.5-1.6-7-3.4-10.9-4-4.3-.6-8.7-.2-12.7,1.6-3.4,1.6-6.3,4.5-7.6,8.1-1.2,3.4-.9,7.4.6,10.7.7,1.5,1.8,2.7,2.8,4-3.1-1.3-5.6-3.9-6.9-7-1.4-3.5-1.4-7.7.3-11.2,1.8-3.7,5.2-6.4,9-7.7,4.4-1.5,9.3-1.5,13.7-.3,3,.7,5.6,2.1,8.2,3.2h0Z"></path><g><path class="cls-1" d="m319.81,196.26c-7.1-16.8-14.6-33.3-22.4-49.7-3.1,0-6.3.1-9.4.1-7.8,16.5-15.2,33.1-22.3,49.9,3.2,0,6.4-.2,9.6-.2,1.8-4.1,3.6-8.1,5.4-12.2.2-.6,1.1-.3,1.6-.4,7.2-.1,14.4-.1,21.6-.1.6-.1.7.6.9.9,1.7,3.9,3.4,7.8,5.2,11.7,3.2-.1,6.5,0,9.8,0Zm-35-21.3c2.6-5.6,5.1-11.1,7.8-16.7,2.6,5.5,5.2,11.1,7.7,16.6-5.1,0-10.3,0-15.5.1Z"></path><path class="cls-1" d="m305.01,151.26c-.7-2-2.6-3.2-4.1-4.6,8.1,17.4,16,34.9,23.3,52.6-5.4-.1-10.9-.3-16.3-.3,1.1,1.1,2.1,2.3,3.2,3.2,5.5.1,10.9.3,16.3.4-7-17.2-14.6-34.3-22.4-51.3Z"></path><path class="cls-1" d="m289.51,172.06h4.4c.3-.7.6-1.4,1-2.1-.7-1.6-1.5-3.1-2.2-4.7-1.2,2.2-2.2,4.5-3.2,6.8Z"></path><path class="cls-1" d="m282.81,186.56c-1.8,4.2-3.7,8.3-5.5,12.5-4.3.2-8.6.2-13,.4,1.2,1,2.2,2.2,3.4,3.1,4.1,0,8.3-.2,12.4-.2,1.8-4.2,3.7-8.3,5.5-12.5,6-.1,12.1,0,18.2-.1-.5-1.1-1-2.2-1.5-3.3-6.5,0-13,0-19.5.1Z"></path></g><g><path class="cls-1" d="m150.51,186.96c5.6-.9,11.2-1.6,16.8-2.4,4.1,6.1,8.2,12.3,12.2,18.5,3.3-.4,6.6-.7,9.9-1.2-4-6.4-8.3-12.7-12.4-19,4-1.4,7.5-4.6,8.7-8.7,1.1-3.9.9-8.1-.7-11.9-1.2-2.7-3.3-4.9-5.9-6.1-3.4-1.7-7.4-2.1-11.1-1.6-10.3,1.3-20.6,2.8-31,4.4,2.5,16.3,5.1,32.6,7.7,48.8,2.9-.4,5.8-.9,8.7-1.3-.9-6.4-1.9-13-2.9-19.5Zm-1.3-8.9c-.7-3.9-1.2-7.9-1.8-11.8,6.8-1,13.6-1.9,20.5-2.8,2.3-.3,4.9-.6,7,.8,3.1,2.2,3.1,7.8-.3,9.8-1.8,1.2-4,1.4-6.1,1.6-6.4.8-12.7,1.8-19.1,2.7l-.2-.3Z"></path><path class="cls-1" d="m185.01,186.76c1.9-1.4,3.7-2.9,4.9-4.9,2.7-4.1,3.2-9.3,2.3-14-.8-4.1-3.1-8-6.6-10.3,3.7,4.9,4.7,11.5,3,17.3-1.1,3.9-3.8,7.1-7.2,9.3,4.4,6.7,8.8,13.4,13.1,20.2-5.5.6-11,1.2-16.4,1.9,1.2,1,2.3,1.9,3.5,2.8.6.1,1.2,0,1.8-.1,4.9-.6,9.9-1.1,14.8-1.6-4.3-7.1-8.8-13.8-13.2-20.6Z"></path><path class="cls-1" d="m174.21,168.86c-.2-.8-.2-1.8-.9-2.3-1.2-.8-2.8-.6-4.1-.4-6.1.8-12.2,1.6-18.2,2.5.3,2.2.6,4.3.9,6.4,1-.1,1.9-.3,2.9-.4-.1-1-.3-2.1-.4-3.1,6.5-1,13.1-2,19.8-2.7Z"></path><path class="cls-1" d="m165.81,187.66c-4,.5-7.9,1.1-11.9,1.6.9,6.6,1.9,13.1,2.8,19.7-3.8.6-7.7,1.1-11.6,1.8,1.2,1,2.5,1.9,3.7,2.8,3.7-.6,7.4-1.2,11.1-1.6-.9-6.6-1.9-13.1-2.8-19.7l10.5-1.5c-.4-1.1-1.1-2.1-1.8-3.1Z"></path></g><path class="cls-1" d="m552.91,192.66c2.4-1,5.1-.8,7.5-.4,4.1.7,8.1,2.2,11.2,5.1,2.2,2,4.2,4.3,6.3,6.4,2.9-2.2,5.8-4.4,8.7-6.5.8,1.2,1.5,2.5,2.2,3.7-3,2.2-6,4.5-9.1,6.8-2.1-2.1-4.1-4.3-6.3-6.4-2.6-2.5-6-4-9.4-4.8-3-.7-6.1-1-9-.1-1.1,0-2.2-.6-3.1-1.2-.8-.9,0-2.2,1-2.6h0Z"></path><g><path class="cls-1" d="m505.81,218.76c-3.8-17.8-8-35.5-12.6-53.1-3.1-.6-6.2-1.2-9.3-1.8-10.8,14.7-21.4,29.5-31.5,44.7,3.1.6,6.3,1,9.5,1.6,2.6-3.7,5.2-7.5,7.8-11.2,2.1,0,4.1.7,6.2,1,5.3,1,10.6,2,15.8,3,.4.2,1.3.1,1.3.7,1,4.3,2,8.6,3,12.9,3.4.8,6.6,1.5,9.8,2.2Zm-30.3-27.7c3.5-5,7.1-10,10.8-14.9,1.5,5.9,3,11.8,4.4,17.7-5-.8-10.1-1.8-15.2-2.8Z"></path><path class="cls-1" d="m499.81,171.66c-.4-2.1-2.1-3.7-3.2-5.4,4.7,18.7,9.1,37.5,13,56.3-5.3-1.2-10.6-2.4-16-3.4.7,1.3,1.5,2.5,2.4,3.7.5.3,1.1.3,1.7.5,4.8,1,9.6,2.1,14.4,3.2-3.6-18.4-7.8-36.7-12.3-54.9Z"></path><path class="cls-1" d="m480.51,189.16c1.5.3,3,.6,4.4.8.4-.6.9-1.2,1.3-1.8-.4-1.7-.8-3.4-1.3-5-1.5,1.9-2.9,4-4.4,6Z"></path><path class="cls-1" d="m471.21,202.06c-2.7,3.7-5.3,7.5-7.9,11.3-4.2-.7-8.4-1.5-12.7-2.1.9,1.3,1.6,2.7,2.8,3.7,4,.7,8.1,1.3,12.1,2.1,2.7-3.8,5.2-7.5,7.9-11.2,6,1.1,11.9,2.2,17.9,3.4-.3-1.2-.5-2.4-.8-3.5-6.3-1.3-12.8-2.5-19.3-3.7Z"></path></g><path class="cls-1" d="m539.11,202.46c1.8,2.1,3.8,4.1,6.2,5.5,3.3,2,7.2,2.7,10.9,3.7,3,.9,6.1,1.6,9,2.9,1.1.6,2.3,1.2,3,2.2.6.7.4,1.7.4,2.6-3.8-2-8.1-3-12.3-4.2-2.5-.7-5-1.2-7.3-2.4-4.3-2.1-8.3-5.6-9.9-10.3h0Z"></path><g><path class="cls-1" d="m108.81,168.66c-1.1-1.8-3.1-2.6-4.8-3.6,2.7,4,5.6,7.7,8.4,11.7,8.4,11.7,16.6,23.5,24.6,35.4-5.4.9-10.8,1.8-16.1,2.8,1.2.9,2.5,1.8,3.8,2.7,5.4-1,10.8-1.9,16.2-2.8-10.3-15.8-21.1-31.1-32.1-46.2Z"></path><path class="cls-1" d="m88.51,217.16c.9-3.9,1.8-7.8,2.7-11.7,0-.5.7-.5,1.1-.6,6.5-1.3,12.9-2.6,19.4-3.9.9-.1,1.9-.6,2.8-.4,2.7,3.6,5.2,7.4,7.8,11.1,3.2-.6,6.5-1.2,9.7-1.8-10-14.8-20.4-29.3-31-43.7-.3-.3-.5-.9-1-.7-3,.6-6,1.2-8.9,1.8-4.5,17.7-8.7,35.4-12.4,53.3,3.1-.7,6.2-1.4,9.3-2.1.4-.4.4-.8.5-1.3Zm9.5-39.2c3.8,4.8,7.3,9.8,10.9,14.7-5.1,1-10.2,2-15.3,3,1.3-5.9,2.8-11.8,4.4-17.7Z"></path><path class="cls-1" d="m99.31,184.76c-.6,2.4-1.2,4.8-1.8,7.2,1.5-.3,2.9-.6,4.3-.9.2-.7.4-1.5.6-2.2-1-1.3-2-2.7-3.1-4.1Z"></path><path class="cls-1" d="m93.81,207.46c-1.1,4.3-2,8.7-3,13-.1.1-.2.3-.3.4-4.1,1-8.3,1.8-12.4,2.8,1.3.9,2.6,1.7,3.9,2.4,4-.9,8-1.8,12.1-2.7,1-4.4,2.1-8.9,3.1-13.4,5.9-1.2,11.9-2.4,17.8-3.5-.6-1-1.3-2-2.1-2.9-6.3,1.3-12.7,2.6-19.1,3.9Z"></path></g><path class="cls-1" d="m583.31,213.86c3.7,5.6,2.8,13.3-1,18.6-3.6,4.7-9.7,6.8-15.5,7.1-7.4.3-14.7-1.5-21.3-4.6-6-2.9-11.2-7.5-14.7-13.3-.9-1.6-2.2-3-2.8-4.8,1.2.9,1.8,2.3,2.7,3.4,4.3,5.9,10.5,10.1,17.3,12.5,6.1,2.1,12.7,3.4,19.1,2.6,4.3-.5,8.5-2.1,11.7-5,4.3-4.1,5.8-10.7,4.5-16.5h0Z"></path><path class="cls-1" d="m69.91,215.16c1.3.7,2.5,1.5,3.7,2.2-1.7,2.9-3.5,5.9-6,8.3-3.7,3.8-8.5,6.4-13.5,8.2-3.5,1.2-7.1,2.2-10.8,2.4-7.4.4-15-1.6-20.9-6.1,6.9,3.5,15.1,4.7,22.7,2.9,6.6-1.7,13.2-4.3,18.2-9.1,2.7-2.5,4.7-5.6,6.6-8.8h0Z"></path><path class="cls-1" d="m331.81,231.76c5.1-5.6,14.7-5.5,20.2-.6-1.3,1.7-2.7,3.3-4.1,4.9-2.1-1.7-4.9-2.8-7.6-2.1-3,.7-4.9,3.9-4.7,6.9,0,2.2,1.2,4.5,3.1,5.6,2.3,1.4,5.3,1.2,7.6,0v-3.1h-4.9v-5.1h11.5v11.4c-5.5,4.5-14.3,5.3-19.9.7-5.7-4.3-6.1-13.5-1.2-18.6h0Z"></path><path class="cls-1" d="m145.71,228.06h7v25h-7v-25h0Z"></path><path class="cls-1" d="m158.51,228.06h21.9v6.1h-7.5v18.9h-6.9v-18.9h-7.5v-6.1h0Z"></path><path class="cls-1" d="m214.61,228.06c2.3,0,4.5-.1,6.8,0l.2.3c.1,6.2,0,12.4.1,18.6h12v6.2h-19c-.1-8.4-.1-16.8-.1-25.1h0Z"></path><path class="cls-1" d="m239.41,228.06h7v25h-7v-25h0Z"></path><path class="cls-1" d="m285.21,228.06h6.4c3.4,4.3,6.7,8.7,10.2,13,.1-4.3,0-8.6.1-13h6.9v25h-6c-3.5-4.6-7.1-9-10.6-13.6v13.6h-6.9c-.1-8.3-.1-16.7-.1-25h0Z"></path><path class="cls-1" d="m389.51,228.16c2.3-.1,4.7,0,7,0v25h-6.9c-.1-8.4,0-16.7-.1-25h0Z"></path><path class="cls-1" d="m404.71,228.06h6.9v18.8c4,.1,8,0,12.1.1v6.1h-19c-.1-8.3,0-16.7,0-25h0Z"></path><path class="cls-1" d="m429.41,228.06h7v18.8h12v6.2h-19c-.1-8.3,0-16.7,0-25h0Z"></path><path class="cls-1" d="m377.41,244.36c2-1,3.8-2.5,4.5-4.6,1-3,.7-6.8-1.7-9.1-2.1-2.1-5.2-2.6-8-2.7h-11.9v25h6.9v-7.5h2.9c1.8,2.5,3.2,5.2,5.2,7.5,2.6.1,5.2,0,7.8,0-1.7-2.9-3.8-5.7-5.7-8.6Zm-3.8-4.6c-2,.6-4.2.1-6.3.3-.1-2-.1-3.9,0-5.9,2.2.1,4.6-.4,6.7.5,2.1.9,1.8,4.4-.4,5.1Z"></path><path class="cls-1" d="m198.61,227.96h-6.7c-3.5,8.4-7.2,16.7-10.6,25.1h7.3c.6-1.5,1.2-3,1.8-4.5h9.4c.9,1.3,1.3,3,1.9,4.4h7.5c-3.5-8.3-7.1-16.7-10.6-25Zm-6.2,15.2c.9-2.2,1.8-4.5,2.7-6.7,1,2.2,1.8,4.5,2.7,6.7h-5.4Z"></path><path class="cls-1" d="m269.21,227.96h-6.7c-3.5,8.4-7.2,16.7-10.6,25.1h7.3c.6-1.5,1.1-3,1.8-4.4,3.1-.2,6.2-.1,9.3-.1,1,1.3,1.3,3,2,4.4h7.4c-3.3-8.3-7-16.7-10.5-25Zm-6.1,15.2c.9-2.3,1.8-4.6,2.7-6.8.9,2.2,1.8,4.6,2.7,6.8h-5.4Z"></path><path class="cls-1" d="m466.71,246.56c0,3.7-2.9,6.6-6.7,6.6s-6.7-2.9-6.7-6.6,3-6.5,6.8-6.5c3.6-.1,6.6,2.8,6.6,6.5Zm-11.8,0c0,2.9,2.2,5.2,5.1,5.2s5-2.3,5-5.2-2.2-5.3-5.1-5.3-5,2.4-5,5.3Zm4,3.3h-1.5v-6.5c.6-.1,1.4-.2,2.5-.2,1.2,0,1.8.2,2.2.5.4.3.7.8.7,1.4,0,.8-.6,1.3-1.4,1.6v.1c.6.2,1,.7,1.2,1.6.2,1,.4,1.4.5,1.6h-1.6c-.2-.2-.3-.8-.5-1.6-.1-.7-.5-1-1.4-1h-.7v2.5Zm.1-3.6h.7c.8,0,1.5-.3,1.5-1,0-.6-.4-1-1.4-1-.4,0-.7,0-.8.1v1.9h0Z"></path></svg> 