<?xml version="1.0" encoding="UTF-8"?> <svg xmlns="http://www.w3.org/2000/svg" id="Layer_1" width="600" height="400" viewBox="0 0 600 400"><defs><style>.cls-1{fill:#fff;}</style></defs><path class="cls-1" d="m43.83,233.08h318.26v27.38H43.83v-27.38Z"></path><path class="cls-1" d="m519.24,223.01c21.2,0,37.72-12.28,37.72-41.78,0-1.32-.09-2.56-.18-3.89h-37.1v15.55h14.05c-2.21,7.86-6.98,12.54-14.4,12.63h-.26c-10.69-.18-15.9-9.63-15.9-24.38s5.12-23.85,15.9-23.85h.26c7.6,0,12.28,4.33,14.4,12.01h22.08c-3.97-21.02-19.26-30.03-36.66-30.03-20.49,0-37.72,12.28-37.72,41.78s16.61,41.96,37.81,41.96m-359.16-83.65c-19.43,0-39.57,12.28-39.57,41.78s20.14,41.78,39.57,41.78,39.48-12.28,39.48-41.78-20.14-41.78-39.48-41.78m0,66.07c-11.39,0-17.84-9.54-17.84-24.38s6.45-23.85,17.84-23.85,17.76,9.01,17.76,23.85c0,14.84-6.45,24.38-17.76,24.38m83.74-66.07c-19.43,0-39.57,12.28-39.57,41.78s20.14,41.78,39.57,41.78,39.4-12.28,39.4-41.78-20.05-41.78-39.4-41.78m0,66.07c-11.39,0-17.84-9.54-17.84-24.38s6.45-23.85,17.84-23.85,17.76,9.01,17.76,23.85-6.45,24.38-17.76,24.38m115.45-64.57h-24.73l-21.82,39.75,25.71,40.72h24.73l-26.24-40.72,22.35-39.75Zm-68.46-.44h21.82v80.91h-21.82v-80.91Zm79.06.44h21.73v80.47h-21.73v-80.47Zm83.74,80.47h20.14v-80.47h-19.87v45.14h-.26l-29.5-45.14h-21.38v80.47h19.87v-45.05h.26l30.74,45.05Zm-374.27-15.72h-.26c-10.69-.18-15.9-9.63-15.9-24.38s5.12-23.85,15.9-23.85h.26c7.6,0,12.28,4.33,14.4,12.01h22.08c-3.97-21.02-19.26-30.03-36.66-30.03-20.49,0-37.72,12.28-37.72,41.78s16.52,41.78,37.72,41.78c18.64,0,33.65-9.45,37.01-31.71h-21.91c-2.03,8.92-6.98,14.31-14.93,14.4m334.69,38.16h-12.63v-11.13h-4.68v27.82h4.68v-12.37h12.63v12.37h4.68v-27.82h-4.68v11.13Zm18.64-11.22l-9.89,27.91h4.42l2.3-6.62h10.6l2.21,6.62h4.77l-9.81-27.91h-4.59Zm-1.77,17.14l3.89-11.31h.09l3.8,11.31h-7.77Zm38.87,2.74h0l-13.16-19.87h-4.77v27.82h4.33v-20.23h.09l13.69,20.23h4.33v-27.82h-4.42l-.09,19.87Zm29.59,0h0l-13.16-19.87h-4.86v27.82h4.33v-20.23h.09l13.69,20.23h4.24v-27.82h-4.33v19.87Zm16.25-4.42h9.72v-4.15h-9.72v-6.98h13.25v-4.33h-18.02v27.82h18.73v-4.24h-14.05l.09-8.13Zm24.38-15.37h-4.77v27.82h17.49v-4.24h-12.81l.09-23.59Zm-158.74,23.94c-4.59,0-7.51-3.62-7.51-10.25,0-6.27,2.74-9.98,7.42-10.07,3.36,0,5.12,2.03,6.18,5.48h4.86c-1.5-6.45-5.21-9.81-10.95-9.81-6.98,0-12.19,5.04-12.19,14.31s5.12,14.49,12.19,14.49c6.01,0,9.81-3.53,11.13-10.34h-4.86c-.97,4.06-2.74,6.18-6.27,6.18m182.05-100.7c-4.5,0-8.13-3.62-8.13-8.13s3.62-8.13,8.13-8.13,8.13,3.62,8.13,8.13c-.09,4.51-3.71,8.13-8.13,8.13Zm0-14.49c-3.53,0-6.45,2.83-6.45,6.45s2.83,6.45,6.45,6.45,6.45-2.83,6.45-6.45-2.91-6.45-6.45-6.45Z"></path><path class="cls-1" d="m562.88,147.22c.44,0,.8-.09.97-.26s.26-.44.26-.88c0-.35-.09-.62-.26-.88-.26-.18-.53-.26-.97-.26h-.88v2.12l.88.18Zm-.88,1.41v3.18h-2.12v-8.39h3.36c1.06,0,1.94.18,2.47.53s.8.88.8,1.77c0,.53-.18.97-.35,1.41-.26.35-.71.62-1.24.79.26.09.53.26.8.44s.44.62.71,1.06l1.15,2.39h-2.3l-.97-2.12c-.26-.35-.35-.71-.62-.88s-.44-.26-.88-.26l-.79.09Z"></path></svg> 