<?xml version="1.0" encoding="UTF-8"?> <svg xmlns="http://www.w3.org/2000/svg" xmlns:xlink="http://www.w3.org/1999/xlink" id="Layer_1" width="100" height="19.54" viewBox="0 0 100 19.54"><defs><style>.cls-1{fill:none;}.cls-2{fill:url(#linear-gradient);}.cls-3{fill:url(#linear-gradient-3);}.cls-4{fill:url(#linear-gradient-4);}.cls-5{fill:url(#linear-gradient-2);}.cls-6{fill:url(#linear-gradient-5);}</style><linearGradient id="linear-gradient" x1="168.35" y1="170.69" x2="178.07" y2="170.69" gradientTransform="translate(-158.62 185.31) scale(1 -1)" gradientUnits="userSpaceOnUse"><stop offset="0" stop-color="#73ddff"></stop><stop offset="1" stop-color="#0180dd"></stop></linearGradient><linearGradient id="linear-gradient-2" x1="58.56" y1="1512.36" x2="68.28" y2="1512.36" gradientTransform="translate(68.29 -1497.75) rotate(-180) scale(1 -1)" gradientUnits="userSpaceOnUse"><stop offset="0" stop-color="#017edd"></stop><stop offset="1" stop-color="#9decff"></stop></linearGradient><linearGradient id="linear-gradient-3" x1="970.6" y1="1024.73" x2="980.32" y2="1024.73" gradientTransform="translate(-1015.01 -970.56) rotate(90) scale(1 -1)" gradientUnits="userSpaceOnUse"><stop offset=".3" stop-color="#ffd315"></stop><stop offset=".38" stop-color="#ffcd1e"></stop><stop offset=".52" stop-color="#ffbd36"></stop><stop offset=".69" stop-color="#ffa35e"></stop><stop offset=".88" stop-color="#ff7f94"></stop><stop offset="1" stop-color="#ff67b9"></stop></linearGradient><linearGradient id="linear-gradient-4" x1="168.35" y1="175.54" x2="178.07" y2="175.54" gradientTransform="translate(-158.62 185.31) scale(1 -1)" gradientUnits="userSpaceOnUse"><stop offset="0" stop-color="#ff00b1"></stop><stop offset=".14" stop-color="#f600b2"></stop><stop offset=".37" stop-color="#de00b5"></stop><stop offset=".66" stop-color="#b600ba"></stop><stop offset="1" stop-color="#7f00c1"></stop><stop offset="1" stop-color="#7f00c1"></stop></linearGradient><linearGradient id="linear-gradient-5" x1="58.57" y1="1507.51" x2="68.29" y2="1507.51" gradientTransform="translate(68.29 -1497.75) rotate(-180) scale(1 -1)" gradientUnits="userSpaceOnUse"><stop offset="0" stop-color="#ff00b1"></stop><stop offset=".14" stop-color="#f600b2"></stop><stop offset=".37" stop-color="#de00b5"></stop><stop offset=".66" stop-color="#b600ba"></stop><stop offset="1" stop-color="#7f00c1"></stop><stop offset="1" stop-color="#7f00c1"></stop></linearGradient></defs><g id="picto"><g><polygon class="cls-1" points="4.87 9.75 9.73 4.91 14.58 9.75 9.73 14.62 4.87 9.75"></polygon><polygon class="cls-2" points="14.58 19.48 9.73 14.62 14.58 9.75 19.44 14.62 14.58 19.48"></polygon><polygon class="cls-5" points="4.87 9.75 9.73 14.62 4.87 19.48 0 14.62 4.87 9.75"></polygon></g><g><polygon class="cls-3" points="4.87 4.91 9.73 .04 14.58 4.91 9.73 9.75 4.87 4.91"></polygon><polygon class="cls-4" points="14.58 14.62 9.73 9.75 14.58 4.91 19.44 9.75 14.58 14.62"></polygon><polygon class="cls-6" points="4.87 4.91 9.73 9.75 4.87 14.62 0 9.75 4.87 4.91"></polygon></g></g><g><path d="m40.75,6.9c.18.32.42.56.72.74.32.18.68.26,1.11.26.34,0,.66-.08.97-.22.3-.14.56-.36.76-.62.22-.26.38-.56.5-.92.12-.36.18-.74.18-1.17s-.06-.78-.2-1.15c-.14-.36-.32-.66-.54-.92-.24-.26-.5-.46-.82-.62-.32-.14-.66-.22-1.05-.22-.42,0-.8.1-1.11.26-.3.18-.56.42-.78.74v-.9h-1.49v7.9h1.71v-3.16h.04Zm0-2.59c.12-.24.28-.42.5-.56.22-.14.44-.2.68-.2.2,0,.38.04.54.1.16.08.3.16.42.3.12.12.2.28.28.46.06.18.1.36.1.56s-.04.38-.1.56-.14.34-.26.48c-.12.14-.24.24-.4.32s-.32.12-.5.12c-.26,0-.5-.1-.74-.28-.24-.2-.4-.42-.52-.72v-1.15h0Z"></path><path d="m47.71,4.44c.14-.26.38-.44.72-.58.34-.12.7-.2,1.13-.2v-1.55s-.08-.02-.1-.02h-.18c-.34,0-.66.12-.97.34-.3.22-.54.5-.74.88v-1.13h-1.57v5.61h1.71v-3.36h0Z"></path><path d="m50.52,7.4c.16.16.38.28.62.38.24.08.5.14.78.14.38,0,.74-.08,1.09-.26.34-.18.64-.42.88-.74l.04.26c.04.22.14.4.3.52s.4.18.72.18c.1,0,.2,0,.34-.02.12-.02.26-.04.4-.08v-1.45c-.14-.02-.22-.06-.28-.12-.06-.06-.08-.18-.08-.36v-1.45c0-.76-.24-1.35-.7-1.75s-1.13-.6-1.97-.6c-.44,0-.88.06-1.27.18-.4.12-.78.3-1.15.54l.5,1.07c.3-.2.6-.36.88-.46s.56-.16.88-.16c.74,0,1.13.32,1.13.97v.26c-.16-.08-.36-.14-.58-.18-.22-.04-.44-.06-.68-.06-.36,0-.68.04-.97.14-.3.1-.54.22-.76.38s-.38.36-.5.58-.18.48-.18.76c0,.26.04.5.14.7.1.28.24.46.4.62Zm1.37-1.97c.2-.14.46-.22.78-.22.14,0,.3.02.48.04.18.04.34.08.48.14v.54c0,.14-.08.28-.24.4-.12.1-.26.2-.44.26-.18.06-.36.1-.54.1-.24,0-.44-.06-.6-.2s-.24-.3-.24-.5c.02-.24.12-.42.32-.56Z"></path><polygon points="84.38 2.19 82.55 2.19 80.66 4.52 80.66 0 78.95 0 78.95 7.8 80.66 7.8 80.66 6.17 81.26 5.55 82.73 7.8 84.54 7.8 82.35 4.6 84.38 2.19"></polygon><rect x="85.2" y="2.19" width="1.71" height="5.61"></rect><path d="m37.52,2.98c-.26-.26-.56-.48-.94-.64-.36-.16-.78-.24-1.27-.24s-.9.08-1.29.24-.68.38-.94.64-.44.58-.58.92c-.12.36-.2.72-.2,1.11s.06.74.2,1.11c.14.36.32.66.58.92.26.26.56.48.94.64s.8.24,1.29.24.9-.08,1.29-.24.68-.36.94-.64c.26-.26.44-.58.58-.92.14-.36.2-.72.2-1.11s-.06-.76-.2-1.11c-.16-.36-.34-.66-.6-.92Zm-1.07,2.61c-.06.18-.16.34-.26.46-.12.12-.24.22-.38.3s-.32.1-.48.1c-.36,0-.66-.14-.9-.4s-.36-.62-.36-1.07c0-.22.04-.4.1-.6.06-.18.14-.34.26-.46.12-.12.24-.22.4-.3s.32-.1.5-.1c.36,0,.64.14.88.4s.36.62.36,1.07c-.04.24-.06.42-.12.6Z"></path><path d="m98.55,2.19v.92c-.2-.32-.44-.56-.76-.76-.32-.18-.68-.28-1.13-.28-.38,0-.74.08-1.07.22-.32.14-.6.36-.82.62-.22.26-.4.56-.54.92-.12.36-.2.74-.2,1.15s.06.76.18,1.11.28.64.5.9.48.46.78.6.64.22,1.03.22c.36,0,.72-.08,1.05-.24s.56-.4.74-.7v.54c0,.26-.04.48-.12.68-.08.18-.2.34-.34.46s-.3.2-.5.26c-.18.06-.38.08-.58.08-.34,0-.68-.06-.99-.2s-.56-.32-.76-.56l-.92.92c.32.36.7.64,1.13.82.42.2.94.28,1.55.28.48,0,.92-.06,1.31-.2.4-.12.74-.3,1.03-.54s.5-.52.66-.86.24-.72.24-1.15V2.19h-1.45Zm-.22,3.5c-.12.22-.28.42-.48.56-.2.14-.44.22-.7.22-.2,0-.36-.04-.52-.1-.16-.06-.3-.16-.42-.3-.12-.12-.22-.28-.28-.46s-.1-.36-.1-.56.02-.38.08-.56.14-.34.26-.48c.12-.14.24-.24.4-.32s.32-.12.5-.12c.26,0,.52.08.74.26.24.18.4.4.52.7v1.17Z"></path><rect x="85.22" width="1.71" height="1.55"></rect><path d="m71.93,14.44c-.26-.26-.56-.48-.94-.64-.36-.16-.78-.24-1.27-.24s-.9.08-1.29.24c-.38.16-.68.36-.94.64-.26.26-.46.58-.58.94-.14.36-.2.74-.2,1.15s.06.74.2,1.09c.14.34.34.64.58.9.26.26.58.48.94.62.38.16.8.22,1.27.22.64,0,1.21-.14,1.67-.42s.8-.64,1.03-1.09l-1.45-.4c-.08.2-.24.36-.46.5-.24.12-.46.18-.72.18-.32,0-.6-.1-.84-.3s-.38-.48-.4-.86h4.14c.02-.08.02-.16.04-.26,0-.1.02-.2.02-.3,0-.38-.06-.74-.2-1.11-.14-.28-.34-.6-.58-.86Zm-3.46,1.53c.04-.34.16-.62.38-.84.22-.2.5-.32.82-.32s.6.1.82.3.34.48.38.84h-2.41v.02Z"></path><path d="m93.1,2.79c-.12-.22-.3-.38-.52-.52-.22-.12-.52-.2-.88-.2-.5,0-.92.1-1.31.28s-.66.44-.88.78v-.94h-1.55v5.61h1.71v-3.22c.04-.14.12-.28.2-.4s.18-.22.3-.32c.12-.08.24-.16.36-.2.12-.04.24-.08.36-.08.22,0,.4.08.54.26.14.16.2.44.2.8v3.16h1.71v-3.58c0-.24-.02-.48-.06-.72.02-.26-.06-.48-.18-.7Z"></path><path d="m66.39,7.4c.18.16.38.28.62.38.24.08.5.14.78.14.38,0,.74-.08,1.11-.26.34-.18.64-.42.88-.74l.04.26c.04.22.14.4.3.52s.4.18.72.18c.1,0,.22,0,.34-.02s.26-.04.4-.08v-1.45c-.14-.02-.22-.06-.28-.12-.06-.06-.08-.18-.08-.36v-1.45c0-.76-.24-1.35-.7-1.75s-1.13-.6-1.97-.6c-.44,0-.86.06-1.27.18-.4.12-.78.3-1.15.54l.5,1.07c.3-.2.6-.36.88-.46s.56-.16.88-.16c.74,0,1.13.32,1.13.97v.26c-.16-.08-.36-.14-.58-.18-.22-.04-.44-.06-.68-.06-.36,0-.68.04-.97.14-.3.1-.54.22-.76.38-.22.16-.38.36-.5.58s-.18.48-.18.76c0,.26.04.5.14.7.08.28.22.46.38.62Zm1.37-1.97c.2-.14.46-.22.78-.22.14,0,.3.02.48.04.18.04.34.08.48.14v.54c0,.14-.08.28-.24.4-.12.1-.26.2-.42.26-.18.06-.36.1-.54.1-.24,0-.44-.06-.6-.2s-.24-.3-.24-.5c0-.24.1-.42.3-.56Z"></path><path d="m77.58,2.79c-.12-.22-.28-.38-.52-.52-.22-.12-.52-.2-.88-.2-.48,0-.92.1-1.31.28s-.66.44-.88.78v-.94h-1.55v5.61h1.71v-3.22c.04-.14.12-.28.2-.4s.18-.22.3-.32c.12-.08.24-.16.36-.2.12-.04.24-.08.36-.08.22,0,.4.08.54.26.14.16.2.44.2.8v3.16h1.71v-3.58c0-.24-.02-.48-.06-.72.04-.26-.04-.48-.18-.7Z"></path><path d="m45.7,17.95c-.14,0-.26-.04-.36-.12s-.14-.22-.14-.4v-2.07h1.17l-.04-1.33h-1.13v-1.65h-1.69v1.65h-2.29v-.6c0-.46.14-.78.64-.78.24,0,.66.14.74.16l.28-1.21c-.4-.16-1.03-.32-1.39-.32-.3,0-.56.06-.8.16s-.44.26-.62.46c-.18.2-.3.44-.4.72s-.14.68-.14,1.03v.38h-.8l.04,1.33h.76v4.06h1.69v-4.06h2.29v2.67c0,.72.34,1.49,1.59,1.49.62,0,1.43-.38,1.69-.56l-.28-1.13c-.12.06-.52.12-.8.12Z"></path><path d="m66.16,13.59c-.34,0-.66.12-.97.34s-.54.5-.74.88v-1.15h-1.57v5.61h1.71v-3.36c.14-.26.38-.44.72-.58.34-.12.7-.2,1.13-.2v-1.55s-.06-.02-.1-.02h-.18v.02Z"></path><path d="m61.52,17.37v-1.45c0-.76-.24-1.35-.7-1.75s-1.13-.6-1.97-.6c-.44,0-.86.06-1.27.18s-.78.3-1.15.54l.5,1.07c.3-.2.6-.36.88-.46s.56-.16.88-.16c.74,0,1.13.32,1.13.97v.26c-.16-.08-.36-.14-.58-.18-.22-.04-.44-.06-.68-.06-.36,0-.68.04-.97.14s-.54.22-.76.38c-.22.16-.38.36-.5.58s-.18.48-.18.76c0,.26.06.5.14.7.1.22.24.4.4.56.18.16.38.28.62.38.24.08.5.14.78.14.38,0,.74-.08,1.11-.26.34-.18.64-.42.88-.74l.04.26c.04.22.14.4.3.52s.4.18.72.18c.1,0,.2,0,.32-.02s.26-.04.4-.08v-1.45c-.14-.02-.22-.06-.28-.12-.06-.02-.08-.14-.08-.3Zm-1.73.04c0,.14-.08.28-.24.4-.12.1-.26.2-.42.26-.18.06-.36.1-.54.1-.24,0-.44-.06-.6-.2s-.24-.3-.24-.5c0-.22.1-.42.3-.56.2-.14.46-.22.78-.22.14,0,.32.02.48.04.18.04.34.08.48.14v.54h0Z"></path><path d="m31.44,4.56c-.06-.12-.14-.24-.26-.36-.12-.12-.22-.22-.32-.28-.1-.08-.22-.16-.38-.24-.16-.08-.28-.16-.38-.2s-.22-.1-.4-.18c-.16-.08-.36-.16-.58-.26-.22-.1-.42-.22-.58-.36-.16-.12-.26-.28-.26-.48s.06-.34.16-.42c.12-.08.3-.12.52-.12.56,0,1.29.08,2.13.24h.04l.28-1.45-.02-.04c-.44-.12-.84-.2-1.21-.26-.36-.06-.7-.08-1.03-.08-.84,0-1.53.2-1.99.6-.46.4-.7.94-.7,1.61s.26,1.21.74,1.59c.2.16.5.34.94.54.42.2.72.34.88.42.08.04.16.08.28.14.1.06.18.1.24.14s.12.1.2.18.12.18.12.32c0,.32-.06.52-.2.6s-.3.14-.5.14c-.72,0-1.53-.18-2.39-.52l-.04-.02-.02.06c-.18.6-.3.99-.34,1.11-.04.1-.06.16-.08.22l-.02.04.38.18c.24.12.58.22,1.01.34.44.12.86.16,1.27.16.8,0,1.47-.22,1.97-.64.5-.44.76-1.01.76-1.71.02-.36-.06-.7-.22-1.01Z"></path><path d="m37.52,14.56c-.26-.26-.56-.48-.94-.64-.36-.16-.78-.24-1.27-.24s-.9.08-1.29.24c-.38.16-.68.38-.94.64-.26.26-.44.58-.58.92-.12.36-.2.72-.2,1.11s.06.74.2,1.11.32.66.58.92c.26.26.56.48.94.64.38.16.8.24,1.29.24s.9-.08,1.29-.24c.38-.16.68-.36.94-.64s.44-.58.58-.92c.14-.36.2-.72.2-1.11s-.06-.76-.2-1.11c-.16-.34-.34-.64-.6-.92Zm-1.07,2.63c-.06.18-.16.34-.26.46-.12.12-.24.22-.38.3s-.32.1-.48.1c-.36,0-.66-.14-.9-.4s-.36-.62-.36-1.07c0-.22.04-.4.1-.6.06-.18.14-.34.26-.46.12-.12.24-.22.4-.3s.32-.1.5-.1c.36,0,.64.14.88.4s.36.62.36,1.07c-.04.22-.06.42-.12.6Z"></path><path d="m31.44,16.16c-.06-.12-.14-.24-.26-.36-.12-.12-.22-.22-.32-.28-.1-.08-.22-.16-.38-.24s-.28-.16-.38-.2-.22-.1-.4-.18c-.16-.08-.36-.16-.58-.26-.22-.1-.42-.22-.58-.36-.16-.12-.26-.28-.26-.48s.06-.34.16-.42c.12-.08.3-.12.52-.12.56,0,1.29.08,2.13.24h.04l.28-1.45-.04-.02c-.44-.12-.84-.2-1.21-.26s-.7-.08-1.03-.08c-.84,0-1.53.2-1.99.6-.46.4-.7.94-.7,1.61s.26,1.21.74,1.59c.2.16.5.34.94.54.42.2.72.34.88.42l.28.14c.1.06.18.1.24.14s.12.1.2.18.12.18.12.32c0,.32-.06.52-.2.6s-.3.14-.5.14c-.72,0-1.53-.18-2.39-.52l-.04-.02-.02.06c-.18.6-.3.99-.34,1.11-.04.1-.06.16-.08.22l-.02.04.38.18c.24.12.58.22,1.01.34.44.12.86.16,1.27.16.8,0,1.47-.22,1.97-.64.5-.44.76-1.01.76-1.71.04-.38-.04-.72-.2-1.03Z"></path><polygon points="53 17.73 52.47 16.2 53.38 13.89 52.03 13.89 51.55 15.38 51.07 13.89 49.72 13.89 50.62 16.2 50.1 17.73 48.57 13.69 46.96 13.69 49.28 19.3 50.68 19.3 51.55 16.99 52.41 19.3 53.82 19.3 56.13 13.69 54.5 13.69 53 17.73"></polygon><path d="m65.08,5.51c0-.76-.36-1.31-1.11-1.61v-.08c.26-.12.46-.3.64-.56.18-.26.26-.58.26-.97,0-.54-.12-.97-.38-1.31-.02-.02-.04-.04-.04-.06-.04-.04-.06-.08-.1-.12-.04-.04-.08-.08-.12-.12,0,0-.02,0-.02-.02-.44-.36-1.09-.54-1.97-.54-.74,0-1.71.04-2.83.12l.06,4.02-.06,3.52c1.19.12,2.15.18,2.92.16.74,0,1.39-.18,1.89-.5.12-.08.22-.16.3-.26.36-.36.56-.92.56-1.67Zm-1.81.04c0,.38-.06.64-.18.8-.12.16-.36.24-.7.24s-.84-.02-1.29-.06l-.02-1.97h1.13c.36,0,.62.08.8.22.16.14.26.38.26.76Zm-.34-2.49c-.12.14-.34.2-.64.2h-1.23v-1.73l1.15-.04c.32,0,.56.06.7.2.14.14.2.36.2.68-.02.32-.08.56-.18.68Z"></path></g></svg> 