<?xml version="1.0" encoding="UTF-8"?> <svg xmlns="http://www.w3.org/2000/svg" id="Layer_1" width="600" height="400" viewBox="0 0 600 400"><defs><style>.cls-1,.cls-2{fill:#fff;}.cls-2{fill-rule:evenodd;}</style></defs><path class="cls-1" d="m338.79,178.68c-10.13-46.13-51.37-79.67-98.54-79.67-22.36,0-44.38,7.69-61.85,21.32-13.98-13.98-35.29-21.32-62.2-21.32-22.71,0-45.43,5.24-67.09,15.38l-1.05.35v64.3l2.8-1.4c5.59-2.45,24.81-10.48,40.88-10.48,8.39,0,18.52,2.1,18.52,12.93,0,7.69-5.94,17.12-20.62,38.44l-53.81,77.92,1.4,2.8h155.15v-10.13c14.68,7.69,31.1,11.88,47.52,11.88,35.64,0,69.19-19.22,87.36-50.32l1.05-1.75h-8.74l-.35.7c-17.12,27.61-46.82,44.03-78.97,44.03-16.77,0-33.2-4.54-47.52-12.93v-46.82h-40.53c22.36-19.57,42.98-41.93,42.98-71.63,0-13.28-4.19-25.86-11.88-35.99,16.42-12.58,36.34-19.57,56.96-19.57,42.98,0,81.42,30.4,90.85,72.33l.35,1.05h7.69s-.35-1.4-.35-1.4Zm-182.06,62.55h28.3v33.55c-12.23-8.39-21.67-20.27-28.3-33.55Zm-39.14-61.15c0-12.93-9.43-20.62-26.21-20.62-12.58,0-27.61,4.89-35.99,8.04v-47.87c19.92-8.39,40.19-12.93,60.8-12.93,24.11,0,43.33,6.29,55.56,18.17l.35.35c-20.97,19.22-33.2,46.13-33.2,74.78,0,10.83,1.75,21.67,5.24,32.15l2.45,6.64.7,1.4c8.04,18.17,20.97,33.55,37.39,44.38v6.99H48.41l47.17-68.49c16.07-23.06,22.01-32.85,22.01-42.98Zm29.35,19.92c0-26.21,11.18-51.02,30.4-68.84,6.64,8.74,10.13,19.57,10.13,31.1,0,25.86-17.82,45.43-37.39,62.9-2.1-8.39-3.14-16.77-3.14-25.16Z"></path><path class="cls-2" d="m385.96,205.59c0-4.54-1.4-6.64-2.8-8.04s-3.84-1.75-7.34-1.75h-32.85c-7.34,0-8.39,1.05-9.78,2.1-1.75,1.4-3.14,3.84-3.14,7.69v22.01c0,4.54,1.4,7.34,4.19,8.39,1.05.7,3.84,1.05,12.58,1.05h37.39v-8.39h-39.14c-1.4,0-2.45-1.05-2.45-2.45v-5.94h43.33s0-14.68,0-14.68Zm-12.93,6.99h-30.4v-5.59c0-1.4,1.05-2.45,2.45-2.45h25.16c1.4,0,2.45,1.05,2.45,2.45v5.59h.35Z"></path><path class="cls-2" d="m215.09,195.81h12.93v41.58h-12.93v-41.58Z"></path><path class="cls-2" d="m391.2,179.03h12.93v58.36h-12.93v-58.36Z"></path><path class="cls-2" d="m409.72,179.03h12.93v58.36h-12.93v-58.36Z"></path><path class="cls-2" d="m309.09,178.68h-12.93v48.92c0,4.54,1.4,7.34,4.19,8.74,2.1,1.05,3.84,1.05,12.58,1.05h11.18v-8.39s-11.53.35-13.28-.35c-1.4-.35-1.75-1.4-1.75-3.14v-22.01h15.38v-7.69h-15.38s0-17.12,0-17.12Z"></path><path class="cls-2" d="m215.44,179.03h12.93v8.39h-12.93v-8.39Z"></path><path class="cls-2" d="m273.44,195.81h-39.84v41.93h12.93v-33.2h28.3c1.4,0,2.45,1.05,2.45,2.45v30.75h12.93v-25.51c0-4.54.35-10.48-1.75-12.93-1.75-2.8-2.8-3.84-15.03-3.49"></path><path class="cls-2" d="m496.03,196.51c-1.4-.35-2.45-1.05-11.18-1.05h-35.99v8.39h37.39c1.4,0,2.8,1.4,2.8,2.8v5.59h-35.64c-4.19,0-6.29,2.45-6.29,8.04v8.39c0,2.1,0,4.19.7,5.59,1.05,1.75,2.45,2.8,5.59,2.8h48.57v-31.8c-.35-3.84-2.8-7.34-5.94-8.74Zm-9.78,32.5h-24.11c-1.05,0-2.45-1.05-2.45-2.1v-3.84c0-1.05,1.05-2.45,2.45-2.45h26.56v5.94c0,1.4-1.05,2.45-2.45,2.45h0Z"></path><path class="cls-2" d="m561.03,214.33c-2.1-2.1-5.24-1.75-5.24-1.75h-33.2c-1.05,0-2.1-.7-2.1-1.75v-5.24c.35-.7,1.05-1.4,2.1-1.4h39.14v-8.39h-37.04c-8.74,0-10.83.35-12.58,1.05-2.8,1.4-4.54,4.19-4.54,8.74v3.49c0,2.8,0,5.94,2.8,8.74,2.45,2.45,4.89,2.8,8.39,2.8h30.4c1.05,0,2.1,1.05,2.1,2.1v3.84c0,1.05-1.05,2.1-2.1,2.1h-39.14v8.39h37.74c9.09,0,10.83,0,12.23-.7,3.49-1.75,4.19-3.84,4.19-8.04v-4.54c-.7-3.14-.35-6.64-3.14-9.43"></path><path class="cls-2" d="m428.24,179.03h12.93v8.39h-12.93v-8.39Z"></path><path class="cls-2" d="m428.24,195.81h12.93v41.58h-12.93v-41.58Z"></path></svg> 