<?xml version="1.0" encoding="UTF-8"?> <svg xmlns="http://www.w3.org/2000/svg" id="Layer_1" width="600" height="400" viewBox="0 0 600 400"><defs><style>.cls-1{fill:#fff;}</style></defs><path class="cls-1" d="m357.7,168.66v43.41c0,2.95.3,5.91-.3,9.16-.59-.89-.89-1.18-1.18-1.48-5.32-7.97-10.63-15.95-15.95-23.92-7.38-10.93-14.77-21.85-21.85-32.78-2.07-3.25-4.43-4.43-8.27-4.13-3.25.3-6.5,0-10.04,0-7.68,22.74-15.36,44.89-23.33,68.22-.59-1.77-.89-2.66-1.18-3.54-6.79-20.38-13.59-40.46-20.38-60.84-.59-1.48-1.18-2.66-1.77-3.54h-15.06c0,.3-.3.3-.3.59v69.11c0,.59.3,1.18.3,2.07,0,.3-.3.59-.3.89,0,.89.3,1.77.3,2.66v.3h-.3c-.59,2.95-.59,3.54.3,5.02,3.25,0,6.2.3,9.45.3.89,0,.89-.59.59-1.18v-8.56.3c0-.89.3-1.48.3-2.36v-33.67c0-.89,0-1.48-.3-2.36v-18.02h.59c.3.3.3.59.59,1.18,6.5,19.2,12.99,38.39,19.49,57.29.89,2.36,1.77,4.73,2.66,7.09h9.75c7.38-21.56,14.77-42.82,22.45-64.38h.59v64.09h10.93v-61.72q.3,0,.59-.3c13.88,20.67,27.47,41.35,41.35,62.02h11.22v-80.63h-10.34c-.59,3.84-.59,6.79-.59,9.75Z"></path><path class="cls-1" d="m484.7,197.01c-5.61-1.77-11.22-2.95-16.54-4.73-4.13-1.18-8.56-2.36-12.4-3.84-5.02-2.07-7.09-7.09-5.32-12.4,1.18-3.25,3.84-5.61,7.09-6.79,5.32-2.07,10.63-1.77,15.95-1.18,7.38.89,12.11,5.02,13.59,12.4.3.89.3,1.77.59,2.95,3.54-.3,6.79-.3,10.63-.59-.3-1.77-.3-3.25-.59-4.43-1.48-6.2-4.13-11.22-9.75-14.77-3.54-2.07-7.09-3.54-10.93-4.43-7.68-1.48-15.36-1.18-22.74,1.48-4.73,1.77-8.86,4.43-11.52,8.86-5.32,7.97-4.43,19.49,3.54,25.99,3.54,2.95,7.38,4.43,11.81,5.61,5.32,1.48,10.63,2.66,16.24,4.13,4.13,1.18,7.97,2.07,11.52,4.73,3.84,2.66,5.32,7.09,3.84,11.22-1.18,4.43-4.13,7.09-8.27,8.86-6.79,2.95-13.88,2.95-20.97.59-7.09-2.36-11.81-6.79-13.29-14.47-.3-1.18-.59-2.36-.89-3.84-3.25.3-6.5.59-9.75.59v1.48c.3,11.22,7.68,21.26,18.31,24.81,8.56,2.66,17.42,3.25,26.28,1.18,5.32-1.18,10.04-3.84,13.88-7.97,7.38-7.68,7.97-19.79,1.48-27.76-3.54-3.84-7.38-6.5-11.81-7.68Z"></path><path class="cls-1" d="m145.66,160.98c-3.84-1.18-7.68-1.48-11.81-1.48h-34.85v81.22h10.93v-32.78h18.02c5.02,0,10.04,0,14.77-1.18,7.97-1.77,13.59-6.2,16.54-13.88,1.77-4.43,1.77-8.86,1.48-13.29-.89-7.68-5.91-16.24-15.06-18.61Zm3.54,25.69c-1.18,5.91-5.02,9.45-11.52,10.63-2.36.3-4.43.59-6.79.59h-21.26v-28.65c.89,0,1.77-.3,2.66-.3h20.08c2.36,0,4.43.3,6.79.59,5.32.89,9.45,5.61,10.04,11.22.3,2.36.3,4.13,0,5.91Z"></path><path class="cls-1" d="m195.27,196.72c-7.97-12.7-16.24-25.1-23.92-37.21h-13.29c.89,1.18,1.18,2.07,1.77,2.95,9.16,13.88,18.61,27.76,27.76,41.64.89,1.48,1.48,2.95,1.48,4.73v28.94c0,.89,0,1.77.3,2.66h10.93v-31.6c0-1.77.59-3.54,1.48-5.02,7.97-11.52,15.95-23.04,23.92-34.26,2.36-3.25,4.43-6.5,6.79-10.04h-12.99c-8.27,12.4-16.24,24.81-24.22,37.21Z"></path><path class="cls-1" d="m437.44,166.3h0v-6.79h-63.79v9.16h2.36c.3,0,.59.3.89.3,7.09,0,13.88,0,20.97-.3.89,0,1.48,0,2.07.3v70.88s0,.3.3.3v.3h10.63v-71.17c8.86,0,17.72,0,26.58-.3.3-1.48,0-2.07,0-2.66Z"></path></svg> 