<?xml version="1.0" encoding="UTF-8"?> <svg xmlns="http://www.w3.org/2000/svg" id="Layer_1" width="600" height="400" viewBox="0 0 600 400"><defs><style>.cls-1{fill:#3c3382;}</style></defs><g><path class="cls-1" d="m101.52,154.44v12.88h34.37v21.01h-57.08v-87.55h56.44v20.89h-33.74v12.13h30.57v20.64h-30.57Z"></path><path class="cls-1" d="m187.37,131.55v-5.75h20.85v62.54h-20.85v-5.75c-4.27,5-10.21,7.5-17.83,7.5-8.46,0-15.49-3.13-21.1-9.38-5.61-6.34-8.41-14.21-8.41-23.64s2.8-17.34,8.41-23.51c5.61-6.34,12.64-9.5,21.1-9.5,7.62,0,13.56,2.5,17.83,7.5Zm-22.73,35.4c2.34,2.5,5.53,3.75,9.54,3.75s7.2-1.25,9.54-3.75c2.43-2.58,3.64-5.88,3.64-9.88s-1.21-7.3-3.64-9.88c-2.35-2.5-5.53-3.75-9.54-3.75s-7.2,1.25-9.54,3.75c-2.43,2.59-3.64,5.88-3.64,9.88s1.21,7.3,3.64,9.88Z"></path><path class="cls-1" d="m258.71,125.8v19.89h-12.8v18.14c0,2.67.92,4.36,2.77,5.07,1.85.71,5.19.94,10.03.69v18.76c-12.14,1.5-20.76.37-25.85-3.38-4.92-3.92-7.38-10.8-7.38-20.64v-18.63h-9.23v-19.89h9.23v-11.26l20.43-6.25v17.51h12.8Z"></path><path class="cls-1" d="m271.35,100.79h65.29v21.64h-21.52v65.91h-22.26v-65.91h-21.51v-21.64Z"></path><path class="cls-1" d="m380.16,124.05c6.97,0,12.58,2.36,16.83,7.07,4.24,4.71,6.37,11.32,6.37,19.82v37.4h-20.92v-34.77c0-3.17-.84-5.61-2.52-7.32-1.68-1.71-3.99-2.56-6.93-2.56-3.28,0-5.82.98-7.62,2.94-1.81,1.96-2.71,4.77-2.71,8.44v33.27h-20.92v-87.55h20.92v31.27c3.78-5.34,9.62-8,17.52-8Z"></path><path class="cls-1" d="m429.74,117.17c-2.27,2.34-5,3.5-8.16,3.5s-5.93-1.17-8.29-3.5c-2.28-2.42-3.41-5.25-3.41-8.5s1.14-6.05,3.41-8.38c2.36-2.33,5.12-3.5,8.29-3.5s5.89,1.17,8.16,3.5c2.36,2.34,3.53,5.13,3.53,8.38s-1.18,6.09-3.53,8.5Zm1.95,71.17h-20.23v-62.54h20.23v62.54Z"></path><path class="cls-1" d="m460.99,144.06c0,1.08.89,1.98,2.68,2.69,1.78.71,4.5,1.48,8.16,2.31,2.49.5,4.79,1.15,6.91,1.94,2.12.79,4.23,1.92,6.35,3.38,2.12,1.46,3.78,3.46,4.98,6,1.2,2.54,1.81,5.44,1.81,8.69,0,7.25-2.66,12.55-7.97,15.88-5.4,3.42-11.71,5.13-18.93,5.13-13.95,0-23.25-4.96-27.9-14.88l18.06-9.13c1.58,4.59,4.81,6.88,9.71,6.88,3.74,0,5.6-1.13,5.6-3.38,0-1.08-.85-1.98-2.55-2.69-1.7-.71-4.42-1.52-8.16-2.44-2.49-.5-4.75-1.19-6.79-2.06-2.04-.88-4.11-2.02-6.23-3.44-2.12-1.42-3.76-3.31-4.92-5.69-1.16-2.38-1.74-5.11-1.74-8.19,0-6.67,2.45-11.84,7.35-15.51,4.9-3.67,10.79-5.5,17.68-5.5,12.21,0,20.76,4.84,25.66,14.51l-17.44,7.88c-1.83-3.58-4.4-5.38-7.72-5.38-3.07,0-4.61,1-4.61,3Z"></path><path class="cls-1" d="m498.16,166.58h23.03l-10.57,39.27h-16.86l4.4-39.27Z"></path></g><g><path class="cls-1" d="m435.64,244.68v-5.75h20.85v62.54h-20.85v-5.75c-4.27,5-10.21,7.5-17.83,7.5-8.46,0-15.49-3.13-21.1-9.38-5.61-6.34-8.41-14.21-8.41-23.64s2.8-17.34,8.41-23.51c5.61-6.34,12.64-9.5,21.1-9.5,7.62,0,13.56,2.5,17.83,7.5Zm-22.73,35.4c2.34,2.5,5.53,3.75,9.54,3.75s7.2-1.25,9.54-3.75c2.43-2.58,3.64-5.88,3.64-9.88s-1.21-7.3-3.64-9.88c-2.35-2.5-5.53-3.75-9.54-3.75s-7.2,1.25-9.54,3.75c-2.43,2.59-3.64,5.88-3.64,9.88s1.21,7.3,3.64,9.88Z"></path><path class="cls-1" d="m251.54,213.91h65.29v21.64h-21.52v65.91h-22.26v-65.91h-21.51v-21.64Z"></path><path class="cls-1" d="m360.35,237.18c6.97,0,12.58,2.36,16.83,7.07,4.24,4.71,6.37,11.32,6.37,19.82v37.4h-20.92v-34.77c0-3.17-.84-5.61-2.52-7.32-1.68-1.71-3.99-2.56-6.93-2.56-3.28,0-5.82.98-7.62,2.94-1.81,1.96-2.71,4.77-2.71,8.44v33.27h-20.92v-87.55h20.92v31.27c3.78-5.34,9.62-8,17.52-8Z"></path><path class="cls-1" d="m98.64,257.94v-44.03h22.43v87.55h-17.39l-31.13-44.03v44.03h-22.56v-87.55h17.52l31.13,44.03Z"></path><path class="cls-1" d="m160.97,303.22c-9.42,0-17.36-3.17-23.83-9.5-6.56-6.34-9.84-14.17-9.84-23.51s3.28-16.97,9.84-23.39c6.64-6.42,14.58-9.63,23.83-9.63s17.36,3.21,23.83,9.63c6.56,6.42,9.83,14.22,9.83,23.39s-3.28,17.18-9.83,23.51c-6.39,6.34-14.33,9.5-23.83,9.5Zm0-20.01c3.7,0,6.75-1.21,9.14-3.63,2.4-2.42,3.59-5.54,3.59-9.38s-1.2-6.96-3.59-9.38c-2.4-2.42-5.44-3.63-9.14-3.63s-6.62,1.23-9.02,3.69c-2.4,2.46-3.59,5.57-3.59,9.32s1.2,6.86,3.59,9.32c2.4,2.46,5.4,3.69,9.02,3.69Z"></path><path class="cls-1" d="m239.53,238.93v19.89h-12.97v18.14c0,2.67.94,4.36,2.81,5.07,1.87.71,5.26.94,10.16.69v18.76c-12.3,1.5-21.03.37-26.18-3.38-4.99-3.92-7.48-10.8-7.48-20.64v-18.63h-9.35v-19.89h9.35v-11.26l20.7-6.25v17.51h12.97Z"></path><path class="cls-1" d="m505.74,238.93v19.89h-12.97v18.14c0,2.67.94,4.36,2.81,5.07,1.87.71,5.26.94,10.16.69v18.76c-12.3,1.5-21.03.37-26.18-3.38-4.99-3.92-7.48-10.8-7.48-20.64v-18.63h-9.35v-19.89h9.35v-11.26l20.7-6.25v17.51h12.97Z"></path><path class="cls-1" d="m516.33,288.24c0-4.13,1.47-7.66,4.42-10.59,2.95-2.93,6.49-4.39,10.65-4.39s7.7,1.46,10.65,4.39c2.95,2.93,4.42,6.46,4.42,10.59s-1.47,7.78-4.42,10.66c-2.95,2.88-6.5,4.32-10.65,4.32s-7.7-1.44-10.65-4.32c-2.95-2.88-4.42-6.43-4.42-10.66Z"></path><path class="cls-1" d="m512.8,227.97c0-2.55.45-4.91,1.36-7.09.91-2.18,2.27-4.17,4.09-5.98,1.82-1.81,3.82-3.16,6.01-4.07s4.57-1.36,7.13-1.36,4.94.45,7.13,1.36c2.19.9,4.2,2.26,6.01,4.07,1.82,1.81,3.18,3.8,4.09,5.98.91,2.18,1.36,4.54,1.36,7.09s-.45,5.01-1.36,7.2c-.91,2.19-2.27,4.18-4.09,5.96-1.82,1.78-5.99,7.35-6.03,7.4-5.9,7.68-4.55,16-7.12,16s-1.14-8.57-7.13-16c.01-.05-4.19-5.62-6.01-7.4-1.82-1.78-3.18-3.76-4.09-5.96-.91-2.19-1.36-4.59-1.36-7.2Z"></path></g></svg> 