<?xml version="1.0" encoding="UTF-8"?> <svg xmlns="http://www.w3.org/2000/svg" id="_2020-marcom-gold-winner" width="65.43" height="100" viewBox="0 0 65.43 100"><defs><style>.cls-1{fill:#292663;}</style></defs><path class="cls-1" d="m45.04,75.01l-.65.16v1.87l.58-.14c.61-.06,1.06-.6,1.03-1.21,0-.59-.34-.82-.96-.67h0Z"></path><path class="cls-1" d="m29.54,59.55c1.02-.24,1.18-1.11,1.18-3.29s-.17-2.97-1.18-2.75-1.18,1.12-1.18,3.29.17,2.99,1.18,2.75Z"></path><path class="cls-1" d="m41.55,50.85l-.74.17v5.7l.77-.18c1.19-.28,1.43-1.05,1.43-3.26,0-1.84-.15-2.74-1.47-2.43Z"></path><g><polygon class="cls-1" points="34.83 29.71 34.35 32.03 35.33 31.8 34.85 29.71 34.83 29.71"></polygon><path class="cls-1" d="m38.6,28.7l-.47.11v1.43l.42-.1c.48-.11.75-.38.75-.92,0-.46-.24-.63-.7-.52Z"></path><path class="cls-1" d="m45.99,26.38c-.97.23-1.31,1.29-1.31,2.67s.28,2.29,1.31,2.06c.91-.2,1.31-1.06,1.31-2.66,0-1.37-.3-2.3-1.31-2.06Z"></path><path class="cls-1" d="m17.74,37.46c.68-.15,1.08-.65,1.08-2.4,0-.88,0-2.16-1.08-1.9-1.08.26-1.08,1.68-1.08,2.4,0,1.77.4,2.06,1.08,1.9Z"></path><path class="cls-1" d="m41.65,64.04c.41-1.26.75-2.54,1.02-3.83l22.76-5.4v-13.63l-25.07-4.95,15.73-3.74v-13.51l-37.6-7.45,5.46,8.32-2.75,1.8c-.1-.12-.19-.25-.27-.39-.36-.63-.67-1.29-.93-1.97l-.04-.11c-.5-.77-1.08-1.49-1.73-2.13-.45-.5-.83-.92-.96-1.09-.12-.17-.41-.51-.69-.85-.2-.23-.42-.49-.52-.63l-.05-.06v-.08c-.07-.23-.12-.45-.16-.69-.07-.39-.21-.76-.44-1.09l-.03-.07v-.08c0-.12-.04-.32-.06-.5-.01-.18,0-.3-.04-.33-.03-.26-.12-.52-.25-.75v-.17c-.02-.1-.05-.2-.09-.3-.01-.05-.04-.09-.07-.12l-.18-.17v-.13c0-.74.08-3.21.2-4.03.03-.23.1-.47.19-.69v-.04c.13-.21.17-.45.09-.69v-.11c0-.08-.03-.17-.05-.24l-.05-.12v-.13c.03-.13.05-.25.06-.35.03-.4,0-.8-.08-1.18,0-.07-.06-.19-.09-.3-.05-.14-.09-.3-.11-.45-.01-.28-.15-.53-.38-.69l-.1-.07-.05-.11-.06-.13c-.12-.24-.34-.41-.61-.45h-.1l-.08-.06c-.12-.07-.25-.1-.39-.1-.23,0-.46.09-.64.24-.29.32-.52.69-.69,1.09,0,.05,0,.08-.05.12-.1.2-.17.41-.19.63-.04.37-.11.74-.21,1.09-.1.21-.13.45-.1.69v.14l-.08.13c-.08.12-.12.28-.1.43v.1c-.02.21.03.41.15.58,0,.03.02.05.04.07.1.19.17.4.2.62,0,.18.06.69.1,1.05v.23l-.18.15c-.21.18-.36.42-.41.69-.04.41-.04.81,0,1.22v.17l-.06.22c-.07.25-.07.52,0,.78v.27c-.06.24-.05.5.03.73l.04.11v.12c-.03.48.08.96.31,1.38.19.39.41.76.69,1.09l.12.16v.37c0,.18.04.35.13.5v.12s.05.18.06.24c.06.43.32,1.15.96,1.15.08,0,.16,0,.24,0l.3-.07.17.26c.34.54.63,1.07.88,1.56.54,1.06.98,1.85,1.5,2.75l.12.21.56,1.06c.28.48.58.94.92,1.38l-1.27.83,2.36.47c.57.69,1.25,1.38,2.07,2.16l-11.7,2.75v13.56h.06l16.43,3.25c.22.46.53,1.07.79,1.58.04.09.08.19.11.28.16.53.36,1.05.63,1.54L0,56.73v13.52h.03v.06l24.94,4.94-15.69,3.76v13.52l21.87,4.34c.99,1.03,1.72,1.79,1.95,2.07.35.49,1.01.65,1.54.37l2.42-1.25,9.8,1.94-3.44-5.28c3.48-1.86,7.04-3.82,8.62-4.89.59-.39.43-.83.41-.92-.09-.26-.99-3.01-2.02-6.13l5.67-1.38v-13.45h-.05l-15.15-3.01c.34-.21.6-.53.75-.9ZM13.62,1.25v-.23l.05.12c.05.1.08.19.08.19l.06.14h.24c.03.23.09.47.17.69,0,.09.05.18.06.23v.09c-.01.12-.01.24,0,.36.01.13-.03.25-.13.34-.05.03-.11.06-.17.06,0,0-.05-.26-.1-.63-.01-.13.02-.27.1-.38.06-.1.09-.15,0-.28s-.1-.1-.13-.14c-.15-.14-.24-.24-.23-.44-.01-.03,0-.08,0-.14Zm.08,2.5c.17.03.34-.03.45-.17l.12-.1.08-.06v.09c-.05.21-.12.45-.12.47v.15l.11.1s.06.09.08.14v.17h-.17l-.69-.05c-.05-.15-.11-.3-.18-.43-.06-.13-.08-.2-.05-.25.03-.06.14-.07.37-.07Zm-.89-2.04v-.02h.14c.08.07.13.15.17.25.03.08.08.16.15.21.03.03.08.05.12.06.1,0,.14.06.15.3.02.23.02.46,0,.69v.04h-.04c-.37-.12-.64-.45-.69-.84v-.4c0-.11-.03-.24,0-.28Zm-.7,1.76v-.02c.13-.3.21-.6.27-.92.08.18.21.33.37.43h.05c.21.15,0,.64,0,.69-.06.14-.18.24-.33.26-.06.01-.12.01-.19,0,0,0-.08.06-.1.09l-.04.05v-.06c-.06-.17-.07-.35-.03-.52Zm-.19,1.25l.03-.03c.03-.07.03-.14,0-.21l.27-.09-.08-.22c.14-.04.28-.06.42-.07.03,0,.06,0,.08,0,.06.06.08.14.07.23,0,.18-.1.2-.24.23-.2.03-.39.1-.56.22v-.06Zm-.06,3.28c.11,0,.14.1.19.25v.1l-.24.17v-.39s.03-.09.06-.12Zm-.12,1.63l.08-.25v-.37c.12-.1.26-.19.4-.27h.04v.4c0,.17-.1.27-.26.43l-.12.12s-.08.06-.13.08h-.06l.06-.13Zm-.06.48v-.08c.1-.21.3-.34.53-.34.01.1.01.19,0,.29,0,.14-.1.21-.23.29l-.18.13-.06-.12s0-.07-.06-.17Zm.5,1.25l-.15.07s-.1.05-.16.06h-.05v-.23c.04-.16.17-.23.45-.32.06.07.1.16.09.25v-.02c-.02.09-.09.16-.18.19Zm.34-3.37v-.28s-.16-1.61-.18-1.92c-.03-.24-.09-.47-.19-.69,0,0,.06-.03.09-.04.08-.03.17-.05.25-.06.22,0,.29.19.33.5l.21,3.52h-.07c-.08-.28-.18-.55-.32-.81l-.13-.23Zm.59,6.39v.15h-.26l.1-.08v-.53l-.06-.07-.17-.2v-.4c.02-.19.06-.38.12-.56.09-.21.2-.42.33-.61l.07-.11-.12,2.42Zm.34.93c0,.09-.01.17-.05.25v.06l-.04.09v-.98h.22l-.13.58Zm.42-5.01v.07h0c-.11.1-.18.23-.2.37-.06.48,0,.97.17,1.43v2.34h-.56l.17-9.4c.07-.15.21-.25.38-.27h.1c.14,0,.26,0,.28.3-.05.17-.08.34-.11.52-.17,1.09-.22,4.51-.22,4.65Zm.05.97c-.04-.2-.04-.41,0-.61l.17-.06v.12c.03.14.08.26.14.39.09.15.14.32.17.5v.14c-.23-.06-.41-.24-.48-.47Zm27.88,46.4l-2.75.64v-8.11l2.83-.69c2.4-.56,2.83.89,2.83,3.28.03,2.89-.62,4.34-2.91,4.88Zm-6.06,13.71v-.4c-.1-.28-.1-.59,0-.87.07-.17.14-.34.23-.5,0-.05.06-.11.12-.08.06.03,0,.15-.05.21-.16.3-.23.63-.22.97.07.37.26.74.08.9-.19.16-.52-.06-.63-.34-.14-.3-.14-.63,0-.93.08-.17.19-.18.23-.14s0,.21,0,.25c-.06.19-.08.38-.06.57.06.17.17.39.31.35Zm-.8-2.09c.04.06.17-.09.22,0,.05.09,0,.12-.17.25s-.32.25-.43.1c-.21-.3.24-.58.24-.58,0,0,.14-.11.19,0,.04.11-.12.2-.08.23h.03Zm.38-.3h.03c-.1-.08,0-.17.08-.25s.48-.54.48-.54c0,0,.1-.17.19-.09.1.08,0,.25,0,.25l-.47.52c-.14.09-.21.17-.32.1Zm.32-1.45h.03c-.28.45-.61.87-.99,1.25-.22.18-.38.32-.45.23s.11-.16.28-.3c.43-.39.78-.85,1.03-1.38.34-.7.74-1.38,1.19-2.01.21-.25.38-.36.47-.29.09.08-.42.65-.61.93-.19.28-.7,1.17-.94,1.56Zm-9.69,7.49c.16-.36,1.33-3.13,1.38-3.19.05-.06.1-.11.16-.06l2.85,2.21-4.39,1.04Zm.53,3.4v6.45l-1.38.32v-6.45l1.38-.32Zm.81-7.24h0s.1,0,.1,0l3.3,2.69h-.13l-3.24-2.56s-.1-.08-.04-.13Zm.21,7l1.58-.38,1.66,4.03v-4.42l1.25-.3v6.45l-1.56.37-1.68-4.13v4.52l-1.25.3v-6.44Zm-.38-54.2v.03h0l-.09-.03c-.17-.09-.36-.15-.55-.18-.08,0-.14.01-.21.04h-.09v-.27c0-.11.09-.11.19-.12h.12c.21-.01.41-.06.59-.14.15-.07.12-.54.08-.87v-.21c-.03-.29.02-.59.17-.84.1-.16.48-.17.78-.19h.24c0,.52-.04,1.03-.12,1.54-.08.34-.24.81-.41,1.31-.04.11-.08.23-.12.34-.19.54-.47.85-.78.85h-.08c-.3-.05-.43-.34-.51-.55-.08-.21-.05-.27-.07-.37.04-.09.14-.12.28-.16h.23c.09,0,.18.02.27.05.08.02.15.03.23.04h.08c-.02-.13-.11-.24-.23-.28Zm-.49-4.02c-.13.02-.25.08-.35.16h-.06v-.06c-.01-.16,0-.32.03-.48.03-.08.06-.17.09-.25l.07-.08c.05-.06.09-.11.12-.18.04-.06.08-.12.14-.18.15-.17.28-.37.35-.59v-.18c-.06,0-.14.06-.27.1h-.14v-.06c.06-.16.18-.29.33-.36.23-.14.35-.2.41-.23h.23c.39.01.76.1,1.12.26.04,0,.04.06,0,.08-.04.01-.16.1-.82.1-.23,0-.35.02-.36.06,0,.06-.02.12-.06.17-.08.12-.13.25-.18.39-.07.2-.17.39-.29.56-.1.1-.14.25-.12.39.04.09.14.13.3.13s.28,0,.3.04c.01.04,0,.05,0,.07-.03.04-.05.09-.05.14,0,.23-.03.46-.09.69.02.04.02.1,0,.14-.02.04-.06.08-.1.09-.32.06-.64.08-.96.09h-.02s-.09,0-.13,0h-.03v-.04c.02-.06.03-.13.04-.2,0,0,.05-.06.07-.1.06-.1.14-.19.21-.28s.14-.18.21-.28c.02-.03.03-.06.05-.09h-.05Zm-.5,1.63c0-.12.09-.12.18-.12v.03s.08-.04.13-.04c.03,0,.07.02.08.06h0v.08c.01.14.01.29,0,.43,0,.13-.08.19-.17.19-.1,0-.19-.08-.22-.17v-.47Zm1.98,8.83l1.49-.35.71,3.26h.01s.72-3.6.72-3.6l1.48-.35v4.88l-.92.21v-3.89h-.01s-.88,4.09-.88,4.09l-.78.17-.88-3.67h-.01v3.87l-.92.21v-4.83Zm4.53-11.36l.08.08v.05c.16.16.5.65.43.98-.06.28-.18.54-.35.76v.03c-.1.36-.17.74-.22,1.11l-.12.69c-.04.2-.07.41-.09.61-.11.42-.19.85-.23,1.27l-.61.14c0-.96.04-1.85.06-2.07.04-.24-.12-.47-.36-.51h-.03c-.19,0-.78-.12-.78-.69v-.58c-.01-.1-.01-.2,0-.3,0,0,0-.06.06-.06s.08,0,.21.1l.23.14c.14.11.32.19.5.23h.21l-.13-.08-.14-.07c-.59-.23-1.14-.53-1.65-.89-.25-.32-.34-.74-.25-1.13.03-.11.05-.22.05-.34s0-.22.1-.22c.03,0,.05,0,.08,0,.17.07.34.11.52.13h.04c-.06-.07-.12-.12-.2-.17-.26-.18-.34-.24-.33-.3.01-.06.06-.05.18,0,.12.03.25.05.37.06l-.06-.04-.26-.13c-.19-.08-.23-.1-.23-.15,0-.05.06-.05.11-.05.1,0,.21-.02.31-.06h-.08l-1.12-.12c-.06-.03-.11-.09-.12-.16-.02-.11,0-.22.08-.3.18-.03.36-.05.54-.05.16,0,.31,0,.47,0,.28.03.56.08.83.17h.05l.39.1c.13.03.25.06.38.1l.09.04c.2.05.38.16.52.3.14.21.24.45.3.69.05.19.08.38.09.57v.04l.08.07Zm6.4,18.88c.14.15.28.32.42.5.02.06.05.1.08.14.06.08.11.14.17.21.06.08.12.15.17.23l.08.13c.11.26.81,1.86,1.23,3.03.03.18.08.36.17.52.31.96.69,2.45.98,3.34v.14l.1.25c0,.06.04.11.06.16l-.3.07c-.07-.22-.14-.41-.18-.52-.14-.37-1.25-3.5-1.6-4.32-.23-.57-.4-1.16-.51-1.77-.31-.64-.77-1.2-1.34-1.62-.49-.45-.93-.94-1.3-1.49,0,0,0-.04-.04-.07l1.01-.24c.03.07.08.13.12.19.19.39.42.76.69,1.11Zm-.59-1.31l1.01-.24c.06.16.1.32.1.5,0,.16,0,.3-.05.43-.05.13-.04.41-.05.56v.1l-.06-.08c-.33-.4-.63-.83-.9-1.27,0,0-.02,0-.03,0h-.02Zm2.32,3.49l.08.05c.1.06.18.14.26.21l.04.08c.13.21.18.45.13.69v.41l-.06-.15c-.13-.33-.24-.61-.29-.74s-.08-.25-.12-.43l-.04-.11Zm1.42,4.32v-.11l.08.08c.17.14.29.32.36.52v.15h-.04c-.16,0-.26,0-.31-.21,0-.08-.05-.24-.08-.42Zm-7.71-.03h-.02s.1,0,.13-.49c.03-.3-.01-.61-.1-.89v-.08h.08s2.38.98,2.97,1.18c.54.22,1.02.54,1.43.95l.08.07c.6.59,1.16,1.22,1.65,1.89l-1.44.34c-1.49-.92-4.77-2.98-4.77-2.98Zm1.56,3.8l-1.23.29c-.28-.51-.43-1.08-.45-1.66v-.08l.03.03s.73.64,1.65,1.43Zm1.66-6.57l.48.57c.34.4.14.6.14.6-.98-.39-1.92-.85-2.84-1.38-1.12-.63-2.27-1.18-3.46-1.65v.03s-.3-.16-.44-.94c-.03-.19-.03-.39,0-.57l.88-.21c.79.32,2.97,1.38,3.37,1.58.33.14.61.38.81.69.12.19.64.8,1.06,1.28Zm-1.99-8.09l-.23-.99-1.32.3-.23,1.09-1.04.23,1.31-5.2,1.24-.29,1.31,4.62-1.04.23Zm-4.47,4.84c-.21.62-.03,1.31.46,1.75.72.56,2.24,1.9,2.35,2.39.02.1.05.19.08.28.23.64.21,1.34-.05,1.97-.39,1.09-.53,1.8-.17,2.66.15.36.32.77.46,1.18l-1.9.45c-.28-.61-.47-1.27-.58-1.93-.26-1.68-.69-3.33-.95-4.44-.1-.39-.18-.69-.23-.96-.15-.48-.36-.94-.62-1.38-.31-.46-.51-.98-.6-1.54l1.76-.44Zm2.84,26.51c.17-.9.23-1.82.17-2.73l.23-.06c0,.14,0,.42.04.91-.02.93-.15,1.85-.39,2.75-.16.56-.26,1.12-.3,1.7-.02.36-.32.65-.69.65-.33-.05,0-.57.28-1.15.28-.67.49-1.36.65-2.07Zm-.42-1.39l-2.75-.55,2.64-.63c.04.17.08.34.1.51.03.21.04.41.04.63l-.03.03Zm.3,7.12c0-.11-.1-.14-.21-.19-.12-.05-.1-.22-.13-.32-.03-.07-.1-.11-.18-.08-.03,0-.05.03-.06.05-.07.08-.12.16-.16.25-.06.11-.05.18-.12.13-.07-.05,0-.23,0-.23.04-.12.1-.23.17-.34.06-.07.16-.21.32-.12s.13.27.17.39.06,0,.2.06c.14.06.14.08.15.2.02.3.02.61,0,.91,0,.17,0,.23-.09.23s-.05-.08-.05-.14,0-.73,0-.81Zm-.75-1.65v.03c.08.11,0,.25-.09.34s-.34.21-.38.49c-.02.24-.02.49,0,.73,0,.36-.07.72-.17.69-.1-.03-.14-.48-.34-.83-.21-.36-.57-.5-.69-.77-.06-.24,0-.5.16-.69.06-.1.25-.31.36-.24.12.07.14,0,.14,0,0-.06.03-.12.08-.16.07-.06.23-.08.47,0,.19.08.36.23.46.41Zm-1.35,3.8s.09.05.17.17c.17.2.35.38.56.52l-.23.06c-.12-.12-.23-.24-.34-.37-.07-.14-.15-.3-.17-.37Zm.06-.89l-.03.03h0c-.08-.07-.16-.13-.1-.18.06-.05.15.08.15.08.3.25.61.48.92.69.43.26.89.46,1.38.59l-.44.1c-.1-.04-.28-.12-.58-.28-.46-.31-.89-.65-1.29-1.04Zm3.06-9.91l.7-.17c-.12.16-.3.27-.5.29-.08-.02-.14-.06-.19-.12Zm-1.56-2.3v-8.15l1.73-.41v6.77l3.05-.69v1.38l-4.78,1.09Zm4.76,1.51h.1l1.63,3.44s.14.19-.17.34c-.3.14-.61.25-.93.33-.23.03-.45-.05-.61-.2-.2-.21-.47-.35-.76-.38-.23-.03.58-2.88.74-3.53Zm24.24-19.28l-19.07,4.52s-.03-.07-.04-.1l-.06-.14.04-.14c.12-.38.17-.78.12-1.18-.12-.44-.37-.83-.73-1.11l-.1-.08v-.12c-.03-.08-.06-.15-.08-.23-.08-.26-.21-.6-.33-.89-.03-.06-.05-.11-.07-.17v-1.01c.05-.39-.04-.8-.25-1.14v-.05c-.17-.26-.41-.48-.69-.62l-.09-.06-.05-.09c-.07-.12-.13-.22-.19-.32-.09-.17-.19-.34-.32-.49h-.3v-.46c0-.14,0-.34.05-.51l22.13,4.39Zm-21.95-9.43l-1.09.24c-.1-.12-.12-.3-.13-.49l-.03-.95c-.01-.39-.19-.58-.59-.49l-.54.12v2.09l-1,.22v-4.93l1.85-.44c.82-.19,1.32.12,1.32.97,0,.66-.26,1.17-.83,1.42h0c.68-.05.79.3.8,1.35,0,.52.03.79.22.84v.04Zm1.93-.35c-1.08.24-1.52-.62-1.52-2.23s.44-2.68,1.59-2.96c1.16-.27,1.39.7,1.39,1.19l-.29.07c0-.67-.35-1.2-1.09-1.03-.99.23-1.31,1.24-1.31,2.64s.27,2.28,1.27,2.06c.96-.22,1.19-1.4,1.19-1.8l.29-.07c0,.59-.29,1.83-1.53,2.11Zm3.57-.8c-.95.21-1.61-.29-1.61-2.23s.7-2.76,1.61-2.97c.99-.23,1.6.27,1.6,2.23,0,2.22-.9,2.81-1.6,2.97Zm6-1.43l-.29.07v-4.72h-.01s-1.43,5.04-1.43,5.04l-.29.07-1.43-4.36h-.01v4.69l-.29.07v-5.06l.47-.11,1.41,4.24h.01s1.38-4.9,1.38-4.9l.48-.11v5.11ZM21.34,13.41l31.63,6.27-19.97,4.74c.07-.41.16-.81.27-1.2.07-.24.17-.52.25-.77.28-.7.45-1.43.52-2.18-.03-.56-.25-1.09-.63-1.49l-.08-.1v-.12c0-.14-.05-.27-.08-.38-.08-.31-.21-.61-.39-.87-.24-.33-.58-.57-.96-.69h-.05c-.17-.06-.35-.11-.53-.14h-.06l-.22-.06h-.06c-.32-.11-.66-.19-1.01-.21-.19-.03-.39-.04-.58-.04-.36,0-.72.06-1.07.16-.49.1-.94.32-1.32.63h-.05c-.11.06-.25.14-.41.23-.43.22-.74.63-.83,1.12-.08.3-.25.89-.32,1.05-.03.06-.04.12-.06.19l-.3-.45-3.73-5.67Zm3.34,7.52l.62-.41c0,.1-.03.21-.06.31-.07.4-.08.81-.05,1.2v.4c0,.25,0,.51.05.76v.52c-.01.12-.01.23,0,.34l.08.78-.69-.34c-.96-.47-1.82-1.09-2.57-1.85l2.63-1.72Zm-3.92,2.82h0c-.1-.21-.21-.4-.34-.58-.48-.53-1.01-1.01-1.59-1.43-.59-.58-1.03-1.28-1.29-2.07-.79-1.51-1.68-2.97-2.66-4.36-.21-.28-.32-.63-.29-.98,0-.12.07-.23.17-.3.1-.07.23-.05.38.05.05.2.1.39.14.5.2.35.44.67.72.96.25.29.51.58.69.79.18.21.55.69,1.01,1.16.57.59,1.09,1.22,1.58,1.88l.05.12c.27.74.6,1.45.98,2.12,1.06,1.58,2.53,2.84,4.25,3.64.54.21,1.04.48,1.5.83l-1.04.24c-.1-.25-.26-.48-.48-.64l-.14-.08c-.09-.08-.19-.12-.31-.14-.06,0-.12,0-.23.12-.12.12-.2.28-.23.45-.07.23-.15.47-.36.53h-.06c-.26,0-.69-.51-1.1-1.01-.18-.22-.37-.43-.57-.64-.31-.35-.56-.74-.76-1.16Zm3.58,12.22c.82-.18,1.15-.9,1.15-1.66s-.37-1.22-1.07-1.06c-.61.14-.89.61-.99.86l-.29.07.29-2.51,2.12-.5v.26l-1.9.45-.24,1.94h.01c.19-.38.59-.69,1.02-.79.91-.21,1.34.37,1.34,1.2s-.42,1.75-1.41,1.97c-.95.21-1.31-.34-1.31-.92v-.05l.29-.07v.08c.05.54.4.87.99.73Zm-4.41-2.75c.49-.16,1.05-.64,1.2-1.09l.24-.06v4.71l-.26.06v-4.23c-.24.31-.75.69-1.18.83v-.23Zm-2.19-.29c1.02-.24,1.38.4,1.38,2.06s-.45,2.48-1.38,2.69c-1,.22-1.38-.42-1.38-2.06s.43-2.47,1.38-2.69Zm-3.33,1.01c-.75.18-1.04.84-1.04,1.43l-.29.07c0-.79.47-1.51,1.36-1.72.51-.12,1.27-.04,1.27.95,0,.69-.37,1.11-.9,1.64l-.65.64c-.43.42-.81,1-.81,1.4l2.41-.54v.25l-2.7.61c0-.66.31-1.27.86-1.81l.7-.68c.45-.44.81-.87.81-1.45s-.35-.93-1-.78Zm-1.97,8.9l12.32-2.93.06.19.04.12v.12c-.02.08-.04.16-.05.24-.03.23-.09.47-.17.69-.2.57-.2,1.19,0,1.76.15.43.34.84.56,1.24l.07.13v.15c-.03.28-.01.56.05.84,0,0-12.89-2.57-12.89-2.57Zm13.18-1.9c0-.1.04-.21.06-.29v-.16h.04s.09.08.12.14c0,0-.05.55.79,1.38l.48.45c.36.36.73.72,1.12,1.05.21.21.29.5.23.78-.01.06-.07.1-.13.1-.08,0-.14-.05-.19-.1-.15-.14-.31-.28-.48-.41-.67-.46-1.23-1.06-1.65-1.76-.08-.22-.16-.4-.22-.56-.09-.21-.16-.41-.21-.63l.03.02Zm.18,1.63c-.06-.14-.11-.28-.14-.43v-.18h.04c.06,0,.19.17.28.31.4.9.94,1.73,1.6,2.46.37.43.54.69.69.82.09.13.19.25.3.36.12.12.17.3.11.47-.02.07-.08.12-.16.12-.08,0-.19-.05-.32-.27-.21-.31-.44-.6-.69-.87-.57-.56-1.03-1.21-1.38-1.93-.09-.3-.2-.59-.33-.87Zm.59,3.28h.02c-.09-.29-.16-.57-.21-.85v-.04h.05c.07,0,.13.08.14.08,0,0,1.38,2.24,1.82,2.9l.3.41c.36.45.65.93.89,1.45l-.87.21s-.04-.05-.06-.07c-.28-.39-.52-.78-.73-1.2-.03-.09-.07-.18-.09-.27-.05-.17-.11-.34-.19-.5-.4-.73-.96-1.87-1.06-2.11Zm3.15,6.46h.02c2.58-.61,2.91,1.06,2.91,3.53s-.32,4.29-2.91,4.9c-2.58.61-2.91-1.06-2.91-3.52s.3-4.3,2.89-4.91Zm-6.6,1.56h.02c1.89-.45,2.66.29,2.66,1.94l-1.65.39c0-.61-.29-1.29-.98-1.14-.83.2-1.17,1.09-1.17,3.12s.19,3.14,1.18,2.91c.65-.24,1.07-.86,1.06-1.55v-.83l-1.14.27v-1.2l2.75-.69v4.37l-1.27.3v-.75c-.36.7-1.03,1.2-1.8,1.35-2.12.5-2.54-.9-2.54-3.7s.67-4.27,2.88-4.79Zm-19.92,15.68l24.85-5.89,5.75,1.14c-.18.83-.41,1.65-.69,2.46l-.1.31-.05.04c-.48.41-.88.91-1.18,1.46-1.98.82-3.7,1.53-3.79,1.56-.36.1-.67.35-.85.69-.06.12-.52,1.23-1.15,2.79l-22.79-4.54Zm15.7,10.71h0s.76,4.6.76,4.6l.82-4.97,1.31-.31.8,4.58.75-4.96,1.34-.32-1.24,6.75-1.54.36-.74-4.5-.76,4.86-1.54.36-1.24-6.2,1.27-.26Zm-6.38,11.52l11.27-2.68,5.91,6.08-17.18-3.4Zm21.33,6.31h.01c0,.28-.14.3-.25.21-.11-.09-8.4-8.55-9.18-9.34l9.82-2.35c0,1.23-.4,11.22-.4,11.48Zm.46-.41l.28-11.15.45-.1s-.74,11.25-.74,11.25Zm1.81-15.04l-1.68-4.13v4.52l-1.26.3v-6.44l1.58-.37,1.66,4.03v-4.41l1.26-.3v6.44h0l-1.56.36Zm1.49-14.35h.01c-.53.45-1.1.85-1.7,1.19-.05,0-.17.1-.21,0-.03-.1.11-.14.11-.14,0,0,.36-.21.83-.54.61-.47,1.19-.98,1.73-1.54.22-.25.52-.56.49-.63-.03-.06-.12-.09-.22-.11-.15-.08-.26-.21-.3-.38,0-.19.37-.5.63-.47.25.03.23.39.23.39l.07.04c.08.04.05.1-.06.39-.46.66-1.01,1.27-1.62,1.79Zm1.03,7.31l3.8-.9v1.06l-2.42.58v1.51l2.29-.54v1.06l-2.29.54v1.73l2.53-.6v1.07l-3.9.92v-6.44h0Zm2.06-6.07s-.05-.07,0-.08c.05-.01.07,0,.08.05.19.36.2.79.06,1.18-.1.36-.27.69-.51.97l-.69.17c.55-.38.96-.93,1.16-1.57.08-.24.03-.5-.1-.71Zm3.48,28.52l-5.08-1.01,3.29-1.73,1.79,2.74Zm3.63-18.18l-1.49.35c-.12-.19-.19-.41-.17-.63l-.03-1.23c0-.5-.26-.75-.81-.62l-.73.17v2.75l-1.38.32v-6.46l2.53-.6c1.12-.26,1.81.13,1.81,1.23.06.8-.39,1.55-1.13,1.87.94-.1,1.07.36,1.09,1.71,0,.69.05,1.02.3,1.08v.05Zm5.27-11.26l-9.1,2.16-5-3.44c.69-.8.69-1.11.69-1.38l13.41,2.66Zm-11.89-5.82c-.19-.24-.89-1.27-1.38-1.96l.53-.12,1.2,1.73s.3.39.11.54c-.2.14-.28.05-.47-.19Z"></path><path class="cls-1" d="m26.73,19.95s-.01,0-.01,0c0,0-.01.02-.01.03h.03v-.03Z"></path></g></svg> 