<?xml version="1.0" encoding="UTF-8"?> <svg xmlns="http://www.w3.org/2000/svg" id="Layer_2" width="100" height="14.91" viewBox="0 0 100 14.91"><defs><style>.cls-1{fill:#cb2026;}.cls-2{fill-rule:evenodd;}</style></defs><g><g><path class="cls-2" d="m30.75,12.02h-1.9v-4.94c0-1.02-.45-1.54-1.37-1.54-.53,0-.96.19-1.28.58-.32.38-.48.96-.48,1.73v4.16h-1.93v-4.94c0-1.04-.42-1.56-1.28-1.56-.52,0-.97.21-1.32.62-.36.41-.54.99-.54,1.71v4.16h-1.88l.02-7.94h1.75v1.69c.57-1.23,1.46-1.85,2.68-1.85s1.95.62,2.3,1.86c.65-1.23,1.54-1.85,2.68-1.85.77,0,1.39.24,1.86.72.47.47.7,1.07.7,1.77v5.61h-.01,0Z"></path><path class="cls-2" d="m39.8,12.04h-1.72c-.15-.48-.24-1.02-.27-1.6-.48,1.17-1.39,1.76-2.72,1.76-.8,0-1.44-.23-1.92-.7-.48-.46-.72-1.04-.72-1.75,0-1.82,1.62-2.73,4.86-2.72.13,0,.3,0,.52,0v-.59c0-.82-.56-1.23-1.7-1.24-1.1,0-1.73.41-1.88,1.23l-1.54-.23c.08-.66.43-1.2,1.04-1.63.6-.42,1.48-.63,2.62-.63.62,0,1.12.05,1.52.15.39.1.72.27.99.52.27.24.45.51.56.79.1.28.15.77.15,1.45v3.58c0,.52.07,1.05.23,1.6h0Zm-1.99-4.03c-2.34,0-3.51.54-3.52,1.65,0,.33.11.61.35.84.23.23.59.35,1.07.35.69,0,1.21-.21,1.56-.64.35-.43.53-.92.53-1.47v-.73h0Z"></path><polygon class="cls-2" points="47.83 12.06 45.76 12.05 44.07 9.16 42.2 12.04 40.64 12.04 43.32 7.96 41.01 4.11 43.09 4.11 44.4 6.45 45.91 4.12 47.43 4.12 45.16 7.56 47.83 12.06 47.83 12.06"></polygon><path class="cls-2" d="m54.93,4.14l-3.14,9.02c-.19.55-.45.98-.78,1.29-.33.3-.8.46-1.4.45-.24,0-.58-.02-1.04-.05v-1.42h.87c.38.01.66-.04.84-.17.18-.12.33-.34.43-.65s.16-.5.16-.55c0-.03-.05-.19-.16-.48l-2.74-7.45h1.9l1.93,5.24,1.69-5.23h1.44,0Z"></path><path class="cls-2" d="m68.1,12.1h-1.9v-4.94c.01-1.02-.45-1.54-1.37-1.54-.53,0-.96.19-1.28.58s-.48.96-.48,1.73v4.16h-1.93v-4.94c0-1.04-.42-1.56-1.28-1.56-.52,0-.96.21-1.32.62s-.54.99-.54,1.71v4.16h-1.88l.02-7.94h1.76v1.69c.57-1.23,1.46-1.85,2.68-1.85s1.95.62,2.3,1.86c.65-1.23,1.54-1.85,2.68-1.85.77,0,1.39.24,1.87.72.47.47.7,1.07.7,1.77v5.61h-.01Z"></path><path class="cls-2" d="m72.1,3.25h-1.81v-1.86h1.81v1.86h0Zm-.02,8.86h-1.81l.02-7.94h1.81l-.02,7.94h0Z"></path><path class="cls-2" d="m73.28,10.29l1.7-.32c.26.64.83.97,1.71.97,1.12,0,1.68-.32,1.69-.97,0-.21-.08-.38-.26-.52-.17-.13-.38-.23-.62-.27l-1.46-.28c-1.62-.31-2.43-1.09-2.43-2.35,0-.7.26-1.29.77-1.78.51-.49,1.28-.73,2.3-.73,1.69,0,2.73.62,3.1,1.85l-1.61.32c-.17-.6-.65-.9-1.44-.9-.96,0-1.45.29-1.45.89,0,.41.39.7,1.17.86l1.72.36c1.34.27,2.01,1.03,2.01,2.28,0,.87-.35,1.53-1.04,1.96s-1.51.64-2.45.64c-.82,0-1.55-.17-2.18-.49-.63-.33-1.04-.83-1.23-1.5h0Z"></path><path class="cls-2" d="m86.76,9.61l1.63.22c-.21.71-.62,1.3-1.24,1.77-.61.46-1.39.69-2.31.69-1.11,0-2.01-.37-2.68-1.11-.68-.74-1.01-1.74-1.01-3,0-1.2.34-2.19,1.03-2.97s1.61-1.17,2.78-1.17c1.14,0,2.03.39,2.65,1.17.62.77.93,1.77.93,2.98v.2s-5.52,0-5.52,0c0,.54.05.97.15,1.29s.3.61.61.85c.3.24.69.36,1.15.36.89,0,1.5-.42,1.81-1.28h.01Zm-.1-2.38c0-.57-.17-1.03-.51-1.4-.34-.36-.76-.54-1.27-.54s-.91.16-1.25.5c-.33.33-.53.81-.59,1.43h3.62s0,0,0,0Z"></path><path class="cls-2" d="m92,12.16h-1.81l.02-7.94h1.64v1.89c.23-.73.55-1.27.96-1.61.41-.34.83-.5,1.26-.5.06,0,.14,0,.24,0v1.92c-.93,0-1.54.29-1.84.87-.3.58-.45,1.14-.45,1.69v3.67h-.01,0Z"></path></g><path d="m99.99,2.56c0,.48-.17.9-.52,1.25-.34.34-.76.52-1.24.52s-.9-.17-1.25-.52-.52-.77-.52-1.25.17-.9.52-1.25.77-.52,1.26-.52.9.17,1.24.52c.34.35.51.77.51,1.25h0Zm-.31,0c0-.4-.14-.76-.42-1.05-.28-.29-.62-.44-1.02-.44s-.75.14-1.03.43-.43.64-.43,1.05.14.76.42,1.05.62.44,1.02.44.73-.14,1.02-.43c.28-.29.43-.64.43-1.05h.01Zm-.56,1.02h-.46l-.33-.83h-.49v.82h-.44V1.53h.95c.26,0,.45.06.58.17.12.11.19.26.19.43,0,.25-.13.43-.38.54l.37.9h0Zm-1.28-1.15h.45c.25,0,.38-.09.38-.29,0-.18-.11-.28-.35-.28h-.48v.57h0Z"></path></g><g><path class="cls-1" d="m0,14.68v.12h.2c-.08-.02-.14-.06-.19-.12h0Z"></path><path class="cls-1" d="m14.1,1.43c.18-.01.49-.05.73.02V.03L.03,0,0,10.14c.07-.08.16-.15.25-.21.22-.13.51-.12.49.2-.04.34-.29.67-.58.85-.05.03-.11.05-.16.05v.28s.1-.08.15-.12c.25-.13.51-.04.51.26-.02.33-.23.65-.52.81-.05.02-.1.03-.14.04v.28s.09-.07.15-.1c.26-.12.51.03.53.32,0,.31-.18.62-.47.75-.08.02-.15.03-.21.01v.38c.06-.08.13-.14.23-.18.27-.09.51.09.55.37.02.28-.13.58-.41.67h1c.06-.03.12-.06.2-.08.18-.04.38,0,.52.09h.42c.11-.25.39-.43.65-.51.35-.08.85-.01.91.42v.09l10.71.02v-4.91c-.2-.05-.37-.17-.4-.42,0-.3.17-.53.42-.72v-.58c-.28-.02-.53-.13-.57-.41-.01-.35.26-.6.58-.78v-.4c-.34.01-.69-.06-.76-.38-.02-.39.39-.64.76-.78v-.27c-.37.05-.87.04-.96-.32-.03-.44.6-.66.96-.74v-.2c-.3.05-1.05.16-1.16-.24-.04-.41.65-.58.94-.63.06,0,.13-.02.21-.02v-.18c-.1.02-.2.04-.26.05-.27.04-.99.15-1.1-.21-.04-.35.64-.47.88-.51.12-.01.3-.03.48-.03v-.21c-.19.07-.43.1-.52.11-.24.03-.92.13-1.03-.17-.04-.3.63-.38.82-.4v-.02Zm-.94.42c.04.32-.7.46-.92.51-.21.04-.99.21-1.04-.12,0-.34.69-.47.95-.52.23-.04.91-.17,1.01.13h0Zm-3.12,5.04c.33-.1,1.2-.28,1.26.25,0,.57-.79.91-1.24,1.06-.31.09-1.25.29-1.24-.27,0-.55.79-.9,1.23-1.05h0Zm-2.32-2.1c-.18.06-1.04.32-.98-.09.06-.43.73-.7,1.09-.83.18-.06,1.04-.31,1.01.08-.03.44-.77.71-1.11.84Zm2.31.67c.3-.09,1.15-.29,1.2.2-.01.52-.78.83-1.2.97-.27.08-1.21.3-1.19-.21.01-.51.78-.83,1.19-.96h0Zm-1.13-.38c.02-.47.77-.74,1.14-.86.26-.07,1.09-.28,1.14.16-.01.47-.78.74-1.14.87-.23.07-1.16.3-1.13-.16h0Zm3.14-3.99c.21-.03.84-.15.95.11.04.26-.68.37-.86.41-.18.03-.93.18-.98-.09.01-.29.67-.39.89-.42h0Zm-2,2.93c-.2.05-1.1.29-1.07-.12.02-.42.76-.65,1.09-.75.23-.06,1.02-.26,1.07.12-.01.42-.76.65-1.09.75Zm.03-1.76c.2-.05.96-.24,1.01.08-.01.37-.75.56-1.03.64-.16.04-1.04.27-1.01-.08.03-.37.74-.56,1.03-.65h0Zm-2.77-.26c.09-.31.68-.47.95-.55.11-.03.87-.23.84,0-.04.29-.72.46-.96.54-.1.03-.9.25-.83.01h0Zm-.19.74c.08-.35.7-.54,1-.64.13-.04.93-.27.9.01-.04.34-.74.55-1.01.64-.12.04-.95.28-.88,0h0Zm-.19.89c.07-.39.72-.62,1.05-.74.15-.05.98-.29.95.05-.04.38-.76.63-1.07.74-.15.05-1,.31-.93-.05h0Zm-2,.91c.12-.4.65-.65,1.01-.81.14-.05.93-.33.86.02-.08.4-.72.67-1.05.82-.15.06-.89.33-.82-.04Zm-.25,1.11c.11-.43.65-.72,1.03-.89.17-.07.96-.34.9.07-.06.44-.71.75-1.07.91-.18.07-.91.33-.85-.08h0Zm1.77.41c-.05.47-.71.81-1.09.98-.22.09-.93.31-.89-.14.09-.47.64-.78,1.04-.96.2-.08.99-.33.94.12h0Zm-3.58.57c.11-.41.56-.72.92-.9.17-.08.83-.33.77.07-.1.43-.61.74-.98.93-.18.08-.78.31-.71-.09Zm-.23,1.25c.09-.43.53-.76.91-.95.21-.1.84-.31.8.12-.09.45-.59.79-.97.98-.22.1-.78.27-.73-.15Zm-1.56.86c.07-.39.41-.71.74-.9.2-.11.68-.26.63.13-.08.4-.46.74-.8.93-.21.11-.61.2-.57-.16Zm-.24,3.99c0-.37.28-.68.6-.83.29-.11.67-.06.69.32,0,.39-.32.72-.67.86-.29.09-.6,0-.62-.34h0Zm0-1.36c.02-.38.32-.71.65-.88.27-.12.68-.13.67.26-.03.4-.37.74-.72.91-.27.11-.6.06-.6-.29h0Zm.73,3.1c-.3.07-.59-.07-.64-.39-.02-.35.23-.64.54-.76.31-.1.67,0,.71.37,0,.36-.27.68-.61.78h0Zm-.06-4.21c-.24.11-.61.14-.59-.22.05-.39.37-.72.7-.9.24-.12.68-.2.65.19-.06.41-.42.75-.77.93Zm1.67,3.77c-.33.08-.78.01-.82-.39,0-.43.39-.75.76-.88.34-.1.86-.08.9.37,0,.45-.44.78-.84.91Zm-.87-1.88c.01-.44.43-.78.81-.94.32-.12.86-.14.88.31-.02.47-.48.82-.88.97-.32.1-.78.08-.8-.34Zm.82-1.2c-.29.11-.78.15-.78-.28.04-.45.47-.79.85-.97.28-.12.86-.21.85.25-.05.47-.52.83-.92,1Zm.09-1.5c-.25.11-.79.22-.76-.22.06-.45.51-.79.89-.97.25-.11.85-.27.82.18-.07.47-.55.82-.95,1h0Zm1.87,2.23c-.33.1-.96.17-.98-.33.03-.51.57-.86,1-1.03.31-.11,1.06-.22,1.05.3,0,.53-.64.91-1.08,1.06Zm1.13-2.7c-.02.52-.67.9-1.09,1.06-.3.1-.96.22-.95-.27.05-.5.6-.86,1.03-1.04.28-.1,1.05-.27,1.02.24h0Zm.1-1.53c-.04.5-.69.86-1.1,1.03-.26.1-.95.28-.93-.2.07-.49.63-.83,1.04-1.01.24-.09,1.02-.31.98.18Zm1.15,1.61c-.29.1-1.14.28-1.11-.26s.73-.9,1.16-1.06c.29-.1,1.17-.3,1.16.24,0,.55-.77.93-1.21,1.09h0Zm.06-1.58c-.26.09-1.12.31-1.07-.2.04-.51.73-.85,1.15-1,.25-.09,1.13-.32,1.11.18-.01.52-.78.87-1.19,1.02Zm.09-1.44c-.21.07-1.08.32-1.03-.14.05-.47.73-.78,1.12-.93.22-.07,1.09-.32,1.06.13-.02.48-.78.8-1.16.94h0Zm2.45,2.43c.36-.11,1.25-.28,1.3.3,0,.6-.79.97-1.28,1.13-.34.1-1.28.27-1.28-.32s.79-.96,1.25-1.11Zm.07,3.23c-.36.1-1.3.24-1.31-.36,0-.6.79-.99,1.27-1.14.39-.11,1.28-.26,1.34.34,0,.62-.8,1-1.3,1.16h0Zm3.79-5.46c.03.54-.75.86-1.17.99-.34.09-1.24.27-1.3-.28,0-.54.76-.85,1.19-.98.35-.09,1.18-.24,1.28.27Zm-.18-1.39c.04.49-.74.76-1.11.87-.31.08-1.18.26-1.24-.24,0-.5.74-.76,1.13-.87.32-.08,1.12-.22,1.22.24h0Zm-.19-1.19c.04.44-.73.66-1.05.75-.27.06-1.12.25-1.18-.19,0-.45.73-.66,1.07-.75.28-.06,1.05-.21,1.15.2Zm-.19-1c.04.38-.72.56-.98.62-.24.05-1.06.23-1.11-.15,0-.39.71-.57,1.01-.63.26-.05.98-.19,1.08.16Z"></path></g></svg> 