<?xml version="1.0" encoding="UTF-8"?> <svg xmlns="http://www.w3.org/2000/svg" id="Layer_1" width="100" height="38.87" viewBox="0 0 100 38.87"><defs><style>.cls-1{fill:#818fc0;}.cls-2{fill:#255398;}</style></defs><path class="cls-1" d="m41.48,11.7c2.12.8,3.51,2.12,3.51,2.12.03-.63.2-1.29.43-1.89,0,0-.66-1.26-2.65-2.62-2.15-1.46-4.61-1.86-4.61-1.86-.5,1.06-.83,2.22-1.03,3.45,0,0,1.79-.2,4.34.79h0Zm1.52-4.27c2.02,1.95,2.75,3.91,2.75,3.91.37-.6.85-1.12,1.43-1.52,0,0-.73-2.32-1.95-4.08-1.19-1.72-3.15-3.15-3.15-3.15-.96.73-1.82,1.59-2.52,2.55,0,0,1.99.86,3.45,2.29Zm3.55-2.42c.89,2.32,1.13,4.51,1.13,4.51.66-.32,1.36-.52,2.09-.6,0,0,.03-2.25-.46-4.54-.56-2.68-1.23-4.37-1.23-4.37-1.19.2-2.32.53-3.38,1.03,0,0,1.23,2.38,1.86,3.98h0Zm11.99,6.69c-2.09.8-3.51,2.12-3.51,2.12,0-.63-.17-1.29-.4-1.89,0,0,.66-1.26,2.65-2.62,2.15-1.46,4.57-1.86,4.57-1.86.52,1.09.86,2.25,1.03,3.45,0,0-1.79-.2-4.34.79h0Zm-1.49-4.27c-2.02,1.95-2.75,3.91-2.75,3.91-.37-.61-.87-1.13-1.46-1.52,0,0,.76-2.32,1.96-4.08,1.23-1.72,3.18-3.15,3.18-3.15.96.73,1.79,1.59,2.52,2.55,0,0-1.99.86-3.45,2.29Zm-3.55-2.42c-.93,2.32-1.16,4.51-1.16,4.51-.6-.3-1.36-.53-2.05-.6,0,0-.03-2.25.43-4.54.6-2.68,1.26-4.37,1.26-4.37,1.19.2,2.32.53,3.38,1.03,0,0-1.22,2.38-1.85,3.98h0Z"></path><path class="cls-2" d="m43.24,19.58c2.52-1.19,5.04-.93,5.04-.93-.89-.36-1.66-.93-2.22-1.66,0,0-2.25-.26-3.98.07-2.62.53-3.78,1.43-3.78,1.43.53,1.09,1.23,2.09,2.02,2.98,0,0,1.06-.99,2.92-1.89h0Zm-1.95-3.78c2.58-.13,4.34.53,4.34.53-.33-.56-.53-1.19-.6-1.89,0,0-2.02-1.16-3.91-1.39-2.58-.36-4.11.13-4.11.13.03,1.2.23,2.4.6,3.55,0,0,1.66-.83,3.68-.93Z"></path><path class="cls-2" d="m50.03,21.54c3.65,0,5.27,3.18,5.27,3.18,1.13-.5,2.19-1.16,3.15-1.95,0,0-3.11-3.91-8.42-3.91s-8.42,3.91-8.42,3.91c.96.79,1.99,1.46,3.15,1.95,0,0,1.59-3.18,5.27-3.18h0Z"></path><path class="cls-2" d="m56.79,19.58c-2.48-1.19-5.04-.93-5.04-.93.89-.36,1.69-.93,2.25-1.66,0,0,2.25-.26,3.98.07,2.62.53,3.78,1.43,3.78,1.43-.53,1.09-1.23,2.09-2.02,2.98,0,0-1.09-.99-2.95-1.89h0Zm1.96-3.78c-2.55-.13-4.31.53-4.31.53.3-.56.53-1.19.6-1.89,0,0,2.02-1.16,3.91-1.39,2.58-.36,4.11.13,4.11.13-.03,1.23-.26,2.42-.6,3.55,0,0-1.66-.83-3.71-.93h0ZM2.39,33.63v-4.34h1.86c.66,0,1.19.07,1.72.5.5.4.83,1.03.83,1.66,0,.7-.26,1.26-.79,1.72-.53.43-1.09.46-1.76.46h-1.85Zm0,.96h1.95c.96,0,1.76-.13,2.49-.83.66-.63,1.03-1.43,1.03-2.32,0-.96-.46-1.89-1.19-2.45-.73-.53-1.56-.66-2.42-.66H0v.96h1.33v8.42H0v.96h3.68v-.96h-1.29v-3.12Zm6.53-.16c.2-1.43,1.49-2.62,2.95-2.62,1.56,0,2.92,1.09,3.12,2.65l-6.06-.03h0Zm5.63,2.12c-.56.96-1.52,1.49-2.65,1.49-1.56,0-2.88-1.26-2.98-2.82h6.96v-.3c0-2.22-1.72-3.98-3.98-3.98s-3.94,1.86-3.94,4.01,1.79,3.91,3.98,3.91c1.59,0,2.98-.89,3.64-2.32h-1.03s0,0,0,0Zm4.08-3.94c.36-1.06,1.36-1.49,2.45-1.52v.89c-1.69.13-2.45,1.13-2.45,2.75v3.05h1.29v.89h-3.51v-.89h1.29v-5.8h-1.29v-.89h2.22v1.52Zm6.1-.2c.46-.96,1.49-1.46,2.55-1.46.83,0,2.12.46,2.62,1.46.2.36.43,1.06.43,1.99v3.38h1.26v.89h-3.51v-.89h1.29v-3.05c0-.66-.03-1.32-.36-1.92-.43-.7-1.26-.93-1.99-.93-.66,0-1.36.3-1.79.8-.5.6-.5,1.23-.5,1.95v3.15h1.26v.89h-3.51v-.89h1.29v-5.8h-1.29v-.89h2.25v1.33h0Zm11.1,5.53c-1.72,0-3.05-1.39-3.05-3.05s1.36-3.02,3.05-3.02,3.02,1.39,3.02,3.05c0,1.66-1.36,3.02-3.02,3.02Zm0,.93c2.22,0,3.98-1.79,3.98-4.01s-1.79-3.91-3.98-3.91-4.01,1.76-4.01,3.98c0,2.19,1.79,3.94,4.01,3.94Zm8.65-.89c-1.66,0-3.08-1.36-3.08-3.05s1.36-3.08,3.08-3.08,3.05,1.36,3.05,3.05c0,1.69-1.33,3.08-3.05,3.08Zm3.02.69h2.22v-.89h-1.26v-9.44h-2.25v.89h1.29v3.61c-.6-1.19-1.86-1.89-3.15-1.89-2.12,0-3.91,1.82-3.91,3.94,0,.73.3,1.56.66,2.19.7,1.06,2.09,1.79,3.28,1.79,1.33,0,2.45-.66,3.12-1.79v1.59h0Zm15.71,0h-2.02l-3.18-4.44h.4c.76,0,1.52,0,2.19-.4.73-.46,1.16-1.23,1.16-2.09,0-.73-.23-1.39-.76-1.86-.63-.56-1.29-.6-2.05-.6h-2.05v8.42h1.26v.96h-3.61v-.96h1.33v-8.42h-1.33v-.96h4.47c.99,0,1.82.1,2.65.76.76.66,1.16,1.59,1.16,2.62,0,1.76-1.36,3.18-3.15,3.18l2.19,2.82h1.36v.96h0Zm3.01-.89h1.29v.89h-3.55v-.89h1.32v-5.8h-1.29v-.89h2.22v6.69Zm-.93-9.44h.93v1.49h-.93v-1.49Zm9.58,5.04h-.89c-.53-.89-1.56-1.46-2.62-1.46-1.66,0-2.98,1.36-2.98,3.02s1.36,3.02,3.08,3.02c1.09-.03,2.15-.63,2.58-1.62l1.09-.03c-.56,1.59-2.12,2.58-3.78,2.58-2.15,0-3.94-1.79-3.94-3.91,0-1.09.43-2.09,1.13-2.82.73-.73,1.69-1.19,2.78-1.19s1.95.43,2.65,1.19v-1.06h.89v2.29h0Zm4.71-1.49c1.66,0,3.02,1.36,3.02,3.02s-1.36,3.05-3.08,3.05-3.02-1.39-3.02-3.02c0-1.69,1.39-3.05,3.08-3.05Zm3.01,6.79h2.22v-.89h-1.26v-5.8h1.26v-.89h-2.22v1.66c-.7-1.16-1.76-1.79-3.11-1.79s-2.68.7-3.31,1.79c-.3.56-.63,1.06-.63,2.19-.03.83.23,1.56.6,2.19.7,1.09,1.96,1.76,3.35,1.76s2.45-.63,3.11-1.76v1.56h0Zm5.47-6.06c.33-1.06,1.36-1.49,2.42-1.52v.89c-1.66.13-2.42,1.13-2.42,2.75v3.05h1.26v.89h-3.51v-.89h1.29v-5.8h-1.29v-.89h2.25v1.52h0Zm6.73,5.37c-1.66,0-3.08-1.36-3.08-3.05s1.36-3.08,3.08-3.08,3.05,1.36,3.05,3.05-1.33,3.08-3.05,3.08Zm3.02.69h2.22v-.89h-1.26v-9.44h-2.25v.89h1.29v3.61c-.6-1.19-1.86-1.89-3.15-1.89-2.12,0-3.91,1.82-3.91,3.94,0,.73.3,1.56.66,2.19.7,1.06,2.09,1.79,3.28,1.79,1.32,0,2.45-.66,3.11-1.79v1.59h0Z"></path></svg> 