<?xml version="1.0" encoding="UTF-8"?><svg id="ten" xmlns="http://www.w3.org/2000/svg" width="1060.7" height="324" viewBox="0 0 1060.7 324"><defs><style>.cls-1{fill:#fff;}</style></defs><path class="cls-1" d="m510.36,149.31h-30.24v-49.03h30.24v-40.45h62.11v40.45h36.77v49.03h-36.77v88.67c0,33.5,13.08,56.79,28.19,74.77h-68.65c-13.07-15.53-21.66-39.23-21.66-73.14v-90.3h.01Z"/><path class="cls-1" d="m727.32,316.84c-56.8,0-91.53-33.1-91.53-87.44v-45.35c0-54.34,34.73-87.85,91.53-87.85s91.93,33.51,91.93,87.85v42.49h-121.35v2.86c0,25.74,11.44,35.55,30.65,35.55,24.52,0,40.04-6.54,61.29-17.16l22.06,42.5c-24.52,16.75-50.26,26.56-84.58,26.56h0Zm29.83-130.34v-2.04c0-24.11-8.99-36.37-29.83-36.37-19.2,0-30.65,11.03-30.65,36.37v2.04h60.48Z"/><path class="cls-1" d="m977.79,274.75v-96.02c0-19.2-6.13-27.79-23.7-27.79-11.44,0-23.7,7.35-32.28,17.57v144.24h-62.11V100.28h54.34l4.49,17.57c12.26-12.26,34.32-21.66,53.94-21.66,49.85,0,67.42,29.42,67.42,77.23v80.9c0,9.81,4.09,13.48,11.44,13.48,2.86,0,6.13-.82,10.22-2.04l-.41,47.4c-13.89,2.45-26.15,3.68-36.77,3.68-29.42,0-46.58-10.21-46.58-42.09h0Z"/></svg>