<?xml version="1.0" encoding="UTF-8"?> <svg xmlns="http://www.w3.org/2000/svg" xmlns:xlink="http://www.w3.org/1999/xlink" id="Fast_50" width="100" height="100" viewBox="0 0 100 100"><defs><style>.cls-1{fill:#86bc25;}.cls-2{fill:url(#linear-gradient);isolation:isolate;opacity:.2;}.cls-3{fill:url(#linear-gradient-2);}</style><linearGradient id="linear-gradient" x1="4.86" y1="52" x2="95.14" y2="52" gradientTransform="translate(0 102) scale(1 -1)" gradientUnits="userSpaceOnUse"><stop offset="0" stop-color="#3a357e"></stop><stop offset="1" stop-color="#c83393"></stop></linearGradient><linearGradient id="linear-gradient-2" x1="0" y1="52" x2="100" y2="52" gradientTransform="translate(0 102) scale(1 -1)" gradientUnits="userSpaceOnUse"><stop offset="0" stop-color="#3a357e"></stop><stop offset="1" stop-color="#c83393"></stop></linearGradient></defs><circle class="cls-2" cx="50" cy="50" r="45.14"></circle><path class="cls-3" d="m50,100C22.43,100,0,77.57,0,50S22.43,0,50,0s50,22.43,50,50-22.43,50-50,50ZM50,.53C22.72.53.53,22.72.53,50s22.19,49.47,49.47,49.47,49.47-22.19,49.47-49.47S77.28.53,50,.53Z"></path><path class="cls-1" d="m85.11,47.94c0-1.17.95-2.08,2.08-2.08s2.08.95,2.08,2.08-.95,2.08-2.08,2.08-2.08-.91-2.08-2.08"></path><path d="m22.69,42.36c0,2.42-.61,4.24-1.91,5.54-1.3,1.3-3.12,1.95-5.45,1.95h-4.59v-14.41h4.85c2.3,0,4.03.56,5.24,1.77,1.25,1.17,1.86,2.9,1.86,5.15m-3.98.13c0-1.34-.26-2.29-.78-2.94-.48-.61-1.3-.95-2.34-.95h-1.04v8.05h.86c1.17,0,1.99-.34,2.56-1.04.48-.69.74-1.73.74-3.12"></path><rect x="35.28" y="35.39" width="3.59" height="14.46"></rect><path d="m50.74,44.44c0,1.73-.43,3.12-1.39,4.11s-2.25,1.47-3.9,1.47-2.86-.48-3.81-1.51-1.43-2.38-1.43-4.07.43-3.12,1.39-4.07c.95-1,2.25-1.47,3.9-1.47,1.04,0,1.95.22,2.73.65.82.43,1.39,1.08,1.82,1.91.52.91.69,1.86.69,2.99m-6.8,0c0,.95.13,1.6.34,2.08.22.48.61.69,1.21.69s.95-.22,1.21-.69c.22-.48.34-1.21.34-2.08,0-.95-.13-1.6-.34-2.08-.22-.43-.61-.69-1.21-.69-.52,0-.95.22-1.21.69-.22.48-.34,1.12-.34,2.08"></path><rect x="52.21" y="39.07" width="3.59" height="10.73"></rect><rect x="52.21" y="35.39" width="3.59" height="2.42"></rect><path d="m63.12,47.08c.48,0,1.08-.13,1.73-.34v2.73c-.48.22-.95.34-1.39.43s-.95.13-1.56.13c-1.21,0-2.08-.3-2.64-.95-.52-.61-.82-1.56-.82-2.81v-4.41h-1.25v-2.77h1.25v-2.68l3.64-.61v3.37h2.34v2.73h-2.34v4.15c.09.74.39,1.04,1.04,1.04"></path><path d="m71.51,47.08c.48,0,1.08-.13,1.73-.34v2.73c-.48.22-.95.34-1.39.43s-.95.13-1.56.13c-1.21,0-2.08-.3-2.64-.95-.52-.61-.82-1.56-.82-2.81v-4.41h-1.25v-2.77h1.25v-2.73l3.64-.56v3.37h2.34v2.73h-2.34v4.15c.05.74.39,1.04,1.04,1.04"></path><path d="m82.94,40.15c-.86-.86-2.08-1.25-3.64-1.25-1.65,0-2.94.48-3.85,1.47s-1.34,2.38-1.34,4.2.48,3.12,1.43,4.07c1,.95,2.34,1.43,4.07,1.43.86,0,1.56-.04,2.16-.17.56-.13,1.21-.3,1.73-.61l-.52-2.42c-.39.17-.82.3-1.17.39-.52.13-1.13.17-1.73.17-.69,0-1.25-.17-1.65-.48-.39-.34-.61-.82-.61-1.43h6.45v-1.69c-.05-1.6-.52-2.81-1.34-3.68m-5.11,2.99c.05-.56.22-1.04.48-1.3s.61-.39,1.08-.39c.43,0,.86.13,1.13.43.26.3.39.69.43,1.25h-3.12Z"></path><path d="m32.6,40.15c-.91-.86-2.08-1.25-3.64-1.25-1.65,0-2.94.48-3.85,1.47s-1.34,2.38-1.34,4.2.48,3.12,1.43,4.07c1,.95,2.34,1.43,4.07,1.43.86,0,1.56-.04,2.16-.17.56-.13,1.21-.3,1.73-.61l-.52-2.47c-.39.17-.82.3-1.17.39-.52.13-1.12.17-1.73.17-.69,0-1.25-.17-1.65-.48-.39-.34-.61-.82-.61-1.43h6.45v-1.65c-.05-1.6-.52-2.81-1.34-3.68m-5.15,2.99c.05-.56.22-1.04.48-1.3s.61-.39,1.08-.39.86.13,1.12.43.39.69.43,1.25h-3.12Z"></path><path d="m15.89,56.9v.69h-1.99v5.5h-.82v-5.5h-1.99v-.69h4.81,0Z"></path><path d="m17.49,58.64c.26,0,.52.05.74.13s.43.22.56.39c.17.17.3.39.39.61.09.26.13.52.13.82,0,.13,0,.22-.05.26s-.09.09-.13.09h-2.9c0,.26.05.52.09.74.09.22.17.39.26.52.13.13.26.26.43.3.17.09.34.09.56.09.17,0,.34-.05.48-.09s.26-.09.34-.13c.09-.05.17-.09.26-.13s.13-.09.17-.09c.09,0,.09.05.13.09l.22.26c-.09.13-.22.22-.34.3s-.26.17-.43.22c-.13.05-.3.09-.48.13s-.3.04-.48.04c-.3,0-.56-.04-.82-.13-.26-.09-.48-.26-.65-.43-.17-.22-.34-.43-.43-.74s-.17-.61-.17-1c0-.3.05-.61.13-.86s.22-.48.39-.69c.17-.22.39-.34.65-.43.34-.17.61-.26.95-.26h0s0,0,0,0Zm0,.56c-.39,0-.65.09-.86.3s-.34.52-.39.91h2.38c0-.17-.05-.34-.09-.48s-.13-.26-.22-.39c-.09-.09-.22-.17-.34-.26-.13-.05-.3-.09-.48-.09h0Z"></path><path d="m23.25,59.5l-.09.09s-.05.05-.09.05-.09,0-.13-.05-.13-.09-.17-.13c-.09-.05-.17-.09-.26-.13s-.26-.04-.43-.04c-.22,0-.39.04-.56.13s-.3.17-.43.34c-.09.13-.22.3-.26.52s-.09.43-.09.69.05.48.09.69c.09.22.13.39.26.52.09.13.26.26.39.3.17.09.34.09.52.09s.34-.04.48-.09.22-.09.3-.13.13-.09.22-.13c.05-.04.09-.09.17-.09s.13.05.13.09l.22.26c-.17.22-.43.39-.69.52-.26.09-.61.17-.91.17-.26,0-.52-.05-.78-.13-.26-.09-.43-.26-.61-.43s-.3-.43-.43-.69c-.09-.26-.13-.61-.13-.95,0-.3.04-.61.13-.91.09-.26.22-.52.39-.74s.39-.34.65-.48.56-.17.86-.17.56.05.82.13.43.26.61.43l-.17.26h0s0,0,0,0h0Z"></path><path d="m24.29,63.05v-6.32h.78v2.56c.17-.22.39-.34.61-.48.22-.13.48-.17.78-.17.26,0,.43.05.61.13s.34.17.43.34c.13.13.22.3.26.52.09.22.09.43.09.69v2.77h-.78v-2.77c0-.34-.09-.61-.22-.78-.13-.17-.39-.26-.69-.26-.22,0-.43.04-.65.17-.22.09-.39.26-.56.43v3.2l-.65-.05h0s0,0,0,0Z"></path><path d="m29.05,63.05v-4.33h.43c.09,0,.17.04.22.17l.09.48c.17-.22.39-.39.65-.52s.52-.22.82-.22c.26,0,.43.05.61.13s.34.17.43.34c.13.13.22.3.26.52.05.22.09.43.09.69v2.77h-.78v-2.77c0-.34-.09-.61-.22-.78-.13-.17-.39-.26-.69-.26-.22,0-.43.05-.65.17-.22.09-.39.26-.56.43v3.2l-.69-.05h0s0,.01,0,.01Z"></path><path d="m35.63,58.64c.3,0,.61.05.86.17s.48.26.65.43c.17.22.3.43.43.69.09.26.13.61.13.95s-.04.65-.13.95-.26.52-.43.69-.39.34-.65.43-.56.17-.86.17-.61-.04-.86-.17c-.26-.09-.48-.26-.65-.43-.17-.22-.3-.43-.43-.69-.09-.26-.13-.61-.13-.95s.05-.65.13-.95c.09-.26.26-.52.43-.69.17-.22.39-.34.65-.43s.52-.17.86-.17h0Zm0,3.9c.43,0,.74-.13.95-.43.22-.3.3-.69.3-1.21s-.09-.91-.3-1.21-.52-.43-.95-.43c-.22,0-.43.05-.56.09-.17.09-.3.17-.39.3s-.17.3-.26.52c-.05.22-.09.43-.09.69s.05.48.09.69.13.39.26.52c.09.13.26.26.39.3.13.13.34.17.56.17h0Z"></path><path d="m39.48,56.73v6.32h-.78v-6.32h.78Z"></path><path d="m42.6,58.64c.3,0,.61.05.86.17.26.09.48.26.65.43.17.22.3.43.43.69.09.26.13.61.13.95s-.05.65-.13.95c-.09.26-.26.52-.43.69s-.39.34-.65.43-.56.17-.86.17-.61-.04-.86-.17c-.26-.09-.48-.26-.65-.43-.17-.22-.3-.43-.43-.69-.09-.26-.13-.61-.13-.95s.04-.65.13-.95c.09-.26.26-.52.43-.69.17-.22.39-.34.65-.43s.56-.17.86-.17h0Zm0,3.9c.43,0,.74-.13.95-.43s.3-.69.3-1.21-.09-.91-.3-1.21-.52-.43-.95-.43c-.22,0-.43.05-.56.09-.17.09-.3.17-.39.3-.09.13-.17.3-.26.52s-.09.43-.09.69.05.48.09.69.13.39.26.52c.09.13.26.26.39.3.17.13.34.17.56.17h0Z"></path><path d="m47.1,58.64c.17,0,.39.05.52.09.17.04.3.09.43.17h1.21v.26c0,.09-.09.17-.17.17l-.48.09c.09.17.13.39.13.61s-.05.39-.13.56c-.09.17-.22.3-.34.43s-.3.22-.52.26-.43.09-.65.09-.39-.05-.56-.09c-.09.05-.17.13-.22.17-.05.09-.09.13-.09.22s.04.17.13.26c.09.04.22.09.34.13s.3.05.48.05h.52c.17,0,.34,0,.52.04.17.05.34.09.48.17.13.09.26.17.34.3.09.13.13.3.13.48s-.05.39-.13.56c-.09.17-.22.34-.39.48-.17.13-.39.26-.65.34-.26.09-.52.13-.86.13-.3,0-.61-.05-.82-.09-.26-.09-.43-.13-.61-.26-.17-.09-.26-.22-.34-.39-.09-.13-.13-.26-.13-.43,0-.22.09-.39.22-.56.13-.13.3-.26.56-.34-.13-.05-.22-.13-.3-.22s-.09-.22-.09-.39c0-.09,0-.13.05-.22s.04-.13.09-.22.09-.13.17-.17c.09-.09.13-.09.26-.17-.22-.13-.39-.26-.52-.48-.13-.22-.17-.43-.17-.69,0-.22.05-.39.13-.56.09-.17.22-.3.34-.43s.3-.22.52-.26c.09-.04.34-.09.61-.09h0Zm1.34,4.67c0-.09-.04-.22-.09-.26-.09-.09-.13-.13-.26-.17-.09-.05-.22-.09-.34-.09s-.26-.05-.43-.05h-.43c-.17,0-.3,0-.43-.05-.17.09-.3.17-.39.26-.09.09-.13.26-.13.39,0,.09.05.17.09.26s.13.17.22.22c.09.09.26.09.39.13.17.05.34.05.56.05s.39,0,.56-.05.3-.09.43-.17.22-.17.26-.26v-.22h0Zm-1.34-2.38c.17,0,.3-.04.43-.09.13-.05.22-.09.3-.17s.13-.17.17-.26.09-.22.09-.34c0-.26-.09-.48-.26-.65s-.39-.26-.69-.26-.56.09-.69.26c-.17.17-.26.39-.26.65,0,.13.04.26.09.34s.09.22.17.26c.09.09.17.13.3.17.09.09.17.09.34.09h0Z"></path><path d="m51.3,64.35s-.04.09-.09.13-.09.05-.17.05h-.56l.78-1.73-1.82-4.11h.69c.09,0,.13,0,.17.05l.09.09,1.17,2.73c.05.09.05.13.09.17,0,.09.05.13.05.22.04-.09.04-.13.09-.22s.05-.13.09-.22l1.13-2.73s.05-.09.09-.13.09-.04.13-.04h.61l-2.51,5.76h0,0Z"></path><path class="cls-1" d="m60.56,56.82v1.08h-2.56v1.6h2.16v1.13h-2.16v2.42h-1.47v-6.28l4.03.04h0Z"></path><path class="cls-1" d="m63.72,63.05c-.13,0-.22,0-.3-.05s-.13-.09-.17-.22l-.09-.26c-.09.09-.22.17-.3.26s-.22.13-.3.17-.22.09-.34.09c-.13.05-.26.05-.43.05-.22,0-.39-.05-.56-.09s-.3-.13-.43-.26c-.13-.09-.22-.22-.26-.39-.09-.17-.09-.34-.09-.52s.04-.3.13-.48.22-.3.43-.43c.22-.13.48-.26.78-.34.34-.09.78-.13,1.25-.13v-.17c0-.26-.05-.43-.17-.56-.09-.13-.26-.17-.43-.17s-.3,0-.39.05-.17.09-.26.13-.17.09-.22.13c-.09.04-.17.04-.26.04s-.17-.04-.26-.09-.13-.09-.13-.17l-.26-.43c.26-.26.56-.43.91-.52.34-.13.69-.17,1.04-.17.26,0,.52.05.74.13.22.09.39.22.56.34.13.13.26.34.34.56.09.22.13.43.13.69v2.86l-.65-.04h0Zm-1.51-.78c.17,0,.3-.05.43-.09.13-.09.26-.17.39-.3v-.61c-.26,0-.48,0-.65.05s-.3.09-.43.13-.17.09-.22.17-.04.13-.04.22c0,.17.04.26.13.3.09.09.22.13.39.13h0Z"></path><path class="cls-1" d="m68.4,59.59s-.09.09-.09.13c-.05.04-.09.04-.13.04-.09,0-.13,0-.17-.04-.09-.05-.13-.05-.22-.09s-.17-.09-.26-.09-.22-.04-.3-.04c-.17,0-.3.04-.39.09-.09.09-.13.17-.13.26s.05.13.09.22c.05.04.13.09.26.13s.22.09.34.13.26.09.39.13c.13.05.26.09.39.17.13.09.26.13.34.22s.17.22.26.34c.05.13.09.26.09.48s-.04.43-.13.61-.22.34-.34.48c-.17.13-.34.26-.61.3-.22.09-.52.09-.82.09-.13,0-.3,0-.43-.05s-.3-.09-.43-.13-.26-.09-.39-.17-.22-.13-.3-.22l.3-.48.13-.13s.13-.05.22-.05.13,0,.22.05.13.09.22.09.17.09.26.09c.09.05.22.05.34.05.09,0,.17,0,.26-.05s.13-.04.17-.09.09-.09.09-.13c.04-.05.04-.09.04-.13,0-.09-.04-.17-.09-.22-.09-.05-.13-.09-.26-.13-.09-.04-.22-.09-.34-.13s-.26-.09-.39-.13-.26-.09-.39-.17c-.13-.05-.26-.13-.34-.26-.09-.09-.17-.22-.26-.34s-.09-.3-.09-.52c0-.17.05-.39.09-.56.09-.17.17-.3.34-.43.13-.13.34-.22.56-.3s.48-.13.78-.13c.17,0,.3,0,.48.05.13.05.3.09.43.13.13.04.26.09.34.17s.22.13.3.22l-.43.56h0,0Z"></path><path class="cls-1" d="m71.43,63.14c-.22,0-.39-.05-.56-.09s-.3-.13-.43-.26-.22-.26-.26-.43-.09-.34-.09-.52v-2.29h-.39c-.09,0-.13-.04-.17-.09s-.09-.09-.09-.22v-.48l.69-.13.26-1.08c.05-.13.13-.22.3-.22h.69v1.3h1.08v.91h-1.08v2.21c0,.09.05.17.09.26.04.09.13.09.22.09h.13s.09-.05.09-.05c.05,0,.05-.05.09-.05h.09s.09,0,.09.05c.05,0,.05.05.09.09l.39.65c-.17.13-.34.22-.61.3-.17,0-.39.04-.61.04h0,0Z"></path><path class="cls-1" d="m78.87,57.38c0,.09,0,.17-.05.26s-.09.13-.13.22c-.09.05-.13.09-.26.13-.09.05-.22.05-.34.05h-1.51l-.17,1.04c.13-.05.22-.05.34-.05h.3c.34,0,.61.05.86.13s.48.26.65.43.3.39.39.61c.09.26.13.48.13.74,0,.34-.05.65-.17.91-.13.26-.26.52-.48.74s-.48.34-.78.48c-.3.09-.61.17-.95.17-.22,0-.39-.05-.61-.09-.17-.05-.34-.09-.52-.17s-.3-.17-.43-.26c-.13-.09-.26-.22-.39-.3l.43-.56.13-.13s.13-.05.17-.05c.09,0,.17.05.26.09s.17.09.26.17c.09.05.22.09.3.13.13.05.26.09.43.09s.34-.05.43-.09c.13-.05.22-.13.3-.26.09-.09.13-.22.17-.34.05-.13.05-.26.05-.43,0-.3-.09-.52-.26-.69s-.43-.26-.74-.26c-.26,0-.56.05-.82.17l-.82-.22.52-3.16h3.2l.09.52h0,0Z"></path><path class="cls-1" d="m84.28,59.93c0,.56-.04,1.04-.17,1.43s-.26.74-.48,1-.43.48-.74.61c-.26.13-.61.22-.95.22s-.65-.09-.91-.22-.52-.3-.74-.61c-.22-.26-.39-.61-.48-1-.13-.39-.17-.86-.17-1.43s.05-1.04.17-1.43c.13-.39.26-.74.48-1s.43-.48.74-.61c.26-.13.61-.17.91-.17s.65.09.95.17c.26.13.52.3.74.61.22.3.39.61.48,1,.09.43.17.86.17,1.43h0Zm-1.39,0c0-.43-.05-.78-.09-1.08-.05-.26-.13-.48-.22-.65s-.22-.26-.3-.3c-.13-.04-.22-.09-.34-.09s-.26.05-.34.09c-.13.05-.22.17-.3.3-.09.17-.17.39-.22.65s-.09.61-.09,1.08c0,.43.05.78.09,1.08.05.26.13.48.22.65s.17.26.3.34c.13.05.22.09.34.09s.26-.05.34-.09c.13-.04.22-.17.3-.34s.17-.39.22-.65c.04-.3.09-.65.09-1.08h0Z"></path><path class="cls-1" d="m89.26,59.93c0,.56-.05,1.04-.17,1.43-.13.39-.26.74-.48,1s-.43.48-.74.61c-.26.13-.61.22-.95.22s-.65-.09-.91-.22-.52-.3-.74-.61c-.22-.26-.39-.61-.48-1-.13-.39-.17-.86-.17-1.43s.04-1.04.17-1.43c.13-.39.26-.74.48-1s.43-.48.74-.61c.26-.13.61-.17.91-.17s.65.09.95.17c.26.13.52.3.74.61s.39.61.48,1c.09.43.17.86.17,1.43h0Zm-1.39,0c0-.43-.05-.78-.09-1.08-.05-.26-.13-.48-.22-.65s-.22-.26-.3-.3c-.13-.04-.22-.09-.34-.09s-.26.05-.34.09c-.13.05-.22.17-.3.3-.09.17-.17.39-.22.65s-.09.61-.09,1.08c0,.43.05.78.09,1.08.05.26.13.48.22.65s.17.26.3.34c.13.05.22.09.34.09s.26-.05.34-.09c.13-.04.22-.17.3-.34s.17-.39.22-.65c.05-.3.09-.65.09-1.08h0Z"></path></svg> 