<?xml version="1.0" encoding="UTF-8"?> <svg xmlns="http://www.w3.org/2000/svg" id="Layer_1" width="100" height="26.28" viewBox="0 0 100 26.28"><defs><style>.cls-1,.cls-2{fill:#fff;}.cls-2{fill-rule:evenodd;}</style></defs><path class="cls-1" d="m97.12,20.39v1.18h2.58v1.43h-2.58v1.65h2.88v1.45h-4.39v-7.16h4.39v1.44h-2.88Z"></path><path class="cls-1" d="m91.73,19.44l.07.07v1.8l-.03-.04-.32-.33c-.53-.47-1.22-.72-1.92-.69-1.12,0-1.87.9-1.87,2.26s.75,2.24,1.87,2.24c.7.03,1.39-.21,1.92-.69l.35-.33v1.81l-.07.06c-.47.41-1.28.66-2.21.66-2.01,0-3.4-1.53-3.4-3.72s1.4-3.73,3.4-3.73c.78-.04,1.56.17,2.21.62h0Z"></path><path class="cls-1" d="m81.04,18.95h1.49v7.32l-.03-.03-4.46-4.23v4.09h-1.49v-7.32l.03.03,4.47,4.14v-4h0Z"></path><path class="cls-1" d="m67.87,18.95h4.38v1.44h-2.87v1.18h2.58v1.43h-2.58v1.65h2.87v1.45h-4.38v-7.16h0Z"></path><path class="cls-1" d="m61.1,22.09h2.7v3.03l-.07.06c-.6.69-1.64,1.1-2.84,1.1-2.02,0-3.39-1.5-3.39-3.72s1.48-3.73,3.52-3.73c.79-.03,1.57.19,2.24.63l.08.07v1.78l-.03-.03-.32-.29c-.55-.47-1.24-.72-1.96-.69-1.17,0-1.96.9-1.96,2.26s.73,2.27,1.85,2.27c.5.03.99-.08,1.43-.33v-.99h-1.24l-.03-1.41Z"></path><rect class="cls-1" x="51.96" y="18.95" width="1.53" height="7.16"></rect><path class="cls-1" d="m44.76,24.65h3.14v1.45h-4.68v-7.16h1.54v5.7h0Z"></path><path class="cls-1" d="m36.01,24.65h3.14v1.45h-4.67v-7.16h1.52v5.7h0Z"></path><path class="cls-1" d="m25.54,18.95h4.39v1.44h-2.88v1.18h2.58v1.43h-2.58v1.65h2.88v1.45h-4.39v-7.16h0Z"></path><path class="cls-1" d="m15.83,18.95h5.87v1.44h-2.17v5.72h-1.53v-5.72h-2.17v-1.44h0Z"></path><path class="cls-1" d="m10.86,18.95h1.49v7.32l-.02-.03-4.46-4.23v4.09h-1.49v-7.32l.03.03,4.47,4.14v-4h0Z"></path><rect class="cls-1" y="18.95" width="1.53" height="7.16"></rect><path class="cls-1" d="m11.49,12.6h-2.05V.2h2.05v12.4Z"></path><path class="cls-1" d="m27.99,12.81l-8.32-8.26v8.05h-1.96V0l8.32,8.12V.2h1.97v12.61Z"></path><path class="cls-1" d="m33.26,9.53c1.08.92,2.44,1.42,3.84,1.43,1.38,0,2.34-.51,2.34-1.62,0-.97-.61-1.35-1.69-1.78l-1.75-.66c-1.6-.61-2.83-1.49-2.83-3.53C33.17,1.19,35.02,0,37.24,0c1.26-.02,2.49.33,3.56,1.01v2.16c-.99-.85-2.23-1.32-3.52-1.33-1.22,0-2.13.49-2.13,1.49,0,.91.57,1.27,1.57,1.64l1.95.73c1.89.71,2.76,1.8,2.76,3.59,0,2.26-1.87,3.51-4.33,3.51-1.36.03-2.69-.35-3.84-1.09v-2.19Z"></path><path class="cls-1" d="m48.09,12.6h-2.05V.2h2.05v12.4Z"></path><path class="cls-2" d="m59.05.2h-4.63v12.4h4.63c3.56,0,5.86-2.42,5.86-6.2S62.61.2,59.05.2Zm3.82,6.19c0,2.64-1.36,4.32-3.9,4.32h-2.51s0-8.65,0-8.65h2.51c2.54,0,3.9,1.68,3.9,4.33Z"></path><path class="cls-1" d="m76.88.2v1.86h-5.32v2.98h4.77v1.86h-4.77v3.84h5.32v1.88h-7.33V.2h7.33Z"></path><path class="cls-2" d="m83.86,12.6v-5.03h1.46l4.21,5.03h2.34l-4.36-5.11c1.91-.29,2.81-1.49,2.81-3.57,0-2.42-1.61-3.72-4.11-3.72h-4.38v12.4h2.05Zm2.3-6.78h-2.3v-3.8h2.3c1.36,0,2.13.75,2.13,1.9s-.77,1.9-2.13,1.9Z"></path></svg> 