<?xml version="1.0" encoding="UTF-8"?> <svg xmlns="http://www.w3.org/2000/svg" xmlns:xlink="http://www.w3.org/1999/xlink" id="Layer_1" width="100" height="16.62" viewBox="0 0 100 16.62"><defs><style>.cls-1{fill:none;mask:url(#mask);}.cls-2{fill:#3a357e;}.cls-2,.cls-3{fill-rule:evenodd;}.cls-3{fill:#fff;}</style><mask id="mask" x="87.31" y="0" width="12.69" height="16.59" maskUnits="userSpaceOnUse"><g id="mask-2"><polygon id="path-1" class="cls-3" points="87.31 0 100 0 100 16.59 87.31 16.59 87.31 0"></polygon></g></mask></defs><g id="Symbols"><g id="logo_D"><g id="logo-copy-2"><path id="Fill-1" class="cls-2" d="m7.2,7.8h-1.41c-1.69,0-2.46.8-2.46,2.86v5.63H0V4.5h2.66c.32,0,.57.26.57.57v1.3c.46-1.26,1.59-2.03,3.05-2.03.31,0,.61.03.92.1v3.34Z"></path><path id="Fill-3" class="cls-2" d="m11.64,9.13h5.25c-.18-1.18-1.18-2.16-2.59-2.16s-2.41.9-2.67,2.16Zm8.82,2.24h-8.74c.18,1.31,1.21,2.37,2.69,2.37.97,0,1.9-.41,2.36-1.21l3.46.36c-1.05,2.52-3.26,3.7-5.87,3.7-3.51,0-6.15-2.6-6.15-6.2s2.59-6.2,6.1-6.2c3.23,0,6.15,2.11,6.15,7.05v.13Z"></path><path id="Fill-5" class="cls-2" d="m60.85,7.8h-1.41c-1.69,0-2.46.8-2.46,2.86v5.63h-3.33V4.5h2.66c.32,0,.57.26.57.57v1.3c.46-1.26,1.59-2.03,3.05-2.03.31,0,.62.03.92.1v3.34Z"></path><path id="Fill-7" class="cls-2" d="m77.24,9.13h5.25c-.18-1.18-1.18-2.16-2.59-2.16s-2.41.9-2.67,2.16Zm8.82,2.24h-8.74c.18,1.31,1.2,2.37,2.69,2.37.97,0,1.9-.41,2.36-1.21l3.46.36c-1.05,2.52-3.25,3.7-5.87,3.7-3.51,0-6.15-2.6-6.15-6.2s2.59-6.2,6.1-6.2c3.23,0,6.15,2.11,6.15,7.05v.13Z"></path><g id="Group-11"><g class="cls-1"><path id="Fill-9" class="cls-2" d="m90.75,10.39c0,1.8,1.23,3.24,3,3.24s3-1.44,3-3.24-1.23-3.22-3-3.22-3,1.39-3,3.22Zm5.92,4.4c-.59.98-1.97,1.8-3.67,1.8-3.23,0-5.69-2.6-5.69-6.2s2.43-6.2,5.66-6.2c1.79,0,3.15.82,3.74,1.83,0-.39-.05-1.36-.05-2.24V0h2.76c.32,0,.57.26.57.57v15.71h-3.33v-1.49Z"></path></g></g><path id="Fill-12" class="cls-2" d="m66.03,15.93v.36h-3.31V0h2.73c.32,0,.57.26.57.57v12.52"></path><polygon id="Fill-14" class="cls-2" points="73.55 16.28 70.21 16.28 66.2 10.39 70.21 4.5 73.55 4.5 69.54 10.39 73.55 16.28"></polygon><path id="Fill-16" class="cls-2" d="m45.53,4.03l1.21,1.78-1.1,1.61c1.42.2,2.52,1.41,2.52,2.89,0,1.62-1.31,2.93-2.92,2.93s-2.92-1.31-2.92-2.93c0-1.39.97-2.55,2.26-2.85l1.13-1.66-1.19-1.75c-3.13.36-5.55,3.02-5.55,6.26,0,3.48,2.81,6.3,6.28,6.3s6.28-2.82,6.28-6.3-2.66-6.13-5.99-6.29"></path><path id="Fill-18" class="cls-2" d="m34.66,4.5l-1.79,7.67-1.6-5.77v-.03s-.49-1.87-.49-1.87h-3.29l.67,1.9-1.6,5.77-1.69-7.22c-.06-.26-.29-.44-.56-.44h-2.98l3.05,11.78h3.95l1.39-4.98,1.39,4.98h3.95l3.05-11.78h-3.43Z"></path></g></g></g></svg> 