<?xml version="1.0" encoding="UTF-8"?> <svg xmlns="http://www.w3.org/2000/svg" id="Layer_1" width="599.76" height="400.32" viewBox="0 0 599.76 400.32"><defs><style>.cls-1{fill:#d0d1d3;}.cls-1,.cls-2,.cls-3{fill-rule:evenodd;}.cls-2{fill:#b8404c;}</style></defs><path class="cls-1" d="m143.06,219.2h4.6c3.95,19.52,10.74,29.39,18.19,29.39,5.03,0,8.78-4.38,8.78-11.39,0-8.98-5.49-16-13.81-26.32-5.49-7.25-10.51-12.51-13.39-17.99-3.07-5.91-4.6-12.28-4.6-18.64,0-14.27,7.67-25.01,16.88-25.01,5.26,0,8.98,4.38,11.39,4.38,1.76,0,3.3-1.31,4.38-3.95h3.72v33.11h-4.6c-3.3-18.87-8.55-28.28-15.35-28.28-4.83,0-7.9,4.18-7.9,9.86,0,8.13,5.71,14.92,14.46,25.43,2.42,2.84,6.79,7.44,11.39,15.35,4.05,6.92,6.17,14.79,6.14,22.82,0,15.35-7.67,25.89-17.53,25.89-6.56,0-10.74-4.83-13.58-4.83-2.19,0-3.3,1.76-5.49,5.03h-3.72v-34.87h0l.03.03Zm61.19,20.83v-76.99c0-5.49,1.11-7.44,4.83-7.44,9.86,0,11.62,14.46,11.62,43.2,0,32.03-.65,48.26-12.05,48.26-3.95,0-4.38-1.76-4.38-7.02h-.03Zm-18.87,12.28h19.3c19.95,0,31.8-18.19,31.8-51.1,0-19.72-4.83-34.87-13.16-43.65-5.71-5.91-12.05-7.02-20.18-7.02h-17.76v4.83c3.72.42,4.83,2.42,4.83,7.02v78.07c0,4.83-1.11,6.6-4.83,7.25v4.6h0Zm108.33-65.37h-3.49c-2.42-19.3-6.56-30.04-11.85-31.8v83.09c0,6.6.88,8.98,5.71,9.44v4.6h-25.43v-4.6c4.6-.42,5.71-2.84,5.71-9.44v-83.09c-5.26,1.76-9.44,12.51-12.05,31.8h-3.49l.65-36.4h43.85l.42,36.4h-.03Zm23.48,61.19v4.18h-20.83v-4.18c3.3-.88,4.38-2.64,4.38-7.44v-43.65c0-4.83-.88-6.79-4.38-7.25v-4.83c5.49-.23,11.17-.65,16.46-1.11v56.81c0,4.6.88,6.56,4.38,7.44v.03Zm25.21,0v4.18h-20.6v-4.18c3.49-.88,4.18-2.64,4.18-7.44v-43.65c0-4.83-.42-6.79-4.18-7.25v-4.83c5.26-.23,10.74-.65,16-1.11l.23,9.86c3.72-6.79,7.02-10.09,11.62-10.09,5.03,0,8.13,3.49,9.44,10.51,3.95-7.02,7.44-10.51,12.28-10.51,7.9,0,10.09,7.25,10.09,22.37v34.64c0,5.03.65,7.02,4.18,7.44v4.18h-15.8v-47.8c0-7.44-.88-10.97-4.18-10.97s-5.91,5.03-5.91,14.04v33.11c0,5.03.65,7.02,4.18,7.44v4.18h-15.8v-47.8c0-7.44-.88-10.97-3.95-10.97-3.72,0-5.91,5.26-5.91,15.35v31.8c0,4.6.65,6.56,4.18,7.44h0l-.03.07Zm58.54-33.56v-1.31c0-16.88,1.96-25.43,5.91-25.43,4.18,0,5.49,7.25,5.49,22.37v4.38h-11.39Zm20.41,14.92c-1.31,11.2-5.26,17.34-10.97,17.34-6.14,0-9.44-8.13-9.44-23.9v-2.64h24.13v-.65c0-23.48-7.02-36.4-18.22-36.4s-19.52,13.81-19.52,36.4c0,20.83,8.55,34.41,19.95,34.41,10.09,0,16.65-8.98,17.76-24.55h-3.72.03Zm12.51-4.18c2.19,15.57,7.9,23.9,14.27,23.9,3.72,0,6.6-3.49,6.6-8.33,0-3.72-1.96-7.67-5.71-10.74-7.9-6.37-13.81-10.97-16.65-17.11-1.76-3.3-2.42-7.02-2.42-11.2,0-10.51,5.91-18.64,13.16-18.64,4.38,0,7.44,3.3,9.66,3.3,1.11,0,2.42-1.11,3.07-3.07h3.49v25.01h-3.72c-3.07-13.58-7.44-20.41-12.73-20.41-3.07,0-5.71,3.3-5.71,7.25,0,5.71,3.72,8.55,9.66,13.16,10.09,8.13,15.57,14.46,15.57,25.21,0,11.39-6.79,20.41-14.92,20.41-5.26,0-8.33-3.72-10.51-3.72-1.11,0-2.19,1.31-3.95,3.72h-3.07v-28.73h3.95-.03Zm-121.07-61.81c0,4.83-3.3,8.55-7.25,8.55s-7.25-3.72-7.25-8.55,3.3-8.55,7.25-8.55,7.25,3.95,7.25,8.55h0Z"></path><path class="cls-3" d="m137.61,216.26h4.6c3.95,19.52,10.74,29.39,18.19,29.39,5.03,0,8.78-4.38,8.78-11.39,0-8.98-5.49-16-13.81-26.32-5.49-7.25-10.51-12.51-13.39-17.99-3.07-5.91-4.6-12.28-4.6-18.64,0-14.27,7.67-25.01,16.88-25.01,5.26,0,8.98,4.38,11.39,4.38,1.76,0,3.3-1.31,4.38-3.95h3.72v33.11h-4.6c-3.27-18.84-8.52-28.28-15.31-28.28-4.83,0-7.9,4.18-7.9,9.86,0,8.1,5.71,14.92,14.46,25.43,2.42,2.84,6.79,7.44,11.39,15.35,4.05,6.92,6.17,14.79,6.14,22.82,0,15.35-7.67,25.89-17.53,25.89-6.56,0-10.74-4.83-13.58-4.83-2.19,0-3.3,1.76-5.49,5.03h-3.72v-34.87.03Zm61.19,20.83v-76.99c0-5.49,1.11-7.44,4.83-7.44,9.86,0,11.62,14.46,11.62,43.2,0,32.03-.65,48.26-12.05,48.26-3.95,0-4.38-1.76-4.38-7.02h-.03Zm-18.87,12.28h19.3c19.95,0,31.8-18.22,31.8-51.1,0-19.72-4.83-34.87-13.16-43.65-5.71-5.91-12.05-7.02-20.18-7.02h-17.76v4.83c3.72.42,4.83,2.42,4.83,7.02v78.07c0,4.83-1.08,6.6-4.83,7.25v4.6h0Zm108.33-65.37h-3.49c-2.42-19.3-6.6-30.04-11.85-31.8v83.13c0,6.56.88,8.98,5.71,9.44v4.6h-25.43v-4.6c4.6-.42,5.71-2.84,5.71-9.44v-83.13c-5.26,1.76-9.44,12.51-12.05,31.8h-3.49l.65-36.4h43.85l.42,36.4h-.03Zm23.48,61.19v4.18h-20.83v-4.18c3.3-.88,4.38-2.64,4.38-7.44v-43.65c0-4.83-.88-6.79-4.38-7.25v-4.83c5.49-.23,11.17-.65,16.46-1.11v56.81c0,4.6.88,6.6,4.38,7.44h0v.03Zm25.21,0v4.18h-20.6v-4.18c3.49-.88,4.18-2.64,4.18-7.44v-43.65c0-4.83-.42-6.79-4.18-7.25v-4.83c5.26-.23,10.74-.65,16-1.11l.23,9.86c3.72-6.79,7.02-10.09,11.62-10.09,5.03,0,8.13,3.49,9.44,10.51,3.95-7.02,7.44-10.51,12.28-10.51,7.9,0,10.09,7.25,10.09,22.37v34.64c0,5.03.65,7.02,4.18,7.44v4.18h-15.8v-47.8c0-7.44-.88-10.97-4.18-10.97s-5.91,5.03-5.91,14.04v33.11c0,5.03.65,7.02,4.18,7.44v4.18h-15.8v-47.8c0-7.44-.88-10.97-3.95-10.97-3.72,0-5.91,5.26-5.91,15.35v31.8c0,4.6.65,6.6,4.18,7.44h0l-.03.07Zm58.54-33.56v-1.31c0-16.88,1.96-25.43,5.91-25.43,4.18,0,5.49,7.25,5.49,22.37v4.38h-11.39Zm20.41,14.92c-1.31,11.2-5.26,17.34-10.97,17.34-6.14,0-9.44-8.13-9.44-23.9v-2.64h24.13v-.65c0-23.48-7.02-36.4-18.22-36.4s-19.52,13.81-19.52,36.4c0,20.83,8.55,34.41,19.95,34.41,10.09,0,16.65-8.98,17.76-24.55h-3.72.03Zm12.51-4.18c2.19,15.57,7.9,23.9,14.27,23.9,3.72,0,6.6-3.49,6.6-8.33,0-3.72-1.96-7.67-5.71-10.74-7.9-6.37-13.81-10.97-16.65-17.11-1.76-3.3-2.42-7.02-2.42-11.2,0-10.51,5.91-18.64,13.16-18.64,4.38,0,7.44,3.3,9.66,3.3,1.11,0,2.42-1.11,3.07-3.07h3.49v25.01h-3.72c-3.07-13.58-7.44-20.41-12.73-20.41-3.07,0-5.71,3.3-5.71,7.25,0,5.71,3.72,8.55,9.66,13.16,10.09,8.13,15.57,14.46,15.57,25.21,0,11.39-6.79,20.41-14.92,20.41-5.26,0-8.33-3.72-10.51-3.72-1.11,0-2.19,1.31-3.95,3.72h-3.07v-28.73h3.95-.03Z"></path><path class="cls-2" d="m307.32,160.56c0,4.83-3.3,8.55-7.25,8.55s-7.25-3.72-7.25-8.55,3.3-8.55,7.25-8.55,7.25,3.95,7.25,8.55Zm9.66,7.25c-1.96,0-2.84-1.53-3.07-3.72l2.19-.42c0,1.76.42,2.19.88,2.19s.65-.42.65-1.31c0-1.31-.23-1.96-1.53-3.3-1.31-1.31-2.19-2.64-2.19-4.18,0-1.96,1.11-3.49,2.84-3.49,1.96,0,2.64,1.31,3.07,3.3l-2.19.42c0-1.31-.23-1.76-.88-1.76-.42,0-.65.42-.65,1.31s.42,1.53,1.31,2.64c1.76,1.53,2.42,3.07,2.42,4.83,0,1.96-1.11,3.49-2.84,3.49h0Zm8.13-7.02c0,4.18-.23,5.03-1.11,5.03-.65,0-.88-1.11-.88-5.26s.23-4.83.88-4.83,1.11.88,1.11,5.06h0Zm2.19-.23c0-4.6-.88-7.02-3.3-7.02s-3.07,2.42-3.07,7.25.65,7.02,3.07,7.02,3.3-2.42,3.3-7.25h0Zm3.49-4.6v3.3h2.42v2.19h-2.42v6.14h-2.19v-13.84h5.26v2.19h-3.07v.03Zm8.13,0v11.62h-2.19v-11.62h-1.76v-2.19h5.91v2.19h-1.96Zm10.09,11.62h-1.76l-.42-3.72c-.23-1.31-.42-3.07-.65-4.38,0,1.31-.23,3.07-.42,4.38l-.42,3.72h-1.96l-1.53-13.81h1.96l.42,4.6c.23,1.11.23,2.64.42,3.95,0-1.31.23-2.84.23-3.95l.42-4.6h1.76l.42,4.6c.23,1.11.42,2.64.42,3.95,0-1.31.23-2.84.23-3.95l.42-4.6h2.19l-1.76,13.81h.03Zm5.71-5.03h-1.31l.42-2.42c0-1.11.23-2.19.23-3.3,0,1.11.23,2.19.42,3.3,0,0,.23,2.42.23,2.42Zm2.84,5.03l-2.19-13.81h-2.42l-2.19,13.81h2.19l.42-3.07h1.53l.42,3.07h2.22Zm4.83-9.86c0,1.53-.42,1.96-1.11,1.96h-.42v-3.95h.42c.65,0,1.11.42,1.11,1.96v.03Zm2.19,9.86l-1.31-6.56c.88-.65,1.31-1.76,1.31-3.3,0-2.84-1.53-3.95-3.07-3.95h-2.84v13.81h2.19v-6.14h.42l1.11,6.14h2.19Zm1.53,0v-13.84h5.03v2.19h-2.84v3.3h2.19v2.19h-2.19v4.18h3.07v1.96h-5.26v.03Zm14.04-7.02c0,4.18-.42,5.03-1.31,5.03h-.42v-9.86h.42c.88,0,1.31.88,1.31,4.83h0Zm2.19,0c0-4.18-.65-6.79-3.3-6.79h-2.84v13.81h2.64c2.42,0,3.53-2.19,3.53-7.02h-.03Zm1.31,7.02v-13.84h5.06v2.19h-2.84v3.3h2.19v2.19h-2.19v4.18h3.07v1.96h-5.26l-.03.03Zm10.32,0h-2.19l-2.19-13.81h2.19l.88,6.79c0,1.11.23,2.64.23,3.49,0-.88.23-2.42.23-3.49l.88-6.79h2.19l-2.19,13.81h-.03Zm3.3,0v-13.84h5.06v2.19h-2.84v3.3h2.19v2.19h-2.19v4.18h3.07v1.96h-5.26l-.03.03Zm6.6,0v-13.84h2.19v11.85h2.64v1.96h-4.83v.03Zm9.86-6.79c0,4.18-.23,5.03-.88,5.03-.88,0-1.11-1.11-1.11-5.26s.23-4.83,1.11-4.83c.65,0,.88.88.88,5.06h0Zm2.19-.23c0-4.6-.65-7.02-3.07-7.02s-3.3,2.42-3.3,7.25.65,7.02,3.07,7.02c2.64,0,3.3-2.42,3.3-7.25h0Zm5.26-2.64c0,1.31-.42,1.96-1.11,1.96h-.42v-4.18h.42c.88,0,1.11.42,1.11,2.19h0v.03Zm2.19-.23c0-2.84-1.31-3.95-3.07-3.95h-2.84v13.81h2.19v-5.71h.42c1.76,0,3.3-1.31,3.3-4.18v.03Zm6.79,9.86v-3.72c0-1.53,0-3.07.23-4.6-.33,1.53-.69,3.07-1.11,4.6l-.88,4.18-1.11-4.18c-.23-1.31-.65-3.49-.88-4.6v8.33h-1.96v-13.81h2.19l.88,4.18c.42,1.31.65,2.84.88,3.95,0-1.11.42-2.64.65-3.95l.88-4.18h2.19v13.81h-1.96Zm3.72,0v-13.81h5.03v2.19h-2.84v3.3h2.19v2.19h-2.19v4.18h3.07v1.96h-5.26Zm10.97,0l-1.31-4.18c-.42-1.44-.78-2.91-1.11-4.38v8.55h-1.96v-13.78h1.96l1.11,3.49c.23,1.11.88,2.84,1.11,3.95v-7.44h1.96v13.81h-1.76v-.03Zm7.02-11.62v11.62h-2.19v-11.62h-1.96v-2.19h5.91v2.19h-1.76Z"></path></svg> 