<?xml version="1.0" encoding="UTF-8"?> <svg xmlns="http://www.w3.org/2000/svg" id="Layer_1" width="600" height="400" viewBox="0 0 600 400"><defs><style>.cls-1{fill:#bf062f;}</style></defs><path class="cls-1" d="m543.18,235.18c-5.5-2.9-6.4-11.1-6.3-31l.1-30.6h-10.5l2.4-5.7h8.2v-14.5l19.6-7.2v21.2h9l-2.4,6.3h-6.6v52.9c.4,4.3,1.9,6.8,3.9,8.6h-17.4Z"></path><path class="cls-1" d="m51.58,183.18c2,5.4,6.5,11.1,3.3,17.4-1.6,6.4-7.6,11.6-14,12.6-6.7.6-13.1-.5-18-4.6-3.5-18.5,4-35.6,18.6-45.8l10.1,20.4h0Z"></path><path class="cls-1" d="m77.38,239.58c-3.3,11.2-36.4,3.8-46.8-14.5,13.6,1.5,29-10.6,29.2-24.3l17.6,38.8Z"></path><path class="cls-1" d="m90.88,238.08c1.5-.7,4.6-2.2,5.3-5.4l-35.6-77.2c-2.4-.3-4.1-.5-7.1,1.6l37.4,81h0Z"></path><path class="cls-1" d="m106.88,221.38c15.1-22.9,2.4-60.5-30.2-65.8,0,0,30.2,65.8,30.2,65.8Z"></path><path class="cls-1" d="m390.08,170.28c3.6-3,9.9-3.1,14-1.1,1.7.9,3.4,2,4.4,3.5l-7.9,12.2c-1-.8-1.7-1.1-3-1.8-3.9-1.7-8-.7-10.4,1.4v35.7c-.1,6.2,1,11.8,4.2,14.8h-17.9c-3.7-2.9-4.7-7.5-5-11.5l-.1-47.5c.2-3.8-.8-5.6-2.4-7.7l18.6.1c1.5,1.1,1.6,2.9,2.4,4.4l3.1-2.5h0Z"></path><path class="cls-1" d="m412.78,181.98c-.1-4.5.9-9.9-2.1-13.8h17.2c1.1.9,1.8,2.3,2.1,3.7.9,1.2.9,2.9,1.3,4.4l.1,50.6c.7,3,1.9,6.1,4.1,8.4h-18.4c-6-5.8-4-15.4-4.5-25.3l.2-28h0Z"></path><path class="cls-1" d="m439.98,182.48c1.9-5.2,7.7-7.7,11.9-10.5,6.5-2.4,13.5-8.2,20.8-3.4,6,3.9,11.3,8.4,15.1,14.5.9,2.4,1.4,5,2,7.5,0,3.4.7,5.9.6,9.2.2,3.7.2,7,0,10.5-.2,6.1-3.1,11.5-7.9,15.8-7.2,6.4-16.2,13.6-25.9,8.7-8.7-4.1-19.1-12.2-18.4-23.3-.4-7.9-.7-14.7.4-22.4.4-2.2.2-4.6,1.4-6.6m17.9,35.9c.9,3.2,2.5,7,6.3,7.5,2.2.1,3.9-1.8,5.1-3.4,4-7.9,3.4-16.5,3.4-25.4-1.3-6.7.3-15.8-6.9-19.8-2.5-.9-4.4.8-6,2.4-2.8,4.2-3.1,9.1-3.3,14.4-.8,8.5.2,15.6,1.4,24.3"></path><path class="cls-1" d="m503.18,235.18c-5.6-2.9-6.4-11.1-6.3-31l.1-30.6h-10.5l2.4-5.7h8.2v-14.5l19.6-7.2v21.2h9l-2.4,6.3h-6.6v52.9c.4,4.3,1.9,6.8,3.9,8.6h-17.4Z"></path><path class="cls-1" d="m324.38,176.08c-.1-3.9-.8-5.6-2.4-7.7l18.6.1c1.5,1.1,1.6,2.9,2.4,4.4l3.2-2.5c3.6-3,9.9-3.1,14-1.1,1.7.9,3.4,2,4.4,3.5l-7.9,12.2c-1-.8-1.7-1.1-3-1.8-3.9-1.7-8-.7-10.4,1.4v35.7c-.1,6.2,1,11.8,4.2,14.8h-17.9c-3.7-2.9-4.8-7.1-5-11.5l-.2-47.5h0Z"></path><path class="cls-1" d="m184.08,194.88l-6.8,13.9c-4.6,8.2-11.1,18.2-21,20.7-3.8,1.3-7.2.1-10.9-.1l-12,19.6c.9,1,2.2,1.8,3.4,2.2,21,8,29.5-.6,50.2-47.4l19.6,41.7h26.1l-12.3-28.1,7-14.5,19.2,42,24.9.2-43.7-96.1-20.1,10,15.8,35.8-6.9,14.1-28.9-62.3-21.2,10.8,17.6,37.5h0Z"></path><path class="cls-1" d="m264.08,211.78c.5-6.9,4.3-13.5,10.7-17,6.4-3.9,13.8-5.5,20.4-9,1.1-.9,2.6-2.1,2.7-3.6.1-1.9-.9-3.3-2.5-3.9-10-2.1-18.3,4.2-25.6,10.4.9-4.6,1.6-9.6,3.8-13.9,1.1-1.1,1.7-2.7,3.1-3.6,7.1-3.5,16-4.5,23.9-3.9,6.5.4,12.5,5.1,14.8,11,1.1,2.8,1.1,5.9,1.3,8.8l.1,38.8c.1,3.4,1.6,6.5,3.6,9.2h-18.6c-2.2-2-3.3-4.5-3.9-7.7-5.2,4.6-16,11.4-22.5,6.9-6.6-2.9-12.8-13-11.3-22.5m32.9-13.5c-.1-2.7-2.1-3-3.4-3-4.4.6-8.3,4.4-10.4,8.2-1.9,3.4-2.3,6.3-2.5,9.2,0,3.2-.2,5.6,1.1,8,.7,1.6,2.3,2.3,3.8,2.7,2.9.6,5.5-.2,7.7-1.7,5.2-2.9,4.3-8.8,4.4-14l-.7-9.4Z"></path><path class="cls-1" d="m571.48,234.18c-3,0-5.4-2.4-5.4-5.4s2.4-5.3,5.4-5.3,5.3,2.4,5.3,5.3c.1,3-2.3,5.4-5.3,5.4m0,1.1c3.6,0,6.5-2.9,6.5-6.5s-2.9-6.5-6.5-6.5-6.5,2.9-6.5,6.5,2.9,6.5,6.5,6.5m-.3-6.1c.4,0,.8,0,1.1.3.3.4.3,1,.4,1.6.1.4.2.9.3,1.4h1.5c-.3-.7-.3-1.5-.5-2.2-.1-.8-.2-1.3-1.3-1.5h0c1-.2,1.5-.9,1.5-1.8,0-1.7-1.4-2.1-2.8-2.1h-2.4v7.6h1.2v-3.3h1Zm-1-1.1v-2h1.4c.9,0,1.2.3,1.2.9s-.3,1.1-1.4,1.1h-1.2Z"></path></svg> 