<?xml version="1.0" encoding="UTF-8"?> <svg xmlns="http://www.w3.org/2000/svg" id="Layer_1" width="100" height="25.26" viewBox="0 0 100 25.26"><defs><style>.cls-1{fill:#fff;}</style></defs><path class="cls-1" d="m40.1,16.62v1.25c-.96.3-2.01.45-3.19.45-1.74,0-3.05-.49-3.95-1.45-.89-.97-1.34-2.3-1.34-3.99,0-1.87.43-3.33,1.29-4.37.86-1.04,2.18-1.55,3.97-1.55,1.17,0,2.24.17,3.2.51v1.24c-.97-.37-2-.55-3.08-.55-1.42,0-2.45.39-3.07,1.2-.62.8-.92,1.97-.92,3.53,0,2.83,1.34,4.24,4.01,4.24,1.17,0,2.18-.17,3.07-.5Z"></path><path class="cls-1" d="m43.01,7.13h1.41v11.02h-1.41V7.13Z"></path><path class="cls-1" d="m56.24,16.95c-.83.91-2.11,1.37-3.84,1.37s-3.01-.46-3.84-1.37c-.83-.91-1.24-2.36-1.24-4.32s.41-3.4,1.24-4.32c.83-.91,2.11-1.37,3.84-1.37s3.01.46,3.84,1.37c.83.91,1.24,2.36,1.24,4.32.01,1.96-.41,3.41-1.24,4.32Zm-.55-6.94c-.26-.66-.66-1.13-1.2-1.42-.54-.29-1.24-.43-2.09-.43s-1.55.14-2.09.43c-.54.29-.93.76-1.2,1.42s-.39,1.53-.39,2.63.13,1.97.39,2.63.66,1.13,1.2,1.42,1.24.43,2.09.43,1.55-.14,2.09-.43.93-.76,1.2-1.42.39-1.53.39-2.63-.13-1.97-.39-2.63Z"></path><path class="cls-1" d="m61.16,7.13h4.92c1.75,0,3.09.45,4,1.33s1.36,2.3,1.36,4.25-.45,3.22-1.36,4.12c-.91.88-2.24,1.33-4,1.33h-4.92V7.13h0Zm4.51,8.55c.57,0,1.03-.08,1.38-.25s.62-.46.82-.89.28-1.04.28-1.84-.08-1.43-.25-1.9c-.17-.45-.43-.76-.79-.95-.36-.18-.83-.28-1.43-.28h-1.3v6.11h1.3Z"></path><path class="cls-1" d="m73.49,7.13h3.21v11.02h-3.21V7.13Z"></path><path class="cls-1" d="m78.43,7.13h3.36l2.57,7.29,2.57-7.29h3.37l-4.22,11.02h-3.41l-4.22-11.02Z"></path><path class="cls-1" d="m91.66,7.13h8.34v2.46h-5.13v1.8h4.5v2.5h-4.5v1.79h5.13v2.46h-8.34V7.13Z"></path><path class="cls-1" d="m13.66,9.66h-3.37v5.71h3.45c1.28-.13,2.28-1.36,2.28-2.87s-1-2.74-2.28-2.86h-.08Z"></path><path class="cls-1" d="m6.61,15.6V5.96h6.84c1.82,0,2.4.38,2.4.38l4.13-3.97c-2.07-1.49-4.62-2.37-7.36-2.37C5.65,0,0,5.66,0,12.62c0,2.76.88,5.32,2.38,7.38l4.22-4.41Z"></path><path class="cls-1" d="m22.77,5.13l-3.96,3.95s.18.38.46,1.09.55,1.82.37,3.08-.53,2.78-1.79,4.07-2.49,1.7-4.01,1.72c-1.53.03-4.97,0-4.97,0l-3.76,3.72c2.11,1.57,4.7,2.49,7.53,2.49,6.98,0,12.62-5.66,12.62-12.62,0-2.82-.92-5.41-2.47-7.5Z"></path></svg> 