<?xml version="1.0" encoding="UTF-8"?> <svg xmlns="http://www.w3.org/2000/svg" xmlns:xlink="http://www.w3.org/1999/xlink" id="Text" width="100" height="60.3" viewBox="0 0 100 60.3"><defs><style>.cls-1{fill:url(#linear-gradient);}.cls-2{fill:#ed3c19;}.cls-3{fill:#fff;}.cls-4{fill:#fc7912;}.cls-5{fill:#ee940b;}.cls-6{fill:#e80f1f;}.cls-7{fill:#e04f06;}.cls-8{fill:url(#linear-gradient-2);}</style><linearGradient id="linear-gradient" x1="50" y1="55.62" x2="50" y2="29.38" gradientUnits="userSpaceOnUse"><stop offset="0" stop-color="#e56c06"></stop><stop offset="1" stop-color="#a83207"></stop></linearGradient><linearGradient id="linear-gradient-2" x1="19.46" y1="38.15" x2="79.69" y2="38.15" gradientUnits="userSpaceOnUse"><stop offset="0" stop-color="#dc3d07"></stop><stop offset="1" stop-color="#dc3d07"></stop></linearGradient></defs><polygon class="cls-6" points="19.71 30.15 24.11 27.61 20.28 24.27 25.1 22.64 22 18.61 27.04 17.95 24.79 13.4 29.86 13.74 28.54 8.83 33.45 10.15 33.11 5.08 37.66 7.33 38.32 2.29 42.35 5.39 43.98 .57 47.32 4.41 49.86 0 52.4 4.41 55.74 .57 57.37 5.39 61.4 2.29 62.05 7.33 66.61 5.08 66.27 10.15 71.18 8.83 69.86 13.74 74.93 13.4 72.68 17.96 77.72 18.61 74.62 22.64 79.43 24.27 75.6 27.61 80.01 30.15 75.6 32.69 79.43 36.03 74.62 37.66 77.72 41.69 72.68 42.34 74.93 46.9 69.86 46.56 71.18 51.47 66.27 50.15 66.61 55.22 62.05 52.97 61.4 58.01 57.37 54.91 55.74 59.72 52.4 55.89 49.86 60.3 47.32 55.89 43.98 59.72 42.35 54.91 38.32 58.01 37.66 52.97 33.11 55.22 33.45 50.15 28.54 51.47 29.86 46.56 24.79 46.9 27.04 42.34 22 41.69 25.1 37.66 20.28 36.03 24.11 32.69 19.71 30.15"></polygon><path d="m49.86,50.22c-11.35,0-20.55-9.18-20.6-20.52,0,.03,0,.05,0,.08,0,11.38,9.22,20.6,20.6,20.6s20.6-9.22,20.6-20.6c0-.03,0-.05,0-.08-.04,11.34-9.25,20.52-20.6,20.52Z"></path><path class="cls-2" d="m49.86,18.92c9.09,0,16.69,5.18,18.5,12.09,0-.24.02-.49.02-.73,0-9.95-8.29-18.02-18.52-18.02s-18.52,8.07-18.52,18.02c0,.25,0,.49.02.73,1.81-6.91,9.41-12.09,18.5-12.09Z"></path><path d="m49.86,9.58c11.34,0,20.54,9.16,20.6,20.49,0-.04,0-.07,0-.11,0-11.38-9.22-20.6-20.6-20.6s-20.6,9.22-20.6,20.6c0,.04,0,.07,0,.11.06-11.33,9.26-20.49,20.6-20.49Z"></path><path class="cls-4" d="m49.86,9.95c11.15,0,20.22,9.07,20.22,20.22s-9.07,20.22-20.22,20.22-20.22-9.07-20.22-20.22,9.07-20.22,20.22-20.22m0-.38c-11.38,0-20.6,9.22-20.6,20.6s9.22,20.6,20.6,20.6,20.6-9.22,20.6-20.6-9.22-20.6-20.6-20.6h0Z"></path><path class="cls-1" d="m50,41.93c8.9,0,22.87.38,27.18,2.37s4.12,4.31,4.12,7.1,1.7,3.74,4.31,4.12,5.82-.38,8.81-.38,5.59.14,5.59.14c0,0-3.55-4.55-7.29-6.68,0,0,3.44-2.06,7.29-6.11,0,0-1.42-.24-3.41-.24s-7.72.43-10.51.43-4.78-.71-4.78-4.97-2.7-5.45-2.7-5.45c0,0-4.88-2.89-28.6-2.89s-28.6,2.89-28.6,2.89c0,0-2.7,1.18-2.7,5.45s-1.99,4.97-4.78,4.97-8.52-.43-10.51-.43-3.41.24-3.41.24c3.85,4.05,7.29,6.11,7.29,6.11-3.74,2.13-7.29,6.68-7.29,6.68,0,0,2.6-.14,5.59-.14s6.2.76,8.81.38,4.31-1.33,4.31-4.12-.19-5.11,4.12-7.1,18.28-2.37,27.18-2.37Z"></path><path class="cls-8" d="m50,41.93c8.9,0,22.87.38,27.18,2.37,1.08.5,1.87,1.02,2.46,1.56l.05-12.75c-.58-.61-1.09-.83-1.09-.83,0,0-4.88-2.89-28.6-2.89s-28.6,2.89-28.6,2.89c0,0-1.29.63-1.94,2.02,0,0,0,12.63,0,12.63,0,0,1.59-1.81,3.36-2.63,4.31-1.99,18.28-2.37,27.18-2.37Z"></path><path class="cls-5" d="m87.24,55.3c-.59,0-1.11-.03-1.58-.1-2.9-.42-4.03-1.49-4.03-3.8v-.34c0-2.6.01-5.06-4.31-7.06-1.94-.9-8.07-2.4-27.31-2.4s-25.37,1.5-27.31,2.4c-4.32,1.99-4.31,4.45-4.31,7.06v.34c0,2.31-1.13,3.38-4.03,3.8-.47.07-.99.1-1.58.1-1.1,0-2.24-.11-3.45-.24-1.23-.12-2.49-.25-3.72-.25-1.87,0-3.61.06-4.74.1h0s-.05-.01-.06-.04c-.01-.02,0-.05,0-.07,1.08-1.28,3.59-3.9,6.13-5.62.28-.19.3-.6.3-.6,0,0,0-.41-.26-.59-.95-.63-3.45-2.4-6.2-5.19-.02-.02-.02-.04-.01-.07,0-.02.03-.04.05-.04.59-.06,1.51-.14,2.61-.14.91,0,2.7.09,4.42.19h.05c2.12.11,4.52.24,6.04.24,1.23,0,2.63-.11,3.65-.96.98-.82,1.46-2.24,1.46-4.33,0-3.99,2.41-5.11,2.51-5.15l.03-.02s5.14-2.84,28.43-2.84,28.39,2.82,28.44,2.84l.03.02c.1.05,2.51,1.19,2.51,5.15,0,2.09.48,3.51,1.46,4.33,1.01.85,2.41.96,3.65.96,1.51,0,3.92-.13,6.04-.24h.05c1.73-.09,3.51-.19,4.42-.19,1.09,0,2.02.07,2.61.14.02,0,.04.02.05.04,0,.02,0,.05-.01.07-2.75,2.79-5.25,4.56-6.2,5.19-.28.18-.27.6-.27.6,0,.02-.03.38.26.56,2.52,1.56,4.94,4.2,6.17,5.64.02.02.02.04,0,.07s-.03.04-.06.04c-1.13-.05-2.87-.1-4.74-.1-1.23,0-2.5.13-3.72.25-1.21.12-2.36.24-3.45.24Zm-37.24-13.82c19.27,0,25.42,1.51,27.37,2.41,4.39,2.03,4.39,4.53,4.38,7.17v.34c0,2.24,1.1,3.27,3.92,3.68.47.07.98.1,1.57.1,1.09,0,2.23-.11,3.44-.24,1.23-.12,2.5-.25,3.74-.25,1.79,0,3.47.05,4.6.1-1.24-1.45-3.6-4-6.04-5.51-.36-.22-.33-.66-.32-.67,0-.01-.01-.48.32-.7.93-.62,3.38-2.35,6.09-5.08-.59-.06-1.45-.12-2.46-.12-.91,0-2.69.09-4.42.19h-.05c-2.12.11-4.53.24-6.04.24-1.26,0-2.68-.12-3.73-.99-1.01-.85-1.5-2.3-1.5-4.43,0-3.88-2.33-4.99-2.43-5.04l-.04-.02s-5.22-2.83-28.37-2.83-28.32,2.8-28.37,2.83l-.05.02c-.1.04-2.43,1.13-2.43,5.04,0,2.13-.49,3.58-1.5,4.43-1.04.87-2.47.99-3.73.99-1.51,0-3.92-.13-6.04-.24h-.05c-1.73-.09-3.51-.19-4.42-.19-1.01,0-1.88.06-2.46.12,2.71,2.73,5.15,4.46,6.09,5.08.33.22.32.68.32.7,0,.02-.03.48-.36.7-2.45,1.67-4.88,4.18-6.01,5.48,1.13-.04,2.81-.1,4.6-.1,1.24,0,2.51.13,3.74.25,1.21.12,2.35.24,3.44.24.59,0,1.1-.03,1.57-.1,2.83-.41,3.93-1.44,3.93-3.68v-.34c0-2.64-.01-5.14,4.38-7.17,1.95-.9,8.1-2.41,27.37-2.41Z"></path><path class="cls-5" d="m87.24,54.99c-.58,0-1.08-.03-1.54-.1-2.75-.4-3.77-1.35-3.77-3.5v-.34c0-2.59.01-5.26-4.49-7.34-4.57-2.11-19.16-2.43-27.44-2.43s-22.87.32-27.44,2.43c-4.5,2.08-4.49,4.75-4.49,7.34v.34c0,2.15-1.02,3.1-3.77,3.5-.46.07-.96.1-1.54.1-1.09,0-2.28-.12-3.42-.23-1.23-.12-2.51-.25-3.75-.25-1.61,0-3.08.04-4.04.08h0s-.05-.01-.06-.04,0-.05,0-.07c.85-.96,3.08-3.37,5.47-4.94.3-.2.26-.93.26-.93,0-.02.09-.72-.26-.97-1.05-.71-3.16-2.25-5.52-4.57-.02-.02-.02-.04-.01-.07,0-.02.03-.04.05-.04.63-.05,1.28-.07,1.92-.07h0c.89,0,2.57.09,4.36.18h.05c2.14.12,4.56.24,6.1.24,1.29,0,2.76-.12,3.84-1.04,1.06-.89,1.57-2.38,1.57-4.57,0-3.77,2.23-4.83,2.33-4.87l.06-.03c.06-.03,1.44-.73,5.54-1.42,3.81-.63,10.84-1.39,22.74-1.39s18.94.75,22.74,1.39c4.24.71,5.53,1.41,5.54,1.42l.06.03c.86.4,2.32,1.87,2.32,4.87,0,2.19.51,3.68,1.57,4.57,1.09.91,2.55,1.04,3.84,1.04,1.54,0,3.97-.13,6.11-.24h.04c1.79-.1,3.48-.18,4.37-.18h0c.64,0,1.29.03,1.92.07.02,0,.05.02.05.04,0,.02,0,.05-.01.07-2.37,2.33-4.47,3.86-5.51,4.57-.37.25-.27.95-.27.96,0,0,0,.02,0,.03,0,.02-.19.61.27.92,2.4,1.59,4.62,3.98,5.47,4.94.02.02.02.04,0,.07s-.03.04-.06.04h0c-.96-.03-2.43-.08-4.04-.08-1.25,0-2.52.13-3.75.25-1.2.12-2.33.23-3.42.23Zm-37.24-13.82c8.3,0,22.9.32,27.49,2.44,4.57,2.11,4.57,4.82,4.56,7.45v.34c0,2.07.99,2.98,3.66,3.37.45.07.95.1,1.52.1,1.08,0,2.21-.11,3.41-.23,1.24-.12,2.51-.25,3.77-.25,1.53,0,2.94.04,3.9.07-.9-1.02-3.04-3.29-5.34-4.81-.5-.33-.35-.94-.32-1.05-.01-.11-.09-.79.32-1.06,1.03-.7,3.08-2.19,5.4-4.46-.59-.04-1.18-.06-1.77-.06-.88,0-2.57.09-4.36.18h-.04c-2.14.12-4.57.24-6.11.24-1.31,0-2.81-.13-3.92-1.06-1.09-.91-1.61-2.43-1.61-4.66,0-3.68-2.16-4.71-2.25-4.76l-.07-.03s-1.36-.72-5.5-1.4c-3.8-.63-10.83-1.38-22.72-1.38s-18.92.75-22.72,1.38c-4.08.68-5.44,1.37-5.5,1.4l-.07.04c-.09.04-2.25,1.06-2.25,4.76,0,2.23-.53,3.75-1.61,4.66-1.12.94-2.61,1.06-3.92,1.06-1.55,0-3.97-.13-6.11-.24h-.05c-1.78-.1-3.47-.18-4.35-.18-.59,0-1.19.02-1.77.06,2.31,2.26,4.37,3.76,5.4,4.46.42.29.32,1.04.32,1.08,0,.02.04.8-.32,1.03-2.29,1.5-4.44,3.79-5.35,4.81.96-.03,2.37-.07,3.9-.07,1.25,0,2.53.13,3.77.25,1.14.12,2.33.23,3.41.23.57,0,1.07-.03,1.52-.1,2.67-.39,3.66-1.3,3.66-3.37v-.34c0-2.63-.01-5.34,4.56-7.45,4.59-2.12,19.2-2.44,27.49-2.44Z"></path><polygon class="cls-7" points="74.94 31.94 23.63 32.26 22.73 32.97 22.73 38.13 74.94 31.94"></polygon><path class="cls-3" d="m56.87,28.06c-1.49,0-2.71-1.22-2.71-2.71v-8.62c0-1.49,1.22-2.71,2.71-2.71s2.71,1.22,2.71,2.71v8.62c0,1.49-1.22,2.71-2.71,2.71Zm0-12.97c-.91,0-1.64.74-1.64,1.64v8.62c0,.91.74,1.64,1.64,1.64s1.64-.74,1.64-1.64v-8.62c0-.91-.74-1.64-1.64-1.64Z"></path><path class="cls-3" d="m38.84,28.07c-.54,0-1.09-.16-1.56-.5-1.22-.86-1.51-2.56-.65-3.78l6.03-8.52c.12-.18.26-.35.42-.5l.02-.02c.05-.05.11-.09.17-.14l.03-.03s.04-.04.06-.05c.03-.02.06-.04.09-.06l.03-.02s.03-.02.05-.03c.06-.03.11-.07.18-.1.02-.01.04-.02.05-.03.06-.03.12-.06.19-.08l.05-.02c.06-.02.13-.04.2-.06.02,0,.04,0,.05-.01.06-.02.13-.03.19-.04.02,0,.05,0,.07-.01.06,0,.12-.02.17-.02.03,0,.07,0,.1,0,.05,0,.1,0,.14,0,.05,0,.09,0,.14,0,.04,0,.07,0,.11,0,.06,0,.11.01.17.02.03,0,.05,0,.08.01.06.01.13.03.19.04.02,0,.04.01.06.02.07.02.13.04.2.06l.04.02c.07.03.13.06.2.08.02,0,.03.02.05.02.07.04.13.07.19.1.01,0,.03.02.04.03l.03.02s.06.04.09.06c.02.01.04.03.06.04l.03.03c.07.06.13.11.19.16h0c.16.16.3.33.42.51l6.03,8.52c.86,1.22.57,2.91-.65,3.78-1.22.86-2.91.57-3.78-.65l-3.88-5.49-3.88,5.49c-.53.75-1.37,1.14-2.22,1.14Zm6.1-8.48l4.75,6.72c.52.74,1.55.91,2.29.39.74-.52.91-1.55.39-2.29h0s-6.05-8.55-6.05-8.55c-.07-.11-.16-.22-.26-.31h0s-.07-.06-.1-.09h-.02s-.03-.04-.04-.05c0,0-.02-.01-.03-.02l-.07-.05s-.07-.04-.11-.06l-.03-.02s-.08-.03-.12-.05h-.03s-.08-.04-.12-.05h-.04s-.08-.03-.11-.03c-.02,0-.03,0-.05,0-.03,0-.07,0-.1-.01-.02,0-.04,0-.07,0-.03,0-.05,0-.08,0-.03,0-.06,0-.09,0-.02,0-.04,0-.06,0-.04,0-.07,0-.1.01-.01,0-.03,0-.04,0-.04,0-.08.02-.12.03h-.03s-.08.03-.12.05h-.02s-.08.04-.12.06h-.02s-.08.05-.12.08l-.07.05s-.02.01-.03.02c-.01.01-.02.02-.04.03l-.02.02s-.08.06-.11.09h0c-.1.1-.19.2-.26.31v.02s-6.05,8.53-6.05,8.53c-.52.74-.35,1.77.39,2.29.74.52,1.77.35,2.29-.39l4.75-6.72Z"></path><path class="cls-3" d="m46.67,45.11c-.06.05-.12.09-.17.11-.05.02-.11.03-.18.03-.1,0-.18-.03-.24-.08-.06-.05-.08-.12-.08-.19,0-.05.01-.09.03-.13.02-.04.05-.07.08-.09.03-.02.07-.04.11-.05.03,0,.08-.02.14-.02.13-.02.22-.03.28-.05,0-.02,0-.04,0-.04,0-.07-.02-.11-.05-.14-.04-.04-.1-.05-.18-.05-.08,0-.13.01-.17.04-.04.03-.06.07-.08.14l-.16-.02c.01-.07.04-.12.07-.16s.08-.07.14-.09c.06-.02.13-.03.21-.03s.15,0,.2.03.09.04.11.07.04.06.05.11c0,.03,0,.08,0,.15v.21c0,.15,0,.24.01.28,0,.04.02.08.04.11h-.17s-.03-.07-.03-.12Zm-.01-.36c-.06.02-.14.04-.26.06-.07,0-.11.02-.14.03-.03.01-.05.03-.06.05s-.02.05-.02.08c0,.04.02.08.05.11.03.03.08.04.14.04s.12-.01.16-.04.08-.06.11-.11c.02-.04.03-.09.03-.16v-.06Z"></path><path class="cls-3" d="m47.28,45.22l-.29-.94h.16l.15.54.06.2s.02-.07.05-.19l.15-.55h.16l.14.55.05.18.05-.18.16-.54h.16l-.29.94h-.17l-.15-.56-.04-.16-.19.72h-.17Z"></path><path class="cls-3" d="m49.08,45.11c-.06.05-.12.09-.17.11-.05.02-.11.03-.18.03-.1,0-.18-.03-.24-.08-.06-.05-.08-.12-.08-.19,0-.05.01-.09.03-.13.02-.04.05-.07.08-.09.03-.02.07-.04.11-.05.03,0,.08-.02.14-.02.13-.02.22-.03.28-.05,0-.02,0-.04,0-.04,0-.07-.02-.11-.05-.14-.04-.04-.1-.05-.18-.05-.08,0-.13.01-.17.04-.04.03-.06.07-.08.14l-.16-.02c.01-.07.04-.12.07-.16s.08-.07.14-.09c.06-.02.13-.03.21-.03s.15,0,.2.03.09.04.11.07.04.06.05.11c0,.03,0,.08,0,.15v.21c0,.15,0,.24.01.28,0,.04.02.08.04.11h-.17s-.03-.07-.03-.12Zm-.01-.36c-.06.02-.14.04-.26.06-.07,0-.11.02-.14.03-.03.01-.05.03-.06.05s-.02.05-.02.08c0,.04.02.08.05.11.03.03.08.04.14.04s.12-.01.16-.04.08-.06.11-.11c.02-.04.03-.09.03-.16v-.06Z"></path><path class="cls-3" d="m49.52,45.22v-.94h.14v.14c.04-.07.07-.11.1-.13.03-.02.07-.03.1-.03.05,0,.11.02.16.05l-.05.15s-.08-.03-.12-.03c-.03,0-.07.01-.09.03s-.05.05-.06.09c-.02.06-.03.12-.03.19v.49h-.16Z"></path><path class="cls-3" d="m50.78,45.22v-.12c-.06.09-.15.14-.26.14-.08,0-.14-.02-.21-.06-.06-.04-.11-.1-.15-.17-.03-.07-.05-.16-.05-.26s.02-.18.05-.26c.03-.08.08-.14.14-.18.06-.04.13-.06.21-.06.06,0,.11.01.15.04.04.02.08.06.11.09v-.47h.16v1.3h-.15Zm-.5-.47c0,.12.03.21.08.27.05.06.11.09.18.09s.13-.03.18-.09c.05-.06.07-.14.07-.26,0-.13-.02-.22-.07-.28s-.11-.09-.18-.09-.13.03-.18.09c-.05.06-.07.15-.07.27Z"></path><path class="cls-3" d="m51.16,44.94l.16-.02c0,.06.03.11.07.15.04.03.1.05.17.05s.13-.01.16-.04.05-.06.05-.11c0-.04-.02-.06-.05-.09-.02-.01-.08-.03-.16-.05-.12-.03-.2-.06-.24-.08-.05-.02-.08-.05-.1-.09-.02-.04-.04-.08-.04-.13,0-.04,0-.08.03-.12s.05-.07.08-.09c.02-.02.06-.03.1-.05s.09-.02.14-.02c.07,0,.14.01.19.03.06.02.1.05.12.09.03.04.04.08.05.15l-.16.02s-.03-.09-.06-.11-.08-.04-.14-.04c-.07,0-.13.01-.16.04-.03.02-.05.05-.05.09,0,.02,0,.04.02.06.01.02.03.03.06.04.02,0,.06.02.14.04.11.03.19.05.24.07s.08.05.11.08.04.08.04.14-.02.1-.05.15c-.03.05-.08.08-.13.11-.06.03-.12.04-.2.04-.12,0-.22-.03-.28-.08s-.11-.13-.12-.23Z"></path><path class="cls-3" d="m52.22,45.22v-.18h.18v.18h-.18Z"></path><path class="cls-3" d="m53.34,45.11c-.06.05-.12.09-.17.11-.05.02-.11.03-.18.03-.1,0-.18-.03-.24-.08-.06-.05-.08-.12-.08-.19,0-.05.01-.09.03-.13.02-.04.05-.07.08-.09s.07-.04.11-.05c.03,0,.08-.02.14-.02.13-.02.22-.03.28-.05,0-.02,0-.04,0-.04,0-.07-.02-.11-.05-.14-.04-.04-.1-.05-.18-.05-.08,0-.13.01-.17.04s-.06.07-.08.14l-.16-.02c.01-.07.04-.12.07-.16s.08-.07.14-.09c.06-.02.13-.03.21-.03s.15,0,.2.03c.05.02.09.04.11.07s.04.06.05.11c0,.03,0,.08,0,.15v.21c0,.15,0,.24.01.28s.02.08.04.11h-.17s-.03-.07-.03-.12Zm-.01-.36c-.06.02-.14.04-.26.06-.07,0-.11.02-.14.03-.03.01-.05.03-.06.05-.01.02-.02.05-.02.08,0,.04.02.08.05.11s.08.04.14.04.12-.01.16-.04c.05-.03.08-.06.11-.11.02-.04.03-.09.03-.16v-.06Z"></path><path class="cls-3" d="m53.78,44.11v-.18h.16v.18h-.16Zm0,1.12v-.94h.16v.94h-.16Z"></path><path class="cls-3" d="m36.3,37.64h-.82l-.33-.85h-1.5l-.31.85h-.8l1.46-3.75h.8l1.5,3.75Zm-1.39-1.48l-.52-1.39-.51,1.39h1.02Z"></path><path class="cls-3" d="m37.09,37.64l-.86-2.71h.7l.51,1.78.47-1.78h.69l.45,1.78.52-1.78h.71l-.87,2.71h-.69l-.47-1.75-.46,1.75h-.7Z"></path><path class="cls-3" d="m41.18,35.76l-.65-.12c.07-.26.2-.46.38-.58.18-.13.44-.19.8-.19.32,0,.56.04.72.11.16.08.27.17.33.29.06.12.1.33.1.64v.84c0,.24,0,.41.03.53.02.11.07.23.13.36h-.71s-.04-.12-.07-.21c-.01-.04-.02-.07-.03-.08-.12.12-.25.21-.39.27-.14.06-.29.09-.45.09-.28,0-.5-.08-.66-.23-.16-.15-.24-.34-.24-.57,0-.15.04-.29.11-.41.07-.12.18-.21.31-.28.13-.06.32-.12.57-.17.34-.06.57-.12.7-.18v-.07c0-.14-.03-.24-.1-.3-.07-.06-.2-.09-.39-.09-.13,0-.23.03-.3.08-.07.05-.13.14-.17.26Zm.96.58c-.09.03-.24.07-.44.11s-.33.08-.39.13c-.09.07-.14.15-.14.25s.04.19.11.26c.07.07.17.11.29.11.13,0,.25-.04.37-.13.09-.06.14-.14.17-.24.02-.06.03-.18.03-.35v-.14Z"></path><path class="cls-3" d="m44.24,37.64h-.72v-2.71h.67v.39c.11-.18.22-.3.31-.36.09-.06.19-.09.31-.09.16,0,.32.05.47.14l-.22.63c-.12-.08-.23-.12-.34-.12s-.19.03-.26.08c-.07.06-.12.16-.16.3-.04.14-.06.45-.06.91v.84Z"></path><path class="cls-3" d="m48.06,37.64h-.67v-.4c-.11.16-.24.27-.39.35-.15.08-.3.11-.46.11-.31,0-.58-.13-.8-.38-.22-.25-.33-.6-.33-1.05s.11-.81.32-1.05c.22-.24.49-.36.82-.36.3,0,.57.13.79.38v-1.35h.72v3.75Zm-1.92-1.42c0,.29.04.5.12.63.12.19.28.28.49.28.17,0,.31-.07.42-.21.12-.14.17-.35.17-.63,0-.31-.06-.54-.17-.67s-.26-.21-.43-.21-.31.07-.43.2c-.11.14-.17.34-.17.61Z"></path><path class="cls-3" d="m50.74,37.64l-.89-3.75h.77l.56,2.57.68-2.57h.9l.66,2.62.57-2.62h.76l-.91,3.75h-.8l-.75-2.8-.74,2.8h-.82Z"></path><path class="cls-3" d="m55.09,34.56v-.66h.72v.66h-.72Zm0,3.08v-2.71h.72v2.71h-.72Z"></path><path class="cls-3" d="m59,37.64h-.72v-1.38c0-.29-.02-.48-.05-.57s-.08-.15-.15-.2c-.07-.05-.15-.07-.25-.07-.12,0-.24.03-.33.1-.1.07-.17.16-.2.27-.04.11-.05.32-.05.62v1.23h-.72v-2.71h.67v.4c.24-.31.53-.46.89-.46.16,0,.3.03.43.09s.23.13.3.22.11.19.14.3c.03.11.04.27.04.48v1.69Z"></path><path class="cls-3" d="m62.18,37.64h-.72v-1.38c0-.29-.02-.48-.05-.57s-.08-.15-.15-.2c-.07-.05-.15-.07-.25-.07-.12,0-.24.03-.33.1-.1.07-.17.16-.2.27-.04.11-.05.32-.05.62v1.23h-.72v-2.71h.67v.4c.24-.31.53-.46.89-.46.16,0,.3.03.43.09s.23.13.3.22.11.19.14.3c.03.11.04.27.04.48v1.69Z"></path><path class="cls-3" d="m64.47,36.78l.72.12c-.09.26-.24.46-.44.6-.2.14-.45.21-.74.21-.47,0-.82-.15-1.05-.46-.18-.25-.27-.56-.27-.94,0-.45.12-.8.35-1.06s.53-.38.89-.38c.4,0,.72.13.96.4.23.27.34.68.33,1.23h-1.8c0,.21.06.38.17.5.11.12.25.18.41.18.11,0,.21-.03.28-.09s.13-.16.17-.3Zm.04-.73c0-.21-.06-.37-.16-.47-.1-.11-.23-.16-.37-.16-.16,0-.29.06-.39.17-.1.11-.15.27-.15.47h1.07Z"></path><path class="cls-3" d="m66.49,37.64h-.72v-2.71h.67v.39c.11-.18.22-.3.31-.36.09-.06.19-.09.31-.09.16,0,.32.05.47.14l-.22.63c-.12-.08-.23-.12-.34-.12s-.19.03-.26.08c-.07.06-.12.16-.16.3-.04.14-.06.45-.06.91v.84Z"></path></svg> 