<?xml version="1.0" encoding="UTF-8"?> <svg xmlns="http://www.w3.org/2000/svg" id="Layer_1" width="100" height="19.36" viewBox="0 0 100 19.36"><defs><style>.cls-1{fill:#bf062f;}</style></defs><path class="cls-1" d="m93.74,16.01c-.99-.52-1.15-2-1.13-5.58l.02-5.5h-1.89l.43-1.03h1.47V1.3l3.53-1.3v3.81h1.62l-.43,1.13h-1.19v9.52c.07.77.34,1.22.7,1.55h-3.13Z"></path><path class="cls-1" d="m5.32,6.66c.36.97,1.17,2,.59,3.13-.29,1.15-1.37,2.09-2.52,2.27-1.21.11-2.36-.09-3.24-.83C-.48,7.9.87,4.82,3.5,2.99l1.82,3.67h0Z"></path><path class="cls-1" d="m9.96,16.8c-.59,2.01-6.55.68-8.42-2.61,2.45.27,5.22-1.91,5.25-4.37l3.17,6.98Z"></path><path class="cls-1" d="m12.38,16.53c.27-.13.83-.4.95-.97L6.93,1.67c-.43-.05-.74-.09-1.28.29l6.73,14.57h0Z"></path><path class="cls-1" d="m15.26,13.53c2.72-4.12.43-10.88-5.43-11.84,0,0,5.43,11.84,5.43,11.84Z"></path><path class="cls-1" d="m66.2,4.33c.65-.54,1.78-.56,2.52-.2.31.16.61.36.79.63l-1.42,2.19c-.18-.14-.31-.2-.54-.32-.7-.31-1.44-.13-1.87.25v6.42c-.02,1.12.18,2.12.76,2.66h-3.22c-.67-.52-.85-1.35-.9-2.07l-.02-8.54c.04-.68-.14-1.01-.43-1.39l3.35.02c.27.2.29.52.43.79l.56-.45h0Z"></path><path class="cls-1" d="m70.29,6.44c-.02-.81.16-1.78-.38-2.48h3.09c.2.16.32.41.38.67.16.22.16.52.23.79l.02,9.1c.13.54.34,1.1.74,1.51h-3.31c-1.08-1.04-.72-2.77-.81-4.55l.04-5.04h0Z"></path><path class="cls-1" d="m75.18,6.53c.34-.94,1.39-1.39,2.14-1.89,1.17-.43,2.43-1.47,3.74-.61,1.08.7,2.03,1.51,2.72,2.61.16.43.25.9.36,1.35,0,.61.13,1.06.11,1.65.04.67.04,1.26,0,1.89-.04,1.1-.56,2.07-1.42,2.84-1.3,1.15-2.91,2.45-4.66,1.56-1.56-.74-3.44-2.19-3.31-4.19-.07-1.42-.13-2.64.07-4.03.07-.4.04-.83.25-1.19m3.22,6.46c.16.58.45,1.26,1.13,1.35.4.02.7-.32.92-.61.72-1.42.61-2.97.61-4.57-.23-1.21.05-2.84-1.24-3.56-.45-.16-.79.14-1.08.43-.5.76-.56,1.64-.59,2.59-.14,1.53.04,2.81.25,4.37"></path><path class="cls-1" d="m86.55,16.01c-1.01-.52-1.15-2-1.13-5.58l.02-5.5h-1.89l.43-1.03h1.47V1.3l3.53-1.3v3.81h1.62l-.43,1.13h-1.19v9.52c.07.77.34,1.22.7,1.55h-3.13Z"></path><path class="cls-1" d="m54.38,5.38c-.02-.7-.14-1.01-.43-1.39l3.35.02c.27.2.29.52.43.79l.58-.45c.65-.54,1.78-.56,2.52-.2.31.16.61.36.79.63l-1.42,2.19c-.18-.14-.31-.2-.54-.32-.7-.31-1.44-.13-1.87.25v6.42c-.02,1.12.18,2.12.76,2.66h-3.22c-.67-.52-.86-1.28-.9-2.07l-.04-8.54h0Z"></path><path class="cls-1" d="m29.15,8.76l-1.22,2.5c-.83,1.47-2,3.27-3.78,3.72-.68.23-1.3.02-1.96-.02l-2.16,3.53c.16.18.4.32.61.4,3.78,1.44,5.31-.11,9.03-8.53l3.53,7.5h4.69l-2.21-5.05,1.26-2.61,3.45,7.55,4.48.04L37.01.5l-3.62,1.8,2.84,6.44-1.24,2.54L29.8.07l-3.81,1.94,3.17,6.75h0Z"></path><path class="cls-1" d="m43.54,11.8c.09-1.24.77-2.43,1.92-3.06,1.15-.7,2.48-.99,3.67-1.62.2-.16.47-.38.49-.65.02-.34-.16-.59-.45-.7-1.8-.38-3.29.76-4.6,1.87.16-.83.29-1.73.68-2.5.2-.2.31-.49.56-.65,1.28-.63,2.88-.81,4.3-.7,1.17.07,2.25.92,2.66,1.98.2.5.2,1.06.23,1.58l.02,6.98c.02.61.29,1.17.65,1.65h-3.35c-.4-.36-.59-.81-.7-1.39-.94.83-2.88,2.05-4.05,1.24-1.19-.52-2.3-2.34-2.03-4.05m5.92-2.43c-.02-.49-.38-.54-.61-.54-.79.11-1.49.79-1.87,1.47-.34.61-.41,1.13-.45,1.65,0,.58-.04,1.01.2,1.44.13.29.41.41.68.49.52.11.99-.04,1.39-.31.94-.52.77-1.58.79-2.52l-.13-1.69Z"></path><path class="cls-1" d="m98.83,15.83c-.54,0-.97-.43-.97-.97s.43-.95.97-.95.95.43.95.95c.02.54-.41.97-.95.97m0,.2c.65,0,1.17-.52,1.17-1.17s-.52-1.17-1.17-1.17-1.17.52-1.17,1.17.52,1.17,1.17,1.17m-.05-1.1c.07,0,.14,0,.2.05.05.07.05.18.07.29.02.07.04.16.05.25h.27c-.05-.13-.05-.27-.09-.4-.02-.14-.04-.23-.23-.27h0c.18-.04.27-.16.27-.32,0-.31-.25-.38-.5-.38h-.43v1.37h.22v-.59h.18Zm-.18-.2v-.36h.25c.16,0,.22.05.22.16s-.05.2-.25.2h-.22Z"></path></svg> 