<?xml version="1.0" encoding="UTF-8"?> <svg xmlns="http://www.w3.org/2000/svg" id="Layer_1" width="600" height="400" viewBox="0 0 600 400"><defs><style>.cls-1{fill:#fff;}</style></defs><path class="cls-1" d="m147.32,244.13l2.79,4.91-16.03,9.11c-1.33-2.1-2.24-3.59-2.74-4.46-.95-1.66-1.33-3.17-1.15-4.51.18-1.34.93-2.39,2.25-3.14,1.27-.72,2.66-.62,4.16.3-.44-2.39.42-4.2,2.59-5.43,1.46-.83,2.93-.94,4.42-.32,1.48.61,2.72,1.79,3.71,3.54Zm-12.58,9.88l3.84-2.19c-.22-.45-.47-.92-.74-1.4-1.05-1.85-2.28-2.38-3.67-1.59-1.23.7-1.37,1.9-.41,3.58.25.45.58.98.98,1.6Zm6.06-3.45l5.3-3.01c-.28-.61-.52-1.09-.72-1.45-.72-1.27-1.46-2.07-2.22-2.4-.76-.33-1.63-.21-2.63.36-.91.52-1.42,1.16-1.54,1.93-.11.77.21,1.82.96,3.15.16.28.44.75.85,1.42Z"></path><path class="cls-1" d="m125.81,242.93l-1.18-3.06,11.67-4.5c.93-.36,1.57-.93,1.93-1.72.36-.79.35-1.68-.03-2.66-.43-1.1-1.04-1.86-1.85-2.25-.81-.4-1.7-.4-2.69-.02l-11.61,4.48-1.18-3.06,11.85-4.56c1.77-.68,3.39-.62,4.85.18,1.46.8,2.57,2.19,3.34,4.17.77,2,.87,3.73.31,5.19s-1.75,2.55-3.58,3.25l-11.83,4.56Z"></path><path class="cls-1" d="m137.33,220.58l-17.99,4.07-.72-3.19,15.16-3.43-1.84-8.13,2.84-.64,2.56,11.33Z"></path><path class="cls-1" d="m134.54,207.32l-18.37,1.71-.3-3.26,15.47-1.44-.77-8.3,2.9-.27,1.07,11.56Z"></path><path class="cls-1" d="m133.61,189.77l-.19,4.09-18.42-.87c.03-2.61.06-4.26.09-4.93.13-2.68,1.01-4.78,2.66-6.27,1.65-1.5,3.77-2.19,6.37-2.06,6.62.31,9.79,3.66,9.49,10.04Zm-15.6.08l12.58.59c.08-.53.13-1.09.16-1.71.08-1.65-.46-2.97-1.62-3.97-1.15-.99-2.81-1.54-4.97-1.64-3.94-.19-6,1.55-6.17,5.22-.02.35-.01.85.02,1.5Z"></path><path class="cls-1" d="m124.97,177.08c-2.57-.53-4.6-1.69-6.09-3.47-1.49-1.78-1.99-3.85-1.5-6.21.54-2.6,1.75-4.42,3.65-5.46s4.3-1.26,7.21-.66c2.91.6,5.07,1.8,6.49,3.59,1.41,1.79,1.85,4,1.3,6.64-.5,2.42-1.73,4.11-3.7,5.05-1.96.94-4.41,1.11-7.36.5Zm.69-3.33c2.11.44,3.82.42,5.13-.06,1.31-.48,2.1-1.4,2.38-2.76.33-1.6.02-2.94-.94-4.02-.96-1.08-2.52-1.84-4.68-2.29-4.23-.88-6.68.25-7.32,3.37-.3,1.43.05,2.65,1.04,3.65.99,1,2.45,1.7,4.39,2.11Z"></path><path class="cls-1" d="m127.12,142.46l1.97,2.22c-.46.24-.99.67-1.6,1.3-.6.63-1.01,1.22-1.22,1.76-.65,1.69-.58,3.25.19,4.67.77,1.42,2.13,2.5,4.06,3.23,1.84.7,3.49.78,4.95.24,1.46-.54,2.51-1.64,3.14-3.3.42-1.09.46-2.1.13-3.04l-3.39-1.29-.91,2.39-2.61-1,2.08-5.45,7.72,2.94c.32.96.42,2.07.32,3.35-.1,1.28-.37,2.48-.81,3.62-.94,2.47-2.5,4.12-4.67,4.95-2.17.83-4.59.74-7.25-.28-2.66-1.01-4.52-2.63-5.58-4.84s-1.08-4.65-.07-7.32c.72-1.89,1.9-3.28,3.53-4.18Z"></path><path class="cls-1" d="m143.88,132.95l5.67,3.73-1.8,2.73-15.4-10.14c1.12-1.87,1.79-2.97,1.99-3.27,1.6-2.43,3.15-3.97,4.63-4.6,1.49-.63,3.02-.43,4.61.61,3.53,2.33,3.93,5.57,1.19,9.74-.2.31-.5.71-.89,1.19Zm-7.36-4.85l4.93,3.25c.35-.43.62-.78.79-1.05.82-1.25,1.21-2.3,1.17-3.15-.04-.85-.53-1.58-1.47-2.2-1.6-1.05-3.25-.29-4.94,2.28-.19.29-.35.58-.49.87Z"></path><path class="cls-1" d="m162.71,119.71l-8.97-1.35c-.33.37-.82.87-1.44,1.5l5.78,5.1-2.25,2.55-13.83-12.21c.12-.14.57-.69,1.34-1.66s1.4-1.73,1.91-2.3c3.1-3.51,6.01-4.07,8.73-1.67.82.72,1.35,1.62,1.6,2.7.25,1.08.18,2.11-.19,3.09l9.84,1.42-2.5,2.83Zm-16.33-5.08l3.84,3.39c.44-.42.76-.75.97-.99.91-1.03,1.42-1.9,1.55-2.63.13-.73-.22-1.47-1.06-2.21-.68-.6-1.38-.77-2.1-.49-.72.27-1.57.95-2.53,2.05-.23.26-.46.56-.68.88Z"></path><path class="cls-1" d="m178.94,105.95l-3.32-2.18-5.05,3.8,1.22,3.76-2.91,2.19-5.36-19.37,1.15-.86,17.17,10.5-2.89,2.17Zm-11.46-7.73l2.32,6.78,3.54-2.66-5.86-4.12Z"></path><path class="cls-1" d="m194.86,97.15l-1.19.62-8.96-8.45,1.91,12.13-1.19.62-14.03-13.78,3.03-1.58,8.22,8.27-1.84-11.6,1.27-.66,8.48,8.13-2.09-11.47,3.03-1.58,3.36,19.34Z"></path><path class="cls-1" d="m210.17,91.32l-2.44-3.14-6.01,1.96-.06,3.95-3.46,1.13,1.19-20.06,1.36-.45,12.85,15.48-3.44,1.12Zm-8.35-11.01v7.16s4.22-1.38,4.22-1.38l-4.22-5.79Z"></path><path class="cls-1" d="m225.06,88.32l-6.13-6.69c-.49.08-1.18.16-2.06.26l1.29,7.6-3.35.57-3.09-18.19c.18-.03.87-.18,2.08-.45,1.21-.27,2.18-.47,2.93-.59,4.62-.79,7.23.61,7.84,4.19.18,1.08.03,2.11-.46,3.1-.49.99-1.18,1.76-2.09,2.28l6.77,7.28-3.72.63Zm-9.52-14.21l.86,5.05c.6-.05,1.06-.1,1.38-.16,1.35-.23,2.3-.59,2.86-1.08.56-.49.75-1.28.56-2.38-.15-.89-.59-1.46-1.32-1.7-.73-.24-1.82-.24-3.26,0-.35.06-.71.15-1.08.26Z"></path><path class="cls-1" d="m233.69,87.65l-4.09.09-.4-18.43c2.61-.15,4.25-.23,4.92-.24,2.69-.06,4.83.68,6.44,2.22s2.44,3.61,2.5,6.21c.14,6.63-2.98,10.02-9.37,10.15Zm-1.15-15.56l.27,12.59c.53.04,1.1.05,1.71.04,1.65-.04,2.94-.66,3.85-1.88.91-1.22,1.34-2.91,1.3-5.07-.08-3.95-1.96-5.88-5.63-5.8-.35,0-.85.05-1.5.12Z"></path><path class="cls-1" d="m244.68,86.61l1.53-2.78c1.18,1.05,2.39,1.64,3.64,1.78,1.91.22,2.94-.34,3.09-1.68.07-.63-.09-1.25-.47-1.87s-1.24-1.36-2.57-2.23c-1.32-.86-2.21-1.55-2.64-2.06-.44-.51-.75-1.09-.94-1.75-.19-.66-.24-1.36-.16-2.12.16-1.42.81-2.54,1.96-3.35,1.15-.82,2.53-1.13,4.16-.95,2.12.24,3.63.81,4.53,1.72l-1.31,2.69c-1.05-.95-2.21-1.49-3.48-1.64-.75-.09-1.36.05-1.81.4-.46.35-.72.84-.8,1.47-.12,1.05.92,2.28,3.12,3.68,1.16.74,1.98,1.39,2.46,1.96.49.57.83,1.2,1.04,1.91s.26,1.47.17,2.29c-.17,1.49-.89,2.64-2.18,3.47-1.28.83-2.91,1.13-4.87.9-1.71-.19-3.2-.81-4.48-1.85Z"></path><path class="cls-1" d="m400.66,184.56l-4.56,30.61h-4.13l-3.35-19.86h-.09l-3.31,19.86h-4.13l-4.56-30.61h4.64l2.19,19.43h.09l3.44-19.43h3.35l3.57,19.9h.09l2.11-19.9h4.64Z"></path><path class="cls-1" d="m404.14,215.17v-30.61h4.39v30.61h-4.39Z"></path><path class="cls-1" d="m413.21,215.17v-30.61h4.21l6.62,18.44h.09v-18.44h4.38v30.61h-4.13l-6.71-18.4h-.09v18.4h-4.38Z"></path><path class="cls-1" d="m432.9,215.17v-30.61h4.21l6.62,18.44h.09v-18.44h4.38v30.61h-4.13l-6.71-18.4h-.09v18.4h-4.38Z"></path><path class="cls-1" d="m452.76,215.17v-30.61h13.07v4.13h-8.68v8.98h7.57v4.13h-7.57v8.98h8.68v4.38h-13.07Z"></path><path class="cls-1" d="m469.27,215.17v-30.61h7.05c5.16,0,7.74,2.99,7.74,8.98,0,1.81-.28,3.34-.84,4.6s-1.54,2.28-2.94,3.05l4.73,13.97h-4.64l-4.08-13.07h-2.62v13.07h-4.38Zm4.38-26.48v9.54h2.49c.77,0,1.39-.11,1.85-.32s.82-.52,1.07-.92c.23-.4.39-.9.47-1.48.09-.59.13-1.27.13-2.04s-.04-1.45-.13-2.04c-.09-.59-.26-1.1-.52-1.53-.54-.8-1.58-1.2-3.09-1.2h-2.28Z"></path><path class="cls-1" d="m308.05,125.84c-.04,1.62,1.15,2.84,2.79,2.85,2.2.02,4.04-1.62,4.03-3.58-.01-1.66-1.17-2.82-2.83-2.82-2.07,0-3.95,1.67-3.99,3.54Z"></path><path class="cls-1" d="m309.03,121.56c2-.02,4.01-2.15,4.03-4.28.02-1.86-1.4-3.32-3.2-3.29-1.94.03-3.8,2.14-3.81,4.31,0,1.8,1.34,3.27,2.98,3.25Z"></path><path class="cls-1" d="m301.28,116.76c1.78,0,3.39-1.8,3.42-3.83.03-2.05-1.55-3.92-3.31-3.91-1.94,0-3.47,1.72-3.45,3.87.02,2.09,1.56,3.87,3.35,3.87Z"></path><path class="cls-1" d="m337.83,218.76c-.56-.46-1.04-.86-1.44-1.11,0-.34.04-2.25.02-2.5-.04-.49.96-.72,1.41-.83,2.82-.7,5.51-1.03,8.17-2.16,3.48-1.47,6.7-3.38,9.48-5.99,4.06-3.81,6.97-11.54,4.59-18.41-1.23-3.55-3.2-6.62-5.69-9.39-3.4-3.79-7.4-6.87-11.69-9.56-5.55-3.47-11.26-6.67-17.16-9.52-1.19-.54-1.21-1.62-1.05-2.54.26-1.48,1.53-15.51,1.54-15.55.25-2.79-1.82-3.97-1.82-3.97,0,0-4.85-2.9-5.03-3.36-.23-.58.16-1.17.43-1.6,2.22-3.29,5.23-5.94,8.12-8.65.94-.88,1.99-1.64,2.95-2.5,1.06-.95,1.32-2.06.83-3.4-.22-.61-.54-1.17-.92-1.69-.62-.84-1.34-1.59-2.08-2.31-3.28-3.16-6.83-6.02-10.56-8.62-6.78-4.73-13.66-9.31-20.92-13.3-1.95-1.07-3.96-1.97-6.09-2.64-1.8-.57-3.22-.05-4.44,1.29-.17.18-.31.39-.46.59-2.07,2.72-3.64,5.73-5.11,8.8-1.38,2.87-2.52,5.84-3.53,8.86-.24.73-.28.75-.97.52-.58-.19-1.14-.42-1.72-.6-5.86-1.8-11.47-4.21-16.9-7.07-1.27-.67-2.52-1.35-3.81-1.99-2.21-1.09-4.49-1.69-6.94-.83-.68.24-1.33.52-1.98.83-3.25,1.59-6.33,3.48-9.51,5.19-3.93,2.12-7.73,4.49-11.65,6.65-2.98,1.65-5.78,3.52-8.27,5.91-3.08,2.96-5.41,6.36-7.14,10.23-.92,2.06-1.85,4.11-2.8,6.15-.78,1.69-1.61,3.36-2.22,5.12-.28.8-.73,1.2-1.56,1.39-4.6,1.11-9.01,2.79-13.33,4.71-1.44.64-2.9,1.22-4.33,1.87-1.73.79-3.31,1.84-4.93,2.83-4.24,2.6-8.07,5.7-11.42,9.37-2.55,2.78-4.44,5.95-5.34,9.67-.71,2.95-.56,5.81.64,8.61.95,2.22,2.4,4.06,4.11,5.72.93.9,1.94,1.69,2.97,2.48.6.46.58.54.04,1.07-2.92,2.85-3.77,6.31-3,10.23.45,2.26,1.34,4.37,2.35,6.43.52,1.06,1.04,2.12,1.59,3.16.23.44.19.74-.27.95-.13.06-.25.13-.38.21-3.94,2.35-7.22,5.4-9.56,9.37-2.26,3.83-3.27,7.99-3.03,12.43.17,3.23.83,6.38,1.55,9.52.51,2.19,1.02,4.39,1.15,6.65.28,4.57-.17,9.08-1.17,13.54-1.08,4.85-2.33,9.66-2.77,14.64-.25,2.76-.27,5.51.13,8.24.85,5.72,3.24,10.72,7.22,14.93,4.69,4.95,10.42,7.68,17.26,8.03,1.08.05,2.15.02,3.22-.05.48-.03.79.14,1.08.53,3.31,4.23,7.17,7.89,11.42,11.15,56.66,37.2,114.81-9.01,118.43-11.75.42-.32.83-.5,1.38-.41,2.35.4,4.71.31,7.07.1,24.04-2.4,30.79-33.74,30.8-33.79,4.48-23.88-8.68-41.91-13.6-48.17-1.04-1.32-2.23-2.51-3.38-3.75Zm-58.31-89.34c2.93-23.99,7.03-29.24,9.44-32.78.51-.75,1.01-1.2,1.89-1,2.75.61,6.31,2.84,9.29,4.5,3.95,2.2,7.64,4.77,11.27,7.46,3.16,2.35,6.25,4.79,9.17,7.43,1.44,1.3,2.75,2.72,4.04,4.16.52.58.52.73.03,1.15-3.48,2.94-6.3,6.43-8.68,10.3-2.25,3.66-4.35,7.4-5.67,11.52-.07.2-.12.41-.19.61-.27.83-.41.91-1.23.5-1.34-.67-2.64-1.43-4-2.08-7.82-3.71-15.86-7.11-23.97-10.13-1.43-.43-1.48-1.12-1.38-1.62Zm-25.59-13.13c1.51,1.92,3.45,3.8,5.86,4.65-1.91,1.41-4.19,1.14-5.5-.21-1.31-1.36-.71-3.04-.36-4.43Zm-31.88,4.31c3.05-2.27,5.87-3.81,9.29-5.46,2.68-1.29,7.31-4.94,8.51-5.07.62-.07-.34,2.58-.43,2.86-1.16,3.64-1.81,5.7-3.07,9.31-.07.2-.16.4-.23.6-.14.38-.38.55-.81.56-3.73.02-7.85.76-7.85.76,0,0,3.53-3.65,4.2-6.69.07-.32-.19-.47-.46-.29-.2.14-.38.33-.55.5-2.15,2.03-4.86,4.27-6.45,5.56-.6.48-1.95,1.29-3.29,1.86-1.33.57-3.25.92-4.87,1.4.31-.58.88-1.26,1.3-1.69,1.57-1.63,2.91-2.85,4.72-4.19Zm-13.37,18.56c.57-1.57,2.72-5.89,2.72-5.89,1.64-5.9,21.17-6.7,21.23-6.7,46.89-2.35,85.98,26.18,85.98,26.18,0,0-.16,5.87-.19,5.85-44.55-22.37-78.58-22.65-78.65-22.65-20.23,0-29.31,4.36-30.1,4.68-.79.32-1.56.11-.99-1.46Zm-38.98,33.01c-.1.34-.19.69-.48,1.01-.37-.41-.29-.89-.22-1.31.65-3.64,2.19-6.84,4.66-9.61,19.89-21.84,56.39-22.22,56.39-22.22,28.69-1.05,56.67,10.1,56.61,10.1,27.94,9.61,44.29,18.68,53.37,25.26,6.5,4.71,9.29,8.35,9.83,9,1.58,1.9,3.42,5.15,3.35,9.22-.03,1.39-.19,2.77-.59,4.11-.06.18-.76,2.54-1.43,2.07-.67-.48-.2-2.36-.24-4.31-.05-2.67-1.55-5.41-3.57-8.04-2.84-3.69-6.35-6.67-10.09-9.42-6.08-4.47-12.67-8.07-19.46-11.3-6.88-3.27-46.69-23.54-88.35-21.4-2.6.13-42.21.72-57.15,21.84-1.11,1.53-2.1,3.15-2.62,5Zm77.6,150.7c-2.93-.12-49.08-2.98-62.61-46.99,0-.02-7.15-23.95,7.8-32.37.02-.05,10.5-6.92,36.41-7.05.14,0-2.13-1.15-3.48-1.43-4.51-.93-9.06-1.14-13.67-.92-6.67.32-13.24,1.31-19.72,2.86-2.43.58-4.82,1.36-7.28,1.81-2.62.48-5.26.61-7.89.12-.71-.13-1.36-.44-1.95-.85-2.19-1.49-2.32-4.36-.24-6.03,1.29-1.03,2.75-1.81,4.22-2.55,3.41-1.71,7-2.89,10.73-3.65,29.39-6.38,65.7,6.11,65.7,6.11,30.5,10.86,31.26,22.3,31.82,32.54.34,4.24,1.28,12.66,1.28,12.7,1.77,16.04,17.79,24.17,17.79,24.17,0,0-26.88,21.54-58.91,21.54Zm-64.64-111.06c.25.13.8-.83,1.05-1.27,1.38-2.47,4.1-3.73,4.92-4,.6-.2,2.09.01,2.59.43.71.6,1.13,1.67,1.89,2.2,1.29.9,2.61,1.26,4.21,1.5.33.05.41.24.38.53,0,.07-.02.14-.04.21-.83,2.77.28,9.74.28,9.74,0,0-3.12.17-4.3.27-3.95.33-7.71,1.5-11.45,2.71-3.07,1-5.99,2.33-8.68,4.15-.12.08-.24.16-.37.22-.6.31-.69.29-.93-.35-1.29-3.33-1.41-6.56.07-9.74,1.16-2.5,2.57-4.79,4.77-6.84,1.35-1.26,3.62-2.76,5.41-3.26.63-.18,1.02.1.59,1.58-.19.64-.62,1.79-.37,1.92Zm66.3-.02c.82.51.86.57.36,1.41-2.19,3.75-4.6,7.33-7.7,10.42-.55.55-1.03.72-1.79.54-6.05-1.44-12.13-2.78-18.28-3.68-5-.73-10.04-1.02-15.1-.58-1.28.11-3.66.22-4.94.4-.75.1-1.76-10.2-1.76-10.2,4.05-1.48,10.39-8.72,10.44-8.72,23.78-.52,35.46,8.35,38.78,10.42Zm-14.95-17.93c.8-.54,3.29-1.81,4.14-2.26,9.72-5.05,17-4.23,16.82-3.91-.98,1.75-2.98,4.87-4.55,6.18-2.46,2.05-5.25,2.92-8.46,2.54-2.07-.25-4.75-.84-6.75-1.43-.38-.11-.75-.23-1.11-.38-.49-.21-.54-.45-.09-.75Zm15.76,25.1c1.28-2.13,2.59-4.26,3.53-6.62.45.22.53.68.66,1.06.9,2.6,1.58,5.27,1.97,7.99.25,1.7.45,3.4.54,5.11.01.25.04.5.05.75.04,1.22-.03,1.27-1.15.9-1.15-.38-2.3-.78-3.45-1.15-1.8-.58-3.62-1.11-5.47-1.49-.28-.06-.56-.12-.85-.39,1.46-2.01,2.9-4.03,4.18-6.16Zm94.65,61.66c-1.77,3.2-10.16,16.63-23.54,15.44-10.92-1.25-24.03-4.87-26.32-30.51,0,0-.38-22.3-24.76-31.44-2.87-1.29-5.75-2.56-8.64-3.81-.65-.28-.87-.65-.91-1.37-.1-2.03-.23-4.06-.53-6.08-.26-1.73-.36-3.48-.71-5.2-.6-2.91-1.24-5.8-2.6-8.48-.64-1.26-1.41-2.4-2.38-3.42-.53-.56-.8-.52-1.16.22-.47.96-.94,1.93-1.39,2.9-.4.84-.5.91-1.26.44-1.5-.92-3.08-1.66-4.67-2.4-1.04-.48-2.08-.94-3.13-1.41-.29-.13-.62-.19-.84-.6.6.04,1.14.06,1.66.23.75.24,1.55.25,2.32.39.26.05.51-.02.65-.26.13-.23-.04-.42-.16-.58-.25-.31-.52-.58-.79-.87-.12-.13-.26-.28-.2-.47.07-.24.29-.31.51-.31.79.02,1.58.01,2.36.08,2.47.22,4.92.23,7.39,0,1.32-.12,2.63-.2,3.94-.42,1.89-.32,3.49-1.25,5.14-2.1,1.76-.91,3.36-2.08,4.78-3.45,2.08-2.01,3.68-4.38,4.64-7.13.49-1.41.67-1.5,1.92-.64,1.73,1.19,3.23,2.6,4.06,4.59.15.37.43.9.9.74.43-.14.43-.7.39-1.14-.18-1.71-.48-3.39-.9-5.06-.98-3.91-2.91-7.28-5.74-10.15-1.57-1.59-3.21-3.07-5.25-4.03-2-.93-4.12-1.44-6.32-1.48-1.82-.03-3.64-.11-5.47.15-3.07.44-5.99,1.35-8.83,2.56-4.63,1.97-8.93,4.53-13.1,7.32-4.46,2.98-8.87,6.05-13.35,9.01-2.72,1.8-5.53,3.44-8.66,4.45-2.14.69-4.34.9-6.57.75-2.29-.16-4.22-2.14-4.64-4.67-.09-.54-.08-1.2-.11-1.67s-.51.03-.68.33c-1.1,1.93-1.4,3.7-.81,5.85.1.38.25.75.33,1.13.11.5-.02.67-.51.71-1.58.15-3.99.27-4.88-.12-.89-.39-1.22-2.24-3.22-3.72-.9-.67-.37-3.8-.69-3.8-.27,0-.88.99-1.27,1.9-.27.63-.68,1.3-1.19,1.28-.86-.03-1.72-.07-2.57.08-3,.56-5.32,2.19-7.15,4.58-.44.57-.83.62-1.24,1.2-.18.26-.27.44-.17.54.2.2.69-.11.91-.3.28-.23.71-.52,1.38-.36.33.08.89.49,1.13.82,1.03,1.39,2.67,1.19,3.66,1.23.23,0,1.3-.09,1.67,0,.52.12.26.49-.31.95-.01.01-1.51,1.19-2.24,2.93-.26.63-.7.93-1.34,1.1-1,.27-7.73,2.24-12.01,10.34-2.1,3.99-2.22,8.42-.42,12.71.19.46.47.88.71,1.32.41.75.41.75-.17,1.37-.75.82-1.46,1.66-1.99,2.65-1.1,2.06-.95,4.07.23,6.02,1.25,2.07,3.01,3.62,5.1,4.79.49.27.64.5.51,1.08-.45,2.06-.66,4.16-1,6.24-.49,2.95-.37,5.92-.4,8.88-.02,2.77.45,5.48.91,8.19.55,3.28,1.25,6.52,2.1,9.74,1.47,5.55,3.41,10.92,6.13,15.99.35.66.78,1.28,1.22,1.99-.78.32-1.45.07-2.05-.16-3.43-1.34-6.63-3.06-9.22-5.74-3.58-3.7-6.61-7.39-7.91-12.39-.66-2.54-.63-5.39-.43-8.01.26-3.35.97-7.02,1.72-10.29.7-3.03.88-6.06,1.28-9.14.43-3.34.22-6.38.07-9.76-.07-1.64-.36-4.98-1.11-7.61-5.53-19.39,10.97-28.09,11.87-28.09s1.54-.14,1.57-.39-1.22-.39-1.68-.36-.5,0-.57-.18c-.07-.18-.15-.67-.15-1,0,0,0,0,0,0,.04-.99-.2-2.23-.99-3.78-1.35-3.26-1.97-3.89-2.81-5.83-2.75-6.32,2.74-8.52,4.38-8.86,4.77-.81,13.44-.95,13.44-.95,0,0,7.76.1,10.94-3.81,0,0,.2-.28.09-.4-.28-.25-.53-.03-.77.09-1.2.57-2.93.91-2.95.92-2.3.58-1.59-1.42-1.59-1.42,1.43-5.93,7.09-10.1,7.15-10.15,10.01-8.51,31.41-8.55,33.74-8.43.58.03,2-.07,2-.07,0,0-4.25,2.96-5.58,3.93-3.6,2.65-6.61,5.7-10.15,8.43-2.56,1.97-4.91,3.38-7.93,4.57-.33.13-.68.2-1.01.34-.17.07-.29.22-.24.46.05.24.19.27.38.29.14.01.29.03.43.01,1.88-.21,3.83-.59,5.59-1.38,2.48-1.11,4.42-2.23,6.57-3.84,3.63-2.73,7.3-5.42,10.89-8.2,2.13-1.65,4.27-3.69,6.58-5.07,2.59-1.54,5.31-2.85,8.36-3.16,1.92-.2,3.86-.21,5.78.04,5.5.72,10.62,3.24,15.47,5.84,3.66,1.96,7.19,4.14,10.71,6.35,1.45.91,2.94,1.78,4.33,2.78.06.04,1.02.67,1.36.31.37-.4-.14-.77-.36-1.09-.55-.79-1.14-1.56-1.72-2.33-.19-.25-.39-.48-.49-.78.23.05.47.08.68.17,3.65,1.56,7.45,2.73,11.14,4.2,2.93,1.17,5.75,2.56,8.52,4.06,2.17,1.18,4.3,2.43,6.43,3.68.79.46,1.42,1.03,1.95,1.79,3.04,4.36,5.5,9.04,7.69,13.87,1.14,2.51,2.23,5.04,2.89,7.72.52,2.12.81,4.27,1.04,6.44.15,1.43.14,2.84.22,4.37-.92-.42-1.5-1.12-2.18-1.67-3.4-2.69-7-5.09-10.76-7.25-3.86-2.21-7.92-3.98-12.17-5.32-2.97-.93-5.99-1.63-9.08-2.07-.93-.13-1.84-.09-2.76-.13-.22-.01-.48.05-.49.31,0,.25.24.32.46.36,2.3.39,4.44,1.32,6.63,2.07,24.6,10.17,40.68,30.1,42.97,33.79,14.66,19.84,4.01,41.14,2.38,44.1Z"></path><path class="cls-1" d="m291.58,118.47c2.1.56,4.16-1.26,4.16-3.68,0-2.37-1.82-4.26-3.79-3.95-1.55.25-2.71,1.71-2.83,3.57-.12,1.93.92,3.65,2.46,4.06Z"></path><path class="cls-1" d="m290.84,128.73c1.68.75,3.44.95,5.25.72,1.13-.14,1.92.23,2.51,1.21,1.04,1.73,2.65,2.65,4.6,3.03,2.84.55,4.32-.7,4.27-4.08-.23-2.72-.93-5.79-2.64-8.56-1.15-1.86-2.79-2.66-5.01-2.26-2.29.41-4.55.91-6.77,1.6-1.51.48-2.76,1.33-3.71,2.61-1.63,2.2-.99,4.6,1.51,5.72Z"></path></svg> 