<?xml version="1.0" encoding="UTF-8"?> <svg xmlns="http://www.w3.org/2000/svg" id="Layer_1" width="599.76" height="400.32" viewBox="0 0 599.76 400.32"><defs><style>.cls-1{fill:#3a357e;}</style></defs><rect class="cls-1" x="205.57" y="159.65" width="1.71" height="81.01"></rect><path class="cls-1" d="m253.43,195.98c0,7.99-6.08,14.36-16.71,14.36h-19.64v-50.85h19.05c9.89,0,15.09,6.01,15.09,12.97,0,4.54-2.12,8.21-6.15,10.7,5.27,2.56,8.35,7.11,8.35,12.82Zm-29.45-30.48v15.09h12.31c4.91,0,7.99-2.64,7.99-7.55s-3.22-7.55-8.28-7.55h-12.02Zm13.11,38.83c5.79,0,9.38-3.96,9.38-8.86s-3.52-8.87-9.16-8.87h-13.34v17.73h13.11Z"></path><path class="cls-1" d="m296.75,210.34l-4.54-11.5h-22.57l-4.62,11.5h-7.33l20.81-50.85h4.98l20.74,50.85h-7.47Zm-24.69-17.51h17.73l-8.87-22.27-8.87,22.27Z"></path><path class="cls-1" d="m344.23,159.49h6.89v50.85h-4.84l-28.28-37.81v37.81h-6.89v-50.85h4.84l28.28,37.59v-37.59Z"></path><path class="cls-1" d="m400.22,210.34h-9.16l-24.55-25.35v25.35h-6.89v-50.85h6.89v23.23l24.03-23.23h8.94l-25.2,24.25,25.94,26.6Z"></path><path class="cls-1" d="m404.18,210.34v-50.85h6.89v50.85h-6.89Z"></path><path class="cls-1" d="m454.52,159.49h6.89v50.85h-4.84l-28.28-37.81v37.81h-6.89v-50.85h4.84l28.28,37.59v-37.59Z"></path><path class="cls-1" d="m494.97,183.23h24.91v1.03c0,17.66-10.11,26.82-24.4,26.82s-25.57-11.58-25.57-26.23,11.21-26.08,26.01-26.08c8.13,0,15.24,3.3,19.78,9.08l-4.76,4.76c-3.22-4.69-8.79-7.25-15.02-7.25-11.21,0-18.9,8.06-18.9,19.49s7.77,19.56,18.32,19.56c9.75,0,16.12-5.2,17.29-14.87h-17.66v-6.3Z"></path><path class="cls-1" d="m220.54,238.04h13.48v3.15h-16.93v-25.43h16.74v3.15h-13.3v7.77h12.27v3h-12.27v8.35Z"></path><path class="cls-1" d="m259.3,241.2h-4.03l-7.4-10.77-7.8,10.77h-3.88l9.49-13.01-9.05-12.42h4.1l7.22,10,7.07-10h3.88l-8.76,12.24,9.16,13.19Z"></path><path class="cls-1" d="m260,228.48c0-7.29,5.42-13.08,12.79-13.08,3.99,0,6.96,1.47,9.3,3.81l-2.38,2.38c-1.65-1.79-3.99-2.89-6.92-2.89-5.39,0-9.23,4.1-9.23,9.78s3.88,9.78,9.23,9.78c3.19,0,5.46-1.14,7.11-2.93l2.38,2.34c-2.31,2.42-5.46,3.88-9.45,3.88-7.36,0-12.82-5.79-12.82-13.08Z"></path><path class="cls-1" d="m302.28,215.77h3.44v25.43h-3.44v-11.58h-12.97v11.58h-3.44v-25.43h3.44v10.7h12.97v-10.7Z"></path><path class="cls-1" d="m328.77,241.2l-2.27-5.75h-11.28l-2.31,5.75h-3.66l10.4-25.43h2.49l10.37,25.43h-3.74Zm-12.35-8.76h8.87l-4.43-11.14-4.43,11.14Z"></path><path class="cls-1" d="m352.26,215.77h3.44v25.43h-2.42l-14.14-18.9v18.9h-3.44v-25.43h2.42l14.14,18.79v-18.79Z"></path><path class="cls-1" d="m372.33,227.64h12.46v.51c0,8.83-5.05,13.41-12.2,13.41s-12.79-5.79-12.79-13.11,5.61-13.04,13.01-13.04c4.07,0,7.62,1.65,9.89,4.54l-2.38,2.38c-1.61-2.34-4.4-3.63-7.51-3.63-5.6,0-9.45,4.03-9.45,9.74s3.88,9.78,9.16,9.78c4.87,0,8.06-2.6,8.64-7.44h-8.83v-3.15Z"></path><path class="cls-1" d="m392.23,238.04h13.48v3.15h-16.92v-25.43h16.74v3.15h-13.3v7.77h12.27v3h-12.27v8.35Z"></path><path class="cls-1" d="m116.7,159.68h-.21c.07,0,.14,0,.21,0h0Z"></path><polygon class="cls-1" points="195.41 159.77 144.03 159.77 144.03 240.7 195.94 240.7 195.94 221.35 164.62 221.35 164.62 209.37 192.4 209.37 192.4 190.47 164.62 190.47 164.62 179.12 195.41 179.12 195.41 159.77"></polygon><rect class="cls-1" x="79.88" y="159.77" width="18.28" height="80.93"></rect><path class="cls-1" d="m131.13,198.37c4.39-4.03,7.17-9.98,7.17-16.63,0-12.06-9.13-21.84-20.44-21.96-.07,0-.14,0-.21,0h-16.39v18.1h10.68v.02c3.3.21,5.92,2.94,5.92,6.3s-2.62,6.09-5.92,6.3v.02h-10.68v17.53h12.77v.02c3.57.22,6.4,3.18,6.4,6.81s-2.83,6.59-6.4,6.81v.02h-12.77v18.99h17.71c12.13,0,21.97-10.34,21.97-23.1,0-8.03-3.9-15.09-9.81-19.23Z"></path></svg> 