<?xml version="1.0" encoding="UTF-8"?> <svg xmlns="http://www.w3.org/2000/svg" xmlns:xlink="http://www.w3.org/1999/xlink" id="Layer_1" width="100" height="61.41" viewBox="0 0 100 61.41"><defs><style>.cls-1{mask:url(#mask-1);}.cls-1,.cls-2{fill:none;}.cls-2{mask:url(#mask);}.cls-3{fill:#39367f;}.cls-3,.cls-4{fill-rule:evenodd;}.cls-4{fill:#fff;}</style><mask id="mask" x=".02" y="25.97" width="71.08" height="34.92" maskUnits="userSpaceOnUse"><g id="mask-8"><polygon id="path-7" class="cls-4" points=".02 25.97 71.11 25.97 71.11 60.89 .02 60.89 .02 25.97"></polygon></g></mask><mask id="mask-1" x="0" y="25.97" width="71.11" height="34.92" maskUnits="userSpaceOnUse"><g id="mask-8-2"><polygon id="path-7-2" class="cls-4" points=".02 25.97 71.11 25.97 71.11 60.89 .02 60.89 .02 25.97"></polygon></g></mask></defs><g id="Hilton-hotels-resorts-66x50-Copy"><g id="HHR_logo_masterbrand_color_rgb_104C97"><path id="Fill-21" class="cls-3" d="m48.84,0c-11.21,0-19.47,7.14-19.47,14.77,0,3.94,2.22,7.26,5.01,9.56l.21-.14c-2.21-1.83-4.21-4.71-4.21-8.64.58-8.35,10.86-13.05,19.99-13.05,6.46,0,18.07,1.5,18.07,12.32,0,5.65-6.02,12.99-18.67,12.99-6.48,0-11.51-3.47-11.51-8.47,0-4.32,3.38-7.4,8.42-7.4,1.39,0,2.69.32,3.68.6-2.1-.38-5.36.16-7.05,1.49v7.31h6.19v-8.31c1.17.21,2.07.65,2.7,1.04v7.27h1.61c-1.27,1.43-3.63,2.29-5.68,1.97v.31c5.88.46,8.37-2.33,8.37-5.48,0-3.7-3.47-5.87-7.01-6.32v-5.46h-6.19v5.53c-4.01.81-7.93,3.19-7.93,7.15,0,6.08,8.48,9.85,15.87,9.85,11.22,0,19.85-5.43,19.85-13.06,0-9.23-12.46-15.82-22.26-15.82m8.53,18.35c0-2.69-1.83-4.84-5.17-5.88v-6.12h6.18v14.98h-1.93c.68-.96.92-2.05.92-2.98"></path><g id="Group-25"><g class="cls-2"><path id="Fill-22" class="cls-3" d="m69.7,27.19c.24,0,.3-.11.3-.23s-.06-.18-.26-.18h-.3v.42h.27Zm-.27.25v.71h-.25v-1.63h.52c.3,0,.61.08.61.45,0,.19-.12.34-.33.38h0c.22.05.25.15.28.33.02.16.04.33.1.47h-.32c-.02-.09-.04-.2-.06-.29-.02-.14-.02-.27-.09-.35-.06-.07-.14-.06-.23-.07h-.22Zm1.43-.09c0-.63-.51-1.14-1.14-1.14s-1.14.51-1.14,1.14.51,1.15,1.14,1.15,1.14-.51,1.14-1.15h0Zm-2.53,0c0-.76.62-1.38,1.39-1.38s1.38.62,1.38,1.38-.62,1.39-1.38,1.39-1.39-.62-1.39-1.39h0Z"></path></g><g class="cls-1"><polyline id="Fill-24" class="cls-3" points="21.87 37.85 21.87 59.4 23.53 59.63 23.53 60.89 15.27 60.89 15.27 59.63 17.05 59.4 17.05 49.6 6.49 49.6 6.49 59.4 8.12 59.63 8.12 60.89 0 60.89 0 59.63 1.63 59.4 1.63 37.85 0 37.63 0 36.4 8.12 36.4 8.12 37.63 6.49 37.85 6.49 47.07 17.05 47.07 17.05 37.85 15.27 37.63 15.27 36.4 23.53 36.4 23.53 37.63 21.87 37.85"></polyline></g></g><path id="Fill-26" class="cls-3" d="m33.38,37.96c0,1.63-1.11,2.86-2.63,2.86s-2.63-1.11-2.63-2.75,1.07-2.79,2.63-2.79,2.63,1.23,2.63,2.68Zm-.56,21.59l1.56.22v1.11h-7.6v-1.11l1.56-.22v-14.75l-1.56-.22v-1.12h6.04v16.09h0Z"></path><polyline id="Fill-27" class="cls-3" points="37.69 59.77 39.2 59.55 39.2 37 37.69 36.77 37.69 35.66 43.73 35.66 43.73 59.55 45.28 59.77 45.28 60.89 37.69 60.89 37.69 59.77"></polyline><path id="Fill-28" class="cls-3" d="m54.51,43.46h4.08v1.64h-4.08v10.37c0,2.67.56,3.53,2.97,3.53.89,0,1.67,0,2.41-.19v1.19c-2.19.78-4.04,1.11-5.6,1.11-3.48,0-4.3-1.6-4.3-4.64v-11.37h-3.19v-1.64h3.3v-3.64l4.41-1.34v4.98"></path><path id="Fill-29" class="cls-3" d="m73.96,52.23c0-5.5-1.63-7.91-4.26-7.91s-4.19,2.31-4.19,7.91,1.63,7.84,4.19,7.84c2.74,0,4.26-2.19,4.26-7.84Zm4.97.11c0,5.42-3.63,9.06-9.34,9.06s-9.04-2.38-9.04-9.06c0-5.61,3.63-9.36,9.34-9.36s9.04,3.38,9.04,9.36h0Z"></path><path id="Fill-30" class="cls-3" d="m100,59.77v1.11h-7.6v-1.11l1.52-.22v-9.92c0-2.75-1-3.98-3.08-3.98-.96,0-2.48.67-3.59,1.45v12.44l1.56.22v1.11h-7.64v-1.11l1.56-.22v-14.64l-1.56-.22v-1.23h6.08v2.42c1.89-1.52,3.71-2.75,6.26-2.75,3.41,0,4.93,2.01,4.93,5.95v10.47l1.56.22"></path></g></g></svg> 