<?xml version="1.0" encoding="UTF-8"?> <svg xmlns="http://www.w3.org/2000/svg" id="Layer_2" width="100" height="120.4" viewBox="0 0 100 120.4"><defs><style>.cls-1{fill:#f68b21;}.cls-2{fill:#d02028;}</style></defs><polygon class="cls-1" points="52.72 99.29 85.52 99.29 73.68 36.01 52.72 99.29"></polygon><polygon class="cls-1" points="72.12 0 50.3 0 50.3 72.09 50.31 72.12 72.12 0"></polygon><polygon class="cls-1" points="78.47 0 98.42 99.29 99.58 99.29 99.58 0 78.47 0"></polygon><polygon class="cls-2" points="26.6 0 50.3 72.09 50.3 0 26.6 0"></polygon><polygon class="cls-2" points="14.88 99.29 48.02 99.29 26.3 35.8 14.88 99.29"></polygon><polygon class="cls-2" points=".93 0 .93 99.29 1.95 99.29 20.42 0 .93 0"></polygon><path d="m17.05,120.17h-2.87l-1.74-9-3.36,9.22h-1.06l-3.36-9.22-1.8,9H0l3.36-16.71h1.57l3.61,11.25,3.53-11.25h1.56l3.41,16.71Z"></path><path d="m28.59,114.93h-8.72c.05.97.39,1.73,1,2.27s1.44.81,2.48.81c1.3,0,2.29-.34,2.96-1.01l1.11,2.18c-1,.81-2.5,1.22-4.49,1.22-1.86,0-3.33-.55-4.42-1.64s-1.63-2.61-1.63-4.57.59-3.48,1.78-4.68,2.62-1.79,4.28-1.79c1.77,0,3.19.53,4.27,1.59s1.61,2.4,1.61,4.04c0,.35-.07.87-.24,1.58Zm-8.62-2.14h6c-.2-1.79-1.19-2.68-2.96-2.68-1.63,0-2.63.89-3.03,2.68Z"></path><path d="m38.08,120.16v-.74c-.24.26-.63.48-1.2.68s-1.14.29-1.75.29c-1.7,0-3.04-.54-4.02-1.62-.97-1.08-1.46-2.58-1.46-4.51s.56-3.5,1.68-4.72c1.12-1.21,2.52-1.82,4.21-1.82.93,0,1.77.19,2.53.57v-4.89l2.85-.69v17.44h-2.85Zm0-9.29c-.61-.48-1.25-.73-1.9-.73-1.14,0-2.02.35-2.63,1.04-.62.7-.92,1.69-.92,2.99,0,2.54,1.22,3.8,3.67,3.8.27,0,.61-.08,1.01-.25.4-.16.66-.33.78-.5v-6.36Z"></path><path d="m43.49,120.16v-9.87h-1.56v-2.33h4.44v12.21h-2.88Zm1.47-16.94c.46,0,.85.16,1.17.48s.48.71.48,1.17-.16.85-.48,1.17-.71.48-1.17.48-.85-.16-1.17-.48-.48-.71-.48-1.17.16-.85.48-1.17c.33-.32.71-.48,1.17-.48Z"></path><path d="m55.44,118.94c-.26.43-.71.77-1.35,1.04-.64.27-1.31.4-2.01.4-1.31,0-2.35-.33-3.1-.99s-1.13-1.59-1.13-2.8c0-1.41.53-2.52,1.59-3.31s2.57-1.2,4.52-1.2c.33,0,.73.06,1.19.17,0-1.44-.91-2.16-2.73-2.16-1.07,0-1.97.18-2.69.54l-.62-2.21c.98-.47,2.14-.71,3.5-.71,1.86,0,3.23.42,4.09,1.27s1.3,2.45,1.3,4.81v2.61c0,1.63.33,2.65.98,3.07-.24.41-.5.66-.78.76s-.62.14-.99.14c-.41,0-.78-.15-1.11-.46-.32-.3-.54-.63-.66-.99Zm-.27-4.53c-.48-.1-.85-.15-1.1-.15-2.25,0-3.37.74-3.37,2.21,0,1.1.63,1.64,1.9,1.64,1.71,0,2.57-.85,2.57-2.57v-1.14Z"></path><path d="m63.16,114.02v6.15h-2.96v-16.69c1.98-.08,3.13-.13,3.46-.13,2.63,0,4.57.4,5.78,1.22,1.22.81,1.83,2.08,1.83,3.79,0,3.83-2.26,5.75-6.77,5.75-.33,0-.78-.03-1.34-.08Zm0-7.98v5.34c.5.05.9.08,1.19.08,1.35,0,2.34-.22,2.96-.68.62-.45.93-1.19.93-2.21,0-1.74-1.4-2.6-4.19-2.6-.31,0-.61.02-.9.06Z"></path><path d="m70.79,114.03c0-1.86.54-3.38,1.61-4.55,1.07-1.17,2.5-1.76,4.25-1.76,1.86,0,3.29.56,4.32,1.69s1.54,2.66,1.54,4.62-.52,3.49-1.57,4.64-2.47,1.72-4.29,1.72-3.3-.58-4.32-1.74c-1.03-1.16-1.54-2.7-1.54-4.62Zm2.96,0c0,2.69.97,4.04,2.91,4.04.89,0,1.6-.35,2.12-1.05s.78-1.69.78-2.99c0-2.65-.96-3.98-2.89-3.98-.89,0-1.6.35-2.12,1.05-.52.7-.78,1.67-.78,2.93Z"></path><path d="m83.13,119.38l1.01-2.27c.85.67,1.81,1.01,2.88,1.01s1.67-.4,1.67-1.19c0-.46-.17-.84-.5-1.14-.33-.29-.99-.65-1.95-1.05-2.1-.88-3.16-2.1-3.16-3.67,0-1.05.4-1.88,1.21-2.47.81-.59,1.83-.88,3.09-.88s2.46.28,3.58.85l-.82,2.21c-.62-.53-1.49-.8-2.6-.8-1,0-1.49.4-1.49,1.19,0,.31.16.59.49.84.33.25,1.03.59,2.1,1.01s1.84.93,2.31,1.53c.47.6.71,1.33.71,2.18,0,1.13-.42,2.02-1.26,2.67-.84.65-1.98.97-3.42.97-.81,0-1.46-.07-1.95-.2-.5-.13-1.13-.4-1.9-.81Z"></path><path d="m93.39,110.24h-1.41v-2.29h1.41v-2.48l2.85-1.05v3.53h3.35v2.29h-3.35v5.34c0,.88.14,1.49.41,1.85.27.36.75.54,1.44.54s1.32-.18,1.91-.56v2.62c-.66.23-1.6.34-2.82.34s-2.15-.35-2.8-1.03c-.65-.69-.98-1.67-.98-2.93v-6.17h0Z"></path></svg> 