<?xml version="1.0" encoding="UTF-8"?> <svg xmlns="http://www.w3.org/2000/svg" id="Layer_1" width="599.76" height="400.32" viewBox="0 0 599.76 400.32"><defs><style>.cls-1{fill:#3a357e;}</style></defs><path class="cls-1" d="m500.56,160.06H99.2c-13.41,0-24.32,10.52-24.32,23.44v33.31c0,12.92,10.92,23.44,24.32,23.44h401.36c13.41,0,24.32-10.52,24.32-23.44v-33.31c0-12.92-10.92-23.44-24.32-23.44Zm20.71,56.75c0,11-9.31,19.99-20.71,19.99H99.2c-11.48-.08-20.79-8.99-20.79-19.99v-33.31c0-11,9.31-19.99,20.79-19.99h401.36c11.4,0,20.71,8.91,20.71,19.99v33.31Z"></path><path class="cls-1" d="m156.6,172.43c-15.25.24-27.45,12.76-27.21,28.01.24,15.25,12.76,27.45,28.01,27.21,15.09-.24,27.21-12.52,27.21-27.61-.08-15.33-12.68-27.69-28.01-27.61h0Zm4.82,38.85c-.08,2.73-2.41,4.82-5.14,4.74-2.57-.08-4.66-2.25-4.74-4.82v-23.2c0-2.73,2.17-4.98,4.9-5.06,2.73.08,4.98,2.33,5.06,5.06l-.08,23.28Z"></path><polygon class="cls-1" points="225.79 172.43 208.21 172.43 201.63 183.74 194.81 172.43 177.23 172.43 192.96 198.76 176.58 227.01 193.84 227.01 201.71 213.53 209.82 227.01 227.48 227.01 210.46 198.59 225.79 172.43"></polygon><polygon class="cls-1" points="110.2 187.28 129.3 187.28 128.26 172.35 94.06 172.35 94.06 227.09 110.04 227.09 110.04 209.35 125.77 209.35 125.77 194.42 110.2 194.42 110.2 187.28"></polygon><path class="cls-1" d="m500.56,160.06H99.2c-13.41,0-24.32,10.52-24.32,23.44v33.31c0,12.92,10.92,23.44,24.32,23.44h401.36c13.41,0,24.32-10.52,24.32-23.44v-33.31c0-12.92-10.92-23.44-24.32-23.44Zm20.71,56.75c0,11-9.31,19.99-20.71,19.99H99.2c-11.48-.08-20.79-8.99-20.79-19.99v-33.31c0-11,9.31-19.99,20.79-19.99h401.36c11.4,0,20.71,8.91,20.71,19.99v33.31Zm-364.67-44.39c-15.25.24-27.45,12.76-27.21,28.01.24,15.25,12.76,27.45,28.01,27.21,15.09-.24,27.21-12.52,27.21-27.61-.08-15.33-12.68-27.69-28.01-27.61h0Zm4.82,38.85c-.08,2.73-2.41,4.82-5.14,4.74-2.57-.08-4.66-2.25-4.74-4.82v-23.2c0-2.73,2.17-4.98,4.9-5.06,2.73.08,4.98,2.33,5.06,5.06l-.08,23.28Zm49.05-12.68l17.02,28.42h-17.66l-8.03-13.49-7.87,13.49h-17.26l16.3-28.26-15.73-26.41h17.58l6.82,11.4,6.58-11.4h17.58l-15.33,26.25Zm-100.26-4.17h15.57v14.93h-15.73v17.74h-15.97v-54.74h34.2l1.04,15.01h-19.1v7.06Z"></path><path class="cls-1" d="m483.46,185.91h-.48v11.96h.88c1.53,0,2.97-.64,3.93-1.77,1.04-1.28,1.61-2.89,1.53-4.58,0-3.77-1.93-5.62-5.86-5.62Z"></path><polygon class="cls-1" points="352.54 207.67 358.24 207.67 355.67 186.63 352.54 207.67"></polygon><path class="cls-1" d="m497.99,166.57H237.43v67.43h260.56c11,0,19.99-7.3,19.99-18.3v-30.82c-.08-10.92-9.07-18.3-19.99-18.3Zm-203.25,58.12h-13.08l-5.06-31.39-4.01,31.39h-13.16l-11.16-50.09h13.41l4.41,31.31,4.74-31.31h11.64l5.06,31.95,4.17-31.95h13.24l-10.19,50.09Zm38.21-38.29h-11.64v7.3h10.44v11.32h-10.44v7.71h11.64v12.04h-25.12v-50.17h25.12v11.8Zm27.93,38.29l-1.04-6.34h-9.15l-1.12,6.34h-13.97l12.04-50.09h16.62l10.6,50.09h-13.97Zm38.93-38.05h-7.79v38.13h-13.57v-38.13h-7.38v-12.04h28.74v12.04Zm37.09,38.13h-13.49v-20.15h-6.42v20.07h-13.57v-50.09h13.57v17.74h6.42l-.08-17.74h13.57v50.17Zm28.82-38.37h-11.64v7.3h10.44v11.32h-10.44v7.71h11.64v12.04h-25.12v-50.17h25.12v11.8Zm24.72,38.29l-7.63-20.79.08,3.29v17.5h-13.49v-50.09h13.89c6.1,0,10.68,1.2,13.73,3.61,3.85,3.05,5.78,7.47,5.78,13.08,0,6.02-2.57,10.27-7.79,12.52l10.03,20.87h-14.61Z"></path></svg> 