<?xml version="1.0" encoding="UTF-8"?> <svg xmlns="http://www.w3.org/2000/svg" id="Layer_1_copy" width="600" height="400" viewBox="0 0 600 400"><defs><style>.cls-1{fill:#016bd4;}.cls-2{fill:#fff;}.cls-3{fill:#bde1ff;}.cls-4{fill:#241f21;}.cls-5{fill:#1d81ef;}.cls-6{fill:#1c7ff2;}</style></defs><path class="cls-4" d="m164.8,185.5c-1.09,1.87-2.09,3.56-3.06,5.25-3.11,5.38-6.21,10.76-9.31,16.14-1.01,1.76-2.03,3.51-3.05,5.26-.18.31-.39.63-.62.9-.47.54-.89.55-1.31-.03-.54-.75-1-1.57-1.47-2.37-2.91-5-5.81-9.99-8.71-15-1.91-3.31-3.81-6.62-5.72-9.93-.03-.05-.09-.09-.18-.17-.04.07-.12.15-.11.22.05,1.13.15,2.25.15,3.38,0,11.66,0,23.32,0,34.98,0,1.17-.6,1.76-1.79,1.77-1.4,0-2.8,0-4.2,0-.86,0-.98-.15-1.02-.98-.01-.23,0-.46,0-.7v-49.33c0-1.08.53-1.62,1.58-1.62,1.73,0,3.47.02,5.2,0,.73,0,1.13.28,1.49.91,2.52,4.38,5.08,8.73,7.61,13.1,2.42,4.17,4.81,8.35,7.22,12.52.16.28.36.54.63.94.5-.87.93-1.6,1.35-2.33,2.2-3.8,4.39-7.59,6.58-11.39,2.21-3.83,4.4-7.66,6.6-11.49.28-.49.57-.97.84-1.47.26-.48.62-.76,1.19-.76,2.07,0,4.13,0,6.2,0,.72,0,.85.17.89.9.02.26,0,.53,0,.8v49.23c0,1.13-.57,1.7-1.71,1.7-1.4,0-2.8,0-4.2,0-.97,0-1.07-.13-1.1-1.11v-39.29l.03-.03Z"></path><path class="cls-6" d="m460.62,198.44c.19.21.28.35.4.45,1,.77,2.04,1.49,2.99,2.32.57.5,1.04,1.13,1.45,1.76,1.45,2.29,2.25,4.77,2.31,7.51.05,2.72-.41,5.3-1.76,7.67-.55.97-1.26,1.87-1.96,2.75-2.02,2.52-4.71,3.96-7.82,4.65-.9.2-1.84.33-2.77.33-6.96.03-13.93,0-20.89.02h-.1c-1.25,0-1.32-.08-1.33-1.28v-49.81c0-1.15.56-1.72,1.68-1.73,5.93,0,11.86-.02,17.79,0,4.47.02,8.33,1.51,11.45,4.79,1.86,1.95,2.82,4.31,3.36,6.89.67,3.27.27,6.43-1.28,9.38-.55,1.04-1.38,1.94-2.13,2.87-.41.51-.91.94-1.39,1.44h0Zm-22.47,12.31v7.27c0,.97.12,1.09,1.1,1.09,4.53,0,9.05.09,13.58-.03,3.15-.08,5.59-1.52,7.05-4.42.7-1.38.88-2.82.86-4.34-.05-4.36-3.46-7.89-7.82-7.93-4.53-.05-9.05,0-13.58,0-1.1,0-1.19.1-1.2,1.2v7.17h.01Zm0-23.02v2.09c0,1.59-.01,3.19,0,4.78,0,.82.08.9.9,1.01.69.09,1.39.17,2.09.17,2.97.02,5.93.03,8.9,0,.86,0,1.73-.08,2.58-.24,1.61-.31,3.06-1.02,4.12-2.28,1.77-2.11,2.37-4.53,1.8-7.27-.65-3.13-3.8-6.1-7.37-5.97-3.93.14-7.86.03-11.79.04-1.11,0-1.21.1-1.21,1.19v6.48h-.02Z"></path><path class="cls-6" d="m570.04,190.06c-.18.43-.29.65-.36.88-2.1,7.35-4.19,14.69-6.28,22.04-1.12,3.93-2.23,7.86-3.35,11.79-.32,1.1-.36,1.12-1.53,1.12h-4.6c-1.22,0-1.31-.06-1.66-1.26-.58-2.01-1.12-4.03-1.68-6.05-.61-2.21-1.23-4.41-1.83-6.62-1.24-4.51-2.48-9.03-3.73-13.54-1.3-4.71-2.61-9.41-3.91-14.11-.32-1.15-.63-2.31-.94-3.46-.06-.25-.07-.51-.12-.88.34-.05.62-.12.9-.12,1.47,0,2.93,0,4.4,0,1.03,0,1.12.08,1.38,1.06.95,3.6,1.9,7.19,2.86,10.79,1.74,6.51,3.5,13.02,5.24,19.53.45,1.7.87,3.41,1.31,5.12.04.15.1.29.31.45.27-.97.55-1.94.82-2.91,1.77-6.2,3.54-12.39,5.3-18.59,1.32-4.67,2.62-9.34,3.93-14.01.05-.19.1-.39.16-.58.25-.72.39-.85,1.15-.86,1.5-.02,3-.02,4.5,0,.73,0,.85.12,1.05.82.98,3.42,1.96,6.83,2.93,10.25,1.54,5.43,3.08,10.86,4.61,16.3.85,3.04,1.68,6.08,2.52,9.12.04.16.1.31.17.51.12-.09.23-.13.24-.19,1.2-4.53,2.39-9.06,3.6-13.58,1.65-6.16,3.32-12.31,4.97-18.47.33-1.22.61-2.45.93-3.67.26-.97.39-1.08,1.37-1.09,1.47,0,2.93-.02,4.4,0,.95,0,1.03.18.78,1.08-.82,2.91-1.62,5.82-2.43,8.73-1.4,5.06-2.8,10.11-4.19,15.17-1.36,4.93-2.72,9.86-4.08,14.79-.49,1.79-.99,3.59-1.5,5.37-.23.79-.34.88-1.2.89-1.7,0-3.4,0-5.1,0-.97,0-1.06-.08-1.32-1-1.45-5.04-2.9-10.09-4.35-15.13-1.56-5.43-3.12-10.85-4.67-16.28-.26-.89-.48-1.8-.72-2.69-.05-.18-.13-.34-.27-.73h-.01Z"></path><path class="cls-4" d="m399.42,193.27c-.15-.19-.29-.33-.39-.49-1.56-2.62-3.8-4.49-6.45-5.94-1.76-.96-3.68-1.41-5.64-1.57-3.02-.25-5.98.04-8.8,1.31-1.41.64-2.72,1.44-3.86,2.45-3.63,3.21-5.59,7.23-5.97,12.09-.19,2.42-.01,4.77.62,7.09.73,2.66,2.01,5.01,3.98,7.02,2,2.05,4.27,3.6,7.01,4.42,2.57.78,5.21,1.13,7.89.69,1.28-.21,2.57-.41,3.8-.79,3-.92,5.38-2.75,7.22-5.25,1.01-1.37,1.63-2.96,2.05-4.62.06-.24.03-.51.05-.87-.45-.03-.84-.07-1.23-.07h-13.29c-1.44,0-1.47-.03-1.47-1.44,0-1.13-.02-2.26,0-3.39.02-.8.15-.92.93-.96.2,0,.4,0,.6,0h19.29c1.57,0,1.56,0,1.58,1.54.04,3.63-.58,7.13-1.97,10.49-.61,1.46-1.5,2.73-2.45,3.97-1.45,1.89-3.16,3.49-5.24,4.69-2.54,1.46-5.27,2.42-8.16,2.81-4.74.65-9.34.21-13.78-1.74-5.95-2.61-9.74-7.13-12.02-13.04-1.34-3.46-1.83-7.09-1.52-10.76.39-4.61,1.87-8.86,4.59-12.68,1.61-2.26,3.53-4.14,5.85-5.63,3.28-2.11,6.89-3.23,10.78-3.59,2.83-.26,5.58.06,8.29.82,3.33.93,6.24,2.62,8.76,4.99,1.44,1.35,2.69,2.85,3.69,4.55.47.8.46.83-.32,1.32-1.24.77-2.5,1.53-3.75,2.29-.19.11-.41.18-.65.28h-.02Z"></path><path class="cls-4" d="m223.34,202.88c-.04,3.96-1.05,7.65-2.74,11.16-1.12,2.32-2.62,4.42-4.47,6.2-3.44,3.3-7.51,5.49-12.27,6.23-3.78.59-7.53.31-11.13-.98-5.6-2.01-9.75-5.7-12.55-10.95-1.46-2.74-2.3-5.65-2.74-8.7-.49-3.44-.08-6.82.89-10.13,1.18-4.03,3.22-7.6,6.24-10.51,3.28-3.17,7.2-5.22,11.76-5.94,1.21-.19,2.45-.42,3.67-.38,2.76.09,5.5.44,8.12,1.43,3.6,1.37,6.67,3.51,9.17,6.37,2.85,3.26,4.66,7.11,5.48,11.36.31,1.59.39,3.22.58,4.83h0Zm-6.39-.46c0-.54.11-1.42-.02-2.27-.87-6-4.03-10.48-9.38-13.31-3.92-2.07-8.15-2.1-12.35-.95-2.68.73-4.94,2.24-6.87,4.26-2.32,2.43-3.74,5.31-4.52,8.52-.57,2.38-.53,4.8-.2,7.22.68,5.09,3.36,8.93,7.46,11.86,2.1,1.5,4.48,2.28,7.04,2.6,4.03.51,7.74-.35,11.13-2.56,2.53-1.65,4.49-3.81,5.87-6.51,1.38-2.69,2.04-5.53,1.83-8.87h.01Z"></path><path class="cls-4" d="m272.78,192.14v32.11c0,1.09-.55,1.64-1.66,1.65-1.17,0-2.33,0-3.5,0-.9,0-1.01-.15-1.04-1.06v-43.34c0-1.11.55-1.66,1.65-1.66.77,0,1.53.03,2.3,0,.71-.04,1.17.25,1.56.84,2.11,3.23,4.25,6.44,6.38,9.65,2.71,4.07,5.43,8.12,8.13,12.19,2.2,3.32,4.38,6.66,6.58,9.99.17.26.39.49.59.74.07-.02.14-.04.21-.06v-31.64c0-1.13.57-1.7,1.71-1.7s2.33,0,3.5,0c.84.02.96.16.99,1.01v43.34c0,1.14-.57,1.71-1.7,1.71-.77,0-1.53-.03-2.3,0-.71.03-1.19-.24-1.57-.84-1.11-1.74-2.25-3.45-3.39-5.17-1.89-2.85-3.81-5.69-5.69-8.55-4.12-6.24-8.24-12.48-12.35-18.72-.09-.13-.2-.25-.39-.49h0Z"></path><path class="cls-4" d="m328.86,192.2c-.03.27-.07.43-.06.58.05,1.16.15,2.32.15,3.48.01,9.33,0,18.67,0,28,0,1.09-.56,1.64-1.67,1.64-1.17,0-2.33,0-3.5,0-.9,0-1.01-.14-1.04-1.06-.01-.43,0-.86,0-1.3v-42.45c.01-1.14.1-1.23,1.26-1.24.93,0,1.87,0,2.8,0,.55,0,.95.19,1.25.66,2.22,3.36,4.44,6.71,6.67,10.06,1.93,2.91,3.88,5.81,5.81,8.72,2.83,4.26,5.66,8.53,8.49,12.8.3.45.6.91.89,1.37.07-.02.14-.04.21-.06v-31.85c0-1.12.57-1.68,1.72-1.69,1.1,0,2.2,0,3.3,0,.84.02.96.16,1,1v43.35c0,1.13-.57,1.7-1.7,1.71-.53,0-1.07-.05-1.6,0-1.12.14-1.84-.28-2.44-1.26-1.49-2.4-3.08-4.74-4.65-7.09-3.55-5.35-7.11-10.69-10.65-16.03-2-3.02-3.98-6.05-5.97-9.08-.03-.05-.1-.08-.29-.24l.02-.03Z"></path><path class="cls-6" d="m495.82,207.59c3.43,6.06,6.82,12.03,10.27,18.12-.39.08-.63.17-.87.17-1.67,0-3.33,0-5,0-.68,0-1.1-.27-1.43-.86-2.45-4.38-4.95-8.72-7.36-13.12-1.34-2.44-3.31-3.63-6.08-3.57-1.53.03-3.07,0-4.6,0-1.38,0-1.42.04-1.42,1.39v14.45c0,1.13-.57,1.7-1.7,1.71-1.17,0-2.33,0-3.5,0-.84,0-.96-.16-1-1v-43.34c0-1.13.57-1.7,1.71-1.7,5.33,0,10.66.04,15.99-.02,3.33-.04,6.19,1.12,8.73,3.16,3.23,2.6,4.89,6.01,5.19,10.14.25,3.42-.58,6.51-2.54,9.3-1.5,2.13-3.38,3.83-5.81,4.87-.15.06-.29.15-.58.3h0Zm-16.49-13.4v6.87c0,.27,0,.53.02.8.02.44.26.66.7.68.23,0,.47.02.7.02h10c2.89,0,5-1.39,6.54-3.74,2.21-3.37,1.44-8.54-1.38-10.97-1.43-1.23-2.99-1.99-4.86-2.02-3.5-.04-7-.02-10.5,0-1.11,0-1.21.09-1.21,1.19v7.17h-.01Z"></path><path class="cls-4" d="m251.68,207.64c3.41,6.01,6.79,11.97,10.22,18.03-.29.09-.5.21-.7.21-1.73.02-3.47,0-5.2.02-.56,0-.92-.23-1.19-.73-2.23-4.01-4.47-8.01-6.72-11.99-.47-.84-1.02-1.63-1.56-2.43-1.1-1.61-2.68-2.35-4.59-2.38-1.9-.03-3.8-.02-5.7,0-.91,0-1.03.13-1.04,1.05,0,2.56,0,5.11,0,7.67v7.47c0,1.27-.07,1.33-1.38,1.33h-3.4c-1.4,0-1.43-.03-1.43-1.48v-42.85c0-1.16.59-1.74,1.77-1.74h16.59c2.92,0,5.46,1.11,7.74,2.82,3,2.23,4.7,5.31,5.37,8.93.78,4.2-.19,8.02-2.79,11.43-1.06,1.4-2.38,2.5-3.84,3.44-.47.3-1.01.49-1.51.75-.2.1-.37.26-.62.44h-.02Zm-9.77-21.81c-1.9,0-3.8,0-5.69,0-.87,0-.98.14-1.02.97v14.34c0,.23,0,.46,0,.7,0,.43.23.68.67.7.27,0,.53.02.8.02h9.89c3.16,0,5.45-1.6,6.92-4.17,1.45-2.54,1.52-5.31.18-8.03-.5-1-1.21-1.81-2.01-2.58-1.33-1.28-2.89-1.97-4.75-1.96h-5Z"></path><path class="cls-6" d="m510.72,202.87v-21.42c0-1.07.53-1.6,1.6-1.6h23.09c1.5,0,1.51,0,1.51,1.49,0,1.16.01,2.32,0,3.49-.01.83-.08.89-.88,1.04-.26.05-.53.1-.79.1-2.9-.04-5.79-.1-8.69-.12-2.8-.02-5.6,0-8.4,0-1.15,0-1.24.09-1.24,1.26v11.26c0,1.11.1,1.19,1.18,1.23.8.03,1.59.12,2.39.15.46.02.93,0,1.4-.02.69,0,1.39,0,2.08-.04.56-.02,1.13-.1,1.69-.09,1.13,0,2.26.1,3.39.1,1.59,0,3.19-.07,4.78-.11.27,0,.53,0,.8,0,.65.06.85.22.87.85.03,1.49.03,2.99,0,4.48-.02.64-.26.78-.91.74-.76-.05-1.53-.1-2.29-.1h-14.59c-.8.05-.9.18-.84.98.04.46.06.93.06,1.39v10.36c0,.3,0,.6.02.9.02.44.25.67.69.69.33,0,.67.02,1,.02h17.19c1.49,0,1.5,0,1.5,1.51,0,1.16.01,2.32,0,3.49-.01.84-.16.96-1.01.99h-23.99c-1.07,0-1.6-.54-1.6-1.61v-21.42h-.01Z"></path><path class="cls-4" d="m314.57,202.92v21.41c0,1.05-.51,1.57-1.53,1.58-1.2,0-2.4,0-3.6,0-.93,0-1.04-.14-1.08-1.02v-43.31c0-1.15.56-1.72,1.68-1.73h2.9c1.09,0,1.63.56,1.63,1.68v21.41-.02Z"></path><path class="cls-5" d="m62.23,148.15c-20.74,0-37.56,5.66-37.56,12.64v78.42c0,6.98,16.81,12.64,37.56,12.64s37.56-5.66,37.56-12.64v-78.42c0-6.98-16.81-12.64-37.56-12.64Z"></path><path class="cls-1" d="m62.23,148.15c-20.74,0-37.56,5.66-37.56,12.64v12.53c-1.37-.2-2.89-.33-4.49-.32-8.44.1-14.54,4.42-17.95,11.82-4.5,9.78-1.38,21.18,2.07,26.81,5.32,8.69,14.33,13.03,20.37,14.29v13.29c0,3.78,4.94,7.18,12.76,9.5v-59.04c0-8.97,7.27-16.23,16.23-16.23h8.56c20.74,0,37.56-4.73,37.56-12.64,0-6.98-16.81-12.64-37.56-12.64h.01Zm-49.13,56.9c-2.77-4.41-3.12-11.51-1.17-15.32,1.62-3.17,4.33-5.41,8.14-5.52,1.72-.05,3.36.21,4.6.5v29.54c-3.38-1.34-8.56-4.39-11.57-9.2h0Z"></path><ellipse class="cls-2" cx="62.23" cy="160.77" rx="33.28" ry="8.51"></ellipse><path d="m90.74,165.16c-5.81,2.52-16.41,4.11-28.51,4.11s-22.52-1.51-28.37-3.97c-.11-.05,9.99-5.47,28.37-5.47s28.66,5.27,28.51,5.33h0Z"></path><path class="cls-3" d="m24.61,225.91s.04,0,.07,0v13.02l12.76-18.21v-13.11c-4.48,6.38-9.93,14.16-12.83,18.28h0Z"></path><path class="cls-2" d="m90.55,179.52l-13.21,4.51c-.25.09-.3.42-.09.57l3.75,2.73-16.8,24.09s-.14.22-.41.02c-.25-.19-16.34-12.21-18.59-14.01-.24-.19-.5-.15-.65.05-.05.08-3.21,4.58-7.12,10.14v13.11l8.63-12.31c.22-.32.46-.38.83-.1,3,2.25,17.99,13.65,18.22,13.82.25.19.47.22.66-.05.17-.24,17.15-24.57,21.23-30.41l3.25,2.36c.21.16.51,0,.52-.26l.22-13.95c0-.23-.22-.39-.43-.31h-.01Z"></path></svg> 