<?xml version="1.0" encoding="UTF-8"?> <svg xmlns="http://www.w3.org/2000/svg" id="Layer_1" width="126.78" height="45.89" viewBox="0 0 126.78 45.89"><defs><style>.cls-1{fill:#fff;}</style></defs><path class="cls-1" d="m8.73,37.35h-.49l.78-4.42h-1.62l.08-.43h3.74l-.08.43h-1.63l-.78,4.42Z"></path><path class="cls-1" d="m13,34.06c.34,0,.61.09.8.27.2.17.29.41.29.71,0,.05,0,.11-.01.16,0,.05-.01.11-.02.18l-.35,1.97h-.46l.32-1.77c.03-.14.04-.28.04-.4,0-.22-.05-.4-.16-.53-.11-.13-.29-.2-.56-.2-.12,0-.25.03-.37.08s-.24.13-.34.23c-.11.11-.2.24-.28.4-.08.16-.13.34-.17.55l-.29,1.64h-.46l.91-5.18h.46l-.44,2.5h.01c.12-.19.27-.34.47-.45.19-.11.4-.16.62-.16Z"></path><path class="cls-1" d="m15.47,35.87s0,.05-.01.08v.07c0,.15.03.29.08.41.05.12.13.23.22.32.1.09.21.16.33.21.13.05.26.08.41.08.25,0,.47-.05.66-.16.19-.11.34-.25.45-.4l.29.27c-.19.22-.4.39-.65.51s-.51.17-.79.17c-.21,0-.4-.03-.58-.1-.18-.06-.33-.16-.47-.27-.13-.12-.23-.26-.31-.44-.07-.18-.11-.38-.11-.6,0-.26.05-.51.14-.75.1-.24.23-.45.39-.62.17-.18.37-.32.59-.42.23-.11.47-.16.73-.16.44,0,.77.12.99.35.23.23.34.53.34.9,0,.05,0,.14-.01.25,0,.11-.03.21-.05.3h-2.65Zm2.24-.34s0-.08,0-.12c0-.05,0-.09,0-.12,0-.25-.08-.45-.23-.6-.15-.16-.37-.24-.66-.24-.17,0-.33.03-.47.09-.14.05-.27.13-.38.23-.11.1-.2.22-.28.35-.08.13-.13.26-.16.41h2.18Z"></path><path class="cls-1" d="m21.84,32.5h1.29c.47,0,.84.1,1.1.31s.39.49.39.86c0,.24-.05.45-.14.62-.09.18-.22.33-.38.45-.16.12-.35.21-.58.27-.22.06-.47.09-.74.09h-.92l-.4,2.25h-.68l1.05-4.85Zm.1,2.19h.89c.41,0,.73-.08.96-.25.23-.16.35-.41.35-.73,0-.3-.09-.5-.28-.62-.19-.12-.44-.18-.76-.18h-.84l-.32,1.77Z"></path><path class="cls-1" d="m25.42,34.85c.02-.09.04-.2.05-.34.02-.14.04-.26.05-.37h.44c0,.09-.02.18-.03.29s-.03.19-.04.26h.01c.12-.19.27-.34.45-.45.18-.12.39-.18.62-.18.06,0,.11,0,.16,0,.05,0,.09.01.14.03l-.11.44s-.07-.02-.13-.03c-.06,0-.12-.01-.18-.01-.12,0-.24.02-.36.07-.12.05-.23.12-.33.22s-.18.22-.26.38c-.07.15-.13.33-.16.55l-.29,1.64h-.46l.44-2.5Z"></path><path class="cls-1" d="m27.83,35.87s0,.05-.01.08v.07c0,.15.03.29.08.41.05.12.13.23.22.32.1.09.21.16.33.21.13.05.26.08.41.08.25,0,.47-.05.66-.16.19-.11.34-.25.45-.4l.29.27c-.19.22-.4.39-.65.51s-.51.17-.79.17c-.21,0-.4-.03-.58-.1s-.33-.16-.47-.27c-.13-.12-.23-.26-.31-.44-.07-.18-.11-.38-.11-.6,0-.26.05-.51.14-.75.1-.24.23-.45.39-.62.17-.18.37-.32.59-.42.23-.11.47-.16.73-.16.44,0,.77.12.99.35.23.23.34.53.34.9,0,.05,0,.14-.01.25,0,.11-.03.21-.05.3h-2.65Zm2.24-.34s0-.08,0-.12c0-.05,0-.09,0-.12,0-.25-.08-.45-.23-.6-.15-.16-.37-.24-.66-.24-.17,0-.33.03-.47.09-.14.05-.27.13-.38.23-.11.1-.2.22-.28.35-.08.13-.13.26-.16.41h2.18Z"></path><path class="cls-1" d="m35.58,34.06c.35,0,.62.09.81.27.2.17.29.41.29.71,0,.05,0,.11-.01.16,0,.05-.01.11-.02.18l-.35,1.97h-.46l.32-1.77c.03-.14.04-.28.04-.4,0-.22-.05-.4-.16-.53-.1-.13-.29-.2-.55-.2-.17,0-.32.03-.44.1-.12.07-.22.16-.31.27-.08.11-.15.24-.2.38-.05.14-.08.29-.11.44l-.3,1.71h-.46l.34-1.86c.03-.15.04-.29.04-.42,0-.19-.05-.34-.14-.45-.09-.11-.26-.17-.49-.17-.11,0-.22.03-.34.08-.12.05-.23.13-.34.23-.1.11-.2.24-.28.4-.08.16-.14.34-.18.55l-.29,1.64h-.46l.44-2.5c.02-.09.04-.2.05-.34.02-.14.04-.26.05-.37h.44c0,.09-.02.18-.03.29s-.03.19-.04.26h.01c.13-.2.29-.35.48-.46.19-.11.4-.17.63-.17.09,0,.18,0,.27.03.1.02.18.05.27.11.09.05.16.12.23.21.06.09.11.2.14.34.12-.22.28-.39.47-.5.19-.12.41-.18.66-.18Z"></path><path class="cls-1" d="m38.25,37.35h-.46l.57-3.21h.46l-.57,3.21Zm.94-4.45c0,.09-.03.17-.1.23-.06.06-.23.1-.32.1s-.16-.03-.23-.08c-.06-.05-.09-.13-.09-.23s.03-.18.1-.24c.07-.06.15-.1.23-.1s.26.03.32.09c.06.05.09.13.09.23Z"></path><path class="cls-1" d="m40.15,35.87s0,.05-.01.08v.07c0,.15.03.29.08.41.05.12.13.23.22.32.1.09.21.16.33.21.13.05.26.08.41.08.25,0,.47-.05.66-.16.19-.11.34-.25.45-.4l.29.27c-.19.22-.4.39-.65.51s-.51.17-.79.17c-.21,0-.4-.03-.58-.1-.18-.06-.33-.16-.47-.27-.13-.12-.23-.26-.31-.44-.07-.18-.11-.38-.11-.6,0-.26.05-.51.14-.75.1-.24.23-.45.39-.62.17-.18.37-.32.59-.42.23-.11.47-.16.73-.16.44,0,.77.12.99.35.23.23.34.53.34.9,0,.05,0,.14-.01.25,0,.11-.03.21-.05.3h-2.65Zm2.24-.34s0-.08,0-.12c0-.05,0-.09,0-.12,0-.25-.08-.45-.23-.6-.15-.16-.37-.24-.66-.24-.17,0-.33.03-.47.09-.14.05-.27.13-.38.23-.11.1-.2.22-.28.35-.08.13-.13.26-.16.41h2.18Z"></path><path class="cls-1" d="m44.08,34.85c.02-.09.04-.2.05-.34.02-.14.04-.26.05-.37h.44c0,.09-.02.18-.03.29s-.03.19-.04.26h.01c.12-.19.27-.34.45-.45.18-.12.39-.18.62-.18.06,0,.11,0,.16,0,.05,0,.09.01.14.03l-.11.44s-.07-.02-.13-.03c-.06,0-.12-.01-.18-.01-.12,0-.24.02-.36.07-.12.05-.23.12-.33.22s-.18.22-.26.38c-.07.15-.13.33-.16.55l-.29,1.64h-.46l.44-2.5Z"></path><path class="cls-1" d="m51.12,33.25c-.09-.13-.21-.24-.38-.32-.16-.09-.36-.13-.58-.13-.14,0-.28.02-.42.06-.14.04-.27.1-.38.18-.11.08-.21.18-.28.3-.07.12-.1.26-.1.43,0,.13.02.24.07.33.05.09.11.17.18.24.08.07.18.13.28.18.11.05.23.1.35.14.14.05.29.12.43.18.15.07.28.15.4.25.12.1.21.22.29.36.07.13.11.29.11.47,0,.16-.03.34-.09.52-.06.18-.16.34-.29.5-.14.15-.32.28-.54.38-.22.1-.5.14-.83.14-.3,0-.58-.06-.86-.18-.27-.12-.48-.3-.63-.54l.44-.28c.09.16.23.3.41.41.18.11.4.16.66.16.16,0,.32-.02.47-.07.15-.05.28-.12.39-.21.11-.09.2-.2.27-.33.06-.13.1-.27.1-.42,0-.14-.03-.26-.08-.36s-.13-.19-.23-.26c-.09-.07-.2-.14-.32-.19-.12-.05-.25-.11-.38-.16s-.27-.11-.4-.18c-.13-.07-.25-.15-.35-.25-.1-.1-.18-.21-.25-.34-.06-.13-.09-.29-.09-.46,0-.21.04-.4.12-.58.08-.18.19-.33.34-.46.15-.13.33-.24.54-.31.21-.08.46-.12.73-.12.33,0,.61.05.84.16.23.11.4.24.51.41l-.42.3Z"></path><path class="cls-1" d="m53.93,34.52h-.87l-.34,1.88c-.01.08-.02.16-.02.22,0,.15.04.25.11.3.07.05.17.08.29.08.06,0,.13,0,.21-.03.08-.02.14-.04.18-.08l-.05.4c-.06.03-.14.05-.23.07-.09.02-.19.03-.29.03-.08,0-.16,0-.24-.03-.08-.02-.15-.05-.22-.1-.06-.05-.12-.12-.16-.2-.04-.08-.06-.19-.06-.32,0-.06,0-.14.02-.22l.36-2.01h-.66l.08-.38h.65l.16-.9h.46l-.16.9h.88l-.08.38Z"></path><path class="cls-1" d="m56.66,35.38c.01-.08.02-.14.03-.18,0-.05,0-.09,0-.12,0-.23-.07-.4-.2-.49-.13-.1-.32-.14-.55-.14-.19,0-.38.04-.55.12-.18.07-.33.16-.45.27l-.21-.31c.16-.14.35-.25.58-.33.23-.09.45-.13.68-.13.15,0,.29.02.43.05.14.03.26.09.36.16.11.07.19.17.25.29.06.11.1.25.1.42,0,.04,0,.1,0,.17,0,.07-.01.13-.02.17l-.23,1.3c-.02.12-.04.25-.05.38s-.02.24-.02.34h-.41c0-.08,0-.16,0-.25,0-.09.02-.18.03-.27h-.01c-.09.11-.18.2-.27.27-.09.07-.19.13-.29.18-.1.05-.2.08-.32.1-.11.02-.23.03-.36.03-.11,0-.22-.01-.34-.04-.11-.03-.22-.07-.32-.14-.09-.07-.17-.16-.23-.26-.06-.11-.09-.24-.09-.39,0-.26.07-.46.22-.62.15-.16.34-.28.57-.36.24-.09.5-.14.79-.17.29-.03.59-.05.88-.05Zm-.17.35c-.21,0-.42.01-.63.03-.21.02-.41.06-.59.12-.17.05-.32.13-.43.24-.11.1-.16.24-.16.4,0,.1.02.18.05.25.04.06.08.12.14.16.06.04.13.06.21.08.08.01.16.02.25.02.16,0,.32-.03.45-.08.14-.05.26-.13.36-.23.11-.1.19-.21.26-.33.07-.13.12-.26.14-.4l.05-.27h-.11Z"></path><path class="cls-1" d="m58.47,34.85c.02-.09.04-.2.05-.34.02-.14.04-.26.05-.37h.44c0,.09-.02.18-.03.29s-.03.19-.04.26h.01c.12-.19.27-.34.45-.45.18-.12.39-.18.62-.18.06,0,.11,0,.16,0,.05,0,.09.01.14.03l-.11.44s-.07-.02-.13-.03c-.06,0-.12-.01-.18-.01-.12,0-.24.02-.36.07-.12.05-.23.12-.33.22-.1.1-.18.22-.26.38-.07.15-.13.33-.16.55l-.29,1.64h-.46l.44-2.5Z"></path><path class="cls-1" d="m62.24,34.52h-.87l-.34,1.88c-.01.08-.02.16-.02.22,0,.15.04.25.11.3.07.05.17.08.29.08.06,0,.13,0,.21-.03.08-.02.14-.04.18-.08l-.05.4c-.06.03-.14.05-.23.07-.09.02-.19.03-.29.03-.08,0-.16,0-.24-.03-.08-.02-.15-.05-.22-.1-.06-.05-.12-.12-.16-.2-.04-.08-.06-.19-.06-.32,0-.06,0-.14.02-.22l.36-2.01h-.66l.08-.38h.65l.16-.9h.46l-.16.9h.88l-.08.38Z"></path><path class="cls-1" d="m65.14,37.35c0-.09.02-.18.03-.29s.03-.19.04-.26h-.01c-.12.2-.28.35-.48.47-.19.11-.4.16-.62.16-.35,0-.62-.09-.82-.26-.19-.18-.29-.42-.29-.72,0-.05,0-.11,0-.16,0-.05.02-.11.03-.18l.35-1.97h.46l-.32,1.77c-.03.15-.04.28-.04.4,0,.22.05.4.16.53.11.13.29.19.55.19.12,0,.25-.03.37-.08.12-.05.24-.13.34-.23.11-.11.21-.24.29-.39.08-.16.14-.35.18-.56l.29-1.64h.46l-.44,2.5c-.02.09-.04.2-.06.34-.02.14-.03.26-.04.37h-.45Z"></path><path class="cls-1" d="m67.89,34.66c.05-.08.12-.16.2-.23s.17-.14.27-.19c.11-.05.22-.1.34-.13.12-.03.24-.05.37-.05.22,0,.42.03.59.1.18.06.33.16.46.28.13.12.23.27.29.44s.1.36.1.56c0,.27-.05.53-.14.77s-.23.45-.4.63c-.16.18-.36.32-.6.42-.23.11-.48.16-.75.16-.23,0-.45-.05-.66-.16-.2-.11-.35-.26-.46-.47h-.01l-.39,2.19h-.46l.86-4.85h.46l-.1.52h.01Zm2.14.81c0-.14-.02-.27-.07-.4-.04-.13-.1-.24-.19-.33-.09-.1-.19-.17-.32-.22-.12-.05-.27-.08-.43-.08-.2,0-.39.04-.56.12-.17.08-.32.2-.45.34-.13.14-.23.31-.3.5-.07.19-.11.39-.11.6,0,.15.02.29.07.42.05.12.12.23.21.33.09.09.2.16.32.21.13.05.27.08.43.08.21,0,.4-.04.57-.12.17-.08.32-.19.45-.34s.22-.31.28-.49c.07-.19.1-.4.1-.62Z"></path><path class="cls-1" d="m76.89,36.65h.01l.73-4.16h.49l-.86,4.85h-.61l-1.99-4.21h-.01l-.74,4.21h-.49l.86-4.85h.61l1.99,4.16Z"></path><path class="cls-1" d="m79.08,35.87s0,.05-.01.08v.07c0,.15.03.29.08.41.05.12.13.23.22.32.1.09.21.16.33.21.13.05.26.08.41.08.25,0,.47-.05.66-.16.19-.11.34-.25.45-.4l.29.27c-.19.22-.4.39-.65.51-.25.11-.51.17-.79.17-.21,0-.4-.03-.58-.1-.18-.06-.33-.16-.47-.27-.13-.12-.23-.26-.31-.44-.07-.18-.11-.38-.11-.6,0-.26.05-.51.14-.75.1-.24.23-.45.39-.62.17-.18.37-.32.59-.42.23-.11.47-.16.73-.16.44,0,.77.12.99.35.23.23.34.53.34.9,0,.05,0,.14-.01.25,0,.11-.03.21-.05.3h-2.65Zm2.24-.34s0-.08,0-.12c0-.05,0-.09,0-.12,0-.25-.08-.45-.23-.6-.15-.16-.37-.24-.66-.24-.17,0-.33.03-.47.09-.14.05-.27.13-.38.23-.11.1-.2.22-.28.35-.08.13-.13.26-.16.41h2.18Z"></path><path class="cls-1" d="m83.46,34.14l.22,2.6h.01l1.36-2.6h.44l.38,2.6h.02l1.28-2.6h.49l-1.64,3.21h-.49l-.36-2.6h-.01l-1.34,2.6h-.49l-.35-3.21h.48Z"></path><path class="cls-1" d="m90.26,34.85c-.06-.12-.16-.21-.29-.29-.13-.08-.28-.12-.46-.12-.08,0-.17,0-.26.03-.09.02-.17.05-.25.09-.07.04-.13.1-.18.16-.05.06-.07.14-.07.24,0,.09.01.16.04.21.03.05.08.1.13.14.05.04.12.07.2.1.08.03.17.05.27.08.32.09.55.21.72.35.16.14.25.33.25.59,0,.17-.04.32-.12.45-.08.12-.18.23-.29.31-.12.08-.25.13-.4.17-.15.04-.29.05-.43.05-.27,0-.52-.05-.76-.15-.23-.1-.42-.25-.55-.46l.4-.26c.08.13.19.25.35.34.16.09.34.14.54.14.1,0,.2,0,.29-.03.1-.02.18-.05.25-.1.08-.05.14-.1.18-.17.05-.07.07-.16.07-.25,0-.17-.07-.3-.21-.38-.13-.09-.32-.18-.58-.26-.1-.03-.19-.07-.29-.11-.1-.04-.18-.09-.26-.16-.08-.07-.14-.15-.19-.24-.05-.1-.07-.21-.07-.34,0-.16.04-.31.11-.42.08-.12.17-.21.29-.29.12-.08.25-.13.4-.17.15-.04.29-.05.44-.05.25,0,.47.05.66.14.2.1.34.22.42.38l-.36.26Z"></path><path class="cls-1" d="m94.08,32.5h.49l-.38,2.11h2.58l.38-2.11h.49l-.86,4.85h-.49l.4-2.3h-2.58l-.4,2.3h-.49l.86-4.85Z"></path><path class="cls-1" d="m100.57,37.35c0-.09.02-.18.03-.29.01-.11.03-.19.04-.26h-.01c-.12.2-.28.35-.48.47-.19.11-.4.16-.62.16-.35,0-.62-.09-.82-.26-.19-.18-.29-.42-.29-.72,0-.05,0-.11,0-.16,0-.05.02-.11.03-.18l.35-1.97h.46l-.32,1.77c-.03.15-.04.28-.04.4,0,.22.05.4.16.53.1.13.29.19.55.19.12,0,.25-.03.37-.08.12-.05.24-.13.34-.23.11-.11.21-.24.29-.39.08-.16.14-.35.18-.56l.29-1.64h.46l-.44,2.5c-.02.09-.04.2-.06.34-.02.14-.03.26-.04.37h-.45Z"></path><path class="cls-1" d="m103.03,36.81l-.1.54h-.46l.92-5.18h.46l-.45,2.49h.01c.05-.08.12-.16.2-.23s.17-.14.27-.19c.1-.05.22-.1.34-.13.12-.03.24-.05.37-.05.22,0,.42.03.59.1.18.06.33.16.46.28.13.12.23.27.29.44.07.17.1.36.1.56,0,.27-.05.53-.14.77-.1.24-.23.45-.4.63-.16.18-.36.32-.6.42-.23.11-.48.16-.75.16-.11,0-.23-.01-.34-.04-.11-.03-.21-.07-.32-.12-.1-.05-.19-.12-.27-.2-.08-.08-.14-.17-.18-.27h-.01Zm2.53-1.34c0-.14-.02-.27-.07-.4-.04-.13-.11-.24-.19-.33-.09-.1-.19-.17-.32-.22-.12-.05-.27-.08-.43-.08-.2,0-.39.04-.56.12-.17.08-.32.2-.45.34-.13.14-.23.31-.3.5-.07.19-.11.39-.11.6,0,.15.02.29.07.42.05.12.12.23.21.33.09.09.2.16.32.21.13.05.27.08.43.08.21,0,.4-.04.57-.12.17-.08.32-.19.45-.34s.22-.31.28-.49c.07-.19.1-.4.1-.62Z"></path><path class="cls-1" d="m107.41,37.01c0,.1-.04.19-.11.27-.07.07-.16.11-.26.11s-.19-.03-.26-.1c-.07-.06-.1-.15-.1-.26s.04-.2.11-.27c.08-.07.17-.11.27-.11s.18.03.25.1c.07.06.1.15.1.27Z"></path><path class="cls-1" d="m18.31,28.44c-1.92.07-3.64-.26-5.15-.98-1.51-.72-2.7-1.9-3.57-3.54-.87-1.64-1.31-3.78-1.31-6.44,0-2.17.32-4.02.95-5.53.63-1.52,1.49-2.67,2.59-3.47,1.09-.8,2.33-1.19,3.72-1.19.52,0,1,.04,1.44.13.44.09.92.22,1.45.4l-1.1,2.05c-.24-.07-.52-.12-.84-.16s-.62-.06-.88-.06c-.84,0-1.62.3-2.35.9-.73.6-1.31,1.49-1.76,2.65-.45,1.16-.67,2.6-.67,4.31,0,1.98.22,3.57.65,4.77.43,1.2,1.03,2.1,1.79,2.69.76.59,1.63.98,2.61,1.15v-6.26h-1.13v-2.18h3.6v2.18h-.01v8.59Z"></path><path class="cls-1" d="m21.42,28.21V7.26c2.03-.09,3.7.16,5.01.75,1.32.59,2.3,1.44,2.94,2.54.64,1.1.97,2.4.97,3.88,0,1.28-.24,2.43-.72,3.44s-1.21,1.83-2.19,2.45l3.66,7.9h-2.78l-3.01-6.98c-.44.12-.91.21-1.42.27v6.7h-2.47Zm2.47-9.16c1.13-.1,2.07-.52,2.8-1.28.73-.76,1.1-1.87,1.1-3.34s-.37-2.59-1.1-3.35c-.73-.76-1.66-1.18-2.8-1.28v9.25Z"></path><path class="cls-1" d="m33.75,28.21V7.52h2.47v20.69h-2.47Z"></path><path class="cls-1" d="m41.77,28.21V9.8h-3.31v-2.29h9.09v2.29h-3.31v18.41h-2.47Z"></path><path class="cls-1" d="m55.77,28.46V7.28c.83.03,1.63.13,2.4.27,1.52.28,2.81.87,3.89,1.78,1.08.91,1.91,2.08,2.49,3.51.58,1.43.87,3.06.87,4.9s-.26,3.45-.79,4.89c-.52,1.44-1.32,2.63-2.38,3.57s-2.39,1.57-3.99,1.88c-.4.08-.8.15-1.21.23-.41.07-.84.12-1.28.15Zm2.47-2.68c.76-.19,1.5-.57,2.21-1.14.71-.57,1.3-1.41,1.76-2.51.46-1.11.69-2.57.69-4.39s-.23-3.23-.69-4.32c-.46-1.09-1.05-1.9-1.76-2.44s-1.45-.88-2.21-1.03v15.82Z"></path><path class="cls-1" d="m69.56,24.77l-.9,3.44h-2.56l6.09-21.32h.08l6.09,21.32h-2.56l-.9-3.44h-5.35Zm2.7-11.08h-.03l-.52,2.86-1.58,6.07h4.22l-1.57-6.07-.52-2.86Z"></path><path class="cls-1" d="m80.79,28.21V7.52h2.47v20.69h-2.47Z"></path><path class="cls-1" d="m87.15,28.21V7.52h2.47v18.43h5.44v2.26h-7.91Z"></path><path class="cls-1" d="m98.23,28.21v-7.05l-4.37-13.65h2.65l2.95,10.21h.03l2.96-10.21h2.65l-4.4,13.74v6.96h-2.47Z"></path><path class="cls-1" d="m114.79,10.23c-.52,0-.99-.12-1.4-.37-.42-.25-.75-.58-.99-1.01-.25-.43-.37-.9-.37-1.42s.12-1,.37-1.43c.25-.42.58-.76.99-1,.42-.25.89-.37,1.4-.37s.99.12,1.41.37c.42.25.76.58,1,1,.25.42.37.9.37,1.43s-.12.99-.37,1.42c-.25.43-.58.76-1,1.01-.42.25-.89.37-1.41.37Zm0-.47c.44,0,.84-.1,1.17-.3.34-.2.61-.47.8-.83.2-.35.29-.75.29-1.2s-.1-.84-.29-1.2c-.19-.35-.46-.63-.8-.83s-.73-.3-1.17-.3-.81.1-1.15.3-.61.47-.81.83c-.2.35-.29.75-.29,1.18s.1.84.29,1.2c.19.35.46.63.81.83s.73.31,1.15.31Zm-.92-1.03v-2.61h1.03c.28,0,.5.07.65.21.16.14.24.33.24.58,0,.16-.04.3-.13.43-.09.13-.21.23-.35.31l.64,1.08h-.52l-.58-.99h-.5v.99h-.47Zm.97-2.22h-.5v.88h.49c.32,0,.49-.15.49-.44,0-.14-.04-.25-.12-.32-.08-.07-.2-.11-.35-.11Z"></path></svg> 