<?xml version="1.0" encoding="UTF-8"?> <svg xmlns="http://www.w3.org/2000/svg" id="Layer_2" width="100" height="120.4" viewBox="0 0 100 120.4"><defs><style>.cls-1{fill:#fff;}</style></defs><polygon class="cls-1" points="85.52 99.29 73.68 36.01 52.72 99.29 85.52 99.29"></polygon><polygon class="cls-1" points="50.31 72.12 72.12 0 50.3 0 26.6 0 50.3 72.09 50.31 72.12"></polygon><polygon class="cls-1" points="99.58 99.29 99.58 0 78.47 0 98.42 99.29 99.58 99.29"></polygon><polygon class="cls-1" points="48.02 99.29 26.3 35.8 14.88 99.29 48.02 99.29"></polygon><polygon class="cls-1" points="20.42 0 .93 0 .93 99.29 1.95 99.29 20.42 0"></polygon><polygon class="cls-1" points="12.08 103.46 8.55 114.71 4.93 103.46 3.36 103.46 0 120.17 2.87 120.17 4.66 111.17 8.02 120.39 9.09 120.39 12.45 111.17 14.18 120.17 17.05 120.17 13.65 103.46 12.08 103.46"></polygon><path class="cls-1" d="m22.95,107.73c-1.66,0-3.09.59-4.28,1.79-1.19,1.19-1.78,2.76-1.78,4.68s.54,3.48,1.63,4.57c1.08,1.09,2.55,1.64,4.42,1.64,1.99,0,3.49-.41,4.49-1.22l-1.11-2.18c-.67.67-1.67,1.01-2.96,1.01-1.04,0-1.87-.27-2.48-.81s-.95-1.3-1-2.27h8.72c.16-.71.24-1.23.24-1.58,0-1.63-.54-2.98-1.61-4.04-1.07-1.05-2.5-1.59-4.27-1.59Zm-2.98,5.06c.4-1.79,1.41-2.67,3.03-2.68,1.78,0,2.77.89,2.96,2.68h-6Z"></path><path class="cls-1" d="m38.08,108.29c-.76-.38-1.6-.57-2.53-.57-1.69,0-3.1.61-4.21,1.82-1.12,1.22-1.68,2.78-1.68,4.72s.49,3.44,1.46,4.51,2.32,1.62,4.02,1.62c.61,0,1.18-.09,1.75-.29.56-.2.96-.42,1.2-.68v.74h2.85v-17.44l-2.85.69v4.89Zm0,8.95c-.12.17-.38.33-.78.5-.4.17-.74.25-1.01.25-2.45,0-3.67-1.27-3.67-3.8,0-1.3.31-2.29.92-2.99s1.49-1.04,2.63-1.04c.66,0,1.3.25,1.9.73v6.36Z"></path><path class="cls-1" d="m44.96,103.22c-.46,0-.84.16-1.17.48-.32.32-.48.71-.48,1.17s.16.85.48,1.17.71.48,1.17.48.85-.16,1.17-.48.48-.71.48-1.17-.16-.85-.48-1.17-.71-.48-1.17-.48Z"></path><polygon class="cls-1" points="41.93 110.29 43.49 110.29 43.49 120.16 43.49 120.16 46.38 120.16 46.38 107.96 41.93 107.96 41.93 110.29"></polygon><path class="cls-1" d="m58,113.81c0-2.36-.43-3.97-1.3-4.81-.86-.85-2.23-1.27-4.09-1.27-1.35,0-2.52.24-3.5.71l.62,2.21c.73-.36,1.62-.54,2.69-.54,1.82,0,2.73.72,2.73,2.16-.46-.12-.85-.17-1.19-.17-1.95,0-3.46.4-4.52,1.2-1.06.8-1.59,1.9-1.59,3.31,0,1.2.37,2.14,1.13,2.8.76.66,1.79.99,3.1.99.7,0,1.37-.13,2.01-.4.64-.27,1.09-.62,1.35-1.04.12.36.33.69.66.99.33.31.7.46,1.11.46.37,0,.7-.05.99-.14.29-.09.55-.35.78-.76-.65-.42-.98-1.44-.98-3.07v-2.61Zm-2.83,1.75c0,1.71-.85,2.57-2.57,2.57-1.27,0-1.9-.55-1.9-1.64,0-1.48,1.12-2.21,3.37-2.21.24,0,.61.05,1.1.15v1.14Z"></path><path class="cls-1" d="m69.44,104.57c-1.22-.81-3.15-1.22-5.78-1.22-.33,0-1.49.05-3.46.13v16.69h2.96v-6.15c.56.05,1.01.08,1.34.08,4.51,0,6.77-1.92,6.77-5.75,0-1.71-.61-2.98-1.83-3.79Zm-2.13,6.22c-.62.46-1.61.68-2.96.68-.29,0-.69-.03-1.19-.08v-5.34c.29-.04.59-.06.9-.06,2.79,0,4.19.86,4.19,2.6,0,1.02-.31,1.76-.93,2.21Z"></path><path class="cls-1" d="m76.66,107.72c-1.76,0-3.18.59-4.25,1.76-1.08,1.17-1.61,2.69-1.61,4.55s.51,3.46,1.54,4.62c1.03,1.16,2.47,1.74,4.32,1.74s3.25-.58,4.29-1.72c1.04-1.15,1.57-2.7,1.57-4.64s-.51-3.49-1.54-4.62c-1.03-1.12-2.46-1.69-4.32-1.69Zm2.12,9.29c-.52.7-1.23,1.05-2.12,1.05-1.94,0-2.91-1.34-2.91-4.04,0-1.26.27-2.23.78-2.93.52-.7,1.23-1.05,2.12-1.05,1.93,0,2.89,1.33,2.89,3.98,0,1.29-.26,2.29-.78,2.99Z"></path><path class="cls-1" d="m88.64,113.03c-1.07-.42-1.77-.76-2.1-1.01-.33-.25-.49-.53-.49-.84,0-.79.5-1.19,1.49-1.19,1.11,0,1.98.27,2.6.8l.82-2.21c-1.12-.57-2.31-.85-3.58-.85s-2.28.29-3.09.88c-.81.59-1.21,1.41-1.21,2.47,0,1.57,1.05,2.8,3.16,3.67.96.4,1.61.76,1.95,1.05.33.3.5.68.5,1.14,0,.79-.56,1.19-1.67,1.19s-2.03-.34-2.88-1.01l-1.01,2.27c.77.41,1.4.68,1.9.81.49.13,1.14.2,1.95.2,1.44,0,2.58-.32,3.42-.97.84-.65,1.26-1.54,1.26-2.67,0-.85-.24-1.58-.71-2.18-.47-.6-1.24-1.11-2.31-1.53Z"></path><path class="cls-1" d="m98.09,117.98c-.69,0-1.16-.18-1.44-.54-.27-.36-.41-.97-.41-1.85v-5.34h3.35v-2.29h-3.35v-3.53l-2.85,1.05v2.48h-1.41v2.29h1.41v6.17c0,1.27.33,2.25.98,2.93.65.69,1.59,1.03,2.8,1.03s2.16-.11,2.82-.34v-2.62c-.59.37-1.23.56-1.91.56Z"></path></svg> 