<?xml version="1.0" encoding="UTF-8"?> <svg xmlns="http://www.w3.org/2000/svg" id="Layer_2" width="100" height="50.29" viewBox="0 0 100 50.29"><defs><style>.cls-1{fill:#3a357e;}</style></defs><path class="cls-1" d="m61.96,4.49l-.15,2.22h-.91c-1.41,0-2.12,1.11-2.12,2.22v4.84h-2.47V4.49h2.32l.05,1.21c.5-.86,1.36-1.21,2.42-1.21h.86Zm-17.18,9.17h-2.47v-4.79c0-1.06-.05-2.32-1.46-2.32s-1.91,1.01-1.91,2.22v4.94h-2.57V4.49h2.32l.05,1.21c.5-.76,1.41-1.41,2.77-1.41,2.47,0,3.27,1.76,3.27,3.68v5.69h0Zm-9.52-2.12l-.1,2.07c-.65.2-1.11.2-1.76.2-2.32,0-3.02-1.06-3.02-3.17V1.92h2.47v2.57h2.47l-.15,2.17h-2.32v3.73c0,.86.3,1.36,1.11,1.36.4,0,.86-.05,1.31-.2Zm-5.69-7.05l-.2,2.22h-.76c-1.36,0-2.07,1.11-2.07,2.22v4.84h-2.47V4.49h2.32l.05,1.21c.5-.86,1.36-1.21,2.42-1.21h.71ZM12.94,12.7c-1.71.91-3.38,1.41-5.59,1.36C3.27,13.91.3,11.39.3,7.06S3.27.05,7.35,0c2.07-.05,3.88.5,5.39,1.76l-1.76,1.76c-.91-.76-2.22-1.21-3.73-1.11-2.62.05-4.18,1.96-4.18,4.53-.05,2.77,1.61,4.68,4.33,4.74,1.26.05,2.22-.05,2.97-.4v-2.92h-2.92l.2-2.32h5.24l.05,6.65h0Zm42.21-2.72h-6.8c.2,1.11,1.11,1.86,2.27,1.91,1.11,0,1.76-.35,2.57-1.11l1.61,1.21c-1.11,1.41-2.47,1.91-4.08,1.91-2.77,0-4.84-1.91-4.84-4.84s2.07-4.84,4.74-4.84c2.97,0,4.53,1.76,4.53,4.94v.81h0Zm-2.47-1.96c-.05-1.11-.91-1.86-2.12-1.86-1.21.05-1.96.86-2.22,1.86h4.33Zm-30.12-.35v5.99h-2.22l-.05-.91c-.65.86-1.76,1.11-2.92,1.11-1.61,0-3.27-.76-3.27-2.77-.05-3.02,3.38-3.27,5.59-3.27h.4v-.15c0-1.01-.65-1.56-1.91-1.56-.91,0-1.76.4-2.47,1.01l-1.41-1.41c1.26-1.06,2.67-1.46,4.08-1.46,2.87,0,4.18,1.36,4.18,3.43h0Zm-2.42,2.07h-.35c-1.11,0-3.27,0-3.17,1.26,0,1.71,3.53,1.11,3.53-.91v-.35h0Z"></path><path class="cls-1" d="m45.87,25.09h2.94l-4.6,13.56h-2.65l-4.6-13.56h3.03l2.94,10.29,2.94-10.29Z"></path><path class="cls-1" d="m55.82,28.79c.71.33,1.28.81,1.75,1.47.43.62.66,1.28.81,2.09.05.47.09,1.14.09,1.99h-7.35c.05,1,.38,1.71,1.04,2.13.38.24.9.38,1.42.38.62,0,1.09-.14,1.47-.47.19-.14.38-.38.52-.71h2.65c-.05.62-.38,1.19-.95,1.8-.9,1-2.13,1.47-3.74,1.47-1.33,0-2.51-.43-3.51-1.23-1-.81-1.52-2.18-1.52-4.03s.47-3.08,1.37-3.98c.9-.95,2.13-1.37,3.6-1.37.81,0,1.61.19,2.32.47Zm-3.93,2.28c-.38.38-.62.9-.71,1.56h4.5c-.05-.71-.28-1.23-.71-1.56-.43-.38-.95-.52-1.56-.52-.62-.05-1.14.14-1.52.52Z"></path><path class="cls-1" d="m67.76,29.22c.66.52,1,1.42,1,2.7v6.73h-2.7v-6.11c0-.52-.05-.95-.19-1.23-.24-.52-.76-.76-1.47-.76-.9,0-1.47.38-1.8,1.14-.19.38-.24.9-.24,1.52v5.4h-2.61v-9.95h2.51v1.47c.33-.52.66-.9.95-1.09.52-.43,1.23-.62,2.04-.62,1,0,1.85.28,2.51.81Z"></path><path class="cls-1" d="m76.54,28.83c.47.28.85.62,1.14,1.09v-4.79h2.65v13.51h-2.56v-1.37c-.38.62-.81,1.04-1.28,1.28-.47.28-1.09.43-1.8.43-1.19,0-2.13-.47-2.94-1.42s-1.19-2.18-1.19-3.65c0-1.71.38-3.03,1.19-4.03s1.85-1.47,3.18-1.47c.62.05,1.14.19,1.61.43Zm.66,7.16c.38-.57.57-1.28.57-2.13,0-1.23-.33-2.09-.95-2.61-.38-.33-.81-.47-1.33-.47-.76,0-1.33.28-1.71.85-.38.57-.52,1.28-.52,2.13,0,.95.19,1.66.57,2.23.38.57.9.85,1.66.85s1.33-.28,1.71-.85Z"></path><path class="cls-1" d="m91.09,37.37c-.85,1.04-2.13,1.56-3.84,1.56s-2.99-.52-3.84-1.56-1.28-2.32-1.28-3.79.43-2.7,1.28-3.74c.85-1.04,2.13-1.61,3.84-1.61s2.99.52,3.84,1.61c.85,1.04,1.28,2.32,1.28,3.74,0,1.52-.43,2.75-1.28,3.79Zm-2.09-1.42c.43-.52.62-1.33.62-2.32s-.19-1.75-.62-2.32-1-.81-1.75-.81-1.37.28-1.75.81c-.43.52-.62,1.33-.62,2.32s.19,1.75.62,2.32c.43.52,1,.81,1.75.81s1.33-.28,1.75-.81Z"></path><path class="cls-1" d="m99.76,28.36h.24v2.7c-.14,0-.33-.05-.43-.05h-.33c-1.04,0-1.75.33-2.13,1.04-.19.38-.28,1-.28,1.8v4.79h-2.65v-10.05h2.51v1.75c.43-.66.76-1.14,1.04-1.37.47-.43,1.14-.62,1.9-.62h.14Z"></path><rect class="cls-1" x="0" y="18.26" width="62.13" height="2.87"></rect><polygon class="cls-1" points="63.44 18.26 63.44 21.13 97.92 21.13 99.9 18.26 63.44 18.26"></polygon><rect class="cls-1" x="0" y="42.72" width="36.03" height="7.58"></rect><polygon class="cls-1" points="37.33 42.72 37.33 50.29 94.7 50.29 99.9 42.72 37.33 42.72"></polygon><path class="cls-1" d="m.07,31.65c0-4.37,2.53-7.28,6.33-7.28,3.12,0,5.5,1.95,6.02,4.88h-.87c-.46-2.45-2.53-4.07-5.14-4.07-3.29,0-5.48,2.58-5.48,6.47s2.19,6.47,5.48,6.47c2.62,0,4.68-1.7,5.14-4.22h.87c-.52,3.02-2.93,5.03-6.02,5.03-3.81,0-6.33-2.91-6.33-7.28Z"></path><path class="cls-1" d="m13.76,33.65c0-3.17,1.76-5.29,4.42-5.29s4.42,2.11,4.42,5.29-1.76,5.29-4.42,5.29-4.42-2.11-4.42-5.29Zm8.02,0c0-2.71-1.45-4.53-3.6-4.53s-3.6,1.81-3.6,4.53,1.45,4.53,3.6,4.53,3.6-1.81,3.6-4.53Z"></path><path class="cls-1" d="m24.07,33.65c0-3.17,1.76-5.29,4.42-5.29s4.42,2.11,4.42,5.29-1.76,5.29-4.42,5.29-4.42-2.11-4.42-5.29Zm8.02,0c0-2.71-1.45-4.53-3.6-4.53s-3.6,1.81-3.6,4.53,1.45,4.53,3.6,4.53,3.6-1.81,3.6-4.53Z"></path><path class="cls-1" d="m35.23,25.09h.8v13.56h-.8v-13.56Z"></path><path class="cls-1" d="m61.2,13.92c-.19,0-.36-.04-.52-.11s-.3-.17-.43-.29c-.12-.12-.22-.26-.29-.43s-.11-.34-.11-.52.04-.36.11-.52.17-.3.29-.42c.12-.12.26-.22.43-.29s.34-.11.52-.11.36.04.52.11.3.17.43.29c.12.12.22.26.29.42.07.16.1.34.1.52s-.03.36-.1.52c-.07.16-.17.3-.29.43s-.26.22-.43.29-.34.11-.52.11Zm0-.18c.16,0,.31-.03.45-.09s.26-.14.36-.25c.1-.1.18-.23.23-.37s.08-.29.08-.46-.03-.31-.08-.46-.13-.26-.23-.37c-.1-.1-.22-.19-.36-.25s-.29-.09-.45-.09-.31.03-.45.09c-.14.06-.26.14-.36.25-.1.1-.18.23-.24.37s-.08.29-.08.46.03.32.08.46.13.26.24.37c.1.1.22.19.36.25.14.06.29.09.45.09Zm.67-.42h-.22l-.43-.69h-.34v.69h-.18v-1.5h.65c.2,0,.34.04.41.11s.12.17.12.29c0,.07-.01.14-.04.19-.02.05-.06.09-.1.13s-.09.06-.15.07c-.06.02-.12.02-.19.03l.45.69Zm-.7-.83h.17c.06,0,.12,0,.17-.02s.1-.04.13-.08c.03-.04.05-.09.05-.17,0-.06-.01-.11-.03-.14-.02-.03-.05-.06-.09-.08s-.08-.03-.12-.04c-.04,0-.09,0-.13,0h-.43v.53h.28Z"></path></svg> 