<?xml version="1.0" encoding="UTF-8"?> <svg xmlns="http://www.w3.org/2000/svg" xmlns:xlink="http://www.w3.org/1999/xlink" id="Emblem" width="600" height="400" viewBox="0 0 600 400"><defs><style>.cls-1{fill:url(#linear-gradient);}.cls-2{fill:#ed3c19;}.cls-3{fill:#fff;}.cls-4{fill:#fc7912;}.cls-5{fill:#ee940b;}.cls-6{fill:#e80f1f;}.cls-7{fill:#e04f06;}.cls-8{fill:url(#linear-gradient-2);}</style><linearGradient id="linear-gradient" x1="300" y1="289.16" x2="300" y2="197.31" gradientUnits="userSpaceOnUse"><stop offset="0" stop-color="#e56c06"></stop><stop offset="1" stop-color="#a83207"></stop></linearGradient><linearGradient id="linear-gradient-2" x1="193.12" y1="228.01" x2="403.92" y2="228.01" gradientUnits="userSpaceOnUse"><stop offset="0" stop-color="#dc3d07"></stop><stop offset="1" stop-color="#dc3d07"></stop></linearGradient></defs><polygon class="cls-6" points="193.98 200 209.4 191.12 195.99 179.42 212.85 173.71 201.99 159.61 219.64 157.32 211.76 141.36 229.52 142.57 224.89 125.38 242.07 130.01 240.87 112.26 256.83 120.14 259.11 102.49 273.21 113.34 278.92 96.49 290.62 109.9 299.5 94.48 308.39 109.9 320.09 96.49 325.8 113.34 339.9 102.49 342.18 120.14 358.14 112.26 356.94 130.01 374.12 125.39 369.49 142.57 387.25 141.37 379.37 157.32 397.02 159.61 386.16 173.71 403.02 179.42 389.61 191.12 405.03 200 389.61 208.88 403.02 220.58 386.16 226.29 397.02 240.39 379.37 242.68 387.25 258.64 369.49 257.43 374.12 274.62 356.94 269.99 358.14 287.74 342.18 279.86 339.9 297.51 325.8 286.66 320.09 303.51 308.39 290.1 299.5 305.52 290.62 290.1 278.92 303.51 273.21 286.66 259.11 297.51 256.83 279.86 240.87 287.74 242.07 269.99 224.89 274.61 229.52 257.43 211.76 258.63 219.64 242.68 201.99 240.39 212.85 226.29 195.99 220.58 209.4 208.88 193.98 200"></polygon><path d="m299.49,270.24c-39.72,0-71.93-32.12-72.08-71.81,0,.09,0,.19,0,.28,0,39.81,32.27,72.09,72.09,72.09s72.09-32.27,72.09-72.09c0-.09,0-.19,0-.28-.15,39.68-32.37,71.81-72.08,71.81Z"></path><path class="cls-2" d="m299.49,160.69c31.83,0,58.41,18.14,64.75,42.32.03-.85.06-1.7.06-2.56,0-34.82-29.02-63.05-64.81-63.05s-64.81,28.23-64.81,63.05c0,.86.02,1.71.06,2.56,6.35-24.18,32.93-42.32,64.75-42.32Z"></path><path d="m299.52,128.01c39.69,0,71.88,32.07,72.08,71.71,0-.13,0-.25,0-.38,0-39.81-32.27-72.09-72.09-72.09s-72.09,32.27-72.09,72.09c0,.13,0,.25,0,.38.2-39.64,32.4-71.71,72.08-71.71Z"></path><path class="cls-4" d="m299.52,128.38c39.54,0,71.71,32.17,71.71,71.71s-32.17,71.71-71.71,71.71-71.71-32.17-71.71-71.71,32.17-71.71,71.71-71.71m0-.38c-39.81,0-72.09,32.27-72.09,72.09s32.27,72.09,72.09,72.09,72.09-32.27,72.09-72.09-32.27-72.09-72.09-72.09h0Z"></path><path class="cls-1" d="m300,241.23c31.16,0,80.04,1.33,95.12,8.29s14.42,15.08,14.42,24.86,5.97,13.09,15.08,14.42c9.11,1.33,20.38-1.33,30.82-1.33s19.55.5,19.55.5c0,0-12.43-15.91-25.52-23.37,0,0,12.04-7.22,25.52-21.38,0,0-4.97-.83-11.93-.83s-27.01,1.49-36.79,1.49-16.74-2.49-16.74-17.4-9.45-19.06-9.45-19.06c0,0-17.07-10.11-100.09-10.11s-100.09,10.11-100.09,10.11c0,0-9.45,4.14-9.45,19.06s-6.96,17.4-16.74,17.4-29.83-1.49-36.79-1.49-11.93.83-11.93.83c13.49,14.16,25.52,21.38,25.52,21.38-13.09,7.46-25.52,23.37-25.52,23.37,0,0,9.11-.5,19.55-.5s21.71,2.65,30.82,1.33c9.11-1.33,15.08-4.64,15.08-14.42s-.66-17.9,14.42-24.86,63.97-8.29,95.12-8.29Z"></path><path class="cls-8" d="m300,241.23c31.16,0,80.04,1.33,95.12,8.29,3.77,1.74,6.56,3.55,8.61,5.45l.18-44.62c-2.03-2.13-3.83-2.92-3.83-2.92,0,0-17.07-10.11-100.09-10.11s-100.09,10.11-100.09,10.11c0,0-4.5,2.22-6.78,7.08-.01.03,0,44.21,0,44.21,0,0,5.56-6.34,11.75-9.2,15.08-6.96,63.97-8.29,95.12-8.29Z"></path><path class="cls-5" d="m430.32,288.03c-2.07,0-3.89-.12-5.54-.36-10.16-1.47-14.12-5.2-14.12-13.3v-1.18c.03-9.11.05-17.72-15.07-24.7-6.79-3.13-28.24-8.39-95.59-8.39s-88.81,5.26-95.59,8.39c-15.12,6.98-15.1,15.59-15.08,24.69v1.19c0,8.1-3.95,11.83-14.11,13.3-1.65.24-3.47.36-5.54.36-3.83,0-7.84-.4-12.09-.82-4.29-.43-8.73-.88-13.03-.88-6.53,0-12.62.19-16.58.36h-.01c-.08,0-.16-.05-.2-.12-.04-.08-.02-.17.03-.24,3.8-4.47,12.58-13.64,21.44-19.66.96-.65,1.06-2.08,1.06-2.1,0,0,.03-1.42-.93-2.06-3.32-2.21-12.07-8.4-21.7-18.16-.06-.06-.08-.15-.05-.23.03-.08.1-.13.18-.14,2.05-.22,5.29-.48,9.12-.48,3.19,0,9.44.33,15.48.65h.18c7.42.4,15.84.84,21.13.84,4.32,0,9.22-.4,12.76-3.37,3.44-2.88,5.1-7.84,5.1-15.16,0-13.95,8.42-17.87,8.78-18.03l.12-.06c.17-.1,18-9.95,99.52-9.95s99.35,9.86,99.52,9.96l.11.05c.37.16,8.78,4.16,8.78,18.03,0,7.31,1.67,12.27,5.1,15.16,3.54,2.97,8.44,3.37,12.76,3.37,5.29,0,13.7-.44,21.13-.83h.18c6.04-.33,12.29-.66,15.48-.66,3.82,0,7.07.26,9.12.48.08.01.15.06.18.14.03.08.01.17-.05.23-9.64,9.77-18.38,15.95-21.69,18.15-.97.64-.93,2.09-.93,2.1,0,.08-.11,1.34.93,1.97,8.83,5.46,17.31,14.71,21.58,19.75.05.06.07.16.03.24s-.1.14-.21.12c-3.96-.16-10.05-.36-16.58-.36-4.31,0-8.74.44-13.03.88-4.25.42-8.25.82-12.09.82Zm-130.32-48.37c67.44,0,88.96,5.28,95.78,8.43,15.38,7.1,15.35,15.84,15.33,25.09v1.19c0,7.82,3.85,11.43,13.74,12.87,1.64.24,3.43.36,5.48.36,3.81,0,7.81-.4,12.05-.82,4.3-.43,8.75-.88,13.07-.88,6.27,0,12.13.18,16.1.34-4.35-5.09-12.59-13.99-21.15-19.27-1.26-.78-1.14-2.29-1.13-2.36,0-.04-.04-1.67,1.13-2.45,3.26-2.17,11.82-8.22,21.3-17.77-2.05-.21-5.09-.43-8.62-.43-3.18,0-9.42.33-15.46.65h-.18c-7.43.4-15.85.84-21.15.84-4.4,0-9.39-.41-13.04-3.47-3.54-2.97-5.26-8.04-5.26-15.49,0-13.6-8.17-17.47-8.51-17.63l-.16-.08c-.17-.1-18.26-9.9-99.31-9.9s-99.12,9.79-99.3,9.89l-.16.08c-.35.16-8.52,3.96-8.52,17.63,0,7.45-1.72,12.52-5.26,15.49-3.65,3.06-8.64,3.47-13.04,3.47-5.3,0-13.72-.44-21.15-.83h-.18c-6.04-.33-12.28-.66-15.46-.66-3.53,0-6.57.22-8.62.43,9.47,9.54,18.04,15.6,21.31,17.78,1.17.78,1.12,2.38,1.12,2.44,0,.08-.11,1.66-1.25,2.44-8.58,5.83-17.09,14.62-21.03,19.2,3.96-.16,9.83-.34,16.1-.34,4.33,0,8.77.44,13.07.88,4.23.42,8.23.82,12.05.82,2.05,0,3.84-.12,5.48-.36,9.89-1.44,13.74-5.04,13.74-12.87v-1.18c-.03-9.26-.05-18,15.33-25.09,6.82-3.15,28.34-8.43,95.78-8.43Z"></path><path class="cls-5" d="m430.32,286.96c-2.01,0-3.77-.11-5.38-.35-9.62-1.4-13.2-4.72-13.2-12.24v-1.18c.03-9.05.05-18.41-15.7-25.68-16.01-7.39-67.05-8.49-96.04-8.49s-80.04,1.1-96.04,8.49c-15.75,7.27-15.73,16.62-15.7,25.68v1.18c0,7.52-3.57,10.84-13.19,12.24-1.61.24-3.37.35-5.38.35-3.82,0-7.97-.42-11.98-.82-4.32-.43-8.78-.88-13.14-.88-5.63,0-10.8.14-14.14.26h0c-.09,0-.16-.05-.2-.13s-.02-.17.03-.24c2.98-3.37,10.8-11.81,19.14-17.29,1.04-.69.92-3.24.92-3.27,0-.06.32-2.54-.93-3.38-3.66-2.49-11.05-7.88-19.31-15.99-.06-.06-.08-.15-.05-.23.03-.08.1-.14.19-.14,2.22-.17,4.48-.26,6.73-.26h0c3.1,0,9,.31,15.25.64h.17c7.48.41,15.96.85,21.37.85,4.52,0,9.65-.43,13.45-3.62,3.69-3.1,5.49-8.33,5.49-15.98,0-13.21,7.81-16.9,8.14-17.05l.22-.11c.21-.11,5.03-2.57,19.38-4.95,13.32-2.21,37.94-4.85,79.6-4.85s66.28,2.64,79.6,4.85c14.85,2.47,19.36,4.95,19.4,4.97l.2.1c3.02,1.38,8.13,6.53,8.13,17.05,0,7.66,1.79,12.88,5.49,15.98,3.8,3.19,8.93,3.62,13.45,3.62,5.4,0,13.88-.45,21.37-.84h.14c6.26-.33,12.18-.65,15.29-.65h0c2.25,0,4.51.09,6.73.26.09,0,.16.06.19.14.03.08.01.17-.05.23-8.28,8.14-15.65,13.51-19.3,15.99-1.29.88-.94,3.32-.94,3.35,0,.03,0,.07,0,.1-.03.09-.67,2.15.94,3.21,8.4,5.56,16.18,13.94,19.13,17.29.06.06.07.16.03.24s-.11.13-.2.13h0c-3.35-.12-8.51-.26-14.14-.26-4.36,0-8.82.44-13.14.88-4.2.42-8.17.82-11.98.82Zm-130.32-48.37c29.04,0,80.15,1.11,96.23,8.53,16,7.39,15.98,16.88,15.96,26.07v1.18c0,7.25,3.47,10.45,12.82,11.81,1.59.23,3.33.34,5.32.34,3.79,0,7.75-.4,11.94-.82,4.33-.43,8.8-.88,13.18-.88,5.36,0,10.29.13,13.65.25-3.17-3.55-10.65-11.5-18.71-16.83-1.74-1.15-1.23-3.3-1.13-3.66-.05-.38-.3-2.75,1.13-3.73,3.59-2.43,10.78-7.67,18.89-15.6-2.05-.15-4.14-.22-6.21-.22-3.09,0-9,.31-15.26.64h-.14c-7.49.4-15.98.85-21.39.85-4.59,0-9.82-.44-13.73-3.73-3.8-3.19-5.65-8.52-5.65-16.31,0-12.89-7.56-16.5-7.88-16.65l-.23-.12c-.05-.03-4.76-2.51-19.25-4.92-13.31-2.21-37.91-4.85-79.53-4.85s-66.23,2.64-79.53,4.85c-14.28,2.38-19.04,4.8-19.23,4.9l-.25.13c-.32.15-7.89,3.72-7.89,16.65,0,7.79-1.85,13.12-5.65,16.31-3.91,3.28-9.14,3.73-13.73,3.73-5.41,0-13.9-.45-21.39-.84h-.18c-6.24-.34-12.14-.65-15.23-.65-2.07,0-4.16.08-6.21.22,8.09,7.91,15.3,13.16,18.9,15.61,1.47,1,1.13,3.65,1.11,3.77.01.07.13,2.79-1.12,3.61-8,5.26-15.52,13.26-18.71,16.84,3.35-.12,8.29-.25,13.64-.25,4.38,0,8.85.44,13.18.88,4,.4,8.14.82,11.94.82,1.99,0,3.73-.11,5.32-.34,9.34-1.36,12.82-4.56,12.82-11.81v-1.18c-.03-9.19-.05-18.69,15.95-26.08,16.08-7.42,67.19-8.53,96.23-8.53Z"></path><polygon class="cls-7" points="387.29 206.28 207.71 207.4 204.56 209.88 204.56 227.95 387.29 206.28"></polygon><path class="cls-3" d="m324.04,192.68c-5.23,0-9.48-4.25-9.48-9.48v-30.17c0-5.23,4.25-9.48,9.48-9.48s9.48,4.25,9.48,9.48v30.17c0,5.23-4.25,9.48-9.48,9.48Zm0-45.4c-3.17,0-5.75,2.58-5.75,5.75v30.17c0,3.17,2.58,5.75,5.75,5.75s5.75-2.58,5.75-5.75v-30.17c0-3.17-2.58-5.75-5.75-5.75Z"></path><path class="cls-3" d="m260.95,192.72c-1.89,0-3.81-.56-5.47-1.74-4.27-3.02-5.28-8.95-2.26-13.22l21.11-29.82c.41-.63.9-1.22,1.47-1.75l.08-.08c.18-.17.37-.33.58-.49l.12-.1c.09-.07.15-.12.23-.17.1-.07.2-.13.3-.2l.11-.07c.05-.03.11-.07.16-.1.2-.12.4-.23.62-.35.08-.04.13-.07.19-.09.21-.1.44-.2.66-.29l.18-.07c.22-.08.46-.16.69-.22.06-.02.13-.03.19-.05.23-.06.45-.11.67-.15.08-.02.17-.03.26-.04.21-.03.4-.06.6-.07.12-.01.24-.02.36-.03.17,0,.33-.01.5-.01.16,0,.32,0,.48.01.13,0,.25.01.37.03.19.02.39.04.59.07.09.01.18.03.26.04.22.04.44.09.67.15.07.02.13.04.2.05.23.06.46.14.69.22l.16.06c.25.1.47.19.68.3.05.03.11.05.16.08.25.13.45.24.65.36.05.03.1.06.15.1l.11.07c.1.06.2.13.3.2.07.05.14.1.2.16l.12.09c.26.2.47.38.66.56l.03.03c.56.53,1.06,1.12,1.47,1.75l21.11,29.82c3.02,4.27,2.01,10.2-2.26,13.22-4.27,3.02-10.2,2.01-13.22-2.26l-13.59-19.2-13.59,19.2c-1.85,2.61-4.78,4-7.76,4Zm21.34-29.67l16.64,23.51c1.83,2.59,5.43,3.2,8.01,1.37,2.59-1.83,3.2-5.42,1.37-8.01h0s-21.18-29.93-21.18-29.93c-.25-.39-.56-.76-.92-1.09l-.02-.02c-.11-.1-.23-.2-.37-.31l-.06-.04c-.07-.05-.11-.09-.16-.12-.03-.02-.06-.04-.09-.06l-.25-.16c-.12-.08-.25-.14-.38-.21l-.11-.06c-.13-.06-.27-.12-.4-.17l-.1-.04c-.14-.05-.28-.1-.42-.14l-.12-.03c-.13-.03-.26-.06-.4-.09-.06-.01-.11-.02-.16-.03-.11-.02-.23-.03-.36-.04-.08,0-.15-.01-.23-.02-.09,0-.17,0-.29,0-.1,0-.2,0-.3,0-.07,0-.14,0-.22.02-.13.01-.25.03-.37.04-.05,0-.1.02-.15.03-.14.03-.27.06-.41.09l-.12.03c-.14.04-.28.08-.42.14l-.09.03c-.16.06-.29.12-.42.18l-.08.04c-.16.08-.28.15-.41.22l-.26.16s-.06.04-.09.06c-.04.04-.09.07-.13.11l-.07.06c-.15.11-.27.22-.39.33h-.01c-.35.34-.66.71-.91,1.09l-.05.07-21.13,29.86c-1.83,2.59-1.22,6.18,1.37,8.01,2.59,1.83,6.18,1.22,8.01-1.37l16.64-23.51Z"></path><path class="cls-3" d="m288.34,252.35c-.21.18-.41.3-.6.37-.19.07-.4.11-.62.11-.36,0-.64-.09-.83-.27-.19-.18-.29-.4-.29-.68,0-.16.04-.31.11-.44.07-.13.17-.24.29-.32.12-.08.25-.14.4-.18.11-.03.28-.06.5-.08.45-.05.78-.12,1-.19,0-.08,0-.13,0-.15,0-.23-.05-.39-.16-.48-.14-.13-.35-.19-.64-.19-.26,0-.46.05-.58.14-.13.09-.22.25-.28.49l-.55-.07c.05-.23.13-.42.25-.57s.28-.25.49-.33c.22-.08.46-.12.75-.12s.51.03.69.1.31.15.39.25.14.23.17.38c.02.1.03.27.03.52v.74c0,.52.01.85.04.98.02.14.07.27.14.4h-.58c-.06-.12-.1-.25-.11-.41Zm-.05-1.25c-.2.08-.51.15-.91.21-.23.03-.39.07-.49.11-.1.04-.17.1-.22.18s-.08.17-.08.27c0,.15.06.27.17.37.11.1.28.15.49.15s.41-.05.57-.14.29-.22.37-.39c.06-.13.09-.31.09-.56v-.2Z"></path><path class="cls-3" d="m290.49,252.76l-1.01-3.29h.58l.52,1.9.2.71s.07-.26.17-.68l.52-1.93h.57l.49,1.91.16.63.19-.64.56-1.9h.54l-1.03,3.29h-.58l-.52-1.97-.13-.56-.67,2.53h-.58Z"></path><path class="cls-3" d="m296.78,252.35c-.21.18-.41.3-.6.37-.19.07-.4.11-.62.11-.36,0-.64-.09-.83-.27-.19-.18-.29-.4-.29-.68,0-.16.04-.31.11-.44.07-.13.17-.24.29-.32.12-.08.25-.14.4-.18.11-.03.28-.06.5-.08.45-.05.78-.12,1-.19,0-.08,0-.13,0-.15,0-.23-.05-.39-.16-.48-.14-.13-.35-.19-.64-.19-.26,0-.46.05-.58.14-.13.09-.22.25-.28.49l-.55-.07c.05-.23.13-.42.25-.57s.28-.25.49-.33c.22-.08.46-.12.75-.12s.51.03.69.1.31.15.39.25.14.23.17.38c.02.1.03.27.03.52v.74c0,.52.01.85.04.98.02.14.07.27.14.4h-.58c-.06-.12-.1-.25-.11-.41Zm-.05-1.25c-.2.08-.51.15-.91.21-.23.03-.39.07-.49.11-.1.04-.17.1-.22.18s-.08.17-.08.27c0,.15.06.27.17.37.11.1.28.15.49.15s.41-.05.57-.14.29-.22.37-.39c.06-.13.09-.31.09-.56v-.2Z"></path><path class="cls-3" d="m298.31,252.76v-3.29h.5v.5c.13-.23.25-.39.36-.46.11-.07.23-.11.36-.11.19,0,.38.06.57.18l-.19.52c-.14-.08-.27-.12-.41-.12-.12,0-.23.04-.33.11s-.17.18-.21.31c-.06.2-.09.42-.09.65v1.72h-.56Z"></path><path class="cls-3" d="m302.73,252.76v-.42c-.21.33-.52.49-.92.49-.26,0-.5-.07-.72-.22-.22-.14-.39-.35-.51-.61-.12-.26-.18-.56-.18-.89s.05-.63.16-.89c.11-.27.27-.47.49-.62.22-.14.46-.21.74-.21.2,0,.38.04.53.13.16.08.28.19.38.33v-1.63h.56v4.55h-.52Zm-1.77-1.64c0,.42.09.74.27.95.18.21.39.31.63.31s.45-.1.62-.3c.17-.2.26-.5.26-.91,0-.45-.09-.78-.26-.99s-.39-.32-.64-.32-.46.1-.62.3c-.17.2-.25.52-.25.96Z"></path><path class="cls-3" d="m304.06,251.78l.55-.09c.03.22.12.39.26.51.14.12.34.18.59.18s.45-.05.57-.16.19-.23.19-.37c0-.13-.05-.23-.16-.3-.08-.05-.27-.11-.57-.19-.41-.1-.69-.19-.85-.27-.16-.08-.28-.18-.36-.31-.08-.13-.12-.28-.12-.44,0-.15.03-.28.1-.41s.16-.23.27-.31c.09-.06.21-.12.36-.16s.31-.07.48-.07c.26,0,.49.04.68.11.2.07.34.18.43.3.09.13.16.3.19.51l-.55.07c-.02-.17-.1-.3-.22-.4s-.29-.14-.5-.14c-.26,0-.44.04-.55.13-.11.08-.16.18-.16.3,0,.07.02.14.07.2.05.06.12.11.21.15.06.02.22.07.49.14.4.11.67.19.83.26s.28.16.37.29.13.29.13.48-.05.36-.16.53c-.11.16-.26.29-.47.38-.2.09-.44.14-.69.14-.43,0-.75-.09-.98-.27s-.37-.44-.43-.79Z"></path><path class="cls-3" d="m307.78,252.76v-.64h.64v.64h-.64Z"></path><path class="cls-3" d="m311.7,252.35c-.21.18-.41.3-.6.37-.19.07-.4.11-.62.11-.36,0-.64-.09-.83-.27-.19-.18-.29-.4-.29-.68,0-.16.04-.31.11-.44.07-.13.17-.24.29-.32s.25-.14.4-.18c.11-.03.28-.06.5-.08.45-.05.78-.12,1-.19,0-.08,0-.13,0-.15,0-.23-.05-.39-.16-.48-.14-.13-.35-.19-.64-.19-.26,0-.46.05-.58.14s-.22.25-.28.49l-.55-.07c.05-.23.13-.42.25-.57s.28-.25.49-.33c.21-.08.46-.12.75-.12s.51.03.69.1c.18.07.31.15.39.25s.14.23.17.38c.02.1.03.27.03.52v.74c0,.52.01.85.04.98s.07.27.14.4h-.58c-.06-.12-.1-.25-.11-.41Zm-.05-1.25c-.2.08-.51.15-.91.21-.23.03-.39.07-.49.11-.1.04-.17.1-.22.18-.05.08-.08.17-.08.27,0,.15.06.27.17.37s.28.15.49.15.41-.05.57-.14c.17-.09.29-.22.37-.39.06-.13.09-.31.09-.56v-.2Z"></path><path class="cls-3" d="m313.24,248.85v-.64h.56v.64h-.56Zm0,3.91v-3.29h.56v3.29h-.56Z"></path><path class="cls-3" d="m252.04,226.23h-2.88l-1.14-2.98h-5.24l-1.08,2.98h-2.81l5.11-13.11h2.8l5.25,13.11Zm-4.87-5.19l-1.81-4.86-1.77,4.86h3.58Z"></path><path class="cls-3" d="m254.83,226.23l-3-9.5h2.44l1.78,6.22,1.64-6.22h2.42l1.58,6.22,1.82-6.22h2.48l-3.05,9.5h-2.41l-1.64-6.11-1.61,6.11h-2.44Z"></path><path class="cls-3" d="m269.15,219.63l-2.28-.41c.26-.92.7-1.6,1.32-2.04.63-.44,1.56-.66,2.79-.66,1.12,0,1.96.13,2.5.4.55.27.93.6,1.16,1.01.22.41.34,1.16.34,2.25l-.03,2.93c0,.83.04,1.45.12,1.85.08.4.23.82.45,1.27h-2.49c-.07-.17-.15-.41-.24-.74-.04-.15-.07-.25-.09-.3-.43.42-.89.73-1.38.94-.49.21-1.01.31-1.56.31-.98,0-1.75-.26-2.31-.8-.56-.53-.85-1.2-.85-2.01,0-.54.13-1.02.38-1.44.26-.42.62-.74,1.08-.97.46-.22,1.13-.42,2-.59,1.17-.22,1.99-.43,2.44-.62v-.25c0-.48-.12-.83-.36-1.03-.24-.21-.69-.31-1.35-.31-.45,0-.8.09-1.05.26-.25.18-.45.48-.61.93Zm3.36,2.04c-.32.11-.83.24-1.53.38s-1.15.29-1.37.44c-.33.23-.49.53-.49.89s.13.66.39.91c.26.26.6.38,1,.38.45,0,.89-.15,1.3-.45.3-.23.5-.5.6-.83.07-.21.1-.62.1-1.23v-.5Z"></path><path class="cls-3" d="m279.82,226.23h-2.51v-9.5h2.33v1.35c.4-.64.76-1.06,1.08-1.26.32-.2.68-.3,1.09-.3.57,0,1.12.16,1.65.47l-.78,2.19c-.42-.27-.82-.41-1.18-.41s-.65.1-.89.29c-.24.19-.44.54-.58,1.05-.14.51-.21,1.57-.21,3.18v2.93Z"></path><path class="cls-3" d="m293.22,226.23h-2.33v-1.4c-.39.54-.84.95-1.37,1.21-.53.27-1.06.4-1.6.4-1.09,0-2.03-.44-2.8-1.32-.78-.88-1.17-2.11-1.17-3.68s.38-2.83,1.14-3.67c.76-.84,1.71-1.26,2.87-1.26,1.06,0,1.98.44,2.75,1.32v-4.72h2.51v13.11Zm-6.71-4.95c0,1.01.14,1.75.42,2.2.41.66.97.98,1.7.98.58,0,1.07-.25,1.48-.74.41-.49.61-1.23.61-2.2,0-1.09-.2-1.88-.59-2.36s-.9-.72-1.51-.72-1.1.24-1.5.71c-.4.47-.6,1.18-.6,2.12Z"></path><path class="cls-3" d="m302.59,226.23l-3.13-13.11h2.71l1.98,9.01,2.4-9.01h3.15l2.3,9.16,2.01-9.16h2.67l-3.18,13.11h-2.81l-2.61-9.8-2.6,9.8h-2.87Z"></path><path class="cls-3" d="m317.8,215.44v-2.33h2.51v2.33h-2.51Zm0,10.78v-9.5h2.51v9.5h-2.51Z"></path><path class="cls-3" d="m331.49,226.23h-2.51v-4.85c0-1.03-.05-1.69-.16-1.99s-.28-.54-.52-.7c-.24-.17-.53-.25-.87-.25-.44,0-.83.12-1.17.36-.35.24-.58.55-.71.95-.13.39-.19,1.12-.19,2.18v4.3h-2.51v-9.5h2.33v1.4c.83-1.07,1.87-1.61,3.13-1.61.55,0,1.06.1,1.52.3s.81.45,1.04.76.4.66.49,1.06c.09.39.14.96.14,1.69v5.9Z"></path><path class="cls-3" d="m342.64,226.23h-2.51v-4.85c0-1.03-.05-1.69-.16-1.99s-.28-.54-.52-.7c-.24-.17-.53-.25-.87-.25-.44,0-.83.12-1.17.36-.35.24-.58.55-.71.95-.13.39-.19,1.12-.19,2.18v4.3h-2.51v-9.5h2.33v1.4c.83-1.07,1.87-1.61,3.13-1.61.55,0,1.06.1,1.52.3s.81.45,1.04.76.4.66.49,1.06c.09.39.14.96.14,1.69v5.9Z"></path><path class="cls-3" d="m350.65,223.21l2.5.42c-.32.92-.83,1.62-1.52,2.1-.69.48-1.56.72-2.61.72-1.65,0-2.87-.54-3.67-1.62-.63-.86-.94-1.96-.94-3.27,0-1.57.41-2.81,1.23-3.7.82-.89,1.86-1.34,3.12-1.34,1.41,0,2.53.47,3.34,1.4.82.93,1.21,2.36,1.17,4.29h-6.3c.02.75.22,1.32.61,1.74.39.41.87.62,1.45.62.39,0,.72-.11.99-.32s.47-.56.61-1.04Zm.14-2.54c-.02-.73-.21-1.28-.56-1.66-.36-.38-.79-.57-1.31-.57-.55,0-1,.2-1.36.6-.36.4-.53.94-.53,1.63h3.76Z"></path><path class="cls-3" d="m357.71,226.23h-2.51v-9.5h2.33v1.35c.4-.64.76-1.06,1.08-1.26.32-.2.68-.3,1.09-.3.57,0,1.12.16,1.65.47l-.78,2.19c-.42-.27-.82-.41-1.18-.41s-.65.1-.89.29c-.24.19-.44.54-.58,1.05-.14.51-.21,1.57-.21,3.18v2.93Z"></path></svg> 