<?xml version="1.0" encoding="UTF-8"?> <svg xmlns="http://www.w3.org/2000/svg" id="Layer_1" width="600" height="400" viewBox="0 0 600 400"><defs><style>.cls-1{fill:#e3000b;}</style></defs><path d="m267.35,231.34v2.98h-35.09v-2.98c.7-.16,1.41-.31,2.19-.47,2.11-.47,3.37-1.8,3.76-3.92.31-1.57.47-3.13.55-4.78.16-5.8.23-11.59.23-17.39,0-6.89.08-13.71-.08-20.6,0-1.72-.39-3.45-.86-5.01-1.02-3.13-3.68-4.39-6.89-3.6-2.19.55-3.84,1.88-5.4,3.45-2.27,2.43-3.92,5.25-5.25,8.15-.16.31-.16.7-.16,1.1,0,11.12,0,22.17.08,33.29,0,1.64.23,3.21.55,4.86.47,2.66,2.11,4.23,4.78,4.78.16,0,.31.08.47.08s.31.08.47.08v2.98h-33.91v-2.98c0-.08.08-.08.08-.08,3.99-.94,5.48-3.84,5.72-7.6.08-1.8.23-3.6.23-5.4,0-10.65.08-21.23,0-31.88,0-2.43-.23-4.93-.78-7.36-.86-3.52-3.6-4.86-7.05-3.76-2.9.86-4.93,2.9-6.81,5.17-.16.16-.23.31-.31.47-2.19,2.66-3.29,5.48-3.21,9.09.23,10.65.08,21.3.08,31.96,0,1.57.16,3.21.39,4.78.31,2.19,1.64,3.6,3.76,4.23.63.16,1.25.31,1.96.47v2.98h-35.09v-2.66c0-.16.31-.39.47-.47.7-.31,1.49-.47,2.19-.78,2.58-1.25,3.6-3.52,3.99-6.19.16-1.1.23-2.27.23-3.37v-43.63c0-.63,0-1.25-.08-1.88-.47-3.29-1.96-4.93-5.25-5.64-.39-.08-.86-.16-1.33-.23v-2.98h28.82v10.97c1.1-1.25,2.04-2.35,2.98-3.37,3.6-3.76,7.68-6.89,12.84-8.15,5.72-1.33,11.2-.94,16.06,2.9,3.29,2.58,4.93,6.19,6.11,10.1.08.39.23.7.39,1.25.31-.47.63-.78.86-1.1,2.51-3.37,5.25-6.66,8.62-9.24,5.8-4.46,12.3-5.8,19.19-3.13,6.74,2.66,10.73,7.91,11.75,14.96.63,4.31.86,8.69.94,13.08.16,9.56.08,19.11.08,28.67,0,1.02.16,1.96.39,2.98.39,2.11,1.64,3.45,3.68,4.15.86.16,1.72.39,2.66.7Z"></path><path d="m498.48,166.33v6.74h-14.18c.23.39.47.63.63.94,1.57,2.51,3.37,5.01,4.78,7.68,3.76,7.21,2.58,14.18-1.8,20.68-3.6,5.33-8.85,8.46-14.96,10.26-6.03,1.8-12.14,2.11-18.33.86-.47-.08-.94-.16-1.41-.16-3.13,0-6.19,0-9.32.16-1.25,0-1.8.63-1.88,1.57-.08,1.1.47,1.8,1.64,1.96.86.16,1.72.23,2.58.23,9.01,0,18.01-.08,26.94,0,5.09.08,10.1.55,14.96,2.35,4.78,1.8,8.38,4.78,9.63,9.95,1.1,4.46.7,8.85-1.33,13-2.58,5.48-7.21,8.77-12.61,11.12-5.48,2.35-11.2,3.37-17.07,3.6-8.69.39-17.31.08-25.77-2.35-3.21-.94-6.19-2.19-8.69-4.46-2.98-2.66-3.92-6.03-2.9-9.87.47-1.72,1.49-3.13,2.98-4.07,1.88-1.17,3.92-2.11,5.95-3.21.31-.16.7-.31.86-.39-1.41-1.17-2.9-2.19-4.15-3.45-3.76-3.84-4.31-10.42-1.33-14.72,1.88-2.66,4.54-3.92,7.52-4.78.78-.23,1.49-.39,2.43-.63-.7-.47-1.33-.86-1.88-1.25-3.84-2.58-7.36-5.64-9.56-9.79-4.15-8.15-3.37-15.98,2.04-23.18,4.39-5.87,10.5-9.16,17.54-10.81,7.28-1.64,14.33-1.02,21.3,1.57.86.31,1.88.47,2.82.47,7.05.08,14.02,0,21.07,0,.71,0,1.02,0,1.49,0Zm-27.26,22.32c0-1.72.08-3.52,0-5.25,0-1.1-.16-2.11-.31-3.13-.39-2.74-1.02-5.48-2.66-7.83-3.13-4.62-9.56-4.78-12.69-.16-1.1,1.64-1.96,3.6-2.43,5.56-1.72,6.74-1.57,13.63-.47,20.52.39,2.58,1.17,5.09,2.74,7.36,2.74,3.92,8.07,4.62,11.59,1.49,1.57-1.49,2.43-3.37,3.05-5.4,1.1-4.39,1.25-8.77,1.17-13.16Zm-8.54,45.58v.31c-1.96,0-3.92-.08-5.8,0-1.96.08-3.84.23-5.8.31-2.04.16-3.99.7-5.72,1.88-3.45,2.27-3.92,6.42-1.17,9.48,1.64,1.88,3.84,2.9,6.11,3.68,5.48,1.72,11.2,2.04,16.92,1.8,3.6-.16,7.21-.7,10.57-1.96,2.74-1.02,5.33-2.35,6.89-5.09,1.8-3.13.94-6.34-2.35-7.83-1.64-.78-3.52-1.33-5.33-1.49-4.78-.47-9.56-.7-14.33-1.1Z"></path><path d="m301.42,254.6v2.66h-40.49v-2.74c.55-.08,1.1-.16,1.72-.23,4.54-.78,6.74-3.05,7.21-7.75.16-1.17.23-2.43.23-3.68v-62.03c0-.55,0-1.1-.08-1.57-.55-3.99-2.43-5.72-7.05-6.27-.23,0-.47-.08-.7-.08v-2.9c9.79-2.04,19.58-4.07,29.53-6.11v9.32c.08,0,.16.08.16.08.47-.55.86-1.1,1.33-1.57,2.58-2.98,5.4-5.48,9.16-6.81,5.64-1.88,10.81-.86,15.59,2.43,5.01,3.45,8.3,8.22,10.42,13.78,5.25,13.78,4.86,27.41-2.11,40.57-2.66,4.93-6.34,9.09-11.44,11.59-6.03,2.9-12.06,3.13-17.78-.7-1.72-1.17-3.05-2.9-4.62-4.39-.23-.23-.39-.47-.7-.86,0,.39-.08.63-.08.86,0,5.8,0,11.51.08,17.31,0,1.33.23,2.58.47,3.92.47,2.19,1.88,3.68,4.07,4.23,1.72.31,3.37.55,5.09.94Zm-9.56-52.16h0c0,4.93,0,9.87-.08,14.8,0,1.49.39,2.66,1.17,3.84,1.49,2.11,3.05,4.15,5.48,5.25,3.37,1.64,6.58.63,8.46-2.51,1.1-1.88,1.64-3.92,1.8-5.95.39-3.52.63-7.13.78-10.65.31-7.52.31-15.04-.78-22.48-.39-2.66-1.02-5.25-2.51-7.52-.86-1.25-1.96-2.11-3.45-2.43-3.13-.78-6.27.47-8.3,3.37-1.8,2.51-2.58,5.4-2.58,8.46-.08,5.25,0,10.5,0,15.82Z"></path><path d="m534.04,234.31h-33.84v-2.9c0-.16.23-.39.39-.39,3.45-.55,4.62-2.98,4.93-6.11.16-1.64.31-3.29.31-4.93v-41.43c0-.86-.08-1.72-.16-2.51-.39-2.82-2.11-4.62-4.78-5.56-1.25-.47-1.8-1.1-1.57-2.43.08-.47,0-1.02,0-1.57h28.59v9.71c.08.08.23.16.31.23.16-.23.23-.47.39-.7,2.74-3.13,5.56-6.19,9.24-8.38,6.89-4.07,14.02-4.23,21.07-.23,3.99,2.27,6.11,6.11,7.52,10.34,1.57,4.62,2.04,9.32,2.04,14.18v29.92c0,1.49.23,2.98.47,4.46.55,2.66,2.27,4.15,4.78,4.86.39.08.78.16,1.25.31v3.21h-34.54v-2.82c0-.23.23-.55.47-.63,3.76-1.33,4.86-4.31,4.93-7.91,0-1.64-.16-3.29-.16-4.86v-34.93c0-1.49-.16-3.05-.63-4.54-.94-3.45-3.92-4.86-7.28-3.6-2.66.94-4.54,2.9-6.27,4.93q-3.68,4.46-3.68,10.18v30.7c0,1.41.16,2.82.39,4.23.47,2.82,2.04,4.78,4.7,5.64.7.23.94.63.86,1.33.16.63.24,1.33.24,2.19Z"></path><path d="m401.28,224.44c-3.52,5.56-7.91,9.71-14.65,10.73-4.86.7-9.48.16-13.31-3.21-2.27-2.04-3.52-4.62-4.39-7.52-.08-.16-.08-.31-.23-.63-1.25,1.02-2.51,1.96-3.76,2.9-3.52,2.66-7.13,5.09-11.2,6.74-3.92,1.57-7.91,2.11-12.06.94-6.19-1.8-10.34-7.05-10.73-13.71-.31-6.19,1.88-11.36,6.11-15.82,4.31-4.54,9.56-7.83,15.04-10.81,5.4-2.9,11.12-5.33,16.92-7.28.31-.08.7-.39.7-.63-.08-3.21,0-6.42-.31-9.56-.39-3.92-2.9-6.27-6.58-7.13-3.68-.86-7.28-.47-10.57,1.64-.78.55-1.49,1.33-2.04,2.11-.86,1.25-.86,2.66,0,3.99.63,1.02,1.33,1.96,2.11,2.82,3.68,3.84,2.27,8.46-.47,10.97-3.76,3.37-8.15,4.31-12.84,2.51-4.07-1.57-5.87-5.01-6.03-9.24-.23-4.86,1.96-8.69,5.33-11.9,4.62-4.39,10.26-6.74,16.45-7.99,7.99-1.64,15.98-1.49,23.81,1.02,2.11.7,4.07,1.72,6.03,2.82,3.92,2.35,5.95,6.03,6.34,10.5.23,2.35.31,4.78.39,7.13v30.7c0,1.96.16,3.92.39,5.8.31,2.19,1.41,3.21,3.13,2.9.7-.08,1.41-.63,2.04-1.02.55-.39.94-1.02,1.57-1.64,1.02.63,1.88,1.25,2.82,1.88Zm-32.5-32.97c-.23,0-.31,0-.47.08-.78.39-1.57.7-2.35,1.1-6.58,3.52-11.44,8.54-13.39,15.98-.86,3.37-1.1,6.81.23,10.18,1.49,3.84,4.86,5.4,8.85,4.23,2.35-.7,4.31-2.04,6.27-3.52.7-.55.94-1.1.94-1.96v-24.98c-.08-.39-.08-.78-.08-1.1Z"></path><path d="m124.49,223.9c-1.96,1.49-3.84,3.05-5.8,4.46-3.45,2.51-7.05,4.78-11.2,5.95-4.07,1.17-8.15,1.25-11.98-.63-5.95-2.9-8.54-7.83-8.54-14.25s3.05-11.98,7.91-16.37c5.33-4.86,11.44-8.3,17.86-11.28,3.99-1.8,8.15-3.29,12.22-5.01.23-.08.63-.47.63-.7,0-3.05.08-6.11-.23-9.16-.31-3.92-2.51-6.34-6.34-7.28-3.21-.86-6.42-.63-9.4.78-1.17.55-2.19,1.41-3.05,2.35-1.25,1.49-1.25,3.29-.16,4.86.63.86,1.25,1.72,1.96,2.51,3.45,3.99,1.96,8.62-.78,10.97-3.76,3.29-8.07,4.15-12.69,2.43-3.6-1.33-5.95-5.01-6.11-9.01-.16-5.48,2.35-9.63,6.34-13,4.23-3.68,9.32-5.72,14.72-6.97,8.46-1.88,16.84-1.72,25.06,1.02,1.96.63,3.76,1.64,5.56,2.66,4.07,2.51,6.11,6.19,6.42,10.97.08,2.04.23,3.99.23,6.03v31.17c0,2.11.23,4.15.55,6.27.47,3.29,3.68,3.29,5.33,1.49.47-.55,1.02-1.02,1.57-1.64.78.63,1.64,1.25,2.43,1.88-3.6,5.95-8.38,10.03-15.43,10.81-2.98.31-5.95.16-8.77-1.02-4.39-1.72-6.74-5.17-8.07-9.56,0-.08-.08-.39-.23-.7Zm0-32.35h-.39c-.78.31-1.57.7-2.27,1.1-6.5,3.45-11.36,8.46-13.47,15.74-.94,3.37-1.17,6.81.08,10.18,1.57,4.07,5.09,5.8,9.24,4.39,2.27-.78,4.23-2.11,6.11-3.6.55-.39.78-.86.78-1.57v-25.14c-.08-.47-.08-.78-.08-1.1Z"></path><path d="m83.68,215.59c.86.94,1.64,1.88,2.43,2.82-1.88,2.74-3.92,5.25-6.27,7.52-4.39,4.31-9.48,7.44-15.51,8.69-10.57,2.11-20.29.23-28.51-6.97-5.72-4.93-9.01-11.36-10.18-18.8-2.04-12.06.7-23.03,8.62-32.5,7.13-8.38,16.29-12.92,27.49-12.77,7.91.08,15.04,2.66,20.76,8.3,3.05,3.05,4.93,6.66,5.17,11.12.23,4.78-2.74,9.32-7.21,10.57-4.86,1.33-9.71-.78-11.98-5.17-1.57-2.98-2.04-6.19-2.27-9.4-.16-1.57-.23-3.13-.55-4.62-.7-3.37-2.82-4.86-6.27-4.7-3.76.16-6.42,2.19-8.54,5.09-2.51,3.45-3.84,7.44-4.31,11.67-1.02,9.01.39,17.62,5.01,25.61,2.35,4.07,5.4,7.36,9.63,9.48,5.09,2.43,10.1,2.19,14.96-.55,2.35-1.33,4.54-3.13,6.81-4.7.08-.23.39-.47.7-.7Z"></path><path d="m394.94,169.93v-3.52h30.15v55.14c0,.94.08,1.88.23,2.82.63,3.76,2.35,5.56,6.03,6.42q1.72.39,1.72,2.11v1.33h-36.26v-2.98c0-.16.23-.31.39-.39,4.86-1.41,6.11-5.17,6.11-9.63v-42.45c0-.78-.08-1.64-.23-2.43-.31-2.98-2.04-4.78-4.86-5.56-1.02-.23-2.11-.55-3.29-.86Z"></path><path class="cls-1" d="m425.01,153.72c0,6.11-4.86,10.89-10.89,10.89s-10.73-4.78-10.73-10.89,4.7-11.12,10.89-11.12c5.95.08,10.73,5.01,10.73,11.12Z"></path></svg> 