<?xml version="1.0" encoding="UTF-8"?> <svg xmlns="http://www.w3.org/2000/svg" id="Layer_1" width="600" height="400" viewBox="0 0 600 400"><defs><style>.cls-1{fill:#3a357e;}</style></defs><polygon class="cls-1" points="359 264.93 339.34 159.81 304.52 264.93 359 264.93"></polygon><polygon class="cls-1" points="300.51 219.81 336.75 100 300.49 100 261.13 100 300.49 219.75 300.51 219.81"></polygon><polygon class="cls-1" points="382.37 264.93 382.37 100 347.29 100 380.44 264.93 382.37 264.93"></polygon><polygon class="cls-1" points="296.71 264.93 260.64 159.47 241.66 264.93 296.71 264.93"></polygon><polygon class="cls-1" points="250.86 100 218.48 100 218.48 264.93 220.18 264.93 250.86 100"></polygon><polygon class="cls-1" points="237.01 271.86 231.14 290.56 225.14 271.86 222.52 271.86 216.94 299.63 221.7 299.63 224.69 284.67 230.27 299.99 232.03 299.99 237.62 284.67 240.5 299.63 245.27 299.63 239.61 271.86 237.01 271.86"></polygon><path class="cls-1" d="m255.06,278.96c-2.76,0-5.13.99-7.11,2.97s-2.96,4.58-2.96,7.77.9,5.77,2.7,7.58c1.8,1.81,4.24,2.72,7.34,2.72,3.3,0,5.79-.68,7.46-2.03l-1.84-3.62c-1.12,1.12-2.77,1.69-4.92,1.69-1.73,0-3.1-.44-4.13-1.34s-1.58-2.15-1.67-3.77h14.49c.27-1.18.39-2.05.39-2.62,0-2.71-.89-4.95-2.67-6.7-1.78-1.75-4.15-2.63-7.09-2.63Zm-4.95,8.4c.66-2.97,2.34-4.44,5.04-4.45,2.95,0,4.6,1.48,4.92,4.45h-9.96Z"></path><path class="cls-1" d="m280.19,279.89c-1.26-.63-2.66-.95-4.2-.95-2.81,0-5.14,1.01-7,3.02-1.87,2.02-2.8,4.63-2.8,7.83s.81,5.71,2.43,7.5c1.62,1.79,3.85,2.69,6.67,2.69,1.01,0,1.96-.15,2.9-.48.94-.33,1.6-.7,1.99-1.13v1.23h4.73v-28.97l-4.73,1.14v8.12Zm0,14.86c-.2.28-.63.56-1.29.82-.66.28-1.23.41-1.68.41-4.07,0-6.1-2.11-6.1-6.32,0-2.15.51-3.81,1.53-4.97,1.02-1.16,2.48-1.73,4.38-1.73,1.09,0,2.15.41,3.16,1.22v10.57Z"></path><polygon class="cls-1" points="286.6 283.21 289.19 283.21 289.19 299.61 289.19 299.62 293.98 299.62 293.98 279.33 286.6 279.33 286.6 283.21"></polygon><path class="cls-1" d="m291.64,271.47c-.76,0-1.4.27-1.94.8-.54.54-.8,1.19-.8,1.94s.27,1.41.8,1.94c.54.54,1.19.8,1.94.8s1.41-.27,1.94-.8c.54-.54.8-1.19.8-1.94s-.27-1.41-.8-1.94c-.54-.54-1.19-.8-1.94-.8Z"></path><path class="cls-1" d="m313.3,293.39v-4.34c0-3.93-.72-6.59-2.15-8-1.44-1.41-3.71-2.11-6.8-2.11-2.25,0-4.18.39-5.81,1.18l1.02,3.68c1.21-.59,2.69-.89,4.47-.89,3.02,0,4.53,1.2,4.53,3.58-.76-.19-1.42-.29-1.97-.29-3.25,0-5.75.67-7.51,1.99-1.76,1.32-2.64,3.16-2.64,5.51,0,2,.62,3.55,1.88,4.64,1.25,1.09,2.97,1.64,5.15,1.64,1.16,0,2.28-.22,3.34-.67,1.06-.45,1.81-1.02,2.24-1.73.19.59.56,1.14,1.09,1.64.55.51,1.16.76,1.84.76.62,0,1.17-.09,1.65-.24.48-.15.91-.57,1.3-1.25-1.08-.7-1.63-2.39-1.63-5.09Zm-4.7-1.43c0,2.84-1.42,4.26-4.26,4.26-2.11,0-3.16-.91-3.16-2.73,0-2.45,1.87-3.68,5.6-3.68.4,0,1.02.09,1.82.25v1.9Z"></path><path class="cls-1" d="m332.3,273.7c-2.02-1.35-5.23-2.02-9.6-2.02-.56,0-2.47.08-5.76.21v27.72h4.92v-10.21c.94.09,1.69.13,2.23.13,7.49,0,11.24-3.19,11.24-9.55,0-2.84-1.01-4.95-3.04-6.29Zm-3.54,10.33c-1.03.76-2.67,1.13-4.92,1.13-.48,0-1.14-.05-1.97-.13v-8.88c.49-.07.99-.1,1.49-.11,4.63,0,6.95,1.44,6.95,4.32,0,1.7-.52,2.92-1.55,3.67Z"></path><path class="cls-1" d="m344.29,278.95c-2.92,0-5.29.98-7.07,2.92-1.79,1.94-2.68,4.46-2.68,7.56s.85,5.75,2.57,7.68c1.7,1.93,4.1,2.89,7.18,2.89s5.39-.96,7.12-2.86c1.73-1.91,2.6-4.48,2.6-7.71s-.85-5.8-2.56-7.67-4.09-2.81-7.17-2.81Zm3.51,15.44c-.86,1.16-2.04,1.74-3.51,1.74-3.22,0-4.83-2.23-4.83-6.7,0-2.09.44-3.71,1.3-4.86.87-1.16,2.05-1.74,3.52-1.74,3.21,0,4.81,2.2,4.81,6.61,0,2.15-.43,3.8-1.29,4.96Z"></path><path class="cls-1" d="m364.19,287.76c-1.78-.7-2.94-1.26-3.49-1.68-.55-.41-.81-.88-.81-1.4,0-1.31.82-1.97,2.48-1.97,1.85,0,3.28.44,4.32,1.32l1.36-3.68c-1.86-.95-3.84-1.42-5.95-1.42s-3.79.49-5.13,1.47c-1.34.98-2.01,2.35-2.01,4.1,0,2.61,1.75,4.64,5.25,6.1,1.6.67,2.68,1.25,3.24,1.74.56.5.83,1.13.83,1.9,0,1.31-.93,1.97-2.77,1.97s-3.37-.57-4.79-1.69l-1.69,3.77c1.27.68,2.32,1.13,3.15,1.35.81.22,1.9.34,3.25.34,2.39,0,4.29-.54,5.69-1.62,1.39-1.08,2.09-2.57,2.09-4.44,0-1.42-.39-2.62-1.18-3.62-.78-1-2.06-1.85-3.84-2.55Z"></path><path class="cls-1" d="m379.88,295.99c-1.14,0-1.93-.3-2.38-.9-.45-.59-.68-1.62-.68-3.07v-8.88h5.56v-3.8h-5.56v-5.87l-4.73,1.74v4.13h-2.35v3.8h2.35v10.26c0,2.11.55,3.73,1.63,4.87,1.08,1.14,2.63,1.71,4.65,1.71s3.59-.18,4.69-.57v-4.36c-.99.62-2.04.93-3.18.93Z"></path></svg> 