<?xml version="1.0" encoding="UTF-8"?> <svg xmlns="http://www.w3.org/2000/svg" id="Layer_1" width="100" height="17.28" viewBox="0 0 100 17.28"><defs><style>.cls-1{fill:#3a357e;}</style></defs><path class="cls-1" d="m27.47,6.23c-.18.31-.35.59-.51.88-.52.9-1.03,1.79-1.55,2.69-.17.29-.34.59-.51.88-.03.05-.06.1-.1.15-.08.09-.15.09-.22,0-.09-.13-.17-.26-.24-.39-.48-.83-.97-1.67-1.45-2.5-.32-.55-.64-1.1-.95-1.66,0,0-.02-.01-.03-.03,0,.01-.02.02-.02.04,0,.19.02.38.03.56,0,1.94,0,3.89,0,5.83q0,.29-.3.29c-.23,0-.47,0-.7,0-.14,0-.16-.03-.17-.16,0-.04,0-.08,0-.12,0-2.74,0-5.48,0-8.22q0-.27.26-.27c.29,0,.58,0,.87,0,.12,0,.19.05.25.15.42.73.85,1.45,1.27,2.18.4.69.8,1.39,1.2,2.09.03.05.06.09.11.16.08-.14.16-.27.23-.39.37-.63.73-1.27,1.1-1.9.37-.64.73-1.28,1.1-1.92.05-.08.1-.16.14-.25.04-.08.1-.13.2-.13.34,0,.69,0,1.03,0,.12,0,.14.03.15.15,0,.04,0,.09,0,.13,0,2.73,0,5.47,0,8.2q0,.28-.28.28c-.23,0-.47,0-.7,0-.16,0-.18-.02-.18-.18,0-.05,0-.1,0-.15,0-1.8,0-3.6,0-5.4v-1Z"></path><path class="cls-1" d="m76.77,8.38s.05.06.07.07c.17.13.34.25.5.39.09.08.17.19.24.29.24.38.38.79.38,1.25,0,.45-.07.88-.29,1.28-.09.16-.21.31-.33.46-.34.42-.78.66-1.3.78-.15.03-.31.06-.46.06-1.16,0-2.32,0-3.48,0,0,0-.01,0-.02,0-.21,0-.22-.01-.22-.21,0-.14,0-.28,0-.42,0-2.63,0-5.26,0-7.89q0-.29.28-.29c.99,0,1.98,0,2.97,0,.74,0,1.39.25,1.91.8.31.33.47.72.56,1.15.11.55.05,1.07-.21,1.56-.09.17-.23.32-.35.48-.07.08-.15.16-.23.24Zm-3.75,2.05c0,.4,0,.81,0,1.21,0,.16.02.18.18.18.75,0,1.51.01,2.26,0,.52-.01.93-.25,1.18-.74.12-.23.15-.47.14-.72,0-.73-.58-1.31-1.3-1.32-.75,0-1.51,0-2.26,0-.18,0-.2.02-.2.2,0,.4,0,.8,0,1.19Zm0-3.84c0,.12,0,.23,0,.35,0,.27,0,.53,0,.8,0,.14.01.15.15.17.12.02.23.03.35.03.49,0,.99,0,1.48,0,.14,0,.29-.01.43-.04.27-.05.51-.17.69-.38.29-.35.39-.75.3-1.21-.11-.52-.63-1.02-1.23-1-.65.02-1.31,0-1.97,0-.19,0-.2.02-.2.2,0,.36,0,.72,0,1.08Z"></path><path class="cls-1" d="m95.01,6.99c-.03.07-.05.11-.06.15-.35,1.22-.7,2.45-1.05,3.67-.19.65-.37,1.31-.56,1.96-.05.18-.06.19-.26.19-.26,0-.51,0-.77,0-.2,0-.22,0-.28-.21-.1-.34-.19-.67-.28-1.01-.1-.37-.2-.74-.31-1.1-.21-.75-.41-1.51-.62-2.26-.22-.78-.44-1.57-.65-2.35-.05-.19-.11-.38-.16-.58-.01-.04-.01-.09-.02-.15.06,0,.1-.02.15-.02.24,0,.49,0,.73,0,.17,0,.19.01.23.18.16.6.32,1.2.48,1.8.29,1.09.58,2.17.87,3.26.08.28.15.57.22.85,0,.03.02.05.05.08.05-.16.09-.32.14-.48.29-1.03.59-2.06.88-3.1.22-.78.44-1.56.65-2.33,0-.03.02-.06.03-.1.04-.12.07-.14.19-.14.25,0,.5,0,.75,0,.12,0,.14.02.18.14.16.57.33,1.14.49,1.71.26.91.51,1.81.77,2.72.14.51.28,1.01.42,1.52,0,.03.02.05.03.09.02-.01.04-.02.04-.03.2-.75.4-1.51.6-2.26.27-1.03.55-2.05.83-3.08.05-.2.1-.41.16-.61.04-.16.07-.18.23-.18.24,0,.49,0,.73,0,.16,0,.17.03.13.18-.14.48-.27.97-.41,1.46-.23.84-.47,1.69-.7,2.53-.23.82-.45,1.64-.68,2.47-.08.3-.17.6-.25.9-.04.13-.06.15-.2.15-.28,0-.57,0-.85,0-.16,0-.18-.01-.22-.17-.24-.84-.48-1.68-.72-2.52-.26-.9-.52-1.81-.78-2.71-.04-.15-.08-.3-.12-.45,0-.03-.02-.06-.05-.12Z"></path><path class="cls-1" d="m66.57,7.52s-.05-.05-.06-.08c-.26-.44-.63-.75-1.08-.99-.29-.16-.61-.23-.94-.26-.5-.04-1,0-1.47.22-.24.11-.45.24-.64.41-.6.54-.93,1.21-.99,2.02-.03.4,0,.8.1,1.18.12.44.34.84.66,1.17.33.34.71.6,1.17.74.43.13.87.19,1.32.12.21-.03.43-.07.63-.13.5-.15.9-.46,1.2-.88.17-.23.27-.49.34-.77.01-.04,0-.09,0-.14-.08,0-.14-.01-.21-.01-.74,0-1.48,0-2.22,0-.24,0-.24,0-.25-.24,0-.19,0-.38,0-.56,0-.13.03-.15.16-.16.03,0,.07,0,.1,0,1.07,0,2.14,0,3.22,0,.26,0,.26,0,.26.26,0,.6-.1,1.19-.33,1.75-.1.24-.25.45-.41.66-.24.32-.53.58-.87.78-.42.24-.88.4-1.36.47-.79.11-1.56.04-2.3-.29-.99-.43-1.62-1.19-2-2.17-.22-.58-.31-1.18-.25-1.79.06-.77.31-1.48.76-2.11.27-.38.59-.69.97-.94.55-.35,1.15-.54,1.8-.6.47-.04.93.01,1.38.14.55.16,1.04.44,1.46.83.24.23.45.47.61.76.08.13.08.14-.05.22-.21.13-.42.26-.62.38-.03.02-.07.03-.11.05Z"></path><path class="cls-1" d="m37.22,9.12c0,.66-.17,1.28-.46,1.86-.19.39-.44.74-.75,1.03-.57.55-1.25.92-2.04,1.04-.63.1-1.25.05-1.86-.16-.93-.34-1.63-.95-2.09-1.83-.24-.46-.38-.94-.46-1.45-.08-.57-.01-1.14.15-1.69.2-.67.54-1.27,1.04-1.75.55-.53,1.2-.87,1.96-.99.2-.03.41-.07.61-.06.46.02.92.07,1.35.24.6.23,1.11.58,1.53,1.06.47.54.78,1.18.91,1.89.05.26.07.54.1.8Zm-1.07-.08c0-.09.02-.24,0-.38-.15-1-.67-1.75-1.56-2.22-.65-.35-1.36-.35-2.06-.16-.45.12-.82.37-1.14.71-.39.4-.62.88-.75,1.42-.1.4-.09.8-.03,1.2.11.85.56,1.49,1.24,1.98.35.25.75.38,1.17.43.67.08,1.29-.06,1.86-.43.42-.27.75-.64.98-1.09.23-.45.34-.92.3-1.48Z"></path><path class="cls-1" d="m45.46,7.33c0,1.8,0,3.58,0,5.35q0,.27-.28.27c-.19,0-.39,0-.58,0-.15,0-.17-.02-.17-.18,0-.03,0-.07,0-.1,0-2.37,0-4.75,0-7.12q0-.28.27-.28c.13,0,.26,0,.38,0,.12,0,.2.04.26.14.35.54.71,1.07,1.06,1.61.45.68.91,1.35,1.36,2.03.37.55.73,1.11,1.1,1.67.03.04.07.08.1.12.01,0,.02,0,.03-.01v-.19c0-1.69,0-3.39,0-5.08q0-.28.29-.28c.19,0,.39,0,.58,0,.14,0,.16.03.17.17,0,.04,0,.08,0,.12,0,2.37,0,4.74,0,7.11q0,.28-.28.29c-.13,0-.26,0-.38,0-.12,0-.2-.04-.26-.14-.18-.29-.37-.58-.56-.86-.32-.48-.63-.95-.95-1.42-.69-1.04-1.37-2.08-2.06-3.12-.01-.02-.03-.04-.07-.08Z"></path><path class="cls-1" d="m54.81,7.34s-.01.07,0,.1c0,.19.03.39.03.58,0,1.56,0,3.11,0,4.67q0,.27-.28.27c-.19,0-.39,0-.58,0-.15,0-.17-.02-.17-.18,0-.07,0-.14,0-.22,0-2.34,0-4.68,0-7.03,0-.02,0-.03,0-.05,0-.19.02-.21.21-.21.16,0,.31,0,.47,0,.09,0,.16.03.21.11.37.56.74,1.12,1.11,1.68.32.48.65.97.97,1.45.47.71.94,1.42,1.42,2.13.05.08.1.15.15.23.01,0,.02,0,.04-.01v-.18c0-1.71,0-3.42,0-5.13q0-.28.29-.28c.18,0,.37,0,.55,0,.14,0,.16.03.17.17,0,.04,0,.08,0,.12,0,2.37,0,4.74,0,7.11q0,.28-.28.28c-.09,0-.18,0-.27,0-.19.02-.31-.05-.41-.21-.25-.4-.51-.79-.77-1.18-.59-.89-1.18-1.78-1.77-2.67-.33-.5-.66-1.01-1-1.51,0,0-.02-.01-.05-.04Z"></path><path class="cls-1" d="m82.64,9.91c.57,1.01,1.14,2,1.71,3.02-.06.01-.1.03-.15.03-.28,0-.56,0-.83,0-.11,0-.18-.05-.24-.14-.41-.73-.83-1.45-1.23-2.19-.22-.41-.55-.6-1.01-.59-.26,0-.51,0-.77,0-.23,0-.24,0-.24.23,0,.8,0,1.61,0,2.41q0,.28-.28.28c-.19,0-.39,0-.58,0-.14,0-.16-.03-.17-.17,0-.04,0-.08,0-.12,0-2.37,0-4.74,0-7.11q0-.28.28-.28c.89,0,1.78,0,2.67,0,.56,0,1.03.19,1.46.53.54.43.81,1,.87,1.69.04.57-.1,1.08-.42,1.55-.25.36-.56.64-.97.81-.02.01-.05.02-.1.05Zm-2.75-2.23c0,.38,0,.76,0,1.15,0,.04,0,.09,0,.13,0,.07.04.11.12.11.04,0,.08,0,.12,0,.56,0,1.11,0,1.67,0,.48,0,.83-.23,1.09-.62.37-.56.24-1.42-.23-1.83-.24-.2-.5-.33-.81-.34-.58,0-1.17,0-1.75,0-.19,0-.2.02-.2.2,0,.4,0,.8,0,1.2Z"></path><path class="cls-1" d="m41.95,9.92c.57,1,1.13,2,1.7,3.01-.05.02-.08.03-.12.03-.29,0-.58,0-.87,0-.09,0-.15-.04-.2-.12-.37-.67-.74-1.33-1.12-2-.08-.14-.17-.27-.26-.4-.18-.27-.45-.39-.77-.4-.32,0-.63,0-.95,0-.15,0-.17.02-.17.18,0,.43,0,.85,0,1.28,0,.42,0,.83,0,1.25,0,.21-.01.22-.23.22-.19,0-.38,0-.57,0-.23,0-.24,0-.24-.25,0-.03,0-.06,0-.08,0-2.35,0-4.71,0-7.06q0-.29.29-.29c.92,0,1.84,0,2.77,0,.49,0,.91.19,1.29.47.5.37.78.89.89,1.49.13.7-.03,1.34-.47,1.91-.18.23-.4.42-.64.57-.08.05-.17.08-.25.13-.03.02-.06.04-.1.07Zm-1.63-3.64c-.32,0-.63,0-.95,0-.14,0-.16.02-.17.16,0,.02,0,.04,0,.07,0,.77,0,1.55,0,2.32,0,.04,0,.08,0,.12,0,.07.04.11.11.12.04,0,.09,0,.13,0,.55,0,1.1,0,1.65,0,.53,0,.91-.27,1.15-.69.24-.42.25-.89.03-1.34-.08-.17-.2-.3-.33-.43-.22-.21-.48-.33-.79-.33-.28,0-.55,0-.83,0Z"></path><path class="cls-1" d="m85.12,9.12c0-1.19,0-2.38,0-3.57q0-.27.27-.27c1.28,0,2.57,0,3.85,0,.25,0,.25,0,.25.25,0,.19,0,.39,0,.58,0,.14-.01.15-.15.17-.04,0-.09.02-.13.02-.48,0-.97-.02-1.45-.02-.47,0-.93,0-1.4,0-.19,0-.21.02-.21.21,0,.63,0,1.25,0,1.88,0,.19.02.2.2.2.13,0,.27.02.4.03.08,0,.16,0,.23,0,.12,0,.23,0,.35,0,.09,0,.19-.02.28-.02.19,0,.38.02.57.02.27,0,.53-.01.8-.02.04,0,.09,0,.13,0,.11,0,.14.04.14.14,0,.25,0,.5,0,.75,0,.11-.04.13-.15.12-.13,0-.25-.02-.38-.02-.77,0-1.53,0-2.3,0-.04,0-.09,0-.13,0-.13,0-.15.03-.14.16,0,.08,0,.15,0,.23,0,.58,0,1.15,0,1.73,0,.05,0,.1,0,.15,0,.07.04.11.11.11.06,0,.11,0,.17,0,.96,0,1.91,0,2.87,0,.25,0,.25,0,.25.25,0,.19,0,.39,0,.58,0,.14-.03.16-.17.17-.03,0-.07,0-.1,0-1.3,0-2.6,0-3.9,0q-.27,0-.27-.27c0-1.19,0-2.38,0-3.57Z"></path><path class="cls-1" d="m52.43,9.13c0,1.19,0,2.38,0,3.57q0,.26-.26.26c-.2,0-.4,0-.6,0-.15,0-.17-.02-.18-.17,0-.04,0-.08,0-.12,0-2.37,0-4.73,0-7.1q0-.29.28-.29c.16,0,.32,0,.48,0q.27,0,.27.28c0,.69,0,1.38,0,2.07v1.49Z"></path><path class="cls-1" d="m6.47,2.79c.07.02.14.04.21.05.08.02.16.04.25.06.08.02.16.04.25.05.09.02.18.04.28.05.08.01.16.03.24.04.17.03.34.05.53.07.06,0,.13.01.19.02.14.02.28.03.42.04.08,0,.15.01.23.02.14.01.29.02.43.03.07,0,.14,0,.21,0,.22,0,.44.01.67.01s.44,0,.66-.01c.08,0,.16,0,.24-.01.13,0,.26-.01.38-.02.1,0,.2-.01.3-.02.09,0,.17-.02.25-.02.44-.05.86-.1,1.25-.18,0,0,.02,0,.03,0,.5-.1.94-.21,1.31-.34-.63-.24-2.15-.69-4.42-.69s-3.77.45-4.4.69c.03.01.07.02.1.04.12.04.25.08.39.11Z"></path><path class="cls-1" d="m10.37,4.51h-1.43c-1.33,0-2.41,1.08-2.41,2.41v2.57c.5-.72.88-1.25.89-1.26.02-.03.07-.04.11,0,.38.3,3.06,2.3,3.1,2.33.04.03.07,0,.07,0l2.8-4.02-.62-.45s-.03-.08.01-.1l2.2-.75s.07.01.07.05l-.04,2.33s-.05.07-.09.04l-.54-.39c-.68.97-3.51,5.03-3.54,5.07-.03.05-.07.04-.11,0-.04-.03-2.54-1.93-3.04-2.3-.06-.05-.1-.04-.14.02l-1.14,1.62v5.17c1.06.28,2.39.44,3.83.44,3.46,0,6.26-.94,6.26-2.11V2.92c-.91,1.16-3.75,1.59-6.26,1.59Z"></path><path class="cls-1" d="m4.11,15.13v.04c0,.63.82,1.2,2.13,1.58v-4.66l-2.13,3.03Z"></path><path class="cls-1" d="m10.37,0c-3.46,0-6.26.94-6.26,2.11v2.09c-.23-.03-.48-.06-.75-.05-1.41.02-2.42.74-2.99,1.97-.75,1.63-.23,3.53.34,4.47.88,1.44,2.38,2.17,3.38,2.38.47-.68,2.14-3.05,2.14-3.05v-2.99c0-1.49,1.21-2.71,2.71-2.71h1.43c3.46,0,6.26-.79,6.26-2.11,0-1.16-2.8-2.11-6.26-2.11Zm-6.26,11.02c-.56-.22-1.43-.73-1.93-1.53-.46-.74-.52-1.92-.19-2.55.27-.53.72-.9,1.36-.92.29,0,.56.04.77.08v4.92ZM15.12,2.78s-.04.02-.07.03c-.06.03-.13.05-.2.08-.38.14-.84.26-1.37.36,0,0-.02,0-.03,0-.38.07-.8.13-1.25.18-.08,0-.17.02-.25.02-.1,0-.2.02-.3.02-.13,0-.25.02-.38.02-.08,0-.16,0-.24.01-.22,0-.44.01-.66.01s-.45,0-.67-.01c-.07,0-.14,0-.21,0-.15,0-.29-.02-.43-.03-.08,0-.16-.01-.23-.02-.14-.01-.28-.03-.42-.04-.06,0-.13-.01-.19-.02-.18-.02-.36-.05-.53-.07-.08-.01-.16-.03-.24-.04-.09-.02-.19-.03-.28-.05-.08-.02-.17-.03-.25-.05-.09-.02-.17-.04-.25-.06-.07-.02-.14-.03-.21-.05-.14-.04-.26-.08-.39-.11-.05-.01-.09-.03-.13-.05-.09-.03-.17-.06-.25-.09-.02,0-.04-.01-.05-.02-.52-.22-.82-.46-.82-.68,0-.58,2.48-1.42,5.55-1.42s5.55.85,5.55,1.42c0,.23-.3.47-.8.68Z"></path></svg> 