<?xml version="1.0" encoding="UTF-8"?> <svg xmlns="http://www.w3.org/2000/svg" id="Layer_2" width="100" height="18.82" viewBox="0 0 100 18.82"><defs><style>.cls-1{fill:#fff;}.cls-2{fill:#f68026;}.cls-3{fill:#919396;}.cls-4{fill:#909195;}.cls-5{fill:#5b5e5f;}</style></defs><rect class="cls-3" x="28.57" y=".2" width=".39" height="18.41"></rect><path d="m39.44,8.46c0,1.82-1.38,3.26-3.8,3.26h-4.46V.17h4.33c2.25,0,3.43,1.37,3.43,2.95,0,1.03-.48,1.87-1.4,2.43,1.2.58,1.9,1.61,1.9,2.91Zm-6.69-6.93v3.43h2.8c1.12,0,1.82-.6,1.82-1.72s-.73-1.72-1.88-1.72h-2.73Zm2.98,8.83c1.32,0,2.13-.9,2.13-2.01s-.8-2.02-2.08-2.02h-3.03v4.03h2.98Z"></path><path d="m49.29,11.72l-1.03-2.61h-5.13l-1.05,2.61h-1.67L45.14.17h1.13l4.71,11.56h-1.7Zm-5.61-3.98h4.03l-2.02-5.06-2.02,5.06Z"></path><path d="m60.08.17h1.57v11.56h-1.1l-6.43-8.59v8.59h-1.57V.17h1.1l6.43,8.54V.17Z"></path><path d="m72.8,11.72h-2.08l-5.58-5.76v5.76h-1.57V.17h1.57v5.28L70.61.17h2.03l-5.73,5.51,5.89,6.04Z"></path><path d="m73.7,11.72V.17h1.57v11.56h-1.57Z"></path><path d="m85.14.17h1.57v11.56h-1.1l-6.43-8.59v8.59h-1.57V.17h1.1l6.43,8.54V.17Z"></path><path d="m94.34,5.56h5.66v.23c0,4.01-2.3,6.09-5.55,6.09s-5.81-2.63-5.81-5.96,2.55-5.93,5.91-5.93c1.85,0,3.46.75,4.5,2.06l-1.08,1.08c-.73-1.07-2-1.65-3.41-1.65-2.55,0-4.3,1.83-4.3,4.43s1.77,4.45,4.16,4.45c2.21,0,3.66-1.18,3.93-3.38h-4.01v-1.43Z"></path><path d="m31.97,18.02h3.06v.72h-3.85v-5.78h3.8v.72h-3.02v1.77h2.79v.68h-2.79v1.9Z"></path><path d="m40.78,18.74h-.92l-1.68-2.45-1.77,2.45h-.88l2.16-2.96-2.06-2.82h.93l1.64,2.27,1.61-2.27h.88l-1.99,2.78,2.08,3Z"></path><path d="m40.94,15.85c0-1.66,1.23-2.97,2.91-2.97.91,0,1.58.33,2.11.87l-.54.54c-.37-.41-.91-.66-1.57-.66-1.22,0-2.1.93-2.1,2.22s.88,2.22,2.1,2.22c.72,0,1.24-.26,1.62-.67l.54.53c-.52.55-1.24.88-2.15.88-1.67,0-2.91-1.32-2.91-2.97Z"></path><path d="m50.55,12.96h.78v5.78h-.78v-2.63h-2.95v2.63h-.78v-5.78h.78v2.43h2.95v-2.43Z"></path><path d="m56.57,18.74l-.52-1.31h-2.56l-.52,1.31h-.83l2.36-5.78h.57l2.36,5.78h-.85Zm-2.81-1.99h2.02l-1.01-2.53-1.01,2.53Z"></path><path d="m61.9,12.96h.78v5.78h-.55l-3.21-4.3v4.3h-.78v-5.78h.55l3.21,4.27v-4.27Z"></path><path d="m66.47,15.65h2.83v.12c0,2.01-1.15,3.05-2.77,3.05s-2.91-1.32-2.91-2.98,1.27-2.96,2.96-2.96c.92,0,1.73.37,2.25,1.03l-.54.54c-.37-.53-1-.82-1.71-.82-1.27,0-2.15.92-2.15,2.21s.88,2.22,2.08,2.22c1.11,0,1.83-.59,1.96-1.69h-2.01v-.72Z"></path><path d="m70.99,18.02h3.06v.72h-3.85v-5.78h3.8v.72h-3.02v1.77h2.79v.68h-2.79v1.9Z"></path><path class="cls-1" d="m8.37.21h-.05s.03,0,.05,0h0Z"></path><polygon class="cls-4" points="26.26 .23 14.58 .23 14.58 18.62 26.38 18.62 26.38 14.23 19.26 14.23 19.26 11.5 25.57 11.5 25.57 7.21 19.26 7.21 19.26 4.63 26.26 4.63 26.26 .23"></polygon><rect class="cls-2" y=".23" width="4.15" height="18.39"></rect><path class="cls-5" d="m11.65,9c1-.92,1.63-2.27,1.63-3.78C13.28,2.48,11.2.26,8.63.23c-.02,0-.03,0-.05,0h-3.73v4.11h2.43c.75.05,1.35.67,1.35,1.44s-.59,1.38-1.35,1.43h0s-2.43,0-2.43,0v3.98h2.9c.81.06,1.45.73,1.45,1.55s-.64,1.5-1.45,1.55h0s-2.9,0-2.9,0v4.32h4.03c2.76,0,4.99-2.35,4.99-5.25,0-1.82-.89-3.43-2.23-4.37Z"></path></svg> 