<?xml version="1.0" encoding="UTF-8"?> <svg xmlns="http://www.w3.org/2000/svg" id="Layer_2" width="8.33in" height="5.56in" viewBox="0 0 600 400"><defs><style>.cls-1{fill:#ed1c24;}.cls-2{fill:#231f20;}</style></defs><g id="Layer_2-2"><g id="Layer_1-2"><path class="cls-2" d="m243.68,178.25v-.14c.05-1.9-.3-3.79-1.02-5.54-.69-1.56-1.73-2.94-3.03-4.04-1.48-1.23-3.14-2.23-4.93-2.95-2.16-.88-4.39-1.61-6.66-2.19-2.11-.56-3.85-1.05-5.25-1.47-1.14-.31-2.24-.75-3.28-1.31-.69-.36-1.26-.91-1.65-1.58-.31-.64-.46-1.35-.44-2.07v-.14c0-1.22.58-2.36,1.58-3.06,1.05-.82,2.63-1.23,4.74-1.23,2.17.02,4.32.46,6.32,1.31,2.27.96,4.43,2.14,6.46,3.54l5.61-8.17c-2.5-2-5.3-3.56-8.31-4.63-3.19-1.11-6.55-1.65-9.93-1.61-2.36-.03-4.7.33-6.94,1.05-1.99.63-3.83,1.66-5.42,3.01-1.48,1.29-2.68,2.88-3.5,4.67-.86,1.91-1.28,3.98-1.25,6.07v.14c-.07,2.1.33,4.19,1.16,6.13.75,1.61,1.87,3.02,3.28,4.11,1.56,1.18,3.29,2.12,5.13,2.77,2.21.81,4.47,1.49,6.77,2.03,2.06.52,3.75,1.01,5.03,1.47,1.06.36,2.07.83,3.03,1.4.62.36,1.13.88,1.47,1.51.27.58.4,1.22.39,1.86v.14c.04,1.39-.67,2.69-1.86,3.4-1.24.82-2.98,1.23-5.23,1.23-2.67.03-5.32-.52-7.76-1.61-2.48-1.16-4.81-2.63-6.91-4.38l-6.42,7.64c2.85,2.61,6.19,4.62,9.83,5.93,3.54,1.28,7.26,1.93,11.02,1.93,2.47.03,4.93-.32,7.29-1.02,2.06-.61,3.98-1.61,5.66-2.95,1.58-1.29,2.84-2.92,3.7-4.77.91-2.04,1.35-4.26,1.31-6.49h.02-.01Zm57.17-10.04v-.14c.03-3.38-.63-6.74-1.93-9.86-1.25-3-3.08-5.73-5.4-8-2.38-2.31-5.18-4.15-8.25-5.4-6.73-2.67-14.23-2.67-20.96,0-6.2,2.52-11.14,7.4-13.73,13.57-1.33,3.11-2,6.46-1.99,9.85v.14c-.03,3.38.63,6.74,1.93,9.86,1.25,3,3.09,5.73,5.41,8,2.38,2.31,5.18,4.15,8.25,5.4,3.32,1.36,6.87,2.04,10.46,2,3.6.04,7.17-.64,10.5-2,6.2-2.51,11.14-7.4,13.72-13.57,1.32-3.12,1.99-6.48,1.96-9.86v.02h.03Zm-11.29.14c.02,2.03-.35,4.04-1.09,5.93-.7,1.8-1.72,3.45-3.02,4.88-1.31,1.42-2.9,2.54-4.67,3.3-1.88.81-3.92,1.22-5.97,1.19-2.07.03-4.11-.39-6-1.23-3.59-1.61-6.39-4.57-7.79-8.25-.73-1.9-1.1-3.93-1.09-5.97v-.14c-.01-2.03.36-4.04,1.09-5.93.7-1.8,1.72-3.45,3.02-4.88,1.3-1.41,2.88-2.54,4.63-3.3,1.89-.82,3.94-1.22,6-1.19,2.05-.02,4.09.4,5.97,1.23,3.61,1.59,6.43,4.56,7.83,8.25.73,1.9,1.1,3.93,1.09,5.97v.14h0Zm60.68,3.02v-27.73h-10.81v28.15c0,3.93-.93,6.88-2.8,8.85s-4.47,2.95-7.79,2.94c-3.33,0-5.92-1.02-7.79-3.06s-2.81-5.07-2.81-9.09v-27.79h-10.81v28.08c0,7.26,1.9,12.71,5.69,16.36s8.99,5.48,15.58,5.48c3.03.04,6.04-.43,8.91-1.37,2.56-.84,4.89-2.26,6.81-4.14,1.94-1.95,3.41-4.3,4.32-6.89,1.07-3.14,1.58-6.44,1.51-9.76v-.02h-.01Zm50.13,21.41l-12.01-17.55c3.01-1.08,5.65-2.99,7.62-5.51,1.94-2.5,2.91-5.74,2.91-9.72v-.14c0-5.1-1.63-9.08-4.88-11.94s-7.81-4.28-13.66-4.28h-22.46v49.14h10.81v-15.73h8.49l10.53,15.73h12.65Zm-12.43-32.22c.08,1.92-.7,3.78-2.14,5.05-1.43,1.26-3.47,1.89-6.13,1.89h-10.94v-14.11h10.71c2.67,0,4.75.58,6.25,1.75s2.24,2.92,2.24,5.25v.16h.01Zm61.59,24.29l-6.88-6.95c-1.74,1.65-3.69,3.07-5.79,4.21-1.94,1.03-4.31,1.54-7.12,1.54-3.93.05-7.68-1.62-10.28-4.56-1.27-1.44-2.25-3.11-2.91-4.91-.71-1.91-1.07-3.93-1.05-5.97v-.14c-.01-2.03.34-4.04,1.05-5.93.67-1.8,1.67-3.45,2.95-4.88,1.26-1.4,2.8-2.53,4.52-3.3,1.8-.81,3.75-1.21,5.72-1.19,2.32-.03,4.61.47,6.7,1.47,2.13,1.08,4.11,2.45,5.86,4.07l6.88-7.93c-1.13-1.13-2.36-2.16-3.66-3.09-1.34-.95-2.77-1.75-4.28-2.38-1.66-.69-3.39-1.21-5.16-1.54-2.07-.39-4.18-.58-6.28-.56-3.56-.04-7.1.64-10.39,2-3.03,1.26-5.77,3.12-8.06,5.47-2.25,2.33-4.03,5.07-5.25,8.07-1.27,3.13-1.92,6.48-1.89,9.86v.14c-.02,3.39.62,6.75,1.89,9.9,2.43,6.07,7.21,10.91,13.25,13.4,3.18,1.33,6.59,2,10.04,1.97,2.17.02,4.33-.18,6.46-.6,1.83-.37,3.61-.95,5.3-1.75,1.59-.75,3.08-1.68,4.46-2.77,1.4-1.12,2.72-2.34,3.94-3.65h-.02Zm17.65,7.93v-49.14h-10.81v49.14h10.81Zm53.67,0v-49.14h-10.67v30.25l-23.03-30.25h-9.97v49.14h10.67v-31.24l23.8,31.24h9.2Zm54.15-6.95v-21.34h-21.34v9.33h10.89v7.07c-2.76,1.98-6.15,2.97-10.18,2.98-2.06.03-4.1-.37-6-1.16-1.78-.76-3.38-1.87-4.7-3.28-1.35-1.43-2.4-3.12-3.09-4.96-.74-1.99-1.11-4.1-1.09-6.22v-.14c-.01-2.03.36-4.05,1.09-5.94.69-1.8,1.71-3.45,3.02-4.86,1.27-1.38,2.8-2.5,4.49-3.31,1.72-.82,3.61-1.24,5.52-1.23,1.3,0,2.59.11,3.86.35,1.12.22,2.21.55,3.26.98,1.02.43,1.99.94,2.91,1.54.98.64,1.92,1.35,2.81,2.11l6.81-8.22c-1.24-1.06-2.55-2.02-3.94-2.87-1.38-.85-2.85-1.56-4.38-2.11-1.63-.59-3.31-1.03-5.02-1.31-1.98-.32-3.99-.47-6-.46-3.54-.04-7.05.64-10.32,2-9.42,3.94-15.53,13.2-15.45,23.41v.14c-.03,3.46.61,6.89,1.89,10.11,1.21,3,3.01,5.72,5.3,8,2.33,2.28,5.1,4.07,8.14,5.25,3.35,1.3,6.91,1.95,10.5,1.9,4.49,0,8.48-.76,11.97-2.28,3.26-1.38,6.3-3.24,9.02-5.51v.03h.03Zm-336.2,53.39v-32.17h-11.09v31.66c0,2.86-.58,4.93-1.75,6.21s-2.78,1.93-4.84,1.93c-1.67,0-3.31-.44-4.74-1.31-1.58-.99-3.01-2.21-4.25-3.61l-6.81,7.58c1.81,2.11,3.98,3.87,6.42,5.19,2.59,1.46,5.81,2.19,9.65,2.19,2.41.03,4.8-.34,7.09-1.09,2.06-.67,3.95-1.8,5.51-3.3,1.57-1.55,2.79-3.44,3.55-5.51.89-2.5,1.32-5.14,1.26-7.79v.02h0Zm59.86-7.58v-.17c.03-3.38-.63-6.73-1.92-9.85-1.24-3.01-3.08-5.73-5.41-8-2.38-2.31-5.18-4.15-8.25-5.41-3.32-1.36-6.87-2.04-10.46-2-3.6-.04-7.17.64-10.5,2-6.2,2.52-11.13,7.4-13.72,13.57-1.33,3.11-2,6.47-1.98,9.85v.14c-.02,3.38.63,6.74,1.93,9.86,1.25,3,3.08,5.73,5.4,8,2.38,2.31,5.18,4.14,8.25,5.4,6.73,2.67,14.23,2.67,20.96,0,6.2-2.52,11.14-7.4,13.73-13.57,1.32-3.12,1.99-6.48,1.96-9.86v.03h.01Zm-11.29.14c.01,2.03-.36,4.04-1.09,5.93-.69,1.8-1.72,3.45-3.02,4.88-1.31,1.42-2.89,2.54-4.66,3.3-1.89.8-3.92,1.21-5.97,1.19-2.07.03-4.11-.39-6-1.23-3.59-1.61-6.39-4.58-7.79-8.25-.73-1.9-1.1-3.93-1.09-5.96v-.16c-.01-2.03.35-4.04,1.09-5.93.7-1.8,1.72-3.45,3.02-4.88,1.3-1.41,2.88-2.54,4.63-3.3,1.89-.82,3.94-1.23,6-1.2,2.05-.02,4.09.4,5.96,1.23,3.61,1.59,6.43,4.56,7.83,8.25.73,1.9,1.1,3.93,1.09,5.97v.18-.02Zm61.76,3.02v-27.75h-10.81v28.15c0,3.93-.94,6.88-2.81,8.84-1.87,1.97-4.47,2.95-7.79,2.95s-5.92-1.02-7.79-3.06-2.81-5.07-2.81-9.09v-27.79h-10.82v28.08c0,7.26,1.9,12.71,5.69,16.36s8.99,5.47,15.58,5.47c3.03.04,6.04-.42,8.92-1.37,2.55-.85,4.88-2.26,6.81-4.14,1.94-1.95,3.42-4.31,4.32-6.91,1.07-3.14,1.58-6.44,1.51-9.76v.02Zm51.2,21.41l-12-17.55c3.01-1.08,5.65-2.99,7.62-5.51,1.94-2.5,2.91-5.74,2.91-9.72v-.14c0-5.1-1.63-9.08-4.88-11.94s-7.8-4.29-13.64-4.3h-22.47v49.14h10.81v-15.73h8.49l10.53,15.73,12.63.02h0Zm-12.42-32.22c.08,1.92-.71,3.78-2.14,5.05-1.43,1.27-3.47,1.9-6.13,1.89h-10.94v-14.13h10.72c2.67,0,4.75.58,6.25,1.75s2.25,2.92,2.25,5.25v.18h0Zm63.16,32.22v-49.16h-10.66v30.25l-23.03-30.25h-9.97v49.14h10.67v-31.24l23.8,31.24,9.19.02Zm57.39,0l-21.06-49.5h-9.97l-21.06,49.48h11.02c7.09-17.39,7.5-18.5,14.88-36.51,7.47,18.23,7.64,18.76,14.88,36.51l11.31.02Zm40.6,0v-9.76h-24.5v-39.38h-10.81v49.14h35.32-.01Z"></path><path class="cls-1" d="m146.33,173.53l-15.65,9.04-13.93,8.05-16.29,9.4-16.29-9.4-9.86-5.69-19.72-11.38-9.86-5.69,55.74-32.22,36.01,20.79,10.42-6.01,9.3-5.37-55.74-32.16-75.46,43.56v22.75l19.72,11.38,9.86,5.69,19.72,11.38,26.15,15.1,45.88-26.49v-22.73h0Zm-101.61,58.67v-18.82l-7.44-4.3-12.28-7.08v41.57l19.72,11.38,9.86,5.69,26.15,15.1,19.72,11.38,19.72-11.38,26.15-15.1,9.86-5.69,19.72-11.38v-87.12l-16.19,9.36-3.5,2.03v64.36l-9.92,5.73-45.84,26.45-26.15-15.1-19.72-11.38-9.86-5.69h0Z"></path></g></g></svg> 