<?xml version="1.0" encoding="UTF-8"?> <svg xmlns="http://www.w3.org/2000/svg" id="Layer_1" width="599.76" height="400.32" viewBox="0 0 599.76 400.32"><defs><style>.cls-1{fill:#fff;}</style></defs><path class="cls-1" d="m271.65,225.79c.17.19.26.31.37.4.92.69,1.88,1.32,2.75,2.06.52.44.96,1,1.33,1.57,1.33,2.03,2.07,4.23,2.12,6.67.05,2.42-.38,4.71-1.62,6.81-.51.86-1.16,1.66-1.81,2.44-1.85,2.24-4.33,3.51-7.19,4.13-.83.18-1.7.29-2.55.3-6.41.02-12.81.01-19.22.01-.03,0-.06,0-.09,0-1.15-.01-1.21-.07-1.22-1.14,0-.74,0-1.47,0-2.21,0-14.01,0-28.02,0-42.04q0-1.53,1.55-1.53c5.46,0,10.91-.02,16.37,0,4.11.02,7.67,1.35,10.54,4.26,1.71,1.73,2.6,3.83,3.09,6.12.62,2.91.25,5.71-1.18,8.33-.5.92-1.27,1.72-1.96,2.55-.38.45-.83.84-1.28,1.28Zm-20.68,10.93c0,2.15,0,4.3,0,6.45,0,.86.11.97,1.01.97,4.16,0,8.33.08,12.49-.02,2.9-.07,5.14-1.35,6.49-3.93.64-1.23.81-2.5.79-3.85-.05-3.88-3.19-7.01-7.2-7.04-4.16-.04-8.33-.01-12.49,0-1.02,0-1.1.09-1.1,1.07,0,2.12,0,4.24,0,6.37Zm0-20.45c0,.62,0,1.24,0,1.86,0,1.42,0,2.83,0,4.25,0,.73.07.8.83.89.64.08,1.28.15,1.92.16,2.73.02,5.46.02,8.19,0,.79,0,1.6-.07,2.37-.21,1.48-.27,2.81-.9,3.79-2.03,1.63-1.88,2.18-4.02,1.66-6.45-.59-2.78-3.49-5.42-6.79-5.31-3.61.13-7.23.03-10.85.03-1.02,0-1.11.08-1.11,1.06,0,1.92,0,3.84,0,5.75Z"></path><path class="cls-1" d="m372.34,218.35c-.16.38-.27.58-.33.78-1.93,6.52-3.85,13.05-5.78,19.58-1.03,3.49-2.05,6.98-3.08,10.47-.29.98-.33.99-1.41,1-1.41,0-2.82,0-4.23,0-1.12,0-1.21-.05-1.53-1.12-.53-1.79-1.03-3.58-1.55-5.37-.56-1.96-1.13-3.92-1.69-5.88-1.15-4.01-2.28-8.02-3.43-12.03-1.2-4.18-2.4-8.36-3.6-12.54-.29-1.02-.58-2.05-.86-3.08-.06-.22-.06-.45-.11-.78.31-.04.57-.1.83-.1,1.35,0,2.7-.01,4.05,0,.94,0,1.03.07,1.27.94.88,3.19,1.74,6.39,2.63,9.58,1.6,5.78,3.22,11.57,4.82,17.35.42,1.51.8,3.03,1.2,4.54.04.13.1.26.29.4.25-.86.5-1.72.76-2.58,1.63-5.5,3.26-11.01,4.87-16.51,1.22-4.14,2.41-8.29,3.61-12.44.05-.17.09-.34.15-.51.23-.64.36-.75,1.06-.76,1.38-.02,2.76-.02,4.14,0,.67,0,.79.11.97.73.9,3.03,1.8,6.07,2.69,9.11,1.42,4.82,2.83,9.65,4.24,14.48.79,2.7,1.55,5.4,2.32,8.1.04.14.09.27.16.45.11-.08.21-.11.22-.17,1.11-4.02,2.2-8.04,3.31-12.06,1.52-5.47,3.05-10.94,4.57-16.41.3-1.08.56-2.18.86-3.26.23-.86.36-.96,1.26-.97,1.35-.01,2.7-.02,4.05,0,.87.01.95.16.71.96-.76,2.58-1.49,5.17-2.24,7.76-1.29,4.49-2.57,8.98-3.86,13.48-1.25,4.38-2.5,8.76-3.75,13.14-.46,1.59-.91,3.18-1.38,4.77-.21.7-.32.79-1.11.79-1.56.01-3.13.01-4.69,0-.89,0-.97-.07-1.22-.89-1.34-4.48-2.67-8.96-4-13.44-1.43-4.82-2.87-9.64-4.3-14.46-.24-.79-.44-1.6-.67-2.39-.04-.16-.12-.3-.25-.64Z"></path><path class="cls-1" d="m304.04,233.93c3.16,5.38,6.27,10.68,9.45,16.09-.36.07-.58.15-.8.15-1.53.01-3.07,0-4.6.01-.62,0-1.02-.24-1.32-.77-2.25-3.89-4.56-7.75-6.77-11.66-1.23-2.17-3.04-3.22-5.59-3.17-1.41.03-2.82,0-4.23,0-1.27,0-1.3.03-1.3,1.23,0,4.28,0,8.56,0,12.83q0,1.51-1.57,1.52c-1.07,0-2.15.01-3.22,0-.77-.01-.88-.14-.92-.89,0-.21,0-.41,0-.62,0-12.63,0-25.25,0-37.88q0-1.51,1.57-1.51c4.91,0,9.81.04,14.72-.01,3.07-.03,5.7.99,8.03,2.81,2.97,2.31,4.5,5.34,4.78,9.01.23,3.04-.53,5.78-2.34,8.26-1.38,1.89-3.11,3.4-5.35,4.32-.14.06-.27.13-.53.27Zm-15.17-11.9c0,2.04,0,4.07,0,6.11,0,.24,0,.47.02.71.02.39.24.59.64.6.21,0,.43.01.64.01,3.07,0,6.13,0,9.2,0,2.66,0,4.6-1.23,6.02-3.32,2.03-3,1.32-7.59-1.27-9.74-1.32-1.09-2.76-1.77-4.47-1.79-3.22-.04-6.44-.02-9.66,0-1.02,0-1.11.08-1.11,1.06,0,2.12,0,4.25,0,6.37Z"></path><path class="cls-1" d="m317.75,229.73c0-6.34,0-12.68,0-19.03q0-1.42,1.48-1.43c7.08,0,14.16,0,21.24,0,1.38,0,1.39.01,1.39,1.33,0,1.03.01,2.07,0,3.1-.01.74-.07.79-.81.93-.24.04-.49.09-.73.09-2.66-.03-5.33-.09-7.99-.11-2.57-.02-5.15,0-7.73,0-1.06,0-1.14.08-1.14,1.12,0,3.33,0,6.67,0,10,0,.99.09,1.05,1.09,1.09.73.03,1.46.1,2.2.13.43.02.86,0,1.28-.01.64,0,1.28-.01,1.91-.03.52-.02,1.04-.09,1.55-.08,1.04.01,2.08.09,3.12.09,1.47,0,2.93-.06,4.4-.1.24,0,.49-.01.74.01.6.05.79.19.8.76.03,1.33.03,2.65,0,3.98-.01.57-.24.69-.83.66-.7-.04-1.41-.09-2.11-.09-4.23,0-8.46,0-12.69,0-.25,0-.49,0-.74,0-.74.04-.83.16-.77.87.03.41.05.82.05,1.24,0,3.07,0,6.14,0,9.2,0,.27,0,.53.02.8.02.39.23.6.63.61.31.01.61.01.92.01,5.27,0,10.55,0,15.82,0,1.37,0,1.38.01,1.38,1.34,0,1.03.01,2.07,0,3.1-.01.74-.15.85-.93.88-.18,0-.37,0-.55,0-7.17,0-14.35,0-21.52,0q-1.47,0-1.47-1.43c0-6.34,0-12.68,0-19.03Z"></path><path class="cls-1" d="m281.69,162.12c-1.01,1.65-1.92,3.14-2.82,4.64-2.86,4.75-5.71,9.51-8.57,14.26-.93,1.55-1.86,3.1-2.8,4.65-.17.28-.35.55-.57.79-.43.47-.82.49-1.21-.03-.5-.67-.92-1.38-1.35-2.09-2.68-4.41-5.35-8.83-8.02-13.25-1.76-2.92-3.51-5.85-5.26-8.77-.03-.05-.09-.08-.16-.15-.04.07-.11.13-.1.19.04.99.14,1.99.14,2.98.01,10.3,0,20.6,0,30.89q0,1.56-1.65,1.56c-1.29,0-2.58.01-3.86,0-.79-.01-.9-.13-.94-.87,0-.2,0-.41,0-.62,0-14.52,0-29.05,0-43.57q0-1.43,1.46-1.43c1.59,0,3.19.02,4.78,0,.67-.01,1.04.25,1.38.8,2.32,3.87,4.68,7.71,7.01,11.57,2.22,3.68,4.43,7.37,6.64,11.06.15.25.33.47.58.83.46-.76.86-1.41,1.25-2.06,2.02-3.35,4.04-6.7,6.06-10.06,2.03-3.38,4.05-6.77,6.07-10.15.26-.43.53-.86.77-1.3.24-.43.57-.67,1.09-.67,1.9,0,3.8-.01,5.7,0,.66,0,.78.15.82.79.01.23,0,.47,0,.7,0,14.49,0,28.99,0,43.48q0,1.5-1.57,1.5c-1.29,0-2.58,0-3.86,0-.89,0-.99-.12-1.01-.98,0-.26,0-.53,0-.79,0-9.54,0-19.07,0-28.61v-5.3Z"></path><path class="cls-1" d="m497.58,168.97c-.14-.17-.27-.29-.36-.43-1.43-2.31-3.5-3.97-5.94-5.24-1.62-.85-3.38-1.24-5.19-1.39-2.78-.22-5.5.04-8.1,1.16-1.3.56-2.5,1.27-3.55,2.16-3.34,2.84-5.14,6.39-5.49,10.68-.17,2.14-.01,4.22.57,6.26.67,2.35,1.85,4.43,3.66,6.2,1.84,1.81,3.93,3.18,6.45,3.91,2.37.68,4.79,1,7.26.61,1.18-.18,2.36-.36,3.5-.69,2.76-.81,4.95-2.43,6.64-4.64.93-1.21,1.5-2.62,1.89-4.08.06-.22.03-.45.04-.77-.42-.02-.78-.06-1.13-.06-4.08,0-8.16,0-12.23,0-1.32,0-1.35-.03-1.35-1.27,0-1-.01-2,0-2.99.01-.71.14-.81.86-.85.18-.01.37,0,.55,0,5.92,0,11.83,0,17.75,0,1.44,0,1.43,0,1.45,1.36.04,3.21-.53,6.3-1.82,9.27-.56,1.29-1.38,2.41-2.26,3.51-1.33,1.67-2.9,3.09-4.82,4.14-2.34,1.29-4.85,2.14-7.51,2.48-4.36.57-8.59.19-12.68-1.54-5.47-2.3-8.96-6.3-11.06-11.52-1.23-3.06-1.69-6.26-1.4-9.51.36-4.07,1.72-7.83,4.22-11.2,1.48-1.99,3.25-3.66,5.38-4.98,3.02-1.87,6.34-2.86,9.92-3.17,2.61-.23,5.13.06,7.62.73,3.06.83,5.74,2.32,8.06,4.4,1.33,1.19,2.48,2.52,3.4,4.02.43.71.42.74-.3,1.17-1.14.68-2.3,1.35-3.45,2.02-.18.1-.38.16-.6.25Z"></path><path class="cls-1" d="m335.56,177.46c-.03,3.5-.97,6.76-2.52,9.86-1.03,2.05-2.41,3.9-4.11,5.47-3.16,2.92-6.91,4.85-11.29,5.51-3.48.52-6.92.27-10.24-.87-5.15-1.78-8.97-5.04-11.55-9.67-1.34-2.42-2.12-4.99-2.52-7.68-.45-3.04-.07-6.02.82-8.95,1.08-3.56,2.96-6.71,5.74-9.29,3.02-2.8,6.63-4.61,10.82-5.24,1.12-.17,2.25-.37,3.37-.33,2.54.08,5.06.38,7.47,1.26,3.31,1.21,6.14,3.1,8.44,5.63,2.62,2.88,4.28,6.28,5.04,10.04.28,1.4.36,2.84.53,4.26Zm-5.88-.41c0-.48.1-1.26-.02-2-.8-5.3-3.71-9.26-8.63-11.76-3.61-1.83-7.5-1.85-11.36-.84-2.46.64-4.54,1.98-6.32,3.76-2.13,2.15-3.45,4.69-4.16,7.52-.53,2.1-.49,4.24-.19,6.38.63,4.5,3.09,7.89,6.87,10.48,1.93,1.32,4.12,2.02,6.48,2.3,3.71.45,7.12-.31,10.24-2.26,2.33-1.46,4.13-3.37,5.4-5.75,1.27-2.38,1.88-4.88,1.68-7.84Z"></path><path class="cls-1" d="m381.05,167.98c0,9.55,0,18.96,0,28.36q0,1.45-1.53,1.45c-1.07,0-2.15.01-3.22,0-.83-.01-.93-.13-.96-.94,0-.18,0-.35,0-.53,0-12.58,0-25.17,0-37.75q0-1.47,1.52-1.47c.71,0,1.41.03,2.11,0,.66-.03,1.08.22,1.44.74,1.94,2.85,3.91,5.69,5.87,8.52,2.49,3.59,5,7.17,7.49,10.77,2.03,2.94,4.03,5.89,6.05,8.83.16.23.36.44.54.65.06-.02.13-.04.19-.06v-1.02c0-8.98,0-17.95,0-26.93q0-1.5,1.57-1.5c1.07,0,2.15-.01,3.22,0,.77.01.88.14.91.89,0,.2,0,.41,0,.62,0,12.55,0,25.11,0,37.66q0,1.51-1.56,1.51c-.71,0-1.41-.02-2.11,0-.65.03-1.09-.21-1.44-.74-1.02-1.53-2.07-3.05-3.12-4.57-1.74-2.52-3.5-5.03-5.24-7.55-3.79-5.51-7.58-11.02-11.37-16.53-.08-.12-.19-.22-.36-.43Z"></path><path class="cls-1" d="m432.66,168.03c-.03.24-.06.38-.05.51.05,1.02.14,2.05.14,3.07.01,8.24,0,16.49,0,24.73q0,1.45-1.54,1.45c-1.07,0-2.15.01-3.22,0-.83-.01-.93-.13-.95-.94-.01-.38,0-.76,0-1.14,0-12.41,0-24.82,0-37.23,0-.09,0-.18,0-.26.01-1.01.09-1.09,1.16-1.1.86,0,1.72.01,2.58,0,.51-.01.87.17,1.15.58,2.04,2.96,4.09,5.92,6.14,8.88,1.78,2.57,3.57,5.13,5.34,7.7,2.61,3.77,5.21,7.54,7.81,11.3.28.4.55.81.82,1.21.06-.02.13-.04.19-.05v-.93c0-9.07,0-18.13,0-27.2q0-1.49,1.59-1.49c1.01,0,2.02-.01,3.04,0,.77.01.89.14.92.89,0,.21,0,.41,0,.62,0,12.56,0,25.12,0,37.67q0,1.51-1.57,1.51c-.49,0-.99-.05-1.47,0-1.03.12-1.69-.25-2.25-1.12-1.37-2.12-2.84-4.18-4.27-6.26-3.26-4.72-6.54-9.44-9.8-14.16-1.84-2.67-3.66-5.35-5.5-8.02-.03-.05-.09-.07-.27-.21Z"></path><path class="cls-1" d="m361.64,181.67c3.13,5.31,6.25,10.58,9.41,15.93-.27.08-.46.18-.65.18-1.59.01-3.19,0-4.78.01-.52,0-.85-.21-1.1-.64-2.05-3.54-4.11-7.07-6.19-10.59-.44-.74-.94-1.44-1.44-2.14-1.01-1.43-2.46-2.07-4.22-2.1-1.75-.03-3.5-.02-5.24,0-.84,0-.95.12-.96.93-.01,2.26,0,4.52,0,6.78,0,2.2,0,4.4,0,6.6,0,1.12-.06,1.17-1.27,1.18-1.04,0-2.08,0-3.13,0-1.29,0-1.31-.03-1.32-1.31,0-.15,0-.29,0-.44,0-12.47,0-24.94,0-37.4q0-1.54,1.63-1.54c5.09,0,10.18,0,15.27,0,2.69,0,5.02.98,7.13,2.49,2.76,1.97,4.32,4.69,4.94,7.89.72,3.71-.18,7.08-2.57,10.1-.98,1.23-2.19,2.21-3.54,3.04-.43.27-.93.44-1.39.67-.18.09-.34.23-.57.39Zm-8.99-19.27c-1.75,0-3.49,0-5.24,0-.8,0-.9.13-.94.86,0,.12,0,.23,0,.35,0,4.1,0,8.21,0,12.31,0,.21,0,.41.01.62.01.38.21.6.62.62.24.01.49.02.73.02,3.03,0,6.07,0,9.1,0,2.9,0,5.02-1.41,6.37-3.68,1.33-2.25,1.4-4.69.16-7.09-.46-.89-1.12-1.6-1.85-2.28-1.22-1.13-2.66-1.74-4.38-1.73-1.53,0-3.06,0-4.6,0Z"></path><path class="cls-1" d="m419.5,177.49c0,6.3,0,12.6,0,18.91q0,1.39-1.41,1.39c-1.1,0-2.21.01-3.31,0-.85-.01-.96-.12-.99-.91,0-.2,0-.41,0-.62,0-12.55,0-25.09,0-37.64q0-1.52,1.55-1.52c.89,0,1.78,0,2.67,0q1.5,0,1.5,1.48c0,3.66,0,7.33,0,10.99v7.91Z"></path><path class="cls-1" d="m144.39,157.19c.52.13,1.07.26,1.61.39.63.15,1.26.3,1.92.44.61.13,1.24.26,1.88.38.69.13,1.4.26,2.12.38.62.11,1.23.21,1.87.31,1.3.2,2.64.38,4.02.55.47.06.97.1,1.45.15,1.06.11,2.13.22,3.23.31.59.05,1.18.09,1.78.13,1.09.08,2.2.14,3.32.19.54.03,1.08.05,1.62.07,1.67.06,3.37.1,5.09.1s3.4-.04,5.07-.09c.62-.02,1.22-.05,1.83-.08.99-.05,1.97-.1,2.94-.16.76-.05,1.53-.1,2.27-.16.66-.05,1.3-.12,1.95-.18,3.4-.33,6.61-.76,9.55-1.29.07-.01.14-.02.2-.04,3.87-.7,7.2-1.56,10.01-2.5-4.82-1.76-16.48-5.08-33.83-5.08s-28.88,3.32-33.66,5.07c.26.09.51.18.79.27.93.29,1.92.57,2.95.84Z"></path><path class="cls-1" d="m174.29,169.86h-10.92c-10.16,0-18.42,7.92-18.42,17.66v18.84c3.86-5.28,6.73-9.19,6.78-9.27.18-.25.52-.29.83-.06,2.88,2.2,23.4,16.9,23.72,17.13.34.25.53-.02.53-.02l21.44-29.47-4.78-3.34c-.27-.19-.21-.6.11-.7l16.85-5.52c.27-.09.55.11.55.38l-.29,17.07c0,.32-.39.51-.66.32l-4.14-2.89c-5.2,7.14-26.87,36.91-27.09,37.2-.24.34-.53.3-.84.06-.29-.21-19.41-14.15-23.24-16.91-.47-.34-.77-.27-1.05.12l-8.71,11.92v37.95c8.11,2.03,18.27,3.26,29.34,3.26,26.47,0,47.93-6.92,47.93-15.47v-89.95c-6.95,8.49-28.75,11.68-47.93,11.68Z"></path><path class="cls-1" d="m126.37,247.8v.33c0,4.63,6.3,8.78,16.29,11.62v-34.22l-16.29,22.27Z"></path><path class="cls-1" d="m174.3,136.72c-26.47,0-47.93,6.92-47.93,15.47v15.33c-1.75-.25-3.69-.41-5.73-.39-10.77.12-18.56,5.4-22.9,14.46-5.74,11.97-1.76,25.92,2.64,32.8,6.77,10.6,18.2,15.9,25.91,17.46,3.63-4.96,16.37-22.36,16.37-22.36v-21.97c0-10.97,9.27-19.86,20.72-19.86h10.92c26.47,0,47.93-5.79,47.93-15.47,0-8.54-21.46-15.47-47.93-15.47Zm-47.93,80.87c-4.31-1.64-10.92-5.37-14.77-11.26-3.53-5.4-3.98-14.08-1.49-18.74,2.07-3.88,5.52-6.61,10.39-6.75,2.19-.06,4.28.26,5.87.61v36.14Zm84.28-60.43c-.17.07-.33.14-.5.2-.48.19-.99.37-1.51.55-2.9,1-6.43,1.9-10.51,2.64-.07.01-.14.02-.2.04-2.94.53-6.16.96-9.55,1.29-.65.06-1.29.13-1.95.18-.75.06-1.51.11-2.27.16-.97.06-1.95.12-2.94.16-.61.03-1.22.06-1.83.08-1.67.06-3.35.09-5.07.09s-3.42-.04-5.09-.1c-.55-.02-1.08-.05-1.62-.07-1.12-.05-2.23-.12-3.32-.19-.59-.04-1.19-.08-1.78-.13-1.1-.09-2.17-.2-3.23-.31-.48-.05-.97-.09-1.45-.15-1.38-.16-2.72-.35-4.02-.55-.64-.1-1.25-.21-1.87-.31-.72-.12-1.43-.25-2.12-.38-.64-.12-1.27-.25-1.88-.38-.66-.14-1.29-.29-1.92-.44-.54-.13-1.09-.25-1.61-.39-1.04-.27-2.03-.55-2.95-.84-.35-.11-.66-.22-.99-.33-.67-.22-1.32-.45-1.92-.69-.14-.05-.27-.11-.41-.16-3.97-1.59-6.29-3.34-6.29-4.98,0-4.29,19.01-10.41,42.47-10.41s42.47,6.23,42.47,10.41c0,1.68-2.26,3.43-6.12,5Z"></path></svg> 