<?xml version="1.0" encoding="UTF-8"?> <svg xmlns="http://www.w3.org/2000/svg" id="Layer_1" width="600" height="400" viewBox="0 0 600 400"><defs><style>.cls-1{fill:#fff;}</style></defs><path class="cls-1" d="m249.32,237.7h-12.14l-7.32-38.07-14.22,38.98h-4.48l-14.22-38.98-7.61,38.07h-12.1l14.22-70.64h6.65l15.28,47.56,14.94-47.56h6.6l14.41,70.64Z"></path><path class="cls-1" d="m298.08,215.53h-36.86c.22,4.11,1.64,7.31,4.24,9.59s6.1,3.42,10.5,3.42c5.49,0,9.67-1.43,12.53-4.29l4.67,9.2c-4.24,3.44-10.57,5.16-18.99,5.16-7.87,0-14.1-2.3-18.67-6.92-4.58-4.61-6.87-11.04-6.87-19.3s2.51-14.71,7.54-19.76c5.03-5.04,11.06-7.57,18.09-7.57,7.49,0,13.49,2.23,18.02,6.7,4.53,4.47,6.79,10.15,6.79,17.06,0,1.48-.34,3.71-1.01,6.7Zm-36.43-9.06h25.35c-.84-7.55-5.01-11.32-12.53-11.32-6.88,0-11.15,3.78-12.82,11.32Z"></path><path class="cls-1" d="m338.2,237.65v-3.13c-1,1.09-2.68,2.05-5.06,2.87-2.38.82-4.84,1.23-7.37,1.23-7.2,0-12.86-2.28-16.99-6.84-4.13-4.56-6.19-10.92-6.19-19.08s2.37-14.8,7.11-19.93c4.74-5.12,10.67-7.69,17.81-7.69,3.92,0,7.49.8,10.7,2.41v-20.67l12.05-2.89v73.73h-12.05Zm0-39.27c-2.57-2.06-5.25-3.08-8.05-3.08-4.82,0-8.53,1.47-11.13,4.41-2.6,2.94-3.9,7.16-3.9,12.65,0,10.73,5.17,16.09,15.52,16.09,1.16,0,2.58-.34,4.26-1.04,1.69-.69,2.79-1.39,3.3-2.1v-26.94Z"></path><path class="cls-1" d="m361.11,237.65v-41.73h-6.6v-9.88h18.79v51.61h-12.19Zm6.22-71.61c1.93,0,3.57.68,4.94,2.05,1.37,1.37,2.05,3.01,2.05,4.94s-.68,3.57-2.05,4.94c-1.37,1.37-3.01,2.05-4.94,2.05s-3.57-.68-4.94-2.05c-1.37-1.36-2.05-3.01-2.05-4.94s.68-3.57,2.05-4.94c1.37-1.36,3.01-2.05,4.94-2.05Z"></path><path class="cls-1" d="m411.63,232.49c-1.09,1.8-3,3.27-5.71,4.41-2.72,1.14-5.55,1.71-8.51,1.71-5.56,0-9.93-1.39-13.11-4.17-3.18-2.78-4.77-6.72-4.77-11.83,0-5.97,2.24-10.65,6.72-14.02,4.48-3.37,10.85-5.06,19.11-5.06,1.41,0,3.08.24,5.01.72,0-6.07-3.84-9.11-11.52-9.11-4.53,0-8.32.76-11.37,2.26l-2.6-9.35c4.14-1.99,9.08-2.99,14.79-2.99,7.87,0,13.64,1.79,17.3,5.37,3.66,3.58,5.49,10.37,5.49,20.36v11.03c0,6.88,1.38,11.2,4.14,12.96-1,1.73-2.1,2.8-3.32,3.2-1.22.4-2.62.6-4.19.6-1.74,0-3.29-.64-4.67-1.93-1.38-1.28-2.31-2.68-2.8-4.19Zm-1.16-19.13c-2.06-.42-3.6-.63-4.63-.63-9.51,0-14.26,3.12-14.26,9.35,0,4.63,2.68,6.94,8.05,6.94,7.23,0,10.84-3.61,10.84-10.84v-4.82Z"></path><path class="cls-1" d="m444.24,211.67v25.97h-12.53v-70.55c8.35-.35,13.23-.53,14.65-.53,11.15,0,19.3,1.71,24.46,5.13,5.16,3.42,7.73,8.76,7.73,16.02,0,16.19-9.54,24.29-28.62,24.29-1.41,0-3.31-.11-5.69-.34Zm0-33.73v22.6c2.12.22,3.79.34,5.01.34,5.72,0,9.89-.96,12.53-2.87,2.63-1.91,3.95-5.02,3.95-9.32,0-7.32-5.9-10.99-17.68-10.99-1.32,0-2.59.08-3.81.24Z"></path><path class="cls-1" d="m476.5,211.72c0-7.87,2.27-14.28,6.82-19.23,4.54-4.95,10.54-7.42,18-7.42,7.84,0,13.93,2.38,18.26,7.13,4.34,4.76,6.5,11.26,6.5,19.52s-2.21,14.76-6.63,19.61c-4.42,4.85-10.47,7.28-18.14,7.28s-13.93-2.45-18.29-7.35c-4.35-4.9-6.53-11.41-6.53-19.54Zm12.53,0c0,11.37,4.1,17.06,12.29,17.06,3.76,0,6.74-1.48,8.94-4.43s3.3-7.16,3.3-12.63c0-11.21-4.08-16.82-12.24-16.82-3.76,0-6.75,1.48-8.96,4.43-2.22,2.96-3.32,7.08-3.32,12.38Z"></path><path class="cls-1" d="m528.68,234.32l4.29-9.59c3.6,2.86,7.66,4.29,12.19,4.29s7.04-1.67,7.04-5.01c0-1.96-.71-3.57-2.12-4.82-1.41-1.25-4.16-2.73-8.24-4.43-8.9-3.69-13.35-8.87-13.35-15.52,0-4.47,1.7-7.94,5.11-10.43,3.4-2.49,7.76-3.73,13.06-3.73s10.41,1.2,15.13,3.61l-3.47,9.35c-2.63-2.25-6.3-3.37-10.99-3.37-4.21,0-6.31,1.67-6.31,5.01,0,1.32.69,2.51,2.07,3.57,1.38,1.06,4.34,2.48,8.87,4.26,4.53,1.78,7.79,3.94,9.78,6.48,1.99,2.54,2.99,5.61,2.99,9.2,0,4.79-1.78,8.55-5.32,11.3-3.55,2.75-8.38,4.12-14.48,4.12-3.44,0-6.19-.28-8.26-.84s-4.73-1.71-7.98-3.45Z"></path><path class="cls-1" d="m572.05,195.72h-5.98v-9.69h5.98v-10.51l12.05-4.43v14.94h14.17v9.69h-14.17v22.6c0,3.69.58,6.31,1.74,7.83,1.16,1.53,3.18,2.29,6.07,2.29s5.59-.79,8.09-2.36v11.08c-2.79.96-6.78,1.45-11.95,1.45s-9.09-1.45-11.85-4.36c-2.76-2.91-4.14-7.04-4.14-12.41v-26.12Z"></path><polygon class="cls-1" points="72.61 269.59 118.58 269.59 101.99 180.89 72.61 269.59"></polygon><polygon class="cls-1" points="99.8 130.41 69.2 130.41 69.2 231.46 69.22 231.51 99.8 130.41"></polygon><polygon class="cls-1" points="108.7 130.41 136.66 269.59 138.29 269.59 138.29 130.41 108.7 130.41"></polygon><polygon class="cls-1" points="36 130.41 69.2 231.46 69.2 130.41 36 130.41"></polygon><polygon class="cls-1" points="19.56 269.59 66.01 269.59 35.57 180.59 19.56 269.59"></polygon><polygon class="cls-1" points="0 130.41 0 269.59 1.43 269.59 27.32 130.41 0 130.41"></polygon></svg> 