<?xml version="1.0" encoding="UTF-8"?> <svg xmlns="http://www.w3.org/2000/svg" id="Layer_1" width="600" height="400" viewBox="0 0 600 400"><defs><style>.cls-1{fill:#3a357e;}</style></defs><path class="cls-1" d="m407.25,215.06h-2v11.13h2c2.34,0,3.4-1,3.4-3.84v-3.67c0-2.67-1-3.62-3.4-3.62Z"></path><path class="cls-1" d="m348.52,214.83c-2.28,0-3.4,1.45-3.4,5.01v17.09c0,3.62,1.06,5.07,3.4,5.07s3.45-1.5,3.45-5.12v-17.03c0-3.45-1.11-5.01-3.45-5.01Z"></path><polygon class="cls-1" points="463.42 234.21 468.09 234.21 465.76 216.11 463.42 234.21"></polygon><polygon class="cls-1" points="239.2 184.43 247.05 184.43 243.15 161.16 239.2 184.43"></polygon><path class="cls-1" d="m112.4,220.68v-2.5c0-3.01-1.17-3.62-3.4-3.62h-1.78v10.02h1.78c2.45,0,3.4-.95,3.4-3.9Z"></path><path class="cls-1" d="m109.06,230.31h-1.84v11.91h2c2.56,0,3.67-1.28,3.67-4.62v-2.84c0-3.62-1.11-4.45-3.84-4.45Z"></path><path class="cls-1" d="m58.09,118.69v162.62h483.81V118.69H58.09Zm63.32,119.58c0,7.35-3.95,10.02-11.41,10.02h-11.19v-39.8h10.97c7.24,0,10.74,2.84,10.74,8.91v2.78c0,4.18-2.34,6.35-5.96,7.18,4.23.84,6.85,3.28,6.85,8.35v2.56Zm28.97-.56c0,7.74-4.34,11.19-11.69,11.19s-11.58-3.51-11.58-11.25v-29.17h8.57v29c0,3.28.78,4.45,3.06,4.45,2.12,0,3.01-1.17,3.01-4.51v-28.95h8.63v29.23Zm27.58.33c0,7.24-3.95,10.86-11.02,10.86s-11.13-3.12-11.19-11.08v-1.28h8.29v1.56c0,3.23.84,4.29,2.9,4.29,1.78,0,2.62-1.11,2.62-3.67v-.45c0-3.56-1.95-4.68-5.51-7.01-5.18-3.28-7.91-6.24-7.91-12.8v-.22c0-6.62,3.9-10.3,10.74-10.3s10.58,3.28,10.63,10.3v1.17h-8.07v-1.28c0-2.84-1.06-3.56-2.56-3.56-1.61,0-2.39.89-2.39,3.12v.22c0,2.84,1.22,3.84,4.68,6.18,4.73,3.01,8.8,5.4,8.8,13.19v.78Zm14.67,10.24h-8.63v-39.8h8.63v39.8Zm30.2,0h-8.13l-7.91-24.72v24.72h-7.4v-39.8h9.24l6.74,21.27v-21.27h7.46v39.8Zm25.19,0h-18.59v-39.8h18.04v6.74h-9.46v8.91h7.46v6.4h-7.46v11.02h10.02v6.74Zm-.42-60.63h-8.91l-1.67,10.02h-3.95l7.07-39.8h6.29l7.01,39.8h-4.12l-1.73-10.02Zm27.44,50.39c0,7.24-3.95,10.86-11.02,10.86s-11.13-3.12-11.19-11.08v-1.28h8.29v1.56c0,3.23.84,4.29,2.89,4.29,1.78,0,2.62-1.11,2.62-3.67v-.45c0-3.56-1.95-4.68-5.51-7.01-5.18-3.28-7.91-6.24-7.91-12.8v-.22c0-6.62,3.9-10.3,10.74-10.3s10.58,3.28,10.63,10.3v1.17h-8.07v-1.28c0-2.84-1.06-3.56-2.56-3.56-1.61,0-2.39.89-2.39,3.12v.22c0,2.84,1.22,3.84,4.68,6.18,4.73,3.01,8.8,5.4,8.8,13.19v.78Zm3.48-50.11c0,6.85-3.45,10.24-9.63,10.24-5.85,0-9.63-3.23-9.63-10.08v-30.23h4.18v30.12c0,4.68,1.84,6.68,5.46,6.68s5.46-2,5.46-7.01v-29.78h4.18v30.06Zm23.55,50.11c0,7.24-3.95,10.86-11.02,10.86s-11.13-3.12-11.19-11.08v-1.28h8.3v1.56c0,3.23.83,4.29,2.89,4.29,1.78,0,2.62-1.11,2.62-3.67v-.45c0-3.56-1.95-4.68-5.51-7.01-5.18-3.28-7.91-6.24-7.91-12.8v-.22c0-6.62,3.9-10.3,10.74-10.3s10.58,3.28,10.63,10.3v1.17h-8.07v-1.28c0-2.84-1.06-3.56-2.56-3.56-1.61,0-2.39.89-2.39,3.12v.22c0,2.84,1.22,3.84,4.68,6.18,4.73,3.01,8.8,5.4,8.8,13.19v.78Zm1.36-49.5c0,6.57-3.51,9.63-8.74,9.63-5.96,0-9.24-3.56-9.24-9.96v-1.34h4.01v1.34c0,4.51,1.56,6.51,5.23,6.51,3.01,0,4.73-2.06,4.73-6.01v-.78c0-4.68-1.95-6.46-6.29-9.8-4.57-3.45-7.18-6.24-7.18-11.86v-.17c0-5.57,3.28-8.74,8.41-8.74s8.46,2.89,8.46,8.85v1.39h-3.9v-1.39c0-4.01-1.78-5.4-4.56-5.4s-4.45,1.67-4.45,5.01v.22c0,3.95,1.5,5.68,5.73,8.85,5.18,3.84,7.79,6.35,7.79,12.8v.84Zm4.87-27.33v-3.34h17.93v3.34h-6.9l-.06,36.46h-4.12v-36.46h-6.85Zm22.04,76.89c0,6.85-3.45,10.52-10.02,10.52-2.28,0-3.62-.39-4.62-.84v-6.68c.67.17,1.45.33,2.62.33,2.17,0,3.4-.95,3.4-3.73v-29.23h8.63v29.62Zm2.64-80.23h4.18v39.8h-4.18v-39.8Zm27.72,78.89c0,8.29-4.79,12.14-12.19,12.14s-12.14-3.73-12.14-11.91v-17.09c0-8.18,5.12-11.97,12.14-11.97s12.19,3.56,12.19,11.91v16.92Zm3.81-39.09h-4.34l-10.74-31.95v31.95h-3.79v-39.8h5.07l10.08,29.56v-29.56h3.73v39.8Zm25.66,40.03c0,7.74-4.34,11.19-11.69,11.19s-11.58-3.51-11.58-11.25v-29.17h8.57v29c0,3.28.78,4.45,3.06,4.45,2.12,0,3.01-1.17,3.01-4.51v-28.95h8.63v29.23Zm21.01,10.58l-4.4-16.59h-1.56v16.59h-8.57v-39.8h10.86c8.35,0,11.47,3.28,11.47,9.91v4.06c0,4.51-1.5,6.62-4.12,7.91l5.23,17.93h-8.91Zm37.55,0h-8.13l-7.91-24.72v24.72h-7.4v-39.8h9.24l6.74,21.27v-21.27h7.46v39.8Zm21.24,0l-1.11-8.13h-6.24l-1.06,8.13h-7.85l6.29-39.8h12.3l6.35,39.8h-8.68Zm31.2,0h-17.54v-39.8h8.57v32.96h8.96v6.85Z"></path></svg> 