<?xml version="1.0" encoding="UTF-8"?> <svg xmlns="http://www.w3.org/2000/svg" id="Layer_1" width="98.32" height="32.25" viewBox="0 0 98.32 32.25"><defs><style>.cls-1{fill:#3a357e;fill-rule:evenodd;}</style></defs><path class="cls-1" d="m.07,21.53h1.42c1.22,6.01,3.31,9.04,5.6,9.04,1.55,0,2.7-1.35,2.7-3.51,0-2.76-1.69-4.92-4.25-8.1-1.69-2.23-3.23-3.85-4.12-5.54-.94-1.82-1.42-3.78-1.42-5.74C0,3.31,2.36,0,5.19,0c1.62,0,2.76,1.35,3.51,1.35.54,0,1.01-.4,1.35-1.22h1.15v10.19h-1.42C8.77,4.52,7.15,1.62,5.06,1.62c-1.49,0-2.43,1.29-2.43,3.03,0,2.49,1.76,4.59,4.45,7.83.74.87,2.09,2.29,3.51,4.72,1.25,2.13,1.9,4.55,1.89,7.02,0,4.72-2.36,7.97-5.39,7.97-2.02,0-3.31-1.49-4.18-1.49-.67,0-1.01.54-1.69,1.55H.07v-10.73H.07Zm18.83,6.41V4.25c0-1.69.34-2.29,1.49-2.29,3.03,0,3.58,4.45,3.58,13.29,0,9.86-.2,14.85-3.71,14.85-1.22,0-1.35-.54-1.35-2.16h-.01Zm-5.81,3.78h5.94c6.14,0,9.79-5.61,9.79-15.72,0-6.07-1.49-10.73-4.05-13.43-1.76-1.82-3.71-2.16-6.21-2.16h-5.47v1.49c1.15.13,1.49.74,1.49,2.16v24.02c0,1.49-.33,2.03-1.49,2.23v1.42h0ZM46.42,11.6h-1.07c-.74-5.94-2.03-9.24-3.65-9.79v25.58c0,2.02.27,2.76,1.76,2.9v1.42h-7.83v-1.42c1.42-.13,1.76-.87,1.76-2.9V1.82c-1.62.54-2.9,3.85-3.71,9.79h-1.07l.2-11.2h13.49l.13,11.2h-.01Zm7.22,18.83v1.29h-6.41v-1.29c1.01-.27,1.35-.81,1.35-2.29v-13.43c0-1.49-.27-2.09-1.35-2.23v-1.49c1.69-.07,3.44-.2,5.06-.34v17.48c0,1.42.27,2.03,1.35,2.29h0Zm7.76,0v1.29h-6.34v-1.29c1.07-.27,1.29-.81,1.29-2.29v-13.43c0-1.49-.13-2.09-1.29-2.23v-1.49c1.62-.07,3.31-.2,4.92-.34l.07,3.03c1.15-2.09,2.16-3.1,3.58-3.1,1.55,0,2.5,1.07,2.9,3.23,1.22-2.16,2.29-3.23,3.78-3.23,2.43,0,3.1,2.23,3.1,6.88v10.66c0,1.55.2,2.16,1.29,2.29v1.29h-4.86v-14.71c0-2.29-.27-3.38-1.29-3.38s-1.82,1.55-1.82,4.32v10.19c0,1.55.2,2.16,1.29,2.29v1.29h-4.86v-14.71c0-2.29-.27-3.38-1.22-3.38-1.15,0-1.82,1.62-1.82,4.72v9.79c0,1.42.2,2.03,1.29,2.29h0v.02Zm18.01-10.33v-.4c0-5.19.6-7.83,1.82-7.83,1.29,0,1.69,2.23,1.69,6.88v1.35h-3.51Zm6.28,4.59c-.4,3.45-1.62,5.33-3.38,5.33-1.89,0-2.9-2.5-2.9-7.35v-.81h7.42v-.2c0-7.22-2.16-11.2-5.61-11.2s-6.01,4.25-6.01,11.2c0,6.41,2.63,10.59,6.14,10.59,3.1,0,5.12-2.76,5.47-7.55h-1.15.01Zm3.85-1.29c.67,4.79,2.43,7.35,4.39,7.35,1.15,0,2.03-1.07,2.03-2.56,0-1.15-.6-2.36-1.76-3.31-2.43-1.96-4.25-3.38-5.12-5.26-.54-1.01-.74-2.16-.74-3.45,0-3.23,1.82-5.74,4.05-5.74,1.35,0,2.29,1.01,2.97,1.01.34,0,.74-.34.94-.94h1.07v7.7h-1.15c-.94-4.18-2.29-6.28-3.92-6.28-.94,0-1.76,1.01-1.76,2.23,0,1.76,1.15,2.63,2.97,4.05,3.1,2.5,4.79,4.45,4.79,7.76,0,3.51-2.09,6.28-4.59,6.28-1.62,0-2.56-1.15-3.23-1.15-.34,0-.67.4-1.22,1.15h-.94v-8.84h1.22-.01Z"></path><path class="cls-1" d="m52.29,4.39c0,1.49-1.01,2.63-2.23,2.63s-2.23-1.15-2.23-2.63,1.01-2.63,2.23-2.63,2.23,1.22,2.23,2.63Zm2.97,2.23c-.6,0-.87-.47-.94-1.15l.67-.13c0,.54.13.67.27.67s.2-.13.2-.4c0-.4-.07-.6-.47-1.01-.4-.4-.67-.81-.67-1.29,0-.6.34-1.07.87-1.07.6,0,.81.4.94,1.01l-.67.13c0-.4-.07-.54-.27-.54-.13,0-.2.13-.2.4s.13.47.4.81c.54.47.74.94.74,1.49,0,.6-.34,1.07-.87,1.07h0Zm2.5-2.16c0,1.29-.07,1.55-.34,1.55-.2,0-.27-.34-.27-1.62s.07-1.49.27-1.49.34.27.34,1.56h0Zm.67-.07c0-1.42-.27-2.16-1.01-2.16s-.94.74-.94,2.23.2,2.16.94,2.16,1.01-.74,1.01-2.23h0Zm1.07-1.42v1.01h.74v.67h-.74v1.89h-.67V2.29h1.62v.67h-.94Zm2.5,0v3.58h-.67v-3.58h-.54v-.67h1.82v.67h-.6Zm3.1,3.58h-.54l-.13-1.15c-.07-.4-.13-.94-.2-1.35,0,.4-.07.94-.13,1.35l-.13,1.15h-.6l-.47-4.25h.6l.13,1.42c.07.34.07.81.13,1.22,0-.4.07-.87.07-1.22l.13-1.42h.54l.13,1.42c.07.34.13.81.13,1.22,0-.4.07-.87.07-1.22l.13-1.42h.67l-.54,4.25h.01Zm1.76-1.55h-.4l.13-.74c0-.34.07-.67.07-1.01,0,.34.07.67.13,1.01,0,0,.07.74.07.74Zm.87,1.55l-.67-4.25h-.74l-.67,4.25h.67l.13-.94h.47l.13.94h.68Zm1.49-3.03c0,.47-.13.6-.34.6h-.13v-1.22h.13c.2,0,.34.13.34.6h0Zm.67,3.03l-.4-2.02c.27-.2.4-.54.4-1.01,0-.87-.47-1.22-.94-1.22h-.87v4.25h.67v-1.89h.13l.34,1.89h.67Zm.47,0V2.29h1.55v.67h-.87v1.01h.67v.67h-.67v1.29h.94v.6h-1.62Zm4.32-2.16c0,1.29-.13,1.55-.4,1.55h-.13v-3.03h.13c.27,0,.4.27.4,1.49h0Zm.67,0c0-1.29-.2-2.09-1.01-2.09h-.87v4.25h.81c.74,0,1.08-.67,1.08-2.16h-.01Zm.4,2.16V2.29h1.56v.67h-.87v1.01h.67v.67h-.67v1.29h.94v.6h-1.63Zm3.17,0h-.67l-.67-4.25h.67l.27,2.09c0,.34.07.81.07,1.07,0-.27.07-.74.07-1.07l.27-2.09h.67l-.67,4.25h-.01Zm1.01,0V2.29h1.56v.67h-.87v1.01h.67v.67h-.67v1.29h.94v.6h-1.63Zm2.03,0V2.29h.67v3.65h.81v.6h-1.49,0Zm3.03-2.09c0,1.29-.07,1.55-.27,1.55-.27,0-.34-.34-.34-1.62s.07-1.49.34-1.49c.2,0,.27.27.27,1.56h0Zm.67-.07c0-1.42-.2-2.16-.94-2.16s-1.01.74-1.01,2.23.2,2.16.94,2.16c.81,0,1.01-.74,1.01-2.23h0Zm1.62-.81c0,.4-.13.6-.34.6h-.13v-1.29h.13c.27,0,.34.13.34.67h0Zm.67-.07c0-.87-.4-1.22-.94-1.22h-.87v4.25h.67v-1.76h.13c.54,0,1.01-.4,1.01-1.29h0Zm2.09,3.03v-1.15c0-.47,0-.94.07-1.42-.1.47-.21.94-.34,1.42l-.27,1.29-.34-1.29c-.07-.4-.2-1.07-.27-1.42v2.56h-.6V2.29h.67l.27,1.29c.13.4.2.87.27,1.22,0-.34.13-.81.2-1.22l.27-1.29h.67v4.25h-.6Zm1.15,0V2.29h1.55v.67h-.87v1.01h.67v.67h-.67v1.29h.94v.6h-1.62Zm3.38,0l-.4-1.29c-.13-.44-.24-.89-.34-1.35v2.63h-.6V2.3h.6l.34,1.07c.07.34.27.87.34,1.22v-2.29h.6v4.25h-.54,0Zm2.16-3.58v3.58h-.67v-3.58h-.6v-.67h1.82v.67h-.54Z"></path></svg> 