<?xml version="1.0" encoding="UTF-8"?><svg id="Layer_1" xmlns="http://www.w3.org/2000/svg" width="600" height="400" viewBox="0 0 600 400"><defs><style>.cls-1{fill:#fff;}.cls-2{fill:#b7133f;}</style></defs><g id="layer1"><path id="path8130" class="cls-1" d="m238.14,160.06c0,54.79-29.51,97.41-70.89,123.73-41.38-26.31-70.89-68.93-70.89-123.73h141.78Z"/><path d="m167.24,285.34l-.52-.31c-46.02-29.31-71.31-73.68-71.31-124.86v-1.03h43.86v2.06h-41.9c.31,49.84,25.08,93.08,69.86,121.77,44.68-28.69,69.45-71.92,69.86-121.77h-42.82v-2.06h44.99v1.03c0,51.29-25.39,95.66-71.31,124.86l-.72.31Z"/><path id="path8154" d="m238.14,159.14c0,1.44-.1.31-.1.93-1.03-.52-2.27,0-3.51,0-4.64,0-7.64,4.02-7.64,8.26,0,.83.21,2.27.41,3.1-.93-.41-2.06-.72-3.1-.72-4.23,0-7.64,3.41-7.64,7.64,0,1.44.41,2.79,1.03,3.92-1.14-.72-2.48-1.14-3.92-1.14-4.85,0-7.64,3.82-7.64,8.46,0,1.34.1,1.65.72,2.68-1.14-.72-2.27-1.03-3.82-1.03-4.23,0-7.64,4.23-7.64,8.46,0,1.24.1,1.65.72,2.68-1.03-.52-2.06-.52-3.3-.52-4.23,0-7.64,3.82-7.64,8.05s3.41,7.64,7.64,7.64c1.14,0,2.27-.31,3.3-.72-.52,1.03-.62,1.86-.62,3.1,0,4.23,3.41,7.64,7.64,7.64,1.34,0,2.27.1,3.41-.52-.93,1.24-.62,2.37-.62,3.71,0,4.23,4.02,7.02,8.26,7.02.52,0,1.14-.41,1.65-.52-6.09,9.18-13.83,18.47-21.77,26.11,1.55-1.44,3.51-3.51,3.51-5.78,0-4.33-3.51-7.74-7.74-7.74-2.06,0-3.41.1-4.85,1.44,1.14-1.34,1.75-2.99,1.75-4.85,0-4.23-3.41-7.64-7.64-7.64-1.86,0-3.51.62-4.85,1.75.83-1.24,1.34-2.68,1.34-4.33,0-3.92-1.55-7.64-8.26-7.64-3.82,0-6.81,3.61-6.81,7.53,0,1.55.52,3.1,1.34,4.33-1.34-1.14-2.99-1.75-4.85-1.75-4.23,0-7.64,3.41-7.64,7.64,0,1.86.62,3.51,1.75,4.85-1.44-1.34-3.3-2.06-5.37-2.06-4.33,0-7.74,3.51-7.74,7.74,0,2.27,1.14,5.16,2.68,6.6-7.95-7.64-15.07-15.99-21.15-25.18.52.1,1.55.31,2.06.31,4.23,0,7.64-3.41,7.64-7.64,0-1.34-.41-2.68-1.03-3.82,1.14.62,2.27.93,3.61.93,4.23,0,7.64-3.41,7.64-7.64,0-1.24-.31-2.48-.83-3.51,1.03.52,2.06.72,3.3.72,4.23,0,7.64-3.41,7.64-7.64s-3.41-7.64-7.64-7.64c-1.24,0-2.37.31-3.41.83.52-1.03.83-2.17.83-3.41,0-4.23-3.41-7.64-7.64-7.64-1.44,0-2.89.41-4.02,1.14.62-1.14.93-2.37.93-3.71,0-4.23-3.41-7.64-7.64-7.64-1.44,0-2.79.41-3.92,1.14.72-1.14,1.03-2.48,1.03-3.92,0-4.23-3.41-7.64-7.64-7.64-1.34,0-2.58.41-3.61.93.62-1.03.93-2.27.93-3.51,0-4.23-3.41-8.87-7.64-8.87-1.24,0-2.48-.52-3.51,0,0-1.96-.1,1.44-.1-.93h43.55c-1.03,2.17-1.86,3.1-1.86,4.95,0,4.23,3.41,7.64,7.64,7.64,1.55,0,2.99-.52,4.23-1.34-.72,1.14-1.14,2.58-1.14,4.02,0,4.23,3.41,7.64,7.64,7.64,1.65,0,3.2-.52,4.44-1.44-.83,1.24-1.24,2.68-1.24,4.13,0,4.23,3.41,7.64,7.64,7.64s7.64-3.41,7.64-7.64c0-1.55-.41-2.89-1.24-4.13,1.14.62,2.48,1.03,3.82,1.03,4.23,0,7.64-3.41,7.64-7.64,0-1.14-.21-2.27-.62-3.2,1.24.83,2.06.83,3.61.83,4.23,0,7.22-3.41,7.22-7.64,0-1.86-.93-2.79-2.06-4.95h44.79v.1Z"/><path id="path8158" class="cls-1" d="m196.24,170.07c-.83,0-1.65.52-1.96,2.27-.62,3.41-1.86,5.16-3.3,6.4-1.03.93-2.48.93-2.99.93s-1.03-.1-1.24,1.24c-.21,1.24.52,2.48.93,3.1.41.52.72.41,1.14,0,.93-.72,2.06-1.96,2.89-3.1.83-1.24,1.34-.62.72.52-.62,1.24-1.86,2.89-2.79,3.82-.72.62-.52,1.14-.31,1.55.31.52,1.14,1.34,1.34,1.55.31.21,1.34.83,2.06-.52.72-1.44,1.24-4.02,1.34-5.16.1-1.03.83-.93.93,0v1.75c0,1.14-.31,2.68-.93,4.13s-.1,1.55.31,1.75.83.31,1.55.31c.83,0,1.24-.1,1.55-.31.41-.21.93-.31.31-1.75s-.93-2.99-.93-4.13v-1.75c.1-.93.83-1.14.93,0s.62,3.71,1.34,5.16c.72,1.44,1.86.72,2.06.52.31-.21,1.14-1.03,1.34-1.55.31-.52.41-.93-.31-1.55-.93-.93-2.17-2.58-2.79-3.82s-.1-1.75.72-.52c.83,1.24,1.86,2.37,2.89,3.1.52.41.72.52,1.14,0s1.14-1.75.93-3.1c-.21-1.24-.83-1.55-1.34-1.55-.83-.1-2.27,0-3.3-.93-1.44-1.34-2.17-2.58-2.79-6.09.21-1.75-.62-2.27-1.44-2.27h0Zm-58.3.52c-.83,0-1.65.52-1.96,2.27-.62,3.41-1.86,5.16-3.3,6.4-1.03.93-2.48.93-2.99.93s-1.03-.1-1.24,1.24c-.21,1.24.52,2.48.93,3.1.41.52.72.41,1.14,0,.93-.72,2.06-1.96,2.89-3.1.83-1.24,1.34-.62.72.52-.62,1.24-1.86,2.89-2.79,3.82-.72.62-.52,1.14-.31,1.55.31.52,1.14,1.34,1.34,1.55.31.21,1.34.83,2.06-.52.72-1.44,1.34-4.02,1.34-5.16.1-1.03.83-.93.93,0v1.75c0,1.14-.31,2.68-.93,4.13-.62,1.44-.1,1.55.31,1.75.41.21.83.31,1.55.31.83,0,1.24-.1,1.55-.31.41-.21.93-.31.31-1.75s-.93-2.99-.93-4.13v-1.75c.1-.93.83-1.14.93,0s.62,3.71,1.34,5.16c.72,1.44,1.86.72,2.06.52.31-.21,1.14-1.03,1.34-1.55.31-.52.41-.93-.31-1.55-.93-.93-2.17-2.58-2.79-3.82s-.1-1.75.72-.52c.83,1.24,1.86,2.37,2.89,3.1.52.41.72.52,1.14,0s1.14-1.75.93-3.1c-.21-1.24-.83-1.55-1.34-1.55-.83-.1-2.27,0-3.3-.93-1.44-1.34-2.17-2.58-2.79-6.09.21-1.86-.62-2.27-1.44-2.27h0Zm52.52,2.27c-.62,0-.62.62-.41,1.24.21.72.62,1.34.72,1.86s.31.83.72.31h.1c.41-.62.72-1.34,1.03-2.27.21-.93.21-1.24-.72-1.24l-1.44.1h0Zm9.7,0c-.83,0-.93.31-.62,1.24.21.93.62,1.65.93,2.27h.1c.41.52.62.31.72-.31.1-.52.41-1.24.62-1.86.21-.72.21-1.24-.41-1.24l-1.34-.1h0Zm-68,.41c-.62,0-.62.62-.41,1.24.21.72.62,1.34.72,1.86.1.52.31.83.72.31h.1c.41-.62.72-1.34,1.03-2.27s.21-1.24-.72-1.24l-1.44.1h0Zm9.7,0c-.83,0-.93.31-.62,1.24.21.93.62,1.65.93,2.27h.1c.41.52.62.31.72-.31.1-.52.41-1.24.62-1.86.21-.72.21-1.24-.41-1.24l-1.34-.1h0Zm25.39,25.18c-.83,0-1.65.52-1.96,2.27-.62,3.41-1.86,5.06-3.3,6.4-1.03.93-2.48.93-2.99.93s-1.03-.1-1.24,1.24c-.21,1.24.52,2.48.93,3.1.41.52.72.41,1.14,0,.93-.72,2.06-1.96,2.89-3.1.83-1.24,1.34-.62.72.62-.62,1.24-1.86,2.89-2.79,3.82-.72.62-.52,1.14-.31,1.55.31.52,1.14,1.34,1.34,1.55.31.21,1.34.83,2.06-.52.72-1.44,1.34-4.02,1.34-5.16.1-1.03.83-.93.93,0v1.75c0,1.14-.41,2.68-.93,4.13-.62,1.44-.1,1.55.31,1.75s.83.31,1.55.31c.83,0,1.24-.1,1.55-.31.41-.21.93-.31.31-1.75s-.93-2.99-.93-4.13v-1.75c.1-.93.83-1.14.93,0s.62,3.71,1.34,5.16c.72,1.44,1.86.72,2.06.52.31-.21,1.14-1.03,1.34-1.55.31-.52.41-.93-.31-1.55-.93-.93-2.17-2.68-2.79-3.82-.62-1.24-.1-1.75.72-.62.83,1.24,1.86,2.37,2.89,3.1.52.41.72.52,1.14,0s1.14-1.75.93-3.1c-.21-1.24-.83-1.55-1.34-1.55-.83-.1-2.27,0-3.3-.93-1.44-1.34-2.17-2.58-2.79-6.09.21-1.75-.62-2.27-1.44-2.27h0Zm-5.78,2.79c-.62,0-.62.62-.41,1.24.21.72.62,1.34.72,1.86s.31.83.72.31h.1c.41-.62.72-1.34,1.03-2.27s.21-1.14-.72-1.14h-1.44Zm9.7,0c-.83,0-.93.31-.62,1.14.21.93.62,1.65.93,2.27h.1c.41.52.62.31.72-.31.1-.52.41-1.24.62-1.86.21-.72.21-1.24-.41-1.24h-1.34Zm24.56,26.21c-.83,0-1.65.52-1.96,2.17-.62,3.41-1.86,5.16-3.3,6.4-1.03.93-2.48,1.03-2.99.93-.52,0-1.03-.1-1.24,1.24-.21,1.24.52,2.48.93,3.1.41.52.72.41,1.14,0,.93-.72,1.96-1.96,2.89-3.1.83-1.24,1.34-.62.72.52-.62,1.24-1.86,2.89-2.79,3.82-.72.62-.52,1.14-.31,1.55.31.52,1.14,1.34,1.34,1.55.31.21,1.34.83,2.06-.52.72-1.44,1.34-4.02,1.34-5.16.1-1.03.83-.93.93,0v1.75c0,1.24-.41,2.68-.93,4.13-.62,1.44-.1,1.55.31,1.75s.83.31,1.55.31c.83,0,1.24-.1,1.55-.31.41-.21.93-.31.31-1.75-.52-1.44-.93-2.99-.93-4.13v-1.75c.1-.93.83-1.14.93,0s.62,3.71,1.34,5.16c.72,1.44,1.86.72,2.06.52.31-.21,1.14-1.03,1.34-1.55.31-.52.41-.93-.31-1.55-.93-.93-2.17-2.68-2.79-3.82-.62-1.24-.1-1.75.72-.52.83,1.24,1.86,2.37,2.89,3.1.52.41.72.52,1.14,0s1.14-1.86.93-3.1-.83-1.55-1.34-1.55c-.83-.1-2.27,0-3.3-.93-1.44-1.34-2.17-2.58-2.79-6.09.21-1.65-.52-2.17-1.44-2.17h0Zm-56.86.52c-.83,0-1.65.52-1.96,2.27-.62,3.41-1.86,5.16-3.3,6.4-1.03.93-2.48.93-2.99.93s-1.03-.1-1.24,1.24c-.21,1.24.52,2.48.93,3.1.41.52.72.41,1.14,0,.93-.72,1.96-1.96,2.89-3.1.83-1.24,1.34-.62.72.52-.62,1.24-1.86,2.89-2.79,3.82-.72.62-.52,1.14-.31,1.55.31.52,1.14,1.34,1.34,1.55.31.21,1.34.83,2.06-.52.72-1.44,1.24-4.13,1.34-5.16s.83-.93.93,0v1.75c0,1.14-.31,2.68-.93,4.13-.62,1.44-.1,1.55.31,1.75.41.21.83.31,1.55.31.83,0,1.24-.1,1.55-.31.41-.21.93-.31.31-1.75s-.93-2.99-.93-4.13v-1.75c.1-.93.83-1.14.93,0s.62,3.71,1.34,5.16c.72,1.44,1.86.72,2.06.52.31-.21,1.14-1.03,1.34-1.55.31-.52.41-.93-.31-1.55-.93-.93-2.17-2.58-2.79-3.82s-.1-1.75.72-.52c.83,1.24,1.86,2.37,2.89,3.1.52.41.72.52,1.14,0s1.14-1.75.93-3.1c-.21-1.24-.83-1.55-1.34-1.55-.83-.1-2.27,0-3.3-.93-1.44-1.34-2.17-2.58-2.79-6.09.21-1.86-.62-2.27-1.44-2.27h0Zm51.18,2.27c-.62,0-.62.62-.41,1.24.21.72.62,1.34.72,1.86s.31.83.72.31h.1c.41-.62.72-1.34,1.03-2.27.21-.93.21-1.14-.72-1.14h-1.44Zm9.7,0c-.83,0-.93.31-.62,1.14.21.93.62,1.65.93,2.27h.1c.41.52.62.31.72-.31.1-.52.41-1.24.62-1.86.21-.72.21-1.24-.41-1.24h-1.34Zm-66.66.41c-.62,0-.62.62-.41,1.24.21.72.62,1.34.72,1.86.1.52.31.83.72.31h.1c.41-.62.72-1.34,1.03-2.27s.21-1.14-.72-1.14h-1.44Zm9.7,0c-.83,0-.93.31-.62,1.14.21.93.62,1.65.93,2.27h.1c.41.52.62.31.72-.31.1-.52.41-1.24.62-1.86.21-.72.21-1.24-.41-1.24h-1.34Z"/><path id="path8216" class="cls-2" d="m96.35,115.69h141.68v44.17H96.35s0-44.17,0-44.17Z"/><path d="m239.17,160.89H95.32v-46.23h143.75v46.23h.1Zm-141.78-2.06h139.62v-42.1H97.38v42.1Z"/><g id="g8784"><path id="path8238" class="cls-1" d="m123.19,128.67c0-2.62,2.13-4.74,4.74-4.74h11.61v4.58h1.96c.82,0,1.47.65,1.47,1.47s-.65,1.47-1.47,1.47h-1.96v10.63h1.96c.82,0,1.47.65,1.47,1.47s-.65,1.47-1.47,1.47h-1.96v4.91h-14.23c-.33.82-1.31,1.47-2.29,1.47s-1.8-.65-2.29-1.47h-14.23v-4.91h-1.96c-.82,0-1.47-.65-1.47-1.47s.65-1.47,1.47-1.47h1.96v-10.63h-1.96c-.82,0-1.47-.65-1.47-1.47s.65-1.47,1.47-1.47h1.96v-4.58h11.61c2.94,0,5.07,2.13,5.07,4.74"/><path d="m123.19,151.73c-.98,0-1.96-.49-2.45-1.47h-14.23v-4.91h-1.64c-.98,0-1.8-.82-1.8-1.8s.82-1.8,1.8-1.8h1.64v-10.14h-1.64c-.98,0-1.8-.82-1.8-1.8s.82-1.8,1.8-1.8h1.64v-4.58h11.94c2.29,0,4.09,1.47,4.74,3.44.65-1.96,2.45-3.44,4.74-3.44h11.94v4.58h1.64c.98,0,1.8.82,1.8,1.8s-.82,1.8-1.8,1.8h-1.64v10.14h1.64c.98,0,1.8.82,1.8,1.8s-.82,1.8-1.8,1.8h-1.64v4.91h-14.23c-.49.98-1.47,1.47-2.45,1.47Zm-16.19-1.8h14.07v.16c.33.82,1.15,1.31,1.96,1.31s1.64-.49,1.96-1.31v-.16h14.07v-4.91h2.13c.65,0,1.31-.65,1.31-1.31s-.65-1.31-1.31-1.31h-2.13v-10.96h2.13c.65,0,1.31-.65,1.31-1.31s-.65-1.31-1.31-1.31h-2.13v-4.58h-11.45c-2.45,0-4.42,1.96-4.42,4.42v17.83h-.49v-17.83c0-2.45-1.96-4.42-4.42-4.42h-11.45v4.58h-2.13c-.65,0-1.31.65-1.31,1.31s.65,1.31,1.31,1.31h2.13v10.96h-2.13c-.65,0-1.31.65-1.31,1.31s.65,1.31,1.31,1.31h2.13v4.91h.16Z"/><path id="path8246" d="m128.26,134.07c0,.49.16.49.65.49s.65,0,.82-.33.98-1.15.98,0v1.64c0,1.15-.82.49-.98,0-.16-.33-.33-.49-.65-.49-.49,0-.65,0-.65.49-.16,1.64-.16,3.11,0,3.93,0,.33.16.49.49.49h.98c1.47,0,1.64-.82,1.96-1.8.33-1.47.98-1.15.98,0v2.13c0,.65-.65.33-.98.33h-5.4c-.49,0-.49-.33-.16-.49.33-.16.33-.33.33-1.15v-8.02c0-.98-.16-.98-.33-1.15-.33-.16-.16-.65.16-.49h5.07c.33,0,.98-.33.98.33v2.13c0,.65-.65.98-.98,0-.16-.98-.16-1.96-1.64-1.96h-.98c-.33,0-.49.16-.49.49-.16,1.47-.16,2.62-.16,3.44"/><path d="m120.74,150.26c-.16-.33-.33-.82-.33-1.15s0-.49.16-.65h-11.45v-22.25l2.13-2.13h.98v21.59h8.34c1.15,0,1.96.33,2.29.82h.49c.33-.49,1.31-.82,2.29-.82h8.34v-21.59h.98l2.13,2.13v22.25h-11.45c0,.16.16.49.16.65,0,.33-.16.82-.33,1.15l-.49-.16c.16-.33.16-.65.16-.98,0-1.31-.98-2.29-2.29-2.29s-2.29.98-2.29,2.29c0,.33,0,.65.16.98v.16Zm4.91-2.45h10.8l-2.13-1.96h-8.51c-.98,0-1.47.16-1.8.49.65.33,1.31.82,1.64,1.47Zm-15.7,0h10.8c.33-.65.98-1.15,1.64-1.47-.33-.33-.98-.49-1.8-.49h-8.51l-2.13,1.96Zm-.33-21.59v21.26l2.13-1.96v-21.26h-.33l-1.8,1.96Zm25.03,19.47l2.13,1.96v-21.26l-1.8-1.96h-.33v21.26h0Z"/><path id="path8254" d="m118.12,140.12c-.16.65-.49,1.15-.98,1.15s-.65-.49-.82-1.31l-1.96-8.83c-.16-.98-.33-.98-.65-1.15-.33-.16-.33-.65.16-.49h1.96c.49,0,.49.33.33.49-.16.16-.33.33-.16,1.15l1.15,5.56c.16.98.65.65.82,0l1.64-5.56c.16-.98-.16-.98-.33-1.15s0-.65.33-.49h1.64c.33,0,.33.33.16.65q-.33.16-.65,1.15l-2.62,8.83h0Z"/></g><g id="g8791"><path id="path8258" class="cls-1" d="m166.05,151.57c.98,0,1.8-.65,2.29-1.47h12.6v-4.91h1.96c.82,0,1.47-.65,1.47-1.47s-.65-1.47-1.47-1.47h-1.96v-10.63h1.96c.82,0,1.47-.65,1.47-1.47s-.65-1.47-1.47-1.47h-1.96v-4.58h-10.14c-2.62,0-4.74,2.13-4.74,4.74,0-2.62-2.13-4.74-4.74-4.74h-11.61v4.58h-1.96c-.82,0-1.47.65-1.47,1.47s.65,1.47,1.47,1.47h1.96v10.63h-1.96c-.82,0-1.47.65-1.47,1.47s.65,1.47,1.47,1.47h1.96v4.91h14.23c.33.82,1.15,1.47,2.13,1.47"/><path d="m166.05,151.73c-.98,0-1.96-.49-2.45-1.47h-14.23v-4.91h-1.64c-.98,0-1.8-.82-1.8-1.8s.82-1.8,1.8-1.8h1.64v-10.14h-1.64c-.98,0-1.8-.82-1.8-1.8s.82-1.8,1.8-1.8h1.64v-4.58h11.94c2.29,0,4.09,1.47,4.74,3.44.65-1.96,2.45-3.44,4.74-3.44h10.47v4.58h1.64c.98,0,1.8.82,1.8,1.8s-.82,1.8-1.8,1.8h-1.64v10.14h1.64c.98,0,1.8.82,1.8,1.8s-.82,1.8-1.8,1.8h-1.64v4.91h-12.76c-.49.98-1.31,1.47-2.45,1.47Zm-1.96-1.8h0c.33.82,1.15,1.31,2.13,1.31.82,0,1.64-.49,1.96-1.31v-.16c.16-.33.16-.49.16-.82,0-1.31-.98-2.29-2.29-2.29s-2.29.98-2.29,2.29c.16.33.16.65.33.98Zm4.58,0h12.1v-4.91h2.13c.65,0,1.31-.65,1.31-1.31s-.65-1.31-1.31-1.31h-2.13v-10.96h2.13c.65,0,1.31-.65,1.31-1.31s-.65-1.31-1.31-1.31h-2.13v-4.58h-3.93l1.8,1.8v22.25h-9.98c0,.16.16.49.16.65,0,.33,0,.65-.16.98Zm-18.65,0h13.58c-.16-.33-.16-.49-.16-.82s0-.49.16-.65h-11.45v-22.25l1.8-1.8h-3.93v4.58h-2.13c-.65,0-1.31.65-1.31,1.31s.65,1.31,1.31,1.31h2.13v10.96h-2.13c-.65,0-1.31.65-1.31,1.31s.65,1.31,1.31,1.31h2.13v4.74h0Zm18.48-2.13h9.32l-2.13-1.96h-7.03c-.82,0-1.47.16-1.8.49.82.33,1.31.82,1.64,1.47Zm-15.7,0h10.8c.33-.65.98-1.15,1.64-1.47-.33-.33-.82-.49-1.8-.49h-8.51l-2.13,1.96Zm-.33-21.59v21.26l2.13-1.96v-21.26h-.33l-1.8,1.96Zm23.56,19.47l2.13,1.96v-21.26l-1.8-1.96h-.33v21.26Zm-20.94-.16h8.34c1.15,0,1.96.33,2.29.82h0v-17.67c0-2.45-1.96-4.42-4.42-4.42h-6.22v21.26Zm11.29.82h0c.33-.49,1.31-.82,2.45-.82h6.87v-21.26h-4.74c-2.45,0-4.42,1.96-4.42,4.42v17.67h-.16Z"/><path id="path8266" d="m159.34,132.43v1.64c0,.33.16.49.82.49s1.96-.33,1.96-2.29-.98-2.13-1.47-2.29c-.65-.16-1.31,0-1.31.98v1.47Zm-1.15,8.67h-1.15c-.33,0-.49-.33-.16-.49.16-.16.49-.33.49-1.15v-8.51c0-.33,0-.65-.33-.82-.33-.33.16-.65.49-.65h2.62c2.94,0,3.93.98,3.93,2.78,0,1.31-.82,2.13-1.8,2.62-.33.16-.33.33-.33.49s0,.16.16.49c.16.16,1.96,3.76,2.13,4.09.33.33.33.49.49.65.16,0,.16.49-.49.49h-1.64s-.16,0-.33-.33c-.16-.33-2.29-4.91-2.62-5.23h-.65v3.93c0,.82.33.82.49,1.15.33.16.16.65-.33.65-.16-.16-.49-.16-.98-.16"/><path id="path8270" d="m172.59,139.47c0,.82.16.98.33,1.15.33.16.16.65-.16.49h-1.96c-.49,0-.49-.33-.16-.49.33-.16.33-.33.33-1.15v-8.02c0-.98-.16-.98-.33-1.15-.33-.16-.16-.65.16-.49h1.96c.49,0,.49.33.16.49-.33.16-.33.33-.33,1.15v8.02Z"/></g><g id="g8797"><path id="path8274" class="cls-1" d="m209.23,127.36c.49-1.96,2.45-3.44,4.58-3.44h13.74v4.58h1.96c.82,0,1.47.65,1.47,1.47s-.65,1.47-1.47,1.47h-1.96v10.63h1.96c.82,0,1.47.65,1.47,1.47s-.65,1.47-1.47,1.47h-1.96v4.91h-16.19c-.33.82-1.31,1.47-2.29,1.47s-1.8-.65-2.29-1.47h-15.54v-4.91h-1.96c-.82,0-1.47-.65-1.47-1.47s.65-1.47,1.47-1.47h1.96v-10.63h-1.96c-.82,0-1.47-.65-1.47-1.47s.65-1.47,1.47-1.47h1.96v-4.58h13.09c2.13,0,4.09,1.47,4.58,3.44h.33Z"/><path d="m209.07,151.73c-.98,0-1.96-.49-2.45-1.47h-15.7v-4.91h-1.64c-.98,0-1.8-.82-1.8-1.8s.82-1.8,1.8-1.8h1.64v-10.14h-1.64c-.98,0-1.8-.82-1.8-1.8s.82-1.8,1.8-1.8h1.64v-4.58h13.25c2.13,0,4.09,1.31,4.74,3.44.65-1.96,2.62-3.44,4.74-3.44h14.07v4.58h1.64c.98,0,1.8.82,1.8,1.8s-.82,1.8-1.8,1.8h-1.64v10.14h1.64c.98,0,1.8.82,1.8,1.8s-.82,1.8-1.8,1.8h-1.64v4.91h-16.36c-.49.98-1.31,1.47-2.29,1.47Zm-2.13-1.8h0c.33.82,1.15,1.31,2.13,1.31.82,0,1.64-.49,1.96-1.31v-.16c.16-.33.16-.49.16-.82,0-1.31-.98-2.29-2.29-2.29s-2.29.98-2.29,2.29c.16.49.16.65.33.98Zm4.74,0h15.7v-4.91h2.13c.65,0,1.31-.65,1.31-1.31s-.65-1.31-1.31-1.31h-2.13v-10.96h2.13c.65,0,1.31-.65,1.31-1.31s-.65-1.31-1.31-1.31h-2.13v-4.58h-3.93l1.8,1.8v22.25h-13.58c0,.16.16.49.16.65-.16.33-.16.65-.16.98Zm-20.28,0h15.05c-.16-.33-.16-.49-.16-.82s0-.49.16-.65h-12.92v-22.25l1.8-1.8h-3.93v4.58h-2.13c-.65,0-1.31.65-1.31,1.31s.65,1.31,1.31,1.31h2.13v10.96h-2.13c-.65,0-1.31.65-1.31,1.31s.65,1.31,1.31,1.31h2.13v4.74h0Zm20.12-2.13h12.92l-2.13-1.96h-10.63c-.82,0-1.47.16-1.8.49.65.33,1.31.82,1.64,1.47Zm-17.18,0h12.27c.33-.65.98-1.15,1.64-1.47-.33-.33-.98-.49-1.8-.49h-9.98l-2.13,1.96Zm28.14-2.13l2.13,1.96v-21.26l-1.8-1.96h-.33v21.26Zm-28.46-19.47v21.26l2.13-1.96v-21.26h-.33l-1.8,1.96Zm15.05,20.12h.33c.33-.49,1.31-.82,2.29-.82h10.47v-21.26h-8.34c-1.96,0-3.76,1.31-4.42,3.27v.16h-.65v-.16c-.49-1.96-2.29-3.27-4.42-3.27h-7.69v21.26h9.81c1.15,0,1.96.33,2.29.82h.33Z"/><path id="path8282" d="m208.25,133.74c.33-1.31.65-1.47.98.16l.49,2.29q.16.65-.98.65c-1.47,0-1.47-.16-1.31-.65l.82-2.45Zm1.8,4.09l.33,1.47c.16.82.16.98-.16,1.15-.16.16,0,.65.33.49h2.13c.49,0,.33-.49.16-.65-.33-.16-.33-.49-.49-.98l-2.45-8.83c-.16-.65-.49-1.15-.65-1.15-.49.16-1.15.33-1.15.65v.98l-2.45,8.34c-.33.82-.49.82-.65,1.15-.16.16-.16.65.16.65h1.64c.33,0,.49-.33.33-.49-.16-.16-.49-.33-.33-1.15l.49-1.64c.16-.33.98-.16,1.47-.16.16-.16,1.15-.33,1.31.16"/><path id="path8286" d="m201.71,129.65c.65,0,1.31,0,2.29-.16,1.47-.16,1.47,0,1.47.33v1.8c0,.33,0,.82-.33.82s-.49-.33-.65-.82c-.49-1.47-.98-1.64-1.47-1.64-.33,0-.49.33-.49.98v8.02c0,.82.16.98.33,1.15.33.16.16.65-.16.65h-2.29c-.49,0-.49-.33-.16-.65.33-.16.33-.33.33-1.15v-8.02c0-.82-.16-.98-.49-.98s-.82.16-1.47,1.64c-.16.49-.33.82-.65.82s-.33-.49-.33-.82v-1.8c0-.33,0-.49,1.47-.33,1.31.16,1.96.16,2.62.16"/><path id="path8290" d="m214.14,138.32c0-.98.65-.98.98.16.33.98.82,2.29,2.13,2.29s1.64-1.47,1.64-2.29c0-1.15-.49-1.64-2.29-2.94-1.8-1.31-2.29-2.29-2.29-3.27,0-1.15.98-2.78,2.78-2.78.82,0,1.31,0,1.64.33,0,0,.65.16.82,0s.49,0,.49.33v2.13c0,.49-.49.82-.82,0-.33-.98-.65-2.45-1.8-2.45s-1.31,1.31-1.31,1.8c0,1.47,1.31,1.8,2.94,2.94,1.47,1.15,1.96,1.64,1.96,3.27s-1.64,3.44-3.44,3.44c-.82,0-1.47-.49-2.13-.49s-.65.16-.82.16-.49-.16-.49-.65v-1.96"/></g></g><path d="m351.54,126.16h12.59l3.92,13.83c1.44,4.95,2.27,8.36,2.27,8.36h.1s.72-3.41,2.27-8.36l4.44-13.72h11.66l-12.38,34.16h-12.9l-11.97-34.26Z"/><path d="m405.93,146.7h-1.55c-4.33,0-5.78,1.34-5.78,3.51,0,1.65,1.14,2.89,3.2,2.89s4.13-1.03,4.13-4.23v-2.17Zm11.56,2.48c0,1.65.41,2.48,1.65,2.48.72,0,1.44-.31,2.17-.62v8.46c-1.65,1.14-3.2,1.65-5.88,1.65-4.54,0-7.12-2.06-8.46-5.37-1.96,3.51-4.95,5.57-9.8,5.57-6.29,0-10.22-3.71-10.22-9.49,0-7.33,5.26-11.04,15.58-11.04h3.51v-2.27c0-2.27-.72-3.82-2.89-3.82s-2.99,1.24-3.2,4.02l-11.35-1.75c.62-7.02,6.09-11.45,14.96-11.45,9.8,0,14.03,4.33,14.03,11.76v11.87h-.1Z"/><path d="m446.58,139.68c-1.44-.52-2.17-.93-4.13-.93-2.79,0-6.19,1.14-6.19,7.22v14.45h-11.87v-34.26h10.22l1.14,8.46c.93-5.68,5.78-8.46,11.66-8.46l-.83,13.52Z"/><path d="m472.59,140.82c0-4.33-2.17-6.71-5.57-6.71s-6.4,2.58-6.4,9.39c0,5.57,2.37,8.56,6.29,8.56,2.99,0,5.78-2.27,5.78-6.91v-4.33h-.1Zm-.1-26.11h11.97v45.71h-10.84l-1.14-5.88c-1.24,4.54-5.37,6.81-10.53,6.81-7.95,0-13.72-6.19-13.72-17.34s5.47-18.57,15.07-18.57c4.33,0,7.84,1.96,8.98,5.26v-15.99h.21Z"/><path d="m260.43,242.25h4.64c4.23,0,6.09-1.65,6.09-4.85s-1.86-4.85-6.09-4.85h-4.64v9.7Zm12.38,23.84c-1.44-1.14-1.96-2.79-2.48-4.85l-1.34-5.37c-.72-3.1-1.96-3.71-4.85-3.71h-3.82v13.93h-11.97v-43.55h18.68c9.8,0,16.51,3.82,16.51,13.72,0,6.91-4.44,10.32-9.29,11.14,4.02.83,5.99,2.58,7.02,6.4l2.06,7.43c.52,1.96,1.14,3.41,2.68,4.95h-13.21v-.1h0Z"/><path d="m316.87,231.83h12.59l3.92,13.72c1.44,4.95,2.27,8.36,2.27,8.36h.1s.72-3.41,2.27-8.36l4.44-13.72h11.66l-12.38,34.16h-12.9l-11.97-34.16Z"/><path d="m368.57,266.09h-11.87v-34.26h11.87v34.26Zm-5.99-49.02c3.51,0,6.6,2.48,6.6,6.29s-2.99,6.29-6.6,6.29-6.6-2.48-6.6-6.29c0-3.82,3.1-6.29,6.6-6.29"/><path d="m393.54,245.25c0-2.99-1.03-5.57-4.33-5.57-2.89,0-4.75,2.37-5.06,5.57h9.39Zm1.14,8.46l9.91,3.1c-1.96,7.33-7.95,10.11-14.76,10.11-10.11,0-17.54-6.4-17.54-17.65s6.5-18.26,17.23-18.26c10.11,0,15.27,6.5,15.27,15.99,0,1.24,0,2.79-.1,4.33h-20.84c.21,4.23,2.27,6.5,5.88,6.5,2.48,0,4.13-1.14,4.95-4.13"/><path d="m436.78,231.83l2.48,11.87c1.24,6.09,1.96,10.73,1.96,10.73h.1s.72-4.54,2.17-10.53l2.79-12.07h11.56l-9.29,34.16h-13.41l-2.06-10.01c-1.03-5.06-1.86-10.94-1.86-10.94h-.1s-.83,5.88-1.86,10.94l-2.06,10.01h-13.31l-9.29-34.16h12.07l2.79,12.07c1.44,6.09,2.17,10.53,2.17,10.53h.1s.62-4.54,1.96-10.73l2.48-11.87h10.63Z"/><path d="m350.1,139.68c-1.44-.52-2.27-.93-4.13-.93-2.79,0-6.19,1.14-6.19,7.22v14.45h-11.97v-34.26h10.22l1.14,8.46c.93-5.68,5.78-8.46,11.66-8.46l-.72,13.52Z"/><polygon points="248.35 160.32 248.35 116.77 260.53 116.77 260.53 132.98 275.39 132.98 275.39 116.77 287.57 116.77 287.57 160.32 275.39 160.32 275.39 143.5 260.53 143.5 260.53 160.32 248.35 160.32"/><path d="m309.55,146.7h-1.55c-4.33,0-5.78,1.34-5.78,3.51,0,1.65,1.14,2.89,3.2,2.89s4.13-1.03,4.13-4.23v-2.17Zm11.45,2.48c0,1.65.41,2.48,1.65,2.48.72,0,1.44-.31,2.17-.62v8.46c-1.65,1.14-3.2,1.65-5.88,1.65-4.54,0-7.12-2.06-8.46-5.37-1.96,3.51-4.95,5.57-9.8,5.57-6.29,0-10.22-3.71-10.22-9.49,0-7.33,5.26-11.04,15.58-11.04h3.51v-2.27c0-2.27-.72-3.82-2.89-3.82s-2.99,1.24-3.2,4.02l-11.35-1.75c.62-7.02,6.09-11.45,14.96-11.45,9.8,0,14.03,4.33,14.03,11.76v11.87h-.1Z"/><path d="m306.45,245.25c0-2.99-1.03-5.57-4.33-5.57-2.89,0-4.75,2.37-5.06,5.57h9.39Zm1.24,8.46l9.91,3.1c-1.96,7.33-7.95,10.11-14.76,10.11-10.11,0-17.54-6.4-17.54-17.65s6.5-18.26,17.23-18.26c10.11,0,15.27,6.5,15.27,15.99,0,1.24,0,2.79-.1,4.33h-20.84c.21,4.23,2.27,6.5,5.88,6.5,2.37,0,4.13-1.14,4.95-4.13"/><path d="m260.32,203.25h6.29c2.99,0,4.75-1.34,4.75-3.82s-1.65-3.82-4.75-3.82h-6.29v7.64Zm0-15.48h4.64c3.1,0,5.06-1.14,5.06-4.13s-1.96-4.13-5.06-4.13h-4.64v8.26Zm23.42,13.72c0,7.02-4.85,11.76-15.48,11.76h-19.92v-43.65h19.4c9.29,0,14.24,4.23,14.24,11.35,0,5.06-2.99,8.67-7.64,9.8,6.09,1.34,9.39,5.47,9.39,10.73"/><path d="m307.38,206.86c-.93,4.54-4.44,7.22-10.32,7.22-6.19,0-10.53-3.82-10.53-11.87v-23.22h11.97v20.64c0,3.41.93,5.47,3.71,5.47,3.1,0,5.06-2.79,5.06-8.36v-17.75h11.97v34.16h-10.73l-1.14-6.29Z"/><path d="m331.42,201.49c.62,2.79,2.79,4.33,5.37,4.33,2.17,0,3.61-.72,3.61-2.17s-1.24-2.17-3.71-2.68l-4.54-.93c-6.19-1.34-9.49-4.54-9.49-10.11,0-8.26,7.12-11.56,14.76-11.56,8.26,0,13.21,3.41,14.34,9.8l-10.84,1.65c-.41-1.96-1.55-2.99-3.82-2.99-1.65,0-2.89.83-2.89,2.17s.93,1.96,2.79,2.27l4.54.83c7.53,1.24,10.73,5.37,10.73,11.14,0,8.05-7.02,11.14-15.48,11.14-7.74,0-12.9-2.79-14.86-8.87l9.49-4.02Z"/><path d="m367.54,213.15h-11.87v-34.16h11.87v34.16Zm-5.99-48.91c3.51,0,6.6,2.48,6.6,6.29s-2.99,6.29-6.6,6.29-6.6-2.48-6.6-6.29c0-3.82,3.1-6.29,6.6-6.29"/><path d="m384.57,185.6c1.75-5.06,5.78-7.43,10.84-7.43s10.01,3.1,10.01,10.94v24.04h-11.87v-19.4c0-3.51-1.03-5.57-4.02-5.57-2.58,0-4.85,1.55-4.85,6.81v18.26h-11.87v-34.26h10.73l1.03,6.6Z"/><path d="m429.87,192.41c0-2.99-1.03-5.57-4.33-5.57-2.89,0-4.75,2.37-5.06,5.57h9.39Zm1.24,8.46l9.91,3.1c-1.96,7.33-7.95,10.11-14.76,10.11-10.11,0-17.54-6.4-17.54-17.65s6.5-18.26,17.23-18.26c10.11,0,15.27,6.5,15.27,15.99,0,1.24,0,2.79-.1,4.33h-20.84c.21,4.23,2.27,6.5,5.88,6.5,2.37,0,4.13-1.14,4.95-4.13"/><path d="m452.16,201.49c.62,2.79,2.79,4.33,5.37,4.33,2.17,0,3.61-.72,3.61-2.17s-1.24-2.17-3.71-2.68l-4.54-.93c-6.19-1.34-9.49-4.54-9.49-10.11,0-8.26,7.12-11.56,14.76-11.56,8.26,0,13.21,3.41,14.34,9.8l-10.84,1.65c-.41-1.96-1.55-2.99-3.82-2.99-1.65,0-2.89.83-2.89,2.17s.93,1.96,2.79,2.27l4.54.83c7.53,1.24,10.73,5.37,10.73,11.14,0,8.05-7.02,11.14-15.48,11.14-7.74,0-12.9-2.79-14.86-8.87l9.49-4.02Z"/><path d="m483.84,201.49c.62,2.79,2.79,4.33,5.37,4.33,2.17,0,3.61-.72,3.61-2.17s-1.24-2.17-3.71-2.68l-4.54-.93c-6.19-1.34-9.49-4.54-9.49-10.11,0-8.26,7.12-11.56,14.76-11.56,8.26,0,13.21,3.41,14.34,9.8l-10.84,1.65c-.41-1.96-1.55-2.99-3.82-2.99-1.65,0-2.89.83-2.89,2.17s.93,1.96,2.79,2.27l4.54.83c7.53,1.24,10.73,5.37,10.73,11.14,0,8.05-7.02,11.14-15.48,11.14-7.74,0-12.9-2.79-14.86-8.87l9.49-4.02Z"/></svg>