<?xml version="1.0" encoding="UTF-8"?> <svg xmlns="http://www.w3.org/2000/svg" id="Layer_1" width="599.76" height="400.32" viewBox="0 0 599.76 400.32"><defs><style>.cls-1{fill:#e40784;}</style></defs><path class="cls-1" d="m385.36,227.69c-7.72,0-14-6.28-14-14s6.28-13.99,14-13.99,13.99,6.28,13.99,13.99c0,7.72-6.27,14-13.99,14Zm0-19.81c-3.21,0-5.81,2.6-5.81,5.81s2.6,5.81,5.81,5.81,5.81-2.6,5.81-5.81-2.6-5.81-5.81-5.81Z"></path><path class="cls-1" d="m385.36,164.56c-1.95,0-3.89.12-5.81.34v8.86c1.91-.28,3.85-.42,5.81-.42,22.24,0,40.35,18.1,40.35,40.35,0,1.96-.15,3.9-.42,5.81h8.86c.23-1.92.34-3.86.34-5.81,0-27.08-22.04-49.13-49.13-49.13Z"></path><path class="cls-1" d="m385.36,181.81c-1.96,0-3.9.18-5.81.54v8.99c1.88-.49,3.83-.74,5.81-.74,12.74,0,23.1,10.37,23.1,23.1,0,1.97-.25,3.92-.74,5.81h8.98c.36-1.9.54-3.85.54-5.81,0-17.59-14.3-31.89-31.88-31.89Z"></path><path d="m219.29,182.45h-6.74c-7.62,0-13.8,6.19-13.8,13.81v23.22h9.58v-23.23c0-2.32,1.9-4.22,4.22-4.22h6.74v-9.58Z"></path><path d="m241.02,209.89c-4.95,0-8.98-4.03-8.98-8.98s4.03-8.98,8.98-8.98,8.98,4.03,8.98,8.98-4.03,8.98-8.98,8.98Zm0-27.53c-10.24,0-18.56,8.32-18.56,18.56s8.32,18.56,18.56,18.56c3.26,0,6.31-.85,8.97-2.33v2.33h9.58v-18.56c0-10.24-8.31-18.56-18.55-18.56Z"></path><path d="m149.09,208.96c-2.52,3.17-6.27,4.99-10.3,4.99-7.25,0-13.15-5.9-13.15-13.15s5.9-13.15,13.15-13.15c4.03,0,7.78,1.82,10.3,4.99l.21.27,3.93-3.93-.18-.22c-3.57-4.22-8.77-6.64-14.26-6.64-10.3,0-18.68,8.38-18.68,18.68s8.38,18.68,18.68,18.68c5.49,0,10.69-2.42,14.26-6.64l.18-.22-3.93-3.93-.21.27Z"></path><path d="m96.11,182.12c-10.3,0-18.68,8.38-18.68,18.68s8.38,18.68,18.68,18.68c7.4,0,14.11-4.39,17.1-11.18l.19-.43h-6.21l-.09.14c-2.45,3.72-6.56,5.94-11,5.94-6.21,0-11.56-4.35-12.86-10.38h31.33l.03-.26c.11-.85.17-1.69.17-2.5,0-10.31-8.38-18.69-18.68-18.69Zm-12.86,15.91c1.29-6.04,6.65-10.38,12.86-10.38s11.56,4.35,12.86,10.38h-25.71Z"></path><path d="m159.5,219.48h5.53v-21c0-6.01,4.89-10.9,10.9-10.9s10.9,4.89,10.9,10.9v20.99h5.53v-21.71h-.02c-.18-4.18-1.93-8.09-4.94-11.03-3.09-3.01-7.16-4.68-11.47-4.68-4.04,0-7.89,1.47-10.9,4.16v-20.35h-5.53v53.62Z"></path><path d="m56.26,182.11h-6.38v5.53h6.38v20.1c0,6.46,5.26,11.72,11.72,11.72h5.78v-5.53h-5.78c-3.41,0-6.19-2.78-6.19-6.2v-20.09h8.95v-5.53h-8.95v-13.19h-5.53v13.18Z"></path><path d="m291.87,184.63c-1.84-1.01-3.89-1.7-6.04-2.03-.21-.03-.42-.07-.63-.1-.24-.03-.47-.05-.72-.07-.45-.03-.91-.06-1.36-.07-.05,0-.1,0-.15,0h-.09c-10.24,0-18.56,8.32-18.56,18.56s8.32,18.56,18.56,18.56h.09c.59,0,1.18-.04,1.76-.1.03,0,.06,0,.09,0,2.56-.25,4.98-1.03,7.13-2.23v2.32h9.58l-.08-53.62h-9.58v18.79Zm0,16.29c0,4.93-4.01,8.95-8.94,8.97-4.93-.03-8.93-4.04-8.93-8.97s4.01-8.95,8.93-8.97c4.92.03,8.94,4.03,8.94,8.97Z"></path><path d="m334.07,219.41h9.58v-18.49h0v-.05c-.03-10.21-8.34-18.51-18.56-18.51s-18.56,8.32-18.56,18.56,8.33,18.56,18.56,18.56c3.26,0,6.31-.85,8.98-2.33v2.26Zm-8.98-9.52c-4.95,0-8.98-4.03-8.98-8.98s4.02-8.98,8.98-8.98,8.97,4.03,8.98,8.97h0c0,4.97-4.03,8.99-8.98,8.99Z"></path><path d="m363.79,182.36c-7.62,0-13.81,6.19-13.81,13.81v23.31h9.58v-23.31c0-2.32,1.89-4.22,4.22-4.22h6.74v-9.59h-6.73Z"></path><path d="m462.19,213.94c-7.23,0-13.12-5.89-13.12-13.12s5.89-13.12,13.12-13.12,13.12,5.89,13.12,13.12-5.89,13.12-13.12,13.12Zm0-31.8c-5.11,0-9.75,2.07-13.12,5.4v-5.43h-5.56v53.65h5.56v-21.66c3.37,3.34,8.01,5.4,13.12,5.4,10.3,0,18.68-8.38,18.68-18.68s-8.38-18.67-18.68-18.67Z"></path><path d="m493.04,219.48h-5.66v-23.28c0-7.63,6.21-13.84,13.84-13.84h6.76v5.66h-6.76c-4.52,0-8.18,3.67-8.18,8.18v23.28Z"></path><path d="m531.2,187.76c-7.23,0-13.12,5.89-13.12,13.12s5.89,13.12,13.12,13.12,13.12-5.89,13.12-13.12-5.89-13.12-13.12-13.12Zm0,31.8c-10.3,0-18.68-8.38-18.68-18.68s8.38-18.68,18.68-18.68,18.68,8.38,18.68,18.68-8.38,18.68-18.68,18.68Z"></path></svg> 