<?xml version="1.0" encoding="UTF-8"?> <svg xmlns="http://www.w3.org/2000/svg" id="techtarget-logo" width="100" height="52.34" viewBox="0 0 100 52.34"><defs><style>.cls-1{fill:#fff;}</style></defs><path class="cls-1" d="m79.56,15.18c0,4.93-4,8.93-8.94,8.93s-8.93-4-8.93-8.94,4-8.93,8.93-8.93,8.94,4,8.94,8.94m20.03-3.29c-.08.02-11.54-11.89-28.86-11.89s-28.85,11.9-28.85,11.9l.02,1.79s9.14-7.76,23.35-9.51c-6.09,2.98-8.61,10.33-5.63,16.41,2.98,6.09,10.33,8.61,16.41,5.63,6.09-2.98,8.61-10.33,5.63-16.41-1.21-2.47-3.22-4.47-5.7-5.67,14.39,1.69,23.65,9.55,23.65,9.55v-1.81Z"></path><path class="cls-1" d="m70.64,17.4c-1.18,0-2.14-.95-2.15-2.13,0-1.18.95-2.14,2.13-2.15,1.18,0,2.14.95,2.15,2.13h0c0,1.19-.96,2.15-2.13,2.15m0-7.55c-2.99,0-5.42,2.42-5.42,5.42s2.42,5.42,5.42,5.42,5.42-2.42,5.42-5.42h0c0-2.99-2.43-5.42-5.42-5.42"></path><path class="cls-1" d="m20,45.36l-1.06-2.19c-1.05.65-1.48.87-2.16,1.06-.43.13-.88.2-1.33.19-1.02.02-1.97-.49-2.52-1.35-.26-.45-.34-.85-.38-1.79h7.45v-1.25c0-3.05-1.94-5.15-4.71-5.15-3.22,0-5.64,2.69-5.64,6.24s2.09,5.64,5.44,5.64c1.28,0,2.54-.27,3.7-.8.26-.12.68-.32,1.21-.61m-2.9-5.89h-4.41c.25-1.53,1.11-2.4,2.39-2.4,1.36,0,1.94.68,2.02,2.4"></path><path class="cls-1" d="m30.5,46.11c-1.05.43-2.16.65-3.29.65-3.49,0-5.73-2.3-5.73-5.83s2.39-6.07,5.98-6.07c.62,0,1.23.07,1.83.19.77.17,1.5.48,2.16.92l-1.38,2.2c-.85-.65-1.4-.87-2.28-.87-1.91,0-3.26,1.49-3.26,3.6s1.21,3.39,2.95,3.39c.97,0,1.67-.25,2.91-.97l1.06,2.36c-.42.19-.73.34-.95.44"></path><path class="cls-1" d="m39.82,46.45v-7.24c0-1.41-.25-1.91-.95-1.91-.61,0-1.45.6-2.71,1.96l-.39.42v6.77h-2.9v-17.64h2.9v8.25c1.35-1.48,2.47-2.09,3.9-2.09,2.03,0,3.05,1.06,3.05,3.19v8.28h-2.9Z"></path><polygon class="cls-1" points="7.83 33.1 7.83 46.46 4.79 46.46 4.79 33.1 0 33.1 0 30.51 12.62 30.51 12.62 33.1 7.83 33.1"></polygon><path class="cls-1" d="m60.91,44.42c-.79-.08-.9-.25-.9-1.25v-4.7c0-2.47-1.21-3.58-3.89-3.58-3.05,0-4.79,1.14-4.79,3.12,0,.27.04.54.15.79l2.76-.61c-.04-.09-.07-.19-.08-.29,0-.55.7-1.02,1.57-1.02.95,0,1.38.55,1.38,1.76v.95l-3.18.92c-1.65.48-2.32,1.02-2.71,2.06-.12.37-.19.75-.19,1.14,0,1.79,1.35,3.05,3.27,3.05,1.14,0,2.09-.42,3.14-1.38.51.99.97,1.23,2.42,1.23h.61l.45-2.17Zm-3.8-.79c-.23.19-.48.37-.75.51-.36.21-.77.32-1.19.34-.58.05-1.11-.38-1.16-.96,0-.07,0-.13,0-.2,0-.32.08-.65.22-.95l2.88-.95s0,2.21,0,2.21Z"></path><path class="cls-1" d="m68.12,38.63c-.24-.22-.55-.33-.87-.34-.45,0-.97.32-1.41.85-.52.59-.8,1.36-.79,2.15v5.16h-2.88v-11.25h2.49l.12,2.46c1.09-1.91,1.79-2.64,2.66-2.64.62,0,1.19.3,1.57.79l-.9,2.82Z"></path><path class="cls-1" d="m77.86,47.83c0,.44-.32.95-.85,1.35-.71.56-1.59.87-2.49.88-1.33,0-2.37-.56-2.37-1.26,0-.29.19-.73.52-1.28.09-.12.18-.25.25-.38h3.53c.95,0,1.42.23,1.42.69m3.12-10.46v-2.18l-2.28.15h-1.67c-1.06-.36-1.52-.46-2.36-.46-2.98,0-4.82,1.65-4.82,4.33-.02,1.01.34,1.99.99,2.76.29.33.62.62.99.87-.31.25-.55.39-.7.52-1.09.72-1.48,1.23-1.48,1.89s.46,1.12,1.57,1.52c-1.31,1.11-1.79,1.86-1.79,2.73,0,1.69,1.86,2.83,4.62,2.83,3.78,0,6.49-2.03,6.49-4.84,0-1.82-1.05-2.71-3.24-2.71h-3.93c-.55,0-.75-.08-.75-.32,0-.29.36-.65,1.12-1.21.27.05.55.08.82.07,2.95,0,4.94-1.72,4.94-4.28.03-.6-.15-1.19-.52-1.67l2-.02Zm-4.43,1.69c0,1.16-.82,2.08-1.86,2.08s-1.86-.92-1.86-2.06.82-2.12,1.83-2.12,1.89.94,1.89,2.09"></path><path class="cls-1" d="m91.82,45.36l-1.07-2.19c-1.05.65-1.48.87-2.16,1.06-.43.13-.88.2-1.33.19-1.02.02-1.97-.49-2.52-1.35-.26-.45-.34-.85-.38-1.79h7.46v-1.25c0-3.05-1.94-5.15-4.71-5.15-3.22,0-5.64,2.69-5.64,6.24s2.09,5.64,5.44,5.64c1.28,0,2.54-.27,3.7-.8.26-.12.68-.32,1.22-.61m-2.89-5.89h-4.42c.25-1.53,1.11-2.4,2.39-2.4,1.35,0,1.94.68,2.01,2.4"></path><path class="cls-1" d="m98.93,46.01c-.76.46-1.62.72-2.52.75-1.5,0-2.2-.79-2.2-2.44v-7h-1.67v-1.83l1.67-.29v-3.37h2.73v3.36h2.45v2.13h-2.45v5c0,1.25.12,1.62.58,1.62.34,0,.75-.17,1.55-.7l.92,2.11c-.39.24-.75.45-1.07.65"></path><polygon class="cls-1" points="49.3 33.1 49.3 46.46 46.25 46.46 46.25 33.1 41.47 33.1 41.47 30.51 54.08 30.51 54.08 33.1 49.3 33.1"></polygon><path class="cls-1" d="m97.85,3.66h-.37v.83h.42c.37,0,.56-.14.56-.45,0-.31-.32-.38-.61-.38m.63,1.94l-.67-.92h-.34v.92h-.22v-2.14h.65c.54,0,.8.19.8.58-.02.34-.28.61-.62.63l.69.93h-.29Zm-.52-2.78c-.92,0-1.65.75-1.65,1.67v.02c-.04.91.67,1.67,1.58,1.71s1.67-.67,1.71-1.58v-.13c.02-.92-.71-1.68-1.62-1.7,0,0,0,0-.02,0m0,3.61c-1.05.02-1.92-.83-1.93-1.88s.83-1.92,1.88-1.93c1.05-.02,1.92.83,1.93,1.88v.02c0,1.04-.83,1.89-1.88,1.91"></path></svg> 