<?xml version="1.0" encoding="UTF-8"?> <svg xmlns="http://www.w3.org/2000/svg" id="Layer_2" width="100" height="23.59" viewBox="0 0 100 23.59"><defs><style>.cls-1{fill:#3a357e;}</style></defs><path class="cls-1" d="m5.08,17.77c-3.41,0-5.08-2.11-5.08-6.32s1.73-6.63,5.14-6.69c.99,0,1.8.31,2.35.87V1.55L10.15.19v17.28h-2.72v-.43c-.68.5-1.49.74-2.35.74Zm-2.48-6.32c0,2.6.8,3.96,2.41,3.96.93,0,1.73-.37,2.35-1.18v-5.57c-.5-.8-1.24-1.24-2.29-1.24-1.61.06-2.48,1.36-2.48,4.02Z"></path><path class="cls-1" d="m14.67,17.46h-2.79V5.08h2.79v12.38Z"></path><path class="cls-1" d="m21.42,17.77c-3.41,0-5.08-2.11-5.08-6.32s1.73-6.63,5.14-6.69c.99,0,1.8.31,2.35.87v-.8h2.66v12.2c-.12,3.34-1.61,5.51-4.52,6.56l-1.11-2.23c2.04-.8,3.03-2.29,2.97-4.33-.74.5-1.49.74-2.41.74Zm-2.41-6.32c0,2.6.8,3.96,2.41,3.96.93,0,1.73-.37,2.35-1.18v-5.57c-.5-.8-1.24-1.24-2.29-1.24-1.67.06-2.48,1.36-2.48,4.02Z"></path><path class="cls-1" d="m31.15,17.46h-2.79V5.08h2.79v12.38Z"></path><path class="cls-1" d="m32.88,4.89h2.66v.8c.74-.62,1.73-.93,2.97-.93,1.42,0,2.54.5,3.22,1.49s1.05,2.11,1.05,3.41v7.8h-2.6v-7.74c.06-.62-.19-1.24-.62-1.73-.43-.5-1.05-.74-1.73-.74-.74,0-1.3.19-1.67.62-.37.43-.56,1.05-.56,1.86v7.8h-2.66V4.89h-.06Z"></path><path class="cls-1" d="m54.86,11.27c0,1.73-.37,3.1-.99,4.21-.87,1.49-2.29,2.23-4.15,2.35-1.92-.06-3.28-.87-4.15-2.35-.68-1.11-.99-2.48-.99-4.21s.37-3.22.99-4.27c.87-1.42,2.29-2.17,4.15-2.23,1.86.06,3.28.8,4.15,2.23.62,1.05.99,2.48.99,4.27Zm-5.2,3.84c.99,0,1.67-.5,2.17-1.42.31-.68.43-1.49.43-2.35,0-.93-.12-1.73-.43-2.41-.43-.99-1.18-1.42-2.17-1.42s-1.67.5-2.11,1.42c-.31.68-.43,1.49-.43,2.41,0,.87.12,1.67.43,2.35.5.93,1.18,1.42,2.11,1.42Z"></path><path class="cls-1" d="m73.62,17.46h-2.66v-8.05c0-.5-.19-.99-.62-1.49-.43-.5-.99-.74-1.61-.68-.62,0-1.11.25-1.49.68s-.56.93-.56,1.49v8.05h-2.85v-8.05c0-.5-.19-.99-.62-1.49-.43-.5-.93-.68-1.55-.68-.56,0-1.05.25-1.42.68-.37.43-.62.93-.62,1.49v8.05h-2.79V4.83h2.72v.74c.74-.62,1.67-.93,2.66-.93,1.42,0,2.48.56,3.28,1.73.8-1.18,1.92-1.73,3.41-1.73,1.24,0,2.35.5,3.28,1.42s1.42,2.04,1.42,3.34c0,0,0,8.05,0,8.05Z"></path><path class="cls-1" d="m78.14,17.46h-2.79V5.08h2.79v12.38Z"></path><path class="cls-1" d="m79.63,11.21c0-1.73.31-3.16.99-4.27.87-1.49,2.29-2.23,4.21-2.23,2.48,0,4.02,1.05,4.71,3.1l-2.54.99c-.37-1.05-1.11-1.61-2.23-1.61-.93,0-1.55.5-1.98,1.49-.31.68-.43,1.49-.43,2.41s.12,1.73.43,2.41c.43.99,1.05,1.49,1.98,1.49,1.11,0,1.86-.5,2.23-1.61l2.54.99c-.68,2.11-2.29,3.1-4.71,3.1-1.92,0-3.28-.74-4.21-2.23-.68-.87-.99-2.29-.99-4.02Z"></path><path class="cls-1" d="m100,17.46h-2.6v-.43c-.68.5-1.42.74-2.23.74-1.36,0-2.48-.37-3.34-1.18-.87-.74-1.36-1.86-1.36-3.28,0-1.24.43-2.29,1.24-3.1.8-.87,1.92-1.24,3.34-1.24.8,0,1.49.12,2.17.31.06-1.24-.62-1.92-1.86-2.04-1.11-.06-2.11.25-2.97.93l-1.36-2.04c1.24-.87,2.66-1.3,4.27-1.36,1.3,0,2.41.37,3.34,1.11s1.36,1.86,1.36,3.28v8.3h0Zm-2.79-2.85v-2.79c-.74-.19-1.49-.31-2.23-.31-.62,0-1.11.19-1.49.56-.37.37-.56.8-.56,1.3s.19.99.62,1.42c.37.43.93.68,1.61.68.68.06,1.36-.25,2.04-.87Z"></path><path class="cls-1" d="m14.98,1.67c0,.5-.19.87-.5,1.24-.31.31-.74.5-1.18.5s-.8-.19-1.18-.5c-.37-.37-.5-.74-.5-1.18s.12-.87.43-1.24c.37-.37.74-.5,1.18-.5s.8.19,1.18.5c.37.37.56.74.56,1.18Z"></path><path class="cls-1" d="m31.46,1.67c0,.5-.19.87-.5,1.24-.31.31-.74.5-1.18.5s-.8-.19-1.18-.5c-.37-.37-.5-.74-.5-1.18s.19-.8.5-1.18c.37-.37.74-.5,1.18-.5s.8.19,1.18.5c.31.31.5.68.5,1.11Z"></path><path class="cls-1" d="m78.45,1.67c0,.5-.19.87-.5,1.24-.31.31-.74.5-1.18.5s-.8-.19-1.18-.5c-.37-.37-.5-.74-.5-1.18s.19-.8.5-1.18c.37-.37.74-.5,1.18-.5s.8.19,1.18.5c.37.31.5.68.5,1.11Z"></path></svg> 