<?xml version="1.0" encoding="UTF-8"?> <svg xmlns="http://www.w3.org/2000/svg" id="Layer_1" width="599.76" height="400.32" viewBox="0 0 599.76 400.32"><defs><style>.cls-1{fill:#ff008d;}.cls-2{fill:#321757;}</style></defs><path class="cls-1" d="m473.34,214.2c-7.75,0-14.04,6.29-14.04,14.04s6.28,14.04,14.04,14.04,14.04-6.28,14.04-14.04-6.28-14.04-14.04-14.04m0,7.02c3.87,0,7.02,3.15,7.02,7.02s-3.15,7.02-7.02,7.02-7.02-3.15-7.02-7.02,3.15-7.02,7.02-7.02"></path><polygon class="cls-2" points="112.38 161.07 162.23 161.07 162.23 176.08 129.63 176.08 129.63 195.23 156.4 195.23 156.4 210.13 129.63 210.13 129.63 240.93 112.38 240.93 112.38 161.07"></polygon><path class="cls-2" d="m185.52,240.93h-17.03v-57.46h17.03v57.46Zm-8.74-82.89c5.27,0,9.52,3.81,9.52,9.07s-4.26,9.18-9.52,9.18-9.41-3.92-9.41-9.18,4.14-9.07,9.41-9.07"></path><path class="cls-2" d="m191.79,183.47h16.35v7.39c3.7-5.94,9.41-8.74,17.03-8.74,13.67,0,22.29,8.96,22.29,23.86v34.95h-17.03v-32.37c0-7.39-4.03-11.42-10.3-11.42-7.39,0-11.32,6.38-11.32,13.89v29.91h-17.03v-57.46Z"></path><polygon class="cls-2" points="232.44 176.19 232.44 161.07 294.05 161.07 294.05 176.19 271.87 176.19 271.87 240.93 254.62 240.93 254.62 176.19 232.44 176.19"></polygon><path class="cls-2" d="m295.05,205.76h22.96v-.11c-.33-5.94-5.04-9.63-10.98-9.63s-11.2,3.58-11.98,9.74m12.21-23.63c16.35,0,27.33,11.09,27.33,26.55,0,2.69-.56,5.71-1.01,7.62h-38.31c.9,7.73,7.73,11.54,15.23,11.54,6.38,0,11.31-2.8,14.34-5.93l8.96,10.97c-7.28,6.72-14.9,9.41-24.31,9.41-19.27,0-31.81-13.11-31.81-30.02s12.55-30.13,29.57-30.13"></path><path class="cls-2" d="m368.64,182.13c10.53,0,18.59,4.48,24.19,12.99l-11.31,9.97c-2.91-5.04-7.06-7.84-12.55-7.84-7.95,0-13.67,6.38-13.67,14.9s5.71,15.01,13.89,15.01c5.49,0,9.52-2.8,12.88-7.06l10.87,9.86c-5.27,7.51-13.89,12.32-24.19,12.32-17.81,0-30.69-13.22-30.69-30.13s12.88-30.02,30.58-30.02"></path><path class="cls-2" d="m396.53,240.93v-79.87h17.03v28.68c3.7-4.93,9.19-7.62,16.36-7.62,13.55,0,22.29,8.96,22.29,23.86v34.95h-17.03v-32.37c0-7.39-4.03-11.43-10.3-11.43-7.39,0-11.32,6.05-11.32,13.55v30.24h-17.03Z"></path></svg> 