<?xml version="1.0" encoding="UTF-8"?> <svg xmlns="http://www.w3.org/2000/svg" id="Layer_1" width="100" height="22.29" viewBox="0 0 100 22.29"><defs><style>.cls-1{fill:#3a357e;}</style></defs><path class="cls-1" d="m30.12,1.42c.56-.01,1.12.05,1.66.18.4.1.78.27,1.12.51.28.21.49.48.63.8.14.33.2.69.2,1.05,0,.21-.03.41-.09.61-.06.2-.16.38-.28.55-.14.18-.31.34-.5.47-.23.15-.47.28-.73.37.62.15,1.08.39,1.38.73.3.34.45.77.45,1.31,0,.38-.08.77-.23,1.12-.16.35-.39.65-.68.9-.33.27-.7.48-1.11.6-.49.15-1,.23-1.51.22h-3.76V1.42h3.46Zm-1.28,1.63v2.32h1.14c.22,0,.44-.01.65-.05.18-.03.34-.09.49-.18.13-.09.24-.21.31-.35.08-.18.11-.37.11-.57,0-.19-.02-.38-.08-.56-.05-.14-.14-.27-.26-.36-.13-.1-.28-.16-.44-.19-.21-.04-.42-.06-.64-.06h-1.28Zm1.54,6.13c.24,0,.48-.03.71-.11.16-.06.31-.16.43-.28.1-.11.17-.25.21-.4.04-.15.06-.29.06-.45,0-.16-.02-.31-.07-.46-.04-.14-.12-.26-.23-.35-.13-.1-.28-.18-.44-.22-.22-.06-.45-.08-.69-.08h-1.52v2.34h1.54Z"></path><path class="cls-1" d="m36.83,5.17c.18-.33.42-.62.71-.85.27-.21.59-.31.93-.31.26-.01.52.07.74.22l-.13,1.47c-.01.08-.05.15-.11.19-.06.04-.13.06-.2.05-.03,0-.08,0-.14,0-.06,0-.11,0-.17-.02l-.18-.02c-.06,0-.11,0-.17,0-.25-.01-.51.07-.7.23-.19.18-.34.4-.44.65v4.07h-2v-6.7h1.19c.08,0,.17,0,.25.03.06.01.12.04.17.08.05.04.08.09.1.15.03.07.05.14.06.22l.1.56Z"></path><path class="cls-1" d="m45.13,9.59c-.22.22-.45.42-.69.6-.22.16-.45.31-.7.42-.24.11-.5.19-.76.24-.29.05-.59.08-.88.08-.37,0-.74-.06-1.09-.2-.32-.13-.61-.33-.86-.58-.24-.26-.43-.56-.56-.9-.14-.37-.2-.77-.2-1.16,0-.35.04-.7.12-1.05.08-.33.19-.66.35-.96.15-.3.33-.58.55-.83.21-.25.46-.47.73-.65.56-.38,1.23-.58,1.91-.57.32,0,.65.05.95.15.26.09.49.23.7.4.18.15.33.34.44.56.09.19.14.41.14.62,0,.29-.05.58-.18.84-.14.28-.36.51-.63.68-.37.23-.78.4-1.21.5-.63.16-1.26.27-1.91.33,0,.46.11.79.3,1,.19.21.47.32.85.32.15,0,.31-.01.46-.05.12-.03.23-.06.34-.12.09-.04.18-.09.26-.15l.22-.15c.07-.05.14-.09.22-.12.08-.03.17-.05.27-.04.07,0,.13.02.19.05.06.03.11.07.16.13l.52.6Zm-2.21-4.2c-.17,0-.33.04-.48.1-.15.07-.28.17-.39.29-.27.31-.46.69-.56,1.09.34-.05.68-.12,1.01-.21.21-.05.41-.13.6-.24.12-.06.22-.15.29-.27.05-.1.07-.2.07-.31,0-.12-.05-.23-.13-.32-.05-.05-.12-.1-.19-.12-.07-.03-.15-.04-.22-.03Z"></path><path class="cls-1" d="m51.52,9.59c-.22.22-.45.42-.69.6-.22.16-.45.31-.7.42-.24.11-.5.19-.76.24-.29.05-.59.08-.88.08-.37,0-.74-.06-1.09-.2-.32-.13-.61-.33-.86-.58-.24-.26-.43-.56-.56-.9-.14-.37-.2-.77-.2-1.16,0-.35.04-.7.12-1.05.08-.33.19-.65.34-.96.15-.3.33-.58.55-.83.21-.25.46-.47.73-.65.56-.38,1.23-.58,1.91-.57.32,0,.65.05.95.15.26.09.49.23.7.4.18.15.33.34.44.56.1.19.15.4.15.62,0,.29-.06.57-.18.84-.14.28-.36.51-.63.68-.37.23-.78.4-1.21.5-.63.16-1.26.27-1.91.33,0,.46.11.79.3,1s.47.32.85.32c.15,0,.31-.01.46-.05.12-.03.23-.06.34-.12.09-.04.18-.09.26-.15l.22-.15c.07-.05.14-.09.22-.12.08-.03.17-.05.27-.04.07,0,.13.02.19.05.06.03.12.07.16.13l.53.6Zm-2.21-4.2c-.17,0-.33.04-.48.1-.15.07-.28.17-.39.29-.27.31-.47.69-.56,1.09.34-.05.68-.12,1.01-.21.21-.05.41-.13.6-.24.12-.06.22-.15.29-.27.05-.1.07-.2.07-.31,0-.12-.05-.23-.13-.32-.05-.05-.12-.1-.19-.12-.07-.03-.15-.04-.22-.03Z"></path><path class="cls-1" d="m57.64,4.93c0,.14-.02.27-.07.4-.04.12-.1.22-.19.32l-2.8,3.69h2.99v1.49h-5.3v-.81c0-.11.03-.21.06-.31.04-.13.11-.24.19-.35l2.82-3.74h-2.9v-1.48h5.18v.8Z"></path><path class="cls-1" d="m61.66,4.03c.47,0,.94.08,1.39.24.4.15.77.38,1.08.68.31.31.54.68.7,1.08.17.46.26.94.25,1.43,0,.49-.08.98-.25,1.44-.15.41-.39.78-.7,1.09-.31.3-.67.54-1.08.69-.44.17-.91.25-1.39.24-.48,0-.95-.08-1.4-.25-.41-.15-.78-.39-1.09-.69-.31-.31-.55-.68-.7-1.09-.17-.46-.26-.95-.25-1.44,0-.49.08-.97.25-1.43.16-.41.4-.77.71-1.08.31-.3.68-.53,1.09-.68.45-.16.92-.25,1.39-.24Zm0,5.42c.46,0,.8-.16,1.02-.49.22-.33.33-.82.33-1.48,0-.66-.11-1.16-.33-1.48-.22-.32-.56-.48-1.02-.48s-.82.16-1.04.48c-.22.32-.33.82-.33,1.48s.11,1.16.33,1.48c.22.33.57.49,1.04.49Z"></path><path class="cls-1" d="m76.21,1.57v9.26h-1.1v-6.8c0-.09,0-.19,0-.29,0-.1.01-.21.02-.32l-3.18,5.78c-.04.09-.1.16-.18.22-.08.05-.17.08-.27.08h-.18c-.1,0-.19-.02-.27-.08-.08-.05-.14-.13-.18-.22l-3.24-5.81c.03.21.04.42.04.63v6.8h-1.1V1.57h.92c.09,0,.17,0,.26.03.08.04.14.1.17.18l3.2,5.7c.05.11.1.21.15.33.05.12.1.23.14.34.04-.12.09-.23.14-.34.05-.11.1-.22.15-.33l3.14-5.69c.03-.08.09-.14.17-.18.08-.02.17-.04.26-.03h.92Z"></path><path class="cls-1" d="m83.42,9.91c-.15.18-.32.33-.51.45-.2.13-.41.23-.64.31-.23.08-.46.14-.7.18-.24.04-.48.06-.72.06-.43,0-.85-.08-1.25-.24-.38-.15-.71-.38-.99-.67-.29-.31-.52-.69-.65-1.09-.16-.48-.24-.99-.23-1.5,0-.44.07-.87.21-1.28.13-.38.34-.73.6-1.03.27-.3.6-.53.96-.68.4-.17.84-.26,1.28-.25.37,0,.74.06,1.09.2.33.13.62.32.87.57.25.26.45.57.57.92.14.4.21.82.21,1.24.01.12,0,.25-.06.36-.03.03-.06.06-.1.07-.04.02-.08.02-.12.02h-4.38c0,.37.06.73.17,1.08.09.28.23.54.42.76.18.2.4.36.65.46.27.11.55.16.84.15.25,0,.5-.03.75-.1.19-.06.37-.13.54-.22.13-.07.26-.14.38-.22.08-.06.17-.09.26-.1.04,0,.08,0,.12.03.04.02.07.05.1.08l.32.43Zm-.93-3.07c0-.25-.03-.5-.11-.73-.07-.21-.18-.41-.33-.58-.14-.16-.32-.29-.53-.37-.22-.09-.46-.14-.7-.13-.55,0-.99.16-1.31.48-.32.32-.52.77-.6,1.33h3.57Z"></path><path class="cls-1" d="m86.89,10.93c-.52,0-.91-.15-1.19-.44-.28-.29-.42-.71-.42-1.25v-4h-.78c-.06,0-.12-.02-.17-.06-.02-.02-.04-.05-.06-.09-.01-.03-.02-.07-.01-.1v-.46l1.07-.14.26-2.02c.01-.06.04-.12.09-.16.05-.04.11-.07.18-.06h.58v2.25h1.89v.83h-1.9v3.93c0,.28.07.48.2.61.07.07.15.12.24.15.09.03.18.05.28.05.11,0,.21-.01.31-.05.08-.03.16-.07.23-.11.06-.04.12-.07.16-.11.03-.03.08-.04.12-.05.03,0,.07.01.1.03.03.02.05.05.07.08l.34.55c-.21.19-.45.34-.72.44-.28.11-.57.16-.87.16Z"></path><path class="cls-1" d="m94.79,9.91c-.15.18-.32.33-.51.45-.2.13-.41.23-.64.31-.23.08-.46.14-.7.18-.24.04-.48.06-.72.06-.43,0-.85-.08-1.25-.24-.37-.15-.71-.38-.99-.67-.29-.31-.51-.69-.65-1.09-.16-.48-.24-.99-.23-1.5,0-.44.07-.87.21-1.28.13-.38.34-.73.6-1.03.27-.3.6-.53.96-.68.4-.17.84-.26,1.28-.25.37,0,.74.06,1.09.2.33.13.62.32.87.57.25.26.45.57.57.92.14.4.21.82.21,1.24.01.12,0,.25-.06.36-.03.03-.06.06-.1.07-.04.02-.08.02-.12.02h-4.38c0,.37.06.73.17,1.08.09.28.23.54.42.76.18.2.4.36.65.46.27.11.55.16.84.15.25,0,.5-.03.75-.1.19-.06.37-.13.55-.22.15-.08.28-.15.38-.22.08-.06.17-.09.26-.1.04,0,.08,0,.12.03.04.02.07.05.1.08l.32.43Zm-.93-3.07c0-.25-.03-.5-.11-.73-.07-.21-.18-.41-.33-.58-.15-.16-.33-.29-.53-.37-.22-.09-.46-.14-.7-.13-.55,0-.99.16-1.31.48-.32.32-.52.77-.6,1.33h3.58Z"></path><path class="cls-1" d="m97.4,5.6c.17-.4.43-.76.76-1.05.31-.26.7-.39,1.1-.38.13,0,.27.01.4.04.12.03.23.07.34.14l-.08.86s-.03.09-.06.12c-.04.03-.08.05-.13.04-.09,0-.18-.02-.27-.04-.13-.03-.26-.04-.39-.04-.19,0-.37.03-.55.09-.16.06-.31.15-.44.27-.14.13-.25.27-.34.44-.11.19-.2.39-.27.6v4.13h-1.16v-6.54h.65c.09-.01.18.02.26.07.06.07.09.16.1.25l.08,1Z"></path><path class="cls-1" d="m26.65,17.54h.66l1.21,2.02h.03l-.03-.58v-1.44h.56v3.01h-.6l-1.28-2.13h-.03l.03.58v1.55h-.56v-3.01Z"></path><path class="cls-1" d="m31.29,20.62c-.22,0-.43-.04-.63-.12-.19-.08-.36-.19-.5-.33-.14-.14-.25-.31-.33-.5-.08-.19-.12-.4-.12-.62s.04-.42.12-.61c.08-.19.19-.36.33-.5.14-.14.31-.26.5-.34.19-.08.4-.12.63-.12s.43.04.62.12c.19.08.36.19.5.34.14.14.25.31.33.5.08.19.12.4.12.61s-.04.43-.12.62c-.08.19-.19.36-.33.5-.14.14-.31.25-.5.33-.19.08-.4.12-.62.12Zm0-.54c.14,0,.27-.03.39-.08.12-.05.23-.12.32-.21.09-.09.16-.2.21-.32.05-.13.08-.27.08-.43s-.03-.29-.08-.42c-.05-.13-.12-.24-.21-.33-.09-.09-.2-.16-.32-.21-.12-.05-.25-.08-.39-.08s-.27.03-.4.08c-.12.05-.23.12-.32.21-.09.09-.16.2-.21.33-.05.13-.08.27-.08.42s.03.3.08.43c.05.13.12.23.21.32.09.09.2.16.32.21.12.05.26.08.4.08Z"></path><path class="cls-1" d="m33.26,17.54h.6l.47,1.76.07.32h.03l.09-.32.43-1.36h.53l.44,1.36.08.32h.03l.06-.32.44-1.76h.6l-.8,3.01h-.55l-.47-1.45-.09-.33h-.03l-.09.33-.47,1.45h-.55l-.83-3.01Z"></path><path class="cls-1" d="m38.86,20.55v-3.01h1.06c.14,0,.28.02.4.07.13.04.24.11.33.19.09.08.17.19.22.3.05.12.08.24.08.38s-.03.27-.08.39c-.05.12-.13.21-.22.3-.09.08-.2.15-.33.2-.12.04-.26.07-.4.07h-.49v1.11h-.57Zm1.07-1.65c.15,0,.26-.04.34-.13.08-.08.11-.18.11-.29,0-.05,0-.11-.03-.16-.02-.05-.04-.09-.08-.13-.04-.04-.08-.07-.14-.09-.06-.02-.12-.03-.2-.03h-.5v.83h.5Z"></path><path class="cls-1" d="m42.15,17.54h.65l1.13,3.01h-.63l-.25-.72h-1.16l-.25.72h-.63l1.13-3.01Zm.72,1.77l-.27-.75-.11-.37h-.03l-.11.37-.27.75h.79Z"></path><path class="cls-1" d="m44.49,17.54h1.1c.15,0,.29.02.41.07.12.05.23.11.32.2.09.08.16.19.21.3.05.12.07.24.07.38,0,.1-.02.2-.05.29-.03.09-.08.17-.14.24-.06.07-.13.13-.21.19-.08.05-.16.1-.25.13v.03s.8,1.16.8,1.16v.03h-.65l-.78-1.13h-.27v1.13h-.57v-3.01Zm1.09,1.36c.13,0,.23-.04.32-.12.08-.08.13-.18.13-.3,0-.05,0-.11-.03-.16-.02-.05-.04-.1-.08-.13-.04-.04-.08-.07-.14-.09-.05-.03-.12-.04-.19-.04h-.53v.84h.53Z"></path><path class="cls-1" d="m47.95,20.55v-2.48h-.84v-.54h2.25v.54h-.84v2.48h-.57Z"></path><path class="cls-1" d="m52.46,20.62c-.22,0-.43-.04-.63-.12-.19-.08-.36-.19-.5-.33-.14-.14-.25-.31-.33-.5-.08-.19-.12-.4-.12-.62s.04-.42.12-.61c.08-.19.19-.36.33-.5.14-.14.31-.26.5-.34.19-.08.4-.12.63-.12s.43.04.62.12c.19.08.36.19.5.34.14.14.25.31.33.5.08.19.12.4.12.61s-.04.43-.12.62c-.08.19-.19.36-.33.5-.14.14-.31.25-.5.33-.19.08-.4.12-.62.12Zm0-.54c.14,0,.27-.03.39-.08.12-.05.23-.12.32-.21.09-.09.16-.2.21-.32.05-.13.08-.27.08-.43s-.03-.29-.08-.42c-.05-.13-.12-.24-.21-.33-.09-.09-.2-.16-.32-.21-.12-.05-.25-.08-.39-.08s-.27.03-.4.08c-.12.05-.23.12-.32.21-.09.09-.16.2-.21.33-.05.13-.08.27-.08.42s.03.3.08.43c.05.13.12.23.21.32.09.09.2.16.32.21.12.05.26.08.4.08Z"></path><path class="cls-1" d="m54.71,17.54h1.91v.54h-1.34v.73h1.21v.54h-1.21v1.2h-.57v-3.01Z"></path><path class="cls-1" d="m61.28,20.71c-1.51,0-2.78-1.23-2.78-2.74s1.27-2.74,2.78-2.74c.84,0,1.43.33,1.88.76l-.53.53c-.32-.3-.76-.53-1.35-.53-1.1,0-1.97.89-1.97,1.99s.86,1.99,1.97,1.99c.72,0,1.12-.29,1.38-.55.21-.21.35-.52.41-.94h-1.79v-.75h2.51c.03.13.04.29.04.47,0,.56-.15,1.26-.65,1.75-.48.5-1.1.77-1.91.77Z"></path><path class="cls-1" d="m67.61,18.94c0,1.02-.79,1.77-1.77,1.77s-1.77-.75-1.77-1.77.79-1.77,1.77-1.77,1.77.74,1.77,1.77Zm-.77,0c0-.64-.46-1.07-.99-1.07s-.99.43-.99,1.07.46,1.07.99,1.07.99-.44.99-1.07Z"></path><path class="cls-1" d="m71.49,18.94c0,1.02-.8,1.77-1.77,1.77s-1.77-.75-1.77-1.77.8-1.77,1.77-1.77,1.77.74,1.77,1.77Zm-.78,0c0-.64-.46-1.07-1-1.07s-1,.43-1,1.07.46,1.07,1,1.07,1-.44,1-1.07Z"></path><path class="cls-1" d="m75.19,17.28v3.17c0,1.3-.77,1.84-1.68,1.84-.86,0-1.37-.58-1.56-1.04l.68-.28c.12.29.41.63.89.63.58,0,.94-.36.94-1.04v-.25h-.03c-.17.21-.51.4-.93.4-.88,0-1.69-.77-1.69-1.76s.81-1.77,1.69-1.77c.42,0,.76.19.93.39h.03v-.29h.74Zm-.68,1.66c0-.62-.41-1.08-.94-1.08s-.98.45-.98,1.08.45,1.06.98,1.06c.53,0,.94-.45.94-1.06Z"></path><path class="cls-1" d="m76.44,15.43v5.17h-.77v-5.17h.77Z"></path><path class="cls-1" d="m79.41,19.52l.6.4c-.19.29-.66.78-1.47.78-1,0-1.75-.78-1.75-1.77,0-1.05.76-1.77,1.66-1.77s1.36.73,1.51,1.12l.08.2-2.36.98c.18.35.46.53.86.53s.67-.19.87-.49Zm-1.85-.64l1.58-.66c-.09-.22-.35-.37-.65-.37-.4,0-.94.35-.92,1.03Z"></path><path class="cls-1" d="m20.86,5.9c-.85-1.6-2.08-2.98-3.59-3.99C15.77.89,14.04.26,12.23.06c-.36-.04-.73-.06-1.1-.06,0,0-.01,0-.02,0-.01,0-.02,0-.04,0-.01,0-.02,0-.04,0-1.41,0-2.8.3-4.12.82C2.87,2.48,0,6.46,0,11.11c0,1.6.34,3.13.95,4.51,0,0,0,0,0,0,.54-.41,1.4-.81,3.13-.65l.05-.05c-.33-.49-.48-1.09-.43-1.68s.3-1.15.71-1.58c.41-.43.95-.71,1.54-.79.59-.08,1.18.04,1.69.35.06-.11.29-.42.99-.84.88-.51,1.11-.54,2.03-.5.03,0,.07,0,.1,0,.17-.11.32-.24.46-.38.23-.25.44-.52.61-.82.36-.63.58-1.34.63-2.07.03-.56-.06-1.35-.67-1.99-.28-.29-.61-.52-.98-.68h-.02s-.07-.05-.1-.08c-.02-.04-.03-.08-.03-.12,0-.03,0-.06.01-.09.01-.03.03-.05.05-.07s.05-.04.07-.05c.03-.01.06-.02.09-.01h.03c.48.05.94.2,1.37.43.45.25.84.6,1.14,1.03.3.43.53.92.65,1.43.24,1.02.25,2.08.03,3.1-.11.52-.28,1.02-.51,1.5-.22.47-.5.9-.84,1.28,0,0-.01.02-.01.03,0,.01,0,.02,0,.03,0,0,.01.02.02.02,0,0,.02,0,.03,0,.08,0,.17-.02.25-.05h.04c.24-.09.49-.29.75-.64,0,0,0-.01.02-.01,0,0,.01,0,.02,0,.02,0,.04.03.03.18,0,.29-.2,2.54-1.08,3.86-.45.65-1.02,1.21-1.67,1.66-.23.16-.41.37-.53.62-.12.25-.17.53-.15.8v.03c.02.27.05.66.07,1.09,1.17.07,2.34-.1,3.45-.49,1.14-.4,2.18-1.04,3.06-1.86.88-.82,1.59-1.82,2.07-2.93.48-1.11.73-2.3.73-3.51,0-1.44-.35-2.86-1.03-4.13-.67-1.27-1.65-2.36-2.84-3.17s-2.56-1.31-4-1.46c-.7-.08-1.41-.07-2.1.03-1.04.14-2.13-.25-2.72-1.12,0,0,.18-.07.51-.18,1.09-.36,2.22-.55,3.37-.55.38,0,.76.02,1.14.06,1.72.19,3.39.8,4.82,1.77,1.43.97,2.61,2.28,3.42,3.81.81,1.52,1.23,3.23,1.23,4.95,0,1.45-.29,2.87-.87,4.2-.58,1.34-1.42,2.52-2.48,3.52-1.07,1-2.31,1.75-3.69,2.24-1.12.4-2.29.61-3.48.62l-.08-1.77s-.01,0-.02,0c-.16,0-.32,0-.48-.01l.12,2.31c.12,0,.25,0,.37,0,1.27,0,2.53-.22,3.73-.64,1.43-.51,2.75-1.31,3.86-2.35,1.11-1.04,2-2.3,2.61-3.69.61-1.4.92-2.9.92-4.43,0-1.82-.45-3.61-1.3-5.21ZM7.14,1.23s0,.01.01.02c0,0,0-.01-.01-.02Z"></path><circle class="cls-1" cx="9.91" cy="11.4" r=".45"></circle></svg> 