<?xml version="1.0" encoding="UTF-8"?> <svg xmlns="http://www.w3.org/2000/svg" id="Layer_1" width="100" height="14.24" viewBox="0 0 100 14.24"><defs><style>.cls-1{fill:#fff;}.cls-2{fill:#e40784;}</style></defs><path class="cls-2" d="m67.1,12.63c-1.54,0-2.8-1.26-2.8-2.8s1.26-2.8,2.8-2.8,2.8,1.26,2.8,2.8c0,1.54-1.25,2.8-2.8,2.8Zm0-3.96c-.64,0-1.16.52-1.16,1.16s.52,1.16,1.16,1.16,1.16-.52,1.16-1.16-.52-1.16-1.16-1.16Z"></path><path class="cls-2" d="m67.1,0c-.39,0-.78.02-1.16.07v1.77c.38-.06.77-.08,1.16-.08,4.45,0,8.07,3.62,8.07,8.07,0,.39-.03.78-.08,1.16h1.77c.05-.38.07-.77.07-1.16,0-5.42-4.41-9.83-9.83-9.83Z"></path><path class="cls-2" d="m67.1,3.45c-.39,0-.78.04-1.16.11v1.8c.38-.1.77-.15,1.16-.15,2.55,0,4.62,2.07,4.62,4.62,0,.39-.05.78-.15,1.16h1.8c.07-.38.11-.77.11-1.16,0-3.52-2.86-6.38-6.38-6.38Z"></path><path class="cls-1" d="m33.88,3.58h-1.35c-1.52,0-2.76,1.24-2.76,2.76v4.64h1.92v-4.65c0-.46.38-.84.84-.84h1.35v-1.92Z"></path><path class="cls-1" d="m38.23,9.07c-.99,0-1.8-.81-1.8-1.8s.81-1.8,1.8-1.8,1.8.81,1.8,1.8-.81,1.8-1.8,1.8Zm0-5.51c-2.05,0-3.71,1.66-3.71,3.71s1.66,3.71,3.71,3.71c.65,0,1.26-.17,1.79-.47v.47h1.92v-3.71h0c0-2.05-1.66-3.72-3.71-3.72Z"></path><path class="cls-1" d="m19.84,8.88c-.5.63-1.25,1-2.06,1-1.45,0-2.63-1.18-2.63-2.63s1.18-2.63,2.63-2.63c.81,0,1.56.36,2.06,1l.04.05.79-.79-.04-.04c-.71-.84-1.75-1.33-2.85-1.33-2.06,0-3.74,1.68-3.74,3.74s1.68,3.74,3.74,3.74c1.1,0,2.14-.48,2.85-1.33l.04-.04-.79-.79-.04.05Z"></path><path class="cls-1" d="m9.25,3.51c-2.06,0-3.74,1.68-3.74,3.74s1.68,3.74,3.74,3.74c1.48,0,2.82-.88,3.42-2.24l.04-.09h-1.24l-.02.03c-.49.74-1.31,1.19-2.2,1.19-1.24,0-2.31-.87-2.57-2.08h6.27v-.05c.03-.17.04-.34.04-.5,0-2.06-1.68-3.74-3.74-3.74Zm-2.57,3.18c.26-1.21,1.33-2.08,2.57-2.08s2.31.87,2.57,2.08h-5.14Z"></path><path class="cls-1" d="m21.93,10.98h1.11v-4.2c0-1.2.98-2.18,2.18-2.18s2.18.98,2.18,2.18v4.2h1.11v-4.34h0c-.04-.84-.39-1.62-.99-2.21-.62-.6-1.43-.94-2.29-.94-.81,0-1.58.29-2.18.83V.26h-1.11v10.73Z"></path><path class="cls-1" d="m1.28,3.51H0v1.11h1.28v4.02c0,1.29,1.05,2.34,2.34,2.34h1.16v-1.11h-1.16c-.68,0-1.24-.56-1.24-1.24v-4.02h1.79v-1.11h-1.79V.87h-1.11v2.64Z"></path><path class="cls-1" d="m48.4,4.01c-.37-.2-.78-.34-1.21-.41-.04,0-.08-.01-.13-.02-.05,0-.09-.01-.14-.01-.09,0-.18-.01-.27-.01-.01,0-.02,0-.03,0h-.02c-2.05,0-3.71,1.66-3.71,3.71s1.66,3.71,3.71,3.71h.02c.12,0,.24,0,.35-.02,0,0,.01,0,.02,0,.51-.05,1-.21,1.43-.45v.46h1.92l-.02-10.73h-1.92v3.76Zm0,3.26c0,.99-.8,1.79-1.79,1.79-.99,0-1.79-.81-1.79-1.79s.8-1.79,1.79-1.79c.99,0,1.79.81,1.79,1.79Z"></path><path class="cls-1" d="m56.84,10.97h1.92v-3.7h0c0-2.05-1.67-3.71-3.71-3.71s-3.71,1.66-3.71,3.71,1.67,3.71,3.71,3.71c.65,0,1.26-.17,1.8-.47v.45Zm-1.8-1.9c-.99,0-1.8-.81-1.8-1.8s.81-1.8,1.8-1.8,1.79.81,1.8,1.79h0c0,.99-.81,1.8-1.8,1.8Z"></path><path class="cls-1" d="m62.78,3.56c-1.52,0-2.76,1.24-2.76,2.76v4.66h1.92v-4.66c0-.46.38-.84.84-.84h1.35v-1.92h-1.35Z"></path><path class="cls-1" d="m82.46,9.88c-1.45,0-2.62-1.18-2.62-2.62s1.18-2.62,2.62-2.62,2.62,1.18,2.62,2.62-1.18,2.62-2.62,2.62Zm0-6.36c-1.02,0-1.95.41-2.62,1.08v-1.09h-1.11v10.73h1.11v-4.33c.67.67,1.6,1.08,2.62,1.08,2.06,0,3.74-1.68,3.74-3.74s-1.68-3.73-3.74-3.73Z"></path><path class="cls-1" d="m88.63,10.98h-1.13v-4.66c0-1.53,1.24-2.77,2.77-2.77h1.35v1.13h-1.35c-.9,0-1.64.73-1.64,1.64v4.66Z"></path><path class="cls-1" d="m96.27,4.64c-1.45,0-2.62,1.18-2.62,2.62s1.18,2.62,2.62,2.62,2.62-1.18,2.62-2.62-1.18-2.62-2.62-2.62Zm0,6.36c-2.06,0-3.74-1.68-3.74-3.74s1.68-3.74,3.74-3.74,3.74,1.68,3.74,3.74-1.68,3.74-3.74,3.74Z"></path></svg> 