<?xml version="1.0" encoding="UTF-8"?> <svg xmlns="http://www.w3.org/2000/svg" id="Layer_2" width="99.97" height="30.94" viewBox="0 0 99.97 30.94"><defs><style>.cls-1{fill:#016bd4;}.cls-2{fill:#fff;}.cls-3{fill:#bde1ff;}.cls-4{fill:#241f21;}.cls-5{fill:#1d81ef;}.cls-6{fill:#1c7ff2;}</style></defs><path class="cls-5" d="m19.38,0C12.92,0,7.69,1.69,7.69,3.77v23.4c0,2.08,5.23,3.77,11.69,3.77s11.69-1.69,11.69-3.77V3.77c0-2.08-5.23-3.77-11.69-3.77Z"></path><path class="cls-1" d="m19.38,0C12.92,0,7.69,1.69,7.69,3.77v3.74c-.43-.06-.9-.1-1.4-.09-2.63.03-4.53,1.32-5.59,3.53-1.4,2.92-.43,6.32.64,8,1.66,2.59,4.46,3.89,6.34,4.26v3.96c0,1.13,1.54,2.14,3.97,2.83V12.39c0-2.68,2.26-4.84,5.05-4.84h2.66c6.46,0,11.69-1.41,11.69-3.77C31.05,1.7,25.82.01,19.36.01h.02ZM4.09,16.98c-.86-1.32-.97-3.43-.36-4.57.51-.95,1.35-1.61,2.53-1.65.53-.01,1.04.06,1.43.15v8.81c-1.05-.4-2.66-1.31-3.6-2.75h0Z"></path><ellipse class="cls-2" cx="19.38" cy="3.77" rx="10.36" ry="2.54"></ellipse><path d="m28.25,5.1c-1.81.75-5.11,1.21-8.87,1.21s-7.01-.48-8.83-1.21c0,0,3.11-1.61,8.83-1.61s8.92,1.59,8.87,1.61Z"></path><path class="cls-3" d="m7.67,23.2h.02v3.88l3.97-5.43v-3.91c-1.39,1.9-3.09,4.22-3.99,5.46Z"></path><path class="cls-2" d="m28.19,9.36l-4.11,1.35c-.08.03-.09.12-.03.17l1.17.81-5.23,7.19s-.04.07-.13,0c-.08-.06-5.08-3.64-5.79-4.18-.07-.06-.16-.05-.2.02-.02.02-1,1.37-2.21,3.03v3.91l2.69-3.67c.07-.1.14-.11.26-.03.93.67,5.6,4.07,5.67,4.12.08.06.15.07.21-.02.05-.07,5.34-7.33,6.61-9.07l1.01.7c.07.05.16,0,.16-.08l.07-4.16c0-.07-.07-.12-.13-.09h-.02Z"></path><path class="cls-6" d="m43.12,21.72s.06.08.09.1c.22.17.46.32.67.5.13.11.23.24.32.38.33.5.51,1.03.52,1.63,0,.59-.09,1.15-.39,1.66-.12.21-.28.4-.44.59-.45.55-1.06.86-1.75,1.01-.2.04-.41.07-.62.07h-4.71c-.28,0-.3-.02-.3-.28v-10.79c0-.25.13-.37.38-.37h3.99c1,0,1.87.33,2.57,1.04.42.42.63.93.75,1.49.15.71.06,1.39-.29,2.03-.12.23-.31.42-.48.62-.09.11-.2.2-.31.31h0Zm-5.04,2.67v1.57c0,.21.03.24.25.24,1.02,0,2.03.02,3.05,0,.71-.02,1.25-.33,1.58-.96.16-.3.2-.61.19-.94,0-.95-.78-1.71-1.76-1.72h-3.05c-.25,0-.27.02-.27.26v1.55h0Zm0-4.99v1.49c0,.18.02.19.2.22.16.02.31.04.47.04h2c.19,0,.39-.02.58-.05.36-.07.69-.22.92-.49.4-.46.53-.98.4-1.57-.15-.68-.85-1.32-1.65-1.29-.88.03-1.76,0-2.65,0-.25,0-.27.02-.27.26v1.4h0Z"></path><path class="cls-6" d="m67.68,19.91c-.04.09-.07.14-.08.19l-1.41,4.77c-.25.85-.5,1.7-.75,2.55-.07.24-.08.24-.34.24h-1.03c-.27,0-.3-.01-.37-.27-.13-.44-.25-.87-.38-1.31-.14-.48-.28-.96-.41-1.43-.28-.98-.56-1.96-.84-2.93-.29-1.02-.59-2.04-.88-3.06l-.21-.75s-.02-.11-.03-.19c.08-.01.14-.03.2-.03h.99c.23,0,.25.02.31.23.21.78.43,1.56.64,2.34.39,1.41.79,2.82,1.18,4.23.1.37.2.74.29,1.11,0,.03.02.06.07.1.06-.21.12-.42.18-.63.4-1.34.79-2.68,1.19-4.03.3-1.01.59-2.02.88-3.03.01-.04.02-.08.04-.12.06-.16.09-.18.26-.19h1.01c.16,0,.19.03.24.18l.66,2.22c.35,1.18.69,2.35,1.03,3.53.19.66.38,1.32.57,1.98,0,.03.02.07.04.11.03-.02.05-.03.05-.04.27-.98.54-1.96.81-2.94.37-1.33.74-2.67,1.12-4,.07-.26.14-.53.21-.8.06-.21.09-.23.31-.24h.99c.21,0,.23.04.17.23-.18.63-.36,1.26-.55,1.89-.31,1.1-.63,2.19-.94,3.29-.31,1.07-.61,2.14-.91,3.2-.11.39-.22.78-.34,1.16-.05.17-.08.19-.27.19h-1.14c-.22,0-.24-.02-.3-.22-.33-1.09-.65-2.19-.98-3.28-.35-1.18-.7-2.35-1.05-3.53-.06-.19-.11-.39-.16-.58-.01-.04-.03-.07-.06-.16v.02Z"></path><path class="cls-6" d="m51.02,23.71c.77,1.31,1.53,2.61,2.3,3.93-.09.02-.14.04-.2.04h-1.12c-.15,0-.25-.06-.32-.19-.55-.95-1.11-1.89-1.65-2.84-.3-.53-.74-.79-1.36-.77h-1.03c-.31,0-.32,0-.32.3v3.13c0,.25-.13.37-.38.37h-.79c-.19,0-.22-.03-.22-.22v-9.39c0-.25.13-.37.38-.37h3.59c.75,0,1.39.24,1.96.68.73.56,1.1,1.3,1.17,2.2.06.74-.13,1.41-.57,2.01-.34.46-.76.83-1.3,1.05-.03.01-.07.03-.13.06h0Zm-3.7-2.9v1.66c0,.1.06.14.16.15h2.4c.65,0,1.12-.3,1.47-.81.5-.73.32-1.85-.31-2.38-.32-.27-.67-.43-1.09-.44h-2.36c-.25,0-.27.02-.27.26v1.55h0Z"></path><path class="cls-6" d="m54.37,22.68v-4.64c0-.23.12-.35.36-.35h5.18q.34,0,.34.32v.76c0,.18-.02.19-.2.23-.06.01-.12.02-.18.02-.65,0-1.3-.02-1.95-.03h-1.88c-.26,0-.28.02-.28.27v2.44c0,.24.02.26.27.27.18,0,.36.03.54.03h.78c.13,0,.25-.02.38-.02.25,0,.51.02.76.02.36,0,.72-.02,1.07-.02h.18c.15.01.19.05.19.19v.97c0,.14-.06.17-.2.16-.17,0-.34-.02-.51-.02h-3.28c-.18.01-.2.04-.19.21,0,.1,0,.2,0,.3v2.43c0,.09.06.15.15.15h4.08c.33,0,.34,0,.34.33v.76c0,.18-.04.21-.23.22h-5.38c-.24,0-.36-.12-.36-.35v-4.64h0Z"></path><path class="cls-4" d="m45.57,6.19c-.25.4-.47.77-.69,1.13-.7,1.16-1.39,2.32-2.09,3.48-.23.38-.45.76-.68,1.13-.04.07-.09.13-.14.19-.11.12-.2.12-.29,0-.12-.16-.22-.34-.33-.51-.65-1.08-1.3-2.15-1.95-3.23-.43-.71-.86-1.43-1.28-2.14,0-.01-.02-.02-.04-.04,0,.02-.03.03-.03.05,0,.24.03.48.03.73v7.54c0,.25-.13.38-.4.38h-.94c-.19,0-.22-.03-.23-.21V3.91c0-.23.12-.35.36-.35h1.17c.16,0,.25.06.34.2.56.94,1.14,1.88,1.71,2.82.54.9,1.08,1.8,1.62,2.7.04.06.08.12.14.2.11-.19.21-.34.3-.5.49-.82.99-1.64,1.48-2.45.5-.82.99-1.65,1.48-2.48.06-.11.13-.21.19-.32.06-.1.14-.16.27-.16h1.39c.16,0,.19.04.2.19v10.77c0,.25-.13.37-.38.37h-.94c-.22,0-.24-.03-.25-.24V6.2h-.02Z"></path><path class="cls-4" d="m98.23,7.87s-.06-.07-.09-.11c-.35-.56-.85-.97-1.45-1.28-.4-.21-.83-.3-1.27-.34-.68-.05-1.34,0-1.98.28-.32.14-.61.31-.87.53-.81.69-1.25,1.56-1.34,2.6-.04.52,0,1.03.14,1.53.16.57.45,1.08.89,1.51.45.44.96.78,1.57.95.58.17,1.17.24,1.77.15.29-.04.58-.09.85-.17.67-.2,1.21-.59,1.62-1.13.23-.3.37-.64.46-1,.01-.05,0-.11.01-.19-.1,0-.19-.01-.28-.01h-2.98c-.32,0-.33,0-.33-.31v-.73c0-.17.03-.2.21-.21h4.46q.35,0,.35.33c0,.78-.13,1.54-.44,2.26-.14.31-.34.59-.55.86-.33.41-.71.75-1.18,1.01-.57.31-1.18.52-1.83.61-1.06.14-2.1.05-3.09-.37-1.33-.56-2.19-1.54-2.7-2.81-.3-.75-.41-1.53-.34-2.32.09-.99.42-1.91,1.03-2.73.36-.49.79-.89,1.31-1.21.74-.46,1.55-.7,2.42-.77.64-.06,1.25.01,1.86.18.75.2,1.4.57,1.97,1.07.32.29.6.61.83.98.11.17.1.18-.07.28-.28.17-.56.33-.84.49-.04.02-.09.04-.15.06h.03Z"></path><path class="cls-4" d="m58.71,9.94c0,.85-.24,1.65-.62,2.4-.25.5-.59.95-1,1.34-.77.71-1.69,1.18-2.75,1.34-.85.13-1.69.07-2.5-.21-1.26-.43-2.19-1.23-2.82-2.36-.33-.59-.52-1.22-.62-1.87-.11-.74-.02-1.47.2-2.18.26-.87.72-1.64,1.4-2.27.74-.68,1.62-1.12,2.64-1.28.27-.04.55-.09.82-.08.62.02,1.23.09,1.82.31.81.29,1.5.76,2.06,1.37.64.7,1.04,1.53,1.23,2.45.07.34.09.69.13,1.04h0Zm-1.43-.1c0-.12.02-.31,0-.49-.2-1.29-.91-2.26-2.11-2.87-.88-.45-1.83-.45-2.77-.2-.6.16-1.11.48-1.54.92-.52.52-.84,1.14-1.01,1.83-.13.51-.12,1.03-.05,1.56.15,1.1.75,1.92,1.68,2.56.47.32,1.01.49,1.58.56.91.11,1.74-.08,2.5-.55.57-.36,1.01-.82,1.32-1.4s.46-1.19.41-1.91h-.01Z"></path><path class="cls-4" d="m69.81,7.62v6.92c0,.23-.12.35-.37.35h-.79c-.2,0-.23-.03-.23-.23V5.32c0-.24.12-.36.37-.36h.52c.16,0,.26.05.35.18.47.69.95,1.39,1.43,2.08.61.88,1.22,1.75,1.83,2.63.49.72.98,1.44,1.48,2.15.04.06.09.11.13.16.02,0,.03,0,.05-.01v-6.82c0-.25.13-.37.38-.37h.79c.19,0,.22.03.22.22v9.34c0,.25-.13.37-.38.37h-.52c-.16,0-.27-.05-.35-.18-.25-.37-.5-.74-.76-1.11-.42-.61-.85-1.23-1.28-1.84-.93-1.34-1.85-2.69-2.77-4.03-.02-.03-.05-.05-.09-.11h-.01Z"></path><path class="cls-4" d="m82.39,7.63c0,.06-.01.09-.01.12.01.25.03.5.03.75v6.03c0,.23-.12.35-.37.35h-.79c-.2,0-.23-.03-.23-.23V5.23c0-.25.02-.27.28-.27h.63c.12,0,.21.04.28.14.5.72,1,1.44,1.5,2.17.43.63.87,1.25,1.3,1.88.64.92,1.27,1.84,1.91,2.76.07.1.13.2.2.3.02,0,.03,0,.05-.01v-6.86c0-.24.13-.36.39-.36h.74c.19,0,.22.03.22.22v9.34c0,.25-.13.37-.38.37-.12,0-.24-.01-.36,0-.25.03-.41-.06-.55-.27-.33-.52-.69-1.02-1.04-1.53-.8-1.15-1.59-2.3-2.39-3.45-.45-.65-.89-1.3-1.34-1.96,0-.01-.02-.02-.07-.05v-.02Z"></path><path class="cls-4" d="m65.07,10.96c.76,1.29,1.52,2.58,2.29,3.88-.07.02-.11.04-.16.04h-1.17c-.13,0-.21-.05-.27-.16-.5-.86-1-1.72-1.51-2.58-.11-.18-.23-.35-.35-.52-.25-.35-.6-.51-1.03-.51h-1.28c-.2,0-.23.03-.23.23v3.26c0,.27,0,.29-.31.29h-.76c-.31,0-.32,0-.32-.32V5.34c0-.25.13-.38.4-.38h3.72c.66,0,1.22.24,1.74.61.67.48,1.05,1.14,1.2,1.92.18.9-.04,1.73-.63,2.46-.24.3-.53.54-.86.74-.11.07-.23.11-.34.16-.04.02-.08.06-.14.09v.02Zm-2.19-4.7h-1.28c-.19,0-.22.03-.23.21v3.24c0,.09.05.15.15.15h2.4c.71,0,1.22-.34,1.55-.9.33-.55.34-1.14.04-1.73-.11-.22-.27-.39-.45-.56-.3-.28-.65-.43-1.07-.42h-1.12,0Z"></path><path class="cls-4" d="m79.19,9.94v4.61c0,.23-.11.34-.34.34h-.81c-.21,0-.23-.03-.24-.22V5.34c0-.25.13-.37.38-.37h.65c.25,0,.37.12.37.36v4.61h-.01Z"></path></svg> 