<?xml version="1.0" encoding="UTF-8"?> <svg xmlns="http://www.w3.org/2000/svg" id="Layer_1" width="600" height="400" viewBox="0 0 600 400"><defs><style>.cls-1{fill:#3a357e;}</style></defs><path class="cls-1" d="m180.77,141.65c3.35-.06,6.7.3,9.96,1.08,2.41.58,4.69,1.62,6.7,3.06,1.66,1.24,2.97,2.9,3.77,4.81.81,2.01,1.22,4.15,1.19,6.32,0,1.24-.18,2.47-.54,3.66-.37,1.18-.95,2.29-1.7,3.27-.85,1.08-1.85,2.03-2.99,2.81-1.35.93-2.82,1.67-4.37,2.21,3.72.9,6.47,2.36,8.25,4.38,1.78,2.02,2.67,4.64,2.67,7.86.02,2.31-.46,4.6-1.39,6.7-.94,2.08-2.34,3.93-4.09,5.4-1.96,1.63-4.22,2.85-6.65,3.61-2.92.91-5.97,1.35-9.03,1.31h-22.55v-56.48h20.77Zm-7.67,9.8v13.95h6.82c1.32.01,2.63-.09,3.93-.31,1.05-.17,2.06-.53,2.97-1.09.81-.52,1.45-1.25,1.85-2.12.47-1.08.69-2.24.65-3.41.03-1.14-.14-2.27-.5-3.35-.3-.85-.84-1.59-1.55-2.15-.79-.58-1.69-.98-2.65-1.17-1.26-.25-2.54-.36-3.82-.35h-7.69Zm9.23,36.77c1.44.05,2.88-.17,4.24-.65.98-.36,1.86-.94,2.58-1.7.61-.68,1.05-1.49,1.28-2.37.23-.87.35-1.77.35-2.67.02-.95-.12-1.89-.41-2.79-.26-.81-.74-1.54-1.39-2.09-.77-.62-1.66-1.07-2.62-1.31-1.34-.34-2.73-.5-4.11-.46h-9.13v14.06h9.23Z"></path><path class="cls-1" d="m221.07,164.12c1.07-1.97,2.53-3.71,4.28-5.11,1.59-1.23,3.55-1.89,5.57-1.86,1.58-.06,3.13.4,4.41,1.31l-.77,8.83c-.06.46-.3.87-.65,1.17-.36.23-.79.34-1.22.31-.21,0-.48,0-.82-.05-.34-.05-.65-.06-1.04-.09l-1.11-.12c-.34-.04-.68-.06-1.02-.06-1.53-.08-3.03.42-4.21,1.39-1.15,1.09-2.06,2.41-2.65,3.88v24.41h-12v-40.18h7.14c.5-.01,1,.04,1.49.16.37.09.71.25,1.01.48.28.23.49.53.62.87.16.43.29.86.37,1.31l.62,3.35Z"></path><path class="cls-1" d="m270.86,190.69c-1.31,1.3-2.7,2.51-4.16,3.62-1.3.99-2.7,1.83-4.18,2.52-1.46.67-3,1.16-4.58,1.45-1.74.32-3.52.48-5.29.46-2.24.03-4.47-.39-6.55-1.22-1.94-.78-3.69-1.95-5.14-3.45-1.47-1.54-2.6-3.37-3.33-5.37-.81-2.23-1.21-4.6-1.18-6.97,0-2.11.23-4.22.71-6.28.46-2,1.16-3.94,2.08-5.77.88-1.78,1.98-3.45,3.27-4.96,1.27-1.5,2.73-2.83,4.36-3.93,3.38-2.27,7.37-3.47,11.45-3.44,1.95-.03,3.88.28,5.72.93,1.54.54,2.96,1.36,4.2,2.42,1.09.93,1.98,2.07,2.62,3.35.57,1.16.86,2.43.86,3.73.04,1.74-.32,3.46-1.05,5.04-.86,1.67-2.17,3.08-3.78,4.05-2.24,1.38-4.68,2.4-7.24,3.02-3.76.96-7.59,1.62-11.45,1.96.05,2.74.65,4.74,1.8,6,1.15,1.26,2.85,1.9,5.09,1.9.92.01,1.85-.08,2.75-.27.7-.15,1.39-.39,2.04-.69.54-.26,1.07-.56,1.57-.89l1.31-.89c.41-.28.85-.52,1.31-.7.51-.19,1.05-.28,1.59-.27.39,0,.78.1,1.13.29.36.19.69.45.96.75l3.12,3.6Zm-13.25-25.22c-.99,0-1.97.22-2.88.63-.9.41-1.71,1.01-2.36,1.76-1.64,1.87-2.79,4.12-3.33,6.55,2.04-.29,4.05-.71,6.04-1.24,1.26-.32,2.47-.8,3.61-1.41.71-.37,1.3-.92,1.72-1.6.3-.57.45-1.21.45-1.86-.01-.71-.29-1.39-.77-1.91-.32-.32-.71-.57-1.14-.73-.43-.16-.88-.22-1.34-.18Z"></path><path class="cls-1" d="m309.18,190.69c-1.31,1.3-2.7,2.51-4.16,3.62-1.3.98-2.7,1.83-4.18,2.52-1.46.67-3,1.16-4.58,1.45-1.74.32-3.52.48-5.29.46-2.24.03-4.47-.39-6.55-1.22-1.93-.78-3.68-1.95-5.13-3.45-1.47-1.54-2.6-3.37-3.33-5.37-.81-2.23-1.21-4.6-1.19-6.97,0-2.11.24-4.22.72-6.28.46-1.99,1.15-3.92,2.05-5.75.88-1.78,1.98-3.45,3.27-4.96,1.27-1.5,2.73-2.82,4.35-3.93,3.39-2.27,7.38-3.47,11.46-3.44,1.94-.03,3.88.28,5.71.93,1.54.54,2.96,1.36,4.2,2.42,1.09.93,1.98,2.07,2.62,3.35.57,1.15.87,2.42.88,3.7.02,1.73-.35,3.45-1.09,5.02-.87,1.67-2.17,3.07-3.78,4.05-2.24,1.38-4.69,2.4-7.25,3.02-3.76.96-7.58,1.62-11.45,1.96.05,2.74.65,4.74,1.8,6s2.85,1.9,5.09,1.9c.92.01,1.85-.08,2.75-.28.7-.15,1.39-.39,2.04-.69.54-.26,1.07-.56,1.57-.89l1.31-.89c.41-.28.85-.52,1.31-.7.51-.19,1.05-.28,1.59-.27.39,0,.78.1,1.12.29.36.19.69.45.97.75l3.16,3.63Zm-13.25-25.22c-.99,0-1.97.22-2.88.63-.9.41-1.71,1.01-2.36,1.76-1.65,1.87-2.79,4.12-3.33,6.55,2.04-.29,4.05-.71,6.04-1.24,1.25-.32,2.46-.79,3.6-1.41.71-.37,1.31-.92,1.73-1.6.3-.57.45-1.21.45-1.86-.01-.71-.29-1.39-.78-1.91-.32-.32-.71-.57-1.13-.73-.43-.16-.88-.22-1.34-.18Z"></path><path class="cls-1" d="m345.91,162.73c0,.82-.14,1.63-.42,2.4-.24.7-.63,1.35-1.13,1.9l-16.78,22.16h17.94v8.91h-31.77v-4.88c.03-.64.16-1.26.38-1.86.27-.76.66-1.47,1.16-2.09l16.94-22.44h-17.4v-8.88h31.08v4.77Z"></path><path class="cls-1" d="m370.01,157.3c2.84-.03,5.67.45,8.33,1.44,2.42.9,4.62,2.3,6.46,4.11,1.83,1.85,3.26,4.06,4.18,6.49,1.03,2.74,1.54,5.65,1.49,8.58.05,2.95-.46,5.89-1.49,8.66-.92,2.45-2.35,4.68-4.18,6.55-1.84,1.82-4.03,3.23-6.46,4.14-2.66,1-5.49,1.5-8.33,1.46-2.86.03-5.71-.47-8.39-1.49-2.45-.9-4.68-2.31-6.55-4.14-1.86-1.86-3.3-4.09-4.22-6.55-1.03-2.77-1.53-5.71-1.49-8.66-.04-2.93.46-5.84,1.49-8.58.94-2.43,2.4-4.64,4.26-6.46,1.87-1.81,4.1-3.21,6.55-4.11,2.67-.98,5.5-1.47,8.35-1.44Zm0,32.52c2.77,0,4.8-.98,6.1-2.93,1.31-1.95,1.96-4.92,1.96-8.89,0-3.98-.65-6.93-1.96-8.88-1.31-1.94-3.34-2.9-6.1-2.9s-4.92.97-6.24,2.9c-1.32,1.93-1.96,4.9-1.96,8.88s.65,6.94,1.96,8.89c1.31,1.95,3.39,2.93,6.24,2.93Z"></path><path class="cls-1" d="m457.31,142.58v55.52h-6.6v-40.8c0-.54,0-1.12.06-1.74.06-.62.08-1.25.14-1.9l-19.07,34.7c-.23.53-.6.98-1.09,1.29-.48.31-1.05.47-1.62.46h-1.08c-.57.01-1.14-.15-1.62-.46-.49-.31-.86-.76-1.09-1.29l-19.45-34.85c.15,1.26.23,2.52.24,3.79v40.8h-6.6v-55.52h5.55c.53-.02,1.05.05,1.55.2.46.23.83.61,1.04,1.08l19.19,34.18c.31.65.61,1.26.91,1.96.3.7.57,1.36.83,2.05.26-.69.53-1.39.81-2.07.28-.68.59-1.31.93-1.96l18.83-34.14c.2-.48.57-.87,1.03-1.08.51-.15,1.04-.22,1.56-.2l5.54-.02Z"></path><path class="cls-1" d="m500.52,192.6c-.88,1.05-1.91,1.96-3.06,2.69-1.19.77-2.47,1.4-3.81,1.88-1.36.49-2.77.86-4.2,1.11-1.42.24-2.86.37-4.31.37-2.56.02-5.11-.46-7.49-1.41-2.25-.88-4.28-2.26-5.93-4.03-1.75-1.88-3.09-4.11-3.93-6.55-.96-2.89-1.42-5.93-1.35-8.98-.02-2.61.4-5.21,1.26-7.68.79-2.27,2.02-4.37,3.62-6.16,1.61-1.77,3.58-3.17,5.78-4.11,2.43-1.04,5.04-1.55,7.68-1.51,2.24-.02,4.46.38,6.55,1.19,1.95.75,3.73,1.92,5.19,3.41,1.51,1.57,2.68,3.45,3.42,5.5.86,2.39,1.29,4.92,1.25,7.46.06.74-.06,1.49-.35,2.17-.15.19-.35.35-.58.44-.23.09-.48.13-.72.1h-26.27c.03,2.19.37,4.37,1.02,6.47.53,1.68,1.39,3.24,2.54,4.58,1.06,1.21,2.38,2.15,3.87,2.75,1.6.63,3.32.94,5.04.92,1.51.03,3.02-.18,4.47-.61,1.11-.34,2.2-.78,3.24-1.31.78-.4,1.53-.83,2.26-1.31.45-.35,1-.56,1.57-.61.25,0,.51.04.74.16.23.11.43.28.57.5l1.94,2.57Zm-5.58-18.41c.03-1.49-.2-2.98-.65-4.4-.41-1.27-1.08-2.45-1.96-3.45-.87-.98-1.95-1.74-3.16-2.25-1.34-.55-2.78-.82-4.22-.79-3.31,0-5.93.96-7.85,2.89-1.93,1.93-3.13,4.59-3.59,8h21.44Z"></path><path class="cls-1" d="m521.37,198.73c-3.1,0-5.48-.87-7.15-2.62-1.67-1.75-2.49-4.23-2.49-7.48v-24h-4.7c-.38.01-.75-.12-1.04-.37-.15-.15-.27-.33-.34-.52-.07-.2-.11-.41-.08-.62v-2.75l6.43-.81,1.58-12.13c.06-.37.25-.7.52-.95.29-.26.68-.39,1.06-.37h3.49v13.52h11.35v5h-11.38v23.57c0,1.66.4,2.89,1.2,3.68.41.4.89.72,1.42.92.53.21,1.1.3,1.67.28.64.01,1.27-.08,1.88-.28.48-.18.94-.39,1.37-.65.39-.23.72-.45.98-.65.2-.17.45-.27.72-.29.2.02.4.08.57.2.17.12.31.27.4.46l2.02,3.27c-1.25,1.15-2.71,2.04-4.3,2.62-1.66.64-3.42.98-5.19.99Z"></path><path class="cls-1" d="m568.76,192.6c-.87,1.05-1.91,1.96-3.06,2.69-1.19.77-2.48,1.4-3.82,1.88-1.36.49-2.77.86-4.2,1.11-1.42.24-2.86.37-4.3.37-2.57.02-5.11-.46-7.5-1.41-2.25-.89-4.27-2.26-5.92-4.03-1.74-1.89-3.07-4.12-3.9-6.55-.97-2.89-1.45-5.93-1.39-8.98-.02-2.61.4-5.21,1.26-7.68.78-2.27,2.02-4.37,3.63-6.15,1.6-1.77,3.57-3.17,5.77-4.11,2.43-1.03,5.04-1.54,7.67-1.5,2.24-.02,4.46.38,6.55,1.19,1.95.75,3.73,1.92,5.19,3.41,1.51,1.57,2.68,3.45,3.43,5.5.86,2.39,1.28,4.92,1.24,7.46.06.74-.05,1.49-.35,2.17-.15.2-.35.35-.58.44-.23.09-.48.13-.73.1h-26.26c.03,2.19.38,4.37,1.03,6.47.53,1.69,1.39,3.24,2.54,4.58,1.06,1.21,2.38,2.15,3.87,2.75,1.6.63,3.32.94,5.04.92,1.51.03,3.02-.17,4.47-.61,1.13-.34,2.22-.78,3.27-1.31.9-.47,1.66-.9,2.27-1.31.45-.35,1-.56,1.57-.61.25,0,.51.05.74.16.23.11.43.28.57.49l1.91,2.56Zm-5.58-18.41c.02-1.49-.2-2.98-.65-4.4-.41-1.27-1.08-2.44-1.96-3.45-.87-.97-1.95-1.74-3.16-2.25-1.34-.55-2.78-.82-4.22-.79-3.31,0-5.93.96-7.86,2.89-1.93,1.93-3.13,4.59-3.6,8h21.46Z"></path><path class="cls-1" d="m584.38,166.72c1.04-2.41,2.61-4.57,4.58-6.3,1.86-1.53,4.22-2.34,6.63-2.27.8,0,1.6.09,2.39.27.72.16,1.41.44,2.03.84l-.51,5.15c-.03.28-.17.53-.39.71-.21.18-.49.27-.77.25-.54-.02-1.08-.1-1.61-.23-.78-.17-1.57-.24-2.36-.24-1.11-.01-2.22.17-3.27.54-.97.36-1.86.91-2.62,1.61-.81.76-1.5,1.65-2.05,2.62-.65,1.14-1.21,2.34-1.65,3.58v24.8h-6.94v-39.23h3.93c.55-.06,1.11.09,1.55.43.34.42.54.93.58,1.47l.49,5.97Z"></path><path class="cls-1" d="m160,238.33h3.97l7.27,12.12h.2l-.2-3.49v-8.64h3.38v18.09h-3.59l-7.68-12.81h-.2l.2,3.49v9.32h-3.36v-18.09Z"></path><path class="cls-1" d="m187.83,256.82c-1.35,0-2.6-.24-3.76-.73-1.15-.49-2.14-1.15-2.98-2-.84-.86-1.51-1.86-2-3.01-.47-1.16-.71-2.4-.71-3.71s.24-2.54.71-3.69c.49-1.16,1.15-2.16,2-3.01.84-.86,1.84-1.53,2.98-2.02,1.16-.49,2.42-.73,3.76-.73s2.59.24,3.74.73c1.16.49,2.16,1.16,3.01,2.02.84.84,1.5,1.84,1.97,3.01.49,1.15.73,2.37.73,3.69s-.24,2.55-.73,3.71c-.47,1.15-1.13,2.15-1.97,3.01-.84.84-1.84,1.51-3.01,2-1.15.49-2.39.73-3.74.73Zm0-3.23c.84,0,1.63-.15,2.35-.45.74-.3,1.38-.72,1.92-1.26.56-.54.98-1.19,1.29-1.95.32-.77.48-1.63.48-2.55s-.16-1.77-.48-2.53c-.3-.77-.73-1.43-1.29-1.97-.54-.54-1.18-.96-1.92-1.26-.72-.3-1.51-.45-2.35-.45s-1.63.15-2.37.45c-.72.3-1.36.72-1.92,1.26-.54.54-.97,1.2-1.29,1.97-.3.76-.45,1.6-.45,2.53s.15,1.78.45,2.55c.32.76.75,1.41,1.29,1.95.56.54,1.2.96,1.92,1.26.74.3,1.53.45,2.37.45Z"></path><path class="cls-1" d="m199.64,238.33h3.61l2.8,10.56.4,1.95h.2l.53-1.95,2.6-8.13h3.18l2.63,8.13.51,1.92h.2l.38-1.92,2.63-10.56h3.61l-4.8,18.09h-3.28l-2.83-8.71-.53-2h-.2l-.53,2-2.83,8.71h-3.28l-5-18.09Z"></path><path class="cls-1" d="m233.23,256.42v-18.09h6.37c.86,0,1.66.14,2.4.43.76.27,1.41.66,1.97,1.16.56.51.99,1.11,1.31,1.82.32.69.48,1.46.48,2.3s-.16,1.64-.48,2.35c-.32.69-.76,1.29-1.31,1.79-.56.51-1.21.9-1.97,1.19-.74.27-1.54.4-2.4.4h-2.96v6.64h-3.41Zm6.42-9.88c.89,0,1.57-.25,2.02-.76.45-.51.68-1.09.68-1.74,0-.32-.06-.63-.18-.93-.1-.3-.27-.56-.51-.78-.22-.24-.5-.42-.83-.56-.34-.13-.73-.2-1.19-.2h-3.01v4.98h3.01Z"></path><path class="cls-1" d="m252.95,238.33h3.89l6.79,18.09h-3.76l-1.49-4.32h-6.97l-1.49,4.32h-3.76l6.79-18.09Zm4.32,10.63l-1.62-4.52-.66-2.2h-.2l-.66,2.2-1.62,4.52h4.75Z"></path><path class="cls-1" d="m267.01,238.33h6.59c.91,0,1.73.14,2.48.43.74.29,1.37.68,1.89,1.19.54.51.95,1.11,1.24,1.82.29.69.43,1.45.43,2.27,0,.61-.1,1.18-.3,1.72-.2.52-.48,1-.83,1.44-.35.42-.77.8-1.24,1.14-.47.32-.97.57-1.49.76l-.03.18,4.85,6.95v.2h-3.92l-4.67-6.79h-1.59v6.79h-3.41v-18.09Zm6.57,8.16c.77,0,1.41-.24,1.89-.71.51-.47.76-1.07.76-1.79,0-.32-.06-.63-.18-.93-.1-.3-.26-.57-.48-.81-.22-.24-.5-.42-.83-.56-.32-.15-.69-.23-1.11-.23h-3.21v5.03h3.16Z"></path><path class="cls-1" d="m287.78,256.42v-14.85h-5.05v-3.23h13.51v3.23h-5.05v14.85h-3.41Z"></path><path class="cls-1" d="m314.81,256.82c-1.35,0-2.6-.24-3.77-.73-1.14-.49-2.14-1.15-2.98-2-.84-.86-1.51-1.86-1.99-3.01-.47-1.16-.71-2.4-.71-3.71s.24-2.54.71-3.69c.49-1.16,1.15-2.16,1.99-3.01.84-.86,1.84-1.53,2.98-2.02,1.16-.49,2.42-.73,3.77-.73s2.59.24,3.74.73c1.16.49,2.16,1.16,3.01,2.02.84.84,1.5,1.84,1.97,3.01.49,1.15.73,2.37.73,3.69s-.24,2.55-.73,3.71c-.47,1.15-1.13,2.15-1.97,3.01-.84.84-1.85,1.51-3.01,2-1.15.49-2.39.73-3.74.73Zm0-3.23c.84,0,1.63-.15,2.35-.45.74-.3,1.38-.72,1.92-1.26.56-.54.98-1.19,1.29-1.95.32-.77.48-1.63.48-2.55s-.16-1.77-.48-2.53c-.31-.77-.73-1.43-1.29-1.97-.54-.54-1.18-.96-1.92-1.26-.72-.3-1.51-.45-2.35-.45s-1.64.15-2.37.45c-.73.3-1.36.72-1.92,1.26-.54.54-.97,1.2-1.29,1.97-.3.76-.45,1.6-.45,2.53s.15,1.78.45,2.55c.32.76.75,1.41,1.29,1.95.56.54,1.19.96,1.92,1.26.74.3,1.53.45,2.37.45Z"></path><path class="cls-1" d="m328.28,238.33h11.47v3.23h-8.06v4.4h7.25v3.23h-7.25v7.22h-3.41v-18.09Z"></path><path class="cls-1" d="m367.71,257.36c-9.07,0-16.69-7.38-16.69-16.45s7.62-16.45,16.69-16.45c5.01,0,8.58,1.96,11.27,4.53l-3.17,3.17c-1.92-1.81-4.53-3.21-8.11-3.21-6.62,0-11.79,5.33-11.79,11.95s5.17,11.96,11.79,11.96c4.3,0,6.74-1.72,8.31-3.29,1.29-1.29,2.12-3.13,2.45-5.66h-10.71v-4.49h15.08c.16.8.24,1.76.24,2.81,0,3.37-.92,7.54-3.89,10.51-2.89,3.01-6.58,4.62-11.47,4.62Z"></path><path class="cls-1" d="m405.69,246.77c0,6.1-4.76,10.59-10.6,10.59s-10.6-4.49-10.6-10.59,4.76-10.59,10.6-10.59,10.6,4.45,10.6,10.59Zm-4.64,0c0-3.81-2.76-6.42-5.96-6.42s-5.96,2.61-5.96,6.42,2.76,6.42,5.96,6.42,5.96-2.65,5.96-6.42Z"></path><path class="cls-1" d="m428.98,246.77c0,6.1-4.77,10.59-10.63,10.59s-10.63-4.49-10.63-10.59,4.77-10.59,10.63-10.59,10.63,4.45,10.63,10.59Zm-4.65,0c0-3.81-2.77-6.42-5.97-6.42s-5.97,2.61-5.97,6.42,2.77,6.42,5.97,6.42,5.97-2.65,5.97-6.42Z"></path><path class="cls-1" d="m451.17,236.82v19.01c0,7.82-4.61,11.03-10.07,11.03-5.13,0-8.22-3.45-9.39-6.26l4.05-1.69c.72,1.72,2.49,3.77,5.33,3.77,3.49,0,5.66-2.17,5.66-6.22v-1.52h-.16c-1.04,1.29-3.05,2.41-5.57,2.41-5.3,0-10.14-4.61-10.14-10.55s4.84-10.63,10.14-10.63c2.52,0,4.53,1.12,5.57,2.37h.16v-1.72h4.41Zm-4.09,9.99c0-3.73-2.49-6.46-5.66-6.46s-5.9,2.73-5.9,6.46,2.69,6.38,5.9,6.38c3.17,0,5.66-2.68,5.66-6.38Z"></path><path class="cls-1" d="m458.64,225.72v31h-4.63v-31h4.63Z"></path><path class="cls-1" d="m476.47,250.26l3.61,2.41c-1.16,1.72-3.97,4.7-8.82,4.7-6.02,0-10.51-4.65-10.51-10.59,0-6.3,4.53-10.59,9.98-10.59s8.18,4.37,9.07,6.74l.48,1.2-14.16,5.86c1.09,2.12,2.77,3.21,5.13,3.21s4.01-1.17,5.21-2.93Zm-11.11-3.81l9.47-3.93c-.52-1.32-2.09-2.25-3.93-2.25-2.37,0-5.66,2.09-5.54,6.18Z"></path><path class="cls-1" d="m125.24,168.55c-5.11-9.62-12.5-17.85-21.52-23.96-9.02-6.11-19.41-9.91-30.24-11.07-2.19-.24-4.38-.33-6.57-.35-.04-.01-.09-.02-.13-.03-.07,0-.14,0-.22.01-.07,0-.14-.01-.21-.01-8.47,0-16.79,1.77-24.69,4.94C17.3,147.99.11,171.88.11,199.8c0,9.62,2.04,18.77,5.71,27.03,0,0,0,0,0,0,3.25-2.47,8.4-4.88,18.75-3.9l.29-.32c-1.98-2.97-2.89-6.52-2.59-10.08s1.8-6.91,4.25-9.5c2.45-2.59,5.7-4.27,9.22-4.75,3.52-.49,7.11.24,10.16,2.07.36-.67,1.71-2.55,5.97-5.01,5.25-3.06,6.66-3.26,12.19-3,.2.04.4.04.59,0,1-.66,1.92-1.42,2.76-2.28,1.41-1.48,2.63-3.14,3.63-4.92,2.18-3.79,3.48-8.03,3.79-12.4.19-3.34-.35-8.12-4.04-11.94-1.67-1.73-3.67-3.11-5.87-4.06h-.1c-.24-.1-.44-.27-.57-.49-.14-.22-.2-.47-.19-.73,0-.18.02-.36.09-.53.06-.17.16-.32.29-.45s.28-.23.45-.29c.17-.06.35-.09.53-.09h.16c2.87.33,5.65,1.2,8.2,2.57,2.71,1.51,5.05,3.63,6.83,6.18,1.83,2.59,3.16,5.49,3.92,8.57,1.46,6.1,1.52,12.45.18,18.57-.63,3.12-1.66,6.14-3.06,8.99-1.31,2.8-3.01,5.39-5.05,7.7-.04.05-.07.12-.08.19,0,.07,0,.14.03.2.03.05.07.1.13.13.05.03.12.04.18.04.51-.03,1.01-.13,1.5-.28l.26-.06c1.46-.45,2.94-1.69,4.51-3.8.02-.03.06-.06.1-.07.04-.01.08-.01.12,0,.11.04.23.16.17,1.1,0,1.75-1.21,15.25-6.46,23.18-2.72,3.89-6.12,7.26-10.04,9.93-1.36.93-2.46,2.21-3.17,3.7-.71,1.49-1.01,3.15-.88,4.8v.18c.12,1.61.28,3.93.44,6.51,7.02.39,14.05-.59,20.68-2.95,6.82-2.43,13.07-6.23,18.36-11.18,5.29-4.94,9.51-10.92,12.39-17.56,2.88-6.64,4.37-13.81,4.37-21.05,0-8.64-2.12-17.14-6.17-24.77-4.05-7.63-9.91-14.15-17.06-18.99-7.15-4.84-15.38-7.86-23.97-8.78-4.21-.45-8.43-.4-12.6.16-6.24.83-12.76-1.5-16.31-6.71.03-.01,1.05-.43,3.03-1.07,6.52-2.18,13.3-3.29,20.22-3.29,2.27,0,4.57.12,6.82.37,10.33,1.11,20.33,4.77,28.92,10.59,8.57,5.8,15.67,13.7,20.51,22.83,4.83,9.11,7.39,19.37,7.39,29.67,0,8.72-1.76,17.2-5.24,25.2-3.48,8.02-8.49,15.11-14.88,21.09-6.41,5.99-13.86,10.52-22.13,13.47-6.72,2.39-13.75,3.63-20.89,3.69l-.51-10.6s-.07,0-.11,0c-.95,0-1.9-.03-2.86-.08l.75,13.87c.74.02,1.48.04,2.21.04,7.61,0,15.17-1.3,22.35-3.86,8.61-3.06,16.49-7.86,23.17-14.1,6.67-6.24,12-13.78,15.63-22.16,3.64-8.38,5.52-17.42,5.52-26.55,0-10.9-2.67-21.63-7.78-31.25Zm-82.3-28.06c.04.06.04.06.07.1-.02-.03-.05-.07-.07-.1Z"></path><ellipse class="cls-1" cx="59.57" cy="201.5" rx="2.7" ry="2.71"></ellipse></svg> 