<?xml version="1.0" encoding="UTF-8"?> <svg xmlns="http://www.w3.org/2000/svg" id="Layer_1" width="600" height="400" viewBox="0 0 600 400"><defs><style>.cls-1{fill:#f68b21;}.cls-2{fill:#d02028;}</style></defs><polygon class="cls-1" points="304.52 264.93 359 264.93 339.34 159.81 304.52 264.93"></polygon><polygon class="cls-1" points="336.75 100 300.49 100 300.49 219.75 300.51 219.81 336.75 100"></polygon><polygon class="cls-1" points="347.29 100 380.44 264.93 382.37 264.93 382.37 100 347.29 100"></polygon><polygon class="cls-2" points="261.13 100 300.49 219.75 300.49 100 261.13 100"></polygon><polygon class="cls-2" points="241.66 264.93 296.71 264.93 260.64 159.47 241.66 264.93"></polygon><polygon class="cls-2" points="218.48 100 218.48 264.93 220.18 264.93 250.86 100 218.48 100"></polygon><path d="m245.27,299.63h-4.77l-2.88-14.96-5.58,15.32h-1.76l-5.58-15.32-2.99,14.96h-4.76l5.58-27.76h2.61l6,18.69,5.87-18.69h2.6l5.66,27.76Z"></path><path d="m264.43,290.92h-14.49c.09,1.62.64,2.87,1.67,3.77s2.39,1.34,4.13,1.34c2.15,0,3.8-.56,4.92-1.69l1.84,3.62c-1.67,1.35-4.16,2.03-7.46,2.03-3.09,0-5.54-.91-7.34-2.72s-2.7-4.34-2.7-7.58.99-5.78,2.96-7.77,4.35-2.97,7.11-2.97c2.94,0,5.31.88,7.09,2.63s2.67,3.99,2.67,6.7c0,.57-.12,1.45-.39,2.62Zm-14.32-3.56h9.96c-.33-2.97-1.97-4.45-4.92-4.45-2.7,0-4.38,1.48-5.04,4.45Z"></path><path d="m280.19,299.61v-1.24c-.39.43-1.05.8-1.99,1.13s-1.9.48-2.9.48c-2.82,0-5.06-.9-6.67-2.69-1.62-1.79-2.43-4.29-2.43-7.5s.93-5.81,2.8-7.83c1.86-2.01,4.19-3.02,7-3.02,1.54,0,2.94.32,4.2.95v-8.12l4.73-1.14v28.97h-4.73Zm0-15.43c-1.01-.8-2.07-1.22-3.16-1.22-1.9,0-3.35.57-4.38,1.73-1.02,1.16-1.53,2.82-1.53,4.97,0,4.21,2.03,6.32,6.1,6.32.45,0,1.02-.13,1.68-.41.66-.27,1.09-.55,1.29-.82v-10.57Z"></path><path d="m289.19,299.61v-16.39h-2.6v-3.88h7.38v20.28h-4.79Zm2.44-28.14c.76,0,1.41.27,1.94.8s.8,1.19.8,1.94-.27,1.41-.8,1.94-1.19.8-1.94.8-1.41-.27-1.94-.8-.8-1.19-.8-1.94.27-1.41.8-1.94c.55-.54,1.19-.8,1.94-.8Z"></path><path d="m309.04,297.59c-.43.71-1.18,1.28-2.24,1.73-1.06.45-2.18.67-3.34.67-2.18,0-3.9-.55-5.15-1.64s-1.88-2.64-1.88-4.64c0-2.35.88-4.18,2.64-5.51s4.26-1.99,7.51-1.99c.56,0,1.22.1,1.97.29,0-2.38-1.51-3.58-4.53-3.58-1.78,0-3.27.3-4.47.89l-1.02-3.68c1.63-.79,3.56-1.18,5.81-1.18,3.09,0,5.36.7,6.8,2.11,1.44,1.41,2.15,4.07,2.15,8v4.34c0,2.7.55,4.4,1.63,5.09-.39.68-.82,1.1-1.3,1.25s-1.02.24-1.65.24c-.68,0-1.29-.25-1.84-.76-.54-.5-.9-1.04-1.09-1.64Zm-.45-7.52c-.8-.16-1.42-.25-1.82-.25-3.73,0-5.6,1.23-5.6,3.68,0,1.82,1.05,2.73,3.16,2.73,2.84,0,4.26-1.42,4.26-4.26v-1.9Z"></path><path d="m321.86,289.41v10.21h-4.92v-27.72c3.28-.13,5.2-.21,5.76-.21,4.38,0,7.58.67,9.6,2.02,2.03,1.34,3.04,3.45,3.04,6.29,0,6.36-3.75,9.55-11.24,9.55-.55,0-1.29-.05-2.23-.13Zm0-13.25v8.88c.83.09,1.49.13,1.97.13,2.25,0,3.89-.37,4.92-1.13,1.03-.75,1.55-1.97,1.55-3.67,0-2.88-2.32-4.32-6.95-4.32-.51,0-1.01.04-1.49.11Z"></path><path d="m334.54,289.43c0-3.09.89-5.61,2.68-7.56,1.78-1.94,4.15-2.92,7.07-2.92,3.08,0,5.47.94,7.17,2.81s2.56,4.42,2.56,7.67-.87,5.8-2.6,7.71c-1.73,1.91-4.11,2.86-7.12,2.86s-5.48-.96-7.18-2.89c-1.71-1.93-2.57-4.49-2.57-7.68Zm4.92,0c0,4.47,1.61,6.7,4.83,6.7,1.47,0,2.65-.58,3.51-1.74s1.29-2.82,1.29-4.96c0-4.41-1.6-6.61-4.81-6.61-1.47,0-2.65.58-3.52,1.74-.86,1.16-1.3,2.78-1.3,4.86Z"></path><path d="m355.04,298.31l1.69-3.77c1.42,1.12,3.01,1.69,4.79,1.69s2.77-.66,2.77-1.97c0-.77-.28-1.4-.83-1.9-.56-.49-1.64-1.07-3.24-1.74-3.5-1.46-5.25-3.49-5.25-6.1,0-1.75.67-3.12,2.01-4.1,1.34-.98,3.05-1.47,5.13-1.47s4.09.47,5.95,1.42l-1.36,3.68c-1.03-.88-2.47-1.32-4.32-1.32-1.66,0-2.48.66-2.48,1.97,0,.52.27.99.81,1.4.55.41,1.7.98,3.49,1.68s3.06,1.55,3.84,2.55c.79,1,1.18,2.2,1.18,3.62,0,1.88-.7,3.36-2.09,4.44-1.4,1.08-3.29,1.62-5.69,1.62-1.35,0-2.43-.11-3.25-.34-.83-.22-1.88-.67-3.15-1.35Z"></path><path d="m372.09,283.14h-2.35v-3.8h2.35v-4.13l4.73-1.74v5.87h5.56v3.8h-5.56v8.88c0,1.46.23,2.48.68,3.07.45.6,1.24.9,2.38.9s2.19-.31,3.18-.93v4.36c-1.1.38-2.66.56-4.69.56s-3.57-.57-4.65-1.71c-1.08-1.14-1.63-2.77-1.63-4.87v-10.26h0Z"></path></svg> 