<?xml version="1.0" encoding="UTF-8"?> <svg xmlns="http://www.w3.org/2000/svg" id="Layer_1" width="599.76" height="400.32" viewBox="0 0 599.76 400.32"><defs><style>.cls-1{fill:#fff;}.cls-2{fill:#e02d2d;}.cls-3{fill:#7b1919;}</style></defs><path d="m166.44,332.22h-8.76c-2.22,0-2.73.3-2.73,1.59,0,.66.27,1.14.81,1.47.33.21.87.3,2.4.3h2.91c3.93,0,6.18,1.83,6.18,5.13,0,2.13-1.14,4.26-2.76,5.07-.75.42-1.98.54-4.17.54h-10.17v-3.84h8.76c1.62,0,2.22-.03,2.64-.15.51-.12.87-.66.87-1.35s-.33-1.29-.84-1.56c-.36-.18-.87-.21-2.13-.21h-3.03c-2.28,0-3.36-.27-4.41-1.02-1.32-.93-2.13-2.64-2.13-4.56,0-1.74.69-3.27,1.95-4.32.84-.66,1.95-.93,4.08-.93h10.53s0,3.84,0,3.84Z"></path><path d="m177.42,321.75h4.92v4.8h-4.92v-4.8Zm4.92,6.63v17.94h-4.92v-17.94h4.92Z"></path><path d="m193.56,346.32v-24.57h4.92v24.57h-4.92Z"></path><path d="m209.66,321.75h4.92v4.8h-4.92v-4.8Zm4.92,6.63v17.94h-4.92v-17.94h4.92Z"></path><path d="m240.74,332.22h-5.88c-3.69,0-5.22,1.5-5.22,5.13,0,1.95.6,3.36,1.8,4.23.99.69,1.92.93,3.99.93h5.34v3.84h-6.75c-3.6,0-5.49-.66-7.11-2.46-1.56-1.74-2.31-3.87-2.31-6.54,0-3.12.96-5.61,2.76-7.14,1.47-1.26,3.36-1.77,6.66-1.77h6.75v3.84l-.03-.06Z"></path><path d="m267.38,330.99c1.47,1.77,2.16,3.9,2.16,6.54,0,5.55-3.69,9.03-9.57,9.03s-9.39-3.42-9.39-9.36c0-5.49,3.72-9.09,9.45-9.09,3.27,0,5.73.96,7.32,2.88h.03Zm-11.76,6.42c0,3.54,1.5,5.37,4.5,5.37s4.38-1.8,4.38-5.46-1.5-5.4-4.41-5.4-4.47,1.8-4.47,5.49Z"></path><path d="m288.11,328.38c4.86-.21,7.17,2.04,7.17,6.9v11.04h-4.92v-11.61c0-1.8-.75-2.55-2.55-2.49h-4.26v14.1h-4.92v-17.94h9.51-.03Z"></path><path d="m317.23,327.24l-7.2,19.11h-6.3l10.41-25.11h6.15l10.41,25.11h-6.24l-7.2-19.11h-.03Z"></path><path d="m343.36,346.32h-5.07v-25.11h6.81l10.02,18.72v-18.72h5.07v25.11h-6.54l-10.29-18.42v18.42Z"></path><path d="m393.58,331.41v14.91h-11.22c-3.87,0-5.88-.48-7.71-1.95-2.55-2.01-3.96-5.64-3.96-10.5s1.38-8.46,3.93-10.5c1.8-1.44,4.41-2.16,7.98-2.16h11.01v4.47h-10.35c-4.77,0-6.66,2.19-6.66,7.68,0,3.06.69,5.7,1.74,6.9,1.02,1.08,2.61,1.59,5.13,1.59h4.83v-5.94h-7.02v-4.47h12.36l-.06-.03Z"></path><path d="m410.01,321.21v14.1c.15,4.17.24,4.44,1.23,5.46,1.02.87,2.22,1.08,5.49,1.08h5.13v4.47h-5.7c-4.92.09-6.6-.33-8.73-2.01-2.22-2.01-2.76-3.78-2.79-9.03v-14.1h5.34l.03.03Z"></path><path d="m449.85,325.68h-6.96c-3.78.03-4.89.39-6.06,1.86-.75,1.05-.93,1.68-1.08,4.08h14.13v4.47h-14.13c.42,4.38,2.22,5.76,7.38,5.76h6.75v4.47h-6.96c-5.13,0-7.71-.69-9.63-2.55-2.31-2.22-3.57-5.85-3.57-10.14s1.35-7.8,4.02-10.2c1.86-1.65,3.63-2.22,7.11-2.22h9.03v4.47h-.03Z"></path><polygon class="cls-2" points="401.34 229.87 401.34 112.46 299.66 53.76 197.97 112.46 197.97 229.87 299.66 288.58 401.34 229.87"></polygon><polygon class="cls-3" points="311.53 112.94 401.34 201.85 401.34 229.87 313.75 280.45 246.95 214.72 288.59 112.94 311.53 112.94"></polygon><path class="cls-1" d="m300.07,132.23l-32.31,82.46h-20.82l41.67-101.78h22.95l40.53,101.78h-20.82l-31.17-82.46h-.03Z"></path></svg> 