<?xml version="1.0" encoding="UTF-8"?> <svg xmlns="http://www.w3.org/2000/svg" id="Layer_1" width="600" height="400" viewBox="0 0 600 400"><defs><style>.cls-1{fill:#4c81c2;}</style></defs><polygon class="cls-1" points="465 142.86 410.07 142.86 413.45 133.39 465 133.39 465 142.86"></polygon><path class="cls-1" d="m318.56,133.39h51s3.34,9.49,3.34,9.49c.02-.01-54.32.01-54.32,0,0-.01-.03-9.49-.02-9.49Z"></path><path class="cls-1" d="m278.06,133.39c8.41.81,15.71,3.8,21.94,9.49,0,0-92.45,0-92.45,0v-9.49h70.51Z"></path><rect class="cls-1" x="135.01" y="133.39" width="64.22" height="9.47"></rect><path class="cls-1" d="m465,160.63h-61.23s3.34-9.42,3.32-9.42h57.91v9.42Z"></path><polygon class="cls-1" points="379.22 160.64 318.56 160.64 318.56 151.2 375.89 151.2 379.22 160.64"></polygon><path class="cls-1" d="m307.2,151.2c1.22,3.11,2.66,5.77,2.66,9.43h-102.29v-9.43h99.63Z"></path><rect class="cls-1" x="135.01" y="151.2" width="64.22" height="9.43"></rect><polygon class="cls-1" points="397.51 178.44 400.88 168.98 446.84 168.99 446.84 178.42 397.51 178.44"></polygon><polygon class="cls-1" points="382.17 168.97 385.51 178.44 336.65 178.44 336.65 168.97 382.17 168.97"></polygon><path class="cls-1" d="m310.67,168.97c0,3.25-.41,6.63-1.35,9.47h-28.01v-9.47h29.36Z"></path><rect class="cls-1" x="152.91" y="169.02" width="27.6" height="9.43"></rect><rect class="cls-1" x="226.15" y="168.97" width="27.56" height="9.47"></rect><path class="cls-1" d="m363.79,188.67s.01,7.17,0,7.18h-27.15v-9.43h51.73l3.21,8.79s3.1-8.81,3.1-8.79h52.13v9.43h-27.01s-.02-7.18-.02-7.18l-2.5,7.18-51.02-.02-2.5-7.17Z"></path><path class="cls-1" d="m226.15,186.43h79.1c-1.73,3.15-4.87,6.99-7.85,9.43,0,0-71.26.01-71.26,0,0-.02,0-9.41,0-9.43Z"></path><rect class="cls-1" x="152.91" y="186.42" width="27.6" height="9.43"></rect><rect class="cls-1" x="419.81" y="204.2" width="27.01" height="9.42"></rect><path class="cls-1" d="m363.79,204.2h-27.14v9.42s27.15,0,27.15,0c0,0,.03-9.42-.01-9.42Z"></path><path class="cls-1" d="m414.36,204.2c-.12-.02-3.16,9.42-3.29,9.42l-38.48.02s-3.38-9.46-3.39-9.44h45.15Z"></path><path class="cls-1" d="m226.15,204.19h71.13c3.25,2.71,6.18,6.04,8.48,9.43.13,0-79.6,0-79.6,0,0,0,0-9.42,0-9.43Z"></path><path class="cls-1" d="m180.51,213.62v-9.43h-27.56s0,9.42,0,9.42c0,0,27.54,0,27.56,0Z"></path><rect class="cls-1" x="419.81" y="221.97" width="27.01" height="9.43"></rect><rect class="cls-1" x="336.65" y="221.97" width="27.14" height="9.42"></rect><path class="cls-1" d="m404.75,231.44s3.33-9.48,3.38-9.47h-32.71c-.06,0,3.35,9.43,3.35,9.43,0,0,25.97.08,25.97.04Z"></path><path class="cls-1" d="m226.15,231.39s0-9.42,0-9.43h27.97s.02,9.43,0,9.43c-.03,0-27.97-.01-27.97,0Z"></path><path class="cls-1" d="m309.68,221.97c1.35,2.84,1.49,6.22,1.76,9.47h-29.63v-9.47h27.87Z"></path><rect class="cls-1" x="152.95" y="221.97" width="27.56" height="9.42"></rect><rect class="cls-1" x="419.81" y="239.37" width="45.18" height="9.43"></rect><rect class="cls-1" x="318.56" y="239.37" width="45.23" height="9.43"></rect><polygon class="cls-1" points="398.67 248.8 384.87 248.8 381.56 239.37 401.86 239.37 398.67 248.8"></polygon><path class="cls-1" d="m135,239.37v9.43h64.18s-.03-9.42,0-9.42c.03,0-64.25,0-64.18,0Z"></path><path class="cls-1" d="m310.26,239.37c-.68,3.11-1.29,6.9-3.57,9.43h-.85s-98.28,0-98.28,0v-9.43h102.69Z"></path><polygon class="cls-1" points="392.42 266.59 391.15 266.59 387.92 257.15 395.73 257.15 392.42 266.59"></polygon><rect class="cls-1" x="419.81" y="257.15" width="45.18" height="9.47"></rect><path class="cls-1" d="m207.55,266.59v-9.43s92.72.01,92.99.01c-6.22,5.95-14.77,9.31-23.96,9.44l-69.01-.02"></path><rect class="cls-1" x="318.56" y="257.15" width="45.23" height="9.47"></rect><path class="cls-1" d="m199.18,257.19s-.03,9.41,0,9.41c.03,0-64.16.04-64.18.02-.02-.02.02-9.45,0-9.45s64.15.06,64.18.03Z"></path></svg> 