<?xml version="1.0" encoding="UTF-8"?> <svg xmlns="http://www.w3.org/2000/svg" id="Layer_1" width="100" height="37.21" viewBox="0 0 100 37.21"><defs><style>.cls-1{fill:#3a357e;}</style></defs><path class="cls-1" d="m94.71,15.99c0-1.49,1.21-2.65,2.65-2.65s2.65,1.21,2.65,2.65-1.21,2.65-2.65,2.65-2.65-1.16-2.65-2.65"></path><path class="cls-1" d="m15.21,8.88c0,3.09-.77,5.4-2.43,7.06s-3.97,2.48-6.95,2.48H0V.06h6.17c2.92,0,5.13.72,6.67,2.26,1.6,1.49,2.37,3.69,2.37,6.56m-5.07.17c0-1.71-.33-2.92-.99-3.75-.61-.77-1.65-1.21-2.98-1.21h-1.32v10.25h1.1c1.49,0,2.54-.44,3.25-1.32.61-.88.94-2.21.94-3.97"></path><rect class="cls-1" x="31.26" width="4.58" height="18.41"></rect><path class="cls-1" d="m50.94,11.52c0,2.21-.55,3.97-1.76,5.24s-2.87,1.87-4.96,1.87-3.64-.61-4.85-1.93c-1.21-1.32-1.82-3.03-1.82-5.18s.55-3.97,1.76-5.18c1.21-1.27,2.87-1.87,4.96-1.87,1.32,0,2.48.28,3.47.83,1.05.55,1.76,1.38,2.32,2.43.66,1.16.88,2.37.88,3.8m-8.65,0c0,1.21.17,2.04.44,2.65s.77.88,1.54.88,1.21-.28,1.54-.88c.28-.61.44-1.54.44-2.65,0-1.21-.17-2.04-.44-2.65-.28-.55-.77-.88-1.54-.88-.66,0-1.21.28-1.54.88-.28.61-.44,1.43-.44,2.65"></path><rect class="cls-1" x="52.81" y="4.69" width="4.58" height="13.67"></rect><rect class="cls-1" x="52.81" width="4.58" height="3.09"></rect><path class="cls-1" d="m66.7,14.88c.61,0,1.38-.17,2.21-.44v3.47c-.61.28-1.21.44-1.76.55s-1.21.17-1.98.17c-1.54,0-2.65-.39-3.36-1.21-.66-.77-1.05-1.98-1.05-3.58v-5.62h-1.6v-3.53h1.6V1.27l4.63-.77v4.3h2.98v3.47h-2.98v5.29c.11.94.5,1.32,1.32,1.32"></path><path class="cls-1" d="m77.4,14.88c.61,0,1.38-.17,2.21-.44v3.47c-.61.28-1.21.44-1.76.55s-1.21.17-1.98.17c-1.54,0-2.65-.39-3.36-1.21-.66-.77-1.05-1.98-1.05-3.58v-5.62h-1.6v-3.53h1.6V1.21l4.63-.72v4.3h2.98v3.47h-2.98v5.29c.06.94.5,1.32,1.32,1.32"></path><path class="cls-1" d="m91.95,6.06c-1.1-1.1-2.65-1.6-4.63-1.6-2.09,0-3.75.61-4.91,1.87-1.16,1.27-1.71,3.03-1.71,5.35s.61,3.97,1.82,5.18c1.27,1.21,2.98,1.82,5.18,1.82,1.1,0,1.98-.06,2.76-.22.72-.17,1.54-.39,2.21-.77l-.66-3.09c-.5.22-1.05.39-1.49.5-.66.17-1.43.22-2.21.22-.88,0-1.6-.22-2.09-.61-.5-.44-.77-1.05-.77-1.82h8.21v-2.15c-.06-2.04-.66-3.58-1.71-4.69m-6.5,3.8c.06-.72.28-1.32.61-1.65s.77-.5,1.38-.5c.55,0,1.1.17,1.43.55s.5.88.55,1.6h-3.97Z"></path><path class="cls-1" d="m27.84,6.06c-1.16-1.1-2.65-1.6-4.63-1.6-2.09,0-3.75.61-4.91,1.87s-1.71,3.03-1.71,5.35.61,3.97,1.82,5.18c1.27,1.21,2.98,1.82,5.18,1.82,1.1,0,1.98-.06,2.76-.22.72-.17,1.54-.39,2.21-.77l-.66-3.14c-.5.22-1.05.39-1.49.5-.66.17-1.43.22-2.21.22-.88,0-1.6-.22-2.09-.61-.5-.44-.77-1.05-.77-1.82h8.21v-2.09c-.06-2.04-.66-3.58-1.71-4.69m-6.56,3.8c.06-.72.28-1.32.61-1.65s.77-.5,1.38-.5,1.1.17,1.43.55.5.88.55,1.6h-3.97Z"></path><path class="cls-1" d="m6.56,27.4v.88h-2.54v7h-1.05v-7H.44v-.88h6.12Z"></path><path class="cls-1" d="m8.6,29.6c.33,0,.66.06.94.17s.55.28.72.5c.22.22.39.5.5.77.11.33.17.66.17,1.05,0,.17,0,.28-.06.33s-.11.11-.17.11h-3.69c0,.33.06.66.11.94.11.28.22.5.33.66.17.17.33.33.55.39.22.11.44.11.72.11.22,0,.44-.06.61-.11s.33-.11.44-.17c.11-.06.22-.11.33-.17s.17-.11.22-.11c.11,0,.11.06.17.11l.28.33c-.11.17-.28.28-.44.39s-.33.22-.55.28c-.17.06-.39.11-.61.17s-.39.06-.61.06c-.39,0-.72-.06-1.05-.17-.33-.11-.61-.33-.83-.55-.22-.28-.44-.55-.55-.94s-.22-.77-.22-1.27c0-.39.06-.77.17-1.1s.28-.61.5-.88.5-.44.83-.55c.44-.22.77-.33,1.21-.33Zm0,.72c-.5,0-.83.11-1.1.39s-.44.66-.5,1.16h3.03c0-.22-.06-.44-.11-.61s-.17-.33-.28-.5c-.11-.11-.28-.22-.44-.33-.17-.06-.39-.11-.61-.11Z"></path><path class="cls-1" d="m15.93,30.71q-.06.06-.11.11c-.06,0-.06.06-.11.06s-.11,0-.17-.06-.17-.11-.22-.17c-.11-.06-.22-.11-.33-.17s-.33-.06-.55-.06c-.28,0-.5.06-.72.17s-.39.22-.55.44c-.11.17-.28.39-.33.66s-.11.55-.11.88.06.61.11.88c.11.28.17.5.33.66.11.17.33.33.5.39.22.11.44.11.66.11s.44-.06.61-.11.28-.11.39-.17.17-.11.28-.17c.06-.06.11-.11.22-.11s.17.06.17.11l.28.33c-.22.28-.55.5-.88.66-.33.11-.77.22-1.16.22-.33,0-.66-.06-.99-.17-.33-.11-.55-.33-.77-.55s-.39-.55-.55-.88c-.11-.33-.17-.77-.17-1.21,0-.39.06-.77.17-1.16.11-.33.28-.66.5-.94s.5-.44.83-.61.72-.22,1.1-.22.72.06,1.05.17.55.33.77.55l-.22.33Z"></path><path class="cls-1" d="m17.25,35.23v-8.05h.99v3.25c.22-.28.5-.44.77-.61s.61-.22.99-.22c.33,0,.55.06.77.17s.44.22.55.44c.17.17.28.39.33.66.11.28.11.55.11.88v3.53h-.99v-3.53c0-.44-.11-.77-.28-.99-.17-.22-.5-.33-.88-.33-.28,0-.55.06-.83.22-.28.11-.5.33-.72.55v4.08l-.83-.06h0Z"></path><path class="cls-1" d="m23.32,35.23v-5.51h.55c.11,0,.22.06.28.22l.11.61c.22-.28.5-.5.83-.66s.66-.28,1.05-.28c.33,0,.55.06.77.17s.44.22.55.44c.17.17.28.39.33.66s.11.55.11.88v3.53h-.99v-3.53c0-.44-.11-.77-.28-.99-.17-.22-.5-.33-.88-.33-.28,0-.55.06-.83.22-.28.11-.5.33-.72.55v4.08l-.88-.06h0Z"></path><path class="cls-1" d="m31.7,29.6c.39,0,.77.06,1.1.22s.61.33.83.55c.22.28.39.55.55.88.11.33.17.77.17,1.21s-.06.83-.17,1.21-.33.66-.55.88-.5.44-.83.55-.72.22-1.1.22-.77-.06-1.1-.22c-.33-.11-.61-.33-.83-.55-.22-.28-.39-.55-.55-.88-.11-.33-.17-.77-.17-1.21s.06-.83.17-1.21c.11-.33.33-.66.55-.88.22-.28.5-.44.83-.55.33-.11.66-.22,1.1-.22Zm0,4.96c.55,0,.94-.17,1.21-.55s.39-.88.39-1.54-.11-1.16-.39-1.54-.66-.55-1.21-.55c-.28,0-.55.06-.72.11-.22.11-.39.22-.5.39s-.22.39-.33.66c-.06.28-.11.55-.11.88s.06.61.11.88c.06.28.17.5.33.66.11.17.33.33.5.39.17.17.44.22.72.22Z"></path><path class="cls-1" d="m36.6,27.18v8.05h-.99v-8.05h.99Z"></path><path class="cls-1" d="m40.57,29.6c.39,0,.77.06,1.1.22.33.11.61.33.83.55.22.28.39.55.55.88.11.33.17.77.17,1.21s-.06.83-.17,1.21c-.11.33-.33.66-.55.88s-.5.44-.83.55-.72.22-1.1.22-.77-.06-1.1-.22c-.33-.11-.61-.33-.83-.55-.22-.28-.39-.55-.55-.88-.11-.33-.17-.77-.17-1.21s.06-.83.17-1.21c.11-.33.33-.66.55-.88.22-.28.5-.44.83-.55.33-.11.72-.22,1.1-.22Zm0,4.96c.55,0,.94-.17,1.21-.55s.39-.88.39-1.54-.11-1.16-.39-1.54-.66-.55-1.21-.55c-.28,0-.55.06-.72.11-.22.11-.39.22-.5.39-.11.17-.22.39-.33.66s-.11.55-.11.88.06.61.11.88.17.5.33.66c.11.17.33.33.5.39.22.17.44.22.72.22Z"></path><path class="cls-1" d="m46.31,29.6c.22,0,.5.06.66.11.22.06.39.11.55.22h1.54v.33c0,.11-.11.22-.22.22l-.61.11c.11.22.17.5.17.77s-.06.5-.17.72c-.11.22-.28.39-.44.55s-.39.28-.66.33-.55.11-.83.11-.5-.06-.72-.11c-.11.06-.22.17-.28.22-.06.11-.11.17-.11.28s.06.22.17.33c.11.06.28.11.44.17s.39.06.61.06h.66c.22,0,.44,0,.66.06.22.06.44.11.61.22.17.11.33.22.44.39.11.17.17.39.17.61s-.06.5-.17.72c-.11.22-.28.44-.5.61-.22.17-.5.33-.83.44-.33.11-.66.17-1.1.17-.39,0-.77-.06-1.05-.11-.33-.11-.55-.17-.77-.33-.22-.11-.33-.28-.44-.5-.11-.17-.17-.33-.17-.55,0-.28.11-.5.28-.72.17-.17.39-.33.72-.44-.17-.06-.28-.17-.39-.28s-.11-.28-.11-.5c0-.11,0-.17.06-.28s.06-.17.11-.28.11-.17.22-.22c.11-.11.17-.11.33-.22-.28-.17-.5-.33-.66-.61-.17-.28-.22-.55-.22-.88,0-.28.06-.5.17-.72.11-.22.28-.39.44-.55s.39-.28.66-.33c.11-.06.44-.11.77-.11Zm1.71,5.95c0-.11-.06-.28-.11-.33-.11-.11-.17-.17-.33-.22-.11-.06-.28-.11-.44-.11s-.33-.06-.55-.06h-.55c-.22,0-.39,0-.55-.06-.22.11-.39.22-.5.33-.11.11-.17.33-.17.5,0,.11.06.22.11.33s.17.22.28.28c.11.11.33.11.5.17.22.06.44.06.72.06s.5,0,.72-.06.39-.11.55-.22c.17-.11.28-.22.33-.33v-.28Zm-1.71-3.03c.22,0,.39-.06.55-.11.17-.06.28-.11.39-.22s.17-.22.22-.33c.06-.11.11-.28.11-.44,0-.33-.11-.61-.33-.83s-.5-.33-.88-.33-.72.11-.88.33c-.22.22-.33.5-.33.83,0,.17.06.33.11.44s.11.28.22.33c.11.11.22.17.39.22.11.11.22.11.44.11Z"></path><path class="cls-1" d="m51.65,36.88c-.06.06-.06.11-.11.17s-.11.06-.22.06h-.72l.99-2.21-2.32-5.24h.88c.11,0,.17,0,.22.06s.11.11.11.11l1.49,3.47c.06.11.06.17.11.22,0,.11.06.17.06.28.06-.11.06-.17.11-.28s.06-.17.11-.28l1.43-3.47c0-.06.06-.11.11-.17s.11-.06.17-.06h.77l-3.2,7.33Z"></path><path class="cls-1" d="m63.45,27.29v1.38h-3.25v2.04h2.76v1.43h-2.76v3.09h-1.87v-7.99l5.13.06h0Z"></path><path class="cls-1" d="m67.48,35.23c-.17,0-.28,0-.39-.06s-.17-.11-.22-.28l-.11-.33c-.11.11-.28.22-.39.33-.11.11-.28.17-.39.22s-.28.11-.44.11c-.17.06-.33.06-.55.06-.28,0-.5-.06-.72-.11-.22-.06-.39-.17-.55-.33-.17-.11-.28-.28-.33-.5-.11-.22-.11-.44-.11-.66s.06-.39.17-.61c.11-.22.28-.39.55-.55s.61-.33.99-.44c.44-.11.99-.17,1.6-.17v-.22c0-.33-.06-.55-.22-.72-.11-.17-.33-.22-.55-.22s-.39,0-.5.06l-.33.17c-.11.06-.22.11-.28.17-.11.06-.22.06-.33.06s-.22-.06-.33-.11c-.11-.06-.17-.11-.17-.22l-.33-.55c.33-.33.72-.55,1.16-.66.44-.17.88-.22,1.32-.22.33,0,.66.06.94.17s.5.28.72.44c.17.17.33.44.44.72.11.28.17.55.17.88v3.64l-.83-.06h0Zm-1.93-.99c.22,0,.39-.06.55-.11.17-.11.33-.22.5-.39v-.77c-.33,0-.61,0-.83.06s-.39.11-.55.17-.22.11-.28.22-.06.17-.06.28c0,.22.06.33.17.39.11.11.28.17.5.17Z"></path><path class="cls-1" d="m73.43,30.82c-.06.06-.11.11-.11.17-.06.06-.11.06-.17.06-.11,0-.17,0-.22-.06-.11-.06-.17-.06-.28-.11-.11-.06-.22-.11-.33-.11s-.28-.06-.39-.06c-.22,0-.39.06-.5.11-.11.11-.17.22-.17.33s.06.17.11.28c.06.06.17.11.33.17s.28.11.44.17.33.11.5.17c.17.06.33.11.5.22.17.11.33.17.44.28s.22.28.33.44c.06.17.11.33.11.61s-.06.55-.17.77-.28.44-.44.61c-.22.17-.44.33-.77.39-.28.11-.66.11-1.05.11-.17,0-.39,0-.55-.06s-.39-.11-.55-.17-.33-.11-.5-.22-.28-.17-.39-.28l.39-.61c.06-.06.11-.11.17-.17.06-.06.17-.06.28-.06s.17,0,.28.06c.11.06.17.11.28.11s.22.11.33.11c.11.06.28.06.44.06.11,0,.22,0,.33-.06.11-.06.17-.06.22-.11.06-.06.11-.11.11-.17.06-.06.06-.11.06-.17,0-.11-.06-.22-.11-.28-.11-.06-.17-.11-.33-.17-.11-.06-.28-.11-.44-.17s-.33-.11-.5-.17-.33-.11-.5-.22c-.17-.06-.33-.17-.44-.33-.11-.11-.22-.28-.33-.44s-.11-.39-.11-.66c0-.22.06-.5.11-.72.11-.22.22-.39.44-.55.17-.17.44-.28.72-.39s.61-.17.99-.17c.22,0,.39,0,.61.06.17.06.39.11.55.17s.33.11.44.22.28.17.39.28l-.55.72Z"></path><path class="cls-1" d="m77.29,35.34c-.28,0-.5-.06-.72-.11s-.39-.17-.55-.33-.28-.33-.33-.55-.11-.44-.11-.66v-2.92h-.5c-.11,0-.17-.06-.22-.11-.06-.06-.11-.11-.11-.28v-.61l.88-.17.33-1.38c.06-.17.17-.28.39-.28h.88v1.65h1.38v1.16h-1.38v2.81c0,.11.06.22.11.33.06.11.17.11.28.11h.17c.06,0,.11-.06.11-.06.06,0,.06-.06.11-.06h.11c.06,0,.11,0,.11.06.06,0,.06.06.11.11l.5.83c-.22.17-.44.28-.77.39-.22,0-.5.06-.77.06Z"></path><path class="cls-1" d="m86.77,28c0,.11,0,.22-.06.33-.06.11-.11.17-.17.28-.11.06-.17.11-.33.17-.11.06-.28.06-.44.06h-1.93l-.22,1.32c.17-.06.28-.06.44-.06h.39c.44,0,.77.06,1.1.17s.61.33.83.55.39.5.5.77c.11.33.17.61.17.94,0,.44-.06.83-.22,1.16-.17.33-.33.66-.61.94s-.61.44-.99.61c-.39.11-.77.22-1.21.22-.28,0-.5-.06-.77-.11-.22-.06-.44-.11-.66-.22s-.39-.22-.55-.33c-.17-.11-.33-.28-.5-.39l.55-.72c.06-.06.11-.11.17-.17s.17-.06.22-.06c.11,0,.22.06.33.11.11.06.22.11.33.22.11.06.28.11.39.17.17.06.33.11.55.11s.44-.06.55-.11c.17-.06.28-.17.39-.33.11-.11.17-.28.22-.44.06-.17.06-.33.06-.55,0-.39-.11-.66-.33-.88-.22-.22-.55-.33-.94-.33-.33,0-.72.06-1.05.22l-1.05-.28.66-4.02h4.08l.11.66h0Z"></path><path class="cls-1" d="m93.66,31.26c0,.72-.06,1.32-.22,1.82-.17.5-.33.94-.61,1.27s-.55.61-.94.77c-.33.17-.77.28-1.21.28s-.83-.11-1.16-.28-.66-.39-.94-.77c-.28-.33-.5-.77-.61-1.27-.17-.5-.22-1.1-.22-1.82s.06-1.32.22-1.82c.17-.5.33-.94.61-1.27s.55-.61.94-.77c.33-.17.77-.22,1.16-.22s.83.11,1.21.22c.33.17.66.39.94.77s.5.77.61,1.27c.11.55.22,1.1.22,1.82Zm-1.76,0c0-.55-.06-.99-.11-1.38-.06-.33-.17-.61-.28-.83s-.28-.33-.39-.39c-.17-.06-.28-.11-.44-.11s-.33.06-.44.11c-.17.06-.28.22-.39.39-.11.22-.22.5-.28.83s-.11.77-.11,1.38c0,.55.06.99.11,1.38.06.33.17.61.28.83s.22.33.39.44c.17.06.28.11.44.11s.33-.06.44-.11c.17-.06.28-.22.39-.44.11-.22.22-.5.28-.83.06-.39.11-.83.11-1.38Z"></path><path class="cls-1" d="m100,31.26c0,.72-.06,1.32-.22,1.82-.17.5-.33.94-.61,1.27s-.55.61-.94.77c-.33.17-.77.28-1.21.28s-.83-.11-1.16-.28-.66-.39-.94-.77c-.28-.33-.5-.77-.61-1.27-.17-.5-.22-1.1-.22-1.82s.06-1.32.22-1.82c.17-.5.33-.94.61-1.27s.55-.61.94-.77c.33-.17.77-.22,1.16-.22s.83.11,1.21.22c.33.17.66.39.94.77s.5.77.61,1.27c.11.55.22,1.1.22,1.82Zm-1.76,0c0-.55-.06-.99-.11-1.38-.06-.33-.17-.61-.28-.83s-.28-.33-.39-.39c-.17-.06-.28-.11-.44-.11s-.33.06-.44.11c-.17.06-.28.22-.39.39-.11.22-.22.5-.28.83s-.11.77-.11,1.38c0,.55.06.99.11,1.38.06.33.17.61.28.83s.22.33.39.44c.17.06.28.11.44.11s.33-.06.44-.11c.17-.06.28-.22.39-.44s.22-.5.28-.83c.06-.39.11-.83.11-1.38Z"></path></svg> 