<?xml version="1.0" encoding="UTF-8"?> <svg xmlns="http://www.w3.org/2000/svg" id="Layer_1" width="599.76" height="400.32" viewBox="0 0 599.76 400.32"><defs><style>.cls-1{fill:#fff;}</style></defs><path class="cls-1" d="m-.12,179.4c1.2-.3,2.4-.66,3.66-.9,4.5-1.02,8.94-2.04,13.44-3.06.12,0,.24,0,.54-.06v34.8c0,8.52,6.12,16.02,14.52,17.52,6.12,1.08,11.46-.54,15.96-4.86l1.14-1.14h.12c.18.72.24,19.86,0,21.06-.18.12-.42.24-.66.36-5.04,2.04-10.32,2.82-15.72,2.46-7.74-.6-14.58-3.36-20.52-8.4-5.94-5.1-9.78-11.46-11.52-19.02-.36-1.56-.48-3.12-.72-4.74,0-.24-.12-.42-.18-.66v-33.3l-.06-.06Z"></path><path class="cls-1" d="m53.28,245.76v-35.58c.06-7.98-5.46-15.54-13.74-17.46-6.54-1.56-12.3.24-17.1,4.98-.24.24-.42.42-.66.66h-.24v-20.76c.36-.18.72-.36,1.14-.48,2.88-1.08,5.76-1.8,8.82-2.04,3.42-.36,6.84-.24,10.26.36,4.68.84,8.94,2.58,12.9,5.16,2.76,1.8,5.22,3.96,7.44,6.48,3,3.48,5.22,7.38,6.72,11.7,1.14,3.36,1.8,6.84,1.8,10.38,0,10.44.06,20.88.12,31.32v1.32c-5.82,1.32-11.58,2.64-17.52,3.96h.06Z"></path><path class="cls-1" d="m283.52,226.86v-16.38c0-1.08,0-2.1-.18-3.18-.3-2.64-2.1-4.08-4.38-4.08-.66,0-1.32,0-1.92.12-2.16.54-3.36,2.04-3.66,4.5v19.02h-10.5v-16.14c0-1.14-.06-2.22-.18-3.36-.24-2.46-1.86-4.02-4.38-4.14-.72,0-1.5,0-2.22.18-1.86.48-2.88,1.74-3.24,3.6-.12.78-.18,1.56-.18,2.34v17.58h-10.32c-.24-.9-.24-31.14,0-32.22h10.08v4.26c2.46-3.42,5.76-4.98,9.84-4.92,4.14,0,7.38,1.68,9.42,5.22,1.08-1.02,2.04-2.04,3.12-2.88,2.1-1.56,4.56-2.28,7.14-2.34,1.98,0,3.9.12,5.7.9,2.4,1.02,4.08,2.82,5.1,5.16.78,1.8,1.26,3.66,1.26,5.64v21c-.72.24-8.88.3-10.44.06l-.06.06Z"></path><path class="cls-1" d="m549.41,199.26v-4.32c.78-.24,9.06-.3,10.26,0v31.02c0,5.4-2.52,9.24-6.9,12.06-2.64,1.68-5.52,2.52-8.64,2.88-3.78.42-7.44,0-10.92-1.26-4.32-1.62-7.32-4.62-8.94-8.94-.12-.3-.18-.6-.3-1.02h10.26s.12.06.18.12c1.44,2.28,3.6,3.12,6.18,3.12,1.2,0,2.4,0,3.54-.24,3.06-.72,5.1-2.94,5.1-6.48v-4.68c-.24.18-.36.18-.42.3-1.68,2.28-4.02,3.6-6.72,4.08-4.62.84-8.88-.06-12.66-2.94-3.06-2.4-4.92-5.64-5.58-9.48-.18-1.08-.36-2.22-.36-3.36,0-2.34.36-4.62,1.32-6.78,2.16-5.04,5.94-8.1,11.34-9.06,2.16-.42,4.38-.42,6.54.12,2.58.66,4.74,1.98,6.24,4.32.06.12.18.24.42.54h.06Zm-7.02,18.36c2.58.06,5.64-1.98,6.54-5.4.9-3.36-.3-7.56-4.32-9.12-.78-.3-1.62-.42-2.46-.54-1.68-.24-3.3.12-4.8,1.02-3.6,2.16-4.44,7.2-2.22,10.74,1.44,2.34,3.72,3.24,7.32,3.3h-.06Z"></path><path class="cls-1" d="m507.4,194.76h9.96s.06,0,.12.06v.06c0,.24.06.48.06.72v30.9c0,.12-.06.18-.12.36h-9.84v-4.5c-.3.3-.48.48-.66.66-1.92,2.52-4.44,4.02-7.5,4.5-5.4.78-10.14-.72-13.92-4.74-2.64-2.76-3.96-6.12-4.38-9.9-.3-2.52-.06-5.04.66-7.44,1.86-6.06,5.88-9.9,12.18-11.16,2.76-.54,5.46-.42,8.1.6,1.98.78,3.54,1.98,4.74,3.72.12.12.18.3.42.6.18-1.56,0-3,.18-4.44Zm-15.96,16.02c.12.78.12,1.62.36,2.4.84,3.12,2.82,5.22,6.06,5.76,3.06.48,5.82-.3,7.68-2.94,2.04-2.82,2.16-6,.72-9.06-1.14-2.46-3.24-3.84-5.94-4.14-2.76-.3-5.16.48-6.96,2.76-1.26,1.56-1.8,3.3-1.86,5.28l-.06-.06Z"></path><path class="cls-1" d="m325.89,199.02v-4.14c.78-.18,8.82-.24,10.14-.06.18.72.24,30.9,0,32.1h-9.9v-4.38h-.18s-.42.48-.66.72c-2.28,2.82-5.28,4.14-8.88,4.32-3.42.18-6.54-.6-9.42-2.46-3.78-2.46-6.06-6-6.96-10.38-.96-4.92-.3-9.54,2.52-13.74,2.58-3.78,6.12-6,10.68-6.66,2.58-.36,5.16-.24,7.62.72,1.92.78,3.48,1.98,4.62,3.72.06.12.18.24.24.3h.18v-.06Zm-7.98,3.84c-2.88-.18-5.7,1.56-6.96,4.32-1.08,2.46-1.08,4.86,0,7.32.78,1.8,2.1,3.06,3.96,3.78,1.08.48,2.22.54,3.42.54,2.46-.12,4.5-1.14,5.88-3.18,1.26-1.86,1.68-3.96,1.32-6.24-.6-4.02-3.96-6.72-7.62-6.54Z"></path><path class="cls-1" d="m192.74,193.92c3.78.12,7.32.9,10.5,2.94,4.08,2.64,6.54,6.36,7.32,11.16.66,4.08,0,7.98-2.22,11.58-2.28,3.66-5.52,6.06-9.66,7.2-4.8,1.32-9.54,1.2-14.1-.84-5.46-2.4-8.7-6.66-9.66-12.48-.84-5.28.54-9.96,4.14-13.98,2.46-2.7,5.58-4.32,9.18-4.98,1.44-.3,2.94-.36,4.44-.54l.06-.06Zm0,24.84h.54c2.7-.12,4.86-1.26,6.18-3.66,1.14-2.1,1.38-4.32.78-6.6-.72-2.76-2.34-4.62-5.16-5.4-1.14-.3-2.28-.36-3.42-.18-2.34.24-4.2,1.32-5.4,3.42-1.08,1.86-1.38,3.84-1.08,6,.48,3.54,3.24,6.6,7.56,6.48v-.06Z"></path><path class="cls-1" d="m404.43,227.7c-3.72-.12-7.26-.9-10.44-2.94-4.14-2.64-6.6-6.42-7.38-11.22-.72-4.62.24-8.94,3.06-12.72,2.28-3.12,5.4-5.1,9.06-6.06,4.74-1.26,9.48-1.08,13.98.96,5.34,2.4,8.58,6.6,9.48,12.42.84,5.28-.54,10.02-4.14,13.98-2.46,2.76-5.64,4.32-9.24,5.04-1.44.3-2.94.36-4.44.54h.06Zm0-8.94h.6c2.94-.18,5.1-1.56,6.3-4.26.9-2.04,1.02-4.14.42-6.24-.78-2.76-2.52-4.62-5.4-5.22-.96-.18-2.04-.24-3.06-.18-2.34.24-4.2,1.32-5.4,3.36-1.08,1.86-1.38,3.84-1.08,6,.48,3.6,3.24,6.66,7.62,6.54Z"></path><path class="cls-1" d="m145.69,226.92h-10.5v-17.28c0-1.02-.12-2.1-.36-3.12-.48-1.92-2.04-3.18-3.96-3.24-.9,0-1.86,0-2.7.24-1.8.48-2.88,1.74-3.24,3.54-.18.78-.24,1.56-.24,2.34v17.4c-.84.18-9.18.24-10.32.06-.18-.78-.24-31.02,0-32.04.78-.18,8.88-.24,10.08,0v4.44c.42-.54.66-.9.96-1.26,2.22-2.52,4.98-3.78,8.34-3.9,1.68-.06,3.36.12,4.92.66,3.42,1.26,5.52,3.78,6.48,7.2.42,1.5.66,3.06.66,4.62v20.4l-.12-.06Z"></path><path class="cls-1" d="m438.82,226.92h-10.44v-32.16h10.14v4.38c.6-.72,1.08-1.32,1.62-1.86,2.1-2.04,4.62-3.06,7.5-3.18,1.74-.06,3.42.06,5.04.66,3.42,1.26,5.52,3.78,6.48,7.2.42,1.5.66,3.06.66,4.62v20.34h-10.5v-17.28c0-1.02-.12-2.04-.36-3-.48-2.04-2.04-3.24-4.08-3.36-.9,0-1.8,0-2.64.24-1.8.48-2.88,1.74-3.24,3.54-.18.78-.24,1.56-.24,2.34v17.52h.06Z"></path><path class="cls-1" d="m155.05,203.1h-4.74c-.24-.9-.24-7.32,0-8.4h4.74v-1.68c0-1.8,0-3.6.42-5.34,1.02-3.9,3.42-6.42,7.32-7.44,3.12-.84,6.24-.78,9.42-.18.18,0,.36.12.6.24v8.58c-.66-.12-1.26-.18-1.86-.24-1.02-.18-2.04-.12-3.06.12-1.2.3-2.04,1.02-2.16,2.28-.18,1.2-.18,2.4-.3,3.78,2.4.12,4.68,0,6.96.06v8.34c-1.14.12-2.28,0-3.42,0h-3.42v23.7c-.78.24-8.76.3-10.44.12-.12-2.64,0-5.28,0-7.86v-15.9l-.06-.18Z"></path><path class="cls-1" d="m363.51,218.52v8.1s-.3.18-.42.24c-3.12.78-6.24,1.08-9.42.3-4.2-1.02-6.48-3.78-7.32-7.86-.18-1.02-.24-2.04-.24-3.06v-12.84c-.96-.18-1.86-.06-2.76-.12h-2.82v-8.64h5.52v-9.48c.78-.3,8.76-.36,10.44-.12.12,1.02,0,2.04,0,3.06v6.48h7.32c.12,2.94,0,5.7,0,8.64h-7.26c0,.36-.06.66-.06.9v10.74c0,.48,0,1.02.18,1.5.3,1.5,1.2,2.34,2.76,2.34,1.26,0,2.58-.12,3.96-.24l.12.06Z"></path><path class="cls-1" d="m599.81,214.08h-23.88v.9c-3.06.9-6.06,1.74-9.12,2.64-.54-.9-.72-1.8-.9-2.64-.66-3.54-.6-7.08.66-10.5,1.68-4.56,4.86-7.62,9.42-9.3,1.92-.72,3.84-1.02,5.88-1.08,3.48-.12,6.84.42,9.9,2.1,3.96,2.16,6.42,5.58,7.5,9.96.66,2.64.72,6,.48,7.92h.06Zm-23.94-6.6c1.26.18,13.08.18,13.8,0-.12-3.3-2.64-5.94-6.24-6.18-4.14-.24-7.08,2.1-7.56,6.24v-.06Z"></path><path class="cls-1" d="m105.31,226.92h-10.74v-44.52c.66-.24,8.82-.3,10.68-.12.18.72.3,43.08.06,44.58v.06Z"></path><path class="cls-1" d="m216.74,194.7h10.08v5.28s.12.06.18.12c1.92-4.74,5.7-5.82,10.2-5.64.24.84.24,9.3,0,10.44h-1.26c-1.38,0-2.7.06-4.02.42-2.16.54-3.6,1.86-4.2,4.02-.42,1.5-.54,3-.54,4.56v12.9c-.78.24-9,.3-10.32.12-.18-.72-.24-30.84,0-32.16l-.12-.06Z"></path><path class="cls-1" d="m380.19,226.92h-10.32v-32.04c.72-.24,8.58-.3,10.26-.12.18.72.24,30.78,0,32.16h.06Z"></path><path class="cls-1" d="m17.28,163.26c.12,4.14-3.24,8.58-8.64,8.58-5.16-.06-8.58-4.2-8.58-8.7,0-4.26,3.36-8.58,8.58-8.58s8.82,4.38,8.64,8.7Z"></path><path class="cls-1" d="m43.86,210.3c.24,4.5-3.78,8.58-8.52,8.52-4.68,0-8.58-3.96-8.52-8.58,0-4.02,3.06-8.58,8.58-8.58s8.76,4.62,8.52,8.58l-.06.06Z"></path><path class="cls-1" d="m567.95,220.14c3.18-.9,6.12-1.8,9.18-2.64,1.62,2.1,3.84,2.7,6.24,2.64,2.4,0,4.68-.72,6.24-2.76,2.88.84,5.64,1.62,8.52,2.46-.36.9-.9,1.56-1.5,2.16-3.06,3.36-6.9,5.1-11.34,5.58-3.3.36-6.42,0-9.54-1.08-2.94-1.02-5.34-2.82-7.2-5.34-.18-.24-.36-.54-.66-1.02h.06Z"></path><path class="cls-1" d="m369.03,185.04c-.12-3.18,2.7-5.94,6.12-5.88,3.36.06,6,2.64,5.94,5.94,0,3.54-2.88,6-6.06,5.94-3.54,0-6.18-2.94-6-6Z"></path></svg> 