<?xml version="1.0" encoding="UTF-8"?> <svg xmlns="http://www.w3.org/2000/svg" id="Layer_1_copy" width="100" height="17.3" viewBox="0 0 100 17.3"><defs><style>.cls-1{fill:#016bd4;}.cls-2{fill:#fff;}.cls-3{fill:#bde1ff;}.cls-4{fill:#241f21;}.cls-5{fill:#1d81ef;}.cls-6{fill:#1c7ff2;}</style></defs><path class="cls-4" d="m27.48,6.24c-.18.31-.35.59-.51.88-.52.9-1.03,1.79-1.55,2.69-.17.29-.34.59-.51.88-.03.05-.06.1-.1.15-.08.09-.15.09-.22,0-.09-.13-.17-.26-.24-.39-.48-.83-.97-1.67-1.45-2.5-.32-.55-.64-1.1-.95-1.66,0,0-.02-.01-.03-.03,0,.01-.02.02-.02.04,0,.19.02.38.03.56v5.83c0,.19-.1.29-.3.29h-.7c-.14,0-.16-.03-.17-.16V4.48c0-.18.09-.27.26-.27h.87c.12,0,.19.05.25.15.42.73.85,1.45,1.27,2.18.4.69.8,1.39,1.2,2.09.03.05.06.09.11.16.08-.14.16-.27.23-.39.37-.63.73-1.27,1.1-1.9.37-.64.73-1.28,1.1-1.92.05-.08.1-.16.14-.25.04-.08.1-.13.2-.13h1.03c.12,0,.14.03.15.15v8.33c0,.19-.09.28-.28.28h-.7c-.16,0-.18-.02-.18-.18v-6.55h-.03Z"></path><path class="cls-6" d="m76.78,8.39s.05.06.07.07c.17.13.34.25.5.39.09.08.17.19.24.29.24.38.38.79.38,1.25s-.07.88-.29,1.28c-.09.16-.21.31-.33.46-.34.42-.78.66-1.3.78-.15.03-.31.06-.46.06h-3.5c-.21,0-.22-.01-.22-.21V4.45c0-.19.09-.29.28-.29h2.97c.74,0,1.39.25,1.91.8.31.33.47.72.56,1.15.11.55.05,1.07-.21,1.56-.09.17-.23.32-.35.48-.07.08-.15.16-.23.24h-.02Zm-3.75,2.05v1.21c0,.16.02.18.18.18.75,0,1.51.01,2.26,0,.52-.01.93-.25,1.18-.74.12-.23.15-.47.14-.72,0-.73-.58-1.31-1.3-1.32h-2.26c-.18,0-.2.02-.2.2v1.19Zm0-3.84v1.15c0,.14.01.15.15.17.12.02.23.03.35.03h1.48c.14,0,.29-.01.43-.04.27-.05.51-.17.69-.38.29-.35.39-.75.3-1.21-.11-.52-.63-1.02-1.23-1-.65.02-1.31,0-1.97,0-.19,0-.2.02-.2.2,0,.36,0,.72,0,1.08Z"></path><path class="cls-6" d="m95.02,7c-.03.07-.05.11-.06.15-.35,1.22-.7,2.45-1.05,3.67-.19.65-.37,1.31-.56,1.96-.05.18-.06.19-.26.19h-.77c-.2,0-.22,0-.28-.21-.1-.34-.19-.67-.28-1.01-.1-.37-.2-.74-.31-1.1-.21-.75-.41-1.51-.62-2.26-.22-.78-.44-1.57-.65-2.35-.05-.19-.11-.38-.16-.58-.01-.04-.01-.09-.02-.15.06,0,.1-.02.15-.02h.73c.17,0,.19.01.23.18.16.6.32,1.2.48,1.8.29,1.09.58,2.17.87,3.26.08.28.15.57.22.85,0,.03.02.05.05.08.05-.16.09-.32.14-.48.29-1.03.59-2.06.88-3.1.22-.78.44-1.56.65-2.33,0-.03.02-.06.03-.1.04-.12.07-.14.19-.14h.75c.12,0,.14.02.18.14.16.57.33,1.14.49,1.71.26.91.51,1.81.77,2.72.14.51.28,1.01.42,1.52,0,.03.02.05.03.09.02-.01.04-.02.04-.03.2-.75.4-1.51.6-2.26.27-1.03.55-2.05.83-3.08.05-.2.1-.41.16-.61.04-.16.07-.18.23-.18h.73c.16,0,.17.03.13.18-.14.48-.27.97-.41,1.46-.23.84-.47,1.69-.7,2.53-.23.82-.45,1.64-.68,2.47-.08.3-.17.6-.25.9-.04.13-.06.15-.2.15h-.85c-.16,0-.18-.01-.22-.17-.24-.84-.48-1.68-.72-2.52-.26-.9-.52-1.81-.78-2.71-.04-.15-.08-.3-.12-.45,0-.03-.02-.06-.05-.12l.02-.05Z"></path><path class="cls-4" d="m66.58,7.53s-.05-.05-.06-.08c-.26-.44-.63-.75-1.08-.99-.29-.16-.61-.23-.94-.26-.5-.04-1,0-1.47.22-.24.11-.45.24-.64.41-.6.54-.93,1.21-.99,2.02-.03.4,0,.8.1,1.18.12.44.34.84.66,1.17.33.34.71.6,1.17.74.43.13.87.19,1.32.12.21-.03.43-.07.63-.13.5-.15.9-.46,1.2-.88.17-.23.27-.49.34-.77.01-.04,0-.09,0-.14-.08,0-.14-.01-.21-.01h-2.22q-.24,0-.25-.24v-.56c0-.13.03-.15.16-.16h3.32q.26,0,.26.26c0,.6-.1,1.19-.33,1.75-.1.24-.25.45-.41.66-.24.32-.53.58-.87.78-.42.24-.88.4-1.36.47-.79.11-1.56.04-2.3-.29-.99-.43-1.62-1.19-2-2.17-.22-.58-.31-1.18-.25-1.79.06-.77.31-1.48.76-2.11.27-.38.59-.69.97-.94.55-.35,1.15-.54,1.8-.6.47-.04.93.01,1.38.14.55.16,1.04.44,1.46.83.24.23.45.47.61.76.08.13.08.14-.05.22-.21.13-.42.26-.62.38-.03.02-.07.03-.11.05l.02-.04Z"></path><path class="cls-4" d="m37.23,9.13c0,.66-.17,1.28-.46,1.86-.19.39-.44.74-.75,1.03-.57.55-1.25.92-2.04,1.04-.63.1-1.25.05-1.86-.16-.93-.34-1.63-.95-2.09-1.83-.24-.46-.38-.94-.46-1.45-.08-.57-.01-1.14.15-1.69.2-.67.54-1.27,1.04-1.75.55-.53,1.2-.87,1.96-.99.2-.03.41-.07.61-.06.46.02.92.07,1.35.24.6.23,1.11.58,1.53,1.06.47.54.78,1.18.91,1.89.05.26.07.54.1.8h.01Zm-1.07-.08c0-.09.02-.24,0-.38-.15-1-.67-1.75-1.56-2.22-.65-.35-1.36-.35-2.06-.16-.45.12-.82.37-1.14.71-.39.4-.62.88-.75,1.42-.1.4-.09.8-.03,1.2.11.85.56,1.49,1.24,1.98.35.25.75.38,1.17.43.67.08,1.29-.06,1.86-.43.42-.27.75-.64.98-1.09s.34-.92.3-1.48v.02Z"></path><path class="cls-4" d="m45.47,7.34v5.35c0,.18-.09.27-.28.27h-.58c-.15,0-.17-.02-.17-.18v-7.22c0-.19.09-.28.27-.28h.38c.12,0,.2.04.26.14.35.54.71,1.07,1.06,1.61.45.68.91,1.35,1.36,2.03.37.55.73,1.11,1.1,1.67.03.04.07.08.1.12,0,0,.02,0,.03-.01v-5.27c0-.19.1-.28.29-.28h.58c.14,0,.16.03.17.17v7.23c0,.19-.09.28-.28.29h-.38c-.12,0-.2-.04-.26-.14-.18-.29-.37-.58-.56-.86-.32-.48-.63-.95-.95-1.42-.69-1.04-1.37-2.08-2.06-3.12,0-.02-.03-.04-.07-.08v-.02Z"></path><path class="cls-4" d="m54.82,7.35s0,.07,0,.1c0,.19.03.39.03.58v4.67c0,.18-.09.27-.28.27h-.58c-.15,0-.17-.02-.17-.18v-7.3c0-.19.02-.21.21-.21h.47c.09,0,.16.03.21.11.37.56.74,1.12,1.11,1.68.32.48.65.97.97,1.45.47.71.94,1.42,1.42,2.13.05.08.1.15.15.23,0,0,.02,0,.04-.01v-5.31c0-.19.1-.28.29-.28h.55c.14,0,.16.03.17.17v7.23c0,.19-.09.28-.28.28h-.27c-.19.02-.31-.05-.41-.21-.25-.4-.51-.79-.77-1.18-.59-.89-1.18-1.78-1.77-2.67-.33-.5-.66-1.01-1-1.51,0,0-.02-.01-.05-.04h-.04Z"></path><path class="cls-6" d="m82.65,9.92c.57,1.01,1.14,2,1.71,3.02-.06.01-.1.03-.15.03h-.83c-.11,0-.18-.05-.24-.14-.41-.73-.83-1.45-1.23-2.19-.22-.41-.55-.6-1.01-.59h-.77c-.23,0-.24,0-.24.23v2.41c0,.19-.09.28-.28.28h-.58c-.14,0-.16-.03-.17-.17v-7.23c0-.19.09-.28.28-.28h2.67c.56,0,1.03.19,1.46.53.54.43.81,1,.87,1.69.04.57-.1,1.08-.42,1.55-.25.36-.56.64-.97.81-.02.01-.05.02-.1.05Zm-2.75-2.23v1.28c0,.07.04.11.12.11h1.79c.48,0,.83-.23,1.09-.62.37-.56.24-1.42-.23-1.83-.24-.2-.5-.33-.81-.34h-1.75c-.19,0-.2.02-.2.2v1.2h-.01Z"></path><path class="cls-4" d="m41.96,9.93c.57,1,1.13,2,1.7,3.01-.05.02-.08.03-.12.03h-.87c-.09,0-.15-.04-.2-.12-.37-.67-.74-1.33-1.12-2-.08-.14-.17-.27-.26-.4-.18-.27-.45-.39-.77-.4h-.95c-.15,0-.17.02-.17.18v2.53c0,.21,0,.22-.23.22h-.57c-.23,0-.24,0-.24-.25v-7.14c0-.19.1-.29.29-.29h2.77c.49,0,.91.19,1.29.47.5.37.78.89.89,1.49.13.7-.03,1.34-.47,1.91-.18.23-.4.42-.64.57-.08.05-.17.08-.25.13-.03.02-.06.04-.1.07h.02Zm-1.63-3.64h-.95c-.14,0-.16.02-.17.16v2.51c0,.07.04.11.11.12h1.78c.53,0,.91-.27,1.15-.69.24-.42.25-.89.03-1.34-.08-.17-.2-.3-.33-.43-.22-.21-.48-.33-.79-.33-.28,0-.55,0-.83,0Z"></path><path class="cls-6" d="m85.13,9.13v-3.57c0-.18.09-.27.27-.27h3.85q.25,0,.25.25v.58c0,.14-.01.15-.15.17-.04,0-.09.02-.13.02-.48,0-.97-.02-1.45-.02h-1.4c-.19,0-.21.02-.21.21v1.88c0,.19.02.2.2.2.13,0,.27.02.4.03h.58c.09,0,.19-.02.28-.02.19,0,.38.02.57.02.27,0,.53-.01.8-.02h.13c.11,0,.14.04.14.14v.75c0,.11-.04.13-.15.12-.13,0-.25-.02-.38-.02h-2.43c-.13,0-.15.03-.14.16v2.11c0,.07.04.11.11.11h3.04q.25,0,.25.25v.58c0,.14-.03.16-.17.17h-4c-.18,0-.27-.09-.27-.27v-3.57h0Z"></path><path class="cls-4" d="m52.44,9.14v3.57c0,.17-.09.26-.26.26h-.6c-.15,0-.17-.02-.18-.17v-7.22c0-.19.09-.29.28-.29h.48c.18,0,.27.09.27.28v3.56h0Z"></path><path class="cls-5" d="m10.37.01C6.91.01,4.11.95,4.11,2.12v13.07c0,1.16,2.8,2.11,6.26,2.11s6.26-.94,6.26-2.11V2.12c0-1.17-2.8-2.11-6.26-2.11Z"></path><path class="cls-1" d="m10.37.01C6.91.01,4.11.95,4.11,2.12v2.09c-.23-.03-.48-.06-.75-.05-1.41.02-2.42.74-2.99,1.97-.75,1.63-.23,3.53.34,4.47.89,1.45,2.39,2.17,3.4,2.38v2.21c0,.63.82,1.2,2.13,1.58V6.93c0-1.49,1.21-2.71,2.71-2.71h1.43c3.46,0,6.26-.79,6.26-2.11,0-1.16-2.8-2.11-6.26-2.11h0ZM2.18,9.49c-.46-.74-.52-1.92-.19-2.55.27-.53.72-.9,1.36-.92.29,0,.56.04.77.08v4.92c-.56-.22-1.43-.73-1.93-1.53h-.01Z"></path><ellipse class="cls-2" cx="10.37" cy="2.11" rx="5.55" ry="1.42"></ellipse><path d="m15.12,2.84c-.97.42-2.74.7-4.75.7s-3.75-.28-4.73-.69c0,.05,1.66-.89,4.73-.89s4.78.87,4.75.88Z"></path><path class="cls-3" d="m4.1,12.97h.01v2.17l2.13-3.03v-2.19c-.75,1.06-1.66,2.36-2.14,3.05Z"></path><path class="cls-2" d="m15.09,5.24l-2.2.75s-.05.07-.01.1l.62.45-2.8,4.02s-.02.04-.07,0c-.04-.03-2.72-2.04-3.1-2.33-.04-.03-.08-.03-.11,0,0,.01-.54.76-1.19,1.69v2.19l1.44-2.05c.04-.05.08-.06.14-.02.5.38,3,2.27,3.04,2.3.04.03.08.04.11,0s2.86-4.1,3.54-5.07l.54.39s.09,0,.09-.04l.04-2.33s-.04-.06-.07-.05h-.01Z"></path></svg> 