<?xml version="1.0" encoding="UTF-8"?> <svg xmlns="http://www.w3.org/2000/svg" id="Emblem" width="600" height="400" viewBox="0 0 600 400"><defs><style>.cls-1{fill:#fff;}</style></defs><path class="cls-1" d="m116.85,169.18l-6.26.12c-2.46.12-3.44.37-4.05,1.35-.37.61-.61,1.23-.74,1.6s-.25.49-.49.49-.37-.25-.37-.74c0-.74.74-4.79.86-5.16.12-.61.25-.86.49-.86.37,0,.74.49,1.84.49,1.23.12,2.82.25,4.17.25h16.45c2.7,0,3.68-.49,4.05-.49.25,0,.37.25.37.98,0,.98-.12,4.05-.12,5.16,0,.49-.12.74-.37.74-.37,0-.37-.25-.49-.86v-.49c-.12-1.1-1.23-2.46-4.91-2.46l-5.28-.12v18.41c0,4.17,0,7.61.25,9.57.12,1.23.37,2.21,1.6,2.46.61.12,1.47.12,2.09.12.49,0,.61.12.61.37,0,.37-.37.49-.74.49-2.7,0-5.4-.12-6.51-.12-.98,0-3.56.12-5.28.12-.49,0-.86-.12-.86-.49,0-.25.12-.37.61-.37.61,0,1.1-.12,1.47-.12.86-.12,1.1-1.1,1.23-2.46.25-1.84.25-5.4.25-9.57v-18.41"></path><path class="cls-1" d="m218.19,199.99c-.61-.37-.74-.49-.74-1.47,0-2.46.12-5.16.25-5.89,0-.61.12-1.1.49-1.1s.37.37.37.74c0,.61.12,1.47.37,2.33.86,3.31,3.31,4.54,6.01,4.54,3.81,0,5.65-2.7,5.65-5.16,0-2.21-.61-4.3-4.05-7.12l-1.96-1.6c-4.54-3.81-6.14-7-6.14-10.68,0-4.91,3.81-8.47,9.57-8.47,2.7,0,4.42.49,5.52.74.37.12.61.25.61.49,0,.61-.12,1.84-.12,5.4,0,.98-.12,1.35-.49,1.35-.25,0-.37-.25-.37-.86,0-.37-.25-1.84-1.1-2.95-.61-.86-1.84-2.21-4.54-2.21-3.07,0-4.91,1.96-4.91,4.66,0,2.09.98,3.68,4.42,6.51l1.23.98c5.03,4.17,6.87,7.12,6.87,11.42,0,2.58-.86,5.65-3.93,7.86-2.09,1.47-4.42,1.84-6.63,1.84-2.7-.12-4.54-.49-6.38-1.35"></path><path class="cls-1" d="m398.53,188.82c-.25,0-.25.12-.37.37l-2.21,6.38c-.37,1.1-.61,2.21-.61,2.7,0,.86.37,1.35,1.72,1.35h.61c.49,0,.61.12.61.37,0,.37-.25.49-.74.49-1.35,0-3.07-.12-4.42-.12-.49,0-2.7.12-4.91.12-.49,0-.74-.12-.74-.49,0-.25.12-.37.49-.37s.98,0,1.35-.12c1.96-.25,2.7-1.84,3.56-4.05l10.43-28.11c.49-1.35.74-1.84,1.23-1.84.37,0,.61.37.98,1.47.98,2.46,7.61,20.74,10.31,27.62,1.6,4.05,2.82,4.66,3.68,4.91.61.12,1.23.12,1.72.12.37,0,.49,0,.49.37s-.37.49-1.96.49c-1.47,0-4.54,0-7.86-.12-.74,0-1.23,0-1.23-.37,0-.25.12-.37.61-.37.25-.12.61-.49.37-.98l-3.31-9.45c-.12-.25-.25-.37-.37-.37h-9.45m8.59-2.21c.25,0,.25-.12.25-.25l-3.81-11.05c0-.12-.12-.37-.25-.37s-.25.25-.25.37l-3.81,11.05c0,.12,0,.37.12.37h7.73v-.12Z"></path><path class="cls-1" d="m117.26,232.86v-13.28h-4.11l.1-1.25h9.4l-.1,1.25h-3.98v13.28h-1.31Z"></path><path class="cls-1" d="m127.08,223.67c1.09-.79,2.14-1.2,3.15-1.24.86,0,1.51.1,1.97.31.46.21.83.5,1.12.88.29.38.44.92.44,1.61v7.63h-1.35v-7.28c0-.51-.11-.91-.33-1.18-.44-.51-1.12-.77-2.03-.77-.9.04-1.89.33-2.97.87v8.36h-1.35v-15.46l1.35-.1v6.37Z"></path><path class="cls-1" d="m138.15,228.09c0,2.43,1.16,3.65,3.49,3.65.98,0,1.88-.13,2.7-.39.21-.07.35-.12.44-.17l.31,1.1c-.48.29-1.36.5-2.64.62-.36.03-.74.04-1.14.04-1.16,0-2.13-.29-2.9-.87-1.07-.79-1.6-2.1-1.6-3.94s.48-3.25,1.44-4.24c.96-.99,2.13-1.48,3.5-1.48s2.4.44,3.09,1.33c.53.71.79,1.64.79,2.8,0,.28-.01.57-.04.87h-7.41c-.01.11-.02.23-.02.35v.33Zm3.67-4.4c-.86,0-1.59.26-2.2.78-.61.52-1.03,1.19-1.27,2h6.04c-.07-1.53-.66-2.43-1.78-2.68-.25-.07-.51-.1-.79-.1Z"></path><path class="cls-1" d="m168.36,230.83l3.44-12.49h1.35l-4.25,14.52h-1.27l-3.13-12.37-3.42,12.37h-1.29l-3.71-14.52h1.31l3.15,12.43,3.42-12.43h1.16l3.24,12.49Z"></path><path class="cls-1" d="m174.96,230.21c-.25-.66-.37-1.44-.37-2.32,0-1.7.48-3.04,1.43-4.01.95-.97,2.15-1.46,3.59-1.46,2.25,0,3.73.91,4.44,2.74.26.66.39,1.44.39,2.32,0,1.7-.48,3.04-1.43,4.01-.95.97-2.15,1.46-3.59,1.46-2.25,0-3.74-.91-4.46-2.74Zm.98-2.47c0,1.27.33,2.26.99,2.96.66.7,1.5,1.05,2.54,1.05s1.9-.37,2.59-1.11,1.04-1.75,1.04-3.02-.33-2.26-.98-2.96c-.65-.7-1.5-1.05-2.54-1.05s-1.91.37-2.6,1.11-1.04,1.75-1.04,3.02Z"></path><path class="cls-1" d="m192.82,223.94c-.22-.12-.46-.19-.71-.19s-.39,0-.41.02c-.53,0-1.06.19-1.59.57-.53.38-.99.81-1.36,1.27v7.24h-1.35v-10.37l1.35-.1v2.32c.51-.65.95-1.11,1.31-1.37.66-.5,1.3-.76,1.91-.79.08-.01.24-.02.46-.02s.53.05.93.17l-.54,1.24Z"></path><path class="cls-1" d="m195.89,232.86v-15.46l1.35-.1v15.56h-1.35Z"></path><path class="cls-1" d="m205.58,222.39c.82,0,1.59.24,2.32.73v-5.71l1.35-.1v15.08h-.1c-.43.18-1.14.32-2.15.42-1,.1-1.7.15-2.09.15-1.16,0-2.12-.29-2.88-.87-1.07-.8-1.6-2.12-1.6-3.96s.49-3.25,1.48-4.24c.99-.99,2.21-1.48,3.66-1.48Zm2.32,1.62c-.69-.26-1.37-.39-2.03-.39-1.27,0-2.27.39-3,1.16s-1.09,1.87-1.09,3.3.39,2.43,1.18,3.01c.57.44,1.28.66,2.15.66s1.79-.07,2.79-.21v-7.53Z"></path><path class="cls-1" d="m212.71,220.46l.02-.93v-.77c0-.28,0-.52-.02-.73l.91-.06c-.01.72-.05,1.3-.11,1.75-.06.45-.09.68-.09.69l-.7.04Z"></path><path class="cls-1" d="m223.21,223.86c-.5-.17-1.18-.25-2.03-.25s-1.52.15-1.99.46-.7.68-.7,1.13.14.78.41.98.62.38,1.04.53c.42.15.87.29,1.36.43.49.14.94.32,1.36.54.97.5,1.45,1.24,1.45,2.22s-.34,1.74-1.01,2.26c-.67.53-1.65.79-2.94.79-.65,0-1.28-.07-1.88-.2-.6-.13-1.06-.31-1.38-.55l.46-1.1c.32.28.96.48,1.93.6.3.04.62.06.93.06.72,0,1.32-.15,1.8-.45.48-.3.73-.75.73-1.36,0-.42-.14-.74-.41-.98-.28-.23-.62-.43-1.04-.59-.41-.16-.87-.3-1.36-.43-.49-.12-.94-.29-1.36-.49-.42-.2-.76-.46-1.04-.79-.28-.32-.42-.76-.42-1.32,0-.9.35-1.62,1.04-2.16.69-.54,1.62-.81,2.78-.81.29,0,.59.02.89.05.3.03.58.07.83.09l.87.15-.33,1.16Z"></path><path class="cls-1" d="m235.37,232.86v-14.52h3.01c1.7,0,2.93.27,3.69.81.88.62,1.33,1.69,1.33,3.19,0,2.52-.97,4.05-2.9,4.61-.62.18-1.33.27-2.12.27h-1.6v5.64h-1.41Zm1.41-13.38v6.6h1.49c1.24,0,2.17-.27,2.79-.82.62-.55.92-1.44.92-2.68s-.31-2.06-.92-2.48-1.55-.62-2.79-.62h-1.49Z"></path><path class="cls-1" d="m251.86,223.94c-.22-.12-.46-.19-.71-.19s-.39,0-.41.02c-.53,0-1.06.19-1.59.57-.53.38-.99.81-1.36,1.27v7.24h-1.35v-10.37l1.35-.1v2.32c.51-.65.95-1.11,1.31-1.37.66-.5,1.3-.76,1.91-.79.08-.01.24-.02.46-.02s.53.05.93.17l-.54,1.24Z"></path><path class="cls-1" d="m255.06,228.09c0,2.43,1.16,3.65,3.49,3.65.98,0,1.88-.13,2.7-.39.21-.07.35-.12.44-.17l.31,1.1c-.48.29-1.36.5-2.64.62-.36.03-.74.04-1.14.04-1.16,0-2.13-.29-2.9-.87-1.07-.79-1.6-2.1-1.6-3.94s.48-3.25,1.44-4.24c.96-.99,2.13-1.48,3.5-1.48s2.4.44,3.09,1.33c.53.71.79,1.64.79,2.8,0,.28-.01.57-.04.87h-7.41c-.01.11-.02.23-.02.35v.33Zm3.67-4.4c-.86,0-1.59.26-2.2.78-.61.52-1.03,1.19-1.27,2h6.04c-.07-1.53-.66-2.43-1.78-2.68-.25-.07-.51-.1-.79-.1Z"></path><path class="cls-1" d="m269.46,223.63c-.77.04-1.61.3-2.51.77v8.47h-1.35v-10.37l1.35-.1v1.16c.93-.71,1.83-1.08,2.7-1.12,1.47,0,2.48.37,3.03,1.1,1.05-.69,2.07-1.06,3.05-1.1.84,0,1.49.1,1.95.31.46.21.83.5,1.13.88.3.38.45.92.45,1.61v7.63h-1.35v-7.28c0-.51-.12-.91-.35-1.18-.43-.51-1.04-.77-1.83-.77-.83,0-1.72.25-2.66.75.07.28.1.56.1.85v7.63h-1.35v-7.28c0-.51-.11-.91-.33-1.18-.44-.51-1.12-.77-2.03-.77Z"></path><path class="cls-1" d="m284.29,219.71c-.28,0-.49-.09-.63-.27-.15-.18-.22-.41-.22-.69s.08-.5.24-.67c.16-.17.38-.26.65-.26s.5.09.67.26c.17.17.26.41.26.72s-.09.53-.28.68c-.19.15-.42.23-.7.23Zm.73,2.68v10.48h-1.35v-10.37l1.35-.1Z"></path><path class="cls-1" d="m289.91,228.09c0,2.43,1.16,3.65,3.48,3.65.98,0,1.88-.13,2.7-.39.21-.07.35-.12.44-.17l.31,1.1c-.48.29-1.36.5-2.64.62-.36.03-.74.04-1.14.04-1.16,0-2.13-.29-2.9-.87-1.07-.79-1.6-2.1-1.6-3.94s.48-3.25,1.44-4.24c.96-.99,2.13-1.48,3.49-1.48s2.4.44,3.09,1.33c.53.71.79,1.64.79,2.8,0,.28-.01.57-.04.87h-7.41c-.01.11-.02.23-.02.35v.33Zm3.67-4.4c-.86,0-1.59.26-2.2.78-.61.52-1.03,1.19-1.27,2h6.04c-.07-1.53-.66-2.43-1.78-2.68-.25-.07-.51-.1-.79-.1Z"></path><path class="cls-1" d="m305.86,223.94c-.22-.12-.46-.19-.7-.19s-.39,0-.42.02c-.53,0-1.06.19-1.59.57-.53.38-.99.81-1.36,1.27v7.24h-1.35v-10.37l1.35-.1v2.32c.51-.65.95-1.11,1.31-1.37.66-.5,1.3-.76,1.91-.79.08-.01.23-.02.46-.02s.53.05.93.17l-.54,1.24Z"></path><path class="cls-1" d="m322.88,224.52c1.53.57,2.3,1.85,2.3,3.84,0,1.01-.11,1.79-.34,2.34s-.56.99-.99,1.31c-.79.57-2.02.85-3.69.85h-3.42v-14.52h3.11c2.18,0,3.57.55,4.15,1.66.21.39.31.86.31,1.41s-.14,1.12-.43,1.7-.62,1.05-1.01,1.41Zm-1-.25c.68-.88,1.02-1.76,1.02-2.62s-.27-1.43-.81-1.73c-.54-.3-1.32-.45-2.35-.45h-1.6v4.71h2.53c.42,0,.82.03,1.2.08Zm-3.73,1.06v6.39h1.91c1.29,0,2.19-.17,2.72-.52.67-.43,1-1.28,1-2.55,0-1.73-.61-2.77-1.83-3.13-.4-.12-.86-.19-1.37-.19h-2.43Z"></path><path class="cls-1" d="m330.99,231.54c.3.11.79.17,1.45.17s1.52-.27,2.57-.81v-8.4l1.35-.1v10.48h-1.35v-1.12c-1.02.79-2.07,1.18-3.13,1.18-1.33,0-2.29-.4-2.89-1.18-.3-.39-.46-.93-.46-1.62v-7.63l1.35-.1v7.38c0,.86.37,1.45,1.1,1.76Z"></path><path class="cls-1" d="m346.13,223.86c-.5-.17-1.18-.25-2.03-.25s-1.52.15-1.99.46c-.47.3-.71.68-.71,1.13s.14.78.42.98.62.38,1.04.53c.41.15.87.29,1.36.43.49.14.95.32,1.36.54.97.5,1.45,1.24,1.45,2.22s-.33,1.74-1.01,2.26c-.67.53-1.65.79-2.93.79-.65,0-1.28-.07-1.88-.2-.6-.13-1.06-.31-1.38-.55l.46-1.1c.32.28.96.48,1.93.6.3.04.61.06.93.06.72,0,1.32-.15,1.8-.45.48-.3.73-.75.73-1.36,0-.42-.14-.74-.42-.98-.28-.23-.62-.43-1.04-.59-.42-.16-.87-.3-1.36-.43-.49-.12-.94-.29-1.36-.49-.42-.2-.76-.46-1.04-.79-.28-.32-.41-.76-.41-1.32,0-.9.34-1.62,1.04-2.16.69-.54,1.62-.81,2.78-.81.29,0,.59.02.89.05.3.03.58.07.83.09l.87.15-.33,1.16Z"></path><path class="cls-1" d="m350.99,219.71c-.28,0-.49-.09-.63-.27-.15-.18-.22-.41-.22-.69s.08-.5.24-.67c.16-.17.38-.26.66-.26s.5.09.67.26.26.41.26.72-.09.53-.28.68c-.19.15-.42.23-.7.23Zm.73,2.68v10.48h-1.35v-10.37l1.35-.1Z"></path><path class="cls-1" d="m357.09,223.63c1.04-.76,2.02-1.16,2.95-1.2.84,0,1.49.1,1.95.31.46.21.83.5,1.13.88.3.38.45.92.45,1.61v7.63h-1.35v-7.28c0-.51-.11-.91-.33-1.18-.44-.51-1.12-.77-2.03-.77-.87.04-1.79.32-2.76.85v8.38h-1.35v-10.37l1.35-.1v1.24Z"></path><path class="cls-1" d="m368.58,228.09c0,2.43,1.16,3.65,3.48,3.65.98,0,1.88-.13,2.7-.39.21-.07.35-.12.44-.17l.31,1.1c-.48.29-1.36.5-2.64.62-.36.03-.74.04-1.14.04-1.16,0-2.13-.29-2.9-.87-1.07-.79-1.6-2.1-1.6-3.94s.48-3.25,1.44-4.24c.96-.99,2.13-1.48,3.49-1.48s2.4.44,3.09,1.33c.53.71.79,1.64.79,2.8,0,.28-.01.57-.04.87h-7.41c-.01.11-.02.23-.02.35v.33Zm3.67-4.4c-.86,0-1.59.26-2.2.78-.61.52-1.03,1.19-1.27,2h6.04c-.07-1.53-.66-2.43-1.78-2.68-.25-.07-.51-.1-.79-.1Z"></path><path class="cls-1" d="m385.22,223.86c-.5-.17-1.18-.25-2.03-.25s-1.52.15-1.99.46c-.47.3-.71.68-.71,1.13s.14.78.42.98.62.38,1.04.53c.41.15.87.29,1.36.43.49.14.95.32,1.36.54.97.5,1.45,1.24,1.45,2.22s-.33,1.74-1.01,2.26c-.67.53-1.65.79-2.93.79-.65,0-1.28-.07-1.88-.2-.6-.13-1.06-.31-1.38-.55l.46-1.1c.32.28.96.48,1.93.6.3.04.61.06.93.06.72,0,1.32-.15,1.8-.45.48-.3.73-.75.73-1.36,0-.42-.14-.74-.42-.98-.28-.23-.62-.43-1.04-.59-.42-.16-.87-.3-1.36-.43-.49-.12-.94-.29-1.36-.49-.42-.2-.76-.46-1.04-.79-.28-.32-.41-.76-.41-1.32,0-.9.34-1.62,1.04-2.16.69-.54,1.62-.81,2.78-.81.29,0,.59.02.89.05.3.03.58.07.83.09l.87.15-.33,1.16Z"></path><path class="cls-1" d="m395.01,223.86c-.5-.17-1.18-.25-2.03-.25s-1.52.15-1.99.46c-.47.3-.71.68-.71,1.13s.14.78.42.98.62.38,1.04.53c.41.15.87.29,1.36.43.49.14.95.32,1.36.54.97.5,1.45,1.24,1.45,2.22s-.33,1.74-1.01,2.26c-.67.53-1.65.79-2.93.79-.65,0-1.28-.07-1.88-.2-.6-.13-1.06-.31-1.38-.55l.46-1.1c.32.28.96.48,1.93.6.3.04.61.06.93.06.72,0,1.32-.15,1.8-.45.48-.3.73-.75.73-1.36,0-.42-.14-.74-.42-.98-.28-.23-.62-.43-1.04-.59-.42-.16-.87-.3-1.36-.43-.49-.12-.94-.29-1.36-.49-.42-.2-.76-.46-1.04-.79-.28-.32-.41-.76-.41-1.32,0-.9.34-1.62,1.04-2.16.69-.54,1.62-.81,2.78-.81.29,0,.59.02.89.05.3.03.58.07.83.09l.87.15-.33,1.16Z"></path><path class="cls-1" d="m415.51,229.03h-6.39l-1.33,3.84h-1.35l5.25-14.52h1.26l5.44,14.52h-1.51l-1.37-3.84Zm-6.04-1.04h5.66l-2.88-8.07-2.78,8.07Z"></path><path class="cls-1" d="m427.29,224.52l-2.78,8.34h-1.24l-3.42-10.37,1.51-.1,2.63,8.77,2.7-8.67,1.31-.1,2.32,8.8,3.05-8.69,1.6-.1-3.98,10.48h-1.24l-2.45-8.34Z"></path><path class="cls-1" d="m437.54,223.61c1.51-.75,2.83-1.14,3.96-1.18.9,0,1.59.11,2.09.34.49.23.89.55,1.19.95.3.41.46.98.46,1.71v7.43h-1.35v-.79c-1.9.58-3.11.87-3.65.87h-.06c-1.24,0-2.1-.38-2.55-1.14-.17-.28-.26-.55-.28-.81-.02-.26-.03-.48-.03-.66,0-.5.19-.94.58-1.34.39-.39.85-.66,1.39-.8.91-.23,2.45-.44,4.61-.62v-1.68c0-1.51-.79-2.26-2.37-2.26-1.11,0-2.31.32-3.61.97l-.37-.99Zm1.04,6.89c0,1,.69,1.49,2.05,1.49,1.09,0,2.18-.23,3.26-.71v-2.97c-2.16.3-3.49.54-4,.71-.87.28-1.31.77-1.31,1.47Z"></path><path class="cls-1" d="m454.01,223.94c-.22-.12-.46-.19-.7-.19s-.39,0-.42.02c-.53,0-1.06.19-1.59.57-.53.38-.99.81-1.36,1.27v7.24h-1.35v-10.37l1.35-.1v2.32c.51-.65.95-1.11,1.31-1.37.66-.5,1.3-.76,1.91-.79.08-.01.23-.02.46-.02s.53.05.93.17l-.54,1.24Z"></path><path class="cls-1" d="m461.32,222.39c.82,0,1.59.24,2.32.73v-5.71l1.35-.1v15.08h-.1c-.43.18-1.14.32-2.15.42s-1.7.15-2.09.15c-1.16,0-2.12-.29-2.88-.87-1.07-.8-1.6-2.12-1.6-3.96s.49-3.25,1.48-4.24,2.21-1.48,3.66-1.48Zm2.32,1.62c-.69-.26-1.37-.39-2.03-.39-1.27,0-2.27.39-3,1.16s-1.09,1.87-1.09,3.3.39,2.43,1.18,3.01c.57.44,1.28.66,2.15.66s1.79-.07,2.79-.21v-7.53Z"></path><path class="cls-1" d="m484.8,219.88c-.71-.28-1.45-.42-2.22-.42-1.56,0-2.82.57-3.79,1.72-.96,1.15-1.44,2.83-1.44,5.04s.5,3.76,1.51,4.65c.69.62,1.65.93,2.88.93.79,0,1.58-.09,2.38-.27.8-.18,1.34-.35,1.63-.52l.29,1.02c-.61.4-1.67.68-3.19.83-.44.06-.91.08-1.4.08s-1.07-.08-1.73-.24-1.28-.48-1.85-.97c-1.29-1.09-1.93-2.91-1.93-5.46s.6-4.51,1.81-5.9c1.21-1.39,2.78-2.09,4.72-2.09,1.08,0,2.01.21,2.78.64.29.15.52.32.69.5v3.01l-1.04.06-.1-2.63Z"></path><path class="cls-1" d="m488.6,230.21c-.25-.66-.37-1.44-.37-2.32,0-1.7.48-3.04,1.43-4.01.96-.97,2.15-1.46,3.59-1.46,2.25,0,3.73.91,4.44,2.74.26.66.39,1.44.39,2.32,0,1.7-.48,3.04-1.43,4.01-.95.97-2.15,1.46-3.59,1.46-2.26,0-3.74-.91-4.46-2.74Zm.97-2.47c0,1.27.33,2.26.99,2.96s1.5,1.05,2.54,1.05,1.9-.37,2.59-1.11,1.04-1.75,1.04-3.02-.32-2.26-.97-2.96c-.65-.7-1.5-1.05-2.54-1.05s-1.91.37-2.6,1.11c-.69.74-1.04,1.75-1.04,3.02Z"></path><path class="cls-1" d="m504.9,223.63c-.77.04-1.61.3-2.51.77v8.47h-1.35v-10.37l1.35-.1v1.16c.93-.71,1.83-1.08,2.7-1.12,1.47,0,2.48.37,3.03,1.1,1.05-.69,2.07-1.06,3.05-1.1.84,0,1.49.1,1.95.31.46.21.83.5,1.13.88.3.38.45.92.45,1.61v7.63h-1.35v-7.28c0-.51-.12-.91-.35-1.18-.43-.51-1.04-.77-1.83-.77-.83,0-1.72.25-2.66.75.07.28.1.56.1.85v7.63h-1.35v-7.28c0-.51-.11-.91-.33-1.18-.44-.51-1.12-.77-2.03-.77Z"></path><path class="cls-1" d="m524.12,232.44c-.56.23-1.04.36-1.44.38-.4.03-.8.04-1.18.04s-.81-.03-1.26-.1v5.19l-1.35.1v-15.02c.3-.1.77-.24,1.4-.44.63-.19,1.3-.29,2.01-.29s1.33.06,1.85.18,1,.34,1.44.67c1.04.8,1.56,2.13,1.56,3.98s-.5,3.28-1.49,4.27c-.46.46-.96.8-1.52,1.03Zm-3.89-.74c.42.1.86.15,1.33.15,1.36,0,2.4-.4,3.13-1.2.73-.8,1.1-1.93,1.1-3.38s-.37-2.49-1.12-3.11c-.53-.43-1.2-.64-2.02-.64s-1.63.12-2.42.35v7.84Z"></path><path class="cls-1" d="m531.29,228.09c0,2.43,1.16,3.65,3.48,3.65.98,0,1.88-.13,2.7-.39.21-.07.35-.12.44-.17l.31,1.1c-.48.29-1.36.5-2.64.62-.36.03-.74.04-1.14.04-1.16,0-2.13-.29-2.9-.87-1.07-.79-1.6-2.1-1.6-3.94s.48-3.25,1.44-4.24c.96-.99,2.13-1.48,3.49-1.48s2.4.44,3.09,1.33c.53.71.79,1.64.79,2.8,0,.28-.01.57-.04.87h-7.41c-.01.11-.02.23-.02.35v.33Zm3.67-4.4c-.86,0-1.59.26-2.2.78-.61.52-1.03,1.19-1.27,2h6.04c-.07-1.53-.66-2.43-1.78-2.68-.25-.07-.51-.1-.79-.1Z"></path><path class="cls-1" d="m546.43,232.49c-.25.25-.7.37-1.35.37-.91,0-1.53-.23-1.85-.71-.54-.51-.81-1.2-.81-2.07v-6.39h-1.16l.19-1.2h.98v-2.05l1.35-.12v2.18h2.41v1.2h-2.41v6.72c0,.8.42,1.2,1.25,1.2.36,0,.75-.08,1.16-.25l.25,1.12Z"></path><path class="cls-1" d="m550.67,219.71c-.28,0-.49-.09-.63-.27-.15-.18-.22-.41-.22-.69s.08-.5.24-.67c.16-.17.38-.26.66-.26s.5.09.67.26.26.41.26.72-.09.53-.28.68c-.19.15-.42.23-.7.23Zm.73,2.68v10.48h-1.35v-10.37l1.35-.1Z"></path><path class="cls-1" d="m559.96,232.49c-.25.25-.7.37-1.35.37-.91,0-1.53-.23-1.85-.71-.54-.51-.81-1.2-.81-2.07v-6.39h-1.16l.19-1.2h.98v-2.05l1.35-.12v2.18h2.41v1.2h-2.41v6.72c0,.8.42,1.2,1.25,1.2.36,0,.75-.08,1.16-.25l.25,1.12Z"></path><path class="cls-1" d="m564.19,219.71c-.28,0-.49-.09-.63-.27-.15-.18-.22-.41-.22-.69s.08-.5.24-.67c.16-.17.38-.26.66-.26s.5.09.67.26.26.41.26.72-.09.53-.28.68c-.19.15-.42.23-.7.23Zm.73,2.68v10.48h-1.35v-10.37l1.35-.1Z"></path><path class="cls-1" d="m569.13,230.21c-.25-.66-.37-1.44-.37-2.32,0-1.7.48-3.04,1.43-4.01.96-.97,2.15-1.46,3.59-1.46,2.25,0,3.73.91,4.44,2.74.26.66.39,1.44.39,2.32,0,1.7-.48,3.04-1.43,4.01-.95.97-2.15,1.46-3.59,1.46-2.26,0-3.74-.91-4.46-2.74Zm.97-2.47c0,1.27.33,2.26.99,2.96s1.5,1.05,2.54,1.05,1.9-.37,2.59-1.11,1.04-1.75,1.04-3.02-.32-2.26-.97-2.96c-.65-.7-1.5-1.05-2.54-1.05s-1.91.37-2.6,1.11c-.69.74-1.04,1.75-1.04,3.02Z"></path><path class="cls-1" d="m582.93,223.63c1.04-.76,2.02-1.16,2.95-1.2.84,0,1.49.1,1.95.31.46.21.83.5,1.13.88.3.38.45.92.45,1.61v7.63h-1.35v-7.28c0-.51-.11-.91-.33-1.18-.44-.51-1.12-.77-2.03-.77-.87.04-1.79.32-2.76.85v8.38h-1.35v-10.37l1.35-.1v1.24Z"></path><path class="cls-1" d="m599.11,223.86c-.5-.17-1.18-.25-2.03-.25s-1.52.15-1.99.46c-.47.3-.71.68-.71,1.13s.14.78.42.98.62.38,1.04.53c.41.15.87.29,1.36.43.49.14.95.32,1.36.54.97.5,1.45,1.24,1.45,2.22s-.33,1.74-1.01,2.26c-.67.53-1.65.79-2.93.79-.65,0-1.28-.07-1.88-.2-.6-.13-1.06-.31-1.38-.55l.46-1.1c.32.28.96.48,1.93.6.3.04.61.06.93.06.72,0,1.32-.15,1.8-.45.48-.3.73-.75.73-1.36,0-.42-.14-.74-.42-.98-.28-.23-.62-.43-1.04-.59-.42-.16-.87-.3-1.36-.43-.49-.12-.94-.29-1.36-.49-.42-.2-.76-.46-1.04-.79-.28-.32-.41-.76-.41-1.32,0-.9.34-1.62,1.04-2.16.69-.54,1.62-.81,2.78-.81.29,0,.59.02.89.05.3.03.58.07.83.09l.87.15-.33,1.16Z"></path><path class="cls-1" d="m162.77,183.54c.11,0,.21-.11.21-.32v-.86c0-5.9,0-7.08-.11-8.26-.11-1.29-.32-1.93-1.61-2.25-.32-.11-.86-.11-1.39-.11-.43,0-.64-.11-.64-.32,0-.32.21-.32.75-.32,1.93,0,4.29.11,5.25.11.86,0,3.22-.11,4.61-.11.54,0,.75.11.75.32,0,.32-.21.32-.64.32-.32,0-.64,0-1.07.11-.97.21-1.29.86-1.39,2.25-.11,1.29-.11,2.36-.11,8.26v6.86c0,3.65,0,6.65.21,8.36.11,1.07.32,1.93,1.39,2.14.54.11,1.29.11,1.82.11.43,0,.54.11.54.32,0,.32-.32.43-.75.43-2.36,0-4.61-.11-5.68-.11-.86,0-3.11.11-4.5.11-.54,0-.75-.11-.75-.43,0-.21.11-.32.54-.32.54,0,.97-.11,1.29-.11.75-.11.86-.97,1.07-2.14.21-1.61.21-4.72.21-8.36v-3.43c0-.11-.11-.21-.21-.21h-13.94c-.11,0-.21,0-.21.21v3.43c0,3.65,0,6.65.21,8.36.11,1.07.32,1.93,1.39,2.14.54.11,1.29.11,1.82.11.43,0,.54.11.54.32,0,.32-.32.43-.75.43-2.36,0-4.61-.11-5.68-.11-.86,0-3.11.11-4.61.11-.43,0-.75-.11-.75-.43,0-.21.11-.32.54-.32.54,0,.97-.11,1.29-.11.75-.11.86-.97,1.07-2.14.21-1.61.21-4.72.21-8.36v-6.86c0-5.9,0-7.08-.11-8.26-.11-1.29-.32-1.93-1.61-2.25-.32-.11-.86-.11-1.39-.11-.43,0-.64-.11-.64-.32,0-.32.21-.32.75-.32,1.93,0,4.29.11,5.25.11.86,0,3.22-.11,4.61-.11.54,0,.75.11.75.32,0,.32-.21.32-.64.32-.32,0-.64,0-1.07.11-.97.21-1.29.86-1.39,2.25-.11,1.29-.11,2.36-.11,8.26v.86c0,.21.11.32.21.32h14.48"></path><path class="cls-1" d="m182.24,182.36c0-5.9,0-7.08-.11-8.26-.11-1.29-.32-1.93-1.61-2.25-.32-.11-.86-.11-1.39-.11-.43,0-.64-.11-.64-.32,0-.32.21-.32.75-.32,1.93,0,4.18.11,5.25.11h9.11c.64-.11,1.29-.11,1.61-.21.21,0,.43-.11.54-.11.21,0,.21.11.21.32,0,.32-.21.75-.32,2.57,0,.43-.11,2.14-.21,2.57,0,.21-.11.43-.32.43s-.32-.21-.32-.54,0-.97-.21-1.39c-.21-.75-.64-1.18-2.47-1.39-.64-.11-4.4-.11-5.15-.11-.21,0-.21.11-.21.43v9.86c0,.32,0,.43.21.43.75,0,5.04,0,5.79-.11.86-.11,1.39-.21,1.72-.54.21-.32.43-.54.54-.54s.21.11.21.32-.21.86-.32,2.9c-.11.75-.11,2.36-.11,2.57,0,.32,0,.75-.32.75-.21,0-.32-.11-.32-.32,0-.43,0-.86-.11-1.39-.21-.75-.64-1.39-2.04-1.5-.64-.11-4.29-.11-5.15-.11-.21,0-.21.11-.21.43v9.22c.11,2.68.64,3.32,4.4,3.32.97,0,2.47,0,3.43-.43s1.39-1.29,1.61-2.9c.11-.43.11-.54.43-.54s.32.32.32.75c0,.86-.32,3.54-.43,4.4-.21.97-.54.97-1.93.97-5.47,0-7.93-.21-10.08-.21-.86,0-3.11.11-4.61.11-.43,0-.75-.11-.75-.43,0-.21.11-.32.54-.32.54,0,.97-.11,1.29-.11.75-.11.86-.97,1.07-2.14.21-1.61.21-4.72.21-8.36v-7.51"></path><path class="cls-1" d="m252.12,173.25l-5.47.11c-2.14.11-3,.32-3.54,1.18-.32.54-.54,1.07-.64,1.39s-.21.43-.43.43-.32-.21-.32-.64c0-.64.64-4.18.75-4.5.11-.54.21-.75.43-.75.32,0,.64.43,1.61.43,1.07.11,2.47.21,3.65.21h14.37c1.18,0,1.93-.11,2.47-.21s.86-.21.97-.21c.21,0,.32.21.32.86,0,.86-.11,3.54-.11,4.5,0,.43-.11.64-.32.64-.32,0-.32-.21-.43-.75v-.43c-.11-.97-1.07-2.14-4.29-2.14l-4.61-.11v16.08c0,3.65,0,6.65.21,8.36.11,1.07.32,1.93,1.39,2.14.54.11,1.29.11,1.82.11.43,0,.54.11.54.32,0,.32-.32.43-.64.43-2.36,0-4.72-.11-5.68-.11-.86,0-3.11.11-4.61.11-.43,0-.75-.11-.75-.43,0-.21.11-.32.54-.32.54,0,.97-.11,1.29-.11.75-.11.97-.97,1.07-2.14.21-1.61.21-4.72.21-8.36v-16.08"></path><path class="cls-1" d="m275.5,182.36c0-5.9,0-7.08-.11-8.26-.11-1.29-.32-1.93-1.61-2.25-.32-.11-.86-.11-1.39-.11-.43,0-.64-.11-.64-.32,0-.32.21-.32.75-.32,1.93,0,4.18.11,5.25.11h9.11c.64-.11,1.29-.11,1.61-.21.21,0,.43-.11.54-.11.21,0,.21.11.21.32,0,.32-.21.75-.32,2.57,0,.43-.11,2.14-.21,2.57,0,.21-.11.43-.32.43s-.32-.21-.32-.54,0-.97-.21-1.39c-.21-.75-.64-1.18-2.47-1.39-.64-.11-4.4-.11-5.15-.11-.21,0-.21.11-.21.43v9.86c0,.32,0,.43.21.43.75,0,5.04,0,5.79-.11.86-.11,1.39-.21,1.72-.54.21-.32.43-.54.54-.54s.21.11.21.32-.21.86-.32,2.9c-.11.75-.11,2.36-.11,2.57,0,.32,0,.75-.32.75-.21,0-.32-.11-.32-.32,0-.43,0-.86-.11-1.39-.21-.75-.64-1.39-2.04-1.5-.64-.11-4.29-.11-5.15-.11-.21,0-.21.11-.21.43v9.22c.11,2.68.64,3.32,4.4,3.32.97,0,2.47,0,3.43-.43.97-.43,1.39-1.29,1.61-2.9.11-.43.11-.54.43-.54s.32.32.32.75c0,.86-.32,3.54-.43,4.4-.21.97-.54.97-1.93.97-5.47,0-7.93-.21-10.08-.21-.86,0-3.11.11-4.61.11-.43,0-.75-.11-.75-.43,0-.21.11-.32.54-.32.54,0,.97-.11,1.29-.11.75-.11.86-.97,1.07-2.14.21-1.61.21-4.72.21-8.36v-7.51"></path><path class="cls-1" d="m298.74,174.86c-.86-2.14-1.5-2.57-2.79-3-.54-.11-1.18-.11-1.39-.11-.32,0-.43-.11-.43-.32,0-.32.43-.32.97-.32,1.93,0,3.97.11,5.25.11.97,0,2.68-.11,4.5-.11.43,0,.86.11.86.32,0,.32-.21.32-.54.32-.54,0-1.18,0-1.39.32-.21.21-.32.43-.32.86,0,.54.32,1.61.86,3l6.22,17.8h.11c1.61-4.29,6.33-16.94,7.18-19.52.21-.54.32-1.07.32-1.5,0-.32-.11-.64-.43-.75-.43-.11-.97-.21-1.5-.21-.32,0-.64,0-.64-.32s.32-.43,1.07-.43c1.82,0,3.32.11,3.86.11.64,0,2.36-.11,3.43-.11.43,0,.75.11.75.32,0,.32-.21.32-.54.32s-1.18,0-1.82.43c-.43.32-1.07.97-2.04,3.54-1.39,3.65-2.36,5.79-4.4,10.62-2.36,5.68-4.07,9.97-4.83,11.9-.97,2.25-1.18,2.9-1.72,2.9-.43,0-.64-.54-1.39-2.36l-9.22-23.8"></path><path class="cls-1" d="m330.8,182.36c0-5.9,0-7.08-.11-8.26-.11-1.29-.43-2.04-1.29-2.14-.43-.11-.86-.11-1.29-.11-.32,0-.54-.11-.54-.43,0-.21.32-.32.86-.32,1.39,0,3.65.11,4.72.11.86,0,3.11-.11,4.4-.11.43,0,.75.11.75.32,0,.32-.21.43-.54.43s-.64,0-1.07.11c-.97.21-1.29.86-1.39,2.25-.11,1.29-.11,2.36-.11,8.26v6.86c0,3.75,0,6.86.11,8.58.11,1.07.32,1.72,1.5,1.93.54.11,1.29.11,1.82.11.43,0,.54.11.54.32,0,.32-.32.43-.64.43-2.36,0-4.72-.11-5.68-.11-.86,0-3.11.11-4.61.11-.43,0-.75-.11-.75-.43,0-.21.11-.32.54-.32.54,0,.97-.11,1.29-.11.75-.11.97-.86,1.07-1.93.21-1.61.21-4.72.21-8.58v-6.97"></path><path class="cls-1" d="m350.05,182.36c0-5.9,0-7.08-.11-8.26-.11-1.29-.32-1.93-1.61-2.25-.32-.11-.86-.11-1.39-.11-.43,0-.64-.11-.64-.32,0-.32.21-.32.75-.32,1.93,0,4.18.11,5.25.11h9.11c.64-.11,1.29-.11,1.61-.21.21,0,.43-.11.54-.11.21,0,.21.11.21.32,0,.32-.21.75-.32,2.57,0,.43-.11,2.14-.21,2.57,0,.21-.11.43-.32.43s-.32-.21-.32-.54,0-.97-.21-1.39c-.21-.75-.64-1.18-2.47-1.39-.64-.11-4.4-.11-5.15-.11-.21,0-.21.11-.21.43v9.86c0,.32,0,.43.21.43.75,0,5.04,0,5.79-.11.86-.11,1.39-.21,1.72-.54.21-.32.43-.54.54-.54s.21.11.21.32-.21.86-.32,2.9c-.11.75-.11,2.36-.11,2.57,0,.32,0,.75-.32.75-.21,0-.32-.11-.32-.32,0-.43,0-.86-.11-1.39-.21-.75-.64-1.39-2.04-1.5-.64-.11-4.29-.11-5.15-.11-.21,0-.21.11-.21.43v9.22c.11,2.68.64,3.32,4.4,3.32.97,0,2.47,0,3.43-.43.97-.43,1.39-1.29,1.61-2.9.11-.43.11-.54.43-.54s.32.32.32.75c0,.86-.32,3.54-.43,4.4-.21.97-.54.97-1.93.97-5.47,0-7.93-.21-10.08-.21-.86,0-3.11.11-4.61.11-.43,0-.75-.11-.75-.43,0-.21.11-.32.54-.32.54,0,.97-.11,1.29-.11.75-.11.86-.97,1.07-2.14.21-1.61.21-4.72.21-8.36v-7.51"></path><path class="cls-1" d="m423,174.86c-.43-1.5-.86-2.36-1.39-2.79-.43-.32-1.18-.32-1.5-.32s-.54,0-.54-.32.32-.32.75-.32c1.93,0,3.86.11,4.18.11s1.93-.11,4.07-.11c.54,0,.75.11.75.32,0,.32-.32.32-.64.32s-.64,0-.86.11c-.32.11-.43.43-.43.86,0,.54.32,1.82.75,3.65.64,2.57,3.97,14.48,4.61,16.62h.11l7.08-20.37c.43-1.07.64-1.39.86-1.39.43,0,.54.54,1.07,1.82l7.61,19.73h.11c.64-2.57,3.54-12.97,4.83-17.59.21-.86.32-1.72.32-2.25,0-.64-.32-1.18-1.72-1.18-.32,0-.64-.11-.64-.32,0-.32.32-.32.86-.32,1.93,0,3.43.11,3.75.11.21,0,1.82-.11,3-.11.43,0,.64.11.64.32,0,.32-.21.43-.54.43s-.86,0-1.29.21c-.86.32-1.29,1.93-2.04,4.18-1.72,4.93-5.47,17.37-7.29,23.27-.43,1.39-.54,1.82-1.07,1.82-.32,0-.54-.43-1.18-1.93l-7.61-19.62h-.11c-.64,2.04-5.58,15.87-7.08,19.41-.64,1.61-.86,2.04-1.29,2.04-.32,0-.54-.43-.86-1.5l-7.29-24.88"></path><path class="cls-1" d="m468.64,190.41c-.21,0-.21.11-.32.32l-1.93,5.58c-.32.97-.54,1.93-.54,2.36,0,.75.32,1.18,1.5,1.18h.54c.43,0,.54.11.54.32,0,.32-.21.43-.64.43-1.18,0-2.68-.11-3.86-.11-.43,0-2.36.11-4.29.11-.43,0-.64-.11-.64-.43,0-.21.11-.32.43-.32s.86,0,1.18-.11c1.72-.21,2.36-1.61,3.11-3.54l9.11-24.55c.43-1.18.64-1.61,1.07-1.61.32,0,.54.32.97,1.29.86,2.14,6.65,18.12,9.01,24.13,1.39,3.54,2.47,4.07,3.22,4.29.54.11,1.07.11,1.5.11.32,0,.43,0,.43.32s-.32.43-1.72.43c-1.29,0-3.97,0-6.86-.11-.64,0-1.07,0-1.07-.32,0-.21.11-.32.54-.32.21-.11.54-.43.32-.86l-2.9-8.26c-.11-.21-.21-.32-.32-.32h-8.36m7.4-1.93c.21,0,.21-.11.21-.21l-3.32-9.65c0-.11-.11-.32-.21-.32s-.21.21-.21.32l-3.32,9.65c0,.11,0,.32.11.32h6.76v-.11Z"></path><path class="cls-1" d="m496.06,182.36c0-5.9,0-7.08-.11-8.26-.11-1.29-.32-1.93-1.61-2.25-.32-.11-.86-.11-1.39-.11-.43,0-.64-.11-.64-.32,0-.32.21-.32.75-.32,1.93,0,4.18.11,5.04.11,1.29,0,3.97-.11,5.15-.11,2.25,0,4.72.21,6.65,1.72,1.07.75,2.47,2.79,2.47,5.36,0,2.9-1.18,5.58-4.83,8.79,3.22,4.4,5.79,7.83,7.93,10.29,2.04,2.25,3.54,2.57,4.07,2.68.43.11.75.11,1.07.11s.43.11.43.32c0,.32-.21.43-.64.43h-3.43c-2.04,0-3-.21-3.86-.75-1.61-.86-2.9-2.79-5.04-5.79-1.5-2.14-3.11-4.83-3.65-5.36-.21-.21-.43-.32-.64-.32l-3.22-.11c-.21,0-.32.11-.32.32v.54c0,3.65,0,6.76.21,8.36.11,1.18.32,2.04,1.39,2.14.54.11,1.39.11,1.82.11.32,0,.43.11.43.32,0,.32-.21.43-.75.43-2.14,0-4.83-.11-5.36-.11-.64,0-3,.11-4.4.11-.43,0-.75-.11-.75-.43,0-.21.11-.32.54-.32.54,0,.97-.11,1.29-.11.75-.11.86-.97,1.07-2.14.21-1.61.21-4.72.21-8.36v-6.97m4.4,3.11c0,.43.11.54.32.75.75.32,1.82.43,2.79.43,1.5,0,1.93-.11,2.57-.64,1.07-.86,2.14-2.68,2.14-5.9,0-5.58-3.43-7.18-5.58-7.18-.97,0-1.61,0-1.93.11-.21.11-.32.21-.32.54v11.9Z"></path><path class="cls-1" d="m527.4,182.36c0-5.9,0-7.08-.11-8.26-.11-1.29-.32-1.93-1.61-2.25-.32-.11-.86-.11-1.39-.11-.43,0-.64-.11-.64-.32,0-.32.21-.32.75-.32,1.93,0,4.18.11,5.25.11,1.18,0,3.43-.11,5.58-.11,4.5,0,10.62,0,14.58,4.5,1.82,2.04,3.54,5.25,3.54,9.97s-1.93,8.69-3.97,10.94c-1.72,1.82-5.47,4.61-12.22,4.61-2.68,0-5.9-.43-7.72-.43-.86,0-3.11.11-4.61.11-.43,0-.75-.11-.75-.43,0-.21.11-.32.54-.32.54,0,.97-.11,1.29-.11.75-.11.86-.97,1.07-2.14.21-1.61.21-4.72.21-8.36v-7.08m4.83,4.4c0,4.18,0,7.18.11,7.93,0,.97.11,2.57.43,3,.43.75,1.93,1.61,4.72,1.61,3.75,0,6.22-.75,8.36-2.79,2.36-2.14,3.11-5.68,3.11-9.76,0-4.93-1.93-8.15-3.54-9.76-3.32-3.43-7.51-3.97-10.29-3.97-.75,0-2.04.11-2.36.32-.32.11-.43.32-.43.75v12.65h-.11Z"></path><path class="cls-1" d="m563.36,200.16c-.54-.32-.64-.43-.64-1.29,0-2.14.11-4.5.21-5.15,0-.54.11-.97.43-.97s.32.32.32.64c0,.54.11,1.29.32,2.04.75,2.9,3,3.97,5.25,3.97,3.32,0,4.93-2.36,4.93-4.5,0-1.93-.54-3.75-3.54-6.22l-1.72-1.39c-3.97-3.32-5.36-6.11-5.36-9.33,0-4.29,3.32-7.4,8.36-7.4,2.36,0,3.86.43,4.83.64.32.11.54.21.54.43,0,.54-.11,1.61-.11,4.72,0,.86-.11,1.18-.43,1.18-.21,0-.32-.21-.32-.75,0-.32-.21-1.61-.97-2.57-.54-.75-1.61-1.93-3.97-1.93-2.68,0-4.29,1.72-4.29,4.07,0,1.82.86,3.22,3.86,5.68l1.07.86c4.4,3.65,6,6.22,6,9.97,0,2.25-.75,4.93-3.43,6.86-1.82,1.29-3.86,1.61-5.79,1.61-2.36-.11-3.97-.43-5.58-1.18"></path><path class="cls-1" d="m368.73,170.28c0-2.86,2.34-5.05,5.12-5.05s5.12,2.11,5.12,5.05-2.34,5.05-5.12,5.05c-2.79,0-5.12-2.11-5.12-5.05m5.12,4.22c2.26,0,4.07-1.81,4.07-4.22s-1.81-4.22-4.07-4.22-4.14,1.81-4.14,4.22c.08,2.41,1.88,4.22,4.14,4.22Zm-1.05-1.28h-.9v-5.8h2.18c1.36,0,2.03.53,2.03,1.66,0,1.05-.68,1.51-1.51,1.58l1.66,2.56h-.98l-1.51-2.56h-.98v2.56h0Zm1.05-3.31c.75,0,1.43-.08,1.43-.98,0-.75-.68-.83-1.28-.83h-1.21v1.81h1.05Z"></path><path class="cls-1" d="m88.8,235.03s-13.86-24.06-41.81-24.06-41.38,24.05-41.38,24.05c0,0,4.48,3,6.24,4.18,2.3,1.53,7.22,4.81,7.22,4.81,0,0,6.84-16.79,27.92-16.79s28.24,16.69,28.24,16.69l13.57-8.88Zm-68.64.07c-.73.82-1,1.37-1.18,1.55h-.27l-.09-.27c.09-.27.36-.46.36-.73.09-.36-.18-.64-.64-1l-3.46-3.01c-.18-.18-.36-.09-.64.18-.55.64-.82.91-.64,1.46.18.46.55.64.27.91h-.27c-.09-.09-.27-.36-.91-1-.27-.27-.36-.27-.09-.55.09-.09.82-.82,2.09-2.28,1.28-1.46,1.91-2.28,2-2.37.18-.18.27-.18.46,0,.64.46,1,.64,1,.73v.27c-.18.18-.36,0-.64-.09-.55-.18-.91,0-1.55.73-.36.36-.27.55,0,.82l3.28,2.82.09.09c.46.46.73.64,1.18.46.27-.09.46-.27.64-.36h.27l.09.27c-.09.18-.64.55-1.37,1.37Zm8.93-7.56c-.18.09-.64.36-1.28.82s-.91.82-1.18,1h-.27c-.18-.18.18-.46.18-.82,0-.27-.18-.55-.46-1l-.82-1.18c-.18-.27-.27-.27-.55-.09l-1.91,1.46c-.27.18-.27.27-.09.55l.91,1.28.09.09c.27.36.46.55.82.55s.64-.36.82-.09v.36c-.18.09-.64.36-1.28.82s-.91.82-1.18,1h-.27c-.18-.18.18-.46.18-.82,0-.27-.18-.55-.46-1l-2.46-3.19c-.27-.46-.55-.64-.82-.64s-.46.09-.64.18l-.18-.09v-.27c.09-.09.55-.27,1.18-.82.64-.46,1-.82,1.18-1h.27c.18.18-.18.36-.18.64-.09.27.09.46.36.82l.73,1c.18.27.27.27.55.09l1.91-1.46c.27-.18.27-.27.09-.55l-.64-.82c-.27-.46-.55-.64-.82-.64s-.46.09-.64.18l-.18-.09v-.27c.09-.09.46-.27,1.18-.82s1.09-.91,1.18-.91h.27c.18.18-.18.36-.18.64-.09.27.09.46.27.73l.09.18,2.46,3.28.09.09c.27.36.46.55.82.55s.64-.36.82-.09v.36Zm4.37-1.82c-.36.18-1.18.46-2.28.91-.73.36-1.18.64-1.46.82l-.27-.09c-.09-.27.27-.46.36-.73.09-.27-.09-.64-.27-1.09l-1.55-3.64c-.18-.46-.36-.73-.73-.82-.27-.09-.46,0-.64.09l-.18-.09c-.09-.09,0-.27.18-.36.09,0,.55-.18,1.28-.55,2-.91,3.1-1.55,3.28-1.64s.18,0,.36.18l.46.91.09.18q.09.18-.09.27c-.18.09-.27-.18-.46-.36-.46-.46-.91-.36-1.82.09-.64.27-.73.36-.46,1l.55,1.28c.18.46.27.36.82.18.46-.18.64-.46.73-.82,0-.27-.09-.55.09-.64.09-.09.18,0,.27.09.09.18.18.55.36.91.27.55.46.82.55,1,.09.09.09.18-.09.27-.27.09-.27-.18-.46-.36-.36-.27-.73-.27-1.37.09-.46.27-.46.36-.18.91l.55,1.28c.27.64.46.82.91.64.91-.36,1.37-1,1.64-1.73.09-.36,0-.55.18-.64.09-.09.18,0,.27.18.09.27.18.64.18,1-.09.64-.27,1-.82,1.28Zm50.19,9.56l-1,1.18,1.55-.36.18.27-1.46.91-.18-.18.91-.55s.27-.18.36-.27l-1.55.36-.09-.18,1-1.18c-.18.09-.36.18-.36.27l-.91.55-.09-.18,1.46-.91.18.27Zm-1.46-1.82l.09-.09.82,1.09-.09.18-.36-.55-1.28.91-.18-.18,1.28-.91-.27-.46Zm-41.17-9.93c-.55.09-1.09-.09-1.73-.09-.27,0-.36,0-.46-.27l-.36-1.28-.09-.27c0-.09.09-.18.18-.18.18,0,.18.27.64.73.64.64,1.28.91,2,.82.82-.18,1.28-.64,1.09-1.37,0-.27-.18-.46-.36-.64-.27-.27-.73-.27-1.28-.36-1.73-.36-2.46-.73-2.73-2-.18-1.28.55-2.37,1.73-2.55.91-.18,1.46.18,1.64.18s.36-.18.46-.18l.18.09v.36c.09.55.27,1,.36,1.28q0,.18-.09.18c-.27.09-.27-.27-.55-.64-.55-.64-1.18-.91-1.91-.82-.64.09-1.09.64-1,1.18.09.64.64.82,1.55,1,.73.09,1.37.27,1.73.55.55.36.82.91,1,1.55.27,1.46-.55,2.55-2,2.73Zm9.93-6.1c-.27,0-.27-.27-.36-.55-.27-.55-.64-.64-1.55-.64-.55,0-.64.09-.64.46l-.09,4.28v.09c0,.64,0,.91.46,1.18.27.18.46.18.73.18l.18.27c0,.18-.09.27-.18.27-.18,0-.82-.18-1.91-.18s-1.73.09-1.91.09c-.09,0-.18-.09-.18-.27,0-.09.09-.18.18-.27.27-.09.55-.09.82-.18.36-.18.36-.55.36-1.18l-.09-4.37c0-.27-.18-.36-.55-.36-.91,0-1.28,0-1.55.46-.27.36-.09.82-.46.82q-.18,0-.18-.18c0-.09.09-.46.18-1.37,0-.36,0-.46.36-.46.18,0,1.18.09,3.1.09h3.1c.27,0,.27.09.27.36.09.73.09,1.18.09,1.28q0,.18-.18.18Zm6.83.73v.27c0,.18-.09.18-.27.18s-.09-.27-.18-.55c-.09-.64-.55-.82-1.55-1-.73-.09-.82-.09-.91.55l-.27,1.37q-.09.46.55.55c.46.09.82,0,1.09-.27.18-.18.18-.46.46-.46.18,0,.18.09.18.27,0,.27-.18.55-.18.91-.09.64-.09,1-.09,1.09,0,.18-.09.18-.18.18-.27-.09-.09-.27-.18-.55-.09-.46-.46-.64-1.09-.73-.55-.09-.55,0-.73.64l-.27,1.37c-.18.73-.18.91.46,1.09.91.18,1.73,0,2.37-.46.27-.18.36-.46.55-.46.09,0,.18.09.18.27-.09.27-.18.64-.46.91-.46.46-.82.64-1.37.55-.46-.09-1.18-.36-2.46-.55-.82-.18-1.37-.18-1.64-.18l-.18-.27c.09-.27.46-.18.73-.36.18-.18.27-.55.36-1l.55-3.92c.09-.55.09-.82-.09-1.09-.18-.18-.36-.27-.55-.36l-.09-.18c0-.09.09-.18.27-.18.09,0,.55.18,1.37.36,2.19.46,3.37.55,3.55.64.18,0,.18.09.18.36l-.09,1Zm2.37,7.38c-.09-.09-.18-.18-.18-.46l-.18-6.38c0-.36,0-.64-.27-.91-.18-.18-.36-.27-.27-.46.09-.09.18-.18.36-.09.18.09.46.27.91.46.64.27,1.18.36,1.55.55.18.09.18.18.18.27-.09.09-.09.18-.27.18-.27,0-.46,0-.55.27,0,.09-.09.27-.09.64l.09,3.92.09.18.18-.09,2.55-2.55c.18-.18.36-.46.36-.55.09-.27,0-.55-.27-.82-.27-.18-.46-.27-.36-.46,0-.09.18-.18.27-.09.09,0,.46.27,1.09.46.46.18.82.27.91.27.18.09.18.18.09.27-.09.18-.27.18-.55.27s-.55.36-.91.73l-3.83,3.73c-.46.46-.73.73-.91.64Zm7.01,3.01l-.27.09c-.18-.09-.55-.46-1.18-.82-.64-.36-1.18-.55-1.37-.73l-.09-.27c.09-.18.46,0,.82-.09.27-.09.46-.46.73-.82l2-3.19c.27-.46.36-.73.27-1.09-.09-.27-.27-.36-.46-.46v-.27l.27-.09c.09,0,.46.36,1.28.82.64.36,1.09.55,1.28.64.18.09.18.18.09.27-.09.18-.36,0-.64,0-.27.09-.46.27-.64.64l-2.19,3.64-.09.09c-.18.36-.36.64-.18.91.18.27.55.46.36.73Zm6.28,3.19c-.18.18-.46.46-.82.55-.55.18-1,.18-1.46-.18-.36-.27-.91-.91-1.82-1.64-.64-.55-1.09-.82-1.28-.91v-.27c.18-.18.46.09.82,0,.27-.09.55-.27.82-.73l2.55-3.01c.36-.36.55-.73.46-1-.09-.27-.18-.36-.36-.55v-.27c.09-.09.18-.09.36,0,.09.09.36.36,1,.91,1.73,1.46,2.73,2.09,2.82,2.28.18.18.09.18,0,.36l-.64.82-.18.18c-.09.09-.18.18-.27,0-.18-.18,0-.27.18-.55.27-.64-.09-1-.91-1.64-.55-.46-.64-.46-1.09.09l-.91,1.09q-.27.36.18.82c.36.36.73.46,1.09.27.27-.09.46-.36.64-.18.09.09.09.18,0,.27-.18.18-.36.36-.64.73-.36.46-.55.82-.64.91l-.27.09c-.18-.18.09-.27.09-.64.09-.46-.09-.73-.64-1.18-.46-.36-.55-.27-.91.18l-.91,1.09c-.46.55-.55.73-.18,1.09.73.64,1.46.82,2.28.73.36-.09.55-.27.64-.09.09.09.09.18,0,.36Zm1.18,3.83c-.36-.46-.55-1-.82-1.55-.09-.18-.18-.27,0-.55l.73-1,.18-.27.27.09c.09.18-.09.36-.27.91-.27.82-.09,1.64.36,2.19.55.64,1.18.73,1.73.27.18-.18.36-.36.36-.64.09-.36-.18-.82-.36-1.28-.55-1.64-.64-2.46.36-3.37,1-.82,2.28-.73,3.1.18.55.73.55,1.37.73,1.55.18.18.36.18.46.27v.18c-.09.09-.18.09-.36.27-.46.36-.73.82-.91,1h-.27c-.18-.27.09-.36.27-.82.27-.82.18-1.55-.27-2.09s-1.09-.55-1.46-.27c-.55.46-.36.91-.09,1.82.27.73.46,1.28.46,1.82,0,.64-.27,1.18-.82,1.64-1.09.91-2.46.82-3.37-.36Z"></path><path class="cls-1" d="m52.41,229.22c.03,1.1.05,2.21,0,3.33-.18,3.75-1.36,12.92-1.56,15.09l10.74-15.21s-3.41-2.27-9.18-3.22Z"></path><path class="cls-1" d="m42.05,232.55c-.05-1.12-.03-2.21.01-3.3-5.85.96-9.66,3.18-9.66,3.18l11.2,15.07c-.16-2.39-1.38-11.27-1.56-14.95Z"></path><path class="cls-1" d="m37.15,181.68c.28,1.39,2.68,9.43,2.96,10.54.18.65.28,1.94.55,2.96.18.65,1.39,3.79,1.76,4.72.18.65,1.02,2.22,1.2,2.4.37.37.46.37.65-.09.09-.28.28-.83.37-1.29.09-.65-.09-1.02-.18-1.39-.28-1.11-.55-2.03-.37-3.7.28-2.5,2.77-2.87,2.77-2.87h.74s2.5.28,2.77,2.87c.18,1.66-.09,2.59-.37,3.7-.09.37-.28.74-.18,1.39.09.37.28,1.02.37,1.29.18.46.28.46.65.09.09-.18,1.02-1.85,1.2-2.4.37-.92,1.57-4.07,1.76-4.72.28-1.02.37-2.31.55-2.96.19-1.11,2.59-9.16,2.96-10.54.18-.65-.28-.74-.28-1.85,0-.83.83-1.48,1.66-2.13.05-.05.18-.16.33-.29h-23.64c.16.13.3.24.37.29.83.65,1.66,1.29,1.66,2.13,0,1.11-.46,1.11-.28,1.85Z"></path><path class="cls-1" d="m85.18,199.27c-.93-1.24-38.21-51.42-38.21-51.42,0,0-35.42,47.74-38.08,51.28-.37.49-.73.91-.22,1.5,2.09,2.77,12.23,16.47,12.23,16.47,0,0,7.31-5.65,19.45-7.3-.02-.1-.05-.19-.06-.29-.28-1.29-3.14-9.06-3.7-11.01-.28-1.02-.46-2.13-.46-2.87s-.28-2.31-.46-4.35c-.28-1.94-1.29-7.95-1.48-8.79s-.28-1.94-.92-2.96c-.65-1.02-1.2-1.94-1.57-2.59-.37-.46-.28-1.2-.18-1.57,0-.28.18-.46.18-.46.37-.18.83,0,1.2.37.07.09.25.26.48.47,3.41-5.01,13.45-19.78,13.56-19.92.11.18,10.54,15.54,13.72,20.23.44-.36.81-.67.91-.77.37-.37.83-.55,1.2-.37,0,0,.09.19.18.46.09.37.09,1.02-.18,1.57-.37.65-.92,1.57-1.57,2.59-.65,1.02-.74,2.13-.92,2.96s-1.29,6.75-1.48,8.79c-.28,2.03-.46,3.61-.46,4.35,0,.65-.18,1.76-.46,2.87-.55,1.85-3.42,9.62-3.7,11.01-.02.12-.06.23-.08.35,11.87,1.7,19.04,7.1,19.04,7.1,0,0,10.78-14.55,12.31-16.65.13-.24.24-.5-.26-1.05Z"></path><path class="cls-1" d="m94.43,236.4c-4.01-7.3-8.8-13.89-15.56-18.89,4.34-5.86,8.66-11.67,12.98-17.5-14.95-20.16-29.9-40.3-44.86-60.47,0,0,0,0,0,.01-.09.11-.13.17-.17.21-5.98,8.06-11.96,16.14-17.93,24.2-8.79,11.85-17.58,23.72-26.4,35.56-.27.37-.29.6-.01.96,2.75,3.68,5.5,7.37,8.24,11.07,1.51,2.04,3.03,4.09,4.57,6.17-6.65,4.96-11.36,11.48-15.28,18.67,6.91,4.6,13.81,9.19,20.73,13.8,0,0,0,0,.01,0,2.34-4.78,4.85-9.37,9.22-12.67,0,0,0,0,.01,0,5.67,7.64,11.32,15.27,17.01,22.92,0,0,0,0,0,.01,5.76-7.75,11.47-15.44,17.19-23.15,0,0,0,0,0,0,1.61,1.25,3.03,2.63,4.28,4.18,2,2.48,3.47,5.27,4.91,8.09.1.2.22.4.33.61,0,0,0,0,0,0,6.94-4.62,13.83-9.21,20.72-13.79Zm-22.92,4.37c-1.95-2.63-4.31-4.84-6.98-6.74-.31-.23-.49-.16-.71.13-3.49,4.74-16.87,22.73-16.87,22.73,0,0-15.54-20.93-16.69-22.5-.23-.31-.37-.39-.72-.13-4.19,2.99-7.42,6.81-9.72,11.4-.06.12-.13.24-.23.4-.49-.33-.98-.64-1.46-.96-4.7-3.12-14.47-9.61-14.45-9.65,5.23-10.35,14.86-16.78,14.86-16.78,0,0-3.54-4.8-5.32-7.2-2.62-3.53-5.24-7.07-7.86-10.61-.04-.05-.07-.11-.1-.17-.04-.03-.07-.07-.1-.1-.04-.06-.07-.12-.12-.18-.06-.14-.12-.29-.18-.43.08-.18.14-.38.26-.53,5.56-7.48,11.11-14.97,16.66-22.44,8.28-11.16,25.2-33.93,25.2-33.93,0,0,2.71,3.66,3.74,5.06,4.01,5.39,8.01,10.78,12.02,16.19,6.95,9.37,13.9,18.73,20.85,28.1,1.44,1.93,3.61,4.88,5.05,6.82.31.4.57.9-.11,1.69-2.67,3.59-5.34,7.19-8.01,10.78-1.66,2.26-3.33,4.51-4.99,6.77.01.03.02.05.02.08,10.85,7.8,15.18,16.91,15.18,16.91,0,0-10.62,7.07-15.97,10.63-.13-.31-.26-.56-.37-.82-.24-.44-.48-.88-.72-1.33-.71-1.07-1.39-2.16-2.15-3.18Z"></path></svg> 