<?xml version="1.0" encoding="UTF-8"?> <svg xmlns="http://www.w3.org/2000/svg" id="Layer_1" width="100" height="20.87" viewBox="0 0 100 20.87"><defs><style>.cls-1{fill:#3a357e;}</style></defs><path class="cls-1" d="m44.06,16.13v.54h-6.38v-.54c.13-.03.26-.06.4-.09.38-.09.61-.33.68-.71.06-.28.09-.57.1-.87.03-1.05.04-2.11.04-3.16,0-1.25.01-2.49-.01-3.75,0-.31-.07-.63-.16-.91-.19-.57-.67-.8-1.25-.66-.4.1-.7.34-.98.63-.41.44-.71.95-.95,1.48-.03.06-.03.13-.03.2,0,2.02,0,4.03.01,6.05,0,.3.04.58.1.88.09.48.38.77.87.87.03,0,.06.01.09.01s.06.01.09.01v.54h-6.17v-.54s.01-.01.01-.01c.73-.17,1-.7,1.04-1.38.01-.33.04-.66.04-.98,0-1.94.01-3.86,0-5.8,0-.44-.04-.9-.14-1.34-.16-.64-.66-.88-1.28-.68-.53.16-.9.53-1.24.94-.03.03-.04.06-.06.09-.4.48-.6,1-.58,1.65.04,1.94.01,3.87.01,5.81,0,.28.03.58.07.87.06.4.3.66.68.77.11.03.23.06.36.09v.54h-6.38v-.48s.06-.07.09-.09c.13-.06.27-.09.4-.14.47-.23.66-.64.73-1.12.03-.2.04-.41.04-.61v-7.93c0-.11,0-.23-.01-.34-.09-.6-.36-.9-.95-1.03-.07-.01-.16-.03-.24-.04v-.54h5.24v1.99c.2-.23.37-.43.54-.61.66-.68,1.4-1.25,2.34-1.48,1.04-.24,2.04-.17,2.92.53.6.47.9,1.12,1.11,1.84.01.07.04.13.07.23.06-.09.11-.14.16-.2.46-.61.95-1.21,1.57-1.68,1.05-.81,2.24-1.05,3.49-.57,1.22.48,1.95,1.44,2.14,2.72.11.78.16,1.58.17,2.38.03,1.74.01,3.47.01,5.21,0,.19.03.36.07.54.07.38.3.63.67.75.16.03.31.07.48.13Z"></path><path class="cls-1" d="m86.09,4.31v1.22h-2.58c.04.07.09.11.11.17.28.46.61.91.87,1.4.68,1.31.47,2.58-.33,3.76-.66.97-1.61,1.54-2.72,1.87-1.1.33-2.21.38-3.33.16-.09-.01-.17-.03-.26-.03-.57,0-1.12,0-1.69.03-.23,0-.33.11-.34.28-.01.2.09.33.3.36.16.03.31.04.47.04,1.64,0,3.28-.01,4.9,0,.93.01,1.84.1,2.72.43.87.33,1.52.87,1.75,1.81.2.81.13,1.61-.24,2.36-.47,1-1.31,1.59-2.29,2.02-1,.43-2.04.61-3.1.66-1.58.07-3.15.01-4.69-.43-.58-.17-1.12-.4-1.58-.81-.54-.48-.71-1.1-.53-1.79.09-.31.27-.57.54-.74.34-.21.71-.38,1.08-.58.06-.03.13-.06.16-.07-.26-.21-.53-.4-.75-.63-.68-.7-.78-1.89-.24-2.68.34-.48.83-.71,1.37-.87.14-.04.27-.07.44-.11-.13-.09-.24-.16-.34-.23-.7-.47-1.34-1.03-1.74-1.78-.75-1.48-.61-2.91.37-4.22.8-1.07,1.91-1.67,3.19-1.97,1.32-.3,2.61-.19,3.87.28.16.06.34.09.51.09,1.28.01,2.55,0,3.83,0,.13,0,.19,0,.27,0Zm-4.96,4.06c0-.31.01-.64,0-.95,0-.2-.03-.38-.06-.57-.07-.5-.19-1-.48-1.42-.57-.84-1.74-.87-2.31-.03-.2.3-.36.66-.44,1.01-.31,1.22-.28,2.48-.09,3.73.07.47.21.93.5,1.34.5.71,1.47.84,2.11.27.28-.27.44-.61.56-.98.2-.8.23-1.59.21-2.39Zm-1.55,8.29v.06c-.36,0-.71-.01-1.05,0-.36.01-.7.04-1.05.06-.37.03-.73.13-1.04.34-.63.41-.71,1.17-.21,1.72.3.34.7.53,1.11.67,1,.31,2.04.37,3.08.33.66-.03,1.31-.13,1.92-.36.5-.19.97-.43,1.25-.93.33-.57.17-1.15-.43-1.42-.3-.14-.64-.24-.97-.27-.87-.09-1.74-.13-2.61-.2Z"></path><path class="cls-1" d="m50.26,20.36v.48h-7.36v-.5c.1-.01.2-.03.31-.04.83-.14,1.22-.56,1.31-1.41.03-.21.04-.44.04-.67V6.95c0-.1,0-.2-.01-.28-.1-.73-.44-1.04-1.28-1.14-.04,0-.09-.01-.13-.01v-.53c1.78-.37,3.56-.74,5.37-1.11v1.69s.03.01.03.01c.09-.1.16-.2.24-.28.47-.54.98-1,1.67-1.24,1.03-.34,1.97-.16,2.83.44.91.63,1.51,1.5,1.89,2.51.95,2.51.88,4.98-.38,7.38-.48.9-1.15,1.65-2.08,2.11-1.1.53-2.19.57-3.23-.13-.31-.21-.56-.53-.84-.8-.04-.04-.07-.09-.13-.16,0,.07-.01.11-.01.16,0,1.05,0,2.09.01,3.15,0,.24.04.47.09.71.09.4.34.67.74.77.31.06.61.1.93.17Zm-1.74-9.48h0c0,.9,0,1.79-.01,2.69,0,.27.07.48.21.7.27.38.56.75,1,.95.61.3,1.2.11,1.54-.46.2-.34.3-.71.33-1.08.07-.64.11-1.3.14-1.94.06-1.37.06-2.73-.14-4.09-.07-.48-.19-.95-.46-1.37-.16-.23-.36-.38-.63-.44-.57-.14-1.14.09-1.51.61-.33.46-.47.98-.47,1.54-.01.95,0,1.91,0,2.88Z"></path><path class="cls-1" d="m92.55,16.68h-6.15v-.53s.04-.07.07-.07c.63-.1.84-.54.9-1.11.03-.3.06-.6.06-.9v-7.53c0-.16-.01-.31-.03-.46-.07-.51-.38-.84-.87-1.01-.23-.09-.33-.2-.28-.44.01-.09,0-.19,0-.28h5.2v1.77s.04.03.06.04c.03-.04.04-.09.07-.13.5-.57,1.01-1.12,1.68-1.52,1.25-.74,2.55-.77,3.83-.04.73.41,1.11,1.11,1.37,1.88.28.84.37,1.69.37,2.58v5.44c0,.27.04.54.09.81.1.48.41.75.87.88.07.01.14.03.23.06v.58h-6.28v-.51s.04-.1.09-.11c.68-.24.88-.78.9-1.44,0-.3-.03-.6-.03-.88v-6.35c0-.27-.03-.56-.11-.83-.17-.63-.71-.88-1.32-.66-.48.17-.83.53-1.14.9q-.67.81-.67,1.85v5.58c0,.26.03.51.07.77.09.51.37.87.85,1.03.13.04.17.11.16.24.03.11.04.24.04.4Z"></path><path class="cls-1" d="m68.41,14.88c-.64,1.01-1.44,1.77-2.66,1.95-.88.13-1.72.03-2.42-.58-.41-.37-.64-.84-.8-1.37-.01-.03-.01-.06-.04-.11-.23.19-.46.36-.68.53-.64.48-1.3.93-2.04,1.22-.71.28-1.44.38-2.19.17-1.12-.33-1.88-1.28-1.95-2.49-.06-1.12.34-2.06,1.11-2.88.78-.83,1.74-1.42,2.73-1.97.98-.53,2.02-.97,3.08-1.32.06-.01.13-.07.13-.11-.01-.58,0-1.17-.06-1.74-.07-.71-.53-1.14-1.2-1.3-.67-.16-1.32-.09-1.92.3-.14.1-.27.24-.37.38-.16.23-.16.48,0,.73.11.19.24.36.38.51.67.7.41,1.54-.09,1.99-.68.61-1.48.78-2.34.46-.74-.28-1.07-.91-1.1-1.68-.04-.88.36-1.58.97-2.16.84-.8,1.87-1.22,2.99-1.45,1.45-.3,2.91-.27,4.33.19.38.13.74.31,1.1.51.71.43,1.08,1.1,1.15,1.91.04.43.06.87.07,1.3v5.58c0,.36.03.71.07,1.05.06.4.26.58.57.53.13-.01.26-.11.37-.19.1-.07.17-.19.28-.3.19.11.34.23.51.34Zm-5.91-6s-.06,0-.09.01c-.14.07-.28.13-.43.2-1.2.64-2.08,1.55-2.44,2.91-.16.61-.2,1.24.04,1.85.27.7.88.98,1.61.77.43-.13.78-.37,1.14-.64.13-.1.17-.2.17-.36v-4.54c-.01-.07-.01-.14-.01-.2Z"></path><path class="cls-1" d="m18.09,14.78c-.36.27-.7.56-1.05.81-.63.46-1.28.87-2.04,1.08-.74.21-1.48.23-2.18-.11-1.08-.53-1.55-1.42-1.55-2.59s.56-2.18,1.44-2.98c.97-.88,2.08-1.51,3.25-2.05.73-.33,1.48-.6,2.22-.91.04-.01.11-.09.11-.13,0-.56.01-1.11-.04-1.67-.06-.71-.46-1.15-1.15-1.32-.58-.16-1.17-.11-1.71.14-.21.1-.4.26-.56.43-.23.27-.23.6-.03.88.11.16.23.31.36.46.63.73.36,1.57-.14,1.99-.68.6-1.47.75-2.31.44-.66-.24-1.08-.91-1.11-1.64-.03-1,.43-1.75,1.15-2.36.77-.67,1.69-1.04,2.68-1.27,1.54-.34,3.06-.31,4.56.19.36.11.68.3,1.01.48.74.46,1.11,1.12,1.17,1.99.01.37.04.73.04,1.1v5.67c0,.38.04.75.1,1.14.09.6.67.6.97.27.09-.1.19-.19.28-.3.14.11.3.23.44.34-.66,1.08-1.52,1.82-2.81,1.97-.54.06-1.08.03-1.59-.19-.8-.31-1.22-.94-1.47-1.74,0-.01-.01-.07-.04-.13Zm0-5.88h-.07c-.14.06-.28.13-.41.2-1.18.63-2.06,1.54-2.45,2.86-.17.61-.21,1.24.01,1.85.28.74.93,1.05,1.68.8.41-.14.77-.38,1.11-.66.1-.07.14-.16.14-.28v-4.57c-.01-.09-.01-.14-.01-.2Z"></path><path class="cls-1" d="m10.67,13.27c.16.17.3.34.44.51-.34.5-.71.95-1.14,1.37-.8.78-1.72,1.35-2.82,1.58-1.92.38-3.69.04-5.18-1.27-1.04-.9-1.64-2.06-1.85-3.42-.37-2.19.13-4.19,1.57-5.91,1.3-1.52,2.96-2.35,5-2.32,1.44.01,2.73.48,3.77,1.51.56.56.9,1.21.94,2.02.04.87-.5,1.69-1.31,1.92-.88.24-1.77-.14-2.18-.94-.28-.54-.37-1.12-.41-1.71-.03-.28-.04-.57-.1-.84-.13-.61-.51-.88-1.14-.85-.68.03-1.17.4-1.55.93-.46.63-.7,1.35-.78,2.12-.19,1.64.07,3.2.91,4.66.43.74.98,1.34,1.75,1.72.93.44,1.84.4,2.72-.1.43-.24.83-.57,1.24-.85.01-.04.07-.09.13-.13Z"></path><path class="cls-1" d="m67.26,4.97v-.64h5.48v10.03c0,.17.01.34.04.51.11.68.43,1.01,1.1,1.17q.31.07.31.38v.24h-6.59v-.54s.04-.06.07-.07c.88-.26,1.11-.94,1.11-1.75v-7.72c0-.14-.01-.3-.04-.44-.06-.54-.37-.87-.88-1.01-.19-.04-.38-.1-.6-.16Z"></path><path class="cls-1" d="m72.73,2.02c0,1.11-.88,1.98-1.98,1.98s-1.95-.87-1.95-1.98.85-2.02,1.98-2.02c1.08.01,1.95.91,1.95,2.02Z"></path></svg> 