<?xml version="1.0" encoding="UTF-8"?> <svg xmlns="http://www.w3.org/2000/svg" xmlns:xlink="http://www.w3.org/1999/xlink" id="Layer_1" width="599.76" height="400.32" viewBox="0 0 599.76 400.32"><defs><style>.cls-1{fill:url(#linear-gradient);}.cls-2{fill:#fff;}.cls-3{fill:url(#linear-gradient-2);}</style><linearGradient id="linear-gradient" x1="403.07" y1="1845.61" x2="403.07" y2="1952.84" gradientTransform="translate(-26.07 -1724.89)" gradientUnits="userSpaceOnUse"><stop offset=".41" stop-color="#f29040"></stop><stop offset=".75" stop-color="#ee693c"></stop><stop offset="1" stop-color="#cd3a27"></stop></linearGradient><linearGradient id="linear-gradient-2" x1="326.26" y1="1964.22" x2="326.26" y2="1866.2" gradientTransform="translate(-26.07 -1724.89)" gradientUnits="userSpaceOnUse"><stop offset="0" stop-color="#17a5df"></stop><stop offset=".17" stop-color="#17a5df"></stop><stop offset=".93" stop-color="#244291"></stop><stop offset="1" stop-color="#244291"></stop></linearGradient></defs><path class="cls-2" d="m497.94,157.66H101.82c-14.82,0-26.94,11.73-26.94,26.07v32.88c0,14.34,12.12,26.07,26.94,26.07h396.13c14.89,0,26.94-11.73,26.94-26.07v-32.88c0-14.34-12.04-26.07-26.94-26.07h0Z"></path><path class="cls-2" d="m522.27,216.6c0,12.76-10.77,23.13-24.01,23.13H102.13c-13.23-.08-24.01-10.38-24.01-23.13v-32.88c0-12.76,10.77-23.13,24.01-23.13h396.13c13.23,0,24.01,10.38,24.01,23.13v32.88Z"></path><path class="cls-2" d="m498.26,160.59H102.13c-13.23,0-24.01,10.38-24.01,23.13v32.88c0,12.76,10.77,23.13,24.01,23.13h396.13c13.23,0,24.01-10.38,24.01-23.13v-32.88c0-12.76-10.77-23.13-24.01-23.13Zm20.44,56.01c0,10.85-9.19,19.73-20.44,19.73H102.13c-11.33-.08-20.52-8.87-20.52-19.73v-32.88c0-10.85,9.19-19.73,20.52-19.73h396.13c11.25,0,20.44,8.79,20.44,19.73v32.88Z"></path><path class="cls-2" d="m495.73,167H238.56v66.55h257.17c10.85,0,19.73-7.21,19.73-18.06v-30.42c-.08-10.77-8.95-18.06-19.73-18.06Z"></path><path class="cls-1" d="m495.73,167H238.56v66.55h257.17c10.85,0,19.73-7.21,19.73-18.06v-30.42c-.08-10.77-8.95-18.06-19.73-18.06Z"></path><path class="cls-2" d="m158.78,172.79c-15.05.24-27.1,12.6-26.86,27.65.24,15.05,12.6,27.1,27.65,26.86,14.89-.24,26.86-12.36,26.86-27.25-.08-15.13-12.52-27.33-27.65-27.25h0Zm4.75,38.35c-.08,2.69-2.38,4.75-5.07,4.67-2.54-.08-4.6-2.22-4.67-4.75v-22.9c0-2.69,2.14-4.91,4.83-4.99,2.69.08,4.91,2.3,4.99,4.99l-.08,22.98Z"></path><polygon class="cls-2" points="227.07 172.79 209.72 172.79 203.23 183.96 196.49 172.79 179.14 172.79 194.67 198.77 178.51 226.66 195.54 226.66 203.3 213.35 211.31 226.66 228.74 226.66 211.94 198.62 227.07 172.79"></polygon><polygon class="cls-2" points="112.99 187.44 131.84 187.44 130.81 172.71 97.06 172.71 97.06 226.74 112.83 226.74 112.83 209.23 128.36 209.23 128.36 194.5 112.99 194.5 112.99 187.44"></polygon><path class="cls-3" d="m498.26,160.59H102.13c-13.23,0-24.01,10.38-24.01,23.13v32.88c0,12.76,10.77,23.13,24.01,23.13h396.13c13.23,0,24.01-10.38,24.01-23.13v-32.88c0-12.76-10.77-23.13-24.01-23.13Zm20.44,56.01c0,10.85-9.19,19.73-20.44,19.73H102.13c-11.33-.08-20.52-8.87-20.52-19.73v-32.88c0-10.85,9.19-19.73,20.52-19.73h396.13c11.25,0,20.44,8.79,20.44,19.73v32.88Zm-359.92-43.81c-15.05.24-27.1,12.6-26.86,27.65.24,15.05,12.6,27.1,27.65,26.86,14.89-.24,26.86-12.36,26.86-27.25-.08-15.13-12.52-27.33-27.65-27.25h0Zm4.75,38.35c-.08,2.69-2.38,4.75-5.07,4.67-2.54-.08-4.6-2.22-4.67-4.75v-22.9c0-2.69,2.14-4.91,4.83-4.99,2.69.08,4.91,2.3,4.99,4.99l-.08,22.98Zm48.41-12.52l16.8,28.05h-17.43l-7.92-13.31-7.76,13.31h-17.03l16.08-27.89-15.53-26.07h17.35l6.73,11.25,6.5-11.25h17.35l-15.13,25.91Zm-98.95-4.12h15.37v14.74h-15.53v17.51h-15.77v-54.03h33.75l1.03,14.82h-18.86v6.97Z"></path><path class="cls-2" d="m288,206.46l4.12-31.53h13.07l-10.06,49.44h-12.91l-4.99-30.98-3.96,30.98h-12.99l-11.01-49.44h13.23l4.36,30.9,4.67-30.9h11.49l4.99,31.53Zm20.04,17.98h24.8v-11.88h-11.49v-7.61h10.3v-11.17h-10.3v-7.21h11.49v-11.65h-24.8v49.52Zm55.7-49.52l10.46,49.44h-13.79l-1.03-6.26h-9.03l-1.11,6.26h-13.79l11.88-49.44h16.4Zm-11.57,32.64h5.63l-2.54-20.76-3.09,20.76Zm18.22-20.76h7.37v37.63h13.39v-37.63h7.68v-11.88h-28.36v11.88h-.08Zm51.73,5.63h-6.34v-17.51h-13.39v49.44h13.39v-19.81h6.34v19.89h13.31v-49.52h-13.39l.08,17.51Zm16.95,32.01h24.8v-11.88h-11.49v-7.61h10.3v-11.17h-10.3v-7.21h11.49v-11.65h-24.8v49.52Zm41.67-20.6l.08,3.25v17.27h-13.31v-49.44h13.71c6.02,0,10.54,1.19,13.55,3.57,3.8,3.01,5.7,7.37,5.7,12.91,0,5.94-2.54,10.14-7.68,12.36l9.9,20.6h-14.42l-7.53-20.52Zm6.42-12.2c0-3.72-1.9-5.55-5.78-5.55h-.48v11.8h.87c1.51,0,2.93-.63,3.88-1.74,1.03-1.27,1.58-2.85,1.51-4.52Z"></path></svg> 