<?xml version="1.0" encoding="UTF-8"?> <svg xmlns="http://www.w3.org/2000/svg" id="Layer_1" width="600" height="400" viewBox="0 0 600 400"><defs><style>.cls-1{fill:#fff;}</style></defs><path class="cls-1" d="m223.8,229.86c-47.24,0-43.01-60.95-2.71-60.95h24.04v-17.61h-24.89c-14.9,0-27.26,5.25-36.06,14.9-7.79,8.8-12.19,20.49-12.19,33.02,0,32.85,25.9,47.75,49.95,47.75h41.31c2.71,0,4.91-2.2,4.91-4.91v-85.5c0-4.23,2.2-7.62,5.59-8.63s7.11.17,9.31,3.39l.17.17c11.51,19.3,58.07,93.46,58.58,94.31,1.02,1.35,2.54,2.03,3.72,1.69,1.35-.51,2.2-2.03,2.2-4.4v-86.35c0-4.23,2.2-7.62,5.59-8.63,3.39-1.02,7.11.17,9.31,3.39l.17.17c11.68,19.3,57.9,93.46,58.41,94.31,1.02,1.35,2.54,2.03,3.89,1.69,1.35-.51,2.37-2.03,2.37-4.4v-113.95h-17.44v66.2s-10.33-18.12-28.44-49.1c-17.95-30.31-51.3-17.78-51.3,8.3v40.8s-10.33-18.12-28.44-49.1c-17.95-30.31-51.3-17.78-51.3,8.3v70.26c0,2.37-2.03,4.57-4.74,4.91h-22.01Z"></path><path class="cls-1" d="m431.88,129.29v113.61c0,4.23-2.03,7.45-5.42,8.63-.51.17-1.19.34-2.03.34-2.54,0-5.08-1.35-6.77-3.72-.51-.85-46.73-75-58.41-94.31-1.19-1.52-2.88-2.2-4.4-1.69s-2.54,2.2-2.54,4.4v86.35c0,4.23-2.03,7.45-5.25,8.63-3.22,1.02-6.6-.34-8.8-3.39-.51-.85-47.07-75-58.58-94.31-1.19-1.52-2.88-2.2-4.4-1.69-1.52.51-2.54,2.2-2.54,4.4v85.67c0,5.25-4.06,9.31-9.31,9.31h-41.48c-37.42,0-54.52-27.09-54.52-52.15,0-13.71,4.74-26.41,13.38-36.06,9.65-10.84,23.36-16.42,39.45-16.42h24.89v-17.61h-21.84c-98.37,0-97.52,140.19,1.35,140.19h38.77c16.76,0,27.43-9.65,27.43-27.94v-35.56s21.67,36.23,30.14,50.12c14.56,23.87,49.61,19.13,49.27-10.67v-39.45s22.01,36.23,30.48,50.12c14.22,23.87,49.27,19.13,49.27-10.67v-116.15h-18.12Z"></path></svg> 