<?xml version="1.0" encoding="UTF-8"?> <svg xmlns="http://www.w3.org/2000/svg" id="Layer_1" width="100" height="65.5" viewBox="0 0 100 65.5"><defs><style>.cls-1{fill:#3a357e;}</style></defs><path class="cls-1" d="m8.08,43.79l.7,1.23-4.01,2.28c-.33-.53-.56-.9-.68-1.11-.24-.42-.33-.79-.29-1.13.04-.34.23-.6.56-.79.32-.18.66-.16,1.04.08-.11-.6.11-1.05.65-1.36.37-.21.73-.23,1.1-.08.37.15.68.45.93.88Zm-3.15,2.47l.96-.55c-.06-.11-.12-.23-.19-.35-.26-.46-.57-.6-.92-.4-.31.18-.34.47-.1.9.06.11.15.24.25.4Zm1.52-.86l1.33-.75c-.07-.15-.13-.27-.18-.36-.18-.32-.37-.52-.55-.6-.19-.08-.41-.05-.66.09-.23.13-.36.29-.38.48-.03.19.05.45.24.79.04.07.11.19.21.35Z"></path><path class="cls-1" d="m2.7,43.49l-.29-.76,2.92-1.13c.23-.09.39-.23.48-.43.09-.2.09-.42,0-.67-.11-.28-.26-.46-.46-.56-.2-.1-.43-.1-.67,0l-2.9,1.12-.29-.76,2.96-1.14c.44-.17.85-.16,1.21.04.37.2.64.55.83,1.04.19.5.22.93.08,1.3s-.44.64-.9.81l-2.96,1.14Z"></path><path class="cls-1" d="m5.59,37.9l-4.5,1.02-.18-.8,3.79-.86-.46-2.03.71-.16.64,2.83Z"></path><path class="cls-1" d="m4.89,34.58l-4.6.43-.08-.82,3.87-.36-.19-2.08.72-.07.27,2.89Z"></path><path class="cls-1" d="m4.65,30.19l-.05,1.02-4.61-.22c0-.65.02-1.06.02-1.23.03-.67.25-1.19.67-1.57.41-.37.94-.55,1.59-.52,1.66.08,2.45.92,2.37,2.51Zm-3.9.02l3.15.15c.02-.13.03-.27.04-.43.02-.41-.12-.74-.4-.99-.29-.25-.7-.38-1.24-.41-.99-.05-1.5.39-1.54,1.31,0,.09,0,.21,0,.38Z"></path><path class="cls-1" d="m2.49,27.02c-.64-.13-1.15-.42-1.52-.87-.37-.44-.5-.96-.38-1.55.13-.65.44-1.1.91-1.36s1.08-.31,1.8-.16c.73.15,1.27.45,1.62.9.35.45.46,1,.33,1.66-.13.61-.43,1.03-.92,1.26-.49.24-1.1.28-1.84.13Zm.17-.83c.53.11.96.1,1.28-.01.33-.12.53-.35.6-.69.08-.4,0-.74-.24-1.01-.24-.27-.63-.46-1.17-.57-1.06-.22-1.67.06-1.83.84-.07.36.01.66.26.91.25.25.61.43,1.1.53Z"></path><path class="cls-1" d="m3.03,18.36l.49.56c-.11.06-.25.17-.4.33-.15.16-.25.3-.3.44-.16.42-.15.81.05,1.17.19.35.53.62,1.01.81.46.18.87.19,1.24.06.37-.14.63-.41.79-.82.1-.27.12-.53.03-.76l-.85-.32-.23.6-.65-.25.52-1.36,1.93.74c.08.24.11.52.08.84-.03.32-.09.62-.2.91-.24.62-.63,1.03-1.17,1.24-.54.21-1.15.18-1.81-.07-.67-.25-1.13-.66-1.4-1.21s-.27-1.16-.02-1.83c.18-.47.48-.82.88-1.05Z"></path><path class="cls-1" d="m7.22,15.98l1.42.93-.45.68-3.85-2.54c.28-.47.45-.74.5-.82.4-.61.79-.99,1.16-1.15.37-.16.76-.11,1.15.15.88.58.98,1.39.3,2.44-.05.08-.12.18-.22.3Zm-1.84-1.21l1.23.81c.09-.11.15-.19.2-.26.21-.31.3-.57.29-.79,0-.21-.13-.4-.37-.55-.4-.26-.81-.07-1.24.57-.05.07-.09.14-.12.22Z"></path><path class="cls-1" d="m11.93,12.67l-2.24-.34c-.08.09-.2.22-.36.37l1.44,1.28-.56.64-3.46-3.06s.14-.17.33-.41.35-.43.48-.58c.78-.88,1.5-1.02,2.18-.42.2.18.34.41.4.68.06.27.05.53-.05.77l2.46.35-.63.71Zm-4.08-1.27l.96.85c.11-.11.19-.19.24-.25.23-.26.36-.48.39-.66.03-.18-.06-.37-.27-.55-.17-.15-.35-.19-.53-.12-.18.07-.39.24-.63.51-.06.07-.11.14-.17.22Z"></path><path class="cls-1" d="m15.99,9.23l-.83-.55-1.26.95.3.94-.73.55-1.34-4.85.29-.22,4.29,2.63-.72.54Zm-2.87-1.93l.58,1.7.89-.67-1.47-1.03Z"></path><path class="cls-1" d="m19.97,7.03l-.3.16-2.24-2.11.48,3.03-.3.16-3.51-3.45.76-.4,2.06,2.07-.46-2.9.32-.17,2.12,2.03-.52-2.87.76-.4.84,4.84Z"></path><path class="cls-1" d="m23.8,5.57l-.61-.78-1.5.49-.02.99-.87.28.3-5.02.34-.11,3.22,3.87-.86.28Zm-2.09-2.75v1.79s1.06-.34,1.06-.34l-1.06-1.45Z"></path><path class="cls-1" d="m27.53,4.82l-1.53-1.67c-.12.02-.29.04-.52.07l.32,1.9-.84.14-.77-4.55s.22-.05.52-.11c.3-.07.55-.12.73-.15,1.16-.2,1.81.15,1.96,1.05.05.27,0,.53-.11.78-.12.25-.3.44-.52.57l1.69,1.82-.93.16Zm-2.38-3.55l.22,1.26c.15-.01.27-.03.34-.04.34-.06.58-.15.72-.27.14-.12.19-.32.14-.6-.04-.22-.15-.37-.33-.43-.18-.06-.45-.06-.81,0-.09.01-.18.04-.27.07Z"></path><path class="cls-1" d="m29.69,4.65l-1.02.02-.1-4.61c.65-.04,1.06-.06,1.23-.06.67-.01,1.21.17,1.61.56s.61.9.62,1.55c.04,1.66-.75,2.51-2.34,2.54Zm-.29-3.89l.07,3.15c.13,0,.28.01.43,0,.41,0,.73-.17.96-.47.23-.31.34-.73.32-1.27-.02-.99-.49-1.47-1.41-1.45-.09,0-.21.01-.37.03Z"></path><path class="cls-1" d="m32.44,4.39l.38-.7c.3.26.6.41.91.45.48.05.74-.09.77-.42.02-.16-.02-.31-.12-.47s-.31-.34-.64-.56c-.33-.22-.55-.39-.66-.52-.11-.13-.19-.27-.24-.44-.05-.16-.06-.34-.04-.53.04-.35.2-.63.49-.84.29-.2.63-.28,1.04-.24.53.06.91.2,1.13.43l-.33.67c-.26-.24-.55-.37-.87-.41-.19-.02-.34.01-.45.1-.11.09-.18.21-.2.37-.03.26.23.57.78.92.29.19.49.35.62.49.12.14.21.3.26.48s.07.37.04.57c-.04.37-.22.66-.54.87-.32.21-.73.28-1.22.23-.43-.05-.8-.2-1.12-.46Z"></path><path class="cls-1" d="m65.62,27.23v-1.05l2.02-3.81c.1-.19.16-.36.18-.5.01-.14.02-.32.02-.53,0-.09,0-.2,0-.3,0-.11-.02-.2-.06-.28-.04-.08-.09-.15-.16-.2s-.18-.08-.32-.08c-.17,0-.3.05-.4.14-.1.1-.15.23-.15.42v.64h-1.12v-.61c0-.23.04-.45.13-.66.09-.2.21-.38.36-.54.15-.15.32-.28.53-.37.2-.09.42-.14.66-.14.29,0,.54.05.75.16.21.11.38.25.52.43.13.18.23.39.29.63.06.23.09.48.09.75,0,.19,0,.35-.01.48,0,.13-.02.25-.04.37-.02.12-.06.23-.11.35s-.12.26-.21.43l-1.65,3.17h2.02v1.12h-3.33Z"></path><path class="cls-1" d="m69.97,21.04c0-.26.05-.5.14-.7.09-.2.21-.38.37-.53.15-.15.33-.26.53-.33.2-.08.41-.12.63-.12s.43.04.63.12c.2.08.38.19.53.33.15.15.28.32.37.53.09.2.14.44.14.7v4.58c0,.26-.05.5-.14.7-.09.2-.21.38-.37.53-.15.15-.33.26-.53.33-.2.08-.41.12-.63.12s-.43-.04-.63-.12c-.2-.08-.38-.19-.53-.33-.15-.15-.28-.32-.37-.53-.09-.2-.14-.44-.14-.7v-4.58Zm1.12,4.58c0,.16.05.29.15.4.1.11.23.16.39.16s.29-.05.39-.16c.1-.11.15-.24.15-.4v-4.58c0-.16-.05-.29-.15-.4-.1-.11-.23-.16-.39-.16s-.29.05-.39.16c-.1.11-.15.24-.15.4v4.58Z"></path><path class="cls-1" d="m74.33,27.23v-1.05l2.02-3.81c.1-.19.16-.36.18-.5.01-.14.02-.32.02-.53,0-.09,0-.2,0-.3,0-.11-.02-.2-.06-.28-.04-.08-.09-.15-.16-.2s-.18-.08-.32-.08c-.17,0-.3.05-.4.14-.1.1-.15.23-.15.42v.64h-1.12v-.61c0-.23.04-.45.13-.66.09-.2.21-.38.36-.54.15-.15.32-.28.53-.37.2-.09.42-.14.66-.14.29,0,.54.05.75.16.21.11.38.25.52.43.13.18.23.39.29.63.06.23.09.48.09.75,0,.19,0,.35-.01.48,0,.13-.02.25-.04.37-.02.12-.06.23-.11.35s-.12.26-.21.43l-1.65,3.17h2.02v1.12h-3.33Z"></path><path class="cls-1" d="m80.01,22.72c.34,0,.57-.04.7-.12.13-.08.19-.27.19-.56v-1.01c0-.16-.05-.29-.15-.39-.1-.1-.23-.15-.4-.15-.2,0-.34.06-.42.19-.08.12-.13.25-.13.36v.64h-1.12v-.65c0-.23.04-.44.13-.65.09-.2.21-.38.36-.53.15-.15.33-.26.54-.35.2-.09.42-.13.66-.13.31,0,.56.06.76.18.2.12.35.24.46.37.07.09.14.18.19.26s.1.19.14.32c.07.24.1.6.1,1.07,0,.27,0,.49-.02.66-.01.17-.04.31-.08.42-.05.12-.12.22-.21.3-.09.08-.22.17-.38.26.18.11.31.21.4.31.09.1.16.2.2.33.04.13.07.29.08.47,0,.18.01.41.01.69,0,.26,0,.47-.02.64-.01.17-.03.31-.05.42-.02.12-.05.22-.09.3-.04.08-.08.16-.14.25-.14.2-.32.37-.53.51-.22.14-.5.2-.85.2-.18,0-.36-.03-.56-.09-.2-.06-.38-.15-.54-.29-.16-.13-.29-.3-.4-.52-.11-.21-.16-.47-.16-.78v-.64h1.12v.58c0,.18.05.32.15.43.1.11.23.17.4.17s.3-.06.4-.17c.1-.11.15-.27.15-.46v-1.12c0-.31-.06-.51-.18-.6-.07-.06-.16-.1-.27-.11-.11-.01-.26-.02-.44-.02v-.99Z"></path><path class="cls-1" d="m71.45,38.29l-1.14,7.66h-1.03l-.84-4.97h-.02l-.83,4.97h-1.03l-1.14-7.66h1.16l.55,4.86h.02l.86-4.86h.84l.89,4.98h.02l.53-4.98h1.16Z"></path><path class="cls-1" d="m72.32,45.94v-7.66h1.1v7.66h-1.1Z"></path><path class="cls-1" d="m74.59,45.94v-7.66h1.05l1.66,4.61h.02v-4.61h1.1v7.66h-1.03l-1.68-4.6h-.02v4.6h-1.1Z"></path><path class="cls-1" d="m79.51,45.94v-7.66h1.05l1.66,4.61h.02v-4.61h1.1v7.66h-1.03l-1.68-4.6h-.02v4.6h-1.1Z"></path><path class="cls-1" d="m84.48,45.94v-7.66h3.27v1.03h-2.17v2.25h1.89v1.03h-1.89v2.25h2.17v1.1h-3.27Z"></path><path class="cls-1" d="m88.61,45.94v-7.66h1.76c1.29,0,1.94.75,1.94,2.25,0,.45-.07.84-.21,1.15s-.39.57-.74.76l1.18,3.49h-1.16l-1.02-3.27h-.66v3.27h-1.1Zm1.1-6.62v2.39h.62c.19,0,.35-.03.46-.08s.2-.13.27-.23c.06-.1.1-.22.12-.37.02-.15.03-.32.03-.51s-.01-.36-.03-.51c-.02-.15-.06-.27-.13-.38-.14-.2-.39-.3-.77-.3h-.57Z"></path><path class="cls-1" d="m67.69,36.15h-2.07v-6.76c.91-.04,1.55-.06,1.92-.06.7,0,1.25.15,1.65.45.4.3.59.73.59,1.29s-.28.96-.85,1.27c.84.29,1.26.9,1.26,1.81,0,.62-.23,1.11-.7,1.47-.47.36-1.07.54-1.8.54Zm-.87-5.8v1.62c.18.01.38.02.58.02.78,0,1.17-.29,1.17-.88,0-.52-.36-.78-1.07-.78-.19,0-.42,0-.69.02Zm0,2.56v2.24c.24.02.44.03.59.03.54,0,.92-.09,1.17-.27.24-.18.36-.48.36-.91,0-.38-.11-.67-.34-.84-.22-.18-.62-.26-1.18-.26-.12,0-.32,0-.61.01Z"></path><path class="cls-1" d="m75.15,36.15l-1.81-2.8c-.18,0-.44-.01-.76-.03v2.83h-1.25v-6.77c.07,0,.33-.01.78-.03s.82-.03,1.09-.03c1.72,0,2.58.67,2.58,2,0,.4-.12.77-.36,1.09-.24.33-.54.56-.9.7l2,3.05h-1.39Zm-2.57-5.72v1.88c.22.02.39.03.51.03.5,0,.87-.07,1.1-.21.23-.14.35-.42.35-.83,0-.33-.12-.57-.37-.7-.25-.13-.64-.2-1.18-.2-.13,0-.27,0-.41.03Z"></path><path class="cls-1" d="m76.86,32.71c0-.96.26-1.78.79-2.45.53-.67,1.23-1,2.12-1,.97,0,1.72.3,2.23.91.51.6.77,1.45.77,2.54s-.27,1.96-.81,2.6c-.54.64-1.3.96-2.29.96-.91,0-1.61-.32-2.09-.95-.49-.63-.73-1.5-.73-2.61Zm1.25,0c0,.79.13,1.4.4,1.84s.66.65,1.17.65c.6,0,1.06-.21,1.37-.64.32-.43.47-1.04.47-1.85,0-1.59-.59-2.38-1.76-2.38-.54,0-.95.21-1.23.64s-.43,1.01-.43,1.73Z"></path><path class="cls-1" d="m88.35,36.24l-3.28-4.28v4.2h-1.16v-6.77h.58l3.2,4.08v-4.08h1.16v6.86h-.49Z"></path><path class="cls-1" d="m89.98,36.15v-.39l2.82-5.31h-2.78v-1.07h4.41v.39l-2.83,5.31h2.93v1.07h-4.56Z"></path><path class="cls-1" d="m96.88,30.45v1.58h2.24v1.02h-2.24v2.03h3.07v1.07h-4.27v-6.77h4.32v1.07h-3.12Z"></path><path class="cls-1" d="m48.29,14.2c0,.41.29.71.7.71.55,0,1.01-.4,1.01-.89,0-.42-.29-.71-.71-.7-.52,0-.99.42-1,.89Z"></path><path class="cls-1" d="m48.53,13.13c.5,0,1-.54,1.01-1.07,0-.47-.35-.83-.8-.82-.49,0-.95.54-.95,1.08,0,.45.33.82.74.81Z"></path><path class="cls-1" d="m46.59,11.93c.45,0,.85-.45.85-.96,0-.51-.39-.98-.83-.98-.48,0-.87.43-.86.97,0,.52.39.97.84.97Z"></path><path class="cls-1" d="m55.73,37.44c-.14-.11-.26-.21-.36-.28,0-.08.01-.56,0-.63,0-.12.24-.18.35-.21.7-.18,1.38-.26,2.04-.54.87-.37,1.68-.85,2.37-1.5,1.01-.95,1.74-2.89,1.15-4.6-.31-.89-.8-1.66-1.42-2.35-.85-.95-1.85-1.72-2.92-2.39-1.39-.87-2.82-1.67-4.29-2.38-.3-.14-.3-.41-.26-.64.06-.37.38-3.88.38-3.89.06-.7-.46-.99-.46-.99,0,0-1.21-.73-1.26-.84-.06-.14.04-.29.11-.4.55-.82,1.31-1.49,2.03-2.16.24-.22.5-.41.74-.63.26-.24.33-.52.21-.85-.06-.15-.13-.29-.23-.42-.16-.21-.33-.4-.52-.58-.82-.79-1.71-1.5-2.64-2.16-1.7-1.18-3.42-2.33-5.23-3.33-.49-.27-.99-.49-1.52-.66-.45-.14-.81-.01-1.11.32-.04.05-.08.1-.12.15-.52.68-.91,1.43-1.28,2.2-.34.72-.63,1.46-.88,2.22-.06.18-.07.19-.24.13-.14-.05-.28-.11-.43-.15-1.47-.45-2.87-1.05-4.23-1.77-.32-.17-.63-.34-.95-.5-.55-.27-1.12-.42-1.73-.21-.17.06-.33.13-.49.21-.81.4-1.58.87-2.38,1.3-.98.53-1.93,1.12-2.91,1.66-.75.41-1.45.88-2.07,1.48-.77.74-1.35,1.59-1.79,2.56-.23.51-.46,1.03-.7,1.54-.2.42-.4.84-.55,1.28-.07.2-.18.3-.39.35-1.15.28-2.25.7-3.33,1.18-.36.16-.73.3-1.08.47-.43.2-.83.46-1.23.71-1.06.65-2.02,1.43-2.86,2.34-.64.7-1.11,1.49-1.33,2.42-.18.74-.14,1.45.16,2.15.24.55.6,1.01,1.03,1.43.23.23.49.42.74.62.15.11.15.14.01.27-.73.71-.94,1.58-.75,2.56.11.57.34,1.09.59,1.61.13.27.26.53.4.79.06.11.05.18-.07.24-.03.01-.06.03-.09.05-.99.59-1.81,1.35-2.39,2.34-.57.96-.82,2-.76,3.11.04.81.21,1.6.39,2.38.13.55.25,1.1.29,1.66.07,1.14-.04,2.27-.29,3.39-.27,1.21-.58,2.42-.69,3.66-.06.69-.07,1.38.03,2.06.21,1.43.81,2.68,1.81,3.73,1.17,1.24,2.61,1.92,4.32,2.01.27.01.54,0,.81-.01.12,0,.2.04.27.13.83,1.06,1.79,1.97,2.86,2.79,14.17,9.3,28.72-2.25,29.62-2.94.11-.08.21-.13.34-.1.59.1,1.18.08,1.77.03,6.01-.6,7.7-8.44,7.7-8.45,1.12-5.97-2.17-10.48-3.4-12.05-.26-.33-.56-.63-.84-.94Zm-14.58-22.34c.73-6,1.76-7.31,2.36-8.2.13-.19.25-.3.47-.25.69.15,1.58.71,2.32,1.12.99.55,1.91,1.19,2.82,1.86.79.59,1.56,1.2,2.29,1.86.36.32.69.68,1.01,1.04.13.15.13.18,0,.29-.87.74-1.58,1.61-2.17,2.58-.56.92-1.09,1.85-1.42,2.88-.02.05-.03.1-.05.15-.07.21-.1.23-.31.12-.34-.17-.66-.36-1-.52-1.95-.93-3.97-1.78-6-2.53-.36-.11-.37-.28-.35-.41Zm-6.4-3.28c.38.48.86.95,1.47,1.16-.48.35-1.05.29-1.38-.05-.33-.34-.18-.76-.09-1.11Zm-7.97,1.08c.76-.57,1.47-.95,2.32-1.36.67-.32,1.83-1.23,2.13-1.27.15-.02-.09.65-.11.72-.29.91-.45,1.43-.77,2.33-.02.05-.04.1-.06.15-.03.1-.1.14-.2.14-.93,0-1.96.19-1.96.19,0,0,.88-.91,1.05-1.67.02-.08-.05-.12-.12-.07-.05.03-.09.08-.14.12-.54.51-1.21,1.07-1.61,1.39-.15.12-.49.32-.82.46s-.81.23-1.22.35c.08-.15.22-.32.32-.42.39-.41.73-.71,1.18-1.05Zm-3.34,4.64c.14-.39.68-1.47.68-1.47.41-1.48,5.29-1.68,5.31-1.68,11.73-.59,21.51,6.55,21.51,6.55,0,0-.04,1.47-.05,1.46-11.14-5.59-19.65-5.67-19.67-5.67-5.06,0-7.33,1.09-7.53,1.17-.2.08-.39.03-.25-.37Zm-9.75,8.26c-.02.09-.05.17-.12.25-.09-.1-.07-.22-.06-.33.16-.91.55-1.71,1.17-2.4,4.97-5.46,14.1-5.56,14.1-5.56,7.18-.26,14.18,2.53,14.16,2.53,6.99,2.4,11.08,4.67,13.35,6.32,1.62,1.18,2.32,2.09,2.46,2.25.4.47.86,1.29.84,2.31,0,.35-.05.69-.15,1.03-.01.05-.19.64-.36.52-.17-.12-.05-.59-.06-1.08-.01-.67-.39-1.35-.89-2.01-.71-.92-1.59-1.67-2.52-2.36-1.52-1.12-3.17-2.02-4.87-2.83-1.72-.82-11.68-5.89-22.1-5.35-.65.03-10.56.18-14.3,5.46-.28.38-.53.79-.65,1.25Zm19.41,37.69c-.73-.03-12.28-.75-15.66-11.75,0,0-1.79-5.99,1.95-8.1,0-.01,2.63-1.73,9.11-1.76.03,0-.53-.29-.87-.36-1.13-.23-2.27-.29-3.42-.23-1.67.08-3.31.33-4.93.72-.61.15-1.21.34-1.82.45-.66.12-1.31.15-1.97.03-.18-.03-.34-.11-.49-.21-.55-.37-.58-1.09-.06-1.51.32-.26.69-.45,1.06-.64.85-.43,1.75-.72,2.68-.91,7.35-1.59,16.43,1.53,16.43,1.53,7.63,2.72,7.82,5.58,7.96,8.14.09,1.06.32,3.17.32,3.18.44,4.01,4.45,6.05,4.45,6.05,0,0-6.72,5.39-14.73,5.39Zm-16.17-27.78c.06.03.2-.21.26-.32.35-.62,1.03-.93,1.23-1,.15-.05.52,0,.65.11.18.15.28.42.47.55.32.23.65.32,1.05.38.08.01.1.06.09.13,0,.02,0,.04,0,.05-.21.69.07,2.44.07,2.44,0,0-.78.04-1.07.07-.99.08-1.93.38-2.86.68-.77.25-1.5.58-2.17,1.04-.03.02-.06.04-.09.05-.15.08-.17.07-.23-.09-.32-.83-.35-1.64.02-2.44.29-.63.64-1.2,1.19-1.71.34-.32.91-.69,1.35-.82.16-.04.26.02.15.4-.05.16-.16.45-.09.48Zm16.58,0c.21.13.21.14.09.35-.55.94-1.15,1.83-1.93,2.61-.14.14-.26.18-.45.13-1.51-.36-3.03-.7-4.57-.92-1.25-.18-2.51-.25-3.78-.15-.32.03-.92.06-1.24.1-.19.03-.44-2.55-.44-2.55,1.01-.37,2.6-2.18,2.61-2.18,5.95-.13,8.87,2.09,9.7,2.61Zm-3.74-4.48c.2-.14.82-.45,1.04-.56,2.43-1.26,4.25-1.06,4.21-.98-.25.44-.75,1.22-1.14,1.55-.62.51-1.31.73-2.12.64-.52-.06-1.19-.21-1.69-.36-.09-.03-.19-.06-.28-.1-.12-.05-.13-.11-.02-.19Zm3.94,6.28c.32-.53.65-1.06.88-1.66.11.06.13.17.17.26.23.65.39,1.32.49,2,.06.42.11.85.13,1.28,0,.06,0,.12.01.19,0,.31,0,.32-.29.23-.29-.1-.57-.2-.86-.29-.45-.15-.9-.28-1.37-.37-.07-.01-.14-.03-.21-.1.36-.5.73-1.01,1.05-1.54Zm23.67,15.42c-.44.8-2.54,4.16-5.89,3.86-2.73-.31-6.01-1.22-6.58-7.63,0,0-.1-5.58-6.19-7.86-.72-.32-1.44-.64-2.16-.95-.16-.07-.22-.16-.23-.34-.03-.51-.06-1.02-.13-1.52-.06-.43-.09-.87-.18-1.3-.15-.73-.31-1.45-.65-2.12-.16-.31-.35-.6-.59-.86-.13-.14-.2-.13-.29.05-.12.24-.23.48-.35.73-.1.21-.12.23-.32.11-.38-.23-.77-.42-1.17-.6-.26-.12-.52-.24-.78-.35-.07-.03-.15-.05-.21-.15.15,0,.28.01.42.06.19.06.39.06.58.1.06.01.13,0,.16-.07.03-.06,0-.11-.04-.15-.06-.08-.13-.15-.2-.22-.03-.03-.06-.07-.05-.12.02-.06.07-.08.13-.08.2,0,.39,0,.59.02.62.06,1.23.06,1.85,0,.33-.03.66-.05.99-.11.47-.08.87-.31,1.29-.53.44-.23.84-.52,1.19-.86.52-.5.92-1.09,1.16-1.78.12-.35.17-.38.48-.16.43.3.81.65,1.02,1.15.04.09.11.22.23.19.11-.04.11-.18.1-.28-.04-.43-.12-.85-.22-1.27-.25-.98-.73-1.82-1.44-2.54-.39-.4-.8-.77-1.31-1.01-.5-.23-1.03-.36-1.58-.37-.46,0-.91-.03-1.37.04-.77.11-1.5.34-2.21.64-1.16.49-2.23,1.13-3.28,1.83-1.12.75-2.22,1.51-3.34,2.25-.68.45-1.38.86-2.17,1.11-.54.17-1.09.23-1.64.19-.57-.04-1.06-.54-1.16-1.17-.02-.14-.02-.3-.03-.42s-.13,0-.17.08c-.28.48-.35.93-.2,1.46.03.09.06.19.08.28.03.13,0,.17-.13.18-.4.04-1,.07-1.22-.03-.22-.1-.3-.56-.8-.93-.23-.17-.09-.95-.17-.95-.07,0-.22.25-.32.48-.07.16-.17.32-.3.32-.21,0-.43-.02-.64.02-.75.14-1.33.55-1.79,1.15-.11.14-.21.16-.31.3-.05.06-.07.11-.04.13.05.05.17-.03.23-.08.07-.06.18-.13.35-.09.08.02.22.12.28.2.26.35.67.3.91.31.06,0,.32-.02.42,0,.13.03.07.12-.08.24,0,0-.38.3-.56.73-.07.16-.18.23-.33.28-.25.07-1.93.56-3,2.59-.53,1-.55,2.1-.11,3.18.05.11.12.22.18.33.1.19.1.19-.04.34-.19.2-.37.41-.5.66-.28.52-.24,1.02.06,1.5.31.52.75.91,1.28,1.2.12.07.16.13.13.27-.11.51-.17,1.04-.25,1.56-.12.74-.09,1.48-.1,2.22,0,.69.11,1.37.23,2.05.14.82.31,1.63.52,2.44.37,1.39.85,2.73,1.53,4,.09.17.2.32.3.5-.19.08-.36.02-.51-.04-.86-.33-1.66-.77-2.31-1.44-.89-.92-1.65-1.85-1.98-3.1-.16-.63-.16-1.35-.11-2,.06-.84.24-1.75.43-2.57.17-.76.22-1.52.32-2.29.11-.84.05-1.6.02-2.44-.02-.41-.09-1.25-.28-1.9-1.38-4.85,2.74-7.03,2.97-7.03s.38-.04.39-.1-.3-.1-.42-.09-.13,0-.14-.04c-.02-.04-.04-.17-.04-.25,0,0,0,0,0,0,.01-.25-.05-.56-.25-.95-.34-.82-.49-.97-.7-1.46-.69-1.58.69-2.13,1.1-2.22,1.19-.2,3.36-.24,3.36-.24,0,0,1.94.02,2.74-.95,0,0,.05-.07.02-.1-.07-.06-.13,0-.19.02-.3.14-.73.23-.74.23-.58.15-.4-.35-.4-.35.36-1.48,1.77-2.53,1.79-2.54,2.5-2.13,7.86-2.14,8.44-2.11.14,0,.5-.02.5-.02,0,0-1.06.74-1.39.98-.9.66-1.65,1.43-2.54,2.11-.64.49-1.23.85-1.98,1.14-.08.03-.17.05-.25.08-.04.02-.07.05-.06.11.01.06.05.07.09.07.04,0,.07,0,.11,0,.47-.05.96-.15,1.4-.34.62-.28,1.11-.56,1.64-.96.91-.68,1.83-1.35,2.72-2.05.53-.41,1.07-.92,1.65-1.27.65-.39,1.33-.71,2.09-.79.48-.05.97-.05,1.45,0,1.38.18,2.66.81,3.87,1.46.91.49,1.8,1.04,2.68,1.59.36.23.73.45,1.08.7.01.01.03.02.04.03.1.03.21.14.3.05.09-.1-.03-.19-.09-.27-.14-.2-.28-.39-.43-.58-.05-.06-.1-.12-.12-.19.06.01.12.02.17.04.91.39,1.86.68,2.79,1.05.73.29,1.44.64,2.13,1.02.54.29,1.08.61,1.61.92.2.12.36.26.49.45.76,1.09,1.38,2.26,1.92,3.47.28.63.56,1.26.72,1.93.13.53.2,1.07.26,1.61.04.36.04.71.05,1.09-.23-.11-.37-.28-.55-.42-.85-.67-1.75-1.27-2.69-1.81-.97-.55-1.98-1-3.04-1.33-.74-.23-1.5-.41-2.27-.52-.23-.03-.46-.02-.69-.03-.06,0-.12.01-.12.08,0,.06.06.08.11.09.58.1,1.11.33,1.66.52,6.15,2.54,10.17,7.53,10.75,8.45,3.67,4.96,1,10.29.59,11.03Z"></path><path class="cls-1" d="m44.17,12.36c.52.14,1.04-.32,1.04-.92,0-.59-.46-1.07-.95-.99-.39.06-.68.43-.71.89-.03.48.23.91.62,1.02Z"></path><path class="cls-1" d="m43.98,14.93c.42.19.86.24,1.31.18.28-.04.48.06.63.3.26.43.66.66,1.15.76.71.14,1.08-.18,1.07-1.02-.06-.68-.23-1.45-.66-2.14-.29-.46-.7-.66-1.25-.57-.57.1-1.14.23-1.69.4-.38.12-.69.33-.93.65-.41.55-.25,1.15.38,1.43Z"></path></svg> 