<?xml version="1.0" encoding="UTF-8"?> <svg xmlns="http://www.w3.org/2000/svg" id="Layer_1" width="599.76" height="400.32" viewBox="0 0 599.76 400.32"><defs><style>.cls-1{fill:#b09c6f;}.cls-2{fill:#05a6c1;}</style></defs><path class="cls-2" d="m502.84,183.13c-.34.04-.68.08-1.02.12-.08,0-.15.02-.23.03-.35.01-.71.04-1.06.04-15.69,0-31.37,0-47.06,0-.21,0-.41,0-.67,0-.02-.18-.05-.33-.05-.49,0-2.63.01-5.26.02-7.88,0-.1,0-.21,0-.31,0-.28.16-.41.43-.43.15,0,.29,0,.44,0,14.96,0,29.91,0,44.87,0,.58,0,1.16-.03,1.73-.13,1.1-.18,1.65-.95,1.77-1.98.07-.63.04-1.31-.12-1.92-.24-.9-.9-1.42-1.85-1.53-.2-.02-.39-.03-.59-.05-.13,0-.27,0-.4,0-.03-.03-.07-.03-.1,0-.13,0-.27,0-.4,0-.03-.03-.07-.03-.1,0-.13,0-.26,0-.4,0-.04-.03-.07-.03-.11,0-.13,0-.26,0-.39,0-.04-.03-.07-.03-.11,0-.13,0-.26,0-.39,0-.04-.03-.07-.03-.11,0-.13,0-.26,0-.39,0-.04-.03-.07-.03-.11,0-.13,0-.26,0-.39,0-.04-.03-.07-.03-.11,0-.13,0-.26,0-.39,0-.04-.03-.07-.03-.11,0-.13,0-.26,0-.39,0-.04-.03-.07-.03-.11,0-.13,0-.26,0-.39,0-.04-.03-.07-.03-.11,0-.13,0-.26,0-.39,0-.04-.03-.07-.03-.11,0-.13,0-.26,0-.39,0-.04-.03-.07-.03-.11,0-.13,0-.26,0-.39,0-.04-.03-.07-.03-.11,0-.13,0-.26,0-.39,0-.04-.03-.08-.03-.11,0-.13,0-.26,0-.39,0-.04-.03-.08-.03-.11,0-.13,0-.26,0-.39,0-.04-.03-.08-.03-.11,0-.13,0-.26,0-.39,0-.04-.03-.08-.03-.11,0-.13,0-.26,0-.39,0-.04-.03-.08-.03-.11,0-.13,0-.26,0-.39,0-.04-.03-.08-.03-.11,0h-.39s-.08-.03-.11,0c-.13,0-.26,0-.39,0-.04-.03-.08-.03-.11,0-.13,0-.26,0-.39,0-.04-.03-.08-.03-.11,0-.13,0-.26,0-.39,0-.04-.03-.08-.03-.11,0h-.39s-.08-.03-.11,0c-.13,0-.26,0-.39,0-.04-.03-.08-.03-.11,0-.13,0-.26,0-.39,0-.04-.03-.08-.03-.11,0-.13,0-.26,0-.39,0-.04-.03-.08-.03-.11,0-.13,0-.26,0-.39,0-.04-.03-.08-.03-.11,0-.13,0-.26,0-.39,0-.04-.03-.08-.03-.11,0-.13,0-.26,0-.39,0-.04-.03-.08-.03-.11,0-.13,0-.26,0-.39,0-.04-.03-.08-.03-.11,0-.13,0-.26,0-.39,0-.04-.03-.08-.03-.11,0-.13,0-.26,0-.39,0-.04-.03-.08-.03-.11,0-.13,0-.26,0-.39,0-.04-.03-.08-.03-.11,0-.13,0-.26,0-.39,0-.04-.03-.08-.03-.11,0-.13,0-.26,0-.39,0-.04-.03-.08-.03-.11,0-.13,0-.26,0-.39,0-.04-.03-.08-.03-.11,0-.13,0-.26,0-.39,0-.04-.03-.08-.03-.11,0-.13,0-.26,0-.39,0-.04-.03-.08-.03-.11,0-.13,0-.26,0-.39,0-.04-.03-.08-.03-.11,0h-.39s-.08-.03-.11,0c-.13,0-.26,0-.39,0-.04-.03-.08-.03-.11,0-.13,0-.26,0-.39,0-.04-.03-.08-.03-.11,0-.13,0-.26,0-.39,0-.04-.03-.08-.03-.11,0-.13,0-.26,0-.39,0-.04-.03-.08-.03-.11,0-.13,0-.26,0-.39,0-.04-.03-.08-.03-.11,0-.13,0-.26,0-.39,0-.04-.03-.08-.03-.11,0h-.39s-.08-.03-.11,0h-.39s-.08-.03-.11,0c-.13,0-.26,0-.39,0-.04-.03-.08-.03-.11,0-.13,0-.26,0-.39,0-.04-.03-.08-.03-.11,0-.13,0-.26,0-.39,0-.04-.03-.08-.03-.11,0-.13,0-.26,0-.39,0-.04-.03-.07-.03-.11,0-.13,0-.26,0-.39,0-.04-.03-.07-.03-.11,0-.13,0-.26,0-.39,0-.04-.03-.07-.03-.11,0-.13,0-.26,0-.39,0-.04-.03-.07-.03-.11,0h-.39s-.07-.03-.11,0c-.13,0-.26,0-.39,0-.04-.03-.07-.03-.11,0-.13,0-.26,0-.39,0-.04-.03-.07-.03-.11,0-.13,0-.26,0-.39,0-.04-.03-.07-.03-.11,0-.13,0-.26,0-.4,0-.03-.03-.07-.03-.11,0-.13,0-.26,0-.4,0-.03-.03-.07-.03-.1,0-.13,0-.26,0-.4,0-.03-.03-.07-.03-.1,0-.13,0-.26,0-.4,0-.03-.03-.07-.03-.1,0-.13,0-.26,0-.4,0-.03-.03-.07-.03-.1,0-.13,0-.27,0-.4,0-.03-.03-.07-.03-.1,0-.76-.02-1.53-.05-2.29-.07-.03,0-.05,0-.08-.01-2.41-.17-4.73-.67-6.9-1.76-1.79-.9-3.41-2.04-4.65-3.61-1.09-1.37-1.98-2.89-2.2-4.68-.11-.88-.17-1.76-.09-2.67.3-3.37,2.09-5.85,4.64-7.87,1.96-1.55,4.22-2.43,6.66-2.93,1.25-.26,2.5-.35,3.78-.35,12.89.01,25.78.01,38.67.01,2.52,0,5.05-.01,7.57-.02.13,0,.25,0,.38,0,.27,0,.43.14.44.42,0,.15,0,.29,0,.44,0,2.57,0,5.13,0,7.7,0,.12-.03.24-.05.43-.23.01-.45.04-.67.04-4.57,0-9.14,0-13.7,0-10.51,0-21.03,0-31.54.01-.56,0-1.12.11-1.66.21-.75.15-1.26.6-1.53,1.32-.28.76-.39,1.53-.14,2.32.4,1.26,1.11,1.72,2.39,1.84.52.05,1.04.02,1.56.02,10.97,0,21.95,0,32.92,0,2.76,0,5.4.6,7.91,1.73,2.23,1,4.07,2.49,5.41,4.57.67,1.04,1.12,2.17,1.38,3.38.51,2.32.26,4.57-.7,6.71-.37.82-.97,1.55-1.52,2.28-1.53,2.03-3.63,3.26-5.98,4.12-1.09.4-2.2.77-3.36.91-.07.01-.15.03-.22.04Z"></path><path class="cls-2" d="m167.88,168.6c-.1.03-.2.05-.34.09v5.48c15,.05,29.96.03,44.91,0,.13.5.17,8.21.05,9.1h-57.76v-38.41c.21-.27.49-.22.75-.22,3.92,0,53.23,0,56.19,0,.27,0,.53.03.82.05.02.17.05.29.05.41,0,2.69,0,5.38,0,8.07,0,.22.12.53-.27.58-.28-.02-.57-.04-.85-.06-.44,0-.87-.01-1.31-.01-13.23,0-26.46,0-39.7,0-.73,0-1.45,0-2.18.01-.21.01-.42.03-.63.04-.04.07-.11.13-.12.2,0,1.79,0,3.58,0,5.46,3.52.02,42.19,0,42.19,0,0,0,.01,5.94,0,8.67,0,.17,0,.51,0,.51l-41.81.02"></path><path class="cls-2" d="m347.63,183.13c-.6.05-1.19.09-1.79.14-.03,0-.05,0-.08,0-.31.01-.62.03-.94.03-11.04,0-22.07,0-33.11,0-3,0-5.93-.47-8.72-1.61-2.64-1.09-4.96-2.63-6.65-4.99-.84-1.16-1.48-2.41-1.76-3.82-.12-.59-.16-1.2-.17-1.8-.01-4.71-.06-9.43.01-14.14.05-3.24,1.46-5.88,3.98-7.92,2.56-2.07,5.5-3.28,8.71-3.93,1.58-.32,3.16-.46,4.77-.46,10.68.01,21.36.01,32.04.03,2.02,0,4.03.12,6.01.59,2.99.72,5.76,1.89,8.1,3.94,1.66,1.45,2.83,3.2,3.36,5.35l.05.19c.06.6.17,1.2.17,1.8.01,4.94,0,9.89,0,14.83,0,.39-.05.79-.08,1.18-.03.03-.04.06-.02.1-.2,1.69-.99,3.1-1.98,4.44-1.18,1.6-2.77,2.67-4.48,3.62-2.15,1.19-4.45,1.92-6.86,2.34-.12.02-.25.03-.37.04-.07.01-.15.03-.22.04Zm-37.04-29.25c-.61.18-1.25.3-1.83.56-.79.35-1.26,1.01-1.43,1.85-.09.42-.13.86-.14,1.29,0,4.39,0,8.78,0,13.16,0,.23.03.46.04.68.02.07.04.14.06.21.29,1.05,1,1.69,2,2.05,1.32.47,2.68.53,4.06.53,9.51,0,19.02-.01,28.53-.02.88,0,1.75.02,2.63-.02.87-.04,1.73-.22,2.55-.54,1.02-.4,1.85-1.36,1.81-2.66-.04-1.25-.01-2.5-.01-3.75,0-3.46,0-6.92,0-10.38,0-1.05-.45-1.85-1.36-2.36-.38-.21-.8-.35-1.21-.46-1.28-.33-2.59-.34-3.9-.36-2.23-.03-4.46-.02-6.69,0-8.09.06-16.18-.14-24.26.11-.27.03-.54.07-.82.1Z"></path><path class="cls-2" d="m427.24,170.61c-.87.06-1.74.17-2.61.18-13.06.01-26.12,0-39.18,0-.25,0-.49,0-.81,0-.03.24-.08.44-.08.63,0,3.88,0,7.76,0,11.64,0,.06-.02.12-.03.21h-12.72v-38.52c.26,0,.52-.02.78-.02,6.82-.03,13.64-.06,20.46-.07,10.51-.01,21.03,0,31.54,0,2.63,0,5.19.41,7.55,1.6,2.9,1.46,5.23,3.55,6.53,6.61.6,1.41.92,2.88.96,4.42.04,1.49-.12,2.94-.59,4.37-.42,1.24-1.06,2.35-1.85,3.37-1.85,2.4-4.22,4.04-7.13,4.9-.85.25-1.73.43-2.6.64-.07.01-.15.03-.22.04Zm-42.65-8.96c.33,0,.58,0,.83,0,12.7,0,25.4.01,38.11.02.21,0,.42.01.63-.01.78-.1,1.55-.27,1.99-.99.26-.44.46-.93.58-1.43.25-1.05.19-2.12-.03-3.16-.23-1.09-.85-2.11-2.16-2.29-.43-.06-.87-.11-1.3-.11-12.72,0-25.45,0-38.17,0-.16,0-.32.03-.48.04v7.94Z"></path><path class="cls-2" d="m128.35,153.88c-.1-.02-.2-.04-.3-.06-.02-.02-.04-.03-.06-.02-2.91-.25-5.83-.12-8.75-.12-10.43-.02-20.86,0-31.29,0-.83,0-1.67,0-2.5,0-.16,0-.32-.02-.52-.03v-8.89c.25-.01.5-.03.74-.03,9.68-.02,19.35-.05,29.03-.07,4.01,0,8.01,0,12.02,0,1.02,0,2.05-.02,3.06.1,1.92.23,3.8.62,5.63,1.3,1.49.56,2.92,1.21,4.2,2.16,1.24.92,2.4,1.95,3.23,3.27,1.02,1.62,1.55,3.38,1.55,5.31-.02,4.82,0,9.64-.02,14.46,0,1.83-.51,3.51-1.53,5.06-1.32,2.01-3.08,3.48-5.23,4.5-.83.39-1.65.78-2.49,1.14-1.45.61-2.98.89-4.52,1.14-.08.01-.15.02-.23.03-.38.03-.76.07-1.15.1-.04,0-.07,0-.11.01-.4.02-.79.05-1.19.05-14.12,0-28.24,0-42.36,0-.19,0-.37,0-.65,0,0-.3,0-.58,0-.86.03-5.59.08-11.18.09-16.76,0-1.98-.06-3.96-.09-5.94,0-.27,0-.53,0-.82h12.71c.11.66.04,1.28.05,1.9.01.65,0,1.29,0,1.94,0,.63,0,1.25,0,1.88,0,.63,0,1.25,0,1.88,0,.63,0,1.25,0,1.88,0,.65,0,1.29,0,1.94,0,.63,0,1.25,0,1.88,0,.62,0,1.24,0,1.92.32.02.56.04.8.04,5.57.01,11.14.02,16.71.03,3.75,0,7.51.02,11.26.03,1,0,1.99-.11,2.95-.43,1.05-.34,1.83-.97,2.11-2.1.05-.2.07-.41.07-.61,0-4.63,0-9.26,0-13.89,0-.27,0-.55-.03-.81-.16-1.04-.79-1.72-1.74-2.11-.44-.18-.91-.26-1.37-.39-.02,0-.03,0-.05,0Z"></path><path class="cls-2" d="m219.78,144.7c.92-.04,1.7.04,2.47.04.77,0,1.54,0,2.32,0,.79,0,1.59,0,2.38-.02.77-.02,1.54-.06,2.31-.07.79-.01,1.59,0,2.38,0,.77,0,1.54,0,2.4,0,3.17,4.3,15.73,21.8,18.91,26.23.26-.36.5-.66.73-.98,1.48-2.06,16.94-23.95,17.59-24.91.18-.27.44-.36.75-.35.48,0,.96,0,1.44,0,3.88,0,7.76,0,11.64-.01.18,0,.36,0,.63,0-.09.21-.12.36-.19.46-1.6,2.23-23.65,33.14-25.65,35.94-.42.59-.84,1.19-1.25,1.79-.23.34-.51.49-.94.49-3.21-.02-6.43-.02-9.64,0-.45,0-.74-.15-.99-.51-1.81-2.52-25.78-35.88-26.85-37.37-.13-.18-.23-.39-.43-.74Z"></path><path class="cls-1" d="m211.43,153.69c.28.02.57.04.85.06-.28-.02-.57-.04-.85-.06Z"></path><path class="cls-1" d="m167.62,153.73c.21-.01.42-.03.63-.04-.21.01-.42.03-.63.04Z"></path><path class="cls-1" d="m499.47,168.58c.2.02.39.03.59.05-.2-.02-.39-.03-.59-.05Z"></path><path class="cls-1" d="m167.88,168.6c.12,0,.24,0,.36,0-.12,0-.24,0-.36,0Z"></path><path class="cls-1" d="m347.63,183.13c.07-.01.15-.03.22-.04-.07.01-.15.03-.22.04Z"></path><path class="cls-1" d="m361.46,154.74l-.05-.19.05.19Z"></path><path class="cls-1" d="m502.84,183.13c.07-.01.15-.03.22-.04-.07.01-.15.03-.22.04Z"></path><path class="cls-1" d="m130.33,183.14c.08-.01.15-.02.23-.03-.08.01-.15.02-.23.03Z"></path><path class="cls-1" d="m427.24,170.61c.07-.01.15-.03.22-.04-.07.01-.15.03-.22.04Z"></path><path class="cls-1" d="m501.6,183.27c.08,0,.15-.02.23-.03-.08,0-.15.02-.23.03Z"></path><path class="cls-1" d="m466.42,168.59s.07-.03.1,0c-.03,0-.07,0-.1,0Z"></path><path class="cls-1" d="m466.92,168.58s.07-.03.1,0c-.03,0-.07,0-.1,0Z"></path><path class="cls-1" d="m467.42,168.59s.07-.03.1,0c-.03,0-.07,0-.1,0Z"></path><path class="cls-1" d="m467.92,168.59s.07-.03.1,0c-.03,0-.07,0-.1,0Z"></path><path class="cls-1" d="m468.42,168.59s.07-.03.1,0c-.03,0-.07,0-.1,0Z"></path><path class="cls-1" d="m469.42,168.59s.07-.03.11,0c-.04,0-.07,0-.11,0Z"></path><path class="cls-1" d="m469.92,168.59s.07-.03.11,0c-.04,0-.07,0-.11,0Z"></path><path class="cls-1" d="m470.42,168.59s.07-.03.11,0c-.04,0-.07,0-.11,0Z"></path><path class="cls-1" d="m470.92,168.59s.07-.03.11,0c-.04,0-.07,0-.11,0Z"></path><path class="cls-1" d="m471.42,168.59s.07-.03.11,0c-.04,0-.07,0-.11,0Z"></path><path class="cls-1" d="m471.92,168.59s.07-.03.11,0c-.04,0-.07,0-.11,0Z"></path><path class="cls-1" d="m472.42,168.59s.07-.03.11,0c-.04,0-.07,0-.11,0Z"></path><path class="cls-1" d="m472.92,168.59s.07-.03.11,0c-.04,0-.07,0-.11,0Z"></path><path class="cls-1" d="m473.42,168.59s.08-.03.11,0c-.04,0-.08,0-.11,0Z"></path><path class="cls-1" d="m473.92,168.59s.08-.03.11,0c-.04,0-.08,0-.11,0Z"></path><path class="cls-1" d="m474.42,168.59s.08-.03.11,0h-.11Z"></path><path class="cls-1" d="m474.92,168.59s.08-.03.11,0h-.11Z"></path><path class="cls-1" d="m475.42,168.59s.08-.03.11,0c-.04,0-.08,0-.11,0Z"></path><path class="cls-1" d="m475.92,168.59s.08-.03.11,0c-.04,0-.08,0-.11,0Z"></path><path class="cls-1" d="m476.43,168.59s.08-.03.11,0h-.11Z"></path><path class="cls-1" d="m476.93,168.59s.08-.03.11,0c-.04,0-.08,0-.11,0Z"></path><path class="cls-1" d="m477.43,168.59s.08-.03.11,0c-.04,0-.08,0-.11,0Z"></path><path class="cls-1" d="m477.93,168.59s.08-.03.11,0c-.04,0-.08,0-.11,0Z"></path><path class="cls-1" d="m478.43,168.59s.08-.03.11,0c-.04,0-.08,0-.11,0Z"></path><path class="cls-1" d="m478.93,168.59s.08-.03.11,0c-.04,0-.08,0-.11,0Z"></path><path class="cls-1" d="m479.43,168.59s.08-.03.11,0c-.04,0-.08,0-.11,0Z"></path><path class="cls-1" d="m479.93,168.59s.08-.03.11,0c-.04,0-.08,0-.11,0Z"></path><path class="cls-1" d="m480.43,168.59s.08-.03.11,0c-.04,0-.08,0-.11,0Z"></path><path class="cls-1" d="m480.93,168.59s.08-.03.11,0c-.04,0-.08,0-.11,0Z"></path><path class="cls-1" d="m481.43,168.59s.08-.03.11,0c-.04,0-.08,0-.11,0Z"></path><path class="cls-1" d="m481.93,168.59s.08-.03.11,0c-.04,0-.08,0-.11,0Z"></path><path class="cls-1" d="m482.43,168.59s.08-.03.11,0c-.04,0-.08,0-.11,0Z"></path><path class="cls-1" d="m482.93,168.59s.08-.03.11,0c-.04,0-.08,0-.11,0Z"></path><path class="cls-1" d="m483.44,168.59s.08-.03.11,0c-.04,0-.08,0-.11,0Z"></path><path class="cls-1" d="m483.94,168.59s.08-.03.11,0c-.04,0-.08,0-.11,0Z"></path><path class="cls-1" d="m484.44,168.59s.08-.03.11,0c-.04,0-.08,0-.11,0Z"></path><path class="cls-1" d="m484.94,168.59s.08-.03.11,0c-.04,0-.08,0-.11,0Z"></path><path class="cls-1" d="m485.44,168.59s.08-.03.11,0c-.04,0-.08,0-.11,0Z"></path><path class="cls-1" d="m485.94,168.59s.08-.03.11,0c-.04,0-.08,0-.11,0Z"></path><path class="cls-1" d="m486.44,168.59s.08-.03.11,0c-.04,0-.08,0-.11,0Z"></path><path class="cls-1" d="m486.94,168.59s.08-.03.11,0c-.04,0-.08,0-.11,0Z"></path><path class="cls-1" d="m487.44,168.59s.08-.03.11,0c-.04,0-.08,0-.11,0Z"></path><path class="cls-1" d="m487.94,168.59s.08-.03.11,0c-.04,0-.08,0-.11,0Z"></path><path class="cls-1" d="m488.44,168.58s.08-.03.11,0h-.11Z"></path><path class="cls-1" d="m488.94,168.59s.08-.03.11,0c-.04,0-.08,0-.11,0Z"></path><path class="cls-1" d="m489.44,168.59s.08-.03.11,0c-.04,0-.08,0-.11,0Z"></path><path class="cls-1" d="m489.94,168.59s.08-.03.11,0h-.11Z"></path><path class="cls-1" d="m490.45,168.59s.08-.03.11,0c-.04,0-.08,0-.11,0Z"></path><path class="cls-1" d="m490.95,168.59s.08-.03.11,0c-.04,0-.08,0-.11,0Z"></path><path class="cls-1" d="m491.45,168.59s.08-.03.11,0c-.04,0-.08,0-.11,0Z"></path><path class="cls-1" d="m491.95,168.59s.08-.03.11,0c-.04,0-.08,0-.11,0Z"></path><path class="cls-1" d="m492.45,168.59s.08-.03.11,0c-.04,0-.08,0-.11,0Z"></path><path class="cls-1" d="m492.95,168.58s.07-.03.11,0c-.04,0-.07,0-.11,0Z"></path><path class="cls-1" d="m493.45,168.59s.07-.03.11,0c-.04,0-.07,0-.11,0Z"></path><path class="cls-1" d="m493.95,168.59s.07-.03.11,0c-.04,0-.07,0-.11,0Z"></path><path class="cls-1" d="m494.45,168.58s.07-.03.11,0c-.04,0-.07,0-.11,0Z"></path><path class="cls-1" d="m494.95,168.59s.07-.03.11,0c-.04,0-.07,0-.11,0Z"></path><path class="cls-1" d="m495.45,168.59s.07-.03.11,0c-.04,0-.07,0-.11,0Z"></path><path class="cls-1" d="m495.95,168.59s.07-.03.11,0c-.04,0-.07,0-.11,0Z"></path><path class="cls-1" d="m496.46,168.59s.07-.03.11,0c-.04,0-.07,0-.11,0Z"></path><path class="cls-1" d="m496.96,168.59s.07-.03.11,0h-.11Z"></path><path class="cls-1" d="m497.46,168.59s.07-.03.11,0c-.04,0-.07,0-.11,0Z"></path><path class="cls-1" d="m497.96,168.59s.07-.03.11,0c-.04,0-.07,0-.11,0Z"></path><path class="cls-1" d="m498.46,168.59s.07-.03.1,0c-.03,0-.07,0-.1,0Z"></path><path class="cls-1" d="m498.96,168.58s.07-.03.1,0c-.03,0-.07,0-.1,0Z"></path><path class="cls-1" d="m361.54,172.65s-.01-.07.02-.1c0,.03.01.05.01.08,0,0-.02.02-.04.02Z"></path><path class="cls-1" d="m464.05,168.5s.05,0,.08.01c0,0-.04,0-.04,0,0,0-.04-.02-.04-.02Z"></path><path class="cls-1" d="m128.35,153.88s.03,0,.05,0h-.05Z"></path><path class="cls-1" d="m127.98,153.79s.05,0,.06.02l-.04.02-.03-.04Z"></path><path class="cls-1" d="m129.08,183.26s.07,0,.11-.01l-.05.03-.06-.02Z"></path><path class="cls-1" d="m345.77,183.28s.05,0,.08,0l-.04.02h-.04Z"></path><path class="cls-1" d="m468.92,168.59s.07-.03.11,0c-.04,0-.07,0-.11,0Z"></path><path class="cls-1" d="m311.41,153.78c-.27.03-.54.07-.82.1.27-.03.54-.07.82-.1Z"></path><path class="cls-1" d="m307.23,171.43c.02.07.04.14.06.21-.02-.07-.04-.14-.06-.21Z"></path><path class="cls-1" d="m296.73,220.89v-4.46c.1-.04.27-.14.44-.14,1-.01,2,0,3,0,.06,0,.11.04.21.08.02.14.05.3.05.46,0,7.91,0,15.81-.03,23.72,0,1.2-.22,2.39-.32,3.59-.1,1.2-.35,2.37-.77,3.5-.8,2.15-2.1,3.94-4,5.28-1.83,1.29-3.86,2.09-6.06,2.42-1.16.18-2.34.27-3.52.35-.47.03-.95-.06-1.42-.11-2.22-.2-4.37-.63-6.41-1.59-1.66-.78-3.13-1.82-4.25-3.26-.88-1.13-1.59-2.38-2.21-3.67-.04-.09-.03-.19-.05-.36.49,0,.94,0,1.4,0,.63,0,1.25.01,1.88,0,.44-.01.73.13.96.53,1.2,2.09,3.02,3.42,5.27,4.23,1.58.57,3.21.75,4.88.77,1.94.02,3.81-.27,5.58-1.05,1.99-.88,3.6-2.22,4.51-4.26.38-.84.52-1.74.67-2.64.25-1.51.14-3.03.16-4.55,0-.05-.04-.1-.09-.21-.11.09-.22.15-.29.24-.86,1-1.87,1.83-2.96,2.56-1.54,1.02-3.26,1.61-5.05,1.99-1.25.27-2.52.31-3.78.24-1.7-.1-3.34-.51-4.92-1.19-1.19-.52-2.33-1.12-3.32-1.94-1.09-.91-2.09-1.9-2.9-3.09-1.17-1.71-1.86-3.6-2.21-5.61-.24-1.39-.24-2.8-.07-4.22.17-1.48.54-2.88,1.15-4.23.64-1.41,1.43-2.72,2.53-3.81.62-.62,1.24-1.25,1.92-1.78,1.64-1.28,3.49-2.14,5.5-2.64,1.36-.34,2.74-.45,4.14-.37,1.86.1,3.64.52,5.31,1.36,1.12.56,2.14,1.28,3.07,2.12.51.46.97.96,1.46,1.44.15.14.26.4.54.31Zm-21.95,9.5c-.13,1.86.26,3.58,1.13,5.18.85,1.57,2.01,2.82,3.53,3.77,1.76,1.1,3.69,1.56,5.71,1.7,1.16.08,2.31.03,3.47-.21,2.29-.48,4.22-1.52,5.78-3.28,1.55-1.75,2.26-3.85,2.5-6.11.15-1.4.03-2.82-.33-4.2-.65-2.5-1.97-4.54-4.12-6.02-2.49-1.71-5.22-2.37-8.2-1.92-1.55.23-3,.77-4.34,1.61-1.7,1.06-3.01,2.48-3.92,4.25-.85,1.64-1.36,3.38-1.2,5.23Z"></path><path class="cls-1" d="m249.86,221.32v-15.83c.5-.14,3.13-.15,3.67-.02.02.01.03.03.05.04.01.02.03.04.03.06,0,12.8.01,25.61.02,38.41,0,.12,0,.25-.02.37,0,.04-.04.07-.1.19-1.15.04-2.35,0-3.61.02v-4.69c-.49.49-.9.88-1.28,1.28-1.65,1.72-3.63,2.87-5.9,3.57-1.79.55-3.64.75-5.48.55-3.24-.35-6.11-1.58-8.46-3.93-.95-.94-1.82-1.94-2.52-3.08-.9-1.46-1.51-3.03-1.8-4.72-.2-1.16-.42-2.33-.35-3.52.11-2,.49-3.93,1.34-5.76.75-1.62,1.73-3.08,2.99-4.34,2.1-2.11,4.6-3.5,7.55-4.04,1.21-.22,2.44-.3,3.66-.22,2.64.17,5.1.93,7.18,2.62.95.77,1.75,1.71,2.62,2.58.13.13.25.26.43.47Zm.32,9.21c-.06-.68-.09-1.37-.19-2.04-.2-1.3-.61-2.52-1.26-3.67-.56-.99-1.3-1.82-2.1-2.62-2.01-2.02-4.49-2.89-7.28-3.04-.83-.05-1.65.08-2.47.23-2.76.51-4.95,1.95-6.66,4.14-1.03,1.32-1.68,2.84-2.08,4.47-.41,1.69-.4,3.36,0,5.04.4,1.73,1.18,3.27,2.27,4.65.46.58,1.01,1.1,1.56,1.61.87.8,1.95,1.24,3,1.76,1.17.58,2.43.81,3.72.86,1.61.06,3.18-.24,4.66-.88,1.95-.84,3.59-2.07,4.81-3.82,1.4-2.01,1.99-4.26,2.01-6.69Z"></path><path class="cls-1" d="m335.68,230.79h-25.18c-.1.86-.06,1.69.11,2.5.33,1.51.91,2.92,1.81,4.19.85,1.2,1.9,2.2,3.2,2.91.42.23.85.44,1.26.69.67.4,1.43.55,2.17.72.4.09.82.12,1.23.14,2,.1,3.91-.27,5.74-1.09,1.48-.67,2.78-1.58,3.76-2.89.59-.78,1.13-1.58,1.69-2.38.2-.28.4-.37.68-.22.77.4,1.54.82,2.3,1.24.13.07.24.16.41.27-.53.84-.96,1.62-1.47,2.34-.98,1.41-2.19,2.62-3.59,3.61-1.49,1.05-3.14,1.74-4.92,2.14-1.6.36-3.21.44-4.83.34-1.68-.1-3.31-.47-4.88-1.1-1.96-.78-3.54-2.07-4.9-3.65-.72-.83-1.3-1.77-1.84-2.73-.98-1.76-1.5-3.66-1.75-5.65-.34-2.68.12-5.24,1.17-7.71.78-1.83,1.86-3.48,3.27-4.89,1.98-1.98,4.36-3.19,7.12-3.68,1.34-.24,2.69-.32,4.04-.21,2.38.19,4.65.76,6.68,2.09,1.95,1.27,3.54,2.88,4.72,4.88.99,1.68,1.57,3.5,1.83,5.43.09.72.16,1.44.23,2.16.01.16-.03.32-.05.56Zm-4.08-3.27c0-.15.02-.25,0-.35-.34-1.23-.82-2.39-1.5-3.46-.52-.81-1.19-1.48-2-2.03-.69-.46-1.31-1.05-2.05-1.4-2.04-.96-4.19-1.37-6.46-1.03-1.46.22-2.82.65-4.06,1.44-1.11.7-2.08,1.57-2.84,2.66-.82,1.17-1.32,2.48-1.82,3.8-.04.1,0,.23,0,.37h20.75Z"></path><path class="cls-1" d="m339.83,241.29c.78-.89,1.47-1.68,2.2-2.52.11.06.24.11.34.2.66.53,1.28,1.12,1.98,1.61,1.33.93,2.82,1.43,4.46,1.21,2.08-.28,3.93-1.74,4.4-3.85.19-.86.07-1.73-.41-2.53-.58-.97-1.36-1.75-2.29-2.35-1.18-.76-2.42-1.44-3.65-2.12-1.66-.93-3.28-1.9-4.4-3.5-.84-1.19-1.29-2.52-1.35-4-.06-1.7.34-3.26,1.3-4.65,1.03-1.49,2.45-2.46,4.22-2.89.6-.15,1.22-.21,1.84-.25,1.57-.11,3.04.31,4.43,1,1.39.69,2.59,1.65,3.76,2.71-.52,1.03-1.47,1.67-2.25,2.53-.25-.18-.52-.37-.79-.55-.88-.59-1.73-1.24-2.65-1.73-1.14-.61-2.42-.7-3.63-.3-1.29.43-2.25,1.36-2.7,2.66-.38,1.1-.19,2.17.5,3.13.76,1.08,1.82,1.81,2.95,2.45,1.11.64,2.26,1.22,3.37,1.86,1.52.88,2.92,1.91,3.98,3.34.64.87,1,1.86,1.2,2.9.32,1.7.09,3.34-.67,4.9-1.11,2.31-2.95,3.78-5.39,4.45-1.81.5-3.64.4-5.45-.16-1.7-.53-3.19-1.38-4.47-2.6-.31-.29-.56-.64-.83-.95Z"></path><path class="cls-1" d="m366.15,244.53v-24.99h-4.87c-.01-1.04,0-2.03,0-3.01.16-.26.42-.25.67-.25,1.15,0,2.29,0,3.44,0,.23,0,.45,0,.75,0v-10.24c.61-.24,3.26-.2,3.77.04v10.19c1.88.02,3.72,0,5.62.01.05.19.14.36.14.53-.01.89.07,1.78-.06,2.72h-5.66c-.01.21-.03.37-.03.53,0,7.89,0,15.77-.01,23.66,0,.26-.04.53-.06.82h-3.68Z"></path><path class="cls-1" d="m264.95,244.53h-3.6c.03-4.71.03-9.39.01-14.07-.02-4.68.1-9.37-.1-14.03.45-.18,2.72-.23,3.63-.1.01.02.03.03.04.05.01.02.03.03.04.05.02.06.04.12.04.18,0,9.24,0,18.47-.01,27.71,0,.06-.03.12-.05.22Z"></path><path class="cls-1" d="m266.16,207.76c.04,1.52-1.04,2.98-2.99,2.98-1.74,0-2.95-1.18-2.99-2.94-.03-1.53,1.02-3,2.96-3.03,1.84-.03,3.04,1.31,3.02,3Z"></path></svg> 