<?xml version="1.0" encoding="UTF-8"?><svg id="Emblem" xmlns="http://www.w3.org/2000/svg" width="8.33in" height="5.56in" viewBox="0 0 600 400"><defs><style>.cls-1{fill:#3a357e;}</style></defs><polyline class="cls-1" points="343.84 212.66 361.28 195.35 345.25 195.35 345.25 186.59 375.84 186.59 375.84 195.29 358.39 212.8 377.12 212.8 377.12 221.56 343.84 221.56 343.84 212.66"/><path class="cls-1" d="m332.12,182.21h-11.45v-8.76h11.45v8.76Zm-11.45,4.38h11.45v34.96h-11.45v-34.96Z"/><path class="cls-1" d="m266.12,173.46h22.5c2.06-.05,4.13.09,6.2.41,2.06.31,3.93.92,5.59,1.82,1.66.9,3.01,2.14,4.04,3.7,1.03,1.58,1.55,3.62,1.55,6.13,0,2.15-.58,4.07-1.75,5.76s-2.7,3-4.58,3.94c2.56.77,4.58,2.17,6.06,4.21,1.48,2.05,2.22,4.43,2.22,7.18s-.5,5.26-1.48,7.18c-.99,1.91-2.32,3.43-4.01,4.58-1.69,1.14-3.67,1.97-5.96,2.46-2.29.5-4.71.74-7.27.74h-23.1v-48.1m12.53,18.93h9.7c.54,0,1.11-.08,1.72-.23.61-.16,1.15-.42,1.65-.78s.91-.83,1.25-1.42c.34-.58.5-1.3.5-2.15,0-1.75-.53-2.97-1.58-3.64s-2.23-1.01-3.54-1.01h-9.7v9.23h0Zm0,19.13h10.04c1.98,0,3.59-.41,4.85-1.22,1.26-.81,1.89-2.2,1.89-4.18,0-2.11-.65-3.58-1.95-4.42-1.3-.83-2.9-1.25-4.78-1.25h-10.04v11.05h0Z"/><path class="cls-1" d="m190,68.67v36.9s11.65,3.98,32.76,4.18c10.66-.2,23.55-.3,45.96-4.8,13.55-2.72,45.58-10.92,60.5-15.32,13.82-4.07,33.99-9.34,57.39-9.34,4.92,0,18.82,1.66,23.39,3.34v-14.97h-220.01v.02Z"/><path class="cls-1" d="m372.24,304.79c0-1.7-1.24-2.73-3.38-2.73h-4.01v5.46h3.71c2.34,0,3.67-1.02,3.67-2.73h0Z"/><path class="cls-1" d="m190,331.33h220v-42.09h-220v42.09h0Zm166.1-35.33h14.9c6.45,0,10.33,3.25,10.33,8.66,0,3.58-1.37,5.59-5.04,7.42l5.12,12.38h-9.65l-4.18-10.84h-2.73v10.84h-8.75v-28.47h0Zm-24.88,0h21.38v6.58h-12.81v4.14h10.38v6.32h-10.38v4.66h12.81v6.78h-21.38v-28.47h0Zm-29.28,0h8.24l6.62,10.42c1.58,2.56,2.47,4.22,3.03,5.5-.47-2.6-.68-5.21-.68-7.47v-8.45h7.13v28.47h-7.13l-7.77-12.55c-.6-1.06-1.15-2.09-1.75-3.11-.3-.55-.68-1.41-1.28-2.78.55,2.47.68,3.25.68,4.66v13.78h-7.09v-28.47Zm-29.28,0h8.24l6.62,10.42c1.58,2.56,2.47,4.22,3.03,5.5-.47-2.6-.68-5.21-.68-7.47v-8.45h7.13v28.47h-7.13l-7.77-12.55c-.6-1.06-1.15-2.09-1.75-3.11-.3-.55-.68-1.41-1.28-2.78.55,2.47.68,3.25.68,4.66v13.78h-7.09v-28.47Zm-13.7,0h8.75v28.47h-8.75v-28.47Zm-32.18,0l4.02,16.43,3.89-16.43h6.87l4.18,16.43,4.02-16.43h6.66l-7.55,28.47h-7.3l-4.02-15.7-3.76,15.7h-7.64l-7.55-28.47h8.19,0Z"/><path class="cls-1" d="m228.96,196.29h-6.07v-4.64h6.07v4.64Zm-6.07,2.32h6.07v18.54h-6.07v-18.54Z"/><path class="cls-1" d="m232.93,198.63h5.9v2.54h.07c.29-.48.64-.9,1.07-1.29s.9-.7,1.43-.97c.52-.26,1.07-.46,1.64-.61s1.13-.22,1.68-.22c1.54,0,2.77.25,3.66.75.9.5,1.56,1.11,2,1.84s.72,1.5.84,2.34c.12.83.18,1.58.18,2.25v11.9h-6.07v-10.82c0-.62-.09-1.17-.26-1.64-.18-.48-.48-.86-.9-1.16-.42-.3-1.04-.45-1.87-.45-.57,0-1.06.11-1.48.34s-.75.52-1.02.9c-.26.37-.46.79-.59,1.27-.13.48-.2.97-.2,1.46v10.1h-6.07v-18.54"/><path class="cls-1" d="m230.06,229.28l-7.02,18.59h5.02l1.18-3.34h6.54l1.16,3.34h5.1l-7.02-18.59h-4.97,0Zm.31,11.66l2.13-6.51h.06l2.07,6.51h-4.26Z"/><polygon class="cls-1" points="266.42 242.87 266.37 242.87 263.61 229.28 259.01 229.28 256.25 242.87 256.2 242.87 253.55 229.28 248.66 229.28 253.73 247.87 258.7 247.87 261.27 235.05 261.32 235.05 263.9 247.87 268.79 247.87 273.96 229.28 269.07 229.28 266.42 242.87"/><path class="cls-1" d="m287.31,229.28l-7.02,18.59h5.02l1.18-3.34h6.54l1.15,3.34h5.1l-7.02-18.59h-4.97,0Zm.31,11.66l2.13-6.51h.06l2.07,6.51h-4.26Z"/><path class="cls-1" d="m324.56,247.03c-.1-.38-.18-.79-.24-1.22-.06-.43-.09-.85-.1-1.25-.02-.4-.03-.7-.06-.88-.03-.43-.1-.89-.21-1.37s-.26-.93-.47-1.34c-.21-.42-.48-.78-.82-1.1-.34-.31-.74-.53-1.23-.65v-.06c1-.38,1.74-1,2.22-1.86.48-.86.72-1.79.72-2.8,0-.94-.19-1.74-.57-2.39s-.87-1.2-1.49-1.62-1.31-.74-2.1-.93-1.59-.29-2.42-.29h-9.56v18.59h4.89v-6.77h3.7c.58,0,1.04.11,1.38.33.34.22.61.5.8.87.19.37.32.78.39,1.22.07.46.12.91.16,1.38.02.14.03.34.06.6.02.26.04.54.08.85.03.3.09.59.16.87.07.28.16.5.26.65h4.83c-.16-.18-.29-.45-.39-.83h0Zm-5.65-10.25c-.38.38-.94.56-1.68.56h-4.1v-4.19h3.89c.68,0,1.26.16,1.74.48.48.32.72.83.72,1.52s-.19,1.26-.58,1.62h0Z"/><path class="cls-1" d="m349.58,231.73c-.79-.8-1.75-1.41-2.89-1.82-1.14-.42-2.42-.62-3.86-.62h-8.06v18.59h8.06c1.42,0,2.7-.2,3.83-.61s2.1-1.01,2.9-1.8c.8-.79,1.41-1.77,1.82-2.93.42-1.16.63-2.5.63-4.03,0-1.44-.21-2.73-.63-3.86s-1.02-2.1-1.82-2.9h0Zm-2.74,9.13c-.19.65-.5,1.18-.9,1.6s-.94.73-1.6.93-1.45.31-2.38.33h-2.31v-10.26h2.31c1.68,0,2.96.42,3.85,1.24s1.33,2.09,1.33,3.79c0,.94-.1,1.73-.29,2.38v-.02Z"/><path class="cls-1" d="m281.79,152.21c.09,2.38.79,4.27,2.11,5.68,1.32,1.41,3.17,2.11,5.54,2.11,1.36,0,2.64-.3,3.83-.93,1.19-.62,2.05-1.56,2.58-2.84h10.5c-.53,1.98-1.35,3.69-2.47,5.11-1.12,1.43-2.44,2.61-3.96,3.53-1.52.93-3.19,1.61-5.02,2.05s-3.69.66-5.58.66c-2.78,0-5.31-.41-7.62-1.22-2.31-.82-4.29-2-5.94-3.57-1.65-1.56-2.93-3.47-3.83-5.74-.9-2.26-1.35-4.83-1.35-7.69,0-2.64.48-5.06,1.45-7.26.97-2.2,2.3-4.1,3.99-5.68,1.7-1.58,3.66-2.82,5.9-3.73,2.25-.9,4.62-1.35,7.13-1.35,3.08,0,5.76.54,8.06,1.62,2.29,1.08,4.18,2.57,5.68,4.46,1.5,1.9,2.6,4.1,3.3,6.63.7,2.53.99,5.25.86,8.15h-25.14m13.93-6.27c-.09-1.94-.75-3.58-1.98-4.95-1.23-1.36-2.79-2.05-4.69-2.05s-3.6.64-4.85,1.91c-1.26,1.28-2.06,2.97-2.41,5.08h13.93Z"/><path class="cls-1" d="m323.18,155.32c0,.88.17,1.63.5,2.25s.78,1.14,1.35,1.58c.53.39,1.15.7,1.88.89.73.2,1.49.3,2.28.3.53,0,1.1-.06,1.72-.2.62-.14,1.18-.34,1.72-.62.53-.29.97-.66,1.32-1.12.35-.46.53-1.02.53-1.68s-.2-1.2-.59-1.62-.87-.76-1.42-1.02c-.55-.26-1.14-.46-1.78-.59-.64-.13-1.2-.26-1.68-.39-1.76-.44-3.58-.83-5.45-1.19-1.87-.35-3.58-.89-5.15-1.62-1.56-.73-2.84-1.73-3.83-3-.99-1.28-1.49-3.08-1.49-5.42,0-2.06.5-3.78,1.49-5.11.99-1.34,2.26-2.41,3.79-3.2,1.54-.79,3.23-1.35,5.08-1.68,1.85-.33,3.61-.5,5.28-.5,1.89,0,3.75.17,5.58.5s3.49.9,4.98,1.72c1.5.82,2.72,1.94,3.66,3.37s1.46,3.26,1.55,5.51h-10.36c0-1.36-.49-2.35-1.46-2.97-.88-.57-2.07-.86-3.56-.86-.49,0-1,.02-1.55.06s-1.06.15-1.55.33c-.49.18-.89.44-1.22.79-.33.35-.5.82-.5,1.38,0,.79.42,1.46,1.26,1.98.83.53,1.88.96,3.14,1.29s2.63.62,4.13.89,2.88.53,4.16.79c1.72.35,3.14.9,4.26,1.65,1.12.75,2.02,1.56,2.67,2.44.66.88,1.12,1.78,1.38,2.7.26.93.39,1.74.39,2.44,0,2.29-.5,4.22-1.49,5.78s-2.26,2.82-3.83,3.76c-1.56.94-3.32,1.63-5.28,2.05s-3.9.62-5.84.62-4.02-.18-6.01-.56-3.75-1.03-5.31-1.98c-1.56-.94-2.84-2.21-3.83-3.79-.99-1.58-1.53-3.57-1.62-5.94h10.7"/><path class="cls-1" d="m375.72,137.81h-8.51v19.14c0,1.68.45,2.77,1.34,3.28.89.51,2.1.77,3.61.77.59,0,1.19-.02,1.78-.08.59-.06,1.19-.08,1.78-.08v10.14c-1.25.06-2.5.14-3.77.24-1.27.1-2.53.16-3.77.16-2.92,0-5.34-.24-7.26-.73s-3.43-1.3-4.54-2.43c-1.11-1.14-1.88-2.65-2.31-4.54-.43-1.89-.65-4.27-.65-7.14v-18.74h-6.98v-8.92h6.98v-12.74h13.78v12.74h8.51v8.92"/><path class="cls-1" d="m222.89,116.17h24.56c2.26-.05,4.51.1,6.77.44s4.29,1.01,6.1,1.98c1.82.98,3.28,2.33,4.42,4.05,1.13,1.72,1.69,3.94,1.69,6.69,0,2.35-.64,4.45-1.91,6.29-1.27,1.84-2.94,3.27-5,4.3,2.79.83,5,2.37,6.62,4.6,1.62,2.23,2.42,4.84,2.42,7.83s-.54,5.75-1.62,7.83c-1.08,2.09-2.54,3.75-4.38,5s-4.01,2.14-6.51,2.69c-2.5.54-5.14.81-7.94.81h-25.22v-52.5m13.68,20.66h10.59c.59,0,1.22-.09,1.87-.26.66-.17,1.26-.46,1.8-.85s.99-.9,1.36-1.54c.37-.64.55-1.42.55-2.35,0-1.91-.58-3.23-1.73-3.97s-2.44-1.1-3.86-1.1h-10.59v10.07h0Zm0,20.89h10.96c2.16,0,3.92-.44,5.3-1.32,1.37-.88,2.06-2.4,2.06-4.56,0-2.3-.71-3.91-2.14-4.82s-3.16-1.36-5.22-1.36h-10.96v12.06h0Z"/><path class="cls-1" d="m218.49,115.84c-21.14-.78-28.49-3.83-28.49-3.83v9.74c10.5,3.19,22.74,3.74,28.49,3.92v-9.82h0Z"/><path class="cls-1" d="m383.62,81.04c-14.65,0-27.7,2.82-35.18,4.93-7.47,2.11-19.43,5.57-29.63,8.58s-21.54,6.66-27,8.19c-14.13,4.61-26.45,7.61-36.77,9.56,2.68.43,5.16,1.24,7.36,2.43,1.33.72,2.51,1.6,3.58,2.62,14.49-4.39,25.46-9.06,27.12-9.92,40.8-16.38,60.12-21.31,64.25-22.34,30.95-8.36,52.65,0,52.65,0v-.9c-14.26-3.38-23.57-3.14-26.38-3.14h0Z"/><path class="cls-1" d="m272.27,265.25c.18-.05.34-.1.52-.15,0-.14.02-.27.04-.43-.2.19-.38.38-.56.58h0Z"/><path class="cls-1" d="m363.1,237.85c.52.41,1.1.74,1.76,1,.66.26,1.32.49,1.98.68.68.19,1.34.36,1.98.5.64.14,1.22.32,1.72.5.5.19.91.42,1.22.68.3.26.46.6.46,1.02,0,.34-.09.64-.26.89-.18.24-.4.44-.68.58s-.6.26-.96.33-.72.1-1.09.1c-1.05,0-1.89-.21-2.52-.62s-.97-1.17-1.02-2.26h-4.89c0,1.2.22,2.22.67,3.05.45.83,1.05,1.52,1.8,2.06s1.62.93,2.58,1.17c.98.24,2,.37,3.09.37s2.04-.1,3.02-.31,1.86-.55,2.62-1.03c.76-.48,1.38-1.11,1.84-1.91.46-.8.7-1.78.7-2.97,0-.83-.16-1.55-.47-2.14-.31-.6-.73-1.1-1.23-1.51-.51-.41-1.09-.74-1.74-1.02-.65-.27-1.31-.5-2-.69-.68-.19-1.35-.35-2-.5-.65-.14-1.23-.3-1.74-.47-.52-.18-.93-.38-1.23-.6s-.46-.52-.46-.89c0-.31.07-.57.22-.77s.34-.36.57-.48c.22-.12.48-.21.76-.26.28-.06.55-.08.82-.08.37,0,.74.04,1.1.12.37.08.7.2.98.38.29.18.52.4.7.69s.26.64.24,1.06h4.89c0-1.04-.22-1.94-.66-2.7-.44-.75-1.01-1.38-1.7-1.86-.7-.49-1.5-.85-2.4-1.08-.9-.23-1.82-.35-2.74-.35-.87,0-1.77.1-2.68.31s-1.74.54-2.47.99c-.74.45-1.34,1.04-1.8,1.76s-.7,1.58-.7,2.59c0,.85.16,1.58.49,2.18.32.6.74,1.1,1.26,1.51h-.03Z"/><path class="cls-1" d="m257.84,269.74c.25.23.64.36,1.22.36.97,0,2.09-.47,3.34-1.48.33-.26.71-.59,1.06-.92-1.88.5-3.89,1.02-5.92,1.5.06.22.16.41.3.54h0Z"/><path class="cls-1" d="m378.32,245.74c-.65,1.11-1.51,2.01-2.58,2.67-.98.61-2.09,1.06-3.32,1.31-.18.04-.37.06-.55.09.29.06.57.12.79.12.48,0,.91-.07,1.3-.22l.64-.24-.35.58c-5.56,9.25-8.8,14.69-9.71,16.31-.46.81-.8,1.48-1.02,2.01s-.33.91-.33,1.11c0,.26.06.43.14.51.07.09.18.14.38.14s.5-.1.88-.35.82-.63,1.32-1.15c1.01-1.03,2.26-2.6,3.74-4.7.04-.07.09-.14.15-.19.07-.06.18-.1.28-.1h.06c.07.02.15.07.2.14s.06.14.06.21c0,.1-.04.19-.09.26-.04.06-.1.13-.16.19h0l-.86,1.18c-1.26,1.74-2.35,3.04-3.3,3.93-.94.88-1.73,1.35-2.44,1.36-.63,0-1.18-.25-1.58-.73-.41-.48-.61-1.09-.6-1.79,0-.38.05-.75.13-1.12-.19.23-.4.48-.62.74h0c-.79.95-1.5,1.66-2.14,2.15-.64.49-1.21.75-1.74.75-.67,0-1.26-.26-1.67-.77-.42-.5-.63-1.14-.63-1.87,0-.28.04-.57.1-.86-.86,1.14-1.56,1.97-2.1,2.46-.73.67-1.46,1.03-2.21,1.03s-1.45-.34-1.95-.99c-.51-.65-.77-1.46-.77-2.42,0-.18,0-.34.02-.51-.26.32-.54.65-.85,1.02-.79.95-1.51,1.66-2.15,2.15-.64.49-1.22.75-1.75.75-.66,0-1.24-.26-1.68-.78-.44-.5-.66-1.14-.66-1.86,0-.63.13-1.22.39-1.76.26-.54.9-1.54,1.94-3.06h0c.8-1.18,1.3-2.05,1.48-2.55.06-.17.09-.29.09-.35,0-.23-.06-.36-.14-.44-.08-.08-.22-.14-.47-.14-.41,0-.91.19-1.5.62s-1.26,1.09-1.99,1.98c-1.47,1.78-3.22,4.46-5.22,8.03l-.07.14-.15-.02c-.65-.06-1.04-.08-1.15-.08-.46,0-.88.02-1.28.08l-.5.06,3.37-5.34c1.31-2.1,2.14-3.61,2.46-4.49.1-.3.15-.52.15-.64,0-.17-.04-.26-.07-.3-.03-.03-.06-.06-.19-.06-.08,0-.26.06-.5.22-.23.16-.51.42-.84.77-.66.7-1.48,1.76-2.47,3.18h0c-.06.1-.13.17-.18.23-.02.02-.03.03-.05.04-.05.07-.1.14-.17.22-.21.26-.5.58-.9.98-1.18,1.18-2.3,1.81-3.38,1.81-.37,0-.7-.06-1.01-.18-.85,1.18-1.66,2.07-2.48,2.68-.85.64-1.7.98-2.53.98s-1.62-.37-2.22-1.06c-.6-.7-.9-1.54-.9-2.5,0-.2.02-.39.04-.58-.91,1.18-1.74,2.12-2.49,2.8-.97.88-1.81,1.35-2.57,1.36-.68,0-1.28-.25-1.74-.74-.46-.49-.7-1.11-.69-1.82,0-.26.06-.57.14-.9-.7.86-1.34,1.56-1.92,2.1-.96.88-1.77,1.35-2.51,1.36-.68,0-1.28-.26-1.74-.75-.46-.5-.69-1.13-.69-1.85,0-.28.04-.58.12-.89-.16.19-.31.38-.49.58h0c-.79.95-1.5,1.66-2.14,2.15-.64.49-1.21.75-1.74.75-.67,0-1.26-.26-1.67-.77-.42-.5-.63-1.14-.63-1.87,0-.28.04-.57.1-.86-.86,1.14-1.56,1.97-2.1,2.46-.73.67-1.46,1.03-2.21,1.03s-1.45-.34-1.95-.99c-.51-.65-.77-1.46-.77-2.42,0-.18,0-.34.02-.51-.26.32-.54.65-.85,1.02-.79.95-1.51,1.66-2.15,2.15-.64.49-1.22.75-1.75.75-.66,0-1.24-.26-1.68-.78-.44-.5-.66-1.14-.66-1.86,0-.63.13-1.22.39-1.76.26-.54.9-1.54,1.94-3.06h0c.8-1.18,1.3-2.05,1.48-2.55.06-.17.09-.29.09-.35h0c-1,.26-1.98.53-2.96.78-.37.35-.74.76-1.15,1.25-1.47,1.78-3.22,4.46-5.22,8.03l-.07.14-.15-.02c-.65-.06-1.04-.08-1.15-.08-.46,0-.88.02-1.28.08l-.5.06,3.37-5.34c.74-1.17,1.3-2.14,1.72-2.94-.86.23-1.7.46-2.51.69-.22.3-1.39,2.36-3.44,3.69-.49.32-1,.45-1.5.45-.54,0-1.01-.17-1.31-.52s-.43-.86-.44-1.46c0-.09.02-.19.03-.29-.18.05-.34.1-.52.15-.32.34-.62.69-.87,1.03-.51.7-1.42,2.15-2.7,4.34l-.07.13h-.15c-.7-.06-1.12-.09-1.22-.09,0,0-.13,0-.33.02s-.49.03-.86.06l-.46.03,2.7-4.38c-1.13.32-2.3.65-3.5.98-.86.92-1.68,1.68-2.46,2.24-1.2.86-2.32,1.31-3.38,1.31-.98,0-1.84-.37-2.51-1.08-.1-.1-.17-.22-.25-.32-1.42.33-2.87.65-4.36.96-.46.27-.9.43-1.3.43-.14,0-.27-.06-.41-.08-10.82,2.2-23.33,3.94-36.94,4.23-3.06.06-18.25-1.1-23.2-3.34v11.84h220v-33.78s-11.37-3.81-31.63-4.16c-.02.03-.03.06-.05.1l-.02.06Z"/><path class="cls-1" d="m290.64,263.71c-.31.7-.78,1.5-1.39,2.42-.93,1.39-1.5,2.41-1.72,3.01-.07.2-.1.35-.1.43,0,.23.06.37.14.44.08.08.21.14.44.14s.54-.1.91-.35.82-.63,1.33-1.14c.81-.83,1.77-2.02,2.86-3.55.22-.46.5-.9.84-1.33.93-1.16,2.3-2.22,4.1-3.22h0c1.59-.88,2.89-1.34,3.93-1.34.45,0,.82.11,1.09.37.19.19.31.44.35.74l.51-.98.18.04c.38.09.72.14,1,.14.34,0,.79-.04,1.35-.14l.51-.08-3.78,6.26h0c-.61,1.02-1.06,1.85-1.36,2.51-.3.66-.44,1.14-.43,1.39,0,.28.06.46.14.54.08.09.18.14.4.14.18,0,.49-.12.9-.41.41-.29.9-.74,1.48-1.34,1.15-1.2,2.34-2.69,3.54-4.46h0s.06-.09.1-.13l2.28-3.83h-2.05l.52-.78h1.98l2.34-3.89.18.05c.38.1.74.15,1.07.15s.71-.05,1.09-.15l.57-.15-2.37,3.99h2.58l-.42.78h-2.61l-4.36,7.45h0c-.54.9-.78,1.6-.78,2.06,0,.26.06.41.16.5.1.09.26.16.54.16.23,0,.54-.1.93-.35s.83-.63,1.33-1.14c1-1.03,2.22-2.6,3.65-4.7h0s.07-.08.1-.12l2.65-4.5.17.04c.4.09.71.14.92.14.34,0,.83-.04,1.47-.14l.5-.07-4.77,7.84c-.64,1.06-.94,1.86-.94,2.36,0,.26.06.41.16.5.1.09.26.16.54.16.22,0,.54-.1.92-.35.38-.25.84-.63,1.34-1.15,1.02-1.03,2.28-2.6,3.76-4.7h0c.03-.06.07-.13.12-.18.02-.02.04-.02.06-.04.67-.84,1.57-1.66,2.7-2.46,1.9-1.35,3.48-2.05,4.78-2.05.61,0,1.11.17,1.46.54.34.37.49.89.49,1.54,0,1.54-.78,3.34-2.27,5.4.16.06.34.1.53.1.52,0,1.18-.25,1.95-.79.78-.54,1.4-1.18,1.89-1.94h0v-.02c.08-.1.15-.18.22-.24.02-.02.04-.03.06-.04l.28-.37c1.53-2.05,2.67-3.33,3.5-3.88.28-.18.53-.29.78-.3.53,0,.99.26,1.34.7.35.46.53,1,.53,1.62,0,.34-.07.7-.21,1.11.76-.97,1.4-1.7,1.92-2.18.86-.82,1.69-1.26,2.5-1.26.65,0,1.22.28,1.66.8s.65,1.18.65,1.92c0,.5-.17,1.08-.48,1.78-.31.7-.78,1.5-1.39,2.42-.93,1.39-1.5,2.41-1.72,3.01-.07.2-.1.35-.1.43,0,.23.06.37.14.44.08.08.21.14.44.14s.54-.1.91-.35.82-.63,1.33-1.14c.81-.83,1.77-2.02,2.86-3.55.22-.46.5-.9.84-1.33.93-1.16,2.3-2.22,4.1-3.22h0c1.59-.88,2.89-1.34,3.93-1.34.45,0,.82.11,1.09.37.19.19.31.44.35.74l.51-.98.18.04c.38.09.72.14,1,.14.34,0,.79-.04,1.35-.14l.51-.08-3.78,6.25h0c-.61,1.02-1.06,1.86-1.36,2.52-.3.66-.44,1.14-.43,1.39,0,.28.06.46.14.54.08.09.18.14.4.14.18,0,.49-.12.9-.41.41-.29.9-.74,1.48-1.34,1.15-1.2,2.34-2.69,3.54-4.46h0c.05-.07.09-.14.15-.19.02-.02.06-.04.08-.06.54-.92,1.22-2.06,2.06-3.44,2.39-3.98,4.41-7.43,6.05-10.35h0c-.82.11-1.63.19-2.46.19-1.26,0-2.47-.14-3.62-.43-1.24-.31-2.36-.82-3.34-1.52-.72-.51-1.3-1.16-1.82-1.87-2.85.22-5.93.5-9.28.91-.98.92-2.14,1.66-3.5,2.14-1.38.49-2.91.74-4.58.74h-9.94c-.6.12-1.18.22-1.79.34-8.9,1.78-25.74,5.94-40.5,9.82.34.48.53,1.05.53,1.7,0,.5-.17,1.08-.48,1.78l.03-.06Zm28.67-8.34c.44-.43.94-.67,1.46-.67.32,0,.61.08.81.28s.29.49.28.81c0,.54-.23,1.03-.66,1.46-.42.44-.92.68-1.45.68-.34,0-.63-.09-.84-.3s-.3-.5-.3-.84c0-.51.25-1,.69-1.43h0Z"/><path class="cls-1" d="m273.53,265.22c0,.53.1.9.26,1.1.16.21.38.32.75.32.45,0,.96-.16,1.47-.59,1.6-1.34,2.31-2.53,2.31-2.53-1.68.46-3.3.92-4.77,1.34-.02.12-.04.26-.03.35h0Z"/><path class="cls-1" d="m350.63,270.14c.16,0,.4-.07.69-.25s.63-.45,1.02-.82c.78-.74,1.73-1.87,2.85-3.38.91-1.24,1.6-2.28,2.05-3.12.46-.84.66-1.47.66-1.86,0-.29-.06-.46-.16-.57-.1-.1-.24-.17-.5-.17-.53,0-1.19.26-1.97.85-.78.58-1.66,1.46-2.64,2.64-1.97,2.36-2.92,4.26-2.91,5.62,0,.4.09.66.22.81s.34.24.69.24h0Z"/><path class="cls-1" d="m285.22,261.65c-.22.06-.45.12-.67.18-.03.26-.06.51-.15.81.3-.38.56-.69.82-.99h0Z"/><path class="cls-1" d="m295.41,270.14c.16,0,.39-.07.69-.25.29-.18.63-.45,1.02-.82.78-.74,1.73-1.87,2.85-3.38.91-1.24,1.6-2.28,2.05-3.12.46-.84.66-1.47.66-1.86,0-.29-.06-.46-.16-.57-.1-.1-.24-.17-.5-.17-.53,0-1.19.26-1.97.85-.78.58-1.66,1.46-2.64,2.64-1.97,2.36-2.92,4.26-2.91,5.62,0,.4.09.66.22.81s.34.24.69.24h0Z"/><path class="cls-1" d="m323.34,270.1c.65,0,1.34-.26,2.1-.83.72-.54,1.49-1.36,2.29-2.46-.33-.41-.51-.85-.51-1.31,0-.71.29-1.43.82-2.15.27-.36.54-.63.82-.82.28-.19.58-.3.88-.3.13,0,.26.05.37.13.1-.32.14-.66.14-1.04,0-.5-.11-.84-.3-1.05-.18-.21-.46-.32-.91-.32-.52,0-1.14.26-1.86.82-.71.55-1.5,1.41-2.36,2.54-1.72,2.28-2.55,4.18-2.55,5.67,0,.42.1.7.26.86s.41.26.81.27v-.02Z"/><path class="cls-1" d="m371.67,249.79l-.18-.05-.09.15c.15-.02.31-.05.46-.07-.07-.02-.12,0-.2-.03Z"/><path class="cls-1" d="m232.43,257.94c.54,0,1.03-.24,1.46-.68.42-.43.66-.94.66-1.46,0-.32-.08-.61-.28-.81s-.49-.29-.81-.28c-.53,0-1.02.24-1.46.67-.44.43-.69.92-.69,1.43,0,.34.09.63.3.84.21.21.5.3.84.3h-.02Z"/><path class="cls-1" d="m253.06,269.56c.72-.66,1.52-1.57,2.4-2.71,0,.1-.02.22-.02.32,0,.91.26,1.7.77,2.36.44-.1.89-.21,1.33-.31-.05-.17-.09-.35-.09-.58,0-.82.41-1.9,1.26-3.2,2.87-.58,4.93-1.2,6.2-1.88.64-.34,1.14-.74,1.47-1.18.34-.44.52-.94.52-1.47,0-.48-.21-.9-.59-1.22-.38-.32-.85-.49-1.38-.48-1.17,0-2.62.5-4.38,1.46-1.68.92-2.95,1.91-3.81,2.99-.35.45-.63.91-.84,1.39-1.1,1.54-2.06,2.75-2.88,3.59-.5.52-.94.9-1.33,1.14-.38.25-.7.36-.93.35-.28,0-.44-.06-.54-.16-.1-.09-.16-.24-.16-.5,0-.46.25-1.17.78-2.06h0l4.36-7.45h2.61l.42-.78h-2.58l2.37-3.99-.57.15c-.38.1-.74.15-1.09.15s-.69-.05-1.07-.15l-.18-.05-2.34,3.89h-1.98l-.52.78h2.06l-2.55,4.29c-1.34,1.93-2.49,3.39-3.44,4.37-.5.52-.94.9-1.33,1.14-.38.25-.69.36-.91.35-.23,0-.37-.06-.44-.14-.08-.08-.14-.21-.14-.44,0-.08.03-.23.1-.43.22-.6.79-1.62,1.72-3.01.62-.92,1.08-1.73,1.39-2.42s.48-1.28.48-1.78c0-.74-.22-1.4-.65-1.92s-1-.8-1.66-.8c-.81,0-1.63.44-2.5,1.26-.51.49-1.15,1.22-1.92,2.18.14-.41.2-.78.21-1.11,0-.62-.18-1.16-.53-1.62-.34-.46-.82-.71-1.34-.7-.26,0-.5.11-.78.3-.83.55-1.85,1.84-3.5,3.88,0,0-2.6,3.58-4.24,5.26-.51.52-.96.9-1.34,1.15s-.7.36-.92.35c-.28,0-.44-.06-.54-.16-.1-.09-.16-.24-.16-.5,0-.5.3-1.3.94-2.36l4.77-7.84-.5.07c-.64.1-1.14.14-1.47.14-.21,0-.52-.04-.92-.14l-.17-.04-3.18,5.41c-.92,1.58-1.4,2.76-1.4,3.62,0,.71.23,1.34.69,1.82s1.06.74,1.74.74c.76,0,1.6-.48,2.57-1.36s2.07-2.19,3.33-3.93l.83-1.14c.59-.8,2.14-2.82,2.79-3.51.33-.35.61-.61.84-.77.23-.17.41-.22.5-.22.12,0,.16.03.19.06.03.04.07.13.07.3,0,.13-.05.35-.15.64-.31.88-1.14,2.39-2.46,4.49l-3.37,5.34.5-.06c.4-.05.82-.08,1.28-.08.11,0,.5.02,1.15.08l.15.02.07-.14c2.01-3.58,3.75-6.26,5.22-8.03.74-.89,1.41-1.54,1.99-1.98.59-.43,1.1-.63,1.5-.62.25,0,.39.06.47.14.08.08.14.21.14.44,0,.06-.02.18-.09.35-.18.5-.68,1.37-1.48,2.55-1.03,1.51-1.67,2.52-1.94,3.06-.26.54-.39,1.14-.39,1.76,0,.72.22,1.36.66,1.86.44.51,1.02.78,1.68.78.54,0,1.1-.27,1.75-.75.64-.49,1.35-1.21,2.15-2.15.14-.17.27-.33.4-.49-.06.28-.1.54-.1.79,0,.72.23,1.36.69,1.85.36.38.82.58,1.32.67.56-.11,1.12-.22,1.69-.34.38-.22.79-.54,1.24-.94v.03Zm9.18-8.22c1.13-.96,2.02-1.41,2.62-1.4.2,0,.3.05.36.1s.1.13.1.3c0,.33-.14.69-.45,1.08-.31.39-.78.82-1.43,1.26-1.14.77-2.51,1.39-4.11,1.86.96-1.29,1.94-2.34,2.92-3.18h0Z"/><path class="cls-1" d="m281.25,260.97c.33-.35.61-.61.84-.77.23-.17.41-.22.5-.22.12,0,.16.03.19.06s.07.13.07.3c0,.13-.05.35-.15.64-.14.38-.41.94-.74,1.56.87-.25,1.74-.47,2.61-.71,0-.09.15-1.13-.47-1.92-.35-.45-.82-.71-1.34-.7-.26,0-.5.11-.78.3-.83.55-1.98,1.83-3.5,3.88l-.14.18c.38-.1.74-.21,1.12-.32.7-.97,1.31-1.72,1.82-2.26h-.02Z"/><path class="cls-1" d="m287.25,260.61c.59-.43,1.1-.62,1.5-.62.52-.02.6.36.61.57.41-.1.82-.22,1.23-.32-.05-.11-.08-.16-.13-.22-.43-.52-1.01-.8-1.66-.8-.81,0-1.63.44-2.5,1.26-.3.29-.72.74-1.11,1.2.41-.11.8-.22,1.2-.32.26-.26.6-.56.84-.74h0Z"/><path class="cls-1" d="m266.2,265.76h0l.86-1.07h0c.12-.15.21-.28.28-.37.02-.02.02-.04.04-.06.02-.03.05-.06.07-.1h0c.97-1.42,1.79-2.48,2.45-3.18.33-.35.62-.61.86-.77.24-.17.42-.23.54-.22.1,0,.14.02.16.06s.06.11.06.26c0,.11-.04.31-.14.58-.29.82-1.05,2.23-2.26,4.22l-.8,1.3c1.31-.37,2.66-.77,3.96-1.14.19-.21.34-.38.56-.58-.03.17-.05.44-.05.44l.78-.23s.09-.62.22-1.03l.17-.14c.58-.35,1.01-.62,1.3-.81.93-.59,1.63-1.12,2.11-1.59.24-.24.42-.46.55-.68.13-.22.21-.43.21-.65s-.07-.44-.23-.58c-.17-.14-.38-.19-.62-.19-.35,0-.71.12-1.07.33-.36.22-.74.53-1.12.94-.76.81-1.39,1.8-1.9,2.98-.2.16-.4.34-.61.54.46-.95.7-1.78.7-2.5s-.14-1.27-.45-1.68c-.31-.41-.8-.61-1.38-.6-.26,0-.51.11-.8.3-.85.55-2.01,1.83-3.54,3.88h0l-.34.48c-.06.06-.13.13-.19.22h0,0c-1.11,1.5-2.15,2.7-3.13,3.64.46-.12.91-.23,1.37-.36.46-.49.92-1.01,1.4-1.6v-.02Z"/></svg>