<?xml version="1.0" encoding="UTF-8"?> <svg xmlns="http://www.w3.org/2000/svg" xmlns:xlink="http://www.w3.org/1999/xlink" id="Layer_1" width="599.76" height="400.32" viewBox="0 0 599.76 400.32"><defs><style>.cls-1{fill:none;mask:url(#mask);}.cls-2{fill:#3a357e;}.cls-2,.cls-3{fill-rule:evenodd;}.cls-3{fill:#fff;}</style><mask id="mask" x="467.79" y="152.46" width="57.09" height="74.67" maskUnits="userSpaceOnUse"><g id="mask-2"><polygon id="path-1" class="cls-3" points="467.79 152.46 524.88 152.46 524.88 227.13 467.79 227.13 467.79 152.46"></polygon></g></mask></defs><g id="Symbols"><g id="logo_D"><g id="logo-copy-2"><path id="Fill-1" class="cls-2" d="m107.29,187.54h-6.34c-7.61,0-11.07,3.59-11.07,12.85v25.35h-14.99v-53.01h11.96c1.42,0,2.57,1.16,2.57,2.58v5.86c2.07-5.67,7.15-9.14,13.72-9.14,1.38,0,2.77.12,4.15.47v15.05Z"></path><path id="Fill-3" class="cls-2" d="m127.24,193.56h23.64c-.81-5.32-5.31-9.72-11.65-9.72s-10.84,4.05-11.99,9.72Zm39.67,10.07h-39.33c.81,5.91,5.42,10.65,12.11,10.65,4.39,0,8.54-1.85,10.61-5.44l15.57,1.62c-4.73,11.34-14.65,16.67-26.41,16.67-15.8,0-27.68-11.69-27.68-27.9s11.65-27.9,27.45-27.9c14.53,0,27.68,9.5,27.68,31.72v.58Z"></path><path id="Fill-5" class="cls-2" d="m348.7,187.54h-6.34c-7.61,0-11.07,3.59-11.07,12.85v25.35h-14.99v-53.01h11.96c1.42,0,2.57,1.16,2.57,2.58v5.86c2.07-5.67,7.15-9.14,13.72-9.14,1.38,0,2.77.12,4.15.47v15.05Z"></path><path id="Fill-7" class="cls-2" d="m422.47,193.56h23.64c-.81-5.32-5.31-9.72-11.65-9.72s-10.84,4.05-12,9.72Zm39.67,10.07h-39.33c.81,5.91,5.42,10.65,12.11,10.65,4.39,0,8.54-1.85,10.61-5.44l15.57,1.62c-4.73,11.34-14.64,16.67-26.41,16.67-15.8,0-27.68-11.69-27.68-27.9s11.65-27.9,27.45-27.9c14.53,0,27.68,9.5,27.68,31.72v.58Z"></path><g id="Group-11"><g class="cls-1"><path id="Fill-9" class="cls-2" d="m483.25,199.23c0,8.11,5.53,14.59,13.49,14.59s13.49-6.48,13.49-14.59-5.53-14.47-13.49-14.47-13.49,6.25-13.49,14.47Zm26.64,19.8c-2.65,4.4-8.88,8.1-16.49,8.1-14.53,0-25.6-11.69-25.6-27.9s10.95-27.9,25.49-27.9c8.07,0,14.18,3.71,16.84,8.22,0-1.74-.23-6.13-.23-10.07v-17.02h12.42c1.42,0,2.57,1.16,2.57,2.58v70.7h-14.99v-6.72Z"></path></g></g><path id="Fill-12" class="cls-2" d="m372,225.74h-14.88v-73.28h12.3c1.42,0,2.57,1.16,2.57,2.58v70.7Z"></path><polygon id="Fill-14" class="cls-2" points="405.85 225.74 390.82 225.74 372.8 199.23 390.82 172.72 405.85 172.72 387.83 199.23 405.85 225.74"></polygon><path id="Fill-16" class="cls-2" d="m279.78,170.59l5.45,8.02-4.94,7.27c6.39.9,11.32,6.35,11.32,13.01,0,7.29-5.89,13.2-13.15,13.2s-13.15-5.91-13.15-13.2c0-6.26,4.35-11.46,10.17-12.83l5.07-7.45-5.35-7.88c-14.06,1.63-24.99,13.6-24.99,28.16,0,15.66,12.65,28.36,28.26,28.36s28.26-12.7,28.26-28.36-11.95-27.6-26.94-28.29"></path><path id="Fill-18" class="cls-2" d="m230.84,172.72l-8.07,34.5-7.2-25.96.04-.12-2.27-8.41h-14.79l3.01,8.53-7.2,25.96-7.61-32.5c-.27-1.17-1.31-1.99-2.51-1.99h-13.41l13.72,53.02h17.76l6.25-22.41,6.25,22.41h17.76l13.73-53.02h-15.46Z"></path></g></g></g></svg> 