<?xml version="1.0" encoding="UTF-8"?><svg id="Emblem" xmlns="http://www.w3.org/2000/svg" width="8.33in" height="5.56in" viewBox="0 0 600 400"><defs><style>.cls-1{fill:#fff;}</style></defs><path class="cls-1" d="m462.96,190.46c0-5.43,4.42-9.65,9.65-9.65s9.65,4.42,9.65,9.65-4.42,9.65-9.65,9.65-9.65-4.22-9.65-9.65"/><path class="cls-1" d="m173.21,164.54c0,11.25-2.81,19.69-8.85,25.72-6.03,6.03-14.47,9.04-25.32,9.04h-21.3v-66.91h22.5c10.65,0,18.69,2.61,24.32,8.24,5.82,5.43,8.64,13.46,8.64,23.91m-18.48.6c0-6.23-1.21-10.65-3.62-13.66-2.21-2.81-6.03-4.42-10.85-4.42h-4.82v37.37h4.02c5.43,0,9.24-1.6,11.86-4.82,2.21-3.22,3.42-8.04,3.42-14.47"/><rect class="cls-1" x="231.68" y="132.19" width="16.68" height="67.12"/><path class="cls-1" d="m303.42,174.18c0,8.04-2.01,14.47-6.43,19.09s-10.45,6.83-18.09,6.83-13.26-2.21-17.68-7.03-6.63-11.05-6.63-18.89,2.01-14.47,6.43-18.89c4.42-4.63,10.45-6.83,18.09-6.83,4.82,0,9.04,1,12.66,3.01,3.82,2.01,6.43,5.02,8.44,8.85,2.41,4.22,3.22,8.64,3.22,13.87m-31.55,0c0,4.42.6,7.44,1.6,9.65,1,2.21,2.81,3.22,5.63,3.22s4.42-1,5.63-3.22c1-2.21,1.6-5.63,1.6-9.65,0-4.42-.6-7.44-1.6-9.65-1-2.01-2.81-3.22-5.63-3.22-2.41,0-4.42,1-5.63,3.22-1,2.21-1.6,5.22-1.6,9.65"/><rect class="cls-1" x="310.25" y="149.26" width="16.68" height="49.83"/><rect class="cls-1" x="310.25" y="132.19" width="16.68" height="11.25"/><path class="cls-1" d="m360.89,186.44c2.21,0,5.02-.6,8.04-1.6v12.66c-2.21,1-4.42,1.6-6.43,2.01s-4.42.6-7.23.6c-5.63,0-9.65-1.41-12.26-4.42-2.41-2.81-3.82-7.23-3.82-13.06v-20.49h-5.82v-12.86h5.82v-12.46l16.88-2.81v15.67h10.85v12.66h-10.85v19.29c.4,3.42,1.81,4.82,4.82,4.82"/><path class="cls-1" d="m399.86,186.44c2.21,0,5.02-.6,8.04-1.6v12.66c-2.21,1-4.42,1.6-6.43,2.01s-4.42.6-7.23.6c-5.63,0-9.65-1.41-12.26-4.42-2.41-2.81-3.82-7.23-3.82-13.06v-20.49h-5.82v-12.86h5.82v-12.66l16.88-2.61v15.67h10.85v12.66h-10.85v19.29c.2,3.42,1.81,4.82,4.82,4.82"/><path class="cls-1" d="m452.91,154.28c-4.02-4.02-9.65-5.82-16.88-5.82-7.64,0-13.66,2.21-17.88,6.83-4.22,4.63-6.23,11.05-6.23,19.49s2.21,14.47,6.63,18.89c4.63,4.42,10.85,6.63,18.89,6.63,4.02,0,7.23-.2,10.04-.8,2.61-.6,5.63-1.41,8.04-2.81l-2.41-11.25c-1.81.8-3.82,1.41-5.43,1.81-2.41.6-5.22.8-8.04.8-3.22,0-5.82-.8-7.64-2.21-1.81-1.6-2.81-3.82-2.81-6.63h29.94v-7.83c-.2-7.44-2.41-13.06-6.23-17.08m-23.71,13.87c.2-2.61,1-4.82,2.21-6.03s2.81-1.81,5.02-1.81c2.01,0,4.02.6,5.22,2.01,1.21,1.41,1.81,3.22,2.01,5.82h-14.47Z"/><path class="cls-1" d="m219.23,154.28c-4.22-4.02-9.65-5.82-16.88-5.82-7.64,0-13.66,2.21-17.88,6.83-4.22,4.63-6.23,11.05-6.23,19.49s2.21,14.47,6.63,18.89c4.63,4.42,10.85,6.63,18.89,6.63,4.02,0,7.23-.2,10.04-.8,2.61-.6,5.63-1.41,8.04-2.81l-2.41-11.45c-1.81.8-3.82,1.41-5.43,1.81-2.41.6-5.22.8-8.04.8-3.22,0-5.82-.8-7.64-2.21-1.81-1.6-2.81-3.82-2.81-6.63h29.94v-7.64c-.2-7.44-2.41-13.06-6.23-17.08m-23.91,13.87c.2-2.61,1-4.82,2.21-6.03s2.81-1.81,5.02-1.81,4.02.6,5.22,2.01,1.81,3.22,2.01,5.82h-14.47,0Z"/><path class="cls-1" d="m141.66,232.05v3.22h-9.24v25.51h-3.82v-25.51h-9.24v-3.22h22.31,0Z"/><path class="cls-1" d="m149.1,240.09c1.21,0,2.41.2,3.42.6s2.01,1,2.61,1.81c.8.8,1.41,1.81,1.81,2.81.4,1.21.6,2.41.6,3.82,0,.6,0,1-.2,1.21s-.4.41-.6.41h-13.46c0,1.21.2,2.41.4,3.42.41,1,.8,1.81,1.21,2.41.6.6,1.21,1.21,2.01,1.41.8.41,1.6.41,2.61.41.8,0,1.6-.2,2.21-.41s1.21-.41,1.6-.6c.4-.2.8-.41,1.21-.6s.6-.41.8-.41c.4,0,.4.2.6.41l1,1.21c-.41.6-1,1-1.6,1.41s-1.21.8-2.01,1c-.6.2-1.41.41-2.21.6s-1.41.2-2.21.2c-1.41,0-2.61-.2-3.82-.6-1.21-.4-2.21-1.21-3.01-2.01-.8-1-1.6-2.01-2.01-3.42s-.8-2.81-.8-4.63c0-1.41.2-2.81.6-4.02s1-2.21,1.81-3.22c.8-1,1.81-1.6,3.01-2.01,1.6-.8,2.81-1.21,4.42-1.21h0Zm0,2.61c-1.81,0-3.01.41-4.02,1.41s-1.6,2.41-1.81,4.22h11.05c0-.8-.2-1.6-.41-2.21s-.6-1.21-1-1.81c-.41-.4-1-.8-1.6-1.21-.6-.2-1.41-.41-2.21-.41h0Z"/><path class="cls-1" d="m175.82,244.1c-.14.13-.27.27-.4.4-.2,0-.2.2-.4.2s-.41,0-.6-.2-.6-.4-.8-.6c-.41-.2-.8-.4-1.21-.6s-1.21-.2-2.01-.2c-1,0-1.81.2-2.61.6s-1.41.8-2.01,1.6c-.4.6-1,1.41-1.21,2.41s-.41,2.01-.41,3.22.2,2.21.41,3.22c.4,1,.6,1.81,1.21,2.41.4.6,1.21,1.21,1.81,1.41.8.4,1.6.4,2.41.4s1.6-.2,2.21-.4,1-.41,1.41-.6.6-.41,1-.6c.2-.2.41-.41.8-.41s.6.2.6.41l1,1.21c-.8,1-2.01,1.81-3.22,2.41-1.21.41-2.81.8-4.22.8-1.21,0-2.41-.2-3.62-.6-1.21-.4-2.01-1.21-2.81-2.01s-1.41-2.01-2.01-3.22c-.4-1.21-.6-2.81-.6-4.42,0-1.41.2-2.81.6-4.22.41-1.21,1-2.41,1.81-3.42s1.81-1.6,3.01-2.21,2.61-.8,4.02-.8,2.61.2,3.82.6,2.01,1.21,2.81,2.01l-.8,1.21v-.02Z"/><path class="cls-1" d="m180.65,260.58v-29.34h3.62v11.86c.8-1,1.81-1.6,2.81-2.21,1-.6,2.21-.8,3.62-.8,1.21,0,2.01.2,2.81.6s1.6.8,2.01,1.6c.6.6,1,1.41,1.21,2.41.4,1,.4,2.01.4,3.22v12.86h-3.62v-12.86c0-1.6-.4-2.81-1-3.62-.6-.8-1.81-1.21-3.22-1.21-1,0-2.01.2-3.01.8-1,.4-1.81,1.21-2.61,2.01v14.87l-3.01-.2h0Z"/><path class="cls-1" d="m202.74,260.58v-20.1h2.01c.4,0,.8.2,1,.8l.4,2.21c.8-1,1.81-1.81,3.01-2.41s2.41-1,3.82-1c1.21,0,2.01.2,2.81.6s1.6.8,2.01,1.6c.6.6,1,1.41,1.21,2.41.2,1,.4,2.01.4,3.22v12.86h-3.62v-12.86c0-1.6-.4-2.81-1-3.62-.6-.8-1.81-1.21-3.22-1.21-1,0-2.01.2-3.01.8-1,.4-1.81,1.21-2.61,2.01v14.87l-3.22-.2h0v.02Z"/><path class="cls-1" d="m233.29,240.09c1.41,0,2.81.2,4.02.8s2.21,1.21,3.01,2.01c.8,1,1.41,2.01,2.01,3.22.41,1.21.6,2.81.6,4.42s-.2,3.01-.6,4.42-1.21,2.41-2.01,3.22c-.8.8-1.81,1.6-3.01,2.01s-2.61.8-4.02.8-2.81-.2-4.02-.8c-1.21-.41-2.21-1.21-3.01-2.01-.8-1-1.41-2.01-2.01-3.22-.4-1.21-.6-2.81-.6-4.42s.2-3.01.6-4.42c.4-1.21,1.21-2.41,2.01-3.22.8-1,1.81-1.6,3.01-2.01s2.41-.8,4.02-.8h0Zm0,18.09c2.01,0,3.42-.6,4.42-2.01,1-1.41,1.41-3.22,1.41-5.63s-.41-4.22-1.41-5.63-2.41-2.01-4.42-2.01c-1,0-2.01.2-2.61.4-.8.41-1.41.8-1.81,1.41s-.8,1.41-1.21,2.41c-.2,1-.41,2.01-.41,3.22s.2,2.21.41,3.22.6,1.81,1.21,2.41c.4.6,1.21,1.21,1.81,1.41.6.6,1.6.8,2.61.8h0Z"/><path class="cls-1" d="m251.17,231.24v29.34h-3.62v-29.34h3.62Z"/><path class="cls-1" d="m265.64,240.09c1.41,0,2.81.2,4.02.8,1.21.41,2.21,1.21,3.01,2.01.8,1,1.41,2.01,2.01,3.22.4,1.21.6,2.81.6,4.42s-.2,3.01-.6,4.42c-.41,1.21-1.21,2.41-2.01,3.22-.8.8-1.81,1.6-3.01,2.01s-2.61.8-4.02.8-2.81-.2-4.02-.8c-1.21-.41-2.21-1.21-3.01-2.01-.8-1-1.41-2.01-2.01-3.22-.41-1.21-.6-2.81-.6-4.42s.2-3.01.6-4.42c.4-1.21,1.21-2.41,2.01-3.22.8-1,1.81-1.6,3.01-2.01s2.61-.8,4.02-.8h0Zm0,18.09c2.01,0,3.42-.6,4.42-2.01s1.41-3.22,1.41-5.63-.41-4.22-1.41-5.63-2.41-2.01-4.42-2.01c-1,0-2.01.2-2.61.4-.8.41-1.41.8-1.81,1.41-.4.6-.8,1.41-1.21,2.41s-.4,2.01-.4,3.22.2,2.21.4,3.22.6,1.81,1.21,2.41c.4.6,1.21,1.21,1.81,1.41.8.6,1.6.8,2.61.8h0Z"/><path class="cls-1" d="m286.54,240.09c.8,0,1.81.2,2.41.41.8.2,1.41.41,2.01.8h5.63v1.21c0,.4-.41.8-.8.8l-2.21.41c.41.8.6,1.81.6,2.81s-.2,1.81-.6,2.61c-.4.8-1,1.41-1.6,2.01s-1.41,1-2.41,1.21-2.01.4-3.01.4-1.81-.2-2.61-.4c-.4.2-.8.6-1,.8-.2.41-.4.6-.4,1s.2.8.6,1.21c.4.2,1,.4,1.6.6s1.41.2,2.21.2h2.41c.8,0,1.6,0,2.41.2.8.2,1.6.41,2.21.8.6.41,1.21.8,1.6,1.41.4.6.6,1.41.6,2.21s-.2,1.81-.6,2.61c-.4.8-1,1.6-1.81,2.21-.8.6-1.81,1.21-3.01,1.6-1.21.41-2.41.6-4.02.6-1.41,0-2.81-.2-3.82-.4-1.21-.41-2.01-.6-2.81-1.21-.8-.41-1.21-1-1.6-1.81-.41-.6-.6-1.21-.6-2.01,0-1,.4-1.81,1-2.61.6-.6,1.41-1.21,2.61-1.6-.6-.2-1-.6-1.41-1s-.4-1-.4-1.81c0-.4,0-.6.2-1s.2-.6.4-1,.4-.6.8-.8c.4-.41.6-.41,1.21-.8-1-.6-1.81-1.21-2.41-2.21-.6-1-.8-2.01-.8-3.22,0-1,.2-1.81.6-2.61.41-.8,1-1.41,1.6-2.01s1.41-1,2.41-1.21c.41-.2,1.6-.4,2.81-.4h0Zm6.23,21.7c0-.41-.2-1-.4-1.21-.41-.41-.6-.6-1.21-.8-.4-.2-1-.4-1.6-.4s-1.21-.2-2.01-.2h-2.01c-.8,0-1.41,0-2.01-.2-.8.41-1.41.8-1.81,1.21-.41.41-.6,1.21-.6,1.81,0,.4.2.8.4,1.21s.6.8,1,1c.4.41,1.21.41,1.81.6.8.2,1.6.2,2.61.2s1.81,0,2.61-.2,1.41-.41,2.01-.8c.6-.4,1-.8,1.21-1.21v-1h0Zm-6.23-11.05c.8,0,1.41-.2,2.01-.41.6-.2,1-.4,1.41-.8s.6-.8.8-1.21.4-1,.4-1.6c0-1.21-.4-2.21-1.21-3.01s-1.81-1.21-3.22-1.21-2.61.41-3.22,1.21c-.8.8-1.21,1.81-1.21,3.01,0,.6.2,1.21.4,1.6s.4,1,.8,1.21c.4.4.8.6,1.41.8.4.41.8.41,1.6.41Z"/><path class="cls-1" d="m306.03,266.61c-.2.2-.2.4-.41.6s-.4.2-.8.2h-2.61l3.62-8.04-8.44-19.09h3.22c.4,0,.6,0,.8.2l.41.41,5.43,12.66c.2.4.2.6.41.8,0,.41.2.6.2,1,.2-.41.2-.6.4-1s.2-.6.41-1l5.22-12.66c0-.2.2-.41.41-.6s.41-.2.6-.2h2.81l-11.66,26.72h-.02Z"/><path class="cls-1" d="m349.03,231.65v5.02h-11.86v7.44h10.04v5.22h-10.04v11.25h-6.83v-29.14l18.69.2h0Z"/><path class="cls-1" d="m363.7,260.58c-.6,0-1,0-1.41-.2s-.6-.4-.8-1l-.41-1.21c-.4.41-1,.8-1.41,1.21s-1,.6-1.41.8-1,.41-1.6.41c-.6.2-1.21.2-2.01.2-1,0-1.81-.2-2.61-.41s-1.41-.6-2.01-1.21c-.6-.4-1-1-1.21-1.81-.4-.8-.4-1.6-.4-2.41s.2-1.41.6-2.21c.4-.8,1-1.41,2.01-2.01,1-.6,2.21-1.21,3.62-1.6,1.6-.4,3.62-.6,5.82-.6v-.8c0-1.21-.2-2.01-.8-2.61-.41-.6-1.21-.8-2.01-.8s-1.41,0-1.81.2c-.41.2-.8.41-1.21.6s-.8.41-1,.6c-.41.2-.8.2-1.21.2s-.8-.2-1.21-.4-.6-.41-.6-.8l-1.21-2.01c1.21-1.21,2.61-2.01,4.22-2.41,1.6-.6,3.22-.8,4.82-.8,1.21,0,2.41.2,3.42.6,1,.4,1.81,1,2.61,1.6.6.6,1.21,1.6,1.6,2.61.4,1,.6,2.01.6,3.22v13.26l-3.01-.2h.02Zm-7.03-3.62c.8,0,1.41-.2,2.01-.41.6-.41,1.21-.8,1.81-1.41v-2.81c-1.21,0-2.21,0-3.01.2s-1.41.4-2.01.6-.8.41-1,.8-.2.6-.2,1c0,.8.2,1.21.6,1.41.4.4,1,.6,1.81.6h0Z"/><path class="cls-1" d="m385.4,244.51c-.2.2-.41.41-.41.6-.2.2-.4.2-.6.2-.41,0-.6,0-.8-.2-.41-.2-.6-.2-1-.41s-.8-.41-1.21-.41-1-.2-1.41-.2c-.8,0-1.41.2-1.81.4-.41.41-.6.8-.6,1.21s.2.6.4,1c.2.2.6.4,1.21.6s1,.41,1.6.6,1.21.41,1.81.6c.6.2,1.21.41,1.81.8.6.41,1.21.6,1.6,1s.8,1,1.21,1.6c.2.6.4,1.21.4,2.21s-.2,2.01-.6,2.81-1,1.6-1.6,2.21c-.8.6-1.6,1.21-2.81,1.41-1,.41-2.41.41-3.82.41-.6,0-1.41,0-2.01-.2s-1.41-.4-2.01-.6-1.21-.41-1.81-.8c-.6-.41-1-.6-1.41-1l1.41-2.21.6-.6c.2-.2.6-.2,1-.2s.6,0,1,.2.6.41,1,.41.8.4,1.21.4c.41.2,1,.2,1.6.2.41,0,.8,0,1.21-.2s.6-.2.8-.4.41-.41.41-.6c.2-.2.2-.41.2-.6,0-.4-.2-.8-.4-1-.41-.2-.6-.41-1.21-.6-.4-.2-1-.41-1.6-.6s-1.21-.4-1.81-.6-1.21-.41-1.81-.8c-.6-.2-1.21-.6-1.6-1.21-.41-.4-.8-1-1.21-1.6s-.4-1.41-.4-2.41c0-.8.2-1.81.4-2.61.41-.8.8-1.41,1.6-2.01.6-.6,1.6-1,2.61-1.41s2.21-.6,3.62-.6c.8,0,1.41,0,2.21.2.6.2,1.41.41,2.01.6.6.2,1.21.4,1.6.8s1,.6,1.41,1l-2.01,2.61h-.02Z"/><path class="cls-1" d="m399.46,260.98c-1,0-1.81-.2-2.61-.4s-1.41-.6-2.01-1.21-1-1.21-1.21-2.01-.4-1.6-.4-2.41v-10.65h-1.81c-.4,0-.6-.2-.8-.4s-.4-.41-.4-1v-2.21l3.22-.6,1.21-5.02c.2-.6.6-1,1.41-1h3.22v6.03h5.02v4.22h-5.02v10.25c0,.41.2.8.41,1.21s.6.41,1,.41h.6c.2,0,.4-.2.4-.2.2,0,.2-.2.41-.2h.4c.2,0,.41,0,.41.2.2,0,.2.2.41.4l1.81,3.01c-.8.6-1.6,1-2.81,1.41-.8,0-1.81.2-2.81.2h-.02Z"/><path class="cls-1" d="m434.02,234.26c0,.41,0,.8-.2,1.21s-.41.6-.6,1c-.41.2-.6.41-1.21.6-.4.2-1,.2-1.6.2h-7.03l-.8,4.82c.6-.2,1-.2,1.6-.2h1.41c1.6,0,2.81.2,4.02.6s2.21,1.21,3.01,2.01c.8.8,1.41,1.81,1.81,2.81.41,1.21.6,2.21.6,3.42,0,1.6-.2,3.01-.8,4.22s-1.21,2.41-2.21,3.42-2.21,1.6-3.62,2.21c-1.41.4-2.81.8-4.42.8-1,0-1.81-.2-2.81-.4-.8-.2-1.6-.41-2.41-.8s-1.41-.8-2.01-1.21c-.6-.41-1.21-1-1.81-1.41l2.01-2.61.6-.6c.19-.19.6-.2.8-.2.41,0,.8.2,1.21.41s.8.41,1.21.8c.4.2,1,.41,1.41.6.6.2,1.21.41,2.01.41s1.6-.2,2.01-.41c.6-.2,1-.6,1.41-1.21.41-.41.6-1,.8-1.6.2-.6.2-1.21.2-2.01,0-1.41-.4-2.41-1.21-3.22s-2.01-1.21-3.42-1.21c-1.21,0-2.61.2-3.82.8l-3.82-1,2.41-14.67h14.87l.41,2.41h0Z"/><path class="cls-1" d="m459.14,246.11c0,2.61-.2,4.82-.8,6.63-.6,1.81-1.21,3.42-2.21,4.63s-2.01,2.21-3.42,2.81c-1.21.6-2.81,1-4.42,1s-3.01-.41-4.22-1-2.41-1.41-3.42-2.81c-1-1.21-1.81-2.81-2.21-4.63-.6-1.81-.8-4.02-.8-6.63s.2-4.82.8-6.63c.6-1.81,1.21-3.42,2.21-4.63s2.01-2.21,3.42-2.81c1.21-.6,2.81-.8,4.22-.8s3.01.41,4.42.8c1.21.6,2.41,1.41,3.42,2.81,1,1.41,1.81,2.81,2.21,4.63.41,2.01.8,4.02.8,6.63Zm-6.43,0c0-2.01-.2-3.62-.41-5.02-.2-1.21-.6-2.21-1-3.01s-1-1.21-1.41-1.41c-.6-.2-1-.4-1.6-.4s-1.21.2-1.6.4c-.6.2-1,.8-1.41,1.41-.4.8-.8,1.81-1,3.01s-.4,2.81-.4,5.02c0,2.01.2,3.62.4,5.02.2,1.21.6,2.21,1,3.01s.8,1.21,1.41,1.6c.6.2,1,.41,1.6.41s1.21-.2,1.6-.41c.6-.2,1-.8,1.41-1.6.41-.8.8-1.81,1-3.01.2-1.41.41-3.01.41-5.02Z"/><path class="cls-1" d="m482.25,246.11c0,2.61-.2,4.82-.8,6.63-.6,1.81-1.21,3.42-2.21,4.63s-2.01,2.21-3.42,2.81c-1.21.6-2.81,1-4.42,1s-3.01-.41-4.22-1-2.41-1.41-3.42-2.81c-1-1.21-1.81-2.81-2.21-4.63-.6-1.81-.8-4.02-.8-6.63s.2-4.82.8-6.63c.6-1.81,1.21-3.42,2.21-4.63,1-1.21,2.01-2.21,3.42-2.81,1.21-.6,2.81-.8,4.22-.8s3.01.41,4.42.8c1.21.6,2.41,1.41,3.42,2.81s1.81,2.81,2.21,4.63c.41,2.01.8,4.02.8,6.63Zm-6.43,0c0-2.01-.2-3.62-.41-5.02-.2-1.21-.6-2.21-1-3.01s-1-1.21-1.41-1.41c-.6-.2-1-.4-1.6-.4s-1.21.2-1.6.4c-.6.2-1,.8-1.41,1.41-.41.8-.8,1.81-1,3.01s-.41,2.81-.41,5.02c0,2.01.2,3.62.41,5.02.2,1.21.6,2.21,1,3.01s.8,1.21,1.41,1.6c.6.2,1,.41,1.6.41s1.21-.2,1.6-.41c.6-.2,1-.8,1.41-1.6s.8-1.81,1-3.01c.2-1.41.41-3.01.41-5.02Z"/></svg>