<?xml version="1.0" encoding="UTF-8"?> <svg xmlns="http://www.w3.org/2000/svg" id="Layer_1" width="100" height="56.41" viewBox="0 0 100 56.41"><defs><style>.cls-1{fill:#fff;}</style></defs><g id="BAI_Logo"><path id="Fill_5" class="cls-1" d="m55.13,25.64h0l-.24-.04c-.17-.03-.32-.06-.48-.09-4.08-.83-8.04-2.18-11.77-4.02-3.72-1.84-7.14-4.23-10.15-7.09-1.43-1.35-2.72-2.83-3.86-4.44-.04-.06-.08-.12-.09-.19l.04.02s.05.03.08.05c1.91,1.72,4.06,3.16,6.36,4.29,3.29,1.62,6.77,2.83,10.36,3.6,1.78.41,3.58.73,5.39.95.98.11,1.98.19,2.95.27.43.03.88.07,1.32.11h.05s.05.01.05.01v6.56h0Zm-5.45-9.77h0l-.04-.02s-.05-.03-.08-.05c-1.91-1.72-4.06-3.16-6.36-4.29-3.29-1.62-6.77-2.83-10.36-3.61-1.78-.41-3.58-.73-5.39-.95-.98-.11-1.98-.19-2.95-.27h0c-.43-.03-.88-.07-1.32-.11-.03,0-.05,0-.1-.01h0V0l.23.04c.17.03.33.06.5.09,4.08.83,8.04,2.18,11.77,4.02,3.72,1.84,7.15,4.23,10.15,7.09,1.43,1.35,2.72,2.83,3.86,4.44.04.06.08.12.09.19h0Z"></path><g id="Group"><path id="Fill_1" class="cls-1" d="m97.22,56.41c-.69,0-1.38-.29-1.38-.85v-.42h.54v.3c0,.31.42.47.83.47.51,0,.83-.24.83-.62,0-.44-.45-.61-.92-.78l-.09-.03c-.5-.18-1.11-.4-1.11-1.14,0-.8.69-1.08,1.34-1.08s1.27.23,1.27.67v.47h-.55v-.28c0-.23-.37-.36-.72-.36-.45,0-.74.21-.74.55,0,.42.4.56.86.73h.03c.6.23,1.23.46,1.23,1.21,0,.34-.15.67-.42.87-.29.2-.65.31-1,.3Zm-8.76,0c-.57,0-1.12-.21-1.53-.61-.4-.4-.63-.94-.62-1.5,0-.55.22-1.08.62-1.46.42-.39.96-.6,1.53-.59,1.15-.04,2.11.86,2.15,2.01,0,.01,0,.03,0,.04,0,1.16-.94,2.11-2.1,2.11-.02,0-.03,0-.05,0h0Zm0-3.66c-.85,0-1.53.68-1.54,1.52,0,0,0,.02,0,.03,0,.85.69,1.54,1.54,1.54s1.54-.69,1.54-1.54c.01-.84-.66-1.54-1.5-1.55-.01,0-.02,0-.04,0h0Zm-6.09,3.66c-.69,0-1.38-.29-1.38-.85v-.42h.54v.3c0,.31.42.47.83.47.51,0,.83-.24.83-.62,0-.44-.45-.61-.92-.78l-.09-.03c-.5-.18-1.11-.4-1.11-1.14,0-.8.69-1.08,1.34-1.08s1.27.23,1.27.67v.47h-.55v-.28c0-.23-.37-.36-.72-.36-.45,0-.74.21-.74.55,0,.42.4.56.86.73h.03c.6.23,1.23.46,1.23,1.21,0,.34-.15.67-.42.87-.29.2-.65.31-1,.3Zm-5.66,0c-1.15.04-2.12-.86-2.16-2.01,0-.03,0-.06,0-.09,0-1.13.91-2.05,2.04-2.06.03,0,.06,0,.1,0,.41,0,1.59.15,1.59.8v.49h-.55v-.31c0-.35-.63-.48-1.02-.48-.41,0-.81.15-1.11.43-.29.3-.45.7-.44,1.11-.04.86.62,1.59,1.48,1.63.03,0,.07,0,.1,0,.34,0,1.04-.12,1.04-.47v-.31h.55v.49c0,.58-1,.79-1.63.79Zm15.95-.07h-1.65v-.44h.52v-3.14h-.52v-.44h1.11l2.06,2.88c.05.09.1.19.14.29h.02s0-.01,0-.02c-.01-.1-.02-.21-.03-.31v-2.41h-.53v-.44h1.65v.44h-.53v3.59h-.58l-2.06-2.88c-.06-.09-.1-.19-.14-.29h-.02s0,0,0,.01c.02.1.02.21.02.31v2.41h.54v.44h0Zm7.33,0h-.62v-.6h.62v.6h0Zm-14.09,0h-1.64v-.44h.52v-3.14h-.52v-.44h1.64v.44h-.53v3.14h.53v.44h0Zm-5.41,0h-1.64v-.44h.52v-3.14h-.52v-.44h1.64v.44h-.53v3.14h.53v.44h0Zm-6.43,0h-3.13v-.44h.52v-3.14h-.52v-.44h3.03v.93h-.51v-.47h-1.4v1.29h1.48v.47h-1.48v1.33h1.5v-.48h.51v.95h0Zm-5.77,0h-1.79v-.44h.52v-3.14h-.52v-.44h1.78c.3-.01.6.02.89.1.83.25,1.38,1.05,1.32,1.92.06.87-.49,1.66-1.32,1.9-.29.08-.59.12-.88.11h0Zm-.68-3.56v3.09h.64c.24.01.48-.02.71-.1.6-.22.97-.81.91-1.44.06-.63-.31-1.23-.91-1.45-.23-.07-.47-.1-.72-.09h-.64Z"></path><path id="Fill_2" class="cls-1" d="m67.88,49.94c-.68,0-1.37-.29-1.37-.85v-.42h.54v.3c0,.31.42.47.83.47.51,0,.82-.24.82-.62,0-.44-.44-.61-.91-.78l-.09-.03c-.49-.18-1.1-.4-1.1-1.14,0-.8.69-1.08,1.33-1.08s1.26.23,1.26.67v.47h-.55v-.28c0-.23-.37-.36-.71-.36-.45,0-.73.21-.73.55,0,.42.39.56.85.73h.03c.6.23,1.22.46,1.22,1.21,0,.34-.15.67-.42.87-.29.2-.64.31-1,.3Zm13.48-.07h-1.62v-.44h.52v-3.14h-.52v-.44h1.79c.26-.01.52.02.77.09.45.14.75.57.72,1.04.03.54-.33,1.01-.86,1.13h0c.07.06.13.12.18.2l.59.99c.06.11.15.13.29.13h.12v.44h-.35c-.35,0-.43-.06-.58-.3l-.64-1.1c-.11-.17-.18-.22-.44-.22h-.49v1.18h.51v.44h0Zm-.51-3.56v1.47h.83c.39.03.72-.26.75-.64,0-.04,0-.08,0-.11.03-.27-.13-.53-.38-.63-.17-.05-.34-.08-.51-.07h-.69Zm-4.17,3.56h-1.44v-.44h.4l1.32-3.58h.66l1.32,3.58h.4v.44h-1.44v-.44h.44l-.32-.9h-1.47l-.32.9h.45v.44h0Zm.61-3.5c-.02.1-.04.21-.07.31l-.51,1.4h1.18l-.51-1.4c-.04-.1-.06-.2-.07-.31h-.02Zm-5.99,3.5h-1.6v-.44h.52l.26-3.14h-.53v-.44h1.17l1.06,2.45c.04.1.07.19.09.29h.01c.03-.1.06-.2.09-.29l1.06-2.45h1.17v.44h-.53l.26,3.14h.52v.44h-1.6v-.44h.5l-.19-2.41c0-.11,0-.22.02-.33h-.02s0,0,0,.01c-.02.1-.05.2-.09.3l-.95,2.11h-.52l-.95-2.12c-.04-.1-.07-.2-.09-.31h-.02s0,.01,0,.02c.01.1.02.21.02.32l-.19,2.41h.5v.44h0Zm14.9,0h-1.63v-.44h.52v-3.11h-.98v.63h-.51v-1.09h3.56v1.09h-.51v-.63h-.97v3.11h.52v.44h0Z"></path><path id="Fill_3" class="cls-1" d="m97.83,43.46c-1.14.06-2.12-.81-2.18-1.95,0-.05,0-.09,0-.14,0-.56.21-1.09.61-1.48.43-.39,1-.6,1.58-.59.77,0,1.61.3,1.61.79v.5h-.54v-.3c0-.33-.53-.5-1.04-.5-.43-.02-.85.14-1.16.43-.29.3-.45.71-.43,1.13-.01.43.15.84.44,1.15.31.31.74.47,1.18.46.31,0,1.12-.09,1.12-.5v-.53h-.82v-.44h1.36v1.13c0,.61-1.05.84-1.71.84Zm-25.37,0c-.57,0-1.12-.21-1.53-.61-.4-.4-.62-.94-.62-1.5,0-.55.22-1.08.62-1.46.42-.39.96-.6,1.53-.59,1.15-.04,2.11.86,2.15,2.01,0,.01,0,.03,0,.04,0,1.16-.94,2.11-2.11,2.11-.02,0-.03,0-.05,0Zm0-3.66c-.85,0-1.53.68-1.54,1.52,0,0,0,.02,0,.03,0,.85.69,1.54,1.54,1.54.85,0,1.54-.69,1.54-1.54h0c.01-.84-.66-1.54-1.5-1.55-.01,0-.02,0-.04,0Zm20.07,3.59h-1.65v-.44h.52v-3.14h-.52v-.44h1.11l2.06,2.88c.05.09.1.19.14.29h.02s0-.01,0-.02c-.01-.1-.02-.21-.03-.31v-2.41h-.54v-.44h1.65v.44h-.53v3.59h-.58l-2.06-2.88c-.06-.09-.1-.19-.14-.29h-.02s0,0,0,.01c.02.1.02.21.02.31v2.41h.54v.44h0Zm-6.3,0h-1.63v-.44h.52v-3.14h-.52v-.44h1.81c.26-.01.52.02.77.09.46.13.76.57.73,1.04.03.54-.34,1.02-.86,1.13h0c.07.06.14.12.18.2l.59.99c.06.11.15.13.29.13h.12v.44h-.36c-.35,0-.44-.06-.58-.3l-.65-1.1c-.11-.17-.18-.22-.44-.22h-.5v1.18h.51v.44h0Zm-.51-3.56v1.47h.84c.39.03.73-.26.76-.65,0-.04,0-.07,0-.11.03-.28-.14-.54-.39-.63-.17-.05-.34-.08-.51-.07h-.69Zm-8.97,3.56h-.68l-.93-3.59h-.4v-.44h1.49v.44h-.5l.65,2.64c.03.14.05.3.05.3h.02s0,0,0-.01c0-.04.03-.17.06-.29l.88-3.08h.5l.87,3.08c.03.1.05.2.06.3h.02s0,0,0-.01c0-.1.02-.19.04-.29l.65-2.64h-.5v-.44h1.49v.44h-.4l-.94,3.59h-.68l-.82-2.86c-.03-.1-.05-.21-.05-.32h-.02c0,.11-.03.22-.05.32l-.82,2.86h0Zm13.62,0h-1.65v-.44h.52v-3.14h-.52v-.44h1.64v.44h-.53v3.14h.53v.44h0Zm-6.28,0h-3.13v-.44h.52v-3.14h-.52v-.44h3.03v.93h-.51v-.47h-1.4v1.29h1.48v.47h-1.48v1.33h1.5v-.48h.51v.95h0Zm-15.92,0h-1.64v-.44h.52v-3.14h-.52v-.44h1.95c.24-.01.49.02.72.11.45.2.73.65.71,1.14.02.52-.3,1-.79,1.18-.2.06-.42.09-.63.09h-.85v1.07h.53v.44h0Zm-.53-3.56v1.58h.78c.16,0,.32-.02.47-.08.28-.13.44-.41.42-.72.02-.28-.12-.55-.37-.69-.16-.07-.34-.11-.51-.1h-.78Z"></path><path id="Fill_4" class="cls-1" d="m59.95,56.41h-.37c-.41-.07-.78-.26-1.07-.56-.48-.54-.58-1.32-.26-1.96.29-.56.87-.91,1.5-.92.07,0,.15,0,.22.02.73.09,1.31.65,1.44,1.37,0,.03.02.06.03.09,0,.01.01.03.02.04v.33s0,.03-.01.05c-.01.04-.02.08-.03.12-.09.64-.55,1.16-1.16,1.34-.06.02-.14.04-.2.06l-.11.03Zm-.18-3.18c-.36,0-.71.14-.97.4-.28.28-.43.66-.43,1.06-.03.78.58,1.43,1.36,1.46.02,0,.04,0,.06,0h0c.81-.07,1.41-.77,1.34-1.58-.06-.72-.64-1.3-1.37-1.34h0Zm-54.39,3.12c-.93,0-1.86,0-2.79,0H.31c-.07,0-.15,0-.22,0h-.09v-28.13h.09c.06,0,.12.01.18.01h5.7c1.65,0,2.99,0,4.23,0,1.64-.04,3.27.28,4.77.94,2.06.86,3.56,2.69,3.99,4.88.49,1.91.15,3.93-.93,5.58-.39.57-.86,1.08-1.4,1.51h-.01s-.09.08-.13.12c0,0-.01.02-.02.03h0c.14.11.28.21.42.31.31.22.61.45.9.7,1.31,1.17,2.16,2.78,2.39,4.52.23,1.43.07,2.9-.48,4.24-.68,1.62-1.89,2.96-3.44,3.8-1.29.73-2.71,1.19-4.19,1.35-.85.09-1.7.14-2.56.14-1.21,0-2.52,0-4.13,0Zm2.97-12.08h-2.44s-.07,0-.11,0h-.06v6.77h.06s.06,0,.08,0h2.48c.7,0,1.27,0,1.79,0,.77,0,1.53-.16,2.24-.45.84-.27,1.49-.93,1.76-1.76.15-.55.19-1.12.11-1.68-.09-1-.7-1.88-1.6-2.32-.75-.37-1.57-.56-2.4-.55-.56,0-1.17-.01-1.92-.01h0Zm-1.7-5.27h1.53c.57,0,1,0,1.41,0,.65,0,1.3-.1,1.91-.32.81-.22,1.43-.89,1.59-1.71.07-.38.09-.76.06-1.14-.04-.95-.66-1.78-1.56-2.09-.49-.17-1-.24-1.51-.23-.52,0-1.09,0-1.78,0h-1.24s-.02,0-.02,0h-1.05c-.05,0-.1,0-.15,0h-.07s0,.05,0,.07c0,.04,0,.08,0,.12v1.33c0,1.24,0,2.51,0,3.77,0,.06,0,.12.04.16.05.04.11.05.17.04h.7Zm35.71,17.34c-.15.02-.28-.08-.33-.22-.48-1.06-.98-2.14-1.45-3.18h0c-.43-.93-.86-1.89-1.29-2.83-.04-.12-.17-.2-.29-.18h-5.09c-1.9,0-3.67,0-5.4,0-.14-.02-.26.07-.3.2-.55,1.27-1.1,2.55-1.64,3.79l-.02.04c-.31.73-.63,1.45-.94,2.18-.05.12-.1.2-.26.2h0c-1.23,0-2.48,0-3.66,0h-2.3s-.06,0-.11,0h-.08s.15-.36.15-.36c.14-.31.26-.6.39-.9l9.68-21.93.12-.27.42-.94c.51-1.16,1.04-2.35,1.56-3.53.04-.12.16-.2.29-.18.73,0,1.46,0,2.15,0s1.39,0,2.06,0c.14-.02.28.07.32.2,3.04,7.1,6.13,14.29,9.11,21.25l1.95,4.54c.24.55.5,1.16.81,1.9.02.04.03.08.05.13,0,.03.02.05.03.09h-2.83c-.85,0-1.97,0-3.09,0h0Zm-8.61-19.64h0l-1.46,3.52-1.83,4.42h6.52l-.52-1.27-2.72-6.67Zm21.49,19.63h-5.71v-28.09h5.71v28.09Zm5.05-.65c-.11,0-.13-.06-.17-.22-.01-.05-.02-.1-.03-.15h0c-.06-.33-.18-.45-.42-.45-.08,0-.16.01-.24.03v.56c0,.19,0,.23-.12.23-.04,0-.09,0-.17-.01v-.69c0-.33,0-.68,0-1.02,0-.05,0-.11.04-.15.04-.03.08-.04.13-.04h.07c.06,0,.12,0,.19,0,.06,0,.12,0,.18,0h.11c.25-.03.48.11.57.35.08.26,0,.42-.31.65.18.12.3.33.3.55.01.12.04.23.09.34-.07.02-.14.03-.21.04h0Zm-.71-1.73c-.14,0-.16.05-.16.24v.47c.06,0,.12-.02.17-.02.12,0,.23-.03.35-.07.1-.06.16-.15.17-.26-.02-.11-.07-.21-.16-.28-.08-.05-.17-.08-.27-.08-.05,0-.08,0-.1,0Z"></path></g></g></svg> 