<?xml version="1.0" encoding="UTF-8"?> <svg xmlns="http://www.w3.org/2000/svg" id="Layer_2" width="100" height="97.6" viewBox="0 0 100 97.6"><defs><style>.cls-1{fill:#fff;}.cls-2{fill:#e02d2d;}.cls-3{fill:#7b1919;}</style></defs><path d="m5.52,92.82h-2.92c-.74,0-.91.1-.91.53,0,.22.09.38.27.49.11.07.29.1.8.1h.97c1.31,0,2.06.61,2.06,1.71,0,.71-.38,1.42-.92,1.69-.25.14-.66.18-1.39.18H.09v-1.28h2.92c.54,0,.74-.01.88-.05.17-.04.29-.22.29-.45s-.11-.43-.28-.52c-.12-.06-.29-.07-.71-.07h-1.01c-.76,0-1.12-.09-1.47-.34-.44-.31-.71-.88-.71-1.52,0-.58.23-1.09.65-1.44.28-.22.65-.31,1.36-.31h3.51s0,1.28,0,1.28Z"></path><path d="m9.18,89.33h1.64v1.6h-1.64v-1.6Zm1.64,2.21v5.98h-1.64v-5.98h1.64Z"></path><path d="m14.56,97.52v-8.19h1.64v8.19h-1.64Z"></path><path d="m19.93,89.33h1.64v1.6h-1.64v-1.6Zm1.64,2.21v5.98h-1.64v-5.98h1.64Z"></path><path d="m30.29,92.82h-1.96c-1.23,0-1.74.5-1.74,1.71,0,.65.2,1.12.6,1.41.33.23.64.31,1.33.31h1.78v1.28h-2.25c-1.2,0-1.83-.22-2.37-.82-.52-.58-.77-1.29-.77-2.18,0-1.04.32-1.87.92-2.38.49-.42,1.12-.59,2.22-.59h2.25v1.28-.02Z"></path><path d="m39.17,92.41c.49.59.72,1.3.72,2.18,0,1.85-1.23,3.01-3.19,3.01s-3.13-1.14-3.13-3.12c0-1.83,1.24-3.03,3.15-3.03,1.09,0,1.91.32,2.44.96h0Zm-3.92,2.14c0,1.18.5,1.79,1.5,1.79s1.46-.6,1.46-1.82-.5-1.8-1.47-1.8-1.49.6-1.49,1.83Z"></path><path d="m46.08,91.54c1.62-.07,2.39.68,2.39,2.3v3.68h-1.64v-3.87c0-.6-.25-.85-.85-.83h-1.42v4.7h-1.64v-5.98h3.17-.01Z"></path><path d="m55.78,91.16l-2.4,6.37h-2.1l3.47-8.37h2.05l3.47,8.37h-2.08l-2.4-6.37h-.01Z"></path><path d="m64.49,97.52h-1.69v-8.37h2.27l3.34,6.24v-6.24h1.69v8.37h-2.18l-3.43-6.14v6.14Z"></path><path d="m81.23,92.55v4.97h-3.74c-1.29,0-1.96-.16-2.57-.65-.85-.67-1.32-1.88-1.32-3.5s.46-2.82,1.31-3.5c.6-.48,1.47-.72,2.66-.72h3.67v1.49h-3.45c-1.59,0-2.22.73-2.22,2.56,0,1.02.23,1.9.58,2.3.34.36.87.53,1.71.53h1.61v-1.98h-2.34v-1.49h4.12-.02Z"></path><path d="m86.71,89.15v4.7c.05,1.39.08,1.48.41,1.82.34.29.74.36,1.83.36h1.71v1.49h-1.9c-1.64.03-2.2-.11-2.91-.67-.74-.67-.92-1.26-.93-3.01v-4.7h1.79Z"></path><path d="m99.99,90.64h-2.32c-1.26.01-1.63.13-2.02.62-.25.35-.31.56-.36,1.36h4.71v1.49h-4.71c.14,1.46.74,1.92,2.46,1.92h2.25v1.49h-2.32c-1.71,0-2.57-.23-3.21-.85-.77-.74-1.19-1.95-1.19-3.38s.45-2.6,1.34-3.4c.62-.55,1.21-.74,2.37-.74h3.01v1.49h-.01Z"></path><polygon class="cls-2" points="83.82 58.7 83.82 19.57 49.93 0 16.03 19.57 16.03 58.7 49.93 78.27 83.82 58.7"></polygon><polygon class="cls-3" points="53.88 19.73 83.82 49.37 83.82 58.7 54.62 75.56 32.36 53.65 46.24 19.73 53.88 19.73"></polygon><path class="cls-1" d="m50.06,26.16l-10.77,27.49h-6.94l13.89-33.93h7.65l13.51,33.93h-6.94l-10.39-27.49h-.01Z"></path></svg> 