<?xml version="1.0" encoding="UTF-8"?> <svg xmlns="http://www.w3.org/2000/svg" xmlns:xlink="http://www.w3.org/1999/xlink" id="Layer_1" width="100" height="18.89" viewBox="0 0 100 18.89"><defs><style>.cls-1{fill:url(#linear-gradient);}.cls-2{fill:#fff;}.cls-3{fill:url(#linear-gradient-2);}</style><linearGradient id="linear-gradient" x1="93.21" y1="1716.69" x2="93.21" y2="1740.51" gradientTransform="translate(-26.07 -1724.89)" gradientUnits="userSpaceOnUse"><stop offset=".41" stop-color="#f29040"></stop><stop offset=".75" stop-color="#ee693c"></stop><stop offset="1" stop-color="#cd3a27"></stop></linearGradient><linearGradient id="linear-gradient-2" x1="76.14" y1="1743.04" x2="76.14" y2="1721.26" gradientTransform="translate(-26.07 -1724.89)" gradientUnits="userSpaceOnUse"><stop offset="0" stop-color="#17a5df"></stop><stop offset=".17" stop-color="#17a5df"></stop><stop offset=".93" stop-color="#244291"></stop><stop offset="1" stop-color="#244291"></stop></linearGradient></defs><path class="cls-2" d="m94.01,0H5.99C2.69,0,0,2.61,0,5.79v7.31c0,3.19,2.69,5.79,5.99,5.79h88.03c3.31,0,5.99-2.61,5.99-5.79v-7.31c0-3.19-2.68-5.79-5.99-5.79h0Z"></path><path class="cls-2" d="m99.42,13.1c0,2.83-2.39,5.14-5.33,5.14H6.06c-2.94-.02-5.33-2.31-5.33-5.14v-7.31C.72,2.96,3.12.65,6.06.65h88.03c2.94,0,5.33,2.31,5.33,5.14v7.31Z"></path><path class="cls-2" d="m94.08.65H6.06C3.12.65.72,2.96.72,5.79v7.31c0,2.83,2.39,5.14,5.33,5.14h88.03c2.94,0,5.33-2.31,5.33-5.14v-7.31c0-2.83-2.39-5.14-5.33-5.14Zm4.54,12.45c0,2.41-2.04,4.38-4.54,4.38H6.06c-2.52-.02-4.56-1.97-4.56-4.38v-7.31C1.5,3.38,3.54,1.41,6.06,1.41h88.03c2.5,0,4.54,1.95,4.54,4.38v7.31Z"></path><path class="cls-2" d="m93.52,2.08h-57.15v14.79h57.15c2.41,0,4.38-1.6,4.38-4.01v-6.76c-.02-2.39-1.99-4.01-4.38-4.01Z"></path><path class="cls-1" d="m93.52,2.08h-57.15v14.79h57.15c2.41,0,4.38-1.6,4.38-4.01v-6.76c-.02-2.39-1.99-4.01-4.38-4.01Z"></path><path class="cls-2" d="m18.64,3.36c-3.35.05-6.02,2.8-5.97,6.14s2.8,6.02,6.14,5.97c3.31-.05,5.97-2.75,5.97-6.06-.02-3.36-2.78-6.07-6.14-6.06h0Zm1.06,8.52c-.02.6-.53,1.06-1.13,1.04-.56-.02-1.02-.49-1.04-1.06v-5.09c0-.6.48-1.09,1.07-1.11.6.02,1.09.51,1.11,1.11l-.02,5.11Z"></path><polygon class="cls-2" points="33.82 3.36 29.96 3.36 28.52 5.85 27.02 3.36 23.17 3.36 26.62 9.14 23.03 15.33 26.81 15.33 28.54 12.38 30.32 15.33 34.19 15.33 30.46 9.1 33.82 3.36"></polygon><polygon class="cls-2" points="8.47 6.62 12.66 6.62 12.43 3.35 4.93 3.35 4.93 15.35 8.43 15.35 8.43 11.46 11.88 11.46 11.88 8.19 8.47 8.19 8.47 6.62"></polygon><path class="cls-3" d="m94.08.65H6.06C3.12.65.72,2.96.72,5.79v7.31c0,2.83,2.39,5.14,5.33,5.14h88.03c2.94,0,5.33-2.31,5.33-5.14v-7.31c0-2.83-2.39-5.14-5.33-5.14Zm4.54,12.45c0,2.41-2.04,4.38-4.54,4.38H6.06c-2.52-.02-4.56-1.97-4.56-4.38v-7.31C1.5,3.38,3.54,1.41,6.06,1.41h88.03c2.5,0,4.54,1.95,4.54,4.38v7.31ZM18.64,3.36c-3.35.05-6.02,2.8-5.97,6.14s2.8,6.02,6.14,5.97c3.31-.05,5.97-2.75,5.97-6.06-.02-3.36-2.78-6.07-6.14-6.06h0Zm1.06,8.52c-.02.6-.53,1.06-1.13,1.04-.56-.02-1.02-.49-1.04-1.06v-5.09c0-.6.48-1.09,1.07-1.11.6.02,1.09.51,1.11,1.11l-.02,5.11Zm10.76-2.78l3.73,6.23h-3.87l-1.76-2.96-1.73,2.96h-3.79l3.57-6.2-3.45-5.79h3.86l1.5,2.5,1.44-2.5h3.86l-3.36,5.76Zm-21.99-.92h3.42v3.27h-3.45v3.89h-3.5V3.35h7.5l.23,3.29h-4.19v1.55Z"></path><path class="cls-2" d="m47.36,10.85l.92-7.01h2.9l-2.24,10.99h-2.87l-1.11-6.88-.88,6.88h-2.89l-2.45-10.99h2.94l.97,6.87,1.04-6.87h2.55l1.11,7.01Zm4.45,4h5.51v-2.64h-2.55v-1.69h2.29v-2.48h-2.29v-1.6h2.55v-2.59h-5.51v11Zm12.38-11l2.32,10.99h-3.06l-.23-1.39h-2.01l-.25,1.39h-3.06l2.64-10.99h3.64Zm-2.57,7.25h1.25l-.56-4.61-.69,4.61Zm4.05-4.61h1.64v8.36h2.98V6.48h1.71v-2.64h-6.3v2.64h-.02Zm11.5,1.25h-1.41v-3.89h-2.98v10.99h2.98v-4.4h1.41v4.42h2.96V3.84h-2.98l.02,3.89Zm3.77,7.11h5.51v-2.64h-2.55v-1.69h2.29v-2.48h-2.29v-1.6h2.55v-2.59h-5.51v11Zm9.26-4.58l.02.72v3.84h-2.96V3.84h3.05c1.34,0,2.34.26,3.01.79.85.67,1.27,1.64,1.27,2.87,0,1.32-.56,2.25-1.71,2.75l2.2,4.58h-3.2l-1.67-4.56Zm1.43-2.71c0-.83-.42-1.23-1.29-1.23h-.11v2.62h.19c.33,0,.65-.14.86-.39.23-.28.35-.63.33-1Z"></path></svg> 