<?xml version="1.0" encoding="UTF-8"?> <svg xmlns="http://www.w3.org/2000/svg" id="Layer_1" width="100" height="15.2" viewBox="0 0 100 15.2"><defs><style>.cls-1{fill:#fff;}</style></defs><path class="cls-1" d="m0,4.14c.2-.05.4-.11.61-.15.75-.17,1.49-.34,2.24-.51.02,0,.04,0,.09-.01v5.8c0,1.42,1.02,2.67,2.42,2.92,1.02.18,1.91-.09,2.66-.81l.19-.19h.02c.03.12.04,3.31,0,3.51-.03.02-.07.04-.11.06-.84.34-1.72.47-2.62.41-1.29-.1-2.43-.56-3.42-1.4-.99-.85-1.63-1.91-1.92-3.17-.06-.26-.08-.52-.12-.79,0-.04-.02-.07-.03-.11v-5.55h-.01Z"></path><path class="cls-1" d="m8.9,15.2v-5.93c.01-1.33-.91-2.59-2.29-2.91-1.09-.26-2.05.04-2.85.83-.04.04-.07.07-.11.11h-.04v-3.46c.06-.03.12-.06.19-.08.48-.18.96-.3,1.47-.34.57-.06,1.14-.04,1.71.06.78.14,1.49.43,2.15.86.46.3.87.66,1.24,1.08.5.58.87,1.23,1.12,1.95.19.56.3,1.14.3,1.73,0,1.74.01,3.48.02,5.22v.22c-.97.22-1.93.44-2.92.66h.01Z"></path><path class="cls-1" d="m47.27,12.05v-2.73c0-.18,0-.35-.03-.53-.05-.44-.35-.68-.73-.68-.11,0-.22,0-.32.02-.36.09-.56.34-.61.75v3.17h-1.75v-2.69c0-.19,0-.37-.03-.56-.04-.41-.31-.67-.73-.69-.12,0-.25,0-.37.03-.31.08-.48.29-.54.6-.02.13-.03.26-.03.39v2.93h-1.72c-.04-.15-.04-5.19,0-5.37h1.68v.71c.41-.57.96-.83,1.64-.82.69,0,1.23.28,1.57.87.18-.17.34-.34.52-.48.35-.26.76-.38,1.19-.39.33,0,.65.02.95.15.4.17.68.47.85.86.13.3.21.61.21.94v3.5c-.12.04-1.48.05-1.74.01h0Z"></path><path class="cls-1" d="m91.59,7.45v-.72c.13-.04,1.51-.05,1.71,0v5.17c0,.9-.42,1.54-1.15,2.01-.44.28-.92.42-1.44.48-.63.07-1.24,0-1.82-.21-.72-.27-1.22-.77-1.49-1.49-.02-.05-.03-.1-.05-.17h1.71s.02.01.03.02c.24.38.6.52,1.03.52.2,0,.4,0,.59-.04.51-.12.85-.49.85-1.08v-.78s-.06.03-.07.05c-.28.38-.67.6-1.12.68-.77.14-1.48-.01-2.11-.49-.51-.4-.82-.94-.93-1.58-.03-.18-.06-.37-.06-.56,0-.39.06-.77.22-1.13.36-.84.99-1.35,1.89-1.51.36-.07.73-.07,1.09.02.43.11.79.33,1.04.72.01.02.03.04.07.09h.01Zm-1.17,3.06c.43.01.94-.33,1.09-.9.15-.56-.05-1.26-.72-1.52-.13-.05-.27-.07-.41-.09-.28-.04-.55.02-.8.17-.6.36-.74,1.2-.37,1.79.24.39.62.54,1.22.55h0Z"></path><path class="cls-1" d="m84.59,6.7h1.66s.01,0,.02.01h0c0,.05.01.09.01.13v5.15s-.01.03-.02.06h-1.64v-.75c-.05.05-.08.08-.11.11-.32.42-.74.67-1.25.75-.9.13-1.69-.12-2.32-.79-.44-.46-.66-1.02-.73-1.65-.05-.42-.01-.84.11-1.24.31-1.01.98-1.65,2.03-1.86.46-.09.91-.07,1.35.1.33.13.59.33.79.62.02.02.03.05.07.1.03-.26,0-.5.03-.74Zm-2.66,2.67c.02.13.02.27.06.4.14.52.47.87,1.01.96.51.08.97-.05,1.28-.49.34-.47.36-1,.12-1.51-.19-.41-.54-.64-.99-.69-.46-.05-.86.08-1.16.46-.21.26-.3.55-.31.88h-.01Z"></path><path class="cls-1" d="m54.33,7.41v-.69c.13-.03,1.47-.04,1.69-.01.03.12.04,5.15,0,5.35h-1.65v-.73h-.03s-.07.08-.11.12c-.38.47-.88.69-1.48.72-.57.03-1.09-.1-1.57-.41-.63-.41-1.01-1-1.16-1.73-.16-.82-.05-1.59.42-2.29.43-.63,1.02-1,1.78-1.11.43-.06.86-.04,1.27.12.32.13.58.33.77.62,0,.02.03.04.04.05h.03Zm-1.33.64c-.48-.03-.95.26-1.16.72-.18.41-.18.81,0,1.22.13.3.35.51.66.63.18.08.37.09.57.09.41-.02.75-.19.98-.53.21-.31.28-.66.22-1.04-.1-.67-.66-1.12-1.27-1.09Z"></path><path class="cls-1" d="m32.14,6.56c.63.02,1.22.15,1.75.49.68.44,1.09,1.06,1.22,1.86.11.68,0,1.33-.37,1.93-.38.61-.92,1.01-1.61,1.2-.8.22-1.59.2-2.35-.14-.91-.4-1.45-1.11-1.61-2.08-.14-.88.09-1.66.69-2.33.41-.45.93-.72,1.53-.83.24-.05.49-.06.74-.09h0Zm0,4.14h.09c.45-.02.81-.21,1.03-.61.19-.35.23-.72.13-1.1-.12-.46-.39-.77-.86-.9-.19-.05-.38-.06-.57-.03-.39.04-.7.22-.9.57-.18.31-.23.64-.18,1,.08.59.54,1.1,1.26,1.08h0Z"></path><path class="cls-1" d="m67.43,12.19c-.62-.02-1.21-.15-1.74-.49-.69-.44-1.1-1.07-1.23-1.87-.12-.77.04-1.49.51-2.12.38-.52.9-.85,1.51-1.01.79-.21,1.58-.18,2.33.16.89.4,1.43,1.1,1.58,2.07.14.88-.09,1.67-.69,2.33-.41.46-.94.72-1.54.84-.24.05-.49.06-.74.09h0Zm0-1.49h.1c.49-.03.85-.26,1.05-.71.15-.34.17-.69.07-1.04-.13-.46-.42-.77-.9-.87-.16-.03-.34-.04-.51-.03-.39.04-.7.22-.9.56-.18.31-.23.64-.18,1,.08.6.54,1.11,1.27,1.09Z"></path><path class="cls-1" d="m24.3,12.06h-1.75v-2.88c0-.17-.02-.35-.06-.52-.08-.32-.34-.53-.66-.54-.15,0-.31,0-.45.04-.3.08-.48.29-.54.59-.03.13-.04.26-.04.39v2.9c-.14.03-1.53.04-1.72.01-.03-.13-.04-5.17,0-5.34.13-.03,1.48-.04,1.68,0v.74c.07-.09.11-.15.16-.21.37-.42.83-.63,1.39-.65.28-.01.56.02.82.11.57.21.92.63,1.08,1.2.07.25.11.51.11.77v3.4h-.02Z"></path><path class="cls-1" d="m73.16,12.06h-1.74v-5.36h1.69v.73c.1-.12.18-.22.27-.31.35-.34.77-.51,1.25-.53.29-.01.57.01.84.11.57.21.92.63,1.08,1.2.07.25.11.51.11.77v3.39h-1.75v-2.88c0-.17-.02-.34-.06-.5-.08-.34-.34-.54-.68-.56-.15,0-.3,0-.44.04-.3.08-.48.29-.54.59-.03.13-.04.26-.04.39v2.92h.01Z"></path><path class="cls-1" d="m25.86,8.09h-.79c-.04-.15-.04-1.22,0-1.4h.79v-.28c0-.3,0-.6.07-.89.17-.65.57-1.07,1.22-1.24.52-.14,1.04-.13,1.57-.03.03,0,.06.02.1.04v1.43c-.11-.02-.21-.03-.31-.04-.17-.03-.34-.02-.51.02-.2.05-.34.17-.36.38-.03.2-.03.4-.05.63.4.02.78,0,1.16.01v1.39c-.19.02-.38,0-.57,0h-.57v3.95c-.13.04-1.46.05-1.74.02-.02-.44,0-.88,0-1.31v-2.68Z"></path><path class="cls-1" d="m60.61,10.66v1.35s-.05.03-.07.04c-.52.13-1.04.18-1.57.05-.7-.17-1.08-.63-1.22-1.31-.03-.17-.04-.34-.04-.51v-2.14c-.16-.03-.31-.01-.46-.02h-.47v-1.44h.92v-1.58c.13-.05,1.46-.06,1.74-.02.02.17,0,.34,0,.51v1.08h1.22c.02.49,0,.95,0,1.44h-1.21c0,.06,0,.11,0,.15v1.79c0,.08,0,.17.03.25.05.25.2.39.46.39.21,0,.43-.02.66-.04h.02Z"></path><path class="cls-1" d="m99.99,9.92h-3.98v.15c-.51.15-1.01.29-1.52.44-.09-.15-.12-.3-.15-.44-.11-.59-.1-1.18.11-1.75.28-.76.81-1.27,1.57-1.55.32-.12.64-.17.98-.18.58-.02,1.14.07,1.65.35.66.36,1.07.93,1.25,1.66.11.44.12,1,.08,1.32h0Zm-3.99-1.1c.21.03,2.18.03,2.3,0-.02-.55-.44-.99-1.04-1.03-.69-.04-1.18.35-1.26,1.04h0Z"></path><path class="cls-1" d="m17.57,12.06h-1.79v-7.42c.11-.04,1.47-.05,1.78-.02.03.12.05,7.18.01,7.43h0Z"></path><path class="cls-1" d="m36.14,6.69h1.68v.88s.02.01.03.02c.32-.79.95-.97,1.7-.94.04.14.04,1.55,0,1.74h-.21c-.23,0-.45.01-.67.07-.36.09-.6.31-.7.67-.07.25-.09.5-.09.76v2.15c-.13.04-1.5.05-1.72.02-.03-.12-.04-5.14,0-5.36h-.02Z"></path><path class="cls-1" d="m63.39,12.06h-1.72v-5.34c.12-.04,1.43-.05,1.71-.02.03.12.04,5.13,0,5.36h.01Z"></path><path class="cls-1" d="m2.9,1.45c.02.69-.54,1.43-1.44,1.43C.6,2.87.03,2.18.03,1.43.03.72.59,0,1.46,0s1.47.73,1.44,1.45Z"></path><path class="cls-1" d="m7.33,9.29c.04.75-.63,1.43-1.42,1.42-.78,0-1.43-.66-1.42-1.43,0-.67.51-1.43,1.43-1.43s1.46.77,1.42,1.43h-.01Z"></path><path class="cls-1" d="m94.68,10.93c.53-.15,1.02-.3,1.53-.44.27.35.64.45,1.04.44.4,0,.78-.12,1.04-.46.48.14.94.27,1.42.41-.06.15-.15.26-.25.36-.51.56-1.15.85-1.89.93-.55.06-1.07,0-1.59-.18-.49-.17-.89-.47-1.2-.89-.03-.04-.06-.09-.11-.17h0Z"></path><path class="cls-1" d="m61.53,5.08c-.02-.53.45-.99,1.02-.98.56.01,1,.44.99.99,0,.59-.48,1-1.01.99-.59,0-1.03-.49-1-1Z"></path></svg> 