<?xml version="1.0" encoding="UTF-8"?> <svg xmlns="http://www.w3.org/2000/svg" id="Layer_1" width="599.76" height="400.32" viewBox="0 0 599.76 400.32"><defs><style>.cls-1{fill:#fff;}</style></defs><path class="cls-1" d="m406.31,160.59c0,17.76-14.41,32.14-32.17,32.14s-32.14-14.41-32.14-32.17,14.41-32.14,32.14-32.14,32.17,14.41,32.17,32.17m72.1-11.83c-.3.06-41.54-42.81-103.88-42.81s-103.85,42.84-103.85,42.84l.06,6.46s32.92-27.93,84.04-34.22c-21.92,10.72-30.98,37.19-20.26,59.08,10.72,21.92,37.19,30.98,59.08,20.26,21.92-10.72,30.98-37.19,20.26-59.08-4.35-8.89-11.58-16.1-20.53-20.39,51.82,6.07,85.12,34.39,85.12,34.39l-.03-6.51Z"></path><path class="cls-1" d="m374.17,168.57c-4.24.03-7.7-3.41-7.73-7.68-.03-4.24,3.41-7.7,7.68-7.73,4.24-.03,7.7,3.41,7.73,7.68v.03c-.03,4.27-3.46,7.7-7.68,7.7m-.03-27.18c-10.78,0-19.51,8.73-19.51,19.51s8.73,19.51,19.51,19.51,19.51-8.73,19.51-19.51v-.03c-.03-10.75-8.76-19.48-19.51-19.48"></path><path class="cls-1" d="m191.87,269.24l-3.82-7.87c-3.77,2.36-5.32,3.13-7.76,3.82-1.55.47-3.16.72-4.79.69-3.66.06-7.09-1.77-9.06-4.88-.94-1.63-1.22-3.05-1.39-6.46h26.82v-4.52c0-10.97-6.98-18.54-16.96-18.54-11.58,0-20.31,9.67-20.31,22.47s7.54,20.31,19.59,20.31c4.6,0,9.14-.97,13.33-2.88.94-.44,2.44-1.14,4.35-2.19m-10.45-21.2h-15.88c.89-5.51,3.99-8.65,8.62-8.65,4.9-.03,6.98,2.44,7.26,8.65"></path><path class="cls-1" d="m229.66,271.95c-3.77,1.55-7.79,2.36-11.86,2.36-12.55,0-20.64-8.29-20.64-21s8.62-21.86,21.53-21.86c2.22,0,4.43.25,6.59.69,2.77.61,5.4,1.75,7.76,3.33l-4.96,7.92c-3.05-2.36-5.04-3.13-8.2-3.13-6.87,0-11.75,5.38-11.75,12.97s4.35,12.19,10.61,12.19c3.49,0,6.01-.89,10.47-3.49l3.82,8.48c-1.5.69-2.63,1.22-3.41,1.58"></path><path class="cls-1" d="m263.22,273.17v-26.05c0-5.07-.89-6.87-3.41-6.87-2.19,0-5.21,2.16-9.75,7.04l-1.41,1.5v24.38h-10.45v-63.51h10.45v29.7c4.88-5.32,8.89-7.54,14.05-7.54,7.32,0,10.97,3.82,10.97,11.5v29.82l-10.45.03Z"></path><polygon class="cls-1" points="148.06 225.1 148.06 273.2 137.12 273.2 137.12 225.1 119.88 225.1 119.88 215.79 165.3 215.79 165.3 225.1 148.06 225.1"></polygon><path class="cls-1" d="m339.17,265.86c-2.83-.28-3.24-.89-3.24-4.52v-16.93c0-8.89-4.35-12.88-14.02-12.88-10.97,0-17.24,4.1-17.24,11.22-.03.97.14,1.94.53,2.83l9.92-2.19c-.14-.33-.25-.69-.28-1.05,0-2,2.52-3.66,5.65-3.66,3.41,0,4.96,2,4.96,6.35v3.41l-11.44,3.3c-5.93,1.75-8.37,3.66-9.75,7.4-.44,1.33-.69,2.72-.69,4.1,0,6.46,4.88,10.97,11.78,10.97,4.1,0,7.54-1.5,11.31-4.96,1.83,3.57,3.49,4.43,8.7,4.43h2.19l1.63-7.81Zm-13.69-2.83c-.83.69-1.75,1.33-2.69,1.83-1.3.75-2.77,1.16-4.27,1.22-2.11.19-3.99-1.36-4.18-3.46-.03-.25-.03-.47,0-.72.03-1.16.28-2.33.78-3.41l10.36-3.41s0,7.95,0,7.95Z"></path><path class="cls-1" d="m365.11,245.02c-.86-.78-1.97-1.19-3.13-1.22-1.63,0-3.49,1.14-5.07,3.05-1.86,2.13-2.88,4.9-2.83,7.73v18.57h-10.36v-40.48h8.98l.44,8.87c3.91-6.87,6.46-9.5,9.56-9.5,2.22.03,4.29,1.08,5.65,2.83l-3.24,10.17Z"></path><path class="cls-1" d="m400.16,278.13c0,1.58-1.14,3.41-3.05,4.88-2.55,2.02-5.71,3.13-8.98,3.16-4.79,0-8.53-2.02-8.53-4.54,0-1.05.69-2.63,1.88-4.6.33-.44.64-.91.89-1.39h12.69c3.44-.03,5.1.83,5.1,2.49m11.22-37.66v-7.84l-8.2.53h-6.01c-3.82-1.3-5.49-1.66-8.48-1.66-10.72,0-17.35,5.93-17.35,15.6-.06,3.63,1.22,7.18,3.57,9.95,1.05,1.19,2.24,2.22,3.57,3.13-1.11.89-2,1.41-2.52,1.88-3.93,2.6-5.32,4.43-5.32,6.79s1.66,4.02,5.65,5.49c-4.71,3.99-6.46,6.71-6.46,9.84,0,6.1,6.71,10.2,16.63,10.2,13.61,0,23.36-7.32,23.36-17.43,0-6.54-3.77-9.75-11.67-9.75h-14.16c-2,0-2.72-.28-2.72-1.14,0-1.05,1.3-2.36,4.02-4.35.97.19,1.97.28,2.96.25,10.61,0,17.79-6.18,17.79-15.41.11-2.16-.55-4.29-1.88-6.01l7.2-.06Zm-15.93,6.07c0,4.18-2.94,7.48-6.71,7.48s-6.71-3.3-6.71-7.4,2.96-7.65,6.59-7.65,6.79,3.38,6.79,7.54"></path><path class="cls-1" d="m450.42,269.24l-3.85-7.87c-3.77,2.36-5.32,3.13-7.76,3.82-1.55.47-3.16.72-4.79.69-3.66.06-7.09-1.77-9.06-4.88-.94-1.63-1.22-3.05-1.39-6.46h26.85v-4.52c0-10.97-6.98-18.54-16.96-18.54-11.58,0-20.31,9.67-20.31,22.47s7.54,20.31,19.59,20.31c4.6,0,9.14-.97,13.33-2.88.94-.44,2.44-1.14,4.38-2.19m-10.42-21.2h-15.91c.89-5.51,3.99-8.65,8.62-8.65,4.88,0,6.98,2.44,7.23,8.65"></path><path class="cls-1" d="m476.03,271.59c-2.74,1.66-5.85,2.6-9.06,2.72-5.4,0-7.92-2.83-7.92-8.78v-25.19h-6.01v-6.59l6.01-1.05v-12.14h9.84v12.11h8.81v7.68h-8.81v18.01c0,4.52.44,5.85,2.08,5.85,1.22,0,2.72-.61,5.6-2.52l3.33,7.59c-1.41.86-2.72,1.63-3.85,2.33"></path><polygon class="cls-1" points="297.36 225.1 297.36 273.2 286.39 273.2 286.39 225.1 269.18 225.1 269.18 215.79 314.57 215.79 314.57 225.1 297.36 225.1"></polygon><path class="cls-1" d="m472.15,119.14h-1.33v2.99h1.5c1.33,0,2.02-.5,2.02-1.61,0-1.11-1.14-1.39-2.19-1.39m2.27,6.98l-2.41-3.3h-1.22v3.3h-.8v-7.7h2.33c1.94,0,2.88.69,2.88,2.08-.06,1.22-1,2.19-2.22,2.27l2.49,3.35h-1.05Zm-1.88-10c-3.3.03-5.96,2.72-5.93,6.01v.08c-.14,3.27,2.41,6.01,5.68,6.15s6.01-2.41,6.15-5.68v-.47c.08-3.3-2.55-6.04-5.85-6.12,0,.03-.03.03-.06.03m0,13c-3.8.06-6.9-2.99-6.96-6.76-.06-3.77,2.99-6.9,6.76-6.96,3.8-.06,6.9,2.99,6.96,6.76v.08c0,3.74-2.99,6.79-6.76,6.87"></path></svg> 