<?xml version="1.0" encoding="UTF-8"?> <svg xmlns="http://www.w3.org/2000/svg" id="Layer_1" width="600" height="400" viewBox="0 0 600 400"><defs><style>.cls-1{fill:#fff;}.cls-2{fill:#c0802b;}.cls-3{fill:#cb9a3d;}.cls-4{fill:#363f45;}</style></defs><path class="cls-3" d="m239.22,112.81c-2.66-.93-4.8-3.01-6.46-5.12-.39,1.53-1.05,3.39.39,4.89,1.45,1.5,3.96,1.8,6.07.24Z"></path><path class="cls-3" d="m199.97,115.33c1.76-1.42,4.74-3.89,7.12-6.13.19-.18.38-.4.6-.55.3-.2.59-.03.51.32-.74,3.36-4.63,7.38-4.63,7.38,0,0,4.55-.81,8.66-.84.47,0,.74-.19.89-.61.08-.22.18-.44.26-.66,1.39-3.98,2.11-6.25,3.39-10.26.1-.31,1.16-3.23.47-3.15-1.32.15-6.43,4.18-9.38,5.6-3.78,1.81-6.88,3.51-10.25,6.02-1.99,1.48-3.47,2.83-5.2,4.62-.46.47-1.09,1.22-1.43,1.86,1.79-.53,3.9-.91,5.37-1.54,1.47-.63,2.97-1.52,3.63-2.05Z"></path><path class="cls-3" d="m338.55,182.8c-.59-.71-3.67-4.73-10.84-9.92-10.01-7.25-28.04-17.25-58.86-27.85.07,0-30.79-12.3-62.43-11.14,0,0-40.25.42-62.19,24.51-2.73,3.05-4.43,6.58-5.14,10.6-.08.46-.17.99.24,1.44.31-.36.42-.74.53-1.11.57-2.04,1.66-3.83,2.89-5.51,16.48-23.29,60.16-23.94,63.03-24.08,45.94-2.36,89.85,19.99,97.43,23.6,7.49,3.56,14.76,7.53,21.47,12.46,4.12,3.03,7.99,6.32,11.12,10.39,2.24,2.9,3.89,5.92,3.94,8.86.04,2.16-.47,4.23.26,4.76.74.53,1.51-2.08,1.57-2.28.44-1.48.63-3,.66-4.54.08-4.48-1.95-8.07-3.69-10.17Z"></path><path class="cls-3" d="m282.56,203.01c-2.42-.83-4.77-1.85-7.31-2.28-.24-.04-.52-.13-.51-.4.01-.28.3-.35.54-.34,1.01.05,2.02,0,3.04.15,3.4.49,6.73,1.25,10.01,2.28,4.69,1.47,9.16,3.43,13.42,5.86,4.15,2.38,8.12,5.02,11.87,7.99.76.6,1.4,1.37,2.41,1.84-.08-1.68-.07-3.25-.24-4.82-.26-2.39-.58-4.77-1.15-7.1-.73-2.96-1.93-5.75-3.19-8.52-2.42-5.33-5.13-10.49-8.48-15.3-.58-.84-1.28-1.46-2.15-1.97-2.35-1.38-4.69-2.76-7.09-4.06-3.06-1.66-6.17-3.19-9.4-4.48-4.06-1.62-8.26-2.91-12.28-4.63-.23-.1-.5-.13-.75-.19.11.33.33.59.54.86.64.85,1.29,1.7,1.89,2.57.24.35.81.76.4,1.2-.37.4-.87-.09-1.31-.22-.07-.02-.13-.08-.2-.13-1.54-1.11-3.17-2.06-4.78-3.07-3.88-2.43-7.77-4.84-11.81-7-5.35-2.87-10.99-5.64-17.06-6.44-2.12-.28-4.26-.26-6.38-.04-3.36.35-6.35,1.78-9.22,3.49-2.54,1.51-4.91,3.77-7.25,5.59-3.96,3.07-8,6.03-12.01,9.04-2.36,1.78-4.5,3-7.24,4.23-1.94.87-4.09,1.29-6.17,1.52-.16.02-.32,0-.47-.01-.2-.02-.36-.06-.42-.32-.06-.26.08-.42.27-.5.36-.15.75-.23,1.11-.37,3.33-1.31,5.93-2.87,8.75-5.04,3.91-3.01,7.22-6.38,11.19-9.3,1.46-1.07,6.15-4.34,6.15-4.34,0,0-1.57.11-2.21.08-2.57-.13-26.17-.08-37.21,9.3-.06.05-6.31,4.65-7.88,11.19,0,0-.79,2.21,1.75,1.56.02,0,1.93-.38,3.25-1.01.27-.13.54-.37.85-.1.12.14-.1.44-.1.44-3.51,4.3-12.06,4.2-12.06,4.2,0,0-9.56.16-14.82,1.05-1.81.38-7.87,2.8-4.83,9.77.93,2.13,1.61,2.83,3.1,6.42.87,1.72,1.14,3.08,1.09,4.17,0,0,0,0,0,0,0,.36.09.9.16,1.1.08.2.12.24.63.2s1.89.12,1.85.39-.75.43-1.73.43-19.18,9.59-13.09,30.98c.83,2.9,1.14,6.58,1.22,8.39.16,3.72.4,7.07-.08,10.76-.44,3.4-.64,6.74-1.41,10.08-.83,3.61-1.62,7.66-1.9,11.35-.22,2.89-.25,6.03.47,8.83,1.43,5.51,4.78,9.58,8.73,13.66,2.86,2.95,6.39,4.86,10.17,6.33.67.26,1.41.54,2.26.18-.48-.79-.96-1.47-1.34-2.2-2.99-5.59-5.14-11.51-6.76-17.63-.94-3.54-1.7-7.12-2.31-10.74-.5-2.99-1.03-5.98-1-9.03.03-3.27-.1-6.54.44-9.8.38-2.29.62-4.61,1.11-6.88.14-.64-.03-.9-.56-1.2-2.31-1.29-4.25-3-5.63-5.29-1.29-2.15-1.47-4.36-.25-6.63.58-1.09,1.37-2.02,2.2-2.92.63-.69.64-.68.19-1.51-.26-.48-.57-.95-.78-1.46-1.98-4.74-1.85-9.62.47-14.02,4.71-8.93,12.14-11.1,13.24-11.4.7-.19,1.18-.52,1.47-1.21.8-1.92,2.45-3.22,2.47-3.23.63-.51.91-.91.34-1.05-.41-.1-1.59.01-1.84,0-1.08-.05-2.9.17-4.03-1.36-.26-.36-.89-.81-1.25-.9-.74-.18-1.22.14-1.52.39-.25.21-.79.55-1.01.33-.11-.11,0-.31.19-.6.46-.64.89-.7,1.37-1.33,2.02-2.63,4.58-4.43,7.88-5.05.94-.18,1.89-.12,2.84-.09.56.02,1.02-.72,1.31-1.41.43-1,1.11-2.1,1.4-2.1.35,0-.23,3.45.76,4.19,2.21,1.63,2.56,3.67,3.55,4.1.99.43,3.64.29,5.38.13.55-.05.68-.23.56-.79-.09-.42-.24-.83-.36-1.25-.66-2.37-.32-4.33.89-6.45.19-.34.72-.88.75-.37s.02,1.24.12,1.84c.46,2.79,2.59,4.97,5.11,5.15,2.45.17,4.88-.06,7.24-.82,3.45-1.11,6.55-2.92,9.55-4.91,4.93-3.27,9.8-6.65,14.72-9.94,4.6-3.07,9.34-5.91,14.45-8.08,3.13-1.33,6.35-2.34,9.73-2.82,2.01-.29,4.02-.21,6.03-.17,2.42.05,4.76.61,6.97,1.64,2.25,1.05,4.06,2.69,5.79,4.44,3.13,3.16,5.25,6.88,6.33,11.19.46,1.83.79,3.7.99,5.58.05.48.05,1.1-.43,1.25-.52.17-.82-.41-.99-.82-.92-2.2-2.57-3.75-4.48-5.07-1.39-.96-1.58-.85-2.12.7-1.05,3.04-2.82,5.65-5.12,7.87-1.56,1.51-3.33,2.8-5.27,3.8-1.82.94-3.59,1.97-5.67,2.32-1.44.24-2.89.34-4.34.47-2.72.25-5.43.25-8.15,0-.86-.08-1.74-.07-2.6-.09-.25,0-.49.07-.57.34-.06.21.08.37.22.52.29.32.6.63.87.96.14.18.32.39.18.64-.15.27-.43.34-.72.29-.85-.15-1.73-.16-2.56-.43-.58-.19-1.17-.21-1.83-.25.24.45.6.52.92.66,1.15.52,2.31,1.03,3.45,1.56,1.75.82,3.5,1.64,5.16,2.65.84.51.95.44,1.39-.48.51-1.07,1.02-2.14,1.54-3.2.39-.81.69-.86,1.28-.24,1.06,1.13,1.92,2.39,2.62,3.78,1.49,2.96,2.2,6.14,2.86,9.35.39,1.89.5,3.82.79,5.73.33,2.23.48,4.46.59,6.7.04.79.29,1.2,1,1.51,3.19,1.37,6.36,2.77,9.53,4.2,26.89,10.08,27.31,34.67,27.31,34.67,2.52,28.27,16.97,32.27,29.02,33.64,14.75,1.3,24-13.5,25.96-17.03,1.8-3.26,13.55-26.75-2.62-48.63-2.52-4.08-20.25-26.05-47.38-37.27Z"></path><path class="cls-1" d="m183.96,134.52c.88-.35,10.89-5.16,33.19-5.16.08,0,37.6.32,86.73,24.98.02.01.2-6.46.2-6.46,0,0-43.11-31.45-94.82-28.87-.07,0-21.6.88-23.41,7.39,0,0-2.36,4.76-3,6.5-.63,1.73.22,1.96,1.09,1.61Z"></path><path class="cls-1" d="m262.5,123.95c8.94,3.32,17.82,7.08,26.44,11.17,1.49.71,2.93,1.55,4.41,2.29.9.45,1.06.36,1.36-.55.07-.22.14-.45.21-.68,1.46-4.54,3.77-8.66,6.26-12.7,2.62-4.26,5.74-8.11,9.57-11.36.53-.45.54-.62-.04-1.26-1.42-1.59-2.87-3.15-4.45-4.59-3.23-2.91-6.62-5.6-10.11-8.19-4-2.97-8.07-5.8-12.43-8.22-3.28-1.83-7.21-4.29-10.24-4.96-.97-.21-1.53.28-2.09,1.1-2.65,3.91-7.17,9.7-10.4,36.15-.11.55-.05,1.31,1.52,1.79Zm37.45-6.54c.01,2.16-2.02,3.97-4.44,3.95-1.8-.01-3.11-1.36-3.07-3.15.05-2.06,2.12-3.9,4.4-3.91,1.82,0,3.11,1.28,3.12,3.11Zm-5.51-12.26c1.99-.03,3.55,1.57,3.53,3.63-.03,2.35-2.24,4.7-4.44,4.72-1.81.01-3.29-1.6-3.28-3.59,0-2.4,2.06-4.72,4.2-4.75Zm-9.35-5.48c1.94,0,3.68,2.06,3.65,4.31-.03,2.24-1.8,4.22-3.77,4.22-1.97,0-3.67-1.96-3.69-4.27-.02-2.37,1.67-4.26,3.81-4.27Zm-10.4,2.01c2.18-.35,4.19,1.74,4.18,4.35,0,2.67-2.28,4.68-4.59,4.06-1.7-.46-2.85-2.35-2.71-4.48.13-2.04,1.41-3.66,3.12-3.93Zm-2.89,13.43c1.04-1.4,2.42-2.35,4.09-2.87,2.45-.77,4.94-1.32,7.47-1.77,2.45-.44,4.26.44,5.53,2.49,1.88,3.05,2.66,6.44,2.91,9.44.05,3.72-1.58,5.1-4.71,4.5-2.15-.41-3.93-1.44-5.07-3.34-.65-1.09-1.52-1.49-2.77-1.34-1.99.25-3.93.03-5.79-.8-2.75-1.23-3.46-3.88-1.66-6.31Z"></path><path class="cls-1" d="m153.93,209.16c-1.97.56-4.47,2.21-5.96,3.6-2.42,2.26-3.97,4.78-5.25,7.54-1.63,3.51-1.5,7.07-.07,10.74.27.7.37.73,1.03.39.14-.07.28-.15.41-.24,2.96-2,6.18-3.48,9.57-4.57,4.13-1.34,8.26-2.63,12.62-2.99,1.3-.11,4.74-.3,4.74-.3,0,0-1.22-7.69-.31-10.75.02-.07.03-.15.04-.23.03-.31-.06-.53-.42-.58-1.77-.26-3.22-.66-4.65-1.66-.84-.59-1.3-1.76-2.08-2.43-.54-.46-2.19-.69-2.85-.47-.9.3-3.9,1.69-5.43,4.41-.27.49-.88,1.55-1.16,1.41-.28-.14.2-1.41.41-2.12.48-1.64.04-1.94-.65-1.74Z"></path><path class="cls-1" d="m184.52,201.52c-.05,0-7.04,7.99-11.51,9.62,0,0,1.12,11.36,1.94,11.25,1.41-.19,4.03-.32,5.45-.44,5.58-.48,11.13-.16,16.65.64,6.79.99,13.49,2.47,20.16,4.06.84.2,1.37.01,1.97-.59,3.42-3.4,6.07-7.36,8.49-11.49.54-.93.51-.99-.4-1.56-3.66-2.28-16.55-12.07-42.77-11.49Z"></path><path class="cls-1" d="m212.12,194.48c2.2.65,5.16,1.3,7.44,1.57,3.54.42,6.61-.54,9.33-2.8,1.73-1.44,3.94-4.88,5.02-6.81.2-.36-7.83-1.26-18.55,4.31-.94.49-3.69,1.89-4.57,2.49-.49.33-.44.59.1.82.4.17.81.3,1.23.42Z"></path><path class="cls-1" d="m224.51,228.14c2.05.42,4.05,1,6.04,1.64,1.27.41,2.54.85,3.81,1.27,1.24.41,1.32.36,1.27-.99,0-.28-.04-.55-.05-.83-.1-1.89-.32-3.77-.59-5.64-.44-3.01-1.18-5.95-2.17-8.81-.15-.42-.24-.92-.73-1.17-1.04,2.61-2.48,4.95-3.9,7.3-1.41,2.35-3,4.58-4.61,6.8.33.3.64.37.94.43Z"></path><path class="cls-1" d="m225.45,335.5c-3.23-.13-54.12-3.29-69.05-51.82,0-.03-7.88-26.41,8.6-35.7.02-.06,11.58-7.63,40.16-7.78.15-.01-2.35-1.26-3.84-1.57-4.98-1.03-10-1.26-15.07-1.02-7.36.35-14.6,1.44-21.75,3.15-2.68.64-5.31,1.5-8.03,2-2.89.53-5.8.68-8.71.13-.78-.15-1.5-.49-2.16-.94-2.42-1.65-2.56-4.81-.27-6.65,1.42-1.14,3.03-2,4.65-2.81,3.76-1.88,7.72-3.18,11.83-4.03,32.41-7.03,72.45,6.74,72.45,6.74,33.63,11.98,34.47,24.59,35.1,35.89.38,4.68,1.41,13.96,1.41,14.01,1.96,17.69,19.62,26.65,19.62,26.65,0,0-29.65,23.75-64.96,23.75Z"></path><path class="cls-4" d="m115.19,248.66l3.08,5.41-17.68,10.05c-1.47-2.32-2.47-3.96-3.02-4.91-1.04-1.84-1.47-3.49-1.27-4.97.2-1.48,1.02-2.64,2.48-3.46,1.4-.8,2.93-.69,4.58.33-.49-2.63.47-4.63,2.86-5.99,1.61-.91,3.23-1.03,4.87-.36,1.64.68,3,1.98,4.1,3.9Zm-13.87,10.89l4.24-2.41c-.24-.5-.51-1.02-.82-1.55-1.16-2.04-2.51-2.63-4.05-1.75-1.36.77-1.51,2.09-.45,3.95.28.49.64,1.08,1.08,1.76Zm6.69-3.8l5.84-3.32c-.31-.67-.57-1.2-.79-1.59-.8-1.4-1.61-2.28-2.45-2.64-.83-.36-1.8-.23-2.9.4-1.01.57-1.57,1.28-1.7,2.13-.12.85.23,2.01,1.06,3.47.17.31.49.83.94,1.56Z"></path><path class="cls-4" d="m91.47,247.34l-1.3-3.37,12.87-4.96c1.02-.39,1.73-1.02,2.13-1.89.4-.87.39-1.85-.03-2.94-.47-1.22-1.15-2.05-2.04-2.48-.89-.44-1.88-.45-2.96-.03l-12.8,4.94-1.3-3.37,13.06-5.03c1.95-.75,3.73-.69,5.34.19,1.61.88,2.84,2.42,3.68,4.6.85,2.2.96,4.11.35,5.72s-1.94,2.81-3.95,3.58l-13.05,5.03Z"></path><path class="cls-4" d="m104.18,222.7l-19.84,4.49-.8-3.52,16.72-3.78-2.03-8.97,3.13-.71,2.83,12.49Z"></path><path class="cls-4" d="m101.09,208.07l-20.26,1.88-.33-3.59,17.07-1.59-.85-9.15,3.19-.3,1.19,12.75Z"></path><path class="cls-4" d="m100.07,188.72l-.21,4.51-20.31-.96c.03-2.88.07-4.69.1-5.43.14-2.96,1.12-5.27,2.93-6.92,1.82-1.65,4.16-2.41,7.03-2.28,7.31.34,10.79,4.04,10.46,11.08Zm-17.2.09l13.87.65c.08-.58.14-1.21.17-1.88.09-1.82-.51-3.28-1.78-4.37-1.27-1.09-3.1-1.7-5.48-1.81-4.35-.21-6.61,1.71-6.81,5.76-.02.39-.01.94.02,1.66Z"></path><path class="cls-4" d="m90.54,174.73c-2.84-.59-5.08-1.86-6.72-3.82-1.64-1.96-2.19-4.24-1.65-6.85.59-2.86,1.93-4.87,4.03-6.02s4.74-1.39,7.95-.72c3.21.67,5.59,1.98,7.15,3.96,1.56,1.97,2.04,4.41,1.43,7.33-.55,2.67-1.91,4.53-4.08,5.57-2.16,1.04-4.87,1.23-8.11.55Zm.76-3.67c2.33.48,4.22.46,5.66-.06,1.44-.52,2.32-1.54,2.63-3.04.37-1.77.02-3.25-1.04-4.43-1.06-1.19-2.78-2.03-5.17-2.52-4.67-.97-7.36.27-8.07,3.72-.33,1.58.06,2.92,1.15,4.02,1.09,1.11,2.71,1.88,4.84,2.32Z"></path><path class="cls-4" d="m92.92,136.54l2.17,2.45c-.51.26-1.09.74-1.76,1.44-.67.7-1.11,1.34-1.34,1.94-.71,1.87-.64,3.59.21,5.15.85,1.56,2.35,2.75,4.47,3.56,2.03.77,3.85.86,5.46.26,1.61-.6,2.77-1.81,3.47-3.63.46-1.2.51-2.32.15-3.35l-3.74-1.43-1.01,2.63-2.88-1.1,2.29-6.01,8.51,3.25c.35,1.06.47,2.29.35,3.69-.11,1.41-.41,2.74-.89,3.99-1.04,2.73-2.76,4.55-5.15,5.46-2.4.92-5.06.81-7.99-.31-2.93-1.12-4.99-2.9-6.16-5.34s-1.2-5.13-.07-8.07c.79-2.08,2.09-3.62,3.9-4.61Z"></path><path class="cls-4" d="m111.4,126.06l6.25,4.12-1.99,3.02-16.98-11.18c1.24-2.07,1.97-3.27,2.19-3.61,1.77-2.68,3.47-4.37,5.11-5.07,1.64-.7,3.34-.47,5.08.68,3.9,2.57,4.33,6.15,1.31,10.74-.22.34-.55.78-.98,1.32Zm-8.12-5.35l5.44,3.58c.39-.47.68-.86.88-1.15.91-1.38,1.34-2.53,1.3-3.47-.04-.94-.58-1.75-1.62-2.43-1.76-1.16-3.58-.32-5.45,2.52-.21.32-.39.64-.54.96Z"></path><path class="cls-4" d="m132.16,111.46l-9.89-1.49c-.37.4-.9.95-1.59,1.65l6.37,5.63-2.48,2.81-15.25-13.47c.13-.15.63-.76,1.48-1.83s1.55-1.91,2.1-2.54c3.42-3.87,6.63-4.48,9.63-1.84.9.8,1.49,1.79,1.76,2.98.27,1.19.2,2.33-.21,3.41l10.85,1.56-2.76,3.12Zm-18.01-5.6l4.24,3.74c.48-.46.84-.83,1.07-1.09,1-1.13,1.57-2.1,1.71-2.91.14-.81-.25-1.62-1.17-2.43-.75-.66-1.52-.84-2.32-.54-.79.3-1.73,1.05-2.79,2.26-.26.29-.51.62-.75.97Z"></path><path class="cls-4" d="m150.06,96.29l-3.67-2.41-5.57,4.19,1.34,4.15-3.21,2.41-5.91-21.36,1.27-.95,18.93,11.57-3.19,2.39Zm-12.64-8.52l2.56,7.48,3.91-2.94-6.47-4.54Z"></path><path class="cls-4" d="m167.62,86.58l-1.32.69-9.88-9.32,2.11,13.38-1.32.69-15.47-15.19,3.34-1.74,9.07,9.12-2.03-12.79,1.4-.73,9.35,8.97-2.31-12.65,3.34-1.74,3.71,21.33Z"></path><path class="cls-4" d="m184.5,80.15l-2.69-3.46-6.63,2.16-.07,4.36-3.82,1.25,1.31-22.12,1.5-.49,14.18,17.07-3.79,1.24Zm-9.21-12.15v7.9s4.66-1.52,4.66-1.52l-4.66-6.38Z"></path><path class="cls-4" d="m200.93,76.84l-6.76-7.37c-.54.08-1.3.18-2.28.29l1.43,8.38-3.7.63-3.41-20.06c.2-.03.96-.2,2.3-.5,1.33-.3,2.41-.52,3.23-.65,5.09-.87,7.98.67,8.65,4.62.2,1.19.03,2.33-.5,3.42-.54,1.1-1.3,1.94-2.3,2.52l7.47,8.03-4.11.7Zm-10.5-15.67l.95,5.57c.67-.06,1.17-.11,1.52-.17,1.49-.25,2.54-.65,3.16-1.19.62-.54.82-1.41.62-2.63-.17-.99-.65-1.61-1.46-1.88-.81-.27-2-.26-3.59,0-.38.07-.78.16-1.19.29Z"></path><path class="cls-4" d="m210.44,76.1l-4.51.1-.44-20.33c2.88-.16,4.69-.25,5.43-.27,2.96-.06,5.33.75,7.1,2.45s2.69,3.98,2.75,6.85c.16,7.31-3.29,11.05-10.33,11.2Zm-1.27-17.16l.3,13.89c.58.04,1.21.06,1.89.04,1.82-.04,3.24-.73,4.24-2.08,1-1.35,1.48-3.21,1.43-5.59-.09-4.35-2.16-6.48-6.21-6.4-.39,0-.94.05-1.65.13Z"></path><path class="cls-4" d="m222.56,74.95l1.69-3.07c1.3,1.16,2.64,1.81,4.01,1.97,2.11.24,3.24-.38,3.41-1.85.08-.69-.09-1.38-.52-2.06s-1.37-1.5-2.83-2.45c-1.46-.95-2.43-1.71-2.91-2.27-.48-.56-.83-1.21-1.04-1.93-.21-.72-.27-1.5-.17-2.34.18-1.56.9-2.8,2.16-3.7,1.26-.9,2.79-1.25,4.59-1.04,2.34.27,4,.9,5,1.9l-1.44,2.97c-1.16-1.05-2.44-1.65-3.83-1.81-.83-.09-1.5.05-2,.44-.51.38-.8.93-.88,1.63-.13,1.16,1.01,2.51,3.44,4.05,1.28.82,2.18,1.54,2.72,2.16.54.62.92,1.32,1.15,2.1s.29,1.62.19,2.53c-.19,1.64-.99,2.91-2.4,3.82-1.41.91-3.2,1.24-5.38,1-1.89-.21-3.53-.89-4.94-2.04Z"></path><path class="cls-4" d="m368.86,175.67v-4.64l8.9-16.78c.45-.84.71-1.57.77-2.2.06-.63.1-1.41.1-2.35,0-.42,0-.86-.02-1.33-.02-.47-.11-.88-.27-1.23-.16-.35-.4-.65-.73-.89s-.79-.36-1.4-.36c-.74,0-1.33.21-1.77.63-.44.42-.65,1.03-.65,1.84v2.8h-4.93v-2.71c0-1.03.19-2,.58-2.9.39-.9.92-1.69,1.6-2.37.64-.68,1.42-1.22,2.32-1.62.9-.4,1.87-.6,2.9-.6,1.29,0,2.39.23,3.31.7.92.47,1.68,1.1,2.3,1.91.58.81,1.01,1.73,1.28,2.76.27,1.03.41,2.13.41,3.29,0,.84-.02,1.54-.05,2.1-.03.56-.1,1.1-.19,1.62-.1.52-.26,1.03-.48,1.55s-.53,1.14-.92,1.89l-7.25,13.98h8.9v4.93h-14.7Z"></path><path class="cls-4" d="m388.06,148.35c0-1.16.2-2.19.6-3.09.4-.9.94-1.68,1.62-2.32.68-.64,1.46-1.14,2.35-1.47.89-.34,1.81-.51,2.78-.51s1.89.17,2.78.51c.89.34,1.67.83,2.34,1.47.68.65,1.22,1.42,1.62,2.32.4.9.6,1.93.6,3.09v20.21c0,1.16-.2,2.19-.6,3.09-.4.9-.94,1.68-1.62,2.32-.68.65-1.46,1.14-2.34,1.48-.89.34-1.81.51-2.78.51s-1.89-.17-2.78-.51c-.89-.34-1.67-.83-2.35-1.48-.68-.64-1.22-1.42-1.62-2.32-.4-.9-.6-1.93-.6-3.09v-20.21Zm4.93,20.21c0,.71.23,1.3.68,1.76.45.47,1.03.7,1.74.7s1.29-.23,1.74-.7c.45-.47.68-1.06.68-1.76v-20.21c0-.71-.23-1.3-.68-1.76-.45-.47-1.03-.7-1.74-.7s-1.29.23-1.74.7c-.45.47-.68,1.06-.68,1.76v20.21Z"></path><path class="cls-4" d="m407.25,175.67v-4.64l8.9-16.78c.45-.84.71-1.57.77-2.2.06-.63.1-1.41.1-2.35,0-.42,0-.86-.02-1.33-.02-.47-.11-.88-.27-1.23-.16-.35-.4-.65-.73-.89s-.79-.36-1.4-.36c-.74,0-1.33.21-1.77.63-.44.42-.65,1.03-.65,1.84v2.8h-4.93v-2.71c0-1.03.19-2,.58-2.9.39-.9.92-1.69,1.6-2.37.64-.68,1.42-1.22,2.32-1.62.9-.4,1.87-.6,2.9-.6,1.29,0,2.39.23,3.31.7.92.47,1.68,1.1,2.3,1.91.58.81,1.01,1.73,1.28,2.76.27,1.03.41,2.13.41,3.29,0,.84-.02,1.54-.05,2.1-.03.56-.1,1.1-.19,1.62-.1.52-.26,1.03-.48,1.55s-.53,1.14-.92,1.89l-7.25,13.98h8.9v4.93h-14.7Z"></path><path class="cls-4" d="m432.3,155.75c1.48,0,2.51-.18,3.07-.53.56-.35.85-1.18.85-2.47v-4.45c0-.71-.22-1.29-.65-1.74-.44-.45-1.02-.68-1.76-.68-.87,0-1.49.27-1.86.82-.37.55-.56,1.08-.56,1.6v2.8h-4.93v-2.85c0-1,.19-1.95.58-2.85.39-.9.92-1.68,1.6-2.32.68-.64,1.47-1.16,2.37-1.55.9-.39,1.87-.58,2.9-.58,1.35,0,2.47.27,3.36.8.89.53,1.55,1.07,2.01,1.62.32.39.6.77.85,1.16s.44.85.6,1.4c.29,1.06.44,2.64.44,4.74,0,1.19-.02,2.16-.07,2.9-.05.74-.17,1.35-.36,1.84-.23.52-.54.95-.94,1.31-.4.36-.96.74-1.67,1.16.77.48,1.36.94,1.76,1.35.4.42.7.9.89,1.45.19.58.31,1.26.34,2.05.03.79.05,1.8.05,3.02,0,1.13-.02,2.06-.07,2.8-.05.74-.12,1.35-.22,1.84-.1.52-.23.95-.39,1.31-.16.35-.37.73-.63,1.11-.61.9-1.4,1.65-2.35,2.25-.95.6-2.2.89-3.75.89-.77,0-1.6-.13-2.47-.39-.87-.26-1.66-.68-2.37-1.26-.71-.58-1.3-1.34-1.76-2.27-.47-.93-.7-2.08-.7-3.43v-2.8h4.93v2.56c0,.77.22,1.41.65,1.91.44.5,1.02.75,1.77.75s1.33-.25,1.76-.75c.44-.5.65-1.17.65-2.01v-4.93c0-1.35-.26-2.24-.77-2.66-.29-.26-.69-.42-1.18-.48-.5-.06-1.15-.1-1.96-.1v-4.35Z"></path><path class="cls-4" d="m394.57,224.41l-5.03,33.75h-4.55l-3.7-21.9h-.09l-3.65,21.9h-4.55l-5.03-33.75h5.12l2.42,21.43h.09l3.79-21.43h3.7l3.94,21.95h.09l2.32-21.95h5.12Z"></path><path class="cls-4" d="m398.41,258.16v-33.75h4.84v33.75h-4.84Z"></path><path class="cls-4" d="m408.41,258.16v-33.75h4.65l7.3,20.34h.1v-20.34h4.84v33.75h-4.55l-7.4-20.29h-.1v20.29h-4.84Z"></path><path class="cls-4" d="m430.12,258.16v-33.75h4.65l7.3,20.34h.1v-20.34h4.84v33.75h-4.55l-7.4-20.29h-.1v20.29h-4.84Z"></path><path class="cls-4" d="m452.03,258.16v-33.75h14.41v4.55h-9.58v9.91h8.34v4.55h-8.34v9.91h9.58v4.84h-14.41Z"></path><path class="cls-4" d="m470.23,258.16v-33.75h7.77c5.69,0,8.53,3.3,8.53,9.91,0,1.99-.31,3.68-.92,5.07s-1.7,2.51-3.25,3.37l5.21,15.41h-5.12l-4.5-14.41h-2.89v14.41h-4.84Zm4.84-29.2v10.52h2.75c.85,0,1.53-.12,2.04-.36s.9-.58,1.19-1.02c.25-.44.43-.99.52-1.64.1-.65.14-1.4.14-2.25s-.05-1.6-.14-2.25c-.09-.65-.28-1.21-.57-1.68-.6-.88-1.74-1.33-3.41-1.33h-2.51Z"></path><path class="cls-2" d="m378,214.98h-9.13v-29.82c4.02-.19,6.84-.29,8.45-.29,3.1,0,5.52.66,7.26,1.99,1.74,1.32,2.62,3.22,2.62,5.67s-1.25,4.23-3.75,5.6c3.71,1.29,5.56,3.95,5.56,7.99,0,2.72-1.03,4.87-3.08,6.47-2.05,1.6-4.7,2.39-7.94,2.39Zm-3.83-25.59v7.15c.81.05,1.67.08,2.57.08,3.45,0,5.17-1.3,5.17-3.89,0-2.29-1.57-3.44-4.71-3.44-.83,0-1.84.03-3.04.1Zm0,11.29v9.86c1.07.1,1.94.14,2.61.14,2.36,0,4.08-.4,5.14-1.2,1.07-.8,1.6-2.13,1.6-3.99,0-1.7-.5-2.93-1.49-3.71-.99-.77-2.72-1.16-5.19-1.16-.52,0-1.41.02-2.67.06Z"></path><path class="cls-2" d="m410.87,214.98l-7.96-12.32c-.8-.01-1.92-.06-3.36-.14v12.47h-5.5v-29.84c.3,0,1.45-.05,3.44-.15s3.61-.15,4.83-.15c7.58,0,11.37,2.93,11.37,8.8,0,1.77-.52,3.38-1.57,4.83-1.05,1.45-2.36,2.48-3.95,3.08l8.82,13.44h-6.11Zm-11.33-25.24v8.29c.98.08,1.72.12,2.24.12,2.21,0,3.83-.31,4.86-.94,1.03-.62,1.54-1.84,1.54-3.65,0-1.47-.55-2.49-1.65-3.08-1.1-.58-2.83-.88-5.19-.88-.57,0-1.17.04-1.79.12Z"></path><path class="cls-2" d="m418.43,199.8c0-4.25,1.16-7.85,3.49-10.79,2.33-2.94,5.44-4.41,9.34-4.41,4.29,0,7.57,1.33,9.84,3.99,2.27,2.66,3.4,6.4,3.4,11.2s-1.19,8.62-3.55,11.45c-2.37,2.83-5.73,4.24-10.09,4.24-4.01,0-7.08-1.4-9.22-4.2-2.14-2.8-3.21-6.63-3.21-11.49Zm5.5,0c0,3.49.59,6.19,1.77,8.11,1.18,1.91,2.9,2.87,5.15,2.87,2.65,0,4.67-.94,6.06-2.81,1.39-1.87,2.09-4.6,2.09-8.17,0-6.99-2.58-10.49-7.74-10.49-2.36,0-4.18.95-5.44,2.84s-1.89,4.44-1.89,7.65Z"></path><path class="cls-2" d="m469.1,215.38l-14.48-18.88v18.5h-5.09v-29.86h2.55l14.1,18.01v-18.01h5.09v30.25h-2.16Z"></path><path class="cls-2" d="m476.28,214.98v-1.71l12.45-23.43h-12.24v-4.71h19.45v1.71l-12.49,23.43h12.94v4.71h-20.11Z"></path><path class="cls-2" d="m506.7,189.84v6.99h9.86v4.5h-9.86v8.94h13.53v4.71h-18.82v-29.84h19.05v4.71h-13.75Z"></path><path d="m292.44,118.21c-.04,1.79,1.27,3.13,3.07,3.15,2.42.02,4.45-1.78,4.44-3.95-.01-1.83-1.3-3.11-3.12-3.11-2.28,0-4.35,1.85-4.4,3.91Z"></path><path d="m293.53,113.49c2.2-.02,4.42-2.37,4.44-4.72.02-2.06-1.54-3.66-3.53-3.63-2.14.04-4.19,2.36-4.2,4.75,0,1.99,1.47,3.6,3.28,3.59Z"></path><path d="m284.97,108.2c1.97,0,3.73-1.98,3.77-4.22.03-2.26-1.71-4.32-3.65-4.31-2.14,0-3.83,1.9-3.81,4.27.02,2.3,1.72,4.27,3.69,4.27Z"></path><path d="m325.28,220.69c-.62-.5-1.14-.95-1.58-1.22,0-.37.05-2.48.03-2.76-.04-.55,1.06-.8,1.55-.92,3.11-.77,6.07-1.14,9.01-2.38,3.84-1.62,7.39-3.73,10.46-6.6,4.47-4.2,7.69-12.73,5.06-20.3-1.36-3.91-3.53-7.3-6.28-10.35-3.75-4.18-8.16-7.58-12.89-10.54-6.12-3.83-12.42-7.35-18.92-10.5-1.31-.6-1.33-1.79-1.15-2.81.29-1.63,1.69-17.1,1.69-17.14.28-3.07-2.01-4.37-2.01-4.37,0,0-5.35-3.2-5.54-3.7-.25-.64.18-1.29.47-1.76,2.44-3.63,5.77-6.56,8.95-9.54,1.04-.97,2.19-1.81,3.25-2.76,1.17-1.05,1.45-2.28.91-3.75-.25-.67-.59-1.29-1.02-1.86-.69-.92-1.47-1.75-2.3-2.55-3.62-3.49-7.53-6.64-11.64-9.51-7.48-5.22-15.07-10.27-23.07-14.66-2.15-1.18-4.37-2.17-6.72-2.91-1.99-.62-3.55-.05-4.89,1.42-.19.2-.34.43-.51.65-2.28,3-4.01,6.32-5.64,9.71-1.52,3.17-2.78,6.44-3.89,9.77-.27.8-.31.83-1.07.58-.64-.21-1.26-.47-1.9-.66-6.47-1.99-12.65-4.65-18.63-7.79-1.4-.73-2.78-1.49-4.2-2.19-2.44-1.21-4.95-1.86-7.65-.91-.75.26-1.47.57-2.18.91-3.58,1.75-6.98,3.83-10.49,5.72-4.34,2.34-8.53,4.95-12.85,7.34-3.29,1.82-6.38,3.88-9.12,6.51-3.4,3.26-5.97,7.02-7.88,11.28-1.01,2.27-2.05,4.53-3.09,6.78-.86,1.86-1.77,3.7-2.44,5.64-.31.88-.81,1.32-1.72,1.54-5.08,1.22-9.93,3.08-14.7,5.2-1.59.7-3.2,1.34-4.78,2.07-1.9.88-3.65,2.02-5.43,3.12-4.67,2.87-8.9,6.29-12.6,10.33-2.81,3.07-4.9,6.56-5.88,10.66-.78,3.25-.61,6.4.71,9.5,1.05,2.44,2.64,4.47,4.53,6.3,1.02.99,2.14,1.87,3.27,2.73.66.51.64.6.04,1.18-3.22,3.14-4.16,6.96-3.31,11.29.49,2.49,1.48,4.82,2.59,7.09.57,1.17,1.15,2.34,1.75,3.49.26.49.21.81-.3,1.04-.14.06-.28.15-.42.23-4.35,2.6-7.96,5.96-10.55,10.34-2.49,4.22-3.61,8.81-3.34,13.71.19,3.56.91,7.03,1.71,10.5.56,2.42,1.12,4.85,1.27,7.34.3,5.04-.19,10.01-1.29,14.93-1.19,5.35-2.56,10.65-3.06,16.14-.27,3.05-.3,6.07.15,9.09.93,6.31,3.57,11.82,7.97,16.46,5.17,5.46,11.49,8.47,19.04,8.85,1.19.06,2.37.02,3.55-.05.52-.03.87.16,1.2.58,3.65,4.66,7.91,8.7,12.6,12.3,62.48,41.02,126.61-9.93,130.6-12.96.47-.35.92-.56,1.52-.45,2.59.45,5.19.34,7.8.11,26.51-2.64,33.95-37.21,33.96-37.27,4.95-26.34-9.57-46.22-15-53.12-1.15-1.46-2.46-2.77-3.72-4.13Zm-64.3-98.52c3.23-26.46,7.75-32.25,10.4-36.15.56-.83,1.12-1.32,2.09-1.1,3.03.67,6.96,3.13,10.24,4.96,4.35,2.42,8.43,5.26,12.43,8.22,3.49,2.59,6.89,5.28,10.11,8.19,1.59,1.43,3.03,3,4.45,4.59.58.65.57.81.04,1.26-3.83,3.25-6.95,7.1-9.57,11.36-2.48,4.04-4.8,8.16-6.26,12.7-.07.22-.14.45-.21.68-.3.91-.45,1-1.36.55-1.48-.74-2.91-1.58-4.41-2.29-8.62-4.09-17.49-7.85-26.44-11.17-1.58-.47-1.63-1.23-1.52-1.79Zm-28.22-14.48c1.67,2.12,3.8,4.19,6.46,5.12-2.11,1.56-4.62,1.26-6.07-.24-1.45-1.5-.78-3.35-.39-4.89Zm-35.16,4.76c3.37-2.5,6.47-4.2,10.25-6.02,2.95-1.42,8.06-5.44,9.38-5.6.68-.08-.38,2.85-.47,3.15-1.28,4.02-1.99,6.29-3.39,10.26-.08.22-.18.44-.26.66-.15.42-.42.61-.89.61-4.11.02-8.66.84-8.66.84,0,0,3.89-4.02,4.63-7.38.08-.35-.21-.52-.51-.32-.23.15-.42.37-.6.55-2.37,2.24-5.36,4.71-7.12,6.13-.66.53-2.15,1.42-3.63,2.05s-3.58,1.01-5.37,1.54c.34-.64.97-1.39,1.43-1.86,1.74-1.79,3.21-3.14,5.2-4.62Zm-14.74,20.47c.63-1.73,3-6.5,3-6.5,1.81-6.51,23.35-7.39,23.41-7.39,51.71-2.59,94.82,28.87,94.82,28.87,0,0-.18,6.47-.2,6.46-49.13-24.67-86.65-24.98-86.73-24.98-22.31,0-32.32,4.81-33.19,5.16-.88.35-1.73.12-1.09-1.61Zm-42.99,36.4c-.11.38-.21.76-.53,1.11-.41-.45-.32-.98-.24-1.44.71-4.01,2.41-7.54,5.14-10.6,21.93-24.09,62.19-24.51,62.19-24.51,31.64-1.16,62.5,11.14,62.43,11.14,30.81,10.6,48.85,20.6,58.86,27.85,7.16,5.19,10.24,9.21,10.84,9.92,1.74,2.09,3.77,5.68,3.69,10.17-.03,1.53-.21,3.06-.66,4.54-.06.2-.84,2.8-1.57,2.28-.74-.53-.22-2.6-.26-4.76-.05-2.94-1.71-5.96-3.94-8.86-3.13-4.07-7-7.35-11.12-10.39-6.71-4.93-13.97-8.9-21.47-12.46-7.59-3.61-51.49-25.96-97.43-23.6-2.87.15-46.55.79-63.03,24.08-1.23,1.69-2.32,3.47-2.89,5.51Zm85.58,166.19c-3.23-.13-54.12-3.29-69.05-51.82,0-.03-7.88-26.41,8.6-35.7.02-.06,11.58-7.63,40.16-7.78.15-.01-2.35-1.26-3.84-1.57-4.98-1.03-10-1.26-15.07-1.02-7.36.35-14.6,1.44-21.75,3.15-2.68.64-5.31,1.5-8.03,2-2.89.53-5.8.68-8.71.13-.78-.15-1.5-.49-2.16-.94-2.42-1.65-2.56-4.81-.27-6.65,1.42-1.14,3.03-2,4.65-2.81,3.76-1.88,7.72-3.18,11.83-4.03,32.41-7.03,72.45,6.74,72.45,6.74,33.63,11.98,34.47,24.59,35.1,35.89.38,4.68,1.41,13.96,1.41,14.01,1.96,17.69,19.62,26.65,19.62,26.65,0,0-29.65,23.75-64.96,23.75Zm-71.28-122.47c.28.14.88-.92,1.16-1.41,1.52-2.72,4.52-4.12,5.43-4.41.66-.22,2.31.01,2.85.47.78.66,1.24,1.84,2.08,2.43,1.42,1,2.87,1.39,4.65,1.66.36.05.45.27.42.58,0,.08-.02.16-.04.23-.92,3.05.31,10.75.31,10.75,0,0-3.44.19-4.74.3-4.36.37-8.5,1.66-12.62,2.99-3.39,1.1-6.61,2.57-9.57,4.57-.13.09-.27.17-.41.24-.66.34-.76.32-1.03-.39-1.42-3.67-1.55-7.23.07-10.74,1.28-2.76,2.84-5.28,5.25-7.54,1.49-1.39,4-3.04,5.96-3.6.69-.2,1.13.11.65,1.74-.21.71-.69,1.98-.41,2.12Zm73.12-.02c.91.57.95.63.4,1.56-2.42,4.13-5.07,8.09-8.49,11.49-.61.6-1.13.79-1.97.59-6.67-1.59-13.37-3.07-20.16-4.06-5.52-.81-11.07-1.12-16.65-.64-1.42.12-4.04.25-5.45.44-.82.11-1.94-11.25-1.94-11.25,4.47-1.63,11.46-9.62,11.51-9.62,26.22-.58,39.11,9.21,42.77,11.49Zm-16.49-19.77c.88-.6,3.63-2,4.57-2.49,10.72-5.57,18.75-4.67,18.55-4.31-1.08,1.94-3.29,5.37-5.02,6.81-2.72,2.26-5.79,3.22-9.33,2.8-2.28-.27-5.24-.92-7.44-1.57-.41-.12-.83-.25-1.23-.42-.54-.23-.59-.49-.1-.82Zm17.39,27.68c1.41-2.35,2.85-4.7,3.9-7.3.5.25.59.75.73,1.17,1,2.87,1.74,5.81,2.17,8.81.27,1.87.5,3.75.59,5.64.01.28.04.55.05.83.04,1.35-.03,1.41-1.27.99-1.27-.42-2.53-.86-3.81-1.27-1.99-.64-3.99-1.22-6.04-1.64-.3-.06-.61-.13-.94-.43,1.61-2.22,3.2-4.45,4.61-6.8Zm104.38,68c-1.95,3.53-11.2,18.33-25.96,17.03-12.05-1.38-26.5-5.37-29.02-33.64,0,0-.42-24.59-27.31-34.67-3.16-1.43-6.34-2.82-9.53-4.2-.72-.31-.96-.72-1-1.51-.11-2.24-.26-4.48-.59-6.7-.28-1.91-.4-3.84-.79-5.73-.66-3.21-1.37-6.39-2.86-9.35-.7-1.39-1.56-2.65-2.62-3.78-.58-.62-.88-.57-1.28.24-.52,1.06-1.03,2.13-1.54,3.2-.44.93-.55,1-1.39.48-1.65-1.01-3.4-1.84-5.16-2.65-1.14-.53-2.3-1.04-3.45-1.56-.32-.14-.68-.21-.92-.66.66.04,1.25.06,1.83.25.83.27,1.71.28,2.56.43.29.05.57-.02.72-.29.14-.25-.04-.47-.18-.64-.27-.34-.58-.64-.87-.96-.13-.15-.28-.31-.22-.52.08-.26.31-.34.57-.34.87.02,1.74.01,2.6.09,2.72.25,5.43.25,8.15,0,1.45-.13,2.9-.22,4.34-.47,2.08-.35,3.85-1.38,5.67-2.32,1.94-1,3.71-2.29,5.27-3.8,2.29-2.21,4.06-4.83,5.12-7.87.54-1.55.73-1.66,2.12-.7,1.91,1.32,3.56,2.86,4.48,5.07.17.41.48.99.99.82.47-.16.48-.78.43-1.25-.2-1.88-.53-3.74-.99-5.58-1.08-4.31-3.21-8.03-6.33-11.19-1.73-1.75-3.54-3.39-5.79-4.44-2.2-1.03-4.54-1.59-6.97-1.64-2.01-.04-4.02-.12-6.03.17-3.39.48-6.6,1.49-9.73,2.82-5.11,2.17-9.85,5-14.45,8.08-4.92,3.29-9.78,6.67-14.72,9.94-2.99,1.98-6.1,3.8-9.55,4.91-2.36.76-4.79,1-7.24.82-2.53-.18-4.65-2.36-5.11-5.15-.1-.6-.09-1.32-.12-1.84s-.56.03-.75.37c-1.21,2.12-1.55,4.08-.89,6.45.12.42.27.83.36,1.25.12.56-.02.74-.56.79-1.74.16-4.4.3-5.38-.13-.99-.43-1.34-2.47-3.55-4.1-1-.73-.41-4.19-.76-4.19-.3,0-.97,1.1-1.4,2.1-.3.69-.75,1.43-1.31,1.41-.95-.03-1.9-.08-2.84.09-3.31.62-5.86,2.42-7.88,5.05-.48.63-.91.68-1.37,1.33-.2.28-.3.49-.19.6.22.22.76-.13,1.01-.33.31-.26.79-.58,1.52-.39.36.09.99.54,1.25.9,1.13,1.53,2.95,1.31,4.03,1.36.25.01,1.43-.1,1.84,0,.57.14.29.54-.34,1.05-.01.01-1.67,1.31-2.47,3.23-.29.7-.78,1.03-1.47,1.21-1.1.3-8.53,2.47-13.24,11.4-2.32,4.4-2.44,9.28-.47,14.02.21.51.52.97.78,1.46.45.83.45.82-.19,1.51-.83.9-1.61,1.83-2.2,2.92-1.22,2.27-1.04,4.48.25,6.63,1.37,2.29,3.32,3.99,5.63,5.29.54.3.7.55.56,1.2-.49,2.27-.73,4.59-1.11,6.88-.54,3.26-.41,6.53-.44,9.8-.03,3.05.5,6.04,1,9.03.61,3.61,1.37,7.19,2.31,10.74,1.62,6.12,3.77,12.04,6.76,17.63.39.73.86,1.41,1.34,2.2-.86.36-1.59.08-2.26-.18-3.78-1.47-7.31-3.38-10.17-6.33-3.94-4.07-7.29-8.15-8.73-13.66-.73-2.8-.7-5.94-.47-8.83.28-3.69,1.07-7.74,1.9-11.35.77-3.34.97-6.68,1.41-10.08.48-3.68.24-7.04.08-10.76-.08-1.81-.39-5.49-1.22-8.39-6.1-21.39,12.1-30.98,13.09-30.98s1.69-.16,1.73-.43-1.34-.43-1.85-.39-.55,0-.63-.2c-.08-.2-.17-.74-.16-1.1,0,0,0,0,0,0,.05-1.09-.22-2.46-1.09-4.17-1.49-3.6-2.17-4.29-3.1-6.42-3.04-6.97,3.02-9.39,4.83-9.77,5.26-.89,14.82-1.05,14.82-1.05,0,0,8.55.11,12.06-4.2,0,0,.22-.3.1-.44-.31-.27-.58-.03-.85.1-1.33.63-3.23,1.01-3.25,1.01-2.54.64-1.75-1.56-1.75-1.56,1.58-6.54,7.82-11.14,7.88-11.19,11.04-9.38,34.64-9.43,37.21-9.3.64.03,2.21-.08,2.21-.08,0,0-4.69,3.26-6.15,4.34-3.97,2.93-7.29,6.29-11.19,9.3-2.82,2.18-5.42,3.73-8.75,5.04-.36.14-.75.22-1.11.37-.18.08-.33.24-.27.5.06.26.21.3.42.32.16.01.32.03.47.01,2.08-.23,4.22-.65,6.17-1.52,2.74-1.23,4.88-2.45,7.24-4.23,4-3.01,8.05-5.97,12.01-9.04,2.34-1.82,4.71-4.07,7.25-5.59,2.86-1.7,5.86-3.14,9.22-3.49,2.11-.22,4.26-.24,6.38.04,6.07.8,11.71,3.57,17.06,6.44,4.03,2.16,7.93,4.57,11.81,7,1.6,1.01,3.24,1.96,4.78,3.07.06.05.12.11.2.13.44.12.93.61,1.31.22.41-.44-.15-.85-.4-1.2-.6-.88-1.25-1.72-1.89-2.57-.2-.27-.43-.53-.54-.86.25.06.52.09.75.19,4.03,1.72,8.22,3.01,12.28,4.63,3.23,1.29,6.34,2.82,9.4,4.48,2.39,1.3,4.74,2.68,7.09,4.06.87.51,1.57,1.13,2.15,1.97,3.35,4.81,6.07,9.97,8.48,15.3,1.25,2.77,2.46,5.56,3.19,8.52.57,2.33.89,4.71,1.15,7.1.17,1.57.16,3.14.24,4.82-1.01-.47-1.65-1.24-2.41-1.84-3.75-2.97-7.72-5.62-11.87-7.99-4.26-2.44-8.73-4.39-13.42-5.86-3.28-1.03-6.61-1.8-10.01-2.28-1.02-.15-2.03-.1-3.04-.15-.24-.01-.53.06-.54.34,0,.27.26.36.51.4,2.54.43,4.9,1.45,7.31,2.28,27.13,11.22,44.86,33.19,47.38,37.27,16.17,21.88,4.42,45.37,2.62,48.63Z"></path><path d="m274.28,110.09c2.31.62,4.59-1.39,4.59-4.06,0-2.61-2.01-4.7-4.18-4.35-1.71.28-2.99,1.89-3.12,3.93-.13,2.13,1.02,4.03,2.71,4.48Z"></path><path d="m273.46,121.41c1.86.83,3.79,1.05,5.79.8,1.24-.15,2.11.25,2.77,1.34,1.14,1.9,2.92,2.93,5.07,3.34,3.13.6,4.76-.77,4.71-4.5-.25-3-1.03-6.39-2.91-9.44-1.26-2.05-3.08-2.93-5.53-2.49-2.53.45-5.02,1-7.47,1.77-1.67.52-3.05,1.47-4.09,2.87-1.8,2.42-1.09,5.07,1.66,6.31Z"></path></svg> 