<?xml version="1.0" encoding="UTF-8"?> <svg xmlns="http://www.w3.org/2000/svg" id="Layer_1" width="599.76" height="400.32" viewBox="0 0 599.76 400.32"><defs><style>.cls-1{fill:#3a357e;}</style></defs><path class="cls-1" d="m201.61,172.71h17.14c3.86,0,6.81.3,8.84.89,2.72.8,5.06,2.23,7,4.28,1.94,2.05,3.42,4.56,4.43,7.52,1.01,2.97,1.52,6.63,1.52,10.98,0,3.82-.48,7.12-1.43,9.88-1.16,3.38-2.82,6.11-4.97,8.2-1.63,1.58-3.82,2.82-6.59,3.71-2.07.65-4.84.98-8.3.98h-17.64v-46.44Zm9.38,7.86v30.76h7c2.62,0,4.51-.15,5.67-.44,1.52-.38,2.78-1.02,3.78-1.93,1-.91,1.82-2.4,2.46-4.48.63-2.08.95-4.92.95-8.51s-.32-6.35-.95-8.27c-.63-1.92-1.52-3.42-2.66-4.5s-2.59-1.81-4.34-2.19c-1.31-.3-3.88-.44-7.7-.44h-4.21Z"></path><path class="cls-1" d="m266.56,208.45l8.87,1.49c-1.14,3.25-2.94,5.73-5.4,7.43-2.46,1.7-5.54,2.55-9.23,2.55-5.85,0-10.18-1.91-12.99-5.73-2.22-3.06-3.33-6.93-3.33-11.59,0-5.58,1.46-9.94,4.37-13.1,2.91-3.16,6.6-4.74,11.06-4.74,5,0,8.95,1.65,11.85,4.96,2.89,3.3,4.28,8.37,4.15,15.19h-22.3c.06,2.64.78,4.69,2.15,6.16,1.37,1.47,3.08,2.2,5.13,2.2,1.39,0,2.57-.38,3.52-1.14.95-.76,1.67-1.98,2.15-3.67Zm.51-9c-.06-2.58-.73-4.53-2-5.88-1.27-1.34-2.81-2.01-4.62-2.01-1.94,0-3.55.71-4.81,2.12-1.27,1.42-1.89,3.34-1.87,5.77h13.3Z"></path><path class="cls-1" d="m291.07,219.15l-13.56-33.64h9.34l6.34,17.17,1.84,5.73c.49-1.46.79-2.42.92-2.88.3-.95.61-1.9.95-2.85l6.4-17.17h9.15l-13.37,33.64h-8.01Z"></path><path class="cls-1" d="m314.71,196.22c0-4.73.71-8.7,2.12-11.91,1.06-2.36,2.5-4.49,4.32-6.37,1.83-1.88,3.83-3.27,6-4.18,2.89-1.22,6.23-1.84,10.01-1.84,6.84,0,12.32,2.12,16.42,6.37,4.11,4.24,6.16,10.15,6.16,17.71s-2.04,13.36-6.11,17.6c-4.08,4.23-9.52,6.35-16.35,6.35s-12.4-2.11-16.47-6.32c-4.08-4.21-6.11-10.01-6.11-17.41Zm9.66-.32c0,5.26,1.21,9.24,3.64,11.96,2.43,2.71,5.51,4.07,9.25,4.07s6.81-1.35,9.2-4.04c2.4-2.69,3.6-6.73,3.6-12.12s-1.17-9.29-3.5-11.91c-2.33-2.62-5.43-3.93-9.3-3.93s-6.98,1.33-9.34,3.97c-2.37,2.65-3.55,6.65-3.55,11.99Z"></path><path class="cls-1" d="m365.86,185.51h8.3v4.94c1.07-1.69,2.53-3.06,4.37-4.12,1.84-1.06,3.88-1.58,6.11-1.58,3.91,0,7.22,1.53,9.95,4.59,2.72,3.06,4.09,7.33,4.09,12.8s-1.37,9.98-4.12,13.1c-2.75,3.11-6.07,4.67-9.98,4.67-1.86,0-3.54-.37-5.05-1.11-1.51-.74-3.1-2.01-4.77-3.8v16.95h-8.9v-46.44Zm8.81,16.25c0,3.78.75,6.57,2.25,8.38,1.5,1.81,3.33,2.71,5.48,2.71s3.79-.83,5.16-2.49c1.37-1.66,2.06-4.38,2.06-8.16,0-3.53-.71-6.15-2.12-7.86s-3.17-2.57-5.26-2.57-3.98.84-5.42,2.52c-1.44,1.68-2.15,4.17-2.15,7.46Z"></path><path class="cls-1" d="m401.71,209.55l8.93-1.36c.38,1.73,1.15,3.05,2.31,3.94,1.16.9,2.79,1.35,4.88,1.35,2.3,0,4.03-.42,5.19-1.27.78-.59,1.17-1.38,1.17-2.38,0-.68-.21-1.24-.63-1.68-.44-.42-1.44-.81-2.98-1.17-7.18-1.58-11.73-3.03-13.65-4.34-2.66-1.82-3.99-4.34-3.99-7.57,0-2.91,1.15-5.36,3.45-7.35,2.3-1.98,5.87-2.98,10.71-2.98s8.03.75,10.26,2.25c2.24,1.5,3.78,3.72,4.62,6.65l-8.4,1.55c-.36-1.31-1.04-2.31-2.04-3.01-1-.7-2.43-1.05-4.29-1.05-2.34,0-4.02.33-5.04.98-.68.46-1.01,1.07-1.01,1.81,0,.63.3,1.17.89,1.62.8.59,3.57,1.43,8.32,2.5,4.74,1.08,8.05,2.4,9.93,3.96,1.86,1.58,2.79,3.79,2.79,6.62,0,3.08-1.29,5.73-3.86,7.95-2.58,2.22-6.39,3.33-11.43,3.33-4.58,0-8.21-.93-10.88-2.79-2.67-1.86-4.42-4.38-5.24-7.57Z"></path><path class="cls-1" d="m440.03,219.15v-8.9h8.9v8.9h-8.9Z"></path><path class="cls-1" d="m486.04,195.46l-8.78,1.58c-.3-1.75-.97-3.07-2.01-3.96-1.05-.89-2.4-1.33-4.07-1.33-2.22,0-3.99.77-5.31,2.3-1.32,1.53-1.98,4.09-1.98,7.68,0,3.99.67,6.81,2.01,8.46s3.14,2.47,5.4,2.47c1.69,0,3.07-.48,4.15-1.44,1.08-.96,1.84-2.61,2.28-4.96l8.74,1.49c-.91,4.01-2.65,7.04-5.23,9.09-2.58,2.05-6.03,3.07-10.36,3.07-4.92,0-8.84-1.55-11.77-4.66-2.92-3.1-4.39-7.4-4.39-12.89s1.47-9.88,4.4-12.97c2.93-3.09,6.91-4.64,11.91-4.64,4.1,0,7.35.88,9.77,2.64,2.42,1.76,4.15,4.45,5.21,8.06Z"></path><path class="cls-1" d="m489.83,201.86c0-2.96.73-5.82,2.18-8.58,1.46-2.77,3.52-4.88,6.19-6.34,2.67-1.46,5.65-2.19,8.95-2.19,5.09,0,9.26,1.65,12.51,4.96,3.25,3.3,4.88,7.48,4.88,12.53s-1.64,9.31-4.93,12.65c-3.28,3.35-7.42,5.02-12.4,5.02-3.08,0-6.02-.7-8.82-2.09-2.8-1.39-4.93-3.44-6.38-6.13-1.46-2.69-2.18-5.97-2.18-9.84Zm9.12.48c0,3.34.79,5.89,2.38,7.67,1.58,1.77,3.54,2.66,5.86,2.66s4.27-.89,5.84-2.66c1.57-1.77,2.36-4.35,2.36-7.73s-.79-5.83-2.36-7.6c-1.57-1.77-3.52-2.66-5.84-2.66s-4.28.89-5.86,2.66c-1.59,1.77-2.38,4.33-2.38,7.67Z"></path><path class="cls-1" d="m530.4,185.51h8.21v4.59c2.93-3.57,6.43-5.35,10.48-5.35,2.15,0,4.02.44,5.61,1.33,1.58.89,2.88,2.23,3.9,4.02,1.48-1.79,3.07-3.14,4.78-4.02,1.71-.89,3.54-1.33,5.48-1.33,2.47,0,4.56.5,6.27,1.5,1.71,1,2.99,2.48,3.83,4.42.61,1.44.92,3.76.92,6.97v21.51h-8.9v-19.23c0-3.34-.3-5.49-.92-6.46-.82-1.27-2.09-1.9-3.8-1.9-1.25,0-2.42.38-3.52,1.14-1.1.76-1.89,1.87-2.37,3.34-.49,1.47-.73,3.78-.73,6.95v16.16h-8.9v-18.44c0-3.27-.16-5.39-.47-6.34-.32-.95-.81-1.66-1.47-2.12-.67-.46-1.57-.7-2.71-.7-1.37,0-2.61.37-3.71,1.11-1.1.74-1.88,1.81-2.36,3.2-.47,1.39-.71,3.71-.71,6.94v16.35h-8.9v-33.64Z"></path><path class="cls-1" d="m111.7,173.58c-.28-.74-.62-1.43-.92-2.14-2.44-5.76-5.72-10.75-9.96-14.87-3.44-3.34-7.4-5.94-11.84-7.82-1.71-.72-3.49-1.35-5.34-1.85-4.98-1.34-12.21-2.01-21.69-2.01H19.88v105h43.3c8.5,0,15.29-.74,20.37-2.22,1.55-.46,3.01-.96,4.42-1.5-5.54-4.13-10.34-9.18-14.19-14.93-2.87.64-7.43.96-13.7.96h-17.18v-69.55h10.34c9.38,0,15.68.34,18.89,1,.46.09,1.09.24,1.84.44,5.71,1.59,18.8,7.21,21.4,26.34.29,2.16.46,4.5.46,7.02,0,2.74-.18,5.25-.5,7.56,2.1,8.33,7.73,15.24,15.22,19.06.49-1.09.95-2.19,1.38-3.35,2.33-6.25,3.5-13.7,3.5-22.35,0-9.84-1.24-18.11-3.73-24.82Z"></path><path class="cls-1" d="m94.65,216.53c3.32,5.17,7.96,9.4,13.46,12.22-5.55-2.84-10.17-7.08-13.46-12.22Z"></path><path class="cls-1" d="m91.29,209.77c-.4-1.09-.74-2.2-1.03-3.33.29,1.13.64,2.24,1.03,3.33Z"></path><path class="cls-1" d="m92.74,213.15c-.51-1.03-.96-2.08-1.37-3.16.41,1.08.86,2.13,1.37,3.16Z"></path><path class="cls-1" d="m94.55,216.38c-.62-.97-1.19-1.98-1.71-3.02.52,1.04,1.09,2.04,1.71,3.02Z"></path><path class="cls-1" d="m92.85,213.37c-.04-.07-.07-.15-.11-.22.04.07.07.15.11.22Z"></path><path class="cls-1" d="m94.65,216.53s-.06-.1-.09-.15c.03.05.06.1.09.15Z"></path><path class="cls-1" d="m89.97,205.32l.25.99s.03.08.04.12c-.1-.37-.2-.74-.29-1.11h0Z"></path><path class="cls-1" d="m91.37,209.99c-.03-.07-.05-.15-.08-.22.03.07.05.15.08.22Z"></path><path class="cls-1" d="m123.89,142.82c-8.82,0-17.14,2.09-24.53,5.77,1.8,1.28,3.52,2.66,5.11,4.2,3.49,3.39,6.47,7.38,8.9,11.9,3.32-1.06,6.85-1.64,10.52-1.64,19.17,0,34.76,15.59,34.76,34.76s-15.59,34.76-34.76,34.76c-3.71,0-7.28-.6-10.63-1.68-1.79-.58-3.51-1.31-5.16-2.16-5.5-2.82-10.14-7.05-13.46-12.22-.03-.05-.06-.1-.09-.15-.62-.97-1.19-1.98-1.71-3.02-.04-.07-.07-.15-.11-.22-.51-1.03-.96-2.08-1.37-3.16-.03-.07-.05-.15-.08-.22-.4-1.09-.74-2.2-1.03-3.33-.01-.04-.03-.08-.04-.12l-.25-.99h0c-.53-2.42-.84-4.92-.84-7.5s.31-5.14.86-7.58c-1.91-11.85-8.44-17.28-13.82-19.74-4.62,8.05-7.28,17.38-7.28,27.33,0,10.85,3.15,20.95,8.57,29.47l.69,1.03c3.52,5.27,7.88,9.85,12.96,13.64l.93.69c8.99,6.4,19.97,10.17,31.85,10.17,30.38,0,55-24.62,55-55s-24.62-55-55-55Z"></path><path class="cls-1" d="m111.7,173.58c-.28-.74-.62-1.43-.92-2.14-2.44-5.76-5.72-10.75-9.96-14.87-3.44-3.34-7.4-5.94-11.84-7.82-1.71-.72-3.49-1.35-5.34-1.85-4.98-1.34-12.21-2.01-21.69-2.01H19.88v105h43.3c8.5,0,15.29-.74,20.37-2.22,1.55-.46,3.01-.96,4.42-1.5-5.54-4.13-10.34-9.18-14.19-14.93-2.87.64-7.43.96-13.7.96h-17.18v-69.55h10.34c9.38,0,15.68.34,18.89,1,.46.09,1.09.24,1.84.44,5.71,1.59,18.8,7.21,21.4,26.34.29,2.16.46,4.5.46,7.02,0,2.74-.18,5.25-.5,7.56,2.1,8.33,7.73,15.24,15.22,19.06.49-1.09.95-2.19,1.38-3.35,2.33-6.25,3.5-13.7,3.5-22.35,0-9.84-1.24-18.11-3.73-24.82Z"></path><path class="cls-1" d="m298.13,246.22v1.7h21.37v-3.4h-21.37v1.7Zm57.22,13.76v12.15h3.4l.03-5.75.03-5.74.22-.55c.14-.35.43-.77.78-1.14.94-1.01,2.1-1.48,3.65-1.48s2.43.45,3,1.64c.19.38.38.96.44,1.3.06.36.09,2.88.09,6.17v5.56h3.4v-5.89c0-4.65-.03-6.07-.14-6.78-.51-3.39-2.46-5.12-5.75-5.11-1.01,0-1.86.19-2.76.61-.96.44-1.8,1.05-2.45,1.77l-.53.59v-9.49h-3.4v12.15h0Zm32.44-8.7v3.45h3.4v3.4h-3.41l.03,5.88.03,5.89.22.48c.27.61.87,1.19,1.48,1.48.44.21.61.22,2.77.25l2.29.04v-3.14l-1.67-.02-1.68-.03-.03-5.42-.02-5.41h3.4v-3.4h-3.4v-6.9h-3.4v3.45Zm-89.66,1.75v1.7h5.49l.02,8.67.03,8.68,1.73.03,1.72.02v3.41l2.3-.03c2.1-.03,2.33-.05,2.72-.23.63-.29,1.17-.82,1.48-1.44l.26-.54.03-9.3.03-9.29h5.57v-3.4h-3.34c-3.77,0-3.9.02-4.65.68-.24.21-.55.58-.69.81l-.26.44-.05,9.41-.05,9.41-1.67.03-1.68.02v-20.81h-8.98v1.7Zm161.92,0v1.7h-3.4v2.26l-.43-.42c-.86-.83-2.36-1.68-3.5-1.99-.31-.09-.99-.18-1.52-.21-4.09-.23-7.54,2.32-8.62,6.37-.22.82-.25,1.11-.26,2.58,0,2.01.17,2.85.89,4.3,1.15,2.36,2.96,3.87,5.45,4.55.84.23,2.76.28,3.63.09,1.39-.29,3.24-1.38,3.94-2.33l.36-.48.03,1.37c.03,1.64-.11,2.45-.6,3.43-.54,1.1-1.46,1.79-2.88,2.18-.92.26-3.28.23-4.27-.05s-1.9-.64-2.59-1.06l-.59-.35-.62,1.32c-.71,1.49-.73,1.31.23,1.9.99.62,2.63,1.16,4.16,1.39,1.12.16,3.52.06,4.49-.19,3.05-.77,4.99-2.64,5.8-5.58l.26-.91.03-9.11.03-9.1h3.4v-3.4h-3.4v1.7h0Zm-7.48,4.59c1.54.37,2.8,1.37,3.49,2.8.22.44.46,1.05.54,1.36.19.74.18,2.46,0,3.26-.56,2.39-2.53,4.08-4.96,4.23-1.57.09-2.95-.4-4.05-1.44-1.17-1.11-1.7-2.33-1.79-4.08-.09-1.98.42-3.42,1.66-4.68,1.11-1.12,2.19-1.58,3.75-1.59.42,0,1.03.06,1.36.13h0Zm-74.84-3.21c-3.15.57-5.06,2.88-4.69,5.65.18,1.31.71,2.26,1.65,2.96,1.08.81,1.99,1.2,4.47,1.93,2.91.84,3.45,1.3,3.32,2.75-.07.67-.45,1.19-1.15,1.55-.47.24-.68.28-1.48.31-1.73.08-3.16-.44-4.34-1.55l-.63-.61-1.14.97c-.62.53-1.14,1-1.14,1.05,0,.05.28.37.64.73,1.62,1.58,3.88,2.35,6.61,2.23,1.92-.08,3.32-.63,4.47-1.77,1.13-1.13,1.59-2.46,1.4-4.15-.14-1.24-.38-1.74-1.21-2.56-1.03-1.03-2.02-1.48-4.95-2.27-2.08-.57-2.96-1.2-3.07-2.2-.08-.65.04-1.08.41-1.48.64-.71,2.21-1.03,3.44-.71.85.22,2.13.9,2.76,1.47.29.26.57.47.61.47.09,0,1.85-1.93,1.91-2.09.05-.14-.51-.7-1.17-1.17-1.9-1.35-4.41-1.92-6.71-1.5Zm-52.64.12c-2.47.52-4.5,2.03-5.75,4.27-.34.61-.87,2.14-.87,2.5v.25h3.27l.17-.55c.58-1.84,1.83-2.97,3.77-3.37.88-.19,2.03-.19,2.68-.02,1.67.44,3.07,1.93,3.23,3.41l.06.52h-9.86v2.65h-3.43l.07.58c.39,3.4,2.7,6.19,5.97,7.21,1.14.36,2.17.48,3.58.42,1.51-.07,2.6-.34,4.03-1.02.95-.45,2.36-1.41,2.36-1.6,0-.12-1.61-2.36-1.7-2.36-.04,0-.24.13-.44.29-.69.56-1.39.96-2.16,1.24-.98.37-2.62.46-3.75.23-2.33-.49-4.11-2.31-4.49-4.58l-.07-.4h13.35v-1.17c0-1.49-.13-2.45-.46-3.43-.86-2.52-3.05-4.47-5.68-5.09-.86-.2-2.85-.18-3.88.04h0Zm19.25-.04c-1.62.3-2.8.93-4.06,2.12-1.58,1.52-2.47,3.41-2.71,5.79-.44,4.53,2.1,8.59,6.13,9.75.64.19.95.22,2.3.21,1.3,0,1.68-.04,2.31-.21.84-.24,2.29-.89,2.96-1.35.53-.37,1.39-1.15,1.66-1.53l.18-.26-.82-1.02c-.45-.56-.88-1.07-.94-1.13-.09-.1-.24,0-.77.52-1.14,1.13-2.27,1.74-3.57,1.92-2.56.36-5.12-1.36-5.96-4.02-.3-.97-.3-2.93,0-3.88.62-1.89,2.18-3.4,3.94-3.82,1.9-.46,4.11.31,5.66,1.97.29.32.55.58.57.58.03,0,.46-.51.96-1.13l.93-1.13-.26-.38c-.4-.58-1.38-1.46-2.11-1.88-1.77-1.06-4.31-1.49-6.4-1.1h0Zm67.46,0c-2.76.52-5.01,2.25-6.22,4.79-.58,1.21-.77,2.08-.82,3.68-.03.82,0,1.66.06,2.07.53,3.43,3.01,6.21,6.34,7.13,1.01.27,3.71.29,4.68.03,2.92-.78,5.14-2.82,6.08-5.59.9-2.66.58-5.88-.82-8.14-1.16-1.89-3.04-3.28-5.15-3.83-1-.26-3.1-.33-4.13-.13h0Zm3.04,3.12c.95.23,1.82.74,2.52,1.48,1.1,1.16,1.56,2.45,1.56,4.29s-.48,3.18-1.66,4.36c-1.05,1.07-2.2,1.55-3.69,1.55s-2.58-.44-3.69-1.56c-1.24-1.23-1.68-2.38-1.68-4.35,0-1.34.16-2.03.71-3.09.66-1.28,2-2.34,3.37-2.67.72-.18,1.83-.18,2.56,0h0Zm17.74-3.13c-1.48.34-3.23,1.41-3.97,2.41-.15.21-.31.39-.35.39-.05,0-.08-.58-.08-1.28v-1.28h-3.4l.02,8.67.03,8.68,1.68.03,1.67.02v-5.27c0-3.2.04-5.51.1-5.88.21-1.31,1.03-2.39,2.26-2.99.91-.43,1.54-.55,2.64-.5,1.75.08,2.57.74,3.11,2.49.12.4.15,1.39.18,6.31l.04,5.84h3.4v-5.61c0-3.07-.05-6.01-.09-6.5-.19-1.74-.69-3.06-1.52-4-.97-1.09-2.17-1.58-4.01-1.64-.75-.02-1.32,0-1.7.09h0Zm-33.63.4c-.53.16-1.23.76-1.58,1.34l-.26.44-.03,7.74-.02,7.73,1.67-.02,1.68-.03.03-6.98.02-6.97h3.4v-3.4h-2.24c-1.66,0-2.36.05-2.69.15h0Z"></path><path class="cls-1" d="m499.63,271.48c-1.64,0-3.17-.3-4.58-.91-1.42-.6-2.66-1.44-3.73-2.51-1.07-1.07-1.91-2.31-2.51-3.72-.6-1.41-.91-2.93-.91-4.55s.3-3.14.89-4.55c.59-1.41,1.43-2.66,2.49-3.72,1.07-1.07,2.31-1.91,3.72-2.51,1.41-.6,2.94-.91,4.58-.91,1.75,0,3.4.32,4.95.97,1.56.65,2.88,1.57,3.98,2.75l-1.68,1.72c-.86-.99-1.94-1.77-3.22-2.32s-2.63-.83-4.03-.83c-1.3,0-2.5.24-3.61.71-1.11.48-2.09,1.14-2.92,1.99-.83.85-1.48,1.85-1.94,2.98-.46,1.13-.7,2.37-.7,3.71s.23,2.55.7,3.69c.46,1.14,1.11,2.14,1.94,3,.83.85,1.8,1.52,2.92,1.99,1.11.48,2.31.71,3.61.71,1.53,0,2.92-.34,4.16-1,1.24-.67,2.25-1.59,3.01-2.75.76-1.17,1.21-2.48,1.34-3.95h-8.13v-2.2h10.65v1c0,1.58-.28,3.04-.84,4.4-.56,1.36-1.34,2.55-2.33,3.56-.99,1.01-2.16,1.81-3.5,2.38-1.34.57-2.79.86-4.34.86Z"></path><path class="cls-1" d="m514.36,271.12v-16.22h2.4v2.3c.5-.84,1.13-1.5,1.89-1.96.77-.46,1.65-.7,2.64-.7.56,0,1.07.08,1.52.23v2.2c-.28-.11-.56-.18-.84-.23s-.56-.07-.84-.07c-.99,0-1.86.29-2.61.86-.75.57-1.33,1.4-1.77,2.48v11.11h-2.4Z"></path><path class="cls-1" d="m532.31,271.44c-1.53,0-2.93-.37-4.19-1.12-1.26-.74-2.26-1.75-3-3.03-.73-1.27-1.1-2.7-1.1-4.27s.37-3,1.1-4.27c.74-1.27,1.73-2.28,3-3.03,1.26-.75,2.66-1.12,4.19-1.12s2.96.37,4.21,1.12c1.25.74,2.24,1.75,2.98,3.03.73,1.27,1.1,2.7,1.1,4.27s-.37,3-1.1,4.27c-.74,1.27-1.73,2.28-2.98,3.03-1.25.75-2.66,1.12-4.21,1.12Zm0-2.14c1.1,0,2.1-.28,2.99-.84.9-.56,1.61-1.32,2.14-2.27.53-.95.79-2.01.79-3.17s-.26-2.25-.79-3.19c-.53-.94-1.24-1.69-2.14-2.25-.9-.56-1.89-.84-2.99-.84s-2.1.28-3,.84c-.9.56-1.61,1.31-2.14,2.25-.53.94-.79,2-.79,3.19s.26,2.22.79,3.17c.53.95,1.24,1.71,2.14,2.27s1.9.84,3,.84Z"></path><path class="cls-1" d="m550.47,271.44c-1.23,0-2.32-.26-3.27-.79s-1.69-1.26-2.22-2.2c-.53-.94-.79-2.03-.79-3.29v-10.27h2.36v9.78c0,1.45.41,2.59,1.23,3.42.82.83,1.92,1.25,3.3,1.25.97,0,1.84-.22,2.61-.66.77-.44,1.39-1.06,1.86-1.86v-11.92h2.4v16.22h-2.4v-1.88c-1.27,1.47-2.97,2.2-5.08,2.2Z"></path><path class="cls-1" d="m562.36,277.73v-22.83h2.36v1.75c1.4-1.34,3.15-2.01,5.25-2.01,1.53,0,2.92.37,4.15,1.12,1.23.74,2.21,1.74,2.93,3s1.09,2.67,1.09,4.24-.36,3-1.09,4.26-1.7,2.27-2.93,3.01c-1.23.74-2.62,1.12-4.18,1.12-.95,0-1.87-.16-2.75-.49-.89-.32-1.69-.79-2.43-1.39v8.23h-2.4Zm7.38-8.45c1.14,0,2.17-.27,3.08-.83s1.62-1.3,2.15-2.23c.53-.94.79-2,.79-3.19s-.26-2.26-.79-3.21c-.53-.95-1.25-1.7-2.15-2.25-.91-.55-1.93-.83-3.08-.83-1.02,0-1.96.2-2.83.6-.87.4-1.59.96-2.15,1.67v8.03c.56.69,1.28,1.24,2.17,1.64s1.82.6,2.82.6Z"></path><rect class="cls-1" x="472.36" y="243.73" width="6" height="36.49"></rect><path class="cls-1" d="m200.51,271.12v-9.92h4.97c.65,0,1.23.13,1.72.4.5.26.89.63,1.17,1.1.28.47.42,1.01.42,1.62s-.14,1.11-.42,1.57c-.28.46-.68.83-1.18,1.09s-1.07.4-1.71.4h-2.92v3.74h-2.05Zm2.05-5.44h2.69c.44,0,.8-.12,1.07-.37.27-.25.4-.57.4-.98s-.13-.75-.4-.99c-.27-.25-.63-.37-1.07-.37h-2.69v2.71Z"></path><path class="cls-1" d="m214.77,271.28c-.74,0-1.42-.13-2.05-.39-.63-.26-1.19-.62-1.66-1.09-.48-.47-.85-1.01-1.12-1.63-.27-.62-.4-1.29-.4-2.01s.13-1.39.4-2c.27-.62.64-1.16,1.12-1.63.48-.47,1.03-.83,1.66-1.09.63-.26,1.32-.39,2.05-.39s1.43.13,2.06.39c.64.26,1.2.62,1.67,1.09s.85,1.01,1.11,1.63c.26.62.4,1.29.4,2s-.13,1.39-.4,2.01c-.26.62-.64,1.16-1.11,1.63-.48.47-1.03.83-1.67,1.09-.64.26-1.32.39-2.06.39Zm0-1.88c.45,0,.87-.08,1.25-.25s.71-.39.99-.68c.28-.29.5-.63.67-1.03.16-.4.24-.82.24-1.28s-.08-.89-.24-1.28c-.16-.39-.38-.73-.67-1.02-.28-.29-.61-.51-.99-.68s-.79-.25-1.25-.25-.85.08-1.23.25c-.38.17-.71.39-.99.68-.28.29-.51.63-.67,1.02-.16.39-.24.81-.24,1.27s.08.89.24,1.29c.16.4.38.74.67,1.03.28.29.61.51.99.68.38.17.79.25,1.23.25Z"></path><path class="cls-1" d="m222.65,271.12l-2.2-9.92h2.11l1.35,6.72,1.93-6.72h1.94l1.93,6.7,1.35-6.7h2.04l-2.18,9.92h-2.17l-1.96-6.91-1.98,6.91h-2.15Z"></path><path class="cls-1" d="m234.11,271.12v-9.92h7.62v1.78h-5.57v2.27h3.67v1.73h-3.67v2.35h5.63v1.78h-7.68Z"></path><path class="cls-1" d="m243.01,271.12v-9.92h4.84c.67,0,1.26.13,1.78.39.51.26.92.62,1.2,1.08s.43,1,.43,1.6-.18,1.19-.53,1.67c-.35.48-.82.84-1.4,1.08l2.2,4.09h-2.29l-1.94-3.8h-2.24v3.8h-2.05Zm2.05-5.48h2.61c.46,0,.83-.12,1.11-.37.28-.25.42-.57.42-.96s-.14-.72-.42-.96c-.28-.25-.65-.37-1.11-.37h-2.61v2.66Z"></path><path class="cls-1" d="m252.39,271.12v-9.92h7.62v1.78h-5.57v2.27h3.67v1.73h-3.67v2.35h5.63v1.78h-7.68Z"></path><path class="cls-1" d="m261.29,271.12v-9.92h3.81c.75,0,1.44.13,2.07.38.63.25,1.19.6,1.66,1.06.47.45.84.98,1.11,1.59.27.6.4,1.26.4,1.96s-.13,1.36-.4,1.95-.63,1.12-1.11,1.57c-.48.45-1.03.8-1.67,1.05s-1.32.38-2.07.38h-3.81Zm2.05-1.83h1.73c.44,0,.86-.08,1.24-.23.38-.16.72-.38,1.01-.66.29-.28.51-.61.66-.99.16-.38.24-.79.24-1.23s-.08-.86-.24-1.24-.38-.72-.67-1c-.28-.28-.62-.51-1-.67-.38-.16-.8-.24-1.24-.24h-1.73v6.26Z"></path><path class="cls-1" d="m274.11,271.12v-9.92h4.66c.67,0,1.26.11,1.76.34.5.23.89.55,1.18.96.28.41.42.89.42,1.42,0,.43-.11.83-.33,1.2s-.52.66-.9.89c.48.23.86.53,1.15.92.28.39.42.83.42,1.32,0,.57-.14,1.07-.43,1.5-.29.43-.69.77-1.22,1.01-.53.24-1.13.36-1.82.36h-4.89Zm2.05-5.87h2.48c.44,0,.8-.11,1.06-.32.26-.21.39-.5.39-.86s-.13-.64-.39-.86c-.26-.21-.61-.32-1.06-.32h-2.48v2.35Zm0,4.17h2.68c.47,0,.85-.12,1.13-.35.28-.23.42-.54.42-.93s-.14-.71-.42-.94-.66-.35-1.13-.35h-2.68v2.56Z"></path><path class="cls-1" d="m286.1,271.12v-3.8l-4.05-6.12h2.37l2.78,4.31,2.79-4.31h2.24l-4.07,6.13v3.78h-2.05Z"></path></svg> 