<?xml version="1.0" encoding="UTF-8"?> <svg xmlns="http://www.w3.org/2000/svg" id="Harvard_Business_Review" width="100" height="41.71" viewBox="0 0 100 41.71"><defs><style>.cls-1{fill:#3a357e;}</style></defs><path class="cls-1" d="m27.33,6.34s-.12-.08-.08-.28l.12-.4c.04-.08.24-.04.36-.04.04-.04.28-.08.32.04l.08.36c.04.2.04.24-.04.28-.04.04,0,.16.08.12h.52c.12,0,.08-.12.04-.16-.08-.04-.08-.12-.12-.24l-.6-2.16c-.04-.16-.12-.28-.16-.28-.12.04-.28.08-.28.16v.24l-.6,2.04c-.08.2-.12.2-.16.28-.04.04-.04.16.04.16h.4c.08,0,.12-.08.08-.12h0Zm.08-1.08l.2-.6c.08-.32.16-.36.24.04l.12.56c.03.11-.05.16-.24.16-.36,0-.36-.04-.32-.16h0Z"></path><path class="cls-1" d="m26.93,4.14v-.44c0-.08,0-.12-.36-.08-.24.04-.4.04-.56.04s-.32,0-.64-.04c-.36-.04-.36,0-.36.08v.44c0,.08,0,.2.08.2s.12-.08.16-.2c.16-.36.28-.4.36-.4s.12.04.12.24v1.96c0,.2,0,.24-.08.28-.08.08-.08.16.04.16h.56c.08,0,.12-.12.04-.16-.04-.04-.08-.08-.08-.28v-1.96c0-.16.04-.24.12-.24.12,0,.24.04.36.4.04.12.08.2.16.2s.08-.12.08-.2h0Z"></path><path class="cls-1" d="m29.17,6.42s.04-.04.2-.04.32.12.52.12c.44,0,.84-.44.84-.84s-.12-.52-.48-.8c-.4-.28-.72-.36-.72-.72,0-.12.04-.44.32-.44s.36.36.44.6c.08.2.2.12.2,0v-.52c0-.08-.08-.12-.12-.08s-.2,0-.2,0c-.08-.08-.2-.08-.4-.08-.44,0-.68.4-.68.68,0,.24.12.48.56.8s.56.44.56.72c0,.2-.08.56-.4.56s-.44-.32-.52-.56c-.08-.28-.24-.28-.24-.04v.48c0,.12.08.16.12.16h0Z"></path><path class="cls-1" d="m7.62,6.42h1.32c.08,0,.24.08.24-.08v-.52c0-.28-.16-.36-.24,0-.08.24-.12.44-.48.44h-.24c-.08,0-.12-.04-.12-.12-.04-.2-.04-.56,0-.96,0-.12.04-.12.16-.12.08,0,.12.04.16.12.04.12.24.28.24,0v-.4c0-.28-.2-.08-.24,0s-.08.08-.2.08-.16,0-.16-.12c0-.2,0-.48.04-.84,0-.08.04-.12.12-.12h.24c.36,0,.36.24.4.48.08.24.24.16.24,0v-.52c0-.16-.16-.08-.24-.08h-1.24c-.08-.04-.12.08-.04.12.04.04.08.04.08.28v1.96c0,.2,0,.24-.08.28s-.08.12.04.12h0Z"></path><path class="cls-1" d="m6.38,3.78c.04-.08.04-.16-.04-.16h-.4c-.08-.04-.12.08-.08.12s.12.04.08.28l-.4,1.36c-.04.16-.16.24-.2,0l-.28-1.36c-.04-.2,0-.24.04-.28s.04-.12-.08-.12h-.48c-.12-.04-.12.08-.04.12s.12.04.16.28l.48,2.16c.04.2.08.32.2.32s.2-.12.24-.28l.64-2.16c.05-.16.11-.25.16-.28Z"></path><path class="cls-1" d="m16.97,6.34s-.04-.08-.12-.16c-.04-.08-.48-.96-.52-1-.03-.05-.04-.09-.04-.12,0-.04,0-.08.08-.12.24-.12.44-.32.44-.64,0-.44-.24-.68-.96-.68h-.64c-.08,0-.2.08-.12.16.08.04.08.12.08.2v2.08c0,.2-.08.24-.12.28-.08.04-.04.12.04.12h.28c.12,0,.2,0,.24.04.12,0,.16-.12.08-.16-.04-.08-.12-.08-.12-.28v-.96h.16c.08.08.6,1.2.64,1.28.04.08.08.08.08.08h.4c.16,0,.16-.12.12-.12h0Zm-1.12-1.48c-.16,0-.2-.04-.2-.12v-.76c0-.24.16-.28.32-.24.12.04.36.08.36.56s-.32.56-.48.56Z"></path><path class="cls-1" d="m18.45,6.46h.48c.08.04.12-.08.04-.12-.04-.04-.08-.08-.08-.28v-1.96c0-.2,0-.24.08-.28s.08-.12-.04-.12h-.48c-.08-.04-.12.08-.04.12.04.04.08.04.08.28v1.96c0,.2,0,.24-.08.28s-.08.12.04.12Z"></path><path class="cls-1" d="m0,0v11.3h0c.06,12.43,6.23,23.21,17.42,30.33l.13.08.18-.08c11.17-7.1,17.36-17.88,17.42-30.33h0V0H0Zm25.42,16.31c.15.3.45.71.68.93.18.15.15.25.08.38-.05.13-.25.33-.33.38-.05.05-.33.23-.5-.13s-.3-.98-.33-1.26c-.03-.28-.2-.23-.23,0v.43c0,.28.08.66.23,1.01s.03.38-.08.43c-.08.05-.18.08-.38.08-.18,0-.28-.03-.38-.08s-.23-.08-.08-.43.23-.73.23-1.01v-.43c-.03-.23-.2-.25-.23,0-.03.28-.15.91-.33,1.26-.18.33-.43.18-.5.13-.05-.05-.25-.25-.33-.38-.05-.1-.1-.23.08-.38.23-.23.53-.63.68-.93.15-.28.03-.43-.18-.13-.2.28-.48.58-.71.76-.1.1-.18.13-.28,0-.1-.15-.28-.45-.23-.76.05-.33.18-.3.3-.3s.48,0,.73-.23c.35-.3.66-.73.81-1.56.08-.43.28-.55.48-.55s.4.13.35.55c.15.86.33,1.16.68,1.49.25.23.61.2.81.23.13,0,.28.08.33.38.05.33-.13.63-.23.76s-.15.1-.28,0c-.25-.18-.5-.45-.71-.76s-.33-.18-.18.13h0Zm-2.19-2.09l.35-.03c.23,0,.23.08.18.3-.08.23-.15.4-.25.55h-.03c-.1.13-.15.05-.18-.08-.03-.13-.13-.28-.18-.45-.05-.15-.05-.3.1-.3h0Zm2.37,0l.33.03c.15,0,.15.13.1.3-.05.15-.13.33-.15.45-.03.15-.08.2-.18.08h-.03c-.08-.15-.18-.33-.23-.55-.08-.23-.05-.3.15-.3h0Zm-1.16-2.17c0,1.03-.73,1.87-1.77,1.87-.38,0-.58,0-.88-.2.1.23.15.5.15.78,0,1.03-.83,1.87-1.87,1.87-.33,0-.66-.1-.93-.25.2.3.3.63.3,1.01,0,1.03-.83,1.87-1.87,1.87s-1.87-.83-1.87-1.87c0-.35.1-.71.3-1.01-.3.23-.68.35-1.08.35-1.03,0-1.87-.83-1.87-1.87,0-.35.1-.71.28-.98-.3.2-.66.33-1.03.33-1.03,0-1.87-.83-1.87-1.87,0-.28.08-.47.19-.71h.08v-.08h13.44v.08h.07c.12.22.21.41.21.68h0Zm-6.1,11.22c.15.28.45.71.68.93.18.15.15.25.08.38-.05.13-.25.33-.33.38-.05.05-.33.23-.5-.13-.18-.35-.3-.98-.33-1.26-.03-.28-.2-.23-.23,0v.43c0,.28.08.66.23,1.01s.03.38-.08.43c-.08.05-.18.08-.38.08-.18,0-.28-.03-.38-.08s-.23-.08-.08-.43c.13-.35.23-.73.23-1.01v-.43c-.03-.23-.2-.25-.23,0,0,.28-.15.91-.33,1.26-.18.33-.43.18-.5.13-.05-.05-.25-.25-.33-.38-.05-.1-.1-.23.08-.38.23-.23.53-.63.68-.93.15-.3.03-.45-.18-.15-.2.28-.48.58-.71.76-.1.1-.18.13-.28,0-.1-.15-.28-.45-.23-.76.05-.33.18-.3.3-.3s.48,0,.73-.23c.35-.33.66-.73.81-1.56.08-.43.28-.55.48-.55s.4.13.35.55c.15.86.33,1.16.68,1.49.25.23.61.2.81.23.13,0,.28.08.33.38.05.33-.13.63-.23.76-.1.13-.15.1-.28,0-.25-.18-.5-.45-.71-.76-.2-.28-.33-.15-.18.15h0Zm-2.19-2.12h.35c.23,0,.25.05.18.28s-.15.4-.25.55h-.03c-.1.13-.15.05-.18-.08-.03-.13-.13-.28-.18-.45-.05-.15-.05-.3.1-.3h0Zm2.37,0h.33c.15,0,.15.13.1.3-.05.15-.13.33-.15.45-.03.15-.08.2-.18.08h-.03c-.08-.15-.18-.33-.23-.55-.08-.2-.05-.28.15-.28h0Zm-7.34-4.71c.15.3.45.71.68.93.18.15.15.25.08.38-.05.13-.25.33-.33.38-.05.05-.33.23-.5-.13-.18-.35-.3-.98-.33-1.26-.03-.28-.2-.23-.23,0v.43c0,.28.08.66.23,1.01s.03.38-.08.43c-.08.05-.18.08-.38.08-.18,0-.28-.03-.38-.08s-.23-.08-.08-.43.23-.73.23-1.01v-.43c-.03-.23-.2-.25-.23,0,0,.28-.15.91-.33,1.26-.18.33-.43.18-.5.13-.05-.05-.25-.25-.33-.38-.05-.1-.1-.23.08-.38.23-.23.53-.63.68-.93.15-.28.03-.43-.18-.13-.2.28-.48.58-.71.76-.1.1-.18.13-.28,0-.1-.15-.28-.45-.23-.76.05-.33.18-.3.3-.3s.48,0,.73-.23c.35-.3.66-.73.81-1.56.08-.43.28-.55.48-.55s.4.1.35.55c.15.86.33,1.16.68,1.49.25.23.61.2.81.23.13,0,.28.08.33.38.05.33-.13.63-.23.76-.1.13-.15.1-.28,0-.25-.18-.5-.45-.71-.76s-.33-.18-.18.13h0Zm-1.66-1.84c-.08.23-.15.4-.25.55h-.03c-.1.13-.15.05-.18-.08-.03-.13-.13-.28-.18-.45-.05-.15-.05-.3.1-.3l.35-.03c.23,0,.25.08.18.3h0Zm1.84-.28l.33.03c.15,0,.15.13.1.3-.05.15-.13.33-.15.45-.03.15-.08.2-.18.08h-.03c-.08-.15-.18-.33-.23-.55-.08-.23-.05-.3.15-.3h0Zm15.86-5.94c0-.32.24-.56.56-.56s.56.24.56.56c0,.08,0,.12-.04.2v.04c-.08.2-.28.32-.48.32-.24,0-.44-.12-.52-.32-.04-.08-.04-.12-.08-.24Zm5.08-6.03v1.12h.52c.16,0,.32.16.32.32s-.16.32-.32.32h-.52v2.68h.52c.16,0,.32.16.32.32s-.16.32-.32.32h-.52v1.2h-3.84c0-.08,0-.16.04-.24,0-.04-.04-.12-.04-.16h3.32V2.79l-.44-.44h.96,0Zm-1.2.04h.08l.44.48v5.2l-.52-.48V2.39Zm.48,5.72h-3.16c-.08-.16-.24-.28-.4-.36.08-.08.24-.12.44-.12h2.6l.52.48Zm-6.79-5.76h1.88c.52,0,.96.32,1.08.8v.04h.16v-.04c.16-.48.6-.8,1.08-.8h2.04v5.2h-2.56c-.24,0-.48.08-.56.2h-.16c-.08-.12-.28-.2-.56-.2h-2.4V2.35Zm2.4,5.28c.2,0,.36.04.44.12-.16.08-.32.2-.4.36h-3l.52-.48h2.44Zm-2.52-5.28v5.2l-.52.48V2.83l.44-.48h.08Zm-1.2,1.8v-.04h-.48c-.11,0-.2-.05-.27-.12-.03-.05-.05-.1-.05-.16,0-.16.16-.32.32-.32h.52v-1.12h.96l-.44.44v5.44h3.16s-.04.08-.04.16,0,.12.04.2h-3.68v-1.16h-.04v-.04h-.48c-.11,0-.2-.05-.27-.12-.03-.05-.05-.1-.05-.16,0-.16.16-.32.32-.32h.52v-2.68h-.04Zm-2.56-1.8v1.12h.52c.16,0,.32.16.32.32s-.16.32-.32.32h-.52v2.68h.52c.16,0,.32.16.32.32s-.16.32-.32.32h-.52v1.2h-2.96c.04-.08.04-.16.04-.24,0-.04-.04-.12-.04-.16h2.44V2.79l-.44-.44s.96,0,.96,0Zm.59,1.79s-.05,0-.07,0h0s.05,0,.07,0Zm-3.59,3.97c-.08-.16-.2-.28-.4-.36.08-.08.24-.12.44-.12h1.72l.52.48h-2.28Zm1.84-5.72h.08l.44.48v5.2l-.52-.48V2.39Zm-2.32,1.04c0-.6.48-1.08,1.08-1.08h1.16v5.2h-1.68c-.24,0-.45.06-.56.15V3.43h0Zm.44,4.96c0,.08,0,.12-.04.2v.04c-.08.2-.28.32-.48.32-.24,0-.44-.12-.52-.32-.04-.08-.04-.16-.08-.24,0-.32.24-.56.56-.56s.56.24.56.56Zm-3.24-6.03h1.52c.6,0,1.08.48,1.08,1.08v4.32c-.08-.12-.28-.2-.56-.2h-2.04V2.35Zm2.04,5.28c.24,0,.36.04.44.12-.16.08-.32.2-.4.36h-2.64l.52-.48h2.08Zm-2.16-5.28v5.2l-.52.48V2.83l.44-.48h.08Zm-1.64,1.8c-.16,0-.32-.16-.32-.32s.16-.32.32-.32h.52v-1.12h.96l-.44.44v5.44h2.8s-.04.08-.04.16,0,.12.04.2h-3.32v-1.16h-.52c-.16,0-.32-.16-.32-.32s.16-.32.32-.32h.52v-2.68h-.52Zm-2.16-1.8v1.12h.52c.16,0,.32.16.32.32s-.16.32-.32.32h-.52v2.68h.52c.16,0,.32.16.32.32s-.16.32-.32.32h-.52v1.2h-3.28c.03-.07.05-.14.05-.2,0-.04-.04-.12-.04-.16h2.8V2.83l-.48-.48s.96,0,.96,0Zm-1.08.04h.08l.44.48v5.2l-.52-.48V2.39Zm.44,5.72h-2.64c-.08-.16-.24-.28-.4-.36.08-.08.2-.12.44-.12h2.08l.52.48Zm-3.24-4.68c0-.07,0-.15.02-.22.1-.49.53-.86,1.06-.86h1.56v5.24h-2.04c-.24,0-.48.08-.56.2h-.04V3.43h0Zm.48,5c0,.07,0,.13-.03.2h-.01v.04c-.08.2-.28.32-.48.32-.05,0-.1,0-.15-.02h0c-.14-.05-.27-.15-.33-.3v-.04h-.09c-.02-.07-.03-.13-.03-.2,0-.32.24-.56.56-.56s.56.24.56.56Zm-3.16-6.07h1.48c.6,0,1.08.48,1.08,1.08v4.32c-.09-.1-.27-.16-.52-.16h-2.04V2.35Zm2.04,5.28c.2,0,.36.04.44.12-.16.08-.32.2-.4.36h-2.64l.52-.48h2.08Zm-2.16-5.28v5.2l-.52.48V2.83l.44-.48h.08Zm-1.72,1.12h.52v-1.12h1.04l-.48.48v5.44h2.8s-.04.08-.04.16c0,.06.02.13.05.2h-3.36v-1.2h-.52c-.16,0-.32-.16-.32-.32s.16-.32.32-.32h.52v-2.68h-.52c-.16,0-.32-.16-.32-.32s.16-.32.32-.32h0Zm-.4.26c0,.13.07.25.17.33-.11-.06-.18-.18-.18-.31,0,0,0-.01,0-.02Zm.09,7.65c.6.4,1,1.17,1,1.89,0,.3-.08.61-.23.86.25-.13.55-.23.88-.23,1.03,0,1.87.83,1.87,1.87,0,.35-.08.68-.25.96.28-.18.61-.28.96-.28,1.03,0,1.87.83,1.87,1.87,0,.33-.08.63-.23.91.28-.18.63-.28.98-.28,1.03,0,1.87.83,1.87,1.87,0,.3-.08.58-.2.83.25-.13.53-.2.83-.2,1.03,0,1.87.83,1.87,1.87s-.83,1.87-1.87,1.87c-.3,0-.55-.05-.81-.18.13.25.2.55.2.86,0,1.03-.83,1.87-1.87,1.87-.33,0-.61-.08-.88-.23.15.28.25.61.25.93,0,1.03-.83,1.87-1.87,1.87-.04,0-.09,0-.14-.01C2.51,24.74.52,18.32.48,11.37h1.52Zm9.4,19.09c.15.3.45.71.68.93.18.15.15.25.08.38-.05.13-.25.33-.33.38-.05.05-.33.23-.5-.13-.18-.35-.3-.98-.33-1.26-.03-.28-.2-.23-.23,0v.43c0,.28.08.66.23,1.01s.03.38-.08.43c-.08.05-.18.08-.38.08-.18,0-.28-.03-.38-.08s-.23-.08-.08-.43c.15-.35.23-.73.23-1.01v-.43c-.03-.23-.2-.25-.23,0s-.15.91-.33,1.26c-.18.33-.43.18-.5.13-.05-.05-.25-.25-.33-.38-.05-.1-.1-.23.08-.38.23-.23.53-.63.68-.93.15-.28.03-.43-.18-.13-.23.28-.48.58-.71.76-.1.1-.18.13-.28,0-.1-.15-.28-.45-.23-.76.05-.33.18-.3.3-.3s.48,0,.73-.23c.35-.3.66-.73.81-1.56.08-.43.28-.55.48-.55s.4.1.35.55c.15.86.33,1.16.68,1.49.25.23.61.2.81.23.13,0,.28.08.33.38.05.33-.13.63-.23.76-.1.13-.15.1-.28,0-.25-.18-.5-.45-.71-.76s-.33-.18-.18.13h0Zm-2.19-2.12h.35c.23,0,.25.05.18.28s-.15.4-.25.55h-.03c-.1.13-.15.05-.18-.08-.03-.13-.13-.28-.18-.45-.05-.15-.05-.3.1-.3h0Zm2.37,0h.33c.15,0,.15.13.1.3-.05.15-.13.33-.15.45-.03.15-.08.2-.18.08h-.03c-.08-.15-.18-.33-.23-.55-.08-.2-.05-.28.15-.28h0Zm5.98,12.78c-2.63-1.69-4.98-3.58-7.03-5.65-.08-.25-.13-.5-.13-.73,0-1.03.83-1.89,1.89-1.89.5,0,.96.18,1.31.5-.28-.33-.43-.73-.43-1.19,0-1.03.83-1.87,1.87-1.87.45,0,.86.15,1.19.43-.2-.3-.33-.68-.33-1.06,0-.96.73-1.84,1.66-1.84,1.64,0,2.02.91,2.02,1.87,0,.4-.13.76-.33,1.06.33-.28.73-.43,1.19-.43,1.03,0,1.87.83,1.87,1.87,0,.45-.15.86-.43,1.19.35-.33.68-.35,1.19-.35,1.03,0,1.89.83,1.89,1.89,0,.07,0,.13-.02.19-2.13,2.21-4.59,4.23-7.37,6.01h0Zm5.67-11.47c.35-.3.66-.73.81-1.56.08-.4.28-.53.48-.53.23,0,.4.13.35.53.15.86.33,1.16.68,1.49.25.23.61.2.81.23.13,0,.28.08.33.38.05.3-.13.63-.23.76-.1.13-.15.1-.28,0-.25-.18-.5-.45-.71-.76s-.33-.18-.18.13c.15.28.45.71.68.93.18.15.15.25.08.38-.05.13-.25.33-.33.38-.05.05-.33.23-.5-.13s-.3-.98-.33-1.26c-.03-.28-.2-.23-.23,0v.43c0,.28.1.66.23,1.01.15.35.03.38-.08.43-.08.05-.18.08-.38.08-.18,0-.28-.03-.38-.08s-.23-.08-.08-.43c.13-.35.23-.71.23-1.01v-.43c-.03-.23-.2-.25-.23,0,0,.28-.15.91-.33,1.26-.18.33-.43.18-.5.13-.05-.05-.25-.25-.33-.38-.05-.1-.1-.23.08-.38.23-.23.53-.63.68-.93.15-.28.03-.43-.18-.13-.23.28-.48.58-.71.76-.1.1-.18.13-.28,0-.1-.15-.28-.45-.23-.76.05-.33.18-.3.3-.3.13.03.48,0,.73-.23h0Zm-.1-1.41h.35c.23,0,.23.05.18.28-.08.23-.15.4-.25.55h-.03c-.1.13-.15.05-.18-.08s-.13-.28-.18-.45c-.05-.15-.05-.3.1-.3h0Zm2.37,0h.33c.15,0,.15.13.1.3-.05.15-.13.33-.15.45-.03.15-.08.2-.18.08h-.03c-.08-.15-.18-.33-.23-.55-.08-.2-.05-.28.15-.28h0Zm3.48,1.84c-1.02-.01-1.99-.69-1.99-1.71,0-.33-.08-.61.15-.91-.28.15-.5.13-.83.13-1.03,0-1.87-.83-1.87-1.87,0-.3.03-.5.15-.76-.25.1-.53.18-.81.18-1.03,0-1.87-.83-1.87-1.87s.83-1.97,1.87-1.97c.3,0,.55,0,.81.13-.15-.25-.18-.35-.18-.66,0-1.03.83-2.07,1.87-2.07.38,0,.66.08.93.25-.15-.25-.18-.33-.18-.66,0-1.13.68-2.07,1.87-2.07.35,0,.68.1.96.28-.15-.28-.25-.61-.25-.96,0-1.03.83-1.87,1.87-1.87.25,0,.53.08.76.18-.05-.2-.1-.55-.1-.76,0-.7.34-1.38.91-1.74h1.59c-.06,6.87-2.01,13.22-5.65,18.71h0Z"></path><path class="cls-1" d="m62.58,2.81h3.08l.96,3.38c.35,1.21.55,2.04.55,2.04h.03s.18-.83.55-2.04l1.08-3.35h2.85l-3.03,8.35h-3.15l-2.93-8.37Z"></path><path class="cls-1" d="m75.87,7.83h-.38c-1.06,0-1.41.33-1.41.86,0,.4.28.71.78.71s1.01-.25,1.01-1.03v-.53Zm2.82.61c0,.4.1.61.4.61.18,0,.35-.08.53-.15v2.07c-.4.28-.78.4-1.44.4-1.11,0-1.74-.5-2.07-1.31-.48.86-1.21,1.36-2.39,1.36-1.54,0-2.5-.91-2.5-2.32,0-1.79,1.29-2.7,3.81-2.7h.86v-.55c0-.55-.18-.93-.71-.93s-.73.3-.78.98l-2.77-.43c.15-1.71,1.49-2.8,3.66-2.8,2.39,0,3.43,1.06,3.43,2.87v2.9h-.03Z"></path><path class="cls-1" d="m85.8,6.11c-.35-.13-.53-.23-1.01-.23-.68,0-1.51.28-1.51,1.77v3.53h-2.9V2.81h2.5l.28,2.07c.23-1.39,1.41-2.07,2.85-2.07l-.2,3.3h0Z"></path><path class="cls-1" d="m92.16,6.39c0-1.06-.53-1.64-1.36-1.64s-1.56.63-1.56,2.29c0,1.36.58,2.09,1.54,2.09.73,0,1.41-.55,1.41-1.69v-1.06h-.03Zm-.03-6.38h2.93v11.17h-2.65l-.28-1.44c-.3,1.11-1.31,1.66-2.57,1.66-1.94,0-3.35-1.51-3.35-4.24s1.34-4.54,3.68-4.54c1.06,0,1.92.48,2.19,1.29V0h.05,0Z"></path><path class="cls-1" d="m40.32,31.18h1.13c1.03,0,1.49-.4,1.49-1.19s-.45-1.19-1.49-1.19h-1.13v2.37h0Zm3.03,5.82c-.35-.28-.48-.68-.61-1.19l-.33-1.31c-.18-.76-.48-.91-1.19-.91h-.93v3.4h-2.93v-10.64h4.56c2.39,0,4.03.93,4.03,3.35,0,1.69-1.08,2.52-2.27,2.72.98.2,1.46.63,1.71,1.56l.5,1.81c.13.48.28.83.66,1.21h-3.23v-.03h0Z"></path><path class="cls-1" d="m54.11,28.63h3.08l.96,3.35c.35,1.21.55,2.04.55,2.04h.03s.18-.83.55-2.04l1.08-3.35h2.85l-3.03,8.35h-3.15l-2.93-8.35h0Z"></path><path class="cls-1" d="m66.74,37h-2.9v-8.37h2.9v8.37Zm-1.46-11.98c.86,0,1.61.61,1.61,1.54s-.73,1.54-1.61,1.54-1.61-.61-1.61-1.54.76-1.54,1.61-1.54"></path><path class="cls-1" d="m72.84,31.91c0-.73-.25-1.36-1.06-1.36-.71,0-1.16.58-1.24,1.36h2.29Zm.28,2.07l2.42.76c-.48,1.79-1.94,2.47-3.61,2.47-2.47,0-4.29-1.56-4.29-4.31s1.59-4.46,4.21-4.46c2.47,0,3.73,1.59,3.73,3.91,0,.3,0,.68-.03,1.06h-5.09c.05,1.03.55,1.59,1.44,1.59.61,0,1.01-.28,1.21-1.01"></path><path class="cls-1" d="m83.41,28.63l.61,2.9c.3,1.49.48,2.62.48,2.62h.03s.18-1.11.53-2.57l.68-2.95h2.82l-2.27,8.35h-3.28l-.5-2.45c-.25-1.24-.45-2.67-.45-2.67h-.03s-.2,1.44-.45,2.67l-.5,2.45h-3.25l-2.27-8.35h2.95l.68,2.95c.35,1.49.53,2.57.53,2.57h.03s.15-1.11.48-2.62l.61-2.9h2.6Z"></path><path class="cls-1" d="m62.23,6.11c-.35-.13-.55-.23-1.01-.23-.68,0-1.51.28-1.51,1.77v3.53h-2.93V2.81h2.5l.28,2.07c.23-1.39,1.41-2.07,2.85-2.07l-.18,3.3h0Z"></path><polygon class="cls-1" points="37.37 11.16 37.37 .52 40.34 .52 40.34 4.48 43.97 4.48 43.97 .52 46.95 .52 46.95 11.16 43.97 11.16 43.97 7.05 40.34 7.05 40.34 11.16 37.37 11.16"></polygon><path class="cls-1" d="m52.32,7.83h-.38c-1.06,0-1.41.33-1.41.86,0,.4.28.71.78.71s1.01-.25,1.01-1.03v-.53Zm2.8.61c0,.4.1.61.4.61.18,0,.35-.08.53-.15v2.07c-.4.28-.78.4-1.44.4-1.11,0-1.74-.5-2.07-1.31-.48.86-1.21,1.36-2.39,1.36-1.54,0-2.5-.91-2.5-2.32,0-1.79,1.29-2.7,3.81-2.7h.86v-.55c0-.55-.18-.93-.71-.93s-.73.3-.78.98l-2.77-.43c.15-1.71,1.49-2.8,3.66-2.8,2.39,0,3.43,1.06,3.43,2.87v2.9h-.03Z"></path><path class="cls-1" d="m51.56,31.91c0-.73-.25-1.36-1.06-1.36-.71,0-1.16.58-1.24,1.36h2.29Zm.3,2.07l2.42.76c-.48,1.79-1.94,2.47-3.61,2.47-2.47,0-4.29-1.56-4.29-4.31s1.59-4.46,4.21-4.46c2.47,0,3.73,1.59,3.73,3.91,0,.3,0,.68-.03,1.06h-5.09c.05,1.03.55,1.59,1.44,1.59.58,0,1.01-.28,1.21-1.01"></path><path class="cls-1" d="m40.29,21.65h1.54c.73,0,1.16-.33,1.16-.93s-.4-.93-1.16-.93h-1.54v1.87h0Zm0-3.78h1.13c.76,0,1.24-.28,1.24-1.01s-.48-1.01-1.24-1.01h-1.13v2.02h0Zm5.72,3.35c0,1.71-1.19,2.87-3.78,2.87h-4.87v-10.67h4.74c2.27,0,3.48,1.03,3.48,2.77,0,1.24-.73,2.12-1.87,2.39,1.49.33,2.29,1.34,2.29,2.62"></path><path class="cls-1" d="m51.79,22.53c-.23,1.11-1.08,1.77-2.52,1.77-1.51,0-2.57-.93-2.57-2.9v-5.67h2.93v5.04c0,.83.23,1.34.91,1.34.76,0,1.24-.68,1.24-2.04v-4.34h2.93v8.35h-2.62l-.28-1.54h0Z"></path><path class="cls-1" d="m57.67,21.22c.15.68.68,1.06,1.31,1.06.53,0,.88-.18.88-.53s-.3-.53-.91-.66l-1.11-.23c-1.51-.33-2.32-1.11-2.32-2.47,0-2.02,1.74-2.82,3.61-2.82,2.02,0,3.23.83,3.51,2.39l-2.65.4c-.1-.48-.38-.73-.93-.73-.4,0-.71.2-.71.53s.23.48.68.55l1.11.2c1.84.3,2.62,1.31,2.62,2.72,0,1.97-1.71,2.72-3.78,2.72-1.89,0-3.15-.68-3.63-2.17l2.32-.98h0Z"></path><path class="cls-1" d="m66.49,24.07h-2.9v-8.35h2.9v8.35Zm-1.46-11.95c.86,0,1.61.61,1.61,1.54s-.73,1.54-1.61,1.54-1.61-.61-1.61-1.54.76-1.54,1.61-1.54"></path><path class="cls-1" d="m70.65,17.33c.43-1.24,1.41-1.81,2.65-1.81s2.45.76,2.45,2.67v5.87h-2.9v-4.74c0-.86-.25-1.36-.98-1.36-.63,0-1.19.38-1.19,1.66v4.46h-2.9v-8.37h2.62l.25,1.61h0Z"></path><path class="cls-1" d="m81.72,19c0-.73-.25-1.36-1.06-1.36-.71,0-1.16.58-1.24,1.36h2.29Zm.3,2.07l2.42.76c-.48,1.79-1.94,2.47-3.61,2.47-2.47,0-4.29-1.56-4.29-4.31s1.59-4.46,4.21-4.46c2.47,0,3.73,1.59,3.73,3.91,0,.3,0,.68-.03,1.06h-5.09c.05,1.03.55,1.59,1.44,1.59.58,0,1.01-.28,1.21-1.01"></path><path class="cls-1" d="m87.17,21.22c.15.68.68,1.06,1.31,1.06.53,0,.88-.18.88-.53s-.3-.53-.91-.66l-1.11-.23c-1.51-.33-2.32-1.11-2.32-2.47,0-2.02,1.74-2.82,3.61-2.82,2.02,0,3.23.83,3.51,2.39l-2.65.4c-.1-.48-.38-.73-.93-.73-.4,0-.71.2-.71.53s.23.48.68.55l1.11.2c1.84.3,2.62,1.31,2.62,2.72,0,1.97-1.71,2.72-3.78,2.72-1.89,0-3.15-.68-3.63-2.17l2.32-.98h0Z"></path><path class="cls-1" d="m94.91,21.22c.15.68.68,1.06,1.31,1.06.53,0,.88-.18.88-.53s-.3-.53-.91-.66l-1.11-.23c-1.51-.33-2.32-1.11-2.32-2.47,0-2.02,1.74-2.82,3.61-2.82,2.02,0,3.23.83,3.51,2.39l-2.65.4c-.1-.48-.38-.73-.93-.73-.4,0-.71.2-.71.53s.23.48.68.55l1.11.2c1.84.3,2.62,1.31,2.62,2.72,0,1.97-1.71,2.72-3.78,2.72-1.89,0-3.15-.68-3.63-2.17l2.32-.98h0Z"></path></svg> 