<?xml version="1.0" encoding="UTF-8"?> <svg xmlns="http://www.w3.org/2000/svg" id="Layer_2" width="100" height="30.94" viewBox="0 0 100 30.94"><defs><style>.cls-1{fill:#3a357e;}</style></defs><path class="cls-1" d="m43.11,21.72s.06.08.09.1c.22.17.46.32.67.5.13.11.23.24.32.38.33.5.51,1.03.52,1.63.01.59-.09,1.15-.39,1.66-.12.21-.28.4-.44.59-.45.55-1.06.86-1.75,1.01-.2.04-.41.07-.62.07-1.56,0-3.13,0-4.69,0,0,0-.01,0-.02,0-.28,0-.3-.02-.3-.28,0-.18,0-.36,0-.54,0-3.42,0-6.83,0-10.25q0-.37.38-.37c1.33,0,2.66,0,3.99,0,1,0,1.87.33,2.57,1.04.42.42.63.93.75,1.49.15.71.06,1.39-.29,2.03-.12.23-.31.42-.48.62-.09.11-.2.2-.31.31Zm-5.04,2.67c0,.52,0,1.05,0,1.57,0,.21.03.24.25.24,1.02,0,2.03.02,3.05,0,.71-.02,1.25-.33,1.58-.96.16-.3.2-.61.19-.94-.01-.95-.78-1.71-1.76-1.72-1.02,0-2.03,0-3.05,0-.25,0-.27.02-.27.26,0,.52,0,1.03,0,1.55Zm0-4.99c0,.15,0,.3,0,.45,0,.35,0,.69,0,1.04,0,.18.02.19.2.22.16.02.31.04.47.04.67,0,1.33,0,2,0,.19,0,.39-.02.58-.05.36-.07.69-.22.92-.49.4-.46.53-.98.4-1.57-.15-.68-.85-1.32-1.65-1.29-.88.03-1.76,0-2.65,0-.25,0-.27.02-.27.26,0,.47,0,.94,0,1.4Z"></path><path class="cls-1" d="m67.67,19.91c-.04.09-.07.14-.08.19-.47,1.59-.94,3.18-1.41,4.77-.25.85-.5,1.7-.75,2.55-.07.24-.08.24-.34.24-.34,0-.69,0-1.03,0-.27,0-.3-.01-.37-.27-.13-.44-.25-.87-.38-1.31-.14-.48-.28-.96-.41-1.43-.28-.98-.56-1.96-.84-2.93-.29-1.02-.59-2.04-.88-3.06-.07-.25-.14-.5-.21-.75-.01-.05-.02-.11-.03-.19.08-.01.14-.03.2-.03.33,0,.66,0,.99,0,.23,0,.25.02.31.23.21.78.43,1.56.64,2.34.39,1.41.79,2.82,1.18,4.23.1.37.2.74.29,1.11,0,.03.02.06.07.1.06-.21.12-.42.18-.63.4-1.34.79-2.68,1.19-4.03.3-1.01.59-2.02.88-3.03.01-.04.02-.08.04-.12.06-.16.09-.18.26-.19.34,0,.67,0,1.01,0,.16,0,.19.03.24.18.22.74.44,1.48.66,2.22.35,1.18.69,2.35,1.03,3.53.19.66.38,1.32.57,1.98,0,.03.02.07.04.11.03-.02.05-.03.05-.04.27-.98.54-1.96.81-2.94.37-1.33.74-2.67,1.12-4,.07-.26.14-.53.21-.8.06-.21.09-.23.31-.24.33,0,.66,0,.99,0,.21,0,.23.04.17.23-.18.63-.36,1.26-.55,1.89-.31,1.1-.63,2.19-.94,3.29-.31,1.07-.61,2.14-.91,3.2-.11.39-.22.78-.34,1.16-.05.17-.08.19-.27.19-.38,0-.76,0-1.14,0-.22,0-.24-.02-.3-.22-.33-1.09-.65-2.19-.98-3.28-.35-1.18-.7-2.35-1.05-3.53-.06-.19-.11-.39-.16-.58-.01-.04-.03-.07-.06-.16Z"></path><path class="cls-1" d="m51.01,23.71c.77,1.31,1.53,2.61,2.3,3.93-.09.02-.14.04-.2.04-.37,0-.75,0-1.12,0-.15,0-.25-.06-.32-.19-.55-.95-1.11-1.89-1.65-2.84-.3-.53-.74-.79-1.36-.77-.34,0-.69,0-1.03,0-.31,0-.32,0-.32.3,0,1.04,0,2.09,0,3.13q0,.37-.38.37c-.26,0-.52,0-.79,0-.19,0-.22-.03-.22-.22,0-.05,0-.1,0-.15,0-3.08,0-6.16,0-9.24q0-.37.38-.37c1.2,0,2.39,0,3.59,0,.75,0,1.39.24,1.96.68.73.56,1.1,1.3,1.17,2.2.06.74-.13,1.41-.57,2.01-.34.46-.76.83-1.3,1.05-.03.01-.07.03-.13.06Zm-3.7-2.9c0,.5,0,.99,0,1.49,0,.06,0,.12,0,.17,0,.1.06.14.16.15.05,0,.1,0,.16,0,.75,0,1.5,0,2.24,0,.65,0,1.12-.3,1.47-.81.5-.73.32-1.85-.31-2.38-.32-.27-.67-.43-1.09-.44-.79,0-1.57,0-2.36,0-.25,0-.27.02-.27.26,0,.52,0,1.04,0,1.55Z"></path><path class="cls-1" d="m54.36,22.68c0-1.55,0-3.09,0-4.64q0-.35.36-.35c1.73,0,3.45,0,5.18,0,.34,0,.34,0,.34.32,0,.25,0,.5,0,.76,0,.18-.02.19-.2.23-.06.01-.12.02-.18.02-.65,0-1.3-.02-1.95-.03-.63,0-1.26,0-1.88,0-.26,0-.28.02-.28.27,0,.81,0,1.63,0,2.44,0,.24.02.26.27.27.18,0,.36.03.54.03.1,0,.21,0,.31,0,.16,0,.31,0,.47,0,.13,0,.25-.02.38-.02.25,0,.51.02.76.02.36,0,.72-.02,1.07-.02.06,0,.12,0,.18,0,.15.01.19.05.19.19,0,.32,0,.65,0,.97,0,.14-.06.17-.2.16-.17,0-.34-.02-.51-.02-1.03,0-2.06,0-3.1,0-.06,0-.12,0-.18,0-.18.01-.2.04-.19.21,0,.1.01.2.01.3,0,.75,0,1.5,0,2.24,0,.06,0,.13,0,.19,0,.09.06.15.15.15.07,0,.15,0,.22,0,1.29,0,2.57,0,3.86,0,.33,0,.34,0,.34.33,0,.25,0,.5,0,.76,0,.18-.04.21-.23.22-.04,0-.09,0-.13,0-1.75,0-3.5,0-5.25,0q-.36,0-.36-.35c0-1.55,0-3.09,0-4.64Z"></path><path class="cls-1" d="m45.56,6.19c-.25.4-.47.77-.69,1.13-.7,1.16-1.39,2.32-2.09,3.48-.23.38-.45.76-.68,1.13-.04.07-.09.13-.14.19-.11.12-.2.12-.29,0-.12-.16-.22-.34-.33-.51-.65-1.08-1.3-2.15-1.95-3.23-.43-.71-.86-1.43-1.28-2.14,0-.01-.02-.02-.04-.04,0,.02-.03.03-.03.05.01.24.03.48.03.73,0,2.51,0,5.02,0,7.54q0,.38-.4.38c-.31,0-.63,0-.94,0-.19,0-.22-.03-.23-.21,0-.05,0-.1,0-.15,0-3.54,0-7.08,0-10.63q0-.35.36-.35c.39,0,.78,0,1.17,0,.16,0,.25.06.34.2.56.94,1.14,1.88,1.71,2.82.54.9,1.08,1.8,1.62,2.7.04.06.08.12.14.2.11-.19.21-.34.3-.5.49-.82.99-1.64,1.48-2.45.5-.82.99-1.65,1.48-2.48.06-.11.13-.21.19-.32.06-.1.14-.16.27-.16.46,0,.93,0,1.39,0,.16,0,.19.04.2.19,0,.06,0,.11,0,.17,0,3.53,0,7.07,0,10.6q0,.37-.38.37c-.31,0-.63,0-.94,0-.22,0-.24-.03-.25-.24,0-.06,0-.13,0-.19,0-2.33,0-4.65,0-6.98v-1.29Z"></path><path class="cls-1" d="m98.22,7.87s-.06-.07-.09-.11c-.35-.56-.85-.97-1.45-1.28-.4-.21-.83-.3-1.27-.34-.68-.05-1.34,0-1.98.28-.32.14-.61.31-.87.53-.81.69-1.25,1.56-1.34,2.6-.04.52,0,1.03.14,1.53.16.57.45,1.08.89,1.51.45.44.96.78,1.57.95.58.17,1.17.24,1.77.15.29-.04.58-.09.85-.17.67-.2,1.21-.59,1.62-1.13.23-.3.37-.64.46-1,.01-.05,0-.11.01-.19-.1,0-.19-.01-.28-.01-.99,0-1.99,0-2.98,0-.32,0-.33,0-.33-.31,0-.24,0-.49,0-.73,0-.17.03-.2.21-.21.04,0,.09,0,.13,0,1.44,0,2.89,0,4.33,0,.35,0,.35,0,.35.33,0,.78-.13,1.54-.44,2.26-.14.31-.34.59-.55.86-.33.41-.71.75-1.18,1.01-.57.31-1.18.52-1.83.61-1.06.14-2.1.05-3.09-.37-1.33-.56-2.19-1.54-2.7-2.81-.3-.75-.41-1.53-.34-2.32.09-.99.42-1.91,1.03-2.73.36-.49.79-.89,1.31-1.21.74-.46,1.55-.7,2.42-.77.64-.06,1.25.01,1.86.18.75.2,1.4.57,1.97,1.07.32.29.6.61.83.98.11.17.1.18-.07.28-.28.17-.56.33-.84.49-.04.02-.09.04-.15.06Z"></path><path class="cls-1" d="m58.7,9.94c0,.85-.24,1.65-.62,2.4-.25.5-.59.95-1,1.34-.77.71-1.69,1.18-2.75,1.34-.85.13-1.69.07-2.5-.21-1.26-.43-2.19-1.23-2.82-2.36-.33-.59-.52-1.22-.62-1.87-.11-.74-.02-1.47.2-2.18.26-.87.72-1.64,1.4-2.27.74-.68,1.62-1.12,2.64-1.28.27-.04.55-.09.82-.08.62.02,1.23.09,1.82.31.81.29,1.5.76,2.06,1.37.64.7,1.04,1.53,1.23,2.45.07.34.09.69.13,1.04Zm-1.43-.1c0-.12.02-.31,0-.49-.2-1.29-.91-2.26-2.11-2.87-.88-.45-1.83-.45-2.77-.2-.6.16-1.11.48-1.54.92-.52.52-.84,1.14-1.01,1.83-.13.51-.12,1.03-.05,1.56.15,1.1.75,1.92,1.68,2.56.47.32,1.01.49,1.58.56.91.11,1.74-.08,2.5-.55.57-.36,1.01-.82,1.32-1.4.31-.58.46-1.19.41-1.91Z"></path><path class="cls-1" d="m69.8,7.62c0,2.33,0,4.62,0,6.92q0,.35-.37.35c-.26,0-.52,0-.79,0-.2,0-.23-.03-.23-.23,0-.04,0-.09,0-.13,0-3.07,0-6.14,0-9.21q0-.36.37-.36c.17,0,.34,0,.52,0,.16,0,.26.05.35.18.47.69.95,1.39,1.43,2.08.61.88,1.22,1.75,1.83,2.63.49.72.98,1.44,1.48,2.15.04.06.09.11.13.16.02,0,.03,0,.05-.01v-.25c0-2.19,0-4.38,0-6.57q0-.37.38-.37c.26,0,.52,0,.79,0,.19,0,.22.03.22.22,0,.05,0,.1,0,.15,0,3.06,0,6.12,0,9.19q0,.37-.38.37c-.17,0-.34,0-.52,0-.16,0-.27-.05-.35-.18-.25-.37-.5-.74-.76-1.11-.42-.61-.85-1.23-1.28-1.84-.93-1.34-1.85-2.69-2.77-4.03-.02-.03-.05-.05-.09-.11Z"></path><path class="cls-1" d="m82.38,7.63c0,.06-.01.09-.01.12.01.25.03.5.03.75,0,2.01,0,4.02,0,6.03q0,.35-.37.35c-.26,0-.52,0-.79,0-.2,0-.23-.03-.23-.23,0-.09,0-.19,0-.28,0-3.03,0-6.05,0-9.08,0-.02,0-.04,0-.06,0-.25.02-.27.28-.27.21,0,.42,0,.63,0,.12,0,.21.04.28.14.5.72,1,1.44,1.5,2.17.43.63.87,1.25,1.3,1.88.64.92,1.27,1.84,1.91,2.76.07.1.13.2.2.3.02,0,.03,0,.05-.01v-.23c0-2.21,0-4.42,0-6.63q0-.36.39-.36c.25,0,.49,0,.74,0,.19,0,.22.03.22.22,0,.05,0,.1,0,.15,0,3.06,0,6.13,0,9.19q0,.37-.38.37c-.12,0-.24-.01-.36,0-.25.03-.41-.06-.55-.27-.33-.52-.69-1.02-1.04-1.53-.8-1.15-1.59-2.3-2.39-3.45-.45-.65-.89-1.3-1.34-1.96,0-.01-.02-.02-.07-.05Z"></path><path class="cls-1" d="m65.06,10.96c.76,1.29,1.52,2.58,2.29,3.88-.07.02-.11.04-.16.04-.39,0-.78,0-1.17,0-.13,0-.21-.05-.27-.16-.5-.86-1-1.72-1.51-2.58-.11-.18-.23-.35-.35-.52-.25-.35-.6-.51-1.03-.51-.43,0-.85,0-1.28,0-.2,0-.23.03-.23.23,0,.55,0,1.1,0,1.65,0,.54,0,1.07,0,1.61,0,.27-.01.29-.31.29-.25,0-.51,0-.76,0-.31,0-.32,0-.32-.32,0-.04,0-.07,0-.11,0-3.04,0-6.08,0-9.12q0-.38.4-.38c1.24,0,2.48,0,3.72,0,.66,0,1.22.24,1.74.61.67.48,1.05,1.14,1.2,1.92.18.9-.04,1.73-.63,2.46-.24.3-.53.54-.86.74-.11.07-.23.11-.34.16-.04.02-.08.06-.14.09Zm-2.19-4.7c-.43,0-.85,0-1.28,0-.19,0-.22.03-.23.21,0,.03,0,.06,0,.09,0,1,0,2,0,3,0,.05,0,.1,0,.15,0,.09.05.15.15.15.06,0,.12,0,.18,0,.74,0,1.48,0,2.22,0,.71,0,1.22-.34,1.55-.9.33-.55.34-1.14.04-1.73-.11-.22-.27-.39-.45-.56-.3-.28-.65-.43-1.07-.42-.37,0-.75,0-1.12,0Z"></path><path class="cls-1" d="m79.18,9.94c0,1.54,0,3.07,0,4.61q0,.34-.34.34c-.27,0-.54,0-.81,0-.21,0-.23-.03-.24-.22,0-.05,0-.1,0-.15,0-3.06,0-6.12,0-9.18q0-.37.38-.37c.22,0,.43,0,.65,0q.37,0,.37.36c0,.89,0,1.79,0,2.68v1.93Z"></path><path class="cls-1" d="m12.07,4.99c.13.03.26.06.39.09.15.04.31.07.47.11.15.03.3.06.46.09.17.03.34.06.52.09.15.03.3.05.46.08.32.05.64.09.98.13.12.01.24.02.35.04.26.03.52.05.79.08.14.01.29.02.43.03.27.02.54.03.81.05.13,0,.26.01.4.02.41.01.82.02,1.24.02s.83,0,1.24-.02c.15,0,.3-.01.45-.02.24-.01.48-.02.72-.04.19-.01.37-.02.55-.04.16-.01.32-.03.47-.04.83-.08,1.61-.19,2.33-.31.02,0,.03,0,.05,0,.94-.17,1.76-.38,2.44-.61-1.18-.43-4.02-1.24-8.25-1.24s-7.04.81-8.21,1.24c.06.02.13.04.19.07.23.07.47.14.72.21Z"></path><path class="cls-1" d="m19.37,8.08h-2.66c-2.48,0-4.49,1.93-4.49,4.31v4.59c.94-1.29,1.64-2.24,1.65-2.26.04-.06.13-.07.2-.01.7.54,5.71,4.12,5.79,4.18.08.06.13,0,.13,0l5.23-7.19-1.17-.81c-.07-.05-.05-.15.03-.17l4.11-1.35c.07-.02.14.03.13.09l-.07,4.16c0,.08-.09.12-.16.08l-1.01-.7c-1.27,1.74-6.55,9-6.61,9.07-.06.08-.13.07-.21.02-.07-.05-4.74-3.45-5.67-4.12-.11-.08-.19-.07-.26.03l-2.13,2.91v9.26c1.98.5,4.46.79,7.16.79,6.46,0,11.69-1.69,11.69-3.77V5.23c-1.7,2.07-7.01,2.85-11.69,2.85Z"></path><path class="cls-1" d="m7.68,27.09v.08c0,1.13,1.54,2.14,3.97,2.83v-8.35l-3.97,5.43Z"></path><path class="cls-1" d="m19.37,0C12.91,0,7.68,1.69,7.68,3.77v3.74c-.43-.06-.9-.1-1.4-.09-2.63.03-4.53,1.32-5.59,3.53-1.4,2.92-.43,6.32.64,8,1.65,2.59,4.44,3.88,6.32,4.26.89-1.21,3.99-5.45,3.99-5.45v-5.36c0-2.68,2.26-4.84,5.05-4.84h2.66c6.46,0,11.69-1.41,11.69-3.77,0-2.08-5.23-3.77-11.69-3.77ZM7.68,19.72c-1.05-.4-2.66-1.31-3.6-2.75-.86-1.32-.97-3.43-.36-4.57.51-.95,1.35-1.61,2.53-1.65.53-.01,1.04.06,1.43.15v8.81ZM28.24,4.99s-.08.03-.12.05c-.12.05-.24.09-.37.13-.71.24-1.57.46-2.56.64-.02,0-.03,0-.05,0-.72.13-1.5.23-2.33.31-.16.02-.31.03-.47.04-.18.02-.37.03-.55.04-.24.02-.48.03-.72.04-.15,0-.3.01-.45.02-.41.01-.82.02-1.24.02s-.83,0-1.24-.02c-.13,0-.26-.01-.4-.02-.27-.01-.54-.03-.81-.05-.15-.01-.29-.02-.43-.03-.27-.02-.53-.05-.79-.08-.12-.01-.24-.02-.35-.04-.34-.04-.66-.09-.98-.13-.16-.02-.3-.05-.46-.08-.18-.03-.35-.06-.52-.09-.16-.03-.31-.06-.46-.09-.16-.03-.32-.07-.47-.11-.13-.03-.27-.06-.39-.09-.25-.07-.49-.13-.72-.21-.09-.03-.16-.05-.24-.08-.16-.05-.32-.11-.47-.17-.03-.01-.07-.03-.1-.04-.97-.39-1.54-.82-1.54-1.21,0-1.05,4.64-2.54,10.36-2.54s10.36,1.52,10.36,2.54c0,.41-.55.84-1.49,1.22Z"></path></svg> 