<?xml version="1.0" encoding="UTF-8"?> <svg xmlns="http://www.w3.org/2000/svg" id="Layer_1" width="100" height="16.03" viewBox="0 0 100 16.03"><defs><style>.cls-1{fill:#fff;}</style></defs><path class="cls-1" d="m12.78,2.73c-1.11-.59-2.76-1.2-4.68-1.2C4.32,1.53,1.66,4.32,1.66,8s2.67,6.47,6.44,6.47c2.02,0,3.67-.62,4.81-1.17v1.56c-.75.42-2.47,1.14-4.81,1.14C3.45,15.99,0,12.52,0,8S3.45,0,8.09,0C10.34,0,12.03.75,12.78,1.17v1.56Z"></path><path class="cls-1" d="m18.63,4.97l-.42-.62c.03.49.03.98.03,1.43v9.92h-1.59V0h0l6.89,9.04L30.43,0h.03v15.77h-1.59V5.82c0-.49,0-.94.03-1.43-.23.36-.55.81-.85,1.2l-4.52,5.82-4.91-6.44Z"></path><path class="cls-1" d="m34.46,15.08v-1.63c1.01.49,2.6,1.07,4.29,1.07,2.02,0,3.58-.91,3.58-2.47s-.85-2.41-3.58-3.38c-3.09-1.11-4.36-2.41-4.36-4.65C34.4,1.46,36.61,0,39.37,0,40.93,0,42.33.42,43.14.81v1.59c-.85-.42-2.34-.91-3.71-.91-1.98,0-3.41.98-3.41,2.47,0,1.4.75,2.37,3.54,3.38,3.09,1.11,4.39,2.34,4.39,4.62,0,2.57-2.08,4.06-5.1,4.06-1.79-.03-3.41-.49-4.39-.94Z"></path><path class="cls-1" d="m47.2.23l2.47,6.47c.62,1.56,1.11,3.15,1.5,4.29.42-1.14.98-2.5,1.63-4.06l2.63-6.47h.03l2.63,6.47c.65,1.56,1.2,2.93,1.63,4.06.39-1.14.91-2.7,1.5-4.29L63.69.23h2.24l-6.21,15.77h-.03l-3.35-8.42c-.29-.75-.65-1.59-.88-2.34-.26.75-.62,1.59-.88,2.34l-3.35,8.42h-.03L44.99.23s2.21,0,2.21,0Z"></path><path class="cls-1" d="m69.15,15.73V.23h2.08v15.51s-2.08,0-2.08,0Z"></path><path class="cls-1" d="m81.01.23c3.41,0,5.46,1.76,5.46,4.75,0,2.31-1.5,3.84-3.15,4.36l3.51,6.4h-2.31l-3.22-6.08h-3.22v6.08h-2.08V.23h5.01Zm-2.96,1.76v5.98h3.06c2.05,0,3.28-1.11,3.28-2.99s-1.3-2.99-3.45-2.99h-2.89Z"></path><path class="cls-1" d="m90.15,15.73V.23h9.53v1.76h-7.44v5.04h6.27v1.76h-6.27v5.23h7.77v1.76h-9.85v-.03Z"></path></svg> 