<?xml version="1.0" encoding="UTF-8"?> <svg xmlns="http://www.w3.org/2000/svg" id="Layer_1" width="100" height="55.38" viewBox="0 0 100 55.38"><defs><style>.cls-1{fill:#fff;}</style></defs><path class="cls-1" d="m44.66,7.7h6.02l-3.18-5.12-5.84,9.26h-2.66L46.1.72c.31-.45.82-.72,1.4-.72s1.07.26,1.37.7l7.13,11.14h-2.66l-1.25-2.07h-6.09l-1.33-2.07h0Zm27.61,2.07V.12h-2.26v10.61c0,.29.11.57.33.79s.51.34.82.34h10.28l1.33-2.07h-10.51Zm-37.32-1.73c2.19,0,3.97-1.77,3.97-3.96S37.14.12,34.95.12h-9.87v11.73h2.26V2.19h7.46c1.05,0,1.89.85,1.89,1.9s-.84,1.9-1.89,1.9h-6.36s6.73,5.86,6.73,5.86h3.28l-4.53-3.8h1.03Zm-23.74,3.8c-3.24,0-5.86-2.62-5.86-5.86S7.97.11,11.21.11h6.82c3.24,0,5.86,2.63,5.86,5.87s-2.62,5.86-5.86,5.86h-6.82Zm6.66-2.07c2.1,0,3.8-1.69,3.8-3.79s-1.7-3.8-3.8-3.8h-6.51c-2.1,0-3.8,1.7-3.8,3.8s1.7,3.79,3.8,3.79h6.51Zm42.83,2.07c-3.24,0-5.87-2.62-5.87-5.86S57.47.11,60.7.11h8.09l-1.32,2.07h-6.63c-2.1,0-3.8,1.7-3.8,3.8s1.7,3.79,3.8,3.79h8.13l-1.33,2.07h-6.95Zm27.58-2.07c-1.73,0-3.2-1.16-3.65-2.76h9.64l1.33-2.07h-10.97c.45-1.59,1.92-2.76,3.65-2.76h6.62l1.34-2.07h-8.11c-3.24,0-5.87,2.63-5.87,5.87s2.63,5.86,5.87,5.86h6.95l1.33-2.07h-8.13Z"></path><path class="cls-1" d="m98.67,2.68c-.19,0-.36-.04-.52-.11-.16-.07-.3-.17-.42-.29s-.22-.26-.29-.42c-.07-.16-.11-.34-.11-.52s.04-.36.11-.52c.07-.16.17-.3.29-.42.12-.12.26-.21.42-.29.16-.07.34-.11.52-.11s.36.04.52.11c.16.07.3.17.42.29.12.12.22.26.29.42.07.16.1.33.1.52s-.03.36-.1.52c-.07.16-.16.3-.29.42-.12.12-.26.22-.42.29-.16.07-.34.11-.52.11Zm0-.18c.16,0,.31-.03.45-.09.14-.06.26-.14.35-.25s.18-.23.23-.37c.06-.14.08-.29.08-.46s-.03-.31-.08-.45c-.06-.14-.13-.26-.23-.37s-.22-.18-.35-.24-.29-.09-.45-.09-.31.03-.45.09c-.14.06-.26.14-.36.24s-.18.23-.23.37c-.06.14-.08.29-.08.45s.03.32.08.46c.06.14.13.26.23.37s.22.19.36.25c.14.06.29.09.45.09Zm.67-.42h-.22l-.43-.69h-.33v.69h-.18V.6h.65c.2,0,.34.04.41.11.08.07.12.17.12.29,0,.07-.01.14-.04.19-.02.05-.06.09-.1.13-.04.03-.09.06-.15.07-.06.02-.12.02-.18.03l.45.69Zm-.7-.83h.17c.06,0,.12,0,.17-.02.05-.01.1-.04.13-.08s.05-.09.05-.17c0-.06-.01-.11-.03-.14-.02-.03-.05-.06-.09-.08-.03-.02-.08-.03-.12-.04-.04,0-.09,0-.13,0h-.43v.53h.28Z"></path><path class="cls-1" d="m62.1,46.57c-1.69,0-3.1-.72-4.02-2.02-.06-.08-.03-.2.05-.26l1.37-.89c.08-.06.19-.03.25.05.54.74,1.33,1.12,2.35,1.12.34,0,2.04-.06,2.07-1.23,0-.24-.08-.36-.15-.44-.21-.21-.63-.35-1.11-.35h-1.25c-1.22,0-2.2-.35-2.84-1-.52-.54-.78-1.25-.76-2.06.04-1.5,1.48-3.01,4.14-3.01,1.65,0,3.07.85,3.76,1.69.07.08.05.2-.04.26l-1.33.96c-.07.05-.18.05-.24-.02-.33-.35-1.13-.9-2.16-.9-1.46,0-2.13.63-2.15,1.07,0,.4.15.56.2.61.25.26.76.4,1.41.4h1.25c1.04,0,1.94.34,2.54.95.49.5.74,1.16.72,1.89-.06,2.2-2.09,3.18-4.06,3.18"></path><path class="cls-1" d="m8.94,39.39c.57-.57,1.33-.89,2.13-.89s1.57.32,2.14.89.88,1.33.88,2.14-.32,1.57-.88,2.14c-.57.57-1.33.89-2.14.89s-1.57-.32-2.13-.89c-.57-.57-.88-1.33-.88-2.14,0-.81.31-1.57.88-2.14m-.44,13.36h-.01c-.34-.33-.56-.77-.62-1.23,0-.06,0-.12,0-.17,0-1.13.81-1.97,1.98-2.04.06,0,.11,0,.15,0h2.03c.11,0,.33,0,.34,0,1.14.06,1.89.85,1.91,2.02-.03.68-.39,1.31-.96,1.68h-.01c-.08.06-.15.1-.22.13-.56.29-1.27.46-2.01.46s-1.42-.15-1.97-.44h0c-.21-.1-.4-.23-.57-.38-.01,0-.02,0-.03-.02m6.05-4.54c-.27-.2-.56-.36-.86-.47-.45-.17-.87-.26-1.29-.26h-2.97c-.24,0-.4-.1-.52-.18-.14-.1-.25-.27-.29-.39-.08-.23-.02-.48.17-.66l.17-.15c.66.31,1.37.46,2.11.46,2.77,0,5.03-2.26,5.03-5.04s-2.26-5.04-5.03-5.04-5.03,2.26-5.03,5.04c0,1.23.45,2.41,1.25,3.33t0,0h0c.05.07.06.15.02.23-.02.05-.05.09-.08.14-.44.58-.58,1.24-.43,2.03.07.35.22.67.49,1l.08.11c-.82.7-1.31,1.73-1.34,2.82v.08c0,.18,0,.36.03.54.05.33.13.66.26.97.31.75.85,1.39,1.53,1.81.2.12.41.22.62.3.55.23,1.16.38,1.81.45.27.03.53.04.79.04,1.02,0,2-.2,2.82-.59,0,0,.02,0,.03-.01l.04-.02s.04-.02.06-.03c.83-.42,1.47-1.14,1.81-2.02.17-.45.26-.92.26-1.4,0-1.21-.59-2.37-1.56-3.09"></path><path class="cls-1" d="m82.51,36.49c-2.78,0-5.03,2.26-5.03,5.04s2.25,5.04,5.03,5.04,5.03-2.26,5.03-5.04c0-2.78-2.25-5.04-5.03-5.04m0,1.97c1.69,0,3.07,1.38,3.07,3.07s-1.37,3.07-3.07,3.07-3.07-1.37-3.07-3.07,1.38-3.07,3.07-3.07"></path><path class="cls-1" d="m29.16,44.59c-1.69,0-3.06-1.37-3.06-3.07s1.37-3.07,3.06-3.07,3.06,1.37,3.06,3.07c0,1.7-1.37,3.07-3.06,3.07m5.02-2.87c0-.06,0-.13,0-.19,0-2.78-2.25-5.04-5.03-5.04s-5.03,2.26-5.03,5.04,2.25,5.04,5.03,5.04c1.11,0,2.15-.36,2.98-.98h0s.02-.01.03-.01c.03,0,.06.02.06.06h0v.8c0,.07.06.14.14.14h1.69c.07,0,.14-.06.14-.14,0,0,0-4.7,0-4.71"></path><path class="cls-1" d="m40.48,44.58c-1.69,0-3.06-1.37-3.06-3.06s1.37-3.06,3.06-3.06,3.05,1.37,3.05,3.06-1.37,3.06-3.05,3.06m0-8.09c-2.78,0-5.02,2.25-5.02,5.03,0,.06,0,.13,0,.19,0,0,0,.02,0,.03v9.19c0,.07.06.14.14.14h1.69c.07,0,.14-.06.14-.14v-5.29h0s.02-.06.06-.06c0,0,.02,0,.03,0h0c.83.61,1.86.98,2.97.98,2.77,0,5.02-2.25,5.02-5.03,0-2.78-2.25-5.03-5.02-5.03"></path><path class="cls-1" d="m76.19,40.77c-.06-2.38-1.99-4.29-4.38-4.29-.88,0-1.7.26-2.38.7v-5.06c0-.07-.06-.13-.13-.13h-1.74c-.07,0-.13.06-.13.13v8.74h0v5.57c0,.07.06.13.13.13h1.74c.07,0,.13-.06.13-.13v-5.59c0-1.3,1.07-2.36,2.38-2.36s2.37,1.06,2.38,2.36v5.59c0,.07.06.13.13.13h1.74c.07,0,.13-.06.13-.13v-5.66s0,0,0-.01"></path><path class="cls-1" d="m21.9,36.49c-2.51,0-4.54,2.03-4.55,4.55v5.37c0,.07.06.13.13.13h1.81c.07,0,.13-.06.13-.13v-5.36c0-1.36,1.11-2.47,2.47-2.47.46,0,.88.13,1.25.34.06.04.14.02.18-.04l1.04-1.49c.05-.07.03-.15-.04-.2-.7-.45-1.53-.71-2.42-.71"></path><path class="cls-1" d="m95.76,45.67l-1.04-1.48c-.04-.06-.12-.07-.18-.04-.37.21-.79.34-1.24.34-1.36,0-2.46-1.11-2.46-2.46v-3.56h3.57c.07,0,.13-.06.13-.13v-1.73c0-.07-.06-.14-.13-.14h-3.57v-4.34c0-.07-.06-.13-.13-.13h-1.8c-.07,0-.13.06-.13.13v9.91c0,2.5,2.03,4.53,4.54,4.53.89,0,1.72-.26,2.42-.7.06-.04.07-.13.03-.2"></path><path class="cls-1" d="m48.87,40.57c.4-1.23,1.55-2.11,2.91-2.11s2.51.89,2.91,2.11h-5.81Zm7.94.95c0-2.9-2.45-5.23-5.39-5.02-2.48.17-4.49,2.18-4.66,4.67-.2,2.94,2.12,5.4,5.02,5.4,1.89,0,3.52-1.03,4.38-2.57h0s.02-.03.02-.04c.02-.04.02-.08,0-.11-.02-.03-.06-.06-.1-.06h-2.2s-.06,0-.07.03c-.05.04-.1.08-.15.12h0c-.52.4-1.17.65-1.87.65-1.38,0-2.55-.93-2.93-2.19h7.77c.06,0,.11-.04.13-.1.04-.2.07-.35.07-.49,0-.02,0-.03,0-.03,0-.08,0-.16,0-.25"></path><path class="cls-1" d="m6.05,33.45c0,1.67-1.35,3.03-3.02,3.03s-3.02-1.36-3.02-3.03,1.35-3.02,3.02-3.02c1.67,0,3.02,1.35,3.02,3.02"></path><polygon class="cls-1" points="54.61 21.71 51.19 21.71 51.19 18.29 50.53 18.29 50.53 21.71 47.11 21.71 47.11 22.37 50.53 22.37 50.53 25.8 51.19 25.8 51.19 22.37 54.61 22.37 54.61 21.71"></polygon></svg> 