<?xml version="1.0" encoding="UTF-8"?> <svg xmlns="http://www.w3.org/2000/svg" id="Layer_1" width="100" height="31.68" viewBox="0 0 100 31.68"><defs><style>.cls-1{fill:#3a357e;}</style></defs><g id="Layer_2"><g id="Layer_1-2"><path class="cls-1" d="m39.76,11.88v-.02c0-.34-.05-.69-.19-1.01-.12-.29-.31-.54-.55-.74-.27-.22-.57-.4-.89-.54-.4-.16-.8-.29-1.21-.4-.38-.1-.7-.19-.95-.27-.21-.05-.4-.14-.6-.24-.12-.06-.22-.16-.3-.29-.05-.12-.09-.25-.08-.38v-.02c0-.22.11-.43.29-.56.19-.15.48-.22.86-.22s.78.09,1.15.24c.41.17.81.39,1.17.64l1.02-1.48c-.45-.36-.96-.64-1.51-.85-.58-.2-1.19-.3-1.81-.29-.43,0-.85.06-1.26.19-.36.12-.7.3-.99.54-.27.23-.49.53-.64.85-.16.35-.23.72-.22,1.1v.02c-.02.38.06.76.21,1.12.14.29.34.55.6.74.29.22.6.39.93.5.4.15.81.27,1.23.37.37.09.68.19.92.27.19.06.38.15.55.26.12.06.21.16.27.27.05.11.07.22.07.34v.02c0,.25-.12.49-.34.62-.22.15-.54.22-.95.22-.49,0-.97-.09-1.41-.29-.45-.21-.88-.48-1.26-.8l-1.17,1.39c.52.47,1.12.84,1.78,1.08.64.23,1.32.35,2,.35.45,0,.89-.05,1.33-.19.37-.11.72-.29,1.03-.54.29-.23.52-.53.67-.87.18-.35.26-.75.26-1.16h0Zm10.4-1.82v-.02c0-.61-.12-1.23-.35-1.79-.22-.54-.56-1.04-.99-1.46-.43-.42-.94-.75-1.5-.99-1.23-.49-2.58-.49-3.81,0-1.12.46-2.02,1.34-2.5,2.47-.24.57-.36,1.17-.36,1.79v.02c0,.61.12,1.23.35,1.79.22.54.56,1.04.99,1.46.43.42.94.75,1.5.99.61.25,1.25.37,1.9.36.65,0,1.3-.12,1.91-.36,1.12-.46,2.02-1.34,2.5-2.47.25-.57.36-1.18.36-1.79h0Zm-2.06.02c0,.37-.06.74-.19,1.08-.12.33-.31.63-.55.88s-.53.47-.85.6c-.34.15-.71.22-1.09.22-.37,0-.74-.07-1.09-.22-.65-.29-1.16-.83-1.42-1.5-.13-.35-.2-.71-.2-1.09v-.02c0-.37.06-.74.2-1.08.12-.33.31-.63.55-.88.23-.26.52-.46.85-.6.34-.15.71-.22,1.09-.22.37,0,.74.07,1.09.22.66.29,1.17.83,1.42,1.5.13.35.2.71.19,1.09v.02h0Zm11.03.55v-5.04h-1.96v5.12c0,.71-.17,1.25-.51,1.61s-.81.54-1.42.54-1.08-.19-1.42-.56-.51-.92-.51-1.65v-5.05h-1.96v5.1c0,1.32.34,2.31,1.03,2.97s1.64.99,2.83.99c.55,0,1.1-.08,1.62-.25.47-.16.88-.41,1.24-.75.35-.36.62-.78.78-1.26.2-.56.29-1.16.28-1.77h0Zm9.12,3.89l-2.18-3.19c.55-.19,1.02-.54,1.39-1,.36-.46.53-1.05.53-1.77v-.02c0-.93-.29-1.65-.88-2.17s-1.42-.78-2.48-.78h-4.08v8.94h1.96v-2.86h1.54l1.92,2.86h2.29Zm-2.26-5.86c.02.35-.13.68-.39.92-.26.23-.63.34-1.12.34h-1.99v-2.57h1.95c.49,0,.86.11,1.13.32s.41.53.41.95v.04h0Zm11.19,4.41l-1.25-1.26c-.32.3-.67.56-1.06.77-.35.19-.78.28-1.3.28-.71,0-1.4-.29-1.87-.83-.23-.26-.41-.57-.53-.89-.13-.35-.19-.71-.19-1.09v-.02c0-.36.06-.74.19-1.08.12-.33.3-.63.54-.88.23-.26.51-.46.82-.6.33-.15.68-.22,1.04-.22.42,0,.84.09,1.22.27.39.19.74.44,1.06.74l1.25-1.44c-.21-.2-.43-.4-.67-.56-.24-.17-.5-.32-.78-.43-.3-.12-.61-.22-.94-.28-.38-.07-.76-.11-1.14-.1-.64,0-1.29.12-1.89.36-.55.23-1.05.57-1.47.99-.41.43-.74.92-.95,1.47-.23.57-.35,1.18-.34,1.79v.02c0,.61.12,1.23.34,1.8.44,1.1,1.31,1.99,2.41,2.44.57.24,1.2.36,1.82.36.4,0,.79-.03,1.17-.11.33-.07.66-.17.96-.32.29-.14.56-.3.81-.5.26-.21.5-.43.72-.67h0Zm3.21,1.44V5.59h-1.96v8.94s1.96,0,1.96,0Zm9.75,0V5.59h-1.94v5.5l-4.19-5.5h-1.82v8.94h1.94v-5.68l4.33,5.68h1.68Zm9.85-1.26v-3.88h-3.88v1.7h1.98v1.29c-.5.36-1.12.54-1.85.54-.37,0-.74-.07-1.09-.21-.33-.14-.61-.34-.85-.6-.25-.26-.43-.57-.56-.9-.13-.36-.2-.74-.2-1.13v-.02c0-.37.06-.74.2-1.08.12-.33.31-.63.55-.88.23-.25.51-.46.81-.61.31-.15.66-.22,1-.22.23,0,.47.02.7.06.2.04.4.1.59.18.19.08.36.17.53.28.18.12.35.25.51.38l1.24-1.5c-.22-.19-.47-.36-.71-.52-.25-.16-.52-.29-.8-.38-.29-.11-.61-.19-.92-.24-.36-.06-.73-.09-1.09-.09-.64,0-1.28.12-1.88.36-1.71.71-2.82,2.4-2.81,4.26v.02c0,.63.11,1.26.34,1.84.22.54.55,1.04.96,1.46.43.42.93.74,1.48.95.61.23,1.26.36,1.91.35.81,0,1.54-.14,2.17-.42.61-.26,1.17-.6,1.67-1h0Zm-61.12,9.71v-5.85h-2.02v5.76c0,.52-.11.89-.32,1.13-.21.23-.5.35-.88.35-.3,0-.61-.08-.86-.24-.29-.18-.55-.4-.78-.66l-1.24,1.38c.33.38.72.71,1.17.95.47.26,1.06.4,1.75.4.43,0,.87-.06,1.29-.19.37-.12.71-.33,1-.6.29-.28.5-.63.64-1,.17-.46.25-.94.24-1.42h0Zm10.88-1.38v-.03c0-.61-.12-1.23-.35-1.79-.22-.54-.56-1.04-.99-1.46-.43-.42-.94-.75-1.5-.99-.61-.25-1.25-.37-1.9-.36-.65,0-1.3.12-1.91.36-1.12.46-2.02,1.34-2.5,2.47-.24.57-.36,1.18-.36,1.79v.02c0,.61.12,1.23.35,1.79.22.54.56,1.04.99,1.46.43.42.94.75,1.5.99,1.23.49,2.58.49,3.81,0,1.12-.46,2.02-1.34,2.5-2.47.23-.56.36-1.17.36-1.78h0Zm-2.06.03c0,.37-.06.74-.2,1.08-.12.33-.31.63-.55.88s-.53.47-.85.6c-.34.15-.71.22-1.09.22-.37,0-.74-.07-1.09-.22-.65-.29-1.16-.83-1.42-1.5-.13-.35-.2-.71-.19-1.09v-.03c0-.37.06-.74.19-1.08.12-.33.31-.63.55-.88.23-.26.52-.46.85-.6.34-.15.71-.22,1.09-.22.37,0,.74.07,1.09.22.66.29,1.17.83,1.42,1.5.13.35.2.71.2,1.09v.03h0Zm11.23.54v-5.04h-1.96v5.12c0,.71-.17,1.25-.51,1.61s-.81.54-1.42.54-1.08-.19-1.42-.56-.51-.92-.51-1.65v-5.05h-1.96v5.1c0,1.32.34,2.31,1.03,2.97.69.67,1.64.99,2.83.99.55,0,1.1-.08,1.62-.25.47-.16.88-.41,1.24-.75.35-.36.62-.78.78-1.26.2-.57.29-1.16.28-1.77h0Zm9.31,3.89l-2.18-3.19c.55-.19,1.02-.54,1.39-1,.36-.46.53-1.05.53-1.77v-.02c0-.93-.29-1.65-.88-2.17s-1.42-.78-2.48-.78h-4.09v8.94h1.96v-2.86h1.54l1.92,2.86h2.3Zm-2.26-5.86c.02.35-.13.68-.39.92s-.63.34-1.12.34h-1.99v-2.56h1.95c.49,0,.86.11,1.13.32.27.21.41.53.41.95v.03h0Zm11.48,5.86v-8.94h-1.94v5.5l-4.19-5.5h-1.82v8.94h1.94v-5.68l4.33,5.68h1.68Zm10.43,0l-3.83-9h-1.82l-3.82,8.99h2c1.29-3.17,1.37-3.36,2.71-6.64,1.36,3.31,1.39,3.41,2.71,6.64h2.06Zm7.38,0v-1.78h-4.45v-7.16h-1.96v8.94s6.42,0,6.42,0Z"></path><path class="cls-1" d="m22.06,11.02l-2.85,1.64-2.54,1.47-2.96,1.71-2.96-1.71-1.79-1.03-3.58-2.07-1.79-1.03,10.13-5.86,6.55,3.78,1.89-1.09,1.69-.98L13.72,0,0,7.91v4.13l3.58,2.07,1.79,1.03,3.58,2.07,4.76,2.75,8.34-4.82v-4.13h0ZM3.59,21.69v-3.42l-1.35-.78L0,16.2v7.56l3.58,2.07,1.79,1.03,4.76,2.75,3.58,2.07,3.58-2.07,4.76-2.75,1.79-1.03,3.58-2.07V7.91l-2.94,1.7-.64.36v11.7l-1.81,1.04-8.33,4.81-4.76-2.75-3.58-2.07-1.79-1.02h0Z"></path></g></g></svg> 