<?xml version="1.0" encoding="UTF-8"?> <svg xmlns="http://www.w3.org/2000/svg" id="Layer_2" width="100" height="23.2" viewBox="0 0 100 23.2"><defs><style>.cls-1{fill:#fff;}</style></defs><path class="cls-1" d="m41.55,17.88h-2.02l-1.22-6.34-2.37,6.5h-.75l-2.37-6.5-1.27,6.34h-2.02l2.37-11.77h1.11l2.55,7.93,2.49-7.93h1.1l2.4,11.77Z"></path><path class="cls-1" d="m49.68,14.19h-6.14c.04.69.27,1.22.71,1.6s1.02.57,1.75.57c.92,0,1.61-.24,2.09-.71l.78,1.53c-.71.57-1.76.86-3.16.86-1.31,0-2.35-.38-3.11-1.15-.76-.77-1.14-1.84-1.14-3.22s.42-2.45,1.26-3.29c.84-.84,1.84-1.26,3.02-1.26,1.25,0,2.25.37,3,1.12.75.74,1.13,1.69,1.13,2.84,0,.25-.06.62-.17,1.12Zm-6.07-1.51h4.22c-.14-1.26-.84-1.89-2.09-1.89-1.15,0-1.86.63-2.14,1.89Z"></path><path class="cls-1" d="m56.37,17.87v-.52c-.17.18-.45.34-.84.48-.4.14-.81.2-1.23.2-1.2,0-2.14-.38-2.83-1.14-.69-.76-1.03-1.82-1.03-3.18s.39-2.47,1.18-3.32c.79-.85,1.78-1.28,2.97-1.28.65,0,1.25.13,1.78.4v-3.45l2.01-.48v12.29h-2.01Zm0-6.55c-.43-.34-.88-.51-1.34-.51-.8,0-1.42.25-1.86.73-.43.49-.65,1.19-.65,2.11,0,1.79.86,2.68,2.59,2.68.19,0,.43-.06.71-.17.28-.11.46-.23.55-.35v-4.49Z"></path><path class="cls-1" d="m60.18,17.87v-6.96h-1.1v-1.65h3.13v8.6h-2.03Zm1.04-11.93c.32,0,.6.11.82.34.23.23.34.5.34.82s-.11.6-.34.82c-.23.23-.5.34-.82.34s-.6-.11-.82-.34c-.23-.23-.34-.5-.34-.82s.11-.6.34-.82c.23-.23.5-.34.82-.34Z"></path><path class="cls-1" d="m68.6,17.01c-.18.3-.5.54-.95.73-.45.19-.92.29-1.42.29-.93,0-1.65-.23-2.18-.69-.53-.46-.8-1.12-.8-1.97,0-1,.37-1.77,1.12-2.34s1.81-.84,3.18-.84c.24,0,.51.04.84.12,0-1.01-.64-1.52-1.92-1.52-.75,0-1.39.13-1.9.38l-.43-1.56c.69-.33,1.51-.5,2.47-.5,1.31,0,2.27.3,2.88.9s.92,1.73.92,3.39v1.84c0,1.15.23,1.87.69,2.16-.17.29-.35.47-.55.53-.2.07-.44.1-.7.1-.29,0-.55-.11-.78-.32-.23-.21-.39-.45-.47-.7Zm-.19-3.19c-.34-.07-.6-.1-.77-.1-1.58,0-2.38.52-2.38,1.56,0,.77.45,1.16,1.34,1.16,1.2,0,1.81-.6,1.81-1.81v-.8Z"></path><path class="cls-1" d="m74.04,13.54v4.33h-2.09V6.11c1.39-.06,2.21-.09,2.44-.09,1.86,0,3.22.29,4.08.86.86.57,1.29,1.46,1.29,2.67,0,2.7-1.59,4.05-4.77,4.05-.24,0-.55-.02-.95-.06Zm0-5.62v3.77c.35.04.63.06.84.06.95,0,1.65-.16,2.09-.48.44-.32.66-.84.66-1.55,0-1.22-.98-1.83-2.95-1.83-.22,0-.43.01-.63.04Z"></path><path class="cls-1" d="m79.42,13.55c0-1.31.38-2.38,1.14-3.2.76-.82,1.76-1.24,3-1.24,1.31,0,2.32.4,3.04,1.19.72.79,1.08,1.88,1.08,3.25s-.37,2.46-1.1,3.27c-.74.81-1.74,1.21-3.02,1.21s-2.32-.41-3.05-1.22c-.73-.82-1.09-1.9-1.09-3.26Zm2.09,0c0,1.9.68,2.84,2.05,2.84.63,0,1.12-.25,1.49-.74s.55-1.19.55-2.1c0-1.87-.68-2.8-2.04-2.8-.63,0-1.12.25-1.49.74-.37.49-.55,1.18-.55,2.06Z"></path><path class="cls-1" d="m88.11,17.32l.71-1.6c.6.48,1.28.71,2.03.71s1.17-.28,1.17-.84c0-.33-.12-.59-.35-.8-.24-.21-.69-.46-1.37-.74-1.48-.62-2.22-1.48-2.22-2.59,0-.74.28-1.32.85-1.74.57-.41,1.29-.62,2.18-.62s1.73.2,2.52.6l-.58,1.56c-.44-.37-1.05-.56-1.83-.56-.7,0-1.05.28-1.05.84,0,.22.11.42.35.59.23.18.72.41,1.48.71s1.3.66,1.63,1.08c.33.42.5.93.5,1.53,0,.8-.3,1.43-.89,1.88-.59.46-1.4.69-2.41.69-.57,0-1.03-.05-1.38-.14s-.79-.29-1.33-.57Z"></path><path class="cls-1" d="m95.34,10.89h-1v-1.61h1v-1.75l2.01-.74v2.49h2.36v1.61h-2.36v3.77c0,.62.1,1.05.29,1.31.19.25.53.38,1.01.38s.93-.13,1.35-.39v1.85c-.47.16-1.13.24-1.99.24s-1.52-.24-1.98-.73-.69-1.17-.69-2.07v-4.35Z"></path><polygon class="cls-1" points="12.1 23.2 19.76 23.2 17 8.41 12.1 23.2"></polygon><polygon class="cls-1" points="16.63 0 11.53 0 11.53 16.84 11.54 16.85 16.63 0"></polygon><polygon class="cls-1" points="18.12 0 22.78 23.2 23.05 23.2 23.05 0 18.12 0"></polygon><polygon class="cls-1" points="6 0 11.53 16.84 11.53 0 6 0"></polygon><polygon class="cls-1" points="3.26 23.2 11 23.2 5.93 8.36 3.26 23.2"></polygon><polygon class="cls-1" points="0 0 0 23.2 .24 23.2 4.55 0 0 0"></polygon></svg> 