<?xml version="1.0" encoding="UTF-8"?> <svg xmlns="http://www.w3.org/2000/svg" id="layer" width="1.39in" height=".45in" viewBox="0 0 100 32.61"><defs><style>.cls-1{fill:#3a357e;}</style></defs><path class="cls-1" d="m27.47.17v5.13h-2.68v-2.82h-2.82c-.74.03-1.11.03-1.46.32-.4.35-.4.64-.45,1.88v8.38c0,.15.03.85.03,1.04.1,1.04.72,1.16,1.83,1.16h3.03v-3.1h2.67v5.43h-6.47c-1.19-.03-2.6-.07-3.45-1.68-.44-.87-.44-1.78-.44-2.65V4.93c0-1.37,0-2.97,1.26-4.02.82-.67,1.63-.69,2.65-.74h6.3Z"></path><path class="cls-1" d="m34.16,12.72c0,2.08,0,2.5,1.78,2.55h1.89c1.68,0,1.76-.69,1.76-2.55v-7.59c.05-2.35-.17-2.72-2.1-2.77h-1.06c-1.94,0-2.26.17-2.26,2.78v7.58h-.02ZM38.25.08c2.31-.02,4.09.37,4.09,4.19v9.27c0,1.01,0,2.35-1.14,3.3-.92.79-1.84.79-2.97.79h-2.67c-1.36,0-3.02.03-3.82-1.71-.32-.69-.35-1.14-.42-3.35v-7.27c.05-2.46.05-2.77.42-3.52.84-1.73,2.68-1.71,3.55-1.71h2.95v.02Z"></path><path class="cls-1" d="m50.08,15.27h3.34c1.83.02,1.84-.52,1.89-2.26V4.91c-.03-1.88-.05-2.36-1.94-2.41h-3.29v12.77h0ZM45.88.17h8.11c.82,0,1.93-.02,2.82.67,1.29,1.01,1.29,2.6,1.29,3.87v8.57c0,1.84-.32,2.82-1.16,3.5-.96.82-2.13.82-3.4.82h-7.64v-2.31h1.46V2.51h-1.46V.17h-.02Z"></path><path class="cls-1" d="m64.38,0c.84,0,1.53.69,1.53,1.53s-.67,1.53-1.53,1.53-1.53-.67-1.53-1.53.69-1.53,1.53-1.53m1.78,15.22h1.54v2.4h-5.78v-2.4h1.54v-7.83h-1.54v-2.4h4.24v10.22Z"></path><polygon class="cls-1" points="79.85 2.48 75.06 2.48 75.06 7.54 80.22 7.54 80.22 9.89 75.06 9.89 75.06 15.27 80.02 15.27 80.02 12.05 82.57 12.05 82.57 17.58 70.87 17.58 70.87 15.27 72.31 15.27 72.31 2.48 70.87 2.48 70.87 .17 82.42 .17 82.42 5.28 79.85 5.28 79.85 2.48"></polygon><polygon class="cls-1" points="9.29 17.58 6.22 17.58 13.09 .07 16.16 .07 9.29 17.58"></polygon><polygon class="cls-1" points="3.07 17.58 0 17.58 6.86 .07 9.92 .07 3.07 17.58"></polygon><polygon class="cls-1" points="93.14 17.58 90.08 17.58 96.93 .07 100 .07 93.14 17.58"></polygon><polygon class="cls-1" points="86.91 17.58 83.84 17.58 90.71 .07 93.78 .07 86.91 17.58"></polygon><polygon class="cls-1" points="58.15 23.23 60.28 23.23 61.07 29.71 61.11 29.71 62.05 23.23 64.03 23.23 65.04 29.71 65.07 29.71 65.85 23.23 67.89 23.23 66.33 32.33 63.96 32.33 63.02 25.87 63 25.87 62.12 32.33 59.76 32.33 58.15 23.23"></polygon><rect class="cls-1" x="68.67" y="23.23" width="2.14" height="9.08"></rect><polygon class="cls-1" points="72.17 23.23 74.63 23.23 76.4 29.14 76.42 29.14 76.42 23.23 78.4 23.23 78.4 32.33 75.98 32.33 74.12 26.06 74.07 26.06 74.07 32.33 72.17 32.33 72.17 23.23"></polygon><polygon class="cls-1" points="79.73 23.23 82.19 23.23 83.93 29.14 83.96 29.14 83.96 23.23 85.96 23.23 85.96 32.33 83.52 32.33 81.66 26.06 81.64 26.06 81.64 32.33 79.73 32.33 79.73 23.23"></polygon><polygon class="cls-1" points="87.27 23.23 92.53 23.23 92.53 24.95 89.4 24.95 89.4 26.79 92.35 26.79 92.35 28.52 89.4 28.52 89.4 30.59 92.67 30.59 92.67 32.33 87.27 32.33 87.27 23.23"></polygon><path class="cls-1" d="m93.63,23.23h3.59c1.82,0,2.44,1.13,2.44,2.37,0,1.33-.53,1.98-1.54,2.21v.02c1.36.18,1.45,1.03,1.47,2.28.05,1.79.09,1.98.41,2.09v.11h-2.3c-.16-.3-.23-.8-.23-1.84,0-1.59-.21-1.91-.9-1.91h-.8v3.75h-2.14v-9.08h0Zm2.14,3.84h.67c.87,0,1.1-.64,1.1-1.2,0-.69-.25-1.15-1.1-1.15h-.64v2.34h-.02Z"></path><path class="cls-1" d="m2.07,29.64v.32c0,.69.18,1.22.94,1.22s.97-.55.97-1.08c0-1.98-3.93-.87-3.93-4.27,0-1.45.78-2.69,2.99-2.69s2.92,1.08,2.92,2.48v.21h-2.07c0-.44-.05-.76-.18-.97-.14-.23-.32-.32-.64-.32-.53,0-.85.32-.85.99,0,1.91,3.93.94,3.93,4.16,0,2.07-1.15,2.9-3.13,2.9-1.56,0-3.01-.48-3.01-2.37v-.6h2.07v.02Z"></path><rect class="cls-1" x="7.19" y="23.32" width="2.14" height="9.12"></rect><rect class="cls-1" x="10.73" y="23.32" width="2.14" height="9.12"></rect><path class="cls-1" d="m15.93,23.32h2.69l2.28,9.12h-2.23l-.32-1.75h-2.18l-.32,1.75h-2.23l2.32-9.12Zm1.31,1.65h-.02l-.76,4.07h1.56l-.78-4.07Z"></path><path class="cls-1" d="m28.32,26.49c0-1.33-.16-1.91-.87-1.91-.85,0-.94.83-.94,3.19,0,2.71.09,3.4.99,3.4.78,0,.87-.9.9-2.32h2.07v.32c0,1.98-.55,3.42-3.19,3.42s-2.96-2.05-2.96-4.8c0-2.34.14-4.67,3.17-4.67,1.88,0,2.92.83,2.92,2.96v.39h-2.07Z"></path><path class="cls-1" d="m34.36,32.61c-2.83,0-3.19-1.84-3.19-4.73s.39-4.73,3.19-4.73c3.03,0,3.19,2.21,3.19,4.73s-.16,4.73-3.19,4.73m-.02-1.42c.87,0,.99-.8.99-3.31s-.14-3.31-.99-3.31-.97.8-.97,3.31c0,2.51.11,3.31.97,3.31"></path><path class="cls-1" d="m38.68,23.32h3.17c2.11,0,3.03,1.1,3.03,4.27s-.41,4.85-3.24,4.85h-2.96v-9.12Zm2.14,7.52h.57c.99,0,1.33-.39,1.33-3.13,0-2.23-.18-2.83-1.31-2.83h-.6v5.95h0Z"></path><path class="cls-1" d="m45.97,23.21h2.07v1.59h-2.07v-1.59Zm0,2.32h2.07v6.92h-2.07v-6.92Z"></path><polygon class="cls-1" points="49.32 23.32 54.61 23.32 54.61 25.05 51.48 25.05 51.48 26.89 54.4 26.89 54.4 28.61 51.48 28.61 51.48 30.7 54.75 30.7 54.75 32.42 49.32 32.42 49.32 23.32"></polygon></svg> 