<?xml version="1.0" encoding="UTF-8"?> <svg xmlns="http://www.w3.org/2000/svg" id="Layer_1" width="599.76" height="400.32" viewBox="0 0 599.76 400.32"><defs><style>.cls-1{fill:#3a357e;}</style></defs><path class="cls-1" d="m108.31,274.77h-1.94l3.12-17.64h-6.48l.3-1.72h14.94l-.3,1.72h-6.51l-3.12,17.64Z"></path><path class="cls-1" d="m125.36,261.64c1.37,0,2.43.36,3.2,1.07.78.69,1.18,1.64,1.18,2.84,0,.22-.02.44-.05.66-.02.22-.05.46-.08.71l-1.4,7.85h-1.83l1.26-7.09c.11-.57.16-1.1.16-1.61,0-.89-.22-1.6-.66-2.11-.42-.53-1.17-.79-2.24-.79-.49,0-.98.1-1.48.3s-.95.51-1.37.93c-.42.42-.79.95-1.12,1.59-.31.62-.54,1.36-.68,2.22l-1.15,6.57h-1.83l3.64-20.68h1.83l-1.75,9.98h.05c.47-.75,1.09-1.34,1.86-1.78.77-.44,1.59-.66,2.46-.66Z"></path><path class="cls-1" d="m135.24,268.86c-.02.11-.04.22-.05.33v.27c0,.6.1,1.15.3,1.64.22.49.51.92.88,1.29.38.36.82.65,1.31.85.51.2,1.06.3,1.64.3,1,0,1.88-.22,2.63-.66.75-.46,1.35-.98,1.81-1.59l1.15,1.09c-.75.89-1.61,1.57-2.6,2.02s-2.03.68-3.15.68c-.82,0-1.59-.13-2.3-.38-.71-.26-1.33-.62-1.86-1.09-.51-.47-.92-1.06-1.23-1.75-.29-.71-.44-1.51-.44-2.41,0-1.04.19-2.03.57-2.98.38-.95.9-1.78,1.56-2.49.67-.71,1.46-1.28,2.35-1.7.91-.44,1.89-.66,2.93-.66,1.75,0,3.07.47,3.97,1.4.91.93,1.37,2.13,1.37,3.61,0,.22-.02.56-.05,1.01-.04.44-.1.84-.19,1.2h-10.59Zm8.95-1.37c.02-.15.03-.3.03-.47.02-.18.03-.35.03-.49,0-.98-.3-1.79-.9-2.41-.6-.64-1.49-.96-2.65-.96-.67,0-1.3.12-1.89.36-.57.22-1.08.53-1.53.93-.44.4-.81.87-1.12,1.4-.31.51-.53,1.06-.66,1.64h8.7Z"></path><path class="cls-1" d="m160.68,255.4h5.17c1.9,0,3.36.41,4.4,1.23s1.56,1.96,1.56,3.42c0,.95-.18,1.78-.55,2.49-.36.71-.88,1.31-1.53,1.81-.64.47-1.41.83-2.33,1.07-.89.24-1.88.36-2.95.36h-3.67l-1.59,9h-2.73l4.21-19.37Zm.38,8.75h3.56c1.64,0,2.92-.33,3.83-.98.93-.66,1.4-1.62,1.4-2.9,0-1.19-.37-2.01-1.12-2.49-.75-.47-1.76-.71-3.04-.71h-3.36l-1.26,7.09Z"></path><path class="cls-1" d="m174.97,264.78c.07-.35.15-.79.22-1.34.09-.55.15-1.04.19-1.48h1.75c-.04.35-.08.73-.14,1.15s-.11.77-.16,1.04h.05c.47-.75,1.08-1.35,1.81-1.81.73-.47,1.55-.71,2.46-.71.24,0,.45,0,.63.03.18.02.37.05.57.11l-.44,1.75c-.09-.04-.26-.07-.52-.11-.24-.04-.48-.05-.74-.05-.49,0-.98.09-1.45.27-.47.18-.91.47-1.31.88s-.73.88-1.04,1.5c-.29.6-.51,1.33-.66,2.19l-1.15,6.57h-1.83l1.75-9.98Z"></path><path class="cls-1" d="m184.6,268.86c-.02.11-.04.22-.05.33v.27c0,.6.1,1.15.3,1.64.22.49.51.92.88,1.29.38.36.82.65,1.31.85.51.2,1.06.3,1.64.3,1,0,1.88-.22,2.63-.66.75-.46,1.35-.98,1.81-1.59l1.15,1.09c-.75.89-1.61,1.57-2.6,2.02s-2.03.68-3.15.68c-.82,0-1.59-.13-2.3-.38s-1.33-.62-1.86-1.09c-.51-.47-.92-1.06-1.23-1.75-.29-.71-.44-1.51-.44-2.41,0-1.04.19-2.03.57-2.98.38-.95.9-1.78,1.56-2.49.67-.71,1.46-1.28,2.35-1.7.91-.44,1.89-.66,2.93-.66,1.75,0,3.07.47,3.97,1.4.91.93,1.37,2.13,1.37,3.61,0,.22-.02.56-.05,1.01-.04.44-.1.84-.19,1.2h-10.59Zm8.95-1.37c.02-.15.03-.3.03-.47.02-.18.03-.35.03-.49,0-.98-.3-1.79-.9-2.41-.6-.64-1.49-.96-2.65-.96-.68,0-1.3.12-1.89.36-.57.22-1.08.53-1.53.93-.44.4-.81.87-1.12,1.4-.31.51-.53,1.06-.66,1.64h8.7Z"></path><path class="cls-1" d="m215.54,261.64c1.39,0,2.46.36,3.23,1.07.78.69,1.18,1.64,1.18,2.84,0,.22-.02.44-.05.66-.02.22-.05.46-.08.71l-1.4,7.85h-1.83l1.26-7.09c.11-.57.16-1.1.16-1.61,0-.89-.21-1.6-.63-2.11-.42-.53-1.16-.79-2.22-.79-.67,0-1.26.14-1.75.41-.47.27-.88.64-1.23,1.09-.33.46-.59.97-.79,1.53-.18.57-.33,1.15-.44,1.75l-1.2,6.81h-1.83l1.34-7.44c.11-.6.16-1.16.16-1.67,0-.77-.19-1.37-.57-1.81-.36-.46-1.02-.68-1.97-.68-.44,0-.89.1-1.37.3-.47.2-.92.51-1.34.93-.42.42-.79.95-1.12,1.59-.33.62-.57,1.36-.71,2.22l-1.15,6.57h-1.83l1.75-9.98c.07-.35.15-.79.22-1.34.09-.55.16-1.04.19-1.48h1.75c-.04.35-.08.73-.14,1.15s-.11.77-.16,1.04h.05c.53-.78,1.17-1.4,1.91-1.83.75-.46,1.59-.68,2.52-.68.35,0,.7.04,1.07.11.38.07.74.22,1.07.44.35.2.65.47.9.82.26.35.44.79.55,1.34.49-.88,1.12-1.54,1.89-2,.77-.47,1.64-.71,2.63-.71Z"></path><path class="cls-1" d="m226.23,274.77h-1.83l2.27-12.8h1.83l-2.27,12.8Zm3.76-17.75c0,.36-.13.67-.38.93-.24.26-.93.38-1.3.38s-.65-.11-.9-.33c-.24-.22-.36-.52-.36-.9s.13-.7.38-.96c.27-.26.58-.38.93-.38s1.03.12,1.27.36c.24.22.36.52.36.9Z"></path><path class="cls-1" d="m233.79,268.86c-.02.11-.04.22-.05.33v.27c0,.6.1,1.15.3,1.64.22.49.51.92.88,1.29.38.36.82.65,1.31.85.51.2,1.06.3,1.64.3,1,0,1.88-.22,2.63-.66.75-.46,1.35-.98,1.81-1.59l1.15,1.09c-.75.89-1.61,1.57-2.6,2.02s-2.03.68-3.15.68c-.82,0-1.59-.13-2.3-.38-.71-.26-1.33-.62-1.86-1.09-.51-.47-.92-1.06-1.23-1.75-.29-.71-.44-1.51-.44-2.41,0-1.04.19-2.03.57-2.98.38-.95.9-1.78,1.56-2.49.67-.71,1.46-1.28,2.35-1.7.91-.44,1.89-.66,2.93-.66,1.75,0,3.07.47,3.97,1.4.91.93,1.37,2.13,1.37,3.61,0,.22-.02.56-.05,1.01-.04.44-.1.84-.19,1.2h-10.59Zm8.95-1.37c.02-.15.03-.3.03-.47.02-.18.03-.35.03-.49,0-.98-.3-1.79-.9-2.41-.6-.64-1.49-.96-2.65-.96-.67,0-1.3.12-1.89.36-.57.22-1.08.53-1.53.93-.44.4-.81.87-1.12,1.4-.31.51-.53,1.06-.66,1.64h8.7Z"></path><path class="cls-1" d="m249.5,264.78c.07-.35.15-.79.22-1.34.09-.55.15-1.04.19-1.48h1.75c-.04.35-.08.73-.14,1.15s-.11.77-.16,1.04h.05c.47-.75,1.08-1.35,1.81-1.81.73-.47,1.55-.71,2.46-.71.24,0,.45,0,.63.03.18.02.37.05.57.11l-.44,1.75c-.09-.04-.26-.07-.52-.11-.24-.04-.48-.05-.74-.05-.49,0-.98.09-1.45.27-.47.18-.91.47-1.31.88s-.73.88-1.04,1.5c-.29.6-.51,1.33-.66,2.19l-1.15,6.57h-1.83l1.75-9.98Z"></path><path class="cls-1" d="m277.6,258.41c-.35-.51-.85-.94-1.5-1.29-.66-.35-1.42-.52-2.3-.52-.57,0-1.13.08-1.7.25-.57.15-1.08.38-1.53.71-.46.31-.83.71-1.12,1.2-.27.47-.41,1.05-.41,1.72,0,.51.09.95.27,1.31.18.36.43.68.74.96.33.27.7.51,1.12.71.44.2.9.39,1.4.57.57.22,1.14.47,1.72.74.58.27,1.11.61,1.59,1.01.47.4.86.88,1.15,1.42.29.53.44,1.16.44,1.89,0,.66-.12,1.35-.36,2.08-.24.71-.63,1.38-1.18,2-.55.6-1.27,1.1-2.16,1.5-.89.38-2,.57-3.31.57-1.19,0-2.33-.24-3.42-.71-1.09-.49-1.93-1.21-2.52-2.16l1.75-1.12c.36.64.91,1.19,1.64,1.64.73.44,1.6.66,2.63.66.66,0,1.28-.09,1.86-.27.6-.2,1.12-.47,1.56-.82.46-.36.81-.8,1.07-1.31.25-.51.38-1.08.38-1.7,0-.55-.11-1.02-.33-1.42s-.52-.75-.9-1.04c-.36-.29-.79-.55-1.29-.77-.47-.22-.98-.43-1.53-.63s-1.09-.44-1.61-.71c-.53-.27-.99-.6-1.4-.98-.4-.38-.73-.83-.98-1.34-.24-.53-.36-1.14-.36-1.83,0-.82.15-1.59.47-2.3.31-.71.76-1.32,1.34-1.83.58-.53,1.3-.94,2.16-1.23.86-.31,1.83-.47,2.93-.47,1.31,0,2.43.22,3.34.66.93.42,1.6.97,2.02,1.64l-1.67,1.2Z"></path><path class="cls-1" d="m288.85,263.5h-3.47l-1.34,7.5c-.05.33-.08.62-.08.88,0,.6.15,1,.44,1.2.29.2.67.3,1.15.3.26,0,.54-.04.85-.11.31-.07.55-.17.71-.3l-.22,1.59c-.24.13-.55.22-.93.27-.36.07-.76.11-1.18.11-.31,0-.63-.04-.96-.11-.31-.07-.6-.2-.88-.38-.26-.2-.47-.47-.66-.79-.16-.33-.25-.75-.25-1.26,0-.26.03-.55.08-.88l1.42-8.02h-2.65l.3-1.53h2.6l.63-3.61h1.83l-.63,3.61h3.53l-.3,1.53Z"></path><path class="cls-1" d="m299.76,266.92c.05-.31.09-.55.11-.71.02-.18.03-.35.03-.49,0-.93-.26-1.59-.79-1.97-.53-.38-1.27-.57-2.22-.57-.77,0-1.5.15-2.22.47-.71.29-1.3.65-1.78,1.07l-.82-1.23c.62-.55,1.39-.98,2.3-1.31.91-.35,1.81-.52,2.71-.52.6,0,1.18.07,1.72.22.57.13,1.05.35,1.45.66.42.29.75.67.98,1.15.26.46.38,1.01.38,1.67,0,.16,0,.39-.03.68-.02.27-.05.5-.08.68l-.93,5.2c-.09.49-.16,1-.22,1.53-.05.53-.08.98-.08,1.34h-1.64c0-.31,0-.65.03-1.01.04-.36.08-.72.14-1.07h-.05c-.36.42-.73.78-1.09,1.09-.36.29-.75.53-1.15.71-.38.18-.8.31-1.26.38-.44.09-.92.14-1.45.14-.44,0-.88-.05-1.34-.16-.46-.11-.88-.29-1.26-.55-.36-.27-.67-.62-.93-1.04-.24-.42-.36-.94-.36-1.56,0-1.02.29-1.84.88-2.46.58-.64,1.34-1.12,2.27-1.45.95-.35,2.01-.57,3.17-.68,1.17-.13,2.34-.19,3.53-.19Zm-.68,1.4c-.82,0-1.66.05-2.52.14-.86.07-1.64.23-2.35.47-.69.22-1.27.54-1.72.96-.44.4-.66.94-.66,1.61,0,.4.07.74.22,1.01.15.26.34.47.57.63.26.15.54.26.85.33.33.05.66.08.98.08.66,0,1.26-.11,1.81-.33.55-.22,1.03-.52,1.45-.9.42-.38.77-.82,1.04-1.31.27-.51.47-1.05.57-1.61l.19-1.07h-.44Z"></path><path class="cls-1" d="m306.96,264.78c.07-.35.15-.79.22-1.34.09-.55.15-1.04.19-1.48h1.75c-.04.35-.08.73-.14,1.15s-.11.77-.16,1.04h.05c.47-.75,1.08-1.35,1.81-1.81.73-.47,1.55-.71,2.46-.71.24,0,.45,0,.63.03.18.02.37.05.57.11l-.44,1.75c-.09-.04-.26-.07-.52-.11-.24-.04-.48-.05-.74-.05-.49,0-.98.09-1.45.27-.47.18-.91.47-1.31.88-.38.38-.73.88-1.04,1.5-.29.6-.51,1.33-.66,2.19l-1.15,6.57h-1.83l1.75-9.98Z"></path><path class="cls-1" d="m322.03,263.5h-3.47l-1.34,7.5c-.05.33-.08.62-.08.88,0,.6.15,1,.44,1.2.29.2.67.3,1.15.3.26,0,.54-.04.85-.11.31-.07.55-.17.71-.3l-.22,1.59c-.24.13-.55.22-.93.27-.36.07-.76.11-1.18.11-.31,0-.63-.04-.96-.11-.31-.07-.6-.2-.88-.38-.26-.2-.47-.47-.66-.79-.16-.33-.25-.75-.25-1.26,0-.26.03-.55.08-.88l1.42-8.02h-2.65l.3-1.53h2.6l.63-3.61h1.83l-.63,3.61h3.53l-.3,1.53Z"></path><path class="cls-1" d="m333.59,274.77c.04-.35.08-.73.14-1.15s.11-.77.16-1.04h-.05c-.49.78-1.13,1.4-1.91,1.86-.77.44-1.59.66-2.46.66-1.39,0-2.47-.35-3.26-1.04-.77-.71-1.15-1.67-1.15-2.87,0-.22,0-.44.03-.66.04-.22.07-.46.11-.71l1.4-7.85h1.83l-1.26,7.09c-.11.58-.16,1.12-.16,1.61,0,.89.21,1.6.63,2.11.42.51,1.16.77,2.22.77.49,0,.98-.1,1.48-.3.49-.2.95-.5,1.37-.9.44-.42.82-.94,1.15-1.56.33-.64.57-1.39.71-2.24l1.15-6.57h1.83l-1.75,9.98c-.07.35-.15.79-.25,1.34-.07.55-.13,1.04-.16,1.48h-1.78Z"></path><path class="cls-1" d="m344.59,264.05c.2-.33.47-.64.79-.93s.69-.55,1.09-.77c.42-.22.87-.39,1.34-.52.47-.13.97-.19,1.48-.19.88,0,1.66.14,2.35.41.71.26,1.32.63,1.83,1.12.51.49.9,1.08,1.18,1.75s.41,1.42.41,2.24c0,1.09-.19,2.12-.57,3.09s-.91,1.81-1.59,2.52c-.66.71-1.45,1.28-2.38,1.7-.91.42-1.91.63-2.98.63-.93,0-1.81-.21-2.63-.63-.8-.42-1.41-1.04-1.83-1.86h-.05l-1.56,8.73h-1.83l3.45-19.37h1.83l-.38,2.08h.05Zm8.56,3.23c0-.57-.09-1.09-.27-1.59-.16-.51-.42-.95-.77-1.31-.35-.38-.77-.67-1.26-.88-.49-.22-1.07-.33-1.72-.33-.8,0-1.55.16-2.24.49-.69.33-1.29.78-1.81,1.37-.51.57-.91,1.23-1.2,2-.29.75-.44,1.54-.44,2.38,0,.6.09,1.16.27,1.67.2.49.48.93.85,1.31.36.36.79.65,1.29.85.51.2,1.09.3,1.72.3.84,0,1.6-.16,2.27-.49.69-.33,1.29-.78,1.78-1.34s.87-1.22,1.12-1.97c.27-.77.41-1.59.41-2.46Z"></path><path class="cls-1" d="m380.54,272.01h.05l2.93-16.6h1.94l-3.42,19.37h-2.43l-7.93-16.82h-.05l-2.95,16.82h-1.94l3.42-19.37h2.43l7.96,16.6Z"></path><path class="cls-1" d="m389.29,268.86c-.02.11-.04.22-.05.33v.27c0,.6.1,1.15.3,1.64.22.49.51.92.88,1.29.38.36.82.65,1.31.85.51.2,1.06.3,1.64.3,1,0,1.88-.22,2.63-.66.75-.46,1.35-.98,1.81-1.59l1.15,1.09c-.75.89-1.61,1.57-2.6,2.02-.98.46-2.03.68-3.15.68-.82,0-1.59-.13-2.3-.38-.71-.26-1.33-.62-1.86-1.09-.51-.47-.92-1.06-1.23-1.75-.29-.71-.44-1.51-.44-2.41,0-1.04.19-2.03.57-2.98.38-.95.9-1.78,1.56-2.49.67-.71,1.46-1.28,2.35-1.7.91-.44,1.89-.66,2.93-.66,1.75,0,3.07.47,3.97,1.4.91.93,1.37,2.13,1.37,3.61,0,.22-.02.56-.05,1.01-.04.44-.1.84-.19,1.2h-10.59Zm8.95-1.37c.02-.15.03-.3.03-.47.02-.18.03-.35.03-.49,0-.98-.3-1.79-.9-2.41-.6-.64-1.49-.96-2.65-.96-.68,0-1.3.12-1.89.36-.57.22-1.08.53-1.53.93-.44.4-.81.87-1.12,1.4-.31.51-.53,1.06-.66,1.64h8.7Z"></path><path class="cls-1" d="m406.79,261.97l.88,10.4h.05l5.42-10.4h1.75l1.5,10.4h.08l5.12-10.4h1.97l-6.54,12.8h-1.97l-1.45-10.37h-.05l-5.33,10.37h-1.94l-1.4-12.8h1.91Z"></path><path class="cls-1" d="m433.92,264.78c-.26-.47-.64-.86-1.15-1.15-.51-.31-1.12-.47-1.83-.47-.33,0-.68.04-1.04.11-.35.07-.68.19-.98.36-.29.16-.54.38-.74.66-.18.26-.27.57-.27.96,0,.35.05.63.16.85.13.22.3.41.52.57.22.15.48.28.79.41.31.11.67.22,1.07.33,1.26.36,2.22.83,2.87,1.4.66.55.98,1.33.98,2.35,0,.69-.16,1.3-.47,1.81-.31.49-.7.9-1.18,1.23-.47.31-1,.54-1.59.68-.58.15-1.16.22-1.72.22-1.08,0-2.09-.2-3.04-.6-.93-.4-1.66-1.01-2.19-1.83l1.59-1.04c.31.53.77.98,1.4,1.37.62.36,1.34.55,2.16.55.4,0,.79-.04,1.18-.11.38-.09.72-.22,1.01-.38.31-.18.56-.41.74-.68.18-.29.27-.63.27-1.01,0-.67-.27-1.19-.82-1.53-.53-.36-1.3-.71-2.3-1.04-.38-.13-.77-.27-1.15-.44-.38-.16-.73-.37-1.04-.63-.31-.27-.57-.59-.77-.96-.18-.38-.27-.84-.27-1.37,0-.66.15-1.22.44-1.7.31-.47.69-.86,1.15-1.15.47-.31,1-.54,1.59-.68.58-.15,1.17-.22,1.75-.22.98,0,1.86.19,2.63.57.78.38,1.35.89,1.7,1.53l-1.45,1.04Z"></path><path class="cls-1" d="m449.18,255.4h1.94l-1.5,8.43h10.31l1.5-8.43h1.94l-3.42,19.37h-1.94l1.61-9.19h-10.31l-1.61,9.19h-1.94l3.42-19.37Z"></path><path class="cls-1" d="m475.11,274.77c.04-.35.08-.73.14-1.15.05-.42.11-.77.16-1.04h-.05c-.49.78-1.13,1.4-1.91,1.86-.77.44-1.59.66-2.46.66-1.39,0-2.47-.35-3.26-1.04-.77-.71-1.15-1.67-1.15-2.87,0-.22,0-.44.03-.66.04-.22.07-.46.11-.71l1.4-7.85h1.83l-1.26,7.09c-.11.58-.16,1.12-.16,1.61,0,.89.21,1.6.63,2.11.42.51,1.16.77,2.22.77.49,0,.98-.1,1.48-.3.49-.2.95-.5,1.37-.9.44-.42.82-.94,1.15-1.56.33-.64.57-1.39.71-2.24l1.15-6.57h1.83l-1.75,9.98c-.07.35-.16.79-.25,1.34-.07.55-.13,1.04-.16,1.48h-1.78Z"></path><path class="cls-1" d="m484.95,272.61l-.38,2.16h-1.83l3.67-20.68h1.83l-1.78,9.96h.05c.2-.33.47-.64.79-.93s.69-.55,1.09-.77c.42-.22.87-.39,1.34-.52.47-.13.97-.19,1.48-.19.88,0,1.66.14,2.35.41.71.26,1.32.63,1.83,1.12.51.49.9,1.08,1.18,1.75.27.67.41,1.42.41,2.24,0,1.09-.19,2.12-.57,3.09-.38.97-.91,1.81-1.59,2.52-.66.71-1.45,1.28-2.38,1.7-.91.42-1.91.63-2.98.63-.46,0-.91-.05-1.37-.16-.44-.11-.86-.26-1.26-.47-.4-.22-.77-.48-1.09-.79-.31-.31-.56-.67-.74-1.07h-.05Zm10.12-5.33c0-.57-.09-1.09-.27-1.59-.16-.51-.42-.95-.77-1.31-.35-.38-.77-.67-1.26-.88-.49-.22-1.07-.33-1.72-.33-.8,0-1.55.16-2.24.49-.69.33-1.3.78-1.81,1.37-.51.57-.91,1.23-1.2,2-.29.75-.44,1.54-.44,2.38,0,.6.09,1.16.27,1.67.2.49.48.93.85,1.31.36.36.79.65,1.29.85.51.2,1.08.3,1.72.3.84,0,1.6-.16,2.27-.49.69-.33,1.29-.78,1.78-1.34.49-.57.87-1.22,1.12-1.97.27-.77.41-1.59.41-2.46Z"></path><path class="cls-1" d="m502.43,273.43c0,.4-.15.76-.44,1.07-.27.29-.62.44-1.04.44s-.75-.13-1.04-.38c-.27-.26-.41-.6-.41-1.04s.15-.8.44-1.09c.31-.29.67-.44,1.07-.44s.74.13,1.01.38c.27.26.41.61.41,1.07Z"></path><path class="cls-1" d="m146.6,239.22c-7.68.28-14.53-1.03-20.57-3.92-6.04-2.89-10.79-7.6-14.27-14.14-3.48-6.54-5.21-15.11-5.21-25.73,0-8.68,1.26-16.05,3.79-22.1,2.52-6.05,5.97-10.67,10.32-13.85,4.36-3.18,9.3-4.77,14.84-4.77,2.08,0,3.99.17,5.73.52,1.75.35,3.68.88,5.79,1.61l-4.41,8.2c-.97-.28-2.09-.49-3.37-.65s-2.46-.23-3.53-.23c-3.36,0-6.48,1.2-9.39,3.61-2.91,2.41-5.25,5.93-7.03,10.58-1.78,4.65-2.67,10.39-2.67,17.2,0,7.92.86,14.28,2.59,19.07,1.73,4.79,4.12,8.37,7.16,10.74,3.04,2.37,6.52,3.9,10.43,4.59v-25.01h-4.51v-8.72h14.37v8.72h-.05v34.29Z"></path><path class="cls-1" d="m159,238.28v-83.68c8.09-.34,14.77.66,20.03,3.01,5.26,2.35,9.17,5.73,11.75,10.14,2.57,4.41,3.86,9.57,3.86,15.49,0,5.12-.96,9.69-2.88,13.72s-4.83,7.29-8.74,9.78l14.63,31.54h-11.1l-12.04-27.86c-1.76.49-3.65.85-5.66,1.09v26.77h-9.86Zm9.86-36.58c4.53-.38,8.26-2.08,11.18-5.11,2.92-3.03,4.38-7.48,4.38-13.36s-1.46-10.33-4.38-13.36c-2.92-3.03-6.65-4.73-11.18-5.11v36.94Z"></path><path class="cls-1" d="m208.23,238.28v-82.65h9.86v82.65h-9.86Z"></path><path class="cls-1" d="m240.29,238.28v-73.52h-13.23v-9.13h36.32v9.13h-13.23v73.52h-9.86Z"></path><path class="cls-1" d="m296.17,239.27v-84.57c3.32.14,6.52.5,9.6,1.09,6.05,1.11,11.23,3.48,15.54,7.11,4.31,3.63,7.62,8.3,9.94,14.01,2.32,5.71,3.48,12.23,3.48,19.56s-1.05,13.78-3.14,19.53c-2.09,5.76-5.26,10.52-9.49,14.27-4.24,3.75-9.56,6.25-15.95,7.5-1.59.31-3.21.61-4.85.91-1.64.29-3.35.49-5.11.6Zm9.86-10.69c3.04-.76,5.98-2.27,8.82-4.54,2.84-2.26,5.18-5.61,7.03-10.04,1.85-4.43,2.77-10.27,2.77-17.54s-.93-12.91-2.77-17.25c-1.85-4.34-4.19-7.58-7.03-9.73s-5.78-3.51-8.82-4.1v63.19Z"></path><path class="cls-1" d="m351.27,224.53l-3.58,13.75h-10.22l24.33-85.14h.31l24.33,85.14h-10.22l-3.58-13.75h-21.38Zm10.79-44.25h-.1l-2.08,11.41-6.33,24.23h16.86l-6.28-24.23-2.08-11.41Z"></path><path class="cls-1" d="m396.09,238.28v-82.65h9.86v82.65h-9.86Z"></path><path class="cls-1" d="m421.52,238.28v-82.65h9.86v73.62h21.74v9.03h-31.59Z"></path><path class="cls-1" d="m465.77,238.28v-28.17l-17.43-54.53h10.58l11.78,40.78h.1l11.83-40.78h10.58l-17.59,54.89v27.81h-9.86Z"></path><path class="cls-1" d="m531.89,166.48c-2.07,0-3.95-.49-5.61-1.47-1.67-.98-2.99-2.32-3.97-4.02-.98-1.71-1.47-3.59-1.47-5.67s.49-4.01,1.47-5.69c.98-1.69,2.31-3.02,3.97-4,1.66-.98,3.54-1.47,5.61-1.47s3.95.49,5.64,1.47c1.69.98,3.02,2.32,4,4,.98,1.69,1.47,3.58,1.47,5.69s-.49,3.96-1.47,5.67c-.98,1.7-2.31,3.04-4,4.02-1.69.98-3.57,1.47-5.64,1.47Zm0-1.89c1.78,0,3.34-.4,4.69-1.2,1.35-.79,2.42-1.9,3.19-3.31.78-1.41,1.17-3,1.17-4.78s-.39-3.37-1.17-4.78c-.78-1.41-1.84-2.51-3.19-3.3s-2.92-1.2-4.69-1.2-3.24.4-4.61,1.2-2.44,1.9-3.22,3.3c-.78,1.41-1.17,2.98-1.17,4.72s.39,3.37,1.17,4.78c.78,1.41,1.85,2.52,3.22,3.33s2.91,1.22,4.61,1.22Zm-3.67-4.11v-10.44h4.11c1.11,0,1.98.28,2.61.83.63.56.94,1.33.94,2.33,0,.63-.18,1.2-.53,1.72-.35.52-.83.93-1.42,1.22l2.56,4.33h-2.06l-2.33-3.94h-2v3.94h-1.89Zm3.89-8.89h-2v3.5h1.95c1.3,0,1.94-.59,1.94-1.78,0-.56-.16-.98-.47-1.28-.32-.3-.79-.44-1.42-.44Z"></path></svg> 