<?xml version="1.0" encoding="UTF-8"?> <svg xmlns="http://www.w3.org/2000/svg" id="Layer_1" width="599.76" height="400.32" viewBox="0 0 599.76 400.32"><defs><style>.cls-1{fill:#3a357e;fill-rule:evenodd;}</style></defs><path class="cls-1" d="m387.29,182.53c-1.16-7.11-5.2-10.68-12.95-10.68h-22.3c-7.75,0-11.8,3.6-12.92,10.68-.14.85-.2,1.7-.2,2.58v42.26h13.94v-37.4c0-2.89,1.02-4.01,3.71-4.01h13.26c2.45,0,3.71,1.16,3.71,4.01v37.4h13.94v-42.26c0-.82-.1-1.73-.17-2.58Zm-68.44,44.81h13.94v-55.49h-13.94v55.52-.03Zm-25.6-75.58h-13.94v75.65h13.94v-41.45h13.4v-14.08h-13.4v-20.13Zm-33.9,75.58h13.94v-75.58h-13.94v75.58Zm-94.66-37.43c0-2.96-1.56-4.01-3.67-4.01h-13.26c-2.62,0-3.98,1.22-3.98,3.94v23.43h17.17c2.45,0,3.71-1.56,3.71-4.01v-19.31l.03-.03Zm13.77-6.56c.1.71.17,1.56.17,2.28v27.74c0,2.96-.61,5.37-1.84,7.41-2.62,4.73-5.78,6.56-10.88,6.56h-36.04v-75.58h13.94v20.13h22.3c.92,0,1.87.07,2.65.31,5.27,1.12,8.94,5.2,9.66,11.15h.03Zm40.94,25.87c0,2.92-.99,4.01-3.71,4.01h-13.23c-2.45,0-3.71-1.12-3.71-4.01v-37.4h-13.94v42.26c0,.85.1,1.73.17,2.58,1.12,7.14,5.2,10.68,12.95,10.68h22.3c7.75,0,11.8-3.6,12.92-10.68.14-.85.2-1.73.2-2.58v-42.26h-13.94v37.4h-.03Zm20.06,18.22h13.94v-55.52h-13.94v55.52Z"></path><path class="cls-1" d="m322.25,124.66v26.89h9.35v-17.34h128.89v131.85h-128.86v-17.58h-9.38v27.17h147.63V124.66h-147.63Z"></path></svg> 