<?xml version="1.0" encoding="UTF-8"?> <svg xmlns="http://www.w3.org/2000/svg" xmlns:xlink="http://www.w3.org/1999/xlink" id="Layer_1" width="100" height="119.39" viewBox="0 0 100 119.39"><defs><style>.cls-1,.cls-2,.cls-3,.cls-4,.cls-5{fill:#3a357e;}.cls-2{filter:url(#drop-shadow-4);}.cls-3{filter:url(#drop-shadow-5);}.cls-4{filter:url(#drop-shadow-2);}.cls-5{filter:url(#drop-shadow-3);}.cls-6{fill:none;filter:url(#drop-shadow-1);}</style><filter id="drop-shadow-1" filterUnits="userSpaceOnUse"><feOffset dx="1.09" dy="1.09"></feOffset><feGaussianBlur result="blur" stdDeviation="0"></feGaussianBlur><feFlood flood-color="#000" flood-opacity=".4"></feFlood><feComposite in2="blur" operator="in"></feComposite><feComposite in="SourceGraphic"></feComposite></filter><filter id="drop-shadow-2" filterUnits="userSpaceOnUse"><feOffset dx="1.09" dy="1.09"></feOffset><feGaussianBlur result="blur-2" stdDeviation="0"></feGaussianBlur><feFlood flood-color="#000" flood-opacity=".4"></feFlood><feComposite in2="blur-2" operator="in"></feComposite><feComposite in="SourceGraphic"></feComposite></filter><filter id="drop-shadow-3" filterUnits="userSpaceOnUse"><feOffset dx="1.09" dy="1.09"></feOffset><feGaussianBlur result="blur-3" stdDeviation="0"></feGaussianBlur><feFlood flood-color="#000" flood-opacity=".4"></feFlood><feComposite in2="blur-3" operator="in"></feComposite><feComposite in="SourceGraphic"></feComposite></filter><filter id="drop-shadow-4" filterUnits="userSpaceOnUse"><feOffset dx="1.09" dy="1.09"></feOffset><feGaussianBlur result="blur-4" stdDeviation="0"></feGaussianBlur><feFlood flood-color="#000" flood-opacity=".4"></feFlood><feComposite in2="blur-4" operator="in"></feComposite><feComposite in="SourceGraphic"></feComposite></filter><filter id="drop-shadow-5" filterUnits="userSpaceOnUse"><feOffset dx="1.09" dy="1.09"></feOffset><feGaussianBlur result="blur-5" stdDeviation="0"></feGaussianBlur><feFlood flood-color="#000" flood-opacity=".4"></feFlood><feComposite in2="blur-5" operator="in"></feComposite><feComposite in="SourceGraphic"></feComposite></filter></defs><polyline class="cls-1" points="69.92 65.45 77.85 57.58 70.57 57.58 70.57 53.6 84.47 53.6 84.47 57.55 76.54 65.51 85.05 65.51 85.05 69.49 69.92 69.49 69.92 65.45"></polyline><path class="cls-1" d="m64.6,51.61h-5.21v-3.98h5.21v3.98Zm-5.21,1.99h5.21v15.89h-5.21v-15.89Z"></path><path class="cls-1" d="m34.6,47.63h10.23c.94-.02,1.88.04,2.82.18.94.14,1.79.42,2.54.83.75.41,1.37.97,1.84,1.68.47.71.7,1.64.7,2.79,0,.98-.27,1.85-.8,2.62-.53.77-1.23,1.36-2.08,1.79,1.16.35,2.08.99,2.76,1.91.67.93,1.01,2.02,1.01,3.26,0,1.31-.23,2.39-.67,3.26-.45.87-1.06,1.56-1.82,2.08-.77.52-1.67.89-2.71,1.12-1.04.22-2.14.34-3.31.34h-10.5v-21.86m5.7,8.6h4.41c.24,0,.51-.04.78-.11.28-.07.53-.19.75-.35.22-.16.41-.38.57-.64.15-.27.23-.59.23-.98,0-.8-.24-1.35-.72-1.65-.48-.31-1.02-.46-1.61-.46h-4.41v4.19Zm0,8.7h4.56c.9,0,1.63-.18,2.2-.55.57-.37.86-1,.86-1.9,0-.96-.3-1.63-.89-2.01-.59-.38-1.32-.57-2.17-.57h-4.56v5.02Z"></path><path class="cls-1" d="m0,0v16.77s5.3,1.81,14.89,1.9c4.85-.09,10.71-.14,20.89-2.18,6.16-1.24,20.72-4.96,27.5-6.96,6.28-1.85,15.45-4.25,26.09-4.25,2.24,0,8.56.75,10.63,1.52V0H0Z"></path><path class="cls-1" d="m82.84,107.33c0-.78-.56-1.24-1.53-1.24h-1.82v2.48h1.69c1.07,0,1.67-.47,1.67-1.24Z"></path><path class="cls-1" d="m0,119.39h100v-19.13H0v19.13Zm75.5-16.06h6.77c2.93,0,4.7,1.47,4.7,3.94,0,1.63-.62,2.54-2.29,3.38l2.33,5.63h-4.38l-1.9-4.93h-1.24v4.93h-3.98v-12.94Zm-11.31,0h9.72v2.99h-5.82v1.88h4.71v2.87h-4.71v2.11h5.82v3.08h-9.72v-12.94Zm-13.31,0h3.74l3.01,4.73c.72,1.16,1.13,1.92,1.38,2.5-.21-1.18-.31-2.37-.31-3.4v-3.84h3.24v12.94h-3.24l-3.53-5.7c-.27-.49-.52-.95-.8-1.42-.14-.25-.31-.64-.58-1.26.25,1.13.31,1.47.31,2.11v6.27h-3.22v-12.94Zm-13.31,0h3.74l3.01,4.73c.72,1.16,1.13,1.92,1.38,2.5-.21-1.18-.31-2.37-.31-3.4v-3.84h3.24v12.94h-3.24l-3.53-5.7c-.27-.49-.52-.95-.8-1.42-.14-.25-.31-.64-.58-1.26.25,1.13.31,1.47.31,2.11v6.27h-3.22v-12.94Zm-6.23,0h3.98v12.94h-3.98v-12.94Zm-14.63,0l1.82,7.47,1.77-7.47h3.12l1.9,7.47,1.82-7.47h3.03l-3.43,12.94h-3.32l-1.82-7.14-1.71,7.14h-3.47l-3.43-12.94h3.73Z"></path><g class="cls-6"><path class="cls-1" d="m17.71,58.01h-2.76v-2.11h2.76v2.11Zm-2.76,1.06h2.76v8.43h-2.76v-8.43Z"></path><path class="cls-1" d="m19.51,59.07h2.68v1.15h.03c.13-.22.29-.41.49-.58.19-.17.41-.32.65-.44.24-.12.49-.21.75-.28.26-.07.51-.1.76-.1.7,0,1.26.11,1.66.34.41.23.71.51.91.84.2.33.33.68.38,1.06.05.38.08.72.08,1.02v5.41h-2.76v-4.92c0-.28-.04-.53-.12-.75-.08-.22-.22-.39-.41-.53-.19-.14-.47-.2-.85-.2-.26,0-.48.05-.67.15-.19.1-.34.24-.46.41-.12.17-.21.36-.27.58-.06.22-.09.44-.09.67v4.59h-2.76v-8.43"></path></g><path class="cls-1" d="m18.21,73l-3.19,8.45h2.28l.54-1.51h2.97l.53,1.51h2.32l-3.19-8.45h-2.26Zm.14,5.3l.97-2.96h.02l.94,2.96h-1.93Z"></path><polygon class="cls-1" points="34.74 79.18 34.71 79.18 33.46 73 31.37 73 30.11 79.18 30.09 79.18 28.88 73 26.66 73 28.97 81.45 31.22 81.45 32.4 75.63 32.42 75.63 33.59 81.45 35.81 81.45 38.16 73 35.94 73 34.74 79.18"></polygon><path class="cls-1" d="m44.23,73l-3.19,8.45h2.28l.54-1.51h2.97l.53,1.51h2.32l-3.19-8.45h-2.26Zm.14,5.3l.97-2.96h.02l.94,2.96h-1.93Z"></path><path class="cls-1" d="m61.16,81.07c-.05-.17-.08-.36-.11-.56-.02-.2-.04-.39-.05-.57,0-.18-.02-.31-.02-.4-.02-.2-.05-.4-.1-.62-.05-.22-.12-.42-.22-.61-.1-.19-.22-.36-.37-.5-.15-.14-.34-.24-.56-.3v-.02c.45-.17.79-.46,1.01-.85.22-.39.33-.81.33-1.27,0-.43-.09-.79-.26-1.09-.17-.3-.4-.55-.67-.74-.28-.19-.6-.33-.96-.42-.36-.09-.72-.13-1.1-.13h-4.35v8.45h2.22v-3.08h1.68c.26,0,.47.05.63.15.16.1.28.23.36.4.09.17.15.35.18.56.03.21.06.41.07.63,0,.06.02.15.02.27,0,.12.02.25.04.38.02.14.04.27.07.4.03.13.07.23.12.3h2.2c-.07-.08-.13-.2-.18-.38Zm-2.57-4.66c-.18.17-.43.25-.76.25h-1.86v-1.91h1.77c.31,0,.58.07.79.22.22.15.33.38.33.69s-.09.57-.26.74Z"></path><path class="cls-1" d="m72.53,74.12c-.36-.36-.8-.64-1.31-.83-.52-.19-1.1-.28-1.76-.28h-3.67v8.45h3.67c.64,0,1.23-.09,1.74-.28.52-.19.96-.46,1.32-.82.36-.36.64-.8.83-1.33.19-.53.29-1.14.29-1.83,0-.66-.1-1.24-.29-1.76-.19-.52-.47-.96-.82-1.32Zm-1.24,4.15c-.09.3-.22.54-.41.73-.19.19-.43.33-.73.42-.3.09-.66.14-1.08.15h-1.05v-4.66h1.05c.76,0,1.35.19,1.75.56.4.37.6.95.6,1.72,0,.43-.04.79-.13,1.08Z"></path><path class="cls-4" d="m41.72,37.98c.04,1.08.36,1.94.96,2.58.6.64,1.44.96,2.52.96.62,0,1.2-.14,1.74-.42.54-.28.93-.71,1.17-1.29h4.77c-.24.9-.62,1.68-1.13,2.33-.51.65-1.11,1.19-1.8,1.61-.69.42-1.45.73-2.28.93-.83.2-1.68.3-2.54.3-1.26,0-2.42-.19-3.47-.56-1.05-.37-1.95-.91-2.7-1.62-.75-.71-1.33-1.58-1.74-2.61-.41-1.03-.61-2.19-.61-3.5,0-1.2.22-2.3.66-3.3.44-1,1.04-1.86,1.82-2.58.77-.72,1.67-1.28,2.69-1.7,1.02-.41,2.1-.61,3.24-.61,1.4,0,2.62.24,3.66.73,1.04.49,1.9,1.17,2.58,2.03.68.86,1.18,1.87,1.5,3.02.32,1.15.45,2.39.39,3.71h-11.43m6.33-2.85c-.04-.88-.34-1.63-.9-2.25-.56-.62-1.27-.93-2.13-.93s-1.64.29-2.21.87c-.57.58-.94,1.35-1.09,2.31h6.33Z"></path><path class="cls-5" d="m60.54,39.39c0,.4.08.74.23,1.02.15.28.35.52.61.72.24.18.53.31.86.4.33.09.68.13,1.04.13.24,0,.5-.03.78-.09.28-.06.54-.15.78-.29.24-.13.44-.3.6-.51.16-.21.24-.47.24-.77s-.09-.54-.27-.73c-.18-.19-.4-.35-.65-.46-.25-.12-.52-.21-.81-.27-.29-.06-.55-.12-.77-.18-.8-.2-1.63-.38-2.47-.54-.85-.16-1.63-.4-2.34-.74-.71-.33-1.29-.78-1.74-1.36-.45-.58-.68-1.4-.68-2.46,0-.94.23-1.71.68-2.33.45-.61,1.02-1.09,1.73-1.46.7-.36,1.47-.62,2.31-.77.84-.15,1.64-.22,2.4-.22.86,0,1.71.07,2.54.22.83.15,1.58.41,2.27.78.68.37,1.23.88,1.67,1.53.43.65.66,1.49.71,2.51h-4.71c0-.62-.22-1.07-.66-1.35-.4-.26-.94-.39-1.62-.39-.22,0-.46.01-.71.03-.25.02-.49.07-.71.15-.22.08-.4.2-.56.36-.15.16-.23.37-.23.63,0,.36.19.66.57.9.38.24.86.44,1.43.59.57.15,1.19.28,1.88.4.68.12,1.31.24,1.89.36.78.16,1.42.41,1.94.75.51.34.91.71,1.21,1.11.3.4.51.81.63,1.23.12.42.18.79.18,1.11,0,1.04-.22,1.92-.67,2.63-.45.71-1.03,1.28-1.74,1.71-.71.43-1.51.74-2.4.93-.89.19-1.78.28-2.65.28s-1.83-.09-2.73-.25c-.9-.17-1.71-.47-2.42-.9-.71-.43-1.29-1.01-1.74-1.73-.45-.72-.7-1.62-.73-2.7h4.86"></path><path class="cls-2" d="m84.42,31.43h-3.87v8.7c0,.76.2,1.26.61,1.49.41.23.95.35,1.64.35.27,0,.54-.01.81-.04.27-.02.54-.04.81-.04v4.61c-.57.02-1.14.06-1.71.11-.58.05-1.15.07-1.71.07-1.33,0-2.43-.11-3.3-.33-.87-.22-1.56-.59-2.06-1.11-.5-.52-.85-1.2-1.05-2.06-.2-.86-.29-1.94-.29-3.24v-8.51h-3.17v-4.05h3.17v-5.79h6.27v5.79h3.87v4.05"></path><path class="cls-3" d="m14.95,21.59h11.16c1.02-.02,2.05.05,3.08.2,1.02.16,1.95.46,2.77.9.82.45,1.49,1.06,2.01,1.84.51.78.77,1.79.77,3.04,0,1.07-.29,2.02-.87,2.86-.58.84-1.34,1.49-2.27,1.96,1.27.38,2.27,1.08,3.01,2.09.74,1.01,1.1,2.2,1.1,3.56,0,1.43-.25,2.61-.74,3.56-.49.95-1.15,1.7-1.99,2.27-.84.57-1.82.98-2.96,1.22-1.14.25-2.34.37-3.61.37h-11.47v-23.87m6.22,9.39h4.81c.27,0,.55-.04.85-.12.3-.08.57-.21.82-.38.24-.18.45-.41.62-.7.17-.29.25-.65.25-1.07,0-.87-.26-1.47-.79-1.81-.52-.33-1.11-.5-1.75-.5h-4.81v4.58Zm0,9.49h4.98c.98,0,1.78-.2,2.41-.6.62-.4.94-1.09.94-2.07,0-1.05-.32-1.78-.97-2.19-.65-.41-1.44-.62-2.37-.62h-4.98v5.48Z"></path><path class="cls-1" d="m12.95,21.44c-9.61-.35-12.95-1.74-12.95-1.74v4.43c4.77,1.45,10.34,1.7,12.95,1.78v-4.47Z"></path><path class="cls-1" d="m88.01,5.62c-6.66,0-12.59,1.28-15.99,2.24-3.4.96-8.83,2.53-13.47,3.9-4.64,1.37-9.79,3.02-12.27,3.72-6.42,2.09-12.02,3.46-16.71,4.35,1.22.19,2.34.56,3.35,1.11.6.33,1.14.73,1.63,1.19,6.59-2,11.57-4.12,12.33-4.51,18.55-7.44,27.33-9.69,29.2-10.16,14.07-3.8,23.93,0,23.93,0v-.41c-6.48-1.54-10.71-1.42-11.99-1.42Z"></path><path class="cls-1" d="m37.39,89.35c.08-.02.16-.05.24-.07,0-.06,0-.12.02-.2-.09.09-.17.18-.26.26Z"></path><path class="cls-1" d="m78.68,76.9c.23.19.5.34.8.46.3.12.6.22.9.31.31.09.61.16.9.23.29.07.55.14.78.23.23.09.42.19.56.31.14.12.21.27.21.46,0,.16-.04.29-.12.4-.08.11-.18.2-.31.27-.13.07-.27.12-.44.15-.16.03-.33.05-.5.05-.48,0-.86-.09-1.15-.28s-.44-.53-.47-1.03h-2.22c0,.54.1,1.01.3,1.39.2.38.48.69.82.93.34.24.73.42,1.18.53.44.11.91.17,1.4.17s.93-.05,1.37-.14c.45-.09.84-.25,1.19-.47.35-.22.62-.51.84-.87.21-.36.32-.81.32-1.35,0-.38-.07-.7-.22-.98-.14-.27-.33-.5-.56-.69-.23-.19-.49-.34-.79-.46-.29-.12-.6-.23-.91-.31-.31-.09-.61-.16-.91-.23-.29-.06-.56-.13-.79-.21-.24-.08-.42-.17-.56-.27-.14-.1-.21-.24-.21-.4,0-.14.03-.26.1-.35.07-.09.15-.16.26-.22.1-.05.22-.09.35-.12.13-.02.25-.04.37-.04.17,0,.33.02.5.05.17.04.32.09.45.17.13.08.24.18.32.31.08.13.12.29.11.48h2.22c0-.47-.1-.88-.3-1.23-.2-.34-.46-.63-.78-.85-.32-.22-.68-.38-1.09-.49-.41-.11-.83-.16-1.25-.16-.4,0-.8.05-1.22.14-.41.09-.79.24-1.12.45-.33.2-.61.47-.82.8-.21.33-.32.72-.32,1.18,0,.39.07.72.22.99.15.27.34.5.57.69Z"></path><path class="cls-1" d="m30.84,91.4c.11.1.29.17.56.17.44,0,.95-.22,1.52-.67.15-.12.32-.27.48-.42-.85.23-1.77.46-2.69.68.03.1.07.18.14.24Z"></path><path class="cls-1" d="m85.6,80.49c-.29.51-.69.91-1.17,1.22-.44.28-.95.48-1.51.6-.08.02-.17.02-.25.04.13.03.26.05.36.05.22,0,.41-.03.59-.1l.29-.11-.16.27c-2.53,4.2-4,6.68-4.42,7.41-.21.37-.36.67-.47.91-.1.24-.15.42-.15.51,0,.12.03.2.06.23.03.04.08.06.17.06.09,0,.23-.05.4-.16.17-.11.37-.29.6-.52.46-.47,1.02-1.18,1.7-2.14.02-.03.04-.06.07-.09.03-.03.08-.05.13-.05h.03s.07.03.09.07c.02.03.03.07.03.1,0,.05-.02.09-.04.12-.02.03-.04.06-.07.09h0s-.39.53-.39.53c-.57.79-1.07,1.38-1.5,1.78-.43.4-.79.62-1.11.62-.29,0-.54-.11-.72-.33-.18-.22-.27-.49-.27-.81,0-.17.02-.34.06-.51-.09.11-.18.22-.28.33h0c-.36.43-.68.76-.97.98-.29.22-.55.34-.79.34-.3,0-.57-.12-.76-.35-.19-.23-.29-.52-.29-.85,0-.13.02-.26.05-.39-.39.52-.71.89-.96,1.12-.33.31-.67.47-1,.47-.35,0-.66-.16-.89-.45-.23-.29-.35-.67-.35-1.1,0-.08,0-.16.01-.23-.12.14-.24.3-.38.46-.36.43-.69.76-.98.98-.29.22-.55.34-.8.34-.3,0-.56-.12-.76-.35-.2-.23-.3-.52-.3-.85,0-.29.06-.55.18-.8.12-.24.41-.7.88-1.39h0c.36-.54.59-.93.67-1.16.03-.08.04-.13.04-.16,0-.11-.03-.16-.06-.2-.04-.04-.1-.06-.22-.06-.18,0-.42.09-.68.28-.27.2-.57.5-.91.9-.67.81-1.46,2.02-2.38,3.65l-.03.06h-.07c-.29-.03-.47-.04-.52-.04-.21,0-.4.01-.58.04l-.23.03,1.53-2.42c.6-.95.97-1.64,1.11-2.04.05-.13.07-.23.07-.29,0-.08-.02-.12-.03-.13-.01-.02-.03-.03-.09-.03-.04,0-.12.03-.22.1-.11.07-.23.19-.38.35-.3.32-.67.8-1.12,1.45,0,0,0,0,0,0h0s0,0,0,0c-.03.04-.06.08-.08.11,0,0-.02.01-.02.02-.02.03-.05.07-.07.1-.09.12-.23.27-.41.44-.54.54-1.05.82-1.54.82-.17,0-.32-.03-.46-.08-.38.53-.76.94-1.13,1.22-.39.29-.77.44-1.15.44-.39,0-.74-.17-1.01-.48-.27-.32-.41-.7-.41-1.14,0-.09,0-.18.02-.27-.41.54-.79.96-1.13,1.27-.44.4-.82.62-1.17.62-.31,0-.58-.11-.79-.34-.21-.22-.32-.5-.31-.83,0-.12.02-.26.07-.41-.32.39-.61.71-.87.96-.44.4-.8.62-1.14.62-.31,0-.58-.12-.79-.34-.21-.22-.31-.51-.31-.84,0-.13.02-.26.05-.4-.07.09-.14.17-.22.26h0c-.36.43-.68.76-.97.98-.29.22-.55.34-.79.34-.3,0-.57-.12-.76-.35-.19-.23-.29-.52-.29-.85,0-.13.02-.26.05-.39-.39.52-.71.89-.96,1.12-.33.31-.67.47-1,.47-.35,0-.66-.16-.89-.45-.23-.29-.35-.67-.35-1.1,0-.08,0-.16.01-.23-.12.14-.24.3-.38.46-.36.43-.69.76-.98.98-.29.22-.55.34-.8.34-.3,0-.56-.12-.76-.35-.2-.23-.3-.52-.3-.85,0-.29.06-.55.18-.8.12-.24.41-.7.88-1.39h0c.36-.54.59-.93.67-1.16.03-.08.04-.13.04-.16,0,0,0,0,0,0-.46.12-.9.24-1.34.36-.17.16-.34.34-.52.57-.67.81-1.46,2.02-2.38,3.65l-.03.06h-.07c-.29-.03-.47-.04-.52-.04-.21,0-.4.01-.58.04l-.23.03,1.53-2.42c.33-.53.59-.97.78-1.33-.39.11-.77.21-1.14.31-.1.13-.63,1.07-1.56,1.68-.22.14-.46.21-.68.21-.25,0-.46-.07-.6-.24-.14-.16-.2-.39-.2-.67,0-.04,0-.09.01-.13-.08.02-.16.05-.24.07-.15.16-.28.31-.4.47-.23.32-.64.98-1.23,1.98l-.03.06h-.07c-.32-.03-.51-.04-.55-.04,0,0-.06,0-.15,0-.09,0-.22.02-.39.03h-.21s1.23-1.98,1.23-1.98c-.51.15-1.04.29-1.59.44-.39.42-.76.76-1.12,1.02-.55.39-1.06.6-1.53.6-.45,0-.84-.17-1.14-.49-.04-.05-.08-.1-.11-.15-.64.15-1.31.3-1.98.44-.21.12-.41.2-.59.2-.07,0-.12-.03-.19-.04-4.92,1-10.6,1.79-16.79,1.92-1.39.03-8.29-.5-10.55-1.52v5.38h100v-15.35s-5.17-1.73-14.38-1.89c0,.01-.01.03-.02.04Z"></path><path class="cls-1" d="m45.75,88.65c-.14.32-.35.68-.63,1.1-.42.63-.68,1.09-.78,1.37-.03.09-.05.16-.05.2,0,.11.03.17.06.2.03.03.09.06.2.06.1,0,.24-.05.42-.16.17-.11.37-.29.6-.52.37-.38.8-.92,1.3-1.61.1-.21.23-.41.38-.6.42-.53,1.04-1.01,1.87-1.46h0c.72-.4,1.31-.61,1.79-.61.2,0,.37.05.49.17.09.09.14.2.16.33l.23-.44.08.02c.17.04.33.06.45.06.15,0,.36-.02.61-.06l.23-.04-1.72,2.85h0c-.28.46-.48.84-.62,1.14-.14.3-.2.52-.2.63,0,.13.03.21.06.25.04.04.08.07.18.07.08,0,.22-.05.41-.19.18-.13.41-.33.67-.61.52-.55,1.06-1.22,1.61-2.02h0s.03-.04.05-.06l1.04-1.74h-.93l.24-.35h.9l1.07-1.77.08.02c.17.05.33.07.49.07s.32-.02.5-.07l.26-.07-1.08,1.82h1.17l-.19.35h-1.18l-1.98,3.38h0c-.24.41-.36.73-.35.94,0,.12.03.18.07.23.04.04.12.07.24.07.11,0,.25-.05.42-.16.17-.11.38-.29.6-.52.45-.47,1.01-1.18,1.66-2.13h0s0,0,0,0c.01-.02.03-.04.05-.05l1.2-2.04.08.02c.18.04.32.06.42.06.15,0,.38-.02.67-.06l.23-.03-2.17,3.56c-.29.48-.43.85-.43,1.07,0,.12.03.18.07.23.04.04.12.07.24.07.1,0,.24-.05.42-.16.17-.11.38-.29.61-.52.46-.47,1.03-1.18,1.71-2.14h0s.03-.06.06-.08c0,0,.02-.01.03-.02.3-.38.71-.76,1.23-1.12.86-.61,1.58-.93,2.17-.93.28,0,.51.08.66.24.15.17.22.4.22.7,0,.7-.35,1.52-1.03,2.45.07.03.15.05.24.05.24,0,.54-.11.89-.36.35-.24.64-.54.86-.88h0s0,0,0,0c.04-.05.07-.08.1-.11,0,0,.02-.01.03-.02l.13-.17c.7-.93,1.22-1.51,1.59-1.76.13-.08.24-.13.36-.13.24,0,.45.12.61.32.16.21.24.46.24.73,0,.15-.03.32-.09.51.35-.44.64-.77.87-.99.39-.37.77-.57,1.13-.57.29,0,.56.13.75.36.2.24.3.53.3.87,0,.23-.08.49-.22.81-.14.32-.35.68-.63,1.1-.42.63-.68,1.09-.78,1.37-.03.09-.05.16-.05.2,0,.11.03.17.06.2.03.03.09.06.2.06.1,0,.24-.05.42-.16.17-.11.37-.29.6-.52.37-.38.8-.92,1.3-1.61.1-.21.23-.41.38-.6.42-.53,1.04-1.01,1.87-1.46h0c.72-.4,1.31-.61,1.79-.61.2,0,.37.05.49.17.09.09.14.2.16.33l.23-.44.08.02c.17.04.33.06.45.06.15,0,.36-.02.61-.06l.23-.04-1.72,2.84h0c-.28.47-.48.85-.62,1.15-.14.3-.2.52-.2.63,0,.13.03.21.06.25.04.04.08.07.18.07.08,0,.22-.05.41-.19.18-.13.41-.33.67-.61.52-.55,1.06-1.22,1.61-2.02h0s.04-.06.07-.09c.01,0,.02-.02.04-.03.25-.42.56-.94.93-1.57,1.09-1.81,2-3.38,2.75-4.71h0c-.37.05-.74.09-1.12.09-.57,0-1.12-.07-1.65-.2-.56-.14-1.07-.37-1.51-.69-.33-.23-.59-.53-.82-.85-1.3.1-2.69.23-4.22.41-.45.42-.98.75-1.59.97-.62.22-1.32.34-2.08.34h-4.52c-.27.05-.54.1-.81.16-4.04.81-11.7,2.7-18.41,4.46.15.22.24.48.24.77,0,.23-.08.49-.22.81Zm13.03-3.79c.2-.2.42-.31.66-.31.15,0,.28.04.37.13s.13.22.13.37c0,.24-.1.47-.3.67-.19.2-.42.31-.66.31-.15,0-.29-.04-.38-.13s-.13-.23-.13-.38c0-.23.11-.45.31-.65Z"></path><path class="cls-1" d="m37.97,89.34c0,.24.05.41.12.5.07.1.17.14.34.15.2,0,.44-.07.67-.27.73-.61,1.05-1.15,1.05-1.15-.76.21-1.5.42-2.17.61,0,.05-.02.11-.02.16Z"></path><path class="cls-1" d="m73.01,91.58c.07,0,.18-.03.31-.11.13-.08.29-.2.46-.37.35-.34.79-.85,1.29-1.54.42-.56.73-1.04.93-1.42.21-.38.3-.67.3-.85,0-.13-.03-.21-.07-.26-.04-.05-.11-.07-.22-.08-.24,0-.54.12-.89.38-.35.26-.75.66-1.2,1.2-.89,1.07-1.33,1.94-1.32,2.56,0,.18.04.3.1.37.06.07.16.11.31.11Z"></path><path class="cls-1" d="m43.28,87.72c-.1.03-.2.05-.3.08-.01.12-.02.23-.07.37.13-.17.25-.31.37-.45Z"></path><path class="cls-1" d="m47.91,91.58c.07,0,.18-.03.31-.11.13-.08.29-.2.46-.37.35-.34.78-.85,1.29-1.54.42-.56.73-1.04.93-1.42.21-.38.3-.67.3-.85,0-.13-.03-.21-.07-.26-.04-.05-.11-.07-.22-.08-.24,0-.54.12-.89.38-.35.26-.75.66-1.2,1.2-.89,1.07-1.33,1.94-1.32,2.56,0,.18.04.3.1.37.06.07.16.11.31.11Z"></path><path class="cls-1" d="m60.61,91.56c.29,0,.61-.12.95-.38.33-.25.68-.62,1.04-1.12-.15-.19-.23-.39-.23-.6,0-.32.13-.65.37-.98.12-.16.25-.29.37-.38.13-.09.26-.14.4-.14.06,0,.12.02.17.06.04-.15.07-.3.07-.47,0-.23-.05-.38-.14-.48-.08-.09-.21-.15-.41-.15-.24,0-.52.12-.84.37-.32.25-.68.64-1.07,1.16-.78,1.04-1.16,1.9-1.16,2.58,0,.19.05.32.12.39s.19.12.37.12Z"></path><path class="cls-1" d="m82.58,82.33l-.08-.02-.04.07c.07-.01.14-.02.21-.03-.03,0-.06,0-.09-.01Z"></path><polygon class="cls-1" points="40.35 88.86 40.35 88.86 40.35 88.86 40.35 88.86"></polygon><polygon class="cls-1" points="65.45 88.86 65.45 88.86 65.45 88.86 65.45 88.86"></polygon><path class="cls-1" d="m19.28,86.03c.24,0,.47-.11.66-.31.19-.2.3-.42.3-.67,0-.15-.04-.28-.13-.37-.09-.09-.22-.13-.37-.13-.24,0-.46.11-.66.31-.2.2-.31.42-.31.65,0,.15.04.29.13.38.09.09.23.13.38.13Z"></path><path class="cls-1" d="m28.66,91.31c.33-.3.69-.71,1.09-1.23,0,.05,0,.1,0,.15,0,.41.12.77.35,1.07.2-.05.4-.09.6-.14-.02-.08-.04-.16-.04-.26,0-.37.19-.86.57-1.46,1.3-.26,2.24-.54,2.82-.85.29-.16.52-.33.67-.53.15-.2.24-.43.23-.67,0-.22-.09-.41-.27-.56-.17-.15-.39-.22-.62-.22-.53,0-1.19.23-1.99.66-.76.42-1.34.87-1.73,1.36-.16.2-.29.41-.38.63-.5.7-.94,1.25-1.31,1.63-.23.23-.43.41-.6.52-.17.11-.32.16-.42.16-.13,0-.2-.03-.24-.07-.04-.04-.07-.11-.07-.23,0-.21.11-.53.35-.94h0s1.98-3.38,1.98-3.38h1.18l.19-.35h-1.17l1.08-1.82-.26.07c-.17.05-.34.07-.5.07s-.31-.02-.49-.07l-.08-.02-1.07,1.77h-.9l-.24.35h.93l-1.16,1.95c-.61.88-1.13,1.54-1.56,1.99-.23.23-.43.41-.6.52-.17.11-.31.16-.42.16-.11,0-.17-.03-.2-.06-.03-.03-.06-.09-.06-.2,0-.04.01-.11.05-.2.1-.27.36-.74.78-1.37.28-.42.49-.78.63-1.1.14-.32.22-.58.22-.81,0-.34-.1-.64-.3-.87-.2-.24-.46-.37-.75-.36-.37,0-.74.2-1.13.57-.23.22-.52.55-.87.99.06-.18.09-.35.09-.51,0-.28-.08-.53-.24-.73-.16-.21-.37-.32-.61-.32-.12,0-.23.05-.36.13-.38.25-.84.84-1.59,1.76,0,0-1.18,1.63-1.93,2.39-.23.24-.44.41-.61.52-.17.11-.32.16-.42.16-.13,0-.2-.03-.24-.07-.04-.04-.07-.11-.07-.23,0-.23.14-.59.43-1.07l2.17-3.56-.23.03c-.29.04-.52.06-.67.06-.09,0-.24-.02-.42-.06l-.08-.02-1.45,2.46c-.42.72-.64,1.25-.64,1.64,0,.32.1.61.31.83.21.22.48.34.79.34.35,0,.73-.22,1.17-.62.44-.4.94-1,1.51-1.79l.38-.52c.27-.37.97-1.28,1.27-1.6.15-.16.28-.28.38-.35.1-.08.19-.1.22-.1.05,0,.07.01.09.03.01.02.03.06.03.13,0,.06-.02.16-.07.29-.14.4-.52,1.09-1.11,2.04l-1.53,2.42.23-.03c.18-.02.37-.04.58-.04.05,0,.23.01.52.04h.07s.03-.05.03-.05c.91-1.63,1.71-2.85,2.38-3.65.33-.4.64-.7.91-.9.27-.2.5-.29.68-.28.11,0,.18.03.22.06.04.04.06.09.06.2,0,.03-.01.09-.04.16-.08.23-.31.62-.67,1.16-.47.69-.76,1.14-.88,1.39-.12.25-.18.51-.18.8,0,.33.1.62.3.85.2.23.46.35.76.35.24,0,.5-.12.8-.34.29-.22.62-.55.98-.98.07-.08.12-.15.18-.22-.03.13-.04.25-.04.36,0,.33.1.62.31.84.16.18.37.26.6.3.26-.05.51-.1.77-.15.18-.1.36-.24.56-.43Zm4.17-3.73c.51-.44.92-.64,1.19-.64.09,0,.14.02.16.04.02.02.04.06.04.14,0,.15-.06.31-.2.49-.14.18-.36.37-.65.57-.52.35-1.14.63-1.87.85.44-.58.88-1.07,1.33-1.45Z"></path><path class="cls-1" d="m41.48,87.41c.15-.16.28-.28.38-.35.1-.08.19-.1.22-.1.06,0,.07.01.09.03.01.02.03.06.03.13,0,.06-.02.16-.07.29-.06.18-.19.43-.34.71.4-.11.79-.21,1.18-.32,0-.04.07-.51-.22-.87-.16-.2-.37-.32-.61-.32-.12,0-.23.05-.36.13-.38.25-.9.83-1.59,1.76l-.06.08c.17-.05.34-.1.51-.14.32-.44.6-.78.82-1.03Z"></path><path class="cls-1" d="m44.21,87.25c.27-.2.5-.28.68-.28.24,0,.27.16.28.26.19-.05.38-.1.56-.15-.02-.05-.04-.07-.06-.1-.2-.24-.46-.37-.75-.36-.37,0-.74.2-1.13.57-.14.13-.33.34-.5.55.19-.05.36-.1.55-.15.12-.12.27-.25.38-.33Z"></path><path class="cls-1" d="m34.64,89.59h0s.39-.49.39-.49h0c.05-.07.1-.13.13-.17,0-.01.01-.02.02-.03.01-.01.02-.03.03-.05h0c.44-.65.81-1.13,1.11-1.44.15-.16.28-.28.39-.35.11-.07.19-.1.24-.1.05,0,.06.01.07.02.01.01.03.05.03.12,0,.05-.02.14-.06.27-.13.37-.48,1.02-1.03,1.92l-.36.59c.6-.17,1.21-.35,1.8-.52.09-.09.16-.17.26-.27-.01.08-.02.2-.02.2l.36-.1s.04-.28.1-.47l.08-.06c.26-.16.46-.28.59-.37.42-.27.74-.51.96-.72.11-.11.19-.21.25-.31.06-.1.09-.2.09-.3,0-.1-.03-.2-.11-.26-.08-.06-.17-.09-.28-.09-.16,0-.32.05-.49.15-.16.1-.33.24-.51.42-.34.37-.63.82-.86,1.35-.09.07-.18.16-.28.24.21-.43.32-.81.32-1.13,0-.32-.06-.58-.2-.76-.14-.18-.37-.28-.63-.27-.12,0-.23.05-.36.13-.39.25-.91.83-1.61,1.76h0s-.16.22-.16.22c-.03.03-.06.06-.09.1h0s0,0,0,0c-.5.68-.98,1.23-1.42,1.66.21-.06.41-.11.62-.16.21-.22.42-.46.64-.73Z"></path></svg> 