<?xml version="1.0" encoding="UTF-8"?> <svg xmlns="http://www.w3.org/2000/svg" id="Layer_1" width="100" height="33.14" viewBox="0 0 100 33.14"><defs><style>.cls-1{fill:#fff;}</style></defs><path class="cls-1" d="m25.62,2.39h3.19v1.18c1.07-1.1,2.49-1.53,3.61-1.53,1.66,0,3.02.78,3.85,2.06,1.04-1.31,2.78-2.06,4.6-2.06,2.97,0,4.9,2.03,4.9,5.27v8.16h-2.97v-7.46c0-1.98-.99-3.21-2.68-3.21-1.47,0-2.94,1.01-2.94,3.24v7.44h-2.97v-7.46c0-2.01-1.04-3.21-2.78-3.21-1.47,0-2.84,1.07-2.84,3.45v7.22h-2.97V2.38h0Zm21.89,6.69c0-4.01,3.18-7.04,6.85-7.04s6.39,2.78,6.39,6.34c0,.32-.03.75-.11,1.34h-10.22c.29,2.19,1.95,3.56,4.01,3.56,1.55,0,2.86-.78,3.21-1.95h2.94c-.64,2.57-3.05,4.5-6.34,4.5-3.91,0-6.74-3-6.74-6.74h0Zm10.19-1.79c-.11-1.5-1.5-2.7-3.34-2.7-1.69,0-3.13,1.04-3.72,2.7h7.06Zm13.68,1.79c0-4.01,3.19-7.04,6.85-7.04s6.39,2.78,6.39,6.34c0,.32-.03.75-.11,1.34h-10.22c.29,2.19,1.95,3.56,4.01,3.56,1.55,0,2.86-.78,3.21-1.95h2.94c-.64,2.57-3.05,4.5-6.34,4.5-3.91,0-6.74-3-6.74-6.74h0Zm10.19-1.79c-.11-1.5-1.5-2.7-3.34-2.7-1.69,0-3.13,1.04-3.72,2.7h7.06Zm4.44,1.66c0-3.85,3.05-6.9,6.9-6.9,3.79-.02,6.88,3.04,6.9,6.83v.07c0,3.85-3.08,6.87-6.9,6.87s-6.9-3.02-6.9-6.87h0Zm6.9,4.12c2.22,0,3.99-1.79,3.99-4.12s-1.76-4.15-3.99-4.15-3.99,1.79-3.99,4.15,1.71,4.12,3.99,4.12Zm-67.3,6.65h3.19v1.18c1.07-1.1,2.49-1.53,3.61-1.53,1.66,0,3.02.78,3.85,2.06,1.04-1.31,2.78-2.06,4.6-2.06,2.97,0,4.9,2.03,4.9,5.27v8.16h-2.97v-7.46c0-1.98-.99-3.21-2.68-3.21-1.47,0-2.94,1.01-2.94,3.24v7.44h-2.97v-7.46c0-2.01-1.04-3.21-2.78-3.21-1.47,0-2.84,1.07-2.84,3.45v7.22h-2.97v-13.08h0Zm21.87,9.41c0-2.57,2.14-4.36,6.15-4.36h2.35v-.32c0-1.63-.99-2.65-2.67-2.65-1.45,0-2.65.91-2.76,2.25h-2.97c.13-2.76,2.52-4.68,5.78-4.68,3.48,0,5.62,2.11,5.62,5.35v8.08h-2.92v-1.36c-.86,1.01-2.3,1.71-3.72,1.71-2.94,0-4.87-1.58-4.87-4.02h0Zm5.11,1.69c1.95,0,3.48-1.58,3.48-3.64v-.21h-2.35c-2.17,0-3.32.72-3.32,2.09,0,1.04.78,1.76,2.19,1.76Zm7.07-11.1h2.49v-2.38h2.97v2.38h3.5v2.6h-3.5v5.89c0,1.34.67,2.01,1.93,2.01h1.58v2.59h-1.95c-3,0-4.52-1.39-4.52-4.39v-6.1h-2.49v-2.6h0Zm13.61,0v13.08h-2.97v-13.08h2.97Zm1.77,6.55c0-3.93,3.02-6.9,6.85-6.9,3.16,0,5.83,2.14,6.23,5.03h-3.02c-.29-1.26-1.68-2.25-3.26-2.25-2.19,0-3.88,1.74-3.88,4.12s1.69,4.09,3.88,4.09c1.58,0,2.97-.96,3.29-2.35h2.99c-.35,3.05-3.05,5.14-6.23,5.14-3.83,0-6.85-2.94-6.85-6.87Zm14.3,2.52h2.84c.11,1.2,1.1,2.03,2.6,2.03s2.33-.72,2.33-1.69c0-2.78-7.52-.83-7.52-5.7,0-2.46,2.06-4.07,4.89-4.07s5,1.39,5.27,4.01h-2.92c-.16-.99-1.09-1.77-2.38-1.77-1.1,0-2.09.48-2.09,1.52,0,2.6,7.62.56,7.62,5.65,0,2.57-2.14,4.36-5.22,4.36s-5.22-1.6-5.43-4.36h0ZM61.24,2.38h2.49V0h2.97v2.38h3.5v2.6h-3.5v5.89c0,1.34.67,2.01,1.93,2.01h1.58v2.59h-1.95c-3,0-4.52-1.39-4.52-4.39v-6.1h-2.49v-2.6h0Z"></path><path class="cls-1" d="m11.11,17.86h-3.37v3.37h3.37v-3.37h0Zm-7.74-7.74H0v3.37h3.37v-3.37Z"></path><path class="cls-1" d="m18.85,2.39H7.74v3.37h7.74v7.74h3.37V2.39Z"></path><path class="cls-1" d="m14.9,14.9l-2.39,2.39,2.39,2.39,2.39-2.39-2.39-2.39ZM3.96,3.96l-2.39,2.39,2.39,2.39,2.39-2.39-2.39-2.39Zm0,10.94l-2.39,2.39,2.39,2.39,2.39-2.39-2.39-2.39Z"></path></svg> 