<?xml version="1.0" encoding="UTF-8"?> <svg xmlns="http://www.w3.org/2000/svg" id="Layer_1" width="599.76" height="400.32" viewBox="0 0 599.76 400.32"><defs><style>.cls-1{fill:#3a357e;}</style></defs><g id="BAI_Logo"><path id="Fill_5" class="cls-1" d="m317.32,143.49h0l-.82-.15c-.57-.1-1.1-.2-1.65-.31-13.88-2.82-27.33-7.41-40.03-13.67-12.65-6.24-24.29-14.37-34.51-24.09-4.86-4.58-9.25-9.63-13.11-15.08-.15-.19-.26-.42-.31-.65l.13.08c.09.05.18.11.26.18,6.51,5.83,13.79,10.75,21.64,14.6,11.19,5.52,23.01,9.63,35.21,12.25,6.05,1.4,12.16,2.47,18.33,3.22,3.33.39,6.74.65,10.03.92,1.47.12,2.99.24,4.49.37l.18.02.18.02v22.3h0Zm-18.54-33.21h0l-.12-.07c-.09-.05-.18-.11-.27-.18-6.51-5.84-13.79-10.75-21.64-14.6-11.19-5.52-23.02-9.64-35.21-12.26-6.05-1.4-12.16-2.47-18.33-3.22-3.33-.39-6.74-.65-10.03-.92h-.02c-1.47-.12-2.98-.24-4.47-.37-.09,0-.18-.02-.34-.04h-.02v-22.3l.79.15c.58.11,1.13.22,1.69.32,13.87,2.82,27.33,7.41,40.02,13.67,12.66,6.24,24.3,14.37,34.52,24.09,4.86,4.58,9.25,9.63,13.11,15.08.15.19.26.42.31.65h0Z"></path><g id="Group"><path id="Fill_1" class="cls-1" d="m460.42,248.11c-2.33,0-4.69-1-4.69-2.91v-1.44h1.85v1.01c0,1.06,1.43,1.61,2.83,1.61,1.74,0,2.83-.8,2.83-2.09,0-1.5-1.53-2.06-3.12-2.66l-.31-.12c-1.69-.61-3.79-1.37-3.79-3.88,0-2.72,2.35-3.68,4.55-3.68s4.31.78,4.31,2.27v1.61h-1.87v-.95c0-.79-1.26-1.22-2.44-1.22-1.54,0-2.5.72-2.5,1.88,0,1.42,1.35,1.91,2.91,2.48l.12.04c2.05.74,4.17,1.51,4.17,4.07.03,1.16-.5,2.27-1.44,2.97-1,.69-2.2,1.04-3.41,1.01Zm-29.78,0c-1.94.02-3.81-.72-5.21-2.07-1.36-1.35-2.13-3.19-2.11-5.1-.01-1.87.75-3.67,2.11-4.96,1.41-1.32,3.28-2.04,5.21-2.01,3.9-.13,7.18,2.93,7.31,6.83,0,.05,0,.09,0,.14,0,3.96-3.2,7.17-7.16,7.18-.05,0-.1,0-.16,0h0Zm0-12.45c-2.87-.02-5.22,2.3-5.23,5.17,0,.03,0,.07,0,.1,0,2.89,2.34,5.23,5.23,5.23s5.23-2.34,5.23-5.23c.05-2.87-2.24-5.23-5.11-5.27-.04,0-.08,0-.13,0h0Zm-20.69,12.45c-2.33,0-4.69-1-4.69-2.91v-1.44h1.85v1.01c0,1.06,1.43,1.61,2.83,1.61,1.74,0,2.83-.8,2.83-2.09,0-1.5-1.53-2.06-3.12-2.66l-.31-.11c-1.69-.61-3.79-1.37-3.79-3.88,0-2.72,2.35-3.69,4.55-3.69s4.31.78,4.31,2.27v1.61h-1.87v-.95c0-.79-1.26-1.22-2.44-1.22-1.54,0-2.5.72-2.5,1.88,0,1.42,1.35,1.91,2.91,2.48l.12.04c2.05.74,4.17,1.51,4.17,4.07.03,1.16-.5,2.27-1.44,2.97-1,.69-2.2,1.04-3.42,1.01Zm-19.23,0c-3.92.14-7.21-2.92-7.35-6.83,0-.11,0-.21,0-.32-.02-3.85,3.09-6.99,6.95-7,.11,0,.22,0,.33,0,1.41,0,5.42.5,5.42,2.71v1.67h-1.87v-1.07c0-1.2-2.13-1.65-3.47-1.65-1.4-.03-2.76.5-3.78,1.46-.99,1.01-1.52,2.38-1.49,3.79-.14,2.92,2.11,5.4,5.04,5.54.12,0,.24,0,.36,0,1.16,0,3.55-.39,3.55-1.61v-1.07h1.87v1.67c0,1.96-3.4,2.69-5.54,2.69Zm54.25-.23h-5.62v-1.51h1.77v-10.69h-1.77v-1.49h3.77l6.99,9.81c.18.32.35.65.48.99h.06s0-.04,0-.06c-.05-.35-.08-.7-.09-1.05v-8.2h-1.82v-1.49h5.62v1.49h-1.79v12.19h-1.96l-6.99-9.81c-.19-.31-.36-.64-.48-.99h-.06s0,.03,0,.04c.05.35.08.7.07,1.06v8.19h1.83v1.51h0Zm24.91,0h-2.09v-2.04h2.09v2.03h0Zm-47.9,0h-5.58v-1.51h1.77v-10.69h-1.77v-1.49h5.58v1.49h-1.79v10.68h1.79v1.51h0Zm-18.39,0h-5.58v-1.51h1.77v-10.69h-1.77v-1.49h5.58v1.49h-1.79v10.68h1.79v1.51h0Zm-21.85,0h-10.64v-1.51h1.77v-10.69h-1.77v-1.49h10.3v3.18h-1.74v-1.59h-4.77v4.4h5.04v1.59h-5.04v4.52h5.11v-1.65h1.74v3.24h0Zm-19.63,0h-6.09v-1.51h1.77v-10.69h-1.77v-1.49h6.06c1.02-.04,2.04.07,3.03.33,2.83.86,4.69,3.56,4.49,6.51.21,2.94-1.66,5.64-4.49,6.47-.98.28-1.99.4-3,.37h0Zm-2.3-12.1v10.51h2.18c.82.04,1.64-.08,2.42-.34,2.03-.74,3.31-2.76,3.1-4.91.2-2.15-1.06-4.17-3.08-4.95-.79-.25-1.61-.35-2.44-.31h-2.18Z"></path><path id="Fill_2" class="cls-1" d="m360.68,226.1c-2.31,0-4.66-1-4.66-2.91v-1.44h1.84v1.01c0,1.06,1.42,1.61,2.82,1.61,1.73,0,2.8-.8,2.8-2.09,0-1.5-1.5-2.06-3.09-2.66l-.31-.12c-1.67-.61-3.75-1.37-3.75-3.88,0-2.71,2.33-3.68,4.51-3.68s4.28.78,4.28,2.27v1.61h-1.86v-.95c0-.79-1.25-1.22-2.42-1.22-1.53,0-2.48.72-2.48,1.88,0,1.42,1.34,1.91,2.89,2.48l.11.04c2.03.74,4.14,1.51,4.14,4.07.03,1.16-.5,2.27-1.43,2.97-.99.69-2.18,1.05-3.39,1.01Zm45.82-.23h-5.49v-1.51h1.76v-10.69h-1.76v-1.49h6.1c.88-.04,1.76.05,2.61.29,1.55.46,2.57,1.94,2.46,3.55.1,1.82-1.13,3.44-2.91,3.84v.04c.25.16.46.38.6.64l2,3.37c.22.38.5.45.98.45h.42v1.51h-1.2c-1.19,0-1.47-.21-1.96-1.03l-2.18-3.74c-.36-.58-.61-.76-1.48-.76h-1.68v4.02h1.74v1.51h0Zm-1.74-12.1v4.98h2.83c1.31.1,2.46-.88,2.56-2.19.01-.13,0-.26,0-.39.09-.93-.44-1.81-1.31-2.15-.56-.19-1.15-.27-1.74-.25h-2.34Zm-14.19,12.1h-4.89v-1.51h1.36l4.49-12.17h2.26l4.49,12.17h1.36v1.51h-4.89v-1.51h1.5l-1.09-3.05h-5.01l-1.09,3.05h1.53v1.51h-.02Zm2.07-11.9c-.05.35-.13.7-.24,1.05l-1.74,4.75h4l-1.72-4.76c-.12-.34-.2-.69-.24-1.05h-.05Zm-20.37,11.9h-5.43v-1.51h1.76l.9-10.69h-1.8v-1.49h3.99l3.62,8.33c.13.32.24.65.32.99h.04v-.02c.09-.33.19-.65.32-.97l3.62-8.33h3.99v1.49h-1.8l.9,10.68h1.76v1.51h-5.43v-1.5h1.7l-.64-8.18c0-.38.02-.75.06-1.13h-.06s0,.02,0,.04c-.08.34-.19.68-.31,1.01l-3.25,7.19h-1.76l-3.24-7.19c-.13-.34-.23-.69-.32-1.05h-.06s0,.03,0,.05c.04.36.06.72.05,1.07l-.63,8.19h1.7v1.51h0Zm50.66,0h-5.56v-1.51h1.78v-10.59h-3.32v2.13h-1.74v-3.72h12.11v3.72h-1.74v-2.13h-3.31v10.59h1.78v1.51h0Z"></path><path id="Fill_3" class="cls-1" d="m462.52,204.09c-3.88.22-7.21-2.75-7.43-6.63,0-.16-.01-.32-.01-.48-.03-1.89.72-3.72,2.07-5.04,1.47-1.33,3.4-2.05,5.38-2,2.63,0,5.46,1.03,5.46,2.69v1.69h-1.85v-1.01c0-1.12-1.79-1.71-3.55-1.71-1.46-.06-2.89.47-3.96,1.48-.99,1.03-1.52,2.41-1.46,3.84-.03,1.45.5,2.86,1.49,3.92,1.06,1.05,2.51,1.61,4,1.56,1.06,0,3.81-.31,3.81-1.71v-1.79h-2.78v-1.51h4.64v3.84c0,2.09-3.57,2.87-5.81,2.87Zm-86.26,0c-1.94.02-3.81-.72-5.21-2.07-1.36-1.34-2.12-3.18-2.11-5.1-.01-1.87.75-3.67,2.11-4.96,1.41-1.32,3.28-2.04,5.21-2.01,3.91-.13,7.18,2.93,7.31,6.83,0,.05,0,.09,0,.14,0,3.96-3.2,7.17-7.16,7.18-.05,0-.1,0-.16,0Zm0-12.45c-2.87-.02-5.22,2.3-5.23,5.17,0,.03,0,.07,0,.1,0,2.89,2.34,5.23,5.23,5.23,2.89,0,5.23-2.34,5.23-5.23h0c.05-2.87-2.24-5.23-5.11-5.28-.04,0-.08,0-.12,0Zm68.24,12.22h-5.62v-1.51h1.77v-10.69h-1.77v-1.49h3.77l7,9.81c.18.32.35.65.48.99h.06s0-.04,0-.06c-.05-.35-.08-.7-.09-1.05v-8.2h-1.83v-1.49h5.62v1.49h-1.79v12.19h-1.97l-7-9.81c-.19-.31-.35-.65-.48-.99h-.06s0,.03,0,.05c.05.35.08.7.07,1.06v8.18h1.83v1.51h0Zm-21.42,0h-5.54v-1.51h1.77v-10.69h-1.77v-1.49h6.17c.88-.04,1.76.06,2.62.29,1.56.46,2.59,1.93,2.48,3.55.09,1.83-1.15,3.45-2.94,3.84v.04c.25.16.46.38.6.64l2.01,3.37c.22.38.5.45.99.45h.42v1.51h-1.21c-1.2,0-1.49-.21-1.97-1.03l-2.19-3.73c-.36-.58-.61-.76-1.49-.76h-1.69v4.01h1.74v1.51h.01Zm-1.74-12.1v4.98h2.86c1.32.11,2.48-.88,2.58-2.2.01-.13.01-.25,0-.38.09-.94-.46-1.82-1.34-2.15-.56-.18-1.15-.27-1.74-.25h-2.36Zm-30.51,12.1h-2.31l-3.16-12.2h-1.37v-1.49h5.06v1.49h-1.69l2.22,8.98c.1.48.16,1.02.16,1.03h.06s0-.03,0-.05c.02-.14.1-.58.19-.98l2.98-10.46h1.72l2.96,10.46c.09.34.16.68.2,1.03h.08s0-.02,0-.04c.03-.33.07-.66.14-.99l2.22-8.98h-1.69v-1.49h5.08v1.49h-1.37l-3.18,12.19h-2.3l-2.78-9.71c-.09-.36-.15-.72-.18-1.09h-.08v.03c-.03.36-.09.71-.18,1.06l-2.78,9.72h.02Zm46.3,0h-5.6v-1.51h1.77v-10.69h-1.77v-1.49h5.59v1.49h-1.8v10.68h1.8v1.51h.01Zm-21.36,0h-10.65v-1.51h1.78v-10.69h-1.78v-1.49h10.3v3.18h-1.74v-1.59h-4.77v4.4h5.04v1.59h-5.04v4.52h5.11v-1.65h1.74v3.24h.01Zm-54.14,0h-5.59v-1.51h1.77v-10.69h-1.77v-1.49h6.63c.83-.04,1.66.08,2.44.37,1.53.67,2.49,2.21,2.41,3.88.08,1.78-1.01,3.4-2.68,4.01-.69.22-1.41.32-2.14.29h-2.88v3.63h1.79v1.51h.01Zm-1.8-12.1v5.37h2.64c.54.01,1.09-.08,1.6-.27.94-.44,1.51-1.41,1.43-2.44.07-.96-.42-1.87-1.27-2.33-.55-.25-1.14-.36-1.74-.33h-2.65Z"></path><path id="Fill_4" class="cls-1" d="m333.7,248.11h-1.26c-1.38-.23-2.65-.9-3.63-1.9-1.63-1.84-1.97-4.48-.87-6.67,1-1.9,2.95-3.1,5.1-3.13.25,0,.51.02.76.05,2.48.31,4.47,2.2,4.91,4.66.02.1.06.2.1.3.02.05.04.1.06.14v1.11c-.02.06-.03.12-.05.17-.04.14-.08.28-.1.42-.31,2.16-1.86,3.94-3.95,4.55-.22.08-.46.14-.69.2l-.36.1Zm-.61-10.82c-1.23,0-2.42.49-3.28,1.37-.95.96-1.47,2.26-1.45,3.6-.09,2.65,1.99,4.86,4.64,4.95.06,0,.13,0,.19,0h.02c2.74-.22,4.78-2.62,4.56-5.36-.2-2.46-2.18-4.41-4.64-4.56h-.02Zm-184.92,10.6c-3.16,0-6.32,0-9.48,0h-7.77c-.25,0-.5-.02-.75-.03l-.3-.03v-95.62l.3.02c.2,0,.4.02.6.02h19.36c5.62-.01,10.18-.01,14.37.01,5.57-.12,11.11.97,16.22,3.19,7.01,2.91,12.1,9.14,13.56,16.59,1.66,6.48.51,13.36-3.16,18.96-1.31,1.95-2.92,3.69-4.77,5.15l-.05.04c-.15.12-.3.24-.44.37-.03.02-.05.06-.05.09h0c.47.36.96.72,1.44,1.06,1.06.74,2.08,1.53,3.05,2.38,4.45,3.99,7.34,9.44,8.13,15.37.78,4.86.22,9.84-1.62,14.41-2.31,5.52-6.44,10.08-11.7,12.93-4.38,2.48-9.22,4.04-14.23,4.58-2.89.32-5.79.48-8.69.49-4.11.01-8.57.03-14.04.03Zm10.1-41.09h-8.28c-.12,0-.24.01-.37.02l-.2.02v23.01l.22.02c.11,0,.19.02.28.02h8.42c2.38,0,4.32,0,6.1-.03,2.61-.01,5.19-.53,7.61-1.53,2.84-.92,5.08-3.15,6-5.99.52-1.86.64-3.81.36-5.72-.3-3.41-2.37-6.41-5.45-7.89-2.53-1.25-5.32-1.89-8.15-1.88-1.9-.03-3.98-.04-6.54-.04h0Zm-5.78-17.93h5.19c1.93,0,3.41,0,4.79-.02,2.21.02,4.41-.35,6.5-1.07,2.77-.75,4.87-3.01,5.41-5.83.24-1.28.3-2.58.19-3.87-.14-3.23-2.26-6.05-5.32-7.1-1.65-.56-3.39-.83-5.14-.79-1.78-.01-3.71-.02-6.05-.02h-4.22s-.05,0-.05,0h-3.57c-.17,0-.34.01-.52.02l-.25.02c0,.08-.01.15-.02.22-.01.14-.03.27-.03.39v4.53c0,4.2,0,8.55-.02,12.82-.03.19.03.39.15.55.16.12.36.17.56.15h2.38Zm121.42,58.96c-.5.05-.97-.26-1.11-.74-1.64-3.6-3.32-7.26-4.94-10.8h0c-1.45-3.16-2.94-6.41-4.4-9.62-.14-.42-.56-.68-1-.62h-17.32c-6.46,0-12.46,0-18.37-.02-.46-.05-.9.24-1.02.7-1.86,4.32-3.75,8.67-5.58,12.89l-.06.13c-1.07,2.47-2.14,4.94-3.21,7.41-.18.41-.33.68-.87.68h-.01c-4.17-.02-8.43-.02-12.44-.02h-7.82c-.11,0-.22-.01-.36-.02l-.26-.02.52-1.18c.46-1.05.89-2.05,1.34-3.06l32.93-74.55.41-.93,1.42-3.21c1.74-3.93,3.54-7.99,5.29-11.99.13-.42.54-.68.97-.62,2.49.01,4.96.02,7.33.02s4.73,0,7-.02c.48-.06.94.23,1.07.7,10.34,24.15,20.84,48.6,30.98,72.26l6.63,15.44c.81,1.89,1.69,3.94,2.76,6.46.06.14.1.27.16.44.03.09.06.19.1.29h-9.62c-2.89,0-6.7,0-10.51.02h-.02Zm-29.29-66.78h0l-4.95,11.97-6.22,15.04h22.17l-1.76-4.32-9.24-22.69Zm73.08,66.74h-19.4v-95.5h19.4v95.5Zm17.17-2.21c-.37,0-.45-.22-.57-.76-.04-.17-.07-.34-.1-.51v-.03c-.22-1.09-.6-1.49-1.44-1.49-.27,0-.55.04-.81.09v1.91c0,.63-.02.78-.41.78-.14,0-.31-.02-.58-.05v-2.35c0-1.13,0-2.3-.01-3.45-.03-.19.02-.38.14-.53.12-.1.28-.15.44-.13h.25c.2,0,.4,0,.64-.01.2,0,.4-.01.6-.01h.37c.84-.1,1.64.39,1.94,1.18.28.87,0,1.42-1.07,2.2.63.42,1.01,1.13,1.01,1.88.04.4.15.8.32,1.16-.23.06-.47.1-.71.12h0Zm-2.4-5.87c-.46,0-.53.17-.54.82v1.59c.2-.03.4-.05.59-.07.4-.02.8-.1,1.18-.23.32-.19.54-.52.58-.89-.05-.37-.25-.71-.54-.94-.27-.17-.59-.26-.91-.26-.15,0-.26-.02-.35-.02Z"></path></g></g></svg> 