<?xml version="1.0" encoding="UTF-8"?> <svg xmlns="http://www.w3.org/2000/svg" id="Layer_1" width="600" height="400" viewBox="0 0 600 400"><defs><style>.cls-1{fill:#3a357e;}</style></defs><path class="cls-1" d="m238.76,222.17c-.08,1.64-.23,3.21-.55,4.78-.39,2.11-1.64,3.45-3.76,3.92-.78.16-1.49.31-2.19.47v2.98h35.09v-2.98c-.94-.31-1.8-.55-2.66-.7-2.04-.7-3.29-2.04-3.68-4.15-.23-1.02-.39-1.96-.39-2.98,0-9.56.08-19.11-.08-28.67-.08-4.39-.31-8.77-.94-13.08-1.02-7.05-5.01-12.3-11.75-14.96-6.89-2.66-13.39-1.33-19.19,3.13-3.37,2.58-6.11,5.87-8.62,9.24-.23.31-.55.63-.86,1.1-.16-.55-.31-.86-.39-1.25-1.17-3.92-2.82-7.52-6.11-10.1-4.86-3.84-10.34-4.23-16.06-2.9-5.17,1.25-9.24,4.39-12.84,8.15-.94,1.02-1.88,2.11-2.98,3.37v-10.97h-28.82v2.98c.47.08.94.16,1.33.23,3.29.7,4.78,2.35,5.25,5.64.08.63.08,1.25.08,1.88v43.63c0,1.1-.08,2.27-.23,3.37-.39,2.66-1.41,4.93-3.99,6.19-.7.31-1.49.47-2.19.78-.16.08-.47.31-.47.47v2.66h35.09v-2.98c-.7-.16-1.33-.31-1.96-.47-2.11-.63-3.45-2.04-3.76-4.23-.24-1.57-.39-3.21-.39-4.78,0-10.65.16-21.3-.08-31.96-.08-3.6,1.02-6.42,3.21-9.09.08-.16.16-.31.31-.47,1.88-2.27,3.92-4.31,6.81-5.17,3.45-1.1,6.19.23,7.05,3.76.55,2.43.78,4.93.78,7.36.08,10.65,0,21.23,0,31.88,0,1.8-.16,3.6-.23,5.4-.24,3.76-1.72,6.66-5.72,7.6,0,0-.08,0-.08.08v2.98h33.91v-2.98c-.16,0-.31-.08-.47-.08s-.31-.08-.47-.08c-2.66-.55-4.31-2.11-4.78-4.78-.31-1.64-.55-3.21-.55-4.86-.08-11.12-.08-22.17-.08-33.29,0-.39,0-.78.16-1.1,1.33-2.9,2.98-5.72,5.25-8.15,1.57-1.57,3.21-2.9,5.4-3.45,3.21-.78,5.87.47,6.89,3.6.47,1.57.86,3.29.86,5.01.16,6.89.08,13.71.08,20.6,0,5.8-.08,11.59-.23,17.39Z"></path><path class="cls-1" d="m475.92,166.33c-.94,0-1.96-.16-2.82-.47-6.97-2.58-14.02-3.21-21.3-1.57-7.05,1.64-13.16,4.93-17.54,10.81-5.4,7.21-6.19,15.04-2.04,23.18,2.19,4.15,5.72,7.21,9.56,9.79.55.39,1.17.78,1.88,1.25-.94.23-1.64.39-2.43.63-2.98.86-5.64,2.11-7.52,4.78-2.98,4.31-2.43,10.89,1.33,14.72,1.25,1.25,2.74,2.27,4.15,3.45-.16.08-.55.23-.86.39-2.04,1.1-4.07,2.04-5.95,3.21-1.49.94-2.51,2.35-2.98,4.07-1.02,3.84-.08,7.21,2.9,9.87,2.51,2.27,5.48,3.52,8.69,4.46,8.46,2.43,17.07,2.74,25.77,2.35,5.87-.23,11.59-1.25,17.07-3.6,5.4-2.35,10.03-5.64,12.61-11.12,2.04-4.15,2.43-8.54,1.33-13-1.25-5.17-4.86-8.15-9.63-9.95-4.86-1.8-9.87-2.27-14.96-2.35-8.93-.08-17.94,0-26.94,0-.86,0-1.72-.08-2.58-.24-1.17-.16-1.72-.86-1.64-1.96.08-.94.63-1.57,1.88-1.57,3.13-.16,6.19-.16,9.32-.16.47,0,.94.08,1.41.16,6.19,1.25,12.3.94,18.33-.86,6.11-1.8,11.36-4.93,14.96-10.26,4.39-6.5,5.56-13.47,1.8-20.68-1.41-2.66-3.21-5.17-4.78-7.68-.16-.31-.39-.55-.63-.94h14.18v-6.74h-1.49c-7.05,0-14.02.08-21.07,0Zm-30.55,70.41c1.72-1.17,3.68-1.72,5.72-1.88,1.96-.08,3.84-.24,5.8-.31,1.88-.08,3.84,0,5.8,0v-.31c4.78.39,9.56.63,14.33,1.1,1.8.16,3.68.7,5.33,1.49,3.29,1.49,4.15,4.7,2.35,7.83-1.57,2.74-4.15,4.07-6.89,5.09-3.37,1.25-6.97,1.8-10.57,1.96-5.72.23-11.44-.08-16.92-1.8-2.27-.78-4.46-1.8-6.11-3.68-2.74-3.05-2.27-7.21,1.17-9.48Zm24.67-34.93c-.63,2.04-1.49,3.92-3.05,5.4-3.52,3.13-8.85,2.43-11.59-1.49-1.57-2.27-2.35-4.78-2.74-7.36-1.1-6.89-1.25-13.78.47-20.52.47-1.96,1.33-3.92,2.43-5.56,3.13-4.62,9.56-4.46,12.69.16,1.64,2.35,2.27,5.09,2.66,7.83.16,1.02.31,2.04.31,3.13.08,1.72,0,3.52,0,5.25.08,4.39-.08,8.77-1.17,13.16Z"></path><path class="cls-1" d="m328.44,181.13c-2.11-5.56-5.4-10.34-10.42-13.78-4.78-3.29-9.95-4.31-15.59-2.43-3.76,1.33-6.58,3.84-9.16,6.81-.47.47-.86,1.02-1.33,1.57,0,0-.08-.08-.16-.08v-9.32c-9.95,2.04-19.74,4.07-29.53,6.11v2.9c.23,0,.47.08.7.08,4.62.55,6.5,2.27,7.05,6.27.08.47.08,1.02.08,1.57v62.03c0,1.25-.08,2.51-.23,3.68-.47,4.7-2.66,6.97-7.21,7.75-.63.08-1.17.16-1.72.23v2.74h40.49v-2.66c-1.72-.39-3.37-.63-5.09-.94-2.19-.55-3.6-2.04-4.07-4.23-.24-1.33-.47-2.58-.47-3.92-.08-5.8-.08-11.51-.08-17.31,0-.23.08-.47.08-.86.31.39.47.63.7.86,1.57,1.49,2.9,3.21,4.62,4.39,5.72,3.84,11.75,3.6,17.78.7,5.09-2.51,8.77-6.66,11.44-11.59,6.97-13.16,7.36-26.79,2.11-40.57Zm-18.95,26.08c-.16,3.52-.39,7.13-.78,10.65-.16,2.04-.7,4.07-1.8,5.95-1.88,3.13-5.09,4.15-8.46,2.51-2.43-1.1-3.99-3.13-5.48-5.25-.78-1.17-1.17-2.35-1.17-3.84.08-4.93.08-9.87.08-14.8,0-5.33-.08-10.57,0-15.82,0-3.05.78-5.95,2.58-8.46,2.04-2.9,5.17-4.15,8.3-3.37,1.49.31,2.58,1.17,3.45,2.43,1.49,2.27,2.11,4.86,2.51,7.52,1.1,7.44,1.1,14.96.78,22.48Z"></path><path class="cls-1" d="m573.75,230.87c-2.51-.7-4.23-2.19-4.78-4.86-.23-1.49-.47-2.98-.47-4.46v-29.92c0-4.86-.47-9.56-2.04-14.18-1.41-4.23-3.52-8.07-7.52-10.34-7.05-3.99-14.18-3.84-21.07.24-3.68,2.19-6.5,5.25-9.24,8.38-.16.24-.23.47-.39.7-.08-.08-.24-.16-.31-.23v-9.71h-28.59c0,.55.08,1.1,0,1.57-.23,1.33.31,1.96,1.57,2.43,2.66.94,4.39,2.74,4.78,5.56.08.78.16,1.64.16,2.51v41.43c0,1.64-.16,3.29-.31,4.93-.31,3.13-1.49,5.56-4.93,6.11-.16,0-.39.23-.39.39v2.9h33.84c0-.86-.08-1.57-.24-2.19.08-.7-.16-1.1-.86-1.33-2.66-.86-4.23-2.82-4.7-5.64-.23-1.41-.39-2.82-.39-4.23v-30.7q0-5.72,3.68-10.18c1.72-2.04,3.6-3.99,6.27-4.93,3.37-1.25,6.34.16,7.28,3.6.47,1.49.63,3.05.63,4.54v34.93c0,1.57.16,3.21.16,4.86-.08,3.6-1.17,6.58-4.93,7.91-.23.08-.47.39-.47.63v2.82h34.54v-3.21c-.47-.16-.86-.24-1.25-.31Z"></path><path class="cls-1" d="m401.28,224.44c-.94-.63-1.8-1.25-2.82-1.88-.63.63-1.02,1.25-1.57,1.64-.63.39-1.33.94-2.04,1.02-1.72.31-2.82-.7-3.13-2.9-.23-1.88-.39-3.84-.39-5.8v-30.7c-.08-2.35-.16-4.78-.39-7.13-.39-4.46-2.43-8.15-6.34-10.5-1.96-1.1-3.92-2.11-6.03-2.82-7.83-2.51-15.82-2.66-23.81-1.02-6.19,1.25-11.83,3.6-16.45,7.99-3.37,3.21-5.56,7.05-5.33,11.91.16,4.23,1.96,7.68,6.03,9.24,4.7,1.8,9.09.86,12.84-2.51,2.74-2.51,4.15-7.13.47-10.97-.78-.86-1.49-1.8-2.11-2.82-.86-1.33-.86-2.74,0-3.99.55-.78,1.25-1.57,2.04-2.11,3.29-2.11,6.89-2.51,10.57-1.64,3.68.86,6.19,3.21,6.58,7.13.31,3.13.23,6.34.31,9.56,0,.24-.39.55-.7.63-5.8,1.96-11.51,4.39-16.92,7.28-5.48,2.98-10.73,6.27-15.04,10.81-4.23,4.46-6.42,9.63-6.11,15.82.39,6.66,4.54,11.91,10.73,13.71,4.15,1.17,8.15.63,12.06-.94,4.07-1.64,7.68-4.07,11.2-6.74,1.25-.94,2.51-1.88,3.76-2.9.16.31.16.47.23.63.86,2.9,2.11,5.48,4.39,7.52,3.84,3.37,8.46,3.92,13.31,3.21,6.74-1.02,11.12-5.17,14.65-10.73Zm-32.43-6.89c0,.86-.23,1.41-.94,1.96-1.96,1.49-3.92,2.82-6.27,3.52-3.99,1.17-7.36-.39-8.85-4.23-1.33-3.37-1.1-6.81-.23-10.18,1.96-7.44,6.81-12.45,13.39-15.98.78-.39,1.57-.7,2.35-1.1.16-.08.23-.08.47-.08,0,.31,0,.7.08,1.1v24.98Z"></path><path class="cls-1" d="m156.99,224.37c-.78-.63-1.64-1.25-2.43-1.88-.55.63-1.1,1.1-1.57,1.64-1.64,1.8-4.86,1.8-5.33-1.49-.31-2.11-.55-4.15-.55-6.27v-31.17c0-2.04-.16-3.99-.23-6.03-.31-4.78-2.35-8.46-6.42-10.97-1.8-1.02-3.6-2.04-5.56-2.66-8.22-2.74-16.6-2.9-25.06-1.02-5.4,1.25-10.5,3.29-14.72,6.97-3.99,3.37-6.5,7.52-6.34,13,.16,3.99,2.51,7.68,6.11,9.01,4.62,1.72,8.93.86,12.69-2.43,2.74-2.35,4.23-6.97.78-10.97-.7-.78-1.33-1.64-1.96-2.51-1.1-1.57-1.1-3.37.16-4.86.86-.94,1.88-1.8,3.05-2.35,2.98-1.41,6.19-1.64,9.4-.78,3.84.94,6.03,3.37,6.34,7.28.31,3.05.23,6.11.23,9.16,0,.23-.39.63-.63.7-4.07,1.72-8.22,3.21-12.22,5.01-6.42,2.98-12.53,6.42-17.86,11.28-4.86,4.39-7.91,9.63-7.91,16.37s2.58,11.36,8.54,14.25c3.84,1.88,7.91,1.8,11.98.63,4.15-1.17,7.75-3.45,11.2-5.95,1.96-1.41,3.84-2.98,5.8-4.46.16.31.23.63.23.7,1.33,4.39,3.68,7.83,8.07,9.56,2.82,1.17,5.8,1.33,8.77,1.02,7.05-.78,11.83-4.86,15.43-10.81Zm-32.43-6.58c0,.7-.23,1.17-.78,1.57-1.88,1.49-3.84,2.82-6.11,3.6-4.15,1.41-7.68-.31-9.24-4.39-1.25-3.37-1.02-6.81-.08-10.18,2.11-7.28,6.97-12.3,13.47-15.74.7-.39,1.49-.78,2.27-1.1h.39c0,.31,0,.63.08,1.1v25.14Z"></path><path class="cls-1" d="m82.98,216.3c-2.27,1.57-4.46,3.37-6.81,4.7-4.86,2.74-9.87,2.98-14.96.55-4.23-2.11-7.28-5.4-9.63-9.48-4.62-7.99-6.03-16.6-5.01-25.61.47-4.23,1.8-8.22,4.31-11.67,2.11-2.9,4.78-4.93,8.54-5.09,3.45-.16,5.56,1.33,6.27,4.7.31,1.49.39,3.05.55,4.62.23,3.21.7,6.42,2.27,9.4,2.27,4.39,7.13,6.5,11.98,5.17,4.46-1.25,7.44-5.8,7.21-10.57-.23-4.46-2.11-8.07-5.17-11.12-5.72-5.64-12.84-8.22-20.76-8.3-11.2-.16-20.36,4.39-27.49,12.77-7.91,9.48-10.65,20.44-8.62,32.5,1.17,7.44,4.46,13.86,10.18,18.8,8.22,7.21,17.94,9.09,28.51,6.97,6.03-1.25,11.12-4.39,15.51-8.69,2.35-2.27,4.39-4.78,6.27-7.52-.78-.94-1.57-1.88-2.43-2.82-.31.23-.63.47-.7.7Z"></path><path class="cls-1" d="m433.08,232.9q0-1.72-1.72-2.11c-3.68-.86-5.4-2.66-6.03-6.42-.16-.94-.23-1.88-.23-2.82v-55.14h-30.15v3.52c1.17.31,2.27.63,3.29.86,2.82.78,4.54,2.58,4.86,5.56.16.78.23,1.64.23,2.43v42.45c0,4.46-1.25,8.22-6.11,9.63-.16.08-.39.23-.39.39v2.98h36.26v-1.33Z"></path><path class="cls-1" d="m414.13,164.61c6.03,0,10.89-4.78,10.89-10.89s-4.78-11.04-10.73-11.12c-6.19,0-10.89,4.78-10.89,11.12s4.7,10.89,10.73,10.89Z"></path></svg> 