<?xml version="1.0" encoding="UTF-8"?> <svg xmlns="http://www.w3.org/2000/svg" id="Layer_2" width="600" height="400" viewBox="0 0 600 400"><path d="m247.54,221.17v6.63c-5.09,1.6-10.67,2.37-16.88,2.37-9.21,0-16.18-2.58-20.93-7.67-4.74-5.16-7.12-12.21-7.12-21.14,0-9.91,2.3-17.65,6.84-23.16,4.53-5.51,11.58-8.23,21.07-8.23,6.21,0,11.86.91,16.95,2.72v6.56c-5.16-1.95-10.6-2.93-16.32-2.93-7.53,0-12.97,2.09-16.25,6.35-3.28,4.26-4.88,10.46-4.88,18.69,0,15,7.12,22.46,21.28,22.46,6.21,0,11.58-.91,16.25-2.65Z"></path><path d="m262.96,170.88h7.46v58.39h-7.46v-58.39Z"></path><path d="m333.06,222.91c-4.39,4.81-11.16,7.25-20.37,7.25s-15.97-2.44-20.37-7.25c-4.39-4.81-6.56-12.49-6.56-22.88s2.16-18,6.56-22.88c4.39-4.81,11.16-7.25,20.37-7.25s15.97,2.44,20.37,7.25c4.39,4.81,6.56,12.49,6.56,22.88.07,10.39-2.16,18.07-6.56,22.88Zm-2.93-36.76c-1.4-3.49-3.49-6-6.35-7.53-2.86-1.53-6.56-2.3-11.09-2.3s-8.23.77-11.09,2.3c-2.86,1.53-4.95,4.05-6.35,7.53-1.4,3.49-2.09,8.09-2.09,13.95s.7,10.46,2.09,13.95c1.4,3.49,3.49,6,6.35,7.53,2.86,1.53,6.56,2.3,11.09,2.3s8.23-.77,11.09-2.3c2.86-1.53,4.95-4.05,6.35-7.53s2.09-8.09,2.09-13.95-.7-10.46-2.09-13.95Z"></path><path d="m359.15,170.88h26.09c9.28,0,16.39,2.37,21.21,7.05,4.81,4.67,7.18,12.21,7.18,22.53s-2.37,17.09-7.18,21.83c-4.81,4.67-11.86,7.05-21.21,7.05h-26.09v-58.45h0Zm23.93,45.34c3,0,5.44-.42,7.32-1.33s3.28-2.44,4.32-4.74c1.05-2.3,1.46-5.51,1.46-9.77s-.42-7.6-1.33-10.04c-.91-2.37-2.3-4.05-4.19-5.02-1.88-.98-4.39-1.46-7.6-1.46h-6.91v32.37h6.91Z"></path><path d="m424.51,170.88h17.02v58.39h-17.02v-58.39Z"></path><path d="m450.67,170.88h17.79l13.6,38.64,13.6-38.64h17.86l-22.39,58.39h-18.07l-22.39-58.39Z"></path><path d="m520.78,170.88h44.22v13.04h-27.2v9.56h23.86v13.25h-23.86v9.49h27.2v13.04h-44.22v-58.39Z"></path><path d="m107.41,184.27h-17.86v30.27h18.28v-.07c6.77-.63,12.07-7.12,12.07-15.14s-5.3-14.51-12.07-15.14h-.42v.07Z"></path><path d="m70.02,215.73v-51.06h36.27c9.63,0,12.7,2.02,12.7,2.02l21.9-21.07c-10.95-7.88-24.48-12.56-38.99-12.56-36.97,0-66.9,29.99-66.9,66.9,0,14.65,4.67,28.18,12.63,39.13l22.39-23.37Z"></path><path d="m155.68,160.27l-21,20.93s.98,2.02,2.44,5.79c1.46,3.77,2.93,9.63,1.95,16.32s-2.79,14.72-9.49,21.55c-6.7,6.84-13.18,9-21.28,9.14-8.09.14-26.37,0-26.37,0l-19.95,19.74c11.16,8.3,24.9,13.18,39.9,13.18,36.97,0,66.9-29.99,66.9-66.9,0-14.93-4.88-28.67-13.11-39.76Z"></path></svg> 