<?xml version="1.0" encoding="UTF-8"?><svg id="Emblem" xmlns="http://www.w3.org/2000/svg" width="8.33in" height="5.56in" viewBox="0 0 599.76 400.32"><defs><style>.cls-1{fill:#86bc25;}</style></defs><path class="cls-1" d="m462.78,190.62c0-5.42,4.42-9.64,9.64-9.64s9.64,4.42,9.64,9.64-4.42,9.64-9.64,9.64-9.64-4.22-9.64-9.64"/><path d="m173.14,164.71c0,11.25-2.81,19.68-8.84,25.7-6.03,6.03-14.46,9.03-25.31,9.03h-21.29v-66.89h22.49c10.65,0,18.68,2.61,24.31,8.23,5.82,5.42,8.64,13.46,8.64,23.9m-18.48.6c0-6.23-1.21-10.64-3.62-13.66-2.21-2.81-6.03-4.42-10.85-4.42h-4.81v37.36h4.01c5.42,0,9.24-1.6,11.86-4.81,2.21-3.21,3.42-8.03,3.42-14.46"/><rect x="231.59" y="132.37" width="16.67" height="67.09"/><path d="m303.3,174.35c0,8.03-2.01,14.46-6.43,19.08s-10.44,6.83-18.08,6.83-13.25-2.21-17.68-7.03-6.63-11.05-6.63-18.88,2.01-14.46,6.43-18.88c4.42-4.62,10.44-6.83,18.08-6.83,4.82,0,9.03,1.01,12.66,3.01,3.81,2.01,6.43,5.02,8.44,8.84,2.41,4.22,3.21,8.64,3.21,13.86m-31.54,0c0,4.42.6,7.43,1.6,9.64,1.01,2.21,2.81,3.21,5.63,3.21s4.42-1.01,5.63-3.21c1.01-2.21,1.6-5.62,1.6-9.64,0-4.42-.6-7.43-1.6-9.64-1.01-2.01-2.81-3.21-5.63-3.21-2.41,0-4.42,1.01-5.63,3.21-1.01,2.21-1.6,5.22-1.6,9.64"/><rect x="310.12" y="149.44" width="16.67" height="49.81"/><rect x="310.12" y="132.37" width="16.67" height="11.25"/><path d="m360.74,186.6c2.21,0,5.02-.6,8.03-1.6v12.66c-2.21,1.01-4.42,1.6-6.43,2.01s-4.42.6-7.23.6c-5.63,0-9.64-1.41-12.25-4.42-2.41-2.81-3.81-7.23-3.81-13.05v-20.48h-5.82v-12.86h5.82v-12.45l16.88-2.81v15.66h10.85v12.66h-10.85v19.28c.4,3.42,1.81,4.81,4.82,4.81"/><path d="m399.7,186.6c2.21,0,5.02-.6,8.03-1.6v12.66c-2.21,1.01-4.42,1.6-6.43,2.01s-4.42.6-7.23.6c-5.63,0-9.64-1.41-12.25-4.42-2.41-2.81-3.81-7.23-3.81-13.05v-20.48h-5.82v-12.86h5.82v-12.66l16.88-2.61v15.66h10.85v12.66h-10.85v19.28c.21,3.42,1.81,4.81,4.82,4.81"/><path d="m452.73,154.46c-4.01-4.01-9.64-5.82-16.88-5.82-7.64,0-13.66,2.21-17.88,6.83-4.22,4.62-6.23,11.05-6.23,19.48s2.21,14.46,6.63,18.88c4.62,4.42,10.85,6.63,18.88,6.63,4.01,0,7.23-.2,10.04-.8,2.61-.6,5.63-1.41,8.03-2.81l-2.41-11.25c-1.81.8-3.81,1.41-5.42,1.81-2.41.6-5.23.8-8.03.8-3.21,0-5.82-.8-7.64-2.21-1.81-1.6-2.81-3.81-2.81-6.63h29.92v-7.83c-.21-7.43-2.41-13.05-6.23-17.08m-23.7,13.86c.21-2.61,1.01-4.81,2.21-6.03s2.81-1.81,5.02-1.81c2.01,0,4.01.6,5.23,2.01,1.21,1.41,1.81,3.21,2.01,5.82h-14.47Z"/><path d="m219.14,154.46c-4.22-4.01-9.64-5.82-16.88-5.82-7.64,0-13.66,2.21-17.88,6.83-4.22,4.62-6.23,11.05-6.23,19.48s2.21,14.46,6.63,18.88c4.62,4.42,10.85,6.63,18.88,6.63,4.01,0,7.23-.2,10.04-.8,2.61-.6,5.62-1.41,8.03-2.81l-2.41-11.45c-1.81.8-3.81,1.41-5.42,1.81-2.41.6-5.22.8-8.03.8-3.21,0-5.82-.8-7.64-2.21-1.81-1.6-2.81-3.81-2.81-6.63h29.92v-7.64c-.21-7.43-2.41-13.05-6.23-17.08m-23.9,13.86c.21-2.61,1.01-4.81,2.21-6.03s2.81-1.81,5.02-1.81,4.01.6,5.22,2.01,1.81,3.21,2.01,5.82h-14.46Z"/><path d="m141.61,232.2v3.21h-9.24v25.5h-3.81v-25.5h-9.24v-3.21h22.3,0Z"/><path d="m149.04,240.23c1.21,0,2.41.21,3.42.6s2.01,1.01,2.61,1.81c.8.8,1.41,1.81,1.81,2.81.4,1.21.6,2.41.6,3.81,0,.6,0,1.01-.21,1.21s-.4.4-.6.4h-13.46c0,1.21.21,2.41.4,3.42.4,1.01.8,1.81,1.21,2.41.6.6,1.21,1.21,2.01,1.41.8.4,1.6.4,2.61.4.8,0,1.6-.21,2.21-.4s1.21-.4,1.6-.6c.4-.21.8-.4,1.21-.6s.6-.4.8-.4c.4,0,.4.21.6.4l1.01,1.21c-.4.6-1.01,1.01-1.6,1.41s-1.21.8-2.01,1.01c-.6.21-1.41.4-2.21.6s-1.41.2-2.21.2c-1.41,0-2.61-.2-3.81-.6-1.21-.4-2.21-1.21-3.01-2.01-.8-1.01-1.6-2.01-2.01-3.42s-.8-2.81-.8-4.62c0-1.41.21-2.81.6-4.01s1.01-2.21,1.81-3.21c.8-1.01,1.81-1.6,3.01-2.01,1.6-.8,2.81-1.21,4.42-1.21h0v-.02Zm0,2.61c-1.81,0-3.01.4-4.01,1.41s-1.6,2.41-1.81,4.22h11.05c0-.8-.21-1.6-.4-2.21s-.6-1.21-1.01-1.81c-.4-.4-1.01-.8-1.6-1.21-.6-.21-1.41-.4-2.21-.4h0Z"/><path d="m175.75,244.24l-.4.4c-.21,0-.21.21-.4.21s-.4,0-.6-.21-.6-.4-.8-.6c-.4-.21-.8-.4-1.21-.6s-1.21-.2-2.01-.2c-1.01,0-1.81.2-2.61.6s-1.41.8-2.01,1.6c-.4.6-1.01,1.41-1.21,2.41s-.4,2.01-.4,3.21.21,2.21.4,3.21c.4,1.01.6,1.81,1.21,2.41.4.6,1.21,1.21,1.81,1.41.8.4,1.6.4,2.41.4s1.6-.2,2.21-.4,1.01-.4,1.41-.6.6-.4,1.01-.6c.21-.2.4-.4.8-.4s.6.21.6.4l1.01,1.21c-.8,1.01-2.01,1.81-3.21,2.41-1.21.4-2.81.8-4.22.8-1.21,0-2.41-.21-3.62-.6-1.21-.4-2.01-1.21-2.81-2.01s-1.41-2.01-2.01-3.21c-.4-1.21-.6-2.81-.6-4.42,0-1.41.2-2.81.6-4.22.4-1.21,1.01-2.41,1.81-3.42s1.81-1.6,3.01-2.21,2.61-.8,4.01-.8,2.61.21,3.81.6,2.01,1.21,2.81,2.01l-.8,1.21v-.02l-.02.02Z"/><path d="m180.57,260.71v-29.33h3.62v11.86c.8-1.01,1.81-1.6,2.81-2.21,1.01-.6,2.21-.8,3.62-.8,1.21,0,2.01.21,2.81.6s1.6.8,2.01,1.6c.6.6,1.01,1.41,1.21,2.41.4,1.01.4,2.01.4,3.21v12.86h-3.62v-12.86c0-1.6-.4-2.81-1.01-3.62-.6-.8-1.81-1.21-3.21-1.21-1.01,0-2.01.2-3.01.8-1.01.4-1.81,1.21-2.61,2.01v14.86l-3.01-.21h0v.02Z"/><path d="m202.66,260.71v-20.09h2.01c.4,0,.8.2,1.01.8l.4,2.21c.8-1.01,1.81-1.81,3.01-2.41s2.41-1.01,3.81-1.01c1.21,0,2.01.21,2.81.6s1.6.8,2.01,1.6c.6.6,1.01,1.41,1.21,2.41.21,1.01.4,2.01.4,3.21v12.86h-3.62v-12.86c0-1.6-.4-2.81-1.01-3.62-.6-.8-1.81-1.21-3.21-1.21-1.01,0-2.01.21-3.01.8-1.01.4-1.81,1.21-2.61,2.01v14.86l-3.21-.21h0v.02h0Z"/><path d="m233.2,240.23c1.41,0,2.81.21,4.01.8s2.21,1.21,3.01,2.01c.8,1.01,1.41,2.01,2.01,3.21.4,1.21.6,2.81.6,4.42s-.2,3.01-.6,4.42-1.21,2.41-2.01,3.21-1.81,1.6-3.01,2.01-2.61.8-4.01.8-2.81-.2-4.01-.8c-1.21-.4-2.21-1.21-3.01-2.01-.8-1.01-1.41-2.01-2.01-3.21-.4-1.21-.6-2.81-.6-4.42s.21-3.01.6-4.42c.4-1.21,1.21-2.41,2.01-3.21.8-1.01,1.81-1.6,3.01-2.01s2.41-.8,4.01-.8h0Zm0,18.08c2.01,0,3.42-.6,4.42-2.01,1.01-1.41,1.41-3.21,1.41-5.63s-.4-4.22-1.41-5.62-2.41-2.01-4.42-2.01c-1.01,0-2.01.21-2.61.4-.8.4-1.41.8-1.81,1.41s-.8,1.41-1.21,2.41c-.21,1.01-.4,2.01-.4,3.21s.21,2.21.4,3.21.6,1.81,1.21,2.41c.4.6,1.21,1.21,1.81,1.41.6.6,1.6.8,2.61.8h0Z"/><path d="m251.07,231.39v29.33h-3.62v-29.33h3.62Z"/><path d="m265.53,240.23c1.41,0,2.81.21,4.01.8,1.21.4,2.21,1.21,3.01,2.01.8,1.01,1.41,2.01,2.01,3.21.4,1.21.6,2.81.6,4.42s-.21,3.01-.6,4.42c-.4,1.21-1.21,2.41-2.01,3.21s-1.81,1.6-3.01,2.01-2.61.8-4.01.8-2.81-.2-4.01-.8c-1.21-.4-2.21-1.21-3.01-2.01-.8-1.01-1.41-2.01-2.01-3.21-.4-1.21-.6-2.81-.6-4.42s.2-3.01.6-4.42c.4-1.21,1.21-2.41,2.01-3.21.8-1.01,1.81-1.6,3.01-2.01s2.61-.8,4.01-.8h0Zm0,18.08c2.01,0,3.42-.6,4.42-2.01s1.41-3.21,1.41-5.63-.4-4.22-1.41-5.62-2.41-2.01-4.42-2.01c-1.01,0-2.01.21-2.61.4-.8.4-1.41.8-1.81,1.41-.4.6-.8,1.41-1.21,2.41s-.4,2.01-.4,3.21.21,2.21.4,3.21.6,1.81,1.21,2.41c.4.6,1.21,1.21,1.81,1.41.8.6,1.6.8,2.61.8h0Z"/><path d="m286.42,240.23c.8,0,1.81.21,2.41.4.8.2,1.41.4,2.01.8h5.63v1.21c0,.4-.4.8-.8.8l-2.21.4c.4.8.6,1.81.6,2.81s-.21,1.81-.6,2.61c-.4.8-1.01,1.41-1.6,2.01s-1.41,1.01-2.41,1.21-2.01.4-3.01.4-1.81-.21-2.61-.4c-.4.21-.8.6-1.01.8-.21.4-.4.6-.4,1.01s.2.8.6,1.21c.4.2,1.01.4,1.6.6s1.41.21,2.21.21h2.41c.8,0,1.6,0,2.41.2.8.21,1.6.4,2.21.8.6.4,1.21.8,1.6,1.41.4.6.6,1.41.6,2.21s-.21,1.81-.6,2.61c-.4.8-1.01,1.6-1.81,2.21-.8.6-1.81,1.21-3.01,1.6-1.21.4-2.41.6-4.01.6-1.41,0-2.81-.21-3.81-.4-1.21-.4-2.01-.6-2.81-1.21-.8-.4-1.21-1.01-1.6-1.81-.4-.6-.6-1.21-.6-2.01,0-1.01.4-1.81,1.01-2.61.6-.6,1.41-1.21,2.61-1.6-.6-.21-1.01-.6-1.41-1.01s-.4-1.01-.4-1.81c0-.4,0-.6.21-1.01s.2-.6.4-1.01.4-.6.8-.8c.4-.4.6-.4,1.21-.8-1.01-.6-1.81-1.21-2.41-2.21-.6-1.01-.8-2.01-.8-3.21,0-1.01.21-1.81.6-2.61.4-.8,1.01-1.41,1.6-2.01s1.41-1.01,2.41-1.21c.4-.2,1.6-.4,2.81-.4h0Zm6.23,21.69c0-.4-.2-1.01-.4-1.21-.4-.4-.6-.6-1.21-.8-.4-.21-1.01-.4-1.6-.4s-1.21-.21-2.01-.21h-2.01c-.8,0-1.41,0-2.01-.21-.8.4-1.41.8-1.81,1.21-.4.4-.6,1.21-.6,1.81,0,.4.21.8.4,1.21s.6.8,1.01,1.01c.4.4,1.21.4,1.81.6.8.21,1.6.21,2.61.21s1.81,0,2.61-.21,1.41-.4,2.01-.8c.6-.4,1.01-.8,1.21-1.21v-1.01h0Zm-6.23-11.05c.8,0,1.41-.2,2.01-.4.6-.21,1.01-.4,1.41-.8s.6-.8.8-1.21.4-1.01.4-1.6c0-1.21-.4-2.21-1.21-3.01s-1.81-1.21-3.21-1.21-2.61.4-3.21,1.21c-.8.8-1.21,1.81-1.21,3.01,0,.6.2,1.21.4,1.6s.4,1.01.8,1.21c.4.4.8.6,1.41.8.4.4.8.4,1.6.4h0Z"/><path d="m305.91,266.75c-.2.2-.2.4-.4.6s-.4.21-.8.21h-2.61l3.62-8.03-8.44-19.08h3.21c.4,0,.6,0,.8.21l.4.4,5.42,12.66c.21.4.21.6.4.8,0,.4.21.6.21,1.01.2-.4.2-.6.4-1.01s.21-.6.4-1.01l5.23-12.66c0-.21.21-.4.4-.6s.4-.2.6-.2h2.81l-11.65,26.71h-.02Z"/><path class="cls-1" d="m348.89,231.79v5.02h-11.86v7.43h10.04v5.23h-10.04v11.25h-6.83v-29.12l18.68.2h0Z"/><path class="cls-1" d="m363.56,260.71c-.6,0-1.01,0-1.41-.21s-.6-.4-.8-1.01l-.4-1.21c-.4.4-1.01.8-1.41,1.21s-1.01.6-1.41.8-1.01.4-1.6.4c-.6.21-1.21.21-2.01.21-1.01,0-1.81-.21-2.61-.4s-1.41-.6-2.01-1.21c-.6-.4-1.01-1.01-1.21-1.81-.4-.8-.4-1.6-.4-2.41s.2-1.41.6-2.21c.4-.8,1.01-1.41,2.01-2.01,1.01-.6,2.21-1.21,3.62-1.6,1.6-.4,3.62-.6,5.82-.6v-.8c0-1.21-.21-2.01-.8-2.61-.4-.6-1.21-.8-2.01-.8s-1.41,0-1.81.21c-.4.21-.8.4-1.21.6s-.8.4-1.01.6c-.4.2-.8.2-1.21.2s-.8-.2-1.21-.4-.6-.4-.6-.8l-1.21-2.01c1.21-1.21,2.61-2.01,4.22-2.41,1.6-.6,3.21-.8,4.82-.8,1.21,0,2.41.21,3.42.6,1.01.4,1.81,1.01,2.61,1.6.6.6,1.21,1.6,1.6,2.61.4,1.01.6,2.01.6,3.21v13.25l-3.01-.2h.02Zm-7.03-3.62c.8,0,1.41-.21,2.01-.4.6-.4,1.21-.8,1.81-1.41v-2.81c-1.21,0-2.21,0-3.01.21s-1.41.4-2.01.6-.8.4-1.01.8-.2.6-.2,1.01c0,.8.2,1.21.6,1.41.4.4,1.01.6,1.81.6h0Z"/><path class="cls-1" d="m385.25,244.65c-.21.21-.4.4-.4.6-.21.2-.4.2-.6.2-.4,0-.6,0-.8-.2-.4-.21-.6-.21-1.01-.4s-.8-.4-1.21-.4-1.01-.2-1.41-.2c-.8,0-1.41.2-1.81.4-.4.4-.6.8-.6,1.21s.21.6.4,1.01c.21.2.6.4,1.21.6s1.01.4,1.6.6,1.21.4,1.81.6c.6.21,1.21.4,1.81.8.6.4,1.21.6,1.6,1.01s.8,1.01,1.21,1.6c.21.6.4,1.21.4,2.21s-.2,2.01-.6,2.81-1.01,1.6-1.6,2.21c-.8.6-1.6,1.21-2.81,1.41-1.01.4-2.41.4-3.81.4-.6,0-1.41,0-2.01-.21s-1.41-.4-2.01-.6-1.21-.4-1.81-.8c-.6-.4-1.01-.6-1.41-1.01l1.41-2.21.6-.6c.21-.21.6-.21,1.01-.21s.6,0,1.01.21.6.4,1.01.4.8.4,1.21.4c.4.21,1.01.21,1.6.21.4,0,.8,0,1.21-.21s.6-.2.8-.4.4-.4.4-.6c.2-.21.2-.4.2-.6,0-.4-.2-.8-.4-1.01-.4-.21-.6-.4-1.21-.6-.4-.2-1.01-.4-1.6-.6s-1.21-.4-1.81-.6-1.21-.4-1.81-.8c-.6-.21-1.21-.6-1.6-1.21-.4-.4-.8-1.01-1.21-1.6s-.4-1.41-.4-2.41c0-.8.21-1.81.4-2.61.4-.8.8-1.41,1.6-2.01.6-.6,1.6-1.01,2.61-1.41s2.21-.6,3.62-.6c.8,0,1.41,0,2.21.21.6.21,1.41.4,2.01.6.6.2,1.21.4,1.6.8s1.01.6,1.41,1.01l-2.01,2.61h-.02,0Z"/><path class="cls-1" d="m399.3,261.12c-1.01,0-1.81-.21-2.61-.4s-1.41-.6-2.01-1.21-1.01-1.21-1.21-2.01-.4-1.6-.4-2.41v-10.64h-1.81c-.4,0-.6-.2-.8-.4s-.4-.4-.4-1.01v-2.21l3.21-.6,1.21-5.02c.21-.6.6-1.01,1.41-1.01h3.21v6.03h5.02v4.22h-5.02v10.24c0,.4.21.8.4,1.21s.6.4,1.01.4h.6c.2,0,.4-.21.4-.21.21,0,.21-.21.4-.21h.4c.21,0,.4,0,.4.21.21,0,.21.21.4.4l1.81,3.01c-.8.6-1.6,1.01-2.81,1.41-.8,0-1.81.2-2.81.2h-.04Z"/><path class="cls-1" d="m433.85,234.41c0,.4,0,.8-.21,1.21s-.4.6-.6,1.01c-.4.21-.6.4-1.21.6-.4.21-1.01.21-1.6.21h-7.03l-.8,4.81c.6-.21,1.01-.21,1.6-.21h1.41c1.6,0,2.81.21,4.01.6s2.21,1.21,3.01,2.01,1.41,1.81,1.81,2.81c.4,1.21.6,2.21.6,3.42,0,1.6-.21,3.01-.8,4.22s-1.21,2.41-2.21,3.42-2.21,1.6-3.62,2.21c-1.41.4-2.81.8-4.42.8-1.01,0-1.81-.21-2.81-.4-.8-.21-1.6-.4-2.41-.8s-1.41-.8-2.01-1.21c-.6-.4-1.21-1.01-1.81-1.41l2.01-2.61.6-.6c.2-.2.6-.21.8-.21.4,0,.8.21,1.21.4s.8.4,1.21.8c.4.21,1.01.4,1.41.6.6.21,1.21.4,2.01.4s1.6-.21,2.01-.4c.6-.21,1.01-.6,1.41-1.21.4-.4.6-1.01.8-1.6.21-.6.21-1.21.21-2.01,0-1.41-.4-2.41-1.21-3.21s-2.01-1.21-3.42-1.21c-1.21,0-2.61.21-3.81.8l-3.81-1.01,2.41-14.66h14.86l.4,2.41h-.02Z"/><path class="cls-1" d="m458.95,246.26c0,2.61-.2,4.82-.8,6.63s-1.21,3.42-2.21,4.62-2.01,2.21-3.42,2.81c-1.21.6-2.81,1.01-4.42,1.01s-3.01-.4-4.22-1.01-2.41-1.41-3.42-2.81c-1.01-1.21-1.81-2.81-2.21-4.62-.6-1.81-.8-4.01-.8-6.63s.21-4.81.8-6.63c.6-1.81,1.21-3.42,2.21-4.62s2.01-2.21,3.42-2.81c1.21-.6,2.81-.8,4.22-.8s3.01.4,4.42.8c1.21.6,2.41,1.41,3.42,2.81,1.01,1.41,1.81,2.81,2.21,4.62.4,2.01.8,4.01.8,6.63h0Zm-6.43,0c0-2.01-.21-3.62-.4-5.02-.21-1.21-.6-2.21-1.01-3.01s-1.01-1.21-1.41-1.41c-.6-.2-1.01-.4-1.6-.4s-1.21.21-1.6.4c-.6.21-1.01.8-1.41,1.41-.4.8-.8,1.81-1.01,3.01s-.4,2.81-.4,5.02c0,2.01.21,3.62.4,5.02.21,1.21.6,2.21,1.01,3.01s.8,1.21,1.41,1.6c.6.21,1.01.4,1.6.4s1.21-.21,1.6-.4c.6-.2,1.01-.8,1.41-1.6.4-.8.8-1.81,1.01-3.01.2-1.41.4-3.01.4-5.02Z"/><path class="cls-1" d="m482.06,246.26c0,2.61-.21,4.82-.8,6.63-.6,1.81-1.21,3.42-2.21,4.62s-2.01,2.21-3.42,2.81c-1.21.6-2.81,1.01-4.42,1.01s-3.01-.4-4.22-1.01-2.41-1.41-3.42-2.81c-1.01-1.21-1.81-2.81-2.21-4.62-.6-1.81-.8-4.01-.8-6.63s.2-4.81.8-6.63c.6-1.81,1.21-3.42,2.21-4.62s2.01-2.21,3.42-2.81c1.21-.6,2.81-.8,4.22-.8s3.01.4,4.42.8c1.21.6,2.41,1.41,3.42,2.81s1.81,2.81,2.21,4.62c.4,2.01.8,4.01.8,6.63h0Zm-6.43,0c0-2.01-.21-3.62-.4-5.02-.21-1.21-.6-2.21-1.01-3.01s-1.01-1.21-1.41-1.41c-.6-.2-1.01-.4-1.6-.4s-1.21.21-1.6.4c-.6.21-1.01.8-1.41,1.41-.4.8-.8,1.81-1.01,3.01s-.4,2.81-.4,5.02c0,2.01.21,3.62.4,5.02.21,1.21.6,2.21,1.01,3.01s.8,1.21,1.41,1.6c.6.21,1.01.4,1.6.4s1.21-.21,1.6-.4c.6-.2,1.01-.8,1.41-1.6s.8-1.81,1.01-3.01c.21-1.41.4-3.01.4-5.02Z"/></svg>