<?xml version="1.0" encoding="UTF-8"?><svg id="Emblem" xmlns="http://www.w3.org/2000/svg" width="8.33in" height="5.56in" viewBox="0 0 599.76 400.32"><defs><style>.cls-1{fill:#fff;}</style></defs><path class="cls-1" d="m346.13,120.23l-.58,8.58h-3.51c-5.46,0-8.19,4.29-8.19,8.58v18.71h-9.55v-35.86h8.96l.2,4.68c1.95-3.31,5.27-4.68,9.36-4.68h3.31Zm-66.45,35.47h-9.55v-18.51c0-4.1-.2-8.96-5.65-8.96s-7.41,3.9-7.41,8.58v19.1h-9.95v-35.67h8.96l.2,4.68c1.95-2.93,5.46-5.46,10.72-5.46,9.55,0,12.66,6.82,12.66,14.22v22.02h0Zm-36.84-8.19l-.39,7.99c-2.54.78-4.29.78-6.82.78-8.96,0-11.7-4.1-11.7-12.28v-33.71h9.55v9.95h9.55l-.58,8.38h-8.96v14.42c0,3.31,1.17,5.27,4.29,5.27,1.56,0,3.31-.2,5.07-.78h0v-.02Zm-22.02-27.29l-.78,8.58h-2.92c-5.27,0-7.99,4.29-7.99,8.58v18.71h-9.55v-35.86h8.96l.2,4.68c1.95-3.31,5.27-4.68,9.36-4.68h2.73,0Zm-64.3,31.77c-6.62,3.51-13.05,5.46-21.63,5.27-15.78-.58-27.29-10.33-27.29-27.09s11.5-27.09,27.29-27.29c7.99-.2,15,1.95,20.85,6.82l-6.82,6.82c-3.51-2.93-8.58-4.68-14.42-4.29-10.13.2-16.17,7.6-16.17,17.54-.2,10.72,6.24,18.13,16.76,18.31,4.88.2,8.58-.2,11.5-1.56v-11.3h-11.3l.78-8.96h20.27l.2,25.72h-.02,0Zm163.3-10.53h-26.31c.78,4.29,4.29,7.21,8.78,7.41,4.29,0,6.82-1.37,9.94-4.29l6.24,4.68c-4.29,5.46-9.55,7.41-15.78,7.41-10.72,0-18.71-7.41-18.71-18.71s7.99-18.71,18.31-18.71c11.5,0,17.54,6.82,17.54,19.1v3.12h0Zm-9.55-7.6c-.2-4.29-3.51-7.21-8.19-7.21-4.68.2-7.61,3.31-8.58,7.21h16.76Zm-116.54-1.37v23.19h-8.58l-.2-3.51c-2.54,3.31-6.82,4.29-11.3,4.29-6.24,0-12.66-2.93-12.66-10.72-.2-11.7,13.05-12.66,21.63-12.66h1.56v-.59c0-3.9-2.54-6.05-7.41-6.05-3.51,0-6.82,1.56-9.55,3.9l-5.46-5.46c4.88-4.1,10.33-5.65,15.79-5.65,11.12,0,16.17,5.26,16.17,13.25h0Zm-9.36,7.99h-1.37c-4.29,0-12.66,0-12.28,4.88,0,6.62,13.63,4.29,13.63-3.51v-1.37h0Z"/><path class="cls-1" d="m283.9,199.94h11.38l-17.78,52.44h-10.27l-17.78-52.44h11.74l11.38,39.79,11.38-39.79h-.03Z"/><path class="cls-1" d="m322.41,214.24c2.75,1.29,4.95,3.12,6.79,5.69,1.65,2.38,2.57,4.95,3.12,8.07.18,1.84.37,4.4.37,7.7h-28.42c.18,3.85,1.47,6.61,4.03,8.25,1.47.92,3.48,1.47,5.5,1.47,2.38,0,4.22-.55,5.69-1.84.74-.55,1.47-1.47,2.02-2.75h10.27c-.18,2.38-1.47,4.59-3.67,6.98-3.48,3.85-8.25,5.69-14.48,5.69-5.14,0-9.72-1.65-13.56-4.77-3.85-3.12-5.87-8.44-5.87-15.59s1.84-11.92,5.32-15.4c3.48-3.67,8.25-5.32,13.93-5.32,3.12,0,6.24.74,8.99,1.84h0Zm-15.22,8.8c-1.47,1.47-2.38,3.48-2.75,6.06h17.41c-.18-2.75-1.1-4.77-2.75-6.06-1.65-1.47-3.67-2.02-6.06-2.02-2.38-.18-4.4.55-5.87,2.02h0Z"/><path class="cls-1" d="m368.59,215.92c2.57,2.02,3.85,5.5,3.85,10.46v26.04h-10.46v-23.65c0-2.02-.18-3.67-.74-4.77-.92-2.02-2.93-2.93-5.69-2.93-3.48,0-5.69,1.47-6.98,4.4-.74,1.47-.92,3.48-.92,5.87v20.91h-10.09v-38.5h9.72v5.69c1.29-2.02,2.57-3.48,3.67-4.22,2.02-1.65,4.77-2.38,7.88-2.38,3.85,0,7.16,1.1,9.72,3.12h.02l.02-.03Z"/><path class="cls-1" d="m402.54,214.41c1.84,1.1,3.3,2.38,4.4,4.22v-18.52h10.27v52.26h-9.91v-5.32c-1.47,2.38-3.12,4.03-4.95,4.95-1.84,1.1-4.22,1.65-6.98,1.65-4.59,0-8.25-1.84-11.38-5.5-3.12-3.67-4.59-8.44-4.59-14.11,0-6.61,1.47-11.74,4.59-15.59s7.16-5.69,12.29-5.69c2.38.18,4.4.74,6.24,1.65h.02Zm2.57,27.69c1.47-2.2,2.21-4.95,2.21-8.25,0-4.77-1.29-8.07-3.67-10.09-1.47-1.29-3.12-1.84-5.14-1.84-2.93,0-5.14,1.1-6.61,3.3s-2.02,4.95-2.02,8.25c0,3.67.74,6.42,2.21,8.62s3.48,3.3,6.42,3.3,5.14-1.1,6.61-3.3h0Z"/><path class="cls-1" d="m458.83,247.43c-3.3,4.03-8.25,6.06-14.85,6.06s-11.56-2.02-14.85-6.06c-3.3-4.03-4.95-8.99-4.95-14.67s1.65-10.46,4.95-14.48c3.3-4.03,8.25-6.24,14.85-6.24s11.56,2.02,14.85,6.24c3.3,4.03,4.95,8.99,4.95,14.48,0,5.87-1.65,10.64-4.95,14.67h0Zm-8.07-5.5c1.65-2.02,2.38-5.14,2.38-8.99s-.74-6.79-2.38-8.99-3.85-3.12-6.79-3.12-5.32,1.1-6.79,3.12c-1.65,2.02-2.38,5.14-2.38,8.99s.74,6.79,2.38,8.99c1.65,2.02,3.85,3.12,6.79,3.12s5.14-1.1,6.79-3.12Z"/><path class="cls-1" d="m492.38,212.6h.92v10.46c-.55,0-1.29-.18-1.65-.18h-1.29c-4.03,0-6.79,1.29-8.25,4.03-.74,1.47-1.1,3.85-1.1,6.98v18.52h-10.27v-38.87h9.72v6.79c1.65-2.57,2.93-4.4,4.03-5.32,1.84-1.65,4.4-2.38,7.34-2.38h.55v-.02Z"/><rect class="cls-1" x="106.46" y="173.52" width="240.36" height="11.12"/><polygon class="cls-1" points="351.87 173.52 351.87 184.64 485.28 184.64 492.92 173.52 351.87 173.52"/><rect class="cls-1" x="106.46" y="268.12" width="139.36" height="29.31"/><polygon class="cls-1" points="250.87 268.12 250.87 297.44 472.79 297.44 492.92 268.12 250.87 268.12"/><path class="cls-1" d="m106.74,225.32c0-16.89,9.77-28.17,24.5-28.17,12.08,0,21.27,7.56,23.27,18.89h-3.38c-1.8-9.49-9.77-15.76-19.9-15.76-12.72,0-21.19,9.99-21.19,25.03s8.48,25.03,21.19,25.03c10.13,0,18.1-6.56,19.9-16.32h3.38c-2.02,11.7-11.36,19.47-23.27,19.47-14.72,0-24.5-11.27-24.5-28.17h0Z"/><path class="cls-1" d="m159.68,233.04c0-12.28,6.83-20.45,17.1-20.45s17.1,8.18,17.1,20.45-6.83,20.45-17.1,20.45-17.1-8.18-17.1-20.45h0Zm31.04,0c0-10.49-5.61-17.51-13.93-17.51s-13.93,7.02-13.93,17.51,5.61,17.51,13.93,17.51,13.93-7.02,13.93-17.51h0Z"/><path class="cls-1" d="m199.55,233.04c0-12.28,6.83-20.45,17.1-20.45s17.1,8.18,17.1,20.45-6.83,20.45-17.1,20.45-17.1-8.18-17.1-20.45h0Zm31.04,0c0-10.49-5.61-17.51-13.93-17.51s-13.93,7.02-13.93,17.51,5.61,17.51,13.93,17.51,13.93-7.02,13.93-17.51h0Z"/><path class="cls-1" d="m242.73,199.94h3.09v52.44h-3.09v-52.44h0Z"/><path class="cls-1" d="m343.2,156.73c-.72,0-1.39-.13-2.02-.41s-1.18-.65-1.65-1.12-.85-1.02-1.12-1.65-.41-1.3-.41-2.03.13-1.39.41-2.02.65-1.18,1.12-1.65,1.02-.84,1.65-1.11,1.31-.41,2.02-.41,1.39.13,2.02.41,1.18.65,1.65,1.11c.47.47.84,1.02,1.11,1.65.27.63.41,1.3.41,2.02s-.13,1.4-.41,2.03c-.27.63-.64,1.18-1.11,1.65s-1.02.85-1.65,1.12-1.31.41-2.02.41Zm0-.68c.63,0,1.22-.12,1.75-.35s.99-.55,1.38-.95.68-.88.9-1.43.33-1.14.33-1.78-.11-1.22-.33-1.76-.52-1.03-.9-1.42c-.39-.4-.85-.72-1.38-.95s-1.12-.35-1.75-.35-1.22.12-1.76.35-1,.55-1.39.95-.69.87-.91,1.42-.33,1.13-.33,1.76.11,1.23.33,1.78.52,1.03.91,1.43.86.73,1.39.95c.54.23,1.12.35,1.76.35Zm2.59-1.62h-.85l-1.66-2.67h-1.31v2.67h-.71v-5.8h2.53c.77,0,1.31.13,1.6.41s.45.65.45,1.12c0,.28-.04.52-.13.73-.09.2-.22.36-.39.49s-.36.22-.58.27c-.23.06-.46.09-.72.1l1.76,2.67h0Zm-2.73-3.23h.66c.23,0,.46-.03.67-.08s.38-.15.5-.3c.13-.14.2-.37.2-.66,0-.23-.04-.4-.13-.54-.09-.13-.2-.23-.33-.3s-.29-.12-.47-.13c-.17-.03-.35-.04-.52-.04h-1.66v2.05h1.08,0Z"/></svg>