<?xml version="1.0" encoding="UTF-8"?><svg id="Emblem" xmlns="http://www.w3.org/2000/svg" width="8.33in" height="5.56in" viewBox="0 0 600 400"><defs><style>.cls-1{fill:#3a357e;}</style></defs><path class="cls-1" d="m346.27,120.04l-.58,8.58h-3.51c-5.46,0-8.19,4.29-8.19,8.58v18.72h-9.55v-35.87h8.96l.2,4.68c1.95-3.31,5.26-4.68,9.36-4.68h3.31Zm-66.48,35.48h-9.55v-18.52c0-4.09-.2-8.96-5.65-8.96s-7.41,3.9-7.41,8.58v19.11h-9.94v-35.68h8.96l.2,4.68c1.95-2.92,5.46-5.46,10.72-5.46,9.55,0,12.67,6.82,12.67,14.23v22.03h0Zm-36.85-8.19l-.39,7.99c-2.54.78-4.29.78-6.82.78-8.96,0-11.7-4.09-11.7-12.28v-33.72h9.55v9.94h9.55l-.58,8.38h-8.96v14.43c0,3.31,1.17,5.26,4.29,5.26,1.56,0,3.31-.2,5.07-.78h0Zm-22.03-27.3l-.78,8.58h-2.92c-5.26,0-7.99,4.29-7.99,8.58v18.72h-9.55v-35.87h8.96l.2,4.68c1.95-3.31,5.26-4.68,9.36-4.68h2.73Zm-64.33,31.78c-6.62,3.51-13.06,5.46-21.64,5.26-15.79-.58-27.3-10.33-27.3-27.1s11.5-27.1,27.3-27.3c7.99-.2,15.01,1.95,20.86,6.82l-6.82,6.82c-3.51-2.92-8.58-4.68-14.43-4.29-10.13.2-16.18,7.6-16.18,17.55-.2,10.72,6.24,18.13,16.77,18.32,4.88.2,8.58-.2,11.5-1.56v-11.3h-11.3l.78-8.96h20.28l.2,25.73h-.02Zm163.37-10.53h-26.32c.78,4.29,4.29,7.21,8.77,7.41,4.29,0,6.82-1.37,9.94-4.29l6.24,4.68c-4.29,5.46-9.55,7.41-15.79,7.41-10.72,0-18.72-7.41-18.72-18.72s7.99-18.72,18.32-18.72c11.5,0,17.55,6.82,17.55,19.11v3.12h0Zm-9.55-7.6c-.2-4.29-3.51-7.21-8.19-7.21-4.68.2-7.6,3.31-8.58,7.21h16.77Zm-116.59-1.37v23.2h-8.58l-.2-3.51c-2.54,3.31-6.82,4.29-11.3,4.29-6.24,0-12.67-2.92-12.67-10.72-.2-11.7,13.06-12.67,21.64-12.67h1.56v-.58c0-3.9-2.54-6.05-7.41-6.05-3.51,0-6.82,1.56-9.55,3.9l-5.46-5.46c4.88-4.09,10.33-5.65,15.79-5.65,11.11,0,16.18,5.26,16.18,13.26h0Zm-9.36,7.99h-1.37c-4.29,0-12.67,0-12.28,4.88,0,6.62,13.64,4.29,13.64-3.51v-1.37h0Z"/><path class="cls-1" d="m284.01,199.78h11.38l-17.79,52.46h-10.27l-17.79-52.46h11.74l11.38,39.81,11.38-39.81h0Z"/><path class="cls-1" d="m322.54,214.09c2.75,1.29,4.95,3.12,6.79,5.69,1.65,2.38,2.56,4.95,3.12,8.07.18,1.84.37,4.4.37,7.7h-28.43c.18,3.85,1.47,6.61,4.03,8.25,1.47.92,3.48,1.47,5.5,1.47,2.38,0,4.22-.55,5.69-1.84.74-.55,1.47-1.47,2.02-2.75h10.27c-.18,2.38-1.47,4.59-3.67,6.97-3.48,3.85-8.25,5.69-14.49,5.69-5.14,0-9.72-1.65-13.57-4.77-3.85-3.12-5.87-8.44-5.87-15.6s1.84-11.92,5.32-15.41c3.48-3.67,8.25-5.32,13.94-5.32,3.12,0,6.24.74,8.99,1.84h0Zm-15.23,8.8c-1.47,1.47-2.38,3.48-2.75,6.06h17.42c-.18-2.75-1.1-4.77-2.75-6.06-1.65-1.47-3.67-2.02-6.06-2.02-2.38-.18-4.4.55-5.87,2.02h0Z"/><path class="cls-1" d="m368.74,215.77c2.56,2.02,3.85,5.5,3.85,10.46v26.05h-10.46v-23.66c0-2.02-.18-3.67-.74-4.77-.92-2.02-2.93-2.93-5.69-2.93-3.48,0-5.69,1.47-6.97,4.4-.74,1.47-.92,3.48-.92,5.87v20.92h-10.09v-38.52h9.72v5.69c1.29-2.02,2.56-3.48,3.67-4.22,2.02-1.65,4.77-2.38,7.88-2.38,3.85,0,7.15,1.1,9.72,3.12h.02Z"/><path class="cls-1" d="m402.7,214.26c1.84,1.1,3.3,2.38,4.4,4.22v-18.53h10.27v52.28h-9.91v-5.32c-1.47,2.38-3.12,4.03-4.95,4.95-1.84,1.1-4.22,1.65-6.97,1.65-4.59,0-8.25-1.84-11.38-5.5-3.12-3.67-4.59-8.44-4.59-14.12,0-6.61,1.47-11.74,4.59-15.6s7.15-5.69,12.29-5.69c2.38.18,4.4.74,6.24,1.65h0Zm2.56,27.7c1.47-2.2,2.21-4.95,2.21-8.25,0-4.77-1.29-8.07-3.67-10.09-1.47-1.29-3.12-1.84-5.14-1.84-2.93,0-5.14,1.1-6.61,3.3s-2.02,4.95-2.02,8.25c0,3.67.74,6.42,2.21,8.62s3.48,3.3,6.42,3.3,5.14-1.1,6.61-3.3h0Z"/><path class="cls-1" d="m459.01,247.29c-3.3,4.03-8.25,6.06-14.86,6.06s-11.56-2.02-14.86-6.06c-3.3-4.03-4.95-8.99-4.95-14.68s1.65-10.46,4.95-14.49c3.3-4.03,8.25-6.24,14.86-6.24s11.56,2.02,14.86,6.24c3.3,4.03,4.95,8.99,4.95,14.49,0,5.87-1.65,10.64-4.95,14.68Zm-8.07-5.5c1.65-2.02,2.38-5.14,2.38-8.99s-.74-6.79-2.38-8.99-3.85-3.12-6.79-3.12-5.32,1.1-6.79,3.12c-1.65,2.02-2.38,5.14-2.38,8.99s.74,6.79,2.38,8.99c1.65,2.02,3.85,3.12,6.79,3.12s5.14-1.1,6.79-3.12Z"/><path class="cls-1" d="m492.58,212.44h.92v10.46c-.55,0-1.29-.18-1.65-.18h-1.29c-4.03,0-6.79,1.29-8.25,4.03-.74,1.47-1.1,3.85-1.1,6.97v18.53h-10.27v-38.89h9.72v6.79c1.65-2.56,2.93-4.4,4.03-5.32,1.84-1.65,4.4-2.38,7.33-2.38h.55Z"/><rect class="cls-1" x="106.5" y="173.35" width="240.46" height="11.11"/><polygon class="cls-1" points="352.01 173.35 352.01 184.47 485.47 184.47 493.12 173.35 352.01 173.35"/><rect class="cls-1" x="106.5" y="267.99" width="139.42" height="29.32"/><polygon class="cls-1" points="250.97 267.99 250.97 297.32 472.98 297.32 493.12 267.99 250.97 267.99"/><path class="cls-1" d="m106.78,225.17c0-16.9,9.77-28.18,24.51-28.18,12.08,0,21.28,7.56,23.28,18.9h-3.37c-1.8-9.49-9.77-15.77-19.91-15.77-12.73,0-21.2,9.99-21.2,25.04s8.48,25.04,21.2,25.04c10.13,0,18.11-6.56,19.91-16.33h3.37c-2.02,11.7-11.36,19.48-23.28,19.48-14.73,0-24.51-11.27-24.51-28.18h0Z"/><path class="cls-1" d="m159.74,232.89c0-12.28,6.83-20.46,17.11-20.46s17.11,8.18,17.11,20.46-6.83,20.46-17.11,20.46-17.11-8.18-17.11-20.46Zm31.05,0c0-10.49-5.61-17.52-13.94-17.52s-13.94,7.02-13.94,17.52,5.61,17.52,13.94,17.52,13.94-7.02,13.94-17.52h0Z"/><path class="cls-1" d="m199.63,232.89c0-12.28,6.83-20.46,17.11-20.46s17.11,8.18,17.11,20.46-6.83,20.46-17.11,20.46-17.11-8.18-17.11-20.46Zm31.05,0c0-10.49-5.61-17.52-13.94-17.52s-13.94,7.02-13.94,17.52,5.61,17.52,13.94,17.52,13.94-7.02,13.94-17.52h0Z"/><path class="cls-1" d="m242.83,199.78h3.09v52.46h-3.09v-52.46h0Z"/><path class="cls-1" d="m343.34,156.55c-.72,0-1.39-.13-2.02-.41s-1.18-.65-1.65-1.12-.85-1.02-1.12-1.65-.41-1.3-.41-2.02.13-1.39.41-2.02.65-1.18,1.12-1.65,1.02-.84,1.65-1.11,1.31-.41,2.02-.41,1.39.13,2.02.41,1.18.65,1.65,1.11c.47.47.84,1.02,1.11,1.65.27.63.41,1.3.41,2.02s-.13,1.39-.41,2.02c-.27.63-.64,1.18-1.11,1.65s-1.02.85-1.65,1.12-1.31.41-2.02.41Zm0-.68c.63,0,1.22-.12,1.75-.35s.99-.55,1.38-.95.68-.88.9-1.43.33-1.14.33-1.78-.11-1.22-.33-1.76-.52-1.03-.9-1.42c-.39-.4-.85-.72-1.38-.95s-1.12-.35-1.75-.35-1.22.12-1.76.35-1,.55-1.39.95c-.39.4-.69.87-.91,1.42s-.33,1.13-.33,1.76.11,1.23.33,1.78.52,1.03.91,1.43c.39.4.86.73,1.39.95.54.23,1.12.35,1.76.35Zm2.59-1.62h-.85l-1.66-2.67h-1.31v2.67h-.71v-5.8h2.53c.77,0,1.31.13,1.6.41s.45.65.45,1.12c0,.28-.04.52-.13.73-.09.2-.22.36-.39.49s-.36.22-.58.27c-.22.06-.46.09-.72.1l1.76,2.67h0Zm-2.73-3.23h.66c.23,0,.46-.03.67-.08s.38-.15.5-.3c.13-.14.2-.37.2-.66,0-.22-.04-.4-.13-.54-.09-.13-.2-.23-.33-.3s-.29-.12-.47-.13c-.17-.03-.35-.04-.52-.04h-1.66v2.05h1.08,0Z"/></svg>