<?xml version="1.0" encoding="UTF-8"?><svg id="Layer_1" xmlns="http://www.w3.org/2000/svg" width="600" height="400" viewBox="0 0 600 400"><defs><style>.cls-1{fill:#ca3132;}</style></defs><path d="m196.62,151.46h-17.41l-29.1,74.5-29.1-74.5h-18.24v95.53h14.48v-72.41l27.15,72.27h11.56s24.65-65.45,27.15-72.27v72.27h14.48v-95.39h-.97Zm71.71,84.11c-.97.42-2.09.56-3.06.7-1.25,0-3.9,0-3.9-6.54v-30.22c0-17.27-14.76-21.03-27.15-21.03-15.46,0-23.95,7.38-25.48,22l-.14.84,12.95.84v-.84c.42-8.36,4.46-12.53,12.53-12.53,10.44,0,14.34,3.34,14.34,12.39v4.87c-24.37,1.39-42.89,4.18-42.89,23.53,0,10.58,9.47,18.8,21.72,18.8,9.05,0,16.71-3.2,22.84-9.47,1.81,5.57,5.29,8.22,11.7,8.22,2.79,0,5.15-.28,7.24-.84l.56-.14v-11.14l-1.25.56h0Zm-19.91-20.19v6.54c0,9.75-6.96,16.29-17.55,16.29-2.79,0-11.7-.7-11.7-9.05.14-9.05,11.14-11.28,29.24-13.79h0Zm62.52-36.07c-10.86,0-17.27,3.2-22.42,10.72v-9.89h-12.95v66.84h12.95v-37.46c0-6.82,4.6-16.57,14.9-16.57l8.36.28v-13.93h-.84Zm20.19,67.68h-12.95v-95.39h12.95v55c2.65-2.92,24.37-26.32,24.37-26.32h15.74s-23.53,25.62-24.51,26.74l29.94,39.97h-16.15l-22.56-30.64-6.82,7.24v23.39h0Z"/><path d="m436.27,213.29c0-21.44-11.98-34.81-31.33-34.81-20.61,0-31.89,12.53-31.89,35.51,0,10.58,3.62,19.91,10.03,26.32,5.71,5.57,13.37,8.49,22.14,8.22,15.46,0,26.32-8.08,30.5-22.56l.28-.97-12.81-1.53-.14.7c-2.37,9.33-8.08,13.93-17.41,13.93-11.14,0-18.38-8.36-18.66-21.31h49.43v-3.48h-.14Zm-13.93-6.96h-35.37c.84-8.49,6.41-17.41,16.85-17.41s16.85,6.41,18.52,17.41Zm49.43,40.8c-4.04.97-7.66,1.39-11.14,1.39-12.39,0-12.39-6.27-12.39-13.65v-43.45h-10.86v-11.28h10.86v-28.13h12.81v28.13h12.11v11.28h-12.11v40.38c0,3.62.14,5.43,3.62,5.43,2.09,0,4.18-.42,6.68-1.25l1.11-.42v11.42l-.7.14h0Zm67.54-33.84c0-21.44-11.98-34.81-31.19-34.81-20.61,0-31.89,12.53-31.89,35.51,0,10.58,3.62,19.91,10.03,26.32,5.71,5.57,13.37,8.49,22,8.22,15.18,0,26.32-8.22,30.5-22.56l.28-.97-12.81-1.53-.14.7c-2.37,9.33-8.08,13.93-17.41,13.93-11.14,0-18.38-8.36-18.66-21.31h49.29v-3.48h0Zm-13.79-6.96h-35.37c.97-8.49,6.41-17.41,16.85-17.41,13.51,0,17.41,10.44,18.52,17.41Zm57.79-27.01c-10.86,0-17.27,3.2-22.42,10.72v-9.75h-12.95v66.84h12.95v-37.6c0-6.82,4.6-16.57,14.9-16.57l8.36.28v-13.93h-.84Z"/><path class="cls-1" d="m41.77,207.3c-2.51-5.85-1.67-12.11,5.01-14.48,7.1-2.65,11,1.53,13.37,7.8l-18.38,6.68h0Zm26.18,9.75c.97,5.99-1.39,9.47-7.1,11.56-7.66,2.79-12.11-1.39-14.2-8.63l43.72-15.87-1.25-3.48c-7.8-21.44-26.32-30.64-48.04-22.7-9.33,3.34-18.24,10.17-22.28,19.5-3.9,8.49-3.76,19.36-.56,28.27,3.34,9.33,10.3,16.85,19.63,20.47,9.75,3.9,19.91,2.65,29.52-.97,15.46-5.57,26.88-17.96,25.07-35.37l-24.51,7.24h0Z"/><path d="m572.45,233.06h-4.6v-1.81h11.42v1.81h-4.73v13.79h-2.09v-13.79h0Zm8.36-1.81h2.79l4.73,12.67,4.73-12.67h2.79v15.6h-2.09v-12.53h0l-4.6,12.53h-1.67l-4.6-12.53h0v12.53h-2.09v-15.6h0Z"/></svg>