<?xml version="1.0" encoding="UTF-8"?> <svg xmlns="http://www.w3.org/2000/svg" id="Layer_1" width="100" height="8.65" viewBox="0 0 100 8.65"><defs><style>.cls-1{fill:#3a357e;}</style></defs><path class="cls-1" d="m70.97,6.81c-.06,0-.12.01-.17.02-.01,0-.03,0-.04,0-.06,0-.12,0-.18,0-2.66,0-5.33,0-7.99,0-.04,0-.07,0-.11,0,0-.03,0-.06,0-.08,0-.45,0-.89,0-1.34,0-.02,0-.04,0-.05,0-.05.03-.07.07-.07.02,0,.05,0,.07,0,2.54,0,5.08,0,7.62,0,.1,0,.2,0,.29-.02.19-.03.28-.16.3-.34.01-.11,0-.22-.02-.33-.04-.15-.15-.24-.31-.26-.03,0-.07,0-.1,0-.02,0-.05,0-.07,0,0,0-.01,0-.02,0-.02,0-.05,0-.07,0,0,0-.01,0-.02,0-.02,0-.04,0-.07,0,0,0-.01,0-.02,0-.02,0-.04,0-.07,0,0,0-.01,0-.02,0-.02,0-.04,0-.07,0,0,0-.01,0-.02,0-.02,0-.04,0-.07,0,0,0-.01,0-.02,0-.02,0-.04,0-.07,0,0,0-.01,0-.02,0-.02,0-.04,0-.07,0,0,0-.01,0-.02,0-.02,0-.04,0-.07,0,0,0-.01,0-.02,0-.02,0-.04,0-.07,0,0,0-.01,0-.02,0-.02,0-.04,0-.07,0,0,0-.01,0-.02,0-.02,0-.04,0-.07,0,0,0-.01,0-.02,0-.02,0-.04,0-.07,0,0,0-.01,0-.02,0-.02,0-.04,0-.07,0,0,0-.01,0-.02,0-.02,0-.04,0-.07,0,0,0-.01,0-.02,0-.02,0-.04,0-.07,0,0,0-.01,0-.02,0-.02,0-.04,0-.07,0,0,0-.01,0-.02,0-.02,0-.04,0-.07,0,0,0-.01,0-.02,0-.02,0-.04,0-.07,0,0,0-.01,0-.02,0h-.07s-.01,0-.02,0c-.02,0-.04,0-.07,0,0,0-.01,0-.02,0-.02,0-.04,0-.07,0,0,0-.01,0-.02,0-.02,0-.04,0-.07,0,0,0-.01,0-.02,0h-.07s-.01,0-.02,0c-.02,0-.04,0-.07,0,0,0-.01,0-.02,0-.02,0-.04,0-.07,0,0,0-.01,0-.02,0-.02,0-.04,0-.07,0,0,0-.01,0-.02,0-.02,0-.04,0-.07,0,0,0-.01,0-.02,0-.02,0-.04,0-.07,0,0,0-.01,0-.02,0-.02,0-.04,0-.07,0,0,0-.01,0-.02,0-.02,0-.04,0-.07,0,0,0-.01,0-.02,0-.02,0-.04,0-.07,0,0,0-.01,0-.02,0-.02,0-.04,0-.07,0,0,0-.01,0-.02,0-.02,0-.04,0-.07,0,0,0-.01,0-.02,0-.02,0-.04,0-.07,0,0,0-.01,0-.02,0-.02,0-.04,0-.07,0,0,0-.01,0-.02,0-.02,0-.04,0-.07,0,0,0-.01,0-.02,0-.02,0-.04,0-.07,0,0,0-.01,0-.02,0-.02,0-.04,0-.07,0,0,0-.01,0-.02,0-.02,0-.04,0-.07,0,0,0-.01,0-.02,0h-.07s-.01,0-.02,0c-.02,0-.04,0-.07,0,0,0-.01,0-.02,0-.02,0-.04,0-.07,0,0,0-.01,0-.02,0-.02,0-.04,0-.07,0,0,0-.01,0-.02,0-.02,0-.04,0-.07,0,0,0-.01,0-.02,0-.02,0-.04,0-.07,0,0,0-.01,0-.02,0-.02,0-.04,0-.07,0,0,0-.01,0-.02,0h-.07s-.01,0-.02,0h-.07s-.01,0-.02,0c-.02,0-.04,0-.07,0,0,0-.01,0-.02,0-.02,0-.04,0-.07,0,0,0-.01,0-.02,0-.02,0-.04,0-.07,0,0,0-.01,0-.02,0-.02,0-.04,0-.07,0,0,0-.01,0-.02,0-.02,0-.04,0-.07,0,0,0-.01,0-.02,0-.02,0-.04,0-.07,0,0,0-.01,0-.02,0-.02,0-.04,0-.07,0,0,0-.01,0-.02,0h-.07s-.01,0-.02,0c-.02,0-.04,0-.07,0,0,0-.01,0-.02,0-.02,0-.04,0-.07,0,0,0-.01,0-.02,0-.02,0-.04,0-.07,0,0,0-.01,0-.02,0-.02,0-.04,0-.07,0,0,0-.01,0-.02,0-.02,0-.04,0-.07,0,0,0-.01,0-.02,0-.02,0-.04,0-.07,0,0,0-.01,0-.02,0-.02,0-.04,0-.07,0,0,0-.01,0-.02,0-.02,0-.04,0-.07,0,0,0-.01,0-.02,0-.02,0-.05,0-.07,0,0,0-.01,0-.02,0-.13,0-.26,0-.39-.01,0,0,0,0-.01,0-.41-.03-.8-.11-1.17-.3-.3-.15-.58-.35-.79-.61-.18-.23-.34-.49-.37-.79-.02-.15-.03-.3-.02-.45.05-.57.35-.99.79-1.34.33-.26.72-.41,1.13-.5.21-.04.43-.06.64-.06,2.19,0,4.38,0,6.57,0,.43,0,.86,0,1.29,0,.02,0,.04,0,.06,0,.05,0,.07.02.07.07,0,.02,0,.05,0,.07,0,.44,0,.87,0,1.31,0,.02,0,.04,0,.07-.04,0-.08,0-.11,0-.78,0-1.55,0-2.33,0-1.79,0-3.57,0-5.36,0-.09,0-.19.02-.28.04-.13.02-.21.1-.26.22-.05.13-.07.26-.02.39.07.21.19.29.41.31.09,0,.18,0,.27,0,1.86,0,3.73,0,5.59,0,.47,0,.92.1,1.34.29.38.17.69.42.92.78.11.18.19.37.23.57.09.39.04.78-.12,1.14-.06.14-.16.26-.26.39-.26.35-.62.55-1.02.7-.19.07-.37.13-.57.15-.01,0-.03,0-.04,0Z"></path><path class="cls-1" d="m14.09,4.35s-.03,0-.06.01v.93c2.55,0,5.09,0,7.63,0,.02.08.03,1.39,0,1.55h-9.81V.32s.08-.04.13-.04c.67,0,9.04,0,9.54,0,.05,0,.09,0,.14,0,0,.03,0,.05,0,.07,0,.46,0,.91,0,1.37,0,.04.02.09-.05.1-.05,0-.1,0-.14-.01-.07,0-.15,0-.22,0-2.25,0-4.49,0-6.74,0-.12,0-.25,0-.37,0-.04,0-.07,0-.11,0,0,.01-.02.02-.02.03,0,.3,0,.61,0,.93.6,0,7.16,0,7.16,0,0,0,0,1.01,0,1.47,0,.03,0,.09,0,.09h-7.1"></path><path class="cls-1" d="m44.61,6.81c-.1,0-.2.02-.3.02,0,0,0,0-.01,0-.05,0-.11,0-.16,0-1.87,0-3.75,0-5.62,0-.51,0-1.01-.08-1.48-.27-.45-.18-.84-.45-1.13-.85-.14-.2-.25-.41-.3-.65-.02-.1-.03-.2-.03-.31,0-.8-.01-1.6,0-2.4,0-.55.25-1,.68-1.34.43-.35.93-.56,1.48-.67.27-.05.54-.08.81-.08,1.81,0,3.63,0,5.44,0,.34,0,.68.02,1.02.1.51.12.98.32,1.38.67.28.25.48.54.57.91v.03c.02.1.04.2.04.3,0,.84,0,1.68,0,2.52,0,.07,0,.13-.01.2,0,0,0,.01,0,.02-.03.29-.17.53-.34.75-.2.27-.47.45-.76.61-.36.2-.76.33-1.17.4-.02,0-.04,0-.06,0-.01,0-.03,0-.04,0Zm-6.29-4.97c-.1.03-.21.05-.31.09-.13.06-.21.17-.24.31-.01.07-.02.15-.02.22,0,.75,0,1.49,0,2.24,0,.04,0,.08,0,.12,0,.01,0,.02.01.04.05.18.17.29.34.35.22.08.46.09.69.09,1.61,0,3.23,0,4.84,0,.15,0,.3,0,.45,0,.15,0,.29-.04.43-.09.17-.07.31-.23.31-.45,0-.21,0-.42,0-.64,0-.59,0-1.18,0-1.76,0-.18-.08-.31-.23-.4-.06-.04-.14-.06-.21-.08-.22-.06-.44-.06-.66-.06-.38,0-.76,0-1.14,0-1.37.01-2.75-.02-4.12.02-.05,0-.09.01-.14.02Z"></path><path class="cls-1" d="m58.13,4.69c-.15.01-.3.03-.44.03-2.22,0-4.43,0-6.65,0-.04,0-.08,0-.14,0,0,.04-.01.07-.01.11,0,.66,0,1.32,0,1.98,0,0,0,.02,0,.04h-2.16V.3s.09,0,.13,0c1.16,0,2.32-.01,3.47-.01,1.79,0,3.57,0,5.36,0,.45,0,.88.07,1.28.27.49.25.89.6,1.11,1.12.1.24.16.49.16.75,0,.25-.02.5-.1.74-.07.21-.18.4-.31.57-.31.41-.72.69-1.21.83-.14.04-.29.07-.44.11-.01,0-.03,0-.04,0Zm-7.24-1.52c.06,0,.1,0,.14,0,2.16,0,4.31,0,6.47,0,.04,0,.07,0,.11,0,.13-.02.26-.05.34-.17.04-.07.08-.16.1-.24.04-.18.03-.36,0-.54-.04-.18-.14-.36-.37-.39-.07-.01-.15-.02-.22-.02-2.16,0-4.32,0-6.48,0-.03,0-.05,0-.08,0v1.35Z"></path><path class="cls-1" d="m7.38,1.85s-.03,0-.05-.01c0,0,0,0-.01,0-.49-.04-.99-.02-1.49-.02-1.77,0-3.54,0-5.31,0-.14,0-.28,0-.42,0-.03,0-.05,0-.09,0V.3s.08,0,.13,0c1.64,0,3.29,0,4.93-.01.68,0,1.36,0,2.04,0,.17,0,.35,0,.52.02.33.04.65.11.96.22.25.09.49.21.71.37.21.16.41.33.55.56.17.27.26.57.26.9,0,.82,0,1.64,0,2.45,0,.31-.09.6-.26.86-.22.34-.52.59-.89.76-.14.07-.28.13-.42.19-.25.1-.51.15-.77.19-.01,0-.03,0-.04,0-.06,0-.13.01-.19.02,0,0-.01,0-.02,0-.07,0-.13,0-.2,0-2.4,0-4.8,0-7.19,0-.03,0-.06,0-.11,0,0-.05,0-.1,0-.15,0-.95.01-1.9.02-2.85,0-.34,0-.67-.01-1.01,0-.05,0-.09,0-.14h2.16c.02.11,0,.22,0,.32,0,.11,0,.22,0,.33,0,.11,0,.21,0,.32,0,.11,0,.21,0,.32,0,.11,0,.21,0,.32,0,.11,0,.22,0,.33,0,.11,0,.21,0,.32,0,.11,0,.21,0,.33.05,0,.09,0,.14,0,.95,0,1.89,0,2.84,0,.64,0,1.27,0,1.91,0,.17,0,.34-.02.5-.07.18-.06.31-.17.36-.36,0-.03.01-.07.01-.1,0-.79,0-1.57,0-2.36,0-.05,0-.09,0-.14-.03-.18-.13-.29-.3-.36-.07-.03-.16-.04-.23-.07,0,0,0,0,0,0Z"></path><path class="cls-1" d="m22.9.29c.16,0,.29,0,.42,0,.13,0,.26,0,.39,0,.13,0,.27,0,.4,0,.13,0,.26,0,.39-.01.13,0,.27,0,.4,0,.13,0,.26,0,.41,0,.54.73,2.67,3.7,3.21,4.45.04-.06.08-.11.12-.17.25-.35,2.88-4.07,2.99-4.23.03-.05.08-.06.13-.06.08,0,.16,0,.24,0,.66,0,1.32,0,1.98,0,.03,0,.06,0,.11,0-.01.04-.02.06-.03.08-.27.38-4.02,5.63-4.35,6.1-.07.1-.14.2-.21.3-.04.06-.09.08-.16.08-.55,0-1.09,0-1.64,0-.08,0-.13-.03-.17-.09-.31-.43-4.38-6.09-4.56-6.34-.02-.03-.04-.07-.07-.13Z"></path><path class="cls-1" d="m86.6,2.74v-.76s.05-.02.07-.02c.17,0,.34,0,.51,0,0,0,.02,0,.04.01,0,.02,0,.05,0,.08,0,1.34,0,2.68,0,4.03,0,.2-.04.41-.05.61-.02.2-.06.4-.13.59-.14.37-.36.67-.68.9-.31.22-.65.35-1.03.41-.2.03-.4.05-.6.06-.08,0-.16-.01-.24-.02-.38-.03-.74-.11-1.09-.27-.28-.13-.53-.31-.72-.55-.15-.19-.27-.4-.38-.62,0-.01,0-.03,0-.06.08,0,.16,0,.24,0,.11,0,.21,0,.32,0,.07,0,.12.02.16.09.2.35.51.58.89.72.27.1.54.13.83.13.33,0,.65-.05.95-.18.34-.15.61-.38.77-.72.06-.14.09-.3.11-.45.04-.26.02-.51.03-.77,0,0,0-.02-.02-.04-.02.02-.04.03-.05.04-.15.17-.32.31-.5.43-.26.17-.55.27-.86.34-.21.05-.43.05-.64.04-.29-.02-.57-.09-.83-.2-.2-.09-.4-.19-.56-.33-.18-.15-.35-.32-.49-.52-.2-.29-.32-.61-.37-.95-.04-.24-.04-.48-.01-.72.03-.25.09-.49.2-.72.11-.24.24-.46.43-.65.1-.1.21-.21.33-.3.28-.22.59-.36.93-.45.23-.06.47-.08.7-.06.32.02.62.09.9.23.19.1.36.22.52.36.09.08.16.16.25.24.03.02.04.07.09.05Zm-3.73,1.61c-.02.32.04.61.19.88.14.27.34.48.6.64.3.19.63.27.97.29.2.01.39,0,.59-.04.39-.08.72-.26.98-.56.26-.3.38-.65.42-1.04.02-.24,0-.48-.06-.71-.11-.43-.34-.77-.7-1.02-.42-.29-.89-.4-1.39-.33-.26.04-.51.13-.74.27-.29.18-.51.42-.67.72-.14.28-.23.57-.2.89Z"></path><path class="cls-1" d="m78.64,2.81V.12c.08-.02.53-.02.62,0,0,0,0,0,0,0,0,0,0,0,0,0,0,2.17,0,4.35,0,6.52,0,.02,0,.04,0,.06,0,0,0,.01-.02.03-.2,0-.4,0-.61,0v-.8c-.08.08-.15.15-.22.22-.28.29-.62.49-1,.61-.3.09-.62.13-.93.09-.55-.06-1.04-.27-1.44-.67-.16-.16-.31-.33-.43-.52-.15-.25-.26-.52-.31-.8-.03-.2-.07-.4-.06-.6.02-.34.08-.67.23-.98.13-.28.29-.52.51-.74.36-.36.78-.6,1.28-.69.21-.04.41-.05.62-.04.45.03.87.16,1.22.44.16.13.3.29.44.44.02.02.04.04.07.08Zm.05,1.56c-.01-.12-.02-.23-.03-.35-.03-.22-.1-.43-.21-.62-.09-.17-.22-.31-.36-.44-.34-.34-.76-.49-1.24-.52-.14,0-.28.01-.42.04-.47.09-.84.33-1.13.7-.17.22-.29.48-.35.76-.07.29-.07.57,0,.86.07.29.2.56.39.79.08.1.17.19.26.27.15.14.33.21.51.3.2.1.41.14.63.15.27.01.54-.04.79-.15.33-.14.61-.35.82-.65.24-.34.34-.72.34-1.14Z"></path><path class="cls-1" d="m93.21,4.42h-4.28c-.02.15-.01.29.02.42.06.26.15.5.31.71.15.2.32.37.54.49.07.04.14.07.21.12.11.07.24.09.37.12.07.02.14.02.21.02.34.02.66-.05.98-.19.25-.11.47-.27.64-.49.1-.13.19-.27.29-.4.03-.05.07-.06.12-.04.13.07.26.14.39.21.02.01.04.03.07.05-.09.14-.16.27-.25.4-.17.24-.37.44-.61.61-.25.18-.53.3-.84.36-.27.06-.55.07-.82.06-.28-.02-.56-.08-.83-.19-.33-.13-.6-.35-.83-.62-.12-.14-.22-.3-.31-.46-.17-.3-.25-.62-.3-.96-.06-.46.02-.89.2-1.31.13-.31.32-.59.56-.83.34-.34.74-.54,1.21-.62.23-.04.46-.05.69-.04.4.03.79.13,1.13.35.33.22.6.49.8.83.17.29.27.59.31.92.02.12.03.24.04.37,0,.03,0,.05,0,.09Zm-.69-.56s0-.04,0-.06c-.06-.21-.14-.41-.26-.59-.09-.14-.2-.25-.34-.34-.12-.08-.22-.18-.35-.24-.35-.16-.71-.23-1.1-.17-.25.04-.48.11-.69.24-.19.12-.35.27-.48.45-.14.2-.22.42-.31.64,0,.02,0,.04,0,.06h3.52Z"></path><path class="cls-1" d="m93.92,6.2c.13-.15.25-.29.37-.43.02.01.04.02.06.03.11.09.22.19.34.27.23.16.48.24.76.21.35-.05.67-.3.75-.65.03-.15.01-.29-.07-.43-.1-.16-.23-.3-.39-.4-.2-.13-.41-.24-.62-.36-.28-.16-.56-.32-.75-.59-.14-.2-.22-.43-.23-.68-.01-.29.06-.55.22-.79.18-.25.42-.42.72-.49.1-.02.21-.04.31-.04.27-.02.52.05.75.17.24.12.44.28.64.46-.09.18-.25.28-.38.43-.04-.03-.09-.06-.13-.09-.15-.1-.29-.21-.45-.29-.19-.1-.41-.12-.62-.05-.22.07-.38.23-.46.45-.07.19-.03.37.08.53.13.18.31.31.5.42.19.11.38.21.57.32.26.15.5.32.68.57.11.15.17.31.2.49.05.29.01.57-.11.83-.19.39-.5.64-.91.76-.31.08-.62.07-.93-.03-.29-.09-.54-.23-.76-.44-.05-.05-.1-.11-.14-.16Z"></path><path class="cls-1" d="m98.38,6.75V2.51h-.83c0-.18,0-.34,0-.51.03-.04.07-.04.11-.04.19,0,.39,0,.58,0,.04,0,.08,0,.13,0V.22c.1-.04.55-.03.64,0v1.73c.32,0,.63,0,.95,0,0,.03.02.06.02.09,0,.15.01.3,0,.46h-.96s0,.06,0,.09c0,1.34,0,2.68,0,4.02,0,.04,0,.09-.01.14h-.62Z"></path><path class="cls-1" d="m81.2,6.75h-.61c0-.8,0-1.59,0-2.39,0-.8.02-1.59-.02-2.38.08-.03.46-.04.62-.02,0,0,0,0,0,0,0,0,0,0,0,0,0,.01,0,.02,0,.03,0,1.57,0,3.14,0,4.71,0,0,0,.02,0,.04Z"></path><path class="cls-1" d="m81.41.51c0,.26-.18.51-.51.51-.3,0-.5-.2-.51-.5,0-.26.17-.51.5-.51.31,0,.52.22.51.51Z"></path><path class="cls-1" d="m21.49,1.81s.1,0,.14.01c-.05,0-.1,0-.14-.01Z"></path><path class="cls-1" d="m14.05,1.82s.07,0,.11,0c-.04,0-.07,0-.11,0Z"></path><path class="cls-1" d="m70.4,4.34s.07,0,.1,0c-.03,0-.07,0-.1,0Z"></path><path class="cls-1" d="m14.09,4.35s.04,0,.06,0c-.02,0-.04,0-.06,0Z"></path><path class="cls-1" d="m44.61,6.81s.03,0,.04,0c-.01,0-.03,0-.04,0Z"></path><path class="cls-1" d="m46.96,1.99v-.03s0,.02,0,.03Z"></path><path class="cls-1" d="m70.97,6.81s.03,0,.04,0c-.01,0-.03,0-.04,0Z"></path><path class="cls-1" d="m7.72,6.81s.03,0,.04,0c-.01,0-.03,0-.04,0Z"></path><path class="cls-1" d="m58.13,4.69s.03,0,.04,0c-.01,0-.03,0-.04,0Z"></path><path class="cls-1" d="m70.76,6.84s.03,0,.04,0c-.01,0-.03,0-.04,0Z"></path><path class="cls-1" d="m64.78,4.34s.01,0,.02,0c0,0-.01,0-.02,0Z"></path><path class="cls-1" d="m64.87,4.34s.01,0,.02,0c0,0-.01,0-.02,0Z"></path><path class="cls-1" d="m64.95,4.34s.01,0,.02,0c0,0-.01,0-.02,0Z"></path><path class="cls-1" d="m65.04,4.34s.01,0,.02,0c0,0-.01,0-.02,0Z"></path><path class="cls-1" d="m65.12,4.34s.01,0,.02,0c0,0-.01,0-.02,0Z"></path><path class="cls-1" d="m65.29,4.34s.01,0,.02,0c0,0-.01,0-.02,0Z"></path><path class="cls-1" d="m65.38,4.34s.01,0,.02,0c0,0-.01,0-.02,0Z"></path><path class="cls-1" d="m65.46,4.34s.01,0,.02,0c0,0-.01,0-.02,0Z"></path><path class="cls-1" d="m65.55,4.34s.01,0,.02,0c0,0-.01,0-.02,0Z"></path><path class="cls-1" d="m65.63,4.34s.01,0,.02,0c0,0-.01,0-.02,0Z"></path><path class="cls-1" d="m65.72,4.34s.01,0,.02,0c0,0-.01,0-.02,0Z"></path><path class="cls-1" d="m65.8,4.34s.01,0,.02,0c0,0-.01,0-.02,0Z"></path><path class="cls-1" d="m65.89,4.34s.01,0,.02,0c0,0-.01,0-.02,0Z"></path><path class="cls-1" d="m65.97,4.34s.01,0,.02,0c0,0-.01,0-.02,0Z"></path><path class="cls-1" d="m66.06,4.34s.01,0,.02,0c0,0-.01,0-.02,0Z"></path><path class="cls-1" d="m66.14,4.34s.01,0,.02,0h-.02Z"></path><path class="cls-1" d="m66.23,4.34s.01,0,.02,0h-.02Z"></path><path class="cls-1" d="m66.31,4.34s.01,0,.02,0c0,0-.01,0-.02,0Z"></path><path class="cls-1" d="m66.4,4.34s.01,0,.02,0c0,0-.01,0-.02,0Z"></path><path class="cls-1" d="m66.48,4.34s.01,0,.02,0h-.02Z"></path><path class="cls-1" d="m66.57,4.34s.01,0,.02,0c0,0-.01,0-.02,0Z"></path><path class="cls-1" d="m66.65,4.34s.01,0,.02,0c0,0-.01,0-.02,0Z"></path><path class="cls-1" d="m66.74,4.34s.01,0,.02,0c0,0-.01,0-.02,0Z"></path><path class="cls-1" d="m66.82,4.34s.01,0,.02,0c0,0-.01,0-.02,0Z"></path><path class="cls-1" d="m66.91,4.34s.01,0,.02,0c0,0-.01,0-.02,0Z"></path><path class="cls-1" d="m66.99,4.34s.01,0,.02,0c0,0-.01,0-.02,0Z"></path><path class="cls-1" d="m67.08,4.34s.01,0,.02,0c0,0-.01,0-.02,0Z"></path><path class="cls-1" d="m67.16,4.34s.01,0,.02,0c0,0-.01,0-.02,0Z"></path><path class="cls-1" d="m67.25,4.34s.01,0,.02,0c0,0-.01,0-.02,0Z"></path><path class="cls-1" d="m67.33,4.34s.01,0,.02,0c0,0-.01,0-.02,0Z"></path><path class="cls-1" d="m67.42,4.34s.01,0,.02,0c0,0-.01,0-.02,0Z"></path><path class="cls-1" d="m67.5,4.34s.01,0,.02,0c0,0-.01,0-.02,0Z"></path><path class="cls-1" d="m67.59,4.34s.01,0,.02,0c0,0-.01,0-.02,0Z"></path><path class="cls-1" d="m67.67,4.34s.01,0,.02,0c0,0-.01,0-.02,0Z"></path><path class="cls-1" d="m67.76,4.34s.01,0,.02,0c0,0-.01,0-.02,0Z"></path><path class="cls-1" d="m67.84,4.34s.01,0,.02,0c0,0-.01,0-.02,0Z"></path><path class="cls-1" d="m67.93,4.34s.01,0,.02,0c0,0-.01,0-.02,0Z"></path><path class="cls-1" d="m68.01,4.34s.01,0,.02,0c0,0-.01,0-.02,0Z"></path><path class="cls-1" d="m68.1,4.34s.01,0,.02,0c0,0-.01,0-.02,0Z"></path><path class="cls-1" d="m68.18,4.34s.01,0,.02,0c0,0-.01,0-.02,0Z"></path><path class="cls-1" d="m68.27,4.34s.01,0,.02,0c0,0-.01,0-.02,0Z"></path><path class="cls-1" d="m68.35,4.34s.01,0,.02,0c0,0-.01,0-.02,0Z"></path><path class="cls-1" d="m68.44,4.34s.01,0,.02,0c0,0-.01,0-.02,0Z"></path><path class="cls-1" d="m68.52,4.34s.01,0,.02,0h-.02Z"></path><path class="cls-1" d="m68.61,4.34s.01,0,.02,0c0,0-.01,0-.02,0Z"></path><path class="cls-1" d="m68.69,4.34s.01,0,.02,0c0,0-.01,0-.02,0Z"></path><path class="cls-1" d="m68.78,4.34s.01,0,.02,0h-.02Z"></path><path class="cls-1" d="m68.86,4.34s.01,0,.02,0c0,0-.01,0-.02,0Z"></path><path class="cls-1" d="m68.95,4.34s.01,0,.02,0c0,0-.01,0-.02,0Z"></path><path class="cls-1" d="m69.03,4.34s.01,0,.02,0c0,0-.01,0-.02,0Z"></path><path class="cls-1" d="m69.12,4.34s.01,0,.02,0c0,0-.01,0-.02,0Z"></path><path class="cls-1" d="m69.2,4.34s.01,0,.02,0c0,0-.01,0-.02,0Z"></path><path class="cls-1" d="m69.29,4.34s.01,0,.02,0c0,0-.01,0-.02,0Z"></path><path class="cls-1" d="m69.37,4.34s.01,0,.02,0c0,0-.01,0-.02,0Z"></path><path class="cls-1" d="m69.46,4.34s.01,0,.02,0c0,0-.01,0-.02,0Z"></path><path class="cls-1" d="m69.54,4.34s.01,0,.02,0c0,0-.01,0-.02,0Z"></path><path class="cls-1" d="m69.63,4.34s.01,0,.02,0c0,0-.01,0-.02,0Z"></path><path class="cls-1" d="m69.71,4.34s.01,0,.02,0c0,0-.01,0-.02,0Z"></path><path class="cls-1" d="m69.8,4.34s.01,0,.02,0c0,0-.01,0-.02,0Z"></path><path class="cls-1" d="m69.88,4.34s.01,0,.02,0c0,0-.01,0-.02,0Z"></path><path class="cls-1" d="m69.97,4.34s.01,0,.02,0h-.02Z"></path><path class="cls-1" d="m70.05,4.34s.01,0,.02,0c0,0-.01,0-.02,0Z"></path><path class="cls-1" d="m70.14,4.34s.01,0,.02,0c0,0-.01,0-.02,0Z"></path><path class="cls-1" d="m70.22,4.34s.01,0,.02,0c0,0-.01,0-.02,0Z"></path><path class="cls-1" d="m70.31,4.34s.01,0,.02,0c0,0-.01,0-.02,0Z"></path><path class="cls-1" d="m46.98,5.03s0-.01,0-.02c0,0,0,0,0,.01,0,0,0,0,0,0Z"></path><path class="cls-1" d="m64.38,4.33s0,0,.01,0c0,0,0,0,0,0,0,0,0,0,0,0Z"></path><path class="cls-1" d="m7.38,1.85s0,0,0,0h0Z"></path><path class="cls-1" d="m7.32,1.83s0,0,.01,0h0s0,0,0,0Z"></path><path class="cls-1" d="m7.51,6.83s.01,0,.02,0h0s0,0,0,0Z"></path><path class="cls-1" d="m44.3,6.84s0,0,.01,0h0s0,0,0,0Z"></path><path class="cls-1" d="m65.21,4.34s.01,0,.02,0c0,0-.01,0-.02,0Z"></path><path class="cls-1" d="m38.46,1.83s-.09.01-.14.02c.05,0,.09-.01.14-.02Z"></path><path class="cls-1" d="m37.75,4.83s0,.02.01.04c0-.01,0-.02-.01-.04Z"></path></svg> 