<?xml version="1.0" encoding="UTF-8"?> <svg xmlns="http://www.w3.org/2000/svg" id="Emblem" width="1.39in" height=".28in" viewBox="0 0 100 20.15"><defs><style>.cls-1{fill:#040203;}.cls-2{fill:#010101;}.cls-3{fill:#030202;}.cls-4{fill:#050404;}.cls-5{fill:#ffd800;}.cls-6{fill:#3a357e;}</style></defs><path class="cls-2" d="m19.47,4.94l-1.04.02c-.41.02-.57.06-.68.23-.06.1-.1.2-.12.27s-.04.08-.08.08-.06-.04-.06-.12c0-.12.12-.8.14-.86.02-.1.04-.14.08-.14.06,0,.12.08.31.08.2.02.47.04.7.04h2.74c.45,0,.61-.08.68-.08.04,0,.06.04.06.16,0,.16-.02.68-.02.86,0,.08-.02.12-.06.12-.06,0-.06-.04-.08-.14v-.08c-.02-.18-.2-.41-.82-.41l-.88-.02v3.07c0,.7,0,1.27.04,1.6.02.2.06.37.27.41.1.02.25.02.35.02.08,0,.1.02.1.06,0,.06-.06.08-.12.08-.45,0-.9-.02-1.08-.02-.16,0-.59.02-.88.02-.08,0-.14-.02-.14-.08,0-.04.02-.06.1-.06.1,0,.18-.02.25-.02.14-.02.18-.18.2-.41.04-.31.04-.9.04-1.6v-3.07"></path><path class="cls-2" d="m36.36,10.08c-.1-.06-.12-.08-.12-.25,0-.41.02-.86.04-.98,0-.1.02-.18.08-.18s.06.06.06.12c0,.1.02.25.06.39.14.55.55.76,1,.76.63,0,.94-.45.94-.86,0-.37-.1-.72-.68-1.19l-.33-.27c-.76-.63-1.02-1.17-1.02-1.78,0-.82.63-1.41,1.6-1.41.45,0,.74.08.92.12.06.02.1.04.1.08,0,.1-.02.31-.02.9,0,.16-.02.23-.08.23-.04,0-.06-.04-.06-.14,0-.06-.04-.31-.18-.49-.1-.14-.31-.37-.76-.37-.51,0-.82.33-.82.78,0,.35.16.61.74,1.08l.2.16c.84.7,1.15,1.19,1.15,1.9,0,.43-.14.94-.65,1.31-.35.25-.74.31-1.1.31-.45-.02-.76-.08-1.06-.23"></path><path class="cls-2" d="m66.42,8.21s-.04.02-.06.06l-.37,1.06c-.06.18-.1.37-.1.45,0,.14.06.23.29.23h.1c.08,0,.1.02.1.06,0,.06-.04.08-.12.08-.23,0-.51-.02-.74-.02-.08,0-.45.02-.82.02-.08,0-.12-.02-.12-.08,0-.04.02-.06.08-.06s.16,0,.23-.02c.33-.04.45-.31.59-.68l1.74-4.69c.08-.23.12-.31.2-.31.06,0,.1.06.16.25.16.41,1.27,3.46,1.72,4.6.27.68.47.78.61.82.1.02.2.02.29.02.06,0,.08,0,.08.06s-.06.08-.33.08c-.25,0-.76,0-1.31-.02-.12,0-.2,0-.2-.06,0-.04.02-.06.1-.06.04-.02.1-.08.06-.16l-.55-1.58s-.04-.06-.06-.06h-1.58m1.43-.37s.04-.02.04-.04l-.63-1.84s-.02-.06-.04-.06-.04.04-.04.06l-.63,1.84s0,.06.02.06h1.29v-.02Z"></path><path class="cls-6" d="m19.54,15.55v-2.21h-.68l.02-.21h1.57l-.02.21h-.66v2.21h-.22Z"></path><path class="cls-6" d="m21.18,14.02c.18-.13.36-.2.53-.21.14,0,.25.02.33.05.08.03.14.08.19.15.05.06.07.15.07.27v1.27h-.22v-1.21c0-.09-.02-.15-.06-.2-.07-.08-.19-.13-.34-.13-.15,0-.31.06-.49.15v1.39h-.22v-2.58l.22-.02v1.06Z"></path><path class="cls-6" d="m23.03,14.76c0,.41.19.61.58.61.16,0,.31-.02.45-.07.03-.01.06-.02.07-.03l.05.18c-.08.05-.23.08-.44.1-.06,0-.12,0-.19,0-.19,0-.36-.05-.48-.15-.18-.13-.27-.35-.27-.66s.08-.54.24-.71c.16-.16.35-.25.58-.25s.4.07.52.22c.09.12.13.27.13.47,0,.05,0,.09,0,.15h-1.23s0,.04,0,.06v.06Zm.61-.73c-.14,0-.27.04-.37.13-.1.09-.17.2-.21.33h1.01c-.01-.26-.11-.4-.3-.45-.04-.01-.09-.02-.13-.02Z"></path><path class="cls-6" d="m28.06,15.22l.57-2.08h.22l-.71,2.42h-.21l-.52-2.06-.57,2.06h-.21l-.62-2.42h.22l.53,2.07.57-2.07h.19l.54,2.08Z"></path><path class="cls-6" d="m29.16,15.11c-.04-.11-.06-.24-.06-.39,0-.28.08-.51.24-.67.16-.16.36-.24.6-.24.38,0,.62.15.74.46.04.11.07.24.07.39,0,.28-.08.51-.24.67-.16.16-.36.24-.6.24-.38,0-.62-.15-.74-.46Zm.16-.41c0,.21.05.38.16.49.11.12.25.17.42.17s.32-.06.43-.18.17-.29.17-.5-.05-.38-.16-.49c-.11-.12-.25-.17-.42-.17s-.32.06-.43.18-.17.29-.17.5Z"></path><path class="cls-6" d="m32.14,14.07s-.08-.03-.12-.03-.06,0-.07,0c-.09,0-.18.03-.26.1-.09.06-.16.13-.23.21v1.21h-.22v-1.73l.22-.02v.39c.09-.11.16-.18.22-.23.11-.08.22-.13.32-.13.01,0,.04,0,.08,0s.09,0,.16.03l-.09.21Z"></path><path class="cls-6" d="m32.65,15.55v-2.58l.22-.02v2.59h-.22Z"></path><path class="cls-6" d="m34.26,13.81c.14,0,.27.04.39.12v-.95l.22-.02v2.51h-.02c-.07.03-.19.05-.36.07-.17.02-.28.02-.35.02-.19,0-.35-.05-.48-.15-.18-.13-.27-.35-.27-.66s.08-.54.25-.71c.16-.16.37-.25.61-.25Zm.39.27c-.12-.04-.23-.07-.34-.07-.21,0-.38.06-.5.19s-.18.31-.18.55.07.4.2.5c.09.07.21.11.36.11s.3-.01.47-.03v-1.26Z"></path><path class="cls-6" d="m35.45,13.49v-.16s0-.13,0-.13c0-.05,0-.09,0-.12h.15c0,.11,0,.21-.02.28-.01.07-.02.11-.02.12h-.12Z"></path><path class="cls-6" d="m37.2,14.05c-.08-.03-.2-.04-.34-.04s-.25.03-.33.08-.12.11-.12.19.02.13.07.16.1.06.17.09c.07.02.14.05.23.07.08.02.16.05.23.09.16.08.24.21.24.37s-.06.29-.17.38c-.11.09-.27.13-.49.13-.11,0-.21-.01-.31-.03-.1-.02-.18-.05-.23-.09l.08-.18c.05.05.16.08.32.1.05,0,.1.01.16.01.12,0,.22-.02.3-.07.08-.05.12-.13.12-.23,0-.07-.02-.12-.07-.16-.05-.04-.1-.07-.17-.1-.07-.03-.14-.05-.23-.07-.08-.02-.16-.05-.23-.08-.07-.03-.13-.08-.17-.13-.05-.05-.07-.13-.07-.22,0-.15.06-.27.17-.36.12-.09.27-.13.46-.13.05,0,.1,0,.15,0,.05,0,.1.01.14.02l.15.02-.06.19Z"></path><path class="cls-6" d="m39.23,15.55v-2.42h.5c.28,0,.49.05.62.14.15.1.22.28.22.53,0,.42-.16.68-.48.77-.1.03-.22.05-.35.05h-.27v.94h-.24Zm.24-2.23v1.1h.25c.21,0,.36-.05.46-.14.1-.09.15-.24.15-.45s-.05-.34-.15-.41-.26-.1-.46-.1h-.25Z"></path><path class="cls-6" d="m41.98,14.07s-.08-.03-.12-.03-.06,0-.07,0c-.09,0-.18.03-.26.1-.09.06-.16.13-.23.21v1.21h-.22v-1.73l.22-.02v.39c.09-.11.16-.18.22-.23.11-.08.22-.13.32-.13.01,0,.04,0,.08,0s.09,0,.16.03l-.09.21Z"></path><path class="cls-6" d="m42.51,14.76c0,.41.19.61.58.61.16,0,.31-.02.45-.07.03-.01.06-.02.07-.03l.05.18c-.08.05-.23.08-.44.1-.06,0-.12,0-.19,0-.19,0-.36-.05-.48-.15-.18-.13-.27-.35-.27-.66s.08-.54.24-.71c.16-.16.35-.25.58-.25s.4.07.52.22c.09.12.13.27.13.47,0,.05,0,.09,0,.15h-1.23s0,.04,0,.06v.06Zm.61-.73c-.14,0-.27.04-.37.13-.1.09-.17.2-.21.33h1.01c-.01-.26-.11-.4-.3-.45-.04-.01-.09-.02-.13-.02Z"></path><path class="cls-6" d="m44.91,14.02c-.13,0-.27.05-.42.13v1.41h-.22v-1.73l.22-.02v.19c.15-.12.3-.18.45-.19.24,0,.41.06.5.18.18-.12.34-.18.51-.18.14,0,.25.02.33.05.08.03.14.08.19.15.05.06.07.15.07.27v1.27h-.22v-1.21c0-.09-.02-.15-.06-.2-.07-.08-.17-.13-.3-.13-.14,0-.29.04-.44.12.01.05.02.09.02.14v1.27h-.22v-1.21c0-.09-.02-.15-.06-.2-.07-.08-.19-.13-.34-.13Z"></path><path class="cls-6" d="m47.38,13.36s-.08-.01-.11-.04c-.02-.03-.04-.07-.04-.11s.01-.08.04-.11c.03-.03.06-.04.11-.04s.08.01.11.04c.03.03.04.07.04.12s-.02.09-.05.11c-.03.03-.07.04-.12.04Zm.12.45v1.75h-.22v-1.73l.22-.02Z"></path><path class="cls-6" d="m48.32,14.76c0,.41.19.61.58.61.16,0,.31-.02.45-.07.03-.01.06-.02.07-.03l.05.18c-.08.05-.23.08-.44.1-.06,0-.12,0-.19,0-.19,0-.35-.05-.48-.15-.18-.13-.27-.35-.27-.66s.08-.54.24-.71c.16-.16.35-.25.58-.25s.4.07.52.22c.09.12.13.27.13.47,0,.05,0,.09,0,.15h-1.23s0,.04,0,.06v.06Zm.61-.73c-.14,0-.27.04-.37.13-.1.09-.17.2-.21.33h1.01c-.01-.26-.11-.4-.3-.45-.04-.01-.09-.02-.13-.02Z"></path><path class="cls-6" d="m50.98,14.07s-.08-.03-.12-.03-.06,0-.07,0c-.09,0-.18.03-.26.1-.09.06-.16.13-.23.21v1.21h-.22v-1.73l.22-.02v.39c.09-.11.16-.18.22-.23.11-.08.22-.13.32-.13.01,0,.04,0,.08,0s.09,0,.16.03l-.09.21Z"></path><path class="cls-6" d="m53.81,14.16c.26.09.38.31.38.64,0,.17-.02.3-.06.39s-.09.16-.16.22c-.13.09-.34.14-.62.14h-.57v-2.42h.52c.36,0,.59.09.69.28.03.06.05.14.05.24s-.02.19-.07.28-.1.18-.17.23Zm-.17-.04c.11-.15.17-.29.17-.44s-.05-.24-.13-.29c-.09-.05-.22-.07-.39-.07h-.27v.79h.42c.07,0,.14,0,.2.01Zm-.62.18v1.07h.32c.21,0,.37-.03.45-.09.11-.07.17-.21.17-.43,0-.29-.1-.46-.3-.52-.07-.02-.14-.03-.23-.03h-.4Z"></path><path class="cls-6" d="m55.16,15.33c.05.02.13.03.24.03s.25-.05.43-.13v-1.4l.22-.02v1.75h-.22v-.19c-.17.13-.34.2-.52.2-.22,0-.38-.07-.48-.2-.05-.06-.08-.15-.08-.27v-1.27l.22-.02v1.23c0,.14.06.24.18.29Z"></path><path class="cls-6" d="m57.69,14.05c-.08-.03-.2-.04-.34-.04s-.25.03-.33.08c-.08.05-.12.11-.12.19s.02.13.07.16.1.06.17.09c.07.02.14.05.23.07.08.02.16.05.23.09.16.08.24.21.24.37s-.06.29-.17.38c-.11.09-.27.13-.49.13-.11,0-.21-.01-.31-.03-.1-.02-.18-.05-.23-.09l.08-.18c.05.05.16.08.32.1.05,0,.1.01.16.01.12,0,.22-.02.3-.07.08-.05.12-.13.12-.23,0-.07-.02-.12-.07-.16-.05-.04-.1-.07-.17-.1-.07-.03-.14-.05-.23-.07-.08-.02-.16-.05-.23-.08-.07-.03-.13-.08-.17-.13-.05-.05-.07-.13-.07-.22,0-.15.06-.27.17-.36.12-.09.27-.13.46-.13.05,0,.1,0,.15,0,.05,0,.1.01.14.02l.15.02-.06.19Z"></path><path class="cls-6" d="m58.5,13.36s-.08-.01-.11-.04c-.02-.03-.04-.07-.04-.11s.01-.08.04-.11c.03-.03.06-.04.11-.04s.08.01.11.04.04.07.04.12-.02.09-.05.11c-.03.03-.07.04-.12.04Zm.12.45v1.75h-.22v-1.73l.22-.02Z"></path><path class="cls-6" d="m59.51,14.02c.17-.13.34-.19.49-.2.14,0,.25.02.33.05.08.03.14.08.19.15.05.06.07.15.07.27v1.27h-.22v-1.21c0-.09-.02-.15-.06-.2-.07-.08-.19-.13-.34-.13-.15,0-.3.05-.46.14v1.4h-.22v-1.73l.22-.02v.21Z"></path><path class="cls-6" d="m61.43,14.76c0,.41.19.61.58.61.16,0,.31-.02.45-.07.03-.01.06-.02.07-.03l.05.18c-.08.05-.23.08-.44.1-.06,0-.12,0-.19,0-.19,0-.35-.05-.48-.15-.18-.13-.27-.35-.27-.66s.08-.54.24-.71c.16-.16.35-.25.58-.25s.4.07.52.22c.09.12.13.27.13.47,0,.05,0,.09,0,.15h-1.23s0,.04,0,.06v.06Zm.61-.73c-.14,0-.27.04-.37.13-.1.09-.17.2-.21.33h1.01c-.01-.26-.11-.4-.3-.45-.04-.01-.09-.02-.13-.02Z"></path><path class="cls-6" d="m64.2,14.05c-.08-.03-.2-.04-.34-.04s-.25.03-.33.08c-.08.05-.12.11-.12.19s.02.13.07.16.1.06.17.09c.07.02.14.05.23.07.08.02.16.05.23.09.16.08.24.21.24.37s-.06.29-.17.38c-.11.09-.27.13-.49.13-.11,0-.21-.01-.31-.03-.1-.02-.18-.05-.23-.09l.08-.18c.05.05.16.08.32.1.05,0,.1.01.16.01.12,0,.22-.02.3-.07.08-.05.12-.13.12-.23,0-.07-.02-.12-.07-.16-.05-.04-.1-.07-.17-.1-.07-.03-.14-.05-.23-.07-.08-.02-.16-.05-.23-.08-.07-.03-.13-.08-.17-.13-.05-.05-.07-.13-.07-.22,0-.15.06-.27.17-.36.12-.09.27-.13.46-.13.05,0,.1,0,.15,0,.05,0,.1.01.14.02l.15.02-.06.19Z"></path><path class="cls-6" d="m65.83,14.05c-.08-.03-.2-.04-.34-.04s-.25.03-.33.08c-.08.05-.12.11-.12.19s.02.13.07.16.1.06.17.09c.07.02.14.05.23.07.08.02.16.05.23.09.16.08.24.21.24.37s-.06.29-.17.38c-.11.09-.27.13-.49.13-.11,0-.21-.01-.31-.03-.1-.02-.18-.05-.23-.09l.08-.18c.05.05.16.08.32.1.05,0,.1.01.16.01.12,0,.22-.02.3-.07.08-.05.12-.13.12-.23,0-.07-.02-.12-.07-.16-.05-.04-.1-.07-.17-.1-.07-.03-.14-.05-.23-.07-.08-.02-.16-.05-.23-.08-.07-.03-.13-.08-.17-.13-.05-.05-.07-.13-.07-.22,0-.15.06-.27.17-.36.12-.09.27-.13.46-.13.05,0,.1,0,.15,0,.05,0,.1.01.14.02l.15.02-.06.19Z"></path><path class="cls-6" d="m69.25,14.91h-1.07l-.22.64h-.22l.87-2.42h.21l.91,2.42h-.25l-.23-.64Zm-1.01-.17h.94l-.48-1.35-.46,1.35Z"></path><path class="cls-6" d="m71.22,14.16l-.46,1.39h-.21l-.57-1.73.25-.02.44,1.46.45-1.45.22-.02.39,1.47.51-1.45.27-.02-.66,1.75h-.21l-.41-1.39Z"></path><path class="cls-6" d="m72.92,14.01c.25-.12.47-.19.66-.2.15,0,.27.02.35.06.08.04.15.09.2.16.05.07.08.16.08.29v1.24h-.22v-.13c-.32.1-.52.15-.61.15h-.01c-.21,0-.35-.06-.43-.19-.03-.05-.04-.09-.05-.13,0-.04,0-.08,0-.11,0-.08.03-.16.1-.22.06-.07.14-.11.23-.13.15-.04.41-.07.77-.1v-.28c0-.25-.13-.38-.39-.38-.18,0-.38.05-.6.16l-.06-.17Zm.17,1.15c0,.17.11.25.34.25.18,0,.36-.04.54-.12v-.49c-.36.05-.58.09-.67.12-.15.05-.22.13-.22.25Z"></path><path class="cls-6" d="m75.67,14.07s-.08-.03-.12-.03-.06,0-.07,0c-.09,0-.18.03-.26.1-.09.06-.16.13-.23.21v1.21h-.22v-1.73l.22-.02v.39c.09-.11.16-.18.22-.23.11-.08.22-.13.32-.13.01,0,.04,0,.08,0s.09,0,.16.03l-.09.21Z"></path><path class="cls-6" d="m76.89,13.81c.14,0,.27.04.39.12v-.95l.22-.02v2.51h-.02c-.07.03-.19.05-.36.07s-.28.02-.35.02c-.19,0-.35-.05-.48-.15-.18-.13-.27-.35-.27-.66s.08-.54.25-.71.37-.25.61-.25Zm.39.27c-.12-.04-.23-.07-.34-.07-.21,0-.38.06-.5.19s-.18.31-.18.55.07.4.2.5c.09.07.21.11.36.11s.3-.01.47-.03v-1.26Z"></path><path class="cls-6" d="m80.8,13.39c-.12-.05-.24-.07-.37-.07-.26,0-.47.1-.63.29-.16.19-.24.47-.24.84s.08.63.25.77c.12.1.28.16.48.16.13,0,.26-.01.4-.04.13-.03.22-.06.27-.09l.05.17c-.1.07-.28.11-.53.14-.07,0-.15.01-.23.01s-.18-.01-.29-.04-.21-.08-.31-.16c-.21-.18-.32-.49-.32-.91s.1-.75.3-.98c.2-.23.46-.35.79-.35.18,0,.33.04.46.11.05.03.09.05.11.08v.5h-.17s-.02-.43-.02-.43Z"></path><path class="cls-6" d="m81.43,15.11c-.04-.11-.06-.24-.06-.39,0-.28.08-.51.24-.67.16-.16.36-.24.6-.24.38,0,.62.15.74.46.04.11.07.24.07.39,0,.28-.08.51-.24.67-.16.16-.36.24-.6.24-.38,0-.62-.15-.74-.46Zm.16-.41c0,.21.05.38.16.49s.25.17.42.17.32-.06.43-.18.17-.29.17-.5-.05-.38-.16-.49c-.11-.12-.25-.17-.42-.17s-.32.06-.43.18c-.12.12-.17.29-.17.5Z"></path><path class="cls-6" d="m84.15,14.02c-.13,0-.27.05-.42.13v1.41h-.22v-1.73l.22-.02v.19c.15-.12.3-.18.45-.19.24,0,.41.06.5.18.18-.12.34-.18.51-.18.14,0,.25.02.33.05.08.03.14.08.19.15.05.06.07.15.07.27v1.27h-.22v-1.21c0-.09-.02-.15-.06-.2-.07-.08-.17-.13-.3-.13-.14,0-.29.04-.44.12.01.05.02.09.02.14v1.27h-.22v-1.21c0-.09-.02-.15-.06-.2-.07-.08-.19-.13-.34-.13Z"></path><path class="cls-6" d="m87.35,15.48c-.09.04-.17.06-.24.06-.07,0-.13,0-.2,0s-.13,0-.21-.02v.86l-.22.02v-2.5c.05-.02.13-.04.23-.07.1-.03.22-.05.34-.05s.22,0,.31.03.17.06.24.11c.17.13.26.36.26.66s-.08.55-.25.71c-.08.08-.16.13-.25.17Zm-.65-.12c.07.02.14.02.22.02.23,0,.4-.07.52-.2.12-.13.18-.32.18-.56s-.06-.41-.19-.52c-.09-.07-.2-.11-.34-.11s-.27.02-.4.06v1.31Z"></path><path class="cls-6" d="m88.55,14.76c0,.41.19.61.58.61.16,0,.31-.02.45-.07.03-.01.06-.02.07-.03l.05.18c-.08.05-.23.08-.44.1-.06,0-.12,0-.19,0-.19,0-.35-.05-.48-.15-.18-.13-.27-.35-.27-.66s.08-.54.24-.71c.16-.16.35-.25.58-.25s.4.07.52.22c.09.12.13.27.13.47,0,.05,0,.09,0,.15h-1.23s0,.04,0,.06v.06Zm.61-.73c-.14,0-.27.04-.37.13-.1.09-.17.2-.21.33h1.01c-.01-.26-.11-.4-.3-.45-.04-.01-.09-.02-.13-.02Z"></path><path class="cls-6" d="m91.07,15.49s-.12.06-.22.06c-.15,0-.25-.04-.31-.12-.09-.09-.13-.2-.13-.35v-1.06h-.19l.03-.2h.16v-.34l.22-.02v.36h.4v.2h-.4v1.12c0,.13.07.2.21.2.06,0,.12-.01.19-.04l.04.19Z"></path><path class="cls-6" d="m91.78,13.36s-.08-.01-.11-.04c-.02-.03-.04-.07-.04-.11s.01-.08.04-.11c.03-.03.06-.04.11-.04s.08.01.11.04.04.07.04.12-.02.09-.05.11c-.03.03-.07.04-.12.04Zm.12.45v1.75h-.22v-1.73l.22-.02Z"></path><path class="cls-6" d="m93.33,15.49s-.12.06-.22.06c-.15,0-.25-.04-.31-.12-.09-.09-.13-.2-.13-.35v-1.06h-.19l.03-.2h.16v-.34l.22-.02v.36h.4v.2h-.4v1.12c0,.13.07.2.21.2.06,0,.12-.01.19-.04l.04.19Z"></path><path class="cls-6" d="m94.03,13.36s-.08-.01-.11-.04c-.02-.03-.04-.07-.04-.11s.01-.08.04-.11c.03-.03.06-.04.11-.04s.08.01.11.04.04.07.04.12-.02.09-.05.11c-.03.03-.07.04-.12.04Zm.12.45v1.75h-.22v-1.73l.22-.02Z"></path><path class="cls-6" d="m94.86,15.11c-.04-.11-.06-.24-.06-.39,0-.28.08-.51.24-.67.16-.16.36-.24.6-.24.38,0,.62.15.74.46.04.11.07.24.07.39,0,.28-.08.51-.24.67-.16.16-.36.24-.6.24-.38,0-.62-.15-.74-.46Zm.16-.41c0,.21.05.38.16.49s.25.17.42.17.32-.06.43-.18.17-.29.17-.5-.05-.38-.16-.49c-.11-.12-.25-.17-.42-.17s-.32.06-.43.18c-.12.12-.17.29-.17.5Z"></path><path class="cls-6" d="m97.15,14.02c.17-.13.34-.19.49-.2.14,0,.25.02.33.05.08.03.14.08.19.15.05.06.07.15.07.27v1.27h-.22v-1.21c0-.09-.02-.15-.06-.2-.07-.08-.19-.13-.34-.13-.15,0-.3.05-.46.14v1.4h-.22v-1.73l.22-.02v.21Z"></path><path class="cls-6" d="m99.85,14.05c-.08-.03-.2-.04-.34-.04s-.25.03-.33.08c-.08.05-.12.11-.12.19s.02.13.07.16.1.06.17.09c.07.02.14.05.23.07.08.02.16.05.23.09.16.08.24.21.24.37s-.06.29-.17.38c-.11.09-.27.13-.49.13-.11,0-.21-.01-.31-.03-.1-.02-.18-.05-.23-.09l.08-.18c.05.05.16.08.32.1.05,0,.1.01.16.01.12,0,.22-.02.3-.07.08-.05.12-.13.12-.23,0-.07-.02-.12-.07-.16-.05-.04-.1-.07-.17-.1-.07-.03-.14-.05-.23-.07-.08-.02-.16-.05-.23-.08-.07-.03-.13-.08-.17-.13-.05-.05-.07-.13-.07-.22,0-.15.06-.27.17-.36.12-.09.27-.13.46-.13.05,0,.1,0,.15,0,.05,0,.1.01.14.02l.15.02-.06.19Z"></path><path class="cls-2" d="m27.13,7.33s.04-.02.04-.05v-.14c0-.98,0-1.18-.02-1.38-.02-.21-.05-.32-.27-.38-.05-.02-.14-.02-.23-.02-.07,0-.11-.02-.11-.05,0-.05.04-.05.13-.05.32,0,.71.02.88.02.14,0,.54-.02.77-.02.09,0,.13.02.13.05,0,.05-.04.05-.11.05-.05,0-.11,0-.18.02-.16.04-.21.14-.23.38-.02.21-.02.39-.02,1.38v1.14c0,.61,0,1.11.04,1.39.02.18.05.32.23.36.09.02.21.02.3.02.07,0,.09.02.09.05,0,.05-.05.07-.13.07-.39,0-.77-.02-.95-.02-.14,0-.52.02-.75.02-.09,0-.13-.02-.13-.07,0-.04.02-.05.09-.05.09,0,.16-.02.21-.02.13-.02.14-.16.18-.36.04-.27.04-.79.04-1.39v-.57s-.02-.04-.04-.04h-2.32s-.04,0-.04.04v.57c0,.61,0,1.11.04,1.39.02.18.05.32.23.36.09.02.21.02.3.02.07,0,.09.02.09.05,0,.05-.05.07-.13.07-.39,0-.77-.02-.95-.02-.14,0-.52.02-.77.02-.07,0-.13-.02-.13-.07,0-.04.02-.05.09-.05.09,0,.16-.02.21-.02.13-.02.14-.16.18-.36.04-.27.04-.79.04-1.39v-1.14c0-.98,0-1.18-.02-1.38-.02-.21-.05-.32-.27-.38-.05-.02-.14-.02-.23-.02-.07,0-.11-.02-.11-.05,0-.05.04-.05.13-.05.32,0,.71.02.88.02.14,0,.54-.02.77-.02.09,0,.13.02.13.05,0,.05-.04.05-.11.05-.05,0-.11,0-.18.02-.16.04-.21.14-.23.38-.02.21-.02.39-.02,1.38v.14s.02.05.04.05h2.41"></path><path class="cls-2" d="m30.37,7.14c0-.98,0-1.18-.02-1.38-.02-.21-.05-.32-.27-.38-.05-.02-.14-.02-.23-.02-.07,0-.11-.02-.11-.05,0-.05.04-.05.13-.05.32,0,.7.02.88.02h1.52c.11-.02.21-.02.27-.04.04,0,.07-.02.09-.02.04,0,.04.02.04.05,0,.05-.04.13-.05.43,0,.07-.02.36-.04.43,0,.04-.02.07-.05.07s-.05-.04-.05-.09,0-.16-.04-.23c-.04-.13-.11-.2-.41-.23-.11-.02-.73-.02-.86-.02-.04,0-.04.02-.04.07v1.64c0,.05,0,.07.04.07.13,0,.84,0,.97-.02.14-.02.23-.04.29-.09.04-.05.07-.09.09-.09s.04.02.04.05-.04.14-.05.48c-.02.13-.02.39-.02.43,0,.05,0,.13-.05.13-.04,0-.05-.02-.05-.05,0-.07,0-.14-.02-.23-.04-.13-.11-.23-.34-.25-.11-.02-.71-.02-.86-.02-.04,0-.04.02-.04.07v1.54c.02.45.11.55.73.55.16,0,.41,0,.57-.07s.23-.21.27-.48c.02-.07.02-.09.07-.09s.05.05.05.13c0,.14-.05.59-.07.73-.04.16-.09.16-.32.16-.91,0-1.32-.04-1.68-.04-.14,0-.52.02-.77.02-.07,0-.13-.02-.13-.07,0-.04.02-.05.09-.05.09,0,.16-.02.21-.02.13-.02.14-.16.18-.36.04-.27.04-.79.04-1.39v-1.25"></path><path class="cls-2" d="m42.02,5.62l-.91.02c-.36.02-.5.05-.59.2-.05.09-.09.18-.11.23s-.04.07-.07.07-.05-.04-.05-.11c0-.11.11-.7.13-.75.02-.09.04-.13.07-.13.05,0,.11.07.27.07.18.02.41.04.61.04h2.39c.2,0,.32-.02.41-.04s.14-.04.16-.04c.04,0,.05.04.05.14,0,.14-.02.59-.02.75,0,.07-.02.11-.05.11-.05,0-.05-.04-.07-.13v-.07c-.02-.16-.18-.36-.71-.36l-.77-.02v2.68c0,.61,0,1.11.04,1.39.02.18.05.32.23.36.09.02.21.02.3.02.07,0,.09.02.09.05,0,.05-.05.07-.11.07-.39,0-.79-.02-.95-.02-.14,0-.52.02-.77.02-.07,0-.13-.02-.13-.07,0-.04.02-.05.09-.05.09,0,.16-.02.21-.02.13-.02.16-.16.18-.36.04-.27.04-.79.04-1.39v-2.68"></path><path class="cls-2" d="m45.92,7.14c0-.98,0-1.18-.02-1.38-.02-.21-.05-.32-.27-.38-.05-.02-.14-.02-.23-.02-.07,0-.11-.02-.11-.05,0-.05.04-.05.13-.05.32,0,.7.02.88.02h1.52c.11-.02.21-.02.27-.04.04,0,.07-.02.09-.02.04,0,.04.02.04.05,0,.05-.04.13-.05.43,0,.07-.02.36-.04.43,0,.04-.02.07-.05.07s-.05-.04-.05-.09,0-.16-.04-.23c-.04-.13-.11-.2-.41-.23-.11-.02-.73-.02-.86-.02-.04,0-.04.02-.04.07v1.64c0,.05,0,.07.04.07.13,0,.84,0,.97-.02.14-.02.23-.04.29-.09.04-.05.07-.09.09-.09s.04.02.04.05-.04.14-.05.48c-.02.13-.02.39-.02.43,0,.05,0,.13-.05.13-.04,0-.05-.02-.05-.05,0-.07,0-.14-.02-.23-.04-.13-.11-.23-.34-.25-.11-.02-.71-.02-.86-.02-.04,0-.04.02-.04.07v1.54c.02.45.11.55.73.55.16,0,.41,0,.57-.07.16-.07.23-.21.27-.48.02-.07.02-.09.07-.09s.05.05.05.13c0,.14-.05.59-.07.73-.04.16-.09.16-.32.16-.91,0-1.32-.04-1.68-.04-.14,0-.52.02-.77.02-.07,0-.13-.02-.13-.07,0-.04.02-.05.09-.05.09,0,.16-.02.21-.02.13-.02.14-.16.18-.36.04-.27.04-.79.04-1.39v-1.25"></path><path class="cls-2" d="m49.79,5.89c-.14-.36-.25-.43-.46-.5-.09-.02-.2-.02-.23-.02-.05,0-.07-.02-.07-.05,0-.05.07-.05.16-.05.32,0,.66.02.88.02.16,0,.45-.02.75-.02.07,0,.14.02.14.05,0,.05-.04.05-.09.05-.09,0-.2,0-.23.05-.04.04-.05.07-.05.14,0,.09.05.27.14.5l1.04,2.97h.02c.27-.71,1.05-2.82,1.2-3.25.04-.09.05-.18.05-.25,0-.05-.02-.11-.07-.13-.07-.02-.16-.04-.25-.04-.05,0-.11,0-.11-.05s.05-.07.18-.07c.3,0,.55.02.64.02.11,0,.39-.02.57-.02.07,0,.13.02.13.05,0,.05-.04.05-.09.05s-.2,0-.3.07c-.07.05-.18.16-.34.59-.23.61-.39.97-.73,1.77-.39.95-.68,1.66-.8,1.98-.16.38-.2.48-.29.48-.07,0-.11-.09-.23-.39l-1.54-3.97"></path><path class="cls-2" d="m55.13,7.14c0-.98,0-1.18-.02-1.38-.02-.21-.07-.34-.21-.36-.07-.02-.14-.02-.21-.02-.05,0-.09-.02-.09-.07,0-.04.05-.05.14-.05.23,0,.61.02.79.02.14,0,.52-.02.73-.02.07,0,.13.02.13.05,0,.05-.04.07-.09.07s-.11,0-.18.02c-.16.04-.21.14-.23.38-.02.21-.02.39-.02,1.38v1.14c0,.63,0,1.14.02,1.43.02.18.05.29.25.32.09.02.21.02.3.02.07,0,.09.02.09.05,0,.05-.05.07-.11.07-.39,0-.79-.02-.95-.02-.14,0-.52.02-.77.02-.07,0-.13-.02-.13-.07,0-.04.02-.05.09-.05.09,0,.16-.02.21-.02.13-.02.16-.14.18-.32.04-.27.04-.79.04-1.43v-1.16"></path><path class="cls-2" d="m58.34,7.14c0-.98,0-1.18-.02-1.38-.02-.21-.05-.32-.27-.38-.05-.02-.14-.02-.23-.02-.07,0-.11-.02-.11-.05,0-.05.04-.05.13-.05.32,0,.7.02.88.02h1.52c.11-.02.21-.02.27-.04.04,0,.07-.02.09-.02.04,0,.04.02.04.05,0,.05-.04.13-.05.43,0,.07-.02.36-.04.43,0,.04-.02.07-.05.07s-.05-.04-.05-.09,0-.16-.04-.23c-.04-.13-.11-.2-.41-.23-.11-.02-.73-.02-.86-.02-.04,0-.04.02-.04.07v1.64c0,.05,0,.07.04.07.13,0,.84,0,.97-.02.14-.02.23-.04.29-.09.04-.05.07-.09.09-.09s.04.02.04.05-.04.14-.05.48c-.02.13-.02.39-.02.43,0,.05,0,.13-.05.13-.04,0-.05-.02-.05-.05,0-.07,0-.14-.02-.23-.04-.13-.11-.23-.34-.25-.11-.02-.71-.02-.86-.02-.04,0-.04.02-.04.07v1.54c.02.45.11.55.73.55.16,0,.41,0,.57-.07.16-.07.23-.21.27-.48.02-.07.02-.09.07-.09s.05.05.05.13c0,.14-.05.59-.07.73-.04.16-.09.16-.32.16-.91,0-1.32-.04-1.68-.04-.14,0-.52.02-.77.02-.07,0-.13-.02-.13-.07,0-.04.02-.05.09-.05.09,0,.16-.02.21-.02.13-.02.14-.16.18-.36.04-.27.04-.79.04-1.39v-1.25"></path><path class="cls-2" d="m70.5,5.89c-.07-.25-.14-.39-.23-.46-.07-.05-.2-.05-.25-.05s-.09,0-.09-.05.05-.05.13-.05c.32,0,.64.02.7.02s.32-.02.68-.02c.09,0,.13.02.13.05,0,.05-.05.05-.11.05s-.11,0-.14.02c-.05.02-.07.07-.07.14,0,.09.05.3.13.61.11.43.66,2.41.77,2.77h.02l1.18-3.4c.07-.18.11-.23.14-.23.07,0,.09.09.18.3l1.27,3.29h.02c.11-.43.59-2.16.8-2.93.04-.14.05-.29.05-.38,0-.11-.05-.2-.29-.2-.05,0-.11-.02-.11-.05,0-.05.05-.05.14-.05.32,0,.57.02.63.02.04,0,.3-.02.5-.02.07,0,.11.02.11.05,0,.05-.04.07-.09.07s-.14,0-.21.04c-.14.05-.21.32-.34.7-.29.82-.91,2.9-1.22,3.88-.07.23-.09.3-.18.3-.05,0-.09-.07-.2-.32l-1.27-3.27h-.02c-.11.34-.93,2.64-1.18,3.23-.11.27-.14.34-.21.34-.05,0-.09-.07-.14-.25l-1.22-4.15"></path><path class="cls-2" d="m78.11,8.48s-.04.02-.05.05l-.32.93c-.05.16-.09.32-.09.39,0,.13.05.2.25.2h.09c.07,0,.09.02.09.05,0,.05-.04.07-.11.07-.2,0-.45-.02-.64-.02-.07,0-.39.02-.71.02-.07,0-.11-.02-.11-.07,0-.04.02-.05.07-.05s.14,0,.2-.02c.29-.04.39-.27.52-.59l1.52-4.09c.07-.2.11-.27.18-.27.05,0,.09.05.16.21.14.36,1.11,3.02,1.5,4.02.23.59.41.68.54.71.09.02.18.02.25.02.05,0,.07,0,.07.05s-.05.07-.29.07c-.21,0-.66,0-1.14-.02-.11,0-.18,0-.18-.05,0-.04.02-.05.09-.05.04-.02.09-.07.05-.14l-.48-1.38s-.04-.05-.05-.05h-1.39m1.23-.32s.04-.02.04-.04l-.55-1.61s-.02-.05-.04-.05-.04.04-.04.05l-.55,1.61s0,.05.02.05h1.13v-.02Z"></path><path class="cls-2" d="m82.68,7.14c0-.98,0-1.18-.02-1.38-.02-.21-.05-.32-.27-.38-.05-.02-.14-.02-.23-.02-.07,0-.11-.02-.11-.05,0-.05.04-.05.13-.05.32,0,.7.02.84.02.21,0,.66-.02.86-.02.38,0,.79.04,1.11.29.18.13.41.46.41.89,0,.48-.2.93-.8,1.47.54.73.97,1.3,1.32,1.72.34.38.59.43.68.45.07.02.13.02.18.02s.07.02.07.05c0,.05-.04.07-.11.07h-.57c-.34,0-.5-.04-.64-.13-.27-.14-.48-.46-.84-.97-.25-.36-.52-.8-.61-.89-.04-.04-.07-.05-.11-.05l-.54-.02s-.05.02-.05.05v.09c0,.61,0,1.13.04,1.39.02.2.05.34.23.36.09.02.23.02.3.02.05,0,.07.02.07.05,0,.05-.04.07-.13.07-.36,0-.8-.02-.89-.02-.11,0-.5.02-.73.02-.07,0-.13-.02-.13-.07,0-.04.02-.05.09-.05.09,0,.16-.02.21-.02.13-.02.14-.16.18-.36.04-.27.04-.79.04-1.39v-1.16m.73.52c0,.07.02.09.05.13.13.05.3.07.46.07.25,0,.32-.02.43-.11.18-.14.36-.45.36-.98,0-.93-.57-1.2-.93-1.2-.16,0-.27,0-.32.02-.04.02-.05.04-.05.09v1.98Z"></path><path class="cls-2" d="m87.9,7.14c0-.98,0-1.18-.02-1.38-.02-.21-.05-.32-.27-.38-.05-.02-.14-.02-.23-.02-.07,0-.11-.02-.11-.05,0-.05.04-.05.13-.05.32,0,.7.02.88.02.2,0,.57-.02.93-.02.75,0,1.77,0,2.43.75.3.34.59.88.59,1.66s-.32,1.45-.66,1.82c-.29.3-.91.77-2.04.77-.45,0-.98-.07-1.29-.07-.14,0-.52.02-.77.02-.07,0-.13-.02-.13-.07,0-.04.02-.05.09-.05.09,0,.16-.02.21-.02.13-.02.14-.16.18-.36.04-.27.04-.79.04-1.39v-1.18m.8.73c0,.7,0,1.2.02,1.32,0,.16.02.43.07.5.07.13.32.27.79.27.63,0,1.04-.13,1.39-.46.39-.36.52-.95.52-1.63,0-.82-.32-1.36-.59-1.63-.55-.57-1.25-.66-1.72-.66-.13,0-.34.02-.39.05-.05.02-.07.05-.07.13v2.11h-.02Z"></path><path class="cls-2" d="m93.89,10.1c-.09-.05-.11-.07-.11-.21,0-.36.02-.75.04-.86,0-.09.02-.16.07-.16s.05.05.05.11c0,.09.02.21.05.34.13.48.5.66.88.66.55,0,.82-.39.82-.75,0-.32-.09-.63-.59-1.04l-.29-.23c-.66-.55-.89-1.02-.89-1.55,0-.71.55-1.23,1.39-1.23.39,0,.64.07.8.11.05.02.09.04.09.07,0,.09-.02.27-.02.79,0,.14-.02.2-.07.2-.04,0-.05-.04-.05-.13,0-.05-.04-.27-.16-.43-.09-.13-.27-.32-.66-.32-.45,0-.71.29-.71.68,0,.3.14.54.64.95l.18.14c.73.61,1,1.04,1,1.66,0,.38-.13.82-.57,1.14-.3.21-.64.27-.97.27-.39-.02-.66-.07-.93-.2"></path><path class="cls-2" d="m61.46,5.12c0-.48.39-.84.85-.84s.85.35.85.84-.39.84-.85.84c-.46,0-.85-.35-.85-.84m.85.7c.38,0,.68-.3.68-.7s-.3-.7-.68-.7-.69.3-.69.7c.01.4.31.7.69.7Zm-.18-.21h-.15v-.97h.36c.23,0,.34.09.34.28,0,.18-.11.25-.25.26l.28.43h-.16l-.25-.43h-.16v.43h0Zm.18-.55c.13,0,.24-.01.24-.16,0-.13-.11-.14-.21-.14h-.2v.3h.18Z"></path><path class="cls-5" d="m15.74,16.14c-.67-1.22-1.47-2.31-2.59-3.15.72-.98,1.44-1.94,2.16-2.92C12.82,6.72,10.33,3.36,7.83,0c0,0,0,0,0,0-.01.02-.02.03-.03.04-1,1.34-1.99,2.69-2.99,4.03-1.47,1.98-2.93,3.95-4.4,5.93-.04.06-.05.1,0,.16.46.61.92,1.23,1.37,1.85.25.34.51.68.76,1.03-1.11.83-1.89,1.91-2.55,3.11,1.15.77,2.3,1.53,3.45,2.3,0,0,0,0,0,0,.39-.8.81-1.56,1.54-2.11,0,0,0,0,0,0,.94,1.27,1.89,2.54,2.84,3.82,0,0,0,0,0,0,.96-1.29,1.91-2.57,2.86-3.86,0,0,0,0,0,0,.27.21.51.44.71.7.33.41.58.88.82,1.35.02.03.04.07.06.1,0,0,0,0,0,0,1.16-.77,2.3-1.54,3.45-2.3Z"></path><path class="cls-4" d="m15.74,16.14c-.67-1.22-1.47-2.31-2.59-3.15.72-.98,1.44-1.94,2.16-2.92C12.82,6.72,10.33,3.36,7.83,0c0,0,0,0,0,0-.01.02-.02.03-.03.04-1,1.34-1.99,2.69-2.99,4.03-1.47,1.98-2.93,3.95-4.4,5.93-.04.06-.05.1,0,.16.46.61.92,1.23,1.37,1.85.25.34.51.68.76,1.03-1.11.83-1.89,1.91-2.55,3.11,1.15.77,2.3,1.53,3.45,2.3,0,0,0,0,0,0,.39-.8.81-1.56,1.54-2.11,0,0,0,0,0,0,.94,1.27,1.89,2.54,2.84,3.82,0,0,0,0,0,0,.96-1.29,1.91-2.57,2.86-3.86,0,0,0,0,0,0,.27.21.51.44.71.7.33.41.58.88.82,1.35.02.03.04.07.06.1,0,0,0,0,0,0,1.16-.77,2.3-1.54,3.45-2.3Zm-3.82.73c-.33-.44-.72-.81-1.16-1.12-.05-.04-.08-.03-.12.02-.58.79-2.81,3.79-2.81,3.79,0,0-2.59-3.49-2.78-3.75-.04-.05-.06-.07-.12-.02-.7.5-1.24,1.13-1.62,1.9-.01.02-.02.04-.04.07-.08-.05-.16-.11-.24-.16-.78-.52-2.41-1.6-2.41-1.61.87-1.72,2.48-2.8,2.48-2.8,0,0-.59-.8-.89-1.2-.44-.59-.87-1.18-1.31-1.77,0,0-.01-.02-.02-.03,0,0-.01-.01-.02-.02,0-.01-.01-.02-.02-.03-.01-.02-.02-.05-.03-.07.01-.03.02-.06.04-.09.93-1.25,1.85-2.49,2.78-3.74C5.01,4.38,7.83.59,7.83.59c0,0,.45.61.62.84.67.9,1.34,1.8,2,2.7,1.16,1.56,2.32,3.12,3.48,4.68.24.32.6.81.84,1.14.05.07.1.15-.02.28-.45.6-.89,1.2-1.34,1.8-.28.38-.55.75-.83,1.13,0,0,0,0,0,.01,1.81,1.3,2.53,2.82,2.53,2.82,0,0-1.77,1.18-2.66,1.77-.02-.05-.04-.09-.06-.14-.04-.07-.08-.15-.12-.22-.12-.18-.23-.36-.36-.53Z"></path><path class="cls-1" d="m14.8,15.92s-2.31-4.01-6.97-4.01S.93,15.91.93,15.91c0,0,.75.5,1.04.7.38.26,1.2.8,1.2.8,0,0,1.14-2.8,4.65-2.8s4.71,2.78,4.71,2.78l2.26-1.48Zm-11.44.01c-.12.14-.17.23-.2.26h-.05l-.02-.05s.06-.08.06-.12c.02-.06-.03-.11-.11-.17l-.58-.5s-.06-.02-.11.03c-.09.11-.14.15-.11.24.03.08.09.11.05.15h-.05s-.05-.06-.15-.17c-.05-.05-.06-.05-.02-.09.02-.02.14-.14.35-.38.21-.24.32-.38.33-.39.03-.03.05-.03.08,0,.11.08.17.11.17.12v.05s-.06,0-.11-.02c-.09-.03-.15,0-.26.12-.06.06-.05.09,0,.14l.55.47.02.02c.08.08.12.11.2.08.05-.02.08-.05.11-.06h.05l.02.05s-.11.09-.23.23Zm1.49-1.26s-.11.06-.21.14-.15.14-.2.17h-.05s.03-.08.03-.14c0-.05-.03-.09-.08-.17l-.14-.2s-.05-.05-.09-.02l-.32.24s-.05.05-.02.09l.15.21.02.02c.05.06.08.09.14.09s.11-.06.14-.02v.06s-.11.06-.21.14-.15.14-.2.17h-.05s.03-.08.03-.14c0-.05-.03-.09-.08-.17l-.41-.53c-.05-.08-.09-.11-.14-.11s-.08.02-.11.03l-.03-.02v-.05s.09-.05.2-.14c.11-.08.17-.14.2-.17h.05s-.03.06-.03.11c-.02.05.02.08.06.14l.12.17s.05.05.09.02l.32-.24s.05-.05.02-.09l-.11-.14c-.05-.08-.09-.11-.14-.11s-.08.02-.11.03l-.03-.02v-.05s.08-.05.2-.14.18-.15.2-.15h.05s-.03.06-.03.11c-.02.05.02.08.05.12l.02.03.41.55.02.02c.05.06.08.09.14.09s.11-.06.14-.02v.06Zm.73-.3c-.06.03-.2.08-.38.15-.12.06-.2.11-.24.14l-.05-.02s.05-.08.06-.12c.02-.05-.02-.11-.05-.18l-.26-.61c-.03-.08-.06-.12-.12-.14-.05-.02-.08,0-.11.02l-.03-.02s0-.05.03-.06c.02,0,.09-.03.21-.09.33-.15.52-.26.55-.27s.03,0,.06.03l.08.15.02.03s.02.03-.02.05c-.03.02-.05-.03-.08-.06-.08-.08-.15-.06-.3.02-.11.05-.12.06-.08.17l.09.21c.03.08.05.06.14.03.08-.03.11-.08.12-.14,0-.05-.02-.09.02-.11.02-.02.03,0,.05.02.02.03.03.09.06.15.05.09.08.14.09.17.02.02.02.03-.02.05-.05.02-.05-.03-.08-.06-.06-.05-.12-.05-.23.02-.08.05-.08.06-.03.15l.09.21c.05.11.08.14.15.11.15-.06.23-.17.27-.29.02-.06,0-.09.03-.11.02-.02.03,0,.05.03.02.05.03.11.03.17-.02.11-.05.17-.14.21Zm8.36,1.59l-.17.2.26-.06.03.05-.24.15-.03-.03.15-.09s.05-.03.06-.05l-.26.06-.02-.03.17-.2s-.06.03-.06.05l-.15.09-.02-.03.24-.15.03.05Zm-.24-.3l.02-.02.14.18-.02.03-.06-.09-.21.15-.03-.03.21-.15-.05-.08Zm-6.86-1.65c-.09.02-.18-.02-.29-.02-.05,0-.06,0-.08-.05l-.06-.21-.02-.05s.02-.03.03-.03c.03,0,.03.05.11.12.11.11.21.15.33.14.14-.03.21-.11.18-.23,0-.05-.03-.08-.06-.11-.05-.05-.12-.05-.21-.06-.29-.06-.41-.12-.46-.33-.03-.21.09-.39.29-.43.15-.03.24.03.27.03s.06-.03.08-.03l.03.02v.06c.02.09.05.17.06.21t-.02.03s-.05-.05-.09-.11c-.09-.11-.2-.15-.32-.14-.11.02-.18.11-.17.2.02.11.11.14.26.17.12.02.23.05.29.09.09.06.14.15.17.26.05.24-.09.43-.33.46Zm1.65-1.02s-.05-.05-.06-.09c-.05-.09-.11-.11-.26-.11-.09,0-.11.02-.11.08l-.02.71v.02c0,.11,0,.15.08.2.05.03.08.03.12.03l.03.05s-.02.05-.03.05c-.03,0-.14-.03-.32-.03s-.29.02-.32.02c-.02,0-.03-.02-.03-.05,0-.02.02-.03.03-.05.05-.02.09-.02.14-.03.06-.03.06-.09.06-.2l-.02-.73s-.03-.06-.09-.06c-.15,0-.21,0-.26.08-.05.06-.02.14-.08.14t-.03-.03s.02-.08.03-.23c0-.06,0-.08.06-.08.03,0,.2.02.52.02h.52s.05.02.05.06c.02.12.02.2.02.21t-.03.03Zm1.14.12v.05s-.02.03-.05.03-.02-.05-.03-.09c-.02-.11-.09-.14-.26-.17-.12-.02-.14-.02-.15.09l-.05.23q-.02.08.09.09c.08.02.14,0,.18-.05.03-.03.03-.08.08-.08.03,0,.03.02.03.05,0,.05-.03.09-.03.15-.02.11-.02.17-.02.18,0,.03-.02.03-.03.03-.05-.02-.02-.05-.03-.09-.02-.08-.08-.11-.18-.12-.09-.02-.09,0-.12.11l-.05.23c-.03.12-.03.15.08.18.15.03.29,0,.39-.08.05-.03.06-.08.09-.08.02,0,.03.02.03.05-.02.05-.03.11-.08.15-.08.08-.14.11-.23.09-.08-.02-.2-.06-.41-.09-.14-.03-.23-.03-.27-.03l-.03-.05s.08-.03.12-.06c.03-.03.05-.09.06-.17l.09-.65c.02-.09.02-.14-.02-.18-.03-.03-.06-.05-.09-.06l-.02-.03s.02-.03.05-.03c.02,0,.09.03.23.06.36.08.56.09.59.11.03,0,.03.02.03.06l-.02.17Zm.39,1.23s-.03-.03-.03-.08l-.03-1.06c0-.06,0-.11-.05-.15-.03-.03-.06-.05-.05-.08.02-.02.03-.03.06-.02.03.02.08.05.15.08.11.05.2.06.26.09.03.02.03.03.03.05-.02.02-.02.03-.05.03-.05,0-.08,0-.09.05,0,.02-.02.05-.02.11l.02.65.02.03.03-.02.43-.43s.06-.08.06-.09c.02-.05,0-.09-.05-.14-.05-.03-.08-.05-.06-.08,0-.02.03-.03.05-.02.02,0,.08.05.18.08.08.03.14.05.15.05.03.02.03.03.02.05-.02.03-.05.03-.09.05s-.09.06-.15.12l-.64.62c-.08.08-.12.12-.15.11Zm1.17.5l-.05.02s-.09-.08-.2-.14c-.11-.06-.2-.09-.23-.12l-.02-.05s.08,0,.14-.02c.05-.02.08-.08.12-.14l.33-.53c.05-.08.06-.12.05-.18-.02-.05-.05-.06-.08-.08v-.05l.05-.02s.08.06.21.14c.11.06.18.09.21.11.03.02.03.03.02.05-.02.03-.06,0-.11,0-.05.02-.08.05-.11.11l-.36.61-.02.02c-.03.06-.06.11-.03.15.03.05.09.08.06.12Zm1.05.53s-.08.08-.14.09c-.09.03-.17.03-.24-.03-.06-.05-.15-.15-.3-.27-.11-.09-.18-.14-.21-.15v-.05s.08.02.14,0c.05-.02.09-.05.14-.12l.43-.5c.06-.06.09-.12.08-.17-.02-.05-.03-.06-.06-.09v-.05s.03-.02.06,0c.02.02.06.06.17.15.29.24.46.35.47.38.03.03.02.03,0,.06l-.11.14-.03.03s-.03.03-.05,0c-.03-.03,0-.05.03-.09.05-.11-.02-.17-.15-.27-.09-.08-.11-.08-.18.02l-.15.18q-.05.06.03.14c.06.06.12.08.18.05.05-.02.08-.06.11-.03.02.02.02.03,0,.05-.03.03-.06.06-.11.12-.06.08-.09.14-.11.15l-.05.02s.02-.05.02-.11c.02-.08-.02-.12-.11-.2-.08-.06-.09-.05-.15.03l-.15.18c-.08.09-.09.12-.03.18.12.11.24.14.38.12.06-.02.09-.05.11-.02.02.02.02.03,0,.06Zm.2.64c-.06-.08-.09-.17-.14-.26-.02-.03-.03-.05,0-.09l.12-.17.03-.05.05.02s-.02.06-.05.15c-.05.14-.02.27.06.36.09.11.2.12.29.05.03-.03.06-.06.06-.11.02-.06-.03-.14-.06-.21-.09-.27-.11-.41.06-.56.17-.14.38-.12.52.03.09.12.09.23.12.26.03.03.06.03.08.05v.03s-.03.02-.06.05c-.08.06-.12.14-.15.17h-.05s.02-.06.05-.14c.05-.14.03-.26-.05-.35s-.18-.09-.24-.05c-.09.08-.06.15-.02.3.05.12.08.21.08.3,0,.11-.05.2-.14.27-.18.15-.41.14-.56-.06Z"></path><path class="cls-3" d="m8.74,14.95c0,.18,0,.37,0,.56-.03.63-.23,2.15-.26,2.51l1.79-2.53s-.57-.38-1.53-.54Z"></path><path class="cls-3" d="m7.01,15.5c0-.19,0-.37,0-.55-.98.16-1.61.53-1.61.53l1.87,2.51c-.03-.4-.23-1.88-.26-2.49Z"></path><path class="cls-2" d="m6.19,7.02c.05.23.45,1.57.49,1.76.03.11.05.32.09.49.03.11.23.63.29.79.03.11.17.37.2.4.06.06.08.06.11-.02.02-.05.05-.14.06-.22.02-.11-.02-.17-.03-.23-.05-.18-.09-.34-.06-.62.05-.42.46-.48.46-.48h.12s.42.05.46.48c.03.28-.02.43-.06.62-.02.06-.05.12-.03.23.02.06.05.17.06.22.03.08.05.08.11.02.02-.03.17-.31.2-.4.06-.15.26-.68.29-.79.05-.17.06-.39.09-.49.03-.18.43-1.53.49-1.76.03-.11-.05-.12-.05-.31,0-.14.14-.25.28-.35,0,0,.03-.03.06-.05h-3.94s.05.04.06.05c.14.11.28.22.28.35,0,.18-.08.18-.05.31Z"></path><path class="cls-2" d="m14.2,9.95c-.16-.21-6.37-8.57-6.37-8.57,0,0-5.9,7.96-6.35,8.55-.06.08-.12.15-.04.25.35.46,2.04,2.75,2.04,2.75,0,0,1.22-.94,3.24-1.22,0-.02,0-.03-.01-.05-.05-.22-.52-1.51-.62-1.83-.05-.17-.08-.35-.08-.48s-.05-.39-.08-.72c-.05-.32-.22-1.33-.25-1.46s-.05-.32-.15-.49c-.11-.17-.2-.32-.26-.43-.06-.08-.05-.2-.03-.26,0-.05.03-.08.03-.08.06-.03.14,0,.2.06.01.01.04.04.08.08.57-.84,2.24-3.3,2.26-3.32.02.03,1.76,2.59,2.29,3.37.07-.06.13-.11.15-.13.06-.06.14-.09.2-.06,0,0,.02.03.03.08.02.06.02.17-.03.26-.06.11-.15.26-.26.43-.11.17-.12.35-.15.49s-.22,1.13-.25,1.46c-.05.34-.08.6-.08.72,0,.11-.03.29-.08.48-.09.31-.57,1.6-.62,1.83,0,.02,0,.04-.01.06,1.98.28,3.17,1.18,3.17,1.18,0,0,1.8-2.43,2.05-2.77.02-.04.04-.08-.04-.17Z"></path></svg> 