<?xml version="1.0" encoding="UTF-8"?> <svg xmlns="http://www.w3.org/2000/svg" id="Layer_2" width="100" height="29.98" viewBox="0 0 100 29.98"><defs><style>.cls-1{fill:#3a357e;}</style></defs><path class="cls-1" d="m0,0h8.51l4.39,16.97L17.05,0h7.82l4.15,16.97L33.42,0h8.1l-8.34,29.98h-8.45l-3.99-16.45-3.95,16.45h-8.45L0,0h0Z"></path><polygon class="cls-1" points="66.68 0 62.28 16.97 58.14 0 50.31 0 46.16 16.97 42.31 2.09 38.07 17.3 41.6 29.98 50.05 29.98 54 13.54 57.99 29.98 66.44 29.98 74.78 0 66.68 0"></polygon><path class="cls-1" d="m83.73,0h-7.54l-3.11,11.18v18.8h10.41c9.15,0,16.51-6.6,16.51-15.12S92.89,0,83.73,0h0Zm.08,22.32h-3.04V7.66h3.04c4.62,0,7.9,2.71,7.9,7.33s-3.28,7.33-7.9,7.33h0Z"></path></svg> 