<?xml version="1.0" encoding="UTF-8"?> <svg xmlns="http://www.w3.org/2000/svg" id="Layer_1" width="100" height="22.46" viewBox="0 0 100 22.46"><defs><style>.cls-1{fill:#3a357e;}</style></defs><path class="cls-1" d="m96.26,14.97c-2.07,0-3.74,1.68-3.74,3.74s1.68,3.74,3.74,3.74,3.74-1.68,3.74-3.74-1.68-3.74-3.74-3.74m0,1.87c1.03,0,1.87.84,1.87,1.87s-.84,1.87-1.87,1.87-1.87-.84-1.87-1.87.84-1.87,1.87-1.87"></path><polygon class="cls-1" points="0 .81 13.29 .81 13.29 4.81 4.6 4.81 4.6 9.92 11.74 9.92 11.74 13.89 4.6 13.89 4.6 22.1 0 22.1 0 .81"></polygon><path class="cls-1" d="m19.5,22.1h-4.54V6.78h4.54v15.32ZM17.17,0c1.4,0,2.54,1.01,2.54,2.42s-1.14,2.45-2.54,2.45-2.51-1.04-2.51-2.45,1.11-2.42,2.51-2.42"></path><path class="cls-1" d="m21.18,6.78h4.36v1.97c.99-1.58,2.51-2.33,4.54-2.33,3.64,0,5.94,2.39,5.94,6.36v9.32h-4.54v-8.63c0-1.97-1.08-3.05-2.75-3.05-1.97,0-3.02,1.7-3.02,3.7v7.98h-4.54V6.78Z"></path><polygon class="cls-1" points="32.02 4.84 32.02 .81 48.45 .81 48.45 4.84 42.53 4.84 42.53 22.1 37.93 22.1 37.93 4.84 32.02 4.84"></polygon><path class="cls-1" d="m48.71,12.72h6.12v-.03c-.09-1.58-1.34-2.57-2.93-2.57s-2.99.96-3.2,2.6m3.26-6.3c4.36,0,7.29,2.96,7.29,7.08,0,.72-.15,1.52-.27,2.03h-10.22c.24,2.06,2.06,3.08,4.06,3.08,1.7,0,3.02-.75,3.82-1.58l2.39,2.93c-1.94,1.79-3.97,2.51-6.48,2.51-5.14,0-8.48-3.5-8.48-8.01s3.35-8.04,7.89-8.04"></path><path class="cls-1" d="m68.34,6.42c2.81,0,4.96,1.2,6.45,3.47l-3.02,2.66c-.78-1.34-1.88-2.09-3.35-2.09-2.12,0-3.64,1.7-3.64,3.97s1.52,4,3.7,4c1.46,0,2.54-.75,3.43-1.88l2.9,2.63c-1.4,2-3.7,3.29-6.45,3.29-4.75,0-8.19-3.52-8.19-8.04s3.44-8.01,8.16-8.01"></path><path class="cls-1" d="m75.77,22.1V.81h4.54v7.65c.99-1.31,2.45-2.03,4.36-2.03,3.61,0,5.94,2.39,5.94,6.36v9.32h-4.54v-8.63c0-1.97-1.08-3.05-2.75-3.05-1.97,0-3.02,1.61-3.02,3.61v8.07h-4.54Z"></path></svg> 