<?xml version="1.0" encoding="UTF-8"?> <svg xmlns="http://www.w3.org/2000/svg" id="Layer_1" width="600" height="400" viewBox="0 0 600 400"><defs><style>.cls-1{fill:#fff;}</style></defs><path class="cls-1" d="m273.3,122.07h30.08l-15.91-25.6-29.19,46.28h-13.28l35.52-55.6c1.55-2.24,4.12-3.61,6.98-3.61s5.34,1.31,6.83,3.52l35.66,55.69h-13.28l-6.27-10.35h-30.47l-6.67-10.33h0Zm138.05,10.35v-48.29h-11.28v53.03c0,1.46.56,2.86,1.64,3.94s2.53,1.68,4.12,1.68h51.42l6.65-10.35h-52.55Zm-186.58-8.66c10.95,0,19.84-8.84,19.84-19.79s-8.89-19.84-19.84-19.84h-49.33v58.64h11.28v-48.29h37.32c5.25,0,9.46,4.26,9.46,9.49s-4.21,9.49-9.46,9.49l-31.8-.05,33.66,29.34h16.38l-22.65-18.99h5.14Zm-118.72,18.99c-16.18,0-29.32-13.1-29.32-29.3s13.14-29.34,29.32-29.34h34.08c16.18,0,29.32,13.16,29.32,29.34s-13.12,29.3-29.32,29.3h-34.08Zm33.31-10.33c10.48,0,18.99-8.47,18.99-18.95s-8.49-19.01-18.99-19.01h-32.56c-10.48,0-18.99,8.51-18.99,19.01s8.49,18.95,18.99,18.95h32.56Zm214.15,10.33c-16.18,0-29.34-13.1-29.34-29.3s13.16-29.34,29.34-29.34h40.47l-6.6,10.35h-33.13c-10.48,0-19.01,8.51-19.01,19.01s8.51,18.95,19.01,18.95h40.67l-6.65,10.35-34.77-.02h0Zm137.91-10.33c-8.66,0-16-5.79-18.24-13.81h48.2l6.65-10.35h-54.85c2.24-7.96,9.58-13.81,18.24-13.81h33.09l6.69-10.35h-40.53c-16.2,0-29.34,13.16-29.34,29.34s13.16,29.3,29.34,29.3h34.77l6.65-10.33h-40.67v.02Z"></path><path class="cls-1" d="m543.34,96.96c-.93,0-1.8-.18-2.61-.53-.81-.35-1.52-.83-2.12-1.44s-1.08-1.31-1.44-2.12c-.35-.81-.53-1.68-.53-2.61s.18-1.78.53-2.59c.35-.81.83-1.52,1.44-2.11.61-.6,1.31-1.07,2.12-1.43.81-.35,1.68-.53,2.61-.53s1.78.18,2.59.53c.81.35,1.52.83,2.12,1.43.6.6,1.08,1.3,1.43,2.11.35.81.52,1.67.52,2.59s-.17,1.8-.52,2.61c-.35.81-.82,1.52-1.43,2.12-.61.61-1.31,1.08-2.12,1.44-.81.35-1.68.53-2.59.53Zm0-.88c.81,0,1.56-.15,2.25-.45.69-.3,1.28-.71,1.77-1.23s.88-1.14,1.16-1.84c.28-.7.42-1.47.42-2.29s-.14-1.57-.42-2.27c-.28-.7-.67-1.32-1.16-1.83s-1.08-.92-1.77-1.22-1.44-.45-2.25-.45-1.56.15-2.25.45c-.69.3-1.29.71-1.79,1.22s-.89,1.13-1.17,1.83c-.28.7-.42,1.46-.42,2.27s.14,1.59.42,2.29c.28.7.67,1.32,1.17,1.84s1.1.93,1.79,1.23c.69.3,1.44.45,2.25.45Zm3.33-2.08h-1.09l-2.13-3.44h-1.67v3.44h-.92v-7.45h3.26c.99,0,1.68.18,2.06.53.39.35.58.83.58,1.44,0,.36-.06.68-.18.93-.12.26-.28.47-.49.63-.21.16-.46.28-.75.35-.29.08-.6.12-.92.13l2.26,3.44Zm-3.51-4.16h.84c.31,0,.59-.04.85-.11.27-.07.48-.2.65-.39s.26-.47.26-.85c0-.29-.06-.53-.17-.7-.11-.17-.26-.3-.43-.39-.17-.09-.38-.15-.6-.18-.22-.03-.45-.04-.67-.04h-2.13v2.64h1.39Z"></path><path class="cls-1" d="m360.51,316.4c-8.43,0-15.51-3.58-20.09-10.12-.3-.42-.16-1,.26-1.28l6.85-4.44c.42-.28.95-.14,1.25.26,2.69,3.72,6.64,5.6,11.73,5.6,1.7,0,10.19-.3,10.36-6.15.02-1.21-.39-1.81-.77-2.21-1.04-1.07-3.16-1.74-5.55-1.74h-6.25c-6.11,0-11.01-1.74-14.19-5.02-2.6-2.69-3.92-6.25-3.81-10.31.21-7.48,7.38-15.05,20.69-15.05,8.27,0,15.33,4.25,18.81,8.45.33.42.26,1.02-.19,1.32l-6.64,4.78c-.37.26-.88.23-1.18-.12-1.65-1.76-5.64-4.48-10.82-4.48-7.29,0-10.66,3.13-10.73,5.36-.05,2,.74,2.81,1,3.07,1.23,1.28,3.81,2,7.06,2h6.25c5.2,0,9.71,1.7,12.7,4.76,2.44,2.51,3.69,5.78,3.58,9.43-.3,10.98-10.43,15.88-20.32,15.88"></path><path class="cls-1" d="m94.7,280.5c2.86-2.86,6.64-4.44,10.66-4.44s7.83,1.58,10.68,4.44,4.41,6.64,4.41,10.68-1.58,7.83-4.41,10.68c-2.86,2.86-6.64,4.44-10.68,4.44s-7.83-1.58-10.66-4.44c-2.86-2.86-4.41-6.64-4.41-10.68-.02-4.04,1.56-7.83,4.41-10.68m-2.18,66.81l-.07-.05c-1.7-1.63-2.79-3.78-3.09-6.11-.02-.3-.05-.58-.05-.86,0-5.67,4.06-9.85,9.89-10.19.3-.02.53-.02.77-.02l10.17-.02c.56,0,1.65,0,1.7.02,5.71.3,9.47,4.25,9.57,10.08-.14,3.41-1.93,6.55-4.81,8.38l-.07.05c-.39.26-.77.44-1.11.63-2.81,1.46-6.36,2.28-10.03,2.28s-7.08-.77-9.87-2.18l-.02-.02c-1.04-.49-2-1.11-2.83-1.88-.07-.02-.09-.05-.14-.09m30.26-22.71c-1.35-1-2.79-1.79-4.32-2.37-2.23-.86-4.34-1.28-6.43-1.28h-14.86c-1.21-.02-2.02-.49-2.58-.88-.72-.49-1.23-1.37-1.44-1.97-.39-1.14-.09-2.41.84-3.3l.84-.74c3.32,1.53,6.87,2.32,10.54,2.32,13.86,0,25.15-11.31,25.15-25.19s-11.29-25.19-25.15-25.19-25.15,11.31-25.15,25.19c0,6.13,2.23,12.03,6.27,16.63t.05.05l.02.02c.23.3.28.74.12,1.14-.09.23-.23.46-.42.7-2.18,2.88-2.88,6.2-2.14,10.15.33,1.76,1.09,3.37,2.44,5.02l.42.53c-4.11,3.51-6.55,8.66-6.71,14.12v.42c0,.88.05,1.79.16,2.69.23,1.67.65,3.3,1.28,4.83,1.53,3.74,4.25,6.94,7.66,9.03,1,.6,2.04,1.11,3.11,1.51,2.74,1.14,5.78,1.88,9.03,2.23,1.35.14,2.67.21,3.95.21,5.11,0,9.98-1.02,14.09-2.95.05-.02.09-.05.16-.07l.21-.12c.09-.05.21-.09.3-.16,4.13-2.11,7.34-5.69,9.03-10.1.86-2.23,1.3-4.6,1.3-7.01-.05-6.06-2.93-11.87-7.78-15.44"></path><path class="cls-1" d="m462.54,265.98c-13.89,0-25.15,11.29-25.15,25.19s11.26,25.19,25.15,25.19,25.15-11.29,25.15-25.19c.02-13.91-11.24-25.19-25.15-25.19m0,9.85c8.45,0,15.33,6.9,15.33,15.35s-6.87,15.35-15.33,15.35-15.33-6.87-15.33-15.35,6.9-15.35,15.33-15.35"></path><path class="cls-1" d="m195.8,306.48c-8.43,0-15.28-6.87-15.28-15.33s6.85-15.33,15.28-15.33,15.3,6.87,15.3,15.33c-.02,8.48-6.87,15.33-15.3,15.33m25.12-14.37c0-.3.02-.63.02-.93,0-13.91-11.26-25.19-25.17-25.19s-25.15,11.29-25.15,25.19,11.26,25.19,25.15,25.19c5.57,0,10.73-1.81,14.88-4.9h0l.02-.02s.09-.05.14-.05c.16,0,.28.12.28.28v3.99c0,.37.3.7.7.7h8.45c.37,0,.7-.3.7-.7,0,0-.02-23.52-.02-23.57"></path><path class="cls-1" d="m252.41,306.43c-8.43,0-15.28-6.85-15.28-15.28s6.85-15.28,15.28-15.28,15.26,6.85,15.26,15.28-6.85,15.28-15.26,15.28m0-40.45c-13.89,0-25.12,11.26-25.12,25.15,0,.3.02.63.02.93,0,.05-.02.09-.02.14v45.93c0,.37.3.7.7.7h8.43c.37,0,.7-.3.7-.7v-26.49h0c0-.16.12-.28.28-.28.05,0,.09,0,.14.05h.02c4.16,3.07,9.31,4.88,14.86,4.88,13.86,0,25.12-11.26,25.12-25.15,0-13.89-11.26-25.15-25.12-25.15"></path><path class="cls-1" d="m430.96,287.39c-.28-11.89-9.96-21.43-21.9-21.43-4.39,0-8.48,1.3-11.89,3.51v-25.29c0-.35-.3-.65-.65-.65h-8.71c-.37,0-.65.3-.65.65v43.72h0v27.84c0,.35.3.65.65.65h8.71c.37,0,.65-.3.65-.65v-27.93c.05-6.52,5.36-11.82,11.89-11.82s11.84,5.29,11.89,11.82v27.93c0,.35.3.65.65.65h8.71c.37,0,.65-.3.65-.65v-28.28s0-.05,0-.07"></path><path class="cls-1" d="m159.51,266.01c-12.54,0-22.71,10.17-22.76,22.73v26.84c0,.37.3.67.67.67h9.03c.37,0,.67-.3.67-.67v-26.8c.02-6.8,5.55-12.35,12.35-12.35,2.28,0,4.41.63,6.25,1.7.3.19.7.12.91-.19l5.18-7.43c.23-.33.14-.77-.19-.98-3.48-2.23-7.66-3.53-12.12-3.53"></path><path class="cls-1" d="m528.79,311.91l-5.18-7.41c-.21-.3-.6-.37-.91-.19-1.83,1.07-3.95,1.7-6.22,1.7-6.78,0-12.31-5.53-12.31-12.31v-17.79h17.86c.37,0,.67-.3.67-.67v-8.66c0-.37-.3-.7-.67-.7h-17.86v-21.69c0-.37-.3-.67-.67-.67h-9.01c-.37,0-.67.3-.67.67v49.53c.02,12.52,10.17,22.66,22.69,22.66,4.46,0,8.61-1.28,12.12-3.51.3-.21.37-.65.16-.98"></path><path class="cls-1" d="m294.35,286.4c2-6.13,7.76-10.57,14.54-10.57s12.54,4.44,14.54,10.57h-29.07Zm39.68,4.74c0-14.51-12.24-26.15-26.94-25.12-12.4.86-22.45,10.91-23.31,23.34-1.02,14.72,10.61,26.98,25.1,26.98,9.43,0,17.58-5.13,21.9-12.84h0c.05-.07.09-.14.12-.21.09-.19.09-.39-.02-.56-.09-.16-.28-.28-.49-.28h-11.01c-.14,0-.28.05-.37.14-.23.21-.49.39-.77.6h0c-2.6,2.02-5.83,3.25-9.36,3.25-6.92,0-12.77-4.64-14.65-10.96h38.85c.3,0,.56-.21.63-.51.19-1.02.33-1.74.33-2.44,0-.09.02-.16.02-.16-.02-.39-.02-.81-.02-1.23"></path><path class="cls-1" d="m80.23,250.82c0,8.36-6.76,15.14-15.12,15.14s-15.12-6.78-15.12-15.14,6.76-15.12,15.12-15.12c8.36,0,15.12,6.76,15.12,15.12"></path><polygon class="cls-1" points="323.06 192.1 305.96 192.1 305.96 174.99 302.64 174.99 302.64 192.1 285.53 192.1 285.53 195.42 302.64 195.42 302.64 212.52 305.96 212.52 305.96 195.42 323.06 195.42 323.06 192.1"></polygon></svg> 