<?xml version="1.0" encoding="UTF-8"?> <svg xmlns="http://www.w3.org/2000/svg" id="Layer_1" width="100" height="33.61" viewBox="0 0 100 33.61"><defs><style>.cls-1{fill:#fff;}</style></defs><path class="cls-1" d="m72.17,19.92h-.41v2.3h.41c.48,0,.7-.21.7-.79v-.76c0-.55-.21-.75-.7-.75Z"></path><path class="cls-1" d="m60.03,19.87c-.47,0-.7.3-.7,1.04v3.53c0,.75.22,1.05.7,1.05s.71-.31.71-1.06v-3.52c0-.71-.23-1.04-.71-1.04Z"></path><polygon class="cls-1" points="83.78 23.88 84.74 23.88 84.26 20.14 83.78 23.88"></polygon><polygon class="cls-1" points="37.43 13.59 39.06 13.59 38.25 8.78 37.43 13.59"></polygon><path class="cls-1" d="m11.22,21.08v-.52c0-.62-.24-.75-.7-.75h-.37v2.07h.37c.51,0,.7-.2.7-.81Z"></path><path class="cls-1" d="m10.53,23.07h-.38v2.46h.41c.53,0,.76-.26.76-.96v-.59c0-.75-.23-.92-.79-.92Z"></path><path class="cls-1" d="m0,0v33.61h100V0H0Zm13.09,24.72c0,1.52-.82,2.07-2.36,2.07h-2.31v-8.23h2.27c1.5,0,2.22.59,2.22,1.84v.58c0,.86-.48,1.31-1.23,1.48.87.17,1.42.68,1.42,1.73v.53Zm5.99-.12c0,1.6-.9,2.31-2.42,2.31s-2.39-.72-2.39-2.32v-6.03h1.77v5.99c0,.68.16.92.63.92.44,0,.62-.24.62-.93v-5.98h1.78v6.04Zm5.7.07c0,1.5-.82,2.24-2.28,2.24s-2.3-.64-2.31-2.29v-.26h1.71v.32c0,.67.17.89.6.89.37,0,.54-.23.54-.76v-.09c0-.74-.4-.97-1.14-1.45-1.07-.68-1.63-1.29-1.63-2.65v-.05c0-1.37.81-2.13,2.22-2.13s2.19.68,2.2,2.13v.24h-1.67v-.26c0-.59-.22-.74-.53-.74-.33,0-.49.18-.49.64v.05c0,.59.25.79.97,1.28.98.62,1.82,1.12,1.82,2.73v.16Zm3.03,2.12h-1.78v-8.23h1.78v8.23Zm6.24,0h-1.68l-1.63-5.11v5.11h-1.53v-8.23h1.91l1.39,4.4v-4.4h1.54v8.23Zm5.21,0h-3.84v-8.23h3.73v1.39h-1.96v1.84h1.54v1.32h-1.54v2.28h2.07v1.39Zm-.09-12.53h-1.84l-.35,2.07h-.82l1.46-8.23h1.3l1.45,8.23h-.85l-.36-2.07Zm5.67,10.41c0,1.5-.82,2.24-2.28,2.24s-2.3-.64-2.31-2.29v-.26h1.71v.32c0,.67.17.89.6.89.37,0,.54-.23.54-.76v-.09c0-.74-.4-.97-1.14-1.45-1.07-.68-1.63-1.29-1.63-2.65v-.05c0-1.37.81-2.13,2.22-2.13s2.19.68,2.2,2.13v.24h-1.67v-.26c0-.59-.22-.74-.53-.74-.33,0-.49.18-.49.64v.05c0,.59.25.79.97,1.28.98.62,1.82,1.12,1.82,2.73v.16Zm.72-10.36c0,1.42-.71,2.12-1.99,2.12-1.21,0-1.99-.67-1.99-2.08v-6.25h.86v6.23c0,.97.38,1.38,1.13,1.38s1.13-.41,1.13-1.45v-6.16h.86v6.21Zm4.87,10.36c0,1.5-.82,2.24-2.28,2.24s-2.3-.64-2.31-2.29v-.26h1.71v.32c0,.67.17.89.6.89.37,0,.54-.23.54-.76v-.09c0-.74-.4-.97-1.14-1.45-1.07-.68-1.63-1.29-1.63-2.65v-.05c0-1.37.81-2.13,2.22-2.13s2.19.68,2.2,2.13v.24h-1.67v-.26c0-.59-.22-.74-.53-.74-.33,0-.49.18-.49.64v.05c0,.59.25.79.97,1.28.98.62,1.82,1.12,1.82,2.73v.16Zm.28-10.23c0,1.36-.72,1.99-1.81,1.99-1.23,0-1.91-.74-1.91-2.06v-.28h.83v.28c0,.93.32,1.35,1.08,1.35.62,0,.98-.43.98-1.24v-.16c0-.97-.4-1.33-1.3-2.03-.94-.71-1.48-1.29-1.48-2.45v-.03c0-1.15.68-1.81,1.74-1.81s1.75.6,1.75,1.83v.29h-.81v-.29c0-.83-.37-1.12-.94-1.12s-.92.35-.92,1.04v.05c0,.82.31,1.17,1.19,1.83,1.07.79,1.61,1.31,1.61,2.65v.17Zm1.01-5.65v-.69h3.71v.69h-1.43v7.54h-.86v-7.54h-1.42Zm4.56,15.89c0,1.42-.71,2.17-2.07,2.17-.47,0-.75-.08-.96-.17v-1.38c.14.03.3.07.54.07.45,0,.7-.2.7-.77v-6.04h1.78v6.12Zm.55-16.58h.86v8.23h-.86v-8.23Zm5.73,16.31c0,1.71-.99,2.51-2.52,2.51s-2.51-.77-2.51-2.46v-3.53c0-1.69,1.06-2.47,2.51-2.47s2.52.74,2.52,2.46v3.5Zm.79-8.08h-.9l-2.22-6.6v6.6h-.78v-8.23h1.05l2.08,6.11v-6.11h.77v8.23Zm5.3,8.27c0,1.6-.9,2.31-2.42,2.31s-2.39-.72-2.39-2.32v-6.03h1.77v5.99c0,.68.16.92.63.92.44,0,.62-.24.62-.93v-5.98h1.78v6.04Zm4.34,2.19l-.91-3.43h-.32v3.43h-1.77v-8.23h2.24c1.73,0,2.37.68,2.37,2.05v.84c0,.93-.31,1.37-.85,1.63l1.08,3.71h-1.84Zm7.76,0h-1.68l-1.63-5.11v5.11h-1.53v-8.23h1.91l1.39,4.4v-4.4h1.54v8.23Zm4.39,0l-.23-1.68h-1.29l-.22,1.68h-1.62l1.3-8.23h2.54l1.31,8.23h-1.8Zm6.45,0h-3.62v-8.23h1.77v6.81h1.85v1.42Z"></path></svg> 