<?xml version="1.0" encoding="UTF-8"?> <svg xmlns="http://www.w3.org/2000/svg" id="Layer_1" width="599.76" height="400.32" viewBox="0 0 599.76 400.32"><defs><style>.cls-1{fill:#fff;}</style></defs><path class="cls-1" d="m139.82,177.44c-4.75-2.52-11.88-5.17-20.13-5.17-16.22,0-27.68,12.02-27.68,27.82s11.46,27.82,27.68,27.82c8.67,0,15.8-2.66,20.69-5.03v6.71c-3.22,1.82-10.62,4.89-20.69,4.89-19.99,0-34.81-14.96-34.81-34.39s14.82-34.39,34.81-34.39c9.65,0,16.91,3.22,20.13,5.03v6.71Z"></path><path class="cls-1" d="m164.98,187.09l-1.82-2.66c.14,2.1.14,4.19.14,6.15v42.64h-6.85v-67.52h0l29.64,38.86,29.64-38.86h.14v67.8h-6.85v-42.78c0-2.1,0-4.05.14-6.15-.98,1.54-2.38,3.49-3.63,5.17l-19.43,25.02-21.11-27.68Z"></path><path class="cls-1" d="m233.06,230.56v-6.99c4.33,2.1,11.18,4.61,18.45,4.61,8.67,0,15.38-3.91,15.38-10.62s-3.63-10.34-15.38-14.54c-13.28-4.75-18.73-10.34-18.73-19.99,0-11.04,9.51-17.33,21.39-17.33,6.71,0,12.72,1.82,16.22,3.49v6.85c-3.63-1.82-10.07-3.91-15.94-3.91-8.53,0-14.68,4.19-14.68,10.62,0,6.01,3.22,10.2,15.24,14.54,13.28,4.75,18.87,10.07,18.87,19.85,0,11.04-8.95,17.47-21.95,17.47-7.69-.14-14.68-2.1-18.87-4.05Z"></path><path class="cls-1" d="m287.86,166.68l10.62,27.82c2.66,6.71,4.75,13.56,6.43,18.45,1.82-4.89,4.19-10.76,6.99-17.47l11.32-27.82h.14l11.32,27.82c2.8,6.71,5.17,12.58,6.99,17.47,1.68-4.89,3.91-11.6,6.43-18.45l10.62-27.82h9.65l-26.7,67.8h-.14l-14.4-36.21c-1.26-3.22-2.8-6.85-3.77-10.07-1.12,3.22-2.66,6.85-3.77,10.07l-14.4,36.21h-.14l-26.7-67.8s9.51,0,9.51,0Z"></path><path class="cls-1" d="m382.22,233.36v-66.68h8.95v66.68s-8.95,0-8.95,0Z"></path><path class="cls-1" d="m433.24,166.68c14.68,0,23.49,7.55,23.49,20.41,0,9.93-6.43,16.5-13.56,18.73l15.1,27.54h-9.93l-13.84-26.14h-13.84v26.14h-8.95v-66.68h21.53Zm-12.72,7.55v25.72h13.14c8.81,0,14.12-4.75,14.12-12.86s-5.59-12.86-14.82-12.86h-12.44Z"></path><path class="cls-1" d="m472.52,233.36v-66.68h40.96v7.55h-32.01v21.67h26.98v7.55h-26.98v22.51h33.41v7.55h-42.36v-.14Z"></path></svg> 