<?xml version="1.0" encoding="UTF-8"?> <svg xmlns="http://www.w3.org/2000/svg" id="Layer_1" width="100" height="47.54" viewBox="0 0 100 47.54"><defs><style>.cls-1{fill:#c82636;}</style></defs><path class="cls-1" d="m24.6,33.72c-15.75,0-14.34-20.32-.9-20.32h8.01v-5.87h-8.3c-4.97,0-9.09,1.75-12.02,4.97-2.6,2.93-4.06,6.83-4.06,11.01,0,10.95,8.63,15.92,16.65,15.92h13.77c.9,0,1.64-.73,1.64-1.64V9.28c0-1.41.73-2.54,1.86-2.88s2.37.06,3.1,1.13l.06.06c3.84,6.43,19.36,31.15,19.53,31.44.34.45.85.68,1.24.56.45-.17.73-.68.73-1.47V9.34c0-1.41.73-2.54,1.86-2.88,1.13-.34,2.37.06,3.1,1.13l.06.06c3.89,6.43,19.3,31.15,19.47,31.44.34.45.85.68,1.3.56.45-.17.79-.68.79-1.47V.2h-5.81v22.07s-3.44-6.04-9.48-16.37C71.22-4.2,60.1-.03,60.1,8.66v13.6s-3.44-6.04-9.48-16.37C44.64-4.2,33.52-.03,33.52,8.66v23.42c0,.79-.68,1.52-1.58,1.64h-7.34Z"></path><path class="cls-1" d="m93.96.2v37.87c0,1.41-.68,2.48-1.81,2.88-.17.06-.4.11-.68.11-.85,0-1.69-.45-2.26-1.24-.17-.28-15.58-25-19.47-31.44-.4-.51-.96-.73-1.47-.56s-.85.73-.85,1.47v28.78c0,1.41-.68,2.48-1.75,2.88-1.07.34-2.2-.11-2.93-1.13-.17-.28-15.69-25-19.53-31.44-.4-.51-.96-.73-1.47-.56-.51.17-.85.73-.85,1.47v28.56c0,1.75-1.35,3.1-3.1,3.1h-13.83c-12.47,0-18.17-9.03-18.17-17.38,0-4.57,1.58-8.8,4.46-12.02,3.22-3.61,7.79-5.47,13.15-5.47h8.3V.2h-7.28c-32.79,0-32.51,46.73.45,46.73h12.92c5.59,0,9.14-3.22,9.14-9.31v-11.85s7.22,12.08,10.05,16.71c4.85,7.96,16.54,6.38,16.42-3.56v-13.15s7.34,12.08,10.16,16.71c4.74,7.96,16.42,6.38,16.42-3.56V.2h-6.04Z"></path></svg> 