<?xml version="1.0" encoding="UTF-8"?> <svg xmlns="http://www.w3.org/2000/svg" id="Layer_1" width="600" height="400" viewBox="0 0 600 400"><defs><style>.cls-1{fill:#fff;}</style></defs><path class="cls-1" d="m243,267.66c-.13,0-.27-.12-.27-.29s.19-.35.38-.54c2.69-2.56,6.52-5.8,6.52-10.19,0-3.28-1.67-3.95-2.64-3.95-.83,0-1.46.17-2.04.75-.46.48-.81,1.46-.81,2,0,.21-.06.4-.25.4-.1,0-.15-.15-.17-.4-.02-.19-.12-1.91-.12-2.51,0-.19.02-.27.23-.42.75-.42,1.79-.79,3.48-.79,3.39,0,4.83,2,4.83,4.43,0,4.03-4.14,7.55-6.62,9.69-.1.08-.06.15.04.15h1.31c.33,0,2.6-.02,3.31-.13,1.33-.17,1.96-.87,2.19-1.85.06-.25.12-.33.23-.33.13,0,.15.19.15.39,0,.33-.37,2.27-.56,2.97-.15.56-.46.62-1.67.62h-7.54Z"></path><path class="cls-1" d="m259.27,268.01c-3.87,0-5.14-4.74-5.14-7.69,0-4.84,1.81-8.61,5.45-8.61,3.89,0,5.14,4.37,5.14,7.67,0,5.28-2,8.63-5.45,8.63Zm-.1-15.36c-1.48,0-2.64,2.14-2.64,6.88,0,3.6.88,7.55,3.1,7.55,1.6,0,2.67-2.26,2.67-6.88,0-3.8-.83-7.55-3.14-7.55Z"></path><path class="cls-1" d="m265.43,267.66c-.13,0-.27-.12-.27-.29s.19-.35.38-.54c2.69-2.56,6.52-5.8,6.52-10.19,0-3.28-1.67-3.95-2.64-3.95-.83,0-1.46.17-2.04.75-.46.48-.81,1.46-.81,2,0,.21-.06.4-.25.4-.1,0-.15-.15-.17-.4-.02-.19-.12-1.91-.12-2.51,0-.19.02-.27.23-.42.75-.42,1.79-.79,3.48-.79,3.39,0,4.83,2,4.83,4.43,0,4.03-4.14,7.55-6.62,9.69-.1.08-.06.15.04.15h1.31c.33,0,2.6-.02,3.31-.13,1.33-.17,1.96-.87,2.19-1.85.06-.25.12-.33.23-.33.13,0,.15.19.15.39,0,.33-.37,2.27-.56,2.97-.15.56-.46.62-1.67.62h-7.54Z"></path><path class="cls-1" d="m276.86,267.52c-.29-.17-.33-.33-.33-.58,0-.98.06-2.14.13-2.6.04-.25.1-.39.21-.39s.17.12.17.29c0,1.33.94,2.77,2.89,2.77s3.48-1.08,3.48-3.55c0-2.79-2.31-3.76-3.25-3.95-.5-.1-.62-.19-.62-.35,0-.14.13-.25.35-.29.87-.19,2.98-1.04,2.98-3.47,0-1.29-.6-2.66-2.56-2.66-1.52,0-2.67.98-2.67,2.2,0,.25-.08.31-.17.31-.08,0-.13-.06-.15-.29-.08-.67-.14-1.6-.14-2.08,0-.19.02-.27.27-.39.65-.31,1.81-.75,3.4-.75,3.69,0,4.37,2.1,4.37,3.24,0,1.87-1.48,3.08-2.81,3.58-.02,0-.02.04,0,.04,1.42.35,3.43,1.58,3.43,4.1,0,2.91-2.33,5.34-6.08,5.34-1.37,0-2.46-.23-2.9-.5Z"></path><path class="cls-1" d="m292.95,267.47c-.31-.15-.37-.25-.37-.71,0-1.14.08-2.39.1-2.72.02-.31.08-.54.23-.54.17,0,.19.19.19.35,0,.27.08.71.17,1.06.42,1.54,1.56,2.1,2.75,2.1,1.73,0,2.58-1.27,2.58-2.37,0-1.02-.29-1.98-1.89-3.33l-.89-.75c-2.12-1.79-2.85-3.24-2.85-4.93,0-2.29,1.77-3.93,4.44-3.93.73,0,1.31.08,1.77.17.33.06.58.13.79.19.17.04.27.1.27.25,0,.27-.08.87-.08,2.49,0,.46-.06.62-.21.62-.13,0-.19-.12-.19-.37,0-.19-.1-.83-.5-1.37-.29-.39-.85-1.02-2.1-1.02-1.42,0-2.29.89-2.29,2.14,0,.96.44,1.68,2.04,2.99l.54.44c2.33,1.89,3.15,3.33,3.15,5.3,0,1.2-.42,2.64-1.81,3.62-.96.67-2.04.85-3.06.85-1.12,0-1.98-.14-2.81-.54Z"></path><path class="cls-1" d="m309.19,261.69c0,1.91,0,3.56.1,4.45.06.58.17,1.04.75,1.12.27.04.69.08.98.08.21,0,.31.06.31.17,0,.15-.15.21-.37.21-1.27,0-2.48-.06-3.02-.06-.44,0-1.65.06-2.42.06-.25,0-.38-.06-.38-.21,0-.1.08-.17.31-.17.29,0,.52-.04.69-.08.38-.08.5-.54.56-1.14.1-.87.1-2.51.1-4.43v-8.52c-.73.02-1.92.06-2.87.08-1.12.04-1.58.15-1.87.6-.19.31-.29.56-.33.73-.04.17-.1.25-.21.25-.13,0-.17-.1-.17-.33,0-.33.37-2.22.4-2.39.06-.27.12-.39.23-.39.15,0,.35.21.83.25.56.06,1.29.1,1.92.1h7.62c.62,0,1.04-.06,1.33-.1.29-.06.44-.1.52-.1.13,0,.15.12.15.44,0,.44-.06,1.87-.06,2.41-.02.21-.06.33-.17.33-.15,0-.19-.1-.21-.42,0-.06-.02-.17-.02-.23-.04-.54-.56-1.12-2.27-1.16-.5-.02-1.29-.04-2.42-.06v8.52Z"></path><path class="cls-1" d="m317.08,258.04c0-3.16,0-3.74-.04-4.41-.04-.71-.19-1.04-.83-1.19-.15-.04-.48-.06-.75-.06-.21,0-.33-.04-.33-.19s.13-.19.42-.19c.88,0,1.77.06,2.77.06.62,0,4.44,0,4.81-.02.37-.04.67-.08.83-.12.1-.02.21-.08.31-.08s.12.08.12.19c0,.15-.1.39-.15,1.35-.02.21-.06,1.12-.1,1.37-.02.1-.06.23-.19.23s-.17-.12-.17-.37c0-.08-.02-.42-.12-.67-.13-.37-.33-.62-1.29-.75-.33-.04-2.35-.08-2.73-.08-.1,0-.13.06-.13.21v5.26c0,.15.02.23.13.23.42,0,2.64,0,3.08-.04.46-.04.75-.1.92-.31.13-.17.21-.27.31-.27.08,0,.14.04.14.17s-.08.46-.15,1.52c-.02.42-.08,1.25-.08,1.39,0,.17,0,.39-.17.39-.13,0-.17-.23-.17-.33-.02-.21-.02-.33-.08-.6-.1-.42-.37-.73-1.08-.81-.37-.04-2.27-.06-2.73-.06-.1,0-.12.08-.12.21v1.64c0,.71-.02,2.62,0,3.22.04,1.43.35,1.75,2.31,1.75.5,0,1.31,0,1.81-.25.5-.25.73-.69.87-1.54.04-.23.08-.31.21-.31.15,0,.15.17.15.37,0,.48-.15,1.89-.25,2.31-.13.54-.31.54-1.04.54-1.71,0-3.4-.12-5.33-.12-.77,0-1.56.06-2.42.06-.25,0-.38-.06-.38-.21,0-.1.08-.17.31-.17.29,0,.52-.04.69-.08.38-.08.48-.54.56-1.14.1-.87.1-2.51.1-4.43v-3.66Z"></path><path class="cls-1" d="m327.23,254.04c-.44-1.14-.77-1.37-1.46-1.58-.29-.08-.6-.08-.75-.08-.17,0-.23-.06-.23-.19,0-.17.21-.19.5-.19,1.02,0,2.12.06,2.79.06.48,0,1.41-.06,2.37-.06.23,0,.44.04.44.19s-.12.19-.29.19c-.31,0-.6.02-.75.15-.14.1-.19.25-.19.44,0,.27.17.85.44,1.6,1.06,2.99,2.35,6.67,3.35,9.54.83-2.29,3.37-9.08,3.83-10.46.1-.27.17-.58.17-.77,0-.17-.08-.33-.25-.39-.23-.08-.52-.1-.77-.1-.17,0-.33-.02-.33-.17,0-.17.17-.21.54-.21.96,0,1.77.06,2.02.06.33,0,1.23-.06,1.81-.06.25,0,.4.04.4.19s-.12.19-.31.19-.6,0-.94.25c-.25.19-.54.54-1.06,1.87-.75,1.95-1.27,3.08-2.31,5.63-1.23,3.04-2.14,5.3-2.56,6.34-.5,1.2-.62,1.54-.88,1.54-.25,0-.37-.29-.73-1.27l-4.85-12.7Z"></path><path class="cls-1" d="m342.16,258.04c0-3.16,0-3.74-.04-4.41-.04-.71-.23-1.06-.65-1.16-.21-.06-.46-.08-.69-.08-.19,0-.31-.04-.31-.21,0-.13.15-.17.46-.17.73,0,1.94.06,2.5.06.48,0,1.62-.06,2.35-.06.25,0,.4.04.4.17,0,.17-.12.21-.31.21s-.35.02-.58.06c-.52.1-.67.46-.71,1.19-.04.67-.04,1.25-.04,4.41v3.66c0,2.02,0,3.66.08,4.55.06.56.19.93.77,1.02.27.04.69.08.98.08.21,0,.31.06.31.17,0,.15-.15.21-.37.21-1.27,0-2.48-.06-3-.06-.44,0-1.65.06-2.42.06-.25,0-.38-.06-.38-.21,0-.1.08-.17.31-.17.29,0,.52-.04.69-.08.38-.08.5-.44.56-1.04.1-.87.1-2.51.1-4.53v-3.66Z"></path><path class="cls-1" d="m349.41,258.04c0-3.16,0-3.74-.04-4.41-.04-.71-.19-1.04-.83-1.19-.15-.04-.48-.06-.75-.06-.21,0-.33-.04-.33-.19s.13-.19.42-.19c.88,0,1.77.06,2.77.06.62,0,4.44,0,4.81-.02.37-.04.67-.08.83-.12.1-.02.21-.08.31-.08s.12.08.12.19c0,.15-.1.39-.15,1.35-.02.21-.06,1.12-.1,1.37-.02.1-.06.23-.19.23s-.17-.12-.17-.37c0-.08-.02-.42-.12-.67-.13-.37-.33-.62-1.29-.75-.33-.04-2.35-.08-2.73-.08-.1,0-.13.06-.13.21v5.26c0,.15.02.23.13.23.42,0,2.64,0,3.08-.04.46-.04.75-.1.92-.31.13-.17.21-.27.31-.27.08,0,.14.04.14.17s-.08.46-.15,1.52c-.02.42-.08,1.25-.08,1.39,0,.17,0,.39-.17.39-.13,0-.17-.23-.17-.33-.02-.21-.02-.33-.08-.6-.1-.42-.37-.73-1.08-.81-.37-.04-2.27-.06-2.73-.06-.1,0-.12.08-.12.21v1.64c0,.71-.02,2.62,0,3.22.04,1.43.35,1.75,2.31,1.75.5,0,1.31,0,1.81-.25.5-.25.73-.69.87-1.54.04-.23.08-.31.21-.31.15,0,.15.17.15.37,0,.48-.15,1.89-.25,2.31-.13.54-.31.54-1.04.54-1.71,0-3.4-.12-5.33-.12-.77,0-1.56.06-2.42.06-.25,0-.38-.06-.38-.21,0-.1.08-.17.31-.17.29,0,.52-.04.69-.08.38-.08.48-.54.56-1.14.1-.87.1-2.51.1-4.43v-3.66Z"></path><path class="cls-1" d="m357.51,253.31c0-1.13.86-1.95,2.04-1.95s2.03.82,2.03,1.95-.86,1.92-2.03,1.92-2.04-.84-2.04-1.92Zm3.65-.02c0-.95-.66-1.55-1.61-1.55s-1.61.6-1.61,1.55.66,1.57,1.64,1.57,1.59-.64,1.59-1.57Zm-2.46-.31v-.55c0-.13-.09-.16-.27-.16-.02,0-.04-.02-.04-.07,0-.07.04-.09.11-.09h.09s.22.02.38.02c.2,0,.29-.02.51-.02.38,0,.97.07.97.6,0,.22-.09.4-.47.66l.4.46c.29.33.33.33.38.33s.07.02.07.07c0,.07-.02.09-.2.09-.29,0-.53.02-.86-.42l-.31-.42h-.27v.2c0,.4.02.44.04.47.04.02.15.02.22.02.04,0,.07,0,.07.07s-.04.09-.09.09h-.09s-.24-.02-.35-.02c-.07,0-.29.02-.33.02h-.11s-.15-.02-.15-.09c0-.04.02-.07.07-.07.2,0,.22,0,.24-.13.02-.11,0-.27,0-.58v-.49Zm.49.22c.07.04.22.07.31.07.07,0,.13,0,.2-.04.11-.07.2-.2.2-.38,0-.27-.2-.49-.51-.49-.02,0-.15,0-.2.04v.8Z"></path><path class="cls-1" d="m256.68,274.76c-.25-.77-.48-1.27-.77-1.48-.23-.15-.65-.19-.83-.19-.21,0-.33-.02-.33-.19,0-.15.17-.19.46-.19,1.08,0,2.23.06,2.42.06s1.1-.06,2.31-.06c.29,0,.44.06.44.19,0,.17-.17.19-.38.19-.17,0-.38,0-.52.08-.19.08-.23.23-.23.46,0,.27.21.98.46,1.92.35,1.37,2.29,7.69,2.67,8.85h.06l4.04-10.86c.21-.58.35-.75.52-.75.23,0,.33.31.6.98l4.33,10.48h.06c.38-1.4,2.04-6.9,2.77-9.33.15-.48.21-.92.21-1.21,0-.33-.19-.62-1-.62-.21,0-.35-.06-.35-.19,0-.15.17-.19.48-.19,1.1,0,1.98.06,2.17.06.15,0,1.04-.06,1.73-.06.23,0,.38.04.38.17,0,.15-.1.21-.29.21-.21,0-.5.02-.73.1-.5.19-.73,1.02-1.17,2.21-.96,2.62-3.15,9.25-4.17,12.38-.23.73-.33.98-.6.98-.21,0-.33-.25-.65-1.02l-4.33-10.44h-.04c-.4,1.06-3.17,8.44-4.06,10.35-.4.85-.5,1.1-.75,1.1-.21,0-.29-.23-.48-.77l-4.42-13.23Z"></path><path class="cls-1" d="m280.1,278.76c0-3.17,0-3.75-.04-4.42-.04-.71-.25-1.06-.71-1.17-.23-.06-.5-.08-.75-.08-.21,0-.33-.04-.33-.21,0-.13.17-.17.5-.17.79,0,2.1.06,2.71.06.52,0,1.75-.06,2.54-.06.27,0,.44.04.44.17,0,.17-.13.21-.33.21s-.38.02-.63.06c-.56.1-.73.46-.77,1.19-.04.67-.04,1.25-.04,4.42v3.67c0,2.02,0,3.67.08,4.56.06.56.21.94.83,1.02.29.04.75.08,1.06.08.23,0,.33.06.33.17,0,.15-.17.21-.4.21-1.38,0-2.69-.06-3.25-.06-.48,0-1.79.06-2.63.06-.27,0-.42-.06-.42-.21,0-.1.08-.17.33-.17.31,0,.56-.04.75-.08.42-.08.54-.44.6-1.04.1-.88.1-2.52.1-4.54v-3.67Z"></path><path class="cls-1" d="m289.22,285.64c.04,1.63.31,2.17.73,2.31.35.12.75.15,1.08.15.23,0,.35.04.35.17,0,.17-.19.21-.48.21-1.35,0-2.19-.06-2.58-.06-.19,0-1.17.06-2.25.06-.27,0-.46-.02-.46-.21,0-.13.13-.17.33-.17.27,0,.65-.02.94-.1.54-.17.62-.77.65-2.58l.19-12.33c0-.42.06-.71.27-.71.23,0,.42.27.77.65.25.27,3.42,3.67,6.46,6.69,1.42,1.42,4.23,4.42,4.58,4.75h.1l-.21-9.35c-.02-1.27-.21-1.67-.71-1.88-.31-.13-.81-.13-1.1-.13-.25,0-.33-.06-.33-.19,0-.17.23-.19.54-.19,1.08,0,2.08.06,2.52.06.23,0,1.02-.06,2.04-.06.27,0,.48.02.48.19,0,.13-.12.19-.37.19-.21,0-.37,0-.62.06-.58.17-.75.6-.77,1.77l-.23,13.15c0,.46-.08.65-.27.65-.23,0-.48-.23-.71-.46-1.31-1.25-3.98-3.98-6.15-6.13-2.27-2.25-4.58-4.85-4.96-5.25h-.06l.23,8.75Z"></path><path class="cls-1" d="m306.66,285.64c.04,1.63.31,2.17.73,2.31.35.12.75.15,1.08.15.23,0,.35.04.35.17,0,.17-.19.21-.48.21-1.35,0-2.19-.06-2.58-.06-.19,0-1.17.06-2.25.06-.27,0-.46-.02-.46-.21,0-.13.13-.17.33-.17.27,0,.65-.02.94-.1.54-.17.62-.77.65-2.58l.19-12.33c0-.42.06-.71.27-.71.23,0,.42.27.77.65.25.27,3.42,3.67,6.46,6.69,1.42,1.42,4.23,4.42,4.58,4.75h.1l-.21-9.35c-.02-1.27-.21-1.67-.71-1.88-.31-.13-.81-.13-1.1-.13-.25,0-.33-.06-.33-.19,0-.17.23-.19.54-.19,1.08,0,2.08.06,2.52.06.23,0,1.02-.06,2.04-.06.27,0,.48.02.48.19,0,.13-.13.19-.37.19-.21,0-.38,0-.63.06-.58.17-.75.6-.77,1.77l-.23,13.15c0,.46-.08.65-.27.65-.23,0-.48-.23-.71-.46-1.31-1.25-3.98-3.98-6.15-6.13-2.27-2.25-4.58-4.85-4.96-5.25h-.06l.23,8.75Z"></path><path class="cls-1" d="m323.77,278.76c0-3.17,0-3.75-.04-4.42-.04-.71-.21-1.04-.9-1.19-.17-.04-.52-.06-.81-.06-.23,0-.35-.04-.35-.19s.15-.19.46-.19c.56,0,1.17.02,1.69.02.54.02,1.02.04,1.31.04.67,0,4.81,0,5.21-.02.4-.04.73-.08.9-.13.1-.02.23-.08.33-.08s.12.08.12.19c0,.15-.1.4-.17,1.35-.02.21-.06,1.12-.1,1.38-.02.1-.06.23-.21.23s-.19-.1-.19-.29c0-.15-.02-.5-.13-.75-.15-.37-.35-.62-1.4-.75-.35-.04-2.54-.08-2.96-.08-.1,0-.15.06-.15.21v5.27c0,.15.02.23.15.23.46,0,2.85,0,3.33-.04.5-.04.81-.1,1-.31.15-.17.23-.27.33-.27.08,0,.15.04.15.17s-.08.46-.17,1.52c-.02.42-.08,1.25-.08,1.4,0,.17,0,.4-.19.4-.15,0-.19-.08-.19-.19-.02-.21-.02-.48-.08-.75-.1-.42-.4-.73-1.17-.81-.4-.04-2.46-.06-2.96-.06-.1,0-.13.08-.13.21v1.65c0,.71-.02,2.62,0,3.23.04,1.44.38,1.75,2.5,1.75.54,0,1.42,0,1.96-.25.54-.25.79-.69.94-1.54.04-.23.08-.31.23-.31.17,0,.17.17.17.38,0,.48-.17,1.9-.27,2.31-.15.54-.33.54-1.12.54-1.56,0-2.71-.04-3.61-.06-.9-.04-1.54-.06-2.17-.06-.23,0-.69,0-1.19.02-.48,0-1.02.04-1.44.04-.27,0-.42-.06-.42-.21,0-.1.08-.17.33-.17.31,0,.56-.04.75-.08.42-.08.52-.54.6-1.15.1-.87.1-2.52.1-4.44v-3.67Z"></path><path class="cls-1" d="m335.47,278.76c0-3.17,0-3.75-.04-4.42-.04-.71-.21-1.04-.9-1.19-.17-.04-.52-.06-.81-.06-.23,0-.35-.04-.35-.19s.15-.19.46-.19c1.1,0,2.42.06,2.85.06.71,0,2.29-.06,2.94-.06,1.31,0,2.71.12,3.83.9.58.4,1.42,1.46,1.42,2.85,0,1.54-.65,2.96-2.75,4.67,1.85,2.33,3.29,4.19,4.52,5.48,1.17,1.21,2.02,1.35,2.33,1.42.23.04.42.06.58.06s.25.06.25.17c0,.17-.15.21-.4.21h-1.98c-1.17,0-1.69-.1-2.23-.4-.9-.48-1.69-1.46-2.85-3.06-.83-1.15-1.79-2.56-2.06-2.88-.1-.13-.23-.15-.37-.15l-1.81-.04c-.1,0-.17.04-.17.17v.29c0,1.94,0,3.58.1,4.46.06.6.19,1.06.81,1.15.31.04.77.08,1.02.08.17,0,.25.06.25.17,0,.15-.15.21-.42.21-1.21,0-2.75-.06-3.06-.06-.4,0-1.71.06-2.54.06-.27,0-.42-.06-.42-.21,0-.1.08-.17.33-.17.31,0,.56-.04.75-.08.42-.08.52-.54.6-1.15.1-.87.1-2.52.1-4.44v-3.67Zm2.46,1.65c0,.23.04.31.19.38.44.15,1.06.21,1.58.21.83,0,1.1-.08,1.48-.35.62-.46,1.23-1.42,1.23-3.13,0-2.96-1.96-3.81-3.19-3.81-.52,0-.9.02-1.1.08-.15.04-.19.13-.19.29v6.33Z"></path><path class="cls-1" d="m292.21,228.05c-2.73,0-4.55,2.21-4.55,4.81v.05c0,2.6,1.88,4.86,4.6,4.86s4.58-2.21,4.58-4.81v-.05c0-2.6-1.88-4.86-4.63-4.86Z"></path><path class="cls-1" d="m326.93,228.33h-2.03v9.16h2.03c2.98,0,4.96-1.65,4.96-4.55v-.05c0-2.88-1.98-4.55-4.96-4.55Z"></path><path class="cls-1" d="m353.31,218.38h-40.31l.21-.73h-.11c.02-.06.03-.11.05-.17,2.84-8.08,9.12-25.9,10.33-30.42,0,0,2.43-10.93,3.44-19.01s3.24-25.67,5.67-34.22c2.43-8.56,7.66-12.67,14.79-17.82,1.19-.86-.08-2.36-1.48-1.46-.17.11-.36.21-.57.31-1.48.7-3.79,1.13-5.8,1.78-2.29.75-3.31-.45-4.71,3.58-.26.73-.59,1.38-.96,1.99l-34.2-51.92-33.92,51.49c-.26-.49-.5-1.01-.7-1.57-1.4-4.03-2.42-2.84-4.71-3.58-1.98-.64-4.24-1.07-5.72-1.75-.24-.11-.45-.22-.65-.34-1.4-.9-2.67.6-1.48,1.46,7.13,5.15,12.36,9.27,14.79,17.82,2.43,8.56,4.66,26.14,5.67,34.22s3.44,19.01,3.44,19.01c1.22,4.52,7.5,22.34,10.33,30.42.11.3.17.6.27.9h-40.32c-2.27,0-4.1,1.84-4.1,4.1v24.6h114.82v-24.6c0-2.27-1.84-4.1-4.1-4.1Zm-75.39-59.63c-2.29-10.6-3.69-19.86-3.44-21.5.25-1.64.64-4.33.89-6.27.22-1.71-1.22-3.18-3.13-3.92h55.41c-1.91.74-3.36,2.21-3.13,3.92.25,1.94.64,4.63.89,6.27.25,1.64-1.15,10.9-3.44,21.5-2.29,10.6-5.09,20.61-9.17,27.18-3,4.83-4.55,6.03-5.76,5.79-.44-.09-.83-.36-1.24-.71-1.26-1.11-2.17-3.02-2.03-5.08.03-.44.11-.89.24-1.34,3.31-5.38,4.33-8.66,4.33-12.1s.11-11.99-7.47-12.65c-.3-.03-.61-.04-.93-.04-8.53,0-8.4,9.26-8.4,12.69s1.02,6.72,4.33,12.1c.14.45.21.9.24,1.34.14,2.06-.77,3.97-2.03,5.08-1.53,1.34-2.93,1.49-7-5.08-4.07-6.57-6.88-16.58-9.17-27.18Zm2.69,80.75c-1.9,1.57-4.55,2.78-7.82,2.78-5.61,0-9.8-3.86-9.8-9.31v-.05c0-5.25,4.12-9.36,9.7-9.36,3.16,0,5.4.98,7.31,2.62l-2.93,3.52c-1.29-1.08-2.57-1.7-4.35-1.7-2.6,0-4.6,2.19-4.6,4.94v.05c0,2.91,2.03,4.99,4.89,4.99,1.21,0,2.13-.26,2.88-.75v-2.19h-3.55v-3.65h8.28v8.1Zm21.32-6.58c0,5.17-4.17,9.36-9.72,9.36s-9.67-4.14-9.67-9.31v-.05c0-5.17,4.17-9.36,9.72-9.36s9.67,4.14,9.67,9.31v.05Zm16.08,9h-13.71v-18.01h4.99v13.63h8.72v4.37Zm19.01-9.05c0,5.2-3.78,9.05-10.26,9.05h-6.84v-18.01h6.94c6.43,0,10.16,3.7,10.16,8.9v.05Z"></path><path class="cls-1" d="m421.38,236.15c6.01-3.14,8.01-11.2,8.01-11.2,0,0-9.19-1.1-14.79,3.11-2.09,1.57-4.01,4.55-5.36,7.05,1.26-5.6,2.1-11.21,2.57-16.76,1.91-.25,7.12-1.28,12.37-5.32,5.26-4.05,5.82-12.18,5.82-12.18,0,0-9.04.51-13.74,5.52-1.9,2.02-3.32,5.62-4.19,8.36.34-6.03.25-11.95-.24-17.65,1.83-.58,6.65-2.47,10.99-7.23,4.39-4.81,3.55-12.74,3.55-12.74,0,0-8.65,2.03-12.33,7.67-1.45,2.22-2.2,5.8-2.6,8.57-.7-5.97-1.83-11.66-3.36-16.94,1.65-.87,6-3.51,9.4-8.86,3.42-5.39,1.25-12.9,1.25-12.9,0,0-8,3.43-10.59,9.5-1.07,2.51-1.15,6.35-1.03,9.13-.59-1.8-1.22-3.56-1.9-5.24-1.45-3.95-3.01-7.6-4.63-10.99,1.2-.88,5.3-4.22,7.81-10.34,2.38-5.79-.98-12.67-.98-12.67,0,0-7.14,4.67-8.61,10.97-.7,2.99.17,7.43.82,10.08-3.1-6.2-6.21-11.58-9.25-15.82.91-.94,4.27-4.71,5.69-11.2,1.32-5.99-3.11-12.06-3.11-12.06,0,0-6.09,5.72-6.44,12.05-.18,3.21,1.23,7.97,2.72,10.07-2.22-3.11-4.12-5.63-5.82-7.55-.15-1.18-1.02-6.32-4.4-9.24-2.71-2.32-8.96-3.43-8.96-3.43,0,0,.44,4.77,4.34,9.42,2.61,3.11,7.05,3.74,8.47,3.86,2.02,2.41,3.96,4.8,7.21,9.36-1.46-2.04-5.87-4.79-9.1-5.52-6.17-1.41-13.35,2.87-13.35,2.87,0,0,4.62,5.92,10.74,6.3,6.54.41,11.27-1.81,12.5-2.47,2.88,4.37,5.32,9.03,8.73,15.78-1.23-2.44-4.81-5.3-7.59-6.48-5.96-2.51-13.93.52-13.93.52,0,0,3.59,6.77,9.67,8.23,6.17,1.49,11.13.31,12.78-.19,1.22,2.78,2.39,5.73,3.48,8.86,1.04,2.69,1.97,5.53,2.77,8.5-1.39-2.41-3.92-6.27-6.54-7.96-5.55-3.59-14.1-1.95-14.1-1.95,0,0,2.41,7.44,8.27,9.99,5.99,2.62,11.22,2.27,12.92,2.06,1.36,5.51,2.31,11.41,2.79,17.57-1.03-2.67-2.75-6.44-4.89-8.42-4.94-4.59-13.81-4.45-13.81-4.45,0,0,1.1,7.9,6.53,11.5,5.32,3.53,10.41,4.21,12.36,4.34.29,5.56.22,11.3-.28,17.11-.6-2.78-1.62-6.32-3.24-8.45-4.15-5.48-13.09-6.92-13.09-6.92,0,0-.29,8.13,4.53,12.71,4.53,4.31,9.31,5.95,11.41,6.49-.65,5.57-1.69,11.18-3.14,16.75-.11-2.89-.51-6.6-1.75-9.02-3.2-6.24-11.93-9.28-11.93-9.28,0,0-1.73,8.12,2.3,13.58,3.79,5.14,8.31,7.63,10.32,8.55-1.63,5.48-3.68,10.9-6.17,16.17.42-2.96.72-6.92-.13-9.66-2.11-6.84-10.35-11.43-10.35-11.43,0,0-3.18,7.86-.09,14.05,2.91,5.87,7.05,9.18,8.89,10.44-2.48,4.8-5.34,9.47-8.61,13.92.88-2.81,1.71-6.38,1.37-9.06-.9-7.25-8.37-13.32-8.37-13.32,0,0-4.58,7.33-2.58,14.1,1.84,6.24,5.27,10.26,6.95,11.93-3.19,4.25-6.66,8.2-10.36,11.85,1.37-2.66,2.81-6.06,2.94-8.79.37-7.44-6.05-14.87-6.05-14.87,0,0-5.91,6.56-5.09,13.71.73,6.52,3.4,11.12,4.81,13.15-3.76,3.41-7.39,6.7-11.48,9.54,1.51-2.03-1.49.37-3.71,2.02v-12.27h-114.82v12.27c-2.22-1.65-5.22-4.05-3.71-2.02-4.1-2.84-7.73-6.13-11.48-9.54,1.4-2.02,4.08-6.63,4.81-13.15.81-7.16-5.09-13.72-5.09-13.72,0,0-6.42,7.43-6.05,14.87.13,2.73,1.58,6.13,2.94,8.79-3.7-3.65-7.17-7.6-10.36-11.85,1.68-1.67,5.11-5.69,6.95-11.93,2-6.78-2.58-14.1-2.58-14.1,0,0-7.47,6.08-8.37,13.32-.34,2.68.49,6.25,1.37,9.06-3.27-4.45-6.13-9.11-8.61-13.92,1.84-1.26,5.98-4.57,8.89-10.45,3.08-6.2-.09-14.05-.09-14.05,0,0-8.24,4.6-10.35,11.43-.84,2.74-.55,6.7-.13,9.66-2.49-5.27-4.54-10.69-6.17-16.17,2.01-.92,6.53-3.42,10.32-8.55,4.03-5.46,2.3-13.58,2.3-13.58,0,0-8.74,3.04-11.93,9.28-1.24,2.42-1.64,6.12-1.75,9.02-1.45-5.57-2.49-11.19-3.14-16.75,2.09-.55,6.88-2.18,11.41-6.49,4.82-4.58,4.53-12.71,4.53-12.71,0,0-8.95,1.44-13.09,6.92-1.62,2.13-2.64,5.68-3.24,8.45-.5-5.82-.58-11.55-.28-17.11,1.96-.13,7.05-.81,12.36-4.34,5.43-3.6,6.53-11.5,6.53-11.5,0,0-8.87-.13-13.81,4.45-2.13,1.98-3.86,5.75-4.89,8.42.48-6.16,1.43-12.06,2.79-17.57,1.69.21,6.93.55,12.92-2.06,5.86-2.55,8.27-9.99,8.27-9.99,0,0-8.55-1.64-14.1,1.95-2.62,1.69-5.15,5.56-6.54,7.96.8-2.97,1.73-5.81,2.77-8.5,1.09-3.13,2.26-6.08,3.48-8.86,1.65.5,6.61,1.69,12.78.19,6.08-1.46,9.67-8.23,9.67-8.23,0,0-7.98-3.03-13.93-.52-2.78,1.17-6.36,4.03-7.59,6.48,3.41-6.75,5.85-11.41,8.73-15.78,1.23.65,5.96,2.88,12.5,2.47,6.12-.38,10.74-6.3,10.74-6.3,0,0-7.18-4.28-13.35-2.87-3.23.74-7.64,3.48-9.1,5.52,3.25-4.56,5.19-6.95,7.21-9.36,1.42-.12,5.85-.75,8.47-3.86,3.9-4.64,4.34-9.42,4.34-9.42,0,0-6.25,1.11-8.96,3.43-3.39,2.92-4.25,8.06-4.4,9.24-1.7,1.92-3.6,4.44-5.82,7.55,1.5-2.1,2.9-6.86,2.72-10.07-.35-6.33-6.44-12.05-6.44-12.05,0,0-4.42,6.07-3.1,12.06,1.43,6.49,4.79,10.26,5.69,11.2-3.04,4.24-6.15,9.63-9.25,15.82.65-2.64,1.52-7.09.82-10.08-1.47-6.3-8.61-10.97-8.61-10.97,0,0-3.36,6.88-.98,12.67,2.52,6.12,6.62,9.45,7.81,10.34-1.62,3.39-3.18,7.04-4.63,10.99-.68,1.69-1.31,3.44-1.9,5.24.12-2.78.05-6.62-1.03-9.13-2.59-6.07-10.59-9.5-10.59-9.5,0,0-2.17,7.51,1.25,12.9,3.39,5.35,7.74,7.99,9.4,8.86-1.52,5.28-2.66,10.98-3.36,16.94-.39-2.77-1.15-6.36-2.59-8.57-3.68-5.64-12.33-7.67-12.33-7.67,0,0-.84,7.93,3.55,12.74,4.34,4.76,9.17,6.65,10.99,7.23-.49,5.7-.58,11.62-.24,17.65-.88-2.74-2.3-6.34-4.19-8.36-4.7-5.02-13.75-5.52-13.75-5.52,0,0,.56,8.12,5.82,12.18,5.25,4.04,10.46,5.07,12.37,5.33.47,5.55,1.31,11.16,2.57,16.76-1.36-2.5-3.27-5.48-5.36-7.05-5.61-4.21-14.79-3.11-14.79-3.11,0,0,2,8.06,8.01,11.2,5.8,3.03,11.07,3.23,13.18,3.16,1.34,5.12,3.04,10.2,5.1,15.19-1.72-2.06-3.88-4.27-5.99-5.34-6.38-3.23-15.41-.51-15.41-.51,0,0,3.44,7.75,10.03,9.84,6.1,1.94,11.26,1.35,13.53.91,2.21,4.68,4.77,9.25,7.7,13.66-2.07-1.74-4.59-3.53-6.85-4.21-6.99-2.12-15.58,2.22-15.58,2.22,0,0,4.82,7.18,11.83,8.12,6.53.87,11.65-.68,13.82-1.52,2.86,4.12,5.97,7.99,9.31,11.6-2.35-1.34-5.1-2.61-7.42-2.89-7.4-.89-15.27,5-15.27,5,0,0,6.12,6.35,13.32,6.05,6.61-.28,11.43-2.67,13.51-3.92,3.59,3.49,7.38,6.71,11.32,9.66-2.62-.94-5.67-1.77-8.09-1.64-7.6.42-14.45,7.73-14.45,7.73,0,0,7.28,5.3,14.46,3.72,6.63-1.46,10.84-7.68,12.92-6.35,1.1.7,2.07,1.34,3,1.97v17.03c0,2.25,1.82,4.07,4.07,4.07h106.67c2.25,0,4.07-1.82,4.07-4.07v-17.03c.93-.62,1.91-1.27,3-1.97,2.08-1.33,6.29,4.89,12.92,6.35,7.18,1.58,14.46-3.72,14.46-3.72,0,0-6.86-7.31-14.45-7.73-2.42-.13-5.46.7-8.09,1.64,3.94-2.95,7.73-6.17,11.32-9.66,2.09,1.25,6.9,3.64,13.52,3.92,7.2.3,13.32-6.05,13.32-6.05,0,0-7.87-5.88-15.27-5-2.32.28-5.07,1.55-7.42,2.89,3.33-3.61,6.45-7.48,9.31-11.6,2.17.84,7.29,2.39,13.82,1.52,7-.94,11.83-8.12,11.83-8.12,0,0-8.59-4.34-15.58-2.22-2.26.68-4.78,2.47-6.85,4.21,2.93-4.41,5.49-8.98,7.7-13.66,2.27.44,7.43,1.03,13.53-.91,6.59-2.09,10.03-9.84,10.03-9.84,0,0-9.03-2.72-15.41.51-2.11,1.07-4.27,3.27-5.99,5.34,2.07-4.99,3.77-10.07,5.1-15.19,2.11.07,7.38-.13,13.18-3.16Zm-99.04,61.05h1.89l3.05,7.74v-7.74h1.93v12.78h-1.79l-3.15-8.04v8.04h-1.93v-12.78Zm-5.85-.04h2.11l2.79,12.82h-1.99l-.56-2.85h-2.65l-.56,2.85h-1.93l2.79-12.82Zm-9.02,6.23c0-4.42,1.81-6.28,4-6.28.68,0,1.04.09,1.55.31v1.86c-.5-.27-.9-.42-1.37-.42-1.23,0-2.17,1.19-2.17,4.51v.44c0,3.45.94,4.51,2.19,4.51.42,0,.88-.13,1.39-.4v1.77c-.5.27-1.02.38-1.71.38-2.19,0-3.88-1.9-3.88-6.28v-.4Zm-3.35-6.19h1.97v12.78h-1.97v-12.78Zm-14.36,0h5.2v1.7h-3.21v3.8h2.87v1.7h-2.87v3.89h3.27v1.7h-5.26v-12.78Zm-34.49,24.75c0,2.21-1.87,3.47-4.56,3.47h-1.99v-12.78h2.03c2.33,0,4.34,1,4.34,3.23v.07c0,1.72-1.08,2.54-2.19,2.96,1.33.42,2.37,1.26,2.37,2.92v.13Zm7.81-.13c0,2.52-1.39,3.76-3.35,3.76s-3.35-1.24-3.35-3.76v-9.19h1.97v9.35c0,1.33.56,1.94,1.39,1.94s1.41-.6,1.41-1.94v-9.35h1.95v9.19Zm6.97.58c0,1.88-1.47,3.14-3.29,3.14-.92,0-1.73-.24-2.47-.58v-1.9c.88.49,1.61.75,2.29.75.84,0,1.49-.44,1.49-1.31v-.04c0-.73-.26-1.26-1.55-2.67-1.73-1.88-2.35-2.68-2.35-4.13v-.04c0-1.88,1.41-3.12,3.21-3.12.94,0,1.55.16,2.17.46v1.9c-.76-.42-1.31-.62-1.95-.62-.8,0-1.45.49-1.45,1.3v.04c0,.71.26,1.1,1.55,2.48,1.87,2.01,2.35,2.87,2.35,4.31v.04Zm3.09,3.01h-1.97v-12.78h1.97v12.78Zm.28-15.43h-1.93l2.79-12.82h2.11l2.79,12.82h-1.99l-.56-2.85h-2.65l-.56,2.85Zm8.26,15.43h-1.79l-3.15-8.04v8.04h-1.93v-12.78h1.89l3.05,7.74v-7.74h1.93v12.78Zm.34-15.43h-1.89v-12.78h2.03l1.99,5.42,1.99-5.42h2.03v12.78h-1.91v-8.71l-2.09,5.63h-.06l-2.09-5.63v8.71Zm6.51,15.43h-5.26v-12.78h5.2v1.7h-3.21v3.8h2.87v1.7h-2.87v3.89h3.27v1.7Zm6.65-3.01c0,1.88-1.47,3.14-3.29,3.14-.92,0-1.73-.24-2.47-.58v-1.9c.88.49,1.61.75,2.29.75.84,0,1.49-.44,1.49-1.31v-.04c0-.73-.26-1.26-1.55-2.67-1.73-1.88-2.35-2.68-2.35-4.13v-.04c0-1.88,1.41-3.12,3.21-3.12.94,0,1.55.16,2.17.46v1.9c-.76-.42-1.31-.62-1.95-.62-.8,0-1.45.49-1.45,1.3v.04c0,.71.26,1.1,1.55,2.48,1.87,2.01,2.35,2.87,2.35,4.31v.04Zm6.37,0c0,1.88-1.47,3.14-3.29,3.14-.92,0-1.73-.24-2.47-.58v-1.9c.88.49,1.61.75,2.29.75.84,0,1.49-.44,1.49-1.31v-.04c0-.73-.26-1.26-1.55-2.67-1.73-1.88-2.35-2.68-2.35-4.13v-.04c0-1.88,1.41-3.12,3.21-3.12.94,0,1.55.16,2.17.46v1.9c-.76-.42-1.31-.62-1.95-.62-.8,0-1.45.49-1.45,1.3v.04c0,.71.26,1.1,1.55,2.48,1.87,2.01,2.35,2.87,2.35,4.31v.04Zm-.64-12.42l-1.89-4.68c-.08,0-.18.02-.26.02h-.52v4.66h-1.99v-12.78h2.29c2.49,0,4.26,1.26,4.26,3.98v.13c0,1.7-.78,2.81-1.89,3.42l2.13,5.26h-2.13Zm8.86,15.43l-.56-2.85h-2.65l-.56,2.85h-1.93l2.79-12.82h2.11l2.79,12.82h-1.99Zm9.26.05l-1.51-8.66-1.51,8.66h-2.03l-2.23-12.84h2.05l1.29,8.84,1.55-8.84h1.83l1.53,8.84,1.31-8.84h1.99l-2.21,12.84h-2.05Zm9.92-.05l-.56-2.85h-2.65l-.56,2.85h-1.93l2.79-12.82h2.11l2.79,12.82h-1.99Zm7.59,0l-1.89-4.68c-.08,0-.18.02-.26.02h-.52v4.66h-1.99v-12.78h2.29c2.49,0,4.26,1.26,4.26,3.98v.13c0,1.7-.78,2.81-1.89,3.42l2.13,5.26h-2.13Zm10.02-6.19c0,4.11-1.81,6.19-4.78,6.19h-2.11v-12.78h2.11c2.97,0,4.78,2.08,4.78,6.19v.4Zm6.63,3.18c0,1.88-1.47,3.14-3.29,3.14-.92,0-1.73-.24-2.47-.58v-1.9c.88.49,1.61.75,2.29.75.84,0,1.49-.44,1.49-1.31v-.04c0-.73-.26-1.26-1.55-2.67-1.73-1.88-2.35-2.68-2.35-4.13v-.04c0-1.88,1.41-3.12,3.21-3.12.94,0,1.55.16,2.17.46v1.9c-.76-.42-1.31-.62-1.95-.62-.8,0-1.45.49-1.45,1.3v.04c0,.71.26,1.1,1.55,2.48,1.87,2.01,2.35,2.87,2.35,4.31v.04Z"></path><polygon class="cls-1" points="274.29 305.5 276.34 305.5 275.32 300.37 274.29 305.5"></polygon><path class="cls-1" d="m298.52,298.87h-.28v4.82h.34c1.33,0,2.23-.73,2.23-2.37v-.11c0-1.75-.96-2.34-2.29-2.34Z"></path><polygon class="cls-1" points="317.52 300.37 316.5 305.5 318.55 305.5 317.52 300.37"></polygon><path class="cls-1" d="m250.95,319.75h-.24v4h.2c1.43,0,2.37-.69,2.37-1.94v-.07c0-1.28-.9-1.99-2.33-1.99Z"></path><path class="cls-1" d="m253.14,316.19v-.04c0-1.24-.86-1.86-2.15-1.86h-.28v3.89h.2c1.39,0,2.23-.71,2.23-1.99Z"></path><polygon class="cls-1" points="306.86 320.94 308.91 320.94 307.88 315.81 306.86 320.94"></polygon><polygon class="cls-1" points="326.04 320.94 328.09 320.94 327.07 315.81 326.04 320.94"></polygon><path class="cls-1" d="m334.16,314.31h-.28v4.82h.34c1.33,0,2.23-.73,2.23-2.37v-.11c0-1.75-.96-2.34-2.29-2.34Z"></path><path class="cls-1" d="m341.95,314.27h-.28v9.5h.3c1.45,0,2.59-1.22,2.59-4.55v-.4c0-3.32-1.17-4.55-2.61-4.55Z"></path><path class="cls-1" d="m353.33,313.53c.1-.23.24-.42.41-.58.17-.16.37-.28.6-.37.23-.09.46-.13.71-.13s.48.04.71.13c.23.09.43.21.6.37.17.16.31.35.41.58.1.23.15.48.15.75s-.05.53-.15.76c-.1.23-.24.42-.41.58-.17.16-.37.28-.6.37-.23.08-.46.13-.71.13s-.48-.04-.71-.13c-.23-.08-.43-.21-.6-.37-.17-.16-.31-.35-.41-.58-.1-.23-.15-.48-.15-.76s.05-.53.15-.75Zm.45,1.33c.07.18.17.33.29.46.12.13.27.23.44.3.17.07.35.11.54.11s.37-.04.54-.11c.17-.07.31-.17.44-.3.12-.13.22-.28.3-.46.07-.18.11-.37.11-.58s-.04-.4-.11-.57c-.07-.17-.17-.33-.3-.45-.12-.13-.27-.23-.44-.3-.17-.07-.35-.11-.54-.11s-.37.04-.54.11c-.17.07-.31.17-.44.3-.12.13-.22.28-.29.45-.07.17-.11.37-.11.57s.04.4.11.58Zm1.31-1.61c.26,0,.45.05.59.14.14.09.21.25.21.47,0,.1-.01.18-.04.24-.03.07-.07.12-.11.16-.05.04-.1.08-.17.1-.06.02-.13.04-.21.04l.55.89h-.43l-.5-.87h-.25v.87h-.4v-2.05h.77Zm0,.86c.12,0,.21-.02.29-.05.07-.03.11-.11.11-.23,0-.06-.01-.1-.04-.13-.03-.03-.06-.06-.1-.08-.04-.02-.09-.03-.14-.04-.05,0-.1-.01-.14-.01h-.34v.54h.36Z"></path></svg> 