<?xml version="1.0" encoding="UTF-8"?> <svg xmlns="http://www.w3.org/2000/svg" id="Layer_1" width="100" height="99.77" viewBox="0 0 100 99.77"><defs><style>.cls-1{fill:#39367f;}</style></defs><path class="cls-1" d="m28.08,75.91c-.05,0-.1-.05-.1-.11s.07-.14.15-.21c1.04-.98,2.51-2.23,2.51-3.92,0-1.26-.64-1.52-1.01-1.52-.32,0-.56.06-.78.29-.18.18-.31.56-.31.77,0,.08-.02.15-.1.15-.04,0-.06-.06-.07-.15,0-.07-.04-.74-.04-.97,0-.07,0-.1.09-.16.29-.16.69-.3,1.34-.3,1.3,0,1.86.77,1.86,1.7,0,1.55-1.59,2.9-2.55,3.73-.04.03-.02.06.02.06h.5c.13,0,1,0,1.27-.05.51-.06.75-.34.84-.71.02-.1.04-.13.09-.13.05,0,.06.07.06.15,0,.13-.14.87-.21,1.14-.06.22-.18.24-.64.24h-2.9Z"></path><path class="cls-1" d="m34.34,76.04c-1.49,0-1.98-1.82-1.98-2.96,0-1.86.7-3.31,2.09-3.31,1.49,0,1.98,1.68,1.98,2.95,0,2.03-.77,3.32-2.09,3.32Zm-.04-5.91c-.57,0-1.01.82-1.01,2.65,0,1.38.34,2.9,1.19,2.9.61,0,1.03-.87,1.03-2.65,0-1.46-.32-2.9-1.21-2.9Z"></path><path class="cls-1" d="m36.7,75.91c-.05,0-.1-.05-.1-.11s.07-.14.15-.21c1.04-.98,2.51-2.23,2.51-3.92,0-1.26-.64-1.52-1.01-1.52-.32,0-.56.06-.78.29-.18.18-.31.56-.31.77,0,.08-.02.15-.1.15-.04,0-.06-.06-.07-.15,0-.07-.04-.74-.04-.97,0-.07,0-.1.09-.16.29-.16.69-.3,1.34-.3,1.3,0,1.86.77,1.86,1.7,0,1.55-1.59,2.9-2.55,3.73-.04.03-.02.06.02.06h.5c.13,0,1,0,1.27-.05.51-.06.75-.34.84-.71.02-.1.04-.13.09-.13.05,0,.06.07.06.15,0,.13-.14.87-.21,1.14-.06.22-.18.24-.64.24h-2.9Z"></path><path class="cls-1" d="m41.1,75.85c-.11-.06-.13-.13-.13-.22,0-.38.02-.82.05-1,.02-.1.04-.15.08-.15s.07.05.07.11c0,.51.36,1.06,1.11,1.06s1.34-.42,1.34-1.37c0-1.07-.89-1.45-1.25-1.52-.19-.04-.24-.07-.24-.14,0-.06.05-.1.13-.11.33-.07,1.15-.4,1.15-1.34,0-.5-.23-1.02-.98-1.02-.58,0-1.03.38-1.03.85,0,.1-.03.12-.07.12-.03,0-.05-.02-.06-.11-.03-.26-.05-.62-.05-.8,0-.07,0-.1.1-.15.25-.12.7-.29,1.31-.29,1.42,0,1.68.81,1.68,1.25,0,.72-.57,1.18-1.08,1.38,0,0,0,.02,0,.02.55.14,1.32.61,1.32,1.58,0,1.12-.9,2.05-2.34,2.05-.53,0-.95-.09-1.12-.19Z"></path><path class="cls-1" d="m47.29,75.84c-.12-.06-.14-.1-.14-.27,0-.44.03-.92.04-1.05,0-.12.03-.21.09-.21.07,0,.07.07.07.14,0,.1.03.27.07.41.16.59.6.81,1.06.81.67,0,.99-.49.99-.91,0-.39-.11-.76-.73-1.28l-.34-.29c-.81-.69-1.1-1.25-1.1-1.9,0-.88.68-1.51,1.71-1.51.28,0,.5.03.68.06.13.02.22.05.3.07.07.02.1.04.1.1,0,.1-.03.34-.03.96,0,.18-.02.24-.08.24-.05,0-.07-.05-.07-.14,0-.07-.04-.32-.19-.53-.11-.15-.33-.39-.81-.39-.55,0-.88.34-.88.82,0,.37.17.65.78,1.15l.21.17c.9.73,1.21,1.28,1.21,2.04,0,.46-.16,1.02-.7,1.39-.37.26-.78.33-1.18.33-.43,0-.76-.06-1.08-.21Z"></path><path class="cls-1" d="m53.53,73.61c0,.74,0,1.37.04,1.71.02.22.07.4.29.43.1.02.27.03.38.03.08,0,.12.02.12.06,0,.06-.06.08-.14.08-.49,0-.96-.02-1.16-.02-.17,0-.64.02-.93.02-.1,0-.15-.02-.15-.08,0-.04.03-.06.12-.06.11,0,.2-.02.27-.03.15-.03.19-.21.21-.44.04-.34.04-.97.04-1.7v-3.28c-.28,0-.74.02-1.1.03-.43.02-.61.06-.72.23-.07.12-.11.22-.13.28-.02.06-.04.1-.08.1-.05,0-.07-.04-.07-.13,0-.13.14-.86.16-.92.02-.1.04-.15.09-.15.06,0,.13.08.32.1.21.02.5.04.74.04h2.93c.24,0,.4-.02.51-.04.11-.02.17-.04.2-.04.05,0,.06.05.06.17,0,.17-.02.72-.02.93,0,.08-.02.13-.07.13-.06,0-.07-.04-.08-.16,0-.02,0-.06,0-.09-.01-.21-.21-.43-.87-.45-.19,0-.5-.02-.93-.02v3.28Z"></path><path class="cls-1" d="m56.57,72.21c0-1.22,0-1.44-.02-1.69-.01-.27-.07-.4-.32-.46-.06-.02-.19-.02-.29-.02-.08,0-.13-.02-.13-.07s.05-.07.16-.07c.34,0,.68.02,1.07.02.24,0,1.71,0,1.85,0,.14-.02.26-.03.32-.05.04,0,.08-.03.12-.03s.04.03.04.07c0,.06-.04.15-.06.52,0,.08-.02.43-.04.53,0,.04-.02.09-.07.09s-.07-.05-.07-.14c0-.03,0-.16-.04-.26-.05-.14-.13-.24-.5-.29-.13-.02-.9-.03-1.05-.03-.04,0-.05.02-.05.08v2.02c0,.06,0,.09.05.09.16,0,1.01,0,1.18-.02.18-.02.29-.04.36-.12.05-.06.08-.1.12-.1.03,0,.05.02.05.06s-.03.18-.06.58c0,.16-.03.48-.03.54,0,.06,0,.15-.07.15-.05,0-.07-.09-.07-.13,0-.08,0-.13-.03-.23-.04-.16-.14-.28-.41-.31-.14-.02-.87-.02-1.05-.02-.04,0-.04.03-.04.08v.63c0,.27,0,1.01,0,1.24.02.55.13.67.89.67.19,0,.5,0,.7-.1.19-.1.28-.26.33-.59.01-.09.03-.12.08-.12.06,0,.06.06.06.14,0,.18-.06.73-.1.89-.05.21-.12.21-.4.21-.66,0-1.31-.05-2.05-.05-.3,0-.6.02-.93.02-.1,0-.15-.02-.15-.08,0-.04.03-.06.12-.06.11,0,.2-.02.27-.03.15-.03.19-.21.21-.44.04-.34.04-.97.04-1.7v-1.41Z"></path><path class="cls-1" d="m60.47,70.67c-.17-.44-.3-.53-.56-.61-.11-.03-.23-.03-.29-.03-.07,0-.09-.02-.09-.07,0-.06.08-.07.19-.07.39,0,.81.02,1.07.02.19,0,.54-.02.91-.02.09,0,.17.02.17.07s-.04.07-.11.07c-.12,0-.23,0-.29.06-.05.04-.07.1-.07.17,0,.1.07.33.17.62.41,1.15.9,2.57,1.29,3.67.32-.88,1.29-3.49,1.47-4.02.04-.1.07-.22.07-.3,0-.06-.03-.13-.1-.15-.09-.03-.2-.04-.3-.04-.07,0-.13,0-.13-.06,0-.06.07-.08.21-.08.37,0,.68.02.78.02.13,0,.47-.02.7-.02.1,0,.16.02.16.07s-.04.07-.12.07-.23,0-.36.1c-.1.07-.21.21-.41.72-.29.75-.49,1.18-.89,2.17-.47,1.17-.82,2.04-.98,2.44-.19.46-.24.59-.34.59-.1,0-.14-.11-.28-.49l-1.87-4.89Z"></path><path class="cls-1" d="m66.22,72.21c0-1.22,0-1.44-.02-1.69-.01-.27-.09-.41-.25-.45-.08-.02-.18-.03-.27-.03-.07,0-.12-.02-.12-.08,0-.05.06-.06.18-.06.28,0,.75.02.96.02.19,0,.62-.02.9-.02.1,0,.16.02.16.06,0,.06-.04.08-.12.08s-.13,0-.22.02c-.2.04-.26.18-.27.46-.01.26-.01.48-.01,1.69v1.41c0,.78,0,1.41.03,1.75.02.22.07.36.3.39.1.02.27.03.38.03.08,0,.12.02.12.06,0,.06-.06.08-.14.08-.49,0-.95-.02-1.15-.02-.17,0-.64.02-.93.02-.1,0-.15-.02-.15-.08,0-.04.03-.06.12-.06.11,0,.2-.02.27-.03.15-.03.19-.17.21-.4.04-.34.04-.97.04-1.74v-1.41Z"></path><path class="cls-1" d="m69,72.21c0-1.22,0-1.44-.02-1.69-.01-.27-.07-.4-.32-.46-.06-.02-.19-.02-.29-.02-.08,0-.13-.02-.13-.07s.05-.07.16-.07c.34,0,.68.02,1.07.02.24,0,1.71,0,1.85,0,.14-.02.26-.03.32-.05.04,0,.08-.03.12-.03s.04.03.04.07c0,.06-.04.15-.06.52,0,.08-.02.43-.04.53,0,.04-.02.09-.07.09s-.07-.05-.07-.14c0-.03,0-.16-.04-.26-.05-.14-.13-.24-.5-.29-.13-.02-.9-.03-1.05-.03-.04,0-.05.02-.05.08v2.02c0,.06,0,.09.05.09.16,0,1.01,0,1.18-.02.18-.02.29-.04.36-.12.05-.06.08-.1.12-.1.03,0,.05.02.05.06s-.03.18-.06.58c0,.16-.03.48-.03.54,0,.06,0,.15-.07.15-.05,0-.07-.09-.07-.13,0-.08,0-.13-.03-.23-.04-.16-.14-.28-.41-.31-.14-.02-.87-.02-1.05-.02-.04,0-.04.03-.04.08v.63c0,.27,0,1.01,0,1.24.02.55.13.67.89.67.19,0,.5,0,.7-.1.19-.1.28-.26.33-.59.01-.09.03-.12.08-.12.06,0,.06.06.06.14,0,.18-.06.73-.1.89-.05.21-.12.21-.4.21-.66,0-1.31-.05-2.05-.05-.3,0-.6.02-.93.02-.1,0-.15-.02-.15-.08,0-.04.03-.06.12-.06.11,0,.2-.02.27-.03.15-.03.19-.21.21-.44.04-.34.04-.97.04-1.7v-1.41Z"></path><path class="cls-1" d="m72.12,70.39c0-.43.33-.75.78-.75s.78.31.78.75-.33.74-.78.74-.78-.32-.78-.74Zm1.4,0c0-.37-.26-.6-.62-.6s-.62.23-.62.6.26.6.63.6.61-.25.61-.6Zm-.94-.12v-.21c0-.05-.03-.06-.1-.06,0,0-.02,0-.02-.03,0-.03.02-.03.04-.03h.03s.09,0,.14,0c.08,0,.11,0,.2,0,.14,0,.37.03.37.23,0,.09-.03.15-.18.26l.15.18c.11.13.13.13.14.13s.03,0,.03.03c0,.03,0,.03-.08.03-.11,0-.2,0-.33-.16l-.12-.16h-.1v.08c0,.15,0,.17.02.18.02,0,.06,0,.09,0,.02,0,.03,0,.03.03s-.02.03-.03.03h-.03s-.09,0-.14,0c-.03,0-.11,0-.13,0h-.04s-.06,0-.06-.03c0-.02,0-.03.03-.03.08,0,.09,0,.09-.05,0-.04,0-.1,0-.22v-.19Zm.19.09s.09.03.12.03c.03,0,.05,0,.08-.02.04-.03.08-.08.08-.14,0-.1-.08-.19-.2-.19,0,0-.06,0-.08.02v.31Z"></path><path class="cls-1" d="m33.34,78.64c-.1-.3-.18-.49-.3-.57-.09-.06-.25-.07-.32-.07-.08,0-.13,0-.13-.07,0-.06.06-.07.18-.07.42,0,.86.02.93.02s.42-.02.89-.02c.11,0,.17.02.17.07,0,.06-.06.07-.14.07-.06,0-.14,0-.2.03-.07.03-.09.09-.09.18,0,.1.08.38.18.74.14.53.88,2.96,1.03,3.41h.02l1.55-4.18c.08-.22.14-.29.2-.29.09,0,.13.12.23.38l1.67,4.03h.02c.14-.54.79-2.65,1.07-3.59.06-.18.08-.35.08-.46,0-.13-.07-.24-.38-.24-.08,0-.14-.02-.14-.07,0-.06.06-.07.18-.07.42,0,.76.02.83.02.06,0,.4-.02.67-.02.09,0,.14.02.14.06,0,.06-.04.08-.11.08-.08,0-.19,0-.28.04-.19.07-.28.39-.45.85-.37,1.01-1.21,3.56-1.6,4.76-.09.28-.13.38-.23.38-.08,0-.13-.1-.25-.39l-1.67-4.01h-.02c-.15.41-1.22,3.25-1.56,3.98-.15.33-.19.42-.29.42-.08,0-.11-.09-.18-.3l-1.7-5.09Z"></path><path class="cls-1" d="m42.34,80.18c0-1.22,0-1.44-.02-1.7-.02-.27-.1-.41-.27-.45-.09-.02-.19-.03-.29-.03-.08,0-.13-.02-.13-.08,0-.05.06-.06.19-.06.3,0,.81.02,1.04.02.2,0,.67-.02.98-.02.1,0,.17.02.17.06,0,.06-.05.08-.13.08s-.14,0-.24.02c-.22.04-.28.18-.3.46-.02.26-.02.48-.02,1.7v1.41c0,.78,0,1.41.03,1.75.02.22.08.36.32.39.11.02.29.03.41.03.09,0,.13.02.13.06,0,.06-.06.08-.15.08-.53,0-1.03-.02-1.25-.02-.18,0-.69.02-1.01.02-.1,0-.16-.02-.16-.08,0-.04.03-.06.13-.06.12,0,.22-.02.29-.03.16-.03.21-.17.23-.4.04-.34.04-.97.04-1.75v-1.41Z"></path><path class="cls-1" d="m45.85,82.82c.02.63.12.83.28.89.14.05.29.06.42.06.09,0,.14.02.14.06,0,.06-.07.08-.18.08-.52,0-.84-.02-.99-.02-.07,0-.45.02-.87.02-.1,0-.18,0-.18-.08,0-.05.05-.06.13-.06.1,0,.25,0,.36-.04.21-.06.24-.3.25-.99l.07-4.74c0-.16.02-.27.1-.27.09,0,.16.1.3.25.1.1,1.31,1.41,2.48,2.57.54.54,1.63,1.7,1.76,1.83h.04l-.08-3.6c0-.49-.08-.64-.27-.72-.12-.05-.31-.05-.42-.05-.1,0-.13-.02-.13-.07,0-.06.09-.07.21-.07.42,0,.8.02.97.02.09,0,.39-.02.79-.02.1,0,.18,0,.18.07,0,.05-.05.07-.14.07-.08,0-.14,0-.24.02-.22.06-.29.23-.3.68l-.09,5.06c0,.18-.03.25-.1.25-.09,0-.18-.09-.27-.18-.5-.48-1.53-1.53-2.36-2.36-.87-.87-1.76-1.87-1.91-2.02h-.02l.09,3.37Z"></path><path class="cls-1" d="m52.56,82.82c.02.63.12.83.28.89.14.05.29.06.42.06.09,0,.14.02.14.06,0,.06-.07.08-.18.08-.52,0-.84-.02-.99-.02-.07,0-.45.02-.87.02-.1,0-.18,0-.18-.08,0-.05.05-.06.13-.06.1,0,.25,0,.36-.04.21-.06.24-.3.25-.99l.07-4.74c0-.16.02-.27.1-.27.09,0,.16.1.3.25.1.1,1.31,1.41,2.48,2.57.54.54,1.63,1.7,1.76,1.83h.04l-.08-3.6c0-.49-.08-.64-.27-.72-.12-.05-.31-.05-.42-.05-.1,0-.13-.02-.13-.07,0-.06.09-.07.21-.07.42,0,.8.02.97.02.09,0,.39-.02.79-.02.1,0,.18,0,.18.07,0,.05-.05.07-.14.07-.08,0-.14,0-.24.02-.22.06-.29.23-.3.68l-.09,5.06c0,.18-.03.25-.1.25-.09,0-.18-.09-.27-.18-.51-.48-1.53-1.53-2.36-2.36-.87-.87-1.76-1.87-1.91-2.02h-.02l.09,3.37Z"></path><path class="cls-1" d="m59.14,80.18c0-1.22,0-1.44-.02-1.7-.02-.27-.08-.4-.34-.46-.06-.02-.2-.02-.31-.02-.09,0-.14-.02-.14-.07s.06-.07.18-.07c.22,0,.45,0,.65,0,.21,0,.39.02.5.02.26,0,1.85,0,2,0,.15-.02.28-.03.34-.05.04,0,.09-.03.13-.03s.05.03.05.07c0,.06-.04.15-.06.52,0,.08-.02.43-.04.53,0,.04-.02.09-.08.09s-.07-.04-.07-.11c0-.06,0-.19-.05-.29-.06-.14-.14-.24-.54-.29-.14-.02-.98-.03-1.14-.03-.04,0-.06.02-.06.08v2.03c0,.06,0,.09.06.09.18,0,1.1,0,1.28-.02.19-.02.31-.04.38-.12.06-.06.09-.1.13-.1.03,0,.06.02.06.06s-.03.18-.06.59c0,.16-.03.48-.03.54,0,.06,0,.15-.07.15-.06,0-.07-.03-.07-.07,0-.08,0-.18-.03-.29-.04-.16-.15-.28-.45-.31-.15-.02-.95-.02-1.14-.02-.04,0-.05.03-.05.08v.63c0,.27,0,1.01,0,1.24.02.55.14.67.96.67.21,0,.54,0,.75-.1.21-.1.3-.26.36-.59.02-.09.03-.12.09-.12.06,0,.06.06.06.14,0,.18-.06.73-.1.89-.06.21-.13.21-.43.21-.6,0-1.04-.02-1.39-.02-.34-.02-.59-.02-.83-.02-.09,0-.26,0-.46,0-.18,0-.39.02-.55.02-.1,0-.16-.02-.16-.08,0-.04.03-.06.13-.06.12,0,.22-.02.29-.03.16-.03.2-.21.23-.44.04-.34.04-.97.04-1.71v-1.41Z"></path><path class="cls-1" d="m63.64,80.18c0-1.22,0-1.44-.02-1.7-.02-.27-.08-.4-.34-.46-.06-.02-.2-.02-.31-.02-.09,0-.14-.02-.14-.07s.06-.07.18-.07c.42,0,.93.02,1.1.02.27,0,.88-.02,1.13-.02.51,0,1.04.05,1.47.34.22.15.54.56.54,1.1,0,.59-.25,1.14-1.06,1.8.71.9,1.27,1.61,1.74,2.11.45.46.78.52.9.54.09.02.16.02.22.02s.1.02.1.06c0,.06-.06.08-.15.08h-.76c-.45,0-.65-.04-.86-.15-.34-.18-.65-.56-1.1-1.18-.32-.44-.69-.99-.79-1.11-.04-.05-.09-.06-.14-.06l-.7-.02s-.06.02-.06.06v.11c0,.75,0,1.38.04,1.71.02.23.07.41.31.44.12.02.3.03.39.03.06,0,.1.02.1.06,0,.06-.06.08-.16.08-.46,0-1.06-.02-1.18-.02-.15,0-.66.02-.98.02-.1,0-.16-.02-.16-.08,0-.04.03-.06.13-.06.12,0,.22-.02.29-.03.16-.03.2-.21.23-.44.04-.34.04-.97.04-1.71v-1.41Zm.95.63c0,.09.02.12.07.14.17.06.41.08.61.08.32,0,.42-.03.57-.14.24-.18.47-.54.47-1.2,0-1.14-.75-1.47-1.23-1.47-.2,0-.34,0-.42.03-.06.02-.07.05-.07.11v2.44Z"></path><path class="cls-1" d="m47,60.67c-1.05,0-1.75.85-1.75,1.85v.02c0,1,.72,1.87,1.77,1.87s1.76-.85,1.76-1.85v-.02c0-1-.72-1.87-1.78-1.87Z"></path><path class="cls-1" d="m60.36,60.78h-.78v3.52h.78c1.15,0,1.91-.63,1.91-1.75v-.02c0-1.11-.76-1.75-1.91-1.75Z"></path><path class="cls-1" d="m70.5,56.95h-15.51l.08-.28h-.04s.01-.04.02-.06c1.09-3.11,3.51-9.96,3.97-11.7,0,0,.94-4.2,1.32-7.31s1.25-9.87,2.18-13.16c.94-3.29,2.95-4.87,5.69-6.86.46-.33-.03-.91-.57-.56-.07.04-.14.08-.22.12-.57.27-1.46.43-2.23.69-.88.29-1.27-.17-1.81,1.38-.1.28-.23.53-.37.77L49.88,0l-13.05,19.8c-.1-.19-.19-.39-.27-.6-.54-1.55-.93-1.09-1.81-1.38-.76-.25-1.63-.41-2.2-.67-.09-.04-.17-.09-.25-.13-.54-.34-1.03.23-.57.56,2.74,1.98,4.75,3.56,5.69,6.86.94,3.29,1.79,10.05,2.18,13.16s1.32,7.31,1.32,7.31c.47,1.74,2.88,8.59,3.97,11.7.04.12.07.23.1.35h-15.51c-.87,0-1.58.71-1.58,1.58v9.46h44.16v-9.46c0-.87-.71-1.58-1.58-1.58Zm-29-22.94c-.88-4.08-1.42-7.64-1.32-8.27.1-.63.24-1.67.34-2.41.09-.66-.47-1.22-1.2-1.51h21.31c-.73.28-1.29.85-1.2,1.51.1.75.24,1.78.34,2.41.1.63-.44,4.19-1.32,8.27-.88,4.08-1.96,7.93-3.53,10.45-1.15,1.86-1.75,2.32-2.22,2.23-.17-.03-.32-.14-.48-.27-.48-.43-.83-1.16-.78-1.95.01-.17.04-.34.09-.52,1.27-2.07,1.67-3.33,1.67-4.65s.04-4.61-2.87-4.87c-.12,0-.23-.02-.36-.02-3.28,0-3.23,3.56-3.23,4.88s.39,2.58,1.67,4.65c.05.17.08.35.09.52.05.79-.3,1.53-.78,1.95-.59.52-1.13.57-2.69-1.95-1.57-2.53-2.64-6.38-3.53-10.45Zm1.03,31.06c-.73.6-1.75,1.07-3.01,1.07-2.16,0-3.77-1.48-3.77-3.58v-.02c0-2.02,1.58-3.6,3.73-3.6,1.22,0,2.08.38,2.81,1.01l-1.13,1.36c-.49-.42-.99-.65-1.67-.65-1,0-1.77.84-1.77,1.9v.02c0,1.12.78,1.92,1.88,1.92.46,0,.82-.1,1.11-.29v-.84h-1.37v-1.4h3.19v3.12Zm8.2-2.53c0,1.99-1.6,3.6-3.74,3.6s-3.72-1.59-3.72-3.58v-.02c0-1.99,1.6-3.6,3.74-3.6s3.72,1.59,3.72,3.58v.02Zm6.18,3.46h-5.27v-6.93h1.92v5.24h3.35v1.68Zm7.31-3.48c0,2-1.45,3.48-3.95,3.48h-2.63v-6.93h2.67c2.47,0,3.91,1.42,3.91,3.42v.02Z"></path><path class="cls-1" d="m96.68,63.79c2.31-1.21,3.08-4.31,3.08-4.31,0,0-3.53-.42-5.69,1.2-.8.6-1.54,1.75-2.06,2.71.48-2.15.81-4.31.99-6.44.73-.1,2.74-.49,4.76-2.05,2.02-1.56,2.24-4.68,2.24-4.68,0,0-3.48.2-5.29,2.12-.73.78-1.28,2.16-1.61,3.22.13-2.32.1-4.59-.09-6.79.7-.22,2.56-.95,4.23-2.78,1.69-1.85,1.37-4.9,1.37-4.9,0,0-3.33.78-4.74,2.95-.56.85-.85,2.23-1,3.3-.27-2.29-.7-4.49-1.29-6.52.64-.33,2.31-1.35,3.61-3.41,1.32-2.07.48-4.96.48-4.96,0,0-3.08,1.32-4.07,3.65-.41.97-.44,2.44-.39,3.51-.23-.69-.47-1.37-.73-2.02-.56-1.52-1.16-2.92-1.78-4.23.46-.34,2.04-1.62,3.01-3.98.92-2.23-.38-4.87-.38-4.87,0,0-2.74,1.79-3.31,4.22-.27,1.15.06,2.86.32,3.88-1.19-2.38-2.39-4.45-3.56-6.09.35-.36,1.64-1.81,2.19-4.31.51-2.3-1.19-4.64-1.19-4.64,0,0-2.34,2.2-2.48,4.64-.07,1.23.47,3.07,1.05,3.87-.85-1.2-1.58-2.17-2.24-2.9-.06-.45-.39-2.43-1.69-3.55-1.04-.89-3.44-1.32-3.44-1.32,0,0,.17,1.84,1.67,3.62,1.01,1.2,2.71,1.44,3.26,1.49.78.93,1.52,1.85,2.77,3.6-.56-.78-2.26-1.84-3.5-2.12-2.37-.54-5.14,1.11-5.14,1.11,0,0,1.78,2.28,4.13,2.42,2.52.16,4.33-.7,4.81-.95,1.11,1.68,2.05,3.47,3.36,6.07-.47-.94-1.85-2.04-2.92-2.49-2.29-.97-5.36.2-5.36.2,0,0,1.38,2.6,3.72,3.17,2.37.57,4.28.12,4.91-.07.47,1.07.92,2.2,1.34,3.41.4,1.03.76,2.13,1.07,3.27-.54-.93-1.51-2.41-2.52-3.06-2.13-1.38-5.42-.75-5.42-.75,0,0,.93,2.86,3.18,3.84,2.3,1.01,4.32.87,4.97.79.52,2.12.89,4.39,1.07,6.76-.4-1.03-1.06-2.48-1.88-3.24-1.9-1.76-5.31-1.71-5.31-1.71,0,0,.42,3.04,2.51,4.42,2.05,1.36,4,1.62,4.75,1.67.11,2.14.08,4.34-.11,6.58-.23-1.07-.62-2.43-1.24-3.25-1.6-2.11-5.04-2.66-5.04-2.66,0,0-.11,3.13,1.74,4.89,1.74,1.66,3.58,2.29,4.39,2.5-.25,2.14-.65,4.3-1.21,6.44-.04-1.11-.2-2.54-.67-3.47-1.23-2.4-4.59-3.57-4.59-3.57,0,0-.67,3.12.88,5.22,1.46,1.98,3.2,2.94,3.97,3.29-.63,2.11-1.42,4.19-2.37,6.22.16-1.14.28-2.66-.05-3.72-.81-2.63-3.98-4.4-3.98-4.4,0,0-1.22,3.02-.04,5.4,1.12,2.26,2.71,3.53,3.42,4.02-.95,1.85-2.05,3.64-3.31,5.35.34-1.08.66-2.45.53-3.49-.35-2.79-3.22-5.12-3.22-5.12,0,0-1.76,2.82-.99,5.42.71,2.4,2.03,3.95,2.67,4.59-1.23,1.64-2.56,3.15-3.98,4.56.53-1.02,1.08-2.33,1.13-3.38.14-2.86-2.33-5.72-2.33-5.72,0,0-2.27,2.52-1.96,5.27.28,2.51,1.31,4.28,1.85,5.06-1.44,1.31-2.84,2.58-4.42,3.67.58-.78-.57.14-1.43.78v-4.72H27.92v4.72c-.85-.63-2.01-1.56-1.43-.78-1.58-1.09-2.97-2.36-4.42-3.67.54-.78,1.57-2.55,1.85-5.06.31-2.75-1.96-5.28-1.96-5.28,0,0-2.47,2.86-2.33,5.72.05,1.05.61,2.36,1.13,3.38-1.42-1.4-2.76-2.92-3.98-4.56.65-.64,1.96-2.19,2.67-4.59.77-2.61-.99-5.42-.99-5.42,0,0-2.87,2.34-3.22,5.12-.13,1.03.19,2.4.53,3.48-1.26-1.71-2.36-3.51-3.31-5.35.71-.49,2.3-1.76,3.42-4.02,1.19-2.38-.04-5.4-.04-5.4,0,0-3.17,1.77-3.98,4.4-.32,1.05-.21,2.58-.05,3.72-.96-2.03-1.75-4.11-2.37-6.22.77-.35,2.51-1.31,3.97-3.29,1.55-2.1.88-5.22.88-5.22,0,0-3.36,1.17-4.59,3.57-.48.93-.63,2.36-.67,3.47-.56-2.14-.96-4.3-1.21-6.44.81-.21,2.65-.84,4.39-2.5,1.85-1.76,1.74-4.89,1.74-4.89,0,0-3.44.55-5.04,2.66-.62.82-1.02,2.18-1.24,3.25-.19-2.24-.22-4.44-.11-6.58.75-.05,2.71-.31,4.76-1.67,2.09-1.39,2.51-4.42,2.51-4.42,0,0-3.41-.05-5.31,1.71-.82.76-1.48,2.21-1.88,3.24.19-2.37.55-4.64,1.07-6.76.65.08,2.66.21,4.97-.79,2.25-.98,3.18-3.84,3.18-3.84,0,0-3.29-.63-5.42.75-1.01.65-1.98,2.14-2.52,3.06.31-1.14.66-2.23,1.06-3.27.42-1.21.87-2.34,1.34-3.41.63.19,2.54.65,4.92.07,2.34-.56,3.72-3.17,3.72-3.17,0,0-3.07-1.17-5.36-.2-1.07.45-2.45,1.55-2.92,2.49,1.31-2.6,2.25-4.39,3.36-6.07.47.25,2.29,1.11,4.81.95,2.35-.15,4.13-2.42,4.13-2.42,0,0-2.76-1.65-5.14-1.11-1.24.28-2.94,1.34-3.5,2.12,1.25-1.75,2-2.67,2.77-3.6.55-.05,2.25-.29,3.26-1.49,1.5-1.79,1.67-3.62,1.67-3.62,0,0-2.4.43-3.44,1.32-1.3,1.12-1.64,3.1-1.69,3.55-.65.74-1.38,1.71-2.24,2.9.58-.81,1.12-2.64,1.05-3.87-.13-2.44-2.48-4.64-2.48-4.64,0,0-1.7,2.33-1.19,4.64.55,2.5,1.84,3.95,2.19,4.31-1.17,1.63-2.36,3.7-3.56,6.09.25-1.02.58-2.73.32-3.88-.56-2.42-3.31-4.22-3.31-4.22,0,0-1.29,2.65-.38,4.87.97,2.35,2.54,3.64,3.01,3.98-.62,1.3-1.22,2.71-1.78,4.23-.26.65-.5,1.32-.73,2.02.05-1.07.02-2.55-.39-3.51-1-2.34-4.07-3.65-4.07-3.65,0,0-.83,2.89.48,4.96,1.3,2.06,2.98,3.07,3.61,3.41-.59,2.03-1.02,4.22-1.29,6.52-.15-1.06-.44-2.44-1-3.3-1.42-2.17-4.74-2.95-4.74-2.95,0,0-.32,3.05,1.37,4.9,1.67,1.83,3.53,2.56,4.23,2.78-.19,2.19-.22,4.47-.09,6.79-.34-1.06-.88-2.44-1.61-3.22-1.81-1.93-5.29-2.12-5.29-2.12,0,0,.21,3.12,2.24,4.68,2.02,1.55,4.02,1.95,4.76,2.05.18,2.13.51,4.29.99,6.44-.52-.96-1.26-2.11-2.06-2.71-2.16-1.62-5.69-1.2-5.69-1.2,0,0,.77,3.1,3.08,4.31,2.23,1.17,4.26,1.24,5.07,1.22.51,1.97,1.17,3.92,1.96,5.84-.66-.79-1.49-1.64-2.3-2.05-2.45-1.24-5.93-.19-5.93-.19,0,0,1.32,2.98,3.86,3.78,2.35.75,4.33.52,5.21.35.85,1.8,1.84,3.56,2.96,5.25-.8-.67-1.77-1.36-2.63-1.62-2.69-.82-5.99.85-5.99.85,0,0,1.86,2.76,4.55,3.12,2.51.34,4.48-.26,5.31-.58,1.1,1.58,2.3,3.07,3.58,4.46-.9-.52-1.96-1-2.85-1.11-2.85-.34-5.87,1.92-5.87,1.92,0,0,2.35,2.44,5.12,2.33,2.54-.11,4.39-1.03,5.2-1.51,1.38,1.34,2.84,2.58,4.35,3.72-1.01-.36-2.18-.68-3.11-.63-2.92.16-5.56,2.97-5.56,2.97,0,0,2.8,2.04,5.56,1.43,2.55-.56,4.17-2.95,4.97-2.44.42.27.79.52,1.15.76v6.55c0,.87.7,1.57,1.57,1.57h41.03c.87,0,1.57-.7,1.57-1.57v-6.55c.36-.24.73-.49,1.15-.76.8-.51,2.42,1.88,4.97,2.44,2.76.61,5.56-1.43,5.56-1.43,0,0-2.64-2.81-5.56-2.97-.93-.05-2.1.27-3.11.63,1.52-1.14,2.97-2.37,4.35-3.72.8.48,2.65,1.4,5.2,1.51,2.77.12,5.12-2.33,5.12-2.33,0,0-3.03-2.26-5.87-1.92-.89.11-1.95.6-2.85,1.11,1.28-1.39,2.48-2.88,3.58-4.46.84.32,2.8.92,5.31.58,2.69-.36,4.55-3.12,4.55-3.12,0,0-3.31-1.67-5.99-.85-.87.26-1.84.95-2.64,1.62,1.13-1.69,2.11-3.45,2.96-5.25.87.17,2.86.4,5.21-.35,2.54-.8,3.86-3.78,3.86-3.78,0,0-3.47-1.05-5.93.19-.81.41-1.64,1.26-2.3,2.05.79-1.92,1.45-3.87,1.96-5.84.81.03,2.84-.05,5.07-1.22Zm-38.09,23.48h.73l1.17,2.98v-2.98h.74v4.92h-.69l-1.21-3.09v3.09h-.74v-4.92Zm-2.25-.01h.81l1.07,4.93h-.76l-.22-1.1h-1.02l-.22,1.1h-.74l1.07-4.93Zm-3.47,2.4c0-1.7.7-2.42,1.54-2.42.26,0,.4.04.59.12v.72c-.19-.11-.35-.16-.53-.16-.47,0-.83.46-.83,1.73v.17c0,1.33.36,1.73.84,1.73.16,0,.34-.05.53-.15v.68c-.19.11-.39.15-.66.15-.84,0-1.49-.73-1.49-2.42v-.15Zm-1.29-2.38h.76v4.92h-.76v-4.92Zm-5.52,0h2v.65h-1.24v1.46h1.1v.65h-1.1v1.5h1.26v.65h-2.02v-4.92Zm-13.27,9.52c0,.85-.72,1.33-1.75,1.33h-.76v-4.92h.78c.9,0,1.67.39,1.67,1.24v.03c0,.66-.42.98-.84,1.14.51.16.91.48.91,1.12v.05Zm3.01-.05c0,.97-.53,1.45-1.29,1.45s-1.29-.48-1.29-1.45v-3.53h.76v3.6c0,.51.22.74.53.74s.54-.23.54-.74v-3.6h.75v3.53Zm2.68.22c0,.72-.56,1.21-1.27,1.21-.36,0-.66-.09-.95-.22v-.73c.34.19.62.29.88.29.32,0,.57-.17.57-.51h0c0-.3-.1-.5-.59-1.04-.66-.72-.9-1.03-.9-1.59h0c0-.74.54-1.22,1.24-1.22.36,0,.6.06.83.18v.73c-.29-.16-.5-.24-.75-.24-.31,0-.56.19-.56.5h0c0,.29.1.44.59.97.72.77.9,1.1.9,1.66h0Zm1.19,1.16h-.76v-4.92h.76v4.92Zm.11-5.94h-.74l1.07-4.93h.81l1.07,4.93h-.76l-.22-1.1h-1.02l-.22,1.1Zm3.18,5.94h-.69l-1.21-3.09v3.09h-.74v-4.92h.73l1.17,2.98v-2.98h.74v4.92Zm.13-5.94h-.73v-4.92h.78l.76,2.09.76-2.09h.78v4.92h-.73v-3.35l-.8,2.16h-.02l-.8-2.16v3.35Zm2.5,5.94h-2.02v-4.92h2v.65h-1.24v1.46h1.1v.65h-1.1v1.5h1.26v.65Zm2.56-1.16c0,.72-.56,1.21-1.27,1.21-.36,0-.66-.09-.95-.22v-.73c.34.19.62.29.88.29.32,0,.57-.17.57-.51h0c0-.3-.1-.5-.59-1.04-.66-.72-.9-1.03-.9-1.59h0c0-.74.54-1.22,1.24-1.22.36,0,.6.06.83.18v.73c-.29-.16-.5-.24-.75-.24-.31,0-.56.19-.56.5h0c0,.29.1.44.59.97.72.77.9,1.1.9,1.66h0Zm2.45,0c0,.72-.56,1.21-1.27,1.21-.36,0-.66-.09-.95-.22v-.73c.34.19.62.29.88.29.32,0,.57-.17.57-.51h0c0-.3-.1-.5-.59-1.04-.66-.72-.9-1.03-.9-1.59h0c0-.74.54-1.22,1.24-1.22.36,0,.6.06.83.18v.73c-.29-.16-.5-.24-.75-.24-.31,0-.56.19-.56.5h0c0,.29.1.44.59.97.72.77.9,1.1.9,1.66h0Zm-.25-4.78l-.73-1.8s-.07,0-.1,0h-.2v1.79h-.76v-4.92h.88c.96,0,1.64.48,1.64,1.53v.05c0,.65-.3,1.08-.73,1.31l.82,2.02h-.82Zm3.41,5.94l-.22-1.1h-1.02l-.22,1.1h-.74l1.07-4.93h.81l1.07,4.93h-.76Zm3.56.02l-.58-3.33-.58,3.33h-.78l-.86-4.94h.79l.49,3.4.59-3.4h.7l.59,3.4.5-3.4h.76l-.85,4.94h-.79Zm3.82-.02l-.22-1.1h-1.02l-.22,1.1h-.74l1.07-4.93h.81l1.07,4.93h-.76Zm2.92,0l-.73-1.8s-.07,0-.1,0h-.2v1.79h-.76v-4.92h.88c.96,0,1.64.48,1.64,1.53v.05c0,.65-.3,1.08-.73,1.31l.82,2.02h-.82Zm3.86-2.38c0,1.58-.7,2.38-1.84,2.38h-.81v-4.92h.81c1.14,0,1.84.8,1.84,2.38v.15Zm2.55,1.22c0,.72-.56,1.21-1.27,1.21-.36,0-.66-.09-.95-.22v-.73c.34.19.62.29.88.29.32,0,.57-.17.57-.51h0c0-.3-.1-.5-.59-1.04-.66-.72-.9-1.03-.9-1.59h0c0-.74.54-1.22,1.24-1.22.36,0,.6.06.83.18v.73c-.29-.16-.5-.24-.75-.24-.31,0-.56.19-.56.5h0c0,.29.1.44.59.97.72.77.9,1.1.9,1.66h0Z"></path><polygon class="cls-1" points="40.11 90.46 40.9 90.46 40.51 88.49 40.11 90.46"></polygon><path class="cls-1" d="m49.43,87.91h-.11v1.85h.13c.51,0,.86-.28.86-.91v-.04c0-.67-.37-.9-.88-.9Z"></path><polygon class="cls-1" points="56.74 88.49 56.35 90.46 57.13 90.46 56.74 88.49"></polygon><path class="cls-1" d="m31.14,95.94h-.09v1.54h.08c.55,0,.91-.27.91-.74v-.03c0-.49-.35-.77-.9-.77Z"></path><path class="cls-1" d="m31.98,94.57h0c0-.49-.33-.73-.83-.73h-.11v1.5h.08c.53,0,.86-.27.86-.77Z"></path><polygon class="cls-1" points="52.64 96.4 53.43 96.4 53.03 94.43 52.64 96.4"></polygon><polygon class="cls-1" points="60.02 96.4 60.8 96.4 60.41 94.43 60.02 96.4"></polygon><path class="cls-1" d="m63.14,93.85h-.11v1.85h.13c.51,0,.86-.28.86-.91v-.04c0-.67-.37-.9-.88-.9Z"></path><path class="cls-1" d="m66.14,93.84h-.11v3.65h.12c.56,0,1-.47,1-1.75v-.15c0-1.28-.45-1.75-1-1.75Z"></path><path class="cls-1" d="m70.51,93.55c.04-.09.09-.16.16-.22.07-.06.14-.11.23-.14.09-.03.18-.05.27-.05s.19.02.27.05c.09.03.16.08.23.14.07.06.12.13.16.22.04.09.06.18.06.29s-.02.21-.06.29c-.04.09-.09.16-.16.22-.07.06-.14.11-.23.14-.09.03-.18.05-.27.05s-.19-.02-.27-.05c-.09-.03-.16-.08-.23-.14-.07-.06-.12-.14-.16-.22-.04-.09-.06-.18-.06-.29s.02-.2.06-.29Zm.17.51c.03.07.07.13.11.18.05.05.1.09.17.12.06.03.13.04.21.04s.14-.01.21-.04c.06-.03.12-.07.17-.12.05-.05.09-.11.11-.18.03-.07.04-.14.04-.22s-.01-.15-.04-.22c-.03-.07-.07-.13-.11-.17-.05-.05-.1-.09-.17-.11-.06-.03-.13-.04-.21-.04s-.14.01-.21.04c-.06.03-.12.07-.17.11-.05.05-.09.11-.11.17-.03.07-.04.14-.04.22s.01.15.04.22Zm.5-.62c.1,0,.17.02.23.05.05.04.08.1.08.18,0,.04,0,.07-.02.09-.01.03-.03.05-.04.06-.02.02-.04.03-.07.04-.02,0-.05.01-.08.02l.21.34h-.16l-.19-.34h-.1v.34h-.15v-.79h.3Zm0,.33s.08,0,.11-.02c.03-.01.04-.04.04-.09,0-.02,0-.04-.02-.05-.01-.01-.02-.02-.04-.03-.02,0-.03-.01-.05-.01-.02,0-.04,0-.06,0h-.13v.21h.14Z"></path></svg> 