<?xml version="1.0" encoding="UTF-8"?> <svg xmlns="http://www.w3.org/2000/svg" xmlns:xlink="http://www.w3.org/1999/xlink" width="600" height="400" viewBox="0 0 600 400"><defs><style>.cls-1,.cls-2{fill:none;}.cls-3{fill:url(#linear-gradient);}.cls-2{isolation:isolate;}.cls-4{fill:#020000;}.cls-5{fill:#fff;}.cls-6{fill:#cfa22b;}.cls-7{fill:#d0a32c;}.cls-8{fill:#dab75c;}.cls-9{fill:#231f20;}.cls-10{fill:#41668d;}.cls-11{fill:#8a6c2a;}.cls-12{fill:#ab8722;mix-blend-mode:multiply;opacity:.5;}.cls-13{fill:url(#linear-gradient-8);}.cls-14{fill:url(#linear-gradient-9);}.cls-15{fill:url(#linear-gradient-3);}.cls-16{fill:url(#linear-gradient-4);}.cls-17{fill:url(#linear-gradient-2);}.cls-18{fill:url(#linear-gradient-6);}.cls-19{fill:url(#linear-gradient-7);}.cls-20{fill:url(#linear-gradient-5);}.cls-21{fill:url(#linear-gradient-10);}</style><linearGradient id="linear-gradient" x1="299.82" y1="73.47" x2="299.82" y2="130.59" gradientUnits="userSpaceOnUse"><stop offset="0" stop-color="#ffe4c2"></stop><stop offset=".46" stop-color="#41a5d2"></stop><stop offset=".74" stop-color="#2f82b4"></stop><stop offset="1" stop-color="#005e88"></stop></linearGradient><linearGradient id="linear-gradient-2" x1="299.78" y1="119.04" x2="299.78" y2="67.46" gradientUnits="userSpaceOnUse"><stop offset="0" stop-color="#41a5d2"></stop><stop offset=".54" stop-color="#2f82b4"></stop><stop offset="1" stop-color="#005e88"></stop></linearGradient><linearGradient id="linear-gradient-3" x1="299.78" y1="125.1" x2="299.78" y2="73.52" xlink:href="#linear-gradient"></linearGradient><linearGradient id="linear-gradient-4" x1="299.86" x2="299.86" y2="67.46" xlink:href="#linear-gradient-2"></linearGradient><linearGradient id="linear-gradient-5" x1="299.86" y1="172.84" x2="299.86" y2="81.93" xlink:href="#linear-gradient"></linearGradient><linearGradient id="linear-gradient-6" x1="299.19" y1="147.48" x2="301.25" y2="79.83" xlink:href="#linear-gradient"></linearGradient><linearGradient id="linear-gradient-7" x1="299.85" y1="119.04" x2="299.85" y2="67.46" xlink:href="#linear-gradient-2"></linearGradient><linearGradient id="linear-gradient-8" x1="299.85" y1="172.84" x2="299.85" y2="81.93" xlink:href="#linear-gradient"></linearGradient><linearGradient id="linear-gradient-9" x1="299.85" y1="125.1" x2="299.85" y2="73.52" xlink:href="#linear-gradient"></linearGradient><linearGradient id="linear-gradient-10" x1="299.85" y1="125.85" x2="299.85" y2="86.13" xlink:href="#linear-gradient"></linearGradient></defs><g class="cls-2"><g id="Layer_1"><path class="cls-1" d="m302.86,181.89c-.21.28-.43.57-.67.9.24-.33.46-.62.67-.9Z"></path><path class="cls-1" d="m304.36,177.46s.07-.03.1-.05c-.04.02-.07.03-.1.05Z"></path><path class="cls-1" d="m302.99,177.84c.07,0,.15-.01.22-.03-.07.01-.15.02-.22.03Z"></path><path class="cls-1" d="m301.58,177.68c.07.03.15.04.22.06-.07-.02-.15-.03-.22-.06Z"></path><path class="cls-1" d="m303.69,177.7s.09-.02.13-.04c-.04.01-.09.02-.13.04Z"></path><path class="cls-1" d="m304.78,177.24c.05-.03.09-.05.13-.08-.04.03-.09.05-.13.08Z"></path><path class="cls-1" d="m302.53,177.86c-.08,0-.16,0-.25-.01.08,0,.16.01.25.01Z"></path><path class="cls-1" d="m303.29,181.3s.07-.09.1-.14c0,0,0,0,0-.01-.03.05-.07.1-.11.15Z"></path><path class="cls-1" d="m308.35,172.49c0,3.43-1.02,6.72-4.33,12.1-.14.45-.21.9-.24,1.34-.14,2.06.77,3.97,2.03,5.08.4.36.8.63,1.24.71,1.22.24,2.77-.96,5.76-5.79,4.07-6.57,6.88-16.58,9.17-27.18,2.29-10.6,3.69-19.86,3.44-21.5-.25-1.64-.64-4.33-.89-6.27-.22-1.71,1.22-3.18,3.13-3.92h-55.41c1.91.74,3.36,2.21,3.13,3.92-.25,1.94-.64,4.63-.89,6.27-.25,1.64,1.15,10.9,3.44,21.5s5.09,20.61,9.17,27.18c4.07,6.57,5.48,6.42,7,5.08,1.26-1.11,2.17-3.02,2.03-5.08-.03-.44-.11-.89-.24-1.34-3.31-5.38-4.33-8.66-4.33-12.1s-.13-12.69,8.4-12.69c.32,0,.63.02.93.04,7.59.66,7.47,9.35,7.47,12.65Z"></path><path class="cls-3" d="m267.91,124.59l31.77-48.23,31.98,48.55c.79-.7,1.57-1.61,2.22-2.69l-34.2-51.92-33.92,51.49c.61,1.13,1.36,2.05,2.15,2.8Z"></path><path class="cls-17" d="m299.76,86.93c8.65,4.98,24.6,28.71,31.04,38.66.28-.2.57-.43.85-.68l-31.98-48.55-31.77,48.23c.34.32.67.61,1.01.86,8.59-14.73,23.45-33.74,30.85-38.52Z"></path><path class="cls-15" d="m299.76,86.93c8.65,4.98,24.6,28.71,31.04,38.66.28-.2.57-.43.85-.68l-31.98-48.55-31.77,48.23c.34.32.67.61,1.01.86,8.59-14.73,23.45-33.74,30.85-38.52Z"></path><path class="cls-16" d="m299.76,96.46c8.5,3.77,24.04,21.47,30.69,29.36.12-.08.23-.14.35-.22-6.44-9.95-22.39-33.68-31.04-38.66-7.4,4.77-22.26,23.79-30.85,38.52.11.08.22.16.33.24,8.64-11.28,23.22-25.6,30.52-29.23Z"></path><path class="cls-20" d="m299.76,96.46c8.5,3.77,24.04,21.47,30.69,29.36.12-.08.23-.14.35-.22-6.44-9.95-22.39-33.68-31.04-38.66-7.4,4.77-22.26,23.79-30.85,38.52.11.08.22.16.33.24,8.64-11.28,23.22-25.6,30.52-29.23Z"></path><path class="cls-18" d="m299.76,96.46c8.5,3.77,24.04,21.47,30.69,29.36.12-.08.23-.14.35-.22-6.44-9.95-22.39-33.68-31.04-38.66-7.4,4.77-22.26,23.79-30.85,38.52.11.08.22.16.33.24,8.64-11.28,23.22-25.6,30.52-29.23Z"></path><path class="cls-19" d="m327.65,127.06c.26-.1.54-.19.82-.26.51-.13,1.22-.47,1.99-.98-6.65-7.88-22.2-25.59-30.69-29.36-7.31,3.63-21.88,17.95-30.52,29.23.84.58,1.63.96,2.18,1.1.28.07.55.16.82.26h55.41Z"></path><path class="cls-13" d="m327.65,127.06c.26-.1.54-.19.82-.26.51-.13,1.22-.47,1.99-.98-6.65-7.88-22.2-25.59-30.69-29.36-7.31,3.63-21.88,17.95-30.52,29.23.84.58,1.63.96,2.18,1.1.28.07.55.16.82.26h55.41Z"></path><path class="cls-14" d="m327.65,127.06c.26-.1.54-.19.82-.26.51-.13,1.22-.47,1.99-.98-6.65-7.88-22.2-25.59-30.69-29.36-7.31,3.63-21.88,17.95-30.52,29.23.84.58,1.63.96,2.18,1.1.28.07.55.16.82.26h55.41Z"></path><path class="cls-21" d="m327.65,127.06c.26-.1.54-.19.82-.26.51-.13,1.22-.47,1.99-.98-6.65-7.88-22.2-25.59-30.69-29.36-7.31,3.63-21.88,17.95-30.52,29.23.84.58,1.63.96,2.18,1.1.28.07.55.16.82.26h55.41Z"></path><path class="cls-11" d="m278.94,187.06s-2.43-10.93-3.44-19.01-3.24-25.67-5.67-34.22c-2.43-8.56-7.66-12.67-14.79-17.82-.47-.34-.55-.77-.41-1.12-.24-.11-.45-.22-.65-.34-1.4-.9-2.67.6-1.48,1.46,7.13,5.15,12.36,9.27,14.79,17.82,2.43,8.56,4.66,26.14,5.67,34.22s3.44,19.01,3.44,19.01c1.22,4.52,7.5,22.34,10.33,30.42.11.3.17.6.27.9h3.02c-2.85-8.11-9.88-26.81-11.09-31.32Z"></path><path class="cls-8" d="m344.95,116.01c-7.13,5.15-12.36,9.27-14.79,17.82-2.43,8.56-4.66,26.14-5.67,34.22s-3.44,19.01-3.44,19.01c-1.21,4.51-8.25,23.21-11.09,31.32h2.93c.1-.3.16-.6.27-.9,2.84-8.08,9.12-25.9,10.33-30.42,0,0,2.43-10.93,3.44-19.01s3.24-25.67,5.67-34.22c2.43-8.56,7.66-12.67,14.79-17.82,1.19-.86-.08-2.36-1.48-1.46-.17.11-.36.21-.57.31.17.35.09.8-.39,1.15Z"></path><path class="cls-6" d="m290.21,195.62s-2.32-.79-5.5-6.97-6.22-11.72-6.95-18.22c-.72-6.5-1.16-7.45-2.9-18.54-1.74-11.09-1.88-14.42-1.88-14.42,0-4.59,1.01-7.13-.29-8.24-1.3-1.11-5.31-3.09-7.8-6.14,0,0,4.17,6.61,4.93,10.73,2.43,8.56,4.66,26.14,5.67,34.22s3.44,19.01,3.44,19.01c1.21,4.51,8.25,23.21,11.09,31.32h2c-.48-1.53-1.1-3.24-1.97-5.18-3.62-8.08-3.04-15.68.14-17.59Z"></path><path class="cls-6" d="m308.49,212.25c-.22-3.33-2.71-3.09-2.93-.83-.98-4.4,1.19-9.23,2.71-9.51,1.3-.24,1.52,1.78,1.52,1.78,1.19-3.68,5.21-7.01,7.17-10.22,1.95-3.21,3.8-7.84,5.54-18.3s3.69-26.62,4.67-32.91c.98-6.3,2.93-11.76,4.34-13.78,0,0-2.5,1.66-3.58,4.4-1.09,2.73-1.27,8.18-2.82,16.75-1.85,10.22-3.33,22.01-7.06,30.18-4.67,10.22-6.62,12.12-9.34,13.07-2.71.95-5.25.24-6.48-3.92.14,3.49,3.04,5.54,4.63,6.18,1.59.63,2.75-1.11,0,3.8-2.75,4.91-4.49,9.35-4.49,13.94,0,1.81-.13,3.65-.35,5.5h5.57c.82-2.42,1.01-4.39.9-6.13Z"></path><path class="cls-8" d="m303.71,180.41c.43-.97.89-2.08,1.3-3.3-.03.02-.06.04-.09.05-.04.03-.08.05-.13.08-.09.05-.2.11-.32.17-.04.02-.07.03-.1.05-.16.07-.34.14-.54.21-.04.01-.09.02-.13.04-.15.05-.31.08-.48.11-.07.01-.14.02-.22.03-.15.02-.3.02-.46.02-.08,0-.16,0-.25-.01-.16-.02-.32-.05-.48-.1-.08-.02-.15-.03-.22-.06-.23-.09-.47-.2-.69-.37-1.95-1.43-2.28-4.28-1.74-3.33,0,0,1.85,2.38,3.47,1.54,1.63-.83,3.47-4.52,3.15-7.37-.33-2.85-2.28-6.77-6.51-6.06-4.23.71-5.86,7.49-5.43,11.64.43,4.16,2.82,6.89,3.91,9.15,1.09,2.26.76,5.82-1.19,8.56-1.95,2.73-4.67,2.85-6.08,1.43.87,1.31,2.93,3.21,5.97,1.78,0,0,3.37,1.66,5.21-.12-3.91-3.68-2.06-8.2.54-11.76.24-.33.46-.62.67-.9.15-.2.29-.39.43-.59.04-.05.07-.1.11-.15.1-.25.21-.49.32-.74Z"></path><path class="cls-6" d="m255.04,116.01c7.13,5.15,12.36,9.27,14.79,17.82-.76-4.13-4.93-10.73-4.93-10.73,2.48,3.05,6.49,5.03,7.8,6.14,1.3,1.11.29,3.64.29,8.24,0,0,.14,3.33,1.88,14.42,1.74,11.09,2.17,12.04,2.9,18.54.72,6.5,3.76,12.04,6.95,18.22s5.5,6.97,5.5,6.97c-3.18,1.9-3.76,9.51-.14,17.59.87,1.94,1.49,3.65,1.97,5.18h9.98c.23-1.84.35-3.69.35-5.5,0-4.59,1.74-9.03,4.49-13.94,2.75-4.91,1.59-3.17,0-3.8-1.59-.63-4.49-2.69-4.63-6.18-.84-1.65-.15-4.63,1.16-7.8-.03.04-.07.09-.1.14-.14.19-.28.38-.43.59-.21.28-.43.57-.67.9-2.61,3.56-4.45,8.08-.54,11.76-1.85,1.78-5.21.12-5.21.12-3.04,1.43-5.1-.48-5.97-1.78,1.41,1.43,4.13,1.31,6.08-1.43,1.95-2.73,2.28-6.3,1.19-8.56-1.09-2.26-3.47-4.99-3.91-9.15-.43-4.16,1.19-10.93,5.43-11.64,4.23-.71,6.19,3.21,6.51,6.06.33,2.85-1.52,6.54-3.15,7.37-1.63.83-3.47-1.54-3.47-1.54-.54-.95-.22,1.9,1.74,3.33.23.17.46.28.69.37.07.03.15.04.22.06.16.05.32.08.48.1.08,0,.16.01.25.01.16,0,.31,0,.46-.02.07,0,.15-.01.22-.03.17-.03.33-.07.48-.11.04-.01.09-.02.13-.04.19-.06.37-.13.54-.21.04-.02.07-.03.1-.05.12-.06.23-.11.32-.17.05-.03.09-.05.13-.08.03-.02.07-.04.09-.05,1.05-3.1,1.77-6.88.76-10.72-1.41-5.35-5.65-4.63-5.65-4.63-3.06,0-1.91-2.02.75-1.91-.3-.03-.61-.04-.93-.04-8.53,0-8.4,9.26-8.4,12.69s1.02,6.72,4.33,12.1c.14.45.21.9.24,1.34.14,2.06-.77,3.97-2.03,5.08-1.53,1.34-2.93,1.49-7-5.08-4.07-6.57-6.88-16.58-9.17-27.18s-3.69-19.86-3.44-21.5c.25-1.64.64-4.33.89-6.27.22-1.71-1.22-3.18-3.13-3.92-.26-.1-.54-.19-.82-.26-.55-.14-1.34-.52-2.18-1.1-.11-.08-.22-.16-.33-.24-.33-.25-.67-.54-1.01-.86-.78-.75-1.54-1.67-2.15-2.8-.26-.49-.5-1.01-.7-1.57-1.4-4.03-2.42-2.84-4.71-3.58-1.98-.64-4.24-1.07-5.72-1.75-.15.35-.06.78.41,1.12Z"></path><path class="cls-11" d="m331.66,124.91c-.29.25-.57.48-.85.68-.12.09-.23.15-.35.22-.77.51-1.48.84-1.99.98-.28.07-.55.16-.82.26-1.91.74-3.36,2.21-3.13,3.92.25,1.94.64,4.63.89,6.27.25,1.64-1.15,10.9-3.44,21.5-2.29,10.6-5.09,20.61-9.17,27.18-3,4.83-4.55,6.03-5.76,5.79-2.85.26-3.94-1.02-4.82-2.75,1.23,4.16,3.76,4.87,6.48,3.92,2.71-.95,4.67-2.85,9.34-13.07,3.73-8.17,5.21-19.96,7.06-30.18,1.55-8.57,1.74-14.02,2.82-16.75,1.09-2.73,3.58-4.4,3.58-4.4-1.41,2.02-3.37,7.49-4.34,13.78-.98,6.3-2.93,22.46-4.67,32.91s-3.58,15.09-5.54,18.3c-1.95,3.21-5.97,6.54-7.17,10.22,0,0-.22-2.02-1.52-1.78-1.52.28-3.69,5.11-2.71,9.51.22-2.26,2.71-2.5,2.93.83.11,1.73-.08,3.71-.9,6.13h2.37c2.85-8.11,9.88-26.81,11.09-31.32,0,0,2.43-10.93,3.44-19.01s3.24-25.67,5.67-34.22c2.43-8.56,7.66-12.67,14.79-17.82.48-.35.56-.8.39-1.15-1.48.7-3.79,1.13-5.8,1.78-2.29.75-3.31-.45-4.71,3.58-.26.73-.59,1.38-.96,1.99-.65,1.09-1.42,1.99-2.22,2.69Z"></path><path class="cls-8" d="m307.04,191.72c-.44-.09-.83-.36-1.24-.71-1.26-1.11-2.17-3.02-2.03-5.08.03-.44.11-.89.24-1.34,3.31-5.38,4.33-8.66,4.33-12.1s.11-11.99-7.47-12.65c-2.66-.11-3.81,1.91-.75,1.91,0,0,4.23-.71,5.65,4.63,1.01,3.84.29,7.62-.76,10.72-.41,1.22-.88,2.33-1.3,3.3-.11.25-.21.5-.32.74,0,0,0,0,0,.01-1.31,3.17-2,6.15-1.16,7.8.88,1.73,1.97,3.01,4.82,2.75Z"></path><polygon class="cls-12" points="313.21 217.65 286.78 217.58 287.01 218.38 313 218.38 313.21 217.65"></polygon><path class="cls-7" d="m248.72,309.18c-1.68-1.03-3.27-2.22-5.13-3.52-2.12-1.47-6.46-5.11-4.71-2.75-4.1-2.84-7.73-6.13-11.48-9.54,1.4-2.02,4.08-6.63,4.81-13.15.81-7.16-5.09-13.71-5.09-13.71,0,0-6.42,7.43-6.05,14.87.13,2.73,1.58,6.13,2.94,8.79-3.7-3.65-7.17-7.6-10.36-11.85,1.68-1.67,5.11-5.69,6.95-11.93,2-6.78-2.58-14.1-2.58-14.1,0,0-7.47,6.08-8.37,13.32-.34,2.68.49,6.25,1.37,9.06-3.27-4.45-6.13-9.11-8.61-13.92,1.84-1.26,5.98-4.57,8.89-10.45,3.08-6.2-.09-14.05-.09-14.05,0,0-8.24,4.6-10.35,11.43-.84,2.74-.55,6.7-.13,9.66-2.49-5.27-4.54-10.69-6.17-16.17,2.01-.92,6.53-3.42,10.32-8.55,4.03-5.46,2.3-13.58,2.3-13.58,0,0-8.74,3.04-11.93,9.28-1.24,2.42-1.64,6.12-1.75,9.02-1.45-5.57-2.49-11.19-3.14-16.75,2.09-.55,6.88-2.18,11.41-6.49,4.82-4.58,4.53-12.71,4.53-12.71,0,0-8.95,1.44-13.09,6.92-1.62,2.13-2.64,5.68-3.24,8.45-.5-5.82-.58-11.55-.28-17.11,1.96-.13,7.05-.81,12.36-4.34,5.43-3.6,6.53-11.5,6.53-11.5,0,0-8.87-.13-13.81,4.45-2.13,1.98-3.86,5.75-4.89,8.42.48-6.16,1.43-12.06,2.79-17.57,1.69.21,6.93.55,12.92-2.06,5.86-2.55,8.27-9.99,8.27-9.99,0,0-8.55-1.64-14.1,1.95-2.62,1.69-5.15,5.56-6.54,7.96.8-2.97,1.73-5.81,2.77-8.5,1.09-3.13,2.26-6.08,3.48-8.86,1.65.5,6.61,1.69,12.78.19,6.08-1.46,9.67-8.23,9.67-8.23,0,0-7.98-3.03-13.93-.52-2.78,1.17-6.36,4.03-7.59,6.48,3.41-6.75,5.85-11.41,8.73-15.78,1.23.65,5.96,2.88,12.5,2.47,6.12-.38,10.74-6.3,10.74-6.3,0,0-7.18-4.28-13.35-2.87-3.23.74-7.64,3.48-9.1,5.52,3.25-4.56,5.19-6.95,7.21-9.36,1.42-.12,5.85-.75,8.47-3.86,3.9-4.64,4.34-9.42,4.34-9.42,0,0-6.25,1.11-8.96,3.43-3.39,2.92-4.25,8.06-4.4,9.24-1.7,1.92-3.6,4.44-5.82,7.55,1.5-2.1,2.9-6.86,2.72-10.07-.35-6.33-6.44-12.05-6.44-12.05,0,0-4.42,6.07-3.1,12.06,1.43,6.49,4.79,10.26,5.69,11.2-3.04,4.24-6.15,9.63-9.25,15.82.65-2.64,1.52-7.09.82-10.08-1.47-6.3-8.61-10.97-8.61-10.97,0,0-3.36,6.88-.98,12.67,2.52,6.12,6.62,9.45,7.81,10.34-1.62,3.39-3.18,7.04-4.63,10.99-.68,1.69-1.31,3.44-1.9,5.24.12-2.78.05-6.62-1.03-9.13-2.59-6.07-10.59-9.5-10.59-9.5,0,0-2.17,7.51,1.25,12.9,3.39,5.35,7.74,7.99,9.4,8.86-1.52,5.28-2.66,10.98-3.36,16.94-.39-2.77-1.15-6.36-2.59-8.57-3.68-5.64-12.33-7.67-12.33-7.67,0,0-.84,7.93,3.55,12.74,4.34,4.76,9.17,6.65,10.99,7.23-.49,5.7-.58,11.62-.24,17.65-.88-2.74-2.3-6.34-4.19-8.36-4.7-5.02-13.75-5.52-13.75-5.52,0,0,.56,8.12,5.82,12.18,5.25,4.04,10.46,5.07,12.37,5.33.47,5.55,1.31,11.16,2.57,16.76-1.36-2.5-3.27-5.48-5.36-7.05-5.61-4.21-14.79-3.11-14.79-3.11,0,0,2,8.06,8.01,11.2,5.8,3.03,11.07,3.23,13.18,3.16,1.34,5.12,3.04,10.2,5.1,15.19-1.72-2.06-3.88-4.27-5.99-5.34-6.38-3.23-15.41-.51-15.41-.51,0,0,3.44,7.75,10.03,9.84,6.1,1.94,11.26,1.35,13.53.91,2.21,4.68,4.77,9.25,7.7,13.66-2.07-1.74-4.59-3.53-6.85-4.21-6.99-2.12-15.58,2.22-15.58,2.22,0,0,4.82,7.18,11.83,8.12,6.53.87,11.65-.68,13.82-1.52,2.86,4.12,5.97,7.99,9.31,11.6-2.35-1.34-5.1-2.61-7.42-2.89-7.4-.89-15.27,5-15.27,5,0,0,6.12,6.35,13.32,6.05,6.61-.28,11.43-2.67,13.52-3.92,3.59,3.49,7.38,6.71,11.32,9.66-2.62-.94-5.67-1.77-8.09-1.64-7.6.42-14.45,7.73-14.45,7.73,0,0,7.28,5.3,14.46,3.72,6.63-1.46,10.84-7.68,12.92-6.35,5.55,3.55,11.16,3.8,9.13,2.55Z"></path><path class="cls-7" d="m349.71,310.07c2.31-1.21,4.27-2.72,6.7-4.41,2.12-1.47,6.46-5.11,4.71-2.75,4.1-2.84,7.73-6.13,11.48-9.54-1.4-2.02-4.08-6.63-4.81-13.15-.81-7.16,5.09-13.71,5.09-13.71,0,0,6.43,7.43,6.05,14.87-.13,2.73-1.58,6.13-2.94,8.79,3.7-3.65,7.17-7.6,10.36-11.85-1.68-1.68-5.11-5.69-6.95-11.93-2-6.78,2.58-14.1,2.58-14.1,0,0,7.47,6.08,8.37,13.32.34,2.68-.49,6.25-1.37,9.06,3.27-4.45,6.13-9.11,8.61-13.92-1.84-1.26-5.98-4.57-8.89-10.44-3.08-6.2.09-14.05.09-14.05,0,0,8.24,4.6,10.35,11.43.84,2.74.55,6.7.13,9.66,2.49-5.27,4.54-10.69,6.17-16.17-2.01-.92-6.53-3.42-10.32-8.55-4.03-5.46-2.3-13.58-2.3-13.58,0,0,8.74,3.04,11.93,9.28,1.24,2.42,1.64,6.12,1.75,9.02,1.45-5.57,2.49-11.19,3.14-16.75-2.09-.55-6.88-2.18-11.41-6.49-4.82-4.58-4.53-12.71-4.53-12.71,0,0,8.95,1.44,13.09,6.92,1.62,2.13,2.64,5.68,3.24,8.45.5-5.82.58-11.55.28-17.11-1.96-.13-7.04-.81-12.36-4.34-5.43-3.6-6.53-11.5-6.53-11.5,0,0,8.88-.13,13.81,4.45,2.13,1.98,3.85,5.75,4.89,8.42-.48-6.16-1.43-12.06-2.79-17.57-1.69.21-6.93.55-12.92-2.06-5.86-2.55-8.27-9.99-8.27-9.99,0,0,8.55-1.64,14.1,1.95,2.63,1.69,5.15,5.56,6.54,7.96-.8-2.97-1.73-5.81-2.77-8.5-1.09-3.14-2.26-6.08-3.48-8.86-1.65.5-6.61,1.69-12.78.19-6.08-1.46-9.67-8.23-9.67-8.23,0,0,7.97-3.03,13.93-.52,2.78,1.17,6.36,4.03,7.59,6.48-3.41-6.75-5.85-11.41-8.73-15.78-1.23.65-5.96,2.88-12.5,2.47-6.12-.38-10.74-6.3-10.74-6.3,0,0,7.18-4.28,13.35-2.87,3.23.74,7.64,3.48,9.1,5.52-3.25-4.56-5.19-6.95-7.21-9.36-1.42-.12-5.85-.75-8.47-3.86-3.9-4.64-4.34-9.42-4.34-9.42,0,0,6.25,1.11,8.96,3.43,3.39,2.92,4.25,8.06,4.4,9.24,1.7,1.92,3.6,4.44,5.82,7.55-1.5-2.09-2.9-6.86-2.72-10.07.35-6.33,6.44-12.05,6.44-12.05,0,0,4.42,6.07,3.11,12.06-1.43,6.49-4.79,10.26-5.69,11.2,3.04,4.24,6.15,9.63,9.25,15.82-.66-2.64-1.52-7.09-.82-10.08,1.47-6.3,8.61-10.97,8.61-10.97,0,0,3.36,6.88.98,12.67-2.52,6.12-6.62,9.45-7.81,10.34,1.62,3.39,3.18,7.04,4.63,10.99.68,1.69,1.31,3.44,1.9,5.24-.12-2.78-.05-6.62,1.03-9.13,2.59-6.07,10.59-9.5,10.59-9.5,0,0,2.17,7.51-1.25,12.9-3.39,5.35-7.74,7.99-9.4,8.86,1.52,5.28,2.66,10.98,3.36,16.94.39-2.77,1.15-6.35,2.6-8.57,3.68-5.64,12.33-7.67,12.33-7.67,0,0,.84,7.93-3.55,12.74-4.34,4.76-9.17,6.65-10.99,7.23.49,5.71.58,11.62.24,17.65.88-2.74,2.3-6.34,4.19-8.36,4.7-5.02,13.74-5.52,13.74-5.52,0,0-.56,8.12-5.82,12.18-5.25,4.04-10.46,5.07-12.37,5.32-.47,5.55-1.31,11.16-2.57,16.76,1.36-2.5,3.27-5.48,5.36-7.05,5.61-4.21,14.79-3.11,14.79-3.11,0,0-2,8.06-8.01,11.2-5.8,3.03-11.07,3.23-13.18,3.16-1.34,5.12-3.04,10.2-5.1,15.19,1.72-2.07,3.88-4.27,5.99-5.34,6.38-3.23,15.41-.51,15.41-.51,0,0-3.44,7.75-10.03,9.84-6.1,1.94-11.26,1.35-13.53.91-2.21,4.68-4.77,9.25-7.7,13.66,2.07-1.74,4.59-3.53,6.85-4.21,6.99-2.12,15.58,2.22,15.58,2.22,0,0-4.82,7.18-11.83,8.12-6.53.87-11.65-.68-13.82-1.52-2.86,4.12-5.97,7.99-9.31,11.6,2.35-1.34,5.1-2.61,7.42-2.89,7.4-.89,15.27,5,15.27,5,0,0-6.12,6.35-13.32,6.05-6.61-.28-11.43-2.67-13.52-3.92-3.59,3.49-7.38,6.71-11.32,9.66,2.62-.94,5.67-1.77,8.09-1.64,7.6.42,14.45,7.73,14.45,7.73,0,0-7.28,5.3-14.46,3.72-6.63-1.46-10.84-7.68-12.92-6.35-2.35,1.5-4.2,2.78-6.08,4.05-2.57,1.73-6.22.23-4.62-.6Z"></path><path class="cls-10" d="m242.59,325.63c0,2.25,1.82,4.07,4.07,4.07h106.67c2.25,0,4.07-1.82,4.07-4.07v-32.97h-114.82v32.97Z"></path><path class="cls-7" d="m357.41,222.48c0-2.27-1.84-4.1-4.1-4.1h-106.62c-2.26,0-4.1,1.84-4.1,4.1v24.6h114.82v-24.6Z"></path><path class="cls-5" d="m262.99,232.96v-.05c0-5.25,4.12-9.36,9.7-9.36,3.16,0,5.4.98,7.31,2.62l-2.93,3.52c-1.29-1.08-2.57-1.7-4.35-1.7-2.6,0-4.6,2.19-4.6,4.94v.05c0,2.91,2.03,4.99,4.89,4.99,1.21,0,2.13-.26,2.88-.75v-2.19h-3.55v-3.65h8.28v8.1c-1.9,1.57-4.55,2.78-7.82,2.78-5.61,0-9.8-3.86-9.8-9.31Z"></path><path class="cls-5" d="m282.54,232.96v-.05c0-5.17,4.17-9.36,9.72-9.36s9.67,4.14,9.67,9.31v.05c0,5.17-4.17,9.36-9.72,9.36s-9.67-4.14-9.67-9.31Zm14.3,0v-.05c0-2.6-1.88-4.86-4.63-4.86s-4.55,2.21-4.55,4.81v.05c0,2.6,1.88,4.86,4.6,4.86s4.58-2.21,4.58-4.81Z"></path><path class="cls-5" d="m304.3,223.91h4.99v13.63h8.72v4.37h-13.71v-18.01Z"></path><path class="cls-5" d="m319.91,223.91h6.94c6.43,0,10.16,3.7,10.16,8.9v.05c0,5.2-3.78,9.05-10.26,9.05h-6.84v-18.01Zm7.02,13.58c2.98,0,4.96-1.65,4.96-4.55v-.05c0-2.88-1.98-4.55-4.96-4.55h-2.03v9.16h2.03Z"></path><path class="cls-5" d="m274.29,297.16h2.11l2.79,12.82h-1.99l-.56-2.85h-2.65l-.56,2.85h-1.93l2.79-12.82Zm2.05,8.35l-1.02-5.13-1.02,5.13h2.05Z"></path><path class="cls-5" d="m280.14,297.19h2.03l1.99,5.42,1.99-5.42h2.03v12.78h-1.91v-8.71l-2.09,5.63h-.06l-2.09-5.63v8.71h-1.89v-12.78Z"></path><path class="cls-5" d="m289.76,297.19h5.2v1.7h-3.21v3.8h2.87v1.7h-2.87v3.89h3.27v1.7h-5.26v-12.78Z"></path><path class="cls-5" d="m296.25,297.19h2.29c2.49,0,4.26,1.26,4.26,3.98v.13c0,1.7-.78,2.81-1.89,3.42l2.13,5.26h-2.13l-1.89-4.68c-.08,0-.18.02-.26.02h-.52v4.66h-1.99v-12.78Zm2.33,6.5c1.33,0,2.23-.73,2.23-2.37v-.11c0-1.75-.96-2.34-2.29-2.34h-.28v4.82h.34Z"></path><path class="cls-5" d="m304.13,297.19h1.97v12.78h-1.97v-12.78Z"></path><path class="cls-5" d="m307.48,303.79v-.4c0-4.42,1.81-6.28,4-6.28.68,0,1.04.09,1.55.31v1.86c-.5-.27-.9-.42-1.37-.42-1.23,0-2.17,1.19-2.17,4.51v.44c0,3.45.94,4.51,2.19,4.51.42,0,.88-.13,1.39-.4v1.77c-.5.27-1.02.38-1.71.38-2.19,0-3.88-1.9-3.88-6.28Z"></path><path class="cls-5" d="m316.5,297.16h2.11l2.79,12.82h-1.99l-.56-2.85h-2.65l-.56,2.85h-1.93l2.79-12.82Zm2.05,8.35l-1.02-5.13-1.02,5.13h2.05Z"></path><path class="cls-5" d="m322.35,297.19h1.89l3.05,7.74v-7.74h1.93v12.78h-1.79l-3.15-8.04v8.04h-1.93v-12.78Z"></path><path class="cls-5" d="m248.72,312.63h2.03c2.33,0,4.34,1,4.34,3.23v.07c0,1.72-1.08,2.54-2.19,2.96,1.33.42,2.37,1.26,2.37,2.92v.13c0,2.21-1.87,3.47-4.56,3.47h-1.99v-12.78Zm2.19,5.55c1.39,0,2.23-.71,2.23-1.99v-.04c0-1.24-.86-1.86-2.15-1.86h-.28v3.89h.2Zm0,5.57c1.43,0,2.37-.69,2.37-1.94v-.07c0-1.28-.9-1.99-2.33-1.99h-.24v4h.2Z"></path><path class="cls-5" d="m256.38,321.81v-9.19h1.97v9.35c0,1.33.56,1.94,1.39,1.94s1.41-.6,1.41-1.94v-9.35h1.95v9.19c0,2.52-1.39,3.76-3.35,3.76s-3.35-1.24-3.35-3.76Z"></path><path class="cls-5" d="m264.29,324.95v-1.9c.88.49,1.61.75,2.29.75.84,0,1.49-.44,1.49-1.31v-.04c0-.73-.26-1.26-1.55-2.67-1.73-1.88-2.35-2.68-2.35-4.13v-.04c0-1.88,1.41-3.12,3.21-3.12.94,0,1.55.16,2.17.46v1.9c-.76-.42-1.31-.62-1.95-.62-.8,0-1.45.49-1.45,1.3v.04c0,.71.26,1.1,1.55,2.48,1.87,2.01,2.35,2.87,2.35,4.31v.04c0,1.88-1.47,3.14-3.29,3.14-.92,0-1.73-.24-2.47-.58Z"></path><path class="cls-5" d="m271.18,312.63h1.97v12.78h-1.97v-12.78Z"></path><path class="cls-5" d="m274.82,312.63h1.89l3.05,7.74v-7.74h1.93v12.78h-1.79l-3.15-8.04v8.04h-1.93v-12.78Z"></path><path class="cls-5" d="m283.27,312.63h5.2v1.7h-3.21v3.8h2.87v1.7h-2.87v3.89h3.27v1.7h-5.26v-12.78Z"></path><path class="cls-5" d="m289.42,324.95v-1.9c.88.49,1.61.75,2.29.75.84,0,1.49-.44,1.49-1.31v-.04c0-.73-.26-1.26-1.55-2.67-1.73-1.88-2.35-2.68-2.35-4.13v-.04c0-1.88,1.41-3.12,3.21-3.12.94,0,1.55.16,2.17.46v1.9c-.76-.42-1.31-.62-1.95-.62-.8,0-1.45.49-1.45,1.3v.04c0,.71.26,1.1,1.55,2.48,1.87,2.01,2.35,2.87,2.35,4.31v.04c0,1.88-1.47,3.14-3.29,3.14-.92,0-1.73-.24-2.47-.58Z"></path><path class="cls-5" d="m295.79,324.95v-1.9c.88.49,1.61.75,2.29.75.84,0,1.49-.44,1.49-1.31v-.04c0-.73-.26-1.26-1.55-2.67-1.73-1.88-2.35-2.68-2.35-4.13v-.04c0-1.88,1.41-3.12,3.21-3.12.94,0,1.55.16,2.17.46v1.9c-.76-.42-1.31-.62-1.95-.62-.8,0-1.45.49-1.45,1.3v.04c0,.71.26,1.1,1.55,2.48,1.87,2.01,2.35,2.87,2.35,4.31v.04c0,1.88-1.47,3.14-3.29,3.14-.92,0-1.73-.24-2.47-.58Z"></path><path class="cls-5" d="m306.86,312.59h2.11l2.79,12.82h-1.99l-.56-2.85h-2.65l-.56,2.85h-1.93l2.79-12.82Zm2.05,8.35l-1.02-5.13-1.02,5.13h2.05Z"></path><path class="cls-5" d="m311.76,312.63h2.05l1.29,8.84,1.55-8.84h1.83l1.53,8.84,1.31-8.84h1.99l-2.21,12.84h-2.05l-1.51-8.66-1.51,8.66h-2.03l-2.23-12.84Z"></path><path class="cls-5" d="m326.04,312.59h2.11l2.79,12.82h-1.99l-.56-2.85h-2.65l-.56,2.85h-1.93l2.79-12.82Zm2.05,8.35l-1.02-5.13-1.02,5.13h2.05Z"></path><path class="cls-5" d="m331.89,312.63h2.29c2.49,0,4.26,1.26,4.26,3.98v.13c0,1.7-.78,2.81-1.89,3.42l2.13,5.26h-2.13l-1.89-4.68c-.08,0-.18.02-.26.02h-.52v4.66h-1.99v-12.78Zm2.33,6.5c1.33,0,2.23-.73,2.23-2.37v-.11c0-1.75-.96-2.34-2.29-2.34h-.28v4.82h.34Z"></path><path class="cls-5" d="m339.68,312.63h2.11c2.97,0,4.78,2.08,4.78,6.19v.4c0,4.11-1.81,6.19-4.78,6.19h-2.11v-12.78Zm2.29,11.14c1.45,0,2.59-1.22,2.59-4.55v-.4c0-3.32-1.17-4.55-2.61-4.55h-.28v9.5h.3Z"></path><path class="cls-5" d="m347.44,324.95v-1.9c.88.49,1.61.75,2.29.75.84,0,1.49-.44,1.49-1.31v-.04c0-.73-.26-1.26-1.55-2.67-1.73-1.88-2.35-2.68-2.35-4.13v-.04c0-1.88,1.41-3.12,3.21-3.12.94,0,1.55.16,2.17.46v1.9c-.76-.42-1.31-.62-1.95-.62-.8,0-1.45.49-1.45,1.3v.04c0,.71.26,1.1,1.55,2.48,1.87,2.01,2.35,2.87,2.35,4.31v.04c0,1.88-1.47,3.14-3.29,3.14-.92,0-1.73-.24-2.47-.58Z"></path><path class="cls-5" d="m353.33,313.53c.1-.23.24-.42.41-.58.17-.16.37-.28.6-.37.23-.09.46-.13.71-.13s.48.04.71.13c.23.09.43.21.6.37.17.16.31.35.41.58.1.23.15.48.15.75s-.05.53-.15.76c-.1.23-.24.42-.41.58-.17.16-.37.28-.6.37-.23.08-.46.13-.71.13s-.48-.04-.71-.13c-.23-.08-.43-.21-.6-.37-.17-.16-.31-.35-.41-.58-.1-.23-.15-.48-.15-.76s.05-.53.15-.75Zm.45,1.33c.07.18.17.33.29.46.12.13.27.23.44.3.17.07.35.11.54.11s.37-.04.54-.11c.17-.07.31-.17.44-.3.12-.13.22-.28.3-.46.07-.18.11-.37.11-.58s-.04-.4-.11-.57c-.07-.17-.17-.33-.3-.45-.12-.13-.27-.23-.44-.3-.17-.07-.35-.11-.54-.11s-.37.04-.54.11c-.17.07-.31.17-.44.3-.12.13-.22.28-.29.45-.07.17-.11.37-.11.57s.04.4.11.58Zm1.31-1.61c.26,0,.45.05.59.14.14.09.21.25.21.47,0,.1-.01.18-.04.24-.03.07-.07.12-.11.16-.05.04-.1.08-.17.1-.06.02-.13.04-.21.04l.55.89h-.43l-.5-.87h-.25v.87h-.4v-2.05h.77Zm0,.86c.12,0,.21-.02.29-.05.07-.03.11-.11.11-.23,0-.06-.01-.1-.04-.13-.03-.03-.06-.06-.1-.08-.04-.02-.09-.03-.14-.04-.05,0-.1-.01-.14-.01h-.34v.54h.36Z"></path><path class="cls-9" d="m268.07,267.47c-.31-.15-.37-.25-.37-.71,0-1.14.08-2.39.1-2.72.02-.31.08-.54.23-.54.17,0,.19.19.19.35,0,.27.08.71.17,1.06.42,1.54,1.56,2.1,2.75,2.1,1.73,0,2.58-1.27,2.58-2.37,0-1.02-.29-1.98-1.89-3.33l-.89-.75c-2.12-1.79-2.85-3.24-2.85-4.93,0-2.29,1.77-3.93,4.44-3.93.73,0,1.31.08,1.77.17.33.06.58.13.79.19.17.04.27.1.27.25,0,.27-.08.87-.08,2.49,0,.46-.06.62-.21.62-.13,0-.19-.12-.19-.37,0-.19-.1-.83-.5-1.37-.29-.39-.85-1.02-2.1-1.02-1.42,0-2.29.89-2.29,2.14,0,.96.44,1.68,2.04,2.99l.54.44c2.33,1.89,3.15,3.33,3.15,5.3,0,1.2-.42,2.64-1.81,3.62-.96.67-2.04.85-3.06.85-1.12,0-1.98-.14-2.81-.54Z"></path><path class="cls-9" d="m284.3,261.69c0,1.91,0,3.56.1,4.45.06.58.17,1.04.75,1.12.27.04.69.08.98.08.21,0,.31.06.31.17,0,.15-.15.21-.37.21-1.27,0-2.48-.06-3.02-.06-.44,0-1.65.06-2.42.06-.25,0-.38-.06-.38-.21,0-.1.08-.17.31-.17.29,0,.52-.04.69-.08.38-.08.5-.54.56-1.14.1-.87.1-2.51.1-4.43v-8.52c-.73.02-1.92.06-2.87.08-1.12.04-1.58.15-1.87.6-.19.31-.29.56-.33.73-.04.17-.1.25-.21.25-.13,0-.17-.1-.17-.33,0-.33.37-2.22.4-2.39.06-.27.12-.39.23-.39.15,0,.35.21.83.25.56.06,1.29.1,1.92.1h7.62c.62,0,1.04-.06,1.33-.1.29-.06.44-.1.52-.1.13,0,.15.12.15.44,0,.44-.06,1.87-.06,2.41-.02.21-.06.33-.17.33-.15,0-.19-.1-.21-.42,0-.06-.02-.17-.02-.23-.04-.54-.56-1.12-2.27-1.16-.5-.02-1.29-.04-2.42-.06v8.52Z"></path><path class="cls-9" d="m292.19,258.04c0-3.16,0-3.74-.04-4.41-.04-.71-.19-1.04-.83-1.19-.15-.04-.48-.06-.75-.06-.21,0-.33-.04-.33-.19s.13-.19.42-.19c.88,0,1.77.06,2.77.06.62,0,4.44,0,4.81-.02.37-.04.67-.08.83-.12.1-.02.21-.08.31-.08s.12.08.12.19c0,.15-.1.39-.15,1.35-.02.21-.06,1.12-.1,1.37-.02.1-.06.23-.19.23s-.17-.12-.17-.37c0-.08-.02-.42-.12-.67-.13-.37-.33-.62-1.29-.75-.33-.04-2.35-.08-2.73-.08-.1,0-.13.06-.13.21v5.26c0,.15.02.23.13.23.42,0,2.64,0,3.08-.04.46-.04.75-.1.92-.31.13-.17.21-.27.31-.27.08,0,.14.04.14.17s-.08.46-.15,1.52c-.02.42-.08,1.25-.08,1.39,0,.17,0,.39-.17.39-.13,0-.17-.23-.17-.33-.02-.21-.02-.33-.08-.6-.1-.42-.37-.73-1.08-.81-.37-.04-2.27-.06-2.73-.06-.1,0-.12.08-.12.21v1.64c0,.71-.02,2.62,0,3.22.04,1.43.35,1.75,2.31,1.75.5,0,1.31,0,1.81-.25.5-.25.73-.69.87-1.54.04-.23.08-.31.21-.31.15,0,.15.17.15.37,0,.48-.15,1.89-.25,2.31-.13.54-.31.54-1.04.54-1.71,0-3.4-.12-5.33-.12-.77,0-1.56.06-2.42.06-.25,0-.38-.06-.38-.21,0-.1.08-.17.31-.17.29,0,.52-.04.69-.08.38-.08.48-.54.56-1.14.1-.87.1-2.51.1-4.43v-3.66Z"></path><path class="cls-9" d="m302.34,254.04c-.44-1.14-.77-1.37-1.46-1.58-.29-.08-.6-.08-.75-.08-.17,0-.23-.06-.23-.19,0-.17.21-.19.5-.19,1.02,0,2.12.06,2.79.06.48,0,1.41-.06,2.37-.06.23,0,.44.04.44.19s-.12.19-.29.19c-.31,0-.6.02-.75.15-.14.1-.19.25-.19.44,0,.27.17.85.44,1.6,1.06,2.99,2.35,6.67,3.35,9.54.83-2.29,3.37-9.08,3.83-10.46.1-.27.17-.58.17-.77,0-.17-.08-.33-.25-.39-.23-.08-.52-.1-.77-.1-.17,0-.33-.02-.33-.17,0-.17.17-.21.54-.21.96,0,1.77.06,2.02.06.33,0,1.23-.06,1.81-.06.25,0,.4.04.4.19s-.12.19-.31.19-.6,0-.94.25c-.25.19-.54.54-1.06,1.87-.75,1.95-1.27,3.08-2.31,5.63-1.23,3.04-2.14,5.3-2.56,6.34-.5,1.2-.62,1.54-.88,1.54-.25,0-.37-.29-.73-1.27l-4.85-12.7Z"></path><path class="cls-9" d="m317.27,258.04c0-3.16,0-3.74-.04-4.41-.04-.71-.23-1.06-.65-1.16-.21-.06-.46-.08-.69-.08-.19,0-.31-.04-.31-.21,0-.13.15-.17.46-.17.73,0,1.94.06,2.5.06.48,0,1.62-.06,2.35-.06.25,0,.4.04.4.17,0,.17-.12.21-.31.21s-.35.02-.58.06c-.52.1-.67.46-.71,1.19-.04.67-.04,1.25-.04,4.41v3.66c0,2.02,0,3.66.08,4.55.06.56.19.93.77,1.02.27.04.69.08.98.08.21,0,.31.06.31.17,0,.15-.15.21-.37.21-1.27,0-2.48-.06-3-.06-.44,0-1.65.06-2.42.06-.25,0-.38-.06-.38-.21,0-.1.08-.17.31-.17.29,0,.52-.04.69-.08.38-.08.5-.44.56-1.04.1-.87.1-2.51.1-4.53v-3.66Z"></path><path class="cls-9" d="m324.52,258.04c0-3.16,0-3.74-.04-4.41-.04-.71-.19-1.04-.83-1.19-.15-.04-.48-.06-.75-.06-.21,0-.33-.04-.33-.19s.13-.19.42-.19c.88,0,1.77.06,2.77.06.62,0,4.44,0,4.81-.02.37-.04.67-.08.83-.12.1-.02.21-.08.31-.08s.12.08.12.19c0,.15-.1.39-.15,1.35-.02.21-.06,1.12-.1,1.37-.02.1-.06.23-.19.23s-.17-.12-.17-.37c0-.08-.02-.42-.12-.67-.13-.37-.33-.62-1.29-.75-.33-.04-2.35-.08-2.73-.08-.1,0-.13.06-.13.21v5.26c0,.15.02.23.13.23.42,0,2.64,0,3.08-.04.46-.04.75-.1.92-.31.13-.17.21-.27.31-.27.08,0,.14.04.14.17s-.08.46-.15,1.52c-.02.42-.08,1.25-.08,1.39,0,.17,0,.39-.17.39-.13,0-.17-.23-.17-.33-.02-.21-.02-.33-.08-.6-.1-.42-.37-.73-1.08-.81-.37-.04-2.27-.06-2.73-.06-.1,0-.12.08-.12.21v1.64c0,.71-.02,2.62,0,3.22.04,1.43.35,1.75,2.31,1.75.5,0,1.31,0,1.81-.25.5-.25.73-.69.87-1.54.04-.23.08-.31.21-.31.15,0,.15.17.15.37,0,.48-.15,1.89-.25,2.31-.13.54-.31.54-1.04.54-1.71,0-3.4-.12-5.33-.12-.77,0-1.56.06-2.42.06-.25,0-.38-.06-.38-.21,0-.1.08-.17.31-.17.29,0,.52-.04.69-.08.38-.08.48-.54.56-1.14.1-.87.1-2.51.1-4.43v-3.66Z"></path><path class="cls-4" d="m332.62,253.31c0-1.13.86-1.95,2.04-1.95s2.03.82,2.03,1.95-.86,1.92-2.03,1.92-2.04-.84-2.04-1.92Zm3.65-.02c0-.95-.66-1.55-1.61-1.55s-1.61.6-1.61,1.55.66,1.57,1.64,1.57,1.59-.64,1.59-1.57Zm-2.46-.31v-.55c0-.13-.09-.16-.27-.16-.02,0-.04-.02-.04-.07,0-.07.04-.09.11-.09h.09s.22.02.38.02c.2,0,.29-.02.51-.02.38,0,.97.07.97.6,0,.22-.09.4-.47.66l.4.46c.29.33.33.33.38.33s.07.02.07.07c0,.07-.02.09-.2.09-.29,0-.53.02-.86-.42l-.31-.42h-.27v.2c0,.4.02.44.04.47.04.02.15.02.22.02.04,0,.07,0,.07.07s-.04.09-.09.09h-.09s-.24-.02-.35-.02c-.07,0-.29.02-.33.02h-.11s-.15-.02-.15-.09c0-.04.02-.07.07-.07.2,0,.22,0,.24-.13.02-.11,0-.27,0-.58v-.49Zm.49.22c.07.04.22.07.31.07.07,0,.13,0,.2-.04.11-.07.2-.2.2-.38,0-.27-.2-.49-.51-.49-.02,0-.15,0-.2.04v.8Z"></path><path class="cls-4" d="m256.68,274.76c-.25-.77-.48-1.27-.77-1.48-.23-.15-.65-.19-.83-.19-.21,0-.33-.02-.33-.19,0-.15.17-.19.46-.19,1.08,0,2.23.06,2.42.06s1.1-.06,2.31-.06c.29,0,.44.06.44.19,0,.17-.17.19-.38.19-.17,0-.38,0-.52.08-.19.08-.23.23-.23.46,0,.27.21.98.46,1.92.35,1.37,2.29,7.69,2.67,8.85h.06l4.04-10.86c.21-.58.35-.75.52-.75.23,0,.33.31.6.98l4.33,10.48h.06c.38-1.4,2.04-6.9,2.77-9.33.15-.48.21-.92.21-1.21,0-.33-.19-.62-1-.62-.21,0-.35-.06-.35-.19,0-.15.17-.19.48-.19,1.1,0,1.98.06,2.17.06.15,0,1.04-.06,1.73-.06.23,0,.38.04.38.17,0,.15-.1.21-.29.21-.21,0-.5.02-.73.1-.5.19-.73,1.02-1.17,2.21-.96,2.62-3.15,9.25-4.17,12.38-.23.73-.33.98-.6.98-.21,0-.33-.25-.65-1.02l-4.33-10.44h-.04c-.4,1.06-3.17,8.44-4.06,10.35-.4.85-.5,1.1-.75,1.1-.21,0-.29-.23-.48-.77l-4.42-13.23Z"></path><path class="cls-4" d="m280.1,278.76c0-3.17,0-3.75-.04-4.42-.04-.71-.25-1.06-.71-1.17-.23-.06-.5-.08-.75-.08-.21,0-.33-.04-.33-.21,0-.13.17-.17.5-.17.79,0,2.1.06,2.71.06.52,0,1.75-.06,2.54-.06.27,0,.44.04.44.17,0,.17-.13.21-.33.21s-.38.02-.63.06c-.56.1-.73.46-.77,1.19-.04.67-.04,1.25-.04,4.42v3.67c0,2.02,0,3.67.08,4.56.06.56.21.94.83,1.02.29.04.75.08,1.06.08.23,0,.33.06.33.17,0,.15-.17.21-.4.21-1.38,0-2.69-.06-3.25-.06-.48,0-1.79.06-2.63.06-.27,0-.42-.06-.42-.21,0-.1.08-.17.33-.17.31,0,.56-.04.75-.08.42-.08.54-.44.6-1.04.1-.88.1-2.52.1-4.54v-3.67Z"></path><path class="cls-4" d="m289.22,285.64c.04,1.63.31,2.17.73,2.31.35.12.75.15,1.08.15.23,0,.35.04.35.17,0,.17-.19.21-.48.21-1.35,0-2.19-.06-2.58-.06-.19,0-1.17.06-2.25.06-.27,0-.46-.02-.46-.21,0-.13.13-.17.33-.17.27,0,.65-.02.94-.1.54-.17.62-.77.65-2.58l.19-12.33c0-.42.06-.71.27-.71.23,0,.42.27.77.65.25.27,3.42,3.67,6.46,6.69,1.42,1.42,4.23,4.42,4.58,4.75h.1l-.21-9.35c-.02-1.27-.21-1.67-.71-1.88-.31-.13-.81-.13-1.1-.13-.25,0-.33-.06-.33-.19,0-.17.23-.19.54-.19,1.08,0,2.08.06,2.52.06.23,0,1.02-.06,2.04-.06.27,0,.48.02.48.19,0,.13-.12.19-.37.19-.21,0-.37,0-.62.06-.58.17-.75.6-.77,1.77l-.23,13.15c0,.46-.08.65-.27.65-.23,0-.48-.23-.71-.46-1.31-1.25-3.98-3.98-6.15-6.13-2.27-2.25-4.58-4.85-4.96-5.25h-.06l.23,8.75Z"></path><path class="cls-4" d="m306.66,285.64c.04,1.63.31,2.17.73,2.31.35.12.75.15,1.08.15.23,0,.35.04.35.17,0,.17-.19.21-.48.21-1.35,0-2.19-.06-2.58-.06-.19,0-1.17.06-2.25.06-.27,0-.46-.02-.46-.21,0-.13.13-.17.33-.17.27,0,.65-.02.94-.1.54-.17.62-.77.65-2.58l.19-12.33c0-.42.06-.71.27-.71.23,0,.42.27.77.65.25.27,3.42,3.67,6.46,6.69,1.42,1.42,4.23,4.42,4.58,4.75h.1l-.21-9.35c-.02-1.27-.21-1.67-.71-1.88-.31-.13-.81-.13-1.1-.13-.25,0-.33-.06-.33-.19,0-.17.23-.19.54-.19,1.08,0,2.08.06,2.52.06.23,0,1.02-.06,2.04-.06.27,0,.48.02.48.19,0,.13-.13.19-.37.19-.21,0-.38,0-.63.06-.58.17-.75.6-.77,1.77l-.23,13.15c0,.46-.08.65-.27.65-.23,0-.48-.23-.71-.46-1.31-1.25-3.98-3.98-6.15-6.13-2.27-2.25-4.58-4.85-4.96-5.25h-.06l.23,8.75Z"></path><path class="cls-4" d="m323.77,278.76c0-3.17,0-3.75-.04-4.42-.04-.71-.21-1.04-.9-1.19-.17-.04-.52-.06-.81-.06-.23,0-.35-.04-.35-.19s.15-.19.46-.19c.56,0,1.17.02,1.69.02.54.02,1.02.04,1.31.04.67,0,4.81,0,5.21-.02.4-.04.73-.08.9-.13.1-.02.23-.08.33-.08s.12.08.12.19c0,.15-.1.4-.17,1.35-.02.21-.06,1.12-.1,1.38-.02.1-.06.23-.21.23s-.19-.1-.19-.29c0-.15-.02-.5-.13-.75-.15-.37-.35-.62-1.4-.75-.35-.04-2.54-.08-2.96-.08-.1,0-.15.06-.15.21v5.27c0,.15.02.23.15.23.46,0,2.85,0,3.33-.04.5-.04.81-.1,1-.31.15-.17.23-.27.33-.27.08,0,.15.04.15.17s-.08.46-.17,1.52c-.02.42-.08,1.25-.08,1.4,0,.17,0,.4-.19.4-.15,0-.19-.08-.19-.19-.02-.21-.02-.48-.08-.75-.1-.42-.4-.73-1.17-.81-.4-.04-2.46-.06-2.96-.06-.1,0-.13.08-.13.21v1.65c0,.71-.02,2.62,0,3.23.04,1.44.38,1.75,2.5,1.75.54,0,1.42,0,1.96-.25.54-.25.79-.69.94-1.54.04-.23.08-.31.23-.31.17,0,.17.17.17.38,0,.48-.17,1.9-.27,2.31-.15.54-.33.54-1.12.54-1.56,0-2.71-.04-3.61-.06-.9-.04-1.54-.06-2.17-.06-.23,0-.69,0-1.19.02-.48,0-1.02.04-1.44.04-.27,0-.42-.06-.42-.21,0-.1.08-.17.33-.17.31,0,.56-.04.75-.08.42-.08.52-.54.6-1.15.1-.87.1-2.52.1-4.44v-3.67Z"></path><path class="cls-4" d="m335.47,278.76c0-3.17,0-3.75-.04-4.42-.04-.71-.21-1.04-.9-1.19-.17-.04-.52-.06-.81-.06-.23,0-.35-.04-.35-.19s.15-.19.46-.19c1.1,0,2.42.06,2.85.06.71,0,2.29-.06,2.94-.06,1.31,0,2.71.12,3.83.9.58.4,1.42,1.46,1.42,2.85,0,1.54-.65,2.96-2.75,4.67,1.85,2.33,3.29,4.19,4.52,5.48,1.17,1.21,2.02,1.35,2.33,1.42.23.04.42.06.58.06s.25.06.25.17c0,.17-.15.21-.4.21h-1.98c-1.17,0-1.69-.1-2.23-.4-.9-.48-1.69-1.46-2.85-3.06-.83-1.15-1.79-2.56-2.06-2.88-.1-.13-.23-.15-.37-.15l-1.81-.04c-.1,0-.17.04-.17.17v.29c0,1.94,0,3.58.1,4.46.06.6.19,1.06.81,1.15.31.04.77.08,1.02.08.17,0,.25.06.25.17,0,.15-.15.21-.42.21-1.21,0-2.75-.06-3.06-.06-.4,0-1.71.06-2.54.06-.27,0-.42-.06-.42-.21,0-.1.08-.17.33-.17.31,0,.56-.04.75-.08.42-.08.52-.54.6-1.15.1-.87.1-2.52.1-4.44v-3.67Zm2.46,1.65c0,.23.04.31.19.38.44.15,1.06.21,1.58.21.83,0,1.1-.08,1.48-.35.62-.46,1.23-1.42,1.23-3.13,0-2.96-1.96-3.81-3.19-3.81-.52,0-.9.02-1.1.08-.15.04-.19.13-.19.29v6.33Z"></path></g></g></svg> 