<?xml version="1.0" encoding="UTF-8"?> <svg xmlns="http://www.w3.org/2000/svg" xmlns:xlink="http://www.w3.org/1999/xlink" version="1.1" id="Layer_1" x="0px" y="0px" viewBox="0 0 400 176.4" style="enable-background:new 0 0 400 176.4;" xml:space="preserve"> <style type="text/css"> .st0{fill:#292560;} </style> <g> <g> <path class="st0" d="M372.3,52.1v21.2h21.2l-2,4.5h-19.2v22.6l-4.8-2.4V77.8h-22.6l2.4-4.5h20.2V49.8L372.3,52.1z"></path> </g> <g> <path class="st0" d="M93.5,37.6h26.3V6.3l20.8,0.1c11.4,0.1,20.6,9.5,20.6,20.8c0,11.1-8.7,20-19.5,20.7L162,89.7h-11.6 l-20.2-41.6v41.6h-10.4V48H98.7L93.5,37.6z M150.8,27.3c0-5.7-4.7-10.5-10.4-10.5h-10.2v20.8h10.4C146.2,37.6,150.8,33,150.8,27.3 z"></path> <path class="st0" d="M169.8,6.3h10.4v83.4h-10.4V6.3z"></path> <path class="st0" d="M221.9,46.8L201,28.9v60.8h-10.4V6.3l31.3,26.8V6.3h10.4v83.4h-10.4V46.8z"></path> <path class="st0" d="M265.2,40l29.2,49.7h-12.1l-29.2-49.8v49.8h-10.4V6.3h10.4v31.6l28.6-31.6h14L265.2,40z"></path> <path class="st0" d="M298.6,79.3h11.2c7.5,0,10-9.7,6.4-16.7l-14.8-21.5c-4.6-5.9-6.7-12.1-5-19.1c2.1-9.3,10.3-15.7,19.6-15.7 h10.2v10.4l-8.8,0.1c-5,0.1-9.8,2.7-10.9,7.9c-0.5,2.7-0.1,5.3,1,7.5l18.3,27.3c8.3,12.6-0.9,30.1-15.5,30.1h-11.7V79.3z"></path> <path class="st0" d="M96.9,118.6h22.8V87.4h41.1l0.6,1.2v9.2h-31.3v20.8H151v10.4h-20.8v31.3h31.3v10.4h-41.7v-41.7h-17.6 L96.9,118.6z"></path> <path class="st0" d="M201.7,170.8l-15-41.8l-6.8,41.8h-10.6l13.5-83.3l19.1,53l19.1-53l13.3,83.3h-10.6l-6.7-41.8L201.7,170.8z"></path> <path class="st0" d="M278.5,87.4c23,0,41.7,18.7,41.7,41.7c0,23-18.7,41.7-41.7,41.7s-41.7-18.7-41.7-41.7 C236.8,106,255.4,87.4,278.5,87.4z M278.5,160.3c17.3,0,31.3-14,31.3-31.3c0-17.3-14-31.3-31.3-31.3c-17.3,0-31.3,14-31.3,31.3 C247.2,146.4,261.2,160.3,278.5,160.3z"></path> <path class="st0" d="M328.3,160.3h11.1c7.5,0,10-9.7,6.4-16.7L331,122.2c-4.6-5.9-6.7-12.1-5-19.1c2.1-9.3,10.3-15.7,19.6-15.7 h10.2v10.4l-8.8,0.1c-5,0.1-9.8,2.7-10.9,7.9c-0.5,2.7-0.1,5.3,1,7.5l18.3,27.3c8.3,12.6-0.9,30.1-15.5,30.1h-11.7V160.3z"></path> </g> <g> <path class="st0" d="M5.9,6.1h26.7c45.4,0,82.2,36.8,82.2,82.2c0,45.4-36.8,82.2-82.2,82.2H5.9V6.1z M20.9,16.9V160h7.2 c39.7,0,73.2-32,73.2-71.7c0-39.7-33.5-71.7-73.2-71.7L20.9,16.9z"></path> </g> </g> </svg> 