<?xml version="1.0" encoding="UTF-8"?> <svg xmlns="http://www.w3.org/2000/svg" xmlns:xlink="http://www.w3.org/1999/xlink" id="Layer_1" data-name="Layer 1" viewBox="0 0 60 60"><defs><style> .cls-1 { fill: url(#linear-gradient); } .cls-2 { fill: #fff; } </style><linearGradient id="linear-gradient" x1="45" y1="55.99" x2="15" y2="4.01" gradientUnits="userSpaceOnUse"><stop offset="0" stop-color="#292660"></stop><stop offset="1" stop-color="#c93493"></stop></linearGradient></defs><title>avatar-mic</title><circle class="cls-1" cx="30" cy="30" r="30"></circle><g><path class="cls-2" d="M30,37.16a6.57,6.57,0,0,0,6.57-6.57V18.65a6.57,6.57,0,0,0-13.13,0V30.59A6.57,6.57,0,0,0,30,37.16ZM24.63,18.65a5.37,5.37,0,1,1,10.74,0V30.59a5.37,5.37,0,0,1-10.74,0Z"></path><path class="cls-2" d="M39,24.62v6a9,9,0,0,1-17.9,0v-6h-1.2v6a10.15,10.15,0,0,0,9.63,10.12h-.07v6H24v1.19H36V46.72H30.6v-6h-.08a10.15,10.15,0,0,0,9.63-10.12v-6Z"></path></g></svg> 