<?xml version="1.0" encoding="UTF-8"?> <svg xmlns="http://www.w3.org/2000/svg" id="Layer_1" data-name="Layer 1" viewBox="0 0 154 103"><defs><style> .cls-1 { fill: #fff; } </style></defs><title>client-logo-meatless-farm-co</title><g><g><path class="cls-1" d="M73.15,26.59h1.23v.33H72.9c0,1.87,0,3.74.07,5.6,0,1-.51,2.6,1.06,2.76s1-1.5,1.25-2.38.61-1.38,1.57-1.37,1.5.38,1.58,1.36a5.87,5.87,0,0,0,0,.59c.1.85.09,1.87,1.29,1.85,1.38,0,1.14-1.18,1.18-2.06,0-.44,0-1.61,0-2.9l-.18-.09.07-.32.1-.05v-.38l0,0L80.52,29h.2a.41.41,0,0,1,.22,0,5.24,5.24,0,0,0,0-.57,2.15,2.15,0,0,0-.14.26,2.17,2.17,0,0,1-1.09-.26,6.3,6.3,0,0,0-1.23.19c-.22.06-.42.1-.59.13a2.16,2.16,0,0,1-1,.23h-.19a.78.78,0,0,1-.26,0A.4.4,0,0,1,76,28.9a1,1,0,0,1-.65-.87c-.09-.53-.18-1-.24-1.56-.09-.68.17-1.61-.92-1.63s-1.33.88-1.31,1.79v.3l.25-.32m3.12,4.57a.26.26,0,0,1,.11.23Zm2.34,1.16-.18-.15V32a.17.17,0,0,1,.18.17v.13Zm-1.76-2.43a.46.46,0,0,1-.26,0l-.11-.19C76.68,29.84,76.79,29.87,76.86,29.91Zm.62.24v-.4L77,29.62c.07-.33.32-.46.71-.46a1.09,1.09,0,0,1,.65.2l-.52.2v.59h.78l.71-.27v.4l-.71.27.19.92-1-.27.39-.53a11,11,0,0,1-2.07-.13c.72-.19,1.18-.32,1.37-.39Z"></path><path class="cls-1" d="M63.46,25.85c0-.1.08-.19.12-.31l.12.26h.12c.13,0,.2.07.2.27a1,1,0,0,1-.07.33h-.52v.53l.27.06-.05-.33.33.08c0,.12.06.22.07.29.31,0,.58,0,.93.07a.88.88,0,0,1,.82.82h1.57a6.78,6.78,0,0,0-1,.53l-.13-.14a1.07,1.07,0,0,1-.26-.12.24.24,0,0,0-.12,0V29h.05l.45-.33c.33,0,.78.4,1.29,1.19a14.13,14.13,0,0,0-1.42.26l-.37-.07c0,.94,0,1.88.06,2.81s-.3,2.24,1.06,2.39c1.14.12,1.16-.78,1.17-1.53,0-.07,0-2.46-.06-4.27,0-.13-.06-.27-.11-.43h.11c0-.27,0-.53,0-.75v-.06a1,1,0,0,1,1-1.16l.44,0c.64-.08,1.28-.07,1.26-1S69.87,25,69.21,25s-1.5,0-2.24,0c0,0-2.09,0-3.13.08a1.06,1.06,0,0,0-1,1.06.85.85,0,0,0,.18.57.64.64,0,0,1,.48-.79m3.9.87.84.2c-.34.08-.68.15-1,.2Z"></path><path class="cls-1" d="M87.78,35.5c1,0,2.48.42,2.61-1,.17-1.72-1.5-.92-2.37-1.2-.66-.22-1.62-.1-1.59-1.11s1-.86,1.67-.94,1.23-.13,1.29-.92-.5-1.14-1.23-1.24L87.77,29c-.61-.11-1.25-.28-1.23-1s.76-.78,1.32-.89,1.17-.18,1.76-.25,1.55-.15,1.57-1.12-.84-1-1.56-1-1.19,0-1.78,0v0h-1c-2.55,0-2.62.08-2.77,2.65-.09,1.45-.22,2.89-.24,4.34,0,3.9,0,3.93,3.93,3.87m.1-10.4.11.07v.11a.33.33,0,0,1-.22-.11Zm-.11.48c.11,0,.18,0,.18.12v0l0,.08h-.22Zm.84,0a.19.19,0,0,1,.07.15.73.73,0,0,1-.07.3l.07.08-.07.11h-.92a4.81,4.81,0,0,1,.91-.64Z"></path><path class="cls-1" d="M79,28.3c.9-.65,1.48-1,1.67-.92h.13v.92l.14.05c0-.91,0-1.72,0-2.17,0-.69-.25-1.35-1.11-1.37s-1.12.57-1.21,1.28-.06,1.18-.14,1.77a1.45,1.45,0,0,1-.13.45H79"></path><path class="cls-1" d="M72.68,23.45h0Z"></path><path class="cls-1" d="M60.85,68.92l.1-.06-.19-.23h.12a.57.57,0,0,1,.34,0,1,1,0,0,0,.21-1.16c-.65-1.47-1.17-3-1.76-4.48h-.45l.19-.33.11,0c-.21-.53-.43-1.06-.67-1.57l-1.29.12c.23-.14.46-.27.7-.39v-.71l.1,0,0-.05a1.87,1.87,0,0,0-3.21.2c-1,2.46-1.74,5-2.42,7-.17,1.08-.2,1.59.38,1.86a1.17,1.17,0,0,0,1.51-.41c1.74-2.39,3.29-1.86,4.73-.11a1.14,1.14,0,0,0,1.5.38M60.3,66.8s0,.07,0,.07H60.2l-.11-.29q.21,0,.21.21Zm-5.43-.58h-.28V66l.11-.15h0c.11,0,.14,0,.14.15Zm-.07-4.15v-.22a.29.29,0,0,1,.18.07l0,.15Zm1.54.33-.11,0-.07-.19A.34.34,0,0,1,56.34,62.4ZM56,65.25c-.76-.37-.21-1.49,0-2.14.12-.47.36-1,1-.72a1.09,1.09,0,0,1,.53.77A6.48,6.48,0,0,1,58,64.68c0,.43-1.26.92-2,.57Z"></path><path class="cls-1" d="M71,65.48a1.55,1.55,0,0,1-.08-1.74,6.52,6.52,0,0,0,.35-.7.64.64,0,0,0-.1-.13h.16l.06-.14V62.5l.1,0c0-.07,0-.13.06-.19l-.31-.06,0-.11.18-.11c0-.15.07-.33.11-.55a.42.42,0,0,1,.12.08c.12-1.65-1.13-2.58-3.65-2.62-.95,0-2.31-.41-2.61.88a44.28,44.28,0,0,0-.86,8.45,1,1,0,0,0,1.06,1.09,1.08,1.08,0,0,0,1.18-1c.12-.63.13-1.63.27-2.43a.57.57,0,0,1,.65-.46.55.55,0,0,1,.34.2,16.69,16.69,0,0,1,1.59,2.73,1.14,1.14,0,0,0,1.73.53,1.1,1.1,0,0,0,.53-1.59,18.07,18.07,0,0,0-1-1.86m-5.63-3.2a2.86,2.86,0,0,1-.22-.47h.27a1.67,1.67,0,0,0,0,.5Zm4.77-.49a1.15,1.15,0,0,1-.65.92,1.55,1.55,0,0,1-1,0,1.45,1.45,0,0,1-.79-.44.81.81,0,0,1-.23-.55,1,1,0,0,1,.24-.62,1.1,1.1,0,0,1,1.2-.42l0-.14h1l-.1.53.16.11a.58.58,0,0,1,.2.21.71.71,0,0,1,0,.38Z"></path><path class="cls-1" d="M86.59,68.46l0-.19.18-.07v-.15a.11.11,0,0,0-.08,0s0,0-.07,0l-.22-.29h.12a.22.22,0,0,1,.24.06,2.82,2.82,0,0,0-.07-.31q-1-3.36-2-6.7a1.65,1.65,0,0,0-1.61-1.35,1.58,1.58,0,0,0-1.65,1,2.16,2.16,0,0,1-.6.89v.17l-.27-.05c-.39.05-.79-.33-1.15-1a1.62,1.62,0,0,0-1.87-1c-.95.15-1.13.9-1.27,1.66-.37,2.11-.62,4-1,6.08-.14.78-.29,1.59.79,1.78s1.33-.53,1.51-1.33c.3-1.25.59-2.91.94-4.42a3.6,3.6,0,0,0,1.66,1.86h0c1.06.42,2.1-.43,2.68-1.92.51,1.73,1,3.51,1.49,5,.23.74.65,1.26,1.53,1a1.23,1.23,0,0,0,.77-.66l-.14-.07m-8.4-8.69h.29l.11.33,0,.07-.36.07ZM78.73,63c-.06-.2-.12-.46-.19-.71l.58.19-.19.06c.12.26,0,.39-.2.45Z"></path><path class="cls-1" d="M49.88,59c-1.06,0-3.05.11-3.05.09a4,4,0,0,0-1.23,0,.32.32,0,0,1,0,.09l0-.07a2.36,2.36,0,0,0-.28.12c-1,.45-.76,2.31-.74,3v.06c0,1.74,0,5.53-.07,5.62,0,.77,0,1.67,1.2,1.57s.9-1.4,1-2.3c0-.19,0-.36,0-.65,0-.92,1.16-.76,1.79-.84s1.08-.2,1.09-.89-.41-.93-1-1c-.23,0-.73,0-1-.09-.43-.1-.84-.19-.9-.73a3.64,3.64,0,0,1,0-.66,1.22,1.22,0,0,1,1.06-1.24c.46-.05,1.83,0,2.28-.07s1-.3,1-1A1.09,1.09,0,0,0,49.91,59m-3.8,8.87-.18-.11h0c0-.15,0-.32.07-.48l0,0a.89.89,0,0,0,.21.33ZM47.32,64l-1,.2-.13.9a3,3,0,0,1-.64-.26c.2-.06.27-.39.27-.9a1.21,1.21,0,0,1,.57-.27,2.11,2.11,0,0,1,.84.33Zm-.27-4h-.5v-.32l.18-.27h.07c.19,0,.26.07.26.27Zm1.08.2-.32-.27V59.6a.3.3,0,0,1,.32.28v.25Z"></path><path class="cls-1" d="M99.61,67c-.35.16-.55.28-.86.17-1.27-.48-2.42-1.25-2.26-2.71s1-2.7,2.75-2.59c.75,0,1.4-.11,1.66-.66a4.89,4.89,0,0,0-.09-.53l.21.06v-.08c0-1.11-1-1.15-1.83-1.22H99l-.06.42a.62.62,0,0,1-.33-.38l0,0a4.43,4.43,0,0,0-4,2.57,5.27,5.27,0,0,0-.44,1.14h0l.33.13h-.13v.33l.32-.13v-.33l.59.13.46.73-.46-.26-.2.4L94,64.22a5.15,5.15,0,0,0,.62,2.69h0a5.74,5.74,0,0,0,.32.53h.41l.2-.33.64.32-.2.93h-.3a4.64,4.64,0,0,0,4.16,1.18c2.29-.37,1.81-3.53-.25-2.61m-4.46-2.1.2-.46H96l.39.46ZM97,66.77h-.06l-.2-.4c.26.07.46.14.53.33s-.14.08-.27.08Zm3,1a3.12,3.12,0,0,1-.26-.8h.18v.34l.3.08a.27.27,0,0,1,.22-.27,5.82,5.82,0,0,1-.44.66Z"></path><path class="cls-1" d="M106.28,66.62l-.06-.24h.49l.19.08-.05.06a.62.62,0,0,0-.38.1h.15a3,3,0,0,0,1.37-.31,1.48,1.48,0,0,0-.95-.72l.11-.41h.53l0,.13a.9.9,0,0,0,.2.86l.11.12a3.25,3.25,0,0,0,1.55-3.1c0-2.38-1-3.5-3.09-3.51a3.31,3.31,0,0,0-3.08,3.57,3.12,3.12,0,0,0,2.88,3.36m.32-5c1,0,1.07.8,1.13,1.56s-.29,1.57-1.27,1.55-1.19-.79-1.15-1.53.28-1.58,1.29-1.57Z"></path><path class="cls-1" d="M107.68,68.41l.13-.13a.5.5,0,0,0,.27-.07h.26c.22,0,.47,0,.75,0a2.36,2.36,0,0,0,0-.3.31.31,0,0,0-.1-.24l0,0c-.37.07-.7.13-1,.16v.09l-.08-.08-.53.06,0,0a1.24,1.24,0,0,0,.34-.18l0,0v-.09a10.83,10.83,0,0,0-3.49.43c-.15,0-.1.45-.1.6a1,1,0,0,0,.41.71,3.61,3.61,0,0,0,1.13.14c.73,0,1.45,0,2.18-.09a2.78,2.78,0,0,0,.94-.2.49.49,0,0,0,.36-.42,2.66,2.66,0,0,1-1.38-.33"></path><path class="cls-1" d="M68,52.49l-.89-2c0,.11-.07.22-.11.33l.14.14-.14.2H65.39A9,9,0,0,1,67,50c-1.31-3-2.61-6-4.14-8.88A2.51,2.51,0,0,0,60,39.87c0,.16,0,.34,0,.57a3.23,3.23,0,0,1-.25-.49,2.29,2.29,0,0,0-1.4,1.34c-.76,1.93-1.44,3.88-2.07,5.74a.21.21,0,0,1,0,.13l-.1,0c-.58,1.73-1.12,3.38-1.62,4.83-.26,1.66-.3,2.47.58,2.86a2.55,2.55,0,0,0,2.75-.49l.53-.53-.06-.46a.43.43,0,0,1,.42.12c2.28-2,3.53-1.92,6,.56a1.85,1.85,0,0,0,2.32.59,1.57,1.57,0,0,0,.9-2.17M65.7,49.11l.2.13v.2a.57.57,0,0,1-.4-.2Zm-.2.87c.2,0,.33.07.33.2v.07l.07.13h-.4Zm-10.81,3.6-.22-.53a1.92,1.92,0,0,1,.6.42.52.52,0,0,1-.36.11Zm2-5.56a1.28,1.28,0,0,0-.11-.2l.22-.11c.11-.23.22-.38.41-.42a4,4,0,0,1-.51.73Zm.71,1.79a1.18,1.18,0,0,1,.11.19Zm1.12-2.39L58.29,47l.19.2Zm4.1,1.86a3.61,3.61,0,0,1-3.28,0c-.55-.39-.36-1.06-.27-1.59s.42-1.34.57-2,.53-1.34,1.33-1.3c.55,0,.95.56,1.17,1a7.16,7.16,0,0,1,.8,3.22.9.9,0,0,1-.3.64Zm.4.3-.16-.31a.38.38,0,0,1,.3.23Z"></path><path class="cls-1" d="M137.36,50.78l-.15-.08.07-.22h.11a1,1,0,0,0,0-.24h-.57V50a2,2,0,0,0,.55.11,6.57,6.57,0,0,0-2.84-4c-.74-.56-2.06-.87-2.26-1.81h-.48l-.07-.6a1.63,1.63,0,0,0,.49,0,.18.18,0,0,0,.05.07,1.56,1.56,0,0,1,.1-.37c.55-1.49,1.85-.4,2.86-.23A1.59,1.59,0,0,0,137.05,42a1.43,1.43,0,0,0-.73-1.86,6.25,6.25,0,0,0-3.09-.91c-.27,0-.53.06-.78.1l0,.05h-.2a4.78,4.78,0,0,0-3.83,3.28c-.73,2.12.24,3.71,1.87,5,.5.39,1.08.7,1.59,1.06.82.58,1.91,1.13,1.42,2.34s-1.67.75-2.58.38A1.89,1.89,0,0,0,128,52.52c-.65,1.45.51,1.93,1.52,2.38l.29.11v-.15l-.37-.07.22-.38.26.38-.08.23a5.8,5.8,0,0,0,6.94-2.14,4.23,4.23,0,0,0,.6-2.11h0m-4.71-4h.13l.18.44h.55l.06.57a1.35,1.35,0,0,0-.45,0c-.23-.32-.49-.63-.75-.93l.28,0Zm-1.75,7.09v-.23h0a.49.49,0,0,0,.14.11,1,1,0,0,1,.34.3l-.5-.18Z"></path><path class="cls-1" d="M109.38,53.12c-.08-.94-.77-1.18-1.59-1.23-.47,0-.94,0-1.4-.07-1.06-.14-2.52.06-2.65-1.42a1.6,1.6,0,0,1,.11-.84l-.13-.09.11-.07.11,0c.42-.6,1.45-.46,2.22-.55s1.71-.33,1.73-1.43-.66-1.46-1.59-1.61c-.37-.06-.74-.08-1.11-.17-.76-.18-1.47-.49-1.45-1.42s.84-1.17,1.57-1.29c1.1-.18,1.61-.38,2.73-.48.91-.09,1.67-.37,1.67-1.47s-.69-1.42-1.63-1.53c-4.41-.53-6,0-7.25,1.94-2.15,3.44-.85,9.87-.84,11a2.62,2.62,0,0,0,.68,2l.2.06a.12.12,0,0,1,0,.08,1.38,1.38,0,0,0,.43.19h.07v0a2,2,0,0,0,.42.07c2,.12,4.1.12,6.15,0a1.43,1.43,0,0,0,1.46-1.69m-8.92.26-.11-.41.33.11-.1,0c.07.13,0,.21-.12.25Zm2.89-10.22a.28.28,0,0,1,.29.19l-.29.07Zm-.41-.66a.24.24,0,0,1,.07.16v0a.2.2,0,0,1-.07-.15Zm.41,5.39a.56.56,0,0,1-.41.15v-.31a.69.69,0,0,1,.41.15ZM103,43.67l-.26.07v-.22a.57.57,0,0,1,.27.13Zm-.33-2.34c0,.21-.11.43-.18.64,0-.24-.06-.48-.11-.72Zm.22,1.51a1.25,1.25,0,0,1-.14.41.73.73,0,0,1-.59-.53l.73.1ZM101.24,54.5h-.11l-.08-.23a2.21,2.21,0,0,0,.34.18.2.2,0,0,1-.15,0Zm-.4-2.25.37-.56.24.06v.63Zm.88,2.25-.11-.15a.4.4,0,0,1,0-.19l.11.11Zm-.46-5.64a3.64,3.64,0,0,1-.36-1.1h.27v.47l.4.11a.39.39,0,0,1,.31-.37,8,8,0,0,1-.62.87Zm1-3h-.1l-.11-.42a.43.43,0,0,1,.36.27.13.13,0,0,1-.14.13h0Zm.35,1a3.59,3.59,0,0,1,.62.31l-.77.21Zm.4,6,.12-.5c.19,0,.31.06.31.25s-.12.25-.37.25Zm-.11.72-.15-.19a.71.71,0,0,1,.33.15ZM103.5,44h-.15v-.31a.21.21,0,0,1,.15.23Zm.22,3.44c.18,0,.29,0,.26.15l-.15.45-.18-.07Z"></path><path class="cls-1" d="M49.25,53.48c-.09-1-.8-1.24-1.64-1.29a14.13,14.13,0,0,1-1.46-.07c-1.12-.15-2.63.07-2.77-1.48-.17-1.78,1.42-1.45,2.51-1.59.93-.12,2.57-.2,2.59-1.34S48.1,46,46,45.89a7.6,7.6,0,0,1-1.15-.17c-.79-.2-1.53-.51-1.51-1.49S44.26,43,45,42.89c1.15-.18,2.31-.26,3.48-.36.95-.09,1.74-.39,1.74-1.53a1.38,1.38,0,0,0-1.11-1.45l-.16.33-.41-.12a1.78,1.78,0,0,1,.41-.22v0l-.42-.09c-4.92-.92-7.23-.77-8.26,1.47l.16,0a4.84,4.84,0,0,1-.19.65c0-.2,0-.35-.06-.48a10.32,10.32,0,0,0-.61,3.21l0-.21c.33,0,.53.06.46.26l-.26.8-.27-.11c0,.26,0,.51,0,.78a7.48,7.48,0,0,0,.95.13.93.93,0,0,0,.46-.07l.26-.33a3.24,3.24,0,0,1-.72-.61l.26-.87h.66a2.19,2.19,0,0,0,.2.8l.53.13v.4h-.73l.19.34h.2v.33a5.83,5.83,0,0,1-1.71,1,.36.36,0,0,1-.26-.07,1.07,1.07,0,0,0-.3-.62v.22c0,.27,0,3.37,0,5.33h0v.38h0v.41c0,1.27.38,2.43,1.85,2.51.85.05,1.69.08,2.54.09,0-.1,0-.19-.07-.29h.3l.06.29c1.19,0,2.38,0,3.57-.05a1.49,1.49,0,0,0,1.52-1.76m-1,.45a.51.51,0,0,1,.33.13l.06.27h-.39ZM40.51,42.87a.78.78,0,0,1-.59-.53l.74.11A1.06,1.06,0,0,1,40.51,42.87Zm1,4.27c.19,0,.3,0,.27.15l-.15.46-.19-.08Zm1.42.76h-.41l.11.19h.12v.19a3.68,3.68,0,0,1-1,.53.24.24,0,0,1-.15,0,.6.6,0,0,0-.38-.5v-.18a6.46,6.46,0,0,0,.75.11.51.51,0,0,0,.27,0l.15-.19a1.69,1.69,0,0,1-.41-.34l.14-.49h.37a1.41,1.41,0,0,0,.11.45l.3.08Z"></path><path class="cls-1" d="M123,40a6.38,6.38,0,0,0-5.8,0c-.23.55-.39.87-.53.94l-.21,0,0-.36.36-.11.1-.18-.07-.07a4.83,4.83,0,0,0-2.36,3.91,3.48,3.48,0,0,0,.17,1.32l0-.26h.94v.64h.76c-.13.19-.26.32-.44.32h-.19l-.36-.32.06-.19a.38.38,0,0,0-.38-.19.54.54,0,0,1-.29.32,4.83,4.83,0,0,0,2,2.34c1,.58,2.8.65,2.89,2.19.11,2-2.42,1.31-3.56,1-2-.53-2.72,2.44-.77,3.13,3.91,1.38,7.65.19,7.73-4.07A4.56,4.56,0,0,0,121.69,47,4.48,4.48,0,0,0,120,46a3.12,3.12,0,0,1-1.76-.88,1.32,1.32,0,0,1,.29-1.8l.21-.14-.07-.06a1.22,1.22,0,0,0,0-.27l.23.21a2.82,2.82,0,0,1,2.53-.23c1.85,1,3.39-1.88,1.55-2.83M116,42.79v-.07c0-.15,0-.27.14-.29l.07.22a.31.31,0,0,0,.07.29C116.05,42.93,116,42.89,116,42.79Zm.53-1.09c0,.07-.07.11-.25.15v-.08a.26.26,0,0,1,.07-.18.3.3,0,0,1,.18,0Zm-.07,11.66c0,.11,0,.18-.15.18a2.55,2.55,0,0,1-.53-.18v-.24a.67.67,0,0,0,.36-.14l.32.29Zm1.89,1.52-.18.13-.3-.52h.63Zm3.09-5.22a1.47,1.47,0,0,0,.3.08.2.2,0,0,0,0,.11l-.07.06h-.23Zm-3.83-8.58.11.07a2.16,2.16,0,0,1-.25.27A.61.61,0,0,1,117.56,41.08Zm1.91,5.48.09.35a2.48,2.48,0,0,1-.48.49c0-.13-.08-.22-.13-.35a.8.8,0,0,1,.51-.49Zm-1.38.17v.16H118l0,.07v.18a1.12,1.12,0,0,0,.32,0,2,2,0,0,0,.43-.07,3.6,3.6,0,0,1-.86.21h-.07l-.11-.26h-.31l0-.33a.9.9,0,0,0,.46,0l0-.1.13.06.15,0Zm.06-4.83a.54.54,0,0,0-.42.16h-.1l-.07-.29H118l.18.07Z"></path><path class="cls-1" d="M90.22,55l.26.1c.6,0,1.75-.18,2.92-.21A1.62,1.62,0,0,0,95,53.29a1.68,1.68,0,0,0-1.63-1.61c-.68-.08-1.45,0-2.12-.07A1.45,1.45,0,0,1,89.82,50l0-.24c0-2.33.11-4.48,0-6.81-.06-1.29.18-3.29-1.42-3.52l0,.06h-.38v-.09c-1.46,0-1.42,1.24-1.43,2.3.09.14,0,5.73,0,8.29a.11.11,0,0,1,0,.08c0,1.06-.4,4.08,1.09,4.74,1,.47,1.21.25,2.35.25a.85.85,0,0,1,.23,0v0m2.34-1.55.27.07v.7l-.7-.14Zm-5.27-9.21c0,.2-.12.43-.19.67,0-.25-.07-.5-.12-.74Zm.07,2a.8.8,0,0,1-.61-.54l.76.12a1,1,0,0,1-.15.41Zm.53-5.71a.24.24,0,0,1-.15,0h-.07l-.16-.27.5.08Zm.52,10.09.11.63-.19-.08Zm.11,1.68a.6.6,0,0,0-.38-.5v-.2a4.94,4.94,0,0,0,.77.12Z"></path><path class="cls-1" d="M81.14,41.13,81,42.5c.77-.09,1.5-.32,1.48-1.34A1.56,1.56,0,0,0,82,40.1v.08h-.34v-.34a4.31,4.31,0,0,0-1.93-.39c-1.12,0-2.24,0-3.35,0,0,0-1.21,0-2.5.07l0,.07c0,.2.2.26.53.33v.35h-.2l-.2.4h-.53v-.62h-.93c0-.18.07-.35.1-.53-.34,0-.66,0-.93,0a1.66,1.66,0,0,0-.84.26v.09L72,39.64l.13.2-.33.21-.27.4H72l.53,1.16H72V40.8l-1.14.4a.8.8,0,0,1,.26.61,1.83,1.83,0,0,1-.13.56,2.46,2.46,0,0,0,.61.14c.66.09,1.14.08,1.8.16,1,.12,1.25.84,1.28,1.7v1l.15,0-.15.09v.83a.43.43,0,0,1,.22.09v.09a.43.43,0,0,0,0,.07l0,.07-.09,0-.06,0c0,1.55,0,3.1.09,4.65a.9.9,0,0,1,.22.06l.14-1h.4a4,4,0,0,0,0,1.29l-.51.1a1.9,1.9,0,0,0-.25,0c0,1.32-.19,3.11,1.58,3s1.74-1.17,1.74-2.29c-.08-.13,0-5.65-.1-8.17v-.08c0-1,.45-1.66,1.54-1.74.23,0,.45,0,.67-.06l.68-.07a1.1,1.1,0,0,1-.53-.63c.07-.26.13-.55.2-.75h.6M75.9,49.71l-.29,0-.27,0a1.12,1.12,0,0,0-.1-.31,1,1,0,0,1,.34,0l.08-.53h.23a2.24,2.24,0,0,0,0,.73Zm3.89-9.09-.38.07v-.5h.3l.12.35Z"></path><path class="cls-1" d="M34.39,52.48q-1.48-5.16-3-10.28A2.53,2.53,0,0,0,29,40.13h-.34a3,3,0,0,0-.85.14h0a2.29,2.29,0,0,0-1.41,1.39,7.77,7.77,0,0,1-1,2l0,0a.51.51,0,0,1-.29.13c-.38,0-.82-.58-1.45-2.14a2.63,2.63,0,0,0-3.06-1.45l-.15,0-.29.06h0a1.88,1.88,0,0,0-.91.58l0,0,0,0a4.38,4.38,0,0,0-.64,1.85c-.14.82-.29,1.65-.44,2.48a.51.51,0,0,1,0,.17c-.06.37-.13.75-.19,1.12l0,.14L17.52,48a.49.49,0,0,1,0,.12c-.12.66-.23,1.32-.35,2a.8.8,0,0,1,0,.15h0l-.33,1.85v.06l-.05.27c0,.2-.07.4-.1.6a3.26,3.26,0,0,0,0,1.08,1.25,1.25,0,0,0,.4.68l.21.14a1.22,1.22,0,0,0,.24.1h0a3.25,3.25,0,0,0,.42.11H18a3,3,0,0,0,.6,0c1-.15,1.4-1.06,1.64-2.07l.53-2.29c0-.18.09-.37.13-.56a3.85,3.85,0,0,0,0-.68.57.57,0,0,1,.16-.11l.3-1.36c.14-.59.27-1.18.4-1.75a.06.06,0,0,1,0-.05,6.36,6.36,0,0,0,1.76,2.35,2.69,2.69,0,0,0,.89.5,2.13,2.13,0,0,0,.71.09c1.24,0,2.45-1.17,3.36-3.4v0l.36,1.2v0a1.59,1.59,0,0,0,.07.2c.17,0,.33.21.45.06l.34.19-.27.12,0,0h-.3l-.09.09.12.4.08.29c.08.25.15.5.23.74v0l.15.52.3,1v0c.06.19.11.37.17.55v0c.24.79.47,1.56.69,2.27a2,2,0,0,0,1.24,1.55A1.83,1.83,0,0,0,33.19,55a3,3,0,0,0,.41-.18l.18-.11,0,0a1.9,1.9,0,0,0,.57-2.26m-5.69-9.32.32-.26h.29c0,.35-.05.44-.45.56C28.7,43.4,28.67,43.3,28.68,43.15Zm.16,1c-.2-.06-.41.07-.55-.13l.19-.14C28.69,43.68,28.8,43.74,28.84,44.1Zm-.61-2,.08.11C28.2,42.21,28.2,42.21,28.23,42.09Zm.11,2.79h0a1.66,1.66,0,0,0,0-.22h.07Zm-.65,2.21-.06.15a1.58,1.58,0,0,0-.12.15.89.89,0,0,0-.08.17h-.19c0-.06,0-.12,0-.2C27.41,47.34,27.4,47,27.69,47.09Zm-.5-3.66c0,.06,0,.12,0,.16l-.12.18C27,43.62,27.07,43.53,27.19,43.43Zm-.39-2.1h-.06a.18.18,0,0,1,.08.15h-.05a.76.76,0,0,0,0-.16Zm-.11-.07,0,.06a.1.1,0,0,1-.08,0Zm.18,1c.24.2.06.37-.05.53v-.45h-.07c0,.11,0,.23,0,.36l-.12.12c0-.19-.08-.37-.13-.56Zm-.83.64.13.08.19-.12.2.3-.28-.09-.08.08L25.93,43Zm0,.79v.41a.69.69,0,0,0-.15-.07l-.24,0Zm-5.43-3.44.21.2-.38,0Zm-.56,10.56H20v-.24Zm-.72,0h.18v.11l-.15,0c0-.06,0-.09,0-.14ZM19.22,42v0h.16v0Zm.4,8.78h.07v.13h0A1.3,1.3,0,0,0,19.62,50.74Zm-.06-1.39a.09.09,0,0,0,0-.07h.14v0Zm-.31-.41.05,0c-.18.1,0,.36-.27.44,0-.07,0-.13.07-.2L18.92,49Zm0,1.35-.21,0v-.07h.21Zm-.32,2a.45.45,0,0,0,.1-.14.09.09,0,0,1,0,0l.09-.09-.08.14v0s0,0,0,0l0,0,0,0a.24.24,0,0,0-.08.09.16.16,0,0,1,0,.07l0,0Zm0,1.32-.12.13-.14-.19.05,0Zm-.39-4.13v.06h0a.12.12,0,0,1,0,.08l0,0,.06,0v0c0-.12.09-.16.2-.19Zm.18-.65-.23.13-.14-.4A.47.47,0,0,1,18.76,48.87ZM18,54.34v.07h-.13v0Zm-.66-3.21-.14-.37a.63.63,0,0,1,.56-.21ZM18,50c0-.2.14-.25.32-.21V50Zm0,1.86v0l.46.09.11.27ZM18.57,53v0h.09v0Zm2.12-11.63-.1-.12.17-.37a1.05,1.05,0,0,1-.08-.13l.29-.18.27.4-.2.4ZM20.8,48V48h0V48Zm0-5.49.71.2-.1.2a1.35,1.35,0,0,1-.59-.4Zm1-.53-.31-.16c.05-.19.15-.24.31-.2Zm.8,5.37v.08h0v-.08ZM22.52,46l.17-.06C22.74,46,22.67,46,22.52,46ZM25,44.59c0-.09.08-.18.13-.27l.29.11c0-.21.14-.24.21-.37l.13.08a.52.52,0,0,1-.34.29l-.19.3Zm4.06.64L28.76,45h-.09l.08.13-.12.12-.21-.33c.14-.18.27-.33.41-.49h0l0,0-.06.08v0l.38,0c0,.17.08.33.12.53Zm.8,2.94v-.3l.25-.08.19.39c-.17.15-.23.15-.43,0ZM31,43.32l.21.25v.27l-.08-.05-.23-.11,0-.16h0v.16h0c0,.09.07.17.11.29l-.23.07a.57.57,0,0,1-.27-.45c.13-.21.37-.16.54-.27Zm-.19,2.19-.15,0a.13.13,0,0,1,.14-.08Zm-.21.1,0,0,.06,0a.19.19,0,0,1,0,.08Zm0-.08v0ZM31,49.27c-.19-.06-.27-.21-.38-.3v-.26h.2a.51.51,0,0,1,.19.56Zm0-2-.33,0c.12-.36.42-.18.56-.36.05.16.08.27.13.41-.16.08-.22-.13-.35-.1Zm.36-1.34H31l-.15-.36.24-.13.34.2a2.33,2.33,0,0,0-.09.29ZM32,49.11v0H31.9v0Z"></path></g><g><path class="cls-1" d="M35.66,77.33h.11V77c0-1.51-.65-2.23-2-2.23a1.8,1.8,0,0,0-1,.32,2,2,0,0,0-.59.64,2,2,0,0,0-.23.46,3.5,3.5,0,0,0-.13.56,1.74,1.74,0,0,0,0,.32,2.54,2.54,0,0,0,0,.39,2,2,0,0,0,1.15,1.65l.2.08.21.06.27,0H34a2.57,2.57,0,0,0,.4-.06l.16,0a1.78,1.78,0,0,0,1.1-1.2,3.21,3.21,0,0,0,.11-.52c-.1-.08-.22-.15-.32-.22l.17-.18a1.5,1.5,0,0,0,0,.24m-3.21.9v0l.21,0v.08Zm2-3.06v.29l-.19-.26ZM34,75.7c-.14.08-.17,0-.24-.1C33.85,75.52,33.88,75.64,34,75.7ZM33.52,79v.08h0V79Zm1.19-1.41a1.14,1.14,0,0,1-.15.34.7.7,0,0,1-.14.16.91.91,0,0,1-.67.22c-.78,0-1-.64-1-1.28a1.4,1.4,0,0,1,.51-1.16,1.1,1.1,0,0,1,.56-.13.61.61,0,0,1,.19,0l.15,0c.49.16.56.7.6,1.23A2.8,2.8,0,0,1,34.71,77.63Z"></path><path class="cls-1" d="M53.78,77.55a.49.49,0,0,0-.41-.52h-.22a2.66,2.66,0,0,1-.69,0c-.59-.09-.7.83-.12.92.13,0,.45,0,.58,0a.74.74,0,0,1-.86.44A1.25,1.25,0,0,1,52.61,76c.41.08.75.12.86-.31s-.39-.6-.74-.68a2,2,0,0,0-2.14.88,2.34,2.34,0,0,0-.14,2.48,2,2,0,0,0,2,1.08l.21,0c.92-.28,1.12-.67,1.09-1.86"></path><path class="cls-1" d="M28.87,77.84v0c0-.72,0-2.29,0-2.33,0-.32,0-.69.5-.64s.36.61.38,1c0,.65,0,1.31,0,2v0a.51.51,0,0,0,.43.5c.19,0,.44,0,.64,0s.42.13.41.39a.45.45,0,0,1-.44.45,7.12,7.12,0,0,0-1,.06c-.32,0-.37.06-.64-.07s-.32-1.05-.3-1.34"></path><path class="cls-1" d="M54.87,78v0c0-.72,0-2.29,0-2.33,0-.32,0-.69.5-.64s.35.6.38,1c0,.66,0,1.32,0,2a.5.5,0,0,0,.43.51c.19,0,.44,0,.63,0s.43.13.42.4a.45.45,0,0,1-.44.45,8.1,8.1,0,0,0-1,0c-.32,0-.36.06-.66-.07s-.31-1-.29-1.34"></path><path class="cls-1" d="M49,75.35c0-.64-1.11-.59-1.06,0,0,.22,0,.4.06.58V76h.2v.12l-.18.1a12,12,0,0,1,0,1.34A2.3,2.3,0,0,1,48,78s-.36-.6-.61-1l-.08-.12c-.1-.12-.19-.26-.29-.4l-.16.13-.22-.22.13-.28-.21-.32,0,0a2.81,2.81,0,0,0-.63-.78.36.36,0,0,0-.22-.07c-.24,0-.47.26-.49.7s0,1,0,1.46v.63h.08l.08.2a2.86,2.86,0,0,0,0-.32l.22.25v.27l-.13.14-.29-.06v.74a.55.55,0,0,0,.4.57.59.59,0,0,0,.37,0s0,0,.05,0a.34.34,0,0,0,.22-.34c0-.57-.06-.93-.06-1.38V77.1l.13.17,0,0,0,.06c.24.32.29.42.55.78a3,3,0,0,0,1.27,1.24l0,0a.26.26,0,0,0,.15,0,.33.33,0,0,0,.17,0,.65.65,0,0,0,.23-.15l0,0A.5.5,0,0,0,49,79a21,21,0,0,0,0-3.63m-.64.85v.1h0v-.08Z"></path><path class="cls-1" d="M39.6,75.09h0a.43.43,0,0,0-.25.23v0c-.21.46-.35.82-.51,1.18v.09c-.13.29-.25.57-.38.9a.17.17,0,0,0,0,.18s0,.1,0,.16a1.07,1.07,0,0,0,.19.13l-.19.21v-.34a.36.36,0,0,0-.12-.08l-.08,0,0,.08,0-.05a24.86,24.86,0,0,1-1-2.5.4.4,0,0,0-.39-.26.43.43,0,0,0-.16,0,.9.9,0,0,0-.28.08.52.52,0,0,0-.23.21.3.3,0,0,0,0,.26l.21.59c0,.11.09.22.14.32.24.54.5,1,.77,1.59l.23.47c.09.17.17.34.25.52a.35.35,0,0,0,.13.14.84.84,0,0,0,.64.08l.11,0A.61.61,0,0,0,39,79v0l.05-.13c.32-.83.58-1.4.83-2.1v0a.14.14,0,0,0,0-.09l-.24,0c0-.22.19-.4,0-.63l-.2.09a.88.88,0,0,1,0,.23s-.05.06-.07.09l-.05.07,0,0,.06-.06v-.23s.06-.06.08-.09v-.21h.32l.2.46a1,1,0,0,1,.21-.56v-.09c.11-.38-.33-.63-.66-.54m-1.92,2.75a.67.67,0,0,0-.06-.16h.24a.31.31,0,0,1-.12.16Zm.55.7v0l.13,0v.07Zm1.27-1.87v0h.08v0Z"></path><path class="cls-1" d="M60.48,74.44l-.06,0-.06.05L59.24,76v0l-.05,0A6.89,6.89,0,0,1,58,74.76a.4.4,0,0,0-.33-.17.79.79,0,0,0-.42.12h0a.53.53,0,0,0-.2.29.28.28,0,0,0,0,.13.31.31,0,0,0,.06.13c.1.14.21.27.32.4a6.89,6.89,0,0,0,1,1l.27.21,0,.46,0,.43v1c0,.09,0,.24,0,.11a.37.37,0,0,0,0,.29.49.49,0,0,0,.21.26.45.45,0,0,0,.64,0l0,0v0a.92.92,0,0,0,.1-.32,2.71,2.71,0,0,0,0-.57c0-.14,0-.28,0-.41,0-.35,0-.64,0-1v-.21l0,0c.42-.59.86-1.17,1.3-1.75l0-.07c.2-.37-.35-.76-.67-.57m-2.71.77-.28.14a2.54,2.54,0,0,0-.05-.34h.32Zm1.28,2.49.1-.27.25.12c0,.15-.1.2-.36.15Zm.22-1.31a.71.71,0,0,1,0-.32h.23a.71.71,0,0,0,0,.2Z"></path><path class="cls-1" d="M43.82,78.47l-.14,0h-.25A.42.42,0,0,1,43,78V76.27h0a.66.66,0,0,1,0-.28.35.35,0,0,1,.22-.19,1.09,1.09,0,0,1,.1-.25v-.2h.19l.22.26.11-.09.11,0v0a.68.68,0,0,0,0-.2.62.62,0,0,0,0-.19v0a.35.35,0,0,0-.34-.25H42.54l-1.24,0a.4.4,0,0,0-.23.08l0,0a.45.45,0,0,0-.11.19v.16a.24.24,0,0,0,0,.12.28.28,0,0,0,.08.15.41.41,0,0,0,.11.07l.18,0h.07l.29,0h.05c.29,0,.36.24.37.49V78a.75.75,0,0,1-.16.35.35.35,0,0,1-.2.1,2.31,2.31,0,0,1-.37,0,.44.44,0,0,0-.27.09.3.3,0,0,0-.08.08.37.37,0,0,0-.09.2v.08l.35-.15.21.26s0,.13,0,.26l-.51-.19a.25.25,0,0,0,0,.07l.08.09a.67.67,0,0,0,.51.13l.25,0,.64,0h.68a.26.26,0,0,0,.11-.07.36.36,0,0,0,.18.07h.2a.21.21,0,0,0,.11,0,.24.24,0,0,0,.14,0,.62.62,0,0,0,.14-.14.47.47,0,0,0-.14-.65l-.08,0m0-3.37v0l-.14,0V75.1Z"></path><path class="cls-1" d="M76.84,77.05a3,3,0,0,0-.26-1l-.12-.23a2.32,2.32,0,0,0-.22-.3A1.57,1.57,0,0,0,76,75.3l0,0a2.35,2.35,0,0,0-1.55-.5c-.39,0-.79.15-.81.56v.56c0,.49,0,1,0,1.45v.42h0c0,.34,0,.68,0,1a.83.83,0,0,0,0,.15l0,.05a.39.39,0,0,0,.21.21.43.43,0,0,0,.16,0h0a3,3,0,0,0,1.07-.08h0l.15,0h.06l0,0a2.15,2.15,0,0,0,1-.69l0-.05a.43.43,0,0,0,0-.07,1.83,1.83,0,0,0,.18-.34,1.64,1.64,0,0,0,.1-.38,2.18,2.18,0,0,0,0-.51m-2.13,1.3a.11.11,0,0,1-.08,0,.14.14,0,0,1-.09-.13v0c0-.76,0-1.53,0-2.3a.12.12,0,0,1,0-.1.12.12,0,0,1,.11,0l.15,0h.11a1.32,1.32,0,0,1,.79.67,1.87,1.87,0,0,1,.18.73c0,.76-.55,1.08-1.19,1.16Z"></path><path class="cls-1" d="M79.11,74.9h.71c.29,0,.63,0,.62.41s-.32.42-.64.45-.47,0-.7.09-.52,0-.53.35.25.37.49.41l.15,0c.29,0,.52.15.49.49s-.27.34-.51.36-.64,0-.66.37.36.36.64.44,1-.2.93.49-.63.4-1,.4c-1.57,0-1.59,0-1.55-1.54,0-.58.06-1.15.1-1.72.06-1,.09-1.05,1.1-1.05h.39"></path><path class="cls-1" d="M68.43,78.33c-.26-.94-.54-1.88-.82-2.82a.69.69,0,0,0-.67-.57.67.67,0,0,0-.67.37l0,0a2.86,2.86,0,0,1-.22.47l.15.09c0,.16,0,.32.2.29s.11,0,.11.12l-.22.19c0-.2.17-.32.11-.32-.16.19-.2.22-.25.24-.11-.17-.36-.18-.44-.39L65.61,76l0,0,.06.07h.21l-.09-.12a.37.37,0,0,1-.16-.17.3.3,0,0,0-.09.13l-.4,0a.63.63,0,0,1,.11-.12l.3-.14,0-.07-.08-.18A.73.73,0,0,0,64.6,75a.52.52,0,0,0-.41.29l0,.09a1.67,1.67,0,0,0-.08.32.21.21,0,0,1,0,.13l-.18,1,.32,0-.3.22.2.22-.13.26h-.23a1.62,1.62,0,0,1,0,.2.62.62,0,0,0,.4.16.53.53,0,0,1-.45.13,1.23,1.23,0,0,1,0,.25c0,.08,0,.17,0,.26a.39.39,0,0,0,.22.44l.14,0a.5.5,0,0,0,.32,0,.27.27,0,0,0,.12-.09,1,1,0,0,0,.19-.43c.06-.24.13-.53.19-.82l.12-.54c0-.11.05-.22.08-.32a1.16,1.16,0,0,1,0-.18l0,.06a1.59,1.59,0,0,0,.48.61.76.76,0,0,0,.22.11c.35.1.71-.13,1-.69l.11-.22v0c.17.59.35,1.22.52,1.77l.09.32a1,1,0,0,0,.09.21.41.41,0,0,0,.55.19l.06,0a.66.66,0,0,0,.2-.14.58.58,0,0,0,.07-.54M64.18,77.1V77h0v.08Zm.16.09h.2v.28Z"></path><path class="cls-1" d="M72.93,78.49c-.32-.75-.64-1.51-1-2.25l-.1-.23c-.12-.26-.24-.51-.38-.76a.7.7,0,0,0-1-.31.62.62,0,0,0-.22.17l0,0,0,0v0l0,.08c-.43,1.07-.78,2.18-1.09,3,0,.11,0,.2,0,.28v.19a.44.44,0,0,0,.08.25.38.38,0,0,0,.13.09.47.47,0,0,0,.5,0L70,79a1.86,1.86,0,0,0,.22-.27,1.1,1.1,0,0,1,.34-.4l.08,0,.11,0a.85.85,0,0,1,.23,0h.22a.69.69,0,0,1,.41.17,1.39,1.39,0,0,1,.21.27,2.37,2.37,0,0,0,.23.3.92.92,0,0,0,.25.19.5.5,0,0,0,.38,0h0l.08-.05a.45.45,0,0,0,.18-.57M71.18,76v0h.07v0Zm.15,1.44a4.77,4.77,0,0,1-.76,0,.21.21,0,0,1-.17-.08.15.15,0,0,1,0-.13,5.06,5.06,0,0,1,.18-.77l0-.1,0,0a.39.39,0,0,1,.14-.17.28.28,0,0,1,.25,0,.48.48,0,0,1,.23.34c.07.22.1.37.17.59a.46.46,0,0,1,0,.2s0,.09-.13.11Z"></path><path class="cls-1" d="M94,76.68a1.75,1.75,0,0,0,0-.33,2.6,2.6,0,0,0-.1-.4.25.25,0,0,1,0-.07l0-.09,0,0a1.45,1.45,0,0,0-.47-.6A2.2,2.2,0,0,0,92,74.78a2.16,2.16,0,0,0-2,2.32,2.08,2.08,0,0,0,1.35,2.11l.15,0a2.46,2.46,0,0,0,.6.07,2.35,2.35,0,0,0,.64-.09A1.76,1.76,0,0,0,93.89,78a3.15,3.15,0,0,0,.09-.42,3.38,3.38,0,0,0,0-.45v-.4m-2,1.67a.84.84,0,0,1-.77-.39,1.49,1.49,0,0,1-.18-.88c0-.53.18-1.08.7-1.25l.08,0a1.57,1.57,0,0,1,.53,0c.58.13.65.7.69,1.28s-.25,1.28-1.06,1.26Z"></path><path class="cls-1" d="M97.82,76.54c-.53,1.28-1.4,1.33-2,.15-.16.67-.32,1.42-.45,2-.09.36-.25.67-.68.6s-.41-.45-.35-.8c.17-1,.34-1.88.5-2.82.07-.34.15-.67.57-.74a.78.78,0,0,1,.93.44c.39,1,.52.65.8,0a.71.71,0,0,1,.74-.45.73.73,0,0,1,.72.61c.3,1,.59,2,.87,3a.54.54,0,0,1-.26.72l-.09,0c-.39.13-.58-.1-.68-.43-.2-.66-.45-1.5-.67-2.26"></path><path class="cls-1" d="M89.52,78.54a.42.42,0,0,0,0-.16v0a8.2,8.2,0,0,0-.4-.78l0,0a.7.7,0,0,1-.1-.4A.48.48,0,0,1,89,76.9l0-.05a1.87,1.87,0,0,0,.32-1.19h0a.76.76,0,0,0-.28-.49,2,2,0,0,0-1.23-.32c-.39,0-1-.18-1.09.37a15.42,15.42,0,0,0-.35,3.1,1.67,1.67,0,0,1,0,.32v.11a.42.42,0,0,0,.32.42h.08a.44.44,0,0,0,.47-.32s0-.07,0-.1c.07-.32.12-.64.2-1.08,0-.08,0-.17,0-.26l.21.22a5.24,5.24,0,0,1,.75,1.16.57.57,0,0,0,.29.28.53.53,0,0,0,.39,0l0,0,.09-.06a.47.47,0,0,0,.14-.14.38.38,0,0,0,.07-.29m-2.77-.8v.08h0v-.08Zm.11-1.63,0-.06.08.08,0,.06-.12,0a.41.41,0,0,1,0-.09ZM87,77.52l.06.06a.13.13,0,0,1-.09,0Zm.09.14,0-.06a.09.09,0,0,1,.08,0ZM87.58,76a.42.42,0,0,1,.1-.26.57.57,0,0,1,.11-.11.46.46,0,0,1,.16-.07.66.66,0,0,1,.28,0,1.12,1.12,0,0,1,.25.11l0,0,.09.06a.24.24,0,0,1,.08.09.23.23,0,0,1,0,.16.49.49,0,0,1-.27.39.64.64,0,0,1-.43,0,.68.68,0,0,1-.32-.18.34.34,0,0,1-.09-.19Z"></path><path class="cls-1" d="M86.1,75.09l0-.06a.42.42,0,0,0-.13-.16l0,0a.42.42,0,0,0-.21-.06l-.57,0-.48,0h-.12c-.32,0-.37-.06-.67.07s-.33.85-.32,1.22v.31c0,.78,0,2.17,0,2.2,0,.23,0,.48.17.6a.52.52,0,0,0,.16.06.49.49,0,0,0,.17,0h0a.44.44,0,0,0,.15,0,.35.35,0,0,0,.17-.24,1.6,1.6,0,0,0,0-.49V78c0-.36.32-.32.58-.34H85l.18,0a.44.44,0,0,0,.19-.1.31.31,0,0,0,.09-.22v0a.11.11,0,0,0,0-.08.41.41,0,0,0-.41-.35l-.3,0a1.25,1.25,0,0,1-.25-.09h0a.26.26,0,0,1-.1-.2,1.31,1.31,0,0,1,0-.28v-.08a.66.66,0,0,1,.06-.2.48.48,0,0,1,.31-.26h.06c.17,0,.57,0,.78,0h.07a.58.58,0,0,0,.19,0,.57.57,0,0,0,.13-.08.36.36,0,0,0,.07-.1.47.47,0,0,0,0-.17.41.41,0,0,0,0-.16M84,77.84l-.13,0V77.8H84Z"></path><path class="cls-1" d="M108.6,78.68a.5.5,0,0,1,0,.21.36.36,0,0,1-.07.1.5.5,0,0,1-.22.13h-.1l-.62,0a2.59,2.59,0,0,0-.33,0,2.09,2.09,0,0,1-.5,0l-.08-.09c.1-.11.2,0,.31,0v-.19c0-.06-.11,0-.31.06l-.12-.09s-.07.05-.11.09a.94.94,0,0,1-.1-.23,3.42,3.42,0,0,1,0-1v0c0-.72,0-2.29,0-2.33,0-.32,0-.69.5-.64a.37.37,0,0,1,.34.28.63.63,0,0,1,0,.19v.5c0,.64,0,1.31,0,2v0a.63.63,0,0,0,.1.32v0a.48.48,0,0,0,.2.14.24.24,0,0,0,.12,0c.19,0,.44,0,.64,0l.12,0,.1,0a.33.33,0,0,1,.18.26.08.08,0,0,1,0,.07"></path><path class="cls-1" d="M124.48,76.76l-.08-.06c-.13-.1-.32-.17-.47-.27a.42.42,0,0,1-.19-.55.31.31,0,0,1,.39-.22h0c.15,0,.32.12.45.14h.09a.49.49,0,0,0,.47-.39l0,0a.49.49,0,0,0,0-.24.54.54,0,0,0-.15-.22l-.09-.06a2,2,0,0,0-1-.28,1.56,1.56,0,0,0-1.49,1.05,1.27,1.27,0,0,0,.58,1.54l.16.12.32.21a2.16,2.16,0,0,1,.29.21l.08-.11.12.12,0,.2a.39.39,0,0,1,0,.3.62.62,0,0,1-.11.17.4.4,0,0,1-.43.05l-.14-.06-.11-.05a.58.58,0,0,0-.78.27l0,.07a.41.41,0,0,0,.1.54,1.85,1.85,0,0,0,.37.19l.19.08.23,0a1.65,1.65,0,0,0,.7,0h.07l.07,0a1.56,1.56,0,0,0,1-.68c-.08-.08-.17-.13-.27-.06l0,.15-.17-.19c.13-.08.26-.12.32-.28a.35.35,0,0,1,.36-.18.14.14,0,0,0,0-.09,1.81,1.81,0,0,0-.79-1.38m-.52.39v.08h0v-.08Zm.26,1.62-.27-.22.13-.17s0,0,.06,0l.25.36Zm.18-1.19,0,0,0,.07v-.07h0c0,.07-.08.08-.12.08v0l.13,0,0-.06v0a.54.54,0,0,1,.09-.09c-.06.07-.08.12-.11.15Z"></path><path class="cls-1" d="M117.73,75.23c0-.64-1.11-.58-1.06,0a13.72,13.72,0,0,1,.08,2.64s-.44-.73-.68-1.07-.52-.78-.78-1.09a2.71,2.71,0,0,0-.64-.79c-.28-.2-.68.05-.7.64,0,1.22,0,2.08,0,3.3,0,.8,1.09.76,1,.22a19.84,19.84,0,0,1,0-2l.16.22c.28.38.32.47.59.85A2.81,2.81,0,0,0,117,79.32a.61.61,0,0,0,.69-.46,20,20,0,0,0,0-3.63"></path><path class="cls-1" d="M105.36,76c0-.1,0-.2,0-.3a1.58,1.58,0,0,0-.38-.84,1.84,1.84,0,0,0-.22-.17,3,3,0,0,0-2.07,0h0a.37.37,0,0,0-.3.42c0,.76.06,1.52.11,2.28v.14a2.18,2.18,0,0,1,.35,0l-.31.27v.05l.22.35a.55.55,0,0,1-.18.16,4.53,4.53,0,0,0,0,.53c0,.11,0,.22,0,.34a.4.4,0,0,0,.1.22.39.39,0,0,0,.1.08.68.68,0,0,0,.44.07.42.42,0,0,0,.35-.29c-.11,0-.25-.06-.24-.26l.24.05c0-.17,0-.37-.06-.57a1.66,1.66,0,0,0,0-.22c0-.13,0-.26,0-.37l.19.05a1.51,1.51,0,0,0,.52,0,1.06,1.06,0,0,0,.43-.16,1.4,1.4,0,0,0,.69-1.07,1.18,1.18,0,0,0,0-.27V76m-.94.75c0,.16-.18.16-.54.23a.24.24,0,0,1-.12,0,.35.35,0,0,1-.14-.06.33.33,0,0,1-.12-.16v-.08a5.37,5.37,0,0,1,0-.8.52.52,0,0,1,.28-.44.49.49,0,0,1,.29-.06.6.6,0,0,1,.21.08.65.65,0,0,1,.2.44,2,2,0,0,1,0,.85Zm.34-.76v0h.16v0Zm.3.62-.35-.34H105l0,.13c.21-.06.1-.26.18-.43l.14.27Z"></path><path class="cls-1" d="M122,75.42c0,.4-.27.39-.56.42l-.19,0c-.32,0-.45.2-.46.51v0c0,.74,0,2.35,0,2.4,0,.32,0,.72-.52.66s-.44-.65-.46-1c0-.67,0-1.35,0-2v0c0-.24-.08-.46-.37-.49s-.32,0-.53-.05-.43-.13-.42-.41A.46.46,0,0,1,119,75c.46,0,1.38,0,1.38,0h1s.67,0,.68.49"></path><path class="cls-1" d="M113,78.57a.19.19,0,0,0,0-.08v0c-.35-.81-.68-1.62-1.06-2.42l-.08-.15c-.1-.22-.21-.44-.32-.66a.73.73,0,0,0-.35-.32.86.86,0,0,0-.27,0,.66.66,0,0,0-.64.42c-.43,1.07-.79,2.17-1.09,3-.08.48-.1.71.15.82a.45.45,0,0,0,.19.05A.64.64,0,0,0,110,79l0,0,0,0,0,0c.23-.27.26-.49.52-.6l0,0a1,1,0,0,1,.34-.06h.09a.76.76,0,0,1,.48.11l.08.07c.14.14.22.34.43.56a1.2,1.2,0,0,0,.21.17l.08,0a.48.48,0,0,0,.29,0l.08,0a1.19,1.19,0,0,0,.15-.09l.06-.07a.42.42,0,0,0,.08-.36m-1.64-1.13-.48,0h-.33l-.07,0s0,0-.06,0a.19.19,0,0,1,0-.08v0c0-.26.11-.51.18-.77a.5.5,0,0,1,.16-.29.26.26,0,0,1,.28,0l0,0,.08.07,0,0a1,1,0,0,1,.09.22c.07.23.1.37.17.59a.54.54,0,0,1,0,.21s0,.08-.11.1Z"></path><path class="cls-1" d="M27.38,77.49a1.75,1.75,0,0,0-1.83-1.37c-1.1.1-2.14,1.17-2.94,1.81-.2.16-.06.45.13.52a3.46,3.46,0,0,0,3.43-.53c.32-.25-.13-.68-.44-.43a2.77,2.77,0,0,1-2.23.61c1-.88,2.8-2.31,3.29-.45a.31.31,0,0,0,.43.11.32.32,0,0,0,.16-.27"></path><path class="cls-1" d="M131.61,78.25a.27.27,0,0,1-.08.19.33.33,0,0,1-.15.11,3.06,3.06,0,0,1-2.32-.1,4.38,4.38,0,0,1-1-.62c-.32-.25.13-.68.44-.43l.09.07a2.62,2.62,0,0,0,2,.62,6.34,6.34,0,0,0-2-1.31.85.85,0,0,0-1.06.39l-.06-.07,0,0s0,0,0,.21a1.07,1.07,0,0,0-.07.19.51.51,0,0,0,0,.11.31.31,0,0,1-.43.11.32.32,0,0,1-.16-.27,1.77,1.77,0,0,1,1.84-1.37,2.72,2.72,0,0,1,1.36.53l.07,0c.14.1.28.22.41.33s.32.29.46.44l0,0,.23.22.35.32a.25.25,0,0,1,.1.21"></path></g></g></svg> 