<?xml version="1.0" encoding="UTF-8"?> <svg xmlns="http://www.w3.org/2000/svg" id="Layer_1" data-name="Layer 1" viewBox="0 0 100 100"><defs><style> .cls-1 { fill: #3c3482; } </style></defs><title>cvm-logo-purple-late-2018</title><g><path class="cls-1" d="M5.23,27.73A50,50,0,0,0,39.08,98.8s1-23.06-1.61-41.76c-.85-6.11-3-19.88-11.15-28.25S6.94,23.73,5.23,27.73Z"></path><path class="cls-1" d="M50,0A49.94,49.94,0,0,0,9,21.42,19.75,19.75,0,0,1,26.55,19c23.23,7.27,22.3,54.83,22.55,66.24L70.92,50.64A60.55,60.55,0,0,0,75.22,43a11.68,11.68,0,0,0,1.09-4.35A3.25,3.25,0,0,0,75,35.86a2.75,2.75,0,0,0-.44-.28A15.18,15.18,0,0,0,70,34.2l-4.38-.76L66,31.76c2.34,0,25.56,0,27.83,0l-.4,1.68-2,.41a17.4,17.4,0,0,0-5.23,2,18.81,18.81,0,0,0-3.42,2.52q-3.81,3.51-10,13.33L51,85.94,42.83,99.49A51.39,51.39,0,0,0,50,100,50,50,0,0,0,50,0Z"></path></g></svg> 