<?xml version="1.0" encoding="UTF-8"?> <svg xmlns="http://www.w3.org/2000/svg" xmlns:xlink="http://www.w3.org/1999/xlink" version="1.1" id="Layer_1" x="0px" y="0px" width="3000px" height="3000px" viewBox="0 0 3000 3000" style="enable-background:new 0 0 3000 3000;" xml:space="preserve"> <style type="text/css"> .st0{fill:none;} .st1{opacity:0.5;fill-rule:evenodd;clip-rule:evenodd;fill:#C83393;enable-background:new ;} .st2{opacity:0.3;fill:url(#SVGID_1_);enable-background:new ;} .st3{opacity:0.3;fill:url(#SVGID_00000006689869950788642490000013371945894108139150_);enable-background:new ;} .st4{opacity:0.3;fill:url(#SVGID_00000023258283440675276250000014751799253130562199_);enable-background:new ;} .st5{opacity:0.3;fill:url(#SVGID_00000042726212618320594110000017735605434406426020_);enable-background:new ;} </style> <g id="White"> <path class="st0" d="M0,0h3000v3000H0V0z"></path> </g> <g id="Pink"> <path class="st1" d="M0,0h3000v3000H0V0z"></path> </g> <linearGradient id="SVGID_1_" gradientUnits="userSpaceOnUse" x1="0" y1="1500" x2="3000" y2="1500"> <stop offset="0" style="stop-color:#CC2A9A"></stop> <stop offset="1" style="stop-color:#399EC7"></stop> </linearGradient> <polygon class="st2" points="2784.1,0 1500,2489.4 215.9,0 0,0 0,1244.3 920.9,3000 2079,3000 3000,1244.2 3000,0 "></polygon> <linearGradient id="SVGID_00000146494803256898504190000010596394998039181486_" gradientUnits="userSpaceOnUse" x1="523.1656" y1="931.14" x2="2476.8284" y2="931.14"> <stop offset="0" style="stop-color:#CC2A9A"></stop> <stop offset="1" style="stop-color:#399EC7"></stop> </linearGradient> <polygon style="opacity:0.3;fill:url(#SVGID_00000146494803256898504190000010596394998039181486_);enable-background:new ;" points=" 2251.1,0 1500,1456.2 748.9,0 523.2,0 1500,1862.3 2476.8,0 "></polygon> <linearGradient id="SVGID_00000018211250084081125410000012878740180469656964_" gradientUnits="userSpaceOnUse" x1="1288.0613" y1="202.0165" x2="1711.9218" y2="202.0165"> <stop offset="0" style="stop-color:#CC2A9A"></stop> <stop offset="1" style="stop-color:#399EC7"></stop> </linearGradient> <polygon style="opacity:0.3;fill:url(#SVGID_00000018211250084081125410000012878740180469656964_);enable-background:new ;" points=" 1288.1,0 1500,404 1711.9,0 "></polygon> <linearGradient id="SVGID_00000007411455798382768220000015246230381331754403_" gradientUnits="userSpaceOnUse" x1="951.5632" y1="522.7778" x2="2048.4246" y2="522.7778"> <stop offset="0" style="stop-color:#CC2A9A"></stop> <stop offset="1" style="stop-color:#399EC7"></stop> </linearGradient> <polygon style="opacity:0.3;fill:url(#SVGID_00000007411455798382768220000015246230381331754403_);enable-background:new ;" points=" 1829.8,0 1500,639.5 1170.1,0 951.6,0 1500,1045.6 2048.4,0 "></polygon> </svg> 