<?xml version="1.0" encoding="UTF-8"?><svg id="Layer_1" xmlns="http://www.w3.org/2000/svg" width="600" height="400" viewBox="0 0 600 400"><defs><style>.cls-1{fill:#3a357e;}</style></defs><path class="cls-1" d="m50,152.92c.17-.59.42-1.17.59-1.76,1.92-6.94,6.44-11.04,13.39-12.72,2.26-.5,4.52-.67,6.78-.33,7.37,1.17,12.47,5.19,14.89,12.47.83,2.51,1.09,5.1.92,7.78h-5.43c-.5-2.26-.76-4.52-1.59-6.52-3.18-7.94-11.38-9.53-17.57-6.52-3.51,1.76-5.02,4.93-5.69,8.62-.33,1.68-.42,3.34-.42,5.02v49.28c0,3.01.42,5.86,2.01,8.46,2.59,4.27,6.69,5.69,11.47,5.27,6.44-.59,10.71-5.02,11.3-11.38.09-.92.17-1.84.26-2.84h5.69c.26,3.34-.17,6.44-1.59,9.46-3.68,7.78-11.47,11.88-20,10.46-2.42-.42-4.86-1-7.03-2.26-4.27-2.42-6.44-6.19-7.44-10.88-.09-.5-.26-.92-.42-1.33-.09-20.24-.09-40.24-.09-60.24h-.01Z"/><path class="cls-1" d="m399.07,138.87h12.56v68.86c0,10.12-8.28,19.08-18.49,19.83-5.86.42-10.96-1.17-15.4-5.02-.5-.5-.83-.42-1.33,0-6.02,5.02-12.89,6.44-20.24,3.84-7.53-2.68-11.88-8.28-13.3-16.07-.17-1-.26-2.09-.26-3.1v-67.43c0-.33,0-.59.09-.92h12.56v66.93c0,1.92.26,3.84,1.17,5.52,1.51,2.84,4.01,3.93,7.11,3.77,3.01-.17,5.36-1.51,6.44-4.43.59-1.59.92-3.34.92-5.1.09-21.83,0-43.68,0-65.6v-1.17c.42,0,.83-.09,1.17-.09h10.04c.89,0,1.33.44,1.33,1.33v65.26c0,2.09.17,4.1,1.17,5.94,1.42,2.68,4.27,4.1,7.44,3.77,3.34-.33,5.69-2.26,6.52-5.43.33-1.26.5-2.68.5-3.93v-66.77h0Z"/><path class="cls-1" d="m441.4,202.12h12.38c0,.33.09.76.09,1.09.09,1.42,0,2.84.17,4.27.5,4.52,3.51,7.37,8.03,7.53,1.33.09,2.68-.09,4.01-.33,2.84-.5,4.6-2.26,5.36-5.02.83-3.27.67-6.61.67-9.88,0-1.17-.17-2.34-.26-3.51-.26-3.34-1.92-5.61-5.02-6.94-3.84-1.59-7.78-3.18-11.63-4.86-4.43-1.84-8.2-4.6-10.54-8.96-1.51-2.84-2.18-5.86-2.42-9.03-.42-5.1-.26-10.12,1.59-14.98,2.68-7.28,7.7-11.88,15.48-13.13,2.26-.33,4.6-.67,6.86-.33,11.38,1.51,18.49,10.38,18.66,19.83v6.19h-12.63v-1.76c-.17-1.68-.09-3.34-.5-4.93-1.26-5.36-5.27-7.2-10.04-6.61-3.34.42-5.36,2.42-6.28,5.61-1.09,3.68-1,7.44-.33,11.21.42,2.42,2.01,4.1,4.19,5.1,3.18,1.42,6.44,2.68,9.62,4.01,2.59,1.09,5.19,2.09,7.61,3.51,4.27,2.51,6.61,6.44,7.44,11.3,1.26,7.11,1.33,14.22-.42,21.17-1.33,5.36-4.1,9.79-9.12,12.56-3.6,1.92-7.53,2.51-11.54,2.51-5.78-.09-10.88-1.84-15.14-5.94-3.68-3.51-5.78-7.87-6.11-12.89-.33-2.26-.17-4.43-.17-6.78h.03Z"/><path class="cls-1" d="m182.2,138.87h6.36c3.27,24.51,6.44,49.03,9.7,73.54h.33c4.93-24.51,9.88-49.03,14.81-73.54h3.93c5.02,24.6,10.04,49.28,15.06,73.88h.17c3.18-24.6,6.44-49.2,9.7-73.88h6.36c-4.36,29.29-8.7,58.57-13.06,87.93h-6.19c-4.69-22.76-9.29-45.51-13.98-68.28h-.26c-.33,1.68-.67,3.27-1,4.93-1.84,9.37-3.77,18.74-5.61,28.11-2.26,11.21-4.43,22.51-6.69,33.72-.09.33-.09.67-.26,1-.17.26-.5.59-.76.59-1.59.09-3.18,0-4.69.09-.59,0-.76-.26-.83-.83-.76-5.36-1.59-10.79-2.42-16.14-1-6.52-1.92-13.06-2.93-19.67-1-6.94-2.09-13.89-3.1-20.83-1.26-8.37-2.51-16.73-3.77-25.1-.33-1.76-.59-3.6-.92-5.52h.04Z"/><path class="cls-1" d="m322.34,226.89h-12.56v-76.22h-14.64v-11.8h41.67v11.71h-14.56c.09,25.52.09,50.87.09,76.3h0Z"/><path class="cls-1" d="m502.31,150.67h-14.56v-11.8h41.67v11.8h-14.56v76.22h-12.56v-76.22Z"/><path class="cls-1" d="m420.14,138.87h12.47v88.02h-12.47v-88.02Z"/><path class="cls-1" d="m544.73,140.71v4.36c-.42-.33-.92-.5-.92-.67-.09-1.92,0-3.77,0-5.61,1.09-.33,1.68-.09,1.92,1,.26,1.17.67,2.34,1.09,3.51h.26c.33-1.17.76-2.34,1-3.51.26-1.09.83-1.33,1.84-1v6.02c-.67.26-.92.09-.92-.67,0-1.26,0-2.42-.26-3.77-.42,1.26-.76,2.51-1.17,3.68-.09.26-.09.5-.26.67-.42.26-.83.26-1.09-.42-.33-1.26-.76-2.42-1.17-3.68-.09,0-.17.09-.33.09h0Z"/><path class="cls-1" d="m540.97,144.81h-.92v-3.93c0-1.42.17-1.42-1.33-1.42-.26,0-.5-.26-.83-.42.09-.09.09-.26.17-.33h4.6c.17,0,.26.26.42.42-.17.17-.26.33-.42.42-.5.09-1.33,0-1.51.26-.26.42-.17,1.17-.17,1.76v3.27h0Z"/><path class="cls-1" d="m232.57,212.83h-.17c-5.02-24.6-10.04-49.28-15.06-73.88h-3.93c-4.93,24.6-9.88,49.03-14.81,73.54h-.33c-3.27-24.51-6.44-49.03-9.7-73.54h-6.36c.26,1.84.5,3.68.76,5.52,1.26,8.37,2.51,16.73,3.77,25.1,1,6.94,2.09,13.89,3.1,20.83,1,6.52,1.92,13.06,2.93,19.67.83,5.36,1.59,10.79,2.42,16.14.09.59.26.83.83.83,1.59,0,3.18,0,4.69-.09.26,0,.59-.33.76-.59s.17-.67.26-1c2.26-11.21,4.43-22.51,6.69-33.72,1.84-9.37,3.77-18.74,5.61-28.11.33-1.68.67-3.27,1-4.93h.26c4.69,22.76,9.29,45.51,13.98,68.28h6.19c4.36-29.37,8.7-58.66,13.06-87.93h-6.36c-3.1,24.6-6.36,49.2-9.53,73.88h-.04Z"/><path class="cls-1" d="m177.59,158.19c0-1.42-.09-2.84-.26-4.27-1.51-9.96-8.53-14.72-16.57-15.81-2.09-.33-4.27-.17-6.44.33-5.43,1.26-9.79,4.01-12.56,9.03-1.84,3.34-2.42,7.03-2.42,10.71v33.72c0,5.69-.09,11.47.09,17.16.09,5.19,1.76,9.79,5.61,13.47,4.6,4.36,10.21,5.78,16.31,4.93,6.02-.83,10.79-3.68,13.8-9.03,1.84-3.27,2.42-6.86,2.42-10.62v-49.61h.01Zm-5.86,50.12c0,4.1-1.26,7.78-4.52,10.54-4.27,3.51-9.03,4.01-14.06,2.01-4.77-1.84-7.2-5.69-7.78-10.71-.17-1.09-.17-2.18-.17-3.27v-49.2c0-3.93,1.09-7.53,4.01-10.29,4.1-3.84,8.96-4.52,14.06-2.76,4.77,1.59,7.37,5.27,8.2,10.12.17,1.09.26,2.18.26,3.27v50.28h0Z"/><path class="cls-1" d="m342.83,210.4c1.42,7.87,5.78,13.39,13.3,16.07,7.37,2.59,14.22,1.26,20.24-3.84.5-.42.76-.5,1.33,0,4.43,3.84,9.53,5.43,15.4,5.02,10.12-.76,18.49-9.7,18.49-19.83v-68.86h-12.56v66.86c0,1.33-.17,2.68-.5,3.93-.83,3.18-3.18,5.1-6.52,5.43-3.18.33-5.94-1.09-7.44-3.77-1-1.84-1.17-3.84-1.17-5.94v-65.26c0-.89-.44-1.33-1.33-1.33h-10.04c-.33,0-.76,0-1.17.09v66.77c0,1.68-.33,3.51-.92,5.1-1.09,2.93-3.43,4.27-6.44,4.43-3.1.17-5.61-1-7.11-3.77-.92-1.76-1.17-3.6-1.17-5.52v-66.93h-12.56c0,.33-.09.67-.09.92v67.43c0,.92.09,2.01.26,3.01h0Z"/><path class="cls-1" d="m290.54,160.12c0-2.01-.17-4.01-.42-6.02-.59-3.68-2.01-7.11-4.6-9.79-3.84-4.01-8.7-5.36-13.98-5.43-5.52-.09-10.96,0-16.48,0h-1v88.1h1.17c4.52,0,9.12.09,13.63,0,2.18,0,4.43-.17,6.61-.59,6.61-1.17,11.3-4.77,13.56-11.21,1.09-3.18,1.51-6.44,1.51-9.79,0-15.14.09-30.2,0-45.27Zm-7.2,54.22c-1.76,4.19-4.93,6.69-9.37,7.2-4.1.42-8.2.26-12.3.42h-1.68v-77.98c.33,0,.59-.09.83-.09h9.88c2.59,0,5.19.42,7.53,1.68,4.1,2.18,5.78,5.94,6.44,10.29.26,1.59.26,3.27.26,4.93v44.84c-.17,2.93-.42,5.94-1.59,8.7h-.01Z"/><path class="cls-1" d="m336.81,138.87h-41.67v11.8h14.64v76.22h12.56v-76.3h14.56c-.09-3.93-.09-7.78-.09-11.71h0Z"/><path class="cls-1" d="m542.63,138.61h-4.6c-.09.09-.09.26-.17.33.26.17.5.42.83.42,1.51,0,1.33,0,1.33,1.42v3.93h.92v-3.34c0-.59-.09-1.33.17-1.76.17-.26,1-.17,1.51-.26.17,0,.33-.26.42-.42-.09,0-.26-.33-.42-.33Z"/><path class="cls-1" d="m487.76,150.67h14.56v76.22h12.56v-76.22h14.56v-11.8h-41.67v11.8Z"/><path class="cls-1" d="m432.61,138.87h-12.47v88.02h12.47v-88.02Z"/><path class="cls-1" d="m548.16,139.79c-.26,1.17-.67,2.34-1,3.51h-.26c-.33-1.17-.76-2.34-1.09-3.51-.26-1.09-.83-1.33-1.92-1v5.61c0,.17.5.33.92.67v-4.36c.09,0,.26,0,.33-.09.42,1.26.83,2.42,1.17,3.68.17.67.59.67,1.09.42.17-.09.17-.42.26-.67.42-1.26.76-2.51,1.17-3.68.26,1.26.26,2.51.26,3.77,0,.76.26.83.92.67v-6.02c-1.09-.33-1.68-.09-1.84,1h0Z"/><path class="cls-1" d="m476.29,180.2c-2.42-1.42-5.02-2.42-7.61-3.51-3.18-1.33-6.44-2.59-9.62-4.01-2.18-1-3.77-2.59-4.19-5.1-.67-3.77-.76-7.53.33-11.21.92-3.1,2.93-5.19,6.28-5.61,4.77-.59,8.79,1.26,10.04,6.61.33,1.59.33,3.34.5,4.93.09.59,0,1.17,0,1.76h12.63v-6.19c-.17-9.46-7.2-18.32-18.66-19.83-2.26-.26-4.6,0-6.86.33-7.7,1.26-12.72,5.94-15.48,13.13-1.84,4.86-1.92,9.88-1.59,14.98.26,3.18.92,6.19,2.42,9.03,2.34,4.36,6.11,7.11,10.54,8.96,3.84,1.68,7.78,3.27,11.63,4.86,3.1,1.26,4.77,3.6,5.02,6.94.09,1.17.26,2.34.26,3.51,0,3.34.26,6.61-.67,9.88-.76,2.76-2.51,4.6-5.36,5.02-1.33.26-2.68.33-4.01.33-4.52-.26-7.53-3.1-8.03-7.53-.17-1.42-.09-2.84-.17-4.27,0-.33-.09-.67-.09-1.09h-12.38c0,2.34-.17,4.52,0,6.69.42,5.02,2.42,9.37,6.11,12.89,4.19,4.01,9.37,5.86,15.14,5.94,4.01,0,7.94-.59,11.54-2.51,5.02-2.68,7.78-7.11,9.12-12.56,1.76-7.03,1.68-14.14.42-21.17-.67-4.77-3.01-8.7-7.28-11.21h-.03Z"/><path class="cls-1" d="m120.87,187.9c-.33-.83-.92-1.92-.67-2.59s1.42-1,2.18-1.42c4.77-2.51,8.03-6.36,9.2-11.63,1.68-7.11,1.51-14.22-.67-21.17-2.26-7.37-7.44-11.3-15.06-11.97-3.18-.26-17.57-.17-21.67-.17v88.02h5.78v-40.91c.26,0,.42-.09.59-.09h13.72c.76,0,.92.42,1.09.92,2.26,7.2,4.43,14.39,6.69,21.5,1.84,5.86,3.68,11.71,5.43,17.57.26.76.59,1.09,1.42,1,1.33-.09,2.76,0,4.1,0,.26,0,.59-.09.83-.09-.09-.42-.17-.67-.26-.92-4.19-12.72-8.46-25.43-12.72-38.07h0Zm-6.36-6.44c-4.77.33-9.53.09-14.48.09v-37.66c.33,0,.59-.09.92-.09h10.71c3.1,0,6.02.59,8.79,2.18,3.34,2.01,5.1,5.19,5.78,8.87.92,5.36,1,10.79-.09,16.14-1.33,6.36-5.19,10.04-11.63,10.46h0Z"/><path class="cls-1" d="m328.7,236.59h2.42v16.9h8.28v2.01h-10.71v-18.91h.01Z"/><path class="cls-1" d="m347.52,241.19c3.43,0,6.52,2.68,6.52,7.37s-3.1,7.37-6.52,7.37-6.52-2.68-6.52-7.37,3.1-7.37,6.52-7.37Zm0,12.72c2.42,0,4.01-2.18,4.01-5.36s-1.59-5.43-4.01-5.43-4.01,2.18-4.01,5.43,1.59,5.36,4.01,5.36Z"/><path class="cls-1" d="m357.73,259.6c1.59,0,2.59-1.26,3.18-3.01l.33-1-5.61-14.06h2.42l2.84,7.78c.42,1.17.92,2.68,1.33,3.93h.09c.42-1.26.83-2.68,1.17-3.93l2.51-7.78h2.34l-5.27,15.14c-1,2.76-2.42,4.86-5.27,4.86-.67,0-1.17-.09-1.68-.26l.5-1.84c.26.09.67.17,1.09.17h.01Z"/><path class="cls-1" d="m378.4,246.63c0-1.76-.59-3.51-2.93-3.51-1.68,0-3.1.76-4.19,1.51l-.92-1.68c1.33-.83,3.27-1.84,5.52-1.84,3.43,0,4.86,2.26,4.86,5.78v8.62h-1.92l-.17-1.68h-.09c-1.33,1.09-2.93,2.01-4.69,2.01-2.34,0-4.1-1.51-4.1-4.01,0-2.93,2.68-4.52,8.62-5.19h.01Zm-3.84,7.37c1.33,0,2.51-.67,3.84-1.84v-3.93c-4.69.59-6.28,1.76-6.28,3.51,0,1.59,1.09,2.26,2.42,2.26h.01Z"/><path class="cls-1" d="m385.26,235h2.34v17.9c0,.76.33,1,.67,1,.17,0,.26,0,.5-.09l.33,1.76c-.33.17-.76.26-1.33.26-1.76,0-2.51-1.09-2.51-3.18v-17.66h0Z"/><path class="cls-1" d="m393.03,243.45h-2.09v-1.76l2.18-.17.26-3.93h2.01v3.93h3.77v1.92h-3.77v7.78c0,1.76.59,2.68,2.18,2.68.5,0,1.09-.17,1.59-.33l.5,1.76c-.76.26-1.76.5-2.59.5-3.01,0-4.01-1.92-4.01-4.69v-7.7h-.02Z"/><path class="cls-1" d="m402.49,259.6c1.59,0,2.59-1.26,3.18-3.01l.33-1-5.61-14.06h2.42l2.84,7.78c.42,1.17.92,2.68,1.33,3.93h.09c.42-1.26.83-2.68,1.17-3.93l2.51-7.78h2.34l-5.27,15.14c-1,2.76-2.42,4.86-5.27,4.86-.67,0-1.17-.09-1.68-.26l.5-1.84c.33.09.76.17,1.09.17h.01Z"/><path class="cls-1" d="m416.13,252.23c.92,0,1.68.76,1.68,1.84,0,1-.76,1.76-1.68,1.76s-1.76-.76-1.76-1.76c0-1.09.76-1.84,1.76-1.84Z"/><path class="cls-1" d="m428.01,236.59h10.88v2.01h-8.46v5.94h7.2v2.09h-7.2v6.86h8.79v2.01h-11.21v-18.91h0Z"/><path class="cls-1" d="m442.9,241.52h1.92l.17,2.01h.09c1.33-1.33,2.76-2.34,4.69-2.34,2.93,0,4.27,1.92,4.27,5.52v8.87h-2.34v-8.53c0-2.59-.83-3.77-2.68-3.77-1.42,0-2.42.76-3.84,2.18v10.12h-2.34v-14.06h.09-.01Z"/><path class="cls-1" d="m459.72,255.08v-.09c-.67-.42-1.26-1.17-1.26-2.26,0-1.17.83-2.09,1.51-2.59v-.09c-.92-.76-1.84-2.09-1.84-3.77,0-3.1,2.42-5.02,5.27-5.02.76,0,1.51.17,2.01.33h4.86v1.84h-2.93c.67.67,1.17,1.68,1.17,2.93,0,3.01-2.26,4.86-5.1,4.86-.67,0-1.51-.17-2.09-.5-.5.42-.92.92-.92,1.68,0,.92.59,1.51,2.51,1.51h2.68c3.27,0,4.93,1,4.93,3.34,0,2.59-2.76,4.86-7.11,4.86-3.43,0-5.78-1.33-5.78-3.77,0-1.26.83-2.42,2.09-3.27h.01Zm4.1,5.27c2.68,0,4.43-1.42,4.43-2.84,0-1.33-1-1.76-2.84-1.76h-2.42c-.59,0-1.17-.09-1.84-.26-1,.76-1.42,1.59-1.42,2.34,0,1.59,1.51,2.51,4.1,2.51Zm2.59-14.14c0-2.01-1.33-3.27-3.01-3.27s-3.01,1.17-3.01,3.27,1.33,3.34,3.01,3.34,3.01-1.33,3.01-3.34Z"/><path class="cls-1" d="m480.72,246.63c0-1.76-.59-3.51-2.93-3.51-1.68,0-3.1.76-4.19,1.51l-.92-1.68c1.33-.83,3.27-1.84,5.52-1.84,3.43,0,4.86,2.26,4.86,5.78v8.62h-1.92l-.17-1.68h-.09c-1.33,1.09-2.93,2.01-4.69,2.01-2.34,0-4.1-1.51-4.1-4.01,0-2.93,2.68-4.52,8.62-5.19h.01Zm-3.84,7.37c1.33,0,2.51-.67,3.84-1.84v-3.93c-4.69.59-6.28,1.76-6.28,3.51,0,1.59,1.09,2.26,2.42,2.26h.01Z"/><path class="cls-1" d="m488.59,255.08v-.09c-.67-.42-1.26-1.17-1.26-2.26,0-1.17.83-2.09,1.51-2.59v-.09c-.92-.76-1.84-2.09-1.84-3.77,0-3.1,2.42-5.02,5.27-5.02.76,0,1.51.17,2.01.33h4.86v1.84h-2.93c.67.67,1.17,1.68,1.17,2.93,0,3.01-2.26,4.86-5.1,4.86-.67,0-1.51-.17-2.09-.5-.5.42-.92.92-.92,1.68,0,.92.59,1.51,2.51,1.51h2.68c3.27,0,4.93,1,4.93,3.34,0,2.59-2.76,4.86-7.11,4.86-3.43,0-5.78-1.33-5.78-3.77,0-1.26.83-2.42,2.09-3.27h.01Zm4.1,5.27c2.68,0,4.43-1.42,4.43-2.84,0-1.33-1-1.76-2.84-1.76h-2.42c-.59,0-1.17-.09-1.84-.26-1,.76-1.42,1.59-1.42,2.34,0,1.59,1.51,2.51,4.1,2.51Zm2.59-14.14c0-2.01-1.33-3.27-3.01-3.27s-3.01,1.17-3.01,3.27,1.33,3.34,3.01,3.34,3.01-1.33,3.01-3.34Z"/><path class="cls-1" d="m507,241.19c3.6,0,5.61,2.59,5.61,6.61,0,.5,0,.92-.09,1.33h-9.46c.17,3.01,2.01,4.93,4.69,4.93,1.33,0,2.42-.42,3.51-1.09l.83,1.59c-1.17.76-2.68,1.42-4.6,1.42-3.77,0-6.69-2.76-6.69-7.37-.09-4.69,3.01-7.44,6.19-7.44h0Zm3.51,6.28c0-2.84-1.26-4.43-3.43-4.43-1.92,0-3.77,1.59-4.01,4.43h7.44,0Z"/><path class="cls-1" d="m521.13,241.19c1.59,0,2.68.59,3.93,1.59l-.09-2.42v-5.43h2.42v20.58h-1.92l-.17-1.68h-.26c-1.09,1.09-2.59,2.01-4.27,2.01-3.51,0-5.78-2.68-5.78-7.37,0-4.43,2.93-7.28,6.11-7.28h.01Zm.26,12.72c1.33,0,2.42-.67,3.6-1.92v-7.37c-1.17-1.09-2.26-1.51-3.43-1.51-2.26,0-4.01,2.18-4.01,5.36-.09,3.43,1.33,5.43,3.84,5.43h0Z"/><path class="cls-1" d="m533.36,252.23c.92,0,1.68.76,1.68,1.84,0,1-.76,1.76-1.68,1.76s-1.76-.76-1.76-1.76c0-1.09.76-1.84,1.76-1.84Z"/></svg>