<?xml version="1.0" encoding="UTF-8"?> <svg xmlns="http://www.w3.org/2000/svg" id="Layer_1" width="100" height="16.74" viewBox="0 0 100 16.74"><defs><style>.cls-1{fill:#fff;}</style></defs><path class="cls-1" d="m14.72,4.21v-.03l-.02-.03c-.13-.21-.31-.39-.53-.52L8.19.2c-.46-.27-1.03-.27-1.49,0L.75,3.64c-.22.12-.4.3-.53.52,0,0,0,.02-.02.03,0,.01,0,.02,0,.04-.13.22-.19.46-.2.72v6.87c0,.53.28,1.03.75,1.29l5.94,3.43c.46.27,1.03.27,1.49,0l5.95-3.43c.46-.27.75-.76.75-1.29v-6.87c0-.25-.05-.5-.16-.72ZM7.21,1.07c.15-.09.34-.09.49,0l5.69,3.29-2.53,1.46c-1.39-1.88-4.05-2.28-5.93-.88-.34.25-.63.55-.88.88l-2.54-1.46L7.21,1.07Zm3.49,7.3c0,1.6-1.17,2.96-2.75,3.21v-2.92l2.52-1.46c.15.37.22.77.23,1.17Zm-6.29-1.17l2.53,1.46v2.92c-1.78-.29-2.99-1.96-2.7-3.74.04-.22.09-.43.17-.64h0Zm3.03.59l-2.53-1.46c1.12-1.39,3.16-1.62,4.56-.49,0,0,0,0,0,0h0c.18.15.35.31.49.49l-2.53,1.46ZM1.25,12.21c-.15-.08-.24-.24-.25-.41v-6.58l2.54,1.46c-.92,2.17.08,4.67,2.25,5.6.37.16.76.26,1.16.31v2.92l-5.7-3.3Zm12.37,0l-5.69,3.29v-2.92c2.33-.27,4-2.39,3.73-4.72-.05-.4-.15-.8-.31-1.17l2.53-1.46v6.57c0,.17-.1.32-.25.41h-.01Z"></path><path class="cls-1" d="m28.69,7.69c1.24-.44,1.85-1.31,1.85-2.46,0-1.64-1.17-2.96-3.25-3.21-.53-.06-1.07-.09-1.61-.07h-5.17v12.62h5.02c.62.01,1.25-.01,1.87-.07,1.7-.2,3.61-1.37,3.61-3.73,0-1.55-.73-2.61-2.31-3.06Zm-4.89-3.19h1.48c.28,0,.55.02.82.05.58.02,1.03.51,1.01,1.09,0,.02,0,.04,0,.06.06.58-.36,1.1-.94,1.16-.03,0-.05,0-.08,0-.27.04-.53.06-.8.06h-1.48v-2.42Zm2.59,7.46c-.24.02-.53.02-.82.02h-1.77v-2.7h1.67c.29,0,.59,0,.82.02.71,0,1.29.59,1.28,1.3,0,.01,0,.02,0,.03.03.69-.5,1.27-1.18,1.32Z"></path><path class="cls-1" d="m35.72,11.93c-.03-.3-.05-.6-.03-.9V1.94h-3.28v9.15c0,.73,0,1.22.04,1.73.07,1.3.94,1.9,2.44,1.9.73,0,1.32-.04,1.92-.09v-2.23c-.86.04-1.02-.09-1.09-.47Z"></path><path class="cls-1" d="m44.48,10.3c0,1.3-.63,2.26-1.67,2.26s-1.48-.55-1.59-1.48c-.05-.44-.07-.89-.07-1.34v-4.96h-3.29v5.69c-.01.62.02,1.23.09,1.85.22,1.34,1.44,2.46,3.45,2.46.75.02,1.5-.17,2.15-.55h0s.25-.15.33-.21c.21-.14.4-.28.59-.44v.97h3.28V4.79h-3.28v5.52Z"></path><path class="cls-1" d="m54.38,4.52c-3.25,0-5.2,2.32-5.2,5.17,0,3.43,2.23,5.09,5.02,5.09,2.5,0,4.33-1.25,4.89-3.45h-3.24c-.12.75-.69,1.22-1.62,1.22s-1.65-.45-1.81-2.08h6.79c.04-.31.05-.63.06-.95.01-2.51-1.64-5-4.89-5Zm-1.84,3.96c.22-1.21.82-1.72,1.67-1.72s1.44.57,1.63,1.72h-3.3Z"></path><path class="cls-1" d="m65.25,12.57c-1.11,0-1.74-.91-1.74-3.01,0-1.88.61-2.81,1.7-2.81.82,0,1.46.47,1.61,1.76h3.18c-.1-2.17-1.85-3.98-4.71-3.98s-5.14,1.88-5.14,5.24,2.12,5.02,4.91,5.02c2.65,0,4.6-1.31,4.96-3.84h-3.22c-.18,1.08-.8,1.63-1.55,1.63Z"></path><path class="cls-1" d="m76.12,4.52c-3.21,0-5.24,2.01-5.24,5.14s2.03,5.13,5.24,5.13,5.24-2.01,5.24-5.13-2.05-5.14-5.24-5.14Zm0,8.03c-1.17,0-1.88-.97-1.88-2.9s.71-2.9,1.88-2.9,1.87.95,1.87,2.9-.71,2.92-1.87,2.92v-.02Z"></path><path class="cls-1" d="m86.8,5.36h0s-.22.19-.3.28c-.15.16-.29.33-.42.5v-1.34h-3.29v9.76h3.29v-3.6c0-2.94.9-3.85,3.36-3.68v-2.68c-.25-.04-.5-.06-.75-.05-.71,0-1.39.3-1.89.81Z"></path><path class="cls-1" d="m100,9.54c0-2.52-1.64-5-4.89-5s-5.2,2.32-5.2,5.16c0,3.43,2.23,5.09,5.02,5.09,2.5,0,4.33-1.25,4.89-3.45h-3.23c-.13.75-.69,1.22-1.63,1.22s-1.64-.45-1.81-2.08h6.79c.04-.31.05-.63.06-.95Zm-6.74-1.06c.22-1.21.82-1.72,1.67-1.72s1.44.57,1.63,1.72h-3.3Z"></path></svg> 