<?xml version="1.0" encoding="UTF-8"?> <svg xmlns="http://www.w3.org/2000/svg" id="a440a598-33bd-4629-aeb4-8ab3cd0fca7b" data-name="Layer 1" viewBox="0 0 99.81 18.49"><defs><style>.f6c7fe96-0c91-4d70-87b2-d704a1462dff{fill:#3a357e;}</style></defs><path class="f6c7fe96-0c91-4d70-87b2-d704a1462dff" d="M7.17,11.1h4.25a4.61,4.61,0,0,1-1.16,3.47,3.64,3.64,0,0,1-2.67,1A4.09,4.09,0,0,1,4.7,14.47c-1.23-1.29-1.41-3.58-1.41-5.21s.15-3.85,1.39-5.13A4.16,4.16,0,0,1,7.6,2.92,3.59,3.59,0,0,1,10.44,4a2.76,2.76,0,0,1,.78,1.63h3.32A5.44,5.44,0,0,0,12.91,2,7.4,7.4,0,0,0,7.62,0a7.63,7.63,0,0,0-5.3,2.09C.38,4,0,6.34,0,9.26s.45,5.3,2.32,7.24a6.8,6.8,0,0,0,5.3,2A5.22,5.22,0,0,0,12.1,16.2l.38,2h2.08V8.4H7.17Z"></path><path class="f6c7fe96-0c91-4d70-87b2-d704a1462dff" d="M20.4,7l-.28-2H17.46V18.16h3.17V11.57c0-2.11,1.15-3.7,3.37-3.7A5.69,5.69,0,0,1,25.08,8V5a6.55,6.55,0,0,0-1-.07A3.76,3.76,0,0,0,20.4,7Z"></path><path class="f6c7fe96-0c91-4d70-87b2-d704a1462dff" d="M31.64,4.76a5.65,5.65,0,0,0-4.17,1.66,7.32,7.32,0,0,0-1.89,5.23,7.12,7.12,0,0,0,2,5.23,5.71,5.71,0,0,0,4.13,1.61,5.6,5.6,0,0,0,4.4-1.84,5.12,5.12,0,0,0,1.11-2.41h-3a2.4,2.4,0,0,1-.63,1.11,2.44,2.44,0,0,1-1.91.62,2.74,2.74,0,0,1-1.94-.8,3.48,3.48,0,0,1-.95-2.57h8.75c0-.27,0-.88,0-.87a7.41,7.41,0,0,0-1.13-4.56A5.56,5.56,0,0,0,31.64,4.76Zm-2.89,5.56a3.25,3.25,0,0,1,.68-2A2.93,2.93,0,0,1,33.61,8a3.37,3.37,0,0,1,.8,2.29Z"></path><path class="f6c7fe96-0c91-4d70-87b2-d704a1462dff" d="M45,4.76a5.66,5.66,0,0,0-4.18,1.66,7.31,7.31,0,0,0-1.88,5.23,7.08,7.08,0,0,0,2,5.23,5.71,5.71,0,0,0,4.12,1.61,5.59,5.59,0,0,0,4.4-1.84,5.12,5.12,0,0,0,1.11-2.41h-3a2.39,2.39,0,0,1-.62,1.11A2.48,2.48,0,0,1,45,16a2.73,2.73,0,0,1-1.93-.8,3.49,3.49,0,0,1-1-2.57h8.76c0-.27,0-.88,0-.87a7.35,7.35,0,0,0-1.13-4.56A5.54,5.54,0,0,0,45,4.76Zm-2.89,5.56a3.19,3.19,0,0,1,.68-2,2.66,2.66,0,0,1,2.19-1A2.62,2.62,0,0,1,47,8a3.43,3.43,0,0,1,.81,2.29Z"></path><path class="f6c7fe96-0c91-4d70-87b2-d704a1462dff" d="M59.92,4.76a4.32,4.32,0,0,0-3.85,2l-.23-1.69H53.2V18.16h3.15V12.83a9.16,9.16,0,0,1,.42-3.5A2.48,2.48,0,0,1,59,7.67c1.66,0,2.16.93,2.16,2.47v8h3.15V9.44C64.35,6.72,62.71,4.76,59.92,4.76Z"></path><path class="f6c7fe96-0c91-4d70-87b2-d704a1462dff" d="M78.63,9a4.07,4.07,0,0,0,2.19-3.78,4.64,4.64,0,0,0-2.06-3.87,7.55,7.55,0,0,0-4.13-1h-7.1V18.19h7.1A7.43,7.43,0,0,0,79.38,17a4.74,4.74,0,0,0,1.81-4A4.36,4.36,0,0,0,78.63,9ZM70.76,3.12h4c1.46,0,2.77.55,2.76,2.27S76.29,7.6,74.83,7.6H70.76Zm4,12.15h-4V10.32h4.1c1.71,0,3,.68,3,2.59S76.27,15.27,74.76,15.27Z"></path><rect class="f6c7fe96-0c91-4d70-87b2-d704a1462dff" x="83.41" y="0.03" width="3.37" height="3.25"></rect><rect class="f6c7fe96-0c91-4d70-87b2-d704a1462dff" x="83.51" y="5.08" width="3.19" height="13.08"></rect><polygon class="f6c7fe96-0c91-4d70-87b2-d704a1462dff" points="92.92 15.57 99.76 7.92 99.76 5.08 89.19 5.08 89.19 7.67 96.06 7.67 89.14 15.4 89.14 18.17 99.81 18.17 99.81 15.57 92.92 15.57"></polygon></svg> 