<?xml version="1.0" encoding="UTF-8"?> <svg xmlns="http://www.w3.org/2000/svg" id="Layer_1" width="100" height="46.44" viewBox="0 0 100 46.44"><defs><style>.cls-1{fill:#fff;}</style></defs><path class="cls-1" d="m46.8,2.61h1.01v.27h-1.22c0,1.55-.02,3.09.05,4.64.04.84-.42,2.15.88,2.28,1.38.14.86-1.25,1.04-1.98.19-.77.5-1.13,1.3-1.13s1.24.31,1.3,1.12c.01.16.02.32.04.49.08.7.07,1.55,1.06,1.53,1.15-.02.94-.98.98-1.71.01-.36,0-1.33,0-2.4l-.14-.07.05-.27.08-.04v-.31l-.02.03-.32-.44h.16c.06-.02.12-.02.18,0,0-.16,0-.32-.01-.47-.04.07-.08.14-.11.22-.32.01-.63-.06-.91-.22-.34.02-.68.08-1.01.16-.18.05-.35.08-.49.11-.26.13-.56.2-.85.19h-.16c-.07.02-.14.03-.22.03-.11.01-.22-.04-.29-.13-.3-.12-.51-.4-.54-.72-.08-.44-.15-.86-.2-1.29-.06-.56.15-1.34-.77-1.34-.97-.01-1.1.72-1.09,1.48v.23l.21-.25m2.58,3.78c.06.04.1.11.09.19l-.09-.19Zm1.94.96l-.15-.12v-.12c.08,0,.15.06.15.14,0,0,0,0,0,0h0v.11Zm-1.46-2.01c-.07.03-.14.04-.22.03l-.09-.15c.1.03.21.07.31.12h0Zm.51.2v-.35l-.44-.11c.05-.27.27-.38.59-.38.19,0,.38.05.54.16-.16.05-.27.11-.43.16v.49h.64l.6-.21v.33l-.59.22.16.76-.8-.22.32-.44c-.57.02-1.14-.02-1.71-.11.59-.16.97-.27,1.13-.33v.02Z"></path><path class="cls-1" d="m38.78,1.99c.03-.08.06-.16.1-.26l.11.22h.1c.11,0,.16.05.16.22,0,.09-.02.19-.05.27h-.43v.44c.07.02.14.04.22.05l-.04-.27.27.06c.02.11.05.18.05.23.26.02.48.03.77.06.36.02.66.31.68.68h1.3c-.3.12-.58.27-.86.44l-.11-.11c-.11-.05-.16-.05-.22-.11h-.1v.69h.04l.37-.27c.27,0,.64.33,1.07.98-.4.05-.79.12-1.17.22l-.31-.06c0,.78,0,1.56.05,2.33.04.72-.25,1.85.88,1.97.94.1.97-.64.97-1.26-.04-.06-.03-2.04-.04-3.54-.02-.1-.05-.22-.09-.36h.09v-.63s0-.03,0-.05c0-.57.23-.91.85-.96.12,0,.25-.01.37-.03.53-.06,1.06-.06,1.04-.81-.02-.88-.74-.9-1.29-.92-.62-.02-1.23,0-1.85,0,0,.02-1.73.04-2.58.07-.48.01-.86.4-.86.88-.01.17.04.34.15.47-.04-.35.09-.58.39-.66m3.22.74c.22.06.43.11.7.16-.28.07-.57.13-.86.16l.15-.33Z"></path><path class="cls-1" d="m58.91,9.98c.81,0,2.05.34,2.16-.85.14-1.43-1.24-.76-1.96-.99-.55-.18-1.35-.08-1.32-.92s.8-.7,1.38-.78c.51-.05,1.02-.11,1.07-.77.05-.7-.42-.94-1.02-1.02-.11-.02-.22-.03-.32-.05-.5-.09-1.03-.23-1.02-.85,0-.68.63-.65,1.1-.74s.97-.15,1.46-.21c.61-.07,1.28-.12,1.3-.94.01-.86-.69-.84-1.29-.86-.49-.02-.98,0-1.48,0v-.02h-.82c-2.11,0-2.17.06-2.29,2.19-.07,1.2-.18,2.39-.2,3.59-.04,3.23-.02,3.25,3.26,3.2m.08-8.61l.09.06v.09c-.07,0-.14-.04-.18-.09l.09-.06Zm-.09.4c.09,0,.15.03.15.09v.05l.03.06h-.18v-.21Zm.7,0s.06.08.06.12c0,.08-.03.16-.06.23l.06.06-.06.09h-.76c.23-.21.48-.39.75-.53h0Z"></path><path class="cls-1" d="m51.61,4.02c.75-.54,1.23-.82,1.39-.76h.11v.76l.12.04c-.02-.76-.03-1.43-.04-1.8-.02-.57-.2-1.11-.91-1.13s-.94.47-1.01,1.06c-.06.49-.05.98-.11,1.46-.02.13-.05.25-.11.37h.57"></path><path class="cls-1" d="m36.61,37.64l.08-.05-.16-.19h.1c.1-.02.19,0,.28.03.27-.24.34-.63.17-.96-.54-1.22-.97-2.48-1.45-3.71h-.38l.16-.27.1-.03c-.17-.44-.36-.88-.55-1.29l-1.07.1c.19-.12.38-.23.57-.32v-.59l.09-.02-.02-.04c-.54-1.01-2.26-.84-2.65.16-.79,2.03-1.44,4.12-2,5.76-.14.89-.16,1.32.31,1.54.44.23.99.08,1.26-.34,1.44-1.97,2.72-1.53,3.91-.09.34.41.75.55,1.25.32m-.43-1.76s0,.06-.03.06h-.06l-.09-.23c.12.02.18.09.18.18h0Zm-4.49-.47h-.23v-.15l.09-.12h.03c.09,0,.12.03.12.12v.15Zm-.06-3.43v-.19c.06,0,.11.03.15.06l.03.12h-.18Zm1.27.27l-.09.03-.06-.15c.06.02.11.06.15.12h0Zm-.27,2.35c-.63-.31-.18-1.24-.04-1.77.09-.39.3-.8.82-.6.23.14.4.37.44.64.14.42.39.81.42,1.25.04.36-1.05.76-1.63.47h0Z"></path><path class="cls-1" d="m44.98,34.8c-.27-.47-.39-.88-.07-1.44.11-.2.2-.39.29-.58-.02-.04-.05-.08-.08-.11h.13l.05-.12v-.22l.09-.04c.02-.05.04-.11.05-.16l-.26-.05.03-.09.15-.09c.03-.12.06-.27.09-.46.04.02.07.04.1.07.1-1.36-.94-2.14-3.02-2.17-.79,0-1.91-.34-2.16.73-.53,2.29-.62,4.65-.7,6.99-.03.46.31.87.78.9.03,0,.06,0,.1,0,.56.03.88-.29.98-.82s.11-1.35.22-2.01c.05-.26.29-.42.55-.38.11.02.2.08.27.16.56.69.98,1.62,1.32,2.26s.83.75,1.44.44.69-.77.44-1.32c-.23-.53-.5-1.04-.79-1.54m-4.66-2.65c-.07-.12-.13-.26-.18-.39h.22c-.03.14-.03.28-.01.42l-.03-.02Zm3.95-.41c-.04.33-.24.62-.54.76-.52.17-1.1.04-1.5-.33-.12-.13-.19-.29-.19-.47.01-.19.08-.37.2-.51.23-.31.62-.45.99-.35l-.04-.11h.84l-.08.44s.09.06.13.09c.07.04.13.11.17.18.04.1.06.21.04.31h-.01Z"></path><path class="cls-1" d="m57.92,37.26l.03-.15.15-.06v-.12s-.04-.03-.07-.03t-.06.03l-.18-.23h.1c.07-.03.15,0,.2.05-.01-.09-.03-.17-.06-.26-.53-1.85-1.08-3.7-1.64-5.54-.2-.66-.59-1.1-1.33-1.12-.59-.07-1.15.28-1.37.83-.1.29-.27.54-.5.74v.13l-.22-.04c-.33.05-.66-.27-.94-.79-.37-.66-.81-.94-1.55-.82-.78.13-.94.75-1.05,1.38-.31,1.74-.51,3.29-.82,5.03-.11.64-.23,1.32.66,1.47.8.13,1.1-.44,1.25-1.1.23-1.04.49-2.41.78-3.66.43.86.9,1.34,1.37,1.54h.02c.88.35,1.74-.36,2.22-1.59.42,1.43.86,2.91,1.23,4.13.19.61.54,1.04,1.26.79.28-.08.52-.28.64-.55l-.12-.06m-6.94-7.19h.23l.09.27-.03.06-.3.06v-.39Zm.42,2.63c-.05-.16-.1-.38-.16-.59l.47.16-.16.05c.1.21.04.31-.16.37h.01Z"></path><path class="cls-1" d="m27.54,29.45c-.88-.03-2.53.09-2.53.07-.51,0-.67-.08-1.01.03,0,.03-.02.05-.03.08l-.03-.05c-.08.03-.16.06-.23.09-.83.37-.62,1.91-.61,2.5v.05c-.03,1.44,0,4.58-.06,4.66,0,.64.02,1.38,1,1.3s.74-1.17.78-1.91c0-.16.01-.3.02-.54.02-.76.97-.63,1.48-.7.47-.06.89-.17.9-.74s-.34-.77-.83-.85c-.19-.03-.61-.03-.8-.08-.35-.08-.7-.15-.74-.6-.02-.18-.02-.37,0-.55-.02-.52.36-.96.88-1.03.38-.04,1.52,0,1.88-.06.47-.06.84-.23.83-.78,0-.49-.39-.89-.88-.9m-3.15,7.34l-.15-.09h-.04c.02-.13.04-.26.06-.4l.04-.03c.04.1.1.2.18.27l-.09.24Zm1-3.24l-.79.16-.11.75c-.18-.05-.36-.13-.52-.22.16-.05.22-.32.22-.75.13-.11.3-.19.47-.22.25.04.49.13.7.27h.02Zm-.22-3.35h-.42v-.27l.16-.22h.05c.16,0,.22.05.22.22v.27Zm.89.16l-.26-.22v-.22c.14,0,.26.09.27.23,0,0,0,0,0,0h0v.2h0Z"></path><path class="cls-1" d="m68.7,36.02c-.29.13-.47.23-.7.14-1.05-.39-2.01-1.03-1.88-2.25s.8-2.23,2.27-2.14c.62.04,1.16-.09,1.38-.54-.02-.15-.04-.29-.08-.44l.17.04v-.05c.01-.92-.85-.94-1.52-1.01h-.18l-.05.35c-.13-.06-.23-.17-.28-.31v-.04c-1.47.03-2.61.83-3.28,2.11-.15.3-.28.61-.37.94h.04l.27.11h-.11v.27l.27-.11v-.27l.49.11.38.61-.38-.22-.16.33-.94.12c-.03.77.14,1.54.51,2.22h.01c.08.16.17.31.26.45h.34l.16-.27.53.26-.16.77h-.23c.91.88,2.09,1.2,3.44.98,1.89-.31,1.5-2.93-.21-2.16m-3.69-1.74l.16-.39h.54l.32.39h-1.02Zm1.51,1.6h-.06l-.16-.33c.22.06.38.11.44.27-.06.06-.12.06-.22.06h0Zm2.47.82c-.1-.21-.18-.43-.22-.66h.15v.28l.25.06c0-.11.08-.2.18-.22-.11.19-.23.37-.36.54h0Z"></path><path class="cls-1" d="m74.23,35.74l-.05-.19h.4l.16.06-.04.05c-.11,0-.22.02-.31.09h.12c.39,0,.78-.09,1.13-.27-.17-.3-.45-.52-.78-.6l.09-.34h.43l.02.11c-.07.25,0,.52.17.7l.09.1c.81-.43,1.28-1.32,1.28-2.57,0-1.98-.81-2.9-2.56-2.9-1.43,0-2.56,1.3-2.55,2.95.01,1.59.96,2.68,2.39,2.79m.26-4.13c.81,0,.89.66.94,1.29-.04.68-.23,1.29-1.05,1.28s-.98-.66-.95-1.27.23-1.31,1.06-1.3h0Z"></path><path class="cls-1" d="m75.38,37.22l.11-.11c.08,0,.15-.02.22-.06h.22c.18,0,.39.01.62.03,0-.09-.01-.18-.02-.23,0-.08-.03-.15-.08-.2-.01,0-.03-.02-.04-.02-.31.06-.59.1-.83.13v.07l-.06-.06c-.16.02-.31.04-.44.04l.03-.02c.1-.03.2-.08.28-.15l-.04-.04v-.08c-.97-.04-1.95.08-2.89.35-.12.03-.08.36-.08.49.02.24.15.45.34.59.3.09.62.13.94.11.6,0,1.2-.02,1.8-.07.27,0,.53-.07.78-.17.1-.05.19-.12.26-.21.02-.04.04-.09.05-.14-.4.01-.8-.08-1.15-.27"></path><path class="cls-1" d="m42.56,24.04c-.23-.56-.49-1.12-.74-1.69-.02.09-.05.19-.09.28l.11.11-.11.17h-1.37c.4-.35.83-.66,1.29-.91-1.08-2.48-2.17-4.96-3.43-7.35-.45-.84-1.4-1.27-2.33-1.04v.47c-.08-.13-.15-.27-.21-.41-.53.18-.95.59-1.16,1.11-.62,1.6-1.19,3.22-1.71,4.75.02.03.04.07.04.11h-.08c-.48,1.45-.93,2.81-1.34,4.01-.22,1.37-.25,2.04.47,2.37.77.33,1.66.17,2.27-.4l.44-.44-.05-.38c.13-.03.26,0,.35.1,1.88-1.7,2.92-1.59,4.95.47.57.59,1.15.86,1.92.49s1.08-1.04.74-1.8m-1.91-2.81l.16.11v.17c-.13-.01-.24-.07-.33-.17l.16-.11Zm-.16.72c.16,0,.27.06.27.17v.05l.05.11h-.33v-.33Zm-8.94,2.98l-.19-.44c.19.08.35.2.5.35-.08.07-.19.1-.3.09h-.01Zm1.61-4.61c-.02-.06-.05-.11-.09-.16l.19-.09c.09-.19.19-.32.34-.35-.12.22-.26.42-.42.6h-.01Zm.59,1.48s.07.1.09.16l-.09-.16Zm.93-1.97l-.15-.32.16.17v.16Zm3.4,1.53c-.64.52-2.22.35-2.72,0-.45-.32-.29-.88-.22-1.32.1-.53.35-1.11.47-1.64.15-.61.44-1.11,1.1-1.08.45.03.78.47.97.83.39.77.7,1.84.66,2.67,0,.2-.09.39-.23.53h-.02Zm.33.25l-.13-.25c.11.02.2.09.25.19l-.12.06Z"></path><path class="cls-1" d="m99.96,22.63s-.07-.06-.12-.08l.06-.18h.09c0-.07,0-.13,0-.2h-.47v-.22c.15.05.3.08.45.09-.19-1.15-.98-2.27-2.35-3.29-.61-.47-1.71-.72-1.88-1.5h-.41l-.05-.5c.13.03.27.04.4.03.01.02.03.04.04.06.02-.11.04-.21.08-.31.46-1.23,1.53-.33,2.37-.19s1.27-.33,1.54-1.03-.04-1.17-.6-1.54c-.77-.47-1.66-.73-2.56-.75-.22.02-.44.05-.65.08v.04h-.18c-1.5.31-2.63,1.15-3.17,2.72-.6,1.76.2,3.07,1.55,4.14.42.32.89.58,1.32.88.67.47,1.58.94,1.17,1.94-.45,1.12-1.38.62-2.13.31-1.08-.44-1.8,0-2.22.92-.54,1.2.41,1.6,1.25,1.97.08.04.16.06.23.09v-.12l-.31-.06.18-.31.22.31c-.03.07-.05.13-.07.2,2.14.81,4.72.02,5.74-1.77.31-.53.49-1.13.5-1.74h-.03m-3.89-3.31h.1l.15.36h.47l.05.47c-.12-.03-.25-.04-.38-.03-.2-.27-.41-.52-.63-.77.08-.02.16-.03.23-.03h0Zm-1.45,5.87v-.19h.01s.07.07.11.09c.11.06.21.14.28.25-.08-.03-.22-.08-.41-.15h0Z"></path><path class="cls-1" d="m76.79,24.57c-.07-.78-.64-.99-1.32-1.02-.39-.02-.78,0-1.16-.06-.88-.12-2.09.05-2.19-1.17-.04-.24,0-.48.09-.7-.04-.02-.08-.04-.11-.07l.09-.06s.06,0,.09.01c.35-.49,1.21-.37,1.84-.46.74-.09,1.41-.27,1.44-1.17.02-.85-.55-1.22-1.32-1.34-.31-.05-.62-.07-.92-.14-.63-.15-1.22-.41-1.2-1.17.02-.81.7-.97,1.3-1.07.91-.15,1.33-.31,2.25-.39.76-.07,1.39-.31,1.39-1.21s-.57-1.17-1.35-1.27c-3.65-.44-4.99-.01-6,1.61-1.79,2.85-.7,8.18-.7,9.07,0,.66.14,1.28.56,1.64l.17.05s0,.05-.02.07c.11.07.23.13.36.16h.06v.03c.11.03.23.05.35.05,1.69.1,3.4.1,5.09.03.76-.03,1.29-.54,1.21-1.41m-7.38.22c-.03-.1-.06-.22-.09-.35l.27.09-.09.03c.06.11.02.18-.09.21h0Zm2.39-8.46c.1,0,.2.06.23.16l-.23.06v-.22Zm-.34-.54s.06.08.06.12v.03s-.06-.08-.06-.12v-.03Zm.34,4.46c-.09.09-.21.13-.34.13v-.25c.12,0,.24.05.34.13h0Zm-.31-3.5l-.22.06v-.19c.09.01.17.05.23.11h-.02Zm-.27-1.94c-.04.18-.09.36-.15.53-.02-.2-.05-.4-.09-.59l.24.06Zm.19,1.25c-.02.12-.06.24-.12.34-.23-.04-.42-.21-.49-.43.18.02.4.06.61.08h0Zm-1.35,9.65h-.09l-.06-.19c.09.06.18.11.28.15-.04.03-.08.04-.13.03h0Zm-.33-1.86l.3-.47.2.05v.52l-.51-.11Zm.72,1.86l-.09-.12c0-.05,0-.11.03-.16l.09.09-.03.19Zm-.38-4.67c-.14-.29-.24-.59-.29-.9h.22v.39l.34.08c0-.15.11-.27.25-.3-.16.25-.33.49-.51.72h0Zm.8-2.49h-.08l-.08-.35c.13.01.25.1.3.22,0,.06-.05.11-.11.11,0,0,0,0,0,0h-.01Zm.3.82c.18.07.35.16.51.26-.3.09-.51.13-.63.17l.13-.43Zm.33,4.99l.1-.41c.15,0,.25.05.25.2s-.1.21-.3.21h-.05Zm-.09.59l-.13-.15c.1.02.2.06.27.12l-.15.03Zm.52-7.9h-.12v-.26c.08.02.13.1.12.19v.08Zm.18,2.85c.15,0,.23.03.22.12l-.12.38-.15-.07.05-.43Z"></path><path class="cls-1" d="m27,24.86c-.07-.81-.66-1.02-1.36-1.06-.4-.02-.81,0-1.21-.06-.92-.12-2.18.05-2.3-1.23-.14-1.47,1.17-1.2,2.08-1.32.77-.1,2.11-.17,2.14-1.11.02-.88-.31-1.39-2.01-1.51-.32-.02-.64-.07-.95-.14-.66-.16-1.27-.42-1.25-1.23.02-.85.72-1.01,1.35-1.11.94-.15,1.91-.22,2.88-.3.79-.07,1.44-.32,1.44-1.26,0-.7-.37-1.03-.92-1.2l-.13.27-.34-.09c.11-.08.22-.14.34-.19v-.03c-.12-.03-.23-.06-.35-.08-4.06-.76-5.97-.64-6.83,1.22l.14.04c-.04.18-.09.36-.16.54-.02-.17-.04-.3-.05-.4-.26.66-.43,1.54-.5,2.66l.02-.17c.27,0,.44.06.38.22l-.22.66-.22-.09c0,.22-.01.42-.02.64.26.06.52.09.78.11.13.01.26,0,.38-.06l.22-.27c-.22-.14-.42-.31-.6-.5l.21-.72h.55c.01.23.07.45.16.66l.44.11v.33h-.59l.15.28h.16v.28c-.76.51-1.25.78-1.41.78-.08,0-.16-.01-.22-.05-.02-.19-.1-.38-.23-.52v.19c0,.22-.03,2.79-.03,4.41h.03v.32h-.03v.33c0,1.05.32,2.01,1.53,2.08.7.04,1.41.06,2.11.07-.01-.08-.03-.16-.06-.23h.22l.05.23c.98,0,1.97,0,2.95-.04.79-.03,1.34-.56,1.26-1.45m-.81.37c.1,0,.2.04.27.11l.05.22h-.33v-.33Zm-6.41-9.15c-.23-.04-.42-.21-.49-.44.19.03.4.06.62.09-.01.12-.05.24-.12.35h0Zm.84,3.52c.16,0,.23.03.22.13l-.12.38-.16-.06.06-.44Zm1.17.63h-.34l.09.16h.09v.16c-.24.19-.51.33-.8.44-.04,0-.09,0-.12-.03-.02-.18-.14-.34-.31-.41v-.15c.2.04.41.08.62.1.08,0,.15,0,.22-.03l.12-.16c-.13-.08-.24-.17-.34-.28l.12-.41h.3c0,.13.04.26.09.38l.23.06v.19Z"></path><path class="cls-1" d="m88.09,13.73c-1.51-.76-3.3-.75-4.8.03-.19.45-.32.72-.44.78l-.18-.03.03-.3c.09-.03.2-.06.29-.09l.09-.15-.06-.06c-1.15.68-1.89,1.9-1.96,3.24-.02.37.03.74.14,1.1l.02-.22h.78v.53h.62c-.11.16-.21.27-.36.27h-.16l-.3-.27.05-.16c-.06-.11-.19-.18-.31-.16-.04.11-.13.21-.23.27.34.81.93,1.49,1.7,1.93.83.48,2.32.54,2.39,1.81.09,1.67-2,1.08-2.94.83-1.67-.44-2.26,2.03-.63,2.58,3.24,1.14,6.33.15,6.4-3.37,0-1.06-.44-2.07-1.22-2.79-.39-.37-.86-.66-1.38-.83-.53-.17-1.1-.25-1.45-.73-.33-.48-.23-1.14.23-1.49.05-.04.11-.08.17-.12l-.05-.05c0-.07,0-.15,0-.22l.19.17c.62-.35,1.48-.5,2.09-.19,1.53.79,2.81-1.55,1.28-2.35m-5.84,2.31v-.06c0-.12.03-.22.12-.23l.06.18c-.03.08,0,.17.06.23-.15-.01-.23-.04-.23-.12h0Zm.44-.9c0,.06-.06.09-.2.12v-.06c0-.06.02-.11.06-.15.05,0,.1,0,.15.03v.06Zm-.06,9.65c0,.09-.03.15-.12.15-.15-.04-.3-.08-.44-.15v-.2c.11-.01.21-.05.29-.12l.27.23v.08Zm1.57,1.26l-.16.1-.23-.43h.52l-.12.33Zm2.55-4.32c.08.03.17.05.25.07,0,.03,0,.06,0,.09l-.06.05h-.19v-.21Zm-3.17-7.1l.09.06c-.06.08-.13.15-.21.22.01-.1.05-.2.12-.28Zm1.59,4.54l.07.29c-.11.15-.24.29-.39.4-.04-.11-.07-.18-.11-.29.07-.19.23-.34.42-.4h0Zm-1.14.14v.13h-.09l.03.06v.15c.09.03.18.04.27.03.12,0,.24-.03.35-.06-.23.09-.46.15-.7.18h-.06l-.09-.22h-.26l-.03-.27c.13.03.26.03.38,0l-.03-.08s.07.03.11.05l.12.03h0Zm.05-3.99c-.13,0-.26.04-.35.13h-.08l-.06-.23h.39l.15.06-.04.04Z"></path><path class="cls-1" d="m60.93,26.12l.22.09c.5-.04,1.45-.15,2.42-.18.73-.01,1.31-.6,1.32-1.33.02-.79-.66-1.25-1.35-1.33-.56-.07-1.2.02-1.76-.05-.85-.11-1.15-.6-1.17-1.32l-.02-.2c0-1.93.09-3.71-.01-5.64-.05-1.06.15-2.72-1.17-2.91l-.03.05h-.32v-.07c-1.21.03-1.17,1.02-1.17,1.91.07.11-.01,4.74.04,6.86,0,.02,0,.05,0,.07-.02.88-.34,3.38.9,3.92.86.38,1,.21,1.95.21.06-.02.13-.03.19-.03v-.04m1.94-1.29l.22.06v.59l-.58-.12.35-.53Zm-4.37-7.61c-.04.16-.1.35-.16.55-.02-.21-.05-.41-.09-.62l.25.07Zm.06,1.64c-.24-.04-.43-.21-.51-.44.19.03.41.06.63.1-.02.12-.06.24-.13.34h0Zm.44-4.72s-.08.04-.13.03h-.06l-.13-.22.41.07-.1.12Zm.42,8.36l.1.52-.16-.07.06-.45Zm.1,1.39c-.02-.19-.14-.35-.32-.42v-.17c.21.05.42.08.64.1l-.32.49Z"></path><path class="cls-1" d="m53.42,14.64l-.16,1.14c.64-.08,1.24-.27,1.22-1.11,0-.33-.12-.64-.35-.88v.07h-.27v-.29c-.47-.27-1.13-.31-1.6-.33-.92-.04-1.85,0-2.77,0,0,.02-1,.03-2.07.06l-.03.06c0,.17.16.22.44.28v.28h-.16l-.16.33h-.44v-.51h-.77l.08-.44c-.28,0-.55.01-.77.02-.25,0-.5.08-.7.22v.08l.94-.22.11.17-.27.17-.22.34h.39l.45.95h-.44v-.66l-.94.33c.14.13.22.31.22.51-.01.16-.05.32-.11.47.16.06.33.1.51.12.55.07.94.06,1.49.13.83.11,1.03.7,1.06,1.41v.86l.12.03-.12.07v.69c.07.01.13.04.19.07v.08l-.04.06-.02.06-.07.03-.05-.02c0,1.29,0,2.58.07,3.86.06,0,.13.02.19.04l.11-.79h.33c-.06.35-.06.71,0,1.07-.13.03-.27.05-.43.08-.07,0-.14,0-.2.02-.02,1.1-.16,2.58,1.3,2.51s1.44-.97,1.45-1.89c-.07-.11-.04-4.67-.08-6.76,0-.02,0-.04,0-.07.02-.86.37-1.37,1.27-1.44.19-.01.37-.03.55-.05s.37-.04.56-.06c-.21-.11-.36-.3-.44-.52.06-.22.11-.45.17-.62h.5m-4.34,7.1l-.23.05c-.07,0-.15,0-.22.02-.02-.09-.04-.18-.08-.26.1,0,.19,0,.28.03l.06-.44h.17c-.03.2-.03.41,0,.61h.02Zm3.22-7.52l-.31.06v-.44h.25l.09.29-.03.09Z"></path><path class="cls-1" d="m14.72,24.04c-.82-2.84-1.66-5.68-2.51-8.51-.29-.96-.86-1.63-1.94-1.71h-.27c-.24,0-.48.04-.7.11h-.04c-.54.19-.97.61-1.17,1.15-.33.78-.59,1.37-.85,1.64l-.03.02c-.06.06-.15.1-.23.11-.32.02-.68-.48-1.21-1.77-.43-1.05-1.43-1.35-2.53-1.21l-.12.02c-.08.02-.16.03-.23.05h-.03c-.29.08-.56.24-.76.47l-.02.03-.03.03c-.29.47-.47,1-.53,1.54-.12.68-.23,1.37-.35,2.05,0,.05-.01.1-.03.15-.05.31-.11.62-.16.92l-.03.12-.19,1.1s0,.05-.02.08c-.09.56-.19,1.1-.28,1.64,0,.04-.01.08-.02.12H.43c-.09.51-.18,1.02-.27,1.53,0,.02,0,.04,0,.05l-.04.22c-.03.17-.06.33-.08.5-.05.29-.05.6,0,.89.04.22.16.42.33.56.05.05.11.09.18.12.06.03.13.06.2.09h.03c.11.04.23.07.34.08h.03c.17.02.34.02.5,0,.81-.12,1.16-.88,1.36-1.71.14-.57.28-1.21.44-1.89.03-.15.07-.31.1-.47.02-.19.03-.38,0-.57.04-.04.09-.07.13-.09.08-.37.17-.74.25-1.12.11-.49.22-.98.33-1.45,0-.02,0-.03.01-.04.33.75.83,1.42,1.46,1.95.22.18.47.32.74.41.19.06.39.08.59.08,1.03-.04,2.03-.97,2.79-2.82v-.02c.1.33.2.66.29.99v.02c.02.05.04.11.06.17.14-.04.27.18.37.05l.28.16-.22.1.03.04h-.23l-.09.09c.04.11.07.22.1.33s.05.16.07.23c.06.21.12.41.19.62v.03c.04.14.08.28.13.43l.23.82v.03c.05.15.09.3.14.45h0c.2.66.39,1.3.57,1.88.2.63.5,1.14,1.03,1.29.3.07.62.04.91-.07.12-.04.24-.09.35-.15.05-.03.1-.06.15-.09h.02c.59-.43.69-1.11.47-1.89m-4.7-7.71l.27-.22h.23c.02.29-.04.36-.37.47-.12-.04-.14-.13-.13-.23v-.02Zm.14.78c-.17-.04-.34.06-.47-.11l.16-.11c.18-.12.27-.07.31.23v-.02Zm-.5-1.65l.07.09q-.09.01-.08-.08h0Zm.09,2.31h-.04c0-.06-.01-.12-.02-.18h.06v.18Zm-.54,1.83s-.03.08-.05.12c-.03.04-.07.08-.1.13-.03.04-.05.09-.07.14h-.16s-.01-.1-.02-.16c.16,0,.15-.31.39-.22h0Zm-.42-3.03s.03.1.02.13c-.03.05-.06.1-.1.15-.07-.12-.03-.2.08-.27h0Zm-.31-1.74h-.05s.07.07.07.12h-.03s-.01-.08-.03-.12h.04Zm-.09-.06l.04.05s-.05-.01-.07-.03l.02-.02Zm.15.81c.2.17.05.31-.04.44v-.37h-.05c0,.1,0,.2-.02.3l-.1.1c-.04-.16-.07-.3-.1-.47h.32Zm-.69.53l.11.07.16-.1.16.25-.23-.08-.07.06-.22-.1.09-.11Zm.04.66v.34s-.08-.04-.13-.06c-.06-.01-.13-.02-.2-.03l.32-.25Zm-4.51-2.85l.17.17-.31.02.14-.19Zm-.47,8.74h-.09v-.2l.09.2Zm-.59-.04h.14v.1l-.12.03s-.01-.08-.03-.12h0Zm-.13-7.26v-.03h.13v.03h-.13Zm.33,7.26h.05v.11h-.03s-.01-.07-.02-.11Zm-.05-1.15v-.06h.1v.03l-.1.03Zm-.26-.34s.02.02.04.04c-.14.08.03.3-.22.36l.06-.17-.15-.19.28-.04Zm.03,1.12l-.18.03v-.06h.18v.04Zm-.27,1.69s.06-.07.08-.11c0-.01-.01-.03-.01-.05l.08-.07s-.05.08-.06.12v.02s.02,0,0,.03v-.03l-.02.03s-.04.05-.06.08c0,.02-.02.04-.04.06l-.02-.02.06-.05Zm0,1.1l-.1.1-.12-.15.04-.04.18.09Zm-.32-3.42s0,.03,0,.05l-.02-.02s-.02.05-.03.07l-.02-.02.05-.05v-.03c0-.1.07-.14.16-.16l-.15.17Zm.16-.55l-.2.12c-.03-.1-.06-.2-.11-.34.13.02.25.1.31.22Zm-.65,4.53v.06h-.11v-.03l.11-.03Zm-.55-2.66l-.12-.31c.11-.14.29-.2.47-.17l-.35.47Zm.55-.97c.03-.17.12-.21.27-.17v.17h-.27Zm0,1.53v-.04l.38.08.09.22-.47-.26Zm.47.94v-.02h.07v.03h-.07Zm1.76-9.62l-.1-.1.15-.31s-.04-.06-.07-.11l.23-.15.22.32-.16.34h-.28Zm.09,5.5v.07h-.02v-.07h.02Zm-.02-4.55l.58.16-.08.16c-.19-.06-.36-.18-.49-.34h-.01Zm.83-.44l-.26-.13c.04-.16.12-.2.26-.17v.3Zm.66,4.44v.07h-.01v-.07h.01Zm-.04-1.11l.14-.05c.04.08-.02.09-.14.05h0Zm2.07-1.14c.04-.08.07-.15.11-.22l.23.09c-.04-.17.12-.2.17-.3l.11.06c-.05.12-.16.2-.28.23l-.16.26-.19-.12Zm3.36.54l-.27-.22h-.07s.04.07.06.11l-.1.1-.17-.27c.12-.14.22-.27.34-.4h.03s.03.01.04.02l-.05.07v.02l.31.04c.03.15.06.28.1.44l-.23.1Zm.66,2.43v-.25l.2-.07.16.33c-.15.12-.19.12-.36,0h0Zm.88-4.01l.18.2v.22l-.07-.04-.19-.09-.03-.13h-.05v.13h.04l.09.23-.19.06c-.13-.08-.21-.21-.22-.36.11-.17.3-.13.45-.23h-.01Zm-.15,1.81l-.13.02s.07-.07.12-.07v.04Zm-.17.08l-.02-.02.05-.04s0,.05-.02.07h-.01Zm.35,3.03c-.15-.05-.22-.17-.31-.23v-.23h.17c.14.11.2.3.16.47h-.01Zm0-1.64l-.27.04c.1-.3.35-.16.47-.3.04.13.07.22.1.34-.13.07-.18-.1-.29-.08h-.02Zm.31-1.11h-.28l-.12-.3.2-.11.28.16c-.03.09-.05.17-.08.23h0Zm.53,2.63v.04h-.07v-.02h.07Z"></path><path class="cls-1" d="m15.77,44.61h.09v-.26c0-1.25-.54-1.85-1.67-1.85-.31,0-.61.09-.87.26-.2.14-.37.32-.49.53-.08.12-.14.25-.19.39-.05.15-.09.31-.11.47-.01.09-.02.18-.02.26,0,.11,0,.21.02.32.05.59.4,1.11.94,1.37.05.03.11.05.17.06.05.02.11.03.17.05.08.02.16.03.23.04h.32c.11,0,.22-.03.33-.05.04-.01.09-.02.13-.04.45-.17.79-.54.91-1,.05-.14.07-.28.09-.43-.08-.06-.18-.12-.26-.18l.15-.15c0,.07.01.14.03.2m-2.66.76v-.04l.17-.03s0,.04,0,.06h-.17Zm1.64-2.53v.23l-.16-.21.16-.02Zm-.39.45c-.12.07-.15-.03-.2-.08.12-.07.15.03.21.08h0Zm-.36,2.77v.07h-.02v-.07h.02Zm.98-1.17c-.03.1-.07.19-.12.28-.03.05-.07.1-.12.14-.16.13-.36.19-.56.18-.64,0-.81-.53-.79-1.06.02-.38.12-.77.42-.96.14-.08.31-.12.47-.11.05,0,.1,0,.16,0,.04,0,.09.02.13.03.41.14.47.58.49,1.03,0,.16-.03.32-.07.47h0Z"></path><path class="cls-1" d="m30.76,44.79c.02-.21-.13-.4-.34-.43-.04,0-.09,0-.13,0h-.05c-.19.02-.38.02-.57,0-.49-.08-.58.68-.1.76.11.02.37,0,.47.01-.07.3-.44.4-.7.36-.55-.08-.79-.67-.67-1.19s.47-.92,1.12-.81c.35.06.62.1.7-.26.11-.4-.33-.5-.62-.56-.69-.17-1.4.13-1.77.73-.43.6-.48,1.4-.12,2.05.32.62.98.97,1.67.9.06,0,.12,0,.17-.02.76-.23.93-.56.9-1.54"></path><path class="cls-1" d="m10.15,45.03v-.02c-.01-.6,0-1.89-.02-1.92,0-.27,0-.57.41-.53s.3.51.31.82c.03.54.02,1.09.01,1.63v.02c0,.21.15.38.35.41.16.02.36,0,.53.02s.35.1.34.33c0,.2-.16.36-.36.37-.27,0-.53.01-.79.04-.26,0-.3.05-.53-.06-.34-.16-.26-.86-.23-1.11"></path><path class="cls-1" d="m31.68,45.13v-.02c0-.6,0-1.9-.02-1.93,0-.26,0-.57.42-.53s.28.5.31.8c.03.55.01,1.09.01,1.63,0,.21.15.4.36.43.16.02.36,0,.53.02s.35.11.35.33c0,.2-.17.37-.37.37-.26,0-.53.01-.79.04-.26,0-.3.05-.54-.06-.35-.16-.27-.86-.23-1.1"></path><path class="cls-1" d="m26.82,42.97c-.02-.53-.92-.48-.88-.04.02.18.04.33.05.47v.13h.17v.11l-.15.08c.03.37.03.74.02,1.11,0,.1,0,.2-.02.3-.02-.04-.29-.49-.5-.79l-.07-.1c-.08-.11-.16-.22-.23-.34l-.13.11-.18-.18c.02-.06.07-.16.11-.23-.06-.09-.12-.17-.18-.27l-.02-.02c-.14-.25-.31-.46-.53-.65-.05-.04-.12-.06-.18-.06-.19,0-.39.22-.4.58-.02.44-.02.83,0,1.21v.54h.06l.07.16c.02-.12.03-.19.04-.27l.18.2v.23l-.1.11c-.07-.02-.17-.03-.23-.05v.61c0,.07,0,.14.03.21.05.13.16.23.3.27.1.03.2.03.3,0h.04c.12-.05.19-.16.18-.28-.03-.47-.04-.77-.04-1.14v-.56s.07.1.11.15l.03.04.04.04c.2.27.23.35.45.65.32.45.53.79,1.06,1.02l.04.02s.08.02.12.02c.05,0,.1-.02.14-.04.07-.03.13-.07.19-.12l.02-.03c.05-.05.09-.12.1-.2.09-1,.1-2.01.02-3.01m-.53.7v.08h-.04v-.07h.04Z"></path><path class="cls-1" d="m19.03,42.76h-.04c-.09.03-.17.1-.2.19v.02c-.17.38-.29.68-.42.98l-.02.08c-.1.23-.2.47-.31.74-.02.05,0,.11.04.15.02.03.02.08.03.13.05.04.11.08.16.11l-.16.17v-.28s-.07-.05-.1-.07l-.07.04-.02.06-.02-.04c-.31-.67-.58-1.36-.81-2.07-.05-.13-.18-.22-.32-.21-.04,0-.09,0-.13,0-.08,0-.16.03-.23.07-.08.04-.15.1-.19.17-.04.07-.04.15-.02.22.06.17.12.33.18.48.03.09.07.18.12.27.2.45.41.87.63,1.32l.2.39c.07.14.14.28.21.43.02.05.06.09.1.12.16.09.35.11.53.07l.09-.03c.13-.04.24-.13.3-.26v-.02l.04-.11c.26-.68.47-1.16.69-1.74v-.03s0-.05,0-.08l-.2-.04c-.02-.18.16-.34.03-.53l-.16.08c0,.06,0,.13,0,.19,0,.03-.04.05-.06.08-.01.02-.03.04-.04.06l-.02-.02.05-.04c0-.06,0-.13,0-.19,0-.03.04-.05.06-.08v-.18h.26c.06.13.12.27.17.39,0-.17.06-.34.17-.47l.02-.05v-.02c.09-.31-.28-.53-.55-.45m-1.59,2.28s-.03-.07-.05-.14h.2c-.02.05-.05.1-.1.14h-.05Zm.45.58v-.04l.11-.03v.07h-.11Zm1.06-1.55v-.02h.08v.02h-.08Z"></path><path class="cls-1" d="m36.31,42.22s-.04.02-.05.04l-.04.04c-.31.41-.62.82-.94,1.24v.02l-.04-.04c-.36-.31-.68-.66-.95-1.04-.06-.09-.16-.14-.27-.14-.12,0-.24.03-.34.09h-.02c-.08.07-.14.15-.17.25,0,.03,0,.07,0,.11,0,.04.03.08.05.11.09.12.18.23.27.34.25.31.53.59.84.84.07.06.14.12.22.17l.02.38.02.36v.82c0,.08-.04.2.02.09-.04.07-.04.16-.02.23.03.09.09.16.17.21.15.14.39.13.53-.02h0l.02-.02.02-.03c.04-.08.07-.17.08-.27.02-.16.02-.31,0-.47,0-.12-.01-.23-.01-.35,0-.29.01-.53.02-.79v-.16l.02-.03c.35-.49.7-.97,1.08-1.45.01-.02.02-.04.03-.06.17-.3-.28-.63-.55-.47m-2.25.64l-.23.12c0-.09-.02-.19-.04-.28h.26v.17Zm1.05,2.06l.09-.23.2.1c0,.13-.08.16-.3.13h0Zm.19-1.09c-.01-.09,0-.18.04-.27.06,0,.13,0,.19,0,0,.06,0,.11.02.16l-.24.1Z"></path><path class="cls-1" d="m22.51,45.55s-.08-.02-.12-.02h-.21c-.19,0-.33-.15-.34-.34v-1.48c0-.08,0-.16.03-.23.04-.08.1-.13.18-.16.02-.07.05-.14.09-.2v-.17h.15c.05.07.12.15.18.22l.1-.08s.03.02.09.04v-.02c.01-.05.02-.11.02-.16,0-.05,0-.1-.02-.16v-.02c-.04-.12-.15-.21-.28-.2h-.94s-.66,0-1.03.02c-.07,0-.14.03-.19.07l-.03.03s-.08.1-.09.16v.04s0,.06,0,.08c0,.03,0,.07,0,.1.02.08.08.15.16.18.05.02.1.03.15.03h.06l.23.03h.04c.23.03.3.2.31.4v1.46c-.01.11-.06.21-.13.29-.04.05-.1.08-.16.09-.1.01-.21.02-.31.02-.08,0-.17.03-.23.08-.03.02-.05.04-.07.07-.04.05-.06.1-.07.16v.07l.29-.12.18.21v.21c-.1-.03-.31-.12-.42-.16,0,.02.02.04.03.06.02.03.04.05.07.08.12.09.27.13.43.11l.2-.02c.21-.02.38-.02.53-.03h.57s.07-.03.09-.06c.04.03.09.05.15.06h.26s.08-.02.12-.04c.05-.03.09-.07.12-.12.12-.18.07-.42-.11-.54-.02-.01-.05-.03-.07-.04m0-2.79v.05l-.11.03v-.06l.11-.02Z"></path><path class="cls-1" d="m49.85,44.38c-.02-.29-.09-.58-.21-.84-.03-.07-.07-.13-.1-.19-.05-.08-.12-.16-.18-.23-.06-.07-.12-.13-.19-.18l-.02-.02c-.37-.28-.82-.43-1.28-.41-.32,0-.66.13-.67.47v2.03c0,.28.02.56.04.85,0,.04.01.08.03.12l.02.04c.03.08.1.14.17.17.04.02.09.04.14.04h.03c.3.03.6,0,.89-.07h.03l.12-.04h.04l.05-.02c.32-.11.6-.31.82-.57l.03-.04s.03-.03.04-.05c.06-.09.11-.19.15-.29.04-.1.06-.21.08-.31.02-.14.02-.28,0-.42m-1.76,1.08s-.05,0-.07,0c-.05-.02-.07-.06-.08-.11v-.02c-.03-.63-.03-1.26-.02-1.9,0-.03.02-.07.04-.09.03-.02.06-.04.09-.03.04,0,.08.01.12.02h.09c.28.09.52.29.65.55.09.19.14.39.15.6.04.63-.46.89-.99.96v.02Z"></path><path class="cls-1" d="m51.73,42.6h.59c.23,0,.53,0,.51.34s-.26.34-.53.37c-.2.02-.39.04-.58.08s-.43.02-.44.29.2.3.4.34l.13.02c.23.04.43.13.4.41s-.23.28-.43.31-.53-.04-.55.31.3.29.53.36c.28.1.83-.17.78.4-.05.47-.53.33-.86.33-1.3.02-1.32,0-1.29-1.28,0-.47.05-.94.08-1.42.05-.84.08-.87.91-.86h.32"></path><path class="cls-1" d="m42.9,45.44c-.22-.78-.45-1.56-.68-2.33-.05-.27-.28-.47-.56-.47-.23-.03-.45.1-.55.31l-.02.04c-.05.13-.11.27-.19.39.05.02.1.06.12.07,0,.13-.03.27.16.23.09-.06.09,0,.09.1l-.18.16c-.03-.17.14-.26.09-.26-.13.15-.16.17-.2.2-.09-.14-.3-.15-.36-.33-.02-.01-.04-.03-.06-.04l.02-.02.05.06h.18s-.05-.06-.08-.1c-.06-.03-.1-.08-.13-.14-.03.03-.06.07-.08.11l-.33-.02s.06-.07.1-.1c.08-.04.16-.08.23-.12,0-.02-.02-.04-.03-.06-.02-.04-.04-.1-.07-.16-.13-.27-.44-.4-.72-.32-.15.02-.27.1-.34.23l-.03.07c-.03.09-.05.17-.07.26,0,.04,0,.08-.02.11-.05.29-.1.57-.15.86l.26.05-.23.18.16.18-.11.21c-.06,0-.12,0-.18,0,0,.06-.01.11-.03.17.07.09.23.11.33.13-.1.09-.24.13-.38.11,0,.07-.02.14-.04.21-.02.07-.03.14-.03.22-.03.15.04.3.17.36.04.02.08.03.12.04.09.02.18,0,.26-.04.04-.02.07-.04.1-.08.08-.1.14-.22.17-.34.05-.2.1-.44.16-.68.03-.15.07-.3.1-.44.02-.09.04-.18.06-.26,0-.05.02-.1.03-.15l.02.05c.09.2.23.37.4.5.06.04.12.07.19.09.29.08.59-.11.83-.57l.09-.19v.03c.14.49.3,1.02.43,1.47.03.09.05.17.08.27.02.06.04.11.07.17.08.17.28.25.45.17,0,0,0,0,0,0h.02l.05-.02c.06-.02.12-.06.16-.11.1-.13.12-.3.06-.45m-3.49-1.02v-.07h.02v.07h-.02Zm.13.07h.14v.23l-.14-.23Z"></path><path class="cls-1" d="m46.62,45.58c-.27-.62-.53-1.25-.81-1.88l-.08-.19c-.1-.21-.2-.42-.31-.63-.15-.29-.5-.4-.79-.25,0,0,0,0,0,0h0c-.07.03-.13.08-.18.14l-.02.02-.03.04v.02l-.03.06c-.36.89-.65,1.8-.9,2.52-.02.09-.03.17-.03.23,0,.05,0,.1,0,.16,0,.07.02.15.07.2.03.03.06.06.11.08.13.07.3.05.42-.04.05-.03.09-.07.13-.11.07-.07.13-.15.18-.23.06-.13.16-.25.28-.33l.06-.03.09-.03c.06-.01.13-.02.19-.02.06,0,.13,0,.19,0,.13,0,.25.05.34.14.07.07.12.15.17.23.06.09.12.17.2.25.06.06.13.12.21.16.1.04.21.04.31,0h.03l.07-.04s.08-.07.12-.11c.08-.11.09-.25.03-.36m-1.44-2.05h.07v.02l-.07-.02Zm.13,1.19c-.21.03-.42.05-.63.04-.06,0-.11-.03-.15-.07-.01-.03-.01-.07,0-.11.04-.22.09-.43.15-.64l.02-.08.02-.04c.02-.06.06-.11.11-.14.07-.03.14-.03.21,0,.1.06.17.17.19.28.06.18.08.31.14.49.02.05.04.11.04.17,0,0,0,.07-.11.09h0Z"></path><path class="cls-1" d="m64.05,44.07c0-.09-.02-.19-.04-.28-.02-.11-.05-.22-.08-.33,0-.02-.01-.04-.02-.05l-.03-.08v-.03c-.1-.2-.23-.37-.4-.5-.32-.22-.7-.32-1.09-.3-.94,0-1.68.85-1.67,1.92,0,.87.43,1.51,1.12,1.74l.13.04c.16.04.33.06.49.06.18,0,.36-.03.53-.08.49-.16.86-.56.98-1.05.03-.12.06-.23.07-.35.01-.12.02-.25.01-.37v-.33m-1.68,1.38c-.26.01-.5-.11-.64-.33-.12-.22-.17-.47-.15-.72.02-.44.15-.9.59-1.03l.07-.02c.14-.03.29-.03.43,0,.49.1.54.58.58,1.06-.04.55-.21,1.06-.88,1.05h0Z"></path><path class="cls-1" d="m67.22,43.96c-.44,1.05-1.16,1.09-1.63.12-.13.56-.26,1.17-.38,1.64-.07.29-.2.55-.56.49-.4-.07-.34-.37-.29-.66.14-.79.28-1.56.42-2.34.05-.28.12-.56.47-.62.31-.09.64.07.77.36.33.79.44.55.67,0,.09-.25.35-.4.61-.37.29,0,.54.21.59.5.25.82.49,1.65.72,2.48.1.22,0,.49-.21.59h0s-.05.02-.07.03c-.32.11-.47-.08-.57-.36-.17-.55-.37-1.24-.55-1.88"></path><path class="cls-1" d="m60.37,45.61s-.02-.09-.03-.13v-.03c-.1-.22-.21-.43-.33-.64l-.02-.03c-.06-.1-.09-.21-.09-.33,0-.07.03-.14.06-.2l.02-.04c.19-.29.29-.64.26-.99h0c-.03-.16-.11-.3-.23-.41-.3-.19-.66-.29-1.01-.26-.33,0-.79-.15-.91.3-.18.85-.28,1.71-.3,2.57,0,.09,0,.18-.01.27v.09c0,.16.11.3.26.34.02,0,.04,0,.07,0,.18.02.35-.09.39-.26,0-.03.01-.05.02-.08.05-.26.1-.53.16-.9,0-.07.02-.13.04-.21.06.06.12.12.17.18.25.29.45.61.62.96.05.1.13.19.23.23.11.03.22.02.32-.03l.04-.02s.05-.03.08-.04c.04-.03.08-.07.11-.11.05-.07.07-.16.06-.25m-2.3-.66v.07h-.02v-.07h.02Zm.09-1.35l.03-.05.07.07s.02.03.03.05l-.1.02s-.03-.05-.04-.08h.01Zm.09,1.17l.04.05s-.05-.01-.07-.03l.02-.02Zm.08.12l-.04-.05s.05.01.07.03l-.02.02Zm.43-1.37c0-.08.03-.16.08-.22.03-.04.06-.07.1-.1.04-.02.08-.04.13-.05.08-.02.16-.02.23,0,.07.02.14.05.2.09l.03.02s.05.03.07.05c.03.02.05.04.07.08.02.04.02.09.02.13-.02.14-.11.26-.23.32-.22.06-.45,0-.62-.15-.04-.04-.07-.1-.08-.16h0Z"></path><path class="cls-1" d="m57.52,42.76l-.02-.05c-.03-.05-.07-.1-.11-.13l-.04-.03c-.05-.03-.11-.04-.17-.05l-.47-.02-.4-.02h-.1c-.26,0-.31-.05-.55.06-.3.14-.28.7-.26,1.01v.26c0,.65,0,1.8-.03,1.83,0,.19,0,.4.15.5.04.03.08.04.13.05.05,0,.09,0,.14,0h.03s.09-.02.13-.04c.07-.04.12-.11.14-.2.03-.13.04-.27.03-.41v-.35c0-.29.27-.27.48-.28h.05l.14-.03c.06-.01.11-.04.16-.08.05-.05.07-.11.08-.18v-.02s0-.04,0-.07c-.03-.17-.17-.29-.35-.29-.08-.02-.16-.02-.23-.04-.07-.01-.15-.04-.21-.07h-.01s-.08-.1-.08-.16c0-.08,0-.16,0-.23v-.07c0-.06.02-.12.05-.17.05-.11.15-.19.27-.21h.05c.14-.01.47,0,.65,0h.05c.05,0,.11-.02.16-.04.04-.01.08-.04.11-.07.02-.02.04-.05.05-.08.02-.05.03-.09.03-.14,0-.05-.01-.09-.03-.13m-1.73,2.24l-.11.03s0-.04,0-.06h.11v.03Z"></path><path class="cls-1" d="m76.15,45.73c0,.06-.02.12-.04.17-.02.03-.04.05-.06.08-.05.05-.11.09-.19.11-.03,0-.05,0-.08,0l-.51.02c-.09,0-.19,0-.28.02-.13.02-.27.02-.41,0l-.07-.07c.09-.1.16,0,.26.01v-.16s-.1-.04-.26.05l-.09-.07s-.06.05-.09.07c-.04-.06-.06-.12-.08-.19-.05-.26-.06-.53-.03-.79v-.02c-.01-.59,0-1.89-.02-1.93,0-.26,0-.57.41-.53.14,0,.26.1.29.23.01.05.02.11.03.16v.41c.03.53.02,1.08.02,1.62v.03c0,.09.03.19.08.26v.02c.04.05.1.09.16.12.03.01.07.02.1.02.16.02.36,0,.53.02.04,0,.07,0,.1.02.03,0,.05.02.08.03.09.04.15.12.16.22,0,.02,0,.04,0,.06"></path><path class="cls-1" d="m89.29,44.14s-.04-.04-.06-.05c-.11-.08-.26-.15-.39-.23-.17-.08-.24-.28-.16-.45.04-.14.19-.22.33-.18h.03c.12.03.26.1.37.12h.08c.19,0,.35-.14.39-.32l.02-.04c.02-.06.02-.13,0-.19-.03-.07-.07-.14-.13-.18-.02-.02-.05-.04-.07-.05-.24-.15-.51-.23-.79-.23-.59.05-1.04.3-1.24.87s.06.94.47,1.28l.14.1c.09.05.18.11.26.17s.16.11.23.17c.02-.03.05-.06.07-.08l.1.1-.03.17c.03.08.02.17-.01.25-.02.05-.05.1-.09.14-.1.09-.24.1-.36.04l-.11-.04-.09-.04c-.23-.12-.51-.03-.63.2h0s0,.01,0,.02c-.01.02-.02.04-.03.06-.09.15-.06.34.08.45.09.07.19.12.3.16.05.02.11.04.16.06.06.02.13.03.19.05.19.04.39.04.58,0h.06l.05-.02c.33-.08.61-.28.79-.57-.07-.07-.14-.11-.22-.04l-.04.12-.14-.16c.11-.07.22-.1.26-.23.07-.1.18-.14.3-.12,0-.02,0-.05,0-.08,0-.39-.22-.79-.66-1.14m-.43.33v.06h-.02v-.06h.02Zm.22,1.34l-.22-.19.11-.14s.04,0,.05.02l.21.3h-.15Zm.15-.99v.04s0,.06,0,.06v-.06h-.02c-.05.06-.07.06-.1.06v-.04l.11-.02.04-.05v-.04l.08-.07s-.06.08-.09.12h0Z"></path><path class="cls-1" d="m83.7,42.87c-.02-.53-.92-.48-.87-.04.09.73.11,1.46.07,2.19-.02-.04-.37-.61-.57-.89s-.43-.64-.64-.91c-.14-.25-.31-.47-.53-.65-.23-.17-.57.04-.59.53-.04,1.01.02,1.72,0,2.73-.02.66.9.63.87.18-.04-.56-.05-1.13-.04-1.69.05.06.09.12.14.19.23.31.26.39.49.7.33.47.53.81,1.09,1.04.26.04.51-.13.57-.39.09-1,.09-2,0-3"></path><path class="cls-1" d="m73.47,43.47c0-.08-.01-.16-.03-.23-.03-.26-.13-.51-.31-.7-.05-.06-.12-.1-.19-.14-.45-.26-1.22-.18-1.71-.04h-.02c-.16.03-.27.18-.25.35.02.63.05,1.26.09,1.88v.12c.1,0,.2,0,.29.02l-.26.22v.04l.18.29c-.04.06-.09.11-.15.13,0,.15.03.29.04.44,0,.09.01.19.03.28,0,.07.03.13.08.18.03.03.05.05.08.07.11.06.24.08.37.06.13-.02.24-.11.29-.23-.09-.04-.2-.05-.2-.22l.19.04c-.01-.14-.03-.31-.05-.47,0-.06-.01-.12-.02-.18,0-.1-.01-.21-.03-.31.05.02.11.04.16.05.14.01.29,0,.43-.03.13-.02.25-.06.36-.13.32-.19.53-.52.57-.89,0-.07.02-.14.02-.23,0-.02,0-.04,0-.05v-.3m-.78.62c-.04.13-.15.14-.45.19-.03,0-.07,0-.1,0-.04,0-.08-.02-.11-.05-.05-.03-.08-.08-.1-.13v-.07c-.03-.22-.04-.44-.04-.66,0-.15.1-.29.23-.36.07-.04.15-.05.23-.04.06,0,.12.03.18.06.1.09.16.22.17.36.04.23.04.47,0,.7h-.02Zm.28-.62v-.03h.13v.04h-.13Zm.23.51l-.29-.28h.23l.04.11c.17-.05.08-.22.15-.36l.12.23-.25.29Z"></path><path class="cls-1" d="m87.24,43.02c0,.33-.22.33-.46.35h-.16c-.27.03-.37.18-.38.43v.02c0,.62,0,1.95.02,1.98,0,.27,0,.6-.43.55-.49-.05-.36-.54-.38-.86-.03-.56-.02-1.12-.01-1.68h0c0-.22-.07-.39-.31-.43-.16-.02-.27-.02-.44-.04s-.36-.1-.35-.33c0-.21.17-.38.38-.38.38,0,1.14-.02,1.14-.03h.82s.56.03.57.41"></path><path class="cls-1" d="m79.81,45.64s0-.05-.02-.07v-.02c-.29-.67-.56-1.34-.87-2l-.07-.12c-.08-.18-.17-.36-.27-.54-.06-.12-.17-.21-.3-.27-.07-.03-.15-.04-.22-.04-.23,0-.44.13-.53.35-.36.89-.65,1.8-.9,2.52-.07.39-.08.58.12.68.05.02.1.04.16.04.14,0,.27-.06.37-.16l.02-.02.03-.03.04-.04c.19-.22.22-.41.43-.5l.04-.02c.09-.03.19-.05.28-.05h.07c.14-.01.28.02.4.09.02.02.05.04.07.06.12.12.19.28.36.47.05.05.11.1.17.14.02.01.04.02.07.03.08.03.16.03.23,0l.07-.03s.09-.05.12-.08l.05-.06c.07-.08.09-.19.06-.3m-1.36-.94c-.12.02-.23.03-.39.04h-.28s-.04-.01-.06-.02c-.02,0-.03-.02-.04-.04-.01-.02-.02-.05-.02-.07v-.04c.04-.21.09-.43.15-.64.02-.09.06-.17.13-.23.07-.05.16-.06.23-.02l.03.02s.05.03.07.06l.02.03c.03.06.06.12.08.18.06.19.08.31.14.49.02.05.04.11.04.17,0,0,.03.07-.09.09h0Z"></path><path class="cls-1" d="m8.91,44.74c-.15-.7-.8-1.19-1.52-1.13-.91.08-1.77.97-2.43,1.5-.16.13-.05.37.11.43.95.38,2.03.22,2.83-.42.27-.21-.11-.57-.36-.36-.52.43-1.19.61-1.85.5.85-.73,2.32-1.91,2.72-.37.07.13.23.17.36.1,0,0,0,0,0,0,.08-.05.13-.14.13-.23"></path><path class="cls-1" d="m95.2,45.37c0,.06-.03.12-.07.16-.03.04-.07.07-.12.09-.63.23-1.32.2-1.92-.08-.29-.13-.57-.31-.81-.51-.27-.21.11-.57.36-.36l.08.06c.46.4,1.07.58,1.67.51-.47-.4-1.12-.94-1.68-1.08-.33-.13-.71,0-.88.32-.02-.02-.03-.03-.05-.05l-.02.02s.03.03,0,.18c-.02.05-.04.1-.06.15-.01.03-.02.06-.03.09-.08.12-.24.17-.36.09-.08-.05-.13-.14-.13-.23.16-.7.8-1.18,1.52-1.13.41.04.8.19,1.13.44l.06.04c.12.09.23.18.34.28.11.1.26.23.38.36l.02.02.19.18c.1.09.2.18.29.26.05.04.08.11.08.17"></path></svg> 