<?xml version="1.0" encoding="UTF-8"?> <svg xmlns="http://www.w3.org/2000/svg" id="Layer_2" width="100" height="100" viewBox="0 0 100 100"><defs><style>.cls-1{fill:#fff;}</style></defs><path class="cls-1" d="m50,0C22.39,0,0,22.39,0,50s22.39,50,50,50,50-22.39,50-50S77.61,0,50,0Zm-18.52,61.48c-1.29.86-.91,2.49.48,3.72.98.86,4.88,3.34,4.88,5.92,0,2.22-.81,3.22-.81,3.22-2.81,4.26-11.56,1.61-11.56,1.61l2.04-5.65s1.37,3.94,2.78,5.21c.02.02,1.44,1.22,2.49,0,1.82-2.11-2.26-4.59-3.21-5.32-.95-.73-3.66-3.44-1.22-7.32s10.53-1.77,10.53-1.77l-1.88,5.38-2.45-4.54s-.73-1.35-2.08-.46h.01Zm42.49,22s.69-1.22,1.27-2.88c.52-1.51.69-2.77.69-2.77l3.99,3.77s.52-.25.91-.5c.39-.25.69-.55.69-.55,0,0,.02-3.16-.67-9.78,0,0-1.14-9.47-5.35-7.26-4.21,2.21-5.54,13.02-5.54,13.02h-5.46l1.55-6.96s1.23-6.22.53-6.51c-.79-.33-1.89,1.1-2.63,2.16.36,1.08.45,2.26.24,3.49-.75,4.33-5,7.82-9.52,7.82h-.09c-2.2-.03-4.14-.87-5.45-2.37-.62-.71-1.07-1.54-1.33-2.44-.67,1.6-2.42,4.8-5.6,4.8-1.49,0-3.24-.16-3.24-3.13,0-2.54,1.86-9.46,2.4-11.42h-2.37v-.94h2.95l6.09-5.96s-.6,2.71-1.32,5.96h4.56l-.33.94h-4.44c-.43,1.92-.88,3.95-1.27,5.68-1.27,5.69-.89,6.09-.5,6.21.57.17,2.11-1.81,2.91-2.9-.14-.8-.15-1.64,0-2.5.75-4.33,5-7.82,9.52-7.82h.09c2.2.02,4.14.86,5.45,2.36.43.48.76,1.02,1.02,1.59.88-1.73,2.71-4.32,5.75-4.32,4.54,0,3.49,4.79,3.49,4.79,0,0,2.16-2.99,6.12-3.88,3.39-.76,5.32-.61,6.43,4.82.9,4.38,1.03,9.51,1.03,9.51,0,0,2.72-2.25,2.72-7.9,0-4.02-1.72-5.54-1.72-5.54,0,0,.94-.05,2.74-.47l.02.02c1.8-.42,2.63-.64,2.63-.64,0,0-.09,7.42-5.24,14.35-7.65,10.28-13.72,8.15-13.72,8.15Z"></path><path class="cls-1" d="m55.7,62.77c-1.41,2.59-2.44,7.26-2.31,10.44.13,3.18,1.37,3.65,2.77,1.06,1.41-2.59,2.44-7.26,2.31-10.44-.13-3.18-1.37-3.65-2.77-1.06Z"></path></svg> 