<?xml version="1.0" encoding="UTF-8"?> <svg xmlns="http://www.w3.org/2000/svg" xmlns:xlink="http://www.w3.org/1999/xlink" id="Layer_1" width="100" height="29.97" viewBox="0 0 100 29.97"><defs><style>.cls-1{clip-path:url(#clippath);}.cls-2{fill:#fff;}</style><clipPath id="clippath"><path class="cls-2" d="m32.07,26.37c-.5.6-1.2.9-1.9.9-3,.1-7.59.3-12.59.3s-9.49-.2-12.49-.3c-.7,0-1.4-.4-1.9-.9s-.7-1.3-.7-2c.2-2.4.4-4.6.6-6.39.4-2.7,1-5.39,1.4-7.19.3-1.2,1.3-2,2.5-2.1,2.2-.1,5.79-.3,10.59-.3s8.49.3,10.69.4c1.2.1,2.2.9,2.5,2.1.4,1.8,1,4.5,1.4,7.19.3,1.8.5,3.9.6,6.39.1.7-.2,1.4-.7,1.9h0Zm2.5-8.69c-.4-2.8-1-5.49-1.5-7.39-.5-2.2-2.4-3.8-4.7-3.9-2.2-.1-5.89-.3-10.79-.3s-8.49.2-10.69.3c-2.3.1-4.1,1.7-4.7,3.9-.4,1.9-1,4.6-1.5,7.39-.3,1.9-.5,4.1-.7,6.49,0,1.5.5,2.8,1.4,3.8.9,1,2.2,1.6,3.6,1.7,3,.1,7.69.3,12.69.3s9.69-.2,12.69-.3c1.4-.1,2.7-.7,3.6-1.7.9-1,1.4-2.4,1.3-3.7-.2-2.5-.4-4.7-.7-6.59h0Z"></path></clipPath></defs><g id="Artboard2"><path class="cls-2" d="m17.68,24.38c2.2,0,3.9-1.8,3.9-3.9h-7.79c0,2.1,1.7,3.9,3.9,3.9h0Z"></path><path class="cls-2" d="m8.89,15.68c-1.3,0-2.4,1.1-2.4,2.4h4.8c0-1.4-1-2.4-2.4-2.4Z"></path><path class="cls-2" d="m26.37,15.68c-1.3,0-2.4,1.1-2.4,2.4h4.8c0-1.4-1.1-2.4-2.4-2.4Z"></path><path class="cls-2" d="m17.68,3.6c1,0,1.8-.8,1.8-1.8s-.9-1.8-1.8-1.8c-1,0-1.8.8-1.8,1.8s.8,1.8,1.8,1.8Z"></path><path class="cls-2" d="m32.07,26.37c-.5.6-1.2.9-1.9.9-3,.1-7.59.3-12.59.3s-9.49-.2-12.49-.3c-.7,0-1.4-.4-1.9-.9s-.7-1.3-.7-2c.2-2.4.4-4.6.6-6.39.4-2.7,1-5.39,1.4-7.19.3-1.2,1.3-2,2.5-2.1,2.2-.1,5.79-.3,10.59-.3s8.49.3,10.69.4c1.2.1,2.2.9,2.5,2.1.4,1.8,1,4.5,1.4,7.19.3,1.8.5,3.9.6,6.39.1.7-.2,1.4-.7,1.9h0Zm2.5-8.69c-.4-2.8-1-5.49-1.5-7.39-.5-2.2-2.4-3.8-4.7-3.9-2.2-.1-5.89-.3-10.79-.3s-8.49.2-10.69.3c-2.3.1-4.1,1.7-4.7,3.9-.4,1.9-1,4.6-1.5,7.39-.3,1.9-.5,4.1-.7,6.49,0,1.5.5,2.8,1.4,3.8.9,1,2.2,1.6,3.6,1.7,3,.1,7.69.3,12.69.3s9.69-.2,12.69-.3c1.4-.1,2.7-.7,3.6-1.7.9-1,1.4-2.4,1.3-3.7-.2-2.5-.4-4.7-.7-6.59h0Z"></path><path id="SVGID" class="cls-2" d="m32.07,26.37c-.5.6-1.2.9-1.9.9-3,.1-7.59.3-12.59.3s-9.49-.2-12.49-.3c-.7,0-1.4-.4-1.9-.9s-.7-1.3-.7-2c.2-2.4.4-4.6.6-6.39.4-2.7,1-5.39,1.4-7.19.3-1.2,1.3-2,2.5-2.1,2.2-.1,5.79-.3,10.59-.3s8.49.3,10.69.4c1.2.1,2.2.9,2.5,2.1.4,1.8,1,4.5,1.4,7.19.3,1.8.5,3.9.6,6.39.1.7-.2,1.4-.7,1.9h0Zm2.5-8.69c-.4-2.8-1-5.49-1.5-7.39-.5-2.2-2.4-3.8-4.7-3.9-2.2-.1-5.89-.3-10.79-.3s-8.49.2-10.69.3c-2.3.1-4.1,1.7-4.7,3.9-.4,1.9-1,4.6-1.5,7.39-.3,1.9-.5,4.1-.7,6.49,0,1.5.5,2.8,1.4,3.8.9,1,2.2,1.6,3.6,1.7,3,.1,7.69.3,12.69.3s9.69-.2,12.69-.3c1.4-.1,2.7-.7,3.6-1.7.9-1,1.4-2.4,1.3-3.7-.2-2.5-.4-4.7-.7-6.59h0Z"></path><path class="cls-2" d="m32.07,26.37c-.5.6-1.2.9-1.9.9-3,.1-7.59.3-12.59.3s-9.49-.2-12.49-.3c-.7,0-1.4-.4-1.9-.9s-.7-1.3-.7-2c.2-2.4.4-4.6.6-6.39.4-2.7,1-5.39,1.4-7.19.3-1.2,1.3-2,2.5-2.1,2.2-.1,5.79-.3,10.59-.3s8.49.3,10.69.4c1.2.1,2.2.9,2.5,2.1.4,1.8,1,4.5,1.4,7.19.3,1.8.5,3.9.6,6.39.1.7-.2,1.4-.7,1.9h0Zm2.5-8.69c-.4-2.8-1-5.49-1.5-7.39-.5-2.2-2.4-3.8-4.7-3.9-2.2-.1-5.89-.3-10.79-.3s-8.49.2-10.69.3c-2.3.1-4.1,1.7-4.7,3.9-.4,1.9-1,4.6-1.5,7.39-.3,1.9-.5,4.1-.7,6.49,0,1.5.5,2.8,1.4,3.8.9,1,2.2,1.6,3.6,1.7,3,.1,7.69.3,12.69.3s9.69-.2,12.69-.3c1.4-.1,2.7-.7,3.6-1.7.9-1,1.4-2.4,1.3-3.7-.2-2.5-.4-4.7-.7-6.59h0Z"></path><g class="cls-1"><rect class="cls-2" x="-6.59" y="5.49" width="50.65" height="13.29"></rect><rect class="cls-2" x="-6.59" y="18.78" width="50.65" height="13.29"></rect></g><path class="cls-2" d="m47.25,22.28c-1.3,0-2.4-1.1-2.4-2.7s1.1-2.7,2.4-2.7,2.4,1.1,2.4,2.7c0,1.6-1.1,2.7-2.4,2.7Zm.5-7.89c-1.9,0-2.9,1.4-2.9,1.4v-5.49h-2.8v14.19h2.7v-1.2s1,1.4,2.9,1.4c2.5,0,4.8-2.2,4.8-5.19s-2.2-5.09-4.7-5.09h0Z"></path><rect class="cls-2" x="54.65" y="14.59" width="2.7" height="9.89"></rect><path class="cls-2" d="m55.94,10.19c-.9,0-1.5.6-1.5,1.5s.6,1.5,1.5,1.5c1,0,1.6-.6,1.6-1.5s-.6-1.5-1.6-1.5Z"></path><path class="cls-2" d="m63.74,21.18v-4h2v-2.4h-2v-3.1h-2.4v1.8c0,.8-.5,1.3-1.1,1.3h-.9v2.4h1.7v4.1c0,2.3,1.1,3.4,3.1,3.4,1,0,1.8-.3,1.8-.3v-2.3s-.4.2-1,.2c-.7,0-1.2-.5-1.2-1.1h0Z"></path><path class="cls-2" d="m71.03,15.78v-1.2h-2.7v9.89h2.7v-4.8c0-1.7.9-2.6,2.3-2.6.6,0,.9.1.9.1v-2.7h-.4c-1.8,0-2.8,1.3-2.8,1.3h0Z"></path><rect class="cls-2" x="75.82" y="14.59" width="2.7" height="9.89"></rect><path class="cls-2" d="m77.12,10.19c-.9,0-1.5.6-1.5,1.5s.6,1.5,1.5,1.5c1,0,1.6-.6,1.6-1.5s-.6-1.5-1.6-1.5Z"></path><path class="cls-2" d="m83.92,17.48c0-.4.4-.8,1.2-.8,1,0,1.6.8,1.6.8l1.4-1.6s-1.1-1.5-3.4-1.5-3.9,1.6-3.9,3.1c0,3.3,4.6,2.5,4.6,4.1,0,.5-.4.9-1.3.9-1.3,0-2.1-1.1-2.1-1.1l-1.5,1.5s1.2,1.8,4.1,1.8c2.5,0,4-1.4,4-3.1-.2-3.4-4.7-2.6-4.7-4.1h0Z"></path><path class="cls-2" d="m92.71,18.48c.3-1,1.1-1.8,2.3-1.8s2,.8,2.2,1.8h-4.5Zm7.29.9c0-2.8-2.1-5-5-5s-5.19,2.3-5.19,5.19,2.3,5.19,5.29,5.19c2.7,0,4.3-1.7,4.3-1.7l-1.4-1.9s-.9,1.2-2.6,1.2c-1.5,0-2.4-.9-2.6-1.9h7.19c-.1,0,0-.4,0-1.1h0Z"></path></g></svg> 