<?xml version="1.0" encoding="UTF-8"?> <svg xmlns="http://www.w3.org/2000/svg" id="Layer_1" width="100" height="19.57" viewBox="0 0 100 19.57"><defs><style>.cls-1{fill:#3a357e;}</style></defs><rect class="cls-1" x="1.39" y="11.28" width="6.71" height="6.71" transform="translate(-8.96 7.64) rotate(-45)"></rect><polygon class="cls-1" points="9.62 .17 4.87 4.91 9.62 9.64 14.35 4.91 9.62 .17"></polygon><polygon class="cls-1" points="14.47 14.51 19.22 9.76 14.47 5.04 9.74 9.76 14.47 14.51"></polygon><path class="cls-1" d="m40.68,6.9c.18.32.42.56.72.75.32.18.68.26,1.11.26.34,0,.66-.08.97-.22.3-.14.56-.36.76-.62.22-.26.38-.56.5-.93.12-.36.18-.75.18-1.17s-.06-.79-.2-1.15c-.14-.36-.32-.66-.54-.93-.24-.26-.5-.46-.83-.62-.32-.14-.66-.22-1.05-.22-.42,0-.8.1-1.11.26-.3.18-.56.42-.79.75v-.91h-1.49v7.91h1.71v-3.16h.04Zm0-2.6c.12-.24.28-.42.5-.56s.44-.2.68-.2c.2,0,.38.04.54.1.16.08.3.16.42.3.12.12.2.28.28.46.06.18.1.36.1.56s-.04.38-.1.56-.14.34-.26.48-.24.24-.4.32-.32.12-.5.12c-.26,0-.5-.1-.75-.28-.24-.2-.4-.42-.52-.72v-1.15h0Z"></path><path class="cls-1" d="m47.64,4.45c.14-.26.38-.44.72-.58.34-.12.7-.2,1.13-.2v-1.55s-.08-.02-.1-.02h-.18c-.34,0-.66.12-.97.34s-.54.5-.75.89v-1.13h-1.57v5.62h1.71v-3.36h0Z"></path><path class="cls-1" d="m50.46,7.41c.16.16.38.28.62.38.24.08.5.14.79.14.38,0,.75-.08,1.09-.26s.64-.42.89-.75l.04.26c.04.22.14.4.3.52s.4.18.72.18c.1,0,.2,0,.34-.02.12-.02.26-.04.4-.08v-1.45c-.14-.02-.22-.06-.28-.12-.06-.06-.08-.18-.08-.36v-1.45c0-.76-.24-1.35-.7-1.75-.46-.4-1.13-.6-1.97-.6-.44,0-.89.06-1.27.18-.4.12-.79.3-1.15.54l.5,1.07c.3-.2.6-.36.89-.46s.56-.16.89-.16c.75,0,1.13.32,1.13.97v.26c-.16-.08-.36-.14-.58-.18s-.44-.06-.68-.06c-.36,0-.68.04-.97.14-.3.1-.54.22-.76.38s-.38.36-.5.58-.18.48-.18.76c0,.26.04.5.14.7.1.28.24.46.4.62h0Zm1.37-1.97c.2-.14.46-.22.79-.22.14,0,.3.02.48.04.18.04.34.08.48.14v.54c0,.14-.08.28-.24.4-.12.1-.26.2-.44.26-.18.06-.36.1-.54.1-.24,0-.44-.06-.6-.2s-.24-.3-.24-.5c.02-.24.12-.42.32-.56h0Z"></path><polygon class="cls-1" points="84.36 2.19 82.53 2.19 80.64 4.53 80.64 0 78.92 0 78.92 7.81 80.64 7.81 80.64 6.18 81.24 5.56 82.71 7.81 84.52 7.81 82.33 4.61 84.36 2.19"></polygon><rect class="cls-1" x="85.19" y="2.19" width="1.71" height="5.62"></rect><path class="cls-1" d="m37.44,2.98c-.26-.26-.56-.48-.95-.64-.36-.16-.79-.24-1.27-.24s-.91.08-1.29.24-.68.38-.95.64-.44.58-.58.93c-.12.36-.2.72-.2,1.11s.06.75.2,1.11c.14.36.32.66.58.93s.56.48.95.64.8.24,1.29.24.91-.08,1.29-.24.68-.36.95-.64c.26-.26.44-.58.58-.93.14-.36.2-.72.2-1.11s-.06-.76-.2-1.11c-.16-.36-.34-.66-.6-.93h0Zm-1.07,2.62c-.06.18-.16.34-.26.46-.12.12-.24.22-.38.3s-.32.1-.48.1c-.36,0-.66-.14-.91-.4s-.36-.62-.36-1.07c0-.22.04-.4.1-.6.06-.18.14-.34.26-.46.12-.12.24-.22.4-.3s.32-.1.5-.1c.36,0,.64.14.89.4s.36.62.36,1.07c-.04.24-.06.42-.12.6h0Z"></path><path class="cls-1" d="m98.55,2.19v.93c-.2-.32-.44-.56-.76-.76-.32-.18-.68-.28-1.13-.28-.38,0-.75.08-1.07.22-.32.14-.6.36-.83.62s-.4.56-.54.93c-.12.36-.2.75-.2,1.15s.06.76.18,1.11.28.64.5.91.48.46.79.6.64.22,1.03.22.72-.08,1.05-.24.56-.4.75-.7v.54c0,.26-.04.48-.12.68-.08.18-.2.34-.34.46s-.3.2-.5.26c-.18.06-.38.08-.58.08-.34,0-.68-.06-.99-.2s-.56-.32-.76-.56l-.93.93c.32.36.7.64,1.13.83.42.2.95.28,1.55.28.48,0,.93-.06,1.31-.2.4-.12.75-.3,1.03-.54s.5-.52.66-.87c.16-.34.24-.72.24-1.15V2.19h-1.45Zm-.22,3.5c-.12.22-.28.42-.48.56s-.44.22-.7.22c-.2,0-.36-.04-.52-.1-.16-.06-.3-.16-.42-.3-.12-.12-.22-.28-.28-.46s-.1-.36-.1-.56.02-.38.08-.56.14-.34.26-.48.24-.24.4-.32.32-.12.5-.12c.26,0,.52.08.75.26.24.18.4.4.52.7v1.17h0Z"></path><rect class="cls-1" x="85.2" width="1.71" height="1.55"></rect><path class="cls-1" d="m71.9,14.45c-.26-.26-.56-.48-.95-.64-.36-.16-.79-.24-1.27-.24s-.91.08-1.29.24c-.38.16-.68.36-.95.64-.26.26-.46.58-.58.95-.14.36-.2.75-.2,1.15s.06.75.2,1.09c.14.34.34.64.58.91.26.26.58.48.95.62.38.16.8.22,1.27.22.64,0,1.21-.14,1.67-.42s.8-.64,1.03-1.09l-1.45-.4c-.08.2-.24.36-.46.5-.24.12-.46.18-.72.18-.32,0-.6-.1-.85-.3s-.38-.48-.4-.87h4.15c.02-.08.02-.16.04-.26,0-.1.02-.2.02-.3,0-.38-.06-.75-.2-1.11-.14-.28-.34-.6-.58-.87h0Zm-3.46,1.53c.04-.34.16-.62.38-.85.22-.2.5-.32.83-.32s.6.1.83.3.34.48.38.85h-2.42v.02h0Z"></path><path class="cls-1" d="m93.1,2.8c-.12-.22-.3-.38-.52-.52-.22-.12-.52-.2-.89-.2-.5,0-.93.1-1.31.28s-.66.44-.89.79v-.95h-1.55v5.62h1.71v-3.22c.04-.14.12-.28.2-.4s.18-.22.3-.32c.12-.08.24-.16.36-.2s.24-.08.36-.08c.22,0,.4.08.54.26.14.16.2.44.2.8v3.16h1.71v-3.58c0-.24-.02-.48-.06-.72.02-.26-.06-.48-.18-.7h0Z"></path><path class="cls-1" d="m66.34,7.41c.18.16.38.28.62.38.24.08.5.14.79.14.38,0,.75-.08,1.11-.26.34-.18.64-.42.89-.75l.04.26c.04.22.14.4.3.52s.4.18.72.18c.1,0,.22,0,.34-.02s.26-.04.4-.08v-1.45c-.14-.02-.22-.06-.28-.12-.06-.06-.08-.18-.08-.36v-1.45c0-.76-.24-1.35-.7-1.75-.46-.4-1.13-.6-1.97-.6-.44,0-.87.06-1.27.18s-.79.3-1.15.54l.5,1.07c.3-.2.6-.36.89-.46s.56-.16.89-.16c.75,0,1.13.32,1.13.97v.26c-.16-.08-.36-.14-.58-.18s-.44-.06-.68-.06c-.36,0-.68.04-.97.14-.3.1-.54.22-.76.38s-.38.36-.5.58-.18.48-.18.76c0,.26.04.5.14.7.08.28.22.46.38.62h0Zm1.37-1.97c.2-.14.46-.22.79-.22.14,0,.3.02.48.04.18.04.34.08.48.14v.54c0,.14-.08.28-.24.4-.12.1-.26.2-.42.26-.18.06-.36.1-.54.1-.24,0-.44-.06-.6-.2s-.24-.3-.24-.5c0-.24.1-.42.3-.56h0Z"></path><path class="cls-1" d="m77.55,2.8c-.12-.22-.28-.38-.52-.52-.22-.12-.52-.2-.89-.2-.48,0-.93.1-1.31.28s-.66.44-.89.79v-.95h-1.55v5.62h1.71v-3.22c.04-.14.12-.28.2-.4s.18-.22.3-.32c.12-.08.24-.16.36-.2s.24-.08.36-.08c.22,0,.4.08.54.26.14.16.2.44.2.8v3.16h1.71v-3.58c0-.24-.02-.48-.06-.72.04-.26-.04-.48-.18-.7h0Z"></path><path class="cls-1" d="m45.63,17.98c-.14,0-.26-.04-.36-.12s-.14-.22-.14-.4v-2.07h1.17l-.04-1.33h-1.13v-1.65h-1.69v1.65h-2.3v-.6c0-.46.14-.79.64-.79.24,0,.66.14.75.16l.28-1.21c-.4-.16-1.03-.32-1.39-.32-.3,0-.56.06-.8.16s-.44.26-.62.46c-.18.2-.3.44-.4.72s-.14.68-.14,1.03v.38h-.8l.04,1.33h.76v4.07h1.69v-4.07h2.3v2.68c0,.72.34,1.49,1.59,1.49.62,0,1.43-.38,1.69-.56l-.28-1.13c-.12.06-.52.12-.8.12h0Z"></path><path class="cls-1" d="m66.12,13.61c-.34,0-.66.12-.97.34s-.54.5-.75.89v-1.15h-1.57v5.62h1.71v-3.36c.14-.26.38-.44.72-.58.34-.12.7-.2,1.13-.2v-1.55s-.06-.02-.1-.02h-.18v.02h0Z"></path><path class="cls-1" d="m61.47,17.39v-1.45c0-.76-.24-1.35-.7-1.75s-1.13-.6-1.97-.6c-.44,0-.87.06-1.27.18s-.79.3-1.15.54l.5,1.07c.3-.2.6-.36.89-.46s.56-.16.89-.16c.75,0,1.13.32,1.13.97v.26c-.16-.08-.36-.14-.58-.18s-.44-.06-.68-.06c-.36,0-.68.04-.97.14s-.54.22-.76.38-.38.36-.5.58-.18.48-.18.76c0,.26.06.5.14.7.1.22.24.4.4.56.18.16.38.28.62.38.24.08.5.14.79.14.38,0,.75-.08,1.11-.26.34-.18.64-.42.89-.75l.04.26c.04.22.14.4.3.52s.4.18.72.18c.1,0,.2,0,.32-.02s.26-.04.4-.08v-1.45c-.14-.02-.22-.06-.28-.12-.06-.02-.08-.14-.08-.3h0Zm-1.73.04c0,.14-.08.28-.24.4-.12.1-.26.2-.42.26-.18.06-.36.1-.54.1-.24,0-.44-.06-.6-.2s-.24-.3-.24-.5c0-.22.1-.42.3-.56s.46-.22.79-.22c.14,0,.32.02.48.04.18.04.34.08.48.14v.54h0Z"></path><path class="cls-1" d="m31.36,4.57c-.06-.12-.14-.24-.26-.36s-.22-.22-.32-.28c-.1-.08-.22-.16-.38-.24-.16-.08-.28-.16-.38-.2s-.22-.1-.4-.18c-.16-.08-.36-.16-.58-.26-.22-.1-.42-.22-.58-.36-.16-.12-.26-.28-.26-.48s.06-.34.16-.42c.12-.08.3-.12.52-.12.56,0,1.29.08,2.13.24h.04l.28-1.45-.02-.04c-.44-.12-.85-.2-1.21-.26-.36-.06-.7-.08-1.03-.08-.85,0-1.53.2-1.99.6-.46.4-.7.95-.7,1.61s.26,1.21.75,1.59c.2.16.5.34.95.54.42.2.72.34.89.42.08.04.16.08.28.14.1.06.18.1.24.14s.12.1.2.18.12.18.12.32c0,.32-.06.52-.2.6s-.3.14-.5.14c-.72,0-1.53-.18-2.4-.52l-.04-.02-.02.06c-.18.6-.3.99-.34,1.11-.04.1-.06.16-.08.22l-.02.04.38.18c.24.12.58.22,1.01.34.44.12.87.16,1.27.16.8,0,1.47-.22,1.97-.64.5-.44.76-1.01.76-1.71.02-.36-.06-.7-.22-1.01h0Z"></path><path class="cls-1" d="m37.44,14.57c-.26-.26-.56-.48-.95-.64-.36-.16-.79-.24-1.27-.24s-.91.08-1.29.24c-.38.16-.68.38-.95.64s-.44.58-.58.93c-.12.36-.2.72-.2,1.11s.06.75.2,1.11.32.66.58.93.56.48.95.64c.38.16.8.24,1.29.24s.91-.08,1.29-.24c.38-.16.68-.36.95-.64s.44-.58.58-.93c.14-.36.2-.72.2-1.11s-.06-.76-.2-1.11c-.16-.34-.34-.64-.6-.93h0Zm-1.07,2.64c-.06.18-.16.34-.26.46-.12.12-.24.22-.38.3s-.32.1-.48.1c-.36,0-.66-.14-.91-.4s-.36-.62-.36-1.07c0-.22.04-.4.1-.6.06-.18.14-.34.26-.46.12-.12.24-.22.4-.3s.32-.1.5-.1c.36,0,.64.14.89.4s.36.62.36,1.07c-.04.22-.06.42-.12.6h0Z"></path><path class="cls-1" d="m31.36,16.19c-.06-.12-.14-.24-.26-.36s-.22-.22-.32-.28c-.1-.08-.22-.16-.38-.24s-.28-.16-.38-.2-.22-.1-.4-.18c-.16-.08-.36-.16-.58-.26-.22-.1-.42-.22-.58-.36-.16-.12-.26-.28-.26-.48s.06-.34.16-.42c.12-.08.3-.12.52-.12.56,0,1.29.08,2.13.24h.04l.28-1.45-.04-.02c-.44-.12-.85-.2-1.21-.26-.36-.06-.7-.08-1.03-.08-.85,0-1.53.2-1.99.6-.46.4-.7.95-.7,1.61s.26,1.21.75,1.59c.2.16.5.34.95.54.42.2.72.34.89.42l.28.14c.1.06.18.1.24.14s.12.1.2.18.12.18.12.32c0,.32-.06.52-.2.6s-.3.14-.5.14c-.72,0-1.53-.18-2.4-.52l-.04-.02-.02.06c-.18.6-.3.99-.34,1.11-.04.1-.06.16-.08.22l-.02.04.38.18c.24.12.58.22,1.01.34.44.12.87.16,1.27.16.8,0,1.47-.22,1.97-.64.5-.44.76-1.01.76-1.71.04-.38-.04-.72-.2-1.03h0Z"></path><polygon class="cls-1" points="52.94 17.75 52.41 16.22 53.32 13.91 51.97 13.91 51.49 15.4 51 13.91 49.66 13.91 50.56 16.22 50.04 17.75 48.51 13.71 46.9 13.71 49.21 19.32 50.62 19.32 51.49 17.01 52.35 19.32 53.76 19.32 56.08 13.71 54.45 13.71 52.94 17.75"></polygon><path class="cls-1" d="m65.04,5.52c0-.76-.36-1.31-1.11-1.61v-.08c.26-.12.46-.3.64-.56.18-.26.26-.58.26-.97,0-.54-.12-.97-.38-1.31-.02-.02-.04-.04-.04-.06-.04-.04-.06-.08-.1-.12s-.08-.08-.12-.12c0,0-.02,0-.02-.02-.44-.36-1.09-.54-1.97-.54-.75,0-1.71.04-2.84.12l.06,4.03-.06,3.52c1.19.12,2.15.18,2.92.16.75,0,1.39-.18,1.89-.5.12-.08.22-.16.3-.26.36-.36.56-.93.56-1.67h0Zm-1.81.04c0,.38-.06.64-.18.8-.12.16-.36.24-.7.24s-.85-.02-1.29-.06l-.02-1.97h1.13c.36,0,.62.08.8.22.16.14.26.38.26.76h0Zm-.34-2.5c-.12.14-.34.2-.64.2h-1.23v-1.73l1.15-.04c.32,0,.56.06.7.2.14.14.2.36.2.68-.02.32-.08.56-.18.68h0Z"></path><polygon class="cls-1" points="14.47 14.76 12.04 12.32 9.74 14.64 14.47 19.38 19.22 14.64 16.9 12.32 14.47 14.76"></polygon><polygon class="cls-1" points="4.75 9.64 7.18 12.07 9.49 9.76 4.75 5.04 0 9.76 2.31 12.07 4.75 9.64"></polygon></svg> 