<?xml version="1.0" encoding="UTF-8"?><svg id="Layer_1" xmlns="http://www.w3.org/2000/svg" width="600" height="400" viewBox="0 0 600 400"><defs><style>.cls-1{fill:#3a357e;}</style></defs><path class="cls-1" d="m492.56,168.51c5.53,0,10-4.48,10-10s-4.48-10-10-10-10,4.48-10,10,4.48,10,10,10Z"/><path class="cls-1" d="m211.81,230.53h-13.76l.15-7c-1.18,3.15-8.82,8.54-17.72,8.54-15.04,0-27.19-13.14-27.19-29.32-.43-16.17,12.34-29.61,28.5-30.04,16.17-.43,29.61,12.34,30.04,28.5.01.51.01,1.02,0,1.53v27.78h-.01Zm-29.16-43.83c-8,0-14.72,7-14.72,16.26-.52,8.09,5.62,15.07,13.71,15.58,8.09.51,15.07-5.62,15.58-13.71.04-.62.04-1.25,0-1.87,0-8.88-6.5-16.26-14.57-16.26h0Z"/><path class="cls-1" d="m474.57,230.47h-14.56v-33.12c0-3.19-1.12-11.04-11.32-10.66-5.87.18-10.52,5-10.49,10.88v32.9h-14.57v-33.12c0-3.15-.98-10.74-10.64-10.74-5.73-.32-10.64,4.08-10.96,9.81-.01.3-.02.62,0,.92v33.12h-14.57v-32.16c0-14.32,10-25.12,25.68-25.12,6.95-.23,13.61,2.71,18.12,8,4.58-5.19,11.2-8.1,18.12-8,16,0,25.3,10.36,25.3,25.12v32.16h-.1Z"/><path class="cls-1" d="m536.14,173.27c16,0,25.27,10.38,25.27,25.14v32.14h-14.56v-32.45c0-3.19-1.14-11.32-11.34-11.32-5.88,0-10.49,5.74-10.49,11.48v32.23h-14.56v-32.16c0-14.23,10.12-25.06,25.68-25.06h.01Z"/><path class="cls-1" d="m236.04,251.49v-26.54c4.46,4.59,10.59,7.15,16.98,7.12,15.02,0,27.02-13.15,27.02-29.42s-13.1-29.26-29.26-29.26-29.26,13.1-29.26,29.26v48.84h14.51,0Zm14.79-32.82c-8,0-14.72-7.08-14.72-16s6.64-16,14.72-16,14.57,6.86,14.57,16-6.5,16-14.57,16Z"/><path class="cls-1" d="m145.73,230.47h-14.57v-32.39c0-3.28-1.06-11.4-10.49-11.4-6.07-.06-11.05,4.82-11.1,10.89v32.9h-14.57v-77.41h14.57v27.02c3.3-4.28,8.42-6.75,13.82-6.72,14,0,22.43,10,22.43,24.75v32.35h-.09Z"/><path class="cls-1" d="m600.01,231.6c-18.36,1.7-29.45-8.22-29.45-23.57v-47.66h14.57v14.54h14.88v13.43h-14.88v19.83c0,7.82,6,10.8,14.88,10.36v13.06h0Z"/><path class="cls-1" d="m344.04,208.08c.23-1.81.35-3.62.38-5.44,0-18.28-13.43-29.39-27.99-29.39-16.23.17-29.27,13.41-29.17,29.63,0,16.26,13.36,29.23,31.26,29.23,8.38,0,17.82-2.91,22.74-8.14l-7.1-10.36c-3.02,2.76-6.72,5.14-14.66,5.14-12.76,0-16.38-7.82-16.68-10.66l41.23-.02h0Zm-41.38-10.6c1.14-6.4,6.8-10.99,13.3-10.8,9.19,0,13.52,6.18,14,10.96l-27.3-.16Z"/><path class="cls-1" d="m499.87,230.47h-14.57v-55.58h14.57v55.58Z"/><path class="cls-1" d="m382.45,186.7c-9.28-1.64-15.47,3.28-15.47,11.26v32.51h-14.56v-32.51c0-16,11.16-27.07,30-24.84l.04,13.58h0Z"/><path class="cls-1" d="m62.06,233.9c16,.6,24.62-8.88,24.62-21.84s-13.74-17.02-20.45-19.26c-8.16-2.72-14.28-4.24-14.28-8.72,0-3.64,3.32-6,8.62-6,6.42.4,12.62,2.47,18,6l.46.3,6.42-11.34-.38-.22c-7.19-4.65-15.53-7.2-24.1-7.38-13.89,0-23.63,8.34-23.63,20.36,0,13.58,14,17.82,20.62,19.38,8.13,1.88,14.11,3.81,14.11,8.9,0,4-3.84,7.45-10,6.62-9.66-1.48-26.73-12.3-39.03-12.3-10.8,0-18.66,4.7-23.04,13.42l12,6c1.55-3.85,5.37-6.3,9.52-6.1,12.84-.04,25.15,11.57,40.55,12.18h-.02Z"/></svg>