<?xml version="1.0" encoding="UTF-8"?> <svg xmlns="http://www.w3.org/2000/svg" id="Layer_2" width="100" height="43.81" viewBox="0 0 100 43.81"><defs><style>.cls-1{fill:#fff;}</style></defs><path class="cls-1" d="m21.9,0C9.81,0,0,9.81,0,21.9s9.81,21.9,21.9,21.9,21.9-9.81,21.9-21.9S34,0,21.9,0Zm-8.11,26.93c-.57.38-.4,1.09.21,1.63.43.38,2.14,1.46,2.14,2.59,0,.97-.35,1.41-.35,1.41-1.23,1.87-5.06.71-5.06.71l.89-2.48s.6,1.73,1.22,2.28c0,0,.63.53,1.09,0,.8-.92-.99-2.01-1.41-2.33-.42-.32-1.6-1.51-.53-3.21s4.61-.78,4.61-.78l-.82,2.36-1.07-1.99s-.32-.59-.91-.2h0Zm24.12,6.15s1.19-.99,1.19-3.46c0-1.76-.75-2.43-.75-2.43,0,0,.41-.02,1.2-.21h0c.79-.18,1.15-.27,1.15-.27,0,0-.04,3.25-2.3,6.29-3.35,4.5-6.01,3.57-6.01,3.57,0,0,.3-.53.56-1.26.23-.66.3-1.21.3-1.21l1.75,1.65s.23-.11.4-.22c.17-.11.3-.24.3-.24,0,0,0-1.38-.29-4.28,0,0-.5-4.15-2.34-3.18-1.84.97-2.43,5.7-2.43,5.7h-2.39l.68-3.05s.54-2.72.23-2.85c-.35-.14-.83.48-1.15.95.16.47.2.99.11,1.53-.33,1.9-2.19,3.43-4.17,3.43h-.04c-.96-.01-1.81-.38-2.39-1.04-.27-.31-.47-.67-.58-1.07-.29.7-1.06,2.1-2.45,2.1-.65,0-1.42-.07-1.42-1.37,0-1.11.81-4.14,1.05-5h-1.04v-.41h1.29l2.67-2.61s-.26,1.19-.58,2.61h2l-.14.41h-1.94c-.19.84-.39,1.73-.56,2.49-.56,2.49-.39,2.67-.22,2.72.25.07.92-.79,1.27-1.27-.06-.35-.07-.72,0-1.1.33-1.9,2.19-3.43,4.17-3.43h.04c.96,0,1.81.38,2.39,1.03.19.21.33.45.45.7.39-.76,1.19-1.89,2.52-1.89,1.99,0,1.53,2.1,1.53,2.1,0,0,.95-1.31,2.68-1.7,1.49-.33,2.33-.27,2.82,2.11.39,1.92.45,4.17.45,4.17Zm-12.3-5.12c.06,1.39-.39,3.44-1.01,4.57-.61,1.13-1.16.93-1.21-.46-.06-1.39.39-3.44,1.01-4.57.61-1.13,1.16-.93,1.21.46Zm29-1.05c-.42.03-.72.48-1.06,1.39-.46,1.24-1.19,3.33-1.73,5.1l-.54.09c-.39-1.28-.85-2.77-1.22-3.91-.43,1.03-1.04,2.65-1.43,3.82l-.57.09c-.51-1.66-1.03-3.34-1.6-5.04-.37-1.13-.61-1.51-1.04-1.54v-.33c.3.02.91.03,1.39.03.51,0,1.13-.01,1.46-.03v.33c-.51.05-.54.46-.33,1.3.27,1,.6,2.1.91,3.09.27-.67.61-1.54.95-2.46-.4-1.43-.6-1.88-.97-1.92v-.33c.31.02.73.03,1.22.03s1.12-.01,1.39-.03v.33c-.52.03-.57.46-.36,1.24.27.94.6,2.04.92,3.03.31-.97.6-1.95.82-2.88.19-.89.1-1.33-.57-1.39v-.33c.34.02.79.03,1.21.03.37,0,.78-.01,1.13-.03v.33Zm2.66-.46c-1.39,0-2.76,1.12-2.76,3.5s1.37,3.56,2.76,3.56,2.77-1.16,2.77-3.56-1.39-3.5-2.77-3.5Zm0,6.64c-.79,0-1.1-1.04-1.1-3.13s.31-3.09,1.1-3.09,1.1,1.03,1.1,3.09-.31,3.13-1.1,3.13Zm8.08-5.25l-.27.27c-.34-.21-.67-.34-1.06-.34-.45.03-.8.31-1.07.75v2.79c0,1.27,0,1.67.91,1.75v.34c-.64-.03-1.15-.04-1.73-.04s-.92.01-1.52.04v-.34c.58-.07.84-.37.84-1.46v-2.09c0-.87-.06-1.48-.18-1.73l-.61-.24-.05-.27,2.19-.81.19.18c-.05.37-.09,1.07-.09,1.6.13-.31.4-.79.67-1.12.3-.39.51-.55.76-.63.84-.05,1.07.75,1.01,1.36Zm3.28,5.21v.34c-.61-.03-1.03-.04-1.55-.04s-1.15.01-1.68.04v-.34c.67-.06.88-.27.88-1.49v-6.13c0-.86-.06-1.45-.18-1.68l-.7-.25-.03-.25,2.28-.82.21.21c-.06.36-.06,1.15-.06,2.13v6.8c0,1.22.13,1.4.84,1.49Zm6.47-.45c-.48-.03-.6-.36-.6-1.33v-6.62c0-.6,0-1.61.06-2.03l-.21-.21-2.25.82.04.27.67.24c.13.25.19.92.19,1.67v1.31c-.18-.1-.46-.21-.82-.21-1.83,0-2.83,1.6-2.82,3.86.03,2.06.95,3.13,1.98,3.13.21,0,.4-.03.61-.09.36-.27.76-.6,1.07-.91.03.25.1.48.22.64.13.19.31.31.54.37l1.7-.64-.05-.27-.36-.02Zm-2.09-.42c-.25.16-.54.33-.82.43-.95-.04-1.24-1.1-1.27-2.39-.06-1.76.28-3.3,1.25-3.3.57,0,.84.45.84,1.28v3.97Zm10.55-5.56c.37,0,.78-.01,1.13-.03v.33c-.42.03-.72.48-1.06,1.39-.46,1.24-1.19,3.33-1.73,5.1l-.54.09c-.39-1.28-.85-2.77-1.22-3.91-.43,1.03-1.04,2.65-1.43,3.82l-.57.09c-.51-1.66-1.03-3.34-1.6-5.04-.37-1.13-.61-1.51-1.04-1.54v-.33c.3.02.91.03,1.39.03.51,0,1.13-.01,1.46-.03v.33c-.51.05-.54.46-.33,1.3.27,1,.6,2.1.91,3.09.27-.67.61-1.54.95-2.46-.4-1.43-.6-1.88-.97-1.92v-.33c.31.02.73.03,1.22.03s1.12-.01,1.39-.03v.33c-.52.03-.57.46-.36,1.24.27.94.6,2.04.92,3.03.31-.97.6-1.95.82-2.88.19-.89.1-1.33-.57-1.39v-.33c.34.02.79.03,1.21.03Zm1.78-2.22c0-.54.42-.97.97-.97s.97.43.97.97-.42.95-.97.95-.97-.42-.97-.95Zm2.74,8.65v.34c-.46-.03-1.06-.04-1.58-.04s-1.13.01-1.67.04v-.34c.6-.06.89-.19.89-1.42v-2.16c0-.87-.07-1.45-.19-1.7l-.67-.24-.03-.27,2.27-.82.19.21c-.04.36-.06,1.1-.06,1.67v3.3c0,1.22.24,1.36.85,1.43Zm6.41-.45c-.48-.03-.6-.36-.6-1.33v-6.62c0-.6,0-1.61.06-2.03l-.21-.21-2.25.82.05.27.67.24c.13.25.19.92.19,1.67v1.31c-.18-.1-.46-.21-.82-.21-1.83,0-2.83,1.6-2.82,3.86.03,2.06.95,3.13,1.98,3.13.21,0,.4-.03.61-.09.36-.27.76-.6,1.07-.91.03.25.1.48.22.64.13.19.31.31.54.37l1.7-.64-.04-.27-.36-.02Zm-2.09-.42c-.25.16-.54.33-.82.43-.95-.04-1.24-1.1-1.27-2.39-.06-1.76.28-3.3,1.25-3.3.57,0,.84.45.84,1.28v3.97Zm7.49.05c-.46.22-.88.28-1.25.27-1.04-.02-1.77-.89-1.79-3.01l2.89.02.19-.25c.03-1.49-.64-2.79-1.95-2.79s-2.61,1.21-2.61,3.59c-.02,2.51,1.15,3.56,2.82,3.49.61-.27,1.19-.6,1.8-1l-.1-.31Zm-2.12-5.34c.43,0,.73.64.72,2.18l-1.64.07c0-1.36.33-2.25.92-2.25Z"></path></svg> 