<?xml version="1.0" standalone="no"?>
<!DOCTYPE svg PUBLIC "-//W3C//DTD SVG 1.1//EN" "http://www.w3.org/Graphics/SVG/1.1/DTD/svg11.dtd" >
<svg xmlns="http://www.w3.org/2000/svg">
<metadata></metadata>
<defs>
<font id="darwinaltextralight" horiz-adv-x="532" >
<font-face units-per-em="1000" ascent="750" descent="-250" />
<missing-glyph horiz-adv-x="231" />
<glyph horiz-adv-x="0" />
<glyph horiz-adv-x="333" />
<glyph unicode=" "  horiz-adv-x="231" />
<glyph unicode="&#x09;" horiz-adv-x="231" />
<glyph unicode="&#xa0;" horiz-adv-x="231" />
<glyph unicode="!" horiz-adv-x="216" d="M86 159l-6 373v168h58v-168l-6 -373h-46zM108 -10q-32 0 -32 43q0 40 32 40q35 0 35 -40q0 -43 -35 -43z" />
<glyph unicode="&#x22;" horiz-adv-x="244" d="M46 564l-9 186h64l-9 -186h-46zM154 564l-9 186h64l-9 -186h-46z" />
<glyph unicode="#" horiz-adv-x="628" d="M115 0l42 209h-131l11 50h130l37 182h-132l12 51h130l43 208h51l-42 -208h147l42 208h53l-44 -208h139l-12 -51h-136l-38 -182h138l-11 -50h-137l-43 -209h-51l42 209h-148l-41 -209h-51zM219 259h148l35 182h-147z" />
<glyph unicode="$" horiz-adv-x="535" d="M301 652v-264q85 -19 136.5 -63.5t51.5 -137.5q0 -80 -49.5 -134t-138.5 -65v-88h-47v86q-62 1 -116 20t-87 46l30 51q76 -54 173 -57v290q-186 35 -186 197q0 78 48.5 127.5t137.5 53.5v86h47v-87q85 -9 164 -68l-33 -47q-64 46 -131 54zM254 398v256q-61 -4 -92.5 -36 t-31.5 -82q0 -64 30 -94t94 -44zM301 326v-277q60 10 93 46t33 88q0 112 -126 143z" />
<glyph unicode="%" horiz-adv-x="822" d="M56 426v143q0 66 38.5 104.5t102.5 38.5t102 -38.5t38 -104.5v-143q0 -65 -38.5 -103.5t-101.5 -38.5q-64 0 -102.5 38.5t-38.5 103.5zM104 560v-126q0 -51 25 -78.5t68 -27.5q42 0 67.5 27.5t25.5 78.5v126q0 51 -25.5 79.5t-67.5 28.5q-43 0 -68 -28t-25 -80zM488 133 v143q0 66 38.5 104.5t101.5 38.5t101 -38.5t38 -104.5v-143q0 -66 -38 -104.5t-101 -38.5t-101.5 38.5t-38.5 104.5zM534 267v-126q0 -51 25 -78.5t69 -27.5q43 0 68 27.5t25 78.5v126q0 52 -25 79.5t-68 27.5q-44 0 -69 -27.5t-25 -79.5zM126 0l531 733l40 -33l-532 -730z " />
<glyph unicode="&#x26;" horiz-adv-x="670" d="M268 -14q-205 0 -205 161q0 117 150 225q-30 32 -47 54t-34 56.5t-17 67.5q0 69 44.5 116.5t124.5 47.5q87 0 128 -42t41 -110q0 -25 -7.5 -48t-16 -37.5t-32 -36.5t-34.5 -30.5t-45 -33.5q-11 -8 -16 -12l172 -194q47 70 49 146l60 -5q-3 -42 -21 -94.5t-46 -90.5 l89 -97l-46 -42l-80 90q-40 -41 -95.5 -66t-115.5 -25zM252 329q-127 -93 -127 -180q0 -107 142 -107q49 0 95 21.5t77 56.5zM263 407q12 10 37.5 28.5t38 29t28 26.5t22.5 33t7 37q0 97 -112 97q-53 0 -81.5 -27t-28.5 -76q0 -22 9.5 -44t16 -31.5t33 -38.5t30.5 -34z" />
<glyph unicode="'" horiz-adv-x="136" d="M46 564l-9 186h64l-9 -186h-46z" />
<glyph unicode="(" horiz-adv-x="280" d="M65 125v390q0 96 49 163.5t128 79.5l12 -54q-58 -8 -95.5 -65t-37.5 -138v-362q0 -81 37.5 -138t95.5 -65l-12 -54q-79 12 -128 79t-49 164z" />
<glyph unicode=")" horiz-adv-x="280" d="M39 758q79 -12 128 -79.5t49 -163.5v-390q0 -97 -49 -164t-128 -79l-13 54q58 8 96 65t38 138v362q0 81 -38 138t-96 65z" />
<glyph unicode="*" horiz-adv-x="431" d="M92 407l85 119l-134 41l18 58l130 -47l-3 145h59l-3 -145l128 47l18 -58l-132 -42l84 -118l-47 -35l-78 122l-79 -122z" />
<glyph unicode="+" horiz-adv-x="565" d="M255 43v230h-199v60h199v230h57v-230h198v-60h-198v-230h-57z" />
<glyph unicode="," horiz-adv-x="171" d="M46 -95l-20 34q40 31 41 55q-29 13 -29 43q0 24 14 36.5t33 12.5q20 0 34 -12.5t14 -38.5q0 -41 -21.5 -76t-65.5 -54z" />
<glyph unicode="-" horiz-adv-x="369" d="M56 274v59h257v-59h-257z" />
<glyph unicode="." horiz-adv-x="171" d="M133 39q0 -22 -13 -35t-34 -13q-22 0 -35 13t-13 35q0 21 13 34t35 13q21 0 34 -13t13 -34z" />
<glyph unicode="/" horiz-adv-x="445" d="M8 -110l385 879l46 -19l-386 -878z" />
<glyph unicode="0" horiz-adv-x="542" d="M61 203v294q0 100 58 158.5t153 58.5t153.5 -58.5t58.5 -158.5v-294q0 -100 -58.5 -158.5t-153.5 -58.5t-153 58.5t-58 158.5zM122 483v-266q0 -82 40 -125.5t110 -43.5t110 43.5t40 125.5v266q0 82 -40 125.5t-110 43.5t-110 -43.5t-40 -125.5z" />
<glyph unicode="1" horiz-adv-x="278" d="M194 60h94v-60h-259v60h103v559l-96 -66l-37 49l142 98h53v-640z" />
<glyph unicode="2" horiz-adv-x="538" d="M79 643q91 71 197 71q99 0 148.5 -51.5t49.5 -137.5q0 -94 -69.5 -189t-246.5 -275h331v-61h-433v46q219 229 286 316t67 160q0 58 -32.5 94.5t-100.5 36.5q-54 0 -90.5 -14t-74.5 -42z" />
<glyph unicode="3" horiz-adv-x="529" d="M258 -14q-112 0 -207 71l31 49q87 -60 176 -60q144 0 144 149q0 79 -34.5 114t-90.5 35h-73v58h73q54 0 83 35.5t29 91.5q-1 56 -32 90.5t-97 34.5q-53 0 -89.5 -14.5t-75.5 -42.5l-32 46q91 71 197 71q95 0 142.5 -50t47.5 -133q0 -93 -71 -155q37 -14 64 -63t27 -101 v-24q0 -93 -53 -147.5t-159 -54.5z" />
<glyph unicode="4" horiz-adv-x="546" d="M37 142v47l253 511h68l-239 -497h264v292h61v-292h77v-61h-77v-142h-61v142h-346z" />
<glyph unicode="5" horiz-adv-x="531" d="M73 348l43 352h322v-61h-268l-28 -251q59 36 127 36q98 0 151 -50t53 -151v-38q0 -90 -56.5 -144.5t-157.5 -54.5q-112 0 -207 71l31 49q87 -60 176 -60q71 0 109 38t38 103v24q0 82 -35 116.5t-101 34.5q-83 0 -149 -46z" />
<glyph unicode="6" horiz-adv-x="552" d="M61 497q0 99 58 158t156 59q107 0 198 -71l-32 -46q-38 28 -74.5 42t-90.5 14q-73 0 -113.5 -44t-40.5 -126v-126q70 57 171 57q200 0 200 -191v-33q0 -98 -59 -151t-156 -53q-99 0 -158 49t-59 146v316zM122 292v-91q0 -153 156 -153q72 0 112.5 39.5t40.5 121.5 q0 79 -33 111t-104 32q-48 0 -95 -16.5t-77 -43.5z" />
<glyph unicode="7" horiz-adv-x="442" d="M92 0l260 639h-332v61h407v-47l-266 -653h-69z" />
<glyph unicode="8" horiz-adv-x="563" d="M273 400h13q62 0 101.5 37.5t39.5 91.5q0 55 -36 90.5t-110 35.5q-73 0 -109 -35.5t-36 -90.5q0 -54 38 -91.5t99 -37.5zM58 188v23q0 50 29.5 96t71.5 68q-40 27 -62.5 69t-22.5 86q0 82 52 133t155 51t155.5 -51t52.5 -133q0 -44 -22.5 -85t-62.5 -68 q42 -18 71.5 -66.5t29.5 -99.5v-23q0 -88 -56 -145t-168 -57q-111 0 -167 57t-56 145zM125 198v-8q0 -64 37 -103t119 -39q83 0 120 39t37 103v8q0 65 -39 106.5t-102 41.5h-32q-62 0 -101 -41.5t-39 -106.5z" />
<glyph unicode="9" horiz-adv-x="549" d="M428 396v105q0 151 -154 151q-152 0 -152 -154q0 -76 33.5 -108t104.5 -32q104 0 168 38zM106 99q72 -52 167 -52q72 0 113.5 44.5t41.5 125.5v116q-59 -37 -168 -37q-199 0 -199 190v29q0 97 58 148t155 51q99 0 157 -47.5t58 -144.5v-319q0 -99 -59.5 -158t-155.5 -59 q-115 0 -200 67z" />
<glyph unicode=":" horiz-adv-x="171" d="M133 522q0 -22 -13 -35t-34 -13q-22 0 -35 13t-13 35q0 21 13 34t35 13q21 0 34 -13t13 -34zM133 39q0 -22 -13 -35t-34 -13q-22 0 -35 13t-13 35q0 21 13 34t35 13q21 0 34 -13t13 -34z" />
<glyph unicode=";" horiz-adv-x="171" d="M133 522q0 -22 -13 -35t-34 -13q-22 0 -35 13t-13 35q0 21 13 34t35 13q21 0 34 -13t13 -34zM46 -95l-20 34q40 31 41 55q-29 13 -29 43q0 24 14 36.5t33 12.5q20 0 34 -12.5t14 -38.5q0 -41 -21.5 -76t-65.5 -54z" />
<glyph unicode="&#x3c;" horiz-adv-x="337" d="M110 280l172 -198l-40 -36l-185 204v60l185 205l40 -37z" />
<glyph unicode="=" horiz-adv-x="555" d="M56 141v60h444v-60h-444zM56 380v60h444v-60h-444z" />
<glyph unicode="&#x3e;" horiz-adv-x="337" d="M97 46l-41 36l173 198l-173 198l41 37l186 -205v-60z" />
<glyph unicode="?" horiz-adv-x="457" d="M336 548q0 109 -119 109q-94 0 -153 -48l-30 41q74 64 183 64q90 0 137 -46t47 -118v-16q0 -60 -22 -98.5t-68 -85.5q-51 -52 -70 -82.5t-18 -75.5v-37h-59v35q0 29 4 52t8.5 37.5t17 32t19.5 26t27 28.5t30 31q35 39 50.5 70t15.5 73v8zM243 39q0 -22 -13 -35t-34 -13 q-22 0 -35 13t-13 35q0 21 13 34t35 13q21 0 34 -13t13 -34z" />
<glyph unicode="@" horiz-adv-x="710" d="M272 404l-13 -106q-15 -103 67 -103q28 0 60 21.5t48 46.5l31 243h-98q-43 0 -65 -25.5t-30 -76.5zM58 199l40 303q13 97 101.5 155t204.5 58t189 -57.5t61 -155.5l-31 -226q-16 -120 -109 -120q-65 0 -78 65q-21 -25 -56 -45t-62 -20q-58 0 -83.5 34.5t-17.5 98.5 l16 123q18 131 138 131h141l-36 -270q-5 -40 4.5 -58t37.5 -18q55 0 65 75l29 221q11 85 -53 132t-161 47q-98 0 -174 -46.5t-87 -131.5l-38 -286q-11 -85 53 -132t161 -47q65 0 134 26l11 -39q-71 -30 -151 -30q-116 0 -189 58t-60 155z" />
<glyph unicode="A" horiz-adv-x="559" d="M483 0l-62 180h-275l-71 -180h-68l258 629l-23 71h61l248 -700h-68zM294 552l-125 -315h233z" />
<glyph unicode="B" horiz-adv-x="551" d="M66 31v669h228q98 0 147 -38t49 -123v-40q0 -34 -20 -70t-56 -56q39 -17 65.5 -57.5t26.5 -87.5v-62q0 -74 -56 -120t-156 -46q-113 0 -228 31zM127 397h182q53 0 87 30t33 86v10q-2 69 -32 92.5t-101 23.5h-169v-242zM127 81q94 -22 165 -21q73 1 113 33.5t40 85.5v35 q0 56 -34.5 89.5t-92.5 33.5h-191v-256z" />
<glyph unicode="C" horiz-adv-x="506" d="M466 53q-43 -34 -83 -50.5t-103 -16.5q-97 0 -158.5 59t-61.5 157v296q0 98 61.5 157t158.5 59q63 0 103 -16.5t83 -50.5l-34 -45q-37 28 -69 40.5t-83 12.5q-71 0 -114.5 -45.5t-43.5 -125.5v-268q0 -80 43.5 -125.5t114.5 -45.5q51 0 83 12.5t69 40.5z" />
<glyph unicode="D" horiz-adv-x="566" d="M66 33v667h234q95 0 150.5 -58.5t55.5 -157.5v-268q0 -100 -57.5 -158t-162.5 -58q-109 0 -220 33zM127 80q76 -20 159 -20q159 0 159 169v242q0 82 -37.5 125t-107.5 43h-173v-559z" />
<glyph unicode="E" horiz-adv-x="481" d="M66 0v700h376v-61h-315v-251h263v-60h-263v-268h323v-60h-384z" />
<glyph unicode="F" horiz-adv-x="467" d="M66 0v700h376v-61h-315v-274h264v-60h-264v-305h-61z" />
<glyph unicode="G" horiz-adv-x="554" d="M60 498q0 98 62 157t160 59q68 0 112 -17t86 -50l-34 -45q-36 27 -72 40t-92 13q-72 0 -116 -45.5t-44 -125.5v-267q0 -81 39.5 -126.5t107.5 -45.5q108 0 168 87v178h-148v56h209v-376h-47l-14 71q-81 -75 -178 -75q-91 0 -145 59.5t-54 157.5v295z" />
<glyph unicode="H" horiz-adv-x="570" d="M66 0v700h61v-306h318v306h61v-700h-61v334h-318v-334h-61z" />
<glyph unicode="I" horiz-adv-x="191" d="M66 0v700h61v-700h-61z" />
<glyph unicode="J" horiz-adv-x="278" d="M144 -150l-37 42q46 44 46 134v674h61v-688q0 -102 -70 -162z" />
<glyph unicode="K" horiz-adv-x="498" d="M369 84l-151 245l-91 -123v-206h-61v700h61v-394l291 394h75l-237 -321l182 -290q23 -37 46.5 -45.5t42.5 1.5v-49q-55 -11 -86 5.5t-72 82.5z" />
<glyph unicode="L" horiz-adv-x="460" d="M66 0v700h61v-640h328v-60h-389z" />
<glyph unicode="M" horiz-adv-x="682" d="M66 0v700h54l221 -456l221 456h56v-700h-61l2 562l-198 -405h-42l-194 399l2 -556h-61z" />
<glyph unicode="N" horiz-adv-x="587" d="M66 0v700h63l334 -584l-1 584h61v-700h-64l-335 584l3 -584h-61z" />
<glyph unicode="O" horiz-adv-x="579" d="M61 202v296q0 98 65.5 157t164.5 59q98 0 163.5 -59t65.5 -157v-296q0 -98 -65.5 -157t-163.5 -59q-99 0 -164.5 59t-65.5 157zM122 484v-268q0 -80 48 -125t121 -45t120.5 45t47.5 125v268q0 80 -47.5 125t-120.5 45t-121 -45t-48 -125z" />
<glyph unicode="P" horiz-adv-x="550" d="M66 0v700h234q95 0 150.5 -58.5t55.5 -157.5v-49q0 -99 -55.5 -157.5t-150.5 -58.5q-100 0 -173 24v-243h-61zM127 299q65 -20 173 -20q70 0 107.5 43.5t37.5 125.5v23q0 82 -37.5 125t-107.5 43h-173v-340z" />
<glyph unicode="Q" horiz-adv-x="579" d="M289 -46q34 0 73.5 -23t59.5 -23q41 0 80 27l25 -38q-16 -20 -44.5 -33t-60.5 -13q-34 0 -74 22.5t-64 22.5q-40 0 -75 -28l-26 40q13 18 43 32t63 14zM61 202v296q0 98 65.5 157t164.5 59q98 0 163.5 -59t65.5 -157v-296q0 -98 -65.5 -157t-163.5 -59q-99 0 -164.5 59 t-65.5 157zM122 484v-268q0 -80 48 -125t121 -45t120.5 45t47.5 125v268q0 80 -47.5 125t-120.5 45t-121 -45t-48 -125z" />
<glyph unicode="R" horiz-adv-x="550" d="M392 84l-109 209q-94 0 -156 18v-311h-61v700h234q93 0 149.5 -52.5t56.5 -132.5v-39q0 -66 -42.5 -115.5t-114.5 -63.5l112 -208q20 -38 45 -46t44 2v-49q-58 -11 -90.5 4.5t-67.5 83.5zM127 639v-271q75 -18 173 -18q68 0 106.5 39.5t38.5 100.5v12q0 63 -38 100 t-107 37h-173z" />
<glyph unicode="S" horiz-adv-x="527" d="M81 103q79 -57 179 -57q78 0 122.5 38t44.5 99q0 68 -41 102.5t-118 47.5q-94 16 -147 61.5t-53 138.5q0 82 53 131.5t149 49.5q105 0 195 -69l-33 -47q-77 56 -162 56q-69 0 -104.5 -32.5t-35.5 -85.5q0 -69 35 -99t112 -44q44 -8 77 -20t66 -34.5t51 -60.5t18 -91 q0 -89 -60.5 -145t-168.5 -56q-64 0 -120 19.5t-89 46.5z" />
<glyph unicode="T" horiz-adv-x="466" d="M203 0v640h-196v60h453v-60h-196v-640h-61z" />
<glyph unicode="U" horiz-adv-x="565" d="M565 -4q-59 -12 -88 3.5t-36 69.5q-75 -83 -179 -83q-199 0 -199 198v516h62v-502q0 -81 33.5 -117.5t105.5 -36.5q55 0 103.5 29.5t73.5 69.5v557h61v-617q0 -54 63 -36v-51z" />
<glyph unicode="V" horiz-adv-x="540" d="M77 700l194 -627l194 627h67l-229 -700h-66l-229 700h69z" />
<glyph unicode="W" horiz-adv-x="864" d="M209 0l-201 700h65l171 -628l154 628h71l155 -628l166 628h66l-200 -700h-69l-154 623l-154 -623h-70z" />
<glyph unicode="X" horiz-adv-x="511" d="M431 700h70l-207 -346l211 -354h-72l-177 310l-179 -310h-71l210 353l-206 347h72l173 -303z" />
<glyph unicode="Y" horiz-adv-x="502" d="M222 0v246l-213 454h68l175 -385l175 385h67l-211 -452v-248h-61z" />
<glyph unicode="Z" horiz-adv-x="510" d="M33 0v37q271 341 351 603h-340v60h419v-38q-108 -305 -335 -602h351v-60h-446z" />
<glyph unicode="[" horiz-adv-x="258" d="M76 -110v860h145v-55h-90v-750h90v-55h-145z" />
<glyph unicode="\" horiz-adv-x="445" d="M8 750l46 19l385 -879l-45 -18z" />
<glyph unicode="]" horiz-adv-x="258" d="M38 -110v55h90v750h-90v55h146v-860h-146z" />
<glyph unicode="^" horiz-adv-x="339" d="M37 540l103 198h60l103 -198l-47 -21l-87 175l-86 -175z" />
<glyph unicode="_" horiz-adv-x="473" d="M8 -111v52h458v-52h-458z" />
<glyph unicode="`" horiz-adv-x="254" d="M52 708l56 31l82 -137l-40 -26z" />
<glyph unicode="a" d="M521 -4q-110 -26 -122 67q-68 -73 -154 -73q-85 0 -130.5 51.5t-45.5 146.5v139q0 96 50 149.5t140 53.5q68 0 144 -33l11 23h43v-437q0 -35 21.5 -41.5t42.5 3.5v-49zM399 138v306q-57 30 -140 30q-132 0 -132 -159v-113q0 -78 28.5 -117.5t91.5 -39.5q44 0 84 26.5 t68 66.5z" />
<glyph unicode="b" d="M76 0v750h58v-292q69 72 150 72q87 0 133.5 -51.5t46.5 -146.5v-139q0 -95 -51.5 -149t-142.5 -54q-74 0 -147 40l-6 -30h-41zM134 382v-298q76 -38 136 -38q136 0 136 159v113q0 78 -29 117.5t-94 39.5q-41 0 -82 -28t-67 -65z" />
<glyph unicode="c" horiz-adv-x="497" d="M128 205q0 -78 36 -119t102 -41q82 0 149 50l28 -43q-76 -62 -177 -62q-91 0 -143.5 54t-52.5 149v134q0 95 52.5 149t143.5 54q59 0 97.5 -16t79.5 -48l-30 -41q-35 26 -66.5 38t-80.5 12q-66 0 -102 -41t-36 -119v-110z" />
<glyph unicode="d" d="M521 -4q-110 -26 -122 67q-68 -73 -154 -73q-85 0 -130.5 51.5t-45.5 146.5v139q0 97 46.5 150t136.5 53q80 0 147 -31v251h58v-667q0 -35 21.5 -41.5t42.5 3.5v-49zM399 138v305q-61 32 -147 32q-65 0 -95 -40t-30 -120v-113q0 -78 28.5 -117.5t91.5 -39.5q44 0 84 26.5 t68 66.5z" />
<glyph unicode="e" horiz-adv-x="529" d="M129 297h276v17q0 78 -36 119t-102 41q-67 0 -102.5 -41t-35.5 -119v-17zM454 52q-76 -62 -187 -62q-91 0 -144 54t-53 149v134q0 95 53 149t144 54t143.5 -54t52.5 -149v-84h-335v-37q0 -78 36 -119.5t103 -41.5q92 0 159 50z" />
<glyph unicode="f" horiz-adv-x="341" d="M75 -150v616h-67v54h67v57q0 89 46 134t133 45q34 0 71 -11l-10 -48q-33 7 -61 7q-121 0 -121 -124v-60h173v-54h-173v-616h-58z" />
<glyph unicode="g" d="M400 169v275q-66 31 -148 31q-66 0 -95 -39.5t-29 -117.5v-80q0 -78 29 -115t94 -37q43 0 83.5 24t65.5 59zM108 -55q67 -50 159 -50q133 0 133 139v66q-65 -68 -150 -68q-88 0 -133.5 49t-45.5 143v108q0 95 46 146.5t134 51.5q80 0 153 -33l10 23h44v-498 q0 -89 -52 -135.5t-139 -46.5q-111 0 -187 62z" />
<glyph unicode="h" horiz-adv-x="527" d="M474 -10q-76 0 -76 73v265q0 78 -26.5 113.5t-91.5 35.5q-42 0 -81.5 -26t-64.5 -61v-390h-58v750h58v-292q69 72 146 72q176 0 176 -189v-272q0 -29 32 -29q15 0 32 5v-49q-24 -6 -46 -6z" />
<glyph unicode="i" horiz-adv-x="208" d="M76 520h58v-520h-58v520zM151 669q0 -22 -13 -35t-34 -13q-22 0 -35 13t-13 35q0 21 13 34t35 13q21 0 34 -13t13 -34z" />
<glyph unicode="j" horiz-adv-x="207" d="M75 520h58v-488q0 -89 -43 -138t-122 -54l-9 49q64 4 90.5 41.5t25.5 113.5v476zM151 669q0 -22 -13 -35t-34 -13q-22 0 -35 13t-13 35q0 21 13 34t35 13q21 0 34 -13t13 -34z" />
<glyph unicode="k" horiz-adv-x="464" d="M468 -4q-57 -11 -86.5 4t-67.5 84l-95 173l-85 -95v-162h-58v750h58v-508l249 278h76l-199 -219l117 -212q33 -61 91 -44v-49z" />
<glyph unicode="l" horiz-adv-x="208" d="M152 -10q-76 0 -76 73v687h58v-681q0 -29 32 -29q15 0 32 5v-49q-24 -6 -46 -6z" />
<glyph unicode="m" horiz-adv-x="811" d="M754 -10q-76 0 -76 73v255q0 86 -19 121t-78 35q-90 0 -146 -96v-378h-57v313q0 79 -28 121.5t-76 42.5q-42 0 -79.5 -26t-60.5 -64v-387h-58v520h48l8 -66q69 76 141 76q51 0 87.5 -26t50.5 -70q74 96 171 96q85 0 119.5 -47t34.5 -146v-268q0 -29 32 -29q15 0 32 5v-49 q-24 -6 -46 -6z" />
<glyph unicode="n" horiz-adv-x="531" d="M474 -10q-76 0 -76 73v259q0 80 -25.5 117.5t-90.5 37.5q-42 0 -82 -27t-66 -63v-387h-58v520h48l8 -66q70 76 151 76q173 0 173 -195v-266q0 -29 32 -29q15 0 32 5v-49q-24 -6 -46 -6z" />
<glyph unicode="o" horiz-adv-x="531" d="M128 315v-110q0 -78 36 -118.5t103 -40.5q136 0 138 159v110q0 78 -35.5 118.5t-102.5 40.5t-103 -40.5t-36 -118.5zM70 193v134q0 95 53 149t144 54t143.5 -54t52.5 -149v-134q-1 -95 -53 -149t-143 -54t-144 54t-53 149z" />
<glyph unicode="p" d="M124 520l8 -66q69 76 152 76q87 0 133.5 -51.5t46.5 -146.5v-139q0 -95 -52 -149t-144 -54q-70 0 -134 23v-163h-58v670h48zM406 205v113q0 78 -29 117.5t-94 39.5q-42 0 -83 -26.5t-66 -61.5v-315q52 -26 136 -26q136 0 136 159z" />
<glyph unicode="q" d="M399 138v306q-57 30 -136 30q-136 0 -136 -159v-113q0 -78 29 -117.5t94 -39.5q41 0 82 28t67 65zM457 520v-670h-58v212q-69 -72 -150 -72q-87 0 -133.5 51.5t-46.5 146.5v139q0 95 51.5 149t142.5 54q64 0 140 -33l11 23h43z" />
<glyph unicode="r" horiz-adv-x="296" d="M76 0v520h48l8 -69q63 79 154 79l4 -56q-96 0 -156 -94v-380h-58z" />
<glyph unicode="s" horiz-adv-x="467" d="M78 95q67 -50 159 -50q63 0 96 29t33 69q0 39 -25.5 61t-84.5 31q-38 6 -59 10t-49.5 15t-43.5 26t-26 41t-11 61q0 62 44 102t128 40q96 0 177 -62l-27 -43q-71 50 -150 50q-114 0 -114 -88q0 -50 30.5 -67.5t97.5 -27.5q41 -6 67 -14t52 -23.5t38.5 -43t13.5 -67.5 q1 -63 -49.5 -108.5t-137.5 -45.5q-111 0 -187 62z" />
<glyph unicode="t" horiz-adv-x="248" d="M75 201v265h-91v54h91v99h58v-99h111v-54h-111v-256q0 -70 19.5 -117.5t57.5 -92.5h-69q-66 79 -66 201z" />
<glyph unicode="u" horiz-adv-x="523" d="M240 -10q-79 0 -123 48.5t-44 141.5v340h58v-326q0 -149 111 -149q84 0 150 93v382h58v-437q0 -35 21.5 -41.5t42.5 3.5v-49q-110 -26 -122 67q-68 -73 -152 -73z" />
<glyph unicode="v" horiz-adv-x="451" d="M193 0l-185 520h62l156 -457l156 457h61l-185 -520h-65z" />
<glyph unicode="w" horiz-adv-x="703" d="M165 0l-157 520h61l126 -450l123 450h69l121 -450l126 450h61l-158 -520h-61l-125 453l-127 -453h-59z" />
<glyph unicode="x" horiz-adv-x="459" d="M371 520h71l-174 -252l182 -268h-70l-150 226l-151 -226h-70l182 265l-173 255h71l140 -213z" />
<glyph unicode="y" horiz-adv-x="541" d="M105 -56q79 -50 164 -50q63 0 100.5 33.5t37.5 106.5v64q-64 -66 -153 -66q-178 0 -178 196v292h58v-282q0 -79 27 -115t93 -36q43 0 86 24t67 57v352h58v-499q0 -88 -54.5 -134.5t-141.5 -46.5q-108 0 -187 60z" />
<glyph unicode="z" horiz-adv-x="433" d="M37 0v47q114 117 181.5 209.5t100.5 208.5h-276v55h346v-36q-39 -129 -103 -227t-164 -202h279v-55h-364z" />
<glyph unicode="{" horiz-adv-x="333" d="M162 27v128q0 63 -26.5 98.5t-70.5 35.5h-29v62h29q44 0 70.5 35.5t26.5 98.5v128q0 72 31 104.5t93 32.5h12v-50h-4q-48 0 -63.5 -23t-15.5 -77v-129q0 -119 -76 -151q76 -34 76 -150v-130q0 -54 15.5 -77t63.5 -23h4v-50h-12q-62 0 -93 32.5t-31 104.5z" />
<glyph unicode="|" horiz-adv-x="199" d="M75 -170v940h50v-940h-50z" />
<glyph unicode="}" horiz-adv-x="333" d="M269 289q-44 0 -70.5 -35.5t-26.5 -98.5v-128q0 -72 -30.5 -104.5t-92.5 -32.5h-13v50h4q48 0 63.5 23t15.5 77v130q0 117 77 150q-77 33 -77 151v129q0 54 -15.5 77t-63.5 23h-4v50h13q62 0 92.5 -32.5t30.5 -104.5v-128q0 -63 26.5 -98.5t70.5 -35.5h29v-62h-29z" />
<glyph unicode="~" horiz-adv-x="575" d="M111 284l-54 9q8 46 42.5 77.5t85.5 31.5q40 0 113 -38.5t103 -38.5q25 0 42 19t22 46l53 -9q-6 -48 -38.5 -79t-87.5 -31q-39 0 -109 39t-107 39q-27 0 -43.5 -19t-21.5 -46z" />
<glyph unicode="&#xa1;" horiz-adv-x="216" d="M80 0v168l6 373h46l6 -373v-168h-58zM108 627q-32 0 -32 40q0 43 32 43q35 0 35 -43q0 -40 -35 -40z" />
<glyph unicode="&#xa2;" horiz-adv-x="497" d="M415 204l28 -43q-65 -53 -147 -61v-100h-52v100q-81 7 -127.5 60t-46.5 142v94q0 89 46.5 142t127.5 60v102h52v-102q77 -7 147 -63l-30 -41q-57 42 -117 49v-387q65 6 119 48zM128 384v-70q0 -145 116 -159v388q-116 -14 -116 -159z" />
<glyph unicode="&#xa3;" horiz-adv-x="498" d="M313 704q-71 0 -104 -33.5t-33 -106.5v-182h145v-60h-145v-94q0 -51 -14 -93t-28 -58l-13 -16h343v-61h-427v55q37 24 59 65t22 92v110h-81v60h81v179q0 195 195 195q61 0 126 -29l-19 -45q-52 22 -107 22z" />
<glyph unicode="&#xa4;" horiz-adv-x="566" d="M57 144l68 72q-23 44 -23 106v46q0 62 23 105l-68 73l38 39l65 -69q47 41 124 41q76 0 123 -41l65 69l39 -39l-70 -73q24 -42 24 -105v-46q0 -62 -24 -106l70 -72l-39 -39l-65 69q-47 -41 -123 -41q-77 0 -126 41l-63 -69zM155 358v-26q0 -74 33 -112.5t96 -38.5t96 38.5 t33 112.5v26q0 74 -33 112.5t-96 38.5t-96 -38.5t-33 -112.5z" />
<glyph unicode="&#xa5;" horiz-adv-x="500" d="M29 101v63h192v85h-192v63h183l-205 389l71 9l173 -344l169 334h75l-205 -388h183v-63h-190v-85h190v-63h-190v-101h-62v101h-192z" />
<glyph unicode="&#xa6;" horiz-adv-x="199" d="M75 -170v337h50v-337h-50zM75 433v337h50v-337h-50z" />
<glyph unicode="&#xa7;" horiz-adv-x="496" d="M427 48q0 -64 -47 -105.5t-132 -41.5q-105 0 -179 60l27 40q64 -47 152 -47q61 0 90 26.5t29 71.5v7q0 39 -33.5 59t-99.5 34q-81 17 -129.5 53t-48.5 107v7q0 37 21.5 73t55.5 56q-63 43 -63 112v10q0 65 43.5 104.5t127.5 39.5q92 0 171 -61l-29 -39q-66 47 -142 47 q-111 0 -111 -93v-6q0 -43 35 -64.5t102 -35.5q36 -8 62.5 -17t54 -26t42.5 -45t15 -65v-10q0 -34 -26 -71t-59 -57q71 -39 71 -112v-11zM117 321v-6q0 -49 40 -74t145 -48q32 18 55 48t23 57v7q0 34 -23 56.5t-49 30.5t-67 17.5t-56 15.5q-28 -13 -48 -42.5t-20 -61.5z" />
<glyph unicode="&#xa8;" horiz-adv-x="378" d="M336 635q0 -22 -13 -35t-34 -13q-22 0 -35 13t-13 35q0 21 13 34t35 13q21 0 34 -13t13 -34zM137 635q0 -22 -13 -35t-34 -13q-22 0 -35 13t-13 35q0 21 13 34t35 13q21 0 34 -13t13 -34z" />
<glyph unicode="&#xa9;" horiz-adv-x="677" d="M61 201v295q0 98 81.5 156t196.5 58t196.5 -58t81.5 -156v-295q0 -98 -81 -156.5t-197 -58.5t-197 58.5t-81 156.5zM113 487v-277q0 -80 67 -123.5t159 -43.5t158.5 43.5t66.5 123.5v277q0 80 -66.5 123.5t-158.5 43.5t-159 -43.5t-67 -123.5zM482 184q-65 -53 -146 -53 q-73 0 -110.5 42.5t-37.5 120.5v109q0 78 37.5 120.5t110.5 42.5q81 0 146 -53l-26 -34q-29 21 -54 30.5t-66 9.5q-53 0 -76 -31t-23 -96v-86q0 -66 23 -97t76 -31q41 0 66 9.5t54 30.5z" />
<glyph unicode="&#xaa;" horiz-adv-x="410" d="M101 390q0 -80 84 -80q32 0 63 17t51 45v86q-64 11 -110 11q-45 0 -66.5 -17.5t-21.5 -61.5zM360 566v-291h-46l-9 45q-55 -53 -117 -53q-148 0 -148 124q0 121 150 121q53 0 109 -13v54q0 58 -20.5 81t-73.5 23q-74 0 -124 -33l-23 42q69 45 150 45q152 0 152 -145z" />
<glyph unicode="&#xab;" horiz-adv-x="455" d="M80 279l114 -125l-33 -40l-132 145v41l132 145l33 -40zM312 279l113 -125l-32 -40l-133 145v41l133 145l32 -40z" />
<glyph unicode="&#xac;" horiz-adv-x="636" d="M67 375v60h504v-220h-55v160h-449z" />
<glyph unicode="&#xad;" horiz-adv-x="369" d="M54 274v59h257v-59h-257z" />
<glyph unicode="&#xae;" horiz-adv-x="677" d="M204 141v415h148q62 0 97.5 -31t35.5 -89v-26q0 -86 -80 -115l100 -154h-65l-96 150h-90v-150h-50zM254 340h100q81 0 81 78v9q0 41 -20 59t-61 18h-100v-164zM61 201v295q0 98 81.5 156t196.5 58t196.5 -58t81.5 -156v-295q0 -98 -81 -156.5t-197 -58.5t-197 58.5 t-81 156.5zM113 487v-277q0 -80 67 -123.5t159 -43.5t158.5 43.5t66.5 123.5v277q0 80 -66.5 123.5t-158.5 43.5t-159 -43.5t-67 -123.5z" />
<glyph unicode="&#xaf;" horiz-adv-x="369" d="M57 597v60h257v-60h-257z" />
<glyph unicode="&#xb0;" horiz-adv-x="335" d="M46 573v16q0 56 33 90t87 34q57 0 90.5 -33.5t33.5 -90.5v-16q0 -58 -33 -91t-91 -33q-55 0 -87.5 33t-32.5 91zM165 493q75 0 75 86q0 88 -75 88q-68 0 -68 -88q0 -86 68 -86z" />
<glyph unicode="&#xb1;" horiz-adv-x="587" d="M67 329v61h198v170h57v-170h199v-61h-199v-170h-57v170h-198zM67 43v61h454v-61h-454z" />
<glyph unicode="&#xb2;" horiz-adv-x="401" d="M129 290h217v-46h-295v33l190 213q47 53 47 96q0 35 -20.5 57.5t-61.5 22.5q-40 0 -65.5 -10t-55.5 -31l-24 33q68 54 145 54q65 0 99 -34.5t34 -90.5q0 -61 -69 -138z" />
<glyph unicode="&#xb3;" horiz-adv-x="393" d="M336 369q0 -59 -38.5 -97t-105.5 -38q-77 0 -139 50l25 40q51 -39 114 -39q40 0 62.5 23.5t22.5 61.5v8q0 37 -15.5 60.5t-38.5 23.5h-72v50h71q23 0 36.5 27.5t13.5 51.5q0 31 -18.5 51t-56.5 20q-69 0 -113 -34l-24 36q60 48 137 48q63 0 96.5 -33.5t33.5 -86.5 q0 -66 -42 -103q21 -11 36 -42t15 -62v-16z" />
<glyph unicode="&#xb4;" horiz-adv-x="254" d="M67 602l81 137l56 -31l-97 -132z" />
<glyph unicode="&#xb6;" horiz-adv-x="558" d="M318 -110v388h-41q-98 0 -149 51t-51 146v28q0 95 51 146t146 51h209v-810h-48v752h-69v-752h-48z" />
<glyph unicode="&#xb7;" horiz-adv-x="171" d="M133 292q0 -22 -13 -35t-34 -13q-22 0 -35 13t-13 35q0 21 13 34t35 13q21 0 34 -13t13 -34z" />
<glyph unicode="&#xb8;" horiz-adv-x="255" d="M57 -153l5 34q15 -5 32 -5q43 0 43 31q0 15 -14 22.5t-28 8.5h-14l22 62h50l-12 -38q25 -2 42 -16.5t17 -42.5q0 -64 -92 -64q-30 0 -51 8z" />
<glyph unicode="&#xb9;" horiz-adv-x="248" d="M59 295h60v340l-74 -51l-29 40l114 80h40v-409h58v-46h-169v46z" />
<glyph unicode="&#xba;" horiz-adv-x="403" d="M101 533v-88q0 -63 25 -92t76 -29q50 0 75 29t25 92v88q0 64 -24 92.5t-76 28.5q-51 0 -76 -29t-25 -92zM40 434v109q0 79 43.5 123.5t118.5 44.5t118 -44.5t43 -123.5v-109q0 -78 -43.5 -122.5t-117.5 -44.5q-75 0 -118.5 44.5t-43.5 122.5z" />
<glyph unicode="&#xbb;" horiz-adv-x="455" d="M295 114l-32 40l113 125l-113 126l32 40l132 -145v-41zM64 114l-32 40l113 125l-113 126l32 40l132 -145v-41z" />
<glyph unicode="&#xbc;" horiz-adv-x="729" d="M367 91v34l169 334h55l-159 -323h157v182h51v-182h49v-45h-50v-91h-50v91h-222zM129 0l442 700h60l-444 -700h-58zM73 295h60v340l-74 -51l-29 40l114 80h40v-409h58v-46h-169v46z" />
<glyph unicode="&#xbd;" horiz-adv-x="806" d="M73 295h60v340l-74 -51l-29 40l114 80h40v-409h58v-46h-169v46zM559 700h60l-445 -700h-57zM543 46h217v-46h-295v33l190 213q47 53 47 96q0 35 -20.5 57.5t-61.5 22.5q-40 0 -65.5 -10t-55.5 -31l-24 33q68 54 145 54q65 0 99 -34.5t34 -90.5q0 -61 -69 -138z" />
<glyph unicode="&#xbe;" horiz-adv-x="763" d="M401 91v34l169 334h55l-159 -323h157v182h51v-182h49v-45h-50v-91h-50v91h-222zM163 0l442 700h60l-444 -700h-58zM313 369q0 -59 -38.5 -97t-105.5 -38q-77 0 -139 50l25 40q51 -39 114 -39q40 0 62.5 23.5t22.5 61.5v8q0 37 -15.5 60.5t-38.5 23.5h-72v50h71 q23 0 36.5 27.5t13.5 51.5q0 31 -18.5 51t-56.5 20q-69 0 -113 -34l-24 36q60 48 137 48q63 0 96.5 -33.5t33.5 -86.5q0 -66 -42 -103q21 -11 36 -42t15 -62v-16z" />
<glyph unicode="&#xbf;" horiz-adv-x="457" d="M121 156q0 -109 119 -109q94 0 153 48l30 -41q-74 -64 -183 -64q-90 0 -137 46t-47 118v16q0 60 22 98.5t68 85.5q51 52 70 82.5t18 75.5v37h59v-35q0 -29 -4 -52t-8.5 -37.5t-17 -32t-19.5 -26t-27 -28.5t-30 -31q-35 -39 -50.5 -70t-15.5 -73v-8zM214 665q0 22 13 35 t34 13q22 0 35 -13t13 -35q0 -21 -13 -34t-35 -13q-21 0 -34 13t-13 34z" />
<glyph unicode="&#xc0;" horiz-adv-x="559" d="M483 0l-62 180h-275l-71 -180h-68l258 629l-23 71h61l248 -700h-68zM294 552l-125 -315h233zM174 858l56 31l82 -137l-40 -26z" />
<glyph unicode="&#xc1;" horiz-adv-x="559" d="M483 0l-62 180h-275l-71 -180h-68l258 629l-23 71h61l248 -700h-68zM294 552l-125 -315h233zM251 752l81 137l56 -31l-97 -132z" />
<glyph unicode="&#xc2;" horiz-adv-x="559" d="M483 0l-62 180h-275l-71 -180h-68l258 629l-23 71h61l248 -700h-68zM294 552l-125 -315h233zM192 755l60 101h55l61 -101l-49 -19l-40 76l-39 -76z" />
<glyph unicode="&#xc3;" horiz-adv-x="559" d="M483 0l-62 180h-275l-71 -180h-68l258 629l-23 71h61l248 -700h-68zM294 552l-125 -315h233zM185 749l-49 12q3 31 26 53.5t57 22.5q25 0 68 -21.5t54 -21.5q29 0 35 35l48 -12q-3 -32 -24.5 -53.5t-57.5 -21.5q-20 0 -63 21t-60 21q-28 0 -34 -35z" />
<glyph unicode="&#xc4;" horiz-adv-x="559" d="M483 0l-62 180h-275l-71 -180h-68l258 629l-23 71h61l248 -700h-68zM294 552l-125 -315h233zM185 755q-38 0 -38 47q0 51 38 51q43 0 43 -51q0 -47 -43 -47zM372 755q-40 0 -40 47q0 51 40 51q41 0 41 -51q0 -47 -41 -47z" />
<glyph unicode="&#xc5;" horiz-adv-x="559" d="M483 0l-62 180h-275l-71 -180h-68l258 629l-23 71h61l248 -700h-68zM294 552l-125 -315h233zM209 801v10q0 32 19 51.5t50 19.5q33 0 52.5 -19.5t19.5 -51.5v-10q0 -34 -19.5 -53t-52.5 -19q-32 0 -50.5 19t-18.5 53zM278 761q38 0 38 44t-38 44q-35 0 -35 -44t35 -44z " />
<glyph unicode="&#xc6;" horiz-adv-x="895" d="M10 0l360 700h482v-61h-308v-297h257v-61h-257v-221h316v-60h-377v281h-258l-142 -281h-73zM257 342h226v296h-77z" />
<glyph unicode="&#xc7;" horiz-adv-x="542" d="M122 484v-268q0 -80 43.5 -124.5t114.5 -44.5q52 0 90 22t56 59l57 -22q-20 -50 -65.5 -81.5t-109.5 -37.5l-8 -25q25 -2 42 -16.5t17 -42.5q0 -64 -93 -64q-29 0 -50 8l5 34q15 -5 32 -5q43 0 43 31q0 15 -14 22.5t-28 8.5h-14l17 49q-88 7 -142.5 65t-54.5 150v296 q0 98 61.5 157t158.5 59q75 0 128.5 -32.5t74.5 -87.5l-57 -22q-18 37 -56 59t-90 22q-71 0 -114.5 -44.5t-43.5 -124.5z" />
<glyph unicode="&#xc8;" horiz-adv-x="484" d="M66 0v700h376v-61h-315v-251h263v-60h-263v-268h323v-60h-384zM165 852l56 31l82 -137l-40 -26z" />
<glyph unicode="&#xc9;" horiz-adv-x="484" d="M66 0v700h376v-61h-315v-251h263v-61h-263v-267h323v-60h-384zM235 758l81 137l56 -31l-97 -132z" />
<glyph unicode="&#xca;" horiz-adv-x="484" d="M66 0v700h376v-61h-315v-251h263v-60h-263v-268h323v-60h-384zM174 755l60 101h55l61 -101l-49 -19l-40 76l-39 -76z" />
<glyph unicode="&#xcb;" horiz-adv-x="484" d="M153 755q-39 0 -39 47q0 51 39 51q42 0 42 -51q0 -47 -42 -47zM353 755q-39 0 -39 47q0 51 39 51q42 0 42 -51q0 -47 -42 -47zM66 0v700h376v-61h-315v-251h263v-60h-263v-268h323v-60h-384z" />
<glyph unicode="&#xcc;" horiz-adv-x="191" d="M66 0v700h61v-700h-61zM-5 852l56 31l82 -137l-40 -26z" />
<glyph unicode="&#xcd;" horiz-adv-x="191" d="M66 0v700h61v-700h-61zM70 740l81 137l56 -31l-97 -132z" />
<glyph unicode="&#xce;" horiz-adv-x="191" d="M66 0v700h61v-700h-61zM9 755l60 101h55l61 -101l-49 -19l-40 76l-39 -76z" />
<glyph unicode="&#xcf;" horiz-adv-x="191" d="M30 755q-40 0 -40 47q0 51 40 51q43 0 43 -51q0 -47 -43 -47zM66 0v700h61v-700h-61zM160 755q-40 0 -40 47q0 51 40 51q42 0 42 -51q0 -47 -42 -47z" />
<glyph unicode="&#xd0;" horiz-adv-x="566" d="M66 700h234q95 0 150.5 -58.5t55.5 -157.5v-268q0 -100 -57.5 -158t-162.5 -58q-109 0 -220 33v295h-57v60h57v312zM445 229v242q0 82 -37.5 125t-107.5 43h-173v-251h167v-60h-167v-248q76 -20 159 -20q159 0 159 169z" />
<glyph unicode="&#xd1;" horiz-adv-x="587" d="M199 750l-49 12q3 31 26 53.5t57 22.5q25 0 68 -21.5t54 -21.5q29 0 35 35l48 -12q-3 -32 -24.5 -53.5t-57.5 -21.5q-20 0 -63 21t-60 21q-28 0 -34 -35zM66 0v700h63l334 -584l-1 584h61v-700h-64l-335 584l3 -584h-61z" />
<glyph unicode="&#xd2;" horiz-adv-x="579" d="M61 202v296q0 98 65.5 157t164.5 59q98 0 163.5 -59t65.5 -157v-296q0 -98 -65.5 -157t-163.5 -59q-99 0 -164.5 59t-65.5 157zM122 484v-268q0 -80 47.5 -124.5t121.5 -44.5q73 0 120.5 44.5t47.5 124.5v268q0 80 -47.5 124.5t-120.5 44.5q-74 0 -121.5 -44.5 t-47.5 -124.5zM191 865l56 31l82 -137l-40 -26z" />
<glyph unicode="&#xd3;" horiz-adv-x="579" d="M61 202v296q0 98 65.5 157t164.5 59q98 0 163.5 -59t65.5 -157v-296q0 -98 -65.5 -157t-163.5 -59q-99 0 -164.5 59t-65.5 157zM122 484v-268q0 -80 47.5 -124.5t121.5 -44.5q73 0 120.5 44.5t47.5 124.5v268q0 80 -47.5 124.5t-120.5 44.5q-74 0 -121.5 -44.5 t-47.5 -124.5zM272 760l81 137l56 -31l-97 -132z" />
<glyph unicode="&#xd4;" horiz-adv-x="579" d="M61 202v296q0 98 65.5 157t164.5 59q98 0 163.5 -59t65.5 -157v-296q0 -98 -65.5 -157t-163.5 -59q-99 0 -164.5 59t-65.5 157zM122 484v-268q0 -80 47.5 -124.5t121.5 -44.5q73 0 120.5 44.5t47.5 124.5v268q0 80 -47.5 124.5t-120.5 44.5q-74 0 -121.5 -44.5 t-47.5 -124.5zM203 755l60 101h55l61 -101l-49 -19l-40 76l-39 -76z" />
<glyph unicode="&#xd5;" horiz-adv-x="579" d="M61 202v296q0 98 65.5 157t164.5 59q98 0 163.5 -59t65.5 -157v-296q0 -98 -65.5 -157t-163.5 -59q-99 0 -164.5 59t-65.5 157zM122 484v-268q0 -80 47.5 -124.5t121.5 -44.5q73 0 120.5 44.5t47.5 124.5v268q0 80 -47.5 124.5t-120.5 44.5q-74 0 -121.5 -44.5 t-47.5 -124.5zM196 751l-49 12q3 31 26 53.5t57 22.5q25 0 68 -21.5t54 -21.5q29 0 35 35l48 -12q-3 -32 -24.5 -53.5t-57.5 -21.5q-20 0 -63 21t-60 21q-28 0 -34 -35z" />
<glyph unicode="&#xd6;" horiz-adv-x="590" d="M66 202v296q0 98 65.5 157t164.5 59q98 0 163.5 -59t65.5 -157v-296q0 -98 -65.5 -157t-163.5 -59q-99 0 -164.5 59t-65.5 157zM127 484v-268q0 -80 48 -124.5t121 -44.5t120.5 44.5t47.5 124.5v268q0 80 -47.5 124.5t-120.5 44.5t-121 -44.5t-48 -124.5zM395 755 q-40 0 -40 47q0 51 40 51q42 0 42 -51q0 -47 -42 -47zM194 755q-39 0 -39 47q0 51 39 51q43 0 43 -51q0 -47 -43 -47z" />
<glyph unicode="&#xd7;" horiz-adv-x="517" d="M47 88l177 189l-177 189l35 36l177 -189l177 189l35 -36l-177 -189l177 -189l-35 -36l-177 189l-177 -189z" />
<glyph unicode="&#xd8;" horiz-adv-x="579" d="M36 94l-33 47l58 49v308q0 98 65.5 157t164.5 59q75 0 134 -37.5t83 -102.5l35 29l36 -43l-59 -51v-307q0 -98 -65.5 -157t-163.5 -59q-77 0 -135.5 37t-82.5 103zM459 216v243l-332 -289q12 -59 57 -91t107 -32q73 0 120.5 44t47.5 125zM122 241l332 288q-14 60 -58 92 t-105 32q-74 0 -121.5 -44t-47.5 -125v-243z" />
<glyph unicode="&#xd9;" horiz-adv-x="565" d="M177 858l56 31l82 -137l-40 -26zM565 -4q-59 -12 -88 3.5t-36 69.5q-75 -83 -179 -83q-199 0 -199 198v516h62v-502q0 -81 33.5 -117.5t105.5 -36.5q55 0 103.5 29.5t73.5 69.5v557h61v-617q0 -54 63 -36v-51z" />
<glyph unicode="&#xda;" horiz-adv-x="565" d="M259 752l81 137l56 -31l-97 -132zM565 -4q-59 -12 -88 3.5t-36 69.5q-75 -83 -179 -83q-199 0 -199 198v516h62v-502q0 -81 33.5 -117.5t105.5 -36.5q55 0 103.5 29.5t73.5 69.5v557h61v-617q0 -54 63 -36v-51z" />
<glyph unicode="&#xdb;" horiz-adv-x="565" d="M199 755l60 101h55l61 -101l-49 -19l-40 76l-39 -76zM565 -4q-59 -12 -88 3.5t-36 69.5q-75 -83 -179 -83q-199 0 -199 198v516h62v-502q0 -81 33.5 -117.5t105.5 -36.5q55 0 103.5 29.5t73.5 69.5v557h61v-617q0 -54 63 -36v-51z" />
<glyph unicode="&#xdc;" horiz-adv-x="565" d="M565 -4q-59 -12 -88 3.5t-36 69.5q-75 -83 -179 -83q-199 0 -199 198v516h62v-502q0 -81 33.5 -117.5t105.5 -36.5q55 0 103.5 29.5t73.5 69.5v557h61v-617q0 -54 63 -36v-51zM430 788q0 -22 -13 -35t-34 -13q-22 0 -35 13t-13 35q0 21 13 34t35 13q21 0 34 -13t13 -34z M231 788q0 -22 -13 -35t-34 -13q-22 0 -35 13t-13 35q0 21 13 34t35 13q21 0 34 -13t13 -34z" />
<glyph unicode="&#xdd;" horiz-adv-x="502" d="M214 752l81 137l56 -31l-97 -132zM222 0v246l-213 454h68l175 -385l175 385h67l-211 -452v-248h-61z" />
<glyph unicode="&#xde;" horiz-adv-x="546" d="M66 0v700h61v-132h161q97 0 152 -52.5t55 -148.5v-34q0 -96 -55 -148.5t-152 -52.5h-161v-132h-61zM127 189h161q145 0 145 157v8q0 156 -145 156h-161v-321z" />
<glyph unicode="&#xdf;" horiz-adv-x="549" d="M75 0v395h-67v54h67v106q0 96 46 148.5t130 52.5q166 0 168 -150q0 -39 -22.5 -70t-49 -48t-49 -39t-22.5 -45q0 -33 22.5 -57.5t54.5 -41.5t64 -35.5t54.5 -52t22.5 -80.5q0 -69 -46 -110t-134 -41q-47 0 -89 14l11 53q40 -12 80 -12q50 0 81 22.5t31 64.5 q0 31 -22.5 55.5t-54 43t-63.5 39t-54.5 53.5t-22.5 76q0 39 14.5 66.5t35 43t41 29t35 33t14.5 47.5q0 16 -3 28.5t-12 27t-30.5 22.5t-54.5 8q-118 0 -118 -157v-543h-58z" />
<glyph unicode="&#xe0;" d="M168 708l56 31l82 -137l-40 -26zM521 -4q-110 -26 -122 67q-68 -73 -154 -73q-85 0 -130.5 51.5t-45.5 146.5v139q0 96 50 149.5t140 53.5q68 0 144 -33l11 23h43v-437q0 -35 21.5 -41.5t42.5 3.5v-49zM399 138v306q-57 30 -140 30q-132 0 -132 -159v-113 q0 -78 28.5 -117.5t91.5 -39.5q44 0 84 26.5t68 66.5z" />
<glyph unicode="&#xe1;" d="M243 602l81 137l56 -31l-97 -132zM521 -4q-110 -26 -122 67q-68 -73 -154 -73q-85 0 -130.5 51.5t-45.5 146.5v139q0 96 50 149.5t140 53.5q68 0 144 -33l11 23h43v-437q0 -35 21.5 -41.5t42.5 3.5v-49zM399 138v306q-57 30 -140 30q-132 0 -132 -159v-113 q0 -78 28.5 -117.5t91.5 -39.5q44 0 84 26.5t68 66.5z" />
<glyph unicode="&#xe2;" d="M192 595l60 101h55l61 -101l-49 -19l-40 76l-39 -76zM521 -4q-110 -26 -122 67q-68 -73 -154 -73q-85 0 -130.5 51.5t-45.5 146.5v139q0 96 50 149.5t140 53.5q68 0 144 -33l11 23h43v-437q0 -35 21.5 -41.5t42.5 3.5v-49zM399 138v306q-57 30 -140 30q-132 0 -132 -159 v-113q0 -78 28.5 -117.5t91.5 -39.5q44 0 84 26.5t68 66.5z" />
<glyph unicode="&#xe3;" d="M179 600l-49 12q3 31 26 53.5t57 22.5q25 0 68 -21.5t54 -21.5q29 0 35 35l48 -12q-3 -32 -24.5 -53.5t-57.5 -21.5q-20 0 -63 21t-60 21q-28 0 -34 -35zM521 -4q-110 -26 -122 67q-68 -73 -154 -73q-85 0 -130.5 51.5t-45.5 146.5v139q0 96 50 149.5t140 53.5 q68 0 144 -33l11 23h43v-437q0 -35 21.5 -41.5t42.5 3.5v-49zM399 138v306q-57 30 -140 30q-132 0 -132 -159v-113q0 -78 28.5 -117.5t91.5 -39.5q44 0 84 26.5t68 66.5z" />
<glyph unicode="&#xe4;" d="M521 -4q-110 -26 -122 67q-68 -73 -154 -73q-85 0 -130.5 51.5t-45.5 146.5v139q0 96 50 149.5t140 53.5q68 0 144 -33l11 23h43v-437q0 -35 21.5 -41.5t42.5 3.5v-49zM399 138v306q-57 30 -140 30q-132 0 -132 -159v-113q0 -78 28.5 -117.5t91.5 -39.5q44 0 84 26.5 t68 66.5zM406 635q0 -22 -13 -35t-34 -13q-22 0 -35 13t-13 35q0 21 13 34t35 13q21 0 34 -13t13 -34zM207 635q0 -22 -13 -35t-34 -13q-22 0 -35 13t-13 35q0 21 13 34t35 13q21 0 34 -13t13 -34z" />
<glyph unicode="&#xe5;" horiz-adv-x="521" d="M202 681v10q0 32 19 51.5t50 19.5q33 0 52.5 -19t19.5 -52v-10q0 -34 -19 -53t-53 -19q-32 0 -50.5 19t-18.5 53zM271 641q37 0 37 44t-37 44q-35 0 -35 -44t35 -44zM521 -4q-110 -26 -122 67q-68 -73 -154 -73q-85 0 -130.5 51.5t-45.5 146.5v139q0 96 50 149.5 t140 53.5q68 0 144 -33l11 23h43v-437q0 -35 21.5 -41.5t42.5 3.5v-49zM399 138v306q-57 30 -140 30q-132 0 -132 -159v-113q0 -78 28.5 -117.5t91.5 -39.5q44 0 84 26.5t68 66.5z" />
<glyph unicode="&#xe6;" horiz-adv-x="1061" d="M791 243h-335v-37q0 -78 36 -119.5t103 -41.5q92 0 159 50l28 -43q-76 -62 -187 -62q-121 0 -170 94q-41 -43 -83 -68.5t-99 -25.5q-85 0 -130.5 51.5t-45.5 146.5v139q0 96 50 149.5t140 53.5q97 0 196 -54q51 54 142 54t143.5 -54t52.5 -149v-84zM397 138v306 q-57 30 -140 30q-132 0 -132 -159v-113q0 -78 28.5 -117.5t91.5 -39.5q44 0 84 26.5t68 66.5zM733 314q0 78 -36 119t-102 41q-67 0 -102.5 -41t-35.5 -119v-17h276v17z" />
<glyph unicode="&#xe7;" horiz-adv-x="517" d="M425 95l28 -43q-64 -52 -157 -61l-9 -29q25 -2 42 -16.5t17 -42.5q0 -64 -92 -64q-30 0 -51 8l5 34q15 -5 32 -5q43 0 43 31q0 15 -14 22.5t-28 8.5h-14l19 53q-82 6 -129 59.5t-47 142.5v134q0 95 52.5 149t143.5 54q105 0 187 -64l-30 -41q-69 50 -157 50 q-66 0 -102 -41t-36 -119v-110q0 -78 36 -119t102 -41q92 0 159 50z" />
<glyph unicode="&#xe8;" horiz-adv-x="529" d="M166 708l56 31l82 -137l-40 -26zM129 297h276v17q0 78 -36 119t-102 41q-67 0 -102.5 -41t-35.5 -119v-17zM454 52q-76 -62 -187 -62q-91 0 -144 54t-53 149v134q0 95 53 149t144 54t143.5 -54t52.5 -149v-84h-335v-37q0 -78 36 -119.5t103 -41.5q92 0 159 50z" />
<glyph unicode="&#xe9;" horiz-adv-x="529" d="M244 602l81 137l56 -31l-97 -132zM129 297h276v17q0 78 -36 119t-102 41q-67 0 -102.5 -41t-35.5 -119v-17zM454 52q-76 -62 -187 -62q-91 0 -144 54t-53 149v134q0 95 53 149t144 54t143.5 -54t52.5 -149v-84h-335v-37q0 -78 36 -119.5t103 -41.5q92 0 159 50z" />
<glyph unicode="&#xea;" horiz-adv-x="529" d="M177 605l60 101h55l61 -101l-49 -19l-40 76l-39 -76zM129 297h276v17q0 78 -36 119t-102 41q-67 0 -102.5 -41t-35.5 -119v-17zM454 52q-76 -62 -187 -62q-91 0 -144 54t-53 149v134q0 95 53 149t144 54t143.5 -54t52.5 -149v-84h-335v-37q0 -78 36 -119.5t103 -41.5 q92 0 159 50z" />
<glyph unicode="&#xeb;" horiz-adv-x="529" d="M165 615q-39 0 -39 47q0 51 39 51q42 0 42 -51q0 -47 -42 -47zM365 615q-39 0 -39 47q0 51 39 51q42 0 42 -51q0 -47 -42 -47zM129 297h276v17q0 78 -36 119t-102 41q-67 0 -102.5 -41t-35.5 -119v-17zM454 52q-76 -62 -187 -62q-91 0 -144 54t-53 149v134q0 95 53 149 t144 54t143.5 -54t52.5 -149v-84h-335v-37q0 -78 36 -119.5t103 -41.5q92 0 159 50z" />
<glyph unicode="&#xec;" horiz-adv-x="208" d="M-2 708l56 31l82 -137l-40 -26zM76 520h58v-520h-58v520z" />
<glyph unicode="&#xed;" horiz-adv-x="208" d="M81 602l81 137l56 -31l-97 -132zM76 520h58v-520h-58v520z" />
<glyph unicode="&#xee;" horiz-adv-x="208" d="M18 605l60 101h55l61 -101l-49 -19l-40 76l-39 -76zM76 520h58v-520h-58v520z" />
<glyph unicode="&#xef;" horiz-adv-x="208" d="M26 614q-41 0 -41 48q0 52 41 52q43 0 43 -52q0 -48 -43 -48zM158 614q-40 0 -40 48q0 52 40 52q43 0 43 -52q0 -48 -43 -48zM76 520h58v-520h-58v520z" />
<glyph unicode="&#xf0;" horiz-adv-x="533" d="M70 196v146q0 96 45.5 149t133.5 53q82 0 151 -60v30q0 62 -26 103l-67 -54l-37 49l55 45q-40 17 -75 17q-27 0 -58 -9l-17 56q34 14 74 14q80 0 130 -37l68 55l36 -49l-60 -49q36 -56 36 -127l-1 -334q1 -95 -51 -149.5t-142 -54.5q-92 0 -143.5 55t-51.5 151zM130 333 v-129q0 -76 34.5 -116.5t99.5 -40.5q66 0 101 40.5t35 116.5v207q-25 30 -66.5 52.5t-82.5 22.5q-64 0 -92.5 -38.5t-28.5 -114.5z" />
<glyph unicode="&#xf1;" horiz-adv-x="531" d="M174 600l-49 12q3 31 26 53.5t57 22.5q25 0 68 -21.5t54 -21.5q29 0 35 35l48 -12q-3 -32 -24.5 -53.5t-57.5 -21.5q-20 0 -63 21t-60 21q-28 0 -34 -35zM474 -10q-76 0 -76 73v259q0 80 -25.5 117.5t-90.5 37.5q-42 0 -82 -27t-66 -63v-387h-58v520h48l8 -66 q70 76 151 76q173 0 173 -195v-266q0 -29 32 -29q15 0 32 5v-49q-24 -6 -46 -6z" />
<glyph unicode="&#xf2;" horiz-adv-x="531" d="M167 708l56 31l82 -137l-40 -26zM128 315v-110q0 -78 36 -118.5t103 -40.5q136 0 138 159v110q0 78 -35.5 118.5t-102.5 40.5t-103 -40.5t-36 -118.5zM70 193v134q0 95 53 149t144 54t143.5 -54t52.5 -149v-134q-1 -95 -53 -149t-143 -54t-144 54t-53 149z" />
<glyph unicode="&#xf3;" horiz-adv-x="531" d="M246 602l81 137l56 -31l-97 -132zM128 315v-110q0 -78 36 -118.5t103 -40.5q136 0 138 159v110q0 78 -35.5 118.5t-102.5 40.5t-103 -40.5t-36 -118.5zM70 193v134q0 95 53 149t144 54t143.5 -54t52.5 -149v-134q-1 -95 -53 -149t-143 -54t-144 54t-53 149z" />
<glyph unicode="&#xf4;" horiz-adv-x="531" d="M178 605l60 101h55l61 -101l-49 -19l-40 76l-39 -76zM128 315v-110q0 -78 36 -118.5t103 -40.5q136 0 138 159v110q0 78 -35.5 118.5t-102.5 40.5t-103 -40.5t-36 -118.5zM70 193v134q0 95 53 149t144 54t143.5 -54t52.5 -149v-134q-1 -95 -53 -149t-143 -54t-144 54 t-53 149z" />
<glyph unicode="&#xf5;" horiz-adv-x="531" d="M172 600l-49 12q3 31 26 53.5t57 22.5q25 0 68 -21.5t54 -21.5q29 0 35 35l48 -12q-3 -32 -24.5 -53.5t-57.5 -21.5q-20 0 -63 21t-60 21q-28 0 -34 -35zM128 315v-110q0 -78 36 -118.5t103 -40.5q136 0 138 159v110q0 78 -35.5 118.5t-102.5 40.5t-103 -40.5t-36 -118.5 zM70 193v134q0 95 53 149t144 54t143.5 -54t52.5 -149v-134q-1 -95 -53 -149t-143 -54t-144 54t-53 149z" />
<glyph unicode="&#xf6;" horiz-adv-x="531" d="M165 615q-39 0 -39 47q0 51 39 51q42 0 42 -51q0 -47 -42 -47zM365 615q-39 0 -39 47q0 51 39 51q42 0 42 -51q0 -47 -42 -47zM128 315v-110q0 -78 36 -118.5t103 -40.5q136 0 138 159v110q0 78 -35.5 118.5t-102.5 40.5t-103 -40.5t-36 -118.5zM70 193v134q0 95 53 149 t144 54t143.5 -54t52.5 -149v-134q-1 -95 -53 -149t-143 -54t-144 54t-53 149z" />
<glyph unicode="&#xf7;" horiz-adv-x="545" d="M272 -10q-38 0 -38 47q0 50 38 50q40 0 40 -50q0 -47 -40 -47zM272 473q-38 0 -38 47q0 50 38 50q40 0 40 -50q0 -47 -40 -47zM46 250v60h454v-60h-454z" />
<glyph unicode="&#xf8;" horiz-adv-x="531" d="M463 327v-134q0 -95 -52.5 -149t-143.5 -54q-120 0 -170 88l-56 -48l-33 46l68 58q-6 27 -6 59v134q0 95 53 149t144 54q119 0 169 -88l57 49l31 -46l-67 -58q6 -27 6 -60zM128 315v-135l261 222q-31 72 -122 72q-67 0 -103 -40.5t-36 -118.5zM405 205v137l-261 -224 q32 -72 123 -72q136 0 138 159z" />
<glyph unicode="&#xf9;" horiz-adv-x="523" d="M171 708l56 31l82 -137l-40 -26zM240 -10q-79 0 -123 48.5t-44 141.5v340h58v-326q0 -149 111 -149q84 0 150 93v382h58v-437q0 -35 21.5 -41.5t42.5 3.5v-49q-110 -26 -122 67q-68 -73 -152 -73z" />
<glyph unicode="&#xfa;" horiz-adv-x="523" d="M222 602l81 137l56 -31l-97 -132zM240 -10q-79 0 -123 48.5t-44 141.5v340h58v-326q0 -149 111 -149q84 0 150 93v382h58v-437q0 -35 21.5 -41.5t42.5 3.5v-49q-110 -26 -122 67q-68 -73 -152 -73z" />
<glyph unicode="&#xfb;" horiz-adv-x="523" d="M174 605l60 101h55l61 -101l-49 -19l-40 76l-39 -76zM240 -10q-79 0 -123 48.5t-44 141.5v340h58v-326q0 -149 111 -149q84 0 150 93v382h58v-437q0 -35 21.5 -41.5t42.5 3.5v-49q-110 -26 -122 67q-68 -73 -152 -73z" />
<glyph unicode="&#xfc;" horiz-adv-x="523" d="M164 615q-39 0 -39 47q0 51 39 51q42 0 42 -51q0 -47 -42 -47zM364 615q-39 0 -39 47q0 51 39 51q42 0 42 -51q0 -47 -42 -47zM240 -10q-79 0 -123 48.5t-44 141.5v340h58v-326q0 -149 111 -149q84 0 150 93v382h58v-437q0 -35 21.5 -41.5t42.5 3.5v-49q-110 -26 -122 67 q-68 -73 -152 -73z" />
<glyph unicode="&#xfd;" horiz-adv-x="541" d="M105 -56q79 -50 164 -50q63 0 100.5 33.5t37.5 106.5v64q-64 -66 -153 -66q-178 0 -178 196v292h58v-282q0 -79 27 -115t93 -36q43 0 86 24t67 57v352h58v-499q0 -88 -54.5 -134.5t-141.5 -46.5q-108 0 -187 60zM239 602l81 137l56 -31l-97 -132z" />
<glyph unicode="&#xfe;" d="M134 423v-352q55 -25 140 -25q64 0 97.5 40.5t34.5 115.5l-1 156q0 78 -29 118t-94 40q-41 0 -81.5 -28t-66.5 -65zM76 -150v900h58v-253q65 73 149 73q87 0 133.5 -51.5t46.5 -146.5v-183q0 -91 -53 -145t-140 -54q-86 0 -136 25v-165h-58z" />
<glyph unicode="&#xff;" horiz-adv-x="541" d="M105 -56q79 -50 164 -50q63 0 100.5 33.5t37.5 106.5v64q-64 -66 -153 -66q-178 0 -178 196v292h58v-282q0 -79 27 -115t93 -36q43 0 86 24t67 57v352h58v-499q0 -88 -54.5 -134.5t-141.5 -46.5q-108 0 -187 60zM417 635q0 -22 -13 -35t-34 -13q-22 0 -35 13t-13 35 q0 21 13 34t35 13q21 0 34 -13t13 -34zM218 635q0 -22 -13 -35t-34 -13q-22 0 -35 13t-13 35q0 21 13 34t35 13q21 0 34 -13t13 -34z" />
<glyph unicode="&#x152;" horiz-adv-x="845" d="M66 202v296q0 99 62.5 157.5t159.5 58.5q51 0 93.5 -21t63.5 -60v67h357v-61h-295v-251h245v-60h-245v-268h303v-60h-365v63q-56 -77 -157 -77q-97 0 -159.5 58.5t-62.5 157.5zM127 484v-268q0 -81 43.5 -125t115.5 -44q70 0 114.5 44.5t44.5 122.5v272q0 78 -44.5 122.5 t-114.5 44.5q-72 0 -115.5 -44t-43.5 -125z" />
<glyph unicode="&#x153;" horiz-adv-x="864" d="M70 193v134q0 95 53 149t144 54q118 0 167 -85q51 85 168 85q91 0 144 -54t52 -149v-91h-335v-30q-1 -78 35.5 -119.5t103.5 -41.5q92 0 159 50l28 -43q-76 -62 -187 -62q-118 0 -168 86q-50 -86 -167 -86q-91 0 -144 54t-53 149zM128 315v-110q0 -78 36 -118.5 t103 -40.5q136 0 138 159v110q0 78 -35.5 118.5t-102.5 40.5t-103 -40.5t-36 -118.5zM740 295v19q1 78 -35 119t-103 41t-103 -41t-36 -119v-19h277z" />
<glyph unicode="&#x178;" horiz-adv-x="502" d="M222 0v246l-213 454h68l175 -385l175 385h67l-211 -452v-248h-61zM399 792q0 -22 -13 -35t-34 -13q-22 0 -35 13t-13 35q0 21 13 34t35 13q21 0 34 -13t13 -34zM200 792q0 -22 -13 -35t-34 -13q-22 0 -35 13t-13 35q0 21 13 34t35 13q21 0 34 -13t13 -34z" />
<glyph unicode="&#x2c6;" horiz-adv-x="309" d="M68 605l60 101h55l61 -101l-49 -19l-40 76l-39 -76z" />
<glyph unicode="&#x2dc;" horiz-adv-x="381" d="M96 600l-49 12q3 31 26 53.5t57 22.5q25 0 68 -21.5t54 -21.5q29 0 35 35l48 -12q-3 -32 -24.5 -53.5t-57.5 -21.5q-20 0 -63 21t-60 21q-28 0 -34 -35z" />
<glyph unicode="&#x2000;" horiz-adv-x="448" />
<glyph unicode="&#x2001;" horiz-adv-x="897" />
<glyph unicode="&#x2002;" horiz-adv-x="448" />
<glyph unicode="&#x2003;" horiz-adv-x="897" />
<glyph unicode="&#x2004;" horiz-adv-x="299" />
<glyph unicode="&#x2005;" horiz-adv-x="224" />
<glyph unicode="&#x2006;" horiz-adv-x="149" />
<glyph unicode="&#x2007;" horiz-adv-x="149" />
<glyph unicode="&#x2008;" horiz-adv-x="112" />
<glyph unicode="&#x2009;" horiz-adv-x="179" />
<glyph unicode="&#x200a;" horiz-adv-x="49" />
<glyph unicode="&#x2010;" horiz-adv-x="369" d="M56 274v59h257v-59h-257z" />
<glyph unicode="&#x2011;" horiz-adv-x="369" d="M56 274v59h257v-59h-257z" />
<glyph unicode="&#x2012;" horiz-adv-x="369" d="M56 274v59h257v-59h-257z" />
<glyph unicode="&#x2013;" horiz-adv-x="472" d="M8 274v59h458v-59h-458z" />
<glyph unicode="&#x2014;" horiz-adv-x="797" d="M8 274v59h783v-59h-783z" />
<glyph unicode="&#x2018;" horiz-adv-x="176" d="M147 601l-20 -34q-44 19 -65.5 54t-21.5 76q0 26 14 38.5t34 12.5q19 0 33 -12.5t14 -36.5q0 -30 -29 -43q1 -24 41 -55z" />
<glyph unicode="&#x2019;" horiz-adv-x="176" d="M50 567l-20 34q40 31 41 55q-29 13 -29 43q0 24 14 36.5t33 12.5q20 0 34 -12.5t14 -38.5q0 -41 -21.5 -76t-65.5 -54z" />
<glyph unicode="&#x201a;" horiz-adv-x="176" d="M50 -95l-20 34q40 31 41 55q-29 13 -29 43q0 24 14 36.5t33 12.5q20 0 34 -12.5t14 -38.5q0 -41 -21.5 -76t-65.5 -54z" />
<glyph unicode="&#x201c;" horiz-adv-x="301" d="M147 601l-20 -34q-44 19 -65.5 54t-21.5 76q0 26 14 38.5t34 12.5q19 0 33 -12.5t14 -36.5q0 -30 -29 -43q1 -24 41 -55zM273 601l-20 -34q-44 19 -65.5 54t-21.5 76q0 26 14 38.5t34 12.5q19 0 33 -12.5t14 -36.5q0 -30 -29 -43q1 -24 41 -55z" />
<glyph unicode="&#x201d;" horiz-adv-x="301" d="M176 567l-20 34q40 31 41 55q-29 13 -29 43q0 24 14 36.5t33 12.5q20 0 34 -12.5t14 -38.5q0 -41 -21.5 -76t-65.5 -54zM50 567l-20 34q40 31 41 55q-29 13 -29 43q0 24 14 36.5t33 12.5q20 0 34 -12.5t14 -38.5q0 -41 -21.5 -76t-65.5 -54z" />
<glyph unicode="&#x201e;" horiz-adv-x="301" d="M176 -95l-20 34q40 31 41 55q-29 13 -29 43q0 24 14 36.5t33 12.5q20 0 34 -12.5t14 -38.5q0 -41 -21.5 -76t-65.5 -54zM50 -95l-20 34q40 31 41 55q-29 13 -29 43q0 24 14 36.5t33 12.5q20 0 34 -12.5t14 -38.5q0 -41 -21.5 -76t-65.5 -54z" />
<glyph unicode="&#x2022;" horiz-adv-x="402" d="M198 168q-62 0 -97 38.5t-35 114.5q0 80 35 120.5t97 40.5q65 0 102 -40.5t37 -120.5q0 -76 -37 -114.5t-102 -38.5z" />
<glyph unicode="&#x2026;" horiz-adv-x="470" d="M283 39q0 -22 -13 -35t-34 -13q-22 0 -35 13t-13 35q0 21 13 34t35 13q21 0 34 -13t13 -34zM432 39q0 -22 -13 -35t-34 -13q-22 0 -35 13t-13 35q0 21 13 34t35 13q21 0 34 -13t13 -34zM133 39q0 -22 -13 -35t-34 -13q-22 0 -35 13t-13 35q0 21 13 34t35 13q21 0 34 -13 t13 -34z" />
<glyph unicode="&#x202f;" horiz-adv-x="179" />
<glyph unicode="&#x2039;" horiz-adv-x="278" d="M107 279l113 -125l-32 -40l-133 145v41l133 145l32 -40z" />
<glyph unicode="&#x203a;" horiz-adv-x="278" d="M91 114l-32 40l113 125l-113 126l32 40l133 -145v-41z" />
<glyph unicode="&#x205f;" horiz-adv-x="224" />
<glyph unicode="&#x20ac;" horiz-adv-x="600" />
<glyph unicode="&#x2122;" horiz-adv-x="825" d="M353 245v458h58l151 -286l150 286h58v-458h-50l2 380l-135 -255h-51l-135 255l2 -380h-50zM152 245v413h-127v45h302v-45h-125v-413h-50z" />
<glyph unicode="&#x25fc;" horiz-adv-x="520" d="M0 520h520v-520h-520v520z" />
<glyph unicode="&#xfb01;" horiz-adv-x="511" d="M75 0v465h-67v55h67v85q0 88 42 119.5t133 31.5q34 0 79.5 -11.5t67.5 -21.5l-17 -46q-19 8 -64.5 17t-69.5 9q-62 0 -87 -17.5t-25 -63.5v-102h294v-520h-58v465h-237v-465h-58z" />
<glyph unicode="&#xfb02;" horiz-adv-x="493" d="M75 0v464h-67v56h67v70q0 76 52 121t138 45q91 0 153 -36v-720h-58v687q-47 13 -96 13q-131 0 -131 -125v-55h174v-56h-174v-464h-58z" />
<glyph unicode="&#xfb03;" horiz-adv-x="713" d="M75 0v464h-67v56h67v24q0 105 42.5 151.5t130.5 46.5q68 0 131 -43q54 61 139 61q54 0 98 -19l-16 -49q-36 12 -85 12q-63 0 -95.5 -44t-32.5 -119v-21h251v-520h-58v464h-192v-464h-58v464h-197v-464h-58zM133 520h197v12q2 84 23 122q-54 34 -107 34q-64 0 -88.5 -35 t-24.5 -114v-19z" />
<glyph unicode="&#xfb04;" horiz-adv-x="747" d="M75 0v464h-67v56h67v49q3 173 172 173q60 0 134 -37q53 55 139 55q91 0 153 -36v-724h-58v692q-43 12 -97 12q-130 0 -130 -148v-36h173v-56h-173v-464h-58v464h-197v-464h-58zM133 520h197v48q0 47 19 92q-51 26 -104 26q-57 0 -84.5 -27.5t-27.5 -102.5v-36z" />
</font>
</defs>
</svg>
