<?xml version="1.0" encoding="utf-8"?>
<!-- Generator: Adobe Illustrator 21.1.0, SVG Export Plug-In . SVG Version: 6.00 Build 0)  -->
<svg version="1.1" id="Layer_1" xmlns="http://www.w3.org/2000/svg" xmlns:xlink="http://www.w3.org/1999/xlink" x="0px" y="0px"
	 viewBox="0 0 635.7 74.97" style="enable-background:new 0 0 635.7 74.97;" xml:space="preserve">
<style type="text/css">
	.st0{fill:#158B44;}
</style>
<g>
	<path d="M212,23.05c-1.3-4.8-4.6-7.5-9.5-8.3c-7.5-1.2-13.9,0.6-19.2,7.5c-3.4-6.1-8.4-8.1-14.5-7.8c-6,0.2-10.7,2.8-14.3,8.4
		c-0.6-7.6-0.6-7.6-7.5-7.6c-0.5,0-1,0-1.5,0c-4.2,0.1-4.2,0.1-4.2,4.1c0,5.3,0,10.7,0,16c0,6.5,0.1,13,0,19.5c0,2.2,0.8,3,2.9,2.9
		c2.5-0.1,5,0,7.5,0c4-0.1,4-0.1,4.1-4.3c0.1-5.3-0.1-10.7,0.2-16c0.2-2.6,1-5.2,2.2-7.5c1.3-2.6,4-3.4,6.8-3.1
		c3,0.4,4.2,2.5,4.7,5.1c0.3,1.8,0.4,3.6,0.4,5.5c0.1,5.5,0,11,0,16.5c0,3.2,0.1,3.3,3.4,3.4c2.7,0.1,5.3,0,8,0
		c1.8,0,2.8-0.6,2.8-2.6c-0.1-1.5,0-3,0-4.5c0.2-5.1,0.2-10.3,0.7-15.4c0.2-1.9,1.1-3.8,2.2-5.5c1.6-2.5,4.3-3.1,7.1-2.5
		c2.7,0.5,3.8,2.5,4.2,5c0.3,2,0.5,4,0.5,5.9c0.1,5.3,0,10.7,0,16c0,3.2,0.1,3.2,3.4,3.3c2.3,0.1,4.7,0,7,0c3.6-0.1,3.7-0.1,3.7-3.5
		c0-8,0-16-0.1-24C213,27.25,212.6,25.15,212,23.05z"/>
	<path d="M30.9,2.65c-1.3-0.4-2.6-0.8-3.9-0.9c-7.8-0.3-15.6-0.6-23.4-0.8C0.1,0.85,0,1.05,0,4.55c0,8,0,16,0,23.9l0,0
		c0,8.5,0,17,0,25.4c0,2,0.5,3.1,2.8,3c3.2-0.1,6.3-0.1,9.5,0c1.9,0,2.6-0.9,2.6-2.7c-0.1-3.8,0-7.6,0-11.5c0-5.5-0.7-5.4,5.3-5.7
		c3.8-0.1,7.7-0.5,11.3-1.6c7.7-2.4,11.7-8.5,11.6-16.6C42.9,10.45,39,5.15,30.9,2.65z M23.1,26.05c-0.3,0.1-0.6,0.2-0.9,0.3
		c-6.2,1.6-7.3,0.8-7.3-5.4c0-0.7,0-1.3,0-2c0-0.5-0.1-1,0-1.5c0.5-2.1-1.3-4.9,1.4-6.2c2.8-1.3,9.2,1,10.7,3.5
		C29.7,18.95,27.8,24.45,23.1,26.05z"/>
	<path d="M125.5,15.25c-4,0-4.1,0.1-5.3,3.7c-1.6,4.9-3.1,9.8-4.7,14.7c-0.8,2.7-1.8,5.3-2.9,8.9c-0.9-2.3-1.4-3.7-1.9-5
		c-2.2-6.4-4.4-12.9-6.5-19.4c-0.5-1.5-0.9-2.9-2.8-2.9c-4.3,0-8.6,0-13.4,0c0.8,2.1,1.3,3.7,1.9,5.2c4.6,11.4,9.1,22.8,13.7,34.3
		c2.1,5.2-0.5,9.1-6.3,9.3c-1.6,0-3.3-0.2-5.4-0.3c-0.3,2.9-0.7,5.6-0.8,8.4c0,0.7,0.9,1.8,1.6,2c7.2,1.6,15.8,1.5,21-6.3
		c2.1-3.1,3.8-6.7,5.2-10.2c5-12.3,9.9-24.7,14.8-37.1c0.6-1.5,1-3,1.8-5.3C131.7,15.25,128.6,15.15,125.5,15.25z"/>
	<path d="M312.7,28.25c-0.4-6-3.5-10.7-9.6-12.9c-6.5-2.3-16.1-0.9-20.3,5.4c-0.3,0.5-0.8,0.9-1.8,2c0-2.2-0.1-3.5,0-4.8
		c0.2-2.2-0.9-2.9-3-2.8c-2.5,0.1-5,0.1-7.5,0c-2-0.1-2.6,0.9-2.6,2.7c0,12.2,0,24.3,0,36.5c0,1.9,0.7,2.7,2.6,2.7c3-0.1,6-0.1,9,0
		c2.3,0.1,3.3-0.8,3.2-3.2c-0.1-5.2-0.1-10.3,0.1-15.5c0.1-2.3,0.4-4.7,1.2-6.8c1.4-3.9,4.7-5.7,8.7-5.1c3.2,0.4,5,2.4,5.4,6.7
		s0.3,8.6,0.5,13c0.2,3.4,0.5,6.8,0.8,10.2c3.6,0.1,7.3,0.3,10.9,0.4c1.5,0.1,2.6-0.4,2.6-2.2C312.9,45.85,313.2,37.05,312.7,28.25z
		"/>
	<path d="M72.1,14.95c-4.6-0.5-9.3-0.4-13.9,0c-8.3,0.8-9.1,2-8.1,10.2c0,0.3,0.3,0.6,0.5,1c1-0.4,2.1-0.9,3.2-1
		c3.9-0.5,7.9-1.3,11.8-1.2c3.8,0,6.7,1.9,7.3,6.9c-3.5,0-6.7,0-9.8,0c-4.4,0.1-8.6,1-12.4,3.2c-4.6,2.5-6.6,6.5-6.3,11.6
		c0.2,5.1,2.8,8.8,7.5,10.8c5.4,2.3,14.5,2.8,19.6-3.8c0.4-0.4,0.9-0.8,1.3-1.2c0.3,0.4,0.5,0.5,0.5,0.6c0.1,0.3,0.2,0.6,0.2,1
		c0.2,4.3,1.2,3.9,4.2,3.8c2.2,0,4.3-0.1,6.5,0c2,0.1,3-0.4,2.9-2.8c-0.3-7.8-0.3-15.6-0.6-23.5C86,21.85,81,16.05,72.1,14.95z
		 M70.9,44.15c-2,3.3-5.1,4.6-8.9,4c-2.1-0.3-3.8-1.2-4.2-3.5c-0.4-2.4,0.8-4.7,3.2-5.5c2.2-0.7,4.5-0.9,7.1-1.4
		c1.4,0.4,4,0.7,4.1,1.5C72.4,40.65,71.7,42.65,70.9,44.15z"/>
	<path d="M259.5,25.95c-2.2-6-6.8-9.8-13.2-10.9c-3.2-0.5-6.6-0.6-9.9-0.2c-10.6,1.3-17.6,8.8-18.3,19.1
		c-0.7,11.6,5.1,19.9,15.8,22.9c5.1,1.4,10.3,1.6,15.3,0.7c9.8-1.8,9-0.6,8.4-11c0-0.1-0.2-0.3-0.4-0.6c-0.9,0.3-1.8,0.5-2.7,0.8
		c-4.7,1.5-9.4,2.3-14.2,1.1c-2.1-0.6-4.1-2-5.8-3.4c-0.8-0.7-0.8-2.3-1.1-3.6c1.1-0.2,2.2-0.6,3.3-0.7c1.7-0.1,3.3,0,5,0
		c5.7,0,11.3,0.1,17,0c3.2,0,3.6-0.3,3.2-3.5C261.3,32.95,260.8,29.35,259.5,25.95z M246.6,32.05c-4.4,0.1-8.9,0-13.3,0
		c0.5-5.8,3-8.6,7.3-8.9c3.9-0.3,7.3,2,8.2,5.8C249.5,31.15,249,31.95,246.6,32.05z"/>
	<path class="st0" d="M429.1,27.85c-2.7-1.4-5.4-2.5-8.2-3.7c-1.7-0.8-3.4-1.4-5-2.3c-2.5-1.4-4.3-3.3-3.9-6.4
		c0.4-3.3,2.2-5.6,5.3-6.6c1.7-0.5,3.6-0.6,5.4-0.5c3.1,0.3,6.2,0.9,9.6,1.4c1.4-9.7,2.2-7.8-5.7-9.3c-0.3-0.1-0.6-0.2-1-0.2
		c-5.7-0.6-11.3-0.2-16.6,2.3c-10.3,5-10.6,21.6-1.1,26.4c2.7,1.3,5.4,2.5,8.1,3.8c2.2,1.1,4.6,2,6.6,3.4c4.1,3,4,8.1-0.3,10.8
		c-1.9,1.2-4.4,2-6.5,2c-4.2-0.2-8.4-1.1-13-1.8c-0.2,1.7-0.5,3.8-0.7,5.9c-0.2,1.6,0.4,2.4,2,2.8c7.7,2.1,15.5,2.5,23-0.5
		c5.8-2.3,9-6.8,9.4-13C437.2,36.05,434.9,30.85,429.1,27.85z"/>
	<path d="M350.1,48.35c-1.8,0-3.1,0.1-4.4,0c-3.5-0.3-5.3-1.7-5.5-5.2c-0.3-5.1-0.1-10.3-0.1-15.5c0-1.3,0.6-2,1.7-2.1h8.3v-1.7
		v-0.1c0-0.8,0-1.6,0-2.4v-6.1H342c-1.8-0.2-1.8-0.7-1.9-3.4c-0.1-3.1,0-10.1,0-10.1l-14,5.2c0,0,0,3.2,0,4.2
		c-0.1,3.1-0.1,3.9-1.8,4.1h-7v10.4h6.2c2.2,0.2,2.3,0.6,2.4,3.6c0.1,5.5-0.1,11,0.2,16.5c0.4,7.6,4.3,11.5,11.9,12.1
		c3.1,0.2,6.3,0.1,9.5-0.1c3.3-0.2,3.5-0.4,3.3-3.6C350.6,52.15,350.3,50.25,350.1,48.35z"/>
	<path d="M383.6,32.95c-2.3-0.9-4.8-1.4-7.1-2.2c-1.7-0.5-3.6-1-5.1-1.8c-0.9-0.5-1.8-1.8-1.7-2.6c0.1-0.9,1.3-2,2.2-2.3
		c1.4-0.5,3-0.6,4.4-0.5c3.6,0.4,7.1,1.1,11,1.8c0.3-2,0.5-4.1,0.9-6.2c0.3-2-0.5-3-2.5-3.5c-6.4-1.6-12.8-2.4-19.2-0.4
		c-2,0.6-4,1.7-5.7,2.9c-6.5,4.6-6.9,16.4,2.3,19.9c2.6,1,5.4,1.7,8,2.6c1.4,0.5,3,0.9,4,1.8c0.8,0.7,1.4,2.3,1.3,3.4
		c-0.1,0.8-1.4,1.9-2.4,2.1c-1.6,0.4-3.3,0.5-4.9,0.3c-3.9-0.5-7.8-1.3-11.9-2c-0.3,2.2-0.6,4.5-1,6.8c-0.3,1.8,0.3,2.9,2.2,3.1
		c3.8,0.5,7.6,1.2,11.4,1.4c4.8,0.2,9.6-0.3,14.1-2.5c4.7-2.3,6.9-6.1,6.9-11.2C390.9,38.65,388.4,34.95,383.6,32.95z"/>
	<path class="st0" d="M462,15.15c-12.7-0.1-21.7,8.8-21.7,21.6c0,12.3,9,21,21.7,20.9c12.5,0,21-8.5,21-21
		C483.1,23.85,474.6,15.25,462,15.15z M470.8,44.55c-1.9,3.8-5.2,5.5-9.4,5.4c-4-0.1-7.2-1.9-8.7-5.7c-1.1-2.7-1.6-5.7-2.3-8.4
		c0.6-2.6,0.9-5,1.8-7c1.8-3.9,5-6.2,9.5-6.1c4.5,0.1,8,2.1,9.8,6.4C473.6,34.35,473.2,39.55,470.8,44.55z"/>
	<path class="st0" d="M635.7,30.05c-1.2-7.4-5.2-12.8-13.3-14.3c-7.8-1.5-14.8-0.2-19.7,6.4c-4.5,5.9-5.2,12.9-3.9,20
		c1.6,8.2,6.5,13.2,14.8,14.9c4.8,1,9.6,0.8,14.3-0.4c5.2-1.3,5.5-1.8,5.4-7.2c0-0.5-0.2-1-0.3-1.7c-4,1-7.6,2.3-11.4,2.9
		c-5.7,0.9-11-2.2-13-7.1c-1.2-3-0.7-4,2.5-4c5.7-0.1,11.3,0.1,17-0.1C638.5,39.25,637.5,41.55,635.7,30.05z M624.7,32.75
		c-2.5,0.1-5,0-7.5,0l0,0c-2.3,0-4.6,0-7,0c-1.6,0-2.5-0.7-2.3-2.5c0.5-4.4,4.5-8,9.3-8.2c4.7-0.2,8.7,3.2,9.4,7.9
		C626.9,31.65,626.3,32.65,624.7,32.75z"/>
	<path class="st0" d="M526.8,18.25c-0.1-0.7-1-1.9-1.6-1.9c-2.5-0.1-5.3-0.5-7.3,0.5c-1.1,0.6-0.8,3.9-0.9,6
		c-0.3,5.8-0.3,11.6-0.7,17.4c-0.2,2.9-1.3,5.5-3.5,7.5c-4.9,4.5-11.5,2.5-13-3.9c-0.5-2.1-0.6-4.3-0.7-6.4c-0.1-5,0-10,0-15
		c-0.1-7.1,0.9-6.3-6.4-6.3c-3.2,0-3.3,0.1-3.3,3.4c0,7.7-0.1,15.3,0.1,23c0,2.1,0.4,4.3,1,6.4c1.5,5.2,5.2,8,10.5,8.7
		c4.3,0.6,8.3-0.4,11.8-3c1.2-0.9,2.3-1.8,3.9-3c1.3,5.2,1.3,5.2,6.3,5.1c0.2,0,0.3,0,0.5,0c3.2-0.1,3.3-0.1,3.3-3.4
		c0-9.3,0-18.7,0-28C526.9,22.95,527,20.55,526.8,18.25z"/>
	<path class="st0" d="M592.7,48.45c-6.5,2.1-12.5,2.8-16.8-3.4c-3.1-4.4-3-13.2,0.1-17.6c3.9-5.5,9.4-5.4,15.7-3.9
		c0.4-1.7,0.7-3,0.9-4.3c0.4-1.9,0-3.2-2.3-3.4c-3.1-0.2-6.3-0.9-9.4-0.7c-8,0.7-13.7,4.8-16.4,12.5c-1.6,4.5-1.7,9.2-0.9,13.8
		c1.6,8.8,7.3,14.7,15.6,15.9c3.1,0.4,6.3,0.3,9.5,0c5.1-0.5,5.1-0.7,4.5-5.9C593.1,50.55,592.9,49.55,592.7,48.45z"/>
	<path class="st0" d="M552.1,16.75c-1.6,1.1-2.9,2.7-4.2,4.2c-0.8,1-1.4,2.2-2,3.3c-0.3-0.1-0.6-0.2-0.9-0.3c0-1.5,0-3,0-4.4
		c-0.1-3.3-0.1-3.3-3.3-3.4c-0.5,0-1,0-1.5,0c-3.7,0.1-3.8,0.1-3.8,3.9c0,10-0.1,20,0,30c0.1,7.3-1.4,6.5,6.6,6.5
		c3.1,0,3.2-0.2,3.4-3.5c0.2-6,0.2-12,0.6-18c0.5-7.2,3.4-9.9,10.6-10.4c0.8-0.1,2.3-0.7,2.3-1.1c0-2.7,0.6-6.2-0.8-8
		C557.7,13.85,554.2,15.25,552.1,16.75z"/>
</g>
</svg>
