<?xml version="1.0" encoding="utf-8"?>
<!-- Generator: Adobe Illustrator 21.1.0, SVG Export Plug-In . SVG Version: 6.00 Build 0)  -->
<svg version="1.1" id="Layer_1" xmlns="http://www.w3.org/2000/svg" xmlns:xlink="http://www.w3.org/1999/xlink" x="0px" y="0px"
	 viewBox="0 0 715 161.5" style="enable-background:new 0 0 715 161.5;" xml:space="preserve">
<style type="text/css">
	.st0{fill:#FFFFFF;}
	.st1{fill:#E3000B;}
</style>
<g>
	<path class="st0" d="M315.5,121.9c0,1.3,0,2.5,0,3.8c-14.9,0-29.8,0-44.8,0c0-1.3,0-2.5,0-3.8c0.9-0.2,1.8-0.4,2.8-0.6
		c2.7-0.6,4.3-2.3,4.8-5c0.4-2,0.6-4,0.7-6.1c0.2-7.4,0.3-14.8,0.3-22.2c0-8.8,0.1-17.5-0.1-26.3c0-2.2-0.5-4.4-1.1-6.4
		c-1.3-4-4.7-5.6-8.8-4.6c-2.8,0.7-4.9,2.4-6.9,4.4c-2.9,3.1-5,6.7-6.7,10.4c-0.2,0.4-0.2,0.9-0.2,1.4c0,14.2,0,28.3,0.1,42.5
		c0,2.1,0.3,4.1,0.7,6.2c0.6,3.4,2.7,5.4,6.1,6.1c0.2,0,0.4,0.1,0.6,0.1s0.4,0.1,0.6,0.1c0,1.3,0,2.5,0,3.8c-14.4,0-28.8,0-43.3,0
		c0-1.3,0-2.5,0-3.8c0-0.1,0.1-0.1,0.1-0.1c5.1-1.2,7-4.9,7.3-9.7c0.1-2.3,0.3-4.6,0.3-6.9c0-13.6,0.1-27.1,0-40.7
		c0-3.1-0.3-6.3-1-9.4c-1.1-4.5-4.6-6.2-9-4.8c-3.7,1.1-6.3,3.7-8.7,6.6c-0.2,0.2-0.3,0.4-0.4,0.6c-2.8,3.4-4.2,7-4.1,11.6
		c0.3,13.6,0.1,27.2,0.1,40.8c0,2,0.2,4.1,0.5,6.1c0.4,2.8,2.1,4.6,4.8,5.4c0.8,0.2,1.6,0.4,2.5,0.6c0,1.2,0,2.5,0,3.8
		c-14.9,0-29.7,0-44.8,0c0-1.1,0-2.3,0-3.4c0-0.2,0.4-0.5,0.6-0.6c0.9-0.4,1.9-0.6,2.8-1c3.3-1.6,4.6-4.5,5.1-7.9
		c0.2-1.4,0.3-2.9,0.3-4.3c0-18.6,0-37.1,0-55.7c0-0.8,0-1.6-0.1-2.4c-0.6-4.2-2.5-6.3-6.7-7.2c-0.5-0.1-1.1-0.2-1.7-0.3
		c0-1.2,0-2.5,0-3.8c12.3,0,24.5,0,36.8,0c0,4.6,0,9.2,0,14c1.4-1.6,2.6-3,3.8-4.3c4.6-4.8,9.8-8.8,16.4-10.4
		c7.3-1.7,14.3-1.2,20.5,3.7c4.2,3.3,6.3,7.9,7.8,12.9c0.1,0.5,0.3,0.9,0.5,1.6c0.4-0.6,0.8-1,1.1-1.4c3.2-4.3,6.7-8.5,11-11.8
		c7.4-5.7,15.7-7.4,24.5-4c8.6,3.4,13.7,10.1,15,19.1c0.8,5.5,1.1,11.1,1.2,16.7c0.2,12.2,0.1,24.4,0.1,36.6c0,1.3,0.2,2.5,0.5,3.8
		c0.5,2.7,2.1,4.4,4.7,5.3C313.2,121.2,314.3,121.5,315.5,121.9z"/>
	<path class="st0" d="M610.6,38.9c0,3,0,5.7,0,8.6c-6,0-11.9,0-18.1,0c0.3,0.5,0.6,0.8,0.8,1.2c2,3.2,4.3,6.4,6.1,9.8
		c4.8,9.2,3.3,18.1-2.3,26.4c-4.6,6.8-11.3,10.8-19.1,13.1c-7.7,2.3-15.5,2.7-23.4,1.1c-0.6-0.1-1.2-0.2-1.8-0.2
		c-4,0-7.9,0-11.9,0.2c-1.6,0-2.3,0.8-2.4,2c-0.1,1.4,0.6,2.3,2.1,2.5c1.1,0.2,2.2,0.3,3.3,0.3c11.5,0,23-0.1,34.4,0
		c6.5,0.1,12.9,0.7,19.1,3c6.1,2.3,10.7,6.1,12.3,12.7c1.4,5.7,0.9,11.3-1.7,16.6c-3.3,7-9.2,11.2-16.1,14.2c-7,3-14.3,4.3-21.8,4.6
		c-11.1,0.5-22.1,0.1-32.9-3c-4.1-1.2-7.9-2.8-11.1-5.7c-3.8-3.4-5-7.7-3.7-12.6c0.6-2.2,1.9-4,3.8-5.2c2.4-1.5,5-2.7,7.6-4.1
		c0.4-0.2,0.9-0.4,1.1-0.5c-1.8-1.5-3.7-2.8-5.3-4.4c-4.8-4.9-5.5-13.3-1.7-18.8c2.4-3.4,5.8-5,9.6-6.1c1-0.3,1.9-0.5,3.1-0.8
		c-0.9-0.6-1.7-1.1-2.4-1.6c-4.9-3.3-9.4-7.2-12.2-12.5c-5.3-10.4-4.3-20.4,2.6-29.6c5.6-7.5,13.4-11.7,22.4-13.8
		c9.3-2.1,18.3-1.3,27.2,2c1.1,0.4,2.4,0.6,3.6,0.6c9,0.1,17.9,0,26.9,0C609.6,38.9,610,38.9,610.6,38.9z M575.8,67.4
		c0-2.2,0.1-4.5,0-6.7c0-1.4-0.2-2.7-0.4-4c-0.5-3.5-1.3-7-3.4-10c-4-5.9-12.2-6.1-16.2-0.2c-1.4,2.1-2.5,4.6-3.1,7.1
		c-2.2,8.6-2,17.4-0.6,26.2c0.5,3.3,1.5,6.5,3.5,9.4c3.5,5,10.3,5.9,14.8,1.9c2-1.9,3.1-4.3,3.9-6.9C575.7,78.6,575.9,73,575.8,67.4
		z M564.9,125.6c0,0.1,0,0.3,0,0.4c-2.5,0-5-0.1-7.4,0c-2.5,0.1-4.9,0.3-7.4,0.4c-2.6,0.2-5.1,0.9-7.3,2.4c-4.4,2.9-5,8.2-1.5,12.1
		c2.1,2.4,4.9,3.7,7.8,4.7c7,2.2,14.3,2.6,21.6,2.3c4.6-0.2,9.2-0.9,13.5-2.5c3.5-1.3,6.8-3,8.8-6.5c2.3-4,1.2-8.1-3-10
		c-2.1-1-4.5-1.7-6.8-1.9C577.1,126.4,571,126.1,564.9,125.6z"/>
	<path class="st0" d="M359,151.6c0,1.1,0,2.2,0,3.4c-17.2,0-34.4,0-51.7,0c0-1.1,0-2.3,0-3.5c0.7-0.1,1.4-0.2,2.2-0.3
		c5.8-1,8.6-3.9,9.2-9.9c0.2-1.5,0.3-3.1,0.3-4.7c0-26.4,0-52.8,0-79.2c0-0.7,0-1.4-0.1-2c-0.7-5.1-3.1-7.3-9-8
		c-0.3,0-0.6-0.1-0.9-0.1c0-1.2,0-2.4,0-3.7c12.5-2.6,25-5.2,37.7-7.8c0,4.1,0,8,0,11.9c0.1,0,0.2,0.1,0.2,0.1
		c0.6-0.7,1.1-1.4,1.7-2c3.3-3.8,6.9-7,11.7-8.7c7.2-2.4,13.8-1.1,19.9,3.1c6.4,4.4,10.6,10.5,13.3,17.6c6.7,17.6,6.2,35-2.7,51.8
		c-3.4,6.3-8.1,11.6-14.6,14.8c-7.7,3.7-15.4,4-22.7-0.9c-2.2-1.5-3.9-3.7-5.9-5.6c-0.3-0.3-0.5-0.6-0.9-1.1c0,0.5-0.1,0.8-0.1,1.1
		c0,7.4,0,14.7,0.1,22.1c0,1.7,0.3,3.3,0.6,5c0.6,2.8,2.4,4.7,5.2,5.4C354.7,150.8,356.8,151.1,359,151.6z M346.8,85L346.8,85
		c0,6.3,0,12.6-0.1,18.9c0,1.9,0.5,3.4,1.5,4.9c1.9,2.7,3.9,5.3,7,6.7c4.3,2.1,8.4,0.8,10.8-3.2c1.4-2.4,2.1-5,2.3-7.6
		c0.5-4.5,0.8-9.1,1-13.6c0.4-9.6,0.4-19.2-1-28.7c-0.5-3.4-1.3-6.7-3.2-9.6c-1.1-1.6-2.5-2.7-4.4-3.1c-4-1-8,0.6-10.6,4.3
		c-2.3,3.2-3.3,6.9-3.3,10.8C346.7,71.5,346.8,78.2,346.8,85z"/>
	<path class="st0" d="M656,125.7c-14.5,0-28.7,0-43.2,0c0-1.2,0-2.5,0-3.7c0-0.2,0.3-0.5,0.5-0.5c4.4-0.7,5.9-3.8,6.3-7.8
		c0.2-2.1,0.4-4.2,0.4-6.3c0-17.6,0-35.3,0-52.9c0-1.1-0.1-2.2-0.2-3.2c-0.5-3.6-2.7-5.9-6.1-7.1c-1.6-0.6-2.3-1.4-2-3.1
		c0.1-0.6,0-1.3,0-2c12.2,0,24.2,0,36.5,0c0,4.1,0,8.3,0,12.4c0.1,0.1,0.3,0.2,0.4,0.3c0.2-0.3,0.3-0.6,0.5-0.9
		c3.5-4,7.1-7.9,11.8-10.7c8.8-5.2,17.9-5.4,26.9-0.3c5.1,2.9,7.8,7.8,9.6,13.2c2,5.9,2.6,11.9,2.6,18.1c0,12.7,0,25.4,0,38.2
		c0,1.9,0.3,3.8,0.6,5.7c0.7,3.4,2.9,5.3,6.1,6.2c0.5,0.1,1,0.2,1.6,0.4c0,1.4,0,2.7,0,4.1c-14.7,0-29.3,0-44.1,0c0-1.2,0-2.4,0-3.6
		c0-0.3,0.3-0.7,0.6-0.8c4.8-1.7,6.2-5.5,6.3-10.1c0-2.1-0.2-4.2-0.2-6.2c0-14.9,0-29.8,0-44.6c0-1.9-0.2-3.9-0.8-5.8
		c-1.2-4.4-5-6.2-9.3-4.6c-3.4,1.2-5.8,3.7-8,6.3c-4.7,5.7-4.7,5.7-4.7,13c0,13.1,0,26.2,0,39.2c0,1.8,0.2,3.6,0.5,5.4
		c0.6,3.6,2.6,6.1,6,7.2c0.9,0.3,1.2,0.8,1.1,1.7C655.9,123.7,656,124.6,656,125.7z"/>
	<path class="st0" d="M486.5,113.1c-4.5,7.1-10.1,12.4-18.7,13.7c-6.2,0.9-12.1,0.2-17-4.1c-2.9-2.6-4.5-5.9-5.6-9.6
		c-0.1-0.2-0.1-0.4-0.3-0.8c-1.6,1.3-3.2,2.5-4.8,3.7c-4.5,3.4-9.1,6.5-14.3,8.6c-5,2-10.1,2.7-15.4,1.2c-7.9-2.3-13.2-9-13.7-17.5
		c-0.4-7.9,2.4-14.5,7.8-20.2c5.5-5.8,12.2-10,19.2-13.8c6.9-3.7,14.2-6.8,21.6-9.3c0.4-0.1,0.9-0.5,0.9-0.8
		c-0.1-4.1,0-8.2-0.4-12.2c-0.5-5-3.7-8-8.4-9.1c-4.7-1.1-9.3-0.6-13.5,2.1c-1,0.7-1.9,1.7-2.6,2.7c-1.1,1.6-1.1,3.4,0,5.1
		c0.8,1.3,1.7,2.5,2.7,3.6c4.7,4.9,2.9,10.8-0.6,14c-4.8,4.3-10.4,5.5-16.4,3.2c-5.2-2-7.5-6.4-7.7-11.8c-0.3-6.2,2.5-11.1,6.8-15.2
		c5.9-5.6,13.1-8.6,21-10.2c10.2-2.1,20.4-1.9,30.4,1.3c2.7,0.9,5.2,2.2,7.7,3.6c5,3,7.6,7.7,8.1,13.4c0.3,3,0.4,6.1,0.5,9.1
		c0,13.1,0,26.2,0,39.2c0,2.5,0.2,5,0.5,7.4c0.4,2.8,1.8,4.1,4,3.7c0.9-0.1,1.8-0.8,2.6-1.3c0.7-0.5,1.2-1.3,2-2.1
		C484.2,111.5,485.3,112.3,486.5,113.1z M445,71c-0.3,0-0.4,0-0.6,0.1c-1,0.5-2,0.9-3,1.4c-8.4,4.5-14.6,10.9-17.1,20.4
		c-1.1,4.3-1.4,8.7,0.3,13c1.9,4.9,6.2,6.9,11.3,5.4c3-0.9,5.5-2.6,8-4.5c0.9-0.7,1.2-1.4,1.2-2.5c0-10.6,0-21.3,0-31.9
		C445,71.9,445,71.4,445,71z"/>
	<path class="st0" d="M133.1,112.4c-2.5,1.9-4.9,3.9-7.4,5.7c-4.4,3.2-9,6.1-14.3,7.6c-5.2,1.5-10.4,1.6-15.3-0.8
		c-7.6-3.7-10.9-10-10.9-18.2c0-8.6,3.9-15.3,10.1-20.9c6.8-6.2,14.6-10.6,22.8-14.4c5.1-2.3,10.4-4.2,15.6-6.4
		c0.3-0.1,0.8-0.6,0.8-0.9c0-3.9,0.1-7.8-0.3-11.7c-0.4-5-3.2-8.1-8.1-9.3c-4.1-1.1-8.2-0.8-12,1c-1.5,0.7-2.8,1.8-3.9,3
		c-1.6,1.9-1.6,4.2-0.2,6.2c0.8,1.1,1.6,2.2,2.5,3.2c4.4,5.1,2.5,11-1,14c-4.8,4.2-10.3,5.3-16.2,3.1c-4.6-1.7-7.6-6.4-7.8-11.5
		c-0.2-7,3-12.3,8.1-16.6c5.4-4.7,11.9-7.3,18.8-8.9c10.8-2.4,21.5-2.2,32,1.3c2.5,0.8,4.8,2.1,7.1,3.4c5.2,3.2,7.8,7.9,8.2,14
		c0.1,2.6,0.3,5.1,0.3,7.7c0,13.3,0,26.6,0,39.8c0,2.7,0.3,5.3,0.7,8c0.6,4.2,4.7,4.2,6.8,1.9c0.6-0.7,1.3-1.3,2-2.1
		c1,0.8,2.1,1.6,3.1,2.4c-4.6,7.6-10.7,12.8-19.7,13.8c-3.8,0.4-7.6,0.2-11.2-1.3c-5.6-2.2-8.6-6.6-10.3-12.2
		C133.4,113.2,133.3,112.8,133.1,112.4z M133.1,71.1c-0.3,0-0.4,0-0.5,0c-1,0.4-2,0.9-2.9,1.4c-8.3,4.4-14.5,10.8-17.2,20.1
		c-1.2,4.3-1.5,8.7,0.1,13c2,5.2,6.5,7.4,11.8,5.6c2.9-1,5.4-2.7,7.8-4.6c0.7-0.5,1-1.1,1-2c0-10.7,0-21.4,0-32.1
		C133.1,71.9,133.1,71.5,133.1,71.1z"/>
	<path class="st0" d="M81,101.8c1.1,1.2,2.1,2.4,3.1,3.6c-2.4,3.5-5,6.7-8,9.6c-5.6,5.5-12.1,9.5-19.8,11.1
		c-13.5,2.7-25.9,0.3-36.4-8.9c-7.3-6.3-11.5-14.5-13-24c-2.6-15.4,0.9-29.4,11-41.5C27,41,38.7,35.2,53,35.4
		c10.1,0.1,19.2,3.4,26.5,10.6c3.9,3.9,6.3,8.5,6.6,14.2c0.3,6.1-3.5,11.9-9.2,13.5c-6.2,1.7-12.4-1-15.3-6.6c-2-3.8-2.6-7.9-2.9-12
		c-0.2-2-0.3-4-0.7-5.9c-0.9-4.3-3.6-6.2-8-6c-4.8,0.2-8.2,2.8-10.9,6.5c-3.2,4.4-4.9,9.5-5.5,14.9c-1.3,11.5,0.5,22.5,6.4,32.7
		c3,5.2,6.9,9.4,12.3,12.1c6.5,3.1,12.9,2.8,19.1-0.7c3-1.7,5.8-4,8.7-6C80.2,102.4,80.6,102.1,81,101.8z"/>
	<path class="st0" d="M478.4,43.5c0-1.5,0-3,0-4.5c12.8,0,25.6,0,38.5,0c0,0.6,0,1.1,0,1.7c0,22.9,0,45.8,0,68.7
		c0,1.2,0.1,2.4,0.3,3.6c0.8,4.8,3,7.1,7.7,8.2c2.2,0.5,2.2,0.5,2.2,2.7c0,0.6,0,1.1,0,1.7c-15.4,0-30.8,0-46.3,0c0-1.2,0-2.5,0-3.8
		c0-0.2,0.3-0.4,0.5-0.5c6.2-1.8,7.8-6.6,7.8-12.3c0-18.1,0-36.1,0-54.2c0-1-0.1-2.1-0.3-3.1c-0.4-3.8-2.6-6.1-6.2-7.1
		C481.3,44.3,479.9,43.9,478.4,43.5z"/>
	<path class="st1" d="M516.8,22.8c0,7.8-6.2,13.9-13.9,13.9c-7.7,0-13.7-6.1-13.7-13.9c0-8.1,6-14.2,13.9-14.2
		C510.7,8.7,516.8,15,516.8,22.8z"/>
</g>
</svg>
