<?xml version="1.0" encoding="UTF-8"?> <svg xmlns="http://www.w3.org/2000/svg" xmlns:xlink="http://www.w3.org/1999/xlink" id="Layer_1" width="1400" height="1400" viewBox="0 0 1400 1400"><defs><style>.cls-1{stroke:url(#linear-gradient-22);stroke-width:.08px;}.cls-1,.cls-2,.cls-3,.cls-4,.cls-5,.cls-6,.cls-7,.cls-8,.cls-9,.cls-10,.cls-11,.cls-12,.cls-13,.cls-14,.cls-15,.cls-16,.cls-17,.cls-18,.cls-19,.cls-20,.cls-21,.cls-22,.cls-23,.cls-24,.cls-25,.cls-26,.cls-27,.cls-28,.cls-29,.cls-30,.cls-31,.cls-32,.cls-33,.cls-34,.cls-35,.cls-36,.cls-37,.cls-38,.cls-39,.cls-40,.cls-41,.cls-42,.cls-43,.cls-44,.cls-45,.cls-46,.cls-47,.cls-48,.cls-49,.cls-50,.cls-51,.cls-52,.cls-53,.cls-54,.cls-55,.cls-56,.cls-57,.cls-58,.cls-59,.cls-60,.cls-61,.cls-62,.cls-63,.cls-64,.cls-65,.cls-66,.cls-67,.cls-68,.cls-69,.cls-70,.cls-71,.cls-72,.cls-73,.cls-74,.cls-75,.cls-76{fill:none;stroke-miterlimit:10;}.cls-2{stroke:url(#linear-gradient-8);stroke-width:.02px;}.cls-3{stroke:url(#linear-gradient-39);stroke-width:.48px;}.cls-4{stroke:url(#linear-gradient-16);stroke-width:.04px;}.cls-5{stroke:url(#linear-gradient-24);stroke-width:.1px;}.cls-6{stroke:url(#linear-gradient-33);stroke-width:.25px;}.cls-7{stroke:url(#linear-gradient-25);stroke-width:.11px;}.cls-8{stroke:url(#linear-gradient-44);stroke-width:.81px;}.cls-9{stroke:url(#linear-gradient-9);stroke-width:.02px;}.cls-10{stroke:url(#linear-gradient-3);stroke-width:.01px;}.cls-11{stroke:url(#linear-gradient-21);stroke-width:.07px;}.cls-12{stroke:url(#linear-gradient-5);stroke-width:.01px;}.cls-13{stroke:url(#linear-gradient-40);stroke-width:.53px;}.cls-14{stroke:url(#linear-gradient-14);stroke-width:.03px;}.cls-15{stroke:url(#linear-gradient);stroke-width:0px;}.cls-16{stroke:url(#linear-gradient-11);stroke-width:.03px;}.cls-17{stroke:url(#linear-gradient-31);stroke-width:.21px;}.cls-18{stroke:url(#linear-gradient-29);stroke-width:.17px;}.cls-19{stroke:url(#linear-gradient-13);stroke-width:.03px;}.cls-20{stroke:url(#linear-gradient-12);stroke-width:.03px;}.cls-21{stroke:url(#linear-gradient-4);stroke-width:.01px;}.cls-22{stroke:url(#linear-gradient-38);stroke-width:.43px;}.cls-23{stroke:url(#linear-gradient-23);stroke-width:.09px;}.cls-24{stroke:url(#linear-gradient-6);stroke-width:.01px;}.cls-25{stroke:url(#linear-gradient-43);stroke-width:.73px;}.cls-26{stroke:url(#linear-gradient-36);stroke-width:.35px;}.cls-27{stroke:url(#linear-gradient-2);stroke-width:0px;}.cls-28{stroke:url(#linear-gradient-27);stroke-width:.14px;}.cls-29{stroke:url(#linear-gradient-15);stroke-width:.04px;}.cls-30{stroke:url(#linear-gradient-28);stroke-width:.15px;}.cls-31{stroke:url(#linear-gradient-34);stroke-width:.28px;}.cls-32{stroke:url(#linear-gradient-18);stroke-width:.05px;}.cls-33{stroke:url(#linear-gradient-37);stroke-width:.39px;}.cls-34{stroke:url(#linear-gradient-49);}.cls-35{stroke:url(#linear-gradient-46);}.cls-36{stroke:url(#linear-gradient-48);}.cls-37{stroke:url(#linear-gradient-47);}.cls-38{stroke:url(#linear-gradient-66);}.cls-39{stroke:url(#linear-gradient-60);}.cls-40{stroke:url(#linear-gradient-63);}.cls-41{stroke:url(#linear-gradient-64);}.cls-42{stroke:url(#linear-gradient-61);}.cls-43{stroke:url(#linear-gradient-62);}.cls-44{stroke:url(#linear-gradient-67);}.cls-45{stroke:url(#linear-gradient-68);}.cls-46{stroke:url(#linear-gradient-65);}.cls-47{stroke:url(#linear-gradient-53);}.cls-48{stroke:url(#linear-gradient-51);}.cls-49{stroke:url(#linear-gradient-52);}.cls-50{stroke:url(#linear-gradient-55);}.cls-51{stroke:url(#linear-gradient-56);}.cls-52{stroke:url(#linear-gradient-50);}.cls-53{stroke:url(#linear-gradient-59);}.cls-54{stroke:url(#linear-gradient-54);}.cls-55{stroke:url(#linear-gradient-69);}.cls-56{stroke:url(#linear-gradient-57);}.cls-57{stroke:url(#linear-gradient-58);}.cls-58{stroke:url(#linear-gradient-72);}.cls-59{stroke:url(#linear-gradient-73);}.cls-60{stroke:url(#linear-gradient-74);}.cls-61{stroke:url(#linear-gradient-75);}.cls-62{stroke:url(#linear-gradient-70);}.cls-63{stroke:url(#linear-gradient-71);}.cls-64{stroke:url(#linear-gradient-76);}.cls-65{stroke:url(#linear-gradient-35);stroke-width:.31px;}.cls-66{stroke:url(#linear-gradient-20);stroke-width:.06px;}.cls-67{stroke:url(#linear-gradient-41);stroke-width:.59px;}.cls-68{stroke:url(#linear-gradient-10);stroke-width:.02px;}.cls-69{stroke:url(#linear-gradient-45);stroke-width:.9px;}.cls-70{stroke:url(#linear-gradient-32);stroke-width:.23px;}.cls-71{stroke:url(#linear-gradient-17);stroke-width:.05px;}.cls-72{stroke:url(#linear-gradient-7);stroke-width:.02px;}.cls-73{stroke:url(#linear-gradient-26);stroke-width:.12px;}.cls-74{stroke:url(#linear-gradient-42);stroke-width:.66px;}.cls-75{stroke:url(#linear-gradient-19);stroke-width:.06px;}.cls-76{stroke:url(#linear-gradient-30);stroke-width:.19px;}</style><linearGradient id="linear-gradient" x1="697.55" y1="695.94" x2="697.88" y2="695.94" gradientTransform="translate(691.64 702.03) rotate(-90) scale(0)" gradientUnits="userSpaceOnUse"><stop offset="0" stop-color="#f0f"></stop><stop offset="1" stop-color="#399ec7"></stop></linearGradient><linearGradient id="linear-gradient-2" x1="697.52" y1="695.95" x2="697.9" y2="695.95" gradientTransform="translate(689.9 701.44) rotate(-80) scale(0)" xlink:href="#linear-gradient"></linearGradient><linearGradient id="linear-gradient-3" x1="678.86" y1="695.94" x2="716.58" y2="695.94" gradientTransform="translate(688.1 700.44) rotate(-70) scale(.01)" xlink:href="#linear-gradient"></linearGradient><linearGradient id="linear-gradient-4" x1="678.86" y1="695.94" x2="716.58" y2="695.94" gradientTransform="translate(686.33 699.01) rotate(-60) scale(.01)" xlink:href="#linear-gradient"></linearGradient><linearGradient id="linear-gradient-5" x1="678.86" y1="695.94" x2="716.58" y2="695.94" gradientTransform="translate(684.66 697.1) rotate(-50) scale(.01)" xlink:href="#linear-gradient"></linearGradient><linearGradient id="linear-gradient-6" x1="678.86" y1="695.94" x2="716.58" y2="695.94" gradientTransform="translate(683.21 694.69) rotate(-40) scale(.01)" xlink:href="#linear-gradient"></linearGradient><linearGradient id="linear-gradient-7" x1="678.86" y1="695.94" x2="716.58" y2="695.94" gradientTransform="translate(682.08 691.77) rotate(-30) scale(.02)" xlink:href="#linear-gradient"></linearGradient><linearGradient id="linear-gradient-8" x1="678.86" y1="695.94" x2="716.58" y2="695.94" gradientTransform="translate(681.41 688.36) rotate(-20) scale(.02)" xlink:href="#linear-gradient"></linearGradient><linearGradient id="linear-gradient-9" x1="678.85" y1="695.94" x2="716.58" y2="695.94" gradientTransform="translate(681.34 684.5) rotate(-10) scale(.02)" xlink:href="#linear-gradient"></linearGradient><linearGradient id="linear-gradient-10" x1="678.85" y1="695.94" x2="716.58" y2="695.94" gradientTransform="translate(682 680.27) scale(.02)" xlink:href="#linear-gradient"></linearGradient><linearGradient id="linear-gradient-11" x1="678.85" y1="695.94" x2="716.59" y2="695.94" gradientTransform="translate(683.54 675.76) rotate(10) scale(.03)" xlink:href="#linear-gradient"></linearGradient><linearGradient id="linear-gradient-12" x1="678.85" y1="695.94" x2="716.59" y2="695.94" gradientTransform="translate(686.1 671.12) rotate(20) scale(.03)" xlink:href="#linear-gradient"></linearGradient><linearGradient id="linear-gradient-13" x1="678.85" y1="695.94" x2="716.59" y2="695.94" gradientTransform="translate(689.8 666.54) rotate(30) scale(.03)" xlink:href="#linear-gradient"></linearGradient><linearGradient id="linear-gradient-14" x1="678.85" y1="695.94" x2="716.59" y2="695.94" gradientTransform="translate(694.73 662.24) rotate(40) scale(.03)" xlink:href="#linear-gradient"></linearGradient><linearGradient id="linear-gradient-15" x1="678.85" y1="695.94" x2="716.59" y2="695.94" gradientTransform="translate(700.95 658.49) rotate(50) scale(.04)" xlink:href="#linear-gradient"></linearGradient><linearGradient id="linear-gradient-16" x1="678.84" y1="695.94" x2="716.59" y2="695.94" gradientTransform="translate(708.48 655.58) rotate(60) scale(.04)" xlink:href="#linear-gradient"></linearGradient><linearGradient id="linear-gradient-17" x1="678.84" y1="695.94" x2="716.6" y2="695.94" gradientTransform="translate(717.28 653.85) rotate(70) scale(.05)" xlink:href="#linear-gradient"></linearGradient><linearGradient id="linear-gradient-18" x1="678.84" y1="695.94" x2="716.6" y2="695.94" gradientTransform="translate(727.25 653.66) rotate(80) scale(.05)" xlink:href="#linear-gradient"></linearGradient><linearGradient id="linear-gradient-19" x1="678.84" y1="695.94" x2="716.6" y2="695.94" gradientTransform="translate(738.19 655.37) rotate(90) scale(.06)" xlink:href="#linear-gradient"></linearGradient><linearGradient id="linear-gradient-20" x1="678.83" y1="695.94" x2="716.61" y2="695.94" gradientTransform="translate(749.83 659.36) rotate(100) scale(.06)" xlink:href="#linear-gradient"></linearGradient><linearGradient id="linear-gradient-21" x1="678.83" y1="695.94" x2="716.61" y2="695.94" gradientTransform="translate(761.8 665.96) rotate(110) scale(.07)" xlink:href="#linear-gradient"></linearGradient><linearGradient id="linear-gradient-22" x1="678.83" y1="695.94" x2="716.61" y2="695.94" gradientTransform="translate(773.62 675.5) rotate(120) scale(.08)" xlink:href="#linear-gradient"></linearGradient><linearGradient id="linear-gradient-23" x1="678.82" y1="695.94" x2="716.62" y2="695.94" gradientTransform="translate(784.72 688.22) rotate(130) scale(.09)" xlink:href="#linear-gradient"></linearGradient><linearGradient id="linear-gradient-24" x1="678.82" y1="695.94" x2="716.62" y2="695.94" gradientTransform="translate(794.41 704.28) rotate(140) scale(.1)" xlink:href="#linear-gradient"></linearGradient><linearGradient id="linear-gradient-25" x1="678.81" y1="695.94" x2="716.63" y2="695.94" gradientTransform="translate(801.91 723.72) rotate(150) scale(.11)" xlink:href="#linear-gradient"></linearGradient><linearGradient id="linear-gradient-26" x1="678.8" y1="695.94" x2="716.63" y2="695.94" gradientTransform="translate(806.37 746.44) rotate(160) scale(.12)" xlink:href="#linear-gradient"></linearGradient><linearGradient id="linear-gradient-27" x1="678.8" y1="695.94" x2="716.64" y2="695.94" gradientTransform="translate(806.86 772.16) rotate(170) scale(.14)" xlink:href="#linear-gradient"></linearGradient><linearGradient id="linear-gradient-28" x1="678.79" y1="695.94" x2="716.65" y2="695.94" gradientTransform="translate(802.44 800.4) rotate(-180) scale(.15)" xlink:href="#linear-gradient"></linearGradient><linearGradient id="linear-gradient-29" x1="678.78" y1="695.94" x2="716.66" y2="695.94" gradientTransform="translate(792.16 830.45) rotate(-170) scale(.17)" xlink:href="#linear-gradient"></linearGradient><linearGradient id="linear-gradient-30" x1="678.77" y1="695.94" x2="716.67" y2="695.94" gradientTransform="translate(775.1 861.35) rotate(-160) scale(.19)" xlink:href="#linear-gradient"></linearGradient><linearGradient id="linear-gradient-31" x1="678.76" y1="695.94" x2="716.68" y2="695.94" gradientTransform="translate(750.48 891.86) rotate(-150) scale(.21)" xlink:href="#linear-gradient"></linearGradient><linearGradient id="linear-gradient-32" x1="678.75" y1="695.94" x2="716.69" y2="695.94" gradientTransform="translate(717.65 920.5) rotate(-140) scale(.23)" xlink:href="#linear-gradient"></linearGradient><linearGradient id="linear-gradient-33" x1="678.74" y1="695.94" x2="716.7" y2="695.94" gradientTransform="translate(676.2 945.51) rotate(-130) scale(.25)" xlink:href="#linear-gradient"></linearGradient><linearGradient id="linear-gradient-34" x1="678.72" y1="695.94" x2="716.71" y2="695.94" gradientTransform="translate(626.03 964.88) rotate(-120) scale(.28)" xlink:href="#linear-gradient"></linearGradient><linearGradient id="linear-gradient-35" x1="678.71" y1="695.94" x2="716.73" y2="695.94" gradientTransform="translate(567.38 976.39) rotate(-110) scale(.31)" xlink:href="#linear-gradient"></linearGradient><linearGradient id="linear-gradient-36" x1="678.69" y1="695.94" x2="716.75" y2="695.94" gradientTransform="translate(500.99 977.66) rotate(-100) scale(.35)" xlink:href="#linear-gradient"></linearGradient><linearGradient id="linear-gradient-37" x1="678.67" y1="695.94" x2="716.77" y2="695.94" gradientTransform="translate(428.1 966.25) rotate(-90) scale(.39)" xlink:href="#linear-gradient"></linearGradient><linearGradient id="linear-gradient-38" x1="678.65" y1="695.94" x2="716.79" y2="695.94" gradientTransform="translate(350.53 939.7) rotate(-80) scale(.43)" xlink:href="#linear-gradient"></linearGradient><linearGradient id="linear-gradient-39" x1="678.63" y1="695.94" x2="716.81" y2="695.94" gradientTransform="translate(270.79 895.69) rotate(-70) scale(.48)" xlink:href="#linear-gradient"></linearGradient><linearGradient id="linear-gradient-40" x1="678.6" y1="695.94" x2="716.84" y2="695.94" gradientTransform="translate(192.02 832.14) rotate(-60) scale(.53)" xlink:href="#linear-gradient"></linearGradient><linearGradient id="linear-gradient-41" x1="678.57" y1="695.94" x2="716.87" y2="695.94" gradientTransform="translate(118.09 747.4) rotate(-50) scale(.59)" xlink:href="#linear-gradient"></linearGradient><linearGradient id="linear-gradient-42" x1="678.54" y1="695.94" x2="716.9" y2="695.94" gradientTransform="translate(53.54 640.41) rotate(-40) scale(.66)" xlink:href="#linear-gradient"></linearGradient><linearGradient id="linear-gradient-43" x1="678.5" y1="695.94" x2="716.94" y2="695.94" gradientTransform="translate(3.55 510.89) rotate(-30) scale(.73)" xlink:href="#linear-gradient"></linearGradient><linearGradient id="linear-gradient-44" x1="678.46" y1="695.94" x2="716.98" y2="695.94" gradientTransform="translate(-26.15 359.52) rotate(-20) scale(.81)" xlink:href="#linear-gradient"></linearGradient><linearGradient id="linear-gradient-45" x1="678.41" x2="717.02" gradientTransform="translate(-29.45 188.15) rotate(-10) scale(.9)" xlink:href="#linear-gradient"></linearGradient><linearGradient id="linear-gradient-46" x1="678.36" x2="717.07" gradientTransform="matrix(1,0,0,1,0,0)" xlink:href="#linear-gradient"></linearGradient><linearGradient id="linear-gradient-47" x1="54751.36" y1="-68164.42" x2="57373.22" y2="-68164.42" gradientTransform="translate(1981.33 1397.76) rotate(-100.76) scale(.02)" xlink:href="#linear-gradient"></linearGradient><linearGradient id="linear-gradient-48" x1="43880.61" y1="-61734.07" x2="46502.47" y2="-61734.07" gradientTransform="translate(1976.36 1402.15) rotate(-97.29) scale(.02)" xlink:href="#linear-gradient"></linearGradient><linearGradient id="linear-gradient-49" x1="34798.43" y1="-55589.59" x2="37420.29" y2="-55589.59" gradientTransform="translate(1970.35 1406.85) rotate(-93.81) scale(.02)" xlink:href="#linear-gradient"></linearGradient><linearGradient id="linear-gradient-50" x1="27251.16" y1="-49786.93" x2="29873.02" y2="-49786.93" gradientTransform="translate(1963.12 1411.83) rotate(-90.34) scale(.03)" xlink:href="#linear-gradient"></linearGradient><linearGradient id="linear-gradient-51" x1="21016.05" y1="-44361.28" x2="23637.91" y2="-44361.28" gradientTransform="translate(1954.45 1417.05) rotate(-86.86) scale(.03)" xlink:href="#linear-gradient"></linearGradient><linearGradient id="linear-gradient-52" x1="15898.21" y1="-39331.36" x2="18520.07" y2="-39331.36" gradientTransform="translate(1944.12 1422.45) rotate(-83.39) scale(.03)" xlink:href="#linear-gradient"></linearGradient><linearGradient id="linear-gradient-53" x1="11727.78" y1="-34703.18" x2="14349.64" y2="-34703.18" gradientTransform="translate(1931.86 1427.94) rotate(-79.91) scale(.04)" xlink:href="#linear-gradient"></linearGradient><linearGradient id="linear-gradient-54" x1="8357.23" y1="-30472.99" x2="10979.09" y2="-30472.99" gradientTransform="translate(1917.39 1433.39) rotate(-76.44) scale(.04)" xlink:href="#linear-gradient"></linearGradient><linearGradient id="linear-gradient-55" x1="5658.9" y1="-26629.78" x2="8280.76" y2="-26629.78" gradientTransform="translate(1900.37 1438.65) rotate(-72.97) scale(.05)" xlink:href="#linear-gradient"></linearGradient><linearGradient id="linear-gradient-56" x1="3522.76" y1="-23157.3" x2="6144.63" y2="-23157.3" gradientTransform="translate(1880.43 1443.51) rotate(-69.49) scale(.06)" xlink:href="#linear-gradient"></linearGradient><linearGradient id="linear-gradient-57" x1="1854.31" y1="-20035.67" x2="4476.17" y2="-20035.67" gradientTransform="translate(1857.18 1447.7) rotate(-66.02) scale(.07)" xlink:href="#linear-gradient"></linearGradient><linearGradient id="linear-gradient-58" x1="572.68" y1="-17242.69" x2="3194.55" y2="-17242.69" gradientTransform="translate(1830.14 1450.9) rotate(-62.54) scale(.08)" xlink:href="#linear-gradient"></linearGradient><linearGradient id="linear-gradient-59" x1="-391.01" y1="-14754.88" x2="2230.85" y2="-14754.88" gradientTransform="translate(1798.84 1452.69) rotate(-59.07) scale(.09)" xlink:href="#linear-gradient"></linearGradient><linearGradient id="linear-gradient-60" x1="-1095.24" y1="-12548.25" x2="1526.62" y2="-12548.25" gradientTransform="translate(1762.73 1452.56) rotate(-55.59) scale(.1)" xlink:href="#linear-gradient"></linearGradient><linearGradient id="linear-gradient-61" x1="-1589.42" y1="-10598.94" x2="1032.44" y2="-10598.94" gradientTransform="translate(1721.22 1449.89) rotate(-52.12) scale(.12)" xlink:href="#linear-gradient"></linearGradient><linearGradient id="linear-gradient-62" x1="-1915.1" y1="-8883.67" x2="706.76" y2="-8883.67" gradientTransform="translate(1673.68 1443.93) rotate(-48.64) scale(.14)" xlink:href="#linear-gradient"></linearGradient><linearGradient id="linear-gradient-63" x1="-2107.09" y1="-7380.1" x2="514.77" y2="-7380.1" gradientTransform="translate(1619.44 1433.75) rotate(-45.17) scale(.16)" xlink:href="#linear-gradient"></linearGradient><linearGradient id="linear-gradient-64" x1="-2194.35" y1="-6067.01" x2="427.51" y2="-6067.01" gradientTransform="translate(1557.79 1418.26) rotate(-41.69) scale(.18)" xlink:href="#linear-gradient"></linearGradient><linearGradient id="linear-gradient-65" x1="-2200.88" y1="-4924.5" x2="420.98" y2="-4924.5" gradientTransform="translate(1487.99 1396.15) rotate(-38.22) scale(.21)" xlink:href="#linear-gradient"></linearGradient><linearGradient id="linear-gradient-66" x1="-2146.43" y1="-3934.06" x2="475.44" y2="-3934.06" gradientTransform="translate(1409.29 1365.86) rotate(-34.75) scale(.24)" xlink:href="#linear-gradient"></linearGradient><linearGradient id="linear-gradient-67" x1="-2047.12" y1="-3078.62" x2="574.74" y2="-3078.62" gradientTransform="translate(1320.92 1325.54) rotate(-31.27) scale(.28)" xlink:href="#linear-gradient"></linearGradient><linearGradient id="linear-gradient-68" x1="-1916.05" y1="-2342.52" x2="705.81" y2="-2342.52" gradientTransform="translate(1222.13 1273.02) rotate(-27.8) scale(.32)" xlink:href="#linear-gradient"></linearGradient><linearGradient id="linear-gradient-69" x1="-1763.74" y1="-1711.52" x2="858.12" y2="-1711.52" gradientTransform="translate(1112.22 1205.74) rotate(-24.32) scale(.37)" xlink:href="#linear-gradient"></linearGradient><linearGradient id="linear-gradient-70" x1="-1598.55" y1="-1172.72" x2="1023.32" y2="-1172.72" gradientTransform="translate(990.56 1120.71) rotate(-20.85) scale(.43)" xlink:href="#linear-gradient"></linearGradient><linearGradient id="linear-gradient-71" x1="-1427.04" y1="-714.48" x2="1194.82" y2="-714.48" gradientTransform="translate(856.62 1014.46) rotate(-17.37) scale(.49)" xlink:href="#linear-gradient"></linearGradient><linearGradient id="linear-gradient-72" x1="-1254.3" y1="-326.4" x2="1367.56" y2="-326.4" gradientTransform="translate(710.04 882.95) rotate(-13.9) scale(.57)" xlink:href="#linear-gradient"></linearGradient><linearGradient id="linear-gradient-73" x1="-1084.19" y1=".82" x2="1537.68" y2=".82" gradientTransform="translate(550.7 721.53) rotate(-10.42) scale(.65)" xlink:href="#linear-gradient"></linearGradient><linearGradient id="linear-gradient-74" x1="-919.55" y1="275.44" x2="1702.31" y2="275.44" gradientTransform="translate(378.77 524.82) rotate(-6.95) scale(.75)" xlink:href="#linear-gradient"></linearGradient><linearGradient id="linear-gradient-75" x1="-762.43" y1="504.75" x2="1859.43" y2="504.75" gradientTransform="translate(194.84 286.66) rotate(-3.47) scale(.87)" xlink:href="#linear-gradient"></linearGradient><linearGradient id="linear-gradient-76" x1="-614.2" y1="695.21" x2="2007.66" y2="695.21" gradientTransform="matrix(1,0,0,1,0,0)" xlink:href="#linear-gradient"></linearGradient></defs><path class="cls-15" d="m697.63,695.82h.03s.03,0,.04,0l.02-.02s.08,0,.08.03v.03s.01.03.03.04h.02s.03.09,0,.1h-.03s-.03.03-.03.05v.03s-.06.05-.09.02l-.02-.02s-.03-.02-.04-.02h-.03s-.07-.04-.05-.07v-.02s.02-.03.02-.05v-.03s0-.08.05-.07Z"></path><path class="cls-27" d="m697.64,695.79h.03s.04.02.05,0l.03-.02s.09,0,.09.05v.03s0,.04.02.05l.02.02s.02.09-.02.1h-.03s-.03.02-.04.04v.03s-.09.05-.11,0l-.02-.03s-.03-.03-.04-.03h-.03s-.07-.06-.04-.09l.02-.02s.02-.03.01-.05v-.03s.03-.08.07-.06Z"></path><path class="cls-10" d="m697.67,695.76l.03.02s.04.01.06,0h.03s.1.01.08.06v.03s0,.04,0,.06l.02.03s0,.1-.04.1h-.03s-.04.01-.05.03l-.02.03s-.09.04-.11-.01v-.03s-.04-.03-.06-.04h-.03s-.06-.08-.02-.12l.03-.02s.02-.03.02-.05v-.03c0-.05.05-.08.09-.06Z"></path><path class="cls-21" d="m697.7,695.73l.03.03s.04.02.06.02h.04c.06-.02.1.04.08.09l-.02.03s0,.04,0,.06l.02.03s-.01.11-.07.1h-.04s-.04,0-.06.02l-.03.03s-.11.02-.12-.03v-.04s-.03-.04-.05-.05l-.03-.02c-.05-.02-.06-.1,0-.12l.03-.02s.03-.03.03-.05v-.04c0-.06.08-.08.12-.04Z"></path><path class="cls-12" d="m697.74,695.71l.03.03s.04.03.06.03h.04c.06,0,.1.07.07.12l-.02.03s-.02.05,0,.07v.04c.04.06-.02.12-.08.1h-.04s-.05-.01-.07,0l-.03.03s-.12,0-.12-.06v-.04s-.01-.05-.03-.06l-.04-.02c-.05-.03-.04-.11.02-.14h.04s.04-.04.05-.07v-.04c.03-.06.11-.08.15-.03Z"></path><path class="cls-24" d="m697.78,695.69l.02.04s.04.04.06.05h.05c.07.02.1.1.05.15l-.03.03s-.03.05-.02.08v.05c.02.07-.05.12-.11.09l-.04-.02s-.05-.01-.08,0l-.04.02c-.06.03-.13-.02-.12-.09v-.05s0-.06-.02-.07l-.03-.03c-.05-.05-.02-.13.04-.14h.05s.05-.03.06-.05l.02-.04c.03-.06.12-.06.15,0Z"></path><path class="cls-72" d="m697.84,695.67l.02.05s.03.05.06.06l.05.02c.07.02.09.12.03.17l-.04.03s-.04.05-.04.08v.05c0,.08-.09.12-.15.08l-.04-.03s-.06-.02-.09-.01l-.05.02c-.07.02-.14-.05-.12-.12l.02-.05s0-.06-.01-.09l-.03-.04c-.05-.06,0-.15.08-.15h.05s.06-.01.08-.04l.03-.04c.05-.06.14-.05.17.03Z"></path><path class="cls-2" d="m697.9,695.67v.06s.03.06.06.08l.05.03c.08.04.07.15,0,.19l-.05.02s-.05.04-.06.08v.06c-.02.09-.13.12-.19.05l-.04-.04s-.06-.04-.09-.03h-.06c-.09.02-.15-.07-.11-.15l.03-.05s.02-.07,0-.1l-.03-.05c-.04-.08.03-.17.11-.15h.06s.07,0,.09-.02l.04-.04c.06-.06.17-.02.18.06Z"></path><path class="cls-9" d="m697.97,695.68v.06s.01.07.04.1l.05.04c.08.06.05.18-.04.2l-.06.02s-.07.04-.08.07l-.02.06c-.03.09-.15.11-.21.02l-.03-.05s-.06-.05-.09-.05h-.06c-.1,0-.15-.12-.09-.19l.04-.05s.03-.07.02-.11l-.02-.06c-.03-.09.06-.18.15-.14l.06.02s.08,0,.11-.01l.05-.04c.08-.05.19,0,.18.1Z"></path><path class="cls-68" d="m698.05,695.71l-.02.07s0,.08.03.12l.05.05c.07.08.02.21-.08.22h-.07s-.08.03-.1.07l-.04.06c-.05.09-.19.09-.23-.01l-.03-.07s-.05-.07-.09-.08h-.07c-.1-.04-.14-.17-.06-.24l.05-.05s.05-.07.04-.11v-.07c-.02-.11.09-.18.19-.13l.06.04s.08.02.12,0l.06-.03c.1-.04.2.04.18.15Z"></path><path class="cls-16" d="m698.12,695.75l-.03.07s-.01.09.01.13l.04.07c.06.1-.01.23-.13.22h-.08s-.09,0-.12.04l-.05.06c-.08.09-.22.06-.25-.06l-.02-.08s-.04-.08-.09-.1l-.07-.03c-.11-.04-.12-.19-.02-.26l.07-.04s.07-.07.07-.11v-.08c.01-.12.15-.18.24-.1l.06.05s.08.04.13.03l.08-.02c.11-.03.21.09.17.19Z"></path><path class="cls-20" d="m698.2,695.81l-.05.07s-.03.1-.01.15l.03.08c.05.12-.06.25-.19.21l-.09-.02c-.05-.01-.1,0-.14.03l-.07.06c-.1.09-.26.02-.26-.11v-.09c0-.05-.04-.1-.08-.13l-.08-.05c-.11-.07-.1-.24.03-.28l.08-.03s.09-.06.1-.11l.02-.09c.03-.13.2-.17.28-.06l.06.07s.08.06.14.06h.09c.13-.02.22.13.15.24Z"></path><path class="cls-19" d="m698.27,695.89l-.07.07s-.06.1-.04.16l.02.1c.03.14-.11.26-.25.2l-.09-.04c-.05-.02-.11-.02-.16,0l-.08.05c-.13.07-.28-.03-.27-.17v-.1c.02-.06,0-.12-.05-.15l-.07-.06c-.11-.1-.06-.28.08-.31l.1-.02c.06-.01.11-.05.13-.1l.04-.09c.06-.13.25-.14.32-.02l.05.09c.03.05.08.08.14.09h.1c.15.02.21.2.11.31Z"></path><path class="cls-14" d="m698.33,695.99l-.09.07c-.05.04-.08.1-.08.17v.11c.01.16-.17.26-.3.17l-.09-.06c-.05-.04-.12-.05-.18-.02l-.1.04c-.15.06-.3-.09-.26-.24l.03-.1c.02-.06,0-.13-.03-.18l-.07-.09c-.1-.13-.01-.32.15-.32h.11c.06,0,.12-.04.16-.09l.06-.09c.09-.14.3-.11.35.04l.04.1c.02.06.07.11.13.13l.1.03c.16.04.2.25.07.35Z"></path><path class="cls-29" d="m698.38,696.11l-.11.05c-.06.03-.11.09-.12.17l-.02.12c-.02.18-.24.25-.37.13l-.09-.09c-.05-.05-.12-.07-.19-.06l-.12.02c-.18.03-.32-.15-.23-.31l.05-.11c.03-.06.03-.14,0-.2l-.06-.11c-.09-.16.05-.35.23-.32l.12.02c.07.01.14-.01.19-.07l.08-.09c.12-.13.35-.06.37.12l.02.12c.01.07.06.13.12.16l.11.05c.16.08.17.31,0,.39Z"></path><path class="cls-4" d="m698.41,696.26l-.13.04c-.08.02-.14.08-.16.16l-.04.13c-.06.19-.31.23-.43.07l-.08-.11c-.05-.07-.12-.1-.2-.1h-.13c-.2,0-.32-.23-.2-.39l.08-.11c.05-.06.06-.15.04-.22l-.04-.13c-.06-.19.12-.37.31-.31l.13.04c.08.03.16.01.22-.03l.11-.08c.16-.12.39,0,.39.2v.13c0,.08.03.16.1.2l.11.08c.16.12.12.37-.07.43Z"></path><path class="cls-71" d="m698.42,696.42l-.15.02c-.09.01-.17.06-.21.14l-.07.13c-.1.2-.39.19-.48-.01l-.06-.14c-.04-.08-.11-.14-.2-.15l-.15-.02c-.22-.04-.3-.31-.14-.46l.11-.1c.06-.06.1-.15.08-.24l-.02-.15c-.03-.22.2-.38.4-.28l.13.07c.08.04.17.04.25,0l.13-.07c.2-.1.43.07.38.29l-.03.15c-.02.09.01.18.07.24l.1.11c.16.16.06.43-.16.46Z"></path><path class="cls-32" d="m698.39,696.6h-.17c-.1-.01-.19.03-.25.11l-.1.13c-.15.2-.46.14-.53-.1l-.04-.16c-.03-.1-.1-.17-.19-.2l-.16-.06c-.23-.08-.27-.4-.06-.53l.14-.09c.08-.05.13-.14.14-.24v-.17c.01-.25.3-.38.49-.23l.13.1c.08.06.18.08.27.05l.16-.05c.24-.07.45.16.36.39l-.06.15c-.04.09-.02.2.03.28l.09.14c.14.2-.01.48-.26.47Z"></path><path class="cls-75" d="m698.33,696.79l-.18-.04c-.11-.02-.22,0-.3.08l-.14.12c-.2.19-.53.06-.56-.22l-.02-.18c0-.11-.07-.21-.17-.26l-.16-.09c-.24-.14-.22-.49.03-.6l.17-.07c.1-.04.17-.13.2-.24l.04-.18c.05-.27.4-.36.58-.15l.12.14c.07.08.18.12.29.11l.18-.02c.27-.03.46.27.32.5l-.09.16c-.06.09-.06.21-.02.31l.08.17c.11.25-.11.52-.38.46Z"></path><path class="cls-66" d="m698.22,696.99l-.19-.08c-.11-.05-.24-.04-.34.03l-.17.11c-.26.16-.59-.04-.57-.34l.02-.2c.01-.12-.04-.24-.13-.32l-.16-.13c-.24-.19-.15-.58.15-.65l.2-.05c.12-.03.22-.11.26-.22l.07-.19c.11-.29.5-.32.66-.06l.11.18c.06.1.17.17.29.18h.2c.31.03.46.39.26.62l-.13.15c-.08.09-.11.22-.08.33l.05.2c.08.3-.22.55-.5.43Z"></path><path class="cls-11" d="m698.07,697.18l-.19-.12c-.11-.07-.26-.09-.38-.03l-.21.09c-.31.13-.64-.16-.55-.49l.06-.22c.03-.13,0-.27-.08-.37l-.15-.17c-.22-.26-.05-.66.29-.68h.23c.13-.02.26-.09.33-.21l.12-.19c.18-.29.61-.25.73.07l.08.21c.05.13.16.22.29.25l.22.05c.33.08.43.5.16.72l-.18.14c-.1.09-.16.22-.15.35l.02.23c.03.34-.35.56-.63.38Z"></path><path class="cls-1" d="m697.86,697.37l-.18-.17c-.11-.1-.26-.14-.41-.11l-.25.05c-.37.08-.67-.3-.51-.64l.11-.23c.06-.14.06-.29-.02-.42l-.13-.22c-.19-.33.07-.73.45-.68l.25.03c.15.02.3-.04.4-.15l.17-.19c.25-.28.72-.16.79.21l.05.25c.03.15.13.27.27.33l.23.1c.35.15.37.63.04.82l-.22.12c-.13.07-.22.21-.23.36l-.02.25c-.04.38-.49.55-.77.29Z"></path><path class="cls-23" d="m697.6,697.53l-.17-.22c-.1-.13-.26-.21-.43-.2h-.28c-.42.03-.68-.44-.44-.78l.16-.23c.1-.14.12-.31.06-.47l-.1-.26c-.15-.39.22-.79.62-.66l.27.08c.16.05.33.02.46-.09l.22-.17c.33-.26.81-.03.82.39v.28c0,.17.09.32.23.41l.23.15c.35.23.28.76-.11.9l-.27.09c-.16.05-.28.18-.32.34l-.07.27c-.11.4-.64.51-.89.17Z"></path><path class="cls-5" d="m697.29,697.66l-.14-.28c-.08-.17-.24-.28-.43-.3l-.31-.04c-.46-.06-.66-.63-.33-.96l.22-.22c.13-.13.19-.32.16-.5l-.06-.31c-.09-.46.39-.82.81-.6l.28.14c.17.08.36.08.52,0l.27-.15c.41-.22.9.12.83.58l-.05.31c-.03.18.03.37.17.5l.23.21c.34.32.16.89-.3.97l-.31.05c-.18.03-.34.15-.42.31l-.13.28c-.2.42-.8.43-1.01.01Z"></path><path class="cls-7" d="m696.91,697.74l-.1-.33c-.06-.2-.21-.35-.41-.41l-.33-.1c-.49-.16-.6-.81-.17-1.11l.28-.2c.17-.12.27-.31.27-.52v-.35c0-.52.58-.82,1-.51l.28.21c.16.12.38.16.58.09l.33-.11c.49-.16.96.31.79.8l-.11.33c-.07.19-.03.41.09.58l.21.28c.31.42,0,1.01-.51,1h-.35c-.21,0-.4.09-.52.26l-.2.28c-.3.42-.96.32-1.11-.18Z"></path><path class="cls-73" d="m696.49,697.75l-.05-.38c-.03-.23-.17-.43-.37-.53l-.34-.18c-.51-.27-.5-1,.03-1.25l.35-.16c.21-.1.35-.29.39-.52l.06-.38c.1-.57.8-.78,1.19-.36l.26.28c.16.17.38.25.61.21l.38-.06c.57-.09.99.52.71,1.02l-.19.34c-.11.2-.12.44-.01.65l.17.34c.26.52-.19,1.1-.75.99l-.38-.07c-.22-.04-.46.03-.62.19l-.27.27c-.41.4-1.11.16-1.18-.41Z"></path><path class="cls-28" d="m696.03,697.68l.02-.43c.01-.25-.1-.5-.3-.65l-.34-.26c-.51-.39-.35-1.19.27-1.36l.41-.11c.25-.07.44-.25.53-.49l.14-.4c.21-.6,1.03-.7,1.38-.16l.23.36c.14.21.37.34.63.35h.43c.64.03.98.77.58,1.27l-.27.33c-.16.2-.21.46-.14.71l.12.41c.18.61-.42,1.17-1.02.94l-.4-.15c-.24-.09-.5-.06-.71.08l-.35.24c-.53.36-1.24-.04-1.21-.68Z"></path><path class="cls-30" d="m695.53,697.52l.11-.46c.06-.28-.01-.56-.2-.77l-.32-.35c-.48-.52-.15-1.37.56-1.44l.47-.04c.28-.02.53-.19.67-.43l.23-.41c.35-.62,1.26-.57,1.54.09l.19.44c.11.26.34.45.62.51l.47.09c.7.14.93,1.02.39,1.49l-.36.31c-.21.19-.32.46-.29.74l.05.47c.08.71-.68,1.2-1.29.83l-.41-.24c-.24-.15-.54-.16-.8-.04l-.43.2c-.65.3-1.35-.28-1.19-.97Z"></path><path class="cls-18" d="m695.02,697.25l.21-.49c.12-.29.09-.62-.07-.88l-.28-.45c-.42-.67.1-1.53.89-1.46l.53.05c.31.03.62-.1.82-.34l.34-.41c.5-.61,1.49-.38,1.67.39l.12.51c.07.31.29.56.58.67l.49.19c.74.29.82,1.3.14,1.71l-.45.27c-.27.16-.44.45-.46.76l-.03.53c-.05.79-.98,1.18-1.58.66l-.4-.35c-.24-.21-.56-.28-.86-.2l-.51.13c-.77.2-1.43-.57-1.12-1.3Z"></path><path class="cls-76" d="m694.52,696.85l.32-.49c.19-.29.22-.66.09-.98l-.22-.54c-.34-.81.4-1.66,1.25-1.43l.57.15c.34.09.7,0,.96-.22l.45-.38c.67-.57,1.7-.13,1.75.75l.03.59c.02.35.21.67.5.85l.5.31c.75.46.65,1.58-.17,1.89l-.55.21c-.33.13-.57.4-.65.74l-.14.57c-.2.85-1.3,1.1-1.85.42l-.37-.46c-.22-.27-.56-.42-.91-.39l-.58.05c-.88.07-1.45-.9-.97-1.63Z"></path><path class="cls-17" d="m694.04,696.32l.44-.48c.26-.28.37-.68.29-1.06l-.14-.64c-.21-.95.76-1.73,1.65-1.32l.59.27c.35.16.76.14,1.09-.05l.56-.33c.84-.5,1.89.19,1.77,1.16l-.08.65c-.05.38.1.77.39,1.02l.49.43c.73.65.4,1.85-.55,2.04l-.64.12c-.38.07-.7.33-.85.69l-.26.6c-.39.9-1.64.96-2.11.1l-.32-.57c-.19-.34-.53-.56-.92-.6l-.65-.06c-.97-.09-1.41-1.26-.75-1.97Z"></path><path class="cls-70" d="m693.62,695.65l.58-.44c.34-.26.54-.67.52-1.1l-.03-.72c-.05-1.08,1.17-1.75,2.06-1.13l.59.41c.35.25.8.3,1.21.15l.68-.25c1.02-.38,2.03.57,1.71,1.61l-.21.69c-.13.41-.04.86.23,1.2l.45.57c.68.85.08,2.1-1,2.12h-.72c-.43.02-.83.24-1.07.6l-.4.6c-.6.9-1.97.73-2.33-.29l-.24-.68c-.14-.41-.47-.72-.89-.83l-.7-.19c-1.05-.29-1.3-1.65-.44-2.31Z"></path><path class="cls-6" d="m693.29,694.83l.72-.37c.43-.22.72-.63.78-1.11l.1-.8c.16-1.19,1.62-1.69,2.47-.84l.57.57c.34.34.82.49,1.29.4l.79-.15c1.18-.22,2.11,1.01,1.56,2.09l-.36.72c-.22.43-.21.93.02,1.35l.38.71c.58,1.06-.31,2.32-1.5,2.13l-.79-.13c-.47-.07-.95.09-1.28.44l-.55.58c-.83.87-2.3.42-2.49-.77l-.13-.79c-.08-.47-.38-.88-.81-1.08l-.73-.35c-1.09-.52-1.11-2.06-.04-2.61Z"></path><path class="cls-31" d="m693.09,693.87l.85-.26c.51-.16.91-.55,1.07-1.06l.27-.85c.4-1.28,2.09-1.54,2.86-.44l.51.73c.31.44.81.69,1.34.69h.89c1.34-.02,2.11,1.51,1.31,2.58l-.54.71c-.32.42-.41.98-.24,1.48l.28.85c.43,1.27-.79,2.48-2.06,2.04l-.85-.29c-.5-.17-1.06-.09-1.49.23l-.72.53c-1.08.8-2.6.01-2.58-1.33v-.89c.02-.53-.23-1.03-.66-1.34l-.73-.52c-1.09-.78-.82-2.47.46-2.86Z"></path><path class="cls-65" d="m693.06,692.78l.99-.12c.59-.07,1.1-.43,1.37-.95l.46-.88c.69-1.32,2.59-1.28,3.22.07l.42.9c.25.54.75.91,1.33,1.01l.98.16c1.47.25,2.02,2.07.93,3.08l-.73.68c-.43.4-.64.99-.55,1.58l.15.98c.22,1.47-1.34,2.56-2.64,1.84l-.87-.48c-.52-.29-1.14-.3-1.67-.04l-.89.44c-1.33.66-2.85-.49-2.56-1.95l.19-.98c.11-.58-.07-1.18-.48-1.6l-.7-.71c-1.04-1.06-.42-2.86,1.06-3.04Z"></path><path class="cls-26" d="m693.23,691.58l1.1.06c.66.03,1.29-.26,1.69-.78l.67-.88c1.01-1.31,3.08-.9,3.51.7l.29,1.07c.17.63.64,1.14,1.26,1.36l1.04.37c1.56.55,1.81,2.65.42,3.55l-.93.6c-.55.36-.89.96-.91,1.62l-.03,1.1c-.04,1.65-1.96,2.54-3.25,1.5l-.86-.69c-.51-.41-1.19-.55-1.82-.36l-1.06.31c-1.59.47-3.02-1.08-2.43-2.63l.39-1.03c.23-.61.15-1.3-.22-1.84l-.63-.91c-.94-1.36.1-3.21,1.75-3.12Z"></path><path class="cls-33" d="m693.65,690.31l1.2.27c.71.16,1.46-.03,1.99-.53l.9-.83c1.35-1.24,3.54-.39,3.71,1.44l.11,1.22c.06.73.48,1.38,1.12,1.73l1.07.6c1.6.9,1.47,3.25-.22,3.97l-1.13.48c-.67.29-1.16.88-1.3,1.6l-.24,1.2c-.37,1.8-2.64,2.4-3.84,1.01l-.81-.92c-.48-.55-1.2-.83-1.92-.75l-1.22.14c-1.83.21-3.1-1.77-2.15-3.34l.63-1.05c.38-.63.42-1.4.12-2.06l-.51-1.12c-.76-1.67.72-3.49,2.51-3.08Z"></path><path class="cls-22" d="m694.35,688.99l1.25.53c.75.32,1.6.24,2.28-.19l1.15-.73c1.72-1.1,3.95.26,3.78,2.29l-.12,1.36c-.07.81.26,1.6.89,2.11l1.05.87c1.58,1.3.98,3.84-1.01,4.3l-1.33.31c-.79.18-1.44.74-1.74,1.5l-.5,1.27c-.75,1.9-3.35,2.12-4.4.37l-.7-1.17c-.42-.69-1.15-1.14-1.96-1.19l-1.36-.08c-2.04-.12-3.05-2.53-1.71-4.07l.89-1.03c.53-.61.73-1.45.52-2.23l-.34-1.32c-.51-1.98,1.46-3.68,3.34-2.88Z"></path><path class="cls-3" d="m695.38,687.68l1.27.82c.76.49,1.7.58,2.54.23l1.4-.58c2.09-.87,4.28,1.04,3.69,3.23l-.39,1.46c-.23.87-.02,1.8.56,2.48l.98,1.15c1.47,1.72.33,4.39-1.93,4.51l-1.51.08c-.9.05-1.72.54-2.19,1.3l-.79,1.29c-1.18,1.93-4.07,1.67-4.89-.45l-.54-1.41c-.32-.84-1.04-1.47-1.92-1.68l-1.47-.35c-2.21-.53-2.85-3.36-1.09-4.79l1.18-.95c.7-.57,1.07-1.44,1-2.34l-.12-1.51c-.18-2.26,2.31-3.74,4.22-2.51Z"></path><path class="cls-13" d="m696.75,686.45l1.23,1.15c.73.68,1.75.96,2.73.74l1.64-.36c2.46-.55,4.48,1.97,3.41,4.25l-.71,1.53c-.42.91-.37,1.96.14,2.83l.85,1.45c1.28,2.17-.49,4.87-2.99,4.56l-1.67-.2c-.99-.12-1.98.25-2.65,1l-1.11,1.26c-1.67,1.89-4.78,1.04-5.26-1.43l-.32-1.65c-.19-.98-.85-1.81-1.77-2.21l-1.54-.67c-2.31-1-2.47-4.22-.26-5.45l1.47-.82c.87-.49,1.45-1.37,1.55-2.37l.16-1.67c.24-2.51,3.25-3.65,5.1-1.93Z"></path><path class="cls-67" d="m698.49,685.37l1.13,1.49c.67.89,1.73,1.39,2.84,1.34l1.87-.08c2.8-.12,4.52,3.02,2.92,5.31l-1.07,1.53c-.64.91-.78,2.08-.4,3.12l.65,1.75c.98,2.62-1.47,5.23-4.15,4.41l-1.79-.55c-1.06-.32-2.22-.1-3.09.59l-1.46,1.16c-2.19,1.74-5.43.22-5.48-2.58l-.03-1.87c-.02-1.11-.59-2.14-1.51-2.76l-1.56-1.03c-2.33-1.54-1.89-5.1.76-6.01l1.77-.61c1.05-.36,1.86-1.22,2.15-2.29l.5-1.8c.75-2.7,4.26-3.37,5.95-1.13Z"></path><path class="cls-74" d="m700.6,684.52l.94,1.85c.56,1.1,1.63,1.85,2.85,2.01l2.06.27c3.08.41,4.36,4.17,2.17,6.37l-1.47,1.47c-.87.87-1.26,2.12-1.03,3.34l.38,2.04c.57,3.06-2.62,5.44-5.39,4.03l-1.85-.94c-1.1-.56-2.41-.54-3.49.05l-1.82.99c-2.73,1.48-5.98-.81-5.5-3.88l.32-2.05c.19-1.22-.23-2.46-1.12-3.31l-1.51-1.43c-2.26-2.14-1.08-5.94,1.99-6.43l2.05-.33c1.22-.19,2.27-.98,2.8-2.09l.89-1.87c1.34-2.81,5.32-2.86,6.73-.09Z"></path><path class="cls-25" d="m703.08,684l.68,2.21c.4,1.31,1.42,2.34,2.73,2.75l2.2.69c3.3,1.04,3.97,5.41,1.14,7.39l-1.89,1.33c-1.12.79-1.79,2.08-1.78,3.45l.02,2.31c.03,3.46-3.91,5.45-6.68,3.37l-1.84-1.39c-1.1-.83-2.53-1.06-3.83-.62l-2.19.73c-3.28,1.1-6.39-2.04-5.27-5.31l.75-2.18c.45-1.3.22-2.73-.59-3.84l-1.37-1.85c-2.06-2.78-.03-6.71,3.42-6.65l2.31.04c1.37.02,2.67-.63,3.46-1.75l1.34-1.88c2.01-2.81,6.37-2.11,7.38,1.2Z"></path><path class="cls-8" d="m705.88,683.91l.31,2.54c.19,1.51,1.11,2.84,2.46,3.54l2.27,1.18c3.41,1.77,3.3,6.68-.18,8.31l-2.32,1.09c-1.38.65-2.36,1.93-2.61,3.43l-.42,2.53c-.63,3.79-5.33,5.21-7.96,2.4l-1.75-1.87c-1.04-1.11-2.56-1.65-4.07-1.42l-2.54.38c-3.8.57-6.6-3.47-4.74-6.83l1.24-2.24c.74-1.33.77-2.95.09-4.31l-1.14-2.29c-1.71-3.44,1.26-7.35,5.03-6.62l2.52.49c1.5.29,3.04-.18,4.13-1.24l1.83-1.8c2.74-2.69,7.38-1.08,7.85,2.74Z"></path><path class="cls-69" d="m708.98,684.35l-.15,2.85c-.09,1.69.66,3.32,2.01,4.35l2.26,1.73c3.39,2.6,2.32,7.95-1.8,9.06l-2.75.74c-1.64.44-2.95,1.66-3.52,3.25l-.95,2.69c-1.42,4.02-6.84,4.67-9.17,1.09l-1.55-2.39c-.92-1.42-2.49-2.3-4.18-2.34l-2.85-.07c-4.27-.11-6.55-5.07-3.87-8.38l1.79-2.22c1.07-1.32,1.41-3.08.93-4.7l-.81-2.73c-1.21-4.09,2.79-7.8,6.78-6.27l2.66,1.02c1.58.61,3.36.39,4.76-.57l2.35-1.61c3.52-2.42,8.28.25,8.06,4.51Z"></path><path class="cls-35" d="m712.27,685.43l-.71,3.08c-.42,1.83.09,3.76,1.36,5.15l2.14,2.33c3.2,3.5,1.01,9.15-3.71,9.56l-3.15.28c-1.88.17-3.55,1.24-4.48,2.88l-1.56,2.76c-2.33,4.13-8.39,3.79-10.24-.58l-1.24-2.91c-.74-1.73-2.28-2.99-4.12-3.37l-3.1-.63c-4.65-.94-6.19-6.81-2.62-9.92l2.39-2.08c1.42-1.24,2.14-3.09,1.93-4.96l-.36-3.14c-.54-4.71,4.56-7.99,8.63-5.55l2.71,1.63c1.61.97,3.6,1.08,5.32.3l2.88-1.31c4.31-1.97,9.01,1.87,7.95,6.49Z"></path><path class="cls-37" d="m715.28,685.05l-1.03,3.5c-.61,2.08-.16,4.33,1.2,6.01l2.3,2.83c3.44,4.24.52,10.59-4.94,10.74l-3.64.1c-2.17.06-4.17,1.18-5.35,3l-1.98,3.06c-2.97,4.58-9.91,3.77-11.74-1.38l-1.22-3.44c-.73-2.04-2.41-3.6-4.51-4.16l-3.52-.94c-5.28-1.41-6.65-8.26-2.32-11.59l2.89-2.22c1.72-1.32,2.68-3.41,2.56-5.57l-.19-3.64c-.29-5.45,5.8-8.87,10.3-5.78l3.01,2.06c1.79,1.23,4.07,1.49,6.09.71l3.4-1.31c5.1-1.96,10.23,2.77,8.69,8.01Z"></path><path class="cls-36" d="m718.77,684.83l-1.43,3.95c-.85,2.35-.49,4.97.96,7l2.44,3.42c3.66,5.12-.14,12.21-6.43,12l-4.2-.14c-2.5-.08-4.87,1.07-6.36,3.08l-2.49,3.38c-3.74,5.06-11.65,3.64-13.4-2.4l-1.16-4.03c-.69-2.4-2.52-4.31-4.89-5.1l-3.98-1.33c-5.97-1.99-7.06-9.96-1.85-13.48l3.48-2.35c2.07-1.4,3.32-3.73,3.33-6.23l.03-4.2c.05-6.29,7.29-9.79,12.25-5.93l3.31,2.58c1.97,1.53,4.57,2,6.95,1.25l4-1.27c6-1.9,11.57,3.9,9.43,9.82Z"></path><path class="cls-34" d="m722.79,684.81l-1.92,4.44c-1.14,2.64-.91,5.67.62,8.11l2.57,4.1c3.85,6.14-1.01,14.03-8.23,13.35l-4.82-.45c-2.86-.27-5.68.89-7.52,3.09l-3.1,3.71c-4.65,5.56-13.65,3.37-15.24-3.7l-1.06-4.72c-.63-2.81-2.6-5.13-5.27-6.2l-4.49-1.81c-6.72-2.7-7.43-11.94-1.19-15.63l4.16-2.46c2.48-1.47,4.07-4.06,4.27-6.93l.33-4.83c.49-7.23,9.06-10.75,14.5-5.96l3.63,3.2c2.16,1.9,5.12,2.62,7.91,1.92l4.69-1.18c7.03-1.76,13.03,5.3,10.15,11.95Z"></path><path class="cls-52" d="m727.42,685.07l-2.52,4.97c-1.5,2.96-1.44,6.46.14,9.37l2.67,4.89c4,7.33-2.14,16.05-10.39,14.77l-5.51-.86c-3.27-.51-6.59.62-8.87,3.03l-3.83,4.05c-5.73,6.06-15.93,2.92-17.26-5.32l-.89-5.5c-.53-3.27-2.63-6.07-5.62-7.5l-5.03-2.39c-7.54-3.58-7.7-14.25-.28-18.06l4.96-2.54c2.95-1.51,4.96-4.38,5.39-7.67l.72-5.53c1.07-8.28,11.17-11.73,17.09-5.84l3.95,3.93c2.35,2.34,5.7,3.37,8.96,2.76l5.48-1.03c8.2-1.54,14.61,7,10.84,14.44Z"></path><path class="cls-48" d="m732.72,685.7l-3.24,5.54c-1.93,3.29-2.11,7.33-.49,10.78l2.73,5.81c4.08,8.7-3.58,18.31-12.97,16.26l-6.27-1.37c-3.73-.81-7.62.26-10.41,2.87l-4.68,4.39c-7.01,6.57-18.52,2.25-19.47-7.32l-.63-6.39c-.38-3.8-2.6-7.17-5.94-9.01l-5.62-3.1c-8.42-4.64-7.86-16.92.94-20.78l5.88-2.58c3.5-1.53,6.01-4.69,6.73-8.44l1.21-6.3c1.81-9.44,13.66-12.71,20.05-5.53l4.27,4.79c2.54,2.85,6.32,4.27,10.1,3.8l6.37-.8c9.54-1.19,16.31,9.07,11.45,17.36Z"></path><path class="cls-49" d="m738.78,686.79l-4.11,6.14c-2.45,3.65-2.94,8.28-1.31,12.36l2.73,6.87c4.09,10.29-5.4,20.8-16.05,17.79l-7.11-2.01c-4.23-1.2-8.78-.24-12.16,2.57l-5.69,4.72c-8.52,7.07-21.45,1.29-21.87-9.77l-.28-7.39c-.17-4.39-2.49-8.42-6.2-10.77l-6.25-3.95c-9.35-5.92-7.86-20,2.53-23.82l6.94-2.55c4.13-1.52,7.24-4.97,8.33-9.23l1.83-7.16c2.74-10.73,16.59-13.65,23.44-4.95l4.57,5.81c2.72,3.46,6.96,5.35,11.35,5.07l7.38-.47c11.05-.71,18.11,11.56,11.95,20.76Z"></path><path class="cls-47" d="m745.66,688.46l-5.16,6.77c-3.07,4.03-3.95,9.31-2.37,14.12l2.66,8.09c3.98,12.12-7.66,23.54-19.7,19.33l-8.04-2.81c-4.78-1.67-10.08-.88-14.16,2.11l-6.87,5.03c-10.29,7.53-24.75-.01-24.47-12.76l.19-8.51c.11-5.06-2.27-9.86-6.38-12.82l-6.9-4.98c-10.34-7.46-7.64-23.54,4.57-27.21l8.15-2.45c4.85-1.46,8.67-5.21,10.22-10.03l2.6-8.11c3.9-12.14,20.03-14.54,27.29-4.06l4.85,7c2.88,4.16,7.63,6.64,12.7,6.62l8.51-.03c12.75-.04,20.02,14.56,12.29,24.7Z"></path><path class="cls-54" d="m753.45,690.86l-6.4,7.43c-3.81,4.42-5.2,10.43-3.71,16.07l2.49,9.48c3.73,14.21-10.45,26.53-23.99,20.85l-9.04-3.79c-5.38-2.26-11.52-1.72-16.43,1.43l-8.25,5.3c-12.36,7.94-28.46-1.74-27.24-16.38l.81-9.77c.48-5.81-1.93-11.49-6.44-15.18l-7.59-6.21c-11.37-9.3-7.14-27.6,7.16-30.97l9.55-2.25c5.68-1.34,10.33-5.38,12.45-10.82l3.56-9.14c5.33-13.69,24.04-15.32,31.66-2.76l5.09,8.38c3.03,4.99,8.31,8.16,14.14,8.5l9.79.56c14.66.84,22,18.13,12.41,29.26Z"></path><path class="cls-50" d="m762.25,694.17l-7.88,8.09c-4.69,4.81-6.7,11.63-5.39,18.22l2.2,11.08c3.3,16.59-13.86,29.77-29.04,22.29l-10.13-4.99c-6.03-2.97-13.13-2.78-18.99.5l-9.86,5.52c-14.76,8.26-32.59-3.99-30.17-20.73l1.62-11.18c.96-6.65-1.41-13.35-6.34-17.91l-8.29-7.67c-12.42-11.49-6.28-32.23,10.39-35.1l11.13-1.92c6.62-1.14,12.26-5.47,15.07-11.57l4.73-10.26c7.09-15.36,28.71-15.93,36.6-.96l5.26,9.99c3.13,5.94,8.99,9.97,15.66,10.76l11.22,1.33c16.8,1.99,24.03,22.38,12.23,34.51Z"></path><path class="cls-51" d="m772.13,698.59l-9.62,8.76c-5.72,5.21-8.52,12.9-7.47,20.57l1.76,12.89c2.63,19.31-18.02,33.26-34.94,23.6l-11.3-6.45c-6.72-3.83-14.9-4.11-21.87-.75l-11.72,5.66c-17.55,8.47-37.2-6.86-33.24-25.94l2.64-12.74c1.57-7.58-.69-15.44-6.04-21.03l-9-9.4c-13.48-14.07-4.97-37.49,14.4-39.63l12.93-1.43c7.69-.85,14.47-5.43,18.13-12.25l6.15-11.46c9.22-17.17,34.12-16.31,42.14,1.45l5.35,11.86c3.18,7.05,9.64,12.09,17.25,13.46l12.8,2.31c19.18,3.46,26.06,27.41,11.65,40.53Z"></path><path class="cls-56" d="m783.18,704.36l-11.67,9.4c-6.94,5.59-10.69,14.24-10.03,23.12l1.12,14.94c1.68,22.38-23.04,36.98-41.82,24.69l-12.54-8.2c-7.46-4.88-16.84-5.77-25.09-2.39l-13.87,5.68c-20.77,8.51-42.29-10.48-36.41-32.15l3.92-14.46c2.33-8.6.28-17.8-5.48-24.6l-9.69-11.43c-14.52-17.12-3.1-43.45,19.32-44.56l14.97-.74c8.9-.44,17.02-5.23,21.7-12.81l7.88-12.75c11.8-19.1,40.37-16.37,48.35,4.6l5.33,14.01c3.17,8.33,10.23,14.57,18.89,16.68l14.56,3.55c21.81,5.32,28.05,33.33,10.56,47.41Z"></path><path class="cls-57" d="m795.49,711.76l-14.08,9.99c-8.37,5.94-13.29,15.62-13.14,25.89l.25,17.26c.37,25.85-29.07,40.9-49.81,25.47l-13.85-10.3c-8.24-6.13-18.96-7.81-28.68-4.5l-16.34,5.57c-24.47,8.34-47.88-15-39.62-39.5l5.52-16.35c3.28-9.73,1.57-20.45-4.58-28.67l-10.34-13.82c-15.49-20.7-.53-50.18,25.32-49.88l17.26.19c10.27.12,19.93-4.83,25.85-13.22l9.95-14.11c14.9-21.13,47.56-16.01,55.27,8.67l5.15,16.47c3.06,9.8,10.75,17.46,20.56,20.5l16.49,5.1c24.7,7.64,29.92,40.28,8.83,55.24Z"></path><path class="cls-53" d="m809.12,721.13l-16.88,10.5c-10.04,6.25-16.37,17.03-16.92,28.84l-.92,19.86c-1.38,29.75-36.27,45-59.04,25.81l-15.2-12.81c-9.04-7.62-21.26-10.3-32.66-7.17l-19.17,5.26c-28.72,7.88-54-20.59-42.79-48.18l7.49-18.42c4.45-10.95,3.23-23.4-3.27-33.28l-10.93-16.61c-16.37-24.88,2.9-57.72,32.6-55.58l19.83,1.43c11.79.85,23.25-4.16,30.64-13.39l12.42-15.52c18.6-23.25,55.79-15.08,62.94,13.83l4.77,19.3c2.84,11.48,11.14,20.83,22.21,25l18.6,7.01c27.86,10.51,31.59,48.4,6.3,64.13Z"></path><path class="cls-39" d="m824.13,732.86l-20.14,10.89c-11.98,6.48-20.01,18.44-21.46,31.98l-2.45,22.77c-3.66,34.1-44.84,49.2-69.68,25.55l-16.58-15.79c-9.86-9.39-23.72-13.33-37.05-10.53l-22.41,4.71c-33.57,7.05-60.65-27.44-45.83-58.38l9.89-20.65c5.88-12.28,5.35-26.68-1.44-38.49l-11.4-19.86c-17.08-29.74,7.36-66.16,41.36-61.63l22.7,3.03c13.5,1.8,27.02-3.16,36.16-13.26l15.36-16.98c23.01-25.44,65.2-13.45,71.39,20.29l4.14,22.52c2.46,13.4,11.35,24.73,23.78,30.29l20.9,9.36c31.3,14.02,32.94,57.85,2.77,74.17Z"></path><path class="cls-42" d="m840.58,747.39l-23.92,11.12c-14.23,6.61-24.29,19.8-26.91,35.27l-4.4,26.01c-6.59,38.95-54.99,53.44-81.9,24.51l-17.96-19.31c-10.69-11.49-26.34-16.98-41.86-14.69l-26.09,3.85c-39.08,5.77-67.82-35.79-48.62-70.32l12.82-23.05c7.62-13.71,8.01-30.3,1.04-44.35l-11.73-23.63c-17.56-35.39,13.08-75.56,51.85-67.97l25.88,5.06c15.4,3.01,31.29-1.74,42.5-12.72l18.85-18.45c28.23-27.64,75.9-10.91,80.67,28.31l3.18,26.18c1.89,15.57,11.33,29.22,25.23,36.49l23.37,12.22c35.01,18.31,33.83,68.81-2,85.47Z"></path><path class="cls-43" d="m858.47,765.24l-28.27,11.11c-16.82,6.61-29.31,21.07-33.4,38.67l-6.88,29.59c-10.3,44.32-66.95,57.6-95.87,22.46l-19.31-23.46c-11.48-13.95-29.1-21.36-47.1-19.81l-30.27,2.61c-45.34,3.9-75.47-45.88-50.99-84.24l16.34-25.61c9.72-15.23,11.32-34.27,4.29-50.92l-11.83-27.98c-17.72-41.91,20.31-85.95,64.36-74.52l29.41,7.63c17.49,4.54,36.1.18,49.75-11.66l22.96-19.9c34.39-29.81,88.02-7.24,90.76,38.18l1.83,30.32c1.09,18.04,10.98,34.38,26.46,43.71l26.02,15.68c38.97,23.49,34.09,81.48-8.26,98.12Z"></path><path class="cls-40" d="m877.79,787.01l-33.28,10.8c-19.8,6.43-35.17,22.18-41.1,42.13l-9.97,33.54c-14.93,50.24-81,61.55-111.79,19.13l-20.56-28.32c-12.23-16.84-31.96-26.59-52.77-26.07l-34.98.88c-52.4,1.32-83.57-58.01-52.74-100.41l20.58-28.3c12.24-16.83,15.41-38.61,8.48-58.24l-11.65-33c-17.45-49.42,29.35-97.4,79.19-81.19l33.28,10.82c19.79,6.44,41.49,2.73,58.01-9.93l27.78-21.28c41.61-31.87,101.71-2.19,101.69,50.23v34.99c-.02,20.81,10.22,40.3,27.36,52.1l28.82,19.85c43.17,29.73,33.51,96.05-16.35,112.23Z"></path><path class="cls-41" d="m898.49,813.4l-39.02,10.1c-23.21,6-41.98,23.05-50.19,45.57l-13.8,37.87c-20.68,56.72-97.42,65.11-129.86,14.19l-21.66-33.99c-12.88-20.22-34.89-32.8-58.85-33.65l-40.28-1.43c-60.33-2.14-92.03-72.53-53.63-119.12l25.63-31.1c15.25-18.5,20.41-43.32,13.82-66.37l-11.09-38.75c-16.61-58.04,40.54-109.94,96.72-87.82l37.5,14.77c22.31,8.78,47.51,6.03,67.39-7.37l33.43-22.52c50.07-33.73,117.08,4.59,113.4,64.85l-2.46,40.23c-1.46,23.93,8.95,47.05,27.83,61.81l31.75,24.83c47.55,37.19,31.82,112.77-26.63,127.89Z"></path><path class="cls-46" d="m920.44,845.17l-45.57,8.88c-27.1,5.28-49.87,23.57-60.88,48.89l-18.51,42.57c-27.73,63.77-116.55,68.06-150.29,7.25l-22.53-40.59c-13.4-24.14-37.82-40.15-65.31-42.8l-46.21-4.45c-69.22-6.67-100.74-89.81-53.34-140.7l31.64-33.97c18.82-20.21,26.5-48.38,20.52-75.34l-10.04-45.32c-15.05-67.89,54.29-123.56,117.33-94.21l42.09,19.6c25.03,11.66,54.2,10.25,77.99-3.76l40-23.56c59.92-35.29,134.29,13.45,125.85,82.47l-5.63,46.08c-3.35,27.41,7,54.71,27.68,73.01l34.77,30.76c52.08,46.08,28.71,131.87-39.54,145.18Z"></path><path class="cls-38" d="m943.46,883.24l-53.01,7.03c-31.53,4.18-58.98,23.61-73.41,51.96l-24.26,47.65c-36.34,71.38-138.75,70.11-173.3-2.15l-23.07-48.24c-13.72-28.69-40.68-48.8-72.1-53.76l-52.82-8.35c-79.11-12.5-109.55-110.29-51.51-165.48l38.75-36.85c23.05-21.92,33.84-53.77,28.85-85.18l-8.38-52.81c-12.56-79.1,71.04-138.27,141.47-100.12l47.02,25.47c27.97,15.15,61.6,15.57,89.93,1.12l47.63-24.29c71.35-36.39,153.46,24.83,138.94,103.6l-9.69,52.59c-5.77,31.28,4.23,63.39,26.73,85.87l37.82,37.8c56.66,56.61,23.8,153.62-55.6,164.15Z"></path><path class="cls-44" d="m967.28,928.61l-61.43,4.38c-36.54,2.61-69.46,23.03-88.03,54.61l-31.22,53.09c-46.76,79.53-164.41,70.92-199.09-14.57l-23.15-57.07c-13.77-33.95-43.37-58.94-79.14-66.84l-60.14-13.28c-90.08-19.89-118.25-134.45-47.67-193.85l47.12-39.66c28.03-23.59,42.66-59.46,39.12-95.92l-5.95-61.3c-8.92-91.82,91.33-154.01,169.63-105.24l52.28,32.56c31.1,19.37,69.73,22.2,103.32,7.56l56.46-24.61c84.57-36.86,174.7,39.26,152.51,128.81l-14.81,59.78c-8.81,35.56.44,73.18,24.74,100.6l40.85,46.1c61.19,69.05,16.64,178.28-75.38,184.85Z"></path><path class="cls-45" d="m991.49,982.44l-70.94.75c-42.19.45-81.47,21.63-105.02,56.64l-39.6,58.86c-59.31,88.17-193.98,70.06-227.88-30.65l-22.64-67.23c-13.46-39.99-45.74-70.8-86.32-82.38l-68.22-19.47c-102.18-29.16-126.57-162.83-41.27-226.2l56.95-42.3c33.87-25.16,53.19-65.38,51.67-107.55l-2.57-70.89c-3.84-106.19,115.75-170.69,202.38-109.15l57.83,41.09c34.4,24.44,78.62,30.39,118.25,15.9l66.63-24.35c99.81-36.47,198.11,57.34,166.35,158.74l-21.21,67.7c-12.61,40.27-4.6,84.16,21.42,117.38l43.75,55.85c65.53,83.65,6.69,206.13-99.57,207.26Z"></path><path class="cls-55" d="m1015.56,1046.01l-81.61-4.09c-48.54-2.43-95.17,19.18-124.69,57.79l-49.63,64.91c-74.34,97.23-227.9,67-259.86-51.14l-21.33-78.88c-12.69-46.92-47.65-84.59-93.49-100.73l-77.07-27.14c-115.44-40.66-134.15-196.04-31.66-262.94l68.43-44.66c40.7-26.57,65.72-71.46,66.91-120.05l2-81.69c3-122.36,144.99-188.17,240.29-111.36l63.62,51.27c37.84,30.5,88.27,40.42,134.85,26.54l78.31-23.34c117.29-34.96,223.76,79.75,180.17,194.12l-29.11,76.35c-17.31,45.41-11.17,96.44,16.43,136.45l46.4,67.26c69.5,100.75-6.7,237.46-128.94,231.33Z"></path><path class="cls-62" d="m1038.8,1120.78l-93.54-10.4c-55.64-6.18-110.76,15.41-147.39,57.74l-61.59,71.16c-92.26,106.59-266.7,61.13-295.19-76.94l-19.02-92.18c-11.31-54.83-48.88-100.58-100.46-122.34l-86.71-36.59c-129.89-54.8-140.55-234.76-18.04-304.52l81.79-46.57c48.65-27.7,80.55-77.57,85.31-133.35l8-93.78c11.98-140.47,179.84-206.21,284.04-111.26l69.57,63.39c41.38,37.71,98.66,52.64,153.18,39.93l91.66-21.37c137.29-32.01,251.69,107.31,193.59,235.75l-38.79,85.75c-23.07,51.01-19.57,110.1,9.36,158.02l48.65,80.57c72.87,120.68-24.28,272.54-164.39,256.96Z"></path><path class="cls-63" d="m1060.31,1208.37l-106.82-18.48c-63.54-10.99-128.41,9.98-173.49,56.09l-75.78,77.52c-113.51,116.11-310.89,51.66-334.01-109.07l-15.43-107.3c-9.18-63.82-49.18-119.04-106.96-147.67l-97.14-48.12c-145.51-72.08-145.2-279.71.51-351.36l97.28-47.83c57.86-28.45,98.02-83.56,107.39-147.35l15.75-107.26c23.58-160.66,221.15-224.53,334.33-108.09l75.56,77.74c44.94,46.24,109.76,67.4,173.33,56.6l106.87-18.17c160.08-27.22,281.88,140.94,206.11,284.56l-50.59,95.88c-30.09,57.03-30.19,125.21-.27,182.33l50.31,96.03c75.35,143.84-46.94,311.64-206.94,283.96Z"></path><path class="cls-58" d="m1078.91,1310.57l-121.52-28.7c-72.28-17.07-148.34,2.51-203.38,52.38l-92.54,83.83c-138.61,125.57-361.04,37.69-376.4-148.71l-10.25-124.44c-6.1-74.02-48.23-140.3-112.66-177.24l-108.32-62.1c-162.26-93.02-147.41-331.72,25.12-403.93l115.18-48.2c68.51-28.67,118.53-89.22,133.75-161.92l25.59-122.21c38.33-183.06,269.93-242.71,391.92-100.93l81.44,94.65c48.44,56.3,121.48,85.16,195.32,77.17l124.14-13.43c185.95-20.12,314.24,181.72,217.1,341.55l-64.85,106.7c-38.57,63.47-43.45,141.85-13.03,209.61l51.13,113.91c76.59,170.63-75.72,355.02-257.74,312.02Z"></path><path class="cls-59" d="m1093.17,1429.37l-137.71-41.48c-81.91-24.68-170.72-7.47-237.48,46.02l-112.24,89.92c-168.13,134.69-417.72,18.13-422.36-197.25l-3.1-143.79c-1.84-85.53-45.65-164.67-117.15-211.64l-120.21-78.96C-237.14,773.92-203.41,500.52-.01,429.55l135.79-47.38c80.77-28.18,142.5-94.31,165.08-176.82l37.95-138.72c56.85-207.79,327.29-260.2,457.64-88.68l87.02,114.5c51.76,68.11,133.73,106.39,219.18,102.36l143.66-6.77c215.19-10.15,348.6,230.86,225.76,407.83l-82.01,118.15c-48.78,70.28-59.85,160.06-29.62,240.08l50.84,134.54c76.15,201.52-111.84,402.88-318.11,340.74Z"></path><path class="cls-60" d="m1101.27,1566.95l-155.43-57.31c-92.45-34.09-195.75-20.5-276.25,36.33l-135.32,95.55c-202.7,143.12-481.52-8.31-471.82-256.26l6.47-165.53c3.85-98.46-40.99-192.51-119.92-251.5l-132.69-99.17c-198.75-148.55-140.89-460.52,97.91-527.92l159.43-44.99c94.83-26.76,170.42-98.48,202.13-191.77l53.32-156.84c79.86-234.93,394.45-276.31,532.34-70.02L953.5,15.25c54.76,81.92,146.32,131.65,244.84,132.98l165.64,2.24c248.11,3.36,384.67,289.76,231.09,484.65l-102.53,130.11c-60.99,77.39-79.99,179.84-50.81,273.95l49.06,158.23c73.48,237-156.7,455.38-389.52,369.54Z"></path><path class="cls-61" d="m1100.98,1725.69l-174.7-76.74c-103.91-45.64-223.63-37.23-320.14,22.49l-162.25,100.41c-243.03,150.4-553.03-43.17-524.57-327.56l19-189.86c11.3-112.93-33.69-224.19-120.32-297.52l-145.63-123.28c-218.14-184.66-129.84-539.3,149.42-600.12L8.24,192.92C119.13,168.77,211.04,91.59,254.02-13.45l72.25-176.6c108.22-264.53,472.78-290.13,616.92-43.34l96.23,164.76c57.24,98,159.03,161.57,272.21,169.98l190.28,14.14c285.02,21.18,422.03,359.99,231.85,573.33l-126.96,142.43c-75.52,84.72-104.52,201.18-77.54,311.42l45.35,185.34c67.93,277.61-211.95,512.62-473.63,397.68Z"></path><path class="cls-64" d="m1089.57,1908.18l-195.49-100.42c-116.28-59.73-254.51-58.42-369.63,3.51l-193.55,104.11c-289.92,155.95-632.8-88.24-580.24-413.21l35.09-216.95c20.87-129.05-23.09-260.1-117.56-350.46l-158.83-151.9c-237.9-227.54-111.63-629.1,213.68-679.53L-59.77,69.66C69.41,49.63,180.47-32.67,237.21-150.44l95.39-197.99c142.88-296.57,563.81-300.57,712.3-6.76l99.13,196.15c58.96,116.67,171.56,196.86,301.1,214.43l217.78,29.54c326.21,44.24,460.08,443.34,226.54,675.35l-155.91,154.89c-92.74,92.13-134.21,224-110.89,352.62l39.21,216.25c58.73,323.92-279.47,574.56-572.29,424.15Z"></path></svg> 