<?xml version="1.0" encoding="UTF-8"?> <svg xmlns="http://www.w3.org/2000/svg" xmlns:xlink="http://www.w3.org/1999/xlink" id="Layer_1" width="43.31" height="50" viewBox="0 0 43.31 50"><defs><style>.cls-1{fill:url(#linear-gradient);}.cls-1,.cls-2,.cls-3,.cls-4,.cls-5,.cls-6{isolation:isolate;stroke-width:0px;}.cls-2{fill:url(#linear-gradient-4);}.cls-3{fill:url(#linear-gradient-5);}.cls-4{fill:url(#linear-gradient-2);}.cls-5{fill:url(#linear-gradient-3);}.cls-6{fill:url(#linear-gradient-6);}</style><linearGradient id="linear-gradient" x1="-23.33" y1="339.07" x2="1.66" y2="339.07" gradientTransform="translate(195.15 303.82) rotate(-30) scale(1 -1)" gradientUnits="userSpaceOnUse"><stop offset="0" stop-color="#cc2a9a"></stop><stop offset="1" stop-color="#399ec7"></stop></linearGradient><linearGradient id="linear-gradient-2" x1="343.49" y1="794.72" x2="368.48" y2="794.72" gradientTransform="translate(805.49 380.96) rotate(-90) scale(1 -1)" xlink:href="#linear-gradient"></linearGradient><linearGradient id="linear-gradient-3" x1="921.51" y1="704.87" x2="946.5" y2="704.87" gradientTransform="translate(1177.46 -109.04) rotate(-150) scale(1 -1)" xlink:href="#linear-gradient"></linearGradient><linearGradient id="linear-gradient-4" x1="1132.71" y1="159.36" x2="1157.7" y2="159.36" gradientTransform="translate(939.09 -676.18) rotate(150) scale(1 -1)" xlink:href="#linear-gradient"></linearGradient><linearGradient id="linear-gradient-5" x1="765.88" y1="-296.29" x2="790.87" y2="-296.29" gradientTransform="translate(328.75 -753.31) rotate(90) scale(1 -1)" xlink:href="#linear-gradient"></linearGradient><linearGradient id="linear-gradient-6" x1="187.86" y1="-206.44" x2="212.85" y2="-206.44" gradientTransform="translate(-43.22 -263.31) rotate(30) scale(1 -1)" xlink:href="#linear-gradient"></linearGradient></defs><polygon class="cls-1" points="18.14 2.02 18.15 18.93 3.51 10.47 0 12.49 21.65 25 21.65 0 18.14 2.02"></polygon><polygon class="cls-4" points="0 16.55 14.65 25 0 33.45 0 37.49 21.65 25 0 12.51 0 16.55"></polygon><polygon class="cls-5" points="3.51 39.53 18.15 31.07 18.14 47.98 21.65 50 21.65 25 0 37.51 3.51 39.53"></polygon><polygon class="cls-2" points="25.17 47.98 25.16 31.07 39.8 39.53 43.3 37.51 21.65 25 21.66 50 25.17 47.98"></polygon><polygon class="cls-3" points="43.31 33.45 28.66 25 43.31 16.55 43.31 12.51 21.65 25 43.31 37.49 43.31 33.45"></polygon><polygon class="cls-6" points="39.8 10.47 25.16 18.93 25.17 2.02 21.66 0 21.65 25 43.3 12.49 39.8 10.47"></polygon></svg> 