<?xml version="1.0" encoding="UTF-8"?> <svg xmlns="http://www.w3.org/2000/svg" id="Layer_1" width="40" height="40" viewBox="0 0 40 40"><defs><style>.cls-1,.cls-2,.cls-3,.cls-4{fill:none;stroke-linecap:round;stroke-linejoin:round;}.cls-1,.cls-4{stroke:#fff;}.cls-2{stroke:aqua;}.cls-3{stroke:#cc2a9a;}.cls-4{stroke-dasharray:0 0 2.33 2.33;}</style></defs><line class="cls-2" x1="5" y1="24.35" x2="35" y2="24.35"></line><path class="cls-3" d="m17.1,27.26v2.6c0,.46-.32.86-.77.95l-2.18.45c-.83.21-1.41.95-1.41,1.8h14.52c0-.85-.58-1.6-1.41-1.8l-2.18-.45c-.45-.09-.77-.49-.77-.95v-2.6"></path><rect class="cls-3" x="5" y="6.94" width="30" height="20.32" rx="2" ry="2"></rect><rect class="cls-2" x="8" y="11.32" width="10" height="7"></rect><rect class="cls-3" x="15" y="14.05" width="12" height="7"></rect><polyline class="cls-1" points="32 15.82 32 17.32 30.5 17.32"></polyline><line class="cls-4" x1="28.17" y1="17.32" x2="24.67" y2="17.32"></line><polyline class="cls-1" points="23.5 17.32 22 17.32 22 15.82"></polyline><polyline class="cls-1" points="22 11.82 22 10.32 23.5 10.32"></polyline><line class="cls-4" x1="25.83" y1="10.32" x2="29.33" y2="10.32"></line><polyline class="cls-1" points="30.5 10.32 32 10.32 32 11.82"></polyline></svg> 