<?xml version="1.0" encoding="UTF-8"?> <svg xmlns="http://www.w3.org/2000/svg" id="Layer_1" width="40" height="40" viewBox="0 0 40 40"><defs><style>.cls-1{stroke:#fff;}.cls-1,.cls-2,.cls-3{fill:none;stroke-linecap:round;stroke-linejoin:round;}.cls-2{stroke:aqua;}.cls-3{stroke:#cc2a9a;}</style></defs><path class="cls-1" d="m19.13,17.58v-1.21c0-.67.4-1.26.97-1.53.22-.11.46-.16.73-.16.46,0,.89.19,1.2.5.31.3.5.73.5,1.2v1.21"></path><polygon class="cls-2" points="23.39 5.97 22.9 9.42 17.1 9.42 16.61 5.97 23.39 5.97"></polygon><path class="cls-1" d="m23.39,17.58h-5.81l-.48,5.81h6.29v-4.35c0-.4.16-.76.43-1.03l-.43-.43Z"></path><path class="cls-2" d="m32.1,35.97l.71-1.42c.17-.34.26-.71.26-1.08v-4.4c0-1.26-1.02-2.28-2.28-2.28h-4.49v-7.74c0-.8-.65-1.45-1.45-1.45-.4,0-.76.16-1.03.43s-.43.62-.43,1.03v10.17"></path><path class="cls-2" d="m23.39,29.71v-1l-1.65-1.37c-.44-.37-.95-.56-1.48-.56-.2,0-.39.11-.52.27-.14.17-.22.4-.22.65,0,.31.13.6.34.78.64.53,2.08,1.9,2.08,4.1v.48c0,.45.11.9.3,1.3.2.4.49.75.86,1.03l.77.58"></path><path class="cls-3" d="m28.23,23.39V7.9c0-1.07-.87-1.94-1.94-1.94h-12.58c-1.07,0-1.94.87-1.94,1.94v24.19c0,1.07.87,1.94,1.94,1.94h6.77"></path></svg> 