<?xml version="1.0" encoding="UTF-8"?> <svg xmlns="http://www.w3.org/2000/svg" id="Layer_1" width="40" height="40" viewBox="0 0 40 40"><defs><style>.cls-1{stroke:#fff;}.cls-1,.cls-2,.cls-3{fill:none;stroke-linecap:round;stroke-linejoin:round;}.cls-2{stroke:aqua;}.cls-3{stroke:#cc2a9a;}</style></defs><line class="cls-2" x1="2.94" y1="24.35" x2="26.01" y2="24.35"></line><path class="cls-3" d="m26.01,27.26H4.88c-1.07,0-1.94-.87-1.94-1.94V8.87c0-1.07.87-1.94,1.94-1.94h26.13c1.07,0,1.94.87,1.94,1.94v7.36"></path><path class="cls-3" d="m15.04,27.26v2.6c0,.46-.32.86-.77.95l-2.18.45c-.83.21-1.41.95-1.41,1.8h14.52c0-.85-.58-1.6-1.41-1.8l-2.18-.45c-.45-.09-.77-.49-.77-.95v-2.6"></path><polygon class="cls-2" points="34.64 19.03 34.4 21.76 31.49 21.76 31.25 19.03 34.64 19.03"></polygon><rect class="cls-3" x="28.83" y="19.03" width="8.23" height="14.03" rx="2" ry="2"></rect><circle class="cls-1" cx="32.94" cy="30.16" r="1.19"></circle><polygon class="cls-1" points="15.53 11.39 14.94 20.21 17.9 17.89 21.65 17.77 15.53 11.39"></polygon></svg> 