<?xml version="1.0" encoding="UTF-8"?> <svg xmlns="http://www.w3.org/2000/svg" id="Layer_1" width="40" height="40" viewBox="0 0 40 40"><defs><style>.cls-1{stroke:aqua;}.cls-1,.cls-2,.cls-3{fill:none;stroke-linecap:round;stroke-linejoin:round;stroke-width:1.04px;}.cls-2{stroke:#fff;}.cls-3{stroke:#cc2a9a;}</style></defs><path class="cls-1" d="m30.1,15.8v19.2h-3.75V15.8c0-.26.21-.47.47-.47h2.81c.26,0,.47.21.47.47Z"></path><path class="cls-1" d="m13.64,27.98v7.02h-3.75v-7.02c0-.26.21-.47.47-.47h2.81c.26,0,.47.21.47.47Z"></path><path class="cls-3" d="m18.13,35v-12.64c0-.26.21-.47.47-.47h2.81c.26,0,.47.21.47.47v12.64"></path><polyline class="cls-3" points="34.52 35 34.05 35 30.3 35 27.96 35 24.21 35 21.87 35 18.13 35 15.79 35 12.04 35 9.7 35 5.95 35 5.48 35"></polyline><polyline class="cls-2" points="7.36 25.94 12.51 20.79 15.32 20.79 24.68 11.56 26.09 11.56 31.71 5"></polyline><polyline class="cls-2" points="29.37 5 31.71 5 32.15 7.11"></polyline></svg> 