<?xml version="1.0" encoding="UTF-8"?> <svg xmlns="http://www.w3.org/2000/svg" id="Layer_1" width="40" height="40" viewBox="0 0 40 40"><defs><style>.cls-1{stroke:#fff;}.cls-1,.cls-2,.cls-3,.cls-4{fill:none;stroke-linecap:round;stroke-linejoin:round;}.cls-2{stroke:aqua;}.cls-3,.cls-4{stroke:#cc2a9a;}.cls-4{stroke-width:.9px;}</style></defs><line class="cls-2" x1="15.27" y1="33.9" x2="15.27" y2="25.55"></line><line class="cls-2" x1="25.15" y1="33.78" x2="25.15" y2="25.55"></line><path class="cls-2" d="m27.09,16.97c-1.68-.94-2.94-2.53-3.44-4.44"></path><path class="cls-2" d="m13,16.98c1.68-.94,2.95-2.53,3.44-4.44"></path><path class="cls-2" d="m14.76,11.16c1.31,1.44,3.19,2.35,5.29,2.35s3.96-.9,5.27-2.32"></path><path class="cls-2" d="m25.15,24.94s.32,5.42-4.78,5.42-5.1-5.1-5.1-5.1"></path><path class="cls-1" d="m22.1,19.43s-.5,1.07-1.82,1.07-1.95-.95-1.95-.95"></path><path class="cls-3" d="m10.3,31.2v-1.92c0-2.4,1.94-4.34,4.34-4.34h10.8c2.4,0,4.34,1.94,4.34,4.34v1.92"></path><circle class="cls-3" cx="20.05" cy="15.89" r="7.14"></circle><circle class="cls-4" cx="20" cy="20" r="15"></circle></svg> 