<?xml version="1.0" encoding="UTF-8"?> <svg xmlns="http://www.w3.org/2000/svg" id="Layer_1" width="40" height="40" viewBox="0 0 40 40"><defs><style>.cls-1{stroke:#fff;}.cls-1,.cls-2,.cls-3{stroke-linecap:round;stroke-linejoin:round;}.cls-1,.cls-2,.cls-3,.cls-4{fill:none;}.cls-2{stroke:aqua;}.cls-3{stroke:#cc2a9a;}.cls-4{stroke:#07ffff;stroke-miterlimit:10;}</style></defs><polygon class="cls-2" points="13.15 10.21 12.81 12.63 8.74 12.63 8.4 10.21 13.15 10.21"></polygon><path class="cls-3" d="m16.48,14.91v-3.21c0-.83-.67-1.5-1.5-1.5H6.5c-.83,0-1.5.67-1.5,1.5v16.59c0,.83.67,1.5,1.5,1.5h8.48c.83,0,1.5-.67,1.5-1.5v-3.21"></path><path class="cls-4" d="m19.78,25.96s.08.03.12.03c.06,0,.11-.02.16-.05l7.98-5.71c.07-.05.11-.13.11-.22s-.04-.17-.11-.22l-7.98-5.71c-.08-.06-.19-.07-.28-.02-.09.05-.15.14-.15.24v3.45h-6.95c-.15,0-.27.12-.27.27v3.98c0,.15.12.27.27.27h6.95v3.45c0,.1.06.2.15.24Z"></path><polyline class="cls-1" points="21.82 21.77 24.32 20 21.82 18.23"></polyline><line class="cls-1" x1="24.32" y1="20" x2="15.05" y2="20"></line><polygon class="cls-2" points="30.5 6.94 30.05 10.15 24.64 10.15 24.19 6.94 30.5 6.94"></polygon><path class="cls-3" d="m19.69,11.53v-2.59c0-1.1.9-2,2-2h11.31c1.1,0,2,.9,2,2v22.12c0,1.1-.9,2-2,2h-11.31c-1.1,0-2-.9-2-2v-2.54"></path></svg> 