<?xml version="1.0" encoding="UTF-8"?> <svg xmlns="http://www.w3.org/2000/svg" id="Layer_1" width="40" height="40" viewBox="0 0 40 40"><defs><style>.cls-1{stroke:#fff;}.cls-1,.cls-2,.cls-3{fill:none;stroke-linecap:round;stroke-linejoin:round;}.cls-2{stroke:aqua;}.cls-3{stroke:#cc2a9a;}</style></defs><line class="cls-2" x1="5" y1="27.29" x2="35" y2="27.29"></line><line class="cls-1" x1="17.5" y1="23.5" x2="15.5" y2="19.5"></line><path class="cls-3" d="m33.06,9.87c1.07,0,1.94.87,1.94,1.94v16.45c0,1.07-.87,1.94-1.94,1.94H6.94c-1.07,0-1.94-.87-1.94-1.94V11.81c0-1.07.87-1.94,1.94-1.94h7.19"></path><path class="cls-3" d="m17.1,30.19v2.6c0,.46-.32.86-.77.95l-2.18.45c-.83.21-1.41.95-1.41,1.8h14.52c0-.85-.58-1.6-1.41-1.8l-2.18-.45c-.45-.09-.77-.49-.77-.95v-1.63"></path><path class="cls-1" d="m16.35,18.82c8.36-1.66,11.4-.95,11.4-.95l-1.86-3.81-2.07-4.24-1.86-3.81s-.94,2.49-8.09,7.74"></path><path class="cls-1" d="m16.35,18.82l-.89.4c-.3.13-.6.21-.91.25-1.22.13-2.44-.48-2.99-1.6-.19-.38-.28-.79-.28-1.19,0-1.05.63-2.07,1.69-2.55l.89-.39,2.48,5.08Z"></path><line class="cls-2" x1="27.26" y1="10.35" x2="30.65" y2="8.42"></line><line class="cls-2" x1="27.78" y1="4" x2="25.29" y2="6.9"></line><line class="cls-2" x1="28.74" y1="13.81" x2="31.65" y2="13.81"></line></svg> 