<?xml version="1.0" encoding="UTF-8"?> <svg xmlns="http://www.w3.org/2000/svg" id="Layer_1" width="40" height="40" viewBox="0 0 40 40"><defs><style>.cls-1{stroke:#fff;}.cls-1,.cls-2,.cls-3{fill:none;stroke-linecap:round;stroke-linejoin:round;}.cls-2{stroke:aqua;}.cls-3{stroke:#cc2a9a;}</style></defs><line class="cls-1" x1="25.62" y1="28.48" x2="29.32" y2="33.98"></line><line class="cls-1" x1="14.38" y1="28.48" x2="10.68" y2="33.98"></line><line class="cls-1" x1="10.9" y1="17.78" x2="5.15" y2="16.31"></line><line class="cls-1" x1="20" y1="11.17" x2="20" y2="5.66"></line><line class="cls-1" x1="29.1" y1="17.78" x2="34.85" y2="16.31"></line><path class="cls-3" d="m21.38,6.67l2.54,7.83c.19.6.75,1,1.38,1h8.23c1.41,0,1.99,1.8.85,2.63l-6.66,4.84c-.51.37-.72,1.03-.53,1.63l2.54,7.83c.44,1.34-1.1,2.45-2.24,1.63l-6.66-4.84c-.51-.37-1.2-.37-1.71,0l-6.66,4.84c-1.14.83-2.67-.29-2.24-1.63l2.54-7.83c.19-.6-.02-1.26-.53-1.63l-6.66-4.84c-1.14-.83-.55-2.63.85-2.63h8.23c.63,0,1.19-.41,1.38-1l2.54-7.83c.44-1.34,2.33-1.34,2.77,0Z"></path><polygon class="cls-2" points="20 11.17 22.15 17.78 29.1 17.78 23.48 21.87 25.62 28.48 20 24.4 14.38 28.48 16.52 21.87 10.9 17.78 17.85 17.78 20 11.17"></polygon></svg> 