<?xml version="1.0" encoding="UTF-8"?> <svg xmlns="http://www.w3.org/2000/svg" id="Layer_1" width="100" height="16.65" viewBox="0 0 100 16.65"><defs><style>.cls-1{fill:#fff;stroke-width:0px;}</style></defs><path class="cls-1" d="m10.23,16.19l4.11-1.02s-1.77-11.96-1.78-12.04c-.01-.08-.08-.13-.14-.13-.06,0-1.22-.02-1.22-.02,0,0-.7-.68-.97-.94v14.16Z"></path><path class="cls-1" d="m9.78,1.89s-.18.06-.49.15c-.05-.16-.13-.37-.23-.57-.34-.66-.85-1-1.46-1.01h0s-.08,0-.13,0c-.02-.02-.04-.04-.05-.06C7.16.13,6.82-.01,6.41,0c-.79.02-1.57.59-2.21,1.6-.45.71-.79,1.6-.88,2.29-.9.28-1.54.48-1.55.48-.46.14-.47.16-.53.59-.04.32-1.24,9.55-1.24,9.55l9.9,1.71V1.87s-.09.01-.12.02Zm-2.29.71c-.52.16-1.1.34-1.67.52.16-.62.47-1.23.84-1.64.14-.15.34-.32.57-.41.22.45.27,1.1.26,1.53Zm-1.07-2.08c.18,0,.34.04.47.12-.21.11-.42.27-.61.48-.5.54-.88,1.37-1.04,2.17-.48.15-.94.29-1.37.42.27-1.26,1.33-3.16,2.55-3.2Zm-1.53,7.2c.05.84,2.27,1.03,2.39,3,.1,1.55-.82,2.61-2.15,2.7-1.59.1-2.47-.84-2.47-.84l.34-1.44s.88.67,1.59.62c.46-.03.63-.4.61-.67-.07-1.1-1.87-1.03-1.99-2.84-.1-1.52.9-3.06,3.1-3.2.85-.05,1.28.16,1.28.16l-.5,1.88s-.56-.26-1.23-.21c-.98.06-.99.68-.98.83Zm3.13-5.29c0-.4-.05-.95-.24-1.43.6.11.89.79,1.02,1.19-.23.07-.49.15-.78.24Z"></path><path class="cls-1" d="m59.31,16.3l1.39-7.4c.17-.93.3-1.75.39-2.39h.59l-.22,1.4h.03c.62-.94,1.49-1.55,2.42-1.55,1.32,0,1.81,1.13,1.81,2.26,0,2.35-1.61,4.98-3.82,4.98-.68,0-1.13-.16-1.39-.3h-.03l-.55,3h-.62Zm1.3-3.63c.32.25.78.39,1.35.39,1.84,0,3.11-2.61,3.11-4.39,0-.83-.32-1.74-1.35-1.74s-2.27,1.24-2.66,3.34l-.45,2.39Z"></path><path class="cls-1" d="m70.51,13.46c-.01-.42.07-1.07.17-1.87h-.03c-.8,1.53-1.68,2.01-2.59,2.01-1.05,0-1.69-.87-1.69-2.11,0-2.36,1.69-5.12,4.39-5.12.49,0,1.04.09,1.4.2l-.74,3.75c-.25,1.29-.33,2.4-.3,3.14h-.61Zm.93-6.43c-.16-.06-.41-.1-.84-.1-2,0-3.56,2.23-3.58,4.42-.01.9.25,1.71,1.19,1.71,1.13,0,2.4-1.69,2.74-3.49l.49-2.53Z"></path><path class="cls-1" d="m72.76,13.46l.88-4.68c.17-.88.28-1.66.33-2.27h.58c-.06.45-.12.91-.2,1.51h.03c.43-.93,1.11-1.65,1.98-1.65.09,0,.17.01.26.03l-.12.65c-.08-.02-.16-.03-.25-.03-.91,0-1.93,1.38-2.22,2.91l-.65,3.53h-.64Z"></path><path class="cls-1" d="m79.26,4.98l-.3,1.53h1.64l-.12.54h-1.64l-.77,4.14c-.09.46-.14.83-.14,1.2,0,.41.19.65.62.65.23,0,.38-.01.51-.06l.04.51c-.22.07-.45.1-.68.1-.83,0-1.14-.55-1.14-1.13,0-.38.04-.74.16-1.27l.78-4.14h-1l.1-.54h1.01l.23-1.24.7-.29Z"></path><path class="cls-1" d="m80.43,13.46l.93-4.91c.14-.67.25-1.36.32-2.04h.58l-.19,1.42h.03c.61-1.01,1.48-1.56,2.42-1.56.68,0,1.55.43,1.55,1.75,0,.35-.06.69-.13,1.07l-.8,4.27h-.62l.81-4.27c.06-.33.1-.67.1-1.01,0-.72-.29-1.24-1.14-1.24-.93,0-2.23,1.16-2.53,2.84l-.68,3.69h-.64Z"></path><path class="cls-1" d="m91.16,13.07c-.36.23-1.03.52-1.9.52-1.62,0-2.19-1.27-2.19-2.61,0-2,1.39-4.62,3.39-4.62,1.14,0,1.62.75,1.62,1.52,0,1.77-2.02,2.26-4.3,2.24-.07.32-.08,1.23.06,1.72.25.8.78,1.17,1.52,1.17s1.29-.28,1.61-.46l.19.51Zm-.81-6.14c-1.07,0-2.04,1.16-2.46,2.65,1.81.01,3.55-.29,3.55-1.67,0-.65-.43-.98-1.09-.98Z"></path><path class="cls-1" d="m92.43,13.46l.88-4.68c.17-.88.27-1.66.33-2.27h.58c-.06.45-.12.91-.2,1.51h.03c.43-.93,1.11-1.65,1.98-1.65.09,0,.18.01.26.03l-.12.65c-.08-.02-.16-.03-.25-.03-.91,0-1.93,1.38-2.21,2.91l-.65,3.53h-.64Z"></path><path class="cls-1" d="m96.01,12.65c.37.24.79.37,1.23.38.91,0,1.52-.65,1.52-1.43,0-.7-.29-1.11-.94-1.53-.68-.45-1.06-1.07-1.06-1.71,0-1.09.87-1.98,2.08-1.98.48,0,.96.16,1.16.32l-.23.54c-.22-.13-.59-.29-1-.29-.84,0-1.39.58-1.39,1.3,0,.65.36,1.01.94,1.39.67.45,1.07,1.09,1.07,1.78,0,1.4-1.03,2.19-2.21,2.19-.62,0-1.17-.23-1.4-.42l.23-.52Z"></path><path class="cls-1" d="m20.21,9.24c-.5-.27-.76-.5-.76-.82,0-.4.36-.66.92-.66.65,0,1.23.27,1.23.27l.46-1.41s-.42-.33-1.67-.33c-1.73,0-2.93.99-2.93,2.38,0,.79.56,1.39,1.31,1.82.6.34.82.59.82.95s-.3.67-.86.67c-.83,0-1.62-.43-1.62-.43l-.49,1.41s.73.49,1.95.49c1.78,0,3.06-.88,3.06-2.46,0-.85-.64-1.45-1.42-1.9Z"></path><path class="cls-1" d="m27.31,6.29c-.88,0-1.57.42-2.1,1.05h-.03s.76-3.99.76-3.99h-1.98l-1.92,10.12h1.98l.66-3.46c.26-1.31.93-2.11,1.57-2.11.44,0,.62.3.62.73,0,.29-.03.59-.09.88l-.75,3.96h1.98l.78-4.09c.09-.43.13-.86.14-1.29,0-1.12-.59-1.8-1.62-1.8h0Z"></path><path class="cls-1" d="m33.41,6.29c-2.38,0-3.96,2.16-3.96,4.55,0,1.54.95,2.77,2.73,2.77,2.34,0,3.92-2.1,3.92-4.55,0-1.42-.83-2.77-2.69-2.77h0Zm-.98,5.8c-.67,0-.96-.57-.96-1.29,0-1.13.59-2.99,1.67-2.99.7,0,.93.6.93,1.19,0,1.22-.59,3.09-1.64,3.09h0Z"></path><path class="cls-1" d="m41.16,6.29c-1.34,0-2.1,1.18-2.1,1.18h-.03l.11-1.06h-1.75c-.08.72-.24,1.81-.4,2.63l-1.38,7.25h1.98l.55-2.93h.04s.41.26,1.16.26c2.33,0,3.85-2.38,3.85-4.8,0-1.34-.59-2.53-2.04-2.53Zm-1.89,5.83c-.3,0-.59-.1-.82-.29l.33-1.85c.23-1.23.88-2.05,1.56-2.05.6,0,.79.56.79,1.09,0,1.28-.76,3.1-1.87,3.1Z"></path><path class="cls-1" d="m46.03,3.44c-.15,0-.3.03-.44.09-.14.06-.26.14-.37.25-.11.11-.19.23-.24.37-.06.14-.08.29-.08.44,0,.59.37.99.93.99h.03c.62,0,1.15-.42,1.16-1.15,0-.57-.39-.99-.99-.99Z"></path><path class="cls-1" d="m43.26,13.47h1.98l1.35-7.02h-2l-1.34,7.02Z"></path><path class="cls-1" d="m51.63,6.43h-1.38l.07-.33c.11-.67.52-1.28,1.18-1.28.21,0,.43.03.63.1l.39-1.55s-.34-.17-1.08-.17-1.41.2-1.94.66c-.68.57-.99,1.41-1.15,2.24l-.06.33h-.92l-.29,1.49h.92l-1.05,5.54h1.98l1.05-5.54h1.36l.27-1.49Z"></path><path class="cls-1" d="m56.39,6.45s-1.24,3.12-1.79,4.82h-.03c-.04-.55-.49-4.82-.49-4.82h-2.08l1.19,6.45c.03.14.01.23-.04.33-.23.45-.62.88-1.08,1.19-.37.27-.79.45-1.12.56l.55,1.68c.4-.08,1.23-.42,1.94-1.08.9-.85,1.74-2.15,2.6-3.93l2.43-5.2h-2.07Z"></path></svg> 