<?xml version="1.0" encoding="UTF-8"?> <svg xmlns="http://www.w3.org/2000/svg" id="Story_Worldwide" width="600" height="400" viewBox="0 0 600 400"><defs><style>.cls-1{fill-rule:evenodd;}.cls-1,.cls-2{fill:#fff;stroke-width:0px;}</style></defs><path class="cls-1" d="m453.78,146.44c1.3,3.28.08,6.73.71,11,.39,2.62,2.1,5.05,2.47,8.01,1.04,8.54,1.07,18.02-1.22,25.59-1.17.73-1.51-1.55-2.99-1.45-.05-1.05-.87-1.32-.92-2.37-7.39-4.97-11.31-13.51-15.69-21.55-.94,1.52-2.31-.27-2.4-1.46-2.94.72.05,4.87-.82,6.85-2.42-.04-2.83-2.12-4.2-3.23-.82.47-2.22.37-2.66,1.22-.67,2.59,2.14,1.63,1.83,3.85-1.52,1.01-2.43-.82-3.88-.85-1.59.21-2.21,1.37-2.95,2.41-.18,2.09,2.06,1.71,1.82,3.85-3.21-1.16-3.69,1.27-5.03,2.73.62,1.07,2.5.86,3.59,1.45.46.93,1.34,1.44,1.51,2.66,6.3,3.39,10.17,9.26,15.91,13.22.21,4.7,4.32,5.41,7.22,7.36-.28.45.3.8.31.89.57,5.34-2.83,12.73-3.37,19.37-.61,7.5.53,14.22-1.28,20.84-.27,1-1.02,1.74-1.16,2.69-.65,4.3.45,8.43.42,12.19,0,1.83-1.25,4.06-1.72,6.57-.71,3.9-.74,9.11-.46,13.09.35,5.02-.91,8.07-5.86,7.5-1.27-.15-2.2-1.21-3.59-1.45-1.51-.25-4.3.29-6.55.07-1.16-.12-2.24-.7-2.98-.56-2.69.5-3.82,3.9-3.19,7.77.72.67,1.08-.67,2.37-.33.3,1.47-.77,1.59-.87,2.68,3.28,1.94,10.89,3.14,15.2,2.22,2.29-.49,4.62-2.95,6.8-3.93,1.21-.55,2.14-.32,2.97-.92,3.79-2.77,3.81-10.63,4.58-17.3.2-1.67,1.03-3.17,1.14-4.77.09-1.16-.24-2.43-.04-3.57.28-1.55,1.5-2.9,1.74-4.48.34-2.27-.31-4.64-.07-6.84.21-2.02,1.44-3.83,1.72-5.67.93-6.11,0-11.88,3.11-15.8,8.36-.33,19.19-7.72,27.04-2.96.2,18.91-1.07,39.47.29,57.4-2.91,1.76-7.13,2.24-10.38,3.68.82.47,1.77.81,1.81,2.06.03,1.4-1.02,1.75-1.46,2.69-1.02.61-1.86.32-2.68-.27-.26-.74-.4-1.59-.32-2.67-1.87,1.3-4.22,2.15-4.41,5.1,5.27,1.88,8.42-1.29,11.88-2.5,2.13-.75,4.66.01,7.14-.37,1.31-.2,3.11-1.11,4.45-1.83,1.93-1.04,3.34-3.2,6.52-1.55,5.85-3.46,1.54-10.17,1.33-15.18-.2-4.71.8-9.58.45-14.58-.63-8.89-2.72-18.56-.28-27.07-.04-1.18-1.39-3.67.55-4.76,1.81.79,3.39,2.49,5.1,4.11,1.48,1.41,3.6,2.74,4.8,4.41.47.65.42,1.75.92,2.37.93,1.16,2.93,2.08,4.2,3.53,1.54,1.75,2.46,3.98,3.92,5.32,1.15,1.05,2.61,1.51,3.6,2.64,1.85,2.13,2.43,4.99,5.42,6.79,1.63.98,3.65,1.94,5.69,3.21,3.34,2.09,8.91,5.4,14.03,4.32,1.96-.42,8.04-3.14,9.77-4.57,1.48-1.22,1.9-2.92,3.22-4.79-6.94-1.72-14.38-.46-20.56-3.36-2.13-1-3.55-3.87-5.71-5.89-1.3-1.22-2.84-1.62-3.9-2.64-.61-.58-.88-1.73-1.51-2.36-2.49-2.48-6.21-4.6-6.91-6.47-.44-1.14-.05-2.8-.33-3.86-1.1-4.04-5.22-6.37-5.47-10.95-.42-1.07-1.59-1.39-2.11-2.36.46-7.78-4.78-11.81-8.2-16.57-1.2-7.63-8.58-10.58-12.36-15.93-.7-.99-.78-2.33-1.52-3.26-1.12-1.41-2.99-2.2-4.5-3.23-.48-2.07-2.09-2.99-2.73-5.03-.55-1.74.02-3.76-.66-5.64-.79-2.19-3.26-2.2-3.91-4.42-.85-2.9.6-6.09-1.87-8.31-.6.19-.07,1.51-1.18,1.2-3.14-4.77-5.08-10.94-5.54-18.09-.12-1.78.55-3.73.53-5.66-.02-1.77-.67-3.38-.64-5.05.15-8.3,1.74-16.23-4.08-21.08-4.81-1.2-6.73-6.28-11.96-6.12.12.65,1.4,4.12-.25,5.06,4.86-1.54,4.36,7.17-.84,5.07-.62-.96-.68-2.02-.33-3.27-3.79,1.08-5.47-.04-7.1-1.36-1.72-2.97.82-5.17,4.06-5.16-4.27-.94-7.75,1.43-10.68,2.79,2.87.25,5.4,4,3.34,5.91-3.79,3.34-8.06-3.62-3.63-5.61-2.86,1.51-4.64,4.09-7.38,5.73.49,1,2.49.47,2.7,1.75.35,1.92-.27,2.81-1.66,2.89-2.02-.04-3.21-.32-3.39-2.24-4.37,3.17-8.98,6.85-12.82,10.55-.1,1.05,3.2-.47,4.35-1.24,6.93-2.63,14.29-5.07,20.67-8.24.52,1.94,4.3-.87,4.48,1.44,0,2.07-1.08,3.07-2.94,3.3-1.22-.05-1.14-1.43-1.22-2.66-4.68.72-5.36,4.12-8.56,6.63.42.42,2.36-1.01,2.98.27,1.04,4.06-4.76,4.44-3.56.93-2.34,1.64-4.08,3.86-5.89,6.01,4.38-.87,9.14-2.84,12.73-5.79,1.8-1.47,3.93-4.03,8-3.35,2.78.46,5.5,4,5.73,7.67.32,5.21.96,12.15.47,16.35-3.84-4.55.86-20.68-6.18-22.24-1.53-.34-2.73.38-4.45.64-4.33,5.09-11.93,8.54-19.84,9.13-.79-.4-1.21-1.17-1.8-1.77-.52-1.81,1.76-2.03.86-3.28-.97-.66-.92,1.71-2.07,1.8-1.3.02-1.64-.93-2.69-1.16.21,1.87-.49,2.85-1.45,3.58-3.32.19-3.84-2.49-5.69-3.8,3.66-4.89,8.66-8.39,13.26-12.63,2.04-1.88,4.19-3.84,6.49-5.72,3.96-3.24,7.15-6.95,13-8.47-1.07-1.94,1.71-3.46,2.03-5.67.42-2.91-.41-2.91-.53-5.85-.01-1.47,3.02-3.24,4.03-1.03.22.7.9,2.83-.57,2.68,1.01.77,1.59,1.99,2.71,2.65.31-2.96-.41-5.17.96-6.69,1.76-1.95,4.09-.74,4.63.69-.08-.21.34.7-1.48,1.71.62,1.47,2.44,2.71,2.15,5.12,5.13-1.4,1.31-5.29,3.47-8.27.84-1.01,3.37-.5,3.46.72.08.96-.76,1.81-1.5,1.89-.09.4,1.15,2.87,1.47,3.39.21-1.9.88-3.48,2.13-3.35.82.11,1.68.23,2.22,1.48.1,1.81-.46,2.25-1.21,2.45.79,5.13-.21,9.02-2.49,12.02,1.96.99,3.98,2.29,5.1,3.81,4.05,5.53,2.29,12.91,2.59,20.8.33,8.52.41,16.72,2.92,23.47,1.03.23,1.14-.45,2.08-.32,2.2,3.25,5.29,6.21,4.58,11.55.86,1.62,2.74,2.21,3.61,3.83-.75,5.38,1.87,7.3,3.09,10.67,4.98,2.85,7.76,8.62,11.74,12.97,2.1,2.29,4.71,4.02,6.33,7.37.42.89.41,2.06.92,2.97,3.23,5.69,8.02,7.83,7.89,15.38,1.74,1.69,1.82,4,3.04,6.81,1.06,2.42,3.21,4.46,3.94,6.8.38,1.22.1,2.64.64,3.86.97,2.22,3.53,3.47,5.41,5.29,1.23,1.19,2.18,3.23,3.92,4.72,1.24,1.06,3.17,1.92,4.49,3.23,3.05,3,2.98,2.99,7.78,4.38,4.54,1.31,11.28,1.46,17.27,1.61-.77,8.47-8.76,9.87-14.43,13.53-6.55.77-10.58-1.33-14.92-4.3-3.31-2.26-7.37-3.62-9.89-6.44-1.32-1.49-1.84-3.43-3.02-4.73-.97-1.06-2.65-1.6-3.59-2.64-.59-.64-.7-1.73-1.22-2.36-1.98-2.42-5.08-3.6-6.91-6.18-.6-.84-.62-1.85-1.22-2.67-1.59-2.17-4.03-3.65-6-5.29-1.53,3.24-.24,7.56-1.97,10.73.45,4.97,1.57,10.99,1.96,16.94.3,4.46-1.07,11.07-.44,15.77.66,4.81,2.67,14.26-2.51,16.08-5.35-1.6-6.87,3.2-12.15,3.99-1.39.21-2.95-.48-4.47-.25-2.01.31-3.35,1.96-5.03,2.43-1.54.44-3.75.06-5.05.65-3.81,1.73-5.6,6.71-9.15,6.94-3.76.24-9.61-4.45-6.34-8.86,2.56.86,7.31,4.53,8.93.21-2.99-.66-5.06-6.05-3.36-8.59,3.25-.38,3.12,3.13,5.69,3.21,1.3.04,2.33-1.66,3.55-2.42,3.1-1.94,8.46-3.17,11.85-4.59-1.48-18.85.54-36.31-.57-55.62-6.3-2.12-15.03,3.47-22.28,3.2-3.79,2.94-2.72,9.12-3.13,14.31-.18,2.34-1.83,4.59-2.01,6.86-.09,1.11.34,2.25.33,3.27,0,3.17-1.79,5.37-2.29,8.35-.22,1.27.15,2.59.04,3.87-.14,1.5-.98,2.78-1.15,4.17-.16,1.24.16,2.62.04,3.87-.25,2.53-.73,5.59-1.41,7.74-.48,1.53-1.49,4.2-2.33,5.38-2.4,3.37-8.19,2.89-10.94,6.35-6.23-.1-15.16.9-18.48-3.08-5.45,3.22-11.15-2.8-9.31-8.53,1.61-.25,1.58,1.19,2.1,2.06,1.92.24,2.91,1.43,4.78,1.73.27-.62-.08-1.48.27-2.38-3.12-1.21-4.86-6.97-3.67-9.78,2.65,1.3,4.59,3.34,6.3,5.59,2.73-2.05,6.28-1.54,11.29-1.31,3.07.15,8.27,4.3,9.51-.99.31-1.33-.66-4.23-.66-6.24,0-2.48.2-5.95.5-9.23.41-4.57,3-7.02.78-10.71.97-1.99.6-4.59.81-7.75.3-4.38,2.26-8.95,2.53-13.71.22-3.7-.37-7.38-.11-11,.41-5.65,2.68-12.61,3.08-18.77-3.03-2.02-7.19-2.89-7.81-7.36-4.83-6.09-11.73-10.07-16.82-15.88-1.22.24-1.53-.44-2.68-.27-.16-.94-.89-1.3-.92-2.37-2.37-.75-4.99-3.67-6.61-6.17,3-1.77,5.88,1.27,7.46,2.9.86-.78,2.99-1.05,2.36-2.41-2.41-.3-3.66-3.97-6.29-4.99,1.54-2.24,6.26-.89,7.44.82,1.28-.22,1.76-1.22,3.56-.93-.59-3.81-3.42-5.32-5.43-7.67,4.58-1.84,6.69,3.15,10.75,3.75,3.21-3.51-1.69-5.6-3.06-8,3.45-1.38,8.23.18,8.67,3.78,4.98,4.19,5.8,11.29,9.69,16.26,3.04,3.88,7.11,6.45,9.92,10.31,1.94-7.01,1.32-14.37.67-21.42-.5-5.46-3.63-10.02-2.86-17.82.09-.9-.17-2.56,1.16-2.99Zm-3.13-48.09c.18-.17-.68.85-.61,2.62,1.57-.07,1.51-.21,2.97-.03,2.36-2.4-1.12-6.73-2.15-8.12.17,1.45-.04,5.39-.21,5.53Zm-5.83,3.92c.96-.48,2.58-1.22,3.08-1.07-.79-1.1-1.41-4.89-2.96-6.04,1.39,3.58-.71,6.71-.12,7.11Zm14.84.16c-2.97-1.66,3.34-2.4-.16-8.23.24,4.56-2.69,6.33-4.79,7.16.9.49,3.7,1.93,4.96,1.07Zm.52,1.35c.7,0,1.35,2.77,1.93,3.26.31.5.29-2.85,1.36-3.14.53-.76.89-7.83.06-8.2-.26,1.21-1.58,7.44-3.36,8.08Zm-9.46,4.97c-.3,1.16-1.33,1.46-1.57,1.52-1.42.25-3.19-2.13-1.31-3.27-1.01-.03-2.58.6-2.65,2.01,1.36,4.07,6.75,2.4,7.22-.43-.59-.88-1.75-1.68-2.76-1.59.72.27,1.05.57,1.06,1.77Zm-25.02,17.61c.29.81,1.45.78,2.3,1.02.77-.9,2.91-1.75,2.05-3.29-1.19.7-3.68,1.06-4.35,2.28Zm-2.85,4.28c.53-1.26,1.95-1.8,1.35-3.84-1.17.45-2.2.6-3.19,1.62.43,1.12.47,1.76,1.84,2.22Zm2.01.4c.87-.13,1.9-1.72,2.41-2.19-.18-.02-.31-.19-.75-.28-.2,0-.72-.25-.92-.25.15.94-.58,2.09-.74,2.71Zm-6.41.45c.25-1.2.56-2.25.79-2.52-3.44.54-3.96,1.98-.79,2.52Zm-7.38.54c.34,1.06,1.65,1.41,2.71,1.73.49-.5.59-1.96.64-2.89-1.07.23-2.41,1.1-3.35,1.16Zm10.75,2.54c.07-.42,1.79-1.58,1.89-1.98-.41.02-1.73-.25-1.97-.4.06.44-.32,2.29.08,2.38Zm11.04,28.3c1.22-2.25-1.48-4.09-3.28-3.62,1.26.43,1.45,3.46,3.28,3.62Zm-8.12,5.22c.51-2.04-5.2-6.39,2.41-1.42l-2.41,1.42Zm-5.19,5.47c.46-1.48-.37-3.15-3.41-3,.61.59,2.59,2.63,3.41,3Zm-6.92,2.71c1.81-.27,4.71,2.33,3.36,3.16l-3.36-3.16Zm2.75,112.15c.18-1.36-1.88-2.84-3.01-3.84.11,2.05,1.17,4.55,3.01,3.84Zm-.5,8.63c.9-.66.37-1.76-.32-2.37-1.14,1.48-4.53-1.49-6.03-1.57.81,2.18,2.37,4.61,6.35,3.95Zm48.22,2.48c-.09-.87.66-.92.58-1.79-1.08-.39-1.49-1.49-2.69-1.76.4,1.49.53,3.26,2.12,3.55Zm-2.61,6.27c-2.08.34-3.64-1.09-5.68-2.02,1.43,6.88,9.49,4.32,11-.71-2.52-.63-3.31,2.41-5.32,2.73Z"></path><path class="cls-1" d="m462.61,118.46c.78,1.17,1.08,3.65,1.04,4.68-.52,1.4-1.65,2.2-2.95,2.11-3.7-.26-2.64-8.1,1.91-6.79Z"></path><path class="cls-1" d="m457.21,132.72c-3.6,3.62-8.01-5.04-4.24-6.8,2.47-1.15,5.28,3.58,4.24,6.8Z"></path><path class="cls-1" d="m464.38,136.22c-5.29,1.65-7.12-8.84-.67-7.43,1.48.14,2.52,5.44.67,7.43Z"></path><path class="cls-1" d="m458.74,137.77c3.73-.04,2.93,9.44-1.1,8.93-3.57-1.49-4.15-8.73,1.1-8.93Z"></path><path class="cls-1" d="m463.97,153.77c-1.57-1.5-2.85-5.83-1.27-8.02,2.15-2.99,5.76,1.05,5.49,4.39-.21,2.54-.31,5.45-4.22,3.63Z"></path><path class="cls-1" d="m472.99,162.9c1.6,1.48,1.39,5.42-.52,6.55-4.11,1.28-5.15-9.59.52-6.55Z"></path><path class="cls-1" d="m464.38,165.07c1.25,1.99,1.65,7.03-.8,8.34-4.09.11-4.03-3.27-3.64-7.1.7-2.01,3.36-2.21,4.45-1.24Z"></path><path class="cls-1" d="m438.59,173.96c1.51,3.23-7.13,2.85-6.54.36.15-5.42,6.07-3.25,6.54-.36Z"></path><path class="cls-1" d="m471.95,178.08c1.45-.42,3.49,6.21.07,7.14-3.92,1.49-6.55-7.73-.07-7.14Z"></path><path class="cls-1" d="m425.61,184.51c-2.06-1.04-2.95-3.66-.35-5.05,5.15-2.66,5.01,5.29.35,5.05Z"></path><path class="cls-1" d="m464.32,187.38c-2.88,1.08-5.25-1.79-5.69-3.81-1.14-5.15,6.15-6.44,7.12-1.56.35,1.75.12,4.14-1.43,5.37Z"></path><path class="cls-1" d="m442.31,187.9c-1,.81-3.1.58-4.18-.85-2.85-7.83,9.99-4.75,4.18.85Z"></path><path class="cls-1" d="m480.04,183.35c1.84.54,4.22,7.87-1.11,7.74-3.72-.85-4.29-8.25,1.11-7.74Z"></path><path class="cls-1" d="m433.64,184.42c1.49.35,1.51,1.33,1.52,2.66-.12.86.31,1.64-.87,2.09-4.26,1.57-5.76-5.11-.65-4.75Z"></path><path class="cls-1" d="m466.31,191.23c3.06,1.59,1.41,8.92-.07,8.92-.56.05-1.19.02-1.94-.09-5.45-.53-2.24-7.2.95-9.12.48-.09.68.28,1.06.29Z"></path><path class="cls-1" d="m447.45,196.77c-.62.57-.79,1.79-1.76,1.8-3.64.36-5.52-1.39-5.4-3.81.27-5.04,7.15-3.08,7.16,2.01Z"></path><path class="cls-1" d="m492.39,198.39c-2.74-.2-4.35-1.57-5.39-3.52-.88-1.86,1.51-4.22,3.83-3.31,1.61.48,3.95,4.93,1.56,6.83Z"></path><path class="cls-1" d="m483.84,194.31c2.1,1.66,2.17,8.9-2.59,8.36-3.39-1.39-3.77-11.08,2.59-8.36Z"></path><path class="cls-1" d="m452.58,203.56c-2.24,1.36-5.37-1.33-5.1-3.81.38-3.36,6.34-3.32,6.85.22.17,1.17-.5,2.34-1.75,3.59Z"></path><path class="cls-1" d="m474.89,203.03c.01,1.43-.07,3-1.75,3.59-2.79.15-4.53-.79-5.38-2.63-.77-2.24.91-5.61,3.51-5.68,1.94-.06,2.66,2.72,3.62,4.72Z"></path><path class="cls-1" d="m457.94,204.14c1.94,1.06.86,5.59-.84,5.66-5.36,1.54-4.54-8.86.84-5.66Z"></path><path class="cls-1" d="m497.79,202.79c2.82.5,3.63,7.19.68,7.73-5.22.91-6.97-8.37-.68-7.73Z"></path><path class="cls-1" d="m475.85,209.56c1.62,1.43,2.91,5.68.96,6.53-1.44.99-1.41,1.36-2.84,1.25-2.15-1.25-1.94-3.28-1.96-4.77.63-1.64,1.41-3.13,3.83-3.01Z"></path><path class="cls-1" d="m481.35,216.63c-1.26-2.2,1.12-4.44,2.93-4.5,2.52-.07,4.58,6.06,1.86,6.82-2.4.05-3.77-.96-4.78-2.33Z"></path><path class="cls-1" d="m465.51,216.81c-.05,1.71-.72,2.75-2.35,3-4.91.14-4.1-7.82-.98-8.02,2.22-.14,2.72,2.73,3.33,5.02Z"></path><path class="cls-1" d="m502.95,211.96c1.41-.28,4.02,2.28,2.44,5.33-4.87,3.25-8.02-4.97-2.44-5.33Z"></path><path class="cls-1" d="m453.3,214.85c1.22.75,1.71,3.95.05,5.06-5.91,4.37-6.62-9.62-.05-5.06Z"></path><path class="cls-1" d="m494.07,216.22c3.78,1.65-.28,8.26-4.39,6.59-4.25-3.01.29-8.32,4.39-6.59Z"></path><path class="cls-1" d="m470.31,220.93c2.61,1.47,1.92,6.9-1.11,7.15-4.4.36-5.36-9.23,1.11-7.15Z"></path><path class="cls-1" d="m482.59,228.24c-1.12,1.63-3.84,1.54-4.75.94-3.13-1.74-.94-6.49,1.72-6.26,2.02.16,3.1,2.93,3.03,5.32Z"></path><path class="cls-1" d="m505.82,230.97c-.13-.36-.39-.61-.9-.59-1.03-2.19-.77-5.15.83-5.96,4.65-2.33,7.21,7.67.07,6.54Z"></path><path class="cls-1" d="m456.39,226.42c2.35,2.45,2.12,7.39-1.11,7.74-5.17.58-5.5-8.56,1.11-7.74Z"></path><path class="cls-1" d="m491.04,239.75c-1.09,1.04-2.19,1.14-3.86.64-1.55-.79-2.46-2.48-2.42-4.14.13-5.45,8.46-2.1,6.28,3.51Z"></path><path class="cls-1" d="m449.7,241.37c1.48,2.35,1.17,6.77-1.72,6.56-3.15-.23-3.6-8.46,1.72-6.56Z"></path><path class="cls-1" d="m514.85,240.69c4.55-1.78,6.28,5.72,2.75,6.52-2.72.61-5.64-4.24-2.75-6.52Z"></path><path class="cls-1" d="m492.87,244.78c.39,1.39-.19,2.34.34,3.87.01,1.55-.93,3.73-3.54,2.71-3.11-1.99-1.29-9.58,3.2-6.58Z"></path><path class="cls-1" d="m449.54,254.45c1.16,2.19-5.8,4.31-6.23,2.14-.95-4.86,5.01-4.84,6.23-2.14Z"></path><path class="cls-1" d="m493.29,256.08c.59,1.65-.48,4.17-2.33,4.49-1.48.25-3.03-.65-3.59-1.45-1.67-4.14,4.64-5.34,5.92-3.04Z"></path><path class="cls-1" d="m527.26,261.98c-5.06-3.67,4.54-9.44,4.43-3.01-.03,1.54-.89,3.24-4.43,3.01Z"></path><path class="cls-1" d="m445.45,261.63c1.67.54-.61,6.86-2.91,5.68-3.13-1.52-1.13-7.8,2.91-5.68Z"></path><path class="cls-1" d="m542.47,265.1c-2.76-4.94,5.69-5.69,5.93-2.14.16,2.41-3.77,3.22-5.93,2.14Z"></path><path class="cls-1" d="m491.31,266.21c1.19,2.41-1.42,6.56-4.4,6.29-1.62.02-3.08-3.58-3.34-5.62-.66-5.23,4.96-5.22,6.54-2.24.1.51.91.69,1.19,1.56Z"></path><path class="cls-1" d="m446.18,274.71c.81,1.1-.47,3.67-1.75,3.88-3.43.77-3.85-4.72-1.85-5.93,1.66-.96,2.78.97,3.59,2.05Z"></path><path class="cls-1" d="m493.52,278.98c-1.08.88-4.29-.03-4.48-2.04.03-6.81,7.81-2.3,4.48,2.04Z"></path><path class="cls-1" d="m444.18,283.06c1.28,1.99-1.54,5.16-2.93,4.79-1.61-.75-1.63-3.46-.95-4.2,1.19-.95,2.65-2.12,3.87-.59Z"></path><path class="cls-1" d="m492.4,285.24c1.35.3,1.48,3.52-.2,4.59-1.46.33-3.12,0-3.63-1.28-.57-1.58.99-3.74,3.83-3.31Z"></path><path class="cls-1" d="m436.01,290.27c2.43,1.59,1.07,4.2.57,5.37-.08.81-3.02.73-3.57-.26-1.09-2.79-.69-5.44,3.01-5.1Z"></path><path class="cls-1" d="m424.34,291.89c1.62,1.26,1.77,3.51.35,5.05-4.71,1-5.73-6-.35-5.05Z"></path><path class="cls-1" d="m486.09,291.7c.7,1.24.7,1.77.8,3.73.09.86-1.43,1.45-2.66,1.81-3.57-1.06-3.28-7.73,1.86-5.54Z"></path><path class="cls-2" d="m111.55,200.98c-5.2,0-9.07-4.05-9.07-9.2s3.8-9.25,9.2-9.25c3.28,0,5.27,1.15,6.98,2.78l-2.01,2.32c-1.43-1.33-2.95-2.22-4.99-2.22-3.41,0-5.88,2.8-5.88,6.32s2.47,6.37,5.88,6.37c2.19,0,3.59-.89,5.12-2.32l2.01,2.04c-1.86,1.94-3.9,3.16-7.23,3.16Z"></path><path class="cls-2" d="m132.09,193.16v7.51h-3.13v-17.83h3.13v7.41h8.51v-7.41h3.13v17.83h-3.13v-7.51h-8.51Z"></path><path class="cls-2" d="m172.28,200.68h-3.31l-1.81-4.31h-8.43l-1.83,4.31h-3.21l7.84-17.96h2.91l7.85,17.96Zm-9.35-14.22l-3.06,7.13h6.14l-3.08-7.13Z"></path><path class="cls-2" d="m193.66,200.68l-4.38-6.22h-3.92v6.22h-3.13v-17.83h7.95c4.1,0,6.63,2.17,6.63,5.65,0,2.96-1.76,4.74-4.25,5.43l4.81,6.75h-3.69Zm-3.75-14.98h-4.56v5.99h4.59c2.24,0,3.67-1.17,3.67-3.01,0-1.96-1.38-2.98-3.7-2.98Z"></path><path class="cls-2" d="m207.54,182.84h3.13v14.98h9.37v2.85h-12.51v-17.83Z"></path><path class="cls-2" d="m243.41,185.65h-10.09v4.64h8.94v2.8h-8.94v4.79h10.22v2.8h-13.35v-17.83h13.22v2.8Z"></path><path class="cls-2" d="m261.02,190.33c3.77.92,5.73,2.27,5.73,5.25,0,3.36-2.62,5.35-6.37,5.35-2.73,0-5.3-.94-7.44-2.85l1.89-2.24c1.71,1.48,3.41,2.32,5.63,2.32,1.94,0,3.16-.89,3.16-2.27,0-1.3-.71-1.99-4.03-2.75-3.79-.92-5.93-2.04-5.93-5.35,0-3.11,2.55-5.2,6.09-5.2,2.6,0,4.66.79,6.47,2.24l-1.68,2.37c-1.6-1.2-3.21-1.83-4.84-1.83-1.83,0-2.91.94-2.91,2.14,0,1.4.82,2.01,4.23,2.83Z"></path><path class="cls-2" d="m303.31,200.68l-4.38-6.22h-3.92v6.22h-3.13v-17.83h7.95c4.1,0,6.63,2.17,6.63,5.65,0,2.96-1.76,4.74-4.25,5.43l4.81,6.75h-3.69Zm-3.75-14.98h-4.56v5.99h4.59c2.24,0,3.67-1.17,3.67-3.01,0-1.96-1.38-2.98-3.7-2.98Z"></path><path class="cls-2" d="m320.48,182.84v17.83h-3.13v-17.83h3.13Z"></path><path class="cls-2" d="m344.8,182.84h3.39l-7.41,17.96h-2.75l-7.41-17.96h3.46l5.38,13.71,5.35-13.71Z"></path><path class="cls-2" d="m371.35,185.65h-10.09v4.64h8.94v2.8h-8.94v4.79h10.22v2.8h-13.35v-17.83h13.22v2.8Z"></path><path class="cls-2" d="m393.52,200.68l-4.38-6.22h-3.92v6.22h-3.13v-17.83h7.95c4.1,0,6.62,2.17,6.62,5.65,0,2.96-1.76,4.74-4.25,5.43l4.81,6.75h-3.69Zm-3.74-14.98h-4.56v5.99h4.59c2.24,0,3.67-1.17,3.67-3.01,0-1.96-1.38-2.98-3.69-2.98Z"></path><path class="cls-2" d="m92.47,275.18c-1.5,0-3.03-.24-4.39-.45l-.63-.1-.61-.27c-1.02-.41-4.53-1.2-5.78-1.71-2.42-.52-4.8-1.92-6.95-2.88-1.03-.46-2.06-.92-3.11-1.32l-.17-.07-.09-.15c-.83-1.35-2.15-1.94-3.54-2.57-1.75-.79-3.57-1.6-4.54-3.94-3.62-3.73-2.26-29.65-1.67-33.04.59-3.39,4.79-7.41,9.94-11.34.97-.74,10.98-2.68,13.67-2.62,8.49.18,12.39,4.29,13.78,5.72.28.29.55.56.8.81l.21.2-.06.29c-.08.38-.03.85.02,1.35.11,1.08.26,2.55-1.28,3.26-.54.15-.98.21-1.39.21-2.31,0-3.55-1.8-4.75-3.55-1.18-1.71-1.93-2.98-3.9-3.61-.92-.29-3.3-1.12-4.72-1.12-.52,0-1.05.05-1.58.09-.9.08-4.86,1.17-6.08,1.42-.57.12-1.11.23-1.61.4-3.04,2.12-8.08,5.48-8.98,10.39-.94,6.04-.69,29.36,4.04,32.24,0,0,5.37,3.46,8.45,5.01,2.24,1.12,4.51,1.58,6.47,3.09,0,0,2.84,1.43,3.52,1.63.81.24,1.85.49,2.51.49.8,0,3.37-.81,4.05-1.92.23-.39.37-1.57.64-1.91.09-.63.05-1.33,0-2.02-.12-1.82-.25-3.89,2.23-4.86.38-.09.67-.12.94-.12,1.16,0,2.15.55,2.94,1.64l.11.15v.18c-.06,2.08-.77,3.89-1.46,5.63-.33.84-.68,1.71-.94,2.59l-.08.16c-1.27,1.75-3.24,2.59-6.03,2.59Z"></path><path class="cls-2" d="m107.33,273.2s-2.4.23-2.46-1.42c-.1-2.56.73-7.15,1.26-10.73-.22-6.09.24-11.23,1.42-16.62l.04-.2.17-.12c.46-.33,1.48-.65,2.56-.65,1.3,0,2.27.48,2.74,1.35l.05.15c.03.17.04.33.03.5.11-.17.23-.35.35-.51,1.54-3.31,3.57-6.61,7.87-8.32l.17-.04c.58-.03,1.19-.07,1.8-.07,1.77,0,4.63-.14,5.32,2.36.69,2.5-2.96,3.39-4.57,3.39-.81,0-1.67-.08-2.49-.17-1.32-.13-2.72-.24-3.65-.06-.37.43-.87.78-1.4,1.15-.81.57-1.66,1.15-1.96,2.03l-.16.25c-.28.6-.55,1.22-.82,1.86l-.2.47-.27-.1c-1.03,2.38-1.32,5.15-1.6,7.82-.38,3.61-.51,7.66-2.69,10.66-.08.88-.29,1.38-.24,2.17.11,1.68.22,3.27-1.13,4.67l-.16.17Z"></path><path class="cls-2" d="m135.82,276.07c-.72,0-1.51-.2-2.27-.39-.69-.18-2.97-.99-3.29-1.25-1.26-1.02-2.57-2.07-3.32-3.45-2.52-3.17-5.45-8.09-4.98-13.24-.77-1.12-1.17-2.72-.31-3.76l.14-.17.22-.02c2.52-.22,3.53-1.97,4.71-3.99.95-1.63,1.92-3.31,3.79-4.19,1.17-.68,2.37-1.02,3.64-1.02,2.43,0,4.62,1.26,6.74,2.48,1.22.7,2.37,1.37,3.54,1.79.9.23,1.97.85,2.42,1.39.48.56,1.64,1.51,1.64,1.51.25,2.78-1.66,5.4-3.65,6.32-2.74.82-5.24,1.18-7.95,1.18-3.2,0-6.37-.52-10.03-1.11l-.29-.05c-.37.53.29,4.67.22,6.08-.06,1.42-.12,2.77.64,3.7.81.59,2.9,4.3,5.22,4.95,1.65.47,2.97.31,3.75.31,1.89,0,5.28-1.18,5.57-1.18,1.74,0,2.82-1.38,3.34-1.8.52-.41,1,.44,1,.44h0s-.16.21-.16.21c-2.41,3.12-3.69,3.68-6.7,4.37-1.11.24-2.86.9-3.64.9Zm-1.44-20.37c1.74,0,3.58.26,5.36.51,1.07.15,2.14.3,3.19.39.82-.26,1.22-.96,1.68-1.76.18-.31.36-.63.58-.94.6-1.54-2.94-2.41-4.67-3.47-1.47-.9-2.25-1.94-4.69-2.53-1.45-.34-1.64-.2-2.43,1.06-.5.79-1.06,1.67-2.06,2.14l-.19.05c-.99.06-1.56.88-2.18,1.76-.33.48-.68.96-1.1,1.34.33.13.65.27.97.41,1.29.56,2.5,1.1,3.92,1.14.46-.06,1.01-.09,1.62-.09Z"></path><path class="cls-2" d="m163.34,277.21c-.92,0-2.38-.17-3.25-.5,0,0-2.89-.54-3.82-.64-2.68-.3-5.81-1.57-5.63-5.84-.91-5.17,2.61-10.88,7.22-15.1,0,0,.96-1.84,1.89-2.88,2.01-2.25,3.91-4.38,7.23-4.81.84-.1,1.76-.28,2.74-.47,1.81-.35,3.85-.75,5.83-.75,2.95,0,5.17.89,6.79,2.72,0,0,1.63-.15,4.16,1.3,2.53,1.45-.27,5.21-.27,5.21h-1.01c-.04.49-.08.96-.12,1.44-.44,4.87-.85,9.47,2.55,13.17.28,0,.56-.01.84-.01,1.58,0,3.34.25,4.42,2.12l.07.21c.25,1.5-.28,2.77-1.57,3.79l-.14.11-.17.02c-4.99.64-7.67-4.06-9.58-7.41l-.18-.4c-.06-.41-.03-.84,0-1.24.02-.36.04-.66.01-.89-2.55,2.59-5.84,5.82-9.09,7.15-.82.34-1.67.81-2.57,1.3-2.05,1.12-3.83,2.4-6.36,2.4Zm1.89-4.16c.92-.76,2.33-1.79,3.82-1.79.34,0,4.14-1.87,5.89-3.02,1.55-1.02,3.36-2.36,4.5-3.76l-.23-.82c1.08-2.1,1.2-4.31.37-6.53-.66-1.78-1.5-3.61-1.28-5.7-.36-2.97-10.58-.72-12.89.28-2.31,1-12.65,8.85-11.15,17.48.29.1.18.53.34.75.35.48.69.9.61,1.36-.12.72.64.69,1,.81.39.13.5.31.9.45,1.4.51,1.99,1.23,3.24,1.23h0c.24,0,.47-.02.7-.06,0,0,2.87.39,4.15-.67Z"></path><path class="cls-2" d="m214.94,280.75l-3.7.02c-1.53-.9-1.91-2.2-3.35-2.59-1.06-.28-2.25-.61-3.03-1.73-5.1-2.58-5.74-8.45-6.35-14.13-.38-3.52-.77-7.17-2.22-10.01l-.06-.25.17-4.27c-1.24-.23-2.66-.54-3.92-.8-.88-.19-3.72.18-4.57.18-1.39,0-3.97-1.01-3.97-1.01,0,0-1.16-2.62,0-3.13,1.92-.83,2.33-.86,4.42-.42,1.32.28,2.62-.37,4.15-.37.39,0,3.28.06,3.68.15.28-2.32-1.14-6.26-1.49-8.81-.39-2.88-.99-5.57-.57-8.7l.03-.23c.84-1.04,1.86-1.1,3.29-1.1,2.2,0,2.13,1.64,2.85,3.44l-.41.8c-1.41,3.68.16,6.13.2,10.35,0,.64.1,2.91.1,3.55,1.08.25,3.32-1.34,4.78-1.98,1.35-.59,2.95.1,4.25.1,1.72,0,2.72-.63,3.53,1.51.39,3.23-2.22,2.75-4.16,3.97-.29.19-7.58,1.81-7.58,1.81-.18,3.85.78,6.59.71,10.03-.15,7.18.19,14.58,7.14,16.98,2.66.5,3.11,2.29,5.8,2.1,1.46-.1,3.5-1.85,4.21-1.85.77,0,3,2.04,3,2.04.91,2.16-5.03,4.63-6.96,4.33Z"></path><path class="cls-2" d="m371.33,278.44c-1.02-.41-3.24-1.69-3.87-2.89-4.77-3.16-2.35-8.07-2.29-13.78.03-3.55-.09-6.05,0-8.67l.17-2.72-.37-4.1c-1.2-.37-2.45.21-4.67.35-.9.06-3.28-.32-4.12-.42-1.38-.16-2.61,0-2.61,0,0,0-.42-3.58.81-3.94,2-.6,2.61-.48,4.63.21,1.28.44,2.08-.59,3.6-.41.39.04,2.21-.48,2.59-.34.55-2.26-.41-6.34-.45-8.92-.05-2.91-.71-7.74.08-10.81l.69-1.59c.95-.94,1.98.59,3.39.76,2.18.26,1.15,2,1.66,3.87l.83,1.66c-1.83,3.5-1.38,7.06-1.82,11.26-.07.64-.24,2.9-.31,3.54,1.04.37,3.27.52,4.8.04,1.41-.43,2.43-1.03,3.72-.88,1.71.2,2.32,1.09,2.87,3.31.01,3.25-1.4,1.08-3.47,2.07-.31.15-7.74.91-7.74.91-.62,3.81.01,6.63-.46,10.05-.98,7.11.79,11.79,1.43,14.91.41,2.01,4.14,1.48,6.24,4.94.65,2.25-3.94,2.14-5.32,1.59Z"></path><path class="cls-2" d="m223.14,271.99c-.51,0-.96-.27-1.34-.8l-.1-.15v-.17c.3-9.2-.3-20.23-1.55-28.78l-.05-.37.32-.18c1.45-.8,3.82-.8,5.27,0l.22.12.04.25c.8,7.4-.53,17.66-1.02,24.68.11.32.27.62.44.94.43.81.49,1.8.14,3.11,0,0-.59.54-.89.73-.44.28-.93.6-1.49.6Z"></path><path class="cls-2" d="m242.04,271.06h-.11c-2.76-.19-2.74-2.75-2.72-4.81,0-.94.02-1.83-.19-2.46-1.14-6.64-3.27-12.73-6.34-18.16-.81-2.48,1.02-4.17,2-5.08l.11-.1.18-.06c1.63-.33,2.94.25,4.02,1.69l.14.19-.04.23c-.59,3.06-1.06,5.44-.06,7.99.81,2.05,2.38,3.89,2.34,6.37.05.38.3,1.42.27,1.86-.04.44.34.58.4.92.35-.55.67-1.15.97-1.74.88-1.69,1.8-3.44,3.59-4.14,1.13-1.62,2.65-2.94,4.12-4.23,2.3-2,4-4.32,5.43-6.94l.4-.4.44-.42c.72-.28,1.48-.55,2.36-.41.82.32,1.3.92,1.45,1.67.16.8-.08,1.65-.64,2.21l-.11.12-.16.03c-1.82.36-2.67,1.75-3.58,3.21-.94,1.51-5.28,5.86-6.25,6.78-.96.93-2.34,3.31-2.34,3.31-.42,1.06-1.05,1.62-1.59,2.84-.41.92-.68,2.13-1.17,2.85-.21.62-.28,1.36-.35,2.14-.16,1.76-.34,3.76-2.45,4.53l-.1.04Z"></path><path class="cls-2" d="m275.08,274.94c-.7.17-1.51.17-2.3.17-.71,0-3.12-.23-3.5-.4-1.47-.68-3-1.38-4.07-2.53-3.22-2.45-7.27-6.5-8.08-11.61-1.02-.9-1.8-2.35-1.22-3.56l.1-.2.21-.08c2.39-.83,2.94-2.78,3.58-5.03.52-1.81,1.33-3.04,2.93-4.36.96-.95,2.61-1.65,3.85-1.96,2.35-.59,5.25-.61,7.6.04,1.35.38,1.85,1.53,3.08,1.66.93,0,1.47,1.04,2.05,1.45.6.42,2.32,2.54,2.32,2.54.93,2.64-1.19,3.64-2.9,5.02-2.45,1.46-4.12,1.61-6.75,2.27-3.1.79-6.3,1.07-10,1.38l-.29.03c-.23.61-.09,1.37.04,2.1l.02.09c1.07.83,1.36,2.26,1.65,3.64.29,1.4,3.07,4.56,3.66,5.28.73.9,3.65,1.73,4.14,1.67,1.23-.16,2.5-.31,3.71-.62,1.83-.46,3.08-1.18,3.82-2.18,0,0,1-.79,1.28-.86,1.68-.42,2.15-1.51,2.81-2.03s1.08.18,1.08.18h0s-.1.24-.1.24c-1.57,3.62-3.28,5.03-8.73,7.65Zm-6.39-19.39c1.69-.43,3.53-.63,5.32-.83,1.08-.12,2.15-.24,3.19-.4.73-.46.95-1.23,1.19-2.12.1-.35-3.11-2.66-5.05-3.27-1.65-.51-2.39-.91-3.88-1.08-1.68.23-2.93,0-3.39,1.41-.29.88-2.94,3.92-3.33,4.91-.2.55-.42,1.1-.73,1.57.35.05.7.11,1.03.17,1.39.23,2.7.45,4.08.15.43-.17.96-.33,1.55-.48Z"></path><path class="cls-2" d="m332.36,268.92c-.82-.79-1.59-1.54-1.73-2.36l-.05-.25-.22-.13c-1.86-1.03-3.38-2.44-4.76-4.43-.52-.93-1.09-1.84-1.67-2.77-.44-.83-.86-1.67-1.27-2.51-.41-.83-.83-1.67-1.27-2.49l7.56-.58-.1-.58c-.07-.36-.03-.78,0-1.23.07-.9.16-2.03-.81-2.74,0,0-1.23-.04-1.7-.07-.25-.01-.51-.03-.75-.03-.76,0-1.81.14-2.39,1.26-.57.14-1.11.2-1.6.2-3.13,0-4.2-2.79-5.33-5.74-.68-1.77-1.32-3.43-2.43-4.51-.09-.17-.19-.34-.28-.51-.57-1.01-2.7-6.78-3.27-8.57-.57-1.78-4.31-11-3.93-12.21.41-1.29.97-3.05-1.77-4.05-1.11-.35-1.96.22-2.6.73-.27.22-.53.43-.81.55l-.37.16.05.4c1.59,11.62.14,23.78-3.88,32.67-.62-.26-1.32-.4-2.03-.4-2.05,0-3.71,1.08-4.24,2.74-.82,2.55.8,4.71,2.88,5.85-.6,1.51-1.52,2.98-2.41,4.41-2.08,3.35-4.54,9.09-2.85,11.07,1.69,1.99,4.23,1,4.23,1l.19-.17c2.98-2.65,4.04-7.34,5.07-11.88.17-.75.33-1.48.5-2.16,1.15-3.82,4.05-4.61,8.04-4.61,1.05,0,2.14.06,3.23.11,1.12.06,2.26.11,3.36.11,2.08,0,2.43-.06,5.61-.51.95,2.02,4.7,7.3,5.26,8.11,1.81,3.19,4.22,6.36,3.37,11.53,0,0,3.92,2.39,6.37.41,2.44-1.98.24-4.42-1.21-5.84Zm-30.45-19.14l.15-.63c1.47-6.32,2.14-13.68,1.84-20.19l1.01-.25c3.8,8.02,6.85,14.88,11.06,20.89l.54.81-14.6-.63Z"></path><path class="cls-2" d="m339.15,267.89l-2.24.12-.29-1.4c1.81-7.71.33-22.02,1.22-27.47l.03-.21.17-.12c.44-.34,1.44-.72,2.52-.78,1.29-.07,2.29.36,2.81,1.2l.06.15c.04.16.05.33.06.49.1-.18.21-.36.32-.53,1.37-3.39,3.22-6.79,7.42-8.72,0,0,1.35-.17,1.96-.2,1.77-.09,5.31,1.07,6.72,3.17,1.41,2.1-1.65,4.49-3.26,4.57-.81.04-4.08-2.03-4.91-2.07-1.33-.06-3.88,1.42-4.39,1.82-.78.62-1.4,1.03-1.66,1.92l-.75,1.19c-.24.61-2.1,3.74-2.34,4.38,0,0-.05,1.95-.19,4.63-.19,3.63-1.85,16.22-3.12,17.69l-.15.17Z"></path><path class="cls-2" d="m402.79,269.62c-5.91,0-10.99-1.72-15.17-3.4l-.19-.07-.11-.17c-.92-1.45-2.77-2.29-4.57-3.1-3.15-1.42-6.71-3.04-5-8.27l.09-.22c.42-.92.86-1.89,1.89-2.68l.28-.12c.92-.16,1.57.05,2.07.56.88.9.84,2.48.82,3.64,0,.17,0,.34,0,.48,4.97,5.75,10.55,11.02,17.66,11.02,1.41,0,2.87-.21,4.33-.62.53-.19,1.06-.25,1.54-.31,1.05-.13,1.54-.19,1.85-1.31-.04-1.49.25-2.81.53-4.09.41-1.83.76-3.42.04-5.09-1.07-2.24-3.09-2.7-5.8-2.7-.68,0-1.38.03-2.09.06-.73.03-1.46.06-2.18.06-2.02,0-4.3-.21-6.03-1.74-3.57-.56-6.19-2.59-7.21-5.59l-.03-.18c-.03-.8-.14-1.64-.25-2.54-.45-3.51-.96-7.5,3.18-9.7,1.61-.67,3.19-.98,4.89-.98s3.4.32,5.14.66c1.76.34,3.58.7,5.56.7h.44s.18.14.18.14c.18.14.44.24.72.35.51.2,1.23.48,1.53,1.21,3.01.09,5.1,2.72,6.77,4.84l.23.29.02.17c.25,1.68-.34,3.62-2.22,4.19-.28.04-.44.05-.59.05-2.12,0-2.82-1.46-3.37-2.64-.57-1.19-1.01-2.13-2.68-2.13h-.44l-.15-.41c-.92-2.45-2.92-2.68-5.23-2.94-1.67-.19-3.39-.39-4.78-1.46-.51-.13-1.01-.2-1.46-.2-2.29,0-3.64,1.64-5.06,3.38l-.28.34-.04.88c-.16,3.56-.27,6.13,2.81,8.23l.15.14c.34.46,1.35.51,2.06.51.48,0,1-.03,1.52-.05.55-.03,1.1-.06,1.62-.06,1.21,0,2.67.14,3.4,1.18,1.9.75,3.55.77,5.14.79,2.75.04,5.34.07,7.74,4.23l.09.15v.17c-.03.99,0,1.95.02,2.91.06,2.23.12,4.53-.41,7.07l-.06.28-.24.14c-.6.35-.89.83-1.24,1.39-.47.76-1,1.62-2.34,2.15-1.8.3-3.47.43-5.11.43Z"></path><path class="cls-2" d="m226.72,234.08l-.49.05c-.58.06-1.39.37-2.18.7-.48.2-.96.4-1.43.55-1.01.32-2.47.58-3.52-.81l-.06-.11c-1.08-2.77-1.17-4.86-.29-6.21.67-1.07,2.59-1.7,3.7-1.16,2.16,1.06,3.49,4.68,3.94,5.29.53.72.34,1.68.34,1.68Z"></path></svg> 