<?xml version="1.0" encoding="UTF-8"?> <svg xmlns="http://www.w3.org/2000/svg" id="Story_Worldwide" width="600" height="400" viewBox="0 0 600 400"><defs><style>.cls-1{fill:#fff;stroke-width:0px;}</style></defs><path class="cls-1" d="m126.57,312.63c-9.51,0-16.57-7.34-16.57-16.62v-.09c0-9.19,6.92-16.71,16.85-16.71,6.09,0,9.74,2.03,12.74,4.98l-4.52,5.22c-2.49-2.26-5.03-3.65-8.26-3.65-5.45,0-9.37,4.52-9.37,10.06v.09c0,5.54,3.83,10.15,9.37,10.15,3.69,0,5.95-1.48,8.49-3.79l4.52,4.57c-3.32,3.55-7.02,5.77-13.25,5.77Z"></path><path class="cls-1" d="m165.7,312.08v-12.97h-13.11v12.97h-7.11v-32.31h7.11v12.79h13.11v-12.79h7.11v32.31h-7.11Z"></path><path class="cls-1" d="m203.68,312.08l-2.95-7.25h-13.66l-2.95,7.25h-7.25l13.85-32.54h6.55l13.85,32.54h-7.43Zm-9.79-24l-4.29,10.48h8.59l-4.29-10.48Z"></path><path class="cls-1" d="m234.78,312.08l-6.93-10.34h-5.58v10.34h-7.11v-32.31h14.77c7.62,0,12.19,4.02,12.19,10.66v.09c0,5.22-2.82,8.49-6.92,10.02l7.89,11.54h-8.31Zm.14-21.28c0-3.05-2.12-4.62-5.59-4.62h-7.06v9.28h7.2c3.46,0,5.45-1.85,5.45-4.57v-.09Z"></path><path class="cls-1" d="m248.53,312.08v-32.31h7.11v25.85h16.11v6.46h-23.22Z"></path><path class="cls-1" d="m277.09,312.08v-32.31h24.37v6.32h-17.31v6.55h15.23v6.32h-15.23v6.78h17.54v6.32h-24.6Z"></path><path class="cls-1" d="m319.5,312.54c-4.89,0-9.83-1.71-13.71-5.17l4.2-5.03c2.91,2.4,5.96,3.92,9.65,3.92,2.91,0,4.66-1.15,4.66-3.05v-.09c0-1.8-1.11-2.72-6.51-4.11-6.51-1.66-10.71-3.46-10.71-9.88v-.09c0-5.86,4.71-9.74,11.31-9.74,4.71,0,8.72,1.48,12,4.11l-3.69,5.35c-2.86-1.98-5.68-3.18-8.4-3.18s-4.15,1.25-4.15,2.82v.09c0,2.12,1.38,2.82,6.97,4.25,6.55,1.71,10.25,4.06,10.25,9.69v.09c0,6.41-4.89,10.02-11.86,10.02Z"></path><path class="cls-1" d="m368.27,312.08l-6.92-10.34h-5.58v10.34h-7.11v-32.31h14.77c7.61,0,12.18,4.02,12.18,10.66v.09c0,5.22-2.82,8.49-6.92,10.02l7.89,11.54h-8.31Zm.14-21.28c0-3.05-2.12-4.62-5.58-4.62h-7.06v9.28h7.2c3.46,0,5.45-1.85,5.45-4.57v-.09Z"></path><path class="cls-1" d="m382.34,312.08v-32.31h7.11v32.31h-7.11Z"></path><path class="cls-1" d="m413.12,312.31h-6.27l-13.06-32.54h7.85l8.45,22.76,8.45-22.76h7.66l-13.06,32.54Z"></path><path class="cls-1" d="m431.16,312.08v-32.31h24.37v6.32h-17.31v6.55h15.23v6.32h-15.23v6.78h17.54v6.32h-24.6Z"></path><path class="cls-1" d="m481.69,312.08l-6.93-10.34h-5.58v10.34h-7.11v-32.31h14.77c7.62,0,12.19,4.02,12.19,10.66v.09c0,5.22-2.82,8.49-6.92,10.02l7.89,11.54h-8.31Zm.14-21.28c0-3.05-2.12-4.62-5.59-4.62h-7.06v9.28h7.2c3.46,0,5.45-1.85,5.45-4.57v-.09Z"></path><path class="cls-1" d="m204.51,346.01l1.6-1.89c2.38,2.15,4.66,3.23,7.83,3.23s5.09-1.63,5.09-3.88v-.07c0-2.12-1.14-3.33-5.94-4.34-5.25-1.14-7.66-2.84-7.66-6.59v-.07c0-3.59,3.16-6.23,7.5-6.23,3.33,0,5.71.95,8.02,2.8l-1.5,1.99c-2.12-1.73-4.24-2.48-6.58-2.48-2.97,0-4.86,1.63-4.86,3.69v.06c0,2.15,1.17,3.36,6.2,4.44,5.08,1.11,7.43,2.97,7.43,6.46v.06c0,3.91-3.26,6.46-7.79,6.46-3.62,0-6.59-1.21-9.33-3.65Z"></path><path class="cls-1" d="m234.99,337.99v-.07c0-6.46,4.83-11.8,11.54-11.8,4.14,0,6.62,1.47,8.9,3.62l-1.76,1.89c-1.92-1.83-4.07-3.13-7.17-3.13-5.06,0-8.84,4.11-8.84,9.36v.07c0,5.28,3.82,9.43,8.84,9.43,3.13,0,5.18-1.21,7.37-3.3l1.7,1.66c-2.38,2.41-4.99,4.01-9.13,4.01-6.59,0-11.44-5.18-11.44-11.74Z"></path><path class="cls-1" d="m269.84,326.51h2.57v10.14h13.17v-10.14h2.57v22.83h-2.57v-10.27h-13.17v10.27h-2.57v-22.83Z"></path><path class="cls-1" d="m303.39,337.99v-.07c0-6.29,4.73-11.8,11.68-11.8s11.61,5.45,11.61,11.74t0,.07c0,6.29-4.73,11.8-11.68,11.8s-11.61-5.45-11.61-11.74Zm20.61,0v-.07c0-5.18-3.78-9.42-9-9.42s-8.93,4.17-8.93,9.36v.07c0,5.19,3.78,9.43,9,9.43s8.93-4.17,8.93-9.36Z"></path><path class="cls-1" d="m340.88,337.99v-.07c0-6.29,4.73-11.8,11.68-11.8s11.61,5.45,11.61,11.74t0,.07c0,6.29-4.73,11.8-11.67,11.8s-11.61-5.45-11.61-11.74Zm20.61,0v-.07c0-5.18-3.78-9.42-9-9.42s-8.94,4.17-8.94,9.36v.07c0,5.19,3.78,9.43,9,9.43s8.93-4.17,8.93-9.36Z"></path><path class="cls-1" d="m379.39,326.51h2.58v20.45h12.85v2.38h-15.43v-22.83Z"></path><path class="cls-1" d="m363.12,211.83l-4.07-5.87c6.07-4.67,11.47-10.16,16.06-16.3l-11.27-8.32c-3.67,4.9-7.97,9.31-12.77,13.09l-4.59-6.63c14.17-11.33,23.25-28.77,23.25-48.32,0-4.99-.6-9.84-1.7-14.48l-31.13,8.78c.35,1.82.54,3.7.54,5.62,0,16.32-13.23,29.56-29.55,29.56s-29.55-13.23-29.55-29.56,13.23-29.56,29.55-29.56c6.47,0,12.45,2.08,17.31,5.6l18.86-26.13c-10.17-7.35-22.67-11.68-36.18-11.68-11.59,0-22.44,3.19-31.71,8.74l-4.59-6.62c4.93-3,10.26-5.41,15.88-7.12l-4.02-13.42c-7.05,2.15-13.72,5.2-19.86,9.02l-4.05-5.84c1.28-2.65,1.13-5.89-.67-8.48-2.66-3.84-7.92-4.79-11.76-2.13-3.84,2.66-4.79,7.93-2.13,11.77,1.79,2.59,4.77,3.86,7.7,3.6l4.05,5.84c-19.92,15.34-32.75,39.42-32.75,66.5,0,42.69,31.88,77.93,73.13,83.21v5.59c-9.66,2.27-17.71,6.57-22.91,16.02h-1.91v4.96h71.18v-4.96h-1.92c-5.2-9.45-13.26-13.76-22.92-16.03v-5.58c12.21-1.56,23.58-5.75,33.56-11.97l4.06,5.86c-1.27,2.65-1.13,5.89.67,8.48,2.66,3.83,7.93,4.79,11.76,2.13,3.84-2.66,4.79-7.92,2.13-11.76-1.8-2.59-4.78-3.86-7.71-3.6m-55.24-2.46c-38.59,0-69.88-31.29-69.88-69.88,0-22.31,10.46-42.18,26.73-54.97l4.59,6.62c-14.19,11.33-23.29,28.78-23.29,48.35,0,34.16,27.69,61.85,61.85,61.85,11.6,0,22.46-3.2,31.75-8.76l4.59,6.62c-10.58,6.46-23.03,10.17-36.33,10.17Z"></path></svg> 