<?xml version="1.0" encoding="UTF-8"?> <svg xmlns="http://www.w3.org/2000/svg" id="Layer_1" width="1.39in" height="1.09in" viewBox="0 0 100 78.8"><defs><style>.cls-1{fill:#3a357e;stroke-width:0px;}</style></defs><path class="cls-1" d="m4.36,69.04c-2.5,0-4.36-1.93-4.36-4.37v-.02c0-2.42,1.82-4.4,4.43-4.4,1.6,0,2.56.53,3.35,1.31l-1.19,1.37c-.66-.6-1.32-.96-2.17-.96-1.43,0-2.47,1.19-2.47,2.65v.02c0,1.46,1.01,2.67,2.47,2.67.97,0,1.57-.39,2.24-1l1.19,1.2c-.87.94-1.85,1.52-3.49,1.52Z"></path><path class="cls-1" d="m14.66,68.9v-3.41h-3.45v3.41h-1.87v-8.5h1.87v3.36h3.45v-3.36h1.87v8.5h-1.87Z"></path><path class="cls-1" d="m24.65,68.9l-.78-1.91h-3.6l-.78,1.91h-1.91l3.64-8.56h1.72l3.64,8.56h-1.95Zm-2.58-6.32l-1.13,2.76h2.26l-1.13-2.76Z"></path><path class="cls-1" d="m32.84,68.9l-1.82-2.72h-1.47v2.72h-1.87v-8.5h3.89c2,0,3.21,1.06,3.21,2.81v.02c0,1.37-.74,2.24-1.82,2.64l2.08,3.04h-2.19Zm.04-5.6c0-.8-.56-1.21-1.47-1.21h-1.86v2.44h1.9c.91,0,1.43-.49,1.43-1.2v-.02Z"></path><path class="cls-1" d="m36.45,68.9v-8.5h1.87v6.8h4.24v1.7h-6.11Z"></path><path class="cls-1" d="m43.97,68.9v-8.5h6.41v1.66h-4.55v1.72h4.01v1.66h-4.01v1.79h4.61v1.66h-6.47Z"></path><path class="cls-1" d="m55.13,69.02c-1.29,0-2.59-.45-3.61-1.36l1.1-1.32c.77.63,1.57,1.03,2.54,1.03.77,0,1.23-.3,1.23-.8v-.02c0-.47-.29-.72-1.71-1.08-1.71-.44-2.82-.91-2.82-2.6v-.02c0-1.54,1.24-2.56,2.98-2.56,1.24,0,2.3.39,3.16,1.08l-.97,1.41c-.75-.52-1.49-.84-2.21-.84s-1.09.33-1.09.74v.02c0,.56.36.74,1.83,1.12,1.72.45,2.7,1.07,2.7,2.55v.02c0,1.69-1.29,2.64-3.12,2.64Z"></path><path class="cls-1" d="m67.97,68.9l-1.82-2.72h-1.47v2.72h-1.87v-8.5h3.89c2,0,3.21,1.06,3.21,2.81v.02c0,1.37-.74,2.24-1.82,2.64l2.08,3.04h-2.19Zm.04-5.6c0-.8-.56-1.21-1.47-1.21h-1.86v2.44h1.89c.91,0,1.43-.49,1.43-1.2v-.02Z"></path><path class="cls-1" d="m71.67,68.9v-8.5h1.87v8.5h-1.87Z"></path><path class="cls-1" d="m79.77,68.96h-1.65l-3.44-8.56h2.07l2.22,5.99,2.22-5.99h2.02l-3.44,8.56Z"></path><path class="cls-1" d="m84.52,68.9v-8.5h6.41v1.66h-4.55v1.72h4.01v1.66h-4.01v1.79h4.62v1.66h-6.47Z"></path><path class="cls-1" d="m97.81,68.9l-1.82-2.72h-1.47v2.72h-1.87v-8.5h3.89c2,0,3.21,1.06,3.21,2.81v.02c0,1.37-.74,2.24-1.82,2.64l2.08,3.04h-2.19Zm.04-5.6c0-.8-.56-1.21-1.47-1.21h-1.86v2.44h1.9c.91,0,1.43-.49,1.43-1.2v-.02Z"></path><path class="cls-1" d="m24.87,77.83l.42-.5c.63.57,1.23.85,2.06.85s1.34-.43,1.34-1.02v-.02c0-.56-.3-.88-1.56-1.14-1.38-.3-2.02-.75-2.02-1.73v-.02c0-.94.83-1.64,1.97-1.64.88,0,1.5.25,2.11.74l-.39.52c-.56-.45-1.12-.65-1.73-.65-.78,0-1.28.43-1.28.97v.02c0,.57.31.88,1.63,1.17,1.34.29,1.96.78,1.96,1.7v.02c0,1.03-.86,1.7-2.05,1.7-.95,0-1.73-.32-2.45-.96Z"></path><path class="cls-1" d="m32.89,75.72v-.02c0-1.7,1.27-3.11,3.04-3.11,1.09,0,1.74.39,2.34.95l-.46.5c-.51-.48-1.07-.82-1.89-.82-1.33,0-2.33,1.08-2.33,2.46v.02c0,1.39,1,2.48,2.33,2.48.82,0,1.36-.32,1.94-.87l.45.44c-.63.63-1.31,1.06-2.4,1.06-1.73,0-3.01-1.36-3.01-3.09Z"></path><path class="cls-1" d="m42.06,72.7h.68v2.67h3.47v-2.67h.68v6.01h-.68v-2.7h-3.47v2.7h-.68v-6.01Z"></path><path class="cls-1" d="m50.89,75.72v-.02c0-1.66,1.24-3.11,3.07-3.11s3.05,1.43,3.05,3.09t0,.02c0,1.66-1.24,3.11-3.07,3.11s-3.05-1.43-3.05-3.09Zm5.42,0v-.02c0-1.36-1-2.48-2.37-2.48s-2.35,1.1-2.35,2.46v.02c0,1.36,1,2.48,2.37,2.48s2.35-1.1,2.35-2.46Z"></path><path class="cls-1" d="m60.76,75.72v-.02c0-1.66,1.24-3.11,3.07-3.11s3.05,1.43,3.05,3.09t0,.02c0,1.66-1.24,3.11-3.07,3.11s-3.06-1.43-3.06-3.09Zm5.42,0v-.02c0-1.36-1-2.48-2.37-2.48s-2.35,1.1-2.35,2.46v.02c0,1.36,1,2.48,2.37,2.48s2.35-1.1,2.35-2.46Z"></path><path class="cls-1" d="m70.89,72.7h.68v5.38h3.38v.63h-4.06v-6.01Z"></path><path class="cls-1" d="m66.61,42.52l-1.07-1.54c1.6-1.23,3.02-2.67,4.23-4.29l-2.97-2.19c-.97,1.29-2.1,2.45-3.36,3.45l-1.21-1.74c3.73-2.98,6.12-7.57,6.12-12.72,0-1.31-.16-2.59-.45-3.81l-8.19,2.31c.09.48.14.97.14,1.48,0,4.3-3.48,7.78-7.78,7.78s-7.78-3.48-7.78-7.78,3.48-7.78,7.78-7.78c1.7,0,3.28.55,4.56,1.47l4.96-6.88c-2.68-1.93-5.96-3.07-9.52-3.07-3.05,0-5.9.84-8.35,2.3l-1.21-1.74c1.3-.79,2.7-1.42,4.18-1.87l-1.06-3.53c-1.86.57-3.61,1.37-5.23,2.37l-1.07-1.54c.34-.7.3-1.55-.18-2.23-.7-1.01-2.08-1.26-3.09-.56-1.01.7-1.26,2.09-.56,3.1.47.68,1.26,1.02,2.03.95l1.07,1.54c-5.24,4.04-8.62,10.37-8.62,17.5,0,11.23,8.39,20.51,19.24,21.9v1.47c-2.54.6-4.66,1.73-6.03,4.22h-.5v1.3h18.73v-1.3h-.5c-1.37-2.49-3.49-3.62-6.03-4.22v-1.47c3.21-.41,6.21-1.51,8.83-3.15l1.07,1.54c-.33.7-.3,1.55.18,2.23.7,1.01,2.09,1.26,3.1.56,1.01-.7,1.26-2.08.56-3.09-.47-.68-1.26-1.02-2.03-.95m-14.54-.65c-10.16,0-18.39-8.23-18.39-18.39,0-5.87,2.75-11.1,7.03-14.47l1.21,1.74c-3.73,2.98-6.13,7.57-6.13,12.72,0,8.99,7.29,16.28,16.28,16.28,3.05,0,5.91-.84,8.35-2.31l1.21,1.74c-2.79,1.7-6.06,2.68-9.56,2.68Z"></path></svg> 