<?xml version="1.0" encoding="UTF-8"?> <svg xmlns="http://www.w3.org/2000/svg" id="Layer_1" width="1.39in" height="1.39in" viewBox="0 0 100 100"><defs><style>.cls-1{fill:#fff;stroke-width:0px;}</style></defs><path class="cls-1" d="m50,0C22.39,0,0,22.39,0,50s22.39,50,50,50,50-22.39,50-50S77.61,0,50,0Zm37.06,58.12c-1.53,1.96-3.35,3.55-5.47,4.76-2.11,1.21-4.53,1.82-7.25,1.82-2.51,0-4.54-.49-6.1-1.46-1.56-.98-2.62-2.38-3.18-4.21-1.84,2.01-3.65,3.46-5.42,4.32-1.77.87-4.39,1.3-5.83,1.3s-4.31-.34-5.9-1.68c-1.17-.98-1.7-2.29-1.7-3.8,0-.41.02-.94.06-1.59.04-.64.19-1.45.43-2.41l1.87-6.86c.19-.74.33-1.41.43-2,.09-.59.14-1.08.14-1.46,0-.83-.21-1.47-.62-1.93-.41-.46-1.08-.7-2.01-.7-.65,0-1.48.29-2.48.88-1,.58-2.02,1.37-3.05,2.35l-4.28,18.62h-8.52l3.61-15.73c.19-.86.33-1.56.43-2.09.09-.53.14-1,.14-1.39,0-.83-.21-1.47-.62-1.93-.41-.46-1.09-.7-2.03-.7-.53,0-1.27.22-2.22.64-.94.43-2.13,1.29-3.55,2.58l-4.28,18.62h-8.52l3.67-15.86c.1-.48.24-1.12.4-1.91.16-.79.24-1.43.24-1.91,0-.98-.19-1.65-.57-2.02-.38-.37-1.13-.55-2.24-.55-.55,0-1.11.09-1.69.26-.58.17-1.07.34-1.48.49l.57-2.32c1.39-.57,2.73-1.05,4-1.46,1.27-.4,2.48-.61,3.61-.61,2.1,0,3.61.43,4.54,1.28.93.85,1.58,1.95,1.96,3.29h.18c1.72-1.58,3.38-2.79,4.98-3.61s3.44-1.24,5.52-1.24c1.77,0,3.22.47,4.36,1.42,1.14.95,1.76,2.11,1.88,3.51h.18c1.84-1.58,3.54-2.81,5.13-3.65,2.3-1.22,4.96-1.29,6.79-1.17,1.83.12,3.21.59,4.23,1.53,1.11,1.03,1.66,2.32,1.66,3.89,0,.57-.09,1.38-.26,2.44-.17,1.06-.36,1.92-.57,2.57l-1.5,5.01c-.17.53-.32,1.2-.45,2-.13.8-.19,1.37-.19,1.72,0,.98.27,1.75.81,2.31.54.56,1.17.84,1.9.84.22,0,.55-.03.98-.09.43-.06.88-.2,1.34-.43.48-.22,1.07-.58,1.77-1.07.7-.49,1.37-1.11,2.03-1.85,0-.31.04-.76.12-1.36.08-.59.19-1.3.35-2.13l3.4-14.95,8.21-.36.31.36-3.4,14.78c-.05.21-.12.64-.22,1.3-.09.66-.14,1.35-.14,2.05,0,1.48.36,2.57,1.07,3.28.71.71,1.77,1.06,3.16,1.06,2.34,0,4.36-.87,6.05-2.62,1.69-1.74,2.54-4.08,2.54-7,0-.29-.02-.61-.05-.95-.03-.34-.1-.73-.21-1.16-.19-.4-.54-.8-1.06-1.21-.52-.41-1-.83-1.44-1.26-.5-.5-.94-1.1-1.32-1.82-.38-.71-.57-1.59-.57-2.62,0-.86.17-1.58.5-2.17.33-.58.77-1.07,1.3-1.44.4-.29.89-.52,1.5-.7.6-.17,1.13-.26,1.6-.26,1.65,0,2.92.58,3.8,1.75.89,1.17,1.33,2.73,1.33,4.67,0,2.51-.41,5-1.24,7.47-.82,2.47-1.98,4.65-3.45,6.54Z"></path></svg> 