<?xml version="1.0" encoding="UTF-8"?> <svg xmlns="http://www.w3.org/2000/svg" id="Story_Worldwide" width="600" height="400" viewBox="0 0 600 400"><defs><style>.cls-1{fill:#fff;stroke-width:0px;}</style></defs><path class="cls-1" d="m300,83.7c-64.23,0-116.3,52.07-116.3,116.3s52.07,116.3,116.3,116.3,116.3-52.07,116.3-116.3-52.07-116.3-116.3-116.3Zm86.2,135.18c-3.56,4.56-7.8,8.25-12.71,11.07-4.92,2.82-10.54,4.23-16.85,4.23-5.84,0-10.57-1.14-14.18-3.41-3.62-2.27-6.09-5.54-7.41-9.8-4.28,4.68-8.48,8.04-12.6,10.06-4.12,2.02-10.2,3.03-13.56,3.03s-10.02-.79-13.73-3.9c-2.73-2.29-3.96-5.33-3.96-8.85,0-.96.05-2.19.15-3.69.1-1.5.43-3.37,1-5.61l4.35-15.96c.44-1.72.77-3.27.99-4.65.22-1.38.33-2.51.33-3.39,0-1.92-.48-3.42-1.44-4.5-.96-1.08-2.51-1.62-4.67-1.62-1.52,0-3.44.68-5.78,2.04-2.34,1.36-4.7,3.18-7.09,5.46l-9.95,43.31h-19.82l8.4-36.59c.44-2,.77-3.62.99-4.86.22-1.24.33-2.32.33-3.24,0-1.92-.48-3.42-1.44-4.5-.96-1.08-2.54-1.62-4.73-1.62-1.24,0-2.96.5-5.15,1.5-2.2,1-4.95,3-8.27,6l-9.95,43.31h-19.82l8.53-36.89c.24-1.12.55-2.6.93-4.44.38-1.84.57-3.32.57-4.44,0-2.28-.44-3.85-1.32-4.71-.88-.86-2.62-1.29-5.22-1.29-1.28,0-2.59.2-3.93.6-1.34.4-2.49.78-3.45,1.14l1.32-5.4c3.24-1.32,6.34-2.45,9.3-3.39,2.96-.94,5.76-1.41,8.4-1.41,4.88,0,8.4.99,10.56,2.97,2.16,1.98,3.68,4.53,4.56,7.65h.42c4-3.68,7.86-6.48,11.58-8.4s8-2.88,12.84-2.88c4.12,0,7.5,1.1,10.14,3.3,2.64,2.2,4.1,4.92,4.38,8.16h.42c4.28-3.68,8.24-6.53,11.93-8.49,5.34-2.83,11.54-3.01,15.79-2.73,4.26.27,7.47,1.37,9.83,3.55,2.58,2.39,3.87,5.4,3.87,9.05,0,1.32-.2,3.22-.6,5.68-.4,2.47-.85,4.46-1.33,5.98l-3.5,11.66c-.4,1.24-.75,2.8-1.05,4.66-.3,1.86-.45,3.2-.45,4,0,2.29.63,4.08,1.89,5.38,1.26,1.3,2.73,1.95,4.42,1.95.52,0,1.28-.07,2.28-.21,1-.14,2.04-.47,3.12-.99,1.12-.52,2.49-1.35,4.12-2.5,1.62-1.14,3.19-2.57,4.72-4.3,0-.72.09-1.77.27-3.15.18-1.38.45-3.03.81-4.95l7.92-34.77,19.09-.84.72.84-7.9,34.37c-.12.48-.29,1.49-.51,3.03-.22,1.54-.33,3.13-.33,4.77,0,3.44.83,5.98,2.49,7.62,1.66,1.64,4.11,2.46,7.35,2.46,5.44,0,10.14-2.03,14.08-6.09,3.94-4.06,5.91-9.49,5.91-16.29,0-.68-.04-1.42-.12-2.22-.08-.8-.24-1.7-.48-2.7-.44-.92-1.26-1.86-2.46-2.82-1.2-.96-2.32-1.94-3.36-2.94-1.16-1.16-2.18-2.57-3.06-4.23-.88-1.66-1.32-3.69-1.32-6.09,0-2,.39-3.68,1.17-5.04.78-1.36,1.79-2.48,3.03-3.36.92-.68,2.08-1.22,3.48-1.62,1.4-.4,2.64-.6,3.72-.6,3.84,0,6.79,1.36,8.85,4.08,2.06,2.72,3.09,6.34,3.09,10.86,0,5.84-.96,11.63-2.88,17.37-1.92,5.74-4.6,10.81-8.04,15.21Z"></path></svg> 