<?xml version="1.0" encoding="UTF-8"?> <svg xmlns="http://www.w3.org/2000/svg" id="Layer_1" width="1.39in" height="1.02in" viewBox="0 0 100 73.42"><defs><style>.cls-1{fill:#fff;stroke-width:0px;}</style></defs><path class="cls-1" d="m17.17,6.17c-.22-.8-.54-1.55-.97-2.25-.43-.7-.95-1.31-1.54-1.82-.59-.52-1.26-.92-2-1.22-.74-.3-1.53-.45-2.36-.45-1.15,0-2.17.26-3.07.77-.9.52-1.65,1.2-2.26,2.05-.61.85-1.07,1.81-1.4,2.89-.32,1.07-.49,2.18-.49,3.31,0,1.2.17,2.32.51,3.37.34,1.05.83,1.96,1.46,2.74.63.77,1.4,1.39,2.3,1.84s1.9.67,3,.67c.87,0,1.68-.16,2.44-.48.76-.32,1.43-.73,2.02-1.25.59-.52,1.09-1.11,1.5-1.79.41-.67.69-1.37.84-2.09h.3l-.08,5.5h-.3c-.2-.28-.41-.54-.62-.77-.22-.23-.37-.35-.45-.35-.03,0-.18.09-.45.26-.27.17-.65.37-1.15.58-.5.21-1.11.39-1.82.55-.72.16-1.54.24-2.47.24-1.55,0-2.95-.22-4.2-.66-1.25-.44-2.31-1.07-3.19-1.87-.87-.81-1.55-1.77-2.01-2.9-.47-1.12-.7-2.36-.7-3.71,0-.3.02-.64.06-1.02.04-.38.12-.79.23-1.22.11-.43.26-.89.45-1.36.19-.48.44-.95.74-1.44.35-.57.78-1.11,1.3-1.62.52-.52,1.12-.97,1.82-1.36.7-.39,1.49-.7,2.37-.94.88-.23,1.87-.35,2.97-.35,1,0,1.87.09,2.62.27.75.18,1.37.38,1.87.6.5.22.88.42,1.15.6.27.18.42.27.45.27s.1-.04.19-.11c.09-.08.19-.17.3-.27s.22-.23.34-.37c.12-.14.22-.29.32-.44h.28v5.6l-.3.02Z"></path><path class="cls-1" d="m37.42,12.95c-.5,1.13-1.18,2.12-2.04,2.95-.86.83-1.86,1.47-3,1.92-1.14.45-2.35.67-3.64.67s-2.47-.22-3.6-.66c-1.13-.44-2.12-1.07-2.97-1.87-.85-.81-1.52-1.77-2.01-2.9-.49-1.12-.74-2.36-.74-3.71,0-1.43.26-2.72.77-3.86.52-1.14,1.21-2.11,2.09-2.9.87-.79,1.9-1.4,3.07-1.82s2.41-.64,3.71-.64c1.42,0,2.69.25,3.81.75,1.12.5,2.08,1.17,2.86,2.01.78.84,1.38,1.81,1.8,2.91.42,1.1.62,2.25.62,3.45,0,1.33-.25,2.57-.75,3.7Zm-2.74-6.75c-.26-1.03-.65-1.97-1.17-2.81-.52-.84-1.18-1.52-1.96-2.05-.78-.52-1.71-.79-2.77-.79s-2.02.26-2.81.79c-.79.52-1.44,1.2-1.95,2.04-.51.83-.88,1.78-1.12,2.84-.24,1.06-.36,2.13-.36,3.21s.13,2.22.4,3.27c.27,1.05.66,1.97,1.19,2.77.52.8,1.18,1.44,1.97,1.92.79.48,1.71.72,2.76.72s1.96-.27,2.74-.8c.77-.53,1.42-1.22,1.94-2.06.52-.84.9-1.79,1.16-2.84.26-1.05.39-2.1.39-3.15s-.13-2.04-.39-3.07Z"></path><path class="cls-1" d="m52.46,18.37v-.25c.62-.05,1.13-.16,1.55-.34s.69-.37.82-.59c.03-.05.06-.15.09-.3.02-.15.05-.32.06-.52.02-.2.03-.41.04-.62,0-.22.01-.42.01-.62.02-.55.02-1.12.02-1.7v-3.95h-9.87v5.37c0,.48,0,.95.02,1.4.02.45.09.77.22.95.2.28.48.5.85.65.37.15.72.24,1.07.27v.25h-7.37v-.25c.42-.07.82-.18,1.2-.34.38-.16.67-.35.87-.59.07-.08.12-.22.16-.41.04-.19.08-.41.1-.66s.05-.52.06-.81c.02-.29.02-.57.02-.84,0-.23,0-.55.01-.95,0-.4.02-.84.02-1.31,0-.47.01-.96.01-1.46V3.52c0-.3-.01-.58-.04-.84-.02-.26-.06-.49-.11-.7-.05-.21-.12-.37-.22-.49-.23-.28-.52-.49-.86-.61-.34-.13-.73-.21-1.16-.26v-.25h7.45v.25c-.23.03-.48.08-.75.15-.27.07-.51.17-.72.31-.22.14-.4.34-.55.59s-.23.57-.25.95c-.02.58-.03,1.21-.04,1.89,0,.67-.01,1.32-.01,1.94v2.52h9.87v-4.02c0-.43,0-.92-.02-1.47-.02-.32-.04-.65-.06-.99-.03-.34-.1-.62-.24-.84-.3-.45-.64-.73-1.02-.84-.38-.11-.77-.17-1.15-.19v-.25h7.52v.25c-.4.05-.79.16-1.17.34-.38.17-.67.43-.85.76-.07.12-.12.28-.15.49-.03.21-.06.44-.08.7-.02.26-.02.52-.02.79v8.17c0,.47,0,.95.01,1.45,0,.5.01,1.05.01,1.65,0,.48.01.93.04,1.34.03.41.09.69.19.84.22.33.51.57.88.7.37.13.77.23,1.2.27v.25h-7.67Z"></path><path class="cls-1" d="m77.41,18.37h-15.3v-.25c.42-.07.8-.17,1.16-.32.36-.15.65-.36.89-.62.08-.1.15-.25.2-.44.05-.19.1-.41.14-.66.04-.25.07-.51.09-.79.02-.27.02-.55.02-.81,0-.23,0-.55.01-.95,0-.4.02-.84.02-1.31,0-.47.01-.96.01-1.46v-6.32c0-.3,0-.61-.01-.92,0-.32-.02-.62-.05-.9-.02-.28-.07-.54-.12-.76-.06-.22-.14-.39-.24-.49-.25-.27-.52-.44-.8-.51s-.65-.15-1.1-.21v-.25h13.8l1.7,4.12-.25.12c-1.35-1.68-2.62-2.82-3.8-3.4-.28-.13-.81-.25-1.57-.35s-1.7-.15-2.8-.15c-.35,0-.71.01-1.09.04-.38.03-.65.05-.81.09-.03.27-.06.82-.09,1.65-.02.83-.04,1.8-.04,2.9v1.6c0,.43,0,.79.01,1.06,0,.27.01.49.01.64v.27h.5c.25,0,.54,0,.86-.03.32-.02.65-.04.98-.06.32-.02.6-.06.81-.11.5-.12.92-.27,1.25-.47s.6-.44.81-.72c.21-.28.38-.61.5-.99.12-.37.24-.8.34-1.26h.3v7.87h-.3c-.13-.53-.34-1.08-.61-1.65-.27-.57-.56-.99-.86-1.27-.27-.23-.59-.42-.96-.57s-.81-.24-1.31-.27c-.25-.02-.46-.03-.62-.04-.17,0-.33-.01-.5-.01h-1.15c-.03.23-.05.58-.05,1.02v3c0,.27,0,.52.01.76,0,.24.01.45.01.61.02.53.05,1.04.09,1.51s.14.83.29,1.06.51.4,1.07.5,1.18.15,1.85.15c.28,0,.65,0,1.09-.02.44-.02.9-.06,1.39-.13.53-.07,1.02-.2,1.47-.39.45-.19.88-.46,1.3-.81s.82-.78,1.21-1.29c.39-.51.8-1.12,1.21-1.84l.28.08-1.25,4.77Z"></path><path class="cls-1" d="m98.51,1.1c-.37.23-.66.59-.86,1.07-.12.25-.19.71-.22,1.39-.03.67-.07,1.4-.1,2.16-.03.72-.06,1.56-.09,2.54-.03.97-.04,2.02-.04,3.14v1.6c0,.58,0,1.18.01,1.79,0,.61.01,1.21.01,1.81v1.62c0,.07-.02.12-.06.16-.04.04-.1.06-.19.06-.13,0-.28-.08-.45-.25-1.42-1.63-2.71-3.13-3.87-4.5-1.17-1.37-2.28-2.67-3.34-3.91-1.06-1.24-2.1-2.45-3.11-3.64-1.02-1.18-2.09-2.41-3.22-3.67v10.55c0,.85.02,1.62.06,2.3.04.68.15,1.19.31,1.52.18.38.47.67.86.86.39.19.93.33,1.61.41v.25h-6.15v-.25c.4-.05.8-.15,1.2-.31.4-.16.72-.42.95-.79.23-.35.38-.87.45-1.55.07-.68.12-1.5.15-2.45.03-.72.06-1.56.07-2.54s.03-2.02.03-3.14v-3.05c0-.33,0-.74-.03-1.22-.05-.48-.17-.88-.35-1.19-.18-.31-.4-.55-.65-.72-.25-.17-.52-.3-.81-.37-.29-.08-.57-.13-.84-.16v-.25h5.07l11.85,13.85V5.72c0-.67,0-1.3-.03-1.91-.02-.61-.09-1.09-.23-1.44-.17-.47-.46-.85-.89-1.14-.42-.29-1.04-.5-1.84-.61v-.25h6.2v.25c-.62.08-1.11.24-1.49.48Z"></path><path class="cls-1" d="m30.25,20.97c-.29.18-.46.31-.51.37-.05.05-.12.13-.22.25-.1.12-.22.28-.35.49-.13.21-.27.47-.42.8s-.31.73-.47,1.21c-.27.82-.58,1.72-.92,2.71-.35.99-.7,2.01-1.06,3.06-.36,1.05-.72,2.1-1.09,3.16-.37,1.06-.71,2.06-1.02,3.01l-1.05,2.4h-.25c-.45-1.2-.87-2.35-1.26-3.45-.39-1.1-.77-2.16-1.12-3.17-.36-1.02-.7-2-1.04-2.96-.33-.96-.67-1.9-1.02-2.84-.27.77-.55,1.57-.85,2.41-.3.84-.6,1.7-.9,2.56-.3.87-.6,1.72-.9,2.56-.3.84-.59,1.65-.87,2.44l-1.1,2.45h-.3c-.52-1.35-1-2.63-1.46-3.85-.46-1.22-.9-2.39-1.32-3.51-.42-1.12-.84-2.22-1.24-3.27-.4-1.06-.8-2.11-1.2-3.16-.12-.32-.22-.59-.31-.82-.09-.23-.17-.45-.25-.65s-.15-.39-.24-.58c-.08-.18-.17-.37-.27-.57-.05-.1-.12-.23-.21-.37-.09-.15-.22-.3-.39-.44-.17-.14-.37-.27-.6-.37-.23-.11-.53-.17-.9-.19v-.27h7.05v.25c-.08,0-.22.02-.42.05-.2.03-.41.09-.62.17-.22.08-.4.21-.56.37-.16.17-.24.39-.24.67,0,.15.09.5.26,1.04.17.54.4,1.2.69,1.97.28.77.6,1.62.94,2.54.34.92.68,1.82,1.02,2.71.34.89.66,1.72.96,2.5.3.77.54,1.41.72,1.91.05-.13.17-.48.37-1.04.2-.56.45-1.26.75-2.1.3-.84.63-1.79,1-2.85.37-1.06.73-2.16,1.1-3.31-.25-.67-.47-1.25-.67-1.76-.2-.51-.42-1-.65-1.49-.07-.13-.15-.27-.26-.42-.11-.15-.26-.3-.45-.44-.19-.14-.43-.26-.71-.35-.28-.09-.62-.15-1.02-.16v-.27h7.82v.25c-.1.02-.28.04-.54.08-.26.03-.52.1-.77.19-.26.09-.49.22-.7.39-.21.17-.31.38-.31.62,0,.1.09.44.27,1.01.18.58.42,1.27.7,2.1.28.82.6,1.72.95,2.69.35.97.68,1.9,1,2.79.32.89.6,1.69.86,2.4.26.71.45,1.22.56,1.54.05-.12.14-.36.26-.74.12-.37.28-.83.47-1.37.19-.54.4-1.15.62-1.81.22-.67.45-1.35.67-2.04.23-.69.45-1.38.67-2.07.22-.69.43-1.34.61-1.94.23-.77.37-1.32.4-1.67.03-.35.05-.61.05-.77,0-.25-.07-.45-.22-.61-.15-.16-.33-.29-.55-.4-.22-.11-.45-.19-.7-.25-.25-.06-.47-.1-.67-.11v-.25h5.5v.25c-.42.05-.77.17-1.06.35Z"></path><path class="cls-1" d="m48.66,38.37h-15.3v-.25c.42-.07.8-.17,1.16-.32.36-.15.65-.36.89-.62.08-.1.15-.25.2-.44.05-.19.1-.41.14-.66.04-.25.07-.51.09-.79.02-.27.02-.55.02-.81,0-.23,0-.55.01-.95,0-.4.02-.84.02-1.31,0-.47.01-.96.01-1.46v-6.32c0-.3,0-.61-.01-.92,0-.32-.02-.62-.05-.9-.02-.28-.07-.54-.13-.76-.06-.22-.14-.39-.24-.49-.25-.27-.52-.44-.8-.51-.28-.08-.65-.15-1.1-.21v-.25h13.8l1.7,4.12-.25.12c-1.35-1.68-2.62-2.82-3.8-3.4-.28-.13-.81-.25-1.57-.35-.77-.1-1.7-.15-2.8-.15-.35,0-.71.01-1.09.04-.38.03-.65.05-.81.09-.03.27-.06.82-.09,1.65-.02.83-.04,1.8-.04,2.9v1.6c0,.43,0,.79.01,1.06,0,.27.01.49.01.64v.27h.5c.25,0,.54,0,.86-.03.32-.02.65-.04.97-.06.32-.02.6-.06.81-.11.5-.12.92-.27,1.25-.47.33-.2.6-.44.81-.72.21-.28.37-.61.5-.99.13-.37.24-.8.34-1.26h.3v7.87h-.3c-.13-.53-.34-1.08-.61-1.65-.27-.57-.56-.99-.86-1.27-.27-.23-.59-.42-.96-.57s-.81-.24-1.31-.27c-.25-.02-.46-.03-.62-.04-.17,0-.33-.01-.5-.01h-1.15c-.03.23-.05.58-.05,1.02v3c0,.27,0,.52.01.76,0,.24.01.45.01.61.02.53.05,1.04.09,1.51.04.47.14.83.29,1.06s.51.4,1.07.5c.57.1,1.18.15,1.85.15.28,0,.65,0,1.09-.02.44-.02.9-.06,1.39-.13.53-.07,1.02-.2,1.47-.39.45-.19.88-.46,1.3-.81.42-.35.82-.78,1.21-1.29.39-.51.8-1.12,1.21-1.84l.27.08-1.25,4.77Z"></path><path class="cls-1" d="m52.34,38.37v-.25c.42-.07.8-.17,1.16-.32.36-.15.66-.37.91-.65.08-.1.15-.24.19-.42.04-.18.08-.4.1-.65s.04-.51.05-.79c0-.27.01-.55.01-.81,0-.23,0-.55.01-.95,0-.4.02-.84.02-1.31,0-.47.01-.96.01-1.46v-7.22c0-.3-.01-.58-.04-.84-.03-.26-.06-.49-.11-.7-.05-.21-.12-.37-.23-.49-.23-.28-.52-.49-.86-.61-.34-.13-.73-.21-1.16-.26v-.25h7.47v.25c-.35.05-.73.14-1.12.27-.4.13-.71.4-.92.8-.15.28-.23.64-.24,1.07,0,.43-.02.84-.04,1.22,0,.42,0,.83-.01,1.24,0,.41-.01.82-.01,1.24v8.37c0,.48,0,.95.02,1.4s.09.77.23.95c.2.28.52.5.95.65.43.15.82.24,1.17.27v.25h-7.57Z"></path><path class="cls-1" d="m75.87,35.59c-.33.63-.77,1.17-1.35,1.62s-1.26.78-2.06,1c-.8.22-1.67.33-2.62.33-.82,0-1.52-.05-2.1-.15s-1.07-.22-1.45-.36-.67-.27-.86-.39c-.19-.12-.31-.17-.36-.17s-.16.1-.33.3c-.17.2-.32.39-.45.58h-.23l-.08-4.97h.25c.15.45.34.89.58,1.31s.49.82.76,1.2c.27.37.57.7.87.99.31.28.6.5.89.65.28.15.66.3,1.12.45.47.15.92.22,1.35.22,1.23,0,2.23-.34,3-1.01.77-.67,1.15-1.59,1.15-2.74,0-.47-.08-.87-.23-1.22s-.35-.65-.61-.91c-.26-.26-.56-.48-.91-.66-.35-.18-.73-.35-1.12-.5s-.75-.27-1.05-.37-.58-.2-.84-.29c-.26-.09-.53-.18-.8-.27-.27-.09-.6-.21-.99-.36-.43-.17-.85-.4-1.25-.69-.4-.29-.75-.63-1.05-1.02-.3-.39-.54-.82-.73-1.3-.18-.47-.27-.98-.27-1.51,0-.9.16-1.67.49-2.32s.77-1.19,1.32-1.62c.55-.43,1.19-.75,1.92-.96.73-.21,1.49-.31,2.29-.31.75,0,1.39.06,1.92.19.53.12.97.26,1.31.41.34.15.6.29.77.41.18.13.27.19.29.19.05,0,.15-.1.31-.3.16-.2.3-.4.44-.6h.27v4.62h-.27c-.2-.55-.46-1.1-.77-1.64-.32-.54-.68-1.02-1.1-1.45-.42-.42-.89-.77-1.42-1.04-.53-.27-1.12-.4-1.77-.4-.52,0-1,.08-1.46.22-.46.15-.86.38-1.2.67-.34.3-.61.67-.8,1.11-.19.44-.29.95-.29,1.51,0,.88.27,1.59.8,2.12.53.53,1.22.96,2.07,1.27.33.13.64.25.93.35s.58.2.86.29c.28.09.57.19.86.29.29.1.59.21.91.32,1.13.42,2.01,1.02,2.63,1.81.62.79.93,1.78.93,2.96,0,.8-.16,1.52-.49,2.15Z"></path><path class="cls-1" d="m92.24,35.59c-.33.63-.77,1.17-1.35,1.62s-1.26.78-2.06,1c-.8.22-1.67.33-2.62.33-.82,0-1.52-.05-2.1-.15s-1.07-.22-1.45-.36-.67-.27-.86-.39c-.19-.12-.31-.17-.36-.17s-.16.1-.32.3c-.17.2-.32.39-.45.58h-.23l-.08-4.97h.25c.15.45.34.89.57,1.31s.49.82.76,1.2c.27.37.57.7.87.99.31.28.6.5.89.65.28.15.66.3,1.12.45.47.15.92.22,1.35.22,1.23,0,2.23-.34,3-1.01.77-.67,1.15-1.59,1.15-2.74,0-.47-.08-.87-.23-1.22s-.35-.65-.61-.91c-.26-.26-.56-.48-.91-.66-.35-.18-.73-.35-1.12-.5s-.75-.27-1.05-.37c-.3-.1-.58-.2-.84-.29-.26-.09-.53-.18-.8-.27-.27-.09-.6-.21-.99-.36-.43-.17-.85-.4-1.25-.69-.4-.29-.75-.63-1.05-1.02-.3-.39-.54-.82-.72-1.3-.18-.47-.27-.98-.27-1.51,0-.9.16-1.67.49-2.32.33-.65.77-1.19,1.32-1.62.55-.43,1.19-.75,1.92-.96.73-.21,1.49-.31,2.29-.31.75,0,1.39.06,1.92.19.53.12.97.26,1.31.41.34.15.6.29.77.41.18.13.27.19.29.19.05,0,.15-.1.31-.3.16-.2.3-.4.44-.6h.27v4.62h-.27c-.2-.55-.46-1.1-.77-1.64-.32-.54-.68-1.02-1.1-1.45-.42-.42-.89-.77-1.42-1.04-.53-.27-1.12-.4-1.77-.4-.52,0-1,.08-1.46.22-.46.15-.86.38-1.2.67-.34.3-.61.67-.8,1.11-.19.44-.29.95-.29,1.51,0,.88.27,1.59.8,2.12.53.53,1.22.96,2.07,1.27.33.13.64.25.93.35s.58.2.86.29c.28.09.57.19.86.29.29.1.59.21.91.32,1.13.42,2.01,1.02,2.63,1.81.62.79.93,1.78.93,2.96,0,.8-.16,1.52-.49,2.15Z"></path><path class="cls-1" d="m17.56,62.43c-.32.63-.77,1.17-1.35,1.62-.57.45-1.26.78-2.06,1s-1.67.33-2.62.33c-.82,0-1.52-.05-2.1-.15-.58-.1-1.07-.22-1.45-.36s-.67-.27-.86-.39c-.19-.12-.31-.17-.36-.17s-.16.1-.33.3c-.17.2-.32.39-.45.58h-.23l-.07-4.97h.25c.15.45.34.89.58,1.31.23.42.49.82.76,1.2.27.37.57.7.87.99.31.28.6.5.89.65.28.15.66.3,1.12.45.47.15.92.22,1.35.22,1.23,0,2.23-.34,3-1.01.77-.67,1.15-1.59,1.15-2.74,0-.47-.07-.87-.22-1.22s-.35-.65-.61-.91c-.26-.26-.56-.48-.91-.66-.35-.18-.72-.35-1.12-.5-.4-.15-.75-.27-1.05-.37-.3-.1-.58-.2-.84-.29-.26-.09-.52-.18-.8-.27-.28-.09-.6-.21-.99-.36-.43-.17-.85-.4-1.25-.69-.4-.29-.75-.63-1.05-1.02-.3-.39-.54-.82-.72-1.3-.18-.47-.27-.98-.27-1.51,0-.9.16-1.67.49-2.32.33-.65.77-1.19,1.32-1.62.55-.43,1.19-.75,1.92-.96.73-.21,1.49-.31,2.29-.31.75,0,1.39.06,1.92.19.53.12.97.26,1.31.41.34.15.6.29.77.41.17.13.27.19.29.19.05,0,.15-.1.31-.3.16-.2.3-.4.44-.6h.27v4.62h-.27c-.2-.55-.46-1.1-.77-1.64-.32-.54-.68-1.02-1.1-1.45-.42-.42-.89-.77-1.42-1.04-.53-.27-1.12-.4-1.77-.4-.52,0-1,.08-1.46.22-.46.15-.86.38-1.2.67-.34.3-.61.67-.8,1.11-.19.44-.29.95-.29,1.51,0,.88.27,1.59.8,2.12.53.53,1.22.96,2.07,1.27.33.13.64.25.93.35.29.1.58.2.86.29.28.09.57.19.86.29s.59.21.91.32c1.13.42,2.01,1.02,2.63,1.81.62.79.93,1.78.93,2.96,0,.8-.16,1.52-.49,2.15Z"></path><path class="cls-1" d="m20.37,65.2v-.25c.42-.07.8-.17,1.16-.32.36-.15.66-.37.91-.65.08-.1.15-.24.19-.42.04-.18.08-.4.1-.65s.04-.51.05-.79c0-.27.01-.55.01-.81,0-.23,0-.55.01-.95,0-.4.02-.84.02-1.31,0-.47.01-.96.01-1.46v-7.22c0-.3-.01-.58-.04-.84-.03-.26-.06-.49-.11-.7-.05-.21-.12-.37-.23-.49-.23-.28-.52-.49-.86-.61-.34-.13-.73-.21-1.16-.26v-.25h7.47v.25c-.35.05-.72.14-1.12.27-.4.13-.71.4-.92.8-.15.28-.23.64-.24,1.07,0,.43-.02.84-.04,1.22,0,.42,0,.83-.01,1.24,0,.41-.01.82-.01,1.24v8.37c0,.48,0,.95.02,1.4.02.45.09.77.23.95.2.28.52.5.95.65.43.15.82.24,1.17.27v.25h-7.57Z"></path><path class="cls-1" d="m44.59,65.2v-.27c.72-.03,1.32-.18,1.8-.45.48-.27.81-.58.97-.92.1-.22.17-.49.22-.81.05-.33.08-.65.1-.99.03-1.1.05-2.15.05-3.15v-10.17c-.55,1.23-1.05,2.37-1.51,3.4-.46,1.03-.91,2.04-1.36,3.02-.45.98-.9,1.99-1.36,3.01-.46,1.02-.96,2.15-1.51,3.39-.08.17-.2.43-.35.79-.15.36-.3.72-.45,1.1-.15.38-.29.72-.42,1.02-.13.31-.22.51-.25.61h-.15c-.53-1.23-1.06-2.46-1.59-3.67-.52-1.22-1.04-2.39-1.54-3.51-.5-1.12-.97-2.18-1.4-3.16-.43-.98-.82-1.86-1.17-2.62-.35-.77-.64-1.41-.86-1.92-.22-.52-.38-.87-.46-1.05,0,1.1,0,2.07-.01,2.91,0,.84-.02,1.67-.02,2.5,0,.82-.01,1.7-.01,2.61v3.2c0,.78.02,1.46.08,2.04.05.57.17,1.06.37,1.45.2.39.5.7.91.92.41.23.97.39,1.69.49v.25h-6.52v-.25c.58-.12,1.06-.29,1.42-.51.37-.23.66-.54.87-.94.22-.4.37-.9.47-1.49.1-.59.16-1.31.17-2.16.03-.72.06-1.56.08-2.54.02-.97.02-2.02.02-3.14v-3.15c0-.33,0-.74-.02-1.22-.02-.47-.12-.85-.3-1.14-.18-.29-.4-.52-.65-.69-.25-.17-.52-.29-.8-.36-.28-.08-.52-.13-.72-.16v-.25h5.32l5.97,13.6c.73-1.58,1.45-3.16,2.15-4.72.7-1.57,1.33-2.98,1.89-4.25.56-1.27,1.02-2.32,1.37-3.16.36-.84.56-1.33.61-1.46h5.32v.25c-.68.02-1.2.16-1.56.42-.36.27-.6.58-.74.95-.1.28-.17.72-.2,1.32-.03.6-.06,1.19-.08,1.77-.02.8-.02,1.57-.02,2.32v4.97c0,.88,0,1.82.02,2.8,0,.32.02.64.06.96.04.32.11.58.21.76.02.03.08.11.19.24.11.12.26.26.46.4.2.14.45.27.75.38.3.11.65.17,1.05.19v.25h-8.57Z"></path><path class="cls-1" d="m72.68,59.78c-.5,1.13-1.18,2.12-2.04,2.95-.86.83-1.86,1.47-3,1.92-1.14.45-2.35.67-3.64.67s-2.47-.22-3.6-.66c-1.13-.44-2.12-1.07-2.97-1.87-.85-.81-1.52-1.77-2.01-2.9-.49-1.12-.74-2.36-.74-3.71,0-1.43.26-2.72.77-3.86.52-1.14,1.21-2.11,2.09-2.9.87-.79,1.9-1.4,3.07-1.82s2.41-.64,3.71-.64c1.42,0,2.69.25,3.81.75,1.12.5,2.08,1.17,2.86,2.01.78.84,1.38,1.81,1.8,2.91.42,1.1.62,2.25.62,3.45,0,1.33-.25,2.57-.75,3.7Zm-2.74-6.75c-.26-1.03-.65-1.97-1.18-2.81-.52-.84-1.18-1.52-1.96-2.05s-1.71-.79-2.77-.79-2.02.26-2.81.79-1.44,1.2-1.95,2.04c-.51.83-.88,1.78-1.12,2.84-.24,1.06-.36,2.13-.36,3.21s.13,2.22.4,3.27c.27,1.05.66,1.97,1.19,2.77.52.8,1.18,1.44,1.97,1.92.79.48,1.71.72,2.76.72s1.96-.27,2.74-.8c.77-.53,1.42-1.22,1.94-2.06.52-.84.9-1.79,1.16-2.84.26-1.05.39-2.1.39-3.15s-.13-2.04-.39-3.07Z"></path><path class="cls-1" d="m93.81,47.93c-.37.23-.66.59-.86,1.07-.12.25-.19.71-.22,1.39-.03.67-.07,1.4-.1,2.16-.03.72-.06,1.56-.09,2.54-.03.97-.04,2.02-.04,3.14v1.6c0,.58,0,1.18.01,1.79,0,.61.01,1.21.01,1.81v1.62c0,.07-.02.12-.06.16-.04.04-.1.06-.19.06-.13,0-.28-.08-.45-.25-1.42-1.63-2.71-3.13-3.87-4.5-1.17-1.37-2.28-2.67-3.34-3.91-1.06-1.24-2.1-2.45-3.11-3.64-1.02-1.18-2.09-2.41-3.22-3.67v10.55c0,.85.02,1.62.06,2.3.04.68.15,1.19.31,1.52.18.38.47.67.86.86.39.19.93.33,1.61.41v.25h-6.15v-.25c.4-.05.8-.15,1.2-.31.4-.16.72-.42.95-.79.23-.35.38-.87.45-1.55.07-.68.12-1.5.15-2.45.03-.72.06-1.56.07-2.54s.03-2.02.03-3.14v-3.05c0-.33,0-.74-.03-1.22-.05-.48-.17-.88-.35-1.19-.18-.31-.4-.55-.65-.72-.25-.17-.52-.3-.81-.37-.29-.08-.57-.13-.84-.16v-.25h5.07l11.85,13.85v-8.5c0-.67,0-1.3-.03-1.91-.02-.61-.09-1.09-.23-1.44-.17-.47-.46-.85-.89-1.14-.42-.29-1.04-.5-1.84-.61v-.25h6.2v.25c-.62.08-1.11.24-1.49.48Z"></path><rect class="cls-1" x="9.66" y="42.52" width="30.55" height=".53"></rect><rect class="cls-1" x="59.92" y="42.52" width="30.55" height=".53"></rect><path class="cls-1" d="m79.79,73.42v-.33h.1c.09,0,.17,0,.25-.02.08-.01.15-.04.21-.08s.11-.1.14-.17.05-.17.05-.3v-3.84c0-.12-.02-.22-.05-.3s-.08-.13-.14-.17c-.06-.04-.13-.07-.21-.08-.08-.01-.16-.02-.25-.02h-.1v-.33h2.3v.33h-.1c-.09,0-.17,0-.25.02-.08.01-.15.04-.21.08-.06.04-.11.09-.14.16-.03.07-.05.16-.05.28v4.37h1.56c.12,0,.22-.02.3-.06.08-.04.15-.1.21-.17.05-.07.1-.14.13-.23.03-.08.05-.17.06-.25l.08-.59h.41l-.05,1.7h-4.23Z"></path><path class="cls-1" d="m86.19,73.42v-.33h.1c.09,0,.17,0,.25-.02.08-.01.15-.04.21-.08s.11-.1.14-.17.05-.17.05-.3v-3.84c0-.12-.02-.22-.05-.3s-.08-.13-.14-.17c-.06-.04-.13-.07-.21-.08-.08-.01-.16-.02-.25-.02h-.1v-.33h2.3v.33h-.1c-.09,0-.17,0-.25.02-.08.01-.15.04-.21.08-.06.04-.11.09-.14.16-.03.07-.05.16-.05.28v4.37h1.56c.12,0,.22-.02.3-.06.08-.04.15-.1.21-.17.05-.07.1-.14.13-.23.03-.08.05-.17.06-.25l.08-.59h.41l-.05,1.7h-4.23Z"></path><path class="cls-1" d="m92.59,73.42v-.33h.1c.09,0,.17,0,.25-.02.08-.01.15-.04.21-.08s.11-.1.14-.17.05-.17.05-.3v-3.87c0-.12-.02-.21-.05-.28-.03-.07-.08-.13-.14-.16s-.13-.06-.21-.08c-.08-.01-.16-.02-.25-.02h-.1v-.33h2.22c.33,0,.62.04.86.11.24.08.45.18.6.33.16.14.28.32.36.52.08.2.12.43.12.69,0,.23-.04.46-.11.67-.07.22-.19.41-.36.57-.17.17-.39.3-.65.4-.27.1-.6.15-.99.15h-.5v1.33c0,.12.02.21.05.28.03.07.08.12.14.16.06.04.13.06.21.07.08.01.16.02.25.02h.26v.33h-2.45Zm1.55-2.57h.42c.24,0,.44-.03.61-.08.17-.05.31-.13.42-.24.11-.11.19-.26.24-.43.05-.18.08-.39.08-.64,0-.22-.02-.41-.07-.58s-.11-.3-.21-.41-.22-.19-.38-.24c-.16-.05-.34-.08-.57-.08h-.54v2.69Z"></path><path class="cls-1" d="m43.18,45.41l1.76-5.25h.65l1.88,5.25h-.69l-.53-1.59h-1.92l-.5,1.59h-.64Zm1.32-2.16h1.55l-.48-1.45c-.15-.44-.25-.8-.33-1.09-.06.34-.14.67-.25,1l-.5,1.54Z"></path><path class="cls-1" d="m48.27,45.41v-5.25h.62l2.41,4.12v-4.12h.58v5.25h-.62l-2.41-4.13v4.13h-.58Z"></path><path class="cls-1" d="m52.91,45.41v-5.25h1.58c.36,0,.63.03.82.08.26.07.49.19.67.38.24.23.42.53.54.9.12.36.18.78.18,1.25,0,.4-.04.75-.12,1.06s-.19.56-.31.76c-.13.2-.27.36-.42.48-.15.12-.33.2-.55.26-.21.06-.46.09-.74.09h-1.66Zm.61-.62h.98c.3,0,.54-.03.71-.1.17-.06.31-.16.41-.27.14-.16.26-.39.34-.66.08-.28.12-.62.12-1.01,0-.55-.08-.97-.24-1.27-.16-.29-.35-.49-.57-.59-.16-.07-.42-.11-.79-.11h-.96v4.01Z"></path></svg> 