<?xml version="1.0" encoding="UTF-8"?> <svg xmlns="http://www.w3.org/2000/svg" id="Layer_1" width="600" height="400" viewBox="0 0 600 400"><defs><style>.cls-1{fill:#131944;}.cls-1,.cls-2{stroke-width:0px;}.cls-2{fill:#ae2524;}</style></defs><path class="cls-1" d="m201.51,120.46c-.65-2.4-1.62-4.65-2.92-6.75-1.3-2.1-2.84-3.92-4.61-5.47-1.78-1.55-3.78-2.77-6-3.67-2.22-.9-4.59-1.35-7.09-1.35-3.45,0-6.52.78-9.22,2.32-2.7,1.55-4.96,3.6-6.79,6.15-1.83,2.55-3.22,5.44-4.2,8.66-.97,3.22-1.46,6.54-1.46,9.94,0,3.6.51,6.97,1.54,10.12,1.02,3.15,2.49,5.89,4.39,8.21,1.9,2.32,4.2,4.16,6.9,5.51s5.7,2.02,9,2.02c2.6,0,5.04-.47,7.31-1.43,2.27-.95,4.3-2.2,6.07-3.75,1.77-1.55,3.27-3.34,4.5-5.36,1.22-2.02,2.06-4.11,2.51-6.26h.9l-.23,16.5h-.9c-.6-.85-1.23-1.62-1.87-2.32-.65-.7-1.1-1.05-1.35-1.05-.1,0-.55.26-1.35.79-.8.52-1.95,1.1-3.45,1.73-1.5.63-3.33,1.17-5.47,1.65-2.15.47-4.62.71-7.42.71-4.65,0-8.85-.66-12.6-1.99-3.75-1.32-6.94-3.2-9.56-5.62-2.62-2.42-4.64-5.32-6.04-8.7-1.4-3.37-2.1-7.09-2.1-11.13,0-.9.06-1.92.19-3.07.12-1.15.35-2.37.68-3.67.32-1.3.77-2.66,1.35-4.09.57-1.43,1.31-2.86,2.21-4.31,1.05-1.7,2.35-3.32,3.9-4.87,1.55-1.55,3.37-2.91,5.47-4.09,2.1-1.17,4.47-2.11,7.12-2.81,2.65-.7,5.62-1.05,8.92-1.05,3,0,5.62.28,7.87.82,2.25.55,4.12,1.15,5.62,1.8,1.5.65,2.65,1.25,3.45,1.8.8.55,1.25.82,1.35.82s.29-.11.56-.34c.27-.23.57-.5.9-.82s.66-.7,1.01-1.12c.35-.42.67-.86.97-1.31h.83v16.8l-.9.07Z"></path><path class="cls-1" d="m262.25,140.78c-1.5,3.4-3.54,6.35-6.11,8.85-2.58,2.5-5.57,4.42-9,5.77-3.42,1.35-7.06,2.02-10.91,2.02s-7.4-.66-10.8-1.99c-3.4-1.32-6.37-3.2-8.92-5.62-2.55-2.42-4.56-5.32-6.04-8.7-1.48-3.37-2.21-7.09-2.21-11.13,0-4.3.77-8.16,2.32-11.58,1.55-3.42,3.64-6.32,6.26-8.7,2.62-2.37,5.7-4.2,9.22-5.47s7.24-1.91,11.13-1.91c4.25,0,8.06.75,11.43,2.25,3.37,1.5,6.24,3.51,8.59,6.04,2.35,2.53,4.15,5.44,5.4,8.74,1.25,3.3,1.87,6.75,1.87,10.35,0,4-.75,7.7-2.25,11.1Zm-8.21-20.24c-.78-3.1-1.95-5.91-3.52-8.44-1.57-2.52-3.54-4.57-5.89-6.15-2.35-1.57-5.12-2.36-8.32-2.36s-6.06.79-8.44,2.36c-2.37,1.57-4.32,3.61-5.85,6.11-1.53,2.5-2.65,5.34-3.37,8.51-.72,3.17-1.09,6.39-1.09,9.64s.4,6.67,1.2,9.82c.8,3.15,1.99,5.92,3.56,8.32,1.57,2.4,3.55,4.32,5.92,5.77,2.37,1.45,5.14,2.17,8.29,2.17s5.89-.8,8.21-2.4c2.32-1.6,4.26-3.66,5.81-6.19,1.55-2.52,2.71-5.36,3.49-8.51.77-3.15,1.16-6.3,1.16-9.45s-.39-6.12-1.16-9.22Z"></path><path class="cls-1" d="m307.39,157.05v-.75c1.85-.15,3.4-.49,4.65-1.01s2.07-1.11,2.47-1.76c.1-.15.19-.45.26-.9.07-.45.14-.97.19-1.57.05-.6.09-1.22.11-1.87.02-.65.04-1.27.04-1.87.05-1.65.07-3.35.07-5.1v-11.85h-29.62v16.12c0,1.45.02,2.85.07,4.2.05,1.35.27,2.3.67,2.85.6.85,1.45,1.5,2.55,1.95,1.1.45,2.17.73,3.22.82v.75h-22.12v-.75c1.25-.2,2.45-.54,3.6-1.01,1.15-.47,2.02-1.06,2.62-1.76.2-.25.36-.66.49-1.24.12-.57.23-1.24.3-1.99s.14-1.56.19-2.44c.05-.87.07-1.71.07-2.51,0-.7.01-1.65.04-2.85.02-1.2.05-2.51.07-3.94.02-1.42.04-2.89.04-4.39v-21.67c0-.9-.04-1.74-.11-2.51-.07-.77-.19-1.47-.34-2.1-.15-.62-.37-1.11-.67-1.46-.7-.85-1.56-1.46-2.59-1.84-1.03-.38-2.19-.64-3.49-.79v-.75h22.35v.75c-.7.1-1.45.25-2.25.45-.8.2-1.53.51-2.17.94-.65.43-1.2,1.01-1.65,1.76s-.7,1.7-.75,2.85c-.05,1.75-.09,3.64-.11,5.66-.03,2.02-.04,3.96-.04,5.81v7.57h29.62v-12.07c0-1.3-.03-2.77-.07-4.42-.05-.95-.11-1.94-.19-2.96-.08-1.02-.31-1.86-.71-2.51-.9-1.35-1.93-2.19-3.07-2.51-1.15-.32-2.3-.51-3.45-.56v-.75h22.57v.75c-1.2.15-2.38.49-3.52,1.01-1.15.52-2,1.29-2.55,2.29-.2.35-.35.84-.45,1.46-.1.63-.18,1.33-.23,2.1-.05.78-.07,1.56-.07,2.36v24.52c0,1.4.01,2.85.04,4.35.02,1.5.04,3.15.04,4.95,0,1.45.04,2.79.11,4.01.08,1.23.26,2.06.56,2.51.65,1,1.52,1.7,2.63,2.1,1.1.4,2.3.68,3.6.82v.75h-23.02Z"></path><path class="cls-1" d="m382.22,157.05h-45.89v-.75c1.25-.2,2.41-.52,3.49-.97,1.07-.45,1.96-1.07,2.66-1.87.25-.3.45-.74.6-1.31.15-.57.29-1.24.41-1.99.12-.75.21-1.54.26-2.36.05-.82.07-1.64.07-2.44,0-.7.01-1.65.04-2.85.02-1.2.05-2.51.07-3.94.02-1.42.04-2.89.04-4.39v-18.97c0-.9-.01-1.82-.04-2.77-.02-.95-.07-1.85-.15-2.7-.07-.85-.2-1.61-.37-2.29-.18-.67-.41-1.16-.71-1.46-.75-.8-1.55-1.31-2.4-1.54s-1.95-.44-3.3-.64v-.75h41.39l5.1,12.37-.75.37c-4.05-5.05-7.85-8.45-11.4-10.2-.85-.4-2.42-.75-4.72-1.05s-5.1-.45-8.4-.45c-1.05,0-2.14.04-3.26.11-1.13.08-1.94.16-2.44.26-.1.8-.19,2.45-.26,4.95-.07,2.5-.11,5.4-.11,8.7v4.8c0,1.3.01,2.36.04,3.19.02.82.04,1.46.04,1.91v.82h1.5c.75,0,1.61-.02,2.59-.08.97-.05,1.95-.11,2.93-.19.97-.07,1.79-.19,2.44-.34,1.5-.35,2.75-.82,3.75-1.42s1.81-1.32,2.44-2.17c.63-.85,1.13-1.84,1.5-2.96.37-1.12.71-2.39,1.01-3.79h.9v23.62h-.9c-.4-1.6-1.01-3.25-1.84-4.95-.82-1.7-1.69-2.97-2.59-3.82-.8-.7-1.76-1.27-2.89-1.72s-2.44-.72-3.94-.82c-.75-.05-1.38-.09-1.87-.11-.5-.02-1-.04-1.5-.04h-3.45c-.1.7-.15,1.73-.15,3.07v9c0,.8.01,1.56.04,2.29.02.73.04,1.34.04,1.84.05,1.6.14,3.11.26,4.54.12,1.42.41,2.49.86,3.19s1.52,1.2,3.22,1.5,3.55.45,5.55.45c.85,0,1.94-.02,3.26-.07,1.32-.05,2.71-.17,4.16-.38,1.6-.2,3.07-.59,4.42-1.16,1.35-.57,2.65-1.39,3.9-2.44,1.25-1.05,2.46-2.34,3.64-3.86,1.17-1.52,2.39-3.36,3.64-5.51l.83.23-3.75,14.32Z"></path><path class="cls-1" d="m445.54,105.24c-1.12.7-1.99,1.77-2.59,3.22-.35.75-.58,2.14-.67,4.16-.1,2.02-.2,4.19-.3,6.49-.1,2.15-.19,4.69-.26,7.61-.08,2.92-.11,6.06-.11,9.41v4.8c0,1.75.01,3.54.04,5.36.02,1.83.04,3.64.04,5.44v4.87c0,.2-.06.36-.19.49-.13.12-.31.19-.56.19-.4,0-.85-.25-1.35-.75-4.25-4.9-8.12-9.4-11.62-13.5-3.5-4.1-6.84-8.01-10.01-11.74-3.18-3.72-6.29-7.36-9.34-10.91-3.05-3.55-6.27-7.22-9.67-11.02v31.64c0,2.55.06,4.85.19,6.9.12,2.05.44,3.57.94,4.57.55,1.15,1.41,2.01,2.59,2.59,1.17.58,2.79.99,4.84,1.24v.75h-18.45v-.75c1.2-.15,2.4-.46,3.6-.94,1.2-.47,2.15-1.26,2.85-2.36.7-1.05,1.15-2.6,1.35-4.65.2-2.05.35-4.5.45-7.35.1-2.15.17-4.69.22-7.61.05-2.92.08-6.06.08-9.41v-9.15c0-1-.03-2.22-.08-3.67-.15-1.45-.5-2.64-1.05-3.56-.55-.92-1.2-1.65-1.95-2.17-.75-.52-1.56-.9-2.44-1.12-.88-.23-1.71-.39-2.51-.49v-.75h15.22l35.54,41.54v-25.49c0-2-.03-3.91-.08-5.74-.05-1.82-.27-3.26-.68-4.31-.5-1.4-1.39-2.54-2.66-3.41-1.27-.87-3.11-1.49-5.51-1.84v-.75h18.59v.75c-1.85.25-3.34.73-4.46,1.43Z"></path><path class="cls-1" d="m240.76,164.85c-.87.55-1.39.93-1.54,1.12-.15.15-.37.4-.67.75-.3.35-.65.84-1.05,1.46-.4.63-.82,1.42-1.27,2.4s-.93,2.19-1.42,3.64c-.8,2.45-1.73,5.16-2.77,8.14-1.05,2.97-2.11,6.04-3.19,9.19-1.08,3.15-2.16,6.31-3.26,9.49-1.1,3.17-2.13,6.19-3.07,9.04l-3.15,7.2h-.75c-1.35-3.6-2.61-7.05-3.79-10.35-1.18-3.3-2.3-6.47-3.37-9.52-1.08-3.05-2.11-6.01-3.11-8.89-1-2.87-2.02-5.71-3.07-8.51-.8,2.3-1.65,4.71-2.55,7.24-.9,2.53-1.8,5.09-2.7,7.69-.9,2.6-1.8,5.16-2.7,7.69-.9,2.52-1.78,4.96-2.62,7.31l-3.3,7.35h-.9c-1.55-4.05-3.01-7.9-4.39-11.55-1.38-3.65-2.7-7.16-3.97-10.54-1.27-3.37-2.51-6.65-3.71-9.82-1.2-3.17-2.4-6.34-3.6-9.49-.35-.95-.66-1.77-.94-2.47-.28-.7-.52-1.35-.75-1.95s-.46-1.17-.71-1.73c-.25-.55-.52-1.12-.82-1.72-.15-.3-.36-.68-.64-1.12-.28-.45-.66-.89-1.16-1.31-.5-.42-1.1-.8-1.8-1.12-.7-.32-1.6-.51-2.7-.56v-.82h21.14v.75c-.25,0-.67.05-1.27.15-.6.1-1.23.28-1.87.52-.65.25-1.21.63-1.69,1.12-.48.5-.71,1.17-.71,2.02,0,.45.26,1.49.79,3.11.52,1.62,1.21,3.6,2.06,5.92.85,2.32,1.79,4.86,2.81,7.61,1.02,2.75,2.05,5.46,3.07,8.14,1.02,2.67,1.99,5.17,2.89,7.5.9,2.32,1.62,4.24,2.17,5.74.15-.4.52-1.44,1.12-3.11.6-1.67,1.35-3.77,2.25-6.3.9-2.52,1.9-5.37,3-8.55,1.1-3.17,2.2-6.49,3.3-9.94-.75-2-1.42-3.76-2.02-5.29-.6-1.52-1.25-3.01-1.95-4.46-.2-.4-.46-.82-.79-1.27-.33-.45-.78-.89-1.35-1.31-.58-.42-1.29-.77-2.14-1.05-.85-.27-1.87-.44-3.07-.49v-.82h23.47v.75c-.3.05-.84.13-1.61.23-.78.1-1.55.29-2.32.56-.78.28-1.47.66-2.1,1.16-.63.5-.94,1.13-.94,1.87,0,.3.27,1.31.82,3.04.55,1.73,1.25,3.82,2.1,6.3.85,2.47,1.8,5.16,2.85,8.06,1.05,2.9,2.05,5.69,3,8.36.95,2.67,1.81,5.07,2.59,7.2.77,2.13,1.34,3.66,1.69,4.61.15-.35.41-1.09.79-2.21.37-1.12.85-2.5,1.42-4.12.57-1.62,1.2-3.44,1.87-5.44.67-2,1.35-4.04,2.02-6.11.68-2.07,1.35-4.15,2.02-6.22.67-2.07,1.29-4.01,1.84-5.81.7-2.3,1.1-3.97,1.2-5.02.1-1.05.15-1.82.15-2.32,0-.75-.22-1.36-.67-1.84-.45-.47-1-.87-1.65-1.2-.65-.32-1.35-.57-2.1-.75-.75-.17-1.42-.29-2.02-.34v-.75h16.5v.75c-1.25.15-2.31.5-3.19,1.05Z"></path><path class="cls-1" d="m295.99,217.03h-45.89v-.75c1.25-.2,2.41-.52,3.49-.97,1.07-.45,1.96-1.07,2.66-1.87.25-.3.45-.74.6-1.31.15-.57.29-1.24.41-1.99.12-.75.21-1.54.26-2.36.05-.82.07-1.64.07-2.44,0-.7.01-1.65.04-2.85.02-1.2.05-2.51.07-3.94.02-1.42.04-2.89.04-4.39v-18.97c0-.9-.01-1.82-.04-2.77-.03-.95-.07-1.85-.15-2.7-.07-.85-.2-1.61-.38-2.29-.18-.67-.41-1.16-.71-1.46-.75-.8-1.55-1.31-2.4-1.54-.85-.23-1.95-.44-3.3-.64v-.75h41.39l5.1,12.37-.75.37c-4.05-5.05-7.85-8.45-11.4-10.2-.85-.4-2.42-.75-4.72-1.05-2.3-.3-5.1-.45-8.4-.45-1.05,0-2.14.04-3.26.11-1.13.08-1.94.16-2.44.26-.1.8-.19,2.45-.26,4.95-.07,2.5-.11,5.4-.11,8.7v4.8c0,1.3.01,2.36.04,3.19.02.82.04,1.46.04,1.91v.82h1.5c.75,0,1.61-.02,2.59-.08.97-.05,1.95-.11,2.92-.19.97-.07,1.79-.19,2.44-.34,1.5-.35,2.75-.82,3.75-1.42,1-.6,1.81-1.32,2.44-2.17.62-.85,1.12-1.84,1.5-2.96.38-1.12.71-2.39,1.01-3.79h.9v23.62h-.9c-.4-1.6-1.01-3.25-1.84-4.95-.82-1.7-1.69-2.97-2.59-3.82-.8-.7-1.76-1.27-2.89-1.72s-2.44-.72-3.94-.82c-.75-.05-1.38-.09-1.87-.11-.5-.02-1-.04-1.5-.04h-3.45c-.1.7-.15,1.73-.15,3.07v9c0,.8.01,1.56.04,2.29.02.73.04,1.34.04,1.84.05,1.6.14,3.11.26,4.54.12,1.42.41,2.49.86,3.19s1.52,1.2,3.22,1.5c1.7.3,3.55.45,5.55.45.85,0,1.94-.02,3.26-.07,1.32-.05,2.71-.17,4.16-.38,1.6-.2,3.07-.59,4.42-1.16,1.35-.57,2.65-1.39,3.9-2.44,1.25-1.05,2.46-2.34,3.64-3.86,1.17-1.52,2.39-3.36,3.64-5.51l.82.23-3.75,14.32Z"></path><path class="cls-1" d="m307.01,217.03v-.75c1.25-.2,2.41-.52,3.49-.97,1.07-.45,1.99-1.1,2.74-1.95.25-.3.44-.72.56-1.27.12-.55.23-1.2.3-1.95.07-.75.12-1.54.15-2.36.02-.82.04-1.64.04-2.44,0-.7.01-1.65.04-2.85.02-1.2.05-2.51.07-3.94.02-1.42.04-2.89.04-4.39v-21.67c0-.9-.04-1.74-.11-2.51-.08-.77-.19-1.47-.34-2.1-.15-.62-.37-1.11-.68-1.46-.7-.85-1.56-1.46-2.59-1.84-1.03-.38-2.19-.64-3.49-.79v-.75h22.42v.75c-1.05.15-2.18.43-3.37.82-1.2.4-2.12,1.2-2.77,2.4-.45.85-.69,1.93-.71,3.22-.02,1.3-.06,2.53-.11,3.67,0,1.25-.01,2.49-.04,3.71-.03,1.23-.04,2.46-.04,3.71v25.12c0,1.45.02,2.85.07,4.2.05,1.35.27,2.3.68,2.85.6.85,1.55,1.5,2.85,1.95,1.3.45,2.47.73,3.52.82v.75h-22.72Z"></path><path class="cls-1" d="m377.61,208.71c-.98,1.9-2.32,3.52-4.05,4.87-1.73,1.35-3.79,2.35-6.19,3-2.4.65-5.02.98-7.87.98-2.45,0-4.55-.15-6.3-.45-1.75-.3-3.2-.66-4.35-1.09s-2.01-.81-2.59-1.16c-.58-.35-.94-.52-1.09-.52s-.48.3-.98.9c-.5.6-.95,1.18-1.35,1.73h-.68l-.23-14.92h.75c.45,1.35,1.03,2.66,1.73,3.94s1.46,2.47,2.29,3.6c.82,1.12,1.7,2.11,2.62,2.96.92.85,1.81,1.5,2.66,1.95.85.45,1.97.9,3.37,1.35,1.4.45,2.75.67,4.05.67,3.7,0,6.7-1.01,9-3.04,2.3-2.02,3.45-4.76,3.45-8.21,0-1.4-.23-2.62-.68-3.67-.45-1.05-1.06-1.96-1.84-2.74-.78-.77-1.69-1.44-2.74-1.99-1.05-.55-2.18-1.05-3.37-1.5s-2.25-.82-3.15-1.12-1.74-.59-2.51-.86c-.78-.27-1.58-.55-2.4-.82-.82-.27-1.81-.64-2.96-1.09-1.3-.5-2.55-1.19-3.75-2.06-1.2-.87-2.25-1.9-3.15-3.07-.9-1.17-1.62-2.47-2.18-3.9-.55-1.42-.82-2.94-.82-4.54,0-2.7.49-5.02,1.48-6.97s2.31-3.57,3.97-4.87c1.66-1.3,3.58-2.26,5.76-2.89,2.18-.62,4.46-.94,6.86-.94,2.25,0,4.17.19,5.77.56,1.6.37,2.91.79,3.94,1.24,1.02.45,1.8.86,2.32,1.24.53.38.81.56.86.56.15,0,.46-.3.94-.9.47-.6.91-1.2,1.31-1.8h.82v13.87h-.82c-.6-1.65-1.38-3.29-2.32-4.91-.95-1.62-2.05-3.07-3.3-4.35-1.25-1.27-2.67-2.31-4.27-3.11-1.6-.8-3.37-1.2-5.32-1.2-1.55,0-3.01.23-4.39.67-1.38.45-2.57,1.13-3.6,2.02-1.03.9-1.83,2.01-2.4,3.34-.58,1.32-.86,2.84-.86,4.54,0,2.65.8,4.77,2.39,6.37,1.6,1.6,3.66,2.88,6.21,3.82,1,.4,1.93.75,2.8,1.05s1.73.59,2.58.86c.85.28,1.71.56,2.58.86.87.3,1.78.63,2.73.97,3.39,1.25,6.02,3.06,7.89,5.44,1.87,2.37,2.8,5.34,2.8,8.89,0,2.4-.49,4.55-1.46,6.45Z"></path><path class="cls-1" d="m426.72,208.71c-.98,1.9-2.32,3.52-4.05,4.87-1.73,1.35-3.79,2.35-6.19,3-2.4.65-5.02.98-7.87.98-2.45,0-4.55-.15-6.3-.45-1.75-.3-3.2-.66-4.35-1.09s-2.01-.81-2.59-1.16c-.58-.35-.94-.52-1.09-.52s-.48.3-.97.9c-.5.6-.95,1.18-1.35,1.73h-.68l-.23-14.92h.75c.45,1.35,1.02,2.66,1.72,3.94.7,1.27,1.46,2.47,2.29,3.6.82,1.12,1.7,2.11,2.62,2.96.92.85,1.81,1.5,2.66,1.95.85.45,1.97.9,3.37,1.35,1.4.45,2.75.67,4.05.67,3.7,0,6.7-1.01,9-3.04,2.3-2.02,3.45-4.76,3.45-8.21,0-1.4-.23-2.62-.68-3.67-.45-1.05-1.06-1.96-1.84-2.74-.78-.77-1.69-1.44-2.74-1.99-1.05-.55-2.18-1.05-3.37-1.5s-2.25-.82-3.15-1.12c-.9-.3-1.74-.59-2.51-.86-.78-.27-1.58-.55-2.4-.82-.82-.27-1.81-.64-2.96-1.09-1.3-.5-2.55-1.19-3.75-2.06-1.2-.87-2.25-1.9-3.15-3.07-.9-1.17-1.62-2.47-2.17-3.9-.55-1.42-.82-2.94-.82-4.54,0-2.7.49-5.02,1.48-6.97.99-1.95,2.31-3.57,3.97-4.87,1.66-1.3,3.58-2.26,5.76-2.89,2.18-.62,4.46-.94,6.86-.94,2.25,0,4.17.19,5.77.56,1.6.37,2.91.79,3.94,1.24,1.02.45,1.8.86,2.32,1.24.53.38.81.56.86.56.15,0,.46-.3.94-.9.47-.6.91-1.2,1.31-1.8h.82v13.87h-.82c-.6-1.65-1.38-3.29-2.32-4.91-.95-1.62-2.05-3.07-3.3-4.35-1.25-1.27-2.67-2.31-4.27-3.11-1.6-.8-3.37-1.2-5.32-1.2-1.55,0-3.01.23-4.39.67-1.38.45-2.58,1.13-3.6,2.02-1.03.9-1.83,2.01-2.4,3.34-.58,1.32-.86,2.84-.86,4.54,0,2.65.8,4.77,2.39,6.37,1.6,1.6,3.66,2.88,6.21,3.82,1,.4,1.93.75,2.8,1.05s1.73.59,2.58.86c.85.28,1.71.56,2.58.86.87.3,1.78.63,2.73.97,3.39,1.25,6.02,3.06,7.89,5.44,1.87,2.37,2.8,5.34,2.8,8.89,0,2.4-.49,4.55-1.46,6.45Z"></path><path class="cls-1" d="m202.67,289.22c-.97,1.9-2.32,3.52-4.05,4.87-1.72,1.35-3.79,2.35-6.19,3-2.4.65-5.02.98-7.87.98-2.45,0-4.55-.15-6.3-.45-1.75-.3-3.2-.66-4.35-1.09s-2.01-.81-2.59-1.16c-.58-.35-.94-.52-1.09-.52s-.48.3-.98.9c-.5.6-.95,1.18-1.35,1.73h-.68l-.22-14.92h.75c.45,1.35,1.02,2.66,1.73,3.94.7,1.27,1.46,2.47,2.29,3.6.82,1.12,1.7,2.11,2.62,2.96.92.85,1.81,1.5,2.66,1.95.85.45,1.97.9,3.37,1.35,1.4.45,2.75.67,4.05.67,3.7,0,6.7-1.01,9-3.04,2.3-2.02,3.45-4.76,3.45-8.21,0-1.4-.22-2.62-.67-3.67s-1.06-1.96-1.84-2.74c-.78-.77-1.69-1.44-2.74-1.99-1.05-.55-2.17-1.05-3.37-1.5-1.2-.45-2.25-.82-3.15-1.12-.9-.3-1.74-.59-2.51-.86-.78-.27-1.57-.55-2.4-.82-.83-.27-1.81-.64-2.96-1.09-1.3-.5-2.55-1.19-3.75-2.06-1.2-.87-2.25-1.9-3.15-3.07-.9-1.17-1.62-2.47-2.17-3.9-.55-1.42-.82-2.94-.82-4.54,0-2.7.49-5.02,1.48-6.97.99-1.95,2.31-3.57,3.97-4.87,1.66-1.3,3.58-2.26,5.76-2.89,2.18-.62,4.46-.94,6.86-.94,2.25,0,4.17.19,5.77.56,1.6.37,2.91.79,3.94,1.24,1.02.45,1.8.86,2.32,1.24.52.38.81.56.86.56.15,0,.46-.3.94-.9.47-.6.91-1.2,1.31-1.8h.82v13.87h-.82c-.6-1.65-1.38-3.29-2.32-4.91-.95-1.62-2.05-3.07-3.3-4.35-1.25-1.27-2.67-2.31-4.27-3.11-1.6-.8-3.37-1.2-5.32-1.2-1.55,0-3.01.23-4.39.67-1.38.45-2.58,1.13-3.6,2.02-1.03.9-1.83,2.01-2.4,3.34-.58,1.32-.86,2.84-.86,4.54,0,2.65.8,4.77,2.39,6.37,1.6,1.6,3.66,2.88,6.21,3.82,1,.4,1.93.75,2.8,1.05.87.3,1.73.59,2.58.86.85.28,1.71.56,2.58.86.87.3,1.78.63,2.73.97,3.39,1.25,6.02,3.06,7.89,5.44,1.87,2.37,2.8,5.34,2.8,8.89,0,2.4-.49,4.55-1.46,6.45Z"></path><path class="cls-1" d="m211.11,297.54v-.75c1.25-.2,2.41-.52,3.49-.97,1.07-.45,1.99-1.1,2.74-1.95.25-.3.44-.72.56-1.27.12-.55.23-1.2.3-1.95s.12-1.54.15-2.36c.02-.82.04-1.64.04-2.44,0-.7.01-1.65.04-2.85.02-1.2.05-2.51.07-3.94.02-1.42.04-2.89.04-4.39v-21.67c0-.9-.04-1.74-.11-2.51-.08-.77-.19-1.47-.34-2.1-.15-.62-.37-1.11-.68-1.46-.7-.85-1.56-1.46-2.59-1.84-1.03-.38-2.19-.64-3.49-.79v-.75h22.42v.75c-1.05.15-2.17.43-3.37.82-1.2.4-2.13,1.2-2.77,2.4-.45.85-.69,1.93-.71,3.22-.03,1.3-.06,2.53-.11,3.67,0,1.25-.01,2.49-.04,3.71-.03,1.23-.04,2.46-.04,3.71v25.12c0,1.45.02,2.85.07,4.2.05,1.35.27,2.3.68,2.85.6.85,1.55,1.5,2.85,1.95,1.3.45,2.47.73,3.52.82v.75h-22.72Z"></path><path class="cls-1" d="m283.76,297.54v-.82c2.15-.1,3.95-.55,5.4-1.35,1.45-.8,2.42-1.73,2.92-2.77.3-.65.52-1.46.67-2.44.15-.98.25-1.96.3-2.96.1-3.3.15-6.45.15-9.45v-30.52c-1.65,3.7-3.16,7.1-4.54,10.2-1.38,3.1-2.74,6.12-4.09,9.07-1.35,2.95-2.71,5.96-4.09,9.04-1.38,3.07-2.89,6.46-4.54,10.16-.25.5-.6,1.29-1.05,2.36-.45,1.08-.9,2.17-1.35,3.3-.45,1.13-.87,2.15-1.27,3.07-.4.93-.65,1.54-.75,1.84h-.45c-1.6-3.7-3.19-7.37-4.76-11.02-1.57-3.65-3.11-7.16-4.61-10.54-1.5-3.37-2.9-6.53-4.2-9.49-1.3-2.95-2.47-5.57-3.52-7.87-1.05-2.3-1.91-4.22-2.59-5.77-.67-1.55-1.14-2.6-1.39-3.15,0,3.3-.01,6.21-.04,8.74-.03,2.52-.05,5.02-.07,7.5-.03,2.47-.04,5.09-.04,7.84v9.6c0,2.35.07,4.39.23,6.11.15,1.72.52,3.17,1.12,4.35.6,1.17,1.51,2.1,2.74,2.77,1.22.68,2.91,1.16,5.06,1.46v.75h-19.57v-.75c1.75-.35,3.17-.86,4.27-1.54,1.1-.68,1.97-1.61,2.62-2.81.65-1.2,1.12-2.69,1.42-4.46.3-1.77.47-3.94.52-6.49.1-2.15.17-4.69.23-7.61.05-2.92.07-6.06.07-9.41v-9.45c0-1-.03-2.22-.07-3.67-.05-1.4-.35-2.54-.9-3.41-.55-.87-1.2-1.56-1.95-2.06-.75-.5-1.55-.86-2.4-1.09-.85-.23-1.57-.39-2.17-.49v-.75h15.97l17.92,40.79c2.2-4.75,4.35-9.47,6.45-14.17,2.1-4.7,3.99-8.95,5.66-12.75,1.67-3.8,3.05-6.96,4.12-9.49,1.07-2.52,1.69-3.99,1.84-4.39h15.97v.75c-2.05.05-3.61.48-4.69,1.27-1.08.8-1.81,1.75-2.21,2.85-.3.85-.5,2.17-.6,3.97-.1,1.8-.18,3.57-.23,5.32-.05,2.4-.07,4.72-.07,6.97v14.92c0,2.65.02,5.45.07,8.4,0,.95.06,1.91.19,2.89.12.97.34,1.74.64,2.29.05.1.24.34.56.71.32.37.79.78,1.39,1.2.6.43,1.35.8,2.25,1.13.9.33,1.95.51,3.15.56v.75h-25.72Z"></path><path class="cls-1" d="m368.05,281.27c-1.5,3.4-3.54,6.35-6.11,8.85-2.57,2.5-5.58,4.42-9,5.77-3.43,1.35-7.06,2.02-10.91,2.02s-7.4-.66-10.8-1.99c-3.4-1.32-6.37-3.2-8.92-5.62-2.55-2.42-4.56-5.32-6.04-8.7-1.48-3.37-2.21-7.09-2.21-11.13,0-4.3.77-8.16,2.32-11.58,1.55-3.42,3.64-6.32,6.26-8.7,2.62-2.37,5.7-4.2,9.22-5.47,3.52-1.27,7.24-1.91,11.13-1.91,4.25,0,8.06.75,11.43,2.25,3.37,1.5,6.24,3.51,8.58,6.04,2.35,2.53,4.15,5.44,5.4,8.74,1.25,3.3,1.87,6.75,1.87,10.35,0,4-.75,7.7-2.25,11.1Zm-8.21-20.24c-.78-3.1-1.95-5.91-3.53-8.44-1.57-2.52-3.54-4.57-5.89-6.15-2.35-1.57-5.12-2.36-8.32-2.36s-6.06.79-8.44,2.36c-2.37,1.57-4.32,3.61-5.85,6.11-1.52,2.5-2.65,5.34-3.37,8.51-.72,3.17-1.09,6.39-1.09,9.64s.4,6.67,1.2,9.82c.8,3.15,1.99,5.92,3.56,8.32,1.57,2.4,3.55,4.32,5.92,5.77,2.37,1.45,5.14,2.17,8.29,2.17s5.89-.8,8.21-2.4c2.32-1.6,4.26-3.66,5.81-6.19,1.55-2.52,2.71-5.36,3.49-8.51.77-3.15,1.16-6.3,1.16-9.45s-.39-6.12-1.16-9.22Z"></path><path class="cls-1" d="m431.44,245.73c-1.12.7-1.99,1.77-2.59,3.22-.35.75-.58,2.14-.67,4.16-.1,2.02-.2,4.19-.3,6.49-.1,2.15-.19,4.69-.26,7.61-.08,2.92-.11,6.06-.11,9.41v4.8c0,1.75.01,3.54.04,5.36.02,1.83.04,3.64.04,5.44v4.87c0,.2-.06.36-.19.49-.13.12-.31.19-.56.19-.4,0-.85-.25-1.35-.75-4.25-4.9-8.12-9.4-11.62-13.5-3.5-4.1-6.84-8.01-10.01-11.74-3.18-3.72-6.29-7.36-9.34-10.91-3.05-3.55-6.27-7.22-9.67-11.02v31.64c0,2.55.06,4.85.19,6.9.12,2.05.44,3.57.94,4.57.55,1.15,1.41,2.01,2.59,2.59,1.17.58,2.79.99,4.84,1.24v.75h-18.45v-.75c1.2-.15,2.4-.46,3.6-.94,1.2-.47,2.15-1.26,2.85-2.36.7-1.05,1.15-2.6,1.35-4.65.2-2.05.35-4.5.45-7.35.1-2.15.17-4.69.22-7.61.05-2.92.08-6.06.08-9.41v-9.15c0-1-.03-2.22-.08-3.67-.15-1.45-.5-2.64-1.05-3.56-.55-.92-1.2-1.65-1.95-2.17-.75-.52-1.56-.9-2.44-1.12-.88-.23-1.71-.39-2.51-.49v-.75h15.22l35.54,41.54v-25.49c0-2-.03-3.91-.08-5.74-.05-1.82-.27-3.26-.68-4.31-.5-1.4-1.39-2.54-2.66-3.41-1.27-.87-3.11-1.49-5.51-1.84v-.75h18.59v.75c-1.85.25-3.34.73-4.46,1.43Z"></path><rect class="cls-1" x="178.97" y="229.5" width="91.66" height="1.58"></rect><rect class="cls-1" x="329.77" y="229.5" width="91.66" height="1.58"></rect><path class="cls-1" d="m389.37,322.21v-.99h.3c.27,0,.52-.02.76-.06.24-.04.44-.12.62-.24s.32-.29.42-.51.15-.52.15-.89v-11.52c0-.37-.05-.67-.15-.89s-.24-.39-.42-.51c-.18-.12-.38-.2-.62-.24-.23-.04-.49-.06-.76-.06h-.3v-.99h6.89v.99h-.31c-.26,0-.51.02-.74.05-.24.03-.44.11-.62.23-.18.12-.32.28-.42.49-.1.21-.16.49-.16.84v13.12h4.67c.35,0,.66-.06.91-.19.25-.13.46-.29.62-.5.16-.2.29-.43.38-.69.09-.25.15-.51.18-.76l.23-1.77h1.24l-.16,5.09h-12.69Z"></path><path class="cls-1" d="m408.57,322.21v-.99h.3c.27,0,.52-.02.76-.06.24-.04.44-.12.62-.24s.32-.29.42-.51.15-.52.15-.89v-11.52c0-.37-.05-.67-.15-.89s-.24-.39-.42-.51c-.18-.12-.38-.2-.62-.24-.23-.04-.49-.06-.76-.06h-.3v-.99h6.89v.99h-.31c-.26,0-.51.02-.74.05-.24.03-.44.11-.62.23-.18.12-.32.28-.42.49-.1.21-.16.49-.16.84v13.12h4.67c.35,0,.66-.06.91-.19.25-.13.46-.29.62-.5.16-.2.29-.43.38-.69.09-.25.15-.51.18-.76l.23-1.77h1.24l-.16,5.09h-12.69Z"></path><path class="cls-1" d="m427.78,322.21v-.99h.3c.27,0,.52-.02.76-.06.24-.04.44-.12.62-.24s.32-.29.42-.51.15-.52.15-.89v-11.61c0-.35-.05-.63-.16-.84-.1-.21-.25-.38-.42-.49s-.38-.19-.62-.23c-.24-.04-.48-.05-.75-.05h-.3v-.99h6.65c.99,0,1.86.11,2.59.34.73.23,1.34.55,1.81.98.48.43.83.95,1.07,1.55.23.61.35,1.3.35,2.07,0,.7-.11,1.38-.33,2.02-.22.65-.58,1.22-1.08,1.72-.5.5-1.16.89-1.96,1.19-.81.3-1.8.44-2.97.44h-1.49v4c0,.35.05.63.16.84.1.21.24.37.42.48.18.11.38.18.62.21.23.04.48.05.74.05h.79v.99h-7.36Zm4.64-7.7h1.26c.72,0,1.33-.08,1.84-.23.51-.15.92-.39,1.25-.73.32-.33.56-.77.71-1.29.15-.53.23-1.17.23-1.91,0-.66-.07-1.24-.2-1.73s-.34-.9-.64-1.22-.67-.56-1.14-.72c-.47-.16-1.03-.24-1.7-.24h-1.61v8.07Z"></path><path class="cls-2" d="m279.54,238.17l5.28-15.75h1.96l5.63,15.75h-2.07l-1.6-4.77h-5.75l-1.51,4.77h-1.93Zm3.97-6.47h4.66l-1.44-4.36c-.44-1.32-.76-2.41-.98-3.27-.18,1.01-.42,2.01-.74,3.01l-1.51,4.62Z"></path><path class="cls-2" d="m294.82,238.17v-15.75h1.87l7.23,12.36v-12.36h1.75v15.75h-1.87l-7.23-12.38v12.38h-1.75Z"></path><path class="cls-2" d="m308.72,238.17v-15.75h4.74c1.07,0,1.89.08,2.45.23.79.21,1.46.58,2.02,1.13.73.7,1.27,1.6,1.63,2.69.36,1.09.54,2.34.54,3.74,0,1.2-.12,2.26-.37,3.18-.24.92-.56,1.69-.94,2.29-.38.61-.8,1.08-1.25,1.43-.45.35-1,.61-1.64.79-.64.18-1.38.27-2.21.27h-4.97Zm1.82-1.86h2.94c.91,0,1.62-.1,2.13-.29.52-.19.93-.47,1.23-.82.43-.49.77-1.16,1.01-1.99.24-.83.36-1.85.36-3.03,0-1.65-.24-2.91-.71-3.8-.47-.88-1.05-1.48-1.72-1.78-.49-.21-1.27-.32-2.36-.32h-2.89v12.03Z"></path></svg> 