<?xml version="1.0" encoding="UTF-8"?> <svg xmlns="http://www.w3.org/2000/svg" id="Layer_2" width="600" height="400" viewBox="0 0 600 400"><defs><style>.cls-1{fill:#fff;stroke-width:0px;}</style></defs><path class="cls-1" d="m90,136.6h14.66v32.55h30.87v-32.55h14.66v79.88h-14.66v-33.22h-30.87v33.22h-14.66v-79.88Zm106.59,53.84c0,6.68-5.46,12.14-12.14,12.14s-12.14-5.46-12.14-12.14v-34.4h-13.9v34.4c0,14.36,11.68,26,26.04,26s26-11.68,26-26v-34.4h-13.9v34.4m52.67-33.98c-6.89,0-11.72,2.02-16.34,6.55v-26.42h-13.94v48.97c0,18.35,13.27,30.87,28.14,30.87,16.55,0,31.08-12.77,31.08-29.99s-13.36-29.99-28.94-29.99h0Zm.34,47.12c-9.45,0-16.67-7.9-16.67-17.09s7.22-17.09,16.67-17.09c7.98,0,15.2,7.9,15.2,17.09s-7.22,17.09-15.2,17.09Zm51.99-43.59c0-7.01,4.66-9.24,9.79-9.24,4.12,0,9.58,3.11,13.1,6.89l9.11-10.67c-4.54-6.09-13.78-10.33-21.34-10.33-15.12,0-26,8.78-26,23.35,0,27,33.22,18.44,33.22,33.56,0,4.66-4.54,8.78-9.79,8.78-8.23,0-10.88-3.99-14.66-8.23l-10.12,10.46c6.47,7.9,14.45,11.89,23.98,11.89,14.32,0,25.87-8.9,25.87-22.76,0-29.99-33.22-20.66-33.22-33.64m69.89-4.28c-14.91,0-28.14,12.56-28.14,30.87v49.1h13.94v-26.54c4.66,4.54,9.45,6.55,16.34,6.55,15.54,0,28.94-12.98,28.94-29.99s-14.49-29.99-31.08-29.99h0Zm2.48,47.12c-9.45,0-16.67-7.9-16.67-17.09s7.22-17.09,16.67-17.09c7.98,0,15.2,7.9,15.2,17.09s-7.22,17.09-15.2,17.09Zm131.16.8c-8.23,0-10.54-3.57-10.54-8.99v-24.11h12.77v-12.22h-12.77v-16.13l-14.11,6.34v49.1c0,12.56,8.65,18.9,20.54,18.9,1.76,0,4.24-.13,5.54-.46l3.44-12.68c-1.55.13-3.32.21-4.87.21"></path><path class="cls-1" d="m468.36,171.17c-2.69-4.58-6.43-8.27-11.13-11.05-3.53-2.06-7.14-3.36-11.26-3.91v-14.62c4.12-1.72,6.64-5.59,6.64-10.08,0-6.13-4.91-11.09-11.05-11.09s-11.13,4.96-11.13,11.09c0,4.49,2.39,8.36,6.51,10.08v14.62c-3.28.46-6.68,1.51-9.79,3.07-6.34-4.83-27.17-20.62-39.35-29.86.29-1.05.5-2.1.5-3.23,0-6.8-5.5-12.31-12.31-12.31s-12.31,5.5-12.31,12.31,5.5,12.31,12.31,12.31c2.31,0,4.45-.67,6.3-1.81l2.56,1.93,35.32,25.45c-1.85,1.72-3.61,3.65-5,5.84-2.81,4.45-4.54,9.37-4.54,14.7v1.13c0,3.74.71,7.31,1.93,10.63,1.05,2.9,2.65,5.54,4.58,7.94l-11.72,11.76c-3.49-1.3-7.35-.42-10,2.18-1.81,1.76-2.77,4.2-2.77,6.72s1.01,4.91,2.77,6.72c1.76,1.81,4.2,2.77,6.72,2.77s4.96-1.01,6.72-2.77c1.81-1.76,2.77-4.2,2.77-6.72,0-.97-.17-1.93-.42-2.86l12.1-12.1c1.68,1.13,3.44,2.1,5.38,2.94,3.82,1.64,7.98,2.65,12.6,2.65h.84c5.08,0,9.87-1.18,14.36-3.61,4.75-2.56,8.44-6.09,11.26-10.63,2.81-4.49,4.37-9.49,4.37-14.99v-.29c0-5.42-1.26-10.37-3.86-14.95h0l.08.04Zm-14.78,25.41c-3.28,3.65-7.06,5.92-11.34,5.92h-.71c-2.44,0-4.83-.67-7.18-1.89-2.65-1.34-4.62-3.28-6.26-5.71-1.68-2.39-2.6-5-2.6-7.77v-.84c0-2.73.5-5.29,1.85-7.73,1.43-2.65,3.32-4.75,5.84-6.38,2.48-1.64,5.12-2.44,8.11-2.44h.29c2.69,0,5.21.55,7.6,1.76,2.44,1.3,4.45,3.11,5.96,5.42,1.51,2.35,2.39,4.87,2.69,7.64.04.59.08,1.18.08,1.72,0,3.74-1.43,7.22-4.28,10.37h0l-.04-.08Z"></path><path class="cls-1" d="m107.47,285.07c0,.21-.08.38-.25.42-1.13.5-2.9.63-4.87.63-6.55,0-12.35-3.91-12.35-12.64,0-7.6,5.04-12.77,12.89-12.77,2.27,0,3.7.17,4.58.59.17.08.21.17.21.42v3.36c0,.25-.17.25-.29.21-1.09-.55-2.69-.8-4.58-.8-5.08,0-8.4,3.4-8.4,8.78,0,6.8,4.7,8.99,8.44,8.99,1.76,0,3.07-.17,4.33-.59.17,0,.25,0,.25.17v3.15l.04.08Z"></path><path class="cls-1" d="m133.09,285.49c0,.21-.13.29-.34.29h-14.24c-.25,0-.29-.08-.29-.29v-24.07c0-.21,0-.29.25-.29h13.82c.21,0,.29,0,.34.21l.38,3.28s0,.34-.25.34h-10.29v6.3h9.37s.25.08.25.25v3.32c0,.21-.13.25-.29.25h-9.32v6.85h10.92c.21,0,.25.08.21.25l-.5,3.28v.04Z"></path><path class="cls-1" d="m144.14,285.78c-.21,0-.25-.08-.25-.29v-24.02s0-.29.21-.29c2.52-.08,4.2-.13,7.01-.13,5.75,0,9.24,2.56,9.24,7.31,0,3.32-2.14,5.59-4.75,6.55,1.22,1.72,5.59,8.48,6.68,10.5.13.17.17.38-.08.38h-4.33c-.29,0-.38-.08-.5-.17-1.05-1.72-3.65-6.09-5.33-8.82-.25-.46-.46-.63-.88-.63h-3.15v9.41s-.08.25-.25.25h-3.61v-.04Zm7.06-13.31c3.11,0,4.91-1.47,4.91-3.91,0-2.56-1.93-3.86-5.12-3.86-1.22,0-2.35.08-2.94.13v7.6h3.15v.04Z"></path><path class="cls-1" d="m176.35,264.95h-7.27s-.21-.13-.17-.29l.46-3.28s.13-.25.34-.25h17.77c.21,0,.29.08.34.29l.34,3.19c0,.21-.08.34-.25.34h-7.22v20.5c0,.21-.13.34-.29.34h-3.61c-.21,0-.34-.08-.34-.29v-20.54h-.08Z"></path><path class="cls-1" d="m200.96,285.49c0,.21-.08.29-.25.29h-3.7c-.21,0-.25-.08-.25-.29v-24.11c0-.21.08-.25.25-.25h3.7s.25.08.25.25v24.11Z"></path><path class="cls-1" d="m217.47,285.49c0,.21-.08.29-.25.29h-3.74s-.21-.13-.21-.29v-24.11s0-.25.21-.25h13.86s.25,0,.29.25l.34,3.28c0,.21,0,.29-.25.29h-10.25v6.85h9.2s.25.08.25.25v3.32s-.08.25-.25.25h-9.2v9.87Z"></path><path class="cls-1" d="m242.16,285.49c0,.21-.08.29-.25.29h-3.7c-.21,0-.25-.08-.25-.29v-24.11c0-.21.08-.25.25-.25h3.7s.25.08.25.25v24.11Z"></path><path class="cls-1" d="m269.33,285.49c0,.21-.13.29-.34.29h-14.24c-.25,0-.29-.08-.29-.29v-24.07c0-.21,0-.29.25-.29h13.82c.21,0,.29,0,.34.21l.38,3.28s0,.34-.25.34h-10.29v6.3h9.37s.25.08.25.25v3.32c0,.21-.13.25-.29.25h-9.32v6.85h10.92c.21,0,.25.08.21.25l-.5,3.28v.04Z"></path><path class="cls-1" d="m279.29,261.46s0-.25.21-.29c1.01,0,3.49-.13,6.68-.13,8.44,0,12.77,4.96,12.77,11.97,0,9.45-6.93,12.85-12.89,12.85-2.18,0-5.38,0-6.55-.08-.17,0-.17-.13-.17-.34v-23.98h-.04Zm4.24,20.62c.71,0,1.51.08,2.39.08,5.04,0,8.61-3.11,8.61-9.07s-3.53-8.36-8.36-8.36c-.97,0-1.76,0-2.65.08,0,0,0,17.26,0,17.26Z"></path><path class="cls-1" d="m323.89,261.42s0-.25.17-.25c1.43-.08,3.99-.13,6.55-.13,6.93,0,9.7,3.86,9.7,8.06,0,5.88-4.49,8.48-10,8.48h-2.23v7.94s-.08.25-.29.25h-3.7s-.21-.08-.21-.25c0,0,0-24.11,0-24.11Zm4.24,12.39h2.23c3.15,0,5.75-1.13,5.75-4.62,0-2.81-1.97-4.49-5.38-4.49-1.22,0-2.23.08-2.65.13v8.99h.04Z"></path><path class="cls-1" d="m355.05,279.02l-2.06,6.47s-.17.25-.38.25h-3.49c-.25,0-.34-.13-.25-.34l7.43-22.18c.13-.38.21-.71.25-1.93,0-.17.08-.21.21-.21h4.91s.21,0,.25.17l8.27,24.19s0,.29-.17.29h-3.91s-.25-.08-.34-.21l-2.14-6.51h-8.61Zm7.48-3.86c-.76-2.52-2.52-7.85-3.19-10.5h0c-.59,2.48-2.02,6.93-3.15,10.5h6.38-.04Z"></path><path class="cls-1" d="m380.21,285.78c-.21,0-.25-.08-.25-.29v-24.02s0-.29.21-.29c2.52-.08,4.2-.13,7.01-.13,5.75,0,9.24,2.56,9.24,7.31,0,3.32-2.14,5.59-4.75,6.55,1.22,1.72,5.59,8.48,6.68,10.5.13.17.17.38-.08.38h-4.33c-.29,0-.38-.08-.5-.17-1.05-1.72-3.65-6.09-5.33-8.82-.25-.46-.46-.63-.88-.63h-3.15v9.41s-.08.25-.25.25h-3.61v-.04Zm7.06-13.31c3.11,0,4.91-1.47,4.91-3.91,0-2.56-1.93-3.86-5.12-3.86-1.22,0-2.35.08-2.94.13v7.6h3.15v.04Z"></path><path class="cls-1" d="m413.09,264.95h-7.27s-.21-.13-.17-.29l.46-3.28s.13-.25.34-.25h17.77c.21,0,.29.08.34.29l.34,3.19c0,.21-.08.34-.25.34h-7.22v20.5c0,.21-.13.34-.29.34h-3.61c-.21,0-.34-.08-.34-.29v-20.54h-.08Z"></path><path class="cls-1" d="m434.72,285.78c-.21,0-.29,0-.29-.29v-24.11s0-.25.21-.25h4.96c.25,0,.29,0,.42.25,2.69,4.96,8.36,15.88,9.58,18.61h0c0-1.09-.13-2.56-.13-5.88v-12.68c0-.21.08-.29.29-.29h3.4c.21,0,.29.08.29.29v24.02c0,.25-.08.34-.38.34h-4.41c-.25,0-.38,0-.5-.25-1.85-3.86-8.65-16.25-10-19.78h0c.17,1.81.17,3.65.17,6.97v12.77c0,.21-.08.29-.25.29h-3.4.04Z"></path><path class="cls-1" d="m480.71,285.49c0,.21-.13.29-.34.29h-14.24c-.25,0-.29-.08-.29-.29v-24.07c0-.21,0-.29.25-.29h13.82c.21,0,.29,0,.34.21l.38,3.28s0,.34-.25.34h-10.29v6.3h9.37s.25.08.25.25v3.32c0,.21-.13.25-.29.25h-9.32v6.85h10.92c.21,0,.25.08.21.25l-.5,3.28v.04Z"></path><path class="cls-1" d="m491.76,285.78c-.21,0-.25-.08-.25-.29v-24.02s0-.29.21-.29c2.52-.08,4.2-.13,7.01-.13,5.75,0,9.24,2.56,9.24,7.31,0,3.32-2.14,5.59-4.75,6.55,1.22,1.72,5.59,8.48,6.68,10.5.13.17.17.38-.08.38h-4.33c-.29,0-.38-.08-.5-.17-1.05-1.72-3.65-6.09-5.33-8.82-.25-.46-.46-.63-.88-.63h-3.15v9.41s-.08.25-.25.25h-3.61v-.04Zm7.06-13.31c3.11,0,4.91-1.47,4.91-3.91,0-2.56-1.93-3.86-5.12-3.86-1.22,0-2.35.08-2.94.13v7.6h3.15v.04Z"></path></svg> 