<?xml version="1.0" encoding="UTF-8"?> <svg xmlns="http://www.w3.org/2000/svg" id="Layer_1" width="1.39in" height=".61in" viewBox="0 0 100 44.11"><defs><style>.cls-1{fill:#8dc63f;fill-rule:evenodd;}.cls-1,.cls-2,.cls-3{stroke-width:0px;}.cls-2{fill:#ef4023;}.cls-3{fill:#00447a;}</style></defs><path class="cls-1" d="m78.71,11.34c.26.66.02,1.35.14,2.2.08.52.42,1.01.49,1.6.21,1.71.21,3.6-.24,5.12-.23.15-.3-.31-.6-.29-.01-.21-.17-.26-.18-.47-1.48-.99-2.26-2.7-3.14-4.31-.19.3-.46-.05-.48-.29-.59.14,0,.97-.16,1.37-.48,0-.57-.42-.84-.65-.16.09-.44.07-.53.24-.13.52.43.33.37.77-.3.2-.49-.16-.78-.17-.32.04-.44.27-.59.48-.04.42.41.34.36.77-.64-.23-.74.25-1.01.55.12.21.5.17.72.29.09.19.27.29.3.53,1.26.68,2.03,1.85,3.18,2.64.04.94.86,1.08,1.44,1.47-.06.09.06.16.06.18.11,1.07-.57,2.55-.67,3.87-.12,1.5.11,2.84-.26,4.17-.05.2-.2.35-.23.54-.13.86.09,1.69.08,2.44,0,.37-.25.81-.34,1.31-.14.78-.15,1.82-.09,2.62.07,1-.18,1.61-1.17,1.5-.25-.03-.44-.24-.72-.29-.3-.05-.86.06-1.31.01-.23-.02-.45-.14-.6-.11-.54.1-.76.78-.64,1.55.14.13.22-.13.47-.07.06.29-.15.32-.17.54.66.39,2.18.63,3.04.44.46-.1.92-.59,1.36-.79.24-.11.43-.06.59-.18.76-.55.76-2.13.92-3.46.04-.33.21-.63.23-.95.02-.23-.05-.49,0-.71.06-.31.3-.58.35-.9.07-.45-.06-.93-.01-1.37.04-.4.29-.77.34-1.13.19-1.22,0-2.38.62-3.16,1.67-.07,3.84-1.54,5.41-.59.04,3.78-.21,7.89.06,11.48-.58.35-1.43.45-2.08.74.16.09.35.16.36.41,0,.28-.2.35-.29.54-.2.12-.37.06-.54-.05-.05-.15-.08-.32-.06-.53-.37.26-.84.43-.88,1.02,1.05.38,1.68-.26,2.38-.5.43-.15.93,0,1.43-.07.26-.04.62-.22.89-.37.39-.21.67-.64,1.3-.31,1.17-.69.31-2.03.27-3.04-.04-.94.16-1.92.09-2.92-.13-1.78-.54-3.71-.06-5.41,0-.24-.28-.73.11-.95.36.16.68.5,1.02.82.3.28.72.55.96.88.09.13.08.35.18.47.19.23.59.42.84.71.31.35.49.8.78,1.06.23.21.52.3.72.53.37.43.49,1,1.08,1.36.33.2.73.39,1.14.64.67.42,1.78,1.08,2.81.86.39-.08,1.61-.63,1.95-.91.3-.24.38-.58.64-.96-1.39-.34-2.88-.09-4.11-.67-.43-.2-.71-.77-1.14-1.18-.26-.24-.57-.32-.78-.53-.12-.12-.18-.35-.3-.47-.5-.5-1.24-.92-1.38-1.29-.09-.23-.01-.56-.07-.77-.22-.81-1.04-1.27-1.09-2.19-.08-.21-.32-.28-.42-.47.09-1.56-.96-2.36-1.64-3.31-.24-1.53-1.72-2.12-2.47-3.19-.14-.2-.16-.47-.3-.65-.22-.28-.6-.44-.9-.65-.1-.41-.42-.6-.55-1.01-.11-.35,0-.75-.13-1.13-.16-.44-.65-.44-.78-.88-.17-.58.12-1.22-.37-1.66-.12.04-.01.3-.24.24-.63-.95-1.02-2.19-1.11-3.62-.02-.36.11-.75.11-1.13,0-.35-.13-.68-.13-1.01.03-1.66.35-3.25-.82-4.22-.96-.24-1.35-1.26-2.39-1.22.02.13.28.82-.05,1.01.97-.31.87,1.43-.17,1.01-.12-.19-.14-.4-.07-.65-.76.22-1.09,0-1.42-.27-.34-.59.16-1.03.81-1.03-.85-.19-1.55.29-2.14.56.57.05,1.08.8.67,1.18-.76.67-1.61-.72-.73-1.12-.57.3-.93.82-1.48,1.15.1.2.5.09.54.35.07.38-.05.56-.33.58-.4,0-.64-.06-.68-.45-.87.63-1.8,1.37-2.56,2.11-.02.21.64-.09.87-.25,1.39-.53,2.86-1.01,4.13-1.65.1.39.86-.17.9.29,0,.41-.22.61-.59.66-.24-.01-.23-.29-.24-.53-.94.14-1.07.82-1.71,1.33.08.08.47-.2.6.05.21.81-.95.89-.71.19-.47.33-.82.77-1.18,1.2.88-.17,1.83-.57,2.55-1.16.36-.29.79-.81,1.6-.67.56.09,1.1.8,1.15,1.53.06,1.04.19,2.43.09,3.27-.77-.91.17-4.14-1.24-4.45-.31-.07-.55.08-.89.13-.87,1.02-2.39,1.71-3.97,1.83-.16-.08-.24-.23-.36-.35-.1-.36.35-.41.17-.66-.19-.13-.18.34-.41.36-.26,0-.33-.19-.54-.23.04.37-.1.57-.29.72-.66.04-.77-.5-1.14-.76.73-.98,1.73-1.68,2.65-2.53.41-.38.84-.77,1.3-1.14.79-.65,1.43-1.39,2.6-1.69-.21-.39.34-.69.41-1.13.08-.58-.08-.58-.11-1.17,0-.29.6-.65.81-.21.04.14.18.57-.11.54.2.15.32.4.54.53.06-.59-.08-1.03.19-1.34.35-.39.82-.15.93.14-.02-.04.07.14-.3.34.12.29.49.54.43,1.02,1.03-.28.26-1.06.69-1.65.17-.2.67-.1.69.14.02.19-.15.36-.3.38-.02.08.23.57.29.68.04-.38.18-.7.43-.67.16.02.34.05.44.3.02.36-.09.45-.24.49.16,1.03-.04,1.8-.5,2.4.39.2.8.46,1.02.76.81,1.11.46,2.58.52,4.16.07,1.7.08,3.34.58,4.69.21.05.23-.09.42-.06.44.65,1.06,1.24.92,2.31.17.32.55.44.72.77-.15,1.08.37,1.46.62,2.13,1,.57,1.55,1.72,2.35,2.59.42.46.94.8,1.27,1.47.08.18.08.41.18.59.65,1.14,1.6,1.57,1.58,3.08.35.34.36.8.61,1.36.21.48.64.89.79,1.36.08.24.02.53.13.77.19.44.71.69,1.08,1.06.25.24.44.65.78.94.25.21.63.38.9.65.61.6.6.6,1.56.88.91.26,2.26.29,3.45.32-.15,1.69-1.75,1.97-2.89,2.71-1.31.15-2.12-.27-2.98-.86-.66-.45-1.47-.72-1.98-1.29-.26-.3-.37-.69-.6-.95-.19-.21-.53-.32-.72-.53-.12-.13-.14-.35-.24-.47-.4-.48-1.02-.72-1.38-1.24-.12-.17-.12-.37-.24-.53-.32-.43-.81-.73-1.2-1.06-.31.65-.05,1.51-.39,2.15.09.99.31,2.2.39,3.39.06.89-.21,2.21-.09,3.15.13.96.53,2.85-.5,3.22-1.07-.32-1.37.64-2.43.8-.28.04-.59-.1-.89-.05-.4.06-.67.39-1.01.49-.31.09-.75.01-1.01.13-.76.35-1.12,1.34-1.83,1.39-.75.05-1.92-.89-1.27-1.77.51.17,1.46.91,1.79.04-.6-.13-1.01-1.21-.67-1.72.65-.08.62.63,1.14.64.26,0,.47-.33.71-.48.62-.39,1.69-.63,2.37-.92-.3-3.77.11-7.26-.11-11.12-1.26-.42-3.01.69-4.46.64-.76.59-.54,1.82-.63,2.86-.04.47-.37.92-.4,1.37-.02.22.07.45.07.65,0,.63-.36,1.07-.46,1.67-.04.25.03.52,0,.77-.03.3-.2.56-.23.83-.03.25.03.52,0,.77-.05.51-.15,1.12-.28,1.55-.1.31-.3.84-.47,1.08-.48.67-1.64.58-2.19,1.27-1.25-.02-3.03.18-3.7-.62-1.09.64-2.23-.56-1.86-1.71.32-.05.32.24.42.41.38.05.58.29.96.35.05-.12-.02-.3.05-.48-.62-.24-.97-1.39-.73-1.96.53.26.92.67,1.26,1.12.55-.41,1.26-.31,2.26-.26.61.03,1.65.86,1.9-.2.06-.27-.13-.85-.13-1.25,0-.5.04-1.19.1-1.85.08-.91.6-1.4.16-2.14.19-.4.12-.92.16-1.55.06-.88.45-1.79.51-2.74.04-.74-.07-1.48-.02-2.2.08-1.13.54-2.52.62-3.75-.61-.4-1.44-.58-1.56-1.47-.97-1.22-2.35-2.01-3.36-3.18-.24.05-.31-.09-.54-.05-.03-.19-.18-.26-.18-.47-.47-.15-1-.73-1.32-1.23.6-.35,1.18.25,1.49.58.17-.16.6-.21.47-.48-.48-.06-.73-.79-1.26-1,.31-.45,1.25-.18,1.49.16.26-.04.35-.24.71-.19-.12-.76-.68-1.06-1.09-1.53.92-.37,1.34.63,2.15.75.64-.7-.34-1.12-.61-1.6.69-.28,1.65.04,1.73.76,1,.84,1.16,2.26,1.94,3.25.61.78,1.42,1.29,1.98,2.06.39-1.4.26-2.87.13-4.28-.1-1.09-.73-2-.57-3.56.02-.18-.03-.51.23-.6Zm-.63-9.62s-.14.17-.12.52c.31-.01.3-.04.59,0,.47-.48-.22-1.35-.43-1.62.03.29,0,1.08-.04,1.11Zm-1.17.78c.19-.1.52-.24.62-.21-.16-.22-.28-.98-.59-1.21.28.72-.14,1.34-.02,1.42Zm2.97.03c-.59-.33.67-.48-.03-1.65.05.91-.54,1.27-.96,1.43.18.1.74.39.99.21Zm.1.27c.14,0,.27.55.39.65.06.1.06-.57.27-.63.11-.15.18-1.57.01-1.64-.05.24-.32,1.49-.67,1.62Zm-1.89.99c-.06.23-.27.29-.31.3-.28.05-.64-.43-.26-.65-.2,0-.52.12-.53.4.27.81,1.35.48,1.44-.09-.12-.18-.35-.34-.55-.32.14.05.21.11.21.35Zm-5,3.52c.06.16.29.16.46.2.15-.18.58-.35.41-.66-.24.14-.74.21-.87.46Zm-.57.86c.11-.25.39-.36.27-.77-.23.09-.44.12-.64.32.09.22.09.35.37.44Zm.4.08c.17-.03.38-.34.48-.44-.04,0-.06-.04-.15-.06-.04,0-.14-.05-.18-.05.03.19-.12.42-.15.54Zm-1.28.09c.05-.24.11-.45.16-.5-.69.11-.79.4-.16.5Zm-1.48.11c.07.21.33.28.54.35.1-.1.12-.39.13-.58-.21.05-.48.22-.67.23Zm2.15.51c.01-.08.36-.32.38-.4-.08,0-.35-.05-.39-.08.01.09-.06.46.02.48Zm2.21,5.66c.24-.45-.3-.82-.66-.72.25.09.29.69.66.72Zm-1.62,1.04c.1-.41-1.04-1.28.48-.28l-.48.28Zm-1.04,1.09c.09-.3-.07-.63-.68-.6.12.12.52.53.68.6Zm-1.38.54c.36-.05.94.47.67.63l-.67-.63Zm.55,22.43c.04-.27-.38-.57-.6-.77.02.41.23.91.6.77Zm-.1,1.73c.18-.13.07-.35-.06-.47-.23.3-.91-.3-1.21-.31.16.44.47.92,1.27.79Zm9.64.5c-.02-.17.13-.18.12-.36-.22-.08-.3-.3-.54-.35.08.3.11.65.42.71Zm-.52,1.25c-.42.07-.73-.22-1.14-.4.29,1.38,1.9.86,2.2-.14-.5-.13-.66.48-1.06.55Z"></path><path class="cls-1" d="m80.47,5.75c.16.23.22.73.21.94-.1.28-.33.44-.59.42-.74-.05-.53-1.62.38-1.36Z"></path><path class="cls-1" d="m79.39,8.6c-.72.72-1.6-1.01-.85-1.36.49-.23,1.06.72.85,1.36Z"></path><path class="cls-1" d="m80.83,9.3c-1.06.33-1.42-1.77-.13-1.49.3.03.5,1.09.13,1.49Z"></path><path class="cls-1" d="m79.7,9.61c.75,0,.59,1.89-.22,1.79-.71-.3-.83-1.75.22-1.79Z"></path><path class="cls-1" d="m80.75,12.81c-.31-.3-.57-1.17-.25-1.6.43-.6,1.15.21,1.1.88-.04.51-.06,1.09-.84.73Z"></path><path class="cls-1" d="m82.55,14.63c.32.3.28,1.08-.1,1.31-.82.26-1.03-1.92.1-1.31Z"></path><path class="cls-1" d="m80.83,15.07c.25.4.33,1.41-.16,1.67-.82.02-.81-.65-.73-1.42.14-.4.67-.44.89-.25Z"></path><path class="cls-1" d="m75.67,16.85c.3.65-1.43.57-1.31.07.03-1.08,1.21-.65,1.31-.07Z"></path><path class="cls-1" d="m82.34,17.67c.29-.08.7,1.24.01,1.43-.78.3-1.31-1.55-.01-1.43Z"></path><path class="cls-1" d="m73.07,18.96c-.41-.21-.59-.73-.07-1.01,1.03-.53,1,1.06.07,1.01Z"></path><path class="cls-1" d="m80.81,19.53c-.58.22-1.05-.36-1.14-.76-.23-1.03,1.23-1.29,1.42-.31.07.35.02.83-.29,1.07Z"></path><path class="cls-1" d="m76.41,19.63c-.2.16-.62.12-.84-.17-.57-1.57,2-.95.84.17Z"></path><path class="cls-1" d="m83.96,18.72c.37.11.84,1.57-.22,1.55-.74-.17-.86-1.65.22-1.55Z"></path><path class="cls-1" d="m74.68,18.94c.3.07.3.27.3.53-.02.17.06.33-.17.42-.85.31-1.15-1.02-.13-.95Z"></path><path class="cls-1" d="m81.21,20.3c.61.32.28,1.78-.01,1.78-.11,0-.24,0-.39-.02-1.09-.11-.45-1.44.19-1.82.1-.02.14.06.21.06Z"></path><path class="cls-1" d="m77.44,21.41c-.12.11-.16.36-.35.36-.73.07-1.1-.28-1.08-.76.05-1.01,1.43-.62,1.43.4Z"></path><path class="cls-1" d="m86.43,21.73c-.55-.04-.87-.31-1.08-.7-.18-.37.3-.84.77-.66.32.1.79.99.31,1.37Z"></path><path class="cls-1" d="m84.72,20.92c.42.33.43,1.78-.52,1.67-.68-.28-.75-2.22.52-1.67Z"></path><path class="cls-1" d="m78.47,22.77c-.45.27-1.07-.27-1.02-.76.08-.67,1.27-.66,1.37.04.03.23-.1.47-.35.72Z"></path><path class="cls-1" d="m82.93,22.66c0,.29-.01.6-.35.72-.56.03-.91-.16-1.08-.53-.15-.45.18-1.12.7-1.14.39-.01.53.54.72.94Z"></path><path class="cls-1" d="m79.54,22.88c.39.21.17,1.12-.17,1.13-1.07.31-.91-1.77.17-1.13Z"></path><path class="cls-1" d="m87.51,22.61c.56.1.73,1.44.14,1.55-1.04.18-1.39-1.67-.14-1.55Z"></path><path class="cls-1" d="m83.12,23.97c.32.29.58,1.14.19,1.31-.29.2-.28.27-.57.25-.43-.25-.39-.66-.39-.95.13-.33.28-.63.77-.6Z"></path><path class="cls-1" d="m84.22,25.38c-.25-.44.22-.89.59-.9.5-.01.92,1.21.37,1.36-.48,0-.75-.19-.96-.47Z"></path><path class="cls-1" d="m81.05,25.42c-.01.34-.14.55-.47.6-.98.03-.82-1.56-.2-1.6.44-.03.54.55.67,1Z"></path><path class="cls-1" d="m88.54,24.45c.28-.06.8.46.49,1.07-.97.65-1.6-.99-.49-1.07Z"></path><path class="cls-1" d="m78.61,25.03c.24.15.34.79.01,1.01-1.18.87-1.32-1.92-.01-1.01Z"></path><path class="cls-1" d="m86.76,25.3c.76.33-.06,1.65-.88,1.32-.85-.6.06-1.66.88-1.32Z"></path><path class="cls-1" d="m82.01,26.24c.52.29.38,1.38-.22,1.43-.88.07-1.07-1.85.22-1.43Z"></path><path class="cls-1" d="m84.47,27.7c-.22.33-.77.31-.95.19-.63-.35-.19-1.3.34-1.25.4.03.62.59.61,1.06Z"></path><path class="cls-1" d="m89.12,28.25c-.03-.07-.08-.12-.18-.12-.21-.44-.15-1.03.17-1.19.93-.47,1.44,1.53.01,1.31Z"></path><path class="cls-1" d="m79.23,27.34c.47.49.42,1.48-.22,1.55-1.03.12-1.1-1.71.22-1.55Z"></path><path class="cls-1" d="m86.16,30c-.22.21-.44.23-.77.13-.31-.16-.49-.5-.48-.83.03-1.09,1.69-.42,1.26.7Z"></path><path class="cls-1" d="m77.89,30.33c.3.47.23,1.35-.34,1.31-.63-.05-.72-1.69.34-1.31Z"></path><path class="cls-1" d="m90.92,30.19c.91-.36,1.26,1.14.55,1.3-.54.12-1.13-.85-.55-1.3Z"></path><path class="cls-1" d="m86.53,31.01c.08.28-.04.47.07.77,0,.31-.19.75-.71.54-.62-.4-.26-1.92.64-1.32Z"></path><path class="cls-1" d="m77.86,32.95c.23.44-1.16.86-1.25.43-.19-.97,1-.97,1.25-.43Z"></path><path class="cls-1" d="m86.61,33.27c.12.33-.1.83-.47.9-.3.05-.61-.13-.72-.29-.33-.83.93-1.07,1.18-.61Z"></path><path class="cls-1" d="m93.4,34.45c-1.01-.73.91-1.89.89-.6,0,.31-.18.65-.89.6Z"></path><path class="cls-1" d="m77.04,34.38c.33.11-.12,1.37-.58,1.14-.63-.3-.23-1.56.58-1.14Z"></path><path class="cls-1" d="m96.45,35.07c-.55-.99,1.14-1.14,1.19-.43.03.48-.75.64-1.19.43Z"></path><path class="cls-1" d="m86.21,35.3c.24.48-.28,1.31-.88,1.26-.32,0-.62-.72-.67-1.12-.13-1.05.99-1.04,1.31-.45.02.1.18.14.24.31Z"></path><path class="cls-1" d="m77.19,37c.16.22-.09.73-.35.78-.69.15-.77-.94-.37-1.19.33-.19.56.19.72.41Z"></path><path class="cls-1" d="m86.66,37.85c-.22.18-.86,0-.9-.41,0-1.36,1.56-.46.9.41Z"></path><path class="cls-1" d="m76.79,38.67c.26.4-.31,1.03-.59.96-.32-.15-.33-.69-.19-.84.24-.19.53-.42.77-.12Z"></path><path class="cls-1" d="m86.43,39.1c.27.06.3.7-.04.92-.29.07-.62,0-.73-.26-.11-.32.2-.75.77-.66Z"></path><path class="cls-1" d="m75.15,40.11c.49.32.21.84.11,1.07-.02.16-.6.15-.71-.05-.22-.56-.14-1.09.6-1.02Z"></path><path class="cls-1" d="m72.82,40.43c.32.25.35.7.07,1.01-.94.2-1.15-1.2-.07-1.01Z"></path><path class="cls-1" d="m85.17,40.39c.14.25.14.35.16.75.02.17-.29.29-.53.36-.71-.21-.66-1.55.37-1.11Z"></path><path class="cls-3" d="m10.26,22.25c-1.04,0-1.81-.81-1.81-1.84s.76-1.85,1.84-1.85c.66,0,1.05.23,1.4.56l-.4.46c-.29-.27-.59-.44-1-.44-.68,0-1.18.56-1.18,1.26s.49,1.27,1.18,1.27c.44,0,.72-.18,1.02-.46l.4.41c-.37.39-.78.63-1.45.63Z"></path><path class="cls-3" d="m14.37,20.69v1.5h-.63v-3.57h.63v1.48h1.7v-1.48h.63v3.57h-.63v-1.5h-1.7Z"></path><path class="cls-3" d="m22.41,22.19h-.66l-.36-.86h-1.69l-.37.86h-.64l1.57-3.59h.58l1.57,3.59Zm-1.87-2.84l-.61,1.43h1.23l-.62-1.43Z"></path><path class="cls-3" d="m26.68,22.19l-.88-1.24h-.78v1.24h-.63v-3.57h1.59c.82,0,1.33.43,1.33,1.13,0,.59-.35.95-.85,1.09l.96,1.35h-.74Zm-.75-3h-.91v1.2h.92c.45,0,.73-.23.73-.6,0-.39-.28-.6-.74-.6Z"></path><path class="cls-3" d="m29.46,18.62h.63v3h1.87v.57h-2.5v-3.57Z"></path><path class="cls-3" d="m36.63,19.18h-2.02v.93h1.79v.56h-1.79v.96h2.04v.56h-2.67v-3.57h2.64v.56Z"></path><path class="cls-3" d="m40.16,20.12c.75.18,1.15.45,1.15,1.05,0,.67-.52,1.07-1.27,1.07-.55,0-1.06-.19-1.49-.57l.38-.45c.34.3.68.46,1.13.46.39,0,.63-.18.63-.45,0-.26-.14-.4-.81-.55-.76-.18-1.19-.41-1.19-1.07,0-.62.51-1.04,1.22-1.04.52,0,.93.16,1.29.45l-.34.47c-.32-.24-.64-.37-.97-.37-.37,0-.58.19-.58.43,0,.28.16.4.85.57Z"></path><path class="cls-3" d="m48.61,22.19l-.88-1.24h-.78v1.24h-.63v-3.57h1.59c.82,0,1.33.43,1.33,1.13,0,.59-.35.95-.85,1.09l.96,1.35h-.74Zm-.75-3h-.91v1.2h.92c.45,0,.73-.23.73-.6,0-.39-.28-.6-.74-.6Z"></path><path class="cls-3" d="m52.05,18.62v3.57h-.63v-3.57h.63Z"></path><path class="cls-3" d="m56.91,18.62h.68l-1.48,3.59h-.55l-1.48-3.59h.69l1.08,2.74,1.07-2.74Z"></path><path class="cls-3" d="m62.22,19.18h-2.02v.93h1.79v.56h-1.79v.96h2.04v.56h-2.67v-3.57h2.64v.56Z"></path><path class="cls-3" d="m66.66,22.19l-.88-1.24h-.78v1.24h-.63v-3.57h1.59c.82,0,1.32.43,1.32,1.13,0,.59-.35.95-.85,1.09l.96,1.35h-.74Zm-.75-3h-.91v1.2h.92c.45,0,.73-.23.73-.6,0-.39-.28-.6-.74-.6Z"></path><path class="cls-2" d="m6.45,37.09c-.3,0-.61-.05-.88-.09l-.13-.02-.12-.05c-.2-.08-.91-.24-1.16-.34-.48-.1-.96-.38-1.39-.58-.21-.09-.41-.18-.62-.26h-.03s-.02-.04-.02-.04c-.17-.27-.43-.39-.71-.51-.35-.16-.71-.32-.91-.79-.72-.75-.45-5.93-.33-6.61.12-.68.96-1.48,1.99-2.27.19-.15,2.2-.54,2.73-.52,1.7.04,2.48.86,2.76,1.14.06.06.11.11.16.16l.04.04v.06c-.03.08-.02.17,0,.27.02.22.05.51-.26.65-.11.03-.2.04-.28.04-.46,0-.71-.36-.95-.71-.24-.34-.39-.6-.78-.72-.18-.06-.66-.22-.94-.22-.1,0-.21,0-.32.02-.18.02-.97.23-1.22.28-.11.02-.22.05-.32.08-.61.42-1.62,1.1-1.8,2.08-.19,1.21-.14,5.87.81,6.45,0,0,1.07.69,1.69,1,.45.22.9.32,1.29.62,0,0,.57.29.7.33.16.05.37.1.5.1.16,0,.67-.16.81-.38.05-.08.07-.31.13-.38.02-.13,0-.27,0-.4-.02-.36-.05-.78.45-.97.08-.02.13-.02.19-.02.23,0,.43.11.59.33l.02.03v.04c-.01.42-.15.78-.29,1.13-.07.17-.14.34-.19.52l-.02.03c-.25.35-.65.52-1.21.52Z"></path><path class="cls-2" d="m9.42,36.7s-.48.05-.49-.28c-.02-.51.15-1.43.25-2.15-.04-1.22.05-2.25.28-3.32v-.04s.04-.02.04-.02c.09-.07.3-.13.51-.13.26,0,.45.1.55.27v.03s.02.07.02.1c.02-.03.05-.07.07-.1.31-.66.71-1.32,1.57-1.66h.03c.12-.01.24-.02.36-.02.35,0,.93-.03,1.06.47.14.5-.59.68-.91.68-.16,0-.33-.02-.5-.03-.26-.03-.54-.05-.73-.01-.07.09-.17.16-.28.23-.16.11-.33.23-.39.41l-.03.05c-.06.12-.11.24-.16.37l-.04.09-.05-.02c-.21.48-.26,1.03-.32,1.56-.08.72-.1,1.53-.54,2.13-.02.18-.06.28-.05.43.02.34.04.65-.23.93l-.03.03Z"></path><path class="cls-2" d="m15.12,37.27c-.14,0-.3-.04-.45-.08-.14-.04-.59-.2-.66-.25-.25-.2-.51-.41-.66-.69-.5-.63-1.09-1.62-1-2.65-.15-.22-.23-.54-.06-.75l.03-.03h.04c.5-.05.71-.4.94-.8.19-.33.38-.66.76-.84.23-.14.47-.2.73-.2.49,0,.92.25,1.35.5.24.14.47.27.71.36.18.05.39.17.48.28.1.11.33.3.33.3.05.56-.33,1.08-.73,1.26-.55.16-1.05.24-1.59.24-.64,0-1.27-.1-2.01-.22h-.06c-.07.1.06.92.04,1.21-.01.28-.02.55.13.74.16.12.58.86,1.04.99.33.09.59.06.75.06.38,0,1.06-.24,1.11-.24.35,0,.56-.28.67-.36.1-.08.2.09.2.09h0s-.03.04-.03.04c-.48.62-.74.74-1.34.87-.22.05-.57.18-.73.18Zm-.29-4.07c.35,0,.72.05,1.07.1.21.03.43.06.64.08.16-.05.24-.19.34-.35.04-.06.07-.13.12-.19.12-.31-.59-.48-.93-.69-.29-.18-.45-.39-.94-.51-.29-.07-.33-.04-.49.21-.1.16-.21.33-.41.43h-.04c-.2.02-.31.19-.44.36-.07.1-.14.19-.22.27.07.03.13.05.19.08.26.11.5.22.78.23.09-.01.2-.02.32-.02Z"></path><path class="cls-2" d="m20.62,37.5c-.18,0-.48-.03-.65-.1,0,0-.58-.11-.76-.13-.54-.06-1.16-.31-1.13-1.17-.18-1.03.52-2.18,1.44-3.02,0,0,.19-.37.38-.58.4-.45.78-.88,1.45-.96.17-.02.35-.06.55-.09.36-.07.77-.15,1.17-.15.59,0,1.03.18,1.36.54,0,0,.33-.03.83.26.51.29-.05,1.04-.05,1.04h-.2c0,.1-.02.19-.02.29-.09.97-.17,1.89.51,2.63.06,0,.11,0,.17,0,.32,0,.67.05.88.42v.04c.07.3-.04.55-.3.76l-.03.02h-.03c-1,.13-1.53-.81-1.92-1.48l-.04-.08c-.01-.08,0-.17,0-.25,0-.07,0-.13,0-.18-.51.52-1.17,1.16-1.82,1.43-.16.07-.33.16-.51.26-.41.22-.77.48-1.27.48Zm.38-.83c.18-.15.47-.36.76-.36.07,0,.83-.37,1.18-.6.31-.2.67-.47.9-.75l-.05-.16c.22-.42.24-.86.07-1.31-.13-.36-.3-.72-.26-1.14-.07-.59-2.12-.14-2.58.06-.46.2-2.53,1.77-2.23,3.5.06.02.04.11.07.15.07.1.14.18.12.27-.02.14.13.14.2.16.08.03.1.06.18.09.28.1.4.25.65.25h0s.09,0,.14-.01c0,0,.57.08.83-.13Z"></path><path class="cls-2" d="m30.94,38.2h-.74c-.31-.18-.38-.43-.67-.51-.21-.06-.45-.12-.61-.35-1.02-.52-1.15-1.69-1.27-2.83-.08-.7-.15-1.43-.44-2v-.05s.02-.85.02-.85c-.25-.05-.53-.11-.78-.16-.18-.04-.74.04-.91.04-.28,0-.79-.2-.79-.2,0,0-.23-.52,0-.63.38-.17.47-.17.88-.08.26.06.52-.07.83-.07.08,0,.66.01.74.03.06-.46-.23-1.25-.3-1.76-.08-.58-.2-1.11-.11-1.74v-.05c.17-.21.38-.22.66-.22.44,0,.43.33.57.69l-.08.16c-.28.74.03,1.23.04,2.07,0,.13.02.58.02.71.22.05.66-.27.96-.4.27-.12.59.02.85.02.34,0,.54-.13.71.3.08.65-.44.55-.83.79-.06.04-1.52.36-1.52.36-.04.77.16,1.32.14,2.01-.03,1.44.04,2.92,1.43,3.4.53.1.62.46,1.16.42.29-.02.7-.37.84-.37.15,0,.6.41.6.41.18.43-1.01.93-1.39.87Z"></path><path class="cls-2" d="m62.22,37.74c-.2-.08-.65-.34-.77-.58-.95-.63-.47-1.61-.46-2.76,0-.71-.02-1.21,0-1.73l.03-.54-.07-.82c-.24-.07-.49.04-.93.07-.18.01-.66-.06-.82-.08-.28-.03-.52,0-.52,0,0,0-.08-.72.16-.79.4-.12.52-.1.93.04.26.09.42-.12.72-.08.08,0,.44-.1.52-.07.11-.45-.08-1.27-.09-1.78-.01-.58-.14-1.55.02-2.16l.14-.32c.19-.19.4.12.68.15.44.05.23.4.33.77l.17.33c-.37.7-.28,1.41-.36,2.25-.01.13-.05.58-.06.71.21.07.65.1.96,0,.28-.09.49-.21.74-.18.34.04.46.22.57.66,0,.65-.28.22-.69.41-.06.03-1.55.18-1.55.18-.12.76,0,1.33-.09,2.01-.2,1.42.16,2.36.29,2.98.08.4.83.3,1.25.99.13.45-.79.43-1.06.32Z"></path><path class="cls-2" d="m32.58,36.45c-.1,0-.19-.05-.27-.16l-.02-.03v-.03c.06-1.84-.06-4.05-.31-5.76v-.07s.05-.04.05-.04c.29-.16.76-.16,1.05,0l.04.02v.05c.17,1.48-.1,3.53-.2,4.94.02.06.05.12.09.19.09.16.1.36.03.62,0,0-.12.11-.18.15-.09.06-.19.12-.3.12Z"></path><path class="cls-2" d="m36.36,36.27h-.02c-.55-.04-.55-.55-.54-.96,0-.19,0-.37-.04-.49-.23-1.33-.65-2.55-1.27-3.63-.16-.5.2-.83.4-1.02l.02-.02h.04c.33-.08.59.04.8.33l.03.04v.05c-.13.61-.22,1.09-.02,1.6.16.41.48.78.47,1.27.01.08.06.28.05.37,0,.09.07.12.08.18.07-.11.13-.23.19-.35.18-.34.36-.69.72-.83.23-.32.53-.59.82-.85.46-.4.8-.86,1.09-1.39l.08-.08.09-.08c.14-.06.3-.11.47-.08.16.06.26.18.29.33.03.16-.02.33-.13.44l-.02.02h-.03c-.36.08-.53.36-.72.65-.19.3-1.06,1.17-1.25,1.36-.19.19-.47.66-.47.66-.08.21-.21.32-.32.57-.08.18-.14.43-.23.57-.04.12-.06.27-.07.43-.03.35-.07.75-.49.91h-.02Z"></path><path class="cls-2" d="m42.97,37.04c-.14.03-.3.03-.46.03-.14,0-.62-.05-.7-.08-.29-.14-.6-.28-.81-.51-.64-.49-1.45-1.3-1.62-2.32-.2-.18-.36-.47-.24-.71l.02-.04.04-.02c.48-.17.59-.56.72-1.01.1-.36.27-.61.59-.87.19-.19.52-.33.77-.39.47-.12,1.05-.12,1.52,0,.27.08.37.31.62.33.19,0,.29.21.41.29.12.08.46.51.46.51.19.53-.24.73-.58,1-.49.29-.82.32-1.35.45-.62.16-1.26.21-2,.28h-.06c-.05.13-.02.28,0,.43v.02c.22.17.28.45.33.73.06.28.61.91.73,1.06.15.18.73.35.83.33.25-.03.5-.06.74-.12.37-.09.62-.24.76-.44,0,0,.2-.16.26-.17.34-.08.43-.3.56-.41s.22.04.22.04h0s-.02.05-.02.05c-.31.72-.66,1.01-1.75,1.53Zm-1.28-3.88c.34-.09.71-.13,1.06-.17.22-.02.43-.05.64-.08.15-.09.19-.25.24-.42.02-.07-.62-.53-1.01-.65-.33-.1-.48-.18-.78-.22-.34.05-.59,0-.68.28-.06.18-.59.78-.67.98-.04.11-.08.22-.15.31.07.01.14.02.21.03.28.05.54.09.82.03.09-.03.19-.07.31-.1Z"></path><path class="cls-2" d="m54.42,35.84c-.16-.16-.32-.31-.35-.47v-.05s-.05-.03-.05-.03c-.37-.21-.68-.49-.95-.89-.1-.19-.22-.37-.33-.55-.09-.17-.17-.33-.25-.5-.08-.17-.17-.33-.25-.5l1.51-.12-.02-.12c-.01-.07,0-.16,0-.25.01-.18.03-.41-.16-.55,0,0-.25,0-.34-.01-.05,0-.1,0-.15,0-.15,0-.36.03-.48.25-.11.03-.22.04-.32.04-.63,0-.84-.56-1.07-1.15-.14-.35-.26-.69-.49-.9-.02-.03-.04-.07-.06-.1-.11-.2-.54-1.36-.65-1.71-.11-.36-.86-2.2-.79-2.44.08-.26.19-.61-.35-.81-.22-.07-.39.04-.52.15-.05.04-.11.09-.16.11l-.07.03v.08c.33,2.32.04,4.76-.77,6.53-.12-.05-.26-.08-.41-.08-.41,0-.74.22-.85.55-.16.51.16.94.58,1.17-.12.3-.3.6-.48.88-.42.67-.91,1.82-.57,2.21.34.4.85.2.85.2l.04-.03c.6-.53.81-1.47,1.01-2.38.03-.15.07-.3.1-.43.23-.76.81-.92,1.61-.92.21,0,.43.01.65.02.22.01.45.02.67.02.42,0,.49-.01,1.12-.1.19.4.94,1.46,1.05,1.62.36.64.84,1.27.67,2.31,0,0,.78.48,1.27.08.49-.4.05-.88-.24-1.17Zm-6.09-3.83l.03-.13c.29-1.26.43-2.74.37-4.04l.2-.05c.76,1.6,1.37,2.98,2.21,4.18l.11.16-2.92-.13Z"></path><path class="cls-2" d="m55.78,35.63l-.45.02-.06-.28c.36-1.54.07-4.4.24-5.49v-.04s.04-.02.04-.02c.09-.07.29-.14.5-.16.26-.01.46.07.56.24v.03s.02.07.02.1c.02-.04.04-.07.06-.11.27-.68.64-1.36,1.48-1.74,0,0,.27-.03.39-.04.35-.02,1.06.21,1.34.63.28.42-.33.9-.65.91-.16,0-.82-.41-.98-.41-.27-.01-.78.28-.88.36-.16.12-.28.21-.33.38l-.15.24c-.05.12-.42.75-.47.88,0,0-.01.39-.04.93-.04.73-.37,3.24-.62,3.54l-.03.03Z"></path><path class="cls-2" d="m68.51,35.98c-1.18,0-2.2-.34-3.03-.68h-.04s-.02-.05-.02-.05c-.18-.29-.55-.46-.91-.62-.63-.28-1.34-.61-1-1.65l.02-.04c.08-.18.17-.38.38-.54l.06-.02c.18-.03.31.01.41.11.18.18.17.5.16.73,0,.03,0,.07,0,.1.99,1.15,2.11,2.2,3.53,2.2.28,0,.57-.04.87-.12.11-.04.21-.05.31-.06.21-.03.31-.04.37-.26,0-.3.05-.56.11-.82.08-.37.15-.68,0-1.02-.21-.45-.62-.54-1.16-.54-.14,0-.28,0-.42.01-.15,0-.29.01-.44.01-.4,0-.86-.04-1.21-.35-.71-.11-1.24-.52-1.44-1.12v-.04c-.01-.16-.03-.33-.06-.51-.09-.7-.19-1.5.64-1.94.32-.13.64-.2.98-.2s.68.06,1.03.13c.35.07.72.14,1.11.14h.09s.04.03.04.03c.04.03.09.05.14.07.1.04.25.1.31.24.6.02,1.02.54,1.35.97l.05.06v.03c.06.34-.06.72-.44.84-.06,0-.09,0-.12,0-.42,0-.56-.29-.67-.53-.11-.24-.2-.43-.54-.43h-.09l-.03-.08c-.18-.49-.58-.54-1.05-.59-.33-.04-.68-.08-.96-.29-.1-.03-.2-.04-.29-.04-.46,0-.73.33-1.01.68l-.06.07v.18c-.04.71-.06,1.23.55,1.65l.03.03c.07.09.27.1.41.1.1,0,.2,0,.3-.01.11,0,.22-.01.32-.01.24,0,.53.03.68.24.38.15.71.15,1.03.16.55,0,1.07.01,1.55.85l.02.03v.03c0,.2,0,.39,0,.58.01.45.02.91-.08,1.41v.06s-.06.03-.06.03c-.12.07-.18.17-.25.28-.09.15-.2.32-.47.43-.36.06-.69.09-1.02.09Z"></path><path class="cls-2" d="m33.3,28.87h-.1c-.12.02-.28.08-.44.15-.1.04-.19.08-.29.11-.2.06-.49.12-.7-.16v-.02c-.23-.55-.25-.97-.07-1.24.13-.21.52-.34.74-.23.43.21.7.94.79,1.06.11.14.07.34.07.34Z"></path></svg> 