<?xml version="1.0" encoding="UTF-8"?> <svg xmlns="http://www.w3.org/2000/svg" id="Layer_1" width="100" height="41.01" viewBox="0 0 100 41.01"><defs><style>.cls-1{fill:#fff;stroke-width:0px;}</style></defs><path class="cls-1" d="m0,5.41h3.49v7.75h7.35v-7.75h3.49v19.02h-3.49v-7.91H3.49v7.91H0V5.41Zm25.38,12.82c0,1.59-1.3,2.89-2.89,2.89s-2.89-1.3-2.89-2.89v-8.19h-3.31v8.19c0,3.42,2.78,6.19,6.2,6.19s6.19-2.78,6.19-6.19v-8.19h-3.31v8.19m12.54-8.09c-1.64,0-2.79.48-3.89,1.56v-6.29h-3.32v11.66c0,4.37,3.16,7.35,6.7,7.35,3.94,0,7.4-3.04,7.4-7.14s-3.18-7.14-6.89-7.14h0Zm.08,11.22c-2.25,0-3.97-1.88-3.97-4.07s1.72-4.07,3.97-4.07c1.9,0,3.62,1.88,3.62,4.07s-1.72,4.07-3.62,4.07Zm12.38-10.38c0-1.67,1.11-2.2,2.33-2.2.98,0,2.28.74,3.12,1.64l2.17-2.54c-1.08-1.45-3.28-2.46-5.08-2.46-3.6,0-6.19,2.09-6.19,5.56,0,6.43,7.91,4.39,7.91,7.99,0,1.11-1.08,2.09-2.33,2.09-1.96,0-2.59-.95-3.49-1.96l-2.41,2.49c1.54,1.88,3.44,2.83,5.71,2.83,3.41,0,6.16-2.12,6.16-5.42,0-7.14-7.91-4.92-7.91-8.01m16.64-1.02c-3.55,0-6.7,2.99-6.7,7.35v11.69h3.32v-6.32c1.11,1.08,2.25,1.56,3.89,1.56,3.7,0,6.89-3.09,6.89-7.14s-3.45-7.14-7.4-7.14h0Zm.59,11.22c-2.25,0-3.97-1.88-3.97-4.07s1.72-4.07,3.97-4.07c1.9,0,3.62,1.88,3.62,4.07s-1.72,4.07-3.62,4.07Zm31.23.19c-1.96,0-2.51-.85-2.51-2.14v-5.74h3.04v-2.91h-3.04v-3.84l-3.36,1.51v11.69c0,2.99,2.06,4.5,4.89,4.5.42,0,1.01-.03,1.32-.11l.82-3.02c-.37.03-.79.05-1.16.05"></path><path class="cls-1" d="m90.09,13.64c-.64-1.09-1.53-1.97-2.65-2.63-.84-.49-1.7-.8-2.68-.93v-3.48c.98-.41,1.58-1.33,1.58-2.4,0-1.46-1.17-2.64-2.63-2.64s-2.65,1.18-2.65,2.64c0,1.07.57,1.99,1.55,2.4v3.48c-.78.11-1.59.36-2.33.73-1.51-1.15-6.47-4.91-9.37-7.11.07-.25.12-.5.12-.77,0-1.62-1.31-2.93-2.93-2.93s-2.93,1.31-2.93,2.93,1.31,2.93,2.93,2.93c.55,0,1.06-.16,1.5-.43l.61.46,8.41,6.06c-.44.41-.86.87-1.19,1.39-.67,1.06-1.08,2.23-1.08,3.5v.27c0,.89.17,1.74.46,2.53.25.69.63,1.32,1.09,1.89l-2.79,2.8c-.83-.31-1.75-.1-2.38.52-.43.42-.66,1-.66,1.6,0,.6.24,1.17.66,1.6.42.43,1,.66,1.6.66.6,0,1.18-.24,1.6-.66.43-.42.66-1,.66-1.6,0-.23-.04-.46-.1-.68l2.88-2.88c.4.27.82.5,1.28.7.91.39,1.9.63,3,.63h.2c1.21,0,2.35-.28,3.42-.86,1.13-.61,2.01-1.45,2.68-2.53.67-1.07,1.04-2.26,1.04-3.57v-.07c0-1.29-.3-2.47-.92-3.56h0Zm-3.52,6.05c-.78.87-1.68,1.41-2.7,1.41h-.17c-.58,0-1.15-.16-1.71-.45-.63-.32-1.1-.78-1.49-1.36-.4-.57-.62-1.19-.62-1.85v-.2c0-.65.12-1.26.44-1.84.34-.63.79-1.13,1.39-1.52.59-.39,1.22-.58,1.93-.58h.07c.64,0,1.24.13,1.81.42.58.31,1.06.74,1.42,1.29.36.56.57,1.16.64,1.82.01.14.02.28.02.41,0,.89-.34,1.72-1.02,2.47h0Z"></path><path class="cls-1" d="m4.16,40.76c0,.05-.02.09-.06.1-.27.12-.69.15-1.16.15-1.56,0-2.94-.93-2.94-3.01,0-1.81,1.2-3.04,3.07-3.04.54,0,.88.04,1.09.14.04.02.05.04.05.1v.8c0,.06-.04.06-.07.05-.26-.13-.64-.19-1.09-.19-1.21,0-2,.81-2,2.09,0,1.62,1.12,2.14,2.01,2.14.42,0,.73-.04,1.03-.14.04,0,.06,0,.06.04v.75Z"></path><path class="cls-1" d="m10.26,40.86c0,.05-.03.07-.08.07h-3.39c-.06,0-.07-.02-.07-.07v-5.73c0-.05,0-.07.06-.07h3.29c.05,0,.07,0,.08.05l.09.78s0,.08-.06.08h-2.45v1.5h2.23s.06.02.06.06v.79c0,.05-.03.06-.07.06h-2.22v1.63h2.6c.05,0,.06.02.05.06l-.12.78Z"></path><path class="cls-1" d="m12.89,40.93c-.05,0-.06-.02-.06-.07v-5.72s0-.07.05-.07c.6-.02,1-.03,1.67-.03,1.37,0,2.2.61,2.2,1.74,0,.79-.51,1.33-1.13,1.56.29.41,1.33,2.02,1.59,2.5.03.04.04.09-.02.09h-1.03c-.07,0-.09-.02-.12-.04-.25-.41-.87-1.45-1.27-2.1-.06-.11-.11-.15-.21-.15h-.75v2.24s-.02.06-.06.06h-.86Zm1.68-3.17c.74,0,1.17-.35,1.17-.93,0-.61-.46-.92-1.22-.92-.29,0-.56.02-.7.03v1.81h.75Z"></path><path class="cls-1" d="m20.56,35.97h-1.73s-.05-.03-.04-.07l.11-.78s.03-.06.08-.06h4.23c.05,0,.07.02.08.07l.08.76c0,.05-.02.08-.06.08h-1.72v4.88c0,.05-.03.08-.07.08h-.86c-.05,0-.08-.02-.08-.07v-4.89Z"></path><path class="cls-1" d="m26.42,40.86c0,.05-.02.07-.06.07h-.88c-.05,0-.06-.02-.06-.07v-5.74c0-.05.02-.06.06-.06h.88s.06.02.06.06v5.74Z"></path><path class="cls-1" d="m30.35,40.86c0,.05-.02.07-.06.07h-.89s-.05-.03-.05-.07v-5.74s0-.06.05-.06h3.3s.06,0,.07.06l.08.78c0,.05,0,.07-.06.07h-2.44v1.63h2.19s.06.02.06.06v.79s-.02.06-.06.06h-2.19v2.34Z"></path><path class="cls-1" d="m36.23,40.86c0,.05-.02.07-.06.07h-.88c-.05,0-.06-.02-.06-.07v-5.74c0-.05.02-.06.06-.06h.88s.06.02.06.06v5.74Z"></path><path class="cls-1" d="m42.7,40.86c0,.05-.03.07-.08.07h-3.39c-.06,0-.07-.02-.07-.07v-5.73c0-.05,0-.07.06-.07h3.29c.05,0,.07,0,.08.05l.09.78s0,.08-.06.08h-2.45v1.5h2.23s.06.02.06.06v.79c0,.05-.03.06-.07.06h-2.22v1.63h2.6c.05,0,.06.02.05.06l-.12.78Z"></path><path class="cls-1" d="m45.07,35.14s0-.06.05-.07c.24,0,.83-.03,1.59-.03,2.01,0,3.04,1.18,3.04,2.85,0,2.25-1.65,3.06-3.07,3.06-.52,0-1.28,0-1.56-.02-.04,0-.04-.03-.04-.08v-5.71Zm1.01,4.91c.17,0,.36.02.57.02,1.2,0,2.05-.74,2.05-2.16,0-1.36-.84-1.99-1.99-1.99-.23,0-.42,0-.63.02v4.11Z"></path><path class="cls-1" d="m55.69,35.13s0-.06.04-.06c.34-.02.95-.03,1.56-.03,1.65,0,2.31.92,2.31,1.92,0,1.4-1.07,2.02-2.38,2.02h-.53v1.89s-.02.06-.07.06h-.88s-.05-.02-.05-.06v-5.74Zm1.01,2.95c.14,0,.26,0,.53,0,.75,0,1.37-.27,1.37-1.1,0-.67-.47-1.07-1.28-1.07-.29,0-.53.02-.63.03v2.14Z"></path><path class="cls-1" d="m63.11,39.32l-.49,1.54s-.04.06-.09.06h-.83c-.06,0-.08-.03-.06-.08l1.77-5.28c.03-.09.05-.17.06-.46,0-.04.02-.05.05-.05h1.17s.05,0,.06.04l1.97,5.76s0,.07-.04.07h-.93s-.06-.02-.08-.05l-.51-1.55h-2.04Zm1.78-.92c-.18-.6-.6-1.87-.76-2.5h0c-.14.59-.48,1.65-.75,2.5h1.52Z"></path><path class="cls-1" d="m69.1,40.93c-.05,0-.06-.02-.06-.07v-5.72s0-.07.05-.07c.6-.02,1-.03,1.67-.03,1.37,0,2.2.61,2.2,1.74,0,.79-.51,1.33-1.13,1.56.29.41,1.33,2.02,1.59,2.5.03.04.04.09-.02.09h-1.03c-.07,0-.09-.02-.12-.04-.25-.41-.87-1.45-1.27-2.1-.06-.11-.11-.15-.21-.15h-.75v2.24s-.02.06-.06.06h-.86Zm1.68-3.17c.74,0,1.17-.35,1.17-.93,0-.61-.46-.92-1.22-.92-.29,0-.56.02-.7.03v1.81h.75Z"></path><path class="cls-1" d="m76.93,35.97h-1.73s-.05-.03-.04-.07l.11-.78s.03-.06.08-.06h4.23c.05,0,.07.02.08.07l.08.76c0,.05-.02.08-.06.08h-1.72v4.88c0,.05-.03.08-.07.08h-.86c-.05,0-.08-.02-.08-.07v-4.89Z"></path><path class="cls-1" d="m82.08,40.93c-.05,0-.07,0-.07-.07v-5.74s0-.06.05-.06h1.18c.06,0,.07,0,.1.06.64,1.18,1.99,3.78,2.28,4.43h0c0-.26-.03-.61-.03-1.4v-3.02c0-.05.02-.07.07-.07h.81c.05,0,.07.02.07.07v5.72c0,.06-.02.08-.09.08h-1.05c-.06,0-.09,0-.12-.06-.44-.92-2.06-3.87-2.38-4.71h0c.04.43.04.87.04,1.66v3.04c0,.05-.02.07-.06.07h-.81Z"></path><path class="cls-1" d="m93.03,40.86c0,.05-.03.07-.08.07h-3.39c-.06,0-.07-.02-.07-.07v-5.73c0-.05,0-.07.06-.07h3.29c.05,0,.07,0,.08.05l.09.78s0,.08-.06.08h-2.45v1.5h2.23s.06.02.06.06v.79c0,.05-.03.06-.07.06h-2.22v1.63h2.6c.05,0,.06.02.05.06l-.12.78Z"></path><path class="cls-1" d="m95.66,40.93c-.05,0-.06-.02-.06-.07v-5.72s0-.07.05-.07c.6-.02,1-.03,1.67-.03,1.37,0,2.2.61,2.2,1.74,0,.79-.51,1.33-1.13,1.56.29.41,1.33,2.02,1.59,2.5.03.04.04.09-.02.09h-1.03c-.07,0-.09-.02-.12-.04-.25-.41-.87-1.45-1.27-2.1-.06-.11-.11-.15-.21-.15h-.75v2.24s-.02.06-.06.06h-.86Zm1.68-3.17c.74,0,1.17-.35,1.17-.93,0-.61-.46-.92-1.22-.92-.29,0-.56.02-.7.03v1.81h.75Z"></path></svg> 