<?xml version="1.0" encoding="UTF-8"?> <svg xmlns="http://www.w3.org/2000/svg" id="Layer_2" width="600" height="400" viewBox="0 0 600 400"><defs><style>.cls-1{fill:#3a357e;stroke-width:0px;}</style></defs><path class="cls-1" d="m61.38,247.16l24.66-6.12s-10.62-71.76-10.68-72.24c-.06-.48-.48-.78-.84-.78s-7.32-.12-7.32-.12c0,0-4.2-4.08-5.82-5.64v84.96-.06Z"></path><path class="cls-1" d="m58.68,161.36s-1.08.36-2.94.9c-.3-.96-.78-2.22-1.38-3.42-2.04-3.96-5.1-6-8.76-6.06h-.78c-.12-.12-.24-.24-.3-.36-1.56-1.62-3.6-2.46-6.06-2.4-4.74.12-9.42,3.54-13.26,9.6-2.7,4.26-4.74,9.6-5.28,13.74-5.4,1.68-9.24,2.88-9.3,2.88-2.76.84-2.82.96-3.18,3.54-.24,1.92-7.44,57.3-7.44,57.3l59.4,10.26v-86.1s-.54.06-.72.12Zm-13.74,4.26c-3.12.96-6.6,2.04-10.02,3.12.96-3.72,2.82-7.38,5.04-9.84.84-.9,2.04-1.92,3.42-2.46,1.32,2.7,1.62,6.6,1.56,9.18Zm-6.42-12.48c1.08,0,2.04.24,2.82.72-1.26.66-2.52,1.62-3.66,2.88-3,3.24-5.28,8.22-6.24,13.02-2.88.9-5.64,1.74-8.22,2.52,1.62-7.56,7.98-18.96,15.3-19.2v.06Zm-9.18,43.2c.3,5.04,13.62,6.18,14.34,18,.6,9.3-4.92,15.66-12.9,16.2-9.54.6-14.82-5.04-14.82-5.04l2.04-8.64s5.28,4.02,9.54,3.72c2.76-.18,3.78-2.4,3.66-4.02-.42-6.6-11.22-6.18-11.94-17.04-.6-9.12,5.4-18.36,18.6-19.2,5.1-.3,7.68.96,7.68.96l-3,11.28s-3.36-1.56-7.38-1.26c-5.88.36-5.94,4.08-5.88,4.98l.06.06Zm18.78-31.74c0-2.4-.3-5.7-1.44-8.58,3.6.66,5.34,4.74,6.12,7.14-1.38.42-2.94.9-4.68,1.44Z"></path><path class="cls-1" d="m355.86,247.82l8.34-44.4c1.02-5.58,1.8-10.5,2.34-14.34h3.54l-1.32,8.4h.18c3.72-5.64,8.94-9.3,14.52-9.3,7.92,0,10.86,6.78,10.86,13.56,0,14.1-9.66,29.88-22.92,29.88-4.08,0-6.78-.96-8.34-1.8h-.18l-3.3,18s-3.72,0-3.72,0Zm7.8-21.78c1.92,1.5,4.68,2.34,8.1,2.34,11.04,0,18.66-15.66,18.66-26.34,0-4.98-1.92-10.44-8.1-10.44s-13.62,7.44-15.96,20.04l-2.7,14.34v.06Z"></path><path class="cls-1" d="m423.06,230.78c-.06-2.52.42-6.42,1.02-11.22h-.18c-4.8,9.18-10.08,12.06-15.54,12.06-6.3,0-10.14-5.22-10.14-12.66,0-14.16,10.14-30.72,26.34-30.72,2.94,0,6.24.54,8.4,1.2l-4.44,22.5c-1.5,7.74-1.98,14.4-1.8,18.84,0,0-3.66,0-3.66,0Zm5.58-38.58c-.96-.36-2.46-.6-5.04-.6-12,0-21.36,13.38-21.48,26.52-.06,5.4,1.5,10.26,7.14,10.26,6.78,0,14.4-10.14,16.44-20.94l2.94-15.18v-.06Z"></path><path class="cls-1" d="m436.56,230.78l5.28-28.08c1.02-5.28,1.68-9.96,1.98-13.62h3.48c-.36,2.7-.72,5.46-1.2,9.06h.18c2.58-5.58,6.66-9.9,11.88-9.9.54,0,1.02.06,1.56.18l-.72,3.9c-.48-.12-.96-.18-1.5-.18-5.46,0-11.58,8.28-13.32,17.46l-3.9,21.18h-3.84.12Z"></path><path class="cls-1" d="m475.56,179.9l-1.8,9.18h9.84l-.72,3.24h-9.84l-4.62,24.84c-.54,2.76-.84,4.98-.84,7.2,0,2.46,1.14,3.9,3.72,3.9,1.38,0,2.28-.06,3.06-.36l.24,3.06c-1.32.42-2.7.6-4.08.6-4.98,0-6.84-3.3-6.84-6.78,0-2.28.24-4.44.96-7.62l4.68-24.84h-6l.6-3.24h6.06l1.38-7.44s4.2-1.74,4.2-1.74Z"></path><path class="cls-1" d="m482.58,230.78l5.58-29.46c.84-4.02,1.5-8.16,1.92-12.24h3.48l-1.14,8.52h.18c3.66-6.06,8.88-9.36,14.52-9.36,4.08,0,9.3,2.58,9.3,10.5,0,2.1-.36,4.14-.78,6.42l-4.8,25.62h-3.72l4.86-25.62c.36-1.98.6-4.02.6-6.06,0-4.32-1.74-7.44-6.84-7.44-5.58,0-13.38,6.96-15.18,17.04l-4.08,22.14h-3.84l-.06-.06Z"></path><path class="cls-1" d="m546.96,228.44c-2.16,1.38-6.18,3.12-11.4,3.12-9.72,0-13.14-7.62-13.14-15.66,0-12,8.34-27.72,20.34-27.72,6.84,0,9.72,4.5,9.72,9.12,0,10.62-12.12,13.56-25.8,13.44-.42,1.92-.48,7.38.36,10.32,1.5,4.8,4.68,7.02,9.12,7.02s7.74-1.68,9.66-2.76l1.14,3.06v.06Zm-4.86-36.84c-6.42,0-12.24,6.96-14.76,15.9,10.86.06,21.3-1.74,21.3-10.02,0-3.9-2.58-5.88-6.54-5.88Z"></path><path class="cls-1" d="m554.58,230.78l5.28-28.08c1.02-5.28,1.62-9.96,1.98-13.62h3.48c-.36,2.7-.72,5.46-1.2,9.06h.18c2.58-5.58,6.66-9.9,11.88-9.9.54,0,1.08.06,1.56.18l-.72,3.9c-.48-.12-.96-.18-1.5-.18-5.46,0-11.58,8.28-13.26,17.46l-3.9,21.18h-3.84.06Z"></path><path class="cls-1" d="m576.06,225.92c2.22,1.44,4.74,2.22,7.38,2.28,5.46,0,9.12-3.9,9.12-8.58,0-4.2-1.74-6.66-5.64-9.18-4.08-2.7-6.36-6.42-6.36-10.26,0-6.54,5.22-11.88,12.48-11.88,2.88,0,5.76.96,6.96,1.92l-1.38,3.24c-1.32-.78-3.54-1.74-6-1.74-5.04,0-8.34,3.48-8.34,7.8,0,3.9,2.16,6.06,5.64,8.34,4.02,2.7,6.42,6.54,6.42,10.68,0,8.4-6.18,13.14-13.26,13.14-3.72,0-7.02-1.38-8.4-2.52l1.38-3.12v-.12Z"></path><path class="cls-1" d="m121.26,205.46c-3-1.62-4.56-3-4.56-4.92,0-2.4,2.16-3.96,5.52-3.96,3.9,0,7.38,1.62,7.38,1.62l2.76-8.46s-2.52-1.98-10.02-1.98c-10.38,0-17.58,5.94-17.58,14.28,0,4.74,3.36,8.34,7.86,10.92,3.6,2.04,4.92,3.54,4.92,5.7s-1.8,4.02-5.16,4.02c-4.98,0-9.72-2.58-9.72-2.58l-2.94,8.46s4.38,2.94,11.7,2.94c10.68,0,18.36-5.28,18.36-14.76,0-5.1-3.84-8.7-8.52-11.4v.12Z"></path><path class="cls-1" d="m163.86,187.76c-5.28,0-9.42,2.52-12.6,6.3h-.18l4.56-23.94h-11.88l-11.52,60.72h11.88l3.96-20.76c1.56-7.86,5.58-12.66,9.42-12.66,2.64,0,3.72,1.8,3.72,4.38,0,1.74-.18,3.54-.54,5.28l-4.5,23.76h11.88l4.68-24.54c.54-2.58.78-5.16.84-7.74,0-6.72-3.54-10.8-9.72-10.8h0Z"></path><path class="cls-1" d="m200.46,187.76c-14.28,0-23.76,12.96-23.76,27.3,0,9.24,5.7,16.62,16.38,16.62,14.04,0,23.52-12.6,23.52-27.3,0-8.52-4.98-16.62-16.14-16.62h0Zm-5.88,34.8c-4.02,0-5.76-3.42-5.76-7.74,0-6.78,3.54-17.94,10.02-17.94,4.2,0,5.58,3.6,5.58,7.14,0,7.32-3.54,18.54-9.84,18.54h0Z"></path><path class="cls-1" d="m246.96,187.76c-8.04,0-12.6,7.08-12.6,7.08h-.18l.66-6.36h-10.5c-.48,4.32-1.44,10.86-2.4,15.78l-8.28,43.5h11.88l3.3-17.58h.24s2.46,1.56,6.96,1.56c13.98,0,23.1-14.28,23.1-28.8,0-8.04-3.54-15.18-12.24-15.18h.06Zm-11.34,34.98c-1.8,0-3.54-.6-4.92-1.74l1.98-11.1c1.38-7.38,5.28-12.3,9.36-12.3,3.6,0,4.74,3.36,4.74,6.54,0,7.68-4.56,18.6-11.22,18.6h.06Z"></path><path class="cls-1" d="m276.18,170.66c-.9,0-1.8.18-2.64.54s-1.56.84-2.22,1.5-1.14,1.38-1.44,2.22c-.36.84-.48,1.74-.48,2.64,0,3.54,2.22,5.94,5.58,5.94h.18c3.72,0,6.9-2.52,6.96-6.9,0-3.42-2.34-5.94-5.94-5.94Z"></path><path class="cls-1" d="m259.56,230.84h11.88l8.1-42.12h-12l-8.04,42.12h.06Z"></path><path class="cls-1" d="m309.78,188.6h-8.28l.42-1.98c.66-4.02,3.12-7.68,7.08-7.68,1.26,0,2.58.18,3.78.6l2.34-9.3s-2.04-1.02-6.48-1.02-8.46,1.2-11.64,3.96c-4.08,3.42-5.94,8.46-6.9,13.44l-.36,1.98h-5.52l-1.74,8.94h5.52l-6.3,33.24h11.88l6.3-33.24h8.16l1.62-8.94h.12Z"></path><path class="cls-1" d="m338.34,188.72s-7.44,18.72-10.74,28.92h-.18c-.24-3.3-2.94-28.92-2.94-28.92h-12.48l7.14,38.7c.18.84.06,1.38-.24,1.98-1.38,2.7-3.72,5.28-6.48,7.14-2.22,1.62-4.74,2.7-6.72,3.36l3.3,10.08c2.4-.48,7.38-2.52,11.64-6.48,5.4-5.1,10.44-12.9,15.6-23.58l14.58-31.2h-12.48Z"></path></svg> 