<?xml version="1.0" encoding="utf-8"?>
<!-- Generator: Adobe Illustrator 22.1.0, SVG Export Plug-In . SVG Version: 6.00 Build 0)  -->
<svg version="1.1" id="Layer_1" xmlns="http://www.w3.org/2000/svg" xmlns:xlink="http://www.w3.org/1999/xlink" x="0px" y="0px"
	 viewBox="0 0 103 32" style="enable-background:new 0 0 103 32;" xml:space="preserve">
<style type="text/css">
	.st0{fill:#185F7D;}
</style>
<g>
	<path class="st0" d="M7.98,32h2.4V19.2h-2.4V32z M16.77,31.81h2.15v-8.08L27.95,32V19.39h-2.14v7.94l-9.04-8.13V31.81z
		 M32.85,28.71c1.17,0.91,2.57,1.44,4.07,1.44c1.46,0,2.49-0.5,2.49-1.62c0-0.97-0.65-1.35-1.8-1.77l-1.86-0.65
		c-1.71-0.61-3.01-1.5-3.01-3.54c0-2.18,1.97-3.37,4.33-3.37c1.44,0,2.76,0.36,3.79,1.01v2.17c-1.07-0.79-2.24-1.33-3.74-1.33
		c-1.29,0-2.26,0.48-2.26,1.49c0,0.91,0.61,1.27,1.68,1.64l2.07,0.73c2.01,0.7,2.92,1.8,2.92,3.6c0,2.26-1.99,3.51-4.6,3.51
		c-1.72,0-3.17-0.48-4.07-1.09C32.85,30.91,32.85,28.71,32.85,28.71z M47.11,32h2.4V19.2h-2.4V32z M60.74,30.06
		c2.7,0,4.14-1.73,4.14-4.47c0-2.75-1.44-4.48-4.14-4.48h-2.67v8.95C58.07,30.06,60.74,30.06,60.74,30.06z M55.89,19.2h4.93
		c3.79,0,6.25,2.5,6.25,6.4c0,3.9-2.45,6.4-6.25,6.4h-4.93V19.2z M79.05,19.2v1.92h-5.8v3.08h5.2v1.9h-5.2v3.97h5.8V32h-7.99V19.2
		H79.05z M87.55,25h2.38c1.41,0,2.2-0.77,2.2-1.96s-0.79-1.96-2.2-1.96h-2.38V25L87.55,25z M87.55,26.81V32h-2.11V19.2h4.53
		c2.58,0,4.26,1.33,4.26,3.84c0,2.14-0.93,3.37-2.9,3.69l4.5,5.27h-2.41l-4.35-5.19L87.55,26.81L87.55,26.81z M7.15,6.59
		C8.08,6.25,8.81,5.22,8.81,3.8c0-2.36-1.67-3.58-4.33-3.58H0v13.16h4.9c2.67,0,4.33-1.31,4.33-3.77C9.23,8.22,8.35,7,7.15,6.59z
		 M2.1,5.75v-3.6h2.36c1.48,0,2.27,0.54,2.27,1.78S5.94,5.75,4.46,5.75C4.46,5.75,2.1,5.75,2.1,5.75z M2.1,7.6h2.75
		c1.46,0,2.25,0.73,2.25,1.93c0,1.18-0.79,1.93-2.25,1.93H2.1L2.1,7.6L2.1,7.6z M19,13.6c3.06,0,5.13-1.84,5.13-5.44V0.22h-2.17V7.9
		c0,2.53-1.04,3.71-2.96,3.71s-2.96-1.18-2.96-3.71V0.22h-2.17v7.91C13.88,11.76,15.96,13.6,19,13.6z M29.23,12.44
		c0.9,0.64,2.35,1.16,4.06,1.16c2.6,0,4.58-1.33,4.58-3.73c0-1.91-0.92-3.07-2.92-3.82L32.9,5.28c-1.06-0.38-1.67-0.77-1.67-1.74
		c0-1.07,0.96-1.59,2.25-1.59c1.5,0,2.67,0.58,3.73,1.41v-2.3c-1.02-0.69-2.33-1.07-3.77-1.07c-2.35,0-4.31,1.26-4.31,3.58
		c0,2.16,1.29,3.11,3,3.75l1.85,0.69c1.15,0.45,1.79,0.86,1.79,1.89c0,1.18-1.02,1.72-2.48,1.72c-1.5,0-2.9-0.56-4.06-1.52
		C29.23,10.11,29.23,12.44,29.23,12.44z M45.62,0.22h-2.17v13.16h2.17V0.22z M51.81,13.37h2.09V4.81l8.79,8.77V0.2H60.6v8.42
		L51.81,0C51.81,0,51.81,13.37,51.81,13.37z M76.22,0.23V2.2H70.6v3.17h5.04v1.95H70.6v4.08h5.63v1.99h-7.75V0.23H76.22z
		 M81.27,12.43c0.9,0.64,2.35,1.16,4.06,1.16c2.6,0,4.58-1.33,4.58-3.73C89.91,7.95,89,6.8,87,6.05l-2.06-0.77
		c-1.06-0.39-1.67-0.77-1.67-1.74c0-1.07,0.96-1.59,2.25-1.59c1.5,0,2.67,0.58,3.73,1.41V1.07C88.23,0.39,86.91,0,85.47,0
		c-2.35,0-4.31,1.26-4.31,3.58c0,2.16,1.29,3.11,3,3.75l1.86,0.69c1.15,0.45,1.79,0.86,1.79,1.89c0,1.18-1.02,1.72-2.48,1.72
		c-1.5,0-2.9-0.56-4.06-1.52C81.27,10.1,81.27,12.43,81.27,12.43z M94.35,12.43c0.9,0.64,2.36,1.16,4.06,1.16
		c2.61,0,4.58-1.33,4.58-3.73c0-1.91-0.92-3.07-2.92-3.82l-2.06-0.77c-1.06-0.39-1.67-0.77-1.67-1.74c0-1.07,0.96-1.59,2.25-1.59
		c1.5,0,2.67,0.58,3.73,1.41V1.07C101.31,0.39,100,0,98.56,0c-2.36,0-4.31,1.26-4.31,3.58c0,2.16,1.29,3.11,3,3.75l1.86,0.69
		c1.15,0.45,1.79,0.86,1.79,1.89c0,1.18-1.02,1.72-2.48,1.72c-1.5,0-2.9-0.56-4.06-1.52C94.35,10.1,94.35,12.43,94.35,12.43z"/>
</g>
</svg>
