<?xml version="1.0" encoding="utf-8"?>
<!-- Generator: Adobe Illustrator 22.1.0, SVG Export Plug-In . SVG Version: 6.00 Build 0)  -->
<svg version="1.1" xmlns="http://www.w3.org/2000/svg" xmlns:xlink="http://www.w3.org/1999/xlink" x="0px" y="0px"
	 viewBox="0 0 144 144" style="enable-background:new 0 0 144 144;" xml:space="preserve">
<style type="text/css">
	.st0{display:none;}
	.st1{fill:#CC191B;}
	.st2{fill:none;}
	.st3{fill:#21211F;}
	.st4{fill:#636362;}
</style>
<g id="Layer_2" class="st0">
	
		<image style="display:inline;overflow:visible;" width="396" height="378" xlink:href="../../../../Users/Chey/Desktop/Screen Shot 2018-07-25 at 7.30.53 PM.png"  transform="matrix(1.3851 0 0 1.3851 -205.5 -188)">
	</image>
</g>
<g id="Layer_1">
	<path class="st1" d="M144,144H0L0,0l144,0L144,144z M136.78,7.92H7.94v128.85h128.85V7.92z"/>
	<path class="st2" d="M83.27,54.06c3.34-0.07,6.69,0.04,10.01-0.27c2.58-0.24,4.89-1.45,6.29-3.79c3.23-5.43,0.39-11.59-5.93-12.53
		c-3.1-0.46-6.29-0.27-9.44-0.38c0.02,0.38,0.02,0.76,0.06,1.14C84.89,43.56,84.73,48.85,83.27,54.06z"/>
	<path class="st2" d="M54.01,37.68c-4.05-1.44-8.23-0.52-12.4-0.82c0,5.85,0,11.51,0,17.34c2.36,0,4.47,0.11,6.57-0.03
		c1.84-0.12,3.71-0.35,5.48-0.84c2.67-0.73,5.68-3.27,5.79-7.37C59.58,41.36,57.35,38.86,54.01,37.68z"/>
	<path class="st2" d="M83.27,54.06c3.34-0.07,6.69,0.04,10.01-0.27c2.58-0.24,4.89-1.45,6.29-3.79c3.23-5.43,0.39-11.59-5.93-12.53
		c-3.1-0.46-6.29-0.27-9.44-0.38c-0.04-0.11-0.07-0.23-0.11-0.34C85.87,44.2,84.55,49.51,83.27,54.06z"/>
	<path class="st2" d="M54.01,37.68c-4.05-1.44-12.4-0.82-12.4-0.82s0,11.51,0,17.34c2.36,0,4.47,0.11,6.57-0.03
		c1.84-0.12,3.71-0.35,5.48-0.84c2.67-0.73,5.68-3.27,5.79-7.37C59.58,41.36,57.35,38.86,54.01,37.68z"/>
	<path class="st3" d="M14.23,103.06c2.95,0,5.67,0,8.4,0c0.79,0,0.84,0.58,1.01,1.15c1,3.48,2.03,6.95,3.04,10.43
		c0.11,0.02,0.22,0.05,0.32,0.07c1.29-3.83,2.57-7.67,3.88-11.56c2.53,0,5,0,7.55,0c1.32,3.93,2.62,7.81,4.03,12.03
		c1.25-4.24,2.41-8.14,3.57-12.07c2.89,0,5.71,0,8.88,0c-2.79,8.68-5.54,17.27-8.32,25.91c-2.5,0-4.98,0-7.61,0
		c-1.39-3.96-2.79-7.96-4.2-11.95c-0.11-0.04-0.22-0.07-0.33-0.11c-1.43,4.03-2.86,8.05-4.29,12.08c-2.56,0-5,0-7.58,0
		C19.83,120.48,17.06,111.87,14.23,103.06z"/>
	<path class="st3" d="M56.4,128.82c0-8.58,0-17.09,0-25.69c7.19,0,14.33,0,21.58,0c0,2.27,0,4.54,0,6.99c-4.3,0-8.63,0-13.09,0
		c0,0.9,0,1.64,0,2.59c4.03,0,8.07,0,12.2,0c0,2.2,0,4.19,0,6.32c-4.02,0-8.03,0-12.18,0c0,0.94,0,1.76,0,2.73
		c4.43,0,8.82,0,13.28,0c0,2.43,0,4.7,0,7.06C70.92,128.82,63.7,128.82,56.4,128.82z"/>
	<path class="st3" d="M102.42,128.85c-7.31,0-14.48,0-21.76,0c0-8.57,0-17.08,0-25.69c7.19,0,14.35,0,21.59,0c0,2.32,0,4.59,0,7.04
		c-4.39,0-8.73,0-13.15,0c0,0.9,0,1.64,0,2.54c4.09,0,8.09,0,12.21,0c0,2.14,0,4.13,0,6.23c-4.03,0-8.08,0-12.22,0
		c0,0.94,0,1.78,0,2.77c4.46,0,8.85,0,13.33,0C102.42,124.16,102.42,126.44,102.42,128.85z"/>
	<path class="st3" d="M130.58,103.12h-8.75l-8.53,9.03v-9.03h-8.43v25.7h8.49l-0.02-4.06l2.55-3.24l4.63,7.33
		c0,0,6.78,0.04,10.22,0.04c-3.1-4.99-6.06-9.75-9.05-14.57C124.61,110.65,127.49,107.02,130.58,103.12z"/>
	<g>
		<path class="st2" d="M54.01,37.68c-4.05-1.44-12.4-0.82-12.4-0.82s0,11.51,0,17.34c2.36,0,4.47,0.11,6.57-0.03
			c1.84-0.12,3.71-0.35,5.48-0.84c2.67-0.73,5.68-3.27,5.79-7.37C59.58,41.36,57.35,38.86,54.01,37.68z"/>
		<path class="st4" d="M54.18,16.43c-12.19-0.03-24.37-0.01-36.56-0.01c-0.45,0-0.91,0.05-1.38,0.08c0,27.33,0,54.48,0,81.72
			c8.4,0,16.77,0,25.33,0c0-8.58,0-25.7,0-25.7l18.04-0.28V16.72C57.8,16.62,55.99,16.44,54.18,16.43z M53.66,53.32
			c-1.77,0.49-3.64,0.72-5.48,0.84c-2.1,0.14-4.21,0.03-6.57,0.03c0-5.83,0-17.34,0-17.34s8.35-0.62,12.4,0.82
			c3.34,1.19,5.73,3.63,5.6,8.22C59.5,50,56.33,52.59,53.66,53.32z"/>
	</g>
	<path class="st2" d="M83.54,54.06c1.28,0,6.82,0.01,9.74-0.27c2.58-0.24,4.89-1.45,6.29-3.79c3.23-5.43,0.39-11.59-5.93-12.53
		c-2.82-0.42-8.34-0.39-9.3-0.38c0.44,2.02,0.68,4.25,0.68,6.69C85.03,47.73,84.48,51.13,83.54,54.06z"/>
	<path class="st1" d="M112.46,68.05c0.46-0.29,0.84-0.55,1.24-0.8c4.59-2.87,8.13-6.65,10.19-11.71c2.64-6.5,2.78-13.17,1.18-19.93
		c-1.74-7.35-6.23-12.46-12.94-15.68c-5.3-2.54-10.99-3.48-16.81-3.52c-11.05-0.08-35.71-0.11-35.71-0.11v0.41l0,0l0.01,0.01
		c0.27,0.02,20.7,1.81,24.72,20.36c0.96-0.01,6.47-0.04,9.3,0.38c6.32,0.94,9.15,7.1,5.93,12.53c-1.4,2.35-3.71,3.55-6.29,3.79
		c-2.92,0.28-8.46,0.27-9.74,0.27c-5.43,17.05-23.93,18.17-23.93,18.17v26.14c0,0,15.65,0,23.53,0c0-8.63,0-17.14,0-25.71
		c1.33,0,2.52,0,3.83,0c4.51,8.56,9.05,17.18,13.57,25.76c9.67,0,19.25,0,29.07,0C123.85,88.23,118.18,78.18,112.46,68.05z"/>
	<path class="st3" d="M84.34,37.09c-4.02-18.55-24.45-20.34-24.72-20.36c0,0-0.01,0-0.01,0l0,55.52h0c0,0,18.5-1.12,23.93-18.17
		c0.93-2.93,1.48-6.33,1.48-10.29C85.03,41.33,84.78,39.11,84.34,37.09z"/>
</g>
</svg>
