<?xml version="1.0" encoding="utf-8"?>
<!-- Generator: Adobe Illustrator 22.1.0, SVG Export Plug-In . SVG Version: 6.00 Build 0)  -->
<svg version="1.1" id="Layer_1" xmlns="http://www.w3.org/2000/svg" xmlns:xlink="http://www.w3.org/1999/xlink" x="0px" y="0px"
	 viewBox="0 0 348.38 180.76" style="enable-background:new 0 0 348.38 180.76;" xml:space="preserve">
<style type="text/css">
	.st0{fill:#231F20;}
	.st1{fill:#00A4E7;}
</style>
<g>
	<path class="st0" d="M201.96,109.69l-0.61-1.43h-2.48l-0.61,1.43h-1.1l2.89-6.36h0.15l2.88,6.36H201.96 M200.11,105.31l-0.89,2.1
		H201L200.11,105.31z"/>
	<path class="st0" d="M261.15,109.79c-1.98,0-3.38-1.37-3.38-3.23c0-1.86,1.42-3.24,3.38-3.24c0.78,0,1.49,0.25,2.02,0.57
		l-0.37,0.91c-0.5-0.29-1.11-0.48-1.67-0.48c-1.38,0-2.21,0.92-2.21,2.24c0,1.32,0.86,2.23,2.24,2.23c0.55,0,1.21-0.2,1.71-0.5
		l0.33,0.91C262.67,109.54,261.93,109.79,261.15,109.79"/>
	<path class="st0" d="M267.51,109.79c-1.81,0-3.14-1.38-3.14-3.23c0-1.86,1.39-3.24,3.2-3.24c1.81,0,3.14,1.38,3.14,3.24
		C270.71,108.42,269.33,109.79,267.51,109.79 M267.55,104.28c-1.2,0-2.03,0.97-2.03,2.28c0,1.3,0.83,2.28,2.03,2.28
		c1.19,0,2.02-0.98,2.02-2.28C269.57,105.25,268.74,104.28,267.55,104.28"/>
	<polyline class="st0" points="277.43,109.69 277.34,105.94 275.36,108.93 275.23,108.93 273.24,105.93 273.17,109.69 
		272.12,109.69 272.39,103.34 272.55,103.33 275.33,107.49 278.04,103.33 278.21,103.34 278.48,109.69 277.43,109.69 	"/>
	<path class="st0" d="M282.25,107.67c-0.21,0-0.42-0.02-0.62-0.03v2.04h-1.07v-6.21c0.55-0.07,1.08-0.1,1.59-0.1
		c1.72,0,2.6,0.94,2.6,2.11C284.75,106.76,283.85,107.67,282.25,107.67 M282.33,104.36c-0.24,0-0.48,0.02-0.7,0.05v2.29
		c0.21,0.01,0.41,0.03,0.59,0.03c0.97,0,1.42-0.5,1.42-1.21C283.64,104.91,283.2,104.36,282.33,104.36"/>
	<polyline class="st0" points="302.61,107.06 302.61,109.69 301.55,109.69 301.55,107.05 299.34,103.42 300.56,103.42 302.1,106.07 
		303.63,103.42 304.82,103.42 302.61,107.06 	"/>
	<path class="st0" d="M289.97,109.69l-0.61-1.43h-2.48l-0.61,1.43h-1.11l2.89-6.35h0.15l2.88,6.35H289.97 M288.12,105.31l-0.89,2.1
		h1.78L288.12,105.31z"/>
	<polyline class="st0" points="297.72,109.81 293.79,105.67 293.79,109.69 292.72,109.69 292.72,103.34 292.9,103.3 296.77,107.38 
		296.77,103.42 297.83,103.42 297.83,109.79 297.72,109.81 	"/>
	<path class="st0" d="M212.86,106.37v2.73c-0.67,0.44-1.4,0.69-2.34,0.69c-1.79,0-3.33-1.3-3.33-3.23c0-1.95,1.56-3.24,3.33-3.24
		c0.92,0,1.58,0.25,2.22,0.65l-0.49,0.85c-0.5-0.32-1.1-0.52-1.68-0.52c-1.43,0-2.24,1.01-2.24,2.26c0,1.33,0.99,2.28,2.23,2.28
		c0.54,0,0.9-0.09,1.27-0.3v-1.24h-1.46v-0.94H212.86"/>
	<path class="st0" d="M218.88,109.69l-0.61-1.43h-2.48l-0.61,1.43h-1.1l2.89-6.35h0.15l2.88,6.35H218.88 M217.03,105.31l-0.89,2.1
		h1.78L217.03,105.31z"/>
	<polyline class="st0" points="226.63,109.81 222.7,105.67 222.7,109.69 221.63,109.69 221.63,103.34 221.8,103.3 225.67,107.38 
		225.67,103.42 226.75,103.42 226.75,109.79 226.63,109.81 	"/>
	<polyline class="st0" points="233.87,109.81 229.95,105.67 229.95,109.69 228.88,109.69 228.88,103.34 229.05,103.3 232.92,107.38 
		232.92,103.42 233.99,103.42 233.99,109.79 233.87,109.81 	"/>
	<polyline class="st0" points="236.13,109.69 236.13,103.42 239.95,103.42 239.95,104.4 237.2,104.4 237.2,106.04 239.69,106.04 
		239.69,106.98 237.2,106.98 237.2,108.72 239.95,108.72 239.95,109.69 236.13,109.69 	"/>
	<polyline class="st0" points="244.66,104.4 244.66,109.69 243.59,109.69 243.59,104.4 241.59,104.4 241.59,103.42 246.64,103.42 
		246.64,104.4 244.66,104.4 	"/>
	<polyline class="st0" points="250.99,104.4 250.99,109.69 249.92,109.69 249.92,104.4 247.93,104.4 247.93,103.42 252.97,103.42 
		252.97,104.4 250.99,104.4 	"/>
	<polyline class="st0" points="340.68,90.33 340.68,86.65 339.3,86.65 339.3,86.16 342.61,86.16 342.61,86.65 341.23,86.65 
		341.23,90.33 340.68,90.33 	"/>
	<path class="st0" d="M343.16,90.33v-4.18h0.83l0.99,2.96c0.09,0.27,0.16,0.48,0.2,0.62c0.05-0.15,0.12-0.38,0.22-0.67l1-2.9h0.74
		v4.18h-0.53v-3.5l-1.21,3.5h-0.5l-1.21-3.55v3.55H343.16"/>
	<path class="st1" d="M180.61,90.38c0,49.71-40.3,90-90,90c-49.71,0-90-40.3-90-90c0-49.71,40.3-90,90-90
		C140.32,0.38,180.61,40.67,180.61,90.38"/>
	<path class="st0" d="M193.36,40.11V19.63h9.21v17.83c0,3.53,0.37,6.97,5,6.97c4.63,0,5-3.44,5-6.97V19.63h9.21v20.49
		c0,7.93-5.09,12.33-14.21,12.33C198.17,52.44,193.36,48.04,193.36,40.11"/>
	<path class="st0" d="M224.25,47.77l4.45-6.14c1.65,1.97,4.4,3.76,7.56,3.76c2.38,0,3.8-1.01,3.8-2.89c0-2.25-2.06-2.89-5.55-3.94
		c-4.67-1.42-8.8-3.85-8.8-9.4c0-6.09,4.99-10.18,12.05-10.18c4.91,0,8.62,1.51,10.95,3.71l-4.17,6.14c-1.33-1.51-3.57-2.8-6.32-2.8
		c-2.38,0-3.39,0.96-3.39,2.25c0,2.02,2.43,2.56,5.09,3.39c5.22,1.65,9.26,4.03,9.26,9.94c0,6.19-4.45,10.82-12.47,10.82
		C230.8,52.44,226.22,49.92,224.25,47.77"/>
	<path class="st0" d="M261.56,19.63h10.13l11.96,32.17h-9.58l-1.51-4.63h-12.14l-1.47,4.63h-9.35L261.56,19.63 M270.22,39.84
		l-2.47-7.75c-0.51-1.51-0.92-3.44-1.1-4.81h-0.28c-0.18,1.38-0.59,3.3-1.1,4.81l-2.48,7.75H270.22z"/>
	<polyline class="st0" points="201.42,65.68 193.49,65.68 193.49,58.21 218.56,58.21 218.56,65.68 210.63,65.68 210.63,90.38 
		201.42,90.38 201.42,65.68 	"/>
	<path class="st0" d="M219.21,74.34c0-7.93,5.68-16.77,17.64-16.77c12.01,0,17.69,8.84,17.69,16.77c0,7.88-5.68,16.68-17.69,16.68
		C224.89,91.03,219.21,82.23,219.21,74.34 M245.06,74.34c0-5.77-3.76-8.75-8.25-8.75c-4.4,0-8.16,2.98-8.16,8.75
		c0,5.73,3.76,8.66,8.16,8.66C241.3,83.01,245.06,80.07,245.06,74.34z"/>
	<path class="st0" d="M257.85,58.21h11.87c11.37,0,17.88,6.05,17.88,16.08c0,9.85-6.69,16.08-17.88,16.08h-11.87V58.21
		 M267.06,82.96h1.97c5.91,0,9.07-2.84,9.07-8.66c0-5.82-3.16-8.66-9.07-8.66h-1.97V82.96z"/>
	<path class="st0" d="M298.27,58.21h10.13l11.96,32.17h-9.57l-1.51-4.63h-12.15l-1.46,4.63h-9.35L298.27,58.21 M306.93,78.42
		l-2.47-7.75c-0.5-1.51-0.92-3.44-1.1-4.81h-0.27c-0.18,1.37-0.59,3.3-1.1,4.81l-2.47,7.75H306.93z"/>
	<path class="st0" d="M326.05,78.93l-12.01-20.71h10.08l4.36,7.93c0.92,1.7,2.2,4.26,2.47,5.96h0.19c0.27-1.7,1.56-4.26,2.47-5.96
		l4.36-7.93h9.8l-12.01,20.71v11.46h-9.71V78.93"/>
</g>
</svg>
