<?xml version="1.0" encoding="UTF-8"?> <svg xmlns="http://www.w3.org/2000/svg" id="svg2" viewBox="0 0 416 60.95"><title>new-york-times</title><path id="path6" d="M33.05,10a2.11,2.11,0,0,0-1.14.39c1.52.33,3.29.56,4.25,2.09A1.47,1.47,0,0,1,36,14.41a3.53,3.53,0,0,1-3.8,1.18c-4.52-1.17-8.79-3.46-13.44-4.06a7.75,7.75,0,0,0-6.64,2.87,8.68,8.68,0,0,0-1.84,6.82c.35,1.9,1.63,3.88,3.47,4.16a4.08,4.08,0,0,1-.16-4.95,2.71,2.71,0,0,1,2.73-.84c3.6.74,7.1,1.93,10.7,2.74,2,.6,4,1.32,6,1.73q0,4.07,0,8.13c-1.33,1.09-2.6,2.27-3.9,3.39,1.27,1.05,2.58,2,3.89,3,.08,3.83,0,7.66,0,11.5a9.63,9.63,0,0,1-7.61,1.78c-2.77-.17-5.23-2-7-4.2,3-1.79,6.14-3.48,9.25-5.12.11-6,0-12.09.05-18.13-3.88,1.8-7.73,3.69-11.6,5.52a13.54,13.54,0,0,1,6.11-7.24,5.06,5.06,0,0,0-2.11.33A19.66,19.66,0,0,0,9.29,35.81a20,20,0,0,0,.43,11.33,17.91,17.91,0,0,0,7.52,9.59,13.39,13.39,0,0,0,6.3,2.19,14.72,14.72,0,0,0,12.64-5.35,17.2,17.2,0,0,0,2.73-5.76,19.25,19.25,0,0,0,.84-6.28,22.92,22.92,0,0,1-6.22,8.55c0-3.82,0-7.64,0-11.46,1.18-1,2.37-2,3.52-3-1.18-1.15-2.35-2.29-3.52-3.45,0-2.68,0-5.37,0-8.05,2.65-.16,5.7-1.7,6.41-4.77.5-2,.76-4.37-.35-6.18a7.07,7.07,0,0,0-3.91-2.71A18.33,18.33,0,0,0,33.05,10ZM20.66,28.42c0,5.82,0,11.64,0,17.46-.88.38-1.75.8-2.62,1.22a22.57,22.57,0,0,1-3-8.6,20.76,20.76,0,0,1,1.12-7.59C17.63,30.11,19.13,29.24,20.66,28.42Z" transform="translate(-8.66 -9.71)"></path><path id="path8" d="M324.55,10a1.77,1.77,0,0,0-1.23.39,11.13,11.13,0,0,1,2.68.79,3.41,3.41,0,0,1,1.5,2.06,2.08,2.08,0,0,1-1.2,2.1,5.56,5.56,0,0,1-4.11,0c-3.18-1.08-6.29-2.47-9.54-3.31a10.15,10.15,0,0,0-5.1-.28,8.13,8.13,0,0,0-4.77,3.34,8.45,8.45,0,0,0-.89,7c.56,1.55,1.7,3.08,3.3,3.28-.52-.74-1.42-1.48-1.16-2.54a4.53,4.53,0,0,1,1.3-2.79,2.8,2.8,0,0,1,2.68-.35c3.24.67,6.41,1.67,9.61,2.51,2.17.5,4.25,1.4,6.44,1.84,0,2.7,0,5.4,0,8.1-1.17,1.15-2.34,2.29-3.5,3.45,1.17,1,2.31,2,3.5,3,0,3.84,0,7.69,0,11.53a9.14,9.14,0,0,1-7.26,1.74c-2.75-.18-5.16-2-7-4.17a21,21,0,0,1,2.42-1.42c2.27-1.23,4.52-2.52,6.81-3.72.07-6,0-12.09,0-18.14-3.86,1.81-7.69,3.71-11.57,5.49a13.13,13.13,0,0,1,4.2-5.86,4.41,4.41,0,0,1,1.93-1.37,5.32,5.32,0,0,0-2.3.43A19.33,19.33,0,0,0,300.21,37.4a23,23,0,0,0,.94,9.9,18.68,18.68,0,0,0,6.8,9.06,19.6,19.6,0,0,0,4.72,2.34,15.81,15.81,0,0,0,11.67-2.23,14.86,14.86,0,0,0,5.37-7,22.09,22.09,0,0,0,1.49-8A23.73,23.73,0,0,0,330,43.72,21.09,21.09,0,0,1,325,50.06c0-3.83,0-7.66,0-11.49,1.17-.94,2.27-2,3.45-2.91-1.09-1.25-2.32-2.32-3.48-3.49,0-2.68,0-5.37,0-8a7.09,7.09,0,0,0,5.8-3.5,8.23,8.23,0,0,0,0-7.63,6.21,6.21,0,0,0-4.06-2.58c-.71-.06-1.44-.38-2.16-.4Zm-12.49,18.4c0,5.81,0,11.62,0,17.43-.9.41-1.79.85-2.68,1.27a20.37,20.37,0,0,1-2.83-6.69,16.1,16.1,0,0,1,.91-9.49c1.54-.82,3.06-1.67,4.59-2.52Z" transform="translate(-8.66 -9.71)"></path><path id="path10" d="M127,11.94a7.79,7.79,0,0,1-1.67,8.82,17.83,17.83,0,0,1-4.5,2.08c0,11.72,0,23.44,0,35.16.11.54-.33,1-.79.75-.91,0-1.14-1.1-1.53-1.81C113,45.66,107.49,34.35,101.88,23.1c-.1,8.27,0,16.56,0,24.84a11.56,11.56,0,0,1,7,4.28c.8-.69,1.32-1.9,2.35-2.17a7.67,7.67,0,0,1-1,1.39c-2,2.45-4,4.9-6,7.36a5.74,5.74,0,0,0-3.71-2.7,3.42,3.42,0,0,0-2.93.91,3.05,3.05,0,0,0-.82,3.45c.71,1.72,2.51,2.19,4,2.6a6.14,6.14,0,0,1-5.53-1.23,7.79,7.79,0,0,1-.74-11.26A8.59,8.59,0,0,1,101.36,48c.07-3.61,0-7.21,0-10.82-1.21-.21-2.85,0-3.42,1.37a2.68,2.68,0,0,0,1.2,2.7,4.34,4.34,0,0,1-2.66-1.19,9,9,0,0,1-1.66-3.76,5.65,5.65,0,0,1,1.55-5,7.19,7.19,0,0,1,5-1.32V22.39a6.63,6.63,0,0,0-2.3-2.75,1.94,1.94,0,0,0-2.22.16,6.65,6.65,0,0,0-1.37,3.12c-.32-2.66-.08-5.68,1.61-7.76a5.43,5.43,0,0,1,8.59-.33A16.19,16.19,0,0,1,108,18.61c4.13,8.11,8.18,16.28,12.35,24.36q0-10,0-20.12c-.72-.31-1.52-.3-2.24-.58a8.28,8.28,0,0,1-3.5-2.41c-.63.82-1.26,1.63-1.84,2.47l-.55-.32c2.14-3,4.43-5.82,6.66-8.72a6.72,6.72,0,0,0,4.43,2.59A4.35,4.35,0,0,0,127,11.94Z" transform="translate(-8.66 -9.71)"></path><path id="path12" d="M265.91,18.44c3-2.15,6-4.32,9-6.45,0,12.67,0,25.34,0,38a23.1,23.1,0,0,0,2.32,2.63c.49-.59,1-1.14,1.51-1.71l.48.53c-2.39,2.29-4.71,4.66-7.11,6.92-1.52-1.71-3.08-3.37-4.59-5.09-.67.66-1.29,1.38-1.92,2.09l-.52-.44c1.15-1.21,2.38-2.32,3.54-3.52q0-14.4,0-28.8C268.56,20.81,267.73,18.66,265.91,18.44Z" transform="translate(-8.66 -9.71)"></path><path id="path14" d="M43,18.81c2.57-2.11,5.1-4.31,7.67-6.41,0,7,0,14,0,20.94,2.17-2,4.37-3.94,6.52-6,1.73,2,3.34,4.08,5.13,6,.75-.6,1.52-1.16,2.31-1.7-.14,1.11-1.34,1.49-2,2.26,0,3.82,0,7.63,0,11.44.05,2.86-.33,5.69-.4,8.54a12,12,0,0,1-3.39,8.28,10.39,10.39,0,0,1-6.52,2.59c0,.06-.13.18-.17.25l.06-.23c-.8,0-1.59,0-2.39-.1a9.36,9.36,0,0,0,2.92-1.88,11.08,11.08,0,0,0,2.41-3.63,24.55,24.55,0,0,0,.82-7C56,47,56,41.8,56,36.57c-1.06-1.52-2.32-2.86-3.44-4.32a22.43,22.43,0,0,0-1.87,2.13c0,5.39,0,10.79,0,16.19.64.7,1.27,1.4,1.91,2.09L54.09,51l.45.49c-2.49,2.15-4.95,4.33-7.44,6.47-1.57-1.54-3.11-3.13-4.66-4.7L40.88,54.5,40.43,54c1.2-.85,2.37-1.73,3.55-2.6V22.6a4.84,4.84,0,0,0-.34-2.18c-.23-.5-.75-.66-1.15-1-.08-.32.33-.45.48-.65Z" transform="translate(-8.66 -9.71)"></path><path id="path16" d="M214.34,9.71c-2.34,2.09-4.63,4.25-7,6.37,0-2,0-4,0-6-.36,0-.51.16-.46.54q0,21.2,0,42.38c-1.26-.27-2.53-.55-3.78-.86,0-11.92,0-23.83,0-35.74a7,7,0,0,0-1.37-4.17A6.23,6.23,0,0,0,197.17,10a7.14,7.14,0,0,0-5.23,2.6,6.27,6.27,0,0,0-1.61,5.36,4.4,4.4,0,0,1,1.51-3.21,2.54,2.54,0,0,1,3.21,1,6.12,6.12,0,0,1,.64,3.14c0,3.22,0,6.44,0,9.66-1.92,0-4.2.38-5.31,2.35a5.8,5.8,0,0,0-.69,5.54,4.53,4.53,0,0,0,3.76,3c-.88-.63-1.77-1.74-1.25-3a3,3,0,0,1,3.47-1.05c.05,5.71,0,11.42,0,17.14a8.11,8.11,0,0,0-4.43,3.7,8.63,8.63,0,0,0-.64,4.34,7.88,7.88,0,0,0,3.81,6.1,10,10,0,0,0,5,.77c4.8-.31,9.36-2.42,14.17-2.59,1.44-.12,2.28,1.63,1.9,3a5.45,5.45,0,0,1-2.11,2.8,10,10,0,0,0,4.69-2.36,7.53,7.53,0,0,0,2.07-5.75A5.79,5.79,0,0,0,216.94,58c-2.09-1.35-4.61-1.05-6.9-.78-4.32.55-8.52,2.06-12.88,2.19A3.1,3.1,0,0,1,194,56.8,3.49,3.49,0,0,1,196,53.25c2.49-1.29,5.35-.81,7.94-.21,3,.34,5.82,1.69,8.82,2a6.49,6.49,0,0,0,4.92-1.29,5.79,5.79,0,0,0,2.13-4.71c0-11.24,0-22.48,0-33.72a28.55,28.55,0,0,0,2.77-2.73c-1.13.31-1.84,1.49-2.77,2.2-1.84-1.68-3.63-3.41-5.44-5.12Zm-5.09,5.69c1,1,2.07,2,3.11,3,0,3.54,0,7.08,0,10.62a3.14,3.14,0,0,1-1.76,1.21,3.73,3.73,0,0,1-3.21-1.17V16.65l1.86-1.25ZM207.39,30a4.57,4.57,0,0,0,5,0v4.83a3.15,3.15,0,0,0-2.24-1.16,4.2,4.2,0,0,0-2.73,1.16C207.39,33.25,207.38,31.64,207.39,30Zm2.72,4.18a2.93,2.93,0,0,1,2.25,1.69c0,4.48,0,9,0,13.45a4.24,4.24,0,0,1-1.71,3.34,4.36,4.36,0,0,1-3.24.76c-.06-5.86,0-11.72,0-17.58A3.74,3.74,0,0,1,210.11,34.21Z" transform="translate(-8.66 -9.71)"></path><path id="path18" d="M332.6,21c1.61-1.56,3.13-3.23,4.78-4.75,1.39,1.62,2.86,3.17,4.27,4.77q-2.55,2.63-5.13,5.22c-1.3-1.76-2.64-3.47-3.92-5.24Z" transform="translate(-8.66 -9.71)"></path><path id="path22" d="M146.52,22.69c1-.76,2.28-.72,3.45-.88a4.71,4.71,0,0,0-2,3,3.38,3.38,0,0,0,1.27,3c1.44,1.26,3.28,2,4.45,3.6a4.69,4.69,0,0,1,.88,2.78c0,5.33,0,10.65,0,16l3.86,3.42,1.12-.8c0-5.81,0-11.62,0-17.43A27.39,27.39,0,0,0,157.21,33c1.85-1.88,3.66-3.81,5.55-5.64,1.64,1.78,3.37,3.46,5.06,5.19-.64.75-1.3,1.47-2,2.18,0,5.11,0,10.22,0,15.32,1.69,1.44,3.37,2.88,5.07,4.3l.72-.46c0-6.24,0-12.47,0-18.71-.78-.73-1.59-1.43-2.35-2.18,1.81-1.9,3.65-3.76,5.48-5.64,1.82,1.57,3.64,3.14,5.45,4.73a20.6,20.6,0,0,1,2-2.19l.37.58c-1.54,1.53-3.08,3.07-4.58,4.64-.13,5,0,10-.06,14.94-3.94,2.86-8.05,5.46-12.05,8.24-2.11-1.66-4.16-3.42-6.24-5.13-1.86,1.66-3.73,3.32-5.61,5-.27.33-.54-.15-.76-.29-1.76-1.56-3.51-3.13-5.29-4.65-.74.72-1.53,1.39-2.28,2.11l-.47-.5c.91-.69,1.81-1.43,2.72-2.13q0-7.23,0-14.46a5.57,5.57,0,0,0-1.21-3.55c-.88-1.05-2.06-1.79-2.76-3a7.48,7.48,0,0,1-.55-4.81,7.53,7.53,0,0,1,3.12-4.17Z" transform="translate(-8.66 -9.71)"></path><path id="path24" d="M423.42,26.14a2.08,2.08,0,0,1,0,1.57,3.36,3.36,0,0,1-3.32,1.89c-1.33-.13-2.37-1.19-3.27-2.19l-4.53,3.34a30.63,30.63,0,0,1-5.58,3.13v8.18c1.4,1.29,2.85,2.52,4.23,3.85-1.06,1.24-2.1,2.49-3.1,3.78a8.58,8.58,0,0,0-2.05,4.77,6.31,6.31,0,0,0,2.41,5.42,2.69,2.69,0,0,0,2.49.54c-1.07-.42-2.38-1.27-2.29-2.7a2.46,2.46,0,0,1,3-1.88,6.44,6.44,0,0,1,3.1,2.5,80.59,80.59,0,0,1,10.16-6.88c0-3.46.05-6.93,0-10.39-1.56-1.21-3.05-2.53-4.59-3.76a22.07,22.07,0,0,0,4-7.54c.25-1.21.34-2.73-.57-3.63ZM413,31.32c1.05,1.66,2.44,3.28,4.34,3.62,1.89.49,3.72-.64,5-2.15a30.12,30.12,0,0,1-7.06,8.74c-.74-.86-1.53-1.66-2.26-2.53,0-2.56,0-5.12,0-7.68Zm2.67,10.35L418.13,44c.37.25.19.77.24,1.16,0,3,0,6,0,8.92a8.39,8.39,0,0,0-2.81-3.83,5.54,5.54,0,0,0-6.34-.12A9.23,9.23,0,0,0,407,52.23a22.34,22.34,0,0,1,3.9-5.25C412.5,45.24,414.14,43.51,415.69,41.67Z" transform="translate(-8.66 -9.71)"></path><path id="path26" d="M79.72,27.4c-2.15,1.38-4.23,2.87-6.33,4.32-1.78,1-3.6,2-5.39,3,0,5.56,0,11.12,0,16.68a26.64,26.64,0,0,0-2.36,1.88l.54.36A18.13,18.13,0,0,1,68.05,52c2.22,2,4.32,4.25,6.55,6.31L75,58c3.76-3.21,7.56-6.38,11.32-9.6L85.9,48c-2.1,1.8-4.14,3.7-6.21,5.52C78,51.8,76.32,50,74.61,48.32c-.58-.47-.26-1.36-.3-2,3.51-2.84,7-5.68,10.48-8.59C83.06,34.3,81.39,30.85,79.72,27.4ZM74.3,31.5c1.77,3.22,3.56,6.43,5.32,9.66-1.79,1.39-3.56,2.79-5.33,4.2C74.27,40.74,74.26,36.12,74.3,31.5Z" transform="translate(-8.66 -9.71)"></path><path id="path28" d="M137.9,27.4c-1.51,1.1-3,2.19-4.59,3.22-2.26,1.57-4.72,2.75-7.09,4.09,0,5.56,0,11.12,0,16.67-.73.6-1.54,1.08-2.25,1.71l.31.58c.78-.58,1.56-1.18,2.37-1.73,2,2.15,4.11,4.26,6.16,6.39,3.84-3.14,7.6-6.4,11.41-9.6.48-.11.08-1-.23-.65-2.06,1.76-4.06,3.62-6.09,5.42q-2.39-2.61-4.75-5.24c-.52-.5-.21-1.33-.24-2,3.38-2.76,6.65-5.69,10-8.44C141.39,34.29,139.56,30.89,137.9,27.4Zm-5,4.21c1.74,3.13,3.33,6.36,4.94,9.58-1.66,1.34-3.26,2.77-4.91,4.13C132.83,40.76,132.9,36.18,132.87,31.61Z" transform="translate(-8.66 -9.71)"></path><path id="path30" d="M236,27.41c-1.66,1.07-3.3,2.17-4.91,3.32a49.66,49.66,0,0,1-6,3.18c0,5.83,0,11.66,0,17.49-.67.74-1.35,1.48-2,2.24l.55,0c.48-.56,1-1.11,1.47-1.66,2.26,2,4.49,4.13,6.73,6.19.37.39.79-.2,1.15-.34,3.62-2.18,7-4.75,10.75-6.7.06-5.44,0-10.87,0-16.3.67-.74,1.35-1.48,2-2.24l-.53,0-1.89,1.68C241,32,238.51,29.68,236,27.41Zm-4.21,4c1.78,1.84,3.59,3.66,5.36,5.5q0,8.69,0,17.35c-1.82-1.76-3.55-3.63-5.35-5.42V31.44Z" transform="translate(-8.66 -9.71)"></path><path id="path32" d="M275.18,40.37c2.56-4.34,5.18-8.64,7.81-12.94a7.11,7.11,0,0,0,4,1.9,6.06,6.06,0,0,0,3.78-1.91,10.68,10.68,0,0,1-2.61,6.4,5,5,0,0,1-5.36,1.09,9.75,9.75,0,0,1-2.91-1.78,8.46,8.46,0,0,0-.37,1.24c3.64,6,7.21,12.14,10.78,18.24a19.11,19.11,0,0,0,2.27-2.06l.56.4c-2.57,2.53-5.22,4.95-7.86,7.4C281.92,52.37,278.61,46.33,275.18,40.37Z" transform="translate(-8.66 -9.71)"></path><path id="path34" d="M398.24,27.4c-1.59,1.07-3.17,2.13-4.74,3.22-2.16,1.66-4.64,2.69-6.93,4.09,0,5.56,0,11.12,0,16.67-.79.58-1.57,1.17-2.36,1.73.1.14.3.42.41.56a23.42,23.42,0,0,1,2-1.7c2,2.1,4.2,4.09,6.28,6.16.2.36.49,0,.69-.15q5.64-4.78,11.27-9.53c-.44-.86-.94,0-1.38.32l-5.29,4.74c-1.81-1.82-3.56-3.71-5.4-5.48,0-.57,0-1.15,0-1.72,3.53-2.81,7-5.69,10.5-8.55q-2.52-5.19-5.08-10.36Zm-5.43,4.2c1.9,3.1,3.57,6.38,5.36,9.58-1.81,1.37-3.57,2.82-5.38,4.2,0-4.59,0-9.19,0-13.78Z" transform="translate(-8.66 -9.71)"></path><path id="path36" d="M253,27.86c1.43,1.43,2.62,3.12,3.94,4.66,1.44-1.52,2.85-3.08,4.24-4.66,1,.71,2.06,1.71,3.35,1.43.92-.07,1.39-1.06,2.17-1.46a9.71,9.71,0,0,1-1.7,5.93,4.56,4.56,0,0,1-6.1,1.16A24.68,24.68,0,0,1,257,33.29q0,8.61,0,17.22c1,.87,2.05,1.74,3.11,2.57.76-.55,1.35-1.58,2.32-1.67-2.27,2.39-4.66,4.66-7,6.93-1.78-1.85-3.6-3.65-5.36-5.53-.69.68-1.32,1.42-2,2.14l-.41-.54c.86-1.06,1.82-2,2.71-3,0-4.91,0-9.83,0-14.74a36.93,36.93,0,0,0-1.89-3.5c-.81.53-1.4,1.63-2.41,1.67,2.3-2.35,4.7-4.57,7-6.93Z" transform="translate(-8.66 -9.71)"></path><path id="path38" d="M345.36,34c2.12-2,4.19-4.15,6.32-6.18,1.53,1.86,3.11,3.67,4.61,5.55,2.25-1.79,4.41-3.71,6.64-5.55,1.56,1.85,3.09,3.72,4.66,5.55,2.21-1.84,4.39-3.72,6.61-5.54,1.52,1.86,3.08,3.68,4.62,5.53.94-.66,1.8-1.45,2.76-2.09.07.62-.43.9-.79,1.24l-1.52,1.39c0,5.11,0,10.22,0,15.33.89,1,1.79,2,2.7,3,.49-.56,1-1.11,1.46-1.68l.57.39c-2.32,2.53-4.72,5-7.1,7.42-1.68-2.18-3.44-4.3-5.08-6.53.4-.4.79-.82,1.17-1.24V37.35c-1.27-1.56-2.53-3.13-3.84-4.65-.38.43-.76.85-1.13,1.28,0,5.51,0,11,0,16.54.63.78,1.33,1.47,2,2.25-1.72,1.68-3.37,3.44-5.08,5.14q-2.4-2.77-4.72-5.63c.44-.6,1.33-1,1.19-2,0-4.29,0-8.6,0-12.89a52.62,52.62,0,0,0-3.49-4.71L356.73,34c0,5.34,0,10.68,0,16a23.08,23.08,0,0,0,1.95,2.67c-1.67,1.94-3.4,3.82-5.13,5.67-1.67-2.18-3.39-4.31-5.06-6.48l1.57-1.34c0-4.51,0-9,0-13.53-1-1.34-2.06-2.59-3.09-3.88a12.81,12.81,0,0,1-2.21,1.77C344.75,34.46,345.13,34.26,345.36,34Z" transform="translate(-8.66 -9.71)"></path><path id="path40" d="M330.64,34.36c2.19-2.21,4.45-4.34,6.67-6.53,1.57,2,3.1,4,4.67,6a23.21,23.21,0,0,1,2.44-2.11,1.23,1.23,0,0,1-.41.82c-.67.62-1.34,1.24-2,1.84,0,5.12,0,10.23,0,15.35.89,1.11,1.8,2.19,2.63,3.35.69-.46,1.27-1.1,1.92-1.61l.56.32c-2.19,2.26-4.45,4.43-6.73,6.57-1.52-2-3.07-4-4.62-6a26.07,26.07,0,0,1-2,2.08l-.42-.44c.66-.68,1.28-1.41,1.95-2.09.05-4.65,0-9.31,0-14,0-.65.15-1.41-.31-1.93-.81-1.11-1.55-2.28-2.42-3.34a17,17,0,0,1-2,1.66Z" transform="translate(-8.66 -9.71)"></path></svg> 