<?xml version="1.0" encoding="UTF-8"?> <svg xmlns="http://www.w3.org/2000/svg" id="Layer_1" data-name="Layer 1" viewBox="0 0 167.66 42.9"><defs><style>.cls-1{fill:#004351;}.cls-2{isolation:isolate;}</style></defs><title>albert-dark-green</title><rect class="cls-1" x="44.7" width="3" height="42"></rect><path class="cls-1" d="M80,19.11a15.91,15.91,0,0,0-12.9,6.6V7.91h-3v42h3v-5.7A15.88,15.88,0,1,0,80,19.11Zm0,28.7a12.9,12.9,0,1,1,12.9-12.9A12.93,12.93,0,0,1,80,47.81Z" transform="translate(-7.23 -7.91)"></path><path class="cls-1" d="M115.83,47.81a12.93,12.93,0,0,1-12.9-12.9h28.9l-.2-1.7a16,16,0,1,0-1.2,7.9l-2.8-1.2A12.63,12.63,0,0,1,115.83,47.81Zm0-25.7a12.77,12.77,0,0,1,12.5,9.8h-25A12.88,12.88,0,0,1,115.83,22.11Z" transform="translate(-7.23 -7.91)"></path><polygon class="cls-1" points="155.6 11.8 155.6 0 152.6 0 152.6 11.8 147.1 11.8 147.1 14.8 152.6 14.8 152.6 42 155.6 42 155.6 14.8 161.9 14.8 161.9 11.8 155.6 11.8"></polygon><path class="cls-1" d="M139.63,24.71v-5h-3v30.2h3V29.61c.5-1.1,4.7-6.8,10.4-6.8v-3C145.83,19.71,142,22.21,139.63,24.71Z" transform="translate(-7.23 -7.91)"></path><path class="cls-1" d="M42.83,49.91h3.3L26.53,9.41,7.23,49.91h3.3l6.7-14.1h18.7Zm-16.3-33.5,8,16.5H18.73Z" transform="translate(-7.23 -7.91)"></path><g class="cls-2"><path class="cls-1" d="M170.45,13.89V11.36h-.94V11h2.27v.33h-.95v2.53Z" transform="translate(-7.23 -7.91)"></path><path class="cls-1" d="M172.16,13.89V11h.57l.67,2c.07.19.11.33.14.43,0-.11.08-.26.15-.46l.69-2h.51v2.86h-.37v-2.4l-.83,2.4h-.34l-.83-2.44v2.44Z" transform="translate(-7.23 -7.91)"></path></g></svg> 