<?xml version="1.0" encoding="utf-8"?>
<!-- Generator: Adobe Illustrator 22.0.1, SVG Export Plug-In . SVG Version: 6.00 Build 0)  -->
<svg version="1.1" id="Layer_1" xmlns="http://www.w3.org/2000/svg" xmlns:xlink="http://www.w3.org/1999/xlink" x="0px" y="0px"
	 viewBox="0 0 200 161.75" style="enable-background:new 0 0 200 161.75;" xml:space="preserve">
<style type="text/css">
	.st0{fill:#BCBEC0;}
	.st1{fill-rule:evenodd;clip-rule:evenodd;fill:#402B2F;}
	.st2{fill:#402B2F;}
</style>
<g>
	<path class="st0" d="M94.04,153.35c-2.34-0.12-4.67-0.3-6.99-0.55c0.42-0.33,0.72-0.63,0.95-0.94c1.63,0.15,3.27,0.26,4.91,0.35
		c-1.64-1.53-1.63-2.33-1.62-5.35c0.02-4.29,0.04-8.59,0.07-12.88c0.01-1.3,0.01-2.49,0.7-3.59c0.67,0.04,1.35,0.09,2.02,0.12
		c-1.56,1.36-1.57,2.9-1.58,4.61c-0.02,4.29-0.04,8.59-0.07,12.88C92.41,151.02,92.4,151.82,94.04,153.35 M111.53,153.05
		c0.41-0.44,0.71-0.85,0.94-1.34c3.04-0.31,6.08-0.72,9.1-1.25c0.91-0.16,1.46-0.24,1.83-0.24c0.58,0,0.76,0.19,1.28,0.55
		c0.01-1.89,0.02-3.78,0.03-5.66c0.55-1.05,0.89-2.15,1.16-3.1c-0.02,3.3-0.03,6.6-0.05,9.9c-0.52-0.36-0.7-0.55-1.28-0.55
		c-0.38,0-0.92,0.08-1.83,0.24C119,152.24,115.27,152.73,111.53,153.05 M81.22,152.05L81.22,152.05 M81.22,152.05
		c-2.23-0.34-4.46-0.74-6.67-1.2c0.28-0.28,0.5-0.53,0.68-0.78c1.61,0.31,3.23,0.59,4.85,0.84c-1.5-1.91-1.5-2.64-1.49-4.9
		c0.02-4.02,0.04-8.04,0.06-12.05c0.01-1.35,0.06-2.52,1.33-2.52c0.12,0,0.25,0.01,0.4,0.03c1.01,0.15,1.85,0.83,2.53,1.73
		c-0.42-0.3-0.88-0.51-1.39-0.59c-0.14-0.02-0.28-0.03-0.4-0.03c-1.27,0-1.33,1.17-1.33,2.52c-0.02,4.02-0.04,8.04-0.06,12.05
		C79.72,149.41,79.72,150.14,81.22,152.05 M127.29,150.72c0.45-0.68,0.77-1.12,0.99-1.62c3.32-0.76,6.63-1.65,9.9-2.67
		c1.33-0.42,1.93-0.59,2.3-0.59c0.34,0,0.49,0.14,0.84,0.35l0.03-5.21c0.46-0.92,0.81-1.91,1.16-2.97l-0.05,9.32
		c-0.34-0.21-0.5-0.35-0.84-0.35c-0.37,0-0.97,0.17-2.3,0.59C135.35,148.81,131.34,149.86,127.29,150.72 M101.15,148.86
		c-1.16-0.43-1.3-1.48-1.29-2.21c0.02-4.02,0.04-8.04,0.06-12.06c0.01-2.18,0.28-3.2,0.7-3.92c0.69,0,1.37,0,2.06-0.02
		c-0.94,1.07-1.6,1.59-1.62,5.08c-0.02,4.02-0.04,8.04-0.06,12.06C101,148.12,101.02,148.5,101.15,148.86 M64.35,148.28
		c-0.81,0-1.71-0.16-2.69-0.47c-1.81-0.59-2.63-1.6-3.97-2.07c-0.2-0.07-0.4-0.1-0.59-0.1c-0.54,0-1.04,0.24-1.46,0.5
		c0-0.54,0.01-1.07,0.01-1.61c0.1-0.02,0.21-0.03,0.32-0.03c0.19,0,0.38,0.03,0.58,0.1c1.34,0.48,2.16,1.49,3.97,2.07
		c0.97,0.31,1.87,0.47,2.69,0.47c2.6,0,4.27-1.63,4.29-5.16c0.01-2.84-0.99-4.79-2.31-6.29c1.84,1.64,3.46,3.81,3.45,7.43
		C68.62,146.64,66.95,148.28,64.35,148.28 M116.88,147.67c-1.11-0.3-1.25-1.32-1.24-2.04c0.02-4.02,0.04-8.05,0.06-12.07
		c0.01-2.05,0.24-3.1,0.62-3.86c0.71-0.09,1.42-0.18,2.13-0.28c-0.93,1.18-1.59,1.79-1.61,5.28c-0.02,4.02-0.04,8.05-0.06,12.07
		C116.77,147.05,116.79,147.36,116.88,147.67 M144.2,145.93c0.56-0.65,0.91-1.32,1.14-1.98c1.47-0.55,2.93-1.13,4.38-1.74
		c-1.5-0.62-1.5-2.54-1.49-4.09c0.01-1.65,0.02-3.29,0.02-4.94c0.71-0.32,1.4-0.64,2.11-0.94c0.87-0.38,1.56-0.56,2.11-0.56
		c0.84,0,1.34,0.43,1.63,1.2c-0.15-0.04-0.31-0.06-0.49-0.06c-0.54,0-1.24,0.18-2.11,0.56c-0.71,0.3-1.39,0.62-2.11,0.94
		c-0.01,1.65-0.02,3.29-0.02,4.94c-0.01,1.55-0.02,3.46,1.49,4.09C148.66,144.27,146.44,145.14,144.2,145.93 M54.38,144.86
		c-2.2-0.86-4.38-1.78-6.54-2.77c0.23-0.12,0.42-0.24,0.59-0.37c1.59,0.7,3.2,1.37,4.81,2c-1.54-2.05-1.54-2.85-1.52-5.87
		l0.06-12.86c0.01-1.44,0.02-2.76,0.91-3.66c0.57,0.23,1.15,0.46,1.72,0.69c-1.47,0.87-1.48,2.4-1.49,4.11l-0.06,12.86
		C52.84,142.01,52.84,142.8,54.38,144.86 M132.4,144.48L132.4,144.48 M132.4,144.48c-0.76-0.11-1.16-0.57-1.16-1.45
		c0.01-1.57,0.02-3.14,0.02-4.71c0.77-0.19,1.53-0.43,2.3-0.64c1.05-0.29,1.78-0.42,2.33-0.42c1.08,0,1.41,0.48,2.03,1.09
		c0.01-1.54,0.02-3.09,0.02-4.63c0.44-0.47,0.76-0.98,1.15-1.54c-0.01,2.44-0.02,4.87-0.04,7.31c-0.62-0.6-0.95-1.09-2.03-1.09
		c-0.54,0-1.27,0.12-2.33,0.42c-0.76,0.21-1.53,0.44-2.3,0.64c-0.01,1.57-0.02,3.14-0.02,4.71
		C132.38,144.29,132.38,144.39,132.4,144.48 M174.54,144.1L174.54,144.1 M174.54,144.1h-10.35c0.29-0.25,0.52-0.47,0.68-0.65
		c0.14-0.16,0.27-0.33,0.38-0.49h8.15c-0.25-0.19-0.45-0.36-0.6-0.51c-0.43-0.44-0.77-0.96-1.02-1.54
		c-0.36-0.74-0.54-1.12-0.54-1.13c-0.19-0.53-0.28-1.21-0.28-2.02v-6.41l6.75-14.69c0.27-0.58,0.64-1.28,1.12-2.11
		c0.41-0.71,0.85-1.42,1.32-2.14c0.31-0.47,0.67-0.96,1.09-1.46c0.06-0.07,0.1-0.12,0.16-0.19h2.13c-0.35,0.39-0.73,0.83-1.15,1.32
		c-0.42,0.5-0.78,0.98-1.09,1.46c-0.47,0.71-0.91,1.42-1.32,2.14c-0.48,0.83-0.85,1.54-1.12,2.11l-6.75,14.69v6.41
		c0,0.82,0.09,1.49,0.28,2.02c0,0.02,0.18,0.39,0.54,1.13c0.25,0.58,0.59,1.09,1.02,1.54C174.08,143.74,174.28,143.91,174.54,144.1
		 M33.89,144.02c-1.39,0-2.68-0.03-3.87-0.08c-1.19-0.05-2.48-0.11-3.85-0.19c-0.51,0-1.26,0.05-2.24,0.15
		c-0.41,0.04-0.81,0.08-1.21,0.11c0.22-0.34,0.4-0.6,0.51-0.79c0.12-0.19,0.22-0.36,0.31-0.53c0.61-0.05,1.11-0.08,1.48-0.08
		c1.37,0.07,2.66,0.14,3.85,0.19c1.19,0.05,2.49,0.08,3.87,0.08c3.02,0,5.54-0.86,7.55-2.57c1.79-1.53,3.14-3.69,4.04-6.49
		c0.81-2.49,1.21-5.33,1.21-8.52c0-2.89-0.36-5.41-1.09-7.55c-0.55-1.63-1.31-3-2.27-4.13c1.52,1.29,2.66,3.04,3.41,5.26
		c0.73,2.14,1.09,4.66,1.09,7.55c0,3.18-0.4,6.02-1.21,8.52c-0.9,2.8-2.24,4.97-4.04,6.49C39.43,143.16,36.91,144.02,33.89,144.02
		 M58.72,142.08c-1.26-1.04-2.25-2.58-3.03-4.02c0-0.37,0-0.74,0.01-1.12C56.39,138.37,57.36,140.46,58.72,142.08 M156.53,140.56
		c-0.51,0-0.84-0.31-0.88-1.16c0.41-0.07,0.9-0.28,1.42-0.54c0.88-0.43,1.75-0.88,2.62-1.33c0.2,0.57,0.5,1,1.21,1.1
		c-0.89,0.47-1.79,0.92-2.7,1.37C157.57,140.32,156.98,140.56,156.53,140.56 M85.99,138.52c-0.26-0.91-0.63-1.95-1.13-2.9
		c0.01-1.98,0.02-3.96,0.03-5.94c0.02,0,0.04,0,0.05,0c0.48,0,0.8-0.12,1.09-0.49C86.02,132.3,86,135.41,85.99,138.52 M62.51,137.98
		c-1.22-1.09-2.71-2.14-3.93-3.51C59.97,135.74,61.48,136.79,62.51,137.98 M159.68,137.47c-0.96-0.19-1.13-1.03-1.37-1.96
		c-0.56-2.2-0.41-4.38-0.99-5.72c1.95,0.73,1.35,3.77,2.13,6.86C159.52,136.94,159.59,137.21,159.68,137.47 M30.55,137.46
		c-0.32-0.14-0.57-0.32-0.77-0.55c-0.63-0.73-0.95-2.18-0.95-4.33v-13.14c0-2.05,0.4-3.45,1.19-4.18c0.52-0.47,1.36-0.7,2.53-0.7
		c1.99,0,3.57,0.62,4.73,1.85c0.15,0.16,0.29,0.33,0.43,0.51c-1.07-0.81-2.41-1.22-4.02-1.22c-1.17,0-2.02,0.23-2.53,0.7
		c-0.79,0.73-1.19,2.13-1.19,4.18v13.14C29.97,135.4,30.16,136.65,30.55,137.46 M69.93,135.63c0.01-1.27,0.01-2.54,0.02-3.8
		c0.77-1.07,1.77-1.7,2.78-1.7c0.16,0,0.32,0.02,0.49,0.05c0.9,0.19,1.31,0.64,1.5,1.24c-0.11-0.04-0.23-0.07-0.36-0.1
		c-0.16-0.03-0.32-0.05-0.49-0.05C72.2,131.26,70.53,132.99,69.93,135.63 M131.28,134.91c0.01-1.33,0.01-2.66,0.02-3.98
		c0.01-1.68,1.52-2.48,3.63-3.08c0.88-0.25,1.62-0.37,2.26-0.37c1.52,0,2.44,0.66,3.12,1.65c-0.52-0.33-1.16-0.52-1.98-0.52
		c-0.64,0-1.38,0.11-2.25,0.37c-2.11,0.6-3.62,1.4-3.63,3.08c0,0.85-0.01,1.7-0.01,2.55C132.04,134.71,131.65,134.81,131.28,134.91
		 M67.96,134.36c-0.37-0.75-0.73-1.52-1.13-2.25c0.01-1.95,0.02-3.89,0.03-5.84c0.01,0,0.02,0,0.04,0c0.39,0,0.77-0.17,1.11-0.31
		C67.98,128.76,67.97,131.56,67.96,134.36 M60.75,131.92L60.75,131.92 M60.75,131.92c-1.14-0.97-1.96-1.96-1.95-3.31
		c0.01-1.17,0.81-1.74,1.78-1.74c0.28,0,0.57,0.05,0.87,0.14c1.31,0.41,2.27,1.18,3.04,2.13c-0.54-0.42-1.16-0.77-1.9-0.99
		c-0.29-0.09-0.59-0.14-0.87-0.14c-0.98,0-1.78,0.57-1.78,1.74C59.94,130.59,60.25,131.28,60.75,131.92 M141.99,131.25
		c-0.32-0.65-0.68-1.23-1.14-1.68c0.01-1.81,0.02-3.63,0.03-5.44c0.39-0.21,0.78-0.49,1.15-0.91
		C142.02,125.89,142.01,128.57,141.99,131.25 M148.27,129.56c0.01-1.4,0.01-2.81,0.02-4.22c0.01-1.65,1.72-2.7,3.42-3.45
		c0.64-0.28,1.16-0.41,1.57-0.41c0.8,0,1.22,0.47,1.4,1.16c-0.08-0.01-0.17-0.02-0.27-0.02c-0.42,0-0.93,0.12-1.57,0.41
		c-1.7,0.75-3.41,1.8-3.42,3.45c0,0.88-0.01,1.76-0.01,2.63C149.04,129.27,148.66,129.42,148.27,129.56 M156.82,129.05
		c-0.37-0.36-0.9-0.56-1.66-0.56c-0.03,0-0.07,0-0.1,0c1.46-1.31,3.3-3.19,3.32-6.98c0-1.04-0.17-1.85-0.48-2.46
		c1.03,0.51,1.63,1.66,1.62,3.6C159.5,125.91,158.14,127.76,156.82,129.05 M168.41,125.34l-3.91-9.26c-0.32-0.73-0.58-1.46-0.79-2.2
		s-0.31-1.35-0.31-1.83c0-0.09,0.01-0.21,0.04-0.36c0.07-0.35,0.17-0.66,0.29-0.93h2.01c-0.33,0.3-0.59,0.6-0.76,0.91
		c-0.17,0.31-0.31,0.7-0.4,1.16c-0.03,0.15-0.04,0.27-0.04,0.36c0,0.48,0.1,1.08,0.31,1.82c0.21,0.74,0.47,1.48,0.79,2.2l3.1,7.36
		L168.41,125.34 M154.69,122.65L154.69,122.65 M37.71,116.92L37.71,116.92 M177.25,67.99c-4.96,0-8.69-1.42-11.31-4.41
		c2.53,2.21,5.89,3.27,10.17,3.27c3.54,0,5.77-0.56,7.74-1.06c1.48-0.37,2.76-0.69,4.24-0.69c0.94,0,1.88,0.3,2.74,0.85V48.62
		c0-1.99,0.19-3.25,0.48-4.28h1.53c-0.5,1.29-0.86,2.64-0.86,5.42v17.33c-0.86-0.55-1.8-0.85-2.74-0.85c-1.48,0-2.76,0.32-4.25,0.69
		C183.02,67.43,180.79,67.99,177.25,67.99 M30.03,66.08h-9.74c0.26-0.39,0.48-0.77,0.67-1.14h7.93c-1.99-2.8-1.99-4.82-1.99-8.99
		V29.7c0-2.86,0-7.18,4.91-7.18c2.52,0,4.56,1.29,6.18,3.14c-1.41-1.22-3.07-2-5.04-2c-4.91,0-4.91,4.32-4.91,7.18v26.25
		C28.04,61.26,28.04,63.28,30.03,66.08 M170.65,59.84L170.65,59.84 M170.65,59.84c-4.72-3.92-4.73-12.75-4.73-16.2
		c0-11.78,4.52-19.39,11.51-19.39c3.88,0,6.77,1.87,9,4.32c-2.05-1.87-4.61-3.18-7.86-3.18c-7,0-11.51,7.61-11.51,19.39
		C167.06,47.92,167.07,55.55,170.65,59.84 M156.65,56.8L156.65,56.8 M156.65,56.8l-0.44-0.2c-1.94-0.88-3.91-1.73-5.87-2.52
		L150.13,54l0.09-0.21c0.05-0.13,0.08-0.26,0.09-0.39c1.6,0.66,3.2,1.35,4.77,2.07l0.44,0.2l-0.13-0.47
		c-0.21-0.78-0.29-1.53-0.29-2.77V27.96c0-2.07,0-3.87,1.2-5.32c0.42,0.19,0.83,0.38,1.24,0.58l0.28,0.13l-0.21,0.23
		c-1.38,1.48-1.38,3.36-1.37,5.52v24.47c0,1.24,0.08,1.99,0.29,2.77L156.65,56.8 M45.01,56.49l0.31-0.59c0.28-0.53,0.51-1,0.69-1.52
		c4.84-2.16,9.8-4.05,14.79-5.63c2.12-0.66,2.96-0.86,3.56-0.86c0.26,0,0.49,0.04,0.71,0.14l0.32,0.13v-7.21
		c0.44-0.71,0.81-1.44,1.14-2.2l0,0.33v10.21l-0.32-0.13c-0.22-0.09-0.45-0.14-0.71-0.14c-0.6,0-1.44,0.2-3.56,0.86
		c-5.52,1.75-11.01,3.88-16.32,6.33L45.01,56.49 M141.16,50.77l-0.55-0.18c-2.34-0.74-4.7-1.43-7.03-2.04l-0.37-0.1l0.26-0.28
		c0.12-0.13,0.23-0.26,0.34-0.4c1.88,0.51,3.78,1.07,5.66,1.67l0.55,0.18l-0.28-0.5c-1.49-2.67-1.49-4.9-1.49-7.73V20.83l0.7,1.91
		c0.15,0.41,0.29,0.82,0.44,1.22v18.56c0,2.83,0,5.06,1.49,7.73L141.16,50.77 M70.24,47.78l0.3-0.47c0.26-0.41,0.47-0.77,0.65-1.15
		c5.2-1.16,10.5-2.02,15.76-2.58c1.43-0.14,2.2-0.2,2.76-0.2c0.72,0,1.17,0.09,1.55,0.32l0.34,0.2v-7.86
		c0.43-0.63,0.81-1.29,1.14-1.98l0,0.57v10.41l-0.34-0.2c-0.38-0.23-0.84-0.32-1.55-0.32c-0.56,0-1.34,0.06-2.76,0.2
		c-5.79,0.61-11.61,1.59-17.31,2.93L70.24,47.78 M129.38,47.4L129.38,47.4 M129.38,47.4l-0.58-0.12c-2.58-0.54-5.2-1.01-7.77-1.41
		l-0.45-0.07l0.32-0.32c0.17-0.17,0.33-0.34,0.46-0.52c2.1,0.34,4.21,0.73,6.3,1.17l0.58,0.12l-0.35-0.48
		c-1.51-2.08-1.51-3.66-1.51-7.48V18.67c0-1.99,0-4.04,1.23-5.69c0.47,0.1,0.94,0.19,1.41,0.29l0.4,0.08l-0.28,0.29
		c-1.62,1.72-1.62,3.98-1.62,6.17v19.63c0,3.82,0,5.4,1.51,7.48L129.38,47.4 M51.35,46.93L51.35,46.93 M51.35,46.93
		c-0.86-0.28-1.29-1.01-1.3-2.2v-7.4l1.66-0.69c0.66-0.27,1.32-0.54,1.99-0.8c1.63-0.6,2.9-0.89,3.88-0.89
		c0.87,0,1.52,0.22,2.11,0.7l0.37,0.31V29.5c0.26-0.29,0.5-0.58,0.73-0.89l0.41-0.55v9.05l-0.37-0.31c-0.59-0.49-1.24-0.7-2.11-0.7
		c-0.99,0-2.26,0.29-3.88,0.89c-0.66,0.25-1.32,0.53-1.98,0.8l-1.66,0.69v7.4C51.19,46.28,51.25,46.63,51.35,46.93 M117.76,46.08
		l-0.37-0.3c-0.73-0.59-1.5-0.78-4.08-1.01c-3.89-0.33-7.85-0.49-11.75-0.49c-1.43,0-2.85,0.02-4.22,0.06l-0.47,0.01l0.28-0.38
		c0.19-0.26,0.36-0.53,0.51-0.81c0.91-0.02,1.83-0.03,2.76-0.03c3.9,0,7.86,0.17,11.75,0.49c2.59,0.23,3.35,0.42,4.08,1.01l0.37,0.3
		v-8.72c0.43-0.57,0.81-1.19,1.13-1.85l0.01,0.77V46.08 M151.16,43.88l-0.12-0.29c-1.95-5.68-4.09-11.59-6.16-17.32
		c-0.79-2.18-1.57-4.35-2.34-6.5c-0.1-0.3-0.24-0.61-0.36-0.88c-0.27-0.63-0.55-1.27-0.55-1.95c0-0.07,0.01-0.14,0.02-0.22
		c0.37,0.11,0.73,0.23,1.07,0.34l0.2,0.07l-0.05,0.2c-0.05,0.22-0.1,0.47-0.1,0.74c0,0.68,0.28,1.32,0.55,1.95
		c0.12,0.27,0.25,0.57,0.36,0.88c0.77,2.15,1.55,4.32,2.34,6.5c1.71,4.73,3.46,9.59,5.12,14.35L151.16,43.88 M77.1,39.82L77.1,39.82
		 M77.1,39.82c-0.93-0.43-1.38-1.24-1.38-2.45v-7.46L76,29.86c0.41-0.08,0.82-0.15,1.23-0.24c0.75-0.15,1.56-0.31,2.35-0.43
		c0.98-0.15,1.82-0.22,2.55-0.22c2.06,0,2.95,0.6,3.6,1.25l0.39,0.38v-6.77c0.26-0.23,0.51-0.48,0.74-0.75l0.4-0.45v9.11l-0.39-0.38
		c-0.65-0.65-1.54-1.25-3.6-1.25c-0.73,0-1.57,0.07-2.55,0.22c-0.79,0.13-1.59,0.28-2.35,0.43c-0.41,0.08-0.82,0.16-1.23,0.24
		l-0.29,0.06v7.46C76.85,39.01,76.94,39.45,77.1,39.82 M104.24,38.32c-1.13-0.67-1.69-1.84-1.69-3.52V16.43
		c0-3.61,0.5-5.19,1.14-6.21c0.51,0.01,1.01,0.02,1.52,0.03l0.47,0.01l-0.31,0.36c-0.89,1.05-1.69,2.37-1.69,6.95v18.37
		C103.69,36.9,103.88,37.69,104.24,38.32 M190.58,33.84c-0.36-0.59-0.73-1.18-1.14-1.76V21.51c0.39-0.1,0.77-0.25,1.14-0.47V33.84
		 M50.05,32.9v-6.59c0-3.21,3.22-4.74,5.63-5.61c1.43-0.51,2.66-0.75,3.77-0.75c1.89,0,3.33,0.71,4.51,2.21
		c-0.95-0.72-2.05-1.07-3.37-1.07c-1.11,0-2.34,0.25-3.77,0.75c-2.42,0.87-5.63,2.4-5.63,5.61v4.99c-0.22,0.09-0.43,0.17-0.64,0.26
		L50.05,32.9 M41.49,30.33c-0.35-0.66-0.73-1.31-1.14-1.92v-9.78c0.4-0.05,0.78-0.12,1.14-0.24V30.33 M8.81,29.98v-2.9
		c2.07-2.82,4.7-4.56,7.34-4.56c1.84,0,3.16,0.62,3.94,1.85c-0.74-0.47-1.67-0.71-2.8-0.71C14.14,23.66,10.99,26.14,8.81,29.98
		 M37.98,25.65L37.98,25.65 M75.71,25.43v-6.49c0-3.63,4.47-4.27,5.94-4.49c0.7-0.1,1.35-0.14,1.97-0.14c2.62,0,4.59,0.88,6.1,2.72
		c-1.33-1.07-2.95-1.58-4.96-1.58c-0.62,0-1.27,0.05-1.97,0.14c-1.47,0.21-5.93,0.86-5.94,4.49v5.14c-0.24,0.04-0.48,0.09-0.71,0.13
		L75.71,25.43 M65.68,24.04l-0.41-0.56c-0.23-0.31-0.48-0.59-0.73-0.84v-7.77c0.26-0.14,0.52-0.29,0.78-0.48l0.36-0.26V24.04
		 M44.89,22.87l-0.26-0.2l0.09-0.04C44.79,22.71,44.84,22.79,44.89,22.87 M91.87,19.63l-0.42-0.64c-0.23-0.35-0.47-0.67-0.72-0.96
		V10.2c0.27-0.09,0.54-0.2,0.81-0.34l0.33-0.18V19.63 M69.96,13.81L69.96,13.81 M69.96,13.81l-0.02-0.02l0,0L69.96,13.81
		 M110.12,154.05c-0.67-0.54-0.79-0.74-1.9-0.74c-0.32,0-0.72,0.02-1.24,0.04c-2.14,0.11-4.29,0.16-6.43,0.16
		c-1.6,0-3.2-0.03-4.79-0.09c0.37-0.35,0.65-0.69,0.87-1.09c0.97,0.02,1.93,0.03,2.9,0.03c2.11,0,4.21-0.05,6.32-0.16
		c0.52-0.03,0.92-0.04,1.24-0.04c1.12,0,1.23,0.19,1.9,0.74c0.01-1.94,0.02-3.88,0.03-5.82c0.55-0.97,0.89-2.03,1.16-2.94
		C110.15,147.45,110.14,150.75,110.12,154.05"/>
</g>
<polyline class="st1" points="129.05,54.57 129.07,54.6 129.05,54.57 "/>
<polyline class="st2" points="129.05,54.57 129.07,54.6 129.05,54.57 "/>
<path class="st1" d="M134.77,73.8C134.72,73.86,134.86,73.68,134.77,73.8"/>
<path class="st1" d="M120.91,82.99c0.02-0.16,0.07-0.31,0.12-0.45C121.11,81.98,121.16,81.29,120.91,82.99"/>
<path class="st2" d="M120.91,82.99c0.02-0.16,0.07-0.31,0.12-0.45C121.11,81.98,121.16,81.29,120.91,82.99"/>
<polyline class="st1" points="87.68,92.7 87.67,92.7 87.68,92.7 "/>
<polyline class="st2" points="87.68,92.7 87.67,92.7 87.68,92.7 "/>
<polyline class="st1" points="94.31,56.7 94.28,56.77 94.31,56.7 "/>
<polyline class="st2" points="94.31,56.7 94.28,56.77 94.31,56.7 "/>
<path class="st1" d="M97.4,56.95C97.34,57.05,97.4,56.95,97.4,56.95"/>
<path class="st1" d="M88.83,70.28C88.83,70.27,88.79,70.39,88.83,70.28"/>
<path class="st1" d="M117.25,86.64C117.34,86.55,117.24,86.65,117.25,86.64"/>
<path class="st2" d="M134.69,61.06c0.35,0.15,0.38,1.07,0.3,1.6c-0.16,1.09-0.84,1.84-1.27,2.59c-3.55,3.79-7.71,7.06-13.57,8.21
	c1.36-0.1,2.72-0.29,4.02-0.6c3.44-0.82,6.72-1.98,9.38-3.94c0.21-0.16,0.43-0.45,0.69-0.42c0.16,0.1,0.1,0.36,0.08,0.54
	c-0.08,1.26-0.72,1.98-1.4,2.65c-0.25,0.25-0.56,0.41-0.85,0.63c-0.57,0.43-1.13,0.86-1.73,1.23c-3.68,2.27-8.38,3.55-13.62,3.7
	c5.39,0.59,11.32-0.59,15-2.92c0.1,2.08-1.22,2.92-2.45,3.73c-3.24,2.12-7.84,3.31-12.74,2.86c-0.78-0.07-1.59-0.15-2.34-0.3h-0.02
	c4.03,1.77,10.2,2.23,14.61,0.45c0.05,0.93-0.52,1.69-1.04,2.2c-2.04,1.33-4.78,1.93-7.87,1.71c-2.99-0.21-5.46-1.12-7.56-2.14
	c1.64,1.28,3.79,2.39,6.11,3.13c2.4,0.77,5.09,0.9,7.76,0.48c-0.22,0.98-0.97,1.68-1.81,1.96c-2.41,0.8-5.37,0.47-7.68-0.24
	c-2.34-0.72-4.35-2.03-6-3.28c2.69,3.1,6.24,5.66,11.06,6.35c-0.25,0.7-0.73,1.22-1.32,1.47c-0.27,0.12-0.77,0.27-1.13,0.27
	c-1.43,0.03-2.86-0.4-4.04-0.93c-1.18-0.53-2.23-1.24-3.08-1.96c-1.3-1.09-2.64-2.42-3.72-3.94c-0.16-0.23-0.32-0.46-0.52-0.75
	c-0.11-0.16-0.44-0.68-0.66-0.6c-0.31,0.11-0.02,0.92,0.03,1.06c0.15,0.41,0.42,0.84,0.63,1.26c1.46,2.87,3.48,5.33,5.92,7.13
	c1.44,1.06,2.97,1.91,5.09,2.2c2.1,0.29,4.38-0.35,5.67-1.39c0.22-0.18,0.71-0.86,1.29-0.6c0.17,0.08,0.29,0.39,0.3,0.57
	c0.03,0.48-0.37,1.03-0.61,1.23c-0.33,0.28-0.77,0.54-1.18,0.78c-1.14,0.66-2.73,1.18-4.41,1.11c-2.26-0.08-4.01-0.88-5.64-1.92
	c-2.47-1.59-4.2-3.65-5.8-5.99c-0.37-0.54-0.75-1.21-1.1-1.87c-0.23-0.43-0.23-0.72-0.77-0.75c-0.23,0.51,0.03,1.1,0.16,1.56
	c1.03,3.58,2.64,6.56,4.79,8.91c1.86,2.03,4.03,3.77,7.46,3.88c0.75,0.02,1.5-0.06,2.32-0.27c0.51-0.14,1.52-0.31,1.48,0.51
	c-0.02,0.62-1.14,0.93-1.95,1.08c-3.55,0.7-6.31-0.86-8.39-2.62c-1.6-1.34-2.79-3.01-3.91-4.78c-0.28-0.45-0.6-0.87-0.85-1.36
	c-0.96-1.87-1.85-4.05-2.37-6.47c-0.26-1.23-0.46-2.49-0.69-3.76c-0.11-0.65-0.27-1.38-0.27-1.96c-0.01-0.46,0.16-0.84,0.25-1.29
	c0.18-0.93,0.44-1.86,0.39-2.86c0.45-0.01,0.89,0.03,1.35-0.09c1.35-0.34,2.64-1.57,3.05-2.65c0.18-0.48,0.27-0.98,0.3-1.44
	c0.17-2.15-0.88-3.81-1.84-4.91c-0.2-0.23-0.65-0.76-0.52-1.32c0.09-0.41,0.98-0.57,1.49-0.72c3.9-1.19,7.54-2.67,10.79-4.52
	c3.81-2.16,6.8-4.94,9.08-8.7c0.94,1.64-0.31,3.48-1.02,4.6c-1.09,1.76-2.58,3.31-4.05,4.61c-2.13,1.88-4.68,3.09-7.26,4.15
	c0.98-0.06,1.89-0.35,2.75-0.63c4.18-1.39,7.38-4.16,10.38-7.04c0.59-0.58,1.19-1.17,1.76-1.78c0.56-0.59,1.05-1.28,1.65-1.77
	c0.33,0.29,0.35,1.37,0.19,1.99c-0.38,1.48-1.54,2.57-2.31,3.64c-0.36,0.49-0.87,0.93-1.35,1.38c-1.4,1.3-2.74,2.63-4.29,3.79
	c-2.09,1.57-4.55,2.79-7.15,3.43c3.77-0.28,6.81-1.77,9.44-3.43c1.68-1.06,3.2-2.19,4.71-3.46c0.28-0.24,0.62-0.43,0.88-0.69
	c0.42-0.41,0.87-0.78,1.29-1.2c0.07-0.07,0.23-0.21,0.28-0.33C134.65,61.16,134.58,60.95,134.69,61.06 M133.73,63.35l-0.05,0.06
	c-2.99,2.64-6.01,4.99-9.69,6.62c-1.51,0.67-3.1,1.19-4.9,1.5c-1.4,0.24-3.3,0.01-4.4,0.81c3.84,0.65,7.65-0.41,10.6-1.99
	c2.99-1.6,5.65-3.65,7.98-5.87C133.42,64.13,133.71,63.76,133.73,63.35 M132.3,70.75l-0.03-0.03c-0.45,0.37-0.93,0.62-1.46,0.87
	c-0.49,0.24-1.01,0.47-1.54,0.69c-2.08,0.87-4.31,1.68-6.52,2.14c-1.2,0.25-2.45,0.48-3.77,0.48c-0.42,0-0.87-0.07-1.29-0.06
	c-0.68,0.02-1.43,0.23-1.93,0.45c-0.16,0.07-0.38,0.16-0.44,0.33c3.78,0,8.24-0.34,11.53-1.6C128.94,73.24,130.97,72.36,132.3,70.75
	 M131.61,58.87c-0.11,0.21-0.38,0.46-0.63,0.72c-0.64,0.64-1.34,1.22-1.96,1.78c-0.9,0.81-1.77,1.61-2.67,2.29
	c-2.19,1.64-4.45,3.38-7.1,4.39c-0.81,0.31-1.56,0.69-2.4,0.9c-0.64,0.17-1.27,0.29-1.79,0.57c-0.14,0.08-0.35,0.12-0.39,0.3
	c1.63-0.07,3.1-0.47,4.51-0.87c0.74-0.21,1.46-0.59,2.15-0.9c2.8-1.25,4.98-3.2,7.13-5.23C129.6,61.75,131.15,60.44,131.61,58.87
	 M129.74,76.26v-0.03c-2.07,0.99-4.45,1.73-7.21,2.02c-2.03,0.21-4.31,0.18-6.3,0.03c-1.43-0.11-2.71-0.46-3.77,0.27
	c1.29,0.11,2.67,0.43,4.15,0.57c1.44,0.13,3.02,0.21,4.41,0.12c2.97-0.19,5.69-0.97,7.87-2.11
	C129.16,76.83,129.54,76.64,129.74,76.26 M127.51,57.09v-0.03c-1.61,2.12-3.46,3.82-5.64,5.3c-1.9,1.29-3.97,2.39-6.08,3.37
	c-0.32,0.15-0.66,0.23-0.96,0.39c-0.31,0.17-0.72,0.56-0.96,0.81c-0.1,0.1-0.26,0.2-0.22,0.27c5.2-1.71,9.65-4.22,12.69-8.25
	C126.76,58.39,127.26,57.81,127.51,57.09 M124.04,83.6c1.26-0.2,2.45-0.39,3.08-1.26c-4.15,1.47-9.27,0.75-13.07-0.72
	c-0.87-0.33-1.87-0.95-2.94-0.63c1.94,0.9,4.19,1.96,6.8,2.47C119.85,83.82,122.2,83.89,124.04,83.6 M124.4,87.33
	c-3.41,0.35-6.2-0.31-8.86-1.47c-1.23-0.54-2.37-1.26-3.47-1.96c-0.64-0.41-1.23-0.99-2.18-1.03l-0.03,0.03
	c0.75,0.6,1.59,1.26,2.51,1.87c2.13,1.39,4.42,2.65,7.46,3.04C121.34,88.01,123.3,88.18,124.4,87.33 M115.68,91.03
	c1.15,0.57,3.11,1.25,4.35,0.63c-2.17-0.39-4.06-1.18-5.67-2.26c-1.28-0.86-2.33-1.85-3.41-2.89c-0.77-0.74-1.32-1.82-2.39-2.2
	C110.28,86.97,112.67,89.55,115.68,91.03"/>
<path class="st2" d="M115.82,111.1c0.48,1.67,0.45,3.36-0.25,4.88c-0.32,0.69-0.87,1.34-1.4,1.89c-1.59,1.65-3.87,2.76-6.14,3.58
	c-1.6,0.58-3.42,0.96-5.2,1.11c-1.85,0.16-3.8,0.07-5.64,0.03c-3.67-0.08-7.1-1.12-9.88-2.68c-1.33-0.75-2.58-1.7-3.66-2.86
	c-1.07-1.14-2.13-2.45-2.2-4.45c-0.06-1.6,0.43-3.05,1.02-4.19c0.63-1.21,1.35-2.13,2.23-2.95c0.86-0.79,1.96-1.39,3.05-2.08
	c0.76-0.47,1.49-1,2.15-1.71c0.18-0.2,0.49-0.52,0.52-0.75c0.06-0.41-0.22-0.98-0.08-1.35c0.02-0.1,0.03-0.13,0.05-0.33
	c0.27-2.06,1.06-3.66,2.09-4.87c0.4-0.47,0.83-0.87,1.07-1.41c0.57-1.25,0.8-2.84,1.02-4.46c0.22-1.62,0.22-3.37,0.47-5.05
	c-0.04,1.62,0.2,3.03,0.61,4.36c0.43,1.4,0.96,3.23,0.22,4.55c-0.11,0.19-0.31,0.36-0.47,0.6c-0.28,0.43-0.53,0.89-0.85,1.32
	c-0.31,0.41-0.56,0.86-0.85,1.29c-1.05,1.58-2.36,3.97-1.85,6.71c0.11,0.6,0.34,1.15,0.61,1.59c0.27,0.45,0.62,0.79,0.94,1.2
	c-1.33-0.52-2.14-1.62-2.67-3.01c-0.49,1.15-1.44,1.89-2.4,2.59c-0.05,0.04-0.08,0.04-0.14,0.09c-0.26,0.23-0.64,0.39-0.94,0.63
	c-0.97,0.78-1.77,1.77-2.42,2.98c-0.66,1.23-1.18,3.3-0.58,5.03c0.28,0.8,0.73,1.52,1.18,2.14c1.39,1.88,3.49,3.07,5.94,3.79
	c-0.29-0.88-0.96-1.33-1.48-1.9c-0.64-0.68-1.08-1.7-0.99-3.19c0.11-1.76,1.11-3.25,2.06-4.24c0.48-0.5,1.07-0.97,1.65-1.44
	c0.6-0.48,1.16-0.99,1.43-1.69c0.38-0.96,0.02-1.66-0.16-2.61c-0.49-2.53,0.54-5.19,1.35-7.13c0.34-0.81,0.76-1.59,1.16-2.35
	c0.19-0.37,0.46-0.71,0.66-1.08c0.26-0.49,0.63-0.94,0.69-1.66c0.08-0.88-0.14-1.75-0.39-2.44c-0.32-0.87-0.77-1.73-1.07-2.68
	c-0.64-2.02-1.09-4.52-0.05-6.65c-0.35-0.8-0.6-2.06-0.52-3.19c0.02-0.28,0.05-0.6,0.22-0.79c0.31,3.24,2.35,4.88,3.6,7.28
	c0.43,0.82,1,2.27,0.61,3.4c-0.81-2.49-2.61-3.89-3.66-6.11c-0.32,3.28,1.38,5.44,2.09,8.12c0.29,1.11,0.57,2.41,0.19,3.49
	c-0.16,0.47-0.45,0.89-0.69,1.33c-0.7,1.28-1.3,2.66-1.79,4.18c-0.48,1.48-0.99,3.08-0.85,5.14c0.08,1.14,0.51,2.31,0.14,3.43
	c-0.35,1.05-1.16,1.88-1.79,2.8c-0.97,1.42-2.07,3.76-1.79,6.41c0.11,0.99,0.46,1.98,0.91,2.65c0.63,0.93,1.68,1.49,2.86,1.93
	c1.34,0.49,3.51,0.75,4.57-0.09c0.16-0.12,0.41-0.29,0.5-0.51c0.12-0.3,0.11-0.68,0.08-0.96c-0.08-0.98-0.71-1.57-1.1-2.2
	c-1-0.81-1.95-1.9-2.72-3.16c-0.76-1.24-1.4-2.76-1.32-4.63c0.05-1.15,0.52-1.97,0.77-2.86c0.28-0.34,0.48-0.78,0.74-1.2
	c0.24-0.39,0.46-0.82,0.63-1.3c0.35-0.95,0.65-2.15,0.6-3.28c-0.03-0.76-0.27-1.32-0.41-1.96c0.59,0.53,0.81,1.45,0.91,2.35
	c0.21,2.08-0.51,3.81-1.26,5.21c-0.18,0.33-0.36,0.75-0.47,1.17c-0.14,0.54-0.28,1.22-0.14,1.81c0.4,1.67,1.63,2.89,2.64,4.03
	c1.06,1.2,2.33,2.27,2.72,3.94c0.1,0.41,0.17,0.95,0.14,1.47c-0.06,1.08-0.59,1.85-1.1,2.44c1.18-0.27,2.33-0.79,3.27-1.53
	c1.06-0.85,2.04-2.15,2.12-3.91c0.04-0.85-0.23-1.4-0.49-2.02c-0.52-1.19-1.18-2.26-1.9-3.22c-0.95-1.81-1.93-4.91-0.82-7.22
	c0.02,0.57-0.01,1.09,0.06,1.6c0.18,1.44,0.83,2.63,1.54,3.55c0.99,1.28,2.36,2.13,3.11,3.61c0.18,0.35,0.25,0.76,0.47,1.11
	c0.49,2.34-0.44,4.17-1.51,5.45c-0.83,1-1.87,1.75-2.95,2.29c1.8-0.2,3.25-0.84,4.54-1.87c1.28-1.02,2.72-2.37,2.56-4.87
	c-0.12-1.81-0.92-3.16-1.79-4.18c-0.45-0.52-0.94-1.03-1.49-1.45c-0.89-0.68-1.58-1.36-1.63-2.95c0.19,0.19,0.25,0.45,0.39,0.69
	c0.12,0.22,1.04,1.12,2.11,1.68c0.47,0.24,1.07,0.65,1.57,1.05c1.58,1.26,3.37,3.69,2.81,6.62c0.34-0.55,0.57-1.83,0.41-3.01
	c-0.29-2.13-1.4-3.85-2.7-5.2c-0.52-0.54-1.18-0.88-1.73-1.32c-0.89-0.71-1.81-1.52-2.09-2.92c-0.56,1.24-1.55,1.99-2.94,2.32
	c-0.04-0.11,0.13-0.16,0.19-0.21c0.23-0.19,0.59-0.51,0.77-0.75c0.54-0.74,0.79-2,0.71-3.07c-0.12-1.77-1.07-2.95-1.9-4.33
	c-0.71-1.18-1.66-2.63-1.98-4.21c-0.1-0.5-0.13-1.05-0.03-1.5c0.06-0.27,0.21-0.51,0.3-0.75c0.35-0.97,0.54-1.97,0.8-3.01
	c0.26-1.02,0.35-2.18,0.22-3.52c0-0.16,0.02-0.04,0.06,0c0.48,1.66,0.41,3.58,0.41,5.39c0,0.63-0.09,1.34-0.05,1.83
	c0.06,0.88,0.45,1.81,0.82,2.53c0.77,1.48,1.72,2.6,2.37,4.21c0.4,1,0.69,2.13,0.64,3.31c-0.01,0.21-0.08,0.49-0.05,0.72
	c0.06,0.63,0.82,1.41,1.21,1.75c0.57,0.5,1.11,0.85,1.7,1.2C113.12,105.97,114.89,107.87,115.82,111.1"/>
<path class="st2" d="M105.85,55.47c-0.14,0.15-0.46,0.04-0.72,0.06c-0.58,0.05-0.98,0.21-1.35,0.45c-0.67,0.45-0.99,1.45-1.82,1.83
	c0.38,0.25,0.92,0.46,1.54,0.33c0.35-0.07,0.62-0.37,0.88-0.3c-0.09,0.4-0.41,0.74-0.71,0.99c-0.6,0.51-1.58,0.66-2.31,1.08
	c-0.03,0.51-0.15,0.8-0.3,1.26c-0.35,1.11-1.01,1.97-2.17,2.17c-0.02-0.21,0.17-0.33,0.27-0.48c0.31-0.45,0.5-1.08,0.55-1.87
	c-0.46,0.3-0.91,0.8-1.29,1.35c-0.56,0.82-1.14,2.29-0.72,3.7c0.05,0.18,0.21,0.35,0.14,0.51c-0.56-0.75-1.19-1.61-1.1-2.92
	c0.09-1.24,0.73-2.14,1.34-2.82l0.06-0.04h-0.03l-0.04,0.04c-1.32,0.87-2.96,2.38-2.96,4.71c0,0.68,0.36,1.58,0.63,2.14
	c0.91,1.84,2.56,3.14,3.74,4.54c1.15,1.54,2.51,3.35,2.69,5.87c0.04,0.49,0.03,1-0.11,1.42c-0.45-3.09-2.23-4.85-4.13-6.59
	c-0.48-0.43-0.99-0.79-1.43-1.23c-0.84-0.85-1.57-2-2.06-3.28c-0.54-1.4-0.69-3.5-0.11-5c0.48-1.25,1.32-2.33,2.17-3.16
	c-1.93,1.09-3.81,2.65-3.94,5.72c-0.52-0.49-0.83-1.45-0.77-2.32c0.09-1.22,0.81-2.09,1.32-2.8c-1.57,0.99-3.39,2.61-3.19,5.32
	c0.06,0.83,0.42,1.48,0.74,2.17c-1.03-0.43-1.71-1.89-1.65-3.34c0.06-1.55,0.87-2.68,1.54-3.52c-0.65,0.36-1.25,1.04-1.82,1.59
	c-0.2,0.41-0.51,0.77-0.72,1.26c-0.3,0.7-0.48,1.51-0.41,2.41c0.06,0.87,0.42,1.63,0.77,2.23c-0.14,0.08-0.29-0.09-0.36-0.18
	c-0.81-1-1.34-2.96-0.91-4.78c0.3-1.3,1.21-2.48,2.17-3.25c1.03-0.82,2.27-1.41,3.38-1.83c-1.48,0.31-2.88-0.42-3.27-1.5
	c0.53,0.4,1.16,0.77,2.06,0.75c1.32-0.04,2.5-0.66,3.6-1.18c1.12-0.52,2.19-1.19,3.63-1.12c-0.52-0.3-1.28-0.47-2.12-0.42
	c-0.17,0.01-0.35,0.11-0.47-0.03c0.07-0.19,0.31-0.15,0.47-0.18c1.04-0.21,2.32-0.2,3.33,0.18c0.16,0.06,0.32,0.19,0.47,0.21
	c0.25,0.04,0.64-0.08,0.91-0.15c0.4-0.1,0.77-0.32,1.18-0.42C103.63,54.78,104.9,54.81,105.85,55.47 M102.73,55.85
	c0.01-0.05,0.06-0.08-0.04-0.08c-0.54,0.21-1.13,0.36-1.64,0.61c0.05,0.38,0.11,0.57,0,0.89C101.82,57.03,102.2,56.36,102.73,55.85
	 M99.88,57.06l-0.03,0.04h-0.01c-1.13,0.07-2.37,0.39-3.18,0.94c0.73,0.17,1.64,0.22,2.36,0c0.21-0.35,0.66-0.65,0.83-0.94
	L99.88,57.06"/>
<path class="st2" d="M103.87,75.75c0.18,1.88-0.18,4.03-1.05,5.66c0.64-2.58,0.12-5.25-0.77-7.19c-0.9-1.96-2.28-3.55-3.77-4.76
	l-0.05-0.03c0-0.14-0.46-0.49-0.74-0.78c-0.67-0.71-1.55-1.75-1.71-2.92c-0.07-0.54,0.02-1.55,0.41-1.83
	c-0.13,2.6,1.95,3.59,3.22,4.75c-0.41-0.76-1.14-1.85-1.02-3.22c0.06-0.74,0.41-1.27,0.8-1.72c-0.04,0.36-0.22,0.78-0.14,1.29
	c0.28,1.77,1.57,2.78,2.39,4.06C102.59,70.85,103.63,73.19,103.87,75.75"/>
<path class="st2" d="M102.74,111.97c-0.08-0.06-0.7-0.37-0.93-0.51c-0.92-0.57-1.69-1.6-2.04-2.83c-0.63-2.2,0.05-4.77,0.71-6.59
	c0.12-0.9,0.12-2.16-0.22-3.04c-0.22-0.56-0.51-1.08-0.63-1.72c-0.2-1-0.18-2.27,0.22-3.28c0.12-0.31,0.36-0.61,0.55-0.87
	c0.19-0.26,0.35-0.61,0.66-0.72c-0.95,1.69-0.41,4.19,0.36,5.54c0.1,0.16,0.23,0.29,0.33,0.45c0.8,1.35,0.99,3.59,0.28,5.26
	c-0.51,1.14-0.96,2.5-0.96,4.12C101.06,109.71,102.75,112.01,102.74,111.97"/>
<path class="st2" d="M102.71,105.36c0.04,0.23-0.04,0.32,0,0.54c-0.34,0.07-0.78,0.18-1.07,0.21c-0.07-0.18,0.07-0.35,0.05-0.57
	C102.06,105.51,102.44,105.28,102.71,105.36"/>
<path class="st2" d="M101.94,81.31c0.64,1.68,1,4.03,0.55,6.11c-0.41,1.88-1.22,3.51-2.5,4.39c0.71-1.29,1.05-2.84,1.13-4.6
	c0.12-2.67-1.03-4.89-2.03-6.5c-0.36-0.57-0.81-1.06-1.16-1.65c-0.92-1.56-1.98-3.7-1.32-6.17c-0.01-0.17,0.13-0.03,0.14-0.15
	c-0.03-0.04-0.03-0.07,0.03-0.09h0.06c0.5,1.77,1.4,3.2,2.48,4.42C100.35,78.27,101.32,79.67,101.94,81.31"/>
<path class="st2" d="M99.22,105.78c0.03,0.26-0.1,0.35-0.08,0.6c-0.35-0.12-0.86-0.06-1.24-0.15c0.09-0.2,0.28-0.29,0.33-0.54
	C98.57,105.7,98.87,105.76,99.22,105.78"/>
<path class="st2" d="M96.5,105.54c-0.07,0.15-0.19,0.26-0.19,0.48c-0.1,0.04-0.24-0.03-0.36-0.06
	C95.9,105.51,96.19,105.27,96.5,105.54"/>
<path class="st2" d="M96.06,73.16c-0.22,0.43-0.19,0.96-0.17,1.41c-0.24-0.12-0.37-0.38-0.52-0.6c-0.15-0.21-0.32-0.43-0.41-0.69
	c-0.55-0.79-1.37-2.1-1.35-3.52c0.01-0.73,0.3-1.16,0.47-1.78C93.65,70.1,95.1,71.86,96.06,73.16"/>
<path class="st2" d="M93.99,78.97c0.08,0.56,0.33,1.06,0.28,1.81c-0.05,0.76-0.38,1.55-0.55,2.38c-0.17,0.82-0.25,1.7-0.36,2.56
	c-0.22,1.75-0.8,3.05-1.29,4.49c-0.71,2.03-1.6,4.17-2.56,6.05c-0.33,0.65-0.62,1.32-0.96,1.89c-0.32,0.52-0.78,1-1.13,1.57
	c-0.7,1.1-1.5,2-2.53,2.8c-0.51,0.4-1.05,0.82-1.57,1.06c-0.32,0.14-0.85,0.33-1.16,0.33c-0.42,0-1.01-0.1-1.04-0.63
	c-0.04-0.57,0.8-1.14,1.16-1.32c0.35-0.19,0.7-0.26,1.02-0.42c0.91-0.47,1.71-1.14,2.45-1.89c2.34-2.38,3.93-5.92,4.46-10.35
	c0.09-0.77,0.35-2.34-0.22-2.43c-0.5-0.09-0.93,0.7-1.1,1.05c-0.25,0.52-0.44,1.21-0.63,1.77c-1.42,4.07-3.58,7.74-6.47,10.2
	c-1.62,1.17-3.73,2.8-6.36,2.92c-1.34,0.06-2.66-0.15-3.8-0.66c-1.03-0.46-2.15-0.98-2.75-1.89c-0.14-0.22-0.33-0.54-0.22-0.87
	c0.6-0.22,0.93,0.46,1.35,0.72c0.45,0.28,1.02,0.43,1.57,0.63c1.12,0.4,2.43,0.55,3.66,0.42c2.28-0.24,4.37-1.42,5.97-2.7
	c3.07-2.48,5.14-6.11,6.77-10.29c0.25-0.65,0.61-1.58,0.16-2.29c-0.22,0.15-0.34,0.52-0.52,0.81c-1.18,1.96-2.66,3.74-4.38,5.2
	c-0.99,0.85-2.05,1.53-3.3,2.11c-1.21,0.56-2.66,1.04-4.18,1.06c-2.43,0.02-5.2-1.21-6.39-3.07c-0.19-0.3-0.51-0.72-0.27-1.12
	c0.62-0.18,0.92,0.32,1.24,0.57c0.34,0.27,0.7,0.62,1.1,0.84c0.59,0.33,1.2,0.53,1.84,0.75c0.61,0.21,1.3,0.4,2.06,0.45
	c1.28,0.08,2.55-0.23,3.66-0.63c2.18-0.79,3.79-1.93,5.37-3.4c0.37-0.34,0.76-0.71,1.1-1.11c0.61-0.73,1.11-1.13,1.43-2.14
	c0.1-0.32,0.19-0.89-0.16-0.96c-0.46-0.09-0.78,0.72-0.99,0.99c-0.8,1.02-1.68,1.97-2.95,2.74c-1.49,0.91-3.73,1.62-5.61,0.96
	c-0.37-0.13-0.75-0.28-1.02-0.66c0.18-0.12,0.45-0.04,0.74-0.06c2.44-0.13,4.59-1.51,5.94-2.95c0.27-0.29,0.55-0.67,0.8-1.05
	c0.36-0.55,0.99-1.55,0.14-1.99c-0.32,0.27-0.58,0.61-0.88,0.93c-0.86,0.92-1.79,1.71-3,2.31c-1.5,0.76-3.61,1.38-5.75,0.94
	c-0.73-0.15-1.49-0.48-2.07-0.84c-0.18-0.12-0.46-0.19-0.47-0.45c2.49,0.45,4.75-0.86,6.36-1.84c0.82-0.49,1.62-1.02,2.31-1.59
	c0.75-0.62,1.42-1.29,2.12-1.92h0.03c-0.14-0.02-0.29,0.08-0.41,0.15c-0.39,0.23-0.79,0.53-1.24,0.75
	c-1.17,0.58-2.37,1.16-3.63,1.68c-0.64,0.27-1.33,0.41-2.01,0.63c-1.34,0.45-3.01,0.7-4.57,0.48c-1.05-0.15-1.97-0.52-2.75-1.12
	c-0.22-0.17-0.57-0.32-0.61-0.66c2.61,0.89,5.52-0.21,7.76-1.17c1.79-0.77,3.36-1.83,4.79-2.8c-1.22,0.54-2.46,1.06-3.8,1.56
	c-2.7,1.02-6.74,1.86-9.38,0.18c-0.61-0.38-1.21-0.99-1.49-1.78c0.75,0.26,1.51,0.45,2.34,0.42c0.8-0.02,1.62-0.18,2.37-0.33
	c1.52-0.31,3.05-0.74,4.4-1.11c-2.42,0.14-5.19,0.34-7.37-0.33c-1.09-0.33-2.01-0.78-2.78-1.47c-0.75-0.67-1.45-1.5-1.71-2.65
	c1.5,1.14,3.89,1.44,6.14,1.48c2.15,0.03,4.48,0.08,6.77-0.12c-3.08-0.43-6.43-0.79-9.22-1.72c-0.66-0.22-1.3-0.58-1.92-0.9
	c-0.61-0.31-1.22-0.74-1.68-1.14c-1.02-0.89-1.85-2.06-2.23-3.52c0.05-0.12,0.25,0.1,0.27,0.21c1.6,1.47,3.89,1.96,6.22,2.56
	c2.33,0.6,4.8,0.89,7.32,1.21c-4.89-1.16-10.09-2.27-13.29-5.3c-0.37-0.35-0.65-0.82-0.88-1.32c-0.14-0.3-0.21-0.54-0.25-0.88
	c-0.03-0.3,0.04-0.63-0.11-0.93c0.73,0.63,1.52,1.13,2.39,1.57c2.61,1.3,5.59,2.27,8.67,3.04c-1.16-0.57-2.51-1.09-3.69-1.78
	c-0.39-0.22-0.81-0.4-1.18-0.63c-1.14-0.71-2.28-1.34-3.36-2.14c-1.15-0.85-2.45-1.7-2.95-3.28c-0.16-0.51-0.12-1.75,0.27-2.11
	c0.76,2.06,2.65,2.77,4.52,3.76c2.34,1.24,5.41,2.15,7.92,2.95c-1.43-0.72-3.13-1.35-4.68-2.29c-1.51-0.91-3.1-1.65-4.18-2.83
	c-0.54-0.59-1.07-1.42-1.13-2.35c-0.03-0.5,0.14-0.83,0.14-1.26c0.24,0.17,0.27,0.46,0.47,0.69c0.53,0.65,1.3,1.26,2.09,1.72
	c2.36,1.39,4.94,2.44,7.73,3.46c1.77,0.64,3.66,1.24,5.42,1.98c1.29,0.55,2.6,1.1,3.77,1.84c0.18,0.11,0.38,0.25,0.55,0.39
	c0.52,0.43,0.95,0.81,1.4,1.44c0.26,0.37,0.53,1.05,0.41,1.57c-0.09,0.38-0.41,0.67-0.6,0.96c-0.57,0.87-1.12,2.12-1.02,3.7
	c0.06,0.99,0.36,1.82,0.82,2.35c0.74,0.84,1.78,1.46,2.89,1.93c1.65,0.69,3.69,0.72,5.92,0.63c0.35-0.01,1.62-0.19,1.82,0.12
	C94.01,78.38,93.96,78.73,93.99,78.97 M86.34,83.24c0.15-0.33,0.37-0.66,0.33-1.06c-0.71,0.18-1.12,1.26-1.4,1.92
	c-0.07,0.16-0.18,0.26-0.27,0.42c-0.13,0.21-0.18,0.49-0.3,0.69c-0.3,0.49-0.66,0.87-0.88,1.29c-0.32,0.18-0.49,0.53-0.74,0.78
	c-0.82,0.65-1.69,1.39-2.56,1.71c0.84-0.21,1.64-0.56,2.31-1.05c0.6-0.44,1.33-1.06,1.79-1.62C85.32,85.46,85.83,84.35,86.34,83.24
	 M84.41,80.77l-0.03-0.06c-0.38,0.05-0.65,0.21-0.93,0.36c-2.04,2.17-4.48,4.14-7.49,5.23c1.56-0.06,2.61-0.54,3.72-1.08
	c0.67-0.33,1.29-0.79,1.82-1.24C82.61,83.04,83.63,81.95,84.41,80.77 M82.16,79.24c-1.11,0-1.73,0.41-2.53,0.84
	c-2.09,1.12-4.08,2.24-6.36,3.07C76.91,82.57,79.59,81.03,82.16,79.24 M80.53,77.04c-1.51-0.1-2.45,0.35-3.61,0.75
	c-2.58,0.9-5.34,2.3-8.42,2.2c2,0.67,4.52-0.18,6.3-0.75C76.82,78.59,78.74,77.81,80.53,77.04 M78.28,64.97c0.03,0,0.04,0.05,0.06,0
	c-1.02-0.76-2.17-1.42-3.39-1.83c-0.43-0.15-0.89-0.23-1.35-0.39c-0.36-0.13-0.71-0.31-1.07-0.42c-2.28-0.73-4.45-1.57-6.41-2.65
	c-0.82-0.45-1.67-0.87-2.34-1.44c-0.07-0.06-0.15-0.24-0.27-0.18c0.1,0.14,0.24,0.25,0.3,0.42c1.33,1.26,3.01,2.22,4.82,2.95
	c1.37,0.55,2.78,1.14,4.19,1.59c0.49,0.16,0.95,0.34,1.43,0.51c0.35,0.12,0.72,0.16,1.07,0.27C76.32,64.13,77.3,64.6,78.28,64.97
	 M79.6,75.65c-0.76-0.25-1.76-0.35-2.56-0.3c-1.78,0.12-3.6,0.41-5.42,0.42c-2.1,0.02-4.44,0.1-6.25-0.36
	c-0.1,0.03,0.04,0.1,0.03,0.09c0.64,0.63,1.6,0.87,2.67,0.96C71.86,76.81,76.06,76.25,79.6,75.65 M77.12,68.38h0.06l-0.03-0.03
	c-0.07-0.13-0.19-0.24-0.3-0.36c-0.54-0.55-1.27-1.07-2.04-1.42c-0.64-0.29-1.27-0.64-1.92-0.87c-1.36-0.48-2.78-0.95-4.16-1.41
	c-2.07-0.69-3.98-1.64-5.78-2.58c-0.61-0.33-1.08-0.79-1.63-1.14c0.93,1.46,2.49,2.34,4.1,3.1c1.26,0.59,2.51,1.16,3.82,1.62
	c0.67,0.23,1.33,0.5,2.01,0.72C73.35,66.7,75.39,67.32,77.12,68.38 M78.36,73.28c-1.35-0.97-3.52-0.72-5.45-1.05
	c-1.13-0.2-2.28-0.3-3.38-0.48c-2.22-0.36-4.29-0.84-6.17-1.57l-0.03,0.03c0.49,0.44,0.97,0.67,1.54,0.93
	c0.53,0.24,1.09,0.45,1.71,0.6C70.1,72.65,74.36,73.05,78.36,73.28 M76.71,70.42c-0.89-1-2.61-1.26-4.18-1.56
	c-1.19-0.23-2.38-0.5-3.47-0.78c-2.61-0.69-5.27-1.49-7.29-2.77h-0.03c0.54,0.69,1.34,1.15,2.14,1.53c1.09,0.52,2.26,0.99,3.52,1.39
	C70.33,69.14,73.61,69.86,76.71,70.42"/>
<g>
	<path class="st2" d="M91.02,104.42c0.18,0.42,0.12,1.16-0.06,1.57c-0.51,1.21-1.66,1.67-2.51,2.59c-0.81,0.89-1.5,2.08-1.46,3.73
		c0.02,0.84,0.4,1.61,0.72,2.2c0.1,0.18,0.31,0.34,0.27,0.6c-0.17,0.07-0.3-0.14-0.41-0.24c-0.61-0.59-1.25-1.53-1.54-2.5
		c-0.41-1.37-0.01-2.96,0.55-3.97c0.47-0.84,1.22-1.65,1.95-2.2c0.2-0.15,0.43-0.24,0.63-0.39c0.55-0.41,1.31-0.78,1.79-1.29
		L91.02,104.42"/>
	<path class="st2" d="M158.87,42.88c0-15.45,6.52-24.68,17.43-24.68c3,0,4.59,0.46,5.98,0.87c1.18,0.34,2.3,0.67,3.92,0.67
		c0.73,0,1.45-0.21,2.11-0.6v12.8c-2.49-4.11-6.1-8.45-12.01-8.45c-7,0-11.51,7.61-11.51,19.39c0,4.48,0,18.13,10.44,18.13
		c5.58,0,9.05-3.89,9.05-10.14c0-4.47-1.21-6.71-2.65-8.43h8.93c-0.5,1.29-0.86,2.64-0.86,5.42v17.33c-0.86-0.55-1.8-0.85-2.74-0.85
		c-1.48,0-2.76,0.32-4.25,0.69c-1.97,0.5-4.2,1.06-7.74,1.06C163.84,66.09,158.87,58.93,158.87,42.88 M39.21,28.43V16.49
		c-0.96,0.32-2.06,0.32-3.36,0.32H10.65c-1.82,0-2.97-0.03-4.11-0.5v11.77c2.17-3.83,5.33-6.32,8.48-6.32
		c2.15,0,3.59,0.84,4.29,2.51c0.55,1.31,0.55,2.94,0.55,4.52v26.41c0,4.17,0,6.18-1.85,8.99h9.74c-1.99-2.8-1.99-4.82-1.99-8.99
		V28.94c0-2.86,0-7.18,4.91-7.18C34.62,21.76,37.37,24.93,39.21,28.43 M106.62,38.26c-0.26,0-0.53-0.01-0.81-0.02
		c-2.96-0.12-4.4-1.5-4.4-4.19V15.67c0-4.58,0.8-5.9,1.69-6.95l0.31-0.36l-0.47-0.01c-2.64-0.07-5.31-0.06-7.92,0.02l-0.49,0.01
		l0.33,0.36c1.26,1.41,1.53,2.16,1.53,6.94v18.37c0,4.62-0.34,6.41-1.53,8.01l-0.28,0.38l0.47-0.01c1.38-0.04,2.8-0.06,4.22-0.06
		c3.9,0,7.86,0.17,11.75,0.49c2.59,0.23,3.35,0.42,4.08,1.01l0.37,0.3V33.24l-0.01-0.77C113.8,35.91,110.62,38.26,106.62,38.26
		 M155.33,21.67l0.21-0.23l-0.28-0.13c-2.12-1-4.29-1.95-6.42-2.83l-0.59-0.24l0.3,0.56c1.36,2.53,1.37,4.34,1.37,6.43l0.11,17.89
		l-0.12-0.29c-1.95-5.68-4.09-11.59-6.16-17.32c-0.79-2.18-1.57-4.35-2.34-6.5c-0.1-0.3-0.24-0.61-0.36-0.88
		c-0.27-0.63-0.55-1.27-0.55-1.95c0-0.27,0.05-0.53,0.1-0.74l0.05-0.2l-0.2-0.07c-2.21-0.73-4.83-1.43-7.15-2.05l-1.91-0.51
		l0.28,0.48c1.22,2.09,1.22,3.8,1.22,7.56v18.72c0,2.85,0,5.11-1.7,6.9l-0.26,0.28l0.37,0.1c2.33,0.61,4.7,1.3,7.03,2.04l0.55,0.18
		l-0.28-0.5c-1.49-2.67-1.49-4.9-1.49-7.73V20.07l0.7,1.91c3.28,9.02,6.43,17.9,9.38,26.39l0.24,0.65c0.3,0.78,0.6,1.58,0.6,2.34
		c0,0.19-0.03,0.35-0.1,0.52l-0.09,0.21l0.21,0.08c1.96,0.79,3.93,1.64,5.87,2.52l0.44,0.2l-0.13-0.47
		c-0.21-0.78-0.29-1.53-0.29-2.77V27.2C153.95,25.03,153.95,23.16,155.33,21.67 M126.86,11.74l0.28-0.3l-0.4-0.08
		c-2.59-0.55-5.24-1.03-7.87-1.44l-0.53-0.08l0.31,0.44c1.54,2.18,1.54,4.25,1.54,6.45v20.02c0,3.73,0,5.28-1.58,6.84l-0.32,0.32
		l0.45,0.07c2.58,0.39,5.19,0.86,7.77,1.41l0.58,0.12l-0.35-0.48c-1.51-2.08-1.51-3.66-1.51-7.48V17.91
		C125.24,15.72,125.24,13.46,126.86,11.74 M80.24,39.24c-0.84,0.13-1.56,0.19-2.2,0.19c-2.33,0-3.47-0.92-3.47-2.82v-7.46l0.29-0.06
		c0.41-0.08,0.82-0.15,1.23-0.24c0.75-0.15,1.56-0.31,2.35-0.43c0.98-0.15,1.82-0.22,2.55-0.22c2.06,0,2.95,0.6,3.6,1.25l0.39,0.38
		v-9.11l-0.4,0.45c-1.18,1.34-2.57,2.27-5.8,2.76c-1.28,0.2-2.59,0.43-3.78,0.65l-0.42,0.08v-6.49c0-3.63,4.47-4.27,5.94-4.49
		c4.05-0.56,6.76,0.48,8.67,3.39l0.42,0.64V7.79l-0.33,0.18c-1.02,0.54-2.08,0.65-3.11,0.75C80.08,9.35,74,10.39,68.08,11.8
		l-0.41,0.1l0.31,0.29c1.56,1.45,1.76,1.84,1.76,7.15v18.42c0,4.79-0.3,5.78-1.48,7.65l-0.3,0.47l0.54-0.13
		c5.7-1.34,11.52-2.32,17.31-2.93c1.43-0.14,2.2-0.2,2.76-0.2c0.72,0,1.17,0.09,1.55,0.32l0.34,0.2V32.73l0-0.57
		C88.86,35.54,86.15,38.43,80.24,39.24 M54.44,45.52c-1.46,0.53-2.52,0.78-3.35,0.78c-1.44,0-2.17-0.78-2.18-2.33v-7.4l1.66-0.69
		c0.66-0.27,1.32-0.54,1.99-0.8c1.63-0.6,2.9-0.89,3.88-0.89c0.87,0,1.52,0.22,2.11,0.7l0.37,0.31v-9.05l-0.41,0.55
		c-1.09,1.48-2.44,2.69-5.48,3.81c-1.23,0.47-2.48,0.96-3.62,1.42l-0.5,0.2v-6.59c0-3.21,3.22-4.74,5.63-5.61
		c1.43-0.51,2.66-0.75,3.77-0.75c1.98,0,3.46,0.76,4.67,2.4l0.41,0.56v-9.9l-0.36,0.26c-0.93,0.67-1.9,0.98-2.89,1.3
		c-5.96,1.88-11.83,4.18-17.46,6.82l-0.34,0.16l0.3,0.23c1.57,1.2,1.69,1.71,1.69,6.83v18.42c0,4.85-0.33,5.92-1.3,7.75l-0.31,0.59
		l0.61-0.28c5.31-2.45,10.81-4.57,16.32-6.33c2.12-0.66,2.96-0.86,3.56-0.86c0.26,0,0.49,0.04,0.71,0.14l0.32,0.13V37.18l0-0.33
		C62.7,40.46,60.08,43.52,54.44,45.52"/>
</g>
<path class="st2" d="M44.4,124.54c0,3.18-0.4,6.02-1.21,8.52c-0.9,2.8-2.24,4.97-4.04,6.49c-2.01,1.72-4.52,2.57-7.55,2.57
	c-1.39,0-2.68-0.03-3.87-0.08c-1.19-0.05-2.48-0.11-3.85-0.19c-0.51,0-1.26,0.05-2.24,0.15c-0.41,0.04-0.81,0.08-1.21,0.11
	c0.22-0.34,0.4-0.6,0.51-0.79c0.38-0.63,0.65-1.12,0.79-1.47c0.24-0.56,0.39-1.08,0.47-1.57c0.07-0.49,0.11-1.1,0.11-1.84v-18.42
	c0-2.29-0.13-4.22-0.38-5.79c-0.08-0.56-0.35-1.23-0.81-2.02c-0.15-0.26-0.38-0.62-0.69-1.06c0.3,0.03,1.07,0.08,2.3,0.14
	c1.23,0.07,2.32,0.1,3.27,0.1c0.65,0,1.81-0.07,3.49-0.22c0.83-0.07,1.55-0.11,2.16-0.11c3.16,0,5.74,0.75,7.74,2.24
	c1.78,1.32,3.09,3.21,3.92,5.68C44.04,119.13,44.4,121.65,44.4,124.54 M38.7,125.7c0-2.2-0.16-4.06-0.48-5.57
	c-0.41-1.97-1.1-3.46-2.08-4.49c-1.16-1.23-2.74-1.85-4.73-1.85c-1.17,0-2.02,0.23-2.53,0.7c-0.79,0.73-1.19,2.13-1.19,4.18v13.14
	c0,2.16,0.32,3.6,0.95,4.33c0.54,0.62,1.53,0.92,2.97,0.92c2.57,0,4.46-1.22,5.66-3.67C38.22,131.47,38.7,128.9,38.7,125.7z
	 M45.56,140.19c2.16,0.99,4.34,1.91,6.54,2.77c-1.54-2.05-1.54-2.85-1.52-5.87l0.06-12.86c0.01-1.71,0.01-3.24,1.49-4.11
	c-2.17-0.85-4.32-1.76-6.46-2.73c1.49,2.12,1.46,3.64,1.45,5.35l-0.06,12.86C47.05,138.61,47.07,139.42,45.56,140.19 M53.37,144.23
	c0.57-0.34,1.28-0.67,2.05-0.4c1.34,0.48,2.16,1.49,3.97,2.07c4.08,1.31,6.95-0.06,6.97-4.69c0.02-8.41-8.74-8.98-8.69-13.37
	c0.01-1.51,1.33-2.02,2.65-1.6c2.97,0.92,4.12,3.71,5.36,6.21c0.01-2.8,0.03-5.6,0.04-8.4c-0.44,0.18-0.93,0.41-1.43,0.27
	c-1.36-0.38-2.69-1.29-4.04-1.72c-3.57-1.12-6.27,0.58-6.28,3.93c-0.06,7.77,8.62,8.72,8.62,13.64c-0.01,2.13-1.55,2.71-3.18,2.18
	c-3.04-0.98-4.87-5.02-5.99-7.32C53.4,138.11,53.39,141.17,53.37,144.23 M72.27,148.95c2.21,0.46,4.44,0.86,6.67,1.2
	c-1.5-1.91-1.5-2.64-1.49-4.9c0.02-4.02,0.04-8.04,0.06-12.05c0.01-1.48,0.07-2.74,1.73-2.49c2.37,0.35,3.79,3.57,4.46,5.92
	c0.02-3.11,0.03-6.22,0.05-9.33c-0.51,0.63-1.05,0.54-2.44,0.35c-3.64-0.49-7.25-1.13-10.84-1.93c-1.55-0.35-1.93-0.41-2.77-1.31
	c-0.02,3.11-0.03,6.22-0.05,9.32c0.66-2.89,2.6-4.69,4.42-4.32c1.71,0.35,1.67,1.68,1.66,3.1c-0.02,4.02-0.04,8.03-0.06,12.05
	C73.66,146.83,73.66,147.56,72.27,148.95 M84.77,150.91c2.33,0.25,4.66,0.43,6.99,0.55c-1.64-1.53-1.63-2.33-1.62-5.35
	c0.02-4.29,0.04-8.59,0.07-12.88c0.01-1.71,0.02-3.25,1.58-4.61c-2.31-0.12-4.61-0.3-6.9-0.54c1.6,1.61,1.57,3.14,1.56,4.85
	c-0.02,4.29-0.05,8.59-0.07,12.88C86.36,148.83,86.39,149.63,84.77,150.91 M93.47,151.53c3.74,0.14,7.48,0.12,11.22-0.07
	c2.34-0.13,2.28-0.01,3.15,0.69c0.02-3.3,0.03-6.6,0.05-9.9c-0.73,2.44-1.89,5.91-6.54,6.04c-2.4,0.05-2.63-1.45-2.63-2.4
	c0.02-4.02,0.04-8.04,0.06-12.06c0.02-3.48,0.68-4.01,1.62-5.08c-2.27,0.04-4.54,0.01-6.81-0.07c1.28,1.49,1.49,1.46,1.47,5.11
	c-0.02,4.02-0.04,8.04-0.06,12.06C94.98,149.37,94.67,150.39,93.47,151.53 M109.26,151.15c3.74-0.32,7.47-0.8,11.18-1.45
	c2.32-0.41,2.26-0.29,3.12,0.31c0.02-3.3,0.03-6.6,0.05-9.9c-0.73,2.53-1.87,6.14-6.49,6.85c-2.39,0.34-2.62-1.12-2.62-2.07
	c0.02-4.02,0.04-8.05,0.06-12.07c0.02-3.49,0.68-4.1,1.61-5.28c-2.26,0.32-4.53,0.57-6.8,0.77c1.28,1.33,1.49,1.27,1.47,4.93
	c-0.02,4.02-0.04,8.05-0.06,12.07C110.77,148.81,110.46,149.86,109.26,151.15 M125.02,148.82c4.04-0.85,8.06-1.9,12.03-3.15
	c2.53-0.81,2.41-0.69,3.14-0.24l0.05-9.32c-1.09,3.24-2.08,5.98-6.76,7.33c-2.2,0.62-3.38,0.34-3.37-1.17
	c0.01-1.57,0.02-3.14,0.02-4.71c0.77-0.19,1.53-0.43,2.3-0.64c3.14-0.87,3.42-0.24,4.35,0.67c0.01-2.44,0.02-4.87,0.04-7.31
	c-0.94,1.34-1.47,2.44-4.22,3.21c-0.79,0.22-1.65,0.44-2.44,0.64c0.01-1.33,0.01-2.66,0.02-3.98c0.01-1.68,1.52-2.48,3.63-3.08
	c3.6-1.04,4.95,0.25,5.93,2.27c0.01-2.68,0.03-5.36,0.04-8.03c-0.79,0.89-1.63,1.17-2.47,1.43c-4.06,1.28-8.16,2.36-12.3,3.23
	c1.44,1.43,1.59,1.1,1.57,5.05c-0.02,4.04-0.04,8.07-0.06,12.11C126.48,146.92,126.18,147.06,125.02,148.82 M141.93,144.03
	c1.54-1.8,1.54-3.72,1.55-5.27c0.02-4.26,0.04-8.52,0.06-12.78c0.02-3.82-0.27-3.74-1.5-4.84c1.24-0.32,2.13-0.55,3.71-1.16
	c1.01-0.38,4.11-1.91,4.84-2.24c3.85-1.69,6.67-1.19,6.65,3c-0.02,3.79-1.86,5.67-3.32,6.98c3.3-0.07,2.35,3.45,3.25,7.02
	c0.24,0.96,0.41,1.83,1.46,1.98c-0.89,0.47-1.79,0.92-2.7,1.37c-1.42,0.7-2.57,1.04-2.57-0.77c0.02-4.89,0.02-7.65-4.14-5.84
	c-0.71,0.3-1.39,0.62-2.11,0.94c-0.01,1.65-0.02,3.29-0.02,4.94c-0.01,1.55-0.02,3.46,1.49,4.09
	C146.38,142.38,144.16,143.24,141.93,144.03 M147.15,124.59c-0.01,1.41-0.01,2.81-0.02,4.22c0.71-0.26,1.4-0.54,2.11-0.84
	c2.16-0.91,4.41-2.76,4.42-5.07c0.01-1.65-0.68-2.82-3.09-1.75C148.88,121.88,147.16,122.94,147.15,124.59 M181.25,108.87
	c-0.35,0.39-0.73,0.83-1.15,1.32c-0.42,0.5-0.78,0.98-1.09,1.46c-0.47,0.71-0.91,1.42-1.32,2.14c-0.48,0.83-0.85,1.54-1.12,2.11
	l-6.75,14.69V137c0,0.82,0.09,1.49,0.28,2.02c0,0.01,0.18,0.39,0.54,1.13c0.25,0.58,0.59,1.09,1.02,1.54
	c0.15,0.15,0.35,0.32,0.6,0.51H161.9c0.29-0.25,0.52-0.47,0.68-0.65c0.49-0.56,0.84-1.18,1.04-1.85c0.13-0.4,0.26-0.8,0.39-1.21
	c0.13-0.41,0.19-0.82,0.19-1.24v-6.68l-7.61-16.33c-0.52-1.13-1.11-2.17-1.76-3.14c-0.21-0.31-0.48-0.67-0.81-1.07
	c-0.33-0.4-0.65-0.79-0.97-1.18h10.42c-0.33,0.3-0.59,0.6-0.76,0.91c-0.17,0.31-0.31,0.7-0.4,1.16c-0.03,0.15-0.04,0.27-0.04,0.36
	c0,0.48,0.1,1.08,0.31,1.83s0.47,1.48,0.79,2.2l3.91,9.26l4.85-10.93c0.11-0.24,0.19-0.59,0.25-1.07c0.06-0.48,0.09-0.93,0.09-1.36
	c0-0.44-0.19-0.97-0.58-1.58c-0.21-0.25-0.43-0.51-0.64-0.78H181.25z"/>
</svg>
