<?xml version="1.0" standalone="no"?>
<!DOCTYPE svg PUBLIC "-//W3C//DTD SVG 1.1//EN" "http://www.w3.org/Graphics/SVG/1.1/DTD/svg11.dtd" >
<svg xmlns="http://www.w3.org/2000/svg">
<metadata></metadata>
<defs>
<font id="darwinaltbold_italic" horiz-adv-x="545" >
<font-face units-per-em="1000" ascent="750" descent="-250" />
<missing-glyph horiz-adv-x="227" />
<glyph horiz-adv-x="1000" />
<glyph horiz-adv-x="1000" />
<glyph unicode="&#xd;" horiz-adv-x="1000" />
<glyph unicode=" "  horiz-adv-x="227" />
<glyph unicode="&#x09;" horiz-adv-x="227" />
<glyph unicode="&#xa0;" horiz-adv-x="227" />
<glyph unicode="!" horiz-adv-x="260" d="M105 191l34 329l25 180h128l-25 -180l-57 -329h-105zM128 -10q-59 0 -59 57q0 38 21.5 58t56.5 20q61 0 61 -55q0 -39 -21.5 -59.5t-58.5 -20.5z" />
<glyph unicode="&#x22;" horiz-adv-x="324" d="M121 549l14 201h116l-43 -201h-87zM269 549l15 201h116l-43 -201h-88z" />
<glyph unicode="#" horiz-adv-x="624" d="M65 0l65 186h-93l38 106h90l42 116h-94l38 106h92l65 186h116l-64 -186h113l64 186h118l-66 -186h96l-38 -106h-93l-43 -116h96l-38 -106h-93l-65 -186h-117l65 186h-114l-63 -186h-117zM282 292h114l41 116h-114z" />
<glyph unicode="$" horiz-adv-x="583" d="M431 591l-26 -183q168 -30 168 -173q0 -94 -58.5 -160.5t-167.5 -83.5l-13 -91h-85l12 87q-114 6 -200 71l66 98q78 -46 151 -50l27 191q-163 29 -163 176q0 96 59 160.5t162 76.5l12 90h85l-12 -90q83 -9 158 -66l-65 -98q-63 38 -110 45zM323 426l23 163 q-78 -17 -78 -92q0 -52 55 -71zM387 280l-23 -165q80 24 80 93q0 52 -57 72z" />
<glyph unicode="%" horiz-adv-x="933" d="M110 444l15 111q10 72 61.5 114.5t127.5 42.5q75 0 115 -42.5t30 -114.5l-15 -111q-10 -72 -62 -115t-128 -43t-115 42.5t-29 115.5zM243 547l-13 -96q-9 -64 39 -64q47 0 56 64l13 96q4 31 -6 48t-32 17q-48 0 -57 -65zM574 146l15 111q10 73 62 115.5t129 42.5 q75 0 114 -42.5t29 -115.5l-15 -111q-10 -72 -61.5 -115t-126.5 -43q-76 0 -116 43t-30 115zM707 249l-13 -95q-9 -65 40 -65q22 0 37 17t19 48l13 95q4 31 -6 48t-32 17q-49 0 -58 -65zM171 0l601 760l89 -60l-605 -762z" />
<glyph unicode="&#x26;" horiz-adv-x="641" d="M250 -14q-188 0 -188 151q0 78 43.5 133t114.5 101q-60 77 -60 150q0 78 60 135.5t160 57.5q89 0 130.5 -38t41.5 -103q0 -67 -41 -113.5t-122 -97.5l88 -127q38 44 43 113l115 -15q-20 -105 -92 -194l57 -73l-101 -80l-47 63q-35 -28 -91 -45.5t-111 -17.5zM283 288 q-86 -61 -86 -128q0 -63 83 -63q65 0 111 36zM330 445q29 19 46 31.5t31.5 34t14.5 43.5q0 52 -58 52q-35 0 -55 -20.5t-20 -54.5q0 -39 41 -86z" />
<glyph unicode="'" horiz-adv-x="174" d="M121 549l14 201h116l-43 -201h-87z" />
<glyph unicode="(" horiz-adv-x="317" d="M78 133l52 374q14 97 80.5 166.5t166.5 85.5l8 -109q-52 -7 -86.5 -50t-42.5 -106l-49 -348q-9 -63 13 -106t72 -50l-38 -108q-96 16 -143 84.5t-33 166.5z" />
<glyph unicode=")" horiz-adv-x="317" d="M154 759q96 -16 143.5 -85.5t33.5 -166.5l-53 -374q-14 -98 -80 -166.5t-167 -84.5l-7 108q52 7 86 49.5t43 106.5l49 348q9 63 -13 106t-72 50z" />
<glyph unicode="*" horiz-adv-x="446" d="M134 406l94 102l-118 33l44 97l111 -44l14 129h96l-23 -128l120 44l17 -98l-126 -34l64 -101l-86 -60l-53 109l-83 -109z" />
<glyph unicode="+" horiz-adv-x="559" d="M227 45l28 200h-175l16 116h175l28 200h118l-28 -200h176l-16 -116h-176l-28 -200h-118z" />
<glyph unicode="," horiz-adv-x="220" d="M30 -104l-19 55q43 21 52 50q-24 15 -24 51q0 39 25.5 60.5t63.5 21.5q32 0 51 -16t19 -46q0 -49 -41 -101t-127 -75z" />
<glyph unicode="-" horiz-adv-x="395" d="M80 244l16 114h303l-16 -114h-303z" />
<glyph unicode="." horiz-adv-x="220" d="M198 71q0 -40 -25.5 -62t-65.5 -22q-32 0 -50.5 16t-18.5 46q0 41 25 63t64 22q33 0 52 -16t19 -47z" />
<glyph unicode="/" horiz-adv-x="497" d="M-7 -110l498 905l105 -45l-500 -904z" />
<glyph unicode="0" horiz-adv-x="566" d="M81 210l40 280q15 103 86.5 163.5t175.5 60.5q105 0 160.5 -60.5t41.5 -163.5l-39 -280q-15 -103 -87.5 -163.5t-177.5 -60.5q-104 0 -159 60.5t-41 163.5zM251 478l-36 -256q-8 -58 14 -89t68 -31q47 0 78 31t39 89l36 256q8 58 -14 89t-69 31q-46 0 -77 -31t-39 -89z " />
<glyph unicode="1" horiz-adv-x="340" d="M266 118h83l-17 -118h-314l17 118h100l60 427l-87 -51l-42 95l169 111h112z" />
<glyph unicode="2" horiz-adv-x="561" d="M151 640q116 74 230 74q100 0 150 -46t50 -129q0 -95 -63.5 -184t-233.5 -240h253l-16 -115h-464l11 79q199 174 287.5 273.5t88.5 166.5q0 38 -21.5 59.5t-62.5 21.5q-74 0 -172 -49z" />
<glyph unicode="3" horiz-adv-x="549" d="M263 -14q-121 0 -211 69l56 96q86 -49 161 -49q55 0 89 34t34 92q0 90 -92 90h-73l14 98h79q52 0 79.5 29.5t27.5 79.5q0 76 -77 76q-84 0 -174 -38l-23 89q107 62 222 62q93 0 139 -46.5t46 -121.5q0 -111 -90 -172q34 -21 51 -68t9 -91l-3 -16q-16 -95 -84.5 -154 t-179.5 -59z" />
<glyph unicode="4" horiz-adv-x="570" d="M46 127l11 76l301 497h142l-280 -458h169l34 238h131l-34 -238h63l-16 -115h-63l-18 -127h-131l18 127h-327z" />
<glyph unicode="5" d="M115 347l92 353h359l-16 -114h-242l-44 -171q43 23 97 23q95 0 141 -52.5t32 -157.5l-4 -32q-12 -94 -83 -152t-182 -58q-123 0 -212 69l56 96q84 -49 164 -49q48 0 80 26.5t40 72.5l3 17q18 107 -84 107q-63 0 -124 -37z" />
<glyph unicode="6" horiz-adv-x="575" d="M121 490q14 102 86.5 163t178.5 61q120 0 215 -74l-63 -89q-82 49 -158 49q-54 0 -87.5 -31.5t-41.5 -90.5l-12 -83q56 32 135 32q91 0 143 -48.5t39 -150.5l-4 -30q-14 -102 -86 -157t-179 -55t-164.5 52.5t-43.5 153.5zM224 280l-11 -75q-15 -105 90 -105q55 0 88.5 33 t33.5 101q0 41 -20.5 59.5t-62.5 18.5q-68 0 -118 -32z" />
<glyph unicode="7" horiz-adv-x="457" d="M58 0l326 585h-291l16 115h440l-10 -75l-340 -625h-141z" />
<glyph unicode="8" horiz-adv-x="576" d="M336 417h16q44 0 76 32t32 77q0 36 -22.5 57.5t-63.5 21.5q-54 0 -84 -29.5t-30 -75.5q0 -36 20.5 -59.5t55.5 -23.5zM73 201l2 17q5 41 35.5 86.5t67.5 68.5q-22 22 -34.5 58t-12.5 71q0 94 65 153t192 59q103 0 153.5 -43.5t50.5 -121.5q0 -49 -24.5 -96t-65.5 -79 q32 -23 48 -68t11 -88l-2 -17q-12 -95 -82 -155t-191 -60q-122 0 -174.5 59.5t-38.5 155.5zM211 211l-1 -7q-6 -45 16.5 -74t76.5 -29q52 0 82.5 29t36.5 74l1 7q6 44 -17.5 75.5t-63.5 31.5h-19q-41 0 -73.5 -31.5t-38.5 -75.5z" />
<glyph unicode="9" horiz-adv-x="573" d="M449 414l11 79q15 107 -89 107q-55 0 -87.5 -33.5t-32.5 -101.5q0 -41 20 -59t63 -18q66 0 115 26zM129 146q81 -46 161 -46q54 0 88.5 29.5t42.5 86.5l12 84q-51 -27 -131 -27q-92 0 -144.5 48t-38.5 151l4 30q14 102 85.5 157t178.5 55t164 -52t43 -153l-43 -303 q-14 -104 -84.5 -162t-188.5 -58q-125 0 -212 68z" />
<glyph unicode=":" horiz-adv-x="220" d="M260 506q0 -40 -25.5 -62t-65.5 -22q-32 0 -50.5 16t-18.5 46q0 41 25 63t64 22q33 0 52 -16t19 -47zM198 71q0 -40 -25.5 -62t-65.5 -22q-32 0 -50.5 16t-18.5 46q0 41 25 63t64 22q33 0 52 -16t19 -47z" />
<glyph unicode=";" horiz-adv-x="220" d="M30 -104l-19 55q43 21 52 50q-24 15 -24 51q0 39 25.5 60.5t63.5 21.5q32 0 51 -16t19 -46q0 -49 -41 -101t-127 -75zM260 506q0 -40 -25.5 -62t-65.5 -22q-32 0 -50.5 16t-18.5 46q0 41 25 63t64 22q33 0 52 -16t19 -47z" />
<glyph unicode="&#x3c;" horiz-adv-x="373" d="M205 279l143 -141l-75 -86l-194 185l12 84l246 187l51 -86z" />
<glyph unicode="=" horiz-adv-x="559" d="M64 126l16 114h468l-16 -114h-468zM94 339l16 114h468l-16 -114h-468z" />
<glyph unicode="&#x3e;" horiz-adv-x="373" d="M115 52l-50 86l182 141l-142 143l74 86l195 -187l-12 -84z" />
<glyph unicode="?" horiz-adv-x="483" d="M378 535q4 30 -12.5 48.5t-55.5 18.5q-84 0 -153 -35l-34 88q92 59 207 59q101 0 147.5 -49.5t35.5 -127.5l-2 -14q-8 -59 -36.5 -98.5t-84.5 -87.5q-46 -40 -64 -63.5t-23 -58.5l-4 -28h-128l5 34q7 48 25 82.5t35 51.5t58 50q74 60 83 123zM297 71q0 -40 -25.5 -62 t-65.5 -22q-32 0 -50.5 16t-18.5 46q0 41 25 63t64 22q32 0 51.5 -16t19.5 -47z" />
<glyph unicode="@" horiz-adv-x="726" d="M358 395l-27 -101q-24 -79 34 -79q23 0 48 12t40 29l60 222h-72q-60 0 -83 -83zM77 206l78 285q27 98 130.5 157t223.5 59q119 0 191.5 -61.5t45.5 -157.5l-58 -214q-16 -59 -54 -92.5t-94 -33.5q-64 0 -80 47q-54 -47 -113 -47q-66 0 -91 36.5t-6 105.5l31 116 q18 67 60.5 102t101.5 35h168l-74 -277q-7 -27 -3 -37.5t22 -10.5q35 0 52 56l58 210q19 71 -34.5 110.5t-139.5 39.5q-87 0 -163.5 -40.5t-96.5 -113.5l-75 -271q-20 -71 33.5 -110.5t139.5 -39.5q74 0 143 22l11 -66q-68 -28 -170 -28q-76 0 -136.5 26t-89.5 77t-11 116z " />
<glyph unicode="A" horiz-adv-x="605" d="M458 0l-26 123h-224l-61 -123h-148l328 605l-18 95h136l160 -700h-147zM366 443l-104 -211h148z" />
<glyph unicode="B" horiz-adv-x="584" d="M62 39l93 661h247q110 0 161 -46.5t36 -139.5l-4 -25q-5 -32 -28.5 -68t-58.5 -55q35 -12 56 -50.5t14 -86.5l-7 -48q-11 -80 -83 -130.5t-183 -50.5q-132 0 -243 39zM248 412h134q51 0 77 83l2 6q2 48 -13.5 65t-59.5 17h-116zM209 130q59 -14 113 -14q49 1 79.5 21.5 t35.5 54.5l5 35q5 37 -10.5 58t-50.5 21h-147z" />
<glyph unicode="C" horiz-adv-x="524" d="M506 53q-54 -34 -101.5 -50.5t-110.5 -16.5q-107 0 -166.5 62.5t-44.5 166.5l38 271q15 104 92 166t184 62q63 0 105.5 -16t86.5 -51l-65 -94q-41 24 -69.5 34t-74.5 10q-50 0 -84 -33t-42 -90l-35 -247q-8 -58 17 -90.5t75 -32.5q46 0 77 10t79 34z" />
<glyph unicode="D" horiz-adv-x="597" d="M62 39l93 661h257q107 0 160.5 -61.5t39.5 -166.5l-34 -244q-14 -105 -87 -166.5t-188 -61.5q-137 0 -241 39zM209 130q53 -14 110 -14q108 0 125 124l31 220q17 121 -80 121h-123z" />
<glyph unicode="E" horiz-adv-x="513" d="M57 0l98 700h417l-16 -119h-283l-24 -167h236l-16 -117h-236l-25 -179h290l-17 -118h-424z" />
<glyph unicode="F" horiz-adv-x="502" d="M57 0l98 700h419l-16 -119h-285l-27 -192h236l-17 -118h-236l-38 -271h-134z" />
<glyph unicode="G" horiz-adv-x="599" d="M82 211l38 275q14 103 92.5 165.5t189.5 62.5q132 0 221 -74l-65 -95q-40 27 -77 39.5t-95 12.5q-52 0 -88.5 -32.5t-44.5 -91.5l-34 -248q-8 -59 14 -90.5t72 -31.5q76 0 131 60l15 107h-131l16 113h265l-55 -393h-99l-11 64q-80 -68 -174 -68q-102 0 -148 59.5 t-32 165.5z" />
<glyph unicode="H" horiz-adv-x="601" d="M57 0l98 700h134l-39 -280h220l39 280h135l-98 -700h-135l42 302h-220l-42 -302h-134z" />
<glyph unicode="I" horiz-adv-x="246" d="M57 0l98 700h134l-98 -700h-134z" />
<glyph unicode="J" horiz-adv-x="294" d="M115 -150l-63 88q50 45 62 126l89 636h134l-89 -640q-10 -74 -46.5 -128.5t-86.5 -81.5z" />
<glyph unicode="K" horiz-adv-x="570" d="M380 101l-81 186l-80 -91l-28 -196h-134l98 700h134l-41 -293l258 293h159l-268 -301l122 -267q22 -49 91 -31l-15 -104q-93 -13 -137 6t-78 98z" />
<glyph unicode="L" horiz-adv-x="485" d="M57 0l98 700h134l-81 -582h281l-17 -118h-415z" />
<glyph unicode="M" horiz-adv-x="705" d="M57 0l98 700h92l149 -391l259 391h93l-98 -700h-135l57 373l-172 -261h-68l-95 251l-47 -363h-133z" />
<glyph unicode="N" horiz-adv-x="618" d="M57 0l98 700h121l195 -430l56 430h134l-98 -700h-124l-193 427l-57 -427h-132z" />
<glyph unicode="O" horiz-adv-x="611" d="M82 215l38 271q15 103 96.5 165.5t190.5 62.5q107 0 171.5 -62.5t49.5 -165.5l-38 -271q-15 -104 -96.5 -166.5t-188.5 -62.5q-109 0 -173.5 62.5t-49.5 166.5zM253 473l-34 -246q-8 -58 21 -90t81 -32q51 0 89.5 32t46.5 90l34 246q8 59 -20.5 91t-79.5 32 q-52 0 -90.5 -32t-47.5 -91z" />
<glyph unicode="P" horiz-adv-x="587" d="M57 0l98 700h257q107 0 160.5 -61.5t39.5 -166.5l-6 -44q-14 -105 -85.5 -167t-178.5 -62q-64 0 -120 23l-31 -222h-134zM238 337q49 -20 121 -20q96 0 114 123l3 20q18 121 -80 121h-123z" />
<glyph unicode="Q" horiz-adv-x="611" d="M294 -45q39 0 83.5 -24.5t63.5 -24.5q43 0 85 22l23 -70q-19 -20 -51.5 -34.5t-64.5 -14.5q-39 0 -84 24t-68 24q-42 0 -81 -21l-24 68q16 18 50.5 34.5t67.5 16.5zM82 215l38 271q15 103 96.5 165.5t190.5 62.5q107 0 171.5 -62.5t49.5 -165.5l-38 -271 q-15 -104 -96.5 -166.5t-188.5 -62.5q-109 0 -173.5 62.5t-49.5 166.5zM253 473l-34 -246q-8 -58 21 -90t81 -32q51 0 89.5 32t46.5 90l34 246q8 59 -20.5 91t-79.5 32q-52 0 -90.5 -32t-47.5 -91z" />
<glyph unicode="R" horiz-adv-x="587" d="M370 101l-56 155q-55 0 -86 10l-37 -266h-134l98 700h257q106 0 161.5 -58t42.5 -147l-5 -35q-9 -64 -51 -114t-108 -72l56 -142q20 -50 92 -33l-15 -102q-95 -14 -141 5t-74 99zM273 581l-28 -196q44 -13 114 -13q51 0 82.5 28.5t36.5 72.5l1 9q5 45 -16 72t-67 27h-123 z" />
<glyph unicode="S" horiz-adv-x="581" d="M127 156q86 -51 168 -51q65 0 104 28.5t39 74.5q0 36 -27.5 56t-87.5 28q-181 26 -181 182q0 105 70.5 172t189.5 67q114 0 204 -69l-65 -98q-42 25 -76 37t-78 12q-56 0 -84.5 -27.5t-28.5 -70.5q0 -39 27.5 -57t82.5 -26q189 -29 189 -179q0 -108 -75.5 -178 t-214.5 -70q-131 0 -222 71z" />
<glyph unicode="T" horiz-adv-x="506" d="M186 0l82 582h-175l17 118h486l-17 -118h-176l-82 -582h-135z" />
<glyph unicode="U" horiz-adv-x="596" d="M596 -2q-76 -16 -115.5 -2t-46.5 64q-79 -74 -184 -74q-103 0 -142.5 54.5t-24.5 163.5l70 496h136l-68 -483q-8 -60 10.5 -87.5t67.5 -27.5q38 0 74 19t58 48l75 531h135l-81 -571q-3 -29 12 -35t38 4z" />
<glyph unicode="V" horiz-adv-x="587" d="M242 700l77 -538l225 538h140l-332 -700h-114l-138 700h142z" />
<glyph unicode="W" horiz-adv-x="900" d="M202 0l-103 700h140l51 -533l190 533h133l42 -532l202 532h138l-299 -700h-130l-47 512l-187 -512h-130z" />
<glyph unicode="X" horiz-adv-x="576" d="M519 700h152l-247 -340l152 -360h-154l-97 259l-171 -259h-153l251 353l-151 347h154l95 -248z" />
<glyph unicode="Y" horiz-adv-x="561" d="M214 0l36 257l-152 443h148l92 -305l174 305h147l-274 -441l-36 -259h-135z" />
<glyph unicode="Z" horiz-adv-x="542" d="M29 0l13 91q130 127 222.5 245t151.5 246h-294l16 118h461l-13 -93q-122 -259 -337 -489h283l-17 -118h-486z" />
<glyph unicode="[" horiz-adv-x="281" d="M44 -110l121 860h202l-16 -110h-85l-90 -640h85l-15 -110h-202z" />
<glyph unicode="\" horiz-adv-x="498" d="M113 750l116 45l245 -905l-116 -44z" />
<glyph unicode="]" horiz-adv-x="281" d="M6 -110l15 110h85l90 640h-85l16 110h202l-121 -860h-202z" />
<glyph unicode="^" horiz-adv-x="425" d="M115 513l149 225h106l84 -225l-106 -32l-45 158l-90 -158z" />
<glyph unicode="_" horiz-adv-x="491" d="M-10 -131l13 89h476l-13 -89h-476z" />
<glyph unicode="`" horiz-adv-x="310" d="M158 706l100 58l62 -149l-66 -39z" />
<glyph unicode="a" d="M542 -2q-76 -15 -113 -2t-47 54q-68 -60 -157 -60q-85 0 -120 55t-21 155l18 127q14 97 72.5 150t146.5 53q74 0 126 -37l20 27h92l-55 -391q-4 -29 12.5 -35t39.5 4zM381 160l33 235q-42 24 -91 24q-79 0 -94 -102l-15 -105q-8 -57 5 -83.5t55 -26.5q28 0 57.5 16.5 t49.5 41.5z" />
<glyph unicode="b" d="M60 0l18 130l87 620h128l-38 -274q61 54 134 54q93 0 127.5 -50.5t19.5 -151.5l-19 -127q-14 -98 -78 -154.5t-158 -56.5q-66 0 -122 41l-12 -31h-87zM239 363l-33 -235q38 -27 82 -27q86 0 103 111l15 106q8 51 -6.5 74.5t-55.5 23.5q-52 0 -105 -53z" />
<glyph unicode="c" horiz-adv-x="508" d="M213 213q-15 -112 77 -112q42 0 70.5 9.5t75.5 32.5l35 -89q-101 -64 -201 -64q-101 0 -151 57t-37 155l17 116q14 99 80 155.5t167 56.5q60 0 100.5 -15.5t82.5 -48.5l-61 -88q-28 17 -42 24t-37.5 12.5t-53.5 5.5q-94 0 -109 -113z" />
<glyph unicode="d" d="M541 -2q-75 -15 -112 -2t-47 54q-68 -60 -157 -60q-85 0 -120 55t-21 155l18 127q14 99 67.5 151t140.5 52q64 0 119 -25l35 245h127l-87 -621q-4 -29 12.5 -35t39.5 4zM381 160l33 235q-44 25 -92 25q-78 0 -93 -103l-15 -105q-8 -57 5 -83.5t55 -26.5q28 0 57.5 16.5 t49.5 41.5z" />
<glyph unicode="e" horiz-adv-x="540" d="M224 306h180l1 8q14 107 -74 107q-93 0 -106 -107zM482 54q-103 -64 -211 -64q-101 0 -151.5 56.5t-37.5 154.5l17 117q14 99 80.5 155.5t167.5 56.5t151 -56.5t36 -155.5l-14 -99h-306l-2 -14q-16 -106 76 -106q72 0 158 44z" />
<glyph unicode="f" horiz-adv-x="350" d="M39 -150l80 567h-52l14 103h52l8 56q26 180 211 180q52 0 95 -15l-34 -99q-23 6 -58 6q-76 0 -86 -76l-7 -52h126l-14 -103h-126l-80 -567h-129z" />
<glyph unicode="g" horiz-adv-x="544" d="M384 188l30 207q-45 21 -95 21q-76 0 -90 -98l-11 -75q-8 -51 6.5 -74t55.5 -23q49 0 104 42zM104 -16q65 -34 152 -34q96 0 108 92l5 36q-57 -46 -133 -46q-92 0 -126 49t-20 151l13 96q28 202 204 202q66 0 140 -35l20 25h93l-69 -489q-13 -92 -77 -141.5t-164 -49.5 q-114 0 -198 53z" />
<glyph unicode="h" horiz-adv-x="542" d="M460 -10q-51 0 -74.5 22t-16.5 74l34 242q7 46 -7.5 67t-54.5 21q-51 0 -102 -51l-51 -365h-128l105 750h128l-38 -274q61 54 137 54q90 0 122 -47.5t19 -141.5l-30 -216q-4 -32 24 -32q10 0 28 5l-15 -100q-48 -8 -80 -8z" />
<glyph unicode="i" horiz-adv-x="246" d="M133 520h128l-73 -520h-129zM297 675q0 -40 -25.5 -61.5t-65.5 -21.5q-32 0 -51 15.5t-19 45.5q0 41 25.5 63.5t65.5 22.5q32 0 51 -16.5t19 -47.5z" />
<glyph unicode="j" horiz-adv-x="252" d="M138 520h130l-68 -481q-13 -94 -77 -144.5t-173 -54.5l-2 101q59 2 88.5 27.5t36.5 80.5zM299 677q0 -42 -23.5 -63t-63.5 -21q-67 0 -67 60q0 41 24 62.5t63 21.5q67 0 67 -60z" />
<glyph unicode="k" horiz-adv-x="510" d="M516 -3q-93 -13 -136.5 6t-74.5 98l-40 102l-56 -57l-21 -146h-128l105 750h128l-59 -425l196 195h154l-218 -216l73 -174q21 -50 92 -32z" />
<glyph unicode="l" horiz-adv-x="246" d="M163 -10q-51 0 -74.5 22t-16.5 74l93 664h129l-88 -625q-4 -32 24 -32q10 0 28 5l-15 -100q-48 -8 -80 -8z" />
<glyph unicode="m" horiz-adv-x="805" d="M721 -10q-52 0 -75.5 22t-16.5 74l35 249q6 45 -3 64.5t-43 19.5q-51 0 -100 -57l-51 -362h-128l47 333q6 40 -7.5 61.5t-41.5 21.5q-49 0 -98 -54l-51 -362h-128l73 520h111l4 -49q64 59 139 59q87 0 113 -71q74 71 164 71q79 0 111 -44.5t19 -140.5l-30 -220 q-5 -32 24 -32q10 0 28 5l-15 -100q-50 -8 -80 -8z" />
<glyph unicode="n" horiz-adv-x="543" d="M460 -10q-51 0 -74.5 22t-16.5 74l34 241q7 47 -7 68t-54 21q-53 0 -103 -54l-51 -362h-128l73 520h111l4 -49q29 26 68.5 42.5t75.5 16.5q168 0 141 -190l-30 -215q-4 -32 24 -32q10 0 28 5l-15 -100q-48 -8 -80 -8z" />
<glyph unicode="o" horiz-adv-x="542" d="M227 308l-15 -96q-8 -54 11 -82.5t63 -28.5q43 0 70.5 28.5t34.5 82.5l13 96q15 111 -73 111q-89 0 -104 -111zM82 201l17 118q14 98 80.5 154.5t167.5 56.5t150.5 -56.5t36.5 -154.5l-16 -118q-13 -98 -79.5 -154.5t-167.5 -56.5t-151.5 56.5t-37.5 154.5z" />
<glyph unicode="p" d="M244 520l4 -49q28 25 67.5 42t75.5 17q92 0 126 -50t19 -152l-18 -127q-14 -99 -75.5 -155t-156.5 -56q-53 0 -97 16l-22 -156h-128l94 670h111zM391 212l15 106q8 52 -6 75t-55 23q-54 0 -106 -54l-34 -245q31 -16 83 -16q86 0 103 111z" />
<glyph unicode="q" d="M379 157l33 240q-38 22 -86 22q-84 0 -99 -111l-15 -106q-8 -52 6 -75t55 -23q53 0 106 53zM559 520l-95 -670h-129l28 194q-61 -54 -135 -54q-92 0 -126.5 50t-19.5 152l18 127q14 99 72.5 155t151.5 56q65 0 121 -35l21 25h93z" />
<glyph unicode="r" horiz-adv-x="353" d="M59 0l74 520h111l4 -58q30 29 74 48.5t83 19.5l-6 -117q-91 0 -162 -61l-49 -352h-129z" />
<glyph unicode="s" horiz-adv-x="492" d="M103 141q75 -48 149 -48q46 0 72 16t26 44q0 19 -15 30.5t-32 16t-60 12.5q-31 6 -51.5 12.5t-42.5 21t-33 40t-11 61.5q0 85 56 134t165 49q106 0 186 -63l-56 -84q-75 44 -140 44q-80 0 -80 -57q0 -17 11.5 -27t24.5 -13.5t47 -9.5q2 -1 3.5 -1t3 -0.5t3.5 -0.5 q34 -6 55 -12.5t46.5 -21t37.5 -41t12 -64.5q0 -86 -63 -137.5t-173 -51.5q-115 0 -199 62z" />
<glyph unicode="t" horiz-adv-x="311" d="M100 185l33 232h-78l14 103h78l14 99h129l-14 -99h95l-14 -103h-95l-32 -227q-15 -106 44 -190h-143q-47 69 -31 185z" />
<glyph unicode="u" horiz-adv-x="531" d="M213 -10q-83 0 -114 47.5t-17 147.5l47 335h128l-46 -330q-7 -47 4.5 -67.5t47.5 -20.5q59 0 106 58l50 360h130l-55 -391q-4 -29 11.5 -35t38.5 4l-14 -100q-76 -15 -113 -2t-46 54q-70 -60 -158 -60z" />
<glyph unicode="v" horiz-adv-x="495" d="M189 0l-113 520h136l60 -358l158 358h135l-260 -520h-116z" />
<glyph unicode="w" horiz-adv-x="750" d="M154 0l-77 520h133l31 -353l140 353h129l47 -349l130 349h132l-223 -520h-129l-48 345l-137 -345h-128z" />
<glyph unicode="x" horiz-adv-x="515" d="M428 520h150l-199 -253l133 -267h-148l-82 183l-131 -183h-148l209 267l-128 253h150l73 -168z" />
<glyph unicode="y" horiz-adv-x="537" d="M96 -13q76 -38 158 -38q95 0 109 93l9 63q-65 -59 -152 -59q-82 0 -114 40t-19 129l43 305h129l-39 -273q-7 -47 5.5 -66.5t52.5 -19.5q57 0 102 47l44 312h128l-69 -488q-13 -94 -73.5 -143t-161.5 -49q-121 0 -203 55z" />
<glyph unicode="z" horiz-adv-x="465" d="M31 0l12 84q106 80 178.5 156t119.5 172h-247l15 108h393l-12 -84q-42 -98 -100 -174.5t-142 -153.5h207l-15 -108h-409z" />
<glyph unicode="{" horiz-adv-x="343" d="M129 43l21 146q10 73 -47 73h-31l16 116h31q57 0 67 73l21 147q21 152 174 152h37l-16 -108h-15q-26 0 -38.5 -13t-16.5 -42l-19 -133q-13 -93 -85 -134q60 -37 47 -134l-18 -133q-4 -29 5 -42t35 -13h15l-15 -108h-37q-76 0 -109 36.5t-22 116.5z" />
<glyph unicode="|" horiz-adv-x="235" d="M36 -170l132 940h115l-132 -940h-115z" />
<glyph unicode="}" horiz-adv-x="343" d="M315 262q-57 0 -67 -72l-21 -147q-21 -153 -173 -153h-37l15 108h16q26 0 38.5 13.5t16.5 42.5l19 132q6 44 28.5 80t55.5 54q-60 40 -47 134l19 133q4 29 -4.5 42t-34.5 13h-16l15 108h37q76 0 109 -36t22 -116l-21 -147q-10 -73 47 -73h31l-17 -116h-31z" />
<glyph unicode="~" horiz-adv-x="570" d="M179 261l-93 16q18 58 60 94t100 36q41 0 100 -27t79 -27q47 0 60 50l93 -14q-38 -131 -160 -131q-42 0 -98 26.5t-81 26.5t-40.5 -13.5t-19.5 -36.5z" />
<glyph unicode="&#xa1;" horiz-adv-x="260" d="M66 0l25 180l59 329h105l-36 -329l-25 -180h-128zM211 575q-60 0 -60 55q0 39 21.5 59.5t57.5 20.5q60 0 60 -57q0 -38 -21.5 -58t-57.5 -20z" />
<glyph unicode="&#xa2;" horiz-adv-x="508" d="M455 246l31 -83q-81 -52 -149 -61l-15 -102h-79l14 100q-87 8 -129.5 64t-29.5 147l11 76q13 91 71 147t147 64l15 102h79l-15 -104q40 -5 69 -19t64 -42l-57 -82q-18 10 -24 14t-19 9.5t-23.5 8.5t-24.5 4l-39 -278q52 8 103 35zM224 379l-9 -60q-7 -46 8 -74.5 t50 -33.5l39 276q-36 -5 -59 -33.5t-29 -74.5z" />
<glyph unicode="&#xa3;" horiz-adv-x="515" d="M413 648q-46 0 -69 -21t-30 -67l-18 -128h135l-16 -111h-135l-12 -87q-5 -34 -18.5 -63.5t-24.5 -42.5l-11 -13h286l-16 -115h-451l13 93q81 46 92 127l14 101h-74l16 111h74l18 133q27 191 222 191q94 0 163 -42l-52 -91q-53 25 -106 25z" />
<glyph unicode="&#xa4;" horiz-adv-x="587" d="M62 158l77 69q-13 41 -6 90l6 42q6 48 31 88l-57 71l93 86l57 -70q49 23 109 23q64 0 103 -23l77 70l68 -86l-77 -71q12 -40 5 -88l-6 -42q-6 -41 -30 -90l57 -69l-92 -86l-57 70q-46 -23 -109 -23q-64 0 -104 23l-76 -71zM249 350l-3 -24q-6 -48 16 -73.5t64 -25.5 t71.5 25.5t35.5 73.5l3 24q7 48 -15 73.5t-64 25.5t-72 -25.5t-36 -73.5z" />
<glyph unicode="&#xa5;" horiz-adv-x="565" d="M63 86l13 95h169l9 63h-169l14 95h145l-138 361l145 3l95 -280l173 277h138l-236 -361h146l-14 -95h-167l-9 -63h167l-13 -95h-167l-12 -86h-132l12 86h-169z" />
<glyph unicode="&#xa6;" horiz-adv-x="235" d="M36 -170l50 355h115l-50 -355h-115zM118 411l50 359h115l-50 -359h-115z" />
<glyph unicode="&#xa7;" horiz-adv-x="519" d="M471 66q-12 -72 -71.5 -118.5t-154.5 -46.5q-119 0 -204 64l59 92q77 -48 157 -48q38 0 60 17t24 43l1 12q2 21 -20.5 35.5t-63.5 22.5q-39 8 -67 18t-56 28t-40 48t-7 70l2 15q5 31 27.5 63.5t53.5 51.5q-48 41 -38 102l3 18q11 72 66.5 116.5t149.5 44.5q110 0 192 -65 l-59 -87q-75 44 -144 44q-35 0 -54.5 -15t-21.5 -40l-1 -12q-4 -45 87 -63q37 -8 64.5 -17.5t56 -27t41 -46.5t6.5 -67l-3 -17q-5 -28 -31 -60.5t-57 -52.5q25 -17 38.5 -45t7.5 -60zM222 320l-1 -6q-2 -11 -0.5 -20t9 -15.5t13 -11t19.5 -9t21.5 -6.5t26.5 -6t26 -6 q44 28 49 59l1 7q2 16 -5.5 27.5t-24.5 19t-31.5 11.5t-35.5 7.5t-28 5.5q-34 -22 -39 -57z" />
<glyph unicode="&#xa8;" horiz-adv-x="463" d="M137 607q-27 0 -41 16t-14 43q0 39 19.5 63.5t56.5 24.5q57 0 57 -61q0 -38 -20 -62t-58 -24zM372 607q-54 0 -54 58q0 39 19 64t56 25q58 0 58 -61q0 -39 -20 -62.5t-59 -23.5z" />
<glyph unicode="&#xa9;" horiz-adv-x="690" d="M81 209l40 279q14 100 108.5 161t215.5 61q122 0 199 -61t63 -161l-39 -279q-15 -101 -109 -162t-216 -61q-121 0 -198.5 61t-63.5 162zM209 488l-40 -280q-8 -63 48.5 -100t137.5 -37t148.5 37t76.5 100l40 280q6 42 -20.5 74.5t-71 48t-95.5 15.5q-80 0 -147.5 -38 t-76.5 -100zM516 191q-76 -48 -141 -48q-82 0 -113 37.5t-20 117.5l14 101q11 80 53 117.5t124 37.5q66 0 127 -48l-42 -63q-48 29 -96 29q-34 0 -51 -19.5t-23 -61.5l-12 -83q-6 -44 6 -63.5t46 -19.5q46 0 105 30z" />
<glyph unicode="&#xaa;" horiz-adv-x="440" d="M192 389q0 -40 51 -40q26 0 56 13.5t45 33.5l5 42q-39 9 -88 9q-69 0 -69 -58zM468 556l-39 -281h-85l-1 41q-21 -21 -59.5 -35t-72.5 -14q-57 0 -90.5 26t-33.5 78q0 147 174 147q47 0 98 -12l6 44q5 39 -13.5 54.5t-59.5 15.5q-64 0 -118 -27l-23 76q84 44 174 44 q164 0 143 -157z" />
<glyph unicode="&#xab;" horiz-adv-x="500" d="M347 279l96 -116l-69 -76l-55 65l-58 -65l-130 153l11 78l174 154l39 -65l74 65l47 -76zM233 279l14 -17l5 34z" />
<glyph unicode="&#xac;" horiz-adv-x="620" d="M95 335l16 113h524l-36 -257h-126l20 144h-398z" />
<glyph unicode="&#xad;" horiz-adv-x="390" d="M96 244l16 114h304l-16 -114h-304z" />
<glyph unicode="&#xae;" horiz-adv-x="690" d="M227 150l56 399h151q64 0 96 -32t23 -92l-3 -20q-13 -85 -86 -111l58 -144h-113l-44 132h-24l-20 -132h-94zM350 357h45q55 0 62 53l1 8q4 29 -8 40.5t-39 11.5h-45zM81 209l40 279q14 100 108.5 161t215.5 61q122 0 199 -61t63 -161l-39 -279q-15 -101 -109 -162 t-216 -61q-121 0 -198.5 61t-63.5 162zM209 488l-40 -280q-8 -63 48.5 -100t137.5 -37t148.5 37t76.5 100l40 280q6 42 -20.5 74.5t-71 48t-95.5 15.5q-80 0 -147.5 -38t-76.5 -100z" />
<glyph unicode="&#xaf;" horiz-adv-x="389" d="M126 589l16 114h304l-16 -114h-304z" />
<glyph unicode="&#xb0;" horiz-adv-x="355" d="M123 564l2 17q7 61 49.5 98.5t102.5 37.5q62 0 93.5 -37t23.5 -99l-2 -17q-8 -64 -50 -100t-106 -36q-61 0 -91.5 36t-21.5 100zM246 504q70 0 70 82q0 53 -51 53q-65 0 -65 -82q0 -53 46 -53z" />
<glyph unicode="&#xb1;" horiz-adv-x="566" d="M92 311l15 106h180l20 143h110l-20 -143h180l-15 -106h-180l-20 -143h-110l20 143h-180zM51 19l15 104h470l-15 -104h-470z" />
<glyph unicode="&#xb2;" horiz-adv-x="418" d="M244 325h174l-13 -91h-327l9 64l208 198q47 46 47 81q0 18 -12 30t-35 12q-49 0 -128 -34l-26 73q90 52 173 52q67 0 99 -32t32 -85q0 -46 -25 -84.5t-67 -78.5z" />
<glyph unicode="&#xb3;" horiz-adv-x="411" d="M412 372q-7 -65 -56.5 -105t-126.5 -40q-88 0 -147 41l38 74q52 -25 114 -25q60 0 71 58l1 5q5 29 -5.5 44.5t-33.5 15.5h-55l10 72h55q23 0 37 21.5t14 46.5q0 43 -44 43q-59 0 -113 -22l-17 72q66 39 151 39q64 0 96 -31t32 -82q0 -31 -14.5 -65t-38.5 -55 q18 -14 26.5 -41t6.5 -55z" />
<glyph unicode="&#xb4;" horiz-adv-x="310" d="M149 615l104 149l84 -58l-132 -130z" />
<glyph unicode="&#xb6;" horiz-adv-x="563" d="M257 -110l53 373h-20q-90 0 -137.5 54t-34.5 152l3 25q13 99 77.5 152.5t170.5 53.5h234l-114 -810h-77l102 722h-77l-102 -722h-78z" />
<glyph unicode="&#xb7;" horiz-adv-x="220" d="M238 349q0 -40 -25.5 -62t-65.5 -22q-32 0 -50.5 16t-18.5 46q0 41 25 63t64 22q33 0 52 -16t19 -47z" />
<glyph unicode="&#xb8;" horiz-adv-x="260" d="M21 -157l13 47q11 -5 32 -5q18 0 29 7t11 19q0 13 -14 18.5t-28 4.5h-15l37 66h83l-17 -33q53 -9 53 -55q0 -42 -36 -60.5t-84 -18.5q-34 0 -64 10z" />
<glyph unicode="&#xb9;" horiz-adv-x="297" d="M92 334h67l35 249l-61 -36l-33 72l130 85h81l-52 -370h65l-12 -85h-232z" />
<glyph unicode="&#xba;" horiz-adv-x="432" d="M214 530l-12 -80q-13 -89 65 -89q75 0 88 89l12 80q13 90 -64 90t-89 -90zM99 441l14 98q11 81 65.5 127.5t137.5 46.5t124.5 -46.5t30.5 -127.5l-14 -98q-11 -81 -65.5 -127.5t-137.5 -46.5t-124.5 46.5t-30.5 127.5z" />
<glyph unicode="&#xbb;" horiz-adv-x="500" d="M151 87l-47 76l128 116l-95 117l68 76l55 -65l58 65l132 -154l-11 -78l-175 -153l-40 65zM346 279l-14 16l-4 -32z" />
<glyph unicode="&#xbc;" horiz-adv-x="907" d="M524 83l8 60l180 321h104l-158 -291h99l19 133h101l-19 -133h33l-12 -90h-34l-12 -83h-100l12 83h-221zM167 0l549 700h137l-550 -700h-136zM101 334h67l35 249l-61 -36l-32 72l129 85h82l-52 -370h64l-12 -85h-232z" />
<glyph unicode="&#xbd;" horiz-adv-x="964" d="M101 334h67l35 249l-61 -36l-32 72l129 85h82l-52 -370h64l-12 -85h-232zM710 700h136l-550 -700h-135zM767 91h176l-13 -91h-328l9 65l211 198q47 44 47 80q0 18 -12 30t-35 12q-53 0 -128 -34l-25 74q87 51 173 51q66 0 98 -31.5t32 -84.5q0 -78 -91 -163z" />
<glyph unicode="&#xbe;" horiz-adv-x="936" d="M553 83l8 60l182 321h103l-158 -291h100l18 133h100l-18 -133h33l-13 -90h-33l-12 -83h-100l12 83h-222zM191 0l550 700h136l-551 -700h-135zM402 372q-7 -65 -56.5 -105t-126.5 -40q-88 0 -146 41l38 74q52 -25 114 -25q59 0 70 58l1 5q5 29 -5.5 44.5t-32.5 15.5h-55 l10 72h54q22 0 37 22t15 45q0 44 -45 44q-58 0 -112 -22l-18 72q68 39 151 39q64 0 96.5 -31t32.5 -83q0 -31 -15 -64.5t-38 -54.5q18 -14 26 -41t6 -55z" />
<glyph unicode="&#xbf;" horiz-adv-x="483" d="M222 172l-1 -7q-4 -30 12.5 -48.5t55.5 -18.5q84 0 153 35l34 -88q-92 -59 -207 -59q-101 0 -147.5 49.5t-35.5 127.5l2 14q8 59 36.5 98.5t84.5 87.5q46 40 64 63.5t23 58.5l4 28h128l-5 -34q-7 -48 -25 -82.5t-35 -51.5t-58 -50q-74 -60 -83 -123zM302 629 q0 40 25.5 62t65.5 22q32 0 50.5 -16t18.5 -46q0 -41 -25 -63t-64 -22q-33 0 -52 16t-19 47z" />
<glyph unicode="&#xc0;" horiz-adv-x="605" d="M458 0l-26 123h-224l-61 -123h-148l328 605l-18 95h136l160 -700h-147zM366 443l-104 -211h148zM291 850l100 58l62 -149l-66 -39z" />
<glyph unicode="&#xc1;" horiz-adv-x="605" d="M458 0l-26 123h-224l-61 -123h-148l328 605l-18 95h136l160 -700h-147zM366 443l-104 -211h148zM372 765l104 149l84 -58l-132 -130z" />
<glyph unicode="&#xc2;" horiz-adv-x="605" d="M458 0l-26 123h-224l-61 -123h-148l328 605l-18 95h136l160 -700h-147zM280 761l94 106h101l64 -106l-92 -25l-32 67l-50 -67zM366 443l-104 -211h148z" />
<glyph unicode="&#xc3;" horiz-adv-x="605" d="M458 0l-26 123h-224l-61 -123h-148l328 605l-18 95h136l160 -700h-147zM300 742l-85 21q13 53 45.5 87t78.5 34q37 0 88.5 -23t63.5 -23q35 0 41 41l85 -20q-12 -55 -43.5 -88t-81.5 -33q-36 0 -84 22.5t-65 22.5q-37 0 -43 -41zM366 443l-104 -211h148z" />
<glyph unicode="&#xc4;" horiz-adv-x="605" d="M458 0l-26 123h-224l-61 -123h-148l328 605l-18 95h136l160 -700h-147zM531 747q-55 0 -55 58q0 40 19.5 64.5t56.5 24.5q56 0 56 -60q0 -40 -19 -63.5t-58 -23.5zM278 747q-55 0 -55 58q0 40 19.5 64.5t56.5 24.5q56 0 56 -61q0 -38 -19.5 -62t-57.5 -24zM366 443 l-104 -211h148z" />
<glyph unicode="&#xc5;" horiz-adv-x="605" d="M458 0l-26 123h-224l-61 -123h-148l328 605l-18 95h136l160 -700h-147zM332 803l1 10q4 36 30.5 58t62.5 22t56.5 -22t16.5 -58l-1 -10q-4 -36 -31 -57.5t-64 -21.5q-36 0 -56 21t-15 58zM366 443l-104 -211h148zM409 772q18 0 28 11.5t10 30.5q0 30 -27 30 q-36 0 -36 -44q0 -28 25 -28z" />
<glyph unicode="&#xc6;" horiz-adv-x="919" d="M-5 0l465 700h517l-16 -119h-289l-29 -206h240l-17 -118h-240l-19 -139h296l-17 -118h-431l26 187h-208l-115 -187h-163zM343 305h155l39 281h-22z" />
<glyph unicode="&#xc7;" horiz-adv-x="581" d="M254 473l-35 -246q-8 -59 17 -91t75 -32q43 0 73.5 19.5t43.5 54.5l126 -28q-23 -67 -80 -109.5t-137 -52.5l-10 -21q52 -9 52 -55q0 -42 -36.5 -60.5t-84.5 -18.5q-32 0 -64 10l13 47q11 -5 32 -5q41 0 41 26q0 13 -14 18.5t-28 4.5h-15l30 54q-89 12 -136 73t-34 154 l38 271q15 103 91.5 165.5t184.5 62.5q95 0 152 -44.5t61 -119.5l-134 -28q-3 35 -28 54.5t-68 19.5q-50 0 -84 -32t-42 -91z" />
<glyph unicode="&#xc8;" horiz-adv-x="513" d="M57 0l98 700h417l-16 -119h-283l-24 -167h236l-16 -117h-236l-25 -179h290l-17 -118h-424zM277 846l100 58l62 -149l-66 -39z" />
<glyph unicode="&#xc9;" horiz-adv-x="513" d="M57 0l98 700h417l-16 -119h-283l-24 -168h236l-16 -114h-236l-25 -181h290l-17 -118h-424zM323 759l104 149l84 -58l-132 -130z" />
<glyph unicode="&#xca;" horiz-adv-x="513" d="M57 0l98 700h417l-16 -119h-283l-24 -167h236l-16 -117h-236l-25 -179h290l-17 -118h-424zM247 761l94 106h101l64 -106l-92 -25l-32 67l-50 -67z" />
<glyph unicode="&#xcb;" horiz-adv-x="513" d="M246 747q-55 0 -55 58q0 40 19.5 64.5t56.5 24.5q57 0 57 -61q0 -39 -20 -62.5t-58 -23.5zM482 747q-56 0 -56 59q0 39 20 63.5t57 24.5q55 0 55 -60q0 -40 -19 -63.5t-57 -23.5zM57 0l98 700h417l-16 -119h-283l-24 -167h236l-16 -117h-236l-25 -179h290l-17 -118h-424z " />
<glyph unicode="&#xcc;" horiz-adv-x="246" d="M57 0l98 700h134l-98 -700h-134zM122 850l100 58l62 -149l-66 -39z" />
<glyph unicode="&#xcd;" horiz-adv-x="246" d="M57 0l98 700h134l-98 -700h-134zM173 756l104 149l84 -58l-132 -130z" />
<glyph unicode="&#xce;" horiz-adv-x="246" d="M57 0l98 700h134l-98 -700h-134zM101 761l94 106h101l64 -106l-92 -25l-32 67l-50 -67z" />
<glyph unicode="&#xcf;" horiz-adv-x="246" d="M149 747q-54 0 -54 58q0 39 18.5 64t56.5 25q54 0 54 -59q0 -40 -18.5 -64t-56.5 -24zM57 0l98 700h134l-98 -700h-134zM309 747q-52 0 -52 57q0 40 18 65t55 25q54 0 54 -60q0 -39 -18.5 -63t-56.5 -24z" />
<glyph unicode="&#xd0;" horiz-adv-x="597" d="M156 700h257q107 0 161 -62t39 -166l-35 -244q-15 -105 -88 -166.5t-187 -61.5q-137 0 -240 39l36 258h-48l15 108h48zM445 240l31 220q17 121 -80 121h-123l-25 -176h128l-15 -109h-128l-23 -166q53 -14 110 -14q108 0 125 124z" />
<glyph unicode="&#xd1;" horiz-adv-x="618" d="M306 743l-85 21q13 53 45.5 87t78.5 34q37 0 88.5 -23t63.5 -23q35 0 41 41l85 -20q-12 -55 -43.5 -88t-81.5 -33q-36 0 -84 22.5t-65 22.5q-37 0 -43 -41zM57 0l98 700h121l195 -430l56 430h134l-98 -700h-124l-193 427l-57 -427h-132z" />
<glyph unicode="&#xd2;" horiz-adv-x="611" d="M82 215l38 271q15 103 96.5 165.5t190.5 62.5q107 0 171.5 -62.5t49.5 -165.5l-38 -271q-15 -104 -96.5 -166.5t-188.5 -62.5q-109 0 -173.5 62.5t-49.5 166.5zM253 473l-34 -246q-8 -58 21 -90t81 -32q51 0 89.5 32t46.5 90l34 246q8 59 -20.5 91t-79.5 32 q-52 0 -90.5 -32t-47.5 -91zM301 863l100 58l62 -149l-66 -39z" />
<glyph unicode="&#xd3;" horiz-adv-x="611" d="M82 215l38 271q15 103 96.5 165.5t190.5 62.5q107 0 171.5 -62.5t49.5 -165.5l-38 -271q-15 -104 -96.5 -166.5t-188.5 -62.5q-109 0 -173.5 62.5t-49.5 166.5zM253 473l-34 -246q-8 -58 21 -90t81 -32q51 0 89.5 32t46.5 90l34 246q8 59 -20.5 91t-79.5 32 q-52 0 -90.5 -32t-47.5 -91zM377 771l104 149l84 -58l-132 -130z" />
<glyph unicode="&#xd4;" horiz-adv-x="611" d="M82 215l38 271q15 103 96.5 165.5t190.5 62.5q107 0 171.5 -62.5t49.5 -165.5l-38 -271q-15 -104 -96.5 -166.5t-188.5 -62.5q-109 0 -173.5 62.5t-49.5 166.5zM253 473l-34 -246q-8 -58 21 -90t81 -32q51 0 89.5 32t46.5 90l34 246q8 59 -20.5 91t-79.5 32 q-52 0 -90.5 -32t-47.5 -91zM284 761l94 106h101l64 -106l-92 -25l-32 67l-50 -67z" />
<glyph unicode="&#xd5;" horiz-adv-x="611" d="M82 215l38 271q15 103 96.5 165.5t190.5 62.5q107 0 171.5 -62.5t49.5 -165.5l-38 -271q-15 -104 -96.5 -166.5t-188.5 -62.5q-109 0 -173.5 62.5t-49.5 166.5zM253 473l-34 -246q-8 -58 21 -90t81 -32q51 0 89.5 32t46.5 90l34 246q8 59 -20.5 91t-79.5 32 q-52 0 -90.5 -32t-47.5 -91zM305 743l-85 21q13 53 45.5 87t78.5 34q37 0 88.5 -23t63.5 -23q35 0 41 41l85 -20q-12 -55 -43.5 -88t-81.5 -33q-36 0 -84 22.5t-65 22.5q-37 0 -43 -41z" />
<glyph unicode="&#xd6;" horiz-adv-x="615" d="M84 215l38 271q15 103 96 165.5t190 62.5q108 0 172.5 -62.5t49.5 -165.5l-38 -271q-15 -104 -96.5 -166.5t-189.5 -62.5q-109 0 -173 62.5t-49 166.5zM255 473l-34 -246q-8 -58 20.5 -90t80.5 -32t90.5 32t46.5 90l34 246q8 59 -20.5 91t-80.5 32t-90 -32t-47 -91z M529 747q-54 0 -54 58q0 40 18.5 64.5t55.5 24.5q57 0 57 -60q0 -40 -19 -63.5t-58 -23.5zM294 747q-55 0 -55 58q0 40 19 64.5t56 24.5q57 0 57 -61q0 -38 -19.5 -62t-57.5 -24z" />
<glyph unicode="&#xd7;" horiz-adv-x="556" d="M53 109l187 168l-140 169l90 84l138 -169l187 169l65 -84l-186 -169l139 -168l-89 -84l-139 168l-186 -168z" />
<glyph unicode="&#xd8;" horiz-adv-x="611" d="M75 66l-47 109l55 40l38 270q15 103 96.5 166t190.5 63q71 0 123 -26.5t76 -76.5l31 23l43 -112l-52 -39l-38 -268q-15 -103 -97 -166t-189 -63q-71 0 -123 26.5t-78 75.5zM457 228l20 138l-257 -189q17 -72 102 -72q51 0 89 32.5t46 90.5zM235 334l256 188 q-7 35 -34.5 54.5t-65.5 19.5q-52 0 -90.5 -33t-46.5 -91z" />
<glyph unicode="&#xd9;" horiz-adv-x="596" d="M596 -2q-76 -16 -115.5 -2t-46.5 64q-79 -74 -184 -74q-103 0 -142.5 54.5t-24.5 163.5l70 496h136l-68 -483q-8 -60 10.5 -87.5t67.5 -27.5q38 0 74 19t58 48l75 531h135l-81 -571q-3 -29 12 -35t38 4zM281 856l100 58l62 -149l-66 -39z" />
<glyph unicode="&#xda;" horiz-adv-x="596" d="M367 765l104 149l84 -58l-132 -130zM596 -2q-76 -16 -115.5 -2t-46.5 64q-79 -74 -184 -74q-103 0 -142.5 54.5t-24.5 163.5l70 496h136l-68 -483q-8 -60 10.5 -87.5t67.5 -27.5q38 0 74 19t58 48l75 531h135l-81 -571q-3 -29 12 -35t38 4z" />
<glyph unicode="&#xdb;" horiz-adv-x="596" d="M278 761l94 106h101l64 -106l-92 -25l-32 67l-50 -67zM596 -2q-76 -16 -115.5 -2t-46.5 64q-79 -74 -184 -74q-103 0 -142.5 54.5t-24.5 163.5l70 496h136l-68 -483q-8 -60 10.5 -87.5t67.5 -27.5q38 0 74 19t58 48l75 531h135l-81 -571q-3 -29 12 -35t38 4z" />
<glyph unicode="&#xdc;" horiz-adv-x="596" d="M596 -2q-76 -16 -115.5 -2t-46.5 64q-79 -74 -184 -74q-103 0 -142.5 54.5t-24.5 163.5l70 496h136l-68 -483q-8 -60 10.5 -87.5t67.5 -27.5q38 0 74 19t58 48l75 531h135l-81 -571q-3 -29 12 -35t38 4zM284 744q-27 0 -41 16t-14 43q0 39 19.5 63.5t56.5 24.5 q57 0 57 -61q0 -38 -20 -62t-58 -24zM519 744q-54 0 -54 58q0 39 19 64t56 25q58 0 58 -61q0 -39 -20 -62.5t-59 -23.5z" />
<glyph unicode="&#xdd;" horiz-adv-x="561" d="M214 0l36 257l-152 443h148l92 -305l174 305h147l-274 -441l-36 -259h-135zM345 765l104 149l84 -58l-132 -130z" />
<glyph unicode="&#xde;" horiz-adv-x="579" d="M57 0l98 700h134l-16 -119h113q108 0 161 -56t40 -159l-4 -32q-13 -102 -83 -158.5t-179 -56.5h-113l-17 -119h-134zM224 235h113q92 0 112 110l2 10q20 109 -82 109h-113z" />
<glyph unicode="&#xdf;" horiz-adv-x="569" d="M60 0l49 350h-52l15 110h52l12 85q14 100 74 155.5t155 55.5q82 0 125 -38.5t32 -110.5q-5 -34 -23.5 -64.5t-38 -49t-35 -42t-15.5 -45.5q0 -23 21.5 -50.5t48 -51t48 -61.5t21.5 -81q0 -76 -53.5 -126t-161.5 -50q-55 0 -95 15l35 107q34 -10 66 -10q33 0 57 15.5 t24 46.5q0 23 -21 48.5t-45.5 46t-45.5 56t-21 76.5q0 39 17.5 71t38 50t38 44t17.5 54q0 42 -52 42q-68 0 -83 -113l-75 -535h-129z" />
<glyph unicode="&#xe0;" d="M542 -2q-76 -15 -113 -2t-47 54q-68 -60 -157 -60q-85 0 -120 55t-21 155l18 127q14 97 72.5 150t146.5 53q74 0 126 -37l20 27h92l-55 -391q-4 -29 12.5 -35t39.5 4zM381 160l33 235q-42 24 -91 24q-79 0 -94 -102l-15 -105q-8 -57 5 -83.5t55 -26.5q28 0 57.5 16.5 t49.5 41.5zM243 706l100 58l62 -149l-66 -39z" />
<glyph unicode="&#xe1;" d="M542 -2q-76 -15 -113 -2t-47 54q-68 -60 -157 -60q-85 0 -120 55t-21 155l18 127q14 97 72.5 150t146.5 53q74 0 126 -37l20 27h92l-55 -391q-4 -29 12.5 -35t39.5 4zM381 160l33 235q-42 24 -91 24q-79 0 -94 -102l-15 -105q-8 -57 5 -83.5t55 -26.5q28 0 57.5 16.5 t49.5 41.5zM324 615l104 149l84 -58l-132 -130z" />
<glyph unicode="&#xe2;" d="M247 601l94 106h101l64 -106l-92 -25l-32 67l-50 -67zM542 -2q-76 -15 -113 -2t-47 54q-68 -60 -157 -60q-85 0 -120 55t-21 155l18 127q14 97 72.5 150t146.5 53q74 0 126 -37l20 27h92l-55 -391q-4 -29 12.5 -35t39.5 4zM381 160l33 235q-42 24 -91 24q-79 0 -94 -102 l-15 -105q-8 -57 5 -83.5t55 -26.5q28 0 57.5 16.5t49.5 41.5z" />
<glyph unicode="&#xe3;" d="M542 -2q-76 -15 -113 -2t-47 54q-68 -60 -157 -60q-85 0 -120 55t-21 155l18 127q14 97 72.5 150t146.5 53q74 0 126 -37l20 27h92l-55 -391q-4 -29 12.5 -35t39.5 4zM381 160l33 235q-42 24 -91 24q-79 0 -94 -102l-15 -105q-8 -57 5 -83.5t55 -26.5q28 0 57.5 16.5 t49.5 41.5zM262 593l-85 21q13 53 45.5 87t78.5 34q37 0 88.5 -23t63.5 -23q35 0 41 41l85 -20q-12 -55 -43.5 -88t-81.5 -33q-36 0 -84 22.5t-65 22.5q-37 0 -43 -41z" />
<glyph unicode="&#xe4;" d="M542 -2q-76 -15 -113 -2t-47 54q-68 -60 -157 -60q-85 0 -120 55t-21 155l18 127q14 97 72.5 150t146.5 53q74 0 126 -37l20 27h92l-55 -391q-4 -29 12.5 -35t39.5 4zM381 160l33 235q-42 24 -91 24q-79 0 -94 -102l-15 -105q-8 -57 5 -83.5t55 -26.5q28 0 57.5 16.5 t49.5 41.5zM235 607q-27 0 -41 16t-14 43q0 39 19.5 63.5t56.5 24.5q57 0 57 -61q0 -38 -20 -62t-58 -24zM470 607q-54 0 -54 58q0 39 19 64t56 25q58 0 58 -61q0 -39 -20 -62.5t-59 -23.5z" />
<glyph unicode="&#xe5;" horiz-adv-x="532" d="M291 683l1 10q4 36 31 58t63 22q37 0 57 -21.5t16 -58.5l-1 -10q-4 -37 -30.5 -58t-65.5 -21q-36 0 -56 21t-15 58zM369 652q38 0 38 42q0 30 -28 30q-36 0 -36 -43q0 -29 26 -29zM542 -2q-76 -15 -113 -2t-47 54q-68 -60 -157 -60q-85 0 -120 55t-21 155l18 127 q14 97 72.5 150t146.5 53q74 0 126 -37l20 27h92l-55 -391q-4 -29 12.5 -35t39.5 4zM381 160l33 235q-42 24 -91 24q-79 0 -94 -102l-15 -105q-8 -57 5 -83.5t55 -26.5q28 0 57.5 16.5t49.5 41.5z" />
<glyph unicode="&#xe6;" horiz-adv-x="1084" d="M824 219h-307l-2 -14q-16 -106 76 -106q72 0 158 44l36 -89q-99 -64 -211 -64q-119 0 -164 78q-91 -78 -186 -78q-84 0 -119 54.5t-21 155.5l18 127q14 98 72.5 150.5t146.5 52.5q94 0 164 -56q64 56 165 56t151.5 -56.5t36.5 -155.5zM380 160l33 235q-41 24 -90 24 q-79 0 -94 -102l-15 -105q-8 -57 5 -83.5t55 -26.5q28 0 57 16.5t49 41.5zM708 314q14 107 -74 107q-93 0 -106 -107l-1 -8h180z" />
<glyph unicode="&#xe7;" horiz-adv-x="530" d="M446 143l35 -89q-81 -51 -166 -62l-12 -25q52 -9 52 -55q0 -42 -36 -60.5t-84 -18.5q-34 0 -64 10l13 47q11 -5 32 -5q40 0 40 26q0 13 -14 18.5t-28 4.5h-15l32 58q-82 11 -121 66.5t-27 143.5l16 116q13 99 79.5 155.5t167.5 56.5q111 0 193 -64l-61 -88 q-70 42 -143 42q-94 0 -109 -113l-13 -94q-15 -112 77 -112q74 0 156 42z" />
<glyph unicode="&#xe8;" horiz-adv-x="540" d="M224 306h180l1 8q14 107 -74 107q-93 0 -106 -107zM482 54q-103 -64 -211 -64q-101 0 -151.5 56.5t-37.5 154.5l17 117q14 99 80.5 155.5t167.5 56.5t151 -56.5t36 -155.5l-14 -99h-306l-2 -14q-16 -106 76 -106q72 0 158 44zM235 706l100 58l62 -149l-66 -39z" />
<glyph unicode="&#xe9;" horiz-adv-x="540" d="M322 615l104 149l84 -58l-132 -130zM224 306h180l1 8q14 107 -74 107q-93 0 -106 -107zM482 54q-103 -64 -211 -64q-101 0 -151.5 56.5t-37.5 154.5l17 117q14 99 80.5 155.5t167.5 56.5t151 -56.5t36 -155.5l-14 -99h-306l-2 -14q-16 -106 76 -106q72 0 158 44z" />
<glyph unicode="&#xea;" horiz-adv-x="540" d="M232 611l94 106h101l64 -106l-92 -25l-32 67l-50 -67zM224 306h180l1 8q14 107 -74 107q-93 0 -106 -107zM482 54q-103 -64 -211 -64q-101 0 -151.5 56.5t-37.5 154.5l17 117q14 99 80.5 155.5t167.5 56.5t151 -56.5t36 -155.5l-14 -99h-306l-2 -14q-16 -106 76 -106 q72 0 158 44z" />
<glyph unicode="&#xeb;" horiz-adv-x="540" d="M239 607q-55 0 -55 58q0 40 19.5 64.5t56.5 24.5q57 0 57 -61q0 -38 -20 -62t-58 -24zM474 607q-27 0 -41 16t-14 43q0 39 20 63.5t56 24.5q58 0 58 -61q0 -39 -20.5 -62.5t-58.5 -23.5zM224 306h180l1 8q14 107 -74 107q-93 0 -106 -107zM482 54q-103 -64 -211 -64 q-101 0 -151.5 56.5t-37.5 154.5l17 117q14 99 80.5 155.5t167.5 56.5t151 -56.5t36 -155.5l-14 -99h-306l-2 -14q-16 -106 76 -106q72 0 158 44z" />
<glyph unicode="&#xec;" horiz-adv-x="246" d="M133 520h128l-73 -520h-129zM95 706l100 58l62 -149l-66 -39z" />
<glyph unicode="&#xed;" horiz-adv-x="246" d="M166 615l104 149l84 -58l-132 -130zM133 520h128l-73 -520h-129z" />
<glyph unicode="&#xee;" horiz-adv-x="246" d="M81 611l94 106h101l64 -106l-92 -25l-32 67l-50 -67zM133 520h128l-73 -520h-129z" />
<glyph unicode="&#xef;" horiz-adv-x="246" d="M125 615q-24 0 -37 14.5t-13 38.5q0 34 18.5 56t50.5 22q51 0 51 -55q0 -33 -18.5 -54.5t-51.5 -21.5zM279 615q-50 0 -50 53q0 34 18 56t51 22q50 0 50 -54q0 -34 -18 -55.5t-51 -21.5zM133 520h128l-73 -520h-129z" />
<glyph unicode="&#xf0;" horiz-adv-x="536" d="M80 184l21 151q26 186 211 186q70 0 116 -36l3 21q5 33 -3 59l-51 -36l-40 63l38 27q-20 11 -51 11q-32 0 -59 -9l-11 99q50 15 94 15q80 0 130 -33l70 50l37 -64l-51 -38q33 -51 22 -126l-46 -329q-14 -98 -77.5 -151.5t-170.5 -53.5q-95 0 -145 50t-37 144zM213 303 l-12 -87q-9 -65 9 -94.5t68 -29.5t77 30t36 94l22 160q-14 19 -41.5 31t-56.5 12q-47 0 -70.5 -27t-31.5 -89z" />
<glyph unicode="&#xf1;" horiz-adv-x="543" d="M250 593l-85 21q13 53 45.5 87t78.5 34q37 0 88.5 -23t63.5 -23q35 0 41 41l85 -20q-12 -55 -43.5 -88t-81.5 -33q-36 0 -84 22.5t-65 22.5q-37 0 -43 -41zM460 -10q-51 0 -74.5 22t-16.5 74l34 241q7 47 -7 68t-54 21q-53 0 -103 -54l-51 -362h-128l73 520h111l4 -49 q29 26 68.5 42.5t75.5 16.5q168 0 141 -190l-30 -215q-4 -32 24 -32q10 0 28 5l-15 -100q-48 -8 -80 -8z" />
<glyph unicode="&#xf2;" horiz-adv-x="542" d="M246 706l100 58l62 -149l-66 -39zM227 308l-15 -96q-8 -54 11 -82.5t63 -28.5q43 0 70.5 28.5t34.5 82.5l13 96q15 111 -73 111q-89 0 -104 -111zM82 201l17 118q14 98 80.5 154.5t167.5 56.5t150.5 -56.5t36.5 -154.5l-16 -118q-13 -98 -79.5 -154.5t-167.5 -56.5 t-151.5 56.5t-37.5 154.5z" />
<glyph unicode="&#xf3;" horiz-adv-x="542" d="M323 615l104 149l84 -58l-132 -130zM227 308l-15 -96q-8 -54 11 -82.5t63 -28.5q43 0 70.5 28.5t34.5 82.5l13 96q15 111 -73 111q-89 0 -104 -111zM82 201l17 118q14 98 80.5 154.5t167.5 56.5t150.5 -56.5t36.5 -154.5l-16 -118q-13 -98 -79.5 -154.5t-167.5 -56.5 t-151.5 56.5t-37.5 154.5z" />
<glyph unicode="&#xf4;" horiz-adv-x="542" d="M227 611l94 106h101l64 -106l-92 -25l-32 67l-50 -67zM227 308l-15 -96q-8 -54 11 -82.5t63 -28.5q43 0 70.5 28.5t34.5 82.5l13 96q15 111 -73 111q-89 0 -104 -111zM82 201l17 118q14 98 80.5 154.5t167.5 56.5t150.5 -56.5t36.5 -154.5l-16 -118q-13 -98 -79.5 -154.5 t-167.5 -56.5t-151.5 56.5t-37.5 154.5z" />
<glyph unicode="&#xf5;" horiz-adv-x="542" d="M227 308l-15 -96q-8 -54 11 -82.5t63 -28.5q43 0 70.5 28.5t34.5 82.5l13 96q15 111 -73 111q-89 0 -104 -111zM82 201l17 118q14 98 80.5 154.5t167.5 56.5t150.5 -56.5t36.5 -154.5l-16 -118q-13 -98 -79.5 -154.5t-167.5 -56.5t-151.5 56.5t-37.5 154.5zM247 593 l-85 21q13 53 45.5 87t78.5 34q37 0 88.5 -23t63.5 -23q35 0 41 41l85 -20q-12 -55 -43.5 -88t-81.5 -33q-36 0 -84 22.5t-65 22.5q-37 0 -43 -41z" />
<glyph unicode="&#xf6;" horiz-adv-x="542" d="M237 607q-55 0 -55 59q0 39 20 63.5t56 24.5q58 0 58 -61q0 -39 -20.5 -62.5t-58.5 -23.5zM472 607q-54 0 -54 59q0 39 19.5 63.5t55.5 24.5q58 0 58 -61q0 -38 -20.5 -62t-58.5 -24zM227 308l-15 -96q-8 -54 11 -82.5t63 -28.5q43 0 70.5 28.5t34.5 82.5l13 96 q15 111 -73 111q-89 0 -104 -111zM82 201l17 118q14 98 80.5 154.5t167.5 56.5t150.5 -56.5t36.5 -154.5l-16 -118q-13 -98 -79.5 -154.5t-167.5 -56.5t-151.5 56.5t-37.5 154.5z" />
<glyph unicode="&#xf7;" horiz-adv-x="559" d="M271 -10q-64 0 -64 60q0 44 23 66t62 22q66 0 66 -62q0 -42 -24 -64t-63 -22zM332 422q-64 0 -64 60q0 44 22.5 66t62.5 22q65 0 65 -63q0 -42 -23.5 -63.5t-62.5 -21.5zM73 223l16 114h475l-16 -114h-475z" />
<glyph unicode="&#xf8;" horiz-adv-x="542" d="M534 319l-17 -118q-14 -98 -80 -154.5t-167 -56.5t-149 57l-39 -29l-59 98l56 42q0 20 3 43l17 118q14 98 80 154.5t167 56.5t151 -59l39 29l55 -98l-55 -41q0 -14 -2 -42zM226 308l-6 -45l170 128q-18 28 -59 28q-90 0 -105 -111zM390 212l7 43l-169 -127q16 -27 58 -27 q89 0 104 111z" />
<glyph unicode="&#xf9;" horiz-adv-x="531" d="M213 -10q-83 0 -114 47.5t-17 147.5l47 335h128l-46 -330q-7 -47 4.5 -67.5t47.5 -20.5q59 0 106 58l50 360h130l-55 -391q-4 -29 11.5 -35t38.5 4l-14 -100q-76 -15 -113 -2t-46 54q-70 -60 -158 -60zM250 706l100 58l62 -149l-66 -39z" />
<glyph unicode="&#xfa;" horiz-adv-x="531" d="M313 615l104 149l84 -58l-132 -130zM213 -10q-83 0 -114 47.5t-17 147.5l47 335h128l-46 -330q-7 -47 4.5 -67.5t47.5 -20.5q59 0 106 58l50 360h130l-55 -391q-4 -29 11.5 -35t38.5 4l-14 -100q-76 -15 -113 -2t-46 54q-70 -60 -158 -60z" />
<glyph unicode="&#xfb;" horiz-adv-x="531" d="M221 611l94 106h101l64 -106l-92 -25l-32 67l-50 -67zM213 -10q-83 0 -114 47.5t-17 147.5l47 335h128l-46 -330q-7 -47 4.5 -67.5t47.5 -20.5q59 0 106 58l50 360h130l-55 -391q-4 -29 11.5 -35t38.5 4l-14 -100q-76 -15 -113 -2t-46 54q-70 -60 -158 -60z" />
<glyph unicode="&#xfc;" horiz-adv-x="532" d="M232 607q-27 0 -41 16t-14 43q0 39 19.5 63.5t56.5 24.5q57 0 57 -61q0 -38 -20 -62t-58 -24zM467 607q-54 0 -54 58q0 39 19 64t56 25q58 0 58 -61q0 -39 -20 -62.5t-59 -23.5zM213 -10q-83 0 -114 47.5t-17 147.5l47 335h128l-46 -330q-7 -47 4.5 -67.5t47.5 -20.5 q59 0 106 58l50 360h130l-55 -391q-4 -29 11.5 -35t38.5 4l-14 -100q-76 -15 -113 -2t-46 54q-70 -60 -158 -60z" />
<glyph unicode="&#xfd;" horiz-adv-x="537" d="M96 -13q76 -38 158 -38q95 0 109 93l9 63q-65 -59 -152 -59q-82 0 -114 40t-19 129l43 305h129l-39 -273q-7 -47 5.5 -66.5t52.5 -19.5q57 0 102 47l44 312h128l-69 -488q-13 -94 -73.5 -143t-161.5 -49q-121 0 -203 55zM311 615l104 149l84 -58l-132 -130z" />
<glyph unicode="&#xfe;" horiz-adv-x="546" d="M245 403l-40 -286q34 -16 86 -16q85 0 100 103l22 154q8 51 -6.5 74.5t-55.5 23.5q-55 0 -106 -53zM39 -150l126 900h128l-32 -233q64 53 135 53q92 0 127 -50.5t20 -151.5l-25 -177q-13 -91 -73.5 -146t-154.5 -55q-63 0 -101 17l-22 -157h-128z" />
<glyph unicode="&#xff;" horiz-adv-x="537" d="M96 -13q76 -38 158 -38q95 0 109 93l9 63q-65 -59 -152 -59q-82 0 -114 40t-19 129l43 305h129l-39 -273q-7 -47 5.5 -66.5t52.5 -19.5q57 0 102 47l44 312h128l-69 -488q-13 -94 -73.5 -143t-161.5 -49q-121 0 -203 55zM227 607q-27 0 -41 16t-14 43q0 39 19.5 63.5 t56.5 24.5q57 0 57 -61q0 -38 -20 -62t-58 -24zM462 607q-54 0 -54 58q0 39 19 64t56 25q58 0 58 -61q0 -39 -20 -62.5t-59 -23.5z" />
<glyph unicode="&#x152;" horiz-adv-x="850" d="M84 215l38 270q15 105 87 167t179 62q33 0 66.5 -12t48.5 -32l4 30h401l-17 -119h-266l-23 -167h217l-17 -117h-217l-25 -179h273l-16 -118h-408l4 28q-49 -42 -127 -42q-107 0 -162 62t-40 167zM255 473l-34 -246q-8 -59 17 -90.5t75 -31.5q48 0 83.5 32t43.5 88l35 250 q8 56 -18.5 88.5t-74.5 32.5q-50 0 -84.5 -32t-42.5 -91z" />
<glyph unicode="&#x153;" horiz-adv-x="846" d="M82 201l17 118q14 98 80.5 154.5t167.5 56.5q96 0 144 -60q65 60 162 60q101 0 151 -56.5t37 -155.5l-14 -101h-307l-3 -20q-14 -98 77 -98q73 0 159 44l35 -89q-101 -64 -211 -64q-50 0 -88.5 17.5t-55.5 47.5q-57 -65 -162 -65q-101 0 -151.5 56.5t-37.5 154.5z M226 308l-13 -95q-17 -112 73 -112q46 0 72.5 31t31.5 72l14 104q15 111 -73 111t-105 -111zM710 305l2 13q15 103 -74 103t-104 -102l-2 -14h178z" />
<glyph unicode="&#x178;" horiz-adv-x="561" d="M214 0l36 257l-152 443h148l92 -305l174 305h147l-274 -441l-36 -259h-135zM263 744q-27 0 -41 16t-14 43q0 39 19.5 63.5t56.5 24.5q57 0 57 -61q0 -38 -20 -62t-58 -24zM498 744q-54 0 -54 58q0 39 19 64t56 25q58 0 58 -61q0 -39 -20 -62.5t-59 -23.5z" />
<glyph unicode="&#x2c6;" horiz-adv-x="380" d="M147 611l94 106h101l64 -106l-92 -25l-32 67l-50 -67z" />
<glyph unicode="&#x2dc;" horiz-adv-x="468" d="M211 593l-85 21q13 53 45.5 87t78.5 34q37 0 88.5 -23t63.5 -23q35 0 41 41l85 -20q-12 -55 -43.5 -88t-81.5 -33q-36 0 -84 22.5t-65 22.5q-37 0 -43 -41z" />
<glyph unicode="&#x2000;" horiz-adv-x="460" />
<glyph unicode="&#x2001;" horiz-adv-x="921" />
<glyph unicode="&#x2002;" horiz-adv-x="460" />
<glyph unicode="&#x2003;" horiz-adv-x="921" />
<glyph unicode="&#x2004;" horiz-adv-x="307" />
<glyph unicode="&#x2005;" horiz-adv-x="230" />
<glyph unicode="&#x2006;" horiz-adv-x="153" />
<glyph unicode="&#x2007;" horiz-adv-x="153" />
<glyph unicode="&#x2008;" horiz-adv-x="115" />
<glyph unicode="&#x2009;" horiz-adv-x="184" />
<glyph unicode="&#x200a;" horiz-adv-x="51" />
<glyph unicode="&#x2010;" horiz-adv-x="395" d="M80 244l16 114h303l-16 -114h-303z" />
<glyph unicode="&#x2011;" horiz-adv-x="395" d="M80 244l16 114h303l-16 -114h-303z" />
<glyph unicode="&#x2012;" horiz-adv-x="395" d="M80 244l16 114h303l-16 -114h-303z" />
<glyph unicode="&#x2013;" horiz-adv-x="495" d="M42 244l16 114h481l-16 -114h-481z" />
<glyph unicode="&#x2014;" horiz-adv-x="793" d="M42 244l16 114h779l-16 -114h-779z" />
<glyph unicode="&#x2018;" horiz-adv-x="230" d="M294 565l-19 -55q-86 23 -127 75t-41 101q0 30 19 46t51 16q38 0 63.5 -21.5t25.5 -60.5q0 -36 -24 -51q9 -29 52 -50z" />
<glyph unicode="&#x2019;" horiz-adv-x="230" d="M126 510l-19 55q43 21 52 50q-24 15 -24 51q0 39 25.5 60.5t63.5 21.5q32 0 51 -16t19 -46q0 -49 -41 -101t-127 -75z" />
<glyph unicode="&#x201a;" horiz-adv-x="230" d="M40 -104l-19 55q43 21 52 50q-24 15 -24 51q0 39 25.5 60.5t63.5 21.5q32 0 51 -16t19 -46q0 -49 -41 -101t-127 -75z" />
<glyph unicode="&#x201c;" horiz-adv-x="419" d="M294 565l-19 -55q-86 23 -127 75t-41 101q0 30 19 46t51 16q38 0 63.5 -21.5t25.5 -60.5q0 -36 -24 -51q9 -29 52 -50zM484 565l-19 -55q-86 23 -127 75t-41 101q0 30 19 46t51 16q38 0 63.5 -21.5t25.5 -60.5q0 -36 -24 -51q9 -29 52 -50z" />
<glyph unicode="&#x201d;" horiz-adv-x="419" d="M315 510l-19 55q43 21 52 50q-24 15 -24 51q0 39 25.5 60.5t63.5 21.5q32 0 51 -16t19 -46q0 -49 -41 -101t-127 -75zM126 510l-19 55q43 21 52 50q-24 15 -24 51q0 39 25.5 60.5t63.5 21.5q32 0 51 -16t19 -46q0 -49 -41 -101t-127 -75z" />
<glyph unicode="&#x201e;" horiz-adv-x="419" d="M229 -104l-19 55q43 21 52 50q-24 15 -24 51q0 39 25.5 60.5t63.5 21.5q32 0 51 -16t19 -46q0 -49 -41 -101t-127 -75zM40 -104l-19 55q43 21 52 50q-24 15 -24 51q0 39 25.5 60.5t63.5 21.5q32 0 51 -16t19 -46q0 -49 -41 -101t-127 -75z" />
<glyph unicode="&#x2022;" horiz-adv-x="428" d="M234 155q-65 0 -102 35t-37 103q0 98 51 150.5t136 52.5q68 0 105.5 -36t37.5 -107q0 -96 -52 -147t-139 -51z" />
<glyph unicode="&#x2026;" horiz-adv-x="613" d="M394 71q0 -40 -25.5 -62t-65.5 -22q-32 0 -50.5 16t-18.5 46q0 41 25 63t64 22q33 0 52 -16t19 -47zM589 71q0 -40 -25.5 -62t-65.5 -22q-32 0 -50.5 16t-18.5 46q0 41 25 63t64 22q32 0 51.5 -16t19.5 -47zM198 71q0 -40 -25.5 -62t-65.5 -22q-32 0 -50.5 16t-18.5 46 q0 41 25 63t64 22q33 0 52 -16t19 -47z" />
<glyph unicode="&#x202f;" horiz-adv-x="184" />
<glyph unicode="&#x2039;" horiz-adv-x="284" d="M182 279l96 -116l-68 -76l-131 153l11 78l175 154l46 -76z" />
<glyph unicode="&#x203a;" horiz-adv-x="284" d="M100 87l-47 76l128 116l-95 117l68 76l131 -154l-11 -78z" />
<glyph unicode="&#x205f;" horiz-adv-x="230" />
<glyph unicode="&#x2122;" horiz-adv-x="883" d="M430 234l66 467h96l94 -225l154 225h100l-66 -467h-101l39 262l-105 -148h-80l-62 146l-36 -260h-99zM185 234l53 377h-119l13 90h336l-13 -90h-117l-53 -377h-100z" />
<glyph unicode="&#xfb01;" horiz-adv-x="531" d="M60 0l58 410h-52l15 110h52l12 85q11 83 66 117t152 34q94 0 179 -33l-40 -94q-73 21 -151 21q-70 0 -77 -49l-11 -81h279l-73 -520h-128l58 410h-152l-58 -410h-129z" />
<glyph unicode="&#xfb02;" horiz-adv-x="532" d="M60 0l58 416h-52l15 104h52l8 54q26 182 228 182q112 0 201 -64l-97 -692h-129l89 632q-29 13 -70 13q-83 0 -93 -68l-8 -57h108l-15 -104h-108l-58 -416h-129z" />
<glyph unicode="&#xfb03;" horiz-adv-x="787" d="M60 0l58 416h-52l15 104h52l3 23q14 96 64.5 147.5t136.5 51.5q35 0 73 -13t60 -33q57 64 163 64q91 0 171 -33l-33 -84q-67 18 -125 18q-46 0 -71.5 -28.5t-35.5 -90.5l-3 -22h266l-73 -520h-128l57 416h-138l-59 -416h-128l58 416h-144l-58 -416h-129zM262 520h144 l2 13q10 60 20 80q-36 26 -74 26q-41 0 -61.5 -24t-28.5 -81z" />
<glyph unicode="&#xfb04;" horiz-adv-x="803" d="M60 0l58 416h-52l15 104h52l5 35q14 98 65 142.5t143 44.5q68 0 132 -45q63 63 165 63t199 -64l-98 -696h-129l89 635q-30 14 -68 14q-43 0 -66 -24.5t-31 -79.5l-4 -25h107l-15 -104h-107l-58 -416h-129l58 416h-144l-58 -416h-129zM262 520h144l5 35q6 38 15 52 q-36 24 -82 24q-35 0 -53 -19.5t-25 -64.5z" />
</font>
</defs>
</svg>
