<?xml version="1.0" encoding="UTF-8"?> <svg xmlns="http://www.w3.org/2000/svg" id="Layer_1" width="25" height="25" viewBox="0 0 25 25"><defs><style>.cls-1{fill:#fff;}</style></defs><polygon class="cls-1" points="17.02 7.26 12.48 11.8 8.18 7.5 8.18 7.5 7.94 7.26 7.22 7.98 11.76 12.52 7.22 17.06 7.94 17.79 12.48 13.24 17.02 17.79 17.75 17.06 17.5 16.82 17.5 16.82 13.2 12.52 17.75 7.98 17.02 7.26"></polygon><path class="cls-1" d="m21.28,3.66c-4.81-4.85-12.64-4.88-17.49-.07l-.09.09c-4.89,4.84-4.92,12.73-.09,17.62,2.34,2.37,5.53,3.7,8.86,3.69h0c3.32,0,6.5-1.32,8.84-3.68,4.87-4.8,4.93-12.64.14-17.51-.05-.05-.09-.09-.14-.14l-.03-.02Zm-.69,16.94c-2.14,2.15-5.05,3.36-8.09,3.36h0c-6.32.02-11.46-5.1-11.47-11.42-.02-6.32,5.09-11.46,11.41-11.48,6.32-.02,11.46,5.1,11.47,11.42,0,2.99-1.15,5.86-3.23,8l-.12.12h.03Z"></path></svg> 