<?xml version="1.0" encoding="UTF-8"?> <svg xmlns="http://www.w3.org/2000/svg" id="Layer_1" width="1.39in" height=".3in" viewBox="0 0 100 21.79"><defs><style>.cls-1{fill:#fff;}</style></defs><g><path class="cls-1" d="m10.89,0C7.25,0,4.03,1.8,2.06,4.56c.77-.5,1.56-.75,2.39-.75,4.32,0,6.48,4.95,6.48,14.86l3.31-5.17c2-3.13,3.01-5.08,3.01-5.87,0-.26-.31-.39-.93-.39h-.83l.12-.63h4.44l-.13.63h-.86l-9.2,14.5c.34.03.69.05,1.04.05,6.02,0,10.89-4.88,10.89-10.89S16.91,0,10.89,0Z"></path><path class="cls-1" d="m3.53,5.06c-.88,0-1.94.16-2.45,1.12-.69,1.43-1.08,3.02-1.08,4.71,0,5.26,3.74,9.66,8.7,10.67l.05-2.13c0-5.33-.48-9.03-1.45-11.1-1.02-2.18-2.28-3.27-3.77-3.27Z"></path></g><g><path class="cls-1" d="m28.34,8.29c.77-.6,1.76-.9,2.86-.9.57,0,1.38.12,1.88.26.13.03.2.05.3.04.01.24.06.91.15,1.56-.05.07-.21.08-.29.02-.16-.72-.64-1.55-2.17-1.55-1.62,0-3,1.03-3,3.22s1.41,3.45,3.15,3.45c1.37,0,1.97-.89,2.21-1.52.07-.05.23-.03.27.04-.07.55-.35,1.25-.51,1.45-.13.02-.25.06-.37.11-.23.08-1,.24-1.67.24-.95,0-1.87-.19-2.64-.71-.85-.58-1.5-1.55-1.5-2.91,0-1.17.53-2.18,1.34-2.81Z"></path><path class="cls-1" d="m34.85,8.58c0-.62-.01-.69-.33-.88l-.11-.06c-.05-.03-.05-.18,0-.21.27-.09.76-.24,1.14-.45.04,0,.09.02.11.06-.01.32-.03.85-.03,1.31v2.23c0,.09.01.18.04.2.38-.3.89-.55,1.43-.55,1.01,0,1.37.63,1.37,1.37v1.77c0,.76.02.88.4.92l.29.03c.07.05.05.23-.02.26-.38-.02-.69-.03-1.06-.03s-.7.01-.99.03c-.07-.03-.1-.21-.02-.26l.21-.03c.39-.06.4-.16.4-.92v-1.52c0-.68-.33-1.13-1.01-1.13-.36,0-.64.13-.83.29s-.22.21-.22.58v1.78c0,.76.02.87.4.92l.22.03c.07.04.05.23-.02.26-.32-.02-.63-.03-1-.03s-.7.01-1.04.03c-.07-.03-.1-.21-.02-.26l.26-.03c.39-.04.4-.16.4-.92v-4.79h0Z"></path><path class="cls-1" d="m41.89,12.36c.16-.05.18-.15.18-.31v-.49c.02-.39-.11-.92-.76-.92-.3,0-.66.15-.68.48-.01.17-.02.3-.1.36-.16.13-.45.2-.6.2-.1,0-.15-.05-.15-.15,0-.55,1.2-1.3,1.97-1.3s1.13.45,1.1,1.24l-.06,1.84c-.02.49.07.92.49.92.11,0,.2-.03.26-.06.05-.03.11-.07.14-.07.04,0,.07.06.07.14,0,.05-.37.46-.89.46-.25,0-.51-.1-.69-.33-.04-.06-.11-.15-.17-.15-.07,0-.2.1-.41.21-.23.13-.47.26-.76.26s-.56-.08-.74-.24c-.2-.18-.33-.44-.33-.74,0-.41.2-.66.88-.9l1.26-.45Zm-.66,1.86c.21,0,.54-.16.65-.26.13-.13.13-.27.14-.5l.02-.63c0-.12-.04-.14-.1-.14s-.24.04-.44.11c-.63.21-.93.37-.93.78,0,.18.13.63.67.63Z"></path><path class="cls-1" d="m44.7,11.51c0-.41,0-.46-.29-.66l-.1-.06s-.04-.16.01-.19c.24-.08.85-.36,1.06-.52.04,0,.1.02.12.07-.02.24-.02.4-.02.5,0,.06.04.12.12.12.45-.28.94-.54,1.48-.54.88,0,1.24.6,1.24,1.31v1.82c0,.76.02.87.4.92l.23.03c.07.05.05.23-.02.26-.32-.02-.63-.03-1-.03s-.7.01-.99.03c-.07-.03-.1-.21-.02-.26l.2-.03c.39-.06.4-.16.4-.92v-1.58c0-.6-.28-1.05-1-1.05-.4,0-.75.17-.9.37-.14.18-.16.33-.16.63v1.62c0,.76.02.86.4.92l.19.03c.07.05.05.23-.02.26-.29-.02-.59-.03-.96-.03s-.7.01-1,.03c-.07-.03-.1-.21-.02-.26l.22-.03c.39-.05.4-.16.4-.92v-1.85h0Z"></path><path class="cls-1" d="m50.26,11.51c0-.41,0-.46-.29-.66l-.1-.06s-.04-.16.01-.19c.24-.08.85-.36,1.06-.52.04,0,.1.02.12.07-.02.24-.02.4-.02.5,0,.06.04.12.12.12.45-.28.94-.54,1.48-.54.88,0,1.24.6,1.24,1.31v1.82c0,.76.02.87.4.92l.23.03c.07.05.05.23-.02.26-.32-.02-.63-.03-1-.03s-.7.01-.99.03c-.07-.03-.1-.21-.02-.26l.2-.03c.39-.06.4-.16.4-.92v-1.58c0-.6-.28-1.05-1-1.05-.4,0-.75.17-.9.37-.14.18-.16.33-.16.63v1.62c0,.76.02.86.4.92l.19.03c.07.05.05.23-.02.26-.29-.02-.59-.03-.96-.03s-.7.01-1,.03c-.07-.03-.1-.21-.02-.26l.22-.03c.39-.05.4-.16.4-.92v-1.85h0Z"></path><path class="cls-1" d="m56.16,11.84c-.28,0-.29.02-.29.29,0,1.07.63,1.98,1.76,1.98.35,0,.65-.11.98-.52.11-.03.18.03.19.13-.35.72-1.11.99-1.66.99-.69,0-1.23-.3-1.54-.7-.32-.41-.44-.91-.44-1.38,0-1.3.86-2.39,2.13-2.39.91,0,1.5.63,1.5,1.26,0,.15-.02.23-.04.27-.03.06-.18.07-.63.07h-1.96Zm.66-.32c.78,0,1.02-.04,1.1-.11.03-.02.06-.06.06-.2,0-.3-.2-.67-.82-.67s-1.17.57-1.18.92c0,.02,0,.05.07.05h.75Z"></path><path class="cls-1" d="m60.7,13.36c0,.76.02.87.4.92l.26.03c.07.05.05.23-.02.26-.35-.02-.66-.03-1.03-.03s-.7.01-1.02.03c-.07-.03-.1-.21-.02-.26l.24-.03c.39-.05.4-.16.4-.92v-4.79c0-.62-.01-.69-.33-.88l-.11-.06c-.05-.03-.05-.18,0-.21.26-.09.76-.24,1.14-.45.04,0,.09.02.11.06-.01.32-.03.85-.03,1.31v5.01h0Z"></path><path class="cls-1" d="m65.15,8.68c-.24-.59-.4-.81-.86-.87l-.19-.02c-.07-.06-.06-.21.02-.26.31.02.65.03,1.1.03s.84-.01,1.28-.03c.07.04.1.2.02.26l-.16.02c-.4.05-.49.12-.5.2.02.11.2.68.53,1.48.49,1.23.97,2.45,1.5,3.65.33-.7.77-1.79,1.02-2.35.31-.72.81-1.92.99-2.37.08-.22.1-.34.1-.41s-.11-.16-.48-.2l-.19-.02c-.07-.06-.05-.22.02-.26.3.02.7.03,1.1.03.35,0,.68-.01,1.03-.03.07.04.07.21.02.26l-.32.02c-.26.02-.41.15-.55.37-.3.5-.71,1.36-1.19,2.44l-.57,1.3c-.42.98-.92,2.2-1.1,2.77-.03.02-.07.03-.12.03-.05,0-.11-.01-.16-.03-.12-.45-.31-.96-.49-1.41l-1.86-4.6Z"></path><path class="cls-1" d="m78.03,11.72c.24.5.48.99.73,1.45h.02c.29-.5.55-1.05.82-1.59l1-2.02c.48-.96.78-1.55.81-2.03.36.03.58.03.79.03.26,0,.62-.01.94-.03.06.04.06.22.01.26l-.22.02c-.67.06-.75.26-.74,1.01.02,1.12.03,3.08.12,4.61.03.53.02.82.52.86l.34.03c.06.06.05.22-.02.26-.43-.02-.87-.03-1.25-.03s-.85.01-1.28.03c-.07-.05-.08-.2-.02-.26l.31-.03c.52-.05.52-.22.52-.9l-.03-4.42h-.02c-.07.12-.48.96-.69,1.38l-.94,1.85c-.48.93-.95,1.93-1.14,2.42-.02.03-.06.04-.11.04-.02,0-.07-.01-.1-.04-.18-.56-.69-1.6-.93-2.12l-.95-2.04c-.22-.49-.44-1.04-.68-1.52h-.02c-.04.66-.07,1.27-.1,1.89-.03.65-.07,1.59-.07,2.49,0,.78.06.95.48.99l.4.03c.07.06.06.23-.01.26-.36-.02-.77-.03-1.18-.03-.34,0-.72.01-1.08.03-.06-.05-.09-.21-.02-.26l.23-.03c.45-.06.59-.13.66-.87.06-.7.12-1.28.18-2.33.05-.88.1-1.78.12-2.36.02-.67-.06-.83-.71-.91l-.17-.02c-.05-.06-.04-.22.04-.26.32.02.57.03.84.03.24,0,.53,0,.88-.03-.04.41.22,1.07.55,1.75l1.21,2.44Z"></path><path class="cls-1" d="m84.7,11.84c-.27,0-.29.02-.29.29,0,1.07.63,1.98,1.76,1.98.35,0,.65-.11.98-.52.11-.03.18.03.19.13-.35.72-1.11.99-1.66.99-.69,0-1.23-.3-1.54-.7-.32-.41-.44-.91-.44-1.38,0-1.3.86-2.39,2.13-2.39.91,0,1.5.63,1.5,1.26,0,.15-.02.23-.04.27-.03.06-.18.07-.63.07h-1.96Zm.66-.32c.78,0,1.02-.04,1.1-.11.03-.02.06-.06.06-.2,0-.3-.2-.67-.82-.67s-1.17.57-1.18.92c0,.02,0,.05.07.05h.76Z"></path><path class="cls-1" d="m92.01,13c0,.84.01,1.23.31,1.23.12,0,.3-.05.46-.11.07.02.08.28-.01.34-.44.06-1.1.22-1.4.34-.06,0-.12-.03-.12-.09v-.18c0-.16,0-.29-.02-.33h-.04c-.47.32-.83.49-1.34.49-1.18,0-1.96-.92-1.96-2.03,0-1.48,1.12-2.44,2.56-2.44.36,0,.59.05.71.1.05,0,.06-.06.06-.15v-1.6c0-.62-.01-.69-.33-.88l-.1-.06c-.05-.03-.05-.18,0-.21.26-.09.76-.24,1.14-.45.04,0,.08.02.1.06-.01.32-.03.85-.03,1.31v4.65h0Zm-.78-1.59c0-.21-.04-.31-.12-.41-.16-.22-.48-.45-.89-.45-.96,0-1.46.84-1.46,1.76s.54,1.87,1.58,1.87c.29,0,.65-.13.82-.3.06-.06.07-.22.07-.39v-2.09Z"></path><path class="cls-1" d="m93.95,11.51c0-.41,0-.46-.29-.66l-.1-.06s-.04-.16.01-.19c.24-.08.85-.36,1.09-.52.05,0,.1.02.11.06-.02.37-.04.88-.04,1.31v1.91c0,.76.02.87.4.92l.22.03c.07.05.05.23-.02.26-.32-.02-.63-.03-1-.03s-.7.01-1,.03c-.07-.03-.1-.21-.02-.26l.22-.03c.39-.05.4-.16.4-.92v-1.85h0Zm.88-3.02c0,.38-.26.55-.56.55-.33,0-.54-.24-.54-.53,0-.35.26-.57.57-.57.32,0,.53.26.53.55Z"></path><path class="cls-1" d="m98.14,12.36c.16-.05.18-.15.18-.31v-.49c.02-.39-.11-.92-.76-.92-.3,0-.66.15-.68.48-.01.17-.02.3-.1.36-.16.13-.45.2-.6.2-.1,0-.15-.05-.15-.15,0-.55,1.2-1.3,1.97-1.3s1.13.45,1.1,1.24l-.06,1.84c-.02.49.07.92.49.92.11,0,.2-.03.27-.06.05-.03.1-.07.14-.07.04,0,.07.06.07.14,0,.05-.37.46-.89.46-.26,0-.51-.1-.69-.33-.04-.06-.11-.15-.17-.15-.07,0-.2.1-.41.21-.23.13-.47.26-.76.26s-.56-.08-.74-.24c-.2-.18-.33-.44-.33-.74,0-.41.2-.66.88-.9l1.26-.45Zm-.66,1.86c.21,0,.54-.16.65-.26.13-.13.13-.27.14-.5l.02-.63c0-.12-.04-.14-.1-.14s-.24.04-.43.11c-.63.21-.93.37-.93.78,0,.18.13.63.66.63Z"></path></g></svg> 