<?xml version="1.0" encoding="UTF-8"?> <svg xmlns="http://www.w3.org/2000/svg" id="Layer_1" width="600" height="400" viewBox="0 0 600 400"><defs><style>.cls-1{fill:#fff;fill-rule:evenodd;}</style></defs><path class="cls-1" d="m126.72,162.1c20.19,0,30.55,14.54,30.55,14.54l-10.36,10.38s-7.25-10.38-20.19-10.38-23.3,10.38-23.3,23.37,10.36,23.37,23.3,23.37,20.71-10.38,20.71-10.38l10.36,10.38s-.02.02-.05.07l-.06.08c-1.17,1.54-11.49,14.39-30.96,14.39-22.27,0-39.35-17.14-39.35-37.9s17.09-37.9,39.35-37.9Z"></path><path class="cls-1" d="m252.44,162.1c13.22,0,21.17,6.69,23.57,9.05l.19.19c.39.39.58.62.58.62l-10.36,10.38s-5.18-6.23-13.46-6.23c-7.77,0-10.87,3.11-10.87,7.27,0,4.98,5.8,7.06,12.76,9.39l1.05.35c.44.15.88.29,1.32.44l.66.23c9.77,3.34,20.45,7.97,20.45,21.79,0,11.94-10.36,22.33-27.44,22.33-18.64,0-27.96-11.42-27.96-11.42l10.36-10.39s6.21,7.79,17.09,7.79c8.28,0,11.91-3.64,11.91-8.31,0-12.46-36.25-6.75-36.25-32.19,0-11.42,9.84-21.29,26.41-21.29Z"></path><path class="cls-1" d="m574.11,162.1c16.05,0,24.34,9.87,24.34,9.87l-10.36,10.38s-5.18-6.23-13.46-6.23c-7.77,0-10.87,3.11-10.87,7.27,0,4.98,5.8,7.06,12.76,9.39l1.05.35c10.24,3.42,22.44,7.7,22.44,22.45,0,11.94-10.36,22.33-27.44,22.33-18.64,0-27.96-11.42-27.96-11.42l10.36-10.39s6.21,7.79,17.09,7.79c8.28,0,11.91-3.64,11.91-8.31,0-12.46-36.25-6.75-36.25-32.19,0-11.42,9.84-21.29,26.41-21.29Z"></path><polygon class="cls-1" points="318.2 163.65 353.42 208.83 353.42 163.65 368.95 163.65 368.95 236.35 354.97 236.35 319.76 191.17 319.76 236.35 304.22 236.35 304.22 163.65 318.2 163.65"></polygon><polygon class="cls-1" points="433.37 163.65 433.37 178.19 395.05 178.19 395.05 192.21 425.08 192.21 425.08 206.23 395.05 206.23 395.05 221.81 434.4 221.81 434.4 236.35 379.51 236.35 379.51 163.65 433.37 163.65"></polygon><polygon class="cls-1" points="454.08 163.65 469.1 212.46 469.61 212.46 484.63 163.65 499.13 163.65 514.15 212.46 514.66 212.46 529.68 163.65 545.73 163.65 521.91 236.35 506.9 236.35 492.19 189.1 491.57 189.1 476.86 236.35 461.85 236.35 438.03 163.65 454.08 163.65"></polygon><path class="cls-1" d="m68.48,171.56c-7.83-7.85-17.27-11.78-28.31-11.78s-20.5,3.93-28.37,11.78c-7.87,7.85-11.8,17.32-11.8,28.39s3.93,20.65,11.8,28.5c7.86,7.85,17.32,11.78,28.37,11.78s20.48-3.92,28.31-11.78c7.83-7.85,11.74-17.35,11.74-28.5s-3.92-20.54-11.74-28.39Zm-5.26,45.52c-6.93,4.64-14.63,6.96-23.1,6.96s-16.21-2.32-23.21-6.96c-6.51-4.43-11.34-10.12-14.49-17.07,3.15-6.95,7.98-12.61,14.49-16.97,7-4.71,14.74-7.06,23.21-7.06s16.17,2.35,23.1,7.06c6.58,4.36,11.45,10.01,14.6,16.97-3.15,6.96-8.02,12.65-14.6,17.07Z"></path><path class="cls-1" d="m40.16,178.71c5.87,0,10.89,2.07,15.05,6.2,4.16,4.14,6.24,9.15,6.24,15.04s-2.08,10.92-6.24,15.09c-4.16,4.17-9.18,6.26-15.05,6.26s-10.89-2.09-15.05-6.26c-4.16-4.17-6.24-9.2-6.24-15.09s2.08-10.9,6.24-15.04c4.16-4.14,9.18-6.2,15.05-6.2Z"></path><path class="cls-1" d="m207.6,197.92l.05-.02c.77-.3,9.79-4.1,9.79-15.04s-8.8-19.21-23.3-19.21h-30.55v72.69h32.62c15.53,0,24.85-9.35,24.85-20.77,0-14.02-13.46-17.65-13.46-17.65Zm-28.48-20.77h13.98c5.18,0,8.29,3.12,8.29,7.27s-3.11,7.27-8.29,7.27h-13.98v-14.54Zm16.05,45.69h-16.05v-17.65h16.05c6.21,0,9.84,3.64,9.84,8.83s-3.62,8.83-9.84,8.83Z"></path></svg> 