<?xml version="1.0" encoding="UTF-8"?> <svg xmlns="http://www.w3.org/2000/svg" id="Layer_1" width="600" height="400" viewBox="0 0 600 400"><defs><style>.cls-1{fill:#3c3382;}</style></defs><path class="cls-1" d="m181.01,204.24h9.4l-4.62-14.57-4.77,14.57h0Zm.48-23.04h8.74l13.12,37.05h-8.4l-2.39-7.62h-13.65l-2.56,7.62h-8.09l13.21-37.05h0Z"></path><path class="cls-1" d="m213.43,209.5c.16,1.27.48,2.17.99,2.71.89.95,2.53,1.43,4.93,1.43,2.83,0,4.6-.85,4.6-2.51,0-.8-.33-1.42-1-1.83-.68-.43-3.17-1.14-7.46-2.16-3.1-.77-5.29-1.74-6.56-2.89-1.27-1.14-1.91-2.78-1.91-4.93,0-2.53.99-4.7,2.97-6.51,1.99-1.82,4.79-2.74,8.4-2.74,3.42,0,6.2.68,8.34,2.06,2.16,1.36,3.4,3.71,3.72,7.06h-7.17c-.28-2.6-1.87-3.65-4.8-3.65-3.09,0-4.32,1.12-4.32,2.44,0,.82.35,1.41,1.06,1.78.7.39,3.19,1.05,7.46,1.99,5.7,1.34,8.52,4.07,8.52,8.2,0,2.72-1.02,4.93-3.04,6.66-2.01,1.71-5.13,2.56-9.35,2.56s-7.48-.91-9.55-2.71c-2.04-1.83-3.06-4.15-3.06-6.96h7.26Z"></path><path class="cls-1" d="m242.45,209.5c.16,1.27.48,2.17.98,2.71.89.95,2.53,1.43,4.93,1.43,2.84,0,4.6-.85,4.6-2.51,0-.8-.34-1.42-1-1.83-.67-.43-3.17-1.14-7.46-2.16-3.1-.77-5.29-1.74-6.56-2.89-1.27-1.14-1.91-2.78-1.91-4.93,0-2.53.99-4.7,2.97-6.51,1.99-1.82,4.79-2.74,8.39-2.74,3.42,0,6.21.68,8.34,2.06,2.16,1.36,3.4,3.71,3.72,7.06h-7.16c-.28-2.61-1.87-3.65-4.8-3.65-3.09,0-4.32,1.12-4.32,2.44,0,.82.35,1.41,1.06,1.78.7.39,3.19,1.05,7.46,1.99,5.7,1.34,8.52,4.07,8.52,8.2,0,2.72-1.01,4.93-3.04,6.66-2.01,1.71-5.13,2.56-9.35,2.56s-7.49-.91-9.55-2.71c-2.04-1.83-3.06-4.15-3.06-6.96h7.26Z"></path><path class="cls-1" d="m284.69,204.6c0-5.51-2.34-8.56-6.51-8.56s-6.53,3.04-6.53,8.56,2.35,8.6,6.53,8.6,6.5-3.1,6.51-8.6h0Zm4.05,10.33c-2.31,2.85-5.83,4.27-10.53,4.27s-8.22-1.42-10.52-4.27c-2.31-2.86-3.47-6.31-3.47-10.33s1.15-7.38,3.47-10.27c2.31-2.9,5.82-4.35,10.52-4.35s8.22,1.45,10.53,4.35c2.31,2.9,3.47,6.32,3.47,10.27,0,4.02-1.16,7.46-3.47,10.33h0Z"></path><path class="cls-1" d="m314.08,200.68c-.14-1.02-.49-1.95-1.03-2.76-.8-1.11-2.05-1.66-3.74-1.66-2.42,0-4.07,1.2-4.96,3.59-.47,1.27-.7,2.97-.7,5.08s.23,3.62.7,4.85c.86,2.28,2.47,3.42,4.83,3.42,3.35,0,4.55-1.99,4.85-4.88h7.31c-.17,2.18-.95,4.24-2.35,6.19-2.24,3.14-5.58,4.7-9.98,4.7s-7.65-1.3-9.72-3.92c-2.08-2.61-3.12-6-3.12-10.18,0-4.71,1.15-8.37,3.45-10.98,2.29-2.61,5.46-3.92,9.49-3.92,3.44,0,6.24.77,8.43,2.31,2.19,1.54,3.49,4.26,3.9,8.17h-7.34Z"></path><path class="cls-1" d="m334.1,187.58h-7.26v-6.61h7.26v6.61h0Zm-7.26,3.26h7.26v27.39h-7.26v-27.39h0Z"></path><path class="cls-1" d="m356.53,204.93c-.89.55-1.63.88-3.26,1.18l-1.61.3c-1.51.27-2.59.59-3.24.98-1.11.66-1.66,1.67-1.66,3.04,0,2.46,1.55,3.47,3.49,3.47,1.53,0,2.96-.46,4.24-1.36,1.3-.91,1.98-2.55,2.03-4.95v-2.66h0Zm-4.35-3.35c1.33-.17,2.27-.37,2.84-.62,1.02-.44,1.53-1.12,1.53-2.04,0-2.24-1.58-2.97-4.6-2.97s-4.2,1.26-4.6,3.78h-6.91c.39-6.18,4.23-9.53,11.76-9.53,2.99,0,5.66.59,7.99,1.78,2.33,1.19,3.49,3.44,3.49,6.73,0,0,0,13.44.04,15.73.11,1.88.55,2.31,1.49,2.74v1.06h-7.79c-.44-1.11-.55-1.98-.65-3.22-2.17,2.35-5.07,4.07-8.65,4.07-2.48,0-4.54-.71-6.16-2.12-1.61-1.42-2.41-3.43-2.41-6.02,0-3.37,1.29-5.81,3.89-7.31,1.43-.82,3.52-1.41,6.28-1.76l2.44-.31h0Z"></path><path class="cls-1" d="m367.63,196.2v-5.1h3.82v-7.64h7.08v7.64h4.45v5.1h-4.45v14.48c0,1.12.14,1.82.44,2.11.32.3,1.47.41,3.29.41.25-.02.5-.04.73-.06v5.36l-3.39.12c-3.38.11-5.69-.47-6.93-1.75-.8-.82-1.21-2.09-1.21-3.79v-16.87h-3.82Z"></path><path class="cls-1" d="m393.2,201.81h11.13c-.23-3.78-2.51-5.78-5.55-5.78-3.3,0-5.11,2.21-5.58,5.78h0Zm11.73-10.41c3.45,1.61,5.93,5.14,6.61,9.7.19,1.26.26,3.07.23,5.43h-18.74c.1,2.74.96,4.67,2.58,5.78.99.69,2.18,1.03,3.57,1.03,2.27,0,3.83-.86,4.92-3.15h7.31c-.18,1.63-1.02,3.27-2.54,4.95-2.35,2.67-5.63,3.99-9.85,3.99-3.48,0-6.56-1.12-9.22-3.37-2.67-2.24-4-5.9-4-10.95,0-4.74,1.2-8.38,3.6-10.91,2.41-2.53,5.53-3.8,9.37-3.8,2.28,0,4.33.44,6.16,1.29h0Z"></path><path class="cls-1" d="m434.65,194.32v-13.07h7.26v36.99h-6.96v-3.8c-2.04,3.25-4.48,4.65-8.37,4.65-3.21,0-5.9-1.29-8.1-3.87-2.17-2.6-3.26-5.92-3.26-9.98,0-4.68,1.07-8.35,3.22-11.03,2.16-2.68,5.04-4.02,8.64-4.02,3.3,0,5.95,1.53,7.56,4.12h0Zm-1.38,16.48c1.06-1.5,1.58-3.46,1.58-5.85,0-3.35-.85-5.75-2.53-7.19-1.03-.87-2.24-1.3-3.62-1.3-2.09,0-3.64.79-4.62,2.38-.97,1.57-1.46,3.54-1.46,5.88,0,5.05,1.98,8.35,6.03,8.35,2.03,0,3.57-.75,4.62-2.26h0Z"></path><path class="cls-1" d="m479.16,187.63h-7.21v10.91h7.21c3.67,0,5.78-1.72,5.79-5.55,0-3.84-2.12-5.35-5.79-5.35h0Zm10.13,14.58c-2.22,1.81-5.37,2.72-9.48,2.72h-7.86v13.32h-7.69v-37.05h16.14c3.72,0,6.68.95,8.9,2.86,2.21,1.91,3.32,4.87,3.32,8.87,0,4.37-1.11,7.46-3.32,9.27h0Z"></path><path class="cls-1" d="m513.43,190.22c.1,0,.31,0,.63.02v7.34c-.85-.08-1.56-.11-2.06-.12-2.88,0-4.82.93-5.81,2.81-.55,1.05-.83,2.68-.83,4.87v13.1h-7.22v-27.4h6.84v4.78c1.1-1.83,2.07-3.07,2.89-3.75,1.33-1.12,3.08-1.69,5.22-1.69.14,0,.25,0,.33.02h0Z"></path><path class="cls-1" d="m523.88,201.81h11.14c-.24-3.79-2.51-5.78-5.56-5.78-3.3,0-5.1,2.21-5.58,5.78h0Zm11.74-10.41c3.45,1.61,5.93,5.14,6.61,9.7.19,1.26.26,3.07.23,5.43h-18.74c.1,2.74.96,4.67,2.58,5.78.99.69,2.18,1.03,3.57,1.03,2.28,0,3.82-.86,4.93-3.15h7.31c-.19,1.63-1.03,3.27-2.54,4.95-2.35,2.67-5.63,3.99-9.85,3.99-3.49,0-6.56-1.12-9.23-3.37-2.66-2.24-3.99-5.9-3.99-10.95,0-4.74,1.2-8.38,3.59-10.91,2.41-2.53,5.53-3.8,9.37-3.8,2.28,0,4.33.44,6.16,1.29h0Z"></path><path class="cls-1" d="m553.24,209.5c.15,1.27.48,2.17.98,2.71.89.95,2.53,1.43,4.93,1.43,2.84,0,4.6-.85,4.6-2.51,0-.8-.33-1.42-1-1.83-.67-.43-3.16-1.14-7.46-2.16-3.1-.77-5.29-1.74-6.56-2.89-1.27-1.14-1.91-2.78-1.91-4.93,0-2.53.99-4.7,2.97-6.51,1.99-1.82,4.79-2.74,8.39-2.74,3.42,0,6.2.68,8.34,2.06,2.16,1.36,3.4,3.71,3.72,7.06h-7.17c-.28-2.61-1.87-3.65-4.8-3.65-3.08,0-4.32,1.12-4.32,2.44,0,.82.35,1.41,1.05,1.78.71.39,3.19,1.05,7.46,1.99,5.7,1.34,8.52,4.07,8.52,8.2,0,2.72-1.01,4.93-3.04,6.66-2.01,1.71-5.13,2.56-9.35,2.56s-7.48-.91-9.55-2.71c-2.04-1.83-3.07-4.15-3.07-6.96h7.27Z"></path><path class="cls-1" d="m582.26,209.5c.16,1.27.49,2.17.99,2.71.89.95,2.53,1.43,4.93,1.43,2.84,0,4.6-.85,4.6-2.51,0-.8-.33-1.42-1-1.83-.67-.43-3.16-1.14-7.46-2.16-3.1-.77-5.29-1.74-6.56-2.89-1.27-1.14-1.92-2.78-1.92-4.93,0-2.53.99-4.7,2.97-6.51,1.99-1.82,4.79-2.74,8.39-2.74s6.21.68,8.34,2.06c2.17,1.36,3.4,3.71,3.72,7.06h-7.16c-.28-2.6-1.87-3.65-4.8-3.65-3.09,0-4.33,1.12-4.33,2.44,0,.82.35,1.41,1.06,1.78.7.39,3.19,1.05,7.46,1.99,5.7,1.34,8.52,4.07,8.52,8.2,0,2.72-1.01,4.93-3.04,6.66-2.01,1.71-5.13,2.56-9.35,2.56s-7.48-.91-9.54-2.71c-2.05-1.83-3.07-4.15-3.07-6.96h7.26Z"></path><polygon class="cls-1" points="0 231.63 52.39 153.7 71.59 153.67 71.59 231.79 51.47 231.79 51.46 187.21 39.83 202.83 48.41 202.83 48.37 219.22 29.72 219.22 21.6 231.63 0 231.63"></polygon><path class="cls-1" d="m74.72,168.52h31.43s23.43.15,23.43,25.27-19.3,26.81-19.3,26.81h-12.41v-17.92s13.48,1.14,13.48-8.12c0-9.04-7.81-9.44-7.81-9.44l-8.87-.06v61.27h-19.95v-77.81h0Z"></path></svg> 