<?xml version="1.0" encoding="UTF-8"?> <svg xmlns="http://www.w3.org/2000/svg" id="Layer_1" width="600" height="400" viewBox="0 0 600 400"><defs><style>.cls-1{fill:#3c3382;}</style></defs><g id="Layer_1-2"><path class="cls-1" d="m77.57,233.66h21.91l11.75-67.24h-21.91l-4.33,24.08h-19l4.33-24.08h-21.91l-11.75,67.24h21.91l4.42-25.16h19l-4.42,25.16Z"></path><path class="cls-1" d="m123.65,166.34l-6.67,37.41c-.58,2.92-.83,5.75-.83,8.42,0,19.83,17.33,22.83,27.75,22.83,21.83,0,31.25-7.25,34.66-26.83l7.33-41.91h-21.91l-6.25,35.16c-2,11-3.42,16.75-11.58,16.75-5.33,0-7.92-2.83-7.92-8.67,0-2.25.33-5,1-8.42l6.33-34.83h-21.91v.08Z"></path><path class="cls-1" d="m301.71,233.66h21.91l3.08-17.33h10.33c19.08,0,29.66-10.33,29.66-29.16,0-13.25-9.17-20.83-25.25-20.83h-28l-11.75,67.32Zm34.16-33.91h-6.33l2.92-15.83h5.92c4.83,0,7.42,2.42,7.42,6.83,0,5.58-3.75,9-9.92,9Z"></path><path class="cls-1" d="m409.28,164.92c-23.83,0-38.08,15.41-38.08,41.33,0,18,11.33,28.83,30.33,28.83,23.83,0,38.08-15.41,38.08-41.33.08-18.08-11.25-28.83-30.33-28.83Zm-6.42,52.74c-5.67,0-9-4.08-9-10.92,0-2.58.25-4.83.75-7.42,1.67-8.83,4.5-16.91,13.41-16.91,5.67,0,9,4.08,9,10.92,0,2.58-.25,4.83-.75,7.42-1.67,8.75-4.5,16.91-13.41,16.91Z"></path><path class="cls-1" d="m515.84,233.66h21.91l8.67-49.24h16.5l3.17-18h-56.08l-3.17,18h17.5l-8.5,49.24Z"></path><path class="cls-1" d="m479.52,191.25c-6.92-2.17-9.75-3.08-9.75-6.33,0-2.17,1.42-4.75,5.58-4.75,3.08,0,5.67,1.75,6.67,4.33l19.33-5.25c-2.25-9.5-10.42-14.33-24.5-14.33-26.5,0-28.58,17.75-28.58,23.16,0,11,5.83,17.75,18.5,21.25,3.33.92,7.17,1.92,7.17,5.58,0,2.92-2.17,4.75-5.92,4.75-3.42,0-7.08-2-8.33-5.5l-19.08,5.17c2.08,10,11.5,15.66,26.25,15.66,11.25,0,30.08-3,30.08-23.33.08-10.17-5.67-16.83-17.41-20.41Z"></path><path class="cls-1" d="m24.41,233.66l11.83-67.24H0v67.24h24.41Z"></path><path class="cls-1" d="m575.5,166.42l-11.75,67.24h36.24v-67.24h-24.5Z"></path><polygon class="cls-1" points="198.39 166.34 186.64 233.66 208.55 233.66 212.05 213.83 230.47 213.83 233.47 196.92 215.05 196.92 217.14 184.42 242.88 184.42 246.05 166.34 198.39 166.34"></polygon><polygon class="cls-1" points="255.88 166.34 244.13 233.66 266.05 233.66 269.46 213.83 287.96 213.83 290.96 196.92 272.55 196.92 274.63 184.42 300.37 184.42 303.54 166.34 255.88 166.34"></polygon></g></svg> 