<?xml version="1.0" encoding="UTF-8"?> <svg xmlns="http://www.w3.org/2000/svg" id="Layer_1" width="600" height="400" viewBox="0 0 600 400"><defs><style>.cls-1{fill:#fff;}</style></defs><path class="cls-1" d="m545.44,158.53c-1.31.85-2.46,1.86-3.98,2.49-5.4-3.58-12.56-4.67-20.4-4.15-8.7.58-14.29,4.91-19.58,8.79-2.2-5.55-8.71-8.21-15.59-8.46-5.4-.2-11.3.11-16.09,1.82-4.94,1.77-8.57,4.71-12.28,6.64-1.09-1.62-2.21-3.21-3.32-4.81-1.63-.86-3.27-1.93-5.31-2.16-5.18-.57-11.36,0-17.25,0h-17.42c-3.79,3.45-8.08,6.28-12.11,9.62-1.34,1.11-3.09,2.26-3.82,3.48-1.2,2.02-1.58,5.84-2.32,8.46-5.86,20.6-11.26,42.48-16.59,62.04,3.43.4,6.5.11,9.79,0,3.13-.11,6.73.94,9.79.17,1.25-.32,3.08-2.26,4.48-3.32,4.62-3.49,9-7.15,13.27-10.29,1.03-2.34,1.42-5.32,2.65-7.46,3.39.17,6.6-.69,9.12-.83-1.84,10.66,2.5,18.19,10.62,20.74,12.69,3.99,28.04-1.58,35.83-7.63,3.73,4.28,7.51,7.59,14.1,8.46,9.89,1.3,17.12-1.2,23.39-4.65,1.84-1.01,3.58-2.04,5.31-3.15,1.79-1.15,3.59-2.4,5.47-3.15-.38,3.77-1.82,7.36-2.16,10.62,6.61.04,12.38-.34,18.58,0,5.87-4.47,11.54-9.14,17.58-13.44,3.62-14.46,7.72-28.44,11.45-42.8,4.86-4.1,9.69-8.22,14.27-12.61,1.34-4.75,2.74-9.43,3.65-14.6-15.48,0-29.93.14-41.14.17Zm-125.58,47.28c-2.06,6.29-3.78,12.92-5.64,19.41-3.97.36-10.62.17-14.43,0,5.27-21.26,11.18-42.31,16.92-63.54,8.39-.27,16.12-.17,24.55-.17,2.77,0,5.85-.41,8.13,0,3.54.63,5.59,4.2,5.64,8.46.03,2.38-.92,5.22-1.49,7.8-1.25,5.62-2.25,9.92-4.31,14.93-1.3,3.17-2.06,6.41-4.31,8.46-5.89,5.36-14.69,5.3-25.05,4.64Zm67.52,9.12c-.86,2.1-2.82,4.7-4.15,6.14-5.64,6.08-17.83,8.9-28.37,6.3-5.65-1.39-9.91-6.22-8.96-12.94.26-1.86.99-3.79,1.49-5.64,2.85-10.48,5.97-21.66,9.12-32.68.5-1.75.73-3.92,1.49-5.47.38-.78,1.59-1.86,2.65-2.99,1.49-1.59,2.35-2.33,4.15-3.48,3.22-2.07,8.51-3.88,13.6-4.48,2.34-.27,8.04-.39,11.45.5,2.95.77,6.63,2.57,7.8,4.15,1.49,2.01,1.61,5.25,1.33,8.13-.32,3.32-1.73,7.23-2.65,10.95-1.72,6.91-3.86,14.13-5.97,21.07-1.12,3.7-1.81,7.56-2.99,10.45Zm51.92-32.18c-4.11-.17-9.49.19-13.93-.17.83-3.51,2.46-10.45-2.65-11.28-1.98-.32-5.07.83-5.64,2.49-.66,1.92-.26,4.66,1,6.8,1.75,2.97,5.49,5.73,8.29,8.63,3.41,3.52,7.57,7.31,8.13,13.44.55,5.99-1.62,12.13-4.64,15.92-1.55,1.94-4.03,3.54-6.64,5.14-4.51,2.77-9.48,4.34-16.75,4.31-8.18-.04-16-3.51-16.42-11.61-.23-4.49,1.45-7.56,2.49-11.78,4.3-.29,10.3-.11,14.93-.17-.69,4.18-2.28,8.1,1.66,9.95.38.18.71-.09,1,0,.23.07.35.46.83.5,5.07.35,7.21-4.72,5.97-8.79-.35-1.16-1.27-2.5-1.99-3.48-2.08-2.86-5.1-5.75-7.63-9.12-2.43-3.24-5.42-6.09-6.63-9.95-1.23-3.89.54-11.61,2.65-14.43,2.76-3.69,7.52-7.19,13.11-8.29,2.71-.54,5.05-1.72,8.46-1.66,5.5.1,10.58,1.01,14.27,3.65,5.07,4.46,2.31,14.18.17,19.91Zm40.31-10.45c-3.45.54-7.38.19-10.62.17-4.96,17.73-9.35,35.01-14.43,52.59-4.32.28-9.78.28-14.1,0,4.36-17.92,9.6-34.97,13.93-52.92-2.82-.39-6.36-.06-9.46-.17.52-3.8,1.49-7.14,2.49-10.45,11.15-.41,21.58-.36,35-.17-.62,3.31-1.93,7.35-2.82,10.95Z"></path><path class="cls-1" d="m473.6,172.97c-1.76,1.36-2.82,5.61-3.65,8.63-1.89,6.91-3.56,12.93-5.31,19.24-1.15,4.14-2.52,7.68-2.65,12.11.42.3.56.87.66,1.49,2.57,1.95,7.76,1.45,9.62-.83.33-.41,1.19-2.17,1.49-2.99,1-2.69,1.48-5.78,2.32-8.79,2.06-7.42,4.06-14.86,5.81-22.4.42-1.8,1.12-3.4,1-4.64-.42-4.06-6.7-3.82-9.29-1.83Z"></path><path class="cls-1" d="m268.07,174.13c-.59,1.04-.89,3.06-1.33,4.65-2.24,8.12-4.07,15.65-6.47,23.89-.98,3.37-3.61,9.15-1.49,11.78,2.36,1.38,6.86.77,8.46-1,2.42-5.79,3.89-12.34,5.64-19.24,1.15-4.55,2.99-9.95,3.98-14.76.32-1.57,1.22-3.88,1-5.31-.65-4.03-8.36-2.55-9.79,0Z"></path><path class="cls-1" d="m428.98,172.8c-1.98,6.98-3.91,14-5.81,21.07,3.24,1.58,7.88.67,10.29-1.16,1.89-3.24,3.86-9.69,4.81-14.27.27-1.32.47-2.69.33-3.48-.56-3.28-6.34-3.01-9.62-2.16Z"></path><path class="cls-1" d="m315.84,172.63c-2.08,4.67-3.21,10.28-4.81,15.43,3.19.21,9.2.8,10.95-1.49.63-2.63,2.56-6.34,2.99-9.29.96-6.58-5.09-4.06-9.12-4.65Z"></path><path class="cls-1" d="m374.07,190.38c7.59-9.68,15.45-20.17,23.06-29.69.37-.46,1.4-1.24.99-1.99-6.89.09-15.57.06-21.9,0-1.29,1.19-2.82,2.36-4.31,3.48-1.5,1.13-2.99,2.49-4.64,2.99.41-2.13.96-4.13,1.16-6.47h-21.73c-1.35,1.02-2.29,2.47-3.98,3.15-1.62-.92-3-2.4-4.81-2.82-2.78-.64-5.87-.19-8.79-.17-9.49.08-19.97-.15-29.2,0-1.53,1.24-2.97,2.56-4.65,3.65-6.77-6.71-23.25-6.87-33.01-3.15-.74.13-.22-1-1.16-.66-7.41-.02-14.32.04-21.4,0-3.38,2.26-6.06,5.22-9.62,7.3-.31-1.76.03-5.25-.5-7.3h-21.9c-1.46,1.03-2.59,2.39-4.48,2.99-.01-1.28.69-1.86.83-2.99h-19.58c-2.67,1.7-4.68,4.06-7.8,5.31-.34-1.59-.03-3.84-.5-5.31h-9.79c-3.25,0-7.1-.72-9.62,0-2.26.65-3.73,3.86-6.14,4.15-.44-1.22-.33-2.99-.66-4.31-18.98.09-46.38-.78-66.85.17-1.91.09-4.17-.7-5.97-.33-2.12.43-4.63,4.27-6.8,4.48-.37-1.46-.54-3.11-1-4.48h-20.74c-4.59,3.26-8.56,6.95-12.94,10.62-1.67,1.4-3.53,2.09-4.31,3.65-.83,1.66-.95,4-1.49,5.97-1.31,4.8-2.37,8.74-3.48,13.27-4.15,16.92-9.45,34.54-12.94,50.6h18.41c3.24-2.29,5.99-5.07,9.62-6.97.63,2.16.56,4.53,1.16,6.97,4.32,0,9.26-.06,13.44,0,1.34.02,3.24.25,4.31,0,1.44-.34,2.03-2.18,3.32-2.49.91.53,1.2,1.68,1.82,2.49,9.65-.64,20.92.26,28.37,0,2.5-.09,5.66.37,7.47-.17,1.25-.37,2.65-1.83,3.82-2.65,1.31-.92,2.37-2.16,3.98-2.49.19,1.97-.65,3.75-.5,5.14,4.9.17,10.22-.16,14.76,0,.82.03,1.68.27,2.49.17,2.08-.26,4.46-2.67,6.14-3.82,1.86-1.26,3.33-2.99,5.48-3.32-.39,2.43-1.15,4.49-1.49,6.97,2.46.16,5.44.17,8.63.17s6.75.65,9.46,0c1.42-.34,3.22-2.37,4.65-3.48,4.73-3.71,9.91-7.1,13.94-10.62,6.03-13.17,12.58-26.77,18.75-39.48.9-1.87,1.23-4.15,2.99-5.47,1.09,7.55,2.05,15.09,2.82,22.23.27,2.49,1.08,5.02.83,7.3-.25,2.33-1.34,4.89-1.99,7.3-2.03,7.54-4.02,14.88-5.97,22.23,6.11.17,13.17.11,20.24,0,4.61-3.13,8.54-6.94,13.27-9.95,3.4,6.07,7.7,9.93,16.26,10.62,8.08.64,14.43-1.59,19.58-4.15,2.82-1.4,5.23-3.19,7.8-3.98-.22,2.66-.87,4.88-1.16,7.46h18.91c2.47-1.46,4.4-3.45,7.13-4.65.2,1.97-.77,2.77-.83,4.48,9.17.26,19.79.17,29.86.17,3.49,0,7.51.67,10.45,0,1.36-.31,3.12-2.03,4.48-2.99,1.6-1.12,2.7-2.66,4.48-2.99.99,1.72,1.51,3.91,2.16,5.97h22.23c5.93-4.63,11.52-9.61,17.59-14.1-2.91-12.57-5.74-25.22-8.46-37.99ZM61.2,225.22c-1.78-12.03-2.58-24.03-4.48-35.83-3.84,11.59-6.51,24.34-10.45,35.83-3.98-.11-8.4.22-12.11-.17,5.07-21.42,10.85-42.12,16.09-63.37.09-.24.26-.41.5-.5,5.42.11,11.28-.22,16.42.17,1.32,10.18,2.28,20.73,3.82,30.69,3.4-9.98,5.88-20.88,9.29-30.86,4.08.18,9.41-.38,12.44.33-5.76,21.63-11.31,42.44-17.42,63.7h-14.1Zm108.82.17c-4.94-.08-9.15.46-13.77-.17.81-12.22,2.18-23.63,3.15-36-2,2.66-3.06,5.93-4.48,8.96-4.18,8.93-8.26,18.31-12.44,27.37-4.09-.16-8.47-.21-14.1-.16.33-17.68,2.05-35.68,2.82-52.75-5.51-.23-12.6-.14-18.91-.17-2.01,4.46-3.07,9.87-4.81,14.6,4.95.27,11.54.09,17.25.17-.49,3.39-2.06,7.12-2.82,10.78-4.81.09-10.5.17-17.09.17-1.85,5.12-3.03,10.91-4.64,16.26,6.19.11,12.83-.22,18.75.17-1.15,3.66-2.41,7.22-3.65,10.78-10.97-.07-22.83.05-32.85-.17,5.24-21.58,10.95-42.69,16.59-63.87,15.45-.26,32.19-.2,48.61,0-.72,10.4-1.64,21.07-2.65,31.19,1.23-.81,1.57-2.4,2.16-3.65,4.21-8.94,8.5-18.43,12.77-27.54,4.35-.13,9.41-.12,14.1.17-.51,10.77-1.98,21.21-2.49,31.69,5.61-10.2,10.32-21.31,15.59-31.85,3.8.16,8.33-.24,12.94.17-9.97,21.32-19.94,42.65-30.03,63.87Zm78.96-66.19c.3-.02.35.2.66.17v.83c-.3-.02-.35.2-.66.17-.24-.22-.24-.94,0-1.16Zm-13.93,36.16c-1.06,1.66-2.54,3.28-3.15,4.81-.81,2.02-1.07,4.42-1.66,6.64-1.55,5.85-3.55,12.23-5.47,18.75-4.89-.17-9.86.18-14.1-.16,1.31-8.44,4.6-16.89,6.3-25.22.39-1.9-.39-3.8-.66-5.97-1.41-11-3.01-21.66-4.48-32.68,5.42-.28,8.96-.16,14.93,0,.6,7.53,1.27,15.39,1.66,22.89,4.98-6.79,9.51-15.48,14.43-22.89,4.19.04,9.77-.22,14.43.17-6.92,11.21-14.95,22.2-22.23,33.68Zm47.61,19.41c-1.44,3.52-5.15,7.22-8.29,9.29-5.75,3.79-17.74,5.87-25.71,2.99-2.03-.73-6.45-3.05-7.13-5.81-1.41-5.64,1.45-11.86,2.65-17.09,1.94-8.4,4.57-17.67,6.8-26.21,1.01-3.87,1.79-6.21,3.82-9.12,3.77-5.42,9.63-9.03,17.92-9.79,9.98-.91,19.8-.16,21.4,8.13.2,1.02.17,2.8,0,4.31-.39,3.46-1.71,7.61-2.65,11.12-1.86,6.93-3.79,14.42-5.81,21.57-1.1,3.91-1.87,7.87-2.99,10.62Zm44.62,10.62c-5.22,0-9.34.26-15.26-.17.66-5.14,2.75-12.01,4.15-18.08.47-2.03,1.63-4.6,1.16-5.97-.96-2.82-6.23-1.51-9.46-1.83-2.99,8.24-4.99,17.46-7.63,26.04-4.95-.19-10.11.12-14.6-.17,2.31-10.83,5.58-21.37,8.29-32.02,2.71-10.63,5.23-21.32,8.46-31.69,8.02.18,15.96-.17,23.56-.17,4.33,0,11.13-.42,13.77,1.49,4.92,3.56,1.85,10.52.33,16.26-.81,3.06-1.57,6.28-2.32,8.13-1.45,3.58-5.44,4.78-8.63,6.64,2.56,1.3,5.42,1.78,5.14,5.81-.12,1.79-1.03,4.37-1.66,6.63-1.6,5.77-4.04,13.75-5.31,19.08Zm34.34,0c-1.84-9.39-3.62-18.83-5.47-28.2-3.31,8.91-5.66,18.78-8.46,28.2-5.11.13-9.93.08-15.76,0,1.03-5.29,2.52-10.54,4.15-15.76,1.61-5.17,2.75-10.53,4.31-15.76,1.57-5.27,3.28-10.59,4.64-15.93,1.38-5.38,3.06-11.05,4.64-16.09,4.64-.64,10.14-.33,15.1-.17-1.74,7.2-3.62,13.83-5.31,20.74,1.95-1.18,3.21-3.25,4.81-4.98,4.68-5.04,9.36-10.66,14.1-15.76,4.26-.27,9.67-.28,13.93,0-3.19,5.05-7.01,9.61-10.62,14.27-3.6,4.65-7.2,9.25-10.78,13.93,2.5,12.1,5.14,23.31,7.46,35.33-6.68.36-11.56.28-16.76.17Z"></path><path class="cls-1" d="m249.65,160.19v-.83c-.31.04-.37-.19-.66-.17-.24.22-.24.94,0,1.16.31.04.37-.19.66-.17Z"></path></svg> 