<?xml version="1.0" encoding="UTF-8"?> <svg xmlns="http://www.w3.org/2000/svg" id="Layer_1" width="600" height="400" viewBox="0 0 600 400"><defs><style>.cls-1{fill:#fff;}.cls-2{isolation:isolate;}</style></defs><g id="twp_full"><g class="cls-2"><path class="cls-1" d="m282.49,46.77v52.71c7.12-3.85,12.11-10.54,14.53-18.09l.57.29c-1.57,18.81-14.39,37.61-34.33,37.61s-34.9-14.96-34.9-38.89c0-17.95,11.68-29.2,26.64-39.32-2.14-.57-4.42-.85-6.7-.85-10.26,0-16.24,6.98-16.24,14.1h-.85c-.14-1-.14-1.99-.14-2.99,0-12.68,6.7-28.07,22.94-28.07,10.4,0,18.38,9.54,30.49,9.54,4.84,0,10.83-2.28,13.25-7.55h.43c-.14,9.26-2.99,18.81-15.67,21.51Zm7.69,53.99c-7.12,7.55-14.82,13.96-24.79,13.96-18.52,0-32.76-14.53-32.76-35.62,0-12.39,5.13-19.09,10.83-26.92h-.57c-3.56,3.56-12.96,12.54-12.96,27.78,0,23.36,14.67,37.75,33.91,37.75,13.39,0,22.51-9.26,26.64-16.81l-.29-.14Zm5.7-69.09c-2.42,4.56-7.55,10.4-17.95,10.4s-19.94-7.12-28.35-7.12c-7.69,0-12.96,5.13-14.96,8.98l.14.29c2.71-2.71,6.84-5.41,13.53-5.41,11.11,0,18.23,6.84,29.49,6.84,11.97,0,17.38-7.84,18.38-13.82l-.29-.14Zm-39.6,9.83c-7.26,7.55-13.96,15.81-13.96,31.91,0,8.83,2.99,17.95,9.69,23.65l4.13-2.14v-38.18l-3.85,1.99-.71-1.43,19.94-10.83c-5.41-1.14-10.26-3.56-15.24-4.98Zm24.65,5.56c-1,.14-1.99.14-3.13.14-1.99,0-3.85-.14-5.7-.57v41.6l-18.66,10.12c3.85,2.85,8.55,4.56,14.53,4.56,4.84,0,9.12-1,12.96-2.71v-53.14h0Zm-20.51,7.27l-2.71,1.57v38.18l2.71-1.43v-38.32Zm81.91,5.41v49.29c0,13.67-12.11,22.94-25.64,25.64l-.28-.57c6.7-3.28,10.54-9.97,10.54-17.1v-51l-7.69-6.98-2.99,3.28v39.75l4.27,3.85v.29l-11.54,12.54-13.25-12.11v-.57l5.13-5.41v-62.97l15.1-16.1.28.14v38.18l12.39-13.39,12.96,11.68,2.42-2.57,1.14,1-2.85,3.13Zm-39.89,46.58v-.28l2.99-2.99V35.23l-2.99,3.14v63.25l-4.56,4.56v.28l11.11,9.97,1.99-2.28-8.54-7.84Zm29.06-42.6l-9.26-7.98-1.99,2.14,8.26,7.41v51.29c0,3.42-.71,6.98-1.99,8.97l.14.14c3.56-2.57,4.84-6.41,4.84-11.4v-50.58h0Zm33.48,24.65v7.26l13.82,10.83,7.98-8.55,1.14,1.14-18.52,19.8-18.81-15.1-2.85,2.99-1.14-1.14,3.28-3.42v-36.04l26.92-19.66,14.1,22.79-25.93,19.09Zm-10.54,12.54v-36.19l-2.99,2.14v35.47l17.67,14.39,2.28-2.42-16.95-13.39Zm10.83-43.88l-.29.14v29.2l12.68-9.26-12.39-20.09Zm3.7-2.85l-2.56,1.85,12.54,20.09,2.56-1.85-12.54-20.09Z"></path></g></g><path class="cls-1" d="m258.57,347.25c-3.99-4.27-5.41-5.7-10.12-6.98v27.92l-.29.14-5.7-5.13-16.53,15.24-.29-.14v-38.32c-4.98,1.14-10.26,3.71-15.39,8.83l-.28-.14c1-10.97,6.41-19.09,15.67-22.22v-27.78h-2.99c-4.13,0-6.41,2.14-8.4,5.98h-.43c-.43-1.28-.71-3.28-.71-6.55,0-5.98,4.42-12.25,11.68-12.25h.85v-15.39l-5.84-5.27-2.85,2.85-1-1,14.39-15.24,13.39,12.25v12.96l3.13-3.42v-16.38h1.57v14.96l18.95-20.37,16.1,14.67v61.97l-24.92,18.8Zm-32.91-12.54c-5.84,1.14-9.97,4.7-12.68,9.4l.14.29c3.99-3.42,7.69-4.98,12.54-6.13v-3.56h0Zm4.56-40.88h-7.84c-5.41,0-7.55,3.42-7.69,7.41l.14.14c1.71-2.85,3.42-3.85,6.84-4.27h5.56v77.64l2.99-2.85v-78.07Zm0-25.64l-7.12-6.55-2.28,2.42,6.41,5.7v16.1h2.99v-17.66h0Zm16.67,8.12l-3.13,3.28v82.49l3.13,2.85v-88.61Zm18.66-3.28l-8.41-7.69-8.69,9.4v50.14c7.41.71,12.54,2.85,16.95,7.69l.14-.14v-59.41Zm-17.1,61.68v3.71c4.84,1.14,6.84,2.56,10.26,6.55l3.28-2.56c-3.42-4.27-6.84-6.84-13.53-7.69Zm21.65-63.96l-9.69-8.98-2.28,2.42,8.98,8.26v66.24l2.99-2.28v-65.67Zm63.11,18.95v39.89l-24.08,17.81-18.09-13.67-2.14,2.42-1.14-1.14,2.56-2.85v-39.03l25.22-18.09,16.81,13.11,2.71-2.85,1.14,1.14-2.99,3.28Zm-38.32,41.03v-38.89l-2.99,2.14v38.32l17.1,13.11,2.71-1.99-16.81-12.68Zm22.94-36.33l-11.97-9.4-.14.14v42.45l12.11,9.12v-42.31h0Zm4.56-2.56l-13.25-10.26-2.71,1.99,12.96,9.97v44.31l2.99-2.28v-43.74h0Zm43.88,8.97h14.67v30.49l-22.65,15.95c-2.99-3.42-7.26-5.84-12.54-5.84-4.27,0-7.69,1.43-12.25,5.27l-.71-.29,19.37-28.21h-11.97v-26.5l23.79-16.53c2.85,2.28,4.98,3.56,8.69,3.56,2.85,0,6.98-.57,10.12-3.13l.57.28-17.1,24.93Zm-15.95,36.47c-4.13,0-7.41,1.43-10.26,3.42v.29c2.28-1,4.56-1.28,6.7-1.28,3.28,0,8.4,1.57,11.82,5.56l3.28-2.42c-2.71-3.14-5.98-5.56-11.54-5.56Zm15.25-23.93h-7.98l-16.67,24.08.14.28c4.13-2.99,8.12-4.98,12.96-4.98,4.27,0,8.69,1.99,11.4,5.41l.14-.14v-24.65h0Zm-20.8,0v-22.93l-2.99,2.14v23.93h11.54l2.28-3.13h-10.82Zm29.77-27.92c-2.99,2.14-4.7,3.28-9.69,3.28-2.85,0-6.27-1.28-8.97-4.13l-.29.14v20.8h5.41l13.68-19.95-.14-.14Zm-6.84-1.28c-2.56,0-5.84-1.28-7.98-4.13l-3.56,2.42c2.71,3.28,5.27,4.7,9.26,4.7,2.56,0,6.27-.71,10.12-3.99l.14-.43c-2.42,1-5.41,1.43-7.98,1.43Zm2.42,24.51h-9.26l-2.14,2.99h8.4v27.64l2.99-2.14v-28.49h0Zm34.48,38.6l-13.11-10.26-2.71,2.99-1.14-1.14,3.13-3.42v-49.86h-8.26l-.28-.28,4.98-7.41h3.56v-9.54l15.1-16.1.29.29v25.36h11.4l.29.29-4.99,7.41h-6.69v43.17l7.84,5.98,2.99-3.28,1.14,1.14-13.53,14.67Zm-9.26-81.34l-2.99,3.28v8.69h2.99v-11.97Zm0,68.1v-48.44h-2.99v50.15l12.11,9.4,2.14-2.28-11.25-8.83Z"></path><path class="cls-1" d="m91.81,229.12l-19.8-17.1-15.1,17.1-20.51-17.67v-27.92h-3.99c-3.56,0-5.41,2.28-6.27,4.98h-.43c-.28-1.14-.71-3.13-.71-5.41,0-3.71,1-13.39,11.4-13.39v-24.5c0-4.7-5.56-6.55-5.56-12.82,0-8.12,7.69-16.1,21.8-21.08l.57.43c-5.13,2.99-7.84,5.84-7.84,11.97,0,9.4,9.12,6.98,9.12,21.8v5.7l16.67-17.52,17.52,17.24,16.53-17.24,15.95,15.67v52.71l-29.35,27.07Zm-50.86-19.94v-30.06h-7.98c-4.13,0-5.98,2.71-6.27,5.13l.14.14c1.43-1.57,2.85-2.42,6.13-2.42h4.98v28.78l18.81,16.24,2.14-2.57-17.95-15.25Zm0-65.39c0-5.84-5.13-7.84-5.13-11.54,0-5.13,1.99-9.4,5.13-13.39l-.28-.14c-4.27,3.28-8.26,8.55-8.26,13.67s5.56,7.55,5.56,12.11v25.22h2.99v-25.93Zm30.06,14.25l-10.83-10.54-5.7,5.84v50.43l12.96,10.97,3.56-3.99v-52.71Zm4.56,50.86v-52.85l-12.11-11.97-2.28,2.28,11.4,10.97v53.14l19.23,16.67,2.28-2.14-18.52-16.1Zm27.64-52.71l-8.97-8.55-5.13,5.27v50.72l13.96,12.25.14-.14v-59.55Zm4.56-1.99l-10.4-10.12-2.14,2.28,9.54,9.12v59.55l2.99-2.85v-57.98Z"></path><path class="cls-1" d="m168.3,229.12l-13.53-12.25-12.11,12.25-14.82-13.11-2,2.14-1.14-1.14,2.56-2.71v-38.18l26.78-19.38,15.39,11.97,2.71-2.85,1.14,1.14-3.13,3.28v39.46l7.55,6.98,2.42-2.56,1.14,1-12.97,13.96Zm-36.47-15.81v-38.46l-2.99,2.14v37.75l13.68,12.25,2.28-2.28-12.97-11.4Zm22.94-37.47l-11.68-9.12-.43.29v41.45l9.69,8.4,2.42-2.42v-38.61Zm4.56,38.75v-40.89l-12.11-9.83-2.85,1.99,11.97,9.4v40.74l11.97,10.83,2.14-2.28-11.11-9.97Zm50.43-31.91h14.67v30.49l-22.65,15.95c-2.99-3.42-7.27-5.84-12.54-5.84-4.27,0-7.69,1.43-12.25,5.27l-.71-.29,19.38-28.21h-11.97v-26.5l23.79-16.53c2.85,2.28,4.98,3.56,8.69,3.56,2.85,0,6.98-.57,10.12-3.13l.57.28-17.1,24.93Zm-15.95,36.47c-4.13,0-7.41,1.43-10.26,3.42v.29c2.28-1,4.56-1.28,6.7-1.28,3.28,0,8.41,1.57,11.82,5.56l3.28-2.42c-2.71-3.14-5.98-5.56-11.54-5.56Zm15.24-23.93h-7.98l-16.67,24.08.14.28c4.13-2.99,8.12-4.98,12.96-4.98,4.27,0,8.69,1.99,11.4,5.41l.14-.14v-24.65Zm-20.8,0v-22.93l-2.99,2.14v23.93h11.54l2.28-3.13h-10.83Zm29.77-27.92c-2.99,2.14-4.7,3.28-9.69,3.28-2.85,0-6.27-1.28-8.97-4.13l-.28.14v20.8h5.41l13.68-19.95-.14-.14Zm-6.84-1.28c-2.56,0-5.84-1.28-7.98-4.13l-3.56,2.42c2.71,3.28,5.27,4.7,9.26,4.7,2.56,0,6.27-.71,10.12-3.99l.14-.43c-2.42,1-5.41,1.43-7.97,1.43Zm2.42,24.51h-9.26l-2.14,2.99h8.41v27.64l2.99-2.14v-28.49Zm59.98-20.37v49.29c0,13.67-12.11,22.94-25.64,25.64l-.28-.57c6.7-3.28,10.54-9.97,10.54-17.1v-51l-7.69-6.98-2.99,3.28v39.75l4.27,3.85v.29l-11.54,12.54-13.25-12.11v-.57l5.13-5.41v-62.97l15.1-16.1.28.14v38.18l12.39-13.39,12.96,11.68,2.42-2.57,1.14,1-2.85,3.13Zm-39.89,46.58v-.28l2.99-2.99v-67.81l-2.99,3.13v63.25l-4.56,4.56v.28l11.11,9.97,1.99-2.28-8.54-7.83Zm29.06-42.6l-9.26-7.98-1.99,2.14,8.26,7.41v51.29c0,3.42-.71,6.98-1.99,8.97l.14.14c3.56-2.57,4.84-6.41,4.84-11.4v-50.58h0Zm36.76,54.99l-12.25-11.25-2.85,2.99-1.14-1.14,3.28-3.56v-41.17l-5.98-5.7-2.28,2.57-1.14-1.14,12.82-13.96,11.4,10.26,2.85-3.13,1.28,1-3.56,3.85v41.6l6.84,6.41,3.13-3.28,1.14,1.14-13.53,14.53Zm-8.41-13.96v-42.45l-7.41-6.84-1.99,2.28,6.41,6.13v42.31l11.4,10.26,2.14-2.28-10.54-9.4Zm4.27-59.55l-11.68-10.68,10.69-11.4,11.68,10.68-10.69,11.4Zm-7.26-12.97l-2.14,2.14,9.26,8.69,2.14-2.42-9.26-8.41Z"></path><path class="cls-1" d="m359.75,229.12l-12.39-11.25v-41.6l-7.55-6.84-3.99,4.27v38.46l4.42,4.13v.57l-11.68,12.25-13.25-12.11v-.43l5.13-5.41v-35.9l-6.7-6.13-2.71,2.99-1.14-1.14,12.96-14.1,12.96,11.54v2.85l13.53-14.39,12.68,11.4,2.85-2.99,1.28,1.14-3.42,3.56v40.74l6.41,5.98,3.13-3.42,1.14,1.14-13.67,14.67Zm-37.61-12.39v-.28c0,.28,2.85-2.85,2.85-2.85v-40.46l-8.12-7.41-2,2.14,7.12,6.55v37.61l-4.42,4.56v.28l10.97,9.97,2.28-2.42-8.69-7.69Zm29.77-1.14v-41.74l-8.83-7.98-2.28,2.42,8.12,7.26v41.46l10.68,9.97,2.28-2.42-9.97-8.97Zm48.01,39.17c-4.7-5.13-7.98-7.26-12.39-7.26-4.7,0-10.12,1.85-15.67,4.84l-.43-.43,19.66-22.79-13.96-11.11-2.71,2.85-1.14-1,3.13-3.42v-40.32l27.07-19.38,15.1,11.97,2.57-2.85,1.14,1.14-2.99,3.28v48.72c0,7.41,4.13,7.12,4.13,12.68,0,6.41-9.26,12.39-23.51,23.08Zm-18.95-39.46v-40.32l-2.99,2.14v39.46l14.1,11.4,2.14-2.57-13.25-10.12Zm9.97,28.49c-4.7,0-8.98,1.43-12.96,4.13v.29c2.56-1,5.41-2.28,10.26-2.28,4.42,0,8.12,2.42,11.82,6.7l2.85-2.28c-3.56-4.13-7.84-6.55-11.97-6.55Zm17.38-13.68c-3.56-2.28-4.42-4.7-4.42-10.83v-2.57l-23.65,27.35.14.14c4.56-2.71,8.69-4.7,15.39-4.7,5.7,0,9.54,2.28,13.96,5.98,2.71-2.28,4.56-4.56,4.56-8.12,0-2.85-2.42-4.98-5.98-7.26Zm-4.42-54.28l-11.82-9.26-.29.28v43.73l9.12,7.12,2.99-3.42v-38.46Zm8.69,52.28c-3.71-2.85-4.13-5.27-4.13-11.4v-43.31l-11.97-9.69-2.71,1.85,11.68,9.26v43.88c0,6.13.29,7.84,4.13,10.4,3.42,2.28,6.12,4.7,6.12,7.98,0,.85-.14,2.28-.14,2.28l.14.14c.71-.71,1.57-1.85,1.57-3.71,0-3.13-1.57-5.27-4.7-7.69Zm34.19,1l-13.11-10.26-2.71,2.99-1.14-1.14,3.13-3.42v-49.86h-8.26l-.29-.28,4.99-7.41h3.56v-9.54l15.1-16.1.28.29v25.36h11.4l.29.29-4.99,7.41h-6.7v43.17l7.84,5.98,2.99-3.28,1.14,1.14-13.53,14.67Zm-9.26-81.34l-2.99,3.28v8.69h2.99v-11.97Zm0,68.1v-48.44h-2.99v50.15l12.11,9.4,2.14-2.28-11.25-8.83Zm69.38-44.3v39.89l-24.08,17.81-18.09-13.67-2.14,2.42-1.14-1.14,2.56-2.85v-39.03l25.22-18.09,16.81,13.11,2.71-2.85,1.14,1.14-2.99,3.28Zm-38.32,41.03v-38.89l-2.99,2.14v38.32l17.1,13.11,2.71-1.99-16.81-12.68Zm22.94-36.33l-11.97-9.4-.14.14v42.45l12.11,9.12v-42.31h0Zm4.56-2.56l-13.25-10.26-2.71,1.99,12.96,9.97v44.31l2.99-2.28v-43.74h0Zm65.25,55.42l-12.39-11.25v-41.6l-7.55-6.84-3.99,4.27v38.46l4.42,4.13v.57l-11.68,12.25-13.25-12.11v-.43l5.13-5.41v-35.9l-6.7-6.13-2.71,2.99-1.14-1.14,12.96-14.1,12.96,11.54v2.85l13.53-14.39,12.68,11.4,2.85-2.99,1.28,1.14-3.42,3.56v40.74l6.41,5.98,3.13-3.42,1.14,1.14-13.67,14.67Zm-37.61-12.39v-.28c0,.28,2.85-2.85,2.85-2.85v-40.46l-8.12-7.41-1.99,2.14,7.12,6.55v37.61l-4.42,4.56v.28l10.97,9.97,2.28-2.42-8.69-7.69Zm29.77-1.14v-41.74l-8.83-7.98-2.28,2.42,8.12,7.26v41.46l10.68,9.97,2.28-2.42-9.97-8.97Z"></path></svg> 