<?xml version="1.0" encoding="UTF-8"?> <svg xmlns="http://www.w3.org/2000/svg" id="Layer_1" width="600" height="400" viewBox="0 0 600 400"><defs><style>.cls-1{fill:#3c3382;}</style></defs><path class="cls-1" d="m50.02,155.77c14.08.02,28.16-.2,42.22.12,10.84.24,19.34,7.62,21.18,17.68,2.08,11.4-3.84,21.12-12.96,23.72-.24.06-.42.28-.74.5,8.7,2.48,13.88,8.24,15.34,16.86,2.4,14.22-5.44,25.9-20.26,27.56-3.28.36-6.62.36-9.94.38-11.62.06-23.24.06-34.86.08l.02-86.9Zm18.72,70.3c.24.08.48.24.72.24,5.84,0,11.68.22,17.5-.06,6.02-.28,9.6-3.98,9.76-9.44.16-5.48-3.14-9.44-9.04-10.14-3.72-.44-7.54-.24-11.3-.3-2.5-.04-5,0-7.62,0l-.02,19.7h0Zm-.14-35.86h15.76c1,0,2,0,2.98-.18,3.64-.74,6.4-2.6,7.34-6.4,1.52-6.06-2.34-11.3-8.6-11.6-2.92-.14-5.84-.04-8.76-.04h-8.58c-.06.62-.12,1.02-.12,1.4-.02,5.46-.02,10.96-.02,16.82h0Zm317.05,54.06c-2.2-.4-4.42-.72-6.6-1.24-17.02-4.08-25.7-18.72-24.2-34.92,1.24-13.56,8.08-23.46,21.1-28.04,18.16-6.4,39.24,2.24,42.34,26.42.42,3.2.4,6.44.58,9.96h-46.92c1.08,5.96,4.1,10.14,9.32,12.36,8.5,3.6,16.48,1.82,24-3.02.44-.28.86-.62,1.28-.94.04-.04.12,0,.42,0,2.3,3.38,4.68,6.88,7.34,10.8-2.42,1.5-4.66,3.14-7.1,4.38-4.48,2.26-9.3,3.44-14.32,3.86-.58.04-1.12.26-1.68.4l-5.56-.02Zm17.02-39.28c.32-7.8-7.1-13.76-16.52-13.4-7.84.3-14.8,6.94-13.96,13.4h30.48Zm50.34,39.28c-2.7-.54-5.46-.92-8.12-1.66-12.68-3.5-21.44-14.22-22.58-27.34-1.08-12.36,2.5-22.84,12.42-30.64,15.04-11.82,44.6-9.14,50.48,18.82.42,2,.66,4.06.8,6.1.14,2.18.04,4.36.04,6.88h-46.62c.4,3.5,1.76,6.3,4.02,8.64,5.16,5.32,11.58,6.32,18.54,5.1,4.44-.78,8.52-2.46,12.2-5.62l7.5,11c-1.96,1.3-3.72,2.68-5.66,3.76-4.84,2.64-10.06,4.04-15.54,4.56-.64.06-1.26.28-1.88.42-1.88-.02-3.74-.02-5.6-.02h0Zm-13.48-39.3h30.52c.4-7.56-6.86-13.58-16-13.4-8.08.16-15.1,6.58-14.52,13.4h0Zm-295.04,39.3c-2-.4-4-.76-5.98-1.24-12.26-2.92-19.5-12.1-19.5-24.7v-38.44h16.56v2.3c0,11.42.04,22.84-.02,34.28-.02,5.18,1.56,9.58,6.48,11.82,5.32,2.44,10.78,2.36,15.7-1.16,3.6-2.56,4.62-6.5,4.64-10.72.02-11.36,0-22.72,0-34.08v-2.5h16.38v38.1c0,14.42-8.98,24.34-23.38,25.86-.72.08-1.4.3-2.1.44-2.94.04-5.86.04-8.78.04h0Zm156.42-1.8v-86.64h60.26v8.4c0,1.86-.12,3.74.04,5.58.16,1.84-.58,2.2-2.28,2.18-11.9-.06-23.78-.04-35.68-.04h-3.76v18.24h2.24c8.96,0,17.94.06,26.9-.04,1.82-.02,2.24.56,2.2,2.26-.12,4.56-.04,9.14-.04,13.92h-31.44v36.12l-18.44.02h0Zm189.32-.04v-60.44c0-2.54,0-2.56,2.62-2.54,9.1.08,18.22-.3,27.26.4,12.88,1,22.98,6.8,27.76,19.52,4.86,12.92,1.16,27.68-8.7,35.76-5.8,4.76-12.64,7.1-20.02,7.38-9.36.34-18.72.1-28.08.12-.18,0-.36-.08-.84-.2h0Zm15.8-13.3h9.12c10.7,0,17.44-6.04,18.64-16.68.86-7.64-3.28-15.24-9.86-17.94-5.8-2.38-11.86-1.12-17.9-1.44v36.06h0Zm-293.9-35.08h-28.06v-14.22h50.74c0,2.68-.14,5.38.04,8.06.16,2.46-.6,4.38-2.14,6.3-8.44,10.5-16.74,21.1-25.1,31.68-.44.56-.88,1.16-1.58,2.08h29.12v14.5h-51.24c0-3.96-.06-7.92.06-11.86.02-.68.7-1.38,1.18-2,8.56-10.92,17.16-21.8,25.72-32.72.36-.46.66-.96,1.26-1.82h0Zm27.56,0v-12.72c0-.46.08-.9.12-1.5h50.6c0,3.82.04,7.58-.04,11.34-.02.56-.58,1.16-.98,1.68-8.72,11.06-17.44,22.1-26.16,33.14-.44.54-.82,1.12-1.48,2.06h2.54c8.24,0,16.46.04,24.7-.02,1.52-.02,2.1.36,2.06,2-.12,4.1-.04,8.2-.04,12.44h-51.28c0-4.1-.04-8.12.04-12.14,0-.5.54-1.04.9-1.5,8.36-10.66,16.74-21.3,25.12-31.94.64-.82,1.26-1.64,2.2-2.84h-28.3Z"></path></svg> 