<?xml version="1.0" encoding="UTF-8"?> <svg xmlns="http://www.w3.org/2000/svg" id="Layer_1" width="600" height="400" viewBox="0 0 600 400"><defs><style>.cls-1{fill:#3a357e;}</style></defs><path class="cls-1" d="m175.99,172.63c3.39-.06,6.77.29,10.07,1.03,2.44.55,4.74,1.54,6.78,2.91,1.68,1.17,3,2.75,3.81,4.57.82,1.91,1.23,3.95,1.2,6,0,1.18-.18,2.35-.55,3.48-.38,1.12-.96,2.18-1.72,3.11-.86,1.03-1.87,1.93-3.02,2.67-1.37.88-2.86,1.58-4.42,2.1,3.76.86,6.54,2.25,8.34,4.16,1.8,1.92,2.7,4.41,2.7,7.47.02,2.19-.46,4.37-1.41,6.37-.95,1.98-2.36,3.73-4.13,5.13-1.98,1.55-4.26,2.71-6.72,3.43-2.95.87-6.04,1.29-9.13,1.24h-22.81v-53.67h21.01Zm-7.76,9.31v13.25h6.89c1.33.01,2.66-.08,3.97-.29,1.06-.16,2.08-.51,3-1.03.82-.49,1.46-1.19,1.87-2.02.47-1.02.7-2.13.66-3.24.03-1.08-.14-2.16-.51-3.19-.31-.81-.85-1.51-1.57-2.04-.79-.55-1.71-.93-2.68-1.11-1.27-.23-2.57-.35-3.86-.33h-7.77Zm9.33,34.94c1.46.05,2.91-.17,4.28-.62.99-.34,1.88-.89,2.61-1.61.62-.64,1.06-1.41,1.29-2.25.24-.83.35-1.68.35-2.54.02-.9-.12-1.79-.41-2.65-.26-.77-.75-1.46-1.41-1.99-.77-.59-1.68-1.02-2.65-1.24-1.36-.32-2.76-.47-4.16-.44h-9.24v13.36h9.33Z"></path><path class="cls-1" d="m216.75,193.98c1.08-1.87,2.55-3.52,4.32-4.86,1.61-1.17,3.59-1.8,5.63-1.77,1.59-.06,3.16.38,4.46,1.24l-.78,8.39c-.07.43-.3.83-.66,1.11-.37.22-.8.32-1.23.3-.21,0-.48,0-.83-.04-.34-.04-.66-.06-1.05-.09l-1.12-.11c-.34-.04-.69-.05-1.03-.06-1.55-.08-3.07.4-4.26,1.33-1.17,1.03-2.08,2.29-2.68,3.68v23.19h-12.14v-38.18h7.22c.51,0,1.02.04,1.51.15.37.08.72.24,1.02.46.28.22.5.5.62.83.16.4.29.82.38,1.24l.62,3.18Z"></path><path class="cls-1" d="m267.1,219.23c-1.32,1.23-2.73,2.38-4.21,3.44-1.32.94-2.73,1.74-4.23,2.4-1.48.64-3.04,1.1-4.64,1.38-1.76.31-3.56.46-5.35.44-2.27.03-4.52-.37-6.62-1.16-1.96-.74-3.73-1.86-5.2-3.28-1.49-1.46-2.63-3.2-3.37-5.1-.82-2.12-1.22-4.37-1.19-6.63,0-2.01.24-4.01.72-5.97.47-1.9,1.17-3.74,2.1-5.49.89-1.69,2-3.28,3.31-4.72,1.28-1.43,2.76-2.68,4.41-3.73,3.42-2.15,7.46-3.29,11.58-3.27,1.97-.03,3.93.27,5.78.88,1.56.51,3,1.29,4.25,2.3,1.11.88,2.01,1.96,2.65,3.19.57,1.1.87,2.31.87,3.54.04,1.65-.33,3.29-1.07,4.79-.87,1.59-2.19,2.92-3.82,3.85-2.26,1.31-4.74,2.28-7.32,2.87-3.8.91-7.67,1.54-11.58,1.87.05,2.6.66,4.5,1.82,5.7,1.16,1.2,2.88,1.8,5.15,1.8.94.01,1.87-.07,2.78-.26.71-.15,1.4-.37,2.06-.66.55-.25,1.08-.53,1.59-.85l1.32-.85c.41-.27.86-.49,1.32-.67.52-.18,1.06-.26,1.61-.26.4,0,.79.1,1.14.28.37.18.7.43.97.72l3.16,3.42Zm-13.4-23.96c-1,0-1.99.21-2.91.6-.91.39-1.73.96-2.39,1.67-1.66,1.77-2.82,3.91-3.37,6.22,2.06-.28,4.1-.67,6.11-1.18,1.27-.3,2.5-.76,3.65-1.34.72-.35,1.32-.88,1.74-1.52.3-.55.45-1.15.45-1.77-.01-.67-.29-1.32-.78-1.81-.32-.31-.72-.54-1.15-.69-.43-.15-.89-.21-1.35-.17Z"></path><path class="cls-1" d="m305.87,219.23c-1.32,1.23-2.73,2.38-4.21,3.44-1.32.94-2.74,1.74-4.23,2.4-1.48.64-3.04,1.1-4.64,1.38-1.76.31-3.56.46-5.35.44-2.27.02-4.52-.37-6.62-1.16-1.96-.74-3.72-1.86-5.19-3.28-1.48-1.47-2.63-3.2-3.37-5.1-.82-2.12-1.23-4.37-1.2-6.63,0-2.01.24-4.01.73-5.97.47-1.89,1.16-3.72,2.07-5.46.89-1.69,2-3.28,3.31-4.72,1.28-1.43,2.76-2.68,4.4-3.73,3.43-2.16,7.46-3.3,11.59-3.27,1.97-.03,3.92.27,5.77.88,1.56.51,3,1.29,4.25,2.3,1.11.88,2.01,1.96,2.65,3.19.58,1.09.88,2.29.89,3.51.02,1.65-.36,3.28-1.1,4.77-.88,1.59-2.2,2.92-3.82,3.85-2.27,1.31-4.74,2.28-7.33,2.87-3.8.91-7.67,1.54-11.58,1.87.05,2.6.66,4.5,1.82,5.7,1.16,1.2,2.88,1.8,5.15,1.8.93.01,1.87-.07,2.78-.26.71-.14,1.4-.37,2.06-.66.55-.25,1.08-.53,1.59-.85l1.32-.85c.41-.27.86-.49,1.32-.67.52-.18,1.06-.26,1.61-.25.4,0,.79.09,1.13.28.37.18.7.42.98.72l3.19,3.45Zm-13.4-23.96c-1,0-2,.21-2.91.6-.91.39-1.73.96-2.39,1.67-1.66,1.77-2.82,3.91-3.37,6.22,2.06-.28,4.1-.67,6.11-1.18,1.27-.3,2.49-.75,3.64-1.34.72-.35,1.32-.88,1.75-1.52.3-.55.45-1.15.45-1.77-.02-.67-.3-1.32-.79-1.81-.32-.31-.71-.54-1.15-.69-.43-.15-.89-.21-1.35-.17Z"></path><path class="cls-1" d="m343.02,192.66c0,.78-.15,1.55-.43,2.28-.25.67-.64,1.28-1.14,1.8l-16.97,21.06h18.15v8.47h-32.14v-4.63c.03-.6.16-1.2.39-1.77.27-.72.67-1.39,1.17-1.99l17.13-21.32h-17.6v-8.44h31.44v4.54Z"></path><path class="cls-1" d="m367.39,187.5c2.87-.03,5.73.43,8.42,1.37,2.44.85,4.67,2.18,6.53,3.9,1.85,1.76,3.29,3.86,4.23,6.17,1.04,2.61,1.55,5.37,1.51,8.16.05,2.81-.46,5.6-1.5,8.23-.94,2.33-2.38,4.45-4.23,6.22-1.86,1.73-4.08,3.07-6.53,3.93-2.69.95-5.55,1.42-8.42,1.39-2.9.03-5.78-.45-8.49-1.41-2.48-.86-4.73-2.2-6.62-3.93-1.88-1.76-3.34-3.88-4.27-6.22-1.04-2.63-1.55-5.42-1.51-8.23-.04-2.78.47-5.55,1.51-8.16.95-2.31,2.42-4.41,4.31-6.14,1.89-1.72,4.15-3.05,6.62-3.9,2.7-.93,5.56-1.4,8.44-1.37Zm0,30.9c2.79,0,4.85-.93,6.17-2.78,1.32-1.85,1.98-4.67,1.99-8.45,0-3.78-.66-6.59-1.99-8.44-1.32-1.85-3.38-2.76-6.17-2.76s-4.98.92-6.31,2.76c-1.33,1.84-1.99,4.65-1.99,8.44s.66,6.59,1.99,8.45c1.33,1.85,3.43,2.78,6.31,2.78Z"></path><path class="cls-1" d="m455.69,173.52v52.76h-6.67v-38.77c0-.51,0-1.06.06-1.65.06-.59.08-1.19.14-1.8l-19.28,32.97c-.23.5-.61.93-1.1,1.23-.49.3-1.06.45-1.64.44h-1.09c-.58.01-1.15-.14-1.64-.44-.49-.3-.87-.72-1.1-1.23l-19.67-33.12c.15,1.2.23,2.4.24,3.6v38.77h-6.67v-52.76h5.61c.53-.02,1.06.04,1.57.19.47.21.84.58,1.05,1.03l19.4,32.48c.31.62.62,1.2.92,1.87.31.67.58,1.29.84,1.95.26-.66.54-1.32.82-1.97.28-.65.6-1.24.94-1.87l19.05-32.44c.2-.45.57-.82,1.05-1.03.51-.14,1.05-.21,1.58-.19l5.6-.02Z"></path><path class="cls-1" d="m499.39,221.05c-.88,1-1.93,1.86-3.1,2.56-1.21.73-2.5,1.33-3.86,1.79-1.38.47-2.8.82-4.25,1.05-1.44.23-2.9.35-4.36.35-2.6.02-5.17-.44-7.58-1.34-2.28-.84-4.33-2.15-6-3.83-1.77-1.79-3.13-3.91-3.97-6.22-.97-2.75-1.44-5.63-1.37-8.53-.02-2.48.41-4.95,1.27-7.3.79-2.16,2.04-4.15,3.66-5.85,1.62-1.68,3.62-3.01,5.84-3.9,2.45-.98,5.1-1.47,7.77-1.44,2.26-.02,4.51.36,6.62,1.13,1.98.72,3.77,1.82,5.25,3.24,1.53,1.49,2.71,3.28,3.47,5.23.87,2.27,1.3,4.67,1.26,7.09.06.71-.06,1.41-.35,2.07-.16.18-.36.33-.59.42-.23.09-.48.12-.73.09h-26.57c.03,2.08.38,4.15,1.03,6.15.53,1.6,1.41,3.08,2.57,4.35,1.07,1.15,2.41,2.05,3.92,2.61,1.62.6,3.35.9,5.1.87,1.53.03,3.06-.17,4.52-.58,1.13-.33,2.22-.74,3.27-1.24.78-.38,1.55-.79,2.29-1.24.46-.33,1.01-.53,1.59-.58.26,0,.52.04.75.15.23.11.43.27.58.47l1.97,2.45Zm-5.64-17.49c.02-1.42-.2-2.83-.66-4.18-.42-1.21-1.09-2.32-1.99-3.28-.88-.93-1.97-1.66-3.19-2.13-1.35-.52-2.81-.78-4.27-.75-3.35,0-6,.91-7.95,2.74-1.95,1.83-3.16,4.36-3.63,7.6h21.69Z"></path><path class="cls-1" d="m520.47,226.86c-3.13,0-5.54-.83-7.23-2.49-1.69-1.66-2.52-4.02-2.52-7.1v-22.81h-4.76c-.38,0-.76-.11-1.05-.35-.15-.14-.27-.31-.34-.5-.08-.19-.1-.39-.09-.59v-2.61l6.5-.77,1.6-11.52c.06-.35.25-.67.53-.9.29-.24.68-.37,1.07-.35h3.53v12.85h11.48v4.75h-11.51v22.4c0,1.57.4,2.74,1.22,3.5.41.38.9.68,1.44.88.54.2,1.12.29,1.69.26.64.01,1.29-.08,1.9-.27.48-.17.95-.37,1.39-.62.39-.22.72-.42.99-.62.21-.16.46-.25.73-.28.21.02.4.08.58.19.17.11.31.26.4.43l2.04,3.11c-1.26,1.09-2.74,1.94-4.35,2.49-1.67.61-3.45.93-5.25.94Z"></path><path class="cls-1" d="m568.41,221.05c-.89,1-1.93,1.86-3.1,2.56-1.21.73-2.51,1.33-3.86,1.79-1.38.47-2.81.82-4.25,1.05-1.44.23-2.89.35-4.35.35-2.6.02-5.17-.44-7.58-1.34-2.28-.84-4.32-2.15-5.99-3.83-1.76-1.79-3.1-3.91-3.94-6.22-.99-2.75-1.46-5.64-1.41-8.54-.02-2.48.41-4.95,1.27-7.3.8-2.16,2.04-4.15,3.67-5.85,1.62-1.68,3.61-3.01,5.83-3.9,2.45-.98,5.1-1.46,7.76-1.42,2.26-.02,4.51.36,6.62,1.13,1.98.72,3.77,1.82,5.25,3.24,1.53,1.49,2.71,3.28,3.47,5.23.87,2.27,1.29,4.67,1.25,7.09.07.71-.05,1.42-.35,2.07-.16.19-.36.33-.59.42-.23.09-.49.12-.73.09h-26.56c.03,2.08.38,4.15,1.04,6.15.53,1.6,1.41,3.08,2.57,4.35,1.07,1.15,2.41,2.05,3.91,2.61,1.62.6,3.35.9,5.1.87,1.53.03,3.06-.17,4.52-.58,1.14-.32,2.25-.74,3.31-1.24.91-.44,1.67-.86,2.29-1.24.46-.33,1.01-.53,1.59-.58.26,0,.52.04.75.15.23.11.43.27.58.47l1.94,2.43Zm-5.64-17.49c.02-1.42-.2-2.83-.66-4.18-.42-1.21-1.1-2.32-1.99-3.28-.88-.92-1.97-1.65-3.19-2.13-1.36-.52-2.81-.78-4.27-.75-3.35,0-5.99.91-7.95,2.74-1.95,1.83-3.16,4.36-3.64,7.6h21.7Z"></path><path class="cls-1" d="m584.2,196.45c1.05-2.29,2.64-4.34,4.63-5.98,1.88-1.46,4.27-2.22,6.7-2.15.81,0,1.62.08,2.41.25.73.15,1.42.42,2.05.8l-.51,4.9c-.03.27-.17.51-.39.68-.22.17-.5.26-.78.24-.55-.02-1.09-.09-1.63-.22-.79-.16-1.59-.23-2.39-.22-1.13-.01-2.25.16-3.31.52-.98.34-1.88.86-2.65,1.53-.82.73-1.52,1.57-2.07,2.49-.67,1.08-1.22,2.22-1.67,3.4v23.57h-7.02v-37.27h3.97c.56-.06,1.12.09,1.57.4.35.4.55.89.59,1.4l.49,5.67Z"></path><path class="cls-1" d="m124.3,170.84c-5.07-8.98-12.41-16.66-21.38-22.36-8.96-5.7-19.28-9.25-30.04-10.34-2.17-.22-4.35-.31-6.53-.33-.04,0-.08-.02-.13-.03-.07,0-.14,0-.21.01-.07,0-.14-.01-.21-.01-8.41,0-16.68,1.65-24.53,4.61C17.07,151.65,0,173.94,0,200c0,8.98,2.03,17.52,5.67,25.23,0,0,0,0,0,0,3.23-2.31,8.34-4.55,18.63-3.64l.29-.3c-1.96-2.77-2.87-6.09-2.57-9.41s1.79-6.45,4.22-8.86c2.43-2.42,5.66-3.98,9.16-4.44,3.5-.45,7.06.23,10.09,1.93.36-.63,1.7-2.38,5.93-4.68,5.22-2.86,6.62-3.04,12.11-2.8.19.04.4.04.59,0,.99-.61,1.91-1.32,2.74-2.12,1.4-1.38,2.61-2.93,3.61-4.59,2.17-3.54,3.46-7.5,3.77-11.58.19-3.12-.35-7.58-4.02-11.14-1.66-1.62-3.64-2.9-5.83-3.79h-.1c-.23-.09-.43-.25-.57-.46-.14-.2-.2-.44-.19-.68,0-.17.02-.34.08-.49.06-.16.16-.3.29-.42s.28-.21.44-.27c.17-.06.34-.09.52-.08h.16c2.85.31,5.61,1.12,8.14,2.4,2.7,1.41,5.02,3.38,6.78,5.77,1.82,2.41,3.14,5.13,3.89,8,1.45,5.69,1.51,11.62.17,17.33-.63,2.91-1.65,5.73-3.04,8.39-1.3,2.61-2.99,5.03-5.01,7.19-.04.05-.07.11-.08.18,0,.06,0,.13.03.19.03.05.07.09.13.12.05.03.11.04.18.04.5-.03,1-.12,1.49-.26l.25-.06c1.45-.42,2.92-1.58,4.48-3.54.02-.03.06-.06.1-.07.04-.01.08-.01.12,0,.11.04.23.15.17,1.02,0,1.64-1.2,14.23-6.42,21.63-2.7,3.63-6.08,6.77-9.97,9.27-1.35.87-2.44,2.06-3.15,3.46-.71,1.39-1.01,2.94-.87,4.48v.17c.11,1.5.27,3.67.44,6.08,6.97.37,13.96-.55,20.54-2.75,6.78-2.27,12.99-5.82,18.24-10.43,5.26-4.61,9.45-10.19,12.31-16.39,2.86-6.2,4.34-12.88,4.34-19.64,0-8.06-2.1-16-6.12-23.12-4.02-7.12-9.84-13.21-16.95-17.72-7.11-4.52-15.28-7.33-23.81-8.19-4.18-.42-8.38-.37-12.51.15-6.2.77-12.68-1.4-16.2-6.26.03-.01,1.05-.41,3.01-1,6.47-2.04,13.21-3.07,20.08-3.07,2.26,0,4.54.11,6.78.34,10.26,1.04,20.19,4.45,28.73,9.88,8.52,5.41,15.56,12.78,20.37,21.3,4.8,8.5,7.34,18.07,7.34,27.69,0,8.14-1.75,16.05-5.2,23.52-3.46,7.48-8.43,14.1-14.79,19.68-6.37,5.59-13.76,9.82-21.98,12.57-6.68,2.23-13.66,3.39-20.75,3.44l-.51-9.9s-.07,0-.11,0c-.95,0-1.89-.03-2.84-.08l.74,12.94c.73.02,1.47.03,2.2.03,7.56,0,15.07-1.21,22.21-3.6,8.55-2.86,16.38-7.34,23.01-13.16,6.63-5.82,11.92-12.86,15.53-20.68,3.61-7.82,5.48-16.25,5.48-24.78,0-10.17-2.65-20.18-7.73-29.16Zm-81.75-26.19c.04.06.04.06.07.09-.02-.03-.05-.06-.07-.09Z"></path><ellipse class="cls-1" cx="59.06" cy="201.59" rx="2.68" ry="2.53"></ellipse></svg> 