<?xml version="1.0" encoding="UTF-8"?> <svg xmlns="http://www.w3.org/2000/svg" id="Layer_2" width="50" height="50" viewBox="0 0 50 50"><defs><style>.cls-1{fill:#b2abf2;}</style></defs><path class="cls-1" d="m37.22,32.52c0-.52-.18-.97-.55-1.33l-4.07-4.07c-.35-.36-.83-.56-1.33-.55-.55,0-1.02.21-1.41.62.04.04.16.16.37.36.21.2.35.34.42.42s.17.2.29.37c.13.17.21.34.26.5.04.16.07.34.07.54,0,.52-.18.97-.55,1.33-.35.36-.83.56-1.33.55-.18,0-.36-.02-.54-.07s-.35-.14-.5-.25c-.13-.09-.25-.18-.37-.29l-.42-.42c-.2-.21-.32-.33-.36-.37-.43.41-.65.88-.65,1.43,0,.52.18.96.55,1.33l4.03,4.05c.35.35.8.53,1.33.53s.97-.17,1.33-.51l2.88-2.86c.36-.36.54-.8.55-1.31h0Zm-13.76-13.8c0-.52-.18-.97-.55-1.33l-4.03-4.05c-.35-.36-.83-.56-1.33-.55-.51,0-.95.17-1.33.53l-2.88,2.86c-.37.37-.55.8-.55,1.31s.18.97.55,1.33l4.07,4.07c.35.35.79.53,1.33.53s1.02-.2,1.41-.61c-.04-.04-.16-.16-.37-.36s-.35-.34-.42-.42c-.1-.12-.2-.24-.29-.37-.12-.15-.2-.32-.26-.5-.05-.18-.07-.36-.07-.54,0-.52.18-.96.55-1.33s.81-.55,1.33-.55c.2,0,.38.02.54.07.17.04.33.13.5.25s.29.22.37.29c.08.07.22.21.42.42.2.21.32.33.36.37.43-.39.65-.87.65-1.42h0Zm17.51,13.8c0,1.57-.55,2.89-1.66,3.97l-2.88,2.86c-1.08,1.09-2.41,1.63-3.97,1.63s-2.91-.55-3.99-1.66l-4.03-4.05c-1.09-1.08-1.63-2.41-1.63-3.97s.57-2.97,1.72-4.09l-1.72-1.72c-1.12,1.15-2.48,1.72-4.07,1.72s-2.9-.55-3.99-1.64l-4.07-4.08c-1.1-1.11-1.65-2.44-1.65-4s.55-2.89,1.66-3.98l2.88-2.86c1.08-1.09,2.41-1.63,3.97-1.63s2.91.55,3.99,1.66l4.03,4.05c1.09,1.08,1.63,2.41,1.63,3.97s-.57,2.97-1.72,4.09l1.72,1.72c1.12-1.15,2.48-1.72,4.07-1.72s2.9.55,3.99,1.64l4.07,4.07c1.11,1.12,1.66,2.45,1.65,4.02h0Z"></path></svg> 