<?xml version="1.0" encoding="UTF-8"?><svg id="Layer_1" xmlns="http://www.w3.org/2000/svg" width="50" height="50" viewBox="0 0 50 50"><defs><style>.cls-1{fill:#b2abf2;}</style></defs><path class="cls-1" d="m17,38.95h-6.1v-19.5h6.1v19.5Zm-3-21.9c-1.9,0-3.1-1.4-3.1-3,0-1.7,1.3-3,3.2-3s3.1,1.3,3.2,3c-.1,1.6-1.3,3-3.3,3Zm25.1,21.9h-6.1v-10.8c0-2.5-.9-4.2-3.1-4.2-1.7,0-2.7,1.2-3.1,2.3-.2.4-.2,1-.2,1.5v11.2h-6.1v-13.3c0-2.4-.1-4.5-.2-6.2h5.3l.3,2.7h.1c.8-1.3,2.8-3.1,6-3.1,4,0,7,2.7,7,8.4l.1,11.5h0Z"/></svg>