<?xml version="1.0" encoding="UTF-8"?><svg id="Layer_1" xmlns="http://www.w3.org/2000/svg" width="50" height="50" viewBox="0 0 50 50"><defs><style>.cls-1{fill:#b2abf2;}</style></defs><path class="cls-1" d="m25.48,20.32c-2.58,0-4.67,2.09-4.67,4.67s2.09,4.67,4.67,4.67,4.67-2.09,4.67-4.67-2.09-4.67-4.67-4.67Z"/><path class="cls-1" d="m39.4,19.21c-.07-1.49-.3-2.51-.65-3.4-.36-.92-.84-1.7-1.61-2.48-.78-.78-1.56-1.26-2.48-1.61-.89-.35-1.91-.58-3.4-.65-1.49-.07-1.97-.08-5.77-.08s-4.28.02-5.77.08c-1.49.07-2.51.3-3.4.65-.92.36-1.7.84-2.48,1.61-.78.78-1.26,1.56-1.61,2.48-.35.89-.58,1.91-.65,3.4-.07,1.49-.08,1.97-.08,5.77s.02,4.28.08,5.77c.07,1.49.3,2.51.65,3.4.36.92.84,1.7,1.61,2.48.78.78,1.56,1.26,2.48,1.61.89.35,1.91.58,3.4.65,1.49.07,1.97.08,5.77.08s4.28-.02,5.77-.08c1.49-.07,2.51-.3,3.4-.65.92-.36,1.7-.84,2.48-1.61.78-.78,1.26-1.56,1.61-2.48.35-.89.58-1.91.65-3.4.07-1.49.08-1.97.08-5.77s-.02-4.28-.08-5.77Zm-13.92,12.48c-3.7,0-6.71-3.01-6.71-6.71s3.01-6.71,6.71-6.71,6.71,3.01,6.71,6.71-3.01,6.71-6.71,6.71Zm7.47-12.5c-.93,0-1.68-.75-1.68-1.68s.75-1.68,1.68-1.68,1.68.75,1.68,1.68-.75,1.68-1.68,1.68Z"/></svg>