<?xml version="1.0" encoding="UTF-8"?> <svg xmlns="http://www.w3.org/2000/svg" id="Layer_1" width="50" height="50" viewBox="0 0 50 50"><defs><style>.cls-1{fill:#b2abf2;}</style></defs><path class="cls-1" d="m17.17,39.48c-.13-.92-.01-3.01.34-4.5.38-1.59,2.52-10.69,2.52-10.69,0,0-.63-1.25-.63-3.1,0-2.91,1.68-5.08,3.78-5.08,1.78,0,2.65,1.34,2.65,2.94,0,1.79-1.14,4.48-1.73,6.96-.49,2.08,1.04,3.78,3.1,3.78,3.72,0,6.22-4.77,6.22-10.43,0-4.3-2.9-7.52-8.16-7.52-5.95,0-9.66,4.44-9.66,9.39,0,1.71.5,2.91,1.29,3.85.36.43.41.6.28,1.09-.09.36-.31,1.23-.4,1.57-.13.5-.53.67-.98.49-2.74-1.12-4.02-4.12-4.02-7.49,0-5.57,4.7-12.25,14.02-12.25,7.49,0,12.42,5.42,12.42,11.24,0,7.69-4.28,13.44-10.58,13.44-2.12,0-4.11-1.15-4.79-2.45,0,0-1.18,4.51-1.38,5.39-.6,2.67-1.87,4.36-1.87,4.36,0,0-1.19,1.75-1.88.65-.26-.42-.46-1.11-.54-1.65Z"></path></svg> 