<?xml version="1.0" encoding="UTF-8"?><svg id="Layer_1" xmlns="http://www.w3.org/2000/svg" width="30" height="170" viewBox="0 0 30 170"><defs><style>.cls-1{fill:#fff;}</style></defs><path class="cls-1" d="m9.1,52.26c0,1.96,1.06,3.06,2.51,3.06,1.74,0,2.46-1.15,2.75-2.91.35-2.05,1.23-3.66,3.66-3.66,1.94,0,3.32,1.3,3.32,3.7,0,1.59-.55,2.64-1.26,3.57l-.86-.6c.59-.81,1.03-1.7,1.03-2.97,0-1.74-.92-2.57-2.16-2.57-1.8,0-2.31.97-2.62,2.69-.35,1.87-1.08,3.88-3.77,3.88-2.13,0-3.68-1.5-3.68-4.2,0-1.69.6-3.1,1.21-3.83l.93.55c-.53.73-1.04,1.96-1.04,3.28Z"/><path class="cls-1" d="m11.56,58.48h6.23v1.06h-5.97c-1.85,0-2.73.64-2.73,2.03,0,1.14.82,2.13,1.7,2.75h7v1.06h-8.01c-.95,0-.84.66-.7,1.17h-.9c-.27-1.17-.02-2.07,1.23-2.24-.86-.81-1.34-1.7-1.34-2.78,0-1.89,1.17-3.06,3.48-3.06Z"/><path class="cls-1" d="m22,68.11v1.06h-5.35c.81.77,1.32,1.7,1.32,2.75,0,2.12-1.32,3.3-3.63,3.3h-2.55c-2.33,0-3.72-1.34-3.72-3.55,0-1.06.33-1.96.73-2.69l-.55-.11v-.75h13.74Zm-12.2,1.06c-.35.7-.7,1.59-.7,2.49,0,1.63.99,2.49,2.91,2.49h2.07c1.85,0,2.88-.62,2.88-2.25,0-1.1-.94-2.18-1.7-2.73h-5.46Z"/><path class="cls-1" d="m9.08,80.81c0,1.65.92,2.36,1.8,2.36.95,0,1.47-.57,1.69-2.02.27-1.83.57-3.46,2.8-3.46,1.43,0,2.6.99,2.6,3.15,0,1.45-.5,2.4-1.14,3.24l-.79-.49c.51-.73.92-1.59.92-2.75,0-1.58-.73-2.09-1.61-2.09-1.34,0-1.54.99-1.74,2.35-.26,1.72-.68,3.1-2.71,3.13-1.45.02-2.82-1.21-2.82-3.43,0-1.54.59-2.75,1.14-3.43l.79.51c-.49.66-.92,1.7-.92,2.91Z"/><path class="cls-1" d="m9.08,89.89c0,1.21.42,2.07.92,2.73l-.79.51c-.55-.68-1.14-1.7-1.14-3.24,0-2.22,1.39-3.59,3.72-3.59h2.46c2.33,0,3.72,1.37,3.72,3.59,0,1.59-.51,2.4-1.17,3.24l-.75-.55c.53-.73.92-1.39.92-2.69,0-1.61-1.01-2.53-2.93-2.53h-2.02c-1.92,0-2.93.92-2.93,2.53Z"/><path class="cls-1" d="m17.78,95.51v.88l-1.26.15c.97.77,1.45,1.72,1.45,2.82l-1.03.07c0-1.19-.69-2.2-1.72-2.86h-6.96v-1.06h9.53Z"/><path class="cls-1" d="m17.78,101.99h-9.53v-1.06h9.53v1.06Zm1.85-.55c0-.53.35-.88.88-.88s.86.35.86.88-.35.86-.86.86-.88-.35-.88-.86Z"/><path class="cls-1" d="m22,104.74v1.06h-5.35c.81.77,1.32,1.7,1.32,2.75,0,2.12-1.32,3.3-3.63,3.3h-2.55c-2.33,0-3.72-1.34-3.72-3.55,0-1.06.33-1.96.73-2.69l-.55-.11v-.75h13.74Zm-12.2,1.06c-.35.7-.7,1.59-.7,2.49,0,1.63.99,2.49,2.91,2.49h2.07c1.85,0,2.88-.62,2.88-2.25,0-1.1-.94-2.18-1.7-2.73h-5.46Z"/><path class="cls-1" d="m8.07,117.98c0-2.22,1.39-3.61,3.72-3.61h2.46c2.33,0,3.72,1.39,3.72,3.61s-1.39,3.59-3.72,3.59h-1.54v-6.14h-.68c-1.92,0-2.95.92-2.95,2.55,0,1.21.42,2.25.92,2.91l-.79.51c-.55-.68-1.14-1.89-1.14-3.43Zm5.63,2.53h.31c1.92,0,2.93-.92,2.93-2.53s-1.01-2.53-2.93-2.53h-.31v5.06Z"/></svg>