<?xml version="1.0" encoding="UTF-8"?> <svg xmlns="http://www.w3.org/2000/svg" viewBox="0 0 421.04 163.03"><title>hunt-big-sales</title><g id="Layer_1" data-name="Layer 1"><path d="M261.31,113.22V96.46c0-12.31-.91-13.68-10-14.93v-1.6h29.64v1.6c-9.58,1.25-10.49,2.62-10.49,14.93v41c0,12.31.91,13.68,10.26,14.94V154H250.36v-1.59c10-1.26,10.95-2.63,10.95-14.94V116.64h-40V137.5c0,12.31.92,13.68,10.26,14.94V154H201.91v-1.59c9.35-1.26,10.26-2.63,10.26-14.94v-41c0-12.31-.91-13.68-10.71-14.93v-1.6H231.1v1.6c-8.89,1.25-9.81,2.62-9.81,14.93v16.76Z" transform="translate(-98.32 -52.55)"></path><path d="M317.39,79.93v1.6c-9.11,1.25-10,2.62-10,14.93v24.17c0,9.69,1.26,17,4.79,22.11s8.89,7.87,16.87,7.87a19.6,19.6,0,0,0,16.87-8.89C349.66,136,351,126,351,116.41v-6.27c0-12-.57-18.12-1.25-21.66-.8-4-3.88-6-11.4-7v-1.6h27.47v1.6c-6.27.8-9.23,3-10,7-.68,3.54-1.71,9.69-1.71,21.78v7.63c0,13.23-2.05,22.58-8.66,29.64-4.9,5.25-13.11,8.21-20.29,8.21-5.82,0-13-1.48-18.24-5.81-5.93-4.9-8.67-12.66-8.67-25.65V96.46c0-12.31-.91-13.68-10.49-14.93v-1.6Z" transform="translate(-98.32 -52.55)"></path><path d="M437.89,154.83h-1.82l-51-61.9h-.23v30.89c0,12,.8,18.13,1.48,21.66.8,4,3.88,6,11.4,7V154H370.29v-1.59c6.27-.8,9.23-3,10-7,.69-3.53,1.48-9.69,1.48-21.66V99.31c0-9.69-.11-10.37-2.16-12.88s-5.25-4-10.15-4.9v-1.6H386l48.57,58.37h.22V110.14c0-12-.79-18.12-1.48-21.66-.8-4-3.87-6-11.4-7v-1.6H449.4v1.6c-6.27.8-9.23,3-10,7-.68,3.54-1.48,9.69-1.48,21.66Z" transform="translate(-98.32 -52.55)"></path><path d="M508.68,79.93c3,0,4-.68,5.82-2.85h1.14c.11,4.79.68,13.11,1.25,19.72l-1.71.35c-1.94-5.48-3.19-8.67-4.9-10.83s-5.24-3.88-12.2-3.88h-8.44V137.5c0,12.31.92,13.68,12.09,14.94V154H468.9v-1.59c10.71-1.26,11.63-2.63,11.63-14.94V82.44H474.6c-10.15,0-12.89,2.28-14.59,4.56a36.47,36.47,0,0,0-4.79,10.15h-1.71c.45-7,1.14-14.25,1.37-20.07H456c1.71,2.62,3.3,2.85,6.38,2.85Z" transform="translate(-98.32 -52.55)"></path><path d="M219.48,167.23c4.83,0,8.14.86,10.52,2.52s3.74,4.32,3.74,7.92c0,6.33-6,9.43-9.5,10.29v.15c6.62.93,12.53,4.82,12.53,12.1,0,5.11-2.52,8.71-6.7,11.08-3.6,2-8.21,2.74-13.75,2.74H200.26v-1c6.05-.79,6.62-1.65,6.62-9.43V177.67c-.07-7.78-.5-8.64-6.19-9.44v-1Zm-7,20.66H217c6.91,0,10.37-3.17,10.37-9.43,0-4.32-1.81-9.79-10.3-9.79-2.38,0-3.39.07-4,.36s-.65.5-.65,1.94Zm0,1.44v16.06c0,5.69.94,7.06,6.19,7.06,6.12,0,11.24-3.39,11.24-11.31s-5.69-11.81-13.25-11.81Z" transform="translate(-98.32 -52.55)"></path><path d="M254.33,203.59c0,7.78.58,8.64,6.48,9.43v1H242.09v-1c5.9-.79,6.48-1.65,6.48-9.43V177.67c0-7.78-.58-8.64-6.48-9.44v-1h18.72v1c-5.9.8-6.48,1.66-6.48,9.44Z" transform="translate(-98.32 -52.55)"></path><path d="M306.89,179.4c-2.66-9.15-8.64-11.67-15.33-11.67-10.88,0-18,8.43-18,22,0,10.94,5.19,23.76,19.45,23.76a16.45,16.45,0,0,0,6.48-1.08c1.65-.72,2.66-1.44,2.66-4.76v-6.91c0-4.82-.29-5.69-8.14-6.62v-1h18.22v1c-4,1-4.32,1.58-4.32,6.62v4.9a33.9,33.9,0,0,0,.43,6.55c-4.46,1.23-10.29,2.88-15.69,2.88-15.13,0-26.14-9.86-26.14-24,0-16.27,13-25,26.57-25A54,54,0,0,1,306.82,168c.22,2.45.58,6.19,1.15,11.16Z" transform="translate(-98.32 -52.55)"></path><path d="M333.74,201.29c1.37,3.31,5.4,11.88,13.32,11.88,5.48,0,9-3.24,9-9.22,0-7.27-5.84-9.58-9.72-11.59-2.81-1.44-11.89-4.76-11.89-13,0-7,5.26-13.17,14.62-13.17,4.11,0,6.48,1.15,8.64,1.65.29,2.52.72,5.4,1.3,9.8l-1.08.21c-1.59-4.39-3.75-9.93-10.44-9.93-5.55,0-8.07,3.74-8.07,8.28,0,5.32,4.11,7.92,9.58,10.44s12.24,5.47,12.24,14c0,8.06-6.77,14.33-15.84,14.47a27.32,27.32,0,0,1-6.77-1.22,35.36,35.36,0,0,1-3.82-1.51c-.64-1.88-1.44-7-2.16-10.81Z" transform="translate(-98.32 -52.55)"></path><path d="M363.77,214v-1c4.68-1.15,5.54-1.65,8.28-8.64l14.76-37.94.94-.29,5.32,13.75c3.53,9.07,6.7,18.22,9.58,25.56,2.31,5.91,3.24,6.48,7.71,7.56v1H393.15v-1l2.37-.64c2.59-.65,2.81-1.37,2.16-3.61-.5-1.72-2.59-7.34-4.68-12.89H377.59c-.86,2.24-2.66,7.85-3.38,10.73-1.08,4.32-.43,5.19,3.45,6l1.52.36v1Zm14.54-20.31h13.9l-6.91-18.36h-.15Z" transform="translate(-98.32 -52.55)"></path><path d="M425.18,204.53c0,4.1.36,5.83,1.59,6.76,1.51,1.16,3.89,1.16,7.13,1.16,3.45,0,6.69-1,8.35-2.81a41.05,41.05,0,0,0,4.1-7.13l1.08.22c-.36,2-1.94,9.36-2.52,11.3H412.8v-1c6.05-.79,6.62-1.65,6.62-9.43V177.67c0-7.78-.57-8.64-6.62-9.44v-1H432v1c-6.19.8-6.77,1.66-6.77,9.44Z" transform="translate(-98.32 -52.55)"></path><path d="M457.29,177.67c0-7.78-.57-8.64-6.33-9.44v-1h31.25c.07,1.22.43,6.48.79,10.51l-1.08.22a16.25,16.25,0,0,0-3.24-6.63c-1.08-1.22-3.24-2.52-8.71-2.52h-4.76c-2,0-2.16.15-2.16,2.16v17.57h7.28c6.19,0,6.41-.72,7.85-6h1.08v14.26h-1.08c-.72-2.74-1.16-4.25-2.16-5s-2.6-1-5.69-1h-7.28v13.83c0,4.1.44,5.83,1.66,6.76,1.51,1.16,4.1,1.16,7.49,1.16,4.1,0,7.49-1.16,9.07-2.88,1.23-1.3,2.52-3.75,4.18-7.06l1.08.22c-.36,2-1.95,9.36-2.52,11.3H450.24v-1c6.48-.79,7.05-1.65,7.05-9.43Z" transform="translate(-98.32 -52.55)"></path><path d="M491.85,201.29c1.37,3.31,5.4,11.88,13.32,11.88,5.48,0,9-3.24,9-9.22,0-7.27-5.83-9.58-9.72-11.59-2.81-1.44-11.88-4.76-11.88-13,0-7,5.26-13.17,14.62-13.17,4.1,0,6.48,1.15,8.64,1.65.29,2.52.72,5.4,1.3,9.8l-1.08.21c-1.59-4.39-3.75-9.93-10.44-9.93-5.55,0-8.07,3.74-8.07,8.28,0,5.32,4.1,7.92,9.58,10.44s12.24,5.47,12.24,14c0,8.06-6.77,14.33-15.84,14.47a27.32,27.32,0,0,1-6.77-1.22,34.52,34.52,0,0,1-3.82-1.51c-.64-1.88-1.44-7-2.16-10.81Z" transform="translate(-98.32 -52.55)"></path></g><g id="Layer_2" data-name="Layer 2"><g><path d="M178.46,134.5l.3-.15c.16-.1.31-.21.24-.66s-.73-1-.73-1a2.53,2.53,0,0,0-.11-.68c-.11-.26-1.14-.66-1.46-.75a13.9,13.9,0,0,0-1.91-.1,2.49,2.49,0,0,0-.93.22,11.14,11.14,0,0,0-1.64.72l-1,.35s.09-.38.1-.41c0-.48-.65-.45-.65-.45s.35-.67-.07-1c0,0-7.2-3.09-10.3-6a14.18,14.18,0,0,1-1.25-1.38c-2.75-3.71-7.28-17.81-7.28-17.81a3,3,0,0,0-1.28-2c-1.48-.84-8.32-3.81-9.64-4.57a10.57,10.57,0,0,1-2.28-1.87c-.63-.56-.67-.94-1-1.32s-1-.47-.95-.54c.13-1.38.49-.92,1.23-2.36a16.23,16.23,0,0,0,1.25-7.78c-.35-2.15-1.79-4.47-5.57-5.49a15.81,15.81,0,0,0-9.23.62c-.67.27-1.33.64-1.25,1.22a4,4,0,0,0,.78,1.58,5.3,5.3,0,0,0-.49,2.37,14.9,14.9,0,0,1,.13,2c0,.32-.25,3.41-.17,3.89a11.75,11.75,0,0,0,.6,3.5c.39.93.5,1.26,1.34,1.43a8.38,8.38,0,0,1,1.32.39,5.83,5.83,0,0,0-1.47,1,17.45,17.45,0,0,0-1.24,1.25s-4.77,1.45-6.16,2-5.27,2.34-6.46,4.23a12,12,0,0,0-1,3.88c.19-1-4.49,17.94-5.32,21.07-.29,1.13-1.29,4.5-1.73,6.3-.25,1-1.32,8-1.24,8.61.06.44.76.4.76.4a4.87,4.87,0,0,0,0,1.47c.16.18.74.1.74.1a15.87,15.87,0,0,0,.41,3.86,7.73,7.73,0,0,0,2.34,2.37c.26.17.77.53,1,.62.35.19,1-.22,1-.22a1.2,1.2,0,0,0,1.3.12c.12-.07.26-.28.48-.47s.87-.73,1-.83c.69-.54,1.16-1,1-1.51s-.3-.59-.3-.59a.5.5,0,0,0,.35-.22,1.29,1.29,0,0,0,.07-.92c0-.35-.52-.57-.92-.68-.74-.19-1.37-.33-1.37-.33a9.86,9.86,0,0,0-.91-.81,3.13,3.13,0,0,0-.77-.4,6.4,6.4,0,0,0,1.06-.15c.47-.12.28-.66.28-.66s.67.17.81-.32,2.1-9.72,2.37-11C113.26,132,116,122,116,122a94.42,94.42,0,0,1,.1,13.51c-.71,6.88-3.43,21.15-3.19,21.51a13.19,13.19,0,0,0,1.31,1.52c-.68,17.89-.13,20.94-.26,23.15-.34,5.82-2.4,21.87-2.4,21.87-.21.73.42.64.42.64s-.31.41-.51.64a7.51,7.51,0,0,1-4,2.84,7.35,7.35,0,0,0-3.61,2.43,4.51,4.51,0,0,0,.05,2.44l.07,1.17a.2.2,0,0,0-.14.07c-.07.08.14.76.14.76a11,11,0,0,0,2,.77,9,9,0,0,0,4.52,0,8.5,8.5,0,0,0,3.68-1.72,8.41,8.41,0,0,1,2.94-1.47l.94.29a13.88,13.88,0,0,0,2.71-1.45,3,3,0,0,0,.9-2.78c-.14-1.31-.56-1.73-.63-2.56,0,0,.53,0,.67-1.06s1.26-10.66,2.35-16.13,3-12,3.75-15.68,3.39-12.43,3.39-12.43l.47,0s3.28,11.56,3.45,12.4c.73,3.64,2.65,10.21,3.75,15.68s2.21,15.09,2.35,16.13.66,1.06.66,1.06c-.07.83-.14,1.18-.28,2.49a3,3,0,0,0,.91,2.77,13.26,13.26,0,0,0,2.7,1.46l.94-.29a7.15,7.15,0,0,1,2.8,1.33,8.38,8.38,0,0,0,3.68,1.71,8.47,8.47,0,0,0,4.44,0,11.31,11.31,0,0,0,2-.76s.21-.69.14-.77a.2.2,0,0,0-.14-.07l.07-1.18s.54-1.67.13-2.43a7.35,7.35,0,0,0-3.61-2.43,9.41,9.41,0,0,1-4.29-2.77c-.21-.23-.51-.64-.51-.64s.63.09.42-.64c0,0-2.06-16.05-2.41-21.87-.13-2.21.57-5.12-.12-23a13.44,13.44,0,0,0,1.32-1.53c.23-.35-2.48-14.63-3.2-21.5a107.36,107.36,0,0,1,.11-14.35s4.19,6.61,5,7.87a8.11,8.11,0,0,0,2,2.14c4.48,3.23,13.56,7.31,13.56,7.31.43.08.61-.6.61-.6s.84.39,1.05.29.3-.6.3-.6l1.91.52a9.4,9.4,0,0,0,2.21,1,4.29,4.29,0,0,0,2.26-.16,2.07,2.07,0,0,0,1.81-.48c.33-.44,0-.66,0-.66a1.35,1.35,0,0,0,.9-.62c.22-.48-.41-.94-.41-.94a1,1,0,0,0,.53-.21.77.77,0,0,0,.2-.68A1.36,1.36,0,0,0,178.46,134.5Zm-47.59-25.75a16,16,0,0,1-3-4.52c-.93-2.42-.44-6.9-.42-6.87.56,1.15,3.44,2.29,3.44,2.29-1.57.58,0,2.31,0,2.35C130.87,105.68,130.87,108.75,130.87,108.75Zm4.66-4.25a19.37,19.37,0,0,1-1.41,3.8,15.19,15.19,0,0,0-1.18-6.41s1.16-1.87-.27-2.23a6,6,0,0,0,3.16-3.1S136.14,102.28,135.53,104.5Z" transform="translate(-98.32 -52.55)"></path><polygon points="0 118.66 0.21 95.08 5.55 94.49 21.84 105.11 21.7 128.69 16.31 129.26 0 118.66"></polygon><path d="M169.38,214.43s.05.4-.87.28c-.7-.09-.57-.38-.57-.38L178.69,83.76s-.35-6.15-.17-7.23.91-.86.91-.86l-1.1-3.45,5-19.67.21,20.21-1.9,3.08s.76,0,.67,1.06-1.49,7-1.49,7Z" transform="translate(-98.32 -52.55)"></path><path d="M102.69,145.27a8.88,8.88,0,0,0-.1,2c.16.17.74.09.74.09a12.9,12.9,0,0,0,.55,3.38,7.73,7.73,0,0,0,2.34,2.37c.26.17.77.53,1,.62.35.19,1-.22,1-.22a1.2,1.2,0,0,0,1.3.12c.12-.07.26-.28.48-.47s.87-.73,1-.83c.69-.54,1.16-1,1-1.51s-.3-.59-.3-.59a.5.5,0,0,0,.35-.22,1.29,1.29,0,0,0,.07-.92c0-.35-.52-.57-.92-.68-.74-.19-1.37-.33-1.37-.33a9.86,9.86,0,0,0-.91-.81,3.13,3.13,0,0,0-.77-.4,6.4,6.4,0,0,0,1.06-.15c.47-.12.28-.94.28-.94Z" transform="translate(-98.32 -52.55)"></path><g><path d="M174.19,134.41c.75,0,1.72-1,1.74-1l.73.53.13-1.79a.63.63,0,0,0-.42-.48,8.68,8.68,0,0,0-2,.38Z" transform="translate(-98.32 -52.55)"></path><path d="M176.4,138.91H176a1.64,1.64,0,0,1-.62-.21.58.58,0,0,1-.39-.56c0-.23.34-.45.34-.45s-.53-.26-.49-.73.58-.6.58-.6a.67.67,0,0,1-.26-.66c.11-.4.74-.59.74-.59a.66.66,0,0,1-.66-.64c0-.36.51-.57.53-.58a2.23,2.23,0,0,0,.93-.7Z" transform="translate(-98.32 -52.55)"></path></g><path d="M110.66,153.89c0,.11,0,.26.09.32s.15.18.69.13.43-.38.43-.38a5.4,5.4,0,0,0-.51-2.5c-.78-1.52-1.65-1.63-1.65-1.63s-.46-.13-.69.13a.61.61,0,0,0-.15.52.49.49,0,0,0,.26.34l.28.11a1.94,1.94,0,0,1,1,1A5.51,5.51,0,0,1,110.66,153.89Z" transform="translate(-98.32 -52.55)"></path></g></g></svg> 