<?xml version="1.0" encoding="UTF-8"?> <!-- Generator: Adobe Illustrator 22.1.0, SVG Export Plug-In . SVG Version: 6.00 Build 0) --> <svg xmlns="http://www.w3.org/2000/svg" xmlns:xlink="http://www.w3.org/1999/xlink" id="logo-dark" x="0px" y="0px" viewBox="0 0 189.16 65.27" style="enable-background:new 0 0 189.16 65.27;" xml:space="preserve"> <style type="text/css"> .st0{display:none;fill:#00303C;} .st1{fill:#231F20;} .st2{fill:#EB4444;} </style> <rect x="-160.02" y="-18.78" class="st0" width="507.6" height="103"></rect> <g> <path class="st1" d="M22.41,53.42c0,0.63-0.23,1.18-0.68,1.63c-0.45,0.45-1,0.68-1.63,0.68c-0.63,0-1.18-0.23-1.63-0.68 c-0.45-0.45-0.68-1-0.68-1.63v-27.7c0-0.63,0.23-1.18,0.68-1.63c0.45-0.45,1-0.68,1.63-0.68c0.63,0,1.18,0.23,1.63,0.68 c0.45,0.45,0.68,1,0.68,1.63v0.61c2.29-1.94,4.98-2.91,8.08-2.91c3.5,0,6.49,1.24,8.97,3.72c0.52,0.52,0.99,1.07,1.41,1.64 c0.42-0.58,0.9-1.12,1.41-1.64c2.48-2.48,5.47-3.72,8.97-3.72c3.5,0,6.49,1.24,8.97,3.72c2.48,2.48,3.72,5.47,3.72,8.97v17.31 c0,0.63-0.23,1.18-0.68,1.63c-0.45,0.45-1,0.68-1.63,0.68c-0.63,0-1.18-0.23-1.63-0.68c-0.45-0.45-0.68-1-0.68-1.63V36.11 c0-2.23-0.79-4.14-2.37-5.71c-1.58-1.58-3.48-2.37-5.71-2.37c-2.23,0-4.14,0.79-5.71,2.37c-1.58,1.58-2.37,3.48-2.37,5.71v17.31 c0,0.63-0.23,1.18-0.68,1.63c-0.45,0.45-1,0.68-1.63,0.68c-0.63,0-1.18-0.23-1.63-0.68c-0.45-0.45-0.68-1-0.68-1.63V36.11 c0-2.23-0.79-4.14-2.37-5.71c-1.58-1.58-3.48-2.37-5.71-2.37c-2.23,0-4.13,0.79-5.71,2.37c-1.58,1.58-2.37,3.48-2.37,5.71V53.42z"></path> <path class="st1" d="M93.61,47.88c0.64,0,1.18,0.23,1.63,0.68c0.45,0.45,0.68,1,0.68,1.63c0,0.63-0.22,1.18-0.66,1.64 c-2.98,2.6-6.49,3.89-10.53,3.89c-4.46,0-8.27-1.58-11.43-4.73c-3.15-3.15-4.73-6.96-4.73-11.42s1.58-8.27,4.73-11.42 c3.15-3.15,6.96-4.73,11.43-4.73c4.46,0,8.27,1.58,11.42,4.73c3.15,3.15,4.73,6.96,4.73,11.42c0,0.63-0.23,1.18-0.68,1.63 c-0.45,0.45-1,0.68-1.63,0.68H73.39c0.42,2.21,1.48,4.16,3.17,5.86c2.25,2.25,4.97,3.38,8.16,3.38c2.88,0,5.37-0.91,7.44-2.74 C92.59,48.05,93.07,47.88,93.61,47.88 M96.06,37.27c-0.42-2.21-1.48-4.16-3.17-5.86c-2.25-2.25-4.97-3.38-8.16-3.38 c-3.19,0-5.91,1.12-8.16,3.38c-1.69,1.69-2.75,3.65-3.17,5.86H96.06z"></path> <path class="st1" d="M133.19,11.82c0-0.63,0.22-1.18,0.68-1.63c0.45-0.45,0.99-0.68,1.63-0.68s1.18,0.23,1.63,0.68 c0.45,0.45,0.68,1,0.68,1.63v27.75c0,4.46-1.58,8.27-4.73,11.43c-3.16,3.15-6.96,4.73-11.43,4.73c-4.46,0-8.27-1.58-11.42-4.73 c-3.15-3.16-4.73-6.96-4.73-11.43c0-4.46,1.58-8.27,4.73-11.42c3.15-3.15,6.96-4.73,11.42-4.73c4.46,0,8.27,1.58,11.43,4.73 c0.04,0.04,0.08,0.08,0.12,0.12V11.82z M133.19,39.57c0-3.19-1.12-5.91-3.38-8.16c-2.25-2.25-4.97-3.38-8.17-3.38 c-3.19,0-5.91,1.13-8.16,3.38c-2.25,2.25-3.38,4.97-3.38,8.16c0,3.19,1.12,5.91,3.38,8.16c2.25,2.25,4.97,3.38,8.16,3.38 c3.19,0,5.92-1.13,8.17-3.38C132.07,45.49,133.19,42.77,133.19,39.57"></path> <path class="st1" d="M149.92,16.5c0,0.79-0.29,1.47-0.85,2.03c-0.57,0.57-1.24,0.85-2.03,0.85c-0.79,0-1.47-0.28-2.04-0.85 c-0.57-0.57-0.85-1.25-0.85-2.03c0-0.79,0.28-1.47,0.85-2.03c0.57-0.57,1.25-0.85,2.04-0.85c0.79,0,1.46,0.28,2.03,0.85 C149.64,15.03,149.92,15.71,149.92,16.5 M144.73,25.73c0-0.64,0.23-1.18,0.68-1.63c0.45-0.45,1-0.68,1.63-0.68 c0.63,0,1.18,0.23,1.63,0.68c0.45,0.45,0.68,1,0.68,1.63v27.69c0,0.63-0.22,1.18-0.68,1.63c-0.45,0.45-1,0.68-1.63,0.68 c-0.63,0-1.18-0.23-1.63-0.68c-0.45-0.45-0.68-1-0.68-1.63V25.73z"></path> <path class="st1" d="M182.96,50.88c-3.23,3.23-7.08,4.85-11.54,4.85c-4.46,0-8.27-1.58-11.43-4.73c-3.15-3.15-4.73-6.96-4.73-11.42 s1.58-8.27,4.73-11.42c3.15-3.15,6.96-4.73,11.43-4.73c4.46,0,8.27,1.58,11.42,4.73c3.15,3.15,4.73,6.96,4.73,11.42v13.85 c0,0.63-0.23,1.18-0.68,1.63c-0.45,0.45-1,0.68-1.63,0.68c-0.63,0-1.18-0.23-1.63-0.68c-0.45-0.45-0.68-1-0.68-1.63V50.88z M171.43,28.04c-3.19,0-5.91,1.12-8.16,3.38c-2.25,2.25-3.38,4.97-3.38,8.16c0,3.19,1.13,5.91,3.38,8.16 c2.25,2.25,4.97,3.38,8.16,3.38c3.19,0,5.91-1.12,8.16-3.38c2.25-2.25,3.38-4.97,3.38-8.16c0-3.19-1.12-5.92-3.38-8.16 S174.62,28.04,171.43,28.04"></path> <path class="st2" d="M10.37,4.63C10.37,5.9,9.91,6.99,9,7.9C8.09,8.81,7,9.26,5.73,9.26c-1.27,0-2.35-0.46-3.26-1.37 C1.56,6.99,1.1,5.9,1.1,4.63c0-1.26,0.46-2.35,1.37-3.26C3.38,0.46,4.47,0,5.73,0C7,0,8.09,0.46,9,1.37 C9.91,2.28,10.37,3.37,10.37,4.63 M2.03,17.56c0-1.02,0.36-1.89,1.09-2.62c0.73-0.72,1.6-1.09,2.62-1.09 c1.02,0,1.89,0.36,2.62,1.09c0.72,0.73,1.09,1.6,1.09,2.62V61.4c0,1.02-0.36,1.89-1.09,2.62c-0.73,0.73-1.6,1.09-2.62,1.09 c-1.02,0-1.89-0.36-2.62-1.09c-0.73-0.73-1.09-1.6-1.09-2.62V17.56z"></path> </g> </svg> 