<?xml version="1.0" encoding="UTF-8"?> <svg xmlns="http://www.w3.org/2000/svg" id="Layer_1" data-name="Layer 1" viewBox="0 0 697.63 99.8"><defs><style> .cls-1 { fill: #231f20; } .cls-2 { fill: #00ac4e; } </style></defs><title>market-watch</title><g><g><path class="cls-1" d="M168.9,41.8l-1.2,5.9h-.3c-1.5-3.3-5.7-7.9-15-7.9-15,0-30.3,11.6-33.7,29.9-2.9,16,4.8,30.1,22.6,30.1,6.5,0,14-2.5,17.9-8h.3l-1.1,6H175l10.4-56Zm-5.4,27.9c-1.1,5.5-6.3,14.4-16.7,14.4-10.2,0-12.3-9-11.4-14.2,1.2-6.4,6.9-14.4,16.6-14.4C161.5,55.6,164.7,63.1,163.5,69.7Z"></path><path class="cls-1" d="M194.8,41.8h15.6l-1.1,5.9h.3c2-2.7,5.9-7.9,15.5-7.9l-3.1,17c-7.9.1-13.6,1.7-15.1,10.3l-5.7,30.7H184.4Z"></path><polygon class="cls-1" points="236.4 19.9 253.2 19.9 245.3 62.1 245.6 62.1 265 41.8 284.7 41.8 259.1 66.4 273.8 97.8 254.8 97.8 244 70.8 243.7 70.8 238.8 97.8 221.9 97.8 236.4 19.9"></polygon><path class="cls-1" d="M311.6,39.8c-17,0-32.1,14.6-34.9,30.2-3.1,16.6,8.1,29.7,24.2,29.7a30.86,30.86,0,0,0,16.8-5.1,41.73,41.73,0,0,0,14-14.3H314.6c-2.8,2.9-6,5.2-11.2,5.2-6.5,0-11.4-3.9-11.1-10.6h42a22.31,22.31,0,0,0,1.2-4.4C338.7,53.4,328.7,39.8,311.6,39.8Zm-17,23.8A15.76,15.76,0,0,1,309.2,54c8.7,0,10.8,6.3,10.8,9.6Z"></path><polygon class="cls-1" points="96.5 19.9 66.9 64.3 66.7 64.3 66.7 19.9 52.4 19.9 0 97.8 20.3 97.8 49.7 53.4 50 53.4 50 97.8 64.4 97.8 93.8 53.4 94.1 53.4 94.1 97.8 110.9 97.8 110.9 19.9 96.5 19.9"></polygon><path class="cls-1" d="M378,41.8H367.4l3.1-16.6H355.8l-1.2,6.4c-1.3,7.3-5.9,9.5-12,10.2h-.1L340,54.5h8.3l-8,43.3H357l8-43.3h10.7Z"></path></g><path class="cls-2" d="M637.2,76.6c-5.5,12.7-18.6,23.1-33.7,23.1-17,0-27.5-13.4-24.5-30.1,3.1-16.4,18.3-29.8,35.1-29.8,14.8,0,25,9.9,25.3,23.6h-17c-1.1-3.9-3.6-7.9-10.7-7.9-7.9-.4-14.4,6.1-15.9,14.2S598.5,84,606.5,84c6.9,0,11.1-4,13.5-7.5h17.2ZM498.4,0,465.8,19.9H475L445.5,64.3h-.3V19.9H430.8L401.3,64.3H401V19.9H384.2V97.8h14.6l29.5-44.4h.3V97.8H443l52.2-77.9h8.3Zm31.8,97.8H513.6l1.1-6h-.3c-3.9,5.5-11.4,8-17.9,8-17.8,0-25.5-14-22.6-30.1,3.3-18.3,18.7-29.9,33.7-29.9,9.2,0,13.5,4.5,15,7.9h.3l1.2-5.9h16.6ZM502,84.2c10.4,0,15.6-9,16.7-14.4,1.2-6.7-2-14.2-11.5-14.2s-15.4,8-16.6,14.4c-.9,5.2,1.2,14.2,11.4,14.2Zm80.5-42.4H572l3.1-16.6H560.4l-1.2,6.4c-1.3,7.3-5.9,9.5-12,10.2H547l-2.4,12.7h8.3l-8,43.3h16.7l8-43.3h10.7ZM653,19.9h16.7l-5.1,27.8h.3c3.6-5.2,8.4-7.9,15.8-7.9,5.3,0,11.4,2,14.2,6.3,3.6,5.5,3.2,10.4,1.3,20.4l-5.7,31.3H673.8l5.6-30.5c.5-2.7,2.1-11.8-6.8-11.8-9.4,0-11,8.4-11.5,11.2l-5.7,31H638.7Z"></path></g></svg> 