<?xml version="1.0" encoding="UTF-8"?> <svg xmlns="http://www.w3.org/2000/svg" id="Layer_1" data-name="Layer 1" viewBox="0 0 415.75 240.29"><defs><style> .cls-1 { fill: #231f20; } </style></defs><title>the-wall-street-journal</title><g><path class="cls-1" d="M278.39,81.79H242.14V79.13H244c2.4,0,3.82-1.15,3.82-4.08V17.64c0-2.93-1.42-4.08-3.82-4.08h-1.95V10.9h36.34V35.27H276V35c0-14.44-4.4-21-12.44-21h-6V43.42h1.52c4.53,0,6.66-4.34,6.66-13.46v-.27h2.4V60.35h-2.4v-.18c0-9-2-13.56-6.66-13.56h-1.52V78.69h5.6c7.95,0,12.8-7.71,12.8-20.92v-.26h2.4Z" transform="translate(-8.59 -10.9)"></path><path class="cls-1" d="M239.74,81.79H218.5V79.13h1.78c2.4,0,3.91-1.15,3.91-4.08V47.23H208.64V75.05c0,2.94,1.51,4.08,3.91,4.08h1.86v2.66H193.09V79.13H195c2.4,0,3.91-1.15,3.91-4.08V17.64c0-2.93-1.51-4.08-3.91-4.08h-1.87V10.9h21.32v2.66h-1.86c-2.4,0-3.91,1.15-3.91,4.08V43.42h15.55V17.64c0-2.93-1.51-4.08-3.91-4.08H218.5V10.9h21.24v2.66h-1.87c-2.4,0-3.91,1.15-3.91,4.08V75.05c0,2.94,1.51,4.08,3.91,4.08h1.87Z" transform="translate(-8.59 -10.9)"></path><path class="cls-1" d="M191.94,35.45h-2.4v-.27c0-11.43-4.34-21.17-9.42-21.17H178v61c0,2.94,1.5,4.08,3.91,4.08h2.22v2.66H162.26V79.13h2c2.4,0,3.91-1.15,3.91-4.08V14h-1.87c-5.08,0-9.41,9.12-9.41,21.17v.27h-2.4V10.9h37.41Z" transform="translate(-8.59 -10.9)"></path></g><g><path class="cls-1" d="M173,164H137.16v-2.66h2.48c2.41,0,3.92-1.07,3.92-4V99.75c0-2.92-1.51-4-3.92-4h-1.95V93.11h21.15v2.66h-1.69c-2.4,0-3.91,1.06-3.91,4V160.9h5.24c9.58,0,12.09-10.9,12.09-21v-.26H173Z" transform="translate(-8.59 -10.9)"></path><path class="cls-1" d="M135.92,164H100.11l1.42-2.66h1.07c2.4,0,3.9-1.07,3.9-4V99.75c0-2.92-1.5-4-3.9-4h-2V93.11h21.15v2.66H120.1c-2.4,0-3.91,1.06-3.91,4V160.9h5.25c9.57,0,12.07-10.81,12.07-21.1v-.26h2.41Z" transform="translate(-8.59 -10.9)"></path><path class="cls-1" d="M71.67,95.77H71c-3.41,0-5.18.63-6.4,6.47l-13,62.28h-4l-8.08-40.75h-.09l-8.26,40.75h-4L14.45,100.65c-.81-4.08-2-4.88-5.59-4.88H8.59V93.11H27.87v2.66h-.35c-2.78,0-3.47,1-3.47,2.83a9,9,0,0,0,.09,1.6l8.08,43.23h.18L37.64,115l-2.75-14.35c-.69-3.55-1.49-4.88-4.35-4.88h-.45V93.11h19v2.66h-.35c-3.55,0-4.26,1.19-4.26,3.63a12.65,12.65,0,0,0,.26,2.22l8.09,41.29H53l7.64-41.38a9.29,9.29,0,0,0,.17-1.68c0-2.84-.94-4.08-4.71-4.08h-.53V93.11H71.67Z" transform="translate(-8.59 -10.9)"></path><path class="cls-1" d="M84.29,143.53,79,112.16h-.18l-5.33,31.37ZM101.8,164H81.63v-2.66h.53c3.68,0,4.8-1,4.8-3a13.6,13.6,0,0,0-.27-2.13L85,146.8H72.92l-1.69,9.4a12.87,12.87,0,0,0-.27,2.13c0,2.19.87,3,4.54,3h.35V164H60.66v-2.66h.8c3.1,0,4.89-.72,5.68-4.88L79.49,92.41H84l12.7,63.79c.76,3.85,2.76,5.14,4.45,5.14h.62Z" transform="translate(-8.59 -10.9)"></path><path class="cls-1" d="M424.33,117.66h-2.39v-.27c0-11.43-4.34-21.18-9.42-21.18h-2.14v61.05c0,2.94,1.51,4.08,3.92,4.08h2.21V164H394.66v-2.66h2c2.4,0,3.91-1.15,3.91-4.08v-61h-1.87c-5.08,0-9.41,9.13-9.41,21.18v.27h-2.4V93.11h37.4Z" transform="translate(-8.59 -10.9)"></path><path class="cls-1" d="M383.82,164H347.56v-2.66h1.87c2.4,0,3.82-1.15,3.82-4.08V99.85c0-2.93-1.42-4.08-3.82-4.08h-1.95V93.11h36.34v24.37h-2.4v-.27c0-14.44-4.4-21-12.44-21h-6v29.42h1.52c4.53,0,6.66-4.34,6.66-13.47v-.26h2.4v30.65h-2.4v-.17c0-8.95-2-13.56-6.66-13.56H363V160.9h5.61c7.94,0,12.79-7.71,12.79-20.92v-.26h2.4Z" transform="translate(-8.59 -10.9)"></path><path class="cls-1" d="M345.08,164H308.83v-2.66h1.86c2.4,0,3.82-1.15,3.82-4.08V99.85c0-2.93-1.42-4.08-3.82-4.08h-1.95V93.11h36.34v24.37h-2.4v-.27c0-14.44-4.4-21-12.44-21h-6v29.42h1.52c4.52,0,6.66-4.34,6.66-13.47v-.26h2.4v30.65h-2.4v-.17c0-8.95-2-13.56-6.66-13.56h-1.52V160.9h5.6c7.95,0,12.8-7.71,12.8-20.92v-.26h2.4Z" transform="translate(-8.59 -10.9)"></path><path class="cls-1" d="M263.24,117.66h-2.4v-.27c0-11.43-4.33-21.18-9.41-21.18h-2.14v61.05c0,2.94,1.51,4.08,3.91,4.08h2.22V164H233.57v-2.66h2c2.4,0,3.91-1.15,3.91-4.08v-61h-1.87c-5.08,0-9.42,9.13-9.42,21.18v.27h-2.39V93.11h37.4Z" transform="translate(-8.59 -10.9)"></path><path class="cls-1" d="M225.75,146.8c0,12.55-7.62,17.72-16.53,17.72-6.47,0-9.42-2.12-12.53-4.24L195,164h-1.86V139.63h2.4v.71c0,17.1,8.63,21,13,21,6.59,0,9.51-3.78,9.51-11.25,0-8.16-5.14-14.09-12.53-19.67-6.7-5.07-12.88-11.26-12.88-21.62,0-10.67,6.59-16.22,14.48-16.22,6.56,0,9.62,2.66,11.37,4.16l1.78-3.45H222v24.45h-2.41V117c0-13.3-4-21.27-11.9-21.27-5,0-7.64,3.52-7.64,9.13,0,6.66,3.94,10.45,11.28,16.13C219.48,127.31,225.75,133.93,225.75,146.8Z" transform="translate(-8.59 -10.9)"></path><path class="cls-1" d="M293.9,110.48c0-11.08-4.39-14.27-10.4-14.27h-2.31v29.87h2.67C290.13,126.08,293.9,121.83,293.9,110.48Zm14.31,43.85c0,5.95-2.27,10.19-8.09,10.19s-8.3-4.31-8.71-13.11l-.62-13.2c-.33-7-3-8.86-7-8.86h-2.58v27.91c0,2.93,1.15,4.08,3.55,4.08h2.49V164H265.55v-2.66h2.05c2.4,0,3.91-1.15,3.91-4.08V99.85c0-2.93-1.51-4.08-3.91-4.08h-2.05V93.11H285c11.76,0,19.11,6,19.11,17.19,0,11.7-8.17,16.13-15.38,17.55V128c5.92.61,11.3,5,11.65,11.69l.79,15.5c.16,3.08.54,4,2,4,1.77,0,2.13-1.34,2.13-5.95V150.7h2.94Z" transform="translate(-8.59 -10.9)"></path></g><g><path class="cls-1" d="M344.27,250.67H308.46l1.42-2.66H311c2.4,0,3.91-1.07,3.91-4V186.43c0-2.92-1.51-4-3.91-4H309v-2.66h21.14v2.66h-1.68c-2.4,0-3.91,1.07-3.91,4v61.14h5.24c9.58,0,12.08-10.81,12.08-21v-.27h2.4Z" transform="translate(-8.59 -10.9)"></path><path class="cls-1" d="M356.63,246.32c0,2.67-2,4.87-4.1,4.87s-4.08-2.2-4.08-4.87,2-4.78,4.08-4.78S356.63,243.66,356.63,246.32Z" transform="translate(-8.59 -10.9)"></path><path class="cls-1" d="M272.66,182.44h-1.87c-2.22,0-4,1.68-4,5.14v63.35h-3.47l-22.22-55.82h-.17v47.76c0,3.46,1.77,5.14,4,5.14h1.77v2.66h-15V248h2.05c2.22,0,4-1.68,4-5.14v-56c0-2.48-1-4.43-3.47-4.43h-2.58v-2.66h13.69l18,45.64h.17V187.58c0-3.49-1.77-5.14-4-5.14h-1.86v-2.66h14.93Z" transform="translate(-8.59 -10.9)"></path><path class="cls-1" d="M191,182.44h-3.73c-2.22,0-3.55,1.86-3.55,5.14v47.23c0,9.41-3.15,16.38-13.33,16.38-10.83,0-17.15-6.62-17.15-16.38V186.52c0-2.93-1.42-4.08-3.82-4.08h-1.95v-2.66h20.79v2.66h-1.34c-2.41,0-3.82,1.15-3.82,4.08v48.91c0,8,3.16,12.58,8.53,12.58s8.8-3.88,8.8-12.58V187.58c0-3.28-1.25-5.14-3.47-5.14h-2v-2.66H191Z" transform="translate(-8.59 -10.9)"></path><path class="cls-1" d="M110.68,182.44H108.9c-2.41,0-3.91,1.15-3.91,4.08V236c0,11.1-7,15.23-15.91,15.23-6.38,0-12.79-5.2-12.79-15.23,0-5.39,3.37-7.71,6-7.71s4.8,2,4.8,5.32c0,4.27-2.51,6.07-5.77,6.56A7.8,7.8,0,0,0,89,248c4.63,0,6.21-2.55,6.21-10.19v-51.3c0-2.93-1.41-4.08-3.81-4.08H89.53v-2.66h21.15Z" transform="translate(-8.59 -10.9)"></path><path class="cls-1" d="M292.65,230.2l-5.33-31.36h-.18l-5.33,31.36Zm17.5,20.47H290V248h.54c3.68,0,4.79-1,4.79-3a13.46,13.46,0,0,0-.26-2.13l-1.69-9.39H281.27l-1.68,9.39a11.88,11.88,0,0,0-.27,2.13c0,2.19.86,3,4.53,3h.36v2.66H269V248h.8c3.11,0,4.89-.72,5.69-4.87l12.35-64.06h4.53l12.71,63.79c.77,3.85,2.75,5.14,4.44,5.14h.62Z" transform="translate(-8.59 -10.9)"></path><path class="cls-1" d="M217.21,197.15c0-11.08-4.38-14.26-10.4-14.26H204.5v29.86h2.67C213.45,212.75,217.21,208.5,217.21,197.15ZM231.52,241c0,5.94-2.27,10.18-8.09,10.18s-8.29-4.31-8.7-13.11l-.63-13.2c-.33-7-3-8.85-7-8.85H204.5v27.9c0,2.93,1.16,4.08,3.56,4.08h2.49v2.66H188.87V248h2c2.39,0,3.9-1.15,3.9-4.08V186.52c0-2.93-1.51-4.08-3.9-4.08h-2v-2.66h19.45c11.76,0,19.11,6,19.11,17.19,0,11.7-8.16,16.13-15.37,17.55v.18c5.92.61,11.29,5,11.64,11.69l.8,15.51c.16,3.09.54,4,1.95,4,1.78,0,2.13-1.34,2.13-5.94v-2.57h2.94Z" transform="translate(-8.59 -10.9)"></path><path class="cls-1" d="M136.62,231.88V198.39c0-12.25-2.73-15.95-7.73-15.95s-7.55,3.52-7.55,16.13v33.22c0,11.82,2.28,16.22,7.55,16.22S136.62,243.34,136.62,231.88Zm11-16.83c0,20.14-6.62,36.14-18.75,36.14-11.85,0-18.48-16-18.48-36.14s6.36-35.8,18.48-35.8S147.64,194.9,147.64,215.05Z" transform="translate(-8.59 -10.9)"></path></g></svg> 