<?xml version="1.0" encoding="UTF-8"?> <svg xmlns="http://www.w3.org/2000/svg" id="Layer_1" data-name="Layer 1" viewBox="0 0 415.22 103.22"><defs><style> .cls-1 { fill: #e0474b; } .cls-2 { fill: #3a3d3e; } </style></defs><title>crains-new-york</title><path class="cls-1" d="M109.39,93.44a6.3,6.3,0,0,0-1.5,2.6c-1.16,3.15-2.91,7.43-4.36,11.36l-1.08,2.51h-.58c-1.7-4.41-3.12-7.55-4.44-10.9-1,2.76-1.91,5.65-2.91,8.33l-1,2.57h-.71c-2.11-5.22-3.77-9.33-5.43-13.34a27.2,27.2,0,0,0-1.12-2.49,2.27,2.27,0,0,0-2.08-1.31v-.46h8v.44c-.33,0-1.49.14-1.49,1.2,0,.67,2.78,7.22,4.23,10.62.5-1.41,1.25-3.82,2.16-6.47-.58-1.35-1.16-2.89-1.66-3.84a2.23,2.23,0,0,0-2.16-1.49v-.46h8.43v.44c-.37,0-1.91.23-1.91,1.2,0,.79,3.07,7.83,4.19,10.64.67-1.77,2-5.41,3-8.21a6.49,6.49,0,0,0,.5-2.33c0-.92-1.2-1.21-2-1.3v-.44h5.48v.44a2.94,2.94,0,0,0-1.53.69" transform="translate(-9.23 -6.86)"></path><path class="cls-1" d="M141.32,95.78c-.79,1.19-2.91,4.46-3.66,5.61v4.77a5.47,5.47,0,0,0,.25,2.25,3,3,0,0,0,2.12,1v.44h-9v-.44a2.84,2.84,0,0,0,2.16-1c.33-.33.33-1.57.33-2.59s.08-2.07.08-3.79c-.16-.27-2.9-4.73-3.82-6.14-1.16-1.84-1.91-3.05-3.23-3.12v-.44h8.8v.44c-1,.09-2.08.18-2.08,1A7.78,7.78,0,0,0,134.38,96c.67,1.14,1.91,3.13,3,4.84.79-1.19,2.45-3.8,3-4.79a5.08,5.08,0,0,0,.87-2c0-1-1-1.06-1.87-1.2v-.44h5.49v.44c-1.75.26-2.41,1.28-3.57,3" transform="translate(-9.23 -6.86)"></path><path class="cls-1" d="M157.72,110a9,9,0,0,1-9.1-9c0-5.45,4.32-8.94,9.39-8.94a8.66,8.66,0,0,1,8.88,8.85A9.12,9.12,0,0,1,157.72,110Zm0-17.29c-3.66,0-4.78,4.34-4.78,8.42,0,4.29,1.29,8.26,4.86,8.26s4.77-4.44,4.77-8.41-1.28-8.27-4.85-8.27" transform="translate(-9.23 -6.86)"></path><path class="cls-1" d="M209.29,109.8a2.07,2.07,0,0,1-.42-.58c-1.91-2.35-3.4-4.27-5.19-6.53-.83-1-1-1-1.16-1v4.59a4.89,4.89,0,0,0,.41,2.19,3.77,3.77,0,0,0,2.37.92v.44h-9.22v-.44a3.61,3.61,0,0,0,2-.81,6.28,6.28,0,0,0,.37-2.65V96.35c0-1.16,0-2.32-.37-2.75a3,3,0,0,0-2-.85v-.44h9v.44c-1.2.14-2.49.22-2.53,2.85-.08,1.44-.08,2.12-.08,5.66,1.12-.66,3.74-3.63,5.11-5.29a3.33,3.33,0,0,0,1-1.88c0-.92-.66-1.23-1.49-1.34v-.44h6.43v.44c-1.62.14-3.36,1.61-4.86,3.11-1,1-2.07,2.27-3,3.31.92,1.26,4.32,5.27,6.56,8A9.83,9.83,0,0,0,214.1,109a3.27,3.27,0,0,0,1.5.35v.44h-6.31" transform="translate(-9.23 -6.86)"></path><path class="cls-1" d="M245.28,109.17a13.27,13.27,0,0,1-4.31.63h-9.43v-.44a3.6,3.6,0,0,0,2.08-.9,5.53,5.53,0,0,0,.45-2.56c0-.88.05-3.18.05-4.91,0-1.9,0-2.74-.05-4.64,0-1.11-.08-2.49-.45-2.89a2.62,2.62,0,0,0-1.83-.71v-.44h9.3a9.81,9.81,0,0,1,3.41.5,4.13,4.13,0,0,1,2.86,3.92c0,2.07-1.57,3.4-3.78,3.82v.1c2.37.27,4.74,1.73,4.74,4.27A4.53,4.53,0,0,1,245.28,109.17Zm-3.44-15.83a4.74,4.74,0,0,0-2.24-.48,3.87,3.87,0,0,0-1.29.17,8.35,8.35,0,0,0-.12,1.64c-.09,2.21,0,5.72,0,6,.87,0,1.49,0,1.86,0,2.41-.17,3.2-1.76,3.2-3.92C243.21,95.16,242.92,93.86,241.84,93.34Zm.21,8.17a5.29,5.29,0,0,0-1.91-.28h-2v5a5,5,0,0,0,.41,2.44c.21.36.66.62,1.58.62a5,5,0,0,0,2.61-.59c1.16-.69,1.37-1.87,1.37-3.46,0-1.81-.62-3.13-2.07-3.68" transform="translate(-9.23 -6.86)"></path><path class="cls-1" d="M271.57,94.22a16,16,0,0,0-.33,3.59c0,1.34-.09,2.89-.13,5,0,1.78-.12,7.27-7.14,7.27s-7.6-5.4-7.6-6.59V96.35a6.32,6.32,0,0,0-.33-2.77,3.07,3.07,0,0,0-2-.83v-.44h8.72v.44c-.88.11-2.2.42-2.25,1.9s0,2.37,0,4.08c0,1.09,0,3.25,0,4.41.08,3.38,1.67,5.68,4.82,5.68,5.19,0,5.19-4.09,5.23-7.34,0-1.71,0-2.33,0-3.67a13,13,0,0,0-.25-3.4c-.29-.88-.95-1.44-2.45-1.66v-.44h6.06v.44a2.55,2.55,0,0,0-2.28,1.47" transform="translate(-9.23 -6.86)"></path><path class="cls-1" d="M331.32,94.22a13.84,13.84,0,0,0-.33,3.37c0,1.35-.13,3.27-.13,5.39,0,1.8,0,4.63,0,6.48,0,.29-.12.52-.45.52a.84.84,0,0,1-.59-.31c-5.27-6.19-8.17-9.64-12.37-14.55l.05,9.32a10,10,0,0,0,.37,3.63c.33.71,1,1.12,2.28,1.29v.44h-6v-.44a2.86,2.86,0,0,0,2.12-1,8.82,8.82,0,0,0,.58-3.79c0-1.36.08-3.28.08-5.39,0-1.8.05-2.23,0-4.06a2.64,2.64,0,0,0-2.57-2.32v-.44h6.23l9.71,11.35V97.59a11.83,11.83,0,0,0-.24-3.18c-.3-.88-1-1.44-2.5-1.66v-.44h6.1v.44a2.61,2.61,0,0,0-2.32,1.47" transform="translate(-9.23 -6.86)"></path><path class="cls-1" d="M355.24,109.8H339.42v-.44a3.45,3.45,0,0,0,2-.9,5.64,5.64,0,0,0,.46-2.56c0-.88,0-3,0-4.91V96.35c0-1.14,0-2.51-.42-2.91a2.72,2.72,0,0,0-1.91-.69v-.44H354l1.37,4.35-.41.12a13.07,13.07,0,0,0-3.7-3.46,7.92,7.92,0,0,0-3.53-.48,8.3,8.3,0,0,0-1.66.13c-.08.49-.12,2.22-.12,4.31v3.2a12.43,12.43,0,0,0,2.36-.19c2-.45,2.62-1.64,3-3.41h.45V105h-.45a8.17,8.17,0,0,0-1.63-3.12,3.43,3.43,0,0,0-2.16-.8c-.95,0-.53,0-1.53,0,0,.42,0,1.37,0,2.3v2.82a5.92,5.92,0,0,0,.37,2.44c.29.44,1.5.62,2.66.62a12.61,12.61,0,0,0,1.7-.14c2-.26,3.49-1.65,5.07-4.35l.41.08-.95,5" transform="translate(-9.23 -6.86)"></path><path class="cls-1" d="M186,109.8a15.11,15.11,0,0,1-1.37-2c-1.2-1.76-1.37-2.18-3.07-4.42a4.36,4.36,0,0,0-2.24-1.65,2,2,0,0,0-.46,0c0,2,0,3.42,0,4.47a4.37,4.37,0,0,0,.3,2.2,2.64,2.64,0,0,0,2.23,1v.44h-9v-.44a3.24,3.24,0,0,0,2-.85,6.1,6.1,0,0,0,.37-2.61c0-.88,0-3.18,0-4.91V96.37c0-1.12,0-2.47-.41-2.87a2.8,2.8,0,0,0-1.87-.74v-.45H181c2.12,0,3.53,0,4.86.75a4.55,4.55,0,0,1,2.53,4c0,2.15-1.66,3.87-4.11,4.44l-.54.09a5.11,5.11,0,0,1,2.37,1.72c1,1.42,1.82,2.55,2.57,3.61,1.16,1.66,1.62,2.21,3.12,2.42v.44Zm-4-16.43a4.94,4.94,0,0,0-2.41-.51c-.67,0-.33.06-.54.07a6.92,6.92,0,0,0-.17,1.83c-.08,2.21,0,5.86,0,6.37a7.2,7.2,0,0,0,2.53-.3,4,4,0,0,0,.63-7.46" transform="translate(-9.23 -6.86)"></path><path class="cls-1" d="M299.39,109.8v-.44a3.25,3.25,0,0,0,2-.92,6.6,6.6,0,0,0,.34-2.54c0-.88,0-3.18,0-4.91V96.35c0-1.11,0-2.35-.38-2.77a2.76,2.76,0,0,0-1.91-.83v-.44H308v.44a2.28,2.28,0,0,0-1.9,1,5.87,5.87,0,0,0-.3,2.19v10.31a6.15,6.15,0,0,0,.21,2.22,3.13,3.13,0,0,0,2,.88v.44h-8.64" transform="translate(-9.23 -6.86)"></path><path class="cls-1" d="M370.06,110a9.82,9.82,0,0,1-4.61-1.45c-.16-.1-.29-.07-.41.12s-.34.75-.5,1.11h-.42v-6.16h.42a9.28,9.28,0,0,0,2.36,4.43,4.89,4.89,0,0,0,3.16,1.37c2.41,0,3.69-1.47,3.69-3.43,0-1.56-1.24-2.13-2.74-2.77s-1.82-.77-3.23-1.38c-1.63-.7-3.53-1.88-3.53-4.65,0-3.4,2.9-5.15,6.18-5.15a7.24,7.24,0,0,1,4,1.27.21.21,0,0,0,.33-.09,7.31,7.31,0,0,0,.46-.93h.46v5.41h-.46c-.42-3.27-2.33-5.09-4.82-5.09a2.87,2.87,0,0,0-3.15,3c0,1.49.87,2,2.4,2.66,1.29.55,2.17.82,3.37,1.32,2.08.87,4,2,4,5.08,0,3.27-3.36,5.33-7,5.33" transform="translate(-9.23 -6.86)"></path><path class="cls-1" d="M389.82,110a9.61,9.61,0,0,1-4.6-1.45.27.27,0,0,0-.42.12c-.12.2-.33.75-.54,1.11h-.41v-6.16h.45a9.61,9.61,0,0,0,2.33,4.43,5,5,0,0,0,3.15,1.37c2.45,0,3.74-1.47,3.74-3.43,0-1.56-1.24-2.13-2.74-2.77s-1.87-.77-3.24-1.38c-1.62-.7-3.53-1.88-3.53-4.65,0-3.4,2.91-5.15,6.15-5.15a6.91,6.91,0,0,1,4,1.27c.13.08.25.08.38-.09a6.14,6.14,0,0,0,.45-.93h.42v5.41H395c-.41-3.27-2.37-5.09-4.81-5.09a2.87,2.87,0,0,0-3.16,3c0,1.49.83,2,2.41,2.66,1.24.55,2.12.82,3.32,1.32,2.12.87,4,2,4,5.08,0,3.27-3.32,5.33-6.94,5.33" transform="translate(-9.23 -6.86)"></path><path class="cls-1" d="M285.81,110a9.82,9.82,0,0,1-4.61-1.45c-.16-.1-.29-.07-.41.12s-.34.75-.5,1.11h-.42v-6.16h.42a9.28,9.28,0,0,0,2.36,4.43,4.89,4.89,0,0,0,3.16,1.37c2.41,0,3.69-1.47,3.69-3.43,0-1.56-1.24-2.13-2.74-2.77s-1.82-.77-3.23-1.38c-1.62-.7-3.53-1.88-3.53-4.65,0-3.4,2.91-5.15,6.18-5.15a7.24,7.24,0,0,1,4,1.27.21.21,0,0,0,.33-.09,7.31,7.31,0,0,0,.46-.93h.46v5.41H291c-.41-3.27-2.33-5.09-4.82-5.09a2.87,2.87,0,0,0-3.15,3c0,1.49.87,2,2.41,2.66,1.28.55,2.11.82,3.36,1.32,2.08.87,4,2,4,5.08,0,3.27-3.36,5.33-7,5.33" transform="translate(-9.23 -6.86)"></path><path class="cls-1" d="M78.78,109.8H63v-.44a3.48,3.48,0,0,0,2-.9,5.66,5.66,0,0,0,.45-2.56c0-.88,0-3,0-4.91V96.35c0-1.14,0-2.51-.41-2.91a2.74,2.74,0,0,0-1.91-.69v-.44H77.58L79,96.66l-.42.12a12.92,12.92,0,0,0-3.69-3.46,8,8,0,0,0-3.53-.48,8.23,8.23,0,0,0-1.66.13c-.08.49-.13,2.22-.13,4.31v3.2a12.52,12.52,0,0,0,2.37-.19c2-.45,2.62-1.64,3-3.41h.46V105h-.46a8.16,8.16,0,0,0-1.62-3.12,3.43,3.43,0,0,0-2.16-.8c-.95,0-.54,0-1.53,0,0,.42,0,1.37,0,2.3v2.82a5.89,5.89,0,0,0,.38,2.44c.29.44,1.49.62,2.65.62a12.38,12.38,0,0,0,1.71-.14c1.95-.26,3.49-1.65,5.06-4.35l.42.08-1,5" transform="translate(-9.23 -6.86)"></path><path class="cls-1" d="M54.08,94.22a16.81,16.81,0,0,0-.34,3.37c0,1.35-.08,3.27-.08,5.39v6.48c0,.29-.12.52-.45.52a.68.68,0,0,1-.55-.31c-5.31-6.19-8.22-9.64-12.41-14.55l0,9.32a10.9,10.9,0,0,0,.38,3.63A2.6,2.6,0,0,0,43,109.36v.44h-6v-.44a2.82,2.82,0,0,0,2.11-1,8.63,8.63,0,0,0,.59-3.79c0-1.36.08-3.28.08-5.39,0-1.8,0-2.23,0-4.06a2.64,2.64,0,0,0-2.58-2.32v-.44h6.23l9.76,11.35,0-6.07a11.37,11.37,0,0,0-.25-3.18c-.29-.88-1-1.44-2.45-1.66v-.44H56.4v.44a2.6,2.6,0,0,0-2.32,1.47" transform="translate(-9.23 -6.86)"></path><path class="cls-2" d="M75.88,31.4C72.3,18.69,63.5,8.55,50.17,8.55c-18.26,0-22,18-22,35.87,0,19.18,4.61,34.29,22.21,34.29,14.74,0,23-12.31,25.5-23.73H77V79.9H75.88c-.67-1.34-1.46-2.82-2-3.69-.83-1.58-1.45-1.91-3.44-1a44.14,44.14,0,0,1-21.1,5.27C24.64,80.5,9.23,65.29,9.23,43.93a38,38,0,0,1,5.86-20.08c5.69-9,16.31-17,33.71-17,14.16,0,19.93,4.66,21.84,5.88,1.54,1,2.54.8,3.37-.72S75.5,9.25,76,8.34h1.12V31.39h-1.2" transform="translate(-9.23 -6.86)"></path><path class="cls-2" d="M200.23,79.9l.05-1c.87-.11,6.93-.8,6.89-4.58,0-2.28-4.07-11.42-8.14-21.86H176.36c-1.45,4.11-3.45,10.52-4.82,14.35s-2,6.16-2,7.45c0,3.55,4,4.23,7.47,4.64l0,1H154.23l4.94-1.3c4,0,5.23-2.48,7.1-6.27.79-1.58,4.49-10.65,6.39-15.8,4.78-12.85,7.06-19.59,13.12-37.3l-1.16-2.45A32.14,32.14,0,0,0,198.91,7h.79C209,29.9,215.18,45.53,221.91,62.8c1.91,4.64,3.2,7.46,4.23,9.75s2.87,6,7.52,6c1.58,0,1.87.07,3.15.11V79.9ZM186.91,21.69c-1.62,4.55-6.4,19.11-9.93,28.9h21.34c-4.56-11.83-9-22.93-11.41-28.9" transform="translate(-9.23 -6.86)"></path><path class="cls-2" d="M231.33,79.9v-1c1.7-.26-2.57-.31,2.5-.31a6.32,6.32,0,0,0,5.6-3.54c1.25-2,1.46-6.39,1.54-10.67.12-3.67.21-13.31.21-20.57V24.45c0-4.67,0-9.84-1.5-11.63-1.87-2.18-4.57-3.08-8.06-3.47v-1h35.8v1c-2.78.39-6.48,1.09-8.14,4.27-1.21,2.28-1,6.16-1.12,9.13-.09,6.76-.09,12.52-.09,20.68V65.89c0,3.77.21,7.38,1.37,9.21,1.95,2.87,5.69,3.61,8.06,3.81v1H231.33" transform="translate(-9.23 -6.86)"></path><path class="cls-2" d="M340.7,15.51c-.91,2-1.11,8-1.28,14.11-.21,5.65-.5,13.71-.5,22.55,0,7.56.08,19,.08,26.78a1.33,1.33,0,0,1-1.45,1.46c-.5,0-1.08-.17-1.87-1.2C313,53.26,302.92,37.51,284.94,17.35V58.63c0,6.66.21,12.63,1.5,15.21,1.49,3,4.48,4.36,9.83,5.07v1H271.82v-1c3.19-.41,6.77-1.5,8.55-4.38s2.2-8.34,2.37-15.9c.21-5.66.41-13.71.41-22.55,0-7.56.09-9.36-.08-17-.78-7.75-6.35-9.14-10.55-9.73v-1h28.57l36.12,45V29.62c0-5.28,0-10.54-1-13.32-1.29-3.68-4.48-6.07-10.84-7v-1h24.67v1c-4.9.69-7.77,2.38-9.35,6.16" transform="translate(-9.23 -6.86)"></path><path class="cls-2" d="M353.24,36.81V35.44c7.81-.93,10.51-7.09,10.51-12A6.52,6.52,0,0,0,362,18.78c-.88,1.66-1.63,3.94-5.65,3.94a6.87,6.87,0,0,1-7-7c0-5.68,4-8.43,9.59-8.43,5.77,0,10.46,5.85,10.46,13.09,0,10.11-7.35,15.68-16.11,16.46" transform="translate(-9.23 -6.86)"></path><path class="cls-2" d="M394.93,80.8a38.74,38.74,0,0,1-19.6-5.2,1.2,1.2,0,0,0-1.82.49c-.5.82-1.29,2.28-2.16,3.81h-.88V55h1c2.24,7.57,5.15,14.17,9.8,18.52a21.11,21.11,0,0,0,13.58,5.73c9.76,0,15.94-6.36,15.94-14.35,0-6.52-5.19-8.94-11.46-11.58s-7.76-3.24-13.62-5.76C379,44.56,371,39.63,371,28c0-14.22,13.25-20.77,25.83-20.77a35,35,0,0,1,16.69,4.51,1,1,0,0,0,1.54-.34,21.89,21.89,0,0,0,1.87-3.09H418V30.19H416.9c-1.79-13.72-9.84-21.34-20.18-21.34-8.35,0-13.16,5.13-13.16,12.54,0,6.28,3.49,8.38,10,11.14,5.28,2.3,8.93,3.45,14,5.54,8.8,3.64,16.85,8.6,16.85,21.26,0,13.68-14.4,21.47-29.52,21.47" transform="translate(-9.23 -6.86)"></path><path class="cls-2" d="M137.62,79.9a57.28,57.28,0,0,1-5.15-7.35c-3-4.82-9.42-16-13.41-20.86a14.66,14.66,0,0,0-8.64-5.3,5.62,5.62,0,0,0-1.62-.18c0,8.54,0,14.91.09,19.28s0,7.25,1.33,9.23c1.08,1.7,4.06,4,9.42,4.19v1H81.77v-1c3.28-.5,6.69-1.5,8.35-3.59,1.41-1.68,1.49-6.65,1.62-10.93.08-3.67.16-13.31.16-20.57V24.45c0-4.67-.08-10.34-1.66-12-2-2.09-4.28-2.58-7.85-3.07v-1c2.08,0,28.41-.09,35.55-.09,8.84,0,14.61.22,20.3,3.14s10.92,8.09,10.92,16c0,9-7.3,16.22-17.6,18.63l-2,.39c3.08.93,8.14,4.57,11.22,9.26,3.94,6.08,9.25,14.05,9.25,14.05,3.87,5.55,5.61,8.84,9.14,8.84,1.25,0,4.86.31,5.69.31l-4.65,1ZM122.09,11.82a21.25,21.25,0,0,0-10.21-2.08c-2.79,0-1.37.19-2.29.3-.29,1.58-.37,1.69-.58,7.64-.29,9.25-.21,25.15-.21,27.24,5.36,0,6.23-.4,10.59-1.79,8.56-2.68,12-9.15,12-16.3,0-6.55-3.15-11.75-9.34-15" transform="translate(-9.23 -6.86)"></path></svg> 