<?xml version="1.0" encoding="utf-8"?>
<!-- Generator: Adobe Illustrator 22.1.0, SVG Export Plug-In . SVG Version: 6.00 Build 0)  -->
<svg version="1.1" id="Layer_1" xmlns="http://www.w3.org/2000/svg" xmlns:xlink="http://www.w3.org/1999/xlink" x="0px" y="0px"
	 viewBox="0 0 432 120" style="enable-background:new 0 0 432 120;" xml:space="preserve">
<style type="text/css">
	.st0{fill-rule:evenodd;clip-rule:evenodd;fill:#154C77;}
</style>
<g>
	<path class="st0" d="M262.47,36.54c-6.94,0-12.39,1.49-17.84,4.46c0-15.86,0-30.24,0.49-35.19l-33.21,5.95v2.98l3.47,0.49
		c4.46,0.99,5.95,3.47,6.94,9.42c0.99,11.9,0.5,75.34,0,85.75c8.92,1.98,18.34,3.47,27.76,3.47c26.27,0,42.13-16.36,42.13-42.13
		C292.21,51.41,279.32,36.54,262.47,36.54L262.47,36.54z M251.07,108.41c-1.98,0-4.46,0-5.95-0.49c-0.49-6.94-0.99-36.18-0.49-61.96
		c2.97-0.99,4.95-1.49,7.43-1.49c10.9,0,16.85,12.89,16.85,28.75C268.91,93.04,261.48,108.41,251.07,108.41L251.07,108.41z"/>
	<path class="st0" d="M86.99,7.79H-0.24v4.46l4.96,0.5c6.44,0.99,8.92,4.96,9.91,14.37c1.49,17.84,0.99,50.06,0,65.43
		c-0.99,9.42-3.47,13.88-9.91,14.37l-4.96,0.99v3.97h56.01v-3.97l-5.95-0.99c-6.44-0.49-8.92-4.96-9.91-14.37
		c-0.5-6.45-0.99-16.86-0.99-29.74l11.9,0.5c7.44,0,10.9,5.95,12.39,14.38h4.46V42.48H63.2c-1.49,8.43-4.96,14.37-12.39,14.37
		l-11.9,0.5c0-16.85,0.49-32.71,0.99-42.13h17.35c13.39,0,20.33,8.43,25.28,23.3l4.96-1.49L86.99,7.79L86.99,7.79z"/>
	<path class="st0" d="M115.25,35.54c24.79,0,37.18,16.85,37.18,39.16c0,21.31-13.88,39.16-38.66,39.16
		c-24.78,0-37.18-16.85-37.18-39.16C76.59,53.39,90.47,35.54,115.25,35.54L115.25,35.54z M113.76,40.5
		c-10.9,0-13.88,14.87-13.88,34.2c0,18.83,4.96,34.2,14.87,34.2c11.4,0,14.37-14.87,14.37-34.2
		C129.13,55.87,124.17,40.5,113.76,40.5L113.76,40.5z"/>
	<path class="st0" d="M298.65,75.2c0-20.32,12.89-39.65,38.17-39.65c20.82,0,30.73,15.37,30.73,35.69h-46.1
		c-0.49,18.34,8.43,31.72,26.27,31.72c7.93,0,11.9-1.98,16.85-5.45l1.98,2.48c-4.96,6.94-15.86,13.88-29.74,13.88
		C314.51,113.86,298.65,98,298.65,75.2L298.65,75.2z M321.45,65.78l23.3-0.5c0-9.91-1.48-24.78-9.91-24.78
		C326.41,40.5,321.95,54.38,321.45,65.78L321.45,65.78z"/>
	<path class="st0" d="M426.54,39.51c-5.95-2.48-13.88-3.97-22.8-3.97c-18.34,0-29.74,10.9-29.74,23.79
		c0,12.89,8.42,18.34,20.32,22.31c12.39,4.46,15.86,7.93,15.86,13.88c0,5.95-4.46,11.4-12.39,11.4c-9.42,0-16.36-5.45-21.81-20.32
		l-3.47,0.99l0.5,21.81c5.95,2.48,16.85,4.46,26.27,4.46c19.33,0,31.72-9.91,31.72-25.28c0-10.41-5.45-16.36-18.34-21.32
		c-13.88-5.45-18.83-8.92-18.83-15.37c0-6.44,4.46-10.91,10.41-10.91c8.92,0,14.87,5.45,19.33,18.84l3.47-0.99L426.54,39.51
		L426.54,39.51z"/>
	<path class="st0" d="M216.86,37.53c-8.43-4.96-23.3-2.48-31.23,15.37l0.5-17.35l-33.21,6.44v2.97l3.47,0.5
		c4.46,0.5,6.44,2.97,6.94,9.42c0.99,11.9,0.5,32.71,0,43.12c-0.5,5.95-2.48,8.92-6.94,9.42l-3.47,0.49v3.97h46.1v-3.97l-5.95-0.49
		c-4.96-0.5-6.44-3.47-6.94-9.42c-0.99-9.42-0.99-28.25-0.5-40.15c2.48-3.47,13.38-6.44,23.3,0L216.86,37.53L216.86,37.53z"/>
</g>
</svg>
