<?xml version="1.0" encoding="UTF-8"?> <svg xmlns="http://www.w3.org/2000/svg" id="Layer_1" width="100" height="35.8" viewBox="0 0 100 35.8"><defs><style>.cls-1{fill:#fff;}</style></defs><path class="cls-1" d="m0,27.79s2.06,0,3.09,0c.82.01,1.62.15,2.36.53,1.09.56,1.74,1.45,1.93,2.65.16.98.02,1.92-.5,2.79-.42.69-1.03,1.17-1.76,1.48-.53.22-1.09.36-1.66.37-.92.02-2.77.03-2.77.03h-.69s0-7.86,0-7.86Zm2.2,5.89s.61,0,.9,0c.19,0,.39-.02.57-.06.67-.14,1.16-.5,1.4-1.16.15-.42.16-.85.05-1.29-.07-.31-.21-.58-.42-.81-.36-.38-.81-.56-1.32-.59-.36-.02-1.18-.01-1.18-.01v3.92Z"></path><polygon class="cls-1" points="100 35.65 97.84 35.65 97.81 32.73 95.07 32.71 95.07 35.61 92.88 35.61 92.87 27.83 95.04 27.81 95.06 30.7 97.81 30.7 97.81 27.8 100 27.79 100 35.65"></polygon><path class="cls-1" d="m45.36,21.37v4.25h-2.14v-7.82h2.03s2.1,2.69,3.15,4.04c.01,0,.03,0,.04-.01v-4.02h2.15v7.83h-1.91s-2.2-2.82-3.33-4.27Z"></path><polygon class="cls-1" points="59.83 35.64 57.65 35.64 57.65 32.72 54.91 32.72 54.9 35.64 52.71 35.64 52.71 27.82 54.9 27.82 54.9 30.69 57.64 30.69 57.64 27.82 59.83 27.82 59.83 35.64"></polygon><path class="cls-1" d="m18.17,33.58v-.92h-1.49l-.03-1.58,3.57-.03.02,3.55s-1.14.76-1.82.97c-.64.2-1.31.26-1.97.21-1.26-.1-2.32-.6-3.09-1.62-.5-.66-.74-1.41-.77-2.24-.02-.56.04-1.1.24-1.62.44-1.17,1.25-1.99,2.43-2.38,1.55-.51,3.03-.35,4.4.61.12.08.35.27.35.27l-1.29,1.55s-.14-.1-.21-.15c-.32-.24-.67-.43-1.07-.52-.71-.16-1.37-.06-1.92.46-.31.28-.5.64-.6,1.05-.13.56-.09,1.11.17,1.63.31.62.83.98,1.51,1.08.52.07,1.03.03,1.5-.24.02-.01.08-.05.08-.05Z"></path><polygon class="cls-1" points="63.72 17.81 63.73 20.7 66.46 20.7 66.47 17.81 68.66 17.81 68.66 25.63 66.48 25.63 66.47 22.69 63.74 22.69 63.73 25.63 61.53 25.63 61.53 17.81 63.72 17.81"></polygon><polygon class="cls-1" points="67.45 30.82 67.45 32.56 63.75 32.56 63.74 33.76 67.86 33.76 67.87 35.64 61.53 35.64 61.53 27.75 67.83 27.75 67.83 29.67 63.76 29.67 63.73 30.82 67.45 30.82"></polygon><path class="cls-1" d="m33.88,17.81h2.21s0,2.93,0,4.3c0,.27.03.54.12.8.18.52.6.85,1.16.87.16,0,.33.01.49-.02.57-.11.95-.5,1.04-1.09.03-.19.05-.38.05-.58,0-1.34,0-4.29,0-4.29h2.2s.02,3.07.02,4.54c0,.52-.09,1.03-.28,1.51-.33.82-.91,1.38-1.74,1.66-1.1.37-2.21.37-3.31-.02-.91-.32-1.49-.98-1.78-1.9-.14-.44-.19-.9-.19-1.36,0-1.41.01-4.44.01-4.44Z"></path><path class="cls-1" d="m34.31,35.62h-2.27l3.31-7.87h2.1s3.32,7.87,3.32,7.87h-2.34l-.57-1.37h-2.99l-.56,1.37Zm1.22-3.12l1.67-.02-.83-2.11-.85,2.13Z"></path><path class="cls-1" d="m77.64,35.61l-2.31.03-.57-1.38h-2.99l-.55,1.36h-2.28s3.3-7.86,3.3-7.86h2.09s3.31,7.86,3.31,7.86Zm-5.21-3.12h1.67s-.83-2.12-.83-2.12l-.84,2.12Z"></path><path class="cls-1" d="m77.4,25.63l3.33-7.82h2.12l3.33,7.82h-2.36l-.57-1.38h-2.99l-.56,1.38h-2.31Zm3.52-3.11h1.69s-.84-2.14-.84-2.14l-.85,2.14Z"></path><path class="cls-1" d="m33.04,25.63h-2.36l-.57-1.39h-2.97l-.58,1.38h-2.31l3.33-7.88h2.12l3.34,7.89Zm-4.41-5.27l-.85,2.14h1.68s-.83-2.14-.83-2.14Z"></path><path class="cls-1" d="m73,23.4v2.22h-2.2v-7.82s2.37,0,3.48-.01c.56,0,1.11.09,1.63.33.86.39,1.37,1.05,1.49,2,.08.6.02,1.18-.26,1.73-.3.6-.79.99-1.4,1.24-.5.21-1.03.29-1.57.3-.38,0-.76,0-1.18,0Zm.01-3.77v2.04s.64,0,.95,0c.15,0,.3-.01.45-.05.37-.08.66-.27.78-.66.15-.5,0-1.15-.81-1.3-.44-.08-1.36-.04-1.36-.04Z"></path><path class="cls-1" d="m59.82,19.28c-.56.43-1.09.85-1.65,1.27-.07-.07-.13-.13-.18-.19-.24-.26-.51-.48-.85-.6-.88-.32-1.82,0-2.26.84-.41.79-.38,1.59.08,2.35.38.63,1.1.93,1.83.8.43-.07.8-.27,1.1-.58.11-.11.22-.22.34-.34.54.39,1.08.77,1.63,1.16-.14.24-.31.42-.48.6-.71.74-1.59,1.11-2.62,1.17-.83.05-1.61-.07-2.34-.48-1.06-.59-1.73-1.48-1.98-2.67-.19-.93-.12-1.84.3-2.7.58-1.2,1.54-1.93,2.84-2.21.92-.19,1.82-.12,2.69.26.63.27,1.13.72,1.55,1.3Z"></path><polygon class="cls-1" points="89.17 35.64 86.98 35.64 86.97 29.73 84.63 29.73 84.63 27.83 91.49 27.82 91.49 29.72 89.18 29.72 89.17 35.64"></polygon><polygon class="cls-1" points="27.9 29.72 25.56 29.72 25.56 27.75 32.41 27.75 32.41 29.72 30.09 29.72 30.09 35.62 27.9 35.62 27.9 29.72"></polygon><polygon class="cls-1" points="78.87 35.62 78.87 27.83 81.04 27.81 81.05 33.71 84.82 33.71 84.82 35.61 78.87 35.62"></polygon><polygon class="cls-1" points="17.25 25.61 17.25 17.83 19.43 17.82 19.43 23.69 23.18 23.69 23.21 25.61 17.25 25.61"></polygon><polygon class="cls-1" points="41.93 27.81 44.06 27.81 44.08 33.71 47.85 33.71 47.85 35.61 41.93 35.62 41.93 27.81"></polygon><rect class="cls-1" x="21.94" y="27.81" width="2.18" height="7.83"></rect><polygon class="cls-1" points="11.13 35.64 10.66 35.64 10.65 27.79 11.11 27.72 11.13 35.64"></polygon><polygon class="cls-1" points="9.33 35.64 8.88 35.64 8.87 27.71 9.33 27.78 9.33 35.64"></polygon><polygon class="cls-1" points="9.77 27.82 10.2 27.82 10.22 35.62 9.77 35.63 9.77 27.82"></polygon><path class="cls-1" d="m87.41,17.81s2.35-.03,3.52,0c.98.03,3.91.56,3.91,3.97s-3.43,3.8-3.93,3.83c-.14.01-.29.02-.43.02-.97.01-3.07,0-3.07,0v-7.83Zm2.19,5.88s.89,0,1.27-.04c.51-.05.96-.26,1.31-.66.27-.33.39-.71.41-1.13.03-.49-.06-.96-.37-1.36-.38-.5-.91-.7-1.51-.74-.32-.02-1.11-.01-1.11-.01v3.94Z"></path><path class="cls-1" d="m7.82,25.75c-.03-.36-.1-1.05-.1-1.05,0,0-1.61.2-2.56.76,0,0-.54-4.37-.43-6.03.01-.21.02-.43.04-.64.01-.15.08-.27.18-.38.39-.43.87-.74,1.4-.98.36-.16.73-.29,1.12-.43,0-.04,0-.11,0-.17,0-.48-.07-9.82,2.45-16.61.02-.06.05-.12.08-.21.04.09.07.16.09.22,2.43,6.38,2.45,16.42,2.46,16.79.26.1.53.18.79.28,1.13.47,1.6,1.03,1.61,1.03.45.35.3,1.67.25,2.76s-.36,4.21-.38,4.37c-.8-.42-1.65-.61-2.54-.75-.03.35-.06.69-.09,1.04-.25.06-.49.12-.75.17.03.26.12.56.04.87-.98.29-1.96.28-2.98,0,0-.15,0-.29,0-.43.01-.14.05-.28.07-.44-.25-.06-.5-.11-.77-.18Zm2.17-20.4c-.36,5.56-.06,18.98-.04,19.81,0,.14.02.28.04.41.44.04,1.36-.05,1.83-.19.01-.03.03-.06.03-.09,0-.3.09-.61-.01-.91-.02-.05-.02-.1-.02-.15-.02-.47-.04-.94-.05-1.42-.02-1.29.03-2.58.09-3.86,0-.2.02-.4.04-.6.04-.37.07-.74.13-1.11.03-.19.06-.4.06-.57s-.15-9.56-2.05-15.59c-.01-.04-.03-.08-.06-.14-.5,1.65-1.03,3.98-.99,4.35.32.02.98.03.98.06Z"></path></svg> 