<?xml version="1.0" encoding="UTF-8"?> <svg xmlns="http://www.w3.org/2000/svg" id="Layer_1" width="600" height="400" viewBox="0 0 600 400"><defs><style>.cls-1{fill:#3a357e;stroke-width:0px;}</style></defs><path class="cls-1" d="m458.31,225.65c-15.79,17.19-36.12,9.79-37.14-14.85h37.87c1.33-10.74-3.02-32.47-24.75-32.47-17.99,0-29.21,14.61-29.21,31.99,0,18.71,12.8,33.07,29.69,33.07,9.54,0,20.4-6.76,25.23-15.69l-1.69-2.05Zm-25.47-41.4c6.16,0,9.9,7.73,10.38,21.24h-21.99c.74-12.3,5.44-21.24,11.61-21.24Zm-244.92,14v-.24c9.54-2.66,17.14-9.9,17.14-20.16,0-11.59-9.66-20.16-27.76-20.16h-37.18v3.86c7.36.6,8.21.97,8.21,5.07v66.87c0,3.98-.84,4.35-8.33,4.83v3.86h40.8c18.11,0,27.88-8.93,27.88-21.73,0-9.78-5.67-18.95-20.76-22.21Zm-22.09-35.49h8.33c9.54,0,13.16,7.12,13.16,16.18,0,10.02-4.47,16.66-14.12,16.66l-7.36-.12v-32.71Zm24.26,57.7c0,8.57-2.78,16.78-14.61,16.78h-9.66v-35.97h7.73c11.59,0,16.66,7.48,16.54,19.19Zm107.19-29.94c0-5.91,5.43-9.17,10.62-9.17,6.16,0,12.55,4.47,14,13.76h3.98l-1.09-15.69c-5.19-2.29-12.8-3.74-19.31-3.74-15.09,0-22.93,7.48-22.93,17.26,0,22.45,31.51,22.81,31.51,36.09,0,5.91-5.43,8.81-11.11,8.81-6.64,0-14.73-3.98-17.26-18.11h-3.74l1.45,19.43c4.95,2.41,13.04,4.22,20.76,4.22,15.45,0,25.11-7.12,25.11-18.47,0-20.64-31.99-21-31.99-34.4Zm-25.23,38.26v-51.42h-1.93l-24.14,5.31v3.5c8.45.6,9.29.97,9.29,5.55v34.64c-3.02,2.78-9.17,6.04-14.61,6.04s-6.76-3.38-6.76-8.81v-46.23h-1.93l-21.73,5.31v3.38c6.04.6,6.88.97,6.88,5.67v33.68c0,13.16,7.48,17.99,15.81,17.99,9.66,0,17.86-6.52,22.33-12.55h.6v12.31h2.05l20.04-5.07-.48-3.26c-3.26.36-5.43-1.93-5.43-6.04Zm90.05,6.76c-4.35,0-6.52-3.5-6.52-10.5v-39.47h14.61v-6.16h-14.61v-18.23h-4.35c-1.57,7-7.12,17.38-20.64,19.92v4.59h8.21v43.33c0,10.14,5.31,14.36,15.33,14.36,7,0,11.83-2.05,16.9-9.42l-2.53-2.66c-2.29,2.78-3.98,4.22-6.4,4.22Zm34.4-1.81v-77.13h-1.93l-24.14,5.31v3.5c8.45.6,9.29.97,9.29,5.55v62.77c0,3.98-.84,4.35-5.91,4.95v3.5h28.49v-3.5c-4.95-.6-5.79-.97-5.79-4.95Z"></path></svg> 