<?xml version="1.0" encoding="UTF-8"?> <svg xmlns="http://www.w3.org/2000/svg" id="Layer_3" width="100" height="20.62" viewBox="0 0 100 20.62"><defs><style>.cls-1{fill:#fff;}</style></defs><path class="cls-1" d="m63.59.09h1.61c.36,0,.64.03.83.08.26.07.48.2.66.38.18.18.32.41.42.68.1.27.14.6.14.99,0,.34-.04.64-.13.89-.11.3-.26.55-.47.74-.15.14-.36.25-.62.33-.19.06-.45.09-.78.09h-1.66V.09Zm.78.84v2.52h.76c.25,0,1.21.08,1.21-1.27s-1.11-1.25-1.47-1.25h-.49Z"></path><path class="cls-1" d="m68.14,4.26V.09h.84v4.17h-.84Z"></path><path class="cls-1" d="m72.02,2.64v-.7h1.82v1.75c-.18.17-.43.32-.77.45-.34.13-.67.2-1.02.2-.44,0-.82-.09-1.14-.27-.32-.18-.57-.45-.73-.79-.16-.34-.24-.71-.24-1.11,0-.43.09-.82.27-1.16.18-.34.45-.6.8-.78.27-.14.6-.21,1-.21.52,0,.92.11,1.21.33.14.1.34.36.34.36l-.48.54s-.29-.51-1.07-.51c-.37,0-.66.12-.88.35-.22.23-.33.58-.33,1.04,0,.5.11.87.33,1.11s.51.37.87.37c.18,0,.35-.03.53-.1.18-.07.33-.15.46-.25v-.62h-.97Z"></path><path class="cls-1" d="m74.77,4.26V.09h.84v4.17h-.84Z"></path><path class="cls-1" d="m77.68,4.26V.79h-1.24V.09h3.32v.71h-1.24v3.47h-.84Z"></path><path class="cls-1" d="m84.41,4.26h-.92l-.36-.95h-1.67l-.34.95h-.89l1.63-4.17h.89l1.67,4.17Zm-1.55-1.65l-.58-1.55-.56,1.55h1.14Z"></path><path class="cls-1" d="m85.22,4.26V.12h.84v3.44h2.04v.7h-2.89Z"></path><path class="cls-1" d="m63.58,12.4v-4.17h.8l1.22,1.76,1.21-1.76h.8v4.17h-.78v-2.7l-1.3,1.68-1.17-1.68v2.7h-.78Z"></path><path class="cls-1" d="m72.54,12.4h-.92l-.36-.95h-1.67l-.34.95h-.89l1.63-4.17h.89l1.67,4.17Zm-1.55-1.65l-.58-1.55-.56,1.55h1.14Z"></path><path class="cls-1" d="m73.27,12.4v-4.17h1.77c1.36,0,1.64.68,1.64,1.5s-.93,1.2-.93,1.2l1.06,1.47h-1.03l-.85-1.32h-.82s0,1.32,0,1.32h-.84Zm.84-2.14h.62c.4,0,.66-.02.76-.06s.18-.11.24-.2c.06-.09.09-.21.09-.36,0-.16-.04-.29-.11-.39-.07-.1-.18-.16-.32-.19-.07-.01-.27-.02-.62-.02h-.66v1.2Z"></path><path class="cls-1" d="m77.59,12.4v-4.17h.84v1.85l1.7-1.85h1.13l-1.76,1.82,1.77,2.35h-1.06l-1.29-1.77-.49.5v1.26h-.84Z"></path><path class="cls-1" d="m81.88,12.4v-4.17h3.02v.73h-2.17v.9h1.87v.81h-1.87v.91h2.17v.82h-3.02Z"></path><path class="cls-1" d="m86.76,12.4v-3.44h-1.24v-.73h3.32v.73h-1.24v3.44h-.84Z"></path><path class="cls-1" d="m89.65,12.4v-4.17h.84v4.17h-.84Z"></path><path class="cls-1" d="m91.64,12.4v-4.17h.79l1.89,2.59v-2.59h.83v4.17h-.7l-1.98-2.72v2.72h-.83Z"></path><path class="cls-1" d="m98.18,10.77v-.7h1.82v1.76c-.18.17-.43.32-.77.45-.34.13-.67.2-1.02.2-.44,0-.82-.09-1.14-.27-.32-.18-.57-.45-.73-.79-.16-.34-.24-.71-.24-1.11,0-.43.09-.82.27-1.16.18-.34.45-.6.8-.78.27-.14.6-.21,1-.21.52,0,.92.11,1.21.33.14.1.34.36.34.36l-.48.54s-.24-.52-1.08-.5c-.37,0-.66.12-.88.35-.22.23-.33.58-.33,1.04,0,.5.11.87.33,1.11s.51.37.87.37c.18,0,.35-.03.53-.1.18-.07.33-.15.46-.25v-.62h-.97Z"></path><path class="cls-1" d="m63.6,20.55v-4.17h.87l1.82,2.79v-2.79h.83v4.17h-.9l-1.79-2.72v2.72h-.83Z"></path><path class="cls-1" d="m68.19,20.55v-4.17h2.94v.71h-2.14v.93h1.99v.7h-1.99v1.14h2.22v.7h-3.02Z"></path><path class="cls-1" d="m73.09,20.55l-1.32-4.17h.98l.85,2.87.91-2.87h.79l.88,2.92.86-2.92h.97l-1.34,4.17h-.92l-.86-3.12-.86,3.12h-.94Z"></path><path class="cls-1" d="m79.03,19.24s.46.67,1.06.67c.27,0,.48-.06.61-.17.14-.11.21-.25.21-.4,0-.1-.03-.18-.09-.25-.06-.07-.16-.13-.3-.18-.1-.03-.32-.09-.67-.18-.45-.11-.77-.25-.95-.41-.26-.23-.38-.51-.38-.84,0-.21.06-.41.18-.6.12-.19.29-.33.52-.42.23-.1.5-.15.82-.15.97,0,1.44.57,1.44.57l-.42.57s-.39-.44-1.02-.44c-.24,0-.44.05-.58.15-.09.06-.13.15-.13.26,0,.1.04.18.13.25.11.09.36.18.77.28s.71.2.91.3c.2.1.35.24.46.42.11.18.17.4.17.67,0,.24-.07.46-.2.67s-.32.36-.56.47c-.24.1-.55.15-.91.15-.53,0-.93-.12-1.22-.37-.14-.12-.41-.37-.41-.37l.58-.65Z"></path><polygon class="cls-1" points="57.58 .01 51.7 .01 51.7 10.11 45.81 .01 39.93 .01 39.93 20.55 45.88 20.55 45.88 10.28 51.73 20.55 57.58 20.55 57.58 .01"></polygon><path class="cls-1" d="m9.56.01H0v20.53h9.55s10.15.84,10.15-10.27S9.56.01,9.56.01Zm-.6,15.98h-3.51V3.93h3.51s5.08.2,5.08,6.21-5.08,5.86-5.08,5.86Z"></path><path class="cls-1" d="m32.03.01l-3.04,11.97L25.98.01h-9.03v1.58c2.3,1.9,3.47,4.81,3.47,8.68s-1.17,6.78-3.47,8.68v1.59h6.12V7.47l3.64,13.07h4.65l3.68-13.07v13.07h4.88V.01h-7.89Z"></path></svg> 