<?xml version="1.0" encoding="UTF-8"?> <svg xmlns="http://www.w3.org/2000/svg" xmlns:xlink="http://www.w3.org/1999/xlink" id="Layer_1" width="100" height="145.76" viewBox="0 0 100 145.76"><defs><style>.cls-1{fill:url(#linear-gradient);}.cls-2{fill:#004178;}.cls-3{fill:#0081c6;}.cls-4{fill:#fff;}.cls-5{fill:url(#linear-gradient-3);}.cls-6{fill:url(#linear-gradient-4);}.cls-7{fill:url(#linear-gradient-2);}.cls-8{fill:url(#linear-gradient-5);}</style><linearGradient id="linear-gradient" x1=".31" y1="-49.23" x2="99.69" y2="-49.23" gradientTransform="translate(0 70) scale(1 -1)" gradientUnits="userSpaceOnUse"><stop offset="0" stop-color="#008734"></stop><stop offset=".14" stop-color="#00962f"></stop><stop offset=".29" stop-color="#4ea628"></stop><stop offset=".42" stop-color="#6fb121"></stop><stop offset=".5" stop-color="#7ab51d"></stop><stop offset=".6" stop-color="#67ae23"></stop><stop offset=".78" stop-color="#209d2c"></stop><stop offset="1" stop-color="#008734"></stop></linearGradient><linearGradient id="linear-gradient-2" x1="34.3" y1="-54.56" x2="48.39" y2="-40.47" gradientTransform="translate(0 70) scale(1 -1)" gradientUnits="userSpaceOnUse"><stop offset="0" stop-color="#e7ac00"></stop><stop offset=".08" stop-color="#e7ac00"></stop><stop offset=".1" stop-color="#e8ae00"></stop><stop offset=".28" stop-color="#f1c300"></stop><stop offset=".43" stop-color="#f7d000"></stop><stop offset=".56" stop-color="#f8d400"></stop><stop offset=".9" stop-color="#c1a13d"></stop><stop offset="1" stop-color="#c1a13d"></stop></linearGradient><linearGradient id="linear-gradient-3" x1="28.34" y1="-21.09" x2="72" y2="-21.09" gradientTransform="translate(0 70) scale(1 -1)" gradientUnits="userSpaceOnUse"><stop offset="0" stop-color="#e7ac00"></stop><stop offset=".14" stop-color="#e7ac00"></stop><stop offset=".16" stop-color="#e8ae00"></stop><stop offset=".35" stop-color="#f1c300"></stop><stop offset=".52" stop-color="#f7d000"></stop><stop offset=".65" stop-color="#f8d400"></stop><stop offset="1" stop-color="#c1a13d"></stop></linearGradient><linearGradient id="linear-gradient-4" x1="51.88" y1="-45.81" x2="70.44" y2="-45.81" gradientTransform="translate(0 70) scale(1 -1)" gradientUnits="userSpaceOnUse"><stop offset="0" stop-color="#e7ac00"></stop><stop offset=".14" stop-color="#e7ac00"></stop><stop offset=".16" stop-color="#e8ae00"></stop><stop offset=".35" stop-color="#f1c300"></stop><stop offset=".52" stop-color="#f7d000"></stop><stop offset=".65" stop-color="#f8d400"></stop><stop offset="1" stop-color="#c1a13d"></stop></linearGradient><linearGradient id="linear-gradient-5" x1="45.6" y1="-42.67" x2="67.23" y2="-42.67" gradientTransform="translate(0 70) scale(1 -1)" gradientUnits="userSpaceOnUse"><stop offset="0" stop-color="#e7ac00"></stop><stop offset=".14" stop-color="#e7ac00"></stop><stop offset=".16" stop-color="#e8ae00"></stop><stop offset=".35" stop-color="#f1c300"></stop><stop offset=".52" stop-color="#f7d000"></stop><stop offset=".65" stop-color="#f8d400"></stop><stop offset="1" stop-color="#c1a13d"></stop></linearGradient></defs><path class="cls-3" d="m0,39.78h100V.34c-.38-.03-3.74-.29-9.24-.34h-3.72C68.1.17,31.7,3.02,0,20.23v19.56Z"></path><path class="cls-2" d="m0,39.78v47.98c.07,1.37.17,3.42.28,4.6,0,.08.01.16.02.24,0,.03,0,.07.01.1h99.38s0-.07.01-.1c0-.07.01-.15.02-.24.1-1.18.21-3.23.28-4.6v-47.98H0Z"></path><path class="cls-1" d="m.31,92.7c2.4,22.46,16.84,44.24,46.37,52.54,0,0,2,.51,3.33.51s3.33-.51,3.33-.51c29.53-8.31,43.97-30.09,46.37-52.54H.31Z"></path><path class="cls-4" d="m22.51,67.51c4.43,0,7.22-1.37,8.54-4.2.59-1.22.92-3.01.92-5.03v-11.58c0-1.31,0-2.19,1.19-2.25h.22v-.96h-6.61v.94l.21.02c1.22.12,1.22.99,1.22,2.27v10.89c0,2.91-.42,4.66-1.45,6.03-.99,1.28-2.38,1.9-4.24,1.9h-.05c-1.86,0-3.25-.62-4.24-1.9-1.03-1.37-1.45-3.12-1.45-6.03v-10.89c0-1.28,0-2.15,1.22-2.27l.21-.02v-.94h-6.61v.95h.22c1.19.07,1.19.95,1.19,2.26v11.58c0,2.02.33,3.81.92,5.03,1.31,2.83,4.1,4.2,8.54,4.2h.05Z"></path><path class="cls-4" d="m41.84,46.5c-2.05,2.3-3.09,5.3-3.09,8.91,0,3.84,1.15,7.11,3.23,9.19,1.92,1.92,5.03,2.9,9.22,2.9,2.57,0,5.7-.69,7.44-1.63l.11-.06.32-4.48h-.96l-.05.16c-.75,2.42-2.59,3.93-7.06,3.93-7.48,0-8.06-7.74-8.06-10.11,0-3.14.79-10.43,8.12-10.43,3.68,0,6.24,1.05,6.71,3.2l.04.18h.88v-3.9l-.13-.06c-1.77-.83-4.45-1.32-7.16-1.32-4.14,0-7.54,1.25-9.57,3.51Z"></path><path class="cls-4" d="m74.76,65.05c-2.83,0-3.23-.34-3.23-2.76v-15.26c0-1.47,0-1.66,3.63-1.66,6.18.12,9.05,3.17,9.05,9.62,0,8.87-4.78,10.07-9.45,10.07Zm10.59-18.6c-2.12-1.99-5.07-2.93-9.29-2.96h-10.57v.92l.21.02c.87.08,2.07.57,2.07,2.4v16.85c-.05,1.61-.89,2.13-2.07,2.26l-.21.02v1.05h9.91c3.71,0,6.44-.69,8.59-2.17,2.02-1.39,4.43-4.26,4.43-9.98,0-3.55-1.06-6.45-3.07-8.39Z"></path><path class="cls-4" d="m23.22,79.07c-.69.52-1.69.78-2.97.78h-2.47v-6.73h2.12c1.64,0,2.79.28,3.41.85.61.56.93,1.4.93,2.52,0,1.2-.34,2.07-1.02,2.58Zm1.47-6.29c-1.01-.78-2.57-1.17-4.64-1.17h-4.17v9.76h4.4c1.89,0,3.37-.41,4.39-1.2,1.04-.82,1.56-2.02,1.56-3.57,0-1.74-.52-3.02-1.54-3.82Z"></path><path class="cls-4" d="m39.66,71.61h-1.66v5.83c0,.83-.25,1.47-.76,1.95-.51.47-1.26.71-2.23.71s-1.75-.24-2.27-.7c-.52-.47-.77-1.11-.77-1.96v-5.83h-1.89v5.83c0,1.27.44,2.3,1.3,3.06.86.75,2.11,1.13,3.72,1.13,1.43,0,2.59-.37,3.46-1.1.89-.74,1.34-1.78,1.34-3.08v-5.83h-.23Z"></path><path class="cls-4" d="m50.54,79.5c-.36.24-.92.36-1.66.36h-3.27v-2.81h3.18c.79,0,1.38.13,1.74.38.34.24.51.58.51,1.05,0,.46-.16.8-.5,1.02Zm-4.92-6.37h3.09c.76,0,1.3.1,1.63.31.3.19.44.49.44.92,0,.39-.13.68-.41.87-.29.2-.75.31-1.34.31h-3.41v-2.4h0Zm6.66,3.69c-.29-.25-.65-.43-1.05-.56.32-.13.6-.29.82-.5.4-.39.61-.91.61-1.55,0-.87-.32-1.53-.96-1.96-.61-.43-1.6-.63-3.01-.63h-4.97v9.76h5.25c1.29,0,2.3-.25,2.99-.74.72-.51,1.08-1.22,1.08-2.1,0-.7-.26-1.28-.76-1.71Z"></path><path class="cls-4" d="m59.2,71.61h-1.66v9.76h7.64v-1.52h-5.75v-8.24h-.23Z"></path><path class="cls-4" d="m70.02,71.61h-1.67v9.76h1.89v-9.76h-.23Z"></path><path class="cls-4" d="m83.88,71.61h-1.66v7.55c-.67-.86-5.82-7.55-5.82-7.55h-2.32v9.76h1.89v-7.56c.67.87,5.82,7.56,5.82,7.56h2.32v-9.76h-.23Z"></path><path d="m67.83,23.95h-.23l-1.76,13.15h22.14l-.07-.86h-21.13l1.06-12.29Z"></path><path class="cls-4" d="m75.41,32.36v-4.72c0-1.05.86-1.89,1.92-1.89s1.92.85,1.92,1.89h0v4.72h-3.84Zm7.68-14.55v2.36h-3.84v-2.36c0-.26-.22-.48-.48-.48h-2.88c-.26,0-.48.21-.48.48v2.36h-3.84v-2.35c0-.3-.12-.49-.4-.49h-2.96c-.26,0-.48.21-.48.48v2.36h-1.44c-.27,0-.48.21-.48.47v.94c0,.26.22.47.48.47h.48v1.42c0,.26.22.47.48.47h.58l-1.06,12.29h21.13l-1.06-12.29h.58c.26,0,.48-.21.48-.47v-1.42h.48c.27,0,.48-.21.48-.47v-.94c0-.26-.21-.47-.48-.47h-1.44v-2.36c0-.26-.22-.48-.48-.48h-2.84c-.47,0-.52.23-.52.48Z"></path><path class="cls-4" d="m82.71,14.94c-.77-.09-.98-1.91.1-2.71-.06.14-.14.76.08,1.18.45.88.23,1.48-.18,1.53Zm-4.55-.83c-2.26-.24-1.25-5,.31-5.81-.11.25-.3,1.77.19,2.7.86,1.65.68,2.95-.5,3.1Zm-5.33,1.41c-.76,0-1.3-.93-.83-1.86.27-.44.83-.71.64-2.18.66.95.92,1.55.98,1.69.37.93.37,2.25-.78,2.35Zm11.02-2.76c-.62-.71-.17-1.93.05-2.19-.95.26-1.91.64-2.38,1.33-.1-.76-.22-1.71-1.29-2.91-1.75-1.95-.33-3.35.11-3.86-4.03,1.1-6.09,5.09-5.31,7.86-.15-.37-.47-.68-.71-1.1-.98-1.73-.24-2.44-.04-3-3.84,2.05-5.1,5.49-3.05,7.3,0,0,.67.72,1.73.72,1.37-.08,2.66-1.83,2.22-3.52.49,1.21,1.52,2.32,3.37,2.34.8-.05,1.8-.83,2.34-1.67-.1.95.69,2.78,2.49,2.11,1-.51,1.6-2.13.48-3.43Z"></path><path d="m37.83,25.46h-.2l-1.56,11.64h19.59l-.07-.76h-18.7l.93-10.88Z"></path><path class="cls-4" d="m44.55,32.91v-4.18c0-.92.76-1.67,1.7-1.67s1.7.75,1.7,1.67h0v4.18h-3.4Zm6.8-12.88v2.09h-3.4v-2.09c0-.23-.19-.42-.42-.42h-2.55c-.23,0-.42.19-.42.42v2.09h-3.4v-2.08c0-.27-.11-.43-.36-.43h-2.62c-.23,0-.43.19-.43.42v2.09h-1.27c-.24,0-.43.19-.43.42v.83c0,.23.19.42.43.42h.42v1.26c0,.23.19.42.43.42h.51l-.93,10.88h18.7l-.94-10.88h.51c.23,0,.42-.19.42-.42v-1.26h.43c.23,0,.42-.19.42-.42v-.83c0-.23-.19-.42-.42-.42h-1.27v-2.09c0-.23-.19-.42-.43-.42h-2.51c-.41,0-.46.2-.46.42Z"></path><path class="cls-4" d="m51.2,17.28c-.71-.08-.9-1.75.09-2.49-.06.13-.13.7.07,1.08.42.81.21,1.36-.16,1.41Zm-4.16-.45c-1.92-.17-1.48-3.79.04-5.29-.1.22.02,1.66.47,2.38.72,1.16.71,2.86-.51,2.91Zm-4.66.78c-.61,0-1.05-.75-.67-1.51.22-.36.67-.58.51-1.77.54.77.75,1.25.79,1.37.3.75.3,1.83-.63,1.91Zm9.85-2.35c-.58-.93-.29-1.85-.09-2.08-.84.23-1.79,1.1-2.2,1.71-.12-.67,0-1.22-1.14-2.66-1.43-1.82-.29-2.96.1-3.41-3.56.97-4.25,3.24-4.77,5.9-.14-.33-.3-.66-.61-1.16-.34-.55-.31-1.28,0-1.9-3.4,1.82-4.31,4.95-2.69,6.82,0,0,.46.67,1.62.64,1.21-.07,2.32-1.32,1.92-2.81.43,1.07,1.29,1.88,2.93,1.9.71-.04,1.59-.73,2.07-1.48-.09.84.73,2.25,2.06,1.93,1.1-.31,1.92-1.59.79-3.39Z"></path><path d="m12.5,28.24h-.16l-1.19,8.86h14.93l-.05-.58h-14.25l.71-8.28Z"></path><path class="cls-4" d="m17.62,33.91v-3.19c0-.7.58-1.28,1.3-1.28s1.29.57,1.29,1.28h0v3.19h-2.59Zm5.18-9.81v1.59h-2.59v-1.59c0-.18-.14-.32-.32-.32h-1.94c-.18,0-.32.14-.32.32v1.59h-2.59v-1.58c0-.21-.08-.33-.27-.33h-1.99c-.18,0-.32.14-.32.32v1.59h-.97c-.18,0-.32.14-.32.32v.64c0,.18.15.32.32.32h.32v.96c0,.18.15.32.33.32h.39l-.71,8.28h14.25l-.71-8.28h.39c.18,0,.32-.14.32-.32v-.96h.32c.18,0,.32-.14.32-.32v-.64c0-.18-.14-.32-.32-.32h-.97v-1.59c0-.18-.15-.32-.32-.32h-1.91c-.31,0-.35.15-.35.32Z"></path><path class="cls-4" d="m22.67,21.99c-.56-.07-.71-1.38.07-1.97-.05.1-.1.55.06.86.33.64.16,1.08-.13,1.11Zm-3.17-.84c-1.35-.14-.75-2.99.19-3.47-.07.15-.18,1.06.11,1.62.52.99.4,1.76-.3,1.86Zm-3.66,1.08c-.47,0-.81-.58-.52-1.16.17-.27.52-.44.39-1.36.41.59.58.96.61,1.05.23.58.23,1.4-.49,1.47Zm7.61-1.83c-.48-.66-.11-1.49.04-1.66-.92.2-1.5.94-1.82,1.41.05-.74-.4-1.41-.81-2-1.01-1.45-.22-2.26.08-2.6-2.71.74-3.76,2.75-3.65,4.82-.1-.25-.25-.36-.37-.67-.44-1.18.01-1.73.15-2.1-3.25,1.48-3.78,4.05-2.4,5.28,0,0,.52.59,1.4.48.92-.06,1.68-1.09,1.38-2.23.33.82,1.02,1.56,2.27,1.58.54-.03,1.22-.16,1.58-1.13-.07.64,1.15,2.15,2.19,1,.52-.63.49-1.45-.04-2.18Z"></path><path d="m52.25,139.64c-16.47-9.55-24.87-23.1-22.96-43.11-.04-.03-.36-.29-.73-.56-2.7,20.43,6.94,34.83,23.42,44.39l.27-.72Z"></path><path class="cls-7" d="m52.25,139.64l1.17-3.02c-13.29-9.53-16.45-21.73-15.92-37.04-2.85-.13-5.56-1.03-8.21-3.04-1.91,20.01,6.49,33.55,22.96,43.11Z"></path><path d="m70.93,95.65c-7.71-3.97-13.59-3.78-20.66-1.54-8.46,2.68-15.63,3.47-21.93-2.26,0,0,0,0,0,0-.12.27-.24.56-.34.86,6.3,5.72,13.16,4.62,21.72,2.27,8.52-2.34,13.28-2.79,21.02,1.2l.19-.54Z"></path><path class="cls-5" d="m51.06,88.15c-6.4,2.1-13.34,1.66-17.16-2.13-2.31,1.04-4.61,3.09-5.57,5.85,6.3,5.72,13.47,4.94,21.93,2.26,7.07-2.24,12.96-2.43,20.66,1.54l1.07-2.95c-5-5.34-14.95-6.53-20.94-4.56Z"></path><path d="m70.46,97.22l-13.18,38.1c-1.94-.91-4-2.34-5.37-3.31l-.4.85c1.56,1.19,4.89,3.21,6.18,3.63l13.2-39.07c-.13-.06-.27-.13-.42-.2Z"></path><path class="cls-6" d="m51.91,132.01c1.37.97,3.43,2.4,5.37,3.31l13.19-38.11c-.76-.36-1.52-.66-2.27-.91l-16.29,35.71Z"></path><path d="m39.47,99.55c-.24.02-.49.03-.76.05l11.04,18.84.43-.65-10.71-18.24Z"></path><path class="cls-4" d="m51.77,115.38l-9.52-16.2c-.95.19-1.88.31-2.79.38h0s10.71,18.24,10.71,18.24l1.6-2.41Z"></path><path d="m45.72,98.29c-.1.03-.44.13-.65.2l8.38,14.35.43-.65-8.16-13.89Z"></path><path class="cls-4" d="m55.47,109.77l-7.23-12.31c-.86.32-1.67.57-2.44.81-.02,0-.05.01-.07.02l8.16,13.89,1.59-2.41Z"></path><path d="m53.35,95.6s-.02,0-.03,0c.01,0,.02,0,.03,0Z"></path><path d="m51.5,96.25c-.18.06-.38.14-.61.22l6.26,10.75.42-.64-6.07-10.33Z"></path><path class="cls-4" d="m59.17,104.17l-5.16-8.78c-.22.07-.44.14-.65.22-.01,0-.02,0-.03.01-.49.16-.99.34-1.5.52-.11.04-.21.07-.32.11l6.07,10.33,1.59-2.41Z"></path><path d="m57.45,94.47c-.27.05-.53.11-.75.16l4.13,7.01.44-.67-3.82-6.5Z"></path><path class="cls-4" d="m62.86,98.56l-2.65-4.51c-.27.03-.53.07-.79.1-.15.02-.3.03-.44.06-.12.02-.24.04-.36.06-.36.06-.72.12-1.07.19-.04,0-.07.01-.1.02h0s3.82,6.51,3.82,6.51l1.59-2.41Z"></path><path d="m67.22,96.01l-17.65,33.83c-.47-.43-2.64-2.6-3.97-5.09l-.46.68c1.1,2.17,3.52,4.85,4.6,5.77l17.9-35.06c-.1-.04-.24-.09-.42-.14Z"></path><path class="cls-8" d="m45.6,124.74c1.33,2.49,3.51,4.66,3.98,5.09l17.65-33.84c-.79-.22-1.57-.39-2.34-.5l-19.29,29.24Z"></path></svg> 