<?xml version="1.0" encoding="UTF-8"?> <svg xmlns="http://www.w3.org/2000/svg" id="svg2" width="100" height="100" viewBox="0 0 100 100"><defs><style>.cls-1{fill:#fff;stroke-width:0px;}</style></defs><g id="g10"><g id="g12"><path id="path14" class="cls-1" d="m14.38,52.49l-.19-.02c.02-.42-.03-.71-.16-.87-.13-.16-.47-.27-1.02-.32l-6.95-.63-.09,1.03-.19-.02.29-3.19,6.09-1.64-5.7-2.64.27-3.02.19.02-.09,1,8.22.74.09-1,.19.02-.35,3.93-.19-.02.09-1.01-7.93-.72,7.86,3.58-.04.4-8.62,2.25,6.89.62c.55.05.9,0,1.06-.12.16-.13.26-.41.32-.84l.19.02-.22,2.43"></path><path id="path16" class="cls-1" d="m10.94,36.54l3.35.06-.78,2.09-2.56-2.15Zm3.56.06l2.73.03-.35.94.19.07,1.36-3.62-.19-.07-.28.75-9.27.07-.06.15,5.97,5.03c.42.35.67.64.76.88.09.24.08.53-.03.88l.19.07.81-2.15-.19-.07c-.15.29-.28.48-.39.56-.11.09-.22.11-.35.06-.09-.03-.18-.08-.28-.15-.1-.07-.2-.14-.3-.23l-1.14-1,.83-2.22"></path><path id="path18" class="cls-1" d="m13.28,26.51l.34-.5c.38-.56.76-.88,1.14-.95.38-.07.85.09,1.41.48.56.38.89.78.99,1.18.1.4-.02.86-.36,1.35l-.4.58-3.13-2.15h0Zm3.28,2.25s.05-.08.09-.15c.04-.06.07-.11.09-.14.4-.58.79-.92,1.18-1.01.39-.09.89.05,1.51.41.11.06.25.15.43.27.7.45,1.24.66,1.62.64.24-.01.47-.08.67-.19.2-.12.38-.28.52-.49.15-.22.26-.45.34-.69.08-.24.12-.5.13-.76h-.16c-.01.08-.03.16-.05.23-.02.07-.04.12-.07.16-.23.34-.74.26-1.54-.24-.19-.11-.33-.2-.44-.26-.64-.39-1.23-.53-1.78-.41-.55.11-1.08.48-1.59,1.1l-.05-.03c.4-.81.59-1.48.56-2.01-.03-.53-.28-.96-.75-1.28-.55-.37-1.12-.42-1.72-.14-.6.28-1.22.87-1.84,1.78l-2.25,3.29.16.11.58-.84,6.81,4.67-.58.84.16.11,2.31-3.37-.16-.11-.64.94-3.53-2.42"></path><path id="path20" class="cls-1" d="m21.01,17.19l.14.14-.72.69,5.73,5.94.72-.69.14.14-2.84,2.74-.14-.14.73-.71-5.73-5.94-.73.71-.14-.14,2.84-2.74"></path><path id="path22" class="cls-1" d="m28.28,22.3l-1.82-2.66.16-.11c.73.7,1.47,1.15,2.24,1.33.77.18,1.44.09,2.02-.29.4-.26.65-.62.74-1.06.09-.44,0-.86-.25-1.26-.18-.27-.38-.47-.6-.59-.22-.12-.49-.17-.81-.16-.21,0-.56.11-1.08.31-.28.11-.51.19-.66.25-.82.28-1.51.35-2.06.21-.55-.15-1.02-.52-1.42-1.11-.41-.63-.55-1.29-.41-1.99.14-.7.52-1.26,1.14-1.67.19-.13.39-.23.61-.3.22-.07.45-.13.69-.16.09,0,.22-.02.39-.02.32-.02.54-.06.66-.14.09-.06.14-.14.15-.22,0-.09-.02-.22-.09-.39l.16-.1,1.48,2.24-.16.1c-.63-.63-1.26-1.02-1.89-1.18-.63-.16-1.2-.07-1.71.26-.41.27-.67.62-.78,1.04-.1.42-.03.82.22,1.2.14.21.3.36.48.45.19.09.41.14.66.13.21,0,.58-.12,1.09-.33.24-.1.43-.17.56-.22.95-.36,1.7-.47,2.26-.33.56.14,1.06.56,1.52,1.25.47.72.64,1.43.49,2.15-.15.72-.57,1.31-1.28,1.77-.47.31-1,.52-1.59.64-.59.12-.89.18-.91.2-.11.07-.17.17-.19.27-.01.11.03.23.12.38l-.17.1"></path><path id="path24" class="cls-1" d="m36.21,17.64l-.07-.19,1.03-.37-2.82-7.75-.21.08c-.68.25-1.15.65-1.41,1.19-.25.55-.27,1.2-.06,1.97l-.18.06-.84-2.54,7.07-2.57.98,2.48-.18.07c-.33-.73-.76-1.22-1.31-1.47-.54-.25-1.16-.26-1.85,0l-.21.08,2.82,7.75,1.01-.37.07.19-3.85,1.4"></path><path id="path26" class="cls-1" d="m54.32,11.86h.19s-.06,3.01-.06,3.01h-.19c-.05-.18-.11-.31-.18-.38s-.16-.11-.28-.11c-.11,0-.29.07-.57.2-.18.09-.32.16-.43.21-.2.08-.41.14-.65.18s-.5.05-.81.05c-.44,0-.87-.1-1.3-.28s-.81-.43-1.14-.74c-.49-.46-.85-.98-1.07-1.56-.23-.58-.33-1.25-.32-2.01.01-.71.14-1.35.38-1.92.24-.57.6-1.08,1.09-1.53.37-.35.78-.61,1.23-.78.45-.17.92-.25,1.43-.24.44,0,.9.12,1.37.32.48.21.76.31.86.31.11,0,.21-.02.28-.08.07-.05.13-.15.17-.28h.2s-.06,2.85-.06,2.85h-.2c-.22-.9-.56-1.62-1.04-2.14-.47-.52-1.01-.79-1.61-.8-.68-.01-1.18.33-1.51,1.02-.33.69-.51,1.79-.54,3.3-.03,1.53.11,2.63.42,3.32.31.69.83,1.03,1.54,1.05.62.01,1.19-.26,1.71-.8.52-.55.88-1.27,1.07-2.17"></path><path id="path28" class="cls-1" d="m60.56,8.17c.42-.47.97-.61,1.66-.42.69.19,1.08.59,1.2,1.21.11.61-.07,1.77-.54,3.48-.47,1.71-.92,2.79-1.33,3.26-.41.47-.96.6-1.65.41-.69-.19-1.09-.6-1.21-1.21-.11-.62.07-1.77.54-3.47.47-1.7.92-2.78,1.33-3.25h0Zm-3.53,4.49c.04.56.21,1.11.48,1.66.25.51.57.93.96,1.26.39.33.85.57,1.37.71s1.04.18,1.54.1c.5-.08.99-.27,1.47-.58.52-.33.94-.71,1.26-1.17.32-.45.58-1,.76-1.65.18-.65.25-1.25.21-1.81-.04-.55-.2-1.1-.47-1.65-.25-.51-.57-.94-.96-1.27-.39-.33-.84-.57-1.37-.72-.52-.14-1.03-.18-1.54-.09-.51.08-1,.28-1.48.59-.52.33-.94.72-1.27,1.17-.33.45-.58,1-.76,1.65-.18.64-.25,1.24-.2,1.8"></path><path id="path30" class="cls-1" d="m64.85,17.66l.09-.16.89.51,4.14-7.17-.89-.51.09-.16,3.46,2-.09.16-.9-.52-4.14,7.17,1.06.61c.84.49,1.58.66,2.2.51.62-.14,1.17-.61,1.63-1.4l.18.09-1.44,2.48-6.28-3.63"></path><path id="path32" class="cls-1" d="m72.26,22.1l.13-.14.73.7,5.71-5.95-.73-.7.13-.14,2.87,2.75-.13.14-.75-.72-5.71,5.95.88.84c.7.68,1.38,1.02,2.02,1.02s1.29-.32,1.93-.98l.15.13-2.01,2.09-5.22-5.01"></path><path id="path34" class="cls-1" d="m78.38,28.15l.16-.1.54.86,6.98-4.44-.54-.86.16-.1,3.66,5.77-2,1.27-.09-.14c.63-.5.98-.99,1.06-1.48.08-.49-.11-1.09-.57-1.81l-.65-1.03-3.21,2.04.39.61c.22.35.52.55.9.59.37.04.78-.08,1.23-.36l.09-.06.1.16-3.15,2-.1-.16.09-.06c.44-.28.73-.6.85-.95.12-.35.07-.71-.16-1.06l-.39-.61-3.62,2.3.68,1.07c.54.84,1.09,1.34,1.67,1.5.58.15,1.25-.01,2.03-.5l.1.16-2.34,1.48-3.87-6.09"></path><path id="path36" class="cls-1" d="m86.98,39.24l.19-.06,1.06,3.26-.19.06-.22-.67-1.76.57c-.43-.23-.82-.56-1.16-1-.34-.44-.6-.96-.8-1.55-.41-1.25-.34-2.37.2-3.37s1.46-1.71,2.77-2.13c.68-.22,1.32-.31,1.94-.27.62.04,1.21.22,1.8.52.46.24.84.55,1.14.91.31.36.54.79.7,1.27.13.41.18.88.15,1.41-.04.52-.04.83-.01.92.04.11.09.19.17.24.07.05.18.07.32.07l.06.19-2.71.88-.06-.19c.78-.51,1.34-1.07,1.67-1.69.34-.62.42-1.21.23-1.78-.21-.65-.7-1.01-1.46-1.1-.76-.08-1.86.11-3.3.58-.7.23-1.28.44-1.73.65-.45.2-.79.39-.99.57-.36.31-.61.64-.74,1-.13.36-.14.72-.02,1.09.06.19.16.36.28.51.12.14.27.26.43.34.18.09.36.13.54.14.18,0,.42-.04.73-.14l.17-.06.87-.28-.28-.87"></path><path id="path38" class="cls-1" d="m85.63,44.37h.19s.06,1,.06,1l8.25-.52-.06-1.01h.19s.43,6.82.43,6.82l-2.35.15v-.17c.78-.13,1.32-.4,1.63-.79.3-.39.43-1.01.37-1.86l-.08-1.21-3.79.24.04.71c.03.41.19.73.5.94.31.21.72.3,1.25.27h.11s.01.18.01.18l-3.74.23v-.19s.1,0,.1,0c.53-.03.93-.17,1.2-.42.28-.25.4-.58.37-1l-.04-.71-4.27.27.08,1.26c.06,1,.31,1.7.74,2.12.43.41,1.1.6,2.01.55v.19s-2.75.17-2.75.17l-.45-7.2"></path><path id="path40" class="cls-1" d="m19.57,76.75l.94-.84.48.53c.37.41.4.7.09.98-.14.13-.5.45-.95-.05,0,0-.56-.62-.56-.62Zm-.55.5l.69.77c.77.86,1.65.37,1.94.11.63-.56.69-1.29.13-1.91l-1.31-1.46-3.2,2.87.6.67,1.15-1.03"></path><path id="path42" class="cls-1" d="m22.46,79.96c.79-.9,1.5-.68,1.87-.36.36.32.68,1-.12,1.9-.79.9-1.5.68-1.87.36-.36-.32-.68-1,.12-1.9Zm-.67-.59c-1.33,1.51-.37,2.69.06,3.06.43.38,1.71,1.18,3.04-.33,1.33-1.51.37-2.69-.06-3.06-.43-.38-1.71-1.18-3.04.33"></path><path id="path44" class="cls-1" d="m28.36,85.32c-.64.93-1.47.95-2.37.34-.33-.22-.76-.63-.83-1.2-.04-.35.08-.69.31-1.05l1.61-2.35.76.52-1.57,2.3c-.34.49-.2.91.15,1.14.51.35.89.24,1.18-.19l1.6-2.34.76.52-1.58,2.31"></path><path id="path46" class="cls-1" d="m31.8,86.28l1.6.82-1.06,2.06-.53-.27.17-.52c-.32.13-.79.33-1.49-.03-.92-.47-1.42-1.56-.73-2.9.54-1.04,1.62-1.73,2.91-1.06,1.17.6,1.24,1.6,1.01,2.15l-.8-.41c.08-.15.05-.77-.51-1.06-.57-.29-1.3-.17-1.8.81-.54,1.04-.11,1.61.44,1.89.18.09.8.32,1.36-.36l-.89-.46.33-.64"></path><path id="path48" class="cls-1" d="m35.32,88.3l-.66,1.81-.84-.31,1.48-4.04.84.31-.56,1.53,1.57.58.56-1.53.84.31-1.48,4.04-.84-.31.66-1.81-1.57-.58"></path><path id="path50" class="cls-1" d="m39.61,91.69l-.87-.21.98-4.18.87.21-.4,1.7,2-1.33,1.13.27-2.11,1.31,1.23,2.89-1.12-.26-.86-2.14-.51.32-.33,1.42"></path><path id="path52" class="cls-1" d="m47.19,89.38l-2.27-.26-.1.9,2.08.24-.09.76-2.08-.24-.13,1.11,2.37.27-.09.76-3.24-.37.49-4.27,3.14.36-.09.76"></path><path id="path54" class="cls-1" d="m51.55,89.46h-2.28s0,.89,0,.89h2.09s0,.77,0,.77h-2.09s0,1.1,0,1.1h2.38s0,.77,0,.77l-3.26-.02.02-4.3,3.16.02v.76"></path><path id="path56" class="cls-1" d="m53.77,90.54l-.13-1.26.71-.07c.55-.06.8.09.85.51.02.19.07.67-.6.74l-.83.09Zm.08.74l1.02-.11c1.15-.12,1.26-1.12,1.22-1.51-.09-.84-.64-1.32-1.47-1.23l-1.95.2.45,4.27.89-.09-.16-1.54"></path><path id="path58" class="cls-1" d="m58.16,90.9c.06.23.27.65,1.04.48.42-.09.86-.29.76-.74-.07-.33-.41-.35-.87-.35h-.47c-.71-.02-1.4-.02-1.6-.95-.1-.47-.03-1.35,1.33-1.65,1.29-.28,1.82.48,1.93,1l-.84.18c-.06-.18-.23-.61-1-.44-.33.07-.7.28-.62.66.07.33.36.34.54.34l1.08.03c.6.01,1.18.13,1.35.89.28,1.26-.99,1.66-1.35,1.74-1.53.34-1.99-.49-2.1-1.01l.84-.18"></path><path id="path60" class="cls-1" d="m63.14,90.98l-.86.26-1.26-4.11.86-.26,1.26,4.11"></path><path id="path62" class="cls-1" d="m66.21,86.05l-2.12.85.34.84,1.94-.78.28.71-1.94.78.41,1.03,2.21-.89.28.71-3.03,1.21-1.6-3.99,2.93-1.18.28.71"></path><path id="path64" class="cls-1" d="m69.56,88.2c.33.66.11,1.07-.3,1.4h0s-.14-.28-.14-.28c.17-.17.34-.38.14-.84l-.45.22-.39-.78.8-.4.34.67"></path><path id="path66" class="cls-1" d="m74.08,80.34l.67-.51,2.6,3.42-.72.54-3.25-1.38h0s1.85,2.45,1.85,2.45l-.67.51-2.6-3.42.75-.57,3.17,1.35h0s-1.81-2.39-1.81-2.39"></path><path id="path68" class="cls-1" d="m79.11,81.67l-.67.6-.59-.65.67-.6.59.65"></path><path id="path70" class="cls-1" d="m81.61,79.17l-.62.65-1.18-1.11-2.97-.75.73-.77,1.97.63-.78-1.9.7-.74.97,2.89,1.17,1.1"></path><path id="path72" class="cls-1" d="m83.45,77.02l-.57.69-.67-.55.57-.69.68.56"></path><path id="path74" class="cls-1" d="m24.82,35.81c-.88-.48-.83-1.09-.64-1.45s.68-.74,1.56-.26c.88.48.83,1.1.64,1.45-.19.36-.68.74-1.56.26Zm-.36.66c1.48.8,2.25-.2,2.48-.62.23-.42.64-1.61-.84-2.41-1.48-.8-2.25.2-2.48.62-.23.42-.64,1.61.84,2.41"></path><path id="path76" class="cls-1" d="m26.99,31.81l-.76-.58.56-.75c.26-.35.54-.25.69-.14.28.21.28.45.04.76l-.53.7h0Zm1.16,1.79l.44-.59-1.12-.84.47-.62c.33-.44.5-.35.89-.06.29.22.46.31.63.37l.5-.66-.08-.06c-.14.09-.25.01-.67-.3-.53-.4-.72-.34-1-.18.12-.36-.03-.72-.35-.96-.25-.19-.91-.47-1.49.29l-1.09,1.45,2.86,2.16"></path><path id="path78" class="cls-1" d="m29.58,27.61h0s1.31.69,1.31.69l-.65.64-.67-1.33Zm.96,1.91l.94-.93.68.36.58-.57-3.42-1.66-.61.61,1.61,3.44.56-.55-.34-.7"></path><path id="path80" class="cls-1" d="m32.7,25.87l-.57-.77.75-.55c.35-.26.59-.09.7.07.21.29.14.51-.18.74l-.71.52Zm.6,2.05l.59-.43-.83-1.13.62-.46c.45-.33.58-.19.87.2.22.3.35.43.49.54l.67-.49-.06-.08c-.16.05-.24-.06-.55-.48-.4-.54-.59-.53-.9-.46.21-.31.17-.7-.06-1.02-.18-.25-.74-.71-1.51-.15l-1.46,1.07,2.12,2.88"></path><path id="path82" class="cls-1" d="m37.37,21.86l-1.67.9.36.66,1.54-.83.3.56-1.54.83.44.82,1.75-.94.3.56-2.39,1.29-1.7-3.15,2.32-1.25.3.56"></path><path id="path84" class="cls-1" d="m42.89,19.86l-1.82.55.22.72,1.67-.5.18.61-1.67.5.27.89,1.9-.57.18.61-2.6.78-1.03-3.43,2.52-.76.18.61"></path><path id="path86" class="cls-1" d="m46.17,22.24l-.74.12-.47-2.91-1.07.17-.1-.63,2.88-.47.1.63-1.07.17.47,2.91"></path><path id="path88" class="cls-1" d="m50.44,21.31l1.78.05-.02.65-2.53-.07.1-3.58.75.02-.08,2.93"></path><path id="path90" class="cls-1" d="m54.82,19.58h0s.21,1.47.21,1.47l-.9-.15.68-1.32h0Zm-.98,1.9l1.3.22.11.77.8.13-.66-3.74-.85-.14-1.84,3.33.78.13.37-.69"></path><path id="path92" class="cls-1" d="m57.91,21.5l.91.29c.26.08.48.28.38.58-.11.35-.36.43-.71.32l-.87-.28.29-.91h0Zm-1.17,1.28l1.44.46c.7.22.92.16,1.18.04.24-.12.43-.34.52-.61.11-.34.11-.7-.26-1,.17-.03.48-.07.64-.56.11-.35.07-.94-.77-1.21l-1.66-.53-1.09,3.41h0Zm1.59-2.6l.82.26c.32.1.49.25.41.53-.09.27-.35.31-.63.22l-.84-.27.24-.75"></path><path id="path94" class="cls-1" d="m61.71,22.67c.45-.9,1.07-.87,1.43-.69s.76.66.31,1.55c-.45.9-1.07.87-1.43.69s-.76-.66-.31-1.55Zm-.67-.33c-.75,1.5.28,2.24.7,2.46.42.21,1.63.58,2.38-.92.75-1.5-.28-2.24-.7-2.46s-1.63-.58-2.38.92"></path><path id="path96" class="cls-1" d="m65.78,24.71l.55-.78.76.54c.36.25.27.53.16.68-.2.29-.44.29-.75.07l-.72-.51h0Zm-1.75,1.22l.6.42.81-1.15.63.44c.45.32.37.49.09.89-.21.3-.29.47-.35.64l.68.48.05-.08c-.1-.14-.02-.25.28-.67.38-.55.32-.73.15-1,.36.11.72-.06.94-.38.18-.25.44-.93-.34-1.48l-1.48-1.04-2.06,2.93"></path><path id="path98" class="cls-1" d="m70.07,27.16h0s-.65,1.34-.65,1.34l-.66-.63,1.31-.71Zm-1.88,1.02l.96.91-.34.69.59.56,1.55-3.47-.63-.59-3.39,1.72.57.54.69-.36"></path><path id="path100" class="cls-1" d="m71.9,30.23l.75-.59.58.73c.27.34.1.58-.04.7-.28.22-.5.15-.74-.15l-.54-.69h0Zm-2.03.66l.45.58,1.1-.87.48.61c.34.43.21.58-.17.88-.29.23-.42.37-.52.51l.51.65.07-.06c-.05-.16.05-.24.46-.57.53-.41.51-.61.43-.92.31.2.7.15,1.01-.09.24-.19.69-.76.1-1.51l-1.12-1.42-2.81,2.22"></path><path id="path102" class="cls-1" d="m76.06,34.76l-.96-1.64-.65.38.88,1.51-.55.32-.88-1.51-.8.47,1,1.72-.55.32-1.37-2.35,3.1-1.8,1.32,2.28-.55.32"></path><path id="path104" class="cls-1" d="m44.26,75.5h.11c.74,0,.94-.38.96-.67h.63v3.89h-.77v-2.68h-.93v-.54"></path><path id="path106" class="cls-1" d="m47.91,76.12c0-.56.36-.66.55-.66.39,0,.59.27.59.72s-.3.65-.56.65c-.29,0-.57-.13-.57-.71h0Zm-.69,1.7c.07.62.54,1,1.21,1,.7,0,1.41-.49,1.41-1.99,0-.55-.02-2-1.37-2-.76,0-1.33.44-1.33,1.4,0,.65.43,1.21,1.18,1.21.26,0,.56-.07.74-.33h.01c0,.83-.32,1.09-.64,1.09-.24,0-.41-.11-.45-.38h0s-.76,0-.76,0"></path><path id="path108" class="cls-1" d="m50.24,76.21c0-1.27.93-1.38,1.27-1.38.74,0,1.34.44,1.34,1.23,0,.67-.43,1.01-.81,1.27-.51.36-.78.54-.87.72h1.69v.68h-2.66c.03-.45.06-.93.91-1.54.7-.51.98-.71.98-1.14,0-.26-.16-.55-.54-.55-.54,0-.55.44-.56.73h-.75"></path><path id="path110" class="cls-1" d="m54.08,76.12c0-.56.36-.66.55-.66.39,0,.59.27.59.72s-.3.65-.56.65c-.29,0-.57-.13-.57-.71h0Zm-.69,1.7c.07.62.54,1,1.21,1,.7,0,1.41-.49,1.41-1.99,0-.55-.02-2-1.37-2-.76,0-1.33.44-1.33,1.4,0,.65.43,1.21,1.18,1.21.26,0,.56-.07.74-.33h.01c0,.83-.32,1.09-.64,1.09-.24,0-.41-.11-.45-.38h0s-.76,0-.76,0"></path><path id="path112" class="cls-1" d="m45.6,51.43c0-.69.56-1.25,1.25-1.25s1.25.56,1.25,1.25-.56,1.25-1.25,1.25-1.25-.56-1.25-1.25Zm12.34,1.5c.69,0,1.25-.56,1.25-1.25s-.56-1.25-1.25-1.25-1.25.56-1.25,1.25.56,1.25,1.25,1.25Zm-4.19,0c.69,0,1.25-.56,1.25-1.25s-.56-1.25-1.25-1.25-1.25.56-1.25,1.25.56,1.25,1.25,1.25Zm-11.61-.16c.69,0,1.25-.56,1.25-1.25s-.56-1.25-1.25-1.25-1.25.56-1.25,1.25.56,1.25,1.25,1.25Zm-4.53-14.74c.27-.32,1.97-1.06,2.92-.48.8.85,1.12,1.86.43,4.04-.27,1.17-.96,5.16-.48,6.11.32.85.74,1.91,1.7,1.86.69,0,1.59-.05,1.75-1.6.43-1.06.37-5.42.37-5.42l.85.96s-.21,2.34.16,4.62c.11.9.64,1.38,1.65,1.44,1.01.05,1.59-.32,1.7-1.75.16-.9.69-2.23.11-5.85-.11-1.06-.48-4.31,1.33-4.52.11,0,0-1.01-.05-1.06-2.9.26-3.46,3.02-4.47,4.89-.74-.27-2.6-3.83-3.4-4.47-.8-.64-3.51-1.6-5.63.05-.37.53-.37.42-1.59,1.01-1.49.21-1.49.32-1.49.32,0,0-.05.96,1.97,1.44.16,1.44,1.01,2.71,2.66,2.71s2.55-1.65,2.34-2.66c-.05-.74-2.45-2.34-2.66.8-.43-.48-.64-1.28-.16-2.45h0Zm-.9,14.94c-.69,0-1.22.11-1.38.58-.69,1.38,1.12,1.97,1.44,1.86-1.28,1.33-3.46,1.7-3.72,1.75,1.38-2.23,2.66-5.26,2.87-5.9.21-.64.48-3.77-1.01-4.84-1.06-1.33-3.46-1.54-5.21-.16-2.5,3.46.69,4.47.96,4.41,1.97.37,2.13-.96,2.02-1.75-.11-1.44-2.02-.9-2.39-.11-.37-1.81,1.28-1.91,1.38-2.02,2.34-.11,2.45,1.28,2.71,1.75.85,2.13-1.49,5.74-1.49,5.74,0,0-1.38,2.45-2.23,3.4-.9-1.86-2.07-2.29-2.6-2.29-1.59.74-1.33,2.02-.27,2.13,1.01.11.96-.27,1.12-.11.58,1.06.37,1.81.27,2.55-1.01,3.14-1.01,4.04-.11,6.06.9,2.02,3.4,3.14,4.31,2.92.69,1.7,2.66,1.49,3.08.05,2.07.32,5.48-1.01,7.12-2.98,3.14-3.24,4.47-6.8,4.73-8.61.21.43,1.01,1.54,1.12,1.59-.85,2.5-1.65,7.23-1.01,8.45,1.06,2.98,3.08,1.38,3.19.21.74-1.49-.27-7.39-.74-8.4.05,0-.69-1.81-.69-1.81,0,0-.58-.9-1.97-3.03-.58-1.17-1.12-.96-1.49-.96s-.69.16-1.17.8c-1.01,2.34-.8,3.46-1.28,5.95-.37,3.46-3.35,6.27-4.2,6.33,1.65-1.97,2.82-4.84,2.82-5.69.48-2.76.27-5.26,0-6.01-.48-1.81-1.7-1.97-2.66.16-.48,1.59-.53,6.86-.69,8.08.05,3.03-2.55,4.41-3.4,4.52-1.28-1.12-1.86-.64-2.76.27-1.22.11-3.19-1.86-3.51-3.14-.21-3.56,2.13-4.15,2.71-4.2.96,0,2.18.74,2.29,2.02-.05.85-.37,1.38-1.06,1.7-.21-1.65-1.33-1.65-1.81-.96-.74,2.13,1.38,2.34,1.75,2.23,1.86,0,2.66-2.02,2.55-2.87-.64-2.92-1.65-3.08-2.71-3.56,1.49-1.49,1.75-1.12,2.76-1.81,1.91-1.17,1.59-1.22,1.97-2.66-.32-1.65-1.17-1.7-1.59-1.7Zm25.71-12.57c-.21-3.14-2.61-1.54-2.66-.8-.21,1.01.69,2.66,2.34,2.66s2.5-1.28,2.66-2.71c2.02-.48,1.97-1.44,1.97-1.44,0,0,0-.11-1.49-.32-1.22-.58-1.22-.48-1.59-1.01-2.13-1.65-4.84-.69-5.63-.05-.8.64-2.66,4.2-3.4,4.47-1.01-1.87-1.56-4.63-4.47-4.89-.05.05-.16,1.06-.05,1.06,1.81.21,1.44,3.46,1.33,4.52-.58,3.62-.05,4.94.11,5.85.11,1.44.69,1.81,1.7,1.75,1.01-.05,1.54-.53,1.65-1.44.37-2.29.16-4.63.16-4.63l.85-.96s-.05,4.36.37,5.42c.16,1.54,1.06,1.59,1.75,1.59.96.05,1.38-1.01,1.7-1.86.48-.96-.21-4.94-.48-6.11-.69-2.18-.37-3.19.42-4.04.96-.59,2.66.16,2.92.48.48,1.17.27,1.97-.16,2.45h0Zm-.53,14.56c.37,1.44.05,1.49,1.97,2.66,1.01.69,1.28.32,2.76,1.81-1.06.48-2.07.64-2.71,3.56-.11.85.69,2.87,2.55,2.87.37.11,2.5-.11,1.75-2.23-.48-.69-1.59-.69-1.81.96-.69-.32-1.01-.85-1.06-1.7.11-1.28,1.33-2.02,2.29-2.02.59.05,2.92.64,2.71,4.2-.32,1.28-2.29,3.24-3.51,3.14-.9-.9-1.49-1.38-2.76-.27-.85-.11-3.46-1.49-3.4-4.52-.16-1.22-.21-6.49-.69-8.08-.96-2.13-2.18-1.97-2.66-.16-.27.74-.48,3.24,0,6.01,0,.85,1.17,3.72,2.82,5.69-.85-.05-3.83-2.87-4.2-6.33-.48-2.5-.27-3.61-1.28-5.95-.48-.64-.8-.8-1.17-.8s-.9-.21-1.49.96c-1.38,2.13-1.97,3.03-1.97,3.03,0,0-.74,1.81-.69,1.81-.48,1.01-1.49,6.91-.74,8.4.11,1.17,2.13,2.76,3.19-.21.64-1.22-.16-5.95-1.01-8.45.11-.05.9-1.17,1.12-1.59.27,1.81,1.59,5.37,4.73,8.61,1.65,1.97,5.05,3.3,7.12,2.98.42,1.44,2.39,1.65,3.08-.05.9.21,3.4-.9,4.31-2.92.9-2.02.9-2.92-.11-6.06-.11-.74-.32-1.49.27-2.55.16-.16.11.21,1.12.11,1.06-.11,1.33-1.38-.27-2.13-.53,0-1.7.43-2.6,2.29-.85-.96-2.23-3.4-2.23-3.4,0,0-2.34-3.62-1.49-5.74.27-.48.37-1.86,2.71-1.75.11.11,1.75.21,1.38,2.02-.37-.8-2.29-1.33-2.39.11-.11.8.05,2.13,2.02,1.75.27.05,3.46-.96.96-4.41-1.75-1.38-4.15-1.17-5.21.16-1.49,1.06-1.22,4.2-1.01,4.84.21.64,1.49,3.67,2.87,5.9-.27-.05-2.45-.43-3.72-1.75.32.11,2.13-.48,1.44-1.86-.16-.48-.69-.58-1.38-.58-.42,0-1.28.05-1.59,1.7"></path><path id="path114" class="cls-1" d="m50.88,26.28l-.75-.34-.7.43.09-.82-.62-.54.81-.17.32-.76.41.71.82.07-.55.61.19.8"></path><path id="path116" class="cls-1" d="m50.96,33.72l-.75-.34-.7.43.09-.82-.62-.54.81-.17.32-.76.41.71.82.07-.55.61.19.8"></path><path id="path118" class="cls-1" d="m60.77,30.02l-.75-.34-.7.43.09-.82-.62-.54.81-.17.32-.76.41.71.82.07-.55.61.19.8"></path><path id="path120" class="cls-1" d="m54.59,32.91l-.79-.24-.65.51v-.82s-.69-.46-.69-.46l.78-.26.22-.79.49.66.82-.03-.48.67.28.77"></path><path id="path122" class="cls-1" d="m57.93,31.7l-.8-.2-.62.54-.05-.82-.71-.42.76-.3.18-.8.53.63.82-.07-.44.7.32.76"></path><path id="path124" class="cls-1" d="m54.36,26.75l-.7-.43-.75.34.19-.8-.55-.61.82-.07.41-.71.32.76.81.17-.62.54.09.82"></path><path id="path126" class="cls-1" d="m57.53,27.79l-.59-.57-.81.16.36-.74-.4-.72.82.12.56-.6.14.81.75.35-.73.38-.1.82"></path><path id="path128" class="cls-1" d="m47.44,26.54l-.79-.24-.65.51v-.82s-.69-.46-.69-.46l.78-.26.22-.79.49.66.82-.03-.47.67.28.77"></path><path id="path130" class="cls-1" d="m47.04,33.11l-.7-.43-.75.34.19-.8-.55-.61.82-.07.41-.71.32.76.81.17-.62.54.09.82"></path><path id="path132" class="cls-1" d="m44.01,27.49l-.82-.06-.52.64-.2-.8-.77-.29.7-.43.04-.82.63.53.79-.22-.31.76.45.69"></path><path id="path134" class="cls-1" d="m43.38,32l-.68-.46-.77.3.23-.79-.52-.64.82-.02.45-.69.28.77.8.21-.65.5.05.82"></path><path id="path136" class="cls-1" d="m40.75,29.79l-.75-.34-.7.43.09-.82-.62-.54.81-.17.32-.76.41.71.82.07-.55.61.19.8"></path><path id="path138" class="cls-1" d="m10.84,60.75c.77,0,1.4-.63,1.4-1.4s-.63-1.4-1.4-1.4-1.4.63-1.4,1.4.63,1.4,1.4,1.4"></path><path id="path140" class="cls-1" d="m89.9,60.62c.77,0,1.4-.63,1.4-1.4s-.63-1.4-1.4-1.4-1.4.63-1.4,1.4.63,1.4,1.4,1.4"></path><path class="cls-1" d="m50.44,84.11c-18.64,0-33.8-15.16-33.8-33.8S31.8,16.51,50.44,16.51s33.8,15.16,33.8,33.8-15.16,33.8-33.8,33.8Zm0-67.23c-18.43,0-33.43,15-33.43,33.43s15,33.43,33.43,33.43,33.43-15,33.43-33.43-15-33.43-33.43-33.43Z"></path><path class="cls-1" d="m50,97.39c-26.13,0-47.39-21.26-47.39-47.39S23.87,2.61,50,2.61s47.39,21.26,47.39,47.39-21.26,47.39-47.39,47.39Zm0-94.29C24.14,3.11,3.11,24.14,3.11,50s21.04,46.89,46.89,46.89,46.89-21.04,46.89-46.89S75.86,3.11,50,3.11Z"></path><path class="cls-1" d="m50,100C22.43,100,0,77.57,0,50S22.43,0,50,0s50,22.43,50,50-22.43,50-50,50ZM50,1C22.98,1,1,22.98,1,50s21.98,49,49,49,49-21.98,49-49S77.02,1,50,1Z"></path></g></g></svg> 