<?xml version="1.0" encoding="UTF-8"?><svg id="Layer_4" xmlns="http://www.w3.org/2000/svg" width="1.39in" height=".55in" viewBox="0 0 100 39.64"><defs><style>.cls-1{fill:#3a357e;}</style></defs><path class="cls-1" d="m.08,39.29v-14.23h7.65l.44,2.65H2.82v2.85h4.32v2.65H2.82v3.48h6.03l-.88,2.65H.08v-.05Z"/><path class="cls-1" d="m17.39,31.64c-.69-.39-1.42-.78-2.26-.78-1.96,0-3.38,1.28-3.38,3.19s1.67,3.19,3.04,3.19c1.08,0,1.67-.25,2.55-.78l1.47,1.86c-1.03,1.03-2.6,1.32-3.92,1.32-2.7,0-5.69-2.16-5.69-5.69,0-3.19,2.7-5.49,5.79-5.49,1.52,0,2.7.49,3.88,1.23l-1.47,1.96h0Z"/><path class="cls-1" d="m24.41,28.45c3.09,0,5.84,2.4,5.84,5.59s-2.75,5.59-5.84,5.59-5.84-2.4-5.84-5.59,2.75-5.59,5.84-5.59Zm0,8.78c1.77,0,3.34-1.37,3.34-3.19s-1.57-3.19-3.34-3.19-3.34,1.37-3.34,3.19,1.57,3.19,3.34,3.19Z"/><path class="cls-1" d="m31.23,28.8l2.5-.25v1.32c.78-.93,1.42-1.42,2.7-1.42,1.03,0,1.96.44,2.7,1.32.93-.93,1.72-1.32,2.94-1.32,1.62,0,3.43.93,3.43,3.34v7.51l-2.65.15v-7.16c.1-1.28-.64-1.52-1.52-1.52-1.08,0-1.67.78-1.67,2.11v6.48l-2.65.15v-7.21c.1-1.28-.64-1.52-1.52-1.52-1.08,0-1.67.78-1.67,2.11v6.48l-2.65.15v-10.69h.05v-.03h.01Z"/><path class="cls-1" d="m46.43,28.8l2.5-.25v1.32c.78-.93,1.42-1.42,2.7-1.42,1.03,0,1.96.44,2.7,1.32.93-.93,1.72-1.32,2.94-1.32,1.62,0,3.43.93,3.43,3.34v7.51l-2.65.15v-7.16c.1-1.28-.64-1.52-1.52-1.52-1.08,0-1.67.78-1.67,2.11v6.48l-2.65.15v-7.21c.1-1.28-.64-1.52-1.52-1.52-1.08,0-1.67.78-1.67,2.11v6.48l-2.65.15v-10.69h.05v-.03h.01Z"/><path class="cls-1" d="m71.89,38.26c-1.28.88-2.85,1.37-4.41,1.37-3.09,0-5.84-2.4-5.84-5.59s2.75-5.59,5.84-5.59c2.16,0,4.07,1.32,5,3.24l-7.16,4.51c.2.44.78,1.08,2.06,1.08s2.35-.54,3.43-1.23c0,0,1.08,2.21,1.08,2.21Zm-2.7-6.92c-.49-.49-1.13-.69-1.86-.69-1.67,0-2.99,1.32-3.14,2.94,0,.25,0,.44.05.69,0,0,4.95-2.94,4.95-2.94Z"/><path class="cls-1" d="m75.72,30.41h0c.93-1.62,2.16-1.96,3.97-2.01l-.93,2.8c-2.01,0-2.89,1.18-2.89,2.99v5.05l-2.65.15v-10.6l2.5-.25v1.86h0Z"/><path class="cls-1" d="m87.54,31.64c-.69-.39-1.42-.78-2.26-.78-1.96,0-3.38,1.28-3.38,3.19s1.67,3.19,3.04,3.19c1.08,0,1.67-.25,2.55-.78l1.47,1.86c-1.03,1.03-2.6,1.32-3.92,1.32-2.7,0-5.69-2.16-5.69-5.69,0-3.19,2.7-5.49,5.79-5.49,1.52,0,2.7.49,3.88,1.23l-1.47,1.96h-.01Z"/><path class="cls-1" d="m99.41,38.26c-1.28.88-2.85,1.37-4.41,1.37-3.09,0-5.84-2.4-5.84-5.59s2.75-5.59,5.84-5.59c2.16,0,4.07,1.32,5,3.24l-7.21,4.51c.2.44.78,1.08,2.06,1.08s2.35-.54,3.43-1.23c0,0,1.13,2.21,1.13,2.21Zm-2.75-6.92c-.49-.49-1.13-.69-1.86-.69-1.67,0-2.99,1.32-3.14,2.94,0,.25,0,.44.05.69,0,0,4.95-2.94,4.95-2.94Z"/><path class="cls-1" d="m16.64,0c0,.24.04.61.08,1.1,0,0,.08,1.38-.04,1.91-.32.2-7.38,1.42-10.51,4.14-2.8,2.43-2.52,4.95-2.52,5.4,0,0-.65-3.08.2-5.8.37-1.18,1.14-2.19,2.07-3,0,0,1.58-1.38,4.5-2.56,1.01-.41,2.15-.77,3.53-1.18H0v20.65h3.49c.04-.69.16-1.46.37-2.19.37-1.18,1.14-2.19,2.07-3,0,0,1.58-1.38,4.5-2.56,1.58-.65,3.49-1.22,6.21-1.83,0,0-.12.12.04,1.74,0,0,.08,1.38-.04,1.91-.32.2-7.38,1.42-10.51,4.14-.69.61-1.18,1.22-1.54,1.79h16.03V0h-3.98Zm.04,8.89c-.32.2-7.38,1.42-10.51,4.14-2.8,2.43-2.52,4.95-2.52,5.4,0,0-.65-3.08.2-5.8.37-1.18,1.14-2.19,2.07-3,0,0,1.58-1.38,4.5-2.56,1.58-.65,3.49-1.22,6.21-1.83,0,0-.12.12.04,1.74.04.04.12,1.42,0,1.91h0Z"/><path class="cls-1" d="m30.07,20.57l-2.75.2V6.35h4.07c3.24,0,4.61,2.65,4.61,4.46,0,2.89-2.01,4.71-4.81,4.71-.39,0-.74,0-1.08-.05v5.1h-.05,0Zm0-7.65h.69c1.62,0,2.55-.59,2.55-1.96s-.88-1.96-2.55-1.96h-.69s0,3.92,0,3.92Z"/><path class="cls-1" d="m39.29,11.69h0c.93-1.62,2.16-1.96,3.97-2.01l-.93,2.8c-2.01,0-2.89,1.18-2.89,2.99v5.05l-2.65.15v-10.6l2.5-.25v1.86h0Z"/><path class="cls-1" d="m44.25,10.03c.98-.2,2.01-.29,3.04-.29,1.86,0,3.97.83,3.97,2.94v7.9l-2.4.25v-.93c-.74.64-1.67.98-2.65.98-2.26,0-3.97-1.32-3.97-3.73,0-1.91,1.62-3.58,3.58-3.58,1.13,0,1.86.2,2.89.69,0-.25.05-.44.05-.69,0-1.42-1.03-1.72-2.26-1.72-1.03,0-2.01.25-2.99.64l.74-2.45h0Zm2.55,8.68c.93,0,1.91-.54,1.91-1.52s-.98-1.52-1.91-1.52-1.91.59-1.91,1.52c0,.98.98,1.52,1.91,1.52Z"/><path class="cls-1" d="m60.53,12.92c-.69-.39-1.42-.78-2.26-.78-1.96,0-3.38,1.28-3.38,3.19s1.67,3.19,3.04,3.19c1.08,0,1.67-.25,2.55-.78l1.47,1.86c-1.03,1.03-2.6,1.32-3.92,1.32-2.7,0-5.69-2.16-5.69-5.69,0-3.19,2.7-5.49,5.79-5.49,1.52,0,2.7.49,3.88,1.23l-1.47,1.96h-.01Z"/><path class="cls-1" d="m63.87,8.21l2.65-1.18v2.99h2.4v2.26h-2.4v4.51c0,1.03.44,1.67,1.96,1.67.29,0,.64,0,.93-.05l-.64,2.35c-.25.05-.69.1-1.03.1-2.21,0-3.83-1.18-3.83-3.53v-5h-1.62l.59-2.26h1.03v-1.86h-.05s0,0,.01,0Z"/><path class="cls-1" d="m73.68,7.23l-1.77,1.77-1.77-1.77,1.77-1.77s1.77,1.77,1.77,1.77Zm-3.14,2.85l2.65-.25v10.79l-2.65.15s0-10.69,0-10.69Z"/><path class="cls-1" d="m82.26,12.92c-.69-.39-1.42-.78-2.26-.78-1.96,0-3.38,1.28-3.38,3.19s1.67,3.19,3.04,3.19c1.08,0,1.67-.25,2.55-.78l1.47,1.86c-1.03,1.03-2.6,1.32-3.92,1.32-2.7,0-5.69-2.16-5.69-5.69,0-3.19,2.7-5.49,5.79-5.49,1.52,0,2.7.49,3.88,1.23l-1.47,1.96h-.01Z"/><path class="cls-1" d="m86.09,10.03c.98-.2,2.01-.29,3.04-.29,1.86,0,3.97.83,3.97,2.94v7.9l-2.4.25v-.93c-.74.64-1.67.98-2.65.98-2.26,0-3.97-1.32-3.97-3.73,0-1.91,1.62-3.58,3.58-3.58,1.13,0,1.86.2,2.89.69,0-.25.05-.44.05-.69,0-1.42-1.03-1.72-2.26-1.72-1.03,0-2.01.25-2.99.64l.74-2.45h0Zm2.55,8.68c.93,0,1.91-.54,1.91-1.52s-.98-1.52-1.91-1.52-1.91.59-1.91,1.52c0,.98.98,1.52,1.91,1.52Z"/><path class="cls-1" d="m94.13,12.38v-6.03l2.65-.34v6.67"/><path class="cls-1" d="m96.73,12.33v4.51c0,1.03.44,1.67,1.96,1.67.29,0,.64,0,.93-.05l-.64,2.35c-.25.05-.69.1-1.03.1-2.21,0-3.83-1.18-3.83-3.53v-5.05"/></svg>