<?xml version="1.0" encoding="UTF-8"?> <svg xmlns="http://www.w3.org/2000/svg" id="Layer_1" width="599.76" height="400.32" viewBox="0 0 599.76 400.32"><defs><style>.cls-1{fill:#fff;fill-rule:evenodd;}</style></defs><path class="cls-1" d="m114.73,222.16c2.84,1.33,6,2,9.47,2s6.42-.64,9.27-1.93c2.84-1.33,5.29-3.09,7.33-5.27,2.04-2.22,3.64-4.76,4.8-7.6,1.16-2.89,1.73-5.91,1.73-9.07,0-2.98-.56-5.91-1.67-8.8-1.11-2.89-2.67-5.47-4.67-7.73-2-2.27-4.42-4.09-7.27-5.47-2.8-1.42-5.91-2.13-9.33-2.13s-6.42.67-9.27,2c-2.84,1.29-5.31,3.04-7.4,5.27-2.04,2.22-3.67,4.78-4.87,7.67-1.16,2.89-1.73,5.91-1.73,9.07s.56,5.98,1.67,8.87,2.67,5.47,4.67,7.73c2.04,2.22,4.47,4.02,7.27,5.4Zm-3.33-16.07c-.62-1.91-.93-3.89-.93-5.93s.29-3.87.87-5.73c.62-1.91,1.51-3.6,2.67-5.07,1.16-1.51,2.6-2.71,4.33-3.6,1.73-.93,3.71-1.4,5.93-1.4s4.04.44,5.73,1.33c1.73.84,3.18,2,4.33,3.47,1.2,1.47,2.11,3.16,2.73,5.07.67,1.91,1,3.89,1,5.93s-.31,3.89-.93,5.8c-.58,1.87-1.47,3.56-2.67,5.07-1.16,1.51-2.6,2.73-4.33,3.67-1.69.89-3.64,1.33-5.87,1.33s-4.13-.44-5.87-1.33c-1.69-.89-3.13-2.07-4.33-3.53-1.16-1.47-2.04-3.16-2.67-5.07Zm-12.12-21.53h-15.13v39.27h-9.13v-39.27h-15.13v-8.07h39.4v8.07Zm114.44-8.07h8.14l18.02,47.33h-9.48l-4.4-11.8h-16.55l-4.34,11.8h-9.48l18.09-47.33Zm10.61,29.07l-6.54-18.6-6.81,18.6h13.35Zm-69.2,18.27v-47.33h9.2v39.27h24.13v8.07h-33.33Zm93.72-32.53c-.98,2.8-1.47,5.62-1.47,8.47,0,3.02.53,6,1.6,8.93,1.11,2.89,2.64,5.49,4.6,7.8,1.96,2.27,4.29,4.11,7,5.53,2.71,1.42,5.69,2.13,8.93,2.13,1.82,0,3.67-.24,5.53-.73,1.91-.49,3.71-1.2,5.4-2.13,1.69-.93,3.22-2.07,4.6-3.4,1.38-1.38,2.44-2.96,3.2-4.73l-3.87-2c-.76,1.56-1.69,2.89-2.8,4-1.11,1.07-2.33,1.98-3.67,2.73-1.29.71-2.64,1.24-4.07,1.6-1.38.31-2.73.47-4.07.47-2.53,0-4.89-.53-7.07-1.6-2.13-1.11-4-2.58-5.6-4.4-1.56-1.87-2.8-4-3.73-6.4-.89-2.4-1.33-4.91-1.33-7.53,0-2.4.38-4.76,1.13-7.07.76-2.36,1.87-4.47,3.33-6.33,1.51-1.87,3.36-3.38,5.53-4.53,2.18-1.16,4.69-1.73,7.53-1.73,1.29,0,2.6.16,3.93.47,1.33.27,2.62.73,3.87,1.4,1.24.67,2.4,1.53,3.47,2.6,1.11,1.07,2.04,2.38,2.8,3.93l3.67-2.27c-1.42-3.07-3.64-5.56-6.67-7.47-2.98-1.91-6.58-2.87-10.8-2.87-3.56,0-6.73.71-9.53,2.13-2.8,1.38-5.16,3.18-7.07,5.4-1.91,2.22-3.38,4.76-4.4,7.6Zm228.52-14.87h-3.93l-19.8,47.33h5l6.07-14.8h21.27l6.13,14.8h4.93l-19.66-47.33Zm-2,5.47l9.53,23.4h-19.2l9.67-23.4Zm32.82,41.87v-47.33h4.67v43.2h27.03v4.13h-31.7Zm-73.52-43.2h16.87v-4.13h-38.4v4.13h16.86v43.2h4.67v-43.2Zm-83.78,43.2v-47.33h19.6c2.04,0,3.91.44,5.6,1.33,1.73.84,3.22,1.98,4.47,3.4,1.24,1.38,2.22,2.96,2.93,4.73.71,1.78,1.07,3.58,1.07,5.4,0,1.96-.33,3.84-1,5.67-.67,1.78-1.6,3.36-2.8,4.73-1.2,1.38-2.64,2.49-4.33,3.33-1.64.84-3.49,1.27-5.53,1.27h-15.33v17.47h-4.67Zm4.67-21.6h15.13c1.38,0,2.62-.29,3.73-.87,1.16-.62,2.13-1.42,2.93-2.4.8-1.02,1.42-2.18,1.87-3.47.44-1.33.67-2.71.67-4.13s-.27-2.84-.8-4.13c-.49-1.33-1.18-2.49-2.07-3.47-.84-.98-1.87-1.73-3.07-2.27-1.16-.58-2.38-.87-3.67-.87h-14.73v21.6Zm41.08-25.73v47.33h4.67v-47.33h-4.67Zm-81.45,0h3.93l19.67,47.33h-4.93l-6.13-14.8h-21.27l-6.07,14.8h-5l19.8-47.33Zm11.47,28.87l-9.53-23.4-9.67,23.4h19.2Z"></path></svg> 