<?xml version="1.0" encoding="UTF-8"?> <svg xmlns="http://www.w3.org/2000/svg" id="Layer_1" width="100" height="15.09" viewBox="0 0 100 15.09"><defs><style>.cls-1{fill:#3a357e;stroke-width:0px;}</style></defs><polygon class="cls-1" points="8.06 2.01 8.06 3.14 8.84 3.14 8.84 9.48 7.18 9.48 7.18 1.14 8.06 1.14 8.06 0 3.91 0 3.91 1.14 4.8 1.14 4.8 9.48 3.12 9.48 3.12 3.14 3.9 3.14 3.9 2.01 0 2.01 0 3.14 .88 3.14 .88 10.48 2.32 11.94 4.8 11.94 4.8 13.63 3.92 13.63 3.92 15.09 8.06 15.09 8.06 13.63 7.18 13.63 7.18 11.94 9.64 11.94 11.08 10.48 11.08 3.14 11.96 3.14 11.96 2.01 8.06 2.01"></polygon><path class="cls-1" d="m16.75,10.19v-4.58h-.61v-.26h2.3v.26h-.61v4.58h.61v.26h-2.3v-.26h.61,0Z"></path><path class="cls-1" d="m23.16,10.51l-3.05-3.8v2.95c0,.25.02.4.07.45.04.05.15.08.33.09h.3v.26h-1.55v-.26h.2c.17,0,.29-.03.33-.09.05-.06.07-.21.06-.45v-4.31h.55l2.94,3.68v-2.87c0-.25-.02-.4-.07-.46-.04-.05-.16-.08-.33-.09h-.2v-.27h1.46v.26h-.2c-.17,0-.28.03-.33.09-.04.06-.07.21-.07.46v4.36h-.46Z"></path><path class="cls-1" d="m25.58,10.19v-4.58h-.61v-.26h2.39c.52,0,.91.05,1.15.15.3.14.57.34.78.59.42.47.63,1.08.63,1.82.01.5-.11.99-.34,1.43-.33.64-.98,1.06-1.7,1.1-.13,0-.3.01-.51.01h-2.39v-.26h.61Zm1.07,0h.71c.19,0,.38-.01.56-.07.27-.11.47-.35.58-.72.09-.31.14-.81.14-1.51.01-.47-.02-.94-.11-1.4-.08-.35-.24-.61-.47-.75-.1-.07-.22-.11-.34-.12-.12-.01-.23-.02-.35-.01h-.71v4.58h0Z"></path><path class="cls-1" d="m31.42,10.19v-4.58h-.61v-.26h2.29v.26h-.61v4.58h.61v.26h-2.29v-.26h.61,0Z"></path><path class="cls-1" d="m36.63,9.12h-1.6l-.27.78c-.02.06-.04.13-.05.19,0,.07.09.1.26.1h.36v.26h-1.58v-.26h.23c.19,0,.31-.03.37-.09.07-.1.13-.2.16-.32l1.64-4.45h.24l1.75,4.85h.54v.26h-2.29v-.26h.66l-.42-1.07Zm-.08-.26l-.72-1.97-.71,1.97h1.43Z"></path><path class="cls-1" d="m43.09,10.51l-3.04-3.8v2.95c0,.25.02.4.07.45.04.05.15.08.33.09h.3v.26h-1.55v-.26h.2c.17,0,.29-.03.33-.09.05-.06.07-.21.06-.45v-4.31h.55l2.94,3.68v-2.87c0-.25-.02-.4-.07-.46s-.16-.08-.33-.09h-.2v-.27h1.46v.26h-.2c-.17,0-.28.03-.33.09-.04.06-.07.21-.07.46v4.36h-.45,0Z"></path><path class="cls-1" d="m47.35,9.12h-1.6l-.27.78c-.02.06-.04.13-.05.19,0,.07.09.1.26.1h.36v.26h-1.58v-.26h.23c.19,0,.31-.03.37-.09.07-.1.13-.2.16-.32l1.64-4.45h.24l1.75,4.85h.53v.26h-2.28v-.26h.66l-.42-1.07Zm-.08-.26l-.72-1.97-.71,1.97h1.43Z"></path><path class="cls-1" d="m52.86,5.61h-.61v-.26h2.38v.26h-.69v3.21c0,.22,0,.43.03.65.03.24.16.46.36.59.2.13.44.19.68.18.48,0,.82-.14,1.02-.42.08-.12.14-.26.16-.4.03-.2.04-.4.04-.61v-2.65c0-.25-.02-.41-.07-.47s-.16-.09-.33-.09h-.2v-.26h1.46v.26h-.2c-.17,0-.28.03-.33.09-.04.06-.07.21-.07.47v2.66c.01.28-.01.55-.07.82-.1.31-.33.57-.62.72-.33.16-.68.23-1.04.22-.36,0-.72-.06-1.06-.19-.37-.14-.62-.35-.75-.63-.06-.15-.09-.3-.09-.46,0-.11,0-.27,0-.49v-3.21h0Z"></path><path class="cls-1" d="m61.45,10.51l-3.04-3.8v2.95c0,.25.02.4.07.45.04.05.15.08.33.09h.3v.26h-1.56v-.26h.2c.17,0,.29-.03.33-.09.05-.06.07-.21.06-.45v-4.31h.55l2.94,3.68v-2.87c0-.25-.02-.4-.07-.46s-.16-.08-.33-.09h-.2v-.27h1.46v.26h-.2c-.17,0-.28.03-.33.09s-.07.21-.07.46v4.36h-.45Z"></path><path class="cls-1" d="m63.9,10.19v-4.58h-.61v-.26h2.3v.26h-.61v4.58h.61v.26h-2.3v-.26h.61Z"></path><path class="cls-1" d="m67.84,5.61l1.29,3.34,1.01-3.03s.03-.1.04-.15c0-.05-.02-.1-.07-.12-.12-.03-.24-.05-.36-.04h-.17v-.26h1.48v.26h-.12c-.13,0-.26.03-.36.11-.09.1-.15.22-.19.36l-1.5,4.48h-.22l-1.95-4.95h-.47v-.26h2.21v.26h-.61,0Z"></path><path class="cls-1" d="m72.29,10.19v-4.58h-.61v-.26h4.03l.12,1.3h-.25c-.09-.39-.23-.67-.4-.82-.13-.1-.28-.17-.44-.2-.16-.02-.31-.03-.47-.02h-.89v2.12h.21c.2.01.4-.03.58-.12.14-.1.23-.25.26-.42.02-.11.03-.22.03-.33h.25v2.08h-.25c0-.23-.04-.45-.14-.65-.11-.2-.36-.3-.76-.3h-.19v2.2h.71c.3.01.6-.03.89-.12.36-.15.62-.56.76-1.23h.26l-.11,1.62h-4.2v-.26h.61,0Z"></path><path class="cls-1" d="m77.47,10.19v-4.58h-.61v-.26h2.2c.37-.01.73.02,1.09.1.31.08.59.27.77.53.11.17.17.37.17.58,0,.42-.2.74-.6.97-.19.11-.4.18-.61.2-.07,0-.19.02-.34.03.28.04.56.13.82.24.28.11.51.33.63.61.06.15.09.31.09.46l-.02.41v.06c0,.25.05.42.14.53.07.09.17.14.28.14h.2v.26h-.73c-.28,0-.49-.06-.61-.17-.09-.08-.16-.17-.22-.27-.07-.13-.1-.28-.09-.43v-.68c0-.35-.09-.6-.26-.75-.12-.11-.27-.19-.43-.24-.19-.04-.38-.06-.57-.05h-.21v2.34h.61v.26h-2.29v-.26h.61,0Zm1.08-2.6h.52c.19,0,.37-.02.55-.07.26-.11.4-.44.4-.99,0-.34-.08-.59-.23-.76-.08-.08-.18-.13-.29-.14-.14-.02-.28-.03-.42-.02h-.52v1.99Z"></path><path class="cls-1" d="m85.75,5.35v1.38h-.25c-.05-.29-.17-.56-.36-.79-.22-.28-.54-.43-.97-.43-.23,0-.47.05-.67.18-.22.12-.36.35-.36.6,0,.16.06.32.16.44.11.12.3.23.59.33l.54.15c.39.11.66.2.82.26.3.12.56.34.7.63.12.24.18.51.18.78,0,.33-.08.64-.25.92-.16.28-.41.49-.71.61-.26.12-.54.18-.82.18-.49,0-.97-.16-1.37-.45l-.25.33h-.21v-1.42h.28c.06.3.2.57.4.8.3.31.71.47,1.13.46.28,0,.54-.09.76-.25.25-.19.38-.4.38-.65,0-.22-.09-.42-.25-.58-.17-.16-.37-.27-.59-.33-.08-.02-.4-.12-.96-.28-.2-.05-.39-.12-.57-.22-.39-.25-.59-.63-.59-1.14-.02-.44.15-.87.47-1.17.31-.29.72-.45,1.15-.43.3,0,.59.07.85.21.07.04.16.09.27.16l.26-.24h.2Z"></path><path class="cls-1" d="m87.64,10.19v-4.58h-.61v-.26h2.3v.26h-.61v4.58h.61v.26h-2.3v-.26h.61,0Z"></path><path class="cls-1" d="m91.82,10.19v-4.58h-.21c-.23-.01-.47.03-.68.12-.36.19-.57.59-.63,1.19h-.25l.09-1.57h4.42l.1,1.57h-.25c-.02-.34-.13-.67-.34-.95-.12-.16-.29-.27-.48-.32-.16-.03-.33-.05-.49-.04h-.21v4.59h.69v.26h-2.45v-.26h.69,0Z"></path><path class="cls-1" d="m97.14,10.19v-2.1l-1.48-2.49h-.47v-.26h2.35v.26h-.65l1.22,2.1.95-1.78c.04-.06.07-.14.08-.21,0-.05-.03-.09-.08-.11-.06-.01-.12-.01-.18-.01h-.36v-.26h1.48v.26h-.14c-.12,0-.24.02-.34.09-.08.08-.15.18-.2.29l-1.1,2.1v2.11h.69v.26h-2.46v-.26h.69Z"></path></svg> 