<?xml version="1.0" encoding="UTF-8"?> <svg xmlns="http://www.w3.org/2000/svg" id="Layer_1" width="100" height="6.47" viewBox="0 0 100 6.47"><defs><style>.cls-1{fill:#fff;}</style></defs><g id="LOGOS_fm-white"><polyline id="Fill-1" class="cls-1" points="5.91 1.07 .98 1.07 .98 2.63 4.39 2.63 4.39 3.56 .98 3.56 .98 6.25 0 6.25 0 .15 5.91 .15 5.91 1.07"></polyline><polygon id="Fill-2" class="cls-1" points="9.03 6.25 10 6.25 10 .15 9.03 .15 9.03 6.25"></polygon><path id="Fill-3" class="cls-1" d="m18.25,3.02c.73,0,1.12-.29,1.12-.93,0-.68-.39-1.02-1.22-1.02h-3.03v1.95h3.13Zm2.15,3.22h-1.12l-1.56-2.34h-2.59v2.34h-.98V.15h4.25c.63,0,1.07.2,1.46.54.34.34.54.83.54,1.42,0,.54-.15.93-.44,1.27-.24.29-.63.49-1.07.54l1.51,2.34v-.02Z"></path><path id="Fill-4" class="cls-1" d="m29.23,1.61c-.88-.49-1.76-.68-2.64-.68-.59,0-1.07.1-1.37.2-.34.15-.49.34-.49.59,0,.29.15.49.49.59.24.1.63.2,1.22.2.83.05,1.32.1,1.61.15.73.1,1.27.29,1.61.59s.54.68.54,1.17c0,.63-.29,1.12-.83,1.51-.54.34-1.32.54-2.34.54-1.51,0-2.64-.34-3.47-1.02l.54-.73c.93.59,1.9.88,2.98.88.68,0,1.22-.1,1.61-.29.34-.2.54-.44.54-.78,0-.39-.24-.63-.73-.78-.24-.05-.93-.15-2-.2-.98-.05-1.66-.2-2.05-.39-.44-.24-.68-.63-.68-1.17,0-.59.24-1.02.78-1.37.54-.34,1.22-.49,2.2-.49,1.27,0,2.29.29,3.17.88l-.68.63"></path><polyline id="Fill-5" class="cls-1" points="39.04 1.07 36.26 1.07 36.26 6.25 35.29 6.25 35.29 1.07 32.5 1.07 32.5 .15 39.04 .15 39.04 1.07"></polyline><polyline id="Fill-6" class="cls-1" points="50.12 6.25 49.19 6.25 49.19 1.27 49.15 1.27 46.12 5.27 43.09 1.27 43.09 1.27 43.09 6.25 42.12 6.25 42.12 .15 43.34 .15 46.12 3.85 48.95 .15 50.12 .15 50.12 6.25"></polyline><path id="Fill-7" class="cls-1" d="m58.47,4l-1.51-2.98-1.51,2.98h3.03-.01Zm2.2,2.24h-1.07l-.68-1.37h-3.95l-.68,1.37h-1.07L56.27.15h1.22l3.17,6.1h0Z"></path><path id="Fill-8" class="cls-1" d="m67.5,3.02c.73,0,1.12-.29,1.12-.93,0-.68-.39-1.02-1.22-1.02h-2.98v1.95h3.08Zm2.2,3.22h-1.12l-1.56-2.34h-2.59v2.34h-.98V.15h4.25c.63,0,1.07.2,1.46.54.34.34.54.83.54,1.42,0,.54-.15.93-.44,1.27-.24.29-.63.49-1.07.54l1.51,2.34v-.02Z"></path><polyline id="Fill-9" class="cls-1" points="79.99 6.25 78.72 6.25 75.94 3.07 74.18 4.39 74.18 6.25 73.21 6.25 73.21 .15 74.18 .15 74.18 3.32 78.28 .15 79.65 .15 76.67 2.49 79.99 6.25"></polyline><path id="Fill-13" class="cls-1" d="m88.82.19s.05.05,0,0"></path><path id="Fill-14" class="cls-1" d="m85.8.34c.05-.2.05.2,0,0"></path><path id="Fill-18" class="cls-1" d="m93.85,5.66s0,.05,0,0t0,0Zm-.34.1c.05-.1-.05-.1-.05-.05l.05.05Zm-.2-.34c-.07,0-.13-.02-.2-.05,0,.15.2.05.2.05Zm.2-.1s0-.05-.05-.05c-.05.1.05.1.05.05Zm-.44-.1s.1.05.1-.05c-.05-.05-.1,0-.1.05Zm-.05-.05s0-.1-.05-.05c0,.05.05.15.05.05Zm.59-.15s-.05,0,0,0c-.05.05,0,.05,0,0Zm1.85-.29s-.05,0,0,0h0Zm-1.95.05c.05-.1-.05-.1-.05-.05s0,.1.05.05Zm1.32-.15s0,.05,0,0c.05.05.05,0,.1,0,.15,0-.05-.1-.1,0h0s-.05,0-.05.05c.05,0,.05-.05.05-.05Zm-1.32.15c.1.05.44.05.59-.1-.24,0-.39-.1-.59.1Zm-.63-.15s-.05,0-.05.05c0-.05.05,0,.05-.05Zm.54-.1s-.05,0,0,0c-.05,0,0,.05,0,0Zm-.15-.1h0Zm.73,0h0c.05-.1-.05-.1,0,0q.03.07,0,0Zm-1.27,0h0s0,.05,0,0Zm.98-.1s-.05,0,0,0h0Zm-.39,0h0s0,.05,0,0Zm.05.1s.05.1.1,0v-.05s.05,0,.05-.05c-.1,0-.15-.05-.15.1Zm-.59-.05s0,.05,0,0c.05,0,0-.05,0,0Zm1.42-.15c0,.15.05.05.1.05.05-.15-.05-.1-.1-.05Zm.34-.05s0,.05.05.05c0,0,.05-.15,0-.15,0,.07-.02.1-.05.1-.05,0-.05-.05-.05-.05,0,.1.05.05.05.05Zm-.15,0s0,.05,0,0c0,0,.05,0,0,0l.05.05h.05v-.1s-.1-.05-.1.05Zm-1.22.1s.05.05.1.05v-.1c0,.1-.1-.05-.1.05Zm1.02-.15s.05,0,0,0l.05-.05h-.05v.05Zm-.83.05s0,.05,0,0c.05-.05.05.05.1.05,0-.15-.05-.05-.1-.1,0,0,0,.05,0,.05Zm-.44,0s-.1,0-.1.1c.05-.05.1.05.1-.1,0,0,0-.05,0,0Zm-.49,0s-.05,0,0,0t0,0Zm2.05-.2s-.1,0-.1.1c.05,0,.15.1.15-.05-.1.05.05-.15-.05-.1v.05Zm-1.32.05s.05,0,.05-.05h-.05v.05Zm1.56-.15s.1,0,.1-.1c-.05.05-.1.05-.1.1Zm.59-.2h0Zm-.1,0s-.05,0-.05.05c0-.05.05,0,.05-.05Zm-.83.1s.05-.05.05-.1c-.05-.05-.1.05-.05.1Zm.1-.2h0l.05-.05h-.05v.05Zm.44-.24h0s0,.05,0,0Zm.1.05s.05,0,.05-.05h-.05v.05Zm.1-.39s-.1-.05-.1.05c.05,0,.1.05.1-.05Zm.54-.1c.1-.05.2.15.24-.05-.1.1-.2-.05-.24.05Zm.05-.15s-.05,0,0,0c0,0,0,.05,0,0Zm-11.62.39h0Zm10.88-.34s.05,0,0,0v-.05s.15,0,.15.1c.05.05-.2-.05-.15-.05Zm.24-.1h0s0,.05,0,0Zm.49.05c0-.1,0-.15-.05-.1,0,.1.05.05.05.1Zm-.63.1c0-.15.1,0,.1-.2,0-.13-.03-.13-.1,0,0,.1-.05.15,0,.2Zm-10.98.24s.05.05.1.05c0-.15-.05-.15-.1-.15.05-.05,0-.15-.05-.2,0,.1,0,.2.05.29h0Zm12.59-.98s-.05,0,0,0h0Zm-1.85.2c.1.15.15-.05.34.05,0-.1,0-.15.05-.1,0,.05-.05.1,0,.1.1-.15.34,0,.49-.15-.39-.1-.49,0-.88.1Zm-3.22.05s-.05,0,0,0c0,0,0,.05,0,0Zm3.81-.39h0Zm-1.07.05s-.1-.05-.1.05c.05,0,.15.05.1-.05Zm-1.12.15s.05-.1.05-.15c0-.03-.02-.02-.05.05-.05.1.05.05,0,.1Zm1.22-.29s0,.05,0,0h0c.05.1,0,.2-.05.05v.15s.05-.1.05,0v.05s.1-.1.1-.2c-.1.1-.05-.1,0-.15-.05.05-.15,0-.1.1Zm1.32-.29s-.05,0,0,0c-.05.05,0,.05,0,0Zm-.1.15c0-.15.1,0,.05-.15h-.05s-.05.15,0,.15Zm-.05,0s0-.05,0,0t0,0s0-.03,0,0c0,.05,0-.1-.05-.1,0,0,0,.1.05.1Zm-2.24-.05s-.05.05,0,0t0,0Zm2.54-.15s.05,0,0,0c.1-.1,0-.1,0,0q0,.07,0,0Zm-1.9.1s-.05-.05,0,0c-.05,0,0,.05,0,0Zm-.05-.1s-.05,0,0,0t0,0Zm1.56-.1c0,.1.49.05.44.05,0,.1-.39.05-.34.05-.05,0-.1-.05-.05-.15-.05,0,.44,0,.44,0,0,.05-.54.05-.49.05Zm.1-.1s-.05,0,0,0c0,0,0,.05,0,0Zm.34.05v.05s.05-.1,0-.05c0-.05,0,0,0,0Zm-11.81.34s-.05,0,0,0t0,0Zm9.71-.29s0,.05,0,0,0-.05,0,0Zm.44-.1s-.05,0,0,0t0,0Zm-.24,0h0s0,.05,0,0Zm.98-.05s0-.05,0,0l.05-.05h-.05v.05Zm-.73,0h0l.05-.05h-.05v.05Zm-.1.05s.05,0,.05-.1c0-.07-.02-.03-.05.1Zm-.15,0s.05,0,0,0l.05-.05h-.05v.05Zm.34-.1s.1,0,.1-.1c-.05,0-.1,0-.1.1Zm-3.81.05h0Zm4.1-.29s-.05,0,0,0c-.05.05,0,.05,0,0Zm-3.56.2h0Zm-.83.05h0Zm.34-.1s-.05.05,0,0c-.05.05,0,.05,0,0Zm3.37-.15h0Zm-3.47.15s-.1-.05-.1.05c.05-.05.1,0,.1-.05Zm-.49.05c0,.1.1-.05,0,0,0-.05-.05,0,0,0Zm-6.1.2s.05,0,.05-.05,0-.1-.05-.1c.05.1,0,.05,0,.15Zm6.34-.2s.1.05.1-.05c-.05-.05-.1-.05-.1.05Zm3.03-.29s-.05,0-.05.05.05.05.05-.05Zm-.1.1h0l.05-.05h-.05v.05Zm-3.07.15s-.05,0-.05-.05c0,.1.1.1.05.05Zm-6.25.1l.05-.05s-.05-.05-.05.05Zm9.66-.39s-.05,0-.05.05c0,.03.02.02.05-.05Zm-.2.05s0,.05,0,0c.15.05.1-.1,0,0Zm-2.59.1s-.05,0-.05.05c0,.03.02.02.05-.05Zm3.51-.2s0,.05,0,0c.05.1.05-.1,0,0Zm-.68.1c.05-.1.15.1.2-.1-.05,0-.2-.05-.2.1Zm-9.52.15s-.05,0,0,0c-.05.05,0,.05,0,0Zm9.91-.29s-.05.05-.1-.05c0,.15.1.15.1.05Zm-.2.15s.05-.05.05,0c0,.03.02,0,.05-.1.05-.15-.05,0-.05.05,0,.03-.02.02-.05-.05-.05-.1-.05.05,0,.1Zm.05.15s-.1-.15-.15.05c.1,0,.1.1.15-.05,0,0,0-.05.05-.05-.05.15.05.29-.05.2.05.24.2.1.29.05.05,0,.05.05.1.05,0-.1,0-.2.1-.2,0,.2.15-.05.2.15.05-.34.15-.05.29-.05-.05-.15.05-.2-.05-.24-.05.1-.24,0-.29-.05.1.05.15-.15.2-.05,0-.1,0-.29-.05-.15,0,.24-.44,0-.44.39-.05-.1-.2.1-.15-.15-.05.05-.2-.05-.2.1h0Zm1.46-.54s-.1-.05-.1.05c.05-.05.1.05.1-.05Zm-.15,0s-.05,0-.05.05c0,.03.02.02.05-.05Zm-.39.15s.05,0,.05-.1v-.05h-.05v.15Zm.05-.1c.05.15.15.1.15,0-.05-.1-.05-.05-.15,0Zm-.1,0s-.05.05,0,0c0,.1.05.24.05.15-.05,0-.05-.15-.05-.15h0s0-.05,0,0Zm1.56-.15h0s0,.05,0,0Zm-1.9.24c-.1.05-.24.05-.34.15.1-.05.29-.05.34-.1v-.05c.1.1.2,0,.29-.05,0,0-.05,0-.05-.05.05,0,.1,0,.1-.1-.15.05-.39.05-.34.2Zm-.39-.15c0,.2.05-.2,0,0,0,0-.05,0,0,0Zm-2.2.29h.05c0-.07-.02-.1-.05-.1v.1Zm-.98-.05s-.05,0-.05.05c0,.03.02.02.05-.05Zm3.32-.24s.05.05.1-.05c0,0,0-.05-.05-.05,0,.05-.1.05-.05.1Zm-.34.05s.1-.05.05-.15c-.05,0-.1.05-.05.15Zm-1.07.05h.05s0-.2-.05-.15c0,.1-.05.1,0,.15Zm-.78.2s.05-.2,0-.15v.15Zm2.34-.34l.05-.05s-.02.02-.05.05Zm-.54-.05l.05-.05c-.05-.05-.1-.05-.05.05Zm.15-.1s.05.05,0,0c.05,0,0-.05,0,0Zm-.05,0s-.05-.05-.05,0c0,.1.05.1.05,0Zm-.15.05h0l.05-.05h-.05v.05Zm-.1,0s.05,0,0,0l.05-.05h-.05v.05Zm-.05,0s.05-.05,0,0c0-.1,0,0,0,0Zm-.49.05s.1.05.05-.05h-.05v.05Zm-.05-.1s-.05-.05-.1,0c0,.2.15.1.1,0Zm-.2.1c.05-.1-.05-.1-.05-.05.05,0,.05.05.05.05Zm-.1,0s.05,0,0,0l.05-.05h-.05v.05Zm-.15,0c.05-.1-.1-.1-.1-.05.05.05.05.1.1.05Zm0,0h-.15c0,.2.15.2.15,0Zm-.59.15s0,.05,0,0c.05.05.1.05.1-.1-.05.05-.05-.05-.1.1Zm-.05-.1h-.24c.05.24.24.15.24,0Zm-.24,0s-.05,0-.05.05c0,0,.05,0,.05-.05Zm-.05,0l-.29.05s.29,0,.29-.05Zm-.78.1s-.1-.05-.15-.05c0,.2.1.15.15.05Zm-.29.1s.05-.05.05-.1c0,0-.05,0-.05.1Zm-.29.05c.1.03.2,0,.29-.1.14-.15-.29-.1-.29.1Zm-.44-.05s.1,0,.05-.1h-.05v.1Zm4.54-.39s-.1-.05-.1.05c-.1-.05-.29-.1-.34.1.1-.05.15-.05.24,0,0,.1.05.1.05.05-.05,0-.05-.05-.05-.05,0-.1.05.05.05-.05.05-.05.1,0,.15-.1q.03-.07,0,0Zm-10.1.1s.1.05.05-.05c-.03-.07-.05-.05-.05.05Zm8.69,5.56s-.1.05-.1.15c-.05-.1-.1-.15-.15-.05-.1-.2-.05.1-.2-.1-.05,0,0,.05,0,.1-.1-.05-.29.05-.44.1-.05,0-.2-.1-.15.1-.1-.1-.15-.05-.24.05-.05-.2-.2.1-.24-.1-.1-.05-.39.1-.49.1s-.2-.2-.29,0c-.05-.24-.15.1-.2-.15-.2.34-.44-.1-.73.2-.05,0-.05-.1-.1-.1-.1.2-5.61-.1-5.76-.05-.15-.1,0-.49-.05-.59,0-.05,0-.29-.05-.44-.05-.29,0-.44,0-.68-.1-.1-.05-.39-.05-.54.15.05.15-.29.2-.39v-.24s.05-.05.05-.05c.05.05.05-.34,0-.34,0-.29-.05-.98-.1-1.27.05,0,.1-.1,0-.05.05-.1.15,0,.15-.1-.05-.1-.1-.1-.15-.1.05-.15,0-.15,0-.29.05,0,.05-.05.05-.05,0-.05-.05-.05-.05-.05,0-.05,0-.15.05-.1,0-.1-.05-.05-.05-.2l.05-.05c.05-.34.24-.49.39-.39.05,0,2.78-.2,2.83-.15-.05.15.05,0,.05,0,0,.1.05.15.1.15,0,.15.05.1.1.15.05-.15,2.15-.05,2.2-.2.05-.05.15.05.1.15,0,0,.05,0,.05.05.15-.15.34.1.49-.05,0-.1-.05-.05-.05-.15.05-.05,0,0,.05,0v.15c.15.2.44-.05.54.1,0-.05.05-.05.05-.15h0c.2.05.73.15.83,0,.1.05.1.1.2-.05.05.1.15-.05.15.1.05-.15.1-.1.15-.24.05,0,.05.15.1.2.05-.05.1.05.1,0,.05.05,0,.1-.05.1.05.1.1.05.15,0,0-.05-.05-.05-.05-.05.05-.15.24-.15.34-.15.15,0,.24.1.34,0v-.1s.05.15.1.15c.59-.24.93.15,1.32-.24h.1v.05c-.05.1-.15.1-.24.24.05.24.15-.2.2,0-.05,0-.05.05-.05.05,0,0,.02-.02.05-.05.05-.05.05,0,0-.05,0-.1.05.05.05.1.1-.05.2.1.24-.1.05,0,0,.1.05.1.05-.05-.05-.15,0-.15.05.05.1.05.1.15,0,0,.05,0,.05-.05,0-.03.02-.05.05-.05.05,0,.05.05.05.05v-.1h0s-.24.1-.24.15c.05,0,.29-.2.24-.15,0-.1-.2-.05-.15-.05,0,.15-.05-.05-.05.1.1.05.15.05.2-.05l.05-.05c0,.1-.05.1-.05.2.2-.15.78.1,1.02-.05v.1c.05-.2.15-.2.24,0-.1.1-.24-.1-.24.2-.05,0,0-.05,0-.15-.1,0-.15.05-.2,0-.05.1-.68.1-.68.1-.05,0-.05.05,0,.1-.05,0-.05-.1-.1-.05,0-.05,0,0,0,0,0,0-.05,0-.05.05,0,0-.05,0-.05-.05.05-.05,0-.15-.05-.1,0,.05.05,0,.05.1-.05,0,0,.05-.05.1-.05,0,0-.15-.05-.1,0,.05-.05.1-.05.2v-.05s0-.05,0,0c-.05,0,.2-.1.15-.05-.05-.1-.1.15-.2.1,0-.1.05-.1.1-.1,0-.2-.15.05-.2-.05,0,.15.1.1,0,.2.05.1.1,0,.15.05v.1h-.1c-.05.15.05,0,.05.1.05,0,.05-.05,0-.1.05-.05.05.15.1,0v.1h.1s-.05,0-.05-.05c.05,0-.1-.15-.1.05h0s-.05,0-.05.05c-.1,0,.2.05.2.1h-.05s-.15.05-.15,0l.05.05v.05s.05-.1.1-.05c0,.15-.1.05-.1.2-.05-.05.2,0,.15-.05,0-.05-.2,0-.15-.1,0,.05,0,0,0,0v-.05s.2.1.15.1c.05-.15-.15.05-.2-.05.03.07.02.1-.05.1v-.1s.05-.1.1-.05c0-.1-.05-.05-.05-.15-.05,0,0,.15,0,.2-.05,0,0-.15-.05-.1v.2h-.1c.05-.1-.05-.05-.05-.15v-.05s.05,0,.05-.05v.1s0,.05,0,0,.05-.1.05-.1c-.1-.2-.24.2-.15.15v.05s-.05.05-.1.1c.05-.05.05-.1,0-.2.1,0-.05-.1.05-.05-.1-.1-.15.24-.24.24s-.05.05-.15.05c0,.05.05.1.05.05h0s-.1.05-.1-.05c0,.05-.05.05-.05.15l-.05-.05v-.05.05c0,.1-.05-.05-.05,0,0,.2.05,0,.05.15v.05-.05s.15.05.1-.1h.05c.05.1.05.05,0,.2.05-.1.15-.1.15-.2.05,0,0,.1.05.05v.05-.05c0-.1.05-.1,0-.2-.1.1-.1.2-.24.15,0-.05.05-.1.1-.1.03,0,.02-.02-.05-.05-.1-.05.05-.05.05-.1.05.1.05,0,.1,0s.15.15.1.05c.05,0,0,.15,0,.2,0,0-.05,0-.05-.05,0,.24.1-.05.05.2.05-.1.1-.1.1-.2.05,0,.05.15.05.2.05,0,.05-.15.05-.24,0-.06.02-.03.05.1.05.19,0,.05,0,0,.05.05.05-.15.1-.1,0,.05-.05.05-.05.1,0,.03-.03.05-.1.05,0,.1.1-.05.05.1,0,0,0,.05-.05.05-.05-.05-.2,0-.29.05,0,.05.1,0,.15.05v.05c-.1-.05-.1.05-.2.1,0,.1.05,0,.1.05,0,.1-.05.1-.1.05.1.2.2-.05.29-.05v.1s.05-.15.05,0c.05-.05.15-.05.24-.1,0,0-.24.05-.2.05,0-.05.2-.1.2-.05-.15,0-.15-.15-.15-.1v.05s0,.05,0,0v-.05s.05,0,.05-.05c.1.1.24.05.34,0,0-.24-.05-.15-.05-.24-.05,0-.05.1-.1.1-.05-.2-.24.05-.29-.05.05-.05.1-.05.05-.2.1.24.29-.1.39.1.05,0,0-.1.05-.15.05,0,0,.05,0,.1.05.05.1,0,.2-.05.05.1.05-.15.15-.1,0,.05.05.05.05.05,0-.05-.05-.05-.05-.05,0-.1.1-.2.15-.1-.1,0,0,.24,0,0l.05-.05c.1,0-.39.05-.29,0v.1s.1-.1.1.05c0,0-.05,0-.05.05h-.05s.1.1.05,0c0,0,.05,0,.05-.05h.05c0,.1-.05.1-.05.15s.1.05.1,0c0,0,0-.1.05-.1h.05s0,.05.05.05c.03,0,.02-.02-.05-.05,0-.15.05,0,.1-.1v.2s0-.2.1-.15v.1h-.05s.05.05.05,0c.05-.05.1.05.15,0,.03-.03.05-.02.05.05,0,.1,0-.05-.05-.05-.05-.1-.1,0-.1-.05,0-.15.1-.05.15,0,.05,0,0-.05,0-.15.05.05.24.15.24,0v-.05.1-.15s-.05,0-.05.1c-.05,0-.05-.1-.05-.15v-.05s.05.1.1.05v.05-.05l.05-.05c0,.1-.05.1-.05.15h-.05v.15c-.05.1-.2.05-.29.1h0c.15,0,.34.1.44,0,.1,0,.15.05.2,0,.05.1-.05.1-.1.1-.24.05-.68-.1-.83.05-.05-.05-.05-.1-.1-.15.05.15-.05.1-.05.2h0v-.05.05h.05s0,.05-.05.05c0,.05.05,0,.05.1-.05-.05-.1.05-.1-.1-.1,0-.1.05-.15.1-.05-.05,0-.05,0-.1,0-.1-.1,0-.05-.1-.05-.05-.05.05-.05.1,0-.05.44-.05.39-.05v.05s-.1.1-.1-.05c-.1,0-.15.1-.2.2,0-.1,0-.15-.05-.1,0-.05-.15-.05-.05-.1-.05-.1-.1.05-.15,0,0,.1.05.1.1.05-.05.05,0,.1,0,.15h-.05c0-.2-.05.15,0,0,0,.05.1.05.05,0h0s.05.05.1,0c0,.1.1-.1.1.05,0,.1.05.07.15-.1.15-.25,0-.05-.05-.05.05-.1-.39.05-.34.1.05,0,.05-.1.1-.1-.05.15.05.1.05.05,0,0,.05.05.05.1.1-.05.15,0,.15-.1.05.1.29.1.34-.1.05.05,0,.05,0,.15.05-.05.1.05.15-.1.05.1.1,0,.15.05.05,0,.05-.24.1-.15,0,.05-.1.1,0,.1.15.1.73.1.88.05.2.1-.15,0,.15.15-.49.05-.2.05-.68,0-.05,0,0,.15-.05.1v-.1s-.1-.05-.15.05c.05.05.05.1-.05.05,0,.05.05,0,.05.1-.05-.05-.05.05-.1.05.05-.15-.05-.2-.1-.15-.03.03-.02.02.05-.05-.15-.05-.49-.15-.63.05.05.05.1.1.2.1-.24,0-.05.2-.24.05-.05.05-.1.05-.15,0-.29.24-.44,0-.83.24.2.1.24-.05.39-.05.05-.05.2.05.24-.05v.1c.2-.2,0-.05.15-.2,0,0,.05.05.05.1.05-.1.34.05.34-.15v.1c.15,0,.29-.05.44-.05.05,0,.1.1.15.1.1,0,.24-.15.29,0,.24-.1,0-.1.24,0,0,.15-.1-.05-.05.1v-.05c-.24.1.1,0-.2,0-.15,0-.29.1-.44.1-.05,0-.2-.1-.15,0-.05-.05-.24.05-.29-.05-.1.1-.39.1-.54.05-.1.1.29.05.2.1.05.15-.34.1-.24.1.05,0,.15-.05.2-.1.24.1.54,0,.78.05,0,.1.1.1.05,0,.05.1.1-.05.15.05h-.05s.05.05.05,0c.05-.15.05.05.1-.05v.1c.1-.05.29-.05.29,0,.1-.1.2-.1.29-.05-.05,0-.2.15-.24.1.05.2.24-.05.29.1.05-.05.1-.1.15-.05,0-.05-.05-.1-.05-.05v-.05l.05-.05s-.02.02-.05.05c.05.1.15.05.2-.1.2.15-.39.05-.2.05,0,.24-.24.1-.34.1.05,0,0-.05,0,0-.1.05.49,0,.39.05.05.15-.59-.05-.54.1v.05c-.15-.05.49.1.29,0-.68.15-1.07,0-1.71.2.1.15-.2-.05-.05,0-.1.15.15.05-.05.1,0-.1.05-.05.1-.1,0-.1-.05,0-.1-.05-.05.24-.24.05-.29.15,0,.1.1,0,.05.1-.05.05-.2-.05-.24.1v-.1c0-.1.05,0,.1-.05v-.05s.05,0,.05-.05h.05c.15-.05,0-.24-.05,0,0,0-.05,0-.05.05-.1.05-.15,0-.15.1,0,0-.05,0-.05.05-.05-.05.1,0,.1-.1.05,0-.1.05-.05-.1,0,0,.1.05,0,0,0,0,0,.15-.05.05,0,0,0-.05,0,0-.05.05,0,.1,0,.2-.05,0-.1-.15-.1-.05h-.05c0,.1,0,.15.05.1-.05.05-.15,0-.2-.05,0,.15-.15.1-.2.1-.05.1-.29.2-.39.15,0-.15.2-.1.15-.15-.05.1-.24.15-.34.15,0-.05.24-.1.24-.1-.05,0-.29.05-.29.15l.2-.05c-.05.1-.39.05-.44.05,0,0,0,.1-.05.1.05.1.1-.1.1.05-.05.05-.05,0-.1.1,0,.05.05.05.05.05,0,.1-.1,0-.05.1-.05,0-.05-.1,0-.15,0-.1-.05.1-.1.05,0-.1.05-.05.05-.1-.05-.1-.2.05-.29.1.05.05.1.05.1-.05.05,0,0,.1,0,.1.05,0,.05-.05.05-.1.1,0,.2.15.15.24.05.05.05-.05.05-.05,0,.05,0,0,0,0,.1-.05.2-.29.34-.2,0,.05-.05.05-.05.05,0,0,.02.02.05.05-.05.1-.05-.1-.15-.05-.05.15-.05.05-.1.15,0,0,.1.05.1.15.05-.1-.05-.1,0-.2.05,0,.05.1.1,0,.05.05-.05.1,0,.2-.05,0-.05.1-.1.1.05.1.1,0,.1-.1.05,0,.1-.05.15-.1-.05-.05-.1-.1-.05-.29l.05.05v.05-.05c.1.05.15-.1.2-.1-.05.2-.1.1-.2.15v.1s.1-.2.1,0l-.05.05s.15,0,.15-.05-.05-.05-.05-.2c.05.05.05,0,.05-.1.05,0,.05.05.1.05v.15s.05-.05.1-.05c0-.1-.05-.05-.05-.2-.05.05-.05.1-.1.05,0-.05.05-.05.05-.05,0-.1-.1.1-.1-.05.05,0,.24-.05.29-.1.1.05,0-.1.1,0,.1-.05.34-.2.44-.15,0,.05-.05,0-.05.05-.05,0-.05.05-.05.05,0,.1.1.05.05-.05.1,0-.15-.05-.05-.1,0,.05,0,.1.05.05v.05c.15-.1.29-.15.49-.15v.05s0,.05,0,0v-.05c.05-.1,0,.15.05.15s.05-.1.05-.1c.05.1.2.05.24,0,.05.05-.34.1-.29,0,.05,0,0,.1.05.05-.16.07-.31.1-.44.1-.2,0,0,.1-.05.15-.05,0,0-.1,0-.15-.05-.05-.1.1-.1,0,0,.15-.1.05-.15.2,0,0-.05,0-.05.05-.05,0-.05-.05,0-.1-.1,0-.15,0-.2.05-.03.03-.02,0,.05-.1-.05-.1.1.1.05-.05-.05.05,0,.2-.05.2,0-.05,0-.15.05-.15-.05-.05-.1.15-.15.1,0,.05.1,0,.05.1.05,0,.1,0,.1.05,0,.1-.05,0-.1.05,0,.05.05.1.05.05,0,.05.05.05.05,0h.1v.05c.2,0,.2-.05.44,0,0,.05.05.05.05.1-.05-.05-.2.05-.29,0v.2s.1,0,.1-.1c.05,0,0,.1.05.05,0,.1-.1.05-.1.1,0,0,0-.05-.05-.05,0,.05.05.1.05.05.05.15.1,0,.15.05.1-.05.24,0,.44-.05,0,.05-.05.05-.05.05h-.05s.05.05.05,0c0,0,.1,0,.05-.05.1,0-.24,0-.1-.05v.05c.1-.03.18-.03.24,0,.09.05,0,.05.05.05.03,0,.02-.02-.05-.05.1-.1.2,0,.29-.05.05,0,0,.1,0,.15-.05,0-.05-.1-.1-.1,0,.05,0,.1.05.05-.24.1-.44.05-.63.05v-.05.05c-.24.05-.05.1-.24.05v.1s-.1-.1-.15-.05c-.03.03-.02.05.05.05-.29.1-.34-.05-.63.1-.05-.1-.15,0-.24,0-.15,0-.29-.05-.44.05-.05.05,0,.15-.05.2-.1-.2-.29-.05-.49,0,0,.1.1,0,.05.15.1-.1.1.2.2.05-.05-.05-.05-.15-.1-.1.05-.05.15-.05.24-.05v.1s0-.15.05-.1c0,.1.05,0,.05.15,0,.1-.03.12-.1.05.49.39-.24.44.24,0h.1c-.05.29-.15.39-.24.49-.15.1-.29,0-.54-.05.1.1.24.34.34.34l-.1-.29-.09-.13Z"></path><path id="Fill-20" class="cls-1" d="m96.58.34s.05-.2,0,0"></path><path id="Fill-21" class="cls-1" d="m92.44.54c0-.15.1.05,0,0"></path><path id="Fill-23" class="cls-1" d="m96.53.54c.05-.15.05.15,0,0"></path><path id="Fill-24" class="cls-1" d="m96.63.54s.05-.05.1-.05c-.05.05-.1.05-.1.05"></path><path id="Fill-27" class="cls-1" d="m96.39.39c-.05.1-.1.05-.15.1,0-.1.1-.1.15-.1"></path><path id="Fill-30" class="cls-1" d="m98,.15s0,.05,0,0c-.1,0-.05.1-.1.15-.05-.15-.2-.05-.2.1,0,.1-.03.05-.1-.15-.1-.3,0,.1,0,.1-.05.15-.05-.15-.1-.05,0-.1-.1.05-.1-.1.1.1.34-.1.59-.05"></path><path id="Fill-31" class="cls-1" d="m98,.15s.15-.05.15.05c0,.15-.15.15-.2.1,0-.05.05-.05.05-.1,0,0,.05,0,0-.05"></path><path id="Fill-32" class="cls-1" d="m98.1.15c.1-.05.05.05.15.05,0,.1-.2.1-.15-.05"></path><path id="Fill-33" class="cls-1" d="m98.39.24C98.29.24,98.39,0,98.39.24"></path><path id="Fill-34" class="cls-1" d="m97.51.54s.05.05,0,0"></path><path id="Fill-35" class="cls-1" d="m97.56.58l.05-.05s-.05,0-.05.05"></path><path id="Fill-36" class="cls-1" d="m96.83.58s.05-.05,0,0"></path><path id="Fill-37" class="cls-1" d="m96.93.58l.05-.05c0,.05-.05.05-.05.05"></path><path id="Fill-38" class="cls-1" d="m97.02.63c-.1.05,0-.15,0,0"></path><path id="Fill-39" class="cls-1" d="m98.24.24c.05-.2.05.2,0,0"></path><path id="Fill-40" class="cls-1" d="m98.29.24s.05.05,0,0"></path><path id="Fill-42" class="cls-1" d="m96.24.49h.05v.1h-.05v-.1"></path><path id="Fill-43" class="cls-1" d="m96.78.68s-.05.1-.1.1c0-.05.1-.29.1-.1"></path><path id="Fill-45" class="cls-1" d="m96.93.58s-.05.05-.05.15c-.05-.05-.1.05-.2,0,0-.2.1-.1.24-.15"></path><path id="Fill-48" class="cls-1" d="m97.36.63c.1-.2.05.15,0,0"></path><path id="Fill-49" class="cls-1" d="m97.36.34l.05-.05s-.02.02-.05.05"></path><path id="Fill-50" class="cls-1" d="m97.41.34c.05-.2,0,.29,0,0"></path><path id="Fill-51" class="cls-1" d="m97.51.29l.05.1c0,.1-.05.05-.1.05,0-.1,0-.2.05-.15"></path><path id="Fill-52" class="cls-1" d="m96.93.63l.05-.05s-.02.02-.05.05"></path><path id="Fill-53" class="cls-1" d="m97.02.68c0,.1-.1-.05,0,0"></path><path id="Fill-54" class="cls-1" d="m97.61.63s-.05-.05,0,0"></path><path id="Fill-57" class="cls-1" d="m97.56.63s.05.05,0,0"></path><path id="Fill-59" class="cls-1" d="m98.15.54s-.1,0-.2-.05c-.07-.03-.02-.02.15.05-.24,0-.39.05-.63,0-.05,0-.05.05-.05.1-.15-.15.15,0-.05-.05,0-.05.05-.05,0-.05.29-.1.1-.05.63-.15,0-.05-.05-.05-.1-.05.1-.05.2-.05.29,0-.05.1-.05-.05-.15,0,.05.15.15.05.24.05,0,.15-.1.05-.15.15h.02Z"></path><path id="Fill-60" class="cls-1" d="m98.19.39c0-.1.15-.1.1.05,0-.05-.1-.1-.1-.05"></path><path id="Fill-61" class="cls-1" d="m97.27.78c.05-.2.05.15,0,0"></path><path id="Fill-62" class="cls-1" d="m97.32.73s.05.05,0,0"></path><path id="Fill-63" class="cls-1" d="m97.71.39s.05.05,0,0"></path><path id="Fill-66" class="cls-1" d="m98.73.34s.05.05,0,0"></path><path id="Fill-67" class="cls-1" d="m99.9.24s.05.1.1.1c0,.1-.1.05-.15.05-.05-.15.05-.05.05-.15"></path><path id="Fill-71" class="cls-1" d="m98.39.49c0-.1.15-.05.2-.05-.05.1-.15,0-.2.05"></path><path id="Fill-72" class="cls-1" d="m98.63.44c0-.1.1-.05.15-.05,0,.1-.1.05-.15.05"></path><path id="Fill-73" class="cls-1" d="m99.17.44c0,.1-.05.05-.1,0,0-.1.05-.05.1,0"></path><path id="Fill-79" class="cls-1" d="m98.15.54h.1c0,.1-.05.05-.05.15,0-.05-.05-.05-.05-.15"></path><path id="Fill-80" class="cls-1" d="m98.24.58c0-.1.15-.1.1.05h-.05s0-.05-.05-.05"></path><path id="Fill-82" class="cls-1" d="m98.54.54l.05-.05c0,.05-.05.05-.05.05"></path><path id="Fill-86" class="cls-1" d="m98.49.54c-.1.15-.2-.05,0,0"></path><path id="Fill-87" class="cls-1" d="m98.83.58c0-.2.15,0,0,0"></path><path id="Fill-88" class="cls-1" d="m97.51.73s.05-.05.1-.05c-.05.05-.05,0-.1.05"></path><path id="Fill-89" class="cls-1" d="m97.61.68c.1-.1-.05.2,0,0"></path><path id="Fill-90" class="cls-1" d="m97.76.68c.05-.2.05.2,0,0"></path><path id="Fill-91" class="cls-1" d="m97.95.83s0-.05,0,0c-.05-.05,0,0,0,0,0,.05-.05.05-.1.05-.05-.2.1-.1.1-.24.05,0,.05.1,0,.2h0"></path><path id="Fill-92" class="cls-1" d="m98.88.54c0,.1-.05.05,0,0"></path><path id="Fill-96" class="cls-1" d="m96.58,1.02c-.1.05,0-.15,0,0"></path><path id="Fill-98" class="cls-1" d="m97.71.73s-.05-.1,0,0"></path><path id="Fill-99" class="cls-1" d="m98.05.73s-.05,0-.05.05c-.1-.05.05-.2.05-.05"></path><path id="Fill-101" class="cls-1" d="m96.24,1.02s.05-.05.1-.05c0,.05-.05.05,0,.15-.1,0-.1-.05-.1-.1"></path><path id="Fill-104" class="cls-1" d="m96.58,1.02s.05.05.1.05c0,.05-.15.05-.1-.05"></path><path id="Fill-106" class="cls-1" d="m97.71.73s-.05.2,0,0"></path><path id="Fill-107" class="cls-1" d="m97.46.68s.05.05.1.05c-.03.07-.05.13-.05.2h-.15c-.1-.05.05-.05.1-.05,0-.05-.05-.1-.1-.05,0-.05.05-.05.1-.05,0,.05.05,0,0,0-.03,0-.03-.03,0-.1"></path><path id="Fill-109" class="cls-1" d="m98.93.63s.05.05,0,0"></path><path id="Fill-114" class="cls-1" d="m97.41.78s.05.05,0,0"></path><path id="Fill-115" class="cls-1" d="m97.51.97s0-.15-.05-.15c.05-.2.1.05.05.15"></path><path id="Fill-116" class="cls-1" d="m97.8.73c-.1.1-.15.2-.24.24.05-.2.15-.24.24-.24"></path><path id="Fill-117" class="cls-1" d="m98.39.73c.1.05-.05.15,0,0"></path><path id="Fill-118" class="cls-1" d="m96.58.93c.15-.05.2.05.34,0,.15.1.24.05.34-.15-.05.24.05-.05.1.2-.34.05-.49.1-.78-.05h0"></path><path id="Fill-120" class="cls-1" d="m96.29,1.02c-.05.15-.1.05-.24.1,0-.15.15-.1.24-.1"></path><path id="Fill-121" class="cls-1" d="m96.49,1.02c.05-.1-.1.2,0,0"></path><path id="Fill-122" class="cls-1" d="m96.63.97s.05.05.1.05c0,.1-.05.1-.05.05-.05,0-.05-.05-.05-.1"></path><path id="Fill-123" class="cls-1" d="m96.88,1.02h-.1s.1.05.1.1c.1.05-.24.1-.2-.05,0-.1.05.05.1,0,0-.05-.05-.1-.1-.1.05-.15.1.05.15-.1.03.07.05.12.05.15"></path><path id="Fill-124" class="cls-1" d="m97.56.88c.05-.2.1.15,0,0"></path><path id="Fill-125" class="cls-1" d="m98.73.78s.05.1.1.1c0,.2-.15,0-.1-.1"></path><path id="Fill-126" class="cls-1" d="m96.58,1.07l.05-.05s-.05.05-.05.05"></path><path id="Fill-127" class="cls-1" d="m96.68,1.07v.05s-.05,0-.05.1c-.05-.1.39-.1.34-.1,0-.05,0-.1-.05-.05v-.1.1c.15.05-.34,0-.24,0"></path><path id="Fill-130" class="cls-1" d="m98.49.93c0-.1.05-.1.1-.1,0,.05-.05.1-.1.1"></path><path id="Fill-131" class="cls-1" d="m98.58.88c0-.1.05,0,.1,0,0,.1-.05,0-.1,0"></path><path id="Fill-133" class="cls-1" d="m96.19,1.07c.05-.2.05.2,0,0"></path><path id="Fill-134" class="cls-1" d="m96.93,1.12c-.05.15-.1-.05-.15,0,.05-.15.1,0,.15,0"></path><path id="Fill-136" class="cls-1" d="m98.29.93s.05-.05.1-.05c0,.05-.05.05-.1.05"></path><path id="Fill-137" class="cls-1" d="m97.8.97c0-.24.1-.05,0,0"></path><path id="Fill-138" class="cls-1" d="m98.83.88s.05.05,0,0"></path><path id="Fill-139" class="cls-1" d="m96,1.12c0-.1.1-.05.15-.05-.07.1-.12.12-.15.05"></path><path id="Fill-141" class="cls-1" d="m96.24,1.02h.1c.05.15-.05.1-.1.1v-.1"></path><path id="Fill-142" class="cls-1" d="m96.34,1.17c.05-.2.05.15,0,0"></path><path id="Fill-143" class="cls-1" d="m96.88,1.12s.05-.05,0,0c.05,0,0,0,0,0"></path><path id="Fill-144" class="cls-1" d="m97.61.93s.05.05,0,0"></path><path id="Fill-145" class="cls-1" d="m98.54.88c0,.15-.15-.05,0,0"></path><path id="Fill-146" class="cls-1" d="m95.85,1.12s.05.05.05,0c.1.05-.1.2-.05,0"></path><path id="Fill-148" class="cls-1" d="m96.44,1.12c.05.1-.05.29.1.29,0,.05-.1.05-.15.05.05-.1,0-.24-.1-.2.05-.1.15,0,.15-.15"></path><path id="Fill-149" class="cls-1" d="m96.97,1.22c0,.1-.1,0-.1.05s-.1.05-.05.15c-.05,0-.05.05-.1.05,0-.1.05-.1.1-.2-.05-.1-.1.05-.1-.05,0-.2.15.05.24,0"></path><path id="Fill-150" class="cls-1" d="m96.93,1.12s.05.05.1.05c0,.05-.05.05,0,.15l-.05-.05c-.05-.1-.05-.15-.05-.15"></path><path id="Fill-152" class="cls-1" d="m97.8.93s-.05.05,0,0"></path><path id="Fill-153" class="cls-1" d="m96.19,1.22s0,.1-.05.1c0-.05-.05,0,0,0v.05s-.05,0-.05-.05l-.05.05c0-.1-.05.05-.1,0v-.05s0-.05.05-.05c.05.1.05-.1.1-.05v.05s.05-.05.1-.05c-.05-.05-.1-.05-.15-.05.05-.1.15-.05.15.05,0-.05,0,0,0,0"></path><path id="Fill-154" class="cls-1" d="m96.58,1.32v-.1c.05-.1.15-.15.2.1-.1-.1-.15-.05-.2,0"></path><path id="Fill-155" class="cls-1" d="m96.93,1.17s.05-.05.1-.05c.03,0,0,.02-.1.05"></path><path id="Fill-159" class="cls-1" d="m96.05,1.22s.05-.05,0,0c.05,0,0,0,0,0"></path><path id="Fill-160" class="cls-1" d="m96.19,1.22c.05-.1.1-.05.15-.05,0,.1-.05.05-.1.05,0,.29.05.15.1.29-.1-.05-.15.05-.24,0,0-.1.05-.05.1,0,.05-.1.1-.29,0-.29"></path><path id="Fill-161" class="cls-1" d="m96.63,1.27s0,.05.05.05c-.05.1-.1.05-.2.1,0-.1.15-.2-.05-.15-.05-.1.1-.05.15-.1,0,.05-.05.1,0,.15,0,0,.05,0,.05-.05"></path><path id="Fill-163" class="cls-1" d="m96.68,1.17c.05.15.24-.1.24.15-.1,0-.18-.02-.24-.05-.09-.05,0-.1,0-.1"></path><path id="Fill-164" class="cls-1" d="m97.41,1.17c-.05-.1-.1.05-.15,0,0-.15.2-.24.15,0"></path><path id="Fill-165" class="cls-1" d="m97.41,1.07l.05-.05s-.02.02-.05.05"></path><path id="Fill-166" class="cls-1" d="m97.71,1.07s-.05.05-.1.05c.05.1.05.05.1-.05,0,.29-.2.15-.24.15.1-.05.1-.24.24-.15q.09.06,0,0"></path><path id="Fill-167" class="cls-1" d="m98.19.97s.05.05,0,0"></path><path id="Fill-169" class="cls-1" d="m96.97,1.22s.05-.05.05,0c0,.1,0,0-.05,0"></path><path id="Fill-170" class="cls-1" d="m97.02,1.22s-.1,0-.2.05c.05-.05.15-.15.2-.05"></path><path id="Fill-171" class="cls-1" d="m97.02.97c0-.2-.05.34,0,0"></path><path id="Fill-172" class="cls-1" d="m97.07.97l.05-.05s-.02.02-.05.05"></path><path id="Fill-173" class="cls-1" d="m97.61,1.07v-.05s.05.05,0,.05"></path><path id="Fill-176" class="cls-1" d="m97.66.93c.1-.05.1.15.05.2-.05,0-.05-.1-.05-.2"></path><path id="Fill-177" class="cls-1" d="m97.8.97c.05-.2.05.24,0,0"></path><path id="Fill-178" class="cls-1" d="m96.88,1.27s.05.1.1,0c.1.1-.05.1-.05.2-.1,0-.05-.15-.05-.2"></path><path id="Fill-179" class="cls-1" d="m97.17,1.22c-.1,0,0-.15-.05-.15,0-.1.1-.05.15-.05,0,.05-.05.05-.1.05v.15"></path><path id="Fill-180" class="cls-1" d="m96.19,1.32c.1-.15-.05.15,0,0"></path><path id="Fill-182" class="cls-1" d="m96.93,1.27c0,.1,0,.15-.05.2-.05,0-.05-.1-.1-.1.05-.05.1-.1.15-.1"></path><path id="Fill-184" class="cls-1" d="m97.07,1.32h0s0,.1-.05.1c0-.05-.05,0,0,0,0,.1-.1,0-.15.1,0,0-.05,0-.05-.05v-.05s.05,0,.05.05c.05,0,0-.05.05-.05,0,.05.05,0,0,0v-.05s.1,0,.1-.05c.05-.05.1-.05.05,0,.05,0,0,0,0,0"></path><path id="Fill-186" class="cls-1" d="m96.93,1.12s-.1.05-.1,0c.05-.05.05-.1.1,0"></path><path id="Fill-187" class="cls-1" d="m98.54.97c.1-.05.05.05.15.05-.05.15-.1.15-.15.1v-.15"></path><path id="Fill-189" class="cls-1" d="m96.14,1.37s.05-.05,0,0t0,0"></path><path id="Fill-190" class="cls-1" d="m96.88,1.32s-.05.1,0,.1c0,.15-.1-.15-.1.1,0-.05-.1,0-.1-.15.1.05.1-.1.2-.05"></path><path id="Fill-192" class="cls-1" d="m98.05,1.07c-.1.2-.1-.15,0,0"></path><path id="Fill-193" class="cls-1" d="m98.98.97c-.05.2-.1-.15,0,0"></path><path id="Fill-194" class="cls-1" d="m99.17.93c.1,0-.05.24,0,0"></path><path id="Fill-195" class="cls-1" d="m96.19,1.37v.15s-.1.1-.15.1c.05-.15.1-.15.15-.24"></path><path id="Fill-199" class="cls-1" d="m96.97,1.41c-.05.15-.05-.15,0,0"></path><path id="Fill-200" class="cls-1" d="m96.63,1.41l.05-.05s-.05,0-.05.05"></path><path id="Fill-201" class="cls-1" d="m97.17,1.17s.05-.05.1,0c0,.05-.1.05-.1,0"></path><path id="Fill-202" class="cls-1" d="m97.8,1.12s.05-.05.05,0c0,.1,0,0-.05,0"></path><path id="Fill-203" class="cls-1" d="m97.95,1.07s.05.05,0,0"></path><path id="Fill-204" class="cls-1" d="m98,1.07l.05-.05s-.02.02-.05.05"></path><path id="Fill-206" class="cls-1" d="m96,1.41s.05-.05,0,0t0,0"></path><path id="Fill-207" class="cls-1" d="m96.34,1.37s.05.05,0,0"></path><path id="Fill-208" class="cls-1" d="m96.53,1.46l.05-.05s-.05.05-.05.05"></path><path id="Fill-212" class="cls-1" d="m96.88,1.22c0-.1.05-.05,0,0"></path><path id="Fill-213" class="cls-1" d="m96.93,1.22s.05-.05.05,0,0,0-.05,0"></path><path id="Fill-214" class="cls-1" d="m97.07,1.17c.15-.05,0,.15,0,0"></path><path id="Fill-216" class="cls-1" d="m98.29,1.12s.05.05,0,0"></path><path id="Fill-218" class="cls-1" d="m96.68,1.41h0s.05.05.05.1c-.05.05,0,.05,0,0,.05-.1.05,0,.1,0-.05.15-.1.24-.15.1-.05-.05-.05-.1,0-.2"></path><path id="Fill-220" class="cls-1" d="m97.9,1.22c.05-.1.24-.1.24.1-.05-.1-.15-.1-.24-.1"></path><path id="Fill-222" class="cls-1" d="m96.78,1.51c.1-.15-.05.15,0,0"></path><path id="Fill-225" class="cls-1" d="m97.41,1.27s.05.05.1-.05c.1.05-.15.29-.1.05"></path><path id="Fill-226" class="cls-1" d="m97.71,1.22l.05-.05s-.05.05-.05.05"></path><path id="Fill-228" class="cls-1" d="m98.68,1.22c-.1.1-.15,0-.24.05,0-.15.2-.15.24-.05"></path><path id="Fill-229" class="cls-1" d="m96.49,1.56c-.05.2-.05-.24,0,0"></path><path id="Fill-230" class="cls-1" d="m96.44,1.56s.05-.05,0,0"></path><path id="Fill-231" class="cls-1" d="m97.27,1.27l.05-.05s-.02.02-.05.05"></path><path id="Fill-234" class="cls-1" d="m97.17,1.32s.05-.05.1-.05c0,.05-.05.05-.1.05"></path><path id="Fill-235" class="cls-1" d="m98.39,1.22s-.05.1-.1.1c0-.05.05-.1,0-.1,0-.05.05,0,.1,0"></path><path id="Fill-236" class="cls-1" d="m98.34,1.22s.05-.05.05,0h-.05"></path><path id="Fill-237" class="cls-1" d="m97.9,1.17v.1s.78,0,.78-.05-.78-.05-.78-.05"></path><path id="Fill-239" class="cls-1" d="m98.29,1.27c0-.2.15,0,0,0"></path><path id="Fill-244" class="cls-1" d="m96.53,1.56c.05-.15.05.2,0,0"></path><path id="Fill-245" class="cls-1" d="m96.83,1.51s.05.05,0,0"></path><path id="Fill-246" class="cls-1" d="m98.05,1.27c.1-.1-.1.2,0,0"></path><path id="Fill-248" class="cls-1" d="m98.63,1.27l.05-.05s-.05.05-.05.05"></path><path id="Fill-249" class="cls-1" d="m96.39,1.56s.05.1,0,0"></path><path id="Fill-250" class="cls-1" d="m96.49,1.61c.05-.15.05.2,0,0"></path><path id="Fill-251" class="cls-1" d="m96.58,1.61s.05-.05.1-.05c.03,0,0,.02-.1.05"></path><path id="Fill-252" class="cls-1" d="m96.68,1.56c0,.2-.1,0,0,0"></path><path id="Fill-253" class="cls-1" d="m97.71,1.37c-.1.05-.24.05-.29.05.1-.1.24-.15.29-.05"></path><path id="Fill-254" class="cls-1" d="m98.19,1.32c0-.1.15-.1.1.05l-.1-.05"></path><path id="Fill-259" class="cls-1" d="m98.98,1.17s0,.1.05.1c0,.15-.1.05-.05-.1"></path><path id="Fill-260" class="cls-1" d="m99.22,1.22s.05.05,0,0"></path><path id="Fill-261" class="cls-1" d="m96.19,1.61s.05.05,0,0"></path><path id="Fill-262" class="cls-1" d="m96.29,1.66l.05-.05s-.05,0-.05.05"></path><path id="Fill-263" class="cls-1" d="m96.34,1.61c.05-.15-.05.34,0,0"></path><path id="Fill-264" class="cls-1" d="m96.1,1.61c0,.1-.1,0-.15.05.05-.05.15-.1.15-.05"></path><path id="Fill-265" class="cls-1" d="m96.05,1.61c.05-.15.15.05,0,0"></path><path id="Fill-267" class="cls-1" d="m96.1,1.61c0-.15.05.15,0,0"></path><path id="Fill-268" class="cls-1" d="m96.19,1.56s.05.05,0,0"></path><path id="Fill-269" class="cls-1" d="m96.44,1.61s.05.05,0,0"></path><path id="Fill-270" class="cls-1" d="m97.71,1.37c0-.1.15-.1.1.05h-.05l-.05-.05"></path><path id="Fill-271" class="cls-1" d="m97.95,1.37l.05-.05s-.05.05-.05.05"></path><path id="Fill-272" class="cls-1" d="m98,1.32c0-.1.1-.05.15-.05,0,.1-.1.05-.15.05"></path><path id="Fill-274" class="cls-1" d="m98.49,1.27c.1,0,0,.2,0,0"></path><path id="Fill-275" class="cls-1" d="m98.58,1.32l.05-.05-.05.05"></path><path id="Fill-276" class="cls-1" d="m98.73,1.27l.05-.05s-.05.05-.05.05"></path><path id="Fill-278" class="cls-1" d="m96.53,1.61c.1.05.05.05.15,0,0,.2-.15.2-.15,0"></path><path id="Fill-279" class="cls-1" d="m96.53,1.66s.05-.05.05,0h-.05"></path><path id="Fill-280" class="cls-1" d="m97.8,1.41s.05-.05.1-.05c0,.05-.05.05-.1.05"></path><path id="Fill-281" class="cls-1" d="m98.49,1.37l.05-.05s-.02.02-.05.05"></path><path id="Fill-283" class="cls-1" d="m98.54,1.32l.05-.05s-.05.05-.05.05"></path><path id="Fill-285" class="cls-1" d="m99.02,1.32l.05-.05s-.05.05-.05.05"></path><path id="Fill-286" class="cls-1" d="m97.56,1.51c-.1,0,0-.24,0,0"></path><path id="Fill-287" class="cls-1" d="m98.39,1.37s.05.05,0,0"></path><path id="Fill-289" class="cls-1" d="m95.85,1.8h0s0-.1.05-.1c.03,0,.02.03-.05.1"></path><path id="Fill-292" class="cls-1" d="m96.88,1.71c-.1.05,0-.15,0,0"></path><path id="Fill-295" class="cls-1" d="m98.34,1.46c.15-.15.24.15,0,0"></path><path id="Fill-296" class="cls-1" d="m97.8,1.46s0,.1.05.1c0,.15-.1,0-.05-.1"></path><path id="Fill-299" class="cls-1" d="m98,1.51c0-.1.05-.05,0,0"></path><path id="Fill-300" class="cls-1" d="m98.49,1.46s.05.05,0,0"></path><path id="Fill-302" class="cls-1" d="m98.19,1.46s.05-.05.1-.05c-.05.05-.1.05-.1.05"></path><path id="Fill-304" class="cls-1" d="m85.55,2.1c.05-.2.05.15,0,0"></path><path id="Fill-305" class="cls-1" d="m95.85,1.76s-.05.05,0,0t0,0"></path><path id="Fill-306" class="cls-1" d="m95.9,1.76c.1-.05,0,.1,0,0"></path><path id="Fill-308" class="cls-1" d="m97.9,1.51c0,.1.1.05.15,0,.05,0,.15.1.2.05,0,.15-.49.15-.34-.05"></path><path id="Fill-309" class="cls-1" d="m98.49,1.56c0,.15-.24.1-.24-.05.1-.05.2.05.24.05"></path><path id="Fill-310" class="cls-1" d="m98.05,1.56c-.05-.24.1-.05,0,0"></path><path id="Fill-312" class="cls-1" d="m98.34,1.41s.05.05,0,.15h.49c-.05.2-.2.05-.24,0-.15-.1-.39.24-.49-.05.1,0,.24.15.24-.1"></path><path id="Fill-313" class="cls-1" d="m98.44,1.56c0-.1.1,0,.15-.05.1,0-.2.1-.05.2-.05.2-.05-.15-.1-.15"></path><path id="Fill-314" class="cls-1" d="m98.58,1.56c0-.1.24-.1.15.1-.05-.1-.1,0-.15-.1"></path><path id="Fill-315" class="cls-1" d="m98.05,1.51c0,.2.68.1.68.1,0-.2-.73-.05-.68-.1"></path><path id="Fill-316" class="cls-1" d="m99.12,1.46c.1.2-.2.29-.2.2-.05-.34.15.2.2-.2"></path><path id="Fill-317" class="cls-1" d="m99.17,1.51s.05-.05.1-.05c0,.05-.05.05-.1.05"></path><path id="Fill-318" class="cls-1" d="m97.02,1.8c.1.1-.15.2-.1,0h.1"></path><path id="Fill-319" class="cls-1" d="m97.41,1.8s.05.05,0,0"></path><path id="Fill-322" class="cls-1" d="m97.56,1.61h.05v.1h-.05v-.1"></path><path id="Fill-323" class="cls-1" d="m99.32,1.61s-.05,0-.05.05c-.05-.05.05-.34.05-.05"></path><path id="Fill-325" class="cls-1" d="m96.34,1.8c-.05.2-.1,0-.15.1,0,.1.1-.05.1.15-.05-.05-.1-.05-.15-.15,0-.1.1-.1.2-.1"></path><path id="Fill-327" class="cls-1" d="m96.63,1.9c.1-.05-.24,0,0,0"></path><path id="Fill-329" class="cls-1" d="m97.8,1.71c.05-.24.05.15,0,0"></path><path id="Fill-331" class="cls-1" d="m96.1,1.9c0,.1-.1-.05,0,0"></path><path id="Fill-332" class="cls-1" d="m96,1.95s.15-.15.2,0c-.05.1-.15.05-.2,0"></path><path id="Fill-334" class="cls-1" d="m96.93,1.9s.05,0,0,0c.05,0,0,.05,0,0"></path><path id="Fill-336" class="cls-1" d="m97.22,1.9c.05-.2.05.2,0,0"></path><path id="Fill-337" class="cls-1" d="m97.8,1.85s.05.05,0,0"></path><path id="Fill-338" class="cls-1" d="m97.9,1.85l.05-.05s-.05.05-.05.05"></path><path id="Fill-340" class="cls-1" d="m99.17,1.61s.05-.05.1-.05c0,.05-.05.05-.1.05"></path><path id="Fill-341" class="cls-1" d="m99.32,1.61v-.05s.05.05.1.1c-.05,0-.1-.05-.1-.05"></path><path id="Fill-342" class="cls-1" d="m96.53,1.9h.05c-.05.15-.2.24-.24.1,0-.1.2.05.2-.1"></path><path id="Fill-343" class="cls-1" d="m96,1.9c0,.15-.1,0,0,0"></path><path id="Fill-344" class="cls-1" d="m96,1.95c-.15.05-.05-.15,0,0"></path><path id="Fill-345" class="cls-1" d="m96.63,1.95c0,.15-.05.1-.05,0h.05"></path><path id="Fill-346" class="cls-1" d="m96.93,1.95c0,.1-.15.05-.2.05,0-.1.15-.1.2-.05"></path><path id="Fill-348" class="cls-1" d="m96.93,1.95c0-.1.1-.05.15-.05-.05.1-.1,0-.15.05"></path><path id="Fill-349" class="cls-1" d="m97.12,1.95s0-.05,0,0c.05,0,0-.05,0,0"></path><path id="Fill-350" class="cls-1" d="m97.17,1.9s.05.05,0,0"></path><path id="Fill-354" class="cls-1" d="m99.27,1.61s.05,0,0,0c.05,0,0,.05,0,0"></path><path id="Fill-355" class="cls-1" d="m96.1,2c.15-.15.2.15,0,0"></path><path id="Fill-356" class="cls-1" d="m96,1.95h.05s-.05.05-.05,0"></path><path id="Fill-357" class="cls-1" d="m96.34,1.95c.05-.1-.05.15,0,0"></path><path id="Fill-358" class="cls-1" d="m96.68,2s.05-.05,0,0c.05,0,.05-.05,0,0"></path><path id="Fill-359" class="cls-1" d="m97.66,1.95c.05-.15.15.05,0,0"></path><path id="Fill-360" class="cls-1" d="m97.76,1.9s0,.24-.05.2c0-.1.05-.1.05-.2"></path><path id="Fill-361" class="cls-1" d="m97.95,1.9s.05.05,0,0"></path><path id="Fill-363" class="cls-1" d="m96.05,2.1h-.1c0-.15.1-.1.2-.15,0,.15-.1.05-.1.15"></path><path id="Fill-366" class="cls-1" d="m97.36,1.95s.05.05,0,0"></path><path id="Fill-367" class="cls-1" d="m98.63,1.9c.05-.2,0,.24,0,0"></path><path id="Fill-368" class="cls-1" d="m96.58,2v.2c-.05,0-.05-.05-.05-.1v.05c-.15-.1.05-.05.05-.15"></path><path id="Fill-369" class="cls-1" d="m96.93,2c-.1.15-.24-.05,0,0"></path><path id="Fill-370" class="cls-1" d="m96.97,2c.05.1.05-.05.15,0,0,.05-.15.2-.15,0"></path><path id="Fill-372" class="cls-1" d="m98.68,1.95c-.05.15-.1-.15,0,0"></path><path id="Fill-375" class="cls-1" d="m98.19,1.95s-.05.05-.1.05c.05-.05.05-.1.1-.05t0,0"></path><path id="Fill-376" class="cls-1" d="m98.39,1.95s-.1,0-.1-.1h.05l.05.1h0"></path><path id="Fill-377" class="cls-1" d="m98.39,1.9c.15,0,0,.24,0,0"></path><path id="Fill-378" class="cls-1" d="m98.58,2s.05-.1.05-.15c.05,0,.05.1.05.1-.05.05-.05.1-.1.05t0,0"></path><path id="Fill-379" class="cls-1" d="m97.66,2.05c0-.15.1.05,0,0"></path><path id="Fill-380" class="cls-1" d="m98.15,1.95c0,.15.68,0,.63,0,0-.1-.68,0-.63,0"></path><path id="Fill-381" class="cls-1" d="m98.19,1.9s.2-.1.2.1c-.1-.1-.2.2-.2-.1"></path><path id="Fill-382" class="cls-1" d="m98.49,1.95s.05-.05,0,0"></path><path id="Fill-383" class="cls-1" d="m98.68,2c0-.2.1-.05,0,0"></path><path id="Fill-384" class="cls-1" d="m98.93,1.9v.15c-.05-.05,0-.1,0-.15"></path><path id="Fill-385" class="cls-1" d="m98.98,1.95l.05-.05s-.05,0-.05.05"></path><path id="Fill-386" class="cls-1" d="m96.24,2.19v-.1h.1s-.05.05,0,.15c-.05,0-.05-.05-.1-.05"></path><path id="Fill-387" class="cls-1" d="m96.34,2.15l.05-.05s-.05.05-.05.05"></path><path id="Fill-389" class="cls-1" d="m96,2.05s.1,0,.1.1h-.1v-.1"></path><path id="Fill-391" class="cls-1" d="m97.95,2.05s0-.05,0,0c.05,0,0,0,0,0"></path><path id="Fill-392" class="cls-1" d="m98.29,2s-.1.05-.15.1c0-.1.05-.1.15-.1"></path><path id="Fill-393" class="cls-1" d="m98.49,2c.1-.15.05.2,0,0"></path><path id="Fill-398" class="cls-1" d="m98.49,1.95c0,.1-.05.05,0,0"></path><path id="Fill-399" class="cls-1" d="m98.73,1.95s-.05.05,0,0"></path><path id="Fill-402" class="cls-1" d="m98.68,2.05c.05-.15.05.2,0,0"></path><path id="Fill-405" class="cls-1" d="m99.22,2.15s0-.05,0,0c.05,0,0,0,0,0"></path><path id="Fill-406" class="cls-1" d="m97.41,2.29c.05-.2.05.2,0,0"></path><path id="Fill-407" class="cls-1" d="m97.46,2.29c.05-.2.05.2,0,0"></path><path id="Fill-409" class="cls-1" d="m97.51,2.34s.05-.05.1-.05c0,.05-.05.05-.1.05"></path><path id="Fill-412" class="cls-1" d="m98.58,2.15c.1.1.15-.05.24,0,0,.1-.1.05-.05.1,0,0-.2.1-.2-.1"></path><path id="Fill-414" class="cls-1" d="m98.44,2.29c.05-.15.05.2,0,0"></path><path id="Fill-415" class="cls-1" d="m98.29,2.24h.05v.1h-.05v-.1"></path><path id="Fill-416" class="cls-1" d="m96.88,2.39c0-.1.15-.05.2-.05-.05.1-.15,0-.2.05"></path><path id="Fill-417" class="cls-1" d="m97.32,2.34s-.05-.05,0,0"></path><path id="Fill-419" class="cls-1" d="m98.88,2.29s.05.05,0,0"></path><path id="Fill-420" class="cls-1" d="m96.49,2.49c0-.15.1-.05.15-.1,0,.2-.1-.05-.15.1"></path><path id="Fill-421" class="cls-1" d="m97.12,2.39s.05-.05,0,0t0,0"></path><path id="Fill-422" class="cls-1" d="m97.27,2.34s.05,0,0,0c.05.05,0,.05,0,0"></path><path id="Fill-423" class="cls-1" d="m98.63,2.34c-.1.05-.05-.15,0,0"></path><path id="Fill-425" class="cls-1" d="m97.32,2.39c.2-.1.05.15,0,0"></path><path id="Fill-426" class="cls-1" d="m97.61,2.39s.05-.05,0,0t0,0"></path><path id="Fill-427" class="cls-1" d="m97.66,2.39s.15.05.24,0c0,.05-.05.05-.05.15-.05-.2-.2.05-.2-.15"></path><path id="Fill-428" class="cls-1" d="m98,2.39s.05-.05,0,0"></path><path id="Fill-430" class="cls-1" d="m98.78,2.34l.05-.05s-.02.02-.05.05"></path><path id="Fill-431" class="cls-1" d="m96.78,2.44s.05.05,0,0"></path><path id="Fill-434" class="cls-1" d="m97.46,2.44l.05-.05s-.02.02-.05.05"></path><path id="Fill-435" class="cls-1" d="m97.71,2.39s-.15.1-.15.05c0-.1.1,0,.15-.05"></path><path id="Fill-437" class="cls-1" d="m97.76,2.34c.1-.05,0,.15,0,0"></path><path id="Fill-439" class="cls-1" d="m98.39,2.34s.05.1.1.1c-.05.1-.15,0-.1-.1"></path><path id="Fill-440" class="cls-1" d="m95.56,2.78s.63-.2.68-.05l-.68.05"></path><path id="Fill-441" class="cls-1" d="m97.12,2.54l.05-.05c.05.05,0,.05-.05.05"></path><path id="Fill-445" class="cls-1" d="m98.58,2.44s0-.05.05-.05c0,.05-.05.05-.05.05"></path><path id="Fill-446" class="cls-1" d="m85.46,2.93s.05.05,0,0"></path><path id="Fill-449" class="cls-1" d="m97.56,2.54c0-.15.1,0,.1.15-.05,0-.05-.15-.1-.15"></path><path id="Fill-451" class="cls-1" d="m97.95,2.54l.05-.05s-.02.02-.05.05"></path><path id="Fill-452" class="cls-1" d="m97.71,2.59c-.1.05,0-.15,0,0"></path><path id="Fill-453" class="cls-1" d="m97.66,2.59s.05-.1.1,0c0,.05-.1.2-.1,0"></path><path id="Fill-454" class="cls-1" d="m85.51,3.02h.1c.05.15-.1.05-.05.2-.1-.05-.05-.15-.05-.2"></path><path id="Fill-455" class="cls-1" d="m97.85,2.59c0,.1-.05.1-.1.1,0-.15.05-.1.1-.1"></path><path id="Fill-456" class="cls-1" d="m97.85,2.59s.1,0,.05.1h-.05v-.1"></path><path id="Fill-457" class="cls-1" d="m98,2.59s-.05-.05,0,0"></path><path id="Fill-458" class="cls-1" d="m98.24,2.63c-.15.05-.05-.2,0,0"></path><path id="Fill-460" class="cls-1" d="m98.05,2.63l.05-.05s-.05.05-.05.05"></path><path id="Fill-461" class="cls-1" d="m98.1,2.63l.05-.05s-.05.05-.05.05"></path><path id="Fill-463" class="cls-1" d="m96.78,2.73s.05-.05.05,0h-.05"></path><path id="Fill-464" class="cls-1" d="m98.49,2.63s.05-.05.05,0,0,0-.05,0"></path><path id="Fill-466" class="cls-1" d="m97.27,2.73s.05.05,0,0"></path><path id="Fill-467" class="cls-1" d="m97.56,2.68s.05.05,0,0"></path><path id="Fill-468" class="cls-1" d="m97.85,2.78c0,.1-.1,0-.15.05.05-.15.05,0,.15-.05"></path><path id="Fill-471" class="cls-1" d="m97.71,2.88s.05.05,0,0"></path><path id="Fill-472" class="cls-1" d="m97.95,2.83h.05c0,.1-.05.1-.05.1-.05-.05,0-.05,0-.1"></path><path id="Fill-473" class="cls-1" d="m98,2.83l.05-.05s-.05.05-.05.05"></path><path id="Fill-477" class="cls-1" d="m97.36,3.02c-.05-.24.1.05,0,0"></path><path id="Fill-478" class="cls-1" d="m97.41,3.02l.05-.05s-.05,0-.05.05"></path><path id="Fill-479" class="cls-1" d="m97.46,3.02s.05,0,0,0c-.03,0-.02.03.05.1h-.05v-.1"></path><path id="Fill-481" class="cls-1" d="m98.15,3.02c.05-.15.05.15.15.05,0,.1-.1.05-.15.05-.05-.05,0-.05,0-.1h0"></path><path id="Fill-482" class="cls-1" d="m98.24,2.98c.1,0,.15.05.2,0,.1.05,0,.1,0,.2-.05-.05-.1-.05-.2-.05v-.15"></path><path id="Fill-483" class="cls-1" d="m97.36,3.12l.05-.05c.05,0,0,0-.05.05"></path><path id="Fill-484" class="cls-1" d="m97.56,3.07l.05-.05s-.05.05-.05.05"></path><path id="Fill-487" class="cls-1" d="m96.49,3.17s0,.1.05.15c-.1-.05-.05,0-.15-.05,0-.1.15.05.1-.1"></path><path id="Fill-488" class="cls-1" d="m96.73,3.27c-.29.15-.39,0-.73.05.24-.2.54-.1.73-.05,0-.05,0,0,0,0"></path><path id="Fill-493" class="cls-1" d="m97.66,3.27c-.24.1-.49,0-.78,0,.24-.1.49-.1.78,0"></path><path id="Fill-494" class="cls-1" d="m96.73,3.27c.2-.1.1.1,0,0"></path><path id="Fill-495" class="cls-1" d="m97.66,3.27s.1-.1.1-.05c0,.1-.05.15-.1.05"></path><path id="Fill-497" class="cls-1" d="m97.46.05l.05-.05c0,.05-.05.05-.05.05"></path><path id="Fill-498" class="cls-1" d="m97.51.05l.05-.05s-.02.02-.05.05"></path><path id="Fill-501" class="cls-1" d="m97.27.05s-.05-.05,0,0"></path><path id="Fill-503" class="cls-1" d="m96.14,3.46s0-.05,0,0c.05,0,0,0,0,0"></path><path id="Fill-504" class="cls-1" d="m96.83.34c.05.15.39.15.39.1,0-.24-.39.1-.39-.1"></path><path id="Fill-506" class="cls-1" d="m95.75,3.42c.1-.05,0,.2,0,0"></path><path id="Fill-507" class="cls-1" d="m95.66,3.46s.05.05.1.05c0,.1-.1,0-.1-.05h0"></path><path id="Fill-509" class="cls-1" d="m95.9,3.46h.05v.1h-.05s.05-.05,0-.1"></path><path id="Fill-510" class="cls-1" d="m97.27.19c.05-.2.05.2,0,0"></path><path id="Fill-514" class="cls-1" d="m97.46.19c0-.15.1.05,0,0"></path><path id="Fill-516" class="cls-1" d="m95.75,3.61s.1-.05.15-.1c-.05.15-.15.15-.15.1"></path><path id="Fill-518" class="cls-1" d="m97.51.24l.05-.05s-.02.02-.05.05"></path><path id="Fill-519" class="cls-1" d="m97.51.19c0,.1-.1.1-.2.1,0-.2.15-.1.2-.1"></path><path id="Fill-520" class="cls-1" d="m97.71.24h0s-.05.05-.1.05v-.15s.15,0,.1.1c.05,0,0,0,0,0"></path><path id="Fill-521" class="cls-1" d="m96.97.58s-.05-.05,0,0"></path><path id="Fill-522" class="cls-1" d="m97.51.19l.05.05c-.1.2.54,0,.63.1-.05.1-.2.1-.29.1-.2,0-.39-.05-.54,0,.05-.15.15-.2.2-.15-.1,0-.05-.05-.05-.1"></path><path id="Fill-523" class="cls-1" d="m97.76.24c.05-.2.05.2,0,0"></path><path id="Fill-525" class="cls-1" d="m95.95,3.66s.05.15.1.15c0,.1-.39-.05-.39.1-.05-.15.29-.15.29-.24"></path><path id="Fill-527" class="cls-1" d="m97.56.29s.05-.05.1-.05c0,.05-.05.05-.1.05"></path><path id="Fill-528" class="cls-1" d="m97.85.24s.05.05,0,0"></path><path id="Fill-531" class="cls-1" d="m95.8,3.76c-.1.05,0-.15,0,0"></path><path id="Fill-532" class="cls-1" d="m95.9,3.71s-.1.29-.15.05c.05-.05.1-.05.15-.05"></path><path id="Fill-533" class="cls-1" d="m98.34.34s-.05.1-.05.15c-.1-.05-.05-.24.05-.24v.1"></path><path id="Path" class="cls-1" d="m98.73.34h0s0,.05,0,0c0,0,0-.05.05-.05.24.15.39,0,.54.15,0,0,0-.05.05-.1.05.05.05.1,0,.15-.24-.05-.39,0-.59,0,0,.1-.15,0-.1-.05-.34,0,.15-.05-.29,0,0-.1.05-.05.05-.15.05.2.24.1.34,0,.29.1-.29.1-.05.05-.05,0,0,0,0,0Z"></path><path id="Fill-535" class="cls-1" d="m98.58.29s.05-.05,0,0t0,0"></path><path id="Fill-536" class="cls-1" d="m96.1,3.76c-.1.05,0-.1,0,0"></path><path id="Fill-537" class="cls-1" d="m95.61,3.76c-.05.1-.24.1-.29.2-.05-.05-.1,0-.1-.15.05-.05.34,0,.39-.05"></path><path id="Fill-539" class="cls-1" d="m97.22.44c.05-.2.05.15,0,0"></path><path id="Fill-540" class="cls-1" d="m98.29.34s.05.05.1.05c0,.05-.05.1-.1.1v-.15"></path><path id="Fill-541" class="cls-1" d="m95.41,3.85c.1-.2.05.15,0,0"></path><path id="Fill-542" class="cls-1" d="m97.46.49c-.05-.1,0-.05,0,0"></path><path id="Fill-543" class="cls-1" d="m95.85,3.81s.24-.05.29-.05c-.05.05-.29.05-.29.05"></path><path id="Fill-544" class="cls-1" d="m95.9,3.85c0-.15.1.05.05.15l-.05-.15"></path><path id="Fill-546" class="cls-1" d="m97.32.49l.05-.05c0,.05-.05.05-.05.05"></path><path id="Fill-547" class="cls-1" d="m97.46.44c0,.1-.05.05,0,0"></path><path id="Fill-549" class="cls-1" d="m97.51.49l.05-.05c.05.05,0,.05-.05.05"></path><path id="Fill-550" class="cls-1" d="m97.76.44s.05.05,0,0"></path><path id="Fill-551" class="cls-1" d="m95.66,3.81c0,.1-.05.1-.1.1,0-.15.05-.05.1-.1"></path><path id="Fill-552" class="cls-1" d="m97.32.54s-.1.1-.15.1c0-.05.49-.1.49-.1,0-.1-.44,0-.34,0"></path><path id="Fill-553" class="cls-1" d="m98.1.49s.05-.05,0,0c.05,0,0,0,0,0"></path><path id="Fill-554" class="cls-1" d="m95.56,3.9s0-.05,0,0c.05,0,0,0,0,0"></path><path id="Fill-555" class="cls-1" d="m99.56,1.51c.05-.2.1.15,0,0"></path><path id="Fill-558" class="cls-1" d="m99.41.49v-.15s.05.05.1.05c0,.1-.1.2-.1.1"></path><path id="Fill-562" class="cls-1" d="m98.83.49s.05-.05.1-.05c-.05.05-.1.05-.1.05"></path><path id="Fill-564" class="cls-1" d="m99.02.49s.05-.05,0,0t0,0"></path><path id="Fill-568" class="cls-1" d="m99.37.49l.05-.05c0,.05-.05.05-.05.05"></path><path id="Fill-569" class="cls-1" d="m99.56.44s.05.05,0,0"></path><path id="Fill-570" class="cls-1" d="m98.78.54l.05-.05c.05.05,0,.05-.05.05"></path><path id="Fill-576" class="cls-1" d="m93.46,6.2l.05-.05c0,.05-.05,0-.05.05"></path><path id="Fill-577" class="cls-1" d="m92.39,6.05c.1-.2.1.1,0,0"></path><path id="Fill-578" class="cls-1" d="m92.83,6c0-.1,0-.05,0,.05-.05,0,.05-.05,0-.05"></path><path id="Fill-581" class="cls-1" d="m92.29,6.05s.05.05,0,0"></path></g></svg> 