<?xml version="1.0" encoding="UTF-8"?> <svg xmlns="http://www.w3.org/2000/svg" id="Layer_1" width="100" height="25.32" viewBox="0 0 100 25.32"><defs><style>.cls-1{fill:#3a357e;stroke-width:0px;}</style></defs><path class="cls-1" d="m52.76.76v23.76h-5.9V.76h5.9Z"></path><path class="cls-1" d="m67.45,0c7.07,0,12.76,5.47,12.76,12.59s-5.73,12.72-12.82,12.72-12.82-5.51-12.82-12.63c0-7.12,5.81-12.68,12.87-12.68Zm-.05,19.52c3.75,0,6.5-3.24,6.5-6.88s-2.77-6.85-6.5-6.85-6.52,3.21-6.52,6.85,2.78,6.88,6.52,6.88Z"></path><path class="cls-1" d="m80.88,17.33l5.41-1.28c.39,2.86,2.47,3.88,4.65,3.88s2.96-1.28,2.96-2.28c0-.81-.47-1.6-2.05-1.92l-3.3-.64c-3.95-.76-6.74-3.24-6.74-7.06,0-4.54,4.14-7.74,8.82-7.74,6.03,0,8.51,3.77,8.94,6.92l-5.31,1.49c-.28-1.94-1.48-3.35-3.66-3.35-1.88,0-2.78,1.26-2.78,2.21,0,.79.37,1.7,1.78,1.97l3.44.66c4.5.87,6.97,3.62,6.97,7.19,0,3.88-3.35,7.62-9.09,7.62-6.01,0-9.23-3.14-10.03-7.68Z"></path><polygon class="cls-1" points="37.52 12.37 45.41 .75 38.2 .75 33.94 7.78 29.79 .75 22.48 .75 30.47 12.37 25.31 19.93 16.85 .76 10.48 .76 21.01 24.52 28.97 24.52 33.94 16.99 38.86 24.52 45.37 24.52 37.52 12.37"></polygon><polygon class="cls-1" points="9.39 3.23 0 24.52 6.35 24.52 12.58 10.42 9.39 3.23"></polygon><polygon class="cls-1" points="37.52 12.37 45.41 .75 38.2 .75 33.94 7.78 29.79 .75 22.48 .75 30.47 12.37 25.31 19.93 16.85 .76 10.48 .76 21.01 24.52 28.97 24.52 33.94 16.99 38.86 24.52 45.37 24.52 37.52 12.37"></polygon></svg> 