<?xml version="1.0" encoding="UTF-8"?> <svg xmlns="http://www.w3.org/2000/svg" id="Layer_1" width="100" height="17.44" viewBox="0 0 100 17.44"><defs><style>.cls-1{fill:#231f20;stroke-width:0px;}</style></defs><path class="cls-1" d="m13.15,15.33c-1.62,1.25-3.86,1.87-6.79,1.87H0V.12h6.42c2.93,0,5.17.56,6.79,1.87,1.56,1.25,2.8,3.18,2.8,6.67s-1.25,5.42-2.87,6.67h0Zm-3.74-9.78c-.5-.5-1.37-.87-2.62-.87h-1.31v7.79h1.31c1.25,0,2.12-.37,2.62-.87s1-1.25,1-2.93c-.06-1.75-.5-2.62-1-3.12h0Z"></path><path class="cls-1" d="m23.24,17.13h-5.54V.12h5.54v17.01Z"></path><path class="cls-1" d="m41.87,14.33c-1.37,1.25-3.37,3.12-7.85,3.12s-8.97-2.68-8.97-8.72S29.47,0,34.14,0s6.67,2.43,7.1,2.93l-3.68,3.12c-.44-.5-1.49-1.56-3.49-1.56s-3.55,1.49-3.55,4.17,1.56,4.17,3.55,4.17,2.37-.56,2.37-.56v-1.31h-2.62v-4.11h8.04v7.48h0Z"></path><path class="cls-1" d="m49.47,17.13h-5.54V.12h5.54v17.01Z"></path><path class="cls-1" d="m65.05,15.33c-1.62,1.25-3.86,1.87-6.79,1.87h-6.42V.12h6.42c2.93,0,5.17.56,6.79,1.87,1.56,1.25,2.87,3.18,2.87,6.67s-1.25,5.42-2.87,6.67h0Zm-3.74-9.78c-.5-.5-1.37-.87-2.62-.87h-1.31v7.79h1.31c1.25,0,2.06-.37,2.62-.87.5-.5,1-1.25,1-2.93s-.5-2.62-1-3.12h0Z"></path><path class="cls-1" d="m85.61,17.13h-6.04l-.69-2.37h-4.86l-.62,2.37h-5.86L73.46.12h6.17l5.98,17.01Zm-7.85-6.67l-1.31-4.55-1.25,4.55h2.56Z"></path><path class="cls-1" d="m100,.12l-5.92,10.34v6.67h-5.54v-6.67L82.62.12h6.17l2.49,5.73L93.83.12h6.17Z"></path></svg> 