<?xml version="1.0" encoding="UTF-8"?> <svg xmlns="http://www.w3.org/2000/svg" id="Layer_1" width="100" height="14.46" viewBox="0 0 100 14.46"><defs><style>.cls-1{fill:#231f20;}</style></defs><g id="BATCH_1_COPY_UPDATES_110722"><path class="cls-1" d="m23.43,0c-4.1,0-7.19,3.11-7.19,7.23,0,4.7,3.68,7.23,7.13,7.23,4.76,0,7.25-3.64,7.25-7.23,0-4.19-3.02-7.23-7.19-7.23Zm0,13.54c-3.04,0-5.34-2.72-5.34-6.31S20.33.93,23.43.93s5.34,2.65,5.34,6.29-2.3,6.31-5.34,6.31h0Z"></path><path class="cls-1" d="m11.29,14.11h1.6V.32h-1.74v11.31l-.09-.12L1.64.32H0v13.79h1.74V2.57l9.55,11.54h0Z"></path><path class="cls-1" d="m78.61,13.43c1.01.65,2.24.97,3.75.97,1.21,0,2.26-.29,3.02-.84.97-.7,1.5-1.71,1.54-2.9,0-2.04-1.35-3.16-3.83-4.49h0l-.05-.03h0l-.04-.03h0c-1.31-.7-2.64-1.44-2.64-2.8,0-1.25,1.08-2.08,2.67-2.08.81,0,2.01.1,3.23.97V.78c-.86-.5-1.92-.75-3.23-.75-2.67,0-4.46,1.43-4.46,3.56,0,1.95,1.52,3.03,3.17,3.91,2.3,1.21,3.38,1.93,3.38,3.39,0,1.35-1.18,2.33-2.83,2.33-1.35,0-2.52-.42-3.68-1.32v1.52h0Z"></path><path class="cls-1" d="m93.58,14.11h1.86V1.37h4.56V.32h-11.01v1.04h4.59v12.75h0Z"></path><path class="cls-1" d="m66.99,14.11h8.34v-1.04h-6.5v-5.48h5.92v-.95h-5.92V1.37h6.31V.32h-8.15s0,13.79,0,13.79Z"></path><path class="cls-1" d="m58.43,14.21h.42L63.89.32h-1.42l-3.64,10.11-.05-.14L55.29.26h-1.17l-3.74,10.17L46.73.32h-1.9l5.01,13.89h.45l4.13-11.06.05.14,3.96,10.92h0Z"></path><path class="cls-1" d="m42.09,14.11h1.97l-3.89-6.17.13-.06c1.39-.64,2.15-1.9,2.15-3.55,0-2.47-1.71-4.01-4.47-4.01h-3.99v13.79h1.84v-5.77h2.63l.02.03,3.63,5.74h0Zm-4.54-6.69h-1.73V1.25h1.73c2.8,0,3.02,2.36,3.02,3.09s-.22,3.09-3.02,3.09Z"></path></g></svg> 