<?xml version="1.0" encoding="UTF-8"?> <svg xmlns="http://www.w3.org/2000/svg" id="Layer_1" width="100" height="20.01" viewBox="0 0 100 20.01"><defs><style>.cls-1{fill:#3a357e;stroke-width:0px;}</style></defs><path class="cls-1" d="m0,19.48v-.41c.92-.03,1.54-.2,1.87-.53s.49-1.09.49-2.3V.93H.1v-.45h7.04l4.79,13.03L16.58.48h6.68v.45h-2.23v18.13h2.23v.42h-8.68v-.42h2.23V1.58l-6.28,17.9h-.89L2.99,1.07v15.18c0,1.22.16,1.98.48,2.3s.95.49,1.89.53v.41H0Z"></path><path class="cls-1" d="m27.24,13.39l-1.17,3.12c-.1.27-.18.53-.24.79-.06.26-.08.49-.08.69,0,.3.13.52.39.67.26.15.75.27,1.47.37v.44h-5.05v-.42c.8-.04,1.41-.27,1.83-.65.42-.38.83-1.12,1.23-2.25L31.34,0h.36l7.3,19.03h1.77v.44h-8.49v-.44h2.2l-2.03-5.64h-5.21Zm.14-.44h4.9l-2.45-6.93-2.45,6.93Z"></path><path class="cls-1" d="m46.56,19.03h2.52v.44h-8.98v-.44h2.23V.93h-2.23v-.45h8.77c2.42,0,4.25.37,5.5,1.12,1.25.75,1.88,1.85,1.88,3.3,0,1.26-.46,2.24-1.38,2.96-.92.71-2.37,1.21-4.34,1.48v.15c1.76.16,3.09.66,3.97,1.51s1.36,2.09,1.46,3.73c.02.26.04.63.07,1.11.09,2.05.58,3.16,1.47,3.16.1,0,.22-.02.38-.07.15-.05.31-.11.5-.21l.18.31c-.49.33-1.01.57-1.54.73-.54.16-1.1.24-1.68.24s-1.08-.11-1.54-.33-.85-.55-1.18-.97c-.5-.67-.78-2-.85-3.82,0-.47-.02-.84-.04-1.11-.1-1.57-.47-2.64-1.12-3.23-.65-.59-1.74-.89-3.3-.89-.08,0-.19,0-.36.02s-.29.02-.38.02v9.35h0Zm0-9.79h1.57c1.31,0,2.26-.34,2.87-1.02s.9-1.77.9-3.26-.29-2.55-.88-3.14c-.59-.59-1.63-.88-3.11-.88h-1.35v8.31Z"></path><polygon class="cls-1" points="68.03 .48 68.03 .93 65.81 .93 65.81 19.03 68.03 19.03 68.03 19.48 59.35 19.48 59.35 19.03 61.58 19.03 61.58 .93 59.35 .93 59.35 .48 68.03 .48"></polygon><path class="cls-1" d="m69.93,19.51l-.11-7.08h.43c.48,2.16,1.32,3.88,2.51,5.15,1.19,1.27,2.54,1.9,4.05,1.9,1.06,0,2.53-.35,3.24-1.05.71-.7,1.06-1.57,1.06-2.61,0-.72-.13-1.32-.39-1.8s-.57-.96-1.33-1.27c-.88-.36-4.07-1.08-4.43-1.17-1.85-.47-3.19-1.17-4.03-2.1-.83-.93-1.25-2.09-1.25-3.65s.55-3.02,1.65-4.14c1.1-1.11,2.47-1.67,4.1-1.67.5,0,1.04.05,1.54.16.58.13.62.15,1.21.36.19.07.61.27.93.46.61.36,1.07.54,1.36.54.24,0,.43-.08.55-.23.12-.15.23-.43.31-.82h.41v5.91h-.41c-.39-1.91-1.06-3.4-2.02-4.46-.96-1.06-2.1-1.41-3.42-1.41-1.08,0-1.97.32-2.67.98-.7.65-1.05,1.48-1.05,2.48,0,.55.11,1.02.34,1.41.23.39.58.74,1.05,1.04.4.24,1.21.41,2.39.72.96.26,1.81.49,2.3.62,2.41.67,3.2.89,4.17,1.87.89.9,1.3,2.22,1.3,4.03s-.65,3.39-1.79,4.53c-1.13,1.14-3.22,1.71-5.07,1.71-1.23,0-2.46-.25-3.68-.74s-1.85-.74-1.9-.74c-.3,0-.52.09-.67.27-.15.18-.23.45-.25.83l-.43-.02Z"></path><path class="cls-1" d="m87.01,19.48v-.44h2.41V.93h.1c-1.6,0-2.87.47-3.81,1.4s-1.47,2.27-1.6,4.02h-.42l.17-5.86h15.96l.17,5.86h-.43c-.13-1.74-.66-3.09-1.6-4.02-.93-.93-2.21-1.4-3.83-1.4h-.49v18.1h2.38v.44s-9.01,0-9.01,0Z"></path></svg> 