<?xml version="1.0" encoding="UTF-8"?> <svg xmlns="http://www.w3.org/2000/svg" id="Layer_1" width="599.76" height="400.32" viewBox="0 0 599.76 400.32"><defs><style>.cls-1{fill:#fff;}</style></defs><path class="cls-1" d="m151.68,251.6c0-3.1,0-3.67-.04-4.32-.04-.69-.24-1.04-.69-1.14-.22-.06-.49-.08-.73-.08-.2,0-.33-.04-.33-.2,0-.12.16-.16.49-.16.78,0,2.06.06,2.65.06.51,0,1.71-.06,2.49-.06.27,0,.43.04.43.16,0,.16-.12.2-.33.2s-.37.02-.61.06c-.55.1-.71.45-.75,1.16-.04.65-.04,1.22-.04,4.32v3.59c0,1.98,0,3.59.08,4.47.06.55.2.92.82,1,.29.04.73.08,1.04.08.22,0,.33.06.33.16,0,.14-.16.2-.39.2-1.35,0-2.63-.06-3.18-.06-.47,0-1.75.06-2.57.06-.27,0-.41-.06-.41-.2,0-.1.08-.16.33-.16.31,0,.55-.04.73-.08.41-.08.53-.43.59-1.02.1-.86.1-2.47.1-4.45v-3.59Z"></path><path class="cls-1" d="m160.16,248.33c0-.39.06-.63.27-.63.18,0,.35.2.65.51.33.29,2.71,2.75,5.63,5.49,1.33,1.26,3.61,3.59,3.94,3.88l-.16-7.55c-.02-1.04-.16-1.39-.65-1.57-.27-.08-.67-.08-.92-.1-.22,0-.31-.1-.31-.2,0-.14.2-.16.45-.16.9,0,1.82.06,2.26.06.22,0,.96-.06,1.82-.06.22,0,.39.04.39.18,0,.1-.08.18-.31.18-.18.02-.33.02-.51.06-.53.14-.69.49-.71,1.47-.08,2.61-.12,7.16-.18,10.79,0,.47-.1.63-.27.63-.22,0-.49-.22-.88-.57-1.14-1.04-3.32-3.14-5.02-4.77-1.79-1.67-3.79-3.79-4.28-4.3l.18,7.08c.04,1.33.24,1.75.61,1.88.31.1.65.1.96.12.18,0,.31.06.31.16,0,.14-.16.2-.41.2-1.06,0-1.77-.06-2.24-.06-.22,0-1.16.06-2.04.06-.22,0-.39-.02-.39-.18,0-.1.1-.18.29-.18.22-.02.53-.02.78-.08.51-.14.59-.59.61-2.1.04-3.67.14-7.93.14-10.22Z"></path><path class="cls-1" d="m175.93,249.76c-.43-.98-.71-1.16-1.37-1.33-.24-.06-.47-.08-.61-.08-.16,0-.24-.08-.24-.18,0-.14.14-.18.43-.18.94,0,1.98.06,2.63.06.49,0,1.41-.06,2.39-.06.24,0,.39.06.39.18s-.12.18-.29.18c-.27.02-.55.06-.69.14-.16.08-.2.18-.2.35,0,.22.14.69.43,1.35.94,2.43,2.12,5.34,3.04,7.67.78-1.86,3.02-7.2,3.51-8.44.08-.2.16-.47.16-.61,0-.16-.08-.31-.27-.35-.22-.06-.49-.08-.73-.1-.16,0-.31-.06-.31-.18s.12-.18.43-.18c.96,0,1.79.06,2.02.06.31,0,1.2-.06,1.73-.06.27,0,.41.06.41.18s-.14.18-.35.18c-.18.02-.51.02-.82.2-.27.16-.53.47-1.02,1.57-.69,1.59-1.22,2.55-2.2,4.71-1.14,2.51-1.98,4.34-2.39,5.22-.47,1.02-.59,1.26-.84,1.26s-.35-.22-.69-1.04l-4.55-10.53Z"></path><path class="cls-1" d="m190.8,253.01c0-2.65,0-3.12-.04-3.69-.04-.57-.18-.8-.73-.92-.16-.04-.45-.04-.69-.06-.2,0-.31-.06-.31-.18s.12-.16.41-.16c.86,0,1.67.06,2.57.06.55,0,4.28,0,4.61-.02.35-.04.65-.08.82-.1.1-.02.2-.08.29-.08.1,0,.12.08.12.16,0,.12-.12.37-.16,1.1-.02.33-.04.67-.08,1.2,0,.1-.04.29-.2.29-.12,0-.16-.1-.18-.33,0-.08,0-.35-.1-.57-.12-.33-.29-.51-1.16-.61-.35-.04-2.18-.08-2.59-.08-.08,0-.12.06-.12.18v4.22c0,.12.02.18.12.18.43,0,2.39,0,2.84-.02.51-.04.78-.1.94-.29.12-.16.2-.22.29-.22s.12.04.12.14c0,.12-.08.51-.14,1.35,0,.35-.06,1.08-.06,1.22s-.02.33-.18.33c-.12,0-.18-.18-.18-.29-.02-.16-.02-.27-.06-.47-.1-.39-.31-.65-1.02-.71-.37-.04-2.08-.06-2.53-.06-.1,0-.12.08-.12.18v1.33c0,.59-.02,2.02,0,2.55.04,1.2.31,1.47,2.18,1.47.47,0,1.22,0,1.67-.2.47-.22.67-.57.82-1.31.04-.18.08-.29.22-.29s.14.16.14.35c0,.45-.14,1.69-.24,2.04-.12.45-.29.45-.96.45-1.77,0-3.3-.1-5.12-.1-.73,0-1.47.06-2.33.06-.24,0-.37-.06-.37-.18,0-.08.06-.18.31-.18.24-.02.47-.02.63-.06.37-.08.47-.47.53-1.08.08-.71.08-2.04.08-3.53v-3.06Z"></path><path class="cls-1" d="m201,260.88c-.29-.12-.35-.24-.35-.59,0-1.04.06-2.06.08-2.37.02-.29.08-.45.22-.45.16,0,.18.14.2.29.02.22.02.53.12.82.37,1.33,1.49,1.88,2.65,1.88,1.63,0,2.37-1,2.37-1.9,0-.82-.24-1.59-1.75-2.69l-.86-.65c-2.02-1.53-2.67-2.69-2.67-4.12,0-1.92,1.65-3.35,4.2-3.35.82,0,1.31.1,1.82.18.29.04.53.1.73.12.16.02.2.1.2.22,0,.29-.08.78-.08,2.16,0,.39-.06.53-.2.53-.12,0-.18-.12-.2-.35-.02-.22-.14-.71-.41-1.1-.31-.47-.88-.92-2.04-.92-1.35,0-2.12.73-2.12,1.73,0,.75.37,1.43,1.84,2.43l.57.39c2.28,1.55,3.02,2.75,3.02,4.41,0,1.06-.45,2.26-1.75,3.08-.92.55-1.96.69-2.9.69-1.1,0-1.92-.12-2.69-.45Z"></path><path class="cls-1" d="m217.6,256.07c0,1.55,0,2.92.08,3.67.06.47.16.86.71.92.24.04.61.06.88.08.2,0,.31.08.31.16,0,.12-.12.2-.37.2-1.18,0-2.43-.06-2.88-.06-.41,0-1.65.06-2.35.06-.24,0-.37-.08-.37-.2,0-.08.08-.16.31-.16.25-.02.45-.02.61-.06.39-.08.49-.45.55-.96.08-.73.08-2.04.08-3.65v-7.06c-.67,0-2.02,0-2.84.06-1.04.08-1.35.16-1.59.61-.12.22-.16.37-.24.57-.04.12-.1.2-.2.2-.12,0-.16-.1-.16-.31.02-.37.35-1.82.39-2.04.04-.24.1-.37.2-.37.14,0,.31.16.75.2.49.06,1.22.1,1.84.1h7.22c.57,0,.96-.06,1.22-.1.27-.04.41-.08.51-.08.12,0,.14.1.14.41,0,.35-.08,1.61-.08,2.06-.02.18-.06.29-.18.29-.14,0-.16-.1-.18-.35,0-.06-.02-.14-.02-.22-.04-.47-.47-.94-1.98-.96-.49-.04-1.24-.06-2.37-.08v7.06Z"></path><path class="cls-1" d="m223.82,254.56c0-3.06,2.04-6.81,7.4-6.81,4.49,0,7.22,2.75,7.22,6.49,0,3.98-2.79,7.1-7.38,7.1-5.12,0-7.24-3.69-7.24-6.77Zm11.97.33c0-3.69-2.12-6.22-5.1-6.22-2,0-4.24,1.02-4.24,5.3,0,3.55,1.94,6.41,5.32,6.41,1.24,0,4.02-.51,4.02-5.49Z"></path><path class="cls-1" d="m242.45,253.01c0-2.65,0-3.04-.04-3.59-.04-.61-.2-.88-.75-.98-.22-.04-.47-.06-.69-.08-.2,0-.31-.06-.31-.18s.12-.18.39-.18c.92,0,2.16.06,2.51.06.55,0,2-.06,2.61-.06,1.22,0,2.43.12,3.35.71.57.37,1.33,1.24,1.33,2.43,0,1.31-.61,2.47-2.39,3.79,1.51,1.88,2.77,3.49,3.84,4.57.98,1.04,1.65,1.12,1.98,1.2.18.02.33.02.47.04.16,0,.24.08.24.16,0,.14-.12.2-.35.2h-1.71c-1.18,0-1.69-.12-2.2-.39-.71-.39-1.39-1.18-2.33-2.47-.73-1.02-1.49-2.1-1.75-2.41-.06-.08-.16-.1-.29-.1l-1.45-.04c-.08,0-.14.04-.14.14v.37c0,1.57,0,2.77.08,3.49.04.51.16.9.71.96.24.06.61.06.86.08.16,0,.22.08.22.16,0,.12-.12.2-.35.2-1.08,0-2.51-.06-2.77-.06-.31,0-1.55.06-2.26.06-.22,0-.35-.06-.35-.18,0-.08.08-.18.29-.18.27-.02.49-.02.65-.06.35-.08.47-.45.51-.98.1-.71.1-2.02.1-3.63v-3.06Zm2.31,1.33c0,.16.04.24.16.29.37.14.9.2,1.37.2.65,0,.94-.08,1.24-.31.51-.37,1-1.12,1-2.51,0-2.47-1.69-3.12-2.71-3.12-.43,0-.75.02-.92.08-.1.04-.14.1-.14.24v5.12Z"></path><path class="cls-1" d="m275.07,259.74c0,.55-.02.59-.27.73-1.33.69-3.32.92-4.92.92-5,0-9.42-2.37-9.42-8,0-3.26,1.69-5.55,3.55-6.67,1.96-1.18,3.77-1.33,5.49-1.33,1.41,0,3.2.24,3.61.33.43.08,1.14.2,1.61.22.24.02.29.1.29.24,0,.22-.14.8-.14,3.35,0,.33-.06.43-.22.43-.14,0-.18-.1-.2-.27-.06-.47-.16-1.12-.69-1.69-.61-.65-2.24-1.59-4.55-1.59-1.12,0-2.61.08-4.04,1.26-1.14.96-1.88,2.49-1.88,5,0,4.39,2.79,7.67,7.1,7.67.53,0,1.24,0,1.73-.22.31-.14.39-.41.39-.75v-1.92c0-1.02,0-1.79-.02-2.41-.02-.69-.2-1.02-.88-1.16-.16-.04-.51-.06-.8-.06-.18,0-.31-.04-.31-.16,0-.16.14-.2.43-.2,1.06,0,2.35.06,2.96.06s1.71-.06,2.39-.06c.27,0,.41.04.41.2,0,.12-.12.16-.27.16-.16,0-.31.02-.55.06-.55.1-.75.45-.78,1.16-.02.61-.02,1.43-.02,2.45v2.24Z"></path><path class="cls-1" d="m280.33,253.01c0-2.65,0-3.04-.04-3.59-.04-.61-.2-.88-.75-.98-.22-.04-.47-.06-.69-.08-.2,0-.31-.06-.31-.18s.12-.18.39-.18c.92,0,2.16.06,2.51.06.55,0,2-.06,2.61-.06,1.22,0,2.43.12,3.35.71.57.37,1.33,1.24,1.33,2.43,0,1.31-.61,2.47-2.39,3.79,1.51,1.88,2.77,3.49,3.84,4.57.98,1.04,1.65,1.12,1.98,1.2.18.02.33.02.47.04.16,0,.24.08.24.16,0,.14-.12.2-.35.2h-1.71c-1.18,0-1.69-.12-2.2-.39-.71-.39-1.39-1.18-2.33-2.47-.73-1.02-1.49-2.1-1.75-2.41-.06-.08-.16-.1-.29-.1l-1.45-.04c-.08,0-.14.04-.14.14v.37c0,1.57,0,2.77.08,3.49.04.51.16.9.71.96.24.06.61.06.86.08.16,0,.22.08.22.16,0,.12-.12.2-.35.2-1.08,0-2.51-.06-2.77-.06-.31,0-1.55.06-2.26.06-.22,0-.35-.06-.35-.18,0-.08.08-.18.29-.18.27-.02.49-.02.65-.06.35-.08.47-.45.51-.98.1-.71.1-2.02.1-3.63v-3.06Zm2.31,1.33c0,.16.04.24.16.29.37.14.9.2,1.37.2.65,0,.94-.08,1.24-.31.51-.37,1-1.12,1-2.51,0-2.47-1.69-3.12-2.71-3.12-.43,0-.75.02-.92.08-.1.04-.14.1-.14.24v5.12Z"></path><path class="cls-1" d="m292.22,254.56c0-3.06,2.04-6.81,7.4-6.81,4.49,0,7.22,2.75,7.22,6.49,0,3.98-2.79,7.1-7.38,7.1-5.12,0-7.24-3.69-7.24-6.77Zm11.97.33c0-3.69-2.12-6.22-5.1-6.22-2,0-4.24,1.02-4.24,5.3,0,3.55,1.94,6.41,5.32,6.41,1.24,0,4.02-.51,4.02-5.49Z"></path><path class="cls-1" d="m309.07,249.74c-.24-.65-.43-1.06-.71-1.22-.2-.12-.53-.14-.69-.16-.18,0-.29-.06-.29-.18s.14-.18.41-.18c.96,0,1.98.06,2.16.06.22,0,1.1-.06,2.12-.06.24,0,.37.08.37.18,0,.12-.12.18-.31.18-.16.02-.24.02-.45.08-.16.04-.22.18-.22.37,0,.22.18.75.41,1.55.29,1.04,1.9,6.06,2.28,7.18l3.45-8.85c.18-.49.33-.63.47-.63.18,0,.29.27.53.82l3.73,8.59c.39-1.29,1.73-5.55,2.33-7.53.14-.45.2-.78.2-1.02,0-.31-.16-.55-.9-.55-.16,0-.31-.08-.31-.18s.12-.18.41-.18c.98,0,1.77.06,1.94.06.12,0,.98-.06,1.59-.06.2,0,.33.08.33.18,0,.12-.1.18-.24.18-.18.02-.43.02-.63.1-.45.14-.65.73-1.04,1.78-.84,2.16-2.67,7.53-3.63,10.24-.22.61-.33.86-.55.86-.2,0-.31-.22-.59-.84l-3.73-8.51c-.43,1.1-2.67,6.77-3.45,8.42-.33.69-.45.92-.67.92-.2,0-.29-.2-.47-.71l-3.83-10.87Z"></path><path class="cls-1" d="m334.94,256.07c0,1.55,0,2.92.08,3.67.06.47.16.86.71.92.24.04.61.06.88.08.2,0,.31.08.31.16,0,.12-.12.2-.37.2-1.18,0-2.43-.06-2.88-.06-.41,0-1.65.06-2.35.06-.24,0-.37-.08-.37-.2,0-.08.08-.16.31-.16.24-.02.45-.02.61-.06.39-.08.49-.45.55-.96.08-.73.08-2.04.08-3.65v-7.06c-.67,0-2.02,0-2.84.06-1.04.08-1.35.16-1.59.61-.12.22-.16.37-.24.57-.04.12-.1.2-.2.2-.12,0-.16-.1-.16-.31.02-.37.35-1.82.39-2.04.04-.24.1-.37.2-.37.14,0,.31.16.75.2.49.06,1.22.1,1.84.1h7.22c.57,0,.96-.06,1.22-.1.26-.04.41-.08.51-.08.12,0,.14.1.14.41,0,.35-.08,1.61-.08,2.06-.02.18-.06.29-.18.29-.14,0-.16-.1-.18-.35,0-.06-.02-.14-.02-.22-.04-.47-.47-.94-1.98-.96-.49-.04-1.24-.06-2.37-.08v7.06Z"></path><path class="cls-1" d="m352.17,253.45c.06,0,.12-.04.12-.12v-.37c0-2.63,0-3.08-.04-3.63-.04-.57-.18-.8-.77-.92-.14-.02-.45-.04-.67-.06-.22,0-.33-.08-.33-.2s.12-.16.37-.16c1,0,2.2.06,2.65.06.37,0,1.67-.06,2.41-.06.24,0,.35.04.35.16s-.08.2-.31.2c-.18.02-.33.02-.53.06-.49.06-.63.33-.67.92-.04.55-.04,1.02-.04,3.67v3.06c0,1.61,0,2.92.1,3.65.04.51.16.88.69.96.24.04.65.04.9.06.2,0,.29.1.29.18,0,.12-.14.18-.35.18-1.18,0-2.45-.06-2.92-.06-.39,0-1.55.06-2.31.06-.26,0-.37-.06-.37-.18,0-.08.06-.18.29-.18.24-.02.47-.02.63-.06.37-.08.47-.45.53-.98.1-.71.1-2,.1-3.59v-1.49c0-.08-.06-.1-.12-.1h-6.61c-.06,0-.12.02-.12.1v1.55c0,1.61,0,2.82.1,3.57.04.49.18.86.71.92.26.06.63.06.88.08.2,0,.31.1.31.18,0,.12-.14.18-.37.18-1.14,0-2.45-.06-2.9-.06-.37,0-1.63.06-2.35.06-.2,0-.35-.06-.35-.18,0-.08.06-.18.29-.18.27-.02.47-.02.63-.06.37-.08.49-.47.53-.98.1-.71.1-2.02.1-3.63v-3.06c0-2.63,0-3.1-.04-3.65-.04-.59-.18-.82-.8-.94-.14-.04-.41-.04-.65-.06-.22,0-.31-.08-.31-.2s.14-.16.37-.16c.98,0,2.16.06,2.63.06s1.67-.06,2.39-.06c.29,0,.39.06.39.18s-.14.18-.33.18c-.16.02-.39.04-.53.06-.49.06-.63.35-.67.94-.04.55-.04,1.06-.04,3.61v.37c0,.08.06.12.12.12h6.61Z"></path><path class="cls-1" d="m367.47,259.17c-2-1.75-2.53-4.04-2.53-6.02,0-1.39.43-3.79,2.39-5.59,1.47-1.35,3.41-2.16,6.45-2.16,1.26,0,2.02.08,2.96.2.78.1,1.49.29,2.1.35.22.02.24.12.24.24,0,.16-.06.41-.1,1.12-.04.67-.02,1.79-.06,2.2-.02.31-.06.49-.24.49-.16,0-.2-.18-.2-.47-.02-.63-.29-1.35-.8-1.88-.67-.71-2.26-1.26-4.14-1.26-1.78,0-2.94.45-3.84,1.26-1.49,1.37-1.88,3.3-1.88,5.28,0,4.85,3.69,7.26,6.43,7.26,1.82,0,2.92-.2,3.73-1.14.35-.39.61-.98.69-1.35.06-.33.1-.41.27-.41.14,0,.18.14.18.31,0,.24-.24,2.02-.45,2.71-.1.35-.18.45-.53.59-.82.33-2.37.47-3.67.47-2.79,0-5.14-.61-7-2.22Z"></path><path class="cls-1" d="m384.69,256.8c-.08,0-.12.04-.16.14l-.9,2.22c-.16.43-.27.86-.27,1.06,0,.51.63.53,1.02.53.24,0,.31.08.31.16,0,.14-.14.18-.33.18-.63,0-1.37-.06-2-.06-.2,0-1.22.06-2.16.06-.22,0-.33-.04-.33-.18,0-.1.1-.18.24-.18,1.28-.12,1.57-.37,2.04-1.55l4.32-10.22c.37-.96.57-1.35.8-1.35.16,0,.27.18.47.63.35,1,3.37,7.96,4.51,10.57.65,1.53,1.16,1.79,1.59,1.88.18.04.49.04.67.04.22,0,.31.08.31.18,0,.12-.08.18-.35.18-.86,0-3,.04-4.28-.04-.18-.02-.31-.06-.31-.16,0-.08.08-.12.18-.16.18-.06.33-.12.2-.37l-1.39-3.45c-.02-.08-.08-.12-.16-.12h-4.04Zm3.65-1.02c.1,0,.1-.04.08-.1l-1.59-4.16c-.06-.16-.12-.2-.2,0l-1.61,4.16c-.02.06,0,.1.08.1h3.24Z"></path><path class="cls-1" d="m396.8,253.01c0-2.49,0-3.06-.04-3.63-.04-.55-.2-.84-.73-.94-.16-.04-.45-.06-.71-.08-.18,0-.31-.06-.31-.18s.12-.18.41-.18c.92,0,2.16.06,2.63.06.75,0,1.8-.06,2.63-.06,2.26,0,3.08.63,3.55,1.08.39.37.88,1.06.88,2.26,0,2.24-2,3.98-4.53,3.98-.08,0-.31,0-.41-.02-.08-.04-.22-.08-.22-.2s.14-.16.49-.16c1.1,0,2.37-1.08,2.37-2.81,0-.69-.02-1.84-.96-2.65-.63-.55-1.39-.63-1.84-.63-.27,0-.51.02-.65.06-.1.02-.16.12-.16.35v6.83c0,1.55,0,2.92.1,3.65.04.51.16.88.69.94.27.06.63.06.88.08.22,0,.31.08.31.16,0,.12-.14.2-.33.2-1.2,0-2.49-.06-2.9-.06-.35,0-1.63.06-2.35.06-.22,0-.35-.06-.35-.18,0-.08.08-.18.31-.18.24-.02.45-.02.63-.06.35-.08.45-.43.51-.98.1-.71.1-2.02.1-3.63v-3.06Z"></path><path class="cls-1" d="m408.86,253.01c0-2.65,0-3.06-.04-3.63-.04-.57-.22-.86-.61-.94-.18-.04-.41-.06-.63-.08-.18,0-.29-.06-.29-.2,0-.1.12-.16.41-.16.71,0,1.94.06,2.39.06.41,0,1.61-.06,2.31-.06.24,0,.35.06.35.16,0,.14-.1.2-.29.2-.18.02-.27.02-.47.06-.49.08-.63.39-.67.98-.06.55-.06.96-.06,3.61v3.06c0,1.63.02,2.96.1,3.69.04.47.18.84.71.9.27.06.51.06.77.08.22,0,.31.1.31.18,0,.12-.14.18-.35.18-1.2,0-2.37-.06-2.79-.06-.35,0-1.57.06-2.28.06-.24,0-.37-.06-.37-.18,0-.08.08-.18.31-.18.24-.02.39-.02.55-.06.35-.08.51-.39.55-.88.1-.73.1-2.04.1-3.73v-3.06Z"></path><path class="cls-1" d="m421.83,256.07c0,1.55,0,2.92.08,3.67.06.47.16.86.71.92.24.04.61.06.88.08.2,0,.31.08.31.16,0,.12-.12.2-.37.2-1.18,0-2.43-.06-2.88-.06-.41,0-1.65.06-2.35.06-.24,0-.37-.08-.37-.2,0-.08.08-.16.31-.16.24-.02.45-.02.61-.06.39-.08.49-.45.55-.96.08-.73.08-2.04.08-3.65v-7.06c-.67,0-2.02,0-2.84.06-1.04.08-1.35.16-1.59.61-.12.22-.16.37-.24.57-.04.12-.1.2-.2.2-.12,0-.16-.1-.16-.31.02-.37.35-1.82.39-2.04.04-.24.1-.37.2-.37.14,0,.31.16.75.2.49.06,1.22.1,1.84.1h7.22c.57,0,.96-.06,1.22-.1.26-.04.41-.08.51-.08.12,0,.14.1.14.41,0,.35-.08,1.61-.08,2.06-.02.18-.06.29-.18.29-.14,0-.16-.1-.18-.35,0-.06-.02-.14-.02-.22-.04-.47-.47-.94-1.98-.96-.49-.04-1.24-.06-2.37-.08v7.06Z"></path><path class="cls-1" d="m429.83,256.8c-.08,0-.12.04-.16.14l-.9,2.22c-.16.43-.27.86-.27,1.06,0,.51.63.53,1.02.53.24,0,.31.08.31.16,0,.14-.14.18-.33.18-.63,0-1.37-.06-2-.06-.2,0-1.22.06-2.16.06-.22,0-.33-.04-.33-.18,0-.1.1-.18.24-.18,1.28-.12,1.57-.37,2.04-1.55l4.32-10.22c.37-.96.57-1.35.8-1.35.16,0,.27.18.47.63.35,1,3.37,7.96,4.51,10.57.65,1.53,1.16,1.79,1.59,1.88.18.04.49.04.67.04.22,0,.31.08.31.18,0,.12-.08.18-.35.18-.86,0-3,.04-4.28-.04-.18-.02-.31-.06-.31-.16,0-.08.08-.12.18-.16.18-.06.33-.12.2-.37l-1.39-3.45c-.02-.08-.08-.12-.16-.12h-4.04Zm3.65-1.02c.1,0,.1-.04.08-.1l-1.59-4.16c-.06-.16-.12-.2-.2,0l-1.61,4.16c-.02.06,0,.1.08.1h3.24Z"></path><path class="cls-1" d="m444.35,256.07c0,2.14,0,3.35.37,3.65.29.29.73.41,2.16.41.94,0,1.63-.02,2.1-.45.24-.22.47-.69.53-1.12.04-.16.06-.33.2-.33s.16.14.16.35c0,.22-.16,1.61-.31,2.1-.12.41-.2.47-1.1.47-1.81,0-3.47-.1-5.38-.1-.73,0-1.49.06-2.33.06-.24,0-.39-.06-.39-.18,0-.08.1-.16.31-.18.22-.02.43-.02.57-.06.43-.1.55-.43.61-1.1.08-.71.08-2.02.08-3.51v-3.06c0-2.65,0-3.06-.04-3.61-.04-.57-.18-.84-.73-.96-.14-.04-.39-.06-.61-.08-.2,0-.33-.06-.33-.18s.14-.18.43-.18c.86,0,1.96.06,2.49.06.39,0,1.86-.06,2.55-.06.29,0,.39.06.39.18s-.1.18-.35.18c-.2.02-.45.02-.67.08-.49.08-.63.37-.67.98-.04.55-.04.94-.04,3.63v3.02Z"></path><polygon class="cls-1" points="149.88 218.32 149.88 218.32 149.88 217.8 149.88 218.32"></polygon><path class="cls-1" d="m289.33,225.91c2.71,0,6.36,0,8.86-1.15,1.56-.73,1.98-2.09,1.98-3.87v-9.83c0-2.61,0-4.91-.01-6.95-.09,0-.19,0-.28,0-14.61,0-29.09.5-42.96,1.3,5.65,12.43,17.18,20.5,32.41,20.5Z"></path><path class="cls-1" d="m344.12,205.49c6.21,13.14,18.95,19.68,29.12,19.68,9.29,0,14.92-1.05,19.09-5.87,1.77-1.99,3.13-5.03,3.55-6.91.31-1.68.52-2.1,1.36-2.1.73,0,.94.73.94,1.57,0,1.26-1.25,10.37-2.29,13.93-.52,1.78-.94,2.3-2.71,3.04-4.17,1.68-12.1,2.41-18.78,2.41-14.29,0-26.29-3.14-35.78-11.42-5.15-4.54-8.39-9.76-10.34-15.13-4.93-.2-9.92-.35-14.94-.45-.01,2.08-.01,4.42-.01,7.02v11.5c0,2.82-.1,3.03-1.36,3.76-6.78,3.56-16.99,4.71-25.13,4.71-20.11,0-38.4-7.53-45.28-24.81-4.47.34-8.85.7-13.13,1.08.02,7.09.09,12.82.42,16.3.32,2.85,1.06,4.75,4.23,5.18,1.48.21,3.8.42,5.39.42,1.16,0,1.69.32,1.69.85,0,.74-.85,1.06-2.01,1.06-6.97,0-13.63-.32-16.48-.32-2.43,0-9.08.32-13.31.32-1.37,0-2.11-.32-2.11-1.06,0-.53.42-.85,1.69-.85,1.58,0,2.85-.21,3.8-.42,2.11-.42,2.75-2.22,3.06-5.28.38-3.2.49-8.43.52-14.93-38.42,3.96-65.43,9.01-65.43,9.01v.52s0,23.2,0,23.2h300v-23.71c-2.04-.38-48.58-8.92-105.75-12.32Z"></path><path class="cls-1" d="m149.88,138.93v79.39-.52s43.77-21.54,150-21.54,148.05,20.59,150,21.52v-78.85H149.88Zm85.83,15.23c-1.06,0-1.9.11-3.17.32-2.85.53-3.7,2.32-3.91,6.02-.21,3.38-.21,5.53-.21,21.59v15.96c-4.58.57-8.95,1.18-13.1,1.83v-17.79c0-16.06,0-18.21-.21-21.59-.21-3.59-1.27-5.39-3.59-5.92-1.16-.32-2.54-.42-3.8-.42-1.06,0-1.69-.21-1.69-1.06,0-.63.84-.84,2.54-.84,4.01,0,10.67.32,13.73.32,2.64,0,8.87-.32,12.89-.32,1.37,0,2.22.21,2.22.84,0,.85-.63,1.06-1.69,1.06Zm26.94,6.8c-5.84,4.92-9.59,12.76-9.59,25.62,0,3.11.29,6.1.82,8.97-5.13.38-10.06.81-14.78,1.29-.28-2.09-.43-4.29-.43-6.6,0-16.73,8.65-28.45,18.14-34.2,10.01-6.07,19.29-6.8,28.05-6.8,7.19,0,16.37,1.26,18.45,1.67,2.19.42,5.84,1.05,8.24,1.15,1.25.1,1.46.52,1.46,1.26,0,1.15-.73,4.08-.73,17.15,0,1.67-.31,2.2-1.15,2.2-.73,0-.94-.52-1.04-1.36-.31-2.41-.83-5.75-3.54-8.68-3.13-3.35-11.47-8.16-23.25-8.16-5.73,0-13.35.42-20.64,6.48Zm57.55,31.48c-.83,0-1.56.1-2.81.31-1.16.22-2.02.65-2.64,1.34-4.81-.11-9.76-.16-14.86-.16-.5,0-1,0-1.5,0-.67-.54-1.57-.92-2.79-1.18-.83-.21-2.61-.31-4.07-.31-.94,0-1.56-.21-1.56-.84,0-.84.73-1.05,2.19-1.05,5.42,0,11.99.31,15.12.31s8.76-.31,12.2-.31c1.36,0,2.09.21,2.09,1.05,0,.63-.63.84-1.36.84Zm77.25-33.48c-.21,3.46-.1,9.22-.31,11.31-.1,1.57-.31,2.51-1.25,2.51-.83,0-1.04-.94-1.04-2.41-.1-3.25-1.46-6.91-4.07-9.64-3.44-3.67-11.58-6.49-21.18-6.49-9.08,0-15.02,2.3-19.61,6.49-7.62,7.02-9.6,16.97-9.6,27.13,0,2.59.21,5.03.59,7.35-4.83-.31-9.83-.57-15.01-.78-.2-1.87-.29-3.72-.29-5.52,0-7.12,2.19-19.48,12.21-28.7,7.51-6.91,17.42-11.1,32.97-11.1,6.47,0,10.33.42,15.13,1.05,3.96.52,7.62,1.47,10.75,1.78,1.15.1,1.25.63,1.25,1.26,0,.84-.31,2.09-.52,5.76Z"></path></svg> 