<?xml version="1.0" encoding="UTF-8"?> <svg xmlns="http://www.w3.org/2000/svg" id="Layer_1" width="100" height="18.47" viewBox="0 0 100 18.47"><defs><style>.cls-1,.cls-2{fill:#fff;}.cls-2{fill-rule:evenodd;}</style></defs><g id="Page-1"><g id="Zobito_Logo"><g id="Group"><g id="Clipped"><path id="Shape" class="cls-2" d="m70.93,18.13h3.92V3.92h5.43V.29h-14.76v3.62h5.43v14.22h-.02Zm-27.53-3.44v-3.92h4.53c2.01,0,2.9.75,2.9,1.95v.05c0,1.34-1.04,1.92-2.78,1.92h-4.64Zm0-7.18v-3.78h3.87c1.65,0,2.58.66,2.58,1.83v.05c0,1.31-1.09,1.88-2.83,1.88h-3.62v.02Zm-3.83,10.62h8.49c4.03,0,6.68-1.63,6.68-4.89v-.05c0-2.4-1.27-3.6-3.33-4.37,1.27-.72,2.33-1.83,2.33-3.85v-.05c0-1.22-.41-2.22-1.22-3.03-1.02-1.02-2.63-1.58-4.66-1.58h-8.29v17.82h0Zm-12.93-3.31c-3.15,0-5.39-2.56-5.39-5.61v-.05c0-3.06,2.2-5.55,5.34-5.55s5.41,2.54,5.41,5.61v.05c-.02,3.03-2.22,5.55-5.37,5.55h0Zm-.07,3.6c5.5,0,9.51-4.14,9.51-9.21v-.05C36.09,4.1,32.15,0,26.65,0s-9.51,4.14-9.51,9.21v.05c0,5.07,3.94,9.17,9.44,9.17h0Zm-26.58-.29h14.85v-3.44H5.05L14.85,3.28V.29H.29v3.44h9.51L0,15.15v2.99h0Z"></path></g></g><rect id="Rectangle-path" class="cls-1" x="58.37" y=".29" width="3.92" height="17.89"></rect><g id="Clipped-2"><path id="Shape-2" class="cls-2" d="m98.14,3.71c-1.22-.88-2.51-1.47-4.39-1.54-4.35-.16-8.51,2.81-8.42,7.06.07,2.83,2.22,5.07,5.43,5.21,2.38.09,5.34-1.83,5.23-5.23-.09-2.83-3.19-4.05-5.05-3.51-.93.27-1.43.66-2.54,2.13.7-2.69,3.28-4.23,5.91-4.23,3.12,0,5.68,2.54,5.68,5.66-.02,5.09-4.14,9.21-9.24,9.21s-9.24-4.14-9.24-9.24S85.67,0,90.76,0c2.72-.02,5.84,1.25,7.38,3.71"></path></g></g></g></svg> 