<?xml version="1.0" encoding="UTF-8"?> <svg xmlns="http://www.w3.org/2000/svg" id="Layer_1" width="599.76" height="400.32" viewBox="0 0 599.76 400.32"><defs><style>.cls-1{fill:#3a357e;fill-rule:evenodd;}</style></defs><path id="Shape" class="cls-1" d="m120.53,202.5c0-.06,0-.13,0-.19,0-.17.02-.34.03-.5.03-.55.06-1.09.06-1.65,0-.27,0-.53-.02-.8,0-.1,0-.19,0-.29,0-.03,0-.07,0-.1,0-.07,0-.13,0-.2-.06-.35-.27-.64-.58-.78-.02,0-.04-.01-.07-.02-.02,0-.03,0-.05-.01-1.2-.28-2.41-.61-3.63-1.02l-.53-.18c-11.4-3.98-22.32-2.14-27.37-.86-.3.07-.57.15-.83.22-.01,0-.03,0-.04,0-.02,0-.03,0-.05,0-.99,0-1.82-.71-2.01-1.66v-10.25c.12-.62.53-1.13,1.07-1.42.13-.06.27-.11.43-.17,3.39-1.25,12.57-3.51,28.05.47.03.01.06.02.09.03.02,0,.04,0,.06.01.02,0,.04.01.05.02.07.02.14.04.21.04.57,0,1.03-.46,1.03-1.03,0-.07-.02-.13-.03-.2,0-.02-.01-.04-.02-.06-.03-.13-.09-.25-.17-.36-6.76-13.5-20.62-22.77-36.64-22.77-22.66,0-41.04,18.52-41.04,41.38s18.37,41.38,41.04,41.38c16.36,0,30.46-9.66,37.05-23.63l.04-.07c.07-.15.14-.3.21-.45,0-.02,0-.04.02-.07.01-.04.02-.08.02-.12,0-.41-.24-.76-.59-.93-.01,0-.03,0-.04-.01,0,0-.01,0-.02,0l-.08-.03-.45-.15c-11.74-4.1-22.98-2.03-27.81-.75-.02,0-.03,0-.05.01,0,0-.01,0-.02,0-.13.03-.26.04-.4.04-.99,0-1.82-.71-2.01-1.66v-10.18c.13-.66.58-1.21,1.19-1.48.01,0,.03-.01.05-.02.01,0,.02,0,.03-.01,3.21-1.24,12.67-3.8,29.03.56,1.16.31,2.27.57,3.36.81.16.04.32.07.48.1.46-.02.82-.33.94-.76,0-.08,0-.17.01-.25Zm22.96-18.23c.13-.03.27-.04.4-.04,1.12,0,2.03.9,2.05,2.03v9.21c-.07.74-.51,1.37-1.15,1.68-.19.06-.4.12-.64.19-1.81.51-4.88,1.24-8.74,1.62l-.38.03c-.4.12-.7.46-.73.89,0,.03,0,.06,0,.09,0,.03,0,.06,0,.09,0,.02,0,.04,0,.06,0,.02,0,.04,0,.06,0,1.26-.05,2.5-.14,3.73,0,.01,0,.02,0,.03,0,.02,0,.04,0,.06.02.53.42.94.94.99h.01c.06,0,.13,0,.19,0,3.47-.19,6.07-.75,7.83-1.28.12-.04.26-.08.37-.11.13-.02.26-.04.4-.04,1.02,0,1.87.75,2.04,1.73v9.44c-.05.79-.52,1.45-1.2,1.76l-.06.02c-.15.04-.3.09-.47.14-2.3.66-6.73,1.68-12.24,1.84-.02,0-.05,0-.07,0-.02,0-.05,0-.07,0-.36.03-.66.24-.82.55-.03.06-.05.12-.07.18h0c-7.69,21.09-27.78,36.14-51.36,36.14-31.54,0-56.85-26.91-54.57-59.21,1.92-27.21,23.8-49.17,50.79-51,26.61-1.8,49.49,15.6,56.37,39.81.01.07.03.14.06.21.15.32.47.54.84.58.06,0,.11,0,.17,0,4.48-.05,7.74-.7,9.84-1.32.14-.04.27-.08.4-.13Zm406.94,14.58v26.27h-10.7v-37.58h8.89l1.15,5.22c3.29-3.88,7.61-5.81,12.95-5.81,3.89,0,6.89,1.15,9,3.45,2.1,2.3,3.16,5.55,3.16,9.75v24.97h-10.66v-24.37c0-2.2-.43-3.78-1.28-4.76-.86-.98-2.23-1.47-4.13-1.47-1.71,0-3.31.39-4.79,1.17-1.48.78-2.67,1.84-3.58,3.17Zm-42.26,18.61c.92.81,2.23,1.21,3.93,1.21,1.53,0,2.99-.34,4.39-1.02,1.4-.68,2.57-1.59,3.52-2.73v-6.93h-3.65c-3.03,0-5.39.53-7.07,1.58-1.68,1.05-2.52,2.51-2.52,4.38,0,1.54.46,2.71,1.39,3.52Zm7.31,6.93c-1.91.85-3.95,1.28-6.13,1.28-3.84,0-6.89-1-9.15-3.01-2.26-2.01-3.39-4.7-3.39-8.09,0-3.92,1.64-6.98,4.91-9.17,3.27-2.2,7.85-3.29,13.74-3.29h4.55v-.94c-.14-4.34-2.58-6.51-7.33-6.51-1.62,0-3.5.24-5.62.72-2.13.48-4.06,1.09-5.77,1.84l-2.26-7.25c2.46-1.01,5.04-1.78,7.74-2.33,2.71-.55,5.25-.82,7.61-.82,5.26,0,9.28,1.31,12.09,3.92,2.8,2.62,4.2,6.41,4.2,11.38v23.01h-8.82l-1.21-4.45c-1.53,1.63-3.25,2.88-5.16,3.73Zm-47.36-22.29h15.07c-.3-5.23-2.58-7.84-6.84-7.84-2.36,0-4.22.65-5.58,1.94-1.36,1.29-2.24,3.26-2.66,5.9Zm23.96,19.79c-5.65,2.64-10.87,3.94-15.66,3.92-5.88,0-10.5-1.73-13.86-5.18-3.36-3.46-5.04-8.25-5.04-14.39s1.64-10.89,4.93-14.31c3.29-3.42,7.89-5.13,13.82-5.13,11.14,0,16.7,6.36,16.7,19.09v2.45h-25.08c.56,6.4,3.82,9.6,9.79,9.6,1.85,0,3.72-.22,5.59-.65,1.88-.43,3.95-1.13,6.22-2.08l2.57,6.69Zm-43.73,3.15c-1.99.42-3.89.63-5.69.63-6.16,0-10.87-1.67-14.14-5.01-3.27-3.34-4.9-8.15-4.9-14.43s1.68-10.86,5.04-14.24c3.36-3.37,8.1-5.06,14.24-5.06,3.79,0,7.4.89,10.8,2.66l-2.36,7.11c-2.52-1.33-4.97-2-7.33-2-3.08,0-5.46,1-7.14,3.01-1.68,2.01-2.51,4.84-2.51,8.51s.86,6.45,2.59,8.44c1.73,1.98,4.21,2.98,7.45,2.98,2.66,0,5.27-.57,7.81-1.72l1.7,7.32c-1.71.77-3.57,1.37-5.56,1.79Zm-63.44-12.4c2.19,3.01,5.41,4.52,9.67,4.52s7.49-1.5,9.67-4.52c2.19-3.01,3.28-7.41,3.28-13.2s-1.09-9.95-3.28-12.89c-2.19-2.94-5.41-4.41-9.67-4.41s-7.54,1.46-9.71,4.38c-2.17,2.92-3.25,7.22-3.25,12.92s1.09,10.19,3.28,13.2Zm27.66,6.34c-4.12,4.5-10.12,6.76-17.99,6.76s-13.93-2.25-18.02-6.74c-4.1-4.49-6.15-11.01-6.15-19.56s2.07-14.71,6.22-19.19c4.14-4.48,10.13-6.72,17.96-6.72s13.81,2.23,17.96,6.71c4.14,4.47,6.22,10.87,6.22,19.21s-2.06,15.03-6.18,19.54Zm-73.53-20.14v26.27h-10.7v-37.58h8.89l1.15,5.22c3.29-3.88,7.61-5.81,12.96-5.81,3.89,0,6.89,1.15,9,3.45,2.11,2.3,3.16,5.55,3.16,9.75v24.97h-10.66v-24.37c0-2.2-.43-3.78-1.29-4.76-.86-.98-2.23-1.47-4.13-1.47-1.71,0-3.31.39-4.79,1.17-1.48.78-2.67,1.84-3.58,3.17Zm-42.79,3.26h15.07c-.3-5.23-2.58-7.84-6.84-7.84-2.36,0-4.22.65-5.57,1.94-1.35,1.29-2.24,3.26-2.66,5.9Zm23.96,19.79c-5.65,2.64-10.87,3.94-15.66,3.92-5.88,0-10.5-1.73-13.86-5.18-3.36-3.46-5.04-8.25-5.04-14.39s1.64-10.89,4.93-14.31c3.29-3.42,7.89-5.13,13.82-5.13,11.14,0,16.71,6.36,16.71,19.09v2.45h-25.08c.56,6.4,3.82,9.6,9.79,9.6,1.85,0,3.72-.22,5.59-.65,1.88-.43,3.95-1.13,6.22-2.08l2.57,6.69Zm-62.41-3.68c.69.09,1.54.14,2.54.14,3.22,0,5.69-1.05,7.41-3.15,1.72-2.1,2.59-5.18,2.59-9.25,0-7.56-2.6-11.33-7.81-11.31-1.9,0-3.53.51-4.88,1.54-1.36,1.03-2.33,2.47-2.94,4.34v17.05c1.37.33,2.4.54,3.09.63Zm-3.09,6.69v16.63h-10.66v-54h8.16l1.63,4.45c1.57-1.73,3.22-2.98,4.95-3.76,1.72-.78,3.71-1.17,5.96-1.17,5.16,0,9.18,1.61,12.05,4.83,2.87,3.22,4.31,7.8,4.31,13.73,0,4.16-.82,7.74-2.47,10.75-1.64,3.01-3.97,5.32-6.98,6.92-3.01,1.6-6.58,2.4-10.7,2.4-1.95,0-4.03-.26-6.25-.77Zm-52.36-12.26c2.19,3.01,5.41,4.52,9.67,4.52s7.48-1.5,9.67-4.52c2.19-3.01,3.28-7.41,3.28-13.2s-1.09-9.95-3.28-12.89c-2.19-2.94-5.41-4.41-9.67-4.41s-7.54,1.46-9.71,4.38c-2.17,2.92-3.25,7.22-3.25,12.92s1.09,10.19,3.28,13.2Zm27.66,6.34c-4.12,4.5-10.12,6.76-17.99,6.76s-13.93-2.25-18.03-6.74c-4.1-4.49-6.15-11.01-6.15-19.56s2.07-14.71,6.22-19.19c4.14-4.48,10.13-6.72,17.96-6.72s13.81,2.23,17.96,6.71c4.14,4.47,6.22,10.87,6.22,19.21s-2.06,15.03-6.18,19.54Z"></path></svg> 