<?xml version="1.0" encoding="UTF-8"?> <svg xmlns="http://www.w3.org/2000/svg" id="Layer_1" width="100" height="118.39" viewBox="0 0 100 118.39"><defs><style>.cls-1{fill:#fff;stroke-width:0px;}</style></defs><path class="cls-1" d="m0,0v31.92c0,35.25,17.43,65.75,49.06,85.87l.93.59.93-.59c31.64-20.12,49.07-50.62,49.07-85.87V0H0Zm72.62,47.04c.37.74,1.12,1.79,1.69,2.35.41.41.33.67.17.98-.17.31-.68.8-.84.92-.17.13-.85.53-1.29-.35-.44-.87-.79-2.5-.85-3.16-.05-.65-.5-.54-.55.01-.02.27-.02.38-.02,1.1s.22,1.65.57,2.53c.35.89.04.94-.2,1.07-.24.13-.5.2-.98.2s-.74-.07-.98-.2c-.24-.13-.55-.18-.2-1.07s.57-1.81.57-2.53,0-.83-.02-1.1c-.05-.56-.5-.67-.55-.01-.05.67-.41,2.3-.85,3.16-.44.87-1.12.47-1.29.35-.17-.13-.68-.62-.84-.92-.17-.31-.25-.57.17-.98.57-.56,1.32-1.61,1.69-2.35.37-.74.07-1.1-.46-.35-.51.74-1.16,1.47-1.75,1.92-.3.23-.46.33-.72-.02-.26-.35-.72-1.11-.59-1.88s.51-.94.83-.96c.51-.04,1.41,0,2.04-.58.86-.8,1.33-1.6,1.73-3.71.2-1.07.68-1.36,1.21-1.36s1.01.29,1.22,1.36c.4,2.11.87,2.91,1.73,3.71.62.58,1.52.54,2.04.58.31.02.7.18.83.96s-.33,1.54-.59,1.88c-.26.35-.42.25-.72.02-.59-.45-1.23-1.17-1.75-1.92-.53-.75-.83-.4-.46.35Zm-10.04-6.09c0,2.95-2.39,5.33-5.34,5.33-1.29,0-2.47-.44-3.39-1.21.58.86,1.21,1.81,1.21,3.21,0,2.76-2.37,5.1-5.07,5.1s-5.07-2.34-5.07-5.1c0-1.4.63-2.36,1.21-3.21-.92.76-2.1,1.21-3.39,1.21-2.95,0-5.34-2.38-5.34-5.33,0-1.29.45-2.48,1.21-3.41-.92.76-2.1,1.21-3.39,1.21-2.9,0-5.25-2.31-5.33-5.19h40.18c-.08,2.88-2.43,5.19-5.33,5.19-1.29,0-2.47-.44-3.39-1.21.76.92,1.21,2.12,1.21,3.41Zm-10.17,25.6c.39.78,1.18,1.89,1.78,2.48.44.43.35.7.17,1.03-.17.32-.72.84-.89.97-.17.13-.89.55-1.35-.36-.47-.91-.83-2.63-.89-3.33-.06-.69-.52-.57-.58.02-.03.29-.02.4-.02,1.16s.23,1.73.6,2.66c.37.93.04.99-.21,1.12-.25.14-.52.21-1.03.21s-.78-.08-1.02-.21c-.25-.14-.58-.19-.21-1.12.37-.93.6-1.9.6-2.66s0-.88-.02-1.16c-.06-.59-.52-.7-.58-.02-.06.7-.43,2.42-.89,3.33-.46.91-1.18.5-1.35.36-.17-.14-.72-.65-.89-.97s-.26-.6.17-1.03c.6-.59,1.39-1.69,1.78-2.48.39-.78.07-1.16-.48-.36-.54.78-1.22,1.54-1.84,2.02-.31.24-.48.35-.75-.01-.27-.36-.75-1.16-.62-1.98.14-.82.54-.99.87-1.01.54-.04,1.48,0,2.15-.61.91-.84,1.4-1.68,1.82-3.9.21-1.13.72-1.43,1.28-1.43s1.07.3,1.28,1.43c.42,2.22.92,3.06,1.82,3.9.66.61,1.6.57,2.14.61.33.02.74.19.87,1.01.14.82-.35,1.62-.62,1.98-.27.36-.44.26-.75.01-.62-.47-1.3-1.23-1.84-2.02-.54-.79-.86-.42-.47.36Zm-5.94-5.54h.88c.52,0,.57.19.41.76-.16.58-.43,1.08-.62,1.44-.2.35-.41.2-.49-.17-.08-.34-.24-.79-.43-1.22-.2-.42-.11-.81.25-.81Zm6.16,0h.88c.36,0,.44.4.25.82-.2.43-.35.87-.43,1.22-.08.36-.3.51-.49.17-.2-.35-.47-.86-.62-1.44-.16-.57-.1-.77.42-.77Zm-20.66-13.97c.37.74,1.12,1.79,1.69,2.35.41.41.33.67.17.98-.17.31-.68.8-.85.92-.17.13-.85.53-1.29-.35-.44-.87-.79-2.5-.85-3.16-.05-.65-.5-.54-.55.01-.02.27-.02.38-.02,1.1s.22,1.65.57,2.53c.35.89.04.94-.2,1.07-.24.13-.5.2-.98.2s-.74-.07-.98-.2c-.24-.13-.55-.18-.2-1.07s.57-1.81.57-2.53,0-.83-.02-1.1c-.06-.56-.5-.67-.55-.01-.05.67-.41,2.3-.85,3.16-.44.87-1.12.47-1.29.35-.17-.13-.68-.62-.85-.92-.17-.31-.25-.57.17-.98.57-.56,1.32-1.61,1.69-2.35.37-.74.07-1.1-.46-.35-.52.74-1.16,1.47-1.75,1.92-.3.23-.46.33-.72-.02-.26-.35-.72-1.11-.59-1.88.13-.78.51-.94.83-.96.51-.04,1.41,0,2.04-.58.86-.8,1.33-1.6,1.73-3.71.2-1.07.68-1.36,1.21-1.36s1.01.29,1.21,1.36c.4,2.11.87,2.91,1.73,3.71.62.58,1.52.54,2.04.58.31.02.7.18.83.96.13.78-.33,1.54-.59,1.88-.26.35-.42.25-.72.02-.59-.45-1.23-1.17-1.75-1.92-.53-.75-.83-.4-.46.35Zm-5.65-5.26h.84c.49,0,.55.18.39.73-.15.55-.41,1.03-.59,1.36-.19.33-.39.19-.47-.16-.07-.33-.23-.75-.41-1.16-.18-.4-.1-.78.24-.78Zm5.85,0h.84c.34,0,.42.38.24.78-.19.41-.34.83-.41,1.16-.08.34-.28.49-.47.16-.19-.33-.44-.82-.59-1.36-.15-.55-.1-.73.39-.73Zm36.02.73c-.15.55-.41,1.03-.59,1.36-.19.33-.39.19-.47-.16-.07-.33-.23-.75-.41-1.16-.18-.4-.1-.78.24-.78h.84c.49,0,.55.18.39.73Zm4.62-.73h.84c.34,0,.42.38.24.78-.19.41-.34.83-.41,1.16-.08.34-.28.49-.47.16-.19-.33-.45-.82-.59-1.36-.15-.55-.1-.73.39-.73Zm23.69-11.7H3.48V3.48h93.04v26.61ZM19.88,85.43C9.46,70.26,3.81,52.65,3.51,33.56h1.99c.72.91,1.16,2.06,1.16,3.31s-.44,2.47-1.21,3.39c.92-.76,2.12-1.21,3.41-1.21,2.95,0,5.33,2.39,5.33,5.33,0,1.29-.6,2.62-1.21,3.39.92-.76,2.12-1.21,3.41-1.21,2.95,0,5.33,2.39,5.33,5.33,0,1.29-.44,2.47-1.21,3.39.93-.76,2.12-1.21,3.41-1.21,2.95,0,5.33,2.39,5.33,5.33,0,1.29-.6,2.62-1.21,3.39.72-.68,1.89-1.21,3.21-1.21,2.76,0,5.11,2.37,5.11,5.07s-2.35,5.07-5.11,5.07c-1.33,0-2.5-.54-3.21-1.21.61.77,1.21,2.1,1.21,3.39,0,2.95-2.39,5.33-5.33,5.33-1.29,0-2.49-.45-3.41-1.21.77.92,1.21,2.1,1.21,3.39,0,1.61-.72,3.05-1.85,4.03Zm13.38-2.88c-.19.41-.34.83-.41,1.16-.08.34-.28.49-.47.16-.19-.33-.44-.82-.59-1.36-.15-.54-.1-.72.39-.72h.84c.34,0,.42.38.24.78Zm-5.7-.05c-.15.55-.41,1.03-.59,1.36-.19.33-.39.19-.47-.16-.07-.33-.23-.75-.41-1.16-.18-.4-.11-.78.24-.78h.84c.5,0,.55.18.39.73Zm1.14,10c-.24-.13-.55-.18-.2-1.07s.57-1.81.57-2.53,0-.83-.02-1.1c-.06-.56-.5-.67-.55-.01-.05.67-.41,2.3-.85,3.16-.44.87-1.12.47-1.29.35-.17-.13-.68-.62-.85-.92-.17-.31-.25-.57.17-.98.57-.56,1.32-1.61,1.69-2.35.37-.74.07-1.1-.46-.34-.52.74-1.16,1.47-1.75,1.92-.3.23-.46.33-.72-.01-.26-.35-.72-1.11-.59-1.88.13-.78.51-.94.83-.96.51-.04,1.41,0,2.04-.58.86-.8,1.33-1.6,1.73-3.71.2-1.07.68-1.36,1.21-1.36s1.01.29,1.21,1.36c.4,2.11.87,2.91,1.73,3.71.62.58,1.52.54,2.04.58.31.02.7.18.83.96.13.78-.33,1.54-.59,1.88-.26.35-.42.25-.72.01-.59-.45-1.23-1.17-1.75-1.92-.53-.75-.83-.4-.46.34.37.74,1.12,1.79,1.69,2.35.41.41.33.67.17.98-.17.31-.68.8-.85.92-.17.13-.85.53-1.29-.35-.44-.87-.79-2.5-.85-3.16-.05-.65-.5-.54-.55.01-.02.27-.02.38-.02,1.1s.22,1.65.57,2.53c.35.89.04.94-.2,1.07-.24.13-.5.2-.98.2s-.74-.07-.98-.2Zm21.3,21.75c-7.44-4.83-14.05-10.25-19.78-16.19.74-2.06,2.7-3.53,5.02-3.53,1.29,0,2.47.44,3.39,1.21-.77-.92-1.21-2.12-1.21-3.41,0-2.94,2.39-5.33,5.34-5.33,1.29,0,2.47.44,3.39,1.21-.58-.86-1.21-1.81-1.21-3.21,0-2.76,2.37-5.1,5.07-5.1s5.07,2.34,5.07,5.1c0,1.4-.63,2.36-1.21,3.21.92-.76,2.1-1.21,3.39-1.21,2.95,0,5.34,2.38,5.34,5.33,0,1.29-.45,2.49-1.21,3.41.92-.76,2.1-1.21,3.39-1.21,2.32,0,4.28,1.48,5.02,3.53-5.74,5.94-12.34,11.37-19.78,16.19Zm25.55-25.65c-.26.35-.42.25-.72.01-.59-.45-1.23-1.17-1.75-1.92-.52-.75-.83-.4-.46.34.37.74,1.12,1.79,1.69,2.35.41.41.33.67.17.98-.17.31-.68.8-.84.92-.17.13-.85.53-1.29-.35-.44-.87-.79-2.5-.85-3.16-.05-.65-.5-.54-.55.01-.02.27-.02.38-.02,1.1s.22,1.65.57,2.53c.35.89.04.94-.2,1.07-.24.13-.5.2-.98.2s-.74-.07-.98-.2c-.24-.13-.55-.18-.2-1.07s.57-1.81.57-2.53,0-.83-.02-1.1c-.05-.56-.5-.67-.55-.01-.05.67-.41,2.3-.85,3.16-.44.87-1.12.47-1.29.35-.17-.13-.68-.62-.84-.92-.17-.31-.25-.57.17-.98.57-.56,1.33-1.61,1.69-2.35.37-.74.07-1.1-.46-.34-.51.74-1.16,1.47-1.75,1.92-.3.23-.46.33-.72-.01-.26-.35-.72-1.11-.59-1.88s.51-.94.83-.96c.51-.04,1.41,0,2.04-.58.86-.8,1.33-1.6,1.73-3.71.2-1.07.68-1.36,1.21-1.36s1.01.29,1.22,1.36c.4,2.11.87,2.91,1.73,3.71.62.58,1.52.54,2.04.58.31.02.7.18.83.96s-.33,1.54-.59,1.88Zm-8.57-6.82h.84c.49,0,.55.18.39.73-.15.55-.41,1.03-.59,1.36-.19.33-.39.19-.47-.16-.07-.33-.23-.75-.41-1.16-.18-.4-.1-.78.24-.78Zm5.85,0h.84c.34,0,.42.38.24.78-.19.41-.34.83-.41,1.16-.08.34-.28.49-.47.16-.19-.33-.45-.82-.59-1.36-.15-.54-.1-.72.39-.72Zm7.29,3.64c-1.13-.98-1.85-2.42-1.85-4.03,0-1.29.44-2.47,1.21-3.39-.92.76-2.12,1.21-3.41,1.21-2.95,0-5.33-2.39-5.33-5.33,0-1.29.6-2.62,1.21-3.39-.72.68-1.89,1.21-3.21,1.21-2.76,0-5.11-2.37-5.11-5.07s2.35-5.07,5.11-5.07c1.32,0,2.49.54,3.21,1.21-.61-.77-1.21-2.1-1.21-3.39,0-2.95,2.39-5.33,5.33-5.33,1.29,0,2.49.45,3.41,1.21-.76-.92-1.21-2.1-1.21-3.39,0-2.95,2.39-5.33,5.33-5.33,1.29,0,2.49.45,3.41,1.21-.61-.77-1.21-2.1-1.21-3.39,0-2.95,2.39-5.33,5.33-5.33,1.29,0,2.49.45,3.41,1.21-.76-.92-1.21-2.1-1.21-3.39s.43-2.4,1.16-3.31h1.99c-.3,19.11-5.95,36.72-16.37,51.88Z"></path><path class="cls-1" d="m21.84,19.13c-.18.16-.13.4.16.37.29-.02.4-.02.69-.02h3.01c.24.01.69.23.69-.25v-1.46c0-.79-.4-.93-.63.02-.16.63-.35,1.2-1.32,1.2h-.63c-.26,0-.35-.1-.38-.32-.06-.55-.06-1.55,0-2.64.02-.32.16-.35.47-.35s.4.03.5.28c.11.3.69.83.69,0v-1.1c0-.83-.51-.24-.65,0-.14.24-.22.24-.53.24s-.42-.06-.43-.38c-.03-.52-.06-1.34,0-2.31.02-.22.08-.32.34-.32h.63c.97,0,.97.65,1.12,1.29.16.63.63.47.63.02v-1.46c0-.47-.45-.26-.69-.24h-2.82c-.29,0-.4,0-.69-.02s-.34.22-.16.38c.18.16.24.18.25.79v5.49c0,.62-.06.64-.24.79m-2.99-7.02c.17-.16.16-.44-.07-.42s-.32.02-.55.02-.32,0-.54-.02-.3.22-.18.38c.11.16.32.18.22.79l-1.17,3.8c-.14.48-.44.64-.57,0l-.8-3.79c-.13-.61-.07-.63.08-.79.15-.16.05-.4-.24-.38s-.41.02-.7.02-.41,0-.71-.02c-.3-.02-.29.22-.08.38.22.16.28.18.42.79l1.39,6c.13.5.22.85.54.85s.51-.33.64-.83l1.85-6.02c.25-.6.3-.58.47-.74m13.64,9.89h-1.61v3.36h-8.87c.03-.14.05-.27.05-.42,0-.11-.02-.22-.03-.33h7.76v-15.36l-1.02-1.05h2.12v3.1h1.61c.4,0,.72.32.72.72s-.32.72-.72.72h-1.61v7.81h1.61c.4,0,.72.32.72.72,0,.4-.32.72-.72.72m-12.47,4.29c-.74,0-1.35-.6-1.35-1.35s.61-1.35,1.35-1.35,1.35.6,1.35,1.35-.6,1.35-1.35,1.35m-10.86-.93v-3.36h-1.61c-.4,0-.72-.32-.72-.72s.32-.72.72-.72h1.61v-7.82h-1.61c-.4,0-.72-.32-.72-.72s.32-.72.72-.72h1.61v-3.1h2.13l-1.02,1.05v15.37h7.75c-.02.11-.03.22-.03.33,0,.14.02.28.05.42h-8.87Zm2.9-2.81l-1.16,1.03v-14.08l1.16-1.19v14.24Zm4.74.45c.89,0,1.5.13,1.94.37-.2.17-.38.37-.5.6h-6.83l1.08-.96h4.3Zm-4.11-14.81h4.11c1.6,0,2.9,1.3,2.9,2.9v11.86c-.11.02-.22.05-.32.08-.61-.46-1.42-.65-2.57-.65h-4.11s0-14.18,0-14.18h0Zm10.54,0h4.11v14.19h-4.11c-1.15,0-1.96.19-2.57.65-.11-.04-.21-.06-.32-.08v-11.86c0-1.6,1.29-2.9,2.9-2.9m5.39,15.78h-6.83c-.13-.23-.29-.44-.5-.6.44-.24,1.05-.37,1.94-.37h4.31s1.08.97,1.08.97Zm-.97-1.28h0Zm.32-14.39l1.16,1.2v14.08l-1.16-1.03v-14.25Zm4.51,11.61h-.98v-6.55h.98c.75,0,1.36-.61,1.36-1.36s-.61-1.36-1.36-1.36h-.98v-3.1h-8.28c-1.43,0-2.66.85-3.22,2.07-.56-1.22-1.79-2.07-3.21-2.07h-8.28v3.1h-.97c-.75,0-1.36.61-1.36,1.36s.61,1.36,1.36,1.36h.97v6.55h-.97c-.75,0-1.36.61-1.36,1.36s.61,1.36,1.36,1.36h.97v3.36h9.76c.36.59,1,.98,1.73.98s1.38-.4,1.73-.98h9.76v-3.36h.98c.75,0,1.36-.61,1.36-1.36s-.61-1.36-1.36-1.36m12.53-6.25v1.17c0,.2.15.38.56.38s1.32-.24,1.32-1.52-.65-1.48-1.05-1.54c-.4-.06-.84-.04-.84.61v.91Zm-.72,5.86c-.26,0-.56,0-.81.02-.26.02-.3-.22-.14-.38.16-.16.34-.18.34-.79v-5.75c0-.26-.02-.39-.24-.57-.21-.18.06-.4.38-.4s1.23.02,1.74.02c2.05,0,2.73.69,2.73,1.89,0,.91-.56,1.48-1.23,1.76-.19.08-.25.21-.25.31s.02.15.11.29c.09.15,1.33,2.6,1.5,2.83.17.23.27.32.38.41.07.05.07.35-.35.35h-1.08s-.07.02-.2-.2c-.13-.22-1.61-3.36-1.75-3.59l-.43-.05v2.68c-.01.61.16.59.34.75.18.16.13.44-.17.41-.29-.02-.59-.02-.88-.02m9.68-1.09c0,.61.07.63.24.79.18.16.14.39-.16.38-.29-.02-.4-.02-.69-.02s-.41,0-.7.02-.33-.22-.16-.38c.18-.16.24-.18.25-.79v-5.49c0-.61-.07-.63-.25-.79-.17-.16-.13-.4.16-.38.29.02.4.02.7.02s.4,0,.69-.02c.29-.02.34.22.16.38-.17.16-.24.18-.24.79v5.49Zm7.46,3.55h-1.61v3.36h-7.84c.03-.14.05-.27.05-.42,0-.11-.02-.22-.03-.33h6.73v-15.36l-1.02-1.05h2.13v3.1h1.61c.4,0,.72.32.72.72s-.32.72-.72.72h-1.61v7.81h1.61c.4,0,.72.32.72.72,0,.4-.33.72-.73.72m-11.45,4.29c-.75,0-1.35-.6-1.35-1.35s.61-1.35,1.35-1.35,1.35.6,1.35,1.35-.61,1.35-1.35,1.35m-11.61-.93v-3.36h-1.61c-.4,0-.72-.32-.72-.72s.32-.72.72-.72h1.61v-7.82h-1.61c-.4,0-.72-.32-.72-.72s.32-.72.72-.72h1.61v-3.1h2.13l-1.02,1.05v15.37h8.51c-.02.11-.03.22-.03.33,0,.14.02.28.05.42h-9.62Zm2.9-2.81l-1.16,1.03v-14.08l1.16-1.19v14.24Zm.32.14h0Zm5.18.31c.89,0,1.49.13,1.94.37-.2.17-.37.37-.5.6h-7.58l1.08-.96h5.06Zm-4.86-14.81h4.86c1.6,0,2.9,1.3,2.9,2.9v11.86c-.11.02-.22.05-.33.08-.61-.46-1.42-.65-2.57-.65h-4.86s0-14.18,0-14.18Zm11.29,0h3.08v14.19h-3.08c-1.15,0-1.96.2-2.57.65-.11-.04-.21-.07-.33-.08v-11.86c0-1.6,1.3-2.9,2.9-2.9m4.37,15.78h-5.8c-.13-.23-.29-.44-.5-.6.44-.24,1.05-.37,1.94-.37h3.28s1.08.97,1.08.97Zm-.65-15.67l1.16,1.19v14.08l-1.16-1.03v-14.24Zm4.51,11.61h-.97v-6.55h.97c.75,0,1.36-.61,1.36-1.36s-.61-1.36-1.36-1.36h-.97v-3.1h-7.25c-1.43,0-2.66.85-3.22,2.07-.56-1.22-1.79-2.07-3.22-2.07h-9.03v3.1h-.97c-.75,0-1.36.61-1.36,1.36s.61,1.36,1.36,1.36h.97v6.55h-.97c-.75,0-1.36.61-1.36,1.36s.61,1.36,1.36,1.36h.97v3.36h10.52c.36.59,1,.98,1.73.98s1.37-.4,1.73-.98h8.74v-3.36h.97c.75,0,1.36-.61,1.36-1.36,0-.75-.61-1.36-1.36-1.36m17.03-5.43c.27-.93.44-.96.65.07l.38,1.58c.14.39.09.47-.65.47-.96,0-1.02-.07-.84-.46l.45-1.66Zm1.32,2.83l.25,1.03c.13.61.07.63-.08.79-.14.16-.05.4.24.38.29-.02.49-.02.78-.02s.33,0,.63.02.26-.36.11-.46c-.22-.16-.23-.29-.37-.7l-1.7-6c-.13-.5-.32-.83-.44-.8-.37.08-.81.18-.79.43l.03.65-1.72,5.73c-.25.59-.3.58-.47.74-.17.16-.16.44.07.42s.32-.02.55-.02.31,0,.54.02c.23.02.3-.22.19-.38-.12-.16-.32-.18-.22-.79l.35-1.11c.09-.25.66-.16.96-.16.3,0,.97-.11,1.09.24m-5.59-5.57c.39,0,.87-.02,1.55-.06.95-.06.97,0,.97.28,0,.18.02.99.02,1.2s-.02.57-.23.57-.29-.24-.41-.57c-.35-.95-.71-1.09-.95-1.09s-.32.2-.32.71v5.49c0,.61.07.63.26.79.19.16.14.44-.17.42-.31-.02-.43-.02-.73-.02s-.42,0-.73.02c-.31.02-.35-.26-.16-.42.19-.16.25-.17.26-.79v-5.49c0-.51-.07-.71-.32-.71s-.6.14-.96,1.09c-.12.33-.2.57-.41.57-.2,0-.23-.35-.23-.57s.02-1.02.02-1.2c0-.28.02-.33.97-.28.68.04,1.16.06,1.55.06m7.93,5.86c0-.72.46-.62.71.1.24.67.57,1.52,1.48,1.52s1.11-1.05,1.11-1.56c0-.81-.33-1.08-1.58-2.02-1.24-.93-1.52-1.52-1.52-2.25s.71-1.87,1.86-1.87c.56,0,.84.05,1.14.27.04.03.42.05.5-.05.12-.16.35.04.35.26s0,1.17.02,1.5c.02.34-.39.58-.59-.02-.23-.69-.39-1.62-1.26-1.62-.74,0-.93.89-.93,1.23,0,.95.95,1.26,1.97,2.03,1.03.77,1.29,1.11,1.29,2.17,0,1.16-1.1,2.37-2.34,2.37-.53,0-.97-.3-1.4-.3s-.41.16-.56.16-.32-.13-.29-.4c.04-.27.04-1.08.04-1.5m10.24,4.39h-1.61v3.36h-9.54c.03-.14.05-.27.05-.42,0-.11-.02-.22-.03-.33h8.64v-15.37l-1.02-1.05h1.91v3.1h1.61c.4,0,.72.32.72.72s-.32.72-.72.72h-1.61v7.81h1.61c.4,0,.72.32.72.72s-.33.72-.72.72m-13.14,4.29c-.75,0-1.35-.6-1.35-1.35s.6-1.35,1.35-1.35,1.35.61,1.35,1.35-.61,1.35-1.35,1.35m-11.81-.93v-3.36h-1.61c-.4,0-.72-.32-.72-.72s.32-.72.72-.72h1.61v-7.81h-1.61c-.4,0-.72-.32-.72-.72s.32-.72.72-.72h1.61v-3.1h2.13l-1.02,1.05v15.37h8.71c-.02.11-.03.22-.03.33,0,.14.02.28.05.42h-9.82Zm2.9-2.81l-1.16,1.03v-14.08l1.16-1.2v14.25Zm5.69.45c.89,0,1.49.13,1.94.37-.2.17-.37.37-.5.6h-7.78l1.08-.96h5.25Zm-5.06-14.82h5.06c1.32,0,2.47.87,2.8,2.12l.06.23h.55l.06-.23c.33-1.25,1.48-2.12,2.8-2.12h5.15v14.19h-4.99c-1.15,0-1.96.2-2.57.65-.2-.07-.42-.11-.64-.11s-.44.05-.64.11c-.61-.46-1.42-.65-2.57-.65h-5.06s0-14.18,0-14.18h0Zm17.77,15.79h-7.72c-.13-.23-.3-.44-.5-.6.44-.24,1.05-.37,1.94-.37h5.19s1.08.97,1.08.97Zm-.65-15.67l1.16,1.2v14.08l-1.16-1.03v-14.25Zm4.3,11.61h-.98v-6.55h.98c.75,0,1.35-.61,1.35-1.36s-.61-1.36-1.35-1.36h-.98v-3.1h-9.1c-1.34,0-2.54.75-3.14,1.88-.59-1.13-1.8-1.88-3.14-1.88h-9.23v3.1h-.98c-.75,0-1.36.61-1.36,1.36s.61,1.36,1.36,1.36h.98v6.55h-.98c-.75,0-1.36.61-1.36,1.36s.61,1.36,1.36,1.36h.98v3.36h10.71c.36.59,1,.98,1.73.98s1.38-.4,1.73-.98h10.44v-3.36h.98c.75,0,1.35-.61,1.35-1.36,0-.75-.61-1.36-1.36-1.36"></path></svg> 