<?xml version="1.0" encoding="UTF-8"?> <svg xmlns="http://www.w3.org/2000/svg" id="Layer_1" width="100" height="21.71" viewBox="0 0 100 21.71"><defs><style>.cls-1{fill:#fff;}</style></defs><path class="cls-1" d="m37.9,4.56c-3.62,0-6.23,2.61-6.23,6.23s2.61,6.23,6.23,6.23,6.19-2.61,6.19-6.23c.02-3.62-2.58-6.23-6.19-6.23Zm0,10.4c-2.3,0-3.86-1.73-3.86-4.19s1.55-4.19,3.86-4.19,3.83,1.73,3.83,4.19c.02,2.48-1.55,4.19-3.83,4.19Z"></path><path class="cls-1" d="m48.86,6.87v-2.32h-2.32v12.42h2.32v-5.65c0-2.64.72-4.75,2.93-4.75h1.74v-2.02h-1.46c-1.71,0-2.67.72-3.22,2.32h0Z"></path><path class="cls-1" d="m64.29,6.35c-.74-1.06-2.22-1.79-3.83-1.79-3.68,0-5.78,2.64-5.78,6.23s2.08,6.23,5.79,6.23c1.7,0,3.23-.69,3.81-1.73v1.97c0,1.46-1.01,2.51-2.4,2.51h-5.59v1.94h5.83c2.64,0,4.48-1.78,4.48-4.31V4.56h-2.32v1.79h.01Zm-3.54,8.61c-2.22,0-3.68-1.65-3.68-4.19s1.46-4.19,3.68-4.19,3.71,1.65,3.71,4.19-1.47,4.19-3.71,4.19Z"></path><rect class="cls-1" x="69.69" y="4.53" width="2.32" height="12.44"></rect><path class="cls-1" d="m95.49,4.56c-1.79,0-3.23.82-3.87,2.32v-2.35h-2.32v12.42h2.32v-6.67c0-2.11,1.34-3.63,3.23-3.63,1.7,0,2.83,1.3,2.83,3.2v7.11h2.32v-7.55c-.02-2.88-1.79-4.83-4.51-4.83v-.02Z"></path><circle class="cls-1" cx="70.85" cy="1.57" r="1.54"></circle><path class="cls-1" d="m23.83,4.56c-3.51,0-6.05,2.61-6.05,6.23s2.53,6.23,6.05,6.23c2.75,0,4.88-1.62,5.68-4.05h-2.43c-.61,1.25-1.78,2.02-3.25,2.02-2.11,0-3.59-1.55-3.73-3.81h9.73c0-.13.02-.26.02-.38,0-3.62-2.51-6.23-6.02-6.23h0Zm-3.62,4.91c.35-1.74,1.5-2.88,3.62-2.88s3.22,1.14,3.59,2.88h-7.21Z"></path><path class="cls-1" d="m8.21,2.21c2.46,0,4.39,1.41,4.72,3.44h2.59c-.35-3.3-3.36-5.65-7.31-5.65C3.97,0,0,2.85,0,8.58s3.92,8.58,8.11,8.58c2.37,0,4.39-1.22,5.11-3.02v2.83h2.26v-8.77h-7.17v2.02h3.63c.69,0,1.12.45,1.12,1.1,0,2.18-2.32,3.71-4.88,3.71-3.28,0-5.7-2.35-5.7-6.43.02-4.11,2.43-6.39,5.73-6.39Z"></path><path class="cls-1" d="m84.28,6.34c-.74-1.06-2.22-1.79-3.83-1.79-2.77,0-4.63,1.49-5.39,3.75-.26.75-.38,1.6-.38,2.5,0,3.59,2.08,6.23,5.79,6.23,1.7,0,3.23-.69,3.81-1.73v1.7h2.32V4.55h-2.32v1.79Zm-.1,6.16c-.51,1.54-1.76,2.45-3.44,2.45-2.22,0-3.68-1.65-3.68-4.19,0-.64.1-1.22.26-1.73.51-1.54,1.76-2.45,3.43-2.45,2.26,0,3.71,1.65,3.71,4.19,0,.64-.1,1.22-.27,1.73h-.01Z"></path></svg> 