<?xml version="1.0" encoding="UTF-8"?> <svg xmlns="http://www.w3.org/2000/svg" id="Layer_1" width="599.76" height="400.32" viewBox="0 0 599.76 400.32"><defs><style>.cls-1{fill:#fff;}.cls-2{fill:#53dd6c;}</style></defs><rect class="cls-2" x="212.38" y="112.63" width="175" height="175.06"></rect><path class="cls-1" d="m232.33,190.5c-.17,0-.33-.17-.33-.34v-14.59s0-14.59,0-14.59c0-.17.16-.34.33-.34h19.16c.17,0,.33.17.33.34v5.27c0,.17-.17.34-.33.34h-12.77l-.08,6.08h11.29c.17,0,.33.17.33.34v5.11c0,.17-.17.34-.33.34h-11.29l.08,11.69c0,.17-.17.34-.33.34h-6.05Zm23.61,0c-.17,0-.33-.17-.33-.34l.08-10.62-.08-10.66c0-.17.17-.34.33-.34h5.69c.17,0,.33.17.33.34l-.08,10.66.08,10.62c0,.17-.17.34-.33.34h-5.69Zm31.23-7.42c.17,0,.33.17.29.34-.5,4.05-4.27,7.64-10.33,7.64-7.19,0-11.08-4.82-11.08-11.47,0-7,4.1-11.6,10.96-11.6s11,4.82,11.13,12.5c0,.17-.17.34-.33.34h-15.44c.25,4.14,3.04,4.88,4.85,4.88s3.64.11,4.18-2.28c.04-.21.25-.34.42-.34h5.35Zm-10.12-10.31c-2.57,0-4.02.97-4.52,4h8.83c-.25-2.35-1.74-4-4.31-4Zm71.91,10.31c.17,0,.33.17.29.34-.5,4.05-4.27,7.64-10.33,7.64-7.19,0-11.08-4.82-11.08-11.47,0-7,4.1-11.6,10.96-11.6s11,4.82,11.13,12.5c0,.17-.17.34-.33.34h-15.44c.25,4.14,3.04,4.88,4.85,4.88s3.64.11,4.18-2.28c.04-.21.25-.34.42-.34h5.35Zm-10.12-10.31c-2.57,0-4.02.97-4.52,4h8.83c-.25-2.35-1.74-4-4.31-4Zm-32.86,17.73c-.17,0-.33-.17-.33-.34l.13-2.22c-1.51,1.88-3.14,2.99-5.86,2.99-6.11,0-9.33-4.95-9.33-11.35s2.17-11.47,9.45-11.47c2.64,0,4.18.94,5.65,2.69v-9.81c0-.17.17-.34.33-.34h6.11c.17,0,.33.17.33.34l-.04,14.59.04,14.59c0,.17-.17.34-.33.34h-6.15Zm-3.99-5.39c2.83,0,3.87-2.07,3.91-6.17.04-4.17-1.01-5.7-3.79-5.73-2.94-.06-4.45,1.33-4.45,5.36,0,4.36,1.55,6.58,4.34,6.54Zm15.51,5.39c-.19,0-.37-.17-.37-.34l.14-14.59-.14-14.59c0-.17.19-.34.37-.34h6.18c.19,0,.37.17.37.34l-.14,14.59.14,14.59c0,.17-.19.34-.37.34h-6.18Zm35.97,0c-.17,0-.33-.17-.33-.34l.12-10.66-.12-10.62c0-.17.17-.34.33-.34h6.01c.17,0,.33.17.33.34l-.17,3.37c1.24-2.86,2.91-4.45,6.05-4.45.33,0,.71.04,1,.09.17.04.33.26.33.43v5.26c0,.17-.17.3-.33.3-.25-.04-.59-.04-.84-.04-4.44,0-6.05,1.87-6.05,6.91v9.43c0,.17-.17.34-.33.34h-6.01Zm-108.32,48.25c-8.99,0-14.56-6.23-14.56-15.14s5.69-15.39,14.51-15.39c6.32,0,11.46,2.59,13.09,10.46.04.17-.08.33-.25.33h-5.56c-.17,0-.38-.13-.42-.33-.79-3.56-3.14-5.56-6.94-5.56-5.1,0-7.86,3.93-7.86,10.46s2.84,10.29,7.82,10.29c4.1,0,6.32-2.22,7.11-6.23,0-.21.21-.33.38-.33h5.69c.17,0,.29.17.25.33-1.59,8.03-6.36,11.13-13.26,11.13Zm52.24-.21c-2.51,0-4.54-.92-5.96-2.63l.08,10.42c0,.17-.16.33-.32.33h-5.51c-.16,0-.32-.17-.32-.33l.08-16.95-.08-12.46c0-.17.16-.33.32-.33h5.47c.16,0,.32.17.32.33l-.12,2.17c1.46-1.84,3.53-2.93,6.16-2.93,5.92,0,9.04,4.85,9.04,11.13s-3.48,11.25-9.16,11.25Zm-1.7-4.22c3.08,0,4.66-2.3,4.66-6.69,0-4.77-1.58-7.2-4.54-7.2s-4.54,2.3-4.58,6.78c-.04,4.56,1.54,7.11,4.46,7.11Zm14.76,3.81c-.17,0-.33-.17-.33-.33l.08-10.42-.08-10.46c0-.17.17-.33.33-.33h5.69c.17,0,.33.17.33.33l-.08,10.46.08,10.42c0,.17-.17.33-.33.33h-5.69Zm21.46.17s-1.46.25-2.18.25c-3.64,0-7.11-1.84-7.11-6.74l.04-10.79h-2.47c-.17,0-.34-.17-.34-.33v-3.76c0-.17.17-.33.34-.33h2.47l-.04-5.06c0-.17.17-.33.33-.33h4.55c.17,0,.34.17.34.33l-.04,5.06h3.94c.17,0,.33.17.33.33v3.76c0,.17-.17.33-.33.33h-3.94l.04,10.63c0,1.84,1.97,2.43,3.35,2.43.24,0,.69-.03.69-.03l.03,4.25Zm22.54-5.77c0,2.09.17,5.1.29,5.61h-5.73c-.17-.42-.29-1.59-.29-2.13-.79,1.21-2.26,2.63-6.11,2.63-5.23,0-7.4-3.43-7.4-6.78,0-4.94,3.93-7.24,10.29-7.24h3.09v-1.3c0-1.55-.54-3.05-3.35-3.05-2.51,0-3.09,1.05-3.35,2.63h-5.69c.29-3.85,2.68-6.94,9.29-6.94,5.77.04,8.95,2.3,8.95,7.49v9.08Zm-5.86-3.81h-2.43c-3.64,0-5.34,1.53-5.34,3.62,0,1.55,1.33,2.94,3.5,2.94,3.81,0,4.27-3.13,4.27-5.97v-.59Zm-68.33,3.81c0,2.09.17,5.1.29,5.61h-5.73c-.17-.42-.29-1.59-.29-2.13-.79,1.21-2.26,2.63-6.11,2.63-5.23,0-7.4-3.43-7.4-6.78,0-4.94,3.93-7.24,10.29-7.24h3.09v-1.3c0-1.55-.54-3.05-3.35-3.05-2.51,0-3.09,1.05-3.35,2.63h-5.69c.29-3.85,2.68-6.94,9.29-6.94,5.77.04,8.95,2.3,8.95,7.49v9.08Zm-5.86-3.81h-2.43c-3.64,0-5.34,1.53-5.34,3.62,0,1.55,1.33,2.94,3.5,2.94,3.81,0,4.27-3.13,4.27-5.97v-.59Zm85.69,9.41c-.17,0-.33-.17-.33-.33l.13-14.31-.13-14.31c0-.17.17-.33.33-.33h5.52c.17,0,.33.17.33.33l-.13,14.31.13,14.31c0,.17-.17.33-.33.33h-5.52Zm-46.8-24.49c1.68,0,3.05-1.36,3.05-3.05s-1.36-3.05-3.05-3.05-3.05,1.36-3.05,3.05,1.36,3.05,3.05,3.05Zm-54.51-47.85c1.94,0,3.52-1.58,3.52-3.52s-1.58-3.52-3.52-3.52-3.52,1.58-3.52,3.52,1.58,3.52,3.52,3.52Z"></path></svg> 