<?xml version="1.0" encoding="UTF-8"?> <svg xmlns="http://www.w3.org/2000/svg" id="Layer_1" width="600" height="400" viewBox="0 0 600 400"><defs><style>.cls-1{fill:#448aff;fill-rule:evenodd;stroke-width:0px;}</style></defs><g id="Navigation-Update-"><g id="Desktop-Main"><g id="Navigation"><g id="mw_logo_full"><g id="Group-67"><path id="Fill-1" class="cls-1" d="m145.27,196.75c0-6.43-3.76-10.01-9.46-10.01s-9.46,3.58-9.46,10.01v29.5c0,1.23-.96,2.23-2.15,2.23h-15.64c-1.19,0-2.15-1-2.15-2.23v-29.5c0-6.43-3.66-10.01-9.36-10.01s-9.56,3.58-9.56,10.01v29.5c0,1.23-.96,2.23-2.15,2.23h-15.64c-1.19,0-2.15-1-2.15-2.23v-54.68c0-1.23.96-2.23,2.15-2.23h15.64c1.19,0,2.15,1,2.15,2.23,0,1.89,2.1,2.89,3.53,1.71,3.25-2.69,7.62-4.46,13.05-4.46,7.46,0,13.53,3.06,17.45,8.4.82,1.12,2.44,1.11,3.33.04,3.99-4.84,9.98-8.44,17.25-8.44,14.44,0,23.09,9.7,23.09,25.19v32.24c0,1.23-.96,2.23-2.15,2.23h-15.64c-1.19,0-2.15-1-2.15-2.23v-29.5Z"></path><path id="Fill-3" class="cls-1" d="m207.5,171.53h18.98c.78,0,1.31.81,1,1.53l-28.18,68.32c-.17.4-.57.66-1,.66h-18.79c-.8,0-1.32-.83-.99-1.55l6.09-14.78c.13-.28.13-.6.01-.89l-22.06-51.75c-.31-.72.22-1.53,1-1.53h19.29c.45,0,.86.29,1.02.72l10.44,28.28c.35.96,1.71.95,2.05-.01l10.08-28.26c.16-.44.57-.73,1.03-.73"></path><path id="Fill-5" class="cls-1" d="m230.11,158.25h18.77c.64,0,1.19.45,1.3,1.06l7.05,40.18c.24,1.37,2.25,1.43,2.57.07l9.58-40.32c.14-.58.67-.99,1.28-.99h19.76c.61,0,1.15.41,1.28.99l9.29,39.87c.32,1.36,2.33,1.31,2.58-.07l7.03-39.74c.11-.61.66-1.06,1.3-1.06h18.77c.85,0,1.48.77,1.28,1.58l-16.94,66.95c-.14.57-.67.97-1.28.97h-22.42c-.61,0-1.15-.42-1.28-1l-8.36-36.11c-.31-1.32-2.25-1.33-2.56,0l-8.54,36.12c-.14.58-.67.99-1.28.99h-22.42c-.61,0-1.13-.4-1.28-.97l-16.75-66.95c-.2-.8.43-1.57,1.28-1.57"></path><path id="Fill-8" class="cls-1" d="m354.93,210.84c5.07,0,9.74-3.84,9.74-12.24s-4.57-12.14-9.64-12.14-9.54,3.84-9.54,12.14,4.26,12.24,9.44,12.24m0,17.64c-16.94,0-29.73-11.31-29.73-29.88s12.88-29.78,29.83-29.78,29.83,11.31,29.83,29.78-12.99,29.88-29.93,29.88"></path><path id="Fill-10" class="cls-1" d="m406.31,228.47h-17.72c-.56,0-1.01-.47-1.01-1.06v-57.05c0-.58.45-1.06,1.01-1.06h17.72c.56,0,1.01.47,1.01,1.06v6.28c0,.98,1.17,1.43,1.78.68,3.93-4.83,9.26-8.16,15.37-8.51.58-.03,1.08.44,1.08,1.06v19.9c0,.58-.45,1.06-1.01,1.06h-4.53c-8.16,0-12.69,2.74-12.69,11.81v24.78c0,.58-.45,1.06-1.01,1.06"></path><path id="Fill-12" class="cls-1" d="m434.26,188.67h-4.91c-.61,0-1.1-.48-1.1-1.07v-14.17c0-.59.49-1.07,1.1-1.07h4.91c.61,0,1.1-.48,1.1-1.06v-12.27c0-.59.49-1.06,1.1-1.06h18.07c.61,0,1.1.48,1.1,1.06v12.27c0,.59.49,1.06,1.1,1.06h8.3c.61,0,1.1.48,1.1,1.07v14.17c0,.59-.49,1.07-1.1,1.07h-8.3c-.61,0-1.1.48-1.1,1.06v17.74c0,3,1.34,4.3,4.73,4.3h4.77c.6,0,1.1.48,1.1,1.07v14.57c0,.59-.49,1.06-1.1,1.06h-7.65c-12.76,0-22.12-5.2-22.12-21.3v-17.44c0-.59-.49-1.06-1.1-1.06"></path><path id="Fill-14" class="cls-1" d="m472.78,157.97h17.97c.62,0,1.13.49,1.13,1.1v18.17c0,.98,1.23,1.47,1.93.76,3.58-3.63,8.96-6.2,15.92-6.2,13.21,0,21.57,9.21,21.57,23.93v31.65c0,.61-.51,1.1-1.13,1.1h-17.97c-.62,0-1.13-.49-1.13-1.1v-29.05c0-6.51-3.72-10.31-9.5-10.31s-9.7,3.8-9.7,10.31v29.05c0,.61-.51,1.1-1.13,1.1h-17.97c-.62,0-1.13-.49-1.13-1.1v-68.32c0-.61.51-1.1,1.13-1.1"></path><path id="Fill-16" class="cls-1" d="m539.79,171.53h1.8l2.11,4.11,2.17-4.11h1.7v5.42h-1.3l-.02-3.93-2.11,3.93h-.99l-2.09-3.99v3.99h-1.28v-5.42Zm-5.77,0h4.69v.86h-1.65v4.56h-1.39l.02-4.56h-1.67v-.86Z"></path></g></g></g></g></g></svg> 