<?xml version="1.0" encoding="UTF-8"?> <svg xmlns="http://www.w3.org/2000/svg" id="Layer_1" width="600" height="400" viewBox="0 0 600 400"><defs><style>.cls-1,.cls-2,.cls-3,.cls-4,.cls-5,.cls-6,.cls-7,.cls-8{stroke-width:0px;}.cls-2{fill:#6cb35d;}.cls-3{fill:#543b92;}.cls-4{fill:#397db7;}.cls-5{fill:#b01842;}.cls-6{fill:#d9782d;}.cls-7{fill:#fff;}.cls-8{fill:#ecb73b;}</style></defs><path class="cls-1" d="m213.86,270.35c-.98-4.75-4.88-5.99-9.25-6.39-14.08-1.3-16.54,9.17-16.54,13.6,0,7.56,2.23,13.86,16.01,13.86,2.54,0,9.57-2.6,9.57-6.84h19.86c-.77,12.64-22,15.64-31.25,15.64-19.14,0-35.55-3.58-34.78-22.4.58-13.49,13.28-22.93,38.62-22.35,14.13.32,27.68,4.75,27.76,14.92l-19.99-.05h0Zm198.63,0c-.98-4.75-4.88-5.99-9.17-6.39-14.08-1.3-16.54,9.17-16.54,13.6,0,7.56,2.23,13.86,16.01,13.86,2.54,0,9.57-2.6,9.57-6.84h19.86c-.77,12.64-22,15.64-31.25,15.64-19.14,0-35.55-3.58-34.78-22.4.58-13.49,13.28-22.93,38.62-22.35,14.13.32,27.68,4.75,27.76,14.92l-20.07-.05h0Zm-175.12-14h25.71l21.95,30.8h.19v-30.8h16.54v42.73h-24.68l-23.06-30.8h-.19v30.8h-16.54v-42.73h.08Zm69.48,0h31.25c15.06,0,23.91,4.16,23.91,10.55,0,3.71-3.71,8.32-11.98,9.7v.13c9.97.58,13.6,6.84,13.6,10.6,0,7.56-8.59,11.72-25.48,11.72h-31.39l.05-42.73h0l.03.03Zm18.11,16.59h5.22c8.01,0,12.25-.66,12.25-3.9,0-3.58-3.53-4.75-10.74-4.75h-6.71v8.67h0l-.03-.03Zm0,17.12h5.22c9.65,0,13.15-.98,13.15-4.29,0-3.58-4.43-4.75-11.66-4.75h-6.71v9.04h0Z"></path><path class="cls-7" d="m398.68,251.61c20.33,0,31.65-17.58,30.41-34.2-2.01-21.63-21.87-29.9-32.63-28.13,9.04-5.01,21.1-28.66,2.81-47.21-14.58-13.81-33.14-8.8-39.66-2.81,3.53-11.53-2.28-35.42-25.85-39.21-21.37-2.54-30.62,12.3-33.4,19.35-4.03-10.02-13.86-20.84-32.18-19.35-23.38,2.54-30.62,24.87-27.09,38.17-9.44-6.18-25.26-8.93-39.07,2.86-17.84,17.84-8.27,41.94,1.51,47.74-10.82-.98-27.86,6.26-31.65,25.4-4.03,23.57,14.08,37.46,31.65,37.46h195.19v-.05l-.03-.03Z"></path><path class="cls-6" d="m248,156.13l35.95,82.13-74.17-50.66c-18.56-12.3-14.85-33.4-4.51-42.73,14.58-12.3,35.18-8.01,42.73,11.27h0Z"></path><path class="cls-5" d="m297.15,136.85l-13.02,91.96-37.19-87.48c-8.01-21.82,10.02-36.13,22.14-36.4,13.81-1.51,31.12,8.99,28.07,31.92Z"></path><path class="cls-3" d="m353.69,141.1l-36.93,87.67-11.8-79.13c-.98-12.04,6.52-12.3,9.3-14.58-.53-1.75-4.29-1.75-4.29-1.75h-7.02c-.77-20.57,15.3-29.64,28.39-28.66,14.08.58,29.9,16.86,22.35,36.48h0v-.03Z"></path><path class="cls-4" d="m391.39,187.06l-74.12,51,34.91-81.14c10.55-25.61,35.18-20.57,43.95-10.82,9.57,9.57,12.3,28.92-4.75,40.96Z"></path><path class="cls-2" d="m399.16,247.11h-85.65l69.56-48.51c17.07-11.32,35.18-.98,39.92,13.81,5.09,16.59-6.26,34.7-23.83,34.7Z"></path><path class="cls-8" d="m177.38,211.42c6.52-17.07,24.63-23.12,40.69-12.83l69.56,48.51h-84.38c-17.58,0-31.39-16.09-25.85-35.68h-.03Z"></path></svg> 