<?xml version="1.0" encoding="UTF-8"?> <svg xmlns="http://www.w3.org/2000/svg" id="Layer_1" width="100" height="17.51" viewBox="0 0 100 17.51"><defs><style>.cls-1{fill:#448aff;fill-rule:evenodd;stroke-width:0px;}</style></defs><g id="Navigation-Update-"><g id="Desktop-Main"><g id="Navigation"><g id="mw_logo_full"><g id="Group-67"><path id="Fill-1" class="cls-1" d="m16.19,8.08c0-1.34-.78-2.09-1.97-2.09s-1.97.75-1.97,2.09v6.15c0,.26-.2.46-.45.46h-3.26c-.25,0-.45-.21-.45-.46v-6.15c0-1.34-.76-2.09-1.95-2.09s-1.99.75-1.99,2.09v6.15c0,.26-.2.46-.45.46H.45c-.25,0-.45-.21-.45-.46V2.83c0-.26.2-.46.45-.46h3.26c.25,0,.45.21.45.46,0,.39.44.6.73.36.68-.56,1.59-.93,2.72-.93,1.55,0,2.82.64,3.64,1.75.17.23.51.23.69,0,.83-1.01,2.08-1.76,3.59-1.76,3.01,0,4.81,2.02,4.81,5.25v6.72c0,.26-.2.46-.45.46h-3.26c-.25,0-.45-.21-.45-.46v-6.15Z"></path><path id="Fill-3" class="cls-1" d="m29.15,2.82h3.95c.16,0,.27.17.21.32l-5.87,14.23c-.04.08-.12.14-.21.14h-3.91c-.17,0-.28-.17-.21-.32l1.27-3.08c.03-.06.03-.13,0-.19l-4.6-10.78c-.06-.15.05-.32.21-.32h4.02c.09,0,.18.06.21.15l2.18,5.89c.07.2.36.2.43,0l2.1-5.89c.03-.09.12-.15.21-.15"></path><path id="Fill-5" class="cls-1" d="m33.86.06h3.91c.13,0,.25.09.27.22l1.47,8.37c.05.29.47.3.54.02l2-8.4c.03-.12.14-.21.27-.21h4.12c.13,0,.24.09.27.21l1.94,8.31c.07.28.49.27.54-.01l1.46-8.28c.02-.13.14-.22.27-.22h3.91c.18,0,.31.16.27.33l-3.53,13.95c-.03.12-.14.2-.27.2h-4.67c-.13,0-.24-.09-.27-.21l-1.74-7.52c-.06-.28-.47-.28-.53,0l-1.78,7.53c-.03.12-.14.21-.27.21h-4.67c-.13,0-.24-.08-.27-.2L33.59.39c-.04-.17.09-.33.27-.33"></path><path id="Fill-8" class="cls-1" d="m59.87,11.01c1.06,0,2.03-.8,2.03-2.55s-.95-2.53-2.01-2.53-1.99.8-1.99,2.53.89,2.55,1.97,2.55m0,3.67c-3.53,0-6.19-2.36-6.19-6.23s2.68-6.2,6.21-6.2,6.21,2.36,6.21,6.2-2.71,6.23-6.24,6.23"></path><path id="Fill-10" class="cls-1" d="m70.57,14.69h-3.69c-.12,0-.21-.1-.21-.22V2.58c0-.12.09-.22.21-.22h3.69c.12,0,.21.1.21.22v1.31c0,.2.24.3.37.14.82-1.01,1.93-1.7,3.2-1.77.12,0,.23.09.23.22v4.15c0,.12-.09.22-.21.22h-.94c-1.7,0-2.64.57-2.64,2.46v5.16c0,.12-.09.22-.21.22"></path><path id="Fill-12" class="cls-1" d="m76.39,6.4h-1.02c-.13,0-.23-.1-.23-.22v-2.95c0-.12.1-.22.23-.22h1.02c.13,0,.23-.1.23-.22V.22c0-.12.1-.22.23-.22h3.77c.13,0,.23.1.23.22v2.56c0,.12.1.22.23.22h1.73c.13,0,.23.1.23.22v2.95c0,.12-.1.22-.23.22h-1.73c-.13,0-.23.1-.23.22v3.7c0,.63.28.9.99.9h.99c.13,0,.23.1.23.22v3.04c0,.12-.1.22-.23.22h-1.59c-2.66,0-4.61-1.08-4.61-4.44v-3.63c0-.12-.1-.22-.23-.22"></path><path id="Fill-14" class="cls-1" d="m84.42,0h3.74c.13,0,.24.1.24.23v3.79c0,.2.26.31.4.16.74-.76,1.87-1.29,3.32-1.29,2.75,0,4.49,1.92,4.49,4.99v6.59c0,.13-.11.23-.24.23h-3.74c-.13,0-.24-.1-.24-.23v-6.05c0-1.36-.77-2.15-1.98-2.15s-2.02.79-2.02,2.15v6.05c0,.13-.11.23-.24.23h-3.74c-.13,0-.24-.1-.24-.23V.23c0-.13.11-.23.24-.23"></path><path id="Fill-16" class="cls-1" d="m98.38,2.82h.38l.44.86.45-.86h.36v1.13h-.27v-.82s-.44.82-.44.82h-.21l-.44-.83v.83h-.27v-1.13Zm-1.2,0h.98v.18h-.34v.95h-.29v-.95s-.34,0-.34,0v-.18Z"></path></g></g></g></g></g></svg> 