<?xml version="1.0" encoding="UTF-8"?> <svg xmlns="http://www.w3.org/2000/svg" id="Layer_1" width="100" height="27.12" viewBox="0 0 100 27.12"><defs><style>.cls-1{fill:#fff;stroke-width:0px;}</style></defs><path class="cls-1" d="m99.47,21.58c-4.93,5.37-11.29,3.06-11.61-4.64h11.83c.41-3.36-.94-10.15-7.73-10.15-5.62,0-9.13,4.56-9.13,10,0,5.85,4,10.34,9.28,10.34,2.98,0,6.37-2.11,7.88-4.9l-.53-.64Zm-7.96-12.94c1.92,0,3.09,2.41,3.24,6.64h-6.87c.23-3.84,1.7-6.64,3.63-6.64ZM14.98,13.01v-.08c2.98-.83,5.36-3.09,5.36-6.3,0-3.62-3.02-6.3-8.68-6.3H.04v1.21c2.3.19,2.57.3,2.57,1.58v20.9c0,1.24-.26,1.36-2.6,1.51v1.21h12.75c5.66,0,8.71-2.79,8.71-6.79,0-3.06-1.77-5.92-6.49-6.94ZM8.07,1.92h2.6c2.98,0,4.11,2.23,4.11,5.05,0,3.13-1.4,5.21-4.41,5.21l-2.3-.04V1.92Zm7.58,18.03c0,2.68-.87,5.24-4.56,5.24h-3.02v-11.24h2.41c3.62,0,5.21,2.34,5.17,6Zm33.5-9.35c0-1.85,1.7-2.87,3.32-2.87,1.92,0,3.92,1.4,4.38,4.3h1.24l-.34-4.9c-1.62-.72-4-1.17-6.04-1.17-4.72,0-7.17,2.34-7.17,5.39,0,7.02,9.85,7.13,9.85,11.28,0,1.85-1.7,2.75-3.47,2.75-2.07,0-4.6-1.24-5.39-5.66h-1.17l.45,6.07c1.55.75,4.07,1.32,6.49,1.32,4.83,0,7.85-2.23,7.85-5.77,0-6.45-10-6.56-10-10.75Zm-7.88,11.96V6.49h-.6l-7.54,1.66v1.09c2.64.19,2.9.3,2.9,1.74v10.83c-.94.87-2.87,1.89-4.56,1.89s-2.11-1.06-2.11-2.75V6.49h-.6l-6.79,1.66v1.06c1.89.19,2.15.3,2.15,1.77v10.52c0,4.11,2.34,5.62,4.94,5.62,3.02,0,5.58-2.04,6.98-3.92h.19v3.85h.64l6.26-1.58-.15-1.02c-1.02.11-1.7-.6-1.7-1.89Zm28.14,2.11c-1.36,0-2.04-1.09-2.04-3.28v-12.33h4.56v-1.92h-4.56V1.43h-1.36c-.49,2.19-2.23,5.43-6.45,6.22v1.43h2.57v13.54c0,3.17,1.66,4.49,4.79,4.49,2.19,0,3.7-.64,5.28-2.94l-.79-.83c-.72.87-1.24,1.32-2,1.32Zm10.75-.57V0h-.6l-7.54,1.66v1.09c2.64.19,2.9.3,2.9,1.74v19.62c0,1.24-.26,1.36-1.85,1.55v1.09h8.9v-1.09c-1.55-.19-1.81-.3-1.81-1.55Z"></path></svg> 