<?xml version="1.0" encoding="UTF-8"?> <svg xmlns="http://www.w3.org/2000/svg" id="Layer_1" width="599.76" height="400.32" viewBox="0 0 599.76 400.32"><defs><style>.cls-1{fill:#fff;}</style></defs><path class="cls-1" d="m158.63,202.79c.08,14.92-11.94,27.09-26.86,27.2-5.79,0-11.41-1.89-16.02-5.38v27.47l-.84.26h0l-10.03,3.15v-78.98h10.87v4.47c4.61-3.5,10.24-5.39,16.02-5.38,14.92.11,26.94,12.28,26.86,27.2Zm-10.03,0c0-9.66-7.53-17.52-16.86-17.52s-16.86,7.86-16.86,17.52,7.53,17.52,16.86,17.52,16.92-7.86,16.92-17.52h-.06Zm68.18,0v4.25h-40.4c.54,7.78,8.6,13.14,16.18,13.14,11.26,0,16.51-7.29,16.51-7.29l6.51,6.51s-7.01,10.59-23.5,10.59c-15.26,0-26.34-11.44-26.34-27.2s11.46-27.2,25.55-27.2c15.01,0,25.55,11.19,25.55,27.2h-.06Zm-10.54-5.1s-1.51-12.27-14.92-12.27c-12.44,0-14.95,12.29-14.95,12.29l29.87-.02Zm45.55-22.1c-5.57,0-12.01,1.91-16.16,5.28v-4.79h-10.87v53.06h10.87l.06-31.12c0-7.12,7.08-12.87,14.53-12.87,7.96,0,12.99,4.31,13.45,11.54v32.46h10.87v-32.82c.03-11.63-9.01-20.75-22.69-20.75h-.06Z"></path><path class="cls-1" d="m320.31,215.39l6.84,6.84-1.73,1.77c-4.35,4.46-11.01,6.45-15.69,6.45-17.73,0-19.64-12.95-19.64-18.52v-25.68h-11.12v-10.17h11.12v-27.83h10.87v27.83h22.39v10.17h-22.43v22.92c0,7.45,2.58,10.77,8.36,10.77,3.36-.17,6.59-1.33,9.28-3.34l1.75-1.2Zm61.15-12.6v4.25h-40.46c.54,7.78,8.6,13.14,16.18,13.14,11.26,0,16.51-7.29,16.51-7.29l6.51,6.51s-7.01,10.59-23.5,10.59c-15.26,0-26.34-11.44-26.34-27.2s11.46-27.2,25.55-27.2c15.04,0,25.55,11.19,25.55,27.2Zm-10.54-5.1s-1.58-12.27-14.96-12.27c-12.44,0-14.95,12.29-14.95,12.29l29.91-.02Zm46.77,22.5c-9.6.12-17.49-7.56-17.61-17.17-.12-9.6,7.56-17.49,17.17-17.61,5.13-.07,10.03,2.14,13.39,6.03l7.02-7.02c-5.39-5.57-12.79-8.75-20.54-8.83-15.23,0-27.63,12.2-27.63,27.2s12.4,27.2,27.63,27.2c7.95-.09,15.5-3.44,20.9-9.27l-7.04-7.04c-3.21,4.08-8.1,6.48-13.29,6.51h0Zm54.44-44.59c-5.57,0-12.01,1.91-16.16,5.28v-36.04l-10.87,3.41v80.89h10.87l.06-31.12c0-7.12,7.08-12.87,14.53-12.87,7.96,0,12.99,4.31,13.45,11.54v32.46h10.87v-32.82c-.04-11.63-9.08-20.75-22.76-20.75h0Z"></path></svg> 