<?xml version="1.0" encoding="UTF-8"?> <svg xmlns="http://www.w3.org/2000/svg" id="Layer_2" width="100" height="40.82" viewBox="0 0 100 40.82"><defs><style>.cls-1{fill:#fff;}.cls-2{fill:#5e9732;}.cls-3{fill:#5e6061;}</style></defs><path class="cls-2" d="m0,0v26.46-.17s14.59-7.18,50-7.18,49.35,6.86,50,7.17V0H0Z"></path><path class="cls-3" d="m.6,37.56c0-1.03,0-1.22-.01-1.44-.01-.23-.08-.35-.23-.38-.07-.02-.16-.03-.24-.03-.07,0-.11-.01-.11-.07,0-.04.05-.05.16-.05.26,0,.69.02.88.02.17,0,.57-.02.83-.02.09,0,.14.01.14.05,0,.05-.04.07-.11.07s-.12,0-.2.02c-.18.03-.24.15-.25.39-.01.22-.01.41-.01,1.44v1.2c0,.66,0,1.2.03,1.49.02.18.07.31.27.33.1.01.24.03.35.03.07,0,.11.02.11.05,0,.05-.05.07-.13.07-.45,0-.88-.02-1.06-.02-.16,0-.58.02-.86.02-.09,0-.14-.02-.14-.07,0-.03.03-.05.11-.05.1,0,.18-.01.24-.03.14-.03.18-.14.2-.34.03-.29.03-.82.03-1.48v-1.2Z"></path><path class="cls-3" d="m3.43,36.47c0-.13.02-.21.09-.21.06,0,.12.07.22.17.11.1.9.92,1.88,1.83.44.42,1.2,1.2,1.31,1.29l-.05-2.52c0-.35-.05-.46-.22-.52-.09-.03-.22-.03-.31-.03-.07,0-.1-.03-.1-.07,0-.05.07-.05.15-.05.3,0,.61.02.75.02.07,0,.32-.02.61-.02.07,0,.13.01.13.06,0,.03-.03.06-.1.06-.06,0-.11,0-.17.02-.18.05-.23.16-.24.49-.03.87-.04,2.39-.06,3.6,0,.16-.03.21-.09.21-.07,0-.16-.07-.29-.19-.38-.35-1.11-1.05-1.67-1.59-.6-.56-1.26-1.26-1.43-1.43l.06,2.36c.01.44.08.58.2.63.1.03.22.03.32.04.06,0,.1.02.1.05,0,.05-.05.07-.14.07-.35,0-.59-.02-.75-.02-.07,0-.39.02-.68.02-.07,0-.13,0-.13-.06,0-.03.03-.06.1-.06.07,0,.18,0,.26-.03.17-.05.2-.2.2-.7.01-1.22.05-2.64.05-3.41Z"></path><path class="cls-3" d="m8.68,36.94c-.14-.33-.24-.39-.46-.44-.08-.02-.16-.03-.2-.03-.05,0-.08-.03-.08-.06,0-.05.05-.06.14-.06.31,0,.66.02.88.02.16,0,.47-.02.8-.02.08,0,.13.02.13.06s-.04.06-.1.06c-.09,0-.18.02-.23.05-.05.03-.07.06-.07.12,0,.07.05.23.14.45.31.81.71,1.78,1.01,2.56.26-.62,1.01-2.4,1.17-2.81.03-.07.05-.16.05-.2,0-.05-.03-.1-.09-.12-.07-.02-.16-.03-.24-.03-.05,0-.1-.02-.1-.06s.04-.06.14-.06c.32,0,.6.02.67.02.1,0,.4-.02.58-.02.09,0,.14.02.14.06s-.05.06-.12.06c-.06,0-.17,0-.27.07-.09.05-.18.16-.34.52-.23.53-.41.85-.73,1.57-.38.84-.66,1.45-.8,1.74-.16.34-.2.42-.28.42s-.12-.07-.23-.35l-1.52-3.51Z"></path><path class="cls-3" d="m13.64,38.02c0-.88,0-1.04-.01-1.23-.01-.19-.06-.27-.24-.31-.05-.01-.15-.01-.23-.02-.07,0-.1-.02-.1-.06s.04-.05.14-.05c.29,0,.56.02.86.02.18,0,1.43,0,1.54,0,.12-.01.22-.03.27-.03.03,0,.07-.03.1-.03.03,0,.04.03.04.05,0,.04-.04.12-.05.37,0,.11-.01.22-.03.4,0,.03-.01.1-.07.1-.04,0-.05-.03-.06-.11,0-.03,0-.12-.03-.19-.04-.11-.1-.17-.39-.2-.12-.01-.73-.03-.86-.03-.03,0-.04.02-.04.06v1.41s0,.06.04.06c.14,0,.8,0,.95,0,.17-.01.26-.03.31-.1.04-.05.07-.07.1-.07s.04.01.04.05c0,.04-.03.17-.05.45,0,.12-.02.36-.02.41s0,.11-.06.11c-.04,0-.06-.06-.06-.1,0-.05,0-.09-.02-.16-.03-.13-.1-.22-.34-.24-.12-.01-.69-.02-.84-.02-.03,0-.04.03-.04.06v.44c0,.2,0,.67,0,.85.01.4.1.49.73.49.16,0,.41,0,.56-.07.16-.07.22-.19.27-.44.01-.06.03-.1.07-.1s.05.05.05.12c0,.15-.05.56-.08.68-.04.15-.1.15-.32.15-.59,0-1.1-.03-1.71-.03-.24,0-.49.02-.78.02-.08,0-.12-.02-.12-.06,0-.03.02-.06.1-.06.08,0,.16,0,.21-.02.12-.03.16-.16.18-.36.03-.24.03-.68.03-1.18v-1.02Z"></path><path class="cls-3" d="m17.04,40.65c-.1-.04-.12-.08-.12-.2,0-.35.02-.69.03-.79,0-.1.03-.15.07-.15.05,0,.06.05.07.1,0,.07,0,.18.04.27.12.44.5.63.88.63.54,0,.79-.33.79-.63,0-.27-.08-.53-.58-.9l-.29-.22c-.67-.51-.89-.9-.89-1.37,0-.64.55-1.12,1.4-1.12.27,0,.44.03.61.06.1.01.18.03.24.04.05,0,.07.03.07.07,0,.1-.03.26-.03.72,0,.13-.02.18-.07.18-.04,0-.06-.04-.07-.12,0-.07-.05-.24-.14-.37-.1-.16-.29-.31-.68-.31-.45,0-.71.24-.71.58,0,.25.12.48.61.81l.19.13c.76.52,1.01.92,1.01,1.47,0,.35-.15.75-.58,1.03-.31.18-.65.23-.97.23-.37,0-.64-.04-.9-.15Z"></path><path class="cls-3" d="m22.57,39.04c0,.52,0,.97.03,1.22.02.16.05.29.24.31.08.01.2.02.29.03.07,0,.1.03.1.05,0,.04-.04.07-.12.07-.39,0-.81-.02-.96-.02-.14,0-.55.02-.78.02-.08,0-.12-.03-.12-.07,0-.03.03-.05.1-.05.08,0,.15,0,.2-.02.13-.03.16-.15.18-.32.03-.24.03-.68.03-1.22v-2.35c-.22,0-.67,0-.95.02-.35.03-.45.05-.53.2-.04.07-.05.12-.08.19-.01.04-.03.07-.07.07-.04,0-.05-.03-.05-.1,0-.12.12-.61.13-.68.01-.08.03-.12.07-.12.05,0,.1.05.25.07.16.02.41.03.61.03h2.41c.19,0,.32-.02.41-.03.09-.01.14-.03.17-.03.04,0,.05.03.05.14,0,.12-.03.54-.03.69,0,.06-.02.1-.06.1-.05,0-.05-.03-.06-.12,0-.02,0-.05,0-.07-.01-.16-.16-.31-.66-.32-.16-.01-.41-.02-.79-.03v2.35Z"></path><path class="cls-3" d="m24.65,38.54c0-1.02.68-2.27,2.47-2.27,1.5,0,2.41.92,2.41,2.16,0,1.33-.93,2.37-2.46,2.37-1.71,0-2.41-1.23-2.41-2.26Zm3.99.11c0-1.23-.71-2.07-1.7-2.07-.67,0-1.41.34-1.41,1.77,0,1.18.65,2.14,1.77,2.14.41,0,1.34-.17,1.34-1.83Z"></path><path class="cls-3" d="m30.86,38.02c0-.88,0-1.01-.01-1.2-.01-.2-.07-.29-.25-.33-.07-.01-.16-.02-.23-.03-.07,0-.1-.02-.1-.06s.04-.06.13-.06c.31,0,.72.02.84.02.18,0,.67-.02.87-.02.41,0,.81.04,1.12.24.19.12.44.41.44.81,0,.44-.2.82-.8,1.26.5.63.92,1.16,1.28,1.52.33.35.55.37.66.4.06,0,.11,0,.16.01.05,0,.08.03.08.05,0,.05-.04.07-.12.07h-.57c-.39,0-.56-.04-.73-.13-.24-.13-.46-.39-.78-.82-.24-.34-.5-.7-.58-.8-.02-.03-.05-.03-.1-.03h-.48s-.05,0-.05.03v.12c0,.52,0,.92.03,1.16.01.17.05.3.24.32.08.02.2.02.29.03.05,0,.07.03.07.05,0,.04-.04.07-.12.07-.36,0-.84-.02-.92-.02-.1,0-.52.02-.75.02-.07,0-.12-.02-.12-.06,0-.03.03-.06.1-.06.09,0,.16,0,.22-.02.12-.03.16-.15.17-.33.03-.24.03-.67.03-1.21v-1.02Zm.77.44c0,.05.01.08.05.1.12.05.3.07.46.07.22,0,.31-.03.41-.1.17-.12.33-.37.33-.84,0-.82-.56-1.04-.9-1.04-.14,0-.25,0-.31.03-.03.01-.05.03-.05.08v1.71Z"></path><path class="cls-3" d="m41.73,40.27c0,.18,0,.2-.09.24-.44.23-1.11.31-1.64.31-1.67,0-3.14-.79-3.14-2.67,0-1.09.56-1.85,1.18-2.22.65-.39,1.26-.44,1.83-.44.47,0,1.07.08,1.2.11.14.03.38.07.54.07.08,0,.1.03.1.08,0,.07-.05.27-.05,1.12,0,.11-.02.14-.07.14-.05,0-.06-.03-.07-.09-.02-.16-.05-.37-.23-.56-.2-.22-.75-.53-1.52-.53-.37,0-.87.03-1.35.42-.38.32-.63.83-.63,1.67,0,1.46.93,2.56,2.37,2.56.18,0,.41,0,.58-.07.1-.05.13-.14.13-.25v-.64c0-.34,0-.6,0-.8,0-.23-.07-.34-.29-.39-.05-.01-.17-.02-.27-.02-.06,0-.1-.01-.1-.05,0-.05.05-.07.14-.07.35,0,.78.02.99.02s.57-.02.8-.02c.09,0,.14.01.14.07,0,.04-.04.05-.09.05-.05,0-.1,0-.18.02-.18.03-.25.15-.26.39,0,.2,0,.48,0,.82v.75Z"></path><path class="cls-3" d="m43.48,38.02c0-.88,0-1.01-.01-1.2-.01-.2-.07-.29-.25-.33-.07-.01-.16-.02-.23-.03-.07,0-.1-.02-.1-.06s.04-.06.13-.06c.31,0,.72.02.84.02.18,0,.67-.02.87-.02.41,0,.81.04,1.12.24.19.12.44.41.44.81,0,.44-.2.82-.8,1.26.5.63.92,1.16,1.28,1.52.33.35.55.37.66.4.06,0,.11,0,.16.01.05,0,.08.03.08.05,0,.05-.04.07-.12.07h-.57c-.39,0-.56-.04-.73-.13-.24-.13-.46-.39-.78-.82-.24-.34-.5-.7-.58-.8-.02-.03-.05-.03-.1-.03h-.48s-.05,0-.05.03v.12c0,.52,0,.92.03,1.16.01.17.05.3.24.32.08.02.2.02.29.03.05,0,.07.03.07.05,0,.04-.04.07-.12.07-.36,0-.84-.02-.92-.02-.1,0-.52.02-.75.02-.07,0-.12-.02-.12-.06,0-.03.03-.06.1-.06.09,0,.16,0,.22-.02.12-.03.16-.15.17-.33.03-.24.03-.67.03-1.21v-1.02Zm.77.44c0,.05.01.08.05.1.12.05.3.07.46.07.22,0,.31-.03.41-.1.17-.12.33-.37.33-.84,0-.82-.56-1.04-.9-1.04-.14,0-.25,0-.31.03-.03.01-.05.03-.05.08v1.71Z"></path><path class="cls-3" d="m47.45,38.54c0-1.02.68-2.27,2.47-2.27,1.5,0,2.41.92,2.41,2.16,0,1.33-.93,2.37-2.46,2.37-1.71,0-2.41-1.23-2.41-2.26Zm3.99.11c0-1.23-.71-2.07-1.7-2.07-.67,0-1.41.34-1.41,1.77,0,1.18.65,2.14,1.77,2.14.41,0,1.34-.17,1.34-1.83Z"></path><path class="cls-3" d="m53.06,36.94c-.08-.22-.14-.35-.24-.41-.07-.04-.18-.05-.23-.05-.06,0-.1-.02-.1-.06s.05-.06.14-.06c.32,0,.66.02.72.02.07,0,.37-.02.71-.02.08,0,.12.03.12.06,0,.04-.04.06-.1.06-.05,0-.08,0-.15.03-.05.01-.07.06-.07.12,0,.07.06.25.14.52.1.35.63,2.02.76,2.39l1.15-2.95c.06-.16.11-.21.16-.21.06,0,.1.09.18.27l1.24,2.86c.13-.43.58-1.85.78-2.51.05-.15.07-.26.07-.34,0-.1-.05-.18-.3-.18-.05,0-.1-.03-.1-.06s.04-.06.14-.06c.33,0,.59.02.65.02.04,0,.33-.02.53-.02.07,0,.11.03.11.06,0,.04-.03.06-.08.06-.06,0-.14,0-.21.03-.15.05-.22.24-.35.59-.28.72-.89,2.51-1.21,3.41-.07.2-.11.29-.18.29-.07,0-.1-.07-.2-.28l-1.24-2.84c-.14.37-.89,2.26-1.15,2.81-.11.23-.15.31-.22.31-.07,0-.1-.07-.16-.24l-1.28-3.62Z"></path><path class="cls-3" d="m61.69,39.04c0,.52,0,.97.03,1.22.02.16.05.29.24.31.08.01.2.02.29.03.07,0,.1.03.1.05,0,.04-.04.07-.12.07-.39,0-.81-.02-.96-.02-.14,0-.55.02-.78.02-.08,0-.12-.03-.12-.07,0-.03.03-.05.1-.05.08,0,.15,0,.2-.02.13-.03.16-.15.18-.32.03-.24.03-.68.03-1.22v-2.35c-.22,0-.67,0-.95.02-.35.03-.45.05-.53.2-.04.07-.05.12-.08.19-.01.04-.03.07-.07.07-.04,0-.05-.03-.05-.1,0-.12.12-.61.13-.68.01-.08.03-.12.07-.12.05,0,.1.05.25.07.16.02.41.03.61.03h2.41c.19,0,.32-.02.41-.03.09-.01.14-.03.17-.03.04,0,.05.03.05.14,0,.12-.03.54-.03.69,0,.06-.02.1-.06.1-.05,0-.05-.03-.06-.12,0-.02,0-.05,0-.07-.01-.16-.16-.31-.66-.32-.16-.01-.41-.02-.79-.03v2.35Z"></path><path class="cls-3" d="m67.43,38.17s.04-.01.04-.04v-.12c0-.88,0-1.03-.01-1.21-.01-.19-.06-.27-.26-.31-.05,0-.15-.01-.22-.02-.07,0-.11-.03-.11-.07s.04-.05.12-.05c.33,0,.73.02.88.02.12,0,.56-.02.8-.02.08,0,.12.01.12.05s-.03.07-.1.07c-.06,0-.11,0-.18.02-.16.02-.21.11-.22.31-.01.18-.01.34-.01,1.22v1.02c0,.54,0,.97.03,1.22.01.17.05.29.23.32.08.01.22.01.3.02.07,0,.1.03.1.06,0,.04-.05.06-.12.06-.39,0-.82-.02-.97-.02-.13,0-.52.02-.77.02-.09,0-.12-.02-.12-.06,0-.03.02-.06.1-.06.08,0,.16,0,.21-.02.12-.03.16-.15.18-.33.03-.24.03-.67.03-1.2v-.5s-.02-.03-.04-.03h-2.2s-.04,0-.04.03v.52c0,.54,0,.94.03,1.19.01.16.06.29.24.31.09.02.21.02.29.03.07,0,.1.03.1.06,0,.04-.05.06-.12.06-.38,0-.82-.02-.97-.02-.12,0-.54.02-.78.02-.07,0-.12-.02-.12-.06,0-.03.02-.06.1-.06.09,0,.16,0,.21-.02.12-.03.16-.16.18-.33.03-.24.03-.67.03-1.21v-1.02c0-.88,0-1.03-.01-1.22-.01-.2-.06-.27-.27-.31-.05-.01-.14-.01-.22-.02-.07,0-.1-.03-.1-.07s.05-.05.12-.05c.33,0,.72.02.88.02s.56-.02.8-.02c.1,0,.13.02.13.06s-.05.06-.11.06c-.05,0-.13.01-.18.02-.16.02-.21.12-.22.31-.01.18-.01.35-.01,1.2v.12s.02.04.04.04h2.2Z"></path><path class="cls-3" d="m72.53,40.08c-.67-.58-.84-1.35-.84-2.01,0-.46.14-1.26.8-1.86.49-.45,1.14-.72,2.15-.72.42,0,.67.03.99.07.26.03.5.1.7.12.07,0,.08.04.08.08,0,.05-.02.14-.03.37-.01.22,0,.6-.02.73,0,.1-.02.16-.08.16-.05,0-.07-.06-.07-.16,0-.21-.1-.45-.27-.63-.22-.24-.75-.42-1.38-.42-.59,0-.98.15-1.28.42-.5.46-.63,1.1-.63,1.76,0,1.62,1.23,2.42,2.14,2.42.61,0,.97-.07,1.24-.38.12-.13.2-.33.23-.45.02-.11.03-.14.09-.14.05,0,.06.05.06.1,0,.08-.08.67-.15.9-.03.12-.06.15-.18.2-.27.11-.79.16-1.22.16-.93,0-1.71-.2-2.33-.74Z"></path><path class="cls-3" d="m78.27,39.29s-.04.01-.05.05l-.3.74c-.05.14-.09.29-.09.35,0,.17.21.18.34.18.08,0,.1.03.1.05,0,.05-.05.06-.11.06-.21,0-.46-.02-.67-.02-.07,0-.41.02-.72.02-.07,0-.11-.01-.11-.06,0-.03.03-.06.08-.06.43-.04.52-.12.68-.52l1.44-3.41c.12-.32.19-.45.27-.45.05,0,.09.06.16.21.12.33,1.12,2.65,1.5,3.52.22.51.39.6.53.63.06.01.16.01.22.01.07,0,.1.03.1.06,0,.04-.03.06-.12.06-.29,0-1,.01-1.43-.01-.06,0-.1-.02-.1-.05,0-.03.03-.04.06-.05.06-.02.11-.04.07-.12l-.46-1.15s-.03-.04-.05-.04h-1.35Zm1.22-.34s.03-.01.03-.03l-.53-1.39c-.02-.05-.04-.07-.07,0l-.54,1.39s0,.03.03.03h1.08Z"></path><path class="cls-3" d="m82.31,38.02c0-.83,0-1.02-.01-1.21-.01-.18-.07-.28-.24-.31-.05-.01-.15-.02-.24-.03-.06,0-.1-.02-.1-.06s.04-.06.14-.06c.31,0,.72.02.88.02.25,0,.6-.02.88-.02.75,0,1.03.21,1.18.36.13.12.29.35.29.75,0,.75-.67,1.33-1.51,1.33-.03,0-.1,0-.14,0-.03-.01-.07-.03-.07-.07s.05-.05.16-.05c.37,0,.79-.36.79-.94,0-.23,0-.61-.32-.88-.21-.18-.46-.21-.61-.21-.09,0-.17,0-.22.02-.03,0-.05.04-.05.12v2.28c0,.52,0,.97.03,1.22.01.17.05.29.23.31.09.02.21.02.29.03.07,0,.1.03.1.05,0,.04-.05.07-.11.07-.4,0-.83-.02-.97-.02-.12,0-.54.02-.78.02-.07,0-.12-.02-.12-.06,0-.03.03-.06.1-.06.08,0,.15,0,.21-.02.12-.03.15-.14.17-.33.03-.24.03-.67.03-1.21v-1.02Z"></path><path class="cls-3" d="m86.33,38.02c0-.88,0-1.02-.01-1.21-.01-.19-.07-.29-.2-.31-.06-.01-.14-.02-.21-.03-.06,0-.1-.02-.1-.07,0-.03.04-.05.14-.05.24,0,.65.02.8.02.14,0,.54-.02.77-.02.08,0,.12.02.12.05,0,.05-.03.07-.1.07-.06,0-.09,0-.16.02-.16.03-.21.13-.22.33-.02.18-.02.32-.02,1.2v1.02c0,.54,0,.99.03,1.23.01.16.06.28.24.3.09.02.17.02.26.03.07,0,.1.03.1.06,0,.04-.05.06-.12.06-.4,0-.79-.02-.93-.02-.12,0-.52.02-.76.02-.08,0-.12-.02-.12-.06,0-.03.03-.06.1-.06.08,0,.13,0,.18-.02.12-.03.17-.13.18-.29.03-.24.03-.68.03-1.24v-1.02Z"></path><path class="cls-3" d="m90.65,39.04c0,.52,0,.97.03,1.22.02.16.05.29.24.31.08.01.2.02.29.03.07,0,.1.03.1.05,0,.04-.04.07-.12.07-.39,0-.81-.02-.96-.02-.14,0-.55.02-.78.02-.08,0-.12-.03-.12-.07,0-.03.03-.05.1-.05.08,0,.15,0,.2-.02.13-.03.16-.15.18-.32.03-.24.03-.68.03-1.22v-2.35c-.22,0-.67,0-.95.02-.35.03-.45.05-.53.2-.04.07-.05.12-.08.19-.01.04-.03.07-.07.07-.04,0-.05-.03-.05-.1,0-.12.12-.61.13-.68.01-.08.03-.12.07-.12.05,0,.1.05.25.07.16.02.41.03.61.03h2.41c.19,0,.32-.02.41-.03.09-.01.14-.03.17-.03.04,0,.05.03.05.14,0,.12-.03.54-.03.69,0,.06-.02.1-.06.1-.05,0-.05-.03-.06-.12,0-.02,0-.05,0-.07-.01-.16-.16-.31-.66-.32-.16-.01-.41-.02-.79-.03v2.35Z"></path><path class="cls-3" d="m93.32,39.29s-.04.01-.05.05l-.3.74c-.05.14-.09.29-.09.35,0,.17.21.18.34.18.08,0,.1.03.1.05,0,.05-.05.06-.11.06-.21,0-.46-.02-.67-.02-.07,0-.41.02-.72.02-.07,0-.11-.01-.11-.06,0-.03.03-.06.08-.06.43-.04.52-.12.68-.52l1.44-3.41c.12-.32.19-.45.27-.45.05,0,.09.06.16.21.12.33,1.12,2.65,1.5,3.52.22.51.39.6.53.63.06.01.16.01.22.01.07,0,.1.03.1.06,0,.04-.03.06-.12.06-.29,0-1,.01-1.43-.01-.06,0-.1-.02-.1-.05,0-.03.03-.04.06-.05.06-.02.11-.04.07-.12l-.46-1.15s-.03-.04-.05-.04h-1.35Zm1.22-.34s.03-.01.03-.03l-.53-1.39c-.02-.05-.04-.07-.07,0l-.54,1.39s0,.03.03.03h1.08Z"></path><path class="cls-3" d="m98.16,39.04c0,.71,0,1.12.12,1.22.1.1.24.14.72.14.31,0,.54,0,.7-.15.08-.07.16-.23.18-.37.01-.05.02-.11.07-.11s.05.05.05.12c0,.07-.05.54-.1.7-.04.14-.07.16-.37.16-.6,0-1.16-.03-1.79-.03-.24,0-.5.02-.78.02-.08,0-.13-.02-.13-.06,0-.03.03-.05.1-.06.07,0,.14,0,.19-.02.14-.03.18-.14.2-.37.03-.24.03-.67.03-1.17v-1.02c0-.88,0-1.02-.01-1.2-.01-.19-.06-.28-.24-.32-.05-.01-.13-.02-.2-.03-.07,0-.11-.02-.11-.06s.05-.06.14-.06c.29,0,.65.02.83.02.13,0,.62-.02.85-.02.1,0,.13.02.13.06s-.03.06-.12.06c-.07,0-.15,0-.22.03-.16.03-.21.12-.22.33-.01.18-.01.31-.01,1.21v1.01Z"></path><polygon class="cls-3" points="0 26.46 0 26.46 0 26.29 0 26.46"></polygon><path class="cls-3" d="m46.48,28.99c.9,0,2.12,0,2.95-.38.52-.24.66-.7.66-1.29v-3.28c0-.87,0-1.64,0-2.32-.03,0-.06,0-.09,0-4.87,0-9.7.17-14.32.43,1.88,4.14,5.73,6.83,10.8,6.83Z"></path><path class="cls-3" d="m64.75,22.19c2.07,4.38,6.32,6.56,9.71,6.56,3.1,0,4.97-.35,6.36-1.96.59-.66,1.04-1.68,1.18-2.3.1-.56.17-.7.45-.7.24,0,.31.24.31.52,0,.42-.42,3.46-.76,4.64-.17.59-.31.77-.9,1.01-1.39.56-4.03.8-6.26.8-4.76,0-8.76-1.05-11.93-3.81-1.72-1.51-2.8-3.25-3.45-5.04-1.64-.07-3.31-.12-4.98-.15,0,.69,0,1.47,0,2.34v3.83c0,.94-.03,1.01-.45,1.25-2.26,1.19-5.66,1.57-8.38,1.57-6.7,0-12.8-2.51-15.09-8.27-1.49.11-2.95.23-4.38.36,0,2.36.03,4.27.14,5.43.11.95.35,1.58,1.41,1.73.49.07,1.27.14,1.8.14.39,0,.56.11.56.28,0,.25-.28.35-.67.35-2.32,0-4.54-.11-5.49-.11-.81,0-3.03.11-4.44.11-.46,0-.7-.11-.7-.35,0-.18.14-.28.56-.28.53,0,.95-.07,1.27-.14.7-.14.92-.74,1.02-1.76.13-1.07.16-2.81.17-4.98C9,24.61,0,26.29,0,26.29v.17s0,7.73,0,7.73h100v-7.9c-.68-.13-16.19-2.97-35.25-4.11Z"></path><path class="cls-1" d="m63.69,18.76c-.13-.77-.2-1.59-.2-2.45,0-3.39.66-6.7,3.2-9.04,1.53-1.4,3.51-2.16,6.54-2.16,3.2,0,5.91.94,7.06,2.16.87.91,1.32,2.13,1.36,3.21,0,.49.07.8.35.8.31,0,.38-.31.42-.84.07-.7.03-2.62.1-3.77.07-1.22.17-1.64.17-1.92,0-.21-.03-.38-.42-.42-1.04-.1-2.26-.42-3.58-.59-1.6-.21-2.89-.35-5.04-.35-5.18,0-8.49,1.4-10.99,3.7-3.34,3.07-4.07,7.19-4.07,9.57,0,.6.03,1.22.1,1.84,1.73.07,3.39.16,5,.26Z"></path><path class="cls-1" d="m47.21,17.84c.49,0,1.08.03,1.36.1.41.09.71.21.93.39.17,0,.33,0,.5,0,1.7,0,3.35.02,4.95.05.21-.23.49-.37.88-.45.42-.07.66-.1.94-.1.24,0,.45-.07.45-.28,0-.28-.24-.35-.7-.35-1.15,0-2.99.1-4.07.1s-3.23-.1-5.04-.1c-.49,0-.73.07-.73.35,0,.21.21.28.52.28Z"></path><path class="cls-1" d="m34.66,18.88c-.18-.95-.27-1.95-.27-2.99,0-4.29,1.25-6.9,3.2-8.54,2.43-2.02,4.97-2.16,6.88-2.16,3.93,0,6.71,1.6,7.75,2.72.9.98,1.08,2.09,1.18,2.89.03.28.1.45.35.45.28,0,.38-.17.38-.73,0-4.36.24-5.33.24-5.72,0-.24-.07-.38-.49-.42-.8-.03-2.02-.24-2.75-.38-.69-.14-3.75-.56-6.15-.56-2.92,0-6.01.24-9.35,2.27-3.16,1.92-6.05,5.82-6.05,11.4,0,.77.05,1.5.14,2.2,1.57-.16,3.22-.3,4.93-.43Z"></path><path class="cls-1" d="m19.28,5.08c.42,0,.88.04,1.27.14.77.18,1.13.77,1.2,1.97.07,1.13.07,1.84.07,7.2v5.93c1.38-.21,2.84-.42,4.37-.61v-5.32c0-5.35,0-6.07.07-7.2.07-1.23.35-1.83,1.3-2.01.42-.07.7-.11,1.06-.11s.56-.07.56-.35c0-.21-.28-.28-.74-.28-1.34,0-3.42.11-4.3.11-1.02,0-3.24-.11-4.58-.11-.56,0-.85.07-.85.28,0,.28.21.35.56.35Z"></path><path class="cls-1" d="m100,26.28c-.65-.31-15.39-7.17-50-7.17S0,26.29,0,26.29c0,0,9-1.68,21.81-3,0,2.17-.05,3.91-.17,4.98-.11,1.02-.32,1.62-1.02,1.76-.32.07-.74.14-1.27.14-.42,0-.56.11-.56.28,0,.25.25.35.7.35,1.41,0,3.63-.11,4.44-.11.95,0,3.17.11,5.49.11.39,0,.67-.11.67-.35,0-.18-.18-.28-.56-.28-.53,0-1.3-.07-1.8-.14-1.06-.14-1.3-.77-1.41-1.73-.11-1.16-.13-3.07-.14-5.43,1.43-.13,2.89-.25,4.38-.36,2.29,5.76,8.39,8.27,15.09,8.27,2.71,0,6.12-.38,8.38-1.57.42-.24.45-.31.45-1.25v-3.83c0-.87,0-1.65,0-2.34,1.67.03,3.34.08,4.98.15.65,1.79,1.73,3.53,3.45,5.04,3.16,2.76,7.16,3.81,11.93,3.81,2.23,0,4.87-.24,6.26-.8.59-.24.73-.42.9-1.01.35-1.19.76-4.23.76-4.64,0-.28-.07-.56-.31-.56-.28,0-.35.17-.45.73-.14.63-.59,1.64-1.18,2.3-1.39,1.61-3.27,1.96-6.36,1.96-3.39,0-7.64-2.18-9.71-6.56,19.06,1.13,34.57,3.98,35.25,4.11h0Zm-49.9,1.04c0,.59-.14,1.05-.66,1.29-.83.38-2.05.38-2.95.38-5.08,0-8.92-2.69-10.8-6.83,4.62-.27,9.45-.43,14.32-.43.03,0,.06,0,.09,0,0,.68,0,1.45,0,2.32v3.28Z"></path></svg> 