<?xml version="1.0" encoding="UTF-8"?> <svg xmlns="http://www.w3.org/2000/svg" id="Layer_1" width="599.76" height="400.32" viewBox="0 0 599.76 400.32"><defs><style>.cls-1{fill:#41abe1;}</style></defs><path d="m357.65,156.71h6.84c1.54,0,2.72.11,3.53.34,1.09.31,2.02.85,2.8,1.63.78.78,1.37,1.74,1.77,2.87.4,1.13.61,2.53.61,4.19,0,1.46-.19,2.72-.57,3.78-.46,1.29-1.13,2.34-1.99,3.13-.65.61-1.53,1.08-2.63,1.42-.83.25-1.93.38-3.31.38h-7.05v-17.74Zm3.32,3.56v10.71h3.22c1.05,0,5.14.35,5.14-5.38s-4.72-5.33-6.25-5.33h-2.1Z"></path><path d="m376.97,174.45v-17.74h3.58v17.74h-3.58Z"></path><path d="m393.45,167.56v-2.99h7.72v7.43c-.75.73-1.84,1.37-3.26,1.92-1.42.55-2.87.83-4.33.83-1.86,0-3.47-.39-4.85-1.17-1.38-.78-2.42-1.89-3.11-3.34-.69-1.45-1.04-3.02-1.04-4.73,0-1.85.39-3.49,1.16-4.93.77-1.44,1.91-2.54,3.4-3.3,1.14-.59,2.55-.88,4.25-.88,2.2,0,3.92.46,5.16,1.39.59.44,1.46,1.55,1.46,1.55l-2.06,2.31s-1.22-2.18-4.57-2.18c-1.57,0-2.81.5-3.73,1.49-.92.99-1.39,2.47-1.39,4.42,0,2.11.47,3.69,1.4,4.74s2.16,1.58,3.68,1.58c.75,0,1.5-.15,2.26-.44.75-.29,1.4-.65,1.94-1.07v-2.62h-4.1Z"></path><path d="m405.15,174.45v-17.74h3.58v17.74h-3.58Z"></path><path d="m417.54,174.45v-14.74h-5.26v-3h14.1v3h-5.25v14.74h-3.58Z"></path><path d="m446.14,174.45h-3.9l-1.55-4.03h-7.09l-1.46,4.03h-3.8l6.91-17.74h3.79l7.1,17.74Zm-6.6-7.02l-2.44-6.58-2.4,6.58h4.84Z"></path><path d="m449.58,174.45v-17.6h3.58v14.61h8.69v2.99h-12.27Z"></path><path d="m357.61,209.06v-17.74h3.39l5.19,7.47,5.15-7.47h3.4v17.74h-3.33v-11.48l-5.52,7.15-4.96-7.15v11.48h-3.33Z"></path><path d="m395.68,209.06h-3.9l-1.55-4.03h-7.09l-1.46,4.03h-3.8l6.91-17.74h3.79l7.1,17.74Zm-6.6-7.02l-2.44-6.58-2.4,6.58h4.84Z"></path><path d="m398.8,209.06v-17.74h7.54c5.78,0,6.97,2.9,6.97,6.36s-3.97,5.12-3.97,5.12l4.52,6.27h-4.38l-3.6-5.63-3.5-.02v5.65h-3.58Zm3.58-9.08h2.65c1.72,0,2.79-.08,3.22-.25s.76-.45,1-.85c.24-.4.36-.91.36-1.51,0-.68-.16-1.23-.48-1.64-.32-.42-.77-.68-1.35-.79-.29-.05-1.16-.07-2.61-.07h-2.8v5.11Z"></path><path d="m417.13,209.06v-17.74h3.58v7.88l7.24-7.88h4.82l-7.49,7.74,7.53,10.01h-4.52l-5.48-7.5-2.1,2.14v5.36h-3.58Z"></path><path d="m435.36,209.06v-17.74h12.82v3.12h-9.24v3.82h7.96v3.45h-7.96v3.86h9.24v3.49h-12.83Z"></path><path d="m456.1,209.06v-14.63h-5.26v-3.12h14.1v3.12h-5.25v14.63h-3.58Z"></path><path d="m468.41,209.06v-17.74h3.58v17.74h-3.58Z"></path><path d="m476.84,209.06v-17.74h3.37l8.05,11v-11h3.54v17.74h-2.98l-8.43-11.57v11.57h-3.54Z"></path><path d="m504.66,202.13v-2.99h7.72v7.47c-.75.73-1.84,1.37-3.26,1.92-1.42.55-2.87.83-4.33.83-1.86,0-3.47-.39-4.85-1.17-1.38-.78-2.42-1.89-3.11-3.34-.69-1.45-1.04-3.02-1.04-4.73,0-1.85.39-3.49,1.16-4.93.77-1.44,1.91-2.54,3.4-3.3,1.14-.59,2.55-.88,4.25-.88,2.2,0,3.92.46,5.16,1.39.58.43,1.45,1.54,1.45,1.54l-2.02,2.28s-1.03-2.19-4.59-2.14c-1.57.02-2.81.5-3.73,1.49-.92.99-1.39,2.47-1.39,4.42,0,2.11.47,3.69,1.4,4.74s2.16,1.58,3.68,1.58c.75,0,1.5-.15,2.26-.44.75-.29,1.4-.65,1.94-1.07v-2.65h-4.1Z"></path><path d="m357.7,243.66v-17.74h3.7l7.72,11.85v-11.85h3.54v17.74h-3.82l-7.6-11.57v11.57h-3.54Z"></path><path d="m377.17,243.66v-17.74h12.5v3h-9.1v3.93h8.47v2.99h-8.47v4.83h9.42v2.99h-12.83Z"></path><path d="m398.01,243.66l-5.6-17.74h4.17l3.6,12.19,3.88-12.19h3.35l3.74,12.39,3.66-12.39h4.1l-5.67,17.74h-3.92l-3.65-13.27-3.64,13.27h-4.01Z"></path><path d="m423.27,238.09s1.94,2.86,4.5,2.86c1.15,0,2.02-.24,2.61-.73.58-.49.88-1.06.88-1.71,0-.42-.12-.78-.37-1.07-.25-.29-.68-.55-1.29-.77-.42-.15-1.38-.4-2.87-.77-1.92-.48-3.27-1.06-4.04-1.75-1.09-.98-1.63-2.17-1.63-3.57,0-.9.26-1.75.77-2.54.51-.79,1.25-1.39,2.22-1.8.96-.41,2.13-.62,3.49-.62,4.13,0,6.12,2.41,6.12,2.41l-1.8,2.44s-1.66-1.89-4.35-1.89c-1.04,0-1.86.21-2.44.64-.38.27-.57.64-.57,1.1,0,.42.18.78.53,1.08.45.38,1.55.77,3.29,1.19,1.74.41,3.03.84,3.87,1.28.83.44,1.49,1.04,1.96,1.8.47.76.71,1.7.71,2.83,0,1.02-.28,1.97-.85,2.86s-1.36,1.55-2.4,1.98c-1.03.43-2.32.65-3.86.65-2.24,0-3.97-.52-5.17-1.56-.59-.51-1.76-1.58-1.76-1.58l2.46-2.75Z"></path><polygon points="332.1 156.41 307.09 156.41 307.09 199.32 282.08 156.41 257.07 156.41 257.07 243.66 282.36 243.66 282.36 200.03 307.23 243.66 332.1 243.66 332.1 156.41"></polygon><path d="m128.03,156.41h-40.65v87.26h40.57s43.13,3.56,43.13-43.63-43.06-43.63-43.06-43.63Zm-2.56,67.93h-14.92v-51.3h14.92s21.6.85,21.6,26.41-21.6,24.89-21.6,24.89Z"></path><path class="cls-1" d="m223.53,156.41l-12.93,50.88-12.79-50.88h-38.37v6.72c9.78,8.07,14.73,20.46,14.73,36.91s-4.95,28.82-14.73,36.89v6.74h26.01v-55.56l15.49,55.56h19.75l15.63-55.56v55.56h20.75v-87.26h-33.54Z"></path></svg> 