<?xml version="1.0" encoding="UTF-8"?> <svg xmlns="http://www.w3.org/2000/svg" id="Layer_1" width="100" height="10" viewBox="0 0 100 10"><defs><style>.cls-1{fill:#8c1d28;fill-rule:evenodd;}</style></defs><path class="cls-1" d="m11.43,9.58c.59.28,1.25.42,1.97.42s1.34-.13,1.93-.4c.59-.28,1.1-.64,1.53-1.1.43-.46.76-.99,1-1.58.24-.6.36-1.23.36-1.89,0-.62-.12-1.23-.35-1.83-.23-.6-.56-1.14-.97-1.61-.42-.47-.92-.85-1.51-1.14-.58-.3-1.23-.44-1.94-.44s-1.34.14-1.93.42c-.59.27-1.11.63-1.54,1.1-.43.46-.76,1-1.01,1.6-.24.6-.36,1.23-.36,1.89s.12,1.25.35,1.85.56,1.14.97,1.61c.43.46.93.84,1.51,1.13Zm-.69-3.35c-.13-.4-.19-.81-.19-1.24s.06-.81.18-1.19c.13-.4.31-.75.56-1.06.24-.31.54-.56.9-.75.36-.19.77-.29,1.24-.29s.84.09,1.19.28c.36.18.66.42.9.72.25.31.44.66.57,1.06.14.4.21.81.21,1.24s-.06.81-.19,1.21c-.12.39-.31.74-.56,1.06-.24.31-.54.57-.9.76-.35.19-.76.28-1.22.28s-.86-.09-1.22-.28c-.35-.19-.65-.43-.9-.74-.24-.31-.43-.66-.56-1.06Zm-2.52-4.49h-3.15v8.18h-1.9V1.75H0V.07h8.21v1.68ZM32.05.07h1.7l3.75,9.86h-1.97l-.92-2.46h-3.45l-.9,2.46h-1.97L32.05.07Zm2.21,6.06l-1.36-3.88-1.42,3.88h2.78Zm-14.42,3.81V.07h1.92v8.18h5.03v1.68h-6.94Zm19.52-6.78c-.2.58-.31,1.17-.31,1.76,0,.63.11,1.25.33,1.86.23.6.55,1.14.96,1.62.41.47.89.86,1.46,1.15.56.3,1.19.44,1.86.44.38,0,.76-.05,1.15-.15.4-.1.77-.25,1.13-.44.35-.19.67-.43.96-.71.29-.29.51-.62.67-.99l-.81-.42c-.16.32-.35.6-.58.83-.23.22-.49.41-.76.57-.27.15-.55.26-.85.33-.29.06-.57.1-.85.1-.53,0-1.02-.11-1.47-.33-.44-.23-.83-.54-1.17-.92-.32-.39-.58-.83-.78-1.33-.19-.5-.28-1.02-.28-1.57,0-.5.08-.99.24-1.47.16-.49.39-.93.69-1.32.31-.39.7-.7,1.15-.94.45-.24.98-.36,1.57-.36.27,0,.54.03.82.1.28.06.55.15.81.29.26.14.5.32.72.54.23.22.43.5.58.82l.76-.47c-.3-.64-.76-1.16-1.39-1.56-.62-.4-1.37-.6-2.25-.6-.74,0-1.4.15-1.99.44-.58.29-1.07.66-1.47,1.13-.4.46-.7.99-.92,1.58ZM86.98.06h-.82l-4.13,9.86h1.04l1.26-3.08h4.43l1.28,3.08h1.03L86.98.06Zm-.42,1.14l1.99,4.88h-4l2.01-4.88Zm6.84,8.72V.06h.97v9h5.63v.86h-6.6ZM78.08.92h3.51V.06h-8v.86h3.51v9h.97V.92Zm-17.46,9V.06h4.08c.43,0,.81.09,1.17.28.36.18.67.41.93.71.26.29.46.62.61.99.15.37.22.75.22,1.12,0,.41-.07.8-.21,1.18-.14.37-.33.7-.58.99s-.55.52-.9.69c-.34.18-.73.26-1.15.26h-3.19v3.64h-.97Zm.97-4.5h3.15c.29,0,.55-.06.78-.18.24-.13.44-.3.61-.5.17-.21.3-.45.39-.72.09-.28.14-.56.14-.86s-.06-.59-.17-.86c-.1-.28-.25-.52-.43-.72-.18-.2-.39-.36-.64-.47-.24-.12-.5-.18-.76-.18h-3.07v4.5ZM70.16.06v9.86h.97V.06h-.97ZM53.19.06h.82l4.1,9.86h-1.03l-1.28-3.08h-4.43l-1.26,3.08h-1.04L53.19.06Zm2.39,6.01l-1.99-4.88-2.01,4.88h4Z"></path></svg> 