<?xml version="1.0" encoding="UTF-8"?> <svg xmlns="http://www.w3.org/2000/svg" id="Layer_1" width="100" height="36.64" viewBox="0 0 100 36.64"><defs><style>.cls-1{fill:#3a357e;stroke-width:0px;}</style></defs><path class="cls-1" d="m88.75,36.62c-.11-.04-.21-.1-.32-.12-1.74-.35-2.98-1.62-3.31-3.32-.19-.96-.16-1.91.2-2.82.62-1.57,1.78-2.5,3.43-2.81.78-.15,1.55-.11,2.31.12,1.23.37,2.1,1.15,2.62,2.32.34.77.46,1.59.44,2.43,0,.13-.03.27-.06.42h-5.92c-.05.32.09.54.26.75.24.3.56.46.93.52.7.12,1.29-.08,1.77-.67.89.34,1.77.68,2.68,1.03-.12.25-.27.44-.43.63-.64.74-1.46,1.19-2.41,1.39-.19.04-.37.08-.56.13h-1.62Zm2.24-5.59c.02-.64-.57-1.15-1.32-1.16-.88-.02-1.51.45-1.53,1.16h2.85Z"></path><path class="cls-1" d="m81.24,36.51c-1.79-.4-2.96-1.47-3.38-3.26-.37-1.54-.1-2.98.93-4.22.59-.72,1.38-1.16,2.28-1.39,1.05-.26,2.1-.22,3.12.18.08.03.15.07.23.11v2.83c-.08-.03-.15-.06-.21-.09-.65-.33-1.32-.47-2.04-.25-.66.19-1.24.8-1.24,1.64,0,.79.49,1.41,1.25,1.62.62.17,1.24.11,1.82-.18.13-.06.41-.21.41-.21v2.84s-1.08.82-3.17.37Z"></path><path class="cls-1" d="m56.43,36.36h-3.18s0-3.23,0-4.68c0-.23-.05-.48-.12-.7-.12-.37-.4-.58-.78-.62-.43-.04-.8.07-1.05.46-.17.28-.24.59-.24.92,0,1.43,0,4.6,0,4.6h-3.14l-.02-8.63,3.15-.03v.9s.05.04.08.06c.04-.07.08-.14.13-.21.48-.61,1.12-.9,1.88-.95.52-.04,1.04,0,1.53.22.82.35,1.31.99,1.57,1.83.12.4.19.81.19,1.23,0,1.79,0,5.6,0,5.6Z"></path><path class="cls-1" d="m60.25,36.47c-1.39-.44-2.26-1.4-2.69-2.76-.45-1.41-.36-2.79.34-4.11.61-1.15,1.57-1.88,2.87-2.08.94-.14,1.85,0,2.63.61.16.13.3.28.48.44v-.82l3.07-.05.03,8.66h-3.1v-.88c-.48.58-1.75,1.49-3.63.99Zm3.7-4.41c.04-.97-.82-1.75-1.76-1.75-.86,0-1.8.62-1.79,1.76,0,1.05.83,1.74,1.78,1.74,1.04,0,1.81-.84,1.77-1.75Z"></path><path class="cls-1" d="m76.86,36.36h-3.18s0-3.23,0-4.66c0-.24-.05-.5-.13-.73-.14-.37-.42-.58-.83-.61-.45-.03-.79.13-1.03.51-.15.26-.2.54-.2.84,0,.99,0,4.64,0,4.64h-3.17v-8.61l3.16-.05v.94c.07-.06.1-.08.13-.11.52-.69,1.21-1.01,2.06-1.05.5-.02,1,.03,1.46.24.82.36,1.29,1.02,1.54,1.85.13.44.18.89.18,1.35,0,1.72,0,5.43,0,5.43Z"></path><polygon class="cls-1" points="43.41 27.72 46.52 27.72 46.54 36.36 43.41 36.36 43.41 27.72"></polygon><path class="cls-1" d="m46.76,25.18c.02.9-.72,1.73-1.77,1.75-.9.01-1.78-.73-1.78-1.75,0-1.11.95-1.75,1.78-1.75.99,0,1.82.89,1.77,1.75Z"></path><path class="cls-1" d="m42.3,27.7v2.55h-2.11v6.12c-1.07.02-2.11,0-3.17.01v-6.11h-1.09c-.07-.24-.08-2.1-.03-2.56h1.09c.03-.31.04-.6.07-.88.07-.65.25-1.26.61-1.81.45-.68,1.08-1.11,1.85-1.34.81-.24,1.64-.26,2.46-.06.15.04.29.1.43.14v2.6c-.22-.05-.43-.09-.64-.14-.28-.07-.56-.03-.83.06-.46.15-.69.51-.76.98-.02.13,0,.27,0,.44h2.11Z"></path><path class="cls-1" d="m85.92,18.81c-.03-1.92,1.56-3.63,3.63-3.62,1.98,0,3.51,1.53,3.5,3.5,0,2.1-1.68,3.65-3.65,3.64-1.95,0-3.52-1.58-3.49-3.52Z"></path><polygon class="cls-1" points="94.26 13.84 87.88 13.84 93.56 0 100 0 94.26 13.84"></polygon><path class="cls-1" d="m59.82,22.44c-1.73,0-3.34-.43-4.77-1.42-1.84-1.27-2.94-3.03-3.3-5.23-.28-1.7-.08-3.35.67-4.9,1.02-2.13,2.7-3.51,4.97-4.15,2.24-.63,4.42-.45,6.48.65,2.13,1.14,3.44,2.92,3.94,5.27.41,1.94.19,3.82-.74,5.58-1.11,2.08-2.85,3.37-5.13,3.95-.69.17-1.39.26-2.1.25Zm-.02-11.09c-1.67-.03-3.04,1.28-3.04,3.08,0,1.74,1.33,3.06,3.06,3.07,1.61,0,3.04-1.21,3.04-3.08,0-1.9-1.48-3.11-3.05-3.06Z"></path><path class="cls-1" d="m77.04,22.44c-1.77,0-3.42-.47-4.87-1.5-1.6-1.14-2.62-2.68-3.06-4.6-.42-1.82-.28-3.6.5-5.31,1.03-2.26,2.79-3.7,5.18-4.34,2.02-.54,4.01-.4,5.91.49,2.34,1.1,3.79,2.94,4.35,5.45.41,1.88.22,3.71-.65,5.44-1.14,2.25-2.99,3.61-5.43,4.16-.63.14-1.27.21-1.92.2Zm.03-11.09c-1.61-.04-3.05,1.2-3.05,3.06,0,1.88,1.44,3.09,3.04,3.08,1.73,0,3.06-1.33,3.05-3.07,0-1.84-1.41-3.11-3.04-3.07Z"></path><path class="cls-1" d="m41.25,0s-.01,5.34-.01,7.87v.32c.32-.29.6-.57.91-.81.74-.58,1.6-.86,2.54-.94.9-.08,1.79,0,2.64.34,1.36.54,2.23,1.56,2.73,2.91.29.78.44,1.59.44,2.41.01,3.26,0,9.94,0,9.94h-5.38s0-5.59,0-8.21c0-.42-.04-.83-.17-1.23-.23-.69-.68-1.11-1.41-1.2-.73-.09-1.36.12-1.8.75-.36.51-.46,1.09-.47,1.69-.01,1.24,0,2.48,0,3.72,0,1.39,0,4.48,0,4.48h-5.38V0s5.37,0,5.37,0Z"></path><path class="cls-1" d="m28.87,8.17v-1.39h5.18v15.26h-5.17v-1.36c-.07.05-.11.06-.13.09-.71.85-1.64,1.34-2.71,1.55-2.82.56-5.62-.65-7.22-3.12-.78-1.19-1.2-2.5-1.33-3.92-.17-1.82.17-3.55,1.08-5.14.97-1.71,2.37-2.91,4.28-3.46,1.5-.44,2.98-.38,4.41.28.56.26,1.06.62,1.47,1.09.02.03.06.05.14.12Zm-6.2,6.26c-.03,1.69,1.31,3.13,3.15,3.14,1.64,0,3.15-1.21,3.15-3.14,0-1.94-1.56-3.15-3.15-3.14-1.77.01-3.18,1.4-3.15,3.14Z"></path><path class="cls-1" d="m0,6.75h5.85s2.32,5.94,3.48,8.9c.01,0,.02,0,.03,0,0,0,.02,0,.03-.02,1.17-2.95,2.34-5.89,3.51-8.85h5.64s.01.02.02.02c0,0,.01.02,0,.03-2.86,6.91-8.67,20.88-8.67,20.88h-5.72s1.56-3.69,2.34-5.54c-.23-.54-.46-1.09-.69-1.63C3.94,16.07,0,6.75,0,6.75Z"></path></svg> 