<?xml version="1.0" encoding="UTF-8"?> <svg xmlns="http://www.w3.org/2000/svg" id="Layer_1" width="599.76" height="400.32" viewBox="0 0 599.76 400.32"><defs><style>.cls-1{fill:#fff;}</style></defs><path class="cls-1" d="m174.8,238.08v25.86h4.67v-9.15h6.58c6.27,0,9.5-2.79,9.5-8.33s-3.23-8.37-9.5-8.37h-11.25Zm4.67,12.54v-8.37h6.38c3.39,0,4.99,1.4,4.99,4.21s-1.6,4.17-4.99,4.17h-6.38Zm44.9,13.32h5.02l-11.41-25.86h-4.48l-11.38,25.86h4.87l2.06-4.87h13.24l2.06,4.87Zm-8.65-20.56l4.87,11.6h-9.81l4.87-11.6h.08Zm28.86,20.56v-9.46h5.76l5.76,9.46h5.53l-6.5-9.89c3.61-.74,6.08-4.08,5.72-7.75,0-5.41-3.23-8.21-9.5-8.21h-11.45v25.86h4.67Zm0-13.64v-8.06h6.62c3.35,0,4.94,1.36,4.94,4.05s-1.6,4.01-4.94,4.01h-6.62Zm39.02,13.64v-21.69h8.1v-4.17h-20.91v4.17h8.14v21.69h4.67Zm41.75,0v-25.86h-4.52v19.31h-.08l-11.95-19.31h-6.43v25.86h4.52v-20.76h.07l12.73,20.76h5.65Zm17.86-15.03v-6.66h14.45v-4.17h-19.12v25.86h19.13v-4.17h-14.45v-6.82h11.64v-4.05h-11.65Zm31.16,15.03v-9.46h5.76l5.76,9.46h5.53l-6.5-9.89c3.61-.74,6.08-4.08,5.73-7.75,0-5.41-3.23-8.21-9.5-8.21h-11.45v25.86h4.67Zm0-13.64v-8.06h6.62c3.35,0,4.94,1.36,4.94,4.05s-1.6,4.01-4.94,4.01h-6.62Zm45.71-10.54c-2.48-1.47-5.32-2.19-8.2-2.07-6.23,0-10.09,3.04-10.09,8.02,0,4.52,2.41,6.7,9.15,7.44,4.59.51,6,1.44,6,3.43,0,2.3-2.02,3.58-5.61,3.58-3.42.13-6.76-1.04-9.35-3.27h-.23v4.99c2.89,1.82,6.29,2.68,9.7,2.45,6.38,0,10.13-2.92,10.13-7.87s-2.53-7.13-9.42-7.83c-4.36-.43-5.73-1.37-5.73-3.2,0-2.18,2.1-3.58,5.37-3.58,2.96-.17,5.86.85,8.06,2.84h.23v-4.95h-.01Z"></path><path class="cls-1" d="m183.24,138.17h19.04v1.34h-8.76v66.85h-2.57l-42.88-61.39h-.19v60.06h8.77v1.34h-44.27v-1.34h8.88v-65.52h-8.88v-1.34h47.71l31.73,45.59h.19v-44.25h-8.77v-1.34Zm-36.86,1.34h-11.1v65.51h11.09v-65.51Zm100.98,31.46c-2.02-1.6-4.26-2.9-6.66-3.85-2.5-1.02-5.06-1.95-7.69-2.79-2.63-.85-5.2-1.66-7.69-2.44-2.31-.7-4.54-1.63-6.66-2.78-1.81-.96-3.42-2.27-4.72-3.86-1.25-1.61-1.91-3.62-1.84-5.66.02-1.53.4-3.04,1.11-4.4.76-1.5,1.82-2.83,3.11-3.91,1.47-1.24,3.16-2.2,4.98-2.84,2.2-.76,4.52-1.13,6.85-1.1,2.72-.1,5.43.47,7.88,1.65,2.01,1.06,3.77,2.54,5.15,4.36,1.39,1.85,2.51,3.88,3.34,6.04.88,2.22,1.7,4.47,2.49,6.75h1.29v-18.59h-1.54c-.21.59-.52,1.14-.93,1.62-.53.36-1.17.52-1.8.44-.89-.02-1.76-.23-2.57-.59-.94-.39-2.02-.79-3.25-1.22s-2.66-.84-4.28-1.22c-1.85-.43-3.74-.63-5.64-.62-3.2-.02-6.37.56-9.35,1.73-2.74,1.05-5.26,2.58-7.46,4.52-2.02,1.8-3.67,3.98-4.86,6.41-1.15,2.34-1.75,4.92-1.75,7.53-.1,3.02.48,6.03,1.7,8.79,1.07,2.27,2.61,4.29,4.52,5.92,1.92,1.63,4.09,2.94,6.41,3.91,2.41,1.02,4.87,1.9,7.38,2.64l7.39,2.2c2.23.65,4.37,1.53,6.41,2.64,1.78.96,3.32,2.29,4.52,3.91,1.2,1.75,1.8,3.84,1.72,5.97-.04,1.55-.3,3.08-.77,4.55-.56,1.81-1.47,3.49-2.68,4.94-1.42,1.69-3.2,3.04-5.2,3.97-2.66,1.17-5.55,1.72-8.46,1.62-.96,0-2.03-.02-3.16-.05-1.22-.05-2.43-.24-3.6-.59-1.39-.41-2.73-.99-3.99-1.71-1.59-.94-3.04-2.09-4.32-3.42-1.33-1.27-2.49-2.7-3.45-4.26-.89-1.44-1.67-2.94-2.33-4.5-.57-1.33-1.04-2.71-1.41-4.12-.32-1.27-.55-2.3-.68-3.09h-1.46v21.74h1.54c.19-.69.56-1.31,1.07-1.8.58-.35,1.26-.51,1.94-.46,1.01.07,2.01.26,2.97.59,1.33.39,2.85.8,4.57,1.22,1.72.42,3.57.83,5.54,1.22,1.97.4,3.97.6,5.98.61,3.73.05,7.44-.6,10.93-1.91,3.11-1.18,5.98-2.93,8.46-5.15,2.33-2.11,4.2-4.67,5.49-7.54,1.3-2.86,1.96-5.96,1.95-9.1.1-2.85-.52-5.68-1.8-8.23-1.17-2.2-2.76-4.14-4.68-5.71Zm7.57-31.47h8.9v65.52h-8.9v1.34h31.8v-1.34h-8.89v-65.52h8.89v-1.34h-31.8v1.34Zm100.87,41.69h-29.25v1.37h9.76v3.73c0,3-.13,5.78-.38,8.32-.19,2.28-.79,4.51-1.76,6.58-.87,1.81-2.23,3.33-3.93,4.4-2.11,1.18-4.5,1.74-6.91,1.62-3.13.07-6.23-.49-9.14-1.64-2.58-1.1-4.76-2.96-6.25-5.34-1.8-3-3-6.32-3.55-9.78-.83-4.95-1.21-9.96-1.14-14.97v-8.52c0-3.61.22-7.22.66-10.8.37-3.3,1.31-6.52,2.79-9.49,1.4-2.75,3.51-5.08,6.11-6.75,3.18-1.87,6.83-2.77,10.51-2.59,4.94-.28,9.76,1.63,13.16,5.24,3.66,4.29,6.19,9.41,7.39,14.92h1.44v-19.97h-1.61c-.2.62-.55,1.17-1.03,1.62-.57.34-1.23.5-1.89.44-1.03-.04-2.06-.23-3.03-.59-1.19-.39-2.55-.79-4.08-1.22-1.53-.43-3.17-.84-4.94-1.22-1.8-.39-3.64-.59-5.48-.59-4.25.04-8.45.92-12.35,2.59-4.22,1.74-8.09,4.24-11.41,7.38-3.48,3.29-6.32,7.21-8.38,11.54-4.24,9.27-4.36,19.9-.33,29.26,1.87,4.25,4.52,8.12,7.81,11.4,3.26,3.23,7.1,5.82,11.32,7.63,4.21,1.84,8.76,2.79,13.35,2.79,2.5.06,5-.24,7.42-.9,1.86-.55,3.68-1.22,5.44-2l4.4-2.01c1.35-.62,2.82-.93,4.31-.93.72,0,1.42.18,2.04.55.61.37,1.02,1,1.1,1.71h1.7v-22.41h6.15v-1.37Zm131.58-43.02h-91.34v1.34h8.99v31.41h-28.24v-31.41h8.99v-1.34h-32.16v1.34h8.99v65.51h-8.99v1.34h32.16v-1.34h-8.99v-32.76h28.25v32.76h-8.99v1.34h32.16v-1.34h-9v-65.51h7.97v16.3h1.25c.77-2.81,1.83-5.52,3.17-8.11.97-1.89,2.31-3.57,3.93-4.95,1.46-1.19,3.17-2.04,5-2.51,2.07-.51,4.2-.75,6.33-.73h3.45v65.49h-8.79v1.35h31.56v-1.36h-8.83v-65.45h3.46c2.13-.03,4.26.21,6.34.71,1.83.47,3.53,1.32,5,2.51,1.62,1.38,2.96,3.06,3.94,4.95,1.33,2.59,2.39,5.3,3.16,8.11h1.25v-17.66h0Z"></path></svg> 