<?xml version="1.0" encoding="UTF-8"?> <svg xmlns="http://www.w3.org/2000/svg" id="Layer_1" width="600" height="400" viewBox="0 0 600 400"><defs><style>.cls-1{fill-rule:evenodd;}.cls-1,.cls-2{fill:#fff;stroke-width:0px;}</style></defs><path class="cls-2" d="m237.12,180.97v-14.12h-54.22v14.12h19.86v52.17h14.4v-52.17h19.95Z"></path><path class="cls-2" d="m255.87,205.84c.27-4.3,3.1-7.48,7.47-7.48,5.01,0,7.38,3.46,7.38,8.04v26.74h13.85v-29.17c0-10.19-5.28-18.51-17.13-18.51-4.01,0-8.75,1.31-11.57,4.21v-24.21h-13.85v67.69h13.85v-27.3Z"></path><path class="cls-2" d="m303.32,204.35c.27-3.46,3.19-7.85,9.02-7.85,6.56,0,8.93,4.3,9.11,7.85h-18.13Zm19.13,12.06c-1.28,3.65-4.1,6.08-9.11,6.08-5.38,0-10.02-3.74-10.3-8.97h31.53c.09-.28.27-2.43.27-4.39,0-14.96-8.66-23.84-22.69-23.84-11.75,0-22.6,9.54-22.6,24.49s11.12,24.77,23.6,24.77c11.48,0,18.68-6.73,20.87-14.77l-11.57-3.37Z"></path><path class="cls-2" d="m374.72,219.21v-38.42h8.38c9.93,0,18.04,5.98,18.04,19.26s-8.11,19.17-18.04,19.17h-8.38Zm8.93,13.93c19.5,0,32.53-12.62,32.53-33.1s-13.03-33.19-32.44-33.19h-23.42v66.28h23.33Z"></path><path class="cls-2" d="m452.23,186.39c-.91-.28-2.28-.47-3.64-.47-3.64,0-9.39,1.5-11.75,6.73v-6.26h-13.39v46.46h13.85v-20.29c0-9.26,5.01-12.62,10.57-12.62,1.37,0,2.82.09,4.37.47v-14.02Z"></path><path class="cls-2" d="m487.69,232.24h13.3c-.09-.75-.46-4.11-.46-8.32v-38.14h-13.85v26.46c0,4.67-2.91,7.95-7.56,7.95-4.92,0-7.29-3.55-7.29-8.04v-26.36h-13.85v29.36c0,9.91,6.2,18.14,17.22,18.14,4.56,0,9.75-1.68,12.12-5.7,0,1.22.18,3.83.37,4.67Z"></path><path class="cls-2" d="m523.01,231.99v-26.74c0-4.21,2.64-8.04,7.47-8.04s7.29,3.46,7.29,7.85v26.92h13.67v-26.83c0-4.11,2.64-7.95,7.56-7.95s7.2,3.46,7.2,7.85v26.92h13.39v-30.1c0-12.62-8.2-17.76-16.76-17.76-6.11,0-10.48,2.06-14.03,7.29-2.28-4.58-6.93-7.29-13.39-7.29-4.92,0-10.75,2.62-13.03,6.73v-5.33h-13.21v46.46h13.85Z"></path><path class="cls-2" d="m590.79,225.6v-.99h-6.14v.99h2.54v6.69h1.05v-6.69h2.54Z"></path><path class="cls-2" d="m600,232.29v-7.68h-1.41l-2.7,6.25-2.68-6.25h-1.43v7.68h1.04v-5.98l2.58,5.98h.96l2.6-5.98v5.98h1.04Z"></path><path class="cls-1" d="m19.75,172.14v4.63h130.33v-9.27H19.75v4.63Zm32.78,32.81c-5.92,9.98-10.97,17.9-11.22,17.61-.25-.29-5.07-8.31-10.72-17.82-5.65-9.51-10.4-17.28-10.56-17.28s-.29,10.1-.29,22.45v22.45h130.33v-45.19l-10.52,17.6c-5.79,9.68-10.74,17.61-11.01,17.61s-5.15-7.86-10.85-17.46c-5.7-9.6-10.57-17.46-10.83-17.46s-2.62,3.61-5.24,8.02c-2.62,4.41-7.41,12.45-10.63,17.86l-5.87,9.84-2.28-3.78c-1.25-2.08-5.98-10.03-10.51-17.68-4.53-7.64-8.41-14.13-8.64-14.4-.22-.28-5.25,7.66-11.17,17.64Z"></path></svg> 