<?xml version="1.0" encoding="UTF-8"?> <svg xmlns="http://www.w3.org/2000/svg" id="Layer_1" width="100" height="33.69" viewBox="0 0 100 33.69"><defs><style>.cls-1{fill:#be1e2e;}.cls-2{fill:#1a1a1a;}</style></defs><path class="cls-2" d="m16.57,20.62h-5.02s-.63-1.22-1.51-3.96c-1-3.07-3.05-4.2-4.85-4.23h-1.13v8.19s-4.06,0-4.06,0V.1h7.77c5.34-.18,7.2,2.61,7.5,5.14.71,5.83-5.47,6.09-5.47,6.09,1.14.25,3.02,1.04,4.23,4.38,1.1,3.05,2.53,4.91,2.53,4.91Zm-5.43-14.35c0-1.55-.79-2.81-3.5-2.81h-3.57v5.6h.21l3.4.02c2.99,0,3.46-1.64,3.46-2.81h0Z"></path><path class="cls-2" d="m30.15,13.2c-.01,3.33-1.38,7.68-7.77,7.81-3.95.08-7.64-2.41-7.75-7.66-.15-5.74,4.38-7.95,7.51-7.95,5.14,0,8.03,3.51,8.02,7.81Zm-4.48-.12c-.01-3.17-1.49-4.82-3.57-4.75-1.95.06-3.11,1.86-3.1,4.32.01,2.55.99,4.99,3.13,4.99,2.43,0,3.55-1.42,3.54-4.56h0Z"></path><path class="cls-2" d="m30.65,5.84h4.34l.06,8.11c-.02,3.22,1.13,4.2,2.84,3.99,1.04-.12,2.17-.69,2.64-2.14.24-.75.2-1.5.2-3.5v-6.46s4.27.01,4.27.01v14.81h-4.15s-.01-2.09-.01-2.09c0,0-1.08,2.37-4.54,2.37-2.55,0-4.69-1.08-5.35-3.98-.22-.97-.29-2.86-.29-4.62v-6.52Z"></path><path class="cls-2" d="m60.1,20.64h-4.34l-.06-8.11c.02-3.22-1.13-4.2-2.84-3.99-1.04.12-2.17.69-2.64,2.14-.24.75-.2,1.49-.2,3.5v6.46h-4.28V5.81h4.15s.01,2.09.01,2.09c0,0,1.08-2.37,4.54-2.37,2.55,0,4.69,1.08,5.35,3.98.22.97.29,2.86.29,4.62v6.52Z"></path><path class="cls-2" d="m67.68,5.53c2.41.19,3.91,2.29,3.91,2.29V.19h4.13s0,20.52,0,20.52h-3.93s-.19.01-.19.01v-1.97c-.38.53-.85.99-1.39,1.36-1.86,1.26-4.53.9-5.29.63-2.16-.77-4.42-2.9-4.42-7.56,0-7,4.48-7.86,7.18-7.65Zm1.13,11.98c2.14-.46,2.68-2.08,2.68-4.49,0-2.17-.83-3.95-2.58-4.26-2.53-.45-4.02,1.41-4.02,4.21,0,2.42,1.08,5.15,3.92,4.54h0Z"></path><path class="cls-1" d="m84.41.36v20.24l-4.03.04.02-14.41s-.88,1.65-2.88,1.67l-.06-4.46c1.85-.04,3.32-1.37,3.34-3.02l3.61-.06Z"></path><path class="cls-1" d="m100,15.25c0,3.41-3.11,5.66-7.31,5.66-3.28,0-6.23-1.33-7.15-4.94l3.9-1.15c.24,1.76,1.66,2.36,3.48,2.31,4.57-.12,4.18-5.35.18-5.35h-1.6l.03-3.51,1.66-.02c3.13,0,3.52-4.9-.55-4.9-2.06,0-3.18.87-3.3,2.82l-3.94-.67c.64-3.91,3.72-5.51,7.16-5.51,4.2,0,6.73,2.45,6.84,5.37.14,3.59-2.67,4.69-2.67,4.69,0,0,3.27.93,3.27,5.19Z"></path><path class="cls-2" d="m6.01,29.88s-.32.94-1.76.89c-.62-.02-1.18-.19-1.61-.61-.47-.46-.76-1.37-.77-2.21-.01-.83.14-1.64.63-2.18.47-.53,1.07-.64,1.65-.65,1.46-.02,1.86,1.08,1.86,1.08l1.18-.19s-.46-2.02-3.08-2.02c-1.94,0-3.51,1.31-3.54,3.78-.04,2.72,1.48,4.13,3.58,4.13,2.49,0,3.08-1.78,3.08-1.78l-1.22-.26Zm7.08.87v-1.69c-.03-.92.1-1.61-.45-2.24-.17-.2-.55-.43-.95-.53-.9-.21-2.18-.12-2.82.51-.35.35-.46.79-.46.79l1.06.26c.12-.4.49-.67,1.14-.68.55-.02.98.08,1.2.36.2.25.21.53.06.69-.35.42-1.46.35-2.26.51-.92.18-1.54.97-1.39,1.9.13.73.8,1.31,1.92,1.31,1.38,0,1.83-.79,1.83-.79l.07.69h1.36l-.29-1.1Zm-1.12-1.1c0,.95-1.18,1.55-2,1.29-.49-.17-.69-.63-.41-1.01.4-.55,1.76-.24,2.4-.75v.47Zm4.95-3.46c-1.05.08-1.41.78-1.41.78v-.69h-1.17v7.42h1.17c-.01-.34,0-2.48,0-2.48,0,0,.43.69,1.46.73.78.03,2.29-.34,2.29-2.82s-1.39-3-2.34-2.93Zm-.34,4.68c-.54-.12-1.06-.65-1.06-1.71,0-1.14.37-1.78,1.06-1.91,1.11-.22,1.5.74,1.5,1.93,0,1.12-.51,1.92-1.5,1.69Zm3.69.98h1.17l.02-5.58h-1.19v5.58Zm1.19-6.47v-1.19h-1.19v1.19h1.19Zm2.45,3.87v-2.01s.63.01.63.01h.63v-.95h-.68s-.58,0-.58,0v-.6s.02-1.53.02-1.53l-1.18.32v1.82s-.84-.01-.84-.01v.95h.85s-.01.47-.01.47v2.28c0,.95-.1,2.33,2.56,1.85l-.23-1.04s-1.05.31-1.14-.36c-.02-.1-.02-.58-.02-1.21Zm6.97,1.51v-1.69c-.03-.92.1-1.61-.45-2.24-.17-.2-.55-.43-.95-.53-.9-.21-2.18-.12-2.82.51-.35.35-.46.79-.46.79l1.06.26c.12-.4.49-.67,1.14-.68.55-.02.98.08,1.2.36.2.25.21.53.06.69-.35.42-1.46.35-2.26.51-.92.18-1.54.97-1.39,1.9.13.73.8,1.31,1.92,1.31,1.38,0,1.83-.79,1.83-.79l.07.69h1.36l-.29-1.1Zm-1.12-1.1c0,.95-1.18,1.55-2,1.29-.49-.17-.69-.63-.41-1.01.4-.55,1.76-.24,2.4-.75v.47Zm3.54,2.21v-7.67h-1.17v7.67h1.17Z"></path></svg> 