<?xml version="1.0" encoding="UTF-8"?> <svg xmlns="http://www.w3.org/2000/svg" id="Layer_1" width="100" height="20.41" viewBox="0 0 100 20.41"><defs><style>.cls-1{fill:#ebf5ed;}</style></defs><g id="Layer_1-2"><path class="cls-1" d="m50.14,5.28l-2.9,9.28h-1.35l-2.35-5.99-2.29,5.99h-1.35l-2.96-9.28h1.62l2.1,6.85,2.6-6.71h.57l2.67,6.72,2.05-6.85h1.6Z"></path><path class="cls-1" d="m57.55,10.25v4.31h-1.47v-4.01c0-1.3-.56-1.99-1.64-1.99s-1.92.9-1.92,2.17v3.83h-1.47V4.84h1.47v3.38c.55-.61,1.37-.98,2.33-.98,1.67,0,2.71,1.16,2.71,3.01Z"></path><path class="cls-1" d="m58.91,4.78h1.52v1.52h-1.52v-1.52Zm.02,2.63h1.47v7.16h-1.47v-7.16Z"></path><path class="cls-1" d="m66.4,13.23v1.34h-1.09c-1.57,0-2.54-.97-2.54-2.55v-3.35h-1.28v-.28l2.49-2.65h.25v1.67h2.13v1.26h-2.12v3.23c0,.85.47,1.33,1.34,1.33h.82Z"></path><path class="cls-1" d="m74.29,11.48h-5.81c.19,1.16,1.02,1.87,2.19,1.87.85,0,1.55-.4,1.93-1.05h1.55c-.57,1.51-1.88,2.43-3.48,2.43-2.09,0-3.68-1.62-3.68-3.75s1.58-3.75,3.68-3.75,3.65,1.69,3.65,3.77c0,.16-.01.32-.03.48Zm-5.77-1.19h4.33c-.26-1.09-1.08-1.73-2.17-1.73-1.11,0-1.92.67-2.15,1.73Z"></path><path class="cls-1" d="m75.21,10.98c0-2.14,1.62-3.75,3.75-3.75,1.77,0,3.15,1.08,3.55,2.72h-1.46c-.38-.82-1.16-1.32-2.09-1.32-1.29,0-2.25,1.02-2.25,2.34s.98,2.35,2.25,2.35c.94,0,1.7-.51,2.09-1.37h1.49c-.4,1.67-1.8,2.78-3.57,2.78-2.14,0-3.76-1.62-3.76-3.76Z"></path><path class="cls-1" d="m91.09,7.4v7.16h-1.19l-.14-.87c-.65.66-1.55,1.05-2.6,1.05-2.13,0-3.73-1.61-3.73-3.76s1.6-3.75,3.73-3.75c1.05,0,1.97.4,2.62,1.06l.17-.89h1.14Zm-1.47,3.58c0-1.35-.99-2.35-2.34-2.35s-2.34,1.01-2.34,2.35.99,2.35,2.34,2.35c1.35,0,2.34-1,2.34-2.35Z"></path><path class="cls-1" d="m96.29,7.23c2.14,0,3.71,1.6,3.71,3.75s-1.57,3.76-3.71,3.76c-.93,0-1.75-.32-2.38-.87v3.26h-1.47V7.41h.99l.28.88c.64-.66,1.55-1.06,2.58-1.06h0Zm2.22,3.75c0-1.35-.99-2.35-2.34-2.35s-2.34,1.01-2.34,2.35.99,2.35,2.34,2.35,2.34-1,2.34-2.35Z"></path><path class="cls-1" d="m19.46,13.72c1.75-.2,3.36-1.26,4.49-2.58.12-.15.24-.3.36-.45,1.3-1.69,2.14-3.71,3.15-5.59,1.1-2.05,2.57-4.08,4.73-4.98-2.29-.54-4.63.96-6.02,2.87-.76,1.03-1.31,2.18-1.85,3.35-.45.98-.89,1.97-1.41,2.92-.89,1.61-2.15,3.14-3.78,3.91-.02-.03-.04-.06-.05-.09-.23-.42-.45-.85-.65-1.28.21-.2.42-.42.61-.64,1.52-1.78,2.4-3.99,3.51-6.05.23-.43.48-.86.74-1.27,1-1.58,2.28-3,3.98-3.71-2.29-.54-4.63.96-6.02,2.87-.2.27-.38.56-.56.84-1.05,1.72-1.73,3.65-2.71,5.42-.13.23-.26.46-.41.69-.51-1.09-1.05-2.16-1.75-3.13-1.39-1.91-3.73-3.4-6.02-2.87,2.15.9,3.62,2.93,4.73,4.98.52.97.99,1.97,1.51,2.95.21.4.43.79.66,1.18.4.67.83,1.32,1.34,1.92,1.52,1.78,3.89,3.07,6.3,2.47-2.09-.32-3.72-1.91-4.86-3.71Z"></path><path class="cls-1" d="m9.29,13.06c-1.14-2.06-1.87-4.36-3.27-6.26-1.39-1.91-3.73-3.4-6.02-2.87,2.15.9,3.62,2.93,4.73,4.98,1.11,2.05,1.99,4.27,3.51,6.05s3.89,3.07,6.3,2.47c-2.33-.35-4.1-2.3-5.24-4.37Z"></path><path class="cls-1" d="m14.53,13.72c-.12-.19-.23-.38-.34-.57-.02-.03-.04-.06-.05-.09-1.14-2.06-1.87-4.36-3.27-6.26-1.39-1.91-3.73-3.4-6.02-2.87,2.15.9,3.62,2.93,4.73,4.98,1.11,2.06,1.99,4.27,3.51,6.05s3.89,3.07,6.3,2.47c-2.08-.31-3.71-1.9-4.85-3.7Z"></path><path class="cls-1" d="m31.01,2.98c-1.39,1.91-2.13,4.2-3.27,6.26-.83,1.49-1.98,2.93-3.44,3.74-.56.31-1.16.53-1.8.63.61.15,1.21.18,1.8.11,1.75-.2,3.36-1.25,4.49-2.58,1.52-1.78,2.4-3.99,3.51-6.05,1.11-2.05,2.57-4.08,4.73-4.98-2.3-.54-4.64.96-6.03,2.87Z"></path><path class="cls-1" d="m40.57,17.91h.41l.76,1.97.76-1.97h.41l-.97,2.47h-.39l-.97-2.47Z"></path><path class="cls-1" d="m45.8,20.02v.35h-1.78v-2.47h1.75v.35h-1.36v.65h1.08v.35h-1.08v.76h1.39Z"></path><path class="cls-1" d="m49.25,17.91v2.47h-.33l-1.37-1.78v1.78h-.39v-2.47h.33l1.37,1.78v-1.78h.39Z"></path><path class="cls-1" d="m52.25,17.91v.35h-.74v2.12h-.39v-2.12h-.74v-.35h1.87Z"></path><path class="cls-1" d="m54.8,19.86c.13-.13.19-.29.19-.47v-1.48h.39v1.48c0,.28-.1.52-.3.72s-.45.3-.74.3-.53-.1-.74-.3c-.2-.2-.3-.44-.3-.72v-1.48h.39v1.48c0,.18.06.34.19.47s.28.2.46.2c.18,0,.33-.07.46-.2Z"></path><path class="cls-1" d="m56.73,17.91h1.04c.23,0,.42.07.57.22.15.15.22.32.22.54,0,.1-.02.2-.05.28-.04.09-.07.16-.12.21-.05.05-.1.1-.15.13-.05.04-.09.06-.12.08l-.05.02.56.99h-.42l-.53-.95h-.56v.95h-.38v-2.47Zm1.33.47c-.08-.08-.17-.12-.29-.12h-.65v.81h.65c.11,0,.21-.04.29-.12s.12-.17.12-.29c0-.12-.04-.21-.12-.29Z"></path><path class="cls-1" d="m61.62,20.02v.35h-1.78v-2.47h1.75v.35h-1.36v.65h1.08v.35h-1.08v.76h1.39Z"></path><path class="cls-1" d="m66.25,17.91c.24,0,.43.08.59.23s.24.34.24.56-.08.41-.24.56c-.16.15-.36.23-.59.23h-.6v.88h-.39v-2.47h.99Zm-.6.35v.88h.6c.12,0,.22-.04.31-.12.09-.09.13-.19.13-.31s-.04-.23-.13-.31-.19-.13-.31-.13h-.6Z"></path><path class="cls-1" d="m68.78,17.91h.39l1.02,2.47h-.41l-.26-.65h-1.09l-.26.65h-.41l1.02-2.47Zm-.21,1.46h.81l-.41-1.02-.41,1.02Z"></path><path class="cls-1" d="m71.32,17.91h1.04c.23,0,.42.07.57.22s.22.32.22.54c0,.1-.02.2-.05.28-.04.09-.07.16-.12.21-.05.05-.1.1-.15.13-.05.04-.09.06-.12.08l-.05.02.56.99h-.42l-.53-.95h-.56v.95h-.39v-2.47h0Zm1.33.47c-.08-.08-.17-.12-.29-.12h-.65v.81h.65c.11,0,.21-.04.29-.12s.12-.17.12-.29c0-.12-.04-.21-.12-.29Z"></path><path class="cls-1" d="m75.99,17.91v.35h-.74v2.12h-.39v-2.12h-.74v-.35h1.87Z"></path><path class="cls-1" d="m79.21,17.91v2.47h-.33l-1.37-1.78v1.78h-.39v-2.47h.33l1.37,1.78v-1.78h.39Z"></path><path class="cls-1" d="m82.34,20.02v.35h-1.78v-2.47h1.75v.35h-1.36v.65h1.08v.35h-1.08v.76h1.39Z"></path><path class="cls-1" d="m83.7,17.91h1.04c.23,0,.42.07.57.22s.22.32.22.54c0,.1-.02.2-.05.28-.04.09-.07.16-.12.21-.05.05-.1.1-.15.13-.05.04-.09.06-.12.08l-.05.02.56.99h-.42l-.53-.95h-.56v.95h-.39v-2.47h0Zm1.32.47c-.08-.08-.17-.12-.29-.12h-.65v.81h.65c.11,0,.21-.04.29-.12.08-.08.12-.17.12-.29,0-.12-.04-.21-.12-.29Z"></path><path class="cls-1" d="m87.88,19.48s-.11-.09-.19-.12c-.07-.03-.16-.06-.25-.08-.09-.02-.19-.05-.28-.09s-.18-.07-.25-.12-.14-.12-.19-.21c-.05-.09-.07-.2-.07-.32,0-.19.07-.35.22-.48s.34-.19.59-.19c.09,0,.18.01.26.03.09.02.15.05.21.08.06.03.1.06.15.09.04.03.07.06.09.08l.03.04-.25.25s-.01-.01-.02-.02c-.01-.01-.03-.03-.06-.05-.03-.02-.06-.05-.1-.06s-.08-.04-.14-.05c-.06-.01-.12-.02-.18-.02-.13,0-.23.03-.31.1-.08.06-.12.14-.12.22,0,.07.02.14.07.19.05.05.11.09.19.12.07.03.16.06.25.08.09.02.19.05.28.09.09.04.18.07.25.12s.14.12.19.21.07.2.07.32c0,.22-.08.4-.24.53s-.37.21-.65.21c-.11,0-.22-.01-.32-.04-.1-.03-.19-.06-.25-.1s-.12-.07-.17-.11-.08-.07-.1-.1l-.04-.04.25-.25s.01.02.02.03.04.04.07.07.08.06.12.09.1.05.18.07c.07.02.15.03.24.03.15,0,.27-.04.36-.11.09-.07.13-.17.13-.28,0-.09-.01-.15-.06-.2Z"></path></g></svg> 