<?xml version="1.0" encoding="UTF-8"?> <svg xmlns="http://www.w3.org/2000/svg" id="Layer_1" width="100" height="34.24" viewBox="0 0 100 34.24"><defs><style>.cls-1{fill:#ff531b;}</style></defs><g id="main-logo"><path d="m16.64,27.24v6.9h1.25v-2.44h1.75c1.67,0,2.53-.74,2.53-2.22s-.86-2.23-2.53-2.23h-3Zm1.25,3.34v-2.23h1.7c.9,0,1.33.37,1.33,1.12s-.43,1.11-1.33,1.11h-1.7Zm11.97,3.55h1.34l-3.04-6.9h-1.19l-3.03,6.9h1.3l.55-1.3h3.53l.55,1.3Zm-2.31-5.48l1.3,3.09h-2.62l1.3-3.09h.02Zm7.69,5.48v-2.52h1.54l1.54,2.52h1.47l-1.73-2.64c.96-.2,1.62-1.09,1.53-2.07,0-1.44-.86-2.19-2.53-2.19h-3.05v6.9h1.25Zm0-3.64v-2.15h1.77c.89,0,1.32.36,1.32,1.08s-.43,1.07-1.32,1.07h-1.77Zm10.41,3.64v-5.78h2.16v-1.11h-5.58v1.11h2.17v5.78h1.25Zm11.13,0v-6.9h-1.2v5.15h-.02l-3.19-5.15h-1.72v6.9h1.21v-5.54h.02l3.4,5.54h1.51Zm4.76-4.01v-1.78h3.85v-1.11h-5.1v6.9h5.1v-1.11h-3.85v-1.82h3.1v-1.08h-3.11Zm8.31,4.01v-2.52h1.54l1.54,2.52h1.47l-1.73-2.64c.96-.2,1.62-1.09,1.53-2.07,0-1.44-.86-2.19-2.53-2.19h-3.05v6.9h1.25Zm0-3.64v-2.15h1.77c.89,0,1.32.36,1.32,1.08s-.43,1.07-1.32,1.07h-1.77Zm12.19-2.81c-.66-.39-1.42-.58-2.19-.55-1.66,0-2.69.81-2.69,2.14,0,1.2.64,1.79,2.44,1.98,1.23.14,1.6.38,1.6.91,0,.61-.54.96-1.5.96-.91.03-1.8-.28-2.49-.87h-.06v1.33c.77.48,1.68.71,2.59.65,1.7,0,2.7-.78,2.7-2.1s-.68-1.9-2.51-2.09c-1.16-.11-1.53-.36-1.53-.85,0-.58.56-.96,1.43-.96.79-.05,1.56.23,2.15.76h.06v-1.32h0Z"></path><path class="cls-1" d="m18.9.59h5.08v.36h-2.34v17.83h-.69L9.52,2.4h-.05v16.01h2.34v.36H0v-.36h2.37V.95H0v-.36h12.72l8.46,12.16h.05V.95h-2.34v-.36Zm-9.83.36h-2.96v17.47h2.96V.95Zm26.93,8.39c-.54-.43-1.14-.77-1.78-1.03-.67-.27-1.35-.52-2.05-.74-.7-.23-1.39-.44-2.05-.65-.62-.19-1.21-.44-1.78-.74-.48-.26-.91-.61-1.26-1.03-.33-.43-.51-.96-.49-1.51,0-.41.11-.81.3-1.17.2-.4.49-.75.83-1.04.39-.33.84-.59,1.33-.76.59-.2,1.21-.3,1.83-.29.73-.03,1.45.12,2.1.44.54.28,1.01.68,1.37,1.16.37.49.67,1.04.89,1.61.23.59.45,1.19.66,1.8h.34V.43h-.41c-.06.16-.14.3-.25.43-.14.1-.31.14-.48.12-.24,0-.47-.06-.69-.16-.25-.1-.54-.21-.87-.33s-.71-.22-1.14-.33C31.92.05,31.41,0,30.91,0c-.85,0-1.7.15-2.49.46-.73.28-1.4.69-1.99,1.21-.54.48-.98,1.06-1.3,1.71-.31.63-.47,1.31-.47,2.01-.03.81.13,1.61.45,2.34.29.61.7,1.14,1.21,1.58.51.43,1.09.79,1.71,1.04.64.27,1.3.51,1.97.7l1.97.59c.59.17,1.17.41,1.71.7.47.25.89.61,1.21,1.04.32.47.48,1.03.46,1.59-.01.41-.08.82-.21,1.21-.15.48-.39.93-.71,1.32-.38.45-.85.81-1.39,1.06-.71.31-1.48.46-2.25.43-.26,0-.54,0-.84-.01-.33-.01-.65-.06-.96-.16-.37-.11-.73-.26-1.06-.46-.42-.25-.81-.56-1.15-.91-.35-.34-.66-.72-.92-1.14-.24-.38-.45-.78-.62-1.2-.15-.36-.28-.72-.38-1.1-.09-.34-.15-.61-.18-.82h-.39v5.8h.41c.05-.18.15-.35.29-.48.16-.09.34-.14.52-.12.27.02.54.07.79.16.35.1.76.21,1.22.33.46.11.95.22,1.48.33.52.11,1.06.16,1.59.16.99.01,1.98-.16,2.92-.51.83-.31,1.59-.78,2.25-1.37.62-.56,1.12-1.25,1.47-2.01.35-.76.52-1.59.52-2.43.03-.76-.14-1.52-.48-2.2-.31-.59-.74-1.1-1.25-1.52Zm2.02-8.39h2.37v17.47h-2.37v.36h8.48v-.36h-2.37V.95h2.37v-.36h-8.48v.36Zm26.9,11.12h-7.8v.36h2.6v.99c0,.8-.03,1.54-.1,2.22-.05.61-.21,1.2-.47,1.75-.23.48-.59.89-1.05,1.17-.56.31-1.2.46-1.84.43-.83.02-1.66-.13-2.44-.44-.69-.29-1.27-.79-1.67-1.42-.48-.8-.8-1.69-.95-2.61-.22-1.32-.32-2.65-.3-3.99v-2.27c0-.96.06-1.93.18-2.88.1-.88.35-1.74.74-2.53.37-.73.94-1.35,1.63-1.8.85-.5,1.82-.74,2.8-.69,1.32-.08,2.6.44,3.51,1.4.97,1.14,1.65,2.51,1.97,3.98h.38V.42h-.43c-.05.16-.15.31-.27.43-.15.09-.33.13-.5.12-.28,0-.55-.06-.81-.16-.32-.1-.68-.21-1.09-.33-.41-.11-.85-.22-1.32-.33C57.21.05,56.72,0,56.23,0c-1.13.01-2.25.25-3.29.69-1.13.46-2.16,1.13-3.04,1.97-.93.88-1.69,1.92-2.23,3.08-1.13,2.47-1.16,5.31-.09,7.8.5,1.13,1.21,2.16,2.08,3.04.87.86,1.89,1.55,3.02,2.04,1.12.49,2.33.74,3.56.74.67.02,1.33-.06,1.98-.24.5-.15.98-.32,1.45-.53l1.17-.54c.36-.16.75-.25,1.15-.25.19,0,.38.05.54.15.16.1.27.27.29.46h.45v-5.98h1.64v-.36ZM100,.59h-24.36v.36h2.4v8.38h-7.53V.95h2.4v-.36h-8.58v.36h2.4v17.47h-2.4v.36h8.58v-.36h-2.4v-8.74h7.53v8.74h-2.4v.36h8.58v-.36h-2.4V.95h2.13v4.35h.33c.21-.75.49-1.47.85-2.16.26-.5.62-.95,1.05-1.32.39-.32.85-.54,1.33-.67.55-.14,1.12-.2,1.69-.19h.92v17.46h-2.34v.36h8.42v-.36h-2.35V.96h.92c.57,0,1.14.05,1.69.19.49.12.94.35,1.33.67.43.37.79.82,1.05,1.32.36.69.64,1.41.84,2.16h.33V.59h0Z"></path></g></svg> 