<?xml version="1.0" encoding="UTF-8"?> <svg xmlns="http://www.w3.org/2000/svg" id="Layer_1" width="100" height="15.03" viewBox="0 0 100 15.03"><defs><style>.cls-1{fill:#fff;stroke-width:0px;}</style></defs><path class="cls-1" d="m45.08,9.81c.45-.21.86-.48,1.24-.8v-4.63h-4.25V.32c-.22,0-.43-.02-.66-.02h-7.04v14.42h4.82v-4.13h1.03l2.72,4.12h3.38s0-3.1,0-3.1l-1.24-1.79Zm-1.94-4.06c0,.88-.7,1.4-1.85,1.4h-2.08v-2.81h2.1c1.11,0,1.84.45,1.84,1.38v.03ZM11.21.29h5.02v14.42h-4.8v-7.15l-3.32,5.13h-.08l-3.31-5.13v7.15H0V.29h5.04l3.1,5.07L11.21.29Zm11.71-.1l-6.08,14.52h5.15l.74-1.94h5.04l.78,1.94h5.23L27.7.19h-4.78Zm1.03,9.17l1.32-3.49,1.32,3.49h-2.64Z"></path><polygon class="cls-1" points="46.72 14.7 46.72 12.9 47.97 14.7 46.72 14.7"></polygon><path class="cls-1" d="m99.11,1.38h-.18v-.78s.17,0,.29,0,.18.01.26.06c.09.06.1.18.04.27-.03.04-.07.07-.12.08h0c.07.02.11.08.14.18,0,.06.02.13.05.19h-.19c-.03-.06-.05-.12-.06-.19,0-.08-.06-.11-.16-.11h-.08v.31Zm0-.43h.08c.1,0,.18-.03.18-.11s-.05-.12-.16-.12h-.1v.23Z"></path><path class="cls-1" d="m99.23.36c.35,0,.63.28.63.63s-.28.63-.63.63-.63-.28-.63-.63.28-.63.63-.63m0-.15c-.43,0-.77.35-.77.77s.35.77.77.77.77-.35.77-.77-.35-.77-.77-.77h0Z"></path><polygon class="cls-1" points="60.94 9.2 67.99 9.2 67.99 5.7 60.94 5.7 60.94 4.25 68.5 4.25 68.5 .29 56.2 .29 56.2 14.72 68.62 14.72 68.62 10.76 60.94 10.76 60.94 9.2"></polygon><path class="cls-1" d="m76.35,10.7c-1.59,0-2.7-1.32-2.7-3.19v-.03c0-1.73,1.07-3.15,2.7-3.15,1.32,0,2.08.72,2.62,1.75l3.98-2.33c-1.22-2.2-3.36-3.75-6.53-3.75-4.31,0-7.66,3.21-7.66,7.52v.04c-.07,4.06,3.17,7.4,7.22,7.47.08,0,.17,0,.25,0,3.59,0,5.6-1.75,6.82-3.88l-3.97-2.25c-.6,1.06-1.36,1.8-2.72,1.8Z"></path><polygon class="cls-1" points="92.85 .29 92.85 5.38 88.44 5.38 88.44 .29 83.62 .29 83.62 14.72 88.44 14.72 88.44 9.55 92.85 9.55 92.85 14.72 97.67 14.72 97.67 .29 92.85 .29"></polygon><path class="cls-1" d="m42.47.29s0,0,0,0h0v.06c1.95.15,3.27.74,4.14,1.6.9.9,1.38,2.14,1.32,3.42v.04c.04,1.38-.55,2.71-1.6,3.61h0s0,0,0,0v2.58l2.11,3.09h2.72V4.37h4.23V.29h-12.91Z"></path><path class="cls-1" d="m46.72,3.98h-4.25V.75c1.71.14,3.01.64,3.86,1.49.82.82,1.26,1.96,1.2,3.12v.06c.03.96-.26,1.87-.82,2.62V3.98Z"></path></svg> 