<?xml version="1.0" encoding="UTF-8"?> <svg xmlns="http://www.w3.org/2000/svg" id="Layer_1" width="100" height="38.71" viewBox="0 0 100 38.71"><defs><style>.cls-1{fill:#980000;}.cls-1,.cls-2{stroke-width:0px;}.cls-2{fill:#fff;}</style></defs><rect class="cls-1" width="100" height="38.71"></rect><path class="cls-2" d="m15.71,11.76c-1.46,0-2.51,1.49-2.88,2.8,0,0,.47-.52,1.49-.47h3.05v8.86c0,.92.72,1.71,1.44,1.71h9.53v-12.9h-3.03v11.91h-.74c-.2,0-.25-.07-.25-.25v-11.66h-3.1v11.91h-.84c-.12,0-.17-.1-.17-.3v-11.61h-4.49Z"></path><polygon class="cls-2" points="29.11 11.76 32.95 11.76 32.95 8.76 36.03 7.84 36.03 11.76 37.02 11.76 37.02 8.76 40.1 7.84 40.1 11.76 40.87 11.76 40.87 12.7 40.1 12.7 40.1 24.67 37.02 24.67 37.02 12.7 36.03 12.7 36.03 24.67 32.95 24.67 32.95 12.7 32.23 12.7 32.23 24.67 29.11 24.67 29.11 11.76"></polygon><polygon class="cls-2" points="29.11 11.04 32.23 11.04 32.23 7.84 29.11 8.76 29.11 11.04"></polygon><path class="cls-2" d="m48.66,24.67h3.1v-11.84c0-.15-.02-.15.1-.15h.47c.12,0,.17.07.17.3v11.66h3.1s-.02-10.92-.02-11.61-.57-1.29-1.17-1.29h-5.76v12.93h0Z"></path><path class="cls-2" d="m74.32,24.67v-11.96h.77c.2,0,.25,0,.25.25v4.02l3.1-.82v-2.56c0-1.04-1.22-1.84-1.84-1.84h-5.14v12.9s2.85,0,2.85,0Z"></path><path class="cls-2" d="m82.83,23.42h-.47c-.17,0-.25-.07-.25-.27v-10.2c0-.17.1-.27.25-.27h.47v10.74Zm3.33.84c-.15-.35-.25-.47-.25-1.12v-11.39h-5.14c-1.12,0-1.79.92-1.79,2.16v8.61c0,1.86,2.01,2.13,2.38,2.13h1.19c.2,0,.17-.02.35.1.15.12.65.72.82.92.17.2.25.42.02.42h-6.43c-1.27,0-1.69-1.17-1.69-1.17-.57-1.46.67-1.66,1.07-1.86.37-.2,1.84-.92,1.86-2.41s-1.14-1.51-1.71-1.59-1.36.25-1.59.92c-.2.67-.07,1.17.42,1.44,1.04.57.6,1.24-.07,2.06-2.36,2.78,2.51,5.46,3.4,5.43h6.13l2.06-2.7s-.89-1.61-1.04-1.96"></path><path class="cls-2" d="m44.17,12.78c0-.45.72-.47.72,0v3h-.72v-3Zm3.85,3.72v-3.13c0-.79-1.02-1.86-2.31-1.86h-2.26c-1.69,0-2.36,1.32-2.36,1.86v9.63c0,.94,1.34,1.66,2.13,1.66h2.38c.57,0,2.38-.4,2.38-1.66v-5.51h-3.13v5.96c0,.37-.72.35-.72,0v-6.95h3.87Z"></path><path class="cls-2" d="m66.95,12.78c0-.45.72-.47.72,0v3h-.72v-3Zm3.87,3.72v-3.13c0-.79-1.02-1.86-2.31-1.86h-2.26c-1.69,0-2.36,1.32-2.36,1.86v9.63c0,.94,1.34,1.66,2.13,1.66h2.38c.57,0,2.38-.4,2.38-1.66v-5.51h-3.13v5.96c0,.37-.72.35-.72,0v-6.95h3.87Z"></path><path class="cls-2" d="m60.05,23.03c0,.2-.05.45-.25.45h-.69v-10.74h.6c.2,0,.35.15.35.35v9.95h0Zm.6-11.27h-1.54v-3.92l-2.85.92v15.88h4.79c.72,0,2.03-.12,2.03-2.08v-8.46c.02-1.36-.25-2.33-2.43-2.33"></path><path class="cls-2" d="m40.05,28.78c0,1.12-.62,1.61-1.59,1.61-.35,0-.87-.1-1.22-.52-.2-.27-.3-.6-.3-1.04v-2.83h.82v2.78c0,.6.3.84.69.84.55,0,.77-.3.77-.82v-2.8h.82v2.78h0Z"></path><polygon class="cls-2" points="43.77 26 44.54 26 44.54 30.27 43.72 30.27 42.16 27.22 42.16 27.22 42.16 30.27 41.39 30.27 41.39 26 42.23 26 43.77 28.98 43.77 28.98 43.77 26"></polygon><rect class="cls-2" x="45.83" y="26" width=".79" height="4.27"></rect><polygon class="cls-2" points="50.2 26 51.04 26 49.73 30.27 48.96 30.27 47.67 26 48.54 26 49.35 29.26 49.35 29.26 50.2 26"></polygon><polygon class="cls-2" points="54.96 26.75 52.93 26.75 52.93 27.67 54.79 27.67 54.79 28.41 52.93 28.41 52.93 29.53 55.06 29.53 55.06 30.27 52.13 30.27 52.13 26 54.96 26 54.96 26.75"></polygon><path class="cls-2" d="m56.3,30.27h.79v-1.66h.82c.6,0,.62.22.62.82,0,.45.02.67.07.87h.89v-.12c-.17-.07-.17-.22-.17-.84,0-.79-.17-.92-.5-1.09.37-.15.6-.55.6-1.02,0-.37-.2-1.22-1.22-1.22h-1.94v4.27h.02Zm.77-2.38v-1.14h.99c.47,0,.57.35.57.57,0,.42-.2.6-.62.6h-.94v-.02Z"></path><path class="cls-2" d="m61.32,28.96c0,.25.12.69.82.69.37,0,.82-.1.82-.55,0-.32-.3-.42-.69-.52l-.42-.1c-.62-.15-1.22-.32-1.22-1.27,0-.47.22-1.32,1.49-1.32,1.17,0,1.49.84,1.49,1.36h-.77c-.02-.2-.07-.65-.79-.65-.3,0-.67.12-.67.52,0,.32.25.4.4.45l.94.25c.52.15.99.37.99,1.14,0,1.29-1.17,1.39-1.51,1.39-1.41,0-1.64-.89-1.64-1.41,0,0,.77,0,.77,0Z"></path><rect class="cls-2" x="64.86" y="26" width=".79" height="4.27"></rect><polygon class="cls-2" points="68.64 30.27 67.82 30.27 67.82 26.75 66.67 26.75 66.67 26 69.8 26 69.8 26.75 68.64 26.75 68.64 30.27"></polygon><polygon class="cls-2" points="72.66 30.27 71.86 30.27 71.86 28.66 70.52 26 71.46 26 72.26 27.87 73.03 26 73.95 26 72.66 28.68 72.66 30.27"></polygon></svg> 