<?xml version="1.0" encoding="UTF-8"?> <svg xmlns="http://www.w3.org/2000/svg" id="Layer_1" width="600" height="400" viewBox="0 0 600 400"><defs><style>.cls-1{fill:#3a017d;}.cls-1,.cls-2{stroke-width:0px;}.cls-2{fill:#7f21fe;}</style></defs><path class="cls-2" d="m435.68,264.08c-.38-.14-.75-.34-1.14-.42-6.08-1.21-10.44-5.66-11.58-11.62-.65-3.37-.56-6.67.69-9.86,2.16-5.48,6.22-8.75,11.99-9.83,2.72-.51,5.43-.38,8.09.43,4.3,1.31,7.36,4.03,9.18,8.11,1.21,2.7,1.6,5.57,1.53,8.51-.01.47-.12.93-.19,1.48h-20.72c-.18,1.11.33,1.91.91,2.63.83,1.04,1.97,1.6,3.26,1.82,2.45.42,4.52-.27,6.18-2.35,3.1,1.19,6.2,2.38,9.4,3.6-.41.87-.93,1.55-1.49,2.2-2.25,2.61-5.11,4.15-8.45,4.85-.66.14-1.31.29-1.97.44h-5.69Zm7.84-19.56c.05-2.24-1.99-4.02-4.63-4.08-3.07-.07-5.28,1.59-5.34,4.08h9.97Z"></path><path class="cls-2" d="m409.38,263.69c-6.27-1.41-10.35-5.16-11.85-11.43-1.28-5.39-.33-10.42,3.25-14.76,2.08-2.52,4.84-4.08,7.98-4.86,3.69-.92,7.35-.78,10.93.63.27.11.52.25.81.39v9.93c-.29-.12-.51-.2-.73-.31-2.28-1.17-4.62-1.63-7.15-.89-2.31.67-4.36,2.8-4.33,5.74.02,2.76,1.7,4.95,4.39,5.68,2.18.59,4.33.4,6.37-.62.45-.22,1.44-.74,1.44-.74v9.95s-3.77,2.88-11.1,1.31Z"></path><path class="cls-2" d="m322.52,263.17h-11.13s.02-11.31-.02-16.37c0-.82-.17-1.67-.42-2.45-.42-1.29-1.39-2.02-2.74-2.16-1.51-.15-2.82.23-3.66,1.62-.6.99-.83,2.08-.83,3.23,0,4.99,0,16.12,0,16.12h-10.98l-.09-30.22,11.02-.1v3.15c.1.06.19.13.29.19.15-.24.27-.51.45-.73,1.68-2.14,3.94-3.15,6.6-3.34,1.83-.13,3.64.03,5.35.76,2.87,1.24,4.6,3.48,5.51,6.4.43,1.39.66,2.83.66,4.29,0,6.27,0,19.6,0,19.6Z"></path><path class="cls-2" d="m335.88,263.54c-4.86-1.55-7.92-4.9-9.43-9.66-1.56-4.92-1.26-9.78,1.19-14.37,2.14-4.02,5.5-6.59,10.04-7.28,3.28-.5,6.47-.02,9.2,2.13.56.44,1.06.97,1.69,1.55v-2.87l10.75-.19.12,30.31h-10.85v-3.07c-1.68,2.01-6.13,5.21-12.71,3.46Zm12.96-15.45c.14-3.41-2.86-6.13-6.16-6.14-3.01,0-6.29,2.16-6.28,6.17.01,3.66,2.89,6.08,6.24,6.08,3.62,0,6.35-2.95,6.2-6.11Z"></path><path class="cls-2" d="m394.06,263.17h-11.14s.02-11.29-.02-16.33c0-.85-.17-1.75-.46-2.55-.48-1.3-1.48-2.01-2.9-2.12-1.57-.12-2.78.44-3.59,1.79-.54.9-.7,1.9-.7,2.93,0,3.46,0,16.25,0,16.25h-11.09v-30.14l11.05-.16v3.3c.24-.21.36-.29.45-.4,1.81-2.4,4.25-3.55,7.23-3.66,1.77-.06,3.49.12,5.12.85,2.87,1.28,4.53,3.57,5.41,6.49.46,1.54.65,3.13.65,4.74,0,6.02,0,19,0,19Z"></path><polygon class="cls-2" points="276.91 232.9 287.81 232.9 287.87 263.17 276.91 263.17 276.91 232.9"></polygon><path class="cls-2" d="m288.64,224c.08,3.14-2.52,6.07-6.21,6.13-3.15.05-6.24-2.54-6.22-6.14.02-3.88,3.34-6.13,6.23-6.13,3.48,0,6.38,3.11,6.2,6.14Z"></path><path class="cls-2" d="m273.04,232.84v8.94h-7.38v21.41c-3.73.07-7.38.02-11.11.04v-21.38h-3.83c-.23-.83-.29-7.35-.1-8.97h3.82c.09-1.09.16-2.1.26-3.1.23-2.27.88-4.4,2.15-6.33,1.58-2.39,3.78-3.89,6.49-4.68,2.85-.83,5.73-.9,8.61-.2.52.13,1.02.34,1.52.5v9.09c-.78-.17-1.51-.32-2.24-.5-.99-.26-1.97-.11-2.9.2-1.61.54-2.42,1.79-2.66,3.42-.07.46-.01.93-.01,1.55h7.38Z"></path><path class="cls-1" d="m425.76,201.7c-.11-6.74,5.47-12.72,12.7-12.69,6.92.03,12.29,5.35,12.27,12.26-.02,7.36-5.88,12.76-12.77,12.74-6.85-.02-12.33-5.55-12.21-12.31Z"></path><polygon class="cls-1" points="454.99 184.29 432.63 184.29 452.53 135.85 475.07 135.85 454.99 184.29"></polygon><path class="cls-1" d="m334.37,214.43c-6.05-.02-11.69-1.51-16.7-4.96-6.46-4.45-10.28-10.6-11.56-18.33-.98-5.95-.29-11.72,2.33-17.16,3.59-7.45,9.46-12.3,17.39-14.53,7.83-2.2,15.47-1.56,22.68,2.29,7.45,3.97,12.04,10.24,13.79,18.47,1.44,6.78.68,13.37-2.6,19.52-3.89,7.29-9.99,11.81-17.98,13.82-2.42.61-4.87.89-7.36.88Zm-.06-38.83c-5.83-.11-10.65,4.5-10.65,10.77,0,6.09,4.64,10.73,10.7,10.75,5.65.02,10.65-4.25,10.64-10.8,0-6.64-5.19-10.88-10.69-10.72Z"></path><path class="cls-1" d="m394.69,214.43c-6.21-.03-11.96-1.64-17.05-5.27-5.6-4-9.18-9.39-10.72-16.09-1.46-6.38-.98-12.62,1.74-18.59,3.62-7.93,9.78-12.95,18.14-15.18,7.06-1.88,14.04-1.4,20.69,1.71,8.19,3.84,13.29,10.28,15.23,19.1,1.45,6.58.76,13-2.29,19.04-3.98,7.89-10.46,12.62-19.02,14.58-2.21.51-4.46.74-6.73.69Zm.1-38.82c-5.63-.14-10.68,4.19-10.69,10.73,0,6.57,5.03,10.82,10.65,10.79,6.05-.03,10.72-4.67,10.7-10.76-.02-6.43-4.95-10.88-10.66-10.76Z"></path><path class="cls-1" d="m269.36,135.85s-.04,18.7-.04,27.56v1.11c1.13-1.01,2.09-2,3.18-2.84,2.61-2.02,5.61-3.03,8.88-3.31,3.16-.27,6.26.02,9.23,1.2,4.77,1.9,7.81,5.46,9.58,10.19,1.01,2.72,1.53,5.56,1.54,8.45.04,11.41-.02,34.81-.02,34.81h-18.84s0-19.57,0-28.76c0-1.46-.12-2.91-.59-4.31-.79-2.41-2.4-3.9-4.93-4.21-2.57-.31-4.76.42-6.31,2.63-1.24,1.77-1.62,3.81-1.64,5.91-.04,4.34-.01,8.68-.01,13.02,0,4.85,0,15.7,0,15.7h-18.85v-77.15s18.81,0,18.81,0Z"></path><path class="cls-1" d="m226,164.45v-4.87h18.13v53.42h-18.1v-4.78c-.25.17-.38.22-.46.31-2.49,2.98-5.74,4.68-9.49,5.43-9.88,1.97-19.66-2.27-25.3-10.92-2.72-4.17-4.2-8.77-4.64-13.72-.58-6.39.6-12.41,3.78-17.99,3.41-5.97,8.3-10.19,14.98-12.13,5.25-1.52,10.44-1.32,15.46.98,1.97.91,3.71,2.16,5.13,3.83.09.1.2.18.5.43Zm-21.7,21.91c-.1,5.91,4.59,10.95,11.04,10.98,5.75.03,11.02-4.24,11.02-11,0-6.79-5.44-11.02-11.04-10.98-6.2.04-11.12,4.89-11.02,11Z"></path><path class="cls-1" d="m124.93,159.48l20.5.04s8.13,20.77,12.18,31.13c.05,0,.08,0,.11,0,.03-.01.08-.03.09-.06,4.09-10.31,8.18-20.63,12.29-31h19.74s.05.05.07.08c.02.03.04.08.03.1-10.02,24.21-30.35,73.12-30.35,73.12h-20.02s5.47-12.93,8.21-19.41c-.8-1.89-1.61-3.8-2.41-5.71-6.63-15.65-20.42-48.29-20.42-48.29Z"></path></svg> 