<?xml version="1.0" encoding="UTF-8"?> <svg xmlns="http://www.w3.org/2000/svg" id="Layer_1" width="100" height="30.99" viewBox="0 0 100 30.99"><defs><style>.cls-1{stroke-width:0px;}</style></defs><path class="cls-1" d="m40.07,19.46s.06.02.08.04c0,0,0,0,0,0,0,0,0,0,0,0-.03-.01-.06-.03-.08-.04,0,0,0,0,0,0h0Z"></path><path class="cls-1" d="m20.32,7.78c0-.21-.02-.42-.06-.63,0-.03,0-.06,0-.08-.17-.75-.48-1.44-.92-2.06-.14-.19-.29-.37-.44-.55-.47-.52-1.03-.97-1.66-1.34-.92-.54-1.89-.97-2.89-1.28-.82-.26-1.66-.42-2.49-.5-.6-.05-1.12-.06-1.6-.02-.66.05-1.23.14-1.77.27-1.65.4-3.19,1.13-4.59,2.18-1.22.92-2.15,2.06-2.77,3.4-.46,1-.76,2.11-.95,3.5-.05.36-.08.72-.11,1.05-.02.26-.04.51-.05.79,0,.12-.01.24-.02.37h0s0,0,0,0c0,.11.02.23.02.34.02.27.04.55.06.83.02.34.07.68.13,1.01.06.33.14.65.23.95.48,1.57,1.17,3.01,2.07,4.27.63.89,1.4,1.68,2.27,2.35.25.19.52.38.79.55.55.34,1.13.63,1.74.87.31.12.62.23.94.32.95.28,1.81.44,2.63.5.24.02.48.02.71.02h0c.08,0,.16-.01.25-.02.23,0,.46-.02.68-.04.15-.01.29-.03.43-.06.21-.03.42-.07.63-.12.09-.02.17-.03.26-.05,1.18-.32,2.23-.83,3.12-1.51.89-.69,1.64-1.58,2.23-2.65.37-.67.61-1.38.83-2.06.07-.21.14-.47.16-.74.03-.42-.13-.75-.47-.99-.17-.12-.35-.16-.55-.11-.15.04-.29.11-.43.21-.19.14-.36.31-.53.51-.08.1-.16.2-.24.29-.11.14-.23.28-.34.42-.7.83-1.45,1.44-2.32,1.87-.82.41-1.69.62-2.58.64-.35,0-.7-.04-1.06-.1-.16-.03-.32-.05-.48-.1-.22-.06-.44-.13-.66-.22-.64-.25-1.26-.61-1.82-1.08-.49-.4-.96-.88-1.47-1.51-.96-1.18-1.6-2.53-1.91-4.02-.06-.29-.11-.58-.15-.87-.04-.29-.07-.57-.09-.86-.02-.27-.03-.55-.03-.84,0-.29,0-.6.02-.92.02-.32.05-.64.08-.95.01-.13.03-.27.04-.4.03-.39.1-.78.19-1.15.19-.76.48-1.41.9-1.99.39-.54.85-.98,1.38-1.29.18-.1.36-.2.55-.27.37-.15.77-.25,1.22-.31.78-.1,1.49.01,2.16.33.46.21.9.53,1.33.95.4.39.77.84,1.16,1.41.34.5.65.94.93,1.34.32.46.68.91,1.05,1.34.21.24.41.42.64.56.32.2.65.31.99.34.03,0,.06,0,.09,0,.21.01.42,0,.62-.03.05,0,.1-.02.16-.03.22-.05.43-.12.64-.2.03-.01.06-.01.09-.03.44-.2.75-.54.91-1.02,0-.03,0-.05.02-.08.06-.19.1-.39.11-.58,0-.05,0-.1,0-.15Z"></path><path class="cls-1" d="m68.75,23.68s0-.03,0-.04c-.06-.24-.17-.47-.27-.66-.04-.08-.09-.16-.13-.25-.11-.2-.22-.41-.33-.62-.15-.29-.23-.58-.25-.87-.02-.2-.03-.4-.05-.59-.01-.14-.03-.29-.04-.44-.02-.23-.04-.46-.05-.73v-.12c-.03-.34-.06-.7-.08-1.04-.01-.18-.02-.36-.03-.54,0-.17-.02-.34-.03-.51-.01-.19-.03-.42-.05-.64-.04-.38-.07-.76-.11-1.13-.02-.18-.04-.36-.05-.54-.07-.67-.17-1.27-.33-1.82-.19-.69-.39-1.2-.65-1.66-.2-.35-.42-.66-.66-.94-.07-.08-.14-.18-.21-.25-.17-.18-.36-.34-.56-.49-.2-.15-.41-.28-.62-.39-.9-.47-1.84-.74-2.79-.79-.32-.02-.64-.01-.96.01-.71.06-1.41.26-2.09.58-.46.22-.91.5-1.38.86-.04.03-.09.07-.14.1-.02.02-.04.03-.06.05,0,0,0-.02,0-.03,0-.02-.01-.03-.01-.04,0-.13-.01-.26-.02-.39-.02-.33-.03-.65-.03-.98,0-.13,0-.26,0-.4,0-2.27,0-4.6,0-6.92,0-.22-.02-.45-.03-.66-.01-.17-.05-.33-.12-.47-.1-.22-.27-.33-.49-.33,0,0,0,0,0,0-.13,0-.25.01-.36.04-.13.03-.28.07-.44.14-.42.16-.85.36-1.3.62-.11.06-.22.12-.33.19-.27.15-.54.31-.82.46-.01,0-.02.01-.03.02-.27.14-.54.28-.82.41-.17.08-.33.18-.46.3-.08.07-.14.15-.19.23-.14.24-.13.5.02.77.07.13.16.25.3.4.03.04.07.07.1.11.05.05.09.09.14.14.33.35.55.76.66,1.21.09.38.14.76.13,1.13,0,.29,0,.57,0,.86,0,.73-.01,1.49-.02,2.23,0,1.34-.01,2.76,0,4.2h0c0,.93,0,1.88.01,2.79,0,.49,0,.98,0,1.48,0,.26,0,.52,0,.78,0,.41,0,.83,0,1.24,0,.06,0,.12,0,.17,0,.35-.03.7-.06,1.05,0,.06,0,.12-.02.19-.08.68-.31,1.24-.71,1.73-.04.05-.09.11-.14.16-.03.04-.07.08-.1.12l-.03.04c-.06.07-.12.14-.17.21-.07.1-.12.21-.14.34-.03.17.02.32.13.45.1.12.24.19.39.23.15.03.28.05.41.05.42.01.84.02,1.25.03h.1c.26,0,.53,0,.79,0h0c.52,0,1.04-.01,1.56-.02.17,0,.35,0,.52,0,.26,0,.53-.01.8-.02.12,0,.26-.02.41-.05.19-.04.32-.16.38-.37.06-.21,0-.41-.06-.54-.17-.41-.35-.72-.57-.99-.11-.13-.21-.28-.31-.42l-.02-.02c-.14-.2-.21-.43-.21-.69,0-.02,0-.04,0-.06,0-.03,0-.05,0-.08,0-.37,0-.76,0-1.12,0-1.02,0-2.08.04-3.12,0-.19.01-.39.02-.58.01-.44.03-.89.05-1.34.01-.25.03-.53.05-.85.02-.22.04-.44.05-.65.02-.26.04-.52.06-.79.02-.26.07-.53.15-.79.19-.63.58-1.08,1.16-1.34.57-.25,1.17-.31,1.79-.17.51.11.94.39,1.3.84.31.38.52.83.64,1.33.08.37.14.75.2,1.1.04.26.08.55.12.83.02.15.04.29.06.44.04.29.08.59.12.88.02.16.04.32.05.48.03.28.06.57.08.85.01.17.03.33.04.51.03.45.06.9.08,1.34,0,.19.02.39.03.58,0,.04,0,.08,0,.12,0,.09.01.18.01.27,0,.07,0,.13,0,.2,0,.23,0,.46,0,.69-.03.44-.16.87-.28,1.22-.11.31-.24.62-.39.95-.1.22-.16.4-.2.58-.07.33.06.56.39.66.13.04.27.07.41.07.14,0,.29,0,.43.01.24,0,.49.02.74.02.44,0,.85,0,1.23,0,.39,0,.75,0,1.11,0,.37,0,.74-.01,1.1-.02.13,0,.26,0,.39-.01.18,0,.36-.04.51-.11.27-.12.38-.32.34-.61,0-.02-.01-.05-.02-.07ZM51.62,3.49c-.08-.09-.15-.18-.2-.26.06.09.13.18.2.26Zm14.72,8.1c.1.19.19.38.28.6-.08-.2-.17-.4-.28-.6Zm.39.91c.04.11.08.23.11.36-.04-.12-.07-.24-.11-.36Zm-9.85,7.04c0-.43.01-.85.02-1.28,0,.43-.02.86-.02,1.28Z"></path><path class="cls-1" d="m81.9,24.58c.1.02.2.01.3.02.2.02.39.04.59.04.01,0,.03,0,.04,0,.42,0,.84-.05,1.23-.1.19-.02.34-.05.47-.08.24-.06.4-.2.47-.4.03-.07.04-.14.05-.23.01-.17-.01-.34-.07-.5-.05-.15-.14-.27-.24-.39-.08-.1-.17-.21-.25-.31-.06-.08-.13-.16-.2-.24-.18-.23-.3-.46-.35-.71-.16-.82-.25-1.61-.33-2.29-.05-.43-.1-.85-.15-1.34-.05-.42-.1-.85-.15-1.26l-.02-.15c-.02-.14-.03-.29-.05-.43-.04-.34-.08-.7-.13-1.04-.08-.55-.22-1.1-.42-1.62-.31-.82-.74-1.56-1.27-2.21-.53-.64-1.18-1.2-1.93-1.67-.3-.19-.61-.35-.93-.5-.64-.29-1.32-.49-2.03-.61-.36-.06-.72-.1-1.09-.11-.56-.02-1.14.02-1.78.14-.43.08-.87.2-1.29.36-.43.16-.85.35-1.26.58-.28.15-.53.34-.77.55-.24.21-.46.45-.66.72-.37.49-.52,1.04-.44,1.62.03.21.08.4.16.57,0,.01.01.02.02.03,0,0,0,.01.01.02.08.17.18.32.31.45.02.02.04.03.06.05.24.23.54.4.91.49.23.05.45.06.66.01.22-.04.43-.13.63-.26.31-.21.58-.5.78-.86.16-.29.3-.6.44-.88.16-.35.33-.71.54-1.03.26-.4.6-.7,1.02-.89.2-.09.41-.15.62-.18.21-.02.42-.01.63.03.26.05.48.16.68.3s.35.34.48.58c.02.05.05.1.07.15.03.07.06.14.09.21.02.06.05.12.07.18.23.61.38,1.23.5,1.81.12.56.23,1.14.3,1.71.03.19.04.39.05.58,0,.06,0,.11.01.17,0,.03,0,.05-.01.08,0,.01,0,.03,0,.04-.01,0-.02,0-.03-.01-.02,0-.04-.02-.06-.02-.93-.4-1.83-.63-2.76-.71-.26-.02-.52-.03-.78-.03-.26,0-.52.02-.78.05-.59.07-1.17.21-1.74.42-.96.35-1.74.91-2.34,1.68-.52.67-.82,1.42-.89,2.23-.06.69,0,1.36.19,1.98.27.88.77,1.6,1.48,2.13.33.25.71.46,1.11.64,1.05.44,2.04.68,3.04.72.1,0,.21,0,.31,0,.06,0,.13-.01.19-.02.22,0,.45-.02.67-.05.07,0,.13,0,.2-.02.86-.14,1.68-.45,2.43-.92.16-.1.32-.21.49-.32.07-.05.15-.1.23-.16,0,0,0,0,0,0,0,0,.01,0,.01,0l.04.03s.1.07.15.11c.25.19.51.36.77.5.27.14.54.26.83.35,0,0,.02,0,.03,0,.27.09.54.15.83.2Zm-5.99-1.3c-.4-.13-.76-.37-1.09-.73-.43-.46-.72-1.02-.86-1.66-.06-.25-.08-.5-.1-.77-.04-.45-.02-.9,0-1.44.02-.38.12-.73.29-1.05.34-.62.86-1.01,1.57-1.14.11-.02.23-.03.34-.04.05,0,.11-.01.16-.02.4,0,.77.1,1.08.27.32.17.59.42.82.75.05.07.11.17.16.27.31.63.51,1.18.63,1.72.08.34.11.71.11,1.09,0,.23-.05.48-.14.76-.21.6-.54,1.11-.98,1.52-.33.31-.69.49-1.1.56-.12.02-.25.02-.37.01,0,0,.01,0,.02,0-.14,0-.28-.03-.41-.07.05.01.1.02.14.02-.08-.02-.16-.03-.25-.06Zm-1.15-.79c-.17-.2-.32-.41-.45-.63.12.23.27.44.45.63Zm-.52-.76c-.12-.24-.21-.49-.27-.75.07.27.16.52.27.75Z"></path><path class="cls-1" d="m37.26,23.35c-.06-.07-.12-.13-.18-.19-.03-.03-.06-.06-.09-.09-.05-.06-.11-.11-.16-.17-.13-.14-.27-.29-.4-.43-.18-.2-.29-.43-.35-.69-.11-.53-.2-1.09-.25-1.65,0-.07-.01-.14-.02-.21-.03-.25-.05-.52-.09-.77-.06-.43-.13-.87-.2-1.29v-.02c-.09-.52-.18-1.05-.26-1.57-.07-.39-.13-.78-.2-1.17-.15-.91-.4-1.78-.74-2.59-.33-.78-.79-1.46-1.36-2.02-.64-.62-1.39-1.09-2.24-1.4-.29-.1-.59-.19-.9-.26-.31-.07-.63-.12-.95-.16-.52-.06-.94-.08-1.33-.06-.75.02-1.5.11-2.23.26-.47.1-.88.24-1.26.41-.13.06-.26.1-.38.17-.31.17-.61.35-.9.57-.29.21-.58.44-.87.7-.22.2-.38.44-.47.73-.19.59-.15,1.15.13,1.67.31.58.83.91,1.55.96.02,0,.04,0,.07,0,.13,0,.25-.01.37-.04.04-.01.09-.02.13-.03.13-.05.26-.11.39-.19.02-.01.04-.02.07-.03.33-.22.59-.52.81-.92.15-.29.3-.59.43-.88h0c.16-.34.32-.67.51-.98.26-.41.6-.7,1.02-.89.39-.17.8-.22,1.21-.14.56.11.96.42,1.21.92.14.29.27.6.38.91.03.09.06.18.09.26.17.48.32.96.45,1.45.08.28.15.56.22.83.07.29.15.58.22.87.05.19.09.38.14.57,0,.02,0,.03,0,.06,0,0,0,.02,0,.03-.02,0-.04-.01-.05-.02-.04-.01-.07-.02-.11-.03-.11-.04-.21-.07-.32-.11-.26-.08-.53-.17-.79-.26-.85-.29-1.73-.43-2.61-.41-.42,0-.8.02-1.19.07-.76.09-1.47.31-2.11.65-.88.47-1.57,1.1-2.05,1.89-.3.49-.49,1.03-.56,1.61-.06.48-.05.96.03,1.49.09.56.27,1.07.54,1.53.27.45.63.86,1.08,1.21.53.41,1.16.73,1.92.96.65.2,1.34.33,2.04.39.18.01.36.02.54.02h0c.13,0,.27-.01.4-.02.03,0,.07,0,.1,0,.32-.02.63-.06.95-.13.69-.15,1.34-.41,1.96-.79.21-.13.41-.27.61-.42.04-.03.07-.05.11-.08.02-.01.04-.02.06-.04l.07.05s.08.06.12.09c1.04.81,2.25,1.23,3.57,1.24.43,0,.84-.05,1.23-.15.18-.05.38-.11.61-.19.15-.05.27-.13.37-.23.16-.17.2-.37.1-.57-.04-.09-.09-.16-.15-.23Zm-9.45-6.86c.15-.03.3-.04.45-.04.18,0,.36.02.55.06.41.09.77.31,1.13.69.43.44.73.99.92,1.61.1.36.22.78.27,1.23,0,.06,0,.11.01.17,0,.03,0,.06,0,.08-.06.78-.22,1.38-.52,1.9-.23.4-.5.68-.83.87-.77.44-1.53.43-2.27-.02-.53-.33-.93-.8-1.23-1.44-.17-.39-.28-.82-.32-1.33-.04-.5-.04-1.03,0-1.62.04-.56.23-1.04.57-1.44.32-.38.74-.61,1.27-.72Zm-1.22.67c.13-.15.28-.27.44-.37-.16.1-.31.22-.44.37Zm.56-.44c.18-.1.38-.17.59-.21-.21.05-.41.12-.59.21Zm-1.19-1.64c.24-.02.48-.03.73-.04-.24,0-.49.02-.73.04Zm10.67,9.4s-.03,0-.04.01c.01,0,.03,0,.04-.01Z"></path><path class="cls-1" d="m99.85,8.55c-.07-.04-.15-.08-.25-.1-.02,0-.06,0-.08,0-.17-.04-.34-.05-.52-.06-.03,0-.05,0-.08,0-.37,0-.75.02-1.12.04h-.14c-.21.02-.43.03-.64.04-.22.01-.46.03-.68.04-.1,0-.21,0-.31,0-.04,0-.08,0-.12,0-.23,0-.45.05-.69.16-.13.06-.24.15-.32.26-.04.06-.07.12-.08.18s0,.13.02.19c.04.12.12.23.22.32.14.12.26.23.39.32.03.02.05.04.08.07.12.09.23.19.32.3.02.02.04.04.06.07.28.34.41.74.39,1.19,0,.16-.03.33-.07.49-.04.16-.09.33-.16.49-.04.1-.08.19-.12.29-.09.2-.17.41-.26.62-.48,1.08-.96,2.19-1.43,3.25l-.25.56c-.48,1.08-.96,2.16-1.32,2.98-.02.05-.04.09-.07.14-.01.02-.02.05-.04.07-.01-.03-.03-.05-.04-.07-.03-.05-.05-.1-.07-.14-.1-.22-.2-.45-.29-.66l-.08-.18c-.13-.3-.27-.61-.4-.91-.31-.7-.63-1.42-.94-2.13-.1-.23-.19-.45-.29-.67-.48-1.1-.94-2.2-1.4-3.3-.08-.18-.15-.37-.23-.55-.27-.65-.24-1.3.08-1.97.06-.13.13-.27.18-.42.05-.13.07-.26.06-.38-.01-.19-.1-.33-.26-.41-.07-.04-.15-.07-.26-.1-.22-.06-.44-.07-.64-.08-1.59-.03-3.17-.03-4.7,0-.17,0-.32.01-.46.03-.13.01-.25.04-.36.09-.11.04-.22.1-.32.18-.15.11-.22.25-.2.42,0,.09.02.18.04.27.05.21.15.41.29.62.06.08.11.16.17.25.21.31.43.63.66.94.42.58.79,1.19,1.11,1.82.33.65.66,1.32.98,1.96.45.9.92,1.82,1.37,2.73.9,1.83,1.82,3.69,2.7,5.49l.35.71s.03.08.05.12c.08.17.15.35.21.53.01.03.02.07.03.1.03.12.04.23.03.34-.01.11-.04.22-.1.32-.18.36-.37.74-.57,1.12-.2.38-.42.76-.65,1.14-.27.45-.58.89-.91,1.32-.16.21-.32.36-.5.46-.33.2-.66.19-.98-.03-.11-.08-.22-.17-.31-.3-.15-.2-.28-.42-.4-.72-.06-.15-.12-.31-.18-.45-.02-.06-.05-.12-.08-.19-.03-.06-.05-.12-.08-.19-.13-.31-.28-.61-.44-.88-.12-.19-.25-.35-.39-.48-.19-.16-.38-.27-.58-.36.02,0,.05.02.07.04-.05-.02-.1-.04-.14-.06.01,0,.03,0,.05.01-.33-.13-.67-.17-1.03-.09-.58.13-1.03.47-1.34,1-.17.28-.24.6-.2.93.02.2.07.41.14.6.21.54.5,1,.86,1.38.37.39.82.69,1.35.91.35.15.72.25,1.14.33.32.06.63.09.93.1,0,0,.02,0,.03,0,.08,0,.17.01.25.01h0c.23,0,.46-.01.69-.04.65-.08,1.27-.3,1.85-.64.55-.33,1.05-.77,1.52-1.35.21-.25.4-.53.59-.82.19-.3.37-.62.55-.97.52-1.05,1.04-2.11,1.54-3.15.49-1.04.97-2.05,1.4-2.99.65-1.39,1.31-2.79,1.95-4.15v-.02c.2-.42.42-.83.63-1.24.08-.16.16-.32.24-.48.27-.51.54-1.02.8-1.52.16-.31.33-.63.5-.94.06-.11.11-.21.17-.32.4-.76.82-1.56,1.21-2.35.1-.21.2-.44.31-.69.06-.14.1-.28.14-.41.04-.14,0-.26-.13-.34Zm-3.66,2.3c-.06-.16-.14-.3-.25-.44.11.14.19.29.25.44Zm.11.63c0-.18-.02-.35-.07-.52.05.17.07.34.07.52Zm-4.23,13.67c-.15.31-.3.62-.45.93.15-.31.3-.62.45-.93Zm-4.72-16.68c-1.12-.01-2.24-.01-3.36,0,1.1-.01,2.22-.01,3.36,0Zm-2.63,18.12c-.09-.13-.18-.25-.3-.36.05.05.11.1.16.16.05.06.1.13.14.2Zm-.64-.63s.04.03.07.05c-.03-.02-.05-.04-.08-.06,0,0,0,0,.01,0Zm-.73-.26c.06,0,.11.01.17.03-.06-.01-.11-.02-.17-.03Z"></path><path class="cls-1" d="m83.77,25.8s.02,0,.03.01c-.01,0-.02,0-.03-.01Z"></path><path class="cls-1" d="m51.49,19.59c-.09-.75-.38-1.43-.84-2.03-.35-.45-.81-.83-1.37-1.13-.33-.18-.65-.32-.96-.43-.81-.28-1.62-.6-2.4-.9-.27-.1-.54-.21-.81-.31-.28-.11-.55-.22-.81-.34-.26-.12-.52-.26-.76-.39-.35-.2-.63-.46-.84-.79-.17-.27-.27-.57-.28-.88-.02-.34.07-.66.27-.98.3-.48.7-.86,1.17-1.13.16-.09.32-.17.5-.23.14-.05.27-.08.4-.1.26-.03.52.02.76.13.12.06.24.14.36.23.15.12.28.26.41.41.12.15.24.32.34.51.08.16.17.32.24.48.05.09.09.19.14.28l.07.14c.12.23.24.46.36.69.1.19.24.38.39.56.25.29.52.49.82.62.27.12.52.16.76.14.62-.06,1.13-.37,1.52-.92.01-.02.01-.04.02-.05.08-.13.14-.26.17-.4,0-.04.02-.07.02-.11.02-.15.02-.3,0-.46,0-.02,0-.04,0-.06-.04-.23-.13-.46-.27-.71-.12-.23-.29-.45-.49-.69-.09-.11-.18-.18-.27-.27-.05-.05-.1-.1-.15-.15-.09-.08-.18-.16-.26-.23-.14-.11-.25-.18-.36-.23-.04-.02-.08-.06-.12-.08-.27-.13-.52-.25-.76-.36-.24-.11-.47-.2-.69-.28-.24-.09-.48-.17-.73-.23-.09-.03-.19-.04-.29-.06-.16-.04-.31-.08-.47-.1-.11-.02-.22-.03-.33-.04-.15-.02-.3-.04-.46-.06-.12,0-.24,0-.36-.01-.14,0-.29-.02-.43-.02-.01,0-.03,0-.04,0h0c-.06,0-.12,0-.18,0-.06,0-.12,0-.18,0-.27.01-.54.03-.82.05-.31.02-.65.05-.98.09-.65.08-1.28.27-1.88.56-.4.19-.76.4-1.08.64-.32.24-.6.51-.85.81-.45.55-.72,1.12-.83,1.76-.07.39-.09.81-.09,1.33,0,.28.04.56.1.84.17.74.54,1.36,1.11,1.83.28.23.58.43.93.63.46.25.95.47,1.46.65.66.23,1.3.44,1.91.64.1.03.19.06.28.1.47.16.93.32,1.39.5.08.03.17.06.24.09.11.05.23.1.36.17.13.07.25.15.37.26.17.15.32.32.44.49.24.35.38.73.41,1.15.02.21,0,.43-.03.66-.03.16-.07.3-.12.44-.17.41-.47.72-.9.94-.3.15-.61.25-.96.29-.14.02-.28.02-.41.01-.27-.02-.53-.08-.77-.19-.12-.06-.24-.12-.36-.2-.11-.08-.23-.17-.34-.27-.68-.64-1.13-1.25-1.44-1.91-.13-.28-.26-.51-.4-.72h0c-.08-.12-.17-.24-.27-.34-.13-.13-.27-.24-.42-.33-.07-.04-.15-.07-.23-.1,0,0,0,0,0,0,0,0,0,0,0,0,.02,0,.04.02.06.03-.07-.03-.13-.06-.2-.09.02,0,.04,0,.05.02,0,0,0,0,0,0h0c-.11-.04-.21-.07-.33-.1,0,0,0,0,0,0h0s.02,0,.03,0c-.07-.02-.14-.02-.2-.03.03,0,.06,0,.09,0,.03,0,.06,0,.08.01,0,0,0,0,0,0h0s-.02,0-.03,0c-.02,0-.04,0-.05,0-.26-.04-.53-.06-.83,0-.57.1-1,.44-1.3,1-.15.3-.2.62-.13.96.07.35.22.69.45,1,.44.59.99,1.06,1.63,1.39.45.23.91.43,1.39.6.69.24,1.41.39,2.12.47.31.03.64.05.99.05h0c.25,0,.52,0,.8-.03.46-.03.94-.1,1.52-.22.79-.16,1.47-.36,2.07-.6.59-.23,1.1-.51,1.55-.84.56-.41,1.01-.96,1.28-1.6.27-.62.37-1.29.28-1.94Zm-1.06-8.76c.14.17.26.34.36.51-.11-.18-.23-.35-.36-.51Zm-3.99,4.48c.26.1.52.19.78.29-.26-.1-.52-.19-.78-.29Zm-6.61,1.78c-.27-.15-.51-.32-.73-.49.23.18.47.35.73.49Zm1.3,3.29c.1.15.19.31.28.5-.08-.17-.17-.34-.28-.5Zm7.31-4.32c.23.09.46.19.7.31-.23-.12-.46-.22-.7-.31Zm1.66-5.6s.06.06.09.09c-.08-.09-.16-.17-.25-.25,0,0,0,0,.01.01.05.05.1.1.15.15Zm-.41-.38s.04.04.07.06c-.15-.12-.31-.24-.49-.33.02.01.05.03.07.04.12.07.24.14.36.23Zm-.7-.4c-.34-.16-.69-.32-1.04-.46.16.06.32.13.5.2.17.08.36.17.54.25Zm-8.52,9.98c.06.04.11.09.17.14-.07-.05-.13-.11-.2-.16.01,0,.02.01.03.02Zm.27,4.56c-.38-.14-.76-.3-1.12-.48.36.18.73.34,1.12.48Zm-1.54-4.91s.07,0,.11,0c0,0,0,0,.01,0-.04,0-.08,0-.12,0Z"></path><path class="cls-1" d="m76.42,23.38c-.08,0-.17-.03-.25-.04.08.02.17.04.25.04Z"></path></svg> 