<?xml version="1.0" encoding="UTF-8"?> <svg xmlns="http://www.w3.org/2000/svg" id="Layer_1" width="100" height="14.9" viewBox="0 0 100 14.9"><defs><style>.cls-1{fill:#fff;stroke-width:0px;}</style></defs><path class="cls-1" d="m8.07,5.69h-1.99v3.37h2.03c.75-.08,1.34-.8,1.34-1.69s-.59-1.61-1.34-1.68h-.05Z"></path><path class="cls-1" d="m3.91,9.2V3.52h4.04c1.07,0,1.41.23,1.41.23l2.43-2.34c-1.22-.88-2.73-1.4-4.34-1.4C3.34,0,0,3.34,0,7.45c0,1.63.52,3.14,1.41,4.36l2.5-2.61Z"></path><path class="cls-1" d="m13.45,3.03l-2.34,2.33s.11.23.27.64.33,1.07.22,1.82-.31,1.64-1.06,2.4-1.47,1-2.37,1.02c-.9.02-2.93,0-2.93,0l-2.22,2.2c1.24.92,2.77,1.47,4.44,1.47,4.11,0,7.45-3.34,7.45-7.45,0-1.66-.55-3.19-1.46-4.43Z"></path><path class="cls-1" d="m19.71,5.5v5.21h-.82v-6.5h.89l2.2,4.51,2.2-4.51h.89v6.5h-.82v-5.21l-1.99,4.08h-.55l-2.01-4.08Z"></path><path class="cls-1" d="m27.4,10.71h-.85l2.47-6.5h.97l2.46,6.5h-.85l-.68-1.79h-2.83l-.69,1.79Zm.82-2.45h2.53l-1.27-3.34-1.26,3.34Z"></path><path class="cls-1" d="m38.67,7.43c-.23.31-.58.52-1.03.63.12.08.23.16.3.26.07.1.15.24.23.44l.85,1.96h-.85l-.83-1.89c-.09-.22-.21-.36-.34-.44-.13-.08-.34-.12-.64-.12h-1.37v2.45h-.82v-6.5h2.86c.68,0,1.19.18,1.51.53.33.35.5.85.5,1.49,0,.48-.12.89-.36,1.2Zm-.47-1.2c0-.91-.43-1.36-1.3-1.36h-1.91v2.75h1.79c.95,0,1.42-.47,1.42-1.39Z"></path><path class="cls-1" d="m45.65,10.71h-.89l-2.14-3.36-1.06,1.12v2.24h-.83v-6.5h.83v3.22l3.04-3.22h.97l-2.42,2.6,2.5,3.9Z"></path><path class="cls-1" d="m47.37,4.22h4.39v.66h-3.56v2.27h3.2v.64h-3.2v2.28h3.56v.64h-4.39v-6.5h0Z"></path><path class="cls-1" d="m56.06,10.71h-.83v-5.85h-2.16v-.65h5.15v.66h-2.16v5.84Z"></path><path class="cls-1" d="m59.74,4.22h.82v6.5h-.83v-6.5h0Z"></path><path class="cls-1" d="m63.31,10.71h-.83v-6.5h.75l3.7,5.23v-5.23h.83v6.5h-.75l-3.7-5.22v5.22Z"></path><path class="cls-1" d="m74.2,9.84v-2.07h-1.74v-.57h2.45v3.09c-.54.35-1.31.52-2.32.52s-1.8-.29-2.33-.85c-.53-.57-.79-1.36-.79-2.35,0-1.1.26-1.96.76-2.58.5-.61,1.29-.92,2.34-.92.69,0,1.32.1,1.89.3v.73c-.57-.22-1.18-.33-1.82-.33-.84,0-1.44.23-1.81.71s-.54,1.16-.54,2.08c0,.82.19,1.44.57,1.86.38.43.97.64,1.78.64.59,0,1.11-.09,1.56-.26Z"></path><path class="cls-1" d="m77.09,4.22h2.9c1.03,0,1.82.26,2.36.78s.8,1.36.8,2.51-.26,1.9-.8,2.43c-.54.52-1.32.78-2.36.78h-2.9v-6.51Zm2.66,5.05c.33,0,.61-.05.82-.15s.36-.27.48-.53.16-.61.16-1.09-.05-.85-.15-1.12c-.1-.26-.26-.45-.47-.56-.21-.11-.49-.16-.85-.16h-.77v3.6h.77Z"></path><path class="cls-1" d="m84.36,4.22h1.89v6.5h-1.89v-6.5Z"></path><path class="cls-1" d="m87.27,4.22h1.98l1.51,4.3,1.51-4.3h1.99l-2.49,6.5h-2.01l-2.49-6.5Z"></path><path class="cls-1" d="m95.07,4.22h4.92v1.45h-3.03v1.06h2.66v1.48h-2.65v1.06h3.03v1.45h-4.92v-6.5h0Z"></path></svg> 