<?xml version="1.0" encoding="UTF-8"?> <svg xmlns="http://www.w3.org/2000/svg" id="Layer_1" width="600" height="400" viewBox="0 0 600 400"><defs><style>.cls-1{fill:#231f20;}.cls-1,.cls-2{stroke-width:0px;}.cls-2{fill:#006a55;}</style></defs><path class="cls-2" d="m120.12,130.74h-39.05c-5.18,0-9.38,4.2-9.38,9.38,0,0,0,0,0,0h0v67.84c0,2.08-1.68,3.76-3.76,3.76h-15.61c-2.07,0-3.75-1.66-3.76-3.73,0,0,0-.02,0-.03v-15.66c0-2.07,1.66-3.75,3.73-3.76h16.45v-17.34h-28.14c-5.18,0-9.38,4.2-9.38,9.38h0v39.04c0,5.18,4.2,9.38,9.38,9.38,0,0,0,0,0,0h38.92c5.23,0,9.47-4.23,9.5-9.46v-67.71c0-2.08,1.68-3.76,3.76-3.76h15.66c2.07,0,3.75,1.66,3.76,3.73h0v15.64c0,2.08-1.68,3.76-3.76,3.76h-16.51v17.34h28.17c5.18,0,9.38-4.2,9.38-9.38h0v-39.04c0-5.17-4.2-9.37-9.37-9.38"></path><path class="cls-1" d="m402.76,228.99h-8.34c0-6.59-.46-16.13-1.38-28.61-.92-12.48-1.39-19.97-1.43-22.45h-.4c-2.97,9.62-6.73,20.06-11.28,31.33-4.55,11.27-6.81,17.84-6.78,19.73h-6c0-2.08-2.12-8.78-6.35-20.12-4.23-11.34-6.91-18.93-8.03-22.78-1.12-3.84-1.9-6.56-2.32-8.16h-.48c-.09,4.06-.67,12.24-1.75,24.53-1.08,12.3-1.62,21.14-1.61,26.53h-7.63c0-.3,1-8.45,3.01-24.45,2.01-16,3.01-27.11,3.01-33.34h11.67c0,3.26,2.36,11.41,7.09,24.45,4.73,13.04,7.1,20.92,7.1,23.64h.44c0-2.75,2.66-10.66,7.98-23.71,5.32-13.05,7.98-21.16,7.98-24.33h11.39c0,6.24.68,17.3,2.05,33.18,1.36,15.88,2.04,24.06,2.03,24.55"></path><path class="cls-1" d="m444.45,228.95l-6.87.27c-.37-1.33-.58-2.7-.63-4.08h-.44c-4.01,3.35-9.1,5.11-14.33,4.97-5.15,0-8.87-1.24-11.16-3.71-2.29-2.47-3.45-7.44-3.49-14.92,0-1.07,0-2.65.09-4.75s.09-3.54.09-4.3c0-4.35-.25-9.47-.76-15.36l8.25-.31c-.34,5.7-.52,10.58-.53,14.63,0,9.32.6,15.39,1.8,18.21,1.2,2.82,3.9,4.23,8.1,4.23,4.19.17,8.32-1.08,11.71-3.55,0-16.43-.15-27.51-.45-33.22h7.95c-.23,5.56-.33,12.87-.33,22.76-.01,6.38.3,12.76.93,19.11"></path><path class="cls-1" d="m475.08,222.87l-.53,5.77c-2.11.81-4.35,1.25-6.62,1.29-5.31,0-8.95-1.35-10.91-4.05s-2.94-7.55-2.93-14.53v-18.34c-1.66,0-1.06.1-7.25.28l-.39-6.2c5.84,0,5.93.1,8.16.1,0-1.78.17-5.42.46-12.07l6.96-.71c-.5,6.22-.79,10.01-.79,12.7,2.9,0,7.16-.15,12.77-.45l-.31,6.62c-5.32-.18-9.61-.27-12.87-.27v15.73c0,6.08.64,10.11,1.93,12.09,1.29,1.97,3.67,2.96,7.16,2.95,1.75-.09,3.47-.39,5.15-.89"></path><path class="cls-1" d="m515.67,228.95l-6.87.27c-.37-1.33-.57-2.7-.62-4.08h-.44c-4.01,3.35-9.1,5.11-14.33,4.97-5.15,0-8.87-1.24-11.16-3.71-2.29-2.47-3.45-7.44-3.49-14.92,0-1.07,0-2.65.09-4.75s.09-3.54.09-4.3c0-4.35-.25-9.47-.76-15.36l8.25-.31c-.36,5.7-.54,10.58-.53,14.63,0,9.32.6,15.39,1.8,18.21,1.2,2.82,3.92,4.23,8.15,4.23,4.19.17,8.32-1.08,11.71-3.55,0-16.43-.15-27.51-.44-33.22l7.98-.31c-.22,5.55-.33,13.24-.33,23.06,0,6.38.33,12.76.98,19.11"></path><path class="cls-1" d="m547.12,220.39c-.15-4.5-.22-8.53-.22-12.11-4.26-.13-8.53.31-12.68,1.29-4.86,1.48-7.28,4.31-7.27,8.47,0,4.03,2.84,6.05,8.52,6.04,4.88,0,8.77-1.21,11.66-3.63m7.85,8.6l-6.96.27c-.35-1.35-.53-2.73-.54-4.12h-.44c-3.65,3.31-8.6,4.97-14.85,4.97-3.19.07-6.31-.99-8.79-3-2.51-2.1-3.88-5.27-3.68-8.53-.09-4.4,2.08-8.54,5.75-10.98,3.85-2.76,10.99-4.22,21.42-4.36.1-.81.15-1.63.14-2.45,0-3.63-.98-6.06-2.91-7.27-2.71-1.41-5.75-2.05-8.8-1.88-4.62,0-9.23.58-13.71,1.72l.76-6.13c4.99-1.34,10.14-1.98,15.3-1.9,5.26,0,9.33,1.09,12.2,3.26,2.87,2.18,4.3,5.87,4.3,11.11,0,1.41-.07,3.93-.21,7.57-.14,3.64-.21,6.08-.19,7.28-.05,4.82.35,9.63,1.2,14.38"></path><path class="cls-1" d="m568.7,228.99h-8.48c.52-9.76.79-20.79.8-33.09.11-9.79-.32-19.58-1.29-29.32l9.01-.44c-.53,8.05-.8,17.97-.8,29.76s.28,23.18.84,33.09"></path><path class="cls-1" d="m578.86,222.31c0-.64-.41-.95-1.29-.95-.27-.03-.53-.03-.8,0v2.06h.45c1.03,0,1.53-.36,1.53-1.08m1.81,4.45h-1.43c-.22-.73-.52-1.43-.9-2.09-.24-.28-.6-.43-.97-.4h-.53v2.57h-1.29c0-.98.06-2.07.06-3.29s0-2.18-.06-3h2.3c1.48,0,2.21.5,2.21,1.52.02.79-.52,1.49-1.29,1.69h0c.37.13.67.41.85.76.39.74.72,1.5.99,2.29m2.14-2.97c0-2.77-2.25-5-5.02-5s-5,2.25-5,5.02c0,2.77,2.25,5,5.02,5,1.32,0,2.59-.53,3.53-1.47.96-.93,1.5-2.22,1.47-3.55m.91,0c0,3.23-2.59,5.86-5.82,5.89-1.57.02-3.08-.6-4.18-1.72-1.13-1.08-1.76-2.59-1.74-4.16.15-3.27,2.92-5.79,6.19-5.64,3.05.14,5.5,2.59,5.64,5.64h0"></path><path class="cls-1" d="m184.93,188.8c0-6.32-4.2-9.48-12.6-9.5-2.23.02-4.46.24-6.65.67.33,5.59.49,11.91.49,18.98.75,0,1.61.09,2.57.09,10.8,0,16.2-3.43,16.19-10.3m11.44-2.43c0,7.07-2.63,12.29-7.88,15.66-5.25,3.37-11.69,5.06-19.31,5.06-.99.03-1.98,0-2.97-.09,0,5.56.16,12.89.49,22h-12.47c.39-8.58.58-18.65.58-30.21,0-10.64-.19-19.82-.58-27.54h7.72c1.09,0,3.19,0,6.29-.13s5.8-.13,8.07-.13c5.02-.15,9.98,1.19,14.24,3.86,3.88,2.57,5.81,6.44,5.8,11.58"></path><path class="cls-1" d="m226.42,203c0-6.81-2.9-10.22-8.69-10.21-5.52,0-8.8,3.52-9.85,10.57l18.53-.36Zm10.39.4c0,1.51-.09,3.48-.27,5.89l-28.56.49c.34,3.22,1.87,6.19,4.29,8.34,2.68,2.31,6.14,3.5,9.67,3.33,4.79-.05,9.55-.72,14.16-2.01l-.89,8.61c-4.91,1.61-10.05,2.36-15.21,2.21-7.64,0-13.48-2.15-17.54-6.44-4-4.14-6.2-9.69-6.1-15.45-.11-5.98,1.94-11.8,5.78-16.38,3.86-4.62,9.22-6.94,16.08-6.94,6.26,0,10.92,1.72,13.97,5.15,3.12,3.66,4.75,8.37,4.56,13.18"></path><path class="cls-1" d="m282.08,228.99h-11.8c.66-7.48.99-15.05.98-22.7,0-4.65-.68-7.72-2.06-9.45-1.6-1.75-3.93-2.67-6.29-2.48-3.5.04-6.88,1.26-9.59,3.46.15,11.53.22,21.93.22,31.19h-11.43c.54-9.25.76-12.87.76-18.16,0-7.07-.54-17.47-1.98-23.73l10.7-1.17.76,4.7h.71c3.85-3.41,8.82-5.27,13.97-5.23,3.92-.19,7.8.95,10.98,3.26,2.74,2.15,4.11,6.11,4.11,11.87,0,.86,0,2.01-.12,3.44s-.1,2.91-.1,4.41c0,3.99.07,10.88.22,20.67"></path><path class="cls-1" d="m327.32,228.99h-11.8c.65-7.48.98-15.05.98-22.7,0-4.65-.68-7.72-2.06-9.45-1.6-1.74-3.91-2.66-6.27-2.48-3.5.04-6.88,1.26-9.59,3.46.15,11.53.22,21.93.22,31.19h-11.44c.54-9.25.76-12.87.76-18.16,0-7.07-.54-17.47-1.98-23.73l10.7-1.17.76,4.7h.71c3.85-3.41,8.82-5.27,13.97-5.23,3.91-.18,7.77.97,10.94,3.26,2.74,2.15,4.11,6.11,4.11,11.87,0,.86,0,2.01-.12,3.44s-.1,2.91-.1,4.41c0,3.99.07,10.88.22,20.67"></path></svg> 