<?xml version="1.0" encoding="UTF-8"?> <svg xmlns="http://www.w3.org/2000/svg" id="Layer_1" width="600" height="400" viewBox="0 0 600 400"><defs><style>.cls-1{fill:#231f20;stroke-width:0px;}</style></defs><path class="cls-1" d="m145.03,228.49c-6.99,5.38-16.67,8.06-29.3,8.06h-27.42v-73.65h27.69c12.63,0,22.31,2.42,29.3,8.06,6.72,5.38,12.1,13.71,12.1,28.76s-5.38,23.39-12.37,28.76h0Zm-16.13-42.2c-2.15-2.15-5.91-3.76-11.29-3.76h-5.65v33.6h5.65c5.38,0,9.14-1.61,11.29-3.76s4.3-5.38,4.3-12.63c-.27-7.53-2.15-11.29-4.3-13.44h0Z"></path><path class="cls-1" d="m188.58,236.29h-23.92v-73.39h23.92v73.39Z"></path><path class="cls-1" d="m268.95,224.19c-5.91,5.38-14.52,13.44-33.87,13.44s-38.71-11.56-38.71-37.63,19.09-37.63,39.25-37.63,28.76,10.48,30.64,12.63l-15.86,13.44c-1.88-2.15-6.45-6.72-15.05-6.72s-15.32,6.45-15.32,18.01,6.72,18.01,15.32,18.01,10.21-2.42,10.21-2.42v-5.65h-11.29v-17.74h34.68v32.26h0Z"></path><path class="cls-1" d="m301.75,236.29h-23.92v-73.39h23.92v73.39Z"></path><path class="cls-1" d="m368.95,228.49c-6.99,5.38-16.67,8.06-29.3,8.06h-27.69v-73.65h27.69c12.63,0,22.31,2.42,29.3,8.06,6.72,5.38,12.37,13.71,12.37,28.76s-5.38,23.39-12.37,28.76h0Zm-16.13-42.2c-2.15-2.15-5.91-3.76-11.29-3.76h-5.65v33.6h5.65c5.38,0,8.87-1.61,11.29-3.76,2.15-2.15,4.3-5.38,4.3-12.63s-2.15-11.29-4.3-13.44h0Z"></path><path class="cls-1" d="m457.66,236.29h-26.07l-2.96-10.21h-20.97l-2.69,10.21h-25.27l25.54-73.39h26.61l25.81,73.39Zm-33.87-28.76l-5.65-19.62-5.38,19.62h11.03Z"></path><path class="cls-1" d="m519.75,162.9l-25.54,44.62v28.76h-23.92v-28.76l-25.54-44.62h26.61l10.75,24.73,11.02-24.73h26.62Z"></path></svg> 