<?xml version="1.0" encoding="UTF-8"?> <svg xmlns="http://www.w3.org/2000/svg" id="Layer_1" width="599.76" height="400.32" viewBox="0 0 599.76 400.32"><defs><style>.cls-1{fill:#fff;}</style></defs><path class="cls-1" d="m79.16,258.37c-20.87-1.41-39.51-14.05-48.59-33.06-5.83-12.19-7.22-26.04-3.97-39.3,1.49-6.1,4.23-12.37,7.77-17.76,7.22-11.07,18.13-19.43,30.73-23.56,12.81-4.18,26.9-3.78,39.46,1.16,3.53,1.39,7.59,3.5,10.73,5.57,14.18,9.36,23.59,24.37,25.77,41.07,1.9,14.69-1.74,29.51-10.19,41.37-2.04,2.86-3.69,4.78-6.48,7.57-3.74,3.72-7.03,6.32-11.16,8.8-10.21,6.1-22.07,8.92-34.06,8.13h0Zm5.36-8.56c.4-.12.88-.4,1.28-.76.76-.69,1.11-.83,2.04-.83,1.04,0,2.27-.23,2.81-.51.67-.33,1.35-1.16,1.51-1.84.21-.81.18-1.97-.04-1.97-.11,0-1.53.3-3.2.69l-3.04.7-.53-.25c-.3-.12-.56-.28-.61-.35s1.32-.58,3.5-1.3c1.99-.63,3.72-1.25,3.87-1.35.25-.16.67-.91.67-1.19,0-.05-.58.04-1.3.21-3.69.81-11.19,2.34-11.47,2.34-.33,0-2.34-.97-2.34-1.12,0-.04,3.25-.88,7.2-1.86,5.22-1.28,7.29-1.86,7.48-2.04.16-.14.32-.42.37-.61.09-.35.07-.37-.33-.3-.25.04-3.16.56-6.52,1.16-3.34.6-6.2,1.09-6.39,1.09-.33,0-2.07-.84-2.07-1.02,0-.05.35-.16.81-.25,1.53-.3,6.57-1.51,6.82-1.65.14-.07.33-.3.44-.49l.19-.35-1.53-.07c-.84-.05-1.97-.09-2.49-.09-1.23,0-3.29-.3-5.11-.76-.81-.21-1.46-.35-1.48-.33-.14.18-1.26,2.99-1.41,3.46-.16.56-.14.76.07,1.69.26,1.12.33,1.99.14,2.11s-.26,1.07-.12,1.65c.07.32.28.7.44.84.16.16.3.42.3.58,0,.47.51,1.7.9,2.14.58.67,1.16.86,2.72.97,1.65.12,1.97.21,2.67.86.3.26.67.58.84.67.79.35,1.95.42,2.92.14h0Zm-11.07-17.09c-2.3-1.18-3.5-2.55-4.43-5.15-.54-1.51-.65-2.04-2.25-11.21-.84-4.85-1.58-9.05-1.65-9.33-.26-1.19-2.2-12-2.78-15.55-1.86-11.33-1.93-13.79-.47-17.8,1.09-3.02,2.64-5.2,5.46-7.75,3.64-3.29,7.03-5.25,10.59-6.2,1.58-.4,1.9-.56,3.18-1.46l.93-.65h2.09l.95.65c1.23.84,1.79,1.12,2.79,1.39,4.3,1.07,8.13,3.41,12.1,7.36,3.97,3.94,5.78,8.84,5.29,14.3-.35,4.04-1.6,11.67-3.87,23.93-.53,2.79-1.46,8.08-2.09,11.75-1.65,9.59-1.72,9.93-2.69,11.84-.93,1.9-1.83,2.79-3.87,3.88-1.18.61-.76.58.83-.09,3.14-1.35,4.74-3.27,5.57-6.75.54-2.23,8.03-41.13,8.22-42.73.28-2.35.28-6.18-.02-7.5-.74-3.39-2.21-6.03-4.97-8.77-1.76-1.76-2.74-2.58-5.17-4.2-2.76-1.86-4.99-2.88-8.49-3.92-1.05-.32-1.95-.67-2.67-1.09-1.41-.81-2-1-3-1s-1.72.25-2.9.97c-.63.39-1.42.7-2.62,1.07-3.6,1.07-5.6,2-8.31,3.78-4.5,2.93-7.33,5.83-9.17,9.36-.44.86-1.07,2.78-1.32,4.01-.25,1.16-.21,5.5.05,7.48.11.88,2.02,10.86,4.22,22.19,4.44,22.89,4.36,22.5,5.69,24.26.9,1.18,2.78,2.49,4.59,3.14,1.21.4,1.26.32.16-.25h0Zm12.25-1.91c1.14-.18,2.18-.69,2.78-1.32.47-.53.84-1.3.74-1.63-.04-.11-.72-.16-2.83-.16-2.72,0-2.81-.02-3.79-.35-1.49-.53-2.44-1.07-3.39-1.99-1.72-1.6-2.02-3.04-1.09-4.99.88-1.86,2.41-3.85,3.46-4.52.32-.21,1.02-.42,1.97-.61,1.86-.37,2.78-.72,3.27-1.21.32-.35.37-.47.37-1.12-.02-.6-.07-.84-.35-1.26-.61-.93-1.25-.97-3.87-.21-.98.3-1.81.44-2.28.44h-.76l-.35-1.11c-.3-.93-.37-1.34-.37-2.32.02-1.05.05-1.28.33-1.84.9-1.72,2.79-2.58,5.43-2.44,2.23.12,4.11.83,5.41,2.04l.7.67-.23.72c-.26.86-.16,1.14.44,1.21,1.07.11,2.44-1.3,2.44-2.51,0-.46-.09-.61-.67-1.23-2.3-2.42-6.1-3.76-9.57-3.36-1.74.21-2.69.51-3.97,1.26-2.49,1.49-4.15,3.51-4.59,5.57-.21.93-.18,1.32.12,2.21.35,1.07.74,1.58,1.62,2.18.9.6,1.07.84,1.07,1.51-.02.69-.56,1.72-1.86,3.55-2.2,3.04-2.55,3.85-2.55,5.69,0,.93.07,1.37.3,1.93,1.19,3.09,7.75,5.9,12.07,5.2h0Zm7.47-.49c1.19-.69,2.14-2.2,2.78-4.37.4-1.44,1.05-5.06,1.72-9.64.84-5.76.51-5.48-.53.49-1.49,8.54-1.65,9.24-2.56,11.1-.39.81-.76,1.3-1.39,1.95-.47.47-.81.84-.76.84.04.02.37-.16.74-.37h0Zm-23.51-10.15c-.39-2.13-1.18-6.59-1.77-9.91-3.37-18.71-4.78-28.97-4.39-32.06.47-3.83,2.2-6.76,6.8-11.49,1.76-1.81,1.9-2.04.7-1.16-.7.53-3.14,2.92-4.01,3.95-2.39,2.86-3.78,5.71-4.11,8.5-.26,2.13.56,9.12,2.48,20.82,1.63,10.08,3.97,22.49,4.73,25.09.4,1.53.26.12-.42-3.74h0Z"></path><path class="cls-1" d="m370.27,207.9v-20.26h1.26v4.62l.02,4.6.3-.76c1.05-2.74,3.02-5.27,5.25-6.78,5.6-3.78,13.26-3,18.13,1.81,3.36,3.34,5.06,8.56,4.5,13.79-.74,6.92-4.88,12.05-11.1,13.76-.88.23-1.35.26-3.5.28-2.21,0-2.6-.04-3.6-.3-3.3-.86-6.11-2.81-7.94-5.46-.86-1.26-1.05-1.62-1.62-3l-.42-1.02-.02,9.5v9.49h-1.26v-20.27h0Zm16.5,9.84c6.03-.76,10.38-5.18,11.54-11.74.28-1.55.26-4.46-.02-5.97-.79-4.23-2.86-7.61-5.96-9.7-.98-.67-2.86-1.51-4.02-1.79-1.41-.33-3.71-.46-5.09-.26-4.32.63-8.03,3.37-10.1,7.48-.53,1.04-1.23,3.2-1.44,4.46-.26,1.53-.21,4.52.12,6.08.67,3.18,2.14,5.87,4.32,7.92,2.93,2.79,6.66,4.02,10.65,3.51h0Z"></path><path class="cls-1" d="m204.81,198.15c-1.07-5.31-3.87-9.19-8.13-11.33-4.29-2.14-9.93-2.09-14.28.12-4.37,2.23-7.34,6.29-8.47,11.54-.37,1.72-.39,5.39-.07,7.12.84,4.23,2.92,7.68,6.04,10.03,2,1.53,4.8,2.74,7.31,3.18,1.55.26,5.99.16,7.45-.16,1.23-.3,2.71-.81,3.57-1.25,1.26-.61,3.34-2.14,4.46-3.23l1.16-1.14-.67-.6c-.39-.33-1.37-1.21-2.21-1.95l-1.53-1.35-.33.26c-1.49,1.23-2.04,1.62-2.95,2.16-3.3,1.91-7.96,1.9-10.93-.04-2.07-1.35-3.53-3.58-4.01-6.11l-.11-.61h24.07l.05-.98c.07-1.53-.14-4.22-.42-5.66Zm-23.77,1.69l.09-.6c.14-.98.81-2.83,1.35-3.76.69-1.16,1.93-2.44,2.92-3.04,2.32-1.37,5.31-1.44,7.82-.21.84.4,1.23.7,2,1.51,1.35,1.46,2.16,3.2,2.56,5.64l.07.47h-16.81v-.02Z"></path><path class="cls-1" d="m235.17,173.55v17.3l-.97-1.04c-1.76-1.9-4.25-3.51-6.25-4.08-1.3-.35-3.41-.58-4.76-.47-5.64.44-9.98,3.32-12.44,8.27-1.35,2.71-1.72,4.32-1.81,7.87-.07,3.02.12,4.74.79,6.76,1.95,5.85,6.17,9.63,11.89,10.65.74.12,1.65.16,2.92.12,3-.07,4.92-.7,7.06-2.32.98-.76,2.58-2.32,3.27-3.2l.33-.44v5.39h7.48v-44.83h-7.52Zm-.69,34.1c-1.28,2.58-3.41,4.32-6.11,5.02-1.35.33-3.79.33-5.15-.02-2.78-.7-5.11-2.74-6.2-5.36-.7-1.69-.81-2.27-.86-4.73-.05-1.95-.02-2.46.21-3.55.72-3.53,3.04-6.2,6.34-7.29.88-.3,1.18-.33,3-.33,1.79-.02,2.14.02,2.99.28,3.36,1.05,5.66,3.5,6.62,7.08.25.88.28,1.35.28,3.37-.02,2.74-.19,3.62-1.12,5.52Z"></path><path class="cls-1" d="m328.21,198.92c-1.39-6.9-6.73-12.1-13.81-13.39-1.83-.35-5.24-.3-6.99.07-2.39.51-4.5,1.39-6.43,2.69-4.88,3.29-7.68,8.89-7.38,14.77.4,8.03,6.06,14.32,14.18,15.76,1.46.25,5.83.16,7.24-.18,6.8-1.6,11.75-6.62,13.16-13.35.33-1.48.33-4.83.04-6.38Zm-6.87,4.09c-.21,3.81-1.72,6.62-4.59,8.5-1.95,1.26-4.76,1.79-7.5,1.41-2.13-.3-3.83-1.18-5.41-2.78-2.34-2.34-3.3-5.09-3.13-8.84.21-4.23,2.14-7.33,5.62-8.96,3.04-1.44,7.15-1.26,10.01.42,1.16.69,2.79,2.32,3.5,3.51,1.12,1.88,1.63,4.15,1.49,6.73Z"></path><path class="cls-1" d="m410.85,218.82c-3.95-.81-6.68-2.99-7.77-6.17-.32-.97-.35-1.26-.37-2.79-.02-1.83.21-2.86.88-4.2,1.3-2.58,4.2-4.52,7.85-5.27,4.09-.83,10.01-.35,14.42,1.14l.9.3v-2.13c0-2.44-.19-3.81-.76-5.34-1-2.76-3.29-4.69-6.57-5.57-1.14-.3-1.48-.35-3.74-.35-2.14-.02-2.65.02-3.79.28-1.53.33-3,.84-4.76,1.62-.69.3-1.26.54-1.26.53-.18-.35-.46-1.02-.46-1.04,0-.09,2.69-1.23,3.92-1.65,2.21-.77,3.81-1.02,6.43-1.02,2.58.02,3.92.23,5.74.93,3.09,1.19,5.34,3.83,6.13,7.12.46,1.95.53,3.6.47,13.53l-.04,9.52h-1.26l.05-3.5c.02-1.91.02-3.46-.04-3.41-.04.04-.25.4-.47.83-1.67,3.14-4.64,5.34-8.63,6.39-.9.25-1.49.3-3.55.33-1.77.07-2.69.04-3.34-.09h0Zm4.69-1.09c4.76-.54,8.68-3.14,10.42-6.9.7-1.53.83-2.23.83-5.11v-2.55l-.72-.26c-5.55-2-12.47-2.25-16.65-.58-2.44.98-4.3,2.72-4.99,4.71-.58,1.65-.58,3.79.02,5.45,1.28,3.74,5.8,5.85,11.1,5.25h0Z"></path><path class="cls-1" d="m530.05,211.9c-1.35,1.91-3.62,3.81-5.82,4.83-1.65.77-2.99,1.05-5.02,1.04-3.83-.02-6.75-1.26-9.33-3.99-2.35-2.48-3.74-5.83-4.04-9.73l-.05-.67h26.41l-.07-1.49c-.12-2.78-.84-5.52-1.99-7.77-1.48-2.86-3.53-4.9-6.17-6.13-1.16-.56-2.35-.86-3.95-1.02-4.95-.51-9.8,1.76-12.6,5.89-1.26,1.88-2.21,4.23-2.64,6.57-.3,1.67-.3,5.32-.02,6.99.58,3.13,2.04,6.08,4.06,8.22,2.02,2.13,4.48,3.48,7.4,4.09,1.58.33,4.41.33,5.97.02,3.14-.65,6.29-2.69,8.31-5.38l.76-1.02-1.04-.76-.18.3Zm-23.89-14.49c1.49-5.09,5.22-8.63,9.98-9.45,1.26-.21,3.55-.25,4.74-.07,3.71.6,6.78,3.02,8.73,6.92.93,1.86,1.58,4.5,1.6,6.54l.02,1.21-12.84.04c-8.29.02-12.88-.02-12.93-.11-.19-.3.25-3.55.7-5.08Z"></path><path class="cls-1" d="m274.52,218.63c-2.44-.44-4.97-1.3-6.85-2.32-1.55-.84-3.44-2.13-3.34-2.3.18-.3,3.13-4.71,3.21-4.81.05-.05.58.21,1.16.61,3.18,2.14,7.03,3.37,10.05,3.2,1.6-.07,2.55-.35,3.34-.97.74-.56,1.18-1.3,1.26-2.13.25-2-1.18-3.14-5.6-4.48-3.97-1.19-5.71-1.81-6.82-2.37-2.46-1.26-3.94-2.81-4.69-4.94-.39-1.07-.47-3.44-.19-4.88.58-2.86,2.39-5.11,5.22-6.48,3.62-1.76,8.26-1.83,13.14-.18,1.42.47,4.16,1.79,4.74,2.25l.35.28-1.26,2.21c-.69,1.21-1.35,2.41-1.46,2.62l-.21.39-1.56-.79c-3.04-1.55-5.36-2.21-7.68-2.21-.93,0-1.53.07-2.11.25-1.9.58-2.95,2.35-2.34,3.85.25.58,1.28,1.49,2.28,1.97.47.23,2.46.95,4.43,1.62,4.02,1.35,6.13,2.32,7.52,3.41,2.2,1.76,3.09,3.62,3.11,6.38.02,4.99-2.81,8.34-8.17,9.7-1.49.42-5.66.49-7.54.14h0Z"></path><path class="cls-1" d="m461.36,218.75c-2.21-.37-4.02-1.72-4.92-3.67-.81-1.76-.76-1.07-.84-14.23l-.07-12-2.32-.04-2.32-.02v-1.14h4.69v-10.68h1.26v10.66h10.93v1.14h-10.93l.05,11.84c.02,10.49.07,11.91.25,12.51.79,2.56,2.14,3.92,4.37,4.34.47.11,1.35.14,2.16.11,1.3-.05,2.28-.3,3.76-.93.19-.07.21-.02.21.6v.7l-.98.33c-1.63.58-3.62.74-5.31.47h0Z"></path><path class="cls-1" d="m561.83,218.7c-2.25-.37-4.53-1.18-6.48-2.32-1.02-.58-2.86-1.9-2.86-2.04,0-.07.32-.53.7-1.04.02-.02.25.12.49.35,2,1.76,5.29,3.27,8.22,3.78,1.6.28,4.44.19,5.87-.19,3.65-.97,5.9-3.43,5.9-6.48,0-3.21-1.97-5.09-6.99-6.68-7.75-2.46-9.07-2.99-10.61-4.22-1.53-1.23-2.2-2.49-2.32-4.36-.09-1.42.11-2.37.72-3.64.84-1.69,2.32-3,4.32-3.79,2.86-1.16,6.48-1.25,9.94-.25,1.69.47,4.01,1.6,5.15,2.46l.3.23-.3.53c-.16.28-.33.53-.39.53s-.44-.21-.84-.49c-5.32-3.53-12.32-3.67-15.79-.3-2.27,2.2-2.53,5.29-.6,7.36,1.32,1.41,3.02,2.28,6.45,3.36,4.57,1.41,5.78,1.81,6.73,2.21,3.11,1.34,4.88,3.07,5.34,5.29.09.39.12,1.28.09,2.13-.07,1.7-.28,2.34-1.21,3.74-1.07,1.62-3.2,2.95-5.69,3.6-1.53.4-4.37.51-6.13.23h0Z"></path><path class="cls-1" d="m250.91,202.19v-16.2h7.48v32.38h-7.48v-16.18Z"></path><path class="cls-1" d="m333.83,202.19v-16.2h7.48l.02,2.42.04,2.42.42-.58c.97-1.35,3.14-3.23,4.53-3.92,3-1.49,7.68-1.42,10.93.16,3.13,1.53,5.11,4.5,5.71,8.59.16,1.05.19,3.18.19,12.3v11.02h-7.48l-.04-10.24c-.05-10.21-.05-10.26-.33-11.19-.4-1.35-.84-2.13-1.63-2.95-1.28-1.35-2.85-1.95-5.06-1.93-2.34.02-3.88.67-5.36,2.25-.79.84-1.3,1.76-1.65,2.95-.21.67-.23,1.69-.26,10.93l-.04,10.19h-7.47v-16.22Z"></path><path class="cls-1" d="m436.18,203.01v-15.37h1.26l.02,4.8v4.78l.3-.83c.39-1.12,1.37-3.04,2-3.99,2.14-3.18,5.29-5.11,8.84-5.48l.91-.09v1.3h-.58c-.95,0-2.48.37-3.48.84-1.32.61-2.32,1.35-3.57,2.67-1.7,1.77-2.78,3.58-3.6,6.03-.84,2.49-.84,2.76-.84,12.21v8.49h-1.26v-15.35h0Z"></path><path class="cls-1" d="m473.13,203.01v-15.37h1.26v4.09l.02,4.09.3-.77c1.44-3.72,4.41-6.57,8.01-7.66,2.04-.61,5.06-.61,7.31,0,4.5,1.25,7.5,4.99,8.31,10.4.16.97.19,3.09.19,10.89v9.68h-1.26v-9.42c0-10.19-.04-10.82-.7-13.16-.54-1.9-1.32-3.23-2.72-4.62-1.04-1.05-1.37-1.3-2.41-1.81-1.53-.76-2.86-1.09-4.64-1.18-3.21-.16-5.85.83-8.22,3.11-1.72,1.67-2.88,3.6-3.57,5.99-.54,1.9-.6,2.85-.6,12.23v8.85h-1.26v-15.35h-.02Z"></path><path class="cls-1" d="m538.61,218.3c-.05-.04-.09-6.96-.09-15.37v-15.28h1.26v4.8c0,2.64.05,4.74.11,4.66.07-.07.25-.47.4-.93.16-.46.58-1.39.93-2.09,2.13-4.18,5.66-6.75,9.79-7.12l.98-.09v1.26l-1.04.07c-1.95.14-3.55.81-5.36,2.25-3.11,2.48-5.27,6.71-5.66,11.1-.07.77-.12,4.88-.12,9.14v7.71h-.54c-.33-.02-.61-.07-.67-.11h0Z"></path><path class="cls-1" d="m250.66,177.43v-3.5h7.99v6.99h-7.99v-3.5Z"></path></svg> 