<?xml version="1.0" encoding="UTF-8"?> <svg xmlns="http://www.w3.org/2000/svg" id="Layer_1" width="600" height="400" viewBox="0 0 600 400"><defs><style>.cls-1{fill:#05ddff;}.cls-1,.cls-2,.cls-3,.cls-4{stroke-width:0px;}.cls-2{fill:#fff;}.cls-3{fill:#ff4102;}.cls-4{fill:#01043d;}</style></defs><path class="cls-4" d="m299.18,146.18c16.91-10.04,39.91-17.97,61.98-17.05,44.93,1.98,62.51,31.72,52.99,64.09-13.88,47.04-76.51,54.84-94.75,52.2,7.66-6.74,13.61-14.27,17.44-22.2,13.61-28.68-4.36-55.77-37.66-77.04"></path><path class="cls-1" d="m227.56,115.12c27.22,6.87,51.93,18.37,71.76,31.05-21.41,12.55-37.53,31.58-40.44,49.56-4.36,28.02,23.92,44.4,60.66,49.69-40.04,31.98-114.57,58.81-178.93,22.6-79.69-44.67-44.4-186.06,86.95-152.89"></path><path class="cls-3" d="m299.31,146.18c-21.41,12.55-37.53,31.58-40.44,49.56-4.36,28.02,23.92,44.4,60.66,49.69,7.66-6.74,13.61-14.27,17.44-22.2,13.61-28.68-4.36-55.77-37.66-77.04Z"></path><path class="cls-2" d="m319.4,214.89c-1.19.26-2.64.26-3.44.26-5.29,0-8.33-2.91-8.33-8.19,0-4.63,2.78-7.4,7.14-7.4,1.85,0,3.3.26,4.63.93v14.4h0Zm0-35.55v12.29c-1.32-.53-3.44-.79-5.55-.79-9.91,0-16.25,6.74-16.25,16.39,0,10.57,7.14,16.25,17.97,16.25,4.49,0,9.78-.53,13.61-1.59v-42.55h-9.78Zm-33.57,36.87c-.93.13-2.38.26-3.17.26-2.51,0-4.1-1.06-4.1-3.17s1.59-3.17,4.63-3.17h2.64v6.08h0Zm-3.57-25.37c-4.1,0-7.93.93-10.84,2.64v8.33c2.38-1.45,5.29-2.51,8.99-2.51,2.91,0,5.29.93,5.29,3.7v1.19h-3.3c-8.59,0-13.74,3.04-13.74,9.65,0,7.53,6.21,9.78,14.01,9.78,4.49,0,9.78-.66,12.82-1.45v-19.69c0-8.72-5.68-11.63-13.21-11.63"></path><path class="cls-3" d="m496.61,257.58c-3.17,0-6.61.66-8.99,1.98v20.48h7v-15.59c.79-.13,1.59-.26,2.38-.26,1.59,0,3.17.26,4.63.79v-6.74c-1.85-.53-3.04-.66-5.02-.66m-24.58,9.65c.4-2.38,1.72-4.1,3.96-4.1,2.51,0,3.44,1.98,3.44,4.1h-7.4Zm4.1-9.78c-6.34,0-10.84,4.36-10.84,11.89,0,6.74,4.36,11.1,11.89,11.1,3.04,0,6.08-.53,8.06-1.98v-5.68c-2.11,1.06-4.36,1.72-7.27,1.72-2.51,0-5.29-.93-5.95-3.3v-.13h13.88v-3.04c0-5.55-2.38-10.57-9.78-10.57m-19.29,15.86c-.93.26-1.72.53-3.04.53-2.91,0-4.89-1.98-4.89-5.15,0-3.57,2.11-5.15,5.29-5.15.93,0,1.98.13,2.64.4v9.38Zm-14.93-4.63c0,7.14,4.49,10.97,10.97,10.97,1.72,0,3.17-.26,3.96-.66v.53c0,2.64-1.85,3.96-4.36,3.96-2.91,0-4.89-.53-7.8-2.25v6.48c2.51,1.19,5.02,1.72,7.8,1.72,4.89,0,11.36-1.98,11.36-9.91v-20.22c-2.64-1.06-5.68-1.72-9.51-1.72-7.8-.13-12.42,4.1-12.42,11.1m-11.23-11.23c-3.44,0-7.8.79-10.97,2.11v20.48h7v-15.86c1.06-.4,2.38-.53,3.57-.53,2.38,0,3.17,1.32,3.17,3.17v13.21h7v-13.48c-.13-7-3.96-9.12-9.78-9.12m-19.95,17.84c-.66.13-1.72.13-2.25.13-1.72,0-2.91-.79-2.91-2.25s1.06-2.25,3.17-2.25h1.85v4.36h.13Zm-2.51-17.84c-2.91,0-5.55.66-7.66,1.85v5.95c1.72-1.06,3.7-1.85,6.34-1.85,1.98,0,3.7.66,3.7,2.64v.93h-2.38c-6.08,0-9.65,2.11-9.65,6.74,0,5.29,4.36,6.87,9.91,6.87,3.17,0,6.87-.53,8.99-.93v-13.88c.13-6.34-3.83-8.33-9.25-8.33m-19.29,0c-2.38,0-4.23.53-5.02.93v-9.91h-7v31.58h7v-15.86c1.06-.4,2.38-.53,3.57-.53,2.38,0,3.17,1.32,3.17,3.17v13.21h7v-13.48c-.13-6.87-4.1-9.12-8.72-9.12m-25.11,11.5c0-3.44,2.11-5.42,5.55-5.42,1.98,0,3.7.53,5.55,1.98v-6.48c-1.85-1.19-3.7-1.59-6.21-1.59-7,0-11.76,4.76-11.76,11.63s4.36,11.5,11.76,11.5c2.25,0,4.49-.4,6.34-1.59v-6.34c-1.45,1.32-3.3,1.98-5.29,1.98-3.96-.26-5.95-2.51-5.95-5.68m-5.95-10.97h-8.06l-3.57,5.55-3.44-5.55h-8.33l7.66,10.7-8.19,11.36h7.8l4.23-6.08,4.23,6.08h8.06l-8.19-11.36,7.8-10.7Zm-37.79,9.25c.4-2.38,1.72-4.1,3.96-4.1,2.51,0,3.44,1.98,3.44,4.1h-7.4Zm4.23-9.78c-6.21,0-10.84,4.36-10.84,11.89,0,6.74,4.36,11.1,11.89,11.1,3.04,0,6.08-.53,8.06-1.98v-5.68c-2.11,1.06-4.36,1.72-7.27,1.72-2.51,0-5.29-.93-5.95-3.3v-.13h13.88v-3.04c-.13-5.55-2.51-10.57-9.78-10.57"></path></svg> 