<?xml version="1.0" encoding="UTF-8"?> <svg xmlns="http://www.w3.org/2000/svg" id="Layer_1" width="100" height="12.23" viewBox="0 0 100 12.23"><defs><style>.cls-1{fill:#023870;}.cls-2{fill:#d26714;}</style></defs><path class="cls-1" d="m25.35.58c0,.08.02.15.02.22.04.51.08,1.02.12,1.53.04.55.09,1.11.13,1.66.04.55.09,1.1.13,1.65.04.56.09,1.11.13,1.67.03.36.06.73.08,1.09.03.41.07.81.1,1.22.03.32.05.63.07.95.03.32.05.65.08.97.01.15.02.3.03.46-.06,0-.11.01-.16.01h-1.88c-.15-2.73-.29-5.44-.44-8.16h-.02s-.04.08-.06.12c-.36.79-.74,1.57-1.09,2.36-.59,1.32-1.17,2.65-1.75,3.98-.02.05-.04.09-.06.14-.02.05-.04.07-.1.07h-1.4c-.07,0-.1-.04-.12-.09-.17-.41-.35-.82-.52-1.22-.43-.98-.86-1.97-1.3-2.95-.28-.63-.58-1.26-.87-1.89-.06-.14-.13-.28-.2-.42-.01-.03-.03-.05-.06-.1,0,.04-.02.07-.02.09-.01.2-.02.41-.03.61-.03.5-.06,1.01-.08,1.51-.02.35-.03.69-.05,1.04-.02.37-.04.74-.06,1.11-.03.63-.07,1.26-.1,1.89-.02.33-.03.66-.05.99-.01.29-.03.58-.05.87,0,.08-.01.09-.09.09h-1.95c0-.11.01-.21.02-.3.03-.33.05-.66.08-.99.03-.43.07-.87.1-1.3.02-.31.05-.62.07-.93.03-.42.07-.85.1-1.27.02-.31.05-.62.07-.93.03-.42.07-.85.1-1.27.02-.29.04-.57.07-.86.04-.46.07-.91.11-1.37.02-.31.05-.62.07-.93.03-.39.06-.78.09-1.17,0-.03.01-.06.02-.09h1.82c.08,0,.11.03.15.09.36.64.68,1.29,1,1.95.65,1.34,1.27,2.7,1.86,4.07.17.4.34.79.52,1.19,0,.02.02.04.04.08.02-.03.04-.05.05-.08.2-.46.4-.92.6-1.38.18-.4.35-.81.53-1.21.19-.43.38-.86.58-1.29.17-.36.34-.72.51-1.07.19-.39.37-.78.56-1.16.19-.37.39-.73.58-1.1.03-.07.08-.09.15-.09h1.77v-.06Z"></path><path class="cls-1" d="m38.2.74c.22-.04.42-.08.63-.11.63-.1,1.26-.13,1.9-.16.44-.02.88-.02,1.31,0,.8.05,1.58.17,2.33.47.43.17.82.41,1.16.73.4.37.66.83.79,1.35.17.64.19,1.29.05,1.95-.12.55-.37,1.02-.77,1.43-.37.39-.82.64-1.32.83-.04.02-.08.03-.13.05.6.73,1.13,1.49,1.63,2.28.5.78.96,1.58,1.36,2.43h-2.23c-.06,0-.1-.01-.13-.07-.22-.4-.44-.81-.68-1.21-.43-.72-.88-1.42-1.37-2.09-.22-.3-.45-.6-.68-.9-.04-.05-.08-.07-.14-.07-.29,0-.57.01-.86.02h-.79v4.3h-2.06V.74Zm2.07,5.25h.08c.72,0,1.44.02,2.16-.07.36-.05.7-.15,1.02-.33.34-.19.57-.48.68-.86.09-.3.1-.61.06-.93-.07-.55-.35-.96-.85-1.21-.14-.07-.3-.13-.45-.18-.4-.12-.82-.16-1.24-.17-.38,0-.75,0-1.13.02-.11,0-.21.02-.32.03v3.69h-.01Z"></path><path class="cls-1" d="m28.35.59c.12-.03,7.26-.02,7.35,0v1.74h-5.26c-.03.11-.03,2.71,0,2.83h4.65c.03.09.03,1.62,0,1.72h-4.66c-.03.1-.03,3.23,0,3.35h5.66v1.73s-.06.01-.08.01h-7.65V.55v.04Z"></path><path class="cls-1" d="m48.76,9.72s.08.04.12.06c.54.26,1.1.47,1.69.58.55.1,1.1.13,1.66.09.28-.02.56-.06.82-.16.41-.15.73-.41.84-.85.16-.59.03-1.11-.43-1.53-.29-.26-.63-.46-1-.6-.41-.17-.83-.32-1.24-.48-.45-.17-.9-.35-1.32-.6-.6-.35-1.03-.84-1.32-1.47-.09-.19-.13-.4-.16-.61-.05-.35-.05-.71,0-1.06.12-.86.52-1.54,1.23-2.05.42-.3.88-.47,1.38-.58.56-.13,1.13-.17,1.7-.14.25.02.51.03.76.06.44.05.87.16,1.29.32.25.09.49.21.73.31.03.01.06.03.09.05-.21.56-.43,1.11-.64,1.67-.03-.01-.06-.02-.08-.04-.54-.28-1.11-.46-1.71-.54-.31-.04-.62-.07-.93-.06-.32.01-.64.06-.93.19-.13.06-.25.14-.36.23-.24.21-.36.48-.38.79-.04.5.15.89.54,1.2.24.19.51.35.79.47.39.17.79.32,1.19.47.48.19.96.38,1.41.64.24.14.46.3.66.48.53.48.83,1.08.92,1.78.05.37.07.74.02,1.11-.13,1-.63,1.75-1.53,2.23-.48.26-1,.4-1.53.47-.52.07-1.04.1-1.56.08-1.09-.04-2.13-.25-3.12-.72-.05-.03-.11-.06-.16-.09,0,0-.02-.02-.04-.03.2-.56.4-1.11.61-1.68h0Z"></path><path class="cls-1" d="m2.02,1.59c.17-.18.36-.33.56-.47.73-.52,1.55-.84,2.43-1.01.44-.08.87-.12,1.32-.1.74.03,1.46.19,2.14.48,1.13.47,2.04,1.21,2.73,2.22.43.63.7,1.32.87,2.07.12.54.18,1.09.15,1.65-.02.51-.14,1-.33,1.47-.2.48-.47.92-.83,1.3-.37.4-.82.69-1.32.9-.71.3-1.45.44-2.22.4-.74-.04-1.45-.21-2.11-.58-.39-.22-.73-.5-1.02-.85-.12-.14-.37-.49-.37-.52.03.02,1.06.64,1.62.73.89.14,1.7-.08,2.42-.61.67-.5,1.05-1.16,1.24-1.96.13-.54.15-1.09.07-1.64-.08-.55-.23-1.08-.48-1.57-.38-.74-.95-1.29-1.66-1.71-.61-.36-1.26-.58-1.96-.68-.56-.08-1.12-.07-1.68.03-.52.09-1.02.24-1.5.45-.02,0-.04.02-.06.02v-.02Z"></path><path d="m66.21,2.71h.84c.14.43.28.86.42,1.29s.28.86.41,1.3c.14.43.27.87.4,1.3.13.43.25.87.37,1.3h.02c.02-.08.04-.16.06-.24.09-.3.16-.6.26-.9.25-.75.51-1.5.76-2.26.2-.58.4-1.15.6-1.72,0-.03.02-.05.03-.08h.8c-.22.62-.43,1.22-.65,1.83-.5,1.39-1,2.77-1.5,4.16h-.86c-.66-1.99-1.32-3.99-1.98-6l.02.02Z"></path><path d="m96.28,6.7h-3.03c-.02.82.49,1.44,1.31,1.48.39.02.78,0,1.16-.13.06-.02.13-.05.21-.08.05.19.09.36.14.55-.11.04-.2.08-.31.11-.5.15-1.01.21-1.52.14-.83-.12-1.39-.57-1.64-1.38-.14-.44-.14-.89-.06-1.35.05-.29.15-.57.31-.82.34-.55.83-.86,1.48-.92.25-.02.49,0,.72.06.43.11.73.37.95.74.18.31.27.64.3.99.01.17,0,.34,0,.51,0,.02,0,.05-.02.09h0Zm-3.03-.56h2.29c.01-.28-.04-.53-.17-.77-.13-.23-.31-.39-.57-.46-.14-.04-.27-.05-.42-.04-.33.02-.6.15-.8.4-.16.2-.26.43-.31.68-.01.06-.02.12-.03.19h0Z"></path><path d="m74.87,7.98c.05.19.09.36.14.56-.13.04-.25.09-.37.13-.48.14-.97.19-1.46.12-.83-.12-1.38-.57-1.64-1.37-.14-.45-.15-.9-.06-1.36.04-.2.1-.4.19-.59.22-.45.54-.81,1.01-1,.51-.21,1.02-.21,1.53-.01.32.13.55.37.73.66.18.31.27.65.3,1,.01.17,0,.34,0,.5,0,.03,0,.06-.02.09h-3.03c0,.1,0,.19.02.28.08.69.6,1.18,1.3,1.21.39.02.78,0,1.16-.13.06-.02.13-.05.2-.07v-.02Zm-2.67-1.85c.11.02,2.2.02,2.29,0v-.03c0-.29-.06-.56-.22-.81-.06-.1-.15-.18-.25-.25-.39-.26-1.1-.26-1.49.24-.16.2-.26.43-.31.68-.01.06-.02.12-.03.18h0Z"></path><path d="m76.35,4.39h.68c.04.23.03.46.05.69h.02s.04-.06.06-.09c.26-.37.62-.59,1.06-.67.42-.07.82,0,1.17.23.3.2.47.48.57.82.07.25.11.5.11.75v2.58h-.76v-2.25c0-.25,0-.49-.06-.74-.03-.1-.06-.2-.1-.29-.15-.3-.39-.46-.73-.49-.62-.06-1.02.36-1.18.74-.05.11-.07.23-.07.36v2.66h-.77v-3.35c0-.3-.02-.6-.03-.9v-.07l-.02.02Z"></path><path d="m88.3,8.71h-.67c-.04-.23-.04-.46-.07-.71-.02.03-.04.06-.07.09-.07.09-.14.18-.22.26-.43.44-1.21.59-1.82.3-.3-.14-.5-.38-.62-.68-.13-.31-.18-.63-.18-.95v-2.62h.76v2.43c0,.27.03.53.13.78.12.3.33.49.66.54.45.08.86-.15,1.1-.5.13-.19.18-.41.18-.64v-2.61h.77c.02,1.44-.03,2.88.04,4.32h.01Z"></path><path d="m99.85,4.57c-.06.18-.12.36-.19.54-.04-.02-.07-.03-.1-.05-.3-.15-.61-.21-.95-.18-.13.01-.24.07-.34.14-.29.22-.27.65-.02.85.14.11.29.19.45.26.17.07.35.14.52.22s.33.19.46.33c.19.18.28.41.31.67.02.16,0,.31-.03.46-.08.34-.28.58-.58.75-.23.13-.49.2-.76.23-.45.04-.88-.03-1.29-.21-.04-.02-.08-.04-.12-.06,0,0-.02-.01-.03-.02.06-.19.12-.38.18-.57.04.02.07.03.09.04.28.14.57.23.88.25.18.01.36,0,.53-.08.44-.17.49-.78.18-1.03-.14-.11-.29-.2-.45-.27-.13-.05-.25-.1-.38-.15-.19-.08-.36-.18-.52-.32-.37-.32-.49-.76-.32-1.22.14-.37.4-.62.77-.74.57-.19,1.12-.14,1.66.13,0,0,.02.01.04.03h.01Z"></path><path d="m83.49,8.11c.01.2.02.39.03.59-.1.02-.19.05-.29.07-.26.05-.51.06-.77,0-.15-.04-.29-.1-.41-.2-.14-.11-.22-.26-.27-.43-.08-.23-.11-.47-.11-.71v-2.44h-.67v-.6h.66c.01-.27,0-.53,0-.8.25-.08.5-.16.76-.24.02.12,0,.23,0,.34v.69h1.12v.59h-1.11v2.41c0,.12.01.24.04.36.07.26.25.41.52.41.13,0,.26-.02.39-.03.02,0,.05,0,.09-.02h.02Z"></path><path d="m90.54,8.71h-.77c-.02-1.44.03-2.88-.03-4.31.08-.02.54-.03.67,0,.01.28.03.56.04.84h.02s.03-.04.03-.06c.08-.19.18-.36.33-.51.28-.29.62-.41,1.02-.36,0,0,.02,0,.03.01v.71h-.25c-.3,0-.55.11-.75.33-.19.22-.31.47-.33.77-.01.21-.02.41-.02.62v1.96h.01Z"></path><rect x="62.44" y=".61" width=".16" height="11.41"></rect><path class="cls-2" d="m5.96,12.21c-.58-.01-1.15-.11-1.71-.3-1.02-.33-1.9-.87-2.63-1.65-.72-.77-1.19-1.67-1.43-2.69-.09-.39-.15-.78-.18-1.17-.06-.84.1-1.64.48-2.4.45-.89,1.16-1.51,2.08-1.88.44-.18.89-.29,1.36-.34.34-.04.67-.03,1.01,0,.62.06,1.2.22,1.75.5.6.31,1.08.75,1.45,1.31,0,.01.03.06.03.06,0,0-.06-.04-.09-.05-.19-.12-.37-.24-.56-.34-.3-.16-.62-.25-.96-.31-.52-.08-1.03-.04-1.53.13-.34.11-.65.28-.92.51-.15.13-.3.25-.44.39-.35.36-.56.8-.71,1.27-.15.48-.22.96-.19,1.46.05,1.04.36,1.99,1.04,2.8.38.46.85.81,1.39,1.09.51.26,1.05.44,1.62.53.44.07.89.09,1.34.05.65-.06,1.27-.21,1.87-.47.02,0,.03-.01.05-.02,0,0-1.41,1.52-4.13,1.52h.01Z"></path></svg> 