<?xml version="1.0" encoding="UTF-8"?> <svg xmlns="http://www.w3.org/2000/svg" id="Layer_1" width="100" height="20.06" viewBox="0 0 100 20.06"><defs><style>.cls-1{fill:#17122b;fill-rule:evenodd;}</style></defs><path id="Shape" class="cls-1" d="m17.39,10.46s0-.02,0-.03c0-.03,0-.06,0-.09,0-.1.01-.2.01-.3,0-.05,0-.1,0-.15,0-.02,0-.04,0-.05,0,0,0-.01,0-.02,0-.01,0-.02,0-.04-.01-.06-.05-.12-.11-.14,0,0,0,0-.01,0,0,0,0,0,0,0-.22-.05-.44-.11-.66-.19l-.1-.03c-2.07-.72-4.06-.39-4.98-.16-.05.01-.1.03-.15.04,0,0,0,0,0,0,0,0,0,0,0,0-.18,0-.33-.13-.37-.3v-1.86c.02-.11.1-.21.2-.26.02-.01.05-.02.08-.03.62-.23,2.29-.64,5.1.09,0,0,.01,0,.02,0,0,0,0,0,.01,0,0,0,0,0,0,0,.01,0,.03,0,.04,0,.1,0,.19-.08.19-.19,0-.01,0-.02,0-.04,0,0,0,0,0-.01,0-.02-.02-.05-.03-.06-1.23-2.45-3.75-4.14-6.66-4.14-4.12,0-7.46,3.37-7.46,7.52s3.34,7.52,7.46,7.52c2.97,0,5.54-1.76,6.74-4.3h0s.03-.07.04-.09c0,0,0,0,0-.01,0,0,0-.01,0-.02,0-.07-.04-.14-.11-.17,0,0,0,0,0,0,0,0,0,0,0,0h-.01s-.08-.03-.08-.03c-2.13-.75-4.18-.37-5.06-.14,0,0,0,0,0,0,0,0,0,0,0,0-.02,0-.05,0-.07,0-.18,0-.33-.13-.37-.3v-1.85c.02-.12.11-.22.22-.27,0,0,0,0,0,0,0,0,0,0,0,0,.58-.23,2.3-.69,5.28.1.21.06.41.1.61.15.03,0,.06.01.09.02.08,0,.15-.06.17-.14,0-.02,0-.03,0-.05Zm4.17-3.32s.05,0,.07,0c.2,0,.37.16.37.37v1.67c-.01.13-.09.25-.21.3-.03.01-.07.02-.12.03-.33.09-.89.23-1.59.29h-.07c-.07.03-.13.09-.13.17,0,0,0,.01,0,.02,0,0,0,.01,0,.02,0,0,0,0,0,.01,0,0,0,0,0,.01,0,.23,0,.45-.02.68,0,0,0,0,0,0,0,0,0,0,0,.01,0,.1.08.17.17.18h0s.02,0,.04,0c.63-.04,1.1-.14,1.42-.23.02,0,.05-.01.07-.02.02,0,.05,0,.07,0,.19,0,.34.14.37.32v1.72c0,.14-.1.26-.22.32h-.01s-.05.02-.09.03c-.42.12-1.22.31-2.23.34,0,0,0,0-.01,0,0,0,0,0-.01,0-.07,0-.12.04-.15.1,0,.01,0,.02-.01.03h0c-1.4,3.84-5.05,6.57-9.34,6.57C4.21,20.06-.39,15.17.03,9.3.38,4.35,4.35.36,9.26.02c4.84-.33,9,2.84,10.25,7.24,0,.01,0,.03.01.04.03.06.08.1.15.1.01,0,.02,0,.03,0,.81,0,1.41-.13,1.79-.24.03,0,.05-.02.07-.02Zm73.99,2.65v4.78h-1.94v-6.83h1.62l.21.95c.6-.7,1.38-1.06,2.36-1.06.71,0,1.25.21,1.64.63.38.42.57,1.01.57,1.77v4.54h-1.94v-4.43c0-.4-.08-.69-.23-.87-.16-.18-.41-.27-.75-.27-.31,0-.6.07-.87.21-.27.14-.49.33-.65.58Zm-7.68,3.38c.17.15.41.22.71.22.28,0,.54-.06.8-.18.25-.12.47-.29.64-.5v-1.26h-.66c-.55,0-.98.1-1.29.29-.31.19-.46.46-.46.8,0,.28.08.49.25.64Zm1.33,1.26c-.35.15-.72.23-1.11.23-.7,0-1.25-.18-1.66-.55-.41-.37-.62-.86-.62-1.47,0-.71.3-1.27.89-1.67.6-.4,1.43-.6,2.5-.6h.83v-.17c-.03-.79-.47-1.18-1.33-1.18-.29,0-.64.04-1.02.13-.39.09-.74.2-1.05.33l-.41-1.32c.45-.18.92-.32,1.41-.42.49-.1.95-.15,1.38-.15.96,0,1.69.24,2.2.71s.76,1.17.76,2.07v4.18h-1.6l-.22-.81c-.28.3-.59.52-.94.68Zm-8.61-4.05h2.74c-.06-.95-.47-1.43-1.24-1.43-.43,0-.77.12-1.01.35-.25.24-.41.59-.48,1.07Zm4.36,3.6c-1.03.48-1.98.72-2.85.71-1.07,0-1.91-.31-2.52-.94-.61-.63-.92-1.5-.92-2.62s.3-1.98.9-2.6c.6-.62,1.44-.93,2.51-.93,2.02,0,3.04,1.16,3.04,3.47v.45h-4.56c.1,1.16.7,1.74,1.78,1.74.34,0,.68-.04,1.02-.12.34-.08.72-.2,1.13-.38l.47,1.22Zm-7.95.57c-.36.08-.71.11-1.04.11-1.12,0-1.98-.3-2.57-.91-.59-.61-.89-1.48-.89-2.62s.31-1.98.92-2.59c.61-.61,1.47-.92,2.59-.92.69,0,1.34.16,1.96.48l-.43,1.29c-.46-.24-.9-.36-1.33-.36-.56,0-.99.18-1.3.55-.31.36-.46.88-.46,1.55s.16,1.17.47,1.53c.31.36.77.54,1.35.54.48,0,.96-.1,1.42-.31l.31,1.33c-.31.14-.65.25-1.01.32Zm-11.53-2.25c.4.55.98.82,1.76.82s1.36-.27,1.76-.82c.4-.55.6-1.35.6-2.4s-.2-1.81-.6-2.34c-.4-.53-.98-.8-1.76-.8s-1.37.27-1.76.8c-.39.53-.59,1.31-.59,2.35s.2,1.85.6,2.4Zm5.03,1.15c-.75.82-1.84,1.23-3.27,1.23s-2.53-.41-3.28-1.23c-.75-.82-1.12-2-1.12-3.56s.38-2.67,1.13-3.49c.75-.82,1.84-1.22,3.26-1.22s2.51.41,3.26,1.22c.75.81,1.13,1.98,1.13,3.49s-.37,2.73-1.12,3.55Zm-13.37-3.66v4.78h-1.95v-6.83h1.62l.21.95c.6-.7,1.38-1.06,2.36-1.06.71,0,1.25.21,1.64.63.38.42.57,1.01.57,1.77v4.54h-1.94v-4.43c0-.4-.08-.69-.23-.87-.16-.18-.41-.27-.75-.27-.31,0-.6.07-.87.21-.27.14-.49.33-.65.58Zm-7.78.59h2.74c-.05-.95-.47-1.43-1.24-1.43-.43,0-.77.12-1.01.35-.25.24-.41.59-.48,1.07Zm4.36,3.6c-1.03.48-1.98.72-2.85.71-1.07,0-1.91-.31-2.52-.94-.61-.63-.92-1.5-.92-2.62s.3-1.98.9-2.6c.6-.62,1.44-.93,2.51-.93,2.02,0,3.04,1.16,3.04,3.47v.45h-4.56c.1,1.16.69,1.74,1.78,1.74.34,0,.68-.04,1.02-.12.34-.08.72-.2,1.13-.38l.47,1.22Zm-11.35-.67c.13.02.28.03.46.03.58,0,1.03-.19,1.35-.57.31-.38.47-.94.47-1.68,0-1.38-.47-2.06-1.42-2.06-.35,0-.64.09-.89.28-.25.19-.42.45-.53.79v3.1c.25.06.44.1.56.11Zm-.56,1.22v3.02h-1.94V7.74h1.48l.3.81c.29-.31.59-.54.9-.68.31-.14.67-.21,1.08-.21.94,0,1.67.29,2.19.88.52.59.78,1.42.78,2.5,0,.76-.15,1.41-.45,1.95-.3.55-.72.97-1.27,1.26-.55.29-1.2.44-1.94.44-.35,0-.73-.05-1.14-.14Zm-9.52-2.23c.4.55.98.82,1.76.82s1.36-.27,1.76-.82c.4-.55.6-1.35.6-2.4s-.2-1.81-.6-2.34c-.4-.53-.98-.8-1.76-.8s-1.37.27-1.77.8c-.39.53-.59,1.31-.59,2.35s.2,1.85.6,2.4Zm5.03,1.15c-.75.82-1.84,1.23-3.27,1.23s-2.53-.41-3.28-1.23c-.75-.82-1.12-2-1.12-3.56s.38-2.67,1.13-3.49c.75-.82,1.84-1.22,3.26-1.22s2.51.41,3.26,1.22c.75.81,1.13,1.98,1.13,3.49s-.37,2.73-1.12,3.55Z"></path></svg> 