<?xml version="1.0" encoding="UTF-8"?> <svg xmlns="http://www.w3.org/2000/svg" id="Layer_2" width="100" height="100.03" viewBox="0 0 100 100.03"><defs><style>.cls-1{fill:#3a357e;}</style></defs><path class="cls-1" d="m73.39,68.4c0,.89.76,1.68,2,1.68,2.17,0,2.44-1.79,2.44-3.41v-.33h-1.39c-2.08,0-3.05.87-3.05,2.07Z"></path><path class="cls-1" d="m51.2,41.41c1.61,0,2.21-1.18,2.23-3.52.02-2.39-.58-3.26-2.17-3.28-1.68-.03-2.54.76-2.54,3.06,0,2.49.88,3.76,2.48,3.74Z"></path><path class="cls-1" d="m0,0v100.03h100V0H0Zm72.24,31.62c4.06,0,6.29,2.75,6.36,7.14,0,.1-.1.2-.19.2h-8.82c.14,2.36,1.74,2.79,2.77,2.79s2.08.06,2.39-1.3c.02-.12.14-.2.24-.2h3.06c.1,0,.19.1.17.2-.29,2.32-2.44,4.36-5.9,4.36-4.11,0-6.33-2.75-6.33-6.56,0-4,2.34-6.63,6.26-6.63Zm-12.83,24.35c0,.96-.78,1.74-1.74,1.74s-1.74-.78-1.74-1.74.78-1.74,1.74-1.74,1.74.78,1.74,1.74Zm-9.31-24.28c1.51,0,2.39.54,3.23,1.54v-5.61c0-.1.1-.2.19-.2h3.49c.1,0,.19.1.19.2l-.02,8.34.02,8.34c0,.1-.1.2-.19.2h-3.51c-.1,0-.19-.1-.19-.2l.07-1.27c-.86,1.07-1.79,1.71-3.35,1.71-3.49,0-5.33-2.83-5.33-6.48s1.24-6.56,5.4-6.56Zm-13.16-.07c4.06,0,6.29,2.75,6.36,7.14,0,.1-.1.2-.19.2h-8.82c.14,2.36,1.74,2.79,2.77,2.79s2.08.06,2.39-1.3c.02-.12.14-.2.24-.2h3.06c.1,0,.19.1.17.2-.29,2.32-2.44,4.36-5.9,4.36-4.11,0-6.33-2.75-6.33-6.56,0-4,2.34-6.63,6.26-6.63Zm-10.41-5.28c1.11,0,2.01.9,2.01,2.01s-.9,2.01-2.01,2.01-2.01-.9-2.01-2.01.9-2.01,2.01-2.01Zm1.82,17.95c0,.1-.1.2-.19.2h-3.25c-.1,0-.19-.1-.19-.2l.05-6.07-.05-6.09c0-.1.1-.2.19-.2h3.25c.1,0,.19.1.19.2l-.05,6.09.05,6.07Zm-17.12-8.34v-8.34c0-.1.09-.2.19-.2h10.95c.1,0,.19.1.19.2v3.01c0,.1-.1.2-.19.2h-7.3l-.05,3.48h6.45c.1,0,.19.1.19.2v2.92c0,.1-.1.2-.19.2h-6.45l.05,6.68c0,.1-.1.2-.19.2h-3.46c-.1,0-.19-.1-.19-.2v-8.34Zm7.51,36.1c-5.14,0-8.32-3.56-8.32-8.65s3.25-8.8,8.29-8.8c3.61,0,6.55,1.48,7.48,5.98.02.1-.05.19-.14.19h-3.18c-.1,0-.22-.07-.24-.19-.45-2.03-1.79-3.18-3.97-3.18-2.92,0-4.49,2.25-4.49,5.98s1.63,5.88,4.47,5.88c2.34,0,3.61-1.27,4.06-3.56,0-.12.12-.19.22-.19h3.25c.1,0,.17.1.14.19-.91,4.59-3.63,6.36-7.58,6.36Zm16.96-.36c-.1-.24-.17-.91-.17-1.22-.45.69-1.29,1.51-3.49,1.51-2.99,0-4.23-1.96-4.23-3.87,0-2.82,2.25-4.14,5.88-4.14h1.77v-.74c0-.89-.31-1.75-1.91-1.75-1.43,0-1.77.6-1.91,1.51h-3.25c.17-2.2,1.53-3.97,5.31-3.97,3.3.02,5.12,1.31,5.12,4.28v5.19c0,1.19.1,2.92.17,3.2h-3.27Zm12.9.24c-1.44,0-2.59-.53-3.4-1.51l.05,5.95c0,.1-.09.19-.19.19h-3.15c-.09,0-.19-.1-.19-.19l.05-9.68-.05-7.12c0-.1.09-.19.19-.19h3.13c.09,0,.19.1.19.19l-.07,1.24c.83-1.05,2.01-1.67,3.52-1.67,3.38,0,5.16,2.77,5.16,6.36s-1.99,6.43-5.23,6.43Zm10.9-.43c0,.1-.1.19-.19.19h-3.25c-.1,0-.19-.1-.19-.19l.05-5.95-.05-5.98c0-.1.1-.19.19-.19h3.25c.1,0,.19.1.19.19l-.05,5.98.05,5.95Zm.37-27.22l.08-8.34-.08-8.34c0-.1.11-.2.21-.2h3.53c.11,0,.21.1.21.2l-.08,8.34.08,8.34c0,.1-.11.2-.21.2h-3.53c-.11,0-.21-.1-.21-.2Zm8.54,17.44c0,.1-.1.19-.19.19h-2.25l.02,6.07c0,1.05,1.13,1.39,1.91,1.39.14,0,.39-.01.39-.01l.02,2.43s-.83.14-1.25.14c-2.08,0-4.06-1.05-4.06-3.85l.02-6.17h-1.41c-.1,0-.19-.1-.19-.19v-2.15c0-.1.1-.19.19-.19h1.41l-.02-2.89c0-.1.1-.19.19-.19h2.6c.1,0,.19.1.19.19l-.02,2.89h2.25c.1,0,.19.1.19.19v2.15Zm9.68,9.97c-.1-.24-.17-.91-.17-1.22-.45.69-1.29,1.51-3.49,1.51-2.99,0-4.23-1.96-4.23-3.87,0-2.82,2.25-4.14,5.88-4.14h1.77v-.74c0-.89-.31-1.75-1.91-1.75-1.43,0-1.77.6-1.91,1.51h-3.25c.17-2.2,1.53-3.97,5.31-3.97,3.3.02,5.12,1.31,5.12,4.28v5.19c0,1.19.1,2.92.17,3.2h-3.27Zm9.68-.19c0,.1-.1.19-.19.19h-3.15c-.1,0-.19-.1-.19-.19l.07-8.17-.07-8.17c0-.1.1-.19.19-.19h3.15c.1,0,.19.1.19.19l-.07,8.17.07,8.17Zm.62-36.7c0,.1-.1.17-.19.17-.14-.02-.33-.02-.48-.02-2.53,0-3.46,1.07-3.46,3.95v5.39c0,.1-.1.2-.19.2h-3.43c-.1,0-.19-.1-.19-.2l.07-6.09-.07-6.07c0-.1.1-.2.19-.2h3.43c.1,0,.19.1.19.2l-.1,1.93c.71-1.64,1.67-2.54,3.46-2.54.19,0,.41.02.57.05.1.02.19.15.19.24v3.01Z"></path><path class="cls-1" d="m72.26,34.36c-1.47,0-2.29.55-2.58,2.28h5.04c-.14-1.34-.99-2.28-2.46-2.28Z"></path><path class="cls-1" d="m36.95,34.36c-1.47,0-2.29.55-2.58,2.28h5.04c-.14-1.34-.99-2.28-2.46-2.28Z"></path><path class="cls-1" d="m47.67,61.6c-1.69,0-2.59,1.32-2.62,3.87-.02,2.61.88,4.06,2.55,4.06,1.76,0,2.66-1.31,2.66-3.82,0-2.72-.9-4.11-2.59-4.11Z"></path><path class="cls-1" d="m31,68.4c0,.89.76,1.68,2,1.68,2.17,0,2.44-1.79,2.44-3.41v-.33h-1.39c-2.08,0-3.05.87-3.05,2.07Z"></path></svg> 