<?xml version="1.0" encoding="UTF-8"?> <svg xmlns="http://www.w3.org/2000/svg" id="Layer_1" width="100" height="145.76" viewBox="0 0 100 145.76"><defs><style>.cls-1{fill:#3a357e;}</style></defs><path class="cls-1" d="m22.67,21.99c.29-.04.46-.47.13-1.11-.16-.3-.1-.76-.06-.86-.78.58-.63,1.9-.07,1.97Z"></path><path class="cls-1" d="m47.03,16.82c1.23-.04,1.23-1.75.51-2.91-.45-.72-.57-2.16-.47-2.38-1.52,1.49-1.97,5.12-.04,5.29Z"></path><path class="cls-1" d="m15.83,22.23c.72-.06.72-.89.49-1.47-.03-.09-.2-.46-.61-1.05.12.91-.23,1.08-.39,1.36-.29.58.05,1.16.52,1.16Z"></path><path class="cls-1" d="m19.49,21.15c.7-.09.82-.87.3-1.86-.29-.56-.18-1.47-.11-1.62-.93.48-1.54,3.33-.19,3.47Z"></path><path class="cls-1" d="m78.15,14.11c1.18-.16,1.36-1.46.5-3.1-.49-.93-.3-2.45-.19-2.7-1.56.81-2.57,5.57-.31,5.81Z"></path><path class="cls-1" d="m51.2,17.28c.37-.05.58-.6.16-1.41-.2-.39-.13-.96-.07-1.08-.99.74-.8,2.41-.09,2.49Z"></path><path class="cls-1" d="m82.71,14.94c.4-.05.63-.65.18-1.53-.21-.42-.14-1.04-.08-1.18-1.08.8-.87,2.62-.1,2.71Z"></path><path class="cls-1" d="m72.82,15.52c1.15-.1,1.15-1.42.78-2.35-.06-.14-.32-.74-.98-1.69.2,1.47-.37,1.74-.64,2.18-.46.93.07,1.86.83,1.86Z"></path><path class="cls-1" d="m42.38,17.6c.93-.08.93-1.15.63-1.91-.04-.12-.26-.6-.79-1.37.16,1.19-.3,1.41-.51,1.77-.38.75.06,1.51.67,1.51Z"></path><path class="cls-1" d="m77.33,25.75c-1.06,0-1.92.85-1.92,1.89v4.72h3.84v-4.72h0c0-1.05-.86-1.9-1.92-1.9Z"></path><path class="cls-1" d="m46.25,27.05c-.94,0-1.7.75-1.7,1.67v4.18h3.4v-4.18h0c0-.93-.76-1.68-1.7-1.68Z"></path><path class="cls-1" d="m90.76,0h-3.72C68.1.17,31.7,3.02,0,20.23v18.55h100V.34c-.38-.03-3.74-.29-9.24-.34Zm-16.48,8.89c-.2.56-.95,1.27.04,3,.24.42.56.74.71,1.1-.78-2.77,1.28-6.77,5.31-7.86-.44.51-1.86,1.91-.11,3.86,1.07,1.2,1.2,2.15,1.29,2.91.47-.69,1.43-1.07,2.38-1.33-.22.26-.67,1.48-.05,2.19,1.13,1.3.52,2.92-.48,3.43-1.81.66-2.6-1.16-2.49-2.11-.54.84-1.54,1.62-2.34,1.67-1.85-.02-2.88-1.13-3.37-2.34.45,1.69-.85,3.43-2.22,3.52-1.06,0-1.73-.72-1.73-.72-2.05-1.81-.78-5.25,3.05-7.3Zm-30.76,2.76c-.31.61-.34,1.34,0,1.9.31.51.47.83.61,1.16.52-2.66,1.21-4.92,4.77-5.9-.39.45-1.54,1.59-.1,3.41,1.14,1.44,1.02,1.99,1.14,2.66.41-.61,1.36-1.48,2.2-1.71-.19.23-.49,1.15.09,2.08,1.13,1.8.31,3.09-.79,3.39-1.33.32-2.15-1.08-2.06-1.93-.48.75-1.36,1.43-2.07,1.48-1.64-.02-2.5-.83-2.93-1.9.4,1.5-.71,2.74-1.92,2.81-1.16.03-1.62-.64-1.62-.64-1.62-1.87-.71-5,2.69-6.82Zm-26.46,5.95c-.13.38-.59.92-.15,2.1.12.31.27.42.37.67-.11-2.07.94-4.08,3.65-4.82-.3.34-1.09,1.15-.08,2.6.41.59.85,1.26.81,2,.31-.47.89-1.2,1.82-1.41-.15.17-.52,1-.04,1.66.52.72.55,1.55.04,2.18-1.03,1.14-2.26-.36-2.19-1-.36.97-1.04,1.09-1.58,1.13-1.25-.02-1.94-.76-2.27-1.58.3,1.14-.46,2.18-1.38,2.23-.89.11-1.4-.48-1.4-.48-1.38-1.22-.85-3.8,2.4-5.28Zm9.62,9.05c0,.18-.14.32-.32.32h-.32v.96c0,.18-.15.32-.32.32h-.39l.71,8.28h-14.25l.71-8.28h-.39c-.18,0-.33-.14-.33-.32v-.96h-.32c-.18,0-.32-.14-.32-.32v-.64c0-.18.15-.32.32-.32h.97v-1.59c0-.18.15-.32.32-.32h1.99c.19,0,.27.12.27.33v1.58h2.59v-1.59c0-.18.15-.32.32-.32h1.94c.18,0,.32.14.32.32v1.59h2.59v-1.59c0-.17.04-.32.35-.32h1.91c.18,0,.32.14.32.32v1.59h.97c.18,0,.32.14.32.32v.64Zm29.76-3.27c0,.23-.19.42-.42.42h-.43v1.26c0,.23-.19.42-.42.42h-.51l.94,10.88h-18.7l.93-10.88h-.51c-.24,0-.43-.19-.43-.42v-1.26h-.42c-.24,0-.43-.19-.43-.42v-.83c0-.23.19-.42.43-.42h1.27v-2.09c0-.23.19-.42.43-.42h2.62c.25,0,.36.16.36.43v2.08h3.4v-2.09c0-.23.19-.42.42-.42h2.55c.23,0,.42.19.42.42v2.09h3.4v-2.09c0-.22.05-.42.46-.42h2.51c.24,0,.43.19.43.42v2.09h1.28c.23,0,.42.19.42.42v.83Zm32.41-1.79c0,.26-.21.47-.48.47h-.48v1.42c0,.26-.22.47-.48.47h-.58l1.06,12.29h-21.13l1.06-12.29h-.58c-.27,0-.48-.21-.48-.47v-1.42h-.48c-.27,0-.48-.21-.48-.47v-.94c0-.26.22-.47.48-.47h1.44v-2.36c0-.26.22-.48.48-.48h2.96c.28,0,.4.18.4.49v2.35h3.84v-2.36c0-.26.22-.48.48-.48h2.88c.26,0,.48.21.48.48v2.36h3.84v-2.36c0-.25.05-.48.52-.48h2.84c.27,0,.48.21.48.48v2.36h1.44c.27,0,.48.21.48.47v.94Z"></path><path class="cls-1" d="m18.91,29.45c-.72,0-1.3.57-1.3,1.28v3.19h2.59v-3.18h0c0-.71-.58-1.28-1.29-1.28Z"></path><path class="cls-1" d="m50.37,75.23c.27-.19.41-.48.41-.87,0-.43-.14-.73-.44-.92-.33-.21-.88-.31-1.63-.31h-3.08v2.4h3.41c.6,0,1.05-.1,1.34-.31Z"></path><path class="cls-1" d="m75.16,45.37c-3.63,0-3.63.19-3.63,1.66v15.26c0,2.43.39,2.76,3.23,2.76,4.68,0,9.45-1.2,9.45-10.07,0-6.44-2.88-9.5-9.05-9.62Z"></path><path class="cls-1" d="m50.54,77.43c-.37-.25-.95-.38-1.74-.38h-3.18v2.81h3.27c.74,0,1.29-.12,1.66-.36.34-.22.5-.56.5-1.02,0-.47-.17-.81-.51-1.05Z"></path><path class="cls-1" d="m19.9,73.13h-2.12v6.73h2.47c1.28,0,2.28-.26,2.97-.78.68-.51,1.02-1.38,1.02-2.58,0-1.11-.31-1.96-.93-2.52-.62-.56-1.77-.85-3.41-.85Z"></path><path class="cls-1" d="m28.41,91.7c.99-2.67,3.23-4.66,5.5-5.68,3.82,3.8,10.76,4.24,17.16,2.13,5.59-1.84,14.63-.92,19.87,3.55h28.84c.09-1.19.17-2.79.22-3.93v-46.98H0v46.98c.05,1.14.14,2.74.22,3.93h28.18Zm-3.73-11.53c-1.02.8-2.5,1.2-4.39,1.2h-4.4v-9.76h4.17c2.07,0,3.63.4,4.64,1.17,1.02.79,1.54,2.07,1.54,3.82,0,1.55-.53,2.75-1.56,3.57Zm27.28.47c-.69.49-1.7.74-2.99.74h-5.25v-9.76h4.97c1.41,0,2.4.21,3.01.63.64.43.96,1.09.96,1.96,0,.64-.21,1.16-.61,1.55-.22.21-.5.37-.83.5.39.14.76.31,1.05.56.51.43.76,1.01.76,1.71,0,.88-.36,1.59-1.08,2.1Zm18.29.74h-1.89v-9.76h1.89v9.76Zm13.86,0h-2.32s-5.15-6.69-5.82-7.56v7.56h-1.89v-9.76h2.32s5.15,6.69,5.82,7.55v-7.55h1.89v9.76Zm-18.63-15.41l.21-.02c1.19-.13,2.02-.65,2.07-2.26v-16.85c0-1.82-1.19-2.32-2.07-2.4l-.21-.02v-.92h10.57c4.22.04,7.17.98,9.29,2.96,2.01,1.94,3.07,4.84,3.07,8.39,0,5.73-2.41,8.59-4.43,9.98-2.15,1.48-4.88,2.17-8.59,2.17h-9.91v-1.05Zm-6.06,5.65v8.24h5.75v1.52h-7.64v-9.76h1.89Zm-17.59-25.11c2.03-2.26,5.42-3.51,9.57-3.51,2.71,0,5.39.49,7.16,1.32l.14.06v3.9h-.88l-.04-.18c-.47-2.16-3.03-3.2-6.71-3.2-7.33,0-8.12,7.29-8.12,10.43,0,2.37.58,10.11,8.06,10.11,4.47,0,6.31-1.5,7.06-3.93l.05-.16h.96l-.32,4.48-.11.06c-1.74.94-4.87,1.63-7.44,1.63-4.19,0-7.3-.98-9.22-2.9-2.08-2.09-3.23-5.35-3.23-9.19,0-3.61,1.04-6.61,3.09-8.91Zm-4.6,32.89c.51-.48.76-1.12.76-1.95v-5.83h1.89v5.83c0,1.3-.45,2.34-1.34,3.08-.87.73-2.03,1.1-3.46,1.1-1.61,0-2.86-.38-3.72-1.13-.86-.76-1.3-1.79-1.3-3.06v-5.83h1.89v5.83c0,.86.25,1.49.77,1.96.51.47,1.28.7,2.27.7s1.72-.24,2.23-.71ZM11.59,43.5h6.61v.94l-.21.02c-1.22.12-1.22.99-1.22,2.27v10.89c0,2.91.42,4.66,1.45,6.03.99,1.28,2.38,1.9,4.24,1.9h.05c1.86,0,3.25-.62,4.24-1.9,1.03-1.37,1.45-3.12,1.45-6.03v-10.89c0-1.28,0-2.15-1.22-2.27l-.21-.02v-.94h6.61v.95h-.22c-1.19.07-1.19.95-1.19,2.26v11.58c0,2.02-.33,3.81-.92,5.03-1.31,2.83-4.11,4.2-8.54,4.2h-.05c-4.43,0-7.23-1.37-8.54-4.2-.59-1.22-.92-3.01-.92-5.03v-11.58c0-1.31,0-2.19-1.19-2.25h-.22v-.96Z"></path><path class="cls-1" d="m71.64,93.71l-.71,1.95c-3.24-1.68-6.16-2.6-8.99-2.96-1.84-.23-3.64-.21-5.45,0-2.02.25-4.07.74-6.22,1.42-7.38,2.34-13.79,3.22-19.49-.41H.43c2.72,22.1,17.16,43.35,46.24,51.54,0,0,2,.51,3.32.51s3.33-.51,3.33-.51c29.09-8.19,43.52-29.44,46.24-51.54h-27.93Zm-29.39,5.46l9.52,16.2,2.11-3.2h0s0,0,0,0l-8.16-13.89s.05-.02.07-.02c.77-.24,1.57-.49,2.44-.81l7.24,12.31,2.1-3.19-6.07-10.33c.11-.04.21-.08.32-.11.5-.18,1-.36,1.5-.52.01,0,.02,0,.03-.01.22-.07.43-.15.65-.22l5.16,8.78,2.1-3.19-3.82-6.5h0s.07-.01.1-.02c.35-.07.71-.13,1.07-.19.12-.02.24-.04.36-.06.15-.02.3-.04.44-.06.26-.03.53-.07.79-.1l2.65,4.51,2.02-3.06c.77.12,1.55.28,2.34.5l-17.65,33.84c-.47-.43-2.65-2.6-3.98-5.09l4.58-6.95-10.71-18.24h0c.91-.06,1.84-.19,2.79-.38Zm10,40.47c-16.47-9.55-24.87-23.1-22.96-43.11,2.66,2.01,5.36,2.91,8.21,3.04-.53,15.31,2.63,27.51,15.92,37.04l-1.17,3.02Zm5.03-4.32c-1.95-.91-4-2.34-5.37-3.31l16.29-35.71c.75.25,1.51.55,2.27.91l-13.19,38.11Z"></path></svg> 