<?xml version="1.0" encoding="UTF-8"?> <svg xmlns="http://www.w3.org/2000/svg" id="Layer_2" width="8.33in" height="5.56in" viewBox="0 0 600 400"><defs><style>.cls-1{fill:#fff;}</style></defs><path class="cls-1" d="m75.71,183.47h-6.96v-38.25h6.47v3.43c2.35-2.94,5.2-4.32,9.61-4.41v7.36c-6.37.49-9.22,3.82-9.22,10.98v20.89"></path><path class="cls-1" d="m93.46,162h24.13c-.29-6.37-5.79-11.47-11.96-11.47-3.43,0-6.96,1.57-9.22,4.12-1.77,2.06-2.35,3.53-2.94,7.36m29.91,9.51c-2.84,7.94-9.81,13.04-17.85,13.04-10.4,0-19.03-9.12-19.03-20.2s8.53-20.4,19.12-20.4,18.83,8.92,18.83,19.91c0,.88-.1,2.06-.2,3.73h-30.79c1.47,6.37,6.28,10.49,12.26,10.49,4.41,0,8.14-2.26,10.49-6.47h7.16v-.1h0Z"></path><polygon class="cls-1" points="139.36 151.7 139.36 183.47 132.4 183.47 132.4 151.7 127.3 151.7 127.3 145.23 132.4 145.23 132.4 132.38 139.36 132.38 139.36 145.23 145.44 145.23 145.44 151.7 139.36 151.7"></polygon><path class="cls-1" d="m180.74,164.55c0-7.65-5.69-13.83-12.85-13.83s-12.75,6.08-12.75,13.73,5.79,13.53,12.75,13.53,12.85-6.08,12.85-13.44m6.87,18.93h-6.37v-5.98c-1.37,2.26-2.16,3.04-4.02,4.22-2.84,1.86-6.28,2.75-10,2.75-10.79,0-19.03-8.63-19.03-20.01s8.34-20.3,19.42-20.3c5.69,0,11.08,2.65,13.53,6.47v-5.49h6.37v38.35h.1Z"></path><path class="cls-1" d="m203.5,183.47h-6.96v-38.25h6.96v38.25Zm0-42.66h-6.96v-8.43h6.96v8.43Z"></path><rect class="cls-1" x="212.52" y="132.38" width="6.96" height="51.1"></rect><polygon class="cls-1" points="30.3 251.24 19.32 251.24 19.32 184.95 5 184.95 5 174.65 44.52 174.65 44.52 184.95 30.3 184.95 30.3 251.24"></polygon><path class="cls-1" d="m115.72,193.77h10.4v31.28c0,5.59.78,9.41,2.35,12.06,2.35,3.73,6.67,5.88,11.67,5.88,9.02,0,14.51-6.77,14.51-17.95v-31.28h10.49v57.47h-9.71v-6.08c-3.14,4.81-9.32,7.55-16.48,7.55-14.02,0-23.24-9.51-23.24-23.64v-35.31"></path><path class="cls-1" d="m231.45,232.31c-4.12,12.65-14.81,20.5-27.56,20.5-16.08,0-28.54-13.14-28.54-30.3s12.55-30.11,28.74-30.11c12.75,0,24.52,8.83,27.26,20.69h-11.67c-4.12-7.85-8.63-10.89-15.69-10.89-10.49,0-18.34,8.63-18.34,20.3s8.14,20.6,18.05,20.6c6.67,0,12.95-4.12,15.99-10.69h11.77"></path><path class="cls-1" d="m290.29,251.24h-10.49v-32.56c0-11.38-4.22-16.67-13.53-16.67s-14.91,6.47-14.91,16.67v32.56h-10.4v-76.59h10.4v25.01c3.92-5.2,8.73-7.36,16.08-7.36,13.73,0,22.85,9.02,22.85,22.95v35.99"></path><path class="cls-1" d="m314.91,210.84h11.18c9.32,0,14.91-5.1,14.91-13.34s-5.1-12.55-15-12.55h-11.08v25.89m0,10.2v30.21h-10.89v-76.59h25.99c12.75,0,21.97,9.51,21.97,22.85,0,6.47-1.86,11.47-5.79,15.99-5.1,5.59-10.49,7.55-20.5,7.55h-10.79.01Z"></path><path class="cls-1" d="m455.35,251.24h-10.4v-57.47h10.4v57.47Zm0-63.94h-10.4v-12.65h10.4v12.65Z"></path><path class="cls-1" d="m518.31,251.24h-10.49v-31.28c0-5.59-.69-9.41-2.35-12.06-2.26-3.73-6.57-5.88-11.67-5.88-9.02,0-14.42,6.77-14.42,17.95v31.28h-10.59v-57.47h9.71v6.08c3.73-5,9.41-7.55,16.57-7.55,13.83,0,23.24,9.51,23.24,23.64v35.31"></path><polygon class="cls-1" points="543.32 203.58 543.32 251.24 532.72 251.24 532.72 203.58 525.17 203.58 525.17 193.77 532.72 193.77 532.72 174.65 543.32 174.65 543.32 193.77 552.44 193.77 552.44 203.58 543.32 203.58"></polygon><path class="cls-1" d="m593.82,209.07h-10.4c-.69-4.71-3.04-6.96-6.96-6.96s-6.96,2.65-6.96,6.18c0,3.82,1.67,5.2,8.73,7.36,6.47,1.96,10.1,4.22,12.85,7.55,2.55,3.24,3.92,7.16,3.92,11.18,0,10.1-8.73,18.44-19.32,18.44-11.38,0-18.93-7.94-19.12-20.2h10.49c.49,6.77,3.73,10.49,9.12,10.49,4.9,0,8.43-3.14,8.43-7.45s-2.26-6.57-9.81-9.12c-6.87-2.26-9.71-4.02-12.16-6.87-2.45-2.75-3.63-5.79-3.63-9.41,0-10.2,7.45-17.85,17.65-17.85,9.91-.1,16.97,6.77,17.16,16.67"></path><path class="cls-1" d="m409.94,201.13v-.1l-2.65,7.94h-34.91l5,17.06h24.22l-1.67,5c-.1,0-.2,0-.29.1h-18.14c-.29-.1-.59-.1-.88-.1-2.45,0-4.51,2.06-4.51,4.51s2.06,4.51,4.51,4.51,4.51-2.06,4.51-4.51c0-.78-.2-1.47-.59-2.16h12.16c-.29.59-.59,1.37-.59,2.16,0,2.45,2.06,4.51,4.51,4.51s4.51-2.06,4.51-4.51c0-1.96-1.27-3.53-2.94-4.22l9.32-27.95h4.81v-2.26h-6.37v.02Zm-29.32,36.58c-1.27,0-2.26-.98-2.26-2.26s.98-2.26,2.26-2.26h.29v.1h.29c.98.2,1.67,1.08,1.67,2.16,0,1.27-.98,2.26-2.26,2.26h0Zm-3.73-21.28l-1.57-5.2h8.04l.49,5.2h-6.96Zm2.16,7.26l-1.47-5h6.47l.49,5h-5.49Zm15.5,0h-7.85l-.49-5h8.83l-.49,5Zm.69-7.26h-9.12l-.49-5.2h10.2l-.59,5.2h0Zm7.75,18.93c0,1.27-.98,2.26-2.26,2.26s-2.26-.98-2.26-2.26c0-.98.69-1.77,1.57-2.16h1.47c.78.39,1.47,1.18,1.47,2.16h.01Zm-.69-11.67h-5.49l.49-5h6.67l-1.67,5Zm2.45-7.26h-7.26l.59-5.2h8.43l-1.77,5.2h.01Z"></path><path class="cls-1" d="m77.08,242.91c-.49,0-.98.1-1.47.1-10.89,0-19.71-9.22-19.71-20.6s8.83-20.3,19.71-20.3,19.71,9.12,19.71,20.3c0,5.2-1.86,9.91-4.81,13.53l9.51,4.32c3.63-5.1,5.88-11.28,5.88-18.05,0-16.57-13.53-29.91-30.21-29.91s-30.11,13.34-30.11,29.91,13.53,30.6,30.11,30.6c1.08,0,2.16-.1,3.24-.2-.69-3.24-1.37-6.77-1.86-9.71h.01Z"></path><polygon class="cls-1" points="102.29 267.62 107.39 263.6 96.99 251.63 106.7 247.71 80.22 236.34 86.3 264.29 92.68 255.75 102.29 267.62"></polygon><path class="cls-1" d="m366.3,189.95c-15.1,15.5-15.1,40.6,0,56-15-15.5-15-40.5,0-56Z"></path><path class="cls-1" d="m414.77,184.87c2.14,1.45,4.17,3.14,6.06,5.08-1.89-1.94-3.92-3.63-6.06-5.08Z"></path><path class="cls-1" d="m420.82,189.95c15,15.5,15,40.6,0,56,15.1-15.5,15.1-40.6,0-56Z"></path><path class="cls-1" d="m420.82,189.95c-1.89-1.93-3.92-3.63-6.06-5.08-6.41-4.34-13.78-6.49-21.21-6.49-9.91,0-19.71,3.82-27.26,11.57-15,15.5-15,40.5,0,56,15.1,15.5,39.42,15.5,54.53,0,15-15.4,15-40.5,0-56h0Zm-2.75,53.35c-13.53,13.93-35.5,13.93-49.04,0-13.53-13.93-13.53-36.48,0-50.41,6.77-6.96,15.59-10.49,24.52-10.49s17.75,3.53,24.52,10.49c13.53,13.93,13.53,36.48,0,50.41h0Z"></path></svg> 