<?xml version="1.0" encoding="UTF-8"?> <svg xmlns="http://www.w3.org/2000/svg" id="Layer_1" width="599.76" height="400.32" viewBox="0 0 599.76 400.32"><defs><style>.cls-1{fill:#3a357e;}</style></defs><path class="cls-1" d="m264.69,184.86c1.21-.29,2.35-.57,3.49-.84.35-.08.7-.15,1.04-.23.8-.18.85-.17,1.17.6.46,1.09.76,2.22.79,3.42.01.4.08.79.14,1.39.39-.36.62-.57.85-.79,2.32-2.23,4.97-3.89,8.13-4.58,3.61-.78,7.45.51,9.37,3.99.3.54.66,1.06,1.02,1.63.96-.83,1.82-1.63,2.74-2.36,2.02-1.6,4.19-2.91,6.79-3.31,3.04-.47,5.87-.02,8.18,2.19,1.38,1.32,2.17,3.01,2.6,4.86.12.53.18,1.08.18,1.63.02,8.88.02,17.77.02,26.65,0,.86-.01.87-.88.87-1.29,0-2.58,0-3.87,0-.9,0-.91,0-.91-.92,0-8.5,0-17,0-25.5,0-.73-.04-1.48-.19-2.2-.42-2.14-1.95-3.3-4.04-3.38-2.23-.09-4.13.7-5.84,2.03-1.08.84-2.12,1.74-3.2,2.58-.72.56-1.04,1.19-1.04,2.16.04,8.03.02,16.07.02,24.1,0,.19-.01.38,0,.58.02.37-.13.56-.52.56-1.65,0-3.29,0-4.94,0-.39,0-.53-.21-.51-.57.01-.22,0-.44,0-.66,0-8.06.01-16.12-.01-24.19,0-1.01-.16-2.01-.3-3.01-.27-1.9-2.03-2.76-3.51-2.9-2.43-.23-4.53.64-6.46,1.97-1.12.78-2.16,1.68-3.25,2.51-.36.28-.52.62-.51,1.06,0,.27,0,.55,0,.82,0,7.92,0,15.85,0,23.77,0,.25,0,.49,0,.74-.02.71-.07.77-.74.78-1.32.01-2.64,0-3.95,0-.49,0-.72-.18-.66-.68.02-.19,0-.38,0-.58,0-9.05-.01-18.1-.01-27.15,0-2.21-.33-4.36-1-6.46-.05-.15-.09-.31-.17-.6Z"></path><path class="cls-1" d="m328.5,188.7c.22-.18.46-.35.67-.54,1.58-1.43,3.31-2.6,5.31-3.39,2.53-1,5.11-1.06,7.74-.48,3.47.77,5.88,2.91,7.7,5.84,1.44,2.31,2.22,4.86,2.64,7.53.34,2.12.4,4.26.28,6.39-.21,3.61-.94,7.1-2.75,10.29-1.6,2.83-3.72,5.11-6.87,6.17-3.6,1.22-7.15,1.13-10.58-.71-1.34-.72-2.57-1.56-3.57-2.72-.07-.08-.17-.13-.33-.25-.1.24-.2.42-.24.61-.23.87-.41,1.76-.67,2.62-.06.22-.32.54-.49.54-1.61.04-3.22.02-4.9.02.12-.57.25-1.04.32-1.53.16-1.16.4-2.33.4-3.5.07-12.61.16-25.22.12-37.83,0-2.91-.3-5.85-1.38-8.63-.03-.07-.02-.16-.04-.35,1.77-.4,3.54-.8,5.38-1.21.38.78.46,1.62.59,2.44.51,3.23.51,6.49.5,9.75-.01,2.66,0,5.32,0,7.98v.87c.06.03.12.05.18.08Zm-.18,14.19c0,2.93,0,5.86,0,8.79,0,.43.08.8.37,1.13,1.15,1.33,2.52,2.34,4.15,3.02,1.87.77,3.84.92,5.81.72,2.33-.24,4.26-1.26,5.38-3.42.58-1.11,1.14-2.26,1.51-3.45,1.02-3.28,1.17-6.67.99-10.07-.1-1.8-.3-3.6-.96-5.31-.83-2.15-2.1-3.91-4.35-4.75-1.8-.67-3.7-.68-5.59-.71-.11,0-.22.04-.32.06-2.59.43-4.54,1.93-6.3,3.76-.54.56-.7,1.17-.69,1.93.04,2.77.01,5.53.02,8.3Z"></path><path class="cls-1" d="m421.19,192.1c-.92-1.22-1.83-2.42-2.79-3.69.74-.45,1.42-.89,2.13-1.29,2.04-1.14,4.17-2.05,6.43-2.67,3.14-.86,6.32-1.11,9.52-.55,3.23.56,5.64,2.35,6.95,5.42.31.74.49,1.59.5,2.39.05,3.1.05,6.19,0,9.29-.06,3.53-.21,7.06-.27,10.6-.02,1,.12,2.02.28,3.01.2,1.23.91,2.15,1.93,2.84.18.12.35.25.58.42-.09.17-.16.34-.26.49-.68.93-1.38,1.84-2.04,2.78-.29.41-.57.48-1.03.26-1.78-.86-3.12-2.1-3.83-3.98-.11-.3-.25-.59-.4-.95-.7.58-1.33,1.11-1.97,1.62-1.66,1.34-3.48,2.42-5.59,2.86-4.28.89-8.29.31-11.76-2.57-1.03-.86-1.76-1.95-2.19-3.22-.85-2.5-.91-5.04-.22-7.59.73-2.71,2.44-4.67,4.75-6.17,2.15-1.4,4.56-2.1,7.06-2.54,2.65-.47,5.34-.54,8.03-.51,1.5.01,1.33.05,1.31-1.34-.02-1.45-.02-2.91-.17-4.34-.26-2.46-2.49-4.44-4.98-4.63-2.84-.22-5.5.52-8.05,1.62-1.19.51-2.21,1.41-3.31,2.14-.18.12-.37.21-.61.34Zm15.06,9.9s0-.04,0-.05c-1.07.07-2.13.14-3.2.2-1.57.1-3.1.36-4.57.92-2.02.76-3.71,1.95-4.47,4.07-.84,2.36-.98,4.78-.06,7.15.28.71.77,1.41,1.33,1.93,1.46,1.34,3.31,1.57,5.17,1.32,3.54-.49,6.19-2.36,7.96-5.46.12-.21.22-.45.23-.68.12-2.82.23-5.64.33-8.45,0-.11,0-.22,0-.33.03-.41-.16-.61-.58-.6-.71,0-1.43,0-2.14,0Z"></path><path class="cls-1" d="m508.86,202.91c.08,3.03-.31,5.95-1.34,8.75-1.75,4.76-4.89,8.2-9.92,9.46-3.88.97-7.74.75-11.33-1.24-2.18-1.21-3.87-2.95-5.15-5.08-1.77-2.94-2.62-6.17-2.96-9.56-.3-2.91-.19-5.81.39-8.66,1.02-5.04,3.65-9,8.25-11.48,2.07-1.11,4.33-1.51,6.67-1.48,2.13.03,4.19.33,6.17,1.18,1.56.67,2.92,1.6,4.14,2.77,2.59,2.49,3.94,5.62,4.58,9.09.38,2.08.57,4.17.51,6.25Zm-5.97.53c.05-2.39-.16-4.87-.66-7.32-.36-1.76-.88-3.44-2.05-4.86-1.51-1.83-3.42-2.85-5.82-2.94-1.8-.07-3.57.02-5.19.9-2.43,1.32-3.8,3.42-4.33,6.08-.62,3.11-.62,6.27-.43,9.41.12,1.85.39,3.7.78,5.51.57,2.66,1.99,4.79,4.46,6.1,1.81.97,3.78,1.1,5.76.86.9-.11,1.82-.43,2.64-.83,2.16-1.06,3.34-2.93,4.01-5.17.74-2.49.87-5.06.84-7.75Z"></path><path class="cls-1" d="m224.22,202.42c.07-3.13.44-6.18,1.57-9.1.89-2.29,2.25-4.25,4.09-5.88,1.3-1.15,2.7-2.13,4.32-2.8,1.75-.73,3.57-1.02,5.45-1.02,2.18,0,4.3.32,6.33,1.2,1.97.86,3.63,2.14,5.02,3.76,2.38,2.76,3.42,6.06,3.87,9.6.25,1.96.38,3.92.3,5.89-.12,3.31-.68,6.55-2.19,9.52-2.19,4.32-5.64,7.09-10.5,7.82-3.46.52-6.83.23-9.96-1.54-1.53-.86-2.77-2.04-3.92-3.34-2.29-2.6-3.43-5.7-3.92-9.06-.24-1.67-.32-3.37-.47-5.06Zm24.68-.04c0-.77,0-1.53,0-2.3,0-2.1-.36-4.14-1.16-6.08-.86-2.07-2.14-3.82-4.2-4.88-1.49-.77-3.08-.85-4.72-.81-3.59.09-6.55,2.24-7.68,5.65-.56,1.68-.73,3.42-.8,5.17-.06,1.64-.04,3.29-.01,4.93.04,2.17.29,4.31.85,6.41.68,2.54,2.06,4.58,4.43,5.85,1.82.97,3.78,1.11,5.76.86,2.05-.26,3.81-1.17,5.08-2.87,1.04-1.39,1.62-2.96,1.94-4.65.45-2.41.51-4.84.5-7.28Z"></path><path class="cls-1" d="m380.1,185.17c.82-.24,1.6-.48,2.38-.71.79-.23,1.58-.45,2.36-.71.4-.14.59-.02.76.35.59,1.31.93,2.68,1.03,4.11.02.24.03.48.06.9.36-.28.62-.45.85-.66,1.39-1.29,2.91-2.42,4.6-3.29,3.07-1.57,6.28-2.1,9.62-1.01,2.46.8,4.25,2.42,5.32,4.81.56,1.24.84,2.53.84,3.9,0,8.88,0,17.77,0,26.65,0,.75-.04.79-.8.8-1.26.01-2.53.01-3.79,0-.73,0-.74-.03-.75-.74,0-.69,0-1.37,0-2.06,0-7.54.01-15.08-.02-22.62,0-1.03-.11-2.09-.35-3.09-.48-2-2.32-3.36-4.38-3.49-1.41-.09-2.72.27-4,.76-2.3.88-4.36,2.17-6.19,3.83-.49.44-.69.9-.69,1.57.02,8.2.01,16.4.01,24.6,0,.22-.01.44,0,.66.03.43-.17.59-.58.59-1.4,0-2.8,0-4.2,0-.38,0-.56-.17-.54-.55.01-.22,0-.44,0-.66,0-8.88-.02-17.77.01-26.65,0-2.37-.29-4.64-1.4-6.76-.07-.14-.1-.3-.17-.52Z"></path><path class="cls-1" d="m217.8,173.95c-1.11,1.32-2.12,2.53-3.12,3.73-.99-.55-1.92-1.08-2.87-1.56-2.43-1.23-5.01-1.79-7.72-1.57-4.55.36-7.94,2.6-10.19,6.55-1.35,2.37-2.04,4.95-2.44,7.62-.43,2.88-.59,5.77-.5,8.68.1,2.96.42,5.91,1.42,8.71,1.33,3.73,3.49,6.83,7.2,8.58,1.73.81,3.57,1.2,5.48,1.26,2.38.08,4.73-.06,6.94-1,1.15-.49,2.23-1.15,3.34-1.74.19-.1.35-.25.59-.41,1.04,1.34,2.06,2.65,3.17,4.08-1.27.63-2.45,1.26-3.67,1.79-3.85,1.69-7.9,2.25-12.06,1.89-3.73-.32-7.03-1.77-9.86-4.26-2.06-1.82-3.75-3.92-5.08-6.31-1.11-2-1.87-4.15-2.3-6.39-.3-1.55-.54-3.13-.66-4.7-.14-1.8-.22-3.61-.15-5.41.17-4.08.99-8.02,2.83-11.72,1.06-2.12,2.33-4.09,3.97-5.81,2.6-2.73,5.74-4.61,9.43-5.36,4.61-.93,9.11-.41,13.38,1.63.98.47,1.86,1.12,2.86,1.73Z"></path><path class="cls-1" d="m463.29,174.13c-.44,3.48-.7,6.87-.51,10.36h9.02c-.19.57-.34,1.03-.5,1.48-.26.72-.56,1.43-.77,2.17-.16.57-.46.77-1.05.76-1.87-.03-3.73-.02-5.6,0-.35,0-.7.05-1.1.08-.02.3-.05.54-.05.78,0,7.76-.01,15.51.02,23.27,0,.86.24,1.72.45,2.57.21.85.8,1.4,1.59,1.77,1.63.76,3.29.68,4.98.3.34-.08.68-.16,1.12-.27.19,1.01.38,1.96.56,2.91.07.39-.18.55-.49.64-1.1.31-2.19.77-3.31.89-1.79.2-3.6.25-5.39-.22-2.55-.68-4.31-2.56-4.67-5.14-.14-1.05-.2-2.12-.2-3.19-.02-7.7,0-15.4,0-23.11q0-1.28-1.27-1.28c-.96,0-1.92,0-2.88,0-.73,0-.76-.04-.77-.73-.01-.99-.01-1.97,0-2.96,0-.66.02-.68.71-.68,1.04,0,2.09,0,3.13,0,.68,0,.7-.04.75-.67.22-2.64.44-5.28.66-7.93.03-.32.05-.56.46-.64,1.66-.34,3.3-.73,5.12-1.13Z"></path><path class="cls-1" d="m518.75,185.17c1.67-.5,3.27-.97,4.87-1.45.41-.12.57.14.66.43.31,1.07.64,2.14.88,3.23.15.71.15,1.46.24,2.38.33-.36.57-.59.79-.85,1.37-1.63,2.92-3.05,4.86-3.98,1.77-.85,3.63-1.18,5.58-.95.23.03.45.12.75.21-.74,2.02-1.46,3.96-2.18,5.92-3.2-.73-5.6.61-7.82,2.6-1.57,1.41-2.03,3.22-2.04,5.18-.05,5.78-.02,11.56-.02,17.35,0,1.64,0,3.29,0,4.93,0,.77-.01.79-.78.79-1.21,0-2.41,0-3.62,0-.92,0-.92,0-.92-.91,0-3.21,0-6.41,0-9.62,0-5.59.01-11.18,0-16.77,0-2.22-.08-4.43-.64-6.6-.16-.61-.37-1.2-.59-1.9Z"></path><path class="cls-1" d="m368.61,183.73c.02.29.05.55.05.82,0,11.6,0,23.2,0,34.8,0,.96,0,.97-.95.97-1.24,0-2.47,0-3.71,0-1.03,0-1.03,0-1.03-1.07,0-3.1,0-6.2,0-9.3,0-8.01,0-16.01,0-24.02,0-.25.02-.5,0-.74-.05-.48.17-.67.64-.75,1.49-.23,2.97-.5,4.45-.75.15-.03.32.02.55.03Z"></path><path class="cls-1" d="m361.67,173.34c-.15-2.75,2.35-4.5,4.41-4.51,2.21,0,4.49,1.86,4.48,4.46,0,2.55-2.04,4.49-4.44,4.51-2.4.02-4.57-1.94-4.46-4.46Z"></path><path class="cls-1" d="m159.43,151.11c-.08,0-.16,0-.25,0-31.84,0-63.68,0-95.53,0-1.36,0-1.27-.21-1.27,1.29,0,31.83,0,63.67,0,95.5,0,.22.02.44,0,.66-.05.52.2.69.69.64.14-.02.27,0,.41,0h96.99v-1c0-32.03,0-64.05,0-96.08,0-1.11.04-1.01-1.04-1.01Zm-27.97,24.65c-3.4,6.39-6.8,12.77-10.2,19.16-2.05,3.85-4.09,7.69-6.11,11.55-.22.41-.32.93-.33,1.4-.02,6.03-.01,12.06-.01,18.1,0,.14,0,.27,0,.41,0,1.05,0,1.05-1.03,1.06-1.59,0-3.18,0-4.78,0-.99,0-1-.01-1-1.02,0-6-.02-12.01.02-18.01,0-1.19-.27-2.22-.84-3.27-2.69-4.9-5.3-9.84-7.95-14.77-2.6-4.85-5.21-9.71-7.82-14.56-.14-.26-.25-.53-.43-.91.3-.04.43-.07.56-.07,2.31,0,4.61.01,6.92-.01.52,0,.72.28.91.67,1.09,2.21,2.19,4.42,3.28,6.63,1.98,4.03,3.95,8.07,5.95,12.1.42.85.99,1.63,1.41,2.48.54,1.1,1,2.24,1.5,3.36.04.1.1.19.22.42.38-.77.71-1.44,1.03-2.11.42-.86.82-1.72,1.26-2.57.49-.95,1.03-1.87,1.5-2.83,2.83-5.73,5.65-11.45,8.44-17.2.35-.72.76-.99,1.56-.97,1.75.06,3.51.02,5.27.02.3,0,.59,0,1.05,0-.16.41-.24.68-.38.93Z"></path></svg> 