<?xml version="1.0" encoding="UTF-8"?> <svg xmlns="http://www.w3.org/2000/svg" id="Calque_1" width="100" height="18.95" viewBox="0 0 100 18.95"><defs><style>.cls-1{fill:#3a357e;}</style></defs><g id="g7703"><g id="g7701"><path id="path6" class="cls-1" d="m39.29,11.6c0-2.13,1.32-3.26,4.48-3.26,1.47,0,2.6.31,3.88.83l.02-.83c0-2.21-.54-3.18-3.49-3.18-1.26,0-2.44.25-3.32.64-.25.12-.43.02-.43-.27v-.43c0-.21.08-.35.27-.43.97-.39,2.17-.64,3.72-.64,3.55,0,5.08,1.4,5.08,4.03v5.43c0,.21-.06.33-.23.41-1.49.7-3.18,1.05-5.04,1.05-3.8,0-4.93-1.22-4.93-3.34Zm8.34,1.49v-2.87c-1.22-.5-2.21-.72-3.47-.72-2.23,0-2.97.64-2.97,2.13s.74,2.21,3.08,2.21c1.36,0,2.31-.27,3.37-.74Z"></path><path id="path8" class="cls-1" d="m59.7,5.82c-.97-.43-1.78-.64-3.03-.64-1.01,0-2.02.25-3.08.72v8.44c0,.23-.12.37-.37.37h-1.18c-.23,0-.37-.12-.37-.37V5.53c0-.21.08-.33.27-.43,1.4-.66,3.03-1.07,4.73-1.07,1.26,0,2.27.21,3.18.62.19.08.27.23.27.43v.47c0,.27-.17.37-.41.27Z"></path><path id="path10" class="cls-1" d="m61.42,4.27V1.53c0-.23.12-.37.37-.37h1.2c.23,0,.37.12.37.37v2.75h2.89c.23,0,.37.12.37.37v.41c0,.23-.12.37-.37.37h-2.89v6.48c0,1.3.02,1.94,1.4,1.94.6,0,1.09-.04,1.53-.14.25-.04.41.06.41.31v.37c0,.21-.1.35-.31.41-.54.1-1.2.19-1.82.19-2.33,0-3.12-1.16-3.12-3.06v-7.66h-.04Z"></path><path id="path12" class="cls-1" d="m73.39,13.85c1.11,0,2.11-.19,3.06-.62.25-.12.43-.02.43.27v.45c0,.21-.08.35-.29.41-.99.39-2.13.6-3.22.6-4.11,0-6.09-1.78-6.09-4.91v-1.07c0-3.12,1.98-4.93,5.59-4.93s4.79,1.75,4.79,3.61-1.26,2.62-3.39,2.62h-5.08c0,2.46,1.3,3.57,4.19,3.57Zm.08-4.71c1.53,0,2.31-.37,2.31-1.51,0-1.47-.87-2.48-3.2-2.48s-3.39,1.2-3.39,3.8v.21h4.27v-.02h0Z"></path><path id="path14" class="cls-1" d="m84.95,13.83c1.22,0,2.17-.19,3.03-.58.25-.12.43-.02.43.27v.43c0,.21-.08.35-.27.43-.89.39-1.94.58-3.24.58-3.88,0-5.82-1.8-5.82-4.93v-1.05c0-3.12,1.96-4.93,5.82-4.93,1.3,0,2.35.21,3.24.58.19.08.27.23.27.43v.45c0,.29-.17.37-.43.25-.87-.41-1.84-.6-3.03-.6-2.64,0-3.96,1.01-3.96,3.82v1.05c0,2.79,1.32,3.8,3.96,3.8Z"></path><path id="path16" class="cls-1" d="m98.12,14.35v-5.84c0-2.31-.19-3.34-2.91-3.34-1.34,0-2.25.45-3.2,1.14v8.07c0,.23-.12.37-.37.37h-1.18c-.23,0-.37-.12-.37-.37V.37c0-.23.12-.37.37-.37h1.18c.23,0,.37.12.37.37v4.75c1.05-.62,2.13-1.09,3.59-1.09,3.22,0,4.4,1.36,4.4,4.34v5.99c0,.23-.12.37-.37.37h-1.16c-.21,0-.35-.14-.35-.37Z"></path><g id="g20"><path id="path18" class="cls-1" d="m27.61,5.04c1.34-.7,2.83-1.05,4.71-1.05,4.05,0,5.35,1.82,5.35,4.93v1.05c0,3.14-1.32,4.93-4.89,4.93-1.61,0-2.62-.41-3.61-1.05v4.73c0,.23-.12.37-.37.37h-1.07c-.23,0-.37-.12-.37-.37V5.47c.02-.21.1-.33.27-.43Zm4.62.08c-1.3,0-2.06.23-3.1.72v6.83c.97.66,1.88,1.11,3.39,1.11,2.48,0,3.24-1.36,3.24-3.82v-1.05c.04-2.39-.81-3.8-3.53-3.8Z"></path></g><g id="g24"><path id="path22" class="cls-1" d="m8.35,3.53h0l.58-2.56-1.45.76h0c-1.69.87-3.94,1.49-4.79,1.49-.66,0-.81-.29-.78-.68,0,0-.29.41-.58.93-.19.31-.41.74-.56,1.14-.37.95.45,1.14,2.09.85,1.51-.29,3.78-1.11,5.49-1.92m4.87,5.76l-.64,3.3h0c-2.5,1.24-6.61,2.91-9,2.81-1.18-.04-1.88-.62-2.25-1.4-.1-.14-.33-.64-.5-1.14-.1-.31-.04-.1-.12-.37.31.43.85.58,1.47.58,2.87-.08,6.59-1.63,9.29-2.89h0l1.75-.89Zm6.19,2.42l-1.9,1.05h0c-3.45,1.98-5.64,3.12-8.69,4-1.53.41-3.84.87-4.65.47.17.12.37.27.56.39.33.21,1.16.7,1.51.83,1.45.62,2.58.64,4.65.12,2.87-.91,5.8-2.39,7.93-3.86h0l.6-3.01Zm-2.87-10.69l-.56,3.63h0c-3.59,2.7-9.83,5.2-13.01,5.8-2.02.37-2.83-.37-2.95-1.32-.04-.85-.04-1.07.02-1.69.02-.19.04-.21.08-.39.02.39.43.87,1.49.81,3.24-.27,9.08-2.99,12.88-5.47h0l2.04-1.36Z"></path></g></g></g></svg> 