<?xml version="1.0" encoding="UTF-8"?> <svg xmlns="http://www.w3.org/2000/svg" id="Layer_1" width="599.76" height="400.32" viewBox="0 0 599.76 400.32"><defs><style>.cls-1{fill:#3a357e;}</style></defs><path class="cls-1" d="m179.52,213.74h-18.07s-2.25-4.39-5.44-14.26c-3.6-11.06-10.97-15.1-17.47-15.23h-4.05l.04,29.5h-14.66v-73.88h27.98c19.23-.66,25.91,9.41,27.01,18.5,2.54,20.99-19.68,21.92-19.68,21.92,4.09.9,10.88,3.73,15.24,15.78,3.97,10.97,9.09,17.67,9.09,17.67Zm-19.54-51.68c0-5.57-2.85-10.12-12.6-10.12l-12.86.04v20.11h.75l12.25.09c10.76,0,12.47-5.92,12.47-10.13h0Z"></path><path class="cls-1" d="m228.41,187.02c-.05,11.97-4.95,27.66-27.98,28.1-14.23.31-27.49-8.68-27.91-27.58-.55-20.65,15.77-28.63,27.02-28.63,18.5,0,28.91,12.63,28.86,28.1Zm-16.11-.45c-.05-11.4-5.36-17.36-12.87-17.1-7.03.22-11.2,6.71-11.15,15.57.04,9.16,3.56,17.97,11.28,17.97,8.74.01,12.78-5.11,12.74-16.42h0Z"></path><path class="cls-1" d="m230.22,160.54h15.63l.22,29.21c-.07,11.58,4.05,15.1,10.21,14.38,3.73-.45,7.82-2.5,9.5-7.7.86-2.7.71-5.39.71-12.61l-.03-23.25,15.41.04v53.32l-14.94.04-.05-7.55s-3.88,8.54-16.35,8.54c-9.18,0-16.88-3.9-19.25-14.32-.8-3.51-1.03-10.29-1.03-16.63l-.02-23.47Z"></path><path class="cls-1" d="m336.23,213.82h-15.63l-.22-29.21c.07-11.58-4.05-15.1-10.21-14.38-3.73.45-7.83,2.5-9.5,7.7-.86,2.7-.71,5.37-.71,12.61v23.25l-15.41-.05v-53.32l14.94-.04.05,7.55s3.88-8.54,16.36-8.54c9.18,0,16.88,3.9,19.25,14.33.8,3.5,1.04,10.28,1.04,16.63l.05,23.47Z"></path><path class="cls-1" d="m363.52,159.43c8.69.68,14.09,8.25,14.09,8.25v-27.5l14.85-.03v73.9l-14.14.05h-.69v-7.08c-1.36,1.92-3.06,3.57-5.01,4.89-6.71,4.54-16.31,3.24-19.05,2.27-7.78-2.78-15.9-10.45-15.9-27.2-.01-25.2,16.13-28.3,25.84-27.55Zm4.05,43.14c7.72-1.67,9.65-7.49,9.65-16.15,0-7.82-2.97-14.23-9.3-15.35-9.1-1.61-14.48,5.08-14.48,15.17,0,8.7,3.89,18.55,14.12,16.33h0Z"></path><path class="cls-1" d="m423.76,140.8v72.86l-14.51.16.06-51.88c-.08,0-3.15,5.95-10.38,6.01l-.21-16.07c6.67-.16,11.96-4.94,12.02-10.87l13.01-.22Z"></path><path class="cls-1" d="m479.88,194.43c0,12.26-11.21,20.36-26.31,20.36-11.81,0-22.42-4.79-25.75-17.77l14.04-4.14c.87,6.32,5.99,8.5,12.51,8.33,16.47-.45,15.04-19.25.64-19.25h-5.76l.11-12.65,5.99-.08c11.28,0,12.66-17.64-1.97-17.64-7.4,0-11.43,3.15-11.88,10.16l-14.19-2.42c2.31-14.07,13.4-19.83,25.76-19.83,15.12,0,24.21,8.83,24.62,19.32.51,12.94-9.6,16.9-9.6,16.9,0,0,11.78,3.35,11.78,18.69Z"></path><path class="cls-1" d="m141.51,247.07s-1.15,3.37-6.35,3.22c-2.22-.08-4.25-.68-5.8-2.18-1.71-1.67-2.74-4.92-2.78-7.94-.04-2.98.52-5.91,2.26-7.86,1.71-1.91,3.85-2.3,5.95-2.34,5.24-.08,6.71,3.89,6.71,3.89l4.25-.67s-1.67-7.26-11.08-7.26c-6.99,0-12.62,4.72-12.74,13.62-.16,9.8,5.32,14.89,12.9,14.89,8.97,0,11.08-6.39,11.08-6.39l-4.41-.95Zm25.48,3.14l-.04-6.07c-.08-3.29.4-5.8-1.59-8.06-.6-.71-1.98-1.55-3.41-1.91-3.26-.75-7.86-.44-10.16,1.83-1.27,1.27-1.67,2.86-1.67,2.86l3.81.95c.44-1.43,1.75-2.42,4.09-2.46,1.98-.08,3.53.28,4.33,1.31.71.91.75,1.91.2,2.5-1.27,1.51-5.24,1.27-8.14,1.83-3.3.64-5.56,3.49-5,6.83.48,2.62,2.9,4.72,6.91,4.72,4.96,0,6.59-2.86,6.59-2.86l.24,2.5h4.88l-1.03-3.97Zm-4.05-3.97c0,3.41-4.25,5.6-7.19,4.64-1.75-.6-2.5-2.26-1.47-3.65,1.43-1.98,6.35-.87,8.65-2.7v1.71Zm17.82-12.46c-3.77.28-5.08,2.82-5.08,2.82v-2.5h-4.21v26.72h4.21c-.04-1.23,0-8.93,0-8.93,0,0,1.55,2.5,5.24,2.62,2.82.12,8.26-1.23,8.26-10.16s-5-10.8-8.42-10.56Zm-1.23,16.83c-1.95-.44-3.81-2.34-3.81-6.15,0-4.09,1.35-6.39,3.81-6.87,4.01-.79,5.4,2.66,5.4,6.95,0,4.05-1.83,6.91-5.4,6.07Zm13.3,3.53h4.21l.08-20.09h-4.29v20.09Zm4.29-23.3v-4.29h-4.29v4.29h4.29Zm8.8,13.93v-5.36l-.04-1.87,2.3.04h2.26v-3.41l-2.46-.04-2.1.04.04-2.14.04-5.52-4.25,1.15v4.21l.04,2.34-3.06-.04v3.41l3.06-.04-.04,1.75v8.22c0,3.41-.36,8.38,9.21,6.67l-.83-3.73s-3.77,1.11-4.09-1.31c-.08-.36-.08-2.1-.08-4.37Zm25.1,5.44l-.04-6.07c-.08-3.29.4-5.8-1.59-8.06-.6-.71-1.98-1.55-3.41-1.91-3.26-.75-7.86-.44-10.16,1.83-1.27,1.27-1.67,2.86-1.67,2.86l3.81.95c.44-1.43,1.75-2.42,4.09-2.46,1.98-.08,3.53.28,4.33,1.31.71.91.75,1.91.2,2.5-1.27,1.51-5.24,1.27-8.14,1.83-3.29.64-5.56,3.49-5,6.83.48,2.62,2.9,4.72,6.91,4.72,4.96,0,6.59-2.86,6.59-2.86l.24,2.5h4.88l-1.03-3.97Zm-4.05-3.97c0,3.41-4.25,5.6-7.19,4.64-1.75-.6-2.5-2.26-1.47-3.65,1.43-1.98,6.35-.87,8.65-2.7v1.71Zm12.74,7.94v-27.63h-4.21v27.63h4.21Z"></path></svg> 