<?xml version="1.0" encoding="UTF-8"?> <svg xmlns="http://www.w3.org/2000/svg" id="Layer_1" width="100" height="44.46" viewBox="0 0 100 44.46"><defs><style>.cls-1{fill:#fff;stroke-width:0px;}</style></defs><path class="cls-1" d="m49.8,8.94c4.19-2.49,9.9-4.46,15.37-4.23,11.14.49,15.5,7.86,13.14,15.89-3.44,11.66-18.97,13.6-23.5,12.94,1.9-1.67,3.37-3.54,4.32-5.5,3.37-7.11-1.08-13.83-9.34-19.1"></path><path class="cls-1" d="m32.04,1.24c6.75,1.7,12.88,4.56,17.79,7.7-5.31,3.11-9.31,7.83-10.03,12.29-1.08,6.95,5.93,11.01,15.04,12.32-9.93,7.93-28.41,14.58-44.37,5.6C-9.28,28.07-.54-6.99,32.04,1.24"></path><path class="cls-1" d="m54.81,25.98c-.3.06-.65.06-.85.06-1.31,0-2.07-.72-2.07-2.03,0-1.15.69-1.83,1.77-1.83.46,0,.82.06,1.15.23v3.57h0Zm0-8.82v3.05c-.33-.13-.85-.2-1.38-.2-2.46,0-4.03,1.67-4.03,4.06,0,2.62,1.77,4.03,4.46,4.03,1.11,0,2.43-.13,3.37-.39v-10.55h-2.43Zm-8.32,9.14c-.23.03-.59.06-.79.06-.62,0-1.02-.26-1.02-.79s.39-.79,1.15-.79h.65v1.51h0Zm-.89-6.29c-1.02,0-1.97.23-2.69.65v2.07c.59-.36,1.31-.62,2.23-.62.72,0,1.31.23,1.31.92v.3h-.82c-2.13,0-3.41.75-3.41,2.39,0,1.87,1.54,2.43,3.47,2.43,1.11,0,2.43-.16,3.18-.36v-4.88c0-2.16-1.41-2.88-3.28-2.88"></path><path class="cls-1" d="m98.76,36.56c-.79,0-1.64.16-2.23.49v5.08h1.74v-3.87c.2-.03.39-.06.59-.06.39,0,.79.06,1.15.2v-1.67c-.46-.13-.75-.16-1.24-.16m-6.1,2.39c.1-.59.43-1.02.98-1.02.62,0,.85.49.85,1.02h-1.83Zm1.02-2.43c-1.57,0-2.69,1.08-2.69,2.95,0,1.67,1.08,2.75,2.95,2.75.75,0,1.51-.13,2-.49v-1.41c-.52.26-1.08.43-1.8.43-.62,0-1.31-.23-1.48-.82v-.03h3.44v-.75c0-1.38-.59-2.62-2.43-2.62m-4.78,3.93c-.23.06-.43.13-.75.13-.72,0-1.21-.49-1.21-1.28,0-.89.52-1.28,1.31-1.28.23,0,.49.03.65.1v2.33h0Zm-3.7-1.15c0,1.77,1.11,2.72,2.72,2.72.43,0,.79-.06.98-.16v.13c0,.65-.46.98-1.08.98-.72,0-1.21-.13-1.93-.56v1.61c.62.3,1.24.43,1.93.43,1.21,0,2.82-.49,2.82-2.46v-5.01c-.65-.26-1.41-.43-2.36-.43-1.93-.03-3.08,1.02-3.08,2.75m-2.78-2.78c-.85,0-1.93.2-2.72.52v5.08h1.74v-3.93c.26-.1.59-.13.89-.13.59,0,.79.33.79.79v3.28h1.74v-3.34c-.03-1.74-.98-2.26-2.43-2.26m-4.95,4.42c-.16.03-.43.03-.56.03-.43,0-.72-.2-.72-.56s.26-.56.79-.56h.46v1.08h.03Zm-.62-4.42c-.72,0-1.38.16-1.9.46v1.48c.43-.26.92-.46,1.57-.46.49,0,.92.16.92.65v.23h-.59c-1.51,0-2.39.52-2.39,1.67,0,1.31,1.08,1.7,2.46,1.7.79,0,1.7-.13,2.23-.23v-3.44c.03-1.57-.95-2.07-2.29-2.07m-4.78,0c-.59,0-1.05.13-1.24.23v-2.46h-1.74v7.83h1.74v-3.93c.26-.1.59-.13.89-.13.59,0,.79.33.79.79v3.28h1.74v-3.34c-.03-1.7-1.02-2.26-2.16-2.26m-6.23,2.85c0-.85.52-1.34,1.38-1.34.49,0,.92.13,1.38.49v-1.61c-.46-.3-.92-.39-1.54-.39-1.74,0-2.92,1.18-2.92,2.88s1.08,2.85,2.92,2.85c.56,0,1.11-.1,1.57-.39v-1.57c-.36.33-.82.49-1.31.49-.98-.06-1.48-.62-1.48-1.41m-1.48-2.72h-2l-.89,1.38-.85-1.38h-2.07l1.9,2.65-2.03,2.82h1.93l1.05-1.51,1.05,1.51h2l-2.03-2.82,1.93-2.65Zm-9.37,2.29c.1-.59.43-1.02.98-1.02.62,0,.85.49.85,1.02h-1.83Zm1.05-2.43c-1.54,0-2.69,1.08-2.69,2.95,0,1.67,1.08,2.75,2.95,2.75.75,0,1.51-.13,2-.49v-1.41c-.52.26-1.08.43-1.8.43-.62,0-1.31-.23-1.48-.82v-.03h3.44v-.75c-.03-1.38-.62-2.62-2.43-2.62"></path></svg> 