<?xml version="1.0" encoding="UTF-8"?> <svg xmlns="http://www.w3.org/2000/svg" id="Layer_1" width="100" height="21.21" viewBox="0 0 100 21.21"><defs><style>.cls-1{fill:#fff;}.cls-2{fill:#7c863b;}</style></defs><path class="cls-1" d="m10.38,19.72c-.1-.03-.17-.06-.28-.17-.13-.12-.19-.14-.49-.16-.28-.02-.39-.05-.5-.18-.07-.08-.16-.3-.16-.39,0-.03-.03-.08-.05-.11-.03-.03-.07-.11-.09-.17-.03-.13-.01-.37.03-.42.02-.02,0-.1-.03-.26-.06-.29-.05-.37.12-.78.14-.34.11-.32.52-.22.34.09.71.14.93.14.1,0,.3,0,.45.02h.28v.08c0,.09-.05.19-.11.23-.03.01-.29.08-.58.15-.29.07-.56.13-.59.14q-.06.01.03.05l.08.04,1.09-.19c.6-.11,1.15-.2,1.24-.21h.16s-.01.12-.01.12c0,.09-.03.15-.06.18-.04.04-.34.12-1.2.34-.64.16-1.19.3-1.25.31l-.09.02.11.05.11.05.34-.07c.18-.04.7-.15,1.14-.24s.83-.17.86-.17c.04,0,.05.01.05.09,0,.11-.05.25-.12.29-.03.02-.31.12-.64.22-.32.11-.58.19-.57.2,0,0,.24-.04.52-.11.28-.06.56-.11.61-.11h.1v.2c0,.11-.01.24-.03.3-.03.12-.15.27-.27.34-.1.05-.33.09-.51.09-.17,0-.23.03-.37.15-.07.06-.16.11-.23.14-.12.04-.41.05-.53.02h0Z"></path><path class="cls-1" d="m12.05,16.64c0-.07,0-.08.14-.15.39-.18.6-.39.78-.74.17-.34.19-.41.49-2.15.11-.67.29-1.63.38-2.14.41-2.22.64-3.63.7-4.34.08-.9-.26-1.78-.96-2.47-.72-.72-1.42-1.14-2.2-1.34-.18-.04-.28-.1-.51-.25-.15-.11-.19-.12-.29-.12s-.14.01-.29.12c-.23.16-.29.19-.58.27-.65.17-1.26.53-1.93,1.13-.51.46-.8.86-.99,1.41-.09.26-.16.56-.18.82-.03.3.05.96.27,2.27.11.65.46,2.61.5,2.83.01.05.15.81.3,1.7.29,1.65.32,1.81.44,2.12.16.43.46.74.87.9.06.03.07.04.07.11,0,.08,0,.08-.09.08-.28,0-.86-.34-1.08-.63-.24-.32-.23-.25-1.03-4.41-.4-2.06-.74-3.87-.77-4.03-.05-.37-.05-1.28,0-1.5.19-.94.78-1.7,1.91-2.43.5-.32.86-.49,1.51-.69.22-.07.36-.12.48-.19.23-.14.34-.18.6-.18s.34.03.61.18c.13.08.29.14.49.2.64.19,1.04.37,1.54.71.44.29.62.44.94.76.5.5.77.98.9,1.59.05.25.05,1.07,0,1.5-.04.29-1.4,7.37-1.49,7.77-.11.47-.26.72-.57.97-.22.18-.71.39-.88.39-.06,0-.07,0-.07-.07h0Z"></path><path class="cls-1" d="m10.51,16.26c-.63-.08-1.19-.33-1.54-.68-.17-.18-.23-.32-.24-.62-.02-.36.05-.57.3-.94.3-.43.45-.67.48-.74.04-.11,0-.16-.17-.27-.16-.11-.23-.2-.3-.4-.15-.44.05-.96.5-1.34.17-.14.48-.32.64-.37.21-.07.56-.11.83-.09.57.04,1.02.22,1.38.57l.18.17v.17c0,.24-.09.4-.29.5-.09.04-.33.05-.37,0-.03-.03-.04-.22,0-.3.02-.05,0-.07-.1-.16-.13-.12-.38-.25-.6-.3-.54-.14-1.02.02-1.22.39-.08.16-.08.37,0,.63.06.18.07.19.13.19.04,0,.19-.04.35-.08.3-.09.61-.12.71-.08.04.01.09.07.13.12.06.09.06.12.06.3,0,.19,0,.2-.07.27-.09.09-.26.15-.59.22-.3.06-.39.11-.55.28-.21.23-.49.7-.52.89-.02.13.1.35.29.53.17.17.34.26.62.36.18.06.19.06.69.06h.51v.09c.03.3-.23.55-.64.61-.14.02-.46.03-.61,0h0Z"></path><path class="cls-1" d="m12.19,16.16c0-.05.04-.1.16-.22.11-.11.18-.21.25-.35.17-.34.19-.47.47-2.02.05-.29.11-.61.13-.7l.04-.17h.16v.15c0,.17-.15,1.21-.26,1.86-.13.71-.23,1.02-.43,1.27-.11.14-.3.26-.42.26-.08,0-.09,0-.09-.07h0Z"></path><path class="cls-1" d="m8.14,14.99c-.14-.5-.56-2.75-.86-4.55-.36-2.2-.51-3.46-.45-3.9.08-.68.45-1.31,1.16-2,.31-.3.48-.42.59-.42.07,0,.08,0,.08.07s-.05.12-.34.42c-.36.37-.66.73-.83.99-.2.31-.35.71-.4,1.06-.06.51.2,2.42.8,5.7.39,2.17.45,2.51.45,2.64v.12h-.08c-.07,0-.08,0-.11-.13h0Z"></path><path class="cls-2" d="m9.87,21.19c-3.79-.26-7.18-2.56-8.84-6.01C-.03,12.96-.28,10.45.31,8.03c.27-1.11.77-2.25,1.41-3.23C3.04,2.79,5.02,1.27,7.31.52c2.33-.76,4.89-.69,7.17.21.64.25,1.38.64,1.95,1.01,2.58,1.7,4.29,4.43,4.69,7.47.34,2.67-.32,5.37-1.85,7.52-.37.52-.67.87-1.18,1.38-.68.68-1.28,1.15-2.03,1.6-1.86,1.11-4.01,1.62-6.19,1.48h0Zm.97-1.56c.07-.02.16-.07.23-.14.14-.12.2-.15.37-.15.19,0,.41-.04.51-.09.12-.06.25-.21.27-.34.04-.15.03-.36,0-.36-.02,0-.28.05-.58.12l-.55.13-.1-.04c-.05-.02-.1-.05-.11-.06s.24-.11.64-.24c.36-.11.68-.23.7-.25.04-.03.12-.17.12-.22,0,0-.11,0-.24.04-.67.15-2.03.42-2.09.42-.06,0-.42-.18-.42-.2,0,0,.59-.16,1.31-.34.95-.23,1.33-.34,1.36-.37.03-.03.06-.08.07-.11.02-.06.01-.07-.06-.05-.04,0-.57.1-1.19.21-.61.11-1.13.2-1.16.2-.06,0-.38-.15-.38-.19,0,0,.06-.03.15-.04.28-.05,1.19-.27,1.24-.3.03-.01.06-.05.08-.09l.04-.06h-.28c-.15-.02-.36-.03-.45-.03-.22,0-.6-.05-.93-.14-.15-.04-.27-.06-.27-.06-.03.03-.23.54-.26.63-.03.1-.03.14.01.31.05.2.06.36.03.38s-.05.19-.02.3c.01.06.05.13.08.15.03.03.05.08.05.11,0,.09.09.31.16.39.11.12.21.16.5.18.3.02.36.04.49.16.05.05.12.11.15.12.14.06.35.08.53.03h0Zm-2.01-3.11c-.42-.21-.64-.46-.8-.94-.1-.27-.12-.37-.41-2.04-.15-.88-.29-1.65-.3-1.7-.05-.22-.4-2.18-.5-2.83-.34-2.06-.35-2.51-.09-3.24.2-.55.48-.95.99-1.41.66-.6,1.28-.96,1.93-1.13.29-.07.34-.1.58-.27l.17-.12h.38l.17.12c.22.15.33.2.51.25.78.19,1.48.62,2.2,1.34.72.72,1.05,1.61.96,2.6-.06.73-.29,2.12-.7,4.35-.1.51-.27,1.47-.38,2.14-.3,1.74-.31,1.8-.49,2.15-.17.34-.33.51-.7.71-.21.11-.14.11.15-.02.57-.25.86-.59,1.01-1.23.1-.41,1.46-7.48,1.49-7.77.05-.43.05-1.12,0-1.36-.13-.62-.4-1.1-.9-1.59-.32-.32-.5-.47-.94-.76-.5-.34-.91-.52-1.54-.71-.19-.06-.35-.12-.49-.2-.26-.15-.36-.18-.55-.18s-.31.04-.53.18c-.11.07-.26.13-.48.19-.65.19-1.02.36-1.51.69-.82.53-1.33,1.06-1.67,1.7-.08.16-.19.5-.24.73-.04.21-.04,1,0,1.36.02.16.37,1.97.77,4.03.81,4.16.79,4.09,1.03,4.41.16.21.5.45.83.57.22.07.23.06.03-.04h0Zm2.23-.35c.21-.03.4-.12.5-.24.09-.1.15-.24.13-.3,0-.02-.13-.03-.51-.03-.5,0-.51,0-.69-.06-.27-.1-.44-.19-.62-.36-.31-.29-.37-.55-.2-.91.16-.34.44-.7.63-.82.06-.04.19-.08.36-.11.34-.07.5-.13.59-.22.06-.06.07-.09.07-.2,0-.11-.01-.15-.06-.23-.11-.17-.23-.18-.7-.04-.18.05-.33.08-.42.08h-.14l-.06-.2c-.05-.17-.07-.24-.07-.42,0-.19,0-.23.06-.34.16-.31.51-.47.99-.44.41.02.75.15.98.37l.13.12-.04.13c-.05.16-.03.21.08.22.19.02.44-.24.44-.46,0-.08-.02-.11-.12-.22-.42-.44-1.11-.68-1.74-.61-.32.04-.49.09-.72.23-.45.27-.75.64-.83,1.01-.04.17-.03.24.02.4.06.19.13.29.29.4.16.11.19.15.19.27,0,.12-.1.31-.34.65-.4.55-.46.7-.46,1.03,0,.17.01.25.05.35.22.56,1.41,1.07,2.19.95h0Zm1.36-.09c.22-.12.39-.4.5-.8.07-.26.19-.92.31-1.75.15-1.05.09-1-.1.09-.27,1.55-.3,1.68-.47,2.02-.07.15-.14.24-.25.35-.09.09-.15.15-.14.15,0,0,.07-.03.13-.07h0Zm-4.27-1.85c-.07-.39-.21-1.2-.32-1.8-.61-3.4-.87-5.27-.8-5.83.09-.7.4-1.23,1.24-2.09.32-.33.34-.37.13-.21-.13.1-.57.53-.73.72-.43.52-.69,1.04-.75,1.55-.05.39.1,1.66.45,3.79.3,1.83.72,4.09.86,4.56.07.28.05.02-.08-.68h0Z"></path><path d="m62.8,12.01v-3.68h.23v1.68s.06-.14.06-.14c.19-.5.55-.96.96-1.23,1.02-.69,2.41-.55,3.3.33.61.61.92,1.56.82,2.51-.13,1.26-.89,2.19-2.02,2.5-.16.04-.25.05-.64.05-.4,0-.47,0-.65-.05-.6-.16-1.11-.51-1.44-.99-.16-.23-.19-.29-.29-.55l-.08-.19v1.73s0,1.72,0,1.72h-.23v-3.69h0Zm3,1.79c1.1-.14,1.89-.94,2.1-2.13.05-.28.05-.81,0-1.09-.14-.77-.52-1.38-1.08-1.76-.18-.12-.52-.27-.73-.33-.26-.06-.67-.08-.93-.05-.79.11-1.46.61-1.84,1.36-.1.19-.22.58-.26.81-.05.28-.04.82.02,1.11.12.58.39,1.07.79,1.44.53.51,1.21.73,1.94.64h0Z"></path><path d="m32.71,10.24c-.19-.96-.7-1.67-1.48-2.06-.78-.39-1.8-.38-2.6.02-.8.41-1.34,1.14-1.54,2.1-.07.31-.07.98-.01,1.29.15.77.53,1.4,1.1,1.82.36.28.87.5,1.33.58.28.05,1.09.03,1.35-.03.22-.05.49-.15.65-.23.23-.11.61-.39.81-.59l.21-.21-.12-.11c-.07-.06-.25-.22-.4-.35l-.28-.25-.06.05c-.27.22-.37.29-.54.39-.6.35-1.45.34-1.99,0-.38-.25-.64-.65-.73-1.11l-.02-.11h4.38v-.18c.02-.28-.02-.77-.07-1.03Zm-4.32.31l.02-.11c.03-.18.15-.51.25-.68.12-.21.35-.44.53-.55.42-.25.96-.26,1.42-.04.15.07.22.13.36.27.25.27.39.58.47,1.03v.09s-3.04,0-3.04,0h0Z"></path><path d="m38.23,5.77v3.15l-.18-.19c-.32-.34-.77-.64-1.14-.74-.24-.06-.62-.11-.87-.09-1.03.08-1.81.6-2.26,1.5-.25.49-.31.79-.33,1.43-.01.55.02.86.14,1.23.35,1.06,1.12,1.75,2.16,1.94.13.02.3.03.53.02.55-.01.89-.13,1.28-.42.18-.14.47-.42.59-.58l.06-.08v.98h1.36V5.77h-1.37Zm-.12,6.2c-.23.47-.62.79-1.11.91-.25.06-.69.06-.94,0-.5-.13-.93-.5-1.13-.97-.13-.31-.15-.41-.16-.86,0-.35,0-.45.04-.65.13-.64.55-1.13,1.15-1.33.16-.05.21-.06.55-.06.33,0,.39,0,.54.05.61.19,1.03.64,1.2,1.29.04.16.05.25.05.61,0,.5-.04.66-.2,1Z"></path><path d="m55.15,10.38c-.25-1.26-1.22-2.2-2.51-2.43-.33-.06-.95-.05-1.27.01-.43.09-.82.25-1.17.49-.89.6-1.4,1.62-1.34,2.69.07,1.46,1.1,2.6,2.58,2.87.27.04,1.06.03,1.32-.03,1.24-.29,2.14-1.2,2.39-2.43.06-.27.06-.88,0-1.16Zm-1.25.74c-.04.69-.31,1.2-.83,1.55-.35.23-.87.33-1.36.26-.39-.05-.7-.21-.98-.5-.42-.42-.6-.93-.57-1.61.04-.77.39-1.33,1.02-1.63.55-.26,1.3-.23,1.82.08.21.12.51.42.64.64.2.34.3.75.27,1.22Z"></path><path d="m70.18,14c-.72-.15-1.21-.54-1.41-1.12-.06-.18-.06-.23-.07-.51,0-.33.04-.52.16-.76.24-.47.76-.82,1.43-.96.74-.15,1.82-.06,2.62.21l.16.05v-.39c0-.44-.04-.69-.14-.97-.18-.5-.6-.85-1.19-1.01-.21-.05-.27-.06-.68-.06-.39,0-.48,0-.69.05-.28.06-.55.15-.87.29-.12.05-.23.1-.23.1-.03-.06-.08-.19-.08-.19,0-.02.49-.22.71-.3.4-.14.69-.19,1.17-.19.47,0,.71.04,1.04.17.56.22.97.7,1.11,1.29.08.35.1.65.09,2.46v1.73h-.24v-.64c.01-.35.01-.63,0-.62,0,0-.04.07-.09.15-.3.57-.84.97-1.57,1.16-.16.04-.27.05-.65.06-.32.01-.49,0-.61-.02h0Zm.85-.2c.87-.1,1.58-.57,1.89-1.26.13-.28.15-.41.15-.93v-.46l-.13-.05c-1.01-.36-2.27-.41-3.03-.11-.44.18-.78.5-.91.86-.11.3-.11.69,0,.99.23.68,1.05,1.06,2.02.96h0Z"></path><path d="m91.85,12.74c-.25.35-.66.69-1.06.88-.3.14-.54.19-.91.19-.7,0-1.23-.23-1.7-.73-.43-.45-.68-1.06-.73-1.77v-.12s4.79,0,4.79,0v-.27c-.04-.5-.17-1-.37-1.41-.27-.52-.64-.89-1.12-1.11-.21-.1-.43-.16-.72-.19-.9-.09-1.78.32-2.29,1.07-.23.34-.4.77-.48,1.19-.05.3-.05.97,0,1.27.11.57.37,1.11.74,1.49.37.39.81.63,1.34.74.29.06.8.06,1.09,0,.57-.12,1.14-.49,1.51-.98l.14-.19-.19-.14-.03.05Zm-4.34-2.64c.27-.93.95-1.57,1.81-1.72.23-.04.65-.04.86-.01.67.11,1.23.55,1.59,1.26.17.34.29.82.29,1.19v.22s-2.33,0-2.33,0c-1.51,0-2.34,0-2.35-.02-.04-.05.04-.65.13-.92Z"></path><path d="m45.39,13.97c-.44-.08-.9-.24-1.25-.42-.28-.15-.63-.39-.61-.42.03-.05.57-.86.58-.88,0,0,.11.04.21.11.58.39,1.28.61,1.83.58.29-.01.46-.06.61-.18.13-.1.21-.24.23-.39.04-.36-.21-.57-1.02-.81-.72-.22-1.04-.33-1.24-.43-.45-.23-.72-.51-.85-.9-.07-.19-.09-.63-.04-.89.11-.52.43-.93.95-1.18.66-.32,1.5-.33,2.39-.03.26.09.76.33.86.41l.06.05-.23.4c-.12.22-.25.44-.27.48l-.04.07-.28-.14c-.55-.28-.97-.4-1.4-.4-.17,0-.28.01-.38.04-.34.11-.54.43-.42.7.04.11.23.27.42.36.09.04.45.17.8.29.73.25,1.11.42,1.37.62.4.32.56.66.57,1.16,0,.91-.51,1.52-1.49,1.76-.27.08-1.03.09-1.37.03h0Z"></path><path d="m79.36,13.99c-.4-.07-.73-.31-.89-.67-.15-.32-.14-.19-.15-2.59v-2.18s-.43,0-.43,0h-.42v-.21h.85v-1.94h.23v1.94h1.99v.21h-1.99v2.15c.01,1.91.02,2.17.05,2.27.14.47.39.71.8.79.09.02.25.03.39.02.24,0,.42-.05.68-.17.04-.01.04,0,.04.11v.13l-.18.06c-.3.11-.66.13-.96.09h0Z"></path><path d="m97.63,13.98c-.41-.07-.82-.21-1.18-.42-.19-.11-.52-.34-.52-.37,0-.01.06-.1.13-.19,0,0,.04.02.09.06.36.32.96.59,1.49.69.29.05.81.04,1.07-.04.66-.18,1.07-.62,1.07-1.18,0-.58-.36-.93-1.27-1.21-1.41-.45-1.65-.54-1.93-.77-.28-.22-.4-.45-.42-.79-.02-.26.02-.43.13-.66.15-.31.42-.55.79-.69.52-.21,1.18-.23,1.81-.04.31.09.73.29.94.45l.05.04-.05.1c-.03.05-.06.1-.07.1s-.08-.04-.15-.09c-.97-.64-2.24-.67-2.87-.05-.41.4-.46.96-.11,1.34.24.26.55.42,1.17.61.83.26,1.05.33,1.22.4.57.24.89.56.97.96.02.07.02.23.02.39-.01.31-.05.42-.22.68-.19.29-.58.54-1.03.65-.28.07-.8.09-1.11.04h0Z"></path><path d="m41.1,10.98v-2.95h1.36v5.89h-1.36v-2.94Z"></path><path d="m56.17,10.98v-2.95h1.36v.44s0,.44,0,.44l.08-.11c.18-.25.57-.59.82-.71.55-.27,1.4-.26,1.99.03.57.28.93.82,1.04,1.56.03.19.04.58.04,2.24v2h-1.36v-1.86c-.02-1.86-.02-1.87-.07-2.03-.07-.25-.15-.39-.3-.54-.23-.25-.52-.35-.92-.35-.42,0-.71.12-.97.41-.14.15-.24.32-.3.54-.04.12-.04.31-.05,1.99v1.85h-1.36v-2.95Z"></path><path d="m74.78,11.13v-2.79h.23v.87s0,.87,0,.87l.05-.15c.07-.2.25-.55.36-.73.39-.58.96-.93,1.61-1l.17-.02v.24h-.11c-.17,0-.45.07-.63.15-.24.11-.42.25-.65.49-.31.32-.5.65-.65,1.1-.15.45-.15.5-.15,2.22v1.54h-.23v-2.79h0Z"></path><path d="m81.5,11.13v-2.79h.23v1.49s.06-.14.06-.14c.26-.68.8-1.19,1.46-1.39.37-.11.92-.11,1.33,0,.82.23,1.36.91,1.51,1.89.03.18.04.56.04,1.98v1.76h-.23v-1.71c0-1.85,0-1.97-.13-2.39-.1-.34-.24-.59-.5-.84-.19-.19-.25-.24-.44-.33-.28-.14-.52-.2-.84-.21-.58-.03-1.06.15-1.49.57-.31.3-.52.65-.65,1.09-.1.34-.11.52-.11,2.22v1.61h-.23v-2.79h0Z"></path><path d="m93.4,13.9s-.02-1.26-.02-2.79v-2.78h.23v.87c0,.48,0,.86.02.85.01-.01.04-.09.07-.17.03-.08.11-.25.17-.38.39-.76,1.03-1.23,1.78-1.29l.18-.02v.23h-.19c-.35.04-.65.16-.97.42-.57.45-.96,1.22-1.03,2.02-.01.14-.02.89-.02,1.66v1.4h-.1c-.06,0-.11-.01-.12-.02h0Z"></path><path d="m41.05,6.47v-.64h1.45v1.27h-1.45v-.64Z"></path></svg> 