<?xml version="1.0" encoding="UTF-8"?> <svg xmlns="http://www.w3.org/2000/svg" id="Layer_1" width="100" height="20.65" viewBox="0 0 100 20.65"><defs><style>.cls-1{fill:#3a357e;}</style></defs><path class="cls-1" d="m42.59,7.11c.26-.06.5-.12.74-.18.07-.02.15-.03.22-.05.17-.04.18-.04.25.13.1.23.16.47.17.72,0,.08.02.17.03.29.08-.08.13-.12.18-.17.49-.47,1.05-.82,1.71-.96.76-.16,1.57.11,1.97.84.06.11.14.22.22.34.2-.17.38-.34.58-.5.43-.34.88-.61,1.43-.7.64-.1,1.24,0,1.72.46.29.28.46.63.55,1.02.03.11.04.23.04.34,0,1.87,0,3.74,0,5.61,0,.18,0,.18-.19.18-.27,0-.54,0-.81,0-.19,0-.19,0-.19-.19,0-1.79,0-3.58,0-5.37,0-.15,0-.31-.04-.46-.09-.45-.41-.69-.85-.71-.47-.02-.87.15-1.23.43-.23.18-.45.37-.67.54-.15.12-.22.25-.22.45,0,1.69,0,3.38,0,5.07,0,.04,0,.08,0,.12,0,.08-.03.12-.11.12-.35,0-.69,0-1.04,0-.08,0-.11-.04-.11-.12,0-.05,0-.09,0-.14,0-1.7,0-3.39,0-5.09,0-.21-.03-.42-.06-.63-.06-.4-.43-.58-.74-.61-.51-.05-.95.13-1.36.42-.24.16-.46.35-.69.53-.08.06-.11.13-.11.22,0,.06,0,.12,0,.17,0,1.67,0,3.34,0,5.01,0,.05,0,.1,0,.16,0,.15-.01.16-.16.16-.28,0-.55,0-.83,0-.1,0-.15-.04-.14-.14,0-.04,0-.08,0-.12,0-1.91,0-3.81,0-5.72,0-.46-.07-.92-.21-1.36-.01-.03-.02-.07-.04-.13Z"></path><path class="cls-1" d="m56.02,7.91s.1-.07.14-.11c.33-.3.7-.55,1.12-.71.53-.21,1.08-.22,1.63-.1.73.16,1.24.61,1.62,1.23.3.49.47,1.02.56,1.59.07.45.09.9.06,1.34-.04.76-.2,1.49-.58,2.17-.34.6-.78,1.07-1.45,1.3-.76.26-1.51.24-2.23-.15-.28-.15-.54-.33-.75-.57-.01-.02-.04-.03-.07-.05-.02.05-.04.09-.05.13-.05.18-.09.37-.14.55-.01.05-.07.11-.1.11-.34,0-.68,0-1.03,0,.03-.12.05-.22.07-.32.03-.25.08-.49.08-.74.02-2.65.03-5.31.02-7.96,0-.61-.06-1.23-.29-1.82,0-.02,0-.03,0-.07.37-.08.75-.17,1.13-.26.08.16.1.34.12.51.11.68.11,1.37.11,2.05,0,.56,0,1.12,0,1.68v.18s.03.01.04.02Zm-.04,2.99c0,.62,0,1.23,0,1.85,0,.09.02.17.08.24.24.28.53.49.87.63.39.16.81.19,1.22.15.49-.05.9-.27,1.13-.72.12-.23.24-.48.32-.73.21-.69.25-1.4.21-2.12-.02-.38-.06-.76-.2-1.12-.17-.45-.44-.82-.92-1-.38-.14-.78-.14-1.18-.15-.02,0-.05,0-.07.01-.55.09-.96.41-1.33.79-.11.12-.15.25-.15.41,0,.58,0,1.16,0,1.75Z"></path><path class="cls-1" d="m75.54,8.63c-.19-.26-.39-.51-.59-.78.16-.09.3-.19.45-.27.43-.24.88-.43,1.35-.56.66-.18,1.33-.23,2-.12.68.12,1.19.49,1.46,1.14.07.16.1.33.11.5.01.65.01,1.3,0,1.96-.01.74-.04,1.49-.06,2.23,0,.21.03.43.06.63.04.26.19.45.41.6.04.03.07.05.12.09-.02.04-.03.07-.05.1-.14.2-.29.39-.43.59-.06.09-.12.1-.22.05-.37-.18-.66-.44-.81-.84-.02-.06-.05-.12-.08-.2-.15.12-.28.23-.41.34-.35.28-.73.51-1.18.6-.9.19-1.74.07-2.48-.54-.22-.18-.37-.41-.46-.68-.18-.53-.19-1.06-.05-1.6.15-.57.51-.98,1-1.3.45-.3.96-.44,1.49-.54.56-.1,1.12-.11,1.69-.11.32,0,.28,0,.28-.28,0-.31,0-.61-.04-.91-.06-.52-.52-.93-1.05-.97-.6-.05-1.16.11-1.69.34-.25.11-.47.3-.7.45-.04.02-.08.04-.13.07Zm3.17,2.08s0,0,0-.01c-.22.01-.45.03-.67.04-.33.02-.65.08-.96.19-.43.16-.78.41-.94.86-.18.5-.21,1.01-.01,1.5.06.15.16.3.28.41.31.28.7.33,1.09.28.75-.1,1.3-.5,1.68-1.15.02-.04.05-.1.05-.14.03-.59.05-1.19.07-1.78,0-.02,0-.05,0-.07,0-.09-.03-.13-.12-.13-.15,0-.3,0-.45,0Z"></path><path class="cls-1" d="m94,10.91c.02.64-.07,1.25-.28,1.84-.37,1-1.03,1.73-2.09,1.99-.82.21-1.63.16-2.38-.26-.46-.25-.82-.62-1.08-1.07-.37-.62-.55-1.3-.62-2.01-.06-.61-.04-1.22.08-1.82.21-1.06.77-1.89,1.74-2.42.43-.23.91-.32,1.4-.31.45,0,.88.07,1.3.25.33.14.62.34.87.58.55.52.83,1.18.96,1.91.08.44.12.88.11,1.32Zm-1.26.11c0-.5-.03-1.02-.14-1.54-.08-.37-.19-.73-.43-1.02-.32-.39-.72-.6-1.23-.62-.38-.01-.75,0-1.09.19-.51.28-.8.72-.91,1.28-.13.66-.13,1.32-.09,1.98.02.39.08.78.16,1.16.12.56.42,1.01.94,1.28.38.2.8.23,1.21.18.19-.02.38-.09.56-.17.45-.22.7-.62.84-1.09.16-.52.18-1.07.18-1.63Z"></path><path class="cls-1" d="m34.07,10.8c.02-.66.09-1.3.33-1.92.19-.48.47-.89.86-1.24.27-.24.57-.45.91-.59.37-.15.75-.22,1.15-.21.46,0,.91.07,1.33.25.42.18.76.45,1.06.79.5.58.72,1.27.81,2.02.05.41.08.83.06,1.24-.03.7-.14,1.38-.46,2-.46.91-1.19,1.49-2.21,1.65-.73.11-1.44.05-2.1-.32-.32-.18-.58-.43-.83-.7-.48-.55-.72-1.2-.82-1.91-.05-.35-.07-.71-.1-1.06Zm5.2,0c0-.16,0-.32,0-.48,0-.44-.08-.87-.24-1.28-.18-.44-.45-.8-.88-1.03-.31-.16-.65-.18-.99-.17-.76.02-1.38.47-1.62,1.19-.12.35-.15.72-.17,1.09-.01.35,0,.69,0,1.04,0,.46.06.91.18,1.35.14.54.43.96.93,1.23.38.2.8.23,1.21.18.43-.05.8-.25,1.07-.6.22-.29.34-.62.41-.98.1-.51.11-1.02.11-1.53Z"></path><path class="cls-1" d="m66.89,7.17c.17-.05.34-.1.5-.15.17-.05.33-.09.5-.15.08-.03.12,0,.16.07.12.28.2.56.22.87,0,.05,0,.1.01.19.08-.06.13-.09.18-.14.29-.27.61-.51.97-.69.65-.33,1.32-.44,2.02-.21.52.17.89.51,1.12,1.01.12.26.18.53.18.82,0,1.87,0,3.74,0,5.61,0,.16,0,.17-.17.17-.27,0-.53,0-.8,0-.15,0-.16,0-.16-.16,0-.14,0-.29,0-.43,0-1.59,0-3.17,0-4.76,0-.22-.02-.44-.07-.65-.1-.42-.49-.71-.92-.74-.3-.02-.57.06-.84.16-.49.19-.92.46-1.3.81-.1.09-.15.19-.15.33,0,1.73,0,3.45,0,5.18,0,.05,0,.09,0,.14,0,.09-.04.12-.12.12-.29,0-.59,0-.88,0-.08,0-.12-.04-.11-.12,0-.05,0-.09,0-.14,0-1.87,0-3.74,0-5.61,0-.5-.06-.98-.29-1.42-.02-.03-.02-.06-.03-.11Z"></path><path class="cls-1" d="m32.72,4.81c-.23.28-.45.53-.66.78-.21-.11-.4-.23-.6-.33-.51-.26-1.06-.38-1.62-.33-.96.08-1.67.55-2.15,1.38-.28.5-.43,1.04-.51,1.6-.09.61-.13,1.22-.11,1.83.02.62.09,1.24.3,1.83.28.78.73,1.44,1.52,1.81.36.17.75.25,1.15.27.5.02,1-.01,1.46-.21.24-.1.47-.24.7-.37.04-.02.07-.05.12-.09.22.28.43.56.67.86-.27.13-.52.26-.77.38-.81.36-1.66.47-2.54.4-.78-.07-1.48-.37-2.08-.9-.43-.38-.79-.83-1.07-1.33-.23-.42-.39-.87-.49-1.34-.06-.33-.11-.66-.14-.99-.03-.38-.05-.76-.03-1.14.04-.86.21-1.69.6-2.47.22-.45.49-.86.84-1.22.55-.58,1.21-.97,1.99-1.13.97-.2,1.92-.09,2.82.34.21.1.39.24.6.36Z"></path><path class="cls-1" d="m84.4,4.85c-.09.73-.15,1.45-.11,2.18h1.9c-.04.12-.07.22-.11.31-.05.15-.12.3-.16.46-.03.12-.1.16-.22.16-.39,0-.79,0-1.18,0-.07,0-.15,0-.23.02,0,.06,0,.11,0,.16,0,1.63,0,3.27,0,4.9,0,.18.05.36.1.54.04.18.17.29.33.37.34.16.69.14,1.05.06.07-.02.14-.03.24-.06.04.21.08.41.12.61.02.08-.04.12-.1.13-.23.07-.46.16-.7.19-.38.04-.76.05-1.13-.05-.54-.14-.91-.54-.98-1.08-.03-.22-.04-.45-.04-.67,0-1.62,0-3.24,0-4.86q0-.27-.27-.27c-.2,0-.4,0-.61,0-.15,0-.16,0-.16-.15,0-.21,0-.42,0-.62,0-.14,0-.14.15-.14.22,0,.44,0,.66,0,.14,0,.15,0,.16-.14.05-.56.09-1.11.14-1.67,0-.07.01-.12.1-.14.35-.07.7-.15,1.08-.24Z"></path><path class="cls-1" d="m96.08,7.17c.35-.1.69-.2,1.02-.3.09-.03.12.03.14.09.07.23.14.45.18.68.03.15.03.31.05.5.07-.08.12-.13.17-.18.29-.34.61-.64,1.02-.84.37-.18.76-.25,1.17-.2.05,0,.1.03.16.04-.16.43-.31.83-.46,1.25-.67-.15-1.18.13-1.65.55-.33.3-.43.68-.43,1.09,0,1.22,0,2.43,0,3.65,0,.35,0,.69,0,1.04,0,.16,0,.17-.16.17-.25,0-.51,0-.76,0-.19,0-.19,0-.19-.19,0-.67,0-1.35,0-2.02,0-1.18,0-2.35,0-3.53,0-.47-.02-.93-.13-1.39-.03-.13-.08-.25-.13-.4Z"></path><path class="cls-1" d="m64.47,6.87c0,.06,0,.12,0,.17,0,2.44,0,4.88,0,7.33,0,.2,0,.2-.2.2-.26,0-.52,0-.78,0-.22,0-.22,0-.22-.23,0-.65,0-1.3,0-1.96,0-1.69,0-3.37,0-5.06,0-.05,0-.1,0-.16,0-.1.04-.14.13-.16.31-.05.62-.11.94-.16.03,0,.07,0,.12,0Z"></path><path class="cls-1" d="m63.01,4.68c-.03-.58.5-.95.93-.95.47,0,.94.39.94.94,0,.54-.43.95-.93.95-.51,0-.96-.41-.94-.94Z"></path><path class="cls-1" d="m20.43,0s-.03,0-.05,0C13.68,0,6.97,0,.27,0-.02,0,0-.04,0,.27c0,6.7,0,13.4,0,20.11,0,.05,0,.09,0,.14,0,.11.04.15.14.13.03,0,.06,0,.09,0h20.42v-.21c0-6.74,0-13.48,0-20.23,0-.23,0-.21-.22-.21Zm-5.89,5.19c-.72,1.34-1.43,2.69-2.15,4.03-.43.81-.86,1.62-1.29,2.43-.05.09-.07.2-.07.3,0,1.27,0,2.54,0,3.81,0,.03,0,.06,0,.09,0,.22,0,.22-.22.22-.34,0-.67,0-1.01,0-.21,0-.21,0-.21-.21,0-1.26,0-2.53,0-3.79,0-.25-.06-.47-.18-.69-.57-1.03-1.12-2.07-1.67-3.11-.55-1.02-1.1-2.04-1.65-3.07-.03-.05-.05-.11-.09-.19.06,0,.09-.02.12-.02.49,0,.97,0,1.46,0,.11,0,.15.06.19.14.23.47.46.93.69,1.4.42.85.83,1.7,1.25,2.55.09.18.21.34.3.52.11.23.21.47.32.71,0,.02.02.04.05.09.08-.16.15-.3.22-.44.09-.18.17-.36.26-.54.1-.2.22-.39.32-.6.59-1.21,1.19-2.41,1.78-3.62.07-.15.16-.21.33-.2.37.01.74,0,1.11,0,.06,0,.12,0,.22,0-.03.09-.05.14-.08.2Z"></path></svg> 