<?xml version="1.0" encoding="UTF-8"?> <svg xmlns="http://www.w3.org/2000/svg" xmlns:xlink="http://www.w3.org/1999/xlink" id="Layer_1" width="599.76" height="400.32" viewBox="0 0 599.76 400.32"><defs><style>.cls-1{fill:url(#linear-gradient);}.cls-2{fill:#404042;}</style><linearGradient id="linear-gradient" x1="49.88" y1="201.84" x2="153.13" y2="201.84" gradientTransform="translate(0 402) scale(1 -1)" gradientUnits="userSpaceOnUse"><stop offset="0" stop-color="#41bab5"></stop><stop offset=".51" stop-color="#1f6f90"></stop><stop offset="1" stop-color="#282357"></stop></linearGradient></defs><path class="cls-2" d="m190.18,208.56l-3.25,9.8c-.1.35-.3.5-.65.5h-5.95c-.35,0-.5-.2-.4-.6l12.25-34.85c.25-.6.4-1.2.55-3.2,0-.25.1-.4.35-.4h8.25c.3,0,.35.05.4.35l13.75,38.2c.05.35,0,.55-.35.55h-6.65c-.3,0-.5-.1-.6-.35l-3.45-9.95h-14.2l-.05-.05Zm12.3-6.5c-1.25-3.95-4.05-12.2-5.25-16.35h-.05c-.95,4-3.35,10.95-5.1,16.35h10.4Z"></path><path class="cls-2" d="m218.28,190.06s-.1-.55.3-.55h7.15c.4,0,.55.05.7.4l5.65,10.3h.1l5.95-10.4c.2-.3.25-.3.55-.3h6.3c.35,0,.5.2.3.5-2.1,3.35-6.65,10.65-9,13.9,2.55,4,7.5,11.4,9.6,14.45.25.25.1.5-.3.5h-7.3c-.35,0-.6-.2-.75-.5l-5.95-10.35h-.05l-6.15,10.45s-.25.35-.65.35h-6.35c-.3,0-.5-.3-.3-.55,2.5-3.75,6.6-10.3,9.15-14.05l-8.9-14.2-.05.05Z"></path><path class="cls-2" d="m255.88,205.86c.2,4.15,2.9,7.5,9,7.5,2.7,0,5.1-.5,7.4-1.45.2-.1.35-.05.35.25v4.95c0,.35-.1.55-.35.65-2.25,1.05-4.9,1.75-8.95,1.75-10.85,0-14.7-7.6-14.7-14.95,0-8.25,5-15.6,14-15.6s12.2,6.9,12.2,12.55c0,1.65-.05,3.05-.25,3.7-.05.25-.2.35-.5.4-.85.2-3.2.25-6.15.25h-12.1.05Zm8.85-5.1c2.25,0,3.05,0,3.25-.05v-.5c0-1.75-1.2-5.55-5.7-5.55-4.1,0-5.95,3.15-6.45,6.05h8.85l.05.05Z"></path><path class="cls-2" d="m291.28,194.71c-3.15,0-4.2,1.3-4.2,2.55s.9,2.2,4.7,3.7c6.8,2.5,9.1,5.2,9.1,9.4,0,5.6-4.4,9.1-11.7,9.1-3.5,0-6.6-.65-8.4-1.65-.3-.2-.4-.3-.4-.65v-5.65c0-.3.25-.4.5-.3,2.55,1.65,5.85,2.4,8.5,2.4,3.1,0,4.6-1.05,4.6-2.6s-1.15-2.45-4.8-3.95c-6.5-2.4-8.8-5.05-8.8-9.35s3.7-8.75,11.15-8.75c3.45,0,6.05.5,7.5,1.2.3.2.35.4.35.7v5.25c0,.3-.2.5-.55.35-1.85-1-4.8-1.75-7.45-1.75h-.1Z"></path><path class="cls-2" d="m317.18,194.71c-3.15,0-4.2,1.3-4.2,2.55s.9,2.2,4.7,3.7c6.8,2.5,9.1,5.2,9.1,9.4,0,5.6-4.4,9.1-11.7,9.1-3.5,0-6.6-.65-8.4-1.65-.3-.2-.4-.3-.4-.65v-5.65c0-.3.25-.4.5-.3,2.55,1.65,5.85,2.4,8.5,2.4,3.1,0,4.6-1.05,4.6-2.6s-1.15-2.45-4.8-3.95c-6.5-2.4-8.8-5.05-8.8-9.35s3.7-8.75,11.15-8.75c3.45,0,6.05.5,7.5,1.2.3.2.35.4.35.7v5.25c0,.3-.2.5-.55.35-1.85-1-4.8-1.75-7.45-1.75h-.1Z"></path><path class="cls-2" d="m347.63,214.01c1.25-4.2,4.3-13.7,11.65-34.1.05-.25.2-.35.5-.35h4.35s.35.1.3.4l-14.15,38.55c-.1.3-.25.35-.55.35h-4.7c-.3,0-.4-.05-.55-.3l-14.45-38.6s-.05-.4.3-.4h4.6c.3,0,.35.05.4.3,6.85,18.2,11.15,30.3,12.2,34.15,0,0,.1,0,.1,0Z"></path><path class="cls-2" d="m370.23,205.01c-.05,5.65,3.2,10.1,9.95,10.1,2.6,0,5.1-.5,7.45-1.6.2-.1.3,0,.3.25v3.4c0,.35-.1.5-.3.6-2,1-4.65,1.75-8.4,1.75-10.3,0-14-7.55-14-14.8,0-8.35,4.9-15.3,13.15-15.3s11.6,6.9,11.6,11.95c0,1.5-.1,2.55-.25,3.1,0,.2-.2.35-.4.35-.9.2-3.5.25-6.15.25h-12.95v-.05Zm11.15-3.7c2.9,0,3.65-.05,3.8-.1.05-.2.05-.5.05-.65,0-2.15-1.45-7.1-7-7.1-4.95,0-7.4,3.85-7.9,7.85,0,0,11.05,0,11.05,0Z"></path><path class="cls-2" d="m397.23,196.66c0-2-.1-5.35-.25-6.35,0-.25.05-.35.35-.35h3.7c.3,0,.4.1.55.35.2.55.25,1.65.35,2.95,2.6-2.6,5.65-3.95,9.1-3.95,4.25,0,9.7,2.1,9.7,11.5v17.6c0,.3-.1.4-.4.4h-4.15c-.3,0-.4-.1-.4-.5v-17.1c0-4.5-1.95-7.55-6.15-7.55-3.05,0-5.55,1.35-7.45,3.65v21.05c0,.3-.05.4-.35.4h-4.2s-.35-.1-.35-.4v-21.8l-.05.1Z"></path><path class="cls-2" d="m442.78,218.01s-.05.5-.35.6c-1.35.6-2.85.85-4.45.85-4.35,0-6.95-2.1-6.95-7.8v-17.45h-4.05c-.35-.05-.4-.2-.4-.5v-3.4c0-.3.1-.4.4-.4h4.05c.05-2.2.3-6.3.55-7.6.05-.25.2-.35.4-.4l4.05-.65s.35,0,.35.25c-.2,2.1-.35,5.55-.35,8.45h6.3s.35.1.35.4v3.5s-.1.35-.35.35h-6.3v16.7c0,2.75,1,4.3,3.65,4.3.9,0,1.8-.1,2.8-.5.2-.05.35-.05.35.25v3.05h-.05Z"></path><path class="cls-2" d="m472.03,212.56c0,3.15.2,4.65.35,5.95,0,.25-.05.35-.35.35h-3.8c-.3,0-.35-.05-.5-.3-.2-.65-.3-1.75-.35-2.55-2.5,2.55-5.65,3.45-8.65,3.45-5.05,0-9.8-2.55-9.8-11.2v-17.95c0-.3.1-.35.4-.35h4.2s.3.1.3.35v17.35c0,4.6,2.15,7.4,6.3,7.4,2.85,0,5.1-1.05,6.9-3.05v-21.7s.1-.35.4-.35h4.15c.35,0,.35.1.35.35v22.25h.1Z"></path><path class="cls-2" d="m485.48,189.96c.35,0,.4.1.55.4.25.7.4,2.8.5,4.1,2.1-2.85,5.75-5.1,9.6-5.1.3,0,.4.05.4.4v4.3c0,.3-.05.35-.4.35-4.1-.05-7.85,1.95-9.35,4.35v19.75c-.05.3-.2.35-.4.35h-4.25c-.3,0-.4-.1-.4-.4v-20.55c0-2.5-.1-5.95-.3-7.6,0-.25.05-.35.3-.35h3.8-.05Z"></path><path class="cls-2" d="m505.23,205.01c-.05,5.65,3.2,10.1,9.95,10.1,2.6,0,5.1-.5,7.45-1.6.2-.1.3,0,.3.25v3.4c0,.35-.1.5-.3.6-2,1-4.65,1.75-8.4,1.75-10.3,0-14-7.55-14-14.8,0-8.35,4.9-15.3,13.15-15.3s11.6,6.9,11.6,11.95c0,1.5-.1,2.55-.25,3.1,0,.2-.2.35-.4.35-.9.2-3.5.25-6.15.25h-12.95v-.05Zm11.15-3.7c2.9,0,3.65-.05,3.8-.1.05-.2.05-.5.05-.65,0-2.15-1.45-7.1-7-7.1-4.95,0-7.4,3.85-7.9,7.85,0,0,11.05,0,11.05,0Z"></path><path class="cls-2" d="m541.13,193.46c-3.95,0-5.25,1.9-5.25,3.7s1.05,3.05,5.55,4.8c6,2.3,8.45,4.75,8.45,9,0,5.45-4.45,8.5-10.65,8.5-3.25,0-6.25-.7-7.95-1.75-.2-.1-.3-.25-.3-.55v-4c0-.3.2-.4.35-.3,2.4,1.65,5.4,2.4,8.05,2.4,3.8,0,5.65-1.65,5.65-3.85s-1.3-3.5-5.4-5.1c-5.95-2.25-8.45-4.7-8.45-8.95s3.65-8.05,10.1-8.05c3.25,0,5.7.6,6.95,1.3.3.1.3.35.3.6v3.65c0,.3-.2.5-.5.3-1.65-1-4.4-1.75-6.9-1.75v.05Z"></path><path class="cls-1" d="m124.38,228.91h-5.5l-21.75-57.35h-5.4l-2.35-6.35h12.7l19.15,48.25h1.4l18.1-46.95c-9.45-11-23.5-18-39.15-18-28.55,0-51.7,23.15-51.7,51.65,0,8.75,2.2,17,6.05,24.25h5.75l21.05-52.85h-6.6v-6.35h9.8l3.1,8.7-10.35,27.1h26.2l2.2,6.35h-30.9l-5.85,17h5.9v6.35h-16.4c9.4,12.8,24.55,21.1,41.65,21.1,28.55,0,51.65-23.15,51.65-51.65,0-9.7-2.65-18.75-7.3-26.5l-21.5,55.2.05.05Z"></path></svg> 