<?xml version="1.0" encoding="UTF-8"?> <svg xmlns="http://www.w3.org/2000/svg" id="Layer_1" width="599.76" height="400.32" viewBox="0 0 599.76 400.32"><defs><style>.cls-1{fill:#003462;}</style></defs><path class="cls-1" d="m389.73,180.51l-6.24-.57c-2.7-.27-5.4-.49-8.11-.81-3.73-.43-7.21-.84-11.13-1.41-3.92-.57-7.86-1.11-11.75-1.86-5.54-1.08-11.19-2.35-16.59-3.57-1-.22-1.95-.62-2.92-.92-.02,0-.03,0-.05-.01.02-.02.03-.02.05-.04,2.45-2.58,4.45-5.56,5.89-8.81,1.54-3.52,1.95-7.42,1.19-11.19-.81-3.64-2.45-7.04-4.78-9.94-2.98-3.75-6.5-7.03-10.46-9.73-3.15-2.19-6.54-3.97-9.94-5.74,1.02-.5,2.02-1,3.12-1.45,5.15-2.28,10.55-4.26,16.06-5.9,7.06-2.14,14.3-3.93,21.56-5.33,5.43-1.13,10.86-2.02,16.1-2.66l14.25-1.58c2.19-.03,3.96-1.85,3.94-4.39-.22-2.07-1.95-3.59-4.67-3.59h-.03l-6.19.53c-4.32.39-8.74.79-12.73,1.22-4.73.53-9.47,1.1-14.17,1.9-5.87.98-11.75,2.12-17.6,3.32-8.99,1.85-17.89,4.32-26.47,7.35-1.37.49-2.73,1.02-4.09,1.56l-5.06,1.95c-7.81-2.78-15.76-5.2-23.85-7.01-6.46-1.51-12.97-2.73-19.51-3.76-4.22-.68-8.46-1.24-12.7-1.78-3.38-.43-6.78-.78-10.19-1.08-4.51-.38-9-.73-13.51-1.08h-1.19c-.3.35-.46.81-.43,1.27v20.53c.03,1.03.19,1.32,1.08,1.32l7.43.62c2.3.19,4.57.38,6.94.51,3.46.43,6.81.81,10.35,1.35,3.54.54,7.19,1.08,10.81,1.73,4.14.74,8.27,1.56,12.37,2.46,2.95.65,5.86,1.46,8.78,2.19.02,0,.03,0,.05.01l-.07.18c-.16.25-.33.5-.51.73-2.27,2.45-4.09,5.28-5.4,8.35-1.84,4.29-2.01,9.1-.49,13.51,1.25,3.5,3.2,6.71,5.73,9.43,2.66,2.92,5.64,5.53,8.89,7.78,3.16,2.18,6.53,4.02,9.93,5.79-1.07.52-2.14,1.05-3.23,1.53-5.24,2.3-10.64,4.28-16.07,5.9-7.1,2.15-14.33,3.94-21.55,5.33-5.65,1.15-11.09,2.05-16.12,2.65l-14.29,1.58c-2.2.07-3.92,1.85-3.9,4.44.25,2.05,1.97,3.54,4.71,3.54h.04l6.87-.67c4.09-.37,8.25-.75,12.01-1.17,4.74-.52,9.48-1.09,14.17-1.89,5.88-.98,11.75-2.12,17.6-3.32,8.93-1.83,17.84-4.31,26.46-7.35,1.35-.48,2.68-1,4.02-1.52l5.51-2.13c4.84,1.76,9.69,3.48,14.66,4.8,8.32,2.24,16.75,4,25.24,5.4,5,.81,10,1.51,15.02,2.19,3.57.46,7.3.84,10.81,1.19,3.51.35,7,.59,10.51.86l3.67.3s.07.01.11.02c.52.05.98-.33,1.03-.85.02-.23.02-.47,0-.7v-19.94c.02-.23.02-.47,0-.7-.08-.62-.32-.89-.97-.89Zm-89.27-23.59c-3.07-2.42-5.42-5.63-6.78-9.29-.61-1.73-.85-3.57-.7-5.4,0-.02,0-.04.02-.06,0,0,0,0,.01,0,2.24,1.05,4.54,2.03,6.73,3.19,4.05,2.05,7.71,4.79,10.81,8.11,2.28,2.35,3.83,5.3,4.49,8.51.14,1.11.21,2.23.22,3.35,0,.03,0,.02,0,.05-.92-.35-1.83-.62-2.69-1.02-4.34-1.92-8.41-4.42-12.08-7.43Z"></path><path class="cls-1" d="m221.7,294.73c1.32.04,2.63-.21,3.84-.73,1.24-.61,2.38-1.42,3.37-2.38l2.77,2.82c-2.47,2.88-6.08,4.51-9.87,4.46-3.58.1-7.05-1.26-9.6-3.77-2.52-2.48-3.88-5.89-3.77-9.42-.08-3.57,1.34-7.02,3.93-9.49,2.64-2.54,6.19-3.9,9.85-3.77,3.8-.06,7.42,1.56,9.92,4.43l-2.75,2.99c-1-1.02-2.17-1.85-3.47-2.46-1.21-.49-2.51-.73-3.82-.71-2.43-.07-4.78.84-6.54,2.51-1.76,1.66-2.72,3.98-2.66,6.39-.07,2.44.86,4.79,2.59,6.52,1.61,1.69,3.85,2.65,6.19,2.64"></path><path class="cls-1" d="m247.89,292.92l-2.58,5.81h-4.6l11.35-25.55h4.6l11.18,25.62h-4.6l-2.54-5.82-12.8-.07Zm11.06-3.95l-4.6-10.55-4.71,10.52,9.31.03Z"></path><path class="cls-1" d="m296.05,275.56c1.78,1.49,2.66,3.79,2.65,6.88-.01,3.09-.93,5.36-2.75,6.79-1.82,1.43-4.61,2.14-8.36,2.13h-4.54v7.53h-4.31l.09-25.57h8.78c3.88,0,6.7.75,8.47,2.26m-3.09,10.54c.95-1.14,1.41-2.61,1.28-4.09.15-1.45-.46-2.88-1.63-3.77-1.58-.85-3.36-1.24-5.15-1.11h-4.39v10.24h5.01c2.39,0,4.02-.45,4.89-1.36"></path><rect class="cls-1" x="300.45" y="284.03" width="25.57" height="4.31" transform="translate(25.95 598.41) rotate(-89.8)"></rect><polygon class="cls-1" points="339.49 277.44 339.41 299.06 335.1 299.04 335.18 277.43 327.42 277.4 327.44 273.44 347.26 273.52 347.25 277.46 339.49 277.44"></polygon><path class="cls-1" d="m360.8,293.34l-2.58,5.81h-4.6l11.35-25.59h4.6l11.18,25.6h-4.6l-2.54-5.83h-12.8Zm11.07-3.97l-4.6-10.55-4.71,10.52,9.31.03Z"></path><polygon class="cls-1" points="391.61 299.24 391.7 273.67 396.01 273.69 395.93 295.16 407.61 295.2 407.59 299.29 391.61 299.24"></polygon><path class="cls-1" d="m175.49,250.43c1.31.04,2.6-.21,3.8-.73,1.23-.62,2.36-1.43,3.34-2.4l2.74,2.8c-2.42,2.86-5.99,4.51-9.74,4.49-3.55.1-6.98-1.25-9.51-3.73-2.49-2.45-3.84-5.83-3.73-9.33-.1-3.54,1.29-6.96,3.84-9.43,2.61-2.51,6.13-3.86,9.75-3.73,3.76-.06,7.35,1.55,9.82,4.38l-2.71,2.96c-.99-1-2.16-1.81-3.43-2.4-1.2-.49-2.49-.72-3.79-.7-2.39-.07-4.72.82-6.45,2.46-1.74,1.64-2.69,3.94-2.63,6.33-.07,2.41.86,4.75,2.56,6.45,1.59,1.68,3.81,2.62,6.13,2.61"></path><path class="cls-1" d="m218.49,237.36c0,4.18-1.83,6.8-5.49,7.88l6.59,9.22h-5.44l-6.01-8.53h-5.6v8.51h-4.27l.09-25.32h9.42c3.86,0,6.62.66,8.29,1.99,1.67,1.32,2.49,3.42,2.48,6.28m-5.7,3.56c.95-.94,1.43-2.26,1.31-3.6,0-1.65-.44-2.79-1.32-3.41-.88-.62-2.47-.93-4.77-.93h-5.44v9.05h5.32c2.41,0,4.06-.37,4.93-1.11"></path><path class="cls-1" d="m253.42,251.04c-5.34,5-13.64,5-18.98,0-2.52-2.44-3.9-5.82-3.8-9.33-.07-3.51,1.33-6.9,3.87-9.33,5.34-5,13.64-5,18.98,0,2.52,2.44,3.9,5.82,3.8,9.33.07,3.51-1.33,6.9-3.87,9.33m-3.08-15.85c-3.42-3.51-9.04-3.58-12.55-.16-.05.05-.1.1-.16.16-1.72,1.73-2.66,4.09-2.61,6.53-.06,2.43.86,4.79,2.56,6.53,3.42,3.51,9.04,3.58,12.55.16.05-.05.1-.1.16-.16,1.72-1.73,2.66-4.09,2.61-6.53.06-2.43-.86-4.79-2.56-6.53"></path><path class="cls-1" d="m278.02,232.68c-1.07-.05-2.14.21-3.07.75-.77.5-1.22,1.37-1.17,2.29-.05.94.4,1.84,1.18,2.36,1.6.84,3.31,1.44,5.08,1.77,2.13.42,4.14,1.33,5.86,2.67,1.38,1.29,2.1,3.14,1.96,5.03.05,2.09-.88,4.08-2.52,5.37-1.87,1.43-4.18,2.15-6.53,2.04-3.94.03-7.75-1.44-10.63-4.13l2.69-3.22c2.15,2.06,4.98,3.26,7.95,3.36,1.18.08,2.35-.22,3.34-.86.78-.53,1.23-1.41,1.22-2.35.04-.92-.39-1.8-1.16-2.31-1.21-.73-2.54-1.24-3.93-1.5-1.44-.33-2.85-.75-4.23-1.25-.93-.36-1.79-.85-2.56-1.47-1.55-1.27-2.39-3.22-2.23-5.22-.1-2.12.87-4.15,2.57-5.41,1.84-1.3,4.07-1.96,6.32-1.87,1.64,0,3.26.28,4.81.81,1.5.49,2.9,1.25,4.12,2.26l-2.29,3.22c-.89-.76-1.92-1.33-3.04-1.68-1.22-.43-2.5-.65-3.79-.66"></path><path class="cls-1" d="m308.57,232.78c-1.07-.05-2.14.21-3.07.75-.79.49-1.25,1.37-1.2,2.29-.05.94.4,1.84,1.18,2.36,1.6.84,3.31,1.44,5.08,1.77,2.14.43,4.15,1.35,5.87,2.69,1.38,1.29,2.1,3.14,1.96,5.03.05,2.09-.88,4.08-2.52,5.37-1.87,1.43-4.18,2.15-6.53,2.04-3.91,0-7.67-1.47-10.53-4.13l2.69-3.22c2.15,2.03,4.96,3.21,7.92,3.3,1.16.07,2.31-.24,3.28-.88.78-.53,1.23-1.41,1.22-2.35.04-.91-.39-1.77-1.14-2.28-1.21-.73-2.54-1.24-3.93-1.5-1.44-.33-2.85-.75-4.23-1.25-.93-.36-1.79-.85-2.56-1.47-1.55-1.27-2.39-3.22-2.23-5.22-.1-2.12.87-4.15,2.57-5.41,1.84-1.3,4.07-1.96,6.32-1.87,1.64,0,3.26.28,4.81.81,1.5.49,2.9,1.25,4.12,2.26l-2.29,3.22c-.89-.76-1.92-1.33-3.04-1.68-1.22-.43-2.5-.65-3.79-.66"></path><polygon class="cls-1" points="330.95 254.84 331.04 229.53 335.31 229.55 335.24 250.81 346.79 250.84 346.78 254.9 330.95 254.84"></polygon><rect class="cls-1" x="348.62" y="240.15" width="25.32" height="4.27" transform="translate(117.73 602.72) rotate(-89.8)"></rect><polygon class="cls-1" points="397.09 229.76 401.36 229.77 401.28 255.09 396.65 255.07 382.36 236.55 382.3 255.02 378.02 255 378.12 229.69 382.39 229.7 397.03 248.66 397.09 229.76"></polygon><polygon class="cls-1" points="416.03 229.83 420.31 229.83 420.26 242.19 431.9 229.87 437.33 229.9 427.11 240.94 437.38 255.22 432.32 255.2 423.95 244.08 420.24 248.06 420.21 255.15 415.94 255.14 416.03 229.83"></polygon></svg> 