<?xml version="1.0" encoding="UTF-8"?> <svg xmlns="http://www.w3.org/2000/svg" id="Layer_1" width="599.76" height="400.32" viewBox="0 0 599.76 400.32"><defs><style>.cls-1{fill:#3a357e;}</style></defs><path class="cls-1" d="m242.61,247.06c-.05-.5-.14-1.01-.16-1.51-.02-.75.21-1.03.94-1.25.92-.28,1.84-.56,2.76-.86.25-.08.49-.2.73-.32.82-.43,1.26-1.1,1.27-2.04,0-.24,0-.48,0-.73,0-16.43,0-32.86,0-49.29,0-.8-.04-1.6-.15-2.38-.34-2.28-1.41-2.71-3.02-3.11-.63-.16-1.28-.22-1.93-.3-.98-.13-1.38-.65-1.26-1.64.04-.31.08-.62.12-.93.14-.03.23-.06.32-.06,1.21-.08,2.41-.15,3.62-.23,2.44-.15,4.83-.61,7.21-1.14.75-.17,1.52-.31,2.28-.37.87-.06,1.3.37,1.33,1.26.02.63-.02,1.26-.05,1.89-.07,1.69-.15,3.38-.23,5.08,0,.14,0,.29,0,.49.31-.1.42-.35.57-.53,1.71-2.12,3.67-3.98,5.89-5.57,1.95-1.39,4.14-2.15,6.5-2.47,1.57-.21,3.13-.16,4.69-.07.01.06.02.08.02.1-.01.04-.03.08-.03.07.69-.09,1.36.11,2.03.29,4.1,1.11,7.18,3.6,9.4,7.16,1.51,2.42,2.49,5.04,3.01,7.86.38,2.04.52,4.08.48,6.14-.1,5.1-1.87,9.59-5.01,13.55-2.79,3.52-6.3,6.03-10.59,7.42-2.19.71-4.41.95-6.72.74-2.15-.2-4.28-.43-6.34-1.08-1.28-.41-2.54-.9-3.85-1.37-.01.13-.05.29-.05.44,0,5.67,0,11.34,0,17.01,0,1.11.23,2.14,1.14,2.85.47.36,1.02.64,1.58.85,1.29.49,2.66.69,4.02.89.86.13,1.73.21,2.59.32.91.11,1.32.57,1.28,1.51-.02.46-.08.91-.12,1.37h-1.74c-.12-.05-.23-.13-.35-.14-2.32-.1-4.64-.26-6.96-.28-3.41-.03-6.82.04-10.23.07-.31,0-.62,0-.9,0-.01-.03,0,.01.02.05,0,.02,0,.04,0,.03-1.28.09-2.55.17-3.82.26h-.29Zm13.79-31.76c.24.23.43.41.62.6,1.3,1.29,2.77,2.34,4.36,3.23,2.42,1.35,5.03,1.77,7.77,1.65.9-.04,1.78-.2,2.62-.51,2.61-.95,4.44-2.77,5.71-5.19,1-1.9,1.6-3.93,1.91-6.04.53-3.55.5-7.08-.18-10.62-.5-2.63-1.35-5.13-2.82-7.39-1.43-2.18-3.25-3.89-5.76-4.78-2.44-.86-4.79-.7-7.05.61-1.72,1-3.18,2.28-4.39,3.86-1.81,2.37-2.87,4.98-2.83,8.04.07,5.06.02,10.13.02,15.19,0,.43,0,.87,0,1.34Z"></path><path class="cls-1" d="m324.48,247.06c-.05-.48-.13-.96-.14-1.44-.02-.82.24-1.1,1.03-1.33.97-.28,1.94-.58,2.89-.92,1.34-.47,1.87-1.46,1.87-2.86-.02-13.04,0-26.08,0-39.11,0-3.47.02-6.93-.01-10.4,0-.89-.11-1.79-.25-2.66-.22-1.37-1.03-2.27-2.39-2.61-.7-.18-1.42-.31-2.13-.39-1.5-.17-2.05-.83-1.5-2.53.01-.04.05-.08.11-.18.2,0,.44,0,.68,0,2.45,0,4.86-.36,7.28-.68,1.24-.16,2.44-.57,3.67-.82.61-.13,1.24-.2,1.86-.22.66-.02,1,.28,1.06.94.06.6.04,1.21.01,1.81-.06,1.77-.14,3.53-.21,5.3,0,.24,0,.48,0,.8.55-.64,1.05-1.23,1.56-1.81,1.71-1.94,3.61-3.65,5.81-5.01,1.73-1.07,3.63-1.66,5.65-1.91,1.64-.2,3.29-.25,4.92,0,3.51.55,6.5,2.1,8.96,4.68,2.2,2.31,3.64,5.05,4.56,8.07,1.07,3.49,1.36,7.06.98,10.69-.24,2.29-.77,4.52-1.77,6.61-1.32,2.77-3.01,5.3-5.25,7.42-3.06,2.89-6.62,4.83-10.76,5.64-1.68.33-3.37.26-5.06.1-1.91-.18-3.8-.44-5.62-1.03-1.31-.42-2.59-.92-3.92-1.4-.01.16-.04.34-.04.53,0,5.67,0,11.34,0,17.01,0,1.79.71,2.88,2.39,3.49,1.01.37,2.07.64,3.13.84,1.23.23,2.49.34,3.74.49.98.12,1.38.54,1.35,1.52-.01.46-.09.91-.14,1.37h-.44c-.16-.03-.33-.08-.49-.09-2.51-.12-5.03-.27-7.54-.33-4.84-.1-9.69-.1-14.52.31-.29.02-.57.07-.86.11h-.44Zm13.81-31.69c.86.74,1.71,1.53,2.64,2.23,1.49,1.13,3.1,2.04,4.9,2.59,2.07.63,4.19.69,6.32.51.22-.02.46.03.64-.06.98-.46,2.02-.77,2.92-1.38,2.1-1.42,3.45-3.41,4.38-5.73,1.11-2.78,1.48-5.69,1.58-8.65.08-2.47-.15-4.93-.72-7.34-.64-2.76-1.66-5.35-3.44-7.59-1.52-1.89-3.36-3.3-5.76-3.93-2.4-.62-4.59-.23-6.66,1.08-2.3,1.45-4.08,3.39-5.38,5.78-.97,1.78-1.5,3.65-1.43,5.69.03.97,0,1.94,0,2.91,0,4.58,0,9.16,0,13.89Z"></path><path class="cls-1" d="m509.88,221.76c-.19.23-.43.27-.73.28-3.1.1-6.19.31-9.22,1.03-.89.21-1.78.43-2.67.63-.21.05-.43.06-.65.07-.98.01-1.42-.4-1.44-1.4-.02-1.62,0-3.25,0-4.87,0-.82,0-1.65,0-2.6-.41.53-.74.96-1.08,1.39-.76.97-1.48,1.98-2.3,2.9-2.2,2.43-4.89,4.06-8.12,4.76-2.27.49-4.57.6-6.85.18-4.78-.88-8.34-3.54-10.86-7.64-1.52-2.47-2.54-5.15-2.98-8.02-.46-3.05-.62-6.12-.07-9.18.87-4.85,3.17-8.94,6.63-12.38,2.83-2.82,6.22-4.73,10.12-5.65.93-.22,1.88-.35,2.86-.39,4.11-.15,8,.8,11.78,2.28.26.1.53.2.86.33,0-.27,0-.48,0-.7,0-5.82,0-11.63,0-17.45,0-1.02-.1-2.02-.36-3.01-.33-1.25-1.11-2.03-2.32-2.36-.88-.24-1.79-.41-2.69-.54-1-.15-1.38-.52-1.35-1.51.01-.38.06-.77.1-1.2.21-.02.39-.05.58-.06,1.93-.11,3.87-.18,5.8-.33,2.15-.17,4.23-.7,6.32-1.2.46-.11.96-.15,1.44-.15.79,0,1.21.42,1.22,1.22.02.77,0,1.55-.06,2.32-.14,1.76-.33,3.52-.48,5.27-.04.41-.03.82-.03,1.23,0,16.48,0,32.96,0,49.43,0,.6.05,1.21.15,1.81.2,1.2.93,2.03,2.06,2.41.96.32,1.96.52,2.95.69.59.1,1.03.33,1.37.8v1.6Zm-14.71-31.91c-1.51-1.56-3.17-2.85-5.04-3.84-2.41-1.27-4.99-1.75-7.71-1.63-1.35.06-2.62.4-3.83.97-2.26,1.07-3.69,2.92-4.73,5.11-1.36,2.85-2,5.89-2.07,9.04-.05,2.25.01,4.5.41,6.73.45,2.57,1.21,5.02,2.54,7.27,1.42,2.41,3.29,4.36,5.98,5.36,2.33.87,4.64.85,6.86-.38,1.76-.97,3.25-2.27,4.48-3.86,1.98-2.55,3.18-5.37,3.13-8.68-.06-3.73-.01-7.46-.01-11.2v-4.91Z"></path><path class="cls-1" d="m90.07,234.99c.57-.58,2-2.02,2.96-3.06,1.33-1.44,2.62-2.91,3.72-4.55,1.29-1.92,2.31-3.97,2.84-6.23.35-1.5.65-3.02.66-4.58,0-1.43.03-2.86.03-4.29,0-7.83,0-15.66-.01-23.48,0-.53-.02-1.07-.02-1.6,0-.98-.27-1.91-.53-2.84-.46-1.67-.97-3.33-1.4-5.01-.42-1.65-.57-3.33-.58-5.03,0-.17.01-.34.03-.51.1-.95.58-1.42,1.53-1.52,1.48-.15,2.88.16,4.26.66,1.7.62,3.39,1.27,5.09,1.87,2.15.76,4.35,1.3,6.64,1.33,2.28.03,4.55.08,6.83.09,3.03.02,6.06,0,9.09.01.15,0,.29-.01.44,0,.62.07.95.49.85,1.1-.17,1.05-.97,1.84-2.03,1.94-1.73.16-3.47.28-5.21.44-2.48.22-4.96.44-7.43.7-1.49.16-2.97.39-4.45.6-.31.04-.62.11-.92.19-.43.11-.79.32-1.09.67-1.75,1.99-2.81,4.25-2.81,6.96.01,5.5.03,11-.03,16.5-.03,2.83-.15,5.66-.32,8.49-.2,3.28-.91,6.45-2.42,9.4-1.1,2.15-2.55,4.05-4.23,5.77-2,2.05-4.19,3.88-6.45,5.63-1.11.86-2.24,1.69-3.36,2.53-.15.11-.31.21-.46.31-.6-.3-1.12-1.18-1.2-1.34s-.39-.77,0-1.16Z"></path><path class="cls-1" d="m243.75,223.71c-6.91-.75-13.72-.62-20.55-.05-.23-.55-.25-1.11-.23-1.66.02-.61.36-1.04.95-1.09,1.08-.1,2.07-.47,3.04-.9.46-.2.9-.47,1.31-.76.63-.44.95-1.05.94-1.86-.02-1.31,0-2.62,0-3.93,0-5.67.02-11.34-.03-17.01-.02-1.81-.15-3.62-.68-5.38-.56-1.86-1.71-3.13-3.64-3.55-1.28-.28-2.59-.36-3.89-.07-.99.22-2,.37-2.94.74-4.12,1.6-6.63,4.6-7.58,8.91-.2.93-.27,1.86-.27,2.81,0,5.79.01,11.58-.01,17.38,0,1.23.55,2,1.63,2.49,1.13.51,2.3.85,3.51,1.1.87.18,1.15.5,1.12,1.4-.02.43-.1.86-.15,1.36-2.27,0-4.5-.38-6.74-.4-2.28-.02-4.56-.06-6.83.01-2.24.07-4.48.26-6.78.4-.06-.55-.14-1.05-.15-1.54-.01-.72.3-1.09.99-1.21,1.2-.2,2.34-.57,3.46-1.02,1.23-.49,1.81-1.35,1.8-2.67-.03-6.45,0-12.89-.03-19.34,0-1.67-.15-3.34-.29-5-.09-.99-.38-1.94-.79-2.84-.8-1.74-2.29-2.58-4.1-2.67-4.22-.22-7.94.99-10.8,4.25-1.78,2.03-2.77,4.42-2.87,7.12-.08,2.13-.04,4.26-.04,6.4,0,4.05.03,8.09-.02,12.14-.02,1.33.6,2.12,1.73,2.55,1.1.42,2.24.74,3.37,1.06.9.25,1.13.47,1.09,1.41-.02.45.04.92-.24,1.38-6.82-.62-13.65-.62-20.54.01-.06-.53-.15-1.01-.17-1.48-.02-.79.3-1.12,1.06-1.31,1.07-.27,2.14-.58,3.2-.87.14-.04.27-.1.41-.15,1.3-.5,1.89-1.38,1.88-2.83-.04-8.55-.02-17.11-.02-25.66,0-1.02-.05-2.03-.29-3.02-.32-1.31-1.08-2.2-2.4-2.54-.79-.21-1.59-.44-2.4-.49-1.04-.07-1.82-.54-1.57-2.04.03-.19.1-.37.17-.59.8-.05,1.62-.1,2.43-.16,1.42-.1,2.86-.12,4.27-.32,1.62-.23,3.22-.63,4.83-.94.73-.14,1.47-.26,2.21-.36,1.02-.12,1.57.39,1.54,1.5-.03,1.16-.1,2.32-.31,3.47-.27,1.48-.18,2.98-.08,4.55.44-.49.89-.98,1.33-1.48,2.81-3.15,6.09-5.68,10.04-7.21,2.94-1.14,6-1.16,9.04-.29,2.41.7,4.03,2.31,5.09,4.53.7,1.45,1.06,2.99,1.22,4.63.32-.03.45-.28.62-.45,1.08-1.11,2.1-2.28,3.24-3.33,2.33-2.14,4.95-3.87,7.9-5.05,1.38-.55,2.81-.85,4.3-.87,1.41-.02,2.8.02,4.18.36,2.82.7,4.73,2.41,5.85,5.06.82,1.94,1.17,3.98,1.3,6.06.03.53.02,1.07.02,1.6,0,7.73.02,15.46-.01,23.19,0,1.61.75,2.21,1.8,2.66,1.16.5,2.37.81,3.6,1.06.89.18,1.17.49,1.14,1.37-.01.45-.1.9-.17,1.47Z"></path><path class="cls-1" d="m115.97,182.68c1.32-.09,2.52-.18,3.73-.27,2.61-.19,5.17-.64,7.71-1.27.6-.15,1.24-.22,1.86-.24.7-.02,1.08.33,1.19,1.02.05.28.03.58.03.87,0,8.24-.02,16.48.02,24.72,0,1.93.12,3.87.72,5.74.42,1.31,1.03,2.5,2.15,3.37.9.7,1.94,1.1,3.06,1.21,2.71.27,5.31-.18,7.73-1.44,3.33-1.74,5.38-4.49,6.2-8.14.2-.91.29-1.87.29-2.81.03-4.89.03-9.79,0-14.69,0-.84-.13-1.69-.27-2.52-.23-1.32-1.04-2.17-2.33-2.49-.82-.21-1.66-.31-2.49-.46-.28-.05-.57-.11-.83-.22-.37-.15-.58-.45-.58-.85,0-.5.05-1,.09-1.54.29-.01.51-.03.72-.04,2.2-.09,4.38-.31,6.56-.63,1.63-.24,3.21-.64,4.81-.98.42-.09.86-.12,1.29-.12.72,0,1.11.38,1.2,1.09.03.26.02.53.02.8,0,10.3,0,20.6,0,30.9,0,.92.04,1.84.15,2.75.18,1.49,1.02,2.48,2.48,2.87.7.18,1.42.28,2.13.41.17.03.34.01.51.04,1.03.19,1.39.71,1.22,1.75-.05.28-.1.57-.16.9-.44.02-.87.01-1.3.05-1.13.11-2.26.2-3.38.36-2.1.31-4.2.66-6.3.99-.69.11-1.38.23-2.08.3-1,.1-1.47-.5-1.46-1.43.03-2.64,0-5.28,0-8.07-.25.25-.43.41-.59.6-1.08,1.28-2.21,2.5-3.48,3.59-2.23,1.93-4.67,3.52-7.4,4.63-2.16.87-4.41,1.06-6.7.86-1.28-.12-2.53-.39-3.72-.88-2.78-1.13-4.52-3.22-5.55-5.98-.58-1.55-.83-3.17-.89-4.82-.02-.63-.03-1.26-.03-1.89,0-6.52,0-13.04,0-19.56,0-1.11-.09-2.22-.38-3.3-.28-1.08-.95-1.79-2.01-2.07-.81-.21-1.65-.35-2.47-.52-.28-.06-.58-.07-.85-.17-.47-.17-.76-.53-.76-1.04,0-.45.08-.9.13-1.38Z"></path><path class="cls-1" d="m414.42,215.08c-.58.72-1.11,1.4-1.68,2.06-3.07,3.55-6.94,5.72-11.51,6.66-2.19.45-4.4.66-6.64.54-4.12-.22-7.94-1.33-11.24-3.91-2.48-1.94-4.23-4.43-5.49-7.28-.87-1.96-1.37-4.01-1.62-6.13-.22-1.91-.25-3.82-.11-5.73.23-3.1,1.18-6,2.68-8.72,1.24-2.27,2.79-4.3,4.71-6.04,2.77-2.51,5.92-4.32,9.56-5.23,2.1-.53,4.22-.48,6.35-.26,1.22.13,2.43.32,3.62.66,3.57,1.03,6.25,3.16,8.11,6.37,1.32,2.29,2.1,4.75,2.5,7.35.21,1.35.27,2.69.3,4.05,0,.26,0,.53,0,.87-.32.07-.59.17-.87.18-1.62.07-3.24.12-4.86.19-3.46.16-6.91.34-10.37.5-2.03.09-4.07.15-6.1.24-2.08.09-4.16.19-6.24.29-.07,0-.13.03-.21.05,0,.81-.08,1.61.01,2.39.28,2.46.86,4.84,1.98,7.07,1.83,3.63,4.59,6.22,8.5,7.41,4.64,1.42,8.94.58,12.82-2.31.81-.6,1.5-1.36,2.25-2.04.25-.23.5-.47.79-.63.7-.39,1.36-.29,1.91.3.31.33.55.72.85,1.13Zm-29.38-16.94c1.17-.07,2.27-.15,3.38-.2,1.91-.1,3.82-.19,5.72-.28,2.68-.12,5.37-.23,8.05-.35.48-.02.97-.02,1.45-.09.85-.12,1.12-.44,1.14-1.29.03-1.22-.15-2.41-.48-3.58-.62-2.23-1.66-4.2-3.39-5.8-2.12-1.96-4.64-2.51-7.4-2.05-2.93.49-5.03,2.2-6.48,4.76-1.29,2.28-1.77,4.78-1.99,7.34-.04.48,0,.96,0,1.52Z"></path><path class="cls-1" d="m457.32,215.04c-.85,1.24-1.81,2.3-2.81,3.32-2.67,2.71-5.93,4.37-9.59,5.28-2.34.58-4.72.8-7.12.71-3.48-.14-6.79-.91-9.8-2.73-2.51-1.52-4.49-3.58-6-6.1-1.35-2.26-2.28-4.69-2.68-7.29-.43-2.81-.53-5.63-.07-8.46.7-4.37,2.58-8.17,5.48-11.48,2.78-3.19,6.19-5.44,10.23-6.72,2.23-.71,4.5-.8,6.81-.62,1.48.12,2.92.37,4.34.78,3.58,1.03,6.23,3.22,8.05,6.44,1.11,1.97,1.86,4.07,2.26,6.3.3,1.7.5,3.4.51,5.12,0,.74-.12.88-.88.91-2.37.09-4.74.16-7.12.27-2.56.12-5.12.27-7.68.4-1.89.09-3.77.16-5.66.23-2.44.1-4.88.2-7.42.3-.03.69-.03,1.36.03,2.02.17,1.96.57,3.86,1.26,5.71.8,2.13,1.93,4.07,3.52,5.69,2.02,2.06,4.46,3.34,7.3,3.88,4.55.88,8.5-.38,12.01-3.27.58-.47,1.07-1.05,1.62-1.56.23-.21.47-.42.74-.57.59-.32,1.25-.22,1.74.23.14.13.28.27.39.43.17.23.32.48.52.77Zm-29.33-17.04c1.03,0,1.97.04,2.91,0,2.37-.11,4.73-.26,7.1-.37,1.86-.09,3.73-.15,5.59-.23,1.01-.05,2.03-.12,3.04-.2.73-.06,1.08-.43,1.13-1.16.01-.22.01-.44,0-.65-.18-2.47-.85-4.8-2.23-6.88-2.18-3.27-5.27-4.62-9.13-3.99-2.41.39-4.34,1.7-5.75,3.72-2.04,2.94-2.67,6.26-2.66,9.78Z"></path><path class="cls-1" d="m320.13,184.09c.24,2.96.44,5.87.44,8.86-.97-.05-1.89-.05-2.79-.16-.57-.07-.88-.54-1.02-1.1-.2-.77-.37-1.55-.64-2.29-.91-2.44-2.74-3.85-5.18-4.56-1.41-.41-2.86-.56-4.31-.42-2.2.2-4.15,1.01-5.48,2.86-1.51,2.1-1.23,4.99.54,6.87,1.09,1.16,2.47,1.88,3.91,2.44,2.15.84,4.36,1.55,6.53,2.35,1.86.68,3.68,1.45,5.33,2.59,3.2,2.2,4.79,5.27,4.98,9.12.09,1.88-.16,3.71-.83,5.48-.93,2.5-2.59,4.39-4.84,5.78-2,1.23-4.18,1.94-6.51,2.25-2.18.28-4.34.25-6.51.02-2-.21-3.97-.55-5.9-1.07-1.64-.44-3.19-1.1-4.77-1.95-.21-3.57-.47-7.18-.45-10.89.8,0,1.57-.1,2.31.17.65.23,1.01.66,1.09,1.38.26,2.35,1.12,4.43,2.83,6.12,1.39,1.38,3.09,2.12,4.96,2.53,1.38.3,2.79.36,4.19.26,1.35-.1,2.69-.36,3.9-1.01,2.09-1.12,3.18-2.88,3.29-5.26.1-2.08-.46-3.88-2.15-5.2-.55-.43-1.16-.79-1.77-1.13-1.81-.97-3.76-1.6-5.72-2.21-2.62-.82-5.1-1.91-7.37-3.47-2.26-1.55-3.71-3.62-4.24-6.32-.51-2.6-.4-5.15.65-7.61,1.41-3.3,3.89-5.47,7.22-6.71,1.62-.6,3.3-.92,5.04-.9.73,0,1.46-.01,2.18.02,2.03.11,4.02.47,5.97,1.07,1.48.45,2.93.96,4.31,1.67.26.13.51.28.82.45Z"></path><ellipse class="cls-1" cx="124.94" cy="161.06" rx="7.66" ry="7.8"></ellipse></svg> 