<?xml version="1.0" encoding="UTF-8"?> <svg xmlns="http://www.w3.org/2000/svg" id="Layer_1" width="100" height="25.49" viewBox="0 0 100 25.49"><defs><style>.cls-1{fill:#c41623;}.cls-1,.cls-2,.cls-3{stroke-width:0px;}.cls-2{fill:#fff;}.cls-3{fill:#005ea6;}</style></defs><path class="cls-3" d="m72.77,13.05s-.12.65-.14.77c-.02.33-1.66,5.18-2.07,6.39h4.44c-.41-1.21-2.06-6.05-2.09-6.36-.02-.14-.14-.79-.14-.79Z"></path><path class="cls-3" d="m31.2,20.2h2.38v-1.62c-.52.71-1.31,1.26-2.38,1.62Z"></path><path class="cls-3" d="m59.61,12.69c-.46-.46-1.21-.84-2.41-.84-1.13,0-1.97.3-2.5.78-.38.34-.68.99-.68,1.31h6.12c0-.32-.14-.83-.53-1.25Z"></path><polygon class="cls-3" points="40.55 20.2 46.35 20.2 40.55 10.44 40.55 20.2"></polygon><path class="cls-3" d="m15.5,20.2h2.5v-1.65c-.57.76-1.44,1.3-2.5,1.65Z"></path><rect class="cls-1" x=".98" y="21.25" width="98.04" height="3.26"></rect><path class="cls-3" d="m71.5,6.35h-.57v1.58h.57c.23,0,.36-.05.46-.17.08-.09.09-.43.09-.67,0-.21-.02-.49-.09-.57-.12-.13-.22-.16-.45-.16Z"></path><path class="cls-3" d="m82.74,6.35h-.73v.69h.72c.17,0,.26-.06.3-.14.03-.05.04-.11.04-.2,0-.09-.01-.17-.04-.21-.05-.09-.14-.14-.29-.14Z"></path><path class="cls-3" d="m65.4,6.35h-.77v.61h.79c.11,0,.21-.03.24-.1.02-.05.03-.13.03-.19,0-.07,0-.15-.03-.19-.04-.1-.13-.12-.26-.12Z"></path><path class="cls-3" d="m61.74,6.3c-.49,0-.66.23-.66.83,0,.63.23.84.66.84s.66-.18.66-.84c0-.59-.16-.83-.67-.83Z"></path><path class="cls-3" d="m76.12,6.35h-.77v.61h.79c.11,0,.21-.03.24-.1.02-.05.03-.13.03-.19,0-.07,0-.15-.03-.19-.05-.1-.14-.12-.27-.12Z"></path><path class="cls-3" d="m85.89,6.3c-.49,0-.66.23-.66.83,0,.63.23.84.66.84s.66-.18.66-.84c0-.59-.16-.83-.66-.83Z"></path><path class="cls-3" d="m52.22,7.86c0,.14.13.2.44.2.08,0,.19-.01.26-.03-.17-.15-.35-.28-.47-.41-.14.08-.23.16-.23.24Z"></path><path class="cls-3" d="m52.76,6.26c-.13,0-.19.09-.2.2,0,.02,0,.06,0,.08,0,.08.05.18.12.27.15-.09.26-.19.27-.3v-.06c0-.1-.05-.18-.19-.18Z"></path><path class="cls-3" d="m.98.98v19.22h8.13c-1.96-.66-3.23-2.05-3.23-4.4V5.66h3.24v9.86c0,1.56,1.16,2.47,3.28,2.47,1.86,0,3.17-.92,3.17-2.45V5.66h3.24v10.33c0,.54-.08,1.02-.23,1.47h2.31v2.75h3.28c-1.73-.55-2.54-1.54-2.92-2.75-.15-.49-.21-1.22-.21-1.52h3.34c0,.26.09.71.21.94.41.86,1.39,1.24,3.35,1.24,2.25,0,3.04-.62,3.04-1.59,0-1.22-.62-1.65-3.02-2.1-.43-.08-1.52-.28-2.18-.41-2.89-.54-4.67-1.87-4.67-4.33s2.02-4.2,6.37-4.2c3.71,0,5.46,1.29,6.21,3.17.19.49.34,1.05.34,1.42h-3.34c0-.17-.09-.5-.21-.73-.39-.83-1.2-1.26-3.07-1.26-2.46,0-2.94.54-2.94,1.39,0,1.09.88,1.52,3.3,2.01.75.15,1.72.36,2.06.41,2.94.56,4.48,1.78,4.48,4.31,0,.45-.06.86-.18,1.26h2.34v2.75h.99V5.66h3.77l5.7,9.54V5.66h3.09v14.54h4.26c-1.08-.38-1.96-1-2.54-1.93-.54-.85-.84-1.95-.84-3.32,0-1.25.34-2.36.95-3.24,1.05-1.53,2.94-2.42,5.33-2.42,2.5,0,4.21.91,5.18,2.32.81,1.19,1.11,2.76.93,4.41h-9.26c0,.5.22.88.6,1.29.46.5,1.35.81,2.54.81.89,0,1.55-.16,2.01-.36.57-.26.85-.61.91-.85h3.12c-.26,1.05-.89,2.04-1.98,2.74-.34.22-.74.39-1.17.54h6.53l-3.81-10.66h3.32l2.62,8.12,2.4-8.12h3.53l2.46,8.12,2.56-8.12h3.12l-3.86,10.66h5.89c-1.17-.4-1.85-1.06-2.1-2.05-.1-.44-.12-.74-.12-1.09h3.16c0,.14.02.34.1.56.2.52,1.03.65,2.76.65s2.36-.32,2.36-.95-.66-.76-2.27-.99c-.42-.06-1.73-.26-2.38-.36-2.4-.34-3.56-1.39-3.56-3.48,0-1.94,1.75-3.22,5.26-3.22,3,0,4.89.77,5.44,2.34.14.42.2,1.09.2,1.31h-3.08c0-.12-.04-.46-.14-.59-.22-.3-.79-.56-2.3-.56-1.75,0-2.27.28-2.27.8,0,.48.34.65,1.89.89.64.1,2.17.32,2.54.38,2.62.4,3.78,1.37,3.78,3.42,0,1.43-.69,2.42-2.14,2.95h7.04V.98H.98Zm52.69,7.65s-.1-.08-.14-.11c-.23.1-.54.14-.82.14-.71,0-1.35-.13-1.37-.68,0-.05,0-.12,0-.15,0-.34.33-.55.68-.72-.17-.25-.24-.45-.24-.63v-.15c.02-.37.38-.71,1-.71.57,0,.9.33.92.69,0,.03,0,.11,0,.13,0,.38-.3.64-.6.82.13.11.31.26.48.4.1-.12.15-.28.16-.45h.83c-.01.37-.17.7-.4.92.2.15.42.32.64.49h-1.13Zm5.62,0h-1s-.45-1.72-.46-1.81c0,.1-.46,1.81-.46,1.81h-.99l-.85-2.98h.97s.45,1.84.45,1.93c0-.09.44-1.93.44-1.93h.94s.45,1.84.45,1.93c0-.09.45-1.93.45-1.93h.88l-.83,2.98Zm2.46.04c-1.09,0-1.59-.53-1.59-1.55,0-.95.49-1.53,1.59-1.53s1.59.52,1.59,1.52c0,1.05-.5,1.56-1.59,1.56Zm4.03-.04l-.52-1.01h-.62v1.01h-.9v-2.98h1.88c.4,0,.65.11.8.31.12.15.17.35.17.63,0,.24-.05.43-.13.56-.09.16-.23.25-.37.28l.7,1.19h-1.02Zm3.8,0h-2.35v-2.98h.92v2.24h1.43v.74Zm3.15-.43c-.18.27-.49.43-1.02.43h-1.68v-2.98h1.63c.54,0,.87.13,1.06.39.18.25.22.5.22,1.04,0,.63-.04.87-.21,1.11Zm3.76.43l-.53-1.01h-.61v1.01h-.9v-2.98h1.88c.4,0,.65.11.8.31.12.15.17.35.17.63,0,.24-.05.43-.13.56-.09.16-.23.25-.37.28l.7,1.19h-1.02Zm4.04,0h-2.55v-2.98h2.53v.7h-1.63v.43h1.57v.71h-1.57v.44h1.65v.69Zm3.24-1.23c-.17.2-.46.29-.82.3-.11,0-.92,0-.92,0h0v.93h-.92v-2.98h1.83c.36,0,.61.08.78.25.17.15.27.41.27.78,0,.33-.07.56-.22.72Zm2.13,1.27c-1.09,0-1.59-.53-1.59-1.55,0-.95.49-1.53,1.59-1.53s1.59.52,1.59,1.52c0,1.05-.5,1.56-1.59,1.56Zm4.04-.04l-.52-1.01h-.62v1.01h-.9v-2.98h1.88c.39,0,.65.11.81.31.11.15.17.35.17.63,0,.24-.05.43-.13.56-.1.16-.23.25-.37.28l.7,1.19h-1.02Zm3.91-2.26h-.95v2.26h-.93v-2.26h-.94v-.72h2.82v.72Z"></path><path class="cls-3" d="m89.56,6.35h-.77v.61h.79c.11,0,.21-.03.24-.1.02-.05.03-.13.03-.19,0-.07,0-.15-.03-.19-.05-.1-.14-.12-.27-.12Z"></path><path class="cls-2" d="m0,0v25.49h100V0H0Zm99.02,24.51H.98v-3.26h98.04v3.26Zm-81.02-4.31h-2.5c1.06-.35,1.93-.89,2.5-1.65v1.65Zm15.58,0h-2.38c1.06-.36,1.86-.91,2.38-1.62v1.62Zm6.98,0v-9.76l5.8,9.76h-5.8Zm30.01,0c.41-1.21,2.06-6.05,2.07-6.39.02-.12.14-.77.14-.77,0,0,.12.65.14.79.03.31,1.68,5.16,2.09,6.36h-4.44Zm28.46,0h-7.04c1.46-.53,2.14-1.52,2.14-2.95,0-2.05-1.15-3.02-3.78-3.42-.38-.06-1.91-.28-2.54-.38-1.55-.24-1.89-.42-1.89-.89,0-.52.52-.8,2.27-.8,1.51,0,2.08.26,2.3.56.1.14.14.48.14.59h3.08c0-.22-.06-.89-.2-1.31-.56-1.57-2.45-2.34-5.44-2.34-3.52,0-5.26,1.27-5.26,3.22,0,2.09,1.15,3.14,3.56,3.48.65.1,1.97.3,2.38.36,1.61.24,2.27.38,2.27.99s-.56.95-2.36.95-2.56-.14-2.76-.65c-.08-.22-.1-.42-.1-.56h-3.16c0,.36.02.66.12,1.09.26,1,.93,1.66,2.1,2.05h-5.89l3.86-10.66h-3.12l-2.56,8.12-2.46-8.12h-3.53l-2.4,8.12-2.62-8.12h-3.32l3.81,10.66h-6.53c.43-.15.83-.33,1.17-.54,1.09-.7,1.73-1.69,1.98-2.74h-3.12c-.06.24-.34.6-.91.85-.46.2-1.11.36-2.01.36-1.19,0-2.08-.32-2.54-.81-.38-.42-.6-.79-.6-1.29h9.26c.18-1.65-.12-3.22-.93-4.41-.97-1.41-2.68-2.32-5.18-2.32s-4.27.89-5.33,2.42c-.61.87-.95,1.99-.95,3.24,0,1.37.3,2.46.84,3.32.59.93,1.47,1.56,2.54,1.93h-4.26V5.66h-3.09v9.54l-5.7-9.54h-3.77v14.54h-.99v-2.75h-2.34c.12-.39.18-.81.18-1.26,0-2.53-1.54-3.75-4.48-4.31-.34-.06-1.31-.26-2.06-.41-2.42-.49-3.3-.92-3.3-2.01,0-.84.49-1.39,2.94-1.39,1.87,0,2.68.43,3.07,1.26.11.23.21.56.21.73h3.34c0-.38-.15-.94-.34-1.42-.75-1.87-2.49-3.17-6.21-3.17-4.35,0-6.37,1.69-6.37,4.2s1.78,3.79,4.67,4.33c.66.13,1.74.34,2.18.41,2.4.45,3.02.88,3.02,2.1,0,.98-.79,1.59-3.04,1.59-1.97,0-2.94-.37-3.35-1.24-.11-.22-.21-.67-.21-.94h-3.34c0,.3.06,1.03.21,1.52.39,1.21,1.2,2.2,2.92,2.75h-3.28v-2.75h-2.31c.15-.44.23-.93.23-1.47V5.66h-3.24v9.88c0,1.54-1.31,2.45-3.17,2.45-2.12,0-3.28-.92-3.28-2.47V5.66h-3.24v10.14c0,2.35,1.27,3.74,3.23,4.4H.98V.98h98.04v19.22Zm-44.99-6.27c0-.32.3-.97.68-1.31.54-.48,1.37-.78,2.5-.78,1.19,0,1.95.38,2.41.84.4.42.53.93.53,1.25h-6.12Zm7.71-8.34c-1.1,0-1.59.58-1.59,1.53,0,1.02.5,1.55,1.59,1.55s1.59-.51,1.59-1.56-.46-1.52-1.59-1.52Zm0,2.38c-.44,0-.66-.21-.66-.84,0-.6.17-.83.66-.83s.67.24.67.83c0,.66-.24.84-.66.84Zm4.71-.82c.08-.13.13-.32.13-.56,0-.28-.06-.48-.17-.63-.15-.2-.41-.31-.8-.31h-1.88v2.98h.9v-1.01h.62l.52,1.01h1.02l-.7-1.19c.14-.03.27-.12.37-.28Zm-.79-.29c-.03.07-.13.1-.24.1h-.79v-.61h.77c.13,0,.22.03.26.12.03.04.03.12.03.19,0,.06-.01.14-.03.19Zm-6.43-1.21h.88l-.83,2.98h-1s-.45-1.72-.46-1.81c0,.1-.46,1.81-.46,1.81h-.99l-.85-2.98h.97s.45,1.84.45,1.93c0-.09.44-1.93.44-1.93h.94s.45,1.84.45,1.93c0-.09.45-1.93.45-1.93Zm-4.67,1.56h-.83c0,.17-.06.33-.16.45-.17-.14-.34-.29-.48-.4.3-.18.59-.45.6-.82,0-.02,0-.1,0-.13-.02-.36-.35-.69-.92-.69-.62,0-.98.35-1,.71v.15c0,.18.07.38.24.63-.35.17-.67.38-.68.72,0,.04,0,.11,0,.15.03.55.66.68,1.37.68.28,0,.59-.05.82-.14.04.04.09.08.14.11h1.13c-.22-.17-.44-.34-.64-.49.24-.23.39-.55.4-.92Zm-1.9.84c-.31,0-.44-.05-.44-.2,0-.08.09-.17.23-.24.13.13.3.26.47.41-.07.02-.18.03-.26.03Zm.28-1.55c0,.12-.12.21-.27.3-.07-.1-.12-.19-.12-.27,0-.03,0-.06,0-.08.01-.11.07-.2.2-.2s.18.09.19.18v.06Zm32.94-.9c-1.1,0-1.59.58-1.59,1.53,0,1.02.5,1.55,1.59,1.55s1.59-.51,1.59-1.56-.46-1.52-1.59-1.52Zm0,2.38c-.43,0-.66-.21-.66-.84,0-.6.17-.83.66-.83s.66.24.66.83c0,.66-.24.84-.66.84Zm4.73-.82c.08-.13.13-.32.13-.56,0-.28-.06-.48-.17-.63-.15-.2-.41-.31-.81-.31h-1.88v2.98h.9v-1.01h.62l.52,1.01h1.02l-.7-1.19c.14-.03.27-.12.37-.28Zm-.8-.29c-.03.07-.13.1-.24.1h-.79v-.61h.77c.13,0,.22.03.27.12.02.04.03.12.03.19,0,.06-.01.14-.03.19Zm1.19-1.21h2.82v.72h-.95v2.26h-.93v-2.26h-.94v-.72Zm-22.88,2.24h1.43v.74h-2.35v-2.98h.92v2.24Zm14.8-2.24h-1.83v2.98h.92v-.93h0s.81,0,.92,0c.37,0,.65-.1.82-.3.15-.16.22-.39.22-.72,0-.37-.09-.63-.27-.78-.16-.17-.42-.25-.78-.25Zm.09,1.24c-.04.08-.13.14-.3.14h-.72v-.69h0,.73c.15,0,.24.05.29.14.03.04.04.12.04.21,0,.09,0,.14-.04.2Zm-4.16,1.04h1.65v.69h-2.55v-2.98h2.53v.7h-1.63v.43h1.57v.71h-1.57v.44Zm-7.21-2.28h-1.63v2.98h1.68c.54,0,.84-.16,1.02-.43.16-.25.21-.48.21-1.11,0-.54-.04-.79-.22-1.04-.18-.26-.52-.39-1.06-.39Zm.3,2.1c-.1.12-.23.17-.46.17h-.57s0,0,0,0v-1.58h.57c.23,0,.33.03.45.16.07.08.09.36.09.57,0,.24,0,.58-.09.67Zm5.21-.6c.08-.13.13-.32.13-.56,0-.28-.06-.48-.17-.63-.15-.2-.41-.31-.8-.31h-1.88v2.98h.9v-1.01h.61l.53,1.01h1.02l-.7-1.19c.14-.03.27-.12.37-.28Zm-.79-.29c-.03.07-.13.1-.24.1h-.79v-.61h.77c.13,0,.22.03.27.12.02.04.03.12.03.19,0,.06,0,.14-.03.19Z"></path></svg> 