<?xml version="1.0" encoding="UTF-8"?> <svg xmlns="http://www.w3.org/2000/svg" id="Layer_1" width="600" height="400" viewBox="0 0 600 400"><defs><style>.cls-1{fill:#3a357e;stroke-width:0px;}</style></defs><path class="cls-1" d="m280.93,211.67c2.27-1.09,4.39-2.46,6.32-4.07v-23.58h-21.61v-20.64c-1.11,0-2.19-.12-3.38-.12h-35.85v73.4h24.53v-21.04h5.23l13.83,20.98h17.22s0-15.8,0-15.8l-6.3-9.13Zm-9.88-20.66c0,4.5-3.58,7.13-9.44,7.13h-10.59v-14.32h10.69c5.67,0,9.34,2.29,9.34,7.01v.18Zm-162.56-27.75h25.56v73.4h-24.41v-36.38l-16.89,26.11h-.41l-16.87-26.11v36.38h-24.02v-73.4h25.68l15.8,25.8,15.56-25.8Zm59.61-.51l-30.93,73.91h26.21l3.77-9.88h25.68l3.95,9.88h26.63l-30.99-73.91h-24.31Zm5.23,46.65l6.72-17.78,6.72,17.78h-13.43Z"></path><polygon class="cls-1" points="289.25 236.6 289.25 227.4 295.59 236.6 289.25 236.6"></polygon><path class="cls-1" d="m555.89,168.77h-.91v-3.95s.89,0,1.48,0,.93.06,1.32.3c.43.31.53.92.22,1.35-.15.2-.37.34-.62.39h0c.38.12.57.41.69.93.03.33.13.65.28.95h-.95c-.15-.3-.25-.62-.3-.95,0-.4-.32-.57-.81-.57h-.41v1.56Zm0-2.17h.41c.49,0,.91-.16.91-.55s-.26-.59-.83-.59h-.49v1.15Z"></path><path class="cls-1" d="m556.49,163.6c1.76,0,3.19,1.43,3.19,3.19s-1.43,3.19-3.19,3.19-3.19-1.43-3.19-3.19,1.43-3.19,3.19-3.19m0-.75c-2.18,0-3.94,1.77-3.94,3.94s1.77,3.94,3.94,3.94,3.94-1.77,3.94-3.94-1.77-3.94-3.94-3.94h0Z"></path><polygon class="cls-1" points="361.65 208.57 397.5 208.57 397.5 190.79 361.65 190.79 361.65 183.39 400.13 183.39 400.13 163.26 337.49 163.26 337.49 236.66 400.7 236.66 400.7 216.53 361.65 216.53 361.65 208.57"></polygon><path class="cls-1" d="m440.05,216.21c-8.08,0-13.73-6.72-13.73-16.26v-.14c0-8.81,5.45-16.06,13.73-16.06,6.72,0,10.59,3.67,13.31,8.93l20.25-11.85c-6.2-11.22-17.1-19.08-33.24-19.08-21.92,0-39.01,16.35-39.01,38.26v.22c-.34,20.65,16.12,37.66,36.77,38,.43,0,.86,0,1.3,0,18.25,0,28.52-8.91,34.7-19.75l-20.23-11.44c-3.04,5.39-6.93,9.16-13.85,9.16Z"></path><polygon class="cls-1" points="524.03 163.26 524.03 189.15 501.59 189.15 501.59 163.26 477.06 163.26 477.06 236.66 501.59 236.66 501.59 210.35 524.03 210.35 524.03 236.66 548.56 236.66 548.56 163.26 524.03 163.26"></polygon><path class="cls-1" d="m267.64,163.26s0,0,0,0h0v.32c9.95.78,16.66,3.76,21.05,8.15,4.59,4.6,7.03,10.91,6.72,17.4v.22c.21,7.04-2.79,13.8-8.16,18.37v-.02s-.01.01-.02.02v13.13l10.76,15.74h13.83v-52.58h21.55v-20.76h-65.73Z"></path><path class="cls-1" d="m289.25,182.02h-21.61v-16.43c8.72.71,15.32,3.25,19.64,7.56,4.18,4.19,6.42,9.98,6.13,15.89v.31c.14,4.89-1.34,9.54-4.16,13.33v-20.66Z"></path></svg> 