<?xml version="1.0" encoding="UTF-8"?> <svg xmlns="http://www.w3.org/2000/svg" id="Layer_1" width="600" height="400" viewBox="0 0 600 400"><defs><style>.cls-1{fill:#fff;stroke-width:0px;}</style></defs><path class="cls-1" d="m172.18,170.63c2.35,0,4.61.22,6.78.67,2.17.44,4.08,1.2,5.73,2.27,1.65,1.07,2.97,2.48,3.96,4.24.99,1.75,1.49,3.93,1.49,6.55,0,1.46-.23,2.89-.71,4.27-.47,1.39-1.14,2.64-2,3.76-.86,1.13-1.88,2.08-3.06,2.86-1.18.78-2.5,1.33-3.96,1.65v.16c3.61.47,6.48,1.95,8.63,4.43,2.14,2.48,3.22,5.56,3.22,9.22,0,.89-.08,1.9-.23,3.02-.16,1.12-.47,2.27-.94,3.45s-1.15,2.34-2.04,3.49c-.89,1.15-2.08,2.16-3.57,3.02-1.49.86-3.32,1.57-5.49,2.12-2.17.55-4.77.82-7.8.82h-23.69v-56h23.69Zm0,24.55c2.14,0,4-.25,5.57-.75,1.57-.5,2.87-1.18,3.92-2.04,1.05-.86,1.83-1.87,2.35-3.02.52-1.15.78-2.38.78-3.69,0-7.01-4.21-10.51-12.63-10.51h-18.35v20h18.35Zm0,26.9c1.99,0,3.87-.17,5.65-.51,1.78-.34,3.35-.95,4.71-1.84,1.36-.89,2.43-2.08,3.22-3.57.78-1.49,1.18-3.36,1.18-5.61,0-3.61-1.27-6.31-3.8-8.12-2.54-1.8-6.18-2.71-10.94-2.71h-18.35v22.35h18.35Z"></path><path class="cls-1" d="m199.24,192.43c.84-1.73,1.97-3.14,3.41-4.24,1.44-1.1,3.12-1.91,5.06-2.43,1.93-.52,4.08-.78,6.43-.78,1.78,0,3.55.17,5.33.51,1.78.34,3.37.98,4.78,1.92,1.41.94,2.56,2.26,3.45,3.96.89,1.7,1.33,3.91,1.33,6.63v21.49c0,1.99.97,2.98,2.9,2.98.57,0,1.1-.1,1.57-.31v4.16c-.58.11-1.09.18-1.53.24-.44.05-1.01.08-1.69.08-1.25,0-2.26-.17-3.02-.51-.76-.34-1.35-.82-1.76-1.45-.42-.63-.69-1.37-.82-2.23-.13-.86-.2-1.82-.2-2.86h-.16c-.89,1.31-1.79,2.47-2.71,3.49-.92,1.02-1.94,1.87-3.06,2.55-1.12.68-2.41,1.2-3.84,1.57-1.44.37-3.15.55-5.14.55-1.88,0-3.65-.22-5.29-.67-1.65-.44-3.09-1.15-4.31-2.12-1.23-.97-2.2-2.2-2.9-3.69-.71-1.49-1.06-3.25-1.06-5.29,0-2.82.63-5.03,1.88-6.63,1.25-1.59,2.91-2.81,4.98-3.65,2.07-.84,4.39-1.42,6.98-1.76,2.59-.34,5.22-.67,7.88-.98,1.05-.1,1.96-.24,2.75-.39.78-.16,1.44-.43,1.96-.82.52-.39.93-.93,1.22-1.61.29-.68.43-1.57.43-2.67,0-1.67-.27-3.05-.82-4.12-.55-1.07-1.31-1.92-2.27-2.55-.97-.63-2.09-1.06-3.37-1.29-1.28-.24-2.65-.35-4.12-.35-3.14,0-5.7.75-7.69,2.24-1.99,1.49-3.03,3.88-3.14,7.18h-4.94c.16-2.35.65-4.39,1.49-6.12Zm24.7,12.08c-.31.58-.92.99-1.8,1.25-.89.26-1.67.45-2.35.55-2.09.37-4.25.69-6.47.98-2.22.29-4.25.72-6.08,1.29-1.83.58-3.33,1.4-4.51,2.47-1.18,1.07-1.76,2.6-1.76,4.59,0,1.25.25,2.37.75,3.33.5.97,1.16,1.8,2,2.51.84.71,1.8,1.24,2.9,1.61,1.1.37,2.22.55,3.37.55,1.88,0,3.69-.29,5.41-.86,1.73-.57,3.23-1.41,4.51-2.51,1.28-1.1,2.3-2.43,3.06-4,.76-1.57,1.14-3.35,1.14-5.33v-6.43h-.16Z"></path><path class="cls-1" d="m243.79,186.15v6.98h.16c.94-2.46,2.61-4.43,5.02-5.92,2.4-1.49,5.05-2.24,7.92-2.24s5.19.37,7.1,1.1c1.91.73,3.44,1.76,4.59,3.1,1.15,1.33,1.96,2.97,2.43,4.9.47,1.93.71,4.11.71,6.51v26.04h-4.94v-25.25c0-1.73-.16-3.33-.47-4.82-.31-1.49-.86-2.78-1.65-3.88s-1.84-1.96-3.18-2.59c-1.33-.63-2.99-.94-4.98-.94s-3.75.35-5.29,1.06c-1.54.71-2.85,1.67-3.92,2.9-1.07,1.23-1.91,2.69-2.51,4.39-.6,1.7-.93,3.54-.98,5.53v23.61h-4.94v-40.47h4.94Z"></path><path class="cls-1" d="m284.41,170.63v35.14l22.43-19.61h6.59l-17.25,14.98,18.43,25.49h-6.2l-16-22.04-8,6.67v15.37h-4.94v-56h4.94Z"></path><path class="cls-1" d="m323,170.63v7.92h-4.94v-7.92h4.94Zm0,15.53v40.47h-4.94v-40.47h4.94Z"></path><path class="cls-1" d="m336.8,186.15v6.98h.16c.94-2.46,2.61-4.43,5.02-5.92,2.4-1.49,5.04-2.24,7.92-2.24s5.19.37,7.1,1.1c1.91.73,3.44,1.76,4.59,3.1,1.15,1.33,1.96,2.97,2.43,4.9.47,1.93.71,4.11.71,6.51v26.04h-4.94v-25.25c0-1.73-.16-3.33-.47-4.82-.31-1.49-.86-2.78-1.65-3.88s-1.84-1.96-3.18-2.59c-1.33-.63-2.99-.94-4.98-.94s-3.75.35-5.29,1.06c-1.54.71-2.85,1.67-3.92,2.9-1.07,1.23-1.91,2.69-2.51,4.39-.6,1.7-.93,3.54-.98,5.53v23.61h-4.94v-40.47h4.94Z"></path><path class="cls-1" d="m405.46,231.41c-.65,2.4-1.69,4.44-3.1,6.12-1.41,1.67-3.26,2.95-5.53,3.84-2.27.89-5.06,1.33-8.35,1.33-2.04,0-4.03-.24-5.96-.71-1.93-.47-3.67-1.2-5.22-2.2-1.54-.99-2.82-2.26-3.84-3.8-1.02-1.54-1.61-3.39-1.76-5.53h4.94c.26,1.52.77,2.78,1.53,3.8.76,1.02,1.67,1.84,2.74,2.47,1.07.63,2.26,1.08,3.57,1.37,1.31.29,2.64.43,4,.43,4.6,0,7.92-1.31,9.96-3.92,2.04-2.62,3.06-6.38,3.06-11.29v-5.49h-.16c-1.15,2.51-2.84,4.52-5.06,6.04-2.22,1.52-4.82,2.27-7.8,2.27-3.24,0-6.01-.53-8.31-1.61-2.3-1.07-4.2-2.55-5.69-4.43-1.49-1.88-2.58-4.09-3.26-6.63-.68-2.54-1.02-5.24-1.02-8.12s.4-5.4,1.22-7.88c.81-2.48,1.99-4.65,3.53-6.51,1.54-1.86,3.45-3.32,5.73-4.39,2.27-1.07,4.87-1.61,7.8-1.61,1.52,0,2.94.21,4.27.63,1.33.42,2.55,1.01,3.65,1.76,1.1.76,2.08,1.63,2.94,2.63.86.99,1.53,2.04,2,3.14h.16v-6.98h4.94v37.17c0,2.98-.33,5.67-.98,8.08Zm-11.33-10.78c1.62-.91,2.98-2.12,4.08-3.61,1.1-1.49,1.92-3.2,2.47-5.14.55-1.93.82-3.92.82-5.96s-.24-3.97-.71-5.96c-.47-1.99-1.23-3.79-2.27-5.41-1.05-1.62-2.39-2.93-4.04-3.92-1.65-.99-3.65-1.49-6-1.49s-4.37.48-6.04,1.45c-1.67.97-3.06,2.24-4.16,3.8-1.1,1.57-1.9,3.36-2.39,5.37-.5,2.01-.75,4.07-.75,6.16s.26,4.03.78,5.96c.52,1.94,1.33,3.65,2.43,5.14,1.1,1.49,2.48,2.69,4.16,3.61,1.67.92,3.66,1.37,5.96,1.37,2.14,0,4.03-.46,5.65-1.37Z"></path><path class="cls-1" d="m441.66,170.63c2.3,0,4.48.29,6.55.86,2.06.58,3.87,1.45,5.41,2.63,1.54,1.18,2.77,2.69,3.69,4.55.91,1.86,1.37,4.04,1.37,6.55,0,3.56-.92,6.64-2.75,9.25-1.83,2.61-4.55,4.29-8.16,5.02v.16c1.83.26,3.35.75,4.55,1.45,1.2.71,2.18,1.61,2.94,2.71.76,1.1,1.31,2.37,1.65,3.8.34,1.44.56,2.99.67,4.67.05.94.1,2.09.16,3.45.05,1.36.16,2.73.31,4.12.16,1.39.4,2.69.75,3.92.34,1.23.8,2.18,1.37,2.86h-5.88c-.31-.52-.56-1.16-.75-1.92-.18-.76-.31-1.54-.39-2.35-.08-.81-.14-1.61-.2-2.39-.05-.78-.11-1.46-.16-2.04-.11-1.99-.27-3.96-.51-5.92-.24-1.96-.73-3.71-1.49-5.25-.76-1.54-1.86-2.78-3.29-3.72-1.44-.94-3.41-1.36-5.92-1.26h-20.23v24.86h-5.33v-56h25.65Zm-.39,26.59c1.62,0,3.16-.25,4.63-.75,1.46-.5,2.74-1.22,3.84-2.16,1.1-.94,1.97-2.08,2.63-3.41.65-1.33.98-2.86.98-4.59,0-3.45-.99-6.17-2.98-8.16-1.99-1.99-5.02-2.98-9.1-2.98h-19.92v22.04h19.92Z"></path><path class="cls-1" d="m467.07,192.43c.84-1.73,1.97-3.14,3.41-4.24,1.44-1.1,3.12-1.91,5.06-2.43,1.93-.52,4.08-.78,6.43-.78,1.78,0,3.56.17,5.33.51,1.78.34,3.37.98,4.78,1.92s2.56,2.26,3.45,3.96c.89,1.7,1.33,3.91,1.33,6.63v21.49c0,1.99.97,2.98,2.9,2.98.57,0,1.1-.1,1.57-.31v4.16c-.58.11-1.09.18-1.53.24-.44.05-1.01.08-1.69.08-1.25,0-2.26-.17-3.02-.51-.76-.34-1.35-.82-1.76-1.45-.42-.63-.69-1.37-.82-2.23-.13-.86-.2-1.82-.2-2.86h-.16c-.89,1.31-1.79,2.47-2.71,3.49-.92,1.02-1.93,1.87-3.06,2.55-1.13.68-2.41,1.2-3.84,1.57-1.44.37-3.15.55-5.14.55-1.88,0-3.65-.22-5.29-.67-1.65-.44-3.09-1.15-4.31-2.12-1.23-.97-2.2-2.2-2.9-3.69-.71-1.49-1.06-3.25-1.06-5.29,0-2.82.63-5.03,1.88-6.63,1.26-1.59,2.91-2.81,4.98-3.65,2.07-.84,4.39-1.42,6.98-1.76,2.59-.34,5.21-.67,7.88-.98,1.05-.1,1.96-.24,2.74-.39.78-.16,1.44-.43,1.96-.82.52-.39.93-.93,1.22-1.61.29-.68.43-1.57.43-2.67,0-1.67-.27-3.05-.82-4.12-.55-1.07-1.31-1.92-2.27-2.55-.97-.63-2.09-1.06-3.37-1.29-1.28-.24-2.65-.35-4.12-.35-3.14,0-5.7.75-7.69,2.24-1.99,1.49-3.03,3.88-3.14,7.18h-4.94c.16-2.35.65-4.39,1.49-6.12Zm24.7,12.08c-.31.58-.92.99-1.8,1.25-.89.26-1.67.45-2.35.55-2.09.37-4.25.69-6.47.98-2.22.29-4.25.72-6.08,1.29-1.83.58-3.33,1.4-4.51,2.47-1.18,1.07-1.76,2.6-1.76,4.59,0,1.25.25,2.37.74,3.33.5.97,1.16,1.8,2,2.51.84.71,1.8,1.24,2.9,1.61,1.1.37,2.22.55,3.37.55,1.88,0,3.69-.29,5.41-.86,1.73-.57,3.23-1.41,4.51-2.51,1.28-1.1,2.3-2.43,3.06-4,.76-1.57,1.14-3.35,1.14-5.33v-6.43h-.16Z"></path><path class="cls-1" d="m522.83,186.15v4.16h-8.23v27.29c0,1.62.22,2.89.67,3.8.44.92,1.56,1.42,3.33,1.53,1.41,0,2.82-.08,4.23-.24v4.16c-.73,0-1.46.03-2.2.08-.73.05-1.46.08-2.2.08-3.29,0-5.6-.64-6.9-1.92-1.31-1.28-1.93-3.65-1.88-7.1v-27.68h-7.06v-4.16h7.06v-12.16h4.94v12.16h8.23Z"></path><path class="cls-1" d="m532.36,213.25c.5,1.91,1.29,3.62,2.39,5.14,1.1,1.52,2.48,2.77,4.16,3.76,1.67.99,3.69,1.49,6.04,1.49,3.61,0,6.43-.94,8.47-2.82s3.45-4.39,4.24-7.53h4.94c-1.05,4.6-2.97,8.16-5.76,10.67-2.8,2.51-6.76,3.76-11.88,3.76-3.19,0-5.95-.56-8.27-1.69-2.33-1.12-4.22-2.67-5.69-4.63-1.46-1.96-2.55-4.24-3.25-6.82-.71-2.59-1.06-5.32-1.06-8.2,0-2.67.35-5.28,1.06-7.84.71-2.56,1.79-4.85,3.25-6.86,1.46-2.01,3.36-3.63,5.69-4.86,2.33-1.23,5.08-1.84,8.27-1.84s6.01.65,8.31,1.96c2.3,1.31,4.17,3.02,5.61,5.14,1.44,2.12,2.47,4.55,3.1,7.29.63,2.74.89,5.53.78,8.35h-31.14c0,1.78.25,3.62.75,5.53Zm24.47-15.1c-.6-1.73-1.45-3.25-2.55-4.59-1.1-1.33-2.43-2.4-4-3.22-1.57-.81-3.35-1.22-5.33-1.22s-3.84.41-5.41,1.22c-1.57.81-2.9,1.88-4,3.22-1.1,1.33-1.97,2.88-2.63,4.63-.65,1.75-1.09,3.54-1.29,5.37h26.19c-.05-1.88-.38-3.69-.98-5.41Z"></path><path class="cls-1" d="m592.71,194.04c-.58-1.12-1.35-2.05-2.31-2.78-.97-.73-2.08-1.27-3.33-1.61-1.26-.34-2.59-.51-4-.51-1.1,0-2.21.12-3.33.35-1.12.24-2.16.63-3.1,1.18-.94.55-1.7,1.27-2.27,2.16-.58.89-.86,1.99-.86,3.29,0,1.1.27,2.03.82,2.78.55.76,1.24,1.4,2.08,1.92.84.52,1.75.95,2.75,1.29.99.34,1.91.62,2.74.82l6.59,1.49c1.41.21,2.81.59,4.2,1.14,1.38.55,2.61,1.27,3.69,2.16,1.07.89,1.95,1.99,2.63,3.29.68,1.31,1.02,2.85,1.02,4.63,0,2.2-.5,4.07-1.49,5.61-.99,1.54-2.26,2.8-3.8,3.76-1.54.97-3.28,1.66-5.22,2.08-1.93.42-3.84.63-5.73.63-4.76,0-8.61-1.12-11.57-3.37-2.95-2.25-4.64-5.86-5.06-10.82h4.94c.21,3.35,1.42,5.87,3.65,7.57,2.22,1.7,4.98,2.55,8.27,2.55,1.2,0,2.44-.13,3.73-.39,1.28-.26,2.47-.71,3.57-1.33,1.1-.63,2-1.42,2.71-2.39.71-.97,1.06-2.16,1.06-3.57,0-1.2-.25-2.21-.75-3.02-.5-.81-1.16-1.49-2-2.04-.84-.55-1.79-1.01-2.86-1.37-1.07-.37-2.16-.68-3.26-.94l-6.35-1.41c-1.62-.42-3.11-.9-4.47-1.45-1.36-.55-2.55-1.23-3.57-2.04-1.02-.81-1.82-1.8-2.39-2.98-.58-1.18-.86-2.63-.86-4.35,0-2.04.46-3.79,1.37-5.25.91-1.46,2.1-2.64,3.57-3.53,1.46-.89,3.1-1.54,4.9-1.96,1.8-.42,3.59-.63,5.37-.63,2.04,0,3.93.26,5.69.78,1.75.52,3.29,1.33,4.63,2.43,1.33,1.1,2.39,2.46,3.18,4.08.78,1.62,1.23,3.53,1.33,5.73h-4.94c-.05-1.52-.37-2.84-.94-3.96Z"></path><path class="cls-1" d="m112.63,181.54c-1.7-2.33-3.87-4.2-6.51-5.61-2.64-1.41-5.82-2.12-9.53-2.12s-6.9.71-9.57,2.12c-2.67,1.41-4.85,3.28-6.55,5.61-1.7,2.33-2.95,4.95-3.76,7.88-.81,2.93-1.22,5.93-1.22,9.02s.4,6.03,1.22,8.98c.81,2.96,2.06,5.6,3.76,7.92,1.7,2.33,3.88,4.2,6.55,5.61,2.67,1.41,5.86,2.12,9.57,2.12s6.89-.71,9.53-2.12c2.64-1.41,4.81-3.28,6.51-5.61,1.7-2.33,2.95-4.97,3.76-7.92.81-2.95,1.22-5.95,1.22-8.98s-.41-6.09-1.22-9.02c-.81-2.93-2.07-5.55-3.76-7.88Z"></path><path class="cls-1" d="m0,151.71v96.58h136.48v-96.58H0Zm63.81,74.73h-3.84l-.71-10.2h-.16c-.94,1.99-2.11,3.7-3.49,5.14-1.39,1.44-2.92,2.61-4.59,3.53-1.67.92-3.46,1.58-5.37,2-1.91.42-3.88.63-5.92.63-4.39,0-8.25-.8-11.57-2.39-3.32-1.59-6.08-3.73-8.27-6.39-2.2-2.67-3.84-5.75-4.94-9.25-1.1-3.5-1.65-7.19-1.65-11.06s.55-7.55,1.65-11.06c1.1-3.5,2.75-6.6,4.94-9.29,2.2-2.69,4.95-4.84,8.27-6.43,3.32-1.59,7.18-2.39,11.57-2.39,2.93,0,5.7.39,8.31,1.18,2.61.78,4.94,1.96,6.98,3.53s3.76,3.5,5.18,5.8c1.41,2.3,2.38,4.99,2.9,8.08h-5.33c-.16-1.62-.69-3.25-1.61-4.9-.92-1.65-2.14-3.15-3.69-4.51-1.54-1.36-3.39-2.47-5.53-3.33-2.14-.86-4.55-1.29-7.22-1.29-3.71,0-6.9.71-9.57,2.12-2.67,1.41-4.85,3.28-6.55,5.61-1.7,2.33-2.95,4.95-3.76,7.88-.81,2.93-1.22,5.93-1.22,9.02s.4,6.03,1.22,8.98c.81,2.96,2.07,5.6,3.76,7.92,1.7,2.33,3.88,4.2,6.55,5.61,2.67,1.41,5.86,2.12,9.57,2.12,3.08,0,5.84-.51,8.27-1.53,2.43-1.02,4.48-2.44,6.16-4.27,1.67-1.83,2.93-4,3.76-6.51.84-2.51,1.23-5.25,1.18-8.24h-19.06v-4.55h23.76v28.47Zm57.49-16.94c-1.1,3.5-2.74,6.59-4.94,9.25-2.2,2.67-4.94,4.8-8.23,6.39-3.29,1.59-7.14,2.39-11.53,2.39s-8.25-.8-11.57-2.39c-3.32-1.59-6.08-3.73-8.27-6.39-2.2-2.67-3.84-5.75-4.94-9.25-1.1-3.5-1.65-7.19-1.65-11.06s.55-7.55,1.65-11.06c1.1-3.5,2.74-6.6,4.94-9.29,2.2-2.69,4.95-4.84,8.27-6.43,3.32-1.59,7.18-2.39,11.57-2.39s8.24.8,11.53,2.39c3.29,1.6,6.04,3.74,8.23,6.43,2.2,2.69,3.84,5.79,4.94,9.29,1.1,3.5,1.65,7.19,1.65,11.06s-.55,7.56-1.65,11.06Z"></path></svg> 