<?xml version="1.0" encoding="UTF-8"?> <svg xmlns="http://www.w3.org/2000/svg" id="Layer_1" width="600" height="400" viewBox="0 0 600 400"><defs><style>.cls-1{fill:#3c3c3a;}.cls-1,.cls-2{stroke-width:0px;}.cls-2{fill:#cc1121;}</style></defs><path class="cls-2" d="m48.4,189.45h-11.93v20.22h12.2v-.05c4.52-.42,8.06-4.75,8.06-10.11s-3.54-9.69-8.06-10.11h-.28v.05Z"></path><path class="cls-2" d="m23.43,210.5v-34.1h24.22c6.43,0,8.48,1.35,8.48,1.35l14.58-14.07c-7.31-5.26-16.35-8.39-26.04-8.39C20.03,155.3,0,175.33,0,200.02,0,209.81,3.12,218.84,8.43,226.16l15-15.65Z"></path><path class="cls-2" d="m80.68,173.47l-14.02,13.98s.65,1.35,1.63,3.87,1.96,6.43,1.3,10.9-1.86,9.83-6.34,14.39-8.8,6.01-14.21,6.1c-5.4.09-17.61,0-17.61,0l-13.32,13.18c7.45,5.54,16.63,8.8,26.65,8.8,24.69,0,44.67-20.03,44.67-44.67-.05-9.97-3.31-19.15-8.76-26.55Z"></path><path class="cls-1" d="m118.28,188.33v31.26h-4.89v-38.99h5.31l13.18,27.07,13.23-27.07h5.36v38.99h-4.89v-31.26l-11.93,24.46h-3.31l-12.07-24.46Z"></path><path class="cls-1" d="m164.39,219.59h-5.12l14.81-38.99h5.82l14.77,38.99h-5.08l-4.1-10.71h-16.96l-4.15,10.71Zm4.94-14.67h15.19l-7.64-20.03-7.55,20.03Z"></path><path class="cls-1" d="m232.03,199.88c-1.4,1.86-3.49,3.12-6.2,3.77.75.47,1.35.98,1.77,1.54.42.61.89,1.44,1.4,2.66l5.08,11.74h-5.08l-4.98-11.32c-.56-1.3-1.26-2.19-2.05-2.66-.79-.47-2.05-.75-3.87-.75h-8.25v14.72h-4.89v-38.99h17.14c4.1,0,7.13,1.07,9.08,3.17,1.96,2.1,2.98,5.08,2.98,8.94-.05,2.89-.75,5.31-2.14,7.17Zm-2.84-7.17c0-5.45-2.61-8.15-7.83-8.15h-11.46v16.49h10.76c5.68-.05,8.52-2.84,8.52-8.34Z"></path><path class="cls-1" d="m273.91,219.59h-5.31l-12.86-20.17-6.38,6.71v13.46h-4.98v-38.99h4.98v19.33l18.26-19.33h5.82l-14.53,15.61,15,23.39Z"></path><path class="cls-1" d="m284.21,180.6h26.37v3.96h-21.38v13.6h19.19v3.87h-19.19v13.7h21.38v3.87h-26.37v-38.99h0Z"></path><path class="cls-1" d="m336.38,219.59h-4.98v-35.08h-12.95v-3.91h30.89v3.96h-12.95v35.03Z"></path><path class="cls-1" d="m358.42,180.6h4.94v38.99h-4.98v-38.99h.05Z"></path><path class="cls-1" d="m379.84,219.59h-4.98v-38.99h4.47l22.22,31.35v-31.35h4.98v38.99h-4.52l-22.17-31.3v31.3Z"></path><path class="cls-1" d="m445.2,214.37v-12.44h-10.43v-3.4h14.72v18.54c-3.21,2.1-7.87,3.12-13.93,3.12s-10.81-1.72-13.98-5.12c-3.17-3.45-4.75-8.15-4.75-14.11,0-6.61,1.54-11.79,4.57-15.47,3.03-3.68,7.73-5.5,14.07-5.5,4.15,0,7.92.61,11.32,1.82v4.38c-3.45-1.3-7.08-1.96-10.9-1.96-5.03,0-8.66,1.4-10.85,4.24s-3.26,6.99-3.26,12.48c0,4.94,1.12,8.66,3.4,11.18,2.28,2.56,5.82,3.82,10.67,3.82,3.54,0,6.66-.51,9.36-1.58Z"></path><path class="cls-2" d="m462.53,180.6h17.42c6.2,0,10.95,1.58,14.16,4.7s4.8,8.15,4.8,15.05-1.58,11.41-4.8,14.58c-3.21,3.12-7.92,4.7-14.16,4.7h-17.42v-39.04Zm15.98,30.28c2,0,3.63-.28,4.89-.89s2.19-1.63,2.89-3.17.98-3.68.98-6.52-.28-5.08-.89-6.71c-.61-1.58-1.54-2.7-2.8-3.35-1.26-.65-2.93-.98-5.08-.98h-4.61v21.61h4.61Z"></path><path class="cls-2" d="m506.18,180.6h11.37v38.99h-11.37v-38.99Z"></path><path class="cls-2" d="m523.6,180.6h11.88l9.08,25.81,9.08-25.81h11.93l-14.95,38.99h-12.07l-14.95-38.99Z"></path><path class="cls-2" d="m570.42,180.6h29.53v8.71h-18.17v6.38h15.93v8.85h-15.89v6.34h18.17v8.71h-29.53v-38.99h-.05Z"></path></svg> 