<?xml version="1.0" encoding="UTF-8"?> <svg xmlns="http://www.w3.org/2000/svg" id="Layer_3" width="100" height="39.35" viewBox="0 0 100 39.35"><path d="m11.63,34.98c-.13.35-.2.77-.2,1.26,0,.43.06.81.17,1.16.12.34.29.63.51.87.22.24.5.42.82.55.32.13.69.19,1.1.19.12,0,.25,0,.39-.02.13-.01.26-.03.39-.05.13-.02.24-.05.35-.09.11-.03.2-.08.28-.12,0-.17.01-.35.01-.53,0-.17,0-.35,0-.53,0-.2,0-.41-.01-.61,0-.2-.02-.4-.03-.59.15.03.29.04.42.04.06,0,.13,0,.19,0,.06,0,.13-.02.18-.04-.01.13-.02.35-.03.63,0,.29,0,.67,0,1.14,0,.12,0,.23,0,.35,0,.12,0,.24,0,.35-.12.05-.28.09-.46.14-.18.05-.38.09-.59.12-.21.03-.41.06-.62.09-.21.03-.4.04-.56.04-.52,0-.99-.06-1.4-.19-.42-.13-.77-.32-1.06-.58-.29-.26-.52-.59-.67-.98s-.24-.84-.24-1.36.08-.94.24-1.33c.16-.39.39-.72.69-.98.3-.27.66-.47,1.08-.61.42-.14.89-.21,1.4-.21.3,0,.56.02.79.05.23.03.43.07.61.13.18.05.33.11.47.17.13.06.25.11.36.17-.05.08-.09.19-.13.31-.04.13-.06.25-.07.36h-.11c-.09-.11-.2-.21-.33-.31-.13-.1-.28-.2-.44-.28-.16-.08-.34-.14-.53-.19-.2-.05-.4-.07-.63-.07-.36,0-.7.06-1.01.17-.31.11-.58.28-.81.51-.23.23-.41.52-.54.87Zm10.33,3.89c.13.16.24.28.32.36-.09-.01-.18-.02-.26-.02h-.52c-.09,0-.17,0-.25.02-.09-.12-.22-.31-.4-.55-.18-.24-.37-.51-.59-.79-.22-.28-.44-.56-.66-.84-.22-.28-.43-.51-.62-.7h-.33v.64c0,.38,0,.76.02,1.14.01.37.03.74.05,1.1-.13-.01-.28-.02-.43-.02s-.29,0-.43.02c.02-.36.03-.73.05-1.1.01-.37.02-.75.02-1.14v-1.5c0-.39,0-.76-.02-1.13-.01-.37-.03-.75-.05-1.13.17.01.34.02.5.03.16,0,.33.01.5.01s.34,0,.5-.02c.16-.01.33-.02.5-.02.24,0,.48.02.7.07.22.05.42.12.58.23.17.11.3.25.39.42.1.17.14.39.14.66,0,.28-.06.52-.19.72-.13.2-.28.37-.46.5-.18.13-.37.23-.58.31-.21.07-.4.12-.56.14.07.09.17.21.29.37s.26.33.41.52c.15.19.31.39.47.6.16.21.32.41.47.59.15.19.29.36.43.52Zm-2.16-2.9c.2-.04.37-.11.54-.21.16-.1.3-.24.41-.41.11-.17.16-.39.16-.65,0-.23-.04-.42-.13-.56-.08-.15-.19-.27-.33-.35-.13-.09-.28-.15-.44-.18-.16-.03-.31-.05-.46-.05-.2,0-.37,0-.51.01-.13,0-.25.02-.34.03-.01.32-.02.64-.04.95-.01.31-.02.63-.02.94v.5c.08.02.17.03.27.03.1,0,.2,0,.32,0,.18,0,.37-.02.56-.06Zm4.31-1.61c.01-.37.03-.75.05-1.13-.08.01-.15.02-.22.03-.07,0-.14.01-.21.01s-.14,0-.21-.01c-.07,0-.14-.02-.22-.03.02.38.03.76.05,1.13.01.37.02.75.02,1.13v1.5c0,.38,0,.76-.02,1.14-.01.37-.03.74-.05,1.1.13-.01.28-.02.43-.02s.29,0,.43.02c-.02-.36-.03-.73-.05-1.1-.01-.37-.02-.75-.02-1.14v-1.5c0-.39,0-.76.02-1.13Zm4.14-1.1c-.27,0-.53.01-.8.01s-.52,0-.78-.01c-.26,0-.52-.02-.78-.03.02.38.03.76.05,1.13.01.37.02.75.02,1.13v1.5c0,.38,0,.76-.02,1.14-.01.37-.03.74-.05,1.1.13-.01.28-.02.43-.02s.29,0,.43.02c-.02-.36-.03-.73-.05-1.1-.01-.37-.02-.75-.02-1.14v-.74h.59c.2,0,.41,0,.6,0,.2,0,.39.01.57.02.18,0,.35.02.49.04-.02-.09-.04-.17-.04-.26s.01-.18.04-.26c-.37.04-.74.06-1.12.07-.38.01-.76.02-1.14.02,0-.19,0-.37,0-.54,0-.17,0-.36,0-.56,0-.19,0-.37,0-.56,0-.19,0-.38.01-.59.14,0,.32,0,.53,0,.21,0,.43.01.66.02.23,0,.46.02.68.04.22.01.41.03.57.05-.02-.09-.03-.17-.03-.26s0-.17.03-.26c-.31.01-.61.02-.87.03Zm4.53,0c-.27,0-.53.01-.8.01s-.52,0-.78-.01c-.26,0-.52-.02-.78-.03.02.38.03.76.05,1.13.01.37.02.75.02,1.13v1.5c0,.38,0,.76-.02,1.14-.01.37-.03.74-.05,1.1.13-.01.28-.02.43-.02s.29,0,.43.02c-.02-.36-.03-.73-.05-1.1-.01-.37-.02-.75-.02-1.14v-.74h.59c.2,0,.41,0,.6,0,.2,0,.39.01.57.02.18,0,.35.02.49.04-.02-.09-.04-.17-.04-.26s.01-.18.04-.26c-.37.04-.74.06-1.12.07-.38.01-.76.02-1.14.02,0-.19,0-.37,0-.54,0-.17,0-.36,0-.56,0-.19,0-.37,0-.56,0-.19,0-.38.01-.59.14,0,.32,0,.53,0,.21,0,.43.01.66.02.23,0,.46.02.68.04.22.01.41.03.57.05-.02-.09-.03-.17-.03-.26s0-.17.03-.26c-.31.01-.61.02-.87.03Zm2.89,1.1c.01-.37.03-.75.05-1.13-.08.01-.15.02-.22.03-.07,0-.14.01-.21.01s-.14,0-.21-.01c-.07,0-.14-.02-.22-.03.02.38.03.76.05,1.13.01.37.02.75.02,1.13v1.5c0,.38,0,.76-.02,1.14-.01.37-.03.74-.05,1.1.13-.01.28-.02.43-.02s.29,0,.43.02c-.02-.36-.03-.73-.05-1.1-.01-.37-.02-.75-.02-1.14v-1.5c0-.39,0-.76.02-1.13Zm4.51-1.1c-.37,0-.74.01-1.13.01s-.76,0-1.13-.01c-.37,0-.74-.02-1.13-.03.03.12.04.21.04.27,0,.08-.01.18-.04.28.12-.02.26-.03.42-.04.15-.01.31-.02.48-.03.17,0,.33-.01.5-.02.17,0,.33,0,.48,0,.02.6.03,1.2.03,1.81v1.5c0,.38,0,.76-.02,1.14-.01.37-.03.74-.05,1.1.13-.01.28-.02.43-.02s.29,0,.43.02c-.02-.36-.03-.73-.05-1.1-.01-.37-.02-.75-.02-1.14v-1.5c0-.61,0-1.21.03-1.81.15,0,.31,0,.48,0,.17,0,.33,0,.5.02.17,0,.33.02.48.03.15.01.29.03.42.04-.03-.1-.04-.2-.04-.27,0-.07.01-.16.04-.28-.39.01-.76.02-1.13.03Zm7.48,1.1c.01-.37.03-.75.05-1.13-.08.01-.15.02-.22.03-.07,0-.14.01-.21.01s-.14,0-.21-.01c-.07,0-.14-.02-.22-.03.02.38.03.76.05,1.13.01.37.02.75.02,1.13v.31c-.31,0-.62.01-.91.02-.29,0-.6,0-.91,0s-.62,0-.91,0c-.29,0-.6-.01-.91-.02v-.31c0-.39,0-.76.02-1.13.01-.37.03-.75.05-1.13-.08.01-.15.02-.22.03-.07,0-.14.01-.21.01s-.14,0-.21-.01c-.07,0-.14-.02-.22-.03.02.38.03.76.05,1.13.01.37.02.75.02,1.13v1.5c0,.38,0,.76-.02,1.14-.01.37-.03.74-.05,1.1.13-.01.28-.02.43-.02s.29,0,.43.02c-.02-.36-.03-.73-.05-1.1-.01-.37-.02-.75-.02-1.14v-.79c.31,0,.62-.01.91-.01.29,0,.6,0,.91,0s.62,0,.91,0c.29,0,.6,0,.91.01v.79c0,.38,0,.76-.02,1.14-.01.37-.03.74-.05,1.1.13-.01.28-.02.43-.02s.29,0,.43.02c-.02-.36-.03-.73-.05-1.1-.01-.37-.02-.75-.02-1.14v-1.5c0-.39,0-.76.02-1.13Zm5.46-.24c.22-.23.48-.4.77-.51.29-.11.61-.17.96-.17.21,0,.4.03.58.08.17.06.33.12.47.21.14.08.26.17.37.25s.19.17.24.24l.05-.02c.02-.09.04-.21.07-.35.03-.14.07-.25.11-.33-.24-.11-.53-.21-.84-.28-.32-.08-.67-.12-1.05-.12-.48,0-.93.07-1.33.21s-.75.34-1.04.61c-.29.27-.51.6-.67.98-.16.39-.24.83-.24,1.33s.08.94.24,1.33c.16.39.38.72.66.98.28.27.62.47,1.01.6.39.13.82.2,1.28.2.22,0,.42-.02.62-.05.2-.03.38-.07.54-.12.16-.04.3-.09.41-.15.11-.06.2-.11.25-.15l.08-.52-.03-.03c-.08.06-.18.14-.3.22-.12.08-.25.16-.4.24-.15.07-.31.14-.49.19-.18.05-.37.08-.58.08-.34,0-.66-.06-.96-.17-.29-.11-.55-.28-.77-.51-.22-.23-.39-.52-.51-.87-.12-.35-.18-.77-.18-1.26s.06-.9.18-1.26c.12-.35.29-.64.51-.87Zm10.95.8c.17.39.25.83.25,1.33s-.08.94-.25,1.33c-.17.39-.4.72-.7.98-.3.27-.66.47-1.07.6-.42.13-.88.2-1.38.2s-.95-.07-1.37-.2c-.42-.13-.77-.33-1.07-.6-.3-.27-.53-.6-.7-.98-.17-.39-.25-.83-.25-1.33s.08-.94.25-1.33c.17-.39.4-.72.7-.98.3-.27.66-.47,1.07-.61s.87-.21,1.37-.21.96.07,1.38.21.77.34,1.07.61c.3.27.53.6.7.98Zm-.64,1.33c0-.48-.06-.9-.19-1.26-.13-.35-.3-.64-.53-.87-.23-.23-.49-.4-.8-.51-.3-.11-.64-.17-.99-.17s-.68.06-.98.17c-.3.11-.57.28-.8.51-.23.23-.4.52-.53.87-.13.35-.19.77-.19,1.26s.06.9.19,1.26c.13.35.3.64.53.87.23.23.49.4.8.51.3.11.63.17.98.17s.69-.06.99-.17c.3-.11.57-.28.8-.51.23-.23.4-.52.53-.87.13-.35.19-.77.19-1.26Zm4.13,2.59c-.38,0-.78.01-1.19.01,0-.43-.01-.91-.02-1.45,0-.54,0-1.18,0-1.91,0-.39,0-.76.02-1.13.01-.37.03-.75.05-1.13-.08.01-.15.02-.22.03-.07,0-.14.01-.21.01s-.14,0-.21-.01c-.07,0-.14-.02-.22-.03.02.38.03.76.05,1.13.01.37.02.75.02,1.13v1.5c0,.38,0,.76-.02,1.14-.01.37-.03.74-.05,1.1.28-.01.55-.02.81-.02h1.61c.27,0,.54,0,.8.02-.03-.09-.04-.17-.04-.24,0-.07.01-.16.04-.26-.44.06-.85.09-1.22.1Zm4.53,0c-.38,0-.78.01-1.19.01,0-.43-.01-.91-.02-1.45,0-.54,0-1.18,0-1.91,0-.39,0-.76.02-1.13.01-.37.03-.75.05-1.13-.08.01-.15.02-.22.03-.07,0-.14.01-.21.01s-.14,0-.21-.01c-.07,0-.14-.02-.22-.03.02.38.03.76.05,1.13.01.37.02.75.02,1.13v1.5c0,.38,0,.76-.02,1.14-.01.37-.03.74-.05,1.1.28-.01.55-.02.81-.02h1.61c.27,0,.54,0,.8.02-.03-.09-.04-.17-.04-.24,0-.07.01-.16.04-.26-.44.06-.85.09-1.22.1Zm5.7-.1c-.14.03-.3.05-.49.07-.19.01-.39.03-.6.04-.21,0-.43.01-.65.01h-.61c0-.11-.01-.27-.01-.49,0-.22,0-.49,0-.82v-.87c0-.09,0-.17,0-.23,0-.06,0-.12,0-.17.1,0,.25,0,.42,0,.18,0,.37,0,.57,0,.2,0,.4.01.6.02s.38.03.53.04c-.02-.09-.03-.18-.03-.26,0-.09,0-.18.03-.27-.13.01-.26.02-.41.03-.14,0-.3.02-.47.03-.17,0-.36.02-.56.02-.2,0-.43,0-.69,0,0-.11,0-.27,0-.49,0-.22,0-.44,0-.67,0-.22,0-.41.01-.58,0-.17.02-.35.02-.53.29,0,.53,0,.73.01.2,0,.39.02.56.03.17.01.34.02.49.04s.33.02.51.03c-.02-.09-.03-.17-.03-.26s0-.17.03-.26c-.26.01-.52.02-.78.03-.26,0-.52.01-.78.01s-.52,0-.78-.01c-.26,0-.52-.02-.78-.03.02.37.03.75.05,1.12.01.37.02.75.02,1.14v1.5c0,.39,0,.76-.02,1.13-.01.37-.03.74-.05,1.12.27-.01.53-.02.8-.02h1.59c.26,0,.52,0,.78.02-.02-.06-.03-.13-.03-.23,0-.04,0-.09,0-.14,0-.05.01-.09.02-.14Zm2.7-4.62c.23-.23.5-.4.81-.51.31-.11.65-.17,1.01-.17.22,0,.43.02.63.07.2.05.37.11.53.19.16.08.31.17.44.28s.24.21.33.31h.1c.01-.11.04-.23.07-.36.04-.13.08-.23.13-.31-.1-.05-.22-.11-.36-.17-.13-.06-.29-.11-.47-.17-.18-.05-.38-.09-.61-.13-.23-.03-.49-.05-.79-.05-.51,0-.98.07-1.4.21-.42.14-.78.34-1.08.61-.3.27-.53.6-.69.98-.16.39-.25.83-.25,1.33s.08.97.24,1.36.38.72.67.98c.29.26.65.46,1.06.58.42.13.89.19,1.4.19.17,0,.36-.01.56-.04.21-.03.41-.06.62-.09.21-.03.4-.07.59-.12.18-.05.34-.1.46-.14,0-.12,0-.23,0-.35,0-.12,0-.24,0-.35,0-.47,0-.85,0-1.14,0-.29.01-.5.03-.63-.06.02-.12.03-.18.04-.06,0-.13,0-.19,0-.13,0-.27-.01-.42-.04.01.19.02.38.03.59,0,.2.01.41.01.61,0,.18,0,.36,0,.53,0,.18,0,.35-.01.53-.08.05-.17.09-.28.12-.11.04-.22.06-.35.09-.13.02-.26.04-.39.05-.13.01-.26.02-.39.02-.41,0-.77-.06-1.1-.19-.32-.13-.6-.31-.82-.55-.22-.24-.4-.53-.51-.87s-.17-.73-.17-1.16c0-.48.07-.9.2-1.26.13-.35.31-.64.54-.87Zm8.8,4.62c-.14.03-.3.05-.49.07-.19.01-.39.03-.6.04-.21,0-.43.01-.65.01h-.61c0-.11-.01-.27-.01-.49,0-.22,0-.49,0-.82v-.87c0-.09,0-.17,0-.23,0-.06,0-.12,0-.17.1,0,.25,0,.42,0,.18,0,.37,0,.57,0,.2,0,.4.01.6.02s.38.03.53.04c-.02-.09-.03-.18-.03-.26,0-.09,0-.18.03-.27-.13.01-.26.02-.41.03-.14,0-.3.02-.47.03-.17,0-.36.02-.56.02-.2,0-.43,0-.69,0,0-.11,0-.27,0-.49,0-.22,0-.44,0-.67,0-.22,0-.41.01-.58,0-.17.02-.35.02-.53.29,0,.53,0,.73.01.2,0,.39.02.56.03.17.01.34.02.49.04s.33.02.51.03c-.02-.09-.03-.17-.03-.26s0-.17.03-.26c-.26.01-.52.02-.78.03-.26,0-.52.01-.78.01s-.52,0-.78-.01c-.26,0-.52-.02-.78-.03.02.37.03.75.05,1.12.01.37.02.75.02,1.14v1.5c0,.39,0,.76-.02,1.13-.01.37-.03.74-.05,1.12.27-.01.53-.02.8-.02h1.59c.26,0,.52,0,.78.02-.02-.06-.03-.13-.03-.23,0-.04,0-.09,0-.14,0-.05.01-.09.02-.14ZM14.59,19.9h.06v-.42h2.07v.42h.07v.56h-.07v.1h.07v.56h-.07v.12h.07v.56h-.18v.31h-1.86v-.31h-.16v-.56h.06v-.12h-.06v-.56h.06v-.1h-.06v-.56Zm.85,1.23h-.11v.4h.11v-.4Zm.98-1.3h.17v-.26h-.17v.26Zm-.03.47h.24v-.24h-.24v.24Zm0,.66h.24v-.24h-.24v.24Zm0,.68h.24v-.24h-.24v.24Zm-.36-1.82h.17v-.26h-.17v.26Zm-.39,0h.17v-.26h-.17v.26Zm0,.92h.4v-.4h-.4v.4Zm0,.78h.4v-.4h-.4v.4Zm-.19-1.17h-.11v.4h.11v-.4Zm-.2-.53h.17v-.26h-.17v.26Zm-.39,0h.17v-.26h-.17v.26Zm-.1.48h.24v-.24h-.24v.24Zm0,.66h.24v-.24h-.24v.24Zm0,.68h.24v-.24h-.24v.24Zm3.72.16h-.16v-.56h.06v-.12h-.06v-.56h.06v-.1h-.06v-.56h.06v-.42h2.07v.42h.07v.56h-.07v.1h.07v.56h-.07v.12h.07v.56h-.18v.31h-1.86v-.31Zm.69-.68h-.11v.4h.11v-.4Zm.98-1.3h.17v-.26h-.17v.26Zm-.03.47h.24v-.24h-.24v.24Zm0,.66h.24v-.24h-.24v.24Zm0,.68h.24v-.24h-.24v.24Zm-.36-1.82h.17v-.26h-.17v.26Zm-.39,0h.17v-.26h-.17v.26Zm0,.92h.4v-.4h-.4v.4Zm0,.78h.4v-.4h-.4v.4Zm-.19-1.17h-.11v.4h.11v-.4Zm-.2-.53h.17v-.26h-.17v.26Zm-.39,0h.17v-.26h-.17v.26Zm-.1.48h.24v-.24h-.24v.24Zm0,.66h.24v-.24h-.24v.24Zm0,.68h.24v-.24h-.24v.24Zm-1.75,1.51h.07v.56h-.07v.1h.07v.56h-.07v.12h.07v.56h-.18v.31h-1.86v-.31h-.16v-.56h.06v-.12h-.06v-.56h.06v-.1h-.06v-.56h.06v-.42h2.07v.42Zm-.3-.07h.17v-.26h-.17v.26Zm-.79,0h.17v-.26h-.17v.26Zm-.65,1.58h-.24v.24h.24v-.24Zm0-.68h-.24v.24h.24v-.24Zm0-.66h-.24v.24h.24v-.24Zm.03-.5h-.17v.26h.17v-.26Zm.22.27h.17v-.26h-.17v.26Zm.2,1.3h-.11v.4h.11v-.4Zm0-.78h-.11v.4h.11v-.4Zm.59.78h-.4v.4h.4v-.4Zm0-.78h-.4v.4h.4v-.4Zm.17-.79h-.17v.26h.17v-.26Zm.42,1.84h-.24v.24h.24v-.24Zm0-.68h-.24v.24h.24v-.24Zm0-.66h-.24v.24h.24v-.24Zm1.85,1.74h-.16v-.56h.06v-.12h-.06v-.56h.06v-.1h-.06v-.56h.06v-.42h2.07v.42h.07v.56h-.07v.1h.07v.56h-.07v.12h.07v.56h-.18v.31h-1.86v-.31Zm.69-.68h-.11v.4h.11v-.4Zm.98-1.3h.17v-.26h-.17v.26Zm-.03.47h.24v-.24h-.24v.24Zm0,.66h.24v-.24h-.24v.24Zm0,.68h.24v-.24h-.24v.24Zm-.36-1.82h.17v-.26h-.17v.26Zm-.39,0h.17v-.26h-.17v.26Zm0,.92h.4v-.4h-.4v.4Zm0,.78h.4v-.4h-.4v.4Zm-.19-1.17h-.11v.4h.11v-.4Zm-.2-.53h.17v-.26h-.17v.26Zm-.39,0h.17v-.26h-.17v.26Zm-.1.48h.24v-.24h-.24v.24Zm0,.66h.24v-.24h-.24v.24Zm0,.68h.24v-.24h-.24v.24Zm19.67-3.09h-.16v-.56h.06v-.12h-.06v-.56h.06v-.1h-.06v-.56h.06v-.42h2.07v.42h.07v.56h-.07v.1h.07v.56h-.07v.12h.07v.56h-.18v.31h-1.86v-.31Zm.69-.68h-.11v.4h.11v-.4Zm.98-1.3h.17v-.26h-.17v.26Zm-.03.47h.24v-.24h-.24v.24Zm0,.66h.24v-.24h-.24v.24Zm0,.68h.24v-.24h-.24v.24Zm-.36-1.82h.17v-.26h-.17v.26Zm-.39,0h.17v-.26h-.17v.26Zm0,.92h.4v-.4h-.4v.4Zm0,.78h.4v-.4h-.4v.4Zm-.19-1.17h-.11v.4h.11v-.4Zm-.2-.53h.17v-.26h-.17v.26Zm-.39,0h.17v-.26h-.17v.26Zm-.1.48h.24v-.24h-.24v.24Zm0,.66h.24v-.24h-.24v.24Zm0,.68h.24v-.24h-.24v.24Zm2.89.16h-.16v-.56h.06v-.12h-.06v-.56h.06v-.1h-.06v-.56h.06v-.42h2.07v.42h.07v.56h-.07v.1h.07v.56h-.07v.12h.07v.56h-.18v.31h-1.86v-.31Zm.69-.68h-.11v.4h.11v-.4Zm.98-1.3h.17v-.26h-.17v.26Zm-.03.47h.24v-.24h-.24v.24Zm0,.66h.24v-.24h-.24v.24Zm0,.68h.24v-.24h-.24v.24Zm-.36-1.82h.17v-.26h-.17v.26Zm-.39,0h.17v-.26h-.17v.26Zm0,.92h.4v-.4h-.4v.4Zm0,.78h.4v-.4h-.4v.4Zm-.19-1.17h-.11v.4h.11v-.4Zm-.2-.53h.17v-.26h-.17v.26Zm-.39,0h.17v-.26h-.17v.26Zm-.1.48h.24v-.24h-.24v.24Zm0,.66h.24v-.24h-.24v.24Zm0,.68h.24v-.24h-.24v.24Zm-2.9,3.42h-.16v-.56h.06v-.12h-.06v-.56h.06v-.1h-.06v-.56h.06v-.42h2.07v.42h.07v.56h-.07v.1h.07v.56h-.07v.12h.07v.56h-.18v.31h-1.86v-.31Zm.69-.68h-.11v.4h.11v-.4Zm.98-1.3h.17v-.26h-.17v.26Zm-.03.47h.24v-.24h-.24v.24Zm0,.66h.24v-.24h-.24v.24Zm0,.68h.24v-.24h-.24v.24Zm-.36-1.82h.17v-.26h-.17v.26Zm-.39,0h.17v-.26h-.17v.26Zm0,.92h.4v-.4h-.4v.4Zm0,.78h.4v-.4h-.4v.4Zm-.19-1.17h-.11v.4h.11v-.4Zm-.2-.53h.17v-.26h-.17v.26Zm-.39,0h.17v-.26h-.17v.26Zm-.1.48h.24v-.24h-.24v.24Zm0,.66h.24v-.24h-.24v.24Zm0,.68h.24v-.24h-.24v.24Zm2.89.16h-.16v-.56h.06v-.12h-.06v-.56h.06v-.1h-.06v-.56h.06v-.42h2.07v.42h.07v.56h-.07v.1h.07v.56h-.07v.12h.07v.56h-.18v.31h-1.86v-.31Zm.69-.68h-.11v.4h.11v-.4Zm.98-1.3h.17v-.26h-.17v.26Zm-.03.47h.24v-.24h-.24v.24Zm0,.66h.24v-.24h-.24v.24Zm0,.68h.24v-.24h-.24v.24Zm-.36-1.82h.17v-.26h-.17v.26Zm-.39,0h.17v-.26h-.17v.26Zm0,.92h.4v-.4h-.4v.4Zm0,.78h.4v-.4h-.4v.4Zm-.19-1.17h-.11v.4h.11v-.4Zm-.2-.53h.17v-.26h-.17v.26Zm-.39,0h.17v-.26h-.17v.26Zm-.1.48h.24v-.24h-.24v.24Zm0,.66h.24v-.24h-.24v.24Zm0,.68h.24v-.24h-.24v.24Zm-8.62-5h.06v-.42h2.07v.42h.07v.56h-.07v.1h.07v.56h-.07v.12h.07v.56h-.18v.31h-1.86v-.31h-.16v-.56h.06v-.12h-.06v-.56h.06v-.1h-.06v-.56Zm.85,1.23h-.11v.4h.11v-.4Zm.98-1.3h.17v-.26h-.17v.26Zm-.03.47h.24v-.24h-.24v.24Zm0,.66h.24v-.24h-.24v.24Zm0,.68h.24v-.24h-.24v.24Zm-.36-1.82h.17v-.26h-.17v.26Zm-.39,0h.17v-.26h-.17v.26Zm0,.92h.4v-.4h-.4v.4Zm0,.78h.4v-.4h-.4v.4Zm-.19-1.17h-.11v.4h.11v-.4Zm-.2-.53h.17v-.26h-.17v.26Zm-.39,0h.17v-.26h-.17v.26Zm-.1.48h.24v-.24h-.24v.24Zm0,.66h.24v-.24h-.24v.24Zm0,.68h.24v-.24h-.24v.24Zm2.92.16h-.16v-.56h.06v-.12h-.06v-.56h.06v-.1h-.06v-.56h.06v-.42h2.07v.42h.07v.56h-.07v.1h.07v.56h-.07v.12h.07v.56h-.18v.31h-1.86v-.31Zm.69-.68h-.11v.4h.11v-.4Zm.98-1.3h.17v-.26h-.17v.26Zm-.03.47h.24v-.24h-.24v.24Zm0,.66h.24v-.24h-.24v.24Zm0,.68h.24v-.24h-.24v.24Zm-.36-1.82h.17v-.26h-.17v.26Zm-.39,0h.17v-.26h-.17v.26Zm0,.92h.4v-.4h-.4v.4Zm0,.78h.4v-.4h-.4v.4Zm-.19-1.17h-.11v.4h.11v-.4Zm-.2-.53h.17v-.26h-.17v.26Zm-.39,0h.17v-.26h-.17v.26Zm-.1.48h.24v-.24h-.24v.24Zm0,.66h.24v-.24h-.24v.24Zm0,.68h.24v-.24h-.24v.24Zm-.95,1.51h.07v.56h-.07v.1h.07v.56h-.07v.12h.07v.56h-.18v.31h-1.86v-.31h-.16v-.56h.06v-.12h-.06v-.56h.06v-.1h-.06v-.56h.06v-.42h2.07v.42Zm-.3-.07h.17v-.26h-.17v.26Zm-.79,0h.17v-.26h-.17v.26Zm-.65,1.58h-.24v.24h.24v-.24Zm0-.68h-.24v.24h.24v-.24Zm0-.66h-.24v.24h.24v-.24Zm.03-.5h-.17v.26h.17v-.26Zm.22.27h.17v-.26h-.17v.26Zm.2,1.3h-.11v.4h.11v-.4Zm0-.78h-.11v.4h.11v-.4Zm.59.78h-.4v.4h.4v-.4Zm0-.78h-.4v.4h.4v-.4Zm.17-.79h-.17v.26h.17v-.26Zm.42,1.84h-.24v.24h.24v-.24Zm0-.68h-.24v.24h.24v-.24Zm0-.66h-.24v.24h.24v-.24Zm1.05,1.74h-.16v-.56h.06v-.12h-.06v-.56h.06v-.1h-.06v-.56h.06v-.42h2.07v.42h.07v.56h-.07v.1h.07v.56h-.07v.12h.07v.56h-.18v.31h-1.86v-.31Zm.69-.68h-.11v.4h.11v-.4Zm.98-1.3h.17v-.26h-.17v.26Zm-.03.47h.24v-.24h-.24v.24Zm0,.66h.24v-.24h-.24v.24Zm0,.68h.24v-.24h-.24v.24Zm-.36-1.82h.17v-.26h-.17v.26Zm-.39,0h.17v-.26h-.17v.26Zm0,.92h.4v-.4h-.4v.4Zm0,.78h.4v-.4h-.4v.4Zm-.19-1.17h-.11v.4h.11v-.4Zm-.2-.53h.17v-.26h-.17v.26Zm-.39,0h.17v-.26h-.17v.26Zm-.1.48h.24v-.24h-.24v.24Zm0,.66h.24v-.24h-.24v.24Zm0,.68h.24v-.24h-.24v.24Zm-9.72-5h.06v-.42h2.07v.42h.07v.56h-.07v.1h.07v.56h-.07v.12h.07v.56h-.18v.31h-1.86v-.31h-.16v-.56h.06v-.12h-.06v-.56h.06v-.1h-.06v-.56Zm.85,1.23h-.11v.4h.11v-.4Zm.98-1.3h.17v-.26h-.17v.26Zm-.03.47h.24v-.24h-.24v.24Zm0,.66h.24v-.24h-.24v.24Zm0,.68h.24v-.24h-.24v.24Zm-.36-1.82h.17v-.26h-.17v.26Zm-.39,0h.17v-.26h-.17v.26Zm0,.92h.4v-.4h-.4v.4Zm0,.78h.4v-.4h-.4v.4Zm-.19-1.17h-.11v.4h.11v-.4Zm-.2-.53h.17v-.26h-.17v.26Zm-.39,0h.17v-.26h-.17v.26Zm-.1.48h.24v-.24h-.24v.24Zm0,.66h.24v-.24h-.24v.24Zm0,.68h.24v-.24h-.24v.24Zm2.92.16h-.16v-.56h.06v-.12h-.06v-.56h.06v-.1h-.06v-.56h.06v-.42h2.07v.42h.07v.56h-.07v.1h.07v.56h-.07v.12h.07v.56h-.18v.31h-1.86v-.31Zm.69-.68h-.11v.4h.11v-.4Zm.98-1.3h.17v-.26h-.17v.26Zm-.03.47h.24v-.24h-.24v.24Zm0,.66h.24v-.24h-.24v.24Zm0,.68h.24v-.24h-.24v.24Zm-.36-1.82h.17v-.26h-.17v.26Zm-.39,0h.17v-.26h-.17v.26Zm0,.92h.4v-.4h-.4v.4Zm0,.78h.4v-.4h-.4v.4Zm-.19-1.17h-.11v.4h.11v-.4Zm-.2-.53h.17v-.26h-.17v.26Zm-.39,0h.17v-.26h-.17v.26Zm-.1.48h.24v-.24h-.24v.24Zm0,.66h.24v-.24h-.24v.24Zm0,.68h.24v-.24h-.24v.24Zm-.95,1.51h.07v.56h-.07v.1h.07v.56h-.07v.12h.07v.56h-.18v.31h-1.86v-.31h-.16v-.56h.06v-.12h-.06v-.56h.06v-.1h-.06v-.56h.06v-.42h2.07v.42Zm-.3-.07h.17v-.26h-.17v.26Zm-.79,0h.17v-.26h-.17v.26Zm-.65,1.58h-.24v.24h.24v-.24Zm0-.68h-.24v.24h.24v-.24Zm0-.66h-.24v.24h.24v-.24Zm.03-.5h-.17v.26h.17v-.26Zm.22.27h.17v-.26h-.17v.26Zm.2,1.3h-.11v.4h.11v-.4Zm0-.78h-.11v.4h.11v-.4Zm.59.78h-.4v.4h.4v-.4Zm0-.78h-.4v.4h.4v-.4Zm.17-.79h-.17v.26h.17v-.26Zm.42,1.84h-.24v.24h.24v-.24Zm0-.68h-.24v.24h.24v-.24Zm0-.66h-.24v.24h.24v-.24Zm1.05,1.74h-.16v-.56h.06v-.12h-.06v-.56h.06v-.1h-.06v-.56h.06v-.42h2.07v.42h.07v.56h-.07v.1h.07v.56h-.07v.12h.07v.56h-.18v.31h-1.86v-.31Zm.69-.68h-.11v.4h.11v-.4Zm.98-1.3h.17v-.26h-.17v.26Zm-.03.47h.24v-.24h-.24v.24Zm0,.66h.24v-.24h-.24v.24Zm0,.68h.24v-.24h-.24v.24Zm-.36-1.82h.17v-.26h-.17v.26Zm-.39,0h.17v-.26h-.17v.26Zm0,.92h.4v-.4h-.4v.4Zm0,.78h.4v-.4h-.4v.4Zm-.19-1.17h-.11v.4h.11v-.4Zm-.2-.53h.17v-.26h-.17v.26Zm-.39,0h.17v-.26h-.17v.26Zm-.1.48h.24v-.24h-.24v.24Zm0,.66h.24v-.24h-.24v.24Zm0,.68h.24v-.24h-.24v.24Zm-26.13-1.59h.06v-.66h2.07v.66h.07v.53h-.07v.11h.07v.65h-.07v.19h.07v.59h-.18v.3h-1.86v-.3h-.16v-.59h.06v-.19h-.06v-.65h.06v-.11h-.06v-.53Zm1.85,2.08h-1.46v.09h1.46v-.09Zm-1.01-.3v-.4h-.11v.4h.11Zm.98-1.86h.17v-.38h-.17v.38Zm-.03.5h.24v-.21h-.24v.21Zm0,.67h.24v-.26h-.24v.26Zm0,.8h.24v-.26h-.24v.26Zm-.36-1.97h.17v-.38h-.17v.38Zm-.39,0h.17v-.38h-.17v.38Zm0,.99h.4v-.4h-.4v.4Zm0,.88h.4v-.4h-.4v.4Zm-.19-1.28h-.11v.4h.11v-.4Zm-.2-.59h.17v-.38h-.17v.38Zm-.39,0h.17v-.38h-.17v.38Zm-.1.5h.24v-.21h-.24v.21Zm0,.67h.24v-.26h-.24v.26Zm0,.8h.24v-.26h-.24v.26Zm96.42-8.84v13.6h-42.83v-.07h-3.52v.07h-.85v-.1h-4.28v.1h-.85v-.07h-3.51v.07H.67v-13.6l-.67-.65h.65v-.7h2.16l3.12-1.37h0s4.34,0,4.34,0v-.33h-.35v-.56h.35v-.5h.31v-.37h.89v.37h.4v-.37h.89v.37h.35v-.37h.89v.37h.29v-.37h.89v.37h.29v-.37h.89v.37h.26v.5h.35v.56h-.35v.33h1.52v-.33h-.2v-.56h.32v-.5h.53v-.37h.6v.37h.53v.5h.32v.56h-.2v.33h8.98v-.33h-.2v-.56h.32v-.5h.53v-.37h.6v.37h.53v.5h.32v.56h-.2v.33h5.97v-2.1h-.2v-.45h.6v-.44h1v.44h.56v.45h-.14v.9h6.47v1.19h.22l1.73-.91v-.6h-.36l1.13-1.21h.15v-4.28h-.37v-.73h.04c-.06-.27-.18-.97.24-1.3.63-.49,1.71-.96,1.93-1.06V.72l-.66.26-.06-.15.49-.19s-.04-.02-.05-.03l-.72-.2.04-.16.55.16s0-.04,0-.06c0-.19.15-.34.34-.34s.34.15.34.34c0,.04,0,.08-.02.11l.53-.21.06.15-.52.2.38.11-.04.16-.49-.14v2.84c.24.1,1.29.57,1.92,1.05.43.33.31,1.03.24,1.3h.13v.73h-.37v4.28h.12l1.13,1.21h-.36v.57l1.85.94h.11v-1.19h6.47v-.9h-.14v-.45h.56v-.44h1.01v.44h.6v.45h-.2v2.1h5.96v-.33h-.2v-.56h.32v-.5h.53v-.37h.6v.37h.53v.5h.32v.56h-.2v.33h8.98v-.33h-.2v-.56h.32v-.5h.53v-.37h.6v.37h.53v.5h.32v.56h-.2v.33h1.52v-.33h-.35v-.56h.35v-.5h.26v-.37h.89v.37h.29v-.37h.89v.37h.29v-.37h.89v.37h.35v-.37h.89v.37h.4v-.37h.89v.37h.31v.5h.35v.56h-.35v.33h4.34s3.12,1.36,3.12,1.36h2.16v.7h.65l-.67.65Zm-47.19,9.8h-.09v-.62h-.09v-.46h.18v-4.83c-.04-.07-.3-.45-.94-.45-.7,0-1.13.41-1.13,1.07v5.62h2.08v-.33Zm-4.32-6.71h-.76v.49h.76v-.49Zm.09,5.77h-.94v.2h.94v-.2Zm-.09.33h-.76v.49h.76v-.49ZM.8,16.39v9.51h1.62v-9.51H.8Zm2.8,1.27v-.4h-.11v.4h.11Zm-.11.38v.4h.11v-.4h-.11Zm.09-1.56h-.17v.26h.17v-.26Zm-.45,2.24v.09h1.46v-.09h-1.46Zm.67-1.45v.4h.4v-.4h-.4Zm.18-.53v-.26h-.17v.26h.17Zm-.18,1.3v.4h.4v-.4h-.4Zm.57-1.3v-.26h-.17v.26h.17Zm-.17,2.47v.39h.17v-.39h-.17Zm0,1.38v-.4h-.4v.4h.4Zm-.4.46v.41h.4v-.41h-.4Zm.18-1.45v-.39h-.17v.39h.17Zm-.48,1.86h.11v-.41h-.11v.41Zm.09-1.86v-.39h-.17v.39h.17Zm.02.99v-.4h-.11v.4h.11Zm-.59-1.39v.39h.17v-.39h-.17Zm.17-2.73h-.17v.26h.17v-.26Zm-.27.5v.24h.24v-.24h-.24Zm0,.66v.24h.24v-.24h-.24Zm0,.68v.24h.24v-.24h-.24Zm0,1.58v.24h.24v-.24h-.24Zm0,.66v.24h.24v-.24h-.24Zm0,.78v.24h.24v-.24h-.24Zm.23.5h1.46v-.09h-1.46v.09Zm1.64-.27v-.24h-.24v.24h.24Zm0-.78v-.24h-.24v.24h.24Zm0-.66v-.24h-.24v.24h.24Zm-.03-.93h-.17v.39h.17v-.39Zm.03-.66v-.24h-.24v.24h.24Zm0-.68v-.24h-.24v.24h.24Zm0-.66v-.24h-.24v.24h.24Zm-.03-.47v-.26h-.17v.26h.17Zm-2,.64v-.56h.06v-.42s-.06,0-.06,0v9.51h6.69v-.53h-.18v.3h-1.86v-.3h-.34v.3h-1.86v-.3h-.16v-.59h.06v-.19h-.06v-.65h.06v-.11h-.06v-.53h.06v-.66h2.07v.66h.12v-.66h2.07v.66h.06v-1.48h-.18v.31h-1.86v-.31h-.34v.31h-1.86v-.31h-.16v-.64h.06v-.13h-.06v-.64h.06v-.1h-.06v-.63h.06v-.67h.1v-.29h-.16v-.56h.06v-.12h-.06v-.56h.06v-.1h-.06v-.56h.06v-.42s-.23,0-.23,0v.42s.06,0,.06,0v.56h-.07v.1h.07v.56h-.07v.12h.07v.56h-.18v.29h.12v.67h.07v.63h-.07v.1h.07v.64h-.07v.13h.07v.64h-.18v.31h-1.86v-.31h-.16v-.64h.06v-.13h-.06v-.64h.06v-.1h-.06v-.63h.06v-.67h.1v-.29h-.16v-.56h.06v-.12h-.06v-.56h.06v-.1h-.06Zm13.88.48v-.24h-.24v.24h.24Zm-.24.45v.24h.24v-.24h-.24Zm.24-1.11v-.24h-.24v.24h.24Zm-.03-.47v-.26h-.17v.26h.17Zm-.57-.26v.26h.17v-.26h-.17Zm0,1.18v-.4h-.4v.4h.4Zm-.4.38v.4h.4v-.4h-.4Zm.18-1.3v-.26h-.17v.26h.17Zm-.48,1.7h.11v-.4h-.11v.4Zm.09-1.7v-.26h-.17v.26h.17Zm.02.92v-.4h-.11v.4h.11Zm-.45.21v-.24h-.24v.24h.24Zm-.24.45v.24h.24v-.24h-.24Zm.24-1.11v-.24h-.24v.24h.24Zm.03-.48v-.26h-.17v.26h.17Zm-.43.64v-.56h.06v-.41h-.82v9.51h7.49v-9.51h-.88v.41h.07v.56h-.07v.1h.07v.56h-.07v.12h.07v.56h-.18v.31h-1.86v-.31h-.16v-.56h.06v-.12h-.06v-.56h.06v-.1h-.06v-.56h.06v-.41h-1.65v.41h.07v.56h-.07v.1h.07v.56h-.07v.12h.07v.56h-.18v.31h-1.86v-.31h-.16v-.56h.06v-.12h-.06v-.56h.06v-.1h-.06Zm5.76.5v-.24h-.24v.24h.24Zm-.24.45v.24h.24v-.24h-.24Zm.24-1.11v-.24h-.24v.24h.24Zm-.03-.47v-.26h-.17v.26h.17Zm-.57-.26v.26h.17v-.26h-.17Zm0,1.18v-.4h-.4v.4h.4Zm-.4.38v.4h.4v-.4h-.4Zm.18-1.3v-.26h-.17v.26h.17Zm-.48,1.7h.11v-.4h-.11v.4Zm.09-1.7v-.26h-.17v.26h.17Zm.02.92v-.4h-.11v.4h.11Zm-.45.21v-.24h-.24v.24h.24Zm-.24.45v.24h.24v-.24h-.24Zm.24-1.11v-.24h-.24v.24h.24Zm.03-.48v-.26h-.17v.26h.17Zm9.09,1.14v-.24h-.24v.24h.24Zm-.24.45v.24h.24v-.24h-.24Zm.24-1.11v-.24h-.24v.24h.24Zm-.03-.47v-.26h-.17v.26h.17Zm-.57-.26v.26h.17v-.26h-.17Zm0,1.18v-.4h-.4v.4h.4Zm-.4.38v.4h.4v-.4h-.4Zm.18-1.3v-.26h-.17v.26h.17Zm-.48,1.7h.11v-.4h-.11v.4Zm.09-1.7v-.26h-.17v.26h.17Zm.02.92v-.4h-.11v.4h.11Zm-.45.21v-.24h-.24v.24h.24Zm-.24.45v.24h.24v-.24h-.24Zm.24-1.11v-.24h-.24v.24h.24Zm.03-.48v-.26h-.17v.26h.17Zm-.43.64v-.56h.06v-.41h-.32v9.51h5.69v-.29h-.02v-.57h.02v-.12h-.02v-.57h.02v-.12h-.02v-.57h.02v-.12h-.02v-.57h.02v-.12h-.02v-.57h.02v-.12h-.02v-.57h.02v-.12h-.02v-.57h.02v-.12h-.02v-.57h.02v-.12h-.02v-.57h.02v-.12h-.02v-.57h.02v-.12h-.02v-.57h.02v-.12h-.02v-.57h.02v-.12h-.02v-.57h.02v-.38h-.37v.41h.07v.56h-.07v.1h.07v.56h-.07v.12h.07v.56h-.18v.31h-1.86v-.31h-.16v-.56h.06v-.12h-.06v-.56h.06v-.1h-.06v-.56h.06v-.41h-.85v.41h.07v.56h-.07v.1h.07v.56h-.07v.12h.07v.56h-.18v.31h-1.86v-.31h-.16v-.56h.06v-.12h-.06v-.56h.06v-.1h-.06Zm4.96.5v-.24h-.24v.24h.24Zm-.24.45v.24h.24v-.24h-.24Zm.24-1.11v-.24h-.24v.24h.24Zm-.03-.47v-.26h-.17v.26h.17Zm-.57-.26v.26h.17v-.26h-.17Zm0,1.18v-.4h-.4v.4h.4Zm-.4.38v.4h.4v-.4h-.4Zm.18-1.3v-.26h-.17v.26h.17Zm-.48,1.7h.11v-.4h-.11v.4Zm.09-1.7v-.26h-.17v.26h.17Zm.02.92v-.4h-.11v.4h.11Zm-.45.21v-.24h-.24v.24h.24Zm-.24.45v.24h.24v-.24h-.24Zm.24-1.11v-.24h-.24v.24h.24Zm.03-.48v-.26h-.17v.26h.17Zm5.31,1.14v-.24h-.24v.24h.24Zm-.24.45v.24h.24v-.24h-.24Zm.24-1.11v-.24h-.24v.24h.24Zm-.03-.47v-.26h-.17v.26h.17Zm-.57-.26v.26h.17v-.26h-.17Zm0,1.18v-.4h-.4v.4h.4Zm-.4.38v.4h.4v-.4h-.4Zm.18-1.3v-.26h-.17v.26h.17Zm-.48,1.7h.11v-.4h-.11v.4Zm.09-1.7v-.26h-.17v.26h.17Zm.02.92v-.4h-.11v.4h.11Zm-.45.21v-.24h-.24v.24h.24Zm-.24.45v.24h.24v-.24h-.24Zm.24-1.11v-.24h-.24v.24h.24Zm.03-.48v-.26h-.17v.26h.17Zm-.43.64v-.56h.06v-.41h-.52v.38h.24v.57h-.24v.12h.24v.57h-.24v.12h.24v.57h-.24v.12h.24v.57h-.24v.12h.24v.57h-.24v.12h.24v.57h-.24v.12h.24v.57h-.24v.12h.24v.57h-.24v.12h.24v.57h-.24v.12h.24v.57h-.24v.12h.24v.57h-.24v.12h.24v.57h-.24v.12h.24v.57h-.24v.29h11.4v-9.51h-.36v.41h.07v.56h-.07v.1h.07v.56h-.07v.12h.07v.56h-.18v.31h-1.86v-.31h-.16v-.56h.06v-.12h-.06v-.56h.06v-.1h-.06v-.56h.06v-.41h-.82v.41h.07v.56h-.07v.1h.07v.56h-.07v.12h.07v.56h-.18v.31h-1.86v-.31h-.16v-.56h.06v-.12h-.06v-.56h.06v-.1h-.06v-.56h.06v-.41h-.56v.41h.07v.56h-.07v.1h.07v.56h-.07v.12h.07v.56h-.18v.31h-1.86v-.31h-.16v-.56h.06v-.12h-.06v-.56h.06v-.1h-.06v-.56h.06v-.41h-.85v.41h.07v.56h-.07v.1h.07v.56h-.07v.12h.07v.56h-.18v.31h-1.86v-.31h-.16v-.56h.06v-.12h-.06v-.56h.06v-.1h-.06Zm4.96.5v-.24h-.24v.24h.24Zm-.24.45v.24h.24v-.24h-.24Zm.24-1.11v-.24h-.24v.24h.24Zm-.03-.47v-.26h-.17v.26h.17Zm-.57-.26v.26h.17v-.26h-.17Zm0,1.18v-.4h-.4v.4h.4Zm-.4.38v.4h.4v-.4h-.4Zm.18-1.3v-.26h-.17v.26h.17Zm-.48,1.7h.11v-.4h-.11v.4Zm.09-1.7v-.26h-.17v.26h.17Zm.02.92v-.4h-.11v.4h.11Zm-.45.21v-.24h-.24v.24h.24Zm-.24.45v.24h.24v-.24h-.24Zm.24-1.11v-.24h-.24v.24h.24Zm.03-.48v-.26h-.17v.26h.17Zm4.24,1.14v-.24h-.24v.24h.24Zm-.24.45v.24h.24v-.24h-.24Zm.24-1.11v-.24h-.24v.24h.24Zm-.03-.47v-.26h-.17v.26h.17Zm-.57-.26v.26h.17v-.26h-.17Zm0,1.18v-.4h-.4v.4h.4Zm-.4.38v.4h.4v-.4h-.4Zm.18-1.3v-.26h-.17v.26h.17Zm-.48,1.7h.11v-.4h-.11v.4Zm.09-1.7v-.26h-.17v.26h.17Zm.02.92v-.4h-.11v.4h.11Zm-.45.21v-.24h-.24v.24h.24Zm-.24.45v.24h.24v-.24h-.24Zm.24-1.11v-.24h-.24v.24h.24Zm.03-.48v-.26h-.17v.26h.17Zm4.5,1.14v-.24h-.24v.24h.24Zm-.24.45v.24h.24v-.24h-.24Zm.24-1.11v-.24h-.24v.24h.24Zm-.03-.47v-.26h-.17v.26h.17Zm-.57-.26v.26h.17v-.26h-.17Zm0,1.18v-.4h-.4v.4h.4Zm-.4.38v.4h.4v-.4h-.4Zm.18-1.3v-.26h-.17v.26h.17Zm-.48,1.7h.11v-.4h-.11v.4Zm.09-1.7v-.26h-.17v.26h.17Zm.02.92v-.4h-.11v.4h.11Zm-.45.21v-.24h-.24v.24h.24Zm-.24.45v.24h.24v-.24h-.24Zm.24-1.11v-.24h-.24v.24h.24Zm.03-.48v-.26h-.17v.26h.17ZM5.6,14.23h17.3l-.16-.12H5.71l-.11.12Zm42.94-2.09l-5.72,3.02h-.52v.34h.85l3.43-1.8h0s0,0,0,0l3.4-1.78,4.17,2.11h.01s2.9,1.47,2.9,1.47h.85v-.34h-.53s-5.91-3.02-5.91-3.02h-.02s-1.47-.76-1.47-.76l-1.42.75h0s-.02,0-.02,0Zm28.71,1.97l-.16.12h17.3l-.11-.12h-17.03Zm-18.53,4.44h.24v-.24h-.24v.24Zm.14-1.82v-.26h-.17v.26h.17Zm.1,1.14v-.24h-.24v.24h.24Zm0-.66v-.24h-.24v.24h.24Zm-.58.45v-.4h-.11v.4h.11Zm-.11.38v.4h.11v-.4h-.11Zm.2-1.3v-.26h-.17v.26h.17Zm-.79,1.7h.4v-.4h-.4v.4Zm0-1.7v-.26h-.17v.26h.17Zm.4.92v-.4h-.4v.4h.4Zm0-.92v-.26h-.17v.26h.17Zm-.75,1.13v-.24h-.24v.24h.24Zm-.24.45v.24h.24v-.24h-.24Zm.24-1.11v-.24h-.24v.24h.24Zm-.03-.47v-.26h-.17v.26h.17Zm-.37.64v-.56h.07v-.41h-.36v9.51h11.4v-.29h-.24v-.57h.24v-.12h-.24v-.57h.24v-.12h-.24v-.57h.24v-.12h-.24v-.57h.24v-.12h-.24v-.57h.24v-.12h-.24v-.57h.24v-.12h-.24v-.57h.24v-.12h-.24v-.57h.24v-.12h-.24v-.57h.24v-.12h-.24v-.57h.24v-.12h-.24v-.57h.24v-.12h-.24v-.57h.24v-.12h-.24v-.57h.24v-.38h-.52v.41h.06v.56h-.06v.1h.06v.56h-.06v.12h.06v.56h-.16v.31h-1.86v-.31h-.18v-.56h.07v-.12h-.07v-.56h.07v-.1h-.07v-.56h.07v-.41h-.85v.41h.06v.56h-.06v.1h.06v.56h-.06v.12h.06v.56h-.16v.31h-1.86v-.31h-.18v-.56h.07v-.12h-.07v-.56h.07v-.1h-.07v-.56h.07v-.41h-.56v.41h.06v.56h-.06v.1h.06v.56h-.06v.12h.06v.56h-.16v.31h-1.86v-.31h-.18v-.56h.07v-.12h-.07v-.56h.07v-.1h-.07v-.56h.07v-.41h-.82v.41h.06v.56h-.06v.1h.06v.56h-.06v.12h.06v.56h-.16v.31h-1.86v-.31h-.18v-.56h.07v-.12h-.07v-.56h.07v-.1h-.07Zm4.69,1.18h.24v-.24h-.24v.24Zm.14-1.82v-.26h-.17v.26h.17Zm.1,1.14v-.24h-.24v.24h.24Zm0-.66v-.24h-.24v.24h.24Zm-.58.45v-.4h-.11v.4h.11Zm-.11.38v.4h.11v-.4h-.11Zm.2-1.3v-.26h-.17v.26h.17Zm-.79,1.7h.4v-.4h-.4v.4Zm0-1.7v-.26h-.17v.26h.17Zm.4.92v-.4h-.4v.4h.4Zm0-.92v-.26h-.17v.26h.17Zm-.75,1.13v-.24h-.24v.24h.24Zm-.24.45v.24h.24v-.24h-.24Zm.24-1.11v-.24h-.24v.24h.24Zm-.03-.47v-.26h-.17v.26h.17Zm4.07,1.82h.24v-.24h-.24v.24Zm.14-1.82v-.26h-.17v.26h.17Zm.1,1.14v-.24h-.24v.24h.24Zm0-.66v-.24h-.24v.24h.24Zm-.58.45v-.4h-.11v.4h.11Zm-.11.38v.4h.11v-.4h-.11Zm.2-1.3v-.26h-.17v.26h.17Zm-.79,1.7h.4v-.4h-.4v.4Zm0-1.7v-.26h-.17v.26h.17Zm.4.92v-.4h-.4v.4h.4Zm0-.92v-.26h-.17v.26h.17Zm-.75,1.13v-.24h-.24v.24h.24Zm-.24.45v.24h.24v-.24h-.24Zm.24-1.11v-.24h-.24v.24h.24Zm-.03-.47v-.26h-.17v.26h.17Zm4.36,1.82h.24v-.24h-.24v.24Zm.14-1.82v-.26h-.17v.26h.17Zm.1,1.14v-.24h-.24v.24h.24Zm0-.66v-.24h-.24v.24h.24Zm-.58.45v-.4h-.11v.4h.11Zm-.11.38v.4h.11v-.4h-.11Zm.2-1.3v-.26h-.17v.26h.17Zm-.79,1.7h.4v-.4h-.4v.4Zm0-1.7v-.26h-.17v.26h.17Zm.4.92v-.4h-.4v.4h.4Zm0-.92v-.26h-.17v.26h.17Zm-.75,1.13v-.24h-.24v.24h.24Zm-.24.45v.24h.24v-.24h-.24Zm.24-1.11v-.24h-.24v.24h.24Zm-.03-.47v-.26h-.17v.26h.17Zm5.14,1.82h.24v-.24h-.24v.24Zm.14-1.82v-.26h-.17v.26h.17Zm.1,1.14v-.24h-.24v.24h.24Zm0-.66v-.24h-.24v.24h.24Zm-.58.45v-.4h-.11v.4h.11Zm-.11.38v.4h.11v-.4h-.11Zm.2-1.3v-.26h-.17v.26h.17Zm-.79,1.7h.4v-.4h-.4v.4Zm0-1.7v-.26h-.17v.26h.17Zm.4.92v-.4h-.4v.4h.4Zm0-.92v-.26h-.17v.26h.17Zm-.75,1.13v-.24h-.24v.24h.24Zm-.24.45v.24h.24v-.24h-.24Zm.24-1.11v-.24h-.24v.24h.24Zm-.03-.47v-.26h-.17v.26h.17Zm-.37.64v-.56h.07v-.41h-.37v.38h.02v.57h-.02v.12h.02v.57h-.02v.12h.02v.57h-.02v.12h.02v.57h-.02v.12h.02v.57h-.02v.12h.02v.57h-.02v.12h.02v.57h-.02v.12h.02v.57h-.02v.12h.02v.57h-.02v.12h.02v.57h-.02v.12h.02v.57h-.02v.12h.02v.57h-.02v.12h.02v.57h-.02v.29h5.69v-9.51h-.32v.41h.06v.56h-.06v.1h.06v.56h-.06v.12h.06v.56h-.16v.31h-1.86v-.31h-.18v-.56h.07v-.12h-.07v-.56h.07v-.1h-.07v-.56h.07v-.41h-.85v.41h.06v.56h-.06v.1h.06v.56h-.06v.12h.06v.56h-.16v.31h-1.86v-.31h-.18v-.56h.07v-.12h-.07v-.56h.07v-.1h-.07Zm4.72,1.18h.24v-.24h-.24v.24Zm.14-1.82v-.26h-.17v.26h.17Zm.1,1.14v-.24h-.24v.24h.24Zm0-.66v-.24h-.24v.24h.24Zm-.58.45v-.4h-.11v.4h.11Zm-.11.38v.4h.11v-.4h-.11Zm.2-1.3v-.26h-.17v.26h.17Zm-.79,1.7h.4v-.4h-.4v.4Zm0-1.7v-.26h-.17v.26h.17Zm.4.92v-.4h-.4v.4h.4Zm0-.92v-.26h-.17v.26h.17Zm-.75,1.13v-.24h-.24v.24h.24Zm-.24.45v.24h.24v-.24h-.24Zm.24-1.11v-.24h-.24v.24h.24Zm-.03-.47v-.26h-.17v.26h.17Zm8.92,1.82h.24v-.24h-.24v.24Zm.14-1.82v-.26h-.17v.26h.17Zm.1,1.14v-.24h-.24v.24h.24Zm0-.66v-.24h-.24v.24h.24Zm-.58.45v-.4h-.11v.4h.11Zm-.11.38v.4h.11v-.4h-.11Zm.2-1.3v-.26h-.17v.26h.17Zm-.79,1.7h.4v-.4h-.4v.4Zm0-1.7v-.26h-.17v.26h.17Zm.4.92v-.4h-.4v.4h.4Zm0-.92v-.26h-.17v.26h.17Zm-.75,1.13v-.24h-.24v.24h.24Zm-.24.45v.24h.24v-.24h-.24Zm.24-1.11v-.24h-.24v.24h.24Zm-.03-.47v-.26h-.17v.26h.17Zm-.37.64v-.56h.07v-.41h-.88v9.51h7.49v-9.51h-.82v.41h.06v.56h-.06v.1h.06v.56h-.06v.12h.06v.56h-.16v.31h-1.86v-.31h-.18v-.56h.07v-.12h-.07v-.56h.07v-.1h-.07v-.56h.07v-.41h-1.65v.41h.06v.56h-.06v.1h.06v.56h-.06v.12h.06v.56h-.16v.31h-1.86v-.31h-.18v-.56h.07v-.12h-.07v-.56h.07v-.1h-.07Zm5.52,1.18h.24v-.24h-.24v.24Zm.14-1.82v-.26h-.17v.26h.17Zm.1,1.14v-.24h-.24v.24h.24Zm0-.66v-.24h-.24v.24h.24Zm-.58.45v-.4h-.11v.4h.11Zm-.11.38v.4h.11v-.4h-.11Zm.2-1.3v-.26h-.17v.26h.17Zm-.79,1.7h.4v-.4h-.4v.4Zm0-1.7v-.26h-.17v.26h.17Zm.4.92v-.4h-.4v.4h.4Zm0-.92v-.26h-.17v.26h.17Zm-.75,1.13v-.24h-.24v.24h.24Zm-.24.45v.24h.24v-.24h-.24Zm.24-1.11v-.24h-.24v.24h.24Zm-.03-.47v-.26h-.17v.26h.17Zm11.64.25v.24h.24v-.24h-.24Zm.2-.24v-.26h-.17v.26h.17Zm.39.53v.4h.4v-.4h-.4Zm.39-.53v-.26h-.17v.26h.17Zm-.39,1.3v.4h.4v-.4h-.4Zm0-1.56h-.17v.26h.17v-.26Zm-.39,2.24v.09h1.46v-.09h-1.46Zm.98-1.45v.4h.11v-.4h-.11Zm.2-.53v-.26h-.17v.26h.17Zm-.2,1.3v.4h.11v-.4h-.11Zm.41,1.16v.39h.17v-.39h-.17Zm-.31,1.39v-.4h-.11v.4h.11Zm-.11.46v.41h.11v-.41h-.11Zm.2-1.45v-.39h-.17v.39h.17Zm-.79,1.86h.4v-.41h-.4v.41Zm0-1.86v-.39h-.17v.39h.17Zm.4.99v-.4h-.4v.4h.4Zm0-.99v-.39h-.17v.39h.17Zm-.99-1.97v.24h.24v-.24h-.24Zm0,.68v.24h.24v-.24h-.24Zm.03,1.28h.17v-.39h-.17v.39Zm-.03.3v.24h.24v-.24h-.24Zm0,.66v.24h.24v-.24h-.24Zm0,.78v.24h.24v-.24h-.24Zm.18.5h1.46v-.09h-1.46v.09Zm1.69-.27v-.24h-.24v.24h.24Zm0-.78v-.24h-.24v.24h.24Zm0-.66v-.24h-.24v.24h.24Zm0-1.58v-.24h-.24v.24h.24Zm-.1-1.82v-.26h-.17v.26h.17Zm.1,1.14v-.24h-.24v.24h.24Zm0-.66v-.24h-.24v.24h.24Zm-2.2-.82v.42h.06v.56h-.06v.1h.06v.56h-.06v.12h.06v.56h-.16v.29h.1v.67h.06v.63h-.06v.1h.06v.64h-.06v.13h.06v.64h-.16v.31h-1.86v-.31h-.34v.31h-1.86v-.31h-.18v1.48h.06v-.66h2.07v.66h.12v-.66h2.07v.66h.06v.53h-.06v.11h.06v.65h-.06v.19h.06v.59h-.16v.3h-1.86v-.3h-.34v.3h-1.86v-.3h-.18v.53h6.69v-9.51h-.06v.42h.06v.56h-.06v.1h.06v.56h-.06v.12h.06v.56h-.16v.29h.1v.67h.06v.63h-.06v.1h.06v.64h-.06v.13h.06v.64h-.16v.31h-1.86v-.31h-.18v-.64h.07v-.13h-.07v-.64h.07v-.1h-.07v-.63h.07v-.67h.12v-.29h-.18v-.56h.07v-.12h-.07v-.56h.07v-.1h-.07v-.56h.07v-.42h-.23Zm-41.9,10.21h1.02v-.11c-.09-.03-.17-.08-.22-.15h-.8v.26Zm-.72-1.52h.59v-5.01h-.59v5.01Zm-5.35.48h-.61v.19h-.32s.09.04.13.07h.8v-.26Zm-.74,3.04h-1.65v.34h1.65v-.34ZM.8,26.21h1.62v-.17H.8v.17Zm6.51-5.8v-.1h-.12v.1h.12Zm-.06.64h-.07v.13h.12v-.13h-.06Zm.06-1.37v-.67h.1v-.29h-.34v.29h.12v.67h.12Zm0-2.2v-.1h-.12v.1h.12Zm-.06.56h-.07v.12h.12v-.12h-.06Zm-.34.77v-.09h-1.46v.09h1.46Zm-.42.4v.39h.17v-.39h-.17Zm0,1.38v-.4h-.4v.4h.4Zm-.4.46v.41h.4v-.41h-.4Zm.18-1.45v-.39h-.17v.39h.17Zm-.48,1.86h.11v-.41h-.11v.41Zm.09-1.86v-.39h-.17v.39h.17Zm.02.99v-.4h-.11v.4h.11Zm-.68-3.62v.24h.24v-.24h-.24Zm.27-.24v-.26h-.17v.26h.17Zm-.27.9v.24h.24v-.24h-.24Zm0,.68v.24h.24v-.24h-.24Zm.68-.66v-.4h-.11v.4h.11Zm-.11.38v.4h.11v-.4h-.11Zm.09-1.56h-.17v.26h.17v-.26Zm.22.79v.4h.4v-.4h-.4Zm.18-.53v-.26h-.17v.26h.17Zm-.18,1.3v.4h.4v-.4h-.4Zm.57-1.3v-.26h-.17v.26h.17Zm.22,2.87h.17v-.39h-.17v.39Zm.2-1.05v-.24h-.24v.24h.24Zm0-.68v-.24h-.24v.24h.24Zm0-.66v-.24h-.24v.24h.24Zm-.03-.47v-.26h-.17v.26h.17Zm-1.84,4.84h.24v-.24h-.24v.24Zm.24-.78v-.24h-.24v.24h.24Zm0-.66v-.24h-.24v.24h.24Zm.03-.54v-.39h-.17v.39h.17Zm0,2.25h1.46v-.09h-1.46v.09Zm1.61-.27v-.24h-.24v.24h.24Zm0-.78v-.24h-.24v.24h.24Zm0-.66v-.24h-.24v.24h.24Zm2.36.16h-.06v.1h.06v-.1Zm0-2.27h-.06v.12h.06v-.12Zm0-.66h-.06v.1h.06v-.1Zm-.37,1.43v-.09h-1.46v.09h1.46Zm-.39.4v.39h.17v-.39h-.17Zm0,1.38v-.4h-.4v.4h.4Zm-.4.46v.41h.4v-.41h-.4Zm.18-1.45v-.39h-.17v.39h.17Zm-.48,1.86h.11v-.41h-.11v.41Zm.09-1.86v-.39h-.17v.39h.17Zm.02.99v-.4h-.11v.4h.11Zm-.68-3.62v.24h.24v-.24h-.24Zm.27-.24v-.26h-.17v.26h.17Zm-.27.9v.24h.24v-.24h-.24Zm0,.68v.24h.24v-.24h-.24Zm.68-.66v-.4h-.11v.4h.11Zm-.11.38v.4h.11v-.4h-.11Zm.09-1.56h-.17v.26h.17v-.26Zm.22.79v.4h.4v-.4h-.4Zm.18-.53v-.26h-.17v.26h.17Zm-.18,1.3v.4h.4v-.4h-.4Zm.57-1.3v-.26h-.17v.26h.17Zm.22,2.87h.17v-.39h-.17v.39Zm.2-1.05v-.24h-.24v.24h.24Zm0-.68v-.24h-.24v.24h.24Zm0-.66v-.24h-.24v.24h.24Zm-.03-.47v-.26h-.17v.26h.17Zm-1.84,4.84h.24v-.24h-.24v.24Zm.24-.78v-.24h-.24v.24h.24Zm0-.66v-.24h-.24v.24h.24Zm.03-.54v-.39h-.17v.39h.17Zm-.03,2.25h1.43v-.09h-1.43v.09Zm1.63-.27v-.24h-.24v.24h.24Zm0-.78v-.24h-.24v.24h.24Zm0-.66v-.24h-.24v.24h.24Zm.1-1.13v.67h.06v-.96h-.18v.29h.12Zm0,2.17h.06v-.13h-.06v.13Zm.06,2.66h-.06v.11h.06v-.11Zm-.06.76v.19h.06v-.19h-.06Zm21.99-7.67v.24h.68v-.24h-.68Zm-.02.4v.12h.45v-.12h-.45Zm.7.53v-.24h-.68v.24h.68Zm-.7.16v.12h.45v-.12h-.45Zm.7.53v-.24h-.68v.24h.68Zm-.7.16v.12h.45v-.12h-.45Zm.7.53v-.24h-.68v.24h.68Zm-.7.16v.12h.45v-.12h-.45Zm.7.53v-.24h-.68v.24h.68Zm-.7.16v.12h.45v-.12h-.45Zm.7.53v-.24h-.68v.24h.68Zm-.7.16v.12h.45v-.12h-.45Zm.7.53v-.24h-.68v.24h.68Zm-.7.16v.12h.45v-.12h-.45Zm.7.53v-.24h-.68v.24h.68Zm-.7.16v.12h.45v-.12h-.45Zm.7.53v-.24h-.68v.24h.68Zm-.7.16v.12h.45v-.12h-.45Zm.7.53v-.24h-.68v.24h.68Zm-.7.16v.12h.45v-.12h-.45Zm.7.53v-.24h-.68v.24h.68Zm-.7.16v.12h.45v-.12h-.45Zm.7.53v-.24h-.68v.24h.68Zm-.7.16v.12h.45v-.12h-.45Zm.7.53v-.24h-.68v.24h.68Zm-.7.16v.29h.45v-.29h-.45Zm0,.42v.17h1.31c0-.07,0-.13,0-.17h-1.31Zm12.16-9.86h1.02s-.01-.06-.01-.09c0-.07.02-.14.06-.19h-1.07v.28Zm2.72-2.15h3.17c.03-.07.06-.14.11-.2h-2.91l-.38.2Zm2.52-1.32h2.5l-.55-.28h-1.43l-.53.28Zm1.69-.41l-.47-.24-.45.24h.92Zm-2.32.74h3.78l-.39-.2h0s-3,0-3,0l-.38.2Zm6,1.12h-3.5s0,.05,0,.07c0,.05,0,.09-.02.13h3.92l-.41-.21Zm.96,2.32s.04.05.06.07h1.36v-.15h-.02v-.51h-1.08c.04.06.06.13.06.2,0,.2-.17.36-.38.39Zm12.86.46v.24h.68v-.24h-.68Zm.24.4v.12h.45v-.12h-.45Zm-.24.29v.24h.68v-.24h-.68Zm.24.4v.12h.45v-.12h-.45Zm-.24.29v.24h.68v-.24h-.68Zm.24.4v.12h.45v-.12h-.45Zm-.24.29v.24h.68v-.24h-.68Zm.24.4v.12h.45v-.12h-.45Zm-.24.29v.24h.68v-.24h-.68Zm.24.4v.12h.45v-.12h-.45Zm-.24.29v.24h.68v-.24h-.68Zm.24.4v.12h.45v-.12h-.45Zm-.24.29v.24h.68v-.24h-.68Zm.24.4v.12h.45v-.12h-.45Zm-.24.29v.24h.68v-.24h-.68Zm.24.4v.12h.45v-.12h-.45Zm-.24.29v.24h.68v-.24h-.68Zm.24.4v.12h.45v-.12h-.45Zm-.24.29v.24h.68v-.24h-.68Zm.24.4v.12h.45v-.12h-.45Zm-.24.29v.24h.68v-.24h-.68Zm.24.4v.12h.45v-.12h-.45Zm-.24.29v.24h.68v-.24h-.68Zm.24.4v.12h.45v-.12h-.45Zm-.24.29v.24h.68v-.24h-.68Zm.24.4v.29h.45v-.29h-.45Zm-.86.42s0,.1,0,.17h1.31v-.17h-1.31Zm25.58-9.06v.24h.24v-.24h-.24Zm.2-.24v-.26h-.17v.26h.17Zm-.2.9v.24h.24v-.24h-.24Zm.18,1.08v.09h1.46v-.09h-1.46Zm.42-1.45v.4h.4v-.4h-.4Zm.39-.53v-.26h-.17v.26h.17Zm-.39,1.3v.4h.4v-.4h-.4Zm0-1.56h-.17v.26h.17v-.26Zm.59.79v.4h.11v-.4h-.11Zm.2-.53v-.26h-.17v.26h.17Zm-.2,1.3v.4h.11v-.4h-.11Zm.59-1.31v-.26h-.17v.26h.17Zm-.48,3.86v-.4h-.11v.4h.11Zm-.11.46v.41h.11v-.41h-.11Zm.2-1.45v-.39h-.17v.39h.17Zm-.79,1.86h.4v-.41h-.4v.41Zm0-1.86v-.39h-.17v.39h.17Zm.4.99v-.4h-.4v.4h.4Zm0-.99v-.39h-.17v.39h.17Zm-.96-.39v.39h.17v-.39h-.17Zm-.03.69v.24h.24v-.24h-.24Zm0,.66v.24h.24v-.24h-.24Zm0,.78v.24h.24v-.24h-.24Zm.15.5h1.46v-.09h-1.46v.09Zm1.62-2.25v-.39h-.17v.39h.17Zm-.14,1.98h.24v-.24h-.24v.24Zm.24-.78v-.24h-.24v.24h.24Zm0-.66v-.24h-.24v.24h.24Zm0-1.58v-.24h-.24v.24h.24Zm0-.68v-.24h-.24v.24h.24Zm0-.66v-.24h-.24v.24h.24Zm-1.87,1.35h.24v-.24h-.24v.24Zm-.16.16h-.16v.29h.1v.67h.12v-.67h.12v-.29h-.18Zm.06,1.68v-.1h-.12v.1h.12Zm-.06.64h-.06v.13h.12v-.13h-.06Zm0-2.89h.07v-.12h-.12v.12h.06Zm.07-.78h-.12v.1h.12v-.1Zm-2.1,2.53v.24h.24v-.24h-.24Zm.2-.3v-.39h-.17v.39h.17Zm-.2-2.63v.24h.24v-.24h-.24Zm.2-.24v-.26h-.17v.26h.17Zm-.2.9v.24h.24v-.24h-.24Zm.2,1.08v.09h1.46v-.09h-1.46Zm.39-1.45v.4h.4v-.4h-.4Zm.39-.53v-.26h-.17v.26h.17Zm-.39,1.3v.4h.4v-.4h-.4Zm0-1.56h-.17v.26h.17v-.26Zm.59.79v.4h.11v-.4h-.11Zm.2-.53v-.26h-.17v.26h.17Zm-.2,1.3v.4h.11v-.4h-.11Zm.11,2.55v-.4h-.11v.4h.11Zm-.11.46v.41h.11v-.41h-.11Zm.2-1.45v-.39h-.17v.39h.17Zm-.79,1.86h.4v-.41h-.4v.41Zm0-1.86v-.39h-.17v.39h.17Zm.4.99v-.4h-.4v.4h.4Zm0-.99v-.39h-.17v.39h.17Zm-.99.96v.24h.24v-.24h-.24Zm0,.78v.24h.24v-.24h-.24Zm.2.5h1.43v-.09h-1.43v.09Zm1.57-2.25v-.39h-.17v.39h.17Zm-.14,1.98h.24v-.24h-.24v.24Zm.24-.78v-.24h-.24v.24h.24Zm0-.66v-.24h-.24v.24h.24Zm0-1.58v-.24h-.24v.24h.24Zm-.1-1.82v-.26h-.17v.26h.17Zm.1,1.14v-.24h-.24v.24h.24Zm0-.66v-.24h-.24v.24h.24Zm-1.87,1.35h.24v-.24h-.24v.24Zm-.16.16v.96h.06v-.67h.12v-.29h-.18Zm0,6.07h.06v-.19h-.06v.19Zm.06-.84v-.11h-.06v.11h.06Zm-.06-5.79h.06v-.12h-.06v.12Zm0,3.02h.06v-.13h-.06v.13Zm.06-.78v-.1h-.06v.1h.06Zm0-3.03h-.06v.1h.06v-.1Zm6.18,8.83v.4h.2v-.4h-.2Zm-4.45,2.7v-.09h-1.46v.09h1.46Zm2.25,0v-.09h-1.46v.09h1.46Zm2.3-.09h-1.46v.09h1.46v-.09Zm-6.15-.14h-.19v.25h.19v-.25Zm-35.28.25v-.34h-1.65v.34h1.65Zm35.09-1.94h.48v-.25h-.48v.25Zm.38-.38v-.4h-.2v.4h.2Zm.39,0v-.4h-.11v.4h.11Zm.36,0v-.4h-.11v.4h.11Zm.3,0v-.4h-.11v.4h.11Zm.21.13v.25h1.09v-.25h-1.09Zm.29-.13v-.4h-.2v.4h.2Zm.19-.25v.25h.11v-.25h-.11Zm.11-.19v-.1h-.11v.1h.11Zm.4.43v-.4h-.2v.4h.2Zm.39,0v-.4h-.11v.4h.11Zm.39,0v-.4h-.11v.4h.11Zm.3,0v-.4h-.11v.4h.11Zm-3.24,1.94v-.26h-.48v.26h.48Zm-17.32.27h-1.18v.09h1.18v-.09Zm-2.96,0h-1.18v.09h1.18v-.09Zm-3.71,0h-1.18v.09h1.18v-.09Zm-2.85,0h-1.18v.09h1.18v-.09Zm-2.64,0h-1.18v.09h1.18v-.09Zm-2.94,0h-1.18v.09h1.18v-.09Zm-3.02-.36v.09h.9v-.26h-1.26v.17h.35Zm-1.24-2c.18.09.31.27.31.49v1.51h.44v-1.55c0-.26-.21-.47-.47-.47h-.24s-.03.02-.04.02Zm2.88.28h0s-.61-.01-.61-.01v.26h.8v-.25h-.2Zm1.37,0v.25h1.77v-.25h-.2s-1.27-.01-1.27-.01c0,0,0,.01,0,.01h-.3Zm.2-.13v-.4h-.2v.4h.2Zm2.74.13v.25h1.47v-.25h-.2s-.97-.01-.97-.01c0,0,0,.01,0,.01h-.3Zm.2-.13v-.4h-.2v.4h.2Zm2.44.13v.25h1.68v-.25h-.2s-1.18-.01-1.18-.01c0,0,0,.01,0,.01h-.3Zm.2-.13v-.4h-.2v.4h.2Zm2.65.13v.25h1.61v-.26h-1.31s0,.01,0,.01h-.3Zm.2-.13v-.4h-.2v.4h.2Zm2.14.13h0s-.6-.01-.6-.01v.26h.8v-.25h-.2Zm1.37,0v.25h1.79v-.25h-.2s-1.29-.01-1.29-.01c0,0,0,.01,0,.01h-.3Zm.2-.13v-.4h-.2v.4h.2Zm2.76.13v.25h.76v-.26h-.46s0,.01,0,.01h-.3Zm.2-.13v-.4h-.2v.4h.2Zm5.9.13h0s-1.13-.01-1.13-.01v.26h1.33v-.25h-.2Zm1.37,0v.25h2.51v-.25h-.2s-2.02-.01-2.02-.01c0,0,0,.01,0,.01h-.3Zm3.68,0v.25h1.31v-.26h-1.01s0,.01,0,.01h-.3Zm7.02,1.38v.4h.11v-.4h-.11Zm-.59,0v.4h.4v-.4h-.4Zm-.26-.22h-.48v.26h.48v-.26Zm-6.17.92h-1.18v.09h1.18v-.09Zm-1.18-.27v-.26h-2.51v.26h2.51Zm-2.5.27h-1.18v.09h1.18v-.09Zm-25.94-1.44h1.26v-.26h-1.26v.26Zm33.92.13h-2.67v.26h2.67v-.26Zm.33.26h.74v-.26h-.74v.26Zm-3.32-.26h-1.31v.26h1.31v-.26Zm-1.63.61v.4h.11v-.4h-.11Zm-.59,0v.4h.4v-.4h-.4Zm-.26-.22h-2.51v.26h2.51v-.26Zm-2.84.22v.4h.11v-.4h-.11Zm-.59,0v.4h.4v-.4h-.4Zm3.43-.35v-.26h-2.51v.26h2.51Zm-26.25-.26h-.8v.26h.8v-.26Zm.65.09v-.4h-.4v.4h.4Zm.3,0v-.4h-.11v.4h.11Zm.21.17h1.77v-.26h-1.77v.26Zm2.42-.17v-.4h-.4v.4h.4Zm.3,0v-.4h-.11v.4h.11Zm.21.17h1.47v-.26h-1.47v.26Zm2.12-.17v-.4h-.4v.4h.4Zm.3,0v-.4h-.11v.4h.11Zm.21.17h1.68v-.26h-1.68v.26Zm2.33-.17v-.4h-.4v.4h.4Zm.3,0v-.4h-.11v.4h.11Zm.21.17h1.61v-.26h-1.61v.26Zm1.74,0h.8v-.26h-.8v.26Zm1.45-.17v-.4h-.4v.4h.4Zm.3,0v-.4h-.11v.4h.11Zm.21.17h1.79v-.26h-1.79v.26Zm2.44-.17v-.4h-.4v.4h.4Zm.3,0v-.4h-.11v.4h.11Zm.21.17h.76v-.26h-.76v.26Zm1.09,0h.6v-.26h-.6v.26Zm.93,0h2.63v-.26h-2.63v.26Zm2.95,0h1.33v-.26h-1.33v.26Zm1.98-.17v-.4h-.4v.4h.4Zm.3,0v-.4h-.11v.4h.11Zm3.38,0v-.4h-.4v.4h.4Zm.3,0v-.4h-.11v.4h.11Zm1.52-.22v-.26h-1.31v.26h1.31Zm-2.48-.26h-2.51v.26h2.51v-.26Zm-3.68,0h-1.33v.26h1.33v-.26Zm-1.66,0h-2.63v.26h2.63v-.26Zm-2.95,0h-.6v.26h.6v-.26Zm-.93,0h-.76v.26h.76v-.26Zm-1.93,0h-1.79v.26h1.79v-.26Zm-2.96,0h-.8v.26h.8v-.26Zm-.93,0h-1.61v.26h1.61v-.26Zm-2.78,0h-1.68v.26h1.68v-.26Zm-2.85,0h-1.47v.26h1.47v-.26Zm-2.64,0h-1.77v.26h1.77v-.26Zm-2.94,0h-.8v.26h.8v-.26Zm-2.19.65h1.26v-.26h-1.26v.26Zm0,.39h1.26v-.26h-1.26v.26Zm1.39,0h.8v-.26h-.8v.26Zm1.65-.04v.4h.11v-.4h-.11Zm-.59,0v.4h.4v-.4h-.4Zm.91.04h1.77v-.26h-1.77v.26Zm2.62-.04v.4h.11v-.4h-.11Zm-.59,0v.4h.4v-.4h-.4Zm.91.04h1.47v-.26h-1.47v.26Zm2.32-.04v.4h.11v-.4h-.11Zm-.59,0v.4h.4v-.4h-.4Zm.91.04h1.68v-.26h-1.68v.26Zm2.53-.04v.4h.11v-.4h-.11Zm-.59,0v.4h.4v-.4h-.4Zm.91.04h1.61v-.26h-1.61v.26Zm1.74,0h.8v-.26h-.8v.26Zm1.64-.04v.4h.11v-.4h-.11Zm-.59,0v.4h.4v-.4h-.4Zm.91.04h1.79v-.26h-1.79v.26Zm2.64-.04v.4h.11v-.4h-.11Zm-.59,0v.4h.4v-.4h-.4Zm.91.04h.76v-.26h-.76v.26Zm1.09,0h.6v-.26h-.6v.26Zm.93,0h2.63v-.26h-2.63v.26Zm2.95,0h1.33v-.26h-1.33v.26Zm6.18,0h1.31v-.26h-1.31v.26Zm1.63,0h2.67v-.26h-2.67v.26Zm3,0h.74v-.26h-.74v.26Zm1.55-.39v-.26h-.48v.26h.48Zm.65-.17v-.4h-.4v.4h.4Zm.3,0v-.4h-.11v.4h.11Zm-.96-.48h-.48v.26h.48v-.26Zm-.8,0h-.74v.26h.74v-.26Zm-1.07,0h-2.67v.26h2.67v-.26Zm0-.13v-.26h-2.67v.26h2.67Zm-10.81-.26h-2.63v.26h2.63v-.26Zm-2.95,0h-.6v.26h.6v-.26Zm-2.76-.52h-.2v.4h.2v-.4Zm-2.96,0h-.2v.4h.2v-.4Zm-3.71,0h-.2v.4h.2v-.4Zm-2.85,0h-.2v.4h.2v-.4Zm-2.64,0h-.2v.4h.2v-.4Zm-2.94,0h-.2v.4h.2v-.4Zm-1.04.52h-1.29c.02.06.03.12.03.18v.08h1.26v-.26Zm.13,1.82h.8v-.26h-.8v.26Zm3.74,0v-.26h-1.77v.26h1.77Zm2.64,0v-.26h-1.47v.26h1.47Zm2.85,0v-.26h-1.68v.26h1.68Zm2.78,0v-.26h-1.61v.26h1.61Zm.13,0h.8v-.26h-.8v.26Zm3.76,0v-.26h-1.79v.26h1.79Zm1.93,0v-.26h-.76v.26h.76Zm.33,0h.6v-.26h-.6v.26Zm.93,0h2.63v-.26h-2.63v.26Zm2.95,0h1.33v-.26h-1.33v.26Zm0,.13v.25h1.13v-.25h-1.13Zm2.7.25h2.11v-.25h-2.11v.25Zm3.68,0h1.1v-.25h-1.1v.25Zm1.1-.38v-.26h-1.31v.26h1.31Zm.33,0h2.67v-.26h-2.67v.26Zm3,0h.74v-.26h-.74v.26Zm3.8,0v-.26h-1.09v.26h1.09Zm.68-.03v-.4h-.4v.4h.4Zm.3,0v-.4h-.11v.4h.11Zm-.98-.62h-1.09v.26h1.09v-.26Zm0-.13v-.26h-1.09v.26h1.09Zm.68-.17v-.4h-.4v.4h.4Zm.3,0v-.4h-.11v.4h.11Zm-.98-.48h-1.09v.26h1.09v-.26Zm-3.06-.13v-.26h-.74v.26h.74Zm0-.65h-.74v.26h.74v-.26Zm-1.07,0h-2.67v.26h2.67v-.26Zm-3,0h-1c0,.09,0,.19,0,.26h1v-.26Zm-1.11,0h-.2v.27h.2v-.27Zm-1.47,0v.27h.2v-.27h-.2Zm-.1,0h-2.01c0,.09,0,.19,0,.26h2.01v-.26Zm-2.12,0h-.2v.27h.2v-.27Zm-1.47,0v.27h.2v-.27h-.2Zm-.1,0h-1.13v.26h1.13v-.26Zm-1.46,0h-2.63v.26h2.63v-.26Zm-2.95,0h-.6v.26h.6v-.26Zm-.93,0h-.46c0,.09,0,.19,0,.26h.46v-.26Zm-2.13,0h-1.29c0,.09,0,.19,0,.26h1.29v-.26Zm-2.96,0h-.6v.26h.6v-.26Zm-.73,0h-1.3c0,.09,0,.19,0,.26h1.3v-.26Zm-2.97,0h-1.18c0,.09,0,.19,0,.26h1.18v-.26Zm-2.85,0h-.97c0,.09,0,.19,0,.26h.97v-.26Zm-2.64,0h-1.27c0,.09,0,.19,0,.26h1.27v-.26Zm-2.94,0h-.61v.26h.61v-.26Zm-.74,0h-1.11c-.07.09-.18.16-.31.17.03.03.05.06.07.09h1.35v-.26Zm-2.36,2.12h.41v-1.51c0-.23-.18-.41-.41-.42v1.92Zm1.46.47h.9v-.25h-.9v.25Zm1.03,0h.61v-.25h-.61v.25Zm2.18,0h1.37v-.25h-1.37v.25Zm2.94,0h1.07v-.25h-1.07v.25Zm2.64,0h1.28v-.25h-1.28v.25Zm2.85,0h1.4v-.25h-1.4v.25Zm1.53,0h.6v-.25h-.6v.25Zm2.17,0h1.39v-.25h-1.39v.25Zm2.96,0h.56v-.25h-.56v.25Zm.89,0h.6v-.25h-.6v.25Zm.93,0h2.63v-.25h-2.63v.25Zm0,.13v.17h2.63v-.17h-2.63Zm2.95.17h7.49v-.17h-7.49v.17Zm7.82,0h2.67v-.17h-2.67v.17Zm2.67-.3v-.25h-2.67v.25h2.67Zm.33,0h.74v-.25h-.74v.25Zm6.05-.38v-.26h-1.08v.26h1.08Zm.67-.03v-.4h-.4v.4h.4Zm.3,0v-.4h-.11v.4h.11Zm-.97-.62h-1.08v.26h1.08v-.26Zm0-.13v-.26h-1.08v.26h1.08Zm.67-.17v-.4h-.4v.4h.4Zm.3,0v-.4h-.11v.4h.11Zm-.97-.48h-1.08v.26h1.08v-.26Zm0-.13v-.25h-1.08v.25h1.08Zm-.79-.38v-.4h-.2v.4h.2Zm.19-.25v.25h.11v-.25h-.11Zm.11-.19v-.1h-.11v.1h.11Zm.4.43v-.4h-.2v.4h.2Zm.38,0v-.4h-.11v.4h.11Zm.38,0v-.4h-.11v.4h.11Zm.3-.4h-.11v.4h.11v-.4Zm-6.28-.18h-.74v.17h.74v-.17Zm-1.07,0h-2.67v.17h2.67v-.17Zm-3,0h-1.01s0,.1,0,.17h1v-.17Zm-2.67,0h-2.02s0,.1,0,.17h2.01v-.17Zm-3.68,0h-1.13v.17h1.13v-.17Zm-1.46,0h-2.63v.17h2.63v-.17Zm-2.95,0h-.6v.17h.6v-.17Zm-.93,0h-.47s0,.1,0,.17h.46v-.17Zm-2.13,0h-1.29s0,.1,0,.17h1.29v-.17Zm-2.96,0h-.6v.17h.6v-.17Zm-3.71,0h-1.19s0,.1,0,.17h1.18v-.17Zm-2.85,0h-.98s0,.1,0,.17h.97v-.17Zm-2.64,0h-1.27s0,.1,0,.17h1.27v-.17Zm-2.94,0h-.61v.17h.61v-.17Zm-.74-.22v-.26h-.9v.19h-.42s.09.04.13.07h1.19Zm-2,0v.29h.19v-.29h-.19Zm-.81-.61h-.52v.22h.52v-.22Zm-.7-4.79h1.02v-.26h-1.02v.26Zm.09-.39h.93v-.24h-.93v.24Zm.61-1.18v-.24h-.66c0,.08,0,.16.01.24h.65Zm2.81,6.36h-.9v.22h.9v-.22Zm-1.03-3.02v-.34h-1.65v.34h1.65Zm-1.33-.47h.41v-1.51c0-.23-.18-.41-.41-.42v1.92Zm.98-1.55c0-.26-.21-.47-.47-.47h-.24s-.03.02-.04.02c.18.09.31.27.31.49v1.51h.44v-1.55Zm-.42-1.09h-.19v.29h.19v-.29Zm-1,3.24v-.22h-.7v.26h1.23s.02-.03.03-.04h-.56Zm.32,1.69h-1.02v.24h1.02v-.24Zm-1.02-.89h.9c-.08-.06-.14-.14-.16-.24h-.74v.24Zm1.02.5h-1.02v.26h1.02v-.26Zm0-.37h-1.02v.24h1.02v-.24Zm.68-.74h-.19v.29h.19v-.29Zm-.8-.02h-.91v.26h.74c.02-.11.08-.2.17-.26Zm-.91,2.15h1.02v-.26h-1.02v.26Zm1.15.51h.41v-1.51c0-.23-.18-.41-.41-.42v1.92Zm.54-1.51v1.51h.44v-1.55c0-.26-.21-.47-.47-.47h-.24s-.03.02-.04.02c.18.09.31.27.31.49Zm1.83,1.13h-1.26v.31h1.26v-.31Zm0-.39h-1.26v.26h1.26v-.26Zm0-.37h-1.26v.24h1.26v-.24Zm0-.39h-1.26v.26h1.26v-.26Zm0-.37h-1.37c.05.07.09.15.1.24h1.27v-.24Zm0-.37h-1.04c-.02.1-.08.18-.16.24h1.2v-.24Zm0-.39h-1.21c.09.06.16.15.17.26h1.04v-.26Zm0-.39h-.9v.22h-.66s.02.03.03.04h1.54v-.26Zm0-.38h-.9v.25h.9v-.25Zm0-.39h-1.26v.26h1.26v-.26Zm0-.39h-1.26v.26h1.26v-.26Zm0-.39h-1.26v.26h1.26v-.26Zm0-.39h-1.26s0,0,0,0v.26h1.26v-.26Zm0-.37h-1.39c.06.07.1.15.12.24h1.27v-.24Zm0-.41h-1.03c0,.11-.06.21-.14.28h1.17v-.28Zm0-.76h-.9v.24h.9v-.24Zm0-.38h-1.26v.19h.35v.06h.9v-.25Zm0-.39h-1.26v.26h1.26v-.26Zm0-.39h-1.26v.26h1.26v-.26Zm0-.39h-1.26v.26h1.26v-.26Zm0-.39h-1.29c.02.06.04.13.04.2v.06h1.26v-.26Zm-1.86-.27h-.24s-.03.02-.04.02c.18.09.31.27.31.49v1.51h.44v-1.55c0-.26-.21-.47-.47-.47Zm-.1.51c0-.23-.18-.41-.41-.42v1.92h.41v-1.51Zm-.54,1.31h-1.03c.02.08.03.16.04.25h.67v-.06h.32v-.19Zm-.19.62h1.65v-.3h-1.65v.3Zm1.43.18c.09.05.16.12.2.21h1.06v-.26h-.9v.05h-.35Zm-2.26,1.78h1.02v-.26h-1.02v.26Zm0,.39h1.02v-.26h-1.02v.26Zm0,.39h1.02v-.26h-1.02v.26Zm0,.38h.7v-.25h-.7v.25Zm0,3.11h1.02v-.31h-1.02v.31Zm.83.54h1.65v-.34h-1.65v.34Zm.87-9.83h-.19v.29h.19v-.29Zm-4.82-2.44c0,.07.06.12.12.12s.12-.06.12-.12-.06-.12-.12-.12-.12.06-.12.12Zm.12.52c-.2,0-.37.17-.37.37s.17.37.37.37.37-.17.37-.37-.17-.37-.37-.37Zm-.63,1.31s0,0,0,0h1.27s0,0,0,0c0-.16-.28-.28-.63-.28s-.63.13-.63.28Zm1.26-.23c.07,0,.12-.06.12-.12s-.06-.12-.12-.12-.12.06-.12.12.06.12.12.12Zm-1.13-.12c0-.07-.06-.12-.12-.12s-.12.06-.12.12.06.12.12.12.12-.06.12-.12Zm1.78.35v.25h5.38l-.54-.27h0s-5,0-5,0c0,0,0,.01,0,.02h.17s0,0,0,0Zm4.58-.15l-.41-.21h-4.43c.04.06.07.13.09.21h4.75Zm-.67-.34l-.4-.2h0s-4.22,0-4.22,0c-.03.06-.06.12-.11.16.05-.02.11-.03.17-.03.09,0,.17.03.24.07h4.31Zm-1.32-.67l-.39-.2h-3c.05.06.09.13.11.2h3.28Zm-.65-.33l-.38-.19h0s-2.37,0-2.37,0c.01.04.02.08.02.12,0,.03,0,.05,0,.07h2.74Zm-.64-.32l-.41-.21h-2.03c.12.03.21.11.28.21h2.17Zm-5.09,0h2.11c.06-.1.16-.17.28-.21h-1.99l-.39.21Zm-.62.32h2.66s0-.04,0-.07c0-.04,0-.08.02-.12h-2.3l-.37.19Zm-1.27.67h3.79s-.02-.09-.02-.13c0-.03,0-.05,0-.07h-3.39l-.39.21Zm-.63.33h4.16c.07-.04.15-.07.24-.07.06,0,.12.01.17.03-.04-.05-.08-.1-.11-.16h-4.08l-.38.2Zm-.24.13h0s-.4.21-.4.21h4.57c.01-.08.04-.15.09-.21h-4.26Zm-1.17.61h5.17v-.25h0s.17,0,.17,0c0,0,0-.01,0-.02h-4.82l-.52.27Zm2.16.13s.07.08.1.13c.01,0,.02,0,.03,0,.09,0,.18.03.25.07h7.82c.07-.04.16-.07.25-.07.01,0,.02,0,.03,0,.02-.05.06-.1.1-.13h-8.57Zm.59,3.29h.62c0-.08,0-.16.01-.24h-.63v.24Zm-.13-.3h-1.65v.3h1.65v-.3Zm.74,1.23h-.93v.24h.93v-.24Zm.09,4.59h-1.02v.26h1.02v-.26Zm-1.7,1.45v.29h.19v-.29h-.19Zm-.49-.07h-.42v-.19h-.9v.26h1.19s.08-.05.13-.07Zm-1.32-8.82h1.25v-.06c0-.07.01-.14.04-.2h-1.29v.26Zm1.38-.06v1.55h.44v-1.51c0-.22.13-.4.31-.49-.01,0-.03-.01-.04-.02h-.24c-.26,0-.47.21-.47.47Zm-1.38.45h1.25v-.26h-1.25v.26Zm0,.39h1.25v-.26h-1.25v.26Zm0,.39h1.25v-.26h-1.25v.26Zm0,.38h.9v-.06h.35v-.19h-1.25v.25Zm0,.37h.9v-.24h-.9v.24Zm0,.8h1.17c-.09-.07-.14-.17-.14-.28h-1.03v.28Zm2.68,2.53v-.34h-1.65v.34h1.65Zm-1.3-2.02v1.55h.44v-1.51c0-.22.13-.4.31-.49-.01,0-.03-.01-.04-.02h-.24c-.26,0-.47.21-.47.47Zm.98-.37c-.22,0-.41.19-.41.42v1.51h.41v-1.92Zm-.37-.72h-.19v.29h.19v-.29Zm-2,.96h1.27c.02-.09.06-.17.12-.24h-1.39v.24Zm0,.39h1.25v-.26s0,0,0,0h-1.25v.26Zm0,.39h1.25v-.26h-1.25v.26Zm0,.39h1.25v-.26h-1.25v.26Zm0,.39h1.25v-.26h-1.25v.26Zm0,.38h.9v-.25h-.9v.25Zm0,.39h1.53s.02-.03.03-.04h-.66v-.22h-.9v.26Zm2.36.87c-.22,0-.41.19-.41.42v1.51h.41v-1.92Zm-.37-.72h-.19v.29h.19v-.29Zm-.61,2.64h.44v-1.51c0-.22.13-.4.31-.49-.01,0-.03-.01-.04-.02h-.24c-.26,0-.47.21-.47.47v1.55Zm-1.38-2.4h1.03c.02-.11.08-.2.17-.26h-1.21v.26Zm0,.37h1.2c-.08-.06-.14-.14-.16-.24h-1.04v.24Zm0,.37h1.26c.02-.09.05-.17.1-.24h-1.37v.24Zm0,.39h1.25v-.26h-1.25v.26Zm0,.37h1.25v-.24h-1.25v.24Zm0,.39h1.25v-.26h-1.25v.26Zm0,.44h1.25v-.31h-1.25v.31Zm0,.35h.9v-.22h-.9v.22Zm2.68.19v-.34h-1.65v.34h1.65Zm.83-1.61h-1.02v.24h1.02v-.24Zm0-.39h-1.02v.26h1.02v-.26Zm0-.37h-1.02v.24h1.02v-.24Zm0-.37h-.74c-.02.1-.08.18-.16.24h.9v-.24Zm0-.39h-.91c.09.06.16.15.17.26h.73v-.26Zm0-.39h-.7v.22h-.56s.02.03.03.04h1.23v-.26Zm0-.38h-.7v.25h.7v-.25Zm0-.39h-1.02v.26h1.02v-.26Zm0-.39h-1.02v.26h1.02v-.26Zm0-.39h-1.02v.26h1.02v-.26Zm0-.39h-1.02v.26h1.02v-.26Zm-2.26-1.13h-.35v-.05h-.9v.26h1.05c.03-.09.1-.17.2-.21Zm1.11-.6v-1.92c-.22,0-.41.19-.41.42v1.51h.41Zm-.55-2.35h.19v-.29h-.19v.29Zm-1.81.31v.15h1.35s.04-.05.06-.07c-.13-.01-.24-.08-.31-.17h-1.09v.09h-.02Zm-.13,9.64h-.61v.17h.61v-.17Zm2.23.41h-.24c-.26,0-.47.21-.47.47v1.55h.44v-1.51c0-.22.13-.4.31-.49-.01,0-.03-.01-.04-.02Zm-.85,2.02v-.17h-1.25v.26h.9v-.09h.35Zm-2.19.36h-1.18v.09h1.18v-.09Zm-1.37-.14h-1.37v.25h1.37v-.25Zm-38.44-1.69h.55v-.25h-.55v.25Zm42,.91h-1.25v.26h1.25v-.26Zm-3.36.65v-.26h-1.77v.26h1.77Zm-1.77.27h-1.18v.09h1.18v-.09Zm-2.64,0h-1.18v.09h1.18v-.09Zm-2.85,0h-1.18v.09h1.18v-.09Zm-3.71,0h-1.18v.09h1.18v-.09Zm-2.96,0h-1.18v.09h1.18v-.09Zm-22.91.09v-.09h-1.46v.09h1.46Zm2.3,0v-.09h-1.46v.09h1.46Zm2.25-.09h-1.46v.09h1.46v-.09Zm-5.51-2.21v-.4h-.11v.4h.11Zm.3,0v-.4h-.11v.4h.11Zm.38,0v-.4h-.11v.4h.11Zm.18.13v.25h1.08v-.25h-1.08Zm.29-.13v-.4h-.2v.4h.2Zm.2-.25v.25h.11v-.25h-.11Zm.11-.19v-.1h-.11v.1h.11Zm.39.43v-.4h-.2v.4h.2Zm.39,0v-.4h-.11v.4h.11Zm.3,0v-.4h-.11v.4h.11Zm.39,0v-.4h-.11v.4h.11Zm.18.13v.25h1.09v-.25h-1.09Zm.29-.13v-.4h-.2v.4h.2Zm.2-.25v.25h.11v-.25h-.11Zm.11-.19v-.1h-.11v.1h.11Zm.39.43v-.4h-.2v.4h.2Zm.42,0v-.4h-.11v.4h.11Zm.3,0v-.4h-.11v.4h.11Zm.36,0v-.4h-.11v.4h.11Zm.19.13v.25h.48v-.25h-.48Zm.29-.13v-.4h-.2v.4h.2Zm5.58.12h-1.01v.26h1.31v-.25h-.3s0,0,0-.01Zm1.47.01v.25h2.51v-.25h-.3s0,0,0-.01h-2.02s-.2.01-.2.01Zm3.68,0v.25h1.33v-.26h-1.13s-.2.01-.2.01Zm6-.01h-.46v.26h.76v-.25h-.3s0,0,0-.01Zm.3-.12v-.4h-.2v.4h.2Zm1.17.38h1.79v-.25h-.3s0,0,0-.01h-1.29s-.2.01-.2.01v.25Zm.1-.38v-.4h-.2v.4h.2Zm1.69,0v-.4h-.2v.4h.2Zm1.17.38h.8v-.26h-.6s-.2.01-.2.01v.25Zm.1-.38v-.4h-.2v.4h.2Zm2.14.12h-1.31v.26h1.61v-.25h-.3s0,0,0-.01Zm.3-.12v-.4h-.2v.4h.2Zm1.17.38h1.68v-.25h-.3s0,0,0-.01h-1.18s-.2.01-.2.01v.25Zm.1-.38v-.4h-.2v.4h.2Zm1.58,0v-.4h-.2v.4h.2Zm1.17.38h1.47v-.25h-.3s0,0,0-.01h-.97s-.2.01-.2.01v.25Zm.1-.38v-.4h-.2v.4h.2Zm1.37,0v-.4h-.2v.4h.2Zm1.17.38h1.77v-.25h-.3s0,0,0-.01h-1.27s-.2.01-.2.01v.25Zm.1-.38v-.4h-.2v.4h.2Zm1.67,0v-.4h-.2v.4h.2Zm.52,1.51v.4h.4v-.4h-.4Zm-.3,0v.4h.11v-.4h-.11Zm-.21-.22h-1.77v.26h1.77v-.26Zm-21.4.92h-1.18v.09h1.18v-.09Zm-1.17-.27v-.26h-2.51v.26h2.51Zm-2.52.27h-1.18v.09h1.18v-.09Zm3.03-.7v.4h.4v-.4h-.4Zm-.3,0v.4h.11v-.4h-.11Zm-.21-.22h-2.51v.26h2.51v-.26Zm-3.17.22v.4h.4v-.4h-.4Zm-.3,0v.4h.11v-.4h-.11Zm3.47-.35v-.26h-2.51v.26h2.51Zm-10.71-.17v-.4h-.11v.4h.11Zm.59,0v-.4h-.4v.4h.4Zm.26.17h.48v-.26h-.48v.26Zm.8,0h.74v-.26h-.74v.26Zm1.07,0h2.67v-.26h-2.67v.26Zm3,0h1.31v-.26h-1.31v.26Zm1.63-.17v-.4h-.11v.4h.11Zm.59,0v-.4h-.4v.4h.4Zm3.09,0v-.4h-.11v.4h.11Zm.59,0v-.4h-.4v.4h.4Zm.26.17h1.33v-.26h-1.33v.26Zm1.66,0h2.63v-.26h-2.63v.26Zm2.95,0h.6v-.26h-.6v.26Zm.93,0h.76v-.26h-.76v.26Zm1.09-.17v-.4h-.11v.4h.11Zm.59,0v-.4h-.4v.4h.4Zm.26.17h1.79v-.26h-1.79v.26Zm2.11-.17v-.4h-.11v.4h.11Zm.59,0v-.4h-.4v.4h.4Zm.26.17h.8v-.26h-.8v.26Zm.93,0h1.61v-.26h-1.61v.26Zm1.93-.17v-.4h-.11v.4h.11Zm.59,0v-.4h-.4v.4h.4Zm.26.17h1.68v-.26h-1.68v.26Zm2-.17v-.4h-.11v.4h.11Zm.59,0v-.4h-.4v.4h.4Zm.26.17h1.47v-.26h-1.47v.26Zm1.8-.17v-.4h-.11v.4h.11Zm.59,0v-.4h-.4v.4h.4Zm-.91-.48h-1.47v.26h1.47v-.26Zm-2.64,0h-1.68v.26h1.68v-.26Zm-2.85,0h-1.61v.26h1.61v-.26Zm-1.74,0h-.8v.26h.8v-.26Zm-1.97,0h-1.79v.26h1.79v-.26Zm-2.96,0h-.76v.26h.76v-.26Zm-1.09,0h-.6v.26h.6v-.26Zm-.93,0h-2.63v.26h2.63v-.26Zm-2.95,0h-1.33v.26h1.33v-.26Zm-2.5,0h-2.51v.26h2.51v-.26Zm-3.68,0h-1.31v.26h1.31v-.26Zm-1.63,0h-2.67v.26h2.67v-.26Zm-3,0h-.74v.26h.74v-.26Zm-1.07,0h-.48v.26h.48v-.26Zm-1.65,0h-1.09v.26h1.09v-.26Zm-1.77.08v.4h.4v-.4h-.4Zm-.3,0v.4h.11v-.4h-.11Zm.98.57h1.09v-.26h-1.09v.26Zm0,.13v.26h1.09v-.26h-1.09Zm1.61.22v.4h.4v-.4h-.4Zm-.3,0v.4h.11v-.4h-.11Zm-1.98,0v.4h.4v-.4h-.4Zm-.3,0v.4h.11v-.4h-.11Zm2.07.43v-.26h-1.09v.26h1.09Zm1.17-.39h.48v-.26h-.48v.26Zm.8,0h.74v-.26h-.74v.26Zm1.07,0h2.67v-.26h-2.67v.26Zm3,0h1.31v-.26h-1.31v.26Zm6.16,0h1.33v-.26h-1.33v.26Zm1.66,0h2.63v-.26h-2.63v.26Zm2.95,0h.6v-.26h-.6v.26Zm.93,0h.76v-.26h-.76v.26Zm1.28-.04v.4h.4v-.4h-.4Zm-.3,0v.4h.11v-.4h-.11Zm.96.04h1.79v-.26h-1.79v.26Zm2.31-.04v.4h.4v-.4h-.4Zm-.3,0v.4h.11v-.4h-.11Zm.96.04h.8v-.26h-.8v.26Zm.93,0h1.61v-.26h-1.61v.26Zm2.13-.04v.4h.4v-.4h-.4Zm-.3,0v.4h.11v-.4h-.11Zm.96.04h1.68v-.26h-1.68v.26Zm2.2-.04v.4h.4v-.4h-.4Zm-.3,0v.4h.11v-.4h-.11Zm.96.04h1.47v-.26h-1.47v.26Zm1.99-.04v.4h.4v-.4h-.4Zm-.3,0v.4h.11v-.4h-.11Zm2.72-.35v-.26h-1.77v.26h1.77Zm.32-.17v-.4h-.11v.4h.11Zm.59,0v-.4h-.4v.4h.4Zm.26.17h.8v-.26h-.8v.26Zm.8-.39v-.26h-.8v.26h.8Zm-1.97-.26h-1.77v.26h1.77v-.26Zm-16.19-.39h-.6v.26h.6v-.26Zm-.93,0h-2.63v.26h2.63v-.26Zm-10.77,0h-2.67v.26h2.67v-.26Zm-3,0h-.74v.26h.74v-.26Zm-6.05.39v.26h1.08v-.26h-1.08Zm-.67.08v.4h.4v-.4h-.4Zm-.3,0v.4h.11v-.4h-.11Zm.97.57h1.08v-.26h-1.08v.26Zm0,.13v.26h1.08v-.26h-1.08Zm-.67.22v.4h.4v-.4h-.4Zm-.3,0v.4h.11v-.4h-.11Zm.97.43h1.08v-.26h-1.08v.26Zm4.98,0v-.26h-.48v.26h.48Zm.33,0h.74v-.26h-.74v.26Zm1.07,0h2.67v-.26h-2.67v.26Zm3,0h1.31v-.26h-1.31v.26Zm0,.13v.25h1.1v-.25h-1.1Zm2.67.25h2.11v-.25h-2.11v.25Zm3.68,0h1.13v-.25h-1.13v.25Zm1.13-.38v-.26h-1.33v.26h1.33Zm.33,0h2.63v-.26h-2.63v.26Zm2.95,0h.6v-.26h-.6v.26Zm.93,0h.76v-.26h-.76v.26Zm3.72,0v-.26h-1.79v.26h1.79Zm1.97,0v-.26h-.8v.26h.8Zm.13,0h1.61v-.26h-1.61v.26Zm4.46,0v-.26h-1.68v.26h1.68Zm2.64,0v-.26h-1.47v.26h1.47Zm4.11-.39h.8v-.26h-.8v.26Zm2.19-.65h-1.25v.26h1.25v-.26Zm0-.39h-1.25v.26h1.25v-.26Zm.03-.39h-1.28v.26h1.25v-.08c0-.06.01-.13.03-.18Zm-1.42,0h-.61s-.2.01-.2.01v.25h.8v-.26Zm-.71-.12v-.4h-.2v.4h.2Zm-1.57-.27h-1.27v.26h1.27c0-.07,0-.17,0-.26Zm-2.94,0h-.97v.26h.97c0-.07,0-.17,0-.26Zm-2.64,0h-1.18v.26h1.18c0-.07,0-.17,0-.26Zm-2.85,0h-1.3v.26h1.3c0-.07,0-.17,0-.26Zm-1.43,0h-.6v.26h.6v-.26Zm-2.27,0h-1.29v.26h1.29c0-.07,0-.17,0-.26Zm-2.96,0h-.46v.26h.46c0-.07,0-.17,0-.26Zm-.79,0h-.6v.26h.6v-.26Zm-.93,0h-2.63v.26h2.63v-.26Zm-2.95,0h-1.13v.26h1.13v-.26Zm-1.23,0h-.2v.27h.2v-.27Zm-1.47,0v.27h.2v-.27h-.2Zm-.11,0h-2.01v.26h2.01c0-.07,0-.17,0-.26Zm-2.11,0h-.2v.27h.2v-.27Zm-1.47,0v.27h.2v-.27h-.2Zm-.11,0h-1v.26h1c0-.07,0-.17,0-.26Zm-1.33,0h-2.67v.26h2.67v-.26Zm-3,0h-.74v.26h.74v-.26Zm-7.52-.13v.4h.2v-.4h-.2Zm-.25.91v.26h.55v-.26h-.55Zm0,.39v.26h.55v-.26h-.55Zm0,.39v.26h.55v-.26h-.55Zm0,.39v.26h.55v-.26h-.55Zm0,.39v.25h.15v-.25h-.15Zm6.5.25h.19v-.25h-.19v.25Zm.52,0h.74v-.25h-.74v.25Zm1.07,0h2.67v-.25h-2.67v.25Zm0,.13v.17h2.67v-.17h-2.67Zm3,.17h7.49v-.17h-7.49v.17Zm7.82,0h2.63v-.17h-2.63v.17Zm2.63-.3v-.25h-2.63v.25h2.63Zm.33,0h.6v-.25h-.6v.25Zm.93,0h.56v-.25h-.56v.25Zm2.13,0h1.39v-.25h-1.39v.25Zm2.96,0h.6v-.25h-.6v.25Zm.73,0h1.4v-.25h-1.4v.25Zm2.97,0h1.28v-.25h-1.28v.25Zm2.85,0h1.07v-.25h-1.07v.25Zm6.19-.38v-.26h-.8v.26h.8Zm1.23-2.21h-1.1v.26h1.34s.04-.06.07-.09c-.13-.01-.24-.08-.31-.17Zm-1.23,0h-.61v.26h.61v-.26Zm-2.27-.3h-1.27v.17h1.27c0-.07,0-.13,0-.17Zm-2.94,0h-.98v.17h.97c0-.07,0-.13,0-.17Zm-2.64,0h-1.19v.17h1.18c0-.07,0-.13,0-.17Zm-4.29,0h-.6v.17h.6v-.17Zm-2.27,0h-1.29v.17h1.29c0-.07,0-.13,0-.17Zm-2.96,0h-.47v.17h.46c0-.07,0-.13,0-.17Zm-.79,0h-.6v.17h.6v-.17Zm-.93,0h-2.63v.17h2.63v-.17Zm-2.95,0h-1.13v.17h1.13v-.17Zm-2.8,0h-2.02v.17h2.01c0-.07,0-.13,0-.17Zm-3.68,0h-1.01v.17h1c0-.07,0-.13,0-.17Zm-1.33,0h-2.67v.17h2.67v-.17Zm-3,0h-.74v.17h.74v-.17Zm-9.71.56h1.62v-.26H.8v.26Zm0,.39h1.62v-.26H.8v.26Zm0,.39h1.62v-.26H.8v.26Zm0,.39h1.62v-.26H.8v.26Zm0,.39h1.62v-.26H.8v.26Zm0,.39h1.62v-.26H.8v.26Zm0,.38h1.62v-.25H.8v.25Zm0,.3h1.62v-.17H.8v.17Zm1.95,0h6.69v-.17H2.75v.17Zm7.02,0h.74v-.17h-.74v.17Zm0,.13v.17h.74v-.17h-.74Zm1.07.17h2.67v-.17h-2.67v.17Zm3,0h7.49v-.17h-7.49v.17Zm7.82,0h2.63v-.17h-2.63v.17Zm2.95,0h.6v-.17h-.6v.17Zm.6-.3v-.17h-.6v.17h.6Zm.33,0h5.69v-.17h-5.69v.17Zm5.82,0h12.01v-.17h-12.01v.17Zm12.01-.3v-.25h-.61v.25h.61Zm.13,0h.9v-.25h-.9v.25Zm2.36-.47v-1.92c-.22,0-.41.19-.41.42v1.51h.41Zm-1.32-2.25s-.01-.06-.01-.09c0-.06.02-.12.05-.17h-1.07v.26h1.04Zm2.29-1h-.52v.22h.52v-.22Zm0-.13h.18v-.31h-1.02v.31h.84Zm.09-5.63h-.09v-.07h-.55c0,.11-.06.21-.14.28h.78v-.21Zm0-.46h0s-.61,0-.61,0v.05h-.25c.09.05.16.12.2.21h.57v-.26h.09Zm.06-.75h-.99v.19h.32v.06h.64c0-.08.02-.17.04-.25Zm.1-.39h-1.09v.26h1.02c.02-.09.04-.17.07-.26Zm.15-.39h-1.25v.26h1.14c.03-.09.07-.18.11-.26Zm.24-.39h-1.48v.26h1.32c.05-.09.11-.18.17-.26Zm.34-.39h-1.83v.26h1.58c.08-.09.16-.18.25-.26Zm.52-.37h-2.13c-.05.07-.13.12-.22.15v.09h1.98c.11-.09.24-.17.37-.24Zm.26-.13h0c.4-.17.87-.26,1.39-.26s1.01.1,1.42.28v-.02h2.32s-.01-.06-.01-.09c0-.07.02-.14.06-.19h-7.55c.04.06.06.12.06.19,0,.03,0,.06-.01.09h2.33Zm3.03.13c.14.08.28.17.4.27v-.03h1.98v-.09c-.09-.03-.17-.08-.22-.15h-2.16Zm.52.37c.09.08.18.17.25.26h0s1.61,0,1.61,0v-.26h-1.86Zm.34.39c.06.08.12.17.17.26h1.35v-.26h-1.52Zm.24.39c.04.08.08.17.11.26h1.17v-.26h-1.28Zm.15.39c.03.08.05.17.07.26h1.05v-.26h-1.12Zm.16,1.14h.12v.26h.58c.03-.09.1-.17.2-.21h-.25v-.05h-.64Zm-.95.13v.2h.94v-.2h-.94Zm.98.33v.21h.78c-.09-.07-.14-.17-.14-.28h-.55v.07h-.09Zm-.94,5.77h-.05v.2h.94v-.2h-.89Zm.94.61h.8s.08-.05.13-.07h-.32v-.19h-.61v.26Zm2.4.3s0,.06-.01.09h1.04v-.26h-1.08c.03.05.05.11.05.17Zm-2.48.87h1.02v-.26h-1.02v.26Zm0,.39h1.02v-.26h-1.02v.26Zm0,.39h1.02v-.26h-1.02v.26Zm0,.39h1.02v-.26h-1.02v.26Zm0,.39h.7v-.09h.32v-.17h-1.02v.26Zm0,.38h.7v-.25h-.7v.25Zm0,.3h3.52v-.17h-.9s-1.91,0-1.91,0h0s-.7,0-.7,0v.17Zm3.65,0h12.01v-.17h-12.01v.17Zm12.14,0h5.69v-.17h-5.69v.17Zm6.02,0h.6v-.17h-.6v.17Zm0,.13v.17h.6v-.17h-.6Zm.93.17h2.63v-.17h-2.63v.17Zm2.95,0h7.49v-.17h-7.49v.17Zm7.82,0h2.67v-.17h-2.67v.17Zm3,0h.74v-.17h-.74v.17Zm.74-.3v-.17h-.74v.17h.74Zm.33,0h6.69v-.17h-6.69v.17Zm6.69-.3v-.25h-.15v.25h.15Zm0-.38v-.26h-.55v.26h.55Zm0-.39v-.26h-.55v.26h.55Zm0-.39v-.26h-.55v.26h.55Zm0-.39v-.26h-.55v.26h.55Zm0-.39v-.25h-.55v.25h.55Zm-6.53-3.47v.21h.24v-.21h-.24Zm.2-.29v-.38h-.17v.38h.17Zm.39.59v.4h.4v-.4h-.4Zm.39-.59v-.38h-.17v.38h.17Zm-.39,1.46v.4h.4v-.4h-.4Zm0-1.84h-.17v.38h.17v-.38Zm-.39,2.54v.09h1.43v-.09h-1.43Zm.98-1.58v.4h.11v-.4h-.11Zm.2-.59v-.38h-.17v.38h.17Zm-.2,1.46v.4h.11v-.4h-.11Zm.68-.29v-.26h-.24v.26h.24Zm-.24.54v.26h.24v-.26h-.24Zm.24-1.21v-.21h-.24v.21h.24Zm-.1-.89h-.17v.38h.17v-.38Zm-1.78,1.3v.26h.24v-.26h-.24Zm0,.8v.26h.24v-.26h-.24Zm1.97-.33v.19h.12v-.19h-.12Zm.06-.65h.07v-.11h-.12v.11h.06Zm.16-.44v.21h.24v-.21h-.24Zm.2-.29v-.38h-.17v.38h.17Zm.39.59v.4h.4v-.4h-.4Zm.39-.59v-.38h-.17v.38h.17Zm-.39,1.46v.4h.4v-.4h-.4Zm0-1.84h-.17v.38h.17v-.38Zm-.44,2.54v.09h1.46v-.09h-1.46Zm1.03-1.58v.4h.11v-.4h-.11Zm.2-.59v-.38h-.17v.38h.17Zm-.2,1.46v.4h.11v-.4h-.11Zm.68-.29v-.26h-.24v.26h.24Zm-.24.54v.26h.24v-.26h-.24Zm.24-1.21v-.21h-.24v.21h.24Zm-.1-.89h-.17v.38h.17v-.38Zm-1.78,1.3v.26h.24v-.26h-.24Zm0,.8v.26h.24v-.26h-.24Zm-.22-8.54v.42h.12v-.42h-.12Zm-2.07,0h-.06v.42h.06v-.42Zm-.39,0h-.74v9.51h.74v-9.51Zm-1.07,0h-2.67v9.51h2.67v-9.51Zm-10.81,0h-2.63v9.51h2.63v-9.51Zm-2.95,0h-.6v9.51h.6v-9.51Zm-6.75,0h-.45v.38h.45v-.38Zm-10.74-.68v-.08h-.89s-.11-.07-.11-.07h-2s.07.08.1.13c.01,0,.02,0,.03,0,.09,0,.17.02.24.06h1.22v-.04h1.43Zm18.05-.86l.29-.21h-9.2l.25.21h8.66Zm.47-.34l.21-.15h-9.92l.18.15h9.53Zm-9.96-.15h-10.36l.3.15h10.23l-.18-.15Zm-9.8.28l.42.21h9.97l-.25-.21h-10.13Zm38.31.21l-.2-.21h-18.25l-.29.21h18.73Zm-.32-.34l-.14-.15h-17.6l-.21.15h17.95Zm-17.68-.4h-10.56l.14.12h10.25l.16-.12Zm-10.81,0h-10.55l.23.12h10.46l-.14-.12Zm-6.06-.46v-1.03h-1.21v1.03h1.21Zm-1.38-1.03h-1.2v1.03h1.2v-1.03Zm-1.37,0h-1.12v1.03h1.12v-1.03Zm-13.85,2.02h-10.32l-.25.21h10.17l.4-.21Zm.54-.28h-10.52l-.18.15h10.41l.29-.15Zm-10.78,0h-9.92l.21.15h9.53l.18-.15Zm-9.53.28l.29.21h8.66l.25-.21h-9.2Zm20.01-.99v-1.03h-1.12v1.03h1.12Zm-1.28-1.03h-1.2v1.03h1.2v-1.03Zm-1.37,0h-1.21v1.03h1.21v-1.03Zm-7.28,1.49l-.14.12h10.62l.23-.12h-10.7Zm-.25,0h-10.55l.16.12h10.25l.14-.12Zm-28.24.4h17.95l-.21-.15H5.48l-.14.15Zm-.32.34h18.73l-.29-.21H5.22l-.2.21Zm37.27.86h1.21v.05h1.2c.07-.04.16-.07.25-.07.01,0,.02,0,.03,0,.02-.05.06-.1.1-.13h-1.79l-.12.07h-.88v.08Zm-10.5.68h-.45v.38h.45v-.38Zm-6.6,0h-.6v9.51h.6v-9.51Zm-.93,0h-2.63v9.51h2.63v-9.51Zm-10.77,0h-2.67v9.51h2.67v-9.51Zm-3,0h-.74v9.51h.74v-9.51Zm-1.07,0h-.06v.42h.06v-.42Zm-2.13,0h-.12v.42s.06,0,.06,0h.06v-.42Zm.34,8.01v-.26h-.24v.26h.24Zm-.24.54v.26h.24v-.26h-.24Zm.24-1.21v-.21h-.24v.21h.24Zm.03-.5v-.38h-.17v.38h.17Zm-.03,2.26h1.43v-.09h-1.43v.09Zm.45-1.26v-.4h-.11v.4h.11Zm-.11.48v.4h.11v-.4h-.11Zm.09-1.84h-.17v.38h.17v-.38Zm.22.97v.4h.4v-.4h-.4Zm.18-.59v-.38h-.17v.38h.17Zm-.18,1.46v.4h.4v-.4h-.4Zm.57-1.46v-.38h-.17v.38h.17Zm.42,1.97v-.26h-.24v.26h.24Zm0-.8v-.26h-.24v.26h.24Zm0-.67v-.21h-.24v.21h.24Zm-.03-.5v-.38h-.17v.38h.17Zm-1.94.73v-.11h-.12v.11h.12Zm-.06.65h-.07v.19h.12v-.19h-.06Zm-1.8-.21v-.26h-.24v.26h.24Zm-.24.54v.26h.24v-.26h-.24Zm.24-1.21v-.21h-.24v.21h.24Zm.03-.5v-.38h-.17v.38h.17Zm0,2.26h1.46v-.09h-1.46v.09Zm.42-1.26v-.4h-.11v.4h.11Zm-.11.48v.4h.11v-.4h-.11Zm.09-1.84h-.17v.38h.17v-.38Zm.22.97v.4h.4v-.4h-.4Zm.18-.59v-.38h-.17v.38h.17Zm-.18,1.46v.4h.4v-.4h-.4Zm.57-1.46v-.38h-.17v.38h.17Zm.42,1.97v-.26h-.24v.26h.24Zm0-.8v-.26h-.24v.26h.24Zm0-.67v-.21h-.24v.21h.24Zm-.03-.5v-.38h-.17v.38h.17ZM.8,29.54h1.62v-.17H.8v.17Zm1.95,0h6.69v-.17H2.75v.17Zm0,.13v.16h6.69v-.16H2.75Zm7.02.16h.74v-.16h-.74v.16Zm1.07,0h2.67v-.16h-2.67v.16Zm3,0h7.49v-.16h-7.49v.16Zm7.82,0h2.63v-.16h-2.63v.16Zm2.95,0h.6v-.16h-.6v.16Zm.93,0h5.69v-.16h-5.69v.16Zm5.69-.29v-.17h-5.69v.17h5.69Zm.13,0h12.01v-.17h-12.01v.17Zm15.66,0v-.17h-3.51v.17h3.51Zm0-.3v-.17h-.7s-1.91,0-1.91,0h0s-.9,0-.9,0v.17h3.51Zm0-.3v-.25h-.7v.25h.7Zm0-.38v-.26h-1.02v.17h.32v.09h.7Zm0-.39v-.26h-1.02v.26h1.02Zm0-.39v-.26h-1.02v.26h1.02Zm0-.39v-.26h-1.02v.26h1.02Zm0-.39v-.26h-1.02v.26h1.02Zm0-.39v-.26h-.8c-.05.07-.13.12-.22.15v.11h1.02Zm0-.39v-.05h-.09v-.21h-.68c.03.05.05.11.05.17,0,.03,0,.06-.01.09h.74Zm.72-6.14h-.59v5.01h.59v-5.01Zm.18-.75v-.2h-.94v.2h.94Zm4.26-.39v.07h.75v-.06c0-1.4-.77-2.89-2.93-2.89-.55,0-1.01.1-1.39.26h0s0,0,0,0c-1.12.49-1.55,1.58-1.55,2.62v.06h.75v-.07c0-1.3.9-2.2,2.18-2.2s2.18.91,2.18,2.2Zm-2.18-2.07c-1.21,0-2.02.8-2.05,2.01h4.1c-.03-1.2-.84-2.01-2.05-2.01Zm2.2,2.6v.49h.76v-.49h-.76Zm0,6.58h.76v-.49h-.76v.49Zm.81.13v.05h.74s-.01-.06-.01-.09c0-.06.02-.12.05-.17h-.69v.21h-.09Zm3.52,3.38v-.17h-3.52v.17h3.52Zm.13,0h12.01v-.17h-12.01v.17Zm12.14,0h5.69v-.17h-5.69v.17Zm0,.13v.16h5.69v-.16h-5.69Zm6.02.16h.6v-.16h-.6v.16Zm.93,0h2.63v-.16h-2.63v.16Zm2.95,0h7.49v-.16h-7.49v.16Zm7.82,0h2.67v-.16h-2.67v.16Zm3,0h.74v-.16h-.74v.16Zm1.07,0h6.69v-.16h-6.69v.16Zm6.69-.29v-.17h-6.69v.17h6.69Zm.33,0h1.62v-.17h-1.62v.17Zm1.62-.3v-.17h-1.62v.17h1.62Zm0-.3v-.25h-1.62v.25h1.62Zm0-.38v-.26h-1.62v.26h1.62Zm0-.39v-.26h-1.62v.26h1.62Zm0-.39v-.26h-1.62v.26h1.62Zm0-.39v-.26h-1.62v.26h1.62Zm0-.39v-.26h-1.62v.26h1.62Zm0-.39v-.26h-1.62v.26h1.62Zm0-.39v-.17h-1.62v.17h1.62Zm0-.3v-9.51h-1.62v9.51h1.62Zm.15-10.03h-42.7v.35h42.58l.36-.35h-.25Zm-1.79-.7h-2.19,0s-37.3,0-37.3,0v.53h41.11v-.54h-1.62Zm-.78-.16l-2.41-1.06.97,1.06h1.44Zm-8.13-2.75h.63v-.23h-.63v.23Zm-1.29,0h.63v-.23h-.63v.23Zm-1.25,0h.63v-.23h-.63v.23Zm-1.18,0h.63v-.23h-.63v.23Zm-1.18,0h.63v-.23h-.63v.23Zm-.23.5h6.05v-.34h-6.05v.34Zm-.16.39h6.56v-.23h-6.75v.23h.19Zm.16.5h6.05v-.33h-6.05v.33Zm-2.8-1.39h.34v-.23h-.34v.23Zm-.49.5h1.33v-.34h-1.33v.34Zm-.28.39h1.92v-.23h-1.96v.23h.03Zm.16.5h1.56v-.33h-1.56v.33Zm-10.26-1.39h.34v-.23h-.34v.23Zm-.49.5h1.33v-.34h-1.33v.34Zm-.28.39h1.92v-.23h-1.96v.23h.03Zm.16.5h1.56v-.33h-1.56v.33Zm-7.4-2.55h.74v-.31h-.74v.31Zm-.52.29h1.83v-.12h-1.83v.12Zm.14.49h1.49v-.32h-1.49v.32Zm0,.58v1.19h1.49v-1.61h-1.49v.42Zm-.16.16h-1.02v1.03h1.02v-1.03Zm-6.3,1.03h1.09v-1.03h-1.09v1.03Zm-2.29-1.51h-.95l.95.48v-.48Zm-.83-7.39c-.45-.34-1.13-.68-1.56-.88.25.21.6.52.85.77.37.38.21,1.02.13,1.28h.75c.05-.2.2-.89-.17-1.17Zm-2.51,1.17c-.19-.6.08-1.39.29-1.88-.24.2-.56.48-.78.71-.33.33-.14.98-.07,1.16h.56Zm1.02,0c.25-.7-.24-1.76-.42-2.13,0,0,0,0,0,0,0,0,0,0,0,0-.19.36-.68,1.43-.42,2.13h.85Zm.17,0h.56c.06-.18.25-.83-.07-1.16-.23-.23-.54-.51-.78-.71.22.49.48,1.28.29,1.88Zm-.88-5.46l.17.05c.07-.02.13-.08.13-.17,0-.1-.08-.17-.17-.17s-.17.08-.17.17c0,.05.02.09.05.12Zm-1.8,5.46h.75c-.08-.26-.24-.9.13-1.28.25-.26.6-.56.85-.77-.42.2-1.11.54-1.56.88-.37.28-.22.97-.17,1.17Zm.16.56h4.14v-.4h-4.35v.4h.21Zm1.39.32h-.54v.5c.12-.22.31-.39.54-.5Zm-.53,1.08c0,.57.46,1.03,1.03,1.03s1.03-.46,1.03-1.03-.46-1.03-1.03-1.03-1.03.46-1.03,1.03Zm-.17-1.08h-.13v2.17h.13v-2.17Zm.16,2.17h.54c-.23-.11-.41-.28-.54-.5v.5Zm1.55,0h.83v-2.17h-.83c.41.19.69.6.69,1.08s-.28.89-.69,1.08Zm-2.25,1.96h3.6v-4.28h-.36v2.48h-3.01v-2.48h-.23v4.28Zm-1.06,1.05h1.41s1.42-.74,1.42-.74l1.47.75h0s1.4,0,1.4,0l-.83-.89h-4.05l-.83.89Zm.15.68l.97-.51h-.97v.51Zm-2.28-.03h-1.09v1.03h1.09v-1.03Zm-6.3,0v1.03h1.02v-1.03h-1.02Zm-1.29-1.51h.74v-.31h-.74v.31Zm-.53.29h1.8v-.12h-1.83v.12h.03Zm.16.49h1.49v-.32h-1.49v.32Zm0,1.77h1.49v-1.61h-1.49v1.61Zm-7.25-1.39h.34v-.23h-.34v.23Zm-.49.5h1.33v-.34h-1.33v.34Zm-.28.39h1.92v-.23h-1.96v.23h.03Zm.16.5h1.56v-.33h-1.56v.33Zm-10.26-1.39h.34v-.23h-.34v.23Zm-.49.5h1.33v-.34h-1.33v.34Zm-.28.39h1.92v-.23h-1.96v.23h.03Zm.16.5h1.56v-.33h-1.56v.33Zm-2.71-1.39h.63v-.23h-.63v.23Zm-1.18,0h.63v-.23h-.63v.23Zm-1.18,0h.63v-.23h-.63v.23Zm-1.25,0h.63v-.23h-.63v.23Zm-1.29,0h.63v-.23h-.63v.23Zm-.28.5h6.05v-.34h-6.05v.34Zm-.16.39h6.56v-.23h-6.75v.23h.19Zm.16.5h6.05v-.33h-6.05v.33Zm-7.22,1.36h1.44l.97-1.06-2.41,1.06Zm-2.4.7h41.32v-.53H4.63h0s-2.19,0-2.19,0H.82v.54Zm-.41.16l.36.35h42.58v-.35H.4Zm.4,13.95h1.62v-.16H.8v.16Zm42.57,0v-.16h-12.01v.16h12.01Zm4.36-3.67h-.59v3.67h.59v-3.67Zm.13,3.42l2.08-3.04v-5.66c0-.73.5-1.2,1.26-1.2.42,0,.69.15.85.28v-.51h-.09v-.46h.07s-4.11,0-4.11,0h0s.1,0,.1,0v.46h-.09v.62h-.09v5.01h.18v.46h-.09v.62h-.09v3.42Zm4.28.15v-3.1h-2.11l-2.12,3.1h4.22Zm.72-3.57h-.59v3.67h.59v-3.67Zm3.78,3.67h12.01v-.16h-12.01v.16Zm42.57,0v-.16h-1.62v.16h1.62Zm-15.81-8.02h-.18v-.56h.07v-.12h-.07v-.56h.07v-.1h-.07v-.56h.07v-.42h2.07v.42h.06v.56h-.06v.1h.06v.56h-.06v.12h.06v.56h-.16v.31h-1.86v-.31Zm.98-.68h-.4v.4h.4v-.4Zm.88.28h-.24v.24h.24v-.24Zm0-.68h-.24v.24h.24v-.24Zm0-.66h-.24v.24h.24v-.24Zm-.27-.24h.17v-.26h-.17v.26Zm-.39,0h.17v-.26h-.17v.26Zm-.02.92h.11v-.4h-.11v.4Zm0,.78h.11v-.4h-.11v.4Zm-.19-1.17h-.4v.4h.4v-.4Zm-.18-.53h.17v-.26h-.17v.26Zm-.39,0h.17v-.26h-.17v.26Zm-.39,0h.17v-.26h-.17v.26Zm-.03.47h.24v-.24h-.24v.24Zm0,.66h.24v-.24h-.24v.24Zm.24.68v-.24h-.24v.24h.24Zm-4.12-1.74h.07v-.42h2.07v.42h.06v.56h-.06v.1h.06v.56h-.06v.12h.06v.56h-.16v.31h-1.86v-.31h-.18v-.56h.07v-.12h-.07v-.56h.07v-.1h-.07v-.56Zm1.16,1.23h-.4v.4h.4v-.4Zm.88.28h-.24v.24h.24v-.24Zm0-.68h-.24v.24h.24v-.24Zm0-.66h-.24v.24h.24v-.24Zm-.27-.24h.17v-.26h-.17v.26Zm-.39,0h.17v-.26h-.17v.26Zm-.02.92h.11v-.4h-.11v.4Zm0,.78h.11v-.4h-.11v.4Zm-.19-1.17h-.4v.4h.4v-.4Zm-.18-.53h.17v-.26h-.17v.26Zm-.39,0h.17v-.26h-.17v.26Zm-.39,0h.17v-.26h-.17v.26Zm-.03.47h.24v-.24h-.24v.24Zm0,.66h.24v-.24h-.24v.24Zm0,.68h.24v-.24h-.24v.24Zm3.74,3.42h-.18v-.56h.07v-.12h-.07v-.56h.07v-.1h-.07v-.56h.07v-.42h2.07v.42h.06v.56h-.06v.1h.06v.56h-.06v.12h.06v.56h-.16v.31h-1.86v-.31Zm.98-.68h-.4v.4h.4v-.4Zm.88.28h-.24v.24h.24v-.24Zm0-.68h-.24v.24h.24v-.24Zm0-.66h-.24v.24h.24v-.24Zm-.27-.24h.17v-.26h-.17v.26Zm-.39,0h.17v-.26h-.17v.26Zm-.02.92h.11v-.4h-.11v.4Zm0,.78h.11v-.4h-.11v.4Zm-.19-1.17h-.4v.4h.4v-.4Zm-.18-.53h.17v-.26h-.17v.26Zm-.39,0h.17v-.26h-.17v.26Zm-.39,0h.17v-.26h-.17v.26Zm-.03.47h.24v-.24h-.24v.24Zm0,.66h.24v-.24h-.24v.24Zm.24.68v-.24h-.24v.24h.24Zm-1.98-1.74h.06v.56h-.06v.1h.06v.56h-.06v.12h.06v.56h-.16v.31h-1.86v-.31h-.18v-.56h.07v-.12h-.07v-.56h.07v-.1h-.07v-.56h.07v-.42h2.07v.42Zm-1.16-.07h.17v-.26h-.17v.26Zm-.79,0h.17v-.26h-.17v.26Zm.2,1.58h-.24v.24h.24v-.24Zm0-.68h-.24v.24h.24v-.24Zm0-.66h-.24v.24h.24v-.24Zm.19-.24h.17v-.26h-.17v.26Zm.57,1.3h-.4v.4h.4v-.4Zm0-.78h-.4v.4h.4v-.4Zm.3.78h-.11v.4h.11v-.4Zm0-.78h-.11v.4h.11v-.4Zm.09-.79h-.17v.26h.17v-.26Zm.22.25h.17v-.26h-.17v.26Zm.27,1.59h-.24v.24h.24v-.24Zm0-.68h-.24v.24h.24v-.24Zm0-.66h-.24v.24h.24v-.24Zm-21.53-1.51h-.18v-.56h.07v-.12h-.07v-.56h.07v-.1h-.07v-.56h.07v-.42h2.07v.42h.06v.56h-.06v.1h.06v.56h-.06v.12h.06v.56h-.16v.31h-1.86v-.31Zm.98-.68h-.4v.4h.4v-.4Zm.88.28h-.24v.24h.24v-.24Zm0-.68h-.24v.24h.24v-.24Zm0-.66h-.24v.24h.24v-.24Zm-.27-.24h.17v-.26h-.17v.26Zm-.39,0h.17v-.26h-.17v.26Zm-.02.92h.11v-.4h-.11v.4Zm0,.78h.11v-.4h-.11v.4Zm-.19-1.17h-.4v.4h.4v-.4Zm-.18-.53h.17v-.26h-.17v.26Zm-.39,0h.17v-.26h-.17v.26Zm-.39,0h.17v-.26h-.17v.26Zm-.03.47h.24v-.24h-.24v.24Zm0,.66h.24v-.24h-.24v.24Zm.24.68v-.24h-.24v.24h.24Zm-3.29-1.74h.07v-.42h2.07v.42h.06v.56h-.06v.1h.06v.56h-.06v.12h.06v.56h-.16v.31h-1.86v-.31h-.18v-.56h.07v-.12h-.07v-.56h.07v-.1h-.07v-.56Zm1.16,1.23h-.4v.4h.4v-.4Zm.88.28h-.24v.24h.24v-.24Zm0-.68h-.24v.24h.24v-.24Zm0-.66h-.24v.24h.24v-.24Zm-.27-.24h.17v-.26h-.17v.26Zm-.39,0h.17v-.26h-.17v.26Zm-.02.92h.11v-.4h-.11v.4Zm0,.78h.11v-.4h-.11v.4Zm-.19-1.17h-.4v.4h.4v-.4Zm-.18-.53h.17v-.26h-.17v.26Zm-.39,0h.17v-.26h-.17v.26Zm-.39,0h.17v-.26h-.17v.26Zm-.03.47h.24v-.24h-.24v.24Zm0,.66h.24v-.24h-.24v.24Zm0,.68h.24v-.24h-.24v.24Zm2.91,3.42h-.18v-.56h.07v-.12h-.07v-.56h.07v-.1h-.07v-.56h.07v-.42h2.07v.42h.06v.56h-.06v.1h.06v.56h-.06v.12h.06v.56h-.16v.31h-1.86v-.31Zm.98-.68h-.4v.4h.4v-.4Zm.88.28h-.24v.24h.24v-.24Zm0-.68h-.24v.24h.24v-.24Zm0-.66h-.24v.24h.24v-.24Zm-.27-.24h.17v-.26h-.17v.26Zm-.39,0h.17v-.26h-.17v.26Zm-.02.92h.11v-.4h-.11v.4Zm0,.78h.11v-.4h-.11v.4Zm-.19-1.17h-.4v.4h.4v-.4Zm-.18-.53h.17v-.26h-.17v.26Zm-.39,0h.17v-.26h-.17v.26Zm-.39,0h.17v-.26h-.17v.26Zm-.03.47h.24v-.24h-.24v.24Zm0,.66h.24v-.24h-.24v.24Zm.24.68v-.24h-.24v.24h.24Zm-1.16-1.74h.06v.56h-.06v.1h.06v.56h-.06v.12h.06v.56h-.16v.31h-1.86v-.31h-.18v-.56h.07v-.12h-.07v-.56h.07v-.1h-.07v-.56h.07v-.42h2.07v.42Zm-1.16-.07h.17v-.26h-.17v.26Zm-.79,0h.17v-.26h-.17v.26Zm.2,1.58h-.24v.24h.24v-.24Zm0-.68h-.24v.24h.24v-.24Zm0-.66h-.24v.24h.24v-.24Zm.19-.24h.17v-.26h-.17v.26Zm.57,1.3h-.4v.4h.4v-.4Zm0-.78h-.4v.4h.4v-.4Zm.3.78h-.11v.4h.11v-.4Zm0-.78h-.11v.4h.11v-.4Zm.09-.79h-.17v.26h.17v-.26Zm.22.25h.17v-.26h-.17v.26Zm.27,1.59h-.24v.24h.24v-.24Zm0-.68h-.24v.24h.24v-.24Zm0-.66h-.24v.24h.24v-.24Zm6.6-1.51h-.18v-.56h.07v-.12h-.07v-.56h.07v-.1h-.07v-.56h.07v-.42h2.07v.42h.06v.56h-.06v.1h.06v.56h-.06v.12h.06v.56h-.16v.31h-1.86v-.31Zm.98-.68h-.4v.4h.4v-.4Zm.88.28h-.24v.24h.24v-.24Zm0-.68h-.24v.24h.24v-.24Zm0-.66h-.24v.24h.24v-.24Zm-.27-.24h.17v-.26h-.17v.26Zm-.39,0h.17v-.26h-.17v.26Zm-.02.92h.11v-.4h-.11v.4Zm0,.78h.11v-.4h-.11v.4Zm-.19-1.17h-.4v.4h.4v-.4Zm-.18-.53h.17v-.26h-.17v.26Zm-.39,0h.17v-.26h-.17v.26Zm-.39,0h.17v-.26h-.17v.26Zm-.03.47h.24v-.24h-.24v.24Zm0,.66h.24v-.24h-.24v.24Zm.24.68v-.24h-.24v.24h.24Zm-3.14.16h-.18v-.56h.07v-.12h-.07v-.56h.07v-.1h-.07v-.56h.07v-.42h2.07v.42h.06v.56h-.06v.1h.06v.56h-.06v.12h.06v.56h-.16v.31h-1.86v-.31Zm.98-.68h-.4v.4h.4v-.4Zm.88.28h-.24v.24h.24v-.24Zm0-.68h-.24v.24h.24v-.24Zm0-.66h-.24v.24h.24v-.24Zm-.27-.24h.17v-.26h-.17v.26Zm-.39,0h.17v-.26h-.17v.26Zm-.02.92h.11v-.4h-.11v.4Zm0,.78h.11v-.4h-.11v.4Zm-.19-1.17h-.4v.4h.4v-.4Zm-.18-.53h.17v-.26h-.17v.26Zm-.39,0h.17v-.26h-.17v.26Zm-.39,0h.17v-.26h-.17v.26Zm-.03.47h.24v-.24h-.24v.24Zm0,.66h.24v-.24h-.24v.24Zm.24.68v-.24h-.24v.24h.24Zm2.71,3.42h-.18v-.56h.07v-.12h-.07v-.56h.07v-.1h-.07v-.56h.07v-.42h2.07v.42h.06v.56h-.06v.1h.06v.56h-.06v.12h.06v.56h-.16v.31h-1.86v-.31Zm.98-.68h-.4v.4h.4v-.4Zm.88.28h-.24v.24h.24v-.24Zm0-.68h-.24v.24h.24v-.24Zm0-.66h-.24v.24h.24v-.24Zm-.27-.24h.17v-.26h-.17v.26Zm-.39,0h.17v-.26h-.17v.26Zm-.02.92h.11v-.4h-.11v.4Zm0,.78h.11v-.4h-.11v.4Zm-.19-1.17h-.4v.4h.4v-.4Zm-.18-.53h.17v-.26h-.17v.26Zm-.39,0h.17v-.26h-.17v.26Zm-.39,0h.17v-.26h-.17v.26Zm-.03.47h.24v-.24h-.24v.24Zm0,.66h.24v-.24h-.24v.24Zm.24.68v-.24h-.24v.24h.24Zm-3.14.16h-.18v-.56h.07v-.12h-.07v-.56h.07v-.1h-.07v-.56h.07v-.42h2.07v.42h.06v.56h-.06v.1h.06v.56h-.06v.12h.06v.56h-.16v.31h-1.86v-.31Zm.98-.68h-.4v.4h.4v-.4Zm.88.28h-.24v.24h.24v-.24Zm0-.68h-.24v.24h.24v-.24Zm0-.66h-.24v.24h.24v-.24Zm-.27-.24h.17v-.26h-.17v.26Zm-.39,0h.17v-.26h-.17v.26Zm-.02.92h.11v-.4h-.11v.4Zm0,.78h.11v-.4h-.11v.4Zm-.19-1.17h-.4v.4h.4v-.4Zm-.18-.53h.17v-.26h-.17v.26Zm-.39,0h.17v-.26h-.17v.26Zm-.39,0h.17v-.26h-.17v.26Zm-.03.47h.24v-.24h-.24v.24Zm0,.66h.24v-.24h-.24v.24Zm.24.68v-.24h-.24v.24h.24Zm9.34-3.09h-.18v-.56h.07v-.12h-.07v-.56h.07v-.1h-.07v-.56h.07v-.42h2.07v.42h.06v.56h-.06v.1h.06v.56h-.06v.12h.06v.56h-.16v.31h-1.86v-.31Zm.98-.68h-.4v.4h.4v-.4Zm.88.28h-.24v.24h.24v-.24Zm0-.68h-.24v.24h.24v-.24Zm0-.66h-.24v.24h.24v-.24Zm-.27-.24h.17v-.26h-.17v.26Zm-.39,0h.17v-.26h-.17v.26Zm-.02.92h.11v-.4h-.11v.4Zm0,.78h.11v-.4h-.11v.4Zm-.19-1.17h-.4v.4h.4v-.4Zm-.18-.53h.17v-.26h-.17v.26Zm-.39,0h.17v-.26h-.17v.26Zm-.39,0h.17v-.26h-.17v.26Zm-.03.47h.24v-.24h-.24v.24Zm0,.66h.24v-.24h-.24v.24Zm.24.68v-.24h-.24v.24h.24Zm-3.32-1.74h.07v-.42h2.07v.42h.06v.56h-.06v.1h.06v.56h-.06v.12h.06v.56h-.16v.31h-1.86v-.31h-.18v-.56h.07v-.12h-.07v-.56h.07v-.1h-.07v-.56Zm1.16,1.23h-.4v.4h.4v-.4Zm.88.28h-.24v.24h.24v-.24Zm0-.68h-.24v.24h.24v-.24Zm0-.66h-.24v.24h.24v-.24Zm-.27-.24h.17v-.26h-.17v.26Zm-.39,0h.17v-.26h-.17v.26Zm-.02.92h.11v-.4h-.11v.4Zm0,.78h.11v-.4h-.11v.4Zm-.19-1.17h-.4v.4h.4v-.4Zm-.18-.53h.17v-.26h-.17v.26Zm-.39,0h.17v-.26h-.17v.26Zm-.39,0h.17v-.26h-.17v.26Zm-.03.47h.24v-.24h-.24v.24Zm0,.66h.24v-.24h-.24v.24Zm0,.68h.24v-.24h-.24v.24Zm2.94,3.42h-.18v-.56h.07v-.12h-.07v-.56h.07v-.1h-.07v-.56h.07v-.42h2.07v.42h.06v.56h-.06v.1h.06v.56h-.06v.12h.06v.56h-.16v.31h-1.86v-.31Zm.98-.68h-.4v.4h.4v-.4Zm.88.28h-.24v.24h.24v-.24Zm0-.68h-.24v.24h.24v-.24Zm0-.66h-.24v.24h.24v-.24Zm-.27-.24h.17v-.26h-.17v.26Zm-.39,0h.17v-.26h-.17v.26Zm-.02.92h.11v-.4h-.11v.4Zm0,.78h.11v-.4h-.11v.4Zm-.19-1.17h-.4v.4h.4v-.4Zm-.18-.53h.17v-.26h-.17v.26Zm-.39,0h.17v-.26h-.17v.26Zm-.39,0h.17v-.26h-.17v.26Zm-.03.47h.24v-.24h-.24v.24Zm0,.66h.24v-.24h-.24v.24Zm.24.68v-.24h-.24v.24h.24Zm-1.19-1.74h.06v.56h-.06v.1h.06v.56h-.06v.12h.06v.56h-.16v.31h-1.86v-.31h-.18v-.56h.07v-.12h-.07v-.56h.07v-.1h-.07v-.56h.07v-.42h2.07v.42Zm-1.16-.07h.17v-.26h-.17v.26Zm-.79,0h.17v-.26h-.17v.26Zm.2,1.58h-.24v.24h.24v-.24Zm0-.68h-.24v.24h.24v-.24Zm0-.66h-.24v.24h.24v-.24Zm.19-.24h.17v-.26h-.17v.26Zm.57,1.3h-.4v.4h.4v-.4Zm0-.78h-.4v.4h.4v-.4Zm.3.78h-.11v.4h.11v-.4Zm0-.78h-.11v.4h.11v-.4Zm.09-.79h-.17v.26h.17v-.26Zm.22.25h.17v-.26h-.17v.26Zm.27,1.59h-.24v.24h.24v-.24Zm0-.68h-.24v.24h.24v-.24Zm0-.66h-.24v.24h.24v-.24Zm24.11,2.06h-.18v-.59h.07v-.19h-.07v-.65h.07v-.11h-.07v-.53h.07v-.66h2.07v.66h.06v.53h-.06v.11h.06v.65h-.06v.19h.06v.59h-.16v.3h-1.86v-.3Zm1.62.01h-1.46v.09h1.46v-.09Zm-.64-.3v-.4h-.4v.4h.4Zm.88-.16h-.24v.26h.24v-.26Zm0-.8h-.24v.26h.24v-.26Zm0-.62h-.24v.21h.24v-.21Zm-.27-.3h.17v-.38h-.17v.38Zm-.39,0h.17v-.38h-.17v.38Zm-.02.99h.11v-.4h-.11v.4Zm0,.88h.11v-.4h-.11v.4Zm-.19-1.28h-.4v.4h.4v-.4Zm-.18-.59h.17v-.38h-.17v.38Zm-.39,0h.17v-.38h-.17v.38Zm-.39,0h.17v-.38h-.17v.38Zm-.03.5h.24v-.21h-.24v.21Zm0,.67h.24v-.26h-.24v.26Zm.24.8v-.26h-.24v.26h.24Zm-47.01-15.68h3.01v1.07h-3.01v-1.07Zm.16.91h.13v-.6h-.13v.6Zm2.69-.6h-2.39v.6h2.39v-.6Zm-2.21-1.95c0-.48.39-.87.87-.87s.87.39.87.87-.39.87-.87.87-.87-.39-.87-.87Zm.16,0c0,.39.32.71.71.71s.71-.32.71-.71-.32-.71-.71-.71-.71.32-.71.71Zm.49,6.35c0,.15.12.27.27.27s.27-.12.27-.27-.12-.27-.27-.27-.27.12-.27.27Z"></path></svg> 