<?xml version="1.0" encoding="UTF-8"?> <svg xmlns="http://www.w3.org/2000/svg" id="Layer_2" width="100" height="16.1" viewBox="0 0 100 16.1"><defs><style>.cls-1{fill:#fff;stroke-width:0px;}</style></defs><path class="cls-1" d="m28.7,3.15c.39,0,.77.04,1.13.11.36.07.68.2.95.38.27.18.49.41.66.71.17.29.25.66.25,1.09,0,.24-.04.48-.12.71-.08.23-.19.44-.33.63-.14.19-.31.35-.51.48-.2.13-.42.22-.66.27v.03c.6.08,1.08.32,1.44.74.36.41.54.93.54,1.54,0,.15-.01.32-.04.5-.03.19-.08.38-.16.58s-.19.39-.34.58c-.15.19-.35.36-.59.5-.25.14-.55.26-.91.35-.36.09-.8.14-1.3.14h-3.95V3.15h3.95Zm0,4.09c.36,0,.67-.04.93-.12.26-.08.48-.2.65-.34.17-.14.3-.31.39-.5.09-.19.13-.4.13-.61,0-1.17-.7-1.75-2.1-1.75h-3.06v3.33h3.06Zm0,4.48c.33,0,.64-.03.94-.08.3-.06.56-.16.78-.31.23-.15.41-.35.54-.59.13-.25.2-.56.2-.93,0-.6-.21-1.05-.63-1.35-.42-.3-1.03-.45-1.82-.45h-3.06v3.73h3.06Z"></path><path class="cls-1" d="m33.21,6.79c.14-.29.33-.52.57-.71.24-.18.52-.32.84-.41.32-.09.68-.13,1.07-.13.3,0,.59.03.89.08.3.06.56.16.8.32.24.16.43.38.58.66.15.28.22.65.22,1.1v3.58c0,.33.16.5.48.5.1,0,.18-.02.26-.05v.69c-.1.02-.18.03-.25.04-.07,0-.17.01-.28.01-.21,0-.38-.03-.5-.08-.13-.06-.22-.14-.29-.24-.07-.1-.12-.23-.14-.37-.02-.14-.03-.3-.03-.48h-.03c-.15.22-.3.41-.45.58-.15.17-.32.31-.51.42-.19.11-.4.2-.64.26-.24.06-.53.09-.86.09-.31,0-.61-.04-.88-.11-.27-.07-.51-.19-.72-.35-.2-.16-.37-.37-.48-.61-.12-.25-.18-.54-.18-.88,0-.47.1-.84.31-1.1.21-.27.49-.47.83-.61.34-.14.73-.24,1.16-.29.43-.06.87-.11,1.31-.16.17-.02.33-.04.46-.07.13-.03.24-.07.33-.14.09-.07.15-.15.2-.27.05-.11.07-.26.07-.44,0-.28-.05-.51-.14-.69-.09-.18-.22-.32-.38-.42-.16-.1-.35-.18-.56-.22-.21-.04-.44-.06-.69-.06-.52,0-.95.12-1.28.37-.33.25-.51.65-.52,1.2h-.82c.03-.39.11-.73.25-1.02Zm4.12,2.01c-.05.1-.15.17-.3.21-.15.04-.28.07-.39.09-.35.06-.71.12-1.08.16-.37.05-.71.12-1.01.22-.31.1-.56.23-.75.41-.2.18-.29.43-.29.76,0,.21.04.39.12.56.08.16.19.3.33.42.14.12.3.21.48.27.18.06.37.09.56.09.31,0,.61-.05.9-.14.29-.1.54-.24.75-.42.21-.18.38-.41.51-.67.13-.26.19-.56.19-.89v-1.07h-.03Z"></path><path class="cls-1" d="m40.63,5.74v1.16h.03c.16-.41.44-.74.84-.99.4-.25.84-.37,1.32-.37s.86.06,1.18.18c.32.12.57.29.76.52.19.22.33.49.41.82.08.32.12.68.12,1.08v4.34h-.82v-4.21c0-.29-.03-.56-.08-.8-.05-.25-.14-.46-.27-.65s-.31-.33-.53-.43c-.22-.1-.5-.16-.83-.16s-.63.06-.88.18c-.26.12-.48.28-.65.48-.18.2-.32.45-.42.73-.1.28-.15.59-.16.92v3.93h-.82v-6.74h.82Z"></path><path class="cls-1" d="m47.4,3.15v5.86l3.74-3.27h1.1l-2.88,2.5,3.07,4.25h-1.03l-2.67-3.67-1.33,1.11v2.56h-.82V3.15h.82Z"></path><path class="cls-1" d="m53.83,3.15v1.32h-.82v-1.32h.82Zm0,2.59v6.74h-.82v-6.74h.82Z"></path><path class="cls-1" d="m56.13,5.74v1.16h.03c.16-.41.44-.74.84-.99.4-.25.84-.37,1.32-.37s.86.06,1.18.18c.32.12.57.29.76.52.19.22.33.49.41.82.08.32.12.68.12,1.08v4.34h-.82v-4.21c0-.29-.03-.56-.08-.8-.05-.25-.14-.46-.27-.65s-.31-.33-.53-.43c-.22-.1-.5-.16-.83-.16s-.63.06-.88.18c-.26.12-.48.28-.65.48-.18.2-.32.45-.42.73-.1.28-.15.59-.16.92v3.93h-.82v-6.74h.82Z"></path><path class="cls-1" d="m67.58,13.28c-.11.4-.28.74-.52,1.02-.24.28-.54.49-.92.64-.38.15-.84.22-1.39.22-.34,0-.67-.04-.99-.12-.32-.08-.61-.2-.87-.37-.26-.17-.47-.38-.64-.63-.17-.26-.27-.56-.29-.92h.82c.04.25.13.46.25.63.13.17.28.31.46.41.18.1.38.18.59.23.22.05.44.07.67.07.77,0,1.32-.22,1.66-.65.34-.44.51-1.06.51-1.88v-.91h-.03c-.19.42-.47.75-.84,1.01-.37.25-.8.38-1.3.38-.54,0-1-.09-1.39-.27-.38-.18-.7-.42-.95-.74s-.43-.68-.54-1.1c-.11-.42-.17-.87-.17-1.35s.07-.9.2-1.31c.13-.41.33-.78.59-1.08.26-.31.58-.55.95-.73.38-.18.81-.27,1.3-.27.25,0,.49.03.71.1.22.07.42.17.61.29.18.13.35.27.49.44.14.17.25.34.33.52h.03v-1.16h.82v6.2c0,.5-.05.95-.16,1.35Zm-1.89-1.8c.27-.15.5-.35.68-.6s.32-.53.41-.86c.09-.32.14-.65.14-.99s-.04-.66-.12-.99c-.08-.33-.2-.63-.38-.9-.17-.27-.4-.49-.67-.65-.27-.17-.61-.25-1-.25s-.73.08-1.01.24c-.28.16-.51.37-.69.63-.18.26-.32.56-.4.9-.08.34-.12.68-.12,1.03s.04.67.13.99c.09.32.22.61.41.86s.41.45.69.6c.28.15.61.23.99.23.36,0,.67-.08.94-.23Z"></path><path class="cls-1" d="m73.61,3.15c.38,0,.75.05,1.09.14.34.1.64.24.9.44.26.2.46.45.61.76.15.31.23.67.23,1.09,0,.59-.15,1.11-.46,1.54-.31.44-.76.71-1.36.84v.03c.3.04.56.12.76.24.2.12.36.27.49.45.13.18.22.39.27.63.06.24.09.5.11.78,0,.16.02.35.03.58,0,.23.03.46.05.69.03.23.07.45.12.65.06.2.13.36.23.48h-.98c-.05-.09-.09-.19-.12-.32-.03-.13-.05-.26-.07-.39-.01-.13-.02-.27-.03-.4,0-.13-.02-.24-.03-.34-.02-.33-.05-.66-.08-.99s-.12-.62-.25-.88c-.13-.26-.31-.46-.55-.62-.24-.16-.57-.23-.99-.21h-3.37v4.14h-.89V3.15h4.27Zm-.07,4.43c.27,0,.53-.04.77-.12.24-.08.46-.2.64-.36s.33-.35.44-.57c.11-.22.16-.48.16-.76,0-.58-.17-1.03-.5-1.36-.33-.33-.84-.5-1.52-.5h-3.32v3.67h3.32Z"></path><path class="cls-1" d="m77.84,6.79c.14-.29.33-.52.57-.71.24-.18.52-.32.84-.41.32-.09.68-.13,1.07-.13.3,0,.59.03.89.08.3.06.56.16.8.32s.43.38.58.66c.15.28.22.65.22,1.1v3.58c0,.33.16.5.48.5.1,0,.18-.02.26-.05v.69c-.1.02-.18.03-.25.04-.07,0-.17.01-.28.01-.21,0-.38-.03-.5-.08-.13-.06-.22-.14-.29-.24-.07-.1-.12-.23-.14-.37-.02-.14-.03-.3-.03-.48h-.03c-.15.22-.3.41-.45.58-.15.17-.32.31-.51.42-.19.11-.4.2-.64.26-.24.06-.53.09-.86.09-.31,0-.61-.04-.88-.11-.27-.07-.51-.19-.72-.35-.2-.16-.37-.37-.48-.61-.12-.25-.18-.54-.18-.88,0-.47.1-.84.31-1.1.21-.27.49-.47.83-.61.34-.14.73-.24,1.16-.29.43-.06.87-.11,1.31-.16.17-.02.33-.04.46-.07.13-.03.24-.07.33-.14.09-.07.15-.15.2-.27.05-.11.07-.26.07-.44,0-.28-.05-.51-.14-.69-.09-.18-.22-.32-.38-.42-.16-.1-.35-.18-.56-.22-.21-.04-.44-.06-.69-.06-.52,0-.95.12-1.28.37-.33.25-.51.65-.52,1.2h-.82c.03-.39.11-.73.25-1.02Zm4.12,2.01c-.05.1-.15.17-.3.21-.15.04-.28.07-.39.09-.35.06-.71.12-1.08.16-.37.05-.71.12-1.01.22-.31.1-.56.23-.75.41-.2.18-.29.43-.29.76,0,.21.04.39.12.56.08.16.19.3.33.42.14.12.3.21.48.27.18.06.37.09.56.09.31,0,.61-.05.9-.14.29-.1.54-.24.75-.42.21-.18.38-.41.51-.67.13-.26.19-.56.19-.89v-1.07h-.03Z"></path><path class="cls-1" d="m87.14,5.74v.69h-1.37v4.55c0,.27.04.48.11.63.07.15.26.24.56.25.24,0,.47-.01.71-.04v.69c-.12,0-.24,0-.37.01-.12,0-.24.01-.37.01-.55,0-.93-.11-1.15-.32-.22-.21-.32-.61-.31-1.18v-4.61h-1.18v-.69h1.18v-2.03h.82v2.03h1.37Z"></path><path class="cls-1" d="m88.73,10.26c.08.32.22.6.4.86.18.25.41.46.69.63.28.17.61.25,1.01.25.6,0,1.07-.16,1.41-.47s.58-.73.71-1.25h.82c-.17.77-.49,1.36-.96,1.78-.47.42-1.13.63-1.98.63-.53,0-.99-.09-1.38-.28-.39-.19-.7-.44-.95-.77-.24-.33-.42-.71-.54-1.14s-.18-.89-.18-1.37c0-.44.06-.88.18-1.31.12-.43.3-.81.54-1.14.24-.34.56-.61.95-.81.39-.2.85-.31,1.38-.31s1,.11,1.39.33c.38.22.69.5.93.86.24.35.41.76.52,1.22.1.46.15.92.13,1.39h-5.19c0,.3.04.6.12.92Zm4.08-2.52c-.1-.29-.24-.54-.42-.76s-.41-.4-.67-.54c-.26-.13-.56-.2-.89-.2s-.64.07-.9.2c-.26.14-.48.31-.67.54s-.33.48-.44.77c-.11.29-.18.59-.22.9h4.37c0-.31-.06-.61-.16-.9Z"></path><path class="cls-1" d="m98.78,7.05c-.1-.19-.22-.34-.39-.46-.16-.12-.35-.21-.56-.27-.21-.06-.43-.08-.67-.08-.18,0-.37.02-.56.06-.19.04-.36.1-.52.2-.16.09-.28.21-.38.36-.1.15-.14.33-.14.55,0,.18.05.34.14.46.09.13.21.23.35.32.14.09.29.16.46.22.17.06.32.1.46.14l1.1.25c.24.03.47.1.7.19.23.09.44.21.61.36.18.15.32.33.44.55.11.22.17.48.17.77,0,.37-.08.68-.25.93-.17.26-.38.47-.63.63-.26.16-.55.28-.87.35-.32.07-.64.1-.95.1-.79,0-1.44-.19-1.93-.56-.49-.37-.77-.98-.84-1.8h.82c.03.56.24.98.61,1.26.37.28.83.42,1.38.42.2,0,.41-.02.62-.07.21-.04.41-.12.59-.22s.33-.24.45-.4c.12-.16.18-.36.18-.59,0-.2-.04-.37-.12-.5-.08-.14-.19-.25-.33-.34-.14-.09-.3-.17-.48-.23-.18-.06-.36-.11-.54-.16l-1.06-.24c-.27-.07-.52-.15-.75-.24-.23-.09-.42-.2-.59-.34-.17-.13-.3-.3-.4-.5-.1-.2-.14-.44-.14-.73,0-.34.08-.63.23-.88.15-.24.35-.44.59-.59.24-.15.52-.26.82-.33.3-.07.6-.1.9-.1.34,0,.66.04.95.13.29.09.55.22.77.41.22.18.4.41.53.68.13.27.2.59.22.95h-.82c0-.25-.06-.47-.16-.66Z"></path><path class="cls-1" d="m18.77,4.97c-.28-.39-.65-.7-1.08-.93-.44-.24-.97-.35-1.59-.35s-1.15.12-1.59.35c-.44.24-.81.55-1.09.93-.28.39-.49.83-.63,1.31-.14.49-.2.99-.2,1.5s.07,1,.2,1.5c.13.49.34.93.63,1.32.28.39.65.7,1.09.93.44.24.98.35,1.59.35s1.15-.12,1.59-.35c.44-.24.8-.55,1.08-.93.28-.39.49-.83.63-1.32.14-.49.2-.99.2-1.5s-.07-1.02-.2-1.5c-.14-.49-.34-.93-.63-1.31Z"></path><path class="cls-1" d="m0,0v16.1h22.75V0H0Zm10.63,12.46h-.64l-.12-1.7h-.03c-.16.33-.35.62-.58.86-.23.24-.49.44-.76.59-.28.15-.58.26-.9.33-.32.07-.65.1-.99.1-.73,0-1.37-.13-1.93-.4-.55-.27-1.01-.62-1.38-1.07-.37-.44-.64-.96-.82-1.54-.18-.58-.27-1.2-.27-1.84s.09-1.26.27-1.84c.18-.58.46-1.1.82-1.55.37-.45.83-.81,1.38-1.07.55-.27,1.2-.4,1.93-.4.49,0,.95.07,1.39.2.44.13.82.33,1.16.59.34.26.63.58.86.97.24.38.4.83.48,1.35h-.89c-.03-.27-.12-.54-.27-.82-.15-.27-.36-.52-.61-.75-.26-.23-.56-.41-.92-.56-.36-.14-.76-.22-1.2-.22-.62,0-1.15.12-1.59.35s-.81.55-1.09.93c-.28.39-.49.83-.63,1.31-.14.49-.2.99-.2,1.5s.07,1,.2,1.5c.14.49.34.93.63,1.32.28.39.65.7,1.09.93s.98.35,1.59.35c.51,0,.97-.08,1.38-.25.41-.17.75-.41,1.03-.71.28-.3.49-.67.63-1.08.14-.42.2-.88.2-1.37h-3.18v-.76h3.96v4.74Zm9.58-2.82c-.18.58-.46,1.1-.82,1.54-.37.44-.82.8-1.37,1.07-.55.27-1.19.4-1.92.4s-1.37-.13-1.93-.4c-.55-.27-1.01-.62-1.38-1.07-.37-.44-.64-.96-.82-1.54-.18-.58-.27-1.2-.27-1.84s.09-1.26.27-1.84c.18-.58.46-1.1.82-1.55.37-.45.83-.81,1.38-1.07.55-.27,1.2-.4,1.93-.4s1.37.13,1.92.4c.55.27,1.01.62,1.37,1.07.37.45.64.97.82,1.55.18.58.27,1.2.27,1.84s-.09,1.26-.27,1.84Z"></path></svg> 