<?xml version="1.0" encoding="UTF-8"?> <svg xmlns="http://www.w3.org/2000/svg" id="Layer_2" width="100" height="100.03" viewBox="0 0 100 100.03"><defs><style>.cls-1{fill:#fff;}.cls-2{fill:#53dd6c;}</style></defs><rect class="cls-2" width="100" height="100.03"></rect><path class="cls-1" d="m11.4,44.49c-.1,0-.19-.1-.19-.19v-8.34s0-8.34,0-8.34c0-.1.09-.19.19-.19h10.95c.1,0,.19.1.19.19v3.01c0,.1-.1.19-.19.19h-7.3l-.05,3.48h6.45c.1,0,.19.1.19.19v2.92c0,.1-.1.19-.19.19h-6.45l.05,6.68c0,.1-.1.19-.19.19h-3.46Zm13.49,0c-.1,0-.19-.1-.19-.19l.05-6.07-.05-6.09c0-.1.1-.19.19-.19h3.25c.1,0,.19.1.19.19l-.05,6.09.05,6.07c0,.1-.1.19-.19.19h-3.25Zm17.85-4.24c.1,0,.19.1.17.19-.29,2.32-2.44,4.36-5.9,4.36-4.11,0-6.33-2.75-6.33-6.56,0-4,2.34-6.63,6.26-6.63s6.29,2.75,6.36,7.14c0,.1-.1.19-.19.19h-8.82c.14,2.36,1.74,2.79,2.77,2.79s2.08.06,2.39-1.3c.02-.12.14-.19.24-.19h3.06Zm-5.78-5.89c-1.47,0-2.29.55-2.58,2.28h5.04c-.14-1.34-.99-2.28-2.46-2.28Zm41.09,5.89c.1,0,.19.1.17.19-.29,2.32-2.44,4.36-5.9,4.36-4.11,0-6.33-2.75-6.33-6.56,0-4,2.34-6.63,6.26-6.63s6.29,2.75,6.36,7.14c0,.1-.1.19-.19.19h-8.82c.14,2.36,1.74,2.79,2.77,2.79s2.08.06,2.39-1.3c.02-.12.14-.19.24-.19h3.06Zm-5.78-5.89c-1.47,0-2.29.55-2.58,2.28h5.04c-.14-1.34-.99-2.28-2.46-2.28Zm-18.78,10.13c-.1,0-.19-.1-.19-.19l.07-1.27c-.86,1.07-1.79,1.71-3.35,1.71-3.49,0-5.33-2.83-5.33-6.48s1.24-6.56,5.4-6.56c1.51,0,2.39.54,3.23,1.54v-5.61c0-.1.1-.19.19-.19h3.49c.1,0,.19.1.19.19l-.02,8.34.02,8.34c0,.1-.1.19-.19.19h-3.51Zm-2.28-3.08c1.61,0,2.21-1.18,2.23-3.52.02-2.39-.58-3.26-2.17-3.28-1.68-.03-2.54.76-2.54,3.06,0,2.49.88,3.76,2.48,3.74Zm8.86,3.08c-.11,0-.21-.1-.21-.19l.08-8.34-.08-8.34c0-.1.11-.19.21-.19h3.53c.11,0,.21.1.21.19l-.08,8.34.08,8.34c0,.1-.11.19-.21.19h-3.53Zm20.56,0c-.1,0-.19-.1-.19-.19l.07-6.09-.07-6.07c0-.1.1-.19.19-.19h3.43c.1,0,.19.1.19.19l-.1,1.93c.71-1.64,1.67-2.54,3.46-2.54.19,0,.41.02.57.05.1.02.19.15.19.24v3.01c0,.1-.1.17-.19.17-.14-.02-.33-.02-.48-.02-2.53,0-3.46,1.07-3.46,3.95v5.39c0,.1-.1.19-.19.19h-3.43Zm-61.9,27.57c-5.14,0-8.32-3.56-8.32-8.65s3.25-8.8,8.29-8.8c3.61,0,6.55,1.48,7.48,5.98.02.1-.05.19-.14.19h-3.18c-.1,0-.22-.07-.24-.19-.45-2.03-1.79-3.18-3.97-3.18-2.92,0-4.49,2.25-4.49,5.98s1.63,5.88,4.47,5.88c2.34,0,3.61-1.27,4.06-3.56,0-.12.12-.19.22-.19h3.25c.1,0,.17.1.14.19-.91,4.59-3.63,6.36-7.58,6.36Zm29.85-.12c-1.44,0-2.59-.53-3.4-1.51l.05,5.95c0,.1-.09.19-.19.19h-3.15c-.09,0-.19-.1-.19-.19l.05-9.68-.05-7.12c0-.1.09-.19.19-.19h3.13c.09,0,.19.1.19.19l-.07,1.24c.83-1.05,2.01-1.67,3.52-1.67,3.38,0,5.16,2.77,5.16,6.36s-1.99,6.43-5.23,6.43Zm-.97-2.41c1.76,0,2.66-1.31,2.66-3.82,0-2.72-.9-4.11-2.59-4.11s-2.59,1.32-2.62,3.87c-.02,2.61.88,4.06,2.55,4.06Zm8.43,2.18c-.1,0-.19-.1-.19-.19l.05-5.95-.05-5.98c0-.1.1-.19.19-.19h3.25c.1,0,.19.1.19.19l-.05,5.98.05,5.95c0,.1-.1.19-.19.19h-3.25Zm12.26.1s-.83.14-1.25.14c-2.08,0-4.06-1.05-4.06-3.85l.02-6.17h-1.41c-.1,0-.19-.1-.19-.19v-2.15c0-.1.1-.19.19-.19h1.41l-.02-2.89c0-.1.1-.19.19-.19h2.6c.1,0,.19.1.19.19l-.02,2.89h2.25c.1,0,.19.1.19.19v2.15c0,.1-.1.19-.19.19h-2.25l.02,6.07c0,1.05,1.13,1.39,1.92,1.39.14,0,.39-.01.39-.01l.02,2.43Zm12.88-3.3c0,1.19.1,2.92.17,3.2h-3.27c-.1-.24-.17-.91-.17-1.22-.45.69-1.29,1.51-3.49,1.51-2.99,0-4.23-1.96-4.23-3.87,0-2.82,2.25-4.14,5.88-4.14h1.77v-.74c0-.89-.31-1.75-1.91-1.75-1.43,0-1.77.6-1.91,1.51h-3.25c.17-2.2,1.53-3.97,5.31-3.97,3.3.02,5.12,1.31,5.12,4.28v5.19Zm-3.35-2.18h-1.39c-2.08,0-3.05.87-3.05,2.07,0,.89.76,1.68,2,1.68,2.17,0,2.44-1.79,2.44-3.41v-.33Zm-39.04,2.18c0,1.19.1,2.92.17,3.2h-3.27c-.1-.24-.17-.91-.17-1.22-.45.69-1.29,1.51-3.49,1.51-2.99,0-4.23-1.96-4.23-3.87,0-2.82,2.25-4.14,5.88-4.14h1.77v-.74c0-.89-.31-1.75-1.91-1.75-1.43,0-1.77.6-1.91,1.51h-3.25c.17-2.2,1.53-3.97,5.31-3.97,3.3.02,5.12,1.31,5.12,4.28v5.19Zm-3.35-2.18h-1.39c-2.08,0-3.05.87-3.05,2.07,0,.89.76,1.68,2,1.68,2.17,0,2.44-1.79,2.44-3.41v-.33Zm48.96,5.38c-.1,0-.19-.1-.19-.19l.07-8.17-.07-8.17c0-.1.1-.19.19-.19h3.15c.1,0,.19.1.19.19l-.07,8.17.07,8.17c0,.1-.1.19-.19.19h-3.15Zm-26.74-13.99c.96,0,1.74-.78,1.74-1.74s-.78-1.74-1.74-1.74-1.74.78-1.74,1.74.78,1.74,1.74,1.74Zm-31.15-27.34c1.11,0,2.01-.9,2.01-2.01s-.9-2.01-2.01-2.01-2.01.9-2.01,2.01.9,2.01,2.01,2.01Z"></path></svg> 