<?xml version="1.0" encoding="UTF-8"?> <svg xmlns="http://www.w3.org/2000/svg" id="Layer_1" width="100" height="55.68" viewBox="0 0 100 55.68"><defs><style>.cls-1,.cls-2,.cls-3{stroke-width:0px;}.cls-2{fill:#a41034;}.cls-3{fill:#fff;}</style></defs><path class="cls-3" d="m.54,13.47c0,11.65,6.17,20.45,14.84,25.96,8.67-5.51,14.84-14.31,14.84-25.96H.54Z"></path><rect class="cls-2" x=".54" y="4.19" width="29.69" height="9.25"></rect><path class="cls-3" d="m28.41,9.88h-.4v-2.21h.4c.18,0,.32-.14.32-.32s-.14-.32-.32-.32h-.4v-.95h-2.7c-.46,0-.85.3-.96.72h-.02c-.11-.42-.5-.72-.96-.72h-2.74v.95h-.4c-.18,0-.32.14-.32.32s.14.32.32.32h.4v2.21h-.4c-.18,0-.32.14-.32.32s.14.32.32.32h.4v1.03h3.38c.07.11.2.19.35.19s.27-.08.35-.19h3.3v-1.03h.4c.18,0,.32-.14.32-.32,0-.18-.14-.32-.32-.32"></path><path class="cls-3" d="m9.99,9.88h-.4v-2.21h.4c.18,0,.32-.14.32-.32s-.14-.32-.32-.32h-.4v-.95h-2.45c-.55,0-.99.44-.99.99,0-.55-.44-.99-.99-.99h-2.45v.95h-.4c-.18,0-.32.14-.32.32s.14.32.32.32h.4v2.21h-.4c-.18,0-.32.14-.32.32s.14.32.32.32h.4v1.03h3.09c.07.11.2.19.35.19s.27-.08.35-.19h3.09v-1.03h.4c.18,0,.32-.14.32-.32,0-.18-.14-.32-.32-.32"></path><path class="cls-3" d="m18.9,9.88h-.4v-2.21h.4c.18,0,.32-.14.32-.32s-.14-.32-.32-.32h-.4v-.95h-2.13c-.55,0-.99.44-.99.99,0-.55-.44-.99-.99-.99h-2.68v.95h-.4c-.18,0-.32.14-.32.32s.14.32.32.32h.4v2.21h-.4c-.18,0-.32.14-.32.32s.14.32.32.32h.4v1.03h3.32c.07.11.2.19.35.19s.27-.08.35-.19h2.77v-1.03h.4c.18,0,.32-.14.32-.32s-.14-.32-.32-.32"></path><path class="cls-1" d="m24.64,29.93c-.35-.3-.57-.74-.57-1.24,0-.4.14-.76.37-1.04-.28.23-.65.37-1.05.37-.91,0-1.64-.73-1.64-1.64,0-.4.18-.81.37-1.04-.22.21-.58.37-.99.37-.85,0-1.57-.73-1.57-1.56s.72-1.56,1.57-1.56c.41,0,.77.17.99.37-.19-.24-.37-.65-.37-1.04,0-.91.73-1.64,1.64-1.64.4,0,.77.14,1.05.37-.23-.28-.37-.65-.37-1.04,0-.91.73-1.64,1.64-1.64.4,0,.77.14,1.05.37-.19-.24-.37-.65-.37-1.04,0-.91.73-1.64,1.64-1.64.4,0,.77.14,1.05.37-.23-.28-.37-.65-.37-1.04s.13-.74.36-1.02h.61c-.09,5.88-1.83,11.29-5.04,15.96m-2.24-1.12h.26c.11,0,.13.12.07.24-.06.13-.1.26-.13.36-.02.11-.09.15-.14.05-.06-.1-.14-.25-.18-.42-.05-.17-.03-.22.12-.22m-1.8,0h.26c.15,0,.17.06.12.22-.05.17-.12.32-.18.42-.06.1-.12.06-.14-.05-.02-.1-.07-.23-.13-.36-.06-.12-.03-.24.07-.24m.12,1.05c.27-.24.41-.49.53-1.14.06-.33.21-.42.37-.42s.31.09.37.42c.12.65.27.9.53,1.14.19.18.47.17.63.18.1,0,.21.06.25.29s-.1.47-.18.58c-.08.11-.13.08-.22,0-.18-.14-.38-.36-.54-.59-.16-.23-.25-.12-.14.11.11.23.34.55.52.72.13.13.1.21.05.3-.05.09-.21.24-.26.28s-.26.16-.4-.11c-.14-.27-.24-.77-.26-.97-.02-.2-.15-.17-.17,0,0,.08,0,.12,0,.34s.07.51.18.78c.11.27.01.29-.06.33s-.15.06-.3.06-.23-.02-.3-.06c-.07-.04-.17-.06-.06-.33.11-.27.18-.56.18-.78s0-.26,0-.34c-.02-.17-.15-.21-.17,0-.02.21-.12.71-.26.97-.13.27-.34.15-.4.11s-.21-.19-.26-.28c-.05-.1-.08-.17.05-.3.18-.17.41-.5.52-.72.11-.23.02-.34-.14-.11-.16.23-.36.45-.54.59-.09.07-.14.1-.22,0-.08-.11-.22-.34-.18-.58s.16-.29.25-.29c.16-.01.43,0,.63-.18m-5.34,8.94c-2.29-1.48-4.32-3.15-6.08-4.98.23-.63.83-1.09,1.54-1.09.4,0,.76.14,1.04.37-.24-.28-.37-.65-.37-1.05,0-.91.73-1.64,1.64-1.64.4,0,.76.14,1.04.37-.18-.26-.37-.56-.37-.99,0-.85.73-1.57,1.56-1.57s1.56.72,1.56,1.57c0,.43-.19.72-.37.99.28-.23.65-.37,1.04-.37.91,0,1.64.73,1.64,1.64,0,.4-.14.77-.37,1.05.28-.23.65-.37,1.04-.37.71,0,1.32.45,1.54,1.09-1.76,1.83-3.8,3.5-6.08,4.98m-5.48-9.99h.26c.11,0,.13.12.07.24-.06.13-.1.26-.13.36-.02.11-.09.15-.14.05-.06-.1-.14-.25-.18-.42-.05-.17-.03-.22.12-.22m-1.8,0h.26c.15,0,.17.06.12.22-.05.17-.13.32-.18.42-.06.1-.12.06-.14-.05-.02-.1-.07-.23-.13-.36-.06-.12-.03-.24.07-.24m1.74,1.62c.11.23.35.55.52.72.13.13.1.21.05.3-.05.09-.21.24-.26.28s-.26.16-.4-.11c-.14-.27-.24-.77-.26-.97-.02-.2-.15-.17-.17,0,0,.08,0,.12,0,.34s.07.51.18.78c.11.27.01.29-.06.33s-.15.06-.3.06-.23-.02-.3-.06c-.07-.04-.17-.06-.06-.33.11-.27.18-.56.18-.78s0-.26,0-.34c-.02-.17-.15-.21-.17,0-.02.21-.12.71-.26.97-.14.27-.35.15-.4.11-.05-.04-.21-.19-.26-.28-.05-.1-.08-.17.05-.3.17-.17.41-.5.52-.72.11-.23.02-.34-.14-.11-.16.23-.36.45-.54.59-.09.07-.14.1-.22,0-.08-.11-.22-.34-.18-.58.04-.24.16-.29.26-.29.16-.01.43,0,.63-.18.27-.24.41-.49.53-1.14.06-.33.21-.42.37-.42s.31.09.37.42c.12.65.27.9.53,1.14.19.18.47.17.63.18.1,0,.21.06.26.29.04.24-.1.47-.18.58-.08.11-.13.08-.22,0-.18-.14-.38-.36-.54-.59-.16-.23-.26-.12-.14.11M1.69,13.98c.22.28.36.63.36,1.02s-.14.76-.37,1.04c.28-.23.65-.37,1.05-.37.91,0,1.64.73,1.64,1.64,0,.4-.18.81-.37,1.04.28-.23.65-.37,1.05-.37.91,0,1.64.73,1.64,1.64,0,.4-.14.76-.37,1.04.28-.23.65-.37,1.05-.37.91,0,1.64.73,1.64,1.64,0,.4-.18.81-.37,1.04.22-.21.58-.37.99-.37.85,0,1.57.73,1.57,1.56s-.72,1.56-1.57,1.56c-.41,0-.77-.17-.99-.37.19.24.37.65.37,1.04,0,.91-.73,1.64-1.64,1.64-.4,0-.77-.14-1.05-.37.24.28.37.65.37,1.04,0,.5-.22.94-.57,1.24C2.91,25.26,1.17,19.85,1.08,13.98h.61Zm8.21,2.53h.26c.11,0,.13.12.07.24-.06.13-.1.26-.13.36-.02.11-.09.15-.14.05s-.14-.25-.18-.42c-.05-.17-.03-.22.12-.22m-1.42.22c-.05.17-.13.32-.18.42s-.12.06-.14-.05c-.02-.1-.07-.23-.13-.36-.06-.12-.03-.24.07-.24h.26c.15,0,.17.06.12.22m1.36,1.4c.11.23.35.55.52.72.13.13.1.21.05.3-.05.09-.21.24-.26.28-.05.04-.26.16-.4-.11-.14-.27-.24-.77-.26-.97-.02-.2-.15-.17-.17,0,0,.08,0,.12,0,.34s.07.51.18.78c.11.27.01.29-.06.33-.07.04-.15.06-.3.06s-.23-.02-.3-.06-.17-.06-.06-.33.18-.56.18-.78,0-.26,0-.34c-.02-.17-.15-.21-.17,0-.02.21-.12.71-.26.97-.14.27-.35.15-.4.11-.05-.04-.21-.19-.26-.28-.05-.1-.08-.17.05-.3.17-.17.41-.5.52-.72.11-.23.02-.34-.14-.11-.16.23-.36.45-.54.59-.09.07-.14.1-.22,0-.08-.11-.22-.34-.18-.58.04-.24.16-.29.26-.29.16-.01.43,0,.63-.18.27-.24.41-.49.53-1.14.06-.33.21-.42.37-.42s.31.09.37.42c.12.65.27.9.53,1.14.19.18.47.17.63.18.1,0,.21.06.26.29.04.24-.1.47-.18.58-.08.11-.13.08-.22,0-.18-.14-.38-.36-.54-.59-.16-.23-.26-.12-.14.11m6.35,4.3h.27c.11,0,.14.12.08.25-.06.13-.11.27-.13.38-.02.11-.09.16-.15.05-.06-.11-.14-.26-.19-.44-.05-.18-.03-.24.13-.24m-1.89,0h.27c.16,0,.18.06.13.23-.05.18-.13.33-.19.44-.06.11-.13.06-.15-.05-.02-.11-.07-.24-.13-.38-.06-.13-.03-.25.08-.25m1.83,1.7c.12.24.36.58.55.76.13.13.11.22.05.32-.05.1-.22.26-.27.3-.05.04-.27.17-.42-.11-.14-.28-.26-.81-.27-1.02-.02-.21-.16-.18-.18,0,0,.09,0,.12,0,.36s.07.53.18.82c.11.29.01.3-.07.35-.08.04-.16.06-.32.06s-.24-.02-.32-.06c-.08-.04-.18-.06-.07-.35.11-.29.18-.59.18-.82s0-.27,0-.36c-.02-.18-.16-.22-.18,0-.02.22-.13.74-.27,1.02-.14.28-.36.15-.42.11-.05-.04-.22-.2-.27-.3s-.08-.18.05-.32c.18-.18.43-.52.55-.76.12-.24.02-.36-.15-.11-.17.24-.38.47-.57.62-.1.07-.15.11-.23,0-.08-.11-.23-.36-.19-.61.04-.25.17-.3.27-.31.17-.01.46,0,.66-.19.28-.26.43-.52.56-1.2.07-.35.22-.44.39-.44s.33.09.39.44c.13.68.28.94.56,1.2.2.19.49.18.66.19.1,0,.23.06.27.31.04.25-.11.5-.19.61-.08.11-.14.08-.23,0-.19-.15-.4-.38-.57-.62-.17-.24-.26-.13-.15.11m3.8-8.55c-.4,0-.76-.14-1.04-.37.23.28.37.65.37,1.05,0,.91-.73,1.64-1.64,1.64-.4,0-.76-.14-1.04-.37.18.26.37.56.37.99,0,.85-.73,1.57-1.56,1.57s-1.56-.72-1.56-1.57c0-.43.19-.72.37-.99-.28.23-.65.37-1.04.37-.91,0-1.64-.73-1.64-1.64,0-.4.14-.76.37-1.05-.28.23-.65.37-1.04.37-.89,0-1.62-.71-1.64-1.6h12.36c-.02.89-.75,1.6-1.64,1.6m2.48.93h.26c.11,0,.13.12.07.24-.06.13-.1.26-.13.36-.02.11-.09.15-.14.05-.06-.1-.14-.25-.18-.42-.05-.17-.03-.22.12-.22m-1.8,0h.26c.15,0,.17.06.12.22-.05.17-.12.32-.18.42-.06.1-.12.06-.14-.05-.02-.1-.07-.23-.13-.36-.06-.12-.03-.24.07-.24m1.74,1.62c.11.23.34.55.52.72.13.13.1.21.05.3-.05.09-.21.24-.26.28-.05.04-.26.16-.4-.11-.14-.27-.24-.77-.26-.97-.02-.2-.15-.17-.17,0,0,.08,0,.12,0,.34s.07.51.18.78c.11.27.01.29-.06.33-.07.04-.15.06-.3.06s-.23-.02-.3-.06-.17-.06-.06-.33.18-.56.18-.78,0-.26,0-.34c-.02-.17-.15-.21-.17,0-.02.21-.12.71-.26.97-.13.27-.34.15-.4.11-.05-.04-.21-.19-.26-.28-.05-.1-.08-.17.05-.3.18-.17.41-.5.52-.72.11-.23.02-.34-.14-.11-.16.23-.36.45-.54.59-.09.07-.14.1-.22,0-.08-.11-.22-.34-.18-.58.04-.24.16-.29.25-.29.16-.01.43,0,.63-.18.27-.24.41-.49.53-1.14.06-.33.21-.42.37-.42s.31.09.37.42c.12.65.27.9.53,1.14.19.18.47.17.63.18.1,0,.21.06.25.29s-.1.47-.18.58c-.08.11-.13.08-.22,0-.18-.14-.38-.36-.54-.59-.16-.23-.26-.12-.14.11M1.07,4.72h28.62v8.18H1.07V4.72Zm-1.07-1.07v9.82c0,10.84,5.36,20.22,15.09,26.41l.29.18.29-.18c9.73-6.19,15.09-15.57,15.09-26.41V3.65H0Z"></path><path class="cls-1" d="m6.72,9.54c-.05.05-.04.12.05.11.09,0,.12,0,.21,0h.93c.07,0,.21.07.21-.08v-.45c0-.24-.12-.29-.19,0-.05.19-.11.37-.41.37h-.19c-.08,0-.11-.03-.12-.1-.02-.17-.02-.48,0-.81,0-.1.05-.11.15-.11s.12,0,.15.09c.03.09.21.26.21,0v-.34c0-.25-.16-.07-.2,0-.04.07-.07.07-.16.07s-.13-.02-.13-.12c0-.16-.02-.41,0-.71,0-.07.02-.1.1-.1h.19c.3,0,.3.2.35.4.05.19.19.15.19,0v-.45c0-.15-.14-.08-.21-.07h-.87c-.09,0-.12,0-.21,0s-.1.07-.05.12c.06.05.07.05.08.24v1.69c0,.19-.02.2-.07.24"></path><path class="cls-1" d="m5.8,7.38c.05-.05.05-.14-.02-.13s-.1,0-.17,0-.1,0-.17,0-.09.07-.06.12c.04.05.1.05.07.24l-.36,1.17c-.04.15-.13.2-.17,0l-.25-1.17c-.04-.19-.02-.19.02-.24.05-.05.02-.12-.07-.12s-.12,0-.22,0-.13,0-.22,0c-.09,0-.09.07-.02.12.07.05.09.05.13.24l.43,1.85c.04.15.07.26.17.26s.16-.1.2-.25l.57-1.85c.08-.18.09-.18.15-.23"></path><path class="cls-1" d="m9.99,10.42h-.5v1.03h-2.73s.01-.08.01-.13c0-.04,0-.07-.01-.1h2.39v-4.73l-.32-.32h.65v.95h.5c.12,0,.22.1.22.22s-.1.22-.22.22h-.5v2.4h.5c.12,0,.22.1.22.22,0,.12-.1.22-.22.22m-3.84,1.32c-.23,0-.41-.19-.41-.41s.19-.41.41-.41.41.19.41.41-.19.41-.41.41m-3.34-.29v-1.03h-.5c-.12,0-.22-.1-.22-.22s.1-.22.22-.22h.5v-2.4h-.5c-.12,0-.22-.1-.22-.22s.1-.22.22-.22h.5v-.95h.65l-.32.32v4.73h2.38s-.01.07-.01.1c0,.04,0,.09.01.13h-2.73Zm.89-.86l-.36.32v-4.33l.36-.37v4.38Zm1.46.14c.27,0,.46.04.6.11-.06.05-.12.11-.15.19h-2.1l.33-.3h1.32Zm-1.26-4.56h1.26c.49,0,.89.4.89.89v3.65s-.07.01-.1.02c-.19-.14-.44-.2-.79-.2h-1.26s0-4.36,0-4.36h0Zm3.24,0h1.26v4.36h-1.26c-.35,0-.6.06-.79.2-.03-.01-.06-.02-.1-.02v-3.65c0-.49.4-.89.89-.89m1.66,4.85h-2.1c-.04-.07-.09-.13-.15-.18.14-.07.32-.11.6-.11h1.33s.33.3.33.3Zm-.3-.39h0Zm.1-4.43l.36.37v4.33l-.36-.32v-4.38Zm1.39,3.57h-.3v-2.01h.3c.23,0,.42-.19.42-.42s-.19-.42-.42-.42h-.3v-.95h-2.55c-.44,0-.82.26-.99.64-.17-.38-.55-.64-.99-.64h-2.55v.95h-.3c-.23,0-.42.19-.42.42s.19.42.42.42h.3v2.01h-.3c-.23,0-.42.19-.42.42s.19.42.42.42h.3v1.03h3c.11.18.31.3.53.3s.42-.12.53-.3h3v-1.03h.3c.23,0,.42-.19.42-.42s-.19-.42-.42-.42"></path><path class="cls-1" d="m13.85,7.86v.36c0,.06.05.12.17.12s.41-.07.41-.47-.2-.46-.32-.47c-.12-.02-.26-.01-.26.19v.28Zm-.22,1.8c-.08,0-.17,0-.25,0-.08,0-.09-.07-.04-.12.05-.05.1-.05.1-.24v-1.77c0-.08,0-.12-.07-.18-.07-.06.02-.12.12-.12s.38,0,.53,0c.63,0,.84.21.84.58,0,.28-.17.46-.38.54-.06.02-.08.06-.08.09s0,.05.03.09c.03.05.41.8.46.87.05.07.08.1.12.13.02.02.02.11-.11.11h-.33s-.02,0-.06-.06c-.04-.07-.5-1.03-.54-1.1h-.13s0,.81,0,.81c0,.19.05.18.11.23.06.05.04.13-.05.13-.09,0-.18,0-.27,0"></path><path class="cls-1" d="m16.6,9.33c0,.19.02.19.07.24.06.05.04.12-.05.12-.09,0-.12,0-.21,0s-.12,0-.21,0-.1-.07-.05-.12c.06-.05.07-.05.08-.24v-1.69c0-.19-.02-.19-.08-.24-.05-.05-.04-.12.05-.12.09,0,.12,0,.21,0s.12,0,.21,0c.09,0,.1.07.05.12-.05.05-.07.05-.07.24v1.69Z"></path><path class="cls-1" d="m18.9,10.42h-.5v1.03h-2.41s.01-.08.01-.13c0-.04,0-.07-.01-.1h2.07v-4.73l-.32-.32h.65v.95h.5c.12,0,.22.1.22.22s-.1.22-.22.22h-.5v2.4h.5c.12,0,.22.1.22.22,0,.12-.1.22-.22.22m-3.52,1.32c-.23,0-.41-.19-.41-.41s.19-.41.41-.41.42.19.42.41-.19.41-.42.41m-3.57-.29v-1.03h-.5c-.12,0-.22-.1-.22-.22s.1-.22.22-.22h.5v-2.4h-.5c-.12,0-.22-.1-.22-.22s.1-.22.22-.22h.5v-.95h.65l-.32.32v4.73h2.62s-.01.07-.01.1c0,.04,0,.09.01.13h-2.96Zm.89-.86l-.36.32v-4.33l.36-.37v4.38Zm.1.04h0Zm1.59.1c.27,0,.46.04.6.11-.06.05-.11.11-.15.18h-2.33l.33-.3h1.56Zm-1.5-4.56h1.49c.49,0,.89.4.89.89v3.65s-.07.01-.1.02c-.19-.14-.44-.2-.79-.2h-1.49s0-4.36,0-4.36Zm3.47,0h.95v4.36h-.95c-.35,0-.6.06-.79.2-.03-.01-.07-.02-.1-.02v-3.65c0-.49.4-.89.89-.89m1.34,4.85h-1.79c-.04-.07-.09-.13-.15-.18.14-.07.32-.11.6-.11h1.01s.33.3.33.3Zm-.2-4.82l.36.37v4.33l-.36-.32v-4.38Zm1.39,3.57h-.3v-2.01h.3c.23,0,.42-.19.42-.42s-.19-.42-.42-.42h-.3v-.95h-2.23c-.44,0-.82.26-.99.64-.17-.38-.55-.64-.99-.64h-2.78v.95h-.3c-.23,0-.42.19-.42.42s.19.42.42.42h.3v2.01h-.3c-.23,0-.42.19-.42.42s.19.42.42.42h.3v1.03h3.23c.11.18.31.3.53.3s.42-.12.53-.3h2.69v-1.03h.3c.23,0,.42-.19.42-.42,0-.23-.19-.42-.42-.42"></path><path class="cls-1" d="m24.13,8.11c.08-.29.14-.3.2.02l.12.49c.04.12.03.15-.2.15-.29,0-.31-.02-.26-.14l.14-.51Zm.4.87l.08.32c.04.19.02.19-.02.24-.04.05-.02.12.07.12.09,0,.15,0,.24,0s.1,0,.19,0,.08-.11.03-.14c-.07-.05-.07-.09-.11-.22l-.52-1.85c-.04-.15-.1-.26-.13-.25-.11.03-.25.06-.24.13v.2s-.52,1.76-.52,1.76c-.08.18-.09.18-.15.23-.05.05-.05.14.02.13s.1,0,.17,0,.1,0,.17,0c.07,0,.09-.07.06-.12-.04-.05-.1-.05-.07-.24l.11-.34c.03-.08.2-.05.29-.05.09,0,.3-.03.34.07"></path><path class="cls-1" d="m22.82,7.27c.12,0,.27,0,.48-.02.29-.02.3,0,.3.09,0,.06,0,.3,0,.37s0,.18-.07.18-.09-.07-.13-.18c-.11-.29-.22-.33-.29-.33s-.1.06-.1.22v1.69c0,.19.02.19.08.24.06.05.04.13-.05.13-.09,0-.13,0-.22,0s-.13,0-.22,0c-.09,0-.11-.08-.05-.13.06-.05.08-.05.08-.24v-1.69c0-.16-.02-.22-.1-.22s-.19.04-.29.33c-.04.1-.06.18-.13.18-.06,0-.07-.11-.07-.18s0-.32,0-.37c0-.09,0-.1.3-.09.21.01.36.02.48.02"></path><path class="cls-1" d="m25.26,9.07c0-.22.14-.19.22.03.07.21.18.47.46.47s.34-.32.34-.48c0-.25-.1-.33-.49-.62-.38-.28-.47-.47-.47-.69s.22-.58.57-.58c.17,0,.26.01.35.08.01,0,.13.02.15-.02.04-.05.11.01.11.08s0,.36,0,.46c0,.1-.12.18-.18,0-.07-.21-.12-.5-.39-.5-.23,0-.28.27-.28.38,0,.29.29.39.61.62.32.24.4.34.4.67,0,.36-.34.73-.72.73-.16,0-.3-.09-.43-.09s-.12.05-.17.05-.1-.04-.09-.12c.01-.08.01-.33.01-.46"></path><path class="cls-1" d="m28.41,10.42h-.5v1.03h-2.93s.01-.08.01-.13c0-.04,0-.07-.01-.1h2.66v-4.73l-.32-.32h.59v.95h.5c.12,0,.22.1.22.22s-.1.22-.22.22h-.5v2.4h.5c.12,0,.22.1.22.22s-.1.22-.22.22m-4.04,1.32c-.23,0-.41-.19-.41-.41s.19-.41.41-.41.41.19.41.41-.19.41-.41.41m-3.63-.29v-1.03h-.5c-.12,0-.22-.1-.22-.22s.1-.22.22-.22h.5v-2.4h-.5c-.12,0-.22-.1-.22-.22s.1-.22.22-.22h.5v-.95h.65l-.32.32v4.73h2.68s-.01.07-.01.1c0,.04,0,.09.01.13h-3.02Zm.89-.86l-.36.32v-4.33l.36-.37v4.38Zm1.75.14c.27,0,.46.04.6.11-.06.05-.11.11-.15.18h-2.39l.33-.3h1.62Zm-1.56-4.56h1.56c.41,0,.76.27.86.65l.02.07h.17l.02-.07c.1-.38.46-.65.86-.65h1.58v4.36h-1.54c-.35,0-.6.06-.79.2-.06-.02-.13-.04-.2-.04s-.14.01-.2.04c-.19-.14-.44-.2-.79-.2h-1.56s0-4.36,0-4.36h0Zm5.46,4.86h-2.37c-.04-.07-.09-.13-.15-.18.14-.07.32-.11.6-.11h1.6s.33.3.33.3Zm-.2-4.82l.36.37v4.33l-.36-.32v-4.38Zm1.32,3.57h-.3v-2.01h.3c.23,0,.42-.19.42-.42s-.19-.42-.42-.42h-.3v-.95h-2.8c-.41,0-.78.23-.97.58-.18-.35-.55-.58-.97-.58h-2.84v.95h-.3c-.23,0-.42.19-.42.42s.19.42.42.42h.3v2.01h-.3c-.23,0-.42.19-.42.42s.19.42.42.42h.3v1.03h3.3c.11.18.31.3.53.3s.42-.12.53-.3h3.21v-1.03h.3c.23,0,.42-.19.42-.42,0-.23-.19-.42-.42-.42"></path><polygon class="cls-1" points="69.27 12.89 71.38 12.89 73.83 6.14 72.03 6.14 70.42 10.97 68.81 6.14 66.81 6.14 69.27 12.89"></polygon><path class="cls-1" d="m85.65,38.79h1.86v-9.82h-1.86v9.82Zm-4.74.14c2.03,0,3.56-1.36,3.56-3.49v-.1c0-2.11-1.52-3.46-3.55-3.46s-3.56,1.38-3.56,3.5v.1c0,2.1,1.54,3.45,3.55,3.45m.01-1.42c-1.06,0-1.65-.78-1.65-2.07v-.1c0-1.29.62-2.04,1.65-2.04s1.65.78,1.65,2.07v.09c0,1.28-.61,2.05-1.65,2.05m-7.84,1.42c2.03,0,3.56-1.36,3.56-3.49v-.1c0-2.11-1.52-3.46-3.55-3.46s-3.56,1.38-3.56,3.5v.1c0,2.1,1.54,3.45,3.55,3.45m.01-1.42c-1.06,0-1.65-.78-1.65-2.07v-.1c0-1.29.62-2.04,1.65-2.04s1.65.78,1.65,2.07v.09c0,1.28-.61,2.05-1.65,2.05m-10.97,1.28h1.87v-3.9c0-1,.61-1.49,1.41-1.49s1.19.44,1.19,1.36v4.03h1.87v-4.3c0-1.81-.94-2.61-2.27-2.61-1.12,0-1.86.56-2.2,1.23v-4.13h-1.87v9.82Zm-4.28.14c1.96,0,3.13-1.11,3.23-2.71h-1.69c-.09.87-.7,1.3-1.45,1.3-1.05,0-1.65-.7-1.65-2.05v-.1c0-1.29.65-2.02,1.61-2.02.76,0,1.24.36,1.37,1.15h1.77c-.17-1.94-1.61-2.62-3.18-2.62-1.92,0-3.49,1.33-3.49,3.51v.1c0,2.21,1.5,3.44,3.48,3.44"></path><path class="cls-1" d="m49.45,38.93c2.46,0,3.98-1.3,3.98-2.94,0-1.91-1.3-2.52-3.82-2.8-1.6-.21-1.94-.52-1.94-1.18,0-.62.52-1.05,1.56-1.05s1.59.39,1.73,1.23h2.17c-.19-1.83-1.56-2.76-3.91-2.76s-3.79,1.18-3.79,2.75c0,1.78,1.09,2.49,3.76,2.8,1.53.21,1.97.46,1.97,1.2s-.69,1.23-1.72,1.23c-1.55,0-1.94-.68-2.04-1.51h-2.26c.13,1.85,1.44,3.03,4.3,3.03"></path><path class="cls-1" d="m47.64,20.4v-2.36h2.08c.98,0,1.42.35,1.42,1.13v.05c0,.83-.4,1.19-1.41,1.19h-2.09Zm0,3.99v-2.65h2.17c1.14,0,1.6.44,1.6,1.29v.05c0,.84-.46,1.3-1.5,1.3h-2.27Zm-2.04,1.45h4.64c2.13,0,3.24-.89,3.24-2.58v-.05c0-1.24-.65-1.92-1.85-2.17,1.03-.3,1.5-1.01,1.5-1.98v-.05c0-1.58-1.05-2.4-3.06-2.4h-4.47s0,9.23,0,9.23h0Z"></path><path class="cls-1" d="m97.16,25.98c1.78,0,2.84-.76,2.84-2.22s-.93-1.87-2.62-2.12c-.98-.14-1.3-.31-1.3-.74s.35-.7.96-.7c.65,0,.96.26,1.06.81h1.72c-.17-1.55-1.29-2.09-2.79-2.09-1.38,0-2.67.7-2.67,2.1,0,1.32.7,1.83,2.49,2.11.97.14,1.37.34,1.37.8s-.34.74-1.06.74c-.81,0-1.11-.35-1.19-.96h-1.74c.06,1.46,1.12,2.26,2.94,2.26m-6.48,0c1.78,0,2.84-.76,2.84-2.22s-.93-1.87-2.62-2.12c-.98-.14-1.3-.31-1.3-.74s.35-.7.96-.7c.64,0,.96.26,1.06.81h1.72c-.17-1.55-1.29-2.09-2.79-2.09-1.38,0-2.67.7-2.67,2.1,0,1.32.7,1.83,2.49,2.11.97.14,1.37.34,1.37.8s-.34.74-1.06.74c-.81,0-1.11-.35-1.19-.96h-1.74c.06,1.46,1.12,2.26,2.94,2.26m-8.59-4.25c.14-.96.71-1.51,1.55-1.51.89,0,1.41.49,1.47,1.51h-3.02Zm1.6,4.25c1.85,0,3.01-.81,3.23-2.27h-1.77c-.12.57-.54.94-1.41.94-1.02,0-1.63-.65-1.68-1.77h4.87v-.52c0-2.42-1.55-3.44-3.29-3.44-1.96,0-3.47,1.38-3.47,3.51v.1c0,2.16,1.48,3.44,3.53,3.44m-11.06-.14h1.87v-3.9c0-1,.61-1.49,1.41-1.49s1.19.44,1.19,1.36v4.03h1.87v-4.3c0-1.81-.94-2.61-2.27-2.61-1.12,0-1.86.56-2.2,1.23v-1.07h-1.87v6.76h0Zm-2.66-7.67c.61,0,1.07-.44,1.07-1.02s-.46-1.02-1.07-1.02-1.06.44-1.06,1.02c0,.58.47,1.02,1.06,1.02m-.92,7.67h1.86v-6.76h-1.86v6.76Zm-4.08.14c1.78,0,2.84-.76,2.84-2.22s-.93-1.87-2.62-2.12c-.98-.14-1.3-.31-1.3-.74s.35-.7.96-.7c.65,0,.96.26,1.06.81h1.72c-.17-1.55-1.29-2.09-2.79-2.09-1.38,0-2.67.7-2.67,2.1,0,1.32.7,1.83,2.49,2.11.97.14,1.37.34,1.37.8s-.34.74-1.06.74c-.81,0-1.11-.35-1.19-.96h-1.74c.07,1.46,1.12,2.26,2.95,2.26m-8.11,0c1.11,0,1.8-.52,2.14-1.2v1.06h1.86v-6.76h-1.86v3.97c0,.99-.62,1.48-1.41,1.48s-1.18-.44-1.18-1.36v-4.09h-1.86v4.35c0,1.77.98,2.54,2.3,2.54"></path><path class="cls-1" d="m77.02,11.73c-.68,0-.98-.32-.98-.81,0-.72.63-.96,1.72-.96h.72v.57c0,.75-.63,1.2-1.46,1.2m-.56,1.3c1.06,0,1.65-.41,2.04-.96v.81h1.82v-4.41c0-1.83-1.18-2.51-2.83-2.51s-2.92.71-3.04,2.31h1.77c.08-.58.41-.96,1.15-.96.85,0,1.1.44,1.1,1.24v.27h-.76c-2.07,0-3.51.59-3.51,2.17,0,1.42,1.03,2.02,2.26,2.02m-19.18-1.3c-.68,0-.98-.32-.98-.81,0-.72.63-.96,1.72-.96h.72v.57c0,.75-.63,1.2-1.46,1.2m-.56,1.3c1.06,0,1.65-.41,2.04-.96v.81h1.82v-4.41c0-1.83-1.18-2.51-2.83-2.51s-2.92.71-3.04,2.31h1.77c.08-.58.41-.96,1.15-.96.85,0,1.1.44,1.1,1.24v.27h-.76c-2.07,0-3.51.59-3.51,2.17,0,1.42,1.03,2.02,2.26,2.02"></path><polygon class="cls-1" points="45.6 12.89 47.69 12.89 47.69 9.08 51.04 9.09 51.04 12.9 53.13 12.9 53.13 3.66 51.04 3.66 51.04 7.43 47.69 7.43 47.69 3.66 45.6 3.66 45.6 12.89"></polygon><path class="cls-1" d="m66.12,6.05c-1.02.05-1.65.52-2.06,1.39v-1.29h-1.87v6.76h1.87v-3.38c0-1.25.75-1.71,2.06-1.73v-1.74Z"></path><path class="cls-1" d="m85.86,6.05c-1.02.05-1.64.52-2.05,1.39v-1.29h-1.87v6.76h1.87v-3.38c0-1.25.75-1.71,2.05-1.73v-1.74Z"></path><path class="cls-1" d="m89.92,11.58c-.93,0-1.58-.66-1.58-2v-.1c0-1.34.58-2.05,1.63-2.05s1.61.68,1.61,2.03v.1c0,1.37-.68,2.03-1.67,2.03m-.56,1.46c.99,0,1.82-.58,2.17-1.27v1.12h1.86V3.08h-1.86v4.07c-.38-.68-1.05-1.16-2.13-1.16-1.69,0-2.97,1.3-2.97,3.53v.1c0,2.25,1.29,3.42,2.93,3.42"></path><rect class="cls-1" x="37.9" width=".84" height="55.68"></rect><path class="cls-2" d="m45.34,47.35v-.1c0-2.62,1.84-4.69,4.55-4.69s4.51,2.07,4.51,4.67v.1c0,2.61-1.8,4.71-4.49,4.71s-4.58-2.09-4.58-4.68m7.9-.04v-.1c0-2.07-1.22-3.75-3.35-3.75s-3.39,1.58-3.39,3.77v.1c0,2.24,1.49,3.76,3.41,3.76,2.06,0,3.32-1.55,3.32-3.79"></path><path class="cls-2" d="m56.2,45.15h1.07v1.07c.31-.63,1.06-1.19,2.17-1.19,1.4,0,2.38.76,2.38,2.73v4.15h-1.07v-4.23c0-1.19-.5-1.72-1.59-1.72-1,0-1.89.63-1.89,1.85v4.1h-1.07v-6.76h0Z"></path><rect class="cls-2" x="63.96" y="41.92" width="1.09" height="9.99"></rect><path class="cls-2" d="m67.07,43.03c0-.39.32-.71.71-.71s.71.32.71.71-.32.71-.71.71-.71-.32-.71-.71m.19,2.12h1.07v6.76h-1.07v-6.76Z"></path><path class="cls-2" d="m70.54,45.15h1.07v1.07c.31-.63,1.06-1.19,2.17-1.19,1.4,0,2.38.76,2.38,2.73v4.15h-1.07v-4.23c0-1.19-.5-1.72-1.59-1.72-1,0-1.89.63-1.89,1.85v4.1h-1.07v-6.76h0Z"></path><path class="cls-2" d="m77.76,48.6v-.1c0-2.04,1.31-3.46,3.17-3.46,1.56,0,3.04.94,3.04,3.36v.35h-5.09c.05,1.54.79,2.39,2.17,2.39,1.05,0,1.65-.39,1.8-1.18h1.07c-.23,1.36-1.36,2.07-2.88,2.07-1.91,0-3.27-1.34-3.27-3.43m5.11-.72c-.1-1.4-.83-1.95-1.94-1.95s-1.84.75-2.02,1.95h3.96Z"></path></svg> 