<?xml version="1.0" encoding="UTF-8"?> <svg xmlns="http://www.w3.org/2000/svg" id="Layer_1" width="599.76" height="400.32" viewBox="0 0 599.76 400.32"><defs><style>.cls-1{fill:#023870;}.cls-2{fill:#d26714;}</style></defs><path class="cls-1" d="m152,166.85c.05.47.11.89.15,1.32.23,3.06.46,6.12.69,9.18.25,3.32.52,6.63.77,9.95.26,3.29.52,6.59.77,9.88.26,3.34.52,6.67.78,10.01.17,2.18.33,4.36.51,6.54.2,2.44.41,4.87.6,7.31.15,1.9.28,3.81.43,5.71.15,1.95.31,3.89.47,5.84.07.9.13,1.79.2,2.78-.35.03-.66.08-.97.08-3.55,0-7.1,0-10.66,0-.19,0-.38-.03-.61-.05-.87-16.35-1.75-32.67-2.62-48.98-.05-.02-.1-.03-.15-.05-.13.23-.26.46-.37.7-2.19,4.71-4.43,9.4-6.54,14.14-3.54,7.94-6.99,15.91-10.48,23.87-.12.28-.24.55-.33.84-.1.28-.26.4-.57.4-2.8-.01-5.6-.02-8.4,0-.44,0-.6-.22-.74-.56-1.04-2.45-2.07-4.9-3.14-7.34-2.59-5.9-5.16-11.79-7.79-17.67-1.7-3.8-3.48-7.56-5.23-11.34-.39-.84-.78-1.67-1.18-2.5-.08-.16-.19-.31-.35-.58-.06.26-.1.39-.11.53-.07,1.22-.14,2.44-.21,3.66-.16,3.02-.33,6.04-.49,9.06-.11,2.08-.19,4.16-.3,6.24-.12,2.23-.25,4.46-.38,6.69-.21,3.77-.42,7.54-.62,11.31-.1,1.97-.19,3.94-.29,5.92-.09,1.74-.18,3.47-.28,5.21-.03.48-.06.51-.54.51-3.7,0-7.41-.02-11.11-.03-.19,0-.37-.03-.62-.06.04-.64.06-1.23.11-1.82.15-1.99.32-3.98.47-5.97.21-2.61.42-5.22.62-7.83.15-1.86.28-3.72.42-5.58.2-2.55.42-5.09.61-7.64.15-1.86.27-3.72.42-5.59.2-2.55.41-5.09.62-7.63.14-1.71.26-3.42.39-5.14.21-2.74.44-5.48.65-8.21.14-1.86.28-3.72.42-5.59.18-2.33.35-4.66.53-7,.01-.17.07-.33.12-.54.25-.02.48-.05.71-.05,3.4,0,6.8.01,10.2,0,.46,0,.69.18.9.56,2.16,3.81,4.08,7.75,6,11.69,3.91,8.05,7.6,16.21,11.18,24.41,1.04,2.38,2.07,4.76,3.1,7.14.06.13.14.25.26.47.13-.2.23-.32.29-.46,1.2-2.75,2.39-5.51,3.59-8.27,1.05-2.42,2.11-4.84,3.18-7.25,1.15-2.59,2.29-5.18,3.48-7.75,1-2.16,2.05-4.3,3.08-6.45,1.12-2.32,2.2-4.66,3.37-6.95,1.13-2.22,2.34-4.4,3.5-6.6.21-.4.46-.54.91-.54,3.32.02,6.63,0,9.95.01.21,0,.42.03.66.05Z"></path><path class="cls-1" d="m229,167.81c1.3-.22,2.54-.46,3.79-.65,3.77-.59,7.57-.81,11.38-.95,2.63-.1,5.25-.11,7.87.04,4.79.28,9.49,1.01,13.98,2.82,2.58,1.04,4.92,2.48,6.95,4.38,2.39,2.23,3.93,4.99,4.75,8.13,1,3.86,1.15,7.77.31,11.67-.71,3.28-2.25,6.14-4.59,8.57-2.23,2.31-4.94,3.83-7.9,4.97-.23.09-.47.19-.78.31,3.59,4.4,6.79,8.96,9.8,13.66,3,4.68,5.74,9.5,8.15,14.61-.3.02-.48.05-.67.05-4.24,0-8.48,0-12.72,0-.35,0-.58-.08-.77-.42-1.34-2.42-2.66-4.86-4.08-7.23-2.57-4.3-5.29-8.5-8.22-12.56-1.32-1.83-2.71-3.61-4.06-5.41-.22-.3-.47-.44-.86-.43-1.72.05-3.44.08-5.16.09-1.36.01-2.71,0-4.07,0-.19,0-.38.03-.65.05,0,.32,0,.62,0,.91,0,8.01,0,16.02,0,24.03,0,.29-.03.59-.05.92h-12.35v-67.58Zm12.44,31.52c.2.02.33.05.45.05,4.33.04,8.65.13,12.96-.43,2.16-.28,4.21-.89,6.1-1.96,2.07-1.17,3.42-2.9,4.06-5.18.51-1.82.6-3.68.36-5.55-.43-3.3-2.09-5.77-5.09-7.27-.86-.43-1.77-.78-2.7-1.06-2.43-.72-4.94-.98-7.46-1.02-2.26-.03-4.52.06-6.78.11-.64.02-1.27.11-1.92.17v22.14Z"></path><path class="cls-1" d="m169.91,166.91c.7-.16,43.53-.14,44.11.03,0,3.44,0,6.9,0,10.44h-31.57c-.18.68-.17,16.28,0,17,.29,0,.61,0,.93,0,8.7,0,17.39,0,26.09,0,.32,0,.63,0,.92,0,.18.54.2,9.69.04,10.34h-27.97c-.18.6-.2,19.37-.02,20.12.23.01.48.04.72.04,7.23,0,14.47,0,21.7,0,3.55,0,7.1,0,10.66,0,.27,0,.54.03.84.05v10.4c-.18.03-.34.07-.5.08-.6.01-1.21.02-1.81.02-14.38,0-28.76,0-43.14,0-.3,0-.6,0-.97,0-.02-.31-.06-.55-.06-.8,0-15.95,0-31.9,0-47.86,0-6.38,0-12.75,0-19.13,0-.23.02-.47.03-.73Z"></path><path class="cls-1" d="m292.37,221.74c.29.14.5.24.71.34,3.25,1.56,6.6,2.84,10.16,3.48,3.3.59,6.62.75,9.97.52,1.68-.12,3.33-.37,4.92-.97,2.47-.93,4.36-2.49,5.07-5.1.96-3.54.19-6.68-2.61-9.19-1.76-1.58-3.81-2.74-5.99-3.63-2.47-1.01-4.98-1.9-7.47-2.86-2.71-1.04-5.42-2.1-7.93-3.57-3.58-2.1-6.21-5.06-7.91-8.84-.53-1.17-.77-2.41-.94-3.66-.3-2.12-.3-4.24-.01-6.35.7-5.14,3.11-9.25,7.36-12.28,2.5-1.77,5.31-2.82,8.26-3.5,3.35-.77,6.76-1.05,10.19-.82,1.52.1,3.05.21,4.56.38,2.66.3,5.24.97,7.75,1.89,1.49.55,2.93,1.23,4.39,1.86.19.08.37.21.55.32-1.29,3.36-2.56,6.68-3.85,10.04-.18-.08-.33-.15-.48-.22-3.23-1.7-6.67-2.74-10.28-3.24-1.86-.26-3.72-.41-5.6-.35-1.92.06-3.81.35-5.59,1.15-.79.36-1.51.83-2.16,1.39-1.45,1.25-2.13,2.87-2.28,4.74-.23,2.99.92,5.35,3.24,7.19,1.46,1.16,3.05,2.1,4.76,2.81,2.36.99,4.75,1.89,7.13,2.84,2.88,1.15,5.75,2.3,8.45,3.84,1.43.81,2.74,1.79,3.96,2.88,3.18,2.87,4.97,6.47,5.54,10.69.3,2.22.4,4.46.11,6.68-.78,5.99-3.79,10.5-9.16,13.35-2.88,1.53-5.98,2.38-9.2,2.85-3.1.45-6.22.59-9.34.47-6.52-.23-12.8-1.51-18.72-4.34-.33-.16-.65-.34-.97-.51-.07-.04-.13-.1-.25-.19,1.2-3.34,2.4-6.68,3.63-10.11Z"></path><path class="cls-1" d="m11.99,172.94c1.04-1.05,2.15-1.98,3.34-2.83,4.4-3.12,9.3-5.06,14.59-6.08,2.61-.5,5.24-.73,7.9-.62,4.45.18,8.73,1.16,12.84,2.86,6.78,2.82,12.25,7.27,16.35,13.34,2.55,3.78,4.23,7.94,5.2,12.39.71,3.27,1.06,6.57.9,9.91-.14,3.05-.83,5.98-2,8.8-1.19,2.89-2.82,5.5-4.96,7.78-2.24,2.39-4.93,4.13-7.94,5.4-4.27,1.81-8.71,2.64-13.35,2.42-4.46-.22-8.71-1.26-12.64-3.46-2.36-1.32-4.4-3.01-6.13-5.07-.7-.84-2.2-2.92-2.24-3.15.18.13,6.34,3.84,9.75,4.38,5.36.85,10.18-.47,14.53-3.69,4.01-2.97,6.33-6.98,7.45-11.77.76-3.26.89-6.53.44-9.84-.45-3.31-1.37-6.47-2.89-9.43-2.27-4.42-5.71-7.76-9.97-10.26-3.64-2.13-7.57-3.47-11.75-4.08-3.37-.49-6.73-.41-10.09.16-3.11.52-6.11,1.44-9,2.69-.11.05-.23.09-.34.14Z"></path><path d="m397.06,179.67h5.05c.86,2.57,1.67,5.16,2.49,7.75.82,2.6,1.67,5.19,2.49,7.79.81,2.6,1.62,5.2,2.39,7.82.76,2.6,1.48,5.22,2.21,7.82.05,0,.09,0,.14,0,.13-.48.25-.97.39-1.45.52-1.79.99-3.6,1.57-5.37,1.5-4.52,3.03-9.03,4.57-13.54,1.18-3.45,2.38-6.9,3.57-10.34.06-.16.12-.31.19-.48h4.79s.03.06.04.08c0,.02.03.04.02.06-1.29,3.64-2.57,7.28-3.88,10.91-2.99,8.31-5.99,16.62-9,24.95h-5.14c-3.95-11.95-7.9-23.92-11.88-35.99Z"></path><path d="m577.49,203.59c-3.09,0-6.12,0-9.15,0-3,0-6.01,0-9.01,0-.15,4.92,2.96,8.64,7.87,8.9,2.36.13,4.69-.05,6.95-.79.38-.13.76-.28,1.23-.45.27,1.11.54,2.18.82,3.32-.63.23-1.22.48-1.83.67-2.98.9-6.03,1.27-9.12.83-4.97-.72-8.33-3.45-9.85-8.28-.84-2.66-.85-5.36-.35-8.08.32-1.75.9-3.4,1.85-4.91,2.06-3.28,4.98-5.19,8.9-5.53,1.48-.13,2.92,0,4.35.35,2.56.63,4.37,2.21,5.67,4.44,1.07,1.84,1.59,3.84,1.77,5.93.09,1.02,0,2.05,0,3.08,0,.15-.05.29-.09.53Zm-18.18-3.35c4.64,0,9.19,0,13.77-.01.08-1.69-.25-3.19-1.01-4.61-.75-1.41-1.88-2.31-3.4-2.76-.82-.24-1.65-.3-2.49-.26-1.96.1-3.57.9-4.8,2.43-.95,1.19-1.54,2.57-1.88,4.06-.08.35-.12.71-.19,1.16Z"></path><path d="m449.04,211.24c.27,1.12.54,2.19.82,3.34-.77.26-1.48.55-2.22.76-2.87.82-5.8,1.15-8.75.72-4.95-.72-8.29-3.44-9.82-8.24-.86-2.68-.87-5.4-.36-8.14.23-1.23.58-2.42,1.12-3.55,1.31-2.73,3.23-4.87,6.08-6.03,3.04-1.23,6.13-1.26,9.19-.07,1.95.76,3.31,2.2,4.35,3.96,1.09,1.85,1.62,3.88,1.8,5.99.09,1,0,2.01,0,3.02,0,.17-.05.33-.09.57h-18.21c.04.6.05,1.13.11,1.65.47,4.15,3.61,7.06,7.81,7.26,2.36.11,4.69-.06,6.95-.8.38-.13.76-.28,1.22-.45Zm-16.05-11.11c.66.15,13.19.13,13.73,0,.01-.06.04-.12.04-.18.04-1.74-.38-3.36-1.33-4.83-.39-.6-.87-1.11-1.47-1.51-2.32-1.57-6.59-1.57-8.92,1.41-.94,1.2-1.54,2.57-1.87,4.06-.08.35-.12.71-.17,1.06Z"></path><path d="m457.91,189.73h4.05c.23,1.37.2,2.75.33,4.13.04.02.09.03.13.05.13-.18.26-.35.39-.53,1.56-2.23,3.71-3.56,6.38-4.01,2.51-.42,4.9-.04,7.05,1.39,1.78,1.18,2.85,2.89,3.42,4.92.42,1.47.63,2.98.63,4.51,0,4.94,0,9.88,0,14.82,0,.21-.02.42-.03.66h-4.57c-.02-.21-.05-.39-.05-.58,0-4.29,0-8.59,0-12.88,0-1.48.01-2.97-.35-4.42-.15-.6-.35-1.2-.63-1.75-.89-1.8-2.35-2.74-4.37-2.94-3.74-.38-6.11,2.15-7.07,4.43-.29.68-.4,1.4-.44,2.13-.02.43-.03.86-.03,1.29,0,4.68,0,9.36,0,14.04,0,.21,0,.42,0,.68h-4.62c0-.24-.02-.49-.02-.74,0-6.46.01-12.93,0-19.39,0-1.8-.11-3.6-.17-5.41,0-.11,0-.21,0-.39Z"></path><path d="m529.6,215.65h-4.05c-.21-1.38-.22-2.78-.43-4.24-.13.18-.26.36-.4.53-.44.53-.86,1.08-1.33,1.57-2.58,2.66-7.27,3.53-10.91,1.8-1.79-.85-2.99-2.28-3.74-4.1-.75-1.83-1.09-3.75-1.09-5.72,0-5.09,0-10.18.01-15.27,0-.15.02-.3.04-.49h4.58c0,.25.03.5.03.75,0,4.62,0,9.23,0,13.85,0,1.6.17,3.17.79,4.66.74,1.78,1.99,2.91,3.93,3.25,2.72.47,5.18-.88,6.59-3,.77-1.16,1.11-2.45,1.11-3.84,0-4.96,0-9.92,0-14.88v-.79h4.62c.12,8.64-.16,17.26.23,25.92Z"></path><path d="m598.92,190.83c-.37,1.08-.74,2.13-1.12,3.26-.23-.11-.41-.2-.6-.29-1.79-.9-3.68-1.29-5.69-1.07-.77.08-1.44.4-2.05.87-1.74,1.31-1.6,3.88-.09,5.11.81.66,1.72,1.14,2.67,1.54,1.05.45,2.11.86,3.15,1.33,1.05.47,1.96,1.15,2.78,1.96,1.12,1.11,1.7,2.45,1.86,4,.1.93.05,1.84-.16,2.75-.48,2.02-1.67,3.5-3.46,4.51-1.41.8-2.94,1.22-4.54,1.36-2.69.24-5.28-.19-7.75-1.28-.26-.11-.5-.25-.74-.39-.06-.03-.11-.07-.19-.12.36-1.15.7-2.27,1.07-3.44.23.1.4.16.57.25,1.67.85,3.43,1.38,5.3,1.52,1.09.08,2.14-.05,3.17-.45,2.66-1.05,2.93-4.69,1.08-6.19-.83-.67-1.74-1.18-2.72-1.59-.75-.32-1.52-.6-2.27-.92-1.14-.47-2.19-1.1-3.13-1.9-2.23-1.89-2.94-4.59-1.93-7.33.82-2.23,2.43-3.7,4.63-4.44,3.41-1.15,6.74-.83,9.94.81.06.03.11.07.24.15Z"></path><path d="m500.78,212.06c.07,1.2.14,2.32.21,3.52-.6.14-1.16.3-1.72.41-1.54.28-3.08.35-4.61-.06-.9-.24-1.74-.61-2.47-1.21-.83-.68-1.31-1.58-1.64-2.57-.45-1.38-.67-2.79-.67-4.24,0-4.59,0-9.19,0-13.78,0-.25,0-.51,0-.84h-4v-3.58h3.97c.08-1.61,0-3.17.05-4.78,1.5-.47,2.99-.94,4.56-1.43.1.73.04,1.39.05,2.04.01.69,0,1.37,0,2.06s0,1.33,0,2.08c2.24.05,4.44,0,6.69.03v3.56h-6.66c-.01.29-.03.5-.03.71,0,4.57-.01,9.14.01,13.72,0,.72.09,1.46.26,2.16.39,1.57,1.5,2.44,3.13,2.47.77.01,1.54-.11,2.31-.18.15-.01.29-.05.57-.09Z"></path><path d="m543.06,215.68h-4.59c-.13-8.64.15-17.26-.21-25.86.47-.14,3.25-.17,4.03-.03.09,1.67.17,3.35.26,5.03.04,0,.07.02.11.02.07-.12.15-.23.2-.35.46-1.15,1.11-2.18,1.98-3.07,1.7-1.72,3.74-2.46,6.15-2.14.06,0,.12.04.2.08v4.28c-.53,0-1.03.01-1.52,0-1.83-.06-3.32.66-4.5,2-1.15,1.31-1.86,2.83-1.95,4.59-.07,1.24-.13,2.49-.13,3.73-.02,3.69,0,7.39,0,11.08,0,.19-.02.38-.03.63Z"></path><polygon points="375.45 235.5 374.49 235.5 374.49 167.05 375.42 167.05 375.45 235.5"></polygon><path class="cls-2" d="m35.62,236.64c-3.51-.07-6.91-.68-10.25-1.78-6.09-2-11.38-5.25-15.76-9.93-4.31-4.61-7.14-10.01-8.6-16.12-.56-2.32-.9-4.67-1.06-7.05-.34-5.06.62-9.86,2.9-14.39,2.7-5.36,6.93-9.06,12.47-11.3,2.62-1.06,5.35-1.74,8.16-2.07,2.02-.24,4.03-.2,6.05-.01,3.71.34,7.23,1.3,10.53,3.02,3.59,1.87,6.46,4.53,8.7,7.88.05.07.18.35.18.35,0,0-.39-.22-.52-.31-1.11-.69-2.2-1.44-3.35-2.06-1.79-.97-3.74-1.52-5.75-1.84-3.11-.49-6.18-.23-9.17.75-2.04.67-3.91,1.68-5.55,3.08-.9.77-1.81,1.52-2.64,2.36-2.13,2.14-3.37,4.79-4.25,7.64-.88,2.85-1.3,5.77-1.15,8.76.32,6.26,2.19,11.96,6.27,16.82,2.31,2.75,5.12,4.88,8.32,6.52,3.07,1.57,6.31,2.62,9.71,3.18,2.66.44,5.35.52,8.04.29,3.89-.34,7.63-1.25,11.2-2.81.1-.04.2-.07.3-.11,0,0-8.45,9.14-24.79,9.14Z"></path></svg> 