<?xml version="1.0" encoding="UTF-8"?> <svg xmlns="http://www.w3.org/2000/svg" id="Layer_1" width="599.76" height="400.32" viewBox="0 0 599.76 400.32"><defs><style>.cls-1{fill:#fff;}</style></defs><path class="cls-1" d="m89.88,204.3s8.66-.02,12.99.03c3.45.04,6.82.62,9.93,2.22,4.56,2.35,7.29,6.09,8.1,11.14.66,4.13.09,8.08-2.11,11.72-1.76,2.91-4.31,4.89-7.41,6.2-2.23.94-4.57,1.51-6.99,1.57-3.88.09-11.63.14-11.63.14l-2.89.02v-33.04Zm9.24,24.76s2.54.03,3.77,0c.81-.02,1.63-.07,2.41-.23,2.81-.59,4.89-2.1,5.87-4.88.62-1.77.66-3.58.23-5.41-.3-1.28-.87-2.42-1.78-3.39-1.5-1.59-3.4-2.35-5.53-2.49-1.53-.1-4.97-.05-4.97-.05v16.46Z"></path><polygon class="cls-1" points="509.88 237.34 500.8 237.34 500.69 225.05 489.16 224.97 489.16 237.16 479.99 237.16 479.94 204.47 489.06 204.41 489.14 216.54 500.69 216.54 500.69 204.35 509.88 204.3 509.88 237.34"></polygon><path class="cls-1" d="m280.38,177.35v17.87h-9v-32.85h8.54s8.81,11.31,13.21,16.96c.06-.02.12-.04.18-.06v-16.87h9.04v32.88h-8s-9.22-11.84-13.97-17.93Z"></path><polygon class="cls-1" points="341.18 237.27 332.02 237.27 331.99 225.04 320.52 225.04 320.48 237.27 311.27 237.27 311.27 204.44 320.46 204.44 320.46 216.5 331.97 216.5 331.97 204.44 341.18 204.44 341.18 237.27"></polygon><path class="cls-1" d="m166.2,228.64v-3.85h-6.27l-.13-6.64,15.01-.12.08,14.9s-4.81,3.2-7.63,4.06c-2.71.83-5.49,1.1-8.29.88-5.28-.43-9.75-2.52-13-6.82-2.09-2.77-3.1-5.94-3.21-9.4-.08-2.34.19-4.62,1.02-6.82,1.86-4.9,5.25-8.36,10.21-10.01,6.51-2.16,12.74-1.46,18.46,2.54.49.34,1.45,1.14,1.45,1.14l-5.41,6.52s-.6-.43-.88-.64c-1.36-1.02-2.83-1.81-4.51-2.18-3-.66-5.74-.23-8.07,1.91-1.29,1.19-2.12,2.68-2.53,4.39-.57,2.36-.38,4.66.72,6.84,1.31,2.62,3.49,4.11,6.35,4.52,2.17.31,4.33.13,6.3-1,.1-.06.35-.22.35-.22Z"></path><polygon class="cls-1" points="357.52 162.38 357.55 174.52 369.02 174.52 369.06 162.38 378.25 162.38 378.25 195.22 369.11 195.22 369.06 182.88 357.57 182.88 357.55 195.22 348.3 195.22 348.3 162.38 357.52 162.38"></polygon><polygon class="cls-1" points="373.15 217.05 373.15 224.34 357.64 224.35 357.59 229.4 374.9 229.4 374.93 237.26 348.29 237.26 348.3 204.16 374.78 204.16 374.78 212.19 357.66 212.19 357.55 217.03 373.15 217.05"></polygon><path class="cls-1" d="m232.16,162.39h9.28s0,12.3,0,18.08c0,1.15.13,2.28.5,3.37.74,2.2,2.54,3.56,4.86,3.65.69.03,1.4.04,2.07-.09,2.41-.47,3.98-2.12,4.37-4.56.13-.8.19-1.61.19-2.42.02-5.63,0-18.01,0-18.01h9.23s.08,12.91.07,19.05c0,2.19-.38,4.31-1.19,6.34-1.37,3.45-3.83,5.82-7.33,6.98-4.62,1.54-9.29,1.56-13.89-.06-3.84-1.35-6.26-4.14-7.46-8-.57-1.85-.78-3.76-.78-5.69,0-5.93.06-18.64.06-18.64Z"></path><path class="cls-1" d="m233.96,237.21h-9.54l13.92-33.06h8.81s13.94,33.06,13.94,33.06h-9.84l-2.39-5.75h-12.55l-2.34,5.75Zm5.11-13.1l7.02-.09-3.47-8.85-3.55,8.94Z"></path><path class="cls-1" d="m415.97,237.16l-9.71.11-2.39-5.79h-12.57l-2.3,5.71-9.57.06,13.86-33.08h8.78s13.9,33,13.9,33Zm-21.87-13.09l7.01-.05-3.48-8.85-3.53,8.91Z"></path><path class="cls-1" d="m414.96,195.22l13.99-32.84h8.91l14,32.84h-9.89l-2.39-5.79h-12.55l-2.34,5.79h-9.71Zm14.79-13.08h7.1s-3.53-9.01-3.53-9.01l-3.58,9.01Z"></path><path class="cls-1" d="m228.66,195.24h-9.9l-2.4-5.83h-12.48l-2.43,5.8h-9.68l14-33.11h8.9l14.01,33.14Zm-18.52-22.12l-3.57,8.98h7.05s-3.49-8.98-3.49-8.98Z"></path><path class="cls-1" d="m396.49,185.89v9.33h-9.25v-32.84s9.95-.04,14.61-.04c2.37,0,4.67.39,6.84,1.38,3.62,1.65,5.74,4.42,6.27,8.4.34,2.54.06,4.98-1.07,7.28-1.24,2.53-3.3,4.16-5.86,5.21-2.11.87-4.33,1.22-6.6,1.27-1.59.04-3.19,0-4.94,0Zm.05-15.84v8.58s2.67.02,3.98,0c.63-.01,1.26-.06,1.87-.19,1.56-.34,2.78-1.15,3.26-2.75.63-2.1,0-4.84-3.4-5.45-1.87-.34-5.71-.18-5.71-.18Z"></path><path class="cls-1" d="m341.13,168.58c-2.33,1.81-4.59,3.55-6.91,5.35-.28-.3-.53-.55-.76-.81-1-1.11-2.15-2.02-3.57-2.54-3.71-1.35-7.66,0-9.48,3.53-1.72,3.33-1.61,6.68.32,9.88,1.6,2.66,4.63,3.89,7.69,3.38,1.83-.3,3.34-1.12,4.62-2.42.46-.47.93-.93,1.44-1.43,2.27,1.62,4.54,3.24,6.84,4.88-.59,1.01-1.3,1.77-2.03,2.52-3,3.11-6.69,4.68-10.99,4.93-3.47.2-6.78-.3-9.85-2-4.47-2.47-7.27-6.22-8.31-11.21-.82-3.9-.5-7.72,1.25-11.35,2.44-5.06,6.48-8.12,11.93-9.26,3.86-.81,7.66-.49,11.3,1.09,2.66,1.15,4.74,3.02,6.49,5.45Z"></path><polygon class="cls-1" points="464.39 237.27 455.2 237.27 455.16 212.45 445.32 212.45 445.32 204.48 474.13 204.45 474.13 212.4 464.44 212.4 464.39 237.27"></polygon><polygon class="cls-1" points="207.05 212.42 197.21 212.42 197.21 204.15 226 204.15 226 212.42 216.26 212.42 216.24 237.21 207.05 237.21 207.05 212.42"></polygon><polygon class="cls-1" points="421.12 237.22 421.12 204.48 430.24 204.42 430.28 229.18 446.12 229.18 446.12 237.18 421.12 237.22"></polygon><polygon class="cls-1" points="162.32 195.17 162.32 162.5 171.5 162.45 171.5 187.1 187.23 187.1 187.34 195.15 162.32 195.17"></polygon><polygon class="cls-1" points="265.99 204.38 274.93 204.38 275.03 229.18 290.86 229.19 290.86 237.17 266 237.21 265.99 204.38"></polygon><rect class="cls-1" x="182.02" y="204.38" width="9.17" height="32.88"></rect><polygon class="cls-1" points="136.63 237.27 134.67 237.27 134.6 204.31 136.56 204.01 136.63 237.27"></polygon><polygon class="cls-1" points="129.07 237.27 127.17 237.27 127.13 204 129.07 204.29 129.07 237.27"></polygon><polygon class="cls-1" points="130.91 204.44 132.7 204.44 132.78 237.21 130.91 237.24 130.91 204.44"></polygon><path class="cls-1" d="m457.02,162.38s9.87-.13,14.77.04c4.11.14,16.42,2.34,16.42,16.66s-14.4,15.94-16.5,16.11c-.6.05-1.2.07-1.8.08-4.09.05-12.89-.02-12.89-.02v-32.87Zm9.19,24.69s3.75,0,5.33-.16c2.16-.22,4.05-1.08,5.49-2.78,1.15-1.37,1.63-3,1.72-4.74.11-2.06-.26-4.02-1.54-5.71-1.59-2.09-3.82-2.94-6.34-3.12-1.35-.1-4.66-.05-4.66-.05v16.56Z"></path><path class="cls-1" d="m122.73,195.74c-.14-1.52-.41-4.42-.41-4.42,0,0-6.77.85-10.76,3.17-.02.01-2.25-18.34-1.82-25.32.06-.9.1-1.8.18-2.7.05-.62.33-1.14.75-1.6,1.64-1.82,3.65-3.13,5.87-4.11,1.5-.67,3.07-1.2,4.68-1.82.01-.18.04-.45.04-.71.02-2.02-.3-41.23,10.28-69.78.09-.24.19-.48.35-.87.17.39.3.65.4.93,10.21,26.78,10.3,68.96,10.35,70.52,1.11.4,2.22.76,3.3,1.19,4.75,1.96,6.72,4.32,6.74,4.34,1.88,1.49,1.28,7,1.06,11.59-.22,4.58-1.51,17.7-1.6,18.34-3.36-1.75-6.93-2.54-10.67-3.14-.13,1.47-.25,2.89-.38,4.38-1.07.25-2.08.49-3.14.73.14,1.08.49,2.35.18,3.65-4.13,1.22-8.25,1.16-12.5.02,0-.64-.04-1.23.01-1.82.05-.59.19-1.18.3-1.84-1.05-.24-2.08-.48-3.23-.75Zm9.1-85.68c-1.52,23.36-.26,79.72-.17,83.21.02.59.1,1.17.16,1.74,1.85.18,5.71-.22,7.7-.8.04-.12.14-.26.14-.39.02-1.28.36-2.57-.05-3.84-.06-.2-.07-.42-.08-.63-.07-1.98-.17-3.97-.2-5.95-.07-5.41.14-10.82.39-16.23.04-.84.09-1.68.18-2.52.16-1.55.3-3.11.55-4.65.13-.8.23-1.7.27-2.4.04-.7-.61-40.17-8.6-65.49-.05-.17-.15-.33-.25-.57-2.11,6.94-4.34,16.71-4.16,18.26,1.33.08,4.12.13,4.11.26Z"></path></svg> 