<?xml version="1.0" encoding="UTF-8"?> <svg xmlns="http://www.w3.org/2000/svg" xmlns:xlink="http://www.w3.org/1999/xlink" id="Layer_1" width="599.76" height="400.32" viewBox="0 0 599.76 400.32"><defs><style>.cls-1{fill:url(#linear-gradient);}.cls-2{fill:#a4cf57;}.cls-3{fill:#13a89e;}.cls-4{fill:#3a357e;}.cls-5{fill:url(#linear-gradient-8);}.cls-6{fill:url(#linear-gradient-9);}.cls-7{fill:url(#linear-gradient-3);}.cls-8{fill:url(#linear-gradient-4);}.cls-9{fill:url(#linear-gradient-2);}.cls-10{fill:url(#linear-gradient-6);}.cls-11{fill:url(#linear-gradient-7);}.cls-12{fill:url(#linear-gradient-5);}</style><linearGradient id="linear-gradient" x1="367.85" y1="96.82" x2="357.1" y2="157.76" gradientUnits="userSpaceOnUse"><stop offset="0" stop-color="#a4cf57"></stop><stop offset="1" stop-color="#13a89e"></stop></linearGradient><linearGradient id="linear-gradient-2" x1="325.86" y1="101.15" x2="325.86" y2="152.48" xlink:href="#linear-gradient"></linearGradient><linearGradient id="linear-gradient-3" x1="284.46" y1="140.7" x2="325.8" y2="164.56" gradientUnits="userSpaceOnUse"><stop offset="0" stop-color="#77be5b"></stop><stop offset=".21" stop-color="#5bb76d"></stop><stop offset=".56" stop-color="#34af87"></stop><stop offset=".83" stop-color="#1ba997"></stop><stop offset="1" stop-color="#13a89e"></stop></linearGradient><linearGradient id="linear-gradient-4" x1="413.26" y1="155.37" x2="365.79" y2="155.37" gradientUnits="userSpaceOnUse"><stop offset="0" stop-color="#65b770"></stop><stop offset=".09" stop-color="#5bb575"></stop><stop offset=".49" stop-color="#34ae8b"></stop><stop offset=".8" stop-color="#1ba998"></stop><stop offset="1" stop-color="#13a89e"></stop></linearGradient><linearGradient id="linear-gradient-5" x1="344.86" y1="77.91" x2="344.86" y2="113.67" xlink:href="#linear-gradient"></linearGradient><linearGradient id="linear-gradient-6" x1="296.86" y1="189.06" x2="326.93" y2="171.69" gradientUnits="userSpaceOnUse"><stop offset="0" stop-color="#76bd5d"></stop><stop offset="1" stop-color="#13a89e"></stop></linearGradient><linearGradient id="linear-gradient-7" x1="395.81" y1="180.65" x2="365.64" y2="180.65" gradientUnits="userSpaceOnUse"><stop offset="0" stop-color="#76bd5d"></stop><stop offset=".2" stop-color="#5bb76e"></stop><stop offset=".55" stop-color="#34af88"></stop><stop offset=".83" stop-color="#1ba998"></stop><stop offset="1" stop-color="#13a89e"></stop></linearGradient><linearGradient id="linear-gradient-8" x1="381.25" y1="133.82" x2="408.83" y2="117.9" gradientUnits="userSpaceOnUse"><stop offset="0" stop-color="#13a89e"></stop><stop offset=".23" stop-color="#1ba999"></stop><stop offset=".6" stop-color="#34ad8d"></stop><stop offset="1" stop-color="#56b37d"></stop></linearGradient><linearGradient id="linear-gradient-9" x1="284.39" y1="114.69" x2="306.59" y2="136.9" gradientUnits="userSpaceOnUse"><stop offset="0" stop-color="#64b671"></stop><stop offset="1" stop-color="#13a89e"></stop></linearGradient></defs><path class="cls-2" d="m147.48,205.45c.34-.12.39-.37.39-.64,0-.74,0-1.47,0-2.21,0-1.1-.02-2.21-.02-3.31,0-.4,0-.81.29-1.18.36-.22.77-.14,1.16-.08.87.13,1.73.3,2.6.46,1.8.35,3.6.7,5.39,1.06,1.52.3,1.55.59,1.55,1.79-.02,7.02-.03,14.05-.04,21.07,0,.18.03.38-.02.55-.26.98-.16,1.97-.16,2.96-.01,3.35-.01,6.69,0,10.04.01,3.15-.43,6.23-1.4,9.21-.9,2.76-2.35,5.22-4.59,7.15-1.38,1.19-2.96,2.06-4.65,2.7-2,.76-4.09,1.13-6.21,1.38-2.24.27-4.48.18-6.72.14-1.13-.02-2.25-.27-3.38-.38-1.25-.11-2.46-.38-3.67-.68-2.3-.57-4.49-1.41-6.55-2.57-.48-.27-.91-.61-1.26-.84-.26-.53-.16-.92-.08-1.32.35-1.76.69-3.53,1.04-5.29.09-.46.2-.92.32-1.44.25-.03.47-.11.65-.06.31.1.6.28.89.43,1.67.85,3.33,1.73,5.13,2.3,1.75.55,3.53.96,5.35,1.22,1.58.22,3.16.26,4.73.14,2.38-.18,4.62-.89,6.54-2.36,1.57-1.2,2.59-2.77,2.92-4.77.22-1.32.26-2.62.03-3.94-.07-.43-.02-.88-.05-1.32-.01-.18-.07-.35-.12-.52,0-.02-.06-.03-.16-.08-.11.1-.24.21-.35.33-1.68,1.84-3.6,3.36-5.9,4.35-1.46.63-2.97,1.03-4.56,1.21-.88.1-1.75.21-2.63.17-2.92-.13-5.77-.64-8.38-2.03-1.53-.81-2.95-1.78-4.18-3.03-1.14-1.15-2.24-2.33-3.12-3.7-1.41-2.19-2.31-4.58-2.86-7.12-.55-2.5-.6-5.05-.38-7.57.3-3.47,1.27-6.76,3.08-9.79,1.23-2.04,2.79-3.78,4.55-5.36,1.41-1.27,3.08-2.12,4.84-2.81,1.31-.51,2.67-.8,4.05-1.02.36-.06.73-.05,1.1-.05.96,0,1.91-.02,2.87,0,2.25.04,4.32.69,6.29,1.77,1.85,1.01,3.27,2.48,4.58,4.08.32.39.62.83,1.13.94Zm-10.52,27.67c.37-.05,1.06-.12,1.75-.23,1.72-.27,3.22-1.02,4.51-2.16,3.02-2.65,4.43-6.05,4.62-10.01.04-.84-.05-1.68-.15-2.52-.26-2.15-.89-4.16-2.09-5.97-.8-1.2-1.74-2.28-2.93-3.11-2.36-1.65-5.02-2.06-7.79-1.67-2.58.36-4.71,1.65-6.32,3.7-1.98,2.5-2.94,5.39-3.06,8.56-.06,1.59.16,3.14.59,4.67.7,2.51,2.01,4.61,3.98,6.33,1.89,1.65,4.11,2.34,6.91,2.41Z"></path><path class="cls-3" d="m449.53,239.2c-.18.27-.36.43-.4.62-.12.57-.2,1.15-.27,1.74-.09.73-.15,1.46-.26,2.19-.04.24-.18.46-.29.72-1.21.14-2.38.05-3.55.07-1.14.02-2.28,0-3.42,0-1.17,0-2.34.02-3.57-.02-.04-.29-.12-.5-.09-.7.22-1.6.33-3.21.4-4.82.07-1.5.13-3.01.18-4.51.02-.66.03-1.32.04-1.98.02-.92-.07-1.84.15-2.75.05-.21.02-.44.02-.66.02-4.27.05-8.53.05-12.8,0-2.79.03-5.59-.08-8.38-.06-1.61-.13-3.23-.16-4.85,0-.26-.03-.51-.03-.77-.01-.84-.03-1.68-.13-2.53-.12-.98-.07-1.98-.09-2.97-.01-.77-.04-1.53-.13-2.31-.12-.98-.06-1.98-.09-2.97-.07-1.8-.14-3.6-.23-5.39-.04-.77-.13-1.53-.19-2.3-.03-.37-.04-.74.18-1.08.26-.26.59-.4.98-.4.37,0,.74-.06,1.1-.04,1.47.09,2.93-.17,4.4-.22.84-.03,1.67-.22,2.5-.34.91-.13,1.82-.18,2.8-.01.06.25.16.5.16.73-.03,1.25.11,2.5-.13,3.74-.1.54-.05,1.1-.09,1.65-.04.58-.11,1.17-.17,1.75-.01.11-.04.22-.04.33-.03,1.47,0,2.93-.15,4.4-.11,1.09.03,2.21-.1,3.3-.2,1.65-.08,3.3-.18,4.95-.03.51.01,1.03.08,1.54.05.37.22.71.71.81.15-.1.34-.21.49-.35.26-.26.5-.54.74-.82,2.43-2.85,5.5-4.58,9.15-5.33.72-.15,1.45-.24,2.18-.25.25,0,.51-.07.76-.09.48-.03.96-.11,1.43-.07,1.17.1,2.34.21,3.49.4,3.62.58,6.78,2.13,9.48,4.6,3.11,2.85,5.26,6.3,6.5,10.32.53,1.72.85,3.48,1.06,5.28.22,1.95.15,3.89.12,5.83,0,.51-.14,1.02-.21,1.53-.3,2.16-.88,4.24-1.75,6.24-.57,1.32-1.26,2.58-2.07,3.76-2.07,3.01-4.62,5.52-7.86,7.27-.87.47-1.8.86-2.74,1.16-1.19.38-2.41.62-3.65.8-1.03.15-2.05.18-3.08.16-2.51-.07-4.95-.51-7.3-1.47-1.69-.69-3.16-1.7-4.52-2.9-.66-.58-1.35-1.13-2.14-1.79Zm11.61-3.24c3.27.03,5.89-.93,7.92-2.63,3.67-3.08,5.95-8.23,5.23-13.49-.16-1.16-.33-2.32-.76-3.43-.64-1.66-1.49-3.19-2.62-4.57-2.94-3.58-6.63-5.18-11.29-4.47-2.11.32-3.96,1.18-5.54,2.53-2.46,2.1-4.19,4.7-4.93,7.9-.46,2.02-.64,4.04-.33,6.11.5,3.32,1.94,6.13,4.3,8.5,2.35,2.36,5.21,3.49,8.01,3.55Z"></path><path class="cls-1" d="m366.01,96.49c.32.38.64.73.92,1.11,2.6,3.53,4.83,7.28,6.59,11.31,1.13,2.6,2.09,5.26,2.77,8.01.37,1.5.67,3.01.84,4.54.1.95.2,1.89.21,2.85,0,.25.07.51.08.76.03.55.15,1.12.05,1.64-.14.73-.11,1.46-.16,2.19-.12,1.95-.5,3.86-1.01,5.74-.86,3.18-2.23,6.13-4.03,8.89-1.13,1.73-2.36,3.37-3.79,4.86-.69.71-1.31,1.5-2.04,2.16-1.65,1.51-3.35,2.98-5.18,4.27-1.08.76-2.18,1.5-3.28,2.24-.11.08-.25.12-.45.22-.12-.8-.1-1.52-.02-2.24.02-.18.09-.36.1-.54.1-1.5.18-3,.29-4.5.09-1.17.23-2.33.35-3.5.09-.84.18-1.68.26-2.52.39-3.98,1.05-7.93,1.87-11.84.34-1.61.84-3.19,1.28-4.79.1-.38.23-.76.36-1.16-.35-.03-.38.22-.46.39-1.17,2.37-2.37,4.73-3.48,7.13-1.7,3.67-3.13,7.44-4.3,11.32-.7,2.33-1.23,4.68-1.6,7.08-.13.87-.2,1.75-.24,2.63-.03.69.04,1.38.07,2.11-.21-.06-.23-.29-.33-.44-.12-.18-.24-.37-.35-.56-1.33-2.42-2.36-4.98-3.14-7.63-.51-1.73-.97-3.47-1.21-5.25-.1-.73-.25-1.45-.33-2.17-.19-1.72-.29-3.44-.29-5.16.01-3.09.36-6.15,1.01-9.17.75-3.46,1.93-6.77,3.44-9.97,1.97-4.18,4.47-8.01,7.32-11.63,2.33-2.95,4.95-5.62,7.64-8.24.03-.02.06-.04.23-.14Z"></path><path class="cls-2" d="m207.05,226.91c.29,1.87,1.02,3.42,2.18,4.74,1.12,1.27,2.38,2.39,3.88,3.23,1.3.72,2.67,1.22,4.11,1.54,1.42.32,2.86.32,4.28.18,2.3-.23,4.54-.76,6.69-1.7,2.25-.98,4.24-2.34,6.14-3.85.19-.15.42-.26.57-.36.12.03.16.04.19.05.03.02.06.04.09.07.07.09.14.17.19.27,1.06,2.02,2.12,4.03,3.13,5.96,0,.56-.26.87-.55,1.16-1.68,1.76-3.51,3.33-5.67,4.51-1.95,1.07-4,1.86-6.16,2.33-1.61.35-3.25.61-4.91.55-.59-.02-1.18-.01-1.77,0-2.48.05-4.89-.36-7.27-1.03-2.22-.62-4.28-1.56-6.16-2.88-1.11-.78-2.21-1.59-3.15-2.58-1.9-1.99-3.38-4.25-4.43-6.79-.83-2.02-1.3-4.11-1.59-6.27-.31-2.28-.29-4.56-.12-6.82.22-2.94,1.01-5.77,2.33-8.44.84-1.69,1.81-3.29,2.98-4.75,1.79-2.22,3.89-4.08,6.35-5.55,2.12-1.26,4.41-2,6.81-2.42,1.55-.27,3.14-.39,4.72-.24,1.67.16,3.34.39,4.96.92,1.58.52,3.07,1.24,4.46,2.15,1.69,1.12,3.19,2.47,4.47,4.05.79.97,1.54,1.96,2.18,3.04,1.29,2.18,2.09,4.52,2.57,6.99.14.72.2,1.45.26,2.18.06.77.21,1.52.17,2.3-.05.93-.23,1.81-.66,2.64-.57,1.09-1.52,1.73-2.64,2.01-1.13.28-2.31.36-3.48.5-1.05.13-2.11.25-3.16.37-.07,0-.14.03-.22.04-1.13.09-2.27.17-3.4.27-1.24.11-2.48.24-3.71.36-.07,0-.15.03-.22.03-1.13.08-2.27.14-3.4.25-1.57.15-3.15.15-4.71.41-.04,0-.07,0-.11,0-1.43.09-2.85.2-4.28.25-.63.02-1.22.16-1.94.32Zm3.34-7.92s0-.03,0-.04c.74,0,1.49.1,2.2-.03.73-.13,1.46-.11,2.19-.17.73-.06,1.46-.14,2.18-.2,1.06-.09,2.12-.17,3.17-.27.65-.06,1.31-.16,1.96-.25.87-.12,1.74-.24,2.6-.38.79-.13,1.59-.26,2.37-.44.79-.19,1.04-.55.93-1.36-.07-.58-.21-1.15-.36-1.72-.48-1.84-1.52-3.32-2.9-4.59-1.99-1.84-4.26-2.95-7.05-2.85-1.85.07-3.53.56-5.09,1.54-.95.59-1.73,1.36-2.5,2.14-1.99,2.02-3.14,4.4-3.17,7.27,0,.71.17,1.03.83,1.23.28.08.58.1.87.11.59.02,1.18,0,1.76,0Z"></path><path class="cls-2" d="m254.33,226.9c.24,1.8.93,3.29,2.01,4.57,2.22,2.64,4.99,4.39,8.45,4.97,1.57.27,3.13.24,4.71.03.91-.12,1.81-.26,2.7-.48,2.27-.55,4.37-1.5,6.34-2.74,1.12-.7,2.19-1.49,3.2-2.34.11-.09.24-.15.38-.24.14.09.28.15.37.26.14.17.25.36.36.55.8,1.53,1.61,3.06,2.4,4.59.21.42.37.87.56,1.33-.23.3-.4.59-.62.83-1.38,1.5-2.9,2.84-4.63,3.89-1.6.97-3.29,1.8-5.1,2.35-1.37.42-2.77.68-4.19.91-2.2.35-4.4.22-6.61.15-1.09-.03-2.18-.27-3.26-.48-2.14-.41-4.18-1.12-6.11-2.14-1.3-.7-2.5-1.53-3.65-2.46-1.71-1.38-3.08-3.04-4.25-4.88-1.13-1.78-2-3.68-2.55-5.72-.63-2.35-1.01-4.74-.92-7.18.03-.73,0-1.47,0-2.21-.01-1.89.31-3.73.8-5.54.9-3.31,2.49-6.28,4.62-8.95,2.01-2.53,4.41-4.62,7.32-6.07,1.85-.92,3.82-1.54,5.86-1.86,1.52-.24,3.07-.36,4.61-.24,3.42.28,6.62,1.19,9.51,3.14,2.29,1.54,4.22,3.44,5.77,5.7,1.81,2.64,2.98,5.55,3.45,8.74.11.73.2,1.45.21,2.19,0,.15,0,.3.04.44.35,1.07.13,2.15-.15,3.15-.44,1.6-1.57,2.65-3.22,2.98-1.15.23-2.32.33-3.48.47-1.02.13-2.03.25-3.05.38-.07,0-.15.02-.22.02-1.17.09-2.36.09-3.51.28-1.2.21-2.43.06-3.61.36-.04,0-.07,0-.11.01-1.13.08-2.27.14-3.4.25-1.57.15-3.15.15-4.71.41-.04,0-.07,0-.11,0-1.43.09-2.86.2-4.29.25-.63.02-1.22.16-1.93.31Zm-.26-9.19c.16.92.74,1.22,1.51,1.26.18.01.37.03.55.02,1.5-.1,3,.05,4.51-.18,1.11-.17,2.26-.09,3.39-.25,1.09-.15,2.19-.19,3.28-.27.11,0,.22-.04.32-.06.83-.12,1.66-.24,2.5-.35.8-.1,1.6-.17,2.4-.29.58-.09,1.15-.24,1.71-.38.36-.09.7-.23.93-.56.03-.09.09-.2.08-.3-.04-.4-.11-.8-.16-1.19-.16-1.22-.59-2.33-1.25-3.38-.64-1-1.4-1.89-2.31-2.65-1.26-1.04-2.63-1.85-4.25-2.23-.84-.2-1.68-.19-2.52-.19-1.7,0-3.24.54-4.7,1.38-1.1.63-1.98,1.52-2.85,2.41-1.75,1.8-2.85,3.89-3.02,6.43-.02.25-.09.5-.15.78Z"></path><path class="cls-2" d="m302.42,200.04c.4.22.38.61.41.97.13,1.69.49,3.34.92,4.97.03.1.1.19.18.36.19-.05.42-.06.57-.17.87-.62,1.71-1.27,2.57-1.9.98-.72,1.95-1.44,2.95-2.14,1.94-1.37,4.09-2.31,6.4-2.87,1-.24,2.01-.42,3.05-.4.7.01,1.4-.02,2.1.02,2.33.14,4.58.58,6.66,1.7,2.14,1.14,3.62,2.86,4.48,5.1.81,2.11,1.12,4.31,1.33,6.56.23,2.43.08,4.85.15,7.27.02.55.02,1.1-.13,1.64-.08.28-.05.58-.05.88,0,2.83,0,5.66,0,8.5,0,.4.07.8.11,1.2.03.29.07.58.07.88.02,3.49.03,6.99.04,10.48,0,.4.06.81-.18,1.18-.31.28-.69.19-1.05.19-2.36,0-4.71,0-7.07,0-.66,0-1.32-.02-1.85-.02-.54-.29-.62-.68-.62-1.1,0-.92,0-1.84,0-2.76,0-.81.02-1.62.03-2.43.02-.81-.07-1.62.16-2.41.05-.17.02-.37.02-.55,0-5.92,0-11.84,0-17.77-.23-1.78-.22-3.58-.81-5.31-.6-1.76-1.73-2.96-3.45-3.61-1.54-.58-3.14-.8-4.76-.66-1.06.09-2.08.47-3.05.92-1.67.78-3.27,1.69-4.72,2.83-.69.54-1.32,1.17-1.93,1.81-.57.61-.82,1.35-.81,2.22.03,3.49.01,6.99.01,10.48,0,5.48,0,10.96,0,16.44,0,.63-.03,1.24-.4,1.83-.25.03-.5.09-.75.09-2.76,0-5.52.01-8.28,0-1.09,0-1.3-.2-1.31-1.29,0-2.39.02-4.78.03-7.17,0-.81-.02-1.62,0-2.43.01-.47.09-.95.13-1.42.03-.37.05-.73.05-1.1,0-2.5,0-5,0-7.5,0-1.54,0-3.09,0-4.63,0-.84.08-1.69-.16-2.52-.03-.1-.02-.22-.02-.33.01-1.69-.24-3.36-.42-5.04-.24-2.23-.66-4.42-1.13-6.61-.11-.5-.25-1-.38-1.5-.08-.32-.14-.65.05-.99.27-.23.64-.32.99-.38,1.59-.25,3.19-.47,4.78-.72,1.09-.17,2.16-.39,3.25-.57.61-.1,1.23-.16,1.84-.24Z"></path><path class="cls-3" d="m419.28,237.68c-.37-.05-.58.24-.83.45-1.12.95-2.29,1.84-3.51,2.66-1.81,1.23-3.74,2.2-5.8,2.91-1.14.4-2.32.66-3.53.84-1.1.16-2.2.19-3.3.15-2.36-.08-4.68-.42-6.86-1.41-2.76-1.25-4.78-3.27-5.93-6.08-.75-1.84-1.19-3.78-1.39-5.76-.05-.51-.13-1.02-.2-1.53-.23-1.68-.17-3.38-.31-5.06-.16-1.99-.11-3.97-.13-5.95,0-.51.08-1.02.12-1.53.02-.33.03-.66.04-.99.02-1.03-.02-2.06.07-3.09.23-2.33.35-4.68.78-6.99.25-1.33.49-2.67.74-4,.06-.32.16-.64.29-.94.26-.58.68-.93,1.36-.93,1.51.01,3.03-.1,4.52.04,1.25.11,2.49.1,3.74.16.07,0,.14.04.21.05.28.17.41.42.41.73,0,.51.03,1.03-.04,1.54-.24,1.97-.55,3.93-.74,5.9-.2,2.04-.51,4.07-.57,6.13-.06,2.2-.12,4.41-.12,6.61,0,1.87.17,3.74.35,5.6.12,1.21.31,2.4.71,3.55.61,1.77,1.69,3.16,3.29,4.14.86.53,1.8.81,2.77,1.05,1.23.31,2.48.28,3.73.22,1.08-.05,2.07-.46,3.04-.91,1.71-.8,3.25-1.88,4.69-3.08.76-.63,1.46-1.34,2.01-2.19.59-.91.99-1.88,1-2.99.01-1.29.02-2.57.05-3.86.01-.51.08-1.02.11-1.53.02-.4.04-.81.04-1.21,0-5.66,0-11.33,0-16.99,0-.44,0-.88.06-1.32.13-1.08.71-1.5,1.68-1.49,1.95.02,3.9,0,5.85,0,.63,0,1.25,0,1.88,0,.29,0,.58.05.78.07.52.37.61.85.62,1.33.02.74.01,1.47,0,2.21,0,.73-.04,1.47-.05,2.2-.01,1.14.01,2.28-.14,3.41-.1.72-.05,1.47-.08,2.2-.14,3.85-.28,7.71-.23,11.57.04,2.68-.03,5.37.09,8.05.06,1.47.12,2.93.14,4.4.02,1.8.04,3.6.06,5.4,0,.37-.04.75.05,1.1.14.54.03,1.01-.18,1.48-.34.36-.75.45-1.22.45-2.76,0-5.52.03-8.28.04-.25,0-.5-.06-.73-.08-.39-.55-.43-1.14-.46-1.72-.04-.77-.02-1.54-.07-2.31-.04-.66-.11-1.32-.22-1.96-.05-.27-.07-.6-.4-.76Z"></path><path class="cls-9" d="m334.03,152.46c-.39.06-.72-.14-1.05-.29-2.74-1.28-5.3-2.85-7.68-4.74-1.65-1.31-3.19-2.73-4.6-4.28-1.73-1.9-3.27-3.97-4.58-6.19-1.46-2.48-2.65-5.08-3.58-7.8-.75-2.19-1.3-4.44-1.67-6.73-.27-1.67-.47-3.34-.65-5.02-.09-.8-.07-1.62-.07-2.42,0-1.88,0-3.75.06-5.63.04-1.13.2-2.26.33-3.39.16-1.38.35-2.77.54-4.15.03-.21.1-.42.16-.68.21.03.39.03.56.07,3.96,1.06,7.72,2.62,11.32,4.57,1.58.86,3.14,1.77,4.57,2.88.96.74,1.98,1.4,2.9,2.19,1.81,1.57,3.51,3.25,4.95,5.16,1.8,2.39,3.29,4.95,4.27,7.8.64,1.85,1.15,3.72,1.42,5.65.25,1.75.35,3.51.31,5.27-.11,4.78-1.14,9.39-2.7,13.89-.05.14-.1.28-.16.41-.11.27-.22.54-.33.81-.34,0-.41-.28-.55-.48-1.89-2.77-3.63-5.62-5.35-8.49-1.51-2.52-2.97-5.07-4.29-7.7-1.24-2.46-2.42-4.95-3.29-7.58-.07-.21-.03-.53-.38-.63-.09.86.15,1.68.3,2.5.58,3.22,1.29,6.41,2.16,9.56.94,3.4,2.09,6.74,3.62,9.93.81,1.69,1.76,3.31,2.94,4.78.18.23.34.48.5.72l.02-.02Z"></path><path class="cls-3" d="m339.38,166.2c.2-.15.35-.33.54-.41,1.52-.65,3.06-1.23,4.68-1.62,1.33-.32,2.63-.22,3.92.13,1.24.34,2.44.81,3.61,1.35.3.14.61.26.81.67.11.46.02,1-.01,1.55-.06.92-.11,1.83-.16,2.75-.04.7-.1,1.39-.12,2.09-.04,1.1-.08,2.2-.1,3.31-.03,1.36.07,2.72-.16,4.07-.02.11,0,.22,0,.33-.02,1.99-.03,3.97-.06,5.96-.01,1.06.09,2.13-.15,3.19-.03.14-.01.29-.01.44-.02,2.83-.03,5.66-.06,8.49,0,.66-.08,1.32-.11,1.98-.04.92-.08,1.84-.1,2.75-.03,1.58-.04,3.16-.15,4.74-.12,1.76-.05,3.53-.09,5.29-.02.77-.09,1.54-.12,2.31-.02.4-.03.81-.03,1.21,0,8.5,0,16.99,0,25.49,0,.33,0,.66,0,.99-.02.41-.11.8-.46,1.17-.19.02-.44.08-.69.08-2.76,0-5.52,0-8.28,0-.25,0-.51-.04-.73-.06-.38-.31-.44-.72-.47-1.12-.03-.37-.02-.73-.02-1.1,0-8.24,0-16.48,0-24.72,0-.59-.06-1.17-.1-1.76-.02-.29-.05-.59-.06-.88-.02-1.8-.04-3.6-.06-5.4-.01-.88.06-1.76-.14-2.64-.06-.28-.02-.59-.02-.88-.02-1.47.03-2.95-.07-4.41-.24-3.38-.1-6.76-.23-10.14-.15-3.67-.16-7.35-.2-11.02-.29-2.23-.1-4.48-.22-6.71-.11-1.98-.24-3.96-.35-5.94-.03-.51,0-1.02,0-1.54Z"></path><path class="cls-7" d="m303.78,153.12c.06.35.38.43.63.55,1.26.6,2.52,1.21,3.79,1.78,2.69,1.2,5.43,2.26,8.22,3.17,2.38.77,4.79,1.39,7.27,1.78.36.06.73.05,1.1.08.29.02.59.04.87.09.62.12,1.24.14,1.85-.04.17-.05.36-.04.54-.05.04.29-.17.32-.31.4-2.95,1.8-6.17,2.92-9.52,3.69-1.65.38-3.31.63-5.01.74-.8.05-1.61.14-2.41.14-1.69.01-3.37-.18-5.04-.38-2.27-.28-4.47-.84-6.64-1.56-2.98-.98-5.79-2.34-8.47-3.97-2.9-1.76-5.59-3.8-8.11-6.07-1.01-.91-1.97-1.88-2.95-2.82-.18-.18-.34-.38-.49-.54,0-.35.24-.48.44-.64,2.14-1.69,4.43-3.15,6.83-4.45,3.44-1.88,7.06-3.27,10.9-4.08,1.65-.35,3.32-.62,5.02-.59.48,0,.96,0,1.44,0,3.86-.03,7.48.91,10.94,2.59,2.91,1.41,5.45,3.32,7.75,5.57,2.14,2.09,4,4.41,5.65,6.9.12.18.21.38.31.57.01.03-.01.07-.03.14-.57.11-1.17.14-1.74.03-1.02-.21-2.05-.09-3.08-.18-1.39-.13-2.77-.24-4.16-.36-.18-.02-.37-.03-.55-.03-1.32-.07-2.63-.23-3.94-.42-1.42-.2-2.85-.3-4.26-.56-1.84-.34-3.68-.67-5.49-1.18-.45-.13-.93-.18-1.4-.27-.04-.05-.08-.1-.13-.14-.02-.02-.06,0-.09-.01.01.04.02.11.05.12.06.02.12.01.19.01Z"></path><path class="cls-8" d="m367.5,163.71c2.64-1.33,5.08-2.6,7.59-3.73,2.54-1.16,5.1-2.27,7.71-3.26,2.56-.97,5.19-1.75,7.82-2.52-.37-.23-.72-.18-1.08-.11-.25.05-.51.11-.76.11-1.36-.04-2.71.16-4.06.3-1.89.19-3.78.44-5.66.78-1.99.36-3.96.78-5.91,1.32-2.57.7-5,1.69-7.25,3.1-.22-.13-.08-.26-.02-.36,1.34-2.25,2.88-4.34,4.73-6.21,1.61-1.63,3.27-3.18,5.18-4.44.98-.65,1.97-1.28,3-1.86,3.13-1.78,6.49-2.92,9.99-3.66,1.29-.27,2.6-.45,3.91-.6,2.42-.28,4.84-.22,7.27-.15,1.17.04,2.33.25,3.49.36,1.83.16,3.63.55,5.42.94,1.32.29,2.63.67,3.94,1.01.14.04.27.11.45.2-.05.22-.07.43-.15.62-1.56,3.83-3.59,7.39-6.09,10.7-1.56,2.06-3.35,3.91-5.27,5.62-1.7,1.52-3.61,2.79-5.65,3.82-2.57,1.3-5.29,2.13-8.17,2.51-1.98.26-3.97.28-5.94.12-3.08-.25-6.08-.99-8.98-2.09-1.62-.61-3.2-1.3-4.75-2.06-.19-.1-.38-.21-.76-.43Z"></path><path class="cls-2" d="m175.83,199.21c.47.31.52.74.6,1.12.14.64.18,1.31.27,1.96.08.54.16,1.09.29,1.62.06.24.23.44.32.6.39.18.64.02.89-.15.99-.63,1.97-1.29,2.98-1.89,1.42-.86,2.88-1.63,4.48-2.1,1.17-.34,2.35-.57,3.57-.6.92-.02,1.84-.03,2.76,0,.51.02,1.02.12,1.51.25.23.06.41.27.63.42.02.37.03.7.04,1.03.07,1.91-.17,3.81-.28,5.72-.06,1.02-.27,2.03-.45,3.04-.04.23-.24.43-.38.67-1.18.02-2.31.11-3.44-.12-.25-.05-.51-.07-.77-.07-1.25-.02-2.5-.08-3.75-.01-1.55.08-3.05.43-4.37,1.33-1.05.72-1.71,1.7-2.04,2.92-.16.6-.32,1.21-.39,1.83-.12,1.09-.24,2.19-.25,3.29-.03,3.57-.02,7.13,0,10.7,0,.4.07.8.11,1.2.02.26.06.51.07.77.02,1.03.02,2.06.04,3.09.01.81-.08,1.62.16,2.41.03.1.02.22.02.33.01,1.51.04,3.01.03,4.52,0,1.23-.19,1.4-1.42,1.4-2.61,0-5.23,0-7.84,0-.26,0-.52,0-.77-.04-.39-.06-.66-.34-.69-.74-.02-.26-.02-.51-.02-.77,0-3.2,0-6.4,0-9.6,0-.44.08-.87.12-1.31.03-.29.05-.59.06-.88.02-3.27.03-6.55.04-9.82,0-1.73.08-3.47-.07-5.18-.12-1.42-.07-2.86-.33-4.27-.15-.83-.17-1.68-.26-2.51-.26-2.38-.72-4.71-1.38-7.01-.07-.25-.15-.49-.18-.75-.05-.5.24-.86.73-.93.73-.1,1.46-.15,2.18-.25,1.56-.21,3.13-.38,4.67-.72.82-.18,1.65-.32,2.49-.48Z"></path><path class="cls-3" d="m354.38,211.55c0-.43-.04-.75,0-1.06.22-1.64.45-3.28.92-4.86.36-1.2.82-2.37,1.59-3.37.22-.29.48-.56.79-.75,1.98-1.25,4.13-2.04,6.45-2.45,1.76-.31,3.53-.29,5.28-.15,2.21.18,4.35.68,6.3,1.81,1.87,1.09,3.26,2.6,4.12,4.6.64,1.5,1.02,3.06,1.25,4.67.33,2.26.46,4.53.42,6.81-.02.96,0,1.91,0,2.87,0,.66.03,1.32-.13,1.98-.07.28-.03.59-.03.88,0,2.02-.01,4.05,0,6.07,0,1.03-.09,2.06.14,3.08.06.25.02.51.02.77,0,1.54,0,3.09,0,4.63.01,1.84.04,3.68.05,5.51,0,.37-.01.74-.07,1.1-.04.24-.16.47-.26.74-.28.04-.52.1-.77.1-2.72,0-5.45,0-8.17,0-.33,0-.66-.04-.91-.06-.49-.3-.64-.7-.64-1.17,0-1.54-.1-3.1.03-4.63.17-2.06.17-4.11.19-6.17,0-.73,0-1.46.12-2.2.09-.61.03-1.25,0-1.87-.02-.59-.11-1.17-.12-1.75-.03-1.47.05-2.95-.09-4.41-.18-2.06-.11-4.11-.14-6.17-.01-1.19-.2-2.35-.57-3.47-.83-2.53-2.62-3.98-5.21-4.54-2.03-.44-3.94-.14-5.8.7-1.48.67-2.88,1.47-4.22,2.39-.15.1-.29.21-.54.38Z"></path><path class="cls-12" d="m344.38,96.13c-.31.12-.35.36-.42.56-.94,2.9-1.74,5.84-2.26,8.85-.29,1.67-.45,3.35-.47,5.04,0,1.02.12,2.04.19,3.09-.21.1-.27-.13-.36-.25-2.12-2.88-3.63-6.04-4.37-9.55-.25-1.18-.43-2.38-.5-3.59-.04-.73-.19-1.46-.14-2.19.15-2.34.4-4.67,1.04-6.95,1.03-3.68,2.7-7.06,4.81-10.22.57-.86,1.17-1.69,1.77-2.53.12-.17.3-.31.45-.46.14.07.25.1.32.17,1.39,1.32,2.7,2.7,3.85,4.24,1.32,1.78,2.45,3.67,3.37,5.68.88,1.95,1.5,3.97,1.82,6.1.22,1.43.22,2.87.13,4.29-.12,1.8-.55,3.55-1.23,5.23-1.04,2.58-2.51,4.9-4.38,6.96-.64.7-1.29,1.4-1.95,2.1-.35.37-.75.67-1.2.9-.08-.11-.16-.16-.16-.21-.11-1.43-.15-2.86-.32-4.28-.31-2.68-.17-5.36-.2-8.04-.02-1.36-.04-2.72.21-4.06.05-.27,0-.55,0-.86Z"></path><path class="cls-10" d="m296.53,188.48c.25-.74.45-1.45.72-2.13,1.01-2.61,2.28-5.09,3.91-7.38,1.94-2.74,4.32-4.99,7.28-6.6,1.56-.85,3.22-1.42,4.97-1.75.65-.12,1.31-.17,1.96-.25.25-.03.51-.08.76-.1.51-.03,1.03-.13,1.53-.06,1.52.2,3.07.25,4.57.62,1.75.43,3.47.94,5.12,1.67.06.03.1.11.14.16-.89.79-3.17,2.15-7.46,4.43-2.53,1.35-5.11,2.58-7.86,3.45.04.24.21.17.32.19.11.02.22.02.33,0,3.81-.62,7.59-1.35,11.21-2.71,2.13-.8,3.12-1.27,4.96-2.61.21.15.07.31,0,.45-.85,1.72-1.91,3.3-3.14,4.77-1.57,1.88-3.39,3.45-5.43,4.79-2.58,1.69-5.41,2.78-8.42,3.43-1.04.22-2.09.36-3.15.5-1.94.25-3.89.19-5.83.15-.8-.02-1.61-.1-2.41-.22-1.27-.18-2.55-.31-3.79-.65-.07-.02-.13-.06-.31-.16Z"></path><path class="cls-11" d="m380.62,180.95c-.16-.46-.64-.58-.94-.9-1.04-1.09-2.23-2.02-3.41-2.96-1.43-1.15-2.94-2.2-4.51-3.16-1.25-.77-2.56-1.44-3.98-1.88-.3-.09-.59-.22-1.1-.41.49-.11.75-.17,1.02-.23,1.01-.21,2.02-.37,3.05-.38.88,0,1.77-.02,2.65,0,1.73.05,3.42.4,5.08.87,2.61.74,5.01,1.92,7.21,3.49,2.65,1.9,4.9,4.2,6.81,6.85,1.14,1.58,2.17,3.24,3.06,4.97.1.19.17.4.24.55-.11.41-.43.47-.69.57-1.63.58-3.29,1.03-4.98,1.4-2.65.58-5.34.63-8.01.41-3.12-.26-6.03-1.28-8.58-3.15-.62-.45-1.26-.91-1.81-1.44-.71-.69-1.39-1.42-1.98-2.22-1.92-2.6-3.31-5.46-4.12-8.6,0-.03,0-.07.01-.12.24-.23.49-.03.7.05,2.09.8,4.2,1.58,6.27,2.43,2.52,1.04,4.98,2.18,7.3,3.62.22.13.44.28.72.23l.07.06s-.06-.03-.09-.05Z"></path><path class="cls-5" d="m394.55,125.34c-.36-.04-.63.17-.9.35-2.55,1.62-5.05,3.3-7.29,5.32-1.36,1.23-2.69,2.51-3.68,4.08-.09.15-.2.29-.29.42-.28,0-.24-.2-.23-.32.05-.73.09-1.46.2-2.19.37-2.49,1.2-4.84,2.38-7.07,1.02-1.93,2.3-3.66,3.81-5.24,1.8-1.88,3.89-3.34,6.14-4.62,3.13-1.77,6.5-2.87,9.98-3.7.31-.07.65-.15,1.02.07.02.14.08.31.08.49,0,1.76.1,3.53,0,5.29-.22,3.75-1.13,7.32-3.05,10.59-1.94,3.31-4.69,5.7-8.25,7.17-1.81.74-3.67,1.28-5.62,1.49-1.13.12-2.25.26-3.38.38-.29.03-.58,0-.98,0,.15-.3.23-.54.37-.72,1.46-1.98,2.91-3.97,4.42-5.92,1.39-1.81,2.93-3.49,4.58-5.07.26-.25.47-.56.7-.84.03,0,.06-.01.09-.03.01,0,.01-.04.02-.06-.03.04-.06.07-.09.11Z"></path><path class="cls-6" d="m295.38,126.65c-.06.25.07.42.22.59.9,1.06,1.75,2.18,2.72,3.18,1.65,1.72,3.26,3.5,5.26,4.85.7.47,1.43.89,2.16,1.33.2.12.43.21.78.38-2.68.18-5.15-.03-7.58-.7-3.03-.84-5.73-2.31-8.14-4.28-1.54-1.26-2.87-2.73-4.06-4.34-2.2-2.99-3.73-6.32-4.93-9.82-.05-.13-.05-.28-.08-.49.19-.06.35-.13.51-.16,1.08-.21,2.17-.36,3.26-.48.99-.11,1.98-.14,2.97-.15,2.22-.03,4.4.27,6.52.87,3.1.88,5.84,2.4,8.01,4.84,1.48,1.67,2.58,3.57,3.37,5.65.77,2.04,1.23,4.15,1.54,6.3,0,.06-.04.13-.08.25-.6-.16-1.13-.51-1.66-.81-2.33-1.33-4.66-2.67-6.86-4.2-1.03-.71-2.01-1.49-3.02-2.23-.29-.21-.61-.38-.92-.57-.07-.07-.15-.15-.22-.22,0-.03,0-.07-.03-.1,0-.01-.05-.01-.07-.02.04.03.08.06.11.1,0,.15.07.22.22.22Z"></path><path d="m334.01,152.48s.06.03.09.05c-.02-.02-.05-.04-.07-.07l-.02.02Z"></path><path class="cls-4" d="m126.12,280.73h-9.23v-15.71h9.23v2.73h-5.83v3.45h5.42v2.73h-5.42v4.05h5.83v2.75Z"></path><path class="cls-4" d="m140.39,280.73h-3.34v-7.01c0-.87-.16-1.52-.47-1.95-.31-.43-.81-.65-1.5-.65-.94,0-1.61.31-2.03.92-.42.61-.62,1.63-.62,3.05v5.65h-3.34v-12.01h2.55l.45,1.54h.19c.37-.58.89-1.02,1.54-1.32.65-.3,1.4-.45,2.23-.45,1.42,0,2.51.38,3.24,1.13.74.76,1.11,1.85,1.11,3.27v7.83Z"></path><path class="cls-4" d="m150.63,280.73l-.65-1.63h-.09c-.56.69-1.14,1.18-1.74,1.45-.6.27-1.37.4-2.33.4-1.18,0-2.1-.33-2.78-.99-.68-.66-1.01-1.6-1.01-2.81s.45-2.21,1.36-2.82c.91-.61,2.28-.94,4.11-1l2.13-.06v-.53c0-1.22-.64-1.83-1.91-1.83-.98,0-2.13.29-3.45.87l-1.11-2.21c1.41-.72,2.97-1.08,4.69-1.08s2.9.35,3.78,1.05c.88.7,1.31,1.77,1.31,3.2v8h-2.33Zm-.99-5.56l-1.29.04c-.97.03-1.69.2-2.17.52-.47.32-.71.79-.71,1.44,0,.92.54,1.39,1.62,1.39.77,0,1.39-.22,1.86-.66.46-.44.7-1.02.7-1.74v-.99Z"></path><path class="cls-4" d="m162.77,268.5c1.45,0,2.58.55,3.4,1.66.82,1.11,1.23,2.62,1.23,4.55s-.42,3.52-1.27,4.61c-.84,1.09-1.99,1.63-3.45,1.63s-2.57-.51-3.39-1.54h-.23l-.56,1.32h-2.55v-16.72h3.34v3.89c0,.49-.04,1.29-.13,2.37h.13c.78-1.19,1.94-1.78,3.47-1.78Zm-1.07,2.62c-.83,0-1.43.25-1.81.75s-.58,1.32-.59,2.47v.35c0,1.29.2,2.21.59,2.77.39.56,1.01.84,1.86.84.69,0,1.23-.31,1.64-.93s.61-1.52.61-2.7-.2-2.07-.61-2.66-.97-.89-1.68-.89Z"></path><path class="cls-4" d="m173.07,280.73h-3.34v-16.72h3.34v16.72Z"></path><path class="cls-4" d="m175.97,265.62c0-1.07.61-1.6,1.82-1.6s1.82.53,1.82,1.6c0,.51-.15.9-.45,1.19-.3.28-.76.42-1.36.42-1.21,0-1.82-.54-1.82-1.61Zm3.48,15.11h-3.34v-12.01h3.34v12.01Z"></path><path class="cls-4" d="m193.53,280.73h-3.34v-7.01c0-.87-.16-1.52-.47-1.95-.31-.43-.81-.65-1.5-.65-.94,0-1.61.31-2.03.92-.42.61-.62,1.63-.62,3.05v5.65h-3.34v-12.01h2.55l.45,1.54h.19c.37-.58.89-1.02,1.54-1.32.65-.3,1.4-.45,2.23-.45,1.42,0,2.51.38,3.24,1.13.74.76,1.11,1.85,1.11,3.27v7.83Z"></path><path class="cls-4" d="m206.9,268.72v1.63l-1.92.47c.35.53.53,1.12.53,1.77,0,1.26-.46,2.25-1.38,2.96-.92.71-2.19,1.06-3.82,1.06l-.6-.03-.49-.05c-.34.25-.52.53-.52.84,0,.46.61.7,1.84.7h2.08c1.34,0,2.37.28,3.07.83.7.56,1.06,1.37,1.06,2.44,0,1.38-.6,2.44-1.79,3.2s-2.91,1.14-5.14,1.14c-1.71,0-3.02-.29-3.92-.86-.9-.57-1.35-1.37-1.35-2.41,0-.71.23-1.3.69-1.78s1.14-.82,2.03-1.02c-.34-.14-.64-.37-.9-.69-.26-.32-.38-.66-.38-1.02,0-.45.14-.82.41-1.12.27-.3.66-.59,1.17-.88-.64-.27-1.15-.7-1.53-1.29s-.56-1.29-.56-2.09c0-1.29.43-2.28,1.3-2.98.87-.7,2.11-1.05,3.73-1.05.34,0,.75.03,1.22.09.47.06.77.1.9.13h4.27Zm-9.46,13.44c0,.44.22.79.66,1.04s1.06.38,1.86.38c1.2,0,2.14-.16,2.82-.47s1.02-.75,1.02-1.3c0-.44-.2-.75-.6-.92-.4-.17-1.02-.25-1.86-.25h-1.73c-.61,0-1.13.14-1.54.42s-.62.64-.62,1.1Zm1.22-9.59c0,.64.15,1.15.45,1.52.3.37.77.56,1.39.56s1.09-.19,1.38-.56c.29-.37.44-.88.44-1.52,0-1.42-.61-2.13-1.82-2.13s-1.84.71-1.84,2.13Z"></path><path class="cls-4" d="m224.25,276.37c0,1.42-.52,2.54-1.56,3.35-1.04.82-2.49,1.22-4.34,1.22-1.71,0-3.22-.32-4.54-.95v-3.09c1.08.47,2,.81,2.74,1,.75.19,1.43.29,2.05.29.75,0,1.32-.14,1.71-.42.4-.28.6-.69.6-1.25,0-.31-.09-.58-.26-.82-.18-.24-.43-.47-.77-.69-.34-.22-1.03-.58-2.08-1.06-.98-.45-1.71-.88-2.2-1.3-.49-.42-.88-.9-1.17-1.45-.29-.55-.44-1.2-.44-1.93,0-1.39.48-2.48,1.44-3.28.96-.8,2.29-1.19,3.98-1.19.83,0,1.63.1,2.38.29s1.55.47,2.37.82l-1.1,2.59c-.85-.34-1.56-.58-2.12-.72-.56-.14-1.11-.2-1.65-.2-.64,0-1.14.15-1.48.44-.34.29-.52.68-.52,1.15,0,.29.07.55.21.77s.36.43.66.63c.3.2,1.02.57,2.15,1.1,1.5.7,2.52,1.41,3.08,2.11.56.71.83,1.57.83,2.59Z"></path><path class="cls-4" d="m235.08,280.73l-.45-1.54h-.18c-.36.56-.87.99-1.52,1.29-.66.3-1.41.46-2.25.46-1.44,0-2.52-.38-3.25-1.13-.73-.76-1.1-1.84-1.1-3.26v-7.83h3.34v7.02c0,.87.16,1.52.47,1.95.31.43.81.65,1.5.65.94,0,1.61-.31,2.03-.92s.62-1.63.62-3.05v-5.65h3.34v12.01h-2.56Z"></path><path class="cls-4" d="m248.91,277.17c0,1.23-.44,2.17-1.31,2.81-.87.64-2.18.97-3.92.97-.89,0-1.65-.06-2.28-.18-.63-.12-1.22-.29-1.76-.52v-2.71c.62.29,1.32.53,2.1.72.78.19,1.46.29,2.05.29,1.21,0,1.82-.34,1.82-1.03,0-.26-.08-.47-.24-.63-.16-.16-.44-.34-.83-.55-.39-.2-.92-.44-1.58-.71-.94-.39-1.63-.74-2.08-1.07-.44-.33-.76-.71-.96-1.13s-.3-.95-.3-1.57c0-1.07.42-1.89,1.27-2.48.84-.58,2.04-.88,3.59-.88s2.91.32,4.31.95l-1.01,2.36c-.61-.26-1.19-.47-1.72-.63-.53-.16-1.08-.25-1.63-.25-.99,0-1.48.26-1.48.78,0,.29.16.55.48.76s1.01.53,2.09.96c.96.38,1.66.73,2.1,1.06.45.33.77.71.99,1.14.21.43.32.94.32,1.54Z"></path><path class="cls-4" d="m255.91,278.34c.58,0,1.29-.13,2.1-.38v2.44c-.83.37-1.86.55-3.07.55-1.34,0-2.31-.33-2.92-.99-.61-.66-.92-1.66-.92-2.98v-5.79h-1.6v-2.46l1.84-.02v-2.54h3.1v2.56h3.43s0,2.46,0,2.46h-3.43v5.79c0,.47.13.81.4,1.03.27.22.62.33,1.06.33Z"></path><path class="cls-4" d="m266.73,280.73l-.65-1.63h-.09c-.56.69-1.14,1.18-1.74,1.45-.6.27-1.37.4-2.33.4-1.18,0-2.1-.33-2.78-.99-.68-.66-1.01-1.6-1.01-2.81s.45-2.21,1.36-2.82c.91-.61,2.28-.94,4.11-1l2.13-.06v-.53c0-1.22-.64-1.83-1.91-1.83-.98,0-2.13.29-3.45.87l-1.11-2.21c1.41-.72,2.97-1.08,4.69-1.08s2.9.35,3.78,1.05c.88.7,1.31,1.77,1.31,3.2v8h-2.33Zm-.99-5.56l-1.29.04c-.97.03-1.69.2-2.17.52-.47.32-.71.79-.71,1.44,0,.92.54,1.39,1.62,1.39.77,0,1.39-.22,1.86-.66.46-.44.7-1.02.7-1.74v-.99Z"></path><path class="cls-4" d="m271.96,265.62c0-1.07.61-1.6,1.82-1.6s1.82.53,1.82,1.6c0,.51-.15.9-.45,1.19-.3.28-.76.42-1.36.42-1.21,0-1.82-.54-1.82-1.61Zm3.48,15.11h-3.34v-12.01h3.34v12.01Z"></path><path class="cls-4" d="m289.48,280.73h-3.34v-7.01c0-.87-.16-1.52-.47-1.95-.31-.43-.81-.65-1.5-.65-.94,0-1.61.31-2.03.92-.42.61-.62,1.63-.62,3.05v5.65h-3.34v-12.01h2.55l.45,1.54h.19c.37-.58.89-1.02,1.54-1.32.65-.3,1.4-.45,2.23-.45,1.42,0,2.51.38,3.24,1.13.74.76,1.11,1.85,1.11,3.27v7.83Z"></path><path class="cls-4" d="m299.74,280.73l-.65-1.63h-.09c-.56.69-1.14,1.18-1.74,1.45-.6.27-1.37.4-2.33.4-1.18,0-2.1-.33-2.78-.99-.68-.66-1.01-1.6-1.01-2.81s.45-2.21,1.36-2.82c.91-.61,2.28-.94,4.11-1l2.13-.06v-.53c0-1.22-.64-1.83-1.91-1.83-.98,0-2.13.29-3.45.87l-1.11-2.21c1.41-.72,2.97-1.08,4.69-1.08s2.9.35,3.78,1.05c.88.7,1.31,1.77,1.31,3.2v8h-2.33Zm-.99-5.56l-1.29.04c-.97.03-1.69.2-2.17.52-.47.32-.71.79-.71,1.44,0,.92.54,1.39,1.62,1.39.77,0,1.39-.22,1.86-.66.46-.44.7-1.02.7-1.74v-.99Z"></path><path class="cls-4" d="m311.92,268.5c1.45,0,2.58.55,3.4,1.66.82,1.11,1.23,2.62,1.23,4.55s-.42,3.52-1.27,4.61c-.84,1.09-1.99,1.63-3.45,1.63s-2.57-.51-3.39-1.54h-.23l-.56,1.32h-2.55v-16.72h3.34v3.89c0,.49-.04,1.29-.13,2.37h.13c.78-1.19,1.94-1.78,3.47-1.78Zm-1.07,2.62c-.83,0-1.43.25-1.81.75s-.58,1.32-.59,2.47v.35c0,1.29.2,2.21.59,2.77.39.56,1.01.84,1.86.84.69,0,1.23-.31,1.64-.93s.61-1.52.61-2.7-.2-2.07-.61-2.66-.97-.89-1.68-.89Z"></path><path class="cls-4" d="m322.25,280.73h-3.34v-16.72h3.34v16.72Z"></path><path class="cls-4" d="m330.75,280.95c-1.97,0-3.51-.53-4.62-1.6-1.11-1.07-1.67-2.58-1.67-4.53s.51-3.57,1.54-4.67,2.45-1.65,4.26-1.65,3.08.48,4.04,1.45c.96.97,1.45,2.3,1.45,4.01v1.59h-7.9c.04.93.32,1.66.84,2.18.53.52,1.26.78,2.21.78.74,0,1.44-.08,2.09-.23s1.34-.39,2.06-.72v2.54c-.58.29-1.21.5-1.87.64s-1.48.21-2.43.21Zm-.47-10.12c-.71,0-1.26.22-1.67.66-.4.44-.63,1.07-.69,1.87h4.69c-.01-.81-.23-1.43-.65-1.87-.42-.44-.98-.66-1.69-.66Z"></path><path class="cls-4" d="m351.37,267.57c-1.28,0-2.27.47-2.97,1.41-.7.94-1.05,2.25-1.05,3.94,0,3.5,1.34,5.25,4.02,5.25,1.12,0,2.49-.28,4.09-.83v2.79c-1.31.54-2.78.81-4.4.81-2.33,0-4.11-.69-5.35-2.08-1.23-1.39-1.85-3.37-1.85-5.97,0-1.63.3-3.06.91-4.29.61-1.23,1.48-2.17,2.61-2.83,1.14-.66,2.47-.98,3.99-.98s3.12.37,4.69,1.11l-1.1,2.71c-.6-.28-1.2-.52-1.81-.73-.61-.21-1.2-.31-1.79-.31Z"></path><path class="cls-4" d="m369.22,274.71c0,1.95-.53,3.48-1.58,4.59-1.05,1.1-2.52,1.65-4.39,1.65-1.18,0-2.21-.25-3.11-.76-.9-.5-1.59-1.23-2.07-2.18s-.72-2.05-.72-3.31c0-1.96.52-3.49,1.57-4.58,1.04-1.09,2.51-1.63,4.4-1.63,1.18,0,2.21.25,3.11.75.9.5,1.59,1.22,2.07,2.16.48.94.72,2.04.72,3.3Zm-8.47,0c0,1.19.2,2.09.6,2.7.4.61,1.05.91,1.94.91s1.53-.3,1.92-.91.59-1.51.59-2.7-.2-2.08-.59-2.67c-.39-.59-1.04-.89-1.94-.89s-1.53.3-1.93.89c-.39.59-.59,1.48-.59,2.68Z"></path><path class="cls-4" d="m382.55,280.73h-3.34v-7.01c0-.87-.15-1.52-.44-1.95-.3-.43-.76-.65-1.4-.65-.85,0-1.48.31-1.86.92-.39.62-.58,1.63-.58,3.04v5.65h-3.34v-12.01h2.55l.45,1.54h.19c.33-.55.8-.98,1.42-1.29.62-.31,1.33-.47,2.14-.47,1.83,0,3.08.59,3.73,1.76h.3c.33-.56.81-.99,1.45-1.3.64-.31,1.36-.46,2.16-.46,1.39,0,2.44.35,3.15,1.05.71.7,1.07,1.82,1.07,3.36v7.83h-3.35v-7.01c0-.87-.15-1.52-.44-1.95-.3-.43-.76-.65-1.4-.65-.82,0-1.43.29-1.84.86-.41.57-.61,1.48-.61,2.73v6.03Z"></path><path class="cls-4" d="m403.62,280.73h-3.34v-7.01c0-.87-.15-1.52-.44-1.95-.3-.43-.76-.65-1.4-.65-.85,0-1.48.31-1.86.92-.39.62-.58,1.63-.58,3.04v5.65h-3.34v-12.01h2.55l.45,1.54h.19c.33-.55.8-.98,1.42-1.29.62-.31,1.33-.47,2.14-.47,1.83,0,3.08.59,3.73,1.76h.3c.33-.56.81-.99,1.45-1.3.64-.31,1.36-.46,2.16-.46,1.39,0,2.44.35,3.15,1.05.71.7,1.07,1.82,1.07,3.36v7.83h-3.35v-7.01c0-.87-.15-1.52-.44-1.95-.3-.43-.76-.65-1.4-.65-.82,0-1.43.29-1.84.86-.41.57-.61,1.48-.61,2.73v6.03Z"></path><path class="cls-4" d="m422.31,280.73l-.45-1.54h-.18c-.36.56-.87.99-1.52,1.29-.66.3-1.41.46-2.25.46-1.44,0-2.52-.38-3.25-1.13-.73-.76-1.1-1.84-1.1-3.26v-7.83h3.34v7.02c0,.87.16,1.52.47,1.95.31.43.81.65,1.5.65.94,0,1.61-.31,2.03-.92s.62-1.63.62-3.05v-5.65h3.34v12.01h-2.56Z"></path><path class="cls-4" d="m438.88,280.73h-3.34v-7.01c0-.87-.16-1.52-.47-1.95-.31-.43-.81-.65-1.5-.65-.94,0-1.61.31-2.03.92-.42.61-.62,1.63-.62,3.05v5.65h-3.34v-12.01h2.55l.45,1.54h.19c.37-.58.89-1.02,1.54-1.32.65-.3,1.4-.45,2.23-.45,1.42,0,2.51.38,3.24,1.13.74.76,1.11,1.85,1.11,3.27v7.83Z"></path><path class="cls-4" d="m441.39,265.62c0-1.07.61-1.6,1.82-1.6s1.82.53,1.82,1.6c0,.51-.15.9-.45,1.19-.3.28-.76.42-1.36.42-1.21,0-1.82-.54-1.82-1.61Zm3.48,15.11h-3.34v-12.01h3.34v12.01Z"></path><path class="cls-4" d="m468.69,280.95c-1.97,0-3.51-.53-4.62-1.6-1.11-1.07-1.67-2.58-1.67-4.53s.51-3.57,1.54-4.67c1.03-1.1,2.45-1.65,4.26-1.65s3.08.48,4.04,1.45c.96.97,1.45,2.3,1.45,4.01v1.59h-7.9c.04.93.32,1.66.84,2.18.53.52,1.26.78,2.21.78.74,0,1.44-.08,2.09-.23s1.34-.39,2.06-.72v2.54c-.58.29-1.21.5-1.87.64s-1.48.21-2.43.21Zm-.47-10.12c-.71,0-1.26.22-1.67.66-.4.44-.63,1.07-.69,1.87h4.69c-.01-.81-.23-1.43-.65-1.87s-.98-.66-1.69-.66Z"></path><path class="cls-4" d="m484.45,277.17c0,1.23-.44,2.17-1.31,2.81-.87.64-2.18.97-3.92.97-.89,0-1.65-.06-2.28-.18-.63-.12-1.22-.29-1.76-.52v-2.71c.62.29,1.32.53,2.1.72.78.19,1.46.29,2.05.29,1.21,0,1.82-.34,1.82-1.03,0-.26-.08-.47-.24-.63-.16-.16-.44-.34-.83-.55-.39-.2-.92-.44-1.58-.71-.94-.39-1.63-.74-2.08-1.07-.44-.33-.76-.71-.96-1.13s-.3-.95-.3-1.57c0-1.07.42-1.89,1.27-2.48.84-.58,2.04-.88,3.59-.88s2.91.32,4.31.95l-1.01,2.36c-.61-.26-1.19-.47-1.72-.63-.53-.16-1.08-.25-1.63-.25-.99,0-1.48.26-1.48.78,0,.29.16.55.48.76s1.01.53,2.09.96c.96.38,1.66.73,2.1,1.06.45.33.77.71.99,1.14.21.43.32.94.32,1.54Z"></path><path class="cls-4" d="m458.38,267.23c.61,0,1.06-.14,1.36-.42.3-.28.45-.68.45-1.19,0-1.07-.61-1.6-1.82-1.6s-1.82.53-1.82,1.6.61,1.61,1.82,1.61Z"></path><path class="cls-4" d="m460.04,268.72h0s-3.34,0-3.34,0h0s-5.2,0-5.2,0v-2.56h-3.1v2.54l-1.84.02v2.46h1.6v5.79c0,1.33.3,2.32.92,2.98.61.66,1.58.99,2.92.99,1.21,0,2.24-.18,3.07-.55v-2.44c-.82.25-1.52.38-2.1.38-.44,0-.79-.11-1.06-.33-.27-.22-.4-.57-.4-1.03v-5.79h5.2v9.55h3.34v-12.01s0,0,0,0Z"></path></svg> 