<?xml version="1.0" encoding="UTF-8"?> <svg xmlns="http://www.w3.org/2000/svg" id="Layer_1" width="100" height="113.8" viewBox="0 0 100 113.8"><defs><style>.cls-1{fill:#011f5b;}.cls-2{fill:#fff;}.cls-3{fill:#900;}</style></defs><path class="cls-2" d="m99.94,0H0v49.83c-.06,21.68,11.96,37.37,22.07,46.76,11.12,10.28,23.35,16.2,27.43,17.09l.5.11.5-.11c4.08-.89,16.31-6.82,27.43-17.09,10.11-9.33,22.12-25.08,22.07-46.76-.06-.61-.06-49.83-.06-49.83h0Z"></path><path class="cls-3" d="m93.8,20.89h0c.17.11.28.22.39.39s.17.39.17.56c0,.22-.06.39-.17.56s-.28.28-.39.39c-.22.17-.45.34-.45.61v1.79h-21.01v-1.79c0-.28-.22-.45-.45-.61-.17-.11-.28-.22-.39-.39s-.17-.39-.17-.56c0-.22.06-.39.17-.56.11-.17.28-.28.39-.39.22-.17.45-.34.45-.61v-5.87c0-.28-.22-.45-.45-.61-.17-.11-.28-.22-.39-.39-.11-.17-.17-.39-.17-.56,0-.22.06-.39.17-.56.11-.17.28-.28.39-.39.22-.17.45-.34.45-.61v-1.84h.28c1.23,0,2.29,0,3.07-.34.28-.11.61-.34.89-.5.61-.39,1.4-.84,2.46-.84.89,0,1.68.34,2.4.61.5.22,1.01.39,1.34.39h.17c.34,0,.84-.17,1.34-.39.73-.28,1.51-.61,2.4-.61,1.06,0,1.84.45,2.46.84.28.17.56.39.89.5.73.34,1.84.34,3.07.34h.28v1.79c0,.28.22.45.45.61.11.11.28.22.39.39.11.17.17.39.17.56,0,.22-.06.39-.17.56s-.28.28-.39.39c-.22.17-.45.34-.45.61v5.81c-.06.34.17.5.39.73h0Zm-25.7,3.02c-1.62,2.57-4.75,3.24-4.86,3.24-.61.11-1.23.17-1.9.17h0c-3.24,0-6.26-1.4-9.33-3.02-.34-.17-.73-.39-1.12-.61-1.96-1.06-4.69-2.57-6.98-2.57-.67,0-1.28.11-1.9.45l-.11.06v.11c0,.28-.06.61-.17.84-.39,1.01-1.56,2.01-2.18,2.46-1.34.95-3.02,1.96-5.03,1.96-.34,0-.61-.06-.84-.11-.39-.11-.67-.34-.89-.67-.11-.17-.22-.34-.28-.5-.06-.17-.11-.28-.11-.45v-.11l-.11-.06c-.78-.22-1.28-.78-1.28-1.4,0-.5.34-.89.67-1.28.56-.61,1.01-1.17.22-1.9-.06-.06-.17-.11-.22-.17-.11-.06-.22-.17-.28-.28-.67-.73-.28-2.18-.06-3.07v-.11c.28-.95.61-1.96,1.17-3.02.73-1.45,1.62-3.13,2.85-4.13,0,0,.06-.06.11,0q.06,0,.06.06c0,.06.17.22.34.56l.22.34.11-.39c.34-1.06.89-1.73,1.68-2.01.84-.28,1.62.11,2.01.39l.17.11.11-.17c.22-.39.73-.89,1.51-.95.84-.06,1.56.56,1.9.89l.11.11.11-.11c.39-.34,1.34-1.06,2.35-.89.95.11,1.28.95,1.4,1.28l.06.22.22-.11c.45-.22,1.28-.5,2.12,0,.5.34.56.89.56,1.28v.22l.22-.06c.61-.11,1.73-.17,2.4.5.5.56.56,1.23.5,1.73l-.06.22.22-.06c.56-.06,1.23,0,1.62.61.28.39.17,1.01.06,1.28v.34s.17.06.17.06c.34.06.84.28,1.01.73.11.34.06.89-.11,1.51l-.06.17.17.06c.28.11.78.39,1.01.89.28.5.22,1.17-.06,1.9l-.06.11.11.11c.67.61,1.4,1.17,2.07,1.68,1.4,1.01,3.58,1.56,5.03.34.56-.45.78-1.28.61-2.07-.17-.67-.61-1.17-1.28-1.34-1.12-.22-2.01.84-2.74,1.9,0,.06-.06.06-.11.06s-.06-.06-.11-.06c-.67-1.56-.67-2.91-.11-3.91.5-.84,1.51-1.45,2.68-1.62h.17v-.17c0-1.9.45-3.24,1.34-4.08.56-.5,1.56-1.06,3.24-.84q.06,0,.06.06v.11c-1.23,3.02-.95,4.13-.28,6.59.06.22.11.45.17.67h0c.89,2.29.73,4.3-.28,5.92h0Zm-40.11-3.02h0c.17.11.28.22.39.39s.17.39.17.56c0,.22-.06.39-.17.56s-.28.28-.39.39c-.22.17-.45.34-.45.61v1.79H6.54v-1.79c0-.28-.22-.45-.45-.61-.17-.11-.28-.22-.39-.39s-.17-.39-.17-.56c0-.22.06-.39.17-.56s.28-.28.39-.39c.22-.17.45-.34.45-.61v-5.87c0-.28-.22-.45-.45-.61-.17-.11-.28-.22-.39-.39-.11-.17-.17-.39-.17-.56,0-.22.06-.39.17-.56s.28-.28.39-.39c.22-.17.45-.34.45-.61v-1.84h.28c1.23,0,2.29,0,3.07-.34.28-.11.61-.34.89-.5.61-.39,1.4-.84,2.46-.84.89,0,1.68.34,2.4.61.5.22,1.01.39,1.34.39h.17c.34,0,.84-.17,1.34-.39.73-.28,1.51-.61,2.4-.61,1.06,0,1.84.45,2.46.84.28.17.56.39.89.5.73.34,1.84.34,3.07.34h.28v1.79c0,.28.22.45.45.61.11.11.28.22.39.39.11.17.17.39.17.56,0,.22-.06.39-.17.56s-.28.28-.39.39c-.22.17-.45.34-.45.61v5.81c-.06.34.17.5.39.73h0ZM2.51,2.63s.11,28.94,0,28.83h94.92V2.63H2.51Z"></path><path class="cls-1" d="m35.2,19.61c.34,0,.67.11.95.34.11.11.22.17.28.22.22.22.22.56-.06.73-.22.17-.5.39-.67.5-.39.28-1.06.73-1.51.39-.22-.17.22-.5,0-1.28-.06-.61.56-.89,1.01-.89h0Z"></path><path class="cls-1" d="m35.36,10.28c-1.06,1.01-1.84,2.46-2.51,3.8-.5,1.06-.89,2.01-1.17,2.96v.11c-.17.67-.56,2.12-.06,2.68.06.06.17.11.22.22.11.06.17.11.28.22,1.06,1.01.34,1.84-.22,2.46-.28.39-.61.73-.61,1.01,0,.73.89,1.01,1.17,1.06.11.06.22.11.22.28,0,.22.06.39.11.56.06.17.11.28.22.39.17.22.45.39.73.5.22.06.45.11.73.11,1.96,0,3.52-.95,4.8-1.9.78-.56,1.73-1.51,2.01-2.23.06-.22.11-.39.11-.61l-1.34-.22h-.06c-.17-.06-.22-.17-.28-.28-.06-.28.22-.45.67-.78.17-.11.28-.22.45-.28.73-.5,1.28-.95,1.62-1.17-.39-.45-.67-.89-.95-1.28-.22-.34-.39-.56-.56-.73-.67-.73-1.84-1.17-2.85-.56-.39.22-.73.56-1.12.84-.28.28-.61.5-.95.78-.11.11-.28.06-.39-.06-.11-.11-.11-.28,0-.39l.17-.17c.45-.39,1.45-1.4,1.45-2.07.17-1.79-1.34-4.36-1.9-5.25h0Zm8.49,10.45c2.35,0,5.08,1.45,7.15,2.63.39.22.78.45,1.12.61,3.58,1.84,7.15,3.46,10.95,2.79,0,0,3.07-.61,4.58-3.07.95-1.51,1.12-3.41.5-5.59-.06-.22-.11-.45-.17-.67-.61-2.29-1.01-3.63.11-6.48-1.28-.06-2.07.34-2.51.73-.84.78-1.23,2.12-1.17,4.02,0,.17-.11.28-.28.34-1.17.11-2.18.67-2.63,1.45-.45.78-.5,1.79-.06,3.02.56-.78,1.56-1.84,2.85-1.56.78.17,1.4.78,1.56,1.62.22.95-.06,1.96-.78,2.51-1.68,1.34-4.02.78-5.53-.34-1.79-1.28-3.58-2.96-5.42-5.08-.34-.39-.67-.73-.95-1.12-1.17-1.34-2.4-2.79-3.85-3.91-2.29-1.73-4.97-2.01-6.82-1.96-1.28.06-3.8.39-5.47,1.45.5,1.06,1.01,2.35,1.01,3.3,0,.17-.06.34-.11.5,1.23-.73,2.68-.22,3.52.67.17.22.39.5.61.84.34.5.67,1.06,1.12,1.45.06.06.11.17.11.22,0,.11-.06.17-.11.22,0,0-.78.56-1.9,1.4-.17.11-.28.22-.45.34l-.06.06.95.17c.67-.45,1.4-.56,2.12-.56h0Zm17.49,6.76c-3.3,0-6.31-1.4-9.44-3.02-.34-.17-.73-.39-1.12-.61-2.51-1.34-6.26-3.41-8.72-2.12,0,.34-.06.61-.17.89-.39,1.01-1.62,2.12-2.23,2.51-1.34,1.01-3.07,2.01-5.14,2.01-.34,0-.61-.06-.89-.17-.39-.11-.73-.39-1.01-.73-.11-.17-.22-.34-.34-.56-.06-.17-.11-.34-.11-.5-.89-.17-1.45-.78-1.45-1.51,0-.56.39-1.01.73-1.4.61-.73.84-1.06.28-1.62-.06-.06-.11-.11-.22-.17s-.22-.17-.34-.28c-.73-.78-.34-2.29-.06-3.24v-.11c.28-.95.67-1.96,1.17-3.07.73-1.51,1.62-3.13,2.91-4.19.06-.06.17-.06.22-.06.11,0,.17.06.22.11.06.06.56.84,1.06,1.9,2.23-1.34,5.36-1.45,5.75-1.51,1.96-.06,4.8.22,7.21,2.12,1.51,1.17,2.74,2.57,3.91,3.97.34.34.61.73.95,1.12,1.84,2.07,3.58,3.69,5.36,4.97,1.34.95,3.41,1.51,4.8.34.5-.39.73-1.17.56-1.9-.17-.61-.56-1.06-1.12-1.17-1.01-.22-1.84.78-2.51,1.79-.06.11-.17.17-.28.11-.11,0-.22-.06-.22-.17-.67-1.62-.73-3.02-.11-4.08.56-.89,1.56-1.56,2.79-1.73,0-1.96.45-3.35,1.4-4.19.56-.5,1.62-1.12,3.41-.84.11,0,.17.06.22.17.06.06.06.17,0,.28-1.23,2.96-.89,4.02-.28,6.48.06.22.11.45.17.67.61,2.4.45,4.41-.61,6.09-1.68,2.68-4.86,3.3-5.03,3.35-.5,0-1.12.06-1.73.06h0Z"></path><path class="cls-1" d="m33.35,25.42c-.28,0-.56,0-.89-.06-.17,0-.28-.17-.28-.34s.17-.28.34-.28c1.4.17,3.35,0,5.14-1.84.11-.11.28-.11.45,0,.11.11.11.28,0,.45-1.34,1.34-2.96,2.07-4.75,2.07h0Z"></path><path class="cls-1" d="m57.54,20.89h-.11c-.17-.06-.22-.22-.17-.39.34-.73.34-1.34.11-1.79-.34-.61-1.06-.78-1.06-.78-.06,0-.17-.06-.17-.17-.06-.06-.06-.17,0-.22.11-.28.34-1.12.17-1.51-.11-.34-.78-.5-1.01-.5-.11,0-.17-.06-.22-.11-.06-.06-.06-.17,0-.28.11-.22.28-.89.06-1.23-.45-.67-1.62-.34-1.62-.34-.11.06-.22,0-.28-.06s-.11-.17-.06-.28c0,0,.34-1.06-.34-1.73-.78-.78-2.4-.34-2.46-.34-.11.06-.22,0-.28-.06s-.11-.17-.06-.28c0-.06.28-.89-.28-1.28-.95-.61-2.01.17-2.01.17-.06.06-.17.06-.28.06-.11-.06-.17-.11-.17-.22,0-.06-.17-1.17-1.17-1.34-1.12-.17-2.23.95-2.23,1.01-.06.06-.11.11-.22.06-.06,0-.17-.06-.22-.11,0,0-.78-1.01-1.73-.95-.95.06-1.28,1.01-1.28,1.01-.06.11-.11.17-.22.17s-.17,0-.28-.06c0,0-.95-.89-1.9-.56-1.17.45-1.51,1.9-1.62,2.4h0c-.06.17-.17.22-.34.22-.17-.06-.22-.17-.22-.34h0c.11-.56.5-2.23,2.01-2.79.89-.34,1.73.11,2.18.45.22-.39.73-1.01,1.62-1.01.95-.06,1.68.61,2.01.95.45-.39,1.45-1.06,2.51-.95.89.11,1.4.84,1.56,1.4.5-.22,1.4-.56,2.29,0,.61.39.67,1.06.61,1.51.61-.11,1.84-.17,2.57.56.61.61.61,1.4.56,1.84.5-.06,1.34-.06,1.84.67.28.45.22,1.06.11,1.45.39.11.95.34,1.17.84.17.5,0,1.23-.11,1.62.34.11.84.45,1.12,1.01.34.61.28,1.4-.11,2.29-.11-.06-.17,0-.28,0h0Z"></path><path class="cls-1" d="m56.09,24.8h0c-.17,0-.28-.17-.28-.34.11-1.06-.5-1.28-1.06-1.45-.17-.06-.28-.11-.39-.17-.28-.17-.34-.56-.34-.89,0-.39,0-.84-.34-1.17-.5-.56-1.56-.22-1.56-.22-.11.06-.22,0-.28-.06s-.11-.17-.11-.28c0,0,.17-1.17-.5-1.73-.56-.45-1.62-.34-1.96-.28-.11,0-.17,0-.22-.06s-.11-.17-.11-.22c.06-.73-.22-1.28-.78-1.68-.45-.28-1.01-.34-1.45-.11-1.17.61-1.62.67-2.91-.22-.39-.28-.78-.39-1.17-.28-.45.11-.89.56-1.23,1.17-.06.11-.22.22-.39.11-.11-.06-.22-.22-.11-.39.39-.78.95-1.34,1.62-1.51.56-.11,1.12,0,1.62.34,1.06.73,1.28.73,2.29.17.61-.34,1.4-.28,2.01.11s1.01,1.06,1.01,1.84c.5-.06,1.45-.11,2.12.45.61.5.73,1.34.73,1.79.45-.11,1.28-.11,1.79.45.45.5.45,1.12.5,1.56,0,.17,0,.39.06.45.06,0,.17.06.28.11.56.17,1.62.5,1.45,2.07,0,.34-.11.45-.28.45h0Z"></path><path class="cls-1" d="m28.16,21.84c0,.11-.06.22-.11.34-.06.11-.17.22-.34.28-.28.22-.61.45-.61.95v1.28H6.98v-1.28c0-.5-.34-.73-.61-.95-.11-.11-.22-.17-.34-.28-.06-.11-.11-.22-.11-.34h0c0-.11.06-.22.11-.34.06-.11.17-.22.34-.28.28-.22.61-.45.61-.95v-5.87c0-.5-.34-.73-.61-.95-.11-.11-.22-.17-.34-.28-.06-.11-.11-.22-.11-.34h0c0-.11.06-.22.11-.34.06-.11.17-.22.34-.28.28-.22.61-.45.61-.95v-1.34h.06c.5,0,1.06,0,1.51-.06v13.3h7.32c.11.5.61.89,1.17.89s1.06-.39,1.17-.89h7.32v-13.35c.5.06,1.01.06,1.51.06h.06v1.34c0,.5.34.73.61.95.11.11.22.17.34.28.06.11.11.22.11.34h0c0,.11-.06.22-.11.34-.06.11-.17.22-.34.28-.28.22-.61.45-.61.95v5.81c0,.5.34.73.61.95.11.11.22.17.34.28.11.17.11.28.11.45h0ZM10.11,9.5c.34-.17.67-.34.95-.56.67-.39,1.23-.78,2.18-.78.78,0,1.56.34,2.23.56.45.17.89.34,1.28.39v11.62h-.06c-.56.06-1.34.28-2.29.61-.28.11-.61.17-.89.28-.89.28-1.79.28-2.68.28-.56,0-1.12,0-1.62.06v-12.29c.34.06.61-.06.89-.17h0Zm8.55-.73c.67-.28,1.45-.56,2.23-.56.95,0,1.56.39,2.18.78.28.17.61.39.95.56.28.11.56.22.89.28v12.29c-.5-.06-1.06-.06-1.62-.06-.89,0-1.79,0-2.68-.28-.28-.11-.61-.17-.89-.28-.89-.28-1.73-.56-2.29-.61h-.06v-11.73c.45-.06.84-.22,1.28-.39h0Zm9.44,11.96c-.22-.17-.39-.28-.39-.5v-5.81c0-.17.11-.28.39-.5.17-.11.34-.22.45-.45s.22-.45.22-.67-.06-.5-.22-.67c-.11-.17-.28-.34-.45-.45-.22-.17-.39-.28-.39-.5v-2.01h-.45c-1.06,0-2.23,0-2.96-.34-.28-.11-.56-.28-.84-.5-.67-.39-1.4-.89-2.57-.89-.89,0-1.73.34-2.46.61-.5.22-.95.39-1.28.39h-.11c-.34,0-.78-.17-1.28-.39-.73-.28-1.56-.61-2.46-.61-1.12,0-1.9.45-2.57.89-.28.17-.56.34-.84.5-.73.34-1.9.34-2.96.34h-.45v2.07c0,.17-.11.28-.39.5-.17.11-.34.22-.45.45s-.22.45-.22.67.06.5.22.67c.11.17.28.34.45.45.22.17.39.28.39.5v5.81c0,.17-.11.28-.39.5-.17.11-.34.22-.45.45-.11.22-.22.45-.22.67s.06.5.22.67c.11.17.28.34.45.45.22.17.39.28.39.5v1.96h21.34v-1.96c0-.17.11-.28.39-.5.17-.11.34-.22.45-.45.11-.22.22-.45.22-.67s-.06-.5-.22-.67c-.22-.28-.39-.39-.56-.5h0Z"></path><path class="cls-1" d="m93.97,21.84c0,.11-.06.22-.11.34-.06.11-.17.22-.34.28-.28.22-.61.45-.61.95v1.28h-20.11v-1.28c0-.5-.34-.73-.61-.95-.11-.11-.22-.17-.34-.28-.06-.11-.11-.22-.11-.34h0c0-.11.06-.22.11-.34.06-.11.17-.22.34-.28.28-.22.61-.45.61-.95v-5.87c0-.5-.34-.73-.61-.95-.11-.11-.22-.17-.34-.28-.06-.11-.11-.22-.11-.34h0c0-.11.06-.22.11-.34.06-.11.17-.22.34-.28.28-.22.61-.45.61-.95v-1.34h.06c.5,0,1.06,0,1.51-.06v13.3h7.32c.11.5.61.89,1.17.89s1.06-.39,1.17-.89h7.32v-13.35c.5.06,1.01.06,1.51.06h.06v1.34c0,.5.34.73.61.95.11.11.22.17.34.28.06.11.11.22.11.34h0c0,.11-.06.22-.11.34-.06.11-.17.22-.34.28-.28.22-.61.45-.61.95v5.81c0,.5.34.73.61.95.11.11.22.17.34.28.06.17.11.28.11.45h0Zm-18.1-12.35c.34-.17.67-.34.95-.56.67-.39,1.23-.78,2.18-.78.78,0,1.56.34,2.23.56.45.17.89.34,1.28.39v11.62h-.06c-.56.06-1.34.28-2.29.61-.28.11-.61.17-.89.28-.89.28-1.79.28-2.68.28-.56,0-1.12,0-1.62.06v-12.29c.34.06.61-.06.89-.17h0Zm8.6-.73c.67-.28,1.45-.56,2.23-.56.95,0,1.56.39,2.18.78.28.17.61.39.95.56.28.11.56.22.89.28v12.29c-.5-.06-1.06-.06-1.62-.06-.89,0-1.79,0-2.68-.28-.28-.11-.61-.17-.89-.28-.89-.28-1.73-.56-2.29-.61h-.06v-11.73c.39-.06.84-.22,1.28-.39h0Zm9.44,11.96c-.22-.17-.39-.28-.39-.5v-5.81c0-.17.11-.28.39-.5.17-.11.34-.22.45-.45s.22-.45.22-.67-.06-.5-.22-.67c-.11-.17-.28-.34-.45-.45-.22-.17-.39-.28-.39-.5v-2.01h-.45c-1.06,0-2.23,0-2.96-.34-.28-.11-.56-.28-.84-.5-.67-.39-1.4-.89-2.57-.89-.89,0-1.73.34-2.46.61-.5.22-.95.39-1.28.39h-.11c-.34,0-.78-.17-1.28-.39-.73-.28-1.56-.61-2.46-.61-1.12,0-1.9.45-2.57.89-.28.17-.56.34-.84.5-.73.34-1.9.34-2.96.34h-.45v2.07c0,.17-.11.28-.39.5-.17.11-.34.22-.45.45s-.22.45-.22.67.06.5.22.67c.11.17.28.34.45.45.22.17.39.28.39.5v5.81c0,.17-.11.28-.39.5-.17.11-.34.22-.45.45-.11.22-.22.45-.22.67s.06.5.22.67c.11.17.28.34.45.45.22.17.39.28.39.5v1.96h21.34v-1.96c0-.17.11-.28.39-.5.17-.11.34-.22.45-.45.11-.22.22-.45.22-.67s-.06-.5-.22-.67c-.22-.28-.45-.39-.56-.5h0Z"></path><path class="cls-1" d="m91.4,73.35l-41.45-39.94L8.55,73.35c-3.18-6.76-5.36-14.64-5.31-23.52v-17.71h93.46v17.71c0,8.88-2.12,16.76-5.31,23.52h0Zm-13.24,4.13c-3.24,3.24-8.44,3.24-11.62,0-3.24-3.24-3.24-8.44,0-11.62,3.24-3.24,8.44-3.24,11.62,0,3.24,3.18,3.24,8.44,0,11.62h0Zm-36.42-26.26c0-4.53,3.69-8.21,8.21-8.21s8.21,3.69,8.21,8.21-3.69,8.21-8.21,8.21c-4.53.06-8.21-3.63-8.21-8.21h0Zm33.97,42.96c-11.12,10.34-22.63,15.47-25.7,16.26-3.07-.78-14.58-5.98-25.7-16.26-.28-.22-.56-.5-.84-.78l26.54-28.16,26.54,28.16c-.28.28-.56.56-.84.78h0Zm-53.91-16.7c-3.24-3.24-3.24-8.44,0-11.62,3.24-3.24,8.44-3.24,11.62,0,3.24,3.24,3.24,8.44,0,11.62-3.18,3.24-8.44,3.24-11.62,0h0ZM96.7,3.24v27.54H3.24V3.24h93.46Zm1.34-1.34H1.9v47.93c-.06,21.01,11.62,36.26,21.45,45.36,10.73,9.94,22.74,15.81,26.54,16.65h.22c3.8-.84,15.81-6.7,26.54-16.65,9.83-9.11,21.51-24.36,21.45-45.36-.06-.61-.06-47.93-.06-47.93h0Z"></path></svg> 