<?xml version="1.0" encoding="UTF-8"?> <svg xmlns="http://www.w3.org/2000/svg" id="Layer_1" width="100" height="18.61" viewBox="0 0 100 18.61"><defs><style>.cls-1{fill:#fff;}</style></defs><path class="cls-1" d="m51.33,0c.02.09.12.07.17.08.3.08.5.27.65.52.16.28,6.85,12.46,7.25,13.19.02.03.04.06.07.1.03-.04.06-.06.08-.09.78-1.05,7.4-10.11,7.55-10.31,0-.02.02-.03.03-.05-.01,0-.02,0-.04-.01-.13,0-.27,0-.4,0-2.06,0-4.12,0-6.19,0-.22,0-.44,0-.65-.01-.1,0-.2-.03-.29-.07-.47-.2-.84-.52-1.05-.99-.09-.2-.13-.42-.13-.64,0-.36,0-.72,0-1.09,0-.01,0-.03.02-.06.05,0,.1,0,.15,0,3.92,0,7.83,0,11.75,0,.37,0,.57.21.57.57,0,.58,0,1.16,0,1.74,0,.17-.05.32-.15.46-.62.84-8.58,11.77-8.62,11.82h.21c2.64,0,5.28,0,7.91,0,.07,0,.14,0,.21.01.26.05.43.25.43.51,0,.6,0,1.19,0,1.79,0,.33-.24.55-.58.55-1.58,0-10.89,0-11.46.01-.15,0-.22-.05-.29-.17-.18-.32-6.93-12.56-7.28-13.18-.03-.05-.06-.1-.1-.16-.2.37-7.28,13.16-7.41,13.38-.05.09-.12.13-.23.13-.46,0-.93,0-1.39,0-.09,0-.15-.02-.2-.1-.48-.71-3.49-5.09-4.5-6.56-.14-.2-.14-.2-.38-.18-.28.02-5.08.03-5.16.03,0,.08,0,6.12,0,6.21,0,.34-.22.56-.56.56-.31,0-.62,0-.93,0-.23,0-.47,0-.7,0-.36,0-.6-.25-.6-.6,0-5.56,0-11.13,0-16.69,0-.04,0-.08,0-.15.06,0,.12,0,.18,0,2.34,0,4.68,0,7.02,0,.34,0,.67.02,1.01.04.18.01.35.07.52.08.29.02.56.11.84.17.2.05.38.14.57.2.74.25,1.36.68,1.92,1.22.42.4.75.87.99,1.4.12.25.22.52.29.79.16.6.25,1.21.16,1.83-.06.41-.13.81-.27,1.2-.31.87-.81,1.59-1.51,2.19-.25.21-.49.42-.79.57-.02.01-.04.03-.06.04.49.56.88,1.18,1.31,1.78.43.59.86,1.2,1.28,1.79.05.07.1.15.16.24.1-.17.19-.33.27-.49.64-1.16,1.27-2.31,1.91-3.47.61-1.11,4.91-8.91,5.2-9.46.17-.32.41-.55.77-.64.07.01.13.01.17-.06h.29Zm-19.43,8.36c.07,0,.13,0,.19,0,1.19,0,2.38,0,3.57,0,.35,0,.7-.01,1.05-.02.42,0,.83-.09,1.22-.23.55-.2,1.04-.49,1.41-.94.34-.41.5-.88.5-1.4,0-.59-.25-1.1-.7-1.49-.46-.4-1-.59-1.58-.73-.19-.04-.39-.05-.58-.07-.2-.02-.4-.05-.6-.05-1.45,0-2.91,0-4.36,0-.04,0-.08,0-.12.01v4.92Z"></path><path class="cls-1" d="m17.68,18.06c-.47-.22-.93-.47-1.35-.79-.44-.33-.84-.69-1.2-1.1-.48-.56-.87-1.17-1.16-1.84-.07-.15-.15-.3-.21-.46-.06-.14-.09-.3-.14-.45-.03-.09-.04-.19-.06-.28-.05-.22-.1-.44-.13-.66-.03-.28-.06-.57-.06-.85,0-1.84,0-8.82,0-10.47,0-.11,0-.22.06-.32.1-.16.24-.25.43-.26.13,0,.26,0,.38,0,.44,0,.87,0,1.31,0,.08,0,.17,0,.25.03.26.08.32.2.36.49,0,.04,0,.09,0,.13,0,3.27,0,10.44,0,10.76,0,.14.04.28.07.42.04.19.09.38.15.56.06.16.13.3.21.45.39.78.98,1.37,1.73,1.81.21.12.44.22.67.3.21.08.44.12.65.17.23.05.48.05.72.05.35,0,.7-.04,1.05-.14.91-.24,1.65-.73,2.24-1.46.26-.33.47-.68.61-1.08.07-.18.14-.37.18-.56.06-.3.12-.59.12-.9,0-1.82,0-8.65,0-10.25,0-.12,0-.24.01-.35.03-.25.2-.41.45-.44.06,0,.12,0,.18,0,.51,0,1.02,0,1.53,0,.09,0,.19,0,.28.03.17.05.29.17.31.36.01.12.03.24.03.36,0,3.3-.07,10.98-.09,11.11,0,.02,0,.04,0,.06-.02.16-.03.33-.07.49-.05.21-.1.42-.17.63-.05.15-.1.31-.16.45-.13.29-.26.59-.41.87-.24.45-.55.86-.88,1.25-.69.84-1.57,1.43-2.56,1.86-.4.18-1.51.55-2.6.55s-2.48-.4-2.79-.55Z"></path><path class="cls-1" d="m51.04,0c-.04.07-.1.07-.17.06,0-.02,0-.04,0-.06.05,0,.11,0,.16,0Z"></path><path class="cls-1" d="m2.8,15.15c.14,0,.27,0,.39,0,2.16,0,4.32,0,6.47,0,.56,0,1.12,0,1.68,0,.1,0,.2,0,.3.03.18.05.29.17.32.36.02.11.03.23.03.35,0,.48,0,.96,0,1.44,0,.08,0,.17-.02.25-.04.25-.22.41-.47.43-.04,0-.09,0-.13,0-3.58,0-7.15,0-10.73,0-.12,0-.24,0-.36-.06-.15-.08-.26-.18-.28-.36,0-.07-.01-.15-.01-.22C0,11.98,0,6.6,0,1.22c0-.27.15-.52.47-.55.07,0,.14-.02.21-.02,3.6,0,7.19,0,10.79,0,.02,0,.03,0,.05,0,.21,0,.34.13.36.34,0,.04,0,.07,0,.11,0,.66,0,1.32,0,1.98,0,.03,0,.05,0,.08,0,.22-.08.31-.3.34-.06,0-.12,0-.18,0-2.81,0-5.62,0-8.43,0-.06,0-.11,0-.18,0v4.34c.1,0,.2,0,.29,0,1.64,0,3.27,0,4.91,0,.24,0,.48.01.7.09.51.18.86.51,1.03,1.03.08.24.12.48.12.73,0,.29,0,.58,0,.86,0,.04,0,.08,0,.14H2.8v4.44Z"></path><path class="cls-1" d="m74.93,3.51v4.34c.07,0,.13,0,.19,0,.87,0,1.75,0,2.62,0,.82,0,1.64,0,2.46,0,.35,0,.68.06.99.25.31.19.51.46.65.8.11.29.14.57.14.87,0,.26,0,.51,0,.77,0,.05,0,.1,0,.17h-7.04v4.42c.05,0,.11,0,.17,0,.56,0,1.13,0,1.69,0,2.2,0,4.39,0,6.59,0,.07,0,.15,0,.22,0,.32,0,.48.17.52.52.01.1,0,.2,0,.3,0,.48,0,.97,0,1.45,0,.23-.08.43-.31.53-.07.03-.14.04-.22.05-.12,0-.25,0-.37,0-3.47,0-6.95,0-10.42,0-.11,0-.23,0-.33-.04-.21-.07-.32-.22-.34-.44,0-.06,0-.12,0-.18,0-5.38,0-10.75,0-16.13,0-.34.13-.5.47-.55.07-.01.14-.02.21-.02,3.59,0,7.18,0,10.78,0,.08,0,.17.02.24.05.11.05.17.14.17.26,0,.05,0,.1,0,.14,0,.66,0,1.31,0,1.97,0,.05,0,.1,0,.14-.02.16-.09.24-.24.27-.07.01-.15.02-.22.02-2.81,0-5.62,0-8.43,0-.06,0-.12,0-.19,0Z"></path><path class="cls-1" d="m48.16,14.12c.06-.2.11-.38.18-.55.06-.18.13-.35.21-.52.31-.68.74-1.25,1.5-1.49.17-.05.33-.09.51-.09.43,0,.86,0,1.29,0,.22,0,.43.06.64.14.58.22.94.65,1.22,1.18.18.35.32.72.44,1.09.02.07.05.15.08.23h-6.06Z"></path><path class="cls-1" d="m67.09,3.43s.02,0,.04.01c0,.02-.02.03-.03.05,0-.02,0-.04,0-.06Z"></path><path class="cls-1" d="m92.36.2c-6.4,0-7.61,5.87-7.61,7.41s-.03,2.15-.03,3.58,1.47,7.25,7.64,7.25,7.64-5.82,7.64-7.25v-3.58c0-1.55-1.24-7.41-7.64-7.41Zm4.74,11.03c0,.47-.98,4.22-4.74,4.22s-4.73-3.74-4.73-4.22.03-3.42.03-3.96.86-4.07,4.7-4.07,4.73,3.59,4.73,4.07,0,3.49,0,3.96Z"></path></svg> 