<?xml version="1.0" encoding="UTF-8"?> <svg xmlns="http://www.w3.org/2000/svg" id="Layer_1" width="600" height="400" viewBox="0 0 600 400"><defs><style>.cls-1{fill:#fff;stroke-width:0px;}</style></defs><path class="cls-1" d="m308.83,161.92v76.03h-18.88v-76.03h18.88Z"></path><path class="cls-1" d="m355.84,159.49c22.61,0,40.83,17.52,40.83,40.29s-18.35,40.72-41.01,40.72-41.01-17.63-41.01-40.43c-.03-22.77,18.59-40.59,41.2-40.59Zm-.16,62.45c12,0,20.8-10.37,20.8-22.03s-8.85-21.92-20.8-21.92-20.85,10.27-20.85,21.92,8.88,22.03,20.85,22.03Z"></path><path class="cls-1" d="m398.83,214.96l17.31-4.11c1.25,9.15,7.89,12.43,14.88,12.43s9.47-4.11,9.47-7.31c0-2.59-1.49-5.12-6.56-6.13l-10.56-2.05c-12.64-2.43-21.57-10.37-21.57-22.59,0-14.53,13.25-24.77,28.21-24.77,19.28,0,27.23,12.05,28.61,22.13l-16.99,4.77c-.91-6.21-4.75-10.72-11.71-10.72-6.03,0-8.91,4.03-8.91,7.07,0,2.53,1.2,5.44,5.68,6.32l11.01,2.11c14.4,2.77,22.29,11.57,22.29,23.01,0,12.43-10.72,24.4-29.09,24.4-19.23.03-29.55-10.05-32.08-24.56Z"></path><polygon class="cls-1" points="260.08 199.09 285.31 161.89 262.24 161.89 248.61 184.4 235.33 161.89 211.95 161.89 237.49 199.09 220.99 223.28 193.92 161.92 173.55 161.92 207.23 237.95 232.72 237.95 248.61 213.87 264.35 237.95 285.2 237.95 260.08 199.09"></polygon><polygon class="cls-1" points="170.05 169.84 140 237.95 160.32 237.95 180.25 192.85 170.05 169.84"></polygon><polygon class="cls-1" points="260.08 199.09 285.31 161.89 262.24 161.89 248.61 184.4 235.33 161.89 211.95 161.89 237.49 199.09 220.99 223.28 193.92 161.92 173.55 161.92 207.23 237.95 232.72 237.95 248.61 213.87 264.35 237.95 285.2 237.95 260.08 199.09"></polygon></svg> 