<?xml version="1.0" encoding="UTF-8"?> <svg xmlns="http://www.w3.org/2000/svg" id="Layer_1" width="100" height="22.33" viewBox="0 0 100 22.33"><defs><style>.cls-1{fill:#3a357e;}</style></defs><path class="cls-1" d="m36.36,22.33c-.01-.12-.03-.24-.04-.36,0-.18.05-.25.22-.3.22-.07.44-.13.66-.2.06-.02.12-.05.17-.08.2-.1.3-.26.3-.48,0-.06,0-.12,0-.17,0-3.91,0-7.82,0-11.74,0-.19,0-.38-.04-.57-.08-.54-.34-.64-.72-.74-.15-.04-.31-.05-.46-.07-.23-.03-.33-.16-.3-.39,0-.07.02-.15.03-.22.03,0,.05-.01.08-.02.29-.02.57-.04.86-.05.58-.04,1.15-.15,1.72-.27.18-.04.36-.07.54-.09.21-.01.31.09.32.3,0,.15,0,.3-.01.45-.02.4-.04.81-.06,1.21,0,.03,0,.07,0,.12.07-.02.1-.08.14-.13.41-.51.87-.95,1.4-1.33.46-.33.99-.51,1.55-.59.37-.05.74-.04,1.12-.02,0,.01,0,.02,0,.02,0,0,0,.02,0,.02.16-.02.32.03.48.07.98.26,1.71.86,2.24,1.7.36.58.59,1.2.72,1.87.09.49.12.97.11,1.46-.02,1.21-.45,2.28-1.19,3.23-.66.84-1.5,1.44-2.52,1.77-.52.17-1.05.23-1.6.18-.51-.05-1.02-.1-1.51-.26-.31-.1-.6-.22-.92-.33,0,.03-.01.07-.01.1,0,1.35,0,2.7,0,4.05,0,.27.05.51.27.68.11.09.24.15.38.2.31.12.63.16.96.21.21.03.41.05.62.08.22.03.31.14.3.36,0,.11-.02.22-.03.33h-.42s-.06-.03-.08-.03c-.55-.02-1.1-.06-1.66-.07-.81,0-1.62.01-2.44.02-.07,0-.15,0-.21,0,0,0,0,0,0,.01,0,0,0,0,0,0-.3.02-.61.04-.91.06h-.07Zm3.28-7.56c.06.05.1.1.15.14.31.31.66.56,1.04.77.58.32,1.2.42,1.85.39.21,0,.42-.05.62-.12.62-.23,1.06-.66,1.36-1.24.24-.45.38-.94.46-1.44.13-.84.12-1.69-.04-2.53-.12-.63-.32-1.22-.67-1.76-.34-.52-.77-.93-1.37-1.14-.58-.21-1.14-.17-1.68.14-.41.24-.76.54-1.04.92-.43.56-.68,1.19-.67,1.91.02,1.21,0,2.41,0,3.62,0,.1,0,.21,0,.32Z"></path><path class="cls-1" d="m55.86,22.33c-.01-.11-.03-.23-.03-.34,0-.19.06-.26.24-.32.23-.07.46-.14.69-.22.32-.11.44-.35.44-.68,0-3.1,0-6.21,0-9.31,0-.83,0-1.65,0-2.48,0-.21-.03-.43-.06-.63-.05-.33-.25-.54-.57-.62-.17-.04-.34-.07-.51-.09-.36-.04-.49-.2-.36-.6,0-.01.01-.02.03-.04.05,0,.11,0,.16,0,.58,0,1.16-.09,1.73-.16.29-.04.58-.14.87-.2.15-.03.3-.05.44-.05.16,0,.24.07.25.22.01.14,0,.29,0,.43-.01.42-.03.84-.05,1.26,0,.06,0,.11,0,.19.13-.15.25-.29.37-.43.41-.46.86-.87,1.38-1.19.41-.25.86-.4,1.34-.45.39-.05.78-.06,1.17,0,.83.13,1.55.5,2.13,1.12.52.55.87,1.2,1.09,1.92.25.83.32,1.68.23,2.55-.06.55-.18,1.08-.42,1.57-.32.66-.72,1.26-1.25,1.77-.73.69-1.58,1.15-2.56,1.34-.4.08-.8.06-1.21.02-.45-.04-.9-.11-1.34-.25-.31-.1-.62-.22-.93-.33,0,.04,0,.08,0,.13,0,1.35,0,2.7,0,4.05,0,.43.17.69.57.83.24.09.49.15.75.2.29.05.59.08.89.12.23.03.33.13.32.36,0,.11-.02.22-.03.33h-.1s-.08-.02-.12-.02c-.6-.03-1.2-.06-1.8-.08-1.15-.02-2.31-.02-3.46.07-.07,0-.14.02-.2.03h-.1Zm3.29-7.55c.21.18.41.36.63.53.35.27.74.49,1.17.62.49.15,1,.16,1.51.12.05,0,.11,0,.15-.01.23-.11.48-.18.7-.33.5-.34.82-.81,1.04-1.36.26-.66.35-1.36.38-2.06.02-.59-.04-1.17-.17-1.75-.15-.66-.39-1.27-.82-1.81-.36-.45-.8-.79-1.37-.94-.57-.15-1.09-.05-1.58.26-.55.35-.97.81-1.28,1.38-.23.42-.36.87-.34,1.35,0,.23,0,.46,0,.69,0,1.09,0,2.18,0,3.31Z"></path><path class="cls-1" d="m100,16.31c-.05.06-.1.07-.17.07-.74.02-1.47.07-2.19.25-.21.05-.42.1-.64.15-.05.01-.1.02-.15.02-.23,0-.34-.1-.34-.33,0-.39,0-.77,0-1.16,0-.2,0-.39,0-.62-.1.13-.18.23-.26.33-.18.23-.35.47-.55.69-.52.58-1.16.97-1.93,1.13-.54.12-1.09.14-1.63.04-1.14-.21-1.98-.84-2.59-1.82-.36-.59-.6-1.23-.71-1.91-.11-.73-.15-1.46-.02-2.19.21-1.15.76-2.13,1.58-2.95.67-.67,1.48-1.13,2.41-1.35.22-.05.45-.08.68-.09.98-.04,1.9.19,2.81.54.06.02.13.05.2.08,0-.06,0-.11,0-.17,0-1.38,0-2.77,0-4.15,0-.24-.02-.48-.09-.72-.08-.3-.26-.48-.55-.56-.21-.06-.43-.1-.64-.13-.24-.04-.33-.12-.32-.36,0-.09.01-.18.02-.29.05,0,.09-.01.14-.01.46-.03.92-.04,1.38-.08.51-.04,1.01-.17,1.51-.29.11-.03.23-.04.34-.03.19,0,.29.1.29.29,0,.18,0,.37-.01.55-.03.42-.08.84-.11,1.26,0,.1,0,.2,0,.29,0,3.92,0,7.85,0,11.77,0,.14.01.29.04.43.05.29.22.48.49.57.23.08.47.12.7.16.14.02.25.08.33.19v.38Zm-3.5-7.6c-.36-.37-.75-.68-1.2-.91-.57-.3-1.19-.42-1.84-.39-.32.01-.62.1-.91.23-.54.25-.88.7-1.13,1.22-.32.68-.48,1.4-.49,2.15-.01.54,0,1.07.1,1.6.11.61.29,1.2.6,1.73.34.57.78,1.04,1.42,1.28.56.21,1.1.2,1.63-.09.42-.23.77-.54,1.07-.92.47-.61.76-1.28.75-2.07-.01-.89,0-1.78,0-2.67v-1.17Z"></path><path class="cls-1" d="m.05,19.46c.14-.14.48-.48.7-.73.32-.34.62-.69.89-1.08.31-.46.55-.94.68-1.48.08-.36.16-.72.16-1.09,0-.34,0-.68,0-1.02,0-1.86,0-3.73,0-5.59,0-.13,0-.25,0-.38,0-.23-.07-.45-.13-.68-.11-.4-.23-.79-.33-1.19-.1-.39-.14-.79-.14-1.2,0-.04,0-.08,0-.12.02-.23.14-.34.36-.36.35-.04.69.04,1.01.16.4.15.81.3,1.21.45.51.18,1.03.31,1.58.32.54,0,1.08.02,1.63.02.72,0,1.44,0,2.16,0,.03,0,.07,0,.1,0,.15.02.23.12.2.26-.04.25-.23.44-.48.46-.41.04-.83.07-1.24.1-.59.05-1.18.1-1.77.17-.35.04-.71.09-1.06.14-.07.01-.15.03-.22.04-.1.03-.19.08-.26.16-.42.47-.67,1.01-.67,1.66,0,1.31,0,2.62,0,3.93,0,.67-.03,1.35-.08,2.02-.05.78-.22,1.53-.58,2.24-.26.51-.61.96-1.01,1.37-.48.49-1,.92-1.54,1.34-.26.2-.53.4-.8.6-.04.03-.07.05-.11.07-.14-.07-.27-.28-.29-.32s-.09-.18,0-.28Z"></path><path class="cls-1" d="m36.63,16.77c-1.65-.18-3.27-.15-4.89-.01-.06-.13-.06-.26-.05-.4,0-.15.08-.25.23-.26.26-.02.49-.11.72-.21.11-.05.21-.11.31-.18.15-.11.23-.25.22-.44,0-.31,0-.62,0-.93,0-1.35,0-2.7,0-4.05,0-.43-.04-.86-.16-1.28-.13-.44-.41-.75-.87-.85-.31-.07-.62-.09-.93-.02-.23.05-.48.09-.7.18-.98.38-1.58,1.09-1.8,2.12-.05.22-.06.44-.06.67,0,1.38,0,2.76,0,4.14,0,.29.13.48.39.59.27.12.55.2.84.26.21.04.27.12.27.33,0,.1-.02.21-.04.32-.54,0-1.07-.09-1.6-.09-.54,0-1.09-.01-1.63,0-.53.02-1.07.06-1.61.1-.01-.13-.03-.25-.04-.37,0-.17.07-.26.23-.29.29-.05.56-.14.82-.24.29-.12.43-.32.43-.64,0-1.53,0-3.07,0-4.6,0-.4-.03-.79-.07-1.19-.02-.23-.09-.46-.19-.68-.19-.42-.55-.61-.98-.64-1-.05-1.89.24-2.57,1.01-.42.48-.66,1.05-.68,1.69-.02.51,0,1.02,0,1.52,0,.96,0,1.93,0,2.89,0,.32.14.5.41.61.26.1.53.18.8.25.22.06.27.11.26.34,0,.11,0,.22-.06.33-1.62-.15-3.25-.15-4.89,0-.01-.13-.04-.24-.04-.35,0-.19.07-.27.25-.31.26-.06.51-.14.76-.21.03,0,.06-.02.1-.04.31-.12.45-.33.45-.67-.01-2.04,0-4.07,0-6.11,0-.24-.01-.48-.07-.72-.08-.31-.26-.52-.57-.61-.19-.05-.38-.1-.57-.12-.25-.02-.43-.13-.37-.49,0-.04.02-.09.04-.14.19-.01.39-.02.58-.04.34-.02.68-.03,1.02-.08.39-.06.77-.15,1.15-.22.17-.03.35-.06.53-.08.24-.03.37.09.37.36,0,.28-.02.55-.07.83-.06.35-.04.71-.02,1.08.11-.12.21-.23.32-.35.67-.75,1.45-1.35,2.39-1.72.7-.27,1.43-.28,2.15-.07.57.17.96.55,1.21,1.08.17.35.25.71.29,1.1.08,0,.11-.07.15-.11.26-.26.5-.54.77-.79.56-.51,1.18-.92,1.88-1.2.33-.13.67-.2,1.02-.21.33,0,.67,0,1,.09.67.17,1.13.57,1.39,1.2.2.46.28.95.31,1.44,0,.13,0,.25,0,.38,0,1.84,0,3.68,0,5.52,0,.38.18.53.43.63.28.12.56.19.86.25.21.04.28.12.27.33,0,.11-.02.21-.04.35Z"></path><path class="cls-1" d="m6.21,7c.31-.02.6-.04.89-.06.62-.04,1.23-.15,1.84-.3.14-.04.29-.05.44-.06.17,0,.26.08.28.24.01.07,0,.14,0,.21,0,1.96,0,3.92,0,5.89,0,.46.03.92.17,1.37.1.31.25.59.51.8.22.17.46.26.73.29.65.06,1.26-.04,1.84-.34.79-.41,1.28-1.07,1.48-1.94.05-.22.07-.45.07-.67,0-1.17,0-2.33,0-3.5,0-.2-.03-.4-.07-.6-.05-.31-.25-.52-.55-.59-.19-.05-.39-.07-.59-.11-.07-.01-.14-.03-.2-.05-.09-.04-.14-.11-.14-.2,0-.12.01-.24.02-.37.07,0,.12,0,.17,0,.52-.02,1.04-.07,1.56-.15.39-.06.76-.15,1.15-.23.1-.02.21-.03.31-.03.17,0,.26.09.29.26,0,.06,0,.13,0,.19,0,2.45,0,4.9,0,7.36,0,.22.01.44.04.66.04.36.24.59.59.68.17.04.34.07.51.1.04,0,.08,0,.12.01.25.05.33.17.29.42-.01.07-.02.14-.04.21-.1,0-.21,0-.31.01-.27.03-.54.05-.81.09-.5.07-1,.16-1.5.23-.16.03-.33.05-.49.07-.24.02-.35-.12-.35-.34,0-.63,0-1.26,0-1.92-.06.06-.1.1-.14.14-.26.3-.53.59-.83.86-.53.46-1.11.84-1.76,1.1-.51.21-1.05.25-1.6.2-.3-.03-.6-.09-.89-.21-.66-.27-1.08-.77-1.32-1.42-.14-.37-.2-.76-.21-1.15,0-.15,0-.3,0-.45,0-1.55,0-3.1,0-4.66,0-.27-.02-.53-.09-.79-.07-.26-.23-.43-.48-.49-.19-.05-.39-.08-.59-.12-.07-.01-.14-.02-.2-.04-.11-.04-.18-.13-.18-.25,0-.11.02-.22.03-.33Z"></path><path class="cls-1" d="m77.27,14.72c-.14.17-.26.33-.4.49-.73.84-1.65,1.36-2.74,1.59-.52.11-1.05.16-1.58.13-.98-.05-1.89-.32-2.68-.93-.59-.46-1.01-1.05-1.31-1.73-.21-.47-.33-.95-.39-1.46-.05-.45-.06-.91-.03-1.36.05-.74.28-1.43.64-2.08.3-.54.66-1.02,1.12-1.44.66-.6,1.41-1.03,2.28-1.25.5-.13,1-.11,1.51-.06.29.03.58.08.86.16.85.24,1.49.75,1.93,1.52.31.54.5,1.13.6,1.75.05.32.07.64.07.96,0,.06,0,.13,0,.21-.08.02-.14.04-.21.04-.39.02-.77.03-1.16.05-.82.04-1.65.08-2.47.12-.48.02-.97.04-1.45.06-.5.02-.99.04-1.49.07-.02,0-.03,0-.05.01,0,.19-.02.38,0,.57.07.59.21,1.15.47,1.68.43.86,1.09,1.48,2.02,1.77,1.11.34,2.13.14,3.05-.55.19-.14.36-.32.54-.49.06-.05.12-.11.19-.15.17-.09.32-.07.45.07.07.08.13.17.2.27Zm-7-4.03c.28-.02.54-.03.8-.05.45-.02.91-.05,1.36-.07.64-.03,1.28-.05,1.92-.08.12,0,.23,0,.34-.02.2-.03.27-.1.27-.31,0-.29-.04-.57-.11-.85-.15-.53-.4-1-.81-1.38-.51-.47-1.11-.6-1.76-.49-.7.12-1.2.52-1.54,1.13-.31.54-.42,1.14-.47,1.75,0,.11,0,.23,0,.36Z"></path><path class="cls-1" d="m87.48,14.71c-.2.3-.43.55-.67.79-.64.64-1.41,1.04-2.28,1.26-.56.14-1.12.19-1.69.17-.83-.03-1.62-.22-2.33-.65-.6-.36-1.07-.85-1.43-1.45-.32-.54-.54-1.12-.64-1.74-.1-.67-.13-1.34-.02-2.01.17-1.04.62-1.94,1.3-2.73.66-.76,1.47-1.29,2.44-1.6.53-.17,1.07-.19,1.62-.15.35.03.69.09,1.03.19.85.25,1.48.77,1.92,1.53.27.47.44.97.54,1.5.07.4.12.81.12,1.22,0,.18-.03.21-.21.22-.56.02-1.13.04-1.69.06-.61.03-1.22.07-1.83.09-.45.02-.9.04-1.35.06-.58.02-1.16.05-1.77.07,0,.16,0,.32,0,.48.04.47.13.92.3,1.36.19.51.46.97.84,1.36.48.49,1.06.79,1.74.92,1.08.21,2.02-.09,2.86-.78.14-.11.26-.25.39-.37.05-.05.11-.1.18-.13.14-.08.3-.05.42.06.03.03.07.06.09.1.04.05.08.11.12.18Zm-6.98-4.06c.24,0,.47,0,.69,0,.56-.03,1.13-.06,1.69-.09.44-.02.89-.03,1.33-.06.24-.01.48-.03.72-.05.17-.01.26-.1.27-.28,0-.05,0-.1,0-.16-.04-.59-.2-1.14-.53-1.64-.52-.78-1.26-1.1-2.17-.95-.57.09-1.03.4-1.37.89-.49.7-.64,1.49-.63,2.33Z"></path><path class="cls-1" d="m54.82,7.34c.06.71.11,1.4.11,2.11-.23-.01-.45-.01-.66-.04-.14-.02-.21-.13-.24-.26-.05-.18-.09-.37-.15-.55-.22-.58-.65-.92-1.23-1.08-.34-.1-.68-.13-1.03-.1-.52.05-.99.24-1.3.68-.36.5-.29,1.19.13,1.64.26.28.59.45.93.58.51.2,1.04.37,1.55.56.44.16.88.35,1.27.62.76.52,1.14,1.25,1.18,2.17.02.45-.04.88-.2,1.3-.22.6-.62,1.05-1.15,1.38-.48.29-.99.46-1.55.53-.52.07-1.03.06-1.55,0-.48-.05-.94-.13-1.41-.26-.39-.11-.76-.26-1.14-.46-.05-.85-.11-1.71-.11-2.59.19,0,.37-.02.55.04.15.05.24.16.26.33.06.56.27,1.05.67,1.46.33.33.73.51,1.18.6.33.07.66.09,1,.06.32-.02.64-.09.93-.24.5-.27.76-.69.78-1.25.02-.49-.11-.92-.51-1.24-.13-.1-.28-.19-.42-.27-.43-.23-.9-.38-1.36-.53-.62-.19-1.21-.46-1.76-.83-.54-.37-.88-.86-1.01-1.51-.12-.62-.09-1.23.16-1.81.34-.79.93-1.3,1.72-1.6.39-.14.79-.22,1.2-.21.17,0,.35,0,.52,0,.48.03.96.11,1.42.25.35.11.7.23,1.03.4.06.03.12.07.2.11Z"></path><ellipse class="cls-1" cx="8.35" cy="1.86" rx="1.82" ry="1.86"></ellipse></svg> 