<?xml version="1.0" encoding="UTF-8"?> <svg xmlns="http://www.w3.org/2000/svg" id="Layer_1" width="599.76" height="400.32" viewBox="0 0 599.76 400.32"><defs><style>.cls-1,.cls-2{fill:#c34d5b;}.cls-2{fill-rule:evenodd;}</style></defs><g id="Page-1"><g id="Zobito_Logo"><g id="Group"><g id="Clipped"><path id="Shape" class="cls-2" d="m373.14,231.3h13.71v-49.76h19.02v-12.68h-51.66v12.68h19.02v49.76h-.08Zm-96.35-12.04v-13.71h15.85c7.05,0,10.14,2.61,10.14,6.81v.16c0,4.68-3.65,6.74-9.75,6.74h-16.24Zm0-25.12v-13.23h13.55c5.78,0,9.03,2.3,9.03,6.42v.16c0,4.6-3.8,6.58-9.9,6.58h-12.68v.08Zm-13.39,37.16h29.71c14.1,0,23.38-5.71,23.38-17.12v-.16c0-8.4-4.44-12.6-11.65-15.29,4.44-2.54,8.16-6.42,8.16-13.47v-.16c0-4.28-1.43-7.77-4.28-10.62-3.57-3.57-9.19-5.55-16.32-5.55h-29v62.36h0Zm-45.25-11.57c-11.01,0-18.86-8.95-18.86-19.65v-.16c0-10.7,7.69-19.41,18.7-19.41s18.94,8.87,18.94,19.65v.16c-.08,10.62-7.77,19.41-18.78,19.41h0Zm-.24,12.6c19.26,0,33.28-14.5,33.28-32.25v-.16c0-17.75-13.79-32.09-33.04-32.09s-33.28,14.5-33.28,32.25v.16c0,17.75,13.79,32.09,33.04,32.09h0Zm-93.03-1.03h51.98v-12.04h-34.31l34.31-39.94v-10.46h-50.95v12.04h33.28l-34.31,39.94v10.46h0Z"></path></g></g><rect id="Rectangle-path" class="cls-1" x="329.16" y="168.86" width="13.71" height="62.6"></rect><g id="Clipped-2"><path id="Shape-2" class="cls-2" d="m468.38,180.83c-4.28-3.09-8.8-5.15-15.37-5.39-15.21-.55-29.79,9.83-29.48,24.72.24,9.9,7.77,17.75,19.02,18.23,8.32.32,18.7-6.42,18.3-18.3-.32-9.9-11.17-14.18-17.67-12.28-3.25.95-4.99,2.3-8.87,7.45,2.46-9.43,11.49-14.82,20.68-14.82,10.94,0,19.89,8.87,19.89,19.81-.08,17.83-14.5,32.25-32.33,32.25s-32.33-14.5-32.33-32.33,14.5-32.33,32.33-32.33c9.51-.08,20.44,4.36,25.83,13"></path></g></g></g></svg> 