<?xml version="1.0" encoding="UTF-8"?> <svg xmlns="http://www.w3.org/2000/svg" id="Layer_1" width="599.76" height="400.32" viewBox="0 0 599.76 400.32"><defs><style>.cls-1{fill:#3a357e;}</style></defs><path class="cls-1" d="m110.18,274.18v-54.07h29.07l1.67,10.07h-20.33v10.83h16.42v10.07h-16.42v13.22h22.91l-3.34,10.07h-29.98v-.19Z"></path><path class="cls-1" d="m175.96,245.11c-2.62-1.48-5.4-2.96-8.59-2.96-7.45,0-12.84,4.86-12.84,12.12s6.35,12.12,11.55,12.12c4.1,0,6.35-.95,9.69-2.96l5.59,7.07c-3.91,3.91-9.88,5.02-14.9,5.02-10.26,0-21.62-8.21-21.62-21.62,0-12.12,10.26-20.86,22-20.86,5.78,0,10.26,1.86,14.74,4.67l-5.59,7.45-.04-.04Z"></path><path class="cls-1" d="m202.64,232.99c11.74,0,22.19,9.12,22.19,21.24s-10.45,21.24-22.19,21.24-22.19-9.12-22.19-21.24,10.45-21.24,22.19-21.24Zm0,33.36c6.73,0,12.69-5.21,12.69-12.12s-5.97-12.12-12.69-12.12-12.69,5.21-12.69,12.12,5.97,12.12,12.69,12.12Z"></path><path class="cls-1" d="m228.55,234.32l9.5-.95v5.02c2.96-3.53,5.4-5.4,10.26-5.4,3.91,0,7.45,1.67,10.26,5.02,3.53-3.53,6.54-5.02,11.17-5.02,6.16,0,13.03,3.53,13.03,12.69v28.54l-10.07.57v-27.21c.38-4.86-2.43-5.78-5.78-5.78-4.1,0-6.35,2.96-6.35,8.02v24.62l-10.07.57v-27.4c.38-4.86-2.43-5.78-5.78-5.78-4.1,0-6.35,2.96-6.35,8.02v24.62l-10.07.57v-40.62h.19l.04-.11Z"></path><path class="cls-1" d="m286.31,234.32l9.5-.95v5.02c2.96-3.53,5.4-5.4,10.26-5.4,3.91,0,7.45,1.67,10.26,5.02,3.53-3.53,6.54-5.02,11.17-5.02,6.16,0,13.03,3.53,13.03,12.69v28.54l-10.07.57v-27.21c.38-4.86-2.43-5.78-5.78-5.78-4.1,0-6.35,2.96-6.35,8.02v24.62l-10.07.57v-27.4c.38-4.86-2.43-5.78-5.78-5.78-4.1,0-6.35,2.96-6.35,8.02v24.62l-10.07.57v-40.62h.19l.04-.11Z"></path><path class="cls-1" d="m383.06,270.27c-4.86,3.34-10.83,5.21-16.76,5.21-11.74,0-22.19-9.12-22.19-21.24s10.45-21.24,22.19-21.24c8.21,0,15.47,5.02,19,12.31l-27.21,17.14c.76,1.67,2.96,4.1,7.83,4.1s8.93-2.05,13.03-4.67c0,0,4.1,8.4,4.1,8.4Zm-10.26-26.3c-1.86-1.86-4.29-2.62-7.07-2.62-6.35,0-11.36,5.02-11.93,11.17,0,.95,0,1.67.19,2.62,0,0,18.81-11.17,18.81-11.17Z"></path><path class="cls-1" d="m397.62,240.44h0c3.53-6.16,8.21-7.45,15.09-7.64l-3.53,10.64c-7.64,0-10.98,4.48-10.98,11.36v19.19l-10.07.57v-40.28l9.5-.95v7.07h0v.04Z"></path><path class="cls-1" d="m442.53,245.11c-2.62-1.48-5.4-2.96-8.59-2.96-7.45,0-12.84,4.86-12.84,12.12s6.35,12.12,11.55,12.12c4.1,0,6.35-.95,9.69-2.96l5.59,7.07c-3.91,3.91-9.88,5.02-14.9,5.02-10.26,0-21.62-8.21-21.62-21.62,0-12.12,10.26-20.86,22-20.86,5.78,0,10.26,1.86,14.74,4.67l-5.59,7.45-.04-.04Z"></path><path class="cls-1" d="m487.64,270.27c-4.86,3.34-10.83,5.21-16.76,5.21-11.74,0-22.19-9.12-22.19-21.24s10.45-21.24,22.19-21.24c8.21,0,15.47,5.02,19,12.31l-27.4,17.14c.76,1.67,2.96,4.1,7.83,4.1s8.93-2.05,13.03-4.67c0,0,4.29,8.4,4.29,8.4Zm-10.45-26.3c-1.86-1.86-4.29-2.62-7.07-2.62-6.35,0-11.36,5.02-11.93,11.17,0,.95,0,1.67.19,2.62,0,0,18.81-11.17,18.81-11.17Z"></path><path class="cls-1" d="m173.11,124.88c0,.91.15,2.32.3,4.18,0,0,.3,5.24-.15,7.26-1.22.76-28.04,5.4-39.94,15.73-10.64,9.23-9.58,18.81-9.58,20.52,0,0-2.47-11.7.76-22.04,1.41-4.48,4.33-8.32,7.87-11.4,0,0,6-5.24,17.1-9.73,3.84-1.56,8.17-2.93,13.41-4.48h-53.01v78.47h13.26c.15-2.62.61-5.55,1.41-8.32,1.41-4.48,4.33-8.32,7.87-11.4,0,0,6-5.24,17.1-9.73,6-2.47,13.26-4.64,23.6-6.95,0,0-.46.46.15,6.61,0,0,.3,5.24-.15,7.26-1.22.76-28.04,5.4-39.94,15.73-2.62,2.32-4.48,4.64-5.85,6.8h60.91v-78.51h-15.12Zm.15,33.78c-1.22.76-28.04,5.4-39.94,15.73-10.64,9.23-9.58,18.81-9.58,20.52,0,0-2.47-11.7.76-22.04,1.41-4.48,4.33-8.32,7.87-11.4,0,0,6-5.24,17.1-9.73,6-2.47,13.26-4.64,23.6-6.95,0,0-.46.46.15,6.61.15.15.46,5.4,0,7.26h.04Z"></path><path class="cls-1" d="m224.15,203.05l-10.45.76v-54.8h15.47c12.31,0,17.52,10.07,17.52,16.95,0,10.98-7.64,17.9-18.28,17.9-1.48,0-2.81,0-4.1-.19v19.38h-.19.04Zm0-29.07h2.62c6.16,0,9.69-2.24,9.69-7.45s-3.34-7.45-9.69-7.45h-2.62s0,14.9,0,14.9Z"></path><path class="cls-1" d="m259.18,169.3h0c3.53-6.16,8.21-7.45,15.09-7.64l-3.53,10.64c-7.64,0-10.98,4.48-10.98,11.36v19.19l-10.07.57v-40.28l9.5-.95v7.11Z"></path><path class="cls-1" d="m278.03,163c3.72-.76,7.64-1.1,11.55-1.1,7.07,0,15.09,3.15,15.09,11.17v30.02l-9.12.95v-3.53c-2.81,2.43-6.35,3.72-10.07,3.72-8.59,0-15.09-5.02-15.09-14.17,0-7.26,6.16-13.6,13.6-13.6,4.29,0,7.07.76,10.98,2.62,0-.95.19-1.67.19-2.62,0-5.4-3.91-6.54-8.59-6.54-3.91,0-7.64.95-11.36,2.43l2.81-9.31v-.04Zm9.69,32.98c3.53,0,7.26-2.05,7.26-5.78s-3.72-5.78-7.26-5.78-7.26,2.24-7.26,5.78c0,3.72,3.72,5.78,7.26,5.78Z"></path><path class="cls-1" d="m339.89,173.98c-2.62-1.48-5.4-2.96-8.59-2.96-7.45,0-12.84,4.86-12.84,12.12s6.35,12.12,11.55,12.12c4.1,0,6.35-.95,9.69-2.96l5.59,7.07c-3.91,3.91-9.88,5.02-14.9,5.02-10.26,0-21.62-8.21-21.62-21.62,0-12.12,10.26-20.86,22-20.86,5.78,0,10.26,1.86,14.74,4.67l-5.59,7.45-.04-.04Z"></path><path class="cls-1" d="m352.59,156.08l10.07-4.48v11.36h9.12v8.59h-9.12v17.14c0,3.91,1.67,6.35,7.45,6.35,1.1,0,2.43,0,3.53-.19l-2.43,8.93c-.95.19-2.62.38-3.91.38-8.4,0-14.55-4.48-14.55-13.41v-19h-6.16l2.24-8.59h3.91v-7.07h-.19.04Z"></path><path class="cls-1" d="m389.86,152.36l-6.73,6.73-6.73-6.73,6.73-6.73,6.73,6.73Zm-11.93,10.83l10.07-.95v41l-10.07.57s0-40.62,0-40.62Z"></path><path class="cls-1" d="m422.47,173.98c-2.62-1.48-5.4-2.96-8.59-2.96-7.45,0-12.84,4.86-12.84,12.12s6.35,12.12,11.55,12.12c4.1,0,6.35-.95,9.69-2.96l5.59,7.07c-3.91,3.91-9.88,5.02-14.9,5.02-10.26,0-21.62-8.21-21.62-21.62,0-12.12,10.26-20.86,22-20.86,5.78,0,10.26,1.86,14.74,4.67l-5.59,7.45-.04-.04Z"></path><path class="cls-1" d="m437.02,163c3.72-.76,7.64-1.1,11.55-1.1,7.07,0,15.09,3.15,15.09,11.17v30.02l-9.12.95v-3.53c-2.81,2.43-6.35,3.72-10.07,3.72-8.59,0-15.09-5.02-15.09-14.17,0-7.26,6.16-13.6,13.6-13.6,4.29,0,7.07.76,10.98,2.62,0-.95.19-1.67.19-2.62,0-5.4-3.91-6.54-8.59-6.54-3.91,0-7.64.95-11.36,2.43l2.81-9.31v-.04Zm9.69,32.98c3.53,0,7.26-2.05,7.26-5.78s-3.72-5.78-7.26-5.78-7.26,2.24-7.26,5.78c0,3.72,3.72,5.78,7.26,5.78Z"></path><path class="cls-1" d="m467.57,171.93v-22.91l10.07-1.29v25.35"></path><path class="cls-1" d="m477.45,171.74v17.14c0,3.91,1.67,6.35,7.45,6.35,1.1,0,2.43,0,3.53-.19l-2.43,8.93c-.95.19-2.62.38-3.91.38-8.4,0-14.55-4.48-14.55-13.41v-19.19"></path></svg> 