<?xml version="1.0" encoding="UTF-8"?> <svg xmlns="http://www.w3.org/2000/svg" id="Layer_1" width="600" height="400" viewBox="0 0 600 400"><defs><style>.cls-1{stroke-width:0px;}</style></defs><path class="cls-1" d="m263.27,214.65c.11.04.21.09.31.14,0,0,0,0,0,0,0,0,0,0,0,0-.1-.05-.2-.1-.31-.14,0,0,0,0,0,0h0Z"></path><path class="cls-1" d="m190.19,171.44c.02-.77-.06-1.54-.21-2.32-.02-.1,0-.2-.03-.31-.61-2.76-1.76-5.32-3.42-7.61-.51-.71-1.06-1.39-1.64-2.03-1.75-1.94-3.8-3.6-6.13-4.96-3.41-1.98-7.01-3.57-10.69-4.72-3.05-.95-6.15-1.57-9.21-1.84-2.21-.19-4.16-.22-5.93-.09-2.43.19-4.56.51-6.53.98-6.1,1.48-11.81,4.19-16.96,8.07-4.52,3.4-7.97,7.62-10.25,12.56-1.71,3.68-2.82,7.8-3.51,12.97-.18,1.32-.29,2.65-.39,3.88-.08.95-.13,1.9-.19,2.91-.03.45-.05.91-.08,1.38h0s0,0,0,0c.03.41.06.83.09,1.27.07,1,.14,2.04.21,3.09.09,1.27.25,2.52.47,3.73.22,1.21.5,2.39.85,3.52,1.77,5.81,4.34,11.13,7.66,15.81,2.34,3.31,5.17,6.23,8.4,8.69.94.72,1.92,1.39,2.93,2.02,2.02,1.26,4.16,2.33,6.42,3.22,1.13.44,2.29.84,3.47,1.19,3.51,1.04,6.69,1.64,9.73,1.84.89.06,1.76.09,2.61.09h0c.31,0,.6-.05.91-.06.85-.02,1.69-.07,2.53-.16.54-.05,1.08-.12,1.61-.2.78-.12,1.55-.28,2.32-.45.32-.07.65-.1.96-.19,4.37-1.17,8.25-3.05,11.53-5.59,3.3-2.56,6.08-5.85,8.26-9.79,1.37-2.47,2.27-5.12,3.07-7.62.25-.79.52-1.73.59-2.73.11-1.54-.47-2.77-1.73-3.67-.62-.44-1.3-.58-2.03-.4-.56.14-1.08.39-1.6.78-.69.52-1.33,1.14-1.95,1.89-.3.36-.59.73-.88,1.08-.41.51-.84,1.04-1.26,1.55-2.58,3.07-5.38,5.33-8.58,6.93-3.03,1.51-6.24,2.31-9.54,2.35-1.28.02-2.59-.14-3.91-.38-.6-.11-1.19-.2-1.79-.36-.82-.22-1.63-.49-2.43-.8-2.39-.94-4.64-2.27-6.74-3.99-1.82-1.49-3.54-3.27-5.43-5.59-3.54-4.35-5.91-9.35-7.05-14.86-.22-1.07-.41-2.14-.56-3.21-.15-1.06-.27-2.12-.34-3.17-.07-1-.12-2.04-.12-3.12,0-1.08.02-2.21.08-3.4.06-1.17.18-2.36.29-3.51.05-.48.1-.98.14-1.47.13-1.44.37-2.87.71-4.26.7-2.82,1.79-5.23,3.33-7.37,1.45-2.01,3.16-3.61,5.12-4.77.65-.39,1.33-.72,2.03-1.01,1.37-.56,2.84-.93,4.5-1.13,2.9-.35,5.52.04,8.01,1.21,1.7.79,3.31,1.95,4.94,3.53,1.47,1.43,2.84,3.09,4.3,5.23,1.27,1.84,2.39,3.46,3.43,4.95,1.2,1.71,2.5,3.37,3.87,4.95.76.88,1.53,1.55,2.36,2.07,1.19.74,2.39,1.15,3.66,1.25.11,0,.22-.02.33-.02.78.04,1.54,0,2.28-.12.19-.03.38-.06.57-.1.8-.17,1.59-.43,2.36-.76.11-.05.22-.05.32-.1,1.64-.75,2.77-2.01,3.37-3.76.03-.1.03-.2.06-.3.22-.71.35-1.43.41-2.15.01-.18.03-.36.03-.54Z"></path><path class="cls-1" d="m369.36,230.26s-.02-.09-.04-.14c-.21-.9-.62-1.73-1-2.43-.16-.31-.33-.61-.49-.92-.41-.75-.82-1.53-1.22-2.3-.55-1.09-.86-2.14-.94-3.23-.06-.73-.12-1.47-.18-2.18-.05-.53-.1-1.08-.14-1.62-.07-.85-.13-1.7-.2-2.71l-.03-.45c-.09-1.27-.18-2.57-.25-3.86-.04-.67-.08-1.35-.11-2.01-.03-.62-.07-1.26-.1-1.89-.04-.71-.1-1.54-.18-2.37-.13-1.39-.28-2.8-.42-4.17-.07-.66-.13-1.33-.2-1.99-.25-2.48-.65-4.69-1.22-6.75-.71-2.56-1.44-4.46-2.39-6.15-.72-1.29-1.56-2.42-2.45-3.46-.27-.31-.51-.65-.79-.93-.64-.66-1.33-1.26-2.07-1.81-.73-.54-1.5-1.03-2.31-1.45-3.34-1.75-6.79-2.73-10.31-2.94-1.17-.07-2.35-.05-3.53.05-2.63.23-5.22.95-7.72,2.15-1.71.82-3.38,1.86-5.1,3.19-.16.13-.33.25-.51.38-.08.06-.16.11-.24.17-.01-.03-.02-.07-.03-.09-.02-.06-.04-.11-.04-.15-.03-.46-.05-.95-.07-1.43-.06-1.21-.11-2.42-.13-3.63,0-.49-.03-.98-.03-1.47,0-8.41,0-17.03,0-25.62,0-.82-.06-1.67-.12-2.46-.05-.63-.2-1.21-.44-1.72-.38-.8-.98-1.2-1.8-1.2,0,0,0,0-.01,0-.49,0-.94.05-1.35.14-.49.11-1.02.28-1.62.5-1.57.59-3.14,1.34-4.82,2.29-.4.23-.8.46-1.21.69-.99.57-2,1.14-3.03,1.7-.04.02-.08.04-.12.06-1,.54-2.01,1.05-3.05,1.51-.63.28-1.2.66-1.7,1.12-.29.27-.52.55-.69.84-.51.87-.49,1.83.07,2.87.26.48.61.94,1.13,1.49.12.13.25.26.38.39.17.17.34.35.5.53,1.21,1.31,2.03,2.82,2.43,4.49.34,1.4.5,2.81.49,4.19,0,1.06-.02,2.12-.03,3.18-.02,2.71-.05,5.51-.06,8.27-.02,4.95-.04,10.23-.03,15.53h0c0,3.44.02,6.94.04,10.32.01,1.82.02,3.64.03,5.46,0,.96,0,1.93,0,2.87,0,1.51,0,3.06.02,4.6,0,.21-.01.43-.02.65-.01,1.3-.09,2.6-.23,3.9-.02.24-.03.45-.06.7-.29,2.5-1.15,4.59-2.64,6.4-.17.2-.34.4-.52.59-.12.14-.25.28-.38.43l-.11.13c-.22.25-.44.51-.64.79-.27.37-.45.79-.53,1.25-.11.62.06,1.18.48,1.66.38.43.87.71,1.46.84.55.12,1.05.19,1.51.2,1.54.05,3.11.08,4.62.11h.38c.98.02,1.96.03,2.94.03h0c1.93,0,3.85-.04,5.76-.08.64-.01,1.29-.01,1.92-.03.97-.02,1.97-.04,2.95-.06.46,0,.95-.07,1.52-.18.71-.15,1.17-.6,1.39-1.36.22-.79-.01-1.52-.21-2-.62-1.52-1.29-2.68-2.12-3.66-.41-.49-.79-1.03-1.15-1.55l-.06-.08c-.51-.74-.77-1.59-.77-2.54,0-.07,0-.15,0-.22,0-.1,0-.19,0-.29,0-1.39.01-2.8.01-4.16,0-3.78.02-7.69.15-11.53.03-.72.05-1.44.07-2.16.05-1.63.11-3.31.18-4.96.04-.94.1-1.96.19-3.13.06-.8.13-1.62.2-2.41.08-.95.17-1.94.24-2.91.07-.98.25-1.96.54-2.91.71-2.34,2.15-4.01,4.28-4.96,2.1-.93,4.33-1.15,6.62-.64,1.89.42,3.46,1.43,4.81,3.1,1.14,1.41,1.93,3.07,2.35,4.92.31,1.38.54,2.78.73,4.08.15.98.3,2.03.45,3.09.08.54.15,1.08.23,1.63.15,1.08.3,2.17.43,3.26.07.59.13,1.19.2,1.79.11,1.05.22,2.11.31,3.16.05.62.11,1.23.16,1.88.13,1.65.21,3.33.3,4.96.04.71.07,1.44.11,2.15,0,.15.02.29.03.44.02.33.04.67.05,1,0,.25,0,.49,0,.74.01.84.03,1.71-.03,2.56-.1,1.64-.58,3.2-1.04,4.52-.4,1.14-.87,2.3-1.45,3.52-.37.8-.61,1.48-.74,2.16-.24,1.23.24,2.06,1.43,2.45.48.16.98.25,1.5.26.53.01,1.07.03,1.59.05.9.03,1.83.06,2.74.07,1.61.01,3.13.02,4.57.02,1.44,0,2.79,0,4.09,0,1.36,0,2.74-.05,4.08-.09.48-.01.96-.03,1.44-.04.68-.02,1.32-.16,1.9-.42,1-.44,1.41-1.19,1.25-2.27-.01-.09-.04-.18-.06-.27Zm-63.38-74.68c-.31-.34-.55-.67-.74-.98.22.35.47.67.74.98Zm54.47,29.99c.37.69.71,1.42,1.02,2.22-.3-.76-.64-1.49-1.02-2.22Zm1.44,3.38c.14.42.28.86.42,1.32-.13-.44-.27-.88-.42-1.32Zm-36.43,26.06c0-1.58.04-3.16.06-4.74-.02,1.59-.06,3.17-.06,4.74Z"></path><path class="cls-1" d="m418.05,233.62c.36.06.75.05,1.12.08.72.07,1.44.16,2.18.16.05,0,.1,0,.15,0,1.55,0,3.11-.18,4.57-.37.69-.09,1.25-.19,1.75-.31.87-.21,1.47-.73,1.75-1.49.09-.25.15-.53.17-.83.04-.65-.05-1.25-.26-1.84-.2-.54-.53-.99-.89-1.44-.3-.39-.62-.78-.93-1.15-.24-.29-.49-.59-.72-.89-.68-.85-1.1-1.72-1.28-2.64-.59-3.02-.94-5.98-1.21-8.47-.17-1.59-.35-3.13-.57-4.97-.18-1.56-.38-3.14-.56-4.67l-.07-.55c-.06-.53-.13-1.08-.19-1.6-.15-1.27-.3-2.58-.49-3.87-.3-2.04-.82-4.06-1.55-5.98-1.15-3.03-2.73-5.78-4.71-8.17-1.96-2.37-4.36-4.44-7.12-6.17-1.11-.69-2.27-1.31-3.45-1.84-2.37-1.07-4.89-1.83-7.53-2.26-1.32-.22-2.67-.35-4.05-.41-2.08-.08-4.24.09-6.59.53-1.61.3-3.21.74-4.78,1.32-1.58.58-3.13,1.29-4.65,2.14-1.02.57-1.98,1.25-2.86,2.03-.89.78-1.7,1.67-2.45,2.66-1.37,1.82-1.91,3.84-1.62,5.99.1.77.31,1.48.6,2.12.02.04.05.06.07.1.01.03.03.04.04.07.3.61.67,1.17,1.13,1.65.06.07.15.1.21.17.89.85,2,1.5,3.37,1.81.84.19,1.66.21,2.46.05.8-.15,1.58-.48,2.33-.97,1.17-.77,2.13-1.84,2.87-3.19.59-1.07,1.12-2.2,1.62-3.27.6-1.28,1.22-2.61,2-3.82.95-1.49,2.22-2.6,3.76-3.3.76-.34,1.52-.56,2.3-.65.77-.09,1.55-.05,2.33.11.95.2,1.79.58,2.51,1.13s1.31,1.27,1.78,2.15c.09.17.18.37.27.56.12.26.23.52.34.78.09.22.18.43.27.68.84,2.25,1.39,4.54,1.86,6.69.46,2.09.83,4.22,1.12,6.34.1.72.15,1.45.2,2.16.01.21.03.41.05.62,0,.1-.01.19-.04.31-.01.05-.02.1-.03.15-.04-.02-.08-.03-.12-.05-.09-.03-.16-.06-.22-.09-3.43-1.47-6.78-2.33-10.23-2.62-.96-.08-1.92-.11-2.89-.1-.96.02-1.92.08-2.87.2-2.18.27-4.34.79-6.42,1.55-3.54,1.29-6.45,3.38-8.64,6.21-1.93,2.49-3.04,5.26-3.31,8.24-.23,2.56,0,5.02.71,7.31,1,3.26,2.84,5.91,5.46,7.9,1.23.93,2.61,1.72,4.12,2.35,3.89,1.63,7.56,2.51,11.24,2.68.38.02.77.03,1.15.03.24,0,.47-.05.71-.06.83-.02,1.66-.09,2.48-.2.24-.03.49-.02.73-.06,3.2-.52,6.22-1.66,8.99-3.4.6-.38,1.18-.78,1.8-1.2.28-.19.56-.38.85-.58.01,0,.02,0,.03.01.02,0,.04.01.05.02l.14.1c.18.13.36.27.54.4.91.7,1.87,1.32,2.86,1.85.99.53,2.01.97,3.07,1.31.04.01.08.01.11.03.99.32,2.02.57,3.07.73Zm-22.17-4.8c-1.49-.49-2.81-1.37-4.04-2.69-1.59-1.71-2.67-3.78-3.2-6.16-.2-.92-.29-1.83-.37-2.85-.14-1.68-.09-3.35.02-5.33.08-1.4.44-2.7,1.07-3.88,1.24-2.31,3.19-3.73,5.81-4.21.42-.08.85-.12,1.26-.16.19-.02.39-.04.58-.06,1.49.03,2.84.36,4,.98,1.17.62,2.18,1.56,3.02,2.78.19.27.42.63.61,1.01,1.14,2.34,1.88,4.35,2.32,6.35.28,1.26.42,2.61.41,4.03,0,.87-.18,1.79-.54,2.81-.76,2.21-1.98,4.11-3.62,5.64-1.22,1.14-2.55,1.81-4.09,2.06-.45.07-.91.07-1.39.04.02,0,.04,0,.06.01-.51-.03-1.02-.12-1.52-.26.18.05.35.06.53.09-.31-.06-.61-.1-.93-.2Zm-4.25-2.91c-.65-.73-1.19-1.51-1.65-2.34.46.84,1.01,1.62,1.65,2.34Zm-1.91-2.83c-.43-.88-.77-1.81-1.01-2.79.24.98.57,1.92,1.01,2.79Z"></path><path class="cls-1" d="m252.87,229.07c-.2-.25-.43-.48-.65-.7-.11-.11-.23-.23-.33-.35-.2-.21-.4-.42-.6-.63-.49-.52-1-1.06-1.48-1.6-.65-.74-1.08-1.6-1.28-2.54-.41-1.96-.72-4.02-.94-6.11-.03-.25-.05-.51-.08-.76-.09-.94-.19-1.91-.32-2.87-.22-1.59-.49-3.21-.75-4.77v-.09c-.33-1.93-.66-3.9-.98-5.8-.24-1.44-.48-2.88-.72-4.32-.56-3.36-1.48-6.59-2.75-9.6-1.22-2.9-2.92-5.42-5.04-7.49-2.35-2.29-5.14-4.03-8.3-5.17-1.07-.39-2.18-.71-3.33-.97-1.14-.26-2.32-.46-3.52-.59-1.92-.21-3.48-.29-4.91-.24-2.79.09-5.56.42-8.25.96-1.75.36-3.26.88-4.66,1.5-.47.21-.97.38-1.4.62-1.14.62-2.24,1.31-3.32,2.09-1.09.78-2.15,1.64-3.22,2.59-.82.73-1.4,1.64-1.74,2.68-.71,2.17-.55,4.25.47,6.19,1.14,2.15,3.07,3.35,5.73,3.56.08,0,.16-.03.25-.03.47.01.92-.04,1.36-.14.16-.04.32-.07.48-.13.5-.17.98-.41,1.44-.7.08-.05.16-.06.24-.12,1.22-.82,2.2-1.94,3-3.42.57-1.06,1.1-2.17,1.61-3.25v-.02c.6-1.24,1.18-2.45,1.91-3.59.95-1.5,2.22-2.61,3.76-3.29,1.45-.64,2.95-.82,4.47-.53,2.05.39,3.55,1.54,4.46,3.42.52,1.08,1,2.21,1.42,3.35.12.33.22.65.33.98.62,1.77,1.17,3.55,1.68,5.35.29,1.03.57,2.06.83,3.08.27,1.07.54,2.15.8,3.23.17.71.34,1.42.5,2.12.01.06,0,.13,0,.21,0,.03-.01.07-.02.11-.07-.02-.13-.04-.19-.06-.14-.04-.27-.08-.39-.12-.39-.13-.79-.26-1.18-.39-.96-.31-1.95-.64-2.92-.97-3.15-1.08-6.41-1.6-9.67-1.53-1.56.03-2.97.07-4.4.24-2.82.34-5.45,1.14-7.82,2.4-3.25,1.72-5.8,4.07-7.59,6.99-1.11,1.81-1.81,3.81-2.08,5.97-.22,1.76-.18,3.56.12,5.5.33,2.07,1,3.98,1.99,5.65.99,1.68,2.34,3.18,4,4.46,1.97,1.52,4.29,2.68,7.1,3.55,2.4.74,4.95,1.23,7.57,1.44.66.05,1.32.08,1.99.08h0c.49,0,.98-.05,1.48-.08.12,0,.25-.01.37-.02,1.17-.09,2.33-.22,3.5-.47,2.54-.54,4.97-1.53,7.27-2.94.76-.47,1.51-.99,2.24-1.55.13-.1.27-.19.42-.29.07-.04.14-.09.21-.13l.25.2c.15.12.29.23.43.34,3.86,3,8.31,4.54,13.23,4.58,1.59.02,3.11-.17,4.54-.55.68-.18,1.4-.41,2.26-.71.54-.19,1-.48,1.36-.85.61-.62.73-1.36.36-2.12-.15-.32-.34-.61-.55-.86Zm-34.97-25.37c.54-.11,1.1-.17,1.66-.17.67,0,1.34.08,2.02.23,1.51.34,2.84,1.16,4.19,2.56,1.58,1.64,2.71,3.65,3.39,5.97.38,1.32.8,2.9.99,4.54.02.21.03.42.05.64,0,.1.01.21.02.31-.2,2.89-.81,5.12-1.92,7.01-.85,1.47-1.85,2.52-3.06,3.21-2.84,1.62-5.67,1.6-8.41-.08-1.97-1.2-3.45-2.95-4.53-5.33-.65-1.43-1.04-3.03-1.19-4.91-.15-1.85-.15-3.82,0-6.01.14-2.06.85-3.85,2.11-5.33,1.19-1.39,2.72-2.27,4.68-2.66Zm-4.52,2.47c.49-.54,1.04-.99,1.63-1.36-.6.37-1.15.82-1.63,1.36Zm2.09-1.63c.67-.36,1.4-.61,2.17-.79-.79.18-1.52.44-2.17.79Zm-4.41-6.08c.87-.08,1.77-.12,2.69-.15-.9.02-1.8.07-2.69.15Zm39.49,34.77s-.09.03-.14.04c.05-.01.09-.03.14-.04Z"></path><path class="cls-1" d="m484.45,174.29c-.24-.16-.55-.28-.94-.39-.09-.02-.22-.01-.31-.03-.63-.14-1.27-.2-1.91-.21-.11,0-.19-.04-.31-.03-1.38.02-2.78.09-4.13.15l-.53.03c-.79.04-1.6.08-2.38.13-.83.05-1.69.1-2.53.13-.38.02-.77,0-1.15,0-.15,0-.31,0-.46-.01-.83-.01-1.67.18-2.55.58-.48.22-.88.54-1.18.96-.16.21-.25.43-.28.66s0,.47.09.72c.17.45.44.85.81,1.19.51.46.98.85,1.43,1.19.12.09.2.17.3.25.43.34.83.71,1.2,1.12.07.08.16.16.23.24,1.03,1.25,1.52,2.73,1.46,4.39-.02.6-.1,1.2-.24,1.81-.14.6-.34,1.21-.59,1.8-.15.36-.3.71-.45,1.07-.31.75-.64,1.53-.97,2.29-1.77,4.01-3.57,8.09-5.31,12.03l-.92,2.09c-1.77,4.01-3.53,7.99-4.87,11.01-.07.17-.15.33-.25.52-.04.09-.09.18-.13.28-.05-.1-.1-.19-.14-.28-.1-.19-.18-.35-.26-.52-.36-.82-.73-1.65-1.08-2.45l-.29-.65c-.49-1.12-.99-2.25-1.49-3.37-1.14-2.58-2.31-5.25-3.46-7.88-.37-.86-.71-1.65-1.07-2.47-1.76-4.06-3.49-8.12-5.18-12.21-.28-.68-.57-1.36-.84-2.02-.99-2.41-.89-4.79.29-7.28.23-.49.47-1.01.68-1.55.19-.49.27-.96.24-1.42-.05-.71-.37-1.22-.94-1.53-.26-.14-.56-.26-.95-.37-.81-.23-1.64-.27-2.36-.29-5.88-.1-11.74-.1-17.39,0-.62.01-1.18.05-1.69.1-.47.05-.91.16-1.33.33-.42.17-.81.39-1.17.66-.55.42-.8.94-.74,1.55.03.33.08.67.16,1,.2.78.55,1.53,1.08,2.3.21.3.41.6.62.91.78,1.15,1.59,2.35,2.42,3.49,1.56,2.13,2.93,4.39,4.1,6.72,1.21,2.42,2.44,4.87,3.63,7.24,1.67,3.31,3.39,6.74,5.06,10.12,3.35,6.76,6.72,13.64,9.98,20.3l1.28,2.61c.08.16.12.28.19.43.3.63.56,1.28.76,1.95.04.12.09.25.12.38.12.43.15.84.11,1.24-.04.4-.16.8-.36,1.2-.67,1.34-1.37,2.73-2.12,4.13-.75,1.4-1.54,2.82-2.39,4.22-1.01,1.67-2.15,3.31-3.38,4.88-.61.78-1.19,1.32-1.85,1.72-1.22.74-2.45.7-3.64-.11-.42-.28-.8-.65-1.15-1.11-.56-.73-1.02-1.57-1.47-2.66-.23-.56-.46-1.13-.68-1.68-.09-.23-.19-.46-.28-.69-.09-.23-.18-.46-.28-.69-.47-1.15-1.02-2.24-1.64-3.25-.44-.72-.92-1.29-1.46-1.76-.69-.6-1.42-1.01-2.16-1.32.09.04.17.09.25.13-.18-.08-.35-.16-.54-.23.06.02.11.03.17.05-1.21-.47-2.47-.61-3.8-.32-2.14.48-3.81,1.72-4.98,3.7-.62,1.05-.87,2.21-.75,3.44.07.75.25,1.5.53,2.23.77,2,1.85,3.72,3.18,5.12,1.36,1.43,3.04,2.56,5,3.38,1.29.54,2.67.94,4.23,1.24,1.19.22,2.32.33,3.43.38.03,0,.07,0,.1,0,.3.01.61.05.91.05h0c.87,0,1.72-.05,2.56-.16,2.41-.31,4.71-1.11,6.84-2.38,2.03-1.21,3.87-2.84,5.63-4.99.77-.93,1.5-1.94,2.2-3.05.7-1.1,1.37-2.3,2.03-3.6,1.94-3.87,3.85-7.82,5.68-11.66,1.83-3.84,3.58-7.59,5.19-11.05,2.39-5.13,4.85-10.33,7.23-15.36l.03-.06c.73-1.54,1.51-3.07,2.29-4.6.3-.6.59-1.2.9-1.79.99-1.9,1.99-3.79,2.98-5.64.61-1.14,1.24-2.32,1.85-3.48.21-.4.42-.79.63-1.19,1.5-2.83,3.04-5.76,4.46-8.69.38-.79.75-1.62,1.14-2.56.21-.5.36-1.02.51-1.53.15-.52-.02-.97-.49-1.27Zm-13.53,8.49c-.22-.58-.52-1.13-.91-1.64.39.52.7,1.06.91,1.64Zm.41,2.34c0-.67-.08-1.31-.26-1.92.18.61.27,1.25.26,1.92Zm-15.65,50.56c-.55,1.15-1.11,2.28-1.67,3.43.56-1.14,1.12-2.29,1.67-3.43Zm-17.46-61.71c-4.14-.05-8.28-.05-12.42,0,4.08-.05,8.23-.05,12.42,0Zm-9.74,67.05c-.32-.48-.68-.93-1.1-1.33.2.19.39.37.58.59.18.22.35.48.52.74Zm-2.36-2.32c.08.05.17.13.25.19-.1-.07-.19-.14-.29-.21.01,0,.03.01.04.02Zm-2.72-.96c.21.03.42.05.62.1-.2-.05-.41-.07-.62-.1Z"></path><path class="cls-1" d="m424.95,238.12s.08.03.11.05c-.04-.02-.08-.03-.11-.05Z"></path><path class="cls-1" d="m305.5,215.13c-.35-2.78-1.4-5.31-3.11-7.51-1.3-1.67-3.01-3.08-5.08-4.19-1.23-.66-2.4-1.18-3.56-1.58-2.99-1.04-5.99-2.2-8.89-3.33-.99-.38-2-.78-3.01-1.16-1.03-.39-2.03-.82-3-1.28-.97-.46-1.92-.94-2.82-1.46-1.29-.73-2.33-1.72-3.1-2.94-.64-1.01-.99-2.11-1.05-3.26-.06-1.25.27-2.46,1-3.61,1.13-1.78,2.58-3.18,4.33-4.18.58-.33,1.2-.62,1.85-.87.5-.19.99-.31,1.48-.36.97-.1,1.91.06,2.82.49.45.22.89.5,1.33.85.55.44,1.05.94,1.5,1.51.46.56.87,1.19,1.25,1.89.31.58.61,1.18.9,1.76.17.34.35.69.52,1.03l.27.52c.43.84.88,1.72,1.34,2.57.39.71.88,1.41,1.46,2.08.92,1.06,1.91,1.81,3.02,2.3.99.43,1.91.6,2.82.52,2.29-.21,4.19-1.35,5.62-3.41.04-.06.04-.13.08-.19.3-.47.5-.96.63-1.47.03-.13.06-.26.09-.39.09-.55.07-1.12-.02-1.71-.01-.08.01-.14,0-.22-.17-.85-.49-1.71-.98-2.61-.46-.84-1.05-1.68-1.81-2.56-.34-.39-.66-.66-1-.99-.19-.19-.37-.39-.55-.55-.32-.3-.65-.6-.98-.84-.51-.39-.93-.65-1.31-.86-.15-.09-.3-.22-.46-.3-.98-.49-1.91-.92-2.8-1.31-.89-.39-1.74-.74-2.56-1.04-.88-.33-1.78-.61-2.69-.86-.35-.09-.72-.15-1.07-.24-.58-.13-1.15-.28-1.74-.38-.4-.07-.81-.1-1.21-.15-.56-.08-1.12-.16-1.7-.21-.43-.04-.88-.04-1.32-.05-.53-.02-1.06-.07-1.6-.07-.05,0-.11,0-.16,0h0c-.22.01-.43.02-.65.04-.22.01-.43.02-.65.04-.99.05-2.01.11-3.02.18-1.16.08-2.4.18-3.63.34-2.39.31-4.74,1-6.97,2.06-1.48.7-2.8,1.49-3.98,2.38-1.18.89-2.22,1.89-3.14,3-1.67,2.03-2.68,4.16-3.08,6.53-.24,1.44-.34,3-.32,4.9.01,1.03.14,2.08.38,3.11.63,2.75,2.02,5.03,4.11,6.77,1.02.85,2.14,1.61,3.44,2.33,1.7.94,3.52,1.75,5.42,2.41,2.43.85,4.8,1.65,7.07,2.38.38.12.69.24,1.05.36,1.73.57,3.45,1.19,5.14,1.86.29.12.62.23.9.35.4.17.86.37,1.32.63.46.26.94.57,1.37.95.64.57,1.19,1.18,1.64,1.83.9,1.29,1.41,2.71,1.52,4.27.06.78.02,1.59-.12,2.42-.09.57-.24,1.11-.45,1.61-.62,1.5-1.73,2.67-3.32,3.49-1.12.57-2.28.92-3.54,1.07-.52.06-1.03.08-1.52.05-1-.06-1.95-.3-2.85-.71-.45-.21-.89-.46-1.31-.76-.4-.28-.86-.61-1.26-.99-2.51-2.37-4.2-4.61-5.32-7.06-.47-1.03-.96-1.9-1.49-2.67h0c-.3-.44-.61-.89-.99-1.26-.49-.48-1.01-.89-1.56-1.23-.26-.16-.56-.25-.83-.37,0,0,0,0,0,0,0,0,0,0,0,0,.07.03.14.08.22.12-.24-.12-.48-.23-.73-.32.07.02.14.04.2.06,0,0,0,0,0,0h0c-.39-.15-.79-.28-1.21-.36,0,0,0,0,0,0h0s.08.03.12.04c-.25-.06-.5-.09-.76-.12.11.01.22.01.32.03.1.02.21.03.31.05,0,0,0,0,0,0h0s-.07-.02-.1-.03c-.07-.01-.14,0-.2-.02-.96-.16-1.97-.2-3.06-.01-2.09.37-3.71,1.62-4.8,3.72-.57,1.1-.74,2.29-.49,3.55.25,1.31.82,2.55,1.67,3.68,1.64,2.17,3.66,3.91,6.02,5.14,1.65.87,3.38,1.61,5.14,2.21,2.56.87,5.2,1.45,7.85,1.73,1.16.12,2.37.18,3.66.18h0c.94,0,1.92-.03,2.96-.1,1.71-.11,3.49-.36,5.62-.8,2.93-.61,5.43-1.33,7.65-2.21,2.19-.87,4.07-1.88,5.74-3.09,2.08-1.51,3.72-3.56,4.74-5.93.99-2.3,1.35-4.78,1.05-7.18Zm-3.91-32.41c.53.64.97,1.27,1.34,1.9-.39-.67-.85-1.3-1.34-1.9Zm-14.77,16.58c.95.37,1.92.72,2.89,1.08-.96-.36-1.93-.71-2.89-1.08Zm-24.47,6.59c-.99-.57-1.88-1.17-2.7-1.82.85.68,1.76,1.28,2.7,1.82Zm4.81,12.16c.36.55.7,1.16,1.03,1.84-.31-.63-.64-1.25-1.03-1.84Zm27.05-15.97c.84.32,1.7.7,2.57,1.15-.84-.43-1.69-.81-2.57-1.15Zm6.15-20.71c.1.1.21.22.32.34-.3-.32-.6-.63-.92-.93.02.01.03.02.04.04.18.17.37.37.55.55Zm-1.53-1.39c.07.06.16.15.24.21-.56-.46-1.16-.87-1.82-1.22.08.04.17.09.26.14.45.25.88.53,1.32.86Zm-2.58-1.5c-1.26-.61-2.54-1.18-3.84-1.69.6.24,1.2.47,1.84.75.64.28,1.32.61,2,.94Zm-31.54,36.93c.22.15.42.34.63.52-.25-.2-.49-.41-.74-.58.04.02.08.04.12.06Zm1.01,16.89c-1.41-.5-2.79-1.1-4.13-1.78,1.34.68,2.72,1.27,4.13,1.78Zm-5.71-18.15c.13,0,.26-.04.39-.04.01,0,.02,0,.04,0-.14,0-.29.03-.43.03Z"></path><path class="cls-1" d="m397.74,229.18c-.3-.02-.62-.1-.93-.16.31.06.63.14.93.16Z"></path></svg> 