<?xml version="1.0" encoding="UTF-8"?> <svg xmlns="http://www.w3.org/2000/svg" id="Layer_1" width="100" height="19.57" viewBox="0 0 100 19.57"><defs><style>.cls-1{fill:none;}.cls-1,.cls-2,.cls-3,.cls-4,.cls-5{stroke-width:0px;}.cls-2{fill:#f15b25;}.cls-3{fill:#f68920;}.cls-4{fill:#ed3326;}.cls-5{fill:#010101;}</style></defs><path class="cls-1" d="m32.97,3.46h-1.68v2.25h1.66c.93,0,1.48-.41,1.48-1.12v-.03c0-.74-.58-1.1-1.47-1.1Z"></path><path class="cls-1" d="m36.99,9.28v-2.07c-.3.25-.64.47-.99.64l.99,1.43Z"></path><polygon class="cls-1" points="19.12 7.47 21.23 7.47 20.18 4.68 19.12 7.47"></polygon><path class="cls-3" d="m36,7.83c.36-.17.69-.39.99-.64v-3.7h-3.39V.25c-.17,0-.34-.02-.53-.02h-5.62v11.52h3.85v-3.3h.82l2.17,3.29h2.7v-2.48l-.99-1.43Zm-1.55-3.24c0,.71-.56,1.12-1.48,1.12h-1.66v-2.25h1.68c.89,0,1.47.36,1.47,1.1v.03ZM8.95.24h4.01v11.52h-3.83v-5.71l-2.65,4.1h-.07l-2.65-4.1v5.71H0V.24h4.03l2.48,4.05L8.95.24Zm9.35-.08l-4.85,11.6h4.11l.59-1.55h4.03l.62,1.55h4.18L22.12.15h-3.81Zm.82,7.32l1.05-2.79,1.05,2.79h-2.11Z"></path><path class="cls-2" d="m33.6.24h10.63v3.26h-3.38v8.26h-2.17l-1.69-2.48v-2.06c.84-.72,1.31-1.78,1.28-2.88v-.03c.05-1.02-.33-2.01-1.05-2.73-.73-.73-1.88-1.22-3.62-1.3v-.03Zm15.06,7.11h5.62v-2.79h-5.62v-1.16h6.04V.24h-9.83v11.52h9.92v-3.16h-6.13v-1.25ZM74.14.24v4.06h-3.52V.24h-3.85v11.52h3.85v-4.13h3.52v4.13h3.85V.24h-3.85Zm-13.18,8.31c-1.27,0-2.15-1.05-2.15-2.55v-.02c0-1.38.86-2.52,2.15-2.52,1.05,0,1.66.58,2.09,1.4l3.18-1.86c-.97-1.76-2.68-2.99-5.22-2.99-3.44,0-6.12,2.57-6.12,6v.03c-.05,3.24,2.53,5.91,5.77,5.96.07,0,.14,0,.2,0,2.86,0,4.47-1.4,5.44-3.1l-3.17-1.79c-.48.85-1.09,1.44-2.17,1.44Z"></path><path class="cls-4" d="m36.99,3.49v3.72c.84-.72,1.31-1.78,1.28-2.88v-.03c.05-1.02-.33-2.01-1.05-2.73-.73-.73-1.88-1.22-3.62-1.3v3.23h3.39Z"></path><polygon class="cls-4" points="36.99 11.75 38.68 11.75 36.99 9.28 36.99 11.75"></polygon><path class="cls-2" d="m79.86.79c0,.34-.28.62-.62.62s-.62-.28-.62-.62.28-.62.62-.62.62.28.62.62Zm-1.09,0c0,.26.2.48.46.48,0,0,.01,0,.02,0,.26,0,.46-.21.46-.47,0,0,0,0,0-.01.03-.26-.15-.49-.41-.52s-.49.15-.52.41c0,.04,0,.07,0,.11h0Zm.37.31h-.14V.5c.08-.01.15-.02.23-.02.07,0,.15,0,.21.05.07.05.08.14.03.21-.02.03-.06.05-.1.06h0c.06.02.09.07.11.15,0,.05.02.1.04.15h-.15s-.04-.1-.05-.15c0-.06-.05-.09-.13-.09h-.07v.24Zm0-.34h.07c.08,0,.14-.02.14-.09s-.04-.09-.13-.09h-.08v.18Z"></path><path class="cls-5" d="m38.25,14.3h.76l.74,2.02,1.83-2.02h.86l-1.15,4.27h-.76l.82-3.06-1.88,2.01h-.02l-.78-2-.82,3.05h-.77l1.15-4.27Z"></path><path class="cls-5" d="m42.27,17.75c0-.74.6-1.16,1.43-1.16.33,0,.65.05.96.16l.02-.07c.02-.08.04-.17.04-.26,0-.29-.21-.47-.7-.47-.3,0-.6.06-.88.18l-.12-.62c.37-.15.76-.22,1.15-.22.85,0,1.29.37,1.29,1,0,.15-.02.31-.07.46l-.48,1.81h-.73l.11-.42c-.26.31-.64.49-1.04.49-.49.05-.93-.32-.98-.81,0-.02,0-.04,0-.07Zm2.24-.42l.04-.14c-.24-.08-.48-.12-.73-.12-.49,0-.79.24-.79.58,0,.28.2.44.51.44.45-.02.84-.32.98-.75h0Z"></path><path class="cls-5" d="m46.51,15.35h.74l-.2.73c.36-.51.77-.82,1.35-.79l-.21.78h-.04c-.65,0-1.21.42-1.45,1.3l-.31,1.2h-.74l.86-3.22Z"></path><path class="cls-5" d="m49.5,15h-1.36l.19-.7h3.46l-.19.7h-1.35l-.96,3.57h-.75l.96-3.57Z"></path><path class="cls-5" d="m52.44,18.06c.3,0,.59-.11.82-.31l.35.47c-.35.29-.79.45-1.24.44-.9,0-1.46-.54-1.46-1.41,0-1.06.84-1.92,1.9-1.95.66-.05,1.23.44,1.28,1.1,0,.05,0,.09,0,.14,0,.23-.05.47-.14.68h-2.34c-.04.42.27.79.69.83.04,0,.09,0,.13,0Zm.93-1.31c.02-.07.03-.15.03-.23.02-.32-.21-.6-.53-.62-.04,0-.07,0-.11,0-.5.01-.93.35-1.07.83l1.68.02Z"></path><path class="cls-5" d="m54.46,17.21c0-1.05.85-1.91,1.9-1.93.54-.03,1.05.26,1.3.73l-.57.39c-.15-.3-.46-.49-.79-.48-.58,0-1.1.6-1.1,1.28-.03.41.28.77.7.8.02,0,.04,0,.06,0,.31,0,.61-.14.82-.36l.39.48c-.33.33-.77.52-1.24.51-.77.05-1.43-.54-1.47-1.3,0-.04,0-.08,0-.13Z"></path><path class="cls-5" d="m58.74,14.12h.74l-.44,1.65c.25-.29.6-.46.98-.48.5-.04.94.33.98.83,0,.04,0,.09,0,.13-.01.19-.04.38-.1.57l-.46,1.76h-.74l.47-1.79c.03-.1.05-.2.05-.31,0-.31-.21-.51-.56-.51-.44.03-.81.36-.88.8l-.49,1.81h-.74l1.19-4.47Z"></path><path class="cls-5" d="m63.81,15.35h.74l-.87,3.22h-.74l.87-3.22Zm.29-1.2h.8l-.19.7h-.79l.19-.7Z"></path><path class="cls-5" d="m64.4,18.06l.44-.45c.27.29.64.45,1.04.45.29,0,.52-.15.52-.39,0-.16-.15-.27-.47-.4-.54-.22-.93-.43-.93-.93,0-.62.49-1.07,1.26-1.07.45,0,.89.16,1.24.45l-.41.47c-.24-.22-.56-.34-.88-.35-.31,0-.49.16-.49.37s.15.27.51.42c.49.21.88.43.88.9,0,.67-.55,1.09-1.29,1.09-.53,0-1.04-.2-1.42-.57Z"></path><path class="cls-5" d="m70,15.35h.74l-.11.42c.23-.28.57-.46.93-.48.42-.03.79.24.9.65.27-.4.72-.64,1.21-.65.5-.04.93.34.96.84,0,.04,0,.09,0,.13-.01.19-.05.38-.1.57l-.47,1.76h-.74l.48-1.79c.02-.1.04-.21.04-.31.02-.26-.17-.48-.43-.51-.03,0-.07,0-.1,0-.43.03-.79.36-.86.79l-.49,1.81h-.75l.48-1.79c.02-.1.04-.21.04-.31.03-.26-.15-.49-.41-.52-.04,0-.07,0-.11,0-.44.04-.79.37-.86.8l-.49,1.81h-.74l.87-3.22Z"></path><path class="cls-5" d="m74.85,17.75c0-.74.62-1.16,1.43-1.16.33,0,.65.05.96.16l.02-.07c.02-.08.04-.17.04-.26,0-.29-.21-.47-.7-.47-.3,0-.61.06-.89.18l-.12-.62c.37-.15.76-.22,1.15-.22.85,0,1.29.37,1.29,1,0,.15-.02.31-.07.46l-.48,1.81h-.73l.11-.42c-.26.31-.64.49-1.04.49-.49.05-.93-.32-.98-.81,0-.02,0-.04,0-.06Zm2.26-.41l.04-.14c-.24-.08-.48-.12-.73-.12-.5,0-.79.24-.79.58,0,.28.2.44.51.44.45-.02.85-.32.98-.76Z"></path><path class="cls-5" d="m79.1,15.35h.74l-.19.73c.35-.51.77-.82,1.35-.79l-.21.78h-.04c-.65,0-1.21.42-1.44,1.3l-.33,1.2h-.74l.87-3.22Z"></path><path class="cls-5" d="m81.79,14.12h.74l-.7,2.61,1.65-1.37h.98l-1.62,1.31.77,1.91h-.83l-.57-1.44-.62.5-.25.93h-.74l1.2-4.44Z"></path><path class="cls-5" d="m85.69,18.06c.3,0,.59-.11.82-.31l.35.47c-.35.29-.79.45-1.24.44-.9,0-1.46-.54-1.46-1.41,0-1.06.84-1.92,1.9-1.95.66-.05,1.23.44,1.28,1.1,0,.05,0,.09,0,.14,0,.23-.05.47-.14.68h-2.36c-.04.42.27.79.69.83.05,0,.1,0,.15,0Zm.91-1.31c.02-.07.03-.15.03-.23.02-.32-.21-.6-.53-.62-.04,0-.07,0-.11,0-.5.02-.93.36-1.06.84h1.67Z"></path><path class="cls-5" d="m87.78,17.99c0-.13.02-.25.06-.37l.42-1.64h-.41l.17-.62h.41l.24-.88h.74l-.22.87h.86l-.17.62h-.86l-.42,1.55c-.01.06-.02.12-.02.18,0,.16.11.25.31.25.16,0,.32-.04.47-.1l-.17.64c-.19.08-.4.12-.6.12-.52.02-.8-.24-.8-.62Z"></path><path class="cls-5" d="m90.63,15.35h.73l-.86,3.22h-.74l.87-3.22Zm.29-1.2h.8l-.2.7h-.78l.18-.7Z"></path><path class="cls-5" d="m92.21,15.35h.74l-.11.42c.25-.29.6-.46.98-.48.5-.04.94.33.98.83,0,.05,0,.09,0,.14-.01.19-.04.38-.1.57l-.46,1.76h-.74l.47-1.79c.03-.1.05-.2.05-.31,0-.31-.21-.51-.56-.51-.44.03-.81.36-.88.8l-.49,1.81h-.73l.85-3.23Z"></path><path class="cls-5" d="m94.77,19.06l.41-.51c.35.26.77.41,1.2.41.29.02.58-.09.79-.29.17-.18.28-.41.34-.65l.05-.2c-.29.31-.68.48-1.1.49-.64.04-1.2-.45-1.24-1.09,0-.03,0-.05,0-.08,0-1,.78-1.82,1.78-1.86.45-.02.88.23,1.06.65l.15-.58h.74l-.71,2.66c-.07.41-.26.79-.55,1.1-.34.32-.8.48-1.27.45-.59,0-1.17-.17-1.65-.5Zm3.1-2.43c0-.4-.32-.72-.72-.72-.02,0-.04,0-.06,0-.6.02-1.08.51-1.08,1.11-.01.37.28.68.65.69.03,0,.07,0,.1,0,.6,0,1.09-.48,1.12-1.08Z"></path><path class="cls-5" d="m99.19,17.75h.81l-.22.84h-.81l.23-.84Z"></path></svg> 