<?xml version="1.0" encoding="UTF-8"?> <svg xmlns="http://www.w3.org/2000/svg" id="Layer_1" width="599.76" height="400.32" viewBox="0 0 599.76 400.32"><defs><style>.cls-1{fill:#fff;}</style></defs><g id="BATCH_1_COPY_UPDATES_110722"><path class="cls-1" d="m188.28,169.79c-17.21,0-30.18,13.06-30.18,30.37,0,19.72,15.44,30.37,29.93,30.37,19.97,0,30.43-15.27,30.43-30.37,0-17.6-12.69-30.37-30.18-30.37Zm0,56.88c-12.79,0-22.44-11.4-22.44-26.52s9.45-26.45,22.44-26.45,22.44,11.13,22.44,26.43-9.65,26.52-22.44,26.52v.02Z"></path><path class="cls-1" d="m137.29,229.07h6.7v-57.92h-7.33v47.48l-.39-.48-39.51-47h-6.89v57.92h7.33v-48.47l40.11,48.47h-.02Z"></path><path class="cls-1" d="m420.05,226.22c4.24,2.74,9.4,4.05,15.74,4.05,5.09,0,9.49-1.22,12.69-3.55,4.05-2.95,6.29-7.17,6.47-12.19,0-8.57-5.67-13.27-16.1-18.87h0l-.21-.12h0l-.18-.12h0c-5.48-2.95-11.08-6.04-11.08-11.75,0-5.23,4.52-8.75,11.22-8.75,3.39,0,8.46.44,13.57,4.08v-5.92c-3.62-2.12-8.06-3.16-13.57-3.16-11.2,0-18.73,6.01-18.73,14.95,0,8.2,6.4,12.74,13.32,16.43,9.65,5.07,14.19,8.11,14.19,14.24,0,5.67-4.98,9.77-11.87,9.77-5.67,0-10.6-1.75-15.46-5.53v6.43Z"></path><path class="cls-1" d="m482.9,229.07h7.81v-53.54h19.17v-4.38h-46.24v4.35h19.26v53.57h0Z"></path><path class="cls-1" d="m371.23,229.07h35.02v-4.35h-27.3v-23.02h24.88v-4.01h-24.88v-22.16h26.52v-4.38h-34.24s0,57.92,0,57.92Z"></path><path class="cls-1" d="m335.29,229.49h1.75l21.17-58.33h-5.94l-15.3,42.46-.21-.6-14.68-42.12h-4.93l-15.69,42.71-15.32-42.46h-7.99l21.06,58.33h1.89l17.35-46.45.21.58,16.61,45.87h.02Z"></path><path class="cls-1" d="m266.66,229.07h8.27l-16.36-25.9.55-.25c5.83-2.67,9.03-7.97,9.03-14.91,0-10.39-7.19-16.84-18.78-16.84h-16.75v57.92h7.72v-24.21h11.04l.07.12,15.23,24.1-.02-.02Zm-19.08-28.08h-7.26v-25.94h7.26c11.75,0,12.67,9.93,12.67,12.97s-.92,12.97-12.67,12.97Z"></path></g></svg> 