<?xml version="1.0" encoding="UTF-8"?> <svg xmlns="http://www.w3.org/2000/svg" id="Layer_1" width="600" height="400" viewBox="0 0 600 400"><defs><style>.cls-1{fill:none;}.cls-1,.cls-2,.cls-3,.cls-4{stroke-width:0px;}.cls-2{fill:#f58a1f;}.cls-3{fill:#f05a22;}.cls-4{fill:#ed3024;}</style></defs><path class="cls-1" d="m261.63,183.82h-10.69v14.36h10.59c5.93,0,9.44-2.63,9.44-7.13v-.22c0-4.72-3.67-7.01-9.34-7.01Z"></path><path class="cls-1" d="m287.25,220.91v-13.19c-1.93,1.61-4.05,2.98-6.32,4.07l6.32,9.13Z"></path><polygon class="cls-1" points="173.34 209.4 186.77 209.4 180.05 191.58 173.34 209.4"></polygon><path class="cls-2" d="m280.93,211.67c2.27-1.09,4.39-2.46,6.32-4.07v-23.58h-21.61v-20.64c-1.11,0-2.19-.12-3.38-.12h-35.85v73.4h24.53v-21.04h5.23l13.83,20.98h17.22v-15.8l-6.3-9.13Zm-9.88-20.66c0,4.5-3.58,7.13-9.44,7.13h-10.59v-14.32h10.69c5.67,0,9.34,2.29,9.34,7.01v.18Zm-162.56-27.75h25.56v73.4h-24.41v-36.38l-16.89,26.11h-.41l-16.87-26.11v36.38h-24.02v-73.4h25.68l15.8,25.8,15.56-25.8Zm59.61-.51l-30.93,73.91h26.21l3.77-9.88h25.68l3.95,9.88h26.63l-30.99-73.91h-24.31Zm5.23,46.65l6.72-17.78,6.72,17.78h-13.43Z"></path><path class="cls-3" d="m265.64,163.26h67.73v20.76h-21.55v52.64h-13.83l-10.76-15.8v-13.13c5.37-4.57,8.37-11.33,8.16-18.37v-.22c.31-6.49-2.13-12.81-6.72-17.4-4.68-4.68-11.99-7.76-23.05-8.28l.02-.2Zm96.01,45.31h35.85v-17.78h-35.85v-7.41h38.48v-20.13h-62.63v73.4h63.21v-20.13h-39.05v-7.96Zm162.38-45.31v25.89h-22.44v-25.89h-24.53v73.4h24.53v-26.31h22.44v26.31h24.53v-73.4h-24.53Zm-83.98,52.95c-8.08,0-13.73-6.72-13.73-16.26v-.14c0-8.81,5.45-16.06,13.73-16.06,6.72,0,10.59,3.67,13.31,8.93l20.25-11.85c-6.2-11.22-17.1-19.08-33.24-19.08-21.92,0-39.01,16.35-39.01,38.26v.22c-.34,20.65,16.12,37.66,36.77,38,.43,0,.86,0,1.3,0,18.25,0,28.52-8.91,34.7-19.75l-20.23-11.44c-3.04,5.39-6.93,9.16-13.85,9.16Z"></path><path class="cls-4" d="m287.25,184.02v23.7c5.37-4.57,8.37-11.33,8.16-18.37v-.22c.31-6.49-2.13-12.81-6.72-17.4-4.68-4.68-11.99-7.76-23.05-8.28v20.56h21.61Z"></path><polygon class="cls-4" points="287.25 236.68 298.01 236.68 287.25 220.93 287.25 236.68"></polygon><path class="cls-3" d="m555.89,168.77h-.91v-3.95s.89,0,1.48,0,.93.06,1.32.3c.43.31.53.92.22,1.35-.15.2-.37.34-.62.39h0c.38.12.57.41.69.93.03.33.13.65.28.95h-.95c-.15-.3-.25-.62-.3-.95,0-.4-.32-.57-.81-.57h-.41v1.56Zm0-2.17h.41c.49,0,.91-.16.91-.55s-.26-.59-.83-.59h-.49v1.15Z"></path><path class="cls-3" d="m556.49,163.6c1.76,0,3.19,1.43,3.19,3.19s-1.43,3.19-3.19,3.19-3.19-1.43-3.19-3.19,1.43-3.19,3.19-3.19m0-.75c-2.18,0-3.94,1.77-3.94,3.94s1.77,3.94,3.94,3.94,3.94-1.77,3.94-3.94-1.77-3.94-3.94-3.94h0Z"></path></svg> 