<?xml version="1.0" encoding="UTF-8"?> <svg xmlns="http://www.w3.org/2000/svg" id="Layer_1" width="8.33in" height="5.56in" viewBox="0 0 599.76 400.32"><defs><style>.cls-1{fill:#3a357e;}</style></defs><g id="LOGOS_fm-white"><polyline id="Fill-1" class="cls-1" points="35.34 187.17 5.76 187.17 5.76 196.53 26.22 196.53 26.22 202.11 5.76 202.11 5.76 218.25 -.12 218.25 -.12 181.65 35.34 181.65 35.34 187.17"></polyline><polygon id="Fill-2" class="cls-1" points="54.06 218.25 59.88 218.25 59.88 181.65 54.06 181.65 54.06 218.25"></polygon><path id="Fill-3" class="cls-1" d="m109.38,198.87c4.38,0,6.72-1.74,6.72-5.58,0-4.08-2.34-6.12-7.32-6.12h-18.18v11.7h18.78Zm12.9,19.32h-6.72l-9.36-14.04h-15.54v14.04h-5.88v-36.54h25.5c3.78,0,6.42,1.2,8.76,3.24,2.04,2.04,3.24,4.98,3.24,8.52,0,3.24-.9,5.58-2.64,7.62-1.44,1.74-3.78,2.94-6.42,3.24l9.06,14.04v-.12Z"></path><path id="Fill-4" class="cls-1" d="m175.26,190.41c-5.28-2.94-10.56-4.08-15.84-4.08-3.54,0-6.42.6-8.22,1.2-2.04.9-2.94,2.04-2.94,3.54,0,1.74.9,2.94,2.94,3.54,1.44.6,3.78,1.2,7.32,1.2,4.98.3,7.92.6,9.66.9,4.38.6,7.62,1.74,9.66,3.54s3.24,4.08,3.24,7.02c0,3.78-1.74,6.72-4.98,9.06-3.24,2.04-7.92,3.24-14.04,3.24-9.06,0-15.84-2.04-20.82-6.12l3.24-4.38c5.58,3.54,11.4,5.28,17.88,5.28,4.08,0,7.32-.6,9.66-1.74,2.04-1.2,3.24-2.64,3.24-4.68,0-2.34-1.44-3.78-4.38-4.68-1.44-.3-5.58-.9-12-1.2-5.88-.3-9.96-1.2-12.3-2.34-2.64-1.44-4.08-3.78-4.08-7.02,0-3.54,1.44-6.12,4.68-8.22,3.24-2.04,7.32-2.94,13.2-2.94,7.62,0,13.74,1.74,19.02,5.28l-4.08,3.78"></path><polyline id="Fill-5" class="cls-1" points="234.12 187.17 217.44 187.17 217.44 218.25 211.62 218.25 211.62 187.17 194.88 187.17 194.88 181.65 234.12 181.65 234.12 187.17"></polyline><polyline id="Fill-6" class="cls-1" points="300.6 218.25 295.02 218.25 295.02 188.37 294.78 188.37 276.6 212.37 258.42 188.37 258.42 188.37 258.42 218.25 252.6 218.25 252.6 181.65 259.92 181.65 276.6 203.85 293.58 181.65 300.6 181.65 300.6 218.25"></polyline><path id="Fill-7" class="cls-1" d="m350.7,204.75l-9.06-17.88-9.06,17.88h18.18-.06Zm13.2,13.44h-6.42l-4.08-8.22h-23.7l-4.08,8.22h-6.42l18.3-36.54h7.32l19.02,36.6.06-.06Z"></path><path id="Fill-8" class="cls-1" d="m404.88,198.87c4.38,0,6.72-1.74,6.72-5.58,0-4.08-2.34-6.12-7.32-6.12h-17.88v11.7h18.48Zm13.2,19.32h-6.72l-9.36-14.04h-15.54v14.04h-5.88v-36.54h25.5c3.78,0,6.42,1.2,8.76,3.24,2.04,2.04,3.24,4.98,3.24,8.52,0,3.24-.9,5.58-2.64,7.62-1.44,1.74-3.78,2.94-6.42,3.24l9.06,14.04v-.12Z"></path><polyline id="Fill-9" class="cls-1" points="479.82 218.25 472.2 218.25 455.52 199.17 444.96 207.09 444.96 218.25 439.14 218.25 439.14 181.65 444.96 181.65 444.96 200.67 469.56 181.65 477.78 181.65 459.9 195.69 479.82 218.25"></polyline><path id="Fill-13" class="cls-1" d="m532.8,181.89s.3.3,0,0"></path><path id="Fill-14" class="cls-1" d="m514.68,182.79c.3-1.2.3,1.2,0,0"></path><path id="Fill-18" class="cls-1" d="m562.98,214.71s0,.3,0,0q0-.2,0,0Zm-2.04.6c.3-.6-.3-.6-.3-.3l.3.3Zm-1.2-2.04c-.4,0-.8-.1-1.2-.3,0,.9,1.2.3,1.2.3Zm1.2-.6s0-.3-.3-.3c-.3.6.3.6.3.3Zm-2.64-.6s.6.3.6-.3c-.3-.3-.6,0-.6.3Zm-.3-.3s0-.6-.3-.3c0,.3.3.9.3.3Zm3.54-.9s-.3,0,0,0c-.3.3,0,.3,0,0Zm11.1-1.74s-.3,0,0,0h0Zm-11.7.3c.3-.6-.3-.6-.3-.3s0,.6.3.3Zm7.92-.9s0,.3,0,0c.3.3.3,0,.6,0,.9,0-.3-.6-.6,0h0s-.3,0-.3.3c.3,0,.3-.3.3-.3Zm-7.92.9c.6.3,2.64.3,3.54-.6-1.44,0-2.34-.6-3.54.6Zm-3.78-.9s-.3,0-.3.3c0-.3.3,0,.3-.3Zm3.24-.6s-.3,0,0,0c-.3,0,0,.3,0,0Zm-.9-.6h0Zm4.38,0h0c.3-.6-.3-.6,0,0q.2.4,0,0Zm-7.62,0h0s0,.3,0,0Zm5.88-.6s-.3,0,0,0h0Zm-2.34,0h0s0,.3,0,0Zm.3.6s.3.6.6,0v-.3s.3,0,.3-.3c-.6,0-.9-.3-.9.6Zm-3.54-.3s0,.3,0,0c.3,0,0-.3,0,0Zm8.52-.9c0,.9.3.3.6.3.3-.9-.3-.6-.6-.3Zm2.04-.3s0,.3.3.3c0,0,.3-.9,0-.9,0,.4-.1.6-.3.6-.3,0-.3-.3-.3-.3,0,.6.3.3.3.3Zm-.9,0s0,.3,0,0c0,0,.3,0,0,0l.3.3h.3v-.6s-.6-.3-.6.3Zm-7.32.6s.3.3.6.3v-.6c0,.6-.6-.3-.6.3Zm6.12-.9s.3,0,0,0l.3-.3h-.3v.3Zm-4.98.3s0,.3,0,0c.3-.3.3.3.6.3,0-.9-.3-.3-.6-.6,0,0,0,.3,0,.3Zm-2.64,0s-.6,0-.6.6c.3-.3.6.3.6-.6,0,0,0-.3,0,0Zm-2.94,0s-.3,0,0,0q.2,0,0,0Zm12.3-1.2s-.6,0-.6.6c.3,0,.9.6.9-.3-.6.3.3-.9-.3-.6v.3Zm-7.92.3s.3,0,.3-.3h-.3v.3Zm9.36-.9s.6,0,.6-.6c-.3.3-.6.3-.6.6Zm3.54-1.2h0Zm-.6,0s-.3,0-.3.3c0-.3.3,0,.3-.3Zm-4.98.6s.3-.3.3-.6c-.3-.3-.6.3-.3.6Zm.6-1.2h0l.3-.3h-.3v.3Zm2.64-1.44h0s0,.3,0,0Zm.6.3s.3,0,.3-.3h-.3v.3Zm.6-2.34s-.6-.3-.6.3c.3,0,.6.3.6-.3Zm3.24-.6c.6-.3,1.2.9,1.44-.3-.6.6-1.2-.3-1.44.3Zm.3-.9s-.3,0,0,0c0,0,0,.3,0,0Zm-69.72,2.34h0Zm65.28-2.04s.3,0,0,0v-.3s.9,0,.9.6c.3.3-1.2-.3-.9-.3Zm1.44-.6h0s0,.3,0,0Zm2.94.3c0-.6,0-.9-.3-.6,0,.6.3.3.3.6Zm-3.78.6c0-.9.6,0,.6-1.2,0-.8-.2-.8-.6,0,0,.6-.3.9,0,1.2Zm-65.88,1.44s.3.3.6.3c0-.9-.3-.9-.6-.9.3-.3,0-.9-.3-1.2,0,.6,0,1.2.3,1.74v.06Zm75.54-5.88s-.3,0,0,0h0Zm-11.1,1.2c.6.9.9-.3,2.04.3,0-.6,0-.9.3-.6,0,.3-.3.6,0,.6.6-.9,2.04,0,2.94-.9-2.34-.6-2.94,0-5.28.6Zm-19.32.3s-.3,0,0,0c0,0,0,.3,0,0Zm22.86-2.34h0Zm-6.42.3s-.6-.3-.6.3c.3,0,.9.3.6-.3Zm-6.72.9s.3-.6.3-.9c0-.2-.1-.1-.3.3-.3.6.3.3,0,.6Zm7.32-1.74s0,.3,0,0h0c.3.6,0,1.2-.3.3v.9s.3-.6.3,0v.3s.6-.6.6-1.2c-.6.6-.3-.6,0-.9-.3.3-.9,0-.6.6Zm7.92-1.74s-.3,0,0,0c-.3.3,0,.3,0,0Zm-.6.9c0-.9.6,0,.3-.9h-.3s-.3.9,0,.9Zm-.3,0s0-.3,0,0q0,.2,0,0t0,0c0,.3,0-.6-.3-.6,0,0,0,.6.3.6Zm-13.44-.3s-.3.3,0,0q.2-.2,0,0Zm15.24-.9s.3,0,0,0c.6-.6,0-.6,0,0q0,.4,0,0Zm-11.4.6s-.3-.3,0,0c-.3,0,0,.3,0,0Zm-.3-.6s-.3,0,0,0q.2,0,0,0Zm9.36-.6c0,.6,2.94.3,2.64.3,0,.6-2.34.3-2.04.3-.3,0-.6-.3-.3-.9-.3,0,2.64,0,2.64,0,0,.3-3.24.3-2.94.3Zm.6-.6s-.3,0,0,0c0,0,0,.3,0,0Zm2.04.3v.3s.3-.6,0-.3c0-.3,0,0,0,0Zm-70.86,2.04s-.3,0,0,0q.2,0,0,0Zm58.26-1.74s0,.3,0,0,0-.3,0,0Zm2.64-.6s-.3,0,0,0q.2,0,0,0Zm-1.44,0h0s0,.3,0,0Zm5.88-.3s0-.3,0,0l.3-.3h-.3v.3Zm-4.38,0h0l.3-.3h-.3v.3Zm-.6.3s.3,0,.3-.6c0-.4-.1-.2-.3.6Zm-.9,0s.3,0,0,0l.3-.3h-.3v.3Zm2.04-.6s.6,0,.6-.6c-.3,0-.6,0-.6.6Zm-22.86.3h0Zm24.6-1.74s-.3,0,0,0c-.3.3,0,.3,0,0Zm-21.36,1.2h0Zm-4.98.3h0Zm2.04-.6s-.3.3,0,0c-.3.3,0,.3,0,0Zm20.22-.9h0Zm-20.82.9s-.6-.3-.6.3c.3-.3.6,0,.6-.3Zm-2.94.3c0,.6.6-.3,0,0,0-.3-.3,0,0,0Zm-36.6,1.2s.3,0,.3-.3,0-.6-.3-.6c.3.6,0,.3,0,.9Zm38.04-1.2s.6.3.6-.3c-.3-.3-.6-.3-.6.3Zm18.18-1.74s-.3,0-.3.3.3.3.3-.3Zm-.6.6h0l.3-.3h-.3v.3Zm-18.42.9s-.3,0-.3-.3c0,.6.6.6.3.3Zm-37.5.6l.3-.3c0-.3-.3-.3-.3.3Zm57.96-2.34s-.3,0-.3.3c0,.2.1.1.3-.3Zm-1.2.3s0,.3,0,0c.9.3.6-.6,0,0Zm-15.54.6s-.3,0-.3.3c0,.2.1.1.3-.3Zm21.06-1.2s0,.3,0,0c.3.6.3-.6,0,0Zm-4.08.6c.3-.6.9.6,1.2-.6-.3,0-1.2-.3-1.2.6Zm-57.12.9s-.3,0,0,0c-.3.3,0,.3,0,0Zm59.46-1.74s-.3.3-.6-.3c0,.9.6.9.6.3Zm-1.2.9s.3-.3.3,0c0,.2.1,0,.3-.6.3-.9-.3,0-.3.3,0,.2-.1.1-.3-.3-.3-.6-.3.3,0,.6Zm.3.9s-.6-.9-.9.3c.6,0,.6.6.9-.3,0,0,0-.3.3-.3-.3.9.3,1.74-.3,1.2.3,1.44,1.2.6,1.74.3.3,0,.3.3.6.3,0-.6,0-1.2.6-1.2,0,1.2.9-.3,1.2.9.3-2.04.9-.3,1.74-.3-.3-.9.3-1.2-.3-1.44-.3.6-1.44,0-1.74-.3.6.3.9-.9,1.2-.3,0-.6,0-1.74-.3-.9,0,1.44-2.64,0-2.64,2.34-.3-.6-1.2.6-.9-.9-.3.3-1.2-.3-1.2.6h0Zm8.76-3.24s-.6-.3-.6.3c.3-.3.6.3.6-.3Zm-.9,0s-.3,0-.3.3c0,.2.1.1.3-.3Zm-2.34.9s.3,0,.3-.6v-.3h-.3v.9Zm.3-.6c.3.9.9.6.9,0-.3-.6-.3-.3-.9,0Zm-.6,0s-.3.3,0,0c0,.6.3,1.44.3.9-.3,0-.3-.9-.3-.9h0s0-.3,0,0Zm9.36-.9h0s0,.3,0,0Zm-11.4,1.44c-.6.3-1.44.3-2.04.9.6-.3,1.74-.3,2.04-.6v-.3c.6.6,1.2,0,1.74-.3,0,0-.3,0-.3-.3.3,0,.6,0,.6-.6-.9.3-2.34.3-2.04,1.2Zm-2.34-.9c0,1.2.3-1.2,0,0,0,0-.3,0,0,0Zm-13.2,1.74h.3c0-.4-.1-.6-.3-.6v.6Zm-5.88-.3s-.3,0-.3.3c0,.2.1.1.3-.3Zm19.92-1.44s.3.3.6-.3c0,0,0-.3-.3-.3,0,.3-.6.3-.3.6Zm-2.04.3s.6-.3.3-.9c-.3,0-.6.3-.3.9Zm-6.42.3h.3s0-1.2-.3-.9c0,.6-.3.6,0,.9Zm-4.68,1.2s.3-1.2,0-.9v.9Zm14.04-2.04l.3-.3s-.1.1-.3.3Zm-3.24-.3l.3-.3c-.3-.3-.6-.3-.3.3Zm.9-.6s.3.3,0,0c.3,0,0-.3,0,0Zm-.3,0s-.3-.3-.3,0c0,.6.3.6.3,0Zm-.9.3h0l.3-.3h-.3v.3Zm-.6,0s.3,0,0,0l.3-.3h-.3v.3Zm-.3,0s.3-.3,0,0c0-.6,0,0,0,0Zm-2.94.3s.6.3.3-.3h-.3v.3Zm-.3-.6s-.3-.3-.6,0c0,1.2.9.6.6,0Zm-1.2.6c.3-.6-.3-.6-.3-.3.3,0,.3.3.3.3Zm-.6,0s.3,0,0,0l.3-.3h-.3v.3Zm-.9,0c.3-.6-.6-.6-.6-.3.3.3.3.6.6.3Zm0,0h-.9c0,1.2.9,1.2.9,0Zm-3.54.9s0,.3,0,0c.3.3.6.3.6-.6-.3.3-.3-.3-.6.6Zm-.3-.6h-1.44c.3,1.44,1.44.9,1.44,0Zm-1.44,0s-.3,0-.3.3c0,0,.3,0,.3-.3Zm-.3,0l-1.74.3s1.74,0,1.74-.3Zm-4.68.6s-.6-.3-.9-.3c0,1.2.6.9.9.3Zm-1.74.6s.3-.3.3-.6c0,0-.3,0-.3.6Zm-1.74.3c.6.2,1.18,0,1.74-.6.84-.9-1.74-.6-1.74.6Zm-2.64-.3s.6,0,.3-.6h-.3v.6Zm27.24-2.34s-.6-.3-.6.3c-.6-.3-1.74-.6-2.04.6.6-.3.9-.3,1.44,0,0,.6.3.6.3.3-.3,0-.3-.3-.3-.3,0-.6.3.3.3-.3.3-.3.6,0,.9-.6q.2-.4,0,0Zm-60.6.6s.6.3.3-.3c-.2-.4-.3-.3-.3.3Zm52.14,33.36s-.6.3-.6.9c-.3-.6-.6-.9-.9-.3-.6-1.2-.3.6-1.2-.6-.3,0,0,.3,0,.6-.6-.3-1.74.3-2.64.6-.3,0-1.2-.6-.9.6-.6-.6-.9-.3-1.44.3-.3-1.2-1.2.6-1.44-.6-.6-.3-2.34.6-2.94.6s-1.2-1.2-1.74,0c-.3-1.44-.9.6-1.2-.9-1.2,2.04-2.64-.6-4.38,1.2-.3,0-.3-.6-.6-.6-.6,1.2-33.66-.6-34.56-.3-.9-.6,0-2.94-.3-3.54,0-.3,0-1.74-.3-2.64-.3-1.74,0-2.64,0-4.08-.6-.6-.3-2.34-.3-3.24.9.3.9-1.74,1.2-2.34v-1.44c0-.3.3-.3.3-.3.3.3.3-2.04,0-2.04,0-1.74-.3-5.88-.6-7.62.3,0,.6-.6,0-.3.3-.6.9,0,.9-.6-.3-.6-.6-.6-.9-.6.3-.9,0-.9,0-1.74.3,0,.3-.3.3-.3,0-.3-.3-.3-.3-.3,0-.3,0-.9.3-.6,0-.6-.3-.3-.3-1.2l.3-.3c.3-2.04,1.44-2.94,2.34-2.34.3,0,16.68-1.2,16.98-.9-.3.9.3,0,.3,0,0,.6.3.9.6.9,0,.9.3.6.6.9.3-.9,12.9-.3,13.2-1.2.3-.3.9.3.6.9,0,0,.3,0,.3.3.9-.9,2.04.6,2.94-.3,0-.6-.3-.3-.3-.9.3-.3,0,0,.3,0v.9c.9,1.2,2.64-.3,3.24.6,0-.3.3-.3.3-.9h0c1.2.3,4.38.9,4.98,0,.6.3.6.6,1.2-.3.3.6.9-.3.9.6.3-.9.6-.6.9-1.44.3,0,.3.9.6,1.2.3-.3.6.3.6,0,.3.3,0,.6-.3.6.3.6.6.3.9,0,0-.3-.3-.3-.3-.3.3-.9,1.44-.9,2.04-.9.9,0,1.44.6,2.04,0v-.6s.3.9.6.9c3.54-1.44,5.58.9,7.92-1.44h.6v.3c-.3.6-.9.6-1.44,1.44.3,1.44.9-1.2,1.2,0-.3,0-.3.3-.3.3,0,0,.1-.1.3-.3.3-.3.3,0,0-.3,0-.6.3.3.3.6.6-.3,1.2.6,1.44-.6.3,0,0,.6.3.6.3-.3-.3-.9,0-.9.3.3.6.3.6.9,0,0,.3,0,.3-.3,0-.2.1-.3.3-.3.3,0,.3.3.3.3v-.6h0s-1.44.6-1.44.9c.3,0,1.74-1.2,1.44-.9,0-.6-1.2-.3-.9-.3,0,.9-.3-.3-.3.6.6.3.9.3,1.2-.3l.3-.3c0,.6-.3.6-.3,1.2,1.2-.9,4.68.6,6.12-.3v.6c.3-1.2.9-1.2,1.44,0-.6.6-1.44-.6-1.44,1.2-.3,0,0-.3,0-.9-.6,0-.9.3-1.2,0-.3.6-4.08.6-4.08.6-.3,0-.3.3,0,.6-.3,0-.3-.6-.6-.3,0-.3,0,0,0,0,0,0-.3,0-.3.3,0,0-.3,0-.3-.3.3-.3,0-.9-.3-.6,0,.3.3,0,.3.6-.3,0,0,.3-.3.6-.3,0,0-.9-.3-.6,0,.3-.3.6-.3,1.2v-.3s0-.3,0,0c-.3,0,1.2-.6.9-.3-.3-.6-.6.9-1.2.6,0-.6.3-.6.6-.6,0-1.2-.9.3-1.2-.3,0,.9.6.6,0,1.2.3.6.6,0,.9.3v.6h-.6c-.3.9.3,0,.3.6.3,0,.3-.3,0-.6.3-.3.3.9.6,0v.6h.6s-.3,0-.3-.3c.3,0-.6-.9-.6.3h0s-.3,0-.3.3c-.6,0,1.2.3,1.2.6h-.3c0,.3-.9.3-.9,0l.3.3v.3s.3-.6.6-.3c0,.9-.6.3-.6,1.2-.3-.3,1.2,0,.9-.3,0-.3-1.2,0-.9-.6,0,.3,0,0,0,0v-.3s1.2.6.9.6c.3-.9-.9.3-1.2-.3.2.4.1.6-.3.6v-.6s.3-.6.6-.3c0-.6-.3-.3-.3-.9-.3,0,0,.9,0,1.2-.3,0,0-.9-.3-.6v1.2h-.6c.3-.6-.3-.3-.3-.9v-.3s.3,0,.3-.3v.6s0,.3,0,0,.3-.6.3-.6c-.6-1.2-1.44,1.2-.9.9v.3s-.3.3-.6.6c.3-.3.3-.6,0-1.2.6,0-.3-.6.3-.3-.6-.6-.9,1.44-1.44,1.44s-.3.3-.9.3c0,.3.3.6.3.3h0s-.6.3-.6-.3c0,.3-.3.3-.3.9l-.3-.3v-.3.3c0,.6-.3-.3-.3,0,0,1.2.3,0,.3.9v.3-.3s.9.3.6-.6h.3c.3.6.3.3,0,1.2.3-.6.9-.6.9-1.2.3,0,0,.6.3.3v.3-.3c0-.6.3-.6,0-1.2-.6.6-.6,1.2-1.44.9,0-.3.3-.6.6-.6.2,0,.1-.1-.3-.3-.6-.3.3-.3.3-.6.3.6.3,0,.6,0s.9.9.6.3c.3,0,0,.9,0,1.2,0,0-.3,0-.3-.3,0,1.44.6-.3.3,1.2.3-.6.6-.6.6-1.2.3,0,.3.9.3,1.2.3,0,.3-.9.3-1.44,0-.36.1-.16.3.6.3,1.14,0,.3,0,0,.3.3.3-.9.6-.6,0,.3-.3.3-.3.6,0,.2-.2.3-.6.3,0,.6.6-.3.3.6,0,0,0,.3-.3.3-.3-.3-1.2,0-1.74.3,0,.3.6,0,.9.3v.3c-.6-.3-.6.3-1.2.6,0,.6.3,0,.6.3,0,.6-.3.6-.6.3.6,1.2,1.2-.3,1.74-.3v.6s.3-.9.3,0c.3-.3.9-.3,1.44-.6,0,0-1.44.3-1.2.3,0-.3,1.2-.6,1.2-.3-.9,0-.9-.9-.9-.6v.3s0,.3,0,0v-.3s.3,0,.3-.3c.6.6,1.44.3,2.04,0,0-1.44-.3-.9-.3-1.44-.3,0-.3.6-.6.6-.3-1.2-1.44.3-1.74-.3.3-.3.6-.3.3-1.2.6,1.44,1.74-.6,2.34.6.3,0,0-.6.3-.9.3,0,0,.3,0,.6.3.3.6,0,1.2-.3.3.6.3-.9.9-.6,0,.3.3.3.3.3,0-.3-.3-.3-.3-.3,0-.6.6-1.2.9-.6-.6,0,0,1.44,0,0l.3-.3c.6,0-2.34.3-1.74,0v.6s.6-.6.6.3c0,0-.3,0-.3.3h-.3s.6.6.3,0c0,0,.3,0,.3-.3h.3c0,.6-.3.6-.3.9s.6.3.6,0c0,0,0-.6.3-.6h.3s0,.3.3.3c.2,0,.1-.1-.3-.3,0-.9.3,0,.6-.6v1.2s0-1.2.6-.9v.6h-.3s.3.3.3,0c.3-.3.6.3.9,0,.2-.2.3-.1.3.3,0,.6,0-.3-.3-.3-.3-.6-.6,0-.6-.3,0-.9.6-.3.9,0,.3,0,0-.3,0-.9.3.3,1.44.9,1.44,0v-.3.6-.9s-.3,0-.3.6c-.3,0-.3-.6-.3-.9v-.3s.3.6.6.3v.3-.3l.3-.3c0,.6-.3.6-.3.9h-.3v.9c-.3.6-1.2.3-1.74.6h0c.9,0,2.04.6,2.64,0,.6,0,.9.3,1.2,0,.3.6-.3.6-.6.6-1.44.3-4.08-.6-4.98.3-.3-.3-.3-.6-.6-.9.3.9-.3.6-.3,1.2h0v-.3.3h.3s0,.3-.3.3c0,.3.3,0,.3.6-.3-.3-.6.3-.6-.6-.6,0-.6.3-.9.6-.3-.3,0-.3,0-.6,0-.6-.6,0-.3-.6-.3-.3-.3.3-.3.6,0-.3,2.64-.3,2.34-.3v.3s-.6.6-.6-.3c-.6,0-.9.6-1.2,1.2,0-.6,0-.9-.3-.6,0-.3-.9-.3-.3-.6-.3-.6-.6.3-.9,0,0,.6.3.6.6.3-.3.3,0,.6,0,.9h-.3c0-1.2-.3.9,0,0,0,.3.6.3.3,0h0c0,.3.3.3.6,0,0,.6.6-.6.6.3,0,.6.3.4.9-.6.9-1.5,0-.3-.3-.3.3-.6-2.34.3-2.04.6.3,0,.3-.6.6-.6-.3.9.3.6.3.3,0,0,.3.3.3.6.6-.3.9,0,.9-.6.3.6,1.74.6,2.04-.6.3.3,0,.3,0,.9.3-.3.6.3.9-.6.3.6.6,0,.9.3.3,0,.3-1.44.6-.9,0,.3-.6.6,0,.6.9.6,4.38.6,5.28.3,1.2.6-.9,0,.9.9-2.94.3-1.2.3-4.08,0-.3,0,0,.9-.3.6v-.6s-.6-.3-.9.3c.3.3.3.6-.3.3,0,.3.3,0,.3.6-.3-.3-.3.3-.6.3.3-.9-.3-1.2-.6-.9-.2.2-.1.1.3-.3-.9-.3-2.94-.9-3.78.3.3.3.6.6,1.2.6-1.44,0-.3,1.2-1.44.3-.3.3-.6.3-.9,0-1.74,1.44-2.64,0-4.98,1.44,1.2.6,1.44-.3,2.34-.3.3-.3,1.2.3,1.44-.3v.6c1.2-1.2,0-.3.9-1.2,0,0,.3.3.3.6.3-.6,2.04.3,2.04-.9v.6c.9,0,1.74-.3,2.64-.3.3,0,.6.6.9.6.6,0,1.44-.9,1.74,0,1.44-.6,0-.6,1.44,0,0,.9-.6-.3-.3.6v-.3c-1.44.6.6,0-1.2,0-.9,0-1.74.6-2.64.6-.3,0-1.2-.6-.9,0-.3-.3-1.44.3-1.74-.3-.6.6-2.34.6-3.24.3-.6.6,1.74.3,1.2.6.3.9-2.04.6-1.44.6.3,0,.9-.3,1.2-.6,1.44.6,3.24,0,4.68.3,0,.6.6.6.3,0,.3.6.6-.3.9.3h-.3s.3.3.3,0c.3-.9.3.3.6-.3v.6c.6-.3,1.74-.3,1.74,0,.6-.6,1.2-.6,1.74-.3-.3,0-1.2.9-1.44.6.3,1.2,1.44-.3,1.74.6.3-.3.6-.6.9-.3,0-.3-.3-.6-.3-.3v-.3l.3-.3s-.1.1-.3.3c.3.6.9.3,1.2-.6,1.2.9-2.34.3-1.2.3,0,1.44-1.44.6-2.04.6.3,0,0-.3,0,0-.6.3,2.94,0,2.34.3.3.9-3.54-.3-3.24.6v.3c-.9-.3,2.94.6,1.74,0-4.08.9-6.42,0-10.26,1.2.6.9-1.2-.3-.3,0-.6.9.9.3-.3.6,0-.6.3-.3.6-.6,0-.6-.3,0-.6-.3-.3,1.44-1.44.3-1.74.9,0,.6.6,0,.3.6-.3.3-1.2-.3-1.44.6v-.6c0-.6.3,0,.6-.3v-.3s.3,0,.3-.3h.3c.9-.3,0-1.44-.3,0,0,0-.3,0-.3.3-.6.3-.9,0-.9.6,0,0-.3,0-.3.3-.3-.3.6,0,.6-.6.3,0-.6.3-.3-.6,0,0,.6.3,0,0,0,0,0,.9-.3.3,0,0,0-.3,0,0-.3.3,0,.6,0,1.2-.3,0-.6-.9-.6-.3h-.3c0,.6,0,.9.3.6-.3.3-.9,0-1.2-.3,0,.9-.9.6-1.2.6-.3.6-1.74,1.2-2.34.9,0-.9,1.2-.6.9-.9-.3.6-1.44.9-2.04.9,0-.3,1.44-.6,1.44-.6-.3,0-1.74.3-1.74.9l1.2-.3c-.3.6-2.34.3-2.64.3,0,0,0,.6-.3.6.3.6.6-.6.6.3-.3.3-.3,0-.6.6,0,.3.3.3.3.3,0,.6-.6,0-.3.6-.3,0-.3-.6,0-.9,0-.6-.3.6-.6.3,0-.6.3-.3.3-.6-.3-.6-1.2.3-1.74.6.3.3.6.3.6-.3.3,0,0,.6,0,.6.3,0,.3-.3.3-.6.6,0,1.2.9.9,1.44.3.3.3-.3.3-.3,0,.3,0,0,0,0,.6-.3,1.2-1.74,2.04-1.2,0,.3-.3.3-.3.3,0,0,.1.1.3.3-.3.6-.3-.6-.9-.3-.3.9-.3.3-.6.9,0,0,.6.3.6.9.3-.6-.3-.6,0-1.2.3,0,.3.6.6,0,.3.3-.3.6,0,1.2-.3,0-.3.6-.6.6.3.6.6,0,.6-.6.3,0,.6-.3.9-.6-.3-.3-.6-.6-.3-1.74l.3.3v.3-.3c.6.3.9-.6,1.2-.6-.3,1.2-.6.6-1.2.9v.6s.6-1.2.6,0l-.3.3s.9,0,.9-.3-.3-.3-.3-1.2c.3.3.3,0,.3-.6.3,0,.3.3.6.3v.9s.3-.3.6-.3c0-.6-.3-.3-.3-1.2-.3.3-.3.6-.6.3,0-.3.3-.3.3-.3,0-.6-.6.6-.6-.3.3,0,1.44-.3,1.74-.6.6.3,0-.6.6,0,.6-.3,2.04-1.2,2.64-.9,0,.3-.3,0-.3.3-.3,0-.3.3-.3.3,0,.6.6.3.3-.3.6,0-.9-.3-.3-.6,0,.3,0,.6.3.3v.3c.9-.6,1.74-.9,2.94-.9v.3s0,.3,0,0v-.3c.3-.6,0,.9.3.9s.3-.6.3-.6c.3.6,1.2.3,1.44,0,.3.3-2.04.6-1.74,0,.3,0,0,.6.3.3-.96.4-1.84.6-2.64.6-1.2,0,0,.6-.3.9-.3,0,0-.6,0-.9-.3-.3-.6.6-.6,0,0,.9-.6.3-.9,1.2,0,0-.3,0-.3.3-.3,0-.3-.3,0-.6-.6,0-.9,0-1.2.3-.2.2-.1,0,.3-.6-.3-.6.6.6.3-.3-.3.3,0,1.2-.3,1.2,0-.3,0-.9.3-.9-.3-.3-.6.9-.9.6,0,.3.6,0,.3.6.3,0,.6,0,.6.3,0,.6-.3,0-.6.3,0,.3.3.6.3.3,0,.3.3.3.3,0h.6v.3c1.2,0,1.2-.3,2.64,0,0,.3.3.3.3.6-.3-.3-1.2.3-1.74,0v1.2s.6,0,.6-.6c.3,0,0,.6.3.3,0,.6-.6.3-.6.6,0,0,0-.3-.3-.3,0,.3.3.6.3.3.3.9.6,0,.9.3.6-.3,1.44,0,2.64-.3,0,.3-.3.3-.3.3h-.3s.3.3.3,0c0,0,.6,0,.3-.3.6,0-1.44,0-.6-.3v.3c.6-.2,1.08-.2,1.44,0,.54.3,0,.3.3.3.2,0,.1-.1-.3-.3.6-.6,1.2,0,1.74-.3.3,0,0,.6,0,.9-.3,0-.3-.6-.6-.6,0,.3,0,.6.3.3-1.44.6-2.64.3-3.78.3v-.3.3c-1.44.3-.3.6-1.44.3v.6s-.6-.6-.9-.3c-.2.2-.1.3.3.3-1.74.6-2.04-.3-3.78.6-.3-.6-.9,0-1.44,0-.9,0-1.74-.3-2.64.3-.3.3,0,.9-.3,1.2-.6-1.2-1.74-.3-2.94,0,0,.6.6,0,.3.9.6-.6.6,1.2,1.2.3-.3-.3-.3-.9-.6-.6.3-.3.9-.3,1.44-.3v.6s0-.9.3-.6c0,.6.3,0,.3.9,0,.6-.2.7-.6.3,2.94,2.34-1.44,2.64,1.44,0h.6c-.3,1.74-.9,2.34-1.44,2.94-.9.6-1.74,0-3.24-.3.6.6,1.44,2.04,2.04,2.04l-.6-1.74-.54-.78Z"></path><path id="Fill-20" class="cls-1" d="m579.36,182.79s.3-1.2,0,0"></path><path id="Fill-21" class="cls-1" d="m554.52,183.99c0-.9.6.3,0,0"></path><path id="Fill-23" class="cls-1" d="m579.06,183.99c.3-.9.3.9,0,0"></path><path id="Fill-24" class="cls-1" d="m579.66,183.99s.3-.3.6-.3c-.3.3-.6.3-.6.3"></path><path id="Fill-27" class="cls-1" d="m578.22,183.09c-.3.6-.6.3-.9.6,0-.6.6-.6.9-.6"></path><path id="Fill-30" class="cls-1" d="m587.88,181.65s0,.3,0,0c-.6,0-.3.6-.6.9-.3-.9-1.2-.3-1.2.6,0,.6-.2.3-.6-.9-.6-1.8,0,.6,0,.6-.3.9-.3-.9-.6-.3,0-.6-.6.3-.6-.6.6.6,2.04-.6,3.54-.3"></path><path id="Fill-31" class="cls-1" d="m587.88,181.65s.9-.3.9.3c0,.9-.9.9-1.2.6,0-.3.3-.3.3-.6,0,0,.3,0,0-.3"></path><path id="Fill-32" class="cls-1" d="m588.48,181.65c.6-.3.3.3.9.3,0,.6-1.2.6-.9-.3"></path><path id="Fill-33" class="cls-1" d="m590.22,182.19c-.6,0,0-1.44,0,0"></path><path id="Fill-34" class="cls-1" d="m584.94,183.99s.3.3,0,0"></path><path id="Fill-35" class="cls-1" d="m585.24,184.23l.3-.3s-.3,0-.3.3"></path><path id="Fill-36" class="cls-1" d="m580.86,184.23s.3-.3,0,0"></path><path id="Fill-37" class="cls-1" d="m581.46,184.23l.3-.3c0,.3-.3.3-.3.3"></path><path id="Fill-38" class="cls-1" d="m582,184.53c-.6.3,0-.9,0,0"></path><path id="Fill-39" class="cls-1" d="m589.32,182.19c.3-1.2.3,1.2,0,0"></path><path id="Fill-40" class="cls-1" d="m589.62,182.19s.3.3,0,0"></path><path id="Fill-42" class="cls-1" d="m577.32,183.69h.3v.6h-.3v-.6"></path><path id="Fill-43" class="cls-1" d="m580.56,184.83s-.3.6-.6.6c0-.3.6-1.74.6-.6"></path><path id="Fill-45" class="cls-1" d="m581.46,184.23s-.3.3-.3.9c-.3-.3-.6.3-1.2,0,0-1.2.6-.6,1.44-.9"></path><path id="Fill-48" class="cls-1" d="m584.04,184.53c.6-1.2.3.9,0,0"></path><path id="Fill-49" class="cls-1" d="m584.04,182.79l.3-.3s-.1.1-.3.3"></path><path id="Fill-50" class="cls-1" d="m584.34,182.79c.3-1.2,0,1.74,0,0"></path><path id="Fill-51" class="cls-1" d="m584.94,182.49l.3.6c0,.6-.3.3-.6.3,0-.6,0-1.2.3-.9"></path><path id="Fill-52" class="cls-1" d="m581.46,184.53l.3-.3s-.1.1-.3.3"></path><path id="Fill-53" class="cls-1" d="m582,184.83c0,.6-.6-.3,0,0"></path><path id="Fill-54" class="cls-1" d="m585.54,184.53s-.3-.3,0,0"></path><path id="Fill-57" class="cls-1" d="m585.24,184.53s.3.3,0,0"></path><path id="Fill-59" class="cls-1" d="m588.78,183.99s-.6,0-1.2-.3c-.4-.2-.1-.1.9.3-1.44,0-2.34.3-3.78,0-.3,0-.3.3-.3.6-.9-.9.9,0-.3-.3,0-.3.3-.3,0-.3,1.74-.6.6-.3,3.78-.9,0-.3-.3-.3-.6-.3.6-.3,1.2-.3,1.74,0-.3.6-.3-.3-.9,0,.3.9.9.3,1.44.3,0,.9-.6.3-.9.9h.12Z"></path><path id="Fill-60" class="cls-1" d="m589.02,183.09c0-.6.9-.6.6.3,0-.3-.6-.6-.6-.3"></path><path id="Fill-61" class="cls-1" d="m583.5,185.43c.3-1.2.3.9,0,0"></path><path id="Fill-62" class="cls-1" d="m583.8,185.13s.3.3,0,0"></path><path id="Fill-63" class="cls-1" d="m586.14,183.09s.3.3,0,0"></path><path id="Fill-66" class="cls-1" d="m592.26,182.79s.3.3,0,0"></path><path id="Fill-67" class="cls-1" d="m599.28,182.19s.3.6.6.6c0,.6-.6.3-.9.3-.3-.9.3-.3.3-.9"></path><path id="Fill-71" class="cls-1" d="m590.22,183.69c0-.6.9-.3,1.2-.3-.3.6-.9,0-1.2.3"></path><path id="Fill-72" class="cls-1" d="m591.66,183.39c0-.6.6-.3.9-.3,0,.6-.6.3-.9.3"></path><path id="Fill-73" class="cls-1" d="m594.9,183.39c0,.6-.3.3-.6,0,0-.6.3-.3.6,0"></path><path id="Fill-79" class="cls-1" d="m588.78,183.99h.6c0,.6-.3.3-.3.9,0-.3-.3-.3-.3-.9"></path><path id="Fill-80" class="cls-1" d="m589.32,184.23c0-.6.9-.6.6.3h-.3s0-.3-.3-.3"></path><path id="Fill-82" class="cls-1" d="m591.12,183.99l.3-.3c0,.3-.3.3-.3.3"></path><path id="Fill-86" class="cls-1" d="m590.82,183.99c-.6.9-1.2-.3,0,0"></path><path id="Fill-87" class="cls-1" d="m592.86,184.23c0-1.2.9,0,0,0"></path><path id="Fill-88" class="cls-1" d="m584.94,185.13s.3-.3.6-.3c-.3.3-.3,0-.6.3"></path><path id="Fill-89" class="cls-1" d="m585.54,184.83c.6-.6-.3,1.2,0,0"></path><path id="Fill-90" class="cls-1" d="m586.44,184.83c.3-1.2.3,1.2,0,0"></path><path id="Fill-91" class="cls-1" d="m587.58,185.73s0-.3,0,0c-.3-.3,0,0,0,0,0,.3-.3.3-.6.3-.3-1.2.6-.6.6-1.44.3,0,.3.6,0,1.2h0"></path><path id="Fill-92" class="cls-1" d="m593.16,183.99c0,.6-.3.3,0,0"></path><path id="Fill-96" class="cls-1" d="m579.36,186.87c-.6.3,0-.9,0,0"></path><path id="Fill-98" class="cls-1" d="m586.14,185.13s-.3-.6,0,0"></path><path id="Fill-99" class="cls-1" d="m588.18,185.13s-.3,0-.3.3c-.6-.3.3-1.2.3-.3"></path><path id="Fill-101" class="cls-1" d="m577.32,186.87s.3-.3.6-.3c0,.3-.3.3,0,.9-.6,0-.6-.3-.6-.6"></path><path id="Fill-104" class="cls-1" d="m579.36,186.87s.3.3.6.3c0,.3-.9.3-.6-.3"></path><path id="Fill-106" class="cls-1" d="m586.14,185.13s-.3,1.2,0,0"></path><path id="Fill-107" class="cls-1" d="m584.64,184.83s.3.3.6.3c-.2.4-.3.8-.3,1.2h-.9c-.6-.3.3-.3.6-.3,0-.3-.3-.6-.6-.3,0-.3.3-.3.6-.3,0,.3.3,0,0,0-.2,0-.2-.2,0-.6"></path><path id="Fill-109" class="cls-1" d="m593.46,184.53s.3.3,0,0"></path><path id="Fill-114" class="cls-1" d="m584.34,185.43s.3.3,0,0"></path><path id="Fill-115" class="cls-1" d="m584.94,186.57s0-.9-.3-.9c.3-1.2.6.3.3.9"></path><path id="Fill-116" class="cls-1" d="m586.68,185.13c-.6.6-.9,1.2-1.44,1.44.3-1.2.9-1.44,1.44-1.44"></path><path id="Fill-117" class="cls-1" d="m590.22,185.13c.6.3-.3.9,0,0"></path><path id="Fill-118" class="cls-1" d="m579.36,186.33c.9-.3,1.2.3,2.04,0,.9.6,1.44.3,2.04-.9-.3,1.44.3-.3.6,1.2-2.04.3-2.94.6-4.68-.3h0"></path><path id="Fill-120" class="cls-1" d="m577.62,186.87c-.3.9-.6.3-1.44.6,0-.9.9-.6,1.44-.6"></path><path id="Fill-121" class="cls-1" d="m578.82,186.87c.3-.6-.6,1.2,0,0"></path><path id="Fill-122" class="cls-1" d="m579.66,186.57s.3.3.6.3c0,.6-.3.6-.3.3-.3,0-.3-.3-.3-.6"></path><path id="Fill-123" class="cls-1" d="m581.16,186.87h-.6s.6.3.6.6c.6.3-1.44.6-1.2-.3,0-.6.3.3.6,0,0-.3-.3-.6-.6-.6.3-.9.6.3.9-.6.2.4.3.7.3.9"></path><path id="Fill-124" class="cls-1" d="m585.24,186.03c.3-1.2.6.9,0,0"></path><path id="Fill-125" class="cls-1" d="m592.26,185.43s.3.6.6.6c0,1.2-.9,0-.6-.6"></path><path id="Fill-126" class="cls-1" d="m579.36,187.17l.3-.3c0,.3-.3.3-.3.3"></path><path id="Fill-127" class="cls-1" d="m579.96,187.17v.3s-.3,0-.3.6c-.3-.6,2.34-.6,2.04-.6,0-.3,0-.6-.3-.3v-.6.6c.9.3-2.04,0-1.44,0"></path><path id="Fill-130" class="cls-1" d="m590.82,186.33c0-.6.3-.6.6-.6,0,.3-.3.6-.6.6"></path><path id="Fill-131" class="cls-1" d="m591.36,186.03c0-.6.3,0,.6,0,0,.6-.3,0-.6,0"></path><path id="Fill-133" class="cls-1" d="m577.02,187.17c.3-1.2.3,1.2,0,0"></path><path id="Fill-134" class="cls-1" d="m581.46,187.47c-.3.9-.6-.3-.9,0,.3-.9.6,0,.9,0"></path><path id="Fill-136" class="cls-1" d="m589.62,186.33s.3-.3.6-.3c0,.3-.3.3-.6.3"></path><path id="Fill-137" class="cls-1" d="m586.68,186.57c0-1.44.6-.3,0,0"></path><path id="Fill-138" class="cls-1" d="m592.86,186.03s.3.3,0,0"></path><path id="Fill-139" class="cls-1" d="m575.88,187.47c0-.6.6-.3.9-.3-.4.6-.7.7-.9.3"></path><path id="Fill-141" class="cls-1" d="m577.32,186.87h.6c.3.9-.3.6-.6.6v-.6"></path><path id="Fill-142" class="cls-1" d="m577.92,187.77c.3-1.2.3.9,0,0"></path><path id="Fill-143" class="cls-1" d="m581.16,187.47s.3-.3,0,0c.3,0,0,0,0,0"></path><path id="Fill-144" class="cls-1" d="m585.54,186.33s.3.3,0,0"></path><path id="Fill-145" class="cls-1" d="m591.12,186.03c0,.9-.9-.3,0,0"></path><path id="Fill-146" class="cls-1" d="m574.98,187.47s.3.3.3,0c.6.3-.6,1.2-.3,0"></path><path id="Fill-148" class="cls-1" d="m578.52,187.47c.3.6-.3,1.74.6,1.74,0,.3-.6.3-.9.3.3-.6,0-1.44-.6-1.2.3-.6.9,0,.9-.9"></path><path id="Fill-149" class="cls-1" d="m581.7,188.07c0,.6-.6,0-.6.3s-.6.3-.3.9c-.3,0-.3.3-.6.3,0-.6.3-.6.6-1.2-.3-.6-.6.3-.6-.3,0-1.2.9.3,1.44,0"></path><path id="Fill-150" class="cls-1" d="m581.46,187.47s.3.3.6.3c0,.3-.3.3,0,.9l-.3-.3c-.3-.6-.3-.9-.3-.9"></path><path id="Fill-152" class="cls-1" d="m586.68,186.33s-.3.3,0,0"></path><path id="Fill-153" class="cls-1" d="m577.02,188.07s0,.6-.3.6c0-.3-.3,0,0,0v.3s-.3,0-.3-.3l-.3.3c0-.6-.3.3-.6,0v-.3s0-.3.3-.3c.3.6.3-.6.6-.3v.3s.3-.3.6-.3c-.3-.3-.6-.3-.9-.3.3-.6.9-.3.9.3,0-.3,0,0,0,0"></path><path id="Fill-154" class="cls-1" d="m579.36,188.67v-.6c.3-.6.9-.9,1.2.6-.6-.6-.9-.3-1.2,0"></path><path id="Fill-155" class="cls-1" d="m581.46,187.77s.3-.3.6-.3c.2,0,0,.1-.6.3"></path><path id="Fill-159" class="cls-1" d="m576.18,188.07s.3-.3,0,0c.3,0,0,0,0,0"></path><path id="Fill-160" class="cls-1" d="m577.02,188.07c.3-.6.6-.3.9-.3,0,.6-.3.3-.6.3,0,1.74.3.9.6,1.74-.6-.3-.9.3-1.44,0,0-.6.3-.3.6,0,.3-.6.6-1.74,0-1.74"></path><path id="Fill-161" class="cls-1" d="m579.66,188.37s0,.3.3.3c-.3.6-.6.3-1.2.6,0-.6.9-1.2-.3-.9-.3-.6.6-.3.9-.6,0,.3-.3.6,0,.9,0,0,.3,0,.3-.3"></path><path id="Fill-163" class="cls-1" d="m579.96,187.77c.3.9,1.44-.6,1.44.9-.6,0-1.08-.1-1.44-.3-.54-.3,0-.6,0-.6"></path><path id="Fill-164" class="cls-1" d="m584.34,187.77c-.3-.6-.6.3-.9,0,0-.9,1.2-1.44.9,0"></path><path id="Fill-165" class="cls-1" d="m584.34,187.17l.3-.3s-.1.1-.3.3"></path><path id="Fill-166" class="cls-1" d="m586.14,187.17s-.3.3-.6.3c.3.6.3.3.6-.3,0,1.74-1.2.9-1.44.9.6-.3.6-1.44,1.44-.9q.56.36,0,0"></path><path id="Fill-167" class="cls-1" d="m589.02,186.57s.3.3,0,0"></path><path id="Fill-169" class="cls-1" d="m581.7,188.07s.3-.3.3,0c0,.6,0,0-.3,0"></path><path id="Fill-170" class="cls-1" d="m582,188.07s-.6,0-1.2.3c.3-.3.9-.9,1.2-.3"></path><path id="Fill-171" class="cls-1" d="m582,186.57c0-1.2-.3,2.04,0,0"></path><path id="Fill-172" class="cls-1" d="m582.3,186.57l.3-.3s-.1.1-.3.3"></path><path id="Fill-173" class="cls-1" d="m585.54,187.17v-.3s.3.3,0,.3"></path><path id="Fill-176" class="cls-1" d="m585.84,186.33c.6-.3.6.9.3,1.2-.3,0-.3-.6-.3-1.2"></path><path id="Fill-177" class="cls-1" d="m586.68,186.57c.3-1.2.3,1.44,0,0"></path><path id="Fill-178" class="cls-1" d="m581.16,188.37s.3.6.6,0c.6.6-.3.6-.3,1.2-.6,0-.3-.9-.3-1.2"></path><path id="Fill-179" class="cls-1" d="m582.9,188.07c-.6,0,0-.9-.3-.9,0-.6.6-.3.9-.3,0,.3-.3.3-.6.3v.9"></path><path id="Fill-180" class="cls-1" d="m577.02,188.67c.6-.9-.3.9,0,0"></path><path id="Fill-182" class="cls-1" d="m581.46,188.37c0,.6,0,.9-.3,1.2-.3,0-.3-.6-.6-.6.3-.3.6-.6.9-.6"></path><path id="Fill-184" class="cls-1" d="m582.3,188.67h0c0,.3,0,.6-.3.6,0-.3-.3,0,0,0,0,.6-.6,0-.9.6,0,0-.3,0-.3-.3v-.3s.3,0,.3.3c.3,0,0-.3.3-.3,0,.3.3,0,0,0v-.3s.6,0,.6-.3c.3-.3.6-.3.3,0,.3,0,0,0,0,0"></path><path id="Fill-186" class="cls-1" d="m581.46,187.47s-.6.3-.6,0c.3-.3.3-.6.6,0"></path><path id="Fill-187" class="cls-1" d="m591.12,186.57c.6-.3.3.3.9.3-.3.9-.6.9-.9.6v-.9"></path><path id="Fill-189" class="cls-1" d="m576.72,188.97s.3-.3,0,0q-.2.2,0,0"></path><path id="Fill-190" class="cls-1" d="m581.16,188.67s-.3.6,0,.6c0,.9-.6-.9-.6.6,0-.3-.6,0-.6-.9.6.3.6-.6,1.2-.3"></path><path id="Fill-192" class="cls-1" d="m588.18,187.17c-.6,1.2-.6-.9,0,0"></path><path id="Fill-193" class="cls-1" d="m593.76,186.57c-.3,1.2-.6-.9,0,0"></path><path id="Fill-194" class="cls-1" d="m594.9,186.33c.6,0-.3,1.44,0,0"></path><path id="Fill-195" class="cls-1" d="m577.02,188.97v.9s-.6.6-.9.6c.3-.9.6-.9.9-1.44"></path><path id="Fill-199" class="cls-1" d="m581.7,189.21c-.3.9-.3-.9,0,0"></path><path id="Fill-200" class="cls-1" d="m579.66,189.21l.3-.3s-.3,0-.3.3"></path><path id="Fill-201" class="cls-1" d="m582.9,187.77s.3-.3.6,0c0,.3-.6.3-.6,0"></path><path id="Fill-202" class="cls-1" d="m586.68,187.47s.3-.3.3,0c0,.6,0,0-.3,0"></path><path id="Fill-203" class="cls-1" d="m587.58,187.17s.3.3,0,0"></path><path id="Fill-204" class="cls-1" d="m587.88,187.17l.3-.3s-.1.1-.3.3"></path><path id="Fill-206" class="cls-1" d="m575.88,189.21s.3-.3,0,0q-.2.2,0,0"></path><path id="Fill-207" class="cls-1" d="m577.92,188.97s.3.3,0,0"></path><path id="Fill-208" class="cls-1" d="m579.06,189.51l.3-.3c0,.3-.3.3-.3.3"></path><path id="Fill-212" class="cls-1" d="m581.16,188.07c0-.6.3-.3,0,0"></path><path id="Fill-213" class="cls-1" d="m581.46,188.07s.3-.3.3,0,0,0-.3,0"></path><path id="Fill-214" class="cls-1" d="m582.3,187.77c.9-.3,0,.9,0,0"></path><path id="Fill-216" class="cls-1" d="m589.62,187.47s.3.3,0,0"></path><path id="Fill-218" class="cls-1" d="m579.96,189.21h0s.3.3.3.6c-.3.3,0,.3,0,0,.3-.6.3,0,.6,0-.3.9-.6,1.44-.9.6-.3-.3-.3-.6,0-1.2"></path><path id="Fill-220" class="cls-1" d="m587.28,188.07c.3-.6,1.44-.6,1.44.6-.3-.6-.9-.6-1.44-.6"></path><path id="Fill-222" class="cls-1" d="m580.56,189.81c.6-.9-.3.9,0,0"></path><path id="Fill-225" class="cls-1" d="m584.34,188.37s.3.3.6-.3c.6.3-.9,1.74-.6.3"></path><path id="Fill-226" class="cls-1" d="m586.14,188.07l.3-.3c0,.3-.3.3-.3.3"></path><path id="Fill-228" class="cls-1" d="m591.96,188.07c-.6.6-.9,0-1.44.3,0-.9,1.2-.9,1.44-.3"></path><path id="Fill-229" class="cls-1" d="m578.82,190.11c-.3,1.2-.3-1.44,0,0"></path><path id="Fill-230" class="cls-1" d="m578.52,190.11s.3-.3,0,0"></path><path id="Fill-231" class="cls-1" d="m583.5,188.37l.3-.3s-.1.1-.3.3"></path><path id="Fill-234" class="cls-1" d="m582.9,188.67s.3-.3.6-.3c0,.3-.3.3-.6.3"></path><path id="Fill-235" class="cls-1" d="m590.22,188.07s-.3.6-.6.6c0-.3.3-.6,0-.6,0-.3.3,0,.6,0"></path><path id="Fill-236" class="cls-1" d="m589.92,188.07s.3-.3.3,0h-.3"></path><path id="Fill-237" class="cls-1" d="m587.28,187.77v.6s4.68,0,4.68-.3-4.68-.3-4.68-.3"></path><path id="Fill-239" class="cls-1" d="m589.62,188.37c0-1.2.9,0,0,0"></path><path id="Fill-244" class="cls-1" d="m579.06,190.11c.3-.9.3,1.2,0,0"></path><path id="Fill-245" class="cls-1" d="m580.86,189.81s.3.3,0,0"></path><path id="Fill-246" class="cls-1" d="m588.18,188.37c.6-.6-.6,1.2,0,0"></path><path id="Fill-248" class="cls-1" d="m591.66,188.37l.3-.3c0,.3-.3.3-.3.3"></path><path id="Fill-249" class="cls-1" d="m578.22,190.11s.3.6,0,0"></path><path id="Fill-250" class="cls-1" d="m578.82,190.41c.3-.9.3,1.2,0,0"></path><path id="Fill-251" class="cls-1" d="m579.36,190.41s.3-.3.6-.3c.2,0,0,.1-.6.3"></path><path id="Fill-252" class="cls-1" d="m579.96,190.11c0,1.2-.6,0,0,0"></path><path id="Fill-253" class="cls-1" d="m586.14,188.97c-.6.3-1.44.3-1.74.3.6-.6,1.44-.9,1.74-.3"></path><path id="Fill-254" class="cls-1" d="m589.02,188.67c0-.6.9-.6.6.3l-.6-.3"></path><path id="Fill-259" class="cls-1" d="m593.76,187.77s0,.6.3.6c0,.9-.6.3-.3-.6"></path><path id="Fill-260" class="cls-1" d="m595.2,188.07s.3.3,0,0"></path><path id="Fill-261" class="cls-1" d="m577.02,190.41s.3.3,0,0"></path><path id="Fill-262" class="cls-1" d="m577.62,190.71l.3-.3s-.3,0-.3.3"></path><path id="Fill-263" class="cls-1" d="m577.92,190.41c.3-.9-.3,2.04,0,0"></path><path id="Fill-264" class="cls-1" d="m576.48,190.41c0,.6-.6,0-.9.3.3-.3.9-.6.9-.3"></path><path id="Fill-265" class="cls-1" d="m576.18,190.41c.3-.9.9.3,0,0"></path><path id="Fill-267" class="cls-1" d="m576.48,190.41c0-.9.3.9,0,0"></path><path id="Fill-268" class="cls-1" d="m577.02,190.11s.3.3,0,0"></path><path id="Fill-269" class="cls-1" d="m578.52,190.41s.3.3,0,0"></path><path id="Fill-270" class="cls-1" d="m586.14,188.97c0-.6.9-.6.6.3h-.3l-.3-.3"></path><path id="Fill-271" class="cls-1" d="m587.58,188.97l.3-.3c0,.3-.3.3-.3.3"></path><path id="Fill-272" class="cls-1" d="m587.88,188.67c0-.6.6-.3.9-.3,0,.6-.6.3-.9.3"></path><path id="Fill-274" class="cls-1" d="m590.82,188.37c.6,0,0,1.2,0,0"></path><path id="Fill-275" class="cls-1" d="m591.36,188.67l.3-.3-.3.3"></path><path id="Fill-276" class="cls-1" d="m592.26,188.37l.3-.3c0,.3-.3.3-.3.3"></path><path id="Fill-278" class="cls-1" d="m579.06,190.41c.6.3.3.3.9,0,0,1.2-.9,1.2-.9,0"></path><path id="Fill-279" class="cls-1" d="m579.06,190.71s.3-.3.3,0h-.3"></path><path id="Fill-280" class="cls-1" d="m586.68,189.21s.3-.3.6-.3c0,.3-.3.3-.6.3"></path><path id="Fill-281" class="cls-1" d="m590.82,188.97l.3-.3s-.1.1-.3.3"></path><path id="Fill-283" class="cls-1" d="m591.12,188.67l.3-.3c0,.3-.3.3-.3.3"></path><path id="Fill-285" class="cls-1" d="m594,188.67l.3-.3c0,.3-.3.3-.3.3"></path><path id="Fill-286" class="cls-1" d="m585.24,189.81c-.6,0,0-1.44,0,0"></path><path id="Fill-287" class="cls-1" d="m590.22,188.97s.3.3,0,0"></path><path id="Fill-289" class="cls-1" d="m574.98,191.55h0s0-.6.3-.6c.2,0,.1.2-.3.6"></path><path id="Fill-292" class="cls-1" d="m581.16,191.01c-.6.3,0-.9,0,0"></path><path id="Fill-295" class="cls-1" d="m589.92,189.51c.9-.9,1.44.9,0,0"></path><path id="Fill-296" class="cls-1" d="m586.68,189.51s0,.6.3.6c0,.9-.6,0-.3-.6"></path><path id="Fill-299" class="cls-1" d="m587.88,189.81c0-.6.3-.3,0,0"></path><path id="Fill-300" class="cls-1" d="m590.82,189.51s.3.3,0,0"></path><path id="Fill-302" class="cls-1" d="m589.02,189.51s.3-.3.6-.3c-.3.3-.6.3-.6.3"></path><path id="Fill-304" class="cls-1" d="m513.18,193.35c.3-1.2.3.9,0,0"></path><path id="Fill-305" class="cls-1" d="m574.98,191.31s-.3.3,0,0q.2-.2,0,0"></path><path id="Fill-306" class="cls-1" d="m575.28,191.31c.6-.3,0,.6,0,0"></path><path id="Fill-308" class="cls-1" d="m587.28,189.81c0,.6.6.3.9,0,.3,0,.9.6,1.2.3,0,.9-2.94.9-2.04-.3"></path><path id="Fill-309" class="cls-1" d="m590.82,190.11c0,.9-1.44.6-1.44-.3.6-.3,1.2.3,1.44.3"></path><path id="Fill-310" class="cls-1" d="m588.18,190.11c-.3-1.44.6-.3,0,0"></path><path id="Fill-312" class="cls-1" d="m589.92,189.21s.3.3,0,.9h2.94c-.3,1.2-1.2.3-1.44,0-.9-.6-2.34,1.44-2.94-.3.6,0,1.44.9,1.44-.6"></path><path id="Fill-313" class="cls-1" d="m590.52,190.11c0-.6.6,0,.9-.3.6,0-1.2.6-.3,1.2-.3,1.2-.3-.9-.6-.9"></path><path id="Fill-314" class="cls-1" d="m591.36,190.11c0-.6,1.44-.6.9.6-.3-.6-.6,0-.9-.6"></path><path id="Fill-315" class="cls-1" d="m588.18,189.81c0,1.2,4.08.6,4.08.6,0-1.2-4.38-.3-4.08-.6"></path><path id="Fill-316" class="cls-1" d="m594.6,189.51c.6,1.2-1.2,1.74-1.2,1.2-.3-2.04.9,1.2,1.2-1.2"></path><path id="Fill-317" class="cls-1" d="m594.9,189.81s.3-.3.6-.3c0,.3-.3.3-.6.3"></path><path id="Fill-318" class="cls-1" d="m582,191.55c.6.6-.9,1.2-.6,0h.6"></path><path id="Fill-319" class="cls-1" d="m584.34,191.55s.3.3,0,0"></path><path id="Fill-322" class="cls-1" d="m585.24,190.41h.3v.6h-.3v-.6"></path><path id="Fill-323" class="cls-1" d="m595.8,190.41s-.3,0-.3.3c-.3-.3.3-2.04.3-.3"></path><path id="Fill-325" class="cls-1" d="m577.92,191.55c-.3,1.2-.6,0-.9.6,0,.6.6-.3.6.9-.3-.3-.6-.3-.9-.9,0-.6.6-.6,1.2-.6"></path><path id="Fill-327" class="cls-1" d="m579.66,192.15c.6-.3-1.44,0,0,0"></path><path id="Fill-329" class="cls-1" d="m586.68,191.01c.3-1.44.3.9,0,0"></path><path id="Fill-331" class="cls-1" d="m576.48,192.15c0,.6-.6-.3,0,0"></path><path id="Fill-332" class="cls-1" d="m575.88,192.45s.9-.9,1.2,0c-.3.6-.9.3-1.2,0"></path><path id="Fill-334" class="cls-1" d="m581.46,192.15s.3,0,0,0c.3,0,0,.3,0,0"></path><path id="Fill-336" class="cls-1" d="m583.2,192.15c.3-1.2.3,1.2,0,0"></path><path id="Fill-337" class="cls-1" d="m586.68,191.85s.3.3,0,0"></path><path id="Fill-338" class="cls-1" d="m587.28,191.85l.3-.3c0,.3-.3.3-.3.3"></path><path id="Fill-340" class="cls-1" d="m594.9,190.41s.3-.3.6-.3c0,.3-.3.3-.6.3"></path><path id="Fill-341" class="cls-1" d="m595.8,190.41v-.3s.3.3.6.6c-.3,0-.6-.3-.6-.3"></path><path id="Fill-342" class="cls-1" d="m579.06,192.15h.3c-.3.9-1.2,1.44-1.44.6,0-.6,1.2.3,1.2-.6"></path><path id="Fill-343" class="cls-1" d="m575.88,192.15c0,.9-.6,0,0,0"></path><path id="Fill-344" class="cls-1" d="m575.88,192.45c-.9.3-.3-.9,0,0"></path><path id="Fill-345" class="cls-1" d="m579.66,192.45c0,.9-.3.6-.3,0h.3"></path><path id="Fill-346" class="cls-1" d="m581.46,192.45c0,.6-.9.3-1.2.3,0-.6.9-.6,1.2-.3"></path><path id="Fill-348" class="cls-1" d="m581.46,192.45c0-.6.6-.3.9-.3-.3.6-.6,0-.9.3"></path><path id="Fill-349" class="cls-1" d="m582.6,192.45s0-.3,0,0c.3,0,0-.3,0,0"></path><path id="Fill-350" class="cls-1" d="m582.9,192.15s.3.3,0,0"></path><path id="Fill-354" class="cls-1" d="m595.5,190.41s.3,0,0,0c.3,0,0,.3,0,0"></path><path id="Fill-355" class="cls-1" d="m576.48,192.75c.9-.9,1.2.9,0,0"></path><path id="Fill-356" class="cls-1" d="m575.88,192.45h.3s-.3.3-.3,0"></path><path id="Fill-357" class="cls-1" d="m577.92,192.45c.3-.6-.3.9,0,0"></path><path id="Fill-358" class="cls-1" d="m579.96,192.75s.3-.3,0,0c.3,0,.3-.3,0,0"></path><path id="Fill-359" class="cls-1" d="m585.84,192.45c.3-.9.9.3,0,0"></path><path id="Fill-360" class="cls-1" d="m586.44,192.15s0,1.44-.3,1.2c0-.6.3-.6.3-1.2"></path><path id="Fill-361" class="cls-1" d="m587.58,192.15s.3.3,0,0"></path><path id="Fill-363" class="cls-1" d="m576.18,193.35h-.6c0-.9.6-.6,1.2-.9,0,.9-.6.3-.6.9"></path><path id="Fill-366" class="cls-1" d="m584.04,192.45s.3.3,0,0"></path><path id="Fill-367" class="cls-1" d="m591.66,192.15c.3-1.2,0,1.44,0,0"></path><path id="Fill-368" class="cls-1" d="m579.36,192.75v1.2c-.3,0-.3-.3-.3-.6v.3c-.9-.6.3-.3.3-.9"></path><path id="Fill-369" class="cls-1" d="m581.46,192.75c-.6.9-1.44-.3,0,0"></path><path id="Fill-370" class="cls-1" d="m581.7,192.75c.3.6.3-.3.9,0,0,.3-.9,1.2-.9,0"></path><path id="Fill-372" class="cls-1" d="m591.96,192.45c-.3.9-.6-.9,0,0"></path><path id="Fill-375" class="cls-1" d="m589.02,192.45s-.3.3-.6.3c.3-.3.3-.6.6-.3q.2.2,0,0"></path><path id="Fill-376" class="cls-1" d="m590.22,192.45s-.6,0-.6-.6h.3l.3.6h0"></path><path id="Fill-377" class="cls-1" d="m590.22,192.15c.9,0,0,1.44,0,0"></path><path id="Fill-378" class="cls-1" d="m591.36,192.75s.3-.6.3-.9c.3,0,.3.6.3.6-.3.3-.3.6-.6.3q-.2-.2,0,0"></path><path id="Fill-379" class="cls-1" d="m585.84,193.05c0-.9.6.3,0,0"></path><path id="Fill-380" class="cls-1" d="m588.78,192.45c0,.9,4.08,0,3.78,0,0-.6-4.08,0-3.78,0"></path><path id="Fill-381" class="cls-1" d="m589.02,192.15s1.2-.6,1.2.6c-.6-.6-1.2,1.2-1.2-.6"></path><path id="Fill-382" class="cls-1" d="m590.82,192.45s.3-.3,0,0"></path><path id="Fill-383" class="cls-1" d="m591.96,192.75c0-1.2.6-.3,0,0"></path><path id="Fill-384" class="cls-1" d="m593.46,192.15v.9c-.3-.3,0-.6,0-.9"></path><path id="Fill-385" class="cls-1" d="m593.76,192.45l.3-.3c0,.3-.3,0-.3.3"></path><path id="Fill-386" class="cls-1" d="m577.32,193.89v-.6h.6s-.3.3,0,.9c-.3,0-.3-.3-.6-.3"></path><path id="Fill-387" class="cls-1" d="m577.92,193.65l.3-.3c0,.3-.3.3-.3.3"></path><path id="Fill-389" class="cls-1" d="m575.88,193.05s.6,0,.6.6h-.6v-.6"></path><path id="Fill-391" class="cls-1" d="m587.58,193.05s0-.3,0,0c.3,0,0,0,0,0"></path><path id="Fill-392" class="cls-1" d="m589.62,192.75s-.6.3-.9.6c0-.6.3-.6.9-.6"></path><path id="Fill-393" class="cls-1" d="m590.82,192.75c.6-.9.3,1.2,0,0"></path><path id="Fill-398" class="cls-1" d="m590.82,192.45c0,.6-.3.3,0,0"></path><path id="Fill-399" class="cls-1" d="m592.26,192.45s-.3.3,0,0"></path><path id="Fill-402" class="cls-1" d="m591.96,193.05c.3-.9.3,1.2,0,0"></path><path id="Fill-405" class="cls-1" d="m595.2,193.65s0-.3,0,0c.3,0,0,0,0,0"></path><path id="Fill-406" class="cls-1" d="m584.34,194.49c.3-1.2.3,1.2,0,0"></path><path id="Fill-407" class="cls-1" d="m584.64,194.49c.3-1.2.3,1.2,0,0"></path><path id="Fill-409" class="cls-1" d="m584.94,194.79s.3-.3.6-.3c0,.3-.3.3-.6.3"></path><path id="Fill-412" class="cls-1" d="m591.36,193.65c.6.6.9-.3,1.44,0,0,.6-.6.3-.3.6,0,0-1.2.6-1.2-.6"></path><path id="Fill-414" class="cls-1" d="m590.52,194.49c.3-.9.3,1.2,0,0"></path><path id="Fill-415" class="cls-1" d="m589.62,194.19h.3v.6h-.3v-.6"></path><path id="Fill-416" class="cls-1" d="m581.16,195.09c0-.6.9-.3,1.2-.3-.3.6-.9,0-1.2.3"></path><path id="Fill-417" class="cls-1" d="m583.8,194.79s-.3-.3,0,0"></path><path id="Fill-419" class="cls-1" d="m593.16,194.49s.3.3,0,0"></path><path id="Fill-420" class="cls-1" d="m578.82,195.69c0-.9.6-.3.9-.6,0,1.2-.6-.3-.9.6"></path><path id="Fill-421" class="cls-1" d="m582.6,195.09s.3-.3,0,0q-.2.2,0,0"></path><path id="Fill-422" class="cls-1" d="m583.5,194.79s.3,0,0,0c.3.3,0,.3,0,0"></path><path id="Fill-423" class="cls-1" d="m591.66,194.79c-.6.3-.3-.9,0,0"></path><path id="Fill-425" class="cls-1" d="m583.8,195.09c1.2-.6.3.9,0,0"></path><path id="Fill-426" class="cls-1" d="m585.54,195.09s.3-.3,0,0q-.2.2,0,0"></path><path id="Fill-427" class="cls-1" d="m585.84,195.09s.9.3,1.44,0c0,.3-.3.3-.3.9-.3-1.2-1.2.3-1.2-.9"></path><path id="Fill-428" class="cls-1" d="m587.88,195.09s.3-.3,0,0"></path><path id="Fill-430" class="cls-1" d="m592.56,194.79l.3-.3s-.1.1-.3.3"></path><path id="Fill-431" class="cls-1" d="m580.56,195.39s.3.3,0,0"></path><path id="Fill-434" class="cls-1" d="m584.64,195.39l.3-.3s-.1.1-.3.3"></path><path id="Fill-435" class="cls-1" d="m586.14,195.09s-.9.6-.9.3c0-.6.6,0,.9-.3"></path><path id="Fill-437" class="cls-1" d="m586.44,194.79c.6-.3,0,.9,0,0"></path><path id="Fill-439" class="cls-1" d="m590.22,194.79s.3.6.6.6c-.3.6-.9,0-.6-.6"></path><path id="Fill-440" class="cls-1" d="m573.24,197.43s3.78-1.2,4.08-.3l-4.08.3"></path><path id="Fill-441" class="cls-1" d="m582.6,195.99l.3-.3c.3.3,0,.3-.3.3"></path><path id="Fill-445" class="cls-1" d="m591.36,195.39s0-.3.3-.3c0,.3-.3.3-.3.3"></path><path id="Fill-446" class="cls-1" d="m512.64,198.33s.3.3,0,0"></path><path id="Fill-449" class="cls-1" d="m585.24,195.99c0-.9.6,0,.6.9-.3,0-.3-.9-.6-.9"></path><path id="Fill-451" class="cls-1" d="m587.58,195.99l.3-.3s-.1.1-.3.3"></path><path id="Fill-452" class="cls-1" d="m586.14,196.29c-.6.3,0-.9,0,0"></path><path id="Fill-453" class="cls-1" d="m585.84,196.29s.3-.6.6,0c0,.3-.6,1.2-.6,0"></path><path id="Fill-454" class="cls-1" d="m512.94,198.87h.6c.3.9-.6.3-.3,1.2-.6-.3-.3-.9-.3-1.2"></path><path id="Fill-455" class="cls-1" d="m586.98,196.29c0,.6-.3.6-.6.6,0-.9.3-.6.6-.6"></path><path id="Fill-456" class="cls-1" d="m586.98,196.29s.6,0,.3.6h-.3v-.6"></path><path id="Fill-457" class="cls-1" d="m587.88,196.29s-.3-.3,0,0"></path><path id="Fill-458" class="cls-1" d="m589.32,196.53c-.9.3-.3-1.2,0,0"></path><path id="Fill-460" class="cls-1" d="m588.18,196.53l.3-.3c0,.3-.3.3-.3.3"></path><path id="Fill-461" class="cls-1" d="m588.48,196.53l.3-.3c0,.3-.3.3-.3.3"></path><path id="Fill-463" class="cls-1" d="m580.56,197.13s.3-.3.3,0h-.3"></path><path id="Fill-464" class="cls-1" d="m590.82,196.53s.3-.3.3,0,0,0-.3,0"></path><path id="Fill-466" class="cls-1" d="m583.5,197.13s.3.3,0,0"></path><path id="Fill-467" class="cls-1" d="m585.24,196.83s.3.3,0,0"></path><path id="Fill-468" class="cls-1" d="m586.98,197.43c0,.6-.6,0-.9.3.3-.9.3,0,.9-.3"></path><path id="Fill-471" class="cls-1" d="m586.14,198.03s.3.3,0,0"></path><path id="Fill-472" class="cls-1" d="m587.58,197.73h.3c0,.6-.3.6-.3.6-.3-.3,0-.3,0-.6"></path><path id="Fill-473" class="cls-1" d="m587.88,197.73l.3-.3c0,.3-.3.3-.3.3"></path><path id="Fill-477" class="cls-1" d="m584.04,198.87c-.3-1.44.6.3,0,0"></path><path id="Fill-478" class="cls-1" d="m584.34,198.87l.3-.3c0,.3-.3,0-.3.3"></path><path id="Fill-479" class="cls-1" d="m584.64,198.87s.3,0,0,0c-.2,0-.1.2.3.6h-.3v-.6"></path><path id="Fill-481" class="cls-1" d="m588.78,198.87c.3-.9.3.9.9.3,0,.6-.6.3-.9.3-.3-.3,0-.3,0-.6h0"></path><path id="Fill-482" class="cls-1" d="m589.32,198.63c.6,0,.9.3,1.2,0,.6.3,0,.6,0,1.2-.3-.3-.6-.3-1.2-.3v-.9"></path><path id="Fill-483" class="cls-1" d="m584.04,199.47l.3-.3c.3,0,0,0-.3.3"></path><path id="Fill-484" class="cls-1" d="m585.24,199.17l.3-.3c0,.3-.3.3-.3.3"></path><path id="Fill-487" class="cls-1" d="m578.82,199.77s0,.6.3.9c-.6-.3-.3,0-.9-.3,0-.6.9.3.6-.6"></path><path id="Fill-488" class="cls-1" d="m580.26,200.37c-1.74.9-2.34,0-4.38.3,1.44-1.2,3.24-.6,4.38-.3,0-.3,0,0,0,0"></path><path id="Fill-493" class="cls-1" d="m585.84,200.37c-1.44.6-2.94,0-4.68,0,1.44-.6,2.94-.6,4.68,0"></path><path id="Fill-494" class="cls-1" d="m580.26,200.37c1.2-.6.6.6,0,0"></path><path id="Fill-495" class="cls-1" d="m585.84,200.37s.6-.6.6-.3c0,.6-.3.9-.6.3"></path><path id="Fill-497" class="cls-1" d="m584.64,181.05l.3-.3c0,.3-.3.3-.3.3"></path><path id="Fill-498" class="cls-1" d="m584.94,181.05l.3-.3s-.1.1-.3.3"></path><path id="Fill-501" class="cls-1" d="m583.5,181.05s-.3-.3,0,0"></path><path id="Fill-503" class="cls-1" d="m576.72,201.51s0-.3,0,0c.3,0,0,0,0,0"></path><path id="Fill-504" class="cls-1" d="m580.86,182.79c.3.9,2.34.9,2.34.6,0-1.44-2.34.6-2.34-.6"></path><path id="Fill-506" class="cls-1" d="m574.38,201.27c.6-.3,0,1.2,0,0"></path><path id="Fill-507" class="cls-1" d="m573.84,201.51s.3.3.6.3c0,.6-.6,0-.6-.3h0"></path><path id="Fill-509" class="cls-1" d="m575.28,201.51h.3v.6h-.3s.3-.3,0-.6"></path><path id="Fill-510" class="cls-1" d="m583.5,181.89c.3-1.2.3,1.2,0,0"></path><path id="Fill-514" class="cls-1" d="m584.64,181.89c0-.9.6.3,0,0"></path><path id="Fill-516" class="cls-1" d="m574.38,202.41s.6-.3.9-.6c-.3.9-.9.9-.9.6"></path><path id="Fill-518" class="cls-1" d="m584.94,182.19l.3-.3s-.1.1-.3.3"></path><path id="Fill-519" class="cls-1" d="m584.94,181.89c0,.6-.6.6-1.2.6,0-1.2.9-.6,1.2-.6"></path><path id="Fill-520" class="cls-1" d="m586.14,182.19h0s-.3.3-.6.3v-.9s.9,0,.6.6c.3,0,0,0,0,0"></path><path id="Fill-521" class="cls-1" d="m581.7,184.23s-.3-.3,0,0"></path><path id="Fill-522" class="cls-1" d="m584.94,181.89l.3.3c-.6,1.2,3.24,0,3.78.6-.3.6-1.2.6-1.74.6-1.2,0-2.34-.3-3.24,0,.3-.9.9-1.2,1.2-.9-.6,0-.3-.3-.3-.6"></path><path id="Fill-523" class="cls-1" d="m586.44,182.19c.3-1.2.3,1.2,0,0"></path><path id="Fill-525" class="cls-1" d="m575.58,202.71s.3.9.6.9c0,.6-2.34-.3-2.34.6-.3-.9,1.74-.9,1.74-1.44"></path><path id="Fill-527" class="cls-1" d="m585.24,182.49s.3-.3.6-.3c0,.3-.3.3-.6.3"></path><path id="Fill-528" class="cls-1" d="m586.98,182.19s.3.3,0,0"></path><path id="Fill-531" class="cls-1" d="m574.68,203.31c-.6.3,0-.9,0,0"></path><path id="Fill-532" class="cls-1" d="m575.28,203.01s-.6,1.74-.9.3c.3-.3.6-.3.9-.3"></path><path id="Fill-533" class="cls-1" d="m589.92,182.79s-.3.6-.3.9c-.6-.3-.3-1.44.3-1.44v.6"></path><path id="Path" class="cls-1" d="m592.26,182.79h0s0,.3,0,0c0,0,0-.3.3-.3,1.44.9,2.34,0,3.24.9,0,0,0-.3.3-.6.3.3.3.6,0,.9-1.44-.3-2.34,0-3.54,0,0,.6-.9,0-.6-.3-2.04,0,.9-.3-1.74,0,0-.6.3-.3.3-.9.3,1.2,1.44.6,2.04,0,1.74.6-1.74.6-.3.3-.3,0,0,0,0,0Z"></path><path id="Fill-535" class="cls-1" d="m591.36,182.49s.3-.3,0,0q-.2.2,0,0"></path><path id="Fill-536" class="cls-1" d="m576.48,203.31c-.6.3,0-.6,0,0"></path><path id="Fill-537" class="cls-1" d="m573.54,203.31c-.3.6-1.44.6-1.74,1.2-.3-.3-.6,0-.6-.9.3-.3,2.04,0,2.34-.3"></path><path id="Fill-539" class="cls-1" d="m583.2,183.39c.3-1.2.3.9,0,0"></path><path id="Fill-540" class="cls-1" d="m589.62,182.79s.3.3.6.3c0,.3-.3.6-.6.6v-.9"></path><path id="Fill-541" class="cls-1" d="m572.34,203.85c.6-1.2.3.9,0,0"></path><path id="Fill-542" class="cls-1" d="m584.64,183.69c-.3-.6,0-.3,0,0"></path><path id="Fill-543" class="cls-1" d="m574.98,203.61s1.44-.3,1.74-.3c-.3.3-1.74.3-1.74.3"></path><path id="Fill-544" class="cls-1" d="m575.28,203.85c0-.9.6.3.3.9l-.3-.9"></path><path id="Fill-546" class="cls-1" d="m583.8,183.69l.3-.3c0,.3-.3.3-.3.3"></path><path id="Fill-547" class="cls-1" d="m584.64,183.39c0,.6-.3.3,0,0"></path><path id="Fill-549" class="cls-1" d="m584.94,183.69l.3-.3c.3.3,0,.3-.3.3"></path><path id="Fill-550" class="cls-1" d="m586.44,183.39s.3.3,0,0"></path><path id="Fill-551" class="cls-1" d="m573.84,203.61c0,.6-.3.6-.6.6,0-.9.3-.3.6-.6"></path><path id="Fill-552" class="cls-1" d="m583.8,183.99s-.6.6-.9.6c0-.3,2.94-.6,2.94-.6,0-.6-2.64,0-2.04,0"></path><path id="Fill-553" class="cls-1" d="m588.48,183.69s.3-.3,0,0c.3,0,0,0,0,0"></path><path id="Fill-554" class="cls-1" d="m573.24,204.15s0-.3,0,0c.3,0,0,0,0,0"></path><path id="Fill-555" class="cls-1" d="m597.24,189.81c.3-1.2.6.9,0,0"></path><path id="Fill-558" class="cls-1" d="m596.34,183.69v-.9s.3.3.6.3c0,.6-.6,1.2-.6.6"></path><path id="Fill-562" class="cls-1" d="m592.86,183.69s.3-.3.6-.3c-.3.3-.6.3-.6.3"></path><path id="Fill-564" class="cls-1" d="m594,183.69s.3-.3,0,0q-.2.2,0,0"></path><path id="Fill-568" class="cls-1" d="m596.1,183.69l.3-.3c0,.3-.3.3-.3.3"></path><path id="Fill-569" class="cls-1" d="m597.24,183.39s.3.3,0,0"></path><path id="Fill-570" class="cls-1" d="m592.56,183.99l.3-.3c.3.3,0,.3-.3.3"></path><path id="Fill-576" class="cls-1" d="m560.64,217.95l.3-.3c0,.3-.3,0-.3.3"></path><path id="Fill-577" class="cls-1" d="m554.22,217.05c.6-1.2.6.6,0,0"></path><path id="Fill-578" class="cls-1" d="m556.86,216.75c0-.6,0-.3,0,.3-.3,0,.3-.3,0-.3"></path><path id="Fill-581" class="cls-1" d="m553.62,217.05s.3.3,0,0"></path></g></svg> 