<?xml version="1.0" encoding="UTF-8"?> <svg xmlns="http://www.w3.org/2000/svg" xmlns:xlink="http://www.w3.org/1999/xlink" id="Layer_3" width="100" height="56.15" viewBox="0 0 100 56.15"><defs><style>.cls-1{fill:url(#linear-gradient);}.cls-2{fill:#a4cf57;}.cls-3{fill:#13a89e;}.cls-4{fill:#24a6de;}.cls-5{fill:url(#linear-gradient-8);}.cls-6{fill:url(#linear-gradient-9);}.cls-7{fill:url(#linear-gradient-3);}.cls-8{fill:url(#linear-gradient-4);}.cls-9{fill:url(#linear-gradient-2);}.cls-10{fill:url(#linear-gradient-6);}.cls-11{fill:url(#linear-gradient-7);}.cls-12{fill:url(#linear-gradient-5);}</style><linearGradient id="linear-gradient" x1="68.37" y1="5.11" x2="65.47" y2="21.58" gradientUnits="userSpaceOnUse"><stop offset="0" stop-color="#a4cf57"></stop><stop offset="1" stop-color="#13a89e"></stop></linearGradient><linearGradient id="linear-gradient-2" x1="57.02" y1="6.28" x2="57.02" y2="20.15" xlink:href="#linear-gradient"></linearGradient><linearGradient id="linear-gradient-3" x1="45.83" y1="16.97" x2="57" y2="23.42" gradientUnits="userSpaceOnUse"><stop offset="0" stop-color="#77be5b"></stop><stop offset=".21" stop-color="#5bb76d"></stop><stop offset=".56" stop-color="#34af87"></stop><stop offset=".83" stop-color="#1ba997"></stop><stop offset="1" stop-color="#13a89e"></stop></linearGradient><linearGradient id="linear-gradient-4" x1="80.64" y1="20.93" x2="67.81" y2="20.93" gradientUnits="userSpaceOnUse"><stop offset="0" stop-color="#65b770"></stop><stop offset=".09" stop-color="#5bb575"></stop><stop offset=".49" stop-color="#34ae8b"></stop><stop offset=".8" stop-color="#1ba998"></stop><stop offset="1" stop-color="#13a89e"></stop></linearGradient><linearGradient id="linear-gradient-5" x1="62.16" y1="0" x2="62.16" y2="9.67" xlink:href="#linear-gradient"></linearGradient><linearGradient id="linear-gradient-6" x1="49.18" y1="30.04" x2="57.31" y2="25.35" gradientUnits="userSpaceOnUse"><stop offset="0" stop-color="#76bd5d"></stop><stop offset="1" stop-color="#13a89e"></stop></linearGradient><linearGradient id="linear-gradient-7" x1="75.93" y1="27.77" x2="67.77" y2="27.77" gradientUnits="userSpaceOnUse"><stop offset="0" stop-color="#76bd5d"></stop><stop offset=".2" stop-color="#5bb76e"></stop><stop offset=".55" stop-color="#34af88"></stop><stop offset=".83" stop-color="#1ba998"></stop><stop offset="1" stop-color="#13a89e"></stop></linearGradient><linearGradient id="linear-gradient-8" x1="71.99" y1="15.11" x2="79.45" y2="10.81" gradientUnits="userSpaceOnUse"><stop offset="0" stop-color="#13a89e"></stop><stop offset=".23" stop-color="#1ba999"></stop><stop offset=".6" stop-color="#34ad8d"></stop><stop offset="1" stop-color="#56b37d"></stop></linearGradient><linearGradient id="linear-gradient-9" x1="45.81" y1="9.94" x2="51.81" y2="15.94" gradientUnits="userSpaceOnUse"><stop offset="0" stop-color="#64b671"></stop><stop offset="1" stop-color="#13a89e"></stop></linearGradient></defs><path class="cls-2" d="m8.81,34.47c.09-.03.1-.1.1-.17,0-.2,0-.4,0-.6,0-.3,0-.6,0-.89,0-.11,0-.22.08-.32.1-.06.21-.04.31-.02.23.04.47.08.7.13.49.09.97.19,1.46.29.41.08.42.16.42.48,0,1.9,0,3.8-.01,5.7,0,.05,0,.1,0,.15-.07.26-.04.53-.04.8,0,.9,0,1.81,0,2.71,0,.85-.12,1.68-.38,2.49-.24.75-.64,1.41-1.24,1.93-.37.32-.8.56-1.26.73-.54.21-1.1.3-1.68.37-.61.07-1.21.05-1.82.04-.3,0-.61-.07-.91-.1-.34-.03-.67-.1-.99-.18-.62-.15-1.21-.38-1.77-.7-.13-.07-.25-.16-.34-.23-.07-.14-.04-.25-.02-.36.09-.48.19-.95.28-1.43.02-.13.05-.25.09-.39.07,0,.13-.03.17-.02.08.03.16.08.24.12.45.23.9.47,1.39.62.47.15.95.26,1.45.33.43.06.85.07,1.28.04.64-.05,1.25-.24,1.77-.64.42-.33.7-.75.79-1.29.06-.36.07-.71,0-1.06-.02-.12,0-.24-.01-.36,0-.05-.02-.09-.03-.14,0,0-.02,0-.04-.02-.03.03-.06.06-.1.09-.45.5-.97.91-1.59,1.18-.39.17-.8.28-1.23.33-.24.03-.47.06-.71.04-.79-.04-1.56-.17-2.27-.55-.41-.22-.8-.48-1.13-.82-.31-.31-.6-.63-.84-1-.38-.59-.62-1.24-.77-1.92-.15-.68-.16-1.36-.1-2.05.08-.94.34-1.83.83-2.65.33-.55.75-1.02,1.23-1.45.38-.34.83-.57,1.31-.76.35-.14.72-.22,1.09-.28.1-.02.2-.01.3-.01.26,0,.52,0,.78,0,.61.01,1.17.19,1.7.48.5.27.88.67,1.24,1.1.09.11.17.22.31.26Zm-2.84,7.48c.1-.01.29-.03.47-.06.46-.07.87-.28,1.22-.58.82-.72,1.2-1.64,1.25-2.7.01-.23-.01-.45-.04-.68-.07-.58-.24-1.12-.57-1.61-.22-.32-.47-.62-.79-.84-.64-.45-1.36-.56-2.1-.45-.7.1-1.27.45-1.71,1-.53.68-.79,1.46-.83,2.31-.02.43.04.85.16,1.26.19.68.54,1.25,1.07,1.71.51.45,1.11.63,1.87.65Z"></path><path class="cls-3" d="m90.45,43.59c-.05.07-.1.12-.11.17-.03.15-.05.31-.07.47-.02.2-.04.39-.07.59,0,.06-.05.13-.08.19-.33.04-.64.01-.96.02-.31,0-.62,0-.93,0-.32,0-.63,0-.96,0-.01-.08-.03-.14-.02-.19.06-.43.09-.87.11-1.3.02-.41.03-.81.05-1.22,0-.18,0-.36.01-.54,0-.25-.02-.5.04-.74.01-.06,0-.12,0-.18,0-1.15.01-2.31.01-3.46,0-.76,0-1.51-.02-2.27-.02-.44-.04-.87-.04-1.31,0-.07,0-.14,0-.21,0-.23,0-.45-.04-.68-.03-.26-.02-.54-.02-.8,0-.21-.01-.41-.04-.62-.03-.27-.02-.54-.03-.8-.02-.49-.04-.97-.06-1.46-.01-.21-.04-.41-.05-.62,0-.1-.01-.2.05-.29.07-.07.16-.11.27-.11.1,0,.2-.02.3,0,.4.02.79-.05,1.19-.06.23,0,.45-.06.68-.09.25-.03.49-.05.76,0,.02.07.04.13.04.2,0,.34.03.67-.03,1.01-.03.14-.01.3-.02.45-.01.16-.03.32-.05.47,0,.03-.01.06-.01.09,0,.4,0,.79-.04,1.19-.03.3,0,.6-.03.89-.05.45-.02.89-.05,1.34,0,.14,0,.28.02.42.01.1.06.19.19.22.04-.03.09-.06.13-.1.07-.07.14-.15.2-.22.66-.77,1.49-1.24,2.47-1.44.2-.04.39-.07.59-.07.07,0,.14-.02.21-.02.13,0,.26-.03.39-.02.32.03.63.06.94.11.98.16,1.83.58,2.56,1.24.84.77,1.42,1.7,1.76,2.79.14.47.23.94.29,1.43.06.53.04,1.05.03,1.58,0,.14-.04.28-.06.41-.08.58-.24,1.15-.47,1.69-.15.36-.34.7-.56,1.02-.56.81-1.25,1.49-2.12,1.96-.23.13-.49.23-.74.31-.32.1-.65.17-.99.22-.28.04-.55.05-.83.04-.68-.02-1.34-.14-1.97-.4-.46-.19-.85-.46-1.22-.78-.18-.16-.36-.3-.58-.48Zm3.14-.87c.88,0,1.59-.25,2.14-.71.99-.83,1.61-2.22,1.41-3.65-.04-.31-.09-.63-.21-.93-.17-.45-.4-.86-.71-1.24-.79-.97-1.79-1.4-3.05-1.21-.57.09-1.07.32-1.5.68-.67.57-1.13,1.27-1.33,2.14-.13.55-.17,1.09-.09,1.65.13.9.52,1.66,1.16,2.3.64.64,1.41.94,2.17.96Z"></path><path class="cls-1" d="m67.87,5.02c.09.1.17.2.25.3.7.96,1.31,1.97,1.78,3.06.31.7.57,1.42.75,2.16.1.4.18.81.23,1.23.03.26.05.51.06.77,0,.07.02.14.02.21,0,.15.04.3.01.44-.04.2-.03.4-.04.59-.03.53-.13,1.04-.27,1.55-.23.86-.6,1.66-1.09,2.4-.3.47-.64.91-1.02,1.31-.19.19-.35.4-.55.59-.45.41-.9.8-1.4,1.15-.29.21-.59.4-.89.6-.03.02-.07.03-.12.06-.03-.22-.03-.41,0-.61,0-.05.02-.1.03-.15.03-.41.05-.81.08-1.22.02-.32.06-.63.09-.95.02-.23.05-.45.07-.68.1-1.08.28-2.14.5-3.2.09-.44.23-.86.35-1.29.03-.1.06-.21.1-.31-.09,0-.1.06-.12.11-.32.64-.64,1.28-.94,1.93-.46.99-.85,2.01-1.16,3.06-.19.63-.33,1.27-.43,1.91-.04.23-.05.47-.06.71,0,.19.01.37.02.57-.06-.02-.06-.08-.09-.12-.03-.05-.07-.1-.09-.15-.36-.66-.64-1.35-.85-2.06-.14-.47-.26-.94-.33-1.42-.03-.2-.07-.39-.09-.59-.05-.46-.08-.93-.08-1.4,0-.84.1-1.66.27-2.48.2-.94.52-1.83.93-2.7.53-1.13,1.21-2.16,1.98-3.14.63-.8,1.34-1.52,2.07-2.23,0,0,.02-.01.06-.04Z"></path><path class="cls-2" d="m24.91,40.27c.08.5.27.92.59,1.28.3.34.64.65,1.05.87.35.19.72.33,1.11.42.38.09.77.09,1.16.05.62-.06,1.23-.21,1.81-.46.61-.26,1.14-.63,1.66-1.04.05-.04.11-.07.16-.1.03,0,.04,0,.05.01,0,0,.02.01.02.02.02.02.04.05.05.07.29.54.57,1.09.85,1.61,0,.15-.07.23-.15.31-.46.48-.95.9-1.53,1.22-.53.29-1.08.5-1.67.63-.43.09-.88.17-1.33.15-.16,0-.32,0-.48,0-.67.01-1.32-.1-1.97-.28-.6-.17-1.16-.42-1.67-.78-.3-.21-.6-.43-.85-.7-.51-.54-.91-1.15-1.2-1.84-.22-.54-.35-1.11-.43-1.7-.08-.62-.08-1.23-.03-1.84.06-.8.27-1.56.63-2.28.23-.46.49-.89.81-1.28.48-.6,1.05-1.1,1.72-1.5.57-.34,1.19-.54,1.84-.65.42-.07.85-.11,1.28-.06.45.04.9.11,1.34.25.43.14.83.33,1.2.58.46.3.86.67,1.21,1.1.21.26.42.53.59.82.35.59.56,1.22.69,1.89.04.2.05.39.07.59.02.21.06.41.05.62-.01.25-.06.49-.18.71-.15.3-.41.47-.71.54-.31.08-.63.1-.94.14-.28.04-.57.07-.85.1-.02,0-.04,0-.06,0-.31.02-.61.05-.92.07-.33.03-.67.07-1,.1-.02,0-.04,0-.06,0-.31.02-.61.04-.92.07-.42.04-.85.04-1.27.11,0,0-.02,0-.03,0-.39.02-.77.05-1.16.07-.17,0-.33.04-.52.09Zm.9-2.14s0,0,0-.01c.2,0,.4.03.59,0,.2-.04.39-.03.59-.05.2-.02.39-.04.59-.05.29-.02.57-.04.86-.07.18-.02.35-.04.53-.07.23-.03.47-.06.7-.1.21-.04.43-.07.64-.12.21-.05.28-.15.25-.37-.02-.16-.06-.31-.1-.46-.13-.5-.41-.9-.78-1.24-.54-.5-1.15-.8-1.91-.77-.5.02-.95.15-1.38.42-.26.16-.47.37-.68.58-.54.55-.85,1.19-.86,1.96,0,.19.05.28.22.33.07.02.16.03.23.03.16,0,.32,0,.48,0Z"></path><path class="cls-2" d="m37.69,40.27c.06.49.25.89.54,1.23.6.71,1.35,1.19,2.28,1.34.43.07.85.06,1.27,0,.25-.03.49-.07.73-.13.61-.15,1.18-.41,1.71-.74.3-.19.59-.4.86-.63.03-.02.06-.04.1-.07.04.03.08.04.1.07.04.05.07.1.1.15.22.41.44.83.65,1.24.06.11.1.23.15.36-.06.08-.11.16-.17.22-.37.4-.78.77-1.25,1.05-.43.26-.89.49-1.38.64-.37.11-.75.18-1.13.25-.59.09-1.19.06-1.79.04-.29,0-.59-.07-.88-.13-.58-.11-1.13-.3-1.65-.58-.35-.19-.68-.41-.99-.66-.46-.37-.83-.82-1.15-1.32-.3-.48-.54-.99-.69-1.55-.17-.64-.27-1.28-.25-1.94,0-.2,0-.4,0-.6,0-.51.08-1.01.22-1.5.24-.89.67-1.7,1.25-2.42.54-.68,1.19-1.25,1.98-1.64.5-.25,1.03-.42,1.58-.5.41-.06.83-.1,1.25-.06.92.08,1.79.32,2.57.85.62.42,1.14.93,1.56,1.54.49.71.8,1.5.93,2.36.03.2.05.39.06.59,0,.04,0,.08.01.12.09.29.03.58-.04.85-.12.43-.42.72-.87.81-.31.06-.63.09-.94.13-.27.04-.55.07-.82.1-.02,0-.04,0-.06,0-.32.02-.64.02-.95.08-.32.06-.66.02-.97.1,0,0-.02,0-.03,0-.31.02-.61.04-.92.07-.42.04-.85.04-1.27.11,0,0-.02,0-.03,0-.39.02-.77.05-1.16.07-.17,0-.33.04-.52.08Zm-.07-2.48c.04.25.2.33.41.34.05,0,.1,0,.15,0,.41-.03.81.01,1.22-.05.3-.05.61-.02.92-.07.29-.04.59-.05.89-.07.03,0,.06-.01.09-.01.23-.03.45-.07.68-.09.22-.03.43-.04.65-.08.16-.02.31-.06.46-.1.1-.02.19-.06.25-.15,0-.03.02-.05.02-.08-.01-.11-.03-.21-.04-.32-.04-.33-.16-.63-.34-.91-.17-.27-.38-.51-.62-.72-.34-.28-.71-.5-1.15-.6-.23-.05-.45-.05-.68-.05-.46,0-.88.15-1.27.37-.3.17-.53.41-.77.65-.47.49-.77,1.05-.82,1.74,0,.07-.02.14-.04.21Z"></path><path class="cls-2" d="m50.69,33.01c.11.06.1.16.11.26.04.46.13.9.25,1.34,0,.03.03.05.05.1.05-.01.11-.02.15-.04.23-.17.46-.34.69-.51.26-.19.53-.39.8-.58.53-.37,1.1-.62,1.73-.77.27-.07.54-.11.82-.11.19,0,.38,0,.57,0,.63.04,1.24.16,1.8.46.58.31.98.77,1.21,1.38.22.57.3,1.17.36,1.77.06.66.02,1.31.04,1.96,0,.15,0,.3-.04.44-.02.07-.01.16-.01.24,0,.77,0,1.53,0,2.3,0,.11.02.22.03.32,0,.08.02.16.02.24,0,.94,0,1.89.01,2.83,0,.11.02.22-.05.32-.08.08-.19.05-.28.05-.64,0-1.27,0-1.91,0-.18,0-.36,0-.5,0-.15-.08-.17-.18-.17-.3,0-.25,0-.5,0-.75,0-.22,0-.44,0-.66,0-.22-.02-.44.04-.65.01-.05,0-.1,0-.15,0-1.6,0-3.2,0-4.8-.06-.48-.06-.97-.22-1.44-.16-.48-.47-.8-.93-.98-.42-.16-.85-.22-1.29-.18-.29.03-.56.13-.82.25-.45.21-.88.46-1.28.76-.19.15-.36.32-.52.49-.15.16-.22.37-.22.6,0,.94,0,1.89,0,2.83,0,1.48,0,2.96,0,4.44,0,.17,0,.34-.11.5-.07,0-.14.02-.2.02-.75,0-1.49,0-2.24,0-.3,0-.35-.06-.35-.35,0-.65,0-1.29,0-1.94,0-.22,0-.44,0-.66,0-.13.03-.26.03-.38,0-.1.01-.2.01-.3,0-.68,0-1.35,0-2.03,0-.42,0-.83,0-1.25,0-.23.02-.46-.04-.68,0-.03,0-.06,0-.09,0-.46-.07-.91-.11-1.36-.06-.6-.18-1.2-.31-1.79-.03-.14-.07-.27-.1-.4-.02-.09-.04-.18.01-.27.07-.06.17-.09.27-.1.43-.07.86-.13,1.29-.19.29-.05.58-.11.88-.15.17-.03.33-.04.5-.06Z"></path><path class="cls-3" d="m82.27,43.18c-.1-.01-.16.07-.22.12-.3.26-.62.5-.95.72-.49.33-1.01.59-1.57.79-.31.11-.63.18-.95.23-.3.04-.59.05-.89.04-.64-.02-1.27-.11-1.85-.38-.75-.34-1.29-.88-1.6-1.64-.2-.5-.32-1.02-.38-1.56-.01-.14-.03-.28-.05-.41-.06-.45-.05-.91-.08-1.37-.04-.54-.03-1.07-.03-1.61,0-.14.02-.28.03-.41,0-.09,0-.18.01-.27,0-.28,0-.56.02-.83.06-.63.09-1.27.21-1.89.07-.36.13-.72.2-1.08.02-.09.04-.17.08-.26.07-.16.18-.25.37-.25.41,0,.82-.03,1.22,0,.34.03.67.03,1.01.04.02,0,.04,0,.06.01.07.04.11.11.11.2,0,.14,0,.28,0,.42-.06.53-.15,1.06-.2,1.59-.05.55-.14,1.1-.15,1.66-.02.6-.03,1.19-.03,1.79,0,.51.05,1.01.09,1.51.03.33.08.65.19.96.16.48.46.85.89,1.12.23.14.49.22.75.28.33.08.67.08,1.01.06.29-.01.56-.12.82-.25.46-.22.88-.51,1.27-.83.21-.17.39-.36.54-.59.16-.25.27-.51.27-.81,0-.35,0-.7.01-1.04,0-.14.02-.28.03-.41,0-.11.01-.22.01-.33,0-1.53,0-3.06,0-4.59,0-.12,0-.24.02-.36.04-.29.19-.41.46-.4.53,0,1.05,0,1.58,0,.17,0,.34,0,.51,0,.08,0,.16.01.21.02.14.1.16.23.17.36,0,.2,0,.4,0,.6,0,.2-.01.4-.01.6,0,.31,0,.62-.04.92-.03.2-.01.4-.02.6-.04,1.04-.08,2.08-.06,3.13.01.73,0,1.45.02,2.18.02.4.03.79.04,1.19,0,.49,0,.97.02,1.46,0,.1-.01.2.01.3.04.15,0,.27-.05.4-.09.1-.2.12-.33.12-.75,0-1.49,0-2.24.01-.07,0-.14-.02-.2-.02-.11-.15-.12-.31-.13-.47-.01-.21,0-.42-.02-.63-.01-.18-.03-.36-.06-.53-.01-.07-.02-.16-.11-.21Z"></path><path class="cls-9" d="m59.23,20.15c-.11.02-.19-.04-.28-.08-.74-.35-1.43-.77-2.08-1.28-.45-.35-.86-.74-1.24-1.16-.47-.51-.88-1.07-1.24-1.67-.4-.67-.72-1.37-.97-2.11-.2-.59-.35-1.2-.45-1.82-.07-.45-.13-.9-.18-1.36-.02-.22-.02-.44-.02-.66,0-.51,0-1.01.02-1.52.01-.31.05-.61.09-.92.04-.37.09-.75.14-1.12,0-.06.03-.11.04-.18.06,0,.11,0,.15.02,1.07.29,2.09.71,3.06,1.24.43.23.85.48,1.23.78.26.2.54.38.78.59.49.42.95.88,1.34,1.39.49.65.89,1.34,1.16,2.11.17.5.31,1.01.38,1.53.07.47.09.95.08,1.43-.03,1.29-.31,2.54-.73,3.75-.01.04-.03.07-.04.11-.03.07-.06.15-.09.22-.09,0-.11-.08-.15-.13-.51-.75-.98-1.52-1.45-2.29-.41-.68-.8-1.37-1.16-2.08-.33-.67-.65-1.34-.89-2.05-.02-.06,0-.14-.1-.17-.02.23.04.45.08.68.16.87.35,1.73.58,2.58.25.92.56,1.82.98,2.68.22.46.48.89.79,1.29.05.06.09.13.14.2h0Z"></path><path class="cls-3" d="m60.68,23.86c.05-.04.09-.09.15-.11.41-.18.83-.33,1.27-.44.36-.09.71-.06,1.06.04.34.09.66.22.98.37.08.04.17.07.22.18.03.12,0,.27,0,.42-.02.25-.03.5-.04.74-.01.19-.03.38-.03.56-.01.3-.02.6-.03.89,0,.37.02.74-.04,1.1,0,.03,0,.06,0,.09,0,.54,0,1.07-.02,1.61,0,.29.02.58-.04.86,0,.04,0,.08,0,.12,0,.77,0,1.53-.02,2.3,0,.18-.02.36-.03.53-.01.25-.02.5-.03.74,0,.43-.01.85-.04,1.28-.03.48-.01.95-.02,1.43,0,.21-.02.42-.03.62,0,.11,0,.22,0,.33,0,2.3,0,4.59,0,6.89,0,.09,0,.18,0,.27,0,.11-.03.22-.13.32-.05,0-.12.02-.19.02-.75,0-1.49,0-2.24,0-.07,0-.14-.01-.2-.02-.1-.08-.12-.19-.13-.3,0-.1,0-.2,0-.3,0-2.23,0-4.45,0-6.68,0-.16-.02-.32-.03-.48,0-.08-.01-.16-.02-.24,0-.49-.01-.97-.02-1.46,0-.24.02-.48-.04-.71-.02-.08,0-.16,0-.24,0-.4,0-.8-.02-1.19-.06-.91-.03-1.83-.06-2.74-.04-.99-.04-1.99-.05-2.98-.08-.6-.03-1.21-.06-1.81-.03-.54-.06-1.07-.09-1.6,0-.14,0-.28,0-.42Z"></path><path class="cls-7" d="m51.05,20.33c.02.09.1.12.17.15.34.16.68.33,1.03.48.73.32,1.47.61,2.22.86.64.21,1.3.38,1.96.48.1.02.2.01.3.02.08,0,.16.01.24.03.17.03.33.04.5-.01.05-.01.1,0,.15-.01.01.08-.05.09-.08.11-.8.49-1.67.79-2.57,1-.44.1-.89.17-1.35.2-.22.01-.43.04-.65.04-.46,0-.91-.05-1.36-.1-.61-.08-1.21-.23-1.79-.42-.81-.27-1.57-.63-2.29-1.07-.78-.48-1.51-1.03-2.19-1.64-.27-.25-.53-.51-.8-.76-.05-.05-.09-.1-.13-.15,0-.09.07-.13.12-.17.58-.46,1.2-.85,1.84-1.2.93-.51,1.91-.88,2.95-1.1.45-.09.9-.17,1.36-.16.13,0,.26,0,.39,0,1.04,0,2.02.25,2.96.7.79.38,1.47.9,2.1,1.51.58.57,1.08,1.19,1.53,1.86.03.05.06.1.08.15,0,0,0,.02,0,.04-.15.03-.32.04-.47,0-.28-.06-.56-.02-.83-.05-.37-.03-.75-.07-1.12-.1-.05,0-.1,0-.15,0-.36-.02-.71-.06-1.06-.11-.38-.06-.77-.08-1.15-.15-.5-.09-1-.18-1.48-.32-.12-.04-.25-.05-.38-.07-.01-.01-.02-.03-.03-.04,0,0-.02,0-.02,0,0,.01,0,.03.01.03.02,0,.03,0,.05,0Z"></path><path class="cls-8" d="m68.28,23.19c.71-.36,1.37-.7,2.05-1.01.69-.31,1.38-.61,2.08-.88.69-.26,1.4-.47,2.11-.68-.1-.06-.19-.05-.29-.03-.07.01-.14.03-.21.03-.37-.01-.73.04-1.1.08-.51.05-1.02.12-1.53.21-.54.1-1.07.21-1.6.36-.69.19-1.35.46-1.96.84-.06-.03-.02-.07,0-.1.36-.61.78-1.17,1.28-1.68.43-.44.88-.86,1.4-1.2.26-.18.53-.35.81-.5.84-.48,1.75-.79,2.7-.99.35-.07.7-.12,1.06-.16.65-.08,1.31-.06,1.96-.04.32,0,.63.07.94.1.5.04.98.15,1.46.26.36.08.71.18,1.07.27.04,0,.07.03.12.05-.01.06-.02.12-.04.17-.42,1.04-.97,2-1.65,2.89-.42.56-.91,1.06-1.42,1.52-.46.41-.97.75-1.53,1.03-.7.35-1.43.58-2.21.68-.54.07-1.07.08-1.61.03-.83-.07-1.64-.27-2.43-.57-.44-.17-.86-.35-1.28-.56-.05-.03-.1-.06-.21-.12Z"></path><path class="cls-2" d="m16.47,32.78c.13.08.14.2.16.3.04.17.05.35.07.53.02.15.04.29.08.44.02.06.06.12.09.16.11.05.17,0,.24-.04.27-.17.53-.35.8-.51.38-.23.78-.44,1.21-.57.32-.09.64-.15.96-.16.25,0,.5,0,.75,0,.14,0,.28.03.41.07.06.02.11.07.17.11,0,.1,0,.19.01.28.02.52-.04,1.03-.08,1.54-.02.28-.07.55-.12.82-.01.06-.06.12-.1.18-.32,0-.62.03-.93-.03-.07-.01-.14-.02-.21-.02-.34,0-.68-.02-1.01,0-.42.02-.82.12-1.18.36-.28.19-.46.46-.55.79-.04.16-.09.33-.1.49-.03.3-.07.59-.07.89,0,.96,0,1.93,0,2.89,0,.11.02.22.03.32,0,.07.02.14.02.21,0,.28,0,.56.01.83,0,.22-.02.44.04.65,0,.03,0,.06,0,.09,0,.41.01.81,0,1.22,0,.33-.05.38-.38.38-.71,0-1.41,0-2.12,0-.07,0-.14,0-.21-.01-.11-.02-.18-.09-.19-.2,0-.07,0-.14,0-.21,0-.86,0-1.73,0-2.59,0-.12.02-.24.03-.35,0-.08.01-.16.02-.24,0-.88,0-1.77,0-2.65,0-.47.02-.94-.02-1.4-.03-.38-.02-.77-.09-1.15-.04-.22-.05-.45-.07-.68-.07-.64-.2-1.27-.37-1.89-.02-.07-.04-.13-.05-.2-.01-.13.06-.23.2-.25.2-.03.39-.04.59-.07.42-.06.84-.1,1.26-.2.22-.05.45-.09.67-.13Z"></path><path class="cls-3" d="m64.73,36.12c0-.12,0-.2,0-.29.06-.44.12-.89.25-1.31.1-.32.22-.64.43-.91.06-.08.13-.15.21-.2.54-.34,1.12-.55,1.74-.66.48-.08.95-.08,1.43-.04.6.05,1.18.18,1.7.49.51.29.88.7,1.11,1.24.17.4.27.83.34,1.26.09.61.12,1.22.11,1.84,0,.26,0,.52,0,.78,0,.18,0,.36-.03.53-.02.08,0,.16,0,.24,0,.55,0,1.09,0,1.64,0,.28-.02.56.04.83.01.07,0,.14,0,.21,0,.42,0,.84,0,1.25,0,.5.01.99.01,1.49,0,.1,0,.2-.02.3-.01.07-.04.13-.07.2-.07.01-.14.03-.21.03-.74,0-1.47,0-2.21,0-.09,0-.18-.01-.25-.02-.13-.08-.17-.19-.17-.32,0-.42-.03-.84,0-1.25.05-.56.05-1.11.05-1.67,0-.2,0-.4.03-.59.03-.16,0-.34,0-.51,0-.16-.03-.32-.03-.47,0-.4.01-.8-.02-1.19-.05-.56-.03-1.11-.04-1.67,0-.32-.06-.64-.15-.94-.22-.68-.71-1.08-1.41-1.23-.55-.12-1.07-.04-1.57.19-.4.18-.78.4-1.14.65-.04.03-.08.06-.15.1Z"></path><path class="cls-12" d="m62.03,4.92c-.08.03-.09.1-.11.15-.25.78-.47,1.58-.61,2.39-.08.45-.12.9-.13,1.36,0,.28.03.55.05.83-.06.03-.07-.04-.1-.07-.57-.78-.98-1.63-1.18-2.58-.07-.32-.12-.64-.14-.97-.01-.2-.05-.39-.04-.59.04-.63.11-1.26.28-1.88.28-.99.73-1.91,1.3-2.76.15-.23.32-.46.48-.68.03-.05.08-.08.12-.12.04.02.07.03.09.05.37.36.73.73,1.04,1.15.36.48.66.99.91,1.54.24.53.41,1.07.49,1.65.06.39.06.77.03,1.16-.03.49-.15.96-.33,1.41-.28.7-.68,1.32-1.18,1.88-.17.19-.35.38-.53.57-.09.1-.2.18-.32.24-.02-.03-.04-.04-.04-.06-.03-.39-.04-.77-.09-1.16-.08-.72-.05-1.45-.05-2.17,0-.37-.01-.73.06-1.1.01-.07,0-.15,0-.23Z"></path><path class="cls-10" d="m49.09,29.88c.07-.2.12-.39.19-.58.27-.71.62-1.37,1.06-1.99.53-.74,1.17-1.35,1.97-1.78.42-.23.87-.38,1.34-.47.17-.03.35-.04.53-.07.07,0,.14-.02.21-.03.14,0,.28-.03.41-.02.41.05.83.07,1.24.17.47.12.94.25,1.38.45.02,0,.03.03.04.04-.24.21-.86.58-2.01,1.2-.68.36-1.38.7-2.12.93.01.07.06.04.09.05.03,0,.06,0,.09,0,1.03-.17,2.05-.37,3.03-.73.58-.21.84-.34,1.34-.71.06.04.02.08,0,.12-.23.47-.52.89-.85,1.29-.42.51-.92.93-1.47,1.29-.7.46-1.46.75-2.27.93-.28.06-.57.1-.85.13-.53.07-1.05.05-1.58.04-.22,0-.44-.03-.65-.06-.34-.05-.69-.08-1.02-.17-.02,0-.03-.02-.08-.04Z"></path><path class="cls-11" d="m71.82,27.85c-.04-.12-.17-.16-.25-.24-.28-.29-.6-.55-.92-.8-.39-.31-.8-.59-1.22-.86-.34-.21-.69-.39-1.08-.51-.08-.02-.16-.06-.3-.11.13-.03.2-.05.28-.06.27-.06.55-.1.83-.1.24,0,.48,0,.72,0,.47.01.92.11,1.37.24.7.2,1.35.52,1.95.94.72.51,1.32,1.14,1.84,1.85.31.43.59.87.83,1.34.03.05.05.11.06.15-.03.11-.12.13-.19.15-.44.16-.89.28-1.35.38-.72.16-1.44.17-2.16.11-.84-.07-1.63-.35-2.32-.85-.17-.12-.34-.24-.49-.39-.19-.19-.38-.39-.53-.6-.52-.7-.89-1.48-1.11-2.32,0,0,0-.02,0-.03.07-.06.13,0,.19.01.57.21,1.13.43,1.69.66.68.28,1.35.59,1.97.98.06.04.12.08.19.06l.02.02s-.02,0-.02-.01Z"></path><path class="cls-5" d="m75.59,12.82c-.1-.01-.17.05-.24.09-.69.44-1.36.89-1.97,1.44-.37.33-.73.68-.99,1.1-.03.04-.06.08-.08.11-.08,0-.06-.06-.06-.09.01-.2.02-.4.05-.59.1-.67.32-1.31.64-1.91.28-.52.62-.99,1.03-1.42.49-.51,1.05-.9,1.66-1.25.85-.48,1.76-.78,2.7-1,.08-.02.17-.04.27.02,0,.04.02.08.02.13,0,.48.03.95,0,1.43-.06,1.01-.31,1.98-.82,2.86-.52.9-1.27,1.54-2.23,1.94-.49.2-.99.35-1.52.4-.3.03-.61.07-.91.1-.08,0-.16,0-.27,0,.04-.08.06-.14.1-.2.4-.53.79-1.07,1.19-1.6.38-.49.79-.94,1.24-1.37.07-.07.13-.15.19-.23,0,0,.02,0,.02,0,0,0,0-.01,0-.02,0,0-.02.02-.02.03Z"></path><path class="cls-6" d="m48.78,13.17c-.02.07.02.11.06.16.24.29.47.59.73.86.45.47.88.95,1.42,1.31.19.13.39.24.58.36.06.03.12.06.21.1-.72.05-1.39,0-2.05-.19-.82-.23-1.55-.62-2.2-1.16-.42-.34-.78-.74-1.1-1.17-.59-.81-1.01-1.71-1.33-2.65-.01-.04-.01-.08-.02-.13.05-.02.09-.04.14-.04.29-.06.59-.1.88-.13.27-.03.53-.04.8-.04.6,0,1.19.07,1.76.24.84.24,1.58.65,2.16,1.31.4.45.7.96.91,1.53.21.55.33,1.12.42,1.7,0,.02-.01.04-.02.07-.16-.04-.3-.14-.45-.22-.63-.36-1.26-.72-1.85-1.14-.28-.19-.54-.4-.82-.6-.08-.06-.17-.1-.25-.15-.02-.02-.04-.04-.06-.06,0,0,0-.02,0-.03,0,0-.01,0-.02,0,.01,0,.02.02.03.03,0,.04.02.06.06.06Z"></path><path d="m59.23,20.15s.02,0,.02.01c0,0-.01-.01-.02-.02h0Z"></path><path class="cls-4" d="m3.04,54.82H.54v-4.24h2.49v.74h-1.58v.93h1.47v.74h-1.47v1.09h1.58v.74Z"></path><path class="cls-4" d="m6.89,54.82h-.9v-1.9c0-.23-.04-.41-.13-.53-.08-.12-.22-.18-.41-.18-.25,0-.44.08-.55.25-.11.17-.17.44-.17.82v1.53h-.9v-3.25h.69l.12.42h.05c.1-.16.24-.28.42-.36.18-.08.38-.12.6-.12.39,0,.68.1.88.31.2.2.3.5.3.88v2.12Z"></path><path class="cls-4" d="m9.66,54.82l-.17-.44h-.02c-.15.19-.31.32-.47.39-.16.07-.37.11-.63.11-.32,0-.57-.09-.75-.27-.18-.18-.27-.43-.27-.76s.12-.6.37-.76c.25-.16.62-.25,1.11-.27l.57-.02v-.14c0-.33-.17-.49-.52-.49-.26,0-.58.08-.93.24l-.3-.6c.38-.2.8-.29,1.27-.29s.78.09,1.02.28c.24.19.36.48.36.87v2.16h-.63Zm-.27-1.5h-.35c-.26.02-.46.07-.59.15-.13.09-.19.21-.19.39,0,.25.15.37.44.37.21,0,.38-.06.5-.18.13-.12.19-.27.19-.47v-.27Z"></path><path class="cls-4" d="m12.94,51.51c.39,0,.7.15.92.45.22.3.33.71.33,1.23s-.11.95-.34,1.25c-.23.29-.54.44-.93.44s-.69-.14-.92-.42h-.06l-.15.36h-.69v-4.52h.9v1.05c0,.13-.01.35-.04.64h.04c.21-.32.52-.48.94-.48Zm-.29.71c-.22,0-.39.07-.49.2s-.16.36-.16.67v.1c0,.35.05.6.16.75.11.15.27.23.5.23.19,0,.33-.08.44-.25s.16-.41.16-.73-.06-.56-.17-.72-.26-.24-.45-.24Z"></path><path class="cls-4" d="m15.73,54.82h-.9v-4.52h.9v4.52Z"></path><path class="cls-4" d="m16.51,50.73c0-.29.16-.43.49-.43s.49.14.49.43c0,.14-.04.24-.12.32-.08.08-.2.11-.37.11-.33,0-.49-.15-.49-.44Zm.94,4.09h-.9v-3.25h.9v3.25Z"></path><path class="cls-4" d="m21.26,54.82h-.9v-1.9c0-.23-.04-.41-.13-.53-.08-.12-.22-.18-.41-.18-.25,0-.44.08-.55.25-.11.17-.17.44-.17.82v1.53h-.9v-3.25h.69l.12.42h.05c.1-.16.24-.28.42-.36.18-.08.38-.12.6-.12.39,0,.68.1.88.31.2.2.3.5.3.88v2.12Z"></path><path class="cls-4" d="m24.87,51.57v.44l-.52.13c.09.14.14.3.14.48,0,.34-.12.61-.37.8-.25.19-.59.29-1.03.29h-.16s-.13-.02-.13-.02c-.09.07-.14.14-.14.23,0,.13.17.19.5.19h.56c.36,0,.64.08.83.22.19.15.29.37.29.66,0,.37-.16.66-.48.87s-.79.31-1.39.31c-.46,0-.81-.08-1.06-.23-.24-.15-.37-.37-.37-.65,0-.19.06-.35.19-.48s.31-.22.55-.28c-.09-.04-.17-.1-.24-.19-.07-.09-.1-.18-.1-.27,0-.12.04-.22.11-.3.07-.08.18-.16.32-.24-.17-.07-.31-.19-.41-.35s-.15-.35-.15-.56c0-.35.12-.62.35-.81.23-.19.57-.28,1.01-.28.09,0,.2,0,.33.02.13.02.21.03.24.04h1.15Zm-2.56,3.63c0,.12.06.21.18.28s.29.1.5.1c.32,0,.58-.04.76-.13s.28-.2.28-.35c0-.12-.05-.2-.16-.25-.11-.05-.28-.07-.5-.07h-.47c-.17,0-.3.04-.42.11s-.17.17-.17.3Zm.33-2.59c0,.17.04.31.12.41.08.1.21.15.37.15s.29-.05.37-.15c.08-.1.12-.24.12-.41,0-.38-.16-.58-.49-.58s-.5.19-.5.58Z"></path><path class="cls-4" d="m29.56,53.64c0,.38-.14.69-.42.91-.28.22-.67.33-1.17.33-.46,0-.87-.09-1.23-.26v-.84c.29.13.54.22.74.27.2.05.39.08.56.08.2,0,.36-.04.46-.11.11-.08.16-.19.16-.34,0-.08-.02-.16-.07-.22-.05-.06-.12-.13-.21-.19-.09-.06-.28-.16-.56-.29-.26-.12-.46-.24-.6-.35-.13-.11-.24-.24-.32-.39-.08-.15-.12-.32-.12-.52,0-.38.13-.67.39-.89.26-.21.62-.32,1.08-.32.23,0,.44.03.64.08s.42.13.64.22l-.3.7c-.23-.09-.42-.16-.57-.19-.15-.04-.3-.06-.45-.06-.17,0-.31.04-.4.12-.09.08-.14.18-.14.31,0,.08.02.15.06.21s.1.12.18.17c.08.06.28.15.58.3.4.19.68.38.83.57.15.19.23.42.23.7Z"></path><path class="cls-4" d="m32.49,54.82l-.12-.42h-.05c-.1.15-.23.27-.41.35-.18.08-.38.12-.61.12-.39,0-.68-.1-.88-.31-.2-.2-.3-.5-.3-.88v-2.12h.9v1.9c0,.23.04.41.13.53.08.12.22.18.41.18.25,0,.44-.08.55-.25s.17-.44.17-.82v-1.53h.9v3.25h-.69Z"></path><path class="cls-4" d="m36.22,53.85c0,.33-.12.59-.35.76-.24.17-.59.26-1.06.26-.24,0-.45-.02-.62-.05-.17-.03-.33-.08-.48-.14v-.73c.17.08.36.14.57.19.21.05.4.08.56.08.33,0,.49-.09.49-.28,0-.07-.02-.13-.07-.17-.04-.04-.12-.09-.23-.15-.11-.06-.25-.12-.43-.19-.25-.1-.44-.2-.56-.29-.12-.09-.21-.19-.26-.31s-.08-.26-.08-.43c0-.29.11-.51.34-.67.23-.16.55-.24.97-.24s.79.09,1.16.26l-.27.64c-.17-.07-.32-.13-.46-.17-.14-.04-.29-.07-.44-.07-.27,0-.4.07-.4.21,0,.08.04.15.13.21s.27.14.56.26c.26.1.45.2.57.29.12.09.21.19.27.31.06.12.09.25.09.42Z"></path><path class="cls-4" d="m38.12,54.17c.16,0,.35-.03.57-.1v.66c-.23.1-.5.15-.83.15-.36,0-.62-.09-.79-.27-.16-.18-.25-.45-.25-.81v-1.56h-.43v-.66h.5v-.69h.84v.69h.93s0,.66,0,.66h-.93v1.56c0,.13.04.22.11.28.07.06.17.09.29.09Z"></path><path class="cls-4" d="m41.04,54.82l-.17-.44h-.02c-.15.19-.31.32-.47.39-.16.07-.37.11-.63.11-.32,0-.57-.09-.75-.27-.18-.18-.27-.43-.27-.76s.12-.6.37-.76c.25-.16.62-.25,1.11-.27l.57-.02v-.14c0-.33-.17-.49-.52-.49-.26,0-.58.08-.93.24l-.3-.6c.38-.2.8-.29,1.27-.29s.78.09,1.02.28c.24.19.36.48.36.87v2.16h-.63Zm-.27-1.5h-.35c-.26.02-.46.07-.59.15-.13.09-.19.21-.19.39,0,.25.15.37.44.37.21,0,.38-.06.5-.18.13-.12.19-.27.19-.47v-.27Z"></path><path class="cls-4" d="m42.46,50.73c0-.29.16-.43.49-.43s.49.14.49.43c0,.14-.04.24-.12.32-.08.08-.2.11-.37.11-.33,0-.49-.15-.49-.44Zm.94,4.09h-.9v-3.25h.9v3.25Z"></path><path class="cls-4" d="m47.19,54.82h-.9v-1.9c0-.23-.04-.41-.13-.53-.08-.12-.22-.18-.41-.18-.25,0-.44.08-.55.25-.11.17-.17.44-.17.82v1.53h-.9v-3.25h.69l.12.42h.05c.1-.16.24-.28.42-.36.18-.08.38-.12.6-.12.39,0,.68.1.88.31.2.2.3.5.3.88v2.12Z"></path><path class="cls-4" d="m49.96,54.82l-.17-.44h-.02c-.15.19-.31.32-.47.39-.16.07-.37.11-.63.11-.32,0-.57-.09-.75-.27-.18-.18-.27-.43-.27-.76s.12-.6.37-.76c.25-.16.62-.25,1.11-.27l.57-.02v-.14c0-.33-.17-.49-.52-.49-.26,0-.58.08-.93.24l-.3-.6c.38-.2.8-.29,1.27-.29s.78.09,1.02.28c.24.19.36.48.36.87v2.16h-.63Zm-.27-1.5h-.35c-.26.02-.46.07-.59.15-.13.09-.19.21-.19.39,0,.25.15.37.44.37.21,0,.38-.06.5-.18.13-.12.19-.27.19-.47v-.27Z"></path><path class="cls-4" d="m53.26,51.51c.39,0,.7.15.92.45.22.3.33.71.33,1.23s-.11.95-.34,1.25c-.23.29-.54.44-.93.44s-.69-.14-.92-.42h-.06l-.15.36h-.69v-4.52h.9v1.05c0,.13-.01.35-.04.64h.04c.21-.32.52-.48.94-.48Zm-.29.71c-.22,0-.39.07-.49.2s-.16.36-.16.67v.1c0,.35.05.6.16.75.11.15.27.23.5.23.19,0,.33-.08.44-.25s.16-.41.16-.73-.06-.56-.17-.72-.26-.24-.45-.24Z"></path><path class="cls-4" d="m56.05,54.82h-.9v-4.52h.9v4.52Z"></path><path class="cls-4" d="m58.34,54.88c-.53,0-.95-.14-1.25-.43-.3-.29-.45-.7-.45-1.23s.14-.96.42-1.26.66-.45,1.15-.45.83.13,1.09.39c.26.26.39.62.39,1.08v.43h-2.14c0,.25.09.45.23.59.14.14.34.21.6.21.2,0,.39-.02.57-.06s.36-.11.56-.19v.69c-.16.08-.33.14-.51.17s-.4.06-.66.06Zm-.13-2.73c-.19,0-.34.06-.45.18-.11.12-.17.29-.19.51h1.27c0-.22-.06-.39-.17-.51s-.26-.18-.46-.18Z"></path><path class="cls-4" d="m63.92,51.26c-.35,0-.61.13-.8.38-.19.25-.28.61-.28,1.06,0,.95.36,1.42,1.09,1.42.3,0,.67-.07,1.1-.22v.75c-.36.15-.75.22-1.19.22-.63,0-1.11-.19-1.45-.56-.33-.37-.5-.91-.5-1.61,0-.44.08-.83.25-1.16.16-.33.4-.59.71-.76.31-.18.67-.27,1.08-.27s.84.1,1.27.3l-.3.73c-.16-.08-.32-.14-.49-.2-.16-.06-.32-.08-.48-.08Z"></path><path class="cls-4" d="m68.74,53.19c0,.53-.14.94-.43,1.24-.28.3-.68.45-1.19.45-.32,0-.6-.07-.84-.2-.24-.14-.43-.33-.56-.59s-.2-.55-.2-.89c0-.53.14-.94.42-1.24.28-.29.68-.44,1.19-.44.32,0,.6.07.84.2.24.14.43.33.56.58.13.25.2.55.2.89Zm-2.29,0c0,.32.05.56.16.73.11.16.28.25.53.25s.41-.08.52-.25.16-.41.16-.73-.05-.56-.16-.72c-.11-.16-.28-.24-.52-.24s-.41.08-.52.24c-.11.16-.16.4-.16.72Z"></path><path class="cls-4" d="m72.34,54.82h-.9v-1.9c0-.23-.04-.41-.12-.53-.08-.12-.21-.18-.38-.18-.23,0-.4.08-.5.25-.1.17-.16.44-.16.82v1.53h-.9v-3.25h.69l.12.42h.05c.09-.15.22-.27.39-.35.17-.08.36-.13.58-.13.5,0,.83.16,1.01.48h.08c.09-.15.22-.27.39-.35.17-.08.37-.12.58-.12.38,0,.66.09.85.28.19.19.29.49.29.91v2.12h-.91v-1.9c0-.23-.04-.41-.12-.53-.08-.12-.21-.18-.38-.18-.22,0-.39.08-.5.23-.11.15-.16.4-.16.74v1.63Z"></path><path class="cls-4" d="m78.04,54.82h-.9v-1.9c0-.23-.04-.41-.12-.53-.08-.12-.21-.18-.38-.18-.23,0-.4.08-.5.25-.1.17-.16.44-.16.82v1.53h-.9v-3.25h.69l.12.42h.05c.09-.15.22-.27.39-.35.17-.08.36-.13.58-.13.5,0,.83.16,1.01.48h.08c.09-.15.22-.27.39-.35.17-.08.37-.12.58-.12.38,0,.66.09.85.28.19.19.29.49.29.91v2.12h-.91v-1.9c0-.23-.04-.41-.12-.53-.08-.12-.21-.18-.38-.18-.22,0-.39.08-.5.23-.11.15-.16.4-.16.74v1.63Z"></path><path class="cls-4" d="m83.09,54.82l-.12-.42h-.05c-.1.15-.23.27-.41.35-.18.08-.38.12-.61.12-.39,0-.68-.1-.88-.31-.2-.2-.3-.5-.3-.88v-2.12h.9v1.9c0,.23.04.41.13.53.08.12.22.18.41.18.25,0,.44-.08.55-.25s.17-.44.17-.82v-1.53h.9v3.25h-.69Z"></path><path class="cls-4" d="m87.57,54.82h-.9v-1.9c0-.23-.04-.41-.13-.53-.08-.12-.22-.18-.41-.18-.25,0-.44.08-.55.25-.11.17-.17.44-.17.82v1.53h-.9v-3.25h.69l.12.42h.05c.1-.16.24-.28.42-.36.18-.08.38-.12.6-.12.39,0,.68.1.88.31.2.2.3.5.3.88v2.12Z"></path><path class="cls-4" d="m88.25,50.73c0-.29.16-.43.49-.43s.49.14.49.43c0,.14-.04.24-.12.32-.08.08-.2.11-.37.11-.33,0-.49-.15-.49-.44Zm.94,4.09h-.9v-3.25h.9v3.25Z"></path><path class="cls-4" d="m95.62,54.88c-.53,0-.95-.14-1.25-.43-.3-.29-.45-.7-.45-1.23s.14-.96.42-1.26.66-.45,1.15-.45.83.13,1.09.39c.26.26.39.62.39,1.08v.43h-2.14c0,.25.09.45.23.59.14.14.34.21.6.21.2,0,.39-.02.57-.06s.36-.11.56-.19v.69c-.16.08-.33.14-.51.17s-.4.06-.66.06Zm-.13-2.73c-.19,0-.34.06-.45.18-.11.12-.17.29-.19.51h1.27c0-.22-.06-.39-.17-.51s-.26-.18-.46-.18Z"></path><path class="cls-4" d="m99.88,53.85c0,.33-.12.59-.35.76-.24.17-.59.26-1.06.26-.24,0-.45-.02-.62-.05-.17-.03-.33-.08-.48-.14v-.73c.17.08.36.14.57.19.21.05.4.08.56.08.33,0,.49-.09.49-.28,0-.07-.02-.13-.07-.17-.04-.04-.12-.09-.23-.15-.11-.06-.25-.12-.43-.19-.25-.1-.44-.2-.56-.29-.12-.09-.21-.19-.26-.31s-.08-.26-.08-.43c0-.29.11-.51.34-.67.23-.16.55-.24.97-.24s.79.09,1.16.26l-.27.64c-.17-.07-.32-.13-.46-.17-.14-.04-.29-.07-.44-.07-.27,0-.4.07-.4.21,0,.08.04.15.13.21s.27.14.56.26c.26.1.45.2.57.29.12.09.21.19.27.31.06.12.09.25.09.42Z"></path><path class="cls-4" d="m92.84,51.17c.16,0,.29-.04.37-.11.08-.08.12-.18.12-.32,0-.29-.16-.43-.49-.43s-.49.14-.49.43.16.44.49.44Z"></path><path class="cls-4" d="m93.29,51.57h0s-.9,0-.9,0h0s-1.4,0-1.4,0v-.69h-.84v.69h-.5v.67h.43v1.56c0,.36.08.63.25.81.16.18.43.27.79.27.33,0,.6-.05.83-.15v-.66c-.22.07-.41.1-.57.1-.12,0-.21-.03-.29-.09-.07-.06-.11-.15-.11-.28v-1.56h1.4v2.58h.9v-3.25s0,0,0,0Z"></path></svg> 