<?xml version="1.0" encoding="UTF-8"?> <svg xmlns="http://www.w3.org/2000/svg" id="Layer_1" width="600" height="400" viewBox="0 0 600 400"><defs><style>.cls-1{fill:#fff;stroke-width:0px;}</style></defs><path class="cls-1" d="m115,152.84v94.31h370v-94.31H115Zm366.37,90.69H118.63v-12.05h362.74v12.05Zm-299.78-15.94h-9.25c3.93-1.29,7.13-3.3,9.25-6.1v6.1Zm57.63,0h-8.79c3.93-1.34,6.88-3.37,8.79-5.99v5.99Zm25.82,0v-36.11l21.47,36.11h-21.47Zm111.03,0c1.52-4.47,7.61-22.4,7.67-23.62.07-.44.51-2.84.51-2.84,0,0,.45,2.4.52,2.91.12,1.16,6.22,19.08,7.74,23.55h-16.45Zm105.3,0h-26.04c5.38-1.97,7.93-5.61,7.93-10.91,0-7.57-4.27-11.17-13.97-12.64-1.39-.22-7.05-1.03-9.4-1.39-5.73-.89-6.99-1.54-6.99-3.31,0-1.91,1.92-2.94,8.39-2.94,5.58,0,7.71.96,8.52,2.06.36.51.52,1.76.52,2.2h11.39c0-.81-.22-3.3-.74-4.85-2.06-5.8-9.05-8.67-20.14-8.67-13.02,0-19.48,4.7-19.48,11.9,0,7.73,4.26,11.62,13.16,12.87,2.42.37,7.28,1.11,8.81,1.32,5.95.88,8.38,1.39,8.38,3.68s-2.06,3.52-8.75,3.52-9.48-.51-10.22-2.42c-.29-.81-.36-1.54-.36-2.06h-11.68c0,1.32.07,2.43.44,4.05.94,3.69,3.44,6.13,7.78,7.6h-21.8l14.26-39.42h-11.55l-9.48,30.06-9.12-30.06h-13.08l-8.89,30.06-9.7-30.06h-12.27l14.11,39.42h-24.15c1.6-.56,3.09-1.21,4.33-2.01,4.04-2.58,6.39-6.25,7.34-10.15h-11.54c-.22.89-1.25,2.2-3.37,3.16-1.7.74-4.12,1.32-7.43,1.32-4.41,0-7.71-1.17-9.41-3.01-1.39-1.54-2.2-2.94-2.2-4.79h34.25c.66-6.09-.44-11.9-3.46-16.31-3.59-5.22-9.92-8.6-19.18-8.6s-15.81,3.31-19.7,8.97c-2.27,3.23-3.53,7.35-3.53,11.98,0,5.08,1.1,9.12,3.09,12.28,2.17,3.45,5.42,5.76,9.41,7.16h-15.77v-53.8h-11.45v35.31l-21.09-35.31h-13.94v53.8h-3.68v-10.16h-8.64c.43-1.45.67-3,.67-4.65,0-9.37-5.69-13.88-16.58-15.96-1.25-.21-4.86-.97-7.63-1.53-8.95-1.8-12.21-3.4-12.21-7.42,0-3.12,1.81-5.13,10.89-5.13,6.94,0,9.92,1.59,11.37,4.65.42.84.77,2.08.77,2.7h12.35c0-1.39-.55-3.46-1.25-5.27-2.77-6.94-9.22-11.72-22.96-11.72-16.09,0-23.58,6.24-23.58,15.54s6.59,14.01,17.27,16.02c2.43.48,6.45,1.25,8.05,1.53,8.87,1.67,11.17,3.26,11.17,7.77,0,3.61-2.91,5.89-11.24,5.89-7.28,0-10.89-1.38-12.41-4.57-.42-.83-.77-2.49-.77-3.47h-12.35c0,1.11.21,3.82.77,5.61,1.43,4.47,4.43,8.13,10.82,10.17h-12.12v-10.16h-8.55c.55-1.64.85-3.44.85-5.42v-38.22h-12v36.56c0,5.69-4.86,9.08-11.72,9.08-7.84,0-12.14-3.39-12.14-9.15v-36.49h-11.99v37.53c0,8.7,4.69,13.85,11.95,16.28h-30.07v-71.12h362.74v71.12Zm-166.48-23.18c0-1.18,1.11-3.6,2.5-4.85,1.99-1.76,5.08-2.87,9.26-2.87,4.41,0,7.21,1.4,8.9,3.09,1.47,1.54,1.97,3.45,1.97,4.63h-22.63Zm28.54-30.85c-4.07,0-5.88,2.14-5.88,5.65,0,3.76,1.83,5.73,5.88,5.73s5.87-1.9,5.87-5.77-1.71-5.61-5.87-5.61Zm.02,8.8c-1.61,0-2.45-.78-2.45-3.11,0-2.21.64-3.08,2.44-3.08s2.47.9,2.47,3.08c0,2.45-.9,3.11-2.45,3.11Zm17.44-3.04c.29-.49.49-1.19.49-2.08,0-1.03-.21-1.77-.63-2.33-.56-.73-1.51-1.15-2.98-1.15h-6.97v11.01h3.32v-3.73h2.28l1.93,3.73h3.78l-2.58-4.41c.51-.11,1.01-.46,1.35-1.04Zm-2.93-1.09c-.12.27-.48.37-.89.37h-2.92v-2.25h2.84c.49,0,.81.11.97.46.1.16.12.46.12.71,0,.22-.04.51-.13.71Zm-23.8-4.47h3.27l-3.09,11.01h-3.68s-1.65-6.35-1.69-6.7c-.02.37-1.7,6.7-1.7,6.7h-3.66l-3.15-11.01h3.6s1.68,6.8,1.68,7.15c0-.35,1.63-7.15,1.63-7.15h3.46s1.67,6.8,1.67,7.15c0-.35,1.65-7.15,1.65-7.15Zm-17.28,5.78h-3.09c-.03.63-.23,1.22-.6,1.67-.63-.52-1.27-1.09-1.76-1.49,1.1-.68,2.17-1.65,2.2-3.05,0-.07.01-.38,0-.48-.08-1.34-1.3-2.55-3.4-2.55-2.3,0-3.62,1.28-3.68,2.64v.56c.02.67.26,1.42.9,2.33-1.3.61-2.49,1.39-2.52,2.65,0,.14-.01.4,0,.57.09,2.02,2.45,2.5,5.07,2.5,1.05,0,2.18-.18,3.03-.53.16.14.33.29.52.42h4.19c-.8-.63-1.63-1.28-2.36-1.82.88-.84,1.44-2.03,1.49-3.42Zm-7.03,3.1c-1.15,0-1.64-.2-1.64-.73,0-.31.35-.61.85-.9.46.47,1.12.98,1.75,1.52-.27.07-.65.11-.96.11Zm1.05-5.73c-.04.43-.43.79-.99,1.13-.27-.36-.43-.71-.45-1.01-.01-.09-.01-.21,0-.3.05-.39.25-.72.74-.72s.68.32.7.68v.22Zm121.89-3.35c-4.08,0-5.88,2.14-5.88,5.65,0,3.76,1.83,5.73,5.88,5.73s5.87-1.9,5.87-5.77-1.72-5.61-5.87-5.61Zm0,8.8c-1.61,0-2.44-.78-2.44-3.11,0-2.21.63-3.08,2.44-3.08s2.46.9,2.46,3.08c0,2.45-.9,3.11-2.45,3.11Zm17.5-3.04c.28-.49.48-1.19.48-2.08,0-1.03-.22-1.77-.64-2.33-.56-.73-1.52-1.15-2.98-1.15h-6.97v11.01h3.32v-3.73h2.28l1.94,3.73h3.77l-2.57-4.41c.52-.11,1.01-.46,1.36-1.04Zm-2.94-1.09c-.12.27-.49.37-.9.37h-2.91v-2.25h2.84c.48,0,.81.11.98.46.09.16.11.46.11.71,0,.22-.04.51-.12.71Zm4.42-4.47h10.45v2.65h-3.52v8.36h-3.43v-8.36h-3.49v-2.65Zm-84.66,8.29h5.29v2.72h-8.7v-11.01h3.41v8.29Zm54.75-8.29h-6.78v11.01h3.39v-3.45h0s2.98.02,3.39.02c1.35-.03,2.41-.38,3.04-1.12.55-.58.81-1.45.81-2.67,0-1.37-.35-2.32-.99-2.87-.6-.63-1.55-.92-2.88-.92Zm.34,4.58c-.16.3-.47.52-1.12.52h-2.65v-2.54h0,2.69c.56,0,.88.17,1.06.52.1.15.15.43.15.78,0,.32-.03.53-.14.73Zm-15.38,3.86h6.11v2.57h-9.42v-11.01h9.36v2.59h-6.05v1.6h5.82v2.62h-5.82v1.64Zm-26.69-8.45h-6.04v11.01h6.21c1.98,0,3.12-.58,3.78-1.6.61-.91.78-1.77.78-4.12,0-2.01-.13-2.92-.81-3.86-.68-.95-1.92-1.43-3.91-1.43Zm1.13,7.79c-.38.45-.83.63-1.69.63h-2.13s0,0,0,0v-5.84h2.13c.83,0,1.24.12,1.67.59.27.31.35,1.33.35,2.12,0,.9-.03,2.14-.32,2.49Zm19.29-2.23c.29-.49.49-1.19.49-2.08,0-1.03-.21-1.77-.63-2.33-.56-.73-1.51-1.15-2.98-1.15h-6.97v11.01h3.32v-3.73h2.27l1.95,3.73h3.78l-2.58-4.41c.51-.11,1.01-.46,1.36-1.04Zm-2.93-1.09c-.12.27-.49.37-.9.37h-2.91v-2.25h2.83c.49,0,.82.11.99.46.09.16.11.46.11.71,0,.22-.04.51-.12.71Z"></path></svg> 