<?xml version="1.0" encoding="UTF-8"?> <svg xmlns="http://www.w3.org/2000/svg" id="Layer_2" width="100" height="72.1" viewBox="0 0 100 72.1"><defs><style>.cls-1{fill:#3a357e;}</style></defs><path class="cls-1" d="m82.67,28.9l-2.27-.21c-.98-.1-1.97-.18-2.95-.29-1.36-.16-2.62-.3-4.05-.51-1.42-.21-2.86-.4-4.27-.68-2.01-.39-4.07-.85-6.03-1.3-.36-.08-.71-.23-1.06-.33,0,0-.01,0-.02,0,0,0,.01,0,.02-.02.89-.94,1.62-2.02,2.14-3.2.56-1.28.71-2.7.43-4.07-.29-1.32-.89-2.56-1.74-3.62-1.08-1.36-2.36-2.56-3.8-3.54-1.14-.8-2.38-1.44-3.61-2.09.37-.18.73-.36,1.13-.53,1.87-.83,3.84-1.55,5.84-2.14,2.57-.78,5.2-1.43,7.84-1.94,1.97-.41,3.95-.74,5.86-.97l5.18-.57c.8-.01,1.44-.67,1.43-1.6-.08-.75-.71-1.3-1.7-1.3h-.01l-2.25.19c-1.57.14-3.18.29-4.63.44-1.72.19-3.44.4-5.15.69-2.14.36-4.27.77-6.4,1.21-3.27.67-6.51,1.57-9.63,2.67-.5.18-.99.37-1.49.57l-1.84.71c-2.84-1.01-5.73-1.89-8.67-2.55-2.35-.55-4.72-.99-7.09-1.37-1.53-.25-3.08-.45-4.62-.65-1.23-.16-2.47-.28-3.7-.39-1.64-.14-3.27-.27-4.91-.39h-.43c-.11.13-.17.29-.16.46v7.47c0,.37.07.48.39.48l2.7.23c.84.07,1.66.14,2.53.19,1.26.16,2.48.29,3.76.49s2.61.39,3.93.63c1.51.27,3.01.57,4.5.89,1.07.24,2.13.53,3.19.8,0,0,.01,0,.02,0l-.03.06c-.06.09-.12.18-.19.27-.82.89-1.49,1.92-1.96,3.04-.67,1.56-.73,3.31-.18,4.91.45,1.27,1.16,2.44,2.08,3.43.97,1.06,2.05,2.01,3.23,2.83,1.15.79,2.37,1.46,3.61,2.11-.39.19-.78.38-1.17.56-1.91.84-3.87,1.56-5.84,2.14-2.58.78-5.21,1.43-7.84,1.94-2.06.42-4.03.75-5.86.96l-5.2.57c-.8.03-1.43.67-1.42,1.61.09.75.72,1.29,1.71,1.29h.01l2.5-.24c1.49-.14,3-.27,4.37-.42,1.72-.19,3.45-.4,5.15-.69,2.14-.36,4.27-.77,6.4-1.21,3.25-.67,6.49-1.57,9.62-2.67.49-.17.97-.36,1.46-.55l2-.77c1.76.64,3.52,1.27,5.33,1.75,3.03.82,6.09,1.45,9.18,1.96,1.82.29,3.64.55,5.46.8,1.3.17,2.65.3,3.93.43s2.54.22,3.82.31l1.34.11s.03,0,.04,0c.19.02.36-.12.37-.31,0-.08,0-.17,0-.26v-7.25c0-.09,0-.17,0-.26-.03-.23-.12-.32-.35-.32Zm-32.46-8.58c-1.12-.88-1.97-2.05-2.47-3.38-.22-.63-.31-1.3-.26-1.97,0,0,0-.02,0-.02,0,0,0,0,0,0,.82.38,1.65.74,2.45,1.16,1.47.74,2.8,1.74,3.93,2.95.83.86,1.39,1.93,1.63,3.09.05.4.08.81.08,1.22,0,.01,0,0,0,.02-.33-.13-.67-.22-.98-.37-1.58-.7-3.06-1.61-4.39-2.7Z"></path><path class="cls-1" d="m21.57,70.44c.48.01.96-.08,1.4-.27.45-.22.86-.52,1.23-.87l1.01,1.03c-.9,1.05-2.21,1.64-3.59,1.62-1.3.04-2.56-.46-3.49-1.37-.91-.9-1.41-2.14-1.37-3.42-.03-1.3.49-2.55,1.43-3.45.96-.92,2.25-1.42,3.58-1.37,1.38-.02,2.7.57,3.61,1.61l-1,1.09c-.36-.37-.79-.67-1.26-.89-.44-.18-.91-.27-1.39-.26-.88-.02-1.74.3-2.38.91-.64.6-.99,1.45-.97,2.33-.03.89.31,1.74.94,2.37.59.62,1.4.96,2.25.96"></path><path class="cls-1" d="m31.1,69.78l-.94,2.11h-1.67l4.13-9.29h1.67l4.06,9.32h-1.67l-.92-2.12-4.65-.02Zm4.02-1.43l-1.67-3.84-1.71,3.82h3.39Z"></path><path class="cls-1" d="m48.61,63.47c.65.54.97,1.38.96,2.5,0,1.13-.34,1.95-1,2.47-.66.52-1.68.78-3.04.77h-1.65v2.74h-1.57l.03-9.3h3.19c1.41,0,2.44.27,3.08.82m-1.12,3.83c.34-.42.51-.95.47-1.49.06-.53-.17-1.05-.59-1.37-.57-.31-1.22-.45-1.87-.4h-1.6v3.72h1.82c.87,0,1.46-.16,1.78-.49"></path><rect class="cls-1" x="50.21" y="66.55" width="9.3" height="1.57" transform="translate(-12.67 121.95) rotate(-89.8)"></rect><polygon class="cls-1" points="64.4 64.15 64.38 72.01 62.81 72 62.84 64.15 60.01 64.14 60.02 62.7 67.23 62.72 67.23 64.16 64.4 64.15"></polygon><path class="cls-1" d="m72.15,69.93l-.94,2.11h-1.67l4.13-9.3h1.67l4.06,9.31h-1.67l-.92-2.12h-4.65Zm4.03-1.45l-1.67-3.84-1.71,3.82h3.39Z"></path><polygon class="cls-1" points="83.36 72.08 83.39 62.78 84.96 62.79 84.93 70.59 89.17 70.61 89.17 72.1 83.36 72.08"></polygon><path class="cls-1" d="m4.77,54.33c.47.01.95-.08,1.38-.26.45-.22.86-.52,1.21-.87l1,1.02c-.88,1.04-2.18,1.64-3.54,1.63-1.29.04-2.54-.45-3.46-1.36C.45,53.59-.04,52.36,0,51.09c-.04-1.29.47-2.53,1.4-3.43.95-.91,2.23-1.4,3.55-1.36,1.37-.02,2.67.56,3.57,1.59l-.99,1.07c-.36-.36-.78-.66-1.25-.87-.44-.18-.91-.26-1.38-.25-.87-.03-1.71.3-2.35.9-.63.6-.98,1.43-.96,2.3-.03.88.31,1.73.93,2.35.58.61,1.39.95,2.23.95"></path><path class="cls-1" d="m20.4,49.58c0,1.52-.67,2.47-2,2.87l2.4,3.35h-1.98l-2.19-3.1h-2.03v3.1h-1.55l.03-9.21h3.42c1.4,0,2.41.24,3.01.72.61.48.91,1.24.9,2.28m-2.07,1.3c.35-.34.52-.82.48-1.31,0-.6-.16-1.02-.48-1.24-.32-.23-.9-.34-1.74-.34h-1.98v3.29h1.94c.88,0,1.48-.13,1.79-.4"></path><path class="cls-1" d="m33.11,54.55c-1.94,1.82-4.96,1.82-6.9,0-.92-.89-1.42-2.12-1.38-3.39-.03-1.28.48-2.51,1.41-3.39,1.94-1.82,4.96-1.82,6.9,0,.92.89,1.42,2.12,1.38,3.39.03,1.28-.48,2.51-1.41,3.39m-1.12-5.76c-1.24-1.28-3.29-1.3-4.56-.06-.02.02-.04.04-.06.06-.62.63-.97,1.49-.95,2.37-.02.88.31,1.74.93,2.37,1.24,1.28,3.29,1.3,4.56.06.02-.02.04-.04.06-.06.62-.63.97-1.49.95-2.37.02-.88-.31-1.74-.93-2.37"></path><path class="cls-1" d="m42.05,47.87c-.39-.02-.78.08-1.12.27-.28.18-.44.5-.42.83-.02.34.15.67.43.86.58.31,1.2.52,1.85.64.78.15,1.5.49,2.13.97.5.47.76,1.14.71,1.83.02.76-.32,1.48-.92,1.95-.68.52-1.52.78-2.37.74-1.43.01-2.82-.53-3.87-1.5l.98-1.17c.78.75,1.81,1.18,2.89,1.22.43.03.85-.08,1.21-.31.28-.19.45-.51.44-.85.02-.33-.14-.65-.42-.84-.44-.26-.92-.45-1.43-.55-.52-.12-1.04-.27-1.54-.45-.34-.13-.65-.31-.93-.54-.56-.46-.87-1.17-.81-1.9-.04-.77.31-1.51.94-1.97.67-.47,1.48-.71,2.3-.68.6,0,1.19.1,1.75.3.55.18,1.06.46,1.5.82l-.83,1.17c-.32-.28-.7-.48-1.11-.61-.44-.16-.91-.24-1.38-.24"></path><path class="cls-1" d="m53.16,47.91c-.39-.02-.78.08-1.12.27-.29.18-.45.5-.44.83-.02.34.15.67.43.86.58.31,1.2.52,1.85.64.78.16,1.51.49,2.14.98.5.47.76,1.14.71,1.83.02.76-.32,1.48-.92,1.95-.68.52-1.52.78-2.37.74-1.42,0-2.79-.53-3.83-1.5l.98-1.17c.78.74,1.8,1.17,2.88,1.2.42.02.84-.09,1.19-.32.28-.19.45-.51.44-.85.01-.33-.14-.64-.41-.83-.44-.26-.92-.45-1.43-.55-.52-.12-1.04-.27-1.54-.45-.34-.13-.65-.31-.93-.54-.56-.46-.87-1.17-.81-1.9-.04-.77.31-1.51.94-1.97.67-.47,1.48-.71,2.3-.68.6,0,1.19.1,1.75.3.55.18,1.06.46,1.5.82l-.83,1.17c-.32-.28-.7-.48-1.11-.61-.44-.16-.91-.24-1.38-.24"></path><polygon class="cls-1" points="61.3 55.93 61.33 46.73 62.88 46.73 62.86 54.47 67.06 54.48 67.05 55.95 61.3 55.93"></polygon><rect class="cls-1" x="67.72" y="50.59" width="9.21" height="1.55" transform="translate(20.71 123.51) rotate(-89.8)"></rect><polygon class="cls-1" points="85.35 46.81 86.9 46.82 86.87 56.02 85.19 56.01 79.99 49.28 79.97 56 78.42 55.99 78.45 46.79 80 46.79 85.33 53.69 85.35 46.81"></polygon><polygon class="cls-1" points="92.24 46.84 93.79 46.84 93.77 51.33 98.01 46.85 99.98 46.86 96.27 50.88 100 56.07 98.16 56.06 95.12 52.02 93.77 53.46 93.76 56.05 92.2 56.04 92.24 46.84"></polygon></svg> 