<?xml version="1.0" encoding="UTF-8"?> <svg xmlns="http://www.w3.org/2000/svg" id="Layer_2" width="100" height="20.67" viewBox="0 0 100 20.67"><defs><style>.cls-1{fill:#fff;}</style></defs><path class="cls-1" d="m28.06,12.01l-.65,1.96c-.02.07-.06.1-.13.1h-1.19c-.07,0-.1-.04-.08-.12l2.45-6.97c.05-.12.08-.24.11-.64,0-.05.02-.08.07-.08h1.65c.06,0,.07.01.08.07l2.75,7.64c.01.07,0,.11-.07.11h-1.33c-.06,0-.1-.02-.12-.07l-.69-1.99h-2.84Zm2.46-1.3c-.25-.79-.81-2.44-1.05-3.27h-.01c-.19.8-.67,2.19-1.02,3.27h2.08Z"></path><path class="cls-1" d="m33.68,8.31s-.02-.11.06-.11h1.43c.08,0,.11.01.14.08l1.13,2.06h.02l1.19-2.08c.04-.06.05-.06.11-.06h1.26c.07,0,.1.04.06.1-.42.67-1.33,2.13-1.8,2.78.51.8,1.5,2.28,1.92,2.89.05.05.02.1-.06.1h-1.46c-.07,0-.12-.04-.15-.1l-1.19-2.07h-.01l-1.23,2.09s-.05.07-.13.07h-1.27c-.06,0-.1-.06-.06-.11.5-.75,1.32-2.06,1.83-2.81l-1.78-2.84Z"></path><path class="cls-1" d="m41.2,11.47c.04.83.58,1.5,1.8,1.5.54,0,1.02-.1,1.48-.29.04-.02.07-.01.07.05v.99c0,.07-.02.11-.07.13-.45.21-.98.35-1.79.35-2.17,0-2.94-1.52-2.94-2.99,0-1.65,1-3.12,2.8-3.12s2.44,1.38,2.44,2.51c0,.33-.01.61-.05.74-.01.05-.04.07-.1.08-.17.04-.64.05-1.23.05h-2.42Zm1.77-1.02c.45,0,.61,0,.65-.01v-.1c0-.35-.24-1.11-1.14-1.11-.82,0-1.19.63-1.29,1.21h1.77Z"></path><path class="cls-1" d="m48.28,9.24c-.63,0-.84.26-.84.51s.18.44.94.74c1.36.5,1.82,1.04,1.82,1.88,0,1.12-.88,1.82-2.34,1.82-.7,0-1.32-.13-1.68-.33-.06-.04-.08-.06-.08-.13v-1.13c0-.06.05-.08.1-.06.51.33,1.17.48,1.7.48.62,0,.92-.21.92-.52s-.23-.49-.96-.79c-1.3-.48-1.76-1.01-1.76-1.87,0-.9.74-1.75,2.23-1.75.69,0,1.21.1,1.5.24.06.04.07.08.07.14v1.05c0,.06-.04.1-.11.07-.37-.2-.96-.35-1.49-.35Z"></path><path class="cls-1" d="m53.46,9.24c-.63,0-.84.26-.84.51s.18.44.94.74c1.36.5,1.82,1.04,1.82,1.88,0,1.12-.88,1.82-2.34,1.82-.7,0-1.32-.13-1.68-.33-.06-.04-.08-.06-.08-.13v-1.13c0-.06.05-.08.1-.06.51.33,1.17.48,1.7.48.62,0,.92-.21.92-.52s-.23-.49-.96-.79c-1.3-.48-1.76-1.01-1.76-1.87,0-.9.74-1.75,2.23-1.75.69,0,1.21.1,1.5.24.06.04.07.08.07.14v1.05c0,.06-.04.1-.11.07-.37-.2-.96-.35-1.49-.35Z"></path><path class="cls-1" d="m59.55,13.1c.25-.84.86-2.74,2.33-6.82.01-.05.04-.07.1-.07h.87s.07.02.06.08l-2.83,7.71c-.02.06-.05.07-.11.07h-.94c-.06,0-.08-.01-.11-.06l-2.89-7.72s-.01-.08.06-.08h.92c.06,0,.07.01.08.06,1.37,3.64,2.23,6.06,2.44,6.83h.02Z"></path><path class="cls-1" d="m64.07,11.3c-.01,1.13.64,2.02,1.99,2.02.52,0,1.02-.1,1.49-.32.04-.02.06,0,.06.05v.68c0,.07-.02.1-.06.12-.4.2-.93.35-1.68.35-2.06,0-2.8-1.51-2.8-2.96,0-1.67.98-3.06,2.63-3.06s2.32,1.38,2.32,2.39c0,.3-.02.51-.05.62,0,.04-.04.07-.08.07-.18.04-.7.05-1.23.05h-2.59Zm2.23-.74c.58,0,.73-.01.76-.02.01-.04.01-.1.01-.13,0-.43-.29-1.42-1.4-1.42-.99,0-1.48.77-1.58,1.57h2.21Z"></path><path class="cls-1" d="m69.47,9.63c0-.4-.02-1.07-.05-1.27,0-.05.01-.07.07-.07h.74c.06,0,.08.02.11.07.04.11.05.33.07.59.52-.52,1.13-.79,1.82-.79.85,0,1.94.42,1.94,2.3v3.52c0,.06-.02.08-.08.08h-.83c-.06,0-.08-.02-.08-.1v-3.42c0-.9-.39-1.51-1.23-1.51-.61,0-1.11.27-1.49.73v4.21c0,.06-.01.08-.07.08h-.84s-.07-.02-.07-.08v-4.36Z"></path><path class="cls-1" d="m78.58,13.9s-.01.1-.07.12c-.27.12-.57.17-.89.17-.87,0-1.39-.42-1.39-1.56v-3.49h-.81c-.07-.01-.08-.04-.08-.1v-.68c0-.06.02-.08.08-.08h.81c.01-.44.06-1.26.11-1.52.01-.05.04-.07.08-.08l.81-.13s.07,0,.07.05c-.04.42-.07,1.11-.07,1.69h1.26s.07.02.07.08v.7s-.02.07-.07.07h-1.26v3.34c0,.55.2.86.73.86.18,0,.36-.02.56-.1.04-.01.07-.01.07.05v.61Z"></path><path class="cls-1" d="m84.43,12.81c0,.63.04.93.07,1.19,0,.05-.01.07-.07.07h-.76c-.06,0-.07-.01-.1-.06-.04-.13-.06-.35-.07-.51-.5.51-1.13.69-1.73.69-1.01,0-1.96-.51-1.96-2.24v-3.59c0-.06.02-.07.08-.07h.84s.06.02.06.07v3.47c0,.92.43,1.48,1.26,1.48.57,0,1.02-.21,1.38-.61v-4.34s.02-.07.08-.07h.83c.07,0,.07.02.07.07v4.45Z"></path><path class="cls-1" d="m87.12,8.29c.07,0,.08.02.11.08.05.14.08.56.1.82.42-.57,1.15-1.02,1.92-1.02.06,0,.08.01.08.08v.86c0,.06-.01.07-.08.07-.82-.01-1.57.39-1.87.87v3.95c-.01.06-.04.07-.08.07h-.85c-.06,0-.08-.02-.08-.08v-4.11c0-.5-.02-1.19-.06-1.52,0-.05.01-.07.06-.07h.76Z"></path><path class="cls-1" d="m91.07,11.3c-.01,1.13.64,2.02,1.99,2.02.52,0,1.02-.1,1.49-.32.04-.02.06,0,.06.05v.68c0,.07-.02.1-.06.12-.4.2-.93.35-1.68.35-2.06,0-2.8-1.51-2.8-2.96,0-1.67.98-3.06,2.63-3.06s2.32,1.38,2.32,2.39c0,.3-.02.51-.05.62,0,.04-.04.07-.08.07-.18.04-.7.05-1.23.05h-2.59Zm2.23-.74c.58,0,.73-.01.76-.02.01-.04.01-.1.01-.13,0-.43-.29-1.42-1.4-1.42-.99,0-1.48.77-1.58,1.57h2.21Z"></path><path class="cls-1" d="m98.25,8.99c-.79,0-1.05.38-1.05.74s.21.61,1.11.96c1.2.46,1.69.95,1.69,1.8,0,1.09-.89,1.7-2.13,1.7-.65,0-1.25-.14-1.59-.35-.04-.02-.06-.05-.06-.11v-.8c0-.06.04-.08.07-.06.48.33,1.08.48,1.61.48.76,0,1.13-.33,1.13-.77s-.26-.7-1.08-1.02c-1.19-.45-1.69-.94-1.69-1.79s.73-1.61,2.02-1.61c.65,0,1.14.12,1.39.26.06.02.06.07.06.12v.73c0,.06-.04.1-.1.06-.33-.2-.88-.35-1.38-.35Z"></path><path class="cls-1" d="m14.9,16.08h-1.1l-4.35-11.47h-1.08l-.47-1.27h2.54l3.83,9.65h.28l3.62-9.39c-1.89-2.2-4.7-3.6-7.83-3.6C4.63,0,0,4.63,0,10.33c0,1.75.44,3.4,1.21,4.85h1.15L6.57,4.61h-1.32v-1.27h1.96s.62,1.74.62,1.74l-2.07,5.42h5.24l.44,1.27h-6.18l-1.17,3.4h1.18v1.27h-3.28c1.88,2.56,4.91,4.22,8.33,4.22,5.71,0,10.33-4.63,10.33-10.33,0-1.94-.53-3.75-1.46-5.3l-4.3,11.04Z"></path></svg> 