<?xml version="1.0" encoding="UTF-8"?> <svg xmlns="http://www.w3.org/2000/svg" id="Layer_1" width="599.76" height="400.32" viewBox="0 0 599.76 400.32"><defs><style>.cls-1{fill:#fff;}</style></defs><g id="Layer_1-2"><path class="cls-1" d="m300.63,173.07l-15.94,51.02h-7.43l-12.91-32.93-12.58,32.93h-7.43l-16.3-51.02h8.89l11.54,37.67,14.28-36.92h3.12l14.69,36.94,11.28-37.68h8.77,0Z"></path><path class="cls-1" d="m341.42,200.4v23.72h-8.09v-22.06c0-7.13-3.05-10.95-9.03-10.95s-10.58,4.96-10.58,11.93v21.07h-8.09v-53.48h8.09v18.59c3.02-3.37,7.53-5.36,12.79-5.36,9.19-.02,14.91,6.39,14.91,16.53h0Z"></path><path class="cls-1" d="m348.86,170.29h8.36v8.34h-8.36v-8.34Zm.14,14.46h8.09v39.37h-8.09v-39.37Z"></path><path class="cls-1" d="m390.07,216.77v7.34h-6.01c-8.62,0-13.94-5.33-13.94-14.03v-18.42h-7.03v-1.57l13.7-14.56h1.38v9.19h11.72v6.93h-11.65v17.78c0,4.7,2.6,7.31,7.39,7.31h4.48l-.02.02Z"></path><path class="cls-1" d="m433.5,207.17h-31.95c1.02,6.39,5.6,10.3,12.05,10.3,4.7,0,8.53-2.17,10.6-5.76h8.53c-3.14,8.31-10.32,13.36-19.12,13.36-11.51,0-20.23-8.89-20.23-20.64s8.7-20.64,20.23-20.64,20.08,9.29,20.08,20.74c-.02.88-.08,1.76-.17,2.64h0Zm-31.75-6.56h23.8c-1.45-5.98-5.96-9.52-11.94-9.52s-10.54,3.69-11.85,9.52Z"></path><path class="cls-1" d="m438.56,204.4c0-11.75,8.89-20.61,20.64-20.61,9.74,0,17.33,5.96,19.53,14.99h-8.01c-2.08-4.53-6.39-7.27-11.51-7.27-7.1,0-12.4,5.6-12.4,12.89s5.39,12.93,12.4,12.93c5.15,0,9.32-2.78,11.48-7.56h8.17c-2.17,9.2-9.91,15.3-19.63,15.3-11.75.02-20.66-8.91-20.66-20.66h0Z"></path><path class="cls-1" d="m525.88,184.72v39.37h-6.53l-.78-4.78c-3.57,3.6-8.54,5.76-14.28,5.76-11.73,0-20.49-8.86-20.49-20.66s8.77-20.63,20.49-20.63c5.8,0,10.84,2.19,14.4,5.86l.94-4.91h6.25,0Zm-8.11,19.69c0-7.43-5.43-12.91-12.85-12.91s-12.89,5.55-12.89,12.91,5.46,12.91,12.89,12.91,12.85-5.48,12.85-12.91Z"></path><path class="cls-1" d="m554.5,183.79c11.77,0,20.39,8.79,20.39,20.64s-8.62,20.66-20.39,20.66c-5.1,0-9.62-1.76-13.06-4.76v17.9h-8.09v-53.48h5.45l1.53,4.84c3.55-3.64,8.5-5.82,14.18-5.82h0Zm12.2,20.64c0-7.43-5.43-12.91-12.85-12.91s-12.89,5.55-12.89,12.91,5.46,12.91,12.89,12.91,12.85-5.48,12.85-12.91Z"></path><path class="cls-1" d="m131.93,219.49c9.6-1.1,18.47-6.91,24.7-14.2.69-.81,1.31-1.64,1.96-2.48,7.15-9.3,11.75-20.39,17.33-30.77,6.07-11.3,14.14-22.45,26-27.4-12.61-2.96-25.48,5.29-33.12,15.77-4.15,5.68-7.22,12.01-10.18,18.42-2.48,5.39-4.9,10.85-7.76,16.04-4.88,8.84-11.85,17.3-20.76,21.52-.1-.17-.19-.35-.29-.51-1.27-2.31-2.45-4.67-3.58-7.05,1.17-1.12,2.29-2.29,3.33-3.5,8.34-9.77,13.2-21.94,19.3-33.26,1.27-2.37,2.64-4.72,4.1-7.01,5.53-8.68,12.51-16.47,21.9-20.39-12.61-2.96-25.48,5.29-33.12,15.77-1.1,1.51-2.1,3.05-3.07,4.64-5.76,9.44-9.52,20.08-14.89,29.81-.71,1.27-1.45,2.53-2.26,3.78-2.81-6-5.76-11.89-9.63-17.22-7.64-10.48-20.51-18.73-33.12-15.77,11.85,4.96,19.9,16.1,26,27.4,2.86,5.33,5.46,10.84,8.29,16.2,1.16,2.19,2.35,4.37,3.62,6.5,2.19,3.7,4.58,7.27,7.39,10.56,8.34,9.77,21.41,16.89,34.63,13.58-11.5-1.74-20.47-10.5-26.72-20.41h-.04Z"></path><path class="cls-1" d="m75.96,215.85c-6.27-11.34-10.3-23.97-17.96-34.46-7.64-10.48-20.51-18.73-33.12-15.77,11.85,4.96,19.9,16.1,26,27.4s10.95,23.49,19.3,33.26c8.35,9.77,21.41,16.89,34.63,13.58-12.83-1.9-22.57-12.68-28.83-24.02h-.02Z"></path><path class="cls-1" d="m104.79,219.49c-.65-1.04-1.27-2.08-1.86-3.14-.1-.17-.19-.35-.29-.51-6.27-11.34-10.3-23.97-17.96-34.46-7.64-10.48-20.51-18.73-33.12-15.77,11.85,4.96,19.9,16.1,26,27.4,6.1,11.32,10.95,23.49,19.3,33.26,8.35,9.77,21.41,16.89,34.63,13.58-11.46-1.71-20.41-10.46-26.68-20.37h-.02Z"></path><path class="cls-1" d="m195.44,160.39c-7.64,10.48-11.7,23.09-17.96,34.46-4.55,8.2-10.89,16.1-18.9,20.57-3.05,1.71-6.36,2.92-9.91,3.45,3.33.84,6.66,1,9.91.62,9.6-1.1,18.49-6.89,24.72-14.2,8.34-9.77,13.2-21.94,19.3-33.26,6.1-11.3,14.14-22.45,26-27.4-12.63-2.96-25.5,5.29-33.15,15.77h0Z"></path><path class="cls-1" d="m248.02,242.51h2.24l4.17,10.85,4.17-10.85h2.24l-5.33,13.58h-2.14l-5.34-13.58h0Z"></path><path class="cls-1" d="m276.8,254.14v1.94h-9.77v-13.58h9.6v1.94h-7.48v3.58h5.91v1.94h-5.91v4.17h7.65Z"></path><path class="cls-1" d="m295.76,242.51v13.58h-1.84l-7.56-9.77v9.77h-2.14v-13.58h1.84l7.56,9.79v-9.79h2.14Z"></path><path class="cls-1" d="m312.23,242.51v1.94h-4.07v11.63h-2.14v-11.63h-4.07v-1.94h10.29,0Z"></path><path class="cls-1" d="m326.25,253.25c.71-.72,1.05-1.59,1.05-2.59v-8.15h2.14v8.15c0,1.55-.55,2.88-1.67,3.98-1.12,1.1-2.47,1.64-4.05,1.64s-2.94-.55-4.05-1.64c-1.12-1.1-1.67-2.41-1.67-3.96v-8.15h2.14v8.15c0,1,.35,1.88,1.05,2.6s1.55,1.08,2.51,1.08c1-.02,1.84-.39,2.55-1.12h0Z"></path><path class="cls-1" d="m336.91,242.51h5.72c1.26,0,2.29.39,3.12,1.19.83.81,1.24,1.78,1.24,2.98,0,.55-.1,1.08-.27,1.57-.19.49-.41.86-.69,1.14s-.53.53-.81.72c-.27.22-.49.35-.69.43l-.27.12,3.1,5.43h-2.33l-2.9-5.23h-3.1v5.23h-2.12v-13.58h0Zm7.31,2.59c-.43-.43-.96-.65-1.59-.65h-3.58v4.46h3.58c.62,0,1.16-.22,1.59-.65s.65-.96.65-1.59c-.02-.65-.24-1.17-.65-1.59h0Z"></path><path class="cls-1" d="m363.78,254.14v1.94h-9.77v-13.58h9.6v1.94h-7.46v3.58h5.91v1.94h-5.91v4.17h7.64Z"></path><path class="cls-1" d="m389.25,242.51c1.29,0,2.37.43,3.25,1.27s1.31,1.88,1.31,3.1-.43,2.24-1.31,3.1c-.88.84-1.96,1.27-3.25,1.27h-3.29v4.84h-2.14v-13.58h5.43,0Zm-3.29,1.94v4.84h3.29c.67,0,1.24-.24,1.71-.69.47-.47.71-1.04.71-1.72s-.24-1.26-.71-1.72-1.04-.71-1.71-.71h-3.29Z"></path><path class="cls-1" d="m403.18,242.51h2.14l5.62,13.58h-2.24l-1.45-3.58h-6.01l-1.45,3.58h-2.24l5.62-13.58h0Zm-1.17,8.05h4.46l-2.24-5.62-2.24,5.62h0Z"></path><path class="cls-1" d="m417.12,242.51h5.72c1.26,0,2.29.39,3.12,1.19s1.24,1.78,1.24,2.98c0,.55-.1,1.08-.27,1.57-.19.49-.41.86-.69,1.14s-.53.53-.81.72c-.27.22-.49.35-.69.43l-.27.12,3.1,5.43h-2.31l-2.9-5.23h-3.1v5.23h-2.14v-13.58h0Zm7.31,2.59c-.43-.43-.96-.65-1.59-.65h-3.58v4.46h3.58c.62,0,1.16-.22,1.59-.65s.65-.96.65-1.59c-.02-.65-.24-1.17-.65-1.59h0Z"></path><path class="cls-1" d="m442.83,242.51v1.94h-4.07v11.63h-2.14v-11.63h-4.07v-1.94h10.29,0Z"></path><path class="cls-1" d="m460.55,242.51v13.58h-1.84l-7.56-9.77v9.77h-2.14v-13.58h1.84l7.56,9.79v-9.79h2.14Z"></path><path class="cls-1" d="m477.77,254.14v1.94h-9.77v-13.58h9.6v1.94h-7.46v3.58h5.91v1.94h-5.91v4.17h7.64Z"></path><path class="cls-1" d="m485.23,242.51h5.72c1.26,0,2.29.39,3.12,1.19.83.8,1.24,1.78,1.24,2.98,0,.55-.1,1.08-.27,1.57-.19.49-.41.86-.69,1.14s-.53.53-.81.72c-.27.22-.49.35-.69.43l-.27.12,3.1,5.43h-2.33l-2.9-5.23h-3.1v5.23h-2.14v-13.58h.02Zm7.29,2.59c-.43-.43-.96-.65-1.59-.65h-3.58v4.46h3.58c.62,0,1.16-.22,1.59-.65s.65-.96.65-1.59-.22-1.17-.65-1.59h0Z"></path><path class="cls-1" d="m508.22,251.15c-.27-.28-.6-.51-1.02-.67s-.88-.31-1.39-.43c-.51-.14-1.02-.29-1.53-.47s-.98-.41-1.39-.69-.76-.65-1.02-1.14c-.27-.49-.39-1.08-.39-1.76,0-1.04.39-1.92,1.19-2.62s1.88-1.05,3.25-1.05c.51,0,1,.05,1.45.17.47.12.84.28,1.16.43.31.17.57.33.81.51.24.17.39.31.51.43l.16.19-1.35,1.38s-.05-.05-.12-.14c-.05-.05-.16-.16-.31-.28-.17-.14-.35-.26-.55-.35s-.45-.19-.76-.28-.65-.12-.98-.12c-.71,0-1.27.17-1.69.53-.43.35-.65.74-.65,1.21,0,.41.14.76.39,1.05.27.28.6.51,1.02.67s.88.31,1.39.43c.51.14,1.02.29,1.53.47.51.19.98.41,1.39.69s.76.65,1.02,1.14.39,1.08.39,1.76c0,1.19-.43,2.17-1.29,2.94s-2.04,1.14-3.57,1.14c-.62,0-1.21-.08-1.76-.22-.57-.16-1.02-.33-1.38-.53s-.67-.41-.94-.62-.45-.39-.57-.53l-.19-.24,1.35-1.35s.05.1.12.17.19.19.41.38.43.33.69.47.57.26.98.38.84.17,1.29.17c.84,0,1.51-.19,1.98-.61.49-.41.72-.92.72-1.53.04-.47-.08-.81-.35-1.1h0Z"></path></g></svg> 