<?xml version="1.0" encoding="UTF-8"?> <svg xmlns="http://www.w3.org/2000/svg" id="Layer_1" width="100" height="16.67" viewBox="0 0 100 16.67"><defs><style>.cls-1{fill:#3a357e;}</style></defs><polygon class="cls-1" points="98.51 1.49 1.49 1.49 1.49 14.54 25.93 14.54 25.93 13.86 2.17 13.86 2.17 2.18 97.82 2.18 97.82 13.86 74.12 13.86 74.12 14.54 98.51 14.54 98.51 1.49"></polygon><polygon class="cls-1" points="100 0 0 0 0 16.03 25.93 16.03 25.93 15.6 .43 15.6 .43 .43 99.57 .43 99.57 15.6 74.12 15.6 74.12 16.03 100 16.03 100 0"></polygon><path class="cls-1" d="m11.11,7.66l2.4-1.06c0,.34-.04.94-.04,1.28s.04.94.04,1.28l-2.41-1.21h-.14v.85c0,1.21.93,1.8,2.9,1.8v.29c-1.14,0-3.14-.04-4.28-.04s-3.14.04-4.28.04v-.29c1.39,0,1.86-.89,1.86-2.85,0-1.69-.47-2.42-1.86-2.42v-.29c1.32,0,3.63.04,4.94.04s3.63-.04,4.94-.04l-.15,2.17s-1.13-.6-1.87-.96c-.73-.36-1.92-.91-1.92-.91h-.29v2.33h.15Z"></path><path class="cls-1" d="m22.57,11.04c-3.23,0-5.3-.67-5.3-2.96,0-2.56,1.84-3.18,5.16-3.18,3.01,0,5.32.62,5.32,3.18,0,2.3-2.16,2.96-5.18,2.96Zm-.07-5.86c-.7,0-.99.84-.99,2.89,0,1.84.31,2.66.99,2.66.75,0,1-.83,1-2.66,0-2.05-.26-2.89-1-2.89Z"></path><path class="cls-1" d="m39.69,11.04c-2.51,0-3-.63-3.22-1.68-.13-.63-.26-1.27-1.21-1.27h-.36v1.18c0,.94.45,1.33,1.59,1.33v.32c-.92,0-2.54-.04-3.46-.04s-2.55.04-3.47.04v-.32c1.44,0,1.9-1.62,1.9-2.84,0-1.33-.5-2.43-1.9-2.43v-.29h6.94c2.97,0,4.34.34,4.34,1.52,0,1.1-1.08,1.34-1.79,1.34v.15c.86,0,1.38.52,1.71,1.22.33.71.72,1.33,1.4,1.33v.29c-.55.1-1.2.15-2.48.15Zm-4.78-5.7v2.42c1.41,0,1.83-.51,1.83-1.22,0-.93-.58-1.2-1.83-1.2Z"></path><path class="cls-1" d="m52.75,6.6c-.53-.47-1.33-1.26-1.33-1.26h-.22v3.39c0,1.3,1.09,1.87,2.68,1.87v.32c-1.23,0-3.39-.04-4.61-.04s-3.39.04-4.61.04v-.32c1.7,0,2.68-.5,2.68-1.8v-3.47h-.22s-.86.89-1.43,1.42c-.64.6-1.7,1.48-1.7,1.48v-3.21c1.42,0,3.9.04,5.32.04s3.9-.04,5.32-.04v3.14s-1.17-.94-1.87-1.56Z"></path><path class="cls-1" d="m66.93,7.93v.52c0,1.76-.71,2.59-3.79,2.59-3.33,0-5.3-.42-5.3-2.59v-1.62c0-1.02-.52-1.5-1.43-1.5v-.32c.96,0,2.63.04,3.58.04s2.63-.04,3.58-.04c.75,0,2.05.04,2.79.04s2.05-.04,2.79-.04v.32c-1.49,0-2.24.93-2.24,2.6Zm-.42,0c0-1.67-.82-2.6-2.92-2.6-.87,0-1.35.45-1.35,1.5v1.61c0,1.7.51,2.16,2,2.16,1.33,0,2.27-.51,2.27-2.16v-.51h0Z"></path><path class="cls-1" d="m80.97,7.94v2.95c-.5,0-1.37-.04-1.87-.04s-1.37.04-1.87.04l-3.99-3.93v.9c0,1.79.7,2.73,2.43,2.73v.29c-.64,0-1.78-.04-2.42-.04s-1.78.04-2.43.04v-.29c1.32,0,1.9-.8,1.9-2.72s-.56-2.54-1.9-2.54v-.29c.81,0,2.24.04,3.05.04s2.23-.04,3.04-.04l3.48,3.13v-.25c0-1.99-1.05-2.59-2.3-2.59v-.29c.67,0,1.86.04,2.53.04s1.85-.04,2.52-.04v.29c-1.33,0-2.19.6-2.19,2.6Z"></path><path class="cls-1" d="m90.62,7.66l2.4-1.06c0,.34-.04.94-.04,1.28s.04.94.04,1.28l-2.4-1.21h-.15v2.65h.29s1.18-.61,1.92-1.04c.74-.42,1.86-1.13,1.86-1.13l.15,2.48c-1.32,0-3.63-.04-4.94-.04s-3.63.04-4.94.04v-.32c1.35,0,1.86-.77,1.86-2.85,0-1.85-.58-2.42-1.86-2.42v-.32c1.32,0,3.63.04,4.94.04s3.63-.04,4.94-.04l-.15,2.19s-1.13-.59-1.88-.96c-.73-.36-1.91-.91-1.91-.91h-.29v2.33h.15Z"></path><path class="cls-1" d="m30.82,16.67c-1.6,0-2.26-.16-2.26-.82,0-.48.45-.66,1.06-.72-.09-.18-.13-.39-.13-.64,0-.94.66-1.23,1.99-1.23.99,0,1.3.22,1.3.67,0,.26-.23.54-.81.5l-.08-.1c.12-.13.15-.32.15-.44,0-.29-.15-.46-.56-.46s-.61.16-.61.49c0,.6.47.77,1.9.69,0,.31.05.57.15.78,0-.82.49-1.07,1-1.07.62,0,.94.3.94.76,0,.43-.34.7-.8.7-.42,0-.73-.26-.73-.64s.29-.54.69-.54c.08,0,.18.01.25.04l.02-.08c-.12-.04-.25-.05-.38-.05-.46,0-.77.23-.77.8,0,.39.28.68.85.68.31,0,.55-.08.73-.17l.09.08c-.29.59-.74.76-1.98.76-.34,0-.75-.02-1.07-.15-.24.13-.54.16-.94.16Zm-1.15-.81c0,.32.31.62,1.15.62.27,0,.5,0,.71-.08-.19-.13-.32-.31-.32-.53-.57,0-1-.12-1.29-.35-.15.1-.25.18-.25.35Z"></path><path class="cls-1" d="m40.14,14.75l1.36-.6c0,.2-.02.53-.02.73s.02.53.02.73l-1.37-.69h-.08v.48c0,.69.53,1.02,1.65,1.02v.17c-.65,0-1.79-.02-2.43-.02s-1.79.02-2.43.02v-.17c.79,0,1.06-.5,1.06-1.62,0-.96-.27-1.38-1.06-1.38v-.17c.75,0,2.06.02,2.81.02s2.06-.02,2.81-.02l-.08,1.23s-.64-.34-1.07-.55c-.42-.2-1.09-.52-1.09-.52h-.17v1.32h.09Z"></path><path class="cls-1" d="m48.85,16.67c-1.43,0-1.71-.36-1.83-.96-.08-.36-.15-.72-.69-.72h-.2v.67c0,.54.26.76.9.76v.18c-.53,0-1.44-.02-1.97-.02s-1.45.02-1.97.02v-.18c.82,0,1.08-.92,1.08-1.61,0-.76-.28-1.38-1.08-1.38v-.17h3.95c1.69,0,2.47.19,2.47.87,0,.63-.61.76-1.02.76v.08c.49,0,.79.29.97.69.19.4.41.76.79.76v.17c-.31.06-.68.08-1.41.08Zm-2.72-3.25v1.38c.8,0,1.04-.29,1.04-.69,0-.53-.33-.68-1.04-.68Z"></path><path class="cls-1" d="m55.31,16.58c-.59,0-1.61.02-2.2.02-.32,0-.87-.02-1.19-.02s-.87.02-1.19.02v-.18c.6,0,1.09-.46,1.45-1.24l.87-1.92h2.21l.85,1.92c.3.67.71,1.24,1.39,1.24v.18c-.58,0-1.6-.02-2.19-.02Zm-2.84-1.24c0,.44.14,1.08.64,1.08.44,0,.6-.62.6-1.08h-1.24Zm.63-1.62l-.62,1.43h1.21l-.6-1.43Z"></path><path class="cls-1" d="m63.28,16.58c-.55,0-1.51.02-2.06.02h-.31c-.39,0-1.08-.02-1.47-.02s-1.08.02-1.48.02v-.18c.71,0,1.08-.41,1.08-1.55s-.36-1.45-1.08-1.45v-.18c.49,0,1.34.02,1.83.02s1.34-.02,1.83-.02l.64,1.04.64-1.04c.33,0,.89.02,1.22.02s.89-.02,1.22-.02v.18c-.66,0-1.1.34-1.1,1.45,0,1.17.43,1.55,1.1,1.55v.18c-.55,0-1.51-.02-2.06-.02Zm-3.89-2.36v.18c0,1.14.73,2.03,1.39,2.03l-1.39-2.21Zm3.3,0l-1.39,2.21c.66,0,1.39-.91,1.39-2.03v-.18Z"></path><path class="cls-1" d="m69.12,14.75l1.36-.6c0,.2-.02.53-.02.73s.02.53.02.73l-1.36-.69h-.08v1.51h.17s.67-.35,1.09-.59c.42-.24,1.06-.64,1.06-.64l.08,1.41c-.75,0-2.06-.02-2.81-.02s-2.06.02-2.81.02v-.18c.77,0,1.06-.44,1.06-1.62,0-1.05-.33-1.38-1.06-1.38v-.18c.75,0,2.06.02,2.81.02s2.06-.02,2.81-.02l-.08,1.24s-.64-.34-1.07-.54c-.42-.2-1.09-.52-1.09-.52h-.17v1.32h.08,0Z"></path></svg> 