<?xml version="1.0" encoding="UTF-8"?> <svg xmlns="http://www.w3.org/2000/svg" id="Layer_1" width="100" height="11.91" viewBox="0 0 100 11.91"><defs><style>.cls-1{fill-rule:evenodd;}.cls-1,.cls-2{fill:#3a357e;stroke-width:0px;}</style></defs><path class="cls-2" d="m37.46,2.67V.24h-9.34v2.43h3.42v8.99h2.48V2.67h3.44Z"></path><path class="cls-2" d="m40.69,6.96c.05-.74.53-1.29,1.29-1.29.86,0,1.27.6,1.27,1.39v4.61h2.39v-5.03c0-1.76-.91-3.19-2.95-3.19-.69,0-1.51.23-1.99.73V0h-2.39v11.67h2.39v-4.7Z"></path><path class="cls-2" d="m48.87,6.7c.05-.6.55-1.35,1.55-1.35,1.13,0,1.54.74,1.57,1.35h-3.12Zm3.3,2.08c-.22.63-.71,1.05-1.57,1.05-.93,0-1.73-.64-1.77-1.55h5.43s.05-.42.05-.76c0-2.58-1.49-4.11-3.91-4.11-2.03,0-3.89,1.64-3.89,4.22s1.92,4.27,4.07,4.27c1.98,0,3.22-1.16,3.6-2.55l-1.99-.58Z"></path><path class="cls-2" d="m61.18,9.26V2.64h1.44c1.71,0,3.11,1.03,3.11,3.32s-1.4,3.3-3.11,3.3h-1.44Zm1.54,2.4c3.36,0,5.61-2.18,5.61-5.7S66.08.24,62.73.24h-4.04v11.42h4.02Z"></path><path class="cls-2" d="m74.53,3.61c-.16-.05-.39-.08-.63-.08-.63,0-1.62.26-2.03,1.16v-1.08h-2.31v8.01h2.39v-3.5c0-1.6.86-2.18,1.82-2.18.24,0,.49.02.75.08v-2.42Z"></path><path class="cls-2" d="m80.64,11.51h2.29c-.02-.13-.08-.71-.08-1.43V3.5h-2.39v4.56c0,.81-.5,1.37-1.3,1.37-.85,0-1.26-.61-1.26-1.39V3.5h-2.39v5.06c0,1.71,1.07,3.13,2.97,3.13.79,0,1.68-.29,2.09-.98,0,.21.03.66.06.81Z"></path><path class="cls-2" d="m86.73,11.47v-4.61c0-.73.46-1.39,1.29-1.39s1.26.6,1.26,1.35v4.64h2.36v-4.62c0-.71.46-1.37,1.3-1.37s1.24.6,1.24,1.35v4.64h2.31v-5.19c0-2.18-1.41-3.06-2.89-3.06-1.05,0-1.81.35-2.42,1.26-.39-.79-1.19-1.26-2.31-1.26-.85,0-1.85.45-2.25,1.16v-.92h-2.28v8.01h2.39Z"></path><path class="cls-2" d="m98.41,10.36v-.17h-1.06v.17h.44v1.15h.18v-1.15h.44Z"></path><path class="cls-2" d="m100,11.52v-1.32h-.24l-.47,1.08-.46-1.08h-.25v1.32h.18v-1.03l.44,1.03h.17l.45-1.03v1.03h.18Z"></path><path class="cls-1" d="m0,1.15v.8h22.46V.35H0v.8Zm5.65,5.65c-1.02,1.72-1.89,3.09-1.93,3.04-.04-.05-.87-1.43-1.85-3.07C.9,5.13.08,3.79.05,3.79s-.05,1.74-.05,3.87v3.87h22.46V3.74l-1.81,3.03c-1,1.67-1.85,3.03-1.9,3.03s-.89-1.35-1.87-3.01c-.98-1.66-1.82-3.01-1.87-3.01s-.45.62-.9,1.38c-.45.76-1.28,2.14-1.83,3.08l-1.01,1.7-.39-.65c-.22-.36-1.03-1.73-1.81-3.05-.78-1.32-1.45-2.43-1.49-2.48-.04-.05-.91,1.32-1.93,3.04Z"></path></svg> 