<?xml version="1.0" encoding="UTF-8"?> <svg xmlns="http://www.w3.org/2000/svg" id="design" width="100" height="28.37" viewBox="0 0 100 28.37"><defs><style>.cls-1{fill:#0b75ba;}.cls-2{fill:#3c3c3c;}</style></defs><path class="cls-2" d="m13.78,14.86c.02,3.83-3.06,6.95-6.89,6.97-1.48,0-2.93-.48-4.11-1.38v7.04l-.21.07h0l-2.57.81V8.12h2.79v1.15c1.18-.9,2.62-1.38,4.11-1.38,3.83.03,6.91,3.15,6.89,6.97Zm-2.57,0c0-2.48-1.93-4.49-4.32-4.49s-4.32,2.02-4.32,4.49,1.93,4.49,4.32,4.49,4.34-2.02,4.34-4.49h-.02Zm17.48,0v1.09h-10.36c.14,1.99,2.2,3.37,4.15,3.37,2.89,0,4.23-1.87,4.23-1.87l1.67,1.67s-1.8,2.71-6.03,2.71c-3.91,0-6.75-2.93-6.75-6.97s2.94-6.97,6.55-6.97c3.85,0,6.55,2.87,6.55,6.97h-.02Zm-2.7-1.31s-.39-3.15-3.82-3.15c-3.19,0-3.83,3.15-3.83,3.15h7.66Zm11.68-5.67c-1.43,0-3.08.49-4.14,1.36v-1.23h-2.79v13.61h2.79l.02-7.98c0-1.83,1.82-3.3,3.73-3.3,2.04,0,3.33,1.1,3.45,2.96v8.32h2.79v-8.42c0-2.98-2.31-5.32-5.82-5.32h-.02Z"></path><path class="cls-1" d="m55.24,18.09l1.75,1.75-.44.45c-1.11,1.14-2.82,1.65-4.02,1.65-4.55,0-5.04-3.32-5.04-4.75v-6.58h-2.85v-2.61h2.85V.87h2.79v7.14h5.74v2.61h-5.75v5.88c0,1.91.66,2.76,2.14,2.76.86-.04,1.69-.34,2.38-.86l.45-.31Zm15.68-3.23v1.09h-10.37c.14,1.99,2.2,3.37,4.15,3.37,2.89,0,4.23-1.87,4.23-1.87l1.67,1.67s-1.8,2.71-6.03,2.71c-3.91,0-6.75-2.93-6.75-6.97s2.94-6.97,6.55-6.97c3.86,0,6.55,2.87,6.55,6.97Zm-2.7-1.31s-.41-3.15-3.84-3.15c-3.19,0-3.83,3.15-3.83,3.15h7.67Zm11.99,5.77c-2.46.03-4.48-1.94-4.52-4.4-.03-2.46,1.94-4.48,4.4-4.52,1.32-.02,2.57.55,3.43,1.55l1.8-1.8c-1.38-1.43-3.28-2.24-5.27-2.26-3.91,0-7.09,3.13-7.09,6.97s3.18,6.97,7.09,6.97c2.04-.02,3.98-.88,5.36-2.38l-1.81-1.81c-.82,1.05-2.08,1.66-3.41,1.67h0Zm13.96-11.43c-1.43,0-3.08.49-4.14,1.36V0l-2.79.87v20.74h2.79l.02-7.98c0-1.83,1.82-3.3,3.73-3.3,2.04,0,3.33,1.1,3.45,2.96v8.32h2.79v-8.42c-.01-2.98-2.33-5.32-5.84-5.32h0Z"></path></svg> 