<?xml version="1.0" encoding="UTF-8"?> <svg xmlns="http://www.w3.org/2000/svg" id="Layer_1" width="100" height="73.68" viewBox="0 0 100 73.68"><defs><style>.cls-1{fill:#3a357e;stroke-width:0px;}</style></defs><path class="cls-1" d="m40.4,33.08c0-1.49,1.18-2.66,2.69-2.66s2.69,1.17,2.69,2.66-1.18,2.66-2.69,2.66c-1.5,0-2.69-1.17-2.69-2.66h0Z"></path><path class="cls-1" d="m66.95,36.27c1.5,0,2.69-1.17,2.69-2.66s-1.18-2.66-2.69-2.66-2.69,1.17-2.69,2.66c0,1.49,1.18,2.66,2.69,2.66h0Z"></path><path class="cls-1" d="m57.92,36.27c1.51,0,2.69-1.17,2.69-2.66s-1.18-2.66-2.69-2.66-2.69,1.17-2.69,2.66c0,1.49,1.18,2.66,2.69,2.66h0Z"></path><path class="cls-1" d="m32.87,35.95c1.51,0,2.69-1.17,2.69-2.66s-1.18-2.66-2.69-2.66-2.69,1.17-2.69,2.66c0,1.49,1.18,2.66,2.69,2.66h0Z"></path><path class="cls-1" d="m81.57,7.8c-.33,2.98-2.15,5.74-5.7,5.74s-5.48-3.51-5.05-5.63c.21-1.6,5.37-5,5.81,1.69.86-1.06,1.39-2.76.32-5.2-.65-.75-4.31-2.34-6.35-1.07-1.71,1.82-2.36,4.04-.96,8.61.63,2.55,2.15,11.05,1.07,13.07-.65,1.81-1.61,4.03-3.65,3.93-1.51,0-3.45-.11-3.77-3.4-.86-2.34-.75-11.58-.75-11.58l-1.84,2.02s.43,5-.32,9.88c-.21,1.92-1.39,2.98-3.54,3.09-2.16.1-3.45-.64-3.66-3.72-.32-1.92-1.5-4.78-.21-12.43.21-2.34.88-9.15-3-9.57h-.02c-3.97.54-3.12,7.44-2.9,9.68,1.29,7.64.11,10.52-.21,12.43-.21,3.08-1.5,3.82-3.66,3.71-2.15-.1-3.33-1.17-3.55-3.08-.75-4.89-.31-9.88-.31-9.88l-1.84-2.02s.22,9.35-.75,11.58c-.32,3.3-2.26,3.4-3.77,3.4-2.04.11-3-2.12-3.65-3.93-.97-2.12.54-10.62,1.07-13.07,1.4-4.67.76-6.8-.97-8.6-2.15-1.17-5.8.42-6.34,1.06-.97,2.55-.53,4.25.43,5.21.43-6.69,5.59-3.3,5.7-1.7.43,2.13-1.5,5.63-5.05,5.63s-5.37-2.65-5.7-5.73c-4.41-.96-4.31-3.09-4.31-3.09,0,0,0-.21,3.23-.64,2.69-1.17,2.69-.96,3.44-2.13,4.63-3.51,10.44-1.48,12.05-.21,1.71,1.38,5.7,9.03,7.31,9.56,2.26-3.93,3.44-9.88,9.67-10.4h.11c6.34.52,7.53,6.37,9.68,10.4,1.61-.64,5.59-8.18,7.31-9.56,1.72-1.38,7.52-3.4,12.15.1.76,1.07.76.86,3.44,2.13,3.23.42,3.23.64,3.23.64,0,0,.11,2.03-4.19,3.09Z"></path><path class="cls-1" d="m97.59,42.22c-1.18,0-3.65.96-5.59,4.89-1.83-2.02-4.84-7.22-4.84-7.22,0,0-5.05-7.65-3.22-12.22.54-1.06.75-3.93,5.81-3.72.22.21,3.76.43,3.01,4.25-.75-1.7-4.94-2.87-5.16.21-.22,1.7.11,4.57,4.3,3.72.54.11,7.42-2.02,2.04-9.35-3.76-2.98-8.92-2.44-11.18.32-3.22,2.23-2.69,8.93-2.15,10.3.43,1.38,3.23,7.86,6.23,12.54-.54-.11-5.27-.95-8.06-3.72.65.22,4.62-1.06,3.12-3.93-.32-1.06-1.5-1.28-3.01-1.28-.86,0-2.69.11-3.44,3.61.75,3.08.11,3.19,4.19,5.63,2.15,1.49,2.8.64,5.91,3.83-2.26,1.06-4.51,1.38-5.8,7.54-.22,1.81,1.5,6.16,5.48,6.16.75.21,5.38-.21,3.76-4.78-1.07-1.49-3.44-1.49-3.87,2.02-1.5-.64-2.15-1.81-2.26-3.61.22-2.76,2.9-4.25,4.95-4.25,1.29.11,6.34,1.38,5.8,8.93-.64,2.76-4.94,6.9-7.53,6.69-1.93-1.91-3.22-2.98-5.91-.53-1.83-.22-7.42-3.19-7.31-9.67-.32-2.66-.43-13.81-1.5-17.21-2.04-4.57-4.73-4.15-5.7-.32-.54,1.59-1.07,6.9,0,12.75,0,1.81,2.47,7.97,6.02,12.11-1.83-.1-8.28-6.16-9.03-13.49-1.07-5.31-.54-7.65-2.8-12.64-1.07-1.38-1.72-1.7-2.47-1.7s-1.93-.43-3.22,2.02c-2.22,3.36-3.44,5.28-3.93,6.06-.03-.06-.05-.11-.05-.11,0,0-1.29-1.91-4.19-6.48-1.29-2.44-2.37-2.02-3.23-2.02-.75,0-1.51.32-2.47,1.7-2.15,4.99-1.72,7.33-2.79,12.64-.75,7.33-7.2,13.39-9.03,13.49,3.55-4.14,6.02-10.3,6.02-12.11,1.08-5.84.54-11.26,0-12.75-1.07-3.83-3.66-4.15-5.7.32-1.07,3.4-1.18,14.55-1.5,17.21.11,6.48-5.48,9.35-7.31,9.67-2.8-2.34-3.98-1.38-5.91.53-2.69.21-6.88-3.93-7.53-6.69-.43-7.54,4.62-8.82,5.81-8.93,2.04,0,4.73,1.59,4.95,4.35-.11,1.81-.75,2.98-2.26,3.61-.43-3.51-2.9-3.51-3.87-2.02-1.61,4.57,3.01,4.99,3.76,4.78,3.98,0,5.7-4.25,5.48-6.16-1.4-6.27-3.55-6.59-5.81-7.54,3.23-3.19,3.76-2.34,5.91-3.83,4.09-2.44,3.44-2.66,4.19-5.63-.75-3.72-2.58-3.82-3.55-3.82-1.5,0-2.69.21-3.01,1.27-1.5,2.98,2.36,4.14,3.12,3.93-2.8,2.87-7.42,3.61-8.06,3.72,3.01-4.78,5.7-11.26,6.24-12.54.43-1.38,1.07-8.07-2.15-10.31-2.26-2.87-7.42-3.29-11.18-.32-5.38,7.33,1.5,9.56,2.04,9.35,4.19.74,4.62-2.02,4.3-3.72-.22-3.08-4.3-1.91-5.16-.21-.75-3.82,2.8-4.04,3.01-4.25,5.05-.21,5.27,2.76,5.81,3.72,1.83,4.57-3.23,12.22-3.23,12.22,0,0-3.01,5.21-4.84,7.22-1.93-3.93-4.51-4.89-5.59-4.89-3.44,1.59-2.9,4.25-.54,4.57,2.15.22,2.04-.53,2.37-.21,1.29,2.23.75,3.83.54,5.42-2.15,6.69-2.15,8.61-.22,12.86,1.94,4.25,7.31,6.69,9.25,6.27,1.51,3.61,5.7,3.19,6.66.11,4.52.64,11.83-2.12,15.38-6.37,6.77-6.91,9.68-14.45,10.21-18.38.43.96,2.15,3.29,2.37,3.4-1.83,5.31-3.55,15.4-2.15,17.96.18.52.38.97.59,1.37.53,2.4,4.66,5.28,6.82-.73,1.09-2.06.29-8.54-.98-13.82-.38-1.95-.78-3.5-1.07-4.13.01,0,0-.04-.01-.09.41-.41,1.87-2.43,2.27-3.31.54,3.82,3.44,11.47,10.21,18.38,3.55,4.14,10.86,7.01,15.38,6.38.97,3.08,5.16,3.5,6.66-.11,1.93.43,7.31-1.91,9.24-6.27,1.93-4.25,1.93-6.27-.22-12.86-.21-1.59-.64-3.19.54-5.42.32-.32.22.42,2.37.21,2.26-.22,2.9-2.98-.54-4.57Z"></path></svg> 