<?xml version="1.0" encoding="UTF-8"?> <svg xmlns="http://www.w3.org/2000/svg" id="Layer_1" width="100" height="126.2" viewBox="0 0 100 126.2"><defs><style>.cls-1{fill:#fff;stroke-width:0px;}</style></defs><polygon class="cls-1" points="67.35 16.78 67.35 26.29 73.93 26.29 73.93 79.22 60.02 79.22 60.02 9.5 67.41 9.5 67.41 0 32.72 0 32.72 9.5 40.11 9.5 40.11 79.22 26.05 79.22 26.05 26.29 32.62 26.29 32.62 16.78 0 16.78 0 26.29 7.37 26.29 7.37 87.59 19.36 99.82 40.11 99.82 40.11 113.95 32.75 113.95 32.75 126.2 67.39 126.2 67.39 113.95 60.02 113.95 60.02 99.82 80.61 99.82 92.61 87.59 92.61 26.29 100 26.29 100 16.78 67.35 16.78"></polygon></svg> 