<?xml version="1.0" encoding="utf-8"?>
<!-- Generator: Adobe Illustrator 21.1.0, SVG Export Plug-In . SVG Version: 6.00 Build 0)  -->
<svg version="1.1" id="Adgorithms" xmlns="http://www.w3.org/2000/svg" xmlns:xlink="http://www.w3.org/1999/xlink" x="0px" y="0px"
	 viewBox="0 0 600 400" style="enable-background:new 0 0 600 400;" xml:space="preserve">
<style type="text/css">
	.st0{fill:#FFFFFF;}
	.st1{fill-rule:evenodd;clip-rule:evenodd;fill:#FFFFFF;}
	.st2{fill:#231F20;}
</style>
<g>
	<path class="st0" d="M217.9,166.8h4.3l19.9,65.2h-4.4l-5-16.5h-25.4l-4.9,16.5h-4.2L217.9,166.8z M231.5,211.6L220,173.5
		l-11.6,38.1H231.5z"/>
	<g>
		<path class="st0" d="M245.7,208.2c0-13.1,1.7-24.5,15.8-24.5c8.9,0,12.3,2.8,14.3,7.2V165h4.3v67.1l-3.4,0.3l-0.4-7.3
			c-1.9,4.5-5.4,7.8-14.9,7.8C247.3,232.9,245.7,221.3,245.7,208.2z M275.8,208.3c0-11.3-0.7-20.6-13.6-20.6
			c-10.9,0-12.2,9.3-12.2,20.6s1.2,20.6,12.2,20.6C275,228.9,275.8,219.5,275.8,208.3z"/>
		<path class="st0" d="M298.1,214.1c-0.8,1.2-1.1,2.5-1.1,3.8c0,3,2.2,3.8,8,3.8c12.9,0,17.2,3.2,17.2,11.6c0,9-5,13.6-17.4,13.6
			c-12.8,0-17.5-2.8-17.5-11.7c0-5.6,2.3-10.2,8.6-11.6c-2-1-2.9-2.9-2.9-5.4c0-1.7,0.6-3.8,1.9-5.5c-3.3-2.4-5.2-6.6-5.2-13.1
			c0-11.6,5.8-15.9,15-15.9c1.5,0,3.1,0.2,4.5,0.4l12.5-1.1v3.7h-7.3c3.4,2.4,5.2,6.5,5.2,12.9c0,11.6-5.9,15.7-15,15.7
			C302.3,215,300,214.8,298.1,214.1z M317.9,233.4c0-5.9-2.5-8-13.1-8c-10.1,0-13.2,3-13.2,9.2c0,6.6,3,8.6,13.3,8.6
			C314.7,243.1,317.9,240.1,317.9,233.4z M315.5,199.4c0-8.7-4-11.9-10.8-11.9c-6.6,0-10.8,3.2-10.8,11.9s4.1,11.8,10.8,11.8
			C311.5,211.2,315.5,208,315.5,199.4z"/>
		<path class="st0" d="M327.6,208.3c0-13.5,2-24.6,17.5-24.6c15.6,0,17.7,11.2,17.7,24.6c0,13.6-2.1,24.7-17.7,24.7
			C329.7,232.9,327.6,221.8,327.6,208.3z M358.3,208.4c0-11.2-1.2-20.6-13.3-20.6c-12,0-13.2,9.4-13.2,20.6s1.2,20.6,13.2,20.6
			C357.1,229,358.3,219.6,358.3,208.4z"/>
		<path class="st0" d="M371.6,184.7l3.3-0.2l0.5,7.3c1.6-4.3,5.3-7.8,13.2-7.8v4c-12.2,0.3-12.8,10.4-12.8,20.6v23.6h-4.3V184.7z"/>
		<path class="st0" d="M395.2,184.4h4.3v47.8h-4.3V184.4z"/>
		<path class="st0" d="M407.1,184.4h7.2l0.6-14.2l3.6-0.7v14.9H430v3.8h-11.5v32.5c0,4.9,0.8,7.5,6.4,7.5h5.2v3.9
			c-0.4,0.1-5.2,0.1-5.5,0.1c-8.7,0-10.3-3.8-10.3-11.3v-32.8h-7.1V184.4z"/>
		<path class="st0" d="M438.8,165h4.3v25.8c1.5-3.8,4.9-7.1,13.9-7.1c12.7,0,13.6,6.9,13.6,17.6v31h-4.2v-30.3
			c0-9.3-1-14.2-10.5-14.2c-10.6,0-12.9,5.9-12.9,20.3v24.2h-4.3V165z"/>
		<path class="st0" d="M481.1,184.7l3.4-0.2l0.4,6.7c1.6-4.4,4.6-7.5,13.9-7.5c8.9,0,11.2,3,12.2,7.8c1.7-4.6,5.2-7.8,14.5-7.8
			c12.8,0,13.2,6.9,13.2,17.6v31h-4.3v-30.3c0-9.3-0.3-14.2-10.1-14.2c-10.6,0-12.4,6-12.4,20.3v24.2h-4.2v-30.3
			c0-9.3-0.3-14.2-10.1-14.2c-10.7,0-12.5,6.2-12.5,20.3v24.2h-4.2V184.7z"/>
		<path class="st0" d="M544.5,230l1.8-3.6c2.9,1.5,6.7,2.7,11.6,2.7c6.3,0,10.1-2.7,10.1-8.5c0-5.8-3.7-8-10.2-11.5
			c-7.3-3.8-12-6.6-12-13.8c0-7.3,4.3-11.5,13.1-11.5c5.3,0,8.6,1,11.4,2.2l-1.7,3.6c-2.4-1-5.3-1.9-9.8-1.9c-6.4,0-8.9,3-8.9,7.7
			c0,4.9,3.5,6.9,10.2,10.5c7.3,3.8,12,6.8,12,14.9c0,8.2-5.4,12.2-14.2,12.2C552.4,232.9,547.9,231.7,544.5,230z"/>
		<g>
			<rect x="394.1" y="170.3" class="st1" width="7" height="7"/>
		</g>
	</g>
	<g>
		<g>
			<path class="st2" d="M27.8,138v122.9h122.9V138H27.8z M138.1,247.9H40.7v-97.4h97.4V247.9z"/>
			<path class="st0" d="M27.8,138v122.9h122.9V138H27.8z M138.1,247.9H40.7v-97.4h97.4V247.9z"/>
		</g>
		<g>
			<defs>
				<path id="SVGID_1_" d="M27.8,138v122.9h122.9V138H27.8z M138.1,247.9H40.7v-97.4h97.4V247.9z"/>
			</defs>
			<use xlink:href="#SVGID_1_"  style="overflow:visible;fill:#FFFFFF;"/>
			<clipPath id="SVGID_2_">
				<use xlink:href="#SVGID_1_"  style="overflow:visible;"/>
			</clipPath>
		</g>
	</g>
	<g>
		<g>
			<path class="st2" d="M27.8,138v122.9h122.9V138H27.8z M138.1,247.9H40.7v-97.4h97.4V247.9z"/>
			<path class="st0" d="M27.8,138v122.9h122.9V138H27.8z M138.1,247.9H40.7v-97.4h97.4V247.9z"/>
		</g>
		<g>
			<defs>
				<path id="SVGID_3_" d="M27.8,138v122.9h122.9V138H27.8z M138.1,247.9H40.7v-97.4h97.4V247.9z"/>
			</defs>
			<use xlink:href="#SVGID_3_"  style="overflow:visible;fill:#FFFFFF;"/>
			<clipPath id="SVGID_4_">
				<use xlink:href="#SVGID_3_"  style="overflow:visible;"/>
			</clipPath>
		</g>
	</g>
	<g>
		<path d="M167.8,145l-3.9,1.6l0.1-0.7l0.2-1.9l0.2-1.8l1.3-12l0.2-1.4c0.1-1.1,0.2-1.9,0.2-2.6c0-1.1-0.3-1.7-0.8-1.7
			c-1.3,0-2.7,1.5-4.2,4.4c-0.4-0.3-0.6-0.6-0.6-0.9c0-1,0.9-2.4,2.8-4.2c1.9-1.8,3.4-2.7,4.5-2.7c1.5,0,2.2,0.9,2.2,2.8
			c0,0.5,0,1.1-0.1,1.9l-0.2,2.1l-0.2,1.8l-0.2,1.8c2-3,4.3-5.5,6.7-7.5c2.4-2,4.5-3,6.2-3c1.7,0,2.5,1.2,2.5,3.5
			c0,0.7-0.1,1.8-0.3,3.2l-1.4,9.6c-0.3,1.9-0.4,3.5-0.4,4.6c0,0.9,0.2,1.3,0.7,1.3c1.2,0,2.7-1.6,4.4-4.7c0.4,0.3,0.6,0.5,0.6,0.8
			c0,1.1-1,2.6-2.9,4.4c-1.9,1.8-3.5,2.7-4.7,2.7c-1.3,0-2-1-2-2.9c0-1.4,0.2-3.4,0.5-5.9l0.9-6.3c0.3-2,0.4-3.6,0.4-4.8
			c0-1.4-0.5-2-1.4-2c-2.2,0-4.4,1.5-6.7,4.5c-2.3,3-3.6,6.2-4,9.6L167.8,145z"/>
		<g>
			<path class="st0" d="M167.8,145l-3.9,1.6l0.1-0.7l0.2-1.9l0.2-1.8l1.3-12l0.2-1.4c0.1-1.1,0.2-1.9,0.2-2.6c0-1.1-0.3-1.7-0.8-1.7
				c-1.3,0-2.7,1.5-4.2,4.4c-0.4-0.3-0.6-0.6-0.6-0.9c0-1,0.9-2.4,2.8-4.2c1.9-1.8,3.4-2.7,4.5-2.7c1.5,0,2.2,0.9,2.2,2.8
				c0,0.5,0,1.1-0.1,1.9l-0.2,2.1l-0.2,1.8l-0.2,1.8c2-3,4.3-5.5,6.7-7.5c2.4-2,4.5-3,6.2-3c1.7,0,2.5,1.2,2.5,3.5
				c0,0.7-0.1,1.8-0.3,3.2l-1.4,9.6c-0.3,1.9-0.4,3.5-0.4,4.6c0,0.9,0.2,1.3,0.7,1.3c1.2,0,2.7-1.6,4.4-4.7c0.4,0.3,0.6,0.5,0.6,0.8
				c0,1.1-1,2.6-2.9,4.4c-1.9,1.8-3.5,2.7-4.7,2.7c-1.3,0-2-1-2-2.9c0-1.4,0.2-3.4,0.5-5.9l0.9-6.3c0.3-2,0.4-3.6,0.4-4.8
				c0-1.4-0.5-2-1.4-2c-2.2,0-4.4,1.5-6.7,4.5c-2.3,3-3.6,6.2-4,9.6L167.8,145z"/>
		</g>
	</g>
</g>
</svg>
