<?xml version="1.0" encoding="utf-8"?>
<!-- Generator: Adobe Illustrator 21.1.0, SVG Export Plug-In . SVG Version: 6.00 Build 0)  -->
<svg version="1.1" id="Albert" xmlns="http://www.w3.org/2000/svg" xmlns:xlink="http://www.w3.org/1999/xlink" x="0px" y="0px"
	 viewBox="0 0 600 400" style="enable-background:new 0 0 600 400;" xml:space="preserve">
<style type="text/css">
	.st0{fill:#FFFFFF;}
</style>
<g>
	<g>
		<line class="st0" x1="222.2" y1="155.9" x2="222.2" y2="242.4"/>
		<rect x="219.2" y="155.9" class="st0" width="6.2" height="86.5"/>
	</g>
	<path class="st0" d="M277,178.9c-10.9,0-20.6,5.4-26.6,13.6v-36.7h-6.2v86.5h6.2v-11.7c6,8.2,15.7,13.6,26.6,13.6
		c18.1,0,32.7-14.6,32.7-32.7S295,178.9,277,178.9z M277,238c-14.6,0-26.6-11.9-26.6-26.6c0-14.6,11.9-26.6,26.6-26.6
		s26.6,11.9,26.6,26.6C303.6,226.1,291.7,238,277,238z"/>
	<path class="st0" d="M350.8,238c-14.6,0-26.6-11.9-26.6-26.6l0,0h59.5l-0.4-3.5c-1.9-16.7-15.9-29.2-32.5-29.2
		c-18.1,0-32.7,14.6-32.7,32.7s14.6,32.7,32.7,32.7c13.2,0,24.9-7.8,30.1-20l-5.8-2.5C371.2,231.6,361.5,238,350.8,238z
		 M350.8,185.1c12.4,0,23.1,8.4,25.7,20.2H325C327.9,193.7,338.2,185.1,350.8,185.1z"/>
	<polygon class="st0" points="447.6,180.2 447.6,155.9 441.4,155.9 441.4,180.2 430.1,180.2 430.1,186.3 441.4,186.3 441.4,242.4 
		447.6,242.4 447.6,186.3 460.5,186.3 460.5,180.2 	"/>
	<path class="st0" d="M399.8,190.5v-10.3h-6.2v62.2h6.2v-41.8c1-2.3,9.7-14,21.4-14v-6.2C412.6,180.2,404.7,185.3,399.8,190.5z"/>
	<g>
		<path class="st0" d="M465.7,162.2v1H464v4.9h-1.4v-4.9H461v-1H465.7z"/>
		<path class="st0" d="M469.6,165.7c0,0.2,0,0.2,0.2,0.4c0-0.2,0-0.2,0.2-0.4c0-0.2,0.2-0.2,0.2-0.4l1.4-3.1c0,0,0,0,0-0.2l0,0
			c0,0,0,0,0.2,0s0,0,0.2,0h1v6h-1.2v-3.5c0-0.2,0-0.4,0-0.6l-1.6,3.1l-0.2,0.2h-0.2h-0.2c-0.2,0-0.2,0-0.2,0l-0.2-0.2l-1.6-3.1v0.2
			v0.2v3.5h-1.2v-6h1h0.2c0,0,0,0,0.2,0l0,0c0,0,0,0,0,0.2l1.6,3.1C469.4,165.5,469.4,165.7,469.6,165.7z"/>
	</g>
	<path class="st0" d="M200.4,242.4h6.8l-40.4-83.4l-39.8,83.4h6.8l13.8-29h38.5L200.4,242.4z M166.8,173.4l16.5,34h-32.5
		L166.8,173.4z"/>
</g>
</svg>
