<?xml version="1.0" encoding="utf-8"?>
<!-- Generator: Adobe Illustrator 21.1.0, SVG Export Plug-In . SVG Version: 6.00 Build 0)  -->
<svg version="1.1" id="Audience_Entertainment" xmlns="http://www.w3.org/2000/svg" xmlns:xlink="http://www.w3.org/1999/xlink"
	 x="0px" y="0px" viewBox="0 0 600 400" style="enable-background:new 0 0 600 400;" xml:space="preserve">
<style type="text/css">
	.st0{fill:#FFFFFF;}
</style>
<g>
	<path class="st0" d="M437.8,251.6c-2,1.6-4,3.1-6,4.7c-0.1-0.5,0.2-0.9,0.6-1.2c3.2-2.9,5.5-6.4,6.6-10.8c0.7-2.8,0.8-5.6,0.2-8.2
		c-0.7-3.1-2-6.1-4.2-8.7c-3.5-4.2-8-6.4-13.4-6.9c-5.6-0.5-10.5,1.5-14.9,4.8c-4.8,3.7-9.8,6.9-15.8,8.3c-3.1,0.7-6.1,1.3-9.3,1
		c-3.7,0.3-7.4-0.1-11-1.2c-0.3-0.1-0.6-0.2-0.4-0.6c1.5-0.2,3-0.5,4.4-0.7c9.9-3,18.9-7.4,26.6-14.4c8.3-7.5,14.5-16.5,17.2-27.5
		c1-3.9,1.6-7.9,1.1-12c-0.2-9.2-3.7-17.2-9.9-23.9c-10-10.9-22.7-14.2-36.9-11.9c-14.8,2.4-26.7,10-35.7,22
		c-2.9,3.9-5.6,8-6.9,12.9c-0.4,0.2-0.3,0.6-0.5,0.9c0.5-0.1,0.5-0.5,0.5-0.9c1.1-1,1.3-2.4,2-3.7c5.6-10.2,13.5-18.3,23.8-23.9
		c9.8-5.3,20.2-7.8,31.3-5.9c15.1,2.6,24.8,11.7,29.6,26.2c0.9,2.8,1,5.7,1.5,8.5c0,2.2-0.1,4.3-0.5,6.5c-0.9,7.8-3.9,14.7-8.3,21
		c4.3-6.3,7.4-13.2,8.3-21c-0.7-0.5-0.5-1.2-0.5-1.9c0-3.5-0.2-6.9-1.2-10.3c-1.3-4.6-3.4-8.8-6.2-12.7c-0.9-1.3-1.8-2.7-3.6-3.1
		c-4.7-5-10.4-8.3-17.1-9.9c-4.6-1.1-9.2-1.3-13.9-0.8c-1.3-0.4-2.5-0.8-3.5,0.6c-0.2,0-0.4,0-0.6,0c-0.7-0.6-1.4-0.3-2.1-0.2
		c-1.3,0.2-2.6,0.6-3.8,1.1c-1.6,0.6-3.2,1.1-4.8,1.7c-5.6,2.3-10.6,5.5-15.2,9.5c-4.1,3.5-7.4,7.6-10.3,12.1
		c-2.6,4.1-4.7,8.5-6.1,13.2c-0.4,1.3-1.6,2.2-1.5,3.7c0,0.1-0.1,0.2-0.1,0.2c-0.5,0.3-0.5,0.9-0.7,1.3c-1.8,5.1-2.8,10.3-3.5,15.7
		c-2.6-0.4-5.3-0.8-7.9-1.2c0-0.7,0-1.5-0.1-2.2c0.1-1,0.1-1.9,0.2-2.9c-0.1-1.6-0.2-3.1-0.3-4.7c-0.7-12.2-3.3-24-8.6-35.1
		c-1.7-4.3-4.2-8.2-6.8-12c-2.3-3.4-5-6.5-7.7-9.5c-4.1-4.5-8.8-8.3-13.6-11.9c-2.7-2-5.6-3.5-8.3-5.4c-2.1-1-4.1-2-6.2-3
		c-4.7-2.5-9.7-4.2-14.8-5.7c-15.1-4.7-30.6-5.7-46.2-3.9c-9.7,1.1-19.1,3.3-27.8,7.9c-2.7,1.4-5.5,2.7-8.3,4.1
		c0.1,0.1,0.1,0.2,0.2,0.4c1.1-0.4,2.3-0.8,3.4-1.2c2.5-1.3,5.2-2.1,7.9-3.1c10.3-3.8,21.2-5,32.1-5.6c5.3-0.3,10.6,0.1,15.9,0.5
		c7.1,0.6,14,2.1,20.8,3.9c4.6,1.2,8.8,3.3,13.3,4.7c0.5,0.3,1,0.6,1.5,0.9c0.2,0,0.4,0,0.6,0.2c0.6,0.2,1.1,0.3,1.5,0.7
		c6.8,3,12.7,7.4,18.5,12c2,1.6,4,3.4,5.7,5.4c5,4.7,8.8,10.2,12.3,16.1c1,1.7,2,3.6,2.9,5.3c0,0,0,0,0,0c1.8,4.6,3.8,9.1,4.9,13.9
		c0.3,1.2,0.5,2.3,0.8,3.5c-0.1,0-0.2,0-0.3,0c-0.7-2-1.4-4-2.1-6c-0.1,0-0.1,0-0.2,0c0.1,0,0.1,0,0.2,0c-1.3-4.3-3.3-8.3-5.5-12.1
		c-0.8-1.5-1.5-3.1-2.8-4.3c0,0,0,0,0,0c-0.1-0.1-0.2-0.2-0.3-0.3c0-0.3,0-0.5-0.3-0.6c0,0,0,0,0,0c-0.1-0.1-0.2-0.2-0.3-0.3
		c0-0.3-0.1-0.6-0.3-0.8c-0.6-1.4-1.9-2.3-2.8-3.6c-4.1-5.9-9-11.1-14.6-15.6c-2.6-2-5.2-4-7.9-5.9c0,0,0,0,0,0
		c-0.6-0.3-1-0.6-1.5-0.9c-2.7-1.4-5.3-3.1-8.1-4.2c-4.9-2.7-10.2-4.3-15.5-5.9c-5.8-1.7-11.8-2.9-17.8-3.5c-0.2,0-0.3-0.2-0.5-0.3
		c-0.3,0-0.6,0-1,0c-4.2-0.2-8.5-0.4-12.7-0.2c-13.3,0.6-26.2,2.9-38.1,9.3c-0.6,0.3-1.1,0.8-1.9,0.8c-3.2,2-6.5,3.9-9.4,6.4
		c1.2-0.3,2.5-0.7,3.7-1c0,0,0,0,0,0c0.1-0.1,0.2-0.2,0.3-0.3c0.3-0.1,0.6-0.2,0.9-0.3c0.3-0.1,0.7-0.2,0.9,0.1
		c0.2,0.2-0.1,0.5-0.2,0.7c-0.8,1.8-1.9,3.6-2.3,5.6c-0.2,0.7-0.9,1.2-1.6,2c2-0.4,1.7,0.5,1.4,1.6c-0.9,4.3-0.4,8.7,1.7,12.4
		c1.8,3.2,3.8,6.6,7.1,8.7c-0.5,1.1-1.7,1.2-2.5,1.9c-0.2,0.3-0.8,0.2-0.8,0.9c0.3,0,0.7,0,1-0.1c1-0.6,2.1-1.1,3.2-1.5
		c0.1-0.1,0.3-0.2,0.4-0.3c-0.2,0.1-0.3,0.2-0.4,0.3c0,0.3,0.1,0.6,0.4,0.8c4,2.6,8.4,3.8,13.2,3.9c4,0.1,7.9-1.1,11.7-2
		c4.5-1.1,9-1.8,13.6-2c6.2-0.2,12.3,0,18.4,1.4c3.9,0.9,7.8,1.9,11.4,3.5c7.5,3.3,13.8,8.1,18.3,15.1c1.4,2.2,2.4,4.7,4.1,6.8
		c0.7,0.8,1,2,0.8,3.1c-0.7,0.2-1.3-0.2-2-0.4c-6.5-2.3-13-4.5-19.5-6.8c0-0.4-0.2-0.5-0.5-0.7c-6-2.3-12.3-3.9-18.7-4.3
		c-7.1-0.5-14.2,0.1-21.2,2c-7.2,2-13.9,5-20,9.3c-5.6,3.9-10.3,8.6-14.1,14.2c-3.2,4.8-5.8,9.9-7,15.6c-0.3,1.4-1.5,2.8-0.6,4.3
		c0,0.3,0,0.6-0.1,1c-1.1,1-1.1,2.2-0.5,3.5c0,0.7,0,1.5,0,2.2c-0.4,14,3.8,26.5,13.1,37c10.4,11.8,23.9,17.7,39.3,19.7
		c0.2,0.6,0.5,0.7,1,0.2c0.7,0,1.5,0.1,2.2,0.1c0.1,0.5,0.5,0.5,0.8,0.5c2,0.4,4.1,0.2,6.1,0.3c6.2,0.3,12.4-0.2,18.5-1.4
		c4.1-0.8,8.1-1.7,12.1-3.1c5.6-2,10.9-4.5,15.9-7.6c5.6-3.4,10.5-7.6,15-12.3c0.4-0.4,0.7-0.9,1.4-1c0.3,0.1,0.5,0.1,0.6-0.3
		c0.7-0.3,1.2-1,1.7-1.6c4.6-5.3,8.3-11,11.5-17.2c2-3.8,3.4-7.9,5.1-11.8c0.3,0,0.5,0.1,0.6,0.3c2,0,4,0.4,6,0.7
		c1.4,0.1,2.7,0.3,4.1,0.4c1.6,0.1,3.2,0.2,4.8,0.2c1.7,4.3,3.3,8.7,5.7,12.7c2.1,3.5,4.2,6.8,7.2,9.6c3.5,3.9,7.6,7.2,12.1,9.8
		c14.5,8.2,30.1,11.3,46.6,8.7c16.1-2.6,29.8-9.7,40.9-21.9c0.4-0.4,0.9-0.8,1-1.5C438.4,250.9,438.2,251.3,437.8,251.6z
		 M415.4,181.3C415.4,181.3,415.4,181.3,415.4,181.3c0.1-4.5-0.6-8.7-2-12.7C414.8,172.6,415.5,176.8,415.4,181.3z M169.8,141.7
		c0.1,2.6,0.6,5.2,1.6,7.7c0.2,0,0.3,0,0.4-0.1c-0.1,0-0.3,0.1-0.4,0.1C170.5,146.9,169.9,144.3,169.8,141.7z M172,150.4
		c-0.5-0.1-0.9-0.2-0.8-0.5C171.1,150.3,171.5,150.4,172,150.4c0.8,1.9,2,3.5,3.3,5C174,153.9,172.8,152.3,172,150.4z M180,159.5
		C180,159.5,180,159.5,180,159.5C180,159.5,180,159.5,180,159.5L180,159.5c0.2,0,0.4,0.1,0.6,0.2C180.4,159.6,180.2,159.5,180,159.5
		z M260.5,280.8C260.5,280.8,260.5,280.8,260.5,280.8C260.5,280.8,260.5,280.7,260.5,280.8C260.5,280.7,260.5,280.8,260.5,280.8z
		 M254.3,241.5c-6.7,5.2-14.4,7.7-22.9,8.3c-2.4,0.2-4.8,0-7.2-0.1c-2.8-0.1-5.6-0.8-8.3-1.6c-4.1-1.2-7.7-3.3-10.6-6.4
		c-1.4-1.5-2.8-3.1-3.2-5.2c0.2-0.7-0.2-1.3-0.3-2c-0.3-1.6-0.6-3.2-0.4-4.8c1.4-7.7,6.3-12.4,13.1-15.4c3.3-1.4,6.8-2.1,10.3-2.6
		c4-0.7,8-0.3,12,0c1.6,0.1,3.2,0.8,4.9,0.5c1-0.1,1.9,0.5,2.9,0.6c4,1.2,7.9,2.5,11.9,3.7c3.5,1.1,7,2.1,10.5,3.1
		c0.6,0.2,1.1,0.4,1.5,0.8c0,0,0,0,0,0c-0.4,2.2-1.1,4.3-2.1,6.1C263.5,232.5,259.5,237.5,254.3,241.5z M321.9,219.7
		c-3,0.2-5.7,0-8.4-0.3c0.1-0.6-0.1-1.2,0.3-1.7c0,0,0,0,0,0C316.4,218.4,319.1,218.6,321.9,219.7z M311.7,230.1l12.8,1.3
		C320.2,231.7,315.9,231.1,311.7,230.1z M333.7,241.3c-0.1,0-0.1,0-0.1-0.1C333.6,241.3,333.6,241.3,333.7,241.3L333.7,241.3z
		 M348.1,238.2C348.1,238.2,348.1,238.2,348.1,238.2c0.1,0,0.1-0.1,0.1-0.1C348.2,238.2,348.2,238.2,348.1,238.2z M355.5,207.5
		c-0.3,0.4-0.4,0.8-0.4,1.3C355.1,208.3,355.2,207.9,355.5,207.5c0-1.5,0.1-3.1,0.1-4.6c0.9-4.4,1.7-8.7,3.4-12.9
		c3.6-9,10.1-14.4,19.6-16.1c4-0.7,7.5,0.2,10,3.7c0.3-0.3,0.5-0.7,0.8-1c-0.3,0.3-0.5,0.7-0.8,1c2.7,3.9,1.9,7.9,0.2,11.8
		c-2.5,5.6-7.1,9.2-12.2,12.3c-4,2.4-8.2,3.8-12.7,4.8c-0.7,0.1-1.4,0.1-2,0.2c-0.8,0.2-1.7,0.4-2.5,0.5
		C358,207.2,356.8,207.8,355.5,207.5z M365.8,231.1L365.8,231.1c0-0.1,0-0.2,0.1-0.3c0,0,0,0,0,0c0.6,0.1,1.1,0,1.7-0.1
		c2.4-0.6,4.8-1.1,7.2-1.7c1,0.6,1.9-0.2,2.8-0.1c1.2,0,2.3-1,3.6-0.4c-4,1.8-8.1,3.5-12.5,4.1C367.7,232,366.8,231.6,365.8,231.1z
		 M369.3,232.8c0.2,0,0.4,0,0.6,0C369.7,232.7,369.5,232.8,369.3,232.8z M430.6,257.2C430.6,257.2,430.6,257.2,430.6,257.2
		c0-0.2,0-0.3,0.1-0.4C430.6,256.9,430.6,257,430.6,257.2z"/>
	<path class="st0" d="M279.4,275.4c-0.3-0.1-0.5,0-0.6,0.3c-0.6,0.1-1,0.4-1.3,1c-1.6,0.7-3.2,1.6-4.4,2.8c0,0,0,0,0,0
		c-0.6-0.1-1,0.3-1.4,0.5c-4.3,2.6-8.9,4.6-13.7,6.3c-12,4.2-24.3,5.6-36.9,4.6c-5.9-0.5-11.7-1.6-17.3-3.5
		c-19.7-6.7-33.5-19.3-39.4-39.7c-3.1-10.7-2.9-21.4,0.8-31.9c1.7-4.9,4.1-9.3,6.9-13.6c-0.1,0-0.1-0.1-0.2-0.1
		c0.1,0,0.1,0.1,0.2,0.1c0.3-0.3,0.7-0.6,1-1c2.6-3.4,5.4-6.6,8.8-9.3c3.3-2.7,6.8-5.1,10.6-7.1c7.9-4.1,16.2-6.8,25.1-7.7
		c17-1.6,32.9,2.5,48.4,9.1c-0.4-1-1.5-0.9-2-1.5c-0.6-0.2-1.2-0.5-1.7-0.7c-7.8-3.5-15.8-6.5-24.3-7.8c-7-1.1-14-1.6-21-0.6
		c-1.8,0.2-3.5,0.4-5.3,0.7c-8.9,1.7-17.2,5-24.8,9.9c-6.3,4-11.8,8.9-15.9,15.2c-0.3,0.4-0.7,0.8-1,1.2c-8.5,13.1-11.5,27.3-8,42.6
		c5.1,22,19,36.1,39.9,43.6c13.3,4.8,27,5.4,40.9,3.1c10.8-1.8,20.9-5.5,30.1-11.5c0.2-0.2,0.6-0.2,0.3-0.6c2-0.2,3.3-1.4,4.4-2.8
		c0.7,0.1,1.1-0.2,1.3-0.9C279.1,275.9,279.3,275.7,279.4,275.4c0.2,0,0.4-0.1,0.4-0.3C279.6,275.1,279.4,275.1,279.4,275.4z"/>
</g>
</svg>
