<?xml version="1.0" encoding="utf-8"?>
<!-- Generator: Adobe Illustrator 21.1.0, SVG Export Plug-In . SVG Version: 6.00 Build 0)  -->
<svg version="1.1" id="Carrabbas" xmlns="http://www.w3.org/2000/svg" xmlns:xlink="http://www.w3.org/1999/xlink" x="0px" y="0px"
	 viewBox="0 0 600 400" style="enable-background:new 0 0 600 400;" xml:space="preserve">
<style type="text/css">
	.st0{fill:#FFFFFF;}
</style>
<g>
	<path class="st0" d="M519.9,172.6c1.8-1.6,4.6-1.9,6.6-0.8c2.2,1.1,3.5,3.5,3.6,5.9c0.2,2.8-0.9,5.5-2.7,7.5
		c-2.6,2.9-6.2,4.6-9.9,5.7c-0.7-1.1-1.4-2.3-2.1-3.4c3.4-1,7-2.5,8.9-5.7c-1.6-0.3-3.3-0.7-4.5-1.9
		C517.9,178.1,517.9,174.5,519.9,172.6L519.9,172.6z"/>
	<path class="st0" d="M532.8,175.2c2,2,2.5,5.1,2,7.8c-0.3,2.7-1.7,5-3.5,6.9c-2.8,2.9-6.5,4.9-10.3,6.2c-0.7-1-1.4-2-2-3
		c3.8-1.1,7.5-3,10.4-5.9C532.5,184.1,533.7,179.5,532.8,175.2L532.8,175.2z"/>
	<path class="st0" d="M28.1,181.5c10.2-4.1,22.2-2.9,31.7,2.7c-1.8,2.4-3.6,4.7-5.4,7c-5.5-2.8-11.7-4.2-17.8-3.1
		c-5.8,0.8-11.3,4.1-14.2,9.2c-2.7,4.5-2.8,10.2-0.7,14.9c1.8,4.2,5.6,7.4,9.9,8.8c4.4,1.5,9.3,1.3,13.7,0c4.7-1.3,9.3-4,12.3-7.9
		c1-1.3,1.9-2.8,2.7-4.2c2.5,1.6,4.9,3.1,7.4,4.7c-1.5,2.8-3.3,5.5-5.6,7.7c-3.2,3.2-7.3,5.5-11.6,7.1c-4,1.5-8.2,2.7-12.5,2.6
		c-6.5,0.1-13.2-2-18.1-6.3c-4.2-3.5-7-8.6-8.1-13.9c-1.2-5.7-0.3-11.8,2.5-16.8C17,188.2,22.1,183.8,28.1,181.5L28.1,181.5z"/>
	<g>
		<path class="st0" d="M369.1,197.7c3.8-0.8,7.5-3.1,9.6-6.5c2.2-3.7,2.7-8.5,1.1-12.6c-0.9-2.2-2.4-4.2-4.3-5.7
			c5.2-4.3,6.2-12.6,2.2-18c-2.8-3.7-7.4-5.6-11.8-6c-10.2-0.7-20.4-1.2-30.6-1.6c-0.6,16.5-1.2,32.9-1.9,49.4
			c7.7,0.3,15.3,0.7,22.9,1.2C360.5,198,364.9,198.7,369.1,197.7z M344.1,156.3c7,0.3,14,0.7,20.9,1.2c2.2,0.2,4.8,1,5.6,3.3
			c0.7,2.4,0.1,5.3-2,6.8c-1.4,1-3.1,1.2-4.7,1c-6.8-0.4-13.5-0.8-20.3-1.2C343.7,163.8,343.9,160.1,344.1,156.3z M343.2,176.2
			c6.6,0.3,13.2,0.7,19.8,1.1c2.5,0.2,5.2,0.5,7.2,2.2c1.6,1.4,1.7,3.7,1.3,5.7c-0.3,1.4-1.1,2.6-2.3,3.3c-1.9,1.1-4.1,1.2-6.3,1.1
			c-6.8-0.4-13.6-0.9-20.4-1.2C342.8,184.3,343,180.3,343.2,176.2z"/>
		<path class="st0" d="M382.2,176.2c4.9-6,4.9-15.9-0.9-21.4c2.8,5.7,2.3,13-1.8,18c4.4,4.9,5.3,12.4,2.4,18.3
			c-2.3,5-7.3,8.4-12.6,9.4c-4.4,1-9,0.3-13.5,0.1c-7.5-0.4-15.1-0.8-22.7-1.1c1.1,1.1,2.1,2.3,3.2,3.4c8.3,0.3,16.5,0.8,24.7,1.3
			c2.8,0.2,5.5,0.4,8.3,0.1c4.4-0.4,8.9-2.1,12.1-5.3c2.7-2.7,4.4-6.4,4.8-10.2C386.7,184.4,385.2,179.7,382.2,176.2z"/>
		<path class="st0" d="M367.7,161.5c-0.7-1-2.1-1-3.2-1.2c-5.8-0.4-11.7-0.7-17.5-1c-0.1,1.9-0.2,3.7-0.3,5.5c1,0.1,1.9,0.1,2.9,0.2
			c0-0.7,0-1.5,0.1-2.2c6,0.2,12,0.7,18,1C367.8,163.1,368,162.3,367.7,161.5z"/>
		<path class="st0" d="M367.9,181.4c-1.4-0.9-3.1-1-4.7-1.1c-5.8-0.4-11.5-0.7-17.3-1c-0.1,2.2-0.2,4.3-0.3,6.4c1,0,1.9,0.1,2.9,0.1
			c0.1-1,0.1-2.1,0.2-3.1c3.6,0.1,7.3,0.4,10.9,0.6c3.1,0.2,6.1,0.3,9.1,0.8C368.8,183.2,368.9,182,367.9,181.4z"/>
	</g>
	<path class="st0" d="M545,183.5c5.5-3.6,12.5-3.8,18.7-2.6c8.5,1.8,16.2,6.6,21.5,13.5c-2.3,1.8-4.6,3.4-6.9,5.2
		c-1.8-1.8-3.4-3.7-5.4-5.2c-3.7-3-8.3-4.6-12.9-5.3c-3.1-0.3-6.5-0.4-9.3,1.3c-2.1,1.2-3,4.3-1.3,6.2c1.7,1.9,4.3,2.5,6.6,3.1
		c6.4,1.7,13,3.3,18.5,7.2c2.5,1.9,4.7,4.3,5.6,7.4c1.2,3.7,0.5,7.7-1.3,11.1c-1.9,3.5-5.6,5.7-9.3,6.6c-5.6,1.3-11.5,0.7-17.1-0.7
		c-6.4-1.7-12.6-4.8-17.2-9.7c-2-2.1-3.6-4.6-5.1-7.1c2.5-1.3,5-2.8,7.5-4.1c2.4,2.8,4.6,5.8,7.6,8c4.6,3.4,10.3,5.2,15.9,5.6
		c2.8,0.1,5.8,0.1,8.3-1.4c2-1.2,2.7-3.8,2.1-5.9c-0.6-2-2.4-3.4-4.2-4.3c-3.5-1.8-7.4-2.7-11.2-3.7c-3-0.8-6-1.4-8.7-2.9
		c-3.2-1.7-6.1-4.4-7.4-7.9C538.3,192.7,540.4,186.5,545,183.5L545,183.5z"/>
	<g>
		<path class="st0" d="M214.5,179.5c5.6-0.4,11.2-0.9,16.8-1.2c3.7,6.3,7.4,12.8,10.9,19.2c3.4-0.1,6.7-0.3,10-0.5
			c-3.5-6.6-7.5-13.1-11.1-19.8c3.2-0.9,6.2-2.9,8-5.8c2.1-3.3,2.5-7.3,2-11.1c-0.4-3.4-2.1-6.7-5-8.7c-3.5-2.6-8.1-3.4-12.4-3.1
			c-10.3,0.6-20.7,1.5-31,2.4c1.5,16.4,2.9,32.8,4.5,49.2c2.9-0.3,5.8-0.5,8.7-0.7C215.6,192.7,215,186.1,214.5,179.5z M212.8,158.7
			c6.6-0.7,13.3-1,19.9-1.5c2.5-0.1,5.3-0.4,7.5,1.2c2.1,1.6,2.4,4.6,1.6,6.9c-0.9,2.5-3.6,3.8-6.1,4c-7.3,0.5-14.6,1-22,1.6
			C213.5,166.8,213,162.7,212.8,158.7z"/>
		<path class="st0" d="M248.9,181.5c2.3-1.4,4.3-3.1,5.8-5.4c2.6-4,3.2-9,2.5-13.6c-0.6-4-2.8-7.8-6-10.3c3.4,4.8,4,11.2,2.4,16.7
			c-1.2,4.2-4.3,7.6-8.1,9.7c3.9,7,7.9,13.9,11.7,21c-5.5,0.3-11.1,0.5-16.6,0.8c1.2,1,2.3,2.1,3.5,3c5.5-0.1,11.1-0.5,16.6-0.7
			C256.8,195.6,252.8,188.6,248.9,181.5z"/>
		<path class="st0" d="M239.1,163c-0.1-0.9-0.1-1.9-0.9-2.5c-1.3-0.8-3-0.6-4.5-0.6c-5.9,0.4-11.8,0.8-17.7,1.2
			c0.1,2.2,0.3,4.3,0.5,6.4c1,0,1.9-0.1,2.9-0.1c-0.1-1.1-0.2-2.1-0.3-3.2C225.9,163.9,232.5,163.3,239.1,163z"/>
		<path class="st0" d="M229.6,181.2c-4,0.3-7.9,0.6-11.9,0.9c0.3,6.6,1,13.2,1.5,19.8c-3.9,0.3-7.8,0.6-11.7,1c1.2,1,2.4,2,3.5,3
			c3.7-0.3,7.5-0.6,11.3-0.9c-0.5-6.6-1.1-13.2-1.5-19.8c3.5-0.3,7.1-0.5,10.6-0.7C230.9,183.3,230.3,182.3,229.6,181.2z"/>
	</g>
	<g>
		<path class="st0" d="M434.1,203.2c2.9-1.1,5.5-3.2,7-6c1.9-3.5,2.5-7.9,1.1-11.7c-0.8-2.2-2.1-4.1-3.8-5.6
			c1.3-1.2,2.6-2.4,3.5-3.9c2.6-4.6,2.5-10.8-0.9-15c-2.8-3.4-7.1-5.3-11.5-5.8c-9.9-1.3-19.8-2.5-29.7-3.5
			c-1.6,16.4-3.3,32.8-5,49.2c9.5,0.9,18.9,2.1,28.4,3.3C426.8,204.7,430.6,204.6,434.1,203.2z M408.1,161.4
			c6.8,0.7,13.7,1.6,20.5,2.5c2.2,0.3,4.9,1.2,5.7,3.5c0.7,2.8-0.5,6.3-3.3,7.3c-2.5,0.9-5.1,0-7.6-0.2c-5.5-0.7-11-1.4-16.5-2
			C407.2,168.8,407.7,165.1,408.1,161.4z M405.9,181.2c5.8,0.6,11.7,1.4,17.4,2.1c2.8,0.4,5.8,0.6,8.3,2.1c1.3,0.7,2.3,2.1,2.4,3.7
			c0.1,2.1-0.4,4.5-2.2,5.7c-1.9,1.2-4.3,1.3-6.5,1.1c-6.9-0.9-13.9-1.8-20.8-2.5C405,189.2,405.5,185.2,405.9,181.2z"/>
		<path class="st0" d="M445.5,162.3c2.3,5.9,1.3,13-3,17.7c2,2.7,3.2,5.9,3.4,9.3c0.2,5.6-2.3,11.3-6.9,14.5
			c-4.4,3.2-10.1,4-15.4,3.4c-9.7-1.2-19.3-2.5-29.1-3.4c1,1.2,1.8,2.5,3,3.5c9.2,1,18.4,2.1,27.6,3.3c5.3,0.7,11.1,0.1,15.7-2.9
			c3.8-2.4,6.4-6.6,7.2-11c0.9-4.6-0.3-9.4-3-13.1C450.2,177.9,450.8,168.2,445.5,162.3z"/>
		<path class="st0" d="M431,167.6c-0.8-0.7-2-0.8-3-1c-5.7-0.7-11.5-1.5-17.2-2.1c-0.1,1.8-0.4,3.7-0.6,5.5c0.9,0.1,1.9,0.2,2.9,0.3
			c0.1-0.7,0.2-1.5,0.3-2.2c6,0.6,11.9,1.5,17.9,2.2C431.3,169.5,431.8,168.3,431,167.6z"/>
		<path class="st0" d="M430.4,188c-1.5-1.2-3.6-1.3-5.5-1.6c-5.5-0.7-10.9-1.4-16.4-2c-0.2,2.1-0.5,4.3-0.7,6.4
			c0.9,0.1,1.9,0.2,2.8,0.3c0.1-1,0.3-2.1,0.4-3.1c2.8,0.3,5.6,0.7,8.4,1c3.8,0.6,7.8,0.8,11.6,1.7C431,189.7,431.2,188.7,430.4,188
			z"/>
	</g>
	<path class="st0" d="M55.2,194.8c2.4-3.1,4.8-6.2,7.2-9.3c1.3,0.7,2.6,1.5,3.8,2.2c-2.5,3.2-4.9,6.5-7.5,9.7c-3.5-1.6-7-3.4-10.9-4
		c-4.3-0.6-8.7-0.2-12.7,1.6c-3.4,1.6-6.3,4.5-7.6,8.1c-1.2,3.4-0.9,7.4,0.6,10.7c0.7,1.5,1.8,2.7,2.8,4c-3.1-1.3-5.6-3.9-6.9-7
		c-1.4-3.5-1.4-7.7,0.3-11.2c1.8-3.7,5.2-6.4,9-7.7c4.4-1.5,9.3-1.5,13.7-0.3C50,192.3,52.6,193.7,55.2,194.8L55.2,194.8z"/>
	<g>
		<path class="st0" d="M319.9,196.2c-7.1-16.8-14.6-33.3-22.4-49.7c-3.1,0-6.3,0.1-9.4,0.1c-7.8,16.5-15.2,33.1-22.3,49.9
			c3.2,0,6.4-0.2,9.6-0.2c1.8-4.1,3.6-8.1,5.4-12.2c0.2-0.6,1.1-0.3,1.6-0.4c7.2-0.1,14.4-0.1,21.6-0.1c0.6-0.1,0.7,0.6,0.9,0.9
			c1.7,3.9,3.4,7.8,5.2,11.7C313.3,196.1,316.6,196.2,319.9,196.2z M284.9,174.9c2.6-5.6,5.1-11.1,7.8-16.7
			c2.6,5.5,5.2,11.1,7.7,16.6C295.3,174.8,290.1,174.8,284.9,174.9z"/>
		<path class="st0" d="M305.1,151.2c-0.7-2-2.6-3.2-4.1-4.6c8.1,17.4,16,34.9,23.3,52.6c-5.4-0.1-10.9-0.3-16.3-0.3
			c1.1,1.1,2.1,2.3,3.2,3.2c5.5,0.1,10.9,0.3,16.3,0.4C320.5,185.3,312.9,168.2,305.1,151.2z"/>
		<path class="st0" d="M289.6,172c1.5,0,3,0,4.4,0c0.3-0.7,0.6-1.4,1-2.1c-0.7-1.6-1.5-3.1-2.2-4.7
			C291.6,167.4,290.6,169.7,289.6,172z"/>
		<path class="st0" d="M282.9,186.5c-1.8,4.2-3.7,8.3-5.5,12.5c-4.3,0.2-8.6,0.2-13,0.4c1.2,1,2.2,2.2,3.4,3.1
			c4.1,0,8.3-0.2,12.4-0.2c1.8-4.2,3.7-8.3,5.5-12.5c6-0.1,12.1,0,18.2-0.1c-0.5-1.1-1-2.2-1.5-3.3
			C295.9,186.4,289.4,186.4,282.9,186.5z"/>
	</g>
	<g>
		<path class="st0" d="M150.6,186.9c5.6-0.9,11.2-1.6,16.8-2.4c4.1,6.1,8.2,12.3,12.2,18.5c3.3-0.4,6.6-0.7,9.9-1.2
			c-4-6.4-8.3-12.7-12.4-19c4-1.4,7.5-4.6,8.7-8.7c1.1-3.9,0.9-8.1-0.7-11.9c-1.2-2.7-3.3-4.9-5.9-6.1c-3.4-1.7-7.4-2.1-11.1-1.6
			c-10.3,1.3-20.6,2.8-31,4.4c2.5,16.3,5.1,32.6,7.7,48.8c2.9-0.4,5.8-0.9,8.7-1.3C152.6,200,151.6,193.4,150.6,186.9z M149.3,178
			c-0.7-3.9-1.2-7.9-1.8-11.8c6.8-1,13.6-1.9,20.5-2.8c2.3-0.3,4.9-0.6,7,0.8c3.1,2.2,3.1,7.8-0.3,9.8c-1.8,1.2-4,1.4-6.1,1.6
			c-6.4,0.8-12.7,1.8-19.1,2.7L149.3,178z"/>
		<path class="st0" d="M185.1,186.7c1.9-1.4,3.7-2.9,4.9-4.9c2.7-4.1,3.2-9.3,2.3-14c-0.8-4.1-3.1-8-6.6-10.3
			c3.7,4.9,4.7,11.5,3,17.3c-1.1,3.9-3.8,7.1-7.2,9.3c4.4,6.7,8.8,13.4,13.1,20.2c-5.5,0.6-11,1.2-16.4,1.9c1.2,1,2.3,1.9,3.5,2.8
			c0.6,0.1,1.2,0,1.8-0.1c4.9-0.6,9.9-1.1,14.8-1.6C194,200.2,189.5,193.5,185.1,186.7z"/>
		<path class="st0" d="M174.3,168.8c-0.2-0.8-0.2-1.8-0.9-2.3c-1.2-0.8-2.8-0.6-4.1-0.4c-6.1,0.8-12.2,1.6-18.2,2.5
			c0.3,2.2,0.6,4.3,0.9,6.4c1-0.1,1.9-0.3,2.9-0.4c-0.1-1-0.3-2.1-0.4-3.1C161,170.5,167.6,169.5,174.3,168.8z"/>
		<path class="st0" d="M165.9,187.6c-4,0.5-7.9,1.1-11.9,1.6c0.9,6.6,1.9,13.1,2.8,19.7c-3.8,0.6-7.7,1.1-11.6,1.8
			c1.2,1,2.5,1.9,3.7,2.8c3.7-0.6,7.4-1.2,11.1-1.6c-0.9-6.6-1.9-13.1-2.8-19.7c3.5-0.5,7-1,10.5-1.5
			C167.3,189.6,166.6,188.6,165.9,187.6z"/>
	</g>
	<path class="st0" d="M553,192.6c2.4-1,5.1-0.8,7.5-0.4c4.1,0.7,8.1,2.2,11.2,5.1c2.2,2,4.2,4.3,6.3,6.4c2.9-2.2,5.8-4.4,8.7-6.5
		c0.8,1.2,1.5,2.5,2.2,3.7c-3,2.2-6,4.5-9.1,6.8c-2.1-2.1-4.1-4.3-6.3-6.4c-2.6-2.5-6-4-9.4-4.8c-3-0.7-6.1-1-9-0.1
		c-1.1,0-2.2-0.6-3.1-1.2C551.2,194.3,552,193,553,192.6L553,192.6z"/>
	<g>
		<path class="st0" d="M505.9,218.7c-3.8-17.8-8-35.5-12.6-53.1c-3.1-0.6-6.2-1.2-9.3-1.8c-10.8,14.7-21.4,29.5-31.5,44.7
			c3.1,0.6,6.3,1,9.5,1.6c2.6-3.7,5.2-7.5,7.8-11.2c2.1,0,4.1,0.7,6.2,1c5.3,1,10.6,2,15.8,3c0.4,0.2,1.3,0.1,1.3,0.7
			c1,4.3,2,8.6,3,12.9C499.5,217.3,502.7,218,505.9,218.7z M475.6,191c3.5-5,7.1-10,10.8-14.9c1.5,5.9,3,11.8,4.4,17.7
			C485.8,193,480.7,192,475.6,191z"/>
		<path class="st0" d="M499.9,171.6c-0.4-2.1-2.1-3.7-3.2-5.4c4.7,18.7,9.1,37.5,13,56.3c-5.3-1.2-10.6-2.4-16-3.4
			c0.7,1.3,1.5,2.5,2.4,3.7c0.5,0.3,1.1,0.3,1.7,0.5c4.8,1,9.6,2.1,14.4,3.2C508.6,208.1,504.4,189.8,499.9,171.6z"/>
		<path class="st0" d="M480.6,189.1c1.5,0.3,3,0.6,4.4,0.8c0.4-0.6,0.9-1.2,1.3-1.8c-0.4-1.7-0.8-3.4-1.3-5
			C483.5,185,482.1,187.1,480.6,189.1z"/>
		<path class="st0" d="M471.3,202c-2.7,3.7-5.3,7.5-7.9,11.3c-4.2-0.7-8.4-1.5-12.7-2.1c0.9,1.3,1.6,2.7,2.8,3.7
			c4,0.7,8.1,1.3,12.1,2.1c2.7-3.8,5.2-7.5,7.9-11.2c6,1.1,11.9,2.2,17.9,3.4c-0.3-1.2-0.5-2.4-0.8-3.5
			C484.3,204.4,477.8,203.2,471.3,202z"/>
	</g>
	<path class="st0" d="M539.2,202.4c1.8,2.1,3.8,4.1,6.2,5.5c3.3,2,7.2,2.7,10.9,3.7c3,0.9,6.1,1.6,9,2.9c1.1,0.6,2.3,1.2,3,2.2
		c0.6,0.7,0.4,1.7,0.4,2.6c-3.8-2-8.1-3-12.3-4.2c-2.5-0.7-5-1.2-7.3-2.4C544.8,210.6,540.8,207.1,539.2,202.4L539.2,202.4z"/>
	<g>
		<path class="st0" d="M108.9,168.6c-1.1-1.8-3.1-2.6-4.8-3.6c2.7,4,5.6,7.7,8.4,11.7c8.4,11.7,16.6,23.5,24.6,35.4
			c-5.4,0.9-10.8,1.8-16.1,2.8c1.2,0.9,2.5,1.8,3.8,2.7c5.4-1,10.8-1.9,16.2-2.8C130.7,199,119.9,183.7,108.9,168.6z"/>
		<path class="st0" d="M88.6,217.1c0.9-3.9,1.8-7.8,2.7-11.7c0-0.5,0.7-0.5,1.1-0.6c6.5-1.3,12.9-2.6,19.4-3.9
			c0.9-0.1,1.9-0.6,2.8-0.4c2.7,3.6,5.2,7.4,7.8,11.1c3.2-0.6,6.5-1.2,9.7-1.8c-10-14.8-20.4-29.3-31-43.7c-0.3-0.3-0.5-0.9-1-0.7
			c-3,0.6-6,1.2-8.9,1.8c-4.5,17.7-8.7,35.4-12.4,53.3c3.1-0.7,6.2-1.4,9.3-2.1C88.5,218,88.5,217.6,88.6,217.1z M98.1,177.9
			c3.8,4.8,7.3,9.8,10.9,14.7c-5.1,1-10.2,2-15.3,3C95,189.7,96.5,183.8,98.1,177.9z"/>
		<path class="st0" d="M99.4,184.7c-0.6,2.4-1.2,4.8-1.8,7.2c1.5-0.3,2.9-0.6,4.3-0.9c0.2-0.7,0.4-1.5,0.6-2.2
			C101.5,187.5,100.5,186.1,99.4,184.7z"/>
		<path class="st0" d="M93.9,207.4c-1.1,4.3-2,8.7-3,13c-0.1,0.1-0.2,0.3-0.3,0.4c-4.1,1-8.3,1.8-12.4,2.8c1.3,0.9,2.6,1.7,3.9,2.4
			c4-0.9,8-1.8,12.1-2.7c1-4.4,2.1-8.9,3.1-13.4c5.9-1.2,11.9-2.4,17.8-3.5c-0.6-1-1.3-2-2.1-2.9
			C106.7,204.8,100.3,206.1,93.9,207.4z"/>
	</g>
	<path class="st0" d="M583.4,213.8c3.7,5.6,2.8,13.3-1,18.6c-3.6,4.7-9.7,6.8-15.5,7.1c-7.4,0.3-14.7-1.5-21.3-4.6
		c-6-2.9-11.2-7.5-14.7-13.3c-0.9-1.6-2.2-3-2.8-4.8c1.2,0.9,1.8,2.3,2.7,3.4c4.3,5.9,10.5,10.1,17.3,12.5
		c6.1,2.1,12.7,3.4,19.1,2.6c4.3-0.5,8.5-2.1,11.7-5C583.2,226.2,584.7,219.6,583.4,213.8L583.4,213.8z"/>
	<path class="st0" d="M70,215.1c1.3,0.7,2.5,1.5,3.7,2.2c-1.7,2.9-3.5,5.9-6,8.3c-3.7,3.8-8.5,6.4-13.5,8.2
		c-3.5,1.2-7.1,2.2-10.8,2.4c-7.4,0.4-15-1.6-20.9-6.1c6.9,3.5,15.1,4.7,22.7,2.9c6.6-1.7,13.2-4.3,18.2-9.1
		C66.1,221.4,68.1,218.3,70,215.1L70,215.1z"/>
	<path class="st0" d="M331.9,231.7c5.1-5.6,14.7-5.5,20.2-0.6c-1.3,1.7-2.7,3.3-4.1,4.9c-2.1-1.7-4.9-2.8-7.6-2.1
		c-3,0.7-4.9,3.9-4.7,6.9c0,2.2,1.2,4.5,3.1,5.6c2.3,1.4,5.3,1.2,7.6,0c0-1,0-2.1,0-3.1c-1.6,0-3.2,0-4.9,0c0-1.7,0-3.4,0-5.1
		c3.8,0,7.7,0,11.5,0c0,3.8,0,7.6,0,11.4c-5.5,4.5-14.3,5.3-19.9,0.7C327.4,246,327,236.8,331.9,231.7L331.9,231.7z"/>
	<path class="st0" d="M145.8,228c2.4,0,4.7,0,7,0c0,8.3,0,16.7,0,25c-2.3,0-4.6,0-7,0C145.8,244.7,145.8,236.3,145.8,228L145.8,228z
		"/>
	<path class="st0" d="M158.6,228c7.3,0,14.6,0,21.9,0c0,2.1,0,4.1,0,6.1c-2.5,0-5,0-7.5,0c0,6.3,0,12.6,0,18.9c-2.3,0-4.6,0-6.9,0
		c0-6.3,0-12.5,0-18.9c-2.5,0-5,0-7.5,0C158.6,232.1,158.6,230.1,158.6,228L158.6,228z"/>
	<path class="st0" d="M214.7,228c2.3,0,4.5-0.1,6.8,0l0.2,0.3c0.1,6.2,0,12.4,0.1,18.6c4,0,8,0,12,0c0,2.1,0,4.1,0,6.2
		c-6.3,0-12.7,0-19,0C214.7,244.7,214.7,236.3,214.7,228L214.7,228z"/>
	<path class="st0" d="M239.5,228c2.3,0,4.7,0,7,0c0,8.3,0,16.7,0,25c-2.3,0-4.7,0-7,0C239.5,244.7,239.5,236.3,239.5,228L239.5,228z
		"/>
	<path class="st0" d="M285.3,228c2.1,0,4.3,0,6.4,0c3.4,4.3,6.7,8.7,10.2,13c0.1-4.3,0-8.6,0.1-13c2.3,0,4.6,0,6.9,0
		c0,8.3,0,16.7,0,25c-2,0-4,0-6,0c-3.5-4.6-7.1-9-10.6-13.6c0,4.5,0,9.1,0,13.6c-2.3,0-4.6,0-6.9,0
		C285.3,244.7,285.3,236.3,285.3,228L285.3,228z"/>
	<path class="st0" d="M389.6,228.1c2.3-0.1,4.7,0,7,0c0,8.3,0,16.7,0,25c-2.3,0-4.6,0-6.9,0C389.6,244.7,389.7,236.4,389.6,228.1
		L389.6,228.1z"/>
	<path class="st0" d="M404.8,228c2.3,0,4.6,0,6.9,0c0,6.3,0,12.5,0,18.8c4,0.1,8,0,12.1,0.1c0,2.1,0,4.1,0,6.1c-6.3,0-12.7,0-19,0
		C404.7,244.7,404.8,236.3,404.8,228L404.8,228z"/>
	<path class="st0" d="M429.5,228c2.3,0,4.7,0,7,0c0,6.3,0,12.5,0,18.8c4,0,8,0,12,0c0,2.1,0,4.1,0,6.2c-6.3,0-12.7,0-19,0
		C429.4,244.7,429.5,236.3,429.5,228L429.5,228z"/>
	<g>
		<path class="st0" d="M377.5,244.3c2-1,3.8-2.5,4.5-4.6c1-3,0.7-6.8-1.7-9.1c-2.1-2.1-5.2-2.6-8-2.7c-4,0-8,0-11.9,0
			c0,8.3,0,16.7,0,25c2.3,0,4.6,0,6.9,0c0-2.5,0-5,0-7.5c1,0,2,0,2.9,0c1.8,2.5,3.2,5.2,5.2,7.5c2.6,0.1,5.2,0,7.8,0
			C381.5,250,379.4,247.2,377.5,244.3z M373.7,239.7c-2,0.6-4.2,0.1-6.3,0.3c-0.1-2-0.1-3.9,0-5.9c2.2,0.1,4.6-0.4,6.7,0.5
			C376.2,235.5,375.9,239,373.7,239.7z"/>
	</g>
	<g>
		<path class="st0" d="M198.7,227.9c-2.2,0-4.4,0-6.7,0c-3.5,8.4-7.2,16.7-10.6,25.1c2.4,0,4.9,0,7.3,0c0.6-1.5,1.2-3,1.8-4.5
			c3.1,0,6.3,0,9.4,0c0.9,1.3,1.3,3,1.9,4.4c2.5,0,5,0,7.5,0C205.8,244.6,202.2,236.2,198.7,227.9z M192.5,243.1
			c0.9-2.2,1.8-4.5,2.7-6.7c1,2.2,1.8,4.5,2.7,6.7C196.2,243.1,194.3,243.1,192.5,243.1z"/>
	</g>
	<g>
		<path class="st0" d="M269.3,227.9c-2.2,0-4.5,0-6.7,0c-3.5,8.4-7.2,16.7-10.6,25.1c2.5,0,4.9,0,7.3,0c0.6-1.5,1.1-3,1.8-4.4
			c3.1-0.2,6.2-0.1,9.3-0.1c1,1.3,1.3,3,2,4.4c2.5,0,5,0,7.4,0C276.5,244.6,272.8,236.2,269.3,227.9z M263.2,243.1
			c0.9-2.3,1.8-4.6,2.7-6.8c0.9,2.2,1.8,4.6,2.7,6.8C266.8,243.1,265,243.1,263.2,243.1z"/>
	</g>
	<g>
		<path class="st0" d="M466.8,246.5c0,3.7-2.9,6.6-6.7,6.6c-3.7,0-6.7-2.9-6.7-6.6c0-3.7,3-6.5,6.8-6.5
			C463.8,239.9,466.8,242.8,466.8,246.5z M455,246.5c0,2.9,2.2,5.2,5.1,5.2c2.8,0,5-2.3,5-5.2c0-2.9-2.2-5.3-5.1-5.3
			C457.2,241.2,455,243.6,455,246.5z M459,249.8h-1.5v-6.5c0.6-0.1,1.4-0.2,2.5-0.2c1.2,0,1.8,0.2,2.2,0.5c0.4,0.3,0.7,0.8,0.7,1.4
			c0,0.8-0.6,1.3-1.4,1.6v0.1c0.6,0.2,1,0.7,1.2,1.6c0.2,1,0.4,1.4,0.5,1.6h-1.6c-0.2-0.2-0.3-0.8-0.5-1.6c-0.1-0.7-0.5-1-1.4-1H459
			V249.8z M459.1,246.2h0.7c0.8,0,1.5-0.3,1.5-1c0-0.6-0.4-1-1.4-1c-0.4,0-0.7,0-0.8,0.1V246.2z"/>
	</g>
</g>
</svg>
