<?xml version="1.0" encoding="utf-8"?>
<!-- Generator: Adobe Illustrator 21.1.0, SVG Export Plug-In . SVG Version: 6.00 Build 0)  -->
<svg version="1.1" id="Crowdtwist" xmlns="http://www.w3.org/2000/svg" xmlns:xlink="http://www.w3.org/1999/xlink" x="0px" y="0px"
	 viewBox="0 0 600 400" style="enable-background:new 0 0 600 400;" xml:space="preserve">
<style type="text/css">
	.st0{fill:#FFFFFF;}
</style>
<g>
	<g>
		<path class="st0" d="M63.5,153c0.2-0.6,0.4-1.2,0.6-1.8c1.9-6.9,6.4-11,13.3-12.7c2.2-0.5,4.5-0.7,6.7-0.4
			c7.4,1.2,12.5,5.2,14.8,12.5c0.8,2.5,1.1,5.1,0.9,7.8c-1.9,0-3.8,0-5.4,0c-0.5-2.3-0.8-4.5-1.6-6.6c-3.1-8-11.4-9.5-17.5-6.5
			c-3.5,1.7-5,4.9-5.7,8.6c-0.3,1.6-0.4,3.3-0.5,5c0,16.4,0,32.8,0,49.2c0,3,0.4,5.9,2,8.5c2.6,4.3,6.7,5.7,11.4,5.3
			c6.4-0.6,10.7-5,11.3-11.4c0.1-0.9,0.1-1.9,0.2-2.8c1.9,0,3.7,0,5.6,0c0.3,3.3-0.2,6.5-1.6,9.5c-3.7,7.8-11.5,11.8-19.9,10.4
			c-2.5-0.4-4.8-1-7-2.3c-4.3-2.4-6.5-6.2-7.4-10.9c-0.1-0.5-0.3-0.9-0.4-1.4C63.5,193,63.5,173,63.5,153z"/>
		<path class="st0" d="M412.3,138.9c4.2,0,8.3,0,12.5,0c0,0.4,0,0.8,0,1.1c0,22.6,0,45.1,0,67.7c0,10.1-8.3,19-18.4,19.8
			c-5.8,0.5-11-1.2-15.4-5c-0.5-0.5-0.8-0.4-1.3,0c-6,5-12.9,6.4-20.3,3.8c-7.5-2.7-11.9-8.2-13.3-16.1c-0.2-1-0.2-2.1-0.2-3.1
			c0-22.5,0-44.9,0-67.4c0-0.3,0-0.6,0-0.9c4.2,0,8.3,0,12.5,0c0,0.4,0,0.8,0,1.2c0,21.9,0,43.7,0,65.6c0,1.9,0.2,3.8,1.2,5.5
			c1.5,2.8,4,3.9,7.1,3.8c3-0.1,5.4-1.5,6.4-4.4c0.6-1.6,0.9-3.4,0.9-5.1c0.1-21.8,0-43.7,0-65.5c0-0.4,0-0.7,0-1.2
			c0.5,0,0.8-0.1,1.2-0.1c3.3,0,6.7,0,10,0c1.4,0,1.4,0,1.4,1.3c0,6.3,0,12.5,0,18.8c0,15.5,0,31,0,46.4c0,2.1,0.2,4.1,1.2,5.9
			c1.5,2.7,4.3,4.1,7.4,3.8c3.3-0.4,5.7-2.3,6.5-5.5c0.3-1.3,0.5-2.6,0.5-4c0-21.8,0-43.7,0-65.5
			C412.3,139.8,412.3,139.4,412.3,138.9z"/>
		<path class="st0" d="M454.6,202.2c4.1,0,8.2,0,12.4,0c0,0.4,0.1,0.7,0.1,1.1c0,1.4,0,2.9,0.1,4.3c0.5,4.5,3.5,7.4,8,7.6
			c1.3,0.1,2.7-0.1,4-0.3c2.9-0.5,4.6-2.3,5.3-5.1c0.9-3.2,0.6-6.6,0.6-9.9c0-1.2-0.1-2.3-0.2-3.5c-0.3-3.3-1.9-5.6-5-6.9
			c-3.9-1.6-7.8-3.2-11.7-4.8c-4.4-1.9-8.2-4.6-10.5-9c-1.5-2.8-2.2-5.9-2.4-9c-0.4-5.1-0.3-10.1,1.6-14.9
			c2.7-7.2,7.7-11.8,15.4-13.1c2.2-0.4,4.6-0.6,6.8-0.4c11.4,1.5,18.4,10.4,18.6,19.8c0,2,0,4.1,0,6.1c-4.2,0-8.3,0-12.6,0
			c0-0.6,0-1.2,0-1.8c-0.1-1.7-0.1-3.4-0.5-5c-1.2-5.3-5.2-7.2-10-6.6c-3.3,0.4-5.4,2.4-6.3,5.6c-1.1,3.7-1,7.5-0.3,11.2
			c0.4,2.4,2,4.1,4.2,5.1c3.2,1.4,6.4,2.6,9.6,4c2.6,1.1,5.2,2.1,7.6,3.5c4.3,2.5,6.6,6.5,7.4,11.3c1.2,7.1,1.3,14.2-0.4,21.2
			c-1.3,5.4-4.1,9.8-9.1,12.5c-3.6,1.9-7.5,2.5-11.5,2.5c-5.8-0.1-10.9-1.9-15.1-5.9c-3.7-3.5-5.7-7.9-6.1-12.9
			C454.4,206.7,454.6,204.5,454.6,202.2z"/>
		<path class="st0" d="M195.6,139c2.1,0,4.2,0,6.4,0c3.2,24.5,6.4,49,9.7,73.5c0.1,0,0.2,0,0.3,0c4.9-24.5,9.9-49,14.8-73.5
			c1.3,0,2.5,0,3.9,0c5,24.6,10,49.2,15,73.8c0.1,0,0.1,0,0.2,0c3.2-24.6,6.4-49.2,9.7-73.8c2.1,0,4.2,0,6.4,0
			c-4.4,29.3-8.7,58.5-13.1,87.9c-2.1,0-4.1,0-6.2,0c-4.7-22.7-9.3-45.5-14-68.2c-0.1,0-0.2,0-0.2,0c-0.3,1.6-0.7,3.3-1,4.9
			c-1.9,9.4-3.7,18.7-5.6,28.1c-2.2,11.2-4.5,22.5-6.7,33.7c-0.1,0.3-0.1,0.7-0.2,1c-0.2,0.3-0.5,0.6-0.8,0.6c-1.6,0.1-3.1,0-4.7,0
			c-0.6,0-0.8-0.2-0.9-0.8c-0.8-5.4-1.6-10.8-2.4-16.2c-1-6.5-2-13.1-2.9-19.6c-1-6.9-2.1-13.9-3.1-20.8c-1.2-8.4-2.5-16.7-3.7-25.1
			C196.2,142.7,195.9,140.9,195.6,139z"/>
		<path class="st0" d="M335.6,226.9c-4.2,0-8.3,0-12.5,0c0-25.3,0-50.7,0-76.1c-4.9,0-9.7,0-14.6,0c0-4,0-7.9,0-11.8
			c13.9,0,27.7,0,41.6,0c0,3.9,0,7.8,0,11.7c-4.8,0-9.6,0-14.5,0C335.6,176.1,335.6,201.5,335.6,226.9z"/>
		<path class="st0" d="M515.4,150.7c-4.9,0-9.7,0-14.5,0c0-4,0-7.8,0-11.8c13.9,0,27.7,0,41.6,0c0,3.9,0,7.8,0,11.8
			c-4.8,0-9.6,0-14.5,0c0,25.5,0,50.8,0,76.2c-4.2,0-8.4,0-12.6,0C515.4,201.5,515.4,176.2,515.4,150.7z"/>
		<path class="st0" d="M433.4,138.9c4.2,0,8.3,0,12.5,0c0,29.3,0,58.6,0,88c-4.1,0-8.3,0-12.5,0
			C433.4,197.6,433.4,168.3,433.4,138.9z"/>
		<path class="st0" d="M557.9,140.8c0,0.7,0,1.4,0,2c0,0.7,0,1.3,0,2.3c-0.4-0.3-0.9-0.5-0.9-0.6c-0.1-1.9,0-3.8,0-5.6
			c1.1-0.3,1.7-0.1,1.9,1c0.3,1.2,0.7,2.3,1.1,3.5c0.1,0,0.2,0,0.3,0c0.4-1.2,0.8-2.3,1-3.5c0.2-1.1,0.8-1.3,1.8-1c0,2,0,4,0,6
			c-0.6,0.2-0.9,0.1-0.9-0.6c0-1.2,0-2.5-0.2-3.8c-0.4,1.2-0.8,2.5-1.2,3.7c-0.1,0.2-0.1,0.5-0.3,0.6c-0.5,0.3-0.9,0.2-1.1-0.4
			c-0.4-1.2-0.8-2.4-1.2-3.7C558.1,140.7,558,140.8,557.9,140.8z"/>
		<path class="st0" d="M554.1,144.9c-0.4,0-0.6,0-1,0c0-1.3,0-2.6,0-3.9c0-1.4,0.2-1.4-1.3-1.4c-0.3,0-0.5-0.3-0.8-0.4
			c0-0.1,0.1-0.3,0.1-0.4c1.5,0,3.1,0,4.6,0c0.1,0,0.3,0.3,0.4,0.4c-0.2,0.1-0.3,0.3-0.5,0.4c-0.5,0.1-1.3,0-1.5,0.3
			c-0.3,0.5-0.1,1.2-0.1,1.8C554.1,142.6,554.1,143.7,554.1,144.9z"/>
		<g>
			<path class="st0" d="M245.9,212.8c-0.1,0-0.1,0-0.2,0c-5-24.6-10-49.2-15-73.8c-1.3,0-2.6,0-3.9,0c-4.9,24.5-9.9,49-14.8,73.5
				c-0.1,0-0.2,0-0.3,0c-3.2-24.5-6.4-49-9.7-73.5c-2.2,0-4.2,0-6.4,0c0.3,1.9,0.5,3.7,0.8,5.5c1.2,8.4,2.5,16.7,3.7,25.1
				c1,6.9,2.1,13.9,3.1,20.8c1,6.5,2,13.1,2.9,19.6c0.8,5.4,1.6,10.8,2.4,16.2c0.1,0.6,0.3,0.8,0.9,0.8c1.6,0,3.1,0,4.7,0
				c0.3,0,0.6-0.3,0.8-0.6c0.2-0.3,0.2-0.6,0.2-1c2.2-11.2,4.5-22.5,6.7-33.7c1.9-9.4,3.7-18.7,5.6-28.1c0.3-1.6,0.7-3.3,1-4.9
				c0.1,0,0.2,0,0.2,0c4.7,22.7,9.3,45.5,14,68.2c2.1,0,4.1,0,6.2,0c4.4-29.3,8.7-58.6,13.1-87.9c-2.2,0-4.2,0-6.4,0
				C252.4,163.6,249.1,188.2,245.9,212.8z"/>
			<g>
				<path class="st0" d="M185.1,158.2c0,8.3,0,16.5,0,24.8c0,4.2,0,8.5,0,12.7c0-4.2,0-8.5,0-12.7
					C185.1,174.7,185.2,166.4,185.1,158.2z"/>
				<path class="st0" d="M191,158.3c0-1.4-0.1-2.9-0.3-4.3c-1.5-10-8.5-14.7-16.5-15.8c-2.1-0.3-4.3-0.2-6.4,0.3
					c-5.4,1.3-9.8,4.1-12.5,9c-1.8,3.3-2.4,7-2.4,10.7c0,11.2,0,22.5,0,33.7c0,5.7-0.1,11.4,0.1,17.2c0.1,5.2,1.7,9.8,5.6,13.4
					c4.6,4.3,10.2,5.8,16.3,5c6-0.8,10.7-3.7,13.8-9.1c1.9-3.3,2.4-6.9,2.4-10.6c0-8.3,0-16.5,0-24.8C191,174.8,191,166.5,191,158.3
					z M185.1,208.3c0,4.1-1.3,7.8-4.5,10.5c-4.2,3.5-9.1,4-14,2c-4.8-1.9-7.2-5.7-7.8-10.7c-0.1-1.1-0.2-2.2-0.2-3.3
					c0-16.4,0-32.8,0-49.1c0-3.9,1.1-7.5,4-10.3c4.1-3.8,9-4.5,14.1-2.7c4.8,1.6,7.4,5.2,8.2,10.1c0.2,1.1,0.2,2.2,0.2,3.3
					c0,8.3,0,16.5,0,24.8c0,4.2,0,8.5,0,12.7C185.2,199.9,185.2,204.1,185.1,208.3z"/>
			</g>
			<path class="st0" d="M356.1,210.4c1.4,7.8,5.8,13.4,13.3,16.1c7.4,2.6,14.2,1.2,20.3-3.8c0.5-0.4,0.8-0.5,1.3,0
				c4.4,3.8,9.6,5.4,15.4,5c10.1-0.8,18.4-9.7,18.4-19.8c0-22.6,0-45.1,0-67.7c0-0.4,0-0.7,0-1.1c-4.2,0-8.3,0-12.5,0
				c0,0.4,0,0.8,0,1.2c0,21.8,0,43.7,0,65.5c0,1.3-0.2,2.7-0.5,4c-0.8,3.2-3.2,5.1-6.5,5.5c-3.1,0.3-6-1.1-7.4-3.8
				c-1-1.8-1.2-3.9-1.2-5.9c0-15.5,0-31,0-46.4c0-6.3,0-12.5,0-18.8c0-1.3,0-1.3-1.4-1.3c-3.3,0-6.7,0-10,0c-0.4,0-0.7,0-1.2,0.1
				c0,0.4,0,0.8,0,1.2c0,21.8,0,43.7,0,65.5c0,1.7-0.3,3.5-0.9,5.1c-1.1,2.9-3.4,4.3-6.4,4.4c-3.1,0.1-5.6-1-7.1-3.8
				c-0.9-1.7-1.2-3.6-1.2-5.5c0-21.9,0-43.7,0-65.6c0-0.4,0-0.8,0-1.2c-4.3,0-8.4,0-12.5,0c0,0.4,0,0.7,0,0.9c0,22.5,0,44.9,0,67.4
				C355.9,208.3,355.9,209.4,356.1,210.4z"/>
			<g>
				<path class="st0" d="M303.9,160.2c0-2-0.1-4-0.4-6c-0.6-3.7-2-7.1-4.6-9.8c-3.8-4-8.7-5.4-14-5.5c-5.5-0.1-11,0-16.4,0
					c-0.3,0-0.6,0-1,0c0,29.4,0,58.6,0,88c0.5,0,0.8,0,1.2,0c4.5,0,9.1,0.1,13.6,0c2.2,0,4.4-0.2,6.6-0.6
					c6.6-1.2,11.3-4.8,13.5-11.2c1.1-3.2,1.5-6.4,1.5-9.8C303.9,190.3,303.9,175.3,303.9,160.2z M296.6,214.4
					c-1.8,4.2-5,6.7-9.4,7.2c-4.1,0.4-8.2,0.3-12.3,0.4c-0.5,0-1.1,0-1.7,0c0-26.1,0-51.9,0-77.9c0.3,0,0.6,0,0.8,0
					c3.3,0,6.6,0,9.8,0c2.6,0,5.2,0.4,7.5,1.7c4.1,2.2,5.8,5.9,6.4,10.3c0.2,1.6,0.2,3.3,0.3,4.9c0,14.9,0,29.9,0,44.8
					C298.1,208.6,297.8,211.6,296.6,214.4z"/>
			</g>
			<path class="st0" d="M350.1,139c-13.9,0-27.8,0-41.6,0c0,4,0,7.8,0,11.8c4.9,0,9.7,0,14.6,0c0,25.4,0,50.8,0,76.1
				c4.2,0,8.3,0,12.5,0c0-25.4,0-50.8,0-76.2c4.9,0,9.7,0,14.5,0C350.1,146.7,350.1,142.9,350.1,139z"/>
			<path class="st0" d="M555.7,138.7c-1.5,0-3.1,0-4.6,0c0,0.1-0.1,0.3-0.1,0.4c0.3,0.1,0.5,0.4,0.8,0.4c1.5,0,1.3,0,1.3,1.4
				c0,1.3,0,2.6,0,3.9c0.3,0,0.6,0,1,0c0-1.2,0-2.3,0-3.3c0-0.6-0.1-1.3,0.1-1.8c0.2-0.3,1-0.2,1.5-0.3c0.2,0,0.3-0.3,0.5-0.4
				C556,139,555.9,138.7,555.7,138.7z"/>
			<path class="st0" d="M500.9,150.7c4.8,0,9.6,0,14.5,0c0,25.5,0,50.8,0,76.2c4.2,0,8.3,0,12.6,0c0-25.4,0-50.7,0-76.2
				c4.9,0,9.7,0,14.5,0c0-4,0-7.8,0-11.8c-13.9,0-27.8,0-41.6,0C500.9,142.9,500.9,146.7,500.9,150.7z"/>
			<path class="st0" d="M445.8,138.9c-4.2,0-8.3,0-12.5,0c0,29.4,0,58.7,0,88c4.2,0,8.3,0,12.5,0
				C445.8,197.5,445.8,168.2,445.8,138.9z"/>
			<path class="st0" d="M561.2,139.8c-0.3,1.2-0.7,2.3-1,3.5c-0.1,0-0.2,0-0.3,0c-0.4-1.2-0.8-2.3-1.1-3.5c-0.3-1.1-0.8-1.3-1.9-1
				c0,1.9,0,3.7,0,5.6c0,0.2,0.5,0.3,0.9,0.6c0-1,0-1.7,0-2.3c0-0.7,0-1.4,0-2c0.1,0,0.2,0,0.4,0c0.4,1.2,0.8,2.4,1.2,3.7
				c0.2,0.6,0.6,0.7,1.1,0.4c0.2-0.1,0.2-0.4,0.3-0.6c0.4-1.2,0.8-2.5,1.2-3.7c0.2,1.3,0.2,2.5,0.2,3.8c0,0.7,0.3,0.9,0.9,0.6
				c0-2,0-4,0-6C562,138.5,561.4,138.8,561.2,139.8z"/>
			<path class="st0" d="M489.5,180.2c-2.4-1.4-5-2.4-7.6-3.5c-3.2-1.4-6.4-2.6-9.6-4c-2.2-1-3.7-2.6-4.2-5.1
				c-0.7-3.8-0.8-7.5,0.3-11.2c0.9-3.1,2.9-5.1,6.3-5.6c4.7-0.6,8.8,1.2,10,6.6c0.4,1.6,0.3,3.3,0.5,5c0,0.6,0,1.2,0,1.8
				c4.3,0,8.4,0,12.6,0c0-2.1,0-4.1,0-6.1c-0.2-9.4-7.2-18.3-18.6-19.8c-2.2-0.3-4.6,0-6.8,0.4c-7.7,1.3-12.7,5.9-15.4,13.1
				c-1.8,4.8-1.9,9.9-1.6,14.9c0.2,3.2,0.9,6.2,2.4,9c2.3,4.4,6.1,7.1,10.5,9c3.9,1.6,7.8,3.2,11.7,4.8c3.1,1.3,4.7,3.6,5,6.9
				c0.1,1.2,0.2,2.3,0.2,3.5c0,3.3,0.2,6.6-0.6,9.9c-0.7,2.8-2.5,4.6-5.3,5.1c-1.3,0.2-2.7,0.4-4,0.3c-4.5-0.2-7.5-3.1-8-7.6
				c-0.2-1.4-0.1-2.9-0.1-4.3c0-0.3,0-0.7-0.1-1.1c-4.2,0-8.3,0-12.4,0c0,2.3-0.1,4.5,0,6.7c0.4,5.1,2.5,9.4,6.1,12.9
				c4.2,4,9.3,5.9,15.1,5.9c4,0,7.9-0.6,11.5-2.5c5-2.7,7.8-7.1,9.1-12.5c1.7-7,1.6-14.1,0.4-21.2
				C496,186.7,493.7,182.7,489.5,180.2z"/>
			<path class="st0" d="M134.3,187.9c-0.3-0.9-0.9-1.9-0.6-2.6c0.2-0.7,1.4-1,2.2-1.4c4.8-2.5,8-6.3,9.2-11.6
				c1.6-7.1,1.5-14.2-0.6-21.2c-2.3-7.3-7.4-11.3-15.1-11.9c-3.2-0.3-17.5-0.2-21.6-0.2c0,29.4,0,58.6,0,87.9c1.9,0,3.8,0,5.8,0
				c0-13.6,0-27.2,0-40.9c0.3,0,0.4-0.1,0.6-0.1c4.6,0,9.2,0,13.7,0c0.7,0,0.9,0.4,1.1,0.9c2.2,7.2,4.5,14.3,6.7,21.5
				c1.8,5.9,3.7,11.7,5.5,17.6c0.2,0.8,0.6,1.1,1.4,1c1.4-0.1,2.7,0,4.1,0c0.3,0,0.6-0.1,0.9-0.1c-0.1-0.4-0.2-0.6-0.3-0.9
				C142.9,213.3,138.6,200.6,134.3,187.9z M128,181.5c-4.7,0.4-9.5,0.1-14.4,0.1c0-12.5,0-25,0-37.6c0.3,0,0.6-0.1,0.9-0.1
				c3.6,0,7.2,0,10.7,0c3.1,0,6,0.6,8.7,2.2c3.4,2,5.1,5.2,5.8,8.9c0.9,5.4,1,10.8-0.1,16.1C138.3,177.4,134.4,181.1,128,181.5z"/>
		</g>
	</g>
	<g>
		<path class="st0" d="M341.9,236.6h2.4v16.9h8.2v2h-10.7V236.6z"/>
		<path class="st0" d="M360.8,241.2c3.4,0,6.5,2.7,6.5,7.4c0,4.6-3.1,7.3-6.5,7.3s-6.5-2.7-6.5-7.3
			C354.3,243.9,357.3,241.2,360.8,241.2z M360.8,253.9c2.4,0,4-2.2,4-5.4c0-3.2-1.6-5.4-4-5.4c-2.4,0-4,2.2-4,5.4
			C356.7,251.8,358.4,253.9,360.8,253.9z"/>
		<path class="st0" d="M370.9,259.6c1.6,0,2.6-1.3,3.2-3l0.3-1l-5.6-14h2.5l2.9,7.8c0.4,1.2,0.9,2.7,1.4,4h0.1
			c0.4-1.3,0.8-2.7,1.2-4l2.5-7.8h2.3l-5.3,15.2c-1,2.8-2.4,4.9-5.2,4.9c-0.6,0-1.2-0.1-1.6-0.3l0.5-1.9
			C370.2,259.5,370.6,259.6,370.9,259.6z"/>
		<path class="st0" d="M391.7,246.7c0-1.8-0.6-3.5-2.9-3.5c-1.6,0-3.1,0.7-4.2,1.5l-1-1.6c1.3-0.8,3.3-1.8,5.5-1.8
			c3.4,0,4.9,2.3,4.9,5.8v8.6h-2l-0.2-1.7h-0.1c-1.4,1.1-2.9,2-4.6,2c-2.4,0-4.1-1.5-4.1-4C383,248.9,385.7,247.3,391.7,246.7z
			 M387.8,254c1.4,0,2.5-0.7,3.8-1.9v-3.9c-4.7,0.6-6.3,1.7-6.3,3.5C385.4,253.3,386.4,254,387.8,254z"/>
		<path class="st0" d="M398.5,235h2.4v17.9c0,0.7,0.3,1,0.7,1c0.1,0,0.3,0,0.5-0.1l0.3,1.8c-0.3,0.1-0.7,0.2-1.4,0.2
			c-1.8,0-2.5-1.1-2.5-3.2V235z"/>
		<path class="st0" d="M406.2,243.5h-2.1v-1.8l2.2-0.1l0.3-3.9h2v3.9h3.8v1.9h-3.8v7.8c0,1.7,0.5,2.7,2.2,2.7c0.5,0,1.1-0.2,1.6-0.4
			l0.5,1.8c-0.8,0.3-1.7,0.5-2.6,0.5c-3,0-4-1.9-4-4.7V243.5z"/>
		<path class="st0" d="M415.7,259.6c1.6,0,2.6-1.3,3.2-3l0.3-1l-5.6-14h2.5l2.9,7.8c0.4,1.2,0.9,2.7,1.4,4h0.1
			c0.4-1.3,0.8-2.7,1.2-4l2.5-7.8h2.3l-5.3,15.2c-1,2.8-2.4,4.9-5.2,4.9c-0.6,0-1.2-0.1-1.6-0.3l0.5-1.9
			C414.9,259.5,415.4,259.6,415.7,259.6z"/>
		<path class="st0" d="M429.3,252.3c0.9,0,1.7,0.7,1.7,1.8c0,1-0.8,1.8-1.7,1.8c-1,0-1.7-0.8-1.7-1.8
			C427.6,253,428.3,252.3,429.3,252.3z"/>
		<path class="st0" d="M441.2,236.6h10.9v2h-8.5v5.9h7.2v2h-7.2v6.9h8.8v2h-11.2V236.6z"/>
		<path class="st0" d="M456.1,241.5h2l0.2,2h0.1c1.3-1.3,2.8-2.4,4.7-2.4c2.9,0,4.3,1.9,4.3,5.5v8.9H465V247c0-2.6-0.8-3.7-2.7-3.7
			c-1.4,0-2.4,0.7-3.8,2.2v10.2h-2.4V241.5z"/>
		<path class="st0" d="M472.9,255.1v-0.1c-0.7-0.4-1.2-1.2-1.2-2.3c0-1.2,0.8-2.1,1.5-2.6v-0.1c-0.9-0.7-1.8-2.1-1.8-3.8
			c0-3.1,2.4-5,5.3-5c0.8,0,1.5,0.1,2,0.3h4.9v1.8h-2.9c0.7,0.6,1.2,1.7,1.2,2.9c0,3-2.3,4.9-5.1,4.9c-0.7,0-1.5-0.2-2.1-0.5
			c-0.5,0.4-0.9,0.9-0.9,1.7c0,0.9,0.6,1.5,2.5,1.5h2.7c3.3,0,4.9,1,4.9,3.3c0,2.6-2.7,4.8-7.1,4.8c-3.4,0-5.8-1.4-5.8-3.8
			C470.8,257,471.6,255.9,472.9,255.1z M477,260.4c2.7,0,4.4-1.4,4.4-2.9c0-1.3-1-1.7-2.8-1.7h-2.4c-0.5,0-1.2-0.1-1.8-0.2
			c-1,0.7-1.4,1.6-1.4,2.4C472.9,259.4,474.4,260.4,477,260.4z M479.6,246.2c0-2-1.3-3.3-3-3.3c-1.6,0-3,1.2-3,3.3
			c0,2,1.4,3.3,3,3.3C478.2,249.5,479.6,248.2,479.6,246.2z"/>
		<path class="st0" d="M493.9,246.7c0-1.8-0.6-3.5-2.9-3.5c-1.6,0-3.1,0.7-4.2,1.5l-1-1.6c1.3-0.8,3.3-1.8,5.5-1.8
			c3.4,0,4.9,2.3,4.9,5.8v8.6h-2l-0.2-1.7H494c-1.4,1.1-2.9,2-4.6,2c-2.4,0-4.1-1.5-4.1-4C485.3,248.9,487.9,247.3,493.9,246.7z
			 M490.1,254c1.4,0,2.5-0.7,3.8-1.9v-3.9c-4.7,0.6-6.3,1.7-6.3,3.5C487.6,253.3,488.7,254,490.1,254z"/>
		<path class="st0" d="M501.7,255.1v-0.1c-0.7-0.4-1.2-1.2-1.2-2.3c0-1.2,0.8-2.1,1.5-2.6v-0.1c-0.9-0.7-1.8-2.1-1.8-3.8
			c0-3.1,2.4-5,5.3-5c0.8,0,1.5,0.1,2,0.3h4.9v1.8h-2.9c0.7,0.6,1.2,1.7,1.2,2.9c0,3-2.3,4.9-5.1,4.9c-0.7,0-1.5-0.2-2.1-0.5
			c-0.5,0.4-0.9,0.9-0.9,1.7c0,0.9,0.6,1.5,2.5,1.5h2.7c3.3,0,4.9,1,4.9,3.3c0,2.6-2.7,4.8-7.1,4.8c-3.4,0-5.8-1.4-5.8-3.8
			C499.7,257,500.4,255.9,501.7,255.1z M505.8,260.4c2.7,0,4.4-1.4,4.4-2.9c0-1.3-1-1.7-2.8-1.7H505c-0.5,0-1.2-0.1-1.8-0.2
			c-1,0.7-1.4,1.6-1.4,2.4C501.7,259.4,503.3,260.4,505.8,260.4z M508.4,246.2c0-2-1.3-3.3-3-3.3c-1.6,0-3,1.2-3,3.3
			c0,2,1.4,3.3,3,3.3C507.1,249.5,508.4,248.2,508.4,246.2z"/>
		<path class="st0" d="M520.1,241.2c3.6,0,5.6,2.6,5.6,6.6c0,0.5,0,1-0.1,1.3h-9.5c0.2,3,2,4.9,4.7,4.9c1.3,0,2.5-0.4,3.5-1.1
			l0.8,1.6c-1.2,0.8-2.7,1.4-4.6,1.4c-3.7,0-6.7-2.7-6.7-7.3C513.8,244,516.9,241.2,520.1,241.2z M523.6,247.5
			c0-2.9-1.3-4.4-3.5-4.4c-2,0-3.7,1.6-4,4.4H523.6z"/>
		<path class="st0" d="M534.2,241.2c1.6,0,2.7,0.6,3.9,1.6l-0.1-2.4V235h2.4v20.5h-2l-0.2-1.6h-0.1c-1.1,1.1-2.6,2-4.2,2
			c-3.5,0-5.8-2.7-5.8-7.3C528.2,244,531,241.2,534.2,241.2z M534.5,253.9c1.3,0,2.4-0.6,3.6-1.9v-7.3c-1.2-1.1-2.2-1.5-3.4-1.5
			c-2.2,0-4,2.2-4,5.4C530.6,251.9,532,253.9,534.5,253.9z"/>
		<path class="st0" d="M546.4,252.3c0.9,0,1.7,0.7,1.7,1.8c0,1-0.8,1.8-1.7,1.8c-1,0-1.7-0.8-1.7-1.8
			C544.7,253,545.5,252.3,546.4,252.3z"/>
	</g>
</g>
</svg>
