<?xml version="1.0" encoding="utf-8"?>
<!-- Generator: Adobe Illustrator 21.1.0, SVG Export Plug-In . SVG Version: 6.00 Build 0)  -->
<svg version="1.1" id="Layer_1" xmlns="http://www.w3.org/2000/svg" xmlns:xlink="http://www.w3.org/1999/xlink" x="0px" y="0px"
	 viewBox="0 0 250 250" style="enable-background:new 0 0 250 250;" xml:space="preserve">
<style type="text/css">
	.st0{fill:#3C3382;}
</style>
<g>
	<path class="st0" d="M125,1.25c-41.44,0-77.97,20.46-100.4,51.74c8.73-5.64,17.77-8.56,27.17-8.56
		c49.05,0,73.56,56.27,73.56,168.78l37.55-58.68c22.76-35.53,34.15-57.74,34.15-66.64c0-2.97-3.52-4.46-10.57-4.46h-9.39l1.41-7.15
		h50.46l-1.53,7.15h-9.74l-104.5,164.72c3.89,0.37,7.84,0.6,11.83,0.6c68.35,0,123.75-55.41,123.75-123.75S193.35,1.25,125,1.25z"/>
	<path class="st0" d="M41.35,58.74c-10.03,0-22.07,1.81-27.81,12.75C5.75,87.7,1.25,105.81,1.25,125
		c0,59.81,42.43,109.71,98.83,121.24l0.56-24.25c0-60.55-5.5-102.58-16.51-126.1C72.49,71.13,58.23,58.74,41.35,58.74z"/>
</g>
</svg>
