<?xml version="1.0" encoding="utf-8"?>
<!-- Generator: Adobe Illustrator 21.1.0, SVG Export Plug-In . SVG Version: 6.00 Build 0)  -->
<svg version="1.1" id="Everseen" xmlns="http://www.w3.org/2000/svg" xmlns:xlink="http://www.w3.org/1999/xlink" x="0px" y="0px"
	 viewBox="0 0 600 400" style="enable-background:new 0 0 600 400;" xml:space="preserve">
<style type="text/css">
	.st0{fill:#FFFFFF;}
</style>
<g>
	<g>
		<g>
			<g>
				<path class="st0" d="M89.2,154.8c-24.9,0.1-45.1,20.4-45.1,45.2c0,24.9,20.2,45.2,45.1,45.2l23.1,0c3.6,0,7-1.4,9.6-4
					c2.6-2.6,4-5.9,4-9.6c0-7.5-6.1-13.5-13.5-13.5l-23,0c-10,0-18.2-8.2-18.2-18.2c0-10,8.2-18.2,18.2-18.2l22.9,0
					c7.5,0,13.5-6.1,13.5-13.5c0-7.5-6.1-13.5-13.5-13.5C112.4,154.8,89.6,154.8,89.2,154.8z"/>
			</g>
		</g>
		<g>
			<path class="st0" d="M89.8,186.5c-7.5,0-13.5,6.1-13.5,13.5c0,7.5,6.1,13.5,13.5,13.5h16.3c3.6,0,7-1.4,9.6-4c2.6-2.6,4-6,4-9.6
				c0-7.5-6.1-13.5-13.5-13.5H89.8z"/>
		</g>
	</g>
	<g>
		<path class="st0" d="M151,204c0.1,4,0.9,6.9,2.6,8.7c1.7,1.8,4.8,2.7,9.6,2.7c5.6,0,10.3-0.6,14.3-1.9c0.7-0.4,1.6-0.5,2.7-0.5
			c1.1,0,1.8,0.6,2.1,1.7c1,3.1,1.5,5.3,1.5,6.6c0,1.2-0.6,2.1-1.8,2.7c-2.1,1.1-5.1,2-9,2.6c-3.9,0.6-7.6,0.9-11,0.9
			c-5.9,0-10.7-0.9-14.3-2.6c-3.6-1.7-6.4-4.5-8.2-8.3c-1.8-3.8-2.7-9.4-2.7-16.7c0-10,2-17.2,6.1-21.6c4.1-4.4,10.5-6.6,19.3-6.6
			c6.1,0,10.7,1,13.9,3c3.2,2,5.5,4.9,6.7,8.7c1.2,3.8,1.8,9.3,1.8,16.5c0,1.8-0.4,3-1.2,3.6c-0.5,0.4-1.3,0.6-2.5,0.6H151z
			 M151.2,193.6h19.9l0.1-1.8c0-2.6-0.3-4.6-0.9-6c-0.6-1.4-1.6-2.4-2.9-3c-1.3-0.6-3.2-1-5.5-1c-3.8,0-6.5,0.9-8.1,2.8
			C152.2,186.6,151.4,189.6,151.2,193.6z"/>
		<path class="st0" d="M219.1,226.2h-8.1c-0.8,0-1.6-0.3-2.3-0.8c-0.7-0.5-1.1-1.2-1.4-2l-18-45.8c-0.4-0.9-0.5-1.9-0.5-2.9
			c0-0.5,0.2-0.9,0.6-1.3c0.4-0.4,1-0.6,1.7-0.6h10c1.5,0,2.6,1,3.3,3c5.2,14.3,8.8,24.7,10.9,31.3c2.8-8.5,5-14.7,6.4-18.6
			c1.5-3.9,3.1-8.1,4.8-12.6c0.8-2,1.8-3.1,3.2-3.1h9.3c0.8,0,1.4,0.2,1.8,0.6c0.5,0.4,0.7,0.9,0.7,1.4c0,0.8-0.2,1.7-0.6,2.7
			l-18.3,46C221.9,225.3,220.7,226.2,219.1,226.2z"/>
		<path class="st0" d="M260.7,204c0.1,4,0.9,6.9,2.6,8.7c1.7,1.8,4.8,2.7,9.6,2.7c5.6,0,10.3-0.6,14.3-1.9c0.7-0.4,1.6-0.5,2.7-0.5
			c1.1,0,1.8,0.6,2.1,1.7c1,3.1,1.5,5.3,1.5,6.6c0,1.2-0.6,2.1-1.8,2.7c-2.1,1.1-5.1,2-9,2.6c-3.9,0.6-7.6,0.9-11,0.9
			c-5.9,0-10.7-0.9-14.3-2.6c-3.6-1.7-6.4-4.5-8.2-8.3c-1.8-3.8-2.7-9.4-2.7-16.7c0-10,2-17.2,6.1-21.6c4.1-4.4,10.5-6.6,19.3-6.6
			c6.1,0,10.7,1,13.9,3c3.2,2,5.5,4.9,6.7,8.7c1.2,3.8,1.8,9.3,1.8,16.5c0,1.8-0.4,3-1.2,3.6c-0.5,0.4-1.3,0.6-2.5,0.6H260.7z
			 M260.9,193.6h19.9l0.1-1.8c0-2.6-0.3-4.6-0.9-6c-0.6-1.4-1.6-2.4-2.9-3c-1.3-0.6-3.2-1-5.5-1c-3.8,0-6.5,0.9-8.1,2.8
			C261.9,186.6,261.1,189.6,260.9,193.6z"/>
		<path class="st0" d="M320.1,223.2c0,0.8-0.2,1.6-0.7,2.1c-0.5,0.6-1.2,0.8-2,0.8h-8.8c-0.8,0-1.5-0.3-2-0.8
			c-0.5-0.5-0.7-1.2-0.7-2.2v-46.9c0-2.3,1.1-3.4,3.2-3.4h7.8c0.9,0,1.6,0.2,2.1,0.5c0.5,0.4,0.7,0.9,0.8,1.7l0.2,1.6
			c1-1.3,2.7-2.5,5.1-3.5c2.4-1,4.9-1.5,7.6-1.5c2.1,0,3.6,0.1,4.4,0.4c0.5,0.1,0.9,0.5,1.3,1c0.4,0.5,0.6,1.1,0.6,1.8
			c0,1-0.1,2.3-0.2,4.1c-0.1,1.7-0.3,2.9-0.5,3.5c-0.2,1.1-1.1,1.7-2.6,1.7L330,184c-1.4,0-2.9,0.1-4.3,0.4c-1.5,0.3-2.6,0.6-3.5,1
			c-0.9,0.5-1.5,1-1.8,1.5c-0.2,0.4-0.3,1.1-0.3,2V223.2z"/>
		<path class="st0" d="M371,194.7c5.1,1.2,8.7,3,10.8,5.3c2,2.3,3.1,5.9,3.1,10.8c0,11.1-7.3,16.7-22,16.7c-8.2,0-14.4-0.8-18.4-2.5
			c-1.3-0.5-2-1.4-2-2.7c0-1.5,0.5-3.9,1.4-7.2c0.2-0.6,0.6-1.1,1.1-1.5c0.5-0.4,1.1-0.5,1.7-0.5c0.8,0,1.8,0.2,3,0.5
			c4.6,1.3,9.2,1.9,13.9,1.9c2.3,0,4.1-0.3,5.5-0.9c1.4-0.6,2.2-1.8,2.2-3.6c0-1.3-0.4-2.2-1.2-2.9c-0.8-0.7-2.5-1.3-5.1-1.8
			l-7.7-1.7c-4.4-1-7.8-2.7-10.1-5.1c-2.3-2.4-3.5-6.1-3.5-11c0-5.2,1.8-9.3,5.3-12.3c3.5-3,9-4.4,16.4-4.4c6.8,0,12,0.5,15.5,1.6
			c1.4,0.5,2.1,1.4,2.1,2.7c0,1.6-0.4,4.1-1.3,7.4c-0.1,0.5-0.4,0.9-0.8,1.3c-0.4,0.4-0.9,0.5-1.4,0.5l-2.7-0.3
			c-4.2-0.8-8-1.2-11.5-1.2c-2.2,0-4,0.2-5.5,0.7c-1.5,0.5-2.2,1.6-2.2,3.4c0,1.3,0.4,2.4,1.2,3.1c0.8,0.7,2.5,1.4,5.2,2L371,194.7z
			"/>
		<path class="st0" d="M407,204c0.1,4,0.9,6.9,2.6,8.7c1.7,1.8,4.8,2.7,9.6,2.7c5.6,0,10.3-0.6,14.3-1.9c0.7-0.4,1.6-0.5,2.7-0.5
			c1.1,0,1.8,0.6,2.1,1.7c1,3.1,1.5,5.3,1.5,6.6c0,1.2-0.6,2.1-1.8,2.7c-2.1,1.1-5.1,2-9,2.6c-3.9,0.6-7.6,0.9-11,0.9
			c-5.9,0-10.7-0.9-14.3-2.6c-3.6-1.7-6.4-4.5-8.2-8.3c-1.8-3.8-2.7-9.4-2.7-16.7c0-10,2-17.2,6.1-21.6c4.1-4.4,10.5-6.6,19.3-6.6
			c6.1,0,10.7,1,13.9,3c3.2,2,5.5,4.9,6.7,8.7c1.2,3.8,1.8,9.3,1.8,16.5c0,1.8-0.4,3-1.2,3.6c-0.5,0.4-1.3,0.6-2.5,0.6H407z
			 M407.2,193.6H427l0.1-1.8c0-2.6-0.3-4.6-0.9-6c-0.6-1.4-1.6-2.4-2.9-3c-1.3-0.6-3.2-1-5.5-1c-3.8,0-6.5,0.9-8.1,2.8
			C408.2,186.6,407.3,189.6,407.2,193.6z"/>
		<path class="st0" d="M463.2,204c0.1,4,0.9,6.9,2.6,8.7c1.7,1.8,4.8,2.7,9.6,2.7c5.6,0,10.3-0.6,14.3-1.9c0.7-0.4,1.6-0.5,2.7-0.5
			c1.1,0,1.8,0.6,2.1,1.7c1,3.1,1.5,5.3,1.5,6.6c0,1.2-0.6,2.1-1.8,2.7c-2.1,1.1-5.1,2-9,2.6c-3.9,0.6-7.6,0.9-11,0.9
			c-5.9,0-10.7-0.9-14.3-2.6c-3.6-1.7-6.4-4.5-8.2-8.3c-1.8-3.8-2.7-9.4-2.7-16.7c0-10,2-17.2,6.1-21.6c4.1-4.4,10.5-6.6,19.3-6.6
			c6.1,0,10.7,1,13.9,3c3.2,2,5.5,4.9,6.7,8.7c1.2,3.8,1.8,9.3,1.8,16.5c0,1.8-0.4,3-1.2,3.6c-0.5,0.4-1.3,0.6-2.5,0.6H463.2z
			 M463.4,193.6h19.9l0.1-1.8c0-2.6-0.3-4.6-0.9-6c-0.6-1.4-1.6-2.4-2.9-3c-1.3-0.6-3.2-1-5.5-1c-3.8,0-6.5,0.9-8.1,2.8
			C464.4,186.6,463.5,189.6,463.4,193.6z"/>
		<path class="st0" d="M522.6,223.2c0,0.8-0.2,1.6-0.7,2.1c-0.5,0.6-1.2,0.8-2,0.8H511c-0.8,0-1.5-0.3-2-0.8
			c-0.5-0.5-0.7-1.2-0.7-2.2v-46.9c0-2.3,1.1-3.4,3.2-3.4h7.6c0.8,0,1.4,0.1,2,0.4c0.5,0.2,0.9,0.9,1.1,2.1l0.2,1.6
			c1.6-1.6,4-2.9,7.1-3.8c3.1-0.9,6.4-1.4,9.8-1.4c4.7,0,8.3,0.6,10.7,1.7c2.4,1.1,4,2.8,4.9,5c0.8,2,1.2,5.5,1.2,10.4v34.4
			c0,2-0.9,3-2.7,3h-8.8c-0.8,0-1.5-0.3-2-0.8c-0.5-0.6-0.7-1.3-0.7-2.1v-31c0-2.4-0.2-4.1-0.5-5.2c-0.4-1.1-1.1-1.8-2.2-2.3
			c-1.1-0.5-2.7-0.7-4.8-0.7c-3.5,0-6.5,0.5-9,1.5c-1,0.4-1.7,0.8-2.2,1.5c-0.4,0.7-0.6,1.7-0.6,3.1V223.2z"/>
	</g>
</g>
</svg>
