<?xml version="1.0" encoding="utf-8"?>
<!-- Generator: Adobe Illustrator 21.1.0, SVG Export Plug-In . SVG Version: 6.00 Build 0)  -->
<svg version="1.1" id="Gotham_Greens" xmlns="http://www.w3.org/2000/svg" xmlns:xlink="http://www.w3.org/1999/xlink" x="0px"
	 y="0px" viewBox="0 0 600 400" style="enable-background:new 0 0 600 400;" xml:space="preserve">
<style type="text/css">
	.st0{fill:#FFFFFF;}
</style>
<polygon class="st0" points="346.8,167.6 345,180 349.3,180 347.5,167.6 "/>
<g>
	<g>
		<g>
			<g>
				<g>
					<g>
						<path class="st0" d="M270.6,230.7h-3.8v-3.7h3.8c1.4,0,2.5,0.4,2.5,1.9C273.1,230.3,272,230.7,270.6,230.7z"/>
						<path class="st0" d="M270.6,226.9h-3.8v3.7h3.8c1.4,0,2.5-0.4,2.5-1.9C273.1,227.3,272,226.9,270.6,226.9z"/>
					</g>
				</g>
				<path class="st0" d="M244.5,187.5v-26.6c0-2.6-2.7-4.6-5.4-3.5c-1.4,0.6-2.2,2-2.2,3.5v26.6c0,1.6,1,3.1,2.5,3.6
					C242,192,244.5,190,244.5,187.5z"/>
			</g>
		</g>
	</g>
</g>
<path class="st0" d="M322.3,331.3c0-0.5,0.5-0.7,1.2-0.8c0.6-0.1,12.1-1.4,25.4-2c14.8-0.7,25.9,2.1,26,2.1c0.6,0.1,3.3,0.7,2.8,3.1
	c-0.6,2.5-3.1,1.6-3.6,1.5c-0.1,0-9.7-3.3-25-3.3c-12.8,0-25.2,0-25.3,0C322.8,331.9,322.3,331.8,322.3,331.3z"/>
<path class="st0" d="M274.8,300.1c0,0.4-0.5,0.7-1.3,0.7c-0.6,0.1-12.2,0.6-25.5,0.6c-15.7,0-25.7-3.5-25.9-3.6
	c-0.6-0.2-3.3-0.9-2.6-3.3c0.7-2.5,3.2-1.4,3.7-1.3c0.1,0,11.9,4.1,24.8,4.7c12.8,0.7,25.2,1.5,25.3,1.5
	C274.3,299.5,274.9,299.6,274.8,300.1z"/>
<g>
	<g>
		<path class="st0" d="M220.6,324.8c0-6.9,0-13.7,0-20.6c0.7,0.1,1.3,0.2,2,0.3c0,6.2,0,12.3,0,18.5c1.7,0.3,3.4,0.5,5.1,0.7
			c0,0.7,0,1.4,0,2.1C225.3,325.6,222.9,325.2,220.6,324.8z"/>
		<path class="st0" d="M232.4,310.8c0-3.1,1.4-5,4.1-4.8c2.8,0.2,4.1,2.3,4.1,5.5c0,3.5,0,7.1,0,10.6c0,3.1-1.4,5.1-4.1,4.9
			c-2.7-0.2-4.1-2.4-4.1-5.5C232.4,317.9,232.4,314.4,232.4,310.8z M234.4,321.8c0,1.9,0.7,3,2.1,3.1c1.5,0.1,2.1-0.9,2.1-2.8
			c0-3.6,0-7.2,0-10.9c0-1.9-0.7-3-2.1-3.1c-1.4-0.1-2.1,0.9-2.1,2.8C234.4,314.5,234.4,318.1,234.4,321.8z"/>
		<path class="st0" d="M253.8,311.9c0,0.6,0,1.2,0,1.9c-0.6,0-1.3,0-1.9,0c0-0.7,0-1.3,0-2c0-1.9-0.6-3-2.1-3
			c-1.4,0-2.1,1.1-2.1,2.9c0,3.6,0,7.2,0,10.9c0,1.9,0.7,3,2.1,3c1.5,0,2.1-1.1,2.1-2.9c0-0.9,0-1.8,0-2.7c0.6,0,1.3,0,1.9,0
			c0,0.9,0,1.7,0,2.6c0,3.1-1.3,5.2-4,5.1c-2.7-0.1-4-2.2-4-5.3c0-3.5,0-7.1,0-10.6c0-3.1,1.3-5.1,4-5.1
			C252.5,306.7,253.8,308.7,253.8,311.9z"/>
		<path class="st0" d="M261,323.2c-0.2,1.4-0.5,2.8-0.7,4.2c-0.6,0-1.2,0-1.8,0c1.1-6.9,2.3-13.8,3.4-20.6c1,0,1.9-0.1,2.9-0.1
			c1.1,6.8,2.3,13.6,3.4,20.4c-0.7,0-1.3,0.1-2,0.1c-0.2-1.4-0.5-2.7-0.7-4.1C264,323.2,262.5,323.2,261,323.2z M261.2,321.3
			c1.3,0,2.7-0.1,4-0.1c-0.7-3.9-1.3-7.9-2-11.8C262.5,313.3,261.9,317.3,261.2,321.3z"/>
		<path class="st0" d="M273.1,326.9c0-6.9,0-13.7,0-20.6c0.7,0,1.3-0.1,2-0.1c0,6.2,0,12.3,0,18.5c1.7-0.1,3.4-0.2,5.1-0.3
			c0,0.7,0,1.4,0,2.1C277.8,326.6,275.5,326.7,273.1,326.9z"/>
		<path class="st0" d="M296.3,304.5c2.8-0.2,4,1.6,4,4.7c0,0.8,0,1.6,0,2.5c0,3.3-1.3,5.1-4.2,5.3c-0.6,0.1-1.2,0.1-1.8,0.2
			c0,2.7,0,5.4,0,8.1c-0.7,0.1-1.3,0.1-2,0.2c0-6.9,0-13.7,0-20.6C293.7,304.8,295,304.7,296.3,304.5z M296.2,315
			c1.5-0.1,2.2-1,2.2-3c0-0.9,0-1.8,0-2.7c0-1.9-0.6-2.8-2-2.6c-0.6,0.1-1.3,0.1-1.9,0.2c0,2.8,0,5.5,0,8.3
			C295,315.1,295.6,315,296.2,315z"/>
		<path class="st0" d="M309.3,303.4c2.8-0.2,4,1.3,4,4.4c0,0.6,0,1.1,0,1.7c0,2.3-0.7,3.7-2.2,4.4c1.6,0.4,2.2,1.9,2.2,4.1
			c0,1.1,0,2.1,0,3.2c0,0.9,0,1.8,0.4,2.4c-0.7,0.1-1.3,0.1-2,0.2c-0.2-0.6-0.3-1.1-0.3-2.5c0-1.1,0-2.2,0-3.2c0-2.3-0.9-3-2.6-2.8
			c-0.5,0-0.9,0.1-1.4,0.1c0,2.9,0,5.9,0,8.8c-0.7,0.1-1.3,0.1-2,0.2c0-6.9,0-13.7,0-20.6C306.7,303.6,308,303.5,309.3,303.4z
			 M308.8,313.2c1.6-0.1,2.5-0.8,2.5-3c0-0.7,0-1.3,0-2c0-1.9-0.6-2.8-2.1-2.6c-0.6,0.1-1.3,0.1-1.9,0.2c0,2.5,0,5.1,0,7.6
			C307.8,313.2,308.3,313.2,308.8,313.2z"/>
		<path class="st0" d="M318.6,307.7c0-3.1,1.4-5.3,4.1-5.5c2.8-0.2,4.1,1.8,4.1,4.9c0,3.5,0,7.1,0,10.6c0,3.1-1.4,5.2-4.1,5.4
			c-2.7,0.2-4.1-1.8-4.1-4.9C318.6,314.7,318.6,311.2,318.6,307.7z M320.6,318.3c0,1.9,0.7,2.9,2.1,2.8c1.5-0.1,2.1-1.2,2.1-3.1
			c0-3.6,0-7.2,0-10.9c0-1.9-0.7-2.9-2.1-2.8c-1.4,0.1-2.1,1.3-2.1,3.1C320.6,311,320.6,314.6,320.6,318.3z"/>
		<path class="st0" d="M336.3,301.7c2.8-0.1,4.1,1.8,4.1,5c0,3.5,0,6.9,0,10.4c0,3.1-1.3,5.1-4.1,5.2c-1.4,0-2.8,0.1-4.2,0.2
			c0-6.9,0-13.7,0-20.6C333.5,301.8,334.9,301.8,336.3,301.7z M336.3,320.2c1.4,0,2.1-1.1,2.1-3c0-3.5,0-7.1,0-10.6
			c0-1.9-0.7-2.9-2.1-2.8c-0.7,0-1.4,0-2.1,0.1c0,5.5,0,10.9,0,16.4C334.8,320.3,335.5,320.2,336.3,320.2z"/>
		<path class="st0" d="M347.5,317.3c0,1.9,0.6,3,2.1,3c1.4,0,2.1-1.1,2.1-2.9c0-5.2,0-10.5,0-15.7c0.6,0,1.2,0,1.9,0.1
			c0,5.2,0,10.4,0,15.6c0,3.1-1.3,5.2-4,5.1c-2.7,0-4-2.1-4-5.2c0-5.2,0-10.4,0-15.6c0.7,0,1.3,0,2,0
			C347.5,306.8,347.5,312.1,347.5,317.3z"/>
		<path class="st0" d="M366.7,307.5c0,0.6,0,1.2,0,1.9c-0.6-0.1-1.3-0.1-1.9-0.2c0-0.7,0-1.3,0-2c0-1.8-0.6-3-2.1-3.1
			c-1.4-0.1-2.1,1-2.1,2.8c0,3.6,0,7.2,0,10.9c0,1.9,0.7,3,2.1,3.1c1.5,0.1,2.1-0.9,2.1-2.8c0-0.9,0-1.8,0-2.7
			c0.6,0.1,1.3,0.1,1.9,0.2c0,0.9,0,1.7,0,2.6c0,3.1-1.3,5-4,4.8c-2.7-0.2-4-2.3-4-5.4c0-3.5,0-7.1,0-10.6c0-3.1,1.3-5.1,4-4.9
			C365.5,302.2,366.7,304.4,366.7,307.5z"/>
		<path class="st0" d="M378.3,313.2c0,0.7,0,1.4,0,2.1c-1.5-0.2-2.9-0.5-4.4-0.7c0,2.4,0,4.9,0,7.3c1.8,0.3,3.6,0.5,5.4,0.8
			c0,0.7,0,1.4,0,2.1c-2.5-0.4-4.9-0.8-7.4-1.1c0-6.9,0-13.7,0-20.6c2.5,0.3,4.9,0.7,7.4,1.1c0,0.7,0,1.4,0,2.1
			c-1.8-0.3-3.6-0.6-5.4-0.8c0,2.3,0,4.7,0,7C375.4,312.7,376.8,312.9,378.3,313.2z"/>
	</g>
</g>
<g>
	<path class="st0" d="M419.3,117.4h-21V99.7c0-3.5-2.4-6.5-5.6-7.4h0l-87.8-27.8h0c-1.4-0.6-3.2-0.9-5-0.9c-1.9,0-3.6,0.3-5,0.9
		L207,92.4h0c-3.2,0.9-5.6,3.9-5.6,7.4v17.6h-21c-4.2,0-7.7,3.4-7.7,7.7v91.1c0,2.8,1.6,5.3,3.9,6.7c1.1,0.6,24.7,7.6,24.7,7.6v20.5
		c0,3.5,2.4,6.5,5.6,7.4h0l87.8,27.8h0c1.4,0.6,3.2,0.9,5,0.9c1.9,0,3.6-0.3,5-0.9l87.8-27.8h0c3.2-0.9,5.6-3.9,5.6-7.4v-20.5
		c0,0,23.6-6.9,24.7-7.6c2.3-1.3,3.9-3.8,3.9-6.7V125C426.9,120.8,423.5,117.4,419.3,117.4z M325.4,88.5c0,0,0.2,14.5-4.8,25.1
		c-5.1,10.7-23.5,6.9-23.5,6.9C292.3,83.9,325.4,88.5,325.4,88.5z M294.8,103c-0.7,2.5-1.2,5.5-1.3,8.7c-0.8-0.9-1.6-1.9-2.6-2.9
		c-3.9-3.9-8.9-6.2-9.1-6.3c-0.2-0.1-0.5,0-0.7,0.2c-0.1,0.3,0,0.6,0.3,0.7c0,0,4.9,2.6,8.5,6.6c1.4,1.5,2.6,3,3.6,4.4
		c0,1.9,0.2,3.7,0.4,5.4c-4,0.7-9.1,0.5-11.9-3.2c-5.3-7-7.4-17.6-7.4-17.6S287.2,94.4,294.8,103z M217.5,187.5
		c-0.4,4.8-2.1,9.2-7,11.3c-4.3,1.8-8.5,1.6-12.4-1.3c-3.2-2.3-4.9-5.6-5-9.5c-0.1-8.8-0.1-17.6,0-26.5c0.1-6.5,3.6-11.1,9.2-12.6
		c5.1-1.4,10.4,0.6,13.2,5.2c1.1,1.8,1.7,4.1,1.9,6.3c0.1,2.2,0.2,4.3,0.1,6.5h-8.8v-6c0-2.6-2.7-4.6-5.4-3.5
		c-1.4,0.6-2.2,2-2.2,3.5v26.6c0,1.6,1,3.1,2.5,3.6c2.7,0.9,5.1-1.1,5.1-3.6v-8.9h-4.2v-8.1h13c0,1-0.1,2-0.1,3.1
		C217.6,178.2,217.8,182.9,217.5,187.5z M228.4,188c-0.1-8.8-0.1-17.6,0-26.5c0.1-6.5,3.6-11.1,9.2-12.6c5.1-1.4,10.4,0.6,13.2,5.2
		c1.1,1.8,1.7,4.1,1.9,6.3c0.3,4.3,0.1,8.7,0.1,13.1c0,4.7,0.3,9.4-0.1,14c-0.4,4.8-2.1,9.2-7,11.3c-4.3,1.8-8.5,1.6-12.4-1.3
		C230.2,195.2,228.5,192,228.4,188z M254.9,238.4c-1.7,1.6-3.9,2.7-6.7,2.7c-5,0-8.8-3.4-8.8-8.8c0-5.4,3.8-8.8,8.8-8.8
		c3,0,5,1.3,6.4,2.9l-2.3,2.5c-0.8-1.2-2.2-2.2-4-2.2c-3.1,0-5.1,2.4-5.1,5.6c0,3.2,2,5.6,5.1,5.6c1.5,0,2.9-0.7,3.6-1.3v-2.7h-2.6
		v-3.2h5.7V238.4z M273.4,240.8l-4-6.9h-2.7v6.9h-3.6v-17h8c3.6,0,5.7,2.3,5.7,5.5c0,3-1.9,3.8-3.8,4.2l4.5,7.4H273.4z M278.9,199.2
		h-8.4v-41.5h-8l0-8.5l23.9,0v8.4h-7.5V199.2z M297.1,226.9h-9.1v3.6h8.3v3.2h-8.3v3.9h9.1v3.2h-12.7v-17h12.7V226.9z M316.9,226.9
		h-9.1v3.6h7v3.2h-7v3.9h9.1v3.2h-12.7v-17h12.7V226.9z M322,199.2h-8.6l0-20.5h-7.8l0.1,20.5h-8.4l0.1-50h8.2l0,20.7h7.8l-0.1-20.7
		h8.7L322,199.2z M339.8,240.8h-1.6l-10.7-9.8v9.8h-3.6v-17h1.8l10.4,9.4v-9.4h3.6V240.8z M353.5,241.1c-3.3,0-5.6-1.1-7.3-2.7
		l2-2.8c1.2,1.3,3.1,2.3,5.4,2.3c2,0,3-0.9,3-1.9c0-3-9.8-0.9-9.8-7.3c0-2.8,2.5-5.2,6.5-5.2c2.7,0,5,0.8,6.6,2.4l-2,2.7
		c-1.4-1.3-3.2-1.9-5-1.9c-1.5,0-2.4,0.7-2.4,1.7c0,2.7,9.8,0.9,9.8,7.2C360.3,238.7,358.1,241.1,353.5,241.1z M352.2,199.2l-1.6-11
		h-6.7l-1.6,11h-9.1l8.5-50h7.7l0,0l2.7,0l8.4,50H352.2z M406.6,199.2h-8.3v-24.8l-5.9,24.8h-6.4l-6.3-24.8v24.8h-8.3v-49.8h11.5
		l6.3,33l6.3-33h11.1V199.2z"/>
	<path class="st0" d="M301.2,117.2c1.3,0.5,1.7-0.9,1.8-1.2c0-0.1,2.2-6.7,6.3-12.6c4-5.9,10-10.3,10-10.3c0.3-0.2,0.5-0.5,0.3-0.8
		c-0.2-0.3-0.6-0.3-0.9-0.1c-0.3,0.2-6.5,4.1-10.9,10.1c-4.9,6.6-7.1,12.6-7.2,12.7C300.5,115.3,299.9,116.7,301.2,117.2z"/>
</g>
</svg>
