<?xml version="1.0" encoding="utf-8"?>
<!-- Generator: Adobe Illustrator 21.1.0, SVG Export Plug-In . SVG Version: 6.00 Build 0)  -->
<svg version="1.1" id="Hilton" xmlns="http://www.w3.org/2000/svg" xmlns:xlink="http://www.w3.org/1999/xlink" x="0px" y="0px"
	 viewBox="0 0 600 400" style="enable-background:new 0 0 600 400;" xml:space="preserve">
<style type="text/css">
	.st0{fill:#FFFFFF;}
</style>
<g>
	<g>
		<path class="st0" d="M186.9,300.7v-3.3h8.7v-29.6h-23.3v29.6h8.9v3.3h-32v-3.3h8.2v-60.3h-8.2v-3.3h32v3.3h-8.9v26.7h23.3v-26.7
			h-8.7v-3.3h31.8v3.3h-8.3v60.3h8.3v3.3H186.9z"/>
		<path class="st0" d="M232.7,241.7v-8h14.5v8H232.7z M225.5,300.7v-3.2h7.8v-41.6h-7.8v-3.3h22.2v44.9h7.4v3.2H225.5z"/>
		<path class="st0" d="M259.4,300.7v-3.3h8.1v-69.1h-8.1v-3.1h22.6v72.2h7.6v3.3H259.4z"/>
		<path class="st0" d="M312.2,300.7c-6.7,0-12.1-3-12.1-10.3v-34.6h-7.9v-3.2h7.9v-18.6h13.5v18.6h11.2v3.2h-11.2v41.7H325v3.2
			H312.2z"/>
		<path class="st0" d="M355.9,302c-15.3,0-28-9.6-28-25.6c0-15.5,12.9-25.1,27.6-25.1c15.4,0,26.9,10.7,26.9,26.4
			C382.4,292.6,370.4,302,355.9,302z M343.9,276.2c0,4.3-0.2,13.8,2,17.7c2.1,3.6,5.4,5.3,9.6,5.3c11.2,0,11.4-12.2,11.3-20.5v-3
			c-0.1-8.7,1.1-21.3-11.4-21.3C343.5,254.4,343.9,267.7,343.9,276.2z"/>
		<path class="st0" d="M422,300.7v-3.2h6.4v-29.3c0-5.3,0-11.9-7-11.9c-5.5,0-10.7,5.4-12.1,10.4c-0.6,2.4-0.5,4.9-0.5,7.3v23.4h7.4
			v3.2h-29.6v-3.2h7.8v-41.6h-7.8v-3.3h22.2v7.4c2.9-3.5,4.9-5.4,9.2-7.1c2.8-1.1,5.8-1.8,8.7-1.8c2.2,0,4.5,0.4,6.6,1
			c7.9,2.3,9.8,7.4,9.8,14.8v30.7h7.6v3.2H422z"/>
	</g>
	<g>
		<g>
			<g>
				<path class="st0" d="M324.9,171.5c0,3.7-1,8.1-3.7,11.9h7.8v-59.9h-24.8v24.5C317.6,152.1,324.9,160.7,324.9,171.5z"/>
				<path class="st0" d="M282,145.8c5.6,0,10.8,1.3,14.8,2.4c-8.4-1.5-21.5,0.7-28.3,6v29.3h24.8v-33.3c5.4,1,9.4,3.1,11.9,4.8v28.4
					h5.4c-5.1,5.7-14.6,9.2-22.8,7.9v1.2l0,0c23.6,1.9,33.6-9.3,33.6-21.9c0-14.8-13.9-23.5-28.1-25.2v-21.9h-24.8v22.1
					c-16.1,3.2-31.8,12.8-31.8,28.6c0,24.3,34,39.4,63.6,39.4c45,0,79.6-21.7,79.6-52.3c0-36.9-50-63.3-89.3-63.3
					c-45,0-78.1,28.6-78.1,59.1l0,0c0,15.8,8.9,29.1,20.1,38.3l0.8-0.6c-8.9-7.4-16.9-18.8-16.9-34.6c2.4-33.4,43.5-52.2,80.2-52.2
					c25.9,0,72.5,6,72.5,49.3c0,22.6-24.2,52-74.9,52c-26,0-46.2-13.9-46.2-33.9C248.3,158.1,261.8,145.8,282,145.8z"/>
			</g>
		</g>
		<g>
			<path class="st0" d="M370.4,208.8c-3.3,0-6-2.7-6-6c0-3.3,2.7-6,6-6c3.3,0,6,2.7,6,6C376.5,206.1,373.8,208.8,370.4,208.8z
				 M370.4,197.9c-2.7,0-4.8,2.2-4.8,4.9c0,2.7,2.2,4.9,4.8,4.9c2.7,0,4.8-2.2,4.8-4.9C375.3,200.1,373.1,197.9,370.4,197.9z
				 M373.5,206H372l-1.2-2.3h-1.6v2.3H368v-6.6h3.2c1.4,0,2.3,0.8,2.3,2.2c0,0.9-0.5,1.7-1.4,2L373.5,206z M371.2,202.5
				c0.5,0,1-0.3,1-1c0-0.8-0.4-1-1-1h-2v2.1C369.9,202.5,371.2,202.5,371.2,202.5z"/>
		</g>
	</g>
</g>
</svg>
