<?xml version="1.0" encoding="utf-8"?>
<!-- Generator: Adobe Illustrator 21.1.0, SVG Export Plug-In . SVG Version: 6.00 Build 0)  -->
<svg version="1.1" id="House_Party" xmlns="http://www.w3.org/2000/svg" xmlns:xlink="http://www.w3.org/1999/xlink" x="0px"
	 y="0px" viewBox="0 0 600 400" style="enable-background:new 0 0 600 400;" xml:space="preserve">
<style type="text/css">
	.st0{fill:#FFFFFF;}
</style>
<g>
	<path class="st0" d="M351.8,178.5l-75.2-39.9L241.7,157v-8.8c0-4.4-6.5-7.9-15.4-7.9c-8.9,0-15.4,3.5-15.4,7.9v25.9l-8.7,4.4
		c-7.4,3.9-11.9,7.7-11.9,14v50.4c0,6.3,5.5,12.2,11.8,12.2h76.5v-33.2c0-4.4,8.6-7.9,17.5-7.9c8.9,0,17.5,3.5,17.5,7.9v33.2h16.6
		h21.9c6.3,0,10.8-5.9,10.8-12.2v-50.4C362.9,186.2,359.2,182.4,351.8,178.5z"/>
	<g>
		<path class="st0" d="M127,274.3v-7.2h12v26.8c3.6-2.9,6.5-5.4,11.1-5.4c3.5,0,6.4,1.3,8.1,3.5c1.4,1.8,2.4,4.3,2.4,7.3v15.9h4.8v6
			h-18v-6h4.8v-13.9c0-1.8-0.4-3-1-3.9c-0.8-1-2.2-1.5-3.7-1.5c-2.8,0-6,1.6-8.4,3.8v15.6h4.8v6H127v-6h4.8v-40.8H127z"/>
		<path class="st0" d="M165.1,305.2c0-8.8,6.6-16.7,17.1-16.7c10.7,0,17.1,7.7,17.1,16.7c0,8.8-6.6,16.7-17.1,16.7
			C171.5,321.9,165.1,314.1,165.1,305.2z M191.1,305.2c0-5.9-3.7-10-8.9-10c-5.2,0-8.9,4.1-8.9,10c0,5.9,3.7,10,8.9,10
			C187.4,315.2,191.1,311.1,191.1,305.2z"/>
		<path class="st0" d="M205.6,317.6c-1-1.7-1.8-3.9-1.8-6.5v-15.2H199v-7.2h13.2v20.4c0,1.4,0.2,2.4,0.7,3.3
			c0.7,1.4,2.2,2.1,4.1,2.1c2.8,0,6-1.6,8.4-3.8v-14.9h-4.8v-7.2h13.2v26.4h3.6v6h-12v-5c-3.6,3-6.6,5.7-11.3,5.7
			C210.1,321.9,207.2,320.3,205.6,317.6z"/>
		<path class="st0" d="M262.8,300.5c-2.6,0-4.3-1.5-4.3-4c0-0.5,0-1,0.1-1.4c-1.3-0.5-2.9-0.8-4.6-0.8c-3.6,0-5.4,1.6-5.4,3.3
			c0,1.8,1.8,2.8,6.8,4.1c7.7,2.1,12.2,4,12.2,9.8c0,6.8-6.3,10.4-13.6,10.4c-4.9,0-10.2-1.8-12.4-3.9c-1.3-1.3-1.8-2.6-1.8-4.3
			c0-2.4,1.8-4.3,4.3-4.3c2.2,0,4.3,1.5,4.3,4.3c0,0.4-0.1,0.9-0.1,1.3c1.5,0.6,3.5,1,5.8,1c3.2,0,5.9-1.1,5.9-3.5
			c0-1.6-1.4-2.6-6.3-3.9c-8.9-2.4-12.7-4.5-12.7-10c0-5,4.1-10.2,13.2-10.2c3.9,0,8.6,1.5,10.8,3.7c1.2,1.2,1.8,2.6,1.8,4.1
			C266.8,298.8,265.2,300.5,262.8,300.5z"/>
		<path class="st0" d="M278.3,307.9c1.1,4.8,5.2,7.2,10.6,7.2c3.9,0,7.9-1.3,11.7-3.4l-0.7,7.2c-3.4,2-7.5,2.9-12.2,2.9
			c-10.5,0-17.8-6.6-17.8-16.6c0-9.1,6.4-16.8,16.3-16.8c10.3,0,15.7,6.9,15.7,15.4c0,1.3-0.1,2.8-0.4,4H278.3z M278.2,301.9h15.7
			c-0.1-3.6-3-7.4-7.7-7.4C282.6,294.5,279.1,297.1,278.2,301.9z"/>
		<path class="st0" d="M305.8,329.5h4.8v-33.6h-4.8v-7.2H319v4c2.4-2.4,5-4.3,9.4-4.3c8.4,0,14.6,6.8,14.6,16.6
			c0,9.3-6.7,16.8-15.2,16.8c-3.5,0-6.4-1.3-8.8-3.1v10.7h4.8v6h-18V329.5z M334.6,305.1c0-6.2-3.6-9.7-8.2-9.7
			c-3,0-5.1,1.3-7.5,3.2v13.8c2.4,1.5,4.5,2.5,7.5,2.5C330.7,315,334.6,311.5,334.6,305.1z"/>
		<path class="st0" d="M344.3,312.8c0-6,5.5-9.7,13.1-9.7c3.3,0,5.9,0.4,8.3,0.9v-2.6c0-1.9-0.6-3.4-1.4-4.4
			c-1.3-1.7-3.5-2.4-6.4-2.4c-1.4,0-2.5,0.2-3.2,0.5c0.1,0.4,0.3,1.2,0.3,1.6c0,2.4-1.9,4.2-4.4,4.2c-2.4,0-4.3-1.7-4.3-4.3
			c0-4,4-8.2,12.8-8.2c5.5,0,9.1,1.5,11.4,4.3c1.7,2.1,2.4,4.9,2.4,8.1v14.2h4.8v6h-12v-3.4c-2.4,2.2-6.6,4.1-10.9,4.1
			C349.4,321.9,344.3,318.9,344.3,312.8z M365.8,313.2v-5.1c-2.4-0.4-4.3-0.7-6.8-0.7c-3.9,0-6.3,1.8-6.3,4.7c0,2.6,2,4,4.9,4
			C360.4,316.1,363.4,315,365.8,313.2z"/>
		<path class="st0" d="M444.7,335.9c-4.3,0-6.9-2.5-6.9-5.1c0-2.7,1.8-4.1,4-4.1c1.9,0,3,1.2,3.5,2.4c0.8-0.2,1.7-0.7,2.6-1.9
			c0.5-0.7,1-1.5,1.5-2.5l2.4-5l-11.5-23.8h-3.7v-7.2h16.8v7.2h-5.2l7.4,17l7.5-17h-5v-7.2H475v7.2h-4.2l-15.1,32
			c-0.7,1.5-1.5,2.8-2.5,3.9C450.9,334.5,447.9,335.9,444.7,335.9z"/>
		<path class="st0" d="M409.9,293.8c0,2.7-2.1,5-4.8,5c-2.4,0-3.8-1.4-4.4-2.9c-2.3,0.8-4.9,3.3-6.1,6.1v13.1h4.8v6h-18v-6h4.8
			v-19.2h-4.8v-7.2h12v7.6c3.6-4.3,6.3-7.9,10.4-7.9C407.8,288.5,409.9,290.9,409.9,293.8z"/>
		<g>
			<path class="st0" d="M427.7,314.7c-1.6,0-3-0.5-3.6-1.5c-0.4-0.7-0.7-1.3-0.7-2.4v-14.9h9.6v-7.2h-9.6v-9.9l-7.2,3.5v6.4h-5.4
				c1,1.2,1.6,3.1,1.6,4.9c0,0.7-0.1,1.1-0.3,2.3h4.2v16.5c0,2.1,0.2,3.8,0.9,5.1c1.6,3.1,4.7,4.4,8.6,4.4c2.9,0,5.5-0.8,7.7-1.9
				l0.6-6.9C432.1,313.9,429.8,314.7,427.7,314.7z"/>
		</g>
	</g>
	<g>
		<path class="st0" d="M395.3,82.9c14.5,4.2,25.7,11.6,32.1,16.6c-4.6-19.2-29.2-33.8-58.5-33.8c-1.7,0-3.3,0.1-5,0.2
			C373.3,68.9,386,74.2,395.3,82.9z"/>
		<path class="st0" d="M426.3,115.9c1.2-3.2,1.9-6.5,1.9-10c0-1.1-0.1-2.2-0.2-3.3c-5.2-4.4-15.6-11.9-29.5-16.6
			c5.4,6.1,8.9,13.5,8.9,22.7c0,8.5-2.8,15.2-7.1,20.4c4.6-1.3,8.7-2.8,12.1-4.5C418.4,121.8,423.1,118.6,426.3,115.9z"/>
		<path class="st0" d="M394.3,84.8c-9.2-2.6-19.6-3.8-31.1-2.2c-20.3,2.8-33.4,9.7-38.8,20.6c-0.1,0.1-0.1,0.2-0.2,0.3
			c5.3,9.7,15.3,19.5,34,24.9c15,4.4,28,4,38.4,1.7c5.1-5.2,8.6-12.2,8.6-21.3C405.3,98.8,400.7,90.9,394.3,84.8z"/>
		<path class="st0" d="M323.1,101.2c6-10.9,19.4-17.8,39.8-20.7c10.1-1.4,19.5-0.7,27.9,1.2c-10.5-8.4-24.3-13.1-32.6-15.3
			c-0.1,0-0.2,0-0.3,0c-16.5,2.1-30.6,8.9-39.3,18.2C319.1,89.2,320.2,95.1,323.1,101.2z"/>
		<path class="st0" d="M321.9,103.7c-1.1-2.1-2-4.1-2.6-6c-1.4-3.9-2.1-7.6-2.5-10.8c-0.6,0.8-2,2.6-2.8,4c-4.6,7.8-5.5,17.1-2,25.4
			c0.9,2.2,2.1,4.5,3.5,6.5c1.4,2,3.1,4.1,4.9,5.9c0.6,0.6,1.3,1.2,2,1.8C320.1,124.6,317.5,113.9,321.9,103.7z"/>
		<path class="st0" d="M397.8,132c-8.1,8.1-19.9,12.2-28.8,14.3c0.1,0,0.2,0,0.2,0c25.4,0,47-11,55.3-26.3
			C418.5,124.2,409.4,129.3,397.8,132z"/>
		<path class="st0" d="M393.8,132.8c-4,0.7-8.2,1.1-12.7,1.1c-7.2,0-15-1-23.4-3.5c-18.8-5.5-29-15.2-34.5-24.4
			c-4.5,12.7,2,26,2.8,27.6l0.1,0.1l0,0c0,0,0,0.1,0,0.1l0,0l0.1,7.4l0.2,15.2l14.8-7.4l6.3-3.1l3.4-1.7c3,0.7,6.2,1.1,9.4,1.5
			C367.5,144.7,383,141.7,393.8,132.8z"/>
	</g>
</g>
</svg>
