<?xml version="1.0" encoding="utf-8"?>
<!-- Generator: Adobe Illustrator 21.1.0, SVG Export Plug-In . SVG Version: 6.00 Build 0)  -->
<svg version="1.1" id="Innovid" xmlns="http://www.w3.org/2000/svg" xmlns:xlink="http://www.w3.org/1999/xlink" x="0px" y="0px"
	 viewBox="0 0 600 400" style="enable-background:new 0 0 600 400;" xml:space="preserve">
<style type="text/css">
	.st0{fill:#FFFFFF;}
</style>
<g>
	<path class="st0" d="M500.4,179.1c-6.7-9.3-17.5-15.4-29.8-15.5c-0.1,0-0.1,0-0.2,0h-18.2h0H452h-0.9v0c-1.3,0.1-2.6,0.3-3.8,0.8
		c-3.4,1.2-6.3,3.6-7.9,7.1c-0.8,1.6-1.1,3.3-1.2,5l0,0.9c0,0,0,0,0,0v22.8c0.2,5.3,3.2,10.2,8.3,12.6c1.8,0.8,3.7,1.2,5.5,1.3h0.2
		l2.2,0V214v-35h0h1.1h0h15c11.3,0.5,19.4,9.6,19.4,21.1c0,12-8.6,21.3-20.4,21.3h-41v7.1c0-4.6-0.1-50.2-0.1-50.2
		c0-3.1-0.6-5.4-1.6-7.3c0,0,0,0,0,0s-0.2-0.4-0.7-1.1c0,0-0.1-0.1-0.1-0.1c-0.6-0.9-1.5-2.2-2.6-3c-0.8-0.6-4.2-3.4-9.6-3.4
		c-5.6,0-10.8,2.9-14,10.6l-18.2,45.1c-6-14.4-19.7-48.2-19.7-48.2c-2.4-4.7-7.3-7.9-12.9-7.9c-2,0-3.9,0.4-5.6,1.1l-0.2,0.1l-2,0.9
		l0.1,0.1l27.2,64.8c0.7,1.4,1.6,2.6,2.7,3.7c0.1,0.1,0.2,0.2,0.3,0.3c0,0,0,0,0,0c2.6,2.3,6,3.8,9.7,3.8c5.6,0,10.5-3.3,12.9-8
		c0,0,0,0,0,0l17.9-42.9l0,36c0.2,5.2,3.2,10.2,8.3,12.6c1.8,0.8,3.6,1.3,5.5,1.3l2.4,0v0h42c20.2,0,36.8-16.5,36.8-36.8
		C507.2,192.3,504.7,185,500.4,179.1z M416.7,176.3l-0.1,0.2C416.6,176.4,416.6,176.4,416.7,176.3z"/>
	<path class="st0" d="M182.6,163.9h-10.5c-1.5,0-2.7,1.2-2.7,2.7v39.7c0,1.5-0.7,1.7-1.6,0.5l-31.1-40.8c-0.9-1.2-2.8-2.1-4.3-2.1
		h-9.5c-1.5,0-2.7,1.2-2.7,2.7v67.8c0,1.5,1.2,2.7,2.7,2.7h10.5c1.5,0,2.7-1.2,2.7-2.7v-41.2c0-1.5,0.7-1.7,1.6-0.5L170,235
		c0.9,1.2,2.8,2.1,4.3,2.1h8.4c1.5,0,2.7-1.2,2.7-2.7v-67.8C185.3,165.1,184.1,163.9,182.6,163.9z"/>
	<path class="st0" d="M257,163.9h-10.5c-1.5,0-2.7,1.2-2.7,2.7v39.7c0,1.5-0.7,1.7-1.6,0.5l-31-40.8c-0.9-1.2-2.8-2.1-4.3-2.1h-9.5
		c-1.5,0-2.7,1.2-2.7,2.7v67.8c0,1.5,1.2,2.7,2.7,2.7h10.6c1.5,0,2.7-1.2,2.7-2.7v-41.2c0-1.5,0.7-1.7,1.6-0.5l32.2,42.3
		c0.9,1.2,2.8,2.1,4.3,2.1h8.3c1.5,0,2.7-1.2,2.7-2.7v-67.8C259.6,165.1,258.4,163.9,257,163.9z"/>
	<path class="st0" d="M305.5,162.7c-22.6,0-39,17-39,37.8v0.2c0,20.8,16.2,37.6,38.8,37.6c22.6,0,39-17,39-37.8v-0.2
		C344.3,179.5,328.1,162.7,305.5,162.7z M327.5,200.7c0,12.6-9,22.8-22,22.8s-22.2-10.4-22.2-23v-0.2c0-12.6,9-22.8,21.9-22.8
		c13,0,22.2,10.5,22.2,23V200.7z"/>
	<path class="st0" d="M108.7,164H97c-1.2,0-2.2,1-2.2,2.2l0,68.7c0,1.2,1,2.2,2.2,2.2h11.7c1.2,0,2.2-1,2.2-2.2l0-68.7
		C110.9,165,109.9,164,108.7,164z"/>
</g>
</svg>
