<?xml version="1.0" encoding="UTF-8"?><svg id="Layer_1" xmlns="http://www.w3.org/2000/svg" width="100" height="40.37" viewBox="0 0 100 40.37"><defs><style>.cls-1{fill:#fff;}</style></defs><polygon class="cls-1" points="100 2.87 83.35 2.87 84.38 0 100 0 100 2.87"/><path class="cls-1" d="m55.63,0h15.45s1.01,2.88,1.01,2.88c0,0-16.46,0-16.46,0,0,0,0-2.88,0-2.88Z"/><path class="cls-1" d="m43.35,0c2.55.25,4.76,1.15,6.65,2.87,0,0-28.01,0-28.01,0V0h21.37Z"/><rect class="cls-1" x="0" y="0" width="19.46" height="2.87"/><path class="cls-1" d="m100,8.26h-18.55s1.01-2.85,1.01-2.86h17.55v2.86Z"/><polygon class="cls-1" points="74 8.26 55.62 8.26 55.62 5.4 73 5.4 74 8.26"/><path class="cls-1" d="m52.18,5.4c.37.94.81,1.75.81,2.86h-31v-2.86h30.19Z"/><rect class="cls-1" x="0" y="5.4" width="19.46" height="2.86"/><polygon class="cls-1" points="79.55 13.65 80.57 10.79 94.5 10.79 94.5 13.65 79.55 13.65"/><polygon class="cls-1" points="74.9 10.78 75.91 13.65 61.11 13.65 61.11 10.78 74.9 10.78"/><path class="cls-1" d="m53.23,10.78c0,.98-.12,2.01-.41,2.87h-8.49v-2.87h8.9Z"/><rect class="cls-1" x="5.43" y="10.8" width="8.36" height="2.86"/><rect class="cls-1" x="27.62" y="10.78" width="8.35" height="2.87"/><path class="cls-1" d="m69.33,16.75s0,2.17,0,2.18h-8.23v-2.86h15.68l.97,2.66s.94-2.67.94-2.66h15.8v2.86h-8.19s0-2.18,0-2.18l-.76,2.18h-15.46s-.76-2.18-.76-2.18Z"/><path class="cls-1" d="m27.62,16.07h23.97c-.52.95-1.48,2.12-2.38,2.86,0,0-21.59,0-21.59,0,0,0,0-2.85,0-2.86Z"/><rect class="cls-1" x="5.43" y="16.07" width="8.36" height="2.86"/><rect class="cls-1" x="86.31" y="21.46" width="8.19" height="2.86"/><path class="cls-1" d="m69.33,21.46h-8.23v2.86s8.23,0,8.23,0c0,0,0-2.86,0-2.86Z"/><path class="cls-1" d="m84.65,21.46s-.96,2.85-1,2.86h-11.66s-1.03-2.86-1.03-2.86h13.68Z"/><path class="cls-1" d="m27.62,21.46h21.55c.98.82,1.87,1.83,2.57,2.86.04,0-24.12,0-24.12,0,0,0,0-2.85,0-2.86Z"/><path class="cls-1" d="m13.79,24.31v-2.86H5.44s0,2.86,0,2.86c0,0,8.35,0,8.35,0Z"/><rect class="cls-1" x="86.31" y="26.84" width="8.18" height="2.86"/><rect class="cls-1" x="61.11" y="26.84" width="8.23" height="2.86"/><path class="cls-1" d="m81.74,29.71s1.01-2.87,1.03-2.87h-9.91s1.02,2.86,1.02,2.86c0,0,7.87.02,7.87.01Z"/><path class="cls-1" d="m27.62,29.7s0-2.86,0-2.86h8.47s0,2.86,0,2.86c0,0-8.47,0-8.47,0Z"/><path class="cls-1" d="m52.93,26.84c.41.86.45,1.89.53,2.87h-8.98v-2.87h8.45Z"/><rect class="cls-1" x="5.44" y="26.84" width="8.35" height="2.86"/><rect class="cls-1" x="86.31" y="32.12" width="13.69" height="2.86"/><rect class="cls-1" x="55.62" y="32.12" width="13.71" height="2.86"/><polygon class="cls-1" points="79.9 34.98 75.72 34.98 74.72 32.12 80.87 32.12 79.9 34.98"/><path class="cls-1" d="m0,32.12v2.86h19.45s0-2.85,0-2.85c0,0-19.47,0-19.45,0Z"/><path class="cls-1" d="m53.11,32.12c-.2.94-.39,2.09-1.08,2.86h-.26s-29.78,0-29.78,0v-2.86h31.12Z"/><polygon class="cls-1" points="78.01 40.37 77.62 40.37 76.64 37.5 79.01 37.5 78.01 40.37"/><rect class="cls-1" x="86.31" y="37.5" width="13.69" height="2.87"/><path class="cls-1" d="m21.99,40.37v-2.86s28.1,0,28.18,0c-1.89,1.8-4.47,2.82-7.26,2.86h-20.91"/><rect class="cls-1" x="55.62" y="37.5" width="13.71" height="2.87"/><path class="cls-1" d="m19.45,37.52s0,2.85,0,2.85c0,0-19.44.01-19.45,0,0,0,0-2.86,0-2.86s19.44.02,19.45,0Z"/></svg>