<?xml version="1.0" encoding="UTF-8"?><svg id="Layer_1" xmlns="http://www.w3.org/2000/svg" width="1.39in" height=".16in" viewBox="0 0 100 11.4"><defs><style>.cls-1{fill:#fff;}</style></defs><path class="cls-1" d="m58.55,3.43v.02h0s0-.02,0-.02Z"/><path class="cls-1" d="m7.41,3.35c.02-.44-.05-.87-.21-1.29-.18-.47-.51-.84-.91-1.13-.41-.29-.87-.47-1.36-.58-.36-.08-.73-.13-1.1-.14-.3,0-.61,0-.91,0H.32c-.11,0-.21,0-.32,0v9.82l.02-.02h2.11s0-.06.02-.08v-3.51h1.26c.4,0,.8-.04,1.2-.11.47-.09.93-.22,1.34-.47.25-.15.47-.31.67-.52.25-.26.44-.56.58-.9.14-.35.2-.71.22-1.08h0Zm-2.23.41c-.11.45-.39.76-.81.93-.27.11-.56.17-.85.2-.38.04-.76.04-1.14.04h-.16s-.06,0-.09-.02V1.65h1.07c.48,0,.94.1,1.37.32.34.17.55.46.63.83.07.32.05.65-.02.97h0Z"/><path class="cls-1" d="m20.02,2.56h-1.36s-.1,0-.13,0c-.38,1.41-.75,2.82-1.13,4.22h-.02c-.56-1.41-1.11-2.81-1.67-4.21-.24-.03-1.97-.02-2.07,0v.03c.11.22.22.45.33.67.19.4.38.81.57,1.21.21.45.43.9.64,1.35.33.69.65,1.38.98,2.07.09.2.19.4.28.6.04.08.05.16,0,.24-.04.08-.06.17-.08.25-.07.25-.18.47-.35.67-.2.23-.43.38-.75.36h-.13v1.36h1.04v-.07s.1,0,.15-.02c.31-.09.6-.22.85-.44.29-.26.51-.57.68-.92.11-.23.21-.45.29-.69.14-.39.27-.78.41-1.18.09-.25.17-.5.26-.75.12-.36.23-.72.35-1.07.16-.48.32-.95.48-1.43.11-.33.22-.65.33-.98.14-.41.27-.82.4-1.23,0-.02,0-.04,0-.06h-.38.02Z"/><path class="cls-1" d="m32.1,4.95c-.02-.21-.05-.43-.07-.64h0v-.06c-.03-.18-.08-.36-.15-.52-.08-.17-.17-.33-.29-.48-.15-.19-.24-.27-.4-.39-.15-.11-.31-.21-.49-.27-.21-.07-.43-.13-.65-.15-.25-.02-.5-.02-.75.02-.16.02-.32.08-.47.14-.33.12-.62.29-.87.53-.07.06-.14.12-.19.19-.1.14-.19.28-.26.43-.02.04-.04.07-.06.12-.03-.05-.05-.1-.07-.14-.1-.24-.24-.46-.42-.64-.11-.12-.24-.22-.38-.3-.1-.06-.2-.12-.31-.17-.4-.18-.82-.24-1.26-.2h-.02c-.17,0-.33.04-.49.08-.41.11-.78.27-1.09.58-.13.14-.27.27-.37.44-.04.08-.09.15-.13.23,0,0-.02,0-.03-.02v-.13c0-.24,0-.47-.02-.71v-.33h-1.91v.1c.02.28.05.57.07.85,0,.19,0,.38,0,.58v5.86h2.03v-3.74c0-.32,0-.63.04-.95.04-.29.12-.56.27-.8.23-.38.56-.58,1.01-.6.18,0,.35.04.53.08.13.03.23.11.32.2.1.11.18.24.23.38.09.27.11.55.11.84v4.46s0,.09,0,.13c.45.02,1.94,0,2.02-.02v-4.01c0-.24,0-.48.05-.72.05-.27.12-.52.26-.76.14-.23.33-.41.59-.51.26-.1.53-.1.8-.05.33.07.55.27.68.58.07.18.11.37.12.56v4.81s0,.07.02.11h2.02v-4.75c0-.09,0-.18,0-.27l-.02.03Z"/><path class="cls-1" d="m47.25,3.91c-.07-.17-.15-.34-.24-.5s-.2-.3-.32-.42c-.13-.13-.29-.24-.46-.32-.31-.15-.64-.21-.98-.23-.3-.02-.6,0-.9.05-.2.04-.39.11-.58.18-.22.08-.41.22-.59.36-.08.07-.16.15-.24.22-.09.07-.14.17-.2.26-.06.08-.1.17-.16.25h-.04c0-.39,0-.79,0-1.18h-1.9v.14c0,.22.03.44.04.66v6.49s0,.07,0,.1h2.01s0-.03,0-.04v-3.49c0-.41,0-.82.06-1.23.04-.25.12-.49.25-.71.07-.11.15-.21.24-.3.09-.08.2-.14.31-.19.35-.15.72-.16,1.08-.04.29.1.5.29.62.58.09.23.13.46.13.7,0,.38,0,.76.02,1.14v3.58h2.01v-4.79c0-.25,0-.49-.06-.74-.03-.18-.07-.36-.14-.53h.03Z"/><path class="cls-1" d="m13.81,9.08v-3.76c0-.32-.03-.63-.12-.94-.08-.28-.18-.54-.35-.77-.13-.17-.26-.33-.43-.47-.17-.15-.37-.24-.56-.34-.24-.13-.51-.19-.78-.24-.27-.05-.55-.1-.83-.11-.3-.02-.61,0-.91.02-.19.02-.39.05-.58.08-.12.02-.25.05-.37.08-.26.07-.52.14-.78.2-.02.11,0,.2,0,.29v.28c0,.09-.02.19-.03.28,0,.09-.03.19-.04.28,0,.09-.06.17-.06.27.15-.06.29-.13.43-.18.29-.11.59-.21.9-.26.39-.06.77-.1,1.16-.05.18.02.35.05.52.12.16.06.31.13.44.25.21.18.32.42.37.68.04.2.02.4.02.6,0,0,0,.02-.02.03h-.1c-.12,0-.25,0-.37-.02-.36,0-.73,0-1.09.03-.39.02-.77.08-1.15.16-.32.07-.63.19-.93.34-.29.15-.54.36-.75.62-.24.3-.38.64-.42,1.02-.02.19,0,.38,0,.56.02.24.07.46.17.68.21.47.57.82,1.03,1.05.4.19.83.29,1.28.29.24,0,.47-.03.71-.08.27-.06.53-.15.76-.29.37-.22.69-.5.91-.88l.03.03c.02.35.04.71.06,1.06h1.9v-.08c-.02-.27-.05-.54-.05-.81l.03-.02Zm-2.18-1.25c-.21.48-.55.81-1.06.96-.27.08-.54.1-.82.05-.18-.03-.35-.11-.49-.22-.13-.1-.22-.24-.27-.4-.08-.26-.08-.52-.02-.78.04-.15.12-.27.22-.38.17-.18.37-.3.6-.38.27-.1.55-.15.84-.18.36-.04.72-.04,1.08-.04h.11c.03.48,0,.94-.2,1.37h0Z"/><path class="cls-1" d="m39.32,4.15c-.06-.13-.13-.26-.2-.39-.11-.21-.27-.38-.43-.55-.09-.09-.2-.16-.3-.24-.2-.16-.42-.28-.66-.36-.45-.16-.91-.24-1.39-.23-.47,0-.92.09-1.35.27s-.81.44-1.11.8c-.27.32-.5.67-.65,1.06-.21.54-.32,1.09-.34,1.67-.02.51.02,1.02.15,1.52.09.32.2.62.36.91.12.21.26.41.45.57.11.1.21.22.34.31.1.06.2.12.3.18.13.07.25.14.39.19.15.06.31.1.46.14.31.08.63.13.95.14.27,0,.54,0,.81-.02.17,0,.34-.02.5-.05.2-.02.39-.06.59-.09.32-.04.63-.11.93-.19.03,0,.05-.02.08-.03v-1.41h-.05c-.08.02-.15.05-.23.07-.54.14-1.08.23-1.63.26-.37.02-.74.03-1.11-.04-.22-.04-.43-.12-.62-.23-.15-.08-.27-.21-.39-.33-.23-.25-.37-.55-.43-.88v-.02c-.02-.15-.04-.31-.05-.47h4.92v-.24c0-.29.02-.57.02-.86s-.03-.56-.1-.84c-.05-.21-.11-.42-.2-.62h-.01Zm-4.59,1.27s0-.05,0-.08c.05-.38.16-.74.39-1.05.26-.35.6-.55,1.04-.58.22,0,.44,0,.65.06.34.09.6.3.77.6.18.32.25.67.22,1.05,0,0-3.07,0-3.07,0Z"/><path class="cls-1" d="m53.13,8.36c-.06.02-.11.03-.16.04-.16.06-.32.12-.48.17-.26.08-.53.09-.8.06-.12,0-.23-.06-.32-.14-.14-.12-.22-.28-.27-.46-.04-.17-.06-.35-.06-.52v-3.61s.08,0,.11,0h1.44s.06,0,.09,0v-1.33h-1.55s-.07,0-.1-.02V.51s0-.07-.03-.1c-.67.22-1.34.44-2.01.66v1.45l-.04.03c-.42,0-.85,0-1.27,0h-.02v1.32h1.32v3.41c0,.39.02.77.08,1.16.04.26.11.52.24.76.19.34.46.6.82.74.23.09.47.15.72.16.5.02,1,0,1.5-.08.22-.04.43-.09.65-.14.04,0,.08-.02.13-.03v-.74c0-.25,0-.5,0-.76h0Z"/><path class="cls-1" d="m58.25,6.34c-.26-.26-.56-.44-.89-.59-.35-.17-.72-.27-1.09-.39-.25-.09-.48-.2-.7-.34-.13-.09-.21-.22-.23-.37-.04-.27.09-.54.34-.67.21-.12.44-.15.68-.16.27,0,.54,0,.81.04.32.05.64.09.95.21h.07v-.03c-.1-.18-.16-.37-.2-.56h0v-.02c-.04-.24-.06-.49-.04-.74v-.16c-.2-.03-.4-.06-.6-.08-.25-.02-.5-.04-.75-.05-.4,0-.8.04-1.19.12-.31.07-.6.18-.88.33-.12.06-.22.13-.33.21-.65.51-.87,1.18-.75,1.97.07.47.34.83.71,1.11.26.2.54.35.83.47.3.12.6.23.91.35.24.09.47.21.68.36.08.06.16.13.21.23.15.32.1.63-.15.87-.04.04-.1.07-.16.1-.06.03-.12.07-.19.09-.24.06-.49.11-.74.1-.16,0-.31-.02-.47-.03-.4-.04-.8-.14-1.17-.29-.04-.02-.09-.02-.14-.02,0,0,0,.02,0,.02v.07h0v1.29s0,.08,0,.12c.05,0,.08,0,.12.02.19.04.37.09.56.12.29.05.59.09.88.09.15,0,.31.02.46,0,.26,0,.52-.04.77-.09.37-.07.72-.17,1.05-.36.5-.27.84-.67,1.03-1.21.11-.33.15-.66.11-1.01-.04-.44-.2-.81-.52-1.13h.02Z"/><path class="cls-1" d="m64.64,5.61c-.21-.32-.49-.57-.82-.77-.38-.23-.77-.41-1.18-.57-.45-.19-.91-.35-1.33-.6-.17-.1-.33-.21-.45-.36-.08-.1-.14-.21-.16-.34,0-.09-.02-.19-.02-.28,0-.25.09-.47.27-.65.24-.24.54-.36.86-.41h.02c.27-.03.54-.06.81-.04h.03c.14,0,.28.02.42.04h.02s.08.02.12.02c.37.06.74.15,1.09.29.05.02.1.04.16,0v-.95s0-.1.02-.14c0-.17,0-.34,0-.51,0-.05-.02-.09-.08-.09h-.02s-.1-.02-.15-.04c-.33-.1-.67-.15-1.02-.17,0-.02,0-.04.02-.05h-.14s-.05.03-.08,0h-1.5s.02.02.02.03-.02.03-.03.04h-.21c-.29.04-.57.1-.84.2-.52.18-.99.44-1.36.85-.21.23-.38.49-.49.79-.14.37-.2.74-.17,1.14v.12c0,.09.02.18.03.27v.02c0,.06.02.12.04.17.07.26.18.5.33.72.17.26.38.48.63.65.38.27.8.45,1.22.62.26.11.52.21.77.33.29.14.58.29.84.5.21.17.37.37.41.65h0v.38c-.04.31-.18.56-.42.76-.27.21-.58.29-.91.33h-.02s-.1,0-.14,0c-.34,0-.67,0-1-.05h-.02c-.06,0-.13-.02-.19-.03-.27-.05-.52-.13-.78-.21-.03,0-.07,0-.1-.02,0,.08-.02.15-.04.21-.08.35-.26.66-.51.91-.09.09-.19.16-.28.24-.02.02-.04.04-.06.06.17.09,1.11.3,1.61.39h.18c.08,0,.16.02.23.02h.18c.23,0,.47,0,.7,0,.47,0,.93-.04,1.38-.14.4-.09.77-.24,1.13-.45.18-.11.37-.22.52-.37.25-.24.44-.51.58-.82.12-.27.2-.55.24-.84h0v-.06s0-.03,0-.04c0-.25,0-.49-.03-.74-.06-.39-.19-.74-.4-1.07l.05.03Z"/><path class="cls-1" d="m99.66,4.1c-.05-.09-.1-.19-.14-.28-.07-.13-.15-.24-.24-.35-.07-.08-.13-.16-.2-.23-.09-.08-.18-.15-.27-.23-.15-.12-.31-.23-.48-.31-.27-.13-.56-.21-.85-.26h-.02l-.22-.04h-.02c-.22-.04-.44-.05-.66-.02h-.37c-.35.06-.69.15-1.01.31-.26.13-.5.29-.72.48-.29.26-.52.58-.71.92-.12.22-.21.46-.29.7-.08.25-.13.5-.17.76v.04s0,.1-.02.15v.28s0,.08,0,.12c0,.26,0,.52.02.77v.04s0,.02,0,.04v.04s0,.07,0,.1v.04c.03.13.05.26.08.39h0c.04.15.07.28.12.42.1.3.25.58.44.84.16.22.35.41.56.58.16.12.33.23.51.32.23.11.48.19.72.25.22.06.43.11.66.12h.02c.08,0,.16,0,.24.02.36,0,.73,0,1.09-.04.02,0,.04,0,.06,0h.05c.08,0,.17-.02.25-.02h.12c.14-.03.29-.05.43-.07h.04s.1-.02.16-.03c0,0,.03,0,.04,0,.19-.04.38-.08.57-.12h.02s.07,0,.11-.02v-1.33s.03-.06,0-.08c-.05,0-.11,0-.16.03-.27.08-.55.14-.83.19-.03,0-.07,0-.1,0-.18.02-.35.04-.53.07h-.03c-.06,0-.13,0-.19,0h-.02c-.22,0-.44.02-.66.02-.13,0-.25,0-.38-.03-.17-.03-.34-.06-.5-.12-.17-.07-.33-.15-.47-.26-.16-.13-.28-.29-.39-.46-.13-.21-.2-.45-.24-.69v-.02c0-.08-.02-.17-.02-.25v-.14h4.77s.1,0,.16-.02v-.1s-.03-.03,0-.04v-1.29s0-.59-.31-1.17l-.03-.02Zm-1.51,1.3s-.07.02-.09.02h-2.89s-.07,0-.09-.04h0s0,0,0,0c.03-.29.12-.57.26-.83.09-.17.19-.32.34-.44.07-.06.15-.1.23-.15.12-.09.25-.13.4-.17.39-.09.77-.06,1.12.13.32.17.52.44.64.78.05.15.09.3.1.46v.09c0,.06,0,.12-.02.17h0Z"/><path class="cls-1" d="m81.06,9.87h0v-.15c0-.07,0-.13-.02-.2,0-.07,0-.14,0-.21h0V2.57h-2.03v4.25c0,.11-.02.21-.03.32-.02.17-.04.33-.1.49-.12.37-.32.68-.68.87-.15.08-.32.13-.49.15-.27.02-.54,0-.79-.12-.1-.05-.21-.11-.26-.22,0,0-.02-.02-.03-.04-.03-.04-.06-.07-.08-.11-.09-.16-.15-.34-.17-.52v-.06h0c0-.26-.04-.5-.04-.75V2.68s0-.06,0-.09h-2.05v4.84c0,.06,0,.13,0,.19v.12s0,.07,0,.1v.14s0,.04,0,.06v.07c.06.31.13.61.27.89.2.38.47.68.86.88.42.21.86.3,1.33.29h.02c.07,0,.14,0,.21-.02h.02c.06,0,.12,0,.17-.02.27-.05.53-.13.78-.24.33-.15.6-.37.83-.64.1-.13.19-.27.29-.41l.04.02v.1c0,.07,0,.15.02.22,0,.27,0,.53.02.8h0s0,.02.02.03h1.86s0-.02,0-.03h0v-.11Z"/><path class="cls-1" d="m92.69,9.52v-.12c0-.17,0-.34-.02-.51v-.02l-.02-.35-.02-.06s-.03-.05-.07-.03c-.03,0-.05.02-.08.04-.23.09-.47.15-.71.18h-.02c-.09,0-.18.02-.27.03h-.16c-.26.02-.52,0-.78-.05-.24-.05-.47-.13-.68-.26-.09-.06-.17-.12-.26-.18-.11-.08-.2-.17-.28-.27-.12-.16-.23-.32-.31-.51-.1-.25-.17-.5-.2-.77h0v-.07c0-.25,0-.51.02-.76h0v-.02h0c.02-.22.07-.43.15-.63.05-.12.1-.23.18-.34.11-.16.22-.31.37-.44.37-.31.8-.49,1.28-.54h.1c.27,0,.55,0,.82.05h.02c.26.05.52.12.76.23.03,0,.07.02.11.03,0-.15,0-.29,0-.43h0v-.39s0-.07,0-.1c0-.18.04-.35,0-.53-.49-.13-.98-.22-1.48-.25h-.06c-.29,0-.57,0-.86,0h-.02c-.2.03-.39.05-.59.08-.64.13-1.23.37-1.73.79-.24.2-.46.41-.64.67-.21.3-.37.62-.48.96-.08.23-.14.47-.17.72v.02c0,.09-.02.18-.02.27v.06s0,.03,0,.04v.33c0,.13,0,.25.02.38.06.38.13.76.28,1.12.16.39.38.74.66,1.04.29.31.63.55,1.01.74.25.13.52.21.79.29.17.05.35.09.53.12h.02l.31.03h.02c.19,0,.38,0,.56.02h.21c.16,0,.32-.02.49-.03h.02l.27-.03h.02c.1-.02.2-.03.29-.05.16-.03.31-.07.47-.11h.05s.04-.02.04-.05v-.2s0-.08,0-.12l.05-.03Z"/><path class="cls-1" d="m86.27,2.42h-.51s-.1,0-.15.02c-.46.09-.82.35-1.13.68-.23.23-.41.51-.53.82h-.04v-.1s0-.06-.02-.09v-.4c0-.18,0-.35,0-.53h0v-.24h-1.83s-.05-.03-.08,0v.14h0v.05h0v.19s0,.06,0,.1h0v.02c0,.06,0,.13,0,.19h0c0,.15,0,.28.02.42h0v6.24s0,0,.02,0h1.98v-3.42c.02-.19.04-.39.06-.58h0v-.02c.03-.17.07-.33.13-.5.13-.37.33-.69.64-.93.06-.05.13-.1.2-.14.23-.11.47-.18.72-.18h.17c.11,0,.23,0,.33.05.03,0,.06,0,.09.02h.1s0-.03,0-.04v-.23c0-.3.02-.6.02-.9v-.06c0-.19,0-.38.02-.57-.09-.02-.17-.03-.26-.04h-.02l.05.02Z"/><path class="cls-1" d="m73.39,5.39h0c0-.08-.03-.16-.04-.23-.08-.42-.23-.8-.46-1.16-.04-.06-.08-.12-.12-.18-.05-.07-.11-.14-.17-.21-.04-.05-.08-.1-.13-.14-.05-.05-.1-.11-.16-.15-.11-.09-.21-.17-.33-.25-.11-.08-.23-.15-.35-.21-.15-.07-.3-.13-.45-.19-.05-.02-.1-.04-.15-.05-.35-.1-.71-.17-1.07-.19h-.04c-.23,0-.47,0-.7,0-.23,0-.46.04-.69.1-.2.05-.4.11-.6.17-.25.09-.48.21-.7.36-.45.3-.8.68-1.07,1.14-.12.22-.21.45-.29.69-.1.31-.16.62-.18.94v.02s0,.09,0,.14v.47s0,.05,0,.08v.08s0,.1.02.16v.16h0v.13s0,.08.02.12c.07.38.18.75.37,1.09.09.16.18.31.28.45.17.25.39.46.64.64.47.34.99.57,1.56.68h.02c.07,0,.14.02.22.04h.04s.06,0,.1,0h.16c.22,0,.44,0,.66,0h.06c.1,0,.21-.02.31-.03h.02s.09,0,.13-.02c0,0,.03,0,.04,0,.05,0,.09-.02.14-.03,0,0,.03,0,.04,0,.15-.04.29-.08.44-.12.4-.12.78-.31,1.11-.57.27-.22.5-.47.69-.76.18-.28.33-.57.43-.89.08-.24.13-.5.17-.75h0c0-.14.03-.26.03-.39,0-.38.02-.77-.05-1.15h.06Zm-2.15,1.18c0,.1,0,.21-.02.31v.02c0,.06-.02.11-.02.17v.02c-.05.34-.16.66-.34.95-.19.31-.45.54-.81.64-.1.03-.21.04-.31.06h-.33c-.18,0-.34-.06-.5-.13-.16-.08-.3-.2-.42-.33-.28-.3-.44-.66-.52-1.05-.05-.23-.08-.45-.09-.68v-.04c-.02-.23,0-.46.02-.7h0v-.02c.02-.31.09-.6.2-.89.08-.2.17-.39.31-.55.04-.05.07-.12.13-.15.1-.06.17-.16.29-.2.1-.03.19-.08.29-.11s.21-.04.31-.06h.15l.19.02h.02c.09.02.18.04.27.06.31.1.55.3.73.57.19.27.33.57.39.89.02.11.03.22.04.33h0v.13h0v.74h0Z"/></svg>