<?xml version="1.0" encoding="UTF-8"?><svg id="Layer_1" xmlns="http://www.w3.org/2000/svg" width="100" height="16.74" viewBox="0 0 100 16.74"><defs><style>.cls-1{fill:#fff;}</style></defs><path class="cls-1" d="m31.17,0h-3l-5.02,12.84L18.13,0h-3.15v16.47h2.5V3.99l4.68,12.46h1.99s4.25-11.28,4.68-12.46v12.46h2.5V0h-.17Zm12.36,14.5c-.17.07-.36.1-.53.12-.22,0-.67,0-.67-1.13v-5.21c0-2.98-2.54-3.63-4.68-3.63-2.66,0-4.13,1.27-4.39,3.79l-.02.14,2.23.14v-.14c.07-1.44.77-2.16,2.16-2.16,1.8,0,2.47.58,2.47,2.14v.84c-4.2.24-7.39.72-7.39,4.06,0,1.82,1.63,3.24,3.75,3.24,1.56,0,2.88-.55,3.94-1.63.31.96.91,1.42,2.02,1.42.48,0,.89-.05,1.25-.14l.1-.02v-1.92l-.22.1h0Zm-3.43-3.48v1.13c0,1.68-1.2,2.81-3.03,2.81-.48,0-2.02-.12-2.02-1.56.02-1.56,1.92-1.94,5.04-2.38h0Zm10.78-6.22c-1.87,0-2.98.55-3.87,1.85v-1.7h-2.23v11.52h2.23v-6.46c0-1.18.79-2.86,2.57-2.86l1.44.05v-2.4h-.14Zm3.48,11.67h-2.23V.02h2.23v9.48c.46-.5,4.2-4.54,4.2-4.54h2.71s-4.06,4.42-4.23,4.61l5.16,6.89h-2.79l-3.89-5.28-1.18,1.25v4.03h0Z"/><path class="cls-1" d="m72.49,10.66c0-3.7-2.06-6-5.4-6-3.55,0-5.5,2.16-5.5,6.12,0,1.82.62,3.43,1.73,4.54.98.96,2.3,1.46,3.82,1.42,2.66,0,4.54-1.39,5.26-3.89l.05-.17-2.21-.26-.02.12c-.41,1.61-1.39,2.4-3,2.4-1.92,0-3.17-1.44-3.22-3.67h8.52v-.6h-.02Zm-2.4-1.2h-6.1c.14-1.46,1.1-3,2.91-3s2.91,1.1,3.19,3Zm8.52,7.03c-.7.17-1.32.24-1.92.24-2.14,0-2.14-1.08-2.14-2.35v-7.49h-1.87v-1.94h1.87V.1h2.21v4.85h2.09v1.94h-2.09v6.96c0,.62.02.94.62.94.36,0,.72-.07,1.15-.22l.19-.07v1.97l-.12.02h0Zm11.64-5.83c0-3.7-2.06-6-5.38-6-3.55,0-5.5,2.16-5.5,6.12,0,1.82.62,3.43,1.73,4.54.98.96,2.3,1.46,3.79,1.42,2.62,0,4.54-1.42,5.26-3.89l.05-.17-2.21-.26-.02.12c-.41,1.61-1.39,2.4-3,2.4-1.92,0-3.17-1.44-3.22-3.67h8.5v-.6h0Zm-2.38-1.2h-6.1c.17-1.46,1.1-3,2.91-3,2.33,0,3,1.8,3.19,3Zm9.96-4.66c-1.87,0-2.98.55-3.87,1.85v-1.68h-2.23v11.52h2.23v-6.48c0-1.18.79-2.86,2.57-2.86l1.44.05v-2.4h-.14Z"/><path class="cls-1" d="m4.47,9.63c-.43-1.01-.29-2.09.86-2.5,1.22-.46,1.9.26,2.3,1.34l-3.17,1.15h0Zm4.51,1.68c.17,1.03-.24,1.63-1.22,1.99-1.32.48-2.09-.24-2.45-1.49l7.54-2.74-.22-.6c-1.34-3.7-4.54-5.28-8.28-3.91-1.61.58-3.15,1.75-3.84,3.36-.67,1.46-.65,3.34-.1,4.87.58,1.61,1.78,2.91,3.39,3.53,1.68.67,3.43.46,5.09-.17,2.66-.96,4.63-3.1,4.32-6.1l-4.23,1.25h0Z"/><path class="cls-1" d="m95.97,14.07h-.79v-.31h1.97v.31h-.82v2.38h-.36v-2.38h0Zm1.44-.31h.48l.82,2.18.82-2.18h.48v2.69h-.36v-2.16h0l-.79,2.16h-.29l-.79-2.16h0v2.16h-.36v-2.69h0Z"/></svg>