<?xml version="1.0" encoding="UTF-8"?><svg id="Layer_1" xmlns="http://www.w3.org/2000/svg" width="100" height="73.8" viewBox="0 0 100 73.8"><defs><style>.cls-1{fill:#fff;stroke-width:0px;}</style></defs><path class="cls-1" d="m17.51,62.53c-.37-1.79-1.84-2.26-3.49-2.41-5.31-.49-6.24,3.46-6.24,5.13,0,2.85.84,5.23,6.04,5.23.96,0,3.61-.98,3.61-2.58h7.49c-.29,4.77-8.3,5.9-11.79,5.9-7.22,0-13.41-1.35-13.12-8.45.22-5.09,5.01-8.65,14.57-8.43,5.33.12,10.44,1.79,10.47,5.63l-7.54-.02h0Zm74.92,0c-.37-1.79-1.84-2.26-3.46-2.41-5.31-.49-6.24,3.46-6.24,5.13,0,2.85.84,5.23,6.04,5.23.96,0,3.61-.98,3.61-2.58h7.49c-.29,4.77-8.3,5.9-11.79,5.9-7.22,0-13.41-1.35-13.12-8.45.22-5.09,5.01-8.65,14.57-8.43,5.33.12,10.44,1.79,10.47,5.63l-7.57-.02h0Zm-66.05-5.28h9.7l8.28,11.62h.07v-11.62h6.24v16.12h-9.31l-8.7-11.62h-.07v11.62h-6.24v-16.12h.03Zm26.21,0h11.79c5.68,0,9.02,1.57,9.02,3.98,0,1.4-1.4,3.14-4.52,3.66v.05c3.76.22,5.13,2.58,5.13,4,0,2.85-3.24,4.42-9.61,4.42h-11.84l.02-16.12h.01Zm6.83,6.26h1.97c3.02,0,4.62-.25,4.62-1.47,0-1.35-1.33-1.79-4.05-1.79h-2.53v3.27h-.01Zm0,6.46h1.97c3.64,0,4.96-.37,4.96-1.62,0-1.35-1.67-1.79-4.4-1.79h-2.53v3.41h0Z"/><path class="cls-1" d="m30.39,19.45l13.56,30.98L15.97,31.31c-7-4.64-5.6-12.6-1.7-16.12,5.5-4.64,13.27-3.02,16.12,4.25h0Z"/><path class="cls-1" d="m48.93,12.18l-4.91,34.69L29.99,13.87C26.97,5.64,33.77.24,38.34.14c5.21-.57,11.74,3.39,10.59,12.04Z"/><path class="cls-1" d="m70.25,13.78l-13.93,33.07-4.45-29.85c-.37-4.54,2.46-4.64,3.51-5.5-.2-.66-1.62-.66-1.62-.66h-2.65C50.82,3.08,56.88-.34,61.82.03c5.31.22,11.28,6.36,8.43,13.76h0Z"/><path class="cls-1" d="m84.47,31.11l-27.96,19.24,13.17-30.61c3.98-9.66,13.27-7.76,16.58-4.08,3.61,3.61,4.64,10.91-1.79,15.45Z"/><path class="cls-1" d="m87.4,53.76h-32.31l26.24-18.3c6.44-4.27,13.27-.37,15.06,5.21,1.92,6.26-2.36,13.09-8.99,13.09Z"/><path class="cls-1" d="m3.75,40.3c2.46-6.44,9.29-8.72,15.35-4.84l26.24,18.3H13.51c-6.63,0-11.84-6.07-9.75-13.46h0Z"/></svg>