<?xml version="1.0" encoding="utf-8"?>
<!-- Generator: Adobe Illustrator 21.1.0, SVG Export Plug-In . SVG Version: 6.00 Build 0)  -->
<svg version="1.1" id="M-ND" xmlns="http://www.w3.org/2000/svg" xmlns:xlink="http://www.w3.org/1999/xlink" x="0px" y="0px"
	 viewBox="0 0 600 400" style="enable-background:new 0 0 600 400;" xml:space="preserve">
<style type="text/css">
	.st0{fill:#FFFFFF;}
</style>
<g>
	<path class="st0" d="M133.9,263c110.8,0,221.6,0,332.4,0c0-42,0-84,0-126c-110.8,0-221.6,0-332.4,0C133.9,179,133.9,221,133.9,263z
		 M385.1,175.1c0.5,0,0.9-0.1,1.3-0.1c6.3,0,12.6-0.1,18.9,0c5.4,0.1,10.4,1.6,14.4,5.4c3.5,3.3,5.4,7.6,6.3,12.3
		c1.1,5.8,1,11.5-0.6,17.1c-2.7,9.2-10.2,15-19.8,15.1c-6.5,0.1-13,0-19.6,0c-0.3,0-0.6-0.1-1-0.1
		C385.1,208.3,385.1,191.8,385.1,175.1z M320.7,175.1c3,0,6,0,9.1,0c7.1,10.5,14.2,21.1,21.3,31.6c0.1,0,0.2-0.1,0.3-0.1
		c0-10.4,0-20.9,0-31.5c3.1,0,6.2,0,9.4,0c0,16.6,0,33.1,0,49.8c-1.9,0-8.3,0-8.3,0s-14.8-21.1-21.1-30.3c-0.3-0.5-0.7-1-1-1.4
		c-0.1,0-0.2,0.1-0.3,0.1c0,10.5,0,20.9,0,31.5c-3.2,0-6.3,0-9.4,0C320.7,208.3,320.7,191.8,320.7,175.1z M246.1,195.2
		c16.8,0,33.5,0,50.3,0c0,3.2,0,6.5,0,9.8c-16.8,0-33.5,0-50.3,0C246.1,201.6,246.1,198.5,246.1,195.2z M173.9,175.2
		c3.7,0,7.4,0,11.2,0c4.2,11.2,8.4,22.4,12.7,33.6c0.1,0,0.2,0,0.3,0.1c4.2-11.2,8.5-22.5,12.7-33.7c3.8,0,7.4,0,11.2,0
		c0,16.6,0,33.1,0,49.8c-3.3,0-6.4,0-9.7,0c0-9.2,0-18.3,0-27.5c-0.1,0-0.2-0.1-0.4-0.1c-3.4,9.2-10.1,27.6-10.1,27.6h-7.7
		c0,0-6.7-18.3-10.1-27.5c-0.1,0-0.2,0-0.2,0c0,9.1,0,18.2,0,27.5c-3.3,0-6.5,0-9.8,0C173.9,208.4,173.9,191.8,173.9,175.2z"/>
	<path class="st0" d="M405,215.8c5.3-0.2,8.8-3,10.2-8c1.5-5.2,1.5-10.5,0.1-15.8c-1.3-4.8-4.8-7.5-9.7-7.7c-3.3-0.1-6.6-0.1-10-0.1
		c-0.2,0-0.4,0.1-0.6,0.1c0,10.5,0,21,0,31.4c0.2,0,0.4,0.1,0.6,0.1C398.7,215.9,401.8,215.9,405,215.8z"/>
</g>
</svg>
