<?xml version="1.0" encoding="utf-8"?>
<!-- Generator: Adobe Illustrator 21.1.0, SVG Export Plug-In . SVG Version: 6.00 Build 0)  -->
<svg version="1.1" id="Marriot" xmlns="http://www.w3.org/2000/svg" xmlns:xlink="http://www.w3.org/1999/xlink" x="0px" y="0px"
	 viewBox="0 0 600 400" style="enable-background:new 0 0 600 400;" xml:space="preserve">
<style type="text/css">
	.st0{fill:#FFFFFF;}
</style>
<g>
	<g>
		<path class="st0" d="M550.2,235.2c-5.5-2.9-6.4-11.1-6.3-31l0.1-30.6l-10.5,0l2.4-5.7l8.2,0v-14.5l19.6-7.2l0,21.2l9,0l-2.4,6.3
			l-6.6,0l0,52.9c0.4,4.3,1.9,6.8,3.9,8.6L550.2,235.2z"/>
		<path class="st0" d="M58.6,183.2c2,5.4,6.5,11.1,3.3,17.4c-1.6,6.4-7.6,11.6-14,12.6c-6.7,0.6-13.1-0.5-18-4.6
			c-3.5-18.5,4-35.6,18.6-45.8L58.6,183.2z"/>
	</g>
	<g>
		<path class="st0" d="M84.4,239.6c-3.3,11.2-36.4,3.8-46.8-14.5c13.6,1.5,29-10.6,29.2-24.3L84.4,239.6z"/>
		<path class="st0" d="M97.9,238.1c1.5-0.7,4.6-2.2,5.3-5.4l-35.6-77.2c-2.4-0.3-4.1-0.5-7.1,1.6L97.9,238.1z"/>
		<path class="st0" d="M113.9,221.4c15.1-22.9,2.4-60.5-30.2-65.8L113.9,221.4z"/>
		<path class="st0" d="M397.1,170.3c3.6-3,9.9-3.1,14-1.1c1.7,0.9,3.4,2,4.4,3.5l-7.9,12.2c-1-0.8-1.7-1.1-3-1.8
			c-3.9-1.7-8-0.7-10.4,1.4l0,35.7c-0.1,6.2,1,11.8,4.2,14.8l-17.9,0c-3.7-2.9-4.7-7.5-5-11.5l-0.1-47.5c0.2-3.8-0.8-5.6-2.4-7.7
			l18.6,0.1c1.5,1.1,1.6,2.9,2.4,4.4L397.1,170.3z"/>
		<path class="st0" d="M419.8,182c-0.1-4.5,0.9-9.9-2.1-13.8l17.2,0c1.1,0.9,1.8,2.3,2.1,3.7c0.9,1.2,0.9,2.9,1.3,4.4l0.1,50.6
			c0.7,3,1.9,6.1,4.1,8.4l-18.4,0c-6-5.8-4-15.4-4.5-25.3L419.8,182z"/>
		<path class="st0" d="M447,182.5c1.9-5.2,7.7-7.7,11.9-10.5c6.5-2.4,13.5-8.2,20.8-3.4c6,3.9,11.3,8.4,15.1,14.5
			c0.9,2.4,1.4,5,2,7.5c0,3.4,0.7,5.9,0.6,9.2c0.2,3.7,0.2,7,0,10.5c-0.2,6.1-3.1,11.5-7.9,15.8c-7.2,6.4-16.2,13.6-25.9,8.7
			c-8.7-4.1-19.1-12.2-18.4-23.3c-0.4-7.9-0.7-14.7,0.4-22.4C446,186.9,445.8,184.5,447,182.5 M464.9,218.4c0.9,3.2,2.5,7,6.3,7.5
			c2.2,0.1,3.9-1.8,5.1-3.4c4-7.9,3.4-16.5,3.4-25.4c-1.3-6.7,0.3-15.8-6.9-19.8c-2.5-0.9-4.4,0.8-6,2.4c-2.8,4.2-3.1,9.1-3.3,14.4
			C462.7,202.6,463.7,209.7,464.9,218.4"/>
		<path class="st0" d="M510.2,235.2c-5.6-2.9-6.4-11.1-6.3-31l0.1-30.6l-10.5,0l2.4-5.7l8.2,0l0-14.5l19.6-7.2l0,21.2l9,0l-2.4,6.3
			l-6.6,0l0,52.9c0.4,4.3,1.9,6.8,3.9,8.6L510.2,235.2z"/>
		<path class="st0" d="M331.4,176.1c-0.1-3.9-0.8-5.6-2.4-7.7l18.6,0.1c1.5,1.1,1.6,2.9,2.4,4.4l3.2-2.5c3.6-3,9.9-3.1,14-1.1
			c1.7,0.9,3.4,2,4.4,3.5l-7.9,12.2c-1-0.8-1.7-1.1-3-1.8c-3.9-1.7-8-0.7-10.4,1.4l0,35.7c-0.1,6.2,1,11.8,4.2,14.8l-17.9,0
			c-3.7-2.9-4.8-7.1-5-11.5L331.4,176.1z"/>
		<path class="st0" d="M191.1,194.9l-6.8,13.9c-4.6,8.2-11.1,18.2-21,20.7c-3.8,1.3-7.2,0.1-10.9-0.1l-12,19.6
			c0.9,1,2.2,1.8,3.4,2.2c21,8,29.5-0.6,50.2-47.4l19.6,41.7l26.1,0l-12.3-28.1l7-14.5l19.2,42l24.9,0.2L234.8,149l-20.1,10
			l15.8,35.8l-6.9,14.1l-28.9-62.3l-21.2,10.8L191.1,194.9z"/>
		<path class="st0" d="M271.1,211.8c0.5-6.9,4.3-13.5,10.7-17c6.4-3.9,13.8-5.5,20.4-9c1.1-0.9,2.6-2.1,2.7-3.6
			c0.1-1.9-0.9-3.3-2.5-3.9c-10-2.1-18.3,4.2-25.6,10.4c0.9-4.6,1.6-9.6,3.8-13.9c1.1-1.1,1.7-2.7,3.1-3.6c7.1-3.5,16-4.5,23.9-3.9
			c6.5,0.4,12.5,5.1,14.8,11c1.1,2.8,1.1,5.9,1.3,8.8l0.1,38.8c0.1,3.4,1.6,6.5,3.6,9.2l-18.6,0c-2.2-2-3.3-4.5-3.9-7.7
			c-5.2,4.6-16,11.4-22.5,6.9C275.8,231.4,269.6,221.3,271.1,211.8 M304,198.3c-0.1-2.7-2.1-3-3.4-3c-4.4,0.6-8.3,4.4-10.4,8.2
			c-1.9,3.4-2.3,6.3-2.5,9.2c0,3.2-0.2,5.6,1.1,8c0.7,1.6,2.3,2.3,3.8,2.7c2.9,0.6,5.5-0.2,7.7-1.7c5.2-2.9,4.3-8.8,4.4-14
			L304,198.3z"/>
		<path class="st0" d="M578.5,234.2c-3,0-5.4-2.4-5.4-5.4c0-2.9,2.4-5.3,5.4-5.3c3,0,5.3,2.4,5.3,5.3
			C583.9,231.8,581.5,234.2,578.5,234.2 M578.5,235.3c3.6,0,6.5-2.9,6.5-6.5c0-3.6-2.9-6.5-6.5-6.5c-3.6,0-6.5,2.9-6.5,6.5
			C572,232.4,574.9,235.3,578.5,235.3 M578.2,229.2c0.4,0,0.8,0,1.1,0.3c0.3,0.4,0.3,1,0.4,1.6c0.1,0.4,0.2,0.9,0.3,1.4h1.5
			c-0.3-0.7-0.3-1.5-0.5-2.2c-0.1-0.8-0.2-1.3-1.3-1.5v0c1-0.2,1.5-0.9,1.5-1.8c0-1.7-1.4-2.1-2.8-2.1H576v7.6h1.2v-3.3H578.2z
			 M577.2,228.1v-2h1.4c0.9,0,1.2,0.3,1.2,0.9c0,0.6-0.3,1.1-1.4,1.1H577.2z"/>
	</g>
</g>
</svg>
