<?xml version="1.0" encoding="utf-8"?>
<!-- Generator: Adobe Illustrator 21.1.0, SVG Export Plug-In . SVG Version: 6.00 Build 0)  -->
<svg version="1.1" id="Maxymiser" xmlns="http://www.w3.org/2000/svg" xmlns:xlink="http://www.w3.org/1999/xlink" x="0px" y="0px"
	 viewBox="0 0 600 400" style="enable-background:new 0 0 600 400;" xml:space="preserve">
<style type="text/css">
	.st0{fill-rule:evenodd;clip-rule:evenodd;fill:#FFFFFF;}
	.st1{fill:#FFFFFF;}
</style>
<g>
	<g>
		<g>
			<g>
				<g>
					<path class="st0" d="M230.9,320.2l-5.2,0l0-13.5c0-2.8-1.3-4.2-3.8-4.2c-1.5,0-2.6,0.5-3.5,1.6c-0.9,1.1-1.3,2.6-1.3,4.8
						l0,11.4l-5.3,0l0-13.5c0-2.9-1.2-4.3-3.5-4.3c-1.4,0-2.7,0.6-3.6,1.7c-1,1.1-1.5,2.7-1.5,4.7l0,11.4l-5.1,0l0-21.8l4.8,0l0,4.6
						c1.6-3.4,4-5.1,7.4-5.1c3.2,0,5.3,1.7,6.3,5.1c1.8-3.4,4.2-5.1,7.4-5.1c2.1,0,3.8,0.7,5.1,2c1.3,1.3,1.9,2.9,1.9,4.9
						L230.9,320.2L230.9,320.2z"/>
					<path class="st0" d="M255.7,320.2l-4.7,0c-0.4-1.3-0.7-2.8-0.7-4.4c-1.3,3.2-3.8,4.8-7.5,4.8c-2.2,0-4-0.6-5.3-1.9
						c-1.3-1.3-2-2.9-2-4.8c0-5,4.5-7.5,13.3-7.5c0.4,0,0.8,0,1.4,0v-1.6c0-2.3-1.5-3.4-4.7-3.4c-3,0-4.7,1.1-5.2,3.4l-4.2-0.6
						c0.2-1.8,1.2-3.3,2.9-4.5c1.7-1.2,4.1-1.7,7.2-1.7c1.7,0,3.1,0.1,4.2,0.4c1.1,0.3,2,0.8,2.7,1.4c0.7,0.7,1.2,1.4,1.5,2.2
						c0.3,0.8,0.4,2.1,0.4,4l0,9.8C255,317.2,255.2,318.7,255.7,320.2L255.7,320.2z M250.2,309.1c-6.4,0-9.6,1.5-9.6,4.5
						c0,0.9,0.3,1.7,1,2.3c0.6,0.6,1.6,1,2.9,1c1.9,0,3.3-0.6,4.3-1.8c1-1.2,1.5-2.5,1.5-4L250.2,309.1L250.2,309.1z"/>
					<polygon class="st0" points="277.7,320.3 272,320.3 267.3,312.3 262.2,320.2 258,320.2 265.3,309 259,298.5 264.7,298.5 
						268.3,304.9 272.4,298.5 276.6,298.5 270.3,307.9 277.7,320.3 					"/>
					<path class="st0" d="M297.1,298.6l-8.6,24.7c-0.5,1.5-1.2,2.7-2.2,3.5c-0.9,0.8-2.2,1.3-3.9,1.3c-0.7,0-1.6-0.1-2.9-0.2l0-3.9
						l2.4,0c1,0,1.8-0.2,2.3-0.5c0.5-0.3,0.9-0.9,1.2-1.8c0.3-0.9,0.4-1.4,0.4-1.5c0-0.1-0.1-0.5-0.4-1.3l-7.5-20.4l5.2,0l5.3,14.4
						l4.6-14.3L297.1,298.6L297.1,298.6z"/>
					<path class="st0" d="M333.2,320.4l-5.2,0l0-13.5c0-2.8-1.3-4.2-3.8-4.2c-1.5,0-2.6,0.5-3.5,1.6c-0.9,1.1-1.3,2.6-1.3,4.8
						l0,11.4l-5.3,0l0-13.5c0-2.9-1.2-4.3-3.5-4.3c-1.4,0-2.6,0.6-3.6,1.7c-1,1.1-1.5,2.7-1.5,4.7l0,11.4l-5.1,0l0-21.8l4.8,0l0,4.6
						c1.6-3.4,4-5.1,7.4-5.1c3.2,0,5.3,1.7,6.3,5.1c1.8-3.4,4.2-5.1,7.4-5.1c2.1,0,3.8,0.7,5.1,2c1.3,1.3,1.9,2.9,1.9,4.9
						L333.2,320.4L333.2,320.4z"/>
					<path class="st0" d="M344.2,296.1l-5,0l0-5.1l5,0L344.2,296.1L344.2,296.1z M344.2,320.4l-5,0l0.1-21.8l5,0L344.2,320.4
						L344.2,320.4z"/>
					<path class="st0" d="M347.5,315.4l4.7-0.9c0.7,1.8,2.3,2.7,4.7,2.7c3.1,0,4.6-0.9,4.6-2.7c0-0.6-0.2-1.1-0.7-1.4
						c-0.5-0.4-1-0.6-1.7-0.8l-4-0.8c-4.5-0.9-6.7-3-6.7-6.5c0-1.9,0.7-3.6,2.1-4.9c1.4-1.3,3.5-2,6.3-2c4.6,0,7.5,1.7,8.5,5.1
						l-4.4,0.9c-0.5-1.6-1.8-2.5-4-2.5c-2.6,0-4,0.8-4,2.4c0,1.1,1.1,1.9,3.2,2.4l4.7,1c3.7,0.8,5.5,2.8,5.5,6.3
						c0,2.4-1,4.2-2.9,5.4c-1.9,1.2-4.1,1.8-6.7,1.8c-2.3,0-4.2-0.5-6-1.4C349.1,318.6,348,317.3,347.5,315.4L347.5,315.4z"/>
					<path class="st0" d="M384.4,313.6l4.5,0.6c-0.6,2-1.7,3.6-3.4,4.9c-1.7,1.3-3.8,1.9-6.4,1.9c-3.1,0-5.5-1-7.4-3.1
						c-1.9-2-2.8-4.8-2.8-8.2c0-3.3,0.9-6,2.8-8.2c1.9-2.2,4.4-3.2,7.6-3.2c3.1,0,5.6,1.1,7.3,3.2c1.7,2.1,2.6,4.9,2.6,8.2l0,0.6
						l-15.1,0c0,1.5,0.1,2.7,0.4,3.6c0.3,0.9,0.8,1.7,1.7,2.3c0.8,0.7,1.9,1,3.2,1C381.9,317.1,383.6,315.9,384.4,313.6L384.4,313.6
						z M384.1,307.1c0-1.6-0.5-2.8-1.4-3.8c-0.9-1-2.1-1.5-3.5-1.5c-1.4,0-2.5,0.5-3.4,1.4c-0.9,0.9-1.5,2.2-1.6,3.9L384.1,307.1
						L384.1,307.1z"/>
					<path class="st0" d="M398.8,320.5l-5,0l0-21.8l4.5,0l0,5.2c0.6-2,1.5-3.5,2.6-4.4c1.1-0.9,2.3-1.4,3.4-1.4c0.2,0,0.4,0,0.7,0
						l0,5.3c-2.5,0-4.2,0.8-5,2.4c-0.8,1.6-1.2,3.1-1.2,4.6L398.8,320.5L398.8,320.5z"/>
				</g>
			</g>
		</g>
		<g>
			<path class="st1" d="M420.7,294.2c0,1.3-0.5,2.5-1.4,3.4c-0.9,1-2.1,1.4-3.4,1.4c-1.3,0-2.5-0.5-3.4-1.4c-0.9-1-1.4-2.1-1.4-3.4
				c0-1.3,0.5-2.5,1.4-3.4c1-1,2.1-1.4,3.5-1.4c1.3,0,2.5,0.5,3.4,1.4C420.2,291.8,420.7,292.9,420.7,294.2z M419.8,294.2
				c0-1.1-0.4-2.1-1.2-2.9c-0.8-0.8-1.7-1.2-2.8-1.2c-1.1,0-2.1,0.4-2.8,1.2c-0.8,0.8-1.2,1.8-1.2,2.9c0,1.1,0.4,2.1,1.2,2.9
				c0.8,0.8,1.7,1.2,2.8,1.2c1.1,0,2-0.4,2.8-1.2C419.4,296.3,419.8,295.4,419.8,294.2z M418.3,297l-1.3,0l-0.9-2.3l-1.3,0l0,2.3
				l-1.2,0l0-5.6l2.6,0c0.7,0,1.2,0.2,1.6,0.5c0.3,0.3,0.5,0.7,0.5,1.2c0,0.7-0.4,1.2-1,1.5L418.3,297z M414.8,293.9l1.2,0
				c0.7,0,1-0.3,1-0.8c0-0.5-0.3-0.8-1-0.8l-1.3,0L414.8,293.9z"/>
		</g>
	</g>
	<g>
		<path class="st1" d="M198,277.2l0,1.7l2.8,0C199.7,278.7,198.8,278.1,198,277.2z"/>
		<g>
			<g>
				<g>
					<path class="st1" d="M395.2,92c2.5-0.2,6.9-0.7,10.2,0.3l0-19.8l-207-0.5l-0.3,141.7c1-1.2,2.2-2.2,3.5-3
						c3.2-1.9,7.2-1.6,6.9,2.9c-0.6,4.8-4,9.4-8.1,11.9c-0.8,0.4-1.6,0.7-2.3,0.8l0,2.2v1.7c0.7-0.6,1.4-1.2,2.2-1.7
						c3.5-1.9,7.2-0.6,7.2,3.7c-0.3,4.6-3.3,9.2-7.4,11.3c-0.7,0.3-1.4,0.5-2,0.5l0,3.9c0.6-0.6,1.3-1,2.1-1.5
						c3.7-1.6,7.1,0.4,7.4,4.5c0,4.3-2.5,8.8-6.6,10.5c-1.1,0.4-2.1,0.4-3,0.2l0,5.3c0.8-1.1,1.9-2,3.3-2.5c3.9-1.3,7.1,1.3,7.7,5.2
						c0.3,3.9-1.9,8.2-5.8,9.3l7.3,0l6.8,0c0.8-0.5,1.8-1,2.8-1.2c2.6-0.6,5.3-0.1,7.3,1.3l5.9,0c1.6-3.6,5.5-6,9.2-7.1
						c4.9-1.2,12-0.2,12.8,5.8c0,0.5,0,0.9,0,1.3l149.8,0.3l0.2-68.6c-3-0.7-5.4-2.4-5.8-5.9c-0.1-4.2,2.5-7.5,5.9-10.1l0-1.9l0-6.3
						c-3.9-0.3-7.4-1.8-8.1-5.8c-0.2-4.9,3.7-8.5,8.1-10.9l0-5.6c-4.8,0.2-9.8-0.8-10.6-5.4c-0.3-5.5,5.5-9,10.7-11v-3.8
						c-5.2,0.7-12.2,0.6-13.4-4.5c-0.5-6.2,8.4-9.2,13.4-10.4l0-0.4v-2.4c-4.2,0.8-14.7,2.3-16.2-3.4c-0.6-5.7,9.1-8.1,13.2-8.8
						c0.8-0.1,1.9-0.3,3-0.4l0-2.4l0-0.2c-1.5,0.4-2.8,0.6-3.6,0.8c-3.8,0.6-13.8,2.1-15.4-2.9c-0.6-5,8.9-6.6,12.3-7.2
						c1.7-0.2,4.2-0.5,6.7-0.4l0-0.4v-2.6c-2.7,1-6.1,1.4-7.3,1.6c-3.4,0.4-12.9,1.8-14.4-2.5C383,93.4,392.4,92.3,395.2,92z
						 M382.1,97.9c0.6,4.5-9.8,6.5-12.9,7.2c-3,0.6-13.9,3-14.6-1.7c0.2-4.8,9.7-6.6,13.3-7.4C371.1,95.4,380.6,93.6,382.1,97.9z
						 M338.4,168.3c4.6-1.4,16.8-4,17.6,3.6c-0.2,8-11.1,12.8-17.4,14.9c-4.3,1.3-17.5,4.1-17.4-3.8
						C321.3,175.3,332.3,170.4,338.4,168.3z M305.9,138.9c-2.5,0.9-14.6,4.5-13.7-1.3c0.9-6.1,10.3-9.9,15.2-11.7
						c2.6-0.9,14.5-4.4,14.1,1.2C321.1,133.2,310.7,137.1,305.9,138.9z M338.3,148.3c4.2-1.2,16-4,16.8,2.9
						c-0.2,7.4-11,11.7-16.8,13.6c-3.8,1.2-16.9,4.3-16.7-3C321.9,154.6,332.6,150.2,338.3,148.3z M322.4,142.9
						c0.3-6.6,10.8-10.4,15.9-12.1c3.7-1.1,15.2-3.9,16,2.3c-0.2,6.7-10.9,10.4-16,12.1C335,146.2,322.1,149.5,322.4,142.9z
						 M366.4,87.1c2.9-0.4,11.8-2.1,13.3,1.5c0.6,3.7-9.6,5.3-12.1,5.7c-2.6,0.5-13,2.6-13.7-1.3C354.1,89,363.3,87.7,366.4,87.1z
						 M338.4,128.2c-2.8,0.8-15.4,4.1-15.1-1.7c0.4-5.9,10.6-9.2,15.2-10.6c3.2-0.9,14.3-3.7,15,1.7
						C353.4,123.6,342.9,126.8,338.4,128.2z M338.8,103.5c2.8-0.7,13.5-3.4,14.1,1.2c-0.2,5.2-10.5,7.8-14.4,9
						c-2.3,0.6-14.6,3.8-14.2-1.1C324.8,107.4,334.8,104.7,338.8,103.5z M300.1,99.9c1.2-4.3,9.6-6.5,13.3-7.7
						c1.5-0.5,12.3-3.3,11.8-0.1c-0.6,4.1-10.2,6.5-13.5,7.6C310.3,100.1,299.1,103.1,300.1,99.9z M297.4,110.3
						c1.2-4.9,9.9-7.6,14-9c1.8-0.6,13-3.7,12.5,0.2c-0.6,4.8-10.4,7.7-14.2,9C308,111,296.4,114.4,297.4,110.3z M294.7,122.8
						c1.1-5.5,10.1-8.7,14.6-10.4c2.2-0.7,13.8-4.1,13.3,0.7c-0.5,5.4-10.7,8.8-15,10.4C305.7,124.2,293.8,127.8,294.7,122.8z
						 M266.8,135.5c1.7-5.6,9.1-9.2,14.1-11.3c1.9-0.8,13-4.6,12,0.3c-1.1,5.6-10,9.5-14.7,11.5
						C276.1,136.9,265.8,140.8,266.8,135.5z M263.3,151.1c1.5-6.1,9.1-10.1,14.4-12.4c2.4-1,13.5-4.7,12.6,1
						c-0.9,6.2-10,10.5-15.1,12.7C272.7,153.3,262.5,156.9,263.3,151.1z M288,156.9c-0.8,6.7-9.9,11.4-15.3,13.7
						c-3.1,1.3-13.1,4.4-12.5-2c1.3-6.5,9-10.9,14.6-13.4C277.7,154,288.8,150.5,288,156.9z M237.9,164.8c1.5-5.8,7.8-10,12.9-12.7
						c2.4-1.2,11.6-4.7,10.8,1c-1.5,6-8.5,10.4-13.7,13C245.3,167.4,236.9,170.5,237.9,164.8z M234.6,182.4
						c1.2-6.1,7.5-10.6,12.7-13.3c2.9-1.4,11.8-4.3,11.2,1.8c-1.2,6.3-8.2,11-13.6,13.7C241.8,185.9,233.9,188.3,234.6,182.4z
						 M212.8,194.5c1-5.4,5.8-9.9,10.4-12.6c2.8-1.6,9.6-3.6,8.9,1.9c-1.1,5.7-6.5,10.3-11.3,13.1
						C217.8,198.3,212.2,199.6,212.8,194.5z M209.5,250.3c0-5.2,3.9-9.6,8.4-11.7c4.1-1.6,9.5-0.8,9.7,4.5
						c-0.2,5.4-4.5,10.1-9.4,12.1C214.1,256.5,209.8,255,209.5,250.3z M209.4,231.3c0.3-5.4,4.6-10,9.2-12.4
						c3.8-1.8,9.5-1.9,9.4,3.6c-0.5,5.6-5.2,10.4-10.1,12.7C214.1,236.9,209.4,236.2,209.4,231.3z M219.7,274.6c-4.2,1-8.4-1-9-5.5
						c-0.3-4.9,3.2-9,7.6-10.7c4.4-1.4,9.4,0.2,10,5.2C228.5,268.8,224.4,273.2,219.7,274.6z M218.8,215.7c-3.4,1.6-8.5,1.9-8.3-3.2
						c0.7-5.5,5.2-10.1,9.9-12.7c3.3-1.7,9.5-2.8,9.2,2.8C228.7,208.3,223.7,213.1,218.8,215.7z M242.2,268.4
						c-4.7,1.2-10.9,0.2-11.5-5.5c-0.1-6,5.4-10.5,10.6-12.4c4.7-1.5,12.1-1.1,12.6,5.2C253.8,262.1,247.7,266.7,242.2,268.4z
						 M230,242.1c0.2-6.2,6-10.9,11.3-13.2c4.4-1.6,12.1-2,12.3,4.4c-0.4,6.5-6.7,11.5-12.4,13.6C236.8,248.4,230.3,248.1,230,242.1
						z M241.4,225.4c-4.1,1.5-11,2.1-10.9-4c0.6-6.3,6.6-11.1,11.9-13.6c4-1.7,12-3,12,3.5C253.7,217.9,247.1,223,241.4,225.4z
						 M242.7,204.4c-3.6,1.5-11,3-10.6-3.1c0.9-6.3,7.1-11,12.4-13.6c3.5-1.6,11.9-3.7,11.6,2.6
						C255.1,196.9,248.3,201.8,242.7,204.4z M268.9,235.6c-4.7,1.5-13.5,2.3-13.7-4.7c0.4-7.1,8-12.1,14.1-14.4
						c4.4-1.5,14.9-3.1,14.7,4.2C283.9,228.1,275,233.4,268.9,235.6z M284.8,197.8c-0.4,7.3-9.4,12.5-15.3,14.9
						c-4.2,1.5-13.5,3.2-13.4-3.8c0.8-7.1,8.4-12,14.4-14.5C274.4,192.9,285.1,190.6,284.8,197.8z M286.1,176.4
						c-0.6,7-9.7,12.1-15.4,14.5c-3.7,1.4-13.3,3.9-13-2.9c1.1-6.9,8.8-11.6,14.6-14.1C275.8,172.5,286.7,169.5,286.1,176.4z
						 M302.3,198.9c-4.1,1.4-16,3.9-15.6-3.7c0.4-7.5,10.2-12.6,16.3-14.9c4.1-1.4,16.4-4.2,16.3,3.4
						C319.1,191.5,308.4,196.7,302.3,198.9z M303.1,176.8c-3.6,1.2-15.6,4.3-15.1-2.8c0.6-7.1,10.3-11.9,16.1-14.1
						c3.6-1.3,15.8-4.4,15.6,2.6C319.5,169.8,308.9,174.6,303.1,176.8z M304.4,156.7c-3,1.1-15.2,4.5-14.4-2
						c0.8-6.6,10.3-10.9,15.7-13c3.1-1.1,15.2-4.5,14.9,1.8C320.2,150.3,309.6,154.7,304.4,156.7z M338.6,190.7
						c5.1-1.5,17.5-3.9,18.3,4.2c-0.2,8.4-11.1,13.6-17.9,15.8c-4.8,1.4-17.9,3.8-17.9-4.4C321,198.1,332.2,192.9,338.6,190.7z
						 M339.6,235.9c-5.1,1.5-18.2,3.4-18.3-5c-0.1-8.4,11.1-13.8,17.8-16c5.4-1.6,17.9-3.7,18.7,4.8
						C357.7,228.3,346.7,233.6,339.6,235.9z M392.6,159.5c0.5,7.7-10.6,12-16.4,13.8c-4.8,1.3-17.3,3.7-18.2-3.9
						c0.1-7.6,10.6-12,16.7-13.8C379.6,154.4,391.2,152.3,392.6,159.5z M390,140.1c0.5,6.9-10.4,10.7-15.6,12.2
						c-4.3,1.1-16.6,3.7-17.4-3.3c0.1-7,10.4-10.7,15.9-12.2C377.4,135.7,388.6,133.6,390,140.1z M387.3,123.4
						c0.6,6.2-10.2,9.3-14.7,10.5c-3.8,0.9-15.7,3.5-16.5-2.7c0.1-6.3,10.2-9.3,15.1-10.5C375.2,119.7,385.9,117.7,387.3,123.4z
						 M384.7,109.4c0.6,5.3-10,7.8-13.8,8.8c-3.4,0.8-14.8,3.3-15.6-2.2c0.1-5.5,9.9-7.9,14.2-8.9
						C373.1,106.4,383.2,104.4,384.7,109.4z"/>
				</g>
			</g>
		</g>
	</g>
</g>
</svg>
