<?xml version="1.0" encoding="utf-8"?>
<!-- Generator: Adobe Illustrator 21.1.0, SVG Export Plug-In . SVG Version: 6.00 Build 0)  -->
<svg version="1.1" id="Layer_1" xmlns="http://www.w3.org/2000/svg" xmlns:xlink="http://www.w3.org/1999/xlink" x="0px" y="0px"
	 viewBox="0 0 20.9 20.9" style="enable-background:new 0 0 20.9 20.9;" xml:space="preserve">
<style type="text/css">
	.st0{fill:#292560;}
</style>
<g>
	<g>
		<path class="st0" d="M12.471,15.992v-0.247l0.573-0.095c0.334-0.053,0.547-0.143,0.64-0.27c0.093-0.127,0.139-0.353,0.139-0.676
			V9.869c0-0.403-0.073-0.667-0.219-0.791c-0.146-0.125-0.42-0.203-0.823-0.235l-0.573-0.048V8.58l2.823-0.668l0.286,0.095
			c-0.037,0.594-0.068,1.343-0.091,2.247c-0.024,0.904-0.036,1.769-0.036,2.596c0-0.355,0.015-0.724,0.044-1.105
			c0.029-0.382,0.081-0.79,0.155-1.225c0.133-0.779,0.387-1.425,0.763-1.936c0.376-0.512,0.88-0.767,1.511-0.767
			c0.414,0,0.737,0.114,0.97,0.342c0.233,0.228,0.35,0.522,0.35,0.883c0,0.355-0.106,0.631-0.318,0.827s-0.469,0.294-0.771,0.294
			c-0.307,0-0.545-0.089-0.712-0.266c-0.167-0.178-0.25-0.404-0.25-0.68c0-0.064,0.005-0.13,0.016-0.199
			c0.011-0.069,0.016-0.122,0.016-0.159c0-0.064-0.013-0.113-0.04-0.147S16.858,8.66,16.805,8.66c-0.201,0-0.417,0.159-0.648,0.477
			c-0.231,0.318-0.412,0.801-0.545,1.447c-0.069,0.382-0.121,0.762-0.155,1.141s-0.052,0.754-0.052,1.125v1.805
			c0,0.339,0.058,0.578,0.175,0.716c0.117,0.138,0.35,0.231,0.7,0.278l0.668,0.095v0.247c-0.387,0-0.771-0.003-1.153-0.008
			s-0.769-0.008-1.161-0.008c-0.382,0-0.742,0.003-1.082,0.008C13.213,15.989,12.853,15.992,12.471,15.992z"/>
		<path class="st0" d="M10.47,5.639C9.638,5.133,8.45,4.88,6.904,4.88H6.9C6.868,4.839,6.834,4.799,6.791,4.768
			C6.723,4.72,6.7,4.654,6.711,4.574c0.003-0.024,0.008-0.047,0.016-0.07c0.01-0.03,0.034-0.041,0.063-0.03
			c0.019,0.007,0.037,0.018,0.053,0.03c0.05,0.038,0.091,0.085,0.125,0.137C6.986,4.668,7.002,4.696,7.001,4.73
			c0,0.011,0.007,0.023,0.011,0.034c0.015,0.037,0.029,0.075,0.044,0.112l0.129-0.594c0.06-0.261-0.06-0.653-0.449-0.907
			C6.531,3.243,6.282,3.127,6.024,3.023C5.999,3.022,5.971,3.021,5.963,3.021C5.905,3.022,5.849,3.03,5.794,3.048
			C5.746,3.064,5.711,3.093,5.688,3.139C5.661,3.195,5.631,3.249,5.6,3.303c-0.015,0.026-0.033,0.05-0.052,0.073
			C5.502,3.427,5.439,3.44,5.382,3.412C5.327,3.384,5.297,3.323,5.308,3.258C5.315,3.213,5.332,3.171,5.353,3.13
			c0.035-0.067,0.081-0.127,0.131-0.184c0.009-0.01,0.022-0.019,0.035-0.022C5.549,2.917,5.58,2.911,5.61,2.908
			c0.031-0.003,0.062-0.001,0.093-0.003C5.716,2.904,5.727,2.911,5.74,2.912C5.684,2.893,5.468,2.811,5.296,2.791
			c-0.092-0.01-0.204-0.006-0.253,0.005C5.035,2.798,5.027,2.801,5.019,2.803C4.875,2.847,4.776,2.936,4.725,3.079
			C4.706,3.132,4.682,3.183,4.659,3.234c-0.007,0.015-0.015,0.03-0.026,0.043c-0.045,0.055-0.089,0.052-0.14,0.029
			c-0.024-0.01-0.035-0.032-0.036-0.058C4.456,3.208,4.458,3.192,4.47,3.167c0.11-0.226,0.14-0.26,0.194-0.321
			c0.02-0.023,0.043-0.041,0.071-0.054c0.068-0.031,0.139-0.047,0.212-0.061C4.902,2.726,4.476,2.71,4.37,2.726
			C4.266,2.764,4.185,2.833,4.123,2.923C4.08,2.986,4.044,3.054,4.005,3.12C3.98,3.162,3.957,3.206,3.929,3.245
			C3.91,3.271,3.868,3.319,3.831,3.327C3.8,3.333,3.778,3.321,3.777,3.289c0-0.019,0.003-0.039,0.011-0.056
			c0.02-0.042,0.04-0.084,0.065-0.124c0.035-0.058,0.074-0.114,0.112-0.171C4.002,2.881,4.053,2.836,4.11,2.797
			c-0.082,0.029-0.156,0.065-0.226,0.11C3.549,3.15,3.435,3.63,3.435,3.63L3.402,3.769C3.407,3.762,3.41,3.753,3.418,3.748
			c0.075-0.044,0.157-0.071,0.241-0.089C3.774,3.634,3.89,3.622,4.008,3.62c0.022,0,0.039-0.002,0.048-0.027
			C4.062,3.575,4.112,3.567,4.125,3.58C4.129,3.585,4.131,3.594,4.13,3.6C4.12,3.673,4.11,3.746,4.099,3.824
			c-0.013,0-0.023,0-0.034,0c-0.099,0-0.199-0.003-0.298,0.001c-0.1,0.004-0.2,0.017-0.296,0.05
			c-0.012,0.004-0.025,0.01-0.037,0.013C3.387,3.902,3.353,3.983,3.353,3.983l-0.15,0.631C3.215,4.595,3.221,4.572,3.244,4.56
			c0.081-0.044,0.167-0.071,0.257-0.088c0.105-0.02,0.21-0.032,0.317-0.032c0.025,0,0.045-0.001,0.052-0.031
			c0.002-0.006,0.014-0.012,0.022-0.013c0.015-0.002,0.031-0.001,0.052-0.001c0,0.087-0.02,0.165-0.032,0.244
			c-0.036,0-0.069,0.001-0.103,0C3.646,4.634,3.484,4.64,3.325,4.681C3.292,4.69,3.26,4.704,3.228,4.716
			C3.202,4.724,3.189,4.741,3.185,4.768C3.184,4.776,3.173,4.819,3.157,4.88H2.092v0.264l0.847,0.12
			c0.04,0.006,0.072,0.014,0.109,0.02c-0.017,0.064-0.03,0.11-0.03,0.11C3.027,5.38,3.032,5.362,3.05,5.354
			c0.046-0.022,0.096-0.03,0.144-0.043c0.031-0.008,0.06-0.023,0.092-0.027C3.362,5.273,3.438,5.266,3.514,5.26
			C3.543,5.257,3.55,5.24,3.558,5.214c0.028,0.019,0.049,0.041,0.07,0.063c0.028,0.028,0.052,0.059,0.08,0.088
			c0.015,0.015,0.02,0.032,0.015,0.052C3.72,5.43,3.718,5.444,3.715,5.46c-0.023,0-0.046,0.001-0.068,0
			c-0.008-0.001-0.015,0.001-0.023,0C3.495,5.452,3.366,5.45,3.238,5.464C3.178,5.471,3.119,5.488,3.059,5.5
			C3.035,5.506,3.023,5.521,3.02,5.545C3.016,5.57,3.009,5.595,3.006,5.62C3.003,5.643,2.993,5.657,2.972,5.665
			c-0.007,0.003-0.013,0.006-0.02,0.01c0,0-0.089,0.428-0.102,0.434L2.83,6.192c0.006-0.008,0.008-0.019,0.02-0.025
			c0.062-0.03,0.128-0.046,0.195-0.058c0.128-0.021,0.258-0.016,0.387-0.017c0.011,0,0.022,0.001,0.032-0.001
			c0.008,0,0.021-0.005,0.023-0.011c0.01-0.027,0.031-0.027,0.053-0.025c0.009,0.001,0.018,0.002,0.03,0.003
			C3.573,6.142,3.549,6.22,3.54,6.303c-0.055-0.004-0.103-0.008-0.152-0.01C3.245,6.285,3.103,6.282,2.961,6.299
			C2.935,6.302,2.91,6.309,2.884,6.313C2.862,6.316,2.853,6.329,2.849,6.349C2.842,6.386,2.833,6.423,2.827,6.461
			c-0.003,0.018-0.01,0.028-0.026,0.036C2.786,6.504,2.769,6.514,2.752,6.523L2.733,6.605c0,0-0.004,0.317-0.01,0.342
			c0.053,0.034,0.067,0.081,0.064,0.14C2.78,7.205,2.778,7.323,2.775,7.442c-0.002,0.074,0.018,0.142,0.06,0.203
			c0.052,0.076,0.106,0.151,0.159,0.226c0.012,0.017,0.022,0.035,0.034,0.053C3.313,8.248,3.66,8.28,3.721,8.3
			C3.69,8.268,3.499,8.072,3.374,7.926C3.308,7.849,3.277,7.76,3.258,7.663C3.232,7.53,3.227,7.395,3.221,7.26
			C3.22,7.215,3.22,7.171,3.219,7.127c0-0.01-0.001-0.024-0.007-0.03C3.198,7.082,3.202,7.07,3.208,7.054
			c0.021-0.057,0.079-0.071,0.127-0.056c0.029,0.009,0.053,0.027,0.072,0.051C3.423,7.068,3.432,7.09,3.43,7.115
			C3.426,7.171,3.422,7.227,3.42,7.283C3.414,7.41,3.416,7.535,3.436,7.66c0.01,0.061,0.033,0.117,0.063,0.171
			c0.063,0.112,0.138,0.216,0.218,0.316c0.06,0.076,0.123,0.15,0.185,0.225C3.904,8.374,3.885,8.368,3.861,8.36L3.546,9.194
			L3.54,9.208v0.163v2.134c0,0.007,0.005,0.012,0.005,0.019c0.014,0.141,0.176,0.259,0.408,0.326v2.718v0.438
			c-0.014,0.001-0.026,0.002-0.04,0.003c-0.027,0.126-0.068,0.226-0.123,0.299c-0.109,0.147-0.393,0.252-0.851,0.316l-0.442,0.058
			l-0.406,0.054V16c0.49,0,0.954-0.003,1.391-0.008s0.901-0.008,1.391-0.008c0.48,0,0.955,0.003,1.427,0.008
			C6.772,15.997,7.253,16,7.744,16v-0.264l-0.855-0.112c-0.459-0.064-0.759-0.185-0.9-0.363c-0.141-0.179-0.212-0.457-0.212-0.835
			v-3.533c0.181,0.016,0.401,0.031,0.659,0.044s0.486,0.02,0.684,0.02c1.263,0,2.345-0.245,3.246-0.735s1.351-1.25,1.351-2.278
			S11.301,6.146,10.47,5.639z M4.362,3.575c0.034,0,0.066-0.002,0.098,0c0.104,0.008,0.208,0.016,0.311,0.027
			C4.88,3.615,4.989,3.631,5.098,3.647C5.119,3.65,5.141,3.653,5.142,3.684c0.001,0.017,0.019,0.019,0.033,0.022
			c0.097,0.02,0.194,0.04,0.291,0.062C5.581,3.794,5.692,3.831,5.8,3.875C5.813,3.88,5.826,3.884,5.839,3.889
			C5.846,3.879,5.851,3.87,5.858,3.86C5.87,3.864,5.881,3.867,5.892,3.872C6.07,3.951,6.24,4.043,6.401,4.151
			C6.473,4.199,6.494,4.25,6.474,4.335C6.468,4.361,6.456,4.387,6.442,4.41C6.425,4.435,6.403,4.438,6.376,4.423
			C6.369,4.42,6.362,4.415,6.355,4.41C6.092,4.249,5.82,4.107,5.53,4.001c-0.148-0.054-0.3-0.088-0.457-0.106
			c-0.15-0.017-0.3-0.034-0.45-0.048C4.537,3.839,4.45,3.836,4.362,3.83c-0.01-0.001-0.021-0.002-0.036-0.003
			C4.338,3.742,4.35,3.659,4.362,3.575z M4.189,4.403c0.099-0.016,0.703,0.05,0.775,0.085c0.001,0.01,0.001,0.02,0.002,0.035
			C5.003,4.531,5.041,4.54,5.08,4.547c0.19,0.037,0.379,0.081,0.558,0.157c0.008,0.003,0.016,0.005,0.025,0.008
			c0.004-0.005,0.008-0.009,0.012-0.014c0.003-0.004,0.006-0.008,0.01-0.013C5.694,4.688,5.703,4.69,5.712,4.694
			c0.12,0.052,0.231,0.121,0.344,0.186C6.113,4.913,6.174,4.939,6.23,4.974c0.071,0.045,0.085,0.105,0.075,0.178
			C6.302,5.16,6.298,5.168,6.295,5.176C6.291,5.19,6.288,5.203,6.282,5.216C6.265,5.253,6.235,5.27,6.188,5.24
			C6.152,5.218,6.114,5.198,6.077,5.176c-0.051-0.03-0.101-0.061-0.153-0.089c-0.15-0.083-0.31-0.144-0.469-0.207
			C5.386,4.853,5.323,4.813,5.253,4.791C5.144,4.757,5.032,4.737,4.919,4.722C4.798,4.707,4.677,4.694,4.556,4.681
			C4.484,4.674,4.413,4.67,4.341,4.665C4.28,4.66,4.22,4.656,4.153,4.652C4.166,4.565,4.177,4.484,4.189,4.403z M4.008,5.391
			c0.001-0.008,0.01-0.016,0.017-0.022C4.076,5.331,4.127,5.294,4.18,5.258c0.011-0.007,0.027-0.01,0.04-0.009
			C4.327,5.258,4.434,5.268,4.541,5.28c0.064,0.007,0.128,0.018,0.192,0.027C4.739,5.308,4.745,5.309,4.751,5.31
			C4.785,5.318,4.785,5.318,4.79,5.358c0.021,0.005,0.044,0.011,0.067,0.015c0.21,0.037,0.418,0.082,0.616,0.164
			c0.004,0.002,0.009,0.002,0.018,0.004c0.006-0.01,0.011-0.018,0.016-0.027c0.006,0.001,0.012,0.001,0.017,0.003
			C5.577,5.54,5.63,5.562,5.682,5.587c0.033,0.015,0.063,0.036,0.095,0.052c0.099,0.05,0.198,0.1,0.292,0.16
			c0.037,0.023,0.067,0.048,0.073,0.096C6.15,5.949,6.145,6.002,6.114,6.049c-0.021,0.032-0.046,0.037-0.08,0.016
			c-0.07-0.043-0.14-0.088-0.211-0.13C5.809,5.926,5.792,5.921,5.777,5.913c-0.161-0.092-0.325-0.176-0.5-0.237
			C5.143,5.629,5.005,5.602,4.864,5.585C4.747,5.57,4.629,5.556,4.511,5.544c-0.11-0.012-0.219-0.021-0.329-0.031
			C4.121,5.507,4.059,5.501,3.993,5.495C3.998,5.458,4.002,5.424,4.008,5.391z M4.509,8.436c-0.05-0.039-0.1-0.078-0.144-0.124
			C4.242,8.184,4.133,8.044,4.031,7.899C3.984,7.832,3.967,7.756,3.955,7.678c-0.003-0.014-0.013-0.026-0.014-0.04
			C3.929,7.521,3.93,7.404,3.937,7.286C3.939,7.243,3.942,7.2,3.942,7.157c0-0.011-0.011-0.022-0.019-0.036
			c0.004-0.016,0.021-0.023,0.031-0.034C3.965,7.076,3.97,7.06,3.986,7.053c0.059-0.024,0.117-0.021,0.173,0.009
			C4.193,7.08,4.212,7.107,4.212,7.145c0,0.041,0,0.081-0.002,0.122c-0.005,0.11-0.008,0.22,0.002,0.33
			C4.224,7.72,4.257,7.834,4.329,7.936c0.093,0.132,0.199,0.252,0.31,0.367c0.039,0.041,0.08,0.08,0.121,0.119
			C4.681,8.43,4.598,8.435,4.509,8.436z M4.837,6.455c-0.1-0.03-0.203-0.045-0.306-0.058C4.407,6.382,4.282,6.368,4.157,6.356
			C4.089,6.349,4.021,6.345,3.953,6.341c-0.006,0-0.012-0.001-0.018-0.001C3.89,6.336,3.844,6.334,3.799,6.331
			c-0.004,0-0.009-0.002-0.016-0.004c0.012-0.083,0.024-0.166,0.036-0.251c0.015,0,0.026-0.001,0.038,0
			C3.881,6.078,3.905,6.08,3.93,6.081c0.08,0.005,0.16,0.01,0.239,0.018C4.276,6.11,4.382,6.126,4.489,6.14
			c0.025,0.003,0.049,0.008,0.074,0.013c0.042,0.008,0.042,0.009,0.048,0.051C4.845,6.249,5.08,6.3,5.301,6.392
			C5.307,6.389,5.31,6.387,5.312,6.385C5.33,6.362,5.331,6.361,5.356,6.371c0.063,0.026,0.127,0.05,0.189,0.079
			C5.623,6.487,5.7,6.526,5.777,6.565C5.805,6.579,5.832,6.593,5.86,6.606c0.074,0.035,0.092,0.096,0.084,0.169
			C5.941,6.8,5.932,6.826,5.919,6.849C5.901,6.882,5.877,6.886,5.844,6.868c-0.022-0.012-0.045-0.02-0.067-0.032
			C5.477,6.677,5.163,6.553,4.837,6.455z M9.051,10c-0.493,0.44-1.137,0.66-1.931,0.66c-0.203,0-0.438-0.005-0.707-0.016
			c-0.269-0.011-0.481-0.024-0.636-0.04V8.556c0.162-0.011,0.483-0.096,0.6-0.609c0.001-0.006-0.002-0.009-0.001-0.014
			C6.387,7.897,6.41,7.867,6.417,7.829l0.004-0.018C6.417,7.805,6.414,7.799,6.41,7.792c-0.049-0.09-0.11-0.17-0.193-0.233
			C6.164,7.52,6.14,7.466,6.146,7.4C6.149,7.372,6.153,7.343,6.16,7.315c0.01-0.039,0.034-0.049,0.071-0.032
			c0.013,0.006,0.025,0.014,0.037,0.022c0.051,0.039,0.093,0.086,0.126,0.141c0.008,0.014,0.01,0.031,0.015,0.046
			c0.003,0.01,0.007,0.02,0.011,0.03c0.015,0.031,0.03,0.062,0.043,0.093L6.512,7.39C6.51,7.387,6.507,7.382,6.506,7.379
			c-0.05-0.094-0.114-0.177-0.2-0.241c-0.058-0.043-0.08-0.103-0.07-0.174C6.239,6.94,6.243,6.916,6.249,6.893
			c0.01-0.036,0.034-0.047,0.069-0.034C6.331,6.864,6.344,6.872,6.355,6.88c0.054,0.043,0.098,0.092,0.134,0.15
			C6.493,7.037,6.5,7.047,6.498,7.053c-0.006,0.026,0.01,0.043,0.02,0.063c0.022,0.042,0.03,0.063,0.035,0.085l0.045-0.209
			c-0.002-0.005-0.005-0.01-0.007-0.014C6.542,6.889,6.482,6.809,6.4,6.748c-0.058-0.043-0.084-0.1-0.075-0.172
			C6.328,6.549,6.332,6.521,6.34,6.495C6.349,6.462,6.372,6.45,6.403,6.463c0.02,0.008,0.04,0.019,0.055,0.033
			c0.036,0.035,0.069,0.072,0.102,0.11c0.015,0.017,0.026,0.036,0.024,0.062c-0.002,0.009,0.006,0.02,0.01,0.03
			C6.61,6.73,6.626,6.762,6.641,6.795l0.041-0.188C6.681,6.605,6.679,6.604,6.679,6.602c-0.051-0.094-0.114-0.177-0.2-0.242
			c-0.06-0.045-0.082-0.107-0.07-0.18c0.004-0.022,0.006-0.045,0.013-0.067c0.01-0.037,0.036-0.049,0.071-0.033
			C6.51,6.087,6.526,6.096,6.539,6.108c0.035,0.034,0.069,0.07,0.101,0.106c0.017,0.019,0.033,0.041,0.028,0.071
			c-0.002,0.01,0.007,0.02,0.012,0.03c0.015,0.031,0.03,0.063,0.044,0.094l0.038-0.175C6.761,6.232,6.76,6.23,6.759,6.228
			C6.708,6.121,6.64,6.027,6.545,5.955C6.484,5.908,6.461,5.847,6.474,5.771C6.477,5.749,6.48,5.726,6.486,5.705
			c0.011-0.036,0.035-0.047,0.069-0.034C6.57,5.676,6.584,5.684,6.596,5.693C6.65,5.734,6.695,5.783,6.73,5.841
			c0.011,0.017,0.02,0.035,0.018,0.057c-0.001,0.01,0.005,0.02,0.01,0.03c0.016,0.037,0.032,0.073,0.047,0.11l0.04-0.185
			C6.844,5.851,6.842,5.849,6.841,5.847c-0.027-0.061-0.059-0.12-0.1-0.174c-0.034-0.046-0.072-0.09-0.12-0.123
			C6.553,5.502,6.53,5.436,6.541,5.356c0.003-0.024,0.008-0.047,0.016-0.07c0.01-0.03,0.034-0.041,0.063-0.03
			c0.019,0.007,0.037,0.018,0.053,0.03c0.05,0.038,0.091,0.085,0.125,0.137C6.816,5.45,6.832,5.478,6.831,5.512
			c0,0.011,0.007,0.023,0.011,0.034c0.015,0.038,0.029,0.075,0.044,0.112l0.043-0.197C6.928,5.459,6.926,5.456,6.925,5.452
			c-0.027-0.061-0.059-0.12-0.1-0.174c-0.029-0.038-0.063-0.072-0.1-0.103c-0.007-0.006-0.012-0.015-0.02-0.02
			c-0.068-0.048-0.091-0.114-0.08-0.194c0.003-0.024,0.008-0.047,0.015-0.07C6.644,4.88,6.657,4.886,6.664,4.88
			c0.012-0.01,0.021-0.026,0.039-0.019C6.715,4.866,6.726,4.873,6.736,4.88c0.006,0.004,0.014,0.007,0.02,0.011
			c0.05,0.038,0.091,0.085,0.125,0.137c0.018,0.027,0.034,0.055,0.033,0.089c0,0.011,0.007,0.023,0.011,0.034
			c0.003,0.008,0.007,0.017,0.01,0.025c0.012,0.03,0.024,0.06,0.036,0.09L6.99,5.18c0.932,0.011,1.633,0.223,2.092,0.643
			C9.555,6.255,9.79,6.966,9.79,7.958C9.79,8.88,9.544,9.561,9.051,10z"/>
	</g>
</g>
</svg>
