<?xml version="1.0" encoding="utf-8"?>
<!-- Generator: Adobe Illustrator 21.1.0, SVG Export Plug-In . SVG Version: 6.00 Build 0)  -->
<svg version="1.1" id="Layer_1" xmlns="http://www.w3.org/2000/svg" xmlns:xlink="http://www.w3.org/1999/xlink" x="0px" y="0px"
	 viewBox="0 0 20.9 20.9" style="enable-background:new 0 0 20.9 20.9;" xml:space="preserve">
<style type="text/css">
	.st0{fill:url(#SVGID_1_);}
	.st1{fill:#292560;}
</style>
<g id="Digital">
	<g>
		
			<linearGradient id="SVGID_1_" gradientUnits="userSpaceOnUse" x1="-2.017674e-05" y1="-2304" x2="20.9339" y2="-2324.9338" gradientTransform="matrix(1 0 0 -1 0 -2304)">
			<stop  offset="0" style="stop-color:#5852AC"/>
			<stop  offset="1" style="stop-color:#33BDF4"/>
		</linearGradient>
		<path class="st0" d="M0,0v20.9h20.9V0H0z"/>
	</g>
	<path class="st1" d="M11.521,6.189c-1.213-0.862-2.589-1.294-4.127-1.294H2.292v0.264l0.846,0.119
		C3.596,5.342,3.879,5.453,3.989,5.61c0.109,0.157,0.163,0.411,0.163,0.763v1.654h0.833v3.168H4.152v3.337
		c0,0.351-0.054,0.606-0.163,0.763c-0.109,0.157-0.393,0.267-0.851,0.331l-0.846,0.113V16h5.086c1.554,0,2.936-0.428,4.148-1.285
		c1.211-0.858,1.816-2.276,1.816-4.256C13.341,8.474,12.734,7.051,11.521,6.189z M10.263,14.492
		c-0.679,0.809-1.641,1.213-2.886,1.213H7.002c-0.367,0-0.631-0.078-0.79-0.232c-0.16-0.154-0.239-0.399-0.239-0.734V5.19h1.421
		c1.219,0,2.172,0.405,2.858,1.213c0.687,0.809,1.03,2.161,1.03,4.056C11.281,12.338,10.942,13.682,10.263,14.492z"/>
	<path class="st1" d="M16.415,6.061c0.34,0,0.621-0.1,0.842-0.3c0.22-0.199,0.33-0.474,0.331-0.823H16.46v-1.13
		c-0.016,0-0.029-0.007-0.045-0.007c-0.319,0-0.594,0.101-0.822,0.303c-0.229,0.202-0.343,0.479-0.343,0.83
		c0,0.33,0.117,0.6,0.351,0.811C15.835,5.956,16.106,6.061,16.415,6.061z"/>
	<path class="st1" d="M18.227,15.656c-0.34-0.053-0.559-0.142-0.655-0.267s-0.144-0.348-0.144-0.667V9.869
		c0-0.319,0.009-0.639,0.028-0.958c0.018-0.319,0.047-0.639,0.084-0.958l-0.311-0.096L14.187,8.56v0.216l0.575,0.047
		c0.404,0.032,0.68,0.111,0.827,0.236c0.146,0.125,0.219,0.395,0.219,0.811v4.838c0,0.325-0.046,0.551-0.139,0.679
		s-0.308,0.218-0.643,0.27l-0.575,0.096V16c0.383,0,0.745-0.003,1.086-0.008c0.34-0.006,0.703-0.008,1.086-0.008
		c0.394,0,0.758,0.003,1.094,0.008C18.051,15.997,18.413,16,18.802,16v-0.248L18.227,15.656z"/>
</g>
</svg>
