<?xml version="1.0" encoding="utf-8"?>
<!-- Generator: Adobe Illustrator 21.1.0, SVG Export Plug-In . SVG Version: 6.00 Build 0)  -->
<svg version="1.1" id="Layer_1" xmlns="http://www.w3.org/2000/svg" xmlns:xlink="http://www.w3.org/1999/xlink" x="0px" y="0px"
	 viewBox="0 0 20.9 20.9" style="enable-background:new 0 0 20.9 20.9;" xml:space="preserve">
<style type="text/css">
	.st0{fill:#292560;}
</style>
<g>
	<path class="st0" d="M19.81,4.901H6.92c-0.164-0.013-0.316-0.04-0.491-0.04c-0.147,0-0.287,0.028-0.432,0.04h-4.81v0.231h3.658
		C4.139,5.365,3.464,5.739,2.829,6.294c-1.082,0.945-1.624,2.318-1.637,4.112H1.188v0.058v0.058h0.005
		c0.012,1.784,0.552,3.147,1.628,4.081c0.63,0.547,1.302,0.917,2.005,1.148H1.188v0.231h4.8c0.142,0.012,0.281,0.039,0.426,0.039
		c0.176,0,0.328-0.026,0.492-0.039h8.312c0.139,0.015,0.274,0.039,0.419,0.039c0.147,0,0.284-0.024,0.425-0.039h3.748V15.75h-2.762
		c0.443-0.184,0.844-0.462,1.203-0.836c0.707-0.738,1.061-1.72,1.061-2.944c0-0.532-0.08-1.009-0.214-1.449
		c-0.011-0.037-0.017-0.079-0.03-0.116c-0.176-0.523-0.444-0.983-0.817-1.372c-0.707-0.738-1.578-1.107-2.613-1.107
		c-1.02,0-1.883,0.369-2.59,1.107c-0.373,0.389-0.641,0.849-0.817,1.372h-0.673v0.116h0.644c-0.134,0.44-0.214,0.917-0.214,1.449
		c0,1.224,0.354,2.206,1.061,2.944c0.359,0.374,0.758,0.651,1.197,0.836h-3.895v-3.965h-0.3c-0.472,1.424-0.987,2.447-1.545,3.067
		c-0.481,0.534-1.06,0.824-1.724,0.897H6.185c-0.926-0.078-1.657-0.522-2.169-1.373c-0.556-0.924-0.834-2.211-0.842-3.856h1.773
		v-0.116H3.172c0.005-1.762,0.292-3.088,0.862-3.971c0.518-0.8,1.234-1.221,2.126-1.303h0.645c0.603,0.076,1.143,0.34,1.61,0.818
		c0.556,0.568,1.1,1.683,1.634,3.345h0.3V5.132h9.46L19.81,4.901L19.81,4.901z M14.123,14.683c-0.277-0.732-0.415-1.637-0.415-2.713
		c0-1.071,0.138-1.973,0.415-2.705s0.781-1.1,1.514-1.1c0.753,0,1.267,0.367,1.541,1.1c0.128,0.342,0.223,0.725,0.292,1.141h-0.247
		v0.116h0.267c0.066,0.443,0.099,0.925,0.099,1.449c0,1.076-0.137,1.98-0.411,2.713c-0.242,0.647-0.682,0.992-1.297,1.067H15.4
		C14.8,15.674,14.367,15.33,14.123,14.683z M8.247,15.705c0.515-0.21,0.957-0.505,1.326-0.883l0.512,0.928H8.087
		C8.138,15.732,8.198,15.725,8.247,15.705z M9.565,6.06c-0.354-0.369-0.79-0.662-1.31-0.877c-0.054-0.022-0.12-0.03-0.176-0.05h2
		L9.565,6.06z"/>
	<rect x="8.724" y="10.405" class="st0" width="1.889" height="0.116"/>
	<rect x="14.39" y="10.405" class="st0" width="1.888" height="0.116"/>
	<rect x="5.891" y="10.405" class="st0" width="1.888" height="0.116"/>
</g>
</svg>
