<?xml version="1.0" encoding="utf-8"?>
<!-- Generator: Adobe Illustrator 21.1.0, SVG Export Plug-In . SVG Version: 6.00 Build 0)  -->
<svg version="1.1" id="SpaFinder" xmlns="http://www.w3.org/2000/svg" xmlns:xlink="http://www.w3.org/1999/xlink" x="0px" y="0px"
	 viewBox="0 0 600 400" style="enable-background:new 0 0 600 400;" xml:space="preserve">
<style type="text/css">
	.st0{fill:#FFFFFF;}
</style>
<g>
	<g>
		<path class="st0" d="M373.4,128.3c1.9,0,3.3-1.4,3.2-3.4c0-1.8-1.6-3.4-3.3-3.4c-1.8,0-3.3,1.6-3.3,3.4
			C370,126.8,371.5,128.2,373.4,128.3z"/>
		<path class="st0" d="M393.5,113.3c2.3,0,4.3-2,4.2-4.4c0-2.4-2-4.6-4.4-4.6c-2.4,0-4.7,2.2-4.7,4.6
			C388.8,111.3,391,113.3,393.5,113.3z"/>
		<path class="st0" d="M358.2,147.7c1-0.1,1.7-0.6,1.7-1.6c0.1-1.1-0.6-1.8-1.6-2c-0.9-0.2-1.8,0.8-1.9,1.7
			C356.4,146.6,357.3,147.6,358.2,147.7z"/>
		<path class="st0" d="M217,155.7c1.5,0,2.9,0,4.4,0c1.5,0,3.1,0,4.6,0c0.8,0,1.2-0.3,1.2-1.1c0-2.7,0-5.4,0-8.1
			c0-0.8-0.3-1.2-1.2-1.2c-3.1,0-6.2,0-9.2,0c-0.8,0-1.2,0.2-1.2,1.1c0,2.7,0,5.4,0,8.1C215.6,155.5,216.2,155.7,217,155.7z"/>
		<path class="st0" d="M407.8,151.5c1.5,0,2.7-1,2.7-2.5c0.1-1.5-1.3-2.9-2.9-2.9c-1.6,0-2.8,1.3-2.8,2.8
			C405,150.4,406.1,151.5,407.8,151.5z"/>
		<path class="st0" d="M438.4,139.9c2.4,0,4.5-2.3,4.4-4.8c-0.1-2.5-2.1-4.5-4.7-4.5c-2.4,0-4.5,2.1-4.5,4.5
			C433.6,137.6,435.9,140,438.4,139.9z"/>
		<path class="st0" d="M418.4,103.3c3-0.1,5.5-2.7,5.4-5.8c-0.1-3.2-2.7-5.7-5.9-5.7c-3.1,0-5.6,2.6-5.5,5.7
			C412.4,100.8,415.2,103.4,418.4,103.3z"/>
		<path class="st0" d="M64.1,175.8c-2.7-1.3-5.5-2.4-8.3-3.6c-2.6-1.1-5.2-2.3-7.3-4.4c-3.2-3.1-3.4-7.5-0.5-10.9
			c1.4-1.6,3.1-2.7,5.1-3.3c5.2-1.5,10-0.3,14.6,2.2c1.3,0.7,2.5,1.7,3.9,2.5c1.2-2.2,2.3-4.2,3.5-6.2c0.6-1,0.4-1.6-0.5-2.2
			c-8.8-6.1-18.1-7.5-27.9-3c-6,2.7-9.4,7.6-9.9,14.3c-0.5,6.7,2.7,11.5,8.3,15c3.6,2.3,7.6,3.8,11.5,5.6c2.7,1.2,5.5,2.5,7.8,4.4
			c5.5,4.7,4.2,12.6-2.6,15.2c-2.9,1.1-5.9,1-8.9,0.5c-4.7-0.9-8.6-3.2-12.4-6.5c-1.5,2-2.7,3.9-4.2,5.6c-1,1.1-0.6,1.7,0.3,2.5
			c3.2,2.8,6.9,4.8,10.9,6c6.8,2,13.6,2.2,20.2-1.2c9.8-5,12.6-18,5.7-26.1C70.8,179.3,67.6,177.4,64.1,175.8z"/>
		<path class="st0" d="M283.5,207.9c0-9.1,0-18.2,0-27.4c0-2.8-0.2-5.6-1-8.3c-1.2-3.9-3.4-7.1-7.4-8.5c-7.4-2.6-14.3-1.9-20.4,3.3
			c-1.3,1.1-2.1,2.5-3.6,4.1c0-2.3-0.1-4.2,0-6.1c0-1.2-0.3-1.7-1.6-1.6c-2.6,0.1-5.1,0-7.7,0c-1.9,0-1.9,0-1.9,1.9
			c0,7.3,0,14.6,0,21.8c0,6.9,0,13.8,0,20.7c0,1.4,0.3,1.9,1.8,1.9c2.5-0.1,5,0,7.5,0c2.4,0,2.4,0,2.4-2.4c0-7.1-0.1-14.1,0.1-21.2
			c0.2-8,6.5-13.8,14-13.2c3.1,0.2,5,1.8,5.8,4.8c0.4,1.5,0.5,3,0.5,4.6c0,8.5,0,17.1,0,25.6c0,1.3,0.3,1.8,1.7,1.7
			c2.6-0.1,5.3,0,7.9,0C283.5,209.8,283.5,209.7,283.5,207.9z"/>
		<path class="st0" d="M247.2,221.6c-2.1,0-2.1,0-2.7,2.2c-2.1,8.2-4.1,16.3-6.3,24.8c-2.3-8.5-4.5-16.8-6.7-25.1
			c-0.4-1.5-0.9-2.1-2.5-2c-2.9,0.2-2.2-0.3-3,2.4c-0.3,1.1-0.6,2.3-0.9,3.4c-1.8,6.9-3.7,13.8-5.5,20.7c-0.9-2.3-1.5-4.6-2-6.9
			c-1.4-6-2.9-12-4.3-18c-0.2-0.7-0.2-1.5-1.2-1.5c-1.3,0.1-2.6-0.1-4,0.1c0.1,0.4,0.1,0.7,0.1,0.9c2.4,9.6,4.9,19.2,7.3,28.8
			c1,3.8,0.9,3.8,5,3.8c1.3,0,1.8-0.4,2.1-1.6c1.1-4.5,2.3-8.9,3.5-13.4c0.9-3.5,1.8-6.9,2.8-10.5c2,7.4,3.9,14.7,5.8,21.9
			c1,3.7,1,3.6,4.9,3.7c1.4,0,1.9-0.4,2.2-1.7c1.9-7.7,4-15.3,6-23c0.8-2.9,1.5-5.8,2.3-8.6C249,221.4,248.1,221.6,247.2,221.6z"/>
		<path class="st0" d="M285.8,251.1c-2.6-0.9-2.6-1-2.6-3.7c0-7.6,0-15.3,0-22.9c0-3.3,0.7-2.8-3.1-2.9c-1.4,0-1.8,0.4-1.7,1.7
			c0.1,4.3,0,8.5,0,12.8c0,3.9,0,7.8,0,11.7c0,1,0,1.9,0.2,2.9c0.5,2.8,2,4.3,4.8,4.7c3.1,0.5,3.9-0.5,3.2-3.5
			C286.4,251.4,286.2,251.2,285.8,251.1z"/>
		<path class="st0" d="M560.2,183.2c-3-1.3-6.8,0.5-8.3,3.5c-1.4,2.9-0.6,6.3,2.1,8.4c0.7,0.6,1.5,0.9,2.3,1.2
			c3.6,1.1,7.4-1,8.5-4.7C565.9,187.9,564.1,184,560.2,183.2z"/>
		<path class="st0" d="M215.7,174.8c0,8.8,0,17.7,0,26.5c0,2.4,0.1,4.7,0,7.1c0,1.2,0.4,1.5,1.5,1.5c2.9-0.1,5.9-0.1,8.8,0
			c1.1,0,1.4-0.4,1.4-1.4c-0.1-2.1,0-4.1,0-6.2c0-12.3,0-24.6,0-36.8c0-1.9,0-1.9-1.9-1.9c-4.1,0-8.2,0-12.4,0c-4.3,0-8.7,0-13,0
			c-1.9,0-1.9,0-1.8-1.8c0.2-3,1.8-5.1,4.6-6.1c1.7-0.6,3.5-0.7,5.2-0.6c0.9,0.1,1.3-0.2,1.3-1.2c-0.1-2.4-0.1-4.9,0-7.3
			c0-1.1-0.4-1.4-1.4-1.5c-2.4-0.3-4.8,0-7.3,0.3c-7.3,1-12.2,5.3-13.8,12.1c-0.4,1.6-0.5,3.2-0.5,4.8c0,1-0.3,1.2-1.3,1.3
			c-1.4,0.1-3.3-0.7-4.2,0.4c-0.9,1.1-0.2,3-0.3,4.5c0,0.1,0,0.3,0,0.4c0,3.8,0,3.9,3.9,3.9c1.5,0,1.9,0.4,1.9,1.9
			c-0.1,5.6,0,11.2,0,16.8c0,5.5,0,11,0,16.5c0,1.9,0,1.9,2,1.9c2.5,0,5,0,7.5,0c2.2,0,2.2,0,2.2-2.3c0-11,0-21.9,0-32.9
			c0-1.9,0-1.9,1.9-1.9c4.5,0,9,0,13.5,0C215.7,172.7,215.7,172.7,215.7,174.8z"/>
		<path class="st0" d="M494.1,248.2c0,1.8,1.5,3.3,3.2,3.2c1.7,0,3-1.4,3-3.1c0-1.8-1.4-3.2-3.1-3.2
			C495.4,245.1,494.1,246.6,494.1,248.2z"/>
		<path class="st0" d="M536.4,213.1c-3.2-0.8-5.8,0.1-7.1,2.6c-1.2,2.2-0.5,4.9,1.8,6.8c2,1.7,4.1,1.8,6.3,0.6c2-1,2.8-2.9,2.7-4.9
			C540.1,215.7,538.9,213.9,536.4,213.1z"/>
		<path class="st0" d="M520.4,125.6c4.1,0,7.3-3.1,7.2-7c0-3.7-3.2-6.9-6.8-6.9c-3.8,0-6.9,3.3-6.8,7.2
			C514.1,122.5,516.5,125.7,520.4,125.6z"/>
		<path class="st0" d="M532,178.8c2.1,0,3.8-1.7,3.8-3.7c0-2-1.9-3.7-3.9-3.7c-2,0-3.6,1.7-3.6,3.9C528.4,177.3,530,178.7,532,178.8
			z"/>
		<path class="st0" d="M513.9,223.9c2.7,0.1,4.7-1.8,4.7-4.4c0.1-2.5-2-4.5-4.6-4.6c-2.7,0-4.6,1.6-4.6,4.1
			C509.3,221.9,511.1,223.8,513.9,223.9z"/>
		<path class="st0" d="M539.1,145.7c3.9,0,7-3,7-6.9c0-3.7-3.1-6.8-6.9-6.8c-3.8,0-7,3.2-7,7C532.1,142.7,535.2,145.7,539.1,145.7z"
			/>
		<path class="st0" d="M551.9,169.9c3.9,0,7-3,7-6.7c0-3.6-3.2-7.2-6.7-6.9c-3.5-0.3-7.2,2.7-7.3,7.2
			C544.8,166.9,548.1,169.9,551.9,169.9z"/>
		<path class="st0" d="M514.8,190.6c2.6,0,4.4-1.9,4.4-4.5c0-2.7-1.8-4.7-4.4-4.7c-2.5-0.1-4.8,2.2-4.8,4.7
			C509.9,188.5,512.3,190.7,514.8,190.6z"/>
		<path class="st0" d="M536,192c-2.4-0.3-4.8,2.1-4.7,4.7c0,2.4,2.3,4.5,4.8,4.5c2.5,0,4.8-2.3,4.7-4.8
			C540.7,193.8,538.7,192,536,192z"/>
		<path class="st0" d="M503.8,156.4c0-2.6-1.9-4.5-4.4-4.6c-2.6,0-4.6,1.9-4.6,4.6c0,2.7,1.8,4.6,4.3,4.6
			C501.7,161,503.8,159,503.8,156.4z"/>
		<path class="st0" d="M299.9,251.1c-2.6-0.1-2.7-2-2.7-3.9c0-7.6,0-15.2,0-22.7c0-3.4,0.7-2.8-3.1-3c-1.3,0-1.8,0.3-1.8,1.7
			c0.1,4.3,0,8.5,0,12.8c0,4,0,7.9,0,11.9c0,1,0.1,2.1,0.3,3.1c0.7,2.6,2.1,3.8,4.7,4.2c3.7,0.5,3.1-0.2,3.1-3.3
			C300.5,251.5,300.3,251.2,299.9,251.1z"/>
		<path class="st0" d="M486.3,150.1c2.5,0.1,4.9-2.1,4.9-4.6c0-2.5-2-4.6-4.6-4.6c-2.6,0-4.5,1.9-4.5,4.6
			C482,148.1,483.7,149.9,486.3,150.1z"/>
		<path class="st0" d="M521,202.7c0-2.6-1.9-4.4-4.5-4.4c-2.6,0-4.8,2-4.8,4.4c-0.1,2.5,2.2,4.7,4.8,4.7
			C519.1,207.4,521,205.3,521,202.7z"/>
		<path class="st0" d="M471.6,133.3c-2.6-0.1-4.5,1.9-4.5,4.6c0,2.6,1.8,4.6,4.2,4.7c2.6,0.1,4.7-2.1,4.7-4.7
			C476,135.4,474.1,133.4,471.6,133.3z"/>
		<path class="st0" d="M478.1,224.7C478.1,224.7,478.1,224.7,478.1,224.7c-0.7,0-1.3,0-2,0c-0.3,0-0.6,0.2-0.5,0.5
			c0,0.2,0.2,0.5,0.3,0.5c1.8,0,1.3,1.3,1.4,2.3c0,0.5,0,1,0,1.5c0,0.5,0.2,0.8,0.8,0.8c0.5,0,0.5-0.4,0.5-0.8c0-0.9,0-1.8,0-2.6
			c0-0.5-0.1-1.1,0.7-1.1c0.5,0,1.2,0,1-0.8c-0.2-0.7-0.8-0.3-1.3-0.4C478.7,224.7,478.4,224.7,478.1,224.7z"/>
		<path class="st0" d="M498.1,110.8c3.6-0.2,6.8-3.5,6.7-7.2c-0.1-3.9-3.1-6.8-6.9-6.7c-3.9,0.1-6.9,3.3-6.8,7.2
			C491.2,107.9,494.4,111,498.1,110.8z"/>
		<path class="st0" d="M525.7,155.4c0-1.6-1.2-2.7-2.8-2.7c-1.6,0-2.8,1.2-2.8,2.8c0,1.4,1.2,2.6,2.7,2.6
			C524.4,158.1,525.7,156.9,525.7,155.4z"/>
		<path class="st0" d="M509,174.8c2.6-0.1,4.5-2.1,4.4-4.7c-0.1-2.6-1.8-4.2-4.5-4.1c-2.9,0.1-4.7,1.8-4.7,4.5
			C504.2,172.9,506.4,174.9,509,174.8z"/>
		<path class="st0" d="M472,102c3.8,0,7-3.4,7-7.2c0-3.8-3.2-6.8-7.1-6.8c-3.6,0.1-6.5,3.2-6.5,6.9C465.3,98.6,468.5,102,472,102z"
			/>
		<path class="st0" d="M472,302.7c-2.1-1.7-4.5-1.7-6.8-0.4c-2.8,1.5-3.7,4-3.5,7c0.2,2.7,1.4,4.5,4,5.4c3,1.1,6.2,0.4,8-1.7
			c1.9-2.3,2.1-5.3,0.5-8C473.8,303.9,472.7,303.5,472,302.7z"/>
		<path class="st0" d="M486.4,258.7c0-1.2-1.2-2.3-2.5-2.3c-1.4,0-2.2,0.7-2.2,2.1c0,1.5,0.8,2.4,2.2,2.4
			C485.2,261,486.4,259.9,486.4,258.7z"/>
		<path class="st0" d="M480.6,276.7c-3.1,0-5.5,2.5-5.5,5.6c0,3.2,2.6,5.8,5.7,5.8c2.9,0,5.7-2.9,5.6-5.7
			C486.4,279.3,483.7,276.7,480.6,276.7z"/>
		<path class="st0" d="M487.1,225.8c0-0.5,0.1-1.1-0.7-1.1c-0.6,0-1.1,0-1.4,0.8c-0.3,0.8-0.3,1.7-1,2.3c-0.7-0.7-0.7-1.7-1.1-2.5
			c-0.3-0.6-0.8-0.6-1.3-0.6c-0.4,0-0.8,0.1-0.8,0.6c-0.1,1.5-0.2,3.1-0.3,4.6c0,0.3,0.2,0.5,0.6,0.5c0.3,0,0.6-0.1,0.6-0.4
			c0.1-0.7,0-1.5,0.4-2.1c0.6,0.4,0.6,1,0.8,1.5c0.2,0.5,0.3,1,0.9,1c0.7,0,0.8-0.5,1-1c0.4-0.8,0.3-1.7,1.1-2.4
			c0,0.8,0.1,1.5,0.1,2.2c0,0.5-0.1,1.1,0.6,1.2c0.9,0.1,0.6-0.6,0.6-1.1C487.3,228.1,487.2,227,487.1,225.8z"/>
		<path class="st0" d="M498.1,294.8c-3.1-2.5-7.2-0.9-9.1,1.5c-2,2.6-1.7,8.2,1.9,10c3.4,2.2,7.3,1.3,9.5-2
			C502.5,300.9,501.5,296.9,498.1,294.8z"/>
		<path class="st0" d="M459.6,134.4c0-2.5-2-4.5-4.4-4.6c-2.6,0-4.7,2-4.6,4.6c0.1,2.7,1.9,4.7,4.5,4.7
			C457.5,139.1,459.6,136.9,459.6,134.4z"/>
		<path class="st0" d="M465.2,287.8c0.1-3-2.9-6-5.9-6c-2.8,0-5.4,2.9-5.5,5.9c-0.1,3.1,2.4,5.5,5.6,5.5
			C462.7,293.2,465.2,290.9,465.2,287.8z"/>
		<path class="st0" d="M462.7,255.6c4.9-0.5,8.7-4.4,9.1-9.3c0.4-4.9-2.6-9.1-7.4-10.4c-2.3-0.6-4.6-0.4-7,0.3
			c0.2-2,0.4-3.7,0.6-5.5c0.3-2.1,0.3-2.1,2.3-2.1c2.7,0,5.4,0,8.2,0c1,0,1.4-0.3,1.2-1.3c-0.1-0.5,0-1,0-1.5
			c0.1-0.9-0.3-1.2-1.2-1.2c-4.3,0-8.7,0-13,0c-0.8,0-1.2,0.2-1.3,1.1c-0.4,4.2-0.8,8.5-1.3,12.7c-0.1,1.1,0.2,1.6,1.2,1.9
			c0.8,0.3,1.5,0.2,2.3-0.2c1.3-0.6,2.6-0.9,4-0.9c3.2,0,6,2.1,6.5,4.8c0.8,4.4-2.9,8.1-7.5,7.3c-2.2-0.4-3.9-1.6-5.6-3.1
			c-0.5,0.6-0.9,1.1-1.3,1.6c-1.2,1.5-1.2,1.6,0.3,2.8C455.8,255.2,459.1,256,462.7,255.6z"/>
		<path class="st0" d="M533.3,238.7c0-3.1-2.4-5.3-5.8-5.2c-3.2,0-5.6,2.4-5.6,5.3c0,3,2.8,5.8,5.8,5.8
			C530.8,244.5,533.4,241.9,533.3,238.7z"/>
		<path class="st0" d="M445.3,86.1c-4.3-0.3-7.3,3.2-7.2,6.6c0,3.9,2.9,7.1,6.6,7.1c3.9,0.1,6.9-2.9,7-6.9
			C451.9,89.1,448.5,85.7,445.3,86.1z"/>
		<path class="st0" d="M328.2,252.1c0.1-0.7,0-1.3,0-2c-0.1-4.2,0.2-8.4-0.1-12.6c-0.3-3.8-2.3-6.2-5.7-6.9
			c-4.5-0.8-8.3,0.4-11.4,4.6c0-0.8-0.1-1.1-0.1-1.4c-0.1-3.1-0.1-3.1-3.3-3c-1,0-1.4,0.3-1.4,1.4c0,7.2,0,14.4,0,21.6
			c0,0.4-0.1,1.1,0.4,1.1c1.3,0.1,2.6,0.1,3.9,0.1c0.5,0,0.5-0.5,0.5-0.9c0-0.7,0-1.5,0-2.2c0.1-3.5-0.3-7.1,0.3-10.6
			c0.6-3.9,4-6.8,7.8-6.7c2.4,0.1,3.8,1.2,4.2,3.7c0.1,0.9,0.1,1.8,0.1,2.6c0,4.2,0,8.4,0,12.6c0,0.6-0.3,1.5,0.8,1.5
			c1.2,0,2.7,0.3,3.7-0.2C328.7,254.5,328.1,253.1,328.2,252.1z"/>
		<path class="st0" d="M550.5,236.3c-3.7,0-7,3-7,6.5c-0.1,3.8,3.2,7.3,7,7.3c3.7,0.1,7.1-3.3,7-7
			C557.5,239.5,554.3,236.3,550.5,236.3z"/>
		<path class="st0" d="M557.9,210.1c-4-0.1-7.5,3.4-7,6.6c0,3.9,3.1,7.1,6.9,7.1c3.9,0.1,6.8-2.9,6.9-6.8
			C564.6,213,561.8,210.1,557.9,210.1z"/>
		<path class="st0" d="M507.2,231c-2,0.1-3.8,1.9-3.8,3.9c0,2.1,2,4,4,3.9c2.1,0,3.9-1.9,3.8-4C511.2,232.7,509.3,230.9,507.2,231z"
			/>
		<path class="st0" d="M517.7,279.5c-3.8,0-6.8,3-6.7,6.7c0,4,3,7,6.9,7c4,0,7-2.9,6.9-6.7C524.8,282.7,521.6,279.5,517.7,279.5z"/>
		<path class="st0" d="M499.5,266.3c-3,0.1-5.3,2.6-5.3,5.6c0.1,3.3,2.6,5.8,5.7,5.7c3.1-0.1,5.6-2.6,5.5-5.6
			C505.5,268.9,502.7,266.3,499.5,266.3z"/>
		<path class="st0" d="M515.8,262.7c3.4,0,5.5-2.1,5.6-5.4c0-3.2-2.4-5.6-5.7-5.7c-3.1,0-5.4,2.2-5.4,5.4
			C510.3,260.4,512.5,262.7,515.8,262.7z"/>
		<path class="st0" d="M536.8,260c-4,0-6.6,2.6-6.6,6.6c0,4,2.9,7,6.8,7.1c3.9,0,6.8-2.9,6.9-6.8C543.9,263.1,540.7,260,536.8,260z"
			/>
		<path class="st0" d="M371.8,242.9c-2-1.2-4.3-1.9-6.4-2.9c-1.8-0.8-2.4-1.9-2.2-3.1c0.3-1.3,1.3-2.1,3.1-2.3
			c0.6-0.1,1.2,0,1.8,0.1c1.8,0.2,3.3,1,4.9,2c0.5-0.8,0.8-1.6,1.3-2.4c0.6-0.9,0.4-1.4-0.4-2c-3.2-2.3-9.4-2.5-12.8-0.3
			c-3.7,2.5-3.9,7.6-0.4,10.3c1.6,1.2,3.4,2,5.3,2.7c1.2,0.5,2.5,1,3.5,1.8c1.4,1.2,1.4,2.8,0,3.9c-1.2,1-2.7,1-4.2,0.8
			c-2.1-0.3-3.8-1.4-5.5-2.6c-0.7,0.4-0.9,1.1-1.3,1.6c-1.2,1.7-1.2,1.8,0.6,3c3.1,2.1,6.6,2.5,10.1,1.9c4-0.7,6.3-3.6,6.1-7.4
			C375.2,245.6,373.8,244,371.8,242.9z"/>
		<path class="st0" d="M390,288.3c-1.9,0.1-3.4,1.7-3.3,3.6c0,1.9,1.5,3.4,3.3,3.4c2,0,3.4-1.5,3.4-3.5
			C393.4,289.8,391.9,288.2,390,288.3z"/>
		<path class="st0" d="M391.3,242.7c-2-1-4-1.7-6-2.7c-1.2-0.6-2.4-1.3-2.3-2.9c0.1-1.4,1.2-2.3,3.2-2.5c0.6-0.1,1.2,0,1.7,0
			c1.8,0.2,3.4,0.9,4.8,1.9c0.8-0.7,0.9-1.6,1.4-2.3c0.6-0.8,0.4-1.4-0.4-2c-3.2-2.4-9.5-2.5-12.8-0.3c-3.7,2.5-3.9,7.6-0.4,10.3
			c1.6,1.2,3.4,2,5.3,2.7c1.2,0.5,2.3,0.9,3.3,1.7c1.8,1.3,1.6,3.4-0.4,4.4c-1.1,0.6-2.4,0.7-3.7,0.5c-1.7-0.3-3.3-0.9-4.6-2
			c-0.8-0.6-1.3-0.5-1.7,0.3c-0.2,0.4-0.4,0.8-0.7,1.1c-1,1.1-0.5,1.7,0.5,2.4c3.2,2.2,6.8,2.8,10.5,2.1c3.9-0.7,6.1-3.4,6.1-7
			C395.3,245.6,393.6,243.9,391.3,242.7z"/>
		<path class="st0" d="M369.4,272.3c-1.2,0-1.7,0.7-1.6,1.8c0,1.2,0.7,1.8,1.8,1.7c1.1,0,1.8-0.8,1.7-1.9
			C371.2,272.9,370.5,272.3,369.4,272.3z"/>
		<path class="st0" d="M398,268.9c-1.1-0.1-2.3,0.9-2.4,2.1c-0.1,1.3,0.8,2.3,2,2.4c1.2,0.1,2.3-0.9,2.4-2.1
			C400,270.2,399,269,398,268.9z"/>
		<path class="st0" d="M443.7,303.3c-3.5-1.3-6.8-0.1-8.5,3.1c-1.3,2.5-1.2,7.1,2.3,8.8c2.3,1.8,4.8,1.7,7.2,0.4
			c2.5-1.3,3.7-3.6,3.4-6.4C447.8,306.5,446.6,304.2,443.7,303.3z"/>
		<path class="st0" d="M414.8,298.4c-3.2,0-5.7,2.5-5.7,5.7c0,3.1,2.4,5.4,5.7,5.4c3.1-0.1,5.3-2.4,5.2-5.6
			C419.9,300.8,417.6,298.4,414.8,298.4z"/>
		<path class="st0" d="M422.1,136.4c-2.1,0-3.6,1.6-3.6,3.6c0,2,1.7,3.8,3.7,3.8c2,0,3.5-1.5,3.5-3.7
			C425.7,137.9,424.2,136.4,422.1,136.4z"/>
		<path class="st0" d="M435.2,291c2.3,1.5,5,1.1,6.3-1c1.5-2.4,0.8-5-1.8-6.5c-2.7-1-4.6-0.4-5.8,1.8
			C432.7,287.3,433.3,289.5,435.2,291z"/>
		<path class="st0" d="M416.9,278.2c-2.1-0.1-3.7,1.4-3.8,3.6c0,2.2,1.3,3.6,3.5,3.6c2,0,3.6-1.5,3.6-3.6
			C420.3,279.8,418.8,278.2,416.9,278.2z"/>
		<path class="st0" d="M425.5,164.4c0-1.2-0.4-1.5-1.5-1.6c-3.4-0.1-6.5,0.8-9.3,2.9c-2.5,1.9-4.2,4.4-5.6,7.2
			c-0.1,0-0.3-0.1-0.4-0.1c0-1.3,0-2.6,0-4c0-1.3-0.1-2.7,0-4c0.1-1.1-0.3-1.6-1.5-1.5c-1.6,0.1-3.2,0-4.9,0c-1.5,0-3.5-0.7-4.5,0.3
			c-1.1,1-0.4,3.1-0.4,4.6c0,13.2,0,26.3,0,39.5c0,1.9,0,1.9,1.9,1.9c2.5,0,5,0,7.5,0c2.3,0,2.2,0,2.3-2.3c0.1-6.3-0.2-12.6,0.1-19
			c0.3-7.1,4.4-12.4,10.5-13.9c1.4-0.4,2.8-0.3,4.2-0.2c1.1,0.1,1.6-0.1,1.6-1.4C425.4,170.1,425.4,167.2,425.5,164.4z"/>
		<path class="st0" d="M416.8,237.5c-0.6-0.2-1.2-0.4-1.9-0.6c0.9-1,1.7-1.9,2.4-2.8c1.7-1.9,3.4-3.9,5.1-5.8c0.8-0.9,0.7-2,0.4-2.9
			c-0.3-0.9-1.3-0.5-1.9-0.5c-4.9,0-9.9,0-14.8-0.1c-1.7,0-1.5,1-1.5,2c0,1-0.3,2.1,1.4,2c3.5-0.1,7.1,0,11,0
			c-2.6,3.1-4.9,5.8-7.3,8.5c-0.7,0.8-0.7,1.4-0.4,2.4c0.4,0.9,1,1.1,1.9,1.1c1.6-0.1,3.2,0.1,4.7,0.9c2.5,1.2,3.6,3.8,2.7,6.2
			c-0.9,2.6-3.9,4.2-6.8,3.8c-2-0.3-3.8-1.1-5.4-2.4c-0.8-0.7-1.4-0.7-1.9,0.3c-0.2,0.4-0.6,0.9-0.9,1.3c-0.7,0.8-0.4,1.3,0.3,1.8
			c3.7,2.9,7.8,4,12.4,2.7c4.2-1.2,6.9-4.9,6.9-9.2C423.5,241.8,421.2,238.9,416.8,237.5z"/>
		<path class="st0" d="M337.3,207.4c0-19.9,0-39.9,0-59.8c0-0.3,0-0.6,0-0.9c0.1-1.1-0.2-1.6-1.4-1.5c-2.4,0.1-4.9,0-7.3,0
			c-2.8,0-2.8,0-2.8,2.8c0,6.5,0,13,0,19.9c-1.7-1.9-3.4-3.3-5.5-4.1c-8-3.2-19.7-1.7-25.5,8.5c-3.2,5.6-3.9,11.7-3.3,17.9
			c0.5,5.1,2.1,9.9,5.4,14c6.7,8.3,21.5,9.3,28.3,0.6c0.2-0.3,0.4-0.8,1-0.6c0,0.1,0,0.1,0,0.2c0,1.1,0,2.2,0,3.3c0,2.1,0,2.1,2,2.1
			c2.2,0,4.4,0,6.6,0C337.7,209.7,337.3,210,337.3,207.4z M324.2,195.2c-1.9,3.9-5.2,5.7-9.4,5.8c-4.2,0.1-7.3-1.9-9.4-5.4
			c-1.6-2.7-2.2-5.7-2.1-8.9c0-2.7,0.3-5.3,1.5-7.7c2-4.1,5.3-6.5,9.9-6.6c4.4-0.1,7.8,2.1,9.7,6.1
			C326.9,184,326.8,189.7,324.2,195.2z"/>
	</g>
	<path class="st0" d="M186.5,191.3c0-5.6,0-11.2,0-16.8c0-1.4-0.4-1.9-1.9-1.9c-3.9,0-3.9,0-3.9-3.9c0-0.1,0-0.3,0-0.4
		c0.1-1.5-0.6-3.4,0.3-4.5c0.9-1.1,2.8-0.3,4.2-0.4c0.9,0,1.3-0.3,1.3-1.3c0-1.6,0.1-3.2,0.5-4.8c1.5-6.8,6.4-11.1,13.8-12.1
		c2.4-0.3,4.8-0.5,7.3-0.3c1,0.1,1.4,0.5,1.4,1.5c-0.1,2.4-0.1,4.9,0,7.3c0,1-0.4,1.2-1.3,1.2c-1.8-0.1-3.5,0-5.2,0.6
		c-2.9,1-4.4,3-4.6,6.1c-0.1,1.8-0.1,1.8,1.8,1.8c4.3,0,8.7,0,13,0c4.1,0,8.2,0,12.4,0c1.9,0,1.9,0,1.9,1.9c0,12.3,0,24.6,0,36.8
		c0,2.1,0,4.1,0,6.2c0,1-0.3,1.4-1.4,1.4c-2.9-0.1-5.9-0.1-8.8,0c-1.1,0-1.6-0.3-1.5-1.5c0.1-2.4,0-4.7,0-7.1c0-8.8,0-17.7,0-26.5
		c0-2,0-2.1-2-2.1c-4.5,0-9,0-13.5,0c-1.9,0-1.9,0-1.9,1.9c0,11,0,21.9,0,32.9c0,2.3,0,2.3-2.2,2.3c-2.5,0-5,0-7.5,0
		c-1.9,0-1.9,0-2-1.9C186.5,202.3,186.5,196.8,186.5,191.3z"/>
	<path class="st0" d="M251.1,171.1c1.5-1.5,2.3-3,3.6-4.1c6.1-5.3,13.1-5.9,20.4-3.3c4,1.4,6.2,4.6,7.4,8.5c0.8,2.7,1,5.5,1,8.3
		c0,9.1,0,18.2,0,27.4c0,1.9,0,1.9-1.9,1.9c-2.6,0-5.3-0.1-7.9,0c-1.4,0.1-1.7-0.4-1.7-1.7c0.1-8.5,0-17.1,0-25.6
		c0-1.6-0.1-3.1-0.5-4.6c-0.7-3-2.7-4.6-5.8-4.8c-7.5-0.6-13.8,5.1-14,13.2c-0.2,7.1-0.1,14.1-0.1,21.2c0,2.4,0,2.4-2.4,2.4
		c-2.5,0-5-0.1-7.5,0c-1.5,0.1-1.8-0.5-1.8-1.9c0.1-6.9,0-13.8,0-20.7c0-7.3,0-14.6,0-21.8c0-1.9,0-1.9,1.9-1.9c2.6,0,5.2,0.1,7.7,0
		c1.3,0,1.7,0.4,1.6,1.6C251,166.9,251.1,168.8,251.1,171.1z"/>
	<path class="st0" d="M40.5,195.5c3.7,3.3,7.7,5.6,12.4,6.5c3,0.6,6,0.7,8.9-0.5c6.8-2.6,8.2-10.5,2.6-15.2c-2.3-2-5.1-3.2-7.8-4.4
		c-3.9-1.7-7.8-3.3-11.5-5.6c-5.5-3.5-8.8-8.2-8.3-15c0.5-6.7,4-11.6,9.9-14.3c9.8-4.5,19.1-3,27.9,3c0.9,0.6,1.1,1.2,0.5,2.2
		c-1.2,2-2.3,4.1-3.5,6.2c-1.4-0.9-2.6-1.8-3.9-2.5c-4.6-2.6-9.4-3.7-14.6-2.2c-2,0.6-3.7,1.7-5.1,3.3c-2.9,3.4-2.7,7.8,0.5,10.9
		c2.1,2,4.7,3.2,7.3,4.4c2.8,1.2,5.5,2.3,8.3,3.6c3.4,1.6,6.7,3.5,9.2,6.4c6.9,8.1,4.1,21.1-5.7,26.1c-6.5,3.4-13.3,3.1-20.2,1.2
		c-4.1-1.2-7.7-3.2-10.9-6c-0.9-0.8-1.3-1.4-0.3-2.5C37.7,199.4,39,197.5,40.5,195.5z"/>
	<path class="st0" d="M409.1,172.9c1.3-2.8,3.1-5.3,5.6-7.2c2.8-2.1,5.8-3,9.3-2.9c1.1,0,1.5,0.4,1.5,1.6c-0.1,2.9-0.1,5.7,0,8.6
		c0,1.3-0.5,1.4-1.6,1.4c-1.4-0.1-2.8-0.1-4.2,0.2c-6.1,1.6-10.1,6.9-10.5,13.9c-0.3,6.3-0.1,12.6-0.1,19c0,2.3,0,2.3-2.3,2.3
		c-2.5,0-5,0-7.5,0c-1.9,0-1.9,0-1.9-1.9c0-13.2,0-26.3,0-39.5c0-1.6-0.7-3.6,0.4-4.6c1-0.9,3-0.2,4.5-0.3c1.6,0,3.2,0.1,4.9,0
		c1.2-0.1,1.6,0.4,1.5,1.5c-0.1,1.3,0,2.6,0,4c0,1.3,0,2.6,0,4C408.8,172.9,409,172.9,409.1,172.9z"/>
	<path class="st0" d="M238.3,248.5c2.1-8.5,4.2-16.7,6.3-24.8c0.5-2.2,0.5-2.2,2.7-2.2c0.9,0,1.8-0.2,2.8,0.3
		c-0.8,2.9-1.5,5.8-2.3,8.6c-2,7.7-4,15.3-6,23c-0.3,1.3-0.8,1.8-2.2,1.7c-3.8,0-3.9,0-4.9-3.7c-1.9-7.2-3.8-14.5-5.8-21.9
		c-1,3.6-1.9,7.1-2.8,10.5c-1.2,4.5-2.4,8.9-3.5,13.4c-0.3,1.2-0.8,1.6-2.1,1.6c-4,0-4,0-5-3.8c-2.4-9.6-4.9-19.2-7.3-28.8
		c-0.1-0.3-0.1-0.5-0.1-0.9c1.4-0.3,2.7-0.1,4-0.1c1.1,0,1.1,0.8,1.2,1.5c1.4,6,2.9,12,4.3,18c0.6,2.3,1.1,4.6,2,6.9
		c1.8-6.9,3.7-13.8,5.5-20.7c0.3-1.1,0.6-2.3,0.9-3.4c0.8-2.7,0.1-2.2,3-2.4c1.6-0.1,2.1,0.5,2.5,2C233.8,231.8,236,240,238.3,248.5
		z"/>
	<path class="st0" d="M310.9,235.3c3.1-4.2,6.9-5.5,11.4-4.6c3.4,0.6,5.4,3.1,5.7,6.9c0.4,4.2,0.1,8.4,0.1,12.6c0,0.7,0.1,1.3,0,2
		c-0.1,1,0.5,2.5-0.3,2.9c-1,0.5-2.4,0.2-3.7,0.2c-1,0-0.8-0.9-0.8-1.5c0-4.2,0-8.4,0-12.6c0-0.9,0-1.8-0.1-2.6
		c-0.4-2.4-1.7-3.6-4.2-3.7c-3.9-0.1-7.2,2.7-7.8,6.7c-0.5,3.5-0.2,7-0.3,10.6c0,0.7,0,1.5,0,2.2c0,0.4,0,0.8-0.5,0.9
		c-1.3,0-2.6,0.1-3.9-0.1c-0.5,0-0.4-0.7-0.4-1.1c0-7.2,0-14.4,0-21.6c0-1.1,0.4-1.4,1.4-1.4c3.3-0.1,3.3-0.2,3.3,3
		C310.9,234.2,310.9,234.4,310.9,235.3z"/>
	<path class="st0" d="M454.1,248.4c1.6,1.5,3.4,2.7,5.6,3.1c4.5,0.8,8.3-2.9,7.5-7.3c-0.5-2.8-3.3-4.8-6.5-4.8c-1.4,0-2.8,0.3-4,0.9
		c-0.8,0.4-1.5,0.4-2.3,0.2c-1-0.3-1.4-0.9-1.2-1.9c0.5-4.2,0.9-8.5,1.3-12.7c0.1-0.9,0.5-1.1,1.3-1.1c4.3,0,8.7,0,13,0
		c0.9,0,1.2,0.3,1.2,1.2c0,0.5-0.1,1,0,1.5c0.1,1-0.3,1.3-1.2,1.3c-2.7-0.1-5.4,0-8.2,0c-2,0-2.1,0-2.3,2.1
		c-0.2,1.7-0.4,3.5-0.6,5.5c2.4-0.8,4.7-0.9,7-0.3c4.8,1.2,7.8,5.4,7.4,10.4c-0.4,4.9-4.2,8.8-9.1,9.3c-3.6,0.4-6.9-0.4-9.7-2.8
		c-1.4-1.2-1.4-1.3-0.3-2.8C453.2,249.5,453.6,249,454.1,248.4z"/>
	<path class="st0" d="M417.1,228.7c-4,0-7.5-0.1-11,0c-1.7,0.1-1.4-1-1.4-2c0-1-0.2-2,1.5-2c4.9,0.1,9.9,0,14.8,0.1
		c0.7,0,1.7-0.4,1.9,0.5c0.3,0.9,0.4,2-0.4,2.9c-1.7,1.9-3.4,3.9-5.1,5.8c-0.8,0.9-1.5,1.8-2.4,2.8c0.7,0.2,1.3,0.4,1.9,0.6
		c4.4,1.4,6.6,4.3,6.6,8.5c0,4.3-2.7,8-6.9,9.2c-4.6,1.3-8.7,0.1-12.4-2.7c-0.7-0.5-1-1.1-0.3-1.8c0.3-0.4,0.7-0.8,0.9-1.3
		c0.5-0.9,1.1-1,1.9-0.3c1.5,1.3,3.3,2.1,5.4,2.4c2.9,0.5,5.9-1.2,6.8-3.8c0.9-2.5-0.3-5-2.7-6.2c-1.5-0.7-3.1-1-4.7-0.9
		c-0.9,0.1-1.5-0.1-1.9-1.1c-0.4-0.9-0.3-1.6,0.4-2.4C412.2,234.5,414.5,231.7,417.1,228.7z"/>
	<path class="st0" d="M392.7,236.5c-1.4-1-3-1.7-4.8-1.9c-0.6-0.1-1.2-0.1-1.7,0c-2,0.3-3,1.1-3.2,2.5c-0.1,1.6,1.1,2.3,2.3,2.9
		c2,0.9,4.1,1.7,6,2.7c2.4,1.2,4,2.9,4,5.8c0,3.6-2.2,6.3-6.1,7c-3.7,0.7-7.3,0.1-10.5-2.1c-1-0.7-1.5-1.4-0.5-2.4
		c0.3-0.3,0.5-0.7,0.7-1.1c0.5-0.8,0.9-0.9,1.7-0.3c1.3,1.1,2.9,1.7,4.6,2c1.3,0.2,2.5,0.1,3.7-0.5c2-1,2.1-3.1,0.4-4.4
		c-1-0.8-2.2-1.2-3.3-1.7c-1.8-0.7-3.7-1.5-5.3-2.7c-3.5-2.7-3.3-7.8,0.4-10.3c3.3-2.2,9.5-2.1,12.8,0.3c0.8,0.6,1,1.2,0.4,2
		C393.6,235,393.4,235.9,392.7,236.5z"/>
	<path class="st0" d="M359.8,248.9c1.6,1.2,3.4,2.2,5.5,2.6c1.5,0.2,2.9,0.2,4.2-0.8c1.5-1.2,1.5-2.7,0-3.9c-1-0.8-2.3-1.3-3.5-1.8
		c-1.8-0.7-3.7-1.5-5.3-2.7c-3.5-2.7-3.3-7.8,0.4-10.3c3.3-2.2,9.5-2.1,12.8,0.3c0.8,0.6,1,1.1,0.4,2c-0.5,0.7-0.9,1.5-1.3,2.4
		c-1.6-1-3.1-1.8-4.9-2c-0.6-0.1-1.2-0.1-1.8-0.1c-1.8,0.2-2.9,1.1-3.1,2.3c-0.3,1.3,0.4,2.3,2.2,3.1c2.1,1,4.4,1.7,6.4,2.9
		c2,1.2,3.4,2.7,3.6,5.2c0.2,3.8-2.1,6.7-6.1,7.4c-3.6,0.6-7,0.1-10.1-1.9c-1.8-1.2-1.9-1.3-0.6-3
		C358.9,250,359.1,249.4,359.8,248.9z"/>
	<path class="st0" d="M278.3,236c0-4.3,0.1-8.5,0-12.8c0-1.4,0.4-1.8,1.7-1.7c3.8,0.1,3.1-0.4,3.1,2.9c0,7.6,0,15.3,0,22.9
		c0,2.7,0.1,2.8,2.6,3.7c0.4,0.1,0.6,0.3,0.7,0.7c0.8,3-0.1,3.9-3.2,3.5c-2.8-0.4-4.3-1.9-4.8-4.7c-0.2-0.9-0.2-1.9-0.2-2.9
		C278.4,243.8,278.3,239.9,278.3,236z"/>
	<path class="st0" d="M292.4,236c0-4.3,0.1-8.5,0-12.8c0-1.4,0.4-1.8,1.8-1.7c3.8,0.1,3-0.4,3.1,3c0,7.6,0,15.2,0,22.7
		c0,1.9,0.1,3.8,2.7,3.9c0.4,0,0.6,0.3,0.6,0.7c0,3.1,0.6,3.9-3.1,3.3c-2.6-0.4-4.1-1.7-4.7-4.2c-0.3-1-0.3-2-0.3-3.1
		C292.4,244,292.4,240,292.4,236z"/>
	<path class="st0" d="M550.5,236.3c3.8,0,7,3.1,7,6.8c0,3.7-3.3,7.1-7,7c-3.8-0.1-7.1-3.5-7-7.3
		C543.6,239.3,546.8,236.3,550.5,236.3z"/>
	<path class="st0" d="M552.2,156.2c3.5-0.2,6.7,3.3,6.7,6.9c0,3.7-3.1,6.7-7,6.7c-3.7,0-7.1-3-7-6.5
		C545,158.9,548.6,155.9,552.2,156.2z"/>
	<path class="st0" d="M517.9,293.2c-3.9,0-6.9-3-6.9-7c0-3.7,3-6.7,6.7-6.7c3.9,0,7.1,3.2,7.1,7
		C524.9,290.2,521.9,293.2,517.9,293.2z"/>
	<path class="st0" d="M550.9,216.7c-0.4-3.2,3-6.7,7-6.6c3.9,0.1,6.7,2.9,6.7,6.9c0,3.9-3,6.9-6.9,6.8
		C554,223.7,550.9,220.5,550.9,216.7z"/>
	<path class="st0" d="M539.1,145.7c-3.9,0-7-3-6.9-6.7c0.1-3.8,3.3-7,7-7c3.8,0,6.9,3.1,6.9,6.8
		C546.1,142.7,543.1,145.7,539.1,145.7z"/>
	<path class="st0" d="M530.1,266.6c0-4,2.6-6.6,6.6-6.6c4,0,7.1,3.1,7.1,6.9c-0.1,3.9-3,6.8-6.9,6.8
		C533,273.7,530.1,270.7,530.1,266.6z"/>
	<path class="st0" d="M479,94.7c0,3.9-3.2,7.3-7,7.2c-3.5,0-6.7-3.4-6.7-7.1c0-3.7,2.9-6.9,6.5-6.9C475.8,87.9,479,90.9,479,94.7z"
		/>
	<path class="st0" d="M504.9,103.6c0.1,3.6-3.1,7-6.7,7.2c-3.7,0.2-6.9-2.9-7-6.7c-0.1-3.9,2.9-7.1,6.8-7.2
		C501.7,96.8,504.8,99.7,504.9,103.6z"/>
	<path class="st0" d="M527.6,118.7c0,3.9-3.2,6.9-7.2,7c-3.9,0-6.3-3.1-6.4-6.7c-0.1-3.9,3.1-7.1,6.8-7.2
		C524.4,111.8,527.6,115,527.6,118.7z"/>
	<path class="st0" d="M445.3,86.1c3.2-0.4,6.6,3,6.4,6.9c-0.2,4-3.1,6.9-7,6.9c-3.7-0.1-6.5-3.2-6.6-7.1
		C438.1,89.3,441,85.7,445.3,86.1z"/>
	<path class="st0" d="M221.4,155.7c-1.5,0-2.9,0-4.4,0c-0.9,0-1.4-0.2-1.4-1.2c0-2.7,0-5.4,0-8.1c0-0.9,0.4-1.1,1.2-1.1
		c3.1,0,6.2,0,9.2,0c0.9,0,1.2,0.3,1.2,1.2c0,2.7,0,5.4,0,8.1c0,0.9-0.4,1.2-1.2,1.1C224.5,155.7,223,155.7,221.4,155.7z"/>
	<path class="st0" d="M417.9,91.8c3.2,0,5.8,2.5,5.9,5.7c0.1,3.1-2.4,5.7-5.4,5.8c-3.2,0.1-5.9-2.6-6-5.8
		C412.4,94.4,414.8,91.9,417.9,91.8z"/>
	<path class="st0" d="M475.1,282.4c0-3.1,2.4-5.6,5.5-5.6c3.1,0,5.8,2.6,5.8,5.7c0,2.8-2.8,5.7-5.6,5.7
		C477.7,288.2,475.1,285.5,475.1,282.4z"/>
	<path class="st0" d="M505.5,272c0,3-2.5,5.5-5.5,5.6c-3.2,0.1-5.6-2.4-5.7-5.7c-0.1-3,2.3-5.6,5.3-5.6
		C502.7,266.3,505.5,268.9,505.5,272z"/>
	<path class="st0" d="M459.5,293.2c-3.2,0-5.6-2.4-5.6-5.5c0.1-3,2.7-5.9,5.5-5.9c3,0,5.9,3,5.9,6
		C465.2,290.9,462.7,293.2,459.5,293.2z"/>
	<path class="st0" d="M533.3,238.7c0,3.2-2.5,5.8-5.6,5.9c-3,0-5.8-2.8-5.8-5.8c0-2.9,2.4-5.3,5.6-5.3
		C530.9,233.4,533.3,235.6,533.3,238.7z"/>
	<path class="st0" d="M515.8,262.7c-3.3,0-5.6-2.4-5.5-5.7c0-3.2,2.3-5.4,5.4-5.4c3.3,0,5.7,2.5,5.7,5.7
		C521.4,260.7,519.2,262.8,515.8,262.7z"/>
	<path class="st0" d="M419.9,303.9c0,3.2-2.2,5.5-5.2,5.6c-3.3,0.1-5.7-2.2-5.7-5.4c0-3.2,2.6-5.7,5.7-5.7
		C417.6,298.4,419.9,300.8,419.9,303.9z"/>
	<path class="st0" d="M560.2,183.2c3.8,0.8,5.6,4.7,4.6,8.3c-1,3.7-4.8,5.8-8.5,4.7c-0.8-0.3-1.7-0.6-2.3-1.2
		c1.9-3.4,3.7-6.7,5.6-10C560,184.4,560.3,183.8,560.2,183.2z"/>
	<path class="st0" d="M498.1,294.8c3.4,2.1,4.4,6.1,2.3,9.4c-2.1,3.4-6.1,4.2-9.5,2c1.6-3.9,4.1-7.2,6-11
		C497.2,294.9,497.7,294.9,498.1,294.8z"/>
	<path class="st0" d="M443.7,303.3c2.9,0.9,4.1,3.2,4.3,6c0.2,2.8-1,5.1-3.4,6.4c-2.4,1.3-4.9,1.4-7.2-0.4c1.9-2.6,3.2-5.5,4.9-8.2
		C443.1,305.9,443.9,304.8,443.7,303.3z"/>
	<path class="st0" d="M465.8,314.7c-2.6-0.9-3.8-2.8-4-5.4c-0.2-3,0.7-5.6,3.5-7c2.3-1.2,4.6-1.3,6.8,0.4c-1.1,1.9-2.3,3.8-3.3,5.8
		C467.7,310.6,466,312.3,465.8,314.7z"/>
	<path class="st0" d="M465.8,314.7c0.2-2.4,1.9-4.1,2.9-6.2c1-2,2.2-3.9,3.3-5.8c0.7,0.8,1.8,1.2,2.3,2.3c1.5,2.7,1.4,5.7-0.5,8
		C472,315.2,468.8,315.9,465.8,314.7z"/>
	<path class="st0" d="M536,192c2.7,0,4.7,1.8,4.8,4.4c0.1,2.5-2.2,4.8-4.7,4.8c-2.5,0-4.8-2.1-4.8-4.5
		C531.2,194.1,533.5,191.7,536,192z"/>
	<path class="st0" d="M443.7,303.3c0.2,1.5-0.6,2.6-1.4,3.8c-1.7,2.7-3,5.6-4.9,8.2c-3.4-1.7-3.6-6.3-2.3-8.8
		C436.9,303.2,440.2,301.9,443.7,303.3z"/>
	<path class="st0" d="M498.1,294.8c-0.4,0-0.9,0.1-1.2,0.5c-1.9,3.7-4.4,7.1-6,11c-3.6-1.8-3.9-7.3-1.9-10
		C490.9,293.9,495,292.3,498.1,294.8z"/>
	<path class="st0" d="M521,202.7c0,2.6-1.9,4.7-4.5,4.7c-2.6,0-4.9-2.2-4.8-4.7c0-2.4,2.3-4.5,4.8-4.4
		C519.1,198.2,521,200.1,521,202.7z"/>
	<path class="st0" d="M519.2,186.2c0,2.6-1.9,4.5-4.4,4.5c-2.5,0-4.9-2.1-4.8-4.5c0-2.5,2.3-4.8,4.8-4.7
		C517.4,181.5,519.3,183.5,519.2,186.2z"/>
	<path class="st0" d="M438.1,130.6c2.6,0,4.7,2,4.7,4.5c0.1,2.6-2,4.8-4.4,4.8c-2.4,0-4.8-2.3-4.8-4.8
		C433.6,132.7,435.7,130.7,438.1,130.6z"/>
	<path class="st0" d="M482,145.5c0-2.7,2-4.6,4.5-4.6c2.6,0,4.6,2,4.6,4.6c0,2.5-2.4,4.7-4.9,4.6C483.7,149.9,482,148.1,482,145.5z"
		/>
	<path class="st0" d="M508.9,166c2.7,0,4.4,1.6,4.5,4.1c0.1,2.6-1.8,4.6-4.4,4.7c-2.6,0.1-4.8-1.9-4.8-4.4
		C504.2,167.8,506,166,508.9,166z"/>
	<path class="st0" d="M467,138c0-2.7,1.9-4.7,4.5-4.6c2.5,0.1,4.4,2,4.4,4.5c0,2.7-2.1,4.8-4.7,4.7C468.8,142.6,467,140.6,467,138z"
		/>
	<path class="st0" d="M503.8,156.4c0,2.5-2.1,4.6-4.6,4.6c-2.5,0-4.3-1.9-4.3-4.6c0-2.7,1.9-4.6,4.6-4.6
		C501.9,151.9,503.8,153.9,503.8,156.4z"/>
	<path class="st0" d="M514.1,214.9c2.6,0,4.7,2.1,4.6,4.6c-0.1,2.6-2.1,4.4-4.7,4.4c-2.8-0.1-4.5-2-4.5-4.8
		C509.5,216.6,511.3,214.9,514.1,214.9z"/>
	<path class="st0" d="M455,139.1c-2.6,0-4.4-1.9-4.5-4.7c0-2.5,2-4.6,4.6-4.6c2.4,0,4.4,2.1,4.4,4.6
		C459.6,136.9,457.5,139.1,455,139.1z"/>
	<path class="st0" d="M393.5,113.3c-2.5,0-4.8-2-4.8-4.5c0-2.4,2.2-4.6,4.7-4.6c2.3,0,4.4,2.2,4.4,4.6
		C397.8,111.3,395.9,113.3,393.5,113.3z"/>
	<path class="st0" d="M560.2,183.2c0,0.7-0.2,1.2-0.6,1.8c-1.9,3.3-3.7,6.7-5.6,10c-2.7-2.1-3.6-5.5-2.1-8.4
		C553.4,183.7,557.2,181.9,560.2,183.2z"/>
	<path class="st0" d="M536.4,213.1c2.5,0.8,3.7,2.6,3.7,5.1c0.1,2.1-0.8,3.9-2.7,4.9c-2.2,1.2-4.3,1.1-6.3-0.6
		C532.9,219.4,535,216.4,536.4,213.1z"/>
	<path class="st0" d="M507.4,238.8c-2,0-4-1.9-4-3.9c0-1.9,1.8-3.8,3.8-3.9c2.1-0.1,4,1.7,4,3.8
		C511.3,236.9,509.5,238.7,507.4,238.8z"/>
	<path class="st0" d="M528.4,175.2c0-2.1,1.6-3.8,3.6-3.9c2,0,3.8,1.7,3.9,3.7c0,2-1.7,3.7-3.8,3.7
		C530,178.7,528.4,177.3,528.4,175.2z"/>
	<path class="st0" d="M425.7,140.2c0,2.2-1.5,3.7-3.5,3.7c-2,0-3.7-1.8-3.7-3.8c0-2,1.5-3.6,3.6-3.6
		C424.2,136.4,425.7,137.9,425.7,140.2z"/>
	<path class="st0" d="M413.2,281.8c0-2.2,1.6-3.7,3.8-3.6c1.9,0.1,3.3,1.7,3.3,3.7c0,2.1-1.5,3.6-3.6,3.6
		C414.5,285.4,413.1,284,413.2,281.8z"/>
	<path class="st0" d="M536.4,213.1c-1.5,3.3-3.5,6.3-5.3,9.4c-2.2-1.9-2.9-4.5-1.8-6.8C530.7,213.2,533.2,212.2,536.4,213.1z"/>
	<path class="st0" d="M390,295.3c-1.8,0-3.3-1.5-3.3-3.4c-0.1-2,1.4-3.5,3.3-3.6c1.9-0.1,3.4,1.5,3.4,3.5
		C393.4,293.8,392,295.3,390,295.3z"/>
	<path class="st0" d="M376.6,124.9c0,2-1.3,3.4-3.2,3.4c-1.9,0-3.4-1.5-3.4-3.3c0-1.9,1.5-3.4,3.3-3.4
		C375,121.5,376.6,123,376.6,124.9z"/>
	<path class="st0" d="M439.7,283.5c2.6,1.5,3.3,4,1.8,6.5c-1.3,2.1-4,2.6-6.3,1C437.3,288.8,438.5,286.1,439.7,283.5z"/>
	<path class="st0" d="M439.7,283.5c-1.2,2.7-2.4,5.3-4.5,7.5c-2-1.5-2.5-3.6-1.3-5.7C435.1,283.1,437,282.5,439.7,283.5z"/>
	<path class="st0" d="M500.2,248.3c0,1.7-1.3,3.1-3,3.1c-1.7,0-3.2-1.4-3.2-3.2c0-1.7,1.4-3.1,3-3.1
		C498.8,245.1,500.2,246.5,500.2,248.3z"/>
	<path class="st0" d="M482.2,227.8c-0.4,0.7-0.3,1.4-0.4,2.1c0,0.3-0.3,0.5-0.6,0.4c-0.3,0-0.6-0.2-0.6-0.5c0.1-1.5,0.2-3.1,0.3-4.6
		c0-0.4,0.4-0.6,0.8-0.6c0.5,0,1,0,1.3,0.6c0.3,0.8,0.4,1.7,1.1,2.5c0.7-0.6,0.7-1.5,1-2.3c0.3-0.7,0.7-0.8,1.4-0.8
		c0.8,0,0.7,0.6,0.7,1.1c0.1,1.2,0.2,2.3,0.3,3.5c0,0.4,0.2,1.2-0.6,1.1c-0.7,0-0.6-0.7-0.6-1.2c0-0.7-0.1-1.4-0.1-2.2
		c-0.8,0.7-0.7,1.6-1.1,2.4c-0.2,0.5-0.3,1-1,1c-0.7,0-0.8-0.5-0.9-1C482.8,228.8,482.7,228.2,482.2,227.8z"/>
	<path class="st0" d="M407.8,151.5c-1.7,0-2.9-1.1-2.9-2.6c0-1.5,1.2-2.8,2.8-2.8c1.6,0,3,1.4,2.9,2.9
		C410.5,150.5,409.3,151.5,407.8,151.5z"/>
	<path class="st0" d="M522.8,158.1c-1.5,0-2.7-1.2-2.7-2.6c0-1.6,1.1-2.7,2.8-2.8c1.7,0,2.9,1.1,2.8,2.7
		C525.7,156.9,524.4,158.1,522.8,158.1z"/>
	<path class="st0" d="M483.9,256.4c1.3,0,2.5,1.1,2.5,2.3c0,1.2-1.2,2.3-2.5,2.3c-1.4,0-2.3-0.9-2.2-2.4
		C481.7,257.2,482.5,256.4,483.9,256.4z"/>
	<path class="st0" d="M399.9,271.2c-0.1,1.2-1.2,2.2-2.4,2.1c-1.3-0.1-2.1-1.1-2-2.4c0.1-1.2,1.3-2.2,2.4-2.1
		C399,269,400,270.2,399.9,271.2z"/>
	<path class="st0" d="M478.1,224.7c0.3,0,0.6,0,0.9,0c0.5,0.1,1.1-0.3,1.3,0.4c0.2,0.8-0.5,0.7-1,0.8c-0.8,0.1-0.7,0.6-0.7,1.1
		c0,0.9,0,1.8,0,2.6c0,0.4,0,0.8-0.5,0.8c-0.6,0-0.8-0.3-0.8-0.8c0-0.5,0-1,0-1.5c0-1,0.4-2.3-1.4-2.3c-0.1,0-0.3-0.3-0.3-0.5
		c0-0.3,0.2-0.5,0.5-0.5C476.8,224.7,477.4,224.7,478.1,224.7C478.1,224.7,478.1,224.7,478.1,224.7z"/>
	<path class="st0" d="M358.2,147.7c-0.9,0-1.8-1-1.8-1.9c0.1-1,1-1.9,1.9-1.7c1.1,0.2,1.7,0.9,1.6,2
		C359.9,147.1,359.2,147.6,358.2,147.7z"/>
	<path class="st0" d="M369.4,272.3c1.2-0.1,1.8,0.6,1.9,1.7c0,1.1-0.6,1.8-1.7,1.9c-1.1,0-1.8-0.5-1.8-1.7
		C367.7,273,368.1,272.3,369.4,272.3z"/>
	<g>
		<path class="st0" d="M388.1,179c-0.9-4.6-2.8-8.6-6.3-11.8c-6.8-6.4-19.7-6.2-27.2-1.1c-6.1,4.1-9.2,10-10,17.1
			c-1.3,11,3.8,21.5,14.6,25.8c5.1,2,10.4,2.4,15.8,1.3c4.3-0.8,8.3-2.5,11.8-5.1c0.7-0.5,1.3-0.9,0.8-1.9c-1.4-2.4-2.7-4.9-4-7.4
			c-3.2,2.4-6.6,4.2-10.4,4.8c-9.2,1.5-16.1-4.1-16.6-11.6c0.7-0.4,1.6-0.2,2.4-0.2c9.2,0,18.4,0,27.6,0c1.6,0,2-0.5,2.1-2
			C388.5,184.3,388.6,181.6,388.1,179z M375.3,181c-1.4,0-2.9,0-4.3,0c-1.4,0-2.9,0-4.3,0c-2.9,0-5.7,0-8.6,0
			c-1.1,0-1.4-0.2-1.1-1.4c1.6-6.1,7.7-9.6,13.7-7.8c3.3,1,5.8,4.2,6,7.6C376.8,180.6,376.5,181,375.3,181z"/>
	</g>
	<g>
		<path class="st0" d="M108.8,162.7c-5.6-0.3-10.6,1.3-14.5,5.6c-0.6,0.6-1.1,1.3-1.9,2.3c0-1.7,0-3,0-4.3c0-2.5,0-2.5-2.6-2.5
			c-1,0-2.1,0-3.1,0c-2.7,0-2.4-0.3-2.4,2.3c0,19.8,0,39.6,0,59.4c0,0.4,0,0.7,0,1.1c-0.1,0.9,0.3,1.3,1.2,1.3c2-0.1,4-0.1,6,0
			c1.3,0.1,1.8-0.3,1.7-1.7c-0.1-4.3,0-8.7,0-13c0-3,0-6,0-9.4c2.2,2.8,4.6,4.8,7.6,6c8.9,3.4,21.2-0.4,25.5-12.6
			c1.9-5.2,2.1-10.6,1.3-16.1C126.2,172.5,121.2,163.4,108.8,162.7z M115.4,198.6c-5,6.4-14.7,6.2-19.2-0.6
			c-4.4-6.8-4.4-14-0.9-21.1c2.2-4.4,6.2-6.4,11-6.3c5,0.1,8.6,2.7,10.8,7.1c1.4,2.9,1.9,6,1.9,9.2
			C119,191.1,118.1,195.1,115.4,198.6z"/>
		<path class="st0" d="M171.7,179.2c-0.1-8.8-5.2-14.7-13.6-16.2c-2.8-0.5-5.5-0.5-8.3-0.1c-4.4,0.6-8.5,2-12.3,4.4
			c-1,0.6-1.1,1.2-0.5,2.1c0.7,1.2,1.4,2.4,2.1,3.6c0.9,1.6,0.9,1.6,2.6,0.6c3.9-2.4,8.1-3.6,12.8-3.3c4.7,0.3,7.6,3,8.2,7.7
			c0.1,0.4,0.1,0.9,0.2,1.3c0.4,1.5-0.3,1.8-1.6,1.7c-3-0.1-6,0-9,0.4c-4.8,0.6-9.4,1.6-13.4,4.4c-6.9,4.9-7.6,15.2-1.3,20.9
			c6,5.4,18.1,6.3,24.5-2.3c0.4-0.6,0.8-1.2,1.5-2.1c0,2.4,0,4.2,0,6.1c0,1,0.3,1.3,1.3,1.3c1.8-0.1,3.7-0.1,5.5,0
			c1.3,0.1,1.6-0.5,1.6-1.7C171.7,198.5,171.8,188.9,171.7,179.2z M162.8,190.9c-0.7,4.4-2.4,8.3-6.2,10.9
			c-3.3,2.3-6.8,2.6-10.4,0.8c-5-2.4-5.4-8.9-0.8-12c2.4-1.6,5.1-2.1,7.9-2.5c2.2-0.3,4.5-0.3,6.1-0.4
			C163.3,187.7,163.3,187.7,162.8,190.9z"/>
	</g>
	<g>
		<path class="st0" d="M446.9,240.3c-1.9-3.5-5.7-5.3-9.7-4.7c-1.8,0.3-3.3,1-4.9,2c-0.1-3.9,3.1-9,8.3-9.2c1.1,0,2.2,0.2,3.2,0.6
			c1.1,0.5,1.6,0,1.9-1c0.1-0.4,0.3-0.8,0.5-1.2c0.4-0.9,0.1-1.3-0.9-1.6c-4.8-1.5-9.3-1-13.1,2.6c-5.7,5.3-7,16.2-2.9,22.9
			c2.5,4.1,7.3,6.1,11.8,4.8C448.5,253.3,449.5,244.9,446.9,240.3z M440.1,251.4c-2.3,0.8-4.8-0.1-6.5-2.4c-1.1-1.5-1.8-3.2-1.9-5.1
			c0-1.1,0.3-2,1.1-2.8c1.7-1.7,5.1-2.4,7.4-1.4c2.5,1.1,3.6,3.1,3.6,7C443.8,248.5,442.5,250.5,440.1,251.4z"/>
	</g>
	<g>
		<path class="st0" d="M347.3,230.9c-5.2-1.6-10.9,0.6-13.6,5.1c-2.9,4.8-2.3,11.9,1.4,15.8c3.9,4.1,10.2,5.3,15.6,2.6
			c4.3-2.1,3.7-1.7,1.3-5.4c-1.7,1.1-3.3,2.1-5.3,2.5c-4.2,0.9-8.3-1.4-9.6-5.4c-0.6-2-0.5-2.3,1.7-2.3c4.6,0,9.3,0,13.9,0
			c0.8,0,1.5,0.2,1.7-1.1C355.3,237.7,352,232.3,347.3,230.9z M343.3,240.2c-2,0.1-4.1,0-6.3,0c1-4.1,3.4-6,7-6
			c3.3,0,5.5,2.5,5.6,5.8C347.5,240.5,345.4,240.1,343.3,240.2z"/>
	</g>
	<g>
		<path class="st0" d="M257.9,243.8c4.7,0,9.4,0,14.1,0c1,0,1.7-0.2,1.7-1.4c0.2-7.3-4.2-13.4-13.1-11.7c-7.2,1.3-10.8,8-9,15.8
			c2.1,8.8,11.6,11.1,18.3,7.9c4.7-2.2,3.7-1.8,1.4-5.6c-1.7,1.3-3.4,2.2-5.4,2.6c-4.2,0.9-8.3-1.5-9.5-5.5
			C255.8,244,255.9,243.8,257.9,243.8z M264.8,234.4c1.3,0.3,2.2,1.1,2.9,2.2c0.6,1,1.3,2.2,0.9,3.3c-0.3,0.8-1.7,0.3-2.7,0.3
			c-3.2,0-6.4,0-9.7,0C257.1,235.8,260.7,233.4,264.8,234.4z"/>
	</g>
</g>
</svg>
