<?xml version="1.0" encoding="utf-8"?>
<!-- Generator: Adobe Illustrator 21.1.0, SVG Export Plug-In . SVG Version: 6.00 Build 0)  -->
<svg version="1.1" id="Layer_1" xmlns="http://www.w3.org/2000/svg" xmlns:xlink="http://www.w3.org/1999/xlink" x="0px" y="0px"
	 viewBox="0 0 600 400" style="enable-background:new 0 0 600 400;" xml:space="preserve">
<style type="text/css">
	.st0{fill:#FFFFFF;}
	.st1{display:none;}
	.st2{display:inline;}
	.st3{fill:none;}
</style>
<g id="StarStar">
	<g>
		<g>
			<path class="st0" d="M265.3,195.2h-10.4l-1.8-9.5c-1.2-0.8-3-1.4-5.3-2s-4.8-0.9-7.4-0.9c-3.8,0-6.7,0.8-8.8,2.4
				c-2.1,1.6-3.1,3.7-3.1,6.2c0,2.3,1.1,4.3,3.3,5.8s5.9,3.1,11.2,4.8c7.6,2.1,13.4,4.9,17.4,8.4c3.9,3.5,5.9,8.1,5.9,13.7
				c0,5.9-2.3,10.6-7,14c-4.7,3.4-10.9,5.1-18.5,5.1c-5.5,0-10.4-0.9-14.9-2.6c-4.4-1.7-8.1-4.2-11.1-7.2V219h10.7l1.5,9.8
				c1.4,1.1,3.3,2.1,5.7,2.8s5.1,1.1,8,1.1c3.8,0,6.7-0.8,8.7-2.3c2-1.6,3-3.6,3-6.2c0-2.7-0.9-4.8-2.8-6.4
				c-1.9-1.6-5.2-3.1-9.9-4.6c-8.2-2.4-14.4-5.2-18.6-8.5c-4.2-3.3-6.3-7.7-6.3-13.4c0-5.6,2.4-10.2,7.1-13.8
				c4.8-3.6,10.7-5.4,17.9-5.5c5.3,0,10.2,0.8,14.6,2.4s8.1,3.8,11,6.5L265.3,195.2L265.3,195.2z"/>
			<path class="st0" d="M292.4,178.2v12.6h9v9.7h-9v26.2c0,2,0.4,3.4,1.2,4.3c0.8,0.9,1.9,1.3,3.3,1.3c1,0,1.8,0,2.5-0.1
				s1.5-0.2,2.4-0.4l1.2,10c-1.6,0.5-3.1,0.8-4.6,1.1c-1.5,0.2-3.2,0.4-4.9,0.4c-4.8,0-8.5-1.3-11.1-3.9c-2.6-2.6-3.9-6.8-3.9-12.5
				v-26.2H271V191h7.6v-12.6h13.8V178.2z"/>
			<path class="st0" d="M341,242.3c-0.4-0.9-0.7-1.7-1-2.6c-0.3-0.9-0.5-1.8-0.7-2.7c-1.6,1.9-3.7,3.4-6,4.6
				c-2.4,1.2-5.1,1.8-8.1,1.8c-5,0-9-1.4-12-4.1c-3-2.7-4.4-6.5-4.4-11.2c0-4.8,1.9-8.5,5.8-11.2c3.9-2.6,9.5-3.9,17-3.9h7.1v-5
				c0-2.5-0.7-4.4-2.1-5.8c-1.4-1.4-3.5-2-6.3-2c-1.6,0-3,0.2-4.2,0.5c-1.2,0.4-2.2,0.8-3,1.3l-0.9,5.5h-10.5v-11.4
				c2.5-1.7,5.4-3.2,8.7-4.3c3.3-1.2,6.9-1.8,10.7-1.8c6.4,0,11.5,1.6,15.5,4.7c4,3.1,6,7.6,6,13.3v21.3c0,0.8,0,1.5,0,2.2
				s0.1,1.4,0.2,2l4.2,0.6v8.3h-16V242.3z M328.9,233c2.1,0,4-0.5,5.7-1.4s3-2,4-3.4v-7.8h-7.1c-2.9,0-5.2,0.7-6.7,2.1
				c-1.5,1.4-2.3,3-2.3,5c0,1.7,0.6,3.1,1.7,4.1C325.4,232.5,326.9,233,328.9,233z"/>
			<path class="st0" d="M362.7,234l6.7-1.4v-31.9l-7.4-1.4v-8.4h20.3l0.6,7.5c1.2-2.7,2.8-4.7,4.7-6.2c1.9-1.5,4.1-2.2,6.6-2.2
				c0.7,0,1.5,0.1,2.3,0.2c0.8,0.1,1.5,0.2,2,0.4l-1.5,12.6l-5.7-0.1c-2,0-3.7,0.4-5,1.2s-2.3,1.9-3,3.4v25l6.7,1.4v8.3h-27.2V234
				H362.7z"/>
			<path class="st0" d="M454.9,195.2h-10.4l-1.8-9.5c-1.2-0.8-3-1.4-5.3-2s-4.8-0.9-7.4-0.9c-3.8,0-6.7,0.8-8.8,2.4
				c-2.1,1.6-3.1,3.7-3.1,6.2c0,2.3,1.1,4.3,3.3,5.8c2.2,1.5,5.9,3.1,11.2,4.8c7.6,2.1,13.4,4.9,17.4,8.4c3.9,3.5,5.9,8.1,5.9,13.7
				c0,5.9-2.3,10.6-7,14s-10.9,5.1-18.5,5.1c-5.5,0-10.4-0.9-14.9-2.6c-4.4-1.7-8.1-4.2-11.1-7.2V219h10.7l1.5,9.8
				c1.4,1.1,3.3,2.1,5.7,2.8c2.4,0.7,5.1,1.1,8,1.1c3.8,0,6.7-0.8,8.7-2.3c2-1.6,3-3.6,3-6.2c0-2.7-0.9-4.8-2.8-6.4
				s-5.2-3.1-9.9-4.6c-8.2-2.4-14.4-5.2-18.6-8.5s-6.3-7.7-6.3-13.4c0-5.6,2.4-10.2,7.1-13.8c4.8-3.6,10.7-5.4,17.9-5.5
				c5.3,0,10.2,0.8,14.6,2.4c4.4,1.6,8.1,3.8,11,6.5v14.3H454.9z"/>
			<path class="st0" d="M482,178.2v12.6h9v9.7h-9v26.2c0,2,0.4,3.4,1.2,4.3c0.8,0.9,1.9,1.3,3.3,1.3c1,0,1.8,0,2.5-0.1
				s1.5-0.2,2.4-0.4l1.2,10c-1.6,0.5-3.1,0.8-4.6,1.1c-1.5,0.2-3.2,0.4-4.9,0.4c-4.8,0-8.5-1.3-11.1-3.9c-2.6-2.6-3.9-6.8-3.9-12.5
				v-26.2h-7.6V191h7.6v-12.6H482V178.2z"/>
			<path class="st0" d="M530.6,242.3c-0.4-0.9-0.7-1.7-1-2.6c-0.3-0.9-0.5-1.8-0.7-2.7c-1.6,1.9-3.7,3.4-6,4.6
				c-2.4,1.2-5.1,1.8-8.1,1.8c-5,0-9-1.4-12-4.1c-3-2.7-4.4-6.5-4.4-11.2c0-4.8,1.9-8.5,5.8-11.2c3.9-2.6,9.5-3.9,17-3.9h7.1v-5
				c0-2.5-0.7-4.4-2.1-5.8c-1.4-1.4-3.5-2-6.3-2c-1.6,0-3,0.2-4.2,0.5c-1.2,0.4-2.2,0.8-3,1.3l-0.9,5.5h-10.5v-11.4
				c2.5-1.7,5.4-3.2,8.7-4.3c3.3-1.2,6.9-1.8,10.7-1.8c6.4,0,11.5,1.6,15.5,4.7c4,3.1,6,7.6,6,13.3v21.3c0,0.8,0,1.5,0,2.2
				s0.1,1.4,0.2,2l4.2,0.6v8.3h-16V242.3z M518.6,233c2.1,0,4-0.5,5.7-1.4s3-2,4-3.4v-7.8h-7.1c-2.9,0-5.2,0.7-6.7,2.1
				c-1.5,1.4-2.3,3-2.3,5c0,1.7,0.6,3.1,1.7,4.1C515.1,232.5,516.6,233,518.6,233z"/>
			<path class="st0" d="M552.4,234l6.7-1.4v-31.9l-7.4-1.4v-8.4H572l0.6,7.5c1.2-2.7,2.8-4.7,4.7-6.2s4.1-2.2,6.6-2.2
				c0.7,0,1.5,0.1,2.3,0.2c0.8,0.1,1.5,0.2,2,0.4l-1.5,12.6l-5.7-0.1c-2,0-3.7,0.4-5,1.2s-2.3,1.9-3,3.4v25l6.7,1.4v8.3h-27.2
				L552.4,234L552.4,234z"/>
		</g>
		<g>
			<path class="st0" d="M177.5,153.9h-44.1c-13.1,0-23.7,10.6-23.7,23.7v44.1c0,13.1,10.6,23.6,23.7,23.6h44.1
				c13.1,0,23.7-10.6,23.7-23.6v-44.1C201.2,164.5,190.6,153.9,177.5,153.9z M190.3,207.8l-25.1-3.9l-0.1,0.1l14.6,21.1l-13.6,7.9
				l-10.4-24.5h-0.2l-10.2,24.6l-13.4-7.9l14.5-21.1V204l-25.2,3.9v-16.2l25,3.4l0.1-0.1l-14.6-20.5l13.6-7.9l10.4,23.9h0.2
				l10.3-23.9l13.8,7.9l-14.9,20.8v0.2l25.4-3.8v16.1H190.3z"/>
			<path class="st0" d="M79.2,153.9h-44c-13.1,0-23.7,10.6-23.7,23.7v44.1c0,13.1,10.6,23.6,23.7,23.6h44.1
				c13.1,0,23.7-10.6,23.7-23.6v-44.1C102.9,164.5,92.3,153.9,79.2,153.9z M92,207.8L66.9,204l-0.1,0.1l14.6,21.1L67.8,233
				l-10.4-24.5h-0.2L47,233.1l-13.4-7.9L48.1,204l0,0l-25.2,3.9v-16.2l25,3.4L48,195l-14.6-20.5l13.6-7.9l10.4,23.9h0.2l10.3-23.9
				l13.8,7.9l-14.9,20.8v0.2l25.4-3.8v16.1H92z"/>
		</g>
		<g>
			<path class="st0" d="M590,182.6v-5.3h-2v-0.9h5.1v0.9h-2v5.3H590z M593.8,182.6v-6.3h1.5l1.6,5l1.5-5h1.5v6.3h-1v-5.3l-1.6,5.3
				h-0.9l-1.7-5.3v5.3H593.8z"/>
		</g>
	</g>
</g>
<g id="Hilton" class="st1">
	<g class="st2">
		<g>
			<path d="M186.9,300.7v-3.3h8.7v-29.6h-23.3v29.6h8.9v3.3h-32v-3.3h8.2v-60.3h-8.2v-3.3h32v3.3h-8.9v26.7h23.3v-26.7h-8.7v-3.3
				h31.8v3.3h-8.3v60.3h8.3v3.3H186.9z"/>
			<path d="M232.7,241.7v-8h14.5v8H232.7z M225.5,300.7v-3.2h7.8v-41.6h-7.8v-3.3h22.2v44.9h7.4v3.2H225.5z"/>
			<path d="M259.4,300.7v-3.3h8.1v-69.1h-8.1v-3.1H282v72.2h7.6v3.3H259.4z"/>
			<path d="M312.2,300.7c-6.7,0-12.1-3-12.1-10.3v-34.6h-7.9v-3.2h7.9V234h13.5v18.6h11.2v3.2h-11.2v41.7H325v3.2L312.2,300.7
				L312.2,300.7z"/>
			<path d="M355.9,302c-15.3,0-28-9.6-28-25.6c0-15.5,12.9-25.1,27.6-25.1c15.4,0,26.9,10.7,26.9,26.4
				C382.4,292.6,370.4,302,355.9,302z M343.9,276.2c0,4.3-0.2,13.8,2,17.7c2.1,3.6,5.4,5.3,9.6,5.3c11.2,0,11.4-12.2,11.3-20.5v-3
				c-0.1-8.7,1.1-21.3-11.4-21.3C343.5,254.4,343.9,267.7,343.9,276.2z"/>
			<path d="M422,300.7v-3.2h6.4v-29.3c0-5.3,0-11.9-7-11.9c-5.5,0-10.7,5.4-12.1,10.4c-0.6,2.4-0.5,4.9-0.5,7.3v23.4h7.4v3.2h-29.6
				v-3.2h7.8v-41.6h-7.8v-3.3h22.2v7.4c2.9-3.5,4.9-5.4,9.2-7.1c2.8-1.1,5.8-1.8,8.7-1.8c2.2,0,4.5,0.4,6.6,1
				c7.9,2.3,9.8,7.4,9.8,14.8v30.7h7.6v3.2H422z"/>
		</g>
		<g>
			<g>
				<g>
					<path d="M324.9,171.5c0,3.7-1,8.1-3.7,11.9h7.8v-59.9h-24.8V148C317.6,152.1,324.9,160.7,324.9,171.5z"/>
					<path d="M282,145.8c5.6,0,10.8,1.3,14.8,2.4c-8.4-1.5-21.5,0.7-28.3,6v29.3h24.8v-33.3c5.4,1,9.4,3.1,11.9,4.8v28.4h5.4
						c-5.1,5.7-14.6,9.2-22.8,7.9v1.2l0,0c23.6,1.9,33.6-9.3,33.6-21.9c0-14.8-13.9-23.5-28.1-25.2v-21.9h-24.8v22.1
						c-16.1,3.2-31.8,12.8-31.8,28.6c0,24.3,34,39.4,63.6,39.4c45,0,79.6-21.7,79.6-52.3c0-36.9-50-63.3-89.3-63.3
						c-45,0-78.1,28.6-78.1,59.1l0,0c0,15.8,8.9,29.1,20.1,38.3l0.8-0.6c-8.9-7.4-16.9-18.8-16.9-34.6c2.4-33.4,43.5-52.2,80.2-52.2
						c25.9,0,72.5,6,72.5,49.3c0,22.6-24.2,52-74.9,52c-26,0-46.2-13.9-46.2-33.9C248.3,158.1,261.8,145.8,282,145.8z"/>
				</g>
			</g>
			<g>
				<path d="M370.4,208.8c-3.3,0-6-2.7-6-6s2.7-6,6-6s6,2.7,6,6C376.5,206.1,373.8,208.8,370.4,208.8z M370.4,197.9
					c-2.7,0-4.8,2.2-4.8,4.9s2.2,4.9,4.8,4.9c2.7,0,4.8-2.2,4.8-4.9C375.3,200.1,373.1,197.9,370.4,197.9z M373.5,206H372l-1.2-2.3
					h-1.6v2.3H368v-6.6h3.2c1.4,0,2.3,0.8,2.3,2.2c0,0.9-0.5,1.7-1.4,2L373.5,206z M371.2,202.5c0.5,0,1-0.3,1-1c0-0.8-0.4-1-1-1h-2
					v2.1C369.9,202.5,371.2,202.5,371.2,202.5z"/>
			</g>
		</g>
	</g>
</g>
<g id="Marriot" class="st1">
	<g class="st2">
		<g>
			<path d="M535.8,234.7c-5.5-2.9-6.3-10.9-6.2-30.6l0.1-30.1h-10.4l2.3-5.6h8v-14.3l19.3-7.1v20.9h8.8l-2.3,6.2h-6.5v52.1
				c0.4,4.2,1.8,6.7,3.8,8.5L535.8,234.7L535.8,234.7z"/>
			<path d="M61.3,183.4c2,5.4,6.4,10.9,3.2,17.1C63,206.9,57,212,50.7,213c-6.6,0.6-12.9-0.5-17.7-4.5c-3.5-18.2,3.9-35.1,18.3-45.2
				L61.3,183.4z"/>
		</g>
		<g>
			<path d="M76.4,239c-3.3,11-35.9,3.8-46.1-14.3c13.4,1.5,28.6-10.4,28.8-23.9L76.4,239z"/>
			<path d="M89.7,237.6c1.5-0.7,4.5-2.2,5.2-5.3l-35.1-76.1c-2.3-0.3-4-0.5-7,1.6L89.7,237.6z"/>
			<path d="M105.5,221.1c14.9-22.6,2.3-59.7-29.8-64.9L105.5,221.1z"/>
			<path d="M384.6,170.7c3.5-3,9.7-3,13.8-1.1c1.7,0.8,3.3,2,4.4,3.5l-7.8,12.1c-1-0.8-1.7-1.1-3-1.8c-3.9-1.7-7.9-0.7-10.2,1.4V220
				c-0.1,6.1,1,11.6,4.2,14.5h-17.6c-3.7-2.8-4.6-7.3-4.9-11.3l-0.1-46.8c0.2-3.8-0.8-5.5-2.3-7.6l18.3,0.1c1.5,1.1,1.6,2.9,2.3,4.3
				L384.6,170.7z"/>
			<path d="M406.9,182.3c-0.1-4.5,0.8-9.8-2.1-13.6h17c1.1,0.8,1.8,2.3,2.1,3.6c0.9,1.2,0.8,2.9,1.3,4.3l0.1,49.9c0.7,3,1.8,6,4,8.3
				h-18.1c-5.9-5.7-4-15.2-4.4-24.9L406.9,182.3z"/>
			<path d="M433.8,182.8c1.8-5.1,7.5-7.6,11.7-10.4c6.4-2.3,13.3-8.1,20.5-3.4c5.9,3.9,11.2,8.3,14.9,14.3c0.9,2.3,1.3,4.9,2,7.4
				c0,3.3,0.7,5.8,0.6,9.1c0.2,3.6,0.2,6.9,0,10.4c-0.2,6-3,11.4-7.8,15.5c-7.1,6.3-16,13.4-25.6,8.5c-8.6-4-18.8-12-18.1-22.9
				c-0.4-7.8-0.7-14.5,0.4-22C432.8,187.1,432.5,184.7,433.8,182.8 M451.4,218.1c0.8,3.1,2.5,6.9,6.2,7.3c2.2,0.1,3.8-1.8,5.1-3.3
				c4-7.8,3.4-16.2,3.4-25.1c-1.3-6.6,0.3-15.5-6.8-19.6c-2.5-0.9-4.4,0.8-5.9,2.3c-2.8,4.2-3.1,8.9-3.2,14.2
				C449.2,202.5,450.2,209.6,451.4,218.1"/>
			<path d="M496,234.7c-5.5-2.9-6.3-10.9-6.2-30.6l0.1-30.1h-10.4l2.3-5.6h8v-14.3l19.3-7.1v20.9h8.8l-2.3,6.2h-6.5v52.1
				c0.4,4.2,1.8,6.7,3.8,8.5L496,234.7L496,234.7z"/>
			<path d="M319.8,176.4c-0.1-3.8-0.8-5.5-2.3-7.6l18.3,0.1c1.5,1.1,1.6,2.9,2.3,4.3l3.1-2.5c3.5-3,9.7-3,13.8-1.1
				c1.7,0.8,3.3,2,4.4,3.5l-7.8,12.1c-1-0.8-1.7-1.1-3-1.8c-3.9-1.7-7.9-0.7-10.2,1.4V220c0,6.1,1,11.6,4.2,14.5h-17.7
				c-3.7-2.8-4.7-7-4.9-11.3L319.8,176.4z"/>
			<path d="M181.5,194.9l-6.7,13.7c-4.5,8.1-10.9,18-20.7,20.4c-3.8,1.3-7.1,0.1-10.8-0.1l-11.8,19.3c0.9,0.9,2.1,1.7,3.3,2.2
				c20.7,7.9,29.1-0.6,49.5-46.7l19.3,41.1h25.7L217.2,217l6.9-14.3l19,41.4l24.6,0.2l-43-94.5l-19.8,9.8l15.5,35.3l-6.8,13.9
				l-28.5-61.4L164.2,158L181.5,194.9z"/>
			<path d="M260.4,211.6c0.5-6.8,4.2-13.3,10.6-16.7c6.3-3.9,13.6-5.4,20.1-8.8c1.1-0.9,2.5-2,2.6-3.5c0.1-1.8-0.8-3.2-2.5-3.9
				c-9.9-2.1-18.1,4.1-25.3,10.2c0.9-4.5,1.6-9.5,3.7-13.7c1.1-1.1,1.7-2.7,3.1-3.5c7-3.5,15.7-4.4,23.6-3.9
				c6.4,0.4,12.4,5,14.5,10.9c1.1,2.8,1.1,5.9,1.3,8.7l0.1,38.3c0.1,3.3,1.6,6.4,3.6,9.1h-18.3c-2.2-2-3.3-4.4-3.9-7.6
				c-5.1,4.5-15.8,11.2-22.2,6.8C265,230.9,258.9,221,260.4,211.6 M292.8,198.3c-0.1-2.6-2-2.9-3.4-2.9c-4.4,0.6-8.1,4.3-10.2,8
				c-1.9,3.4-2.3,6.2-2.5,9.1c0,3.2-0.2,5.5,1.1,7.9c0.7,1.6,2.3,2.3,3.7,2.7c2.8,0.6,5.4-0.2,7.6-1.7c5.2-2.9,4.2-8.7,4.3-13.8
				L292.8,198.3z"/>
			<path d="M563.4,233.7c-2.9,0-5.3-2.4-5.3-5.3c0-2.9,2.4-5.3,5.3-5.3c2.9,0,5.3,2.4,5.3,5.3C568.6,231.3,566.3,233.7,563.4,233.7
				 M563.4,234.8c3.5,0,6.4-2.9,6.4-6.4s-2.8-6.4-6.4-6.4c-3.5,0-6.4,2.9-6.4,6.4C557,231.9,559.8,234.8,563.4,234.8 M563,228.8
				c0.4,0,0.8,0,1.1,0.3c0.3,0.4,0.3,1,0.4,1.6c0.1,0.4,0.2,0.9,0.3,1.3h1.5c-0.3-0.7-0.3-1.5-0.4-2.2c-0.1-0.8-0.2-1.3-1.3-1.5l0,0
				c1-0.2,1.5-0.9,1.5-1.8c0-1.7-1.4-2.1-2.8-2.1h-2.4v7.5h1.2v-3.2L563,228.8L563,228.8z M562,227.6v-1.9h1.4
				c0.9,0,1.2,0.3,1.2,0.9c0,0.6-0.3,1-1.4,1.1H562V227.6z"/>
		</g>
	</g>
</g>
<g id="IBM" class="st1">
	<g class="st2">
		<polygon points="449,147.9 399.3,147.9 402.3,139.3 449,139.3 		"/>
		<path d="M316.4,139.3h46.2l3,8.6h-49.2C316.4,147.9,316.4,139.3,316.4,139.3z"/>
		<path d="M279.7,139.3c7.6,0.7,14.2,3.4,19.9,8.6h-83.7v-8.6H279.7z"/>
		<g>
			<rect x="150.2" y="139.3" width="58.2" height="8.6"/>
			<path d="M179.3,143.6"/>
		</g>
		<path d="M449,164h-55.4l3-8.5H449V164z"/>
		<polygon points="371.3,164 316.4,164 316.4,155.4 368.3,155.4 		"/>
		<path d="M306.1,155.4c1.1,2.8,2.4,5.2,2.4,8.5h-92.6v-8.5H306.1z"/>
		<g>
			<rect x="150.2" y="155.4" width="58.2" height="8.5"/>
			<path d="M179.3,159.7"/>
		</g>
		<polygon points="387.9,180.1 390.9,171.5 432.6,171.5 432.6,180.1 		"/>
		<polygon points="374,171.5 377,180.1 332.8,180.1 332.8,171.5 		"/>
		<path d="M309.3,171.5c0,2.9-0.4,6-1.2,8.6h-25.4v-8.6H309.3z"/>
		<g>
			<rect x="166.4" y="171.6" width="25" height="8.5"/>
			<path d="M178.9,175.8"/>
		</g>
		<g>
			<rect x="232.7" y="171.5" width="25" height="8.6"/>
			<path d="M245.2,175.8"/>
		</g>
		<path d="M357.4,189.3v6.5h-24.6v-8.5h46.8l2.9,8l2.8-8h47.2v8.5H408v-6.5l-2.3,6.5h-46.2L357.4,189.3z"/>
		<path d="M232.7,187.3h71.6l0,0c-1.6,2.9-4.4,6.3-7.1,8.5h-64.5C232.7,195.8,232.7,187.3,232.7,187.3z"/>
		<g>
			<rect x="166.4" y="187.3" width="25" height="8.5"/>
			<path d="M178.9,191.6"/>
		</g>
		<g>
			<rect x="408.1" y="203.4" width="24.5" height="8.5"/>
			<path d="M420.3,207.7"/>
		</g>
		<path d="M357.4,203.4h-24.6v8.5h24.6V203.4z"/>
		<path d="M403.1,203.4c-0.1,0-2.9,8.5-3,8.5h-34.8c0,0-3.1-8.6-3.1-8.5H403.1z"/>
		<path d="M232.7,203.4h64.4c2.9,2.5,5.6,5.5,7.7,8.5c0.1,0-72.1,0-72.1,0C232.7,211.9,232.7,203.4,232.7,203.4z"/>
		<path d="M191.4,211.9v-8.5h-25v8.5H191.4z"/>
		<g>
			<rect x="408.1" y="219.5" width="24.5" height="8.5"/>
			<path d="M420.3,223.8"/>
		</g>
		<g>
			<rect x="332.8" y="219.5" width="24.6" height="8.5"/>
			<path d="M345.1,223.8"/>
		</g>
		<path d="M394.4,228.1c0,0,3-8.6,3.1-8.6h-29.6c-0.1,0,3,8.5,3,8.5L394.4,228.1z"/>
		<path d="M232.7,228v-8.5H258v8.5H232.7z"/>
		<path d="M308.4,219.5c1.2,2.6,1.3,5.6,1.6,8.6h-26.8v-8.6H308.4z"/>
		<g>
			<rect x="166.4" y="219.5" width="25" height="8.5"/>
			<path d="M178.9,223.8"/>
		</g>
		<g>
			<rect x="408.1" y="235.3" width="40.9" height="8.5"/>
			<path d="M428.5,239.5"/>
		</g>
		<g>
			<rect x="316.4" y="235.3" width="41" height="8.5"/>
			<path d="M336.9,239.5"/>
		</g>
		<polygon points="388.9,243.8 376.4,243.8 373.5,235.3 391.8,235.3 		"/>
		<path d="M150.2,235.3v8.5h58.1v-8.5C208.3,235.3,150.1,235.3,150.2,235.3z"/>
		<path d="M308.9,235.3c-0.6,2.8-1.2,6.2-3.2,8.5h-0.8h-89v-8.5H308.9z"/>
		<polygon points="383.3,259.9 382.1,259.9 379.2,251.3 386.3,251.3 		"/>
		<g>
			<rect x="408.1" y="251.3" width="40.9" height="8.6"/>
			<path d="M428.5,255.6"/>
		</g>
		<path d="M215.9,259.9v-8.5c0,0,84,0,84.2,0c-5.6,5.4-13.4,8.4-21.7,8.6L215.9,259.9"/>
		<g>
			<rect x="316.4" y="251.3" width="41" height="8.6"/>
			<path d="M336.9,255.6"/>
		</g>
		<path d="M208.3,251.4v8.5h-58.1v-8.6C150.2,251.4,208.3,251.4,208.3,251.4z"/>
	</g>
</g>
<g id="M-ND" class="st1">
	<g class="st2">
		<path d="M93.7,278.3c137.6,0,275.2,0,412.9,0c0-52.2,0-104.4,0-156.5c-137.6,0-275.2,0-412.9,0C93.7,173.9,93.7,226.1,93.7,278.3z
			 M405.6,169.1c0.6,0,1.1-0.1,1.6-0.1c7.8,0,15.6-0.1,23.5,0c6.7,0.1,12.9,2,17.9,6.7c4.4,4.2,6.8,9.4,7.8,15.2
			c1.3,7.1,1.3,14.3-0.7,21.3c-3.3,11.4-12.7,18.6-24.6,18.8c-8.1,0.1-16.2,0-24.3,0c-0.4,0-0.7-0.1-1.2-0.1
			C405.6,210.3,405.6,189.8,405.6,169.1z M325.6,169.1c3.8,0,7.4,0,11.3,0c8.8,13,17.6,26.2,26.5,39.3c0.1-0.1,0.2-0.1,0.4-0.1
			c0-13,0-26,0-39.1c3.9,0,7.7,0,11.7,0c0,20.6,0,41.1,0,61.9c-2.4,0-10.3,0-10.3,0s-18.4-26.2-26.2-37.7c-0.4-0.6-0.8-1.2-1.2-1.8
			c-0.1,0-0.2,0.1-0.3,0.1c0,13,0,26,0,39.2c-4,0-7.8,0-11.7,0C325.6,210.3,325.6,189.8,325.6,169.1z M233.1,194
			c20.8,0,41.6,0,62.5,0c0,4,0,8,0,12.1c-20.8,0-41.5,0-62.5,0C233.1,202,233.1,198.1,233.1,194z M143.4,169.1c4.6,0,9.1,0,13.9,0
			c5.2,13.9,10.5,27.8,15.7,41.7c0.1,0,0.2,0.1,0.3,0.1c5.3-13.9,10.5-27.9,15.8-41.9c4.7,0,9.2,0,13.9,0c0,20.6,0,41.2,0,61.9
			c-4.1,0-8,0-12.1,0c0-11.4,0-22.8,0-34.1c-0.1,0-0.3-0.1-0.4-0.1c-4.2,11.4-12.5,34.2-12.5,34.2h-9.5c0,0-8.3-22.8-12.5-34.2
			c-0.1,0-0.2,0-0.3,0c0,11.3,0,22.7,0,34.1c-4.1,0-8.1,0-12.2,0C143.4,210.4,143.4,189.8,143.4,169.1z"/>
		<path d="M430.3,219.6c6.5-0.3,10.9-3.7,12.7-10c1.9-6.5,1.9-13.1,0.1-19.6c-1.7-6-5.9-9.3-12.1-9.6c-4.1-0.2-8.3-0.1-12.4-0.1
			c-0.2,0-0.5,0.1-0.7,0.2c0,13.1,0,26,0,39c0.3,0.1,0.5,0.1,0.7,0.1C422.5,219.7,426.4,219.8,430.3,219.6z"/>
	</g>
</g>
<g id="iQ_Media" class="st1">
	<g id="Layer_1_1_" class="st2">
		<g>
			<path d="M254.1,168.3c3.3-2.1,7.1-3,11.2-3c1.5,0,3.1,0.2,4.8,0.4c1.6,0.4,3.2,1,4.8,1.9s3,2.2,4.4,3.7c1.3,1.5,2.5,3.5,3.4,5.9
				c2-3.9,4.6-6.8,7.9-8.9c3.3-2.1,7.4-3,11.9-3c7.2,0,12.5,2.2,16.1,6.5s5.4,9.9,5.4,16.9v34.7h-8.2V192c0-6-1.1-10.8-3.3-14.4
				c-2.2-3.6-6-5.5-11.3-5.5c-3,0-5.5,0.6-7.5,1.8c-2.1,1.2-3.7,2.8-4.9,4.8c-1.3,2-2.2,4.2-2.7,6.7s-0.8,5.1-0.8,7.7v30.1h-8.2
				v-32.9c0-2.8-0.2-5.2-0.6-7.5c-0.4-2.2-1.1-4.2-2.2-5.7c-1-1.6-2.4-2.8-4.2-3.6c-1.8-0.8-4-1.3-6.8-1.3c-2,0-3.9,0.4-5.8,1.3
				c-2,0.9-3.8,2.2-5.3,4c-1.6,1.8-2.9,4.1-3.9,6.9s-1.4,6.1-1.4,9.9v29h-8.2v-44.2c0-1.5,0-3.5-0.1-5.9s-0.2-4.6-0.4-6.5h7.9
				c0.2,1.5,0.3,3.2,0.4,5.1c0.1,1.9,0.1,3.4,0.1,4.6h0.3C248.3,173.1,250.8,170.4,254.1,168.3z"/>
			<path d="M396.9,193.3c0,0.5,0,1.2,0,1.8s0,1.3-0.1,2.1h-47c0.1,2.8,0.6,5.5,1.7,8s2.5,4.7,4.4,6.5c1.9,1.9,4,3.3,6.5,4.4
				c2.5,1.1,5.2,1.6,8.1,1.6c4.3,0,8-1,11-3c3.1-2,5.5-4.2,7.1-6.8l6.2,4.8c-3.4,4.3-7.1,7.4-11.2,9.2c-4,1.9-8.4,2.8-13.1,2.8
				c-4.2,0-8.1-0.7-11.7-2.2s-6.6-3.6-9.2-6.3s-4.7-5.8-6.1-9.4c-1.5-3.6-2.2-7.6-2.2-11.8c0-4.3,0.7-8.2,2.2-11.8
				c1.4-3.6,3.5-6.8,6-9.4c2.6-2.7,5.6-4.8,9.1-6.3s7.3-2.2,11.2-2.2c4.4,0,8.3,0.7,11.7,2.2c3.4,1.5,6.2,3.5,8.4,6
				c2.2,2.5,3.9,5.5,5.1,8.9C396.4,185.8,396.9,189.4,396.9,193.3z M388.6,190.7c-0.3-5.3-2-9.8-5.1-13.3s-7.7-5.3-13.6-5.3
				c-2.8,0-5.3,0.5-7.6,1.5c-2.3,1-4.4,2.4-6.2,4.1s-3.2,3.7-4.2,5.9c-1.1,2.2-1.6,4.6-1.8,7h38.5V190.7z"/>
			<path d="M461.2,213.8c-2.4,3.6-5.6,6.4-9.4,8.2s-7.9,2.8-12,2.8c-4.4,0-8.4-0.8-12-2.3s-6.6-3.6-9.2-6.3
				c-2.5-2.7-4.5-5.8-5.9-9.4c-1.4-3.6-2.2-7.5-2.2-11.7s0.7-8.1,2.2-11.7c1.4-3.6,3.4-6.8,5.9-9.4c2.5-2.7,5.6-4.8,9.2-6.3
				s7.6-2.3,12-2.3c4.1,0,8.1,1,12,2.9s7,4.7,9.4,8.4h0.3V132h8.2v91.4h-8.2v-9.5L461.2,213.8L461.2,213.8z M419.2,195
				c0,3.1,0.4,6.1,1.4,8.9s2.3,5.2,4.2,7.3c1.8,2.1,4,3.7,6.7,4.8s5.6,1.8,9.1,1.8c3.1,0,6-0.6,8.7-1.8s4.9-2.8,6.9-4.8
				s3.4-4.4,4.6-7.2c1.1-2.8,1.6-5.8,1.6-9.1s-0.5-6.3-1.6-9.1s-2.6-5.2-4.6-7.3s-4.2-3.7-6.9-4.8s-5.6-1.8-8.7-1.8
				c-3.4,0-6.5,0.6-9.1,1.8c-2.7,1.2-4.9,2.9-6.7,4.9s-3.2,4.5-4.2,7.3C419.7,188.9,419.2,191.8,419.2,195z"/>
			<path d="M501.1,144c0,2.1-0.7,3.7-2.2,5c-1.4,1.3-3,2-4.8,2s-3.3-0.6-4.8-2c-1.4-1.3-2.2-3-2.2-5c0-2.1,0.7-3.7,2.2-5s3-2,4.8-2
				s3.3,0.6,4.8,2C500.4,140.2,501.1,141.9,501.1,144z M498.2,223.3H490v-56.6h8.2V223.3z"/>
			<path d="M555.8,186.6c0-4.8-1.3-8.5-3.9-10.9s-6.4-3.6-11.2-3.6c-3.4,0-6.5,0.6-9.4,1.8s-5.4,2.9-7.4,4.8l-4.6-5.5
				c2.3-2.3,5.4-4.3,9.2-5.8s8.2-2.3,13-2.3c3,0,5.9,0.4,8.6,1.3c2.7,0.8,5,2.2,7,3.9s3.6,3.9,4.8,6.5s1.7,5.6,1.7,9.1v24.8
				c0,2.2,0.1,4.4,0.3,6.8c0.2,2.3,0.4,4.3,0.7,5.9h-7.4c-0.3-1.3-0.4-2.9-0.6-4.5c-0.2-1.6-0.3-3.2-0.3-4.8H556
				c-2.6,3.8-5.5,6.5-8.8,8.2c-3.2,1.6-7.2,2.5-11.8,2.5c-2.2,0-4.4-0.3-6.7-0.9c-2.3-0.6-4.4-1.6-6.3-3s-3.5-3.1-4.8-5.4
				c-1.3-2.2-1.9-4.8-1.9-8c0-4.4,1.1-7.8,3.3-10.4c2.2-2.5,5.2-4.5,8.9-5.7c3.7-1.3,8-2.1,12.7-2.4c4.8-0.4,9.8-0.5,15-0.5
				L555.8,186.6L555.8,186.6z M553.3,195c-3.4,0-6.8,0.2-10.2,0.4c-3.4,0.3-6.5,0.8-9.3,1.7c-2.8,0.8-5,2.1-6.8,3.7
				c-1.8,1.6-2.7,3.8-2.7,6.5c0,2,0.4,3.7,1.2,5.1c0.8,1.3,1.8,2.5,3,3.3c1.3,0.8,2.7,1.4,4.3,1.8c1.6,0.4,3.1,0.5,4.8,0.5
				c2.9,0,5.5-0.5,7.7-1.5s4.1-2.4,5.6-4.1c1.5-1.7,2.7-3.8,3.5-6s1.3-4.7,1.3-7.2V195H553.3z"/>
		</g>
		<g>
			<path d="M165,190.8c0-4-0.6-7.8-1.9-11.4c-1.3-3.6-3.1-6.6-5.6-9.3c-2.4-2.7-5.3-4.8-8.7-6.4c-3.4-1.5-7.3-2.3-11.5-2.3
				s-8.1,0.8-11.5,2.3c-3.4,1.5-6.4,3.7-8.8,6.4s-4.3,5.7-5.6,9.3c-1.3,3.5-2,7.4-2,11.4c0,4.1,0.6,8,2,11.6
				c1.3,3.6,3.1,6.7,5.6,9.3c2.4,2.6,5.3,4.7,8.7,6.2s7.3,2.3,11.5,2.3c4.1,0,7.9-0.7,11.3-2.3c3.4-1.5,6.4-3.6,8.8-6.2
				c2.4-2.6,4.3-5.7,5.6-9.3C164.3,198.8,165,195,165,190.8z"/>
			<path d="M204.3,130.4H51c-8.5,0-15.4,6.9-15.4,15.4v88.5c0,8.4,6.9,15.4,15.4,15.4h96.9c9.1,13.5,42.6,21.2,43.5,19.7
				c0.8-1.3-9.9-5.5-13.1-17.4h26.1c7.1,0,12.8-5.7,12.8-12.8v-95.9C217.1,136.2,211.4,130.4,204.3,130.4z M86.8,229.5h-10V179h10
				V229.5z M86.5,165.4c-1.3,1.2-2.9,1.8-4.7,1.8s-3.4-0.6-4.7-1.9c-1.3-1.3-1.9-2.8-1.9-4.5c0-1.9,0.6-3.4,1.9-4.7s2.8-1.9,4.7-1.9
				c1.8,0,3.4,0.6,4.7,1.9c1.3,1.3,2,2.8,2,4.7S87.8,164.2,86.5,165.4z M181.7,229.5L181.7,229.5h-44.4c-5.7,0-11-0.9-15.8-2.8
				c-4.8-1.9-9-4.4-12.4-7.8c-3.5-3.3-6.2-7.4-8.1-12.1c-1.9-4.8-2.9-10-2.9-16c0-5.6,1-10.8,3-15.6s4.8-8.8,8.2-12.2
				c3.5-3.4,7.6-6.1,12.4-8s10-2.9,15.7-2.9c5.6,0,10.8,1,15.5,2.9c4.8,1.9,8.9,4.6,12.4,8s6.2,7.4,8.2,12.2s3,9.9,3,15.6
				c0,6.7-1.4,12.6-4.2,17.7c-2.9,5-6.6,9.1-11.3,11.9v0.2h20.8L181.7,229.5L181.7,229.5z"/>
			<path d="M148.5,217.9c-3.4,1.6-7.2,2.3-11.3,2.3c-4.2,0-8.1-0.8-11.5-2.3c-3.4-1.5-6.3-3.6-8.7-6.2c-2.4-2.6-4.2-5.7-5.6-9.3
				c-1.3-3.6-2-7.4-2-11.6c0-4,0.6-7.9,2-11.4c1.3-3.6,3.2-6.6,5.6-9.3s5.4-4.8,8.8-6.4c3.4-1.5,7.3-2.3,11.5-2.3s8.1,0.8,11.5,2.3
				c3.4,1.6,6.3,3.7,8.7,6.4s4.3,5.7,5.6,9.3s1.9,7.4,1.9,11.4c0,4.1-0.7,8-2.1,11.6c-1.3,3.6-3.2,6.7-5.6,9.3
				C154.9,214.3,151.9,216.4,148.5,217.9z"/>
		</g>
	</g>
</g>
<g id="Albert" class="st1">
	<g class="st2">
		<g>
			<line class="st3" x1="213.3" y1="150.8" x2="213.3" y2="247.2"/>
			<rect x="209.9" y="150.8" width="6.9" height="96.4"/>
		</g>
		<path d="M274.4,176.5c-12.2,0-23,6-29.6,15.1v-40.9h-6.9v96.4h6.9V234c6.7,9.2,17.4,15.1,29.6,15.1c20.2,0,36.5-16.3,36.5-36.5
			S294.4,176.5,274.4,176.5z M274.4,242.4c-16.3,0-29.6-13.3-29.6-29.6s13.3-29.6,29.6-29.6s29.6,13.3,29.6,29.6
			S290.7,242.4,274.4,242.4z"/>
		<path d="M356.6,242.4c-16.3,0-29.6-13.3-29.6-29.6l0,0h66.3l-0.5-3.9c-2.1-18.6-17.7-32.6-36.3-32.6c-20.2,0-36.5,16.3-36.5,36.5
			s16.3,36.5,36.5,36.5c14.7,0,27.8-8.7,33.5-22.3l-6.4-2.8C379.3,235.3,368.5,242.4,356.6,242.4z M356.6,183.4
			c13.8,0,25.7,9.4,28.7,22.5h-57.4C331.1,193,342.6,183.4,356.6,183.4z"/>
		<polygon points="464.4,177.9 464.4,150.8 457.6,150.8 457.6,177.9 444.9,177.9 444.9,184.8 457.6,184.8 457.6,247.2 464.4,247.2 
			464.4,184.8 478.9,184.8 478.9,177.9 		"/>
		<path d="M411.2,189.4v-11.5h-6.9v69.3h6.9v-46.6c1.1-2.5,10.8-15.6,23.9-15.6v-6.9C425.4,177.9,416.7,183.6,411.2,189.4z"/>
		<g>
			<path d="M484.6,157.9v1.1h-1.8v5.5h-1.6V159h-1.8v-1.1H484.6z"/>
			<path d="M489,161.8c0,0.2,0,0.2,0.2,0.5c0-0.2,0-0.2,0.2-0.5c0-0.2,0.2-0.2,0.2-0.5l1.6-3.4c0,0,0,0,0-0.2l0,0c0,0,0,0,0.2,0
				s0,0,0.2,0h1.1v6.7h-1.4v-3.9c0-0.2,0-0.5,0-0.7l-1.8,3.4l-0.2,0.2h-0.2H489c-0.2,0-0.2,0-0.2,0l-0.2-0.2l-1.8-3.4v0.2v0.2v3.9
				h-1.4v-6.7h1.1h0.2c0,0,0,0,0.2,0l0,0c0,0,0,0,0,0.2l1.8,3.4C488.8,161.6,488.8,161.8,489,161.8z"/>
		</g>
		<path d="M189,247.2h7.6l-45-93l-44.3,93h7.6l15.4-32.4h42.9L189,247.2z M151.6,170.3l18.4,37.9h-36.3L151.6,170.3z"/>
	</g>
</g>
<g id="Everseen" class="st1">
	<g class="st2">
		<g>
			<g>
				<g>
					<path d="M62.1,149c-28.1,0-50.9,23-50.9,51c0,28.1,22.9,51,51,51.1h26.1c4.1,0,7.9-1.6,10.8-4.5s4.5-6.7,4.5-10.8
						c0-8.4-6.8-15.3-15.3-15.3h-26c-11.3,0-20.5-9.2-20.5-20.5s9.2-20.5,20.5-20.5h25.9c8.4,0,15.3-6.8,15.3-15.2
						S96.7,149,88.3,149C88.2,149,62.5,149,62.1,149z"/>
				</g>
			</g>
			<g>
				<path d="M62.8,184.7c-8.4,0-15.3,6.8-15.3,15.3c0,8.4,6.8,15.3,15.3,15.3h18.4c4.1,0,7.9-1.6,10.8-4.5s4.5-6.7,4.5-10.8
					c0-8.4-6.9-15.3-15.3-15.3H62.8z"/>
			</g>
		</g>
		<g>
			<path d="M131.8,204.5c0.1,4.5,1.1,7.8,2.9,9.8c1.9,2,5.5,3,10.8,3c6.3,0,11.6-0.7,16.1-2.1c0.8-0.4,1.8-0.6,3.1-0.6
				c1.2,0,2,0.6,2.4,1.9c1.1,3.5,1.7,6,1.7,7.4s-0.7,2.4-2,3.1c-2.4,1.3-5.8,2.2-10.2,2.9s-8.6,1-12.5,1c-6.7,0-12.1-1-16.2-2.9
				c-4.1-1.9-7.2-5.1-9.2-9.4c-2.1-4.3-3.1-10.6-3.1-18.9c0-11.3,2.3-19.4,6.9-24.4s11.9-7.5,21.8-7.5c6.8,0,12.1,1.1,15.7,3.4
				c3.7,2.3,6.2,5.5,7.6,9.8c1.4,4.3,2.1,10.5,2.1,18.7c0,2.1-0.4,3.4-1.3,4.1c-0.6,0.5-1.5,0.7-2.9,0.7H131.8z M132.1,192.8h22.4
				l0.1-2c0-2.9-0.3-5.2-1-6.7c-0.7-1.6-1.8-2.7-3.2-3.4c-1.5-0.7-3.6-1.1-6.3-1.1c-4.3,0-7.3,1.1-9.1,3.2S132.2,188.2,132.1,192.8z
				"/>
			<path d="M208.6,229.6h-9.2c-1,0-1.8-0.3-2.6-0.9c-0.8-0.6-1.3-1.3-1.6-2.2L175,174.8c-0.4-1-0.6-2.1-0.6-3.2
				c0-0.6,0.2-1.1,0.7-1.5s1.1-0.7,1.9-0.7h11.3c1.7,0,3,1.1,3.7,3.3c5.9,16.1,10,27.9,12.3,35.3c3.2-9.5,5.6-16.5,7.3-21
				s3.5-9.2,5.4-14.2c0.9-2.3,2.1-3.5,3.6-3.5h10.5c0.9,0,1.6,0.2,2.1,0.7s0.8,1,0.8,1.6c0,0.9-0.2,1.9-0.7,3.1l-20.6,51.9
				C211.8,228.6,210.5,229.6,208.6,229.6z"/>
			<path d="M255.6,204.5c0.1,4.5,1.1,7.8,2.9,9.8c1.9,2,5.5,3,10.8,3c6.3,0,11.6-0.7,16.1-2.1c0.8-0.4,1.8-0.6,3.1-0.6
				c1.2,0,2,0.6,2.4,1.9c1.1,3.5,1.7,6,1.7,7.4s-0.7,2.4-2,3.1c-2.4,1.3-5.8,2.2-10.2,2.9c-4.4,0.7-8.6,1-12.5,1
				c-6.7,0-12.1-1-16.2-2.9c-4.1-1.9-7.2-5.1-9.2-9.4c-2.1-4.3-3.1-10.6-3.1-18.9c0-11.3,2.3-19.4,6.9-24.4c4.6-5,11.9-7.5,21.8-7.5
				c6.8,0,12.1,1.1,15.7,3.4c3.7,2.3,6.2,5.5,7.6,9.8s2.1,10.5,2.1,18.7c0,2.1-0.4,3.4-1.3,4.1c-0.6,0.5-1.5,0.7-2.9,0.7H255.6z
				 M255.9,192.8h22.4l0.1-2c0-2.9-0.3-5.2-1-6.7c-0.7-1.6-1.8-2.7-3.2-3.4c-1.5-0.7-3.6-1.1-6.3-1.1c-4.3,0-7.3,1.1-9.1,3.2
				C257,184.9,256,188.2,255.9,192.8z"/>
			<path d="M322.7,226.2c0,1-0.3,1.7-0.8,2.4c-0.6,0.6-1.3,1-2.3,1h-9.9c-1,0-1.7-0.3-2.2-0.9c-0.5-0.6-0.8-1.4-0.8-2.4v-53
				c0-2.5,1.2-3.8,3.6-3.8h8.8c1,0,1.8,0.2,2.3,0.6c0.5,0.4,0.8,1,0.9,1.9l0.2,1.8c1.1-1.5,3-2.8,5.7-3.9c2.7-1.1,5.6-1.7,8.6-1.7
				c2.4,0,4.1,0.2,5,0.5c0.6,0.2,1.1,0.5,1.5,1.1s0.7,1.3,0.7,2.1c0,1.1-0.1,2.6-0.2,4.6c-0.2,1.9-0.4,3.3-0.6,4
				c-0.2,1.3-1.2,1.9-3,1.9l-6.3-0.4c-1.6,0-3.2,0.2-4.9,0.5c-1.7,0.3-3,0.7-3.9,1.1c-1,0.6-1.7,1.1-2,1.7c-0.2,0.5-0.4,1.2-0.4,2.3
				L322.7,226.2L322.7,226.2z"/>
			<path d="M380.2,194c5.8,1.4,9.9,3.3,12.2,6c2.3,2.6,3.5,6.7,3.5,12.2c0,12.6-8.3,18.8-24.8,18.8c-9.3,0-16.2-1-20.8-2.9
				c-1.5-0.6-2.3-1.6-2.3-3.1c0-1.7,0.5-4.4,1.6-8.1c0.2-0.7,0.6-1.3,1.2-1.7s1.2-0.6,1.9-0.6c0.9,0,2,0.2,3.3,0.6
				c5.2,1.4,10.4,2.1,15.7,2.1c2.5,0,4.6-0.3,6.3-1c1.6-0.7,2.4-2,2.4-4.1c0-1.4-0.4-2.5-1.3-3.3s-2.8-1.4-5.7-2.1l-8.7-1.9
				c-5-1.1-8.8-3-11.5-5.7c-2.6-2.7-3.9-6.8-3.9-12.4c0-5.9,2-10.5,6-13.8s10.1-5,18.5-5c7.7,0,13.6,0.6,17.5,1.8
				c1.6,0.6,2.4,1.6,2.4,3.1c0,1.8-0.5,4.6-1.4,8.3c-0.2,0.6-0.5,1-1,1.4s-1,0.6-1.6,0.6l-3.1-0.4c-4.7-0.9-9-1.3-13-1.3
				c-2.5,0-4.5,0.3-6.2,0.8c-1.7,0.6-2.5,1.8-2.5,3.8c0,1.5,0.4,2.7,1.3,3.5s2.8,1.6,5.8,2.3L380.2,194z"/>
			<path d="M420.7,204.5c0.1,4.5,1.1,7.8,2.9,9.8c1.9,2,5.5,3,10.8,3c6.3,0,11.6-0.7,16.1-2.1c0.8-0.4,1.8-0.6,3.1-0.6
				c1.2,0,2,0.6,2.4,1.9c1.1,3.5,1.7,6,1.7,7.4s-0.7,2.4-2,3.1c-2.4,1.3-5.8,2.2-10.2,2.9c-4.4,0.7-8.6,1-12.5,1
				c-6.7,0-12.1-1-16.2-2.9s-7.2-5.1-9.2-9.4c-2.1-4.3-3.1-10.6-3.1-18.9c0-11.3,2.3-19.4,6.9-24.4s11.9-7.5,21.8-7.5
				c6.8,0,12.1,1.1,15.7,3.4c3.7,2.3,6.2,5.5,7.6,9.8s2.1,10.5,2.1,18.7c0,2.1-0.4,3.4-1.3,4.1c-0.6,0.5-1.5,0.7-2.9,0.7H420.7z
				 M420.9,192.8h22.4l0.1-2c0-2.9-0.3-5.2-1-6.7c-0.7-1.6-1.7-2.7-3.2-3.4s-3.6-1.1-6.3-1.1c-4.3,0-7.3,1.1-9.1,3.2
				C422.1,184.9,421.1,188.2,420.9,192.8z"/>
			<path d="M484.2,204.5c0.1,4.5,1.1,7.8,2.9,9.8c1.9,2,5.5,3,10.8,3c6.3,0,11.6-0.7,16.1-2.1c0.8-0.4,1.8-0.6,3.1-0.6
				c1.2,0,2,0.6,2.4,1.9c1.1,3.5,1.7,6,1.7,7.4s-0.7,2.4-2,3.1c-2.4,1.3-5.8,2.2-10.2,2.9c-4.4,0.7-8.6,1-12.5,1
				c-6.7,0-12.1-1-16.2-2.9s-7.2-5.1-9.2-9.4c-2.1-4.3-3.1-10.6-3.1-18.9c0-11.3,2.3-19.4,6.9-24.4s11.9-7.5,21.8-7.5
				c6.8,0,12.1,1.1,15.7,3.4c3.7,2.3,6.2,5.5,7.6,9.8c1.4,4.3,2.1,10.5,2.1,18.7c0,2.1-0.4,3.4-1.3,4.1c-0.6,0.5-1.5,0.7-2.9,0.7
				H484.2z M484.4,192.8h22.4l0.1-2c0-2.9-0.3-5.2-1-6.7c-0.7-1.6-1.7-2.7-3.2-3.4s-3.6-1.1-6.3-1.1c-4.3,0-7.3,1.1-9.1,3.2
				C485.5,184.9,484.6,188.2,484.4,192.8z"/>
			<path d="M551.2,226.2c0,1-0.3,1.7-0.8,2.4c-0.6,0.6-1.3,1-2.3,1h-9.9c-1,0-1.7-0.3-2.2-0.9c-0.5-0.6-0.8-1.4-0.8-2.4v-53
				c0-2.5,1.2-3.8,3.6-3.8h8.6c0.9,0,1.6,0.1,2.2,0.4c0.6,0.3,1,1.1,1.3,2.3l0.2,1.8c1.8-1.8,4.5-3.3,8.1-4.3c3.5-1,7.2-1.6,11-1.6
				c5.3,0,9.3,0.6,12,1.9c2.7,1.3,4.5,3.1,5.5,5.6c0.9,2.3,1.3,6.2,1.3,11.7v38.9c0,2.2-1,3.3-3.1,3.3H576c-1,0-1.7-0.3-2.2-1
				c-0.5-0.6-0.8-1.4-0.8-2.4v-34.9c0-2.7-0.2-4.7-0.6-5.8c-0.4-1.2-1.2-2.1-2.4-2.6c-1.2-0.6-3-0.8-5.4-0.8c-4,0-7.4,0.6-10.1,1.7
				c-1.1,0.4-1.9,1-2.5,1.7c-0.5,0.8-0.7,1.9-0.7,3.5L551.2,226.2L551.2,226.2z"/>
		</g>
	</g>
</g>
<g id="Guides">
</g>
</svg>
