<?xml version="1.0" encoding="utf-8"?>
<!-- Generator: Adobe Illustrator 21.1.0, SVG Export Plug-In . SVG Version: 6.00 Build 0)  -->
<svg version="1.1" id="Story_Worldwide" xmlns="http://www.w3.org/2000/svg" xmlns:xlink="http://www.w3.org/1999/xlink" x="0px"
	 y="0px" viewBox="0 0 600 400" style="enable-background:new 0 0 600 400;" xml:space="preserve">
<style type="text/css">
	.st0{fill:#FFFFFF;}
</style>
<g>
	<path class="st0" d="M371.6,281.4c7.6,0,11.3-3.4,15.3-11.3c-0.1-0.7-0.3-1.5-0.7-2.4c-5-12-12.1-29.5-12.1-29.5s-12.3,0-12.3,9.6
		c0,5.7,0,12.6,0,15.6h8.3v6.9h-23.6v-6.9h8.4v-25.2h-8.4v-6.9h15.3v2.8c2.9-2.1,6.1-2.7,7.7-2.8c0.7-0.1,7.7,0,7.7,0l11.3,0v6.9
		h-6.3l9.2,21.5l8.3-21.5h-6v-6.9h19.7c2.5-9.6,3.9-19.6,3.9-29.9c0-64.2-52.1-116.3-116.3-116.3s-116.3,52.1-116.3,116.3
		s52.1,116.3,116.3,116.3c29.7,0,56.8-11.2,77.4-29.5c-2,0.6-4.2,0.9-6.7,0.9V281.4z M268.5,271.5c-3.6,0-7.2-1.3-10.2-2.6v1.5h-6.8
		v-12.3h6.8v2.1c2.4,1.5,6.8,3.6,10.2,3.6c7.6,0,7.6-2.1,7.6-4.2c0-2.7-1.7-3.7-9.1-5l-1-0.2c-11.6-2.2-14.1-7.8-14.1-12.1
		c0-5.7,3.6-12.3,13.7-12.3c3.7,0,7.1,1.2,9.8,2.6v-1.3h6.8v11.2l-6.8,0v-0.9c-1.5-1.2-5.6-3.9-9.8-3.9c-6,0-6,3.5-6,4.6
		c0,2.5,4.3,3.9,7.9,4.5l0.9,0.2c6.1,1.1,15.4,2.9,15.4,12.6C283.8,267.5,278.7,271.5,268.5,271.5z M306,237.9h-8.4
		c0,0,0,24.4,0,24.9c0,1.9,1.3,1.9,1.3,1.9l7,0v5.8c0,0-4.1,1.4-7.2,1.4c-8.2,0-8.2-8.2-8.2-8.2v-25.5H285v-7.2h5.6v-5.4l7-7l0,12.4
		h8.4V237.9z M326.8,271.9c-11.4,0-20.6-9.2-20.6-20.6s9.2-20.6,20.6-20.6c11.4,0,20.6,9.2,20.6,20.6S338.2,271.9,326.8,271.9z"/>
	<circle class="st0" cx="326.8" cy="251.3" r="13.2"/>
</g>
</svg>
