<?xml version="1.0" encoding="utf-8"?>
<!-- Generator: Adobe Illustrator 21.1.0, SVG Export Plug-In . SVG Version: 6.00 Build 0)  -->
<svg version="1.1" id="TalentSky" xmlns="http://www.w3.org/2000/svg" xmlns:xlink="http://www.w3.org/1999/xlink" x="0px" y="0px"
	 viewBox="0 0 600 400" style="enable-background:new 0 0 600 400;" xml:space="preserve">
<style type="text/css">
	.st0{fill:#FFFFFF;}
</style>
<g>
	<path class="st0" d="M377.5,153.3c0,0,18.3-14.3,52-14.3s51.3,14.5,90.6,14.5c26.5,0,42.7-9.3,42.7-9.3s-14.9,14-51.3,14
		c-40.3,0-50.2-14.5-90.6-14.5C396.5,143.7,377.5,153.3,377.5,153.3z"/>
	<g>
		<path class="st0" d="M105.2,171.5h-22v-7.8h53.3v7.8h-22v65.1h-9.3V171.5z"/>
		<path class="st0" d="M193.3,167.5h9.1v58.9c0,1.5,0.3,2.5,0.8,3.1c0.5,0.6,1.1,0.9,1.8,0.9c0.3,0,0.6,0,0.8,0
			c0.3,0,0.6-0.1,1.2-0.2l1.2,6.9c-0.6,0.3-1.3,0.5-2.1,0.7c-0.8,0.1-1.9,0.2-3.1,0.2c-3.5,0-6-1-7.4-3.1c-1.5-2.1-2.2-5.1-2.2-9.1
			V167.5z"/>
		<path class="st0" d="M217.8,209.8c0-4.4,0.7-8.4,2.1-11.9c1.4-3.5,3.2-6.5,5.4-8.9c2.3-2.4,4.8-4.3,7.7-5.6c2.9-1.3,5.9-1.9,9-1.9
			c3.4,0,6.5,0.6,9.2,1.8c2.7,1.2,5,2.9,6.8,5.1c1.8,2.2,3.2,4.9,4.2,8c1,3.1,1.4,6.6,1.4,10.4c0,2-0.1,3.7-0.3,5h-36.4
			c0.4,5.9,2.2,10.5,5.4,13.9c3.2,3.4,7.4,5.1,12.6,5.1c2.6,0,5-0.4,7.2-1.2c2.2-0.8,4.3-1.8,6.3-3.1l3.2,6c-2.4,1.5-5,2.8-7.9,3.9
			c-2.9,1.1-6.2,1.7-9.9,1.7c-3.6,0-7-0.6-10.2-1.9c-3.1-1.3-5.9-3.1-8.2-5.6c-2.3-2.4-4.2-5.4-5.5-8.8
			C218.5,218.2,217.8,214.2,217.8,209.8z M255.6,205.7c0-5.6-1.2-9.8-3.5-12.7c-2.3-2.9-5.6-4.4-9.8-4.4c-1.9,0-3.8,0.4-5.5,1.2
			c-1.7,0.8-3.3,1.9-4.7,3.3c-1.4,1.4-2.6,3.2-3.5,5.3c-0.9,2.1-1.5,4.5-1.8,7.3H255.6z"/>
		<path class="st0" d="M277,182.7h7.6l0.8,7.8h0.3c2.6-2.6,5.3-4.8,8.2-6.5c2.9-1.7,6.2-2.6,9.9-2.6c5.7,0,9.9,1.8,12.5,5.3
			c2.6,3.6,3.9,8.8,3.9,15.8v34.2h-9.1v-33c0-5.1-0.8-8.8-2.4-11.1c-1.6-2.3-4.2-3.4-7.8-3.4c-2.8,0-5.3,0.7-7.4,2.1
			c-2.1,1.4-4.6,3.5-7.3,6.2v39.1H277V182.7z"/>
		<path class="st0" d="M338.5,190.1h-8v-6.9l8.4-0.6l1.1-15.1h7.7v15.1h14.6v7.4h-14.6v30c0,3.3,0.6,5.9,1.8,7.7
			c1.2,1.8,3.4,2.7,6.5,2.7c1,0,2-0.1,3.1-0.4c1.1-0.3,2.1-0.6,3-1l1.8,6.9c-1.5,0.5-3.1,1-4.8,1.4c-1.7,0.4-3.5,0.6-5.2,0.6
			c-2.9,0-5.3-0.4-7.3-1.3c-2-0.9-3.6-2.1-4.8-3.7c-1.2-1.6-2.1-3.4-2.6-5.7c-0.5-2.2-0.8-4.7-0.8-7.3V190.1z"/>
		<path class="st0" d="M381.7,223.4c2.7,3,5.9,5.4,9.6,7.2c3.7,1.8,7.7,2.7,11.9,2.7c5.6,0,10.1-1.4,13.3-4.1
			c3.3-2.7,4.9-6.2,4.9-10.6c0-2.3-0.4-3.8-1.1-5.4c-0.7-1.6-1.6-2.9-2.8-4.1c-1.2-1.1-2.6-2.1-4.2-3c-1.6-0.9-3.3-1.7-5.1-2.5
			l-11.1-5c-1.6-0.7-3.3-1.5-5.1-2.4c-1.7-1-3.3-2.2-4.8-3.6c-1.4-1.4-2.6-3.1-3.6-5.1c-1-2-1.4-4.3-1.4-7.1c0-2.7,0.5-5.1,1.6-7.3
			c1.1-2.2,2.6-4.1,4.4-5.7c1.9-1.6,4.1-2.8,6.8-3.7c2.6-0.9,5.5-1.3,8.5-1.3c14.6,0,20.1,11.9,20.1,11.9s-7-7.2-20.1-7.2
			c-4.9,0-8.8,1.2-11.8,3.6c-3,2.4-4.4,5.6-4.4,9.6c0,2.1,0.4,4,1.2,5.4c0.8,1.5,1.9,2.8,3.1,3.8c1.3,1.1,2.6,2,4.1,2.8
			c1.5,0.8,2.9,1.5,4.2,2.1l11.1,4.9c2.1,0.9,4,1.9,5.9,3c1.9,1.1,3.5,2.4,4.9,3.9c1.4,1.5,2.5,3.2,3.4,5.3c0.9,2,1.3,4.1,1.3,6.9
			c0,2.8-0.6,5.4-1.7,7.8c-1.1,2.4-2.7,4.5-4.7,6.2c-2,1.7-4.5,3.1-7.4,4.1c-2.9,1-6.1,1.5-9.7,1.5c-5.3,0-10.1-1-14.2-3.1
			c-4.1-2-7.7-4.7-10.6-7.9L381.7,223.4z"/>
		<path class="st0" d="M437.1,165.4h4.9v50.3h0.2l26.3-32.3h5.7l-17.3,21.1l20.2,32.2h-5.4l-17.7-28.6l-12,14v14.6h-4.9V165.4z"/>
		<path class="st0" d="M497.1,252.4c2.1-2.8,4-6,5.3-10.1l1.4-4.7L482,183.3h5.3l12.9,33.6c0.8,2.2,1.7,4.7,2.7,7.3
			c1,2.7,2,5.2,3.1,7.6h0.4c0.8-2.4,1.6-4.9,2.5-7.6c0.9-2.7,1.6-5.1,2.4-7.3l11.4-33.6h5l-21.1,60c-0.7,2.2-1.6,4.4-2.7,6.5
			c-1.1,2.1-2.3,4-3.8,5.7c-1.4,1.7-3.1,3-5,4c-1.9,1-4,1.5-6.4,1.5c-3.1,0-6.4-1.5-8-2.2C480.8,258.8,490.9,260.9,497.1,252.4z"/>
	</g>
	<path class="st0" d="M169.8,182.8l-1.2,5c-0.2-0.3-3.8-6.8-14.8-6.8c-11.2,0-23.5,10.1-23.5,28.6c0,18.6,9.4,28.7,22.2,28.7
		c12.3,0,15.9-7.1,16.1-7.6l0,5.5h9.1l0-53.5H169.8z M154.8,229.9c-10.4,0-14.9-9.9-14.9-19.9c0-10,5.8-20.5,14.7-20.5
		c7.7,0,12.7,5.2,14,6.6l0,25C168,222.5,164.3,229.9,154.8,229.9z"/>
</g>
</svg>
