<?xml version="1.0" encoding="UTF-8"?> <svg xmlns="http://www.w3.org/2000/svg" width="50" height="50" viewBox="0 0 50 50"><defs><style>.cls-1,.cls-2,.cls-4,.cls-5,.cls-6{fill:none;}.cls-1,.cls-2,.cls-3,.cls-4,.cls-5,.cls-6{stroke:#231f20;}.cls-1,.cls-6{stroke-linecap:round;}.cls-1,.cls-2,.cls-6{stroke-linejoin:round;}.cls-3{fill:#5b58a0;}.cls-3,.cls-4,.cls-5{stroke-miterlimit:10;}.cls-5,.cls-6{stroke-width:0.5px;}</style></defs><g id="Lunch"><path class="cls-1" d="M13.38,10.81,9.2,37.62,28,46l11.73-6.75s-3-20.54-4.33-24c-.58-1.49-4.62-3.31-8.56-5.41C21.66,7.07,16.3,4.15,16.3,4.15s-1.69-1.26-3.44,1.38C12,6.91,11.09,9.36,12.08,10,12.65,10.4,13.38,10.81,13.38,10.81Z"></path><polyline class="cls-2" points="39.77 39.27 33.92 37.62 28.04 46.02 31.93 20.13"></polyline><path class="cls-1" d="M12.65,10.38s16.67,9.12,18.11,9.84c2.33,1.11,2.64-1,2.64-1l.52,18.44"></path><path class="cls-2" d="M35.44,15.26a2.46,2.46,0,0,0-3.73.75s-2.08,3-.51,4.21c1.28,1,2.2-1,2.2-1"></path><path class="cls-3" d="M15.05,26.67a3.81,3.81,0,0,0-.27.66C14,29.85,15.83,32.79,19,34.1s6.3.36,7.09-2.6C26.11,31.23,15.05,26.67,15.05,26.67Z"></path><path class="cls-4" d="M21.43,34.73l-.24,1.47a.31.31,0,0,1-.46.2l-4.28-1.95a.43.43,0,0,1-.24-.5l.32-1.6"></path><path class="cls-5" d="M17.32,27.41a.87.87,0,0,1,1.13-.53.94.94,0,0,1,.47,1.21"></path><path class="cls-5" d="M16.14,26.93A2.23,2.23,0,0,1,19,25.59a2.33,2.33,0,0,1,1.14,3"></path><path class="cls-5" d="M21.06,29.22a1.23,1.23,0,0,1,1.57-.92,1.51,1.51,0,0,1,.81,1.82"></path><path class="cls-5" d="M20.28,27.22a2.82,2.82,0,0,1,2.86-.72,3.72,3.72,0,0,1,2,4.5"></path><line class="cls-1" x1="19.12" y1="22.82" x2="28.18" y2="25.82"></line><line class="cls-1" x1="19.29" y1="21.58" x2="28.85" y2="22.41"></line><path class="cls-6" d="M20,21.66s-.65,1.92-.26,2.5.59.71.47,1.14-.77.49-.77.49"></path><path class="cls-5" d="M20.7,21.91s.56,2.23.8,3.13a9.83,9.83,0,0,0,.59,1.33"></path></g></svg> 