<?xml version="1.0" encoding="UTF-8"?> <svg xmlns="http://www.w3.org/2000/svg" id="Map" width="50" height="50" viewBox="0 0 50 50"><defs><style>.cls-1,.cls-2,.cls-3,.cls-4,.cls-5,.cls-7,.cls-8,.cls-9{fill:none;stroke:#231f20;}.cls-1,.cls-2,.cls-3,.cls-7{stroke-linecap:round;stroke-linejoin:round;}.cls-2,.cls-5{stroke-width:0.75px;}.cls-3,.cls-4{stroke-width:0.5px;}.cls-4,.cls-5,.cls-8{stroke-miterlimit:10;}.cls-6{fill:#5b58a0;}.cls-7{stroke-width:0.75px;}.cls-9{stroke-miterlimit:10;}</style></defs><line class="cls-1" x1="27.23" y1="12.88" x2="33.77" y2="16.63"></line><line class="cls-1" x1="21.37" y1="19.62" x2="22.99" y2="17.13"></line><polyline class="cls-1" points="43.05 21.91 50.01 25.87 43.06 36.42 37.08 35.64 31.57 43.2 24.16 40.58 0.5 26.9 7.7 29.61 13.25 21.97 16.03 23.57 17.96 23.01"></polyline><line class="cls-2" x1="7.7" y1="29.61" x2="31.57" y2="43.2"></line><line class="cls-2" x1="13.25" y1="21.97" x2="36.85" y2="35.54"></line><path class="cls-3" d="M33,33.38l-1.42-.75-6.12,5.45-3.54-2,3-7.55L23.5,28l-1,2.4L17.15,31a6.1,6.1,0,0,0-1.78-1.37,4.21,4.21,0,0,0-5.63,1.2l1.24.84a2.71,2.71,0,0,1,3.69-.72,3.33,3.33,0,0,1,1.83,1.92,2.23,2.23,0,0,1-.25,1.56l1.24.85a3.77,3.77,0,0,0,.49-2.8v-.11l4-.42-1.89,4.81,11.59,6.67.74-1.3L26.8,38.86Z"></path><polygon class="cls-3" points="31.59 32.35 33.47 32.68 23.41 27.65 29.69 28.6 30.95 29.38 28.31 29.19 35.83 32.89 37.47 32.92 38.71 33.71 33.34 33.39 31.59 32.35"></polygon><line class="cls-3" x1="25.44" y1="26.2" x2="17.5" y2="24.41"></line><line class="cls-3" x1="22.57" y1="24.5" x2="16.92" y2="23.29"></line><path class="cls-3" d="M25.86,26.43l4.83.67-1,1.5,1.26.78.4-.63L36.5,27V27a2.93,2.93,0,0,0,2.07,2.75l-1.1,3.14,1.24.79,1.43-3.85a2.94,2.94,0,0,0,2.35-2.75l6.76-1.73-2.07-1.09-5,1.38a3,3,0,0,0-2.63-1.54,3.11,3.11,0,0,0-1.72.53l-1.71-3.19.61-.95m-7.88-2.94,4.88-.94-1.91-1.12-3.26.63m7.14,3.23-4.1,6.35-4.51-.66m8.09-2.13,1.33,2.44L32.7,26.69Zm4.36,5.53a1.41,1.41,0,1,1,1.5-1.4,1.45,1.45,0,0,1-1.5,1.4Z"></path><polygon class="cls-4" points="10.02 26.45 17.38 26.37 16.67 24.99 11.06 25.08 10.02 26.45"></polygon><path class="cls-5" d="M39.77,19a4.64,4.64,0,0,1-2.39-4.14"></path><path class="cls-2" d="M35.36,12.2l-.87-.56,1.63-.94a3.79,3.79,0,0,1,3.57.21,8.78,8.78,0,0,1,4.34,8,4.08,4.08,0,0,1-.25,1.24A5.15,5.15,0,0,1,42.65,22L39.46,25.1l-1.61.8"></path><path class="cls-6" d="M37.64,11.94c-2.5-1.46-4.52-.27-4.52,2.61A6.1,6.1,0,0,0,33.36,16a17.69,17.69,0,0,0,1.18,3.29l3.07,6.55a.06.06,0,0,0,.08,0h0l3-3a5.07,5.07,0,0,0,1.2-1.94,3.7,3.7,0,0,0,.23-1.19A10,10,0,0,0,37.64,11.94Zm0,7.91a4.64,4.64,0,0,1-2.08-3.61A1.3,1.3,0,0,1,37.67,15a4.63,4.63,0,0,1,2.08,3.61,1.3,1.3,0,0,1-2.12,1.22Z"></path><path class="cls-2" d="M37.77,11.92c-2.51-1.45-4.52-.27-4.52,2.61A6.1,6.1,0,0,0,33.49,16a17.58,17.58,0,0,0,1.12,3.3l3.07,6.54m.08,0h0l3-3a5,5,0,0,0,1.13-1.93,3.7,3.7,0,0,0,.23-1.19c.19-3.83-1.78-6.05-4.39-7.81"></path><ellipse class="cls-7" cx="37.71" cy="17.42" rx="1.83" ry="2.93" transform="translate(-3.83 17.19) rotate(-24.48)"></ellipse><path class="cls-1" d="M14.33,8.55l2.32-1.34C18,6.31,20,6.45,22,7.6a14.7,14.7,0,0,1,7.06,12.1v.15a6.35,6.35,0,0,1-.37,1.93,7.91,7.91,0,0,1-1.91,3.08c-3.8,3.74-4.7,4.63-4.94,4.8l-2.42,1.42L24.52,21l-2-6.94Z"></path><path class="cls-1" d="M22.14,20.43A7.29,7.29,0,0,1,18.42,14"></path><path class="cls-6" d="M19.24,9.12c-3.95-2.32-7.14-.43-7.14,4.12a10,10,0,0,0,.37,2.31,28.3,28.3,0,0,0,1.87,5.2L19.18,31.1a.11.11,0,0,0,.13,0h0l4.8-4.71A8,8,0,0,0,26,23.32a6.1,6.1,0,0,0,.37-1.89A15.78,15.78,0,0,0,19.24,9.12Zm0,12.49A7.31,7.31,0,0,1,16,15.91c0-2.06,1.55-3,3.34-1.93a7.32,7.32,0,0,1,3.28,5.7c0,2.06-1.57,3-3.35,1.93Z"></path><path class="cls-8" d="M19.24,9.12c-3.95-2.32-7.14-.43-7.14,4.12a10,10,0,0,0,.37,2.31,28.3,28.3,0,0,0,1.87,5.2L19.18,31.1a.11.11,0,0,0,.13,0h0l4.8-4.71A8,8,0,0,0,26,23.32a6.1,6.1,0,0,0,.37-1.89A15.78,15.78,0,0,0,19.24,9.12Z"></path><ellipse class="cls-9" cx="19.29" cy="17.84" rx="2.72" ry="4.54" transform="translate(-5.66 9.6) rotate(-24.48)"></ellipse><line class="cls-3" x1="43.06" y1="36.01" x2="25.11" y2="26.14"></line></svg> 