<?xml version="1.0" encoding="utf-8"?>
<!-- Generator: Adobe Illustrator 21.1.0, SVG Export Plug-In . SVG Version: 6.00 Build 0)  -->
<svg version="1.1" id="Layer_2" xmlns="http://www.w3.org/2000/svg" xmlns:xlink="http://www.w3.org/1999/xlink" x="0px" y="0px"
	 viewBox="0 0 120 120" style="enable-background:new 0 0 120 120;" xml:space="preserve">
<style type="text/css">
	.st0{opacity:0.49;}
	.st1{opacity:0.38;}
	.st2{fill:#666766;}
	.st3{opacity:0.4;}
	.st4{opacity:0.36;}
</style>
<g class="st0">
	<g class="st1">
		<g>
			<path class="st2" d="M46.5,72.1l3.3-2.6l0,0l2.9,1.7L46.5,72.1z M49.9,69.5L46.7,72l6-0.9L49.9,69.5z"/>
		</g>
		<g>
			<path class="st2" d="M106.7,92.6L106.7,92.6l1.6-2l3-1.7l0,0L106.7,92.6z M108.3,90.6l-1.5,1.8l4.2-3.3L108.3,90.6z"/>
		</g>
		<g>
			<path class="st2" d="M108.3,90.7l2-5.3l0,0.1l1.1,3.5L108.3,90.7z M110.3,85.5l-1.9,5l2.9-1.6L110.3,85.5z"/>
		</g>
		<g>
			<path class="st2" d="M106.7,92.6L106.7,92.6l-3.7-1.1l0,0l5.3-0.8L106.7,92.6z M103.2,91.5l3.6,1.1l1.5-1.9L103.2,91.5z"/>
		</g>
		<g>
			<path class="st2" d="M109.1,81.9l-4.9-2.5l0,0l1.3-4.1l0,0.1L109.1,81.9z M104.2,79.4l4.7,2.4l-3.5-6.4L104.2,79.4z"/>
		</g>
		<g>
			<path class="st2" d="M88.8,115.3l-1.8-2.7l0,0l8.3-7.9l0,0L88.8,115.3z M87.1,112.6l1.7,2.6l6.4-10.3L87.1,112.6z"/>
		</g>
		<g>
			<path class="st2" d="M110.3,85.5l-4.1-2.3l2.8-1.4l0,0L110.3,85.5z M106.3,83.2l3.9,2.2l-1.2-3.5L106.3,83.2z"/>
		</g>
		<g>
			<path class="st2" d="M108.3,90.7L108.3,90.7l-2.1-7.5l4.1,2.3l0,0L108.3,90.7z M106.3,83.3l2,7.3l1.9-5.1L106.3,83.3z"/>
		</g>
		<g>
			<path class="st2" d="M102.3,87.9L102.3,87.9l1.9-8.5l2.1,3.9l0,0L102.3,87.9z M104.2,79.5l-1.9,8.3l3.9-4.5L104.2,79.5z"/>
		</g>
		<g>
			<path class="st2" d="M50.7,78.7L50.7,78.7L46.6,72l6.2-1L50.7,78.7z M46.6,72.1l4,6.5l2-7.5L46.6,72.1z"/>
		</g>
		<g>
			<path class="st2" d="M103,91.5L103,91.5l-0.8-3.6l6.2,2.8L103,91.5z M102.3,87.9l0.8,3.5l5.2-0.8L102.3,87.9z"/>
		</g>
		<g>
			<path class="st2" d="M108.4,90.7L108.4,90.7l-6.2-2.8l0,0l4-4.7L108.4,90.7z M102.3,87.9l6,2.7l-2.1-7.3L102.3,87.9z"/>
		</g>
		<g>
			<path class="st2" d="M97.2,73.8l5.2-9.7l4.5,4.5L97.2,73.8z M102.5,64.1l-5.1,9.5l9.6-5.1L102.5,64.1z"/>
		</g>
		<g>
			<path class="st2" d="M83.8,116.8l3.3-4.3l1.8,2.7l0,0L83.8,116.8z M87,112.6l-3.1,4.1l4.9-1.5L87,112.6z"/>
		</g>
		<g>
			<path class="st2" d="M106.2,83.3L106.2,83.3l-2.1-3.9l4.9,2.5L106.2,83.3z M104.2,79.5l2,3.7l2.7-1.3L104.2,79.5z"/>
		</g>
		<g>
			<path class="st2" d="M101.9,76.1L101.9,76.1l-4.6-2.4l9.7-5.2l0,0L101.9,76.1z M97.4,73.7l4.5,2.4l5-7.5L97.4,73.7z"/>
		</g>
		<g>
			<path class="st2" d="M95.4,84.4L95.4,84.4l6.5-8.3l2.3,3.4L95.4,84.4z M101.9,76.2l-6.4,8.2l8.6-4.9L101.9,76.2z"/>
		</g>
		<g>
			<path class="st2" d="M99.5,93.1l-6-2.8l8.8-2.4L99.5,93.1z M93.6,90.3l5.9,2.7l2.7-5.1L93.6,90.3z"/>
		</g>
		<g>
			<path class="st2" d="M87,112.6L87,112.6l4.4-12.6l0,0l3.9,4.6l0,0L87,112.6z M91.5,100.1l-4.4,12.4l8.2-7.8L91.5,100.1z"/>
		</g>
		<g>
			<path class="st2" d="M59.6,80.6L59.6,80.6l-6.5-0.2l0,0L52.7,71l0,0.1L59.6,80.6z M53.2,80.3l6.3,0.2l-6.8-9.3L53.2,80.3z"/>
		</g>
		<g>
			<path class="st2" d="M104.2,79.5l-2.3-3.4l3.6-0.7L104.2,79.5z M101.9,76.1l2.2,3.3l1.2-4L101.9,76.1z"/>
		</g>
		<g>
			<path class="st2" d="M101.8,76.2l5.1-7.6l0,0l-1.6,6.8l0,0L101.8,76.2z M106.9,68.7l-5,7.4l3.5-0.7L106.9,68.7z"/>
		</g>
		<g>
			<path class="st2" d="M98.3,99L98.3,99l-4.8-8.8l6,2.8l0,0L98.3,99z M93.6,90.3l4.7,8.6l1.2-5.8L93.6,90.3z"/>
		</g>
		<g>
			<path class="st2" d="M91.4,100.1l2.1-9.9l0,0.1l4.8,8.7L91.4,100.1z M93.6,90.4l-2.1,9.7l6.8-1.1L93.6,90.4z"/>
		</g>
		<g>
			<path class="st2" d="M83.9,116.8L83.9,116.8l-3.2-0.2l0,0l-1.8-5.8l0,0L83.9,116.8z M80.7,116.5l3.1,0.2l-4.8-5.8L80.7,116.5z"/>
		</g>
		<g>
			<path class="st2" d="M83.8,116.8l-5-6.1l0.1,0l8.2,1.8L83.8,116.8z M78.9,110.8l4.9,5.9l3.2-4.1L78.9,110.8z"/>
		</g>
		<g>
			<path class="st2" d="M93.5,90.3L93.5,90.3l1.9-6l0,0l6.9,3.5l-0.1,0L93.5,90.3z M95.4,84.4l-1.8,5.8l8.6-2.4L95.4,84.4z"/>
		</g>
		<g>
			<path class="st2" d="M91.5,100.1l-3.7-4.2l0,0l5.8-5.7l0,0.1L91.5,100.1z M87.8,95.9l3.6,4.1l2.1-9.7L87.8,95.9z"/>
		</g>
		<g>
			<path class="st2" d="M91.9,79.1l-5.2-0.2l2.2-6.4L91.9,79.1z M86.7,78.8l5.1,0.2l-2.9-6.4L86.7,78.8z"/>
		</g>
		<g>
			<path class="st2" d="M76,103.4l-3-3.8l0,0l1.7-4.5L76,103.4L76,103.4z M73.1,99.5l2.9,3.7l-1.3-8L73.1,99.5z"/>
		</g>
		<g>
			<path class="st2" d="M87.1,112.6L87.1,112.6l-8.2-1.8l0,0l4.7-11.2L87.1,112.6z M78.9,110.8l8.1,1.8l-3.5-12.9L78.9,110.8z"/>
		</g>
		<g>
			<path class="st2" d="M95.4,84.4L95.4,84.4l1.9-10.7l0,0l4.6,2.4l0,0L95.4,84.4z M97.3,73.8l-1.9,10.6l6.4-8.2L97.3,73.8z"/>
		</g>
		<g>
			<path class="st2" d="M87,112.7l-3.6-13.1l0,0l8,0.5l0,0L87,112.7z M83.5,99.6l3.5,12.9l4.4-12.4L83.5,99.6z"/>
		</g>
		<g>
			<path class="st2" d="M86.7,78.8L86.7,78.8l-3.3-2l0,0l5.5-4.4L86.7,78.8z M83.4,76.9l3.2,1.9l2.1-6.2L83.4,76.9z"/>
		</g>
		<g>
			<path class="st2" d="M91.5,100.1l-8.1-0.5l0,0l4.3-3.7l0,0L91.5,100.1z M83.6,99.6l7.8,0.5L87.8,96L83.6,99.6z"/>
		</g>
		<g>
			<path class="st2" d="M97.3,73.8L94.7,70l0,0l7.7-5.9l0,0L97.3,73.8z M94.8,70l2.5,3.6l5.1-9.5L94.8,70z"/>
		</g>
		<g>
			<path class="st2" d="M69.7,83.2L69.7,83.2l4-6.3l3.1,5.2l0,0L69.7,83.2z M73.7,77l-3.9,6.2l6.9-1.1L73.7,77z"/>
		</g>
		<g>
			<path class="st2" d="M112.3,57.8l-5.2-2.6l0,0l-0.4-7.1l0,0L112.3,57.8z M107.2,55.1l5,2.5l-5.4-9.5L107.2,55.1z"/>
		</g>
		<g>
			<path class="st2" d="M107.1,55.2l-9.1-3.3l2.4-3.5l0,0L107.1,55.2L107.1,55.2z M98.1,51.9l8.9,3.2l-6.6-6.7L98.1,51.9z"/>
		</g>
		<g>
			<path class="st2" d="M59.6,80.6L59.6,80.6L52.6,71l0.1,0l10.5,4.3l0,0L59.6,80.6z M52.8,71.2l6.8,9.3l3.6-5.1L52.8,71.2z"/>
		</g>
		<g>
			<path class="st2" d="M78.9,110.8l-4.9-2.2l2-5.3L78.9,110.8z M74.1,108.6l4.7,2.2l-2.8-7.3L74.1,108.6z"/>
		</g>
		<g>
			<path class="st2" d="M78.9,110.9L78.9,110.9l-2.9-7.5l0,0l7.5-3.8L78.9,110.9z M76.1,103.4l2.8,7.4l4.6-11.1L76.1,103.4z"/>
		</g>
		<g>
			<path class="st2" d="M104.1,59.7L104.1,59.7L98,51.8l9.2,3.3l0,0L104.1,59.7z M98.2,51.9l6,7.7l3-4.4L98.2,51.9z"/>
		</g>
		<g>
			<path class="st2" d="M107.2,55.2l-6.8-6.9l6.3-0.3l0,0L107.2,55.2z M100.5,48.4l6.6,6.7l-0.4-7L100.5,48.4z"/>
		</g>
		<g>
			<path class="st2" d="M75.6,85.5l-6-2.3l7.1-1.1L75.6,85.5z M69.8,83.2l5.8,2.3l1.1-3.3L69.8,83.2z"/>
		</g>
		<g>
			<path class="st2" d="M83.5,99.7L83.5,99.7l-1.1-9.4l5.5,5.6L83.5,99.7z M82.4,90.4l1.1,9.1l4.2-3.7L82.4,90.4z"/>
		</g>
		<g>
			<path class="st2" d="M87.8,96L87.8,96l-5.5-5.6l0,0l5.9-5.3L87.8,96z M82.4,90.4l5.4,5.5l0.5-10.6L82.4,90.4z"/>
		</g>
		<g>
			<path class="st2" d="M94.7,70.1l0.7-8.7l0,0l7.1,2.7l0,0L94.7,70.1z M95.5,61.4L94.8,70l7.6-5.9L95.5,61.4z"/>
		</g>
		<g>
			<path class="st2" d="M97.4,73.7l-8.6-1.2l0.1,0l5.9-2.5l0,0L97.4,73.7z M88.9,72.5l8.3,1.2L94.7,70L88.9,72.5z"/>
		</g>
		<g>
			<path class="st2" d="M91.8,79.1l-3-6.6l8.6,1.2l0,0L91.8,79.1z M88.9,72.6l3,6.4l5.4-5.3L88.9,72.6z"/>
		</g>
		<g>
			<path class="st2" d="M95.4,61.4l2.7-9.6l6.1,7.8l0,0L95.4,61.4z M98.1,51.9l-2.6,9.4l8.6-1.7L98.1,51.9z"/>
		</g>
		<g>
			<path class="st2" d="M83.4,76.9L83.4,76.9l2.6-8.6l2.9,4.2l0,0L83.4,76.9z M85.9,68.5l-2.5,8.3l5.3-4.3L85.9,68.5z"/>
		</g>
		<g>
			<path class="st2" d="M74.7,95.2L74.7,95.2L70.1,93l0,0l5.6-7.6L74.7,95.2z M70.1,93l4.6,2.1l0.9-9.5L70.1,93z"/>
		</g>
		<g>
			<path class="st2" d="M76,103.4l-1.3-8.3l8.9,4.5L76,103.4z M74.8,95.2l1.3,8.1l7.4-3.7L74.8,95.2z"/>
		</g>
		<g>
			<path class="st2" d="M83.5,99.7L83.5,99.7l-8.9-4.5l0,0l7.7-4.8l0,0L83.5,99.7z M74.8,95.1l8.7,4.4l-1.1-9.2L74.8,95.1z"/>
		</g>
		<g>
			<path class="st2" d="M88.3,85.2L88.3,85.2l-11.7-3.1l0.1,0l10-3.3l0,0L88.3,85.2z M76.8,82.1l11.4,3l-1.6-6.3L76.8,82.1z"/>
		</g>
		<g>
			<path class="st2" d="M82.4,90.4l-6.8-4.9l0,0l1.1-3.4L82.4,90.4L82.4,90.4z M75.7,85.5l6.6,4.8l-5.6-8.1L75.7,85.5z"/>
		</g>
		<g>
			<path class="st2" d="M95.9,48.7L95.9,48.7l-1.6-5.1l6.2,4.7L95.9,48.7z M94.4,43.8l1.5,4.9l4.5-0.3L94.4,43.8z"/>
		</g>
		<g>
			<path class="st2" d="M94.8,70L94.8,70l-8.9-1.6l0,0l9.6-7.1l0,0.1L94.8,70z M86,68.4l8.7,1.6l0.7-8.5L86,68.4z"/>
		</g>
		<g>
			<path class="st2" d="M88.8,72.6L88.8,72.6l-2.9-4.2l0.1,0l8.9,1.6L88.8,72.6z M86,68.5l2.9,4l5.8-2.5L86,68.5z"/>
		</g>
		<g>
			<path class="st2" d="M98.1,51.9l-2.2-3.2l4.6-0.3L98.1,51.9z M96,48.7l2.1,3.1l2.3-3.4L96,48.7z"/>
		</g>
		<g>
			<path class="st2" d="M82.4,90.4l-5.7-8.3l0.1,0l11.6,3l0,0L82.4,90.4z M76.8,82.2l5.6,8.2l5.8-5.2L76.8,82.2z"/>
		</g>
		<g>
			<path class="st2" d="M74.7,95.2l0.9-9.7l6.8,4.9l0,0L74.7,95.2z M75.6,85.5l-0.9,9.5l7.6-4.7L75.6,85.5z"/>
		</g>
		<g>
			<path class="st2" d="M68.7,102.4L68.7,102.4l1.4-9.4l3,6.6l0,0L68.7,102.4z M70.1,93.1l-1.4,9.1l4.3-2.7L70.1,93.1z"/>
		</g>
		<g>
			<path class="st2" d="M68.7,102.3l-2.8-10.5l0,0l4.2,1.2l0,0L68.7,102.3L68.7,102.3z M65.9,91.9l2.8,10.3l1.4-9.1L65.9,91.9z"/>
		</g>
		<g>
			<path class="st2" d="M76.7,82.1L76.7,82.1l6.7-5.3l0,0l3.3,2l-0.1,0L76.7,82.1z M83.4,76.9l-6.6,5.2l9.8-3.3L83.4,76.9z"/>
		</g>
		<g>
			<path class="st2" d="M73.1,99.6L73.1,99.6L70,93l4.7,2.1l0,0L73.1,99.6z M70.1,93.1l2.9,6.4l1.6-4.3L70.1,93.1z"/>
		</g>
		<g>
			<path class="st2" d="M85.9,68.5L85.9,68.5l1.1-7.9l0,0l8.6,0.8l-0.1,0L85.9,68.5z M87,60.7l-1,7.7l9.4-7L87,60.7z"/>
		</g>
		<g>
			<path class="st2" d="M66.6,80.4l2-5.5l0,0l5.2,2L66.6,80.4z M68.6,75l-1.9,5.3l6.9-3.3L68.6,75z"/>
		</g>
		<g>
			<path class="st2" d="M100.5,48.5l-6.2-4.7l4.7-3.6l0,0L100.5,48.5z M94.4,43.7l6,4.6L99,40.3L94.4,43.7z"/>
		</g>
		<g>
			<path class="st2" d="M70.1,93.1l-4.3-1.2l0,0l3.9-8.6l0,0L70.1,93.1z M65.9,91.8l4.1,1.2l-0.3-9.7L65.9,91.8z"/>
		</g>
		<g>
			<path class="st2" d="M63.2,75.4l-10.6-4.3l8.6-2l0,0L63.2,75.4z M52.8,71.1l10.3,4.2l-2-6.2L52.8,71.1z"/>
		</g>
		<g>
			<path class="st2" d="M70.1,93.1L70.1,93.1l-0.3-10l0,0l5.9,2.3l0,0L70.1,93.1z M69.8,83.2l0.3,9.7l5.5-7.5L69.8,83.2z"/>
		</g>
		<g>
			<path class="st2" d="M85.9,68.5l-6.1-8.2l7.1,0.3l0,0L85.9,68.5z M80,60.4l5.9,8l1-7.7L80,60.4z"/>
		</g>
		<g>
			<path class="st2" d="M76.7,82.2l-3.1-5.2h0l9.8-0.1l-0.1,0L76.7,82.2z M73.7,77l3,5.1l6.6-5.2L73.7,77z"/>
		</g>
		<g>
			<path class="st2" d="M65.9,91.8L65.9,91.8l0.8-8.8l3.1,0.2l0,0L65.9,91.8z M66.7,83.1l-0.8,8.6l3.8-8.5L66.7,83.1z"/>
		</g>
		<g>
			<path class="st2" d="M65.9,91.8L64.1,84l2.6-1l0,0L65.9,91.8L65.9,91.8z M64.2,84.1l1.7,7.6l0.8-8.6L64.2,84.1z"/>
		</g>
		<g>
			<path class="st2" d="M96,48.7l-8.6-0.6l7-4.4l0,0L96,48.7z M87.6,48.1l8.3,0.6l-1.5-4.9L87.6,48.1z"/>
		</g>
		<g>
			<path class="st2" d="M65.9,91.9l-7.7-2.2l0,0l5.9-5.6l0,0L65.9,91.9z M58.3,89.6l7.5,2.2l-1.7-7.7L58.3,89.6z"/>
		</g>
		<g>
			<path class="st2" d="M57.8,64.4L57.8,64.4l6.5-5.5l0,0l3.6,5.2l0,0L57.8,64.4z M64.3,59l-6.4,5.3l9.9-0.2L64.3,59z"/>
		</g>
		<g>
			<path class="st2" d="M87.4,48.2l1.3-6.5l5.7,2.1L87.4,48.2z M88.7,41.7l-1.2,6.3l6.8-4.3L88.7,41.7z"/>
		</g>
		<g>
			<path class="st2" d="M67.8,64.1L67.8,64.1l4.4-5.7l1.1,5.6l0,0L67.8,64.1z M72.1,58.5l-4.2,5.5l5.3-0.1L72.1,58.5z"/>
		</g>
		<g>
			<path class="st2" d="M83.4,76.9L83.4,76.9l-11.8-4.8l0.1,0L86,68.4L83.4,76.9z M71.8,72.1l11.6,4.7l2.5-8.4L71.8,72.1z"/>
		</g>
		<g>
			<path class="st2" d="M73.7,77L73.7,77l-2-4.9l0.1,0l11.7,4.8l0,0L73.7,77z M71.8,72.1l1.9,4.8l9.6-0.1L71.8,72.1z"/>
		</g>
		<g>
			<path class="st2" d="M69.8,83.2L69.8,83.2l-3.2-2.9l0,0l7.1-3.4L69.8,83.2z M66.7,80.3l3.1,2.8l3.9-6.1L66.7,80.3z"/>
		</g>
		<g>
			<path class="st2" d="M73.7,77l-5.2-2.1l0,0l3.2-2.9L73.7,77z M68.6,74.9l5,2l-1.9-4.8L68.6,74.9z"/>
		</g>
		<g>
			<path class="st2" d="M88.8,41.7l-9-0.2l2.3-5.6l0,0L88.8,41.7z M79.9,41.5l8.8,0.2L82.1,36L79.9,41.5z"/>
		</g>
		<g>
			<path class="st2" d="M88.8,41.7L82,35.9l6.3,0.2l0,0L88.8,41.7z M82.1,36l6.6,5.7l-0.5-5.4L82.1,36z"/>
		</g>
		<g>
			<path class="st2" d="M94.5,43.8l-5.8-2.1l0,0l-0.5-5.6l0.1,0.1L94.5,43.8z M88.7,41.7l5.6,2l-6-7.5L88.7,41.7z"/>
		</g>
		<g>
			<path class="st2" d="M83.2,54.3L83.2,54.3l-0.5-7l0,0l4.7,0.8L83.2,54.3z M82.9,47.4l0.4,6.8l4.2-6L82.9,47.4z"/>
		</g>
		<g>
			<path class="st2" d="M87.5,48.1l-4.7-0.8l0,0l6-5.7l0,0.1L87.5,48.1z M82.9,47.3l4.6,0.7l1.2-6.3L82.9,47.3z"/>
		</g>
		<g>
			<path class="st2" d="M83.3,54.2l-5.9-0.1l0,0l5.4-6.8L83.3,54.2z M77.5,54.1l5.7,0.1l-0.4-6.8L77.5,54.1z"/>
		</g>
		<g>
			<path class="st2" d="M53.2,80.4l-2.6-1.7l0,0l2.1-7.6l0,0L53.2,80.4z M50.7,78.7l2.4,1.6l-0.4-9L50.7,78.7z"/>
		</g>
		<g>
			<path class="st2" d="M94.4,43.8L94.4,43.8l-6.2-7.7l10.9,4.1L94.4,43.8z M88.3,36.2l6.1,7.5l4.6-3.5L88.3,36.2z"/>
		</g>
		<g>
			<path class="st2" d="M86,68.5L86,68.5L73.1,64l6.8-3.7l0,0L86,68.5z M73.3,64l12.6,4.4l-5.9-8L73.3,64z"/>
		</g>
		<g>
			<path class="st2" d="M71.7,72.1L71.7,72.1l1.5-8.2l0,0L86,68.4L71.7,72.1z M73.2,64l-1.4,8l14.1-3.7L73.2,64z"/>
		</g>
		<g>
			<path class="st2" d="M79.8,41.5l-4.1-2.7l6.4-2.9L79.8,41.5z M75.8,38.8l4,2.7L82,36L75.8,38.8z"/>
		</g>
		<g>
			<path class="st2" d="M64.9,80.6L64.9,80.6l-5.3-0.1l0,0l3.7-1.8L64.9,80.6z M59.7,80.5l5.1,0.1l-1.6-1.8L59.7,80.5z"/>
		</g>
		<g>
			<path class="st2" d="M64.1,84.1L64.1,84.1l-4.7-3.6l0.1,0l5.3,0.1l0,0L64.1,84.1z M59.6,80.6l4.5,3.4l0.7-3.4L59.6,80.6z"/>
		</g>
		<g>
			<path class="st2" d="M82.8,47.4l-3-5.9l9,0.2L82.8,47.4z M79.9,41.5l3,5.8l5.8-5.6L79.9,41.5z"/>
		</g>
		<g>
			<path class="st2" d="M73.2,64L73.2,64l-1.1-5.6l7.9,1.9l-0.1,0L73.2,64z M72.2,58.5l1,5.4l6.7-3.6L72.2,58.5z"/>
		</g>
		<g>
			<path class="st2" d="M80,60.4l-7.9-1.9l0,0l5.4-4.4L80,60.4z M72.2,58.5l7.7,1.8l-2.4-6.2L72.2,58.5z"/>
		</g>
		<g>
			<path class="st2" d="M58.2,89.7l1.3-9.2l0,0l4.6,3.5l0,0L58.2,89.7z M59.6,80.6l-1.3,9l5.8-5.5L59.6,80.6z"/>
		</g>
		<g>
			<path class="st2" d="M63.4,69.8L63.4,69.8l-2.3-0.6l6.7-5.1l0,0L63.4,69.8z M61.2,69.1l2.2,0.6l4.3-5.5L61.2,69.1z"/>
		</g>
		<g>
			<path class="st2" d="M71.8,72.2l-3.9-8.1l5.4-0.1L71.8,72.2z M67.9,64.1l3.8,7.9l1.4-8L67.9,64.1z"/>
		</g>
		<g>
			<path class="st2" d="M71.8,72.1L71.8,72.1l-8.4-2.4l0,0l4.5-5.7L71.8,72.1z M63.5,69.7l8.2,2.3l-3.9-7.9L63.5,69.7z"/>
		</g>
		<g>
			<path class="st2" d="M68.6,75L68.6,75l-5.2-5.3l0.1,0l8.4,2.4l0,0L68.6,75z M63.5,69.8l5.1,5.1l3.1-2.8L63.5,69.8z"/>
		</g>
		<g>
			<path class="st2" d="M61.2,69.2l-3.4-4.8l0,0l10.1-0.2l-0.1,0L61.2,69.2z M57.9,64.4l3.3,4.7l6.6-5L57.9,64.4z"/>
		</g>
		<g>
			<path class="st2" d="M63.2,75.4l-2-6.3l2.3,0.6l0,0L63.2,75.4L63.2,75.4z M61.2,69.2l2,6.1l0.2-5.4L61.2,69.2z"/>
		</g>
		<g>
			<path class="st2" d="M72.1,58.5L72.1,58.5L71,53.1l6.6,0.9L72.1,58.5z M71,53.2l1.1,5.2l5.3-4.3L71,53.2z"/>
		</g>
		<g>
			<path class="st2" d="M67.9,64.1L67.9,64.1l-3.6-5.2l8-0.5l0,0L67.9,64.1z M64.3,59l3.5,5.1l4.2-5.5L64.3,59z"/>
		</g>
		<g>
			<path class="st2" d="M64.2,59l6.8-5.9l0,0l1.1,5.3l0,0L64.2,59z M71,53.2l-6.7,5.7l7.8-0.5L71,53.2z"/>
		</g>
	</g>
	<g>
		<path class="st2" d="M105.6,99.9c0.1-0.2,0.5,0,0.4,0.2C105.8,100.3,105.5,100.1,105.6,99.9z"/>
		<path class="st2" d="M111.2,88.9c0.1-0.2,0.5,0,0.4,0.2C111.4,89.3,111,89.1,111.2,88.9z"/>
		<path class="st2" d="M108.2,90.5c0.1-0.2,0.5,0,0.4,0.2C108.4,90.9,108,90.8,108.2,90.5z"/>
		<path class="st2" d="M106.6,92.5c0.1-0.2,0.5,0,0.4,0.2C106.8,92.9,106.4,92.7,106.6,92.5z"/>
		<path class="st2" d="M110.1,85.4c0.1-0.2,0.5,0,0.4,0.2C110.3,85.8,110,85.6,110.1,85.4z"/>
		<path class="st2" d="M108.8,81.8c0.1-0.2,0.5,0,0.4,0.2C109,82.2,108.7,82,108.8,81.8z"/>
		<path class="st2" d="M101.3,94.4c0.1-0.2,0.5-0.1,0.4,0.2C101.5,94.9,101.1,94.7,101.3,94.4z"/>
		<path class="st2" d="M102.9,91.4c0.1-0.2,0.5-0.1,0.4,0.2C103.1,91.8,102.8,91.6,102.9,91.4z"/>
		<path class="st2" d="M114.5,68.2c0.1-0.2,0.5,0,0.4,0.2C114.7,68.6,114.3,68.5,114.5,68.2z"/>
		<path class="st2" d="M95.1,104.6c0.1-0.2,0.5,0,0.4,0.2C95.4,105,95,104.8,95.1,104.6z"/>
		<path class="st2" d="M98.2,98.9c0.1-0.2,0.5,0,0.4,0.2C98.4,99.3,98,99.1,98.2,98.9z"/>
		<path class="st2" d="M106.1,83.1c0.1-0.2,0.5-0.1,0.4,0.2C106.3,83.6,105.9,83.4,106.1,83.1z"/>
		<path class="st2" d="M88.6,115.1c0.1-0.2,0.5,0,0.4,0.2C88.8,115.5,88.5,115.4,88.6,115.1z"/>
		<path class="st2" d="M99.3,93c0.1-0.2,0.5,0,0.4,0.2C99.6,93.4,99.2,93.2,99.3,93z"/>
		<path class="st2" d="M102.1,87.8c0.1-0.2,0.5-0.1,0.4,0.2C102.3,88.2,101.9,88,102.1,87.8z"/>
		<path class="st2" d="M114.5,62.7c0.1-0.2,0.5,0,0.4,0.2C114.8,63.2,114.4,63,114.5,62.7z"/>
		<path class="st2" d="M86.8,112.5c0.1-0.2,0.5-0.1,0.4,0.2C87.1,112.9,86.7,112.7,86.8,112.5z"/>
		<path class="st2" d="M104,79.4c0.1-0.2,0.5,0,0.4,0.2C104.2,79.8,103.9,79.6,104,79.4z"/>
		<path class="st2" d="M83.6,116.7c0.1-0.2,0.5-0.1,0.4,0.2C83.9,117.1,83.5,116.9,83.6,116.7z"/>
		<path class="st2" d="M105.2,75.3c0.1-0.2,0.5-0.1,0.4,0.2C105.5,75.7,105.1,75.5,105.2,75.3z"/>
		<path class="st2" d="M91.3,100c0.1-0.2,0.5,0,0.4,0.2C91.5,100.4,91.2,100.2,91.3,100z"/>
		<path class="st2" d="M106.8,68.5c0.1-0.2,0.5,0,0.4,0.2C107,68.9,106.7,68.7,106.8,68.5z"/>
		<path class="st2" d="M112,57.6c0.1-0.2,0.5,0,0.4,0.2C112.3,58,111.9,57.9,112,57.6z"/>
		<path class="st2" d="M110.4,60.6c0.1-0.2,0.5,0,0.4,0.2C110.6,61,110.3,60.8,110.4,60.6z"/>
		<path class="st2" d="M101.7,76c0.1-0.2,0.5,0,0.4,0.2C101.9,76.4,101.6,76.3,101.7,76z"/>
		<path class="st2" d="M80.5,116.5c0.1-0.2,0.5,0,0.4,0.2C80.7,116.9,80.4,116.7,80.5,116.5z"/>
		<path class="st2" d="M93.4,90.2c0.1-0.2,0.5,0,0.4,0.2C93.6,90.6,93.3,90.4,93.4,90.2z"/>
		<path class="st2" d="M107.1,62.7c0.1-0.2,0.5-0.1,0.4,0.2C107.4,63.1,107,62.9,107.1,62.7z"/>
		<path class="st2" d="M95.2,84.3c0.1-0.2,0.5-0.1,0.4,0.2C95.5,84.7,95.1,84.5,95.2,84.3z"/>
		<path class="st2" d="M87.6,95.8c0.1-0.2,0.5,0,0.4,0.2C87.8,96.2,87.5,96.1,87.6,95.8z"/>
		<path class="st2" d="M78.7,110.7c0.1-0.2,0.5,0,0.4,0.2C78.9,111.1,78.6,110.9,78.7,110.7z"/>
		<path class="st2" d="M102.3,64c0.1-0.2,0.5,0,0.4,0.2C102.5,64.4,102.2,64.2,102.3,64z"/>
		<path class="st2" d="M107,55.1c0.1-0.2,0.5-0.1,0.4,0.2C107.2,55.5,106.9,55.3,107,55.1z"/>
		<path class="st2" d="M97.1,73.6c0.1-0.2,0.5,0,0.4,0.2C97.4,74,97,73.9,97.1,73.6z"/>
		<path class="st2" d="M83.3,99.5c0.1-0.2,0.5,0,0.4,0.2C83.5,99.9,83.2,99.8,83.3,99.5z"/>
		<path class="st2" d="M104,59.6c0.1-0.2,0.5-0.1,0.4,0.2C104.2,60,103.8,59.8,104,59.6z"/>
		<path class="st2" d="M90.7,83.5c0.1-0.2,0.5,0,0.4,0.2C90.9,83.9,90.6,83.7,90.7,83.5z"/>
		<path class="st2" d="M91.6,78.9c0.1-0.2,0.5,0,0.4,0.2C91.9,79.4,91.5,79.2,91.6,78.9z"/>
		<path class="st2" d="M88.1,85.1c0.1-0.2,0.5,0,0.4,0.2C88.3,85.5,88,85.3,88.1,85.1z"/>
		<path class="st2" d="M106.5,48c0.1-0.2,0.5-0.1,0.4,0.2C106.8,48.4,106.4,48.2,106.5,48z"/>
		<path class="st2" d="M94.6,69.9c0.1-0.2,0.5-0.1,0.4,0.2C94.8,70.3,94.5,70.2,94.6,69.9z"/>
		<path class="st2" d="M73.9,108.5c0.1-0.2,0.5,0,0.4,0.2C74.1,108.9,73.8,108.7,73.9,108.5z"/>
		<path class="st2" d="M75.9,103.2c0.1-0.2,0.5-0.1,0.4,0.2C76.1,103.7,75.7,103.5,75.9,103.2z"/>
		<path class="st2" d="M82.2,90.3c0.1-0.2,0.5,0,0.4,0.2C82.4,90.7,82.1,90.5,82.2,90.3z"/>
		<path class="st2" d="M86.5,78.7c0.1-0.2,0.5,0,0.4,0.2C86.7,79.1,86.4,78.9,86.5,78.7z"/>
		<path class="st2" d="M95.3,61.3c0.1-0.2,0.5,0,0.4,0.2C95.5,61.7,95.2,61.5,95.3,61.3z"/>
		<path class="st2" d="M71.6,105.6c0.1-0.2,0.5-0.1,0.4,0.2C71.8,106,71.5,105.8,71.6,105.6z"/>
		<path class="st2" d="M88.7,72.4c0.1-0.2,0.5,0,0.4,0.2C88.9,72.8,88.5,72.7,88.7,72.4z"/>
		<path class="st2" d="M100.3,48.3c0.1-0.2,0.5-0.1,0.4,0.2C100.5,48.7,100.2,48.5,100.3,48.3z"/>
		<path class="st2" d="M72.9,99.5c0.1-0.2,0.5,0,0.4,0.2C73.1,99.9,72.8,99.7,72.9,99.5z"/>
		<path class="st2" d="M97.9,51.8c0.1-0.2,0.5-0.1,0.4,0.2C98.1,52.2,97.8,52,97.9,51.8z"/>
		<path class="st2" d="M74.5,95c0.1-0.2,0.5,0,0.4,0.2C74.8,95.5,74.4,95.3,74.5,95z"/>
		<path class="st2" d="M83.2,76.8c0.1-0.2,0.5,0,0.4,0.2C83.5,77.2,83.1,77,83.2,76.8z"/>
		<path class="st2" d="M68.5,102.2c0.1-0.2,0.5-0.1,0.4,0.2C68.8,102.6,68.4,102.4,68.5,102.2z"/>
		<path class="st2" d="M85.8,68.3c0.1-0.2,0.5-0.1,0.4,0.2C86,68.7,85.6,68.6,85.8,68.3z"/>
		<path class="st2" d="M95.8,48.6c0.1-0.2,0.5-0.1,0.4,0.2C96,49,95.6,48.9,95.8,48.6z"/>
		<path class="st2" d="M75.4,85.4c0.1-0.2,0.5,0,0.4,0.2C75.7,85.8,75.3,85.6,75.4,85.4z"/>
		<path class="st2" d="M98.9,40.1c0.1-0.2,0.5-0.1,0.4,0.2C99.1,40.6,98.7,40.4,98.9,40.1z"/>
		<path class="st2" d="M76.5,82c0.1-0.2,0.5,0,0.4,0.2C76.8,82.4,76.4,82.3,76.5,82z"/>
		<path class="st2" d="M69.9,92.9c0.1-0.2,0.5,0,0.4,0.2C70.1,93.4,69.8,93.2,69.9,92.9z"/>
		<path class="st2" d="M86.8,60.6c0.1-0.2,0.5-0.1,0.4,0.2C87,61,86.7,60.8,86.8,60.6z"/>
		<path class="st2" d="M89.1,53.8c0.1-0.2,0.5-0.1,0.4,0.2C89.3,54.2,89,54,89.1,53.8z"/>
		<path class="st2" d="M94.2,43.6c0.1-0.2,0.5,0,0.4,0.2C94.4,44.1,94.1,43.9,94.2,43.6z"/>
		<path class="st2" d="M86.7,56.3c0.1-0.2,0.5-0.1,0.4,0.2C86.9,56.7,86.5,56.6,86.7,56.3z"/>
		<path class="st2" d="M61.8,100.3c0.1-0.2,0.5-0.1,0.4,0.2C62,100.7,61.7,100.5,61.8,100.3z"/>
		<path class="st2" d="M65.7,91.7c0.1-0.2,0.5,0,0.4,0.2C65.9,92.2,65.6,92,65.7,91.7z"/>
		<path class="st2" d="M73.5,76.9c0.1-0.2,0.5,0,0.4,0.2C73.8,77.3,73.4,77.1,73.5,76.9z"/>
		<path class="st2" d="M69.6,83.1c0.1-0.2,0.5-0.1,0.4,0.2C69.8,83.5,69.4,83.3,69.6,83.1z"/>
		<path class="st2" d="M87.3,48c0.1-0.2,0.5,0,0.4,0.2C87.5,48.4,87.2,48.2,87.3,48z"/>
		<path class="st2" d="M83.1,54.1c0.1-0.2,0.5-0.1,0.4,0.2C83.3,54.5,83,54.3,83.1,54.1z"/>
		<path class="st2" d="M79.8,60.2c0.1-0.2,0.5-0.1,0.4,0.2C80,60.7,79.6,60.5,79.8,60.2z"/>
		<path class="st2" d="M88.5,41.6c0.1-0.2,0.5-0.1,0.4,0.2C88.8,42,88.4,41.8,88.5,41.6z"/>
		<path class="st2" d="M66.5,82.9c0.1-0.2,0.5,0,0.4,0.2C66.7,83.4,66.4,83.2,66.5,82.9z"/>
		<path class="st2" d="M71.6,72c0.1-0.2,0.5-0.1,0.4,0.2C71.8,72.4,71.4,72.2,71.6,72z"/>
		<path class="st2" d="M66.5,80.2c0.1-0.2,0.5-0.1,0.4,0.2C66.7,80.6,66.3,80.5,66.5,80.2z"/>
		<path class="st2" d="M65.9,81.2c0.1-0.2,0.5,0,0.4,0.2C66.1,81.6,65.7,81.4,65.9,81.2z"/>
		<path class="st2" d="M63.9,84c0.1-0.2,0.5,0,0.4,0.2C64.2,84.4,63.8,84.2,63.9,84z"/>
		<path class="st2" d="M68.4,74.8c0.1-0.2,0.5-0.1,0.4,0.2C68.6,75.3,68.3,75.1,68.4,74.8z"/>
		<path class="st2" d="M82.6,47.3c0.1-0.2,0.5-0.1,0.4,0.2C82.9,47.7,82.5,47.5,82.6,47.3z"/>
		<path class="st2" d="M88.1,36.1c0.1-0.2,0.5-0.1,0.4,0.2C88.3,36.5,88,36.3,88.1,36.1z"/>
		<path class="st2" d="M64.6,80.5c0.1-0.2,0.5,0,0.4,0.2C64.9,80.9,64.5,80.7,64.6,80.5z"/>
		<path class="st2" d="M73,63.9c0.1-0.2,0.5,0,0.4,0.2C73.2,64.3,72.9,64.1,73,63.9z"/>
		<path class="st2" d="M65.8,76.7c0.1-0.2,0.5,0,0.4,0.2C66.1,77.2,65.7,77,65.8,76.7z"/>
		<path class="st2" d="M77.3,54c0.1-0.2,0.5,0,0.4,0.2C77.5,54.4,77.2,54.2,77.3,54z"/>
		<path class="st2" d="M58.1,89.5c0.1-0.2,0.5,0,0.4,0.2C58.3,90,58,89.8,58.1,89.5z"/>
		<path class="st2" d="M63,78.6c0.1-0.2,0.5-0.1,0.4,0.2C63.3,79.1,62.9,78.9,63,78.6z"/>
		<path class="st2" d="M64.5,74.8c0.1-0.2,0.5,0,0.4,0.2C64.7,75.2,64.4,75,64.5,74.8z"/>
		<path class="st2" d="M72,58.4c0.1-0.2,0.5-0.1,0.4,0.2C72.2,58.8,71.8,58.6,72,58.4z"/>
		<path class="st2" d="M63,75.3c0.1-0.2,0.5,0,0.4,0.2C63.2,75.7,62.9,75.5,63,75.3z"/>
		<path class="st2" d="M76.8,48.1c0.1-0.2,0.5,0,0.4,0.2C77,48.5,76.7,48.4,76.8,48.1z"/>
		<path class="st2" d="M59.4,80.4c0.1-0.2,0.5,0,0.4,0.2C59.6,80.9,59.3,80.7,59.4,80.4z"/>
		<path class="st2" d="M79.6,41.4c0.1-0.2,0.5-0.1,0.4,0.2C79.9,41.8,79.5,41.6,79.6,41.4z"/>
		<path class="st2" d="M67.7,64c0.1-0.2,0.5-0.1,0.4,0.2C67.9,64.4,67.6,64.2,67.7,64z"/>
		<path class="st2" d="M81.9,35.8c0.1-0.2,0.5-0.1,0.4,0.2C82.1,36.3,81.8,36.1,81.9,35.8z"/>
		<path class="st2" d="M63.2,69.7c0.1-0.2,0.5-0.1,0.4,0.2C63.5,70.1,63.1,69.9,63.2,69.7z"/>
		<path class="st2" d="M70.8,53.1c0.1-0.2,0.5-0.1,0.4,0.2C71.1,53.5,70.7,53.3,70.8,53.1z"/>
		<path class="st2" d="M74.5,44.9c0.1-0.2,0.5,0,0.4,0.2C74.7,45.3,74.3,45.1,74.5,44.9z"/>
		<path class="st2" d="M61,69c0.1-0.2,0.5-0.1,0.4,0.2C61.2,69.5,60.9,69.3,61,69z"/>
		<path class="st2" d="M75.6,38.7c0.1-0.2,0.5-0.1,0.4,0.2C75.8,39.1,75.4,38.9,75.6,38.7z"/>
		<path class="st2" d="M53,80.2c0.1-0.2,0.5,0,0.4,0.2C53.2,80.7,52.9,80.5,53,80.2z"/>
		<path class="st2" d="M64.1,58.9c0.1-0.2,0.5,0,0.4,0.2C64.3,59.3,64,59.1,64.1,58.9z"/>
		<path class="st2" d="M68.5,49.2c0.1-0.2,0.5-0.1,0.4,0.2C68.7,49.6,68.4,49.4,68.5,49.2z"/>
		<path class="st2" d="M50.5,78.6c0.1-0.2,0.5-0.1,0.4,0.2C50.7,79,50.4,78.8,50.5,78.6z"/>
		<path class="st2" d="M57.7,64.3c0.1-0.2,0.5,0,0.4,0.2C57.9,64.7,57.5,64.5,57.7,64.3z"/>
		<path class="st2" d="M52.5,71c0.1-0.2,0.5,0,0.4,0.2C52.8,71.4,52.4,71.2,52.5,71z"/>
		<path class="st2" d="M55.4,64c0.1-0.2,0.5-0.1,0.4,0.2C55.7,64.4,55.3,64.2,55.4,64z"/>
		<path class="st2" d="M46.9,77.8c0.1-0.2,0.5-0.1,0.4,0.2C47.2,78.3,46.8,78.1,46.9,77.8z"/>
		<path class="st2" d="M49.7,69.4c0.1-0.2,0.5,0,0.4,0.2C49.9,69.8,49.6,69.6,49.7,69.4z"/>
		<path class="st2" d="M46.4,72c0.1-0.2,0.5,0,0.4,0.2C46.6,72.4,46.3,72.2,46.4,72z"/>
	</g>
</g>
<g class="st0">
	<g class="st3">
		<g>
			<path class="st2" d="M42.3,21l-2.1-4.3l2.7,1.8L42.3,21z M40.3,16.8l2,4l0.5-2.3L40.3,16.8z"/>
		</g>
		<g>
			<path class="st2" d="M42.4,67l-3.6-2.5l0,0l1.8,0.7L42.4,67L42.4,67z M39,64.6l3.2,2.2l-1.6-1.6L39,64.6z"/>
		</g>
		<g>
			<path class="st2" d="M42.4,67l-1.9-1.9l4.3,0.2L42.4,67z M40.6,65.2l1.8,1.7l2.2-1.5L40.6,65.2z"/>
		</g>
		<g>
			<path class="st2" d="M40.6,65.2l-1.8-0.7l0-2.9l0,0L40.6,65.2z M38.8,64.4l1.7,0.7l-1.7-3.4L38.8,64.4z"/>
		</g>
		<g>
			<path class="st2" d="M47,63.8l0.7-4.1l3.3,0L47,63.8z M47.7,59.8L47,63.6l3.8-3.9L47.7,59.8z"/>
		</g>
		<g>
			<path class="st2" d="M27.6,59l-9-2.4l1.5-1.9L27.6,59L27.6,59z M18.6,56.6l8.8,2.3l-7.3-4.1L18.6,56.6z"/>
		</g>
		<g>
			<path class="st2" d="M44.7,65.5l0.7-3.5l1.6,1.7L44.7,65.5z M45.4,62.1l-0.7,3.3l2.2-1.6L45.4,62.1z"/>
		</g>
		<g>
			<path class="st2" d="M44.7,65.4L44.7,65.4l-4.2-0.2l5-3.2L44.7,65.4z M40.6,65.1l4,0.2l0.7-3.3L40.6,65.1z"/>
		</g>
		<g>
			<path class="st2" d="M45.4,62.1L45.4,62.1l-4.2-1.9l0,0l6.5-0.5L45.4,62.1z M41.3,60.2l4.1,1.8l2.2-2.3L41.3,60.2z"/>
		</g>
		<g>
			<path class="st2" d="M36.3,21.1L36.3,21.1l3.9-4.4l2.1,4.3L36.3,21.1z M40.2,16.8l-3.8,4.3l5.8-0.2L40.2,16.8z"/>
		</g>
		<g>
			<path class="st2" d="M40.6,65.3l-1.8-3.7l0,0l2.4-1.4L40.6,65.3z M38.8,61.6l1.7,3.5l0.6-4.8L38.8,61.6z"/>
		</g>
		<g>
			<path class="st2" d="M40.5,65.2l0.6-5.1l4.3,1.9L40.5,65.2z M41.2,60.2l-0.6,4.9l4.8-3.1L41.2,60.2z"/>
		</g>
		<g>
			<path class="st2" d="M56.1,59.4L56.1,59.4l-5.9-5.9l8.2,1.6L56.1,59.4z M50.3,53.6l5.8,5.7l2.2-4.2L50.3,53.6z"/>
		</g>
		<g>
			<path class="st2" d="M18.6,56.6l-2.3-3.3l3.8,1.4L18.6,56.6z M16.4,53.4l2.1,3.1l1.4-1.8L16.4,53.4z"/>
		</g>
		<g>
			<path class="st2" d="M47,63.8L45.4,62l0,0l2.3-2.4L47,63.8z M45.4,62l1.5,1.6l0.6-3.9L45.4,62z"/>
		</g>
		<g>
			<path class="st2" d="M56.1,59.3l-6.6-2l0,0l0.7-3.9L56.1,59.3L56.1,59.3z M49.6,57.3l6.4,1.9l-5.7-5.7L49.6,57.3z"/>
		</g>
		<g>
			<path class="st2" d="M47.7,59.8L47.7,59.8l-5.5-5.2l0,0l7.4,2.8L47.7,59.8z M42.3,54.6l5.4,5.1l1.9-2.3L42.3,54.6z"/>
		</g>
		<g>
			<path class="st2" d="M41.2,60.2L41.2,60.2l-4.4-0.8l0.7-5L41.2,60.2z M36.9,59.4l4.3,0.8l-3.6-5.6L36.9,59.4z"/>
		</g>
		<g>
			<path class="st2" d="M27.6,59l-7.5-4.2l0,0l10,0.4L27.6,59z M20.2,54.8l7.4,4.2l2.4-3.7L20.2,54.8z"/>
		</g>
		<g>
			<path class="st2" d="M37,28l-1.3-4.7l0,0l6.6-2.4L37,28z M35.8,23.3l1.2,4.6l5.2-6.9L35.8,23.3z"/>
		</g>
		<g>
			<path class="st2" d="M47.6,59.8l1.9-2.5l1.3,2.4L47.6,59.8z M49.5,57.4l-1.8,2.3l3.1,0L49.5,57.4z"/>
		</g>
		<g>
			<path class="st2" d="M50.8,59.7L50.8,59.7l-1.3-2.4l6.6,2l0,0L50.8,59.7z M49.6,57.4l1.3,2.3l5.1-0.4L49.6,57.4z"/>
		</g>
		<g>
			<path class="st2" d="M32.3,59.9l5.3-5.4l-0.7,5l0,0L32.3,59.9z M37.5,54.6l-5.1,5.2l4.4-0.4L37.5,54.6z"/>
		</g>
		<g>
			<path class="st2" d="M32.3,59.9L32.3,59.9L30,55.1l7.6-0.7L32.3,59.9z M30.1,55.2l2.3,4.6l5.1-5.3L30.1,55.2z"/>
		</g>
		<g>
			<path class="st2" d="M16.4,53.4L15.8,51l0,0l3.8-2.6l0,0L16.4,53.4z M15.8,51.1l0.5,2.2l3.1-4.7L15.8,51.1z"/>
		</g>
		<g>
			<path class="st2" d="M20.1,54.8l-3.8-1.4l0,0l3.2-4.9L20.1,54.8z M16.4,53.3l3.6,1.4l-0.5-6.1L16.4,53.3z"/>
		</g>
		<g>
			<path class="st2" d="M41.2,60.3L41.2,60.3l-3.7-5.8l4.7,0l0,0L41.2,60.3z M37.6,54.5l3.6,5.6l1-5.6L37.6,54.5z"/>
		</g>
		<g>
			<path class="st2" d="M30,55.2L30,55.2l2.2-3.6l0,0l5.4,2.9L30,55.2z M32.2,51.6l-2.1,3.5l7.4-0.6L32.2,51.6z"/>
		</g>
		<g>
			<path class="st2" d="M45.2,50.8l-1-3.8l5.1,0.2L45.2,50.8z M44.3,47l1,3.7l3.9-3.5L44.3,47z"/>
		</g>
		<g>
			<path class="st2" d="M24.3,44.8L24.3,44.8l2-3l0,0L30,42L24.3,44.8z M26.4,41.9l-2,2.9l5.4-2.7L26.4,41.9z"/>
		</g>
		<g>
			<path class="st2" d="M20.1,54.8l-0.5-6.3l9.1,0.9L20.1,54.8z M19.6,48.5l0.5,6.2l8.4-5.3L19.6,48.5z"/>
		</g>
		<g>
			<path class="st2" d="M49.6,57.4L49.6,57.4l-7.4-2.8l0,0l8.1-1L49.6,57.4z M42.3,54.5l7.3,2.8l0.7-3.8L42.3,54.5z"/>
		</g>
		<g>
			<path class="st2" d="M30.1,55.2L30.1,55.2L20,54.8l8.6-5.5L30.1,55.2z M20.2,54.7l9.8,0.4l-1.4-5.8L20.2,54.7z"/>
		</g>
		<g>
			<path class="st2" d="M49.3,47.2L44.2,47l0.7-2.8L49.3,47.2z M44.3,47l4.9,0.2l-4.2-2.9L44.3,47z"/>
		</g>
		<g>
			<path class="st2" d="M30,55.2l-1.5-5.9l3.7,2.3l0,0L30,55.2z M28.7,49.4l1.4,5.7l2.1-3.5L28.7,49.4z"/>
		</g>
		<g>
			<path class="st2" d="M58.3,55.1l-8.1-1.6l2.1-2.7L58.3,55.1L58.3,55.1z M50.3,53.5l7.9,1.6l-5.9-4.2L50.3,53.5z"/>
		</g>
		<g>
			<path class="st2" d="M39.7,40.6L39.7,40.6l-2.3-4.8l5.4,1.5L39.7,40.6z M37.4,35.9l2.3,4.7l3-3.3L37.4,35.9z"/>
		</g>
		<g>
			<path class="st2" d="M65,60.8L65,60.8l0.7-4.3l5-1.9l0,0L65,60.8z M65.8,56.5l-0.7,4.1l5.6-5.9L65.8,56.5z"/>
		</g>
		<g>
			<path class="st2" d="M65.8,56.5L65.8,56.5l0.3-7.3l3.1,1l0,0L65.8,56.5z M66.1,49.3l-0.4,7.1l3.3-6.2L66.1,49.3z"/>
		</g>
		<g>
			<path class="st2" d="M41.6,29.4L41.6,29.4L37,27.9l5.3-7.1L41.6,29.4z M37.1,27.9l4.5,1.4l0.7-8.3L37.1,27.9z"/>
		</g>
		<g>
			<path class="st2" d="M19.5,48.5l0.5-4l4.3,0.3L19.5,48.5z M20.1,44.6l-0.5,3.9l4.6-3.6L20.1,44.6z"/>
		</g>
		<g>
			<path class="st2" d="M28.7,49.4L28.7,49.4l-9.2-0.9l4.8-3.7l0,0L28.7,49.4z M19.6,48.5l8.9,0.8l-4.3-4.5L19.6,48.5z"/>
		</g>
		<g>
			<path class="st2" d="M65.8,56.5L65.8,56.5l-4-1.2l4.3-6.2L65.8,56.5z M61.9,55.3l3.8,1.2l0.4-7.1L61.9,55.3z"/>
		</g>
		<g>
			<path class="st2" d="M65.7,56.5l3.4-6.4l0,0.1l1.6,4.4L65.7,56.5z M69.1,50.3l-3.3,6.2l4.9-1.8L69.1,50.3z"/>
		</g>
		<g>
			<path class="st2" d="M39.7,40.6l-2.7,0l0.4-4.8L39.7,40.6z M37,40.5l2.6,0l-2.2-4.6L37,40.5z"/>
		</g>
		<g>
			<path class="st2" d="M32.2,51.6l-3.7-2.3l6.5-2.9L32.2,51.6z M28.7,49.3l3.5,2.2l2.7-5L28.7,49.3z"/>
		</g>
		<g>
			<path class="st2" d="M32.2,51.6l2.8-5.2l0,0l5.1,3.1l-0.1,0L32.2,51.6z M35,46.5l-2.7,5l7.7-2L35,46.5z"/>
		</g>
		<g>
			<path class="st2" d="M58.4,55.1l-6.1-4.3l6.4-1.4L58.4,55.1z M52.4,50.9l5.9,4.2l0.4-5.6L52.4,50.9z"/>
		</g>
		<g>
			<path class="st2" d="M50.2,53.6l-1-6.5l3.2,3.8L50.2,53.6z M49.3,47.3l1,6.2l2-2.6L49.3,47.3z"/>
		</g>
		<g>
			<path class="st2" d="M50.3,53.6l-5.1-2.8l4.1-3.6l0,0L50.3,53.6z M45.3,50.7l5,2.7l-1-6.3L45.3,50.7z"/>
		</g>
		<g>
			<path class="st2" d="M61.9,55.4L61.9,55.4l-3.2-5.9l7.5-0.2L61.9,55.4z M58.7,49.5l3.1,5.8l4.2-6L58.7,49.5z"/>
		</g>
		<g>
			<path class="st2" d="M49.3,47.2l-4.4-3l6.8-0.1L49.3,47.2z M45,44.3l4.2,2.9l2.3-2.9L45,44.3z"/>
		</g>
		<g>
			<path class="st2" d="M29.9,42.1l0.5-3.9l6.8,2.3L29.9,42.1z M30.4,38.3L29.9,42l7-1.5L30.4,38.3z"/>
		</g>
		<g>
			<path class="st2" d="M28.6,49.4L28.6,49.4l-4.4-4.6l0,0l5.7-2.8L28.6,49.4z M24.3,44.8l4.3,4.5l1.3-7.2L24.3,44.8z"/>
		</g>
		<g>
			<path class="st2" d="M28.6,49.4l1.3-7.4l0,0l5.1,4.5L28.6,49.4z M29.9,42.1l-1.3,7.2l6.3-2.8L29.9,42.1z"/>
		</g>
		<g>
			<path class="st2" d="M40,49.6L40,49.6l-0.4-9.1l4.6,6.5L40,49.6z M39.7,40.7l0.4,8.8l4.1-2.5L39.7,40.7z"/>
		</g>
		<g>
			<path class="st2" d="M35,46.5L35,46.5l2-6l0,0l2.7,0L35,46.5z M37,40.6l-2,5.8l4.6-5.7L37,40.6z"/>
		</g>
		<g>
			<path class="st2" d="M69.1,50.3L67.9,47l0,0l3.3-2.3L69.1,50.3z M67.9,47l1.2,3.1l1.9-5.3L67.9,47z"/>
		</g>
		<g>
			<path class="st2" d="M52.3,50.9L52.3,50.9l-0.8-6.8l0,0l7.2,5.3L52.3,50.9z M51.6,44.2l0.8,6.6l6.3-1.4L51.6,44.2z"/>
		</g>
		<g>
			<path class="st2" d="M52.4,50.9l-3.2-3.8l2.4-3.1L52.4,50.9z M49.3,47.2l3,3.6l-0.8-6.5L49.3,47.2z"/>
		</g>
		<g>
			<path class="st2" d="M69.2,50.2l-3.1-1l0,0l1.8-2.3L69.2,50.2z M66.2,49.2l2.9,0.9l-1.2-3.1L66.2,49.2z"/>
		</g>
		<g>
			<path class="st2" d="M40.1,49.6L40.1,49.6L35,46.5l4.7-6l0,0.1L40.1,49.6z M35,46.5l5,3l-0.4-8.9L35,46.5z"/>
		</g>
		<g>
			<path class="st2" d="M35,46.5L35,46.5L29.8,42l7.2-1.5L35,46.5z M30,42l5,4.4l2-5.9L30,42z"/>
		</g>
		<g>
			<path class="st2" d="M26.4,41.9l-3-2.6l7.1-1.1L26.4,41.9z M23.5,39.3l2.9,2.5l3.9-3.5L23.5,39.3z"/>
		</g>
		<g>
			<path class="st2" d="M23.4,39.3L23.4,39.3l6.9-4.4l0.1,3.3l0,0L23.4,39.3z M30.3,35l-6.8,4.3l6.8-1L30.3,35z"/>
		</g>
		<g>
			<path class="st2" d="M44.3,47.1l-4.6-6.5l0,0l5.3,3.7l0,0L44.3,47.1z M39.8,40.7l4.5,6.2l0.7-2.7L39.8,40.7z"/>
		</g>
		<g>
			<path class="st2" d="M29.9,42.1L29.9,42.1l-3.6-0.2l4.1-3.7L29.9,42.1z M26.4,41.8l3.5,0.2l0.5-3.7L26.4,41.8z"/>
		</g>
		<g>
			<path class="st2" d="M58.7,49.5L58.7,49.5l-7.3-5.4l5.9-1l0,0L58.7,49.5z M51.6,44.2l7,5.2l-1.3-6.2L51.6,44.2z"/>
		</g>
		<g>
			<path class="st2" d="M42.7,37.3L42.7,37.3l-4.1-4.4l4.4,0.2L42.7,37.3z M38.8,33l3.9,4.2l0.3-4L38.8,33z"/>
		</g>
		<g>
			<path class="st2" d="M69.1,50.2L69.1,50.2l2-5.5l0,0l3.6,2.6l0,0L69.1,50.2z M71.1,44.8l-2,5.3l5.5-2.8L71.1,44.8z"/>
		</g>
		<g>
			<path class="st2" d="M30.4,38.3l-0.1-3.3l0,0l7.1,0.9l0,0L30.4,38.3z M30.3,35l0.1,3.2l6.9-2.4L30.3,35z"/>
		</g>
		<g>
			<path class="st2" d="M41.5,29.4l0.8-8.6l3.3,5.7L41.5,29.4z M42.3,21l-0.7,8.3l4-2.8L42.3,21z"/>
		</g>
		<g>
			<path class="st2" d="M37,40.6l-6.7-2.3l0.1,0l7-2.4l0,0L37,40.6z M30.5,38.2l6.5,2.3l0.3-4.7L30.5,38.2z"/>
		</g>
		<g>
			<path class="st2" d="M51.5,44.2L56,38l1.3,5.2L51.5,44.2z M56,38.1l-4.4,6l5.7-1L56,38.1z"/>
		</g>
		<g>
			<path class="st2" d="M45,44.3l-5.3-3.7l0,0l3.1-3.3L45,44.3z M39.7,40.6l5.2,3.6l-2.2-6.8L39.7,40.6z"/>
		</g>
		<g>
			<path class="st2" d="M37.4,35.9L30.3,35l0,0l6.5-1.4L37.4,35.9z M30.5,35l6.9,0.8l-0.6-2.2L30.5,35z"/>
		</g>
		<g>
			<path class="st2" d="M30.3,35L30.3,35l5.2-3l1.3,1.7l0,0L30.3,35z M35.5,32l-5,2.9l6.3-1.3L35.5,32z"/>
		</g>
		<g>
			<path class="st2" d="M67.9,47L67.9,47l-1.5-6.3l4.7,4.1L67.9,47z M66.5,40.9l1.4,6.1l3.2-2.2L66.5,40.9z"/>
		</g>
		<g>
			<path class="st2" d="M30.3,35l-0.1-6l5.4,3L30.3,35z M30.2,29.1l0.1,5.9l5.1-2.9L30.2,29.1z"/>
		</g>
		<g>
			<path class="st2" d="M50.6,30.3L48.2,23l5.4,3.5L50.6,30.3z M48.3,23.2l2.4,7l2.9-3.7L48.3,23.2z"/>
		</g>
		<g>
			<path class="st2" d="M71.2,44.8L71.2,44.8l-4.7-4.1l5-0.5l0,0L71.2,44.8z M66.5,40.8l4.6,3.9l0.2-4.4L66.5,40.8z"/>
		</g>
		<g>
			<path class="st2" d="M51.9,34.1l-1.3-3.9l5.1,1.9L51.9,34.1z M50.7,30.3l1.2,3.7l3.6-1.9L50.7,30.3z"/>
		</g>
		<g>
			<path class="st2" d="M44.9,44.3L44.9,44.3l0.9-9.5l5.8,9.5L44.9,44.3z M45.8,34.9L45,44.2l6.6-0.1L45.8,34.9z"/>
		</g>
		<g>
			<path class="st2" d="M44.9,44.2l-2.2-7l0,0l3.1-2.5l0,0.1L44.9,44.2L44.9,44.2z M42.8,37.3l2.2,6.8l0.8-9.2L42.8,37.3z"/>
		</g>
		<g>
			<path class="st2" d="M42.8,37.3l-5.5-1.5l1.4-2.9L42.8,37.3z M37.4,35.8l5.2,1.4L38.7,33L37.4,35.8z"/>
		</g>
		<g>
			<path class="st2" d="M42.7,37.3l0.3-4.2l2.8,1.7l0,0L42.7,37.3z M43.1,33.2l-0.3,4l3-2.4L43.1,33.2z"/>
		</g>
		<g>
			<path class="st2" d="M71.4,40.3L71.4,40.3l-1.9-6.5l4.6,0.4l0,0L71.4,40.3z M69.6,33.9l1.8,6.3l2.6-6L69.6,33.9z"/>
		</g>
		<g>
			<path class="st2" d="M71.3,40.3L71.3,40.3l2.7-6.2l1.2,4.6L71.3,40.3z M74,34.3l-2.6,5.9l3.8-1.5L74,34.3z"/>
		</g>
		<g>
			<path class="st2" d="M71.1,44.9l0.2-4.6l4-1.6L71.1,44.9z M71.4,40.3l-0.2,4.4l4-5.9L71.4,40.3z"/>
		</g>
		<g>
			<path class="st2" d="M66.5,40.8l-5.4-1.7l4.9-1.9L66.5,40.8z M61.2,39.1l5.2,1.6L66,37.3L61.2,39.1z"/>
		</g>
		<g>
			<path class="st2" d="M66.5,40.8L66,37.2l0,0l5.4,3L66.5,40.8z M66,37.3l0.5,3.4l4.8-0.5L66,37.3z"/>
		</g>
		<g>
			<path class="st2" d="M61.2,39.2l-1.2-4.3l6.1,2.4L61.2,39.2z M60,35l1.2,4.1l4.7-1.8L60,35z"/>
		</g>
		<g>
			<path class="st2" d="M35.7,23.3l0.7-2.2l5.9-0.2l0,0L35.7,23.3z M36.4,21.1l-0.6,2.1l6.3-2.3L36.4,21.1z"/>
		</g>
		<g>
			<path class="st2" d="M74.7,47.4l-3.6-2.6l0,0l4.2-6.2L74.7,47.4z M71.2,44.8l3.5,2.5l0.5-8.5L71.2,44.8z"/>
		</g>
		<g>
			<path class="st2" d="M51.5,44.3L51.9,34l4.2,4.1l0,0L51.5,44.3z M51.9,34.1l-0.4,10l4.4-6L51.9,34.1z"/>
		</g>
		<g>
			<path class="st2" d="M51.6,44.3l-5.8-9.5l6.2-0.8l0,0L51.6,44.3z M45.8,34.8l5.7,9.3l0.4-10L45.8,34.8z"/>
		</g>
		<g>
			<path class="st2" d="M74.1,34.3l-4.6-0.4l0,0l1.1-3.6l0,0L74.1,34.3z M69.6,33.8l4.4,0.4l-3.4-3.8L69.6,33.8z"/>
		</g>
		<g>
			<path class="st2" d="M38.1,31.8L37,27.9l0,0l2.1,2.2L38.1,31.8z M37.1,28l1.1,3.6l0.9-1.5L37.1,28z"/>
		</g>
		<g>
			<path class="st2" d="M35.5,32l1.6-4.2l1.1,3.9L35.5,32z M37,28l-1.5,3.9l2.6-0.3L37,28z"/>
		</g>
		<g>
			<path class="st2" d="M71.4,40.3l-5.5-3l3.6-3.5L71.4,40.3z M66,37.3l5.3,2.9l-1.8-6.3L66,37.3z"/>
		</g>
		<g>
			<path class="st2" d="M56.1,38.2L51.9,34l3.8-2l0,0L56.1,38.2z M52,34.1l4,4l-0.4-5.9L52,34.1z"/>
		</g>
		<g>
			<path class="st2" d="M56,38.1L55.6,32l4.4,2.9l0,0L56,38.1z M55.7,32.1l0.4,5.9l3.9-3.1L55.7,32.1z"/>
		</g>
		<g>
			<path class="st2" d="M35.5,32l-5.4-3l6.9-1.1L35.5,32z M30.3,29l5.2,2.9l1.5-4L30.3,29z"/>
		</g>
		<g>
			<path class="st2" d="M50.6,30.3l-5.1-1.9l-0.1-1.8L50.6,30.3L50.6,30.3z M45.6,28.3l4.8,1.9l-4.9-3.5L45.6,28.3z"/>
		</g>
		<g>
			<path class="st2" d="M45.7,34.8l5-4.6l1.3,3.9L45.7,34.8z M50.6,30.3l-4.8,4.5l6-0.7L50.6,30.3z"/>
		</g>
		<g>
			<path class="st2" d="M45.7,34.9l-0.2-6.6l5.1,2L45.7,34.9z M45.6,28.4l0.2,6.4l4.8-4.5L45.6,28.4z"/>
		</g>
		<g>
			<path class="st2" d="M45.8,34.9L43,33.2l0,0l2.6-4.9L45.8,34.9z M43.1,33.1l2.7,1.6l-0.2-6.4L43.1,33.1z"/>
		</g>
		<g>
			<path class="st2" d="M50.7,30.3l-5.2-3.7l2.7-3.5L50.7,30.3z M45.6,26.6l5,3.6l-2.4-7L45.6,26.6z"/>
		</g>
		<g>
			<path class="st2" d="M41.5,29.4L41.5,29.4l4-2.9l0.1,1.8L41.5,29.4z M45.5,26.6l-3.9,2.7l3.9-1L45.5,26.6z"/>
		</g>
		<g>
			<path class="st2" d="M60,35l-4.4-2.9l3.6-2l0,0L60,35z M55.7,32.1l4.3,2.8l-0.8-4.8L55.7,32.1z"/>
		</g>
		<g>
			<path class="st2" d="M55.7,32.1l-5.1-1.9l2.9-3.8L55.7,32.1z M50.7,30.2l4.9,1.8l-2-5.5L50.7,30.2z"/>
		</g>
		<g>
			<path class="st2" d="M55.6,32.1l-2.1-5.7l5.7,3.6L55.6,32.1z M53.6,26.6l2,5.5l3.5-2L53.6,26.6z"/>
		</g>
	</g>
	<g>
		<path class="st2" d="M33.3,65.3c0.2,0,0.1,0.3-0.1,0.3C33.1,65.5,33.1,65.2,33.3,65.3z"/>
		<path class="st2" d="M42.5,66.8c0.2,0,0.1,0.3-0.1,0.3C42.2,67.1,42.3,66.8,42.5,66.8z"/>
		<path class="st2" d="M40.6,65c0.2,0,0.1,0.3-0.1,0.3C40.3,65.3,40.4,65,40.6,65z"/>
		<path class="st2" d="M38.8,64.3c0.2,0,0.1,0.3-0.1,0.3C38.6,64.6,38.6,64.3,38.8,64.3z"/>
		<path class="st2" d="M44.7,65.3c0.2,0,0.1,0.3-0.1,0.3C44.5,65.5,44.5,65.2,44.7,65.3z"/>
		<path class="st2" d="M47,63.6c0.2,0,0.1,0.3-0.1,0.3C46.8,63.8,46.8,63.5,47,63.6z"/>
		<path class="st2" d="M36.3,60.9c0.2,0,0.1,0.3-0.1,0.3C36,61.2,36.1,60.9,36.3,60.9z"/>
		<path class="st2" d="M38.8,61.4c0.2,0,0.1,0.3-0.1,0.3C38.6,61.7,38.6,61.4,38.8,61.4z"/>
		<path class="st2" d="M58,64.6c0.2,0,0.1,0.3-0.1,0.3C57.8,64.9,57.8,64.6,58,64.6z"/>
		<path class="st2" d="M27.6,58.8c0.2,0,0.1,0.3-0.1,0.3C27.4,59.1,27.4,58.8,27.6,58.8z"/>
		<path class="st2" d="M32.4,59.7c0.2,0,0.1,0.3-0.1,0.3C32.1,59.9,32.2,59.7,32.4,59.7z"/>
		<path class="st2" d="M45.4,61.9c0.2,0,0.1,0.3-0.1,0.3C45.2,62.2,45.2,61.9,45.4,61.9z"/>
		<path class="st2" d="M18.6,56.4c0.2,0,0.1,0.3-0.1,0.3C18.4,56.7,18.4,56.4,18.6,56.4z"/>
		<path class="st2" d="M36.9,59.2c0.2,0,0.1,0.3-0.1,0.3C36.6,59.5,36.7,59.2,36.9,59.2z"/>
		<path class="st2" d="M41.2,60c0.2,0,0.1,0.3-0.1,0.3C41,60.3,41,60,41.2,60z"/>
		<path class="st2" d="M61.9,63.5c0.2,0,0.1,0.3-0.1,0.3C61.7,63.7,61.8,63.4,61.9,63.5z"/>
		<path class="st2" d="M20.1,54.6c0.2,0,0.1,0.3-0.1,0.3C19.9,54.8,19.9,54.5,20.1,54.6z"/>
		<path class="st2" d="M47.7,59.6c0.2,0,0.1,0.3-0.1,0.3C47.4,59.8,47.5,59.5,47.7,59.6z"/>
		<path class="st2" d="M16.4,53.2c0.2,0,0.1,0.3-0.1,0.3C16.2,53.5,16.2,53.2,16.4,53.2z"/>
		<path class="st2" d="M50.9,59.6c0.2,0,0.1,0.3-0.1,0.3C50.6,59.8,50.7,59.5,50.9,59.6z"/>
		<path class="st2" d="M30.1,55c0.2,0,0.1,0.3-0.1,0.3C29.8,55.3,29.9,55,30.1,55z"/>
		<path class="st2" d="M56.1,59.2c0.2,0,0.1,0.3-0.1,0.3C55.9,59.4,55.9,59.1,56.1,59.2z"/>
		<path class="st2" d="M65.1,60.5c0.2,0,0.1,0.3-0.1,0.3C64.8,60.8,64.9,60.5,65.1,60.5z"/>
		<path class="st2" d="M62.6,60c0.2,0,0.1,0.3-0.1,0.3C62.3,60.3,62.4,60,62.6,60z"/>
		<path class="st2" d="M49.6,57.2c0.2,0,0.1,0.3-0.1,0.3C49.3,57.5,49.4,57.2,49.6,57.2z"/>
		<path class="st2" d="M15.8,50.9c0.2,0,0.1,0.3-0.1,0.3C15.6,51.2,15.6,50.9,15.8,50.9z"/>
		<path class="st2" d="M37.6,54.3c0.2,0,0.1,0.3-0.1,0.3C37.3,54.6,37.4,54.3,37.6,54.3z"/>
		<path class="st2" d="M60.4,58.1c0.2,0,0.1,0.3-0.1,0.3C60.1,58.4,60.2,58.1,60.4,58.1z"/>
		<path class="st2" d="M42.2,54.4c0.2,0,0.1,0.3-0.1,0.3C41.9,54.6,42,54.3,42.2,54.4z"/>
		<path class="st2" d="M32.2,51.4c0.2,0,0.1,0.3-0.1,0.3C32,51.7,32.1,51.4,32.2,51.4z"/>
		<path class="st2" d="M19.6,48.3c0.2,0,0.1,0.3-0.1,0.3C19.3,48.6,19.4,48.3,19.6,48.3z"/>
		<path class="st2" d="M58.4,55c0.2,0,0.1,0.3-0.1,0.3C58.1,55.2,58.2,54.9,58.4,55z"/>
		<path class="st2" d="M65.8,56.3c0.2,0,0.1,0.3-0.1,0.3C65.5,56.6,65.6,56.3,65.8,56.3z"/>
		<path class="st2" d="M50.3,53.4c0.2,0,0.1,0.3-0.1,0.3C50,53.6,50.1,53.3,50.3,53.4z"/>
		<path class="st2" d="M28.6,49.2c0.2,0,0.1,0.3-0.1,0.3C28.4,49.4,28.4,49.1,28.6,49.2z"/>
		<path class="st2" d="M61.9,55.2c0.2,0,0.1,0.3-0.1,0.3C61.6,55.4,61.7,55.1,61.9,55.2z"/>
		<path class="st2" d="M41.8,50.9c0.2,0,0.1,0.3-0.1,0.3C41.5,51.2,41.6,50.9,41.8,50.9z"/>
		<path class="st2" d="M45.3,50.6c0.2,0,0.1,0.3-0.1,0.3C45,50.9,45.1,50.6,45.3,50.6z"/>
		<path class="st2" d="M40.1,49.4c0.2,0,0.1,0.3-0.1,0.3C39.8,49.7,39.9,49.4,40.1,49.4z"/>
		<path class="st2" d="M70.8,54.5c0.2,0,0.1,0.3-0.1,0.3C70.5,54.7,70.6,54.4,70.8,54.5z"/>
		<path class="st2" d="M52.4,50.7c0.2,0,0.1,0.3-0.1,0.3C52.1,51,52.2,50.7,52.4,50.7z"/>
		<path class="st2" d="M20.1,44.4c0.2,0,0.1,0.3-0.1,0.3C19.9,44.6,19.9,44.4,20.1,44.4z"/>
		<path class="st2" d="M24.3,44.6c0.2,0,0.1,0.3-0.1,0.3C24.1,44.9,24.1,44.6,24.3,44.6z"/>
		<path class="st2" d="M35,46.3c0.2,0,0.1,0.3-0.1,0.3C34.8,46.6,34.8,46.3,35,46.3z"/>
		<path class="st2" d="M44.3,46.9c0.2,0,0.1,0.3-0.1,0.3C44,47.1,44.1,46.8,44.3,46.9z"/>
		<path class="st2" d="M58.7,49.3c0.2,0,0.1,0.3-0.1,0.3C58.5,49.6,58.5,49.3,58.7,49.3z"/>
		<path class="st2" d="M21.7,42.1c0.2,0,0.1,0.3-0.1,0.3C21.4,42.4,21.5,42.1,21.7,42.1z"/>
		<path class="st2" d="M49.3,47c0.2,0,0.1,0.3-0.1,0.3C49,47.3,49.1,47,49.3,47z"/>
		<path class="st2" d="M69.2,50.1c0.2,0,0.1,0.3-0.1,0.3C68.9,50.3,69,50,69.2,50.1z"/>
		<path class="st2" d="M26.4,41.7c0.2,0,0.1,0.3-0.1,0.3C26.1,41.9,26.2,41.6,26.4,41.7z"/>
		<path class="st2" d="M66.1,49.1c0.2,0,0.1,0.3-0.1,0.3C65.9,49.4,66,49.1,66.1,49.1z"/>
		<path class="st2" d="M29.9,41.9c0.2,0,0.1,0.3-0.1,0.3C29.7,42.1,29.7,41.9,29.9,41.9z"/>
		<path class="st2" d="M45,44.1c0.2,0,0.1,0.3-0.1,0.3C44.7,44.3,44.8,44,45,44.1z"/>
		<path class="st2" d="M23.4,39.2c0.2,0,0.1,0.3-0.1,0.3C23.2,39.4,23.2,39.1,23.4,39.2z"/>
		<path class="st2" d="M51.6,44c0.2,0,0.1,0.3-0.1,0.3C51.3,44.3,51.4,44,51.6,44z"/>
		<path class="st2" d="M67.9,46.9c0.2,0,0.1,0.3-0.1,0.3C67.7,47.1,67.7,46.8,67.9,46.9z"/>
		<path class="st2" d="M37,40.4c0.2,0,0.1,0.3-0.1,0.3C36.8,40.7,36.9,40.4,37,40.4z"/>
		<path class="st2" d="M74.7,47.2c0.2,0,0.1,0.3-0.1,0.3C74.5,47.5,74.5,47.2,74.7,47.2z"/>
		<path class="st2" d="M39.7,40.4c0.2,0,0.1,0.3-0.1,0.3C39.5,40.7,39.5,40.4,39.7,40.4z"/>
		<path class="st2" d="M30.4,38.1c0.2,0,0.1,0.3-0.1,0.3C30.2,38.4,30.2,38.1,30.4,38.1z"/>
		<path class="st2" d="M57.4,43.1c0.2,0,0.1,0.3-0.1,0.3C57.1,43.3,57.2,43,57.4,43.1z"/>
		<path class="st2" d="M62.8,43.2c0.2,0,0.1,0.3-0.1,0.3C62.5,43.5,62.6,43.2,62.8,43.2z"/>
		<path class="st2" d="M71.2,44.6c0.2,0,0.1,0.3-0.1,0.3C70.9,44.9,71,44.6,71.2,44.6z"/>
		<path class="st2" d="M60.4,42c0.2,0,0.1,0.3-0.1,0.3C60.1,42.3,60.2,42,60.4,42z"/>
		<path class="st2" d="M23.4,33.9c0.2,0,0.1,0.3-0.1,0.3C23.1,34.2,23.2,33.9,23.4,33.9z"/>
		<path class="st2" d="M30.3,34.8c0.2,0,0.1,0.3-0.1,0.3C30.1,35.1,30.1,34.8,30.3,34.8z"/>
		<path class="st2" d="M42.8,37.1c0.2,0,0.1,0.3-0.1,0.3C42.5,37.4,42.6,37.1,42.8,37.1z"/>
		<path class="st2" d="M37.4,35.7c0.2,0,0.1,0.3-0.1,0.3C37.1,35.9,37.2,35.6,37.4,35.7z"/>
		<path class="st2" d="M66.5,40.7c0.2,0,0.1,0.3-0.1,0.3C66.3,40.9,66.3,40.6,66.5,40.7z"/>
		<path class="st2" d="M61.2,39c0.2,0,0.1,0.3-0.1,0.3C60.9,39.2,61,38.9,61.2,39z"/>
		<path class="st2" d="M56.1,37.9c0.2,0,0.1,0.3-0.1,0.3C55.8,38.2,55.9,37.9,56.1,37.9z"/>
		<path class="st2" d="M71.4,40.1c0.2,0,0.1,0.3-0.1,0.3C71.1,40.4,71.2,40.1,71.4,40.1z"/>
		<path class="st2" d="M36.8,33.4c0.2,0,0.1,0.3-0.1,0.3C36.6,33.7,36.6,33.4,36.8,33.4z"/>
		<path class="st2" d="M45.8,34.7c0.2,0,0.1,0.3-0.1,0.3C45.5,34.9,45.6,34.6,45.8,34.7z"/>
		<path class="st2" d="M38.8,32.8c0.2,0,0.1,0.3-0.1,0.3C38.5,33.1,38.6,32.8,38.8,32.8z"/>
		<path class="st2" d="M38,32.6c0.2,0,0.1,0.3-0.1,0.3C37.7,32.8,37.8,32.6,38,32.6z"/>
		<path class="st2" d="M35.5,31.8c0.2,0,0.1,0.3-0.1,0.3C35.3,32.1,35.3,31.8,35.5,31.8z"/>
		<path class="st2" d="M43.1,33c0.2,0,0.1,0.3-0.1,0.3C42.8,33.3,42.9,33,43.1,33z"/>
		<path class="st2" d="M66,37.1c0.2,0,0.1,0.3-0.1,0.3C65.8,37.4,65.8,37.1,66,37.1z"/>
		<path class="st2" d="M75.3,38.6c0.2,0,0.1,0.3-0.1,0.3C75,38.8,75.1,38.5,75.3,38.6z"/>
		<path class="st2" d="M38.2,31.6c0.2,0,0.1,0.3-0.1,0.3C37.9,31.8,38,31.5,38.2,31.6z"/>
		<path class="st2" d="M51.9,33.9c0.2,0,0.1,0.3-0.1,0.3C51.7,34.2,51.8,33.9,51.9,33.9z"/>
		<path class="st2" d="M41.1,31.6c0.2,0,0.1,0.3-0.1,0.3C40.9,31.8,40.9,31.5,41.1,31.6z"/>
		<path class="st2" d="M60,34.8c0.2,0,0.1,0.3-0.1,0.3C59.7,35.1,59.8,34.8,60,34.8z"/>
		<path class="st2" d="M30.2,28.9c0.2,0,0.1,0.3-0.1,0.3C30,29.1,30,28.8,30.2,28.9z"/>
		<path class="st2" d="M39.1,30c0.2,0,0.1,0.3-0.1,0.3C38.9,30.3,38.9,30,39.1,30z"/>
		<path class="st2" d="M42.2,30.2c0.2,0,0.1,0.3-0.1,0.3C42,30.4,42,30.2,42.2,30.2z"/>
		<path class="st2" d="M55.7,31.9c0.2,0,0.1,0.3-0.1,0.3C55.4,32.2,55.5,31.9,55.7,31.9z"/>
		<path class="st2" d="M41.6,29.2c0.2,0,0.1,0.3-0.1,0.3S41.4,29.2,41.6,29.2z"/>
		<path class="st2" d="M64.1,33.1c0.2,0,0.1,0.3-0.1,0.3C63.9,33.4,63.9,33.1,64.1,33.1z"/>
		<path class="st2" d="M37,27.8c0.2,0,0.1,0.3-0.1,0.3C36.8,28,36.8,27.7,37,27.8z"/>
		<path class="st2" d="M69.6,33.7c0.2,0,0.1,0.3-0.1,0.3C69.3,34,69.4,33.7,69.6,33.7z"/>
		<path class="st2" d="M50.7,30.1c0.2,0,0.1,0.3-0.1,0.3C50.4,30.4,50.5,30.1,50.7,30.1z"/>
		<path class="st2" d="M74,34.1c0.2,0,0.1,0.3-0.1,0.3C73.8,34.3,73.9,34,74,34.1z"/>
		<path class="st2" d="M45.6,28.2c0.2,0,0.1,0.3-0.1,0.3C45.4,28.4,45.4,28.1,45.6,28.2z"/>
		<path class="st2" d="M59.2,29.9c0.2,0,0.1,0.3-0.1,0.3C59,30.2,59,29.9,59.2,29.9z"/>
		<path class="st2" d="M65.9,30.7c0.2,0,0.1,0.3-0.1,0.3C65.7,31,65.7,30.7,65.9,30.7z"/>
		<path class="st2" d="M45.6,26.4c0.2,0,0.1,0.3-0.1,0.3C45.3,26.7,45.4,26.4,45.6,26.4z"/>
		<path class="st2" d="M70.6,30.2c0.2,0,0.1,0.3-0.1,0.3C70.3,30.4,70.4,30.1,70.6,30.2z"/>
		<path class="st2" d="M35.8,23.1c0.2,0,0.1,0.3-0.1,0.3C35.5,23.4,35.6,23.1,35.8,23.1z"/>
		<path class="st2" d="M53.6,26.4c0.2,0,0.1,0.3-0.1,0.3C53.3,26.6,53.4,26.3,53.6,26.4z"/>
		<path class="st2" d="M61.5,27.4c0.2,0,0.1,0.3-0.1,0.3C61.3,27.7,61.3,27.4,61.5,27.4z"/>
		<path class="st2" d="M36.4,21c0.2,0,0.1,0.3-0.1,0.3C36.2,21.2,36.2,20.9,36.4,21z"/>
		<path class="st2" d="M48.3,23c0.2,0,0.1,0.3-0.1,0.3C48,23.2,48.1,22.9,48.3,23z"/>
		<path class="st2" d="M42.3,20.8c0.2,0,0.1,0.3-0.1,0.3C42.1,21,42.1,20.7,42.3,20.8z"/>
		<path class="st2" d="M48,21.3c0.2,0,0.1,0.3-0.1,0.3C47.7,21.6,47.8,21.3,48,21.3z"/>
		<path class="st2" d="M36.2,18.3c0.2,0,0.1,0.3-0.1,0.3C35.9,18.5,36,18.2,36.2,18.3z"/>
		<path class="st2" d="M42.8,18.4c0.2,0,0.1,0.3-0.1,0.3C42.6,18.6,42.6,18.3,42.8,18.4z"/>
		<path class="st2" d="M40.3,16.6c0.2,0,0.1,0.3-0.1,0.3C40,16.9,40.1,16.6,40.3,16.6z"/>
	</g>
</g>
<g class="st0">
	<g class="st4">
		<g>
			<path class="st2" d="M34.9,43.9l-3.6-0.6l0,0l-0.7-2.8L34.9,43.9z M31.4,43.2l3.3,0.5l-4-3.1L31.4,43.2z"/>
		</g>
		<g>
			<polygon class="st2" points="5.3,0 6.4,3.9 3.3,5.4 5.1,0 5,0 3.2,5.5 6.5,3.9 5.4,0 			"/>
		</g>
		<g>
			<polygon class="st2" points="7.5,0 7.6,0.4 6.5,0 6.3,0 7.7,0.5 7.5,0 			"/>
		</g>
		<g>
			<polygon class="st2" points="7.9,0 7.6,0.4 7.5,0 7.5,0 7.6,0.5 7.9,0 			"/>
		</g>
		<g>
			<path class="st2" d="M6.4,4l1.2-3.5l0,0l5.2-0.2l0,0L6.4,4z M7.6,0.5L6.5,3.9l6.2-3.5L7.6,0.5z"/>
		</g>
		<g>
			<path class="st2" d="M34.8,43.9L34.8,43.9l-4.1-3.3l6-3.1L34.8,43.9z M30.8,40.6l4,3.2l1.8-6.2L30.8,40.6z"/>
		</g>
		<g>
			<polygon class="st2" points="13,0 12.8,0.2 12.7,0 12.7,0 12.8,0.4 13,0 			"/>
		</g>
		<g>
			<polygon class="st2" points="12.7,0 12.8,0.3 7.7,0.4 7.9,0 7.9,0 7.6,0.5 12.8,0.3 12.8,0.3 12.7,0 			"/>
		</g>
		<g>
			<polygon class="st2" points="0,9 0,9.1 6.8,11.4 0,13.2 0,13.2 6.8,11.5 6.9,11.5 			"/>
		</g>
		<g>
			<polygon class="st2" points="6.3,0 7.6,0.5 6.5,3.8 5.4,0 5.3,0 6.5,4 7.7,0.5 6.5,0 			"/>
		</g>
		<g>
			<polygon class="st2" points="5.7,7.2 0,8.1 0,8.1 5.7,7.3 6.8,11.4 0,9 0,9.1 6.8,11.5 6.9,11.5 			"/>
		</g>
		<g>
			<path class="st2" d="M5.7,7.3l0.8-3.4l0,0l8.1,2.6l0,0L5.7,7.3z M6.5,3.9L5.7,7.2l8.7-0.7L6.5,3.9z"/>
		</g>
		<g>
			<polygon class="st2" points="17.9,0 19.2,4.2 12.9,0.3 14,0 13.8,0 12.7,0.3 19.3,4.4 17.9,0 			"/>
		</g>
		<g>
			<path class="st2" d="M30.7,40.6l2-9.8l3.6,4.1L30.7,40.6z M32.7,31l-1.9,9.5l5.4-5.5L32.7,31z"/>
		</g>
		<g>
			<path class="st2" d="M5.7,7.3L5.7,7.3L3.2,5.5l3.3-1.6L5.7,7.3z M3.3,5.5l2.4,1.7L6.4,4L3.3,5.5z"/>
		</g>
		<g>
			<polygon class="st2" points="0,7.4 3.2,5.5 5.6,7.2 0,8.1 0,8.1 5.8,7.3 3.3,5.4 3.2,5.4 0,7.3 			"/>
		</g>
		<g>
			<polygon class="st2" points="20.7,0 19.3,4.2 17.9,0 17.9,0 19.3,4.4 20.7,0 			"/>
		</g>
		<g>
			<polygon class="st2" points="26.5,0 26.5,0 19.3,4.2 20.7,0 20.7,0 19.2,4.4 26.5,0 26.6,0 26.6,0 			"/>
		</g>
		<g>
			<polygon class="st2" points="41.3,0 40.4,1.6 40.6,0 40.5,0 40.3,1.7 40.4,1.7 41.4,0 			"/>
		</g>
		<g>
			<polygon class="st2" points="40.5,0 40.3,1.6 39.4,0 39.3,0 40.4,1.8 40.6,0 			"/>
		</g>
		<g>
			<path class="st2" d="M14.5,6.6l-1.8-6.3l6.6,4.1L14.5,6.6z M12.8,0.4l1.7,6.1l4.6-2.2L12.8,0.4z"/>
		</g>
		<g>
			<path class="st2" d="M26.5,0l-7.3,4.3L26,4.7l0,0L26.5,0L26.5,0z M26,4.6l-6.7-0.3l7.2-4.2L26,4.6z"/>
		</g>
		<g>
			<path class="st2" d="M10.9,17.4l2.4-5.7l2.9,3.4L10.9,17.4z M13.3,11.9L11,17.3l5-2.2L13.3,11.9z"/>
		</g>
		<g>
			<path class="st2" d="M32.9,13.3l4.4-5.6l0,0l-0.7,4l0,0L32.9,13.3z M37.3,7.8l-4.2,5.4l3.6-1.5L37.3,7.8z"/>
		</g>
		<g>
			<polygon class="st2" points="39.3,0 40.3,1.7 30.8,5.2 34.1,0 34,0 30.7,5.3 40.4,1.7 40.4,1.7 39.4,0 			"/>
		</g>
		<g>
			<path class="st2" d="M6.8,11.5L6.8,11.5L5.7,7.2l8.9-0.7l0,0L6.8,11.5z M5.7,7.3l1.1,4.2l7.6-4.9L5.7,7.3z"/>
		</g>
		<g>
			<polygon class="st2" points="34,0 30.8,5.2 26.6,0 26.6,0 26.5,0 30.8,5.2 34.1,0 			"/>
		</g>
		<g>
			<path class="st2" d="M16.8,18.3l-5.9-0.9l5.2-2.3L16.8,18.3z M11,17.4l5.7,0.9l-0.6-3.1L11,17.4z"/>
		</g>
		<g>
			<path class="st2" d="M26.5,0L26,4.7l4.8,0.6L26.5,0L26.5,0z M26.1,4.6l0.5-4.6l4.2,5.1L26.1,4.6z"/>
		</g>
		<g>
			<polygon class="st2" points="0,13.2 0,13.2 6.8,11.5 6,15.1 0,14.1 0,14.1 6,15.2 6.9,11.4 			"/>
		</g>
		<g>
			<path class="st2" d="M22.3,24.3l1.5-4.9l4.7,3.8L22.3,24.3z M23.8,19.4l-1.5,4.8l6-1.1L23.8,19.4z"/>
		</g>
		<g>
			<path class="st2" d="M30.7,40.7l-3.4-9l0,0l5.3-0.7l0,0L30.7,40.7z M27.4,31.7l3.3,8.8l1.9-9.5L27.4,31.7z"/>
		</g>
		<g>
			<path class="st2" d="M37.3,7.7l3-6.1l1.4,4.3L37.3,7.7z M40.3,1.7l-2.9,5.9l4.3-1.8L40.3,1.7z"/>
		</g>
		<g>
			<path class="st2" d="M37.4,7.7L37.4,7.7l-6.7-2.5l9.7-3.6L37.4,7.7z M30.9,5.2l6.5,2.5l3-5.9L30.9,5.2z"/>
		</g>
		<g>
			<path class="st2" d="M28.5,23.2l-4.7-3.8l2.8-1.3L28.5,23.2z M23.9,19.4l4.5,3.6l-1.9-4.8L23.9,19.4z"/>
		</g>
		<g>
			<path class="st2" d="M25.7,11.2L26,4.6l0,0l4.8,0.6L25.7,11.2z M26.1,4.7l-0.3,6.4l5-5.9L26.1,4.7z"/>
		</g>
		<g>
			<path class="st2" d="M25.7,11.2L25.7,11.2L19,10.5l7-5.9L25.7,11.2z M19.2,10.5l6.5,0.7L26,4.7L19.2,10.5z"/>
		</g>
		<g>
			<polygon class="st2" points="0,14.1 0,14.1 5.9,15.2 0.3,19.6 0,18.9 0,19 0.2,19.7 0.3,19.7 6,15.2 6.1,15.1 			"/>
		</g>
		<g>
			<path class="st2" d="M11,17.4l-5-2.3l0,0l0.8-3.8L11,17.4z M6,15.1l4.8,2.2l-4-5.8L6,15.1z"/>
		</g>
		<g>
			<path class="st2" d="M11,17.4l-4.2-6l6.5,0.4l0,0L11,17.4z M6.9,11.5l4.1,5.9l2.3-5.5L6.9,11.5z"/>
		</g>
		<g>
			<polygon class="st2" points="0,19.4 0,19.5 0.2,19.6 0,19.7 0,19.8 0.3,19.6 			"/>
		</g>
		<g>
			<path class="st2" d="M10,21.6l0.9-4.2l0,0l5.9,0.9L10,21.6z M11,17.4l-0.9,4.1l6.6-3.2L11,17.4z"/>
		</g>
		<g>
			<path class="st2" d="M26.4,18.2l6.6-5l1.4,4.1L26.4,18.2z M33,13.2l-6.4,4.9l7.7-0.9L33,13.2z"/>
		</g>
		<g>
			<path class="st2" d="M33,13.3l-2.3-8.1l6.7,2.5L33,13.3z M30.8,5.2l2.2,7.9l4.3-5.4L30.8,5.2z"/>
		</g>
		<g>
			<path class="st2" d="M33.1,13.2l-7.4-2.1l0,0l5.1-6l0,0L33.1,13.2z M25.7,11.2l7.2,2l-2.2-7.9L25.7,11.2z"/>
		</g>
		<g>
			<path class="st2" d="M23.9,19.5L16,15.1l3.1-4.7L23.9,19.5z M16.1,15.1l7.6,4.2l-4.7-8.8L16.1,15.1z"/>
		</g>
		<g>
			<path class="st2" d="M23.8,19.4l1.9-8.3l0,0l0.8,7L23.8,19.4z M25.7,11.3l-1.8,8l2.6-1.2L25.7,11.3z"/>
		</g>
		<g>
			<path class="st2" d="M10.1,21.6L10.1,21.6l-9.9-1.9L6,15.1l0,0L10.1,21.6z M0.3,19.6l9.7,1.9l-4-6.3L0.3,19.6z"/>
		</g>
		<g>
			<path class="st2" d="M10.1,21.6l-4.1-6.5l5,2.3L10.1,21.6z M6.1,15.2l4,6.3l0.9-4.1L6.1,15.2z"/>
		</g>
		<g>
			<path class="st2" d="M23.8,19.5l-4.8-9l0,0l6.6,0.7L23.8,19.5z M19.1,10.5l4.7,8.8l1.9-8.1L19.1,10.5z"/>
		</g>
		<g>
			<path class="st2" d="M26.5,18.2l-0.8-7.1l0,0l7.4,2L26.5,18.2z M25.7,11.2l0.8,6.9l6.4-4.9L25.7,11.2z"/>
		</g>
		<g>
			<path class="st2" d="M34.3,17.3l2.4-5.7l0,0l4.3,1.1L34.3,17.3z M36.7,11.7l-2.3,5.5l6.4-4.4L36.7,11.7z"/>
		</g>
		<g>
			<path class="st2" d="M36,20.6l-1.7-3.3l6.6-4.5l0,0L36,20.6z M34.4,17.3l1.6,3.2l4.8-7.6L34.4,17.3z"/>
		</g>
		<g>
			<path class="st2" d="M23.8,19.4l-7.1-1.1L16,15.1l0,0L23.8,19.4L23.8,19.4z M16.8,18.2l6.9,1.1l-7.6-4.2L16.8,18.2z"/>
		</g>
		<g>
			<path class="st2" d="M34.4,17.3L33,13.2l0,0l3.7-1.5L34.4,17.3z M33,13.2l1.3,4l2.3-5.5L33,13.2z"/>
		</g>
		<g>
			<path class="st2" d="M4.7,25.4l-4.4-5.8l9.9,1.9L4.7,25.4z M0.3,19.7l4.3,5.6l5.3-3.7L0.3,19.7z"/>
		</g>
		<g>
			<path class="st2" d="M24,28.6L24,28.6l-1.7-4.4l6.2,2.5L24,28.6z M22.4,24.3l1.7,4.2l4.4-1.9L22.4,24.3z"/>
		</g>
		<g>
			<path class="st2" d="M28.5,23.1L28.5,23.1l5.9-5.9l1.7,3.3l0,0L28.5,23.1z M34.4,17.3l-5.8,5.7l7.4-2.5L34.4,17.3z"/>
		</g>
		<g>
			<path class="st2" d="M30.8,40.6l-6.1-4.2l2.7-4.9L30.8,40.6z M24.7,36.5l6,4.1l-3.3-8.8L24.7,36.5z"/>
		</g>
		<g>
			<path class="st2" d="M28.5,23.2L28.5,23.2l-2-5l7.9-0.9L28.5,23.2z M26.6,18.2l1.9,4.9l5.8-5.8L26.6,18.2z"/>
		</g>
		<g>
			<path class="st2" d="M8.5,29.9l-3.9-4.6l0,0l5.5-3.8L8.5,29.9z M4.7,25.3l3.8,4.5l1.6-8.2L4.7,25.3z"/>
		</g>
		<g>
			<path class="st2" d="M22.4,24.3l-5.7-6.1l7.2,1.2L22.4,24.3z M16.8,18.3l5.5,5.9l1.5-4.8L16.8,18.3z"/>
		</g>
		<g>
			<path class="st2" d="M30.1,25.1l-1.7-2l7.6-2.6l0,0L30.1,25.1z M28.5,23.1l1.6,1.9l5.8-4.4L28.5,23.1z"/>
		</g>
		<g>
			<path class="st2" d="M32.2,26.1l-2.1-1l5.9-4.6l0,0L32.2,26.1z M30.2,25.1l2,1l3.7-5.4L30.2,25.1z"/>
		</g>
		<g>
			<path class="st2" d="M39.1,26.6l-6.9-0.4l3.9-5.6L39.1,26.6z M32.3,26.1l6.7,0.4l-3-5.9L32.3,26.1z"/>
		</g>
		<g>
			<path class="st2" d="M23.7,41.3l-7.1-0.9l1.1-5.2L23.7,41.3z M16.6,40.3l6.9,0.9l-5.8-6L16.6,40.3z"/>
		</g>
		<g>
			<path class="st2" d="M11.7,35.8l2.9-3.9l3.2,3.3L11.7,35.8z M14.6,32l-2.8,3.7l5.8-0.5L14.6,32z"/>
		</g>
		<g>
			<path class="st2" d="M20.5,28.3L10,21.5l6.7-3.3l0,0L20.5,28.3z M10.1,21.5l10.3,6.6l-3.7-9.9L10.1,21.5z"/>
		</g>
		<g>
			<path class="st2" d="M20.5,28.3L20.5,28.3l-3.7-10l0,0l5.6,6L20.5,28.3z M16.8,18.4l3.6,9.8l1.9-3.9L16.8,18.4z"/>
		</g>
		<g>
			<path class="st2" d="M28.5,26.7l-6.2-2.5l6.2-1.1L28.5,26.7z M22.4,24.2l6,2.4l0-3.5L22.4,24.2z"/>
		</g>
		<g>
			<path class="st2" d="M24.1,28.6l-3.6-0.4l1.9-4.1L24.1,28.6z M20.5,28.2l3.5,0.3l-1.6-4.2L20.5,28.2z"/>
		</g>
		<g>
			<polygon class="st2" points="0,31.7 0,31.7 2.7,31.3 0,34.2 0,34.3 2.9,31.3 			"/>
		</g>
		<g>
			<polygon class="st2" points="2.8,31.3 2.8,31.3 0,34.2 0,34.3 2.8,31.3 6,34.9 0,35.4 0,35.4 6,35 6.1,35 			"/>
		</g>
		<g>
			<path class="st2" d="M30.7,40.6L30.7,40.6l5.5-5.6l0.4,2.6L30.7,40.6z M36.2,35.1l-5.3,5.4l5.7-3L36.2,35.1z"/>
		</g>
		<g>
			<path class="st2" d="M14.6,32l-6.2-2.1l0,0l1.6-8.4L14.6,32z M8.5,29.8l6,2.1l-4.5-10.3L8.5,29.8z"/>
		</g>
		<g>
			<path class="st2" d="M14.6,32L14.6,32L10,21.5l10.5,6.7L14.6,32z M10.1,21.6l4.5,10.3l5.8-3.7L10.1,21.6z"/>
		</g>
		<g>
			<path class="st2" d="M32.6,31l-3.2-1.2l0.2-2.1L32.6,31L32.6,31z M29.5,29.7l3.1,1.2l-2.9-3.2L29.5,29.7z"/>
		</g>
		<g>
			<path class="st2" d="M32.7,31l-3-3.4l2.6-1.6L32.7,31z M29.7,27.7l2.9,3.2l-0.4-4.7L29.7,27.7z"/>
		</g>
		<g>
			<path class="st2" d="M11.8,35.8l-3.4-6l6.2,2.1L11.8,35.8z M8.5,29.9l3.3,5.8l2.8-3.7L8.5,29.9z"/>
		</g>
		<g>
			<path class="st2" d="M11.8,35.8L6,35l2.5-5.2L11.8,35.8z M6.1,34.9l5.7,0.8l-3.3-5.8L6.1,34.9z"/>
		</g>
		<g>
			<path class="st2" d="M32.6,31l-0.4-4.9l6.9,0.4L32.6,31z M32.2,26.1l0.4,4.8l6.3-4.3L32.2,26.1z"/>
		</g>
		<g>
			<path class="st2" d="M24.7,36.5L24.7,36.5l-7-1.3l0,0l6.1-0.5L24.7,36.5z M17.9,35.2l6.7,1.2l-0.9-1.7L17.9,35.2z"/>
		</g>
		<g>
			<path class="st2" d="M17.7,35.2l-3.2-3.3l0,0l5.9-3.8L17.7,35.2z M14.6,32l3.1,3.2l2.7-6.9L14.6,32z"/>
		</g>
		<g>
			<path class="st2" d="M17.7,35.2l2.8-7.1l0,0l3.3,6.5l0,0L17.7,35.2z M20.5,28.3l-2.7,6.9l6-0.5L20.5,28.3z"/>
		</g>
		<g>
			<path class="st2" d="M23.8,34.8l-3.4-6.6l3.6,0.4l0,0L23.8,34.8z M20.5,28.2l3.2,6.4l0.3-6L20.5,28.2z"/>
		</g>
		<g>
			<path class="st2" d="M23.6,41.3l-6-6.2l7,1.3L23.6,41.3z M17.8,35.2l5.8,6l1-4.7L17.8,35.2z"/>
		</g>
		<g>
			<path class="st2" d="M24.7,36.5l-0.9-1.8l3.6-3.1l0,0L24.7,36.5z M23.8,34.7l0.9,1.7l2.6-4.6L23.8,34.7z"/>
		</g>
		<g>
			<path class="st2" d="M9.1,39.5L6,34.9l5.9,0.8l0,0L9.1,39.5z M6.1,35l3.1,4.5l2.6-3.7L6.1,35z"/>
		</g>
		<g>
			<path class="st2" d="M16.6,40.4l-4.9-4.7l6-0.6L16.6,40.4z M11.8,35.8l4.7,4.5l1.1-5.1L11.8,35.8z"/>
		</g>
		<g>
			<path class="st2" d="M16.7,40.4l-7.6-0.9l2.7-3.8L16.7,40.4z M9.2,39.5l7.3,0.9l-4.7-4.5L9.2,39.5z"/>
		</g>
	</g>
	<g>
		<path class="st2" d="M7.7,0.6C7.5,0.7,7.4,0.4,7.6,0.3C7.8,0.3,7.9,0.6,7.7,0.6z"/>
		<path class="st2" d="M12.8,0.5c-0.2,0.1-0.3-0.3-0.1-0.3C13,0.1,13.1,0.4,12.8,0.5z"/>
		<path class="st2" d="M6.5,4.1C6.3,4.1,6.2,3.8,6.4,3.7C6.6,3.7,6.7,4,6.5,4.1z"/>
		<path class="st2" d="M3.3,5.6C3.1,5.7,3,5.4,3.2,5.3C3.4,5.2,3.5,5.6,3.3,5.6z"/>
		<path class="st2" d="M26.4,0c0,0.1,0.1,0.2,0.2,0.2c0.1,0,0.1-0.1,0.1-0.2H26.4z"/>
		<path class="st2" d="M5.8,7.4C5.5,7.5,5.5,7.1,5.7,7.1C5.9,7,6,7.3,5.8,7.4z"/>
		<path class="st2" d="M19.3,4.5c-0.2,0.1-0.3-0.3-0.1-0.3C19.4,4.1,19.5,4.4,19.3,4.5z"/>
		<path class="st2" d="M14.6,6.7c-0.2,0.1-0.3-0.3-0.1-0.3C14.7,6.3,14.8,6.6,14.6,6.7z"/>
		<path class="st2" d="M26.1,4.8c-0.2,0.1-0.3-0.3-0.1-0.3C26.2,4.4,26.3,4.8,26.1,4.8z"/>
		<path class="st2" d="M40.4,1.8c-0.2,0.1-0.3-0.3-0.1-0.3C40.5,1.5,40.6,1.8,40.4,1.8z"/>
		<path class="st2" d="M6.9,11.6c-0.2,0.1-0.3-0.3-0.1-0.3C7,11.2,7.1,11.6,6.9,11.6z"/>
		<path class="st2" d="M30.8,5.4c-0.2,0.1-0.3-0.3-0.1-0.3C31,5,31,5.3,30.8,5.4z"/>
		<path class="st2" d="M16.7,9.9c-0.2,0.1-0.3-0.3-0.1-0.3C16.8,9.6,16.9,9.9,16.7,9.9z"/>
		<path class="st2" d="M13.3,12c-0.2,0.1-0.3-0.3-0.1-0.3C13.4,11.6,13.5,11.9,13.3,12z"/>
		<path class="st2" d="M19.1,10.7c-0.2,0.1-0.3-0.3-0.1-0.3C19.3,10.3,19.4,10.6,19.1,10.7z"/>
		<path class="st2" d="M6.1,15.3C5.8,15.4,5.7,15,6,15C6.2,14.9,6.3,15.3,6.1,15.3z"/>
		<path class="st2" d="M41.8,6.1c-0.2,0.1-0.3-0.3-0.1-0.3C41.9,5.7,42,6,41.8,6.1z"/>
		<path class="st2" d="M37.4,7.9c-0.2,0.1-0.3-0.3-0.1-0.3C37.5,7.5,37.6,7.8,37.4,7.9z"/>
		<path class="st2" d="M25.7,11.3c-0.2,0.1-0.3-0.3-0.1-0.3C25.9,11,26,11.3,25.7,11.3z"/>
		<path class="st2" d="M16.1,15.3C15.9,15.4,15.8,15,16,15C16.3,14.9,16.3,15.2,16.1,15.3z"/>
		<path class="st2" d="M0.3,19.8c-0.2,0.1-0.3-0.3-0.1-0.3C0.4,19.4,0.5,19.7,0.3,19.8z"/>
		<path class="st2" d="M41.3,9.2c-0.2,0.1-0.3-0.3-0.1-0.3C41.4,8.8,41.5,9.1,41.3,9.2z"/>
		<path class="st2" d="M11,17.5c-0.2,0.1-0.3-0.3-0.1-0.3C11.1,17.2,11.2,17.5,11,17.5z"/>
		<path class="st2" d="M36.7,11.9c-0.2,0.1-0.3-0.3-0.1-0.3C36.9,11.5,37,11.8,36.7,11.9z"/>
		<path class="st2" d="M33.1,13.4c-0.2,0.1-0.3-0.3-0.1-0.3C33.2,13,33.3,13.3,33.1,13.4z"/>
		<path class="st2" d="M16.8,18.4c-0.2,0.1-0.3-0.3-0.1-0.3C16.9,18,17,18.4,16.8,18.4z"/>
		<path class="st2" d="M40.9,13c-0.2,0.1-0.3-0.3-0.1-0.3C41.1,12.6,41.2,12.9,40.9,13z"/>
		<path class="st2" d="M10.1,21.7c-0.2,0.1-0.3-0.3-0.1-0.3C10.2,21.3,10.3,21.6,10.1,21.7z"/>
		<path class="st2" d="M26.6,18.3c-0.2,0.1-0.3-0.3-0.1-0.3C26.7,17.9,26.8,18.3,26.6,18.3z"/>
		<path class="st2" d="M23.9,19.6c-0.2,0.1-0.3-0.3-0.1-0.3C24,19.2,24.1,19.5,23.9,19.6z"/>
		<path class="st2" d="M34.4,17.4c-0.2,0.1-0.3-0.3-0.1-0.3C34.5,17,34.6,17.4,34.4,17.4z"/>
		<path class="st2" d="M4.7,25.5c-0.2,0.1-0.3-0.3-0.1-0.3C4.8,25.1,4.9,25.4,4.7,25.5z"/>
		<path class="st2" d="M2.2,28c-0.2,0.1-0.3-0.3-0.1-0.3C2.3,27.6,2.4,27.9,2.2,28z"/>
		<path class="st2" d="M43.6,18.3c-0.2,0.1-0.3-0.3-0.1-0.3C43.7,17.9,43.8,18.2,43.6,18.3z"/>
		<path class="st2" d="M36.1,20.7c-0.2,0.1-0.3-0.3-0.1-0.3C36.2,20.3,36.3,20.7,36.1,20.7z"/>
		<path class="st2" d="M22.4,24.4c-0.2,0.1-0.3-0.3-0.1-0.3C22.5,24,22.6,24.3,22.4,24.4z"/>
		<path class="st2" d="M28.5,23.3c-0.2,0.1-0.3-0.3-0.1-0.3C28.6,22.9,28.7,23.2,28.5,23.3z"/>
		<path class="st2" d="M2.8,31.5c-0.2,0.1-0.3-0.3-0.1-0.3C3,31.1,3,31.4,2.8,31.5z"/>
		<path class="st2" d="M8.5,30c-0.2,0.1-0.3-0.3-0.1-0.3C8.6,29.6,8.7,30,8.5,30z"/>
		<path class="st2" d="M30.2,25.3c-0.2,0.1-0.3-0.3-0.1-0.3C30.3,24.9,30.4,25.2,30.2,25.3z"/>
		<path class="st2" d="M20.5,28.4c-0.2,0.1-0.3-0.3-0.1-0.3C20.6,28,20.7,28.3,20.5,28.4z"/>
		<path class="st2" d="M28.5,26.8c-0.2,0.1-0.3-0.3-0.1-0.3C28.6,26.4,28.7,26.8,28.5,26.8z"/>
		<path class="st2" d="M29.4,26.7c-0.2,0.1-0.3-0.3-0.1-0.3C29.6,26.3,29.6,26.6,29.4,26.7z"/>
		<path class="st2" d="M32.3,26.3C32,26.3,32,26,32.2,25.9C32.4,25.9,32.5,26.2,32.3,26.3z"/>
		<path class="st2" d="M24.1,28.7c-0.2,0.1-0.3-0.3-0.1-0.3C24.2,28.3,24.3,28.7,24.1,28.7z"/>
		<path class="st2" d="M29.7,27.8c-0.2,0.1-0.3-0.3-0.1-0.3C29.9,27.4,29.9,27.7,29.7,27.8z"/>
		<path class="st2" d="M14.6,32.1c-0.2,0.1-0.3-0.3-0.1-0.3C14.8,31.7,14.9,32.1,14.6,32.1z"/>
		<path class="st2" d="M26.7,29.2c-0.2,0.1-0.3-0.3-0.1-0.3C26.8,28.8,26.9,29.2,26.7,29.2z"/>
		<path class="st2" d="M6.1,35.1c-0.2,0.1-0.3-0.3-0.1-0.3C6.2,34.7,6.3,35.1,6.1,35.1z"/>
		<path class="st2" d="M39.1,26.7c-0.2,0.1-0.3-0.3-0.1-0.3C39.2,26.3,39.3,26.6,39.1,26.7z"/>
		<path class="st2" d="M29.5,29.9c-0.2,0.1-0.3-0.3-0.1-0.3C29.6,29.5,29.7,29.8,29.5,29.9z"/>
		<path class="st2" d="M26.3,31.2c-0.2,0.1-0.3-0.3-0.1-0.3C26.4,30.8,26.5,31.1,26.3,31.2z"/>
		<path class="st2" d="M11.8,35.9c-0.2,0.1-0.3-0.3-0.1-0.3C12,35.5,12.1,35.8,11.8,35.9z"/>
		<path class="st2" d="M27.4,31.8c-0.2,0.1-0.3-0.3-0.1-0.3C27.5,31.4,27.6,31.8,27.4,31.8z"/>
		<path class="st2" d="M2.7,38.8c-0.2,0.1-0.3-0.3-0.1-0.3C2.8,38.4,2.9,38.7,2.7,38.8z"/>
		<path class="st2" d="M32.7,31.1c-0.2,0.1-0.3-0.3-0.1-0.3C32.8,30.7,32.9,31,32.7,31.1z"/>
		<path class="st2" d="M17.8,35.4c-0.2,0.1-0.3-0.3-0.1-0.3C17.9,35,18,35.3,17.8,35.4z"/>
		<path class="st2" d="M23.8,34.9c-0.2,0.1-0.3-0.3-0.1-0.3C23.9,34.5,24,34.8,23.8,34.9z"/>
		<path class="st2" d="M9.2,39.7c-0.2,0.1-0.3-0.3-0.1-0.3C9.3,39.3,9.4,39.6,9.2,39.7z"/>
		<path class="st2" d="M2,42.1c-0.2,0.1-0.3-0.3-0.1-0.3C2.2,41.7,2.2,42,2,42.1z"/>
		<path class="st2" d="M24.7,36.6c-0.2,0.1-0.3-0.3-0.1-0.3C24.8,36.2,24.9,36.6,24.7,36.6z"/>
		<path class="st2" d="M36.2,35.2c-0.2,0.1-0.3-0.3-0.1-0.3C36.3,34.8,36.4,35.1,36.2,35.2z"/>
		<path class="st2" d="M16.6,40.5c-0.2,0.1-0.3-0.3-0.1-0.3C16.8,40.1,16.9,40.5,16.6,40.5z"/>
		<path class="st2" d="M8.1,43.3C7.9,43.4,7.8,43.1,8,43C8.2,43,8.3,43.3,8.1,43.3z"/>
		<path class="st2" d="M36.6,37.7c-0.2,0.1-0.3-0.3-0.1-0.3C36.8,37.3,36.8,37.6,36.6,37.7z"/>
		<path class="st2" d="M23.6,41.4c-0.2,0.1-0.3-0.3-0.1-0.3C23.8,41,23.9,41.4,23.6,41.4z"/>
		<path class="st2" d="M30.8,40.7c-0.2,0.1-0.3-0.3-0.1-0.3C30.9,40.3,31,40.7,30.8,40.7z"/>
		<path class="st2" d="M24.8,42.9c-0.2,0.1-0.3-0.3-0.1-0.3C24.9,42.6,25,42.9,24.8,42.9z"/>
		<path class="st2" d="M38.2,40.3C38,40.4,37.9,40,38.1,40C38.3,39.9,38.4,40.2,38.2,40.3z"/>
		<path class="st2" d="M31.4,43.4c-0.2,0.1-0.3-0.3-0.1-0.3C31.5,43,31.6,43.4,31.4,43.4z"/>
		<path class="st2" d="M34.8,44c-0.2,0.1-0.3-0.3-0.1-0.3C35,43.6,35.1,43.9,34.8,44z"/>
	</g>
</g>
</svg>
