<?xml version="1.0" encoding="utf-8"?>
<!-- Generator: Adobe Illustrator 21.1.0, SVG Export Plug-In . SVG Version: 6.00 Build 0)  -->
<svg version="1.1" id="Layer_1" xmlns="http://www.w3.org/2000/svg" xmlns:xlink="http://www.w3.org/1999/xlink" x="0px" y="0px"
	 viewBox="0 0 600 400" style="enable-background:new 0 0 600 400;" xml:space="preserve">
<style type="text/css">
	.st0{fill:#FFFFFF;}
	.st1{clip-path:url(#SVGID_2_);fill:#FFFFFF;}
</style>
<g id="Praxis">
	<g>
		<g>
			<path class="st0" d="M278.03,211.01h19.23c0,0,1.39-2.54,5.58-5.23c4.19-2.69,4.67-3.04,6.77-4.56c2.09-1.51,2.65-1.51,2.65-1.51
				s3.45,5.25,4.11,7.21c0.66,1.96,0.76,4.63,0.76,4.63h35.52c0,0-3.18-2.87-4.21-4.37c-1.02-1.5-5.38-8.81-6.63-11.03
				c-1.25-2.22-6.67-11.22-6.67-12.28c0-0.09,0.58-0.53,0.58-0.53l26.64-19.54h-18.95l-13.45,10.74c0,0-0.98-2.01-1.36-2.55
				c-0.38-0.54-1.9-3.15-2.17-3.7c-0.27-0.54-0.82-2.28-0.82-2.99s0.05-1.68,0.05-1.68h-34.63c0,0,1.52,2.07,2.72,3.1
				c1.2,1.03,8.91,15.28,8.91,15.28l4.46,8.97L278.03,211.01z"/>
			<path class="st0" d="M498.25,214.55c5.6-6.12,11.08-15.17,10.65-25.88c-0.42-10.51-6.02-18.87-12.11-24.63
				c-18.93-17.88-48.06-25.07-83.91-25.67c13.31-1.58,29.71-0.28,41.75,1.88c3.69,0.66,7.65,1.2,10.64,2.3
				c2,0.73,4.12,1.98,6.26,2.92c13.91,6.09,28.39,15.62,35.07,28.18c8.92,16.77,2.47,33.97-8.56,45.09
				c-7.04,7.08-15.97,12.39-24.42,17.12c-16.09,5.88-32.02,9.46-54.04,9.72C452.28,241.81,480.46,234,498.25,214.55"/>
			<path class="st0" d="M453.79,175.94c0.54-3.84,0.7-8.07,1.04-12.11c-18.59,1.9-45.71-4.78-54.9,5.84
				c-2.54,2.94-3.48,7.39-4.59,11.9c-0.57,2.31-1.48,5.18-1.25,7.93c0.94,11.65,22.65,4.26,32.77,7.31c1.06,5.15-3.62,4.8-8.97,4.8
				c-10.3,0-22.82,0.84-28.18-2.92c-0.26,4.05-0.61,8.02-1.04,11.9c14.09-0.8,31.45,1.06,45.3,0c11.73-0.9,14.46-8.9,16.91-18.79
				c0.57-2.31,1.79-6.77,0.62-9.81c-2.24-5.83-12.68-4.38-20.87-4.38c-4.35,0-8.8,0.63-11.69-0.83c0.16-1.31,0.38-2.54,1.04-3.34
				c10.04-0.26,24.98-1.9,32.56,1.67C453.15,175.03,453.58,176.96,453.79,175.94 M455.25,163.41c-0.26,5.72-0.8,11.17-1.25,16.7
				c-0.64,0.26-1.08-1.03-1.46-1.67c-0.49-0.82-0.82-1.79-1.67-2.3c-4.92-2.92-18.82-1.46-26.93-1.46c-2.07,0-4.61-0.4-4.59,2.09
				c11.25,2.31,31.43-4.07,32.98,7.51c0.45,3.41-0.56,6.17-1.25,8.98c-0.68,2.7-1.18,5.81-2.09,8.14
				c-2.37,6.04-8.4,10.31-15.45,10.85c-15.57,1.2-30.7-0.89-46.55,0c0.3-4.85,0.8-9.5,1.25-14.19c1.55-0.14,4.02,1.93,6.47,2.5
				c6.11,1.43,17.13,0.63,25.05,0.63c2.91,0,5.77,0.21,5.64-2.92c-12.91-2.45-35.34,5.34-32.77-11.69
				c0.87-5.71,2.8-13.31,5.85-16.91C408.19,158.21,436.52,165.52,455.25,163.41"/>
			<path class="st0" d="M453.38,174.27c0.33-3.22,0.45-6.65,0.84-9.81c-14.07,0.77-27.14-1.01-40.91,0
				c-6.4,0.47-12.54,3.71-15.03,8.98c-0.98,2.07-1.43,5.1-2.09,7.72c-0.68,2.75-1.72,5.78-1.46,8.35
				c0.77,7.71,11.71,6.05,20.67,6.05c3.78,0,11.62-0.64,12.32,1.25c0.5,1.39-0.75,4.19-1.67,4.8c-2.51,1.63-11.01,0.63-15.45,0.63
				c-5.91,0-11.69,0.26-15.66-0.63c-1.65-0.37-3.76-1.84-4.59-1.46c-0.33,3.22-0.69,6.4-0.83,9.81c13.71-0.77,30.16,1.01,44.04,0
				c11.55-0.84,14.33-8.65,16.7-18.58c0.52-2.17,1.72-6.56,0.63-9.18c-2.23-5.36-12.94-3.97-20.67-3.97c-4.45,0-9.08,0.73-11.9-1.04
				c-0.99-6.56,7.11-4.8,13.57-4.8c6.73,0,12.94-0.45,17.54,0.63C450.98,173.38,452.68,174.7,453.38,174.27 M454.84,163.83
				c-0.35,4.04-0.5,8.26-1.04,12.11c-0.21,1.03-0.64-0.91-1.25-0.84c-7.59-3.57-22.53-1.93-32.56-1.67
				c-0.66,0.8-0.89,2.04-1.04,3.34c2.89,1.46,7.34,0.83,11.69,0.83c8.19,0,18.63-1.44,20.87,4.38c1.17,3.04-0.05,7.5-0.62,9.81
				c-2.45,9.88-5.18,17.88-16.91,18.79c-13.85,1.06-31.21-0.8-45.3,0c0.44-3.88,0.78-7.85,1.04-11.9
				c5.36,3.76,17.88,2.92,28.18,2.92c5.36,0,10.04,0.35,8.97-4.8c-10.12-3.04-31.83,4.35-32.77-7.3c-0.23-2.75,0.68-5.62,1.25-7.93
				c1.12-4.51,2.05-8.96,4.59-11.9C409.13,159.05,436.24,165.73,454.84,163.83"/>
			<path class="st0" d="M454.21,164.46c-0.38,3.17-0.5,6.59-0.84,9.81c-0.7,0.43-2.4-0.89-3.97-1.25
				c-4.59-1.08-10.8-0.63-17.54-0.63c-6.45,0-14.56-1.76-13.57,4.8c2.82,1.77,7.45,1.04,11.9,1.04c7.72,0,18.44-1.39,20.67,3.97
				c1.1,2.63-0.1,7.01-0.63,9.18c-2.37,9.93-5.15,17.74-16.7,18.58c-13.88,1.01-30.34-0.76-44.04,0c0.14-3.41,0.5-6.59,0.83-9.81
				c0.84-0.38,2.94,1.1,4.59,1.46c3.97,0.89,9.74,0.63,15.66,0.63c4.44,0,12.94,1.01,15.45-0.63c0.92-0.61,2.17-3.41,1.67-4.8
				c-0.7-1.9-8.54-1.25-12.32-1.25c-8.96,0-19.9,1.65-20.67-6.05c-0.26-2.57,0.78-5.6,1.46-8.35c0.66-2.63,1.11-5.65,2.09-7.72
				c2.49-5.27,8.63-8.51,15.03-8.98C427.08,163.45,440.14,165.22,454.21,164.46"/>
			<path class="st0" d="M440.44,226.45h9.39c-0.05,1.29-2.43,0.21-3.13,0.84v4.59c-7.04,0.87-20.68,1.7-22.75-4.17
				c-2.89-8.19,13.45-9.43,20.87-8.14c0.85-0.26,0.33-1.9,1.67-1.67c-0.54,1.48-0.21,3.83-0.83,5.22c-0.94,0.03-0.57-1.24-0.83-1.88
				c-4.63-1.84-19.48-2.47-18.37,4.59c0.87,5.51,10.85,6.52,17.33,5.64c0.45-0.94,0.1-2.68,0.21-3.97
				C443.48,226.47,440.57,227.84,440.44,226.45"/>
			<path class="st0" d="M408.08,219.77c1.6-0.5,6.84-0.07,8.77-0.21c-0.37,0.75-1.77,0.45-2.71,0.63
				c-0.78,3.88-0.42,8.91-0.84,13.15c-6.3-3.93-12.05-8.4-18.37-12.32c0.31,3.29,0.14,7.1,0.42,10.44c0.94,0.66,3.62-0.42,3.97,0.84
				h-9.18c0.21-0.98,1.84-0.52,2.92-0.63c0.71-3.32,0.52-7.55,0.83-11.27c-1.03-0.43-2.77-0.16-3.76-0.63
				c2.35,0.1,4.35-0.89,6.47-0.42c1.04,0.23,2.82,1.88,3.96,2.71c3.83,2.76,7.99,5.69,11.69,8.14c-0.21-3.27-0.12-6.84-0.42-10.02
				C410.55,220.09,409.14,220.1,408.08,219.77"/>
			<path class="st0" d="M397.43,144.42h-23.17c-1.5,3.86-2.33,8.39-3.34,12.73h23.38C395.26,152.82,396.41,148.68,397.43,144.42
				 M372.8,144h25.26c-1.01,5.11-2.47,9.78-3.55,14.82h-25.67C370.23,153.95,371.06,148.52,372.8,144"/>
			<path class="st0" d="M396.6,145.04h-21.92c-1.2,3.6-2.07,7.53-2.92,11.48h21.92C394.74,152.78,395.61,148.85,396.6,145.04
				 M374.26,144.42h23.17c-1.03,4.26-2.17,8.4-3.13,12.73h-23.38C371.93,152.8,372.77,148.28,374.26,144.42"/>
			<path class="st0" d="M374.68,145.04h21.92c-0.99,3.81-1.86,7.74-2.92,11.48h-21.92C372.61,152.58,373.48,148.64,374.68,145.04"/>
			<path class="st0" d="M283.67,175.52c0.99-14.84-14.84-11.69-29.01-11.69h-26.09c-1.39,4.11-3.2,7.79-4.59,11.9
				c6.28-3.24,18.09-2.3,27.34-2.3c3.29,0,6.68-0.52,8.98,1.04c0.59,6.28-8.89,4.38-14.82,4.38c-7.76,0-15.64-0.75-20.25,1.67
				c-5.78,3.03-8.84,12.8-9.39,20.46c-0.49,6.91,2.99,9.18,9.18,9.6c5.57,0.37,15.41,0.44,21.08,0c4.16-0.31,6.21-1.96,7.93-4.17
				c-0.4,1.06-0.14,2.78-0.21,4.17h23.79c-1.9-5.53,0.84-12.68,2.51-19.41C281.46,185.8,283.34,180.43,283.67,175.52 M393.47,163.83
				h-26.51c2.1,7.6-1.01,15.01-3.13,23.59c-2.09,8.38-3.25,16.16-6.89,21.08c-0.44,0.59-1.69,1.22-1.25,2.09h28.81v-0.42
				c-2.07-4.94,0.28-11.51,1.46-16.28C388.39,184.04,391.35,172.96,393.47,163.83 M364.87,163.41h29.22
				c-1.5,6.58-3.23,13.5-5.01,20.66c-1.67,6.77-4.36,13.83-5.01,20.46c-0.3,3.11,0.44,5.32,1.25,7.72h-69.51
				c1.23-5.13-2.83-7.83-4.17-11.69c-4.96,3.81-11.29,6.25-14.61,11.69h-44.46c-0.87,0.04-0.23-1.46-0.42-2.09
				c-1.46,0.8-3.81,1.88-6.47,2.09c-5.93,0.45-15.12,0.44-21.5,0c-6.82-0.45-10.58-3.06-10.02-10.85
				c0.45-6.28,3.36-16.04,7.72-19.62c6.4-5.25,20.32-3.06,31.94-3.34c1.89-0.05,4.7,0.29,4.8-2.71c-4.02-1.1-9.06-0.63-13.99-0.63
				c-4.96,0-10.09-0.26-14.4,0.21c-3.6,0.4-6.16,2.19-8.77,2.92c1.83-5.06,3.91-9.86,5.84-14.82h26.72
				c14.65,0,31.12-3.11,30.06,12.73c-0.33,4.99-2.09,10.23-3.34,15.24c-1.25,5.03-3.18,10.14-3.55,15.03
				c-0.09,1.11,0.02,2.28,0.42,3.13v0.21c2.77-0.8,5.25-2.45,7.72-3.96c7.19-4.38,13.92-10.21,21.08-14.82
				c-2.05-3.72-4.11-7.76-6.26-11.69c-2.09-3.83-4.07-8.11-6.47-11.27c-1.25-1.65-3.27-2.75-3.97-4.59h36.32
				c-1.17,4.82,2.49,7.22,3.76,10.85c4.43-3.57,9.88-6.12,13.15-10.85h20.87c0.36,0.61-0.73,1.03-1.05,1.25
				c-4.05,2.92-8.78,5.98-12.94,8.98c-4.94,3.57-9.99,7.01-14.61,10.44c0.38,1.08,1.18,1.74,1.46,2.92
				c-0.16-0.23-1.74-2.56-2.09-3.97c9.01-6.23,17.45-13.03,26.72-19c-5.22-0.49-11.34-0.07-16.91-0.21
				c-3.95,4.61-9.62,7.5-14.19,11.48c-1.53-3.83-5.01-6.59-4.8-11.48h-32.56c0.26,1.37,1.93,2.19,2.71,3.34
				c2.35,3.46,4.09,7.71,6.26,11.69c2.14,3.91,4.57,7.67,6.47,11.48c-9.18,7.31-19.03,13.95-29.22,20.25h17.74
				c3.95-5.38,10.65-8,15.66-12.31c1.69,4.04,5.45,7.03,5.22,12.31h33.61c-0.4-1.27-1.74-1.69-2.58-2.75c0.68,0.77,2.68,2,4.25,3.38
				c6.28-5.86,8.11-19.24,10.65-29.43C365.04,176.09,367.58,169.15,364.87,163.41"/>
			<path class="st0" d="M392.63,164.46c-8.21,0.14-16.98-0.28-24.84,0.21c0.16,0.05,0.25,0.17,0.21,0.42
				c1.48,4.92-0.43,9.48-1.67,14.4c-0.94,3.71-1.86,7.45-2.71,10.86c-1.65,6.59-2.68,13.24-5.64,17.74
				c-0.31,0.49-1.24,1.15-0.84,1.88c8.77-0.14,18.09,0.28,26.51-0.21c-1.67-5.93,0.44-10.91,1.67-15.86
				C387.8,183.99,390.18,174.22,392.63,164.46 M366.96,163.83h26.51c-2.12,9.13-5.08,20.21-7.51,30.06
				c-1.18,4.76-3.53,11.34-1.46,16.28v0.42h-28.81c-0.44-0.87,0.82-1.5,1.25-2.09c3.63-4.92,4.8-12.7,6.89-21.08
				C365.95,178.84,369.06,171.43,366.96,163.83"/>
			<path class="st0" d="M367.79,164.67c7.86-0.49,16.63-0.07,24.84-0.21c-2.45,9.76-4.84,19.54-7.31,29.43
				c-1.23,4.96-3.34,9.93-1.67,15.86c-8.42,0.49-17.74,0.07-26.51,0.21c-0.4-0.73,0.52-1.39,0.84-1.88
				c2.96-4.5,3.98-11.15,5.64-17.74c0.85-3.41,1.77-7.15,2.71-10.85c1.24-4.92,3.15-9.48,1.67-14.4
				C368.04,164.84,367.95,164.72,367.79,164.67"/>
			<path class="st0" d="M383.45,219.35c-0.35,1.11-2.37,0.56-3.55,0.84c-0.35,3.29-0.35,7.98,0,11.27c0.89,0.5,2.87-0.09,3.55,0.63
				c-2.99,0.49-6.89,0.07-10.23,0.21c0.47-0.92,2.23-0.56,3.55-0.63c0.49-3.34,0.07-7.59,0.21-11.27c-0.83-0.77-3.43,0.23-3.76-1.04
				C376.18,219.7,380.49,219.7,383.45,219.35"/>
			<path class="st0" d="M368.42,218.31c0.38,0.64-0.24,3.78-1.04,4.59c-0.87,0.04-0.23-1.46-0.42-2.09
				c-2.66-0.47-5.88-0.38-8.77-0.62c-0.49,3.34-0.07,7.58-0.21,11.27c1.1,0.64,3.86-0.38,4.38,0.83h-11.69
				c0.59-1.01,2.7-0.5,4.18-0.63c0.61-3.34,0.49-7.86,0.21-11.48c-2.96,0.17-6.16,0.1-8.77,0.62c-0.7,0.56-0.33,2.17-1.67,2.09
				c0.31-1.43,0.54-2.94,0.63-4.59c1.18-0.42,0.64,0.89,1.04,1.25h20.67C367.97,219.67,367.41,218.21,368.42,218.31"/>
			<path class="st0" d="M344.62,164.46h14.82c-8.85,5.9-17.29,12.21-25.67,18.58c5.11,9.01,9.83,19.54,15.86,26.93h-31.1
				c-0.56-5.5-3.88-8.25-5.64-12.52c-5.65,4-12.14,7.2-16.49,12.52h-15.03c9.92-5.74,18.56-12.75,27.97-19
				c-4.44-7.43-8.47-16.92-13.15-24c-0.57-0.87-1.2-1.65-2.09-2.3c9.81-0.49,20.53-0.07,30.69-0.21c-0.07,4.82,3.55,7.71,5.01,11.69
				C334.9,172.41,340.61,169.27,344.62,164.46"/>
			<path class="st0" d="M342.95,198.06c0.87,1.37,2.99,5.08,4.17,7.51C346.24,204.24,344.08,200.57,342.95,198.06"/>
			<path class="st0" d="M341.91,228.54c0.37,1.22-1.27,4-1.46,6.05c-0.96-0.02-0.54-1.41-0.63-2.29h-13.57
				c0.3-1.03,2.16-0.49,3.34-0.63c0.63-3.29,0.45-7.69,0.21-11.27c-0.8-0.59-2.63-0.16-3.55-0.63c2.23-0.66,7.53,0.23,10.44-0.42
				c-0.47,1.13-2.64,0.56-3.97,0.84c-0.31,3.83-0.17,7.62,0,11.48c2.35-0.37,5.43,0,7.31-0.83
				C340.99,230.4,340.8,228.82,341.91,228.54"/>
			<path class="st0" d="M340.03,192.85c0.3,0.42,1.93,3.06,2.51,4.59C342.24,197.02,340.6,194.38,340.03,192.85"/>
			<path class="st0" d="M337.11,187.63c0.3,0.42,1.93,3.06,2.51,4.59C339.32,191.8,337.68,189.16,337.11,187.63"/>
			<path class="st0" d="M319.99,219.35c-0.11,1.01-1.62,0.61-2.51,0.84c-0.68,4.89,0.85,8.44-2.29,10.65
				c-4.28,3.01-15.1,2.19-16.91-1.67c-1.13-2.42-0.02-5.04-0.42-8.56c-0.31-0.87-2.04-0.33-2.71-0.83c1.81-0.64,6.7,0.21,9.18-0.42
				c-0.33,1.15-2.44,0.49-3.55,0.84c-0.09,3.72-0.98,6.59,0.62,8.97c2.07,3.11,8.73,3.52,11.9,1.46c2.66-1.72,1.88-6.14,1.67-10.23
				c-0.78-0.82-3.46,0.24-3.76-1.04C313.7,219.7,317.52,219.7,319.99,219.35"/>
			<path class="st0" d="M278.25,221.65c-0.21,2.92,13.19,3.22,9.81,8.56c-1.77,2.8-8.05,2.5-11.9,1.88
				c-0.59,0.45-0.21,1.88-1.25,1.88c-0.45-0.91,0.38-4.05,0.42-5.85c0.96-0.12,0.68,0.99,0.84,1.67c1.55,4.32,14.68,1.08,8.35-2.5
				c-2.21-1.25-10.7-2.33-7.93-6.26c1.77-2.52,7.34-1.84,10.44-1.25c0.54-0.37,0.26-1.55,1.04-1.67c0.85,1.04-0.42,3.46-0.42,5.01
				c-0.96,0.12-0.68-0.99-0.83-1.67C286.44,219.84,278.44,218.96,278.25,221.65"/>
			<path class="st0" d="M283.05,175.31c0.99-13.83-14.56-10.86-27.34-10.86h-26.3c-1.57,2.96-3.24,6.92-3.97,10.02
				c5.11-2.24,11.93-1.67,20.25-1.67c3.01,0,14.42-0.96,15.24,1.46c0.85,2.54-1.18,4.21-1.88,4.59c-2.64,1.48-9.57,0.63-13.36,0.63
				c-4.56,0-10.04-0.35-13.99,0c-9.67,0.83-12.11,7.91-14.19,16.28c-0.75,3.04-1.81,8.14-0.21,10.85
				c2.64,4.47,13.31,3.34,20.87,3.34c4.21,0,9.64,0.23,12.11-1.04c2.31-1.18,1.95-2.9,4.38-3.96c0.09,1.83-0.36,3.11-0.21,5.01
				c7.37-0.14,15.31,0.28,22.34-0.21c-1.51-6.42,1.22-12.23,2.92-18.99C281.01,185.56,282.7,180.13,283.05,175.31 M254.66,163.83
				c14.18,0,30.01-3.15,29.01,11.69c-0.33,4.91-2.21,10.28-3.55,15.66c-1.67,6.73-4.4,13.88-2.51,19.41h-23.79
				c0.07-1.39-0.19-3.11,0.21-4.18c-1.72,2.21-3.77,3.86-7.93,4.18c-5.67,0.43-15.52,0.36-21.08,0c-6.19-0.42-9.67-2.7-9.18-9.6
				c0.56-7.65,3.62-17.43,9.39-20.46c4.61-2.42,12.49-1.67,20.25-1.67c5.93,0,15.41,1.9,14.82-4.38c-2.3-1.57-5.69-1.04-8.98-1.04
				c-9.25,0-21.06-0.94-27.34,2.3c1.39-4.11,3.2-7.79,4.59-11.9H254.66z"/>
			<path class="st0" d="M252.99,201.19c3.48-1.44,3.29-10.05,4.8-13.36c-5.46,0.94-12.3-1.71-15.45,1.04
				c-2.47,2.16-2.45,8.32-2.71,11.48C242.12,201.86,249.96,202.45,252.99,201.19 M255.7,164.46c12.78,0,28.33-2.97,27.34,10.86
				c-0.35,4.82-2.04,10.25-3.34,15.45c-1.71,6.77-4.44,12.58-2.92,19c-7.03,0.49-14.96,0.07-22.34,0.21
				c-0.16-1.9,0.3-3.18,0.21-5.01c-2.43,1.06-2.07,2.78-4.38,3.96c-2.47,1.27-7.9,1.04-12.11,1.04c-7.57,0-18.23,1.13-20.87-3.34
				c-1.6-2.71-0.54-7.81,0.21-10.85c2.09-8.37,4.52-15.45,14.2-16.28c3.95-0.35,9.43,0,13.99,0c3.79,0,10.72,0.85,13.36-0.63
				c0.7-0.38,2.73-2.05,1.88-4.59c-0.82-2.42-12.23-1.46-15.24-1.46c-8.31,0-15.13-0.57-20.25,1.67c0.73-3.1,2.4-7.06,3.97-10.02
				H255.7z"/>
			<path class="st0" d="M258.83,219.35c2.47,0.49,6.85,0.07,8.98,0.21c-0.35,0.77-1.84,0.38-2.71,0.63
				c-0.85,3.81-0.5,8.82-0.84,13.15c-6.31-3.91-12.09-8.37-18.37-12.32c0.09,3.55,0.19,7.04,0.42,10.44
				c0.94,0.66,3.62-0.42,3.97,0.83h-9.19c0.12-1.06,1.9-0.47,2.92-0.63c0.66-3.38,0.43-7.64,0.83-11.27
				c-0.96-0.57-3.17,0.1-3.76-0.84c2.45,0.16,4.35-0.24,6.68-0.21c4.84,3.72,10,7.11,15.03,10.65c0.47-2.83,0.16-6.7,0-9.6
				C261.91,219.62,259.21,220.64,258.83,219.35"/>
			<path class="st0" d="M256.95,188.46c-4.99,0.87-10.99-1.53-13.99,0.83c-1.79,1.43-2.85,8.58-2.71,10.65
				c0.07,0.05,0.14,0.09,0.23,0.14c-0.02,0.02-0.02,0.05-0.02,0.07h0.19c2.61,1.2,9.31,1.29,11.92,0.42
				C255.7,199.51,255.61,191.3,256.95,188.46 M257.79,187.84c-1.51,3.31-1.32,11.92-4.8,13.36c-3.03,1.25-10.87,0.66-13.36-0.83
				c0.26-3.17,0.24-9.32,2.71-11.48C245.49,186.13,252.33,188.77,257.79,187.84"/>
			<path class="st0" d="M242.97,189.3c2.99-2.37,8.99,0.04,13.99-0.83c-1.34,2.83-1.25,11.05-4.38,12.11
				c-2.61,0.87-9.3,0.78-11.92-0.42h0.23c3.24,0.07,8.42,1.5,10.85,0c2.61-1.6,1.84-7.81,3.34-10.02
				c-4.02,0.23-9.05-0.56-12.11,0.63c-1.3,2.63-2.04,5.84-2.49,9.32c-0.09-0.05-0.16-0.09-0.23-0.14
				C240.12,197.87,241.18,190.72,242.97,189.3"/>
			<path class="st0" d="M240.65,200.15h-0.19c0-0.02,0-0.05,0.02-0.07C240.53,200.1,240.58,200.13,240.65,200.15"/>
			<path class="st0" d="M215.21,230c4.82,2.33,16.91,2.68,16.91-3.76c0-5.1-8.94-6.52-14.2-5.84c-3.36,0.44-7.13,1.29-7.1,5.01
				C210.84,227.84,213.34,229.1,215.21,230 M220.84,219.35c4.77-0.19,14.44,0.38,13.78,6.68c-0.45,4.3-6.49,6.12-11.27,6.47
				c-6.77,0.49-15.03-1.03-15.03-6.26C208.32,221.11,215.54,219.56,220.84,219.35"/>
			<path class="st0" d="M218.55,178.65c1.11-4.8,2.3-9.53,3.55-14.2c-8.96-0.16-17.15-0.57-21.29,3.34
				c-1.39,1.32-1.84,3.44-3.97,4.17c0.33-2.52,0.85-4.85,1.04-7.51h-22.12v0.63c1.51,7.06-1.67,14.75-3.55,22.34
				c-1.71,6.85-2.66,13.79-5.01,18.58c-0.73,1.48-2.47,2.84-2.3,3.97h26.51c-1.51-6.21,0.52-11.72,2.09-17.95
				c1.1-4.33,1.86-9.04,3.34-11.48C199.86,175.56,212.74,175.64,218.55,178.65 M200.39,167.17c4.64-4.33,13.48-3.25,22.33-3.34
				c-0.99,5.55-2.63,10.46-3.76,15.87c-5.58-3.57-18.96-3.55-21.71,1.46c-1.53,2.77-2.05,7.17-3.13,11.48
				c-1.58,6.35-3.81,11.76-1.88,17.95h-28.81c-0.16-1.13,1.65-2.33,2.5-3.76c2.84-4.73,3.67-12.02,5.43-19
				c0.78-3.15,1.72-6.44,2.51-9.6c1.29-5.17,2.87-9.78,0.84-14.4h24c-0.28,2.09-0.7,4.04-0.84,6.26c-0.03,0.17-0.21,0.21-0.21,0.42
				C198.86,169.43,199.31,168.18,200.39,167.17"/>
			<path class="st0" d="M222.72,163.83c-8.85,0.09-17.69-0.99-22.33,3.34c-1.08,1.01-1.53,2.26-2.71,3.34
				c0-0.21,0.17-0.24,0.21-0.42c0.14-2.23,0.55-4.17,0.83-6.26h-24c2.03,4.63,0.45,9.24-0.84,14.4c-0.78,3.17-1.72,6.45-2.51,9.6
				c-1.76,6.98-2.59,14.26-5.43,19c-0.85,1.43-2.66,2.63-2.5,3.76h28.8c-1.93-6.19,0.3-11.6,1.88-17.95
				c1.08-4.31,1.6-8.72,3.13-11.48c2.75-5.01,16.12-5.03,21.71-1.46C220.09,174.29,221.73,169.38,222.72,163.83 M202.26,164.87
				c5.17-2.52,13.95-1.04,21.29-1.46c-1.44,6.28-3.08,12.37-4.59,18.58c-3.74-3.22-16.12-4.83-20.25-1.04
				c-2.07,1.91-2.89,7.17-3.97,11.48c-1.67,6.68-4.37,13.5-1.67,19.83h-32.35c-0.54-0.87,0.64-1.39,1.04-1.88
				c5.72-7.01,7.12-18.91,9.81-29.64c1.51-5.98,3.93-11.86,1.04-17.33h26.51c0.07,1.46-0.28,2.5-0.42,3.76
				C200.02,166.79,200.8,165.59,202.26,164.87"/>
			<path class="st0" d="M222.09,164.46c-1.25,4.66-2.44,9.39-3.55,14.2c-5.81-3.01-18.68-3.1-21.71,1.88
				c-1.48,2.44-2.24,7.15-3.34,11.48c-1.56,6.23-3.6,11.74-2.09,17.95H164.9c-0.17-1.13,1.57-2.49,2.3-3.96
				c2.35-4.78,3.3-11.72,5.01-18.58c1.88-7.58,5.06-15.27,3.55-22.34v-0.63h22.13c-0.19,2.66-0.71,4.99-1.04,7.52
				c2.12-0.73,2.57-2.85,3.97-4.17C204.94,163.88,213.14,164.3,222.09,164.46"/>
			<path class="st0" d="M201.43,217.89c0.71,1.1-0.35,3.95-0.42,5.64c-1.06,0.02-0.45-1.64-0.83-2.3
				c-4.91-2.52-18.87-1.48-16.91,5.01c1.7,5.6,12.82,6.23,19.41,4.39c-0.87,1.62-3.96,1.74-6.47,1.88c-6.21,0.35-19-1.23-15.45-8.35
				c2.49-4.99,12.44-5.34,19.62-4.59C201.05,219.32,200.58,217.95,201.43,217.89"/>
			<path class="st0" d="M172.62,158.82c0.92-12.21-8.85-11.69-19.83-11.69h-45.09c2.14,6.38-0.61,13.27-2.3,20.04
				c-2.59,10.47-5.03,20.42-7.51,30.27c-0.99,3.91-2.14,7.65-3.76,10.44c-0.47,0.82-1.48,1.65-1.25,2.71h28.39
				c-1.6-8.02,2.12-15.34,3.55-22.33c13.13-1.36,26.67,2.82,36.11-2.5c4.73-2.66,6.44-6.49,7.93-11.27
				C170.48,169.31,172.22,164.11,172.62,158.82 M154.05,146.71c11.34,0,19.93,0.45,19,12.73c-0.42,5.62-2.33,11.01-3.76,15.86
				c-1.39,4.73-3.83,9.06-7.93,11.69c-8.45,5.41-22.35,1.9-36.32,2.92c-1.48,6.87-5.25,14.47-3.13,22.33H90.17
				c-0.21-1.15,0.92-1.95,1.46-2.71c4.49-6.49,5.88-17.43,8.14-26.51c1.2-4.83,2.57-10.28,3.96-15.86
				c1.69-6.82,4.99-14.65,1.67-20.46H154.05z"/>
			<path class="st0" d="M169.49,169.26c1.39-5.6,4.38-11.86,1.67-17.12c-3.22-6.26-20.13-4.38-30.06-4.38h-32.35
				c-0.35,0.09,0.05,0.26,0,0.63c1.46,5.55-0.83,11.03-2.29,16.91c-1.12,4.51-2.31,9.2-3.34,13.36
				c-2.66,10.71-4.18,21.64-8.14,29.01c-0.38,0.71-1.11,1.62-0.83,2.29h26.3c-1.01-8.24,2.28-15.43,3.97-22.33
				c12.07-1.65,27.94,3.25,36.95-2.71C166.24,181.68,167.84,175.96,169.49,169.26 M152.79,147.13c10.98,0,20.75-0.52,19.83,11.69
				c-0.4,5.29-2.14,10.49-3.76,15.66c-1.5,4.78-3.2,8.61-7.93,11.27c-9.44,5.32-22.98,1.15-36.11,2.5
				c-1.43,6.99-5.15,14.32-3.55,22.33H92.89c-0.23-1.06,0.78-1.89,1.25-2.71c1.62-2.78,2.77-6.52,3.76-10.44
				c2.49-9.85,4.92-19.79,7.51-30.27c1.69-6.77,4.44-13.65,2.3-20.04H152.79z"/>
			<path class="st0" d="M146.32,168.84c0.85-3.36,2.38-6.66,1.67-10.23c-3.55-2.16-10.85-0.56-16.07-1.04
				c-2.17,6.32-3.44,13.53-5.22,20.25c5.6-0.99,12.09,1.53,16.07-0.42C145.38,176.13,145.63,171.57,146.32,168.84 M171.16,152.14
				c2.71,5.25-0.28,11.51-1.67,17.12c-1.65,6.7-3.25,12.42-8.14,15.66c-9.01,5.97-24.87,1.06-36.95,2.71
				c-1.69,6.91-4.97,14.09-3.97,22.33h-26.3c-0.28-0.68,0.45-1.58,0.83-2.3c3.97-7.38,5.48-18.3,8.14-29.01
				c1.03-4.16,2.22-8.85,3.34-13.36c1.46-5.88,3.76-11.36,2.29-16.91c0.05-0.37-0.35-0.54,0-0.63h32.35
				C151.04,147.76,167.94,145.88,171.16,152.14"/>
			<path class="st0" d="M145.7,168.63c0.82-3.25,2.31-6.49,1.67-9.81c-3.9-1.32-10.12-0.31-15.03-0.63
				c-1.76,6.17-3.25,12.61-4.8,18.99c5.17-0.9,10.72,1.32,14.61-0.21C144.76,175.96,145.05,171.19,145.7,168.63 M147.99,158.61
				c0.71,3.57-0.82,6.87-1.67,10.23c-0.7,2.73-0.94,7.29-3.55,8.56c-3.98,1.95-10.47-0.57-16.07,0.42
				c1.77-6.71,3.04-13.93,5.22-20.25C137.14,158.06,144.44,156.46,147.99,158.61"/>
			<path class="st0" d="M141.31,176.56c2.71-4.24,3.6-10.31,4.59-16.28c-3.67-0.92-9.01-0.17-13.36-0.42
				c-1.7,5.39-2.89,11.31-4.38,16.91C132.49,176.65,137.33,177.03,141.31,176.56 M147.37,158.82c0.64,3.32-0.85,6.56-1.67,9.81
				c-0.64,2.56-0.94,7.32-3.55,8.35c-3.9,1.53-9.45-0.7-14.61,0.21c1.55-6.38,3.04-12.82,4.8-18.99
				C137.24,158.51,143.47,157.5,147.37,158.82"/>
		</g>
		<polygon class="st0" points="92.29,246.38 88.12,246.38 88.12,244.95 98.27,244.95 98.27,246.38 94.08,246.38 94.08,258.04 
			92.29,258.04 		"/>
		<g>
			<path class="st0" d="M99.59,244.25h1.79v5.87h0.04c0.29-0.48,0.73-0.91,1.28-1.2c0.53-0.29,1.16-0.49,1.83-0.49
				c1.32,0,3.44,0.78,3.44,4.02v5.59h-1.79v-5.4c0-1.51-0.59-2.8-2.28-2.8c-1.16,0-2.08,0.78-2.4,1.71
				c-0.1,0.23-0.12,0.49-0.12,0.82v5.67h-1.79V244.25z"/>
			<path class="st0" d="M117.13,252.43c0.02-1.09-0.47-2.78-2.48-2.78c-1.81,0-2.61,1.59-2.75,2.78H117.13z M111.88,253.65
				c0.04,2.31,1.59,3.26,3.38,3.26c1.28,0,2.06-0.21,2.73-0.49l0.3,1.22c-0.63,0.27-1.71,0.6-3.28,0.6c-3.03,0-4.85-1.92-4.85-4.76
				c0-2.84,1.75-5.07,4.62-5.07c3.21,0,4.07,2.7,4.07,4.43c0,0.35-0.04,0.62-0.06,0.8H111.88z"/>
			<path class="st0" d="M127.22,251.09h1.81c1.89,0,3.09-0.99,3.09-2.49c0-1.69-1.28-2.43-3.16-2.45c-0.85,0-1.47,0.08-1.75,0.16
				V251.09z M125.45,245.12c0.9-0.18,2.18-0.27,3.4-0.27c1.89,0,3.12,0.33,3.97,1.07c0.69,0.58,1.08,1.48,1.08,2.49
				c0,1.73-1.14,2.88-2.59,3.34v0.06c1.06,0.35,1.69,1.28,2.02,2.64c0.45,1.83,0.77,3.09,1.06,3.59h-1.83
				c-0.22-0.39-0.53-1.5-0.92-3.13c-0.41-1.81-1.14-2.49-2.75-2.55h-1.67v5.67h-1.77V245.12z"/>
			<path class="st0" d="M142.67,252.43c0.02-1.09-0.47-2.78-2.48-2.78c-1.81,0-2.61,1.59-2.75,2.78H142.67z M137.42,253.65
				c0.04,2.31,1.59,3.26,3.38,3.26c1.28,0,2.06-0.21,2.73-0.49l0.3,1.22c-0.63,0.27-1.71,0.6-3.28,0.6c-3.03,0-4.85-1.92-4.85-4.76
				c0-2.84,1.75-5.07,4.62-5.07c3.21,0,4.07,2.7,4.07,4.43c0,0.35-0.04,0.62-0.06,0.8H137.42z"/>
			<path class="st0" d="M153.64,257.69c-0.47,0.23-1.51,0.56-2.83,0.56c-2.97,0-4.91-1.94-4.91-4.82c0-2.9,2.08-4.99,5.29-4.99
				c1.06,0,1.99,0.25,2.48,0.49l-0.41,1.32c-0.43-0.24-1.1-0.45-2.08-0.45c-2.26,0-3.48,1.59-3.48,3.56c0,2.18,1.47,3.52,3.42,3.52
				c1.02,0,1.69-0.25,2.2-0.47L153.64,257.69z"/>
			<path class="st0" d="M156.71,253.36c0,2.06,1.24,3.61,2.99,3.61c1.71,0,2.99-1.54,2.99-3.65c0-1.59-0.83-3.62-2.95-3.62
				C157.62,249.71,156.71,251.57,156.71,253.36 M164.52,253.26c0,3.48-2.52,4.99-4.91,4.99c-2.67,0-4.72-1.87-4.72-4.84
				c0-3.15,2.16-4.99,4.88-4.99C162.61,248.42,164.52,250.39,164.52,253.26"/>
			<path class="st0" d="M173.41,252.35c0-0.29-0.02-0.54-0.1-0.78c-0.33-0.99-1.2-1.8-2.5-1.8c-1.71,0-2.93,1.38-2.93,3.55
				c0,1.84,0.98,3.38,2.91,3.38c1.1,0,2.1-0.66,2.48-1.75c0.1-0.29,0.14-0.62,0.14-0.91V252.35z M175.18,256.68
				c0,2.16-0.45,3.48-1.4,4.29c-0.96,0.85-2.34,1.13-3.58,1.13c-1.18,0-2.48-0.27-3.28-0.78l0.45-1.3c0.65,0.39,1.67,0.74,2.89,0.74
				c1.83,0,3.18-0.91,3.18-3.28v-1.05h-0.04c-0.55,0.87-1.61,1.57-3.14,1.57c-2.44,0-4.19-1.98-4.19-4.58
				c0-3.19,2.18-4.99,4.44-4.99c1.71,0,2.65,0.86,3.07,1.63h0.04l0.08-1.42h1.57c-0.04,0.68-0.08,1.44-0.08,2.58V256.68z"/>
			<path class="st0" d="M178.03,251.18c0-0.97-0.02-1.77-0.08-2.55h1.59l0.1,1.55h0.04c0.49-0.89,1.63-1.77,3.26-1.77
				c1.36,0,3.48,0.78,3.48,4v5.61h-1.79v-5.42c0-1.51-0.59-2.78-2.28-2.78c-1.18,0-2.1,0.8-2.4,1.75c-0.08,0.21-0.12,0.5-0.12,0.8
				v5.65h-1.79V251.18z"/>
			<path class="st0" d="M189.32,248.64h1.79v9.4h-1.79V248.64z M191.32,246c0.02,0.58-0.43,1.05-1.14,1.05
				c-0.63,0-1.08-0.47-1.08-1.05c0-0.6,0.47-1.07,1.12-1.07C190.89,244.93,191.32,245.39,191.32,246"/>
			<path class="st0" d="M196.24,246.38v2.25h2.56v1.3h-2.56v5.07c0,1.17,0.35,1.83,1.34,1.83c0.49,0,0.77-0.04,1.04-0.12l0.08,1.28
				c-0.35,0.14-0.9,0.25-1.59,0.25c-0.83,0-1.51-0.27-1.93-0.74c-0.51-0.5-0.69-1.34-0.69-2.45v-5.13h-1.53v-1.3h1.53v-1.73
				L196.24,246.38z"/>
			<path class="st0" d="M200.82,248.64h1.79v9.4h-1.79V248.64z M202.81,246c0.02,0.58-0.43,1.05-1.14,1.05
				c-0.63,0-1.08-0.47-1.08-1.05c0-0.6,0.47-1.07,1.12-1.07C202.38,244.93,202.81,245.39,202.81,246"/>
			<path class="st0" d="M206.68,253.36c0,2.06,1.24,3.61,2.99,3.61c1.71,0,2.99-1.54,2.99-3.65c0-1.59-0.84-3.62-2.95-3.62
				C207.59,249.71,206.68,251.57,206.68,253.36 M214.49,253.26c0,3.48-2.52,4.99-4.91,4.99c-2.67,0-4.72-1.87-4.72-4.84
				c0-3.15,2.16-4.99,4.88-4.99C212.58,248.42,214.49,250.39,214.49,253.26"/>
			<path class="st0" d="M216.75,251.18c0-0.97-0.02-1.77-0.08-2.55h1.59l0.1,1.55h0.04c0.49-0.89,1.63-1.77,3.26-1.77
				c1.36,0,3.48,0.78,3.48,4v5.61h-1.79v-5.42c0-1.51-0.59-2.78-2.28-2.78c-1.18,0-2.1,0.8-2.4,1.75c-0.08,0.21-0.12,0.5-0.12,0.8
				v5.65h-1.79V251.18z"/>
			<path class="st0" d="M236.04,256.97c1.18,0,2.16-0.5,2.81-1.19c-0.82-0.84-2.34-2.45-3.85-4.12c-0.75,0.45-1.77,1.28-1.77,2.66
				c0,1.5,1.14,2.64,2.79,2.64H236.04z M236.55,251.07c1.16,1.3,2.46,2.72,3.34,3.65c0.38-0.55,0.79-1.31,0.93-2.04
				c0-0.02,1.61,0.01,1.6,0.03c-0.41,1.44-0.86,2.24-1.56,3.03c0.73,0.74,1.44,1.48,2.26,2.31H241c-0.39-0.37-0.75-0.74-1.28-1.26
				c-1.18,1.03-2.48,1.48-4.01,1.48c-2.67,0-4.21-1.71-4.21-3.67c0-1.79,1.12-2.99,2.69-3.83v-0.06c-0.69-0.86-1.16-1.81-1.16-2.74
				c0-1.59,1.22-3.23,3.5-3.23c0.57,0,0.79,0.12,1.12,0.22l0,1.5c-0.26-0.33-0.66-0.55-1.22-0.55h-0.02c-1.12,0-1.71,0.89-1.71,1.9
				c0,0.93,0.47,1.65,1.04,2.35L236.55,251.07z"/>
			<path class="st0" d="M250.81,251.09h1.81c1.89,0,3.09-0.99,3.09-2.49c0-1.69-1.28-2.43-3.16-2.45c-0.85,0-1.47,0.08-1.75,0.16
				V251.09z M249.04,245.12c0.89-0.18,2.18-0.27,3.4-0.27c1.89,0,3.12,0.33,3.97,1.07c0.69,0.58,1.08,1.48,1.08,2.49
				c0,1.73-1.14,2.88-2.58,3.34v0.06c1.06,0.35,1.69,1.28,2.02,2.64c0.45,1.83,0.77,3.09,1.06,3.59h-1.83
				c-0.22-0.39-0.53-1.5-0.92-3.13c-0.41-1.81-1.14-2.49-2.75-2.55h-1.67v5.67h-1.77V245.12z"/>
			<path class="st0" d="M266.25,252.43c0.02-1.09-0.47-2.78-2.48-2.78c-1.81,0-2.61,1.59-2.75,2.78H266.25z M261,253.65
				c0.04,2.31,1.59,3.26,3.38,3.26c1.28,0,2.06-0.21,2.73-0.49l0.3,1.22c-0.63,0.27-1.71,0.6-3.28,0.6c-3.03,0-4.84-1.92-4.84-4.76
				c0-2.84,1.75-5.07,4.62-5.07c3.22,0,4.07,2.7,4.07,4.43c0,0.35-0.04,0.62-0.06,0.8H261z"/>
			<path class="st0" d="M277.22,257.69c-0.47,0.23-1.51,0.56-2.83,0.56c-2.97,0-4.91-1.94-4.91-4.82c0-2.9,2.08-4.99,5.29-4.99
				c1.06,0,2,0.25,2.48,0.49l-0.41,1.32c-0.43-0.24-1.1-0.45-2.08-0.45c-2.26,0-3.48,1.59-3.48,3.56c0,2.18,1.47,3.52,3.42,3.52
				c1.02,0,1.69-0.25,2.2-0.47L277.22,257.69z"/>
			<path class="st0" d="M280.29,253.36c0,2.06,1.24,3.61,2.99,3.61c1.71,0,2.99-1.54,2.99-3.65c0-1.59-0.84-3.62-2.95-3.62
				C281.21,249.71,280.29,251.57,280.29,253.36 M288.11,253.26c0,3.48-2.52,4.99-4.91,4.99c-2.67,0-4.72-1.87-4.72-4.84
				c0-3.15,2.16-4.99,4.88-4.99C286.19,248.42,288.11,250.39,288.11,253.26"/>
			<path class="st0" d="M290.91,248.64l1.93,5.29c0.33,0.86,0.59,1.63,0.79,2.41h0.06c0.22-0.78,0.51-1.55,0.83-2.41l1.91-5.29h1.87
				l-3.87,9.4h-1.71l-3.75-9.4H290.91z"/>
			<path class="st0" d="M306.05,252.43c0.02-1.09-0.47-2.78-2.49-2.78c-1.81,0-2.61,1.59-2.75,2.78H306.05z M300.8,253.65
				c0.04,2.31,1.59,3.26,3.38,3.26c1.28,0,2.06-0.21,2.73-0.49l0.31,1.22c-0.63,0.27-1.71,0.6-3.28,0.6c-3.03,0-4.84-1.92-4.84-4.76
				c0-2.84,1.75-5.07,4.62-5.07c3.22,0,4.07,2.7,4.07,4.43c0,0.35-0.04,0.62-0.06,0.8H300.8z"/>
			<path class="st0" d="M310,251.57c0-1.11-0.02-2.06-0.08-2.93h1.57l0.06,1.85h0.08c0.45-1.26,1.53-2.06,2.73-2.06
				c0.2,0,0.35,0.02,0.51,0.06v1.61c-0.18-0.04-0.37-0.06-0.61-0.06c-1.26,0-2.16,0.91-2.4,2.19c-0.04,0.23-0.08,0.51-0.08,0.8v5.01
				H310V251.57z"/>
			<path class="st0" d="M317.81,248.64l2.16,5.56c0.22,0.62,0.47,1.36,0.63,1.92h0.04c0.18-0.56,0.39-1.28,0.63-1.96l1.95-5.52h1.89
				l-2.69,6.7c-1.28,3.23-2.16,4.88-3.38,5.89c-0.88,0.74-1.75,1.03-2.2,1.11l-0.45-1.44c0.45-0.14,1.04-0.41,1.57-0.84
				c0.49-0.37,1.1-1.03,1.51-1.9c0.08-0.17,0.14-0.31,0.14-0.41c0-0.1-0.04-0.23-0.12-0.45l-3.64-8.67H317.81z"/>
			<path class="st0" d="M330.87,255.98c0.79,0.46,1.96,0.85,3.18,0.85c1.81,0,2.87-0.91,2.87-2.23c0-1.23-0.73-1.92-2.59-2.6
				c-2.24-0.76-3.62-1.87-3.62-3.71c0-2.04,1.77-3.56,4.44-3.56c1.4,0,2.42,0.31,3.03,0.64l-0.49,1.38
				c-0.45-0.23-1.36-0.62-2.6-0.62c-1.88,0-2.59,1.07-2.59,1.96c0,1.23,0.83,1.83,2.73,2.53c2.32,0.86,3.5,1.92,3.5,3.85
				c0,2.02-1.57,3.79-4.8,3.79c-1.32,0-2.77-0.39-3.5-0.85L330.87,255.98z"/>
			<path class="st0" d="M342.86,254.21c0,0.25,0.04,0.49,0.08,0.7c0.33,1.18,1.4,2,2.69,2c1.89,0,2.99-1.48,2.99-3.63
				c0-1.89-1.04-3.5-2.93-3.5c-1.22,0-2.36,0.84-2.71,2.12c-0.06,0.21-0.12,0.47-0.12,0.7V254.21z M341.09,251.71
				c0-1.2-0.04-2.18-0.08-3.07h1.61l0.08,1.61h0.04c0.73-1.15,1.89-1.83,3.5-1.83c2.38,0,4.17,1.92,4.17,4.78
				c0,3.38-2.16,5.05-4.48,5.05c-1.3,0-2.44-0.54-3.03-1.48h-0.04v5.11h-1.77V251.71z"/>
			<path class="st0" d="M358.91,252.43c0.02-1.09-0.47-2.78-2.48-2.78c-1.81,0-2.61,1.59-2.75,2.78H358.91z M353.66,253.65
				c0.04,2.31,1.59,3.26,3.38,3.26c1.28,0,2.06-0.21,2.73-0.49l0.31,1.22c-0.63,0.27-1.71,0.6-3.28,0.6c-3.03,0-4.85-1.92-4.85-4.76
				c0-2.84,1.75-5.07,4.62-5.07c3.22,0,4.07,2.7,4.07,4.43c0,0.35-0.04,0.62-0.06,0.8H353.66z"/>
			<path class="st0" d="M369.88,257.69c-0.47,0.23-1.51,0.56-2.83,0.56c-2.97,0-4.91-1.94-4.91-4.82c0-2.9,2.08-4.99,5.29-4.99
				c1.06,0,2,0.25,2.48,0.49l-0.41,1.32c-0.43-0.24-1.1-0.45-2.08-0.45c-2.26,0-3.48,1.59-3.48,3.56c0,2.18,1.47,3.52,3.42,3.52
				c1.02,0,1.69-0.25,2.2-0.47L369.88,257.69z"/>
			<path class="st0" d="M371.97,248.64h1.79v9.4h-1.79V248.64z M373.97,246c0.02,0.58-0.43,1.05-1.14,1.05
				c-0.63,0-1.08-0.47-1.08-1.05c0-0.6,0.47-1.07,1.12-1.07C373.54,244.93,373.97,245.39,373.97,246"/>
			<path class="st0" d="M381.92,253.24c-1.96-0.04-4.17,0.29-4.17,2.12c0,1.11,0.77,1.63,1.69,1.63c1.28,0,2.1-0.78,2.38-1.57
				c0.06-0.17,0.1-0.37,0.1-0.54V253.24z M383.66,255.79c0,0.82,0.04,1.61,0.16,2.25h-1.63l-0.14-1.19h-0.06
				c-0.55,0.74-1.61,1.4-3.01,1.4c-2,0-3.01-1.34-3.01-2.7c0-2.27,2.12-3.52,5.92-3.5v-0.19c0-0.78-0.22-2.18-2.24-2.18
				c-0.92,0-1.87,0.27-2.57,0.7l-0.41-1.13c0.81-0.5,1.99-0.84,3.24-0.84c3.01,0,3.75,1.96,3.75,3.85V255.79z"/>
		</g>
		<rect x="386.54" y="244.25" class="st0" width="1.79" height="13.79"/>
		<g>
			<path class="st0" d="M391.34,248.64h1.79v9.4h-1.79V248.64z M393.33,246c0.02,0.58-0.43,1.05-1.14,1.05
				c-0.63,0-1.08-0.47-1.08-1.05c0-0.6,0.47-1.07,1.12-1.07C392.91,244.93,393.33,245.39,393.33,246"/>
			<path class="st0" d="M395.86,256.29c0.53,0.33,1.47,0.68,2.36,0.68c1.3,0,1.92-0.62,1.92-1.4c0-0.82-0.51-1.26-1.83-1.73
				c-1.77-0.6-2.61-1.53-2.61-2.66c0-1.52,1.28-2.76,3.4-2.76c1,0,1.87,0.27,2.42,0.58l-0.45,1.24c-0.39-0.24-1.1-0.55-2.01-0.55
				c-1.06,0-1.65,0.58-1.65,1.28c0,0.78,0.59,1.13,1.87,1.59c1.71,0.62,2.59,1.44,2.59,2.84c0,1.65-1.34,2.84-3.68,2.84
				c-1.08,0-2.08-0.27-2.77-0.66L395.86,256.29z"/>
			<path class="st0" d="M406.32,246.38v2.25h2.57v1.3h-2.57v5.07c0,1.17,0.35,1.83,1.34,1.83c0.49,0,0.77-0.04,1.04-0.12l0.08,1.28
				c-0.34,0.14-0.89,0.25-1.59,0.25c-0.83,0-1.51-0.27-1.93-0.74c-0.51-0.5-0.69-1.34-0.69-2.45v-5.13h-1.53v-1.3h1.53v-1.73
				L406.32,246.38z"/>
			<path class="st0" d="M410.65,256.29c0.53,0.33,1.47,0.68,2.36,0.68c1.3,0,1.92-0.62,1.92-1.4c0-0.82-0.51-1.26-1.83-1.73
				c-1.77-0.6-2.61-1.53-2.61-2.66c0-1.52,1.28-2.76,3.4-2.76c1,0,1.87,0.27,2.42,0.58l-0.45,1.24c-0.39-0.24-1.1-0.55-2.02-0.55
				c-1.06,0-1.65,0.58-1.65,1.28c0,0.78,0.59,1.13,1.87,1.59c1.71,0.62,2.59,1.44,2.59,2.84c0,1.65-1.34,2.84-3.69,2.84
				c-1.08,0-2.07-0.27-2.77-0.66L410.65,256.29z"/>
			<g>
				<g>
					<g>
						<defs>
							<path id="SVGID_1_" d="M178.48,230.52c0,0-2.58-4.29-0.98-7.49c1.6-3.19,4.54-4.3,4.54-4.3s-2.82-2.7-10.07-2.46
								c-7.25,0.25-16.21,2.45-20.51,3.56c-4.3,1.1-13.26,3.93-20.63,4.66c-7.37,0.74-17.03,0.88-25.54-0.61
								c-11.17-1.96-24.19-6.63-24.19-6.63v12.89c0,0,22.96,8.84,40.15,7.74c17.19-1.1,25.79-4.3,30.45-5.41
								c4.67-1.1,15.6-3.31,19.65-3.07C175.41,229.66,178.48,230.52,178.48,230.52"/>
						</defs>
						<use xlink:href="#SVGID_1_"  style="overflow:visible;fill:#FFFFFF;"/>
						<clipPath id="SVGID_2_">
							<use xlink:href="#SVGID_1_"  style="overflow:visible;"/>
						</clipPath>
						<rect x="81.1" y="216.03" class="st1" width="100.94" height="22.96"/>
					</g>
				</g>
			</g>
			<path class="st0" d="M412.92,138.35c0,0,30.84-3.53,61.38,6.86c21.58,7.34,44.59,20.73,44.59,41.81
				c0,17.73-10.71,29.25-23.44,37.87c-29.22,19.79-75.8,20.71-75.8,20.71S513,244.6,513,189.08
				C513,139.03,412.92,138.35,412.92,138.35"/>
		</g>
	</g>
</g>
</svg>
