<?xml version="1.0" encoding="utf-8"?>
<!-- Generator: Adobe Illustrator 21.1.0, SVG Export Plug-In . SVG Version: 6.00 Build 0)  -->
<svg version="1.1" id="Layer_1" xmlns="http://www.w3.org/2000/svg" xmlns:xlink="http://www.w3.org/1999/xlink" x="0px" y="0px"
	 viewBox="0 0 600 400" style="enable-background:new 0 0 600 400;" xml:space="preserve">
<style type="text/css">
	.st0{fill:#FFFFFF;}
</style>
<g id="King_Fish_Media">
	<g>
		<g>
			<g>
				<path class="st0" d="M459.81,325.88c0,3.05-1.76,5.81-4.9,5.81c-1.9,0-2.77-1-2.77-3c0-2.24,1.43-3,2.77-3.62l4.9-2.29V325.88z
					 M467.62,326.27v1.81c0,2.95-0.56,3.62-1.25,3.62c-0.7,0-1.11-0.52-1.11-1.57v-11.67c0-4-2.68-6.91-8.92-6.91
					c-3.65,0-9.29,1.05-9.29,5.91c0,1.95,1.34,3.52,3.33,3.52c1.8,0,3.24-0.67,3.24-2.82c0-1.95-1.35-2.71-3.05-2.47
					c0.83-1.14,3-1.57,4.29-1.57c2.45,0,4.95,0.57,4.95,3.62c0,6.72-13.87,2.24-13.87,11.48c0,4.29,2.82,6.05,6.43,6.05
					c2.91,0,5.87-0.86,7.58-3.52c0.37,2.53,2.35,3.52,4.67,3.52c3.88,0,5.96-2.24,5.96-7.57v-1.43H467.62z M433.93,305.83
					c0,1.91,1.53,3.43,3.33,3.43s3.33-1.53,3.33-3.43c0-1.9-1.52-3.43-3.33-3.43S433.93,303.92,433.93,305.83 M444.7,334.56v-3.14
					h-2.26c-1.29,0-1.85-0.53-1.85-1.91v-17.24h-9.43v3.14h2.13c1.29,0,1.85,0.52,1.85,1.91v12.2c0,1.38-0.56,1.91-1.85,1.91h-2.13
					v3.14H444.7z M409.76,323.41c0-5.48,1.67-8.15,4.76-8.15c3.1,0,5.55,2.67,5.55,7.86c0,5.76-2.45,8.43-5.55,8.43
					C411.43,331.56,409.76,328.89,409.76,323.41 M420.07,334.56h9.7v-3.14h-2.4c-1.44,0-1.85-0.67-1.85-2.1v-26.35h-10.26v3.15h2.91
					c1.43,0,1.9,0.67,1.9,2.1v7.43h-0.09c-1.06-1.76-3.61-4.1-7.26-4.1c-5.78,0-9.15,6-9.15,11.86c0,5.86,2.73,11.86,9.15,11.86
					c3.05,0,5.41-1.38,7.26-4.62h0.09V334.56z M387.48,320.83c0.14-3,1.3-5.95,4.44-5.95c3.28,0,4.21,2.95,4.16,5.95H387.48z
					 M402.27,323.98c0.51-5.43-2.68-12.43-10.26-12.43c-6.38,0-10.72,4.91-10.72,11.86c0,7.72,3.79,11.86,10.95,11.86
					c6.15,0,9.33-3.19,9.93-8.62h-3.83c-0.6,3.29-2.26,5.05-5.59,5.05c-4.3,0-5.41-4-5.27-7.72H402.27z M349.36,307.73h0.09
					l8.46,26.82h3.83l8.83-26.82h0.09v21.68c0,0.95-0.74,1.61-1.99,1.61h-3.05v3.53h16.04v-3.53h-2.91c-1.3,0-1.99-0.76-1.99-2.28
					v-20.63c0-1.14,0.74-1.62,1.8-1.62h3.1v-3.53H367.7l-7.02,20.63h-0.09l-6.24-20.63h-14.51v3.53h2.91c1.06,0,1.81,0.48,1.81,1.62
					v21.3c0,1.14-0.51,1.61-1.99,1.61h-2.72v3.53h14.46v-3.53h-2.86c-0.97,0-2.08-0.47-2.08-1.61V307.73z"/>
			</g>
			<g>
				<path class="st0" d="M318.9,302.97h-9.94v3.14h2.64c1.29,0,1.85,0.53,1.85,1.91v21.49c0,1.38-0.55,1.9-1.85,1.9h-2.64v3.15
					h13.59v-3.15h-1.8c-1.3,0-1.85-0.52-1.85-1.9v-7.43c0-4.19,2.77-6.81,5.18-6.81c2.45,0,4.06,0.91,4.06,3.34v10.91
					c0,1.38-0.55,1.9-1.85,1.9h-1.75v3.15h13.49v-3.15h-2.59c-1.29,0-1.85-0.52-1.85-1.9v-11.29c0-4.05-2.5-6.67-6.56-6.67
					c-3.6,0-6.15,1.91-8.04,4.48h-0.09V302.97z M287.84,325.84v8.72h3.05l0.93-1.72c2.17,1.95,4.94,2.43,7.72,2.43
					c4.34,0,8.46-2.05,8.46-7.05c0-8.72-14.56-6.96-14.56-10.67c0-1.9,1.99-2.57,3.51-2.57c3.56,0,5.73,1.76,6.84,5.24h3v-7.96
					h-2.54l-0.92,1.62c-1.99-1.38-4.34-2.33-6.79-2.33c-4.07,0-8.46,2.43-8.46,7.15c0,8.53,14.56,5.86,14.56,10.53
					c0,1.95-1.99,2.86-3.61,2.86c-4.06,0-6.89-2.05-7.81-6.24H287.84z M275.04,305.83c0,1.91,1.52,3.43,3.33,3.43
					c1.81,0,3.33-1.52,3.33-3.43c0-1.91-1.52-3.43-3.33-3.43C276.57,302.4,275.04,303.92,275.04,305.83 M285.81,334.56v-3.15h-2.27
					c-1.29,0-1.85-0.52-1.85-1.9v-17.25h-9.43v3.15h2.13c1.29,0,1.85,0.52,1.85,1.91v12.2c0,1.38-0.55,1.9-1.85,1.9h-2.13v3.15
					H285.81z M258.82,334.56v-3.53h-2.31c-2.13,0-2.91-0.66-2.91-2.48v-8.62h1.9c2.87,0,4.11,1.28,4.11,4.66v1.82h3.42V310.5h-3.42
					v1.24c0,2.43-0.88,4.67-3.83,4.67h-2.17v-9.91h5.18c6.28,0,7.95,1.67,8.87,9.48h3.42v-13.01h-29.16v3.53h3.05
					c1.39,0,2.17,0.62,2.17,1.76v20.39c0,1.34-0.7,2.38-2.36,2.38h-2.87v3.53H258.82z M221.67,331.03c-3.19,0-3.93-0.86-3.93-1.71
					c0-0.86,0.56-1.38,1.25-1.81c1.66,0.62,3.33,0.81,4.9,0.81c5.22,0,10.31-2.24,10.31-8.34c0-1.57-0.46-2.71-1.29-4.28
					c0.7-1.05,1.8-2.1,3.1-2.1c1.34,0,1.67,0.52,1.57,0.71c-1.34,0.34-2.12,1.29-2.12,2.77c0,1.71,1.29,2.53,2.82,2.53
					c2.03,0,2.96-1.38,2.96-3.38c0-2.72-1.99-4.67-4.67-4.67c-1.94,0-3.6,0.71-4.81,2.33c-1.76-1.38-4.81-2.33-7.86-2.33
					c-5.08,0-10.07,2.62-10.07,8.43c0,2.86,0.97,5.15,3.47,6.43v0.09c-2.4,0.15-4.25,2-4.25,4.53c0,2.91,1.39,3.86,3.88,4.33v0.1
					c-2.22,0.24-4.62,1.24-4.62,3.91c0,2.81,2.36,5.29,11.88,5.29c11.32,0,12.99-4.19,12.99-7.34c0-4.1-2.54-6.29-7.58-6.29H221.67z
					 M220,319.93c0-3.81,1.34-5.72,3.97-5.72c2.68,0,4.02,1.91,4.02,5.96c0,3.57-1.34,5.48-4.02,5.48
					C221.34,325.65,220,323.74,220,319.93 M228.87,335.84c1.71,0,2.91,1.19,2.91,2.76c0,2.38-2.73,3.38-7.76,3.38
					c-5.22,0-7.03-1.24-7.03-2.95c0-1.91,1.67-3.19,4.85-3.19H228.87z M192.64,312.26h-9.94v3.15h1.53c2.4,0,2.96,0.52,2.96,2.57
					v11.53c0,1.38-0.55,1.9-1.85,1.9h-2.63v3.15h13.59v-3.15h-1.8c-1.29,0-1.85-0.52-1.85-1.9v-8.76c0-3.05,2.96-5.48,5.17-5.48
					c2.22,0,4.07,0.76,4.07,4.34v9.91c0,1.38-0.55,1.9-2.49,1.9h-1.11v3.15h13.49v-3.15h-1.66c-2.22,0-2.77-0.52-2.77-1.9v-10.29
					c0-5.15-2.5-7.67-6.56-7.67c-3.6,0-6.15,1.91-8.04,4.86h-0.09V312.26z M170.42,305.83c0,1.91,1.53,3.43,3.33,3.43
					c1.8,0,3.33-1.52,3.33-3.43c0-1.91-1.52-3.43-3.33-3.43C171.94,302.4,170.42,303.92,170.42,305.83 M181.18,334.56v-3.15h-2.26
					c-1.3,0-1.85-0.52-1.85-1.9v-17.25h-9.43v3.15h2.13c1.29,0,1.85,0.52,1.85,1.91v12.2c0,1.38-0.56,1.9-1.85,1.9h-2.13v3.15
					H181.18z M148.42,334.56h17.65v-3.53h-2.4c-1.02,0-2.27-0.38-3.51-2.14l-9.84-13.96l6.51-5.86c1.89-1.71,3.24-2.57,6.01-2.57
					h1.71v-3.53h-16.22v3.53h2.91c0.56,0,0.83,0.24,0.83,0.62c0,0.43-0.37,0.9-1.06,1.52l-9.94,9.34v-9.77
					c0-1.24,0.46-1.72,1.9-1.72h2.72v-3.53h-16.27v3.53h3.28c1.43,0,1.89,0.48,1.89,1.72v20.25c0,1.57-0.6,2.57-2.73,2.57h-2.45
					v3.53h16.27v-3.53h-2.72c-1.43,0-1.9-0.48-1.9-1.71v-5.77l4.85-4.29l6.56,9.81c0.28,0.43,0.41,0.81,0.41,1.09
					c0,0.72-0.65,0.86-1.39,0.86h-3.09V334.56z"/>
			</g>
		</g>
		<g>
			<path class="st0" d="M214.17,201.44v-72.9c0-4.46-1.72-6.17-7.03-6.17h-7.46c-5.31,12.81-8.25,26.84-8.25,41.57
				c0,16.74,3.8,32.6,10.56,46.76h2.06C211.94,210.7,214.17,207.1,214.17,201.44z"/>
			<path class="st0" d="M256.2,168.33l-18.01,15.43v20.76c0,4.46,1.72,6.17,7.03,6.17h10.12v12.7h-46.18
				c19.4,29.6,52.85,49.16,90.88,49.16c16.4,0,31.94-3.64,45.88-10.14c-1.43-0.36-3.31-0.88-4.82-1.38
				C309.2,250.41,256.2,168.33,256.2,168.33z"/>
			<path class="st0" d="M408.57,166.33c0-5.74-0.44-11.38-1.28-16.89c-0.03-0.21-0.08-0.42-0.11-0.63
				c-0.26-1.62-0.54-3.23-0.86-4.82c-0.08-0.38-0.18-0.75-0.26-1.13c-0.31-1.42-0.62-2.83-0.98-4.23c-0.12-0.46-0.26-0.92-0.39-1.38
				c-0.35-1.3-0.7-2.6-1.1-3.88c-0.16-0.51-0.35-1.01-0.51-1.53c-0.4-1.21-0.79-2.43-1.22-3.62c-0.2-0.56-0.43-1.1-0.65-1.65
				c-0.43-1.13-0.86-2.27-1.33-3.38c-0.25-0.59-0.52-1.16-0.78-1.74c-0.47-1.06-0.93-2.12-1.43-3.17c-0.29-0.6-0.6-1.18-0.9-1.78
				c-0.51-1-1-2.01-1.54-3c-0.33-0.61-0.69-1.2-1.03-1.81c-0.54-0.95-1.06-1.9-1.62-2.83c-0.38-0.62-0.78-1.23-1.17-1.84
				c-0.56-0.89-1.11-1.78-1.7-2.65c-0.42-0.63-0.87-1.23-1.31-1.85c-0.59-0.83-1.16-1.68-1.77-2.49c-0.46-0.62-0.96-1.22-1.43-1.84
				c-0.61-0.79-1.21-1.58-1.84-2.35c-0.51-0.62-1.05-1.22-1.57-1.83c-0.63-0.73-1.25-1.47-1.89-2.18c-0.56-0.62-1.14-1.21-1.71-1.81
				c-0.65-0.68-1.28-1.37-1.95-2.04c-0.6-0.6-1.22-1.18-1.83-1.76c-0.66-0.64-1.32-1.29-2-1.91c-0.64-0.58-1.31-1.14-1.96-1.71
				c-0.68-0.59-1.35-1.19-2.04-1.77c-0.68-0.57-1.39-1.1-2.08-1.65c-0.69-0.55-1.38-1.11-2.09-1.64c-0.72-0.54-1.47-1.06-2.21-1.59
				c-0.7-0.5-1.4-1.02-2.12-1.51c-0.76-0.52-1.55-1.01-2.32-1.51c-0.72-0.46-1.43-0.93-2.15-1.38c-0.8-0.49-1.62-0.95-2.43-1.42
				c-0.73-0.42-1.45-0.85-2.19-1.26c-0.84-0.46-1.7-0.89-2.55-1.33c-0.73-0.38-1.46-0.77-2.21-1.13c-0.87-0.42-1.77-0.82-2.65-1.22
				c-0.74-0.34-1.48-0.69-2.24-1.01c-0.9-0.39-1.83-0.74-2.74-1.1c-0.75-0.3-1.5-0.61-2.27-0.89c-0.93-0.35-1.88-0.66-2.82-0.98
				c-0.77-0.26-1.53-0.53-2.3-0.78c-0.96-0.3-1.93-0.57-2.9-0.85c-0.78-0.22-1.55-0.46-2.34-0.66c-0.98-0.26-1.98-0.48-2.97-0.71
				c-0.79-0.18-1.57-0.38-2.37-0.55c-1.01-0.21-2.03-0.39-3.04-0.57c-0.8-0.14-1.59-0.3-2.4-0.43c-1.03-0.16-2.06-0.29-3.1-0.42
				c-0.81-0.1-1.61-0.22-2.43-0.31c-1.04-0.11-2.09-0.19-3.14-0.27c-0.82-0.06-1.64-0.14-2.47-0.19c-1.05-0.06-2.12-0.08-3.18-0.11
				c-0.78-0.02-1.56-0.05-2.35-0.06c-39.5,0.61-73.86,22.31-92.37,54.33h49.37v12.7h-10.12c-5.31,0-7.03,1.71-7.03,6.17v35.16
				l36.88-33.62c2.57-2.23,3.95-3.95,3.95-5.49c0-1.37-1.03-2.23-3.09-2.23h-10.8v-12.7h60.2v12.7h-6.34
				c-10.29,0-15.27,3.09-22.3,9.26l-24.19,21.1c0,0,44.77,72.81,65.78,87.55c15.34,10.77,31.4,4.18,40.71-1.77
				c17.15-18.16,28.12-42.22,29.5-68.82C408.52,168.57,408.57,167.46,408.57,166.33z"/>
		</g>
	</g>
</g>
</svg>
