<?xml version="1.0" encoding="utf-8"?>
<!-- Generator: Adobe Illustrator 21.1.0, SVG Export Plug-In . SVG Version: 6.00 Build 0)  -->
<svg version="1.1" id="Layer_1" xmlns="http://www.w3.org/2000/svg" xmlns:xlink="http://www.w3.org/1999/xlink" x="0px" y="0px"
	 viewBox="0 0 600 400" style="enable-background:new 0 0 600 400;" xml:space="preserve">
<style type="text/css">
	.st0{fill:#FFFFFF;}
</style>
<g id="Datafox">
	<g>
		<g>
			<g>
				<path class="st0" d="M345.57,166.77c1.97-4.7,3.18-9.75,3.24-14.87c-1.74,1.56-2.76,3.7-4.29,5.45c0.4-2.53,1.1-5,1.64-7.51
					c1.57-6.74,2.34-13.71,1.77-20.62c-0.4-4.49-1.22-8.92-2.05-13.35c-0.88-4.63-1.1-9.39-2.45-13.92
					c-0.59-1.79-1.34-3.69-2.91-4.84c-1.85-1.28-4.4-0.6-6.04,0.71c-2.48,2.02-4.28,4.7-6.32,7.14
					c-7.97,9.24-14.59,19.75-18.85,31.22c-0.23,0.55-0.48,1.1-0.74,1.63c-0.29-1.74-0.13-3.52,0.4-5.19
					c1.57-5.01,5.16-9.07,6.93-13.99c-1.33-0.02-2.66-0.03-3.99-0.11c1.04-1.3,2.32-2.43,3.13-3.92c-3.22,0.4-5.79,2.54-8.71,3.73
					c-0.09-0.73-0.18-1.45-0.27-2.18c-2.28,1.52-4.05,3.64-6.07,5.47c-2.08-1.82-3.86-4-6.22-5.5c-0.04,0.74-0.09,1.47-0.13,2.21
					c-2.96-1.17-5.51-3.33-8.75-3.75c0.78,1.48,2.05,2.6,3.04,3.93c-1.3,0.07-2.61,0.09-3.91,0.11c1.68,4.81,5.15,8.75,6.77,13.58
					c0.65,1.82,0.74,3.78,0.59,5.69c-0.93-1.81-1.52-3.76-2.33-5.61c-4.21-9.82-10.06-18.9-17.02-27c-2-2.35-3.74-4.93-6.03-7.01
					c-1.5-1.39-3.67-2.29-5.7-1.66c-1.61,0.6-2.59,2.16-3.23,3.68c-1.57,3.86-1.88,8.07-2.49,12.15c-1.1,7.13-2.87,14.21-2.8,21.47
					c-0.04,5.55,0.87,11.05,2.08,16.45c0.49,2.29,1.19,4.53,1.45,6.86c-1.46-1.7-2.51-3.74-4.12-5.32
					c-0.08,4.12,0.77,8.22,2.11,12.1c1.2,3.59,3,6.92,4.54,10.36c-1.33-0.75-2.58-1.64-3.9-2.4c1.15,4.8,3.69,9.24,7.19,12.71
					c3.72,3.82,8.24,6.71,12.37,10.05c1.72,1.41,3.24,3.09,4.37,5.01c1.74,2.87,2.54,6.19,3.24,9.44c0.62,2.86,0.89,5.9,2.49,8.44
					c2.28,3.73,6.35,6,10.48,7.08c5.6,1.56,11.8,0.78,16.88-2.06c3.16-1.78,5.83-4.68,6.75-8.25c1.17-4.71,1.62-9.7,3.99-14.02
					c1.54-2.94,4.05-5.22,6.68-7.17c3.98-3.04,8.16-5.93,11.51-9.68c2.93-3.26,5.06-7.26,6.08-11.53c-1.34,0.75-2.6,1.65-3.93,2.42
					C343.19,171.86,344.53,169.39,345.57,166.77z M267.9,140.87c-2.41-1.6-1.94-4.92-3.78-6.95c-1.28,1.06-1.17,2.83-0.85,4.3
					c0.39,1.79,1,3.55,1.08,5.4c-1.86-1.34-2.42-3.7-4.12-5.18c-0.17,1.85,0.19,3.69,0.18,5.54c-2.2-0.96-3.7-3.03-4.21-5.34
					c-0.93-3.94-0.51-8.03-0.26-12.02c0.48-6.83,2.96-13.27,4.83-19.8c3.34,7.66,6.52,15.57,7.32,23.96
					C268.35,134.14,268.4,137.53,267.9,140.87z M288.94,191.75c-4.16-0.82-8.17-2.71-11.08-5.85c-5.33-5.53-7.05-13.68-6.25-21.14
					c4.85,1.06,8.69,4.59,11.57,8.47C287.04,178.54,289.64,185.09,288.94,191.75z M322.75,185.13c-2.98,3.52-7.24,5.78-11.75,6.59
					c-0.7-6.4,1.74-12.71,5.33-17.9c2.91-4.14,6.89-7.89,11.95-9.06C329.05,171.89,327.55,179.6,322.75,185.13z M339.52,144
					c-0.03-1.84,0.36-3.66,0.26-5.5c-1.86,1.32-2.32,3.8-4.21,5.1c0.1-3.23,2.23-6.42,0.77-9.61c-2.72,1.38-1.69,5.31-4.3,6.86
					c-0.49-2.95-0.43-5.97-0.29-8.95c0.58-8.79,3.94-17.05,7.39-25.05c1.99,6.75,4.52,13.45,4.91,20.54
					c0.23,4.19,0.72,8.6-0.78,12.62C342.64,141.81,341.18,143.15,339.52,144z"/>
			</g>
		</g>
		<g>
			<g>
				<path class="st0" d="M188,302.51v-70.33h15.58c7.35,0,12.54,1.5,15.56,4.51c3.02,3.01,4.53,8.2,4.53,15.58v27.63
					c0,7.72-1.54,13.42-4.61,17.09c-3.07,3.68-8.26,5.51-15.56,5.51H188z M198.05,294.97h5.53c1.65,0,3.06-0.15,4.24-0.45
					c1.18-0.3,2.13-0.85,2.87-1.65c0.73-0.8,1.31-1.56,1.73-2.28c0.42-0.72,0.71-1.84,0.88-3.36c0.17-1.52,0.27-2.77,0.29-3.75
					c0.03-0.98,0.04-2.5,0.04-4.57c0-0.68,0-1.19,0-1.53v-22.61c0-1.28-0.01-2.3-0.02-3.06c-0.01-0.76-0.05-1.65-0.12-2.69
					c-0.07-1.03-0.16-1.85-0.29-2.45c-0.13-0.6-0.31-1.28-0.55-2.02c-0.24-0.75-0.53-1.33-0.88-1.75c-0.35-0.42-0.78-0.86-1.3-1.31
					c-0.51-0.46-1.1-0.8-1.77-1.02c-0.67-0.22-1.45-0.41-2.34-0.55c-0.89-0.14-1.88-0.22-2.98-0.22h-5.34V294.97z"/>
				<path class="st0" d="M239.4,303.21c-2.8,0-5.17-1.21-7.12-3.63c-1.95-2.42-2.92-5.15-2.92-8.18c0-2.43,0.41-4.64,1.24-6.63
					c0.82-1.99,1.69-3.58,2.61-4.77c0.92-1.19,2.45-2.42,4.59-3.69c2.15-1.27,3.77-2.14,4.87-2.61c1.1-0.47,3.01-1.24,5.73-2.32
					c0.47-0.18,0.82-0.33,1.06-0.43v-3.61c0-2.54-0.35-4.51-1.06-5.91c-0.71-1.4-2.03-2.1-3.96-2.1c-1.73,0-2.96,0.6-3.71,1.79
					c-0.75,1.19-1.17,2.83-1.28,4.93c-0.03,0.29-0.04,0.72-0.04,1.29h-10.05c0.05-4.81,1.4-8.65,4.04-11.5
					c2.64-2.85,6.32-4.28,11.03-4.28c4.68,0,8.37,1.45,11.05,4.34c2.68,2.89,4.02,6.71,4.02,11.44v22.61c0,5.23,0.43,9.42,1.3,12.56
					h-10.01l-1.33-7.54c-0.52,1.05-0.95,1.86-1.28,2.43c-0.33,0.58-0.8,1.29-1.43,2.14c-0.63,0.85-1.26,1.5-1.88,1.96
					c-0.63,0.46-1.41,0.86-2.35,1.2C241.55,303.04,240.52,303.21,239.4,303.21z M244.42,294.97c0.71,0,1.39-0.21,2.06-0.63
					c0.67-0.42,1.17-0.82,1.51-1.22c0.34-0.39,0.76-0.92,1.26-1.57c0.08-0.13,0.14-0.22,0.2-0.27v-13.89
					c-0.42,0.29-1.11,0.73-2.08,1.33c-0.97,0.6-1.74,1.09-2.32,1.47c-0.58,0.38-1.27,0.9-2.08,1.57c-0.81,0.67-1.44,1.31-1.88,1.92
					c-0.45,0.62-0.84,1.37-1.18,2.26c-0.34,0.89-0.51,1.82-0.51,2.79C239.4,292.89,241.07,294.97,244.42,294.97z"/>
				<path class="st0" d="M280.53,303.21c-3.95,0-6.82-1.01-8.61-3.02c-1.79-2.01-2.71-5.06-2.77-9.14v-31.24h-5.02v-7.54h5.02
					v-17.58h10.05v17.58h7.54v7.54h-7.54v29.32c0,2.02,0.27,3.49,0.82,4.43c0.55,0.94,1.66,1.41,3.34,1.41
					c0.73,0,1.86-0.13,3.38-0.39v8.16C284.22,303.06,282.15,303.21,280.53,303.21z"/>
				<path class="st0" d="M301.86,303.21c-2.8,0-5.17-1.21-7.12-3.63c-1.95-2.42-2.92-5.15-2.92-8.18c0-2.43,0.41-4.64,1.24-6.63
					c0.82-1.99,1.69-3.58,2.61-4.77c0.92-1.19,2.45-2.42,4.59-3.69c2.15-1.27,3.77-2.14,4.87-2.61c1.1-0.47,3.01-1.24,5.73-2.32
					c0.47-0.18,0.82-0.33,1.06-0.43v-3.61c0-2.54-0.35-4.51-1.06-5.91c-0.71-1.4-2.03-2.1-3.96-2.1c-1.73,0-2.96,0.6-3.71,1.79
					c-0.75,1.19-1.17,2.83-1.28,4.93c-0.03,0.29-0.04,0.72-0.04,1.29h-10.05c0.05-4.81,1.4-8.65,4.04-11.5
					c2.64-2.85,6.32-4.28,11.03-4.28c4.68,0,8.37,1.45,11.05,4.34c2.68,2.89,4.02,6.71,4.02,11.44v22.61c0,5.23,0.43,9.42,1.3,12.56
					h-10.01l-1.33-7.54c-0.52,1.05-0.95,1.86-1.28,2.43c-0.33,0.58-0.8,1.29-1.43,2.14c-0.63,0.85-1.26,1.5-1.88,1.96
					c-0.63,0.46-1.41,0.86-2.35,1.2C304.02,303.04,302.98,303.21,301.86,303.21z M306.88,294.97c0.71,0,1.39-0.21,2.06-0.63
					c0.67-0.42,1.17-0.82,1.51-1.22c0.34-0.39,0.76-0.92,1.26-1.57c0.08-0.13,0.14-0.22,0.2-0.27v-13.89
					c-0.42,0.29-1.11,0.73-2.08,1.33c-0.97,0.6-1.74,1.09-2.32,1.47c-0.58,0.38-1.27,0.9-2.08,1.57c-0.81,0.67-1.44,1.31-1.88,1.92
					c-0.45,0.62-0.84,1.37-1.18,2.26c-0.34,0.89-0.51,1.82-0.51,2.79C301.86,292.89,303.53,294.97,306.88,294.97z"/>
				<path class="st0" d="M329.58,302.51v-67.54h23.74v4.79h-17.78v25.59h13.97v4.51h-13.97v32.65H329.58z"/>
				<path class="st0" d="M355.83,280.22v-2.43c0-2.09,0.01-3.7,0.04-4.81c0.03-1.11,0.11-2.63,0.25-4.55
					c0.14-1.92,0.37-3.42,0.67-4.49c0.3-1.07,0.75-2.3,1.35-3.69c0.6-1.39,1.34-2.44,2.22-3.16c0.88-0.72,1.98-1.34,3.32-1.86
					c1.33-0.52,2.86-0.79,4.59-0.79c1.73,0,3.26,0.26,4.59,0.79c1.33,0.52,2.44,1.14,3.32,1.86c0.88,0.72,1.62,1.77,2.22,3.16
					c0.6,1.39,1.05,2.62,1.35,3.69c0.3,1.07,0.52,2.57,0.67,4.49c0.14,1.92,0.23,3.44,0.26,4.55c0.03,1.11,0.04,2.71,0.04,4.81v2.43
					c0,1.75-0.01,3.07-0.02,3.96c-0.01,0.89-0.05,2.13-0.12,3.71c-0.07,1.58-0.17,2.81-0.31,3.67c-0.14,0.86-0.36,1.94-0.65,3.22
					c-0.29,1.28-0.63,2.28-1.04,2.98c-0.41,0.71-0.92,1.49-1.55,2.34c-0.63,0.85-1.35,1.49-2.16,1.92c-0.81,0.43-1.77,0.8-2.88,1.1
					c-1.11,0.3-2.35,0.45-3.71,0.45c-1.36,0-2.6-0.15-3.71-0.45c-1.11-0.3-2.07-0.67-2.88-1.1c-0.81-0.43-1.53-1.07-2.16-1.92
					c-0.63-0.85-1.14-1.63-1.55-2.34c-0.41-0.71-0.75-1.7-1.04-2.98c-0.29-1.28-0.5-2.35-0.65-3.22c-0.14-0.86-0.25-2.09-0.31-3.67
					c-0.07-1.58-0.1-2.82-0.12-3.71C355.84,283.29,355.83,281.97,355.83,280.22z M361.72,277.78v2.43c0,7.38,0.43,12.45,1.3,15.23
					c0.86,2.77,2.62,4.16,5.26,4.16c2.64,0,4.4-1.39,5.26-4.16c0.86-2.77,1.3-7.85,1.3-15.23v-2.43c0-2.49-0.03-4.58-0.08-6.28
					c-0.05-1.7-0.16-3.33-0.33-4.89c-0.17-1.56-0.41-2.81-0.71-3.75c-0.3-0.94-0.69-1.77-1.18-2.49c-0.48-0.72-1.07-1.23-1.77-1.53
					c-0.69-0.3-1.52-0.45-2.49-0.45c-0.97,0-1.8,0.15-2.49,0.45c-0.69,0.3-1.29,0.81-1.79,1.53c-0.5,0.72-0.89,1.54-1.18,2.47
					c-0.29,0.93-0.52,2.18-0.69,3.77c-0.17,1.58-0.28,3.21-0.33,4.89C361.74,273.18,361.72,275.27,361.72,277.78z"/>
				<path class="st0" d="M384.33,302.51l10.13-24.57l-10.05-22.45h6.08l7.69,19.58l7.69-19.58h6.08l-10.09,22.45L412,302.51h-5.73
					l-8.08-20.96l-8.08,20.96H384.33z"/>
			</g>
		</g>
	</g>
</g>
</svg>
