<?xml version="1.0" encoding="utf-8"?>
<!-- Generator: Adobe Illustrator 21.1.0, SVG Export Plug-In . SVG Version: 6.00 Build 0)  -->
<svg version="1.1" id="Layer_1" xmlns="http://www.w3.org/2000/svg" xmlns:xlink="http://www.w3.org/1999/xlink" x="0px" y="0px"
	 viewBox="0 0 600 400" style="enable-background:new 0 0 600 400;" xml:space="preserve">
<style type="text/css">
	.st0{fill:#FFFFFF;}
</style>
<g id="Fortune__x26__Frame">
	<g>
		<polygon class="st0" points="573.53,163.19 26.46,163.19 26.46,236.81 163.31,236.81 163.31,234.92 28.35,234.92 28.35,165.08 
			571.64,165.08 571.64,234.92 437.03,234.92 437.03,236.81 573.53,236.81 		"/>
		<polygon class="st0" points="580,156.72 20,156.72 20,243.28 163.31,243.28 163.31,242.81 20.47,242.81 20.47,157.19 
			579.53,157.19 579.53,242.81 437.03,242.81 437.03,243.28 580,243.28 		"/>
	</g>
	<g>
		<g>
			<path class="st0" d="M82.25,184.09l13.62-6.02c0,1.95-0.21,5.32-0.21,7.27s0.21,5.32,0.21,7.27l-13.67-6.85h-0.79v4.82
				c0,6.9,5.28,10.22,16.45,10.22v1.66c-6.48,0-17.82-0.21-24.3-0.21s-17.82,0.21-24.3,0.21v-1.66c7.89,0,10.59-5.03,10.59-16.16
				c0-9.59-2.66-13.75-10.59-13.75v-1.66c7.48,0,20.6,0.21,28.08,0.21c7.48,0,20.6-0.21,28.08-0.21l-0.83,12.3
				c0,0-6.4-3.41-10.63-5.48c-4.16-2.04-10.88-5.15-10.88-5.15h-1.66v13.21h0.83V184.09z"/>
			<path class="st0" d="M146.42,203.28c-18.32,0-30.11-3.78-30.11-16.82c0-14.54,10.47-18.07,29.32-18.07
				c17.07,0,30.2,3.53,30.2,18.07C175.83,199.5,163.57,203.28,146.42,203.28z M146.04,170.01c-3.99,0-5.65,4.78-5.65,16.41
				c0,10.43,1.78,15.12,5.65,15.12c4.28,0,5.69-4.69,5.69-15.12C151.73,174.78,150.28,170.01,146.04,170.01z"/>
			<path class="st0" d="M242.57,203.28c-14.25,0-17.03-3.57-18.28-9.55c-0.74-3.57-1.45-7.19-6.85-7.19h-2.04v6.69
				c0,5.36,2.57,7.56,9.01,7.56v1.79c-5.23,0-14.41-0.21-19.64-0.21c-5.24,0-14.46,0.21-19.69,0.21v-1.79
				c8.18,0,10.8-9.18,10.8-16.12c0-7.56-2.82-13.79-10.8-13.79v-1.66h39.42c16.86,0,24.67,1.91,24.67,8.64
				c0,6.27-6.11,7.6-10.14,7.6v0.83c4.86,0,7.85,2.95,9.72,6.94c1.87,4.03,4.11,7.56,7.93,7.56v1.66
				C253.58,203.03,249.84,203.28,242.57,203.28z M215.4,170.88v13.75c8.02,0,10.42-2.91,10.42-6.94
				C225.83,172.38,222.5,170.88,215.4,170.88z"/>
			<path class="st0" d="M315.66,178.07c-3.03-2.66-7.56-7.18-7.56-7.18h-1.25v19.27c0,7.39,6.19,10.63,15.21,10.63v1.79
				c-6.98,0-19.23-0.21-26.21-0.21s-19.23,0.21-26.21,0.21v-1.79c9.68,0,15.21-2.82,15.21-10.22v-19.69h-1.25
				c0,0-4.86,5.07-8.1,8.06c-3.65,3.41-9.68,8.39-9.68,8.39V169.1c8.06,0,22.18,0.21,30.24,0.21s22.18-0.21,30.24-0.21v17.82
				C326.29,186.91,319.65,181.6,315.66,178.07z"/>
			<path class="st0" d="M395.15,185.63v2.95c0,9.97-4.03,14.7-21.51,14.7c-18.9,0-30.12-2.41-30.12-14.7v-9.18
				c0-5.81-2.95-8.51-8.1-8.51v-1.79c5.44,0,14.91,0.21,20.35,0.21s14.91-0.21,20.36-0.21c4.24,0,11.63,0.21,15.87,0.21
				s11.63-0.21,15.87-0.21v1.79C399.43,170.88,395.15,176.2,395.15,185.63z M392.74,185.63c0-9.51-4.65-14.75-16.61-14.75
				c-4.94,0-7.69,2.57-7.69,8.51v9.14c0,9.68,2.91,12.25,11.38,12.25c7.56,0,12.92-2.87,12.92-12.25L392.74,185.63L392.74,185.63z"
				/>
			<path class="st0" d="M473.77,185.67v16.78c-2.82,0-7.81-0.21-10.63-0.21s-7.81,0.21-10.63,0.21l-22.64-22.31v5.11
				c0,10.18,3.95,15.53,13.83,15.53v1.66c-3.65,0-10.09-0.21-13.75-0.21c-3.69,0-10.09,0.21-13.79,0.21v-1.66
				c7.48,0,10.8-4.57,10.8-15.45c0-10.72-3.16-14.45-10.8-14.45v-1.66c4.61,0,12.71,0.21,17.32,0.21s12.67-0.21,17.28-0.21
				L470.53,187v-1.41c0-11.3-5.94-14.7-13.04-14.7v-1.66c3.82,0,10.55,0.21,14.37,0.21s10.51-0.21,14.33-0.21v1.66
				C478.63,170.88,473.77,174.29,473.77,185.67z"/>
			<path class="st0" d="M527.55,184.09l13.62-6.02c0,1.95-0.21,5.32-0.21,7.27s0.21,5.32,0.21,7.27l-13.62-6.85h-0.83v15.04h1.66
				c0,0,6.69-3.49,10.92-5.9c4.2-2.41,10.59-6.4,10.59-6.4l0.83,14.08c-7.48,0-20.6-0.21-28.08-0.21c-7.47,0-20.6,0.21-28.08,0.21
				v-1.79c7.64,0,10.59-4.36,10.59-16.16c0-10.51-3.28-13.75-10.59-13.75v-1.79c7.48,0,20.6,0.21,28.08,0.21s20.6-0.21,28.08-0.21
				l-0.83,12.42c0,0-6.44-3.37-10.68-5.44c-4.15-2.04-10.84-5.19-10.84-5.19h-1.66v13.21L527.55,184.09L527.55,184.09z"/>
			<path class="st0" d="M200.14,230.89c-8.95,0-12.68-0.89-12.68-4.59c0-2.68,2.51-3.68,5.94-4.01c-0.49-1.03-0.72-2.21-0.72-3.61
				c0-5.24,3.68-6.9,11.16-6.9c5.52,0,7.29,1.24,7.29,3.75c0,1.47-1.26,3.01-4.56,2.82l-0.45-0.54c0.65-0.7,0.86-1.79,0.86-2.45
				c0-1.65-0.86-2.59-3.14-2.59c-2.26,0-3.43,0.89-3.43,2.73c0,3.36,2.61,4.29,10.63,3.87c0,1.72,0.28,3.19,0.84,4.38
				c0-4.61,2.77-5.97,5.59-5.97c3.47,0,5.27,1.68,5.27,4.26c0,2.4-1.91,3.91-4.5,3.91c-2.35,0-4.06-1.44-4.06-3.57
				c0-2.07,1.61-3.05,3.89-3.05c0.44,0,1,0.07,1.4,0.23l0.09-0.47c-0.67-0.23-1.4-0.3-2.1-0.3c-2.58,0-4.31,1.28-4.31,4.47
				c0,2.17,1.54,3.82,4.76,3.82c1.75,0,3.1-0.42,4.1-0.93l0.49,0.47c-1.63,3.33-4.17,4.24-11.07,4.24c-1.93,0-4.21-0.09-6.01-0.84
				C204.1,230.75,202.37,230.89,200.14,230.89z M193.71,226.37c0,1.79,1.75,3.47,6.43,3.47c1.52,0,2.82,0.05,3.99-0.47
				c-1.09-0.75-1.8-1.72-1.8-2.98c-3.17,0-5.62-0.65-7.24-1.98C194.26,224.97,193.71,225.41,193.71,226.37z"/>
			<path class="st0" d="M252.33,220.12l7.64-3.38c0,1.1-0.11,2.98-0.11,4.08s0.11,2.98,0.11,4.08l-7.67-3.84h-0.44v2.7
				c0,3.87,2.96,5.73,9.23,5.73v0.93c-3.64,0-10-0.12-13.63-0.12c-3.64,0-10,0.12-13.63,0.12v-0.93c4.43,0,5.94-2.82,5.94-9.07
				c0-5.38-1.49-7.71-5.94-7.71v-0.93c4.19,0,11.56,0.12,15.75,0.12c4.2,0,11.56-0.12,15.75-0.12l-0.47,6.9c0,0-3.59-1.91-5.97-3.08
				c-2.33-1.14-6.11-2.89-6.11-2.89h-0.93v7.41L252.33,220.12L252.33,220.12z"/>
			<path class="st0" d="M301.1,230.89c-7.99,0-9.56-2-10.25-5.36c-0.42-2-0.82-4.03-3.85-4.03h-1.14v3.75
				c0,3.01,1.45,4.24,5.06,4.24v1c-2.94,0-8.09-0.12-11.02-0.12s-8.11,0.12-11.05,0.12v-1c4.59,0,6.06-5.15,6.06-9.04
				c0-4.24-1.59-7.74-6.06-7.74v-0.93h22.11c9.46,0,13.84,1.07,13.84,4.85c0,3.52-3.43,4.26-5.69,4.26v0.47
				c2.73,0,4.41,1.65,5.45,3.89c1.05,2.26,2.31,4.24,4.45,4.24v0.93C307.27,230.75,305.18,230.89,301.1,230.89z M285.86,212.71v7.71
				c4.5,0,5.85-1.63,5.85-3.89C291.71,213.55,289.84,212.71,285.86,212.71z"/>
			<path class="st0" d="M337.26,230.38c-3.29,0-9.02,0.12-12.3,0.12c-1.77,0-4.87-0.12-6.64-0.12c-1.77,0-4.89,0.12-6.67,0.12v-1
				c3.36,0,6.13-2.59,8.11-6.97l4.87-10.74H337l4.75,10.74c1.68,3.77,3.96,6.97,7.78,6.97v1
				C346.26,230.49,340.55,230.38,337.26,230.38z M321.35,223.46c0,2.45,0.77,6.04,3.61,6.04c2.47,0,3.36-3.45,3.36-6.04H321.35z
				 M324.89,214.39l-3.45,7.99h6.8L324.89,214.39z"/>
			<path class="st0" d="M381.9,230.38c-3.07,0-8.48,0.12-11.56,0.12l-0.91,1.12l-0.84-1.12c-2.21,0-6.04-0.12-8.25-0.12
				s-6.06,0.12-8.27,0.12v-1c3.96,0,6.06-2.31,6.06-8.67c0-6.27-2.01-8.11-6.06-8.11v-1c2.73,0,7.53,0.12,10.25,0.12
				c2.73,0,7.53-0.12,10.25-0.12l3.57,5.85l3.61-5.85c1.84,0,5.01,0.12,6.85,0.12s5.01-0.12,6.85-0.12v1
				c-3.71,0-6.18,1.91-6.18,8.11c0,6.57,2.38,8.67,6.18,8.67v1C390.39,230.49,384.98,230.38,381.9,230.38z M360.14,217.14v0.98
				c0,6.36,4.08,11.37,7.76,11.37L360.14,217.14z M378.6,217.14l-7.76,12.35c3.68,0,7.76-5.08,7.76-11.37V217.14z"/>
			<path class="st0" d="M414.6,220.12l7.64-3.38c0,1.1-0.12,2.98-0.12,4.08s0.12,2.98,0.12,4.08l-7.64-3.84h-0.47v8.44h0.93
				c0,0,3.75-1.96,6.13-3.31c2.36-1.35,5.94-3.59,5.94-3.59l0.46,7.9c-4.19,0-11.56-0.12-15.75-0.12c-4.2,0-11.56,0.12-15.75,0.12
				v-1c4.29,0,5.94-2.45,5.94-9.07c0-5.9-1.84-7.71-5.94-7.71v-1c4.2,0,11.56,0.12,15.75,0.12c4.2,0,11.56-0.12,15.75-0.12
				l-0.46,6.97c0,0-3.61-1.89-5.99-3.05c-2.33-1.14-6.08-2.91-6.08-2.91h-0.93v7.41h0.47V220.12z"/>
		</g>
	</g>
</g>
</svg>
