<?xml version="1.0" encoding="utf-8"?>
<!-- Generator: Adobe Illustrator 21.1.0, SVG Export Plug-In . SVG Version: 6.00 Build 0)  -->
<svg version="1.1" id="Layer_1" xmlns="http://www.w3.org/2000/svg" xmlns:xlink="http://www.w3.org/1999/xlink" x="0px" y="0px"
	 viewBox="0 0 600 400" style="enable-background:new 0 0 600 400;" xml:space="preserve">
<style type="text/css">
	.st0{fill:#FFFFFF;}
</style>
<g id="Online_Marketing_Summit">
	<g>
		<g>
			<path class="st0" d="M98.9,230.38c5.28,0,8.58,0.62,9.9,1.86c1.32,1.24,1.98,4.33,1.98,9.29c0,5.34-0.63,8.63-1.9,9.88
				s-4.6,1.87-9.98,1.87c-5.36,0-8.68-0.62-9.97-1.86c-1.29-1.24-1.93-4.44-1.93-9.6v-1.58l0.04-2.12c0-2.98,0.84-5.02,2.51-6.11
				C91.22,230.93,94.34,230.38,98.9,230.38z M98.88,232.52c-4.42,0-7,0.39-7.75,1.18c-0.75,0.79-1.12,3.5-1.12,8.12
				c0,4.64,0.38,7.35,1.12,8.14c0.75,0.79,3.33,1.18,7.75,1.18c4.43,0,7.02-0.39,7.77-1.18c0.75-0.79,1.13-3.5,1.13-8.14v-1.46
				l-0.02-2.12c0-2.48-0.52-4.05-1.55-4.72C105.17,232.86,102.73,232.52,98.88,232.52z"/>
			<path class="st0" d="M114.66,237.34h2.76l-0.08,2.14l0.08,0.05c0.87-1.61,3.04-2.42,6.5-2.42c2.79,0,4.69,0.39,5.68,1.18
				c0.99,0.79,1.48,2.3,1.48,4.54v10.22h-2.86v-10.03v-0.59c0-1.35-0.32-2.26-0.96-2.72c-0.64-0.47-1.87-0.7-3.7-0.7
				c-4.02,0-6.03,1.53-6.03,4.59v9.45h-2.86V237.34z"/>
			<path class="st0" d="M139.54,230.61v22.44h-2.86v-22.44H139.54z"/>
			<path class="st0" d="M147.85,230.61v2.58h-2.86v-2.58H147.85z M147.85,237.34v15.71h-2.86v-15.71H147.85z"/>
			<path class="st0" d="M153.28,237.34h2.76l-0.08,2.14l0.08,0.05c0.87-1.61,3.04-2.42,6.5-2.42c2.79,0,4.69,0.39,5.68,1.18
				c0.99,0.79,1.48,2.3,1.48,4.54v10.22h-2.86v-10.03v-0.59c0-1.35-0.32-2.26-0.96-2.72c-0.64-0.47-1.87-0.7-3.7-0.7
				c-4.02,0-6.03,1.53-6.03,4.59v9.45h-2.86V237.34z"/>
			<path class="st0" d="M188.9,248.3h2.92l0.02,0.58c0,1.63-0.62,2.78-1.85,3.43c-1.23,0.65-3.4,0.98-6.49,0.98
				c-3.6,0-5.96-0.53-7.09-1.59c-1.12-1.06-1.69-3.28-1.69-6.67c0-3.13,0.57-5.24,1.7-6.31c1.13-1.07,3.35-1.61,6.65-1.61
				c3.6,0,5.96,0.47,7.08,1.4c1.12,0.93,1.68,2.89,1.68,5.88v1.23h-14.07c0,2.48,0.33,4.06,0.99,4.73c0.66,0.68,2.21,1.02,4.63,1.02
				c2.3,0,3.8-0.16,4.49-0.48c0.69-0.32,1.03-1.02,1.03-2.1V248.3z M188.9,243.83l-0.02-0.74c0-1.7-0.35-2.8-1.04-3.31
				c-0.7-0.51-2.2-0.76-4.5-0.76c-2.32,0-3.82,0.3-4.51,0.9c-0.69,0.6-1.03,1.9-1.03,3.92H188.9z"/>
			<path class="st0" d="M227.54,230.61v22.44h-3.15V235.1v-1.35l0.02-0.67l0.02-0.67h-0.08l-0.25,0.53
				c-0.12,0.26-0.2,0.43-0.25,0.51l-0.53,1.05l-9.51,18.56h-3.15l-9.53-18.34l-0.55-1.04l-0.25-0.53c-0.07-0.12-0.15-0.29-0.25-0.51
				h-0.08l0.02,0.61l0.02,0.62v1.23v17.95h-3.15v-22.44h5.46l7.44,14.52l1.19,2.35l0.59,1.17l0.57,1.17h0.08l0.57-1.17
				c0.29-0.56,0.48-0.95,0.57-1.17l1.21-2.34l7.4-14.53H227.54z"/>
			<path class="st0" d="M236.1,241.74h-2.84c0-1.83,0.51-3.06,1.54-3.69c1.03-0.63,3.04-0.94,6.04-0.94c3.26,0,5.46,0.39,6.61,1.16
				c1.15,0.77,1.72,2.24,1.72,4.41v10.37h-2.86l0.23-1.69l-0.06-0.02c-1.09,1.29-3.31,1.94-6.65,1.94c-4.94,0-7.4-1.59-7.4-4.78
				c0-1.9,0.55-3.2,1.66-3.93c1.1-0.72,3.1-1.08,5.99-1.08c3.44,0,5.49,0.54,6.18,1.63l0.06-0.02v-1.91c0-1.8-0.31-2.96-0.92-3.49
				c-0.61-0.53-1.96-0.8-4.03-0.8c-3.52,0-5.28,0.79-5.28,2.38C236.08,241.36,236.09,241.51,236.1,241.74z M240.7,245.28
				c-2.2,0-3.62,0.19-4.28,0.56c-0.66,0.37-0.99,1.17-0.99,2.4c0,1.27,0.33,2.11,0.98,2.52c0.65,0.41,1.98,0.62,3.99,0.62
				c4.04,0,6.05-0.99,6.05-2.96c0-1.24-0.39-2.07-1.18-2.5C244.49,245.49,242.97,245.28,240.7,245.28z"/>
			<path class="st0" d="M255.17,237.34h2.86l-0.29,1.81l0.06,0.05c1.13-1.48,3-2.22,5.6-2.22c3.6,0,5.4,1.49,5.4,4.47l-0.02,1.08
				h-2.82l0.06-0.39c0.04-0.42,0.06-0.7,0.06-0.84c0-1.61-1.09-2.42-3.27-2.42c-3.19,0-4.79,1.58-4.79,4.75v9.42h-2.86V237.34z"/>
			<path class="st0" d="M274.86,230.61v13.04h1.31l6.91-6.31h3.6l-8.36,7.22l9.88,8.5h-3.87l-8.3-7.61h-1.17v7.61h-2.86v-22.44
				H274.86z"/>
			<path class="st0" d="M304.03,248.3h2.92l0.02,0.58c0,1.63-0.62,2.78-1.85,3.43c-1.23,0.65-3.4,0.98-6.49,0.98
				c-3.6,0-5.96-0.53-7.09-1.59c-1.12-1.06-1.69-3.28-1.69-6.67c0-3.13,0.57-5.24,1.7-6.31c1.13-1.07,3.35-1.61,6.65-1.61
				c3.6,0,5.96,0.47,7.08,1.4c1.12,0.93,1.68,2.89,1.68,5.88v1.23h-14.07c0,2.48,0.33,4.06,0.99,4.73c0.66,0.68,2.21,1.02,4.63,1.02
				c2.3,0,3.8-0.16,4.49-0.48c0.69-0.32,1.03-1.02,1.03-2.1V248.3z M304.03,243.83l-0.02-0.74c0-1.7-0.35-2.8-1.04-3.31
				c-0.7-0.51-2.2-0.76-4.5-0.76c-2.32,0-3.82,0.3-4.51,0.9c-0.69,0.6-1.03,1.9-1.03,3.92H304.03z"/>
			<path class="st0" d="M322.26,237.34v1.91h-7.53v9.62c0,1.68,0.93,2.51,2.78,2.51c1.84,0,2.76-0.75,2.76-2.25l0.02-0.77l0.04-0.87
				H323l0.02,1.17c0,3.09-1.83,4.64-5.48,4.64c-3.78,0-5.67-1.29-5.67-3.86v-0.56v-9.62h-2.7v-1.91h2.7v-3.78h2.86v3.78H322.26z"/>
			<path class="st0" d="M328.82,230.61v2.58h-2.86v-2.58H328.82z M328.82,237.34v15.71h-2.86v-15.71H328.82z"/>
			<path class="st0" d="M334.25,237.34h2.76l-0.08,2.14l0.08,0.05c0.87-1.61,3.04-2.42,6.5-2.42c2.79,0,4.69,0.39,5.68,1.18
				s1.48,2.3,1.48,4.54v10.22h-2.86v-10.03v-0.59c0-1.35-0.32-2.26-0.96-2.72c-0.64-0.47-1.87-0.7-3.7-0.7
				c-4.02,0-6.03,1.53-6.03,4.59v9.45h-2.86V237.34z"/>
			<path class="st0" d="M372.62,237.34v16.73c0,2.28-0.61,3.85-1.84,4.7c-1.23,0.85-3.48,1.28-6.75,1.28
				c-2.92,0-4.91-0.36-5.97-1.08c-1.06-0.72-1.59-2.08-1.59-4.06h2.76c0,1.35,0.31,2.22,0.93,2.63c0.62,0.4,1.98,0.61,4.08,0.61
				c2.18,0,3.65-0.26,4.4-0.79s1.13-1.56,1.13-3.09v-3.16l-0.06-0.02c-0.74,1.46-2.86,2.19-6.38,2.19c-2.89,0-4.88-0.57-5.97-1.72
				c-1.09-1.14-1.64-3.23-1.64-6.27c0-3.15,0.56-5.3,1.67-6.45c1.11-1.16,3.17-1.73,6.19-1.73c3.2,0,5.3,0.79,6.28,2.37l0.06-0.02
				l-0.14-2.12H372.62z M364.09,239.01c-2.25,0-3.71,0.38-4.38,1.14c-0.67,0.76-1,2.43-1,5.01c0,2.6,0.33,4.28,1,5.05
				c0.67,0.77,2.13,1.16,4.38,1.16c2.28,0,3.78-0.42,4.5-1.27c0.72-0.85,1.08-2.62,1.08-5.3c0-2.37-0.36-3.92-1.08-4.67
				C367.87,239.39,366.37,239.01,364.09,239.01z"/>
			<path class="st0" d="M397.34,236.7h-3.13c0-1.81-0.37-2.96-1.12-3.44c-0.75-0.49-2.52-0.73-5.3-0.73c-3.3,0-5.43,0.23-6.38,0.7
				c-0.96,0.47-1.43,1.5-1.43,3.11c0,1.81,0.38,2.91,1.13,3.3c0.75,0.39,2.98,0.66,6.69,0.8c4.35,0.15,7.11,0.6,8.29,1.33
				c1.18,0.73,1.77,2.38,1.77,4.93c0,2.76-0.68,4.55-2.04,5.36s-4.35,1.22-8.99,1.22c-4.02,0-6.7-0.41-8.03-1.22
				c-1.33-0.82-1.99-2.46-1.99-4.94l-0.02-1h3.13v0.56c0,2.01,0.38,3.25,1.14,3.74s2.72,0.73,5.87,0.73c3.61,0,5.84-0.24,6.67-0.73
				c0.83-0.49,1.25-1.79,1.25-3.9c0-1.37-0.28-2.28-0.85-2.74c-0.57-0.45-1.75-0.73-3.55-0.81l-3.27-0.13l-3.11-0.13
				c-4.73-0.26-7.1-2.24-7.1-5.92c0-2.55,0.69-4.26,2.07-5.11c1.38-0.85,4.12-1.28,8.24-1.28c4.17,0,6.89,0.4,8.16,1.19
				S397.34,234.08,397.34,236.7z"/>
			<path class="st0" d="M417.86,237.34v15.71H415l0.21-2.06l-0.06-0.05c-1,1.56-3.12,2.33-6.38,2.33c-4.57,0-6.85-1.83-6.85-5.49
				v-10.45h2.86v10.45c0,1.43,0.29,2.38,0.88,2.86c0.59,0.48,1.74,0.72,3.46,0.72c2.25,0,3.79-0.36,4.63-1.08
				c0.84-0.72,1.26-2.04,1.26-3.95v-9.01H417.86z"/>
			<path class="st0" d="M423.58,237.34h2.86l-0.06,2.37l0.06,0.05c1.1-1.76,3.23-2.65,6.38-2.65c3.31,0,5.32,0.88,6.03,2.65h0.08
				c1.23-1.76,3.47-2.65,6.73-2.65c4.61,0,6.91,1.89,6.91,5.67v10.27h-2.86v-10.49c0-1.38-0.31-2.32-0.92-2.81
				c-0.61-0.49-1.77-0.74-3.48-0.74c-2.26,0-3.8,0.34-4.6,1.03c-0.8,0.68-1.21,1.99-1.21,3.92v9.09h-2.86v-10.27l-0.04-0.72
				c0-2.03-1.44-3.04-4.32-3.04c-3.9,0-5.85,1.7-5.85,5.11v8.93h-2.86V237.34z"/>
			<path class="st0" d="M458.58,237.34h2.86l-0.06,2.37l0.06,0.05c1.1-1.76,3.23-2.65,6.38-2.65c3.31,0,5.32,0.88,6.03,2.65h0.08
				c1.23-1.76,3.47-2.65,6.73-2.65c4.61,0,6.91,1.89,6.91,5.67v10.27h-2.86v-10.49c0-1.38-0.31-2.32-0.92-2.81
				c-0.61-0.49-1.77-0.74-3.48-0.74c-2.26,0-3.8,0.34-4.6,1.03c-0.8,0.68-1.21,1.99-1.21,3.92v9.09h-2.86v-10.27l-0.04-0.72
				c0-2.03-1.44-3.04-4.32-3.04c-3.9,0-5.85,1.7-5.85,5.11v8.93h-2.86V237.34z"/>
			<path class="st0" d="M496.45,230.61v2.58h-2.86v-2.58H496.45z M496.45,237.34v15.71h-2.86v-15.71H496.45z"/>
			<path class="st0" d="M512.24,237.34v1.91h-7.53v9.62c0,1.68,0.93,2.51,2.78,2.51c1.84,0,2.76-0.75,2.76-2.25l0.02-0.77l0.04-0.87
				h2.66l0.02,1.17c0,3.09-1.83,4.64-5.48,4.64c-3.78,0-5.67-1.29-5.67-3.86v-0.56v-9.62h-2.7v-1.91h2.7v-3.78h2.86v3.78H512.24z"/>
		</g>
		<path class="st0" d="M503.78,179.04c-5.51-2.77-16.77-4.42-34.43-5.05c-18.8-0.66-23.11-1.55-24.08-1.91
			c-0.93-0.33-1.91-2.06-1.91-5.91c0-4.19,2.15-5.03,2.86-5.3c1.5-0.58,5.91-1.56,18.58-1.56c10.94,0,14.04,0.87,14.86,1.24
			c0.61,0.27,2.07,1.38,2.59,5.46c0,0.39,0.06,1.01,0.19,1.84l0.37,2.27h27.19v-5.39c0-8.54-3.57-14.44-10.6-17.52
			c-6.49-2.84-18.3-4.23-36.11-4.23c-18.79,0-31.14,1.51-37.73,4.61c-4.29,2.02-7.29,5.22-8.98,9.53v-13.51h-36.84l-18.62,35.37
			c-1.37,2.52-3.01,5.97-4.85,10.23l-2.08,4.68l-2.1-4.77c-2.04-4.4-3.71-7.84-4.97-10.23l-18.94-35.28h-36.15v17.78
			c-1.66-5.01-4.12-8.7-7.41-11.12c-6.68-4.91-20.57-7.3-42.44-7.3c-24.48,0-39.63,2.42-46.31,7.39
			c-6.74,5.02-10.02,16.36-10.02,34.68c0,15.54,3.35,25.45,10.25,30.31c6.78,4.78,20.7,7.1,42.56,7.1c24.18,0,39.19-2.36,45.9-7.21
			c3.32-2.4,5.8-6.26,7.47-11.62v18.19h25.11v-42.39c0-2.09-0.07-4.48-0.22-7.15c1.43,3.06,2.63,5.48,3.6,7.23l23.33,42.31h21.21
			l23.12-42.68c0.87-1.67,2.03-4.05,3.46-7.12c-0.12,2.67-0.19,5.15-0.19,7.4v42.39h25.11v-12.54c1.7,3.87,4.48,6.79,8.39,8.65
			c6.43,3.05,18.61,4.54,37.25,4.54c20.66,0,33.82-1.52,40.23-4.63c6.84-3.33,10.3-10.4,10.3-21.02
			C512.76,188.01,509.74,182.04,503.78,179.04z M262.8,202.65c-0.71,0.64-4.39,2.73-21.77,2.73c-18.41,0-22.42-1.91-23.21-2.5
			c-0.77-0.57-3.28-3.49-3.28-17.03c0-18.84,2.26-22.49,2.95-23.16c0.45-0.44,3.68-2.62,23.03-2.62c18.73,0,22.04,2.07,22.51,2.48
			c0.7,0.61,2.96,3.85,2.96,19.94C266,198.1,263.76,201.79,262.8,202.65z M482.46,204.54c-0.96,0.48-4.52,1.59-16.74,1.59
			c-16.03,0-20.18-0.99-21.22-1.42c-0.72-0.3-2.39-1.57-2.39-7.15l-0.22-4.05h-25.31v-16.57c1.47,3.85,3.9,6.69,7.35,8.44
			c5.54,2.8,17.33,4.51,36.04,5.22l11.91,0.48c8.21,0.31,10.67,1.24,11.35,1.62c1.06,0.61,1.67,2.4,1.67,4.91
			C484.91,201.3,484.04,203.76,482.46,204.54z"/>
		<g>
			<path class="st0" d="M120.15,221.85c0,0,6.86,0.75,6.86,0.03c0-0.73-6.83-1.06-6.83-2.93c0,0,6.96,0.58,6.96-0.25
				c0-0.82-7.02-1.56-7.02-4.16c0,0,7.02,0.89,7.02,0.13s-5.81-1.11-6.99-3.03c0,0,6.81,0.47,6.81-0.26c0-0.73-6.84-0.71-8.29-2.67
				c0,0-0.13-11.61-5.07-18.74s-10.61-13.8-10.61-23.6c0-12.03,7.32-20.71,14.77-26.43c-17.22,6.02-29.58,22.41-29.58,41.69
				c0,20.16,13.52,37.16,31.98,42.45L120.15,221.85z"/>
			<path class="st0" d="M150.26,141.27c6.84,5.71,13.11,13.97,13.11,25.1c0,9.8-5.67,16.47-10.61,23.6s-5.07,18.74-5.07,18.74
				c-1.45,1.95-8.29,1.85-8.29,2.67c0,0.82,6.81,0.26,6.81,0.26c-1.18,1.92-6.99,2.28-6.99,3.03s7.02-0.13,7.02-0.13
				c0,2.6-7.02,3.47-7.02,4.16c0,0.69,6.96,0.25,6.96,0.25c0,1.86-6.83,2.26-6.83,2.93c0,0.66,6.86-0.03,6.86-0.03l-0.01,1.71
				c17.59-5.82,30.29-22.38,30.29-41.93C176.5,163.63,165.71,148.15,150.26,141.27z"/>
		</g>
	</g>
</g>
</svg>
