<?xml version="1.0" encoding="utf-8"?>
<!-- Generator: Adobe Illustrator 21.1.0, SVG Export Plug-In . SVG Version: 6.00 Build 0)  -->
<svg version="1.1" id="Layer_1" xmlns="http://www.w3.org/2000/svg" xmlns:xlink="http://www.w3.org/1999/xlink" x="0px" y="0px"
	 viewBox="0 0 600 400" style="enable-background:new 0 0 600 400;" xml:space="preserve">
<style type="text/css">
	.st0{fill:#FFFFFF;}
</style>
<g id="Sea_Wolf">
	<g>
		<polygon class="st0" points="269.32,144.23 254.37,176.01 276.43,168.9 272.16,183.13 249.15,186.93 249.15,192.62 283.55,191.2 
			287.58,158.7 270.74,163.68 273.59,148.73 283.55,148.5 283.55,153 289.48,150.63 290.43,144.23 		"/>
		<polygon class="st0" points="297.31,144.23 293.75,190.96 322.93,190.96 322.93,187.4 304.42,182.66 304.42,167.59 318.66,166.53 
			318.9,162.25 304.42,160.36 304.19,148.5 315.81,147.07 316.05,144.23 		"/>
		<path class="st0" d="M320.8,144.23h14.68l30.63,48.39h-10.26l-8.69-18.18l-12.11-0.71l6.27,17.81h-9.97L320.8,144.23z
			 M327.07,149.5l4.99,18.09l11.97,0.83l-9.83-18.92H327.07z"/>
		<polygon class="st0" points="228.33,187.97 241.15,192.62 251.7,227.58 251.7,199.25 257.25,199.25 266.51,226.15 266.51,199.8 
			274.64,199.25 270.5,243.11 265.94,243.11 259.82,223.46 257.11,243.11 251.48,243.11 		"/>
		<path class="st0" d="M312.99,199.25l-6.16,43.86h-24.42l-3.08-43.86H312.99z M288.57,204.62l-1.98,32.78l16.94-1.76v-28.82
			L288.57,204.62z"/>
		<polygon class="st0" points="320.8,199.25 311.45,243.11 331.68,243.11 333.22,234.76 317.6,237.84 329.48,199.25 		"/>
		<polygon class="st0" points="341.36,200.22 336.08,243.11 343.45,243.11 344.44,225.52 359.18,226.84 363.8,218.04 344.66,217.6 
			345.32,206.6 369.52,210.56 374.36,200.22 		"/>
		<path class="st0" d="M417.99,200c0,64.42-52.22,116.65-116.65,116.65S184.7,264.42,184.7,200c0-64.42,52.22-116.65,116.65-116.65
			S417.99,135.58,417.99,200z M301.35,99.33c-55.6,0-100.67,45.07-100.67,100.67c0,55.6,45.07,100.67,100.67,100.67
			c55.6,0,100.67-45.07,100.67-100.67C402.01,144.4,356.94,99.33,301.35,99.33z"/>
	</g>
</g>
</svg>
