<?xml version="1.0" encoding="utf-8"?>
<!-- Generator: Adobe Illustrator 21.1.0, SVG Export Plug-In . SVG Version: 6.00 Build 0)  -->
<svg version="1.1" id="Layer_1" xmlns="http://www.w3.org/2000/svg" xmlns:xlink="http://www.w3.org/1999/xlink" x="0px" y="0px"
	 viewBox="0 0 600 400" style="enable-background:new 0 0 600 400;" xml:space="preserve">
<style type="text/css">
	.st0{fill:#FFFFFF;}
</style>
<g id="Ergo_Chef">
	<g>
		<path class="st0" d="M484.94,218.79c-5.84,2.76-11.58,5.79-17.55,8.24c-26.71,10.94-54.87,16.06-83.29,19.74
			c-36.52,4.73-73.24,6.32-110.06,5.59c-8.99-0.18-9.03-0.09-11.72-8.96c-1.4-4.61-2.59-9.28-3.92-13.91
			c-3.5-12.15-14.94-18.84-27.24-15.41c-10.73,2.99-21.46,6.12-31.86,10.05c-11.27,4.26-22.72,6.05-34.57,4.73
			c-5.64-0.63-9.94,0.9-13.83,4.81c-2.76,2.77-5.78,5.29-8.83,7.75c-1.86,1.5-4.04,2.6-5.99,4c-5.79,4.15-18.5-6.38-22.98-16.48
			c-3.25-7.32-1.65-11.49,7.82-14.89c10.44-3.74,21.29-6.46,32.13-8.87c19.39-4.32,38.74-9.58,58.41-11.68
			c21.77-2.33,43.91-2.71,65.82-1.9c31.29,1.16,62.65,2.99,93.72,6.68c37.93,4.5,75.59,11.23,113.37,16.99
			C484.56,216.44,484.75,217.62,484.94,218.79z M461.56,222.84c-1.76-1.54-2.13-2.14-2.63-2.27c-3.21-0.83-6.43-1.62-9.67-2.31
			c-57.62-12.37-116-17.91-174.79-21.38c-50.44-2.97-98.29,6.91-145.44,22.92c-3.27,1.11-6.34,2.85-10.15,4.6
			c2.95,5.07,5.37,9.2,7.76,13.34c2.57,4.44,6.08,4.67,9.82,1.83c4.32-3.27,8.83-6.47,12.43-10.44c4.68-5.16,9.93-6.44,16.26-4.55
			c7.86,2.34,15.49,1.35,23.09-1.18c12.01-4,24.18-7.55,36-12.03c9.18-3.47,17.87-5.35,26.74,1.68c1.03-3.19,1.83-5.64,3.07-9.49
			c4.94,15.39,9.4,29.3,14.04,43.78C333.58,247.11,397.69,240.18,461.56,222.84z"/>
		<path class="st0" d="M146.35,172.34c6.94,6.06,12.53,10.93,19.79,17.26c-9.49,0.86-18.02,6.42-24.66,1.93
			c-8.19-5.54-17.2-11.96-20.62-23.91c4.04-0.77,7.35-0.89,10.19-2.13c1.82-0.79,2.92-3.22,4.35-4.91c-1.73-1.36-3.31-3.54-5.23-3.9
			c-3.43-0.64-7.07-0.18-11.75-0.18c0,10.02-0.03,18.99,0.01,27.96c0.05,14.05,0.07,14.06-13.84,17.33
			c-2.31,0.54-4.65,0.97-7.8,1.62c0-18.4,0-36.3,0-55.72c3.43,0,7.2,0,10.97,0c11.46,0,22.92,0.08,34.38-0.03
			c6.35-0.06,12.28,0.64,14.96,7.5c2.26,5.77,0.03,10.38-7.22,15.74C149.18,171.41,148.23,171.58,146.35,172.34z"/>
		<path class="st0" d="M92.1,147.76c0,3.69,0,6.32,0,10.07c-7.57,0.3-14.98,0.78-22.4,0.82c-5.94,0.04-9.31,2.89-9.43,8.57
			c-0.2,9.01-0.27,18.08,0.58,27.04c0.67,7.13,2.31,7.7,9.71,6.05c6.98-1.56,13.95-3.18,20.99-4.8c2.62,6.24,1.22,9.38-4.99,11.06
			c-10.45,2.83-20.71,6.37-31.05,9.59c-9.02,2.81-11.76,1.55-14.45-7.72c-3.58-12.33-3.59-24.99-2.19-37.64
			c0.56-5.06,1.59-10.1,2.86-15.03c1.34-5.23,4.8-8.09,10.5-8.06C65.15,147.81,78.08,147.76,92.1,147.76z"/>
		<path class="st0" d="M441.8,148.25c0,13.39,0,26.47,0,40.67c-6.72-0.92-13.62-1.86-20.86-2.85c-0.38-6.08-0.71-11.4-1.08-17.42
			c-5.3-0.41-10.28-0.79-16.3-1.25c-0.29,5.61-0.54,10.52-0.84,16.49c-7.26-0.68-14-1.32-21.58-2.03c0-11.37,0-22.28,0-33.69
			c6.55,0,13.05,0,20.39,0c0.56,3.89,1.14,7.9,1.87,12.93c5.21,0.27,10.38,0.53,16.13,0.83c0.29-4.98,0.53-9.06,0.81-13.68
			C427.39,148.25,434.13,148.25,441.8,148.25z"/>
		<path class="st0" d="M562,147.74c0,4.58,0,7.8,0,12.54c-6.48-0.43-12.89-0.78-19.3-1.3c-11.15-0.89-12.74,0.38-12.86,11.53
			c-0.13,12.6-0.03,25.2-0.03,39.32c-7.88-2.34-15.13-4.5-22.91-6.81c0-12.44-0.66-24.47,0.18-36.4
			c0.92-13.08,8.18-18.86,21.49-18.88C539.37,147.73,550.16,147.74,562,147.74z"/>
		<path class="st0" d="M218.22,147.68c1.79,5.7-0.76,6.55-4.29,6.61c-5.72,0.09-11.44,0.41-17.16,0.29
			c-5.68-0.12-8.41,2.41-8.39,8.04c0.01,2.11-0.09,4.22-0.03,6.32c0.28,9.96,2.04,11.23,12.8,8.66c0-5.18,0-10.52,0-16.56
			c7.4,0,14.14,0,21.56,0c0,6.77,0,13.52,0,20.81c-1.96,0.48-3.89,1.15-5.88,1.39c-11.35,1.34-22.71,2.71-34.09,3.8
			c-9.27,0.89-15.69-3.41-17.38-11.96c-2.49-12.66,1.49-28.93,21.19-27.52C197,148.3,207.55,147.68,218.22,147.68z"/>
		<path class="st0" d="M259.47,180.51c-5.09,0.28-10.2,0.93-15.28,0.77c-9.32-0.29-15.34-6.31-15.78-15.16
			c-0.47-9.43,4.89-17.23,14.02-17.88c11.94-0.85,24.02-0.81,35.98-0.13c8.78,0.5,14.34,7.4,14.37,15.64
			c0.03,7.99-5.66,14.71-14.44,15.73c-6.21,0.72-12.58,0.14-18.88,0.14C259.47,179.92,259.47,180.22,259.47,180.51z M251.64,164.2
			c0.09,9.11,1.35,10.78,8.1,10.75c7.71-0.04,9.45-2.24,9.28-11.74c-0.15-8.16-1.95-10.09-9.18-9.84
			C253.01,153.6,251.56,155.52,251.64,164.2z"/>
		<path class="st0" d="M501.39,147.73c0.21,3.22,0.35,5.52,0.51,8.04c-1.52,0.37-2.66,0.9-3.79,0.87
			c-6.93-0.16-13.86-0.35-20.78-0.71c-5.33-0.28-7.79,2.33-8.07,7.41c-0.07,1.2-0.06,2.41-0.08,3.61
			c-0.24,18.37,0.46,19.18,18.67,22.74c4.7,0.92,9.35,2.11,14.45,3.27c0,2.9,0,5.45,0,8.59c-14.15-3.19-28.08-5.55-41.52-9.58
			c-14.36-4.3-20.44-26.27-10.67-37.71c2.8-3.27,7.98-5.97,12.25-6.25C474.95,147.21,487.61,147.73,501.39,147.73z"/>
		<path class="st0" d="M375.67,181.54c-13.48-0.63-26.99-0.86-40.42-2.03c-9.68-0.85-15.6-8.19-15.14-17.02
			c0.44-8.39,6.68-14.32,16.43-14.62c11.73-0.36,23.49-0.2,35.23,0c1.71,0.03,3.4,1.51,5.11,2.32c-0.22,1.01-0.43,2.02-0.65,3.03
			c-7.01,0-14.02-0.02-21.02,0.01c-10.35,0.04-15.67,9.29-10.07,18.08c1.17,1.84,4.34,3.05,6.73,3.34c6.86,0.82,13.82,0.86,20.7,1.6
			c1.64,0.18,3.11,1.88,4.65,2.88C376.71,179.92,376.19,180.73,375.67,181.54z"/>
		<path class="st0" d="M534.29,182.23c0-3.64,0-6.53,0-10.58c9.29,1.29,18.21,2.52,27.7,3.83c0,4.04,0,7.45,0,12.43
			C552.68,186,543.61,184.14,534.29,182.23z"/>
		<path class="st0" d="M64.24,182.98c0-4.28,0-6.91,0-10.62c9.21-1.02,18.21-2.01,27.84-3.07c0,3.38,0,5.92,0,9.44
			C83.05,180.11,74.07,181.48,64.24,182.98z"/>
		<path class="st0" d="M474.37,165.39c9.2,0.84,18.04,1.65,27.46,2.51c0,3.05,0,5.51,0,8.88c-8.42-1.04-16.36-1.94-24.27-3.03
			C473.1,173.14,472.54,170.32,474.37,165.39z"/>
	</g>
</g>
</svg>
