<?xml version="1.0" encoding="utf-8"?>
<!-- Generator: Adobe Illustrator 21.1.0, SVG Export Plug-In . SVG Version: 6.00 Build 0)  -->
<svg version="1.1" id="Layer_1" xmlns="http://www.w3.org/2000/svg" xmlns:xlink="http://www.w3.org/1999/xlink" x="0px" y="0px"
	 viewBox="0 0 600 400" style="enable-background:new 0 0 600 400;" xml:space="preserve">
<style type="text/css">
	.st0{fill:#FFFFFF;}
</style>
<g id="Coastal_Beverage_Company">
	<g>
		<path class="st0" d="M447,238.18c-0.63,0.49-1.16,0.91-1.69,1.32c-3.09,2.33-6.17,4.67-9.29,6.96c-0.35,0.26-0.94,0.37-1.37,0.3
			c-5.49-0.89-10.96-1.86-16.45-2.75c-3.07-0.49-6.15-0.89-9.23-1.29c-2.59-0.33-5.2-0.59-7.79-0.91
			c-3.72-0.45-7.43-1.03-11.17-1.36c-9.12-0.8-18.25-1.59-27.38-2.19c-7.16-0.47-14.33-0.71-21.5-0.94
			c-5.8-0.19-11.61-0.25-17.42-0.28c-4.44-0.03-8.87,0.07-13.31,0.14c-2.52,0.04-5.05,0.1-7.57,0.18c-3.18,0.1-6.37,0.21-9.55,0.36
			c-3.28,0.15-6.56,0.34-9.84,0.54c-2.48,0.15-4.95,0.32-7.42,0.53c-2.96,0.26-5.92,0.59-8.88,0.88c-2.61,0.25-5.22,0.43-7.83,0.74
			c-3.09,0.36-6.17,0.81-9.25,1.23c-3.11,0.42-6.23,0.8-9.34,1.26c-2.55,0.38-5.09,0.82-7.63,1.28c-2.47,0.44-4.94,0.94-7.41,1.4
			c-4.21,0.77-8.42,1.51-12.63,2.31c-5.2,0.99-10.37,2.13-15.59,2.99c-4.37,0.72-8.78,1.42-13.19,1.6
			c-6.57,0.28-12.55-1.77-17.71-5.92c-6.34-5.09-9.93-11.88-11.93-19.61c-1.59-6.17-1.83-12.45-1.48-18.78
			c1.01-17.94,6.19-34.63,14.95-50.24c4.23-7.53,9.3-14.45,15.31-20.68c6.76-7.01,14.41-12.78,23.3-16.83
			c6.03-2.74,12.33-4.52,18.92-5.1c5.05-0.45,10.1-0.53,15.08,0.82c4.15,1.12,7.63,3.35,10.4,6.56c2.55,2.96,3.71,6.61,4.21,10.43
			c1.09,8.31-2.84,14.24-9.17,18.97c-2.35,1.76-4.92,3.18-7.85,3.65c-6.95,1.12-12.82-0.84-17.32-6.4
			c-0.05-0.07-0.08-0.16-0.07-0.14c1.25,0.37,2.54,0.9,3.89,1.11c4.92,0.78,9.8-2.58,10.79-7.47c0.81-3.98-0.37-7.39-3.34-10.18
			c-0.56-0.52-1.14-0.62-1.87-0.55c-4.73,0.47-9.05,2.13-13.16,4.44c-6.29,3.53-11.71,8.15-16.69,13.32
			c-8.07,8.38-14.65,17.82-20.03,28.11c-4.98,9.52-8.69,19.5-10.64,30.1c-0.96,5.2-1.41,10.45-1.09,15.73
			c0.31,5.09,1.61,9.87,4.56,14.15c1.23,1.79,2.84,2.54,4.87,2.84c3.94,0.58,7.86,0.25,11.72-0.48c9.02-1.71,18.01-3.58,27.02-5.32
			c6.15-1.19,12.33-2.28,18.5-3.37c3.18-0.56,6.37-1.06,9.57-1.52c2.12-0.3,4.27-0.48,6.4-0.73c2.39-0.28,4.77-0.62,7.17-0.88
			c2.11-0.23,4.23-0.36,6.35-0.55c2.49-0.23,4.98-0.48,7.48-0.7c1.06-0.09,2.13-0.13,3.19-0.19c3.28-0.19,6.55-0.38,9.83-0.55
			c2.54-0.13,5.08-0.27,7.63-0.35c4.21-0.14,8.42-0.28,12.63-0.35c5.72-0.09,11.44-0.16,17.17-0.16c4.38,0,8.76,0.03,13.13,0.19
			c8.03,0.28,16.06,0.58,24.09,1.02c7.78,0.43,15.56,0.99,23.34,1.59c4.38,0.34,8.75,0.88,13.13,1.32c2.91,0.29,5.84,0.53,8.74,0.88
			c2.73,0.33,5.45,0.8,8.18,1.2c1.77,0.26,3.56,0.44,5.31,0.77c9.13,1.75,18.25,3.54,27.37,5.32
			C446.39,237.94,446.62,238.05,447,238.18z"/>
		<path class="st0" d="M402.62,205.46c-1.52,1.18-2.92,2.29-4.35,3.36c-4.53,3.38-9.11,6.68-14.33,8.98
			c-1.57,0.69-3.18,1.22-4.92,0.9c-1.68-0.3-2.75-1.27-2.84-2.97c-0.15-2.82-0.1-5.65-0.11-8.47c0-0.75,0.09-1.51,0.12-1.99
			c-1.74,1.63-3.57,3.37-5.42,5.08c-2.78,2.57-5.66,5.02-9.17,6.57c-0.81,0.36-1.68,0.57-2.53,0.82c-1.29,0.39-2.46,0.18-3.47-0.76
			c-0.76-0.71-1.54-1.4-2.32-2.09c-2.55-2.26-2.62-5.11-1.89-8.12c0.58-2.39,1.21-4.77,1.81-7.15c0.03-0.14,0.04-0.28,0.08-0.64
			c-2.06,1.45-4.06,2.69-5.87,4.16c-4.68,3.81-9.29,7.72-13.92,11.61c-1.21,1.01-2.39,2.06-3.54,3.14
			c-2.61,2.44-6.01,0.55-6.89-1.81c-0.8-2.17-0.75-4.4-0.31-6.55c0.67-3.29,1.53-6.56,2.53-9.77c1.3-4.15,2.78-8.26,4.25-12.35
			c2.97-8.26,5.99-16.51,9.02-24.76c0.22-0.6,0.17-0.91-0.39-1.31c-4.21-2.97-8.76-5.11-13.89-5.92c-3.13-0.5-6.25-0.38-9.33,0.2
			c-4.61,0.87-9.18,1.93-13.78,2.82c-3.07,0.6-6.18,0.99-9.31,0.75c-4.26-0.33-8.39-1.31-12.22-3.26c-4.51-2.29-7.96-5.7-10.2-10.26
			c-0.45-0.92-0.68-1.95-1.02-2.93c0.08-0.07,0.15-0.14,0.23-0.2c0.89,0.39,1.78,0.78,2.68,1.17c2.43,1.05,4.97,1.68,7.57,2.16
			c3.63,0.67,7.29,0.8,10.95,0.67c2.86-0.1,5.7-0.43,8.55-0.68c1.85-0.16,3.69-0.35,5.54-0.55c2.57-0.28,5.14-0.59,7.72-0.87
			c0.94-0.1,1.89-0.14,2.83-0.2c1.03-0.07,2.07-0.18,3.1-0.18c8.12,0.01,15.4,2.52,21.9,7.36c0.74,0.55,1.47,1.11,2.21,1.67
			c0.07,0.05,0.15,0.09,0.33,0.19c0.86-2.39,1.7-4.76,2.57-7.12c0.3-0.82,0.27-1.52-0.09-2.36c-0.96-2.24-1.77-4.55-1.88-7.02
			c-0.04-0.9,0.12-1.83,0.33-2.71c0.2-0.81,0.87-1.25,1.69-1.17c0.94,0.09,1.94,0.17,2.77,0.57c4.77,2.31,8.31,5.85,10.56,10.69
			c0.84,1.8,0.6,3.57,0.02,5.3c-1.22,3.65-2.57,7.26-3.89,10.88c-0.25,0.69-0.63,1.34-0.87,2.03c-0.09,0.25-0.06,0.74,0.1,0.84
			c1.76,1.12,3.33,2.69,5.54,2.83c1.42,0.09,2.86-0.16,4.34-0.26c-0.1,0.22-0.24,0.65-0.47,1.02c-1.48,2.29-3.75,3.21-6.32,3.52
			c-2.07,0.25-4.09-0.05-6.09-0.88c-5.19,11.79-9.58,23.85-14.16,35.83c0.07,0.05,0.14,0.09,0.21,0.14
			c0.95-0.81,1.92-1.61,2.86-2.43c5.63-4.88,11.53-9.4,17.9-13.29c0.38-0.23,0.7-0.62,0.95-1.01c2.59-4.02,4.74-8.33,7.97-11.92
			c2.66-2.96,5.5-5.69,8.99-7.67c3.81-2.16,7.76-2.29,11.76-0.74c2.4,0.92,3.79,2.82,4.33,5.3c0.12,0.54,0.38,0.69,0.81,0.89
			c1.21,0.55,2.4,1.15,3.59,1.74c0.6,0.3,0.55,0.67,0.19,1.21c-4.62,6.82-8.1,14.2-10.12,22.19c-0.89,3.5-1.33,7.11-1.96,10.68
			c-0.04,0.2,0,0.41,0,0.78c1.03-0.62,1.99-1.15,2.9-1.74c4.7-3.06,9.23-6.32,13.12-10.4c1.63-1.71,3.31-3.37,4.94-5.08
			c0.23-0.24,0.37-0.6,0.45-0.94c1.21-4.61,2.25-9.27,3.63-13.84c1.62-5.4,3.42-10.75,5.32-16.05c1.87-5.21,3.95-10.35,6-15.5
			c0.92-2.33,1.98-4.61,2.96-6.92c0.19-0.44,0.43-0.65,0.95-0.75c4.45-0.81,8.79-0.61,13.03,1.1c0.85,0.34,1.08,0.76,1.03,1.64
			c-0.53,10.52-3.66,20.27-8.52,29.54c-3.49,6.67-7.81,12.78-12.58,18.59c-0.86,1.05-1.26,2.53-1.66,3.87
			c-0.95,3.22-1.84,6.46-2.61,9.72c-0.59,2.48-0.96,5.01-1.43,7.52c-0.19,1-0.39,2-0.62,3.2c1.8-0.61,3.43-1.12,5.03-1.71
			c3.35-1.24,6.47-2.91,9.29-5.13c5.31-4.17,9.46-9.19,11.54-15.73c0.84-2.64,1.1-5.34,0.75-8.28c0.74,0.14,1.41,0.22,2.04,0.4
			c5.79,1.72,8.22,6.41,7.66,12.02c-0.39,3.96-2.65,7.01-5.33,9.76c-5.21,5.34-11.56,9.02-18.24,12.17
			c-3.46,1.63-6.92,3.27-10.67,4.19c-4.4,1.07-8.07-0.24-10.78-3.71c-0.68-0.87-0.77-2.03-0.63-3.14c0.23-1.87,0.46-3.74,0.7-5.61
			C402.15,208.74,402.38,207.16,402.62,205.46z M359.94,208.3c0.63-0.23,0.97-0.34,1.3-0.48c0.68-0.3,1.36-0.59,2.02-0.93
			c5.33-2.77,9.92-6.53,14.22-10.67c0.29-0.28,0.46-0.75,0.57-1.17c1.33-5.13,3.19-10.06,5.43-14.86c0.29-0.63,0.37-1.44,0.3-2.14
			c-0.15-1.4-1.17-2.18-2.56-1.96c-0.82,0.14-1.75,0.4-2.36,0.92c-1.64,1.41-3.3,2.85-4.64,4.53c-4.38,5.53-7.65,11.73-10.56,18.13
			C362.4,202.44,361.24,205.26,359.94,208.3z"/>
		<path class="st0" d="M293.32,200.63c1.89,5.46,5.3,9.44,10.46,12.22c-0.02-7.75-1.22-15.15-2.72-22.72
			c-1.26,0.9-2.4,1.71-3.53,2.53c-7.06,5.11-13.46,10.98-19.53,17.2c-1.89,1.94-3.66,4-5.55,5.93c-0.65,0.66-1.44,1.29-2.3,1.62
			c-2.64,1.02-5.32-0.85-5.34-3.69c-0.02-2.44,0.09-4.88,0.13-7.32c0-0.22,0-0.45,0-0.67c0.07,0.1,0.15,0.2,0.22,0.3
			c-1.36,1.18-2.8,2.3-4.08,3.57c-3.23,3.19-6.55,6.25-10.56,8.46c-1.78,0.98-3.66,1.75-5.74,1.77c-0.36,0-0.79-0.07-1.08-0.27
			c-1.98-1.31-3.71-2.88-5.07-4.84c-0.81-1.17-1.12-2.43-0.98-3.88c0.62-6.49,2.73-12.51,5.53-18.33c0.64-1.34,1.33-2.65,2.12-4.22
			c-4.05,3.09-7.94,6.02-13.09,6.15c-0.77,2.08-1.44,4.21-2.32,6.24c-3.35,7.71-8.1,14.33-15.11,19.16
			c-2.87,1.98-5.98,3.44-9.51,3.79c-5.81,0.58-10.17-1.89-12.71-7.2c-2.04-4.26-2.5-8.8-2.14-13.42c0.67-8.62,3.68-16.38,9.13-23.12
			c4.24-5.25,9.45-9.21,16.04-11.1c3.75-1.07,7.51-1.19,11.16,0.49c0.86,0.39,1.41,1,1.4,1.98c-0.01,0.96-0.5,1.6-1.38,2
			c-7.64,3.47-13.29,9.13-17.59,16.2c-3.1,5.1-5.47,10.54-6.71,16.42c-0.53,2.52-0.74,5.06-0.47,7.63c0.06,0.56,0.23,0.76,0.81,0.76
			c3.27-0.04,6.25-1.07,9.06-2.65c5.37-3.02,9.43-7.41,12.79-12.48c1.24-1.88,2.26-3.91,3.34-5.9c0.13-0.24,0.16-0.74,0-0.92
			c-2.64-3.12-2.83-6.65-1.64-10.34c0.99-3.06,2.93-5.42,5.87-6.86c0.8-0.39,1.6-0.57,2.32,0.1c0.74,0.68,0.7,1.51,0.35,2.38
			c-0.53,1.3-0.67,2.64-0.3,4.02c1,3.67,4.87,5.06,7.99,2.84c2.55-1.8,5.04-3.69,7.62-5.45c1.27-0.87,2.32-1.9,3.33-3.05
			c2.48-2.83,5-5.63,8.18-7.72c2.99-1.96,6.19-3.32,9.85-2.92c3.12,0.34,6.11,1.13,7.99,3.95c0.6,0.89,0.96,1.97,1.28,3.01
			c0.16,0.5,0.39,0.68,0.84,0.87c1.25,0.53,2.48,1.13,3.68,1.76c0.69,0.35,0.82,0.77,0.31,1.54c-5.98,8.95-10.09,18.7-12.16,29.28
			c-0.06,0.33-0.05,0.67-0.07,1.01c0.11,0.07,0.22,0.15,0.32,0.22c0.77-0.85,1.49-1.76,2.31-2.55c4.57-4.43,9.08-8.93,13.79-13.22
			c3.03-2.76,6.37-5.19,9.55-7.79c0.26-0.22,0.51-0.66,0.49-0.98c-0.21-3.03-0.5-6.05-0.72-9.07c-0.03-0.4,0.08-0.94,0.34-1.21
			c3.36-3.55,7.18-6.43,11.92-7.88c1.77-0.54,3.59-0.88,5.45-0.55c1.82,0.32,2.73,1.28,2.98,3.13c0.21,1.58-0.14,3.08-0.7,4.53
			c-1.07,2.78-2.78,5.17-4.62,7.49c-0.28,0.35-0.47,0.9-0.45,1.35c0.34,6.21,0.73,12.42,1.1,18.63c0.13,2.17,0.11,4.36,0.34,6.52
			c0.2,1.9-0.64,3.39-1.59,4.83c-0.84,1.27-1.79,2.49-2.85,3.58c-1.74,1.79-3.72,3.31-5.96,4.47c-0.91,0.47-1.81,1.17-2.87,0.85
			c-1.5-0.45-3-0.98-4.4-1.7c-2.49-1.27-4.67-3.02-6.73-4.91c-0.59-0.53-1.15-1.13-1.57-1.79c-0.18-0.29-0.02-0.84,0.08-1.25
			c0.69-2.93,1.57-5.79,3.32-8.3C293.06,201.01,293.14,200.89,293.32,200.63z M247.35,209.26c0.09,0.08,0.17,0.16,0.26,0.25
			c1.65-0.81,3.34-1.55,4.94-2.46c5.06-2.86,9.46-6.59,13.65-10.59c0.26-0.25,0.42-0.64,0.51-1c1.4-5.55,3.36-10.89,5.88-16.03
			c0.47-0.95,0.5-1.88,0.25-2.85c-0.35-1.34-1.31-2.09-2.65-1.78c-1.1,0.26-2.28,0.68-3.11,1.4c-1.68,1.45-3.3,3.02-4.66,4.77
			c-4.62,5.95-8.12,12.57-11.24,19.39C249.84,203.31,248.62,206.3,247.35,209.26z"/>
		<path class="st0" d="M230.93,258.48c0.44-1.29,1.6-1.61,2.73-0.83c0.17,0.12,0.44,0.11,0.67,0.12c2.04,0.09,3.68,1.44,4.35,3.38
			c0.8,2.33,0.79,4.58-0.49,6.7c-0.52,0.87-1.3,1.58-1.92,2.32c0.82,1.02,1.69,2.05,2.49,3.12c0.3,0.4,0.58,0.9,0.65,1.38
			c0.27,2.1,0.41,4.24-0.56,6.2c-0.56,1.12-1.27,2.29-2.21,3.05c-0.75,0.61-1.95,0.73-2.98,0.91c-0.96,0.17-1.95,0.21-2.92,0.14
			c-0.98-0.07-1.94-0.36-2.92-0.52c-0.19-0.03-0.41,0.05-0.6,0.11c-0.32,0.1-0.63,0.22-0.94,0.33c-0.09-0.33-0.26-0.66-0.26-1
			c0-1.54,0.07-3.09,0.07-4.63c0.01-2.72-0.04-5.45-0.01-8.17c0.04-3.59,0.13-7.18,0.19-10.77c0.01-0.65-0.07-1.31-0.08-1.96
			c-0.01-0.56,0.12-0.99,0.86-0.94c0.5,0.04,1-0.08,1.51-0.09c0.69-0.02,1.37-0.04,1.74,0.76
			C230.37,258.27,230.7,258.35,230.93,258.48z M229.63,272.41c0.07,0.3,0.16,0.52,0.17,0.75c0.05,1.89,0.15,3.78,0.12,5.67
			c-0.04,2.35,0.01,2.46,2.31,2.52c0.03,0,0.06,0,0.09,0c2.11-0.01,3.04-0.77,3.2-2.9c0.09-1.26-0.06-2.55-0.19-3.82
			c-0.03-0.34-0.29-0.77-0.57-0.96C233.25,272.64,231.64,271.9,229.63,272.41z M229.66,268.8c1.25,0,2.36,0.13,3.42-0.05
			c0.62-0.11,1.46-0.6,1.66-1.12c0.39-1.05,0.57-2.24,0.52-3.36c-0.08-1.91-1.45-2.55-3.33-2.9c-0.56-0.1-1.42-0.38-1.62-0.14
			c-0.32,0.39-0.22,1.14-0.29,1.74c-0.01,0.06-0.04,0.11-0.05,0.17C229.87,264.93,229.77,266.73,229.66,268.8z"/>
		<path class="st0" d="M293.86,284.64c0-1.29-0.02-2.52,0-3.76c0.05-2.49,0.15-4.98,0.17-7.47c0.03-3.39,0.04-6.78,0-10.16
			c-0.02-1.39-0.2-2.78-0.33-4.17c-0.12-1.22,0.13-1.71,1.35-1.82c1.52-0.14,3.07-0.13,4.59-0.03c1.09,0.07,2.17,0.4,3.25,0.63
			c1.84,0.4,2.95,1.5,3.14,3.42c0.17,1.68,0.6,3.39,0.43,5.04c-0.19,1.87-0.31,3.85-1.58,5.47c-0.97,1.25-0.44,2.63-0.09,3.92
			c0.64,2.35,1.4,4.66,2.12,6.99c0.45,1.47,0.13,1.92-1.38,1.92c-1.79,0-1.98-0.04-2.46-1.76c-0.69-2.44-1.29-4.91-1.83-7.39
			c-0.32-1.49-0.23-1.5-1.74-1.35c-0.41,0.04-0.83,0.04-1.24-0.02c-0.79-0.11-1.01,0.35-1.03,0.98c-0.03,1.4-0.03,2.8-0.03,4.19
			c0.01,1.51,0.09,3.03,0,4.54c-0.02,0.29-0.59,0.71-0.97,0.79C295.57,284.73,294.87,284.64,293.86,284.64z M302.96,266.2
			c-0.03,0-0.05,0-0.08,0c0-0.89,0.08-1.79-0.02-2.67c-0.1-0.95-0.19-2.05-1.34-2.37c-0.98-0.28-2.02-0.43-3.04-0.51
			c-0.99-0.08-1.23,0.19-1.24,1.17c-0.03,2.58-0.05,5.16-0.05,7.74c0,1.2,0.03,1.21,1.24,1.22c0.51,0,1.01,0.02,1.52-0.02
			c1.77-0.15,3.46-0.88,3.02-3.29C302.9,267.04,302.96,266.61,302.96,266.2z"/>
		<path class="st0" d="M331.18,281.94c-0.74-0.12-0.95-0.65-0.92-1.51c0.03-0.84-0.27-1.69-0.27-2.53c0.01-2.62,0.1-5.24,0.13-7.86
			c0.02-1.5-0.16-3.02-0.02-4.51c0.16-1.82,0.48-3.63,0.88-5.42c0.11-0.49,0.79-0.83,1.15-1.29c1.65-2.14,3.69-2,6.06-1.41
			c1.48,0.37,2.27,1.25,3.08,2.29c0.85,1.1,1.26,2.33,1.17,3.74c-0.04,0.53,0.07,1.07,0.08,1.6c0,0.23-0.06,0.65-0.13,0.66
			c-0.92,0.1-1.87,0.26-2.78,0.16c-0.67-0.07-0.62-0.83-0.53-1.34c0.22-1.25-0.31-2.26-0.88-3.28c-0.36-0.64-0.87-0.96-1.61-0.85
			c-0.03,0-0.06,0.01-0.09,0.01c-2.81,0.18-3.33,0.81-3.31,3.65c0.02,3.42-0.1,6.85-0.03,10.27c0.03,1.74,0.27,3.49,0.54,5.22
			c0.24,1.57,1.42,2.21,3.33,2c1.13-0.12,1.93-1.15,1.92-2.52c-0.01-1.64-0.05-3.27-0.08-4.91c-0.01-0.29-0.07-0.58-0.11-0.92
			c-0.25-0.02-0.45-0.04-0.65-0.04c-1.54,0.03-1.54,0.03-1.62-1.56c-0.03-0.62-0.05-1.25-0.04-1.88c0.01-0.58,0.32-0.88,0.92-0.82
			c1.33,0.14,2.66,0.26,3.99,0.44c0.8,0.11,1.33,0.6,1.36,1.42c0.06,1.81,0.1,3.63,0.07,5.44c-0.02,1.24-0.11,2.5-0.31,3.72
			c-0.11,0.66-0.4,1.38-0.84,1.88c-0.76,0.87-1.57,1.87-2.57,2.3c-1.81,0.76-3.79,1.01-5.68,0.04c-0.55-0.28-1.09-0.63-1.55-1.04
			C331.53,282.88,331.44,282.45,331.18,281.94z"/>
		<path class="st0" d="M325.76,282.94c0.02,1.53-0.09,1.37-1.47,1.56c-1.38,0.19-1.47-0.47-1.64-1.45c-0.23-1.34-0.6-2.65-0.87-3.99
			c-0.17-0.82-0.56-1.09-1.43-1.04c-1.26,0.06-2.53-0.1-3.8-0.09c-0.22,0-0.6,0.33-0.62,0.54c-0.12,1-0.16,2.01-0.21,3.02
			c-0.06,1.41-0.83,2.51-2.04,2.97c-0.45,0.17-0.62,0.04-0.91-0.35c-0.92-1.26-0.51-2.52-0.25-3.85c0.6-3.07,1.1-6.15,1.63-9.23
			c0.21-1.19,0.41-2.38,0.6-3.57c0.46-2.93,0.93-5.87,1.37-8.81c0.2-1.31,0.47-1.5,1.74-1.41c0.8,0.05,1.61-0.08,2.41-0.14
			c0.6-0.04,1.06,0.1,1.18,0.77c0.74,4,1.76,7.97,2.14,12c0.39,4.22,1.61,8.26,2.11,12.43
			C325.75,282.58,325.75,282.85,325.76,282.94z M318.92,263.02c-0.09-0.02-0.19-0.04-0.28-0.06c-0.59,3.91-1.18,7.82-1.77,11.72
			c1.58,0.17,2.98,0.31,4.46,0.47C320.54,271.2,319.73,267.11,318.92,263.02z"/>
		<path class="st0" d="M267.13,280.37c0.3-1.76,0.61-3.51,0.9-5.27c0.36-2.15,0.73-4.31,1.07-6.47c0.4-2.56,0.8-5.12,1.16-7.69
			c0.1-0.7,0.15-1.41,0.12-2.12c-0.05-1.07,0.66-1.55,1.48-1.71c0.7-0.14,1.48,0,2.2,0.16c0.15,0.03,0.28,0.7,0.22,1.04
			c-0.35,2.05-0.79,4.1-1.15,6.15c-0.29,1.69-0.47,3.4-0.78,5.08c-0.41,2.2-0.91,4.39-1.37,6.58c-0.01,0.06-0.03,0.13-0.07,0.16
			c-0.77,0.74-0.53,1.57-0.38,2.49c0.11,0.7-0.15,1.49-0.34,2.21c-0.28,1.03-0.61,2.05-1.03,3.04c-0.11,0.26-0.61,0.48-0.94,0.49
			c-1.22,0.03-2.44,0-3.66-0.09c-0.25-0.02-0.64-0.35-0.67-0.58c-0.14-1.15-0.11-2.33-0.27-3.47c-0.37-2.62-0.81-5.24-1.25-7.85
			c-0.06-0.38-0.27-0.73-0.34-1.1c-0.48-2.82-0.93-5.66-1.44-8.48c-0.12-0.68-0.49-1.32-0.69-1.99c-0.23-0.78-0.43-1.58-0.59-2.38
			c-0.13-0.65,0.61-1.46,1.32-1.5c1.45-0.1,2.33,0.69,2.54,2.14c0.51,3.5,1.01,7,1.61,10.49c0.38,2.2,0.94,4.36,1.39,6.55
			c0.28,1.37,0.5,2.75,0.74,4.13C266.99,280.37,267.06,280.37,267.13,280.37z"/>
		<path class="st0" d="M282.6,260.72c-0.06,1.6-0.12,3.13-0.17,4.67c-0.03,0.95-0.04,1.9-0.09,2.85c-0.03,0.64,0.25,0.93,0.88,0.91
			c0.54-0.01,1.08-0.08,1.61-0.02c0.63,0.07,1.24,0.25,1.84,0.49c1.17-0.43,1.45-0.27,1.59,1.09c0.02,0.18,0.04,0.36,0.06,0.53
			c0.11,0.84-0.05,1.29-1.1,1.28c-1.5-0.02-3.01,0.17-4.5,0.34c-0.22,0.03-0.57,0.44-0.57,0.68c-0.01,2.35,0.04,4.7,0.06,7.05
			c0.01,0.52,0.17,0.72,0.76,0.66c1.05-0.1,2.12-0.13,3.17-0.1c0.63,0.02,1.26,0.22,1.89,0.29c0.4,0.04,0.82,0.02,1.22-0.03
			c0.55-0.06,0.84,0.04,0.78,0.7c-0.05,0.61,0.06,1.23,0.06,1.85c0,0.58-0.34,0.74-0.89,0.69c-0.76-0.08-1.53-0.15-2.29-0.15
			c-2.4-0.01-4.81,0-7.21,0.02c-0.68,0.01-0.8-0.44-0.81-0.93c-0.05-2.16-0.1-4.33-0.09-6.49c0.02-2.29,0.14-4.58,0.16-6.86
			c0.03-2.2,0.03-4.4-0.03-6.6c-0.04-1.65-0.2-3.29-0.29-4.94c-0.05-0.88,0.52-1.54,1.4-1.54c0.68,0,1.36,0.15,2.04,0.16
			c1.69,0.05,3.39,0.08,5.08,0.07c0.7-0.01,1.41-0.19,2.11-0.21c0.88-0.03,1.19,0.33,1.13,1.17c-0.14,1.88-0.2,2.03-2.12,2.2
			c-1.71,0.15-3.44,0.1-5.16,0.14C283,260.68,282.89,260.7,282.6,260.72z M288.13,283.02c0.01-0.14,0.02-0.28,0.04-0.42
			c-0.28-0.06-0.58-0.18-0.84-0.13c-0.12,0.02-0.17,0.39-0.25,0.61C287.43,283.06,287.78,283.04,288.13,283.02z"/>
		<path class="st0" d="M358.05,260.94c-0.68-0.14-1.18-0.33-1.67-0.32c-1.48,0.03-2.97,0.16-4.45,0.21c-1.3,0.04-1.49,0.29-1.49,1.6
			c0,1.9-0.09,3.81-0.17,5.71c-0.05,1.15,0.06,1.27,1.19,1.23c1.31-0.04,2.62-0.02,3.93-0.03c0.67-0.01,0.95,0.33,0.97,0.99
			c0.06,2.14,0.07,2.13-2.06,2.23c-1.04,0.05-2.08,0.09-3.12,0.14c-0.63,0.03-0.95,0.26-0.92,0.99c0.1,2.14,0.12,4.29,0.19,6.43
			c0.04,0.99,0.32,1.26,1.32,1.26c1.66-0.01,3.33-0.09,4.99-0.1c1.49-0.01,2.44,1.66,1.67,2.93c-0.09,0.14-0.32,0.27-0.49,0.27
			c-1.32,0.03-2.64-0.01-3.96,0.05c-1.86,0.08-3.72,0.4-5.58-0.09c-1.16-0.3-1.44-0.54-1.4-1.74c0.02-0.68,0.08-1.37,0.18-2.04
			c0.22-1.54,0.01-3.05-0.12-4.59c-0.18-2.06,0.1-4.16,0.14-6.24c0.02-1.45-0.01-2.9-0.05-4.35c-0.07-2.41-0.16-4.82-0.28-7.23
			c-0.04-0.74,0.21-1.12,0.96-1.17c0.41-0.03,0.83-0.12,1.24-0.11c2.46,0.06,4.93,0.14,7.39,0.21c0.15,0,0.3,0,0.45,0
			c1.51,0.1,1.59,0.19,1.45,1.71c-0.06,0.65-0.12,1.3-0.2,1.94C358.14,260.91,358,260.99,358.05,260.94z"/>
		<path class="st0" d="M253.52,281.31c-0.03,0.4-0.05,0.69-0.08,1.25c0.36-0.33,0.52-0.53,0.73-0.67c0.22-0.15,0.49-0.36,0.72-0.35
			c0.18,0.01,0.46,0.32,0.48,0.52c0.08,0.73,0.11,1.48,0.07,2.22c-0.01,0.12-0.46,0.3-0.71,0.3c-0.54,0-1.09-0.16-1.63-0.15
			c-2.64,0.05-5.28,0.12-7.92,0.19c-0.65,0.02-0.88-0.27-0.86-0.93c0.1-3.2,0.22-6.4,0.22-9.59c0-2.94-0.17-5.88-0.21-8.82
			c-0.03-2.43,0.03-4.87,0.01-7.3c-0.01-0.75,0.23-1,0.99-0.94c1.56,0.14,3.13,0.25,4.7,0.28c1.18,0.02,2.37-0.22,3.55-0.17
			c0.61,0.02,1.62,0.31,1.72,0.68c0.22,0.79-0.02,1.71-0.13,2.58c-0.01,0.1-0.47,0.25-0.68,0.19c-0.74-0.19-1.35-0.38-2.21-0.02
			c-0.86,0.36-1.99,0.07-3,0.06c-0.3,0-0.65-0.11-0.88,0.01c-0.32,0.16-0.77,0.5-0.77,0.76c-0.03,2.19,0.03,4.39,0.06,6.58
			c0.01,0.86,0.61,1.05,1.3,1.13c1.5,0.16,3,0.32,4.65,0.5c0,0.73-0.01,1.47,0,2.2c0.01,0.59-0.24,0.87-0.84,0.88
			c-1.34,0.03-2.68,0.1-4.01,0.12c-1.05,0.02-1.24,0.14-1.27,1.23c-0.05,1.57-0.07,3.15-0.04,4.73c0.03,2.09,0.06,2.05,2.17,2.15
			C250.94,281,252.23,281.18,253.52,281.31z"/>
		<path class="st0" d="M390.89,270.92c-0.12,1.75,0.14,3.52-0.98,5.06c-1.38,1.89-2.56,3.04-4.83,2.6c-2.1-0.4-3.48-2.1-3.65-4.46
			c-0.24-3.32-0.25-6.65-0.41-9.97c-0.1-2.15,0.7-3.85,2.27-5.27c1.33-1.2,2.79-1.21,4.31-0.57c1.45,0.61,2.49,1.61,2.62,3.28
			C390.46,264.71,390.67,267.82,390.89,270.92z M388.39,268.84c-0.14-2.26-0.27-4.78-0.46-7.3c-0.09-1.15-1.61-2.24-2.38-1.73
			c-1.23,0.81-2.27,1.76-2.05,3.46c0.05,0.35-0.02,0.71-0.06,1.07c-0.31,2.73-0.35,5.46,0.15,8.16c0.24,1.28,0.82,2.5,1.29,3.72
			c0.08,0.21,0.36,0.45,0.57,0.48c0.77,0.11,2.52-1.27,2.58-2.08C388.18,272.79,388.26,270.95,388.39,268.84z"/>
		<path class="st0" d="M278.98,117.54c-1.14-0.24-2.01,0.16-2.73,0.88c-0.58,0.58-0.76,1.36-0.35,2.03
			c0.23,0.38,0.87,0.53,1.36,0.73c0.29,0.12,0.65,0.07,0.95,0.18c0.25,0.09,0.65,0.38,0.63,0.47c-0.1,0.3-0.29,0.67-0.56,0.79
			c-1,0.47-2.06,0.84-3.08,1.28c-0.82,0.35-1.13,0.94-0.89,1.58c0.28,0.75,1.06,1.11,1.88,0.83c2.26-0.76,4.31-1.86,6.06-3.51
			c0.34-0.32,0.8-0.53,1.12-0.87c0.56-0.59,1-1.29,1.59-1.84c0.63-0.59,1.32-1.2,2.09-1.55c0.73-0.34,1.43,0.5,1.04,1.4
			c-0.72,1.65-0.35,3.32-0.36,4.99c0,0.03,0.02,0.06,0.01,0.09c-0.07,0.31-0.04,0.71-0.23,0.9c-0.64,0.67-1.28,1.38-2.05,1.88
			c-0.62,0.39-2.19-0.41-2.65-1.23c-0.1-0.17-0.07-0.5,0.04-0.68c0.21-0.35,0.52-0.64,0.83-1.01c0.32,0.34,0.53,0.55,0.72,0.76
			s0.37,0.44,0.81,0.64c0-1.03,0-2.05,0-3.08c-0.24,0.01-0.55-0.06-0.72,0.05c-1.51,1.02-3.03,2.05-4.5,3.14
			c-1.77,1.31-3.78,1.89-5.93,2.05c-1.11,0.08-2.51-1.73-2.43-3.05c0.1-1.49,0.72-2.68,2.05-3.42c0.41-0.23,0.46-0.46,0.25-0.86
			c-0.23-0.44-0.49-0.89-0.59-1.37c-0.32-1.5,0.67-2.55,1.71-3.16c1.17-0.68,2.62-1.05,3.99-1.2c1.59-0.18,2.65,1.11,2.23,2.48
			c-0.14,0.46-0.54,0.96-0.96,1.17c-0.82,0.42-1.39-0.07-1.29-1C279.02,117.88,278.99,117.73,278.98,117.54z"/>
		<path class="st0" d="M370.24,268.29c0.15,2.34,0.27,4.35,0.42,6.36c0.06,0.74,1.87,2.14,2.62,2.08c1.02-0.08,2.16-1.25,2.22-2.33
			c0.04-0.59-0.01-1.19,0.03-1.79c0.05-0.81,0.57-1.37,1.2-1.28c0.75,0.11,0.91,0.66,0.88,1.32c-0.08,1.67,0.22,3.41-0.93,4.87
			c-0.23,0.29-0.54,0.65-0.85,0.69c-1.4,0.2-2.82,0.36-4.24,0.41c-1.06,0.03-1.65-0.59-1.97-1.58c-0.22-0.66-0.58-1.26-0.86-1.9
			c-0.13-0.29-0.28-0.61-0.29-0.92c-0.08-2.4-0.19-4.8-0.17-7.21c0.01-1.6,0.1-3.22,0.37-4.79c0.16-0.93,0.59-1.9,1.15-2.66
			c1.21-1.62,2.66-2,4.39-1.4c1.89,0.66,3.17,2.26,3.23,4.07c0.02,0.42,0.09,0.86-0.02,1.24c-0.13,0.42-0.48,1.11-0.68,1.09
			c-0.46-0.04-0.98-0.36-1.28-0.73c-0.25-0.31-0.26-0.84-0.31-1.28c-0.15-1.16-0.81-1.92-1.87-2.28c-0.32-0.11-0.92-0.07-1.1,0.15
			c-0.52,0.65-1.15,1.37-1.29,2.15C370.53,264.57,370.41,266.59,370.24,268.29z"/>
		<path class="st0" d="M317.54,123.76c-0.67,0-1.3-0.02-1.94,0c-1.03,0.03-1.83-0.46-2.04-1.44c-0.3-1.38-0.1-2.69,0.82-3.85
			c0.72-0.91,1.64-1.48,2.71-1.84c1.34-0.45,3.3,1.13,3.36,2.7c0.09,2.37-0.59,4.56-1.78,6.57c-1.07,1.81-3.22,2.3-5,1.18
			c-0.37-0.23-0.53-0.85-0.69-1.33c-0.04-0.11,0.27-0.45,0.46-0.5c0.51-0.11,1.1-0.23,1.39,0.41c0.3,0.67,0.79,0.62,1.33,0.38
			C317.17,125.62,317.47,124.77,317.54,123.76z M318.98,120.37c-0.17-0.42-0.38-1.07-0.67-1.66c-0.36-0.72-0.99-0.94-1.4-0.49
			c-0.74,0.81-1.43,1.67-1.32,2.88c0.05,0.6,0.07,1.22,0.85,1.36c0.63,0.11,1.57-0.5,1.81-1.07
			C318.37,121.08,318.64,120.83,318.98,120.37z"/>
		<path class="st0" d="M324.78,120.87c0.22-0.07,0.44-0.14,0.65-0.23c1.39-0.57,3.41,0.28,3.38,2.6c-0.02,1.45-0.47,2.62-1.58,3.6
			c-0.83,0.73-2.91,1.13-3.91,0.59c-1.14-0.62-1.55-1.8-1.15-3.31c0.04-0.17,0.12-0.38,0.06-0.52c-0.48-1.2-0.04-2.27,0.48-3.31
			c0.2-0.4,0.66-0.67,0.96-1.03c0.22-0.27,0.44-0.57,0.54-0.89c0.22-0.8,0.62-1.3,1.52-1.32c0.34-0.01,0.68-0.15,1.02-0.24
			c1-0.28,2.53,0.53,2.77,1.52c0.07,0.29-0.03,0.85-0.21,0.94c-0.31,0.15-0.78,0.09-1.14-0.01c-0.22-0.06-0.37-0.37-0.55-0.57
			c-0.68-0.77-1.38-0.8-1.97,0.03c-0.43,0.61-0.73,1.31-1.09,1.98C324.63,120.75,324.71,120.81,324.78,120.87z M327.09,122.76
			c-0.13-0.31-0.18-0.76-0.41-0.89c-0.28-0.16-0.77-0.16-1.08-0.02c-1.1,0.5-1.95,2.27-1.74,3.46c0.11,0.63,0.47,0.98,1.12,1.07
			c0.65,0.09,1.13-0.1,1.32-0.75C326.58,124.7,326.81,123.76,327.09,122.76z"/>
		<path class="st0" d="M394.46,283.63c-0.35,0.14-0.7,0.4-1.06,0.42c-5.88,0.18-11.76,0.34-17.65,0.49
			c-2.14,0.05-4.28,0.07-6.42,0.06c-0.3,0-0.59-0.27-0.89-0.42c0.25-0.31,0.45-0.84,0.74-0.9c0.98-0.21,1.99-0.34,3-0.36
			c4.52-0.08,9.03-0.15,13.55-0.16c2.56-0.01,5.11,0.09,7.67,0.17c0.34,0.01,0.68,0.2,1.03,0.3
			C394.44,283.36,394.45,283.5,394.46,283.63z"/>
		<path class="st0" d="M339.08,120.05c-0.12,2.4-0.42,4.46-1.9,6.17c-1.13,1.31-2.65,1.4-4.16,1.32c-0.97-0.05-1.55-1.31-1.44-2.54
			c0.04-0.48-0.11-0.97-0.13-1.45c-0.02-0.48-0.07-0.99,0.05-1.45c0.38-1.56,1-3.02,2.24-4.12c1.02-0.9,2.27-1.14,3.56-1.05
			c0.77,0.05,1.27,0.64,1.46,1.39C338.94,118.96,339.01,119.65,339.08,120.05z M337.53,119.55c-0.31-0.49-0.52-1.2-0.97-1.42
			c-0.65-0.31-1.23,0.2-1.58,0.81c-0.29,0.51-0.61,1.02-0.82,1.56c-0.61,1.55-1.15,3.11-0.88,4.83c0.17,1.06,0.8,1.39,1.65,0.79
			c0.44-0.31,0.96-0.73,1.12-1.21C336.6,123.21,337.02,121.45,337.53,119.55z"/>
		<path class="st0" d="M294.24,119.87c0.18,0.08,0.35,0.13,0.49,0.23c0.1,0.07,0.23,0.21,0.22,0.31c0,0.1-0.16,0.25-0.26,0.26
			c-0.84,0.08-1.22,0.7-1.5,1.35c-0.49,1.15-0.92,2.33-1.4,3.59c2.02-0.41,3.57-2.11,5.64-1.8c0.06,0.14,0.13,0.28,0.19,0.42
			c-0.34,0.27-0.65,0.61-1.04,0.81c-1.48,0.74-2.96,1.48-4.48,2.13c-0.46,0.19-1.17,0.27-1.55,0.04c-0.64-0.39-1.04-1.13-0.84-1.95
			c0.31-1.28,0.72-2.54,1.02-3.82c0.1-0.43-0.02-0.91-0.03-1.37c-0.01-0.27-0.12-0.68,0.02-0.8c1.16-1,1.46-2.4,1.89-3.76
			c0.07-0.22,0.43-0.5,0.64-0.49c1.37,0.07,2.14,1.39,1.6,2.64c-0.2,0.46-0.38,0.93-0.53,1.41
			C294.27,119.3,294.28,119.58,294.24,119.87z"/>
		<path class="st0" d="M306.39,127.29c0.46-2.02,0.9-3.95,1.36-5.98c-0.61,0.1-1.14,0.25-1.67,0.26c-0.28,0.01-0.71-0.16-0.8-0.37
			c-0.1-0.23,0.03-0.7,0.22-0.87c1.25-1.12,2.53-2.21,3.84-3.26c0.21-0.17,0.82-0.23,0.86-0.15c0.28,0.58,0.73,1.25,0.63,1.81
			c-0.27,1.65-0.76,3.27-1.16,4.9c-0.23,0.93-0.4,1.89-0.67,2.8c-0.27,0.9-0.9,1.26-1.84,0.93
			C306.99,127.3,306.8,127.32,306.39,127.29z"/>
		<path class="st0" d="M393.32,277.34c0.08-0.95,0.8-0.83,1.4-0.77c0.6,0.06,1.32,0.08,1.19,1.04c-0.09,0.7-0.69,1.11-1.51,1.03
			C393.78,278.57,393.26,277.95,393.32,277.34z"/>
		<path class="st0" d="M299.9,127.27c-0.02,0.66-0.14,1.19-0.98,1.13c-0.79-0.06-1.36-0.57-1.3-1.26c0.08-0.78,0.69-0.93,1.29-0.91
			C299.52,126.26,300.02,126.53,299.9,127.27z"/>
	</g>
</g>
</svg>
