<?xml version="1.0" encoding="utf-8"?>
<!-- Generator: Adobe Illustrator 21.1.0, SVG Export Plug-In . SVG Version: 6.00 Build 0)  -->
<svg version="1.1" id="Layer_1" xmlns="http://www.w3.org/2000/svg" xmlns:xlink="http://www.w3.org/1999/xlink" x="0px" y="0px"
	 viewBox="0 0 600 400" style="enable-background:new 0 0 600 400;" xml:space="preserve">
<style type="text/css"> 
	.st2{fill:#FFFFFF;} 
</style>  
<g id="Cadwalader">
	<g>
		<path id="path73" class="st2" d="M28.97,182.71c-2.6,0-5.45,0.45-7.7,1.53c-6.36,3.17-10.31,9.01-10.31,15.15
			c0,7.84,7.55,16.27,17.55,16.27c3.35,0,7.15-0.86,9.69-2.7l2.3,2.3h1.28v-9.69h-1.58c-1.62,5.11-4.89,9.21-11.89,8.93
			c-4.28-0.19-6.91-2.23-8.01-5.25c-1.1-3.07-1.38-6.75-1.38-9.44c0-3.83-0.21-9.3,2.45-12.7c2.02-2.55,3.91-3.21,7.55-3.21
			c5.55,0,9.85,3.27,10.66,8.42h1.68v-9.13h-1.28l-2.24,1.99C35.26,183.46,32.15,182.71,28.97,182.71z M84.48,182.71l-13.57,31.07
			h-4.54v1.17h12.09v-1.17h-5.82l3.52-8.37h12.19l3.47,8.37h-5.87v1.17h17.96v-1.17h-4.49l-13.01-31.07H84.48z M266.61,182.71
			l-13.52,31.07h-4.59v1.17h12.04v-1.17h-5.77l3.52-8.37h12.24l3.47,8.37h-5.87v1.17h17.96v-1.17h-4.54l-12.96-31.07H266.61z
			 M384.21,182.71l-13.62,31.07h-4.54v1.17h12.09v-1.17h-5.82l3.47-8.37h12.3l3.47,8.37h-5.92v1.17h17.96v-1.17h-4.49l-13.01-31.07
			H384.21z M127.08,183.42v1.17h5.61v29.18h-5.61v1.17h13.72c4.68,0,9.6,0.09,13.88-1.89c5.95-2.74,9.03-8.4,9.03-13.88
			c0-5.67-2.83-10.65-8.72-13.67c-2.95-1.51-6.05-2.09-12.3-2.09H127.08z M182.69,183.42v1.17h4.29l13.67,31.07h1.79l6.28-14.49
			l6.43,14.49h1.73l13.37-31.07h4.18v-1.17h-10.51v1.17h4.59l-10,22.81l-5.51-12.35l4.49-10.46h3.78v-1.17H182.69z M310.75,183.42
			v1.17h5.66v29.18h-5.66v1.17h31.48l0.56-10.61H341c-0.23,5.43-2.73,9.44-9.9,9.44h-7.5V184.6h5.92v-1.17H310.75z M427.02,183.42
			v1.17h5.56v29.18h-5.56v1.17h13.67c4.68,0,9.55,0.09,13.83-1.89c5.95-2.74,9.03-8.4,9.03-13.88c0-5.67-2.83-10.65-8.72-13.67
			c-2.95-1.51-6-2.09-12.24-2.09H427.02z M490.02,183.42v1.17h5.66v29.18h-5.66v1.17h32.24l0.51-10.15h-1.58
			c-1.21,5.34-2.81,8.98-10.2,8.98h-8.01v-14.44c6.13-0.14,8.1,0.98,8.62,6.22h1.58V192.4h-1.58c-0.29,5.05-3.19,5.77-8.62,5.77
			V184.6H509c1.85,0,3.51,0.02,4.9,0.36c2.89,0.66,5.07,2.4,6.22,6.94h1.63l-0.36-8.47H490.02z M552.01,183.42v1.17h5.66v29.18
			h-5.66v1.17h18.47v-1.17h-5.61v-15.05h3.11c1.73,0,3.59,0.55,5.15,1.68c1.5,1.04,2.3,3.99,2.3,7.91c0,4.82,3.05,7.19,8.78,7.19
			c1.62,0,3.23-0.23,4.8-0.56v-1.12c-5.43,0.85-5.61-1.05-5.61-2.7c0-7.7-1.97-11.67-10.82-12.81v-0.05
			c5.26-0.48,11.94-2.36,11.94-7.7c0-6.57-7.34-7.14-13.52-7.14H552.01z M139.94,184.6c6.53,0,10.6,0.25,12.91,2.14
			c1.68,1.37,3.11,5.23,3.11,11.28c0,3.02-0.21,6.78-1.48,9.95c-2.43,6.19-7.32,5.82-14.54,5.82V184.6z M194.17,184.6h7.35
			l6.33,14.49l-3.52,8.32L194.17,184.6z M208.15,184.6h7.81l-3.72,8.11L208.15,184.6z M439.82,184.6c6.53,0,10.54,0.25,12.86,2.14
			c1.68,1.37,3.11,5.23,3.11,11.28c0,3.02-0.16,6.78-1.43,9.95c-2.43,6.19-7.31,5.82-14.54,5.82V184.6z M564.87,184.6h4.9
			c5.09,0,6.94,1.34,6.94,6.63c0,4.25-2.06,6.33-7.14,6.33h-4.69V184.6z M82.49,191.08l5.36,13.16H76.77L82.49,191.08z
			 M264.68,191.08l5.31,13.16h-11.02L264.68,191.08z M382.17,191.08l5.31,13.16h-11.02L382.17,191.08z"/>
	</g>
</g> 
</svg>
