<?xml version="1.0" encoding="utf-8"?>
<!-- Generator: Adobe Illustrator 21.1.0, SVG Export Plug-In . SVG Version: 6.00 Build 0)  -->
<svg version="1.1" id="Layer_1" xmlns="http://www.w3.org/2000/svg" xmlns:xlink="http://www.w3.org/1999/xlink" x="0px" y="0px"
	 viewBox="0 0 600 400" style="enable-background:new 0 0 600 400;" xml:space="preserve">
<style type="text/css">
	.st0{fill:#FFFFFF;}
</style>
<g id="Fierce">
	<g>
		<g>
			<path class="st0" d="M310.19,201.07c0.05,0.91,0.28,1.65,0.69,2.22c0.77,1.07,2.13,1.6,4.08,1.6c0.87,0,1.67-0.12,2.39-0.35
				c1.39-0.45,2.08-1.26,2.08-2.43c0-0.88-0.29-1.5-0.88-1.87c-0.6-0.37-1.53-0.68-2.8-0.95l-2.34-0.49
				c-1.53-0.32-2.61-0.68-3.25-1.06c-1.1-0.67-1.65-1.68-1.65-3.01c0-1.45,0.54-2.63,1.62-3.56c1.08-0.93,2.61-1.39,4.58-1.39
				c1.82,0,3.37,0.41,4.64,1.22c1.27,0.81,1.91,2.12,1.91,3.91h-2.27c-0.12-0.86-0.36-1.52-0.74-1.98c-0.71-0.84-1.91-1.26-3.6-1.26
				c-1.37,0-2.35,0.27-2.95,0.81c-0.6,0.54-0.9,1.17-0.9,1.88c0,0.79,0.35,1.37,1.06,1.73c0.46,0.23,1.51,0.53,3.14,0.88l2.42,0.52
				c1.17,0.25,2.07,0.59,2.71,1.02c1.1,0.75,1.65,1.84,1.65,3.28c0,1.78-0.7,3.06-2.1,3.82c-1.4,0.77-3.03,1.15-4.89,1.15
				c-2.16,0-3.86-0.51-5.08-1.53c-1.22-1.02-1.82-2.39-1.8-4.13H310.19z"/>
			<path class="st0" d="M338.16,190.16v1.92h-6.01v14.18h-2.44v-14.18h-6.01v-1.92H338.16z"/>
			<path class="st0" d="M340.67,190.16h8.11c1.33,0,2.44,0.18,3.3,0.54c1.64,0.69,2.47,1.95,2.47,3.8c0,0.96-0.22,1.75-0.66,2.37
				c-0.44,0.61-1.06,1.11-1.85,1.48c0.7,0.26,1.22,0.59,1.57,1.01c0.35,0.42,0.55,1.09,0.59,2.03l0.09,2.16
				c0.02,0.61,0.08,1.07,0.17,1.37c0.15,0.51,0.4,0.84,0.78,0.99v0.36h-2.96c-0.08-0.14-0.15-0.32-0.19-0.54
				c-0.05-0.22-0.09-0.64-0.12-1.27l-0.15-2.68c-0.06-1.05-0.48-1.76-1.26-2.11c-0.45-0.2-1.15-0.3-2.11-0.3h-5.34v6.9h-2.42V190.16
				z M348.52,197.54c1.1,0,1.97-0.2,2.62-0.61c0.64-0.41,0.96-1.15,0.96-2.21c0-1.15-0.45-1.93-1.35-2.34
				c-0.48-0.22-1.12-0.33-1.92-0.33h-5.74v5.5H348.52z"/>
			<path class="st0" d="M363.55,190.16h2.73l6.47,16.1h-2.65l-1.86-4.82h-7l-1.93,4.82h-2.48L363.55,190.16z M367.55,199.66
				l-2.75-7.11l-2.85,7.11H367.55z"/>
			<path class="st0" d="M386.06,190.16v1.92h-6.01v14.18h-2.44v-14.18h-6.01v-1.92H386.06z"/>
			<path class="st0" d="M388.51,190.16h12.94v1.97h-10.59v4.89h9.79v1.86h-9.79v5.46h10.77v1.92h-13.13V190.16z"/>
			<path class="st0" d="M416.74,190.62c1.75,0.84,2.82,2.31,3.21,4.42h-2.39c-0.28-1.18-0.88-2.03-1.77-2.57
				c-0.9-0.54-2.03-0.81-3.39-0.81c-1.62,0-2.98,0.56-4.09,1.68c-1.1,1.12-1.66,2.78-1.66,5c0,1.91,0.46,3.47,1.37,4.67
				c0.91,1.2,2.4,1.8,4.46,1.8c1.58,0,2.89-0.42,3.92-1.27c1.03-0.84,1.57-2.21,1.59-4.09h-5.59v-1.81h7.83v8.61h-1.55l-0.58-2.07
				c-0.8,0.81-1.52,1.37-2.14,1.69c-1.04,0.54-2.37,0.81-3.98,0.81c-2.08,0-3.87-0.62-5.36-1.85c-1.63-1.55-2.45-3.67-2.45-6.38
				c0-2.7,0.8-4.84,2.39-6.43c1.52-1.52,3.48-2.28,5.89-2.28C414.11,189.75,415.54,190.04,416.74,190.62z"/>
			<path class="st0" d="M422.84,190.16h2.82l5.13,7.74l5.13-7.74h2.84l-6.76,9.61v6.49h-2.42v-6.49L422.84,190.16z"/>
			<path class="st0" d="M445.08,199.01v-1.84h5.29v-4.81h2.08v4.81h5.29v1.84h-5.29v4.8h-2.08v-4.8H445.08z"/>
			<path class="st0" d="M481.32,191.34c1.23,1.07,1.92,2.29,2.05,3.66h-2.36c-0.26-1.04-0.79-1.86-1.57-2.47
				c-0.78-0.61-1.88-0.91-3.3-0.91c-1.73,0-3.12,0.56-4.18,1.67c-1.06,1.11-1.59,2.82-1.59,5.13c0,1.89,0.48,3.42,1.44,4.59
				c0.96,1.17,2.39,1.76,4.29,1.76c1.75,0,3.08-0.62,3.99-1.85c0.49-0.65,0.85-1.5,1.09-2.56h2.36c-0.21,1.69-0.9,3.12-2.06,4.26
				c-1.4,1.38-3.29,2.07-5.67,2.07c-2.05,0-3.77-0.57-5.16-1.7c-1.83-1.5-2.75-3.81-2.75-6.94c0-2.38,0.69-4.32,2.06-5.84
				c1.49-1.65,3.54-2.48,6.16-2.48C478.35,189.73,480.09,190.26,481.32,191.34z"/>
			<path class="st0" d="M486.95,190.16h8.11c1.33,0,2.44,0.18,3.3,0.54c1.64,0.69,2.47,1.95,2.47,3.8c0,0.96-0.22,1.75-0.66,2.37
				c-0.44,0.61-1.06,1.11-1.85,1.48c0.7,0.26,1.22,0.59,1.57,1.01c0.35,0.42,0.55,1.09,0.59,2.03l0.09,2.16
				c0.02,0.61,0.08,1.07,0.17,1.37c0.15,0.51,0.4,0.84,0.78,0.99v0.36h-2.96c-0.08-0.14-0.15-0.32-0.19-0.54
				c-0.05-0.22-0.09-0.64-0.12-1.27l-0.15-2.68c-0.06-1.05-0.48-1.76-1.26-2.11c-0.45-0.2-1.15-0.3-2.11-0.3h-5.34v6.9h-2.42V190.16
				z M494.8,197.54c1.1,0,1.97-0.2,2.62-0.61c0.64-0.41,0.96-1.15,0.96-2.21c0-1.15-0.45-1.93-1.35-2.34
				c-0.48-0.22-1.12-0.33-1.92-0.33h-5.74v5.5H494.8z"/>
			<path class="st0" d="M504.85,190.16h12.94v1.97h-10.59v4.89h9.79v1.86h-9.79v5.46h10.77v1.92h-13.13V190.16z"/>
			<path class="st0" d="M526.41,190.16h2.73l6.47,16.1h-2.65l-1.86-4.82h-7l-1.93,4.82h-2.48L526.41,190.16z M530.42,199.66
				l-2.75-7.11l-2.85,7.11H530.42z"/>
			<path class="st0" d="M548.93,190.16v1.92h-6.01v14.18h-2.44v-14.18h-6.01v-1.92H548.93z"/>
			<path class="st0" d="M551.69,190.16h2.44v16.1h-2.44V190.16z"/>
			<path class="st0" d="M559.47,190.16l5.12,13.71l5.06-13.71h2.71l-6.51,16.1h-2.56l-6.5-16.1H559.47z"/>
			<path class="st0" d="M574.87,190.16h12.94v1.97h-10.59v4.89h9.79v1.86h-9.79v5.46H588v1.92h-13.13V190.16z"/>
		</g>
		<g>
			<path class="st0" d="M206.05,213.08c0.24,1.74,0.44,5.02,1.18,8.17c1.23,5.2,7.5,10.26,12.4,10.38
				c6.97,0.17,16.46-7.16,17.99-13.9c0.69-3.05-0.49-6.3-2.69-6.87c-3.11-0.8-4.52,1.42-5.72,3.67c-1.08,2.02-1.57,4.5-3.04,6.11
				c-1.2,1.32-3.46,2.24-5.28,2.29c-2.44,0.07-3.46-2.03-3.61-4.37c-0.05-0.76-0.04-1.53-0.03-2.3c0.17-13.13,3.4-25.76,6.43-38.41
				c0.53-2.2,1.63-4.3,2.7-6.32c1.17-2.21,2.66-4.53,5.63-3.89c3.25,0.71,3.79,3.56,3.76,6.33c-0.02,2.28-0.42,4.57-0.75,6.83
				c-0.22,1.51-0.95,3.03-0.82,4.49c0.16,1.9,0.71,5.22,1.51,5.35c2.4,0.39,5.33,0.12,7.42-1.03c1.52-0.84,2.33-3.39,2.93-5.34
				c1.65-5.38,0.25-10.63-1.36-15.76c-2.06-6.59-7.36-8.83-13.61-9.72c-6.11-0.87-9.76,2.46-12.48,7.26
				C210.63,180.18,206.68,195.42,206.05,213.08z"/>
			<path class="st0" d="M113.36,221.25c0-1.46-0.12-2.06,0.02-2.58c0.57-2.03,1.2-4.04,1.85-6.03c3.14-9.57,3.15-9.67,13.09-9.78
				c2.54-0.03,4.03-0.74,4.55-3.22c0.3-1.44,0.58-2.89,0.97-4.83c-3.86-0.48-7.35-0.92-11.43-1.43c1.29-5.14,2.42-9.73,3.59-14.32
				c2.33-9.18,2.33-9.18,11.84-9.8c5.05-0.33,5.24-0.56,5.36-6.77c-7.89-1.67-15.88-0.79-23.82-0.25c-1.14,0.08-2.57,2.08-3.12,3.48
				c-1.32,3.37-2.28,6.9-3.24,10.4c-4.31,15.87-8.66,31.73-12.79,47.64c-1.14,4.38-0.49,5.22,3.87,5.64
				c5.71,0.55,11.46,0.81,17.2,0.9c5.93,0.1,7.65-2.36,6.38-9.06C123.08,221.25,118.38,221.25,113.36,221.25z"/>
			<path class="st0" d="M274.18,190.99c1.75-6.27,3.24-11.79,4.84-17.28c1.55-5.32,1.61-5.23,7.06-5.41
				c2.65-0.09,5.37-0.21,7.91-0.87c2.44-0.64,3.06-3.04,2.36-5.14c-0.33-1-2.14-2.04-3.34-2.12c-5.92-0.39-11.85-0.5-17.79-0.64
				c-3.5-0.08-5.52,1.39-6.38,5.1c-2.46,10.62-5.34,21.14-7.93,31.73c-2,8.18-3.93,16.37-5.65,24.61c-1.15,5.49,0.54,7.93,5.81,8.19
				c5.15,0.25,10.34,0.09,15.49-0.3c3.35-0.26,4.97-2.88,4.57-6.63c-0.38-3.48-3.28-2.62-5.35-2.66c-3.34-0.07-6.68,0.27-10.54,0.46
				c1.06-3.58,2.06-6.27,2.63-9.05c1.36-6.69,4.22-10.66,12.15-10.19c6.04,0.36,6.94-1.69,5.72-8.05
				C282.2,192.21,278.64,191.67,274.18,190.99z"/>
			<path class="st0" d="M12,226.89c1.55-6.23,3.14-12.45,4.65-18.69c3.52-14.52,7.01-29.04,10.49-43.57
				c0.94-3.91,3.94-4.29,7.15-4.2c5.36,0.15,10.73,0.37,16.09,0.62c1.85,0.08,4.35-0.26,4.48,2.36c0.13,2.67-0.45,5.59-3.64,6.47
				c-2,0.55-4.2,0.87-6.25,0.67c-3.65-0.35-5.1,1.34-5.96,4.63c-1.93,7.4-4.16,14.72-6.47,22.81c3.77,0.62,7.4,1.22,10.97,1.81
				c-0.15,7.9-0.28,8.05-7.47,8.1c-6.84,0.04-6.49-0.16-8.24,6.09c-1.29,4.61-2.69,9.19-3.98,13.8c-1.44,5.16-2.57,5.86-7.65,4.35
				c-1.44-0.43-2.78-1.19-4.16-1.8C12,229.2,12,228.04,12,226.89z"/>
			<path class="st0" d="M63.8,241.33l5.57-29.7l-5.13-1.51c1.97-6.61,3.92-13.13,5.99-20.05c-0.81-0.38-1.74-0.95-2.75-1.28
				c-2.56-0.85-2.52-2.65-1.36-5.33c2.68-6.21,4.52-12.75,5.86-19.38c0.5-2.5,1.94-3.98,4.46-3.89c0.38,0.01,0.76-0.06,1.15-0.08
				c10.45-0.59,11.62,0.79,8.03,10.48c-2.32,6.26-5.13,12.34-7.84,18.8l6.19,2.16c-2.94,6.15-5.7,11.94-8.69,18.2l4.82,1.44
				c-3.25,6.32-6.43,12.42-9.53,18.56C68.55,233.73,68.06,238.48,63.8,241.33z"/>
			<path class="st0" d="M206.05,213.08c0.64-17.67,4.58-32.91,12.58-47.02c2.72-4.8,6.37-8.13,12.48-7.26
				c6.25,0.89,11.55,3.13,13.61,9.72c1.6,5.13,3.01,10.38,1.36,15.76c-0.6,1.95-1.42,4.51-2.93,5.34c-2.09,1.15-5.02,1.43-7.42,1.03
				c-0.8-0.13-1.35-3.45-1.51-5.35c-0.12-1.46,0.61-2.98,0.82-4.49c0.33-2.27,0.73-4.55,0.75-6.83c0.03-2.77-0.51-5.62-3.76-6.33
				c-2.97-0.65-4.46,1.68-5.63,3.89c-1.07,2.02-2.18,4.12-2.7,6.32c-3.03,12.65-6.27,25.28-6.43,38.41
				c-0.01,0.77-0.02,1.54,0.03,2.3c0.15,2.34,1.17,4.45,3.61,4.37c1.82-0.05,4.07-0.98,5.28-2.29c1.47-1.62,1.96-4.09,3.04-6.11
				c1.2-2.24,2.6-4.47,5.72-3.67c2.2,0.57,3.38,3.81,2.69,6.87c-1.52,6.73-11.02,14.07-17.99,13.9c-4.9-0.12-11.18-5.19-12.4-10.38
				C206.48,218.11,206.29,214.83,206.05,213.08z"/>
			<path class="st0" d="M113.36,221.25c5.02,0,9.72,0,14.33,0c1.27,6.69-0.44,9.16-6.38,9.06c-5.74-0.1-11.49-0.36-17.2-0.9
				c-4.36-0.42-5.01-1.26-3.87-5.64c4.13-15.92,8.48-31.78,12.79-47.64c0.95-3.51,1.92-7.03,3.24-10.4c0.55-1.4,1.98-3.4,3.12-3.48
				c7.94-0.54,15.93-1.41,23.82,0.25c-0.12,6.21-0.31,6.44-5.36,6.77c-9.51,0.62-9.51,0.62-11.84,9.8
				c-1.16,4.59-2.3,9.18-3.59,14.32c4.08,0.51,7.57,0.95,11.43,1.43c-0.39,1.94-0.67,3.39-0.97,4.83c-0.52,2.48-2.01,3.19-4.55,3.22
				c-9.95,0.11-9.95,0.21-13.09,9.78c-0.66,2-1.28,4.01-1.85,6.03C113.23,219.19,113.36,219.79,113.36,221.25z"/>
			<path class="st0" d="M274.18,190.99c4.47,0.68,8.02,1.22,11.54,1.75c1.23,6.36,0.33,8.41-5.72,8.05
				c-7.93-0.48-10.79,3.5-12.15,10.19c-0.56,2.78-1.57,5.47-2.63,9.05c3.86-0.19,7.2-0.52,10.54-0.46c2.07,0.04,4.97-0.82,5.35,2.66
				c0.41,3.75-1.21,6.37-4.57,6.63c-5.14,0.39-10.34,0.55-15.49,0.3c-5.27-0.26-6.95-2.7-5.81-8.19c1.72-8.24,3.65-16.43,5.65-24.61
				c2.59-10.59,5.47-21.11,7.93-31.73c0.86-3.71,2.89-5.18,6.38-5.1c5.93,0.14,11.87,0.25,17.79,0.64c1.2,0.08,3.01,1.12,3.34,2.12
				c0.7,2.1,0.08,4.5-2.36,5.14c-2.54,0.67-5.26,0.79-7.91,0.87c-5.45,0.18-5.5,0.09-7.06,5.41
				C277.41,179.2,275.93,184.72,274.18,190.99z"/>
			<g>
				<path class="st0" d="M182,160.26c-2.97-0.58-6.11-0.16-9.16-0.41c-3.92-0.32-5.8,1.33-6.77,5.19
					c-5.02,20.06-10.23,40.07-15.47,60.07c-0.8,3.06,0.08,4.62,3.05,5.6c2.93,0.97,4.27-0.15,5.12-2.8c0.99-3.1,2.07-6.18,3.25-9.22
					c1.29-3.33,2.74-6.6,4.12-9.9c0.55,0.03,1.09,0.05,1.64,0.08c2.5,6.18,4.94,12.38,7.51,18.53c1.49,3.58,2.84,3.72,8.01,2.16
					c3.23-0.97,4.48-2.53,3.41-5.86c-1.47-4.55-2.5-9.28-4.29-13.7c-1.26-3.1-0.62-4.76,1.89-6.74c2.34-1.85,5.04-4.14,5.9-6.78
					c2-6.14,3.88-12.57,4.19-18.96C194.86,167.52,190.55,161.92,182,160.26z M169.65,199.48c2.93-11.4,5.64-21.9,8.55-33.19
					C185.85,174.06,181.5,190.33,169.65,199.48z"/>
			</g>
		</g>
	</g>
</g>
</svg>
