<?xml version="1.0" encoding="utf-8"?>
<!-- Generator: Adobe Illustrator 21.1.0, SVG Export Plug-In . SVG Version: 6.00 Build 0)  -->
<svg version="1.1" id="Layer_1" xmlns="http://www.w3.org/2000/svg" xmlns:xlink="http://www.w3.org/1999/xlink" x="0px" y="0px"
	 viewBox="0 0 600 400" style="enable-background:new 0 0 600 400;" xml:space="preserve">
<style type="text/css">
	.st0{display:none;}
	.st1{display:inline;}
	.st2{fill:#FFFFFF;}
	.st3{clip-path:url(#SVGID_4_);fill:#FFFFFF;}
	.st4{display:inline;fill:#FFFFFF;}
	.st5{fill:none;}
	.st6{fill:#231F20;}
</style>     
<g id="ETL">
	<g>
		<path class="st2" d="M244.15,145.04c-6.49-4.61-12.94-3.6-14.33,2.24c0,0,0,0,1.22,4.89c0.43,1.83,6.73,7.72,10.07,10.75
			c4.57-1,9.39-1.61,14.4-1.86C251.54,150.33,244.15,145.04,244.15,145.04z"/>
		<path class="st2" d="M193.25,239.07c-5.05,1.8-13,2.98-13,2.76c0-0.26-0.22-0.97-0.48-0.97c-0.26,0-0.28-1.85,0.57-4.11
			c0.84-2.26,1.57-8.91,1.83-8.91c0.27,0,0.97-0.21,0.97-0.47c0-0.26,2.17-0.11,4.83,0.95c0.84,0.33,2.1,0.24,3.41-0.26
			c-0.2-5.02,0.31-10.67,1.66-17.05c2.4-11.29,7.03-20.73,13.46-28.26c-2.49,0.69-5.77,3.28-8.74,7.23c0,0,0,0-5.83,4.7
			c-11.93,9.49-32.34,16.28-31.38,36c0.17,4.57,1.31,8.86,4.88,11.67c2.67,2.08,8.15,0.31,10.4,2.81
			c5.21,5.69,6.11,12.3,13.66,16.46c5.11,2.8,5.11,2.8,5.11,2.8c7.24,2.17,13.38,3.94,13.63,3.94c0.27,0,0.76-1.3,0.5-2.9
			c-0.26-1.59,1.83-6.46,2.89-6.73c0.27-0.07,0.52-0.15,0.75-0.24C203.34,254.99,196.43,248.81,193.25,239.07 M182.56,206.85
			c2.71-3.58,5.14-6.3,5.41-6.04c0.26,0.27,1.37,1.03,1.85,1.11c0.49,0.07,1.8,1.31,1.54,1.31c-0.25,0-2.4,1.54-4.14,3.43
			c-1.74,1.89-5.51,5.46-5.51,5.72C181.7,212.65,179.84,210.43,182.56,206.85 M172.29,237.47c-0.4,0.27-0.81,0.9-0.92,1.39
			c-0.11,0.5-1.25,1.78-1.25,1.52c0-0.26-0.86-0.76-1.92-0.5c-1.06,0.27-3.98,0.65-4.11,0.25c-0.14-0.4,1.69-2.03,1.69-3.62
			c0-1.59,1.09-5.14,2.42-4.34C169.53,232.97,172.69,237.19,172.29,237.47z"/>
		<path class="st2" d="M200.52,108.2c0-0.27-1.32-0.86-2.92-1.31c-1.6-0.45-8.45-1.7-11.62-1.79c-3.17-0.09-7.41,0.51-2.42,1.49
			C188.55,107.58,200.52,108.48,200.52,108.2z"/>
		<path class="st2" d="M171.09,129.42c0.26,0,5.08,2.81,10.7,6.24c0,0,0,0,4.21-4.34c0.99-1.09,0.99-1.09,0.99-1.09
			c-0.52-1.24-0.95-2.05-0.95-1.79c0,0.26-0.2,0.97-0.47,0.97c-0.26,0-0.88,0.33-0.75,0.72c0.12,0.4-3.51-0.35-5.77-1.67
			c-2.25-1.32-7.71-5.62-8.91-7.01c-1.21-1.39-3.71-3.11-2.92-0.72C168.02,123.12,170.83,129.42,171.09,129.42z"/>
		<path class="st2" d="M209.33,155.65c4.52-3.66,4.64-3.73,4.64-3.73c6.76-4.22,12.75-9.24,13.34-11.17
			c0.59-1.93,1.95-7.31,1.7-7.71c-0.24-0.4-4.08,1.29-6.08,3.75c-2,2.46-7.94,8.34-7.94,8.07c0-0.26-0.45-0.89-1-0.79
			c-0.54,0.1-3.3,2.56-5.02,4.14c-1.72,1.58-3.68,7.26-3.14,7.26c0.53,0,2.17,0.45,2.46,0.99
			C208.29,156.46,208.29,156.46,209.33,155.65z"/>
		<path class="st2" d="M164.33,175.25c0,0.26-0.09,1.35-0.2,2.42c-0.11,1.07,2.68,5.36,5.7,7.21c3.03,1.85,11.88,5.1,11.88,4.84
			c0-0.26-0.92-1.6-2.04-2.35c-1.11-0.75-3.75-3.17-3.75-3.44c0-0.26,1.3-0.97,2.89-0.97c1.6,0,4.63-3.31,3.21-7.38
			c-1.42-4.06,4.02-10.21,4.02-10.47c0-0.26-1.61-1.73-3.57-2.67c-1.97-0.94-7-2.21-7.54-1.68c-0.53,0.54-1.14,3.81-0.18,6.13
			c0.96,2.31,2.39,6.58,2.12,7.37c-0.25,0.8-0.97,3.11-0.97,3.37c0,0.26-0.44,0.98-0.98,0.98c-0.53,0-2.72-2.39-3.71-5.32
			c-0.98-2.92-1.43-12.16-1.84-12.3c-0.39-0.14-3.19,2.38-6.22,3.21c-3.02,0.83-10.6,4.87-12.59,3.82
			c-1.99-1.05-5.28-5.34-5.54-5.34c-0.26,0-0.97,0.21-0.97,0.47c0,0.27-2.28,5.63-5.07,11.33c0,0,0,0,3.3,2.81
			c4.84,4.07,4.84,4.07,4.84,4.07c3.88-3.9,8.57-7.1,10.42-7.1C159.42,174.28,164.33,175,164.33,175.25z"/>
		<path class="st2" d="M218.58,289.34c4.39-2.78,7.52-5.97,6.94-7.08c-0.57-1.11-0.87-4.35,0.34-5.04c1.21-0.69,2.2-3.66,0.49-4.38
			c-1.7-0.72-5.79-2.82-6.06-2.56c-0.26,0.26-1.56,1.34-2.28,1.79c-0.73,0.45-3.25,0.63-3.51,0.63c-0.26,0-0.92,1.5-0.86,3.32
			c0.06,1.83-0.27,8.44-0.86,10.59c-0.59,2.15-1.71,7.8-1.18,7.8c0.54,0,2.12,0.33,2.35,0.72c0.24,0.4,2.47,0.51,2.47,0.25
			C216.44,295.12,214.19,292.13,218.58,289.34z"/>
		<path class="st2" d="M169.69,106.89c-0.26-1.33,0.41-2.42,1.47-2.42c1.07,0,3.51,0.7,3.12,1.56c-0.39,0.86-1.15,5.67-1.67,5.67
			C172.09,111.71,169.95,108.23,169.69,106.89z"/>
		<path class="st2" d="M176.45,111.24c0-0.53,2.12-0.65,4.73-0.25c2.59,0.4,9.63,1.05,9.5,1.45c-0.14,0.4,1.9,1.38,2.15,2.17
			c0.25,0.8-1.9,1.23-1.9,0.97c0-0.26-0.22-0.75-0.47-0.47c-0.27,0.27-0.75,0.95-0.48,0.95c0.27,0,0.95,0.22,0.95,0.5
			c0,0.28,1.04,2.26,2.31,3.85c1.27,1.59-2.58,3.22-4.68,3.62c-2.1,0.4-7.82-0.9-7.89-2.89c-0.08-1.99,3.32-3.94,3.68-4.34
			c0.36-0.4,2.24-0.5,2.24-0.23c0,0.28,0.23,0.95,0.5,0.95c0.28,0-1.98-0.5-5.56-1.1c-3.58-0.61-6.29-3.23-6.02-3.23
			C175.78,113.16,176.45,111.77,176.45,111.24z"/>
		<path class="st2" d="M201.53,117.5c-0.27-1.59,5.66-0.71,13.16,1.95c0,0,25.58,9.09-2.24,25.23c-1.72,0.95-1.72,0.95-1.72,0.95
			c-2.14,0.45-4.87-0.21-6.06-1.45c-1.2-1.24-2.82-5.15-3.62-5.36c-0.8-0.21-2.42,2.23-3.62,2.71c-1.19,0.49-1.73,3.46-1.2,3.46
			c0.54,0,2.14-0.65,2.42-1.45c0.28-0.8,1.18-2.9,1.45-2.9c0.27,0,0.95,0.23,0.95,0.5c0,0.27,0.32,1.74,0.72,2.69
			c0.4,0.96,1.05-0.02,1.45,0.32c0.4,0.34,0.07,3.24-0.73,4.41c-0.8,1.17-1.66,5.11-1.92,5.11c-0.27,0-1.19-0.87-1.45-1.92
			c-0.26-1.06-1.19-3.87-1.45-3.87c-0.26,0-4.56-0.46-8.93-1.02c-4.38-0.55-8.95-2.85-10.15-4.05c-1.21-1.19-5.04-1.94-5.04-1.67
			c0,0.27-1.96,1.01-4.34,1.09c-2.39,0.08-5.35-3.82-6.58-3.03c-1.23,0.8-4.69,3.07-4.32,5.06c0.37,1.99-2.12,3.85-2.12,4.12
			c0,0.27-0.43,0.94-0.95,0.94c-0.52,0-2.42-1.14-2.98-2.55c-0.57-1.41-1.38-6.25-0.52-7.62c0.86-1.37,1.78-5.75,2.06-5.75
			c0.27,0,0.34-2.6-0.41-5.79c-0.74-3.18,2.97-6.76,4.95-7.96c1.98-1.19,7.98-1.95,7.98-1.68c0,0.28-0.51,3.13-1.13,5.79
			c0,0,0,0,0.9,2.44c4.11,11.49,10.4,11.94,10.4,11.94c7.94,0.57,17.48-1.56,21.2-4.75c3.72-3.18,7.71-6,7.71-6.26
			c0-0.26-0.65-0.8-1.45-0.58c-0.79,0.21-1.66,1.21-1.92-0.38c-0.27-1.59-0.75-5.79-0.47-5.79c0.27,0,0.95,0.44,0.95,0.98
			C202.5,121.9,201.79,119.1,201.53,117.5z"/>
		<path class="st2" d="M182.24,118.95c-0.41,0.14-0.81,0.32-1.26,0.45C181.2,118.95,182.78,117.73,182.24,118.95z"/>
		<path class="st2" d="M163.9,142.58c0.53-0.26,0.97-0.04,0.97,0.5c0,0.54-0.21,1.92-0.47,1.92c-0.26,0-1.2,0.33-1.47,0.72
			c-0.27,0.4-2.4,0.51-2.4,0.25c0-0.26,0.33-0.87,0.73-0.75C161.65,145.35,163.37,142.84,163.9,142.58z"/>
		<path class="st2" d="M157.66,148.91c0.79-1.35,1.75-2.57,2.15-2.71c0.4-0.13,0.51,2.79,0.25,4.12c-0.26,1.34,0.45,5.47,2.19,6.26
			c1.74,0.8-3.85,6.89-8.22,13.54c0,0-2.5,3.79-5.84-3.14c-3.71-7.64-3.71-7.64-3.71-7.64
			C150.17,156.33,156.88,150.27,157.66,148.91z"/>
		<path class="st2" d="M183.69,146.45c1.45,0,2.9,0,4.34,0C186.58,146.45,185.14,146.45,183.69,146.45z"/>
		<path class="st2" d="M164.4,149.34c0.26-0.79,1.58,0.51,2.94,2.9c1.36,2.39-0.22,4.85-1.02,5.47c-0.8,0.62-1.66,3.21-1.92,3.21
			c-0.26,0-0.32-0.82,0.47-1.81c0.79-1,1.23-3.98,0.97-3.98c-0.27,0-1.4,0-1.93,0c-0.52,0-1.94-0.21-1.94-0.47
			c0-0.26,0.32-0.87,0.72-0.75C163.1,154.04,164.14,150.14,164.4,149.34z"/>
		<path class="st2" d="M206.85,160.92c0.5,5.29,0.99,10.63,1.45,15.92c-1.45-0.5-2.9-0.95-4.34-1.45c0,0.5,0,0.99,0,1.45
			c0.99,1.18,4.34,4.34,1.45,4.34c-1.45,1.45-2.85,2.9-4.3,4.35c-7.64,9.9-16.37,17.5-27.95,9.17c-1.85-1.36-6.83-2.44-6.83-4.84
			c-0.5,0-0.95,0-1.45,0c0.59-1.53,2.76-4.34,0-4.34c0-0.5,0-0.95,0-1.45c2.81,1.17,11.58,7.1,11.58,10.13
			c2.39-0.49,4.84-0.95,7.23-1.45c0,0.5,0,0.99,0,1.45c1.9,0,1.45,0.46,1.45-1.45c-0.5,0-0.95,0-1.45,0c0-0.5,0-0.95,0-1.45
			c0.77-1.18,1.9-2.9,2.9-2.9C194.77,178.56,201.87,173.04,206.85,160.92z"/>
		<path class="st2" d="M260.22,160.94c-1.59,0-3.15,0.05-4.71,0.12c0.38,1.02,0.73,2.06,1.04,3.18c1.08,4.02,1.08,4.02,1.08,4.02
			c-1.96,3.31-8.47,1.72-14.46-3.51c0,0-0.84-0.74-2.06-1.84c-14.1,3.07-25.99,9.72-34.63,19.83c1.46-0.4,2.66-0.16,3.39,0.85
			c0,0,0,0,0.31,3.71c1.45,18.41-5.92,14.92-10.94,26.78c-2.17,4.98-2.17,4.98-2.17,4.98c0.2,4.92-2.88,7.91-5.7,8.99
			c0.17,4.09,0.81,7.75,1.87,11.01c0.98-0.34,1.86-0.71,2.53-1.1c4.19-2.39,12.05,1.74,11.51,4.21c-0.54,2.46,1.1,3.76,1.9,3.5
			c0.8-0.26,0.66,2.89,1.97,3.24c1.31,0.35,0.59,3.47-0.32,4c-0.91,0.54-1.65,2.37-1.65,2.9c0,0.53,2.1,0.97,2.9,0.97
			c0.8,0,1.45,0.71,1.45,0.98c0,0.19-0.49,0.49-1.18,0.73c6.7,2.61,14.56,3.73,22.91,3.73c35.79,0,54.86-11.81,62.9-33.51h-40.36
			c-2.79,6.85-8.39,9.9-13.53,9.9c-9.13,0-11.93-4.76-9.58-15.8l0.61-2.85h65.87l1.38-6.48C309.8,179.41,296.4,160.94,260.22,160.94
			z M264.25,198.45l-0.28,1.33H239.6l0.28-1.33c1.94-9.13,7.9-13.9,15.34-13.9C262.45,184.55,266.19,189.31,264.25,198.45z
			 M260.39,178.92c1.59,0.35,2.68,3.71,2.42,3.71c-0.25,0-0.97-0.21-0.97-0.48c0-0.26-0.33-1.08-0.72-1.22
			c-0.4-0.14-2.11-0.4-2.65-1.2C257.94,178.94,258.81,178.58,260.39,178.92z M267.16,179.74c-0.26,0-1.19-0.87-1.45-1.92
			c-0.26-1.06-1.18-3.87-1.44-3.87c-0.27,0-1.85,0.33-2.92,0.73c-1.08,0.4-5.19,1.05-5.07,1.44c0.13,0.4-1.89,0.08-2.15-0.72
			c-0.26-0.8,3.31-4.26,3.85-5.31c0.53-1.06,2.92-0.57,5.31,1.08C265.68,172.82,267.41,179.74,267.16,179.74z"/>
		<path class="st2" d="M209.74,200"/>
		<path class="st2" d="M321.67,191.98H309.3l5.98-28.18h12.38l3.28-15.42l49.47-15.99l-6.68,31.41h20.75l-5.98,28.18h-20.76
			l-6.23,29.32c-1.54,7.23,0.23,9.71,5.74,9.71c3.24,0,7.04,0,11.48-1.15l-5.99,28.18c-10.96,2.29-22.4,4.19-31.54,4.19
			c-17.9,0-33.29-5.52-28.75-26.85L321.67,191.98z"/>
		<polygon class="st2" points="461,121.91 414.93,121.91 385.71,259.37 388.24,259.37 431.79,259.37 442.49,259.37 453.09,219.18 
			440.33,219.18 		"/>
		<g>
			<path class="st2" d="M239.69,273.74h4.06l0.83,16.01h-3.83l-0.13-3.83h-5.01l-2.15,3.83h-3.12L239.69,273.74z M240.62,283.22
				l-0.22-5.93l-3.33,5.93H240.62z"/>
			<path class="st2" d="M251.18,284.58c0.01,1.62,1.08,2.54,3.02,2.54c1.52,0,2.74-0.76,3.03-1.85c0.37-1.39-0.84-1.59-2.97-2.19
				c-1.48-0.42-2.83-0.72-3.74-1.89c-0.57-0.72-0.7-1.68-0.41-2.79c0.77-2.88,3.73-5.01,7.61-5.01c3.05,0,4.79,1.41,5.07,4.02
				l-3.44,0.88c-0.14-1.38-0.99-2.1-2.51-2.1c-1.48,0-2.58,0.76-2.84,1.75c-0.34,1.29,0.88,1.45,2.96,2.05
				c1.4,0.39,2.68,0.69,3.62,1.66c0.76,0.78,0.97,1.89,0.59,3.32c-0.76,2.84-3.94,5.08-7.98,5.08c-3.62,0-5.68-1.8-5.67-4.8
				L251.18,284.58z"/>
			<path class="st2" d="M267.35,284.58c0.01,1.62,1.08,2.54,3.02,2.54c1.52,0,2.74-0.76,3.03-1.85c0.37-1.39-0.84-1.59-2.97-2.19
				c-1.48-0.42-2.83-0.72-3.74-1.89c-0.57-0.72-0.7-1.68-0.41-2.79c0.77-2.88,3.74-5.01,7.61-5.01c3.05,0,4.79,1.41,5.07,4.02
				l-3.44,0.88c-0.14-1.38-0.99-2.1-2.51-2.1c-1.48,0-2.58,0.76-2.84,1.75c-0.34,1.29,0.88,1.45,2.96,2.05
				c1.4,0.39,2.68,0.69,3.62,1.66c0.76,0.78,0.97,1.89,0.59,3.32c-0.76,2.84-3.94,5.08-7.98,5.08c-3.62,0-5.68-1.8-5.67-4.8
				L267.35,284.58z"/>
			<path class="st2" d="M281.11,281.72c1.36-5.1,5.15-8.31,9.39-8.31c4.25,0,6.34,3.21,4.98,8.31c-1.36,5.1-5.17,8.33-9.42,8.33
				C281.82,290.05,279.75,286.82,281.11,281.72z M291.49,281.72c0.94-3.53,0.24-5.4-1.77-5.4c-2.01,0-3.68,1.87-4.62,5.4
				c-0.94,3.53-0.26,5.4,1.74,5.4C288.85,287.12,290.56,285.23,291.49,281.72z"/>
			<path class="st2" d="M306.9,276.28c-2.05,0-3.7,1.85-4.66,5.47c-0.95,3.58-0.35,5.38,1.77,5.38c1.52,0,2.8-1.08,3.71-3.18
				l3.32,0.35c-1.54,3.69-4.4,5.77-7.86,5.77c-4.25,0-6.21-3.12-4.82-8.31c1.37-5.15,5.04-8.33,9.28-8.33
				c3.53,0,5.29,2.15,4.71,5.95l-3.59,0.3C309.19,277.5,308.43,276.28,306.9,276.28z"/>
			<path class="st2" d="M317.37,273.74h3.81l-4.27,16.01h-3.81L317.37,273.74z"/>
			<path class="st2" d="M329,273.74h4.06l0.83,16.01h-3.83l-0.13-3.83h-5.01l-2.15,3.83h-3.12L329,273.74z M329.93,283.22
				l-0.22-5.93l-3.34,5.93H329.93z"/>
			<path class="st2" d="M342.57,289.75h-3.74l3.49-13.11h-3.69l0.78-2.91h11.12l-0.78,2.91h-3.69L342.57,289.75z"/>
			<path class="st2" d="M353.41,273.74h11.33l-0.77,2.88h-7.73l-0.93,3.48h6.23l-0.72,2.7h-6.23l-1.07,4.02h7.85l-0.78,2.93h-11.45
				L353.41,273.74z"/>
			<path class="st2" d="M367.97,284.58c0.01,1.62,1.08,2.54,3.02,2.54c1.52,0,2.74-0.76,3.03-1.85c0.37-1.39-0.84-1.59-2.97-2.19
				c-1.48-0.42-2.83-0.72-3.74-1.89c-0.57-0.72-0.7-1.68-0.41-2.79c0.77-2.88,3.74-5.01,7.61-5.01c3.05,0,4.79,1.41,5.07,4.02
				l-3.44,0.88c-0.14-1.38-0.99-2.1-2.51-2.1c-1.48,0-2.58,0.76-2.85,1.75c-0.34,1.29,0.88,1.45,2.96,2.05
				c1.4,0.39,2.68,0.69,3.62,1.66c0.76,0.78,0.97,1.89,0.59,3.32c-0.76,2.84-3.94,5.08-7.98,5.08c-3.62,0-5.68-1.8-5.67-4.8
				L367.97,284.58z"/>
			<path class="st2" d="M381.42,286.22h3.74l-0.87,3.28l-3.3,4.08h-1.62l2.75-3.74h-1.66L381.42,286.22z"/>
			<path class="st2" d="M398.67,273.74h3.81l-4.27,16.01h-3.81L398.67,273.74z"/>
			<path class="st2" d="M406.95,273.74h3.83l3.34,10.31l2.63-10.31h3.09l-4.27,16.01h-3.18l-3.7-11.47l-2.94,11.47h-3.07
				L406.95,273.74z"/>
			<path class="st2" d="M429.93,276.28c-2.05,0-3.7,1.85-4.67,5.47c-0.95,3.58-0.35,5.38,1.77,5.38c1.52,0,2.8-1.08,3.71-3.18
				l3.32,0.35c-1.54,3.69-4.4,5.77-7.86,5.77c-4.25,0-6.21-3.12-4.82-8.31c1.37-5.15,5.04-8.33,9.28-8.33
				c3.53,0,5.29,2.15,4.71,5.95l-3.59,0.3C432.21,277.5,431.45,276.28,429.93,276.28z"/>
			<path class="st2" d="M437.15,286.13h3.79l-0.97,3.62h-3.78L437.15,286.13z"/>
		</g>
	</g>
</g> 
</svg>
