<?xml version="1.0" encoding="utf-8"?>
<!-- Generator: Adobe Illustrator 21.1.0, SVG Export Plug-In . SVG Version: 6.00 Build 0)  -->
<svg version="1.1" id="Layer_1" xmlns="http://www.w3.org/2000/svg" xmlns:xlink="http://www.w3.org/1999/xlink" x="0px" y="0px"
	 viewBox="0 0 600 400" style="enable-background:new 0 0 600 400;" xml:space="preserve">
<style type="text/css">
	.st0{fill:#FFFFFF;}
</style>
<g id="Coup.ly">
	<g>
		<path class="st0" d="M332.82,248.85c-6.52-1.84-15.17-0.8-23.32,5.8c0.01-0.93,0.02-1.78,0.02-2.47c0-2.57-2.02-4.69-4.59-4.81
			c-2.62-0.14-4.78,1.82-5,4.38c-0.4,4.52-1.8,13.88-4.08,27.35c-1.92,4.46-4.23,6.97-6.31,7.89c-1.44,0.64-2.79,0.5-4.14-0.42
			c4.1-5.34,7.12-11.79,8.7-17.45c3.18-11.43-0.26-16.77-2.59-18.94c-2.62-2.43-6.26-3.15-9.73-1.89
			c-5.62,2.02-9.66,8.42-10.82,17.13c-1.03,7.73-0.26,14.71,2.05,20.18c-0.69,0.53-1.4,0.99-2.11,1.37
			c-2.16,1.15-4.14,1.4-6.05,0.77c-4.84-1.61-2.6-11.54,0.34-22.45c1.38-5.11,2.57-9.52,2.44-12.81c-0.09-2.47-2.04-4.47-4.51-4.62
			c-2.47-0.18-4.65,1.59-5.04,4.03c-1,6.22-3.81,11.92-7.54,15.35c0-0.01,0-0.02,0-0.03c0-5.89-1.24-10.64-3.68-14.12
			c-2.48-3.53-6.18-5.56-10.16-5.56c-7.02,0-14.28,6.4-14.28,17.11c0,7.01,3.15,12.3,8.88,14.91c1.7,0.77,3.58,1.26,5.55,1.48
			c-1.1,1.78-2.4,3.41-3.92,4.73c-2.79,2.44-5.9,3.44-9.24,2.98c-1.86-0.25-2.99-1.04-3.81-2.64c-2.54-4.99-0.57-14.9,1.91-19.53
			c0.02-0.03,0.02-0.06,0.04-0.1c0.08-0.16,0.14-0.33,0.2-0.49c0.05-0.13,0.11-0.26,0.15-0.4c0.04-0.16,0.07-0.32,0.09-0.48
			c0.02-0.15,0.06-0.3,0.07-0.44c0.01-0.15,0-0.31,0-0.46c0-0.16,0-0.31-0.02-0.46c-0.02-0.15-0.06-0.3-0.09-0.45
			c-0.03-0.15-0.06-0.3-0.11-0.45c-0.05-0.15-0.12-0.29-0.18-0.43c-0.06-0.14-0.11-0.28-0.19-0.41c-0.07-0.13-0.16-0.25-0.25-0.38
			c-0.09-0.13-0.18-0.27-0.28-0.39c-0.09-0.11-0.2-0.21-0.31-0.31c-0.12-0.12-0.24-0.25-0.38-0.36c-0.03-0.02-0.05-0.05-0.08-0.07
			c-0.11-0.08-0.22-0.13-0.33-0.2c-0.1-0.07-0.19-0.15-0.3-0.2c-0.03-0.02-0.06-0.02-0.09-0.04c-0.17-0.09-0.34-0.15-0.51-0.21
			c-0.13-0.05-0.25-0.1-0.38-0.14c-0.17-0.05-0.34-0.07-0.51-0.1c-0.14-0.02-0.27-0.05-0.41-0.06c-0.17-0.01-0.33,0-0.5,0
			c-0.14,0-0.28,0-0.42,0.02c-0.17,0.02-0.33,0.06-0.5,0.1c-0.13,0.03-0.27,0.05-0.4,0.09c-0.16,0.05-0.32,0.12-0.47,0.19
			c-0.13,0.06-0.26,0.1-0.38,0.17c-0.14,0.08-0.27,0.17-0.4,0.26c-0.13,0.09-0.26,0.17-0.38,0.27c-0.11,0.09-0.21,0.2-0.31,0.31
			c-0.12,0.12-0.25,0.24-0.36,0.38c-0.02,0.03-0.05,0.05-0.07,0.08c-14.9,19.62-30.18,29.93-41.89,28.26
			c-6.31-0.89-11.31-5.32-14.07-12.48c-5.35-13.88-0.29-30.24,7.73-41.85c4.03,2.48,8.89,4.52,14.37,5.99
			c11,2.95,22.25,3.03,30.08,0.23c8.66-3.1,12.85-9.82,11.18-17.98c-1.22-5.99-6.74-10.64-15.15-12.75
			c-11.98-3.02-29.42-0.67-41.61,10.92c-0.29-0.4-0.54-0.81-0.76-1.22c-3.74-7.06,4.03-14.78,11.2-20.01
			c2.14-1.56,2.62-4.57,1.05-6.72c-1.56-2.14-4.57-2.62-6.72-1.05c-19.53,14.25-17.18,26.34-14.03,32.27
			c0.76,1.44,1.74,2.84,2.91,4.17c-13.92,19.27-13.85,39.47-9.23,51.45c4.01,10.4,11.91,17.15,21.69,18.54
			c1.26,0.18,2.54,0.27,3.84,0.27c10.88,0,22.84-6.28,34.82-18.14c0.14,3.28,0.79,6.46,2.17,9.17c2.25,4.42,6.08,7.11,11.07,7.79
			c6.13,0.83,11.96-0.98,16.87-5.26c4.17-3.64,7.11-8.47,8.94-13.4c1.58-0.56,3.11-1.26,4.56-2.1c-0.96,8.47,0.41,16.49,9.08,19.37
			c4.41,1.47,9.11,0.98,13.6-1.4c1.09-0.58,2.15-1.26,3.17-2.02c0.27,0.23,0.54,0.45,0.83,0.66c4.05,3.04,8.94,3.72,13.5,1.9
			c-1.4,7.87-2.99,16.61-4.76,26.15c-0.48,2.61,1.24,5.12,3.85,5.6c0.3,0.05,0.59,0.08,0.88,0.08c2.27,0,4.29-1.62,4.72-3.93
			c1.93-10.42,4.52-24.65,6.81-37.91c0.11,2,0.68,3.93,1.75,5.63c2.29,3.65,6.4,5.67,11.4,5.67c0.43,0,0.87-0.02,1.32-0.05
			c13.21-0.91,27.94-13.98,27.94-31.28C346.83,258.09,341.2,251.2,332.82,248.85z M203.62,220.15c4.47,1.13,7.64,3.22,8.07,5.35
			c0.32,1.58,0.99,4.87-5.01,7.01c-10.17,3.64-25.19,0.66-34.77-4.63C181.11,219.86,194.26,217.79,203.62,220.15z M240.49,271.52
			c-1.94,0.15-3.77-0.07-5.22-0.73c-1.39-0.63-3.24-1.96-3.24-6.16c0-4.89,2.71-7.49,4.67-7.49c0.84,0,1.61,0.49,2.29,1.47
			c0.72,1.03,1.94,3.53,1.94,8.6C240.93,268.54,240.79,270,240.49,271.52z M280.45,276.66c-0.42-2.78-0.48-6.1,0.03-9.97
			c0.88-6.64,3.63-9.09,4.56-9.36c0.46,0.6,1.43,3.32-0.22,9.22C283.95,269.72,282.41,273.32,280.45,276.66z M318.23,287.67
			c-1.95,0.13-3.38-0.29-3.92-1.16c-0.5-0.79-0.41-2.04,0.24-3.18c1.18-2.08,3.74-3.23,7.11-3.15c0.04,0,0.07,0,0.11,0
			c2.6,0,4.74-2.08,4.8-4.7c0.06-2.65-2.04-4.86-4.69-4.92c-6.74-0.15-12.5,2.74-15.5,7.73c0.7-2.25,1.31-4.8,1.81-7.63
			c7.45-11.71,16.22-14.21,22.02-12.57c4.12,1.16,7,4.4,7,7.88C337.21,278.61,326.15,287.12,318.23,287.67z"/>
		<path class="st0" d="M352.25,278.22c-6.11,0-11.08,4.97-11.08,11.08c0,6.11,4.97,11.08,11.08,11.08c6.11,0,11.08-4.97,11.08-11.08
			C363.32,283.19,358.36,278.22,352.25,278.22z M352.25,293.08c-2.08,0-3.78-1.7-3.78-3.78c0-2.09,1.7-3.78,3.78-3.78
			c2.09,0,3.78,1.7,3.78,3.78C356.03,291.38,354.33,293.08,352.25,293.08z"/>
		<path class="st0" d="M449.19,266.97c-2.65,0-4.81,2.15-4.81,4.81c0,6.39,0,13.83-11.14,21.43c1.27-13.48,1.43-26.34,1.52-34.05
			c0.04-2.91,0.06-5.21,0.14-6.37c0.17-2.64-1.83-4.92-4.47-5.1c-2.61-0.16-4.93,1.81-5.12,4.45c-1.64,22.69-9.49,33.75-16.28,36.54
			c-3.02,1.24-5.92,0.85-8.16-1.1c-0.21-0.19-0.43-0.39-0.63-0.62c1.89-2.1,3.82-4.51,5.8-7.22c8.38-11.51,10.95-21.83,7.05-28.3
			c-2.06-3.42-5.65-5.12-9.61-4.55c-5.1,0.73-11.65,5.73-14.76,17.58c-2.02,7.68-2.05,14.81-0.26,20.63
			c-3.49,2.87-5.97,3.5-7.31,2.82c-3.74-1.9-6.01-10.51-6.61-21.27c13.6-9.56,23-26.67,25.33-31.19c4.2-8.16,4.07-17-0.32-23.06
			c-3.09-4.27-7.87-6.35-12.76-5.57c-4.25,0.68-12.15,4.18-17.23,20c-3.09,9.64-4.85,22.48-4.79,34.5
			c-3.09,1.53-6.27,2.39-9.46,2.26c-2.67-0.11-4.89,1.97-4.99,4.62c-0.1,2.65,1.97,4.89,4.62,4.99c3.61,0.14,7.06-0.48,10.36-1.65
			c1.06,10.18,4,21.14,11.5,24.95c4.94,2.5,10.42,1.51,16.42-2.95c0.42,0.45,0.87,0.88,1.33,1.29c4.97,4.35,11.75,5.39,18.14,2.76
			c4.31-1.77,8.13-4.99,11.34-9.41c-0.27,3.5-0.62,7.06-1.05,10.61c-4.45,1.97-9.83,3.95-16.33,5.9
			c-34.37,10.34-36.35,26.29-35.61,32.66c1.11,9.54,9.97,16.94,21.07,17.6c0.53,0.03,1.06,0.05,1.6,0.05
			c13.23,0,29.1-9.73,35.72-37.34c0.96-3.98,1.74-8.17,2.37-12.44c17.96-9.29,22.19-20.09,22.19-33.43
			C454,269.13,451.85,266.97,449.19,266.97z M378.71,229.76c2.97-9.26,6.9-13.02,9.59-13.44c0.17-0.03,0.34-0.04,0.5-0.04
			c1.37,0,2.35,0.93,2.95,1.76c1.69,2.33,2.58,7.14-0.45,13.03c-3.5,6.8-9.54,16.15-16.76,23.09
			C375.02,245.71,376.38,237.01,378.71,229.76z M396.76,276.12c-0.02-2.66,0.35-5.73,1.26-9.21c2.12-8.07,5.78-10.45,6.85-10.51
			c0.59,0.92,1.45,6.65-6.59,17.69C397.76,274.8,397.25,275.48,396.76,276.12z M420.09,315.41c-5.51,22.95-17.76,30.5-27.4,29.94
			c-6.33-0.38-11.53-4.3-12.09-9.12c-0.75-6.38,6.44-15.6,28.83-22.34c4.34-1.31,8.28-2.64,11.85-4.01
			C420.91,311.77,420.52,313.62,420.09,315.41z"/>
		<path class="st0" d="M213.03,151.94c0.04,0.28,0.2,0.54,0.45,0.68c0.14,0.08,0.3,0.13,0.46,0.13c0.12,0,0.24-0.02,0.35-0.07
			c0.6-0.25,1.21-0.61,1.84-1c-0.81,2.96-1.14,5.97-0.75,8.07c0.05,0.28,0.23,0.52,0.49,0.65c0.13,0.07,0.27,0.1,0.42,0.1
			c0.14,0,0.27-0.03,0.4-0.09c0.72-0.35,1.44-0.86,2.2-1.4c0.48,2.15,1.1,4.21,1.82,6.2c-0.17,4.86,2.34,12.11,5.22,15.05
			c0.17,0.18,0.41,0.28,0.66,0.28c0.04,0,0.07,0,0.11-0.01c0.29-0.04,0.54-0.2,0.68-0.45c0.33-0.56,0.6-1.23,0.87-1.93
			c2.01,2.22,4.23,4.1,6.67,5.6c-0.91,1.75-1.52,3.49-1.64,4.88c-0.03,0.28,0.08,0.56,0.29,0.76c0.21,0.19,0.49,0.28,0.78,0.24
			c0.73-0.12,1.51-0.38,2.32-0.66c0.23-0.08,0.43-0.14,0.63-0.21c-2.12,2.76-3.81,6.21-4.03,8.62c-0.03,0.28,0.08,0.56,0.29,0.76
			c0.21,0.19,0.49,0.28,0.78,0.24c0.66-0.11,1.36-0.34,2.1-0.59c-0.26,4.61,0.66,9.99,2.41,12.78c0.15,0.24,0.41,0.4,0.69,0.43
			c0.03,0,0.06,0,0.09,0c0.25,0,0.49-0.1,0.67-0.29c0.62-0.65,1.18-1.48,1.78-2.36c0.03-0.04,0.05-0.07,0.07-0.1
			c0.02,0.7-0.01,1.48-0.08,2.37c-0.07,0.92-0.13,1.79-0.07,2.6c0.02,0.26,0.14,0.49,0.34,0.65c0.17,0.13,0.37,0.2,0.58,0.2
			c0.04,0,0.09,0,0.13-0.01c0.93-0.13,1.95-0.56,2.97-1.18c-0.3,2.98-0.25,5.87,0.17,7.6c0.07,0.31,0.3,0.55,0.6,0.65
			c0.1,0.03,0.2,0.05,0.3,0.05c0.2,0,0.41-0.07,0.57-0.2c0.42-0.33,0.82-0.76,1.24-1.22c0.88,3.19,2.29,6.22,3.85,7.87
			c0.18,0.19,0.42,0.29,0.67,0.29c0.03,0,0.06,0,0.09,0c0.28-0.03,0.54-0.18,0.69-0.43c0.23-0.36,0.43-0.76,0.63-1.18
			c1.87,2.73,4.01,4.95,5.85,5.82c0.13,0.06,0.26,0.09,0.39,0.09c0.15,0,0.3-0.04,0.44-0.11c0.26-0.14,0.44-0.39,0.48-0.68
			c0.1-0.67,0.14-1.4,0.17-2.16c0.46,0.56,0.9,1.31,1.4,2.2c0.41,0.73,0.79,1.42,1.25,2c0.17,0.21,0.42,0.34,0.68,0.35
			c0.01,0,0.03,0,0.04,0c0.25,0,0.5-0.1,0.67-0.29c0.44-0.46,0.85-1.09,1.21-1.81c0.08,1.81,0.37,3.47,0.89,4.66
			c0.11,0.26,0.34,0.45,0.62,0.52c0.07,0.02,0.15,0.03,0.23,0.03c0.2,0,0.41-0.07,0.57-0.2c0.6-0.47,1.17-1.09,1.77-1.75
			c0.99-1.09,1.77-1.84,2.48-2.22c0.55,0.97,0.89,2.26,1.25,3.8c0.22,0.97,0.43,1.89,0.74,2.71c0.09,0.24,0.28,0.43,0.51,0.52
			c0.11,0.05,0.23,0.07,0.35,0.07c0.13,0,0.26-0.03,0.38-0.08c1.7-0.77,3.38-2.62,4.67-4.83c0.51,0.62,1.02,1.41,1.57,2.34
			c0.49,0.83,0.96,1.62,1.49,2.26c0.18,0.21,0.48,0.36,0.71,0.33c0.27,0,0.53-0.12,0.7-0.32c0.87-1.02,1.61-2.57,2.15-4.34
			c1.36,1.84,2.91,3.36,4.3,4.09c0.13,0.07,0.28,0.1,0.43,0.1c0.13,0,0.26-0.03,0.39-0.09c0.26-0.12,0.45-0.35,0.51-0.64
			c0.17-0.75,0.22-1.58,0.28-2.47c0.03-0.43,0.06-0.82,0.1-1.19c0.43,0.7,0.81,1.64,1.24,2.82c0.34,0.93,0.65,1.81,1.07,2.55
			c0.14,0.25,0.39,0.42,0.68,0.46c0.04,0.01,0.09,0.01,0.13,0.01c0.24,0,0.48-0.1,0.65-0.27c1.24-1.23,2.42-3.23,3.37-5.5
			c0.09,0.73,0.25,1.39,0.47,1.91c0.12,0.26,0.35,0.46,0.63,0.53c0.07,0.02,0.14,0.03,0.22,0.03c0.21,0,0.42-0.07,0.59-0.21
			c0.53-0.43,1.03-0.98,1.57-1.57c1.03-1.12,1.79-1.84,2.47-2.16c0.06,0.3,0.11,0.61,0.17,0.95c0.16,0.98,0.31,1.91,0.59,2.71
			c0.1,0.27,0.31,0.48,0.58,0.58c0.1,0.03,0.19,0.05,0.29,0.05c0.18,0,0.36-0.05,0.52-0.16c2.05-1.39,4.27-4.34,5.9-7.51
			c1.19,2.16,2.58,4.03,3.95,5.09c0.16,0.13,0.36,0.19,0.57,0.19c0.08,0,0.15-0.01,0.23-0.03c0.28-0.07,0.5-0.26,0.62-0.53
			c0.34-0.77,0.56-1.68,0.8-2.64c0.75-3.04,1.38-4.63,3.28-4.58c0.29,0.87,0.58,1.69,0.95,2.39c0.14,0.25,0.38,0.43,0.66,0.47
			c0.05,0.01,0.1,0.01,0.15,0.01c0.23,0,0.45-0.09,0.62-0.24c2.34-2.14,4.58-6.99,5.43-11.31c0.28,0.24,0.58,0.5,0.89,0.78
			c0.73,0.66,1.42,1.29,2.13,1.75c0.15,0.1,0.32,0.15,0.5,0.15c0.1,0,0.21-0.02,0.31-0.05c0.27-0.09,0.48-0.31,0.57-0.58
			c0.59-1.79,0.69-4.4,0.38-7.09c1.01,0.45,1.99,0.77,2.86,0.88c0.04,0.01,0.08,0.01,0.12,0.01c0.21,0,0.42-0.07,0.58-0.21
			c0.2-0.16,0.32-0.4,0.34-0.65c0.05-0.67-0.05-1.41-0.14-2.12c-0.15-1.17-0.24-2.1,0.01-2.81c0.39,0.33,0.78,0.64,1.17,0.9
			c0.15,0.1,0.32,0.15,0.5,0.15c0.1,0,0.21-0.02,0.31-0.05c0.27-0.1,0.48-0.31,0.57-0.58c0.75-2.28,0.69-5.87,0.04-9.3
			c0.22,0.23,0.45,0.45,0.68,0.63c0.17,0.13,0.37,0.2,0.57,0.2c0.1,0,0.2-0.02,0.3-0.05c0.3-0.1,0.52-0.35,0.6-0.65
			c0.2-0.81,0.31-1.88,0.35-3.08c0.22,0.24,0.43,0.49,0.66,0.69c0.17,0.15,0.39,0.24,0.62,0.24c0.05,0,0.11,0,0.16-0.01
			c0.28-0.05,0.52-0.23,0.66-0.48c1.76-3.33,2.11-10.21,0.82-14.81c1.76-1.2,3.41-2.58,4.93-4.18c0.25,0.82,0.5,1.6,0.84,2.26
			c0.13,0.25,0.37,0.44,0.64,0.49c0.06,0.01,0.12,0.02,0.18,0.02c0.22,0,0.43-0.08,0.6-0.23c2.01-1.74,3.99-5.37,5.15-9.02
			c0.8,0.37,1.57,0.65,2.26,0.79c0.06,0.01,0.12,0.02,0.18,0.02c0.22,0,0.44-0.08,0.61-0.23c0.22-0.19,0.33-0.46,0.32-0.75
			c-0.04-0.69-0.29-1.82-0.61-3.24c-0.37-1.67-0.95-4.27-1.14-6.47c0.39-1.33,0.73-2.69,1.03-4.07c0.01,0,0.01-0.01,0.02-0.01
			c0.3-0.08,0.51-0.29,0.62-0.56c0.6,0.61,1.19,1.18,1.79,1.62c0.16,0.11,0.35,0.17,0.54,0.17c0.09,0,0.18-0.01,0.26-0.04
			c0.27-0.08,0.49-0.28,0.6-0.55c1.32-3.37,0.97-9.85-0.66-14.27c0.29,0.01,0.6,0.03,0.94,0.05c0.81,0.05,1.57,0.1,2.27,0.02
			c0.28-0.03,0.54-0.19,0.69-0.43c0.15-0.24,0.18-0.54,0.08-0.81c-0.79-2.13-3.39-5.13-6.22-7.17c-0.09-0.87-0.18-1.74-0.31-2.61
			c0.25,0.08,0.5,0.17,0.78,0.27c0.76,0.27,1.48,0.53,2.17,0.65c0.28,0.05,0.57-0.03,0.78-0.22c0.21-0.19,0.32-0.47,0.3-0.75
			c-0.14-1.84-1.26-4.56-2.83-6.99c0.51-0.35,0.99-0.73,1.39-1.16c0.26-0.28,0.32-0.7,0.14-1.05c-0.76-1.49-1.73-2.55-2.76-3.68
			c-0.08-0.09-0.16-0.17-0.24-0.26l0.46-0.47c0.23-0.24,0.32-0.59,0.22-0.91c-0.1-0.32-0.36-0.57-0.69-0.64
			c-2.62-0.56-2.59-2.27-1.93-5.78c0.18-0.97,0.35-1.89,0.37-2.74c0.01-0.28-0.12-0.56-0.34-0.74c-0.22-0.18-0.51-0.25-0.79-0.18
			c-1.06,0.25-2.27,0.8-3.51,1.53c-0.3-0.7-0.6-1.41-0.92-2.11l0.38-0.27c0.27-0.2,0.42-0.52,0.38-0.86
			c-0.04-0.33-0.26-0.62-0.57-0.75c-2.48-1.01-2.15-2.7-0.87-6.03c0.35-0.92,0.69-1.8,0.85-2.63c0.06-0.28-0.02-0.57-0.21-0.78
			c-0.19-0.22-0.46-0.33-0.75-0.32c-1.53,0.08-3.44,0.67-5.38,1.56c-0.25-1.13-0.58-2.14-1-2.94c-0.13-0.25-0.37-0.43-0.65-0.48
			c-0.28-0.05-0.57,0.03-0.78,0.22c-0.63,0.56-1.21,1.29-1.83,2.06c-2.23,2.79-3.51,3.94-5.64,2.32c-0.27-0.2-0.63-0.24-0.93-0.11
			c-0.31,0.14-0.52,0.43-0.55,0.76l-0.27,3.13c0,0.06,0,0.11,0,0.16c-2.62-0.35-5.09-0.38-6.97,0.05c-0.28,0.06-0.51,0.25-0.63,0.51
			c-0.12,0.26-0.12,0.55,0.01,0.81c0.48,0.96,1.19,1.92,1.94,2.93c0.08,0.11,0.16,0.22,0.24,0.32c-2.11,1.23-4.09,2.49-6,3.76
			c0.09-1.6-0.02-2.99-0.36-3.92c-0.11-0.3-0.37-0.53-0.69-0.59c-0.32-0.06-0.64,0.05-0.86,0.28c-0.64,0.7-1.28,1.56-1.96,2.47
			c-2.18,2.91-3.96,5.07-5.49,4.27c-0.25-0.13-0.54-0.14-0.8-0.03s-0.45,0.34-0.52,0.61l-0.81,3.05c-0.13,0.59-0.19,1.12-0.21,1.63
			c-1.12-2.98-2.85-5.93-4.4-7.44c-0.21-0.21-0.51-0.3-0.8-0.25c-0.29,0.05-0.54,0.24-0.67,0.5c-0.26,0.53-0.44,1.16-0.62,1.82
			c-0.6-2.56-1.52-4.9-2.63-6.35c-0.17-0.23-0.44-0.36-0.73-0.36c0,0,0,0-0.01,0c-0.28,0-0.55,0.13-0.73,0.35
			c-0.52,0.66-0.97,1.48-1.44,2.35c-0.71,1.31-1.32,2.28-1.95,2.91c-0.01-0.36,0.03-0.75,0.18-1.22c0.1-0.32,0.01-0.67-0.22-0.91
			c-0.23-0.24-0.58-0.34-0.9-0.25l-3.03,0.82c-1.22,0.39-2.19,0.99-3.03,1.69c-0.54-1.13-1.13-2.11-1.77-2.83
			c-0.19-0.21-0.46-0.32-0.75-0.32c-0.28,0.02-0.55,0.16-0.71,0.4c-0.1,0.14-0.18,0.32-0.28,0.48c-0.68-1.19-1.41-2.21-2.17-2.96
			c-0.2-0.2-0.48-0.3-0.77-0.26c-0.28,0.04-0.53,0.2-0.68,0.45c-0.36,0.61-0.65,1.33-0.95,2.08c0.02-0.19,0.04-0.37,0.06-0.58
			c0.11-0.86,0.2-1.68,0.17-2.42c-0.01-0.28-0.16-0.55-0.39-0.71c-0.23-0.17-0.53-0.21-0.8-0.13c-2.28,0.7-5.23,2.98-7.49,5.57
			c-0.66-0.27-1.38-0.49-2.17-0.62l-3.36-0.42c-0.34-0.04-0.68,0.11-0.87,0.39c-0.2,0.28-0.22,0.65-0.06,0.96
			c0.47,0.89,0.59,1.62,0.39,2.23c-0.1,0.3-0.29,0.58-0.54,0.85c-0.16-0.37-0.32-0.74-0.47-1.1c-0.4-0.97-0.78-1.88-1.26-2.62
			c-0.16-0.25-0.42-0.41-0.72-0.43c-0.29-0.03-0.58,0.1-0.77,0.32c-1.45,1.7-2.86,4.91-3.77,8.34c-0.3-0.25-0.59-0.5-0.9-0.75
			c0.14-0.17,0.22-0.38,0.21-0.61c-0.02-0.37-0.26-0.7-0.61-0.83c-0.54-0.19-0.89-0.43-0.96-0.65c-0.16-0.5,0.6-1.56,1.15-2.34
			c0.4-0.57,0.78-1.1,1.02-1.63c0.13-0.29,0.11-0.62-0.07-0.89c-0.17-0.26-0.46-0.42-0.77-0.42c0,0-0.01,0-0.01,0
			c-1.53,0.02-3.88,0.57-6.21,1.42c0.81-0.56,1.57-1.09,2.17-1.67c0.21-0.2,0.31-0.49,0.27-0.77c-0.03-0.29-0.2-0.54-0.45-0.68
			c-2.04-1.2-5.44-1.94-8.85-2.1c-0.05-0.41-0.12-0.82-0.25-1.24l-0.86-2.45c-0.11-0.32-0.39-0.55-0.73-0.61
			c-0.34-0.05-0.68,0.08-0.88,0.36c-0.6,0.8-1.17,1.13-1.81,1.15c0.35-0.69,1-1.43,1.6-2.1c0.55-0.62,1.07-1.2,1.44-1.81
			c0.15-0.25,0.18-0.55,0.07-0.82c-0.11-0.27-0.33-0.47-0.61-0.55c-3.14-0.86-9.55-0.15-13.37,1.76c-0.43-0.19-0.83-0.39-1.26-0.58
			c-1.67-0.72-3.5-0.54-4.97,0.33c-0.11-0.02-0.22-0.05-0.34-0.03c-0.29,0.04-0.54,0.22-0.68,0.48c-1.01,1.89-2.67,1.81-5.28,1.45
			c-0.78-0.11-1.48-0.2-2.22-0.2c-0.24,0-0.48,0.1-0.65,0.28s-0.27,0.41-0.26,0.66c0.02,2.17,1.72,4.98,3.87,6.92
			c-0.14,0.34-0.3,0.67-0.44,1.01l-2.43-0.31c-0.29-0.03-0.58,0.07-0.78,0.28c-0.2,0.21-0.29,0.5-0.25,0.79
			c0.54,3.28-1.96,4.7-4.61,6.21c-0.91,0.52-1.77,1.01-2.5,1.58c-0.19,0.15-0.32,0.37-0.35,0.62c-0.03,0.24,0.04,0.49,0.19,0.68
			c0.96,1.23,2.62,2.26,4.53,2.98c0.86,1.17,0.23,2.68-1.13,5.09c-0.49,0.86-0.95,1.68-1.24,2.48c-0.1,0.27-0.06,0.57,0.09,0.81
			s0.42,0.4,0.7,0.42c0.23,0.02,0.46,0.03,0.71,0.03c0.38,0,0.79-0.03,1.2-0.07c-0.16,1.12-0.28,2.23-0.39,3.34
			C214.8,140.86,212.53,147.94,213.03,151.94z M335.97,120.02c0,0,20.7,14.54,18.81,32.22c-0.78,7.28-3.61,13.04-7.63,16.98
			c-0.1-1.88-0.29-3.73-0.55-5.55c1.58-1.73,2.97-3.65,3.56-6.08l0.69-3.5c0.07-0.36-0.07-0.72-0.37-0.93
			c-0.29-0.21-0.68-0.23-1-0.05c-1.3,0.75-2.38,1-3.22,0.77c-1.28-0.37-2.11-1.92-2.92-3.42c-0.16-0.3-0.32-0.58-0.48-0.87
			c-0.03-0.08-0.07-0.16-0.1-0.24c2.55-1.9,4.71-4.2,5.77-6.5c0.12-0.26,0.11-0.56-0.02-0.81c-0.13-0.25-0.37-0.43-0.65-0.49
			c-1.05-0.2-2.24-0.22-3.51-0.24c-1.09-0.02-2.06-0.05-2.92-0.15c1.06-0.72,1.98-1.48,2.65-2.24c0.19-0.21,0.27-0.5,0.22-0.77
			c-0.05-0.28-0.22-0.52-0.47-0.65c-0.86-0.46-1.89-0.81-2.97-1.17c-3.7-1.23-5.91-2.16-4.89-5.59c0.1-0.32,0.01-0.67-0.23-0.91
			c-0.24-0.24-0.59-0.33-0.91-0.24l-3.53,1.02c-0.27,0.09-0.52,0.21-0.78,0.32c-1.65-1.59-3.38-3.07-5.23-4.42
			C330.82,122.38,335.97,120.02,335.97,120.02z M261.58,145.17c0.41,0.52,0.83,0.98,1.25,1.35c0.17,0.15,0.39,0.23,0.61,0.23
			c0.06,0,0.12-0.01,0.18-0.02c0.28-0.06,0.52-0.24,0.65-0.5c0.37-0.76,0.64-1.66,0.92-2.61c0.2-0.68,0.39-1.26,0.59-1.78
			c3.38,1.79,7.5,3.03,10.45,3.03c0.28,0,0.56-0.01,0.82-0.03c0.29-0.03,0.55-0.18,0.7-0.43c0.15-0.24,0.18-0.54,0.08-0.81
			c-0.29-0.79-0.76-1.6-1.26-2.46c-0.97-1.67-1.57-2.9-1.56-3.9c0.41-0.03,0.82-0.05,1.24-0.05c1.01,0,2,0.1,2.97,0.29
			c0.07,0.48,0.12,1,0.17,1.58c0.08,0.99,0.16,1.92,0.38,2.74c0.07,0.28,0.27,0.51,0.54,0.62c0.12,0.05,0.24,0.07,0.36,0.07
			c0.16,0,0.32-0.04,0.46-0.12c1.09-0.62,2.26-1.65,3.4-2.9c2.68,1.54,5.08,3.8,7.09,6.62c2-2.81,4.41-5.07,7.08-6.62
			c0.06,0.54,0.11,1.13,0.15,1.8c0.05,0.99,0.1,1.93,0.28,2.75c0.06,0.28,0.25,0.52,0.51,0.64c0.12,0.06,0.26,0.09,0.39,0.09
			c0.15,0,0.3-0.04,0.43-0.11c1.63-0.86,3.45-2.57,5.09-4.61l0.57,1.44c0.13,0.32,0.41,0.54,0.75,0.58
			c0.33,0.04,0.67-0.11,0.86-0.39c1.55-2.2,3.09-1.47,6.02,0.58c0.81,0.57,1.58,1.11,2.35,1.47c0.12,0.06,0.26,0.09,0.39,0.09
			c0.15,0,0.29-0.03,0.42-0.1c0.26-0.13,0.44-0.37,0.49-0.66c0.11-0.6,0.15-1.29,0.14-2.02c6.57,5.14,11.01,14.9,11.01,26.11
			c0,0,0.81,6.79-4.08,10.99c4.54,4.37,7.22,9.69,7.22,15.42c0,3.44-0.97,6.72-2.71,9.74c-0.11,0.08-0.23,0.16-0.34,0.26
			c-0.14,0.12-0.24,0.28-0.29,0.46c-0.07,0.24-0.16,0.46-0.24,0.7c-6.31,9.33-20.27,15.81-36.49,15.81
			c-22.14,0-40.09-12.07-40.09-26.97c0-5.74,2.68-11.05,7.22-15.42c-4.88-4.2-4.07-10.99-4.07-10.99
			C254.67,158.46,257.33,150.64,261.58,145.17z M247.25,120.02c0,0,5.14,2.36,10.67,6.49c-0.49,0.36-0.95,0.75-1.43,1.13
			c-5.15,0.36-11.72,2.84-14.51,5.63c-0.2,0.2-0.3,0.48-0.26,0.77c0.04,0.28,0.2,0.53,0.45,0.68c0.8,0.47,1.76,0.84,2.77,1.23
			c0.91,0.35,1.71,0.68,2.4,1.02c-1.67,2.23-3.17,4.62-4.51,7.17c-0.95,0.51-1.93,1.22-2.9,2.08c-2.32-0.4-4.48-0.56-5.93-0.39
			c-0.32,0.04-0.59,0.23-0.73,0.52c-0.14,0.29-0.12,0.62,0.05,0.89c0.37,0.58,0.91,1.16,1.48,1.77c0.43,0.45,0.9,0.96,1.26,1.45
			c-2.11,2.82-3.73,5.96-4.13,8.35c-0.05,0.28,0.04,0.57,0.23,0.78c0.19,0.21,0.47,0.31,0.76,0.29c0.92-0.08,1.92-0.34,2.98-0.61
			c0.57-0.15,1.09-0.28,1.59-0.39c-0.74,3.34-1.23,6.79-1.42,10.35c-4.02-3.94-6.86-9.7-7.63-16.98
			C226.54,134.55,247.25,120.02,247.25,120.02z"/>
		<path class="st0" d="M283.43,174.15c-1.15,2.56,1.06,5.14,1.31,5.43c0.31,0.35,0.75,0.56,1.22,0.58c1.56,0.07,3.05,1.01,4.21,2.64
			c0.33,0.46,0.86,0.73,1.42,0.73c0.56,0,1.1-0.27,1.42-0.73c1.17-1.63,2.66-2.57,4.22-2.64c0.47-0.02,0.91-0.23,1.22-0.58
			c0.26-0.28,2.46-2.86,1.31-5.43c-0.94-2.09-3.61-3.11-8.17-3.11C287.05,171.03,284.37,172.05,283.43,174.15z"/>
		<path class="st0" d="M311.5,185.86h-39.78c-0.62,0-1.2,0.28-1.58,0.77c-0.38,0.49-0.51,1.12-0.36,1.72
			c3.09,12.25,11.87,20.47,21.83,20.47c9.97,0,18.74-8.23,21.84-20.47c0.15-0.6,0.02-1.24-0.36-1.72
			C312.7,186.14,312.12,185.86,311.5,185.86z"/>
		<path class="st0" d="M307.41,172.2c3.38,0,6.58-1.85,8.55-4.94c0.68-1.07,0.48-2.47-0.48-3.3l-4.19-3.65l4.19-3.65
			c0.95-0.83,1.15-2.23,0.47-3.3c-1.98-3.09-5.17-4.94-8.55-4.94c-5.81,0-10.54,5.34-10.54,11.89
			C296.87,166.87,301.6,172.2,307.41,172.2z"/>
		<path class="st0" d="M277.4,172.2c3.38,0,6.57-1.85,8.55-4.94c0.68-1.06,0.48-2.47-0.47-3.3l-4.18-3.65l4.18-3.65
			c0.95-0.83,1.15-2.23,0.47-3.3c-1.98-3.09-5.17-4.94-8.55-4.94c-5.81,0-10.54,5.34-10.54,11.89
			C266.86,166.87,271.58,172.2,277.4,172.2z"/>
	</g>
</g>
</svg>
