<?xml version="1.0" encoding="utf-8"?>
<!-- Generator: Adobe Illustrator 21.1.0, SVG Export Plug-In . SVG Version: 6.00 Build 0)  -->
<svg version="1.1" id="Layer_1" xmlns="http://www.w3.org/2000/svg" xmlns:xlink="http://www.w3.org/1999/xlink" x="0px" y="0px"
	 viewBox="0 0 600 400" style="enable-background:new 0 0 600 400;" xml:space="preserve">
<style type="text/css">
	.st0{fill:#FFFFFF;} 
</style>
<g id="US_Wellness_Meats">
	<g>
		<g>
			<path class="st0" d="M293.45,328.6c-48.16,0-90.2-26.56-112.26-65.8l-5.53,1.06C198.38,305.61,242.66,334,293.45,334
				c69.09,0,126.19-52.53,133.26-119.75c-1.81,0.96-3.7,1.81-5.67,2.53C412.76,279.83,358.73,328.6,293.45,328.6z"/>
			<path class="st0" d="M164.75,199.9c0-71,57.7-128.7,128.7-128.7c53.92,0,100.22,33.34,119.34,80.44
				c1.49-0.89,3.05-1.68,4.68-2.38C397.43,100.45,349.4,66,293.45,66c-73.9,0-134,60.1-134,134c0,10.59,1.24,20.89,3.57,30.78
				l2.83-14.04C165.13,211.22,164.75,205.61,164.75,199.9z"/>
			<path class="st0" d="M311.23,231.23c-0.05,0-0.1,0-0.15,0c0.02,0,0.03,0,0.05,0C311.17,231.23,311.2,231.23,311.23,231.23z"/>
			<path class="st0" d="M229.75,186.1c-0.21-0.06-0.41-0.13-0.61-0.2c0.94-3.98,2.24-7.82,3.87-11.49
				c3.39-2.02,6.64-4.27,10.04-5.52c7.2,3.7,12.1,10.4,14.9,17.3c0.39,1.13,0.7,2.28,0.95,3.45c1.24-1.41,2.61-2.78,4.11-4.07
				c5.54-4.76,12.31-8.18,18.59-9.43c-0.57-1.67-1.16-3.34-1.96-4.86c-4-8.4-8.2-15.5-14-22.8c0,0-0.13-0.19-0.19-0.57
				s-0.11-0.93-0.11-0.93s-0.33-3.59-0.44-5.39c7.79-3.72,16.42-5.95,25.51-6.34c3.21,6.03,6.21,12.41,5.03,19.53l-4.4-5.3l-6.3-9.4
				c-1.4,8.1,1.3,17.8,6.7,23.8c0.8,1,2.1,1.6,2.2,2.9c-1.3,2.98-2.66,5.67-4.08,8.47c5.37,0.02,9.44,1.68,12.11,4.93
				c0.67,0.82,1.19,1.68,1.62,2.57c2.14-2.94,4.75-5.72,7.76-8.21c0.72-0.59,1.45-1.13,2.18-1.62c-0.44-3.7-0.15-7.31,2.82-9.84
				c3.74-5.84,9.16-10.96,11.95-17.94c7.59,4.74,14.14,10.97,19.26,18.29l6.35-2.2l1.6-0.55c1.56-6.08,5.54-11.31,8.03-17.1
				c1.9-5.2,2.8-10.3,3.2-15.3c0-0.2-0.2-0.3-0.4-0.3c-0.6,0.2-0.9,0.5-1.2,0.7c-2.2,4.6-4.3,9.4-6.6,14
				c-2.67,5.52-4.93,11.12-7.58,16.37c-5.69-7.75-12.9-14.3-21.19-19.22c0.06-0.38,0.13-0.75,0.18-1.14c-0.3-2,1-4,0.9-5.7
				c-0.4,0-1-0.2-1.2,0.2c-0.1,0.6-0.4,1.2-0.8,2.1c-0.69,0.96-1.27,1.96-1.88,2.96c-9.98-5.33-21.35-8.36-33.42-8.36
				c-0.57,0-1.14,0.03-1.71,0.04c-0.95-0.98-1.95-1.91-2.99-2.74c-0.7-1-1.2-2.1-2-3.2c0-0.2-0.5-0.6-0.6-0.1c0,1.3,0.3,2.3,0.5,3.7
				c0.39,0.84,0.81,1.69,1.24,2.54c-8.07,0.63-15.77,2.6-22.86,5.7c0.01-0.28,0-0.55,0.02-0.84c0.3-10.9,4-21.9,5.1-32.5l-0.2-0.1
				l-0.3,0.1c-1.4,2.3-2.7,4.8-3.6,7.7c-2.62,9.41-5.61,19.58-7.61,28.94c-0.22,0.13-0.44,0.25-0.67,0.38
				c-3.73-3.74-7.3-6.43-11.32-8.93c-3.6-1.9-7.8-5.9-12.7-5.1c5,4.5,11.2,9.7,16,15.6c0.85,0.69,1.59,1.41,2.27,2.15
				c-7.49,5.38-13.89,12.17-18.82,19.98c-8.96,0.36-14.62,8.84-22.76,11.27c-0.2,0-0.4,0.3-0.3,0.5c0.3,0.3,0.3,0.5,0.8,0.8
				c1.6,1.1,3.1,1.4,5,2c3.78,1.21,7.14,0.95,10.25-0.04c-0.68,1.96-1.29,3.96-1.8,5.99c-1.72-0.88-3.44-1.75-5.65-2.36
				c-4.2-1.5-8.8-1.5-12.9-2.6c-1.6-0.3-3.3-1.5-4.4-1c0.5,0.5,1.1,0.8,2,1.3c5.54,3.64,13.4,5.64,20.09,8.55
				c-0.23,1.18-0.42,2.37-0.59,3.56c2.7-1.86,5.75-3.38,8.85-4.46C230.99,186.53,230.38,186.31,229.75,186.1z M323.35,142.52
				c-4.06,4.59-9,9.65-13.8,13.38l-2.5-8.3c-0.3,0-0.4,0.1-0.5,0.2c-1.8,4.6-0.9,9.6-0.7,14.3c-0.3,0.6-0.6,1-1,1.3
				c-8.7-5.4-1.5-15.4-6-23.2c-0.83-1.59-1.84-3.27-2.98-4.93C305.73,135.66,315.05,138.23,323.35,142.52z M254.88,147.57
				c3.35,6.42,3.03,14.21,2.37,22.33c-0.5,0.8,0.2,1.8-0.3,2.5c-0.4-0.1-0.6-0.5-0.8-0.9c-4.57-4.66-9.91-7.84-17.09-7.85
				C243.37,157.43,248.73,151.98,254.88,147.57z"/>
			<path class="st0" d="M350.54,233.65c-1.19-1.37-2.46-2.51-3.77-3.52c-2.04,1.24-4.29,2.13-6.78,2.61
				c-1.38,0.26-2.6,0.38-3.74,0.38c-2.65,0-4.98-0.74-6.84-2.12c-4.39,3.5-9.56,5.89-14.12,6.81l-0.04,0.01l-0.04,0.01
				c-1.35,0.26-2.72,0.39-4.08,0.39c-5.61,0-10.71-2.14-14.17-5.9c-6.76,7.34-17.98,13.19-24.65,14.51
				c-1.62,0.31-3.31,0.47-5.04,0.47c-2.8,0-5.45-0.4-7.87-1.15c0.54,4.04,0.68,7.77,0.88,11.98c-4.12-2.39-7.95-5.21-11.44-8.4
				l-2.49,0.49l-3.82,0.76c5.31,5.39,13.32,10.31,18.26,13.45c5.19,3.31,21.33,8.08,31.13,7.83c0.44,0.01,0.87,0.03,1.31,0.03
				c5.01,0,9.89-0.53,14.61-1.52c2.93,5.15,5.72,10.38,5.79,16.92c0.3,0.7,0.4,1.6,1.2,1.5c0.49-6.92,2.06-14.14,0.93-20.59
				c0.55-0.18,1.09-0.36,1.63-0.56c3.38-0.97,9.68-3.8,12.33-5.46c2.76-1.73,9.52-6.97,13.54-10.96l4.76,1.26v-1
				c-1.07-0.53-2.12-1.19-3.15-1.92c3.22-3.4,6.11-7.11,8.61-11.09c1.53,0.22,3.05,0.51,4.53,1.01l0.5-0.9
				c-1.25-0.77-2.44-1.59-3.64-2.41c1.8-3.11,3.37-6.37,4.69-9.74c-1.74-0.64-3.28-1.54-4.61-2.68
				C353.75,227.46,352.26,230.63,350.54,233.65z M295.46,266.94l1.99-16.94l5.2,10.7c0,0.1,0.2,0.4,0.4,0.8
				c0.61,1.51,1.32,2.97,2.09,4.41C301.98,266.49,298.75,266.84,295.46,266.94z M330.93,255.15c0.06-2.05,0.14-4,1.22-6.45
				l5.19,1.37C335.32,251.9,333.17,253.59,330.93,255.15z M340.8,246.7c-2.45-2.13-4.79-4.35-7.05-6l1.8-6.8
				c3.4,0.8,6.2,3.5,10.4,3.9c0.6,0.13,1.21,0.24,1.81,0.34C345.69,241.19,343.35,244.05,340.8,246.7z"/>
		</g>
		<g>
			<path class="st0" d="M245.05,244l-18.6,3.7c0,0,5.9-28.9,6.9-33.8c1.4-7-0.7-14.1-7.1-9.1c-3.5,2.7-4.6,7.2-5.4,11.1l-7,34.1
				l-18.3,3.5l6.8-33.4c1.6-7.7-0.5-14.8-7.1-9.7c-2.7,2.1-3.9,4.2-4.7,8l-7.7,37.6l-18.3,3.5l10.8-53.6l18.2-3.5l-0.6,3.3
				c8.1-7.3,27.3-12.7,27.9-1.5c3.1-7.7,18.6-14.2,25.9-10.8c4.4,2.1,7.3,6.6,6.2,12.2C251.85,210.5,245.05,244,245.05,244z"/>
			<path class="st0" d="M272.85,222.7c-0.2,1-0.4,1.8-0.6,2.6c-1.6,8,4.8,6,7,5.4c5.2-1.6,13.7-7.8,13.7-7.8l1.8,1.4
				c-3.8,7.2-16.6,14.9-23.7,16.3c-7.8,1.5-19.3-1.8-17.2-12.3c1-5,2.5-12,4.6-22.7c2-10.2,14.2-20,24.8-22
				c16.6-3.2,15.4,5.1,13.4,15.1C294.65,208.2,284.65,220.4,272.85,222.7z M285.65,190.6c-2.5,0.5-7.1,3.2-8.3,9.3
				c-1.5,6.9-2.2,10.9-3.2,15.9c6.3-1.2,12.9-5,14.5-13.2c0,0,0-0.2,0.6-3C289.85,196.4,290.45,189.7,285.65,190.6z"/>
			<path class="st0" d="M348.15,207.4c-1.1,5.4,2.5,3.6,2.9,1.8l1-0.1c-1.7,8-5,15.8-13.3,17.4c-6.4,1.2-6.8-1.7-7.2-8.5
				c-2.8,7-11.2,12.3-17.6,13.6c-7.8,1.5-15.8-3.5-14-12.3c1-5,2.3-11.5,4.5-22.2c1.2-5.5,5.3-11.7,11.1-16.5
				c8.5-7,18.7-4.9,21.2-3.2l0.4-2.4l18.8-6.5L348.15,207.4z M329.65,182.8c-2.5,0.5-4.9,3-6,8.3c-2.2,10.7-4.6,22.9-5.6,27.9
				c-0.8,4,1.5,4.3,3.6,3.9c3.1-0.6,6.9-4.8,7.8-8.9l4.6-22.6C335.25,184.9,332.95,182.1,329.65,182.8z"/>
			<path class="st0" d="M389.35,174.3c0,0-1.5-0.8-2.8-0.6l-6.6,1.3l-5.5,26.9c-1,5.1-1.5,8.7,5.4,7.4c2.8-0.5,5.3-3.3,7.8-6.1
				l-2.2,11.2c-3.2,3.1-7.2,5.7-11.2,6.5c-14.1,2.7-20.6-0.9-16.8-19.8l8.9-43.7l17.9-3.4l-2.5,12.3l6.5-1.2
				c1.5-0.3,3.5-2.1,3.5-2.1L389.35,174.3z"/>
			<path class="st0" d="M440.05,160.7c-1.7-0.9-3.4-1.5-5.9-1c-5.9,1.2-9.1,5.3-8.4,9.7c0.8,5,16.2,6.6,13,21.3
				c-2.3,10.4-13.6,19.4-26,21.8c-9.3,1.8-18.4-1.6-19.7-8l1.2-5.7c1.4,3.8,6,7,14.4,5.4c3.1-0.6,6.1-3.9,6.1-7.6
				c0-9.6-14.3-5.7-11-22c1.7-8.6,10.3-17.9,23.4-20.4c5.4-1,11.6,1.4,13.4,3.5L440.05,160.7z"/>
		</g>
		<g>
			<path class="st0" d="M176.25,176.5c-1.3-0.4-1.9,0-2.4,1.9l-1.5-0.4l2.6-9.5l1.5,0.4c-0.5,1.9-0.2,2.5,1.1,2.9l34.2,9.5
				c1.7,0.5,4.2,0.3,4.8-1.8c0.6-2.1-0.8-3.3-3.2-4l-34.2-9.5c-1.3-0.4-1.9,0-2.4,1.9l-1.5-0.4l2.2-7.9l1.5,0.4
				c-0.5,1.9-0.2,2.5,1.1,2.9l35.6,9.9c2.7,0.7,3.8,3.6,2.6,8c-1.2,4.3-3.5,6.5-6.4,5.7L176.25,176.5z"/>
			<path class="st0" d="M195.65,145c-4.8-2.5-8-2-9.2,0.2c-0.8,1.5,0.5,2.7,2,3.5s7.4,3,16.3,3.2c4.8,0.1,13,0.4,17.7,2.9
				c4.3,2.3,4.1,7,2.8,9.5c-1.2,2.2-2.3,3.3-3,3.9c-0.6,0.5-0.9,0.8-1,1.1c-0.3,0.5,0,1.2,0.5,1.7l-0.8,1.5l-14.3-7.6l1.5-2.9
				l5.5,2.9c4,2.1,8.4,1.2,9.7-1.1c0.8-1.4,0-2.8-1.8-3.8c-3.8-2-12.3-2.9-17.4-3c-6.1-0.1-13.1-1.5-16.7-3.4
				c-4-2.1-4.2-6.1-2.6-9.1c0.8-1.4,1.7-2.5,2.2-2.8c0.4-0.3,0.8-0.6,1-1.1s0-1.1-0.3-1.6l0.8-1.5l13.6,7.2l-1.5,2.9L195.65,145z"/>
			<path class="st0" d="M217.45,104.8l1,1.2c-1.2,1-1.8,2.2-0.8,3l18.3,16.7l0.2-0.1l-13.5-20.7c-0.7-1.1-2.1-0.6-3.4,0.5l-1-1.2
				l6.6-5.7l1,1.2c-1.2,1-1.6,2-0.8,3l23.4,34.8l-2.7,2.3l-20.1-18l-0.2,0.1l15.6,21.9l-2.7,2.3l-31.6-27.7c-1-0.9-1.9-0.7-3.1,0.3
				l-1-1.2l6.9-5.9l1,1.2c-1.2,1.1-1.5,1.9-0.5,2.8l18.6,16.3l0.2-0.1l-14.3-20.1c-0.7-1-1.9-0.8-3.3,0.4l-1-1.2L217.45,104.8z"/>
			<path class="st0" d="M252.95,134.5l-0.7-1.4c1.8-0.8,2-1.5,1.5-2.7l-16.3-34.7c-0.6-1.2-1.2-1.4-3-0.6l-0.7-1.4l15-7.1l6.5,13.7
				l-3,1.4l-3.3-6.9c-0.6-1.3-1.5-2.9-2.6-3.6c-1.1-0.7-2.9-0.4-3.9,0.1c-0.9,0.4-1.2,1.1-0.6,2.3l7.3,15.5c0.2,0.4,0.3,0.7,0.9,0.4
				c1.8-0.8,1.9-1.4,1.3-2.8l-1-2.2l2-1l4.8,10.2l-2,1l-1-2.2c-0.8-1.7-1.4-2.1-3.2-1.2c-0.6,0.3-0.5,0.5-0.2,1l7.5,16
				c0.6,1.2,1.2,1.4,2.2,1c1-0.5,2.4-1.6,2.6-2.9c0.2-1.3-0.5-3-1.1-4.3l-3.3-7.1l3-1.4l6.5,13.8L252.95,134.5z"/>
			<path class="st0" d="M267.45,127.6l-0.4-1.5c1.9-0.5,2.3-1,2-2.3l-8.9-37.2c-0.3-1.3-0.9-1.6-2.8-1.2l-0.4-1.5l9.6-2.3l0.4,1.5
				c-1.9,0.5-2.3,1-2,2.3l8.9,37.2c0.2,0.9,1.2,1.6,2.6,1.2c1.6-0.4,2.4-1.6,2.6-2.5c0.3-1.1,0.2-2.6,0-3.7l-1.9-8.1l3.2-0.8
				l3.5,14.9L267.45,127.6z"/>
			<path class="st0" d="M283.25,123.8v-1.6c1.9-0.1,2.4-0.5,2.4-1.9l-1.1-38.3c0-1.3-0.6-1.8-2.5-1.7v-1.6l9.8-0.3V80
				c-1.9,0.1-2.4,0.5-2.4,1.9l1.1,38.3c0,1,0.9,1.8,2.3,1.7c1.6,0,2.6-1,3-1.9c0.5-1,0.8-2.5,0.7-3.6l-0.2-8.3l3.3-0.1l0.4,15.3
				L283.25,123.8z"/>
			<path class="st0" d="M299.25,123.1l0.3-1.5c1.9,0.4,2.5,0,2.8-1.3l7.3-37.6c0.3-1.3-0.2-1.9-2.1-2.2l0.3-1.5l8.3,1.6l0.8,24h0.2
				l3.8-19.7c0.3-1.3-0.2-1.9-2.1-2.2l0.3-1.5l8.1,1.6l-0.3,1.5c-1.9-0.4-2.5,0-2.8,1.3l-8,40.9l-2.7-0.5l-1.2-38.3h-0.2l-6.5,33.3
				c-0.3,1.3,0.2,1.9,1.7,2.2l-0.3,1.5L299.25,123.1z"/>
			<path class="st0" d="M317.75,126.8l0.6-1.4c1.8,0.8,2.4,0.6,3-0.7l15.4-35c0.5-1.2,0.3-1.9-1.5-2.6l0.6-1.4l15.2,6.7l-6.1,13.9
				l-3-1.3l3.1-7c0.6-1.3,1.2-3.1,1-4.3c-0.2-1.3-1.6-2.4-2.7-2.9c-0.9-0.4-1.6-0.2-2.1,1l-6.9,15.7c-0.2,0.4-0.3,0.7,0.2,1
				c1.8,0.8,2.4,0.5,3-0.9l1-2.3l2.1,0.9l-4.5,10.3l-2.1-0.9l1-2.3c0.7-1.7,0.6-2.4-1.2-3.2c-0.6-0.2-0.7,0-0.9,0.5l-7.1,16.1
				c-0.5,1.2-0.3,1.9,0.7,2.3c1,0.5,2.8,0.8,3.9,0c1.1-0.7,1.9-2.4,2.5-3.7l3.1-7.1l3,1.3l-6.2,14L317.75,126.8z"/>
			<path class="st0" d="M362.85,111.8c3.1-4.4,3.1-7.7,1-9.2c-1.4-1-2.8,0.2-3.7,1.5c-1,1.4-3.9,6.9-5.2,15.7
				c-0.7,4.8-2.1,12.9-5.1,17.2c-2.8,4-7.4,3.2-9.8,1.5c-2-1.4-3-2.7-3.4-3.5c-0.4-0.7-0.7-1-0.9-1.2c-0.5-0.4-1.1-0.2-1.7,0.3
				l-1.4-1l9.3-13.2l2.7,1.9l-3.6,5c-2.6,3.7-2.3,8.2-0.1,9.8c1.3,1,2.8,0.3,4-1.3c2.5-3.5,4.5-11.8,5.2-16.9
				c0.9-6,3.2-12.8,5.5-16.1c2.6-3.7,6.5-3.4,9.4-1.4c1.3,0.9,2.2,2,2.5,2.5c0.2,0.4,0.5,0.9,0.9,1.2c0.4,0.3,1.1,0.1,1.6-0.1l1.4,1
				l-9.1,12.8l-2.7-1.9L362.85,111.8z"/>
			<path class="st0" d="M379.35,127.3c3.9-3.7,4.5-6.9,2.8-8.8c-1.2-1.3-2.7-0.4-3.9,0.7c-1.3,1.2-5.2,6-8.2,14.4
				c-1.7,4.5-4.6,12.2-8.4,15.8c-3.5,3.3-7.9,1.7-9.9-0.4c-1.7-1.8-2.4-3.2-2.7-4.1c-0.3-0.7-0.5-1.1-0.7-1.3
				c-0.4-0.4-1.1-0.4-1.8,0l-1.2-1.3l11.8-11.1l2.2,2.4l-4.5,4.2c-3.3,3.1-3.9,7.6-2.1,9.5c1.1,1.2,2.6,0.9,4.1-0.5
				c3.1-2.9,6.7-10.7,8.4-15.5c2-5.7,5.7-11.9,8.6-14.7c3.3-3.1,7.1-2,9.5,0.5c1.1,1.2,1.8,2.4,2,3c0.2,0.4,0.3,1,0.7,1.3
				c0.4,0.4,1,0.3,1.6,0.2l1.2,1.3l-11.4,10.7l-2.2-2.4L379.35,127.3z"/>
		</g>
		<g>
			<path class="st0" d="M213.95,259.5c3.7-2.8,7.7-5.5,9.5-3.1c1.8,2.4-1.8,5.5-5.4,8.4c-4.2,3.2-8.2,5.9-10,3.5
				C206.15,265.9,209.75,262.7,213.95,259.5z M216.65,263c6-4.6,6.4-5.7,6.1-6.2c-0.4-0.5-1.6-0.3-7.5,4.3c-6.5,5-7,6.1-6.6,6.6
				C208.95,268.2,210.15,268,216.65,263z"/>
			<path class="st0" d="M216.45,275.9c-0.4,0.4-0.4,0.7,0,1.3l-0.5,0.4l-1.8-1.9l0.4-0.3l-0.1-0.1c-0.4-0.1-0.9-0.3-1.4-0.8
				c-0.8-0.8-0.9-1.7,0.1-2.6l8.5-7.7c0.4-0.4,0.4-0.7,0-1.3l0.5-0.4l1.7,1.9l-9.3,8.5c-0.5,0.5-1,1-0.5,1.5
				c0.4,0.5,1.1,0.3,1.7-0.3l8.2-7.5c0.4-0.4,0.4-0.7-0.2-1.5l0.5-0.4l2,2.1L216.45,275.9z"/>
			<path class="st0" d="M219.75,279.2c-0.4,0.4-0.4,0.7,0.2,1.4l-0.4,0.5l-2.7-2.6l0.4-0.5c0.6,0.5,0.9,0.5,1.3,0.1l8.2-8.6
				c0.4-0.4,0.4-0.7-0.1-1.3l0.4-0.5l1.9,1.8l-0.3,0.3l0.1,0.1c0.6,0.2,1,0.4,1.3,0.7c0.6,0.5,0.9,1.4,0,2.2c-1,1.1-1.7,1.4-2.3,0.8
				c-0.4-0.4-0.3-0.9,0-1.3c0.3-0.3,0.7-0.4,1-0.4c0.4,0,0.6-0.1,0.8-0.3s0.2-0.4-0.1-0.7c-0.5-0.5-1.4-0.5-2.2,0.4L219.75,279.2z"
				/>
			<path class="st0" d="M236.15,278.9c0.5-0.6,1-1.3,0.2-1.9c-0.8-0.6-1.6,0-2,0.6c-0.4,0.6-0.5,1.1-0.5,1.5c0,0.2,0,0.5-0.3,0.9
				c-0.2,0.3-0.7,0.4-1.2,0c-0.5-0.3-0.6-1.1,0.5-2.4c1.3-1.7,2.6-2.1,4-1c1.4,1.1,1.4,2.2-0.3,4.5l-5.7,7.4
				c-0.3,0.5-0.3,0.9,0.2,1.3l-0.5,0.6l-0.5-0.4c-0.5-0.3-0.7-0.9-0.9-1.3c-0.7-0.2-1.3-0.4-1.8-0.7c-0.8-0.6-1.3-1.8,0.2-3.9
				c1.8-2.3,4.1-2.7,5.3-2.8c0.8-0.1,1.5-0.3,1.8-0.7L236.15,278.9z M233.65,282L233.65,282c-1.7,0.3-3,1-4.6,3
				c-1,1.4-1.4,2-0.8,2.4c0.4,0.3,1,0.4,1.2,0L233.65,282z"/>
			<path class="st0" d="M239.75,280.4c0.3-0.5,0.3-0.8-0.4-1.2l0.3-0.5l2.2,1.4l-0.2,0.3h0.1c0.3,0,0.7,0,1.2,0.3
				c1,0.7,1.5,1.7,0.2,3.6l-5.7,8.7c-0.3,0.5-0.3,0.8,0.4,1.2l-0.3,0.5l-2.7-1.8l0.3-0.5c0.4,0.2,0.7,0.1,1-0.3l5.9-9
				c0.5-0.7,1-1.5,0.4-1.9c-0.7-0.5-1.3,0.1-1.6,0.6l-6.1,9.3c-0.3,0.5-0.3,0.8,0.1,1.1l-0.3,0.5l-2.8-1.8l0.3-0.5
				c0.7,0.4,1,0.3,1.3-0.2L239.75,280.4z"/>
			<path class="st0" d="M241.45,295.4c-0.3,0.5-0.2,0.8,0.4,1.2l-0.3,0.5l-3.1-1.8l0.3-0.5c0.7,0.3,1,0.3,1.3-0.2l5.9-10.3
				c0.3-0.5,0.2-0.8-0.4-1.2l0.3-0.5l2.3,1.3L241.45,295.4z M249.55,281.6c-0.3,0.6-1,0.7-1.5,0.4s-0.7-0.9-0.4-1.5
				c0.4-0.7,1-0.8,1.5-0.6C249.75,280.3,249.95,280.9,249.55,281.6z"/>
			<path class="st0" d="M249.15,286.2c0.2-0.5,0.2-0.8-0.5-1.2l0.3-0.6l2.4,1.1l-0.2,0.4h0.1c0.4,0,0.8,0,1.3,0.2
				c0.4,0.2,0.9,0.6,1.1,1c0.5,0,1,0.1,1.6,0.3c0.9,0.4,1.7,1.5,0.8,3.3l-4.6,9.7c-0.2,0.5-0.2,0.8,0.5,1.2l-0.3,0.6l-3-1.5l0.3-0.6
				c0.4,0.1,0.7,0,0.9-0.5l4.6-9.7c0.4-0.8,0.8-1.6,0.2-1.9c-0.8-0.4-1.3,0.3-1.5,0.8l-4.8,10c-0.2,0.5-0.2,0.8,0.2,1l-0.3,0.6
				l-2.4-1.2l0.3-0.6c0.4,0.1,0.7,0,0.9-0.5l4.6-9.4c0.4-0.8,0.8-1.6,0.2-1.9c-0.7-0.4-1.2,0.3-1.5,0.8l-4.8,10
				c-0.2,0.5-0.2,0.8,0.2,1l-0.3,0.6l-2.9-1.4l0.3-0.6c0.7,0.3,1,0.2,1.2-0.3L249.15,286.2z"/>
			<path class="st0" d="M260.95,292.4c0.3-0.7,0.6-1.5-0.3-1.8c-0.9-0.3-1.5,0.4-1.8,1.1s-0.1,1.2,0,1.5c0.1,0.2,0.1,0.5,0,0.9
				s-0.6,0.6-1.1,0.4s-0.9-0.9-0.3-2.5c0.8-2,1.9-2.8,3.6-2.2c1.6,0.6,2,1.7,1,4.4l-3.3,8.7c-0.2,0.5,0,1,0.6,1.2l-0.3,0.7l-0.6-0.2
				c-0.5-0.2-1-0.6-1.2-1c-0.8,0-1.4,0-1.9-0.2c-1-0.4-1.8-1.3-0.9-3.8c1-2.7,3.1-3.8,4.3-4.2c0.8-0.3,1.3-0.7,1.5-1.2L260.95,292.4
				z M259.55,296.1L259.55,296.1c-1.6,0.8-2.6,1.9-3.5,4.2c-0.6,1.6-0.7,2.3-0.1,2.6c0.5,0.2,1,0.1,1.2-0.3L259.55,296.1z"/>
			<path class="st0" d="M263.05,304.6c-0.2,0.5,0,0.8,0.7,1.1l-0.2,0.6l-3.4-1.1l0.2-0.6c0.8,0.2,1,0,1.2-0.5l4.9-15.9
				c0.2-0.5,0-0.8-0.7-1.1l0.2-0.6l2.5,0.8L263.05,304.6z"/>
			<path class="st0" d="M266.35,301.8l1.1,0.3l-0.5,2c-0.3,1.3-0.1,2.3,0.6,2.5c0.6,0.1,0.8-0.2,0.9-0.6c0.2-0.9,0.1-3-0.4-6.5
				c-0.2-1.2-0.2-3.1,0.2-4.8c0.3-1.4,1.3-2,2.4-1.8c0.5,0.1,0.9,0.5,1.3,0.8l0.3-0.4l0.8,0.2l-1.3,5.1l-1.1-0.3l0.6-2.4
				c0.3-1.4,0.2-2-0.5-2.2c-0.6-0.2-0.9,0.3-1.1,0.9c-0.2,0.8-0.3,2.7,0.1,5c0.4,2.1,0.6,4.7,0.2,6.5c-0.3,1.1-1.2,1.5-2.2,1.3
				c-0.7-0.2-1.2-0.5-1.5-0.9l-0.5,0.4l-0.8-0.2L266.35,301.8z"/>
			<path class="st0" d="M282.85,302.8l-3.4-0.5c-0.7,5.1-0.9,6.4,0,6.5c1,0.1,1.4-0.7,1.7-2.5l0.2-1.6l1.2,0.2l-0.2,1.6
				c-0.3,2-1,3.4-3,3.1c-2-0.3-2.4-2.1-1.6-7.8c0.7-5.4,1.5-7.1,3.6-6.8c2,0.3,2.3,2.1,2,4L282.85,302.8z M279.55,301.5l1.8,0.2
				l0.5-3.5c0.1-0.9,0.3-2.4-0.6-2.5C280.35,295.6,280.15,297.1,279.55,301.5z"/>
			<path class="st0" d="M288.35,298c0-0.8,0.1-1.6-0.8-1.7c-1-0.1-1.3,0.8-1.4,1.6c0,0.7,0.2,1.2,0.4,1.5c0.2,0.2,0.3,0.5,0.2,0.9
				c0,0.4-0.4,0.7-1,0.7s-1.1-0.6-1-2.3c0.1-2.2,1-3.2,2.8-3.1c1.8,0.1,2.4,1.1,2.3,3.9l-0.6,9.3c0,0.6,0.3,0.9,0.9,1v0.8h-0.6
				c-0.6,0-1.1-0.3-1.4-0.6c-0.7,0.2-1.3,0.4-1.9,0.4c-1-0.1-2.1-0.8-2-3.4c0.2-2.9,1.9-4.5,2.9-5.3c0.6-0.5,1-1.1,1.1-1.6
				L288.35,298z M288.15,302L288.15,302c-1.3,1.2-2,2.5-2.1,5c-0.1,1.7,0,2.4,0.7,2.5c0.5,0,1-0.2,1-0.7L288.15,302z"/>
			<path class="st0" d="M292.25,297.1c0-0.5-0.6-0.7-1.2-0.8v-0.6c1.1,0,1.5-0.5,1.5-1.3v-2.6h1.3v3.9h1.5v0.6
				c-0.9,0.1-1.5,0.3-1.5,0.8v11.6c0,0.6,0,1,0.3,1s0.3-0.4,0.3-1v-1.6h1.1v1.9c0,1-0.6,1.5-1.6,1.4c-1.3,0-1.9-0.5-1.9-1.7
				L292.25,297.1z"/>
			<path class="st0" d="M303.75,308.6c0.1,0.6,0.3,0.8,1.2,0.7l0.1,0.6l-3.7,0.4l-0.1-0.6c0.8-0.1,1-0.4,0.9-0.9l-1.1-11.8
				c-0.1-0.6-0.3-0.8-1.1-0.7l-0.1-0.6l2.6-0.2v0.4h0.1c0.6-0.3,0.9-0.5,1.4-0.5c0.8-0.1,1.6,0.2,1.7,1.5c0.1,1.5-0.1,2.2-0.9,2.3
				c-0.6,0.1-0.9-0.4-0.9-0.8s0.1-0.7,0.4-1s0.3-0.6,0.3-0.8c0-0.3-0.2-0.4-0.7-0.4c-0.7,0.1-1.3,0.7-1.2,1.9L303.75,308.6z"/>
			<path class="st0" d="M310.25,307.8c0.1,0.6,0.3,0.7,1.1,0.7l0.1,0.6l-3.6,0.5l-0.1-0.6c0.8-0.2,0.9-0.4,0.8-1l-1.7-11.7
				c-0.1-0.6-0.3-0.7-1.1-0.7l-0.1-0.6l2.6-0.4L310.25,307.8z M308.15,291.9c0.1,0.6-0.3,1.2-0.9,1.3c-0.6,0.1-1.1-0.3-1.2-1
				c-0.1-0.8,0.3-1.3,0.9-1.4C307.55,290.8,308.05,291.2,308.15,291.9z"/>
			<path class="st0" d="M317.45,308.7c1.9-0.4,2.8,0.1,3,1c0.1,0.7-0.6,1.4-2.2,1.8l-2.5,0.5c-1.3,0.3-2.3,0.1-2.4-0.6
				c-0.1-0.5,0.2-1,0.6-1.2c-0.6-0.2-0.9-0.5-1-0.9c-0.1-0.3,0.2-0.7,0.6-1.1c-0.4-0.4-1.2-1.3-2.3-6.6c-1.1-5.2-0.9-7.2,1.1-7.6
				c0.7-0.2,1.1-0.1,1.7,0.3c0.3-0.4,0.7-0.8,1.4-1c1.3-0.2,1.9,1,2.1,1.9c0.1,0.6,0,1.1-0.6,1.2c-0.6,0.1-0.9-0.2-1-0.6
				c-0.1-0.3,0-0.6,0-0.8c0.1-0.3,0-0.6,0-0.8s-0.3-0.3-0.6-0.2c-0.6,0.1-0.9,0.6-0.6,1.1c0.2,0.5,0.9,1.7,1.6,5.4
				c1.1,5.3,1,7.5-1,7.9c-0.5,0.1-0.9,0.1-1,0.1c-0.2,0.2-0.3,0.3-0.2,0.4c0.1,0.3,0.5,0.3,1.1,0.2L317.45,308.7z M312.85,301.2
				c1.1,5.3,1.5,6.6,2.3,6.4c0.7-0.2,0.6-1.5-0.5-6.8c-1-4.8-1.5-6.3-2.2-6.1C311.65,294.9,311.85,296.4,312.85,301.2z
				 M315.65,310.1c-1.1,0.2-1.3,0.5-1.2,0.8c0.1,0.3,0.3,0.4,1.4,0.2l2.2-0.5c1.1-0.2,1.3-0.5,1.3-0.8c-0.1-0.3-0.6-0.4-1.5-0.2
				L315.65,310.1z"/>
			<path class="st0" d="M321.05,307.1l-0.2-0.6c0.7-0.3,0.9-0.5,0.7-1.1l-4.7-15.9c-0.2-0.5-0.4-0.7-1.2-0.5l-0.2-0.6l2.5-0.7
				l1.4,4.9h0.1c0.1-0.1,0.2-0.3,0.4-0.4c0.2-0.1,0.4-0.2,0.6-0.3c1.2-0.3,2.2-0.1,2.9,2.1l2.9,10c0.2,0.5,0.4,0.7,1.2,0.5l0.2,0.6
				l-3.1,0.9l-0.2-0.6c0.4-0.2,0.6-0.4,0.4-1l-3-10.3c-0.2-0.8-0.5-1.7-1.2-1.5c-0.8,0.2-0.8,1-0.6,1.6l3.1,10.7
				c0.2,0.5,0.4,0.7,0.9,0.6l0.2,0.6L321.05,307.1z"/>
			<path class="st0" d="M325.15,291.9c-0.2-0.5-0.8-0.5-1.4-0.3l-0.2-0.6c1.1-0.4,1.3-1,1-1.8l-0.9-2.4l1.3-0.5l1.3,3.7l1.4-0.5
				l0.2,0.6c-0.8,0.4-1.3,0.8-1.1,1.2l4,10.9c0.2,0.6,0.4,1,0.7,0.9c0.3-0.1,0.2-0.5,0-1.1l-0.5-1.5l1.1-0.4l0.6,1.8
				c0.3,0.9,0,1.6-1,1.9c-1.2,0.4-1.9,0.2-2.3-0.9L325.15,291.9z"/>
			<path class="st0" d="M336.55,296.3l1-0.5l0.9,1.9c0.6,1.2,1.3,1.8,2,1.5c0.6-0.3,0.5-0.7,0.3-1.1c-0.4-0.8-1.9-2.3-4.5-4.7
				c-0.9-0.8-2.1-2.2-2.9-3.8c-0.6-1.3-0.3-2.4,0.7-2.9c0.4-0.2,1-0.2,1.5-0.2V286l0.7-0.4l2.3,4.8l-1,0.5l-1.1-2.2
				c-0.6-1.3-1.1-1.7-1.8-1.4c-0.6,0.3-0.5,0.8-0.2,1.4c0.4,0.8,1.4,2.2,3.3,3.8c1.6,1.4,3.5,3.2,4.3,4.9c0.5,1.1,0,2-0.8,2.4
				c-0.7,0.3-1.2,0.3-1.7,0.3l-0.1,0.6l-0.7,0.4L336.55,296.3z"/>
			<path class="st0" d="M345.95,288.5c2.9,5,3.2,6.8,1.5,7.8c-1.8,1-3.1-0.2-6-5.3c-2.7-4.7-3.1-6.6-1.3-7.6
				C341.85,282.5,343.25,283.8,345.95,288.5z M342.95,290.2c2.7,4.7,3.4,5.9,4.1,5.4c0.8-0.4,0.1-1.6-2.6-6.3
				c-2.4-4.3-3.2-5.6-4-5.2C339.75,284.6,340.45,286,342.95,290.2z"/>
			<path class="st0" d="M352.35,276.1c-0.7,0.5-0.6,0.8-0.4,1.3l7.8,13.5c0.4,0.7,0.2,1.6-0.7,2.2c-1,0.7-1.8,0.6-2.4-0.1
				c-0.6-0.8-0.8-1.6-0.3-2c0.4-0.3,0.9-0.1,1.1,0.3c0.2,0.2,0.3,0.5,0.3,0.7s0,0.4,0.2,0.6c0.1,0.2,0.3,0.3,0.6,0
				c0.4-0.3,0.5-0.8,0.2-1.2c-0.2-0.3-0.7-0.8-1-1.1l-9.5-10.2c-0.4-0.4-0.6-0.5-1.3,0l-0.4-0.5l2.6-1.9l0.4,0.5
				c-0.3,0.3-0.4,0.6,0,1.1l5.9,6.7h0.1l-4.5-7.7c-0.3-0.5-0.7-0.5-1.1-0.2l-0.4-0.5l2.4-1.8L352.35,276.1z"/>
			<path class="st0" d="M361.05,277.3c3.7,4.4,4.4,6.1,2.9,7.4c-1.6,1.3-3.1,0.3-6.9-4.1c-3.5-4.2-4.2-5.9-2.7-7.2
				C355.95,272.2,357.55,273.2,361.05,277.3z M358.35,279.6c3.5,4.2,4.4,5.1,5.1,4.6c0.7-0.6-0.2-1.6-3.7-5.7
				c-3.2-3.7-4.2-4.9-4.9-4.3C354.25,274.7,355.15,275.8,358.35,279.6z"/>
			<path class="st0" d="M370.65,276.5c0.4,0.4,0.7,0.4,1.3-0.1l0.4,0.4l-1.9,1.8l-0.3-0.4l-0.1,0.1c-0.1,0.5-0.3,1-0.7,1.4
				c-0.8,0.8-1.7,0.9-2.6,0l-8.1-8.2c-0.4-0.4-0.7-0.4-1.3,0.1l-0.4-0.4l1.8-1.8l8.9,9c0.5,0.5,1,0.9,1.5,0.4
				c0.4-0.4,0.3-1.1-0.3-1.7l-7.8-7.9c-0.4-0.4-0.7-0.4-1.5,0.3l-0.4-0.4l2.1-2L370.65,276.5z"/>
			<path class="st0" d="M376.05,264.6l2,1.6c1.4,1.1,1.5,2.3,0.4,3.6c-1.3,1.6-3,0.9-7.5-2.7c-4.3-3.4-5.3-5-4-6.6
				c1.1-1.4,2.3-1.4,4.1,0c1.4,1.1,1.4,1.9,1.1,2.3c-0.4,0.4-1,0.4-1.3,0.2c-0.3-0.2-0.3-0.4-0.4-0.7c-0.1-0.5-0.4-1.1-0.9-1.4
				c-0.6-0.5-1.5-0.6-2-0.1c-0.6,0.8,0.6,1.8,4.4,4.8c4.3,3.4,5.5,4,6,3.4c0.5-0.6,0-1.4-0.6-1.9l-2.1-1.7L376.05,264.6z"/>
			<path class="st0" d="M373.15,256.1c-0.6-0.4-1.3-0.9-1.9-0.1c-0.6,0.8,0,1.6,0.6,2c0.6,0.4,1.1,0.4,1.5,0.4c0.2,0,0.5,0,0.9,0.3
				c0.3,0.2,0.4,0.7,0.1,1.2c-0.3,0.5-1.1,0.6-2.4-0.4c-1.8-1.2-2.3-2.5-1.2-4c1-1.4,2.2-1.5,4.5,0.1l7.7,5.3
				c0.5,0.3,0.9,0.2,1.3-0.3l0.6,0.4l-0.3,0.5c-0.3,0.5-0.8,0.8-1.2,0.9c-0.2,0.7-0.3,1.3-0.7,1.8c-0.6,0.8-1.7,1.4-3.9-0.1
				c-2.4-1.7-2.9-4-3-5.2c-0.1-0.8-0.4-1.4-0.8-1.8L373.15,256.1z M376.45,258.4L376.45,258.4c0.4,1.7,1.2,3,3.2,4.4
				c1.4,1,2.1,1.3,2.5,0.7c0.3-0.4,0.3-1,0-1.2L376.45,258.4z"/>
			<path class="st0" d="M374.55,252.4c-0.5-0.3-0.8-0.2-1.2,0.4l-0.5-0.3l1.3-2.3l0.3,0.2v-0.1c0-0.3,0-0.7,0.2-1.2
				c0.6-1.1,1.6-1.6,3.6-0.4l9,5.3c0.5,0.3,0.8,0.2,1.2-0.4l0.5,0.3l-1.7,2.8l-0.5-0.3c0.2-0.4,0.1-0.7-0.4-1l-9.2-5.4
				c-0.8-0.4-1.6-0.9-1.9-0.3c-0.4,0.7,0.2,1.3,0.7,1.6l9.6,5.6c0.5,0.3,0.8,0.2,1.1-0.2l0.5,0.3l-1.7,2.9l-0.5-0.3
				c0.3-0.7,0.3-1-0.2-1.3L374.55,252.4z"/>
			<path class="st0" d="M379.95,242.3c-0.5-0.2-0.9,0.3-1.2,0.8l-0.6-0.3c0.5-1,0.2-1.6-0.6-1.9l-2.3-1.1l0.6-1.2l3.6,1.6l0.6-1.3
				l0.6,0.3c-0.3,0.9-0.3,1.5,0.1,1.7l10.6,4.8c0.6,0.3,0.9,0.4,1.1,0.1c0.1-0.3-0.2-0.5-0.8-0.7l-1.4-0.6l0.5-1l1.7,0.8
				c0.9,0.4,1.1,1.1,0.7,2c-0.5,1.2-1.2,1.5-2.3,1L379.95,242.3z"/>
			<path class="st0" d="M388.95,235.6c5.4,2.1,6.8,3.2,6.1,5.1c-0.7,1.9-2.6,1.8-8-0.2c-5.1-1.9-6.5-3.1-5.8-5
				C382.05,233.6,383.85,233.7,388.95,235.6z M387.75,238.9c5.1,1.9,6.3,2.4,6.6,1.6c0.3-0.8-0.9-1.3-6-3.2c-4.6-1.8-6-2.3-6.3-1.5
				C381.65,236.6,383.15,237.2,387.75,238.9z"/>
			<path class="st0" d="M391.15,228.6c5.5,1.7,7.1,2.7,6.5,4.7c-0.6,2-2.4,2-8,0.3c-5.2-1.6-6.8-2.6-6.2-4.6
				C384.05,227.1,385.95,227.1,391.15,228.6z M390.15,232c5.2,1.6,6.5,1.9,6.7,1.1c0.3-0.9-1-1.2-6.2-2.8c-4.7-1.4-6.2-1.8-6.4-1
				C383.95,230.1,385.45,230.6,390.15,232z"/>
			<path class="st0" d="M398.35,226.3c0.6,0.1,0.9,0.7,0.8,1.4c-0.2,0.6-0.7,1-1.3,0.9s-0.9-0.7-0.7-1.3
				C397.25,226.6,397.75,226.2,398.35,226.3z"/>
		</g>
		<g>
			<path class="st0" d="M408.15,220.6c2.3,0,4.2,1.8,4.2,4.1s-1.8,4.1-4.2,4.1c-2.3,0-4.2-1.8-4.2-4.1S405.75,220.6,408.15,220.6
				L408.15,220.6z M408.15,221.4c-1.8,0-3.1,1.5-3.1,3.3s1.3,3.3,3.2,3.3c1.8,0,3.1-1.4,3.1-3.3
				C411.25,222.9,409.95,221.4,408.15,221.4L408.15,221.4z M407.45,226.8h-0.9v-4.1c0.4-0.1,0.9-0.1,1.6-0.1c0.8,0,1.1,0.1,1.4,0.3
				c0.2,0.2,0.4,0.5,0.4,0.9c0,0.5-0.3,0.8-0.8,1l0,0c0.4,0.1,0.6,0.4,0.7,1s0.2,0.9,0.3,1h-1c-0.1-0.2-0.2-0.5-0.3-1
				c-0.1-0.4-0.3-0.6-0.8-0.6h-0.4v1.6H407.45z M407.55,224.5h0.4c0.5,0,0.9-0.2,0.9-0.6c0-0.4-0.3-0.6-0.9-0.6c-0.2,0-0.4,0-0.5,0
				v1.2H407.55z"/>
		</g>
	</g>
</g> 
</svg>
