<?xml version="1.0" encoding="utf-8"?>
<!-- Generator: Adobe Illustrator 21.1.0, SVG Export Plug-In . SVG Version: 6.00 Build 0)  -->
<svg version="1.1" id="Layer_1" xmlns="http://www.w3.org/2000/svg" xmlns:xlink="http://www.w3.org/1999/xlink" x="0px" y="0px"
	 viewBox="0 0 600 400" style="enable-background:new 0 0 600 400;" xml:space="preserve">
<style type="text/css">
	.st0{fill:#FFFFFF;}
</style>
<g id="Not_For_Tourists">
	<g>
		<path class="st0" d="M156.76,133.72c-36.61,0-66.28,29.68-66.28,66.28s29.68,66.28,66.28,66.28s66.28-29.68,66.28-66.28
			S193.37,133.72,156.76,133.72z M189.26,240.84h-13.42h-0.49h-4.89l-32.27-57.07l0,57.78l-13.92,0l0-79.2h11.48h2.44h3.24
			l33.93,57.83l0-58.54h13.92L189.26,240.84z"/>
		<path class="st0" d="M298.93,133.72c-36.61,0-66.28,29.68-66.28,66.28s29.68,66.28,66.28,66.28s66.28-29.68,66.28-66.28
			S335.54,133.72,298.93,133.72z M331.85,175.55h-43.79l0,19.09h38.55v13.92h-38.55l0,33l-13.92,0l0-79.91h4.43v-0.01h53.27V175.55z
			"/>
		<path class="st0" d="M443.24,133.72c-36.61,0-66.28,29.68-66.28,66.28s29.68,66.28,66.28,66.28s66.28-29.68,66.28-66.28
			S479.85,133.72,443.24,133.72z M476.48,175.55h-26.09v66.01l-13.92,0v-66.01H410v-13.92h66.48V175.55z"/>
	</g>
</g>
</svg>
