<?xml version="1.0" encoding="utf-8"?>
<!-- Generator: Adobe Illustrator 21.1.0, SVG Export Plug-In . SVG Version: 6.00 Build 0)  -->
<svg version="1.1" id="Layer_1" xmlns="http://www.w3.org/2000/svg" xmlns:xlink="http://www.w3.org/1999/xlink" x="0px" y="0px"
	 viewBox="0 0 600 400" style="enable-background:new 0 0 600 400;" xml:space="preserve">
<style type="text/css">
	.st0{fill:#FFFFFF;}
</style>
<g id="Green_Candy">
	<g>
		<g>
			<path class="st0" d="M124.06,141.51c4.09-4.13,7.85-6.19,11.28-6.19c2.05,0,3.74,0.65,5.09,1.96c1.35,1.31,2.02,2.9,2.02,4.78
				c0,1.51-0.46,2.77-1.38,3.77c-0.92,1-1.99,1.5-3.22,1.5c-2.33,0-3.9-1.43-4.72-4.29c-0.33-1.23-0.88-1.84-1.66-1.84
				c-1.39,0-2.9,0.92-4.54,2.76c1.76,2.41,2.96,4.51,3.62,6.28s0.98,3.69,0.98,5.73c0,3.56-0.86,6.69-2.58,9.41
				c-1.72,2.72-4.57,5.12-8.55,7.2c-3.98,2.09-7.8,3.13-11.43,3.13h-6.68c-4.74,0-7.89,0.49-9.44,1.47
				c-1.55,1.02-2.33,2.51-2.33,4.48c0,1.59,0.63,2.82,1.9,3.68c1.27,0.86,3.66,1.29,7.17,1.29l15.15-0.31
				c7.64,0,13.15,1.28,16.52,3.83c3.37,2.56,5.06,6.06,5.06,10.52c0,4.9-1.92,9.03-5.76,12.38c-5.35,4.74-13.35,7.11-23.97,7.11
				c-8.79,0-15.31-1.61-19.56-4.84c-3.35-2.53-5.03-5.37-5.03-8.52c0-2.41,1.07-4.62,3.22-6.62s5.75-3.49,10.82-4.48
				c-4.05-0.98-7.09-2.42-9.13-4.32c-2.05-1.9-3.07-4.26-3.07-7.08c0-2.62,0.83-4.9,2.48-6.84c1.65-1.94,4.53-3.61,8.61-5
				c-3.47-1.92-6.09-4.24-7.85-6.96c-1.76-2.72-2.64-5.83-2.64-9.35c0-5.56,2.19-10.22,6.56-13.98c4.37-3.76,10.05-5.64,17.04-5.64
				c2.86,0,5.62,0.41,8.28,1.22C118.99,138.59,121.56,139.84,124.06,141.51z M111.55,195.77c-7.52,0-12.89,1.04-16.09,3.13
				c-3.21,2.08-4.81,4.6-4.81,7.54c0,2.78,1.2,4.97,3.62,6.56c3.19,2.12,7.72,3.19,13.61,3.19c7.03,0,12.32-1.16,15.88-3.49
				c3.55-2.33,5.33-4.93,5.33-7.79c0-1.68-0.55-3.24-1.65-4.69c-1.1-1.45-2.86-2.56-5.27-3.31
				C119.74,196.15,116.21,195.77,111.55,195.77z M107.93,140.47c-3.64,0-6.64,1.34-9.01,4.02c-2.37,2.68-3.55,6.43-3.55,11.25
				c0,5.15,1.18,9.15,3.55,11.99c2.37,2.84,5.39,4.26,9.07,4.26c3.68,0,6.69-1.38,9.04-4.14c2.35-2.76,3.53-6.72,3.53-11.86
				c0-4.78-1.2-8.56-3.59-11.34C114.59,141.86,111.57,140.47,107.93,140.47z"/>
			<path class="st0" d="M146.56,138.26l20.66-1.04v23.24c2.21-7.64,4.86-13.43,7.97-17.35c3.1-3.92,6.95-5.89,11.53-5.89
				c3.1,0,5.59,0.95,7.45,2.85c1.86,1.9,2.79,4.44,2.79,7.63c0,2.57-0.62,4.58-1.87,6.01c-1.25,1.43-2.81,2.15-4.69,2.15
				c-1.84,0-3.32-0.61-4.44-1.84c-1.12-1.22-1.69-2.88-1.69-4.96c0-1.35,0.33-2.62,0.98-3.8c0.61-1.06,0.92-1.69,0.92-1.9
				c0-0.61-0.39-0.92-1.16-0.92c-1.68,0-3.58,0.98-5.7,2.94c-2.94,2.74-5.21,6.5-6.8,11.28c-2.45,7.44-3.68,13.39-3.68,17.84v12.32
				c0,1.39,0.49,2.45,1.47,3.19c0.98,0.74,2.66,1.1,5.03,1.1h7.29v4.6h-35.68v-4.6h5.7c1.92,0,3.37-0.38,4.35-1.13
				s1.47-1.67,1.47-2.73v-36.6c0-2.78-0.59-4.81-1.78-6.1c-1.18-1.29-2.88-1.93-5.09-1.93h-5.03V138.26z"/>
			<path class="st0" d="M257.1,167.39h-41.14c0.2,8.75,1.84,14.92,4.9,18.52c3.51,4.05,7.99,6.07,13.43,6.07
				c8.01,0,14.45-4.56,19.31-13.67l3.99,1.72c-5.97,11.61-14.59,17.41-25.87,17.41c-7.69,0-14.15-2.78-19.4-8.34
				c-5.25-5.56-7.88-12.67-7.88-21.34c0-9.32,2.58-16.85,7.75-22.59c5.17-5.74,11.54-8.61,19.1-8.61c5.56,0,10.36,1.43,14.41,4.29
				c4.05,2.86,7.09,6.97,9.13,12.32C256.26,156.92,257.02,161.67,257.1,167.39z M215.96,163.04h24.89c1.47,0,2.62-0.5,3.43-1.5
				c0.82-1,1.22-2.71,1.22-5.12c0-4.5-1.4-8.32-4.2-11.47c-2.8-3.15-6.1-4.72-9.9-4.72c-4.25,0-7.86,1.9-10.82,5.7
				C217.62,149.73,216.08,155.43,215.96,163.04z"/>
			<path class="st0" d="M319.88,167.39h-41.14c0.2,8.75,1.84,14.92,4.9,18.52c3.51,4.05,7.99,6.07,13.43,6.07
				c8.01,0,14.45-4.56,19.31-13.67l3.99,1.72c-5.97,11.61-14.59,17.41-25.87,17.41c-7.69,0-14.15-2.78-19.4-8.34
				c-5.25-5.56-7.88-12.67-7.88-21.34c0-9.32,2.58-16.85,7.75-22.59c5.17-5.74,11.54-8.61,19.1-8.61c5.55,0,10.36,1.43,14.4,4.29
				c4.05,2.86,7.09,6.97,9.13,12.32C319.04,156.92,319.8,161.67,319.88,167.39z M278.74,163.04h24.9c1.46,0,2.61-0.5,3.43-1.5
				c0.82-1,1.23-2.71,1.23-5.12c0-4.5-1.4-8.32-4.2-11.47c-2.8-3.15-6.1-4.72-9.9-4.72c-4.25,0-7.86,1.9-10.82,5.7
				C280.4,149.73,278.86,155.43,278.74,163.04z"/>
			<path class="st0" d="M328.77,138.26l19.07-1.16c0.78,3.6,1.35,7.81,1.72,12.63c2.57-4.17,5.61-7.29,9.1-9.38
				c3.49-2.09,7.45-3.13,11.86-3.13c3.8,0,6.99,0.75,9.57,2.24c2.57,1.49,4.64,3.85,6.19,7.08s2.33,6.84,2.33,10.85v27.96
				c0,2.09,0.47,3.57,1.41,4.44c0.94,0.88,2.52,1.32,4.72,1.32h4.05v4.6H368.5v-4.6h2.88c2.7,0,4.58-0.43,5.64-1.29
				c1.07-0.86,1.6-2.15,1.6-3.86v-24.59c0-5.35-0.82-9.32-2.45-11.89c-2.29-3.68-5.76-5.52-10.42-5.52c-4.62,0-8.47,1.86-11.56,5.58
				c-3.09,3.72-4.63,8.56-4.63,14.53v21.27c0,2.09,0.48,3.57,1.44,4.44c0.96,0.88,2.54,1.32,4.75,1.32h3.98v4.6h-30.41v-4.6h3.98
				c2,0,3.52-0.41,4.57-1.23c1.04-0.82,1.57-1.84,1.57-3.06v-37.09c0-2.45-0.66-4.31-1.99-5.58c-1.33-1.26-3.24-1.9-5.73-1.9h-2.94
				V138.26z"/>
		</g>
		<g>
			<path class="st0" d="M225.56,255.17l3.99,1.16c-3.19,11.73-10.22,17.6-21.09,17.6c-7.97,0-14.49-2.64-19.56-7.91
				c-5.07-5.27-7.6-12.28-7.6-21.03c0-10.14,2.78-17.99,8.34-23.57c5.56-5.58,12.1-8.37,19.62-8.37c5.64,0,10.3,1.55,13.98,4.66
				c3.68,3.11,5.52,6.56,5.52,10.37c0,2.28-0.68,4.17-2.05,5.67c-1.37,1.49-3,2.23-4.88,2.23c-1.84,0-3.39-0.63-4.66-1.89
				c-1.27-1.26-1.9-2.79-1.9-4.59c0-1.79,0.69-3.5,2.08-5.13c0.65-0.78,0.98-1.39,0.98-1.84c0-1.18-0.8-2.33-2.39-3.45
				c-1.59-1.12-3.76-1.68-6.5-1.68c-4.99,0-8.77,1.82-11.34,5.45c-3.68,5.26-5.52,12.2-5.52,20.82c0,8.2,1.63,14.42,4.9,18.64
				c3.27,4.22,7.44,6.34,12.51,6.34C216.97,268.66,222.17,264.17,225.56,255.17z"/>
			<path class="st0" d="M298.09,265.9l2.21,3.43c-2.98,3.06-6.29,4.6-9.93,4.6c-2.78,0-5.12-0.76-7.02-2.27
				c-1.9-1.51-3.57-4.17-5-7.97c-3.88,4.09-7.3,6.82-10.24,8.18c-2.94,1.37-6.48,2.06-10.61,2.06c-5.89,0-10.36-1.27-13.43-3.8
				c-3.06-2.53-4.6-5.78-4.6-9.75c0-5.96,3.5-10.92,10.51-14.87s16.34-6.57,27.99-7.88v-8.71c0-3.1-1.25-5.76-3.74-7.97
				c-2.49-2.21-5.66-3.31-9.5-3.31c-3.56,0-6.62,0.74-9.2,2.21c-1.84,1.1-2.76,2.19-2.76,3.25c0,0.62,0.49,1.57,1.47,2.88
				c1.18,1.63,1.78,3.09,1.78,4.35c0,1.84-0.59,3.34-1.78,4.5c-1.19,1.17-2.74,1.75-4.66,1.75c-2.04,0-3.75-0.7-5.12-2.09
				c-1.37-1.39-2.05-3.17-2.05-5.33c0-4.05,2.28-7.75,6.84-11.1c4.56-3.35,10.54-5.03,17.93-5.03c6.83,0,12.04,1.47,15.63,4.42
				c3.6,2.98,5.4,6.6,5.4,10.85v31.39c0,2.78,0.45,4.83,1.35,6.13c0.9,1.35,2.07,2.03,3.49,2.03
				C294.65,267.86,296.33,267.21,298.09,265.9z M277.98,241.68c-10.38,1.43-17.74,3.76-22.07,6.99c-3.23,2.45-4.84,5.92-4.84,10.42
				c0,3.15,0.84,5.61,2.51,7.39c1.68,1.78,3.86,2.66,6.56,2.66c4.82,0,9-1.83,12.54-5.49c3.53-3.66,5.3-8.24,5.3-13.76V241.68z"/>
			<path class="st0" d="M307.22,214.77l19.07-1.16c0.78,3.6,1.35,7.81,1.72,12.63c2.58-4.17,5.61-7.29,9.11-9.38
				c3.49-2.09,7.45-3.13,11.86-3.13c3.8,0,6.99,0.74,9.56,2.23c2.57,1.5,4.64,3.85,6.2,7.08c1.55,3.23,2.33,6.85,2.33,10.85v27.96
				c0,2.08,0.47,3.56,1.41,4.45c0.94,0.87,2.52,1.32,4.72,1.32h4.05v4.6h-30.29v-4.6h2.88c2.69,0,4.58-0.43,5.64-1.29
				c1.06-0.86,1.6-2.14,1.6-3.86v-24.59c0-5.35-0.82-9.31-2.45-11.89c-2.29-3.68-5.76-5.52-10.42-5.52c-4.62,0-8.47,1.86-11.56,5.58
				s-4.63,8.56-4.63,14.53v21.27c0,2.08,0.48,3.56,1.44,4.45c0.96,0.87,2.55,1.32,4.75,1.32h3.99v4.6h-30.41v-4.6h3.99
				c2,0,3.52-0.41,4.57-1.23c1.04-0.82,1.56-1.84,1.56-3.06v-37.09c0-2.45-0.66-4.31-1.99-5.58c-1.33-1.27-3.24-1.9-5.74-1.9h-2.94
				V214.77z"/>
			<path class="st0" d="M416.47,181.54l22.44-1.04v78.6c0,3.07,0.59,5.25,1.75,6.57c1.17,1.3,2.92,1.96,5.25,1.96h3.99v4.6h-19.63
				l-1.47-11.71c-2.33,4.17-5.05,7.31-8.18,9.41s-6.63,3.16-10.52,3.16c-6.54,0-12.11-2.74-16.7-8.22c-4.6-5.48-6.9-12.71-6.9-21.7
				c0-9.72,2.94-17.49,8.83-23.29c4.62-4.54,9.93-6.81,15.94-6.81c3.68,0,6.98,0.92,9.9,2.76c2.92,1.84,5.47,4.62,7.63,8.34v-32.43
				c0-1.72-0.66-3.08-1.99-4.08c-1.33-1-3.4-1.5-6.22-1.5h-4.11V181.54z M412.91,218.14c-4.41,0-7.91,1.82-10.51,5.46
				c-2.6,3.64-3.9,9.77-3.9,18.39c0,9.36,1.33,15.95,3.99,19.77c2.66,3.83,6.08,5.74,10.24,5.74c4.45,0,8.26-2.14,11.44-6.41
				c3.17-4.27,4.75-10.51,4.75-18.73c0-7.77-1.69-13.88-5.08-18.33C420.89,220.1,417.25,218.14,412.91,218.14z"/>
			<path class="st0" d="M454.73,214.77h27.53v4.17h-2.57c-2.41,0-4.06,0.31-4.94,0.95c-0.88,0.63-1.32,1.54-1.32,2.73
				c0,0.54,0.12,1.06,0.37,1.6l16,34.51l11.89-28.63c0.86-2.04,1.29-4.05,1.29-6.01c0-1.51-0.59-2.69-1.78-3.52
				c-1.19-0.84-3.55-1.38-7.11-1.62v-4.17H518v4.17c-4.62,0.45-7.72,2.51-9.32,6.19l-21.25,49.45c-3.61,8.39-7.23,14.17-10.87,17.32
				c-3.68,3.19-7.63,4.78-11.83,4.78c-3.06,0-5.53-0.84-7.39-2.51c-1.86-1.68-2.79-3.74-2.79-6.2c0-1.84,0.57-3.35,1.72-4.53
				c1.14-1.19,2.57-1.78,4.29-1.78c1.55,0,2.86,0.51,3.93,1.53c1.06,1.03,1.59,2.25,1.59,3.68c0,0.45-0.08,1.07-0.25,1.84
				c-0.17,0.61-0.25,1.06-0.25,1.35c0,0.98,0.63,1.47,1.9,1.47c1.35,0,2.87-0.49,4.57-1.47c1.69-0.98,3.28-2.56,4.75-4.72
				c1.47-2.17,4.05-6.97,7.74-14.4l-21.8-46.73c-0.78-1.64-1.74-2.85-2.9-3.65c-1.16-0.8-2.86-1.34-5.11-1.62V214.77z"/>
		</g>
	</g>
</g>
</svg>
