<?xml version="1.0" encoding="utf-8"?>
<!-- Generator: Adobe Illustrator 21.1.0, SVG Export Plug-In . SVG Version: 6.00 Build 0)  -->
<svg version="1.1" id="Layer_1" xmlns="http://www.w3.org/2000/svg" xmlns:xlink="http://www.w3.org/1999/xlink" x="0px" y="0px"
	 viewBox="0 0 600 400" style="enable-background:new 0 0 600 400;" xml:space="preserve">
<style type="text/css">
	.st0{fill:#FFFFFF;}
</style>
<g id="Players_Against_Concussions">
	<g>
		<path class="st0" d="M536.81,125.73c-0.49,4.34-0.86,8.54-1.46,12.72c-2.23,15.59-5.51,30.94-10.49,45.9
			c-6.25,18.77-14.69,36.42-26.89,52.13c-6.85,8.81-14.68,16.64-23.86,23.37c-4.1-3.51-8.2-7.01-12.37-10.58
			c2.24-5.68,4.29-11.08,6.5-16.41c0.97-2.35,2.59-3.7,5.52-3.24c3.29,0.51,6.66,0.63,10,0.7c1.84,0.04,3.75-0.14,5.51-0.65
			c3.05-0.88,4.7-3.06,4.25-6.2c-0.46-3.24,0.64-5.27,3.33-6.78c2.39-1.34,2.34-3.39,1.57-5.26c0.9-1.54,2.13-2.78,2.3-4.16
			c0.18-1.42-0.67-2.97-1.16-4.82c0.56-0.22,1.33-0.54,2.1-0.83c3.62-1.36,4.36-3.26,2.42-6.54c-2.01-3.4-3.79-6.87-4.38-10.84
			c-0.34-2.29-0.32-4.56,0.68-6.65c4.47-9.33,2.51-24.94-6.38-33.34c-1.85-1.75-3.82-3.42-5.91-4.87c-2.09-1.45-4.4-2.58-6.98-4.06
			c-2.31-11.57-9.91-19.06-20.84-23.74C487.07,109.24,512.45,114.1,536.81,125.73z"/>
		<path class="st0" d="M474.37,193.03c-5.51,1.15-6.09,1.97-3.83,5.76c-3.95,1.78-4.68,5.08-4.31,9.06
			c0.43,4.57-1.74,6.44-6.22,5.43c-3.83-0.86-7.6-1.98-11.38-3.05c-3.77-1.06-6.09-0.26-8.31,3.05c-0.8,1.2-1.48,2.49-2.51,4.23
			c-2.37-4.38-4.77-8.29-6.65-12.43c-3.21-7.06-6.08-14.27-9.1-21.41c-1.13-2.67-1.5-5.43-1.24-8.34c0.55-6.1,1.49-12.08,4.06-17.72
			c4.65-10.22,12.57-16.1,23.6-17.84c9.3-1.47,18.4-0.46,27.56,2.13c0.59,4.13,0.28,8.14-1.08,11.93c-1.78,4.97-1.19,9.71,0.8,14.34
			c1.86,4.33,4.01,8.53,6.02,12.79c1.13,2.38,0.68,3.85-1.85,4.48c-3.53,0.87-5.12,2.99-5.25,6.47c-0.01,0.29-0.11,0.57-0.19,0.86
			C474.49,192.87,474.42,192.95,474.37,193.03z"/>
		<path class="st0" d="M455.91,243.78c-4.65-6.23-9.11-12.2-13.59-18.21c1.08-2.76,2.1-5.3,3.08-7.86c0.66-1.74,2.03-2.43,3.73-2.27
			c1.95,0.18,3.86,0.74,5.81,0.92c2.82,0.27,5.7,0.74,8.47,0.42c3.83-0.44,5.93-3.31,5.96-7.2c0.01-1.28-0.1-2.56-0.17-3.84
			c-0.1-1.87,0.7-3.14,2.32-4.09c3.07-1.81,3.09-2.01,1.57-5.17c1.2-0.49,2.73-0.69,3.51-1.56c0.74-0.82,0.83-2.34,0.96-3.58
			c0.16-1.59,0.93-2.47,2.38-3c5.06-1.87,6.06-4.45,3.91-9.31c-1.7-3.86-3.31-7.77-4.74-11.74c-1.45-4-1.46-8,0.26-12.06
			c0.98-2.31,1.28-4.91,1.83-7.4c0.23-1.04,0.34-2.12,0.56-3.48c5.01,2.09,8.85,5.26,11.68,9.62c3.23,4.97,4.16,10.55,3.94,16.36
			c-0.04,1.06-0.2,2.23-0.71,3.13c-1.9,3.4-1.66,6.87-0.34,10.26c1.5,3.83,3.3,7.54,5.03,11.28c0.45,0.97,1.1,1.84,1.87,3.1
			c-1.01,0.56-1.85,1.16-2.78,1.51c-3.53,1.31-3.9,2.12-2.47,5.72c0.21,0.53,0.33,1.1,0.59,1.95c-1.29,0.72-2.53,1.4-4.15,2.3
			c0.48,1.24,0.97,2.52,1.55,4.03c-0.74,0.51-1.53,1.06-2.32,1.59c-2.58,1.74-3.88,4.04-3.55,7.25c0.28,2.73-0.43,3.82-3.13,3.85
			c-3.22,0.03-6.44-0.5-9.66-0.88c-1.36-0.16-2.7-0.52-4.03-0.87c-2.93-0.77-5.58-0.12-7.61,2.01c-1.68,1.76-3.18,3.77-4.35,5.89
			c-1.61,2.92-2.83,6.05-4.23,9.08C456.82,242.14,456.47,242.72,455.91,243.78z"/>
		<path class="st0" d="M414.89,156.71c-2.23-10.84-2.81-21.17-3.07-31.61c5.9-4.08,12.35-6.62,19.21-8.08
			c10.84-2.3,21.3-1.03,31.26,3.87c5.39,2.65,9.15,6.57,11.54,11.77c-1.26-0.27-2.35-0.49-3.43-0.73
			c-9.66-2.08-19.35-2.26-28.93,0.18c-11.88,3.03-20.31,10.37-25.32,21.58C415.8,154.48,415.49,155.28,414.89,156.71z"/>
		<path class="st0" d="M172.35,277.58c0,2.75,0,5.29,0,8.01c-6.84,3.63-13.93,4.62-21.23,1.69c-5.18-2.08-8.46-6.18-9.64-11.56
			c-2.36-10.82-0.36-20.76,7.22-29.11c7.34-8.09,19.84-9.65,28.49-3.83c0.32,0.21,0.59,0.49,1.03,0.86
			c-0.81,2.59-1.62,5.19-2.52,8.07c-1.02-0.7-1.88-1.29-2.74-1.86c-6.21-4.14-13.56-3.08-18.11,2.83
			c-4.52,5.87-5.81,12.6-4.37,19.79c1.61,8,8.01,9.3,12.98,8.41c2.09-0.37,4.09-1.31,6.11-2.05
			C170.48,278.51,171.33,278.05,172.35,277.58z"/>
		<path class="st0" d="M271.91,254.62c2.75,0,5.37,0,8.24,0c-0.52,3.33-1,6.5-1.5,9.67c-0.65,4.07-1.38,8.14-1.97,12.22
			c-0.22,1.53-0.63,3.32,0.95,4.35c1.73,1.14,3.42,0.31,4.9-0.76c1.19-0.86,2.3-1.84,3.39-2.84c1.26-1.16,1.94-2.58,2.2-4.34
			c0.87-6.03,1.88-12.03,2.86-18.23c2.61,0,5.21,0,8.06,0c-1,11.1-4.33,21.91-3.79,33.28c-2.62,0-4.94,0-7.57,0
			c-0.17-1.81-0.34-3.63-0.54-5.73c-0.79,0.69-1.36,1.34-2.06,1.8c-2.2,1.46-4.29,3.25-6.7,4.18c-6.2,2.38-11.27-1.69-10.44-8.25
			c0.66-5.26,1.59-10.49,2.41-15.73C270.84,261.05,271.38,257.87,271.91,254.62z"/>
		<path class="st0" d="M233.9,287.95c-2.67,0-5.29,0-8.09,0c1.08-6.68,2.16-13.16,3.18-19.66c0.21-1.35,0.36-2.74,0.34-4.11
			c-0.04-2.63-1.54-3.82-3.8-2.68c-3.68,1.86-7.14,3.99-7.73,8.82c-0.72,5.85-1.8,11.65-2.75,17.62c-2.69,0-5.3,0-8.11,0
			c1.04-11.15,4.4-21.95,3.94-33.32c2.54,0,4.87,0,7.44,0c0.15,1.85,0.3,3.67,0.48,5.81c1.59-1.33,2.94-2.58,4.4-3.67
			c2.32-1.73,4.8-3,7.85-2.89c4.27,0.16,6.84,2.41,7.02,6.71c0.08,1.94-0.26,3.91-0.55,5.85c-0.99,6.61-2.04,13.21-3.09,19.81
			C234.33,286.83,234.08,287.37,233.9,287.95z"/>
		<path class="st0" d="M425.81,288.02c-2.84,0-5.28,0-8.16,0c0.37-2.62,0.69-5.1,1.07-7.56c0.77-4.95,1.59-9.9,2.35-14.85
			c0.1-0.66,0.14-1.37,0.02-2.03c-0.38-2.05-1.79-3.06-3.61-2.17c-3.81,1.88-7.39,4.03-7.99,8.97c-0.66,5.46-1.63,10.89-2.48,16.33
			c-0.06,0.38-0.23,0.74-0.39,1.24c-2.64,0-5.24,0-7.98,0c1.01-11.11,4.45-21.84,3.79-33.25c2.51,0,4.91,0,7.5,0
			c0.18,1.67,0.36,3.38,0.6,5.61c1.48-1.22,2.62-2.2,3.79-3.12c2.52-1.98,5.2-3.47,8.6-3.31c4.09,0.19,6.81,2.5,6.75,6.6
			c-0.05,3.51-0.68,7.03-1.19,10.52C427.66,276.63,426.72,282.24,425.81,288.02z"/>
		<path class="st0" d="M192.96,253.91c6.97,0.01,11.7,4.03,12.71,11.14c0.96,6.73-0.31,12.96-4.81,18.22
			c-4.31,5.03-9.85,6.59-16.23,4.93c-3.55-0.92-6.02-3.18-7.53-6.52c-3.28-7.27-0.98-18.39,4.93-23.71
			C185.09,255.22,188.62,253.74,192.96,253.91z M183.77,274.3c0.14,0.92,0.3,1.98,0.48,3.05c0.39,2.31,1.54,4.09,3.85,4.76
			c2.31,0.66,4.22-0.29,5.83-1.96c3.35-3.47,4.91-11.94,3.01-16.39c-1.44-3.38-5.06-4.49-8-2.28c-1.14,0.85-2.06,2.1-2.82,3.33
			C184.37,267.64,184.14,270.91,183.77,274.3z"/>
		<path class="st0" d="M367.34,273.8c0.2-6.24,2.04-11.78,6.77-16.11c5.6-5.13,14.95-5.18,19.85-0.13c1.92,1.98,3.02,4.37,3.38,7.06
			c1.11,8.29-0.6,15.67-7.43,21.15c-3.49,2.8-7.65,3.54-11.99,2.85c-5.48-0.87-9.47-5.11-10.28-10.72
			C367.45,276.55,367.44,275.17,367.34,273.8z M375.61,275.04c0.2,0.9,0.33,2.61,0.95,4.12c1.28,3.11,4.81,4.08,7.62,2.23
			c0.73-0.48,1.45-1.09,1.93-1.8c3.3-4.81,4.29-10.11,2.6-15.69c-1.05-3.45-4.92-4.59-7.93-2.52c-1.01,0.7-1.87,1.74-2.56,2.78
			C376.17,267.2,375.75,270.72,375.61,275.04z"/>
		<path class="st0" d="M234.78,229.29c8.53-16.09,16.81-31.7,25.09-47.31c1.45,0,2.71,0,4.38,0c3.33,15.53,6.68,31.12,10.06,46.84
			c-1.29,0.32-2.32,0.61-3.36,0.83c-0.37,0.08-0.76,0.01-1.37,0.01c-1.06-5.06-2.12-10.12-3.2-15.3c-6.25,0-12.43,0-18.77,0
			c-2.55,4.92-5.12,9.88-7.74,14.92C238.3,229.29,236.79,229.29,234.78,229.29z M265.52,209.96c-1.45-7.12-2.86-14.05-4.27-20.98
			c-0.18,0.01-0.37,0.03-0.55,0.04c-3.59,6.92-7.18,13.84-10.86,20.94C255.18,209.96,260.16,209.96,265.52,209.96z"/>
		<path class="st0" d="M304.82,198.7c-1.62,10.45-3.11,20.44-4.77,30.41c-0.35,2.09-1.2,4.15-2.13,6.07
			c-1.64,3.4-4.51,5.52-8.18,6.13c-5.03,0.84-9.95,0.26-14.82-2.18c0.37-1.24,0.72-2.42,1.06-3.54c3,0.69,5.79,1.57,8.65,1.94
			c5.61,0.73,9-1.64,10.48-7.1c0.51-1.87,0.77-3.81,1.26-6.31c-1.52,1.27-2.51,2.18-3.58,2.97c-3.13,2.31-6.57,3.18-10.25,1.57
			c-3.61-1.58-5.1-4.69-5.46-8.46c-0.56-5.86,0.57-11.33,3.9-16.24c4.06-5.97,10.69-8.6,17.75-7.03
			C300.71,197.39,302.64,198.07,304.82,198.7z M299.84,201.8c-6.22-2.62-11.5-1.19-15,4c-2.98,4.42-3.9,9.36-2.98,14.57
			c0.84,4.73,4.66,6.51,8.75,3.93c2.2-1.39,4.02-3.4,5.97-5.17c0.33-0.3,0.58-0.82,0.66-1.27
			C298.12,212.55,298.96,207.24,299.84,201.8z"/>
		<path class="st0" d="M456.15,256.71c-0.66,2.2-1.29,4.33-1.92,6.46c-2.35-0.86-4.51-1.77-6.74-2.41c-1.2-0.34-2.54-0.36-3.79-0.26
			c-1.35,0.1-2.44,0.83-2.8,2.24c-0.37,1.48,0.4,2.48,1.62,3.14c1.2,0.66,2.48,1.18,3.7,1.82c1.47,0.78,2.94,1.58,4.36,2.45
			c6.82,4.18,4.8,14.08-0.86,16.94c-4.1,2.07-8.35,2.19-12.64,1.05c-2.62-0.7-5.12-1.85-7.91-2.89c0.77-2.49,1.42-4.58,2.1-6.76
			c2.22,1.02,4.09,2.11,6.1,2.74c1.94,0.6,4.02,0.91,6.05,1c1.95,0.08,3.38-1.17,3.77-2.72c0.35-1.42-0.3-2.64-2.25-3.72
			c-1.97-1.1-4.07-1.97-6.04-3.08c-5.65-3.18-6.29-6.22-5.47-10.87c0.79-4.53,5.11-7.7,10.13-7.93
			C447.96,253.7,452.14,254.44,456.15,256.71z"/>
		<path class="st0" d="M352.72,256.71c-0.67,2.22-1.31,4.35-1.95,6.46c-2.25-0.83-4.31-1.74-6.46-2.35
			c-1.29-0.36-2.73-0.43-4.07-0.32c-1.31,0.1-2.44,0.81-2.8,2.24c-0.37,1.51,0.49,2.46,1.66,3.14c1.19,0.68,2.48,1.19,3.69,1.82
			c1.3,0.68,2.59,1.4,3.86,2.15c3.7,2.19,5.28,5.42,4.66,9.69c-0.63,4.33-3.08,7.25-7.2,8.48c-6.43,1.91-12.37,0.37-18.22-3.08
			c0.64-2.17,1.23-4.2,1.92-6.56c1.04,0.54,1.86,0.98,2.68,1.4c2.82,1.46,5.72,2.68,8.97,2.47c1.03-0.07,2.17-0.36,3.01-0.92
			c1.82-1.23,1.89-3.33,0.19-4.73c-0.97-0.8-2.16-1.33-3.28-1.94c-1.81-0.98-3.69-1.84-5.45-2.91c-6.7-4.05-4.59-13.12,0.38-16.06
			c2.87-1.7,5.94-1.92,9.11-1.75C346.69,254.1,349.75,255.04,352.72,256.71z"/>
		<path class="st0" d="M299.2,285.27c0.75-2.51,1.36-4.55,2.05-6.87c1.32,0.67,2.4,1.24,3.5,1.79c2.58,1.29,5.26,2.25,8.19,2.07
			c0.95-0.06,1.98-0.29,2.79-0.76c1.91-1.11,2.17-3.2,0.55-4.7c-0.91-0.85-2.1-1.43-3.21-2.04c-1.81-0.99-3.71-1.81-5.47-2.87
			c-3.12-1.88-4.76-4.63-4.42-8.37c0.35-3.82,2.17-6.65,5.64-8.4c2.38-1.2,4.91-1.27,7.49-1.21c3.51,0.08,6.7,1.18,9.9,2.74
			c-0.72,2.32-1.37,4.44-2.01,6.53c-2.29-0.85-4.36-1.74-6.51-2.36c-1.2-0.35-2.53-0.4-3.79-0.34c-1.46,0.07-2.67,0.78-3.04,2.34
			c-0.36,1.5,0.58,2.42,1.73,3.11c0.84,0.5,1.76,0.86,2.63,1.31c1.74,0.91,3.53,1.75,5.18,2.79c3.17,1.99,4.82,4.87,4.46,8.68
			c-0.4,4.26-2.41,7.41-6.52,9.02c-3.83,1.5-7.74,1.42-11.6,0.36C304.3,287.43,301.98,286.33,299.2,285.27z"/>
		<path class="st0" d="M70.65,182.44c4.56,0,8.91-0.36,13.18,0.1c4.76,0.5,8.7,2.81,10.02,7.86c1.48,5.65,0.4,10.76-4.07,14.81
			c-3.46,3.13-7.73,4.17-12.25,4.36c-2.05,0.09-4.11,0.01-6.36,0.01c-1.06,6.64-2.1,13.11-3.16,19.7c-1.62,0-3.05,0-4.82,0
			C65.68,213.63,68.16,198.05,70.65,182.44z M71.86,205.33c2.54,0,4.6,0.16,6.63-0.04c3.16-0.3,6.22-1.04,8.5-3.51
			c2.61-2.83,3.29-6.14,2.24-9.82c-0.92-3.24-3.38-4.84-6.43-5.27c-2.56-0.36-5.22-0.07-8-0.07
			C73.82,192.81,72.87,198.89,71.86,205.33z"/>
		<path class="st0" d="M262.6,286.4c-4.87,2.62-9.86,3.26-15.06,1.31c-3.1-1.16-5.3-3.32-6.6-6.37c-3.36-7.9-0.22-21.3,9.14-25.79
			c5.76-2.76,11.37-2.14,16.97,0.87c-0.76,2.47-1.45,4.69-2.18,7.05c-1.7-0.73-3.16-1.47-4.69-2c-3.37-1.16-6.25-0.12-8.53,2.41
			c-3.27,3.62-4.12,8.01-3.34,12.68c0.5,3,2.97,5.09,6.05,5.05c1.91-0.03,3.83-0.65,5.72-1.12c0.81-0.2,1.54-0.71,2.52-1.19
			C262.6,281.75,262.6,283.88,262.6,286.4z"/>
		<path class="st0" d="M127.71,229.3c-0.82,0-1.95,0-3.3,0c-0.1-1.87-0.18-3.6-0.3-5.93c-1.02,0.89-1.68,1.54-2.41,2.09
			c-1.64,1.24-3.19,2.67-4.99,3.61c-5.06,2.64-10,0.55-11.74-4.83c-2.33-7.2,0.34-20.36,9.87-25.68c5-2.79,10.95-2.75,16.95,0.05
			C130.45,208.78,129.09,218.96,127.71,229.3z M127.05,201.33c-3.99-1.33-7.8-1.42-11.14,1.29c-6.16,5-7.8,11.76-6.65,19.28
			c0.62,4.04,3.77,5.49,7.15,3.23c2.74-1.83,5.05-4.31,7.49-6.56c0.38-0.35,0.56-1.03,0.66-1.59
			C125.39,211.87,126.19,206.75,127.05,201.33z"/>
		<path class="st0" d="M330.34,229.32c-1.57,0-2.71,0-4.07,0c-0.09-1.91-0.18-3.72-0.29-6c-1.03,0.92-1.67,1.64-2.44,2.15
			c-2.19,1.46-4.28,3.25-6.68,4.17c-4.19,1.61-8.03-0.43-9.83-4.57c-1.1-2.54-1.02-5.2-0.9-7.85c0.26-5.68,2.15-10.78,5.98-15.04
			c5.33-5.94,13.4-7.46,21.65-3.47C332.67,208.81,329.62,218.71,330.34,229.32z M328.88,201.42c-3.92-1.42-7.39-1.3-10.68,0.84
			c-6.85,4.46-8.62,14.72-6.9,20.55c0.92,3.14,3.3,4.11,6.24,2.73c3.37-1.59,5.78-4.37,8.24-7.04c0.3-0.32,0.41-0.88,0.49-1.34
			C327.13,212.02,327.98,206.89,328.88,201.42z"/>
		<path class="st0" d="M183.17,213.45c-6.89,0-13.37,0-20.14,0c-0.38,3.19-0.41,6.16,1.11,8.94c1.68,3.07,5.02,4.48,8.9,3.54
			c1.88-0.46,3.64-1.42,5.43-2.21c0.77-0.34,1.47-0.84,2.5-1.43c0,1.56,0,2.78,0,4.16c-3.32,2.55-7.15,3.86-11.42,3.72
			c-5.51-0.19-9.42-3.11-10.67-8.47c-1.82-7.81-0.45-15.1,5.08-21.17c2.75-3.02,6.26-4.57,10.55-4.17c4.46,0.42,7.91,3.28,8.6,8.27
			C183.49,207.4,183.17,210.27,183.17,213.45z M179,209.74c-0.12-1.55-0.09-2.93-0.35-4.24c-1.14-5.62-5.83-7.32-10.28-3.72
			c-2.5,2.02-3.94,4.72-4.7,7.96C168.83,209.74,173.77,209.74,179,209.74z"/>
		<path class="st0" d="M351.99,229.31c-1.43,0-2.77,0-4.41,0c1.13-10.73,4.16-21.17,3.68-32.11c1.44,0,2.58,0,3.86,0
			c0.19,1.96,0.37,3.88,0.59,6.15c1.78-1.53,3.26-2.92,4.86-4.15c2.63-2.02,5.45-3.46,8.98-2.71c3.23,0.69,5.08,2.39,5.55,5.61
			c0.15,1.05,0.14,2.17-0.02,3.23c-1.15,7.57-2.35,15.14-3.55,22.7c-0.06,0.38-0.23,0.74-0.4,1.26c-1.34,0-2.66,0-4.35,0
			c0.56-3.8,1.08-7.46,1.65-11.11c0.62-3.98,1.28-7.95,1.91-11.92c0.09-0.58,0.13-1.18,0.11-1.76c-0.13-3.13-2.13-4.61-5.18-3.77
			c-0.74,0.2-1.48,0.56-2.12,0.99c-1.06,0.71-2.05,1.51-3.04,2.32c-3.22,2.61-5.68,5.56-5.72,10.08c-0.03,2.53-0.7,5.05-1.11,7.57
			C352.86,224.18,352.43,226.68,351.99,229.31z"/>
		<path class="st0" d="M138.77,196.47c1.69,8.93,3.32,17.59,5.09,26.97c4.34-9.07,8.44-17.64,12.57-26.27c1.45,0,2.8,0,4.47,0
			c-0.29,0.8-0.46,1.51-0.77,2.15c-5.79,11.59-11.59,23.17-17.41,34.74c-0.48,0.96-1.04,1.9-1.63,2.8
			c-2.52,3.85-5.98,5.52-10.74,4.48c0-1.21,0-2.43,0-3.24c2.08-0.56,4.45-0.5,5.6-1.66c1.95-1.95,3.22-4.62,4.56-7.11
			c0.34-0.63-0.08-1.71-0.25-2.57c-1.92-9.43-3.86-18.85-5.8-28.27c-0.06-0.28-0.06-0.58-0.11-1.02
			C135.68,197.17,136.99,196.87,138.77,196.47z"/>
		<path class="st0" d="M399.56,198.85c-0.44,1.47-0.83,2.74-1.16,3.85c-2.28-0.81-4.26-1.65-6.33-2.2
			c-1.09-0.29-2.35-0.26-3.48-0.05c-2.4,0.45-3.94,2-4.17,4c-0.25,2.16,0.98,3.5,2.71,4.49c2.21,1.26,4.48,2.44,6.67,3.75
			c3.5,2.09,5,5.2,4.33,9.23c-0.71,4.24-3.29,6.81-7.44,7.79c-5.3,1.25-10.08-0.1-14.7-3.04c0.38-1.39,0.74-2.68,1.08-3.91
			c2.53,1.04,4.85,2.31,7.33,2.93c1.81,0.45,3.89,0.29,5.75-0.08c1.93-0.39,3.2-1.85,3.51-3.92c0.33-2.17-0.42-3.89-2.31-5.01
			c-2.45-1.45-5-2.73-7.4-4.26c-6.66-4.26-4.05-12.73,0.76-14.72c1.86-0.77,3.95-1.36,5.95-1.38
			C393.68,196.27,396.67,196.96,399.56,198.85z"/>
		<path class="st0" d="M226.43,198.84c-0.38,1.42-0.72,2.71-1.04,3.93c-2.26-0.82-4.31-1.8-6.47-2.26
			c-1.45-0.31-3.14-0.11-4.58,0.32c-1.67,0.49-2.78,1.83-2.97,3.69c-0.17,1.73,0.55,3.06,2.01,3.97c0.92,0.57,1.86,1.1,2.79,1.63
			c1.62,0.92,3.27,1.79,4.86,2.76c3.42,2.1,4.6,5.27,4,9.11c-0.63,4-3.08,6.53-6.92,7.59c-5.37,1.48-10.27,0.13-15.17-2.88
			c0.35-1.38,0.7-2.73,1.01-3.92c2.66,1.08,5.03,2.33,7.55,2.96c1.72,0.43,3.71,0.27,5.48-0.12c2.05-0.45,3.33-1.96,3.61-4.17
			c0.26-2.08-0.53-3.68-2.27-4.75c-1.5-0.93-3.08-1.73-4.61-2.61c-0.94-0.54-1.88-1.07-2.78-1.66c-2.87-1.87-4.43-4.47-3.97-7.96
			c0.48-3.61,2.44-6.13,5.92-7.39C217.02,195.59,221.42,196.1,226.43,198.84z"/>
		<path class="st0" d="M358.08,254.61c2.94,0,5.47,0,8.29,0c-1.79,11.22-3.56,22.28-5.33,33.35c-2.85,0-5.46,0-8.28,0
			C354.55,276.75,356.31,265.73,358.08,254.61z"/>
		<path class="st0" d="M406.65,185.77c1.45-0.23,2.86-0.45,4.53-0.72c-0.6,4.05-1.15,7.8-1.76,11.92c2.5,0,4.8,0,7.21,0
			c0,1.38,0,2.42,0,3.74c-2.53,0-5.05,0-7.91,0c-1.11,7.48-2.28,14.74-3.22,22.03c-0.26,2.02,1.13,3.18,3.34,3.3
			c1.14,0.06,2.29-0.14,3.57-0.24c0,1.21,0,2.35,0,3.61c-2.32,0.65-4.62,0.85-6.96,0.31c-2.99-0.69-4.73-2.53-4.61-5.6
			c0.13-3.13,0.64-6.25,1.11-9.36c1.39-9.14,2.85-18.27,4.29-27.41C406.33,186.89,406.48,186.43,406.65,185.77z"/>
		<path class="st0" d="M100.86,181.1c1.63-0.29,3.03-0.53,4.73-0.83c-2.62,16.51-5.19,32.68-7.78,49c-1.49,0-2.92,0-4.59,0
			C95.77,213.23,98.29,197.35,100.86,181.1z"/>
		<path class="st0" d="M190.21,229.31c-1.5,0-2.75,0-4.26,0c0.94-10.77,4.19-21.1,3.66-32.05c1.37,0,2.58,0,4.06,0
			c0,2.23,0,4.44,0,7.32c3.41-4.11,6.36-7.84,11.84-8.12c0,1.5,0,2.9,0,4.5c-4.86,0.72-8.32,3.63-10.96,7.59
			c-0.68,1.01-1.15,2.26-1.37,3.47c-0.89,5.02-1.63,10.07-2.44,15.1C190.62,227.79,190.42,228.45,190.21,229.31z"/>
		<path class="st0" d="M339.74,229.32c-1.51,0-2.85,0-4.58,0c1.74-10.8,3.45-21.46,5.16-32.12c1.64,0,2.98,0,4.58,0
			C343.17,208,341.46,218.61,339.74,229.32z"/>
		<path class="st0" d="M368.88,244.19c0.03,2.92-2.01,4.92-5.01,4.92c-2.77-0.01-4.96-2.02-5.06-4.67c-0.1-2.79,2.05-4.99,4.96-5.07
			C366.77,239.29,368.86,241.26,368.88,244.19z"/>
		<path class="st0" d="M347.6,186.15c-0.05,1.94-1.56,3.37-3.43,3.24c-1.73-0.12-3.13-1.58-3.16-3.29
			c-0.02-1.82,1.53-3.41,3.35-3.42C346.18,182.66,347.65,184.24,347.6,186.15z"/>
	</g>
</g>
</svg>
