<?xml version="1.0" encoding="utf-8"?>
<!-- Generator: Adobe Illustrator 21.1.0, SVG Export Plug-In . SVG Version: 6.00 Build 0)  -->
<svg version="1.1" id="Layer_1" xmlns="http://www.w3.org/2000/svg" xmlns:xlink="http://www.w3.org/1999/xlink" x="0px" y="0px"
	 viewBox="0 0 600 400" style="enable-background:new 0 0 600 400;" xml:space="preserve">
<style type="text/css">
	.st0{fill:#FFFFFF;}
</style>
<g id="brgr">
	<g>
		<path class="st0" d="M286.66,161.09c-5.28,0.33-9.28,2.6-12,7.15c-0.78,1.31-1.63,2.58-2.57,4.07c-0.74-0.68-0.97-0.78-0.99-0.92
			c-0.14-0.95-0.31-1.91-0.35-2.87c-0.25-6.07-0.79-6.61-6.82-6.69c-0.78-0.01-1.56,0-2.34,0c-6.89,0.04-8.24,1.37-8.24,8.13
			c0,15.61,0.03,31.22-0.01,46.82c-0.01,4.2-0.1,4.2-3.99,4.58c-4.26,0.42-5.28,1.46-5.46,5.8c-0.08,1.95-0.21,3.93,0.03,5.86
			c0.42,3.35,1.96,4.69,5.49,4.72c8.99,0.08,17.98,0.09,26.98,0c3.4-0.03,4.43-1.15,4.72-4.57c0.12-1.36,0.03-2.74,0.02-4.1
			c-0.02-7.07-0.02-7.18-6.94-7.63c-2.5-0.16-3.52-1.12-3.46-3.55c0.07-3.12-0.08-6.26,0.04-9.38c0.23-5.64,0.19-11.34,0.98-16.91
			c1.16-8.14,6.54-12.59,14.3-12.68c7.97-0.09,7.97-0.09,7.96-8.13c0-1.37,0.12-2.76-0.06-4.1
			C293.36,162.5,290.96,160.82,286.66,161.09z"/>
		<path class="st0" d="M419.11,161.22c-4.79-0.24-8.83,1.28-11.87,5.07c-1.43,1.78-2.75,3.66-5.03,6.71c-0.14-2.66-0.2-4-0.29-5.34
			c-0.29-4.61-1.39-5.66-6.13-5.76c-1.95-0.04-3.92-0.12-5.86,0.04c-3.96,0.32-5.07,1.45-5.17,5.53c-0.13,4.88-0.05,9.76-0.06,14.65
			c-0.01,11.52-0.04,23.04,0,34.56c0.01,2.56-0.15,4.5-3.55,4.76c-5.99,0.46-5.98,0.65-6.03,6.6c-0.01,1.17-0.04,2.35-0.01,3.52
			c0.13,5.06,1.17,6.15,6.24,6.19c8.01,0.06,16.02,0.03,24.04,0.01c5.68-0.02,6.84-1.17,6.96-6.76c0.02-0.97-0.04-1.94-0.09-2.91
			c-0.24-5.38-0.94-6.26-6.47-6.63c-2.66-0.18-3.92-1.08-3.88-3.85c0.09-7.61-0.34-15.26,0.2-22.83c0.46-6.38,2.53-12.49,9.5-14.79
			c2.68-0.88,5.71-0.73,8.6-0.91c3.45-0.21,4.04-0.64,4.17-4.13c0.11-2.93,0.17-5.87-0.02-8.79
			C424.13,162.68,422.6,161.4,419.11,161.22z"/>
		<path class="st0" d="M232.7,180.33c-0.04-2.48-0.84-5-1.64-7.39c-3.62-10.92-13.75-15.43-24.28-10.7
			c-2.82,1.26-5.32,3.22-8.03,4.76c-2.19,1.25-3.9,0.54-4.38-1.84c-0.23-1.13-0.07-2.34-0.08-3.51c-0.01-9,0.03-17.99-0.07-26.99
			c-0.02-1.48-0.24-3.2-1.03-4.37c-1.74-2.6-14.73-2.57-16.31,0.14c-1,1.72-1.3,4.04-1.32,6.1c-0.1,15.65-0.06,31.3-0.06,46.95
			c0,15.84-0.03,31.69,0.02,47.53c0.02,5.66,1.32,6.84,6.91,6.76c1.37-0.02,2.75-0.13,4.11,0.01c3.1,0.33,5.47-0.7,6.41-3.74
			c1.06-3.41,2.42-2.39,4.63-0.97c3.25,2.08,6.67,4.42,10.33,5.23c11.35,2.49,18.64-0.81,22.63-11.93c1.11-3.09,2.09-6.43,2.15-9.67
			C232.96,204.58,232.88,192.45,232.7,180.33z M214.66,200.01c-0.04,0-0.08,0-0.11,0c0,3.73,0.29,7.49-0.06,11.17
			c-0.66,6.83-4.04,10.25-9.55,10.23c-5.88-0.01-9.74-3.61-10.13-10.53c-0.41-7.42-0.4-14.91-0.01-22.34
			c0.37-7.09,4.19-10.78,10-10.72c5.78,0.06,9.26,3.79,9.82,11.01C214.89,192.53,214.66,196.28,214.66,200.01z"/>
		<path class="st0" d="M374.36,165.45c-0.36-1.38-2.09-2.88-3.54-3.42c-4.63-1.72-9.46-0.02-12.71,4c-2.46,3.04-4.64,3.63-7.4,1.14
			c-6.44-5.8-14.09-7.18-22.3-6.71c-10.87,0.63-19.87,4.6-24.24,15.3c-3.33,8.15-3.63,16.61-1.05,25.16
			c1.59,5.27,4.78,9.26,8.81,12.83c3.11,2.75,2.86,3.94-0.67,6.15c-1.81,1.13-3.85,2.01-5.4,3.43c-4.54,4.14-4.35,11.15,0.16,14.96
			c1.55,1.31,2.98,2.77,4.46,4.16c-1.71,1.18-3.37,2.45-5.14,3.53c-8.6,5.27-8.56,15.91,0.18,20.81c2.01,1.13,4.22,2.11,6.46,2.61
			c14.11,3.12,28.29,2.91,42.28-0.4c6.63-1.57,12.34-5.23,14.54-12.32c3.33-10.77-2.18-21.4-13.05-24.57
			c-4.63-1.35-9.58-1.69-14.42-2.21c-5.82-0.63-11.69-0.85-17.52-1.46c-2.25-0.24-4.24-1.37-4-4.13c0.21-2.43,1.77-3.95,4.14-4.24
			c1.92-0.24,3.9-0.05,6.3-0.05c15.59,0.65,29.58-8.47,29.12-29.83c-0.03-1.56-0.15-3.12-0.37-4.66c-1.24-8.56-1.04-8.8,7.92-8.88
			c1.17-0.01,2.57,0.35,3.47-0.16c1.58-0.9,3.66-2.11,4.08-3.6C375.11,170.59,374.97,167.82,374.36,165.45z M325.27,245.71
			c8.04-1.27,16.25-0.87,24.03,1.03c2.19,0.53,3.68,2.92,3.77,5.41c0.09,2.52-2.23,5.53-4.36,6.04c-4.51,1.08-20.34,0.04-23.74-0.74
			c-3.99-0.92-5.98-3.23-5.99-6.19C318.97,248.18,320.74,246.43,325.27,245.71z M339.8,191.23c-0.03,0-0.06,0-0.1,0
			c0,2.73,0.24,5.49-0.05,8.19c-0.55,5.01-3.38,7.51-7.98,7.5c-4.91-0.01-8.14-2.65-8.46-7.72c-0.35-5.44-0.34-10.94-0.01-16.38
			c0.31-5.2,3.5-7.91,8.35-7.86c4.83,0.05,7.74,2.78,8.2,8.07C340,185.74,339.8,188.49,339.8,191.23z"/>
	</g>
</g>
</svg>
