<?xml version="1.0" encoding="utf-8"?>
<!-- Generator: Adobe Illustrator 21.1.0, SVG Export Plug-In . SVG Version: 6.00 Build 0)  -->
<svg version="1.1" id="Layer_1" xmlns="http://www.w3.org/2000/svg" xmlns:xlink="http://www.w3.org/1999/xlink" x="0px" y="0px"
	 viewBox="0 0 600 400" style="enable-background:new 0 0 600 400;" xml:space="preserve">
<style type="text/css">
	.st0{fill:#FFFFFF;}
</style>
<g id="Missouri_Wind_Resources">
	<g>
		<g>
			<path class="st0" d="M197.85,243.81l-4.48-16.88h2.29l2.57,11.07c0.28,1.16,0.51,2.31,0.71,3.45c0.43-1.8,0.68-2.84,0.76-3.12
				l3.21-11.4h2.69l2.42,8.54c0.61,2.12,1.04,4.11,1.31,5.97c0.21-1.06,0.49-2.29,0.84-3.67l2.65-10.85h2.24l-4.63,16.88h-2.15
				l-3.56-12.86c-0.3-1.08-0.48-1.74-0.53-1.98c-0.18,0.78-0.34,1.44-0.5,1.98l-3.58,12.86H197.85z"/>
			<path class="st0" d="M222.26,243.81v-16.88h2.23v16.88H222.26z"/>
			<path class="st0" d="M233.13,243.81v-16.88h2.29l8.87,13.25v-13.25h2.14v16.88h-2.29l-8.87-13.27v13.27H233.13z"/>
			<path class="st0" d="M254.9,243.81v-16.88h5.81c1.31,0,2.31,0.08,3.01,0.24c0.97,0.22,1.79,0.63,2.48,1.21
				c0.89,0.75,1.56,1.71,2,2.88c0.44,1.17,0.66,2.51,0.66,4.01c0,1.28-0.15,2.42-0.45,3.41c-0.3,0.99-0.68,1.81-1.15,2.46
				c-0.47,0.65-0.98,1.16-1.54,1.53c-0.56,0.37-1.23,0.66-2.02,0.85c-0.79,0.19-1.69,0.29-2.71,0.29H254.9z M257.13,241.81h3.6
				c1.11,0,1.99-0.1,2.62-0.31c0.63-0.21,1.14-0.5,1.51-0.88c0.53-0.53,0.94-1.24,1.24-2.14c0.3-0.89,0.44-1.98,0.44-3.25
				c0-1.76-0.29-3.12-0.87-4.07c-0.58-0.95-1.29-1.58-2.11-1.91c-0.6-0.23-1.56-0.34-2.89-0.34h-3.55V241.81z"/>
			<path class="st0" d="M287.95,243.81v-16.88h7.49c1.5,0,2.65,0.15,3.43,0.45c0.78,0.3,1.41,0.84,1.88,1.61
				c0.47,0.77,0.7,1.61,0.7,2.54c0,1.2-0.39,2.21-1.16,3.03c-0.77,0.82-1.97,1.34-3.59,1.57c0.59,0.28,1.04,0.56,1.35,0.84
				c0.65,0.6,1.27,1.35,1.85,2.25l2.94,4.59h-2.81l-2.23-3.51c-0.65-1.01-1.19-1.79-1.61-2.33c-0.42-0.54-0.8-0.91-1.13-1.13
				c-0.33-0.22-0.67-0.37-1.02-0.45c-0.25-0.05-0.67-0.08-1.24-0.08h-2.59v7.5H287.95z M290.18,234.38h4.8
				c1.02,0,1.82-0.11,2.39-0.32c0.58-0.21,1.01-0.55,1.31-1.01c0.3-0.46,0.45-0.97,0.45-1.51c0-0.8-0.29-1.45-0.87-1.97
				c-0.58-0.51-1.5-0.77-2.74-0.77h-5.34V234.38z"/>
			<path class="st0" d="M309.7,243.81v-16.88h12.21v1.99h-9.97v5.17h9.34v1.98h-9.34v5.75h10.36v1.99H309.7z"/>
			<path class="st0" d="M329.34,238.38l2.11-0.19c0.1,0.85,0.33,1.54,0.7,2.08c0.37,0.54,0.93,0.98,1.7,1.31
				c0.77,0.33,1.63,0.5,2.59,0.5c0.85,0,1.61-0.13,2.26-0.38c0.65-0.25,1.14-0.6,1.46-1.04c0.32-0.44,0.48-0.92,0.48-1.45
				c0-0.53-0.15-0.99-0.46-1.39c-0.31-0.4-0.81-0.73-1.52-1c-0.45-0.18-1.45-0.45-3.01-0.82c-1.55-0.37-2.64-0.72-3.26-1.06
				c-0.8-0.42-1.41-0.94-1.8-1.57c-0.4-0.63-0.59-1.32-0.59-2.1c0-0.85,0.24-1.65,0.72-2.39c0.49-0.74,1.19-1.3,2.12-1.69
				c0.93-0.38,1.96-0.58,3.1-0.58c1.25,0,2.35,0.2,3.31,0.6c0.96,0.4,1.69,1,2.2,1.78c0.52,0.78,0.79,1.67,0.83,2.66l-2.14,0.16
				c-0.12-1.07-0.5-1.87-1.17-2.42c-0.66-0.55-1.64-0.82-2.94-0.82c-1.35,0-2.34,0.25-2.95,0.74c-0.62,0.5-0.93,1.09-0.93,1.79
				c0,0.61,0.22,1.11,0.66,1.5c0.43,0.39,1.55,0.79,3.37,1.2c1.82,0.41,3.06,0.77,3.74,1.08c0.98,0.45,1.71,1.03,2.17,1.72
				c0.47,0.7,0.7,1.5,0.7,2.4c0,0.9-0.26,1.75-0.77,2.54c-0.52,0.79-1.26,1.41-2.22,1.85c-0.96,0.44-2.05,0.66-3.25,0.66
				c-1.53,0-2.81-0.22-3.84-0.67c-1.03-0.44-1.84-1.11-2.43-2.01C329.68,240.52,329.37,239.51,329.34,238.38z"/>
			<path class="st0" d="M349.87,235.59c0-2.8,0.75-5,2.26-6.58c1.5-1.58,3.44-2.38,5.83-2.38c1.56,0,2.96,0.37,4.21,1.12
				c1.25,0.74,2.2,1.78,2.86,3.12c0.65,1.33,0.98,2.84,0.98,4.53c0,1.71-0.35,3.24-1.03,4.59c-0.69,1.35-1.67,2.37-2.94,3.07
				c-1.27,0.7-2.63,1.04-4.1,1.04c-1.59,0-3.01-0.38-4.26-1.15c-1.25-0.77-2.2-1.82-2.85-3.14
				C350.19,238.47,349.87,237.07,349.87,235.59z M352.17,235.62c0,2.03,0.55,3.64,1.64,4.81c1.1,1.17,2.47,1.76,4.12,1.76
				c1.68,0,3.06-0.59,4.15-1.77c1.09-1.18,1.63-2.86,1.63-5.03c0-1.37-0.23-2.57-0.7-3.6c-0.46-1.02-1.14-1.82-2.04-2.38
				c-0.9-0.57-1.9-0.85-3.01-0.85c-1.58,0-2.94,0.54-4.08,1.63C352.74,231.27,352.17,233.08,352.17,235.62z"/>
			<path class="st0" d="M384.69,226.93h2.23v9.75c0,1.7-0.19,3.04-0.58,4.04c-0.38,1-1.07,1.81-2.08,2.43
				c-1,0.63-2.32,0.94-3.94,0.94c-1.58,0-2.87-0.27-3.88-0.82c-1.01-0.55-1.72-1.33-2.15-2.37c-0.43-1.03-0.65-2.44-0.65-4.23v-9.75
				h2.23v9.74c0,1.47,0.14,2.54,0.41,3.24c0.27,0.7,0.74,1.23,1.4,1.61c0.66,0.38,1.48,0.56,2.44,0.56c1.64,0,2.81-0.37,3.51-1.12
				c0.7-0.75,1.05-2.18,1.05-4.29V226.93z"/>
			<path class="st0" d="M395.39,243.81v-16.88h7.48c1.51,0,2.65,0.15,3.43,0.45c0.78,0.3,1.41,0.84,1.88,1.61
				c0.47,0.77,0.7,1.61,0.7,2.54c0,1.2-0.39,2.21-1.16,3.03c-0.77,0.82-1.97,1.34-3.59,1.57c0.59,0.28,1.04,0.56,1.35,0.84
				c0.65,0.6,1.27,1.35,1.85,2.25l2.94,4.59h-2.81l-2.23-3.51c-0.65-1.01-1.19-1.79-1.61-2.33c-0.42-0.54-0.8-0.91-1.14-1.13
				c-0.33-0.22-0.67-0.37-1.02-0.45c-0.25-0.05-0.67-0.08-1.24-0.08h-2.59v7.5H395.39z M397.63,234.38h4.8
				c1.02,0,1.82-0.11,2.4-0.32c0.57-0.21,1.01-0.55,1.31-1.01c0.3-0.46,0.45-0.97,0.45-1.51c0-0.8-0.29-1.45-0.87-1.97
				c-0.58-0.51-1.49-0.77-2.75-0.77h-5.34V234.38z"/>
			<path class="st0" d="M429.15,237.89l2.23,0.56c-0.47,1.83-1.31,3.23-2.53,4.2c-1.22,0.96-2.7,1.45-4.46,1.45
				c-1.82,0-3.3-0.37-4.44-1.11c-1.14-0.74-2.01-1.81-2.6-3.22c-0.6-1.4-0.9-2.91-0.9-4.52c0-1.76,0.34-3.29,1.01-4.6
				s1.63-2.3,2.87-2.98c1.24-0.68,2.61-1.02,4.1-1.02c1.69,0,3.11,0.43,4.26,1.29c1.15,0.86,1.95,2.07,2.41,3.63l-2.2,0.52
				c-0.39-1.23-0.96-2.12-1.7-2.68c-0.74-0.56-1.68-0.84-2.81-0.84c-1.3,0-2.38,0.31-3.25,0.93c-0.87,0.62-1.49,1.46-1.84,2.5
				c-0.35,1.05-0.53,2.13-0.53,3.24c0,1.44,0.21,2.69,0.63,3.76c0.42,1.07,1.07,1.87,1.95,2.4c0.88,0.53,1.84,0.79,2.87,0.79
				c1.25,0,2.31-0.36,3.18-1.08C428.26,240.38,428.84,239.31,429.15,237.89z"/>
			<path class="st0" d="M438.9,243.81v-16.88h12.21v1.99h-9.97v5.17h9.34v1.98h-9.34v5.75h10.36v1.99H438.9z"/>
			<path class="st0" d="M458.54,238.38l2.11-0.19c0.1,0.85,0.33,1.54,0.7,2.08c0.36,0.54,0.93,0.98,1.7,1.31
				c0.77,0.33,1.63,0.5,2.59,0.5c0.85,0,1.6-0.13,2.26-0.38c0.65-0.25,1.14-0.6,1.46-1.04c0.32-0.44,0.48-0.92,0.48-1.45
				c0-0.53-0.15-0.99-0.46-1.39c-0.31-0.4-0.82-0.73-1.52-1c-0.45-0.18-1.45-0.45-3-0.82c-1.55-0.37-2.64-0.72-3.26-1.06
				c-0.8-0.42-1.41-0.94-1.8-1.57c-0.4-0.63-0.59-1.32-0.59-2.1c0-0.85,0.24-1.65,0.73-2.39c0.48-0.74,1.19-1.3,2.12-1.69
				c0.93-0.38,1.96-0.58,3.1-0.58c1.25,0,2.36,0.2,3.31,0.6c0.95,0.4,1.69,1,2.21,1.78c0.51,0.78,0.79,1.67,0.83,2.66l-2.14,0.16
				c-0.12-1.07-0.51-1.87-1.17-2.42c-0.66-0.55-1.64-0.82-2.94-0.82c-1.35,0-2.34,0.25-2.95,0.74c-0.62,0.5-0.93,1.09-0.93,1.79
				c0,0.61,0.22,1.11,0.66,1.5c0.43,0.39,1.55,0.79,3.37,1.2c1.81,0.41,3.06,0.77,3.74,1.08c0.98,0.45,1.71,1.03,2.18,1.72
				c0.47,0.7,0.7,1.5,0.7,2.4c0,0.9-0.26,1.75-0.77,2.54c-0.52,0.79-1.25,1.41-2.22,1.85c-0.96,0.44-2.05,0.66-3.25,0.66
				c-1.53,0-2.81-0.22-3.84-0.67c-1.03-0.44-1.84-1.11-2.43-2.01C458.88,240.52,458.57,239.51,458.54,238.38z"/>
			<path class="st0" d="M480.02,243.81v-2.36h2.36v2.36c0,0.87-0.15,1.57-0.46,2.1c-0.31,0.53-0.8,0.95-1.46,1.24l-0.57-0.89
				c0.44-0.19,0.76-0.47,0.97-0.85c0.2-0.37,0.32-0.91,0.34-1.61H480.02z"/>
			<path class="st0" d="M502.19,243.81v-16.88h2.23v14.89h8.31v1.99H502.19z"/>
			<path class="st0" d="M520.02,243.81v-16.88h2.23v14.89h8.32v1.99H520.02z"/>
			<path class="st0" d="M549.99,237.89l2.23,0.56c-0.47,1.83-1.31,3.23-2.53,4.2c-1.22,0.96-2.7,1.45-4.46,1.45
				c-1.82,0-3.3-0.37-4.44-1.11c-1.14-0.74-2.01-1.81-2.6-3.22c-0.6-1.4-0.9-2.91-0.9-4.52c0-1.76,0.34-3.29,1.01-4.6
				c0.67-1.31,1.63-2.3,2.87-2.98c1.24-0.68,2.61-1.02,4.09-1.02c1.69,0,3.11,0.43,4.26,1.29c1.15,0.86,1.95,2.07,2.41,3.63
				l-2.2,0.52c-0.39-1.23-0.96-2.12-1.7-2.68c-0.74-0.56-1.68-0.84-2.81-0.84c-1.3,0-2.38,0.31-3.25,0.93
				c-0.87,0.62-1.49,1.46-1.84,2.5c-0.35,1.05-0.53,2.13-0.53,3.24c0,1.44,0.21,2.69,0.63,3.76c0.42,1.07,1.07,1.87,1.95,2.4
				c0.88,0.53,1.84,0.79,2.87,0.79c1.25,0,2.31-0.36,3.18-1.08C549.1,240.38,549.68,239.31,549.99,237.89z"/>
		</g>
		<g>
			<path class="st0" d="M219.06,216.88c-1.61,0-3.28-1.29-3.86-2.83l-11.07-30.89v30.7c0,1.67-1.29,3.03-2.96,3.03h-5.67
				c-1.67,0-2.96-1.35-2.96-3.03v-39c0-1.67,1.29-3.03,2.9-3.03h12.81c1.67,0,3.28,1.35,3.8,2.96l9.27,26.84l9.27-26.84
				c0.51-1.61,2.12-2.96,3.8-2.96h12.81c1.61,0,2.9,1.35,2.9,3.03v39c0,1.67-1.28,3.03-2.96,3.03h-5.66c-1.67,0-2.96-1.35-2.96-3.03
				v-30.7l-11.07,30.89c-0.58,1.55-2.25,2.83-3.86,2.83H219.06z"/>
			<path class="st0" d="M259.09,174.79c0-1.67,1.35-2.96,2.96-2.96h5.86c1.67,0,3.03,1.29,3.03,2.96v39.13
				c0,1.61-1.35,2.96-3.03,2.96h-5.86c-1.61,0-2.96-1.29-2.96-2.9V174.79z"/>
			<path class="st0" d="M297.71,171.57h7.98c8.11,0,16.8,4.7,16.8,11.58c0,2.9-2.38,3.48-3.22,3.48h-3.73
				c-1.8,0-3.22-0.84-4.25-2.96c-1.03-2.19-3.47-3.22-6.69-3.22h-9.46c-3.86,0-5.54,1.35-5.54,3.6c0,7.47,34.05,3.15,34.05,19.95
				c0,7.72-4.51,13.13-19.95,13.13h-9.52c-8.11,0-16.8-4.7-16.8-11.59c0-2.9,2.38-3.48,3.22-3.48h3.73c1.8,0,3.22,0.84,4.25,2.96
				c1.03,2.19,3.48,3.22,6.69,3.22h11.01c3.86,0,5.53-1.35,5.53-3.6c0-7.47-34.04-3.28-34.04-19.95
				C277.75,176.98,282.26,171.57,297.71,171.57z"/>
			<path class="st0" d="M347.84,171.57h7.98c8.11,0,16.8,4.7,16.8,11.58c0,2.9-2.38,3.48-3.22,3.48h-3.73
				c-1.8,0-3.22-0.84-4.25-2.96c-1.03-2.19-3.48-3.22-6.7-3.22h-9.46c-3.86,0-5.54,1.35-5.54,3.6c0,7.47,34.05,3.15,34.05,19.95
				c0,7.72-4.5,13.13-19.95,13.13h-9.53c-8.11,0-16.8-4.7-16.8-11.59c0-2.9,2.38-3.48,3.22-3.48h3.73c1.8,0,3.22,0.84,4.25,2.96
				c1.03,2.19,3.48,3.22,6.69,3.22h11c3.86,0,5.54-1.35,5.54-3.6c0-7.47-34.05-3.28-34.05-19.95
				C327.89,176.98,332.4,171.57,347.84,171.57z"/>
			<path class="st0" d="M402.93,170.87c16.09,0,25.29,6.76,25.29,23.49c0,16.73-9.2,23.49-25.29,23.49
				c-16.09,0-25.29-6.76-25.29-23.49C377.64,177.62,386.85,170.87,402.93,170.87z M389.48,194.36c0,9.65,3.8,15,13.45,15
				c9.65,0,13.45-5.34,13.45-15c0-9.65-3.8-14.99-13.45-14.99C393.28,179.36,389.48,184.7,389.48,194.36z"/>
			<path class="st0" d="M459.19,208.26c5.73,0,8.3-2.96,8.3-9.14v-24.33c0-1.67,1.35-2.96,2.96-2.96h5.85
				c1.67,0,3.03,1.29,3.03,2.96v24.26c0,11.39-6.69,18.09-19.82,18.09h-5.66c-13.13,0-19.82-6.69-19.82-18.09v-24.26
				c0-1.67,1.35-2.96,3.02-2.96h5.86c1.61,0,2.96,1.29,2.96,2.96v24.33c0,6.18,2.57,9.14,8.3,9.14H459.19z"/>
			<path class="st0" d="M499.54,200.41v13.52c0,1.61-1.29,2.96-2.96,2.96h-5.92c-1.61,0-2.96-1.35-2.96-2.96v-39.13
				c0-1.67,1.29-2.96,2.9-2.96h25.94c9.4,0,16.41,5.41,16.41,14.29c0,6.95-5.34,10.17-11.84,11.46c2.64,0.97,4.57,3.22,7.15,7.27
				l5.73,9.08c1.03,1.67,0.58,2.96-1.09,2.96h-7.53c-1.61,0-3.8-1.29-4.83-2.96l-5.34-8.37c-1.61-2.51-3.93-5.15-7.98-5.15H499.54z
				 M499.54,180.71v10.81h13.39c3.6,0,8.17-1.29,8.17-5.41c0-4.12-4.57-5.41-8.17-5.41H499.54z"/>
			<path class="st0" d="M539.7,174.79c0-1.67,1.35-2.96,2.96-2.96h5.85c1.67,0,3.03,1.29,3.03,2.96v39.13
				c0,1.61-1.35,2.96-3.03,2.96h-5.85c-1.61,0-2.96-1.29-2.96-2.9V174.79z"/>
		</g>
		<path class="st0" d="M77.87,235.25c-6.11,0-12.26,0.43-18.29,1.28c11.47,15.93,30.1,25.94,50.62,25.94
			c5.21,0,10.43-0.66,15.52-1.97c6.36-1.63,12.31-4.2,17.72-7.58l-0.6-0.35C123.33,241.24,100.86,235.25,77.87,235.25z"/>
		<path class="st0" d="M170.77,184.53c-7.08-27.68-31.94-47-60.46-47c-5.2,0-10.42,0.66-15.52,1.96
			c-16.16,4.13-29.75,14.31-38.26,28.66c-8.51,14.35-10.91,31.16-6.78,47.32c0.66,2.58,1.47,5.08,2.43,7.5l0.25-0.09
			c3.89-1.37,7.84-2.58,11.76-3.58c6.4-1.64,12.89-2.79,19.4-3.48c-0.02,0-0.05,0-0.07,0.01l2.2-25.91c1.77-2.65,3.07-4.9,3.14-5.74
			c0.12-1.33-0.15-2.43-0.39-3.11c0.23-0.07,0.45-0.18,0.65-0.32c0.13-0.09,0.24-0.19,0.35-0.29l1.48,34.8c-0.01,0-0.03,0-0.04,0
			c2.23-0.11,4.47-0.19,6.7-0.19c7.66,0,15.28,0.68,22.75,1.99l2.68-31.67c2.25-3.37,3.9-6.24,4-7.31c0.15-1.7-0.18-3.09-0.5-3.96
			c0.29-0.09,0.57-0.23,0.82-0.4c0.16-0.11,0.3-0.24,0.44-0.37l1.93,45.41h-1.21c12.21,2.94,23.96,7.62,34.83,13.93l0.08,0.05
			c0.18-0.3,0.38-0.59,0.56-0.89C172.49,217.5,174.9,200.69,170.77,184.53z M107.6,142.35c2.67,2.09,14.61,20.06,17.64,25.45
			c-0.55,0.04-1.09,0.22-1.58,0.55c-0.57,0.39-0.97,0.92-1.2,1.51c-1.02-0.21-2.14-0.63-3.21-1.35
			C116.22,166.47,104.52,139.94,107.6,142.35z M73.59,156.1c2.1,1.65,11.48,15.77,13.86,20c-0.43,0.03-0.86,0.17-1.24,0.43
			c-0.44,0.3-0.76,0.72-0.94,1.19c-0.8-0.16-1.68-0.5-2.52-1.06C80.36,175.06,71.17,154.2,73.59,156.1z M88.51,184.15
			c-0.25,2.86-14.06,20.99-13.57,17.95c0.42-2.63,8.21-17.58,10.79-21.76c0.61,0.69,1.53,0.99,2.41,0.82
			C88.43,181.98,88.61,183.02,88.51,184.15z M88.92,180.52c-1.03,0.71-2.44,0.44-3.15-0.6c-0.7-1.04-0.44-2.45,0.6-3.15
			c1.03-0.7,2.45-0.44,3.15,0.6C90.23,178.4,89.96,179.81,88.92,180.52z M89.99,179.67c0.34-0.78,0.28-1.71-0.23-2.46
			c-0.09-0.14-0.2-0.26-0.31-0.37c0.52-0.57,1.21-1.12,2.05-1.55c2.57-1.29,25.25,0.93,22.4,2.11
			C111.49,178.41,95.21,179.62,89.99,179.67z M126.59,178.04c-0.32,3.64-17.9,26.71-17.27,22.84c0.54-3.34,10.45-22.38,13.72-27.7
			c0.78,0.88,1.95,1.26,3.07,1.05C126.49,175.29,126.72,176.6,126.59,178.04z M127.11,173.43c-1.32,0.9-3.11,0.56-4.01-0.76
			c-0.9-1.32-0.56-3.11,0.76-4.01c1.32-0.9,3.11-0.56,4.01,0.76C128.77,170.73,128.43,172.53,127.11,173.43z M158.9,169.46
			c-3.07,1.27-23.79,2.82-30.44,2.88c0.43-0.99,0.36-2.17-0.29-3.13c-0.12-0.17-0.25-0.33-0.39-0.47c0.66-0.73,1.53-1.43,2.61-1.97
			C133.67,165.13,162.53,167.96,158.9,169.46z"/>
		<path class="st0" d="M59.33,234.94c29.23-4.13,59.18,1.64,84.34,16.24l0.73,0.42c7.28-4.64,13.43-10.63,18.14-17.51
			c-28.21-16.4-63.16-22.12-97.95-13.22c-3.97,1.01-7.84,2.2-11.62,3.54c1.53,3.78,3.45,7.33,5.67,10.63L59.33,234.94z"/>
	</g>
</g>
</svg>
