<?xml version="1.0" encoding="utf-8"?>
<!-- Generator: Adobe Illustrator 21.1.0, SVG Export Plug-In . SVG Version: 6.00 Build 0)  -->
<svg version="1.1" id="Layer_1" xmlns="http://www.w3.org/2000/svg" xmlns:xlink="http://www.w3.org/1999/xlink" x="0px" y="0px"
	 viewBox="0 0 600 400" style="enable-background:new 0 0 600 400;" xml:space="preserve">
<style type="text/css">
	.st0{fill:#FFFFFF;}
</style>
<g id="Core_Bamboo">
	<g>
		<path class="st0" d="M300,81c-65.72,0-119,53.28-119,119s53.28,119,119,119s119-53.28,119-119S365.72,81,300,81z M354.79,165.45
			c2.14-0.48,4.2-1.38,6.48-1.21c1,0.08,2.01,0.05,3.02,0.01c2.87-0.13,5.49,0.89,8.01,1.98c2.21,0.96,4.24,2.28,6.03,4.02
			c3.23,3.14,5.46,5.94,6.97,9.88c0.51,1.34,0.81,2.79,1.09,4.19c0.41,2.05,0.42,4.17,0.63,6.52c-14.33,0-28.33,0-42.33,0
			c-0.22,5.76,5.6,13.23,11.58,15.34c3.03,1.07,6.11,1.1,9.15,0.81c2.96-0.29,5.62-1.62,8.11-3.42c2.57-1.86,4.05-4.38,5.49-7.11
			c1.99,0,3.96,0,5.95,0c0.45,1.82-0.74,3.15-1.53,4.43c-1.37,2.23-2.97,4.38-5.04,6.05c-3.13,2.54-6.49,4.61-10.6,5.31
			c-0.86,0.15-1.73,0.31-2.61,0.4c-0.87,0.09-1.75,0.49-2.6,0.42c-4.91-0.38-9.65-1.43-13.76-4.33c-3.77-2.67-6.74-6.05-8.52-10.37
			c-0.98-2.37-1.88-4.76-1.79-7.39c0.05-1.47,0.06-2.95,0-4.41c-0.12-2.8,0.92-5.29,1.87-7.83c1.5-4.02,4.46-6.95,7.59-9.59
			C349.92,167.5,352.18,166.04,354.79,165.45z M313.42,188.33c0.16-0.12,0.31-0.23,0.47-0.35c0-1.71,0-3.41,0-5.12
			c0-0.47,0-0.93,0-1.4c-0.22-1.48,0.44-3.02-0.42-4.47c-0.14-0.23,0.4-0.77,0.4-1.18c0.04-3.56,0.03-7.12,0.01-10.67
			c0-0.18-0.27-0.35-0.33-0.55c-0.21-0.66,0.58-1.59,1.02-1.21c0.79,0.66,1.62,0.42,2.4,0.38c1.41-0.07,2.87,0.43,4.24-0.41
			c0.42-0.26,1.3,0.71,1.01,1.12c-0.29,0.41-0.42,0.76-0.42,1.23c0.02,1.37,0.01,2.74,0.01,4.41c3.77-2.18,7.46-3.65,11.43-4.52
			c4.03-0.88,8-1.99,12.32-1.79c-0.11,1.26-1.11,1.66-1.76,2.3c-0.2,0.19-0.54,0.23-0.75,0.41c-1.92,1.74-3.82,3.49-5.72,5.24
			c-2.13,1.96-4.14,4.07-6.4,5.87c-2.22,1.76-4.17,3.96-7.03,4.84c-0.39,0.12-0.78,0.32-1.22,0.42c-0.52,0.12-0.89,0.5-0.87,1.14
			c0.03,1.47,0.01,2.94,0.01,4.41c0,0.16,0,0.31,0,0.47c0,4.03,0,8.06,0,12.09c0,0.16,0,0.31,0,0.47c0,0.62,0,1.24,0,1.86
			c0.16,0.12,0.44,0.24,0.45,0.37c0.03,2.55,0.03,5.09,0,7.64c0,0.12-0.29,0.24-0.45,0.37c0,0.59,0,1.17,0,1.86
			c-0.85,0-1.59,0-2.33,0c-0.98,0.65-2.28,0.65-3.26,0c-0.69,0-1.38,0-2.07,0c-0.06-0.05-0.12-0.09-0.17-0.15
			c-0.04-0.06-0.08-0.13-0.08-0.19c0-3.76,0-7.52,0-11.29c-0.16-0.19-0.31-0.39-0.47-0.58c0.16-0.12,0.31-0.23,0.47-0.35
			c0-4.03,0-8.06,0-12.09C313.73,188.72,313.57,188.52,313.42,188.33z M262.55,174.42c2.15-3.15,4.99-5.53,8.3-7.36
			c1.19-0.66,2.39-1.38,3.68-1.77c1.24-0.38,2.59-0.34,3.78-1.01c0.29-0.17,0.76-0.02,1.15-0.02c1.78,0,3.57-0.05,5.35,0.01
			c3.5,0.12,6.62,1.46,9.63,3.11c2.63,1.45,4.73,3.56,6.64,5.79c1.5,1.74,2.85,3.65,3.54,5.96c0.37,1.22,0.95,2.39,1.36,3.62
			c0.55,1.62,0.44,3.27,0.45,4.93c0,0.31,0,0.62,0,0.93c0,0.46-0.02,0.93,0,1.39c0.21,4.11-1.61,7.64-3.29,11.19
			c-0.4,0.85-1.08,1.62-1.77,2.28c-1.93,1.84-3.54,4.04-5.88,5.44c-2.42,1.45-4.88,2.77-7.71,3.28c-1.88,0.34-3.74,0.92-5.66,0.89
			c-2.14-0.03-4.22-0.59-6.29-1.08c-1.38-0.32-2.76-0.74-3.99-1.58c-1.12-0.77-2.47-1.21-3.57-2c-1.05-0.74-1.88-1.8-2.88-2.62
			c-2.19-1.79-3.7-4.15-4.93-6.58c-0.96-1.89-1.6-3.99-2.01-6.15c-0.31-1.66-0.41-3.28-0.39-4.93
			C258.1,183.09,259.73,178.55,262.55,174.42z M203.63,192.57c0.02-1.27-0.52-2.45-0.52-3.76c0-1.83,0.4-3.59,0.71-5.33
			c0.28-1.57,0.7-3.21,1.64-4.65c0.94-1.43,1.32-3.29,2.43-4.53c2.07-2.31,4.21-4.59,6.85-6.36c1.7-1.15,3.71-1.59,5.39-2.73
			c2.08-0.01,3.97-1.25,6.11-0.97c0.84,0.11,1.71,0.09,2.55,0.01c3.04-0.3,5.88,0.56,8.67,1.54c2.55,0.9,4.78,2.34,6.96,4.01
			c2.98,2.29,4.8,5.29,6.48,8.48c0.16,0.31,0.16,0.71,0.28,1.29c-2.32,0-4.39,0-6.63,0c-0.66-2.16-2.39-3.55-3.94-5.07
			c-2.24-2.21-4.95-3.46-8-4.25c-2.37-0.62-4.7-0.18-7.03-0.4c-1.26,0.67-2.75,0.41-4.02,0.95c-1.25,0.53-2.54,1.08-3.63,1.87
			c-2.11,1.53-4.2,3.13-5.46,5.53c-0.54,1.02-1.28,1.95-1.76,2.99c-0.48,1.04-0.36,2.28-0.98,3.31c-0.17,0.28-0.03,0.76-0.03,1.14
			c0,0.85-0.02,1.7,0,2.56c0.04,1.45-0.05,2.93,0.19,4.35c0.22,1.33,0.64,2.68,1.24,3.89c0.74,1.49,1.63,2.95,2.69,4.22
			c1.87,2.25,4.25,3.91,6.93,5.11c0.65,0.29,1.3,0.64,1.99,0.8c1,0.24,2.03,0.42,3.06,0.47c1.7,0.07,3.41,0.01,5.11,0.02
			c1.8,0.01,3.38-0.69,5.04-1.28c2.97-1.06,5.04-3.15,7.08-5.33c0.69-0.73,1.17-1.66,1.83-2.62c1.89,0,3.96,0,6.07,0
			c0.68,0.74-0.03,1.55-0.35,1.97c-1.75,2.31-3.04,4.98-5.35,6.87c-3.19,2.62-6.57,4.76-10.72,5.58c-1.11,0.22-2.19,0.34-3.3,0.41
			c-1.03,0.07-1.97,0.67-3.06,0.46c-2.3-0.44-4.63-0.64-6.93-1.21c-3.15-0.79-5.96-2.28-8.52-4.08c-1.82-1.28-3.39-3.02-4.69-4.96
			c-1.46-2.18-2.83-4.37-3.57-6.89C204.1,194.85,203.61,193.77,203.63,192.57z M217.11,240.43c-0.36,0.33-0.78,0.79-1.27,1.15
			c-0.65,0.47-1.31,0.89-2.21,0.84c-1.23-0.07-2.47-0.02-3.72-0.02c-0.05-0.05-0.11-0.1-0.15-0.16c-0.04-0.06-0.07-0.13-0.07-0.2
			c0-4.01,0-8.02,0-12.19c0.97,0,1.91,0.15,2.78-0.04c1.29-0.28,2.2,0.48,3.04,1.07c0.8,0.56,0.77,1.7,0.69,2.69
			c-0.02,0.23,0,0.46,0,0.66c-0.37,0.4-0.71,0.78-1.17,1.27c0.54,0.3,0.92,0.47,1.24,0.71c0.31,0.23,0.55,0.54,0.84,0.82
			C217.11,238.11,217.11,239.19,217.11,240.43z M249.23,242.25c-0.97,0.34-1.51,0.11-1.89-0.77c-0.39-0.92-0.76-2.12-1.5-2.55
			c-0.82-0.47-2.06-0.23-3.12-0.24c-1.9-0.02-1.9-0.01-2.79,1.82c-0.19,0.38-0.28,0.81-0.48,1.19c-0.22,0.42-0.78,0.58-1.89,0.59
			c0.09-0.44,0.09-0.88,0.26-1.25c0.68-1.5,1.4-2.97,2.11-4.45c0.98-2.06,1.97-4.13,2.95-6.2c0.53-0.05,0.9-0.29,1.3,0.61
			c1.53,3.46,3.32,6.81,4.98,10.21C249.31,241.5,249.22,241.92,249.23,242.25z M281.78,241.1c-0.17-2.01-0.36-4.02-0.56-6.28
			c-0.36,0.25-0.7,0.37-0.81,0.59c-1.2,2.34-2.36,4.7-3.55,7.1c-1.36-0.44-1.06-1.74-1.58-2.54c-0.59-0.92-1.29-1.79-1.69-2.78
			c-0.38-0.94-0.52-1.97-1.35-2.68c-0.4,2.62-0.81,5.23-1.22,7.87c-0.45,0-0.82,0-1.37,0c0.23-1.2-0.41-2.41,0.48-3.51
			c0.11-0.14,0.01-0.45,0.02-0.68c0.02-0.96,0-1.89,0.41-2.85c0.33-0.77-0.07-1.71,0.45-2.61c0.33-0.57,0.06-1.49,0.06-2.25
			c0.88-0.4,1.12,0.19,1.4,0.73c1.08,2.18,2.17,4.36,3.26,6.54c0.24,0.49,0.49,0.98,0.88,1.77c1.79-3.15,2.97-6.27,4.48-9.24
			c0.69,0.12,1.24,0.49,1.12,1.17c-0.21,1.18,0.52,2.17,0.51,3.29c-0.02,1.04,0.07,2.03,0.38,3.08c0.42,1.39,0.35,2.93,0.51,4.59
			C282.04,242.22,281.87,242.08,281.78,241.1z M307.56,242.41c-0.61-0.07-1.24,0.02-1.86-0.02c-0.68-0.05-1.12-0.42-1.12-1.14
			c-0.01-3.41,0-6.82-0.01-10.23c0-0.75,0.44-1.12,1.09-1.17c0.93-0.07,1.87-0.11,2.78,0.02c0.62,0.08,1.24,0.4,1.76,0.76
			c0.51,0.34,0.89,0.85,1.33,1.29c0.02,2.23,0.02,2.23-0.92,3.56c0.01,0.07,0,0.17,0.05,0.21c0.6,0.61,1.2,1.21,1.8,1.81
			C312.96,240.58,311.17,242.84,307.56,242.41z M346.44,236.14c-0.17,3.88-2.9,6.69-6.71,6.64c-4.05-0.05-6.31-2.43-6.76-6.57
			c-0.2-1.85,0.82-3.53,1.95-4.69c1.2-1.22,2.91-2.27,4.85-2.12c1.76,0.13,3.46,0.78,4.69,2.02
			C345.68,232.68,346.59,234.24,346.44,236.14z M378.55,240.68c-1.43,1.2-3.1,2.25-5.12,2.17c-3.01-0.11-6.52-2.49-6.54-6.73
			c-0.01-1.86,0.98-3.33,2.01-4.74c0.64-0.88,3.62-2.06,4.73-1.99c1.75,0.11,3.17,0.88,4.51,2.07c1.47,1.29,2.12,3,2.15,4.67
			C380.31,237.7,379.86,239.58,378.55,240.68z M385.94,223.25c-60.24,0-120.44,0-180.81,0c-0.03-0.48-0.07-1.05-0.11-1.7
			c60.3,0,120.5,0,180.92,0C385.94,222.14,385.94,222.66,385.94,223.25z"/>
		<path class="st0" d="M316.21,180.07c-0.16,0.16-0.31,0.31-0.47,0.47c0,0.07,0,0.14,0,0.21
			C315.9,180.38,316.05,180.23,316.21,180.07z"/>
		<path class="st0" d="M317.14,179.13c-0.08,0-0.16-0.01-0.24-0.01c0.08,0.17-0.07,0.33-0.23,0.48
			C316.83,179.45,316.98,179.3,317.14,179.13C317.14,179.14,317.14,179.14,317.14,179.13z"/>
		<path class="st0" d="M343.29,239.78c-1.05,1.07-2.28,1.26-3.67,1.24c-3.11-0.05-4.73-1.72-4.83-4.8c-0.1-2.88,2.35-5.17,5.11-5.02
			c1.34,0.07,2.45,0.33,3.41,1.3c1.02,1.03,1.55,2.18,1.23,3.5C344.76,237.58,344.32,238.73,343.29,239.78z"/>
		<path class="st0" d="M377.16,239.77c-0.65,0.86-2.06,1.23-3.4,1.23c-3.32,0-4.96-1.62-5.01-4.83c-0.02-1.4,0.18-2.62,1.26-3.66
			c0.99-0.94,2.07-1.24,3.41-1.32c2.78-0.15,5.23,2.12,5.14,4.99C378.53,237.61,377.95,238.74,377.16,239.77z"/>
		<path class="st0" d="M211.13,231.36c1.19-0.37,2.22-0.05,3.2,0.56c0.56,0.35,0.6,0.91,0.45,1.42c-0.35,1.2-0.96,1.6-2.3,1.62
			c-0.39,0.01-0.77,0-1.35,0C211.13,233.66,211.13,232.52,211.13,231.36z M214.87,240.24c-0.69,0.54-1.76,0.77-3.73,0.72
			c0-1.61,0-3.05,0-4.74c1.16,0.21,2.3,0.23,3.27,0.64C215.77,237.43,216.51,238.96,214.87,240.24z"/>
		<path class="st0" d="M241.63,236.72c0.63-1.29,1.18-2.44,1.84-3.81c0.58,1.29,1.1,2.43,1.72,3.81
			C243.89,236.72,242.85,236.72,241.63,236.72z"/>
		<path class="st0" d="M317.83,200.51c-1.35,0-2.58,0.85-3.95,0.5c-0.16,0.12-0.31,0.23-0.47,0.35c0.16,0.19,0.31,0.39,0.47,0.58
			c2.08,0,4.17-0.05,6.25,0.03c0.66,0.02,1.13-0.25,1.66-0.49c0-0.16,0-0.31,0-0.47C320.41,201.36,319.19,200.51,317.83,200.51z"/>
		<path class="st0" d="M321.79,188.91c0-0.16,0-0.31,0-0.47c-0.44-0.05-0.91-0.02-1.31-0.17c-1.54-0.58-3.17-0.53-4.61-0.07
			c-0.88,0.29-1.35,0.02-1.99-0.23c-0.16,0.12-0.31,0.23-0.47,0.35c0.16,0.19,0.31,0.39,0.47,0.58c1.27-0.05,2.42,0.53,3.72,0.54
			C319.05,189.45,320.38,188.95,321.79,188.91z"/>
		<path class="st0" d="M321.34,203.7c-0.03,2.55-0.03,5.09,0,7.64c0,0.12,0.29,0.24,0.45,0.37c0.16-0.12,0.44-0.24,0.45-0.37
			c0.03-2.55,0.03-5.09,0-7.64c0-0.12-0.29-0.24-0.45-0.37C321.63,203.45,321.34,203.57,321.34,203.7z"/>
		<path class="st0" d="M316.21,213.56c0.98,0.65,2.28,0.65,3.26,0C318.49,212.92,317.18,212.92,316.21,213.56z"/>
		<path class="st0" d="M315.31,181.47c-0.55,0-0.99,0-1.43,0c0,0.47,0,0.93,0,1.4C314.96,183.12,314.84,182.12,315.31,181.47z"/>
		<path class="st0" d="M380.37,185.14c-1.37-8.32-8.06-14.48-15.75-15.29c-4.8-0.5-9.32,0.54-13.11,3.58
			c-3.71,2.97-6.18,6.81-6.85,11.71C356.55,185.14,368.37,185.14,380.37,185.14z"/>
		<path class="st0" d="M265.85,196.45c1.55,3.42,4.04,6.01,7.14,8.12c3.03,2.06,6.43,2.61,9.93,2.94c0.95-0.61,2.02-0.44,3.06-0.47
			c0.13,0,0.26-0.12,0.39-0.16c3.55-1.11,6.85-2.64,9.29-5.59c0.99-1.19,2.2-2.35,2.73-3.74c1.08-2.85,2.49-5.7,1.97-8.69
			c0.23-4.02-0.72-7.5-2.77-10.68c-1.11-1.73-3.95-4.86-5.45-5.51c-2.03-0.88-3.87-2.13-6.21-2.44c-3.03-0.41-5.99-0.56-8.99,0.42
			c-2.97,0.97-5.38,2.61-7.55,4.79c-3.47,3.48-4.99,8.29-5.27,12.44c-0.09,1.33,0.09,2.65,0.35,4
			C264.79,193.48,265.2,195,265.85,196.45z"/>
		<path class="st0" d="M320.21,177.66c0.72-0.44,1.39-0.97,2.25-1.59c-1.34-0.08-1.35-0.09-2.59,0.76
			c-0.19,0.13-0.28,0.43-0.41,0.65C319.72,177.54,320.06,177.75,320.21,177.66z"/>
		<path class="st0" d="M317.14,179.13c0.81,0.04,1.44,0.04,1.78-0.64c0.1-0.2-0.03-0.5-0.08-1.14
			C318.06,178.06,317.55,178.53,317.14,179.13z"/>
		<path class="st0" d="M318.84,177.35c-0.78,0.71-1.3,1.19-1.94,1.77c0.08,0,0.16,0.01,0.24,0.01
			C317.55,178.53,318.06,178.06,318.84,177.35z"/>
		<path class="st0" d="M315.74,180.54c-0.12,0.04-0.26,0.07-0.35,0.14c-0.03,0.02,0.05,0.18,0.08,0.28
			C315.56,180.89,315.65,180.82,315.74,180.54z"/>
		<path class="st0" d="M315.47,180.96c0.09-0.07,0.18-0.14,0.28-0.21c0,0,0,0,0,0c0,0,0,0,0,0c0-0.07,0-0.14,0-0.21
			C315.65,180.82,315.56,180.89,315.47,180.96z"/>
		<path class="st0" d="M315.74,180.74c0-0.07,0-0.14,0-0.21C315.74,180.61,315.74,180.68,315.74,180.74
			C315.74,180.74,315.74,180.74,315.74,180.74z"/>
		<path class="st0" d="M343.31,232.5c-0.96-0.97-2.07-1.23-3.41-1.3c-2.76-0.15-5.2,2.14-5.11,5.02c0.11,3.08,1.72,4.76,4.83,4.8
			c1.39,0.02,2.62-0.17,3.67-1.24c1.03-1.05,1.48-2.21,1.24-3.78C344.85,234.69,344.33,233.53,343.31,232.5z"/>
		<path class="st0" d="M373.43,231.2c-1.35,0.07-2.43,0.38-3.41,1.32c-1.08,1.04-1.28,2.26-1.26,3.66c0.05,3.22,1.69,4.84,5.01,4.83
			c1.34,0,2.75-0.38,3.4-1.23c0.78-1.03,1.37-2.16,1.41-3.58C378.65,233.32,376.21,231.05,373.43,231.2z"/>
		<path class="st0" d="M309.91,236.91c-1.11-0.19-2.21-1.1-3.42-0.37c0,1.45,0,2.89,0,4.33c3.29,0.26,3.29,0.26,4.65-2.31
			C310.75,238.01,310.41,237,309.91,236.91z"/>
		<path class="st0" d="M309.2,234.55c0.69-0.32,0.47-1.03,0.96-1.33c-0.4-0.46-0.21-1.18-0.97-1.56c-0.88-0.44-1.7-0.43-2.67-0.36
			c0,1.32,0,2.46,0,3.61C307.49,234.97,308.31,234.97,309.2,234.55z"/>
		<path class="st0" d="M214.41,236.86c-0.97-0.41-2.11-0.43-3.27-0.64c0,1.68,0,3.13,0,4.74c1.97,0.05,3.04-0.18,3.73-0.72
			C216.51,238.96,215.77,237.43,214.41,236.86z"/>
		<path class="st0" d="M212.48,234.96c1.33-0.02,1.95-0.42,2.3-1.62c0.15-0.51,0.11-1.07-0.45-1.42c-0.98-0.61-2-0.93-3.2-0.56
			c0,1.16,0,2.3,0,3.6C211.7,234.96,212.09,234.97,212.48,234.96z"/>
		<path class="st0" d="M241.63,236.72c1.22,0,2.26,0,3.56,0c-0.62-1.38-1.13-2.52-1.72-3.81
			C242.81,234.29,242.26,235.43,241.63,236.72z"/>
	</g>
</g>
</svg>
