<?xml version="1.0" encoding="utf-8"?>
<!-- Generator: Adobe Illustrator 21.1.0, SVG Export Plug-In . SVG Version: 6.00 Build 0)  -->
<svg version="1.1" id="Layer_1" xmlns="http://www.w3.org/2000/svg" xmlns:xlink="http://www.w3.org/1999/xlink" x="0px" y="0px"
	 viewBox="0 0 600 400" style="enable-background:new 0 0 600 400;" xml:space="preserve">
<style type="text/css">
	.st0{fill:#FFFFFF;}
</style>
<g id="Hill_Rom">
	<g>
		<path class="st0" d="M351.1,196.88c-5.44,0-9.85,4.41-9.85,9.85c0,5.44,4.4,9.85,9.85,9.85c5.43,0,9.84-4.4,9.84-9.85
			C360.94,201.28,356.54,196.88,351.1,196.88z"/>
		<path class="st0" d="M310.41,181.73l-6.27-0.01v13.87l6.34,0.04c3.6,0,5.59-3.36,5.59-6.92
			C316.07,185.14,314.01,181.73,310.41,181.73z"/>
		<path class="st0" d="M448.2,222.35c0-0.55-0.41-0.88-0.99-0.88c-0.27,0-0.52,0.02-0.73,0.05c-0.03,0.33-0.06,0.67-0.06,1v0.86
			c0.08,0.02,0.25,0.04,0.45,0.04C447.58,223.42,448.2,223.12,448.2,222.35z"/>
		<path class="st0" d="M447.28,220.24c-1.88,0-3.36,1.53-3.36,3.41c0,1.88,1.47,3.41,3.36,3.41c1.88,0,3.36-1.53,3.36-3.41
			C450.63,221.77,449.15,220.24,447.28,220.24z M449.28,225.95c-0.14-0.03-0.28-0.05-0.41-0.05c-0.14,0-0.28,0.02-0.41,0.05
			c-0.52-0.76-1.09-1.51-1.71-2.27h-0.34v0.75c0,0.51,0.02,1.02,0.06,1.53c-0.12-0.03-0.23-0.05-0.34-0.05
			c-0.12,0-0.23,0.02-0.35,0.05c0.03-0.5,0.07-0.98,0.07-1.49v-1.81c0-0.48-0.03-1.04-0.07-1.44c0.29,0.03,0.57,0.06,0.88,0.06
			c0.28,0,0.57-0.06,0.86-0.06c0.74,0,1.33,0.34,1.33,1.06c0,0.87-0.92,1.27-1.45,1.31c0.56,0.7,1.45,1.95,1.88,2.31V225.95z"/>
		<path class="st0" d="M422.98,142.98H174.93v0.11C144.42,144.19,120,169.22,120,200s24.42,55.81,54.93,56.91v0.11h248.05
			c31.49,0,57.02-25.53,57.02-57.02C480,168.51,454.47,142.98,422.98,142.98z M206.9,225.46h-12.05v-21.22h-20.5v21.22H162.3v-53.39
			h12.05v21.33h20.5v-21.33h12.05V225.46z M224.71,225.46h-12.05v-38.03h12.05V225.46z M218.89,185.41c-3.74,0-6.76-3.03-6.76-6.77
			c0-3.73,3.02-6.76,6.76-6.76c3.73,0,6.76,3.03,6.76,6.76C225.65,182.38,222.62,185.41,218.89,185.41z M243.34,225.46h-12.06
			v-53.39h12.06V225.46z M262.1,225.46h-12.05v-53.39h12.05V225.46z M287.54,207.17H267.7v-10.85h19.84V207.17z M318.24,225.46
			l-14.1-19.28v19.28h-11.83v-52.84h11.6h1.33h8.62c8.09,0,14.82,6.94,14.82,15.04c0,6.45-4.27,13.11-12.12,16.2l15.48,21.6H318.24z
			 M351.1,227.94c-11.73,0-21.23-9.5-21.23-21.22c0-11.72,9.5-21.22,21.23-21.22c11.71,0,21.22,9.5,21.22,21.22
			C372.32,218.45,362.82,227.94,351.1,227.94z M440.15,225.46h-12.14v-23.93c0-4.12-2.44-5.47-6.39-5.47c-3.52,0-6.39,2.4-6.39,5.64
			l0.01,23.77h-12.14v-23.93c0-3.24-2.86-5.47-6.39-5.47c-3.52,0-6.39,2.79-6.39,6.03v23.38h-12.14v-39.62h12.14v6.57
			c0-3.45,6.54-7.02,10.82-7.02c5.97,0,10.52,1.59,12.89,6.18c1.99-4.13,8.47-6.18,12.74-6.18c5.97,0,13.39,2.42,13.39,10.17V225.46
			z M447.28,227.45c-2.11,0-3.8-1.7-3.8-3.8c0-2.11,1.69-3.81,3.8-3.81c2.11,0,3.8,1.7,3.8,3.81
			C451.08,225.75,449.38,227.45,447.28,227.45z"/>
	</g>
</g>
</svg>
