<?xml version="1.0" encoding="utf-8"?>
<!-- Generator: Adobe Illustrator 21.1.0, SVG Export Plug-In . SVG Version: 6.00 Build 0)  -->
<svg version="1.1" id="Layer_1" xmlns="http://www.w3.org/2000/svg" xmlns:xlink="http://www.w3.org/1999/xlink" x="0px" y="0px"
	 viewBox="0 0 600 400" style="enable-background:new 0 0 600 400;" xml:space="preserve">
<style type="text/css">
	.st0{fill:#FFFFFF;}
</style>
<g id="The_Grossman_Group">
	<g>
		<path class="st0" d="M240.55,122.76c0,4.61,0,8.41,0.24,10.43c0.14,1.4,0.43,2.45,1.87,2.64c0.67,0.1,1.73,0.19,2.16,0.19
			c0.29,0,0.39,0.14,0.39,0.29c0,0.24-0.24,0.39-0.77,0.39c-2.64,0-5.67-0.14-5.91-0.14c-0.24,0-3.27,0.14-4.71,0.14
			c-0.53,0-0.77-0.1-0.77-0.39c0-0.14,0.09-0.29,0.38-0.29c0.43,0,1.01-0.1,1.44-0.19c0.96-0.19,1.2-1.25,1.39-2.64
			c0.24-2.02,0.24-5.82,0.24-10.43v-20.33l-7.11,0.1c-2.98,0.05-4.13,0.38-4.9,1.54c-0.53,0.82-0.67,1.15-0.82,1.49
			c-0.14,0.39-0.29,0.48-0.48,0.48c-0.15,0-0.24-0.14-0.24-0.43c0-0.48,0.96-4.62,1.06-5c0.1-0.29,0.29-0.91,0.48-0.91
			c0.34,0,0.82,0.48,2.12,0.58c1.39,0.15,3.22,0.24,3.8,0.24h18.03c1.54,0,2.64-0.09,3.41-0.24c0.72-0.09,1.15-0.24,1.35-0.24
			c0.24,0,0.24,0.29,0.24,0.58c0,1.44-0.14,4.76-0.14,5.29c0,0.43-0.14,0.63-0.34,0.63c-0.24,0-0.34-0.15-0.38-0.82l-0.05-0.53
			c-0.14-1.44-1.3-2.55-5.91-2.64l-6.06-0.1V122.76L240.55,122.76z"/>
		<path class="st0" d="M316.62,122.76c0,4.61,0,8.41,0.24,10.43c0.14,1.4,0.43,2.45,1.87,2.64c0.67,0.1,1.73,0.19,2.16,0.19
			c0.29,0,0.38,0.14,0.38,0.29c0,0.24-0.24,0.39-0.77,0.39c-2.64,0-5.67-0.14-5.91-0.14c-0.24,0-3.27,0.14-4.71,0.14
			c-0.53,0-0.77-0.1-0.77-0.39c0-0.14,0.1-0.29,0.39-0.29c0.43,0,1.01-0.1,1.44-0.19c0.96-0.19,1.21-1.25,1.39-2.64
			c0.24-2.02,0.24-5.82,0.24-10.43v-5.05c0-0.19-0.14-0.29-0.28-0.29h-20.38c-0.14,0-0.29,0.05-0.29,0.29v5.05
			c0,4.61,0,8.41,0.24,10.43c0.14,1.4,0.43,2.45,1.88,2.64c0.67,0.1,1.73,0.19,2.16,0.19c0.29,0,0.38,0.14,0.38,0.29
			c0,0.24-0.24,0.39-0.77,0.39c-2.65,0-5.67-0.14-5.91-0.14c-0.24,0-3.27,0.14-4.71,0.14c-0.53,0-0.77-0.1-0.77-0.39
			c0-0.14,0.1-0.29,0.38-0.29c0.43,0,1.01-0.1,1.44-0.19c0.96-0.19,1.2-1.25,1.39-2.64c0.24-2.02,0.24-5.82,0.24-10.43v-8.46
			c0-7.5,0-8.85-0.09-10.38c-0.1-1.63-0.48-2.4-2.07-2.74c-0.38-0.1-1.2-0.14-1.63-0.14c-0.19,0-0.39-0.1-0.39-0.29
			c0-0.29,0.24-0.38,0.77-0.38c2.16,0,5.19,0.14,5.43,0.14c0.24,0,3.27-0.14,4.71-0.14c0.53,0,0.77,0.1,0.77,0.38
			c0,0.19-0.19,0.29-0.39,0.29c-0.34,0-0.62,0.05-1.2,0.14c-1.3,0.24-1.68,1.06-1.78,2.74c-0.1,1.54-0.1,2.89-0.1,10.38v1.01
			c0,0.24,0.14,0.29,0.29,0.29h20.38c0.14,0,0.28-0.05,0.28-0.29v-1.01c0-7.5,0-8.85-0.1-10.38c-0.09-1.63-0.48-2.4-2.07-2.74
			c-0.38-0.1-1.2-0.14-1.63-0.14c-0.19,0-0.39-0.1-0.39-0.29c0-0.29,0.24-0.38,0.77-0.38c2.16,0,5.19,0.14,5.43,0.14
			c0.24,0,3.27-0.14,4.71-0.14c0.53,0,0.77,0.1,0.77,0.38c0,0.19-0.19,0.29-0.38,0.29c-0.34,0-0.63,0.05-1.2,0.14
			c-1.3,0.24-1.68,1.06-1.78,2.74c-0.09,1.54-0.09,2.89-0.09,10.38V122.76L316.62,122.76z"/>
		<path class="st0" d="M357.79,114.29c0-7.5,0-8.85-0.1-10.38c-0.1-1.63-0.48-2.4-2.07-2.74c-0.38-0.1-1.2-0.14-1.63-0.14
			c-0.19,0-0.39-0.1-0.39-0.29c0-0.29,0.24-0.38,0.77-0.38c1.1,0,2.41,0,3.46,0.05l1.97,0.09c0.33,0,9.9,0,11-0.05
			c0.91-0.05,1.68-0.15,2.07-0.24c0.24-0.05,0.43-0.24,0.67-0.24c0.14,0,0.19,0.19,0.19,0.43c0,0.33-0.24,0.91-0.38,2.26
			c-0.05,0.48-0.14,2.6-0.24,3.17c-0.05,0.24-0.14,0.53-0.34,0.53c-0.29,0-0.38-0.24-0.38-0.62c0-0.34-0.05-1.16-0.29-1.73
			c-0.33-0.77-0.82-1.35-3.42-1.63c-0.82-0.09-6.06-0.14-6.59-0.14c-0.19,0-0.29,0.14-0.29,0.48v13.27c0,0.34,0.05,0.48,0.29,0.48
			c0.63,0,6.54,0,7.65-0.1c1.16-0.1,1.83-0.19,2.26-0.67c0.33-0.39,0.53-0.62,0.72-0.62c0.15,0,0.25,0.1,0.25,0.38
			c0,0.29-0.25,1.11-0.39,2.69c-0.1,0.96-0.19,2.74-0.19,3.08c0,0.38,0,0.91-0.34,0.91c-0.24,0-0.33-0.19-0.33-0.43
			c0-0.48,0-0.96-0.19-1.59c-0.19-0.67-0.62-1.49-2.5-1.68c-1.3-0.14-6.06-0.24-6.87-0.24c-0.24,0-0.34,0.14-0.34,0.34v4.23
			c0,1.63-0.05,7.21,0,8.22c0.14,3.32,0.87,3.94,5.58,3.94c1.25,0,3.36,0,4.61-0.53c1.25-0.53,1.82-1.49,2.16-3.46
			c0.1-0.53,0.19-0.72,0.43-0.72c0.29,0,0.29,0.39,0.29,0.72c0,0.38-0.38,3.65-0.63,4.66c-0.34,1.25-0.72,1.25-2.6,1.25
			c-3.61,0-6.25-0.1-8.13-0.14c-1.87-0.1-3.03-0.14-3.74-0.14c-0.1,0-0.91,0-1.93,0.05c-0.96,0-2.07,0.1-2.79,0.1
			c-0.53,0-0.77-0.1-0.77-0.39c0-0.14,0.1-0.29,0.39-0.29c0.43,0,1.01-0.1,1.44-0.19c0.97-0.19,1.2-1.25,1.4-2.64
			c0.24-2.02,0.24-5.82,0.24-10.43V114.29L357.79,114.29z"/>
		<path class="st0" d="M66.44,219.66c0,2.13-0.08,2.29-1.02,2.84c-5.12,2.68-12.85,3.55-19,3.55c-19.31,0-36.42-9.15-36.42-30.9
			c0-12.61,6.54-21.44,13.71-25.78c7.57-4.57,14.58-5.12,21.2-5.12c5.44,0,12.38,0.95,13.95,1.26c1.66,0.32,4.42,0.79,6.23,0.87
			c0.95,0.08,1.1,0.39,1.1,0.95c0,0.87-0.55,3.07-0.55,12.93c0,1.26-0.24,1.65-0.87,1.65c-0.55,0-0.71-0.39-0.79-1.03
			c-0.24-1.81-0.63-4.34-2.68-6.54c-2.37-2.52-8.67-6.15-17.58-6.15c-4.34,0-10.09,0.32-15.61,4.89c-4.42,3.7-7.25,9.62-7.25,19.31
			c0,16.95,10.8,29.64,27.43,29.64c2.05,0,4.81,0,6.7-0.87c1.18-0.55,1.5-1.58,1.5-2.92v-7.41c0-3.94,0-6.93-0.08-9.3
			c-0.08-2.68-0.79-3.94-3.39-4.49c-0.63-0.16-1.97-0.24-3.08-0.24c-0.71,0-1.18-0.16-1.18-0.63c0-0.63,0.55-0.79,1.66-0.79
			c4.1,0,9.06,0.24,11.43,0.24c2.44,0,6.62-0.24,9.22-0.24c1.03,0,1.58,0.16,1.58,0.79c0,0.47-0.47,0.63-1.02,0.63
			c-0.63,0-1.18,0.08-2.13,0.24c-2.13,0.39-2.92,1.73-3,4.49c-0.08,2.37-0.08,5.52-0.08,9.46V219.66L66.44,219.66z"/>
		<path class="st0" d="M100.26,188.21c0-11.98,0-14.19-0.16-16.71c-0.16-2.68-0.79-3.94-3.39-4.49c-0.63-0.16-1.97-0.24-3.07-0.24
			c-0.87,0-1.34-0.16-1.34-0.71c0-0.55,0.55-0.71,1.73-0.71c4.18,0,9.14,0.24,10.8,0.24c2.68,0,8.67-0.24,11.11-0.24
			c4.97,0,10.25,0.47,14.51,3.39c2.21,1.5,5.36,5.52,5.36,10.8c0,5.83-2.44,11.19-10.4,17.66c7.02,8.83,12.45,15.84,17.1,20.73
			c4.41,4.57,7.65,5.13,8.83,5.36c0.87,0.15,1.58,0.23,2.21,0.23c0.63,0,0.95,0.23,0.95,0.63c0,0.63-0.55,0.79-1.5,0.79h-7.49
			c-4.41,0-6.38-0.39-8.43-1.5c-3.39-1.81-6.38-5.52-10.8-11.58c-3.15-4.34-6.78-9.7-7.8-10.88c-0.39-0.47-0.87-0.55-1.42-0.55
			l-6.86-0.16c-0.39,0-0.63,0.16-0.63,0.63v1.1c0,7.33,0,13.56,0.39,16.87c0.24,2.28,0.71,4.02,3.08,4.33
			c1.18,0.16,2.91,0.32,3.86,0.32c0.63,0,0.95,0.23,0.95,0.63c0,0.55-0.55,0.79-1.58,0.79c-4.57,0-10.41-0.23-11.59-0.23
			c-1.5,0-6.46,0.23-9.62,0.23c-1.02,0-1.58-0.23-1.58-0.79c0-0.4,0.32-0.63,1.26-0.63c1.18,0,2.13-0.16,2.84-0.32
			c1.58-0.32,1.97-2.05,2.28-4.33c0.39-3.31,0.39-9.54,0.39-16.79V188.21L100.26,188.21z M109.56,194.44c0,0.87,0.16,1.19,0.71,1.42
			c1.66,0.55,4.02,0.79,5.99,0.79c3.15,0,4.18-0.31,5.6-1.34c2.37-1.73,4.65-5.36,4.65-11.82c0-11.19-7.41-14.43-12.06-14.43
			c-1.97,0-3.39,0.08-4.18,0.32c-0.55,0.16-0.71,0.47-0.71,1.1V194.44L109.56,194.44z"/>
		<path class="st0" d="M163,195.15c0-13.48,8.91-30.9,32.55-30.9c19.62,0,31.84,11.43,31.84,29.48c0,18.05-12.61,32.32-32.63,32.32
			C172.15,226.05,163,209.1,163,195.15L163,195.15z M216.36,196.64c0-17.66-10.17-28.61-23.1-28.61c-9.06,0-19.39,5.04-19.39,24.67
			c0,16.4,9.06,29.4,24.2,29.4C203.6,222.1,216.36,219.42,216.36,196.64L216.36,196.64z"/>
		<path class="st0" d="M252.15,224c-1.26-0.56-1.5-0.95-1.5-2.68c0-4.34,0.31-9.06,0.39-10.33c0.08-1.18,0.31-2.05,0.94-2.05
			c0.71,0,0.79,0.71,0.79,1.34c0,1.02,0.31,2.68,0.71,4.02c1.73,5.83,6.38,7.96,11.27,7.96c7.09,0,10.56-4.8,10.56-8.98
			c0-3.86-1.18-7.48-7.72-12.61l-3.63-2.84c-8.67-6.78-11.67-12.3-11.67-18.68c0-8.67,7.25-14.9,18.21-14.9
			c5.12,0,8.43,0.79,10.48,1.34c0.71,0.16,1.1,0.39,1.1,0.95c0,1.02-0.31,3.31-0.31,9.46c0,1.73-0.24,2.36-0.87,2.36
			c-0.55,0-0.79-0.47-0.79-1.42c0-0.71-0.4-3.15-2.05-5.2c-1.18-1.5-3.47-3.86-8.59-3.86c-5.83,0-9.38,3.39-9.38,8.12
			c0,3.63,1.82,6.38,8.36,11.35l2.21,1.66c9.54,7.17,12.93,12.61,12.93,20.1c0,4.57-1.73,10.01-7.41,13.71
			c-3.94,2.53-8.36,3.24-12.53,3.24C259.09,226.05,255.54,225.5,252.15,224L252.15,224z"/>
		<path class="st0" d="M309.85,224c-1.26-0.56-1.5-0.95-1.5-2.68c0-4.34,0.32-9.06,0.4-10.33c0.08-1.18,0.31-2.05,0.94-2.05
			c0.71,0,0.79,0.71,0.79,1.34c0,1.02,0.32,2.68,0.71,4.02c1.73,5.83,6.38,7.96,11.27,7.96c7.1,0,10.57-4.8,10.57-8.98
			c0-3.86-1.18-7.48-7.73-12.61l-3.63-2.84c-8.67-6.78-11.67-12.3-11.67-18.68c0-8.67,7.25-14.9,18.21-14.9
			c5.12,0,8.43,0.79,10.48,1.34c0.71,0.16,1.11,0.39,1.11,0.95c0,1.02-0.32,3.31-0.32,9.46c0,1.73-0.23,2.36-0.87,2.36
			c-0.55,0-0.79-0.47-0.79-1.42c0-0.71-0.4-3.15-2.05-5.2c-1.18-1.5-3.47-3.86-8.59-3.86c-5.83,0-9.38,3.39-9.38,8.12
			c0,3.63,1.82,6.38,8.36,11.35l2.21,1.66c9.53,7.17,12.92,12.61,12.92,20.1c0,4.57-1.73,10.01-7.41,13.71
			c-3.94,2.53-8.35,3.24-12.53,3.24C316.79,226.05,313.24,225.5,309.85,224L309.85,224z"/>
		<path class="st0" d="M374.81,165.67c0.23-1.34,0.71-2.05,1.34-2.05c0.63,0,1.1,0.39,2.13,2.44l21.51,44.45l21.44-45.01
			c0.63-1.26,1.02-1.89,1.73-1.89c0.71,0,1.19,0.79,1.42,2.44l7.17,48.71c0.71,4.97,1.5,7.25,3.86,7.96
			c2.29,0.71,3.86,0.79,4.89,0.79c0.71,0,1.26,0.08,1.26,0.55c0,0.63-0.95,0.87-2.05,0.87c-1.97,0-12.85-0.23-16-0.48
			c-1.81-0.16-2.29-0.39-2.29-0.87c0-0.39,0.32-0.63,0.87-0.87c0.48-0.16,0.71-1.18,0.4-3.39l-4.73-34.68h-0.32l-17.18,35.78
			c-1.81,3.71-2.21,4.42-2.92,4.42c-0.71,0-1.5-1.58-2.75-3.94c-1.9-3.63-8.12-15.69-9.06-17.89c-0.71-1.65-5.44-11.59-8.2-17.5
			h-0.32l-4.1,31.37c-0.15,1.42-0.24,2.45-0.24,3.71c0,1.5,1.03,2.2,2.36,2.52c1.42,0.31,2.53,0.39,3.31,0.39
			c0.63,0,1.18,0.16,1.18,0.55c0,0.71-0.71,0.87-1.89,0.87c-3.31,0-6.86-0.23-8.28-0.23c-1.5,0-5.28,0.23-7.8,0.23
			c-0.79,0-1.42-0.16-1.42-0.87c0-0.39,0.47-0.55,1.26-0.55c0.63,0,1.18,0,2.36-0.23c2.21-0.48,2.84-3.55,3.23-6.23L374.81,165.67
			L374.81,165.67z"/>
		<path class="st0" d="M469.08,204.37c-0.39,0-0.55,0.15-0.7,0.63l-4.26,11.27c-0.79,1.97-1.18,3.86-1.18,4.81
			c0,1.42,0.7,2.44,3.15,2.44h1.18c0.95,0,1.19,0.16,1.19,0.63c0,0.63-0.47,0.79-1.34,0.79c-2.52,0-5.91-0.23-8.35-0.23
			c-0.87,0-5.21,0.23-9.3,0.23c-1.02,0-1.5-0.16-1.5-0.79c0-0.47,0.32-0.63,0.95-0.63c0.71,0,1.82-0.08,2.45-0.16
			c3.62-0.48,5.12-3.15,6.7-7.1l19.79-49.5c0.94-2.29,1.42-3.15,2.21-3.15c0.71,0,1.18,0.71,1.97,2.52
			c1.89,4.33,14.51,36.49,19.54,48.47c3,7.1,5.28,8.2,6.94,8.59c1.18,0.23,2.37,0.32,3.31,0.32c0.63,0,1.02,0.08,1.02,0.63
			c0,0.63-0.71,0.79-3.63,0.79c-2.83,0-8.59,0-14.89-0.16c-1.42-0.08-2.37-0.08-2.37-0.63c0-0.47,0.32-0.63,1.1-0.71
			c0.55-0.15,1.11-0.87,0.71-1.81l-6.3-16.71c-0.16-0.4-0.39-0.55-0.79-0.55H469.08L469.08,204.37z M485.17,200.43
			c0.4,0,0.47-0.23,0.4-0.47l-7.1-19.47c-0.08-0.32-0.16-0.71-0.4-0.71c-0.23,0-0.39,0.39-0.47,0.71l-7.25,19.39
			c-0.08,0.32,0,0.55,0.32,0.55H485.17L485.17,200.43z"/>
		<path class="st0" d="M537.35,214.22c0.15,6.15,1.18,8.2,2.75,8.75c1.34,0.47,2.84,0.55,4.1,0.55c0.87,0,1.34,0.16,1.34,0.63
			c0,0.63-0.71,0.79-1.81,0.79c-5.12,0-8.28-0.23-9.77-0.23c-0.71,0-4.41,0.23-8.51,0.23c-1.02,0-1.73-0.08-1.73-0.79
			c0-0.47,0.47-0.63,1.26-0.63c1.02,0,2.44-0.08,3.55-0.39c2.05-0.63,2.36-2.92,2.44-9.77l0.71-46.66c0-1.58,0.24-2.68,1.03-2.68
			c0.87,0,1.58,1.02,2.91,2.44c0.95,1.02,12.93,13.87,24.44,25.3c5.36,5.36,16,16.71,17.34,17.97h0.4L577,174.34
			c-0.08-4.81-0.79-6.3-2.68-7.09c-1.18-0.47-3.07-0.47-4.18-0.47c-0.95,0-1.26-0.23-1.26-0.71c0-0.63,0.87-0.71,2.05-0.71
			c4.1,0,7.88,0.24,9.54,0.24c0.87,0,3.86-0.24,7.72-0.24c1.02,0,1.81,0.08,1.81,0.71c0,0.47-0.47,0.71-1.41,0.71
			c-0.79,0-1.42,0-2.37,0.24c-2.21,0.63-2.84,2.29-2.92,6.7l-0.87,49.73c0,1.74-0.32,2.45-1.03,2.45c-0.87,0-1.81-0.87-2.68-1.73
			c-4.96-4.73-15.05-15.06-23.25-23.17c-8.59-8.51-17.34-18.37-18.76-19.86h-0.24L537.35,214.22L537.35,214.22z"/>
		<path class="st0" d="M187.23,287.39c0-3.89-0.24-4.42-2.16-4.95c-0.39-0.1-1.2-0.15-1.63-0.15c-0.19,0-0.39-0.1-0.39-0.29
			c0-0.29,0.24-0.38,0.77-0.38c2.16,0,5.19,0.14,5.43,0.14c0.24,0,3.27-0.14,4.71-0.14c0.53,0,0.77,0.1,0.77,0.38
			c0,0.19-0.19,0.29-0.38,0.29c-0.33,0-0.62,0.05-1.2,0.15c-1.3,0.24-1.68,1.05-1.78,2.73c-0.1,1.54-0.1,2.98-0.1,5v5.38
			c0,2.16-0.05,2.26-0.62,2.6c-3.08,1.63-7.4,2.16-10.19,2.16c-3.65,0-10.48-0.48-15.82-5.14c-2.93-2.55-5.72-7.69-5.72-13.7
			c0-7.69,3.75-13.12,8.03-15.82c4.33-2.69,9.09-3.03,12.79-3.03c3.03,0,6.44,0.62,7.36,0.82c1.01,0.24,2.69,0.44,3.89,0.48
			c0.48,0.05,0.58,0.24,0.58,0.43c0,0.67-0.34,2.02-0.34,6.82c0,0.77-0.1,1.01-0.43,1.01c-0.24,0-0.29-0.29-0.34-0.72
			c-0.05-0.67-0.29-2.02-1.01-3.17c-1.2-1.83-5.1-3.89-11.3-3.89c-3.03,0-6.63,0.29-10.29,3.17c-2.79,2.21-4.76,6.59-4.76,12.21
			c0,6.78,3.41,11.68,5.09,13.32c3.8,3.7,8.17,5.14,12.59,5.14c1.73,0,4.23-0.29,5.48-1.01c0.62-0.34,0.96-0.86,0.96-1.68V287.39
			L187.23,287.39z"/>
		<path class="st0" d="M229.88,277.25c0-7.5,0-8.85-0.1-10.38c-0.1-1.63-0.48-2.41-2.06-2.74c-0.39-0.1-1.2-0.14-1.64-0.14
			c-0.19,0-0.38-0.1-0.38-0.29c0-0.29,0.24-0.38,0.77-0.38c2.16,0,5.19,0.14,5.43,0.14c0.53,0,4.18-0.14,5.67-0.14
			c3.03,0,6.25,0.29,8.8,2.11c1.2,0.86,3.32,3.22,3.32,6.54c0,3.56-1.49,7.12-5.82,11.1c3.94,5.05,7.21,9.33,10,12.31
			c2.59,2.74,4.66,3.27,5.86,3.46c0.91,0.15,1.59,0.15,1.87,0.15c0.24,0,0.43,0.14,0.43,0.29c0,0.29-0.29,0.39-1.15,0.39h-3.42
			c-2.69,0-3.89-0.24-5.14-0.91c-2.07-1.11-3.75-3.46-6.49-7.07c-2.02-2.64-4.28-5.86-5.24-7.11c-0.19-0.19-0.34-0.29-0.62-0.29
			l-5.92-0.1c-0.24,0-0.33,0.15-0.33,0.39v1.16c0,4.61,0,8.41,0.24,10.43c0.14,1.4,0.43,2.45,1.87,2.65
			c0.67,0.09,1.73,0.19,2.16,0.19c0.29,0,0.38,0.14,0.38,0.29c0,0.24-0.24,0.39-0.77,0.39c-2.65,0-5.67-0.15-5.91-0.15
			c-0.05,0-3.08,0.15-4.52,0.15c-0.53,0-0.77-0.1-0.77-0.39c0-0.14,0.1-0.29,0.39-0.29c0.43,0,1.01-0.1,1.44-0.19
			c0.96-0.19,1.2-1.25,1.39-2.65c0.24-2.01,0.24-5.81,0.24-10.43V277.25L229.88,277.25z M233.73,281.43c0,0.24,0.09,0.43,0.33,0.58
			c0.72,0.44,2.93,0.77,5.05,0.77c1.15,0,2.5-0.14,3.6-0.91c1.68-1.15,2.93-3.75,2.93-7.4c0-6.01-3.17-9.62-8.32-9.62
			c-1.44,0-2.74,0.15-3.22,0.29c-0.24,0.1-0.38,0.29-0.38,0.58V281.43L233.73,281.43z"/>
		<path class="st0" d="M303.64,262.63c10.82,0,18.89,6.83,18.89,18.02c0,10.77-7.59,19.66-19.18,19.66
			c-13.17,0-18.65-10.24-18.65-18.89C284.7,273.64,290.38,262.63,303.64,262.63L303.64,262.63z M304.65,298.49
			c4.33,0,13.27-2.5,13.27-16.49c0-11.54-7.02-17.74-14.61-17.74c-8.03,0-14.04,5.29-14.04,15.82
			C289.27,291.28,296,298.49,304.65,298.49L304.65,298.49z"/>
		<path class="st0" d="M355.43,277.25c0-7.5,0-8.85-0.1-10.38c-0.1-1.63-0.48-2.41-2.07-2.74c-0.38-0.1-1.2-0.14-1.63-0.14
			c-0.19,0-0.39-0.1-0.39-0.29c0-0.29,0.25-0.38,0.77-0.38c2.16,0,5.1,0.14,5.53,0.14c0.43,0,3.31-0.14,4.76-0.14
			c0.53,0,0.77,0.09,0.77,0.38c0,0.19-0.2,0.29-0.38,0.29c-0.34,0-0.63,0.05-1.21,0.14c-1.3,0.19-1.68,1.06-1.78,2.74
			c-0.1,1.53-0.1,2.88-0.1,10.38v6.73c0,6.92,1.54,9.9,3.6,11.87c2.36,2.21,4.52,2.64,7.26,2.64c2.94,0,5.82-1.4,7.55-3.46
			c2.21-2.74,2.79-6.82,2.79-11.77v-6.01c0-7.5,0-8.85-0.1-10.38c-0.1-1.63-0.48-2.41-2.07-2.74c-0.38-0.1-1.2-0.14-1.63-0.14
			c-0.19,0-0.39-0.1-0.39-0.29c0-0.29,0.24-0.38,0.77-0.38c2.17,0,4.81,0.14,5.1,0.14c0.33,0,2.59-0.14,4.03-0.14
			c0.53,0,0.77,0.09,0.77,0.38c0,0.19-0.19,0.29-0.39,0.29c-0.34,0-0.63,0.05-1.2,0.14c-1.3,0.29-1.69,1.06-1.78,2.74
			c-0.1,1.53-0.1,2.88-0.1,10.38v5.14c0,5.19-0.58,10.96-4.43,14.38c-3.46,3.07-7.07,3.55-9.9,3.55c-1.64,0-6.49-0.19-9.91-3.41
			c-2.36-2.26-4.18-5.62-4.18-12.64V277.25L355.43,277.25z"/>
		<path class="st0" d="M422.17,277.25c0-7.5,0-8.85-0.1-10.38c-0.09-1.63-0.48-2.41-2.06-2.74c-0.39-0.1-1.2-0.14-1.64-0.14
			c-0.19,0-0.38-0.1-0.38-0.29c0-0.29,0.24-0.38,0.77-0.38c2.16,0,5.05,0.14,5.43,0.14c1.06,0,3.85-0.14,6.06-0.14
			c6.01,0,8.17,2.02,8.94,2.74c1.06,1.01,2.41,3.17,2.41,5.72c0,6.82-5,11.44-11.83,11.44c-0.24,0-0.77,0-1.01-0.05
			c-0.24,0-0.53-0.09-0.53-0.34c0-0.38,0.29-0.43,1.3-0.43c4.66,0,8.32-3.41,8.32-7.84c0-1.58-0.14-4.8-2.69-7.4
			c-2.55-2.59-5.48-2.4-6.59-2.4c-0.81,0-1.63,0.09-2.06,0.29c-0.29,0.1-0.39,0.44-0.39,0.91v19.76c0,4.61,0,8.41,0.25,10.43
			c0.14,1.4,0.43,2.45,1.87,2.65c0.67,0.09,1.73,0.19,2.17,0.19c0.28,0,0.38,0.14,0.38,0.29c0,0.24-0.24,0.39-0.77,0.39
			c-2.64,0-5.67-0.15-5.92-0.15c-0.14,0-3.17,0.15-4.61,0.15c-0.53,0-0.77-0.1-0.77-0.39c0-0.14,0.1-0.29,0.39-0.29
			c0.43,0,1.01-0.1,1.44-0.19c0.96-0.19,1.2-1.25,1.39-2.65c0.24-2.01,0.24-5.81,0.24-10.43V277.25L422.17,277.25z"/>
	</g>
</g>
</svg>
