<?xml version="1.0" encoding="utf-8"?>
<!-- Generator: Adobe Illustrator 21.1.0, SVG Export Plug-In . SVG Version: 6.00 Build 0)  -->
<svg version="1.1" id="Layer_1" xmlns="http://www.w3.org/2000/svg" xmlns:xlink="http://www.w3.org/1999/xlink" x="0px" y="0px"
	 viewBox="0 0 1440.23 1160.38" style="enable-background:new 0 0 1440.23 1160.38;" xml:space="preserve">
<style type="text/css">
	.st0{fill:#D2D3D5;}
</style>
<path class="st0" d="M1094.29,554.16c113.22,0,172.39-67.42,207.22-70.87c18.52-1.83,35.16,1.77,45.77,15.4
	c0.49,0.51,0.97,1.02,1.43,1.56c8.15,9.48,12.22,25.77,12.22,48.88c0,99.09-55.5,446.1-502.73,590.6l3.95,6.21
	c0,0,255.71-65.22,402.34-266.84c101.98-140.21,157.81-283.83,157.81-444.02c0-349.78-204.57-419.61-328.01-419.61
	c-217.37,0-296.85,163.75-296.85,269.34C797.44,433.57,930.34,554.16,1094.29,554.16z"/>
<path class="st0" d="M314.8,554.16c113.22,0,172.39-67.42,207.22-70.87c18.52-1.83,35.16,1.77,45.77,15.4
	c0.49,0.51,0.97,1.02,1.43,1.56c8.15,9.48,12.22,25.77,12.22,48.88c0,99.09-55.5,446.1-502.73,590.6l3.95,6.21
	c0,0,255.71-65.22,402.34-266.84c101.98-140.22,157.8-283.84,157.8-444.03c0-349.78-204.57-419.61-328.01-419.61
	C97.42,15.46,17.94,179.21,17.94,284.8C17.95,433.57,150.86,554.16,314.8,554.16z"/>
</svg>
