<?xml version="1.0" encoding="UTF-8"?><svg id="Layer_1" xmlns="http://www.w3.org/2000/svg" width="600" height="400" viewBox="0 0 600 400"><defs><style>.cls-1{fill:#fff;}</style></defs><path class="cls-1" d="m30.46,235.85c-20.43,0-30.46-12.63-30.46-37.89s10.4-39.75,30.84-40.12c5.94,0,10.77,1.86,14.12,5.2v-24.52l15.98-8.17v103.65h-16.35v-2.6c-4.09,2.97-8.92,4.46-14.12,4.46Zm-14.86-37.89c0,15.6,4.83,23.78,14.49,23.78,5.57,0,10.4-2.23,14.12-7.06v-33.44c-2.97-4.83-7.43-7.43-13.75-7.43-9.66.37-14.86,8.17-14.86,24.15Z"/><path class="cls-1" d="m88.05,233.99h-16.72v-74.3h16.72v74.3Z"/><path class="cls-1" d="m128.54,235.85c-20.43,0-30.46-12.63-30.46-37.89s10.4-39.75,30.84-40.12c5.94,0,10.77,1.86,14.12,5.2v-4.83h15.98v73.19c-.74,20.06-9.66,33.07-27.12,39.38l-6.69-13.37c12.26-4.83,18.2-13.75,17.83-26.01-4.46,2.97-8.92,4.46-14.49,4.46Zm-14.49-37.89c0,15.6,4.83,23.78,14.49,23.78,5.57,0,10.4-2.23,14.12-7.06v-33.44c-2.97-4.83-7.43-7.43-13.75-7.43-10.03.37-14.86,8.17-14.86,24.15Z"/><path class="cls-1" d="m186.87,233.99h-16.72v-74.3h16.72v74.3Z"/><path class="cls-1" d="m197.28,158.58h15.98v4.83c4.46-3.72,10.4-5.57,17.83-5.57,8.54,0,15.23,2.97,19.32,8.92,4.09,5.94,6.32,12.63,6.32,20.43v46.81h-15.6v-46.44c.37-3.72-1.11-7.43-3.72-10.4-2.6-2.97-6.32-4.46-10.4-4.46-4.46,0-7.8,1.11-10.03,3.72-2.23,2.6-3.34,6.32-3.34,11.15v46.81h-15.98v-75.79h-.37Z"/><path class="cls-1" d="m329.16,196.84c0,10.4-2.23,18.58-5.94,25.26-5.2,8.92-13.75,13.37-24.89,14.12-11.52-.37-19.69-5.2-24.89-14.12-4.09-6.69-5.94-14.86-5.94-25.26s2.23-19.32,5.94-25.63c5.2-8.54,13.75-13,24.89-13.37,11.15.37,19.69,4.83,24.89,13.37,3.72,6.32,5.94,14.86,5.94,25.63Zm-31.21,23.03c5.94,0,10.03-2.97,13-8.54,1.86-4.09,2.6-8.92,2.6-14.12,0-5.57-.74-10.4-2.6-14.49-2.6-5.94-7.06-8.54-13-8.54s-10.03,2.97-12.63,8.54c-1.86,4.09-2.6,8.92-2.6,14.49,0,5.2.74,10.03,2.6,14.12,2.97,5.57,7.06,8.54,12.63,8.54Z"/><path class="cls-1" d="m441.73,233.99h-15.98v-48.3c0-2.97-1.11-5.94-3.72-8.92-2.6-2.97-5.94-4.46-9.66-4.09-3.72,0-6.69,1.49-8.92,4.09s-3.34,5.57-3.34,8.92v48.3h-17.09v-48.3c0-2.97-1.11-5.94-3.72-8.92-2.6-2.97-5.57-4.09-9.29-4.09-3.34,0-6.32,1.49-8.54,4.09-2.23,2.6-3.72,5.57-3.72,8.92v48.3h-16.72v-75.79h16.35v4.46c4.46-3.72,10.03-5.57,15.98-5.57,8.54,0,14.86,3.34,19.69,10.4,4.83-7.06,11.52-10.4,20.43-10.4,7.43,0,14.12,2.97,19.69,8.54,5.57,5.57,8.54,12.26,8.54,20.06,0,0,0,48.3,0,48.3Z"/><path class="cls-1" d="m468.85,233.99h-16.72v-74.3h16.72v74.3Z"/><path class="cls-1" d="m477.77,196.47c0-10.4,1.86-18.95,5.94-25.63,5.2-8.92,13.75-13.37,25.26-13.37,14.86,0,24.15,6.32,28.24,18.58l-15.23,5.94c-2.23-6.32-6.69-9.66-13.37-9.66-5.57,0-9.29,2.97-11.89,8.92-1.86,4.09-2.6,8.92-2.6,14.49s.74,10.4,2.6,14.49c2.6,5.94,6.32,8.92,11.89,8.92,6.69,0,11.15-2.97,13.37-9.66l15.23,5.94c-4.09,12.63-13.75,18.58-28.24,18.58-11.52,0-19.69-4.46-25.26-13.37-4.09-5.2-5.94-13.75-5.94-24.15Z"/><path class="cls-1" d="m600,233.99h-15.6v-2.6c-4.09,2.97-8.54,4.46-13.37,4.46-8.17,0-14.86-2.23-20.06-7.06-5.2-4.46-8.17-11.15-8.17-19.69,0-7.43,2.6-13.75,7.43-18.58,4.83-5.2,11.52-7.43,20.06-7.43,4.83,0,8.92.74,13,1.86.37-7.43-3.72-11.52-11.15-12.26-6.69-.37-12.63,1.49-17.83,5.57l-8.17-12.26c7.43-5.2,15.98-7.8,25.63-8.17,7.8,0,14.49,2.23,20.06,6.69s8.17,11.15,8.17,19.69v49.78h0Zm-16.72-17.09v-16.72c-4.46-1.11-8.92-1.86-13.37-1.86-3.72,0-6.69,1.11-8.92,3.34-2.23,2.23-3.34,4.83-3.34,7.8s1.11,5.94,3.72,8.54c2.23,2.6,5.57,4.09,9.66,4.09,4.09.37,8.17-1.49,12.26-5.2Z"/><path class="cls-1" d="m89.91,139.26c0,2.97-1.11,5.2-2.97,7.43-1.86,1.86-4.46,2.97-7.06,2.97s-4.83-1.11-7.06-2.97c-2.23-2.23-2.97-4.46-2.97-7.06s.74-5.2,2.6-7.43c2.23-2.23,4.46-2.97,7.06-2.97s4.83,1.11,7.06,2.97c2.23,2.23,3.34,4.46,3.34,7.06Z"/><path class="cls-1" d="m188.73,139.26c0,2.97-1.11,5.2-2.97,7.43-1.86,1.86-4.46,2.97-7.06,2.97s-4.83-1.11-7.06-2.97c-2.23-2.23-2.97-4.46-2.97-7.06s1.11-4.83,2.97-7.06c2.23-2.23,4.46-2.97,7.06-2.97s4.83,1.11,7.06,2.97c1.86,1.86,2.97,4.09,2.97,6.69Z"/><path class="cls-1" d="m470.71,139.26c0,2.97-1.11,5.2-2.97,7.43-1.86,1.86-4.46,2.97-7.06,2.97s-4.83-1.11-7.06-2.97c-2.23-2.23-2.97-4.46-2.97-7.06s1.11-4.83,2.97-7.06c2.23-2.23,4.46-2.97,7.06-2.97s4.83,1.11,7.06,2.97c2.23,1.86,2.97,4.09,2.97,6.69Z"/></svg>