<?xml version="1.0" encoding="UTF-8"?><svg id="Layer_2" xmlns="http://www.w3.org/2000/svg" width="100" height="41.69" viewBox="0 0 100 41.69"><defs><style>.cls-1{fill:#fff;}.cls-2{fill:#b7133f;}</style></defs><g id="layer1"><path id="path8130" class="cls-1" d="m34.89,11.09c0,13.39-7.21,23.8-17.32,30.22C7.46,34.89.25,24.48.25,11.09h34.64Z"/><path d="m17.57,41.69l-.13-.08C6.2,34.46.03,23.62.03,11.12v-.25h10.71v.5H.5c.08,12.18,6.13,22.74,17.07,29.75,10.92-7.01,16.96-17.57,17.07-29.75h-10.46v-.5h10.99v.25c0,12.53-6.2,23.37-17.42,30.5l-.18.08Z"/><path id="path8154" d="m34.89,10.86c0,.35-.03.08-.03.23-.25-.13-.55,0-.86,0-1.13,0-1.87.98-1.87,2.02,0,.2.05.55.1.76-.23-.1-.5-.18-.76-.18-1.03,0-1.87.83-1.87,1.87,0,.35.1.68.25.96-.28-.18-.6-.28-.96-.28-1.18,0-1.87.93-1.87,2.07,0,.33.03.4.18.66-.28-.18-.55-.25-.93-.25-1.03,0-1.87,1.03-1.87,2.07,0,.3.03.4.18.66-.25-.13-.5-.13-.81-.13-1.03,0-1.87.93-1.87,1.97s.83,1.87,1.87,1.87c.28,0,.55-.08.81-.18-.13.25-.15.45-.15.76,0,1.03.83,1.87,1.87,1.87.33,0,.55.03.83-.13-.23.3-.15.58-.15.91,0,1.03.98,1.71,2.02,1.71.13,0,.28-.1.4-.13-1.49,2.24-3.38,4.51-5.32,6.38.38-.35.86-.86.86-1.41,0-1.06-.86-1.89-1.89-1.89-.5,0-.83.03-1.18.35.28-.33.43-.73.43-1.18,0-1.03-.83-1.87-1.87-1.87-.45,0-.86.15-1.18.43.2-.3.33-.66.33-1.06,0-.96-.38-1.87-2.02-1.87-.93,0-1.66.88-1.66,1.84,0,.38.13.76.33,1.06-.33-.28-.73-.43-1.18-.43-1.03,0-1.87.83-1.87,1.87,0,.45.15.86.43,1.18-.35-.33-.81-.5-1.31-.5-1.06,0-1.89.86-1.89,1.89,0,.55.28,1.26.66,1.61-1.94-1.87-3.68-3.91-5.17-6.15.13.03.38.08.5.08,1.03,0,1.87-.83,1.87-1.87,0-.33-.1-.66-.25-.93.28.15.55.23.88.23,1.03,0,1.87-.83,1.87-1.87,0-.3-.08-.6-.2-.86.25.13.5.18.81.18,1.03,0,1.87-.83,1.87-1.87s-.83-1.87-1.87-1.87c-.3,0-.58.08-.83.2.13-.25.2-.53.2-.83,0-1.03-.83-1.87-1.87-1.87-.35,0-.71.1-.98.28.15-.28.23-.58.23-.91,0-1.03-.83-1.87-1.87-1.87-.35,0-.68.1-.96.28.18-.28.25-.6.25-.96,0-1.03-.83-1.87-1.87-1.87-.33,0-.63.1-.88.23.15-.25.23-.55.23-.86,0-1.03-.83-2.17-1.87-2.17-.3,0-.6-.13-.86,0,0-.48-.03.35-.03-.23h10.64c-.25.53-.45.76-.45,1.21,0,1.03.83,1.87,1.87,1.87.38,0,.73-.13,1.03-.33-.18.28-.28.63-.28.98,0,1.03.83,1.87,1.87,1.87.4,0,.78-.13,1.08-.35-.2.3-.3.66-.3,1.01,0,1.03.83,1.87,1.87,1.87s1.87-.83,1.87-1.87c0-.38-.1-.71-.3-1.01.28.15.6.25.93.25,1.03,0,1.87-.83,1.87-1.87,0-.28-.05-.55-.15-.78.3.2.5.2.88.2,1.03,0,1.76-.83,1.76-1.87,0-.45-.23-.68-.5-1.21h10.94v.03Z"/><path id="path8158" class="cls-1" d="m24.65,13.54c-.2,0-.4.13-.48.55-.15.83-.45,1.26-.81,1.56-.25.23-.6.23-.73.23s-.25-.03-.3.3c-.05.3.13.6.23.76.1.13.18.1.28,0,.23-.18.5-.48.71-.76.2-.3.33-.15.18.13-.15.3-.45.71-.68.93-.18.15-.13.28-.08.38.08.13.28.33.33.38.08.05.33.2.5-.13.18-.35.3-.98.33-1.26.03-.25.2-.23.23,0v.43c0,.28-.08.66-.23,1.01s-.03.38.08.43.2.08.38.08c.2,0,.3-.03.38-.08.1-.05.23-.08.08-.43s-.23-.73-.23-1.01v-.43c.03-.23.2-.28.23,0s.15.91.33,1.26c.18.35.45.18.5.13.08-.05.28-.25.33-.38.08-.13.1-.23-.08-.38-.23-.23-.53-.63-.68-.93s-.03-.43.18-.13c.2.3.45.58.71.76.13.1.18.13.28,0s.28-.43.23-.76c-.05-.3-.2-.38-.33-.38-.2-.03-.55,0-.81-.23-.35-.33-.53-.63-.68-1.49.05-.43-.15-.55-.35-.55h0Zm-14.24.13c-.2,0-.4.13-.48.55-.15.83-.45,1.26-.81,1.56-.25.23-.6.23-.73.23s-.25-.03-.3.3c-.05.3.13.6.23.76.1.13.18.1.28,0,.23-.18.5-.48.71-.76.2-.3.33-.15.18.13-.15.3-.45.71-.68.93-.18.15-.13.28-.08.38.08.13.28.33.33.38.08.05.33.2.5-.13.18-.35.33-.98.33-1.26.03-.25.2-.23.23,0v.43c0,.28-.08.66-.23,1.01-.15.35-.03.38.08.43.1.05.2.08.38.08.2,0,.3-.03.38-.08.1-.05.23-.08.08-.43s-.23-.73-.23-1.01v-.43c.03-.23.2-.28.23,0s.15.91.33,1.26c.18.35.45.18.5.13.08-.05.28-.25.33-.38.08-.13.1-.23-.08-.38-.23-.23-.53-.63-.68-.93s-.03-.43.18-.13c.2.3.45.58.71.76.13.1.18.13.28,0s.28-.43.23-.76c-.05-.3-.2-.38-.33-.38-.2-.03-.55,0-.81-.23-.35-.33-.53-.63-.68-1.49.05-.45-.15-.55-.35-.55h0Zm12.83.55c-.15,0-.15.15-.1.3.05.18.15.33.18.45s.08.2.18.08h.03c.1-.15.18-.33.25-.55.05-.23.05-.3-.18-.3l-.35.03h0Zm2.37,0c-.2,0-.23.08-.15.3.05.23.15.4.23.55h.03c.1.13.15.08.18-.08.03-.13.1-.3.15-.45.05-.18.05-.3-.1-.3l-.33-.03h0Zm-16.61.1c-.15,0-.15.15-.1.3.05.18.15.33.18.45.03.13.08.2.18.08h.03c.1-.15.18-.33.25-.55s.05-.3-.18-.3l-.35.03h0Zm2.37,0c-.2,0-.23.08-.15.3.05.23.15.4.23.55h.03c.1.13.15.08.18-.08.03-.13.1-.3.15-.45.05-.18.05-.3-.1-.3l-.33-.03h0Zm6.2,6.15c-.2,0-.4.13-.48.55-.15.83-.45,1.24-.81,1.56-.25.23-.6.23-.73.23s-.25-.03-.3.3c-.05.3.13.6.23.76.1.13.18.1.28,0,.23-.18.5-.48.71-.76.2-.3.33-.15.18.15-.15.3-.45.71-.68.93-.18.15-.13.28-.08.38.08.13.28.33.33.38.08.05.33.2.5-.13.18-.35.33-.98.33-1.26.03-.25.2-.23.23,0v.43c0,.28-.1.66-.23,1.01-.15.35-.03.38.08.43s.2.08.38.08c.2,0,.3-.03.38-.08.1-.05.23-.08.08-.43s-.23-.73-.23-1.01v-.43c.03-.23.2-.28.23,0s.15.91.33,1.26c.18.35.45.18.5.13.08-.05.28-.25.33-.38.08-.13.1-.23-.08-.38-.23-.23-.53-.66-.68-.93-.15-.3-.03-.43.18-.15.2.3.45.58.71.76.13.1.18.13.28,0s.28-.43.23-.76c-.05-.3-.2-.38-.33-.38-.2-.03-.55,0-.81-.23-.35-.33-.53-.63-.68-1.49.05-.43-.15-.55-.35-.55h0Zm-1.41.68c-.15,0-.15.15-.1.3.05.18.15.33.18.45s.08.2.18.08h.03c.1-.15.18-.33.25-.55s.05-.28-.18-.28h-.35Zm2.37,0c-.2,0-.23.08-.15.28.05.23.15.4.23.55h.03c.1.13.15.08.18-.08.03-.13.1-.3.15-.45.05-.18.05-.3-.1-.3h-.33Zm6,6.4c-.2,0-.4.13-.48.53-.15.83-.45,1.26-.81,1.56-.25.23-.6.25-.73.23-.13,0-.25-.03-.3.3-.05.3.13.6.23.76.1.13.18.1.28,0,.23-.18.48-.48.71-.76.2-.3.33-.15.18.13-.15.3-.45.71-.68.93-.18.15-.13.28-.08.38.08.13.28.33.33.38.08.05.33.2.5-.13.18-.35.33-.98.33-1.26.03-.25.2-.23.23,0v.43c0,.3-.1.66-.23,1.01-.15.35-.03.38.08.43s.2.08.38.08c.2,0,.3-.03.38-.08.1-.05.23-.08.08-.43-.13-.35-.23-.73-.23-1.01v-.43c.03-.23.2-.28.23,0s.15.91.33,1.26c.18.35.45.18.5.13.08-.05.28-.25.33-.38.08-.13.1-.23-.08-.38-.23-.23-.53-.66-.68-.93-.15-.3-.03-.43.18-.13.2.3.45.58.71.76.13.1.18.13.28,0s.28-.45.23-.76-.2-.38-.33-.38c-.2-.03-.55,0-.81-.23-.35-.33-.53-.63-.68-1.49.05-.4-.13-.53-.35-.53h0Zm-13.89.13c-.2,0-.4.13-.48.55-.15.83-.45,1.26-.81,1.56-.25.23-.6.23-.73.23s-.25-.03-.3.3c-.05.3.13.6.23.76.1.13.18.1.28,0,.23-.18.48-.48.71-.76.2-.3.33-.15.18.13-.15.3-.45.71-.68.93-.18.15-.13.28-.08.38.08.13.28.33.33.38.08.05.33.2.5-.13.18-.35.3-1.01.33-1.26s.2-.23.23,0v.43c0,.28-.08.66-.23,1.01-.15.35-.03.38.08.43.1.05.2.08.38.08.2,0,.3-.03.38-.08.1-.05.23-.08.08-.43s-.23-.73-.23-1.01v-.43c.03-.23.2-.28.23,0s.15.91.33,1.26c.18.35.45.18.5.13.08-.05.28-.25.33-.38.08-.13.1-.23-.08-.38-.23-.23-.53-.63-.68-.93s-.03-.43.18-.13c.2.3.45.58.71.76.13.1.18.13.28,0s.28-.43.23-.76c-.05-.3-.2-.38-.33-.38-.2-.03-.55,0-.81-.23-.35-.33-.53-.63-.68-1.49.05-.45-.15-.55-.35-.55h0Zm12.5.55c-.15,0-.15.15-.1.3.05.18.15.33.18.45s.08.2.18.08h.03c.1-.15.18-.33.25-.55.05-.23.05-.28-.18-.28h-.35Zm2.37,0c-.2,0-.23.08-.15.28.05.23.15.4.23.55h.03c.1.13.15.08.18-.08.03-.13.1-.3.15-.45.05-.18.05-.3-.1-.3h-.33Zm-16.28.1c-.15,0-.15.15-.1.3.05.18.15.33.18.45.03.13.08.2.18.08h.03c.1-.15.18-.33.25-.55s.05-.28-.18-.28h-.35Zm2.37,0c-.2,0-.23.08-.15.28.05.23.15.4.23.55h.03c.1.13.15.08.18-.08.03-.13.1-.3.15-.45.05-.18.05-.3-.1-.3h-.33Z"/><path id="path8216" class="cls-2" d="m.25.25h34.61v10.79H.25S.25.25.25.25Z"/><path d="m35.14,11.29H0V0h35.11v11.29h.03ZM.5,10.79h34.11V.5H.5v10.28Z"/><g id="g8784"><path id="path8238" class="cls-1" d="m6.81,3.42c0-.64.52-1.16,1.16-1.16h2.84v1.12h.48c.2,0,.36.16.36.36s-.16.36-.36.36h-.48v2.6h.48c.2,0,.36.16.36.36s-.16.36-.36.36h-.48v1.2h-3.48c-.08.2-.32.36-.56.36s-.44-.16-.56-.36h-3.48v-1.2h-.48c-.2,0-.36-.16-.36-.36s.16-.36.36-.36h.48v-2.6h-.48c-.2,0-.36-.16-.36-.36s.16-.36.36-.36h.48v-1.12h2.84c.72,0,1.24.52,1.24,1.16"/><path d="m6.81,9.06c-.24,0-.48-.12-.6-.36h-3.48v-1.2h-.4c-.24,0-.44-.2-.44-.44s.2-.44.44-.44h.4v-2.48h-.4c-.24,0-.44-.2-.44-.44s.2-.44.44-.44h.4v-1.12h2.92c.56,0,1,.36,1.16.84.16-.48.6-.84,1.16-.84h2.92v1.12h.4c.24,0,.44.2.44.44s-.2.44-.44.44h-.4v2.48h.4c.24,0,.44.2.44.44s-.2.44-.44.44h-.4v1.2h-3.48c-.12.24-.36.36-.6.36Zm-3.96-.44h3.44v.04c.08.2.28.32.48.32s.4-.12.48-.32v-.04h3.44v-1.2h.52c.16,0,.32-.16.32-.32s-.16-.32-.32-.32h-.52v-2.68h.52c.16,0,.32-.16.32-.32s-.16-.32-.32-.32h-.52v-1.12h-2.8c-.6,0-1.08.48-1.08,1.08v4.36h-.12V3.42c0-.6-.48-1.08-1.08-1.08h-2.8v1.12h-.52c-.16,0-.32.16-.32.32s.16.32.32.32h.52v2.68h-.52c-.16,0-.32.16-.32.32s.16.32.32.32h.52v1.2h.04Z"/><path id="path8246" d="m8.05,4.74c0,.12.04.12.16.12s.16,0,.2-.08.24-.28.24,0v.4c0,.28-.2.12-.24,0-.04-.08-.08-.12-.16-.12-.12,0-.16,0-.16.12-.04.4-.04.76,0,.96,0,.08.04.12.12.12h.24c.36,0,.4-.2.48-.44.08-.36.24-.28.24,0v.52c0,.16-.16.08-.24.08h-1.32c-.12,0-.12-.08-.04-.12.08-.04.08-.08.08-.28v-1.96c0-.24-.04-.24-.08-.28-.08-.04-.04-.16.04-.12h1.24c.08,0,.24-.08.24.08v.52c0,.16-.16.24-.24,0-.04-.24-.04-.48-.4-.48h-.24c-.08,0-.12.04-.12.12-.04.36-.04.64-.04.84"/><path d="m6.21,8.7c-.04-.08-.08-.2-.08-.28s0-.12.04-.16h-2.8V2.82l.52-.52h.24v5.27h2.04c.28,0,.48.08.56.2h.12c.08-.12.32-.2.56-.2h2.04V2.3h.24l.52.52v5.43h-2.8s.04.12.04.16c0,.08-.04.2-.08.28l-.12-.04c.04-.08.04-.16.04-.24,0-.32-.24-.56-.56-.56s-.56.24-.56.56c0,.08,0,.16.04.24v.04Zm1.2-.6h2.64l-.52-.48h-2.08c-.24,0-.36.04-.44.12.16.08.32.2.4.36Zm-3.84,0h2.64c.08-.16.24-.28.4-.36-.08-.08-.24-.12-.44-.12h-2.08l-.52.48Zm-.08-5.27v5.19l.52-.48V2.34h-.08l-.44.48Zm6.11,4.76l.52.48V2.86l-.44-.48h-.08v5.19h0Z"/><path id="path8254" d="m5.57,6.22c-.04.16-.12.28-.24.28s-.16-.12-.2-.32l-.48-2.16c-.04-.24-.08-.24-.16-.28-.08-.04-.08-.16.04-.12h.48c.12,0,.12.08.08.12-.04.04-.08.08-.04.28l.28,1.36c.04.24.16.16.2,0l.4-1.36c.04-.24-.04-.24-.08-.28s0-.16.08-.12h.4c.08,0,.08.08.04.16q-.08.04-.16.28l-.64,2.16h0Z"/></g><g id="g8791"><path id="path8258" class="cls-1" d="m17.28,9.02c.24,0,.44-.16.56-.36h3.08v-1.2h.48c.2,0,.36-.16.36-.36s-.16-.36-.36-.36h-.48v-2.6h.48c.2,0,.36-.16.36-.36s-.16-.36-.36-.36h-.48v-1.12h-2.48c-.64,0-1.16.52-1.16,1.16,0-.64-.52-1.16-1.16-1.16h-2.84v1.12h-.48c-.2,0-.36.16-.36.36s.16.36.36.36h.48v2.6h-.48c-.2,0-.36.16-.36.36s.16.36.36.36h.48v1.2h3.48c.08.2.28.36.52.36"/><path d="m17.28,9.06c-.24,0-.48-.12-.6-.36h-3.48v-1.2h-.4c-.24,0-.44-.2-.44-.44s.2-.44.44-.44h.4v-2.48h-.4c-.24,0-.44-.2-.44-.44s.2-.44.44-.44h.4v-1.12h2.92c.56,0,1,.36,1.16.84.16-.48.6-.84,1.16-.84h2.56v1.12h.4c.24,0,.44.2.44.44s-.2.44-.44.44h-.4v2.48h.4c.24,0,.44.2.44.44s-.2.44-.44.44h-.4v1.2h-3.12c-.12.24-.32.36-.6.36Zm-.48-.44h0c.08.2.28.32.52.32.2,0,.4-.12.48-.32v-.04c.04-.08.04-.12.04-.2,0-.32-.24-.56-.56-.56s-.56.24-.56.56c.04.08.04.16.08.24Zm1.12,0h2.96v-1.2h.52c.16,0,.32-.16.32-.32s-.16-.32-.32-.32h-.52v-2.68h.52c.16,0,.32-.16.32-.32s-.16-.32-.32-.32h-.52v-1.12h-.96l.44.44v5.43h-2.44s.04.12.04.16c0,.08,0,.16-.04.24Zm-4.56,0h3.32c-.04-.08-.04-.12-.04-.2s0-.12.04-.16h-2.8V2.82l.44-.44h-.96v1.12h-.52c-.16,0-.32.16-.32.32s.16.32.32.32h.52v2.68h-.52c-.16,0-.32.16-.32.32s.16.32.32.32h.52v1.16h0Zm4.52-.52h2.28l-.52-.48h-1.72c-.2,0-.36.04-.44.12.2.08.32.2.4.36Zm-3.84,0h2.64c.08-.16.24-.28.4-.36-.08-.08-.2-.12-.44-.12h-2.08l-.52.48Zm-.08-5.27v5.19l.52-.48V2.34h-.08l-.44.48Zm5.75,4.76l.52.48V2.86l-.44-.48h-.08v5.19Zm-5.11-.04h2.04c.28,0,.48.08.56.2h0V3.42c0-.6-.48-1.08-1.08-1.08h-1.52v5.19Zm2.76.2h0c.08-.12.32-.2.6-.2h1.68V2.34h-1.16c-.6,0-1.08.48-1.08,1.08v4.32h-.04Z"/><path id="path8266" d="m15.64,4.34v.4c0,.08.04.12.2.12s.48-.08.48-.56-.24-.52-.36-.56c-.16-.04-.32,0-.32.24v.36Zm-.28,2.12h-.28c-.08,0-.12-.08-.04-.12.04-.04.12-.08.12-.28v-2.08c0-.08,0-.16-.08-.2-.08-.08.04-.16.12-.16h.64c.72,0,.96.24.96.68,0,.32-.2.52-.44.64-.08.04-.08.08-.08.12s0,.04.04.12c.04.04.48.92.52,1,.08.08.08.12.12.16.04,0,.04.12-.12.12h-.4s-.04,0-.08-.08c-.04-.08-.56-1.2-.64-1.28h-.16v.96c0,.2.08.2.12.28.08.04.04.16-.08.16-.04-.04-.12-.04-.24-.04"/><path id="path8270" d="m18.88,6.06c0,.2.04.24.08.28.08.04.04.16-.04.12h-.48c-.12,0-.12-.08-.04-.12.08-.04.08-.08.08-.28v-1.96c0-.24-.04-.24-.08-.28-.08-.04-.04-.16.04-.12h.48c.12,0,.12.08.04.12-.08.04-.08.08-.08.28v1.96Z"/></g><g id="g8797"><path id="path8274" class="cls-1" d="m27.83,3.1c.12-.48.6-.84,1.12-.84h3.36v1.12h.48c.2,0,.36.16.36.36s-.16.36-.36.36h-.48v2.6h.48c.2,0,.36.16.36.36s-.16.36-.36.36h-.48v1.2h-3.96c-.08.2-.32.36-.56.36s-.44-.16-.56-.36h-3.8v-1.2h-.48c-.2,0-.36-.16-.36-.36s.16-.36.36-.36h.48v-2.6h-.48c-.2,0-.36-.16-.36-.36s.16-.36.36-.36h.48v-1.12h3.2c.52,0,1,.36,1.12.84h.08Z"/><path d="m27.79,9.06c-.24,0-.48-.12-.6-.36h-3.84v-1.2h-.4c-.24,0-.44-.2-.44-.44s.2-.44.44-.44h.4v-2.48h-.4c-.24,0-.44-.2-.44-.44s.2-.44.44-.44h.4v-1.12h3.24c.52,0,1,.32,1.16.84.16-.48.64-.84,1.16-.84h3.44v1.12h.4c.24,0,.44.2.44.44s-.2.44-.44.44h-.4v2.48h.4c.24,0,.44.2.44.44s-.2.44-.44.44h-.4v1.2h-4c-.12.24-.32.36-.56.36Zm-.52-.44h0c.08.2.28.32.52.32.2,0,.4-.12.48-.32v-.04c.04-.08.04-.12.04-.2,0-.32-.24-.56-.56-.56s-.56.24-.56.56c.04.12.04.16.08.24Zm1.16,0h3.84v-1.2h.52c.16,0,.32-.16.32-.32s-.16-.32-.32-.32h-.52v-2.68h.52c.16,0,.32-.16.32-.32s-.16-.32-.32-.32h-.52v-1.12h-.96l.44.44v5.43h-3.32s.04.12.04.16c-.04.08-.04.16-.04.24Zm-4.95,0h3.68c-.04-.08-.04-.12-.04-.2s0-.12.04-.16h-3.16V2.82l.44-.44h-.96v1.12h-.52c-.16,0-.32.16-.32.32s.16.32.32.32h.52v2.68h-.52c-.16,0-.32.16-.32.32s.16.32.32.32h.52v1.16h0Zm4.91-.52h3.16l-.52-.48h-2.6c-.2,0-.36.04-.44.12.16.08.32.2.4.36Zm-4.2,0h3c.08-.16.24-.28.4-.36-.08-.08-.24-.12-.44-.12h-2.44l-.52.48Zm6.87-.52l.52.48V2.86l-.44-.48h-.08v5.19Zm-6.95-4.76v5.19l.52-.48V2.34h-.08l-.44.48Zm3.68,4.91h.08c.08-.12.32-.2.56-.2h2.56V2.34h-2.04c-.48,0-.92.32-1.08.8v.04h-.16v-.04c-.12-.48-.56-.8-1.08-.8h-1.88v5.19h2.4c.28,0,.48.08.56.2h.08Z"/><path id="path8282" d="m27.59,4.66c.08-.32.16-.36.24.04l.12.56q.04.16-.24.16c-.36,0-.36-.04-.32-.16l.2-.6Zm.44,1l.08.36c.04.2.04.24-.04.28-.04.04,0,.16.08.12h.52c.12,0,.08-.12.04-.16-.08-.04-.08-.12-.12-.24l-.6-2.16c-.04-.16-.12-.28-.16-.28-.12.04-.28.08-.28.16v.24l-.6,2.04c-.08.2-.12.2-.16.28-.04.04-.04.16.04.16h.4c.08,0,.12-.08.08-.12-.04-.04-.12-.08-.08-.28l.12-.4c.04-.08.24-.04.36-.04.04-.04.28-.08.32.04"/><path id="path8286" d="m25.99,3.66c.16,0,.32,0,.56-.04.36-.04.36,0,.36.08v.44c0,.08,0,.2-.08.2s-.12-.08-.16-.2c-.12-.36-.24-.4-.36-.4-.08,0-.12.08-.12.24v1.96c0,.2.04.24.08.28.08.04.04.16-.04.16h-.56c-.12,0-.12-.08-.04-.16.08-.04.08-.08.08-.28v-1.96c0-.2-.04-.24-.12-.24s-.2.04-.36.4c-.04.12-.08.2-.16.2s-.08-.12-.08-.2v-.44c0-.08,0-.12.36-.08.32.04.48.04.64.04"/><path id="path8290" d="m29.03,5.78c0-.24.16-.24.24.04.08.24.2.56.52.56s.4-.36.4-.56c0-.28-.12-.4-.56-.72-.44-.32-.56-.56-.56-.8,0-.28.24-.68.68-.68.2,0,.32,0,.4.08,0,0,.16.04.2,0s.12,0,.12.08v.52c0,.12-.12.2-.2,0-.08-.24-.16-.6-.44-.6s-.32.32-.32.44c0,.36.32.44.72.72.36.28.48.4.48.8s-.4.84-.84.84c-.2,0-.36-.12-.52-.12s-.16.04-.2.04-.12-.04-.12-.16v-.48"/></g></g><path d="m62.59,2.81h3.08l.96,3.38c.35,1.21.55,2.04.55,2.04h.03s.18-.83.55-2.04l1.08-3.35h2.85l-3.02,8.34h-3.15l-2.92-8.37Z"/><path d="m75.88,7.83h-.38c-1.06,0-1.41.33-1.41.86,0,.4.28.71.78.71s1.01-.25,1.01-1.03v-.53Zm2.82.6c0,.4.1.6.4.6.18,0,.35-.08.53-.15v2.07c-.4.28-.78.4-1.44.4-1.11,0-1.74-.5-2.07-1.31-.48.86-1.21,1.36-2.39,1.36-1.54,0-2.5-.91-2.5-2.32,0-1.79,1.29-2.7,3.81-2.7h.86v-.55c0-.55-.18-.93-.71-.93s-.73.3-.78.98l-2.77-.43c.15-1.71,1.49-2.8,3.66-2.8,2.39,0,3.43,1.06,3.43,2.87v2.9h-.03Z"/><path d="m85.81,6.11c-.35-.13-.53-.23-1.01-.23-.68,0-1.51.28-1.51,1.76v3.53h-2.9V2.81h2.5l.28,2.07c.23-1.39,1.41-2.07,2.85-2.07l-.2,3.3Z"/><path d="m92.16,6.39c0-1.06-.53-1.64-1.36-1.64s-1.56.63-1.56,2.29c0,1.36.58,2.09,1.54,2.09.73,0,1.41-.55,1.41-1.69v-1.06h-.03Zm-.03-6.38h2.92v11.17h-2.65l-.28-1.44c-.3,1.11-1.31,1.66-2.57,1.66-1.94,0-3.35-1.51-3.35-4.23s1.34-4.54,3.68-4.54c1.06,0,1.92.48,2.19,1.29V.01h.05Z"/><path d="m40.33,31.17h1.13c1.03,0,1.49-.4,1.49-1.18s-.45-1.18-1.49-1.18h-1.13v2.37Zm3.02,5.82c-.35-.28-.48-.68-.6-1.18l-.33-1.31c-.18-.76-.48-.91-1.18-.91h-.93v3.4h-2.92v-10.64h4.56c2.39,0,4.03.93,4.03,3.35,0,1.69-1.08,2.52-2.27,2.72.98.2,1.46.63,1.71,1.56l.5,1.81c.13.48.28.83.66,1.21h-3.23v-.03h0Z"/><path d="m54.12,28.62h3.08l.96,3.35c.35,1.21.55,2.04.55,2.04h.03s.18-.83.55-2.04l1.08-3.35h2.85l-3.02,8.34h-3.15l-2.92-8.34Z"/><path d="m66.75,36.99h-2.9v-8.37h2.9v8.37Zm-1.46-11.97c.86,0,1.61.6,1.61,1.54s-.73,1.54-1.61,1.54-1.61-.6-1.61-1.54c0-.93.76-1.54,1.61-1.54"/><path d="m72.85,31.9c0-.73-.25-1.36-1.06-1.36-.71,0-1.16.58-1.24,1.36h2.29Zm.28,2.07l2.42.76c-.48,1.79-1.94,2.47-3.6,2.47-2.47,0-4.29-1.56-4.29-4.31s1.59-4.46,4.21-4.46c2.47,0,3.73,1.59,3.73,3.91,0,.3,0,.68-.03,1.06h-5.09c.05,1.03.55,1.59,1.44,1.59.6,0,1.01-.28,1.21-1.01"/><path d="m83.41,28.62l.6,2.9c.3,1.49.48,2.62.48,2.62h.03s.18-1.11.53-2.57l.68-2.95h2.82l-2.27,8.34h-3.28l-.5-2.45c-.25-1.24-.45-2.67-.45-2.67h-.03s-.2,1.44-.45,2.67l-.5,2.45h-3.25l-2.27-8.34h2.95l.68,2.95c.35,1.49.53,2.57.53,2.57h.03s.15-1.11.48-2.62l.6-2.9h2.6Z"/><path d="m62.24,6.11c-.35-.13-.55-.23-1.01-.23-.68,0-1.51.28-1.51,1.76v3.53h-2.92V2.81h2.5l.28,2.07c.23-1.39,1.41-2.07,2.85-2.07l-.18,3.3Z"/><polygon points="37.38 11.15 37.38 .52 40.36 .52 40.36 4.47 43.99 4.47 43.99 .52 46.96 .52 46.96 11.15 43.99 11.15 43.99 7.05 40.36 7.05 40.36 11.15 37.38 11.15"/><path d="m52.33,7.83h-.38c-1.06,0-1.41.33-1.41.86,0,.4.28.71.78.71s1.01-.25,1.01-1.03v-.53Zm2.8.6c0,.4.1.6.4.6.18,0,.35-.08.53-.15v2.07c-.4.28-.78.4-1.44.4-1.11,0-1.74-.5-2.07-1.31-.48.86-1.21,1.36-2.39,1.36-1.54,0-2.5-.91-2.5-2.32,0-1.79,1.29-2.7,3.81-2.7h.86v-.55c0-.55-.18-.93-.71-.93s-.73.3-.78.98l-2.77-.43c.15-1.71,1.49-2.8,3.66-2.8,2.39,0,3.43,1.06,3.43,2.87v2.9h-.03Z"/><path d="m51.58,31.9c0-.73-.25-1.36-1.06-1.36-.71,0-1.16.58-1.24,1.36h2.29Zm.3,2.07l2.42.76c-.48,1.79-1.94,2.47-3.6,2.47-2.47,0-4.29-1.56-4.29-4.31s1.59-4.46,4.21-4.46c2.47,0,3.73,1.59,3.73,3.91,0,.3,0,.68-.03,1.06h-5.09c.05,1.03.55,1.59,1.44,1.59.58,0,1.01-.28,1.21-1.01"/><path d="m40.31,21.64h1.54c.73,0,1.16-.33,1.16-.93s-.4-.93-1.16-.93h-1.54v1.87Zm0-3.78h1.13c.76,0,1.24-.28,1.24-1.01s-.48-1.01-1.24-1.01h-1.13v2.02Zm5.72,3.35c0,1.71-1.18,2.87-3.78,2.87h-4.87v-10.66h4.74c2.27,0,3.48,1.03,3.48,2.77,0,1.24-.73,2.12-1.87,2.39,1.49.33,2.29,1.34,2.29,2.62"/><path d="m51.8,22.52c-.23,1.11-1.08,1.76-2.52,1.76-1.51,0-2.57-.93-2.57-2.9v-5.67h2.92v5.04c0,.83.23,1.34.91,1.34.76,0,1.24-.68,1.24-2.04v-4.34h2.92v8.34h-2.62l-.28-1.54Z"/><path d="m57.68,21.21c.15.68.68,1.06,1.31,1.06.53,0,.88-.18.88-.53s-.3-.53-.91-.66l-1.11-.23c-1.51-.33-2.32-1.11-2.32-2.47,0-2.02,1.74-2.82,3.6-2.82,2.02,0,3.23.83,3.5,2.39l-2.65.4c-.1-.48-.38-.73-.93-.73-.4,0-.71.2-.71.53s.23.48.68.55l1.11.2c1.84.3,2.62,1.31,2.62,2.72,0,1.97-1.71,2.72-3.78,2.72-1.89,0-3.15-.68-3.63-2.17l2.32-.98Z"/><path d="m66.5,24.06h-2.9v-8.34h2.9v8.34Zm-1.46-11.95c.86,0,1.61.6,1.61,1.54s-.73,1.54-1.61,1.54-1.61-.6-1.61-1.54c0-.93.76-1.54,1.61-1.54"/><path d="m70.66,17.33c.43-1.24,1.41-1.81,2.65-1.81s2.45.76,2.45,2.67v5.87h-2.9v-4.74c0-.86-.25-1.36-.98-1.36-.63,0-1.18.38-1.18,1.66v4.46h-2.9v-8.37h2.62l.25,1.61Z"/><path d="m81.72,18.99c0-.73-.25-1.36-1.06-1.36-.71,0-1.16.58-1.24,1.36h2.29Zm.3,2.07l2.42.76c-.48,1.79-1.94,2.47-3.6,2.47-2.47,0-4.29-1.56-4.29-4.31s1.59-4.46,4.21-4.46c2.47,0,3.73,1.59,3.73,3.91,0,.3,0,.68-.03,1.06h-5.09c.05,1.03.55,1.59,1.44,1.59.58,0,1.01-.28,1.21-1.01"/><path d="m87.17,21.21c.15.68.68,1.06,1.31,1.06.53,0,.88-.18.88-.53s-.3-.53-.91-.66l-1.11-.23c-1.51-.33-2.32-1.11-2.32-2.47,0-2.02,1.74-2.82,3.6-2.82,2.02,0,3.23.83,3.5,2.39l-2.65.4c-.1-.48-.38-.73-.93-.73-.4,0-.71.2-.71.53s.23.48.68.55l1.11.2c1.84.3,2.62,1.31,2.62,2.72,0,1.97-1.71,2.72-3.78,2.72-1.89,0-3.15-.68-3.63-2.17l2.32-.98Z"/><path d="m94.91,21.21c.15.68.68,1.06,1.31,1.06.53,0,.88-.18.88-.53s-.3-.53-.91-.66l-1.11-.23c-1.51-.33-2.32-1.11-2.32-2.47,0-2.02,1.74-2.82,3.6-2.82,2.02,0,3.23.83,3.5,2.39l-2.65.4c-.1-.48-.38-.73-.93-.73-.4,0-.71.2-.71.53s.23.48.68.55l1.11.2c1.84.3,2.62,1.31,2.62,2.72,0,1.97-1.71,2.72-3.78,2.72-1.89,0-3.15-.68-3.63-2.17l2.32-.98Z"/></svg>