<?xml version="1.0" encoding="utf-8"?>
<!-- Generator: Adobe Illustrator 21.1.0, SVG Export Plug-In . SVG Version: 6.00 Build 0)  -->
<svg version="1.1" id="Layer_1" xmlns="http://www.w3.org/2000/svg" xmlns:xlink="http://www.w3.org/1999/xlink" x="0px" y="0px"
	 viewBox="0 0 730.14 254.99" style="enable-background:new 0 0 730.14 254.99;" xml:space="preserve">
<style type="text/css">
	.st0{fill:#FFFFFF;}
</style>
<g>
	<path class="st0" d="M130.8,145.89c0-31.9,0-63.68,0-95.62c0.54,0,1.05,0,1.56,0c14.72,0,29.45-0.02,44.17,0.01
		c5.52,0.01,10.97,0.59,16.2,2.51c4.78,1.75,8.61,4.67,11.04,9.25c1.14,2.15,1.82,4.44,2.19,6.83c0.57,3.71,0.58,7.41-0.26,11.08
		c-1.13,4.93-3.98,8.7-8.1,11.54c-1.24,0.86-2.57,1.6-3.95,2.45c0.35,0.14,0.71,0.27,1.05,0.43c1.89,0.88,3.87,1.61,5.65,2.67
		c4.92,2.93,7.92,7.38,9.44,12.82c1.54,5.51,1.6,11.1,0,16.59c-1.92,6.6-6.17,11.41-12.17,14.71c-3.94,2.16-8.18,3.4-12.59,4.12
		c-3.11,0.51-6.24,0.64-9.39,0.64c-14.36-0.02-28.71-0.01-43.07-0.01C132,145.89,131.43,145.89,130.8,145.89z M151.84,129.41
		c0.22,0.05,0.36,0.11,0.51,0.11c7.8,0,15.6,0.05,23.4-0.05c3.04-0.04,6.04-0.59,8.74-2.15c2.62-1.52,4.29-3.75,4.98-6.72
		c0.47-2.02,0.44-4.07,0.23-6.09c-0.5-4.94-3.04-8.33-7.82-9.95c-2.25-0.77-4.56-1.11-6.93-1.11c-7.28-0.01-14.55,0-21.83,0
		c-0.4,0-0.81,0-1.28,0C151.84,112.14,151.84,120.71,151.84,129.41z M151.84,88.83c0.2,0.05,0.35,0.11,0.49,0.11
		c7.33,0,14.66,0.02,21.99-0.04c1.94-0.02,3.83-0.49,5.62-1.26c2.92-1.26,4.93-3.34,5.6-6.49c0.29-1.37,0.41-2.8,0.38-4.2
		c-0.1-4.81-2.65-8.04-7.28-9.4c-2.12-0.62-4.3-0.9-6.5-0.9c-6.44-0.02-12.88-0.01-19.32,0c-0.34,0-0.68,0.08-0.99,0.13
		C151.84,74.19,151.84,81.5,151.84,88.83z"/>
	<path class="st0" d="M428.29,145.89c0-31.96,0-63.7,0-95.55c0.44-0.02,0.84-0.06,1.24-0.06c13.52,0,27.04-0.03,40.55,0.01
		c7.81,0.02,15.27,1.63,22.14,5.44c7.86,4.35,13.26,10.91,16.7,19.13c2.39,5.7,3.49,11.68,3.88,17.83c0.3,4.67,0.19,9.32-0.4,13.95
		c-1.12,8.84-3.69,17.15-9.29,24.28c-5.94,7.55-13.73,12.09-23.1,14c-3.55,0.72-7.15,0.97-10.77,0.97c-13.26-0.01-26.51,0-39.77,0
		C429.12,145.89,428.76,145.89,428.29,145.89z M449.34,128.27c0.67,0,1.19,0,1.72,0c5.19,0,10.38,0.03,15.57-0.01
		c1.78-0.01,3.57-0.08,5.32-0.31c6.85-0.89,12.17-4.2,15.71-10.21c2.44-4.13,3.61-8.65,4.04-13.39c0.29-3.3,0.28-6.59,0.01-9.89
		c-0.28-3.56-0.81-7.07-1.92-10.47c-2.3-6.98-6.73-11.95-13.77-14.39c-3.29-1.14-6.71-1.63-10.18-1.67
		c-5.24-0.06-10.48-0.02-15.72-0.02c-0.24,0-0.49,0.05-0.76,0.08C449.34,88.08,449.34,108.09,449.34,128.27z"/>
	<path class="st0" d="M548.74,67.87c0,6.85,0,13.54,0,20.25c0.02,0.02,0.05,0.07,0.09,0.1c0.04,0.03,0.09,0.07,0.13,0.07
		c15.3,0,45.88,0,45.88,0l-0.06,16.36c-15.3,0-30.6,0-46.01,0c0,7.87,0,15.65,0,23.57c17.09,0,34.2,0,51.39,0
		c0,5.93,0,11.71,0,17.58c-24.12,0-48.25,0-72.47,0c0-31.81,0-63.59,0-95.45c23.81,0,47.58,0,71.44,0c0,5.78,0,11.56,0,17.52
		C582.38,67.87,565.6,67.87,548.74,67.87z"/>
	<path class="st0" d="M295.89,114.11c6.77,0,13.46,0,20.17,0c0.19,1.49,0.26,2.96,0.58,4.36c1.28,5.59,4.75,9.32,10.04,11.36
		c4.53,1.74,9.23,2.18,14.04,1.71c2.67-0.26,5.28-0.66,7.78-1.7c2.12-0.88,3.91-2.17,5.44-3.88c2.58-2.89,3.12-9.71-1.12-13.04
		c-2.43-1.9-5.1-3.28-8.03-4.15c-3.8-1.13-7.65-2.11-11.48-3.15c-5.34-1.45-10.73-2.73-15.91-4.71c-3.39-1.29-6.6-2.92-9.45-5.18
		c-5.31-4.21-8.4-9.61-8.82-16.48c-0.31-4.95,0.24-9.72,2.56-14.17c2.96-5.68,7.48-9.76,13.16-12.6c4.78-2.39,9.87-3.65,15.18-4.16
		c7.55-0.72,14.96-0.01,22.17,2.28c6.32,2.01,11.74,5.43,15.73,10.88c2.81,3.85,4.46,8.13,4.91,12.87c0.14,1.45,0.24,2.9,0.37,4.45
		c-6.89,0-13.62,0-20.39,0c-0.19-1.18-0.32-2.37-0.59-3.53c-1.16-4.9-4.21-8.12-8.99-9.57c-4.89-1.48-9.88-1.78-14.89-0.63
		c-2.95,0.67-5.47,2.14-7.24,4.64c-2.11,2.98-2.21,6.23-0.89,9.55c0.48,1.22,1.45,2.11,2.57,2.67c1.96,0.97,3.93,1.99,6.02,2.6
		c5.36,1.58,10.78,2.94,16.17,4.41c4.23,1.15,8.54,2.08,12.66,3.53c5.94,2.09,10.9,5.69,14.63,10.89c2.26,3.15,3.51,6.65,3.89,10.45
		c0.56,5.66-0.06,11.18-2.56,16.38c-2.89,6.01-7.55,10.21-13.45,13.11c-5.41,2.66-11.18,4.07-17.18,4.47
		c-2.77,0.18-5.55,0.35-8.32,0.26c-7.54-0.24-14.87-1.57-21.66-5.04c-7.33-3.74-12.61-9.38-15.47-17.18
		C296.42,122.83,295.56,116.91,295.89,114.11z"/>
	<path class="st0" d="M288.85,115.7c-16.78,0-33.33,0-50.09,0c0.14,1.43,0.18,2.78,0.44,4.08c0.3,1.53,0.68,3.07,1.22,4.53
		c1.43,3.86,4.12,6.52,8.03,7.81c4.98,1.65,10,1.78,14.85-0.43c3.36-1.53,6.08-3.85,7.51-7.46c5.55,0,11.09,0,16.71,0
		c-1.94,5.91-4.61,11.29-9.25,15.48c-3.73,3.37-8.15,5.44-13.01,6.58c-7.81,1.83-15.6,1.69-23.23-0.85
		c-10.13-3.38-16.7-10.43-20.14-20.44c-1.91-5.56-2.46-11.31-2.01-17.18c0.46-5.94,2.03-11.53,5.14-16.61
		c5.35-8.76,13.19-13.96,23.25-15.8c6.13-1.12,12.23-0.89,18.15,1.08c8.14,2.72,14.03,8.14,17.92,15.73
		c2.34,4.56,3.7,9.42,4.19,14.52c0.17,1.82,0.24,3.65,0.31,5.48C288.89,113.31,288.85,114.41,288.85,115.7z M269.7,103.68
		c-0.66-3.15-1.53-6.02-3.16-8.64c-1.69-2.71-4.41-4.33-7.15-5.21c-2.16-0.53-4.35-0.66-6.55-0.51c-3.84,0.27-7.21,1.63-9.93,4.43
		c-2.67,2.75-3.75,6.14-4.11,9.93C249.15,103.68,259.35,103.68,269.7,103.68z"/>
	<path class="st0" d="M409.93,50.34c0,31.84,0,63.62,0,95.47c-6.98,0-13.92,0-20.93,0c0-31.84,0-63.62,0-95.47
		C395.99,50.34,402.93,50.34,409.93,50.34z"/>
	<path class="st0" d="M411.57,195.88c0-15.36,0-30.57,0-45.92c0.42,0,0.77,0,1.12,0c6.44,0,12.88-0.03,19.33,0.01
		c4.1,0.03,7.97,1.02,11.43,3.29c4.13,2.71,6.65,6.62,7.86,11.33c1.64,6.38,1.48,12.78-0.89,18.95
		c-2.68,6.98-7.86,11.02-15.29,12.05c-1.39,0.19-2.81,0.27-4.22,0.27c-5.92,0.03-11.84,0.01-17.76,0.01
		C412.64,195.88,412.13,195.88,411.57,195.88z M421.69,187.22c0.16,0.07,0.25,0.15,0.34,0.15c3.19,0,6.39,0.06,9.58-0.03
		c1.67-0.05,3.29-0.5,4.78-1.33c2.63-1.46,4.19-3.77,4.96-6.58c1.26-4.6,1.09-9.23-0.4-13.74c-1.08-3.26-3.38-5.52-6.73-6.48
		c-1.49-0.43-3.07-0.63-4.62-0.71c-2.3-0.12-4.61-0.04-6.91-0.02c-0.34,0-0.68,0.09-1,0.13
		C421.69,168.22,421.69,177.74,421.69,187.22z"/>
	<path class="st0" d="M475.05,197.83c3.12,0,6.09,0,9.02,0c0.07,0.1,0.12,0.13,0.13,0.18c0.61,1.96,1.76,3.43,3.81,4.02
		c2.45,0.71,4.87,0.76,7.13-0.58c2.06-1.23,2.88-3.29,3.09-5.54c0.18-1.92,0.04-3.86,0.04-5.87c-0.73,0.8-1.35,1.62-2.11,2.28
		c-1.75,1.52-3.89,2.28-6.14,2.52c-3.86,0.42-7.5-0.25-10.64-2.74c-1.86-1.47-3.19-3.36-3.95-5.56c-1.93-5.57-2.14-11.19,0.27-16.66
		c3.13-7.1,9.96-9.51,16.59-7.76c2.17,0.57,3.84,1.85,5.17,3.61c0.21,0.28,0.42,0.57,0.81,1.1c0-1.55,0-2.82,0-4.27
		c1.55-0.01,2.99-0.03,4.43-0.03c1.41-0.01,2.81,0,4.31,0c0.03,0.48,0.07,0.88,0.07,1.29c0,9.85,0.02,19.7-0.02,29.54
		c-0.01,1.51-0.16,3.03-0.44,4.51c-0.77,4.11-3.28,6.88-6.96,8.72c-2.09,1.05-4.33,1.53-6.62,1.75c-4.06,0.39-8.05,0.09-11.78-1.76
		C477.71,204.81,475.49,202.05,475.05,197.83z M498.32,178.63c0.02-2.43-0.31-4.68-1.5-6.74c-0.85-1.46-2.04-2.55-3.66-3
		c-4.53-1.26-8.06,0.75-9.36,4.94c-0.97,3.14-0.87,6.3,0.22,9.37c0.96,2.69,2.8,4.55,5.81,4.78c3.2,0.24,5.69-0.99,7.26-3.88
		C498.03,182.36,498.4,180.49,498.32,178.63z"/>
	<path class="st0" d="M562.65,172.78c-3.07,0-5.99,0-9.02,0c0.05-2.64,0.92-4.84,2.65-6.73c1.84-2,4.2-3.13,6.77-3.72
		c4.6-1.05,9.23-1.02,13.81,0.21c1.79,0.48,3.41,1.29,4.75,2.61c1.45,1.43,2.23,3.14,2.24,5.17c0.03,4.45,0,8.9,0.04,13.36
		c0.03,2.77,0.1,5.54,0.25,8.31c0.07,1.24,0.38,2.46,0.62,3.89c-1.41,0-2.89,0-4.38,0c-1.51,0-3.02,0-4.62,0
		c-0.25-1.01-0.49-1.94-0.76-3.02c-1.76,1.53-3.56,2.63-5.69,3.14c-3.19,0.77-6.36,1.03-9.6,0.21c-4.21-1.08-7.12-4.34-7.08-8.77
		c0.01-1.15-0.03-2.33,0.23-3.43c0.83-3.43,3.22-5.39,6.49-6.37c2.91-0.87,5.93-1.19,8.93-1.59c1.39-0.18,2.77-0.48,4.12-0.86
		c1.27-0.36,2.27-1.06,2.32-2.59c0.05-1.73-0.33-3.23-1.99-4.11c-0.46-0.24-0.97-0.5-1.46-0.52c-1.46-0.07-2.96-0.22-4.38,0.01
		c-2.06,0.33-3.53,1.51-3.91,3.73C562.91,172.06,562.77,172.4,562.65,172.78z M574.83,179.87c-1.29,0.37-1.91,0.53-2.91,0.74
		c-1.27,0.26-2.94,0.54-4.2,0.83c-1.31,0.3-2.65,0.62-3.84,1.2c-1.74,0.84-2.38,2.47-2.05,4.65c0.26,1.69,1.34,2.71,2.97,3.01
		c1.22,0.22,2.16,0.3,3.72,0.25c2.91-0.23,5.38-1.66,5.9-5.02C574.7,183.69,574.7,181.81,574.83,179.87z"/>
	<path class="st0" d="M528.29,162.5c1.87,0,3.63,0,5.47,0c0-3.34,0-6.57,0-9.91c3.08,0,6.08,0,9.15,0c0,3.26,0,6.5,0,9.92
		c2.23,0.08,4.4-0.01,6.63,0.06c0,2,0,3.9,0,5.93c-2.16,0-4.29,0-6.51,0c-0.03,0.41-0.08,11.27-0.07,16.4
		c0.01,3.29,0.8,4.07,4.09,4.04c0.78-0.01,1.56-0.1,2.43-0.15c0.32,1.1,0.08,2.3,0.13,3.48c0.04,1.14,0.01,2.29,0.01,3.49
		c-0.35,0.09-0.64,0.21-0.94,0.23c-3.24,0.3-6.48,0.48-9.66-0.39c-3.49-0.95-5.16-3.11-5.19-6.71c-0.05-6.23-0.02-12.47-0.03-18.7
		c0-0.51,0-1.02,0-1.64c-1.89,0-3.65,0-5.51,0C528.29,166.54,528.29,164.64,528.29,162.5z"/>
	<path class="st0" d="M233.83,67.48c0-3.54,0-6.98,0-10.51c14.21,0,28.38,0,42.64,0c0,3.46,0,6.94,0,10.51
		C262.32,67.48,248.15,67.48,233.83,67.48z"/>
	<path class="st0" d="M600.41,195.83c-3.01,0-5.96,0-8.98,0c0-15.27,0-30.48,0-45.78c2.98,0,5.93,0,8.98,0
		C600.41,165.29,600.41,180.53,600.41,195.83z"/>
	<path class="st0" d="M467.69,195.83c-3,0-5.96,0-8.98,0c0-11.08,0-22.1,0-33.2c2.97,0,5.93,0,8.98,0
		C467.69,173.67,467.69,184.72,467.69,195.83z"/>
	<path class="st0" d="M515,195.8c0-11.09,0-22.11,0-33.19c3.02,0,5.98,0,9,0c0,11.06,0,22.08,0,33.19
		C521.05,195.8,518.1,195.8,515,195.8z"/>
	<path class="st0" d="M514.98,157.44c0-2.47,0-4.86,0-7.36c2.97,0,5.96,0,9.02,0c0,2.42,0,4.85,0,7.36
		C521.04,157.44,518.09,157.44,514.98,157.44z"/>
	<path class="st0" d="M467.71,157.49c-3.04,0-5.95,0-8.97,0c0-2.45,0-4.88,0-7.42c2.92,0,5.91,0,8.97,0
		C467.71,152.5,467.71,154.93,467.71,157.49z"/>
</g>
</svg>
