<?xml version="1.0" encoding="UTF-8"?><svg id="Layer_1" xmlns="http://www.w3.org/2000/svg" width="100" height="19" viewBox="0 0 100 19"><defs><style>.cls-1{stroke-width:0px;}</style></defs><path class="cls-1" d="m.4.36h15.66L6.36,15.3h9.7v3.39H0L9.64,3.75H.4V.36Z"/><path class="cls-1" d="m27.9.32c2.79,0,5.11.9,6.95,2.7,1.85,1.8,2.77,4.06,2.77,6.78s-.94,4.84-2.81,6.58-4.23,2.62-7.07,2.62-5.05-.89-6.89-2.66-2.77-3.99-2.77-6.65.93-4.92,2.8-6.7c1.87-1.79,4.22-2.68,7.03-2.68Zm-.2,3.27c-1.74,0-3.17.57-4.28,1.71s-1.67,2.6-1.67,4.37.57,3.19,1.71,4.29c1.14,1.11,2.61,1.66,4.4,1.66s3.24-.56,4.37-1.68c1.13-1.12,1.71-2.56,1.71-4.32s-.59-3.18-1.77-4.32-2.67-1.71-4.46-1.71Z"/><path class="cls-1" d="m50.41.32c2.79,0,5.11.9,6.95,2.7,1.85,1.8,2.77,4.06,2.77,6.78s-.94,4.84-2.81,6.58-4.23,2.62-7.07,2.62-5.05-.89-6.89-2.66-2.77-3.99-2.77-6.65.93-4.92,2.8-6.7c1.87-1.79,4.22-2.68,7.03-2.68Zm-.2,3.27c-1.74,0-3.17.57-4.28,1.71s-1.67,2.6-1.67,4.37.57,3.19,1.71,4.29c1.14,1.11,2.61,1.66,4.4,1.66s3.24-.56,4.37-1.68c1.13-1.12,1.71-2.56,1.71-4.32s-.59-3.18-1.77-4.32c-1.18-1.14-2.67-1.71-4.46-1.71Z"/><path class="cls-1" d="m74.98.36h3.93l-8.1,18.64h-1.23L61.3.36h3.97l4.95,11.28L74.98.36Z"/><path class="cls-1" d="m96.47,9.84h-12.89c.09,1.75.68,3.15,1.76,4.19,1.09,1.04,2.48,1.56,4.2,1.56,2.39,0,4.59-.74,6.62-2.23v3.55c-1.12.74-2.22,1.28-3.32,1.59s-2.38.48-3.86.48c-2.02,0-3.65-.42-4.9-1.25-1.25-.84-2.25-1.97-3-3.38-.75-1.41-1.13-3.05-1.13-4.91,0-2.79.79-5.06,2.37-6.8,1.58-1.75,3.63-2.62,6.16-2.62s4.37.85,5.82,2.55c1.45,1.7,2.17,3.98,2.17,6.83v.46h0Zm-12.81-2.17h9.23c-.09-1.45-.53-2.56-1.3-3.35-.77-.78-1.8-1.18-3.11-1.18s-2.37.39-3.2,1.18c-.83.79-1.38,1.9-1.62,3.35Z"/><path class="cls-1" d="m96.56,2.54V.69h-.7v-.32h1.77v.32h-.71v1.84h-.36Zm1.31,0V.37h.53l.55,1.73.53-1.73h.52v2.16h-.33V.72l-.56,1.82h-.33l-.58-1.84v1.84h-.33Z"/></svg>