<?xml version="1.0" encoding="UTF-8"?><svg id="Layer_1" xmlns="http://www.w3.org/2000/svg" width="100" height="26.31" viewBox="0 0 100 26.31"><defs><style>.cls-1{fill:#231f20;}.cls-1,.cls-2,.cls-3{stroke-width:0px;}.cls-2{fill:#b3d235;}.cls-3{fill:#fff;}</style></defs><path class="cls-2" d="m30.17.04l-25.77-.04C1.46.04.46,1.2,0,3.4v15.59c-.01,1.99,1.16,3.48,3.29,3.56h17.73c2.12,2.29,5.12,3.28,8.47,3.76-1.3-1.22-2.58-2.44-2.42-3.36,0,0,.88-.04,3.63,0,2.75.04,3.39-.77,3.49-2.29V3.94c.07-2.03-.1-3.88-4.03-3.9"/><path class="cls-1" d="m38.14,9.43c0-.5-.02-.97-.05-1.4-.03-.44-.04-.84-.04-1.19h1.73c0,.3,0,.59.02.89.02.3.03.6.03.91h.04c.13-.26.3-.52.53-.77.23-.25.49-.47.81-.67.31-.2.66-.35,1.05-.47.39-.12.81-.18,1.26-.18.59,0,1.08.08,1.48.23.4.14.73.33.99.54.27.21.47.43.62.68.14.24.27.46.36.65.41-.65.88-1.16,1.41-1.53.53-.37,1.22-.55,2.06-.55.78,0,1.44.11,1.97.32.53.21.96.51,1.28.91s.56.88.71,1.45c.14.57.21,1.2.21,1.91v6.65h-1.82v-6.56c0-.37-.04-.74-.12-1.1-.08-.36-.22-.68-.42-.96-.2-.28-.47-.51-.82-.68-.34-.17-.78-.26-1.31-.26-.39,0-.76.08-1.1.23-.34.16-.64.38-.9.65-.26.28-.46.62-.61,1.02-.14.4-.22.84-.22,1.32v6.32h-1.83v-6.2c0-1.22-.16-2.08-.49-2.59-.33-.51-.87-.76-1.62-.76-.59,0-1.1.1-1.53.3-.43.2-.78.49-1.05.87-.28.37-.48.82-.61,1.33-.14.51-.2,1.08-.2,1.71v5.34h-1.83v-8.35h0Z"/><path class="cls-1" d="m66.3,11.33c-.03-.93-.33-1.69-.91-2.25-.57-.56-1.37-.85-2.38-.85s-1.83.28-2.46.85c-.63.56-1,1.31-1.13,2.25h6.88Zm1.57,4.47c-.65.85-1.38,1.43-2.15,1.77-.78.33-1.69.5-2.71.5-.86,0-1.64-.15-2.32-.46-.69-.3-1.27-.71-1.75-1.22-.47-.51-.85-1.12-1.1-1.83-.25-.71-.38-1.45-.38-2.25,0-.85.14-1.62.42-2.33.28-.71.67-1.32,1.17-1.83.5-.51,1.09-.9,1.78-1.18s1.44-.42,2.25-.42c.76,0,1.47.13,2.11.39.64.26,1.19.63,1.65,1.12.46.49.82,1.1,1.06,1.81.25.71.38,1.52.38,2.42v.58h-8.85c.03.47.14.92.34,1.35.2.43.45.8.76,1.12.31.32.68.57,1.1.76.42.18.88.28,1.38.28.79,0,1.47-.14,2.01-.42.55-.28,1.04-.69,1.48-1.24l1.38,1.06h0Z"/><path class="cls-1" d="m80.2,12.31c0-.57-.09-1.11-.27-1.6-.18-.49-.44-.93-.79-1.29-.34-.37-.75-.65-1.23-.87-.47-.21-1.01-.32-1.6-.32s-1.13.11-1.6.32c-.48.21-.89.5-1.23.87-.34.37-.61.79-.79,1.29-.18.49-.27,1.02-.27,1.6s.09,1.11.27,1.6c.18.49.44.93.79,1.29s.75.65,1.23.87c.47.21,1.01.32,1.6.32s1.13-.11,1.6-.32c.48-.21.89-.5,1.23-.87s.6-.79.79-1.29c.18-.49.27-1.02.27-1.6m0,3.54h-.05c-.34.62-.89,1.15-1.62,1.58-.74.43-1.61.65-2.59.65-.76,0-1.48-.14-2.15-.43-.67-.29-1.25-.69-1.75-1.2-.49-.51-.88-1.12-1.16-1.83-.28-.71-.42-1.47-.42-2.29s.14-1.59.42-2.29c.28-.7.67-1.31,1.17-1.83.5-.51,1.11-.91,1.81-1.2.71-.29,1.5-.43,2.35-.43.79,0,1.52.16,2.19.49.66.33,1.24.79,1.74,1.38h.05V.1h1.83v17.7h-1.83v-1.94h0Z"/><path class="cls-1" d="m85.59,6.84h1.83v10.95h-1.83V6.84h0Zm-.42-4.28c0-.36.13-.67.39-.94.26-.26.57-.4.95-.4s.69.14.95.4c.26.27.38.58.38.94,0,.39-.12.71-.37.96-.25.25-.57.38-.96.38s-.71-.12-.96-.38c-.25-.25-.37-.57-.37-.96"/><path class="cls-1" d="m96.19,12.52c-1.17,0-2.1.16-2.78.49-.69.33-1.03.87-1.03,1.62,0,.69.23,1.18.69,1.46.46.29,1.03.43,1.72.43.53,0,.99-.09,1.39-.27.4-.18.73-.42.99-.71s.47-.65.61-1.04c.14-.4.22-.82.24-1.27v-.71h-1.82Zm-5.29-4.28c.56-.57,1.22-1,2-1.27.77-.28,1.56-.41,2.35-.41,1.62,0,2.8.39,3.51,1.15.72.76,1.07,1.92,1.07,3.49v4.7c0,.31.02.64.05.97s.07.65.12.93h-1.76c-.06-.25-.1-.53-.1-.83-.01-.3-.01-.57-.01-.81h-.05c-.36.56-.84,1.02-1.44,1.38s-1.32.54-2.17.54c-.56,0-1.08-.07-1.58-.21-.49-.14-.92-.35-1.29-.62-.37-.28-.65-.61-.88-1.02-.22-.4-.33-.87-.33-1.4,0-.91.24-1.62.71-2.13.47-.51,1.05-.89,1.74-1.14.69-.25,1.44-.4,2.25-.47.81-.06,1.54-.09,2.21-.09h.71v-.33c0-.8-.24-1.4-.71-1.81-.48-.4-1.14-.61-2.01-.61-.59,0-1.17.1-1.74.29-.57.2-1.07.5-1.51.9l-1.14-1.19h0Z"/><path class="cls-3" d="m7.91,9.15h1.78v9.38h-1.78v-9.38h0Zm-.41-3.36c0-.35.13-.66.39-.92.26-.26.56-.39.92-.39s.66.13.92.39c.26.26.39.56.39.92s-.13.67-.39.93c-.26.25-.56.38-.92.38s-.66-.13-.92-.38c-.26-.26-.39-.57-.39-.93"/><path class="cls-3" d="m19.29,16.76c.76,0,1.47-.14,2.11-.42s1.19-.67,1.64-1.17c.46-.49.81-1.07,1.06-1.75.25-.67.38-1.39.38-2.15s-.13-1.44-.39-2.08c-.26-.64-.62-1.21-1.07-1.68-.46-.47-1.01-.85-1.64-1.13-.63-.28-1.33-.41-2.08-.41s-1.42.14-2.05.41c-.63.28-1.17.65-1.64,1.13-.46.47-.83,1.03-1.09,1.67-.27.64-.39,1.33-.39,2.05,0,.76.12,1.48.38,2.15.25.67.6,1.26,1.06,1.76.45.5,1,.9,1.64,1.19.63.28,1.34.43,2.1.43m8.16,1.78h-8.08c-.99,0-1.93-.18-2.81-.53-.89-.35-1.66-.85-2.32-1.48-.66-.63-1.18-1.39-1.56-2.27-.39-.88-.57-1.84-.57-2.88s.18-1.98.55-2.86c.37-.88.88-1.64,1.53-2.29.65-.65,1.42-1.15,2.3-1.52.88-.36,1.83-.54,2.86-.54s1.92.18,2.78.54c.86.35,1.62.85,2.26,1.47.65.63,1.16,1.36,1.54,2.22.38.85.56,1.78.56,2.78,0,.6-.07,1.18-.21,1.75-.14.57-.34,1.11-.61,1.61-.27.51-.61.95-1.01,1.35-.4.4-.86.71-1.38.95v.04h4.16v1.67h0Z"/></svg>