<?xml version="1.0" encoding="utf-8"?>
<!-- Generator: Adobe Illustrator 22.0.1, SVG Export Plug-In . SVG Version: 6.00 Build 0)  -->
<svg version="1.1" id="Layer_1" xmlns="http://www.w3.org/2000/svg" xmlns:xlink="http://www.w3.org/1999/xlink" x="0px" y="0px"
	 viewBox="0 0 612 241.8" style="enable-background:new 0 0 612 241.8;" xml:space="preserve">
<style type="text/css">
	.st0{fill:#FEFEFE;}
	.st1{fill:#1C2426;}
	.st2{fill:#1D2527;}
	.st3{fill:#FD9902;}
	.st4{fill:#FC9904;}
</style>
<g>
	<path class="st0" d="M388.5,88.9c0,1.1,0,2,0,2.9c0,16.4-0.1,32.8,0,49.2c0,5.2,0.4,10.3,1,15.5c1.1,8.9,8.2,16.7,17,18.6
		c10.4,2.2,21,1.3,31.6,1.4c0-7.8,0-15.4,0-23.2c-6.4,0-12.5,0-19,0c0-42.4,0-84.6,0-126.7c-10.4,0-20.4,0-30.7,0
		c0,12.1,0,24,0,36.2c-8.9,0-17.5,0-26.2,0c0,8.8,0,17.5,0,26.2C370.9,88.9,379.5,88.9,388.5,88.9z M59.6,19c-10.1,0-19.8,0-29.5,0
		c0,9.1,0,18,0,27c9.9,0,19.7,0,29.5,0C59.6,36.9,59.6,28,59.6,19z M449.2,23c0,9.1,0,18.1,0,27.1c9.9,0,19.7,0,29.4,0
		c0-9.1,0-18,0-27.1C468.8,23,459.1,23,449.2,23z"/>
	<path class="st1" d="M13.8,62.5c15.2,0,30.3,0,45.8,0c0,12.9,0,25.6,0,38.3c10.4-24.9,29.3-40,58.6-41.3
		c26-1.2,45.2,10.2,58.6,30.8c0-9.2,0-18.2,0-27.5c9.6,0,18.9,0,28.5,0c0,0.9,0.1,1.8,0.1,2.7c0,20.8,0.1,41.6,0.1,62.4
		c0,10.8,9.5,19.7,21.1,19.9c11.8,0.1,21.8-8.5,21.9-19.4c0.2-20.8,0.1-41.6,0.1-62.4c0-1,0-1.9,0-3.1c9.5,0,18.8,0,28.5,0
		c0,28.6,0,57.2,0,85.9c0.9,0,1.5,0.1,2.2,0.1c20.8,0,41.6,0,62.4,0c4.4,0,7.9-1.4,9.7-5.2c2.7-5.5-1.7-11.6-8.3-11.6
		c-8.8-0.1-17.6,0-26.3,0c-20.5,0.1-35.5-13-37.1-32.2c-1.5-17.7,12.5-34.3,31.5-36.6c8.5-1,17.1-0.5,25.7-0.6c3.4,0,6.8,0,10.4,0
		c0,8.8,0,17.4,0,26.2c-5.5,0-10.9,0-16.3,0c-4.4,0-8.8,0-13.2,0c-3.9,0-6.9,1.5-8.6,4.6c-1.8,3.2-1.4,6.5,0.6,9.5
		c1.4,2.1,3.5,2.8,6.1,2.8c8.9,0,17.7,0,26.6,0c18.6,0,33.7,11.3,37.5,28.2c4.4,19.7-11.6,39.7-33.4,40.8
		c-13.6,0.7-27.3,0.3-40.9,0.4c-9.4,0-18.8,0-28.6,0c0,8.5,0,16.8,0,25.2c0,8.2,0,16.5,0,24.8c-9.5,0-18.8,0-28.4,0
		c0-18.3,0-36.6,0-55.5c-14.3,5.6-28.3,6.1-42.3,0.3c-13.9-5.8-22.9-15.7-27.7-29.3c-13.1,23.3-33.5,36.1-62.1,34.4
		c-28.7-1.7-47-16.8-57-41.7c0,7.2,0,13.9,0,20.6c0,15.5,0,30.9-0.2,46.4c-0.1,5.1-0.8,10.1-4.2,14.5c-6.4,8.1-15.5,10.4-26,10.6
		c0-46.9,0-93.6,0-140.8c-5.3,0-10.4,0-15.5,0C13.8,77.3,13.8,69.9,13.8,62.5z M120.7,149.1c19.5-0.1,34.8-14.3,34.6-32.2
		c-0.1-17.3-15.9-31.5-34.8-31.3c-19.1,0.2-34.6,14.6-34.4,32C86.3,134.9,101.9,149.2,120.7,149.1z"/>
	<path class="st1" d="M600.2,224.8c-9.5-0.2-18-2.5-24-10c-3.9-4.8-4.4-10.4-4.5-16c-0.3-9.7-0.1-19.5-0.1-29.2c0-0.8,0-1.7,0-2.7
		c-36.1,20.2-78.5,4.1-92.7-26.7c0,12.5,0,24.5,0,36.5c-9.6,0-18.9,0-28.5,0c0-29.2,0-58.4,0-87.8c-6.2,0-12.2,0-18.3,0
		c0-8.8,0-17.3,0-26.1c15.5,0,30.9,0,46.6,0c0,10.7,0,21.3,0,32c0.2,0,0.3,0.1,0.5,0.1c0.3-0.4,0.6-0.7,0.8-1.1
		c11.6-22.5,35-35.3,61.9-33.9c28.9,1.5,54.2,23.1,57.9,49.5C599.7,109.8,600.2,224.4,600.2,224.8z M571.7,117.9
		c0-17.8-15.2-31.8-34.7-31.9c-18.7,0-34.3,14.2-34.3,31.4c0,17.8,15.3,32.2,34.4,32.1C556.4,149.6,571.7,135.5,571.7,117.9z"/>
	<path class="st2" d="M388.5,88.9c-9,0-17.5,0-26.3,0c0-8.7,0-17.4,0-26.2c8.7,0,17.3,0,26.2,0c0-12.1,0-24,0-36.2
		c10.3,0,20.3,0,30.7,0c0,42.1,0,84.3,0,126.7c6.5,0,12.6,0,19,0c0,7.8,0,15.4,0,23.2c-10.5-0.1-21.1,0.8-31.6-1.4
		c-8.7-1.8-15.9-9.6-17-18.6c-0.6-5.1-1-10.3-1-15.5c-0.1-16.4,0-32.8,0-49.2C388.5,90.9,388.5,90,388.5,88.9z"/>
	<path class="st3" d="M59.6,19c0,9,0,18,0,27c-9.9,0-19.6,0-29.5,0c0-9,0-17.9,0-27C39.8,19,49.5,19,59.6,19z"/>
	<path class="st4" d="M449.2,23c9.9,0,19.6,0,29.4,0c0,9.1,0,18,0,27.1c-9.8,0-19.5,0-29.4,0C449.2,41.1,449.2,32.1,449.2,23z"/>
</g>
</svg>
