<?xml version="1.0" encoding="utf-8"?>
<!-- Generator: Adobe Illustrator 21.1.0, SVG Export Plug-In . SVG Version: 6.00 Build 0)  -->
<svg version="1.1" id="Layer_1" xmlns="http://www.w3.org/2000/svg" xmlns:xlink="http://www.w3.org/1999/xlink" x="0px" y="0px"
	 viewBox="0 0 2500 2500" style="enable-background:new 0 0 2500 2500;" xml:space="preserve">
<style type="text/css">
	.st0{fill:#C9322D;}
</style>
<rect x="400.5" y="494.4" class="st0" width="95.3" height="203.2"/>
<rect x="400.5" y="290.2" class="st0" width="95.3" height="203.2"/>
<path class="st0" d="M1569.7,603.2l-0.2,94.4h185.7v-58.9c0-65.9-10.4-114.2-28.1-144.3h-136.9
	C1574.6,519.6,1569.7,556.9,1569.7,603.2z"/>
<path class="st0" d="M1318.9,494.4h-129.6c11,51.8,14.1,107.1,14.1,164.9c0,12.7-0.2,25.5-0.6,38.3h103.7v-45.8
	C1306.4,593.4,1310.5,541,1318.9,494.4z"/>
<rect x="400.5" y="902.7" class="st0" width="95.3" height="203.2"/>
<polygon class="st0" points="837.1,1927.5 817.2,2090.8 856.9,2090.8 837.8,1927.5 "/>
<rect x="400.5" y="1311" class="st0" width="95.3" height="203.2"/>
<rect x="400.5" y="1106.8" class="st0" width="95.3" height="203.3"/>
<path class="st0" d="M940.1,664.9c0-54.2-4.5-136.5-49.4-162.7c-8.4-3.7-17.9-6.2-28.5-7.8H759.1v203.2h180
	C939.8,686.5,940.1,675.5,940.1,664.9z"/>
<path class="st0" d="M1055.2,1050.1c-91.2,56.1-197.4,39.3-296.2,44.9v11h547.4V902.7h-138
	C1145.8,965.4,1110.1,1018.3,1055.2,1050.1z"/>
<path class="st0" d="M1671.4,457.4c-40.2-0.9-65.4,12-80.6,36.1h135.8C1712.2,469.5,1693.3,457.4,1671.4,457.4z"/>
<path class="st0" d="M1662.4,1422.1c59.7,0,83-51.4,91.9-111.1h-185.9C1571.5,1381,1597.9,1422.1,1662.4,1422.1z"/>
<path class="st0" d="M759.1,842.5c49.4-1.9,106.2,5.6,148.1-35.5c20.9-29,29.2-69.2,31.8-108.4H759.1V842.5z"/>
<path class="st0" d="M1413.8,290.2h-354.1c27,16.1,51.1,37,70.2,64.3c30.1,42.2,48.3,88.9,59,138.9h130
	C1335,405,1366.4,337.6,1413.8,290.2z"/>
<path class="st0" d="M759.1,1514.2h598.8c-26.7-54.7-42.3-122.8-48.4-203.2H759.1V1514.2z"/>
<path class="st0" d="M787.5,491h-28.4v2.5h96.7C835.8,491,812.7,491,787.5,491z"/>
<polygon class="st0" points="1269.5,1927.5 1249.6,2090.8 1289.3,2090.8 1270.2,1927.5 "/>
<path class="st0" d="M1168.7,901.8h137.7V698.5h-103.8C1200.2,768.3,1190.9,839.7,1168.7,901.8z"/>
<path class="st0" d="M1568.4,1310.1h186c4.3-29.7,5.2-61.5,5.2-89.9v-113.3h-191.1l-0.4,190
	C1568.2,1301.4,1568.3,1305.8,1568.4,1310.1z"/>
<path class="st0" d="M759.1,1310.1h550.3c-2-26.2-2.9-53.7-2.9-82.4v-120.8H759.1V1310.1z"/>
<rect x="400.5" y="698.5" class="st0" width="95.3" height="203.2"/>
<g>
	<g>
		<path class="st0" d="M340.6,38.8v2426.5h1818.8h0V38.8H340.6z M399.6,100.6h1702.2v2303.5H399.6v-684.8v-0.9V1311h-5.6v-0.9h5.6"
			/>
	</g>
</g>
<polygon class="st0" points="1165.3,2225.9 1165.3,2225.9 1165.3,2225.9 "/>
<g>
	<path class="st0" d="M2100.7,289.3h0.2V101.5H400.5v187.8h95.3v-50.7h312.6c74.7,0,173.5,6,249.8,50.7h356.5
		c57.6-56.8,138.6-84.4,244.7-84.4c105.6,0,191.3,26.5,252.4,84.4h188.6H2100.7z"/>
	<path class="st0" d="M2100.7,290.2L2100.7,290.2l-187.9,0c48.9,46.7,81.9,113.6,96.7,203.2h91.4V290.2H2100.7z"/>
</g>
<path class="st0" d="M2018.4,697.6l82.5,0V494.4l-91.2,0c5.8,35.2,8.7,73.9,8.7,116.3V697.6z"/>
<g>
	<polygon class="st0" points="1759.6,1093 2022.9,1093 2022.9,1105.9 2100.9,1105.9 2100.9,698.5 2018.4,698.5 2018.4,728.5 
		1755.1,728.5 1755.1,698.5 1569.5,698.5 1569,901.8 2100.7,901.8 2100.7,902.7 1569,902.7 1568.6,1105.9 1759.6,1105.9 	"/>
	<path class="st0" d="M2022.9,1106.8V1265c0,15.3-0.4,30.3-1.4,45.1h79.1v0.9h-79.2c-4.9,77.9-22.7,146.9-55.3,203.2h134.5v0.9h-135
		c-57.9,99.5-162.1,159.3-322.7,159.3c-142.4,0-233.6-55.5-284.7-159.3H759.1v125.7H495.8v0v-125.7h-95.3v203.2h1700.2v0.9H400.5
		v683.9h1700.4V1106.8L2022.9,1106.8z M710.7,2225.9h-65.3l7-285.8h-0.8l-48.2,285.8h-51l-47.1-285.8h-0.8l6.2,285.8h-65v-364.6
		h96.5l35.4,215.4h0.8l36.6-215.4h95.7V2225.9z M873.2,2225.9l-9.7-71h-53.7l-8.2,71h-68.9l63.8-364.6h82.4l63.4,364.6H873.2z
		 M1144.7,2226.4H1098v0l-3.1-32.6h-0.8c-14,31.1-29.6,40.8-59.1,40.8c-57.9,0-76.6-50.1-76.6-116.2v-149.7
		c0-79.2,29.2-116.2,91.8-116.2c58.3,0,92.9,31.1,92.9,105.5v27.2h-68.4v-19.9c0-31.1-3.1-46.7-21.4-47.1
		c-21.4-0.5-26.5,14.1-26.5,37.9v180.3c0,20.4,7.4,32.6,25.3,32.6c23.3,0,24.1-23.3,24.1-46.7v-28.7h-24.5v-65.6h93V2226.4z
		 M1305.6,2225.9l-9.7-71h-53.7l-8.2,71h-68.8l63.8-364.6h82.4l63.4,364.6H1305.6z M1546.7,2225.9h-164.9v-65.1l86.3-226.5h-80.1
		v-72.9h0h154.8v68.1l-84.8,223.6h88.7V2225.9z M1638.8,2225.9h-68.4v-364.6h68.4V2225.9z M1858.1,2225.9h-70l-53.3-204.2l-0.8,1
		l6.2,203.2h-64.9v-364.6h70.4l52.9,203.7h1.2l-6.6-203.7h65V2225.9z M2054.1,2225.9h-161.4v-364.6h156.7v72.9h-88.3v67.1h85.5v72.9
		h-85.5v78.8h92.9V2225.9z"/>
</g>
</svg>
