<?xml version="1.0" encoding="UTF-8"?><svg id="Layer_1" xmlns="http://www.w3.org/2000/svg" width="99.24" height="21.59" viewBox="0 0 99.24 21.59"><defs><style>.cls-1{fill:#3a357e;}.cls-2{fill:#3b3381;}</style></defs><path class="cls-1" d="m28.19,8.3c.76-.6,1.75-.89,2.84-.89.57,0,1.37.12,1.86.25.13.03.2.05.3.04,0,.24.06.9.15,1.55-.05.07-.21.08-.29.02-.16-.71-.64-1.54-2.15-1.54-1.61,0-2.98,1.02-2.98,3.19s1.4,3.42,3.12,3.42c1.36,0,1.95-.88,2.19-1.5.07-.05.23-.03.27.04-.07.55-.35,1.24-.51,1.44-.13.02-.25.06-.37.11-.23.08-.99.24-1.66.24-.94,0-1.85-.19-2.62-.7-.84-.58-1.49-1.54-1.49-2.89,0-1.16.53-2.16,1.33-2.78h0Z"/><path class="cls-1" d="m34.64,8.59c0-.62,0-.68-.33-.87l-.11-.06s-.05-.18,0-.21c.27-.09.75-.24,1.13-.45.04,0,.09.02.11.06,0,.32-.03.84-.03,1.3v2.2c0,.09,0,.18.04.2.38-.3.88-.55,1.42-.55,1,0,1.36.63,1.36,1.36v1.76c0,.75.02.87.4.91l.29.03c.07.05.05.23-.02.26-.38-.02-.68-.03-1.05-.03s-.69,0-.97.03c-.07-.03-.1-.21-.02-.26l.21-.03c.39-.06.4-.16.4-.91v-1.5c0-.67-.33-1.12-1-1.12-.36,0-.64.13-.82.29s-.22.21-.22.58v1.77c0,.75.02.86.4.91l.22.03c.07.04.05.23-.02.26-.32-.02-.63-.03-.99-.03s-.69,0-1.03.03c-.07-.03-.1-.21-.02-.26l.26-.03c.39-.04.4-.16.4-.91v-4.74h.02Z"/><path class="cls-1" d="m41.61,12.33c.16-.05.18-.15.18-.31v-.49c.02-.39-.11-.91-.75-.91-.3,0-.65.15-.67.48,0,.17-.02.3-.1.36-.16.13-.45.2-.6.2-.1,0-.15-.05-.15-.15,0-.55,1.19-1.29,1.95-1.29s1.12.45,1.09,1.23l-.06,1.83c-.02.49.07.91.49.91.11,0,.2-.03.26-.06.05-.03.11-.07.14-.07.04,0,.07.06.07.14,0,.05-.37.46-.88.46-.25,0-.51-.1-.68-.33-.04-.06-.11-.15-.17-.15-.07,0-.2.1-.41.21-.23.13-.47.26-.75.26s-.56-.08-.73-.24c-.2-.18-.33-.44-.33-.73,0-.41.2-.65.87-.89l1.25-.45h0Zm-.64,1.85c.21,0,.54-.16.64-.26.13-.13.13-.27.14-.5l.02-.63c0-.12-.04-.14-.1-.14s-.24.04-.43.11c-.63.21-.92.37-.92.77,0,.18.13.63.66.63h-.02Z"/><path class="cls-1" d="m44.4,11.5c0-.41,0-.46-.29-.65l-.1-.06s-.04-.16,0-.19c.24-.08.84-.36,1.05-.52.04,0,.1.02.12.07-.02.24-.02.4-.02.5,0,.06.04.12.12.12.45-.28.93-.54,1.47-.54.87,0,1.23.6,1.23,1.3v1.81c0,.75.02.86.4.91l.23.03c.07.05.05.23-.02.26-.32-.02-.63-.03-.99-.03s-.69,0-.97.03c-.07-.03-.1-.21-.02-.26l.2-.03c.39-.06.4-.16.4-.91v-1.57c0-.6-.28-1.04-.99-1.04-.4,0-.74.17-.89.37-.14.18-.16.33-.16.63v1.61c0,.75.02.85.4.91l.19.03c.07.05.05.23-.02.26-.29-.02-.59-.03-.95-.03s-.69,0-.99.03c-.07-.03-.1-.21-.02-.26l.22-.03c.39-.05.4-.16.4-.91v-1.84h.02Z"/><path class="cls-1" d="m49.91,11.5c0-.41,0-.46-.29-.65l-.1-.06s-.04-.16,0-.19c.24-.08.84-.36,1.05-.52.04,0,.1.02.12.07-.02.24-.02.4-.02.5,0,.06.04.12.12.12.45-.28.93-.54,1.47-.54.87,0,1.23.6,1.23,1.3v1.81c0,.75.02.86.4.91l.23.03c.07.05.05.23-.02.26-.32-.02-.63-.03-.99-.03s-.69,0-.97.03c-.07-.03-.1-.21-.02-.26l.2-.03c.39-.06.4-.16.4-.91v-1.57c0-.6-.28-1.04-.99-1.04-.4,0-.74.17-.89.37-.14.18-.16.33-.16.63v1.61c0,.75.02.85.4.91l.19.03c.07.05.05.23-.02.26-.29-.02-.59-.03-.95-.03s-.69,0-.99.03c-.07-.03-.1-.21-.02-.26l.22-.03c.39-.05.4-.16.4-.91v-1.84h.02Z"/><path class="cls-1" d="m55.76,11.83c-.28,0-.29.02-.29.29,0,1.06.63,1.96,1.75,1.96.35,0,.64-.11.96-.52.11-.03.18.03.19.13-.35.71-1.1.97-1.65.97-.68,0-1.22-.3-1.53-.69-.32-.41-.44-.9-.44-1.37,0-1.29.85-2.37,2.11-2.37.9,0,1.49.63,1.49,1.25,0,.15-.02.23-.04.27-.03.06-.18.07-.63.07h-1.94,0Zm.65-.32c.77,0,1.01-.04,1.09-.11.03-.02.06-.06.06-.2,0-.3-.2-.66-.81-.66s-1.15.57-1.17.91c0,.02,0,.05.07.05h.76Z"/><path class="cls-1" d="m60.26,13.34c0,.75.02.86.4.91l.25.03c.07.05.05.23-.02.26-.35-.02-.65-.03-1.02-.03s-.69,0-1.01.03c-.07-.03-.1-.21-.02-.26l.24-.03c.39-.05.4-.16.4-.91v-4.74c0-.62,0-.68-.33-.87l-.11-.06s-.05-.18,0-.21c.26-.09.75-.24,1.13-.45.04,0,.09.02.11.06,0,.32-.03.84-.03,1.3v4.97h.02Z"/><path class="cls-1" d="m64.67,8.69c-.24-.59-.4-.8-.85-.86l-.19-.02c-.07-.06-.06-.21.02-.26.31.02.64.03,1.09.03s.83,0,1.27-.03c.07.04.1.2.02.26l-.16.02c-.4.05-.49.12-.5.2.02.11.2.67.53,1.47.49,1.22.96,2.42,1.49,3.62.33-.69.76-1.78,1.01-2.33.31-.71.8-1.9.97-2.35.08-.22.1-.34.1-.41s-.11-.16-.48-.2l-.19-.02c-.07-.06-.05-.22.02-.26.3.02.69.03,1.09.03.35,0,.67,0,1.02-.03.07.04.07.21.02.26l-.32.02c-.25.02-.41.15-.55.37-.3.5-.7,1.35-1.18,2.41l-.57,1.29c-.42.96-.91,2.18-1.09,2.74-.03.02-.07.03-.12.03s-.11,0-.16-.03c-.12-.45-.31-.95-.49-1.4l-1.85-4.55h.02Z"/><path class="cls-1" d="m77.44,11.71c.24.5.48.97.72,1.44h.02c.29-.5.55-1.04.81-1.58l.99-2c.48-.95.77-1.54.8-2.01.36.03.58.03.78.03.26,0,.61,0,.93-.03.06.04.06.22,0,.26l-.22.02c-.66.06-.74.26-.73,1,.02,1.11.03,3.06.12,4.56.03.53.02.81.52.85l.34.03c.06.06.05.22-.02.26-.43-.02-.86-.03-1.24-.03s-.84,0-1.27.03c-.07-.05-.08-.2-.02-.26l.31-.03c.52-.05.52-.22.52-.89l-.03-4.38h-.02c-.07.12-.48.95-.68,1.37l-.93,1.84c-.48.92-.94,1.91-1.13,2.39-.02.03-.06.04-.11.04-.02,0-.07,0-.1-.04-.18-.56-.68-1.59-.92-2.1l-.94-2.02c-.22-.49-.44-1.03-.67-1.51h-.02c-.04.65-.07,1.26-.1,1.87-.03.64-.07,1.58-.07,2.47,0,.77.06.94.48.97l.4.03c.07.06.06.23,0,.26-.36-.02-.76-.03-1.17-.03-.34,0-.71,0-1.07.03-.06-.05-.09-.21-.02-.26l.23-.03c.45-.06.59-.13.65-.86.06-.69.12-1.27.18-2.31.05-.87.1-1.77.12-2.34.02-.66-.06-.82-.7-.9l-.17-.02c-.05-.06-.04-.22.04-.26.32.02.57.03.83.03.24,0,.53,0,.87-.03-.04.41.22,1.06.55,1.74l1.2,2.42h-.04Z"/><path class="cls-1" d="m84.05,11.83c-.27,0-.29.02-.29.29,0,1.06.63,1.96,1.75,1.96.35,0,.64-.11.96-.52.11-.03.18.03.19.13-.35.71-1.1.97-1.65.97-.68,0-1.22-.3-1.53-.69-.32-.41-.44-.9-.44-1.37,0-1.29.85-2.37,2.11-2.37.9,0,1.49.63,1.49,1.25,0,.15-.02.23-.04.27-.03.06-.18.07-.63.07h-1.94,0Zm.65-.32c.77,0,1.01-.04,1.09-.11.03-.02.06-.06.06-.2,0-.3-.2-.66-.81-.66s-1.15.57-1.17.91c0,.02,0,.05.07.05h.76Z"/><path class="cls-1" d="m91.29,12.98c0,.83,0,1.22.31,1.22.12,0,.3-.05.46-.11.07.02.08.28,0,.34-.44.06-1.09.22-1.39.34-.06,0-.12-.03-.12-.09v-.18c0-.16,0-.29-.02-.33h-.04c-.47.32-.82.49-1.32.49-1.17,0-1.94-.91-1.94-2.01,0-1.47,1.11-2.41,2.54-2.41.36,0,.59.05.7.1.05,0,.06-.06.06-.15v-1.59c0-.62,0-.68-.33-.87l-.1-.06s-.05-.18,0-.21c.26-.09.75-.24,1.13-.45.04,0,.08.02.1.06,0,.32-.03.84-.03,1.3v4.61h0Zm-.77-1.58c0-.21-.04-.31-.12-.41-.16-.22-.48-.45-.88-.45-.95,0-1.45.83-1.45,1.75s.54,1.86,1.57,1.86c.29,0,.64-.13.81-.3.06-.06.07-.22.07-.39v-2.06Z"/><path class="cls-1" d="m93.22,11.5c0-.41,0-.46-.29-.65l-.1-.06s-.04-.16,0-.19c.24-.08.84-.36,1.08-.52.05,0,.1.02.11.06-.02.37-.04.87-.04,1.3v1.9c0,.75.02.86.4.91l.22.03c.07.05.05.23-.02.26-.32-.02-.63-.03-.99-.03s-.69,0-.99.03c-.07-.03-.1-.21-.02-.26l.22-.03c.39-.05.4-.16.4-.91v-1.84h.02Zm.87-3c0,.38-.26.55-.56.55-.33,0-.54-.24-.54-.53,0-.35.25-.57.57-.57s.53.25.53.55Z"/><path class="cls-1" d="m97.38,12.33c.16-.05.18-.15.18-.31v-.49c.02-.39-.11-.91-.75-.91-.3,0-.65.15-.67.48,0,.17-.02.3-.1.36-.16.13-.45.2-.6.2-.1,0-.15-.05-.15-.15,0-.55,1.19-1.29,1.95-1.29s1.12.45,1.09,1.23l-.06,1.83c-.02.49.07.91.49.91.11,0,.2-.03.27-.06.05-.03.1-.07.14-.07s.07.06.07.14c0,.05-.37.46-.88.46-.25,0-.51-.1-.68-.33-.04-.06-.11-.15-.17-.15-.07,0-.2.1-.41.21-.23.13-.47.26-.75.26s-.56-.08-.73-.24c-.2-.18-.33-.44-.33-.73,0-.41.2-.65.87-.89l1.25-.45h-.02Zm-.65,1.85c.21,0,.54-.16.64-.26.13-.13.13-.27.14-.5l.02-.63c0-.12-.04-.14-.1-.14s-.24.04-.43.11c-.63.21-.92.37-.92.77,0,.18.13.63.65.63h0Z"/><path class="cls-2" d="m1.13,5.99c-.72,1.45-1.13,3.09-1.13,4.81,0,5.15,3.61,9.47,8.44,10.54,0,0,.22-4.98-.35-9.02-.19-1.32-.65-4.3-2.41-6.1s-4.19-1.09-4.55-.23Z"/><path class="cls-2" d="m10.8,0C7.13,0,3.89,1.83,1.93,4.62c.26-.17,1.67-1.18,3.8-.52,5.02,1.57,4.81,11.85,4.87,14.31l4.71-7.48c.47-.72.77-1.27.93-1.65.16-.37.24-.68.24-.94s-.09-.48-.28-.61c-.03-.02-.06-.04-.1-.06-.25-.13-.59-.23-1-.3l-.94-.17.09-.37h6.01l-.09.37-.43.09c-.4.09-.77.23-1.13.44-.26.15-.51.33-.73.55-.55.51-1.27,1.47-2.16,2.88l-4.7,7.39-1.76,2.93c.51.07,1.02.11,1.55.11,5.96,0,10.8-4.83,10.8-10.8S16.77,0,10.8,0Z"/></svg>