<?xml version="1.0" encoding="utf-8"?>
<!-- Generator: Adobe Illustrator 22.0.1, SVG Export Plug-In . SVG Version: 6.00 Build 0)  -->
<svg version="1.1" id="Layer_2" xmlns="http://www.w3.org/2000/svg" xmlns:xlink="http://www.w3.org/1999/xlink" x="0px" y="0px"
	 viewBox="0 0 64.52 52.78" style="enable-background:new 0 0 64.52 52.78;" xml:space="preserve">
<style type="text/css">
	.st0{fill:#EE252F;}
</style>
<g>
	<path class="st0" d="M30.19,52.27"/>
	<path class="st0" d="M34.03,52.28"/>
	<polygon class="st0" points="34.03,52.28 34.8,50.95 29.43,50.95 30.19,52.27 	"/>
	<polygon class="st0" points="38.07,45.33 26.2,45.33 26.96,46.65 37.3,46.66 	"/>
	<polygon class="st0" points="41.31,39.75 22.99,39.74 23.75,41.07 40.54,41.08 	"/>
	<polygon class="st0" points="44.58,34.13 19.75,34.12 20.52,35.45 43.81,35.46 	"/>
	<polygon class="st0" points="47.77,28.63 16.59,28.61 17.35,29.94 47,29.95 	"/>
	<polygon class="st0" points="51.07,22.95 13.32,22.93 14.09,24.26 50.3,24.28 	"/>
	<polygon class="st0" points="54.31,17.37 10.11,17.35 10.88,18.68 53.54,18.7 	"/>
	<polygon class="st0" points="57.58,11.75 6.88,11.73 7.64,13.05 56.81,13.08 	"/>
	<polygon class="st0" points="60.83,6.16 3.66,6.13 4.42,7.45 60.06,7.48 	"/>
	<polygon class="st0" points="64.09,0.54 0.43,0.5 1.19,1.83 63.32,1.86 	"/>
</g>
</svg>
