<?xml version="1.0" encoding="utf-8"?>
<!-- Generator: Adobe Illustrator 22.0.1, SVG Export Plug-In . SVG Version: 6.00 Build 0)  -->
<svg version="1.1" id="Layer_1" xmlns="http://www.w3.org/2000/svg" xmlns:xlink="http://www.w3.org/1999/xlink" x="0px" y="0px"
	 viewBox="0 0 497 297" style="enable-background:new 0 0 497 297;" xml:space="preserve">
<style type="text/css">
	.st0{fill:#E6E7E8;}
</style>
<g>
	<path class="st0" d="M487.52,11.96 M438.44,50.12l24.6,2.16l23.16-39.24L438.44,50.12z M438.2,50.84l19.68,58.08l4.92-56.16
		l-24.72-2.16L438.2,50.84z M405.32,93.44l52.32,16.44L437.6,50.96L405.32,93.44z M392.48,101.24l2.88,40.68l2.64-13.8l6.36-33.96
		L392.48,101.24z M400.76,116.36l-5.16,27.24l61.8-33.24l-52.44-16.32L400.76,116.36z M458,110.6l-61.56,33.24l85.8-4.32L458,110.6z
		 M379.16,156.44l26.64,35.28L395,144.68L379.16,156.44z M404,181.16l2.52,11.4l75.36-52.44l-86.28,4.32L404,181.16z M378.32,157.88
		l-30,60.24l57.6-25.2l-27.12-36L378.32,157.88z M378.08,157.04l-81,41.76l50.4,19.56L378.08,157.04z M151.28,223.64l5.76,2.04
		l23.64-14.4L151.28,223.64z M150.44,224l-8.52,3.36l13.8-1.56L150.44,224z M382.76,203.72l-34.56,15l20.04,18.48l37.08-43.44
		L382.76,203.72z M157.64,225.92l25.32,13.8l0.96-29.64L157.64,225.92z M273.2,198.68l53.28,49.2l-30.24-48.84L273.2,198.68z
		 M297.08,199.4l30.72,49.56l19.44-30.12l-8.64-3.36L297.08,199.4z M347.72,219.08l-19.2,29.88l39.12-11.52l-2.04-1.8L347.72,219.08
		z M184.4,210.8l-0.96,29.28l23.04,18.36L184.4,210.8z M271.52,198.8l-86.88,10.92l22.68,49.2L271.52,198.8z M194.84,257.24
		l0.6,0.84l10.8,0.96l-21.72-17.4L194.84,257.24z M140.24,228.08l14.64,39.12l1.92-40.92L140.24,228.08z M157.28,226.4l-1.92,41.4
		l27.36-27.48L157.28,226.4z M183.2,240.68l-27.24,27.36l38.88-9.84l-4.92-7.32L183.2,240.68z M132.68,244.64l-15.84,35.52
		l37.8-11.76l-14.88-39.72L132.68,244.64z M11.12,206.72l105.12,73.44l23.16-52.08L11.12,206.72z M116.12,280.52 M273.08,199.4
		l27.72,86.4l26.64-36.24L273.08,199.4z M207.8,259.28l92.4,26.76l-9.6-30.12l-18.36-57L207.8,259.28z M300.68,286.76h-0.12
		l-93.48-27l-11.76-1.08l-40.2,10.2l-38.64,12c-0.12,0-0.12,0-0.12,0h-0.12L9.8,206.48c-0.12,0-0.12-0.12-0.12-0.24v-0.12
		C9.68,206,9.8,206,9.92,206l0,0l129.84,21.6l10.56-4.2l33.72-14.16c0,0,0,0,0.12,0l0,0l88.2-11.16c0,0,0,0,0.12,0l0,0l23.76,0.48
		l82.32-42.48L395,143.96l-3.12-42.84c0-0.12,0-0.24,0.12-0.24l12.6-7.44l32.88-43.32l49.56-38.52c0.12,0,0.12,0,0.24,0l0,0h0.12
		c0.12,0.12,0.12,0.24,0.12,0.24c0,0.12,0,0.12,0,0.12L463.4,52.64l-5.04,57.6l24.72,29.4c0.12,0.12,0.12,0.12,0.12,0.12l0,0
		c0,0,0,0,0,0.12l0,0c0,0,0,0.12-0.12,0.12l0,0c0,0,0,0,0,0.12l-76.56,53.16l-38.04,44.52c0,0-0.12,0-0.12,0.12l-40.32,11.76
		l-27.12,36.96c-0.12,0-0.12,0-0.12,0l0,0C300.8,286.76,300.68,286.76,300.68,286.76z"/>
</g>
</svg>
