<?xml version="1.0" encoding="utf-8"?>
<!-- Generator: Adobe Illustrator 22.0.1, SVG Export Plug-In . SVG Version: 6.00 Build 0)  -->
<svg version="1.1" id="Layer_1" xmlns="http://www.w3.org/2000/svg" xmlns:xlink="http://www.w3.org/1999/xlink" x="0px" y="0px"
	 viewBox="0 0 378.33 112" style="enable-background:new 0 0 378.33 112;" xml:space="preserve">
<style type="text/css">
	.st0{clip-path:url(#SVGID_2_);fill:url(#SVGID_3_);}
	.st1{clip-path:url(#SVGID_5_);fill:url(#SVGID_6_);}
	.st2{fill:#CE2030;}
	.st3{fill:#9A9C9D;}
</style>
<g>
	<g>
		<defs>
			<path id="SVGID_1_" d="M63.47,3.79V64.5h18.17V20.93h12.57c3.41,0,5.92,1.13,5.92,3.88c0,1.42-0.81,2.6-2.21,4l2.68,19.42
				c4.97-3.98,6.4-5.54,9.38-8.53c6.54-6.54,7.04-12.36,7.04-15.27c0-8.17-5.04-20.64-25.86-20.64C79.82,3.79,63.57,3.79,63.47,3.79
				L63.47,3.79z"/>
		</defs>
		<clipPath id="SVGID_2_">
			<use xlink:href="#SVGID_1_"  style="overflow:visible;"/>
		</clipPath>
		
			<linearGradient id="SVGID_3_" gradientUnits="userSpaceOnUse" x1="-193.1723" y1="373.2336" x2="-192.0965" y2="373.2336" gradientTransform="matrix(-4.3927 9.9833 -9.9833 -4.3927 2972.8684 3590.6201)">
			<stop  offset="0" style="stop-color:#CE2030"/>
			<stop  offset="0.0101" style="stop-color:#CE2030"/>
			<stop  offset="0.1798" style="stop-color:#C4202E"/>
			<stop  offset="0.4741" style="stop-color:#AA1D27"/>
			<stop  offset="0.8554" style="stop-color:#82161A"/>
			<stop  offset="0.9061" style="stop-color:#7C1518"/>
			<stop  offset="0.9705" style="stop-color:#7C1518"/>
			<stop  offset="1" style="stop-color:#7C1518"/>
		</linearGradient>
		<polygon class="st0" points="72.16,-15.95 41.09,54.65 108.34,84.24 139.4,13.64 		"/>
	</g>
	<g>
		<defs>
			<path id="SVGID_4_" d="M114.19,60.31c-0.74-0.73-0.74-1.92,0-2.66c0.73-0.73,1.92-0.73,2.66,0c0.73,0.73,0.73,1.92,0,2.66
				c-0.37,0.37-0.85,0.55-1.33,0.55C115.03,60.87,114.55,60.68,114.19,60.31 M85.81,40.92c-0.93,0.93-0.43,1.96,0.45,2.84
				c0.53,0.53,20.62,20.74,20.62,20.74h10.49l3.6-3.62l0.06-10.25c0,0-20.52-20.52-21.3-21.3c-0.93-0.93-0.67-1.51-0.39-2.13
				C99.08,27.52,86.62,40.11,85.81,40.92"/>
		</defs>
		<clipPath id="SVGID_5_">
			<use xlink:href="#SVGID_4_"  style="overflow:visible;"/>
		</clipPath>
		
			<linearGradient id="SVGID_6_" gradientUnits="userSpaceOnUse" x1="-201.0022" y1="359.2044" x2="-199.9264" y2="359.2044" gradientTransform="matrix(-25.4135 -26.3164 26.3164 -25.4135 -14441.9229 3901.679)">
			<stop  offset="0" style="stop-color:#DD3735"/>
			<stop  offset="0.9061" style="stop-color:#CE2030"/>
			<stop  offset="1" style="stop-color:#CE2030"/>
		</linearGradient>
		<polygon class="st1" points="139.67,46.5 103.58,9.13 66.24,45.2 102.32,82.56 		"/>
	</g>
	<polygon class="st2" points="63.47,3.79 63.47,64.5 81.65,64.5 81.65,20.93 94.07,20.88 	"/>
	<path class="st3" d="M39.55,3.69v30.4c-9.76-16.46-17.63-28.73-17.8-29c-0.33-0.52-0.69-1.4-1.52-1.4H4.42
		c-1.12,0-1.23,0.83-1.23,1.44v58.77h16.83l0.04-29.44l18.75,28.49c0,0,0.57,0.95,1.42,0.95c0.76,0-0.3,0,1.15,0
		c0.59,0,1.22,0,1.88,0c5.25,0.01,11.64,0.02,12.19,0.02c-0.04,0-0.08-0.01-0.12-0.02c0.48-0.03,1.07-0.46,1.07-1.45V3.69H39.55z"/>
	<path class="st3" d="M171.14,20.4V3.48c0,0-15.68-0.08-28.44-0.01l0-0.01h-16.38c-1.12,0-1.23,0.83-1.23,1.44v1.51v57.25v0.02
		h16.47V45.78h19.06V29.42h-19.06V20.4H171.14z"/>
	<path class="st3" d="M175.99,3.44c-1.87,0-3.38,1.51-3.38,3.38c0,1.87,1.51,3.38,3.38,3.38c1.87,0,3.38-1.51,3.38-3.38
		C179.38,4.95,177.86,3.44,175.99,3.44 M175.99,9.64c-1.56,0-2.82-1.26-2.82-2.82c0-1.56,1.26-2.82,2.82-2.82
		c1.56,0,2.82,1.26,2.82,2.82C178.81,8.38,177.55,9.64,175.99,9.64"/>
	<path class="st3" d="M177.56,8.67c-0.01-0.01-0.06-0.1-0.12-0.19c-0.06-0.09-0.17-0.27-0.25-0.4c-0.22-0.35-0.35-0.54-0.48-0.69
		c-0.14-0.16-0.2-0.21-0.35-0.28l-0.08-0.04l0.04-0.01c0.32-0.04,0.53-0.14,0.72-0.34c0.18-0.19,0.27-0.42,0.27-0.68
		c0-0.15-0.02-0.26-0.09-0.4c-0.05-0.11-0.11-0.19-0.19-0.27c-0.17-0.16-0.35-0.25-0.66-0.28c-0.2-0.02-0.26-0.03-1.06-0.03l-0.8,0
		v1.82v1.82h0.29h0.29V7.92V7.14h0.22c0.29,0,0.4,0.02,0.51,0.07c0.13,0.06,0.27,0.21,0.44,0.47c0.11,0.16,0.15,0.23,0.4,0.68
		c0.02,0.04,0.05,0.08,0.06,0.11c0.02,0.02,0.05,0.08,0.07,0.13l0.05,0.09h0.36h0.36L177.56,8.67z M176.1,6.63
		c-0.07,0.01-0.18,0.01-0.54,0.01l-0.46,0V6.1V5.55l0.48,0c0.39,0,0.5,0.01,0.57,0.02c0.12,0.02,0.19,0.03,0.27,0.08
		c0.14,0.07,0.22,0.18,0.26,0.33c0.01,0.05,0.02,0.07,0.01,0.14c-0.01,0.15-0.05,0.24-0.15,0.35c-0.05,0.04-0.07,0.06-0.11,0.08
		C176.34,6.59,176.26,6.61,176.1,6.63"/>
	<rect x="194.81" y="3.79" class="st3" width="0.78" height="60.14"/>
	<g>
		<path class="st2" d="M252.13,63.69h-39.4v-5.86l15.79-15.87c4.81-4.87,7.98-8.34,9.51-10.41c1.53-2.08,2.68-4.1,3.44-6.07
			s1.15-4.09,1.15-6.36c0-3.2-0.97-5.73-2.91-7.61c-1.94-1.87-4.63-2.81-8.08-2.81c-2.49,0-4.85,0.41-7.07,1.23
			c-2.23,0.82-4.71,2.31-7.44,4.47l-3.61-4.63c5.52-4.59,11.54-6.89,18.04-6.89c5.63,0,10.04,1.44,13.24,4.33
			c3.2,2.88,4.8,6.76,4.8,11.62c0,3.8-1.07,7.56-3.2,11.28c-2.13,3.72-6.12,8.42-11.97,14.1L221.3,57.05v0.33h30.83V63.69z"/>
		<path class="st2" d="M297.2,33.64c0,10.36-1.63,18.1-4.9,23.21c-3.27,5.11-8.26,7.67-14.99,7.67c-6.45,0-11.36-2.62-14.72-7.85
			c-3.36-5.23-5.04-12.91-5.04-23.02c0-10.44,1.63-18.19,4.88-23.25s8.21-7.59,14.88-7.59c6.51,0,11.45,2.64,14.82,7.91
			C295.51,15.99,297.2,23.63,297.2,33.64z M264.44,33.64c0,8.72,1.03,15.07,3.08,19.05c2.05,3.98,5.32,5.97,9.8,5.97
			c4.54,0,7.82-2.02,9.86-6.05c2.04-4.03,3.05-10.35,3.05-18.96c0-8.61-1.02-14.92-3.05-18.92c-2.04-4-5.32-6.01-9.86-6.01
			c-4.48,0-7.75,1.98-9.8,5.92C265.47,18.58,264.44,24.92,264.44,33.64z"/>
	</g>
	<g>
		<path class="st2" d="M323.93,63.69h-6.64V20.97c0-3.55,0.11-6.92,0.33-10.09c-0.57,0.57-1.22,1.18-1.93,1.8
			c-0.71,0.63-3.96,3.29-9.76,8l-3.61-4.67l15.87-12.26h5.74V63.69z"/>
		<path class="st2" d="M354.91,2.89c5.47,0,9.8,1.27,13,3.81s4.8,6.06,4.8,10.54c0,2.95-0.92,5.65-2.75,8.08
			c-1.83,2.43-4.76,4.65-8.77,6.64c4.87,2.32,8.32,4.76,10.37,7.32c2.05,2.56,3.08,5.51,3.08,8.88c0,4.98-1.74,8.95-5.21,11.91
			c-3.47,2.97-8.23,4.45-14.27,4.45c-6.4,0-11.32-1.4-14.76-4.2c-3.44-2.8-5.17-6.77-5.17-11.91c0-6.86,4.18-12.2,12.55-16.03
			c-3.77-2.13-6.48-4.43-8.12-6.91c-1.64-2.47-2.46-5.24-2.46-8.3c0-4.35,1.61-7.81,4.82-10.39S349.52,2.89,354.91,2.89z
			 M341.95,48.56c0,3.28,1.14,5.84,3.42,7.67c2.28,1.83,5.49,2.75,9.62,2.75c4.07,0,7.24-0.96,9.51-2.87
			c2.27-1.91,3.4-4.54,3.4-7.87c0-2.65-1.07-5.01-3.2-7.07s-5.85-4.07-11.15-6.01c-4.07,1.75-7.03,3.68-8.86,5.8
			C342.86,43.08,341.95,45.61,341.95,48.56z M354.82,8.42c-3.42,0-6.1,0.82-8.04,2.46c-1.94,1.64-2.91,3.83-2.91,6.56
			c0,2.52,0.81,4.67,2.42,6.48c1.61,1.8,4.59,3.61,8.94,5.41c3.91-1.64,6.68-3.4,8.3-5.29s2.44-4.09,2.44-6.6
			c0-2.76-0.99-4.95-2.97-6.58C361.02,9.23,358.3,8.42,354.82,8.42z"/>
	</g>
	<g>
		<path class="st3" d="M5.51,101.7v7.62H3.38V91h5.02c2.25,0,3.91,0.43,4.98,1.29c1.07,0.86,1.61,2.16,1.61,3.88
			c0,2.42-1.23,4.06-3.68,4.91l4.97,8.23h-2.52l-4.44-7.62H5.51z M5.51,99.87h2.92c1.5,0,2.61-0.3,3.31-0.9
			c0.7-0.6,1.05-1.49,1.05-2.69c0-1.21-0.36-2.08-1.07-2.62c-0.71-0.53-1.86-0.8-3.44-0.8H5.51V99.87z"/>
		<path class="st3" d="M38.31,109.31H28.1V91h10.21v1.89h-8.08v5.9h7.59v1.88h-7.59v6.74h8.08V109.31z"/>
		<path class="st3" d="M56.86,109.31h-2.13V92.89h-5.8V91h13.73v1.89h-5.8V109.31z"/>
		<path class="st3" d="M85.8,109.31l-2.28-5.83h-7.34l-2.26,5.83h-2.15l7.24-18.39h1.79l7.2,18.39H85.8z M82.86,101.57l-2.13-5.68
			c-0.28-0.72-0.56-1.6-0.85-2.64c-0.18,0.8-0.45,1.68-0.79,2.64l-2.16,5.68H82.86z"/>
		<path class="st3" d="M99.38,109.31V91h2.13v18.32H99.38z"/>
		<path class="st3" d="M115.41,109.31V91h2.13v16.39h8.08v1.93H115.41z"/>
		<path class="st3" d="M138.96,91l0.19,0.28c-0.22,0.83-0.53,1.81-0.94,2.91c-0.41,1.11-0.84,2.14-1.28,3.09h-1.53
			c0.58-2.38,1.01-4.47,1.28-6.28H138.96z"/>
		<path class="st3" d="M161.16,104.44c0,1.61-0.58,2.87-1.75,3.77s-2.76,1.35-4.76,1.35c-2.17,0-3.84-0.28-5.01-0.84v-2.05
			c0.75,0.32,1.57,0.57,2.46,0.75s1.76,0.28,2.63,0.28c1.42,0,2.49-0.27,3.21-0.81c0.72-0.54,1.08-1.29,1.08-2.25
			c0-0.63-0.13-1.16-0.38-1.56c-0.25-0.4-0.68-0.78-1.28-1.12c-0.6-0.34-1.51-0.73-2.73-1.17c-1.7-0.61-2.92-1.33-3.65-2.17
			c-0.73-0.84-1.1-1.93-1.1-3.27c0-1.41,0.53-2.54,1.59-3.37c1.06-0.83,2.46-1.25,4.21-1.25c1.82,0,3.5,0.33,5.02,1l-0.66,1.85
			c-1.51-0.63-2.98-0.95-4.41-0.95c-1.13,0-2.01,0.24-2.64,0.73c-0.64,0.48-0.95,1.16-0.95,2.02c0,0.63,0.12,1.15,0.35,1.56
			s0.63,0.78,1.18,1.12c0.56,0.34,1.41,0.71,2.55,1.12c1.92,0.69,3.24,1.42,3.97,2.21S161.16,103.19,161.16,104.44z"/>
		<path class="st3" d="M189.3,91h5.17c2.43,0,4.19,0.36,5.27,1.09s1.63,1.88,1.63,3.45c0,1.09-0.3,1.98-0.91,2.69
			s-1.49,1.16-2.65,1.37v0.13c2.78,0.48,4.17,1.94,4.17,4.38c0,1.64-0.55,2.92-1.66,3.83c-1.11,0.92-2.65,1.38-4.64,1.38h-6.39V91z
			 M191.43,98.84h3.51c1.5,0,2.58-0.24,3.25-0.71c0.66-0.47,0.99-1.27,0.99-2.39c0-1.03-0.37-1.77-1.1-2.22s-1.9-0.68-3.51-0.68
			h-3.13V98.84z M191.43,100.64v6.85h3.82c1.48,0,2.59-0.29,3.34-0.86c0.75-0.57,1.12-1.47,1.12-2.69c0-1.14-0.38-1.97-1.15-2.51
			c-0.76-0.53-1.93-0.8-3.49-0.8H191.43z"/>
		<path class="st3" d="M214.77,109.31V91h2.13v18.32H214.77z"/>
		<path class="st3" d="M238.86,99.72h6.23v8.91c-0.97,0.31-1.95,0.54-2.96,0.7c-1,0.16-2.16,0.24-3.48,0.24
			c-2.77,0-4.93-0.83-6.48-2.47s-2.32-3.96-2.32-6.93c0-1.9,0.38-3.57,1.15-5c0.76-1.43,1.86-2.53,3.3-3.28s3.12-1.13,5.05-1.13
			c1.96,0,3.78,0.36,5.46,1.08l-0.83,1.88c-1.65-0.7-3.25-1.05-4.77-1.05c-2.23,0-3.97,0.66-5.22,1.99s-1.88,3.17-1.88,5.53
			c0,2.47,0.6,4.35,1.81,5.62c1.21,1.28,2.98,1.92,5.32,1.92c1.27,0,2.51-0.15,3.72-0.44v-5.64h-4.1V99.72z"/>
		<path class="st3" d="M284.22,104.44c0,1.61-0.58,2.87-1.75,3.77c-1.17,0.9-2.76,1.35-4.76,1.35c-2.17,0-3.84-0.28-5.01-0.84v-2.05
			c0.75,0.32,1.57,0.57,2.46,0.75c0.89,0.18,1.76,0.28,2.63,0.28c1.42,0,2.49-0.27,3.21-0.81c0.72-0.54,1.08-1.29,1.08-2.25
			c0-0.63-0.13-1.16-0.38-1.56c-0.25-0.4-0.68-0.78-1.28-1.12c-0.6-0.34-1.5-0.73-2.72-1.17c-1.7-0.61-2.92-1.33-3.65-2.17
			c-0.73-0.84-1.1-1.93-1.1-3.27c0-1.41,0.53-2.54,1.59-3.37s2.46-1.25,4.21-1.25c1.82,0,3.5,0.33,5.02,1l-0.66,1.85
			c-1.51-0.63-2.98-0.95-4.41-0.95c-1.13,0-2.01,0.24-2.64,0.73s-0.95,1.16-0.95,2.02c0,0.63,0.12,1.15,0.35,1.56
			c0.23,0.41,0.63,0.78,1.18,1.12s1.41,0.71,2.55,1.12c1.92,0.69,3.24,1.42,3.96,2.21S284.22,103.19,284.22,104.44z"/>
		<path class="st3" d="M310.72,109.31h-2.13v-8.62h-9.65v8.62h-2.13V91h2.13v7.79h9.65V91h2.13V109.31z"/>
		<path class="st3" d="M340.52,100.13c0,2.93-0.74,5.24-2.22,6.92s-3.54,2.52-6.18,2.52c-2.7,0-4.78-0.83-6.25-2.47
			s-2.2-3.98-2.2-6.99c0-2.98,0.73-5.29,2.21-6.93c1.47-1.64,3.56-2.46,6.26-2.46c2.63,0,4.69,0.83,6.16,2.5
			C339.78,94.89,340.52,97.19,340.52,100.13z M325.93,100.13c0,2.48,0.53,4.36,1.58,5.64s2.59,1.92,4.6,1.92
			c2.03,0,3.56-0.64,4.6-1.92c1.04-1.28,1.55-3.16,1.55-5.65c0-2.46-0.52-4.33-1.55-5.61c-1.03-1.27-2.56-1.91-4.58-1.91
			c-2.03,0-3.57,0.64-4.63,1.92S325.93,97.68,325.93,100.13z"/>
		<path class="st3" d="M369.47,109.31h-2.11l-3.7-12.27c-0.18-0.54-0.37-1.23-0.59-2.05c-0.22-0.83-0.33-1.32-0.34-1.49
			c-0.18,1.1-0.48,2.31-0.88,3.62l-3.58,12.19h-2.1L351.3,91h2.26l2.89,11.31c0.4,1.59,0.69,3.02,0.88,4.31
			c0.23-1.53,0.56-3.02,1-4.49L361.62,91h2.25l3.45,11.24c0.4,1.29,0.74,2.76,1.01,4.39c0.16-1.19,0.46-2.63,0.9-4.33L372.11,91
			h2.25L369.47,109.31z"/>
	</g>
</g>
</svg>
